<?xml version="1.0" encoding="UTF-8" standalone="no"?>
<!-- Created with Inkscape (http://www.inkscape.org/) -->

<svg
   width="185"
   height="185"
   viewBox="0 0 48.947914 48.947918"
   version="1.1"
   id="svg1"
   sodipodi:docname="acer-japonicum-1.svg"
   inkscape:version="1.4 (e7c3feb100, 2024-10-09)"
   xmlns:inkscape="http://www.inkscape.org/namespaces/inkscape"
   xmlns:sodipodi="http://sodipodi.sourceforge.net/DTD/sodipodi-0.dtd"
   xmlns="http://www.w3.org/2000/svg"
   xmlns:svg="http://www.w3.org/2000/svg">
  <sodipodi:namedview
     id="namedview1"
     pagecolor="#ffffff"
     bordercolor="#666666"
     borderopacity="1.0"
     inkscape:showpageshadow="2"
     inkscape:pageopacity="0.0"
     inkscape:pagecheckerboard="0"
     inkscape:deskcolor="#d1d1d1"
     inkscape:zoom="1.7781364"
     inkscape:cx="71.141897"
     inkscape:cy="140.59664"
     inkscape:window-width="1920"
     inkscape:window-height="1023"
     inkscape:window-x="0"
     inkscape:window-y="0"
     inkscape:window-maximized="1"
     inkscape:current-layer="svg1" />
  <defs
     id="defs1" />
  <g
     id="g27096"
     transform="matrix(0.66885658,0,0,0.66885658,9.7068949,-17.896907)">
    <path
       style="display:inline;fill:#594520"
       d="M 10.910879,99.724566 C 22.458818,101.95923 25.654754,84.539416 14.925145,80.410871 11.125624,77.653367 -3.0320974,84.584854 0.68491692,80.422941 3.6415891,79.258954 -4.9699808,76.916493 2.3729145,78.46521 9.704334,81.163703 12.395158,77.167938 4.1521527,75.303764 0.86994635,76.092198 -14.729282,69.955011 -3.6741804,72.665433 6.4358782,76.114324 -5.4920966,64.414948 -10.079911,66.026752 -4.507983,66.241234 -6.9862727,64.568727 -8.0477182,61.357427 -1.8544796,67.77652 6.4489887,77.67692 14.972657,77.252848 8.5224845,70.194629 1.0531853,62.556049 -7.0473994,57.639957 -10.592665,53.542853 1.1466218,61.209189 -4.9670467,54.63243 -7.8322484,45.028947 7.726898,76.530546 3.6673971,57.805311 6.0535207,57.092032 3.6640471,69.796621 10.644718,70.206185 17.064037,75.992712 12.281996,58.512122 7.4327937,57.474462 5.7420599,53.289713 -2.7994096,49.087835 -2.7113515,46.877178 c 6.9076796,6.72555 -1.1127451,-8.031611 4.0609217,0.325044 3.7480799,11.171902 2.3214945,-9.960302 3.8583466,0.224467 -1.6194644,6.226366 4.0595135,9.895873 7.8511472,13.853546 -0.864126,-4.316478 0.17823,-13.867395 1.036944,-3.833584 0.715343,4.565677 -0.717385,12.106498 2.976008,7.5899 -7.0858489,5.958383 7.352884,25.803745 4.714421,9.335738 C 21.450002,67.630008 23.835968,60.379425 20.012532,54.284199 16.735609,48.910536 6.4046701,44.056173 5.1975661,38.297899 9.63325,45.110614 7.2204422,31.32465 9.2252884,39.050618 10.74495,49.293164 12.384544,28.571972 12.32177,40.089843 c -3.7605867,6.022069 9.615643,14.603687 5.618543,3.918163 0.311703,-10.275122 4.440393,23.871435 4.787621,7.040404 1.37425,-5.752936 -0.5006,-11.288849 -2.03986,-16.149313 2.805396,9.298654 3.454807,-7.21688 3.731789,2.778741 -0.593839,9.029948 2.916445,-0.765785 2.643852,-1.011599 6.935973,0.105184 -7.016114,8.401096 -2.791348,15.146432 -0.0031,5.136942 -10e-4,10.273886 -0.0016,15.410829 9.071627,-4.78975 5.040061,-14.426801 3.689236,-22.326408 3.540544,2.549707 2.639697,20.596789 6.289146,7.936661 3.275056,-3.768383 -1.304741,-21.029047 2.365912,-8.359303 1.269693,-4.80015 1.12995,-5.716259 3.187154,-3.95656 2.309448,-1.654193 -9.011087,17.525377 0.172677,8.689363 8.003051,-9.348602 -0.180549,3.571531 -4.620339,5.321562 -1.948482,6.521545 -8.097787,10.870136 -10.819203,16.320628 0.777234,2.269319 -1.72064,10.63007 1.563241,8.237228 7.891779,-1.402504 6.295219,-12.116434 9.061828,-15.394472 1.259091,4.694674 -5.440567,16.39887 2.861944,7.759512 8.483843,-2.563939 -4.161544,-22.429566 3.746441,-9.565115 1.749517,1.317092 4.945417,-16.101277 7.232051,-12.634693 -3.43846,5.777665 -0.698867,3.478287 3.05116,3.05475 -6.150454,1.706854 -9.900761,11.316002 -8.709192,14.855903 2.93685,-2.391879 11.912457,-14.861349 5.800281,-4.48221 0.380873,0.958972 10.302927,-2.638096 1.385746,1.7179 -4.467421,1.238373 -17.758233,12.073886 -6.015413,7.572368 3.888423,-0.897476 12.61466,-9.493282 5.594813,-1.180892 10.548101,-0.556536 -8.028971,3.187741 -10.812959,3.792567 -4.4562,0.283222 -11.577035,5.484246 -2.7214,4.091261 2.956389,1.077095 14.294663,-5.076703 7.060776,0.323157 9.35494,4.00857 -8.766998,-0.02664 -11.764184,0.804691 -10.193753,-1.348892 -10.440121,21.326932 0.84578,18.854187 9.475158,1.615885 -9.188849,1.222413 -11.948465,1.279028 -3.282192,-0.04733 -6.588933,0.123097 -9.856909,-0.210047 z"
       id="path27091" />
  </g>
</svg>
