<?xml version="1.0" encoding="UTF-8" standalone="no"?>
<!-- Created with Inkscape (http://www.inkscape.org/) -->

<svg
   width="64.41539mm"
   height="58.992348mm"
   viewBox="0 0 64.41539 58.992348"
   version="1.1"
   id="svg1"
   xmlns="http://www.w3.org/2000/svg"
   xmlns:svg="http://www.w3.org/2000/svg">
  <defs
     id="defs1" />
  <g
     id="layer1"
     transform="translate(-55.297918,-112.44792)">
    <g
       id="g4664"
       transform="translate(93.012634,120.26745)">
      <path
         style="baseline-shift:baseline;display:inline;overflow:visible;vector-effect:none;fill:#ebe6d7;enable-background:accumulate;stop-color:#000000;stop-opacity:1"
         d="m -3.2058019,9.8478642 c -0.3781183,0.2176438 -0.4572518,1.5154038 -0.4640543,5.0818608 -0.00474,2.484424 -0.1284169,6.302974 -0.2749187,8.485786 -0.1465018,2.182813 -0.3528869,5.754687 -0.4588867,7.9375 -0.2079952,4.283167 -0.2709625,4.189459 -0.8841837,-1.322916 -0.5182478,-4.65864 -2.1915448,-10.5368 -3.3708537,-11.840104 -0.5827152,-0.643983 -1.575373,-0.586362 -1.949752,0.113171 -0.169598,0.316897 -0.411979,1.477757 -0.538468,2.579688 -0.340412,2.965553 0.105526,7.444368 1.5037839,15.10037 0.115493,0.632369 -0.2508929,0.08698 -1.1560019,-1.719792 -1.485142,-2.964627 -3.50835,-5.401562 -5.597591,-6.742224 -2.736369,-1.755923 -4.060946,-0.88237 -2.306836,1.521354 1.828682,2.505913 3.655124,6.060642 4.529439,8.814449 0.984644,3.101304 1.868857,6.815886 1.669666,7.015076 -0.07075,0.07075 -0.590374,0.178895 -1.154452,0.240295 -0.564077,0.06141 -2.156354,0.233256 -3.538802,0.381889 -3.92194,0.421667 -13.232129,2.403456 -16.933333,3.604431 -2.60589,0.845567 -3.035347,1.100079 -2.645833,1.569414 0.209439,0.252359 3.993447,0.335345 16.585034,0.363285 8.972617,0.01991 16.34321,0.06515 16.378845,0.100769 0.035635,0.03559 1.2355644,0.05073 2.6665039,0.03359 1.43093949,-0.01715 8.1169997,-0.04691 14.8580081,-0.06615 11.518161,-0.03287 12.251223,-0.06303 12.170833,-0.498161 C 25.67463,49.477188 15.012342,46.69559 6.747079,45.609506 4.8553082,45.360921 3.2655281,45.125533 3.2144781,45.086023 3.0053582,44.924162 5.5497923,34.198629 6.6607793,30.559261 7.5577556,27.620949 9.1892296,23.398793 10.192863,21.418217 10.962905,19.898613 11.007421,19.43257 10.404737,19.201298 9.55648,18.875792 7.178579,21.120917 5.0634608,24.244401 3.6669586,26.306674 1.7027609,30.437247 0.73969372,33.337386 0.16348658,35.07255 0.03081045,35.314337 0.15936739,34.39572 0.48511539,32.068055 0.66406722,24.688768 0.47252657,21.478162 0.16940924,16.397306 -1.3901456,10.763222 -2.7195267,9.9465661 -2.9204092,9.8231615 -3.0797625,9.7753163 -3.2058019,9.8478642 Z m 0.2992066,0.2309988 c 0.01985,0.0031 0.053686,0.05415 0.074931,0.06253 0.1135506,0.01246 0.2549492,0.140084 0.4170288,0.348299 0.013274,0.0159 0.019992,0.01111 0.03359,0.02791 0.01009,0.01246 0.024309,0.05235 0.034623,0.06615 0.074749,0.103115 0.13977,0.172004 0.2253092,0.311092 0.7544359,1.226716 1.32219098,3.429378 1.77095137,5.927803 0.052002,0.258767 0.14620986,0.523376 0.18861897,0.772046 0.0473296,0.277521 0.07474548,0.612116 0.11678874,0.906405 0.06119082,0.446893 0.11997754,0.864905 0.17053223,1.329634 0.14241519,1.312604 0.23756929,2.689976 0.28215332,4.129464 0.0826169,2.296804 0.0739461,4.62515 -0.12505697,6.863664 -0.56071175,6.307244 -0.56556358,6.400839 -0.3085083,5.688541 0.13128949,-0.363802 0.59535191,-1.792552 1.03146164,-3.175 1.5877712,-5.033163 4.2406183,-9.689039 7.1990437,-12.633854 1.4368508,-1.430241 2.3786656,-1.784349 2.3786656,-0.895036 0,0.271558 -0.538196,1.629188 -1.195792,3.017387 C 8.1140511,25.514677 6.4644808,30.276855 5.3797206,34.39572 4.34327,38.331153 3.0875953,44.406842 3.1726202,44.987838 c 0.00841,0.06526 -0.021519,0.246659 -0.0031,0.28267 0.1333346,0.08686 1.7675191,0.361006 3.709851,0.619601 7.4624898,0.993526 18.1463658,3.6546 18.4608888,4.598169 0.07844,0.23533 -2.796515,0.324141 -11.758455,0.363285 -6.5241844,0.0285 -14.6345364,0.06435 -18.0231898,0.07906 -3.3886535,0.01472 -6.1986192,-0.01088 -6.2440632,-0.05633 -0.04544,-0.04545 -5.740236,-0.09363 -12.655558,-0.107487 -6.915321,-0.01386 -12.733533,-0.124386 -12.929443,-0.245464 -0.38854,-0.240132 -0.34648,-0.260604 2.600875,-1.270206 3.636006,-1.245497 12.032875,-2.977002 17.526578,-3.613733 1.962685,-0.22748 3.654038,-0.498675 3.758427,-0.603064 0.234267,-0.234266 -0.553312,-3.822657 -1.463993,-6.739124 -0.03141,-0.09642 -0.0581,-0.191436 -0.08992,-0.287321 -0.856008,-2.660975 -2.197958,-5.370118 -4.147551,-8.338509 -0.792884,-1.207222 -1.170369,-1.944641 -1.223181,-2.391585 -8.74e-4,-0.0018 -0.0052,-0.0082 -0.0052,-0.0088 0,-0.008 0.007,-0.0087 0.0072,-0.01654 -1e-4,-0.0026 -0.0072,-0.01507 -0.0072,-0.01757 0,-0.01882 0.01645,-0.02152 0.01757,-0.03927 7.78e-4,-0.161669 0.04681,-0.288901 0.162264,-0.3576 0.03667,-0.0273 0.09911,-0.02642 0.147277,-0.04186 0.08579,-0.02379 0.135209,-0.07338 0.256316,-0.07338 0.04734,0 0.105776,0.02957 0.154512,0.03307 0.01015,0.0017 0.02118,0.0048 0.03152,0.0067 0.981409,0.08434 2.228041,0.952523 3.488159,2.137337 0.219446,0.193546 0.444529,0.366438 0.656807,0.578776 0.212799,0.223676 0.402492,0.463565 0.611849,0.706417 0.547795,0.617414 1.065557,1.289589 1.552877,2.029334 0.361838,0.536472 0.710039,1.063206 1.021126,1.628841 0.399852,0.727029 0.768127,1.463283 1.050066,2.201416 0.5268026,1.379201 0.9215594,2.17486 1.0552319,2.22312 0.01275,-0.247574 -0.1190025,-1.216312 -0.3808553,-2.586406 -0.004,-0.02095 -0.00583,-0.04004 -0.00982,-0.06098 -0.7701256,-3.90383 -1.2728996,-7.374572 -1.3983646,-10.393164 -0.01956,-0.286359 -0.0162,-0.501032 -0.03049,-0.773596 -0.0073,-0.297194 -0.03388,-0.614552 -0.03514,-0.905888 -9.33e-4,-0.216617 0.0097,-0.334066 0.01034,-0.535368 -0.02269,-1.496085 0.01586,-2.792762 0.208773,-3.537768 0.157325,-0.856496 0.437905,-1.256754 0.8495609,-1.347205 0.035266,-0.02495 0.069896,-0.0574 0.1059367,-0.06976 0.0088,-0.0026 0.018018,-0.0015 0.026872,-0.0036 0.027252,-0.0081 0.056278,0.02357 0.083716,0.01912 0.044866,8.3e-4 0.070516,-0.03506 0.118339,-0.02946 0.057275,0.0067 0.1151502,0.07678 0.1725993,0.09612 0.1523057,0.04378 0.3040152,0.111184 0.4594035,0.256832 0.099414,0.08917 0.1971289,0.227405 0.2961059,0.350883 0.1056668,0.140122 0.210514,0.258901 0.3162598,0.441834 1.4505782,2.345529 2.7842652,8.145154 3.3341634,15.136027 0.045215,0.574817 0.056477,0.466433 0.099219,0.945679 0.1545528,1.60586 0.2835657,2.581093 0.3214274,2.318204 0.123072,-1.230382 0.750332,-14.515337 1.0113077,-20.851957 0.017779,-0.685503 0.1043369,-2.219362 0.1049032,-2.632914 0.00406,-2.960649 0.1202066,-4.090023 0.5379517,-4.025594 z"
         id="path4624" />
      <path
         style="baseline-shift:baseline;display:inline;overflow:visible;vector-effect:none;fill:#e4daca;enable-background:accumulate;stop-color:#000000;stop-opacity:1"
         d="m -13.848563,38.295223 c 0.910681,2.916467 1.69826,6.504858 1.463993,6.739124 -0.104389,0.104389 -1.795742,0.375584 -3.758427,0.603064 -5.493703,0.636731 -13.890572,2.368236 -17.526578,3.613733 -2.947355,1.009602 -2.989415,1.030074 -2.600875,1.270206 0.19591,0.121078 6.014122,0.231604 12.929443,0.245464 6.915322,0.01386 12.610118,0.06204 12.655558,0.107487 0.04544,0.04545 2.8554101,0.07105 6.2440636,0.05633 3.3886534,-0.01472 11.4990054,-0.05056 18.0231894,-0.07906 8.96194,-0.03914 11.836895,-0.127955 11.758455,-0.363285 C 25.025736,49.544709 14.34186,46.883635 6.8793706,45.890109 4.9370387,45.631514 3.3028542,45.357364 3.1695196,45.270508 c 0.00636,0.01244 -0.00857,0.08858 -0.00103,0.09767 0.1515698,0.18263 1.1973572,0.41553 2.3238892,0.517281 6.0007692,0.542 19.5206612,3.74426 19.1140792,4.527372 -0.08067,0.15537 -4.520475,0.28572 -11.377083,0.33383 -6.1846359,0.04339 -13.74510506,0.102925 -16.8010424,0.132291 -3.0559373,0.02936 -6.1515627,-0.02557 -6.8791666,-0.121956 -0.727604,-0.09639 -6.777458,-0.185688 -13.443624,-0.198437 -7.749231,-0.01482 -12.062862,-0.115632 -11.961543,-0.27957 0.561269,-0.908151 12.559855,-3.617299 19.584334,-4.421952 2.037291,-0.233371 3.804205,-0.513529 3.926892,-0.622701 0.362738,-0.322776 -0.464652,-3.74921 -1.503784,-6.939112 z"
         id="path4427" />
      <path
         style="baseline-shift:baseline;display:inline;overflow:visible;vector-effect:none;fill:#e4daca;enable-background:accumulate;stop-color:#000000;stop-opacity:1"
         d="m -12.235225,32.214443 c 0.348715,0.529344 0.70714,1.041967 1.021126,1.628841 -0.311087,-0.565635 -0.659288,-1.092369 -1.021126,-1.628841 z m 1.021126,1.628841 c 0.478567,0.894491 0.915111,1.853437 1.3037968,2.869075 0.4041065,1.055933 0.7820025,1.872616 0.839742,1.814877 0.00526,-0.0053 -0.039519,-0.234584 -0.038241,-0.259416 -0.1336725,-0.04826 -0.5284293,-0.843919 -1.0552328,-2.22312 -0.281939,-0.738133 -0.650214,-1.474387 -1.050065,-2.201416 z"
         id="path4404" />
      <path
         style="baseline-shift:baseline;display:inline;overflow:visible;vector-effect:none;fill:#e4daca;enable-background:accumulate;stop-color:#000000;stop-opacity:1"
         d="m -14.399951,29.478692 c 0.213464,0.213525 0.406086,0.474504 0.611849,0.706417 -0.209357,-0.242852 -0.39905,-0.482741 -0.611849,-0.706417 z"
         id="path4400" />
      <path
         style="baseline-shift:baseline;display:inline;overflow:visible;vector-effect:none;fill:#e4daca;enable-background:accumulate;stop-color:#000000;stop-opacity:1"
         d="m -19.309212,27.277811 c 0.05281,0.446944 0.430297,1.184363 1.223181,2.391585 1.949593,2.968391 3.291543,5.677534 4.147551,8.338509 -0.479941,-1.446348 -0.9833,-2.82969 -1.461926,-3.814237 -0.584616,-1.20257 -1.704637,-3.145075 -2.488737,-4.316532 -0.73467,-1.097607 -1.298641,-2.149969 -1.372526,-2.517676 -0.0016,-0.0077 -0.03944,-0.0651 -0.04754,-0.08165 z"
         id="path4391" />
      <path
         style="baseline-shift:baseline;display:inline;overflow:visible;vector-effect:none;fill:#e4daca;enable-background:accumulate;stop-color:#000000;stop-opacity:1"
         d="m -19.134545,26.838045 c -0.115451,0.0687 -0.161486,0.195931 -0.162264,0.3576 0.01019,-0.162075 0.06283,-0.283583 0.162264,-0.3576 z"
         id="path4389" />
      <path
         style="baseline-shift:baseline;display:inline;overflow:visible;vector-effect:none;fill:#e4daca;enable-background:accumulate;stop-color:#000000;stop-opacity:1"
         d="m -18.544917,26.762595 c 0.482351,0.09084 1.173286,0.414219 2.035534,0.971517 0.504422,0.326023 0.978384,0.747553 1.452625,1.16582 -1.260118,-1.184814 -2.50675,-2.052994 -3.488159,-2.137337 z"
         id="path4388" />
      <path
         style="baseline-shift:baseline;display:inline;overflow:visible;vector-effect:none;fill:#e4daca;enable-background:accumulate;stop-color:#000000;stop-opacity:1"
         d="m -18.730952,26.722805 c -0.121107,0 -0.170522,0.04959 -0.256316,0.07338 0.11507,-0.03688 0.233491,-0.07054 0.410828,-0.04031 -0.04874,-0.0035 -0.107171,-0.03307 -0.154512,-0.03307 z"
         id="path4387" />
      <path
         style="baseline-shift:baseline;display:inline;overflow:visible;vector-effect:none;fill:#e4daca;enable-background:accumulate;stop-color:#000000;stop-opacity:1"
         d="m -10.897839,25.227289 c 0.125465,3.018592 0.628239,6.489334 1.3983644,10.393164 -0.7218094,-3.789291 -1.1964344,-7.436528 -1.3983644,-10.393164 z"
         id="path4386" />
      <path
         style="baseline-shift:baseline;display:inline;overflow:visible;vector-effect:none;fill:#e4daca;enable-background:accumulate;stop-color:#000000;stop-opacity:1"
         d="m -10.953133,23.012437 c -5.9e-4,0.201302 -0.01127,0.318751 -0.01034,0.535368 0.0013,0.291336 0.02781,0.608694 0.03514,0.905888 -0.02826,-0.539051 -0.01754,-0.962319 -0.0248,-1.441256 z"
         id="path4383" />
      <path
         style="baseline-shift:baseline;display:inline;overflow:visible;vector-effect:none;fill:#e4daca;enable-background:accumulate;stop-color:#000000;stop-opacity:1"
         d="m 10.414039,19.371831 c -0.332238,-0.208544 -1.1315298,0.259021 -2.2091679,1.331701 -2.9584254,2.944815 -5.6112725,7.600691 -7.1990437,12.633854 -0.43610973,1.382448 -0.90017215,2.811198 -1.03146164,3.175 -0.25705528,0.712298 -0.25220345,0.618703 0.3085083,-5.688541 0.19900307,-2.238514 0.20767387,-4.56686 0.12505697,-6.863664 0.065341,2.109669 0.0366813,4.269488 -0.12402344,6.202205 -0.16335003,1.964531 -0.35763259,4.405313 -0.43201497,5.423959 L -0.28349964,37.438428 0.66838025,34.39572 C 2.4548436,28.684037 5.3667454,23.467355 8.3371628,20.658057 c 1.5186723,-1.436297 2.0966042,-1.614888 1.9771402,-0.72192 9.01e-4,4.86e-4 0.0047,4.13e-4 0.0047,0.001 0,2.69e-4 -0.0058,0.01276 -0.0067,0.01499 -0.07978,0.562996 -0.3679204,1.445953 -1.0495483,2.979146 C 7.1174994,27.756499 5.6423672,32.602136 3.8500982,40.707996 3.2730154,43.317958 3.1085701,44.490822 3.1726202,44.987838 3.0875953,44.406842 4.34327,38.331153 5.3797206,34.39572 6.4644808,30.276855 8.1140511,25.514677 9.3877447,22.825883 c 0.6575963,-1.388199 1.1957923,-2.745829 1.1957923,-3.017387 0,-0.222328 -0.05875,-0.367151 -0.169498,-0.436665 z"
         id="path4375" />
      <path
         style="baseline-shift:baseline;display:inline;overflow:visible;vector-effect:none;fill:#e4daca;enable-background:accumulate;stop-color:#000000;stop-opacity:1"
         d="m -8.3155675,19.189413 c 1.3674247,2.365551 2.7161968,8.209912 3.3853231,15.735473 0.023859,0.268335 0.024976,0.106387 0.048059,0.346233 -0.042742,-0.479246 -0.054004,-0.370862 -0.099219,-0.945679 -0.5498982,-6.990873 -1.8835852,-12.790498 -3.3341631,-15.136027 z"
         id="path4374" />
      <path
         style="baseline-shift:baseline;display:inline;overflow:visible;vector-effect:none;fill:#e4daca;enable-background:accumulate;stop-color:#000000;stop-opacity:1"
         d="m -0.04475452,18.501088 c 0.06167001,0.43167 0.12045574,0.868093 0.17053223,1.329634 C 0.07522302,19.365988 0.0164363,18.947976 -0.04475452,18.501083 Z"
         id="path4367" />
      <path
         style="baseline-shift:baseline;display:inline;overflow:visible;vector-effect:none;fill:#e4daca;enable-background:accumulate;stop-color:#000000;stop-opacity:1"
         d="m -8.9279332,18.396701 c 0.09841,0.09224 0.1971073,0.219604 0.2961059,0.350883 -0.098977,-0.123478 -0.1966915,-0.261714 -0.2961059,-0.350883 z"
         id="path4366" />
      <path
         style="baseline-shift:baseline;display:inline;overflow:visible;vector-effect:none;fill:#e4daca;enable-background:accumulate;stop-color:#000000;stop-opacity:1"
         d="m -9.8947993,18.127471 c -0.4116557,0.09045 -0.6922357,0.490709 -0.8495607,1.347205 0.05137,-0.198382 0.09591,-0.423135 0.163298,-0.557072 0.128802,-0.256006 0.270443,-0.329238 0.40721,-0.47594 0.08331,-0.117341 0.164607,-0.243337 0.2557983,-0.299207 0.00776,-0.0044 0.015563,-0.0095 0.023254,-0.01499 z"
         id="path4362" />
      <path
         style="baseline-shift:baseline;display:inline;overflow:visible;vector-effect:none;fill:#e4daca;enable-background:accumulate;stop-color:#000000;stop-opacity:1"
         d="m -9.559936,18.043751 c -0.047823,-0.0056 -0.073473,0.03029 -0.118339,0.02946 0.095371,-0.01545 0.1936485,0.0387 0.2909383,0.06666 -0.057449,-0.01934 -0.1153239,-0.0894 -0.1725993,-0.09612 z"
         id="path4361" />
      <path
         style="baseline-shift:baseline;display:inline;overflow:visible;vector-effect:none;fill:#e4daca;enable-background:accumulate;stop-color:#000000;stop-opacity:1"
         d="m -3.5494502,16.737364 c -0.2609757,6.33662 -0.8882357,19.621575 -1.0113077,20.851957 0.00402,-0.02789 0.032291,0.301325 0.034106,0.24598 0.021484,-0.654844 0.2727197,-5.417343 0.5581055,-10.583333 0.2282347,-4.131452 0.3480962,-7.777031 0.4190962,-10.514604 z"
         id="path4355" />
      <path
         style="baseline-shift:baseline;display:inline;overflow:visible;vector-effect:none;fill:#e4daca;enable-background:accumulate;stop-color:#000000;stop-opacity:1"
         d="m -2.3464228,10.583737 c 0.5876037,0.785873 1.48162534,3.67802 1.99626057,6.238895 -0.44876039,-2.498425 -1.01651547,-4.701087 -1.77095137,-5.927803 -0.085539,-0.139088 -0.1505602,-0.207977 -0.2253092,-0.311092 z"
         id="path4335" />
      <path
         style="baseline-shift:baseline;display:inline;overflow:visible;vector-effect:none;fill:#e4daca;enable-background:accumulate;stop-color:#000000;stop-opacity:1"
         d="m -2.8316645,10.141403 c 0.1182802,0.04665 0.2518721,0.150494 0.4170288,0.348299 -0.1620796,-0.208215 -0.3034782,-0.335839 -0.4170288,-0.348299 z"
         id="path4333" />
      <path
         style="baseline-shift:baseline;display:inline;overflow:visible;vector-effect:none;fill:#d8d8c7;enable-background:accumulate;stop-color:#000000;stop-opacity:1"
         d="m 10.312236,19.952162 c -0.0069,0.01619 -0.03109,0.06812 -0.04961,0.10852 -0.06096,0.419633 -0.3672195,1.221269 -1.0505822,2.745569 -0.7374261,1.644902 -1.799583,4.384659 -2.3600627,6.088518 -1.6775346,5.09971 -4.1675655,15.643034 -3.8746989,16.406233 0.099772,0.260003 1.1881198,0.518883 3.5444865,0.842843 6.6483053,0.914027 15.9762023,3.070772 17.7508543,4.104142 0.325669,0.189635 -2.204732,0.276859 -8.39742,0.289905 -4.069086,0.0086 -10.06741,0.05266 -14.90710045,0.09509 -0.0920102,0.013 -0.18604782,0.0273 -0.29713948,0.03566 -0.28381879,0.01871 -0.54138767,0.02954 -0.92139079,0.0098 -0.45796,0.01732 -1.47527948,0.01539 -2.13165288,0.02377 -1.7817271,0.03221 -3.0933857,-0.04688 -4.6007527,-0.09198 -2.0824728,-0.01454 -5.1239367,0.0066 -5.5846717,-0.04651 -0.873125,-0.100704 -6.320236,-0.176432 -12.104688,-0.168465 -5.784453,0.008 -10.517187,-0.07256 -10.517187,-0.1788 0,-0.209275 3.626918,-1.368712 5.55625,-1.776119 7.588026,-1.602321 10.39427,-2.122245 12.849345,-2.380217 4.685333,-0.492322 4.61321,-0.471954 4.611088,-1.291394 -0.0023,-0.888679 -0.882592,-4.639361 -1.627291,-6.933427 -0.759612,-2.340005 -2.357925,-5.516124 -4.081405,-8.110616 -0.759258,-1.142972 -1.335209,-2.141674 -1.380277,-2.36523 0.07389,0.367707 0.637856,1.420069 1.372526,2.517676 0.7841,1.171457 1.904121,3.113962 2.488737,4.316532 1.56006,3.209087 3.594725,10.560963 3.055627,11.04067 -0.122687,0.109172 -1.889601,0.38933 -3.926892,0.622701 -7.024479,0.804653 -19.023065,3.513801 -19.584334,4.421952 -0.101319,0.163938 4.212312,0.26475 11.961543,0.27957 6.666166,0.01275 12.71602,0.102047 13.443624,0.198437 0.7276043,0.09639 3.8232297,0.151316 6.879167,0.121956 3.05593734,-0.02937 10.6164065,-0.0889 16.801042,-0.132291 6.856608,-0.04811 11.296413,-0.17846 11.377083,-0.33383 C 25.013035,49.629715 11.493143,46.427455 5.4923742,45.885455 4.3658422,45.783704 3.3200548,45.550804 3.168485,45.368174 2.9729384,45.132554 3.171065,43.779056 3.8500972,40.707993 5.6423662,32.602133 7.1174984,27.756496 9.2626867,22.9313 9.9443146,21.398107 10.232454,20.51515 10.312235,19.952154 Z"
         id="path4199" />
      <path
         style="baseline-shift:baseline;display:inline;overflow:visible;vector-effect:none;fill:#d8d8c7;enable-background:accumulate;stop-color:#000000;stop-opacity:1"
         d="m -10.173852,18.44166 c -0.136767,0.146702 -0.278408,0.219934 -0.40721,0.47594 -0.86771,1.72465 -0.394924,8.986904 1.091406,16.763834 0.2881172,1.507517 0.4768358,2.788082 0.4190958,2.845822 -0.05774,0.05774 -0.4356355,-0.758944 -0.839742,-1.814877 -1.5547418,-4.062554 -3.8729888,-7.216304 -6.5990808,-8.978263 -1.746014,-1.128503 -2.804996,-1.317137 -2.804996,-0.499194 0,0.0025 0.0071,0.01493 0.0072,0.01757 0.04172,-1.500525 4.0701,1.008137 6.27972,3.923791 1.358146,1.79211 2.636912,4.403824 3.6256189,7.403683 1.1667198,3.539973 1.1473209,3.344787 -0.6795449,-6.830075 -0.672794,-3.747175 -0.966433,-10.744762 -0.519865,-12.382706 0.121791,-0.446712 0.272007,-0.706704 0.427364,-0.925525 z"
         id="path4197" />
      <path
         style="baseline-shift:baseline;display:inline;overflow:visible;vector-effect:none;fill:#d8d8c7;enable-background:accumulate;stop-color:#000000;stop-opacity:1"
         d="m -9.7888626,18.057699 c -0.043901,0.01506 -0.085829,0.05994 -0.1291911,0.08475 0.043267,-0.02651 0.084354,-0.07161 0.1291911,-0.08475 z"
         id="path4195" />
      <path
         style="baseline-shift:baseline;display:inline;overflow:visible;vector-effect:none;fill:#d8d8c7;enable-background:accumulate;stop-color:#000000;stop-opacity:1"
         d="m -2.9065953,10.078858 c -0.4177451,-0.06443 -0.5338942,1.064945 -0.5379517,4.025594 -0.00283,2.065083 -0.2386131,7.981529 -0.523999,13.147518 -0.2853858,5.16599 -0.5366215,9.928489 -0.5581055,10.583333 -0.021484,0.654843 -0.2030414,-0.654844 -0.4035929,-2.910417 -0.9088648,-10.221864 -3.0711203,-17.395252 -4.8317464,-16.870804 1.3808965,-0.322917 3.4527391,5.507463 4.3268676,13.166638 0.2242087,1.964531 0.4180565,4.464844 0.4309815,5.55625 0.012925,1.091406 0.1093643,2.579687 0.2144572,3.307291 0.1810616,1.253568 0.200537,1.191154 0.3663859,-1.190625 0.096263,-1.382448 0.3021414,-5.311511 0.4578532,-8.73125 0.1557119,-3.41974 0.3926126,-8.122707 0.5265828,-10.451041 0.1339702,-2.328333 0.248195,-5.40377 0.2537313,-6.834725 0.00757,-1.955699 0.092458,-2.576591 0.3410644,-2.500106 0.017215,0.0053 0.040725,0.06575 0.058394,0.07441 0.00306,0 0.00874,0.01456 0.011886,0.01499 0.088325,0.01187 0.2055219,0.174433 0.3374471,0.418063 0.00207,0.0034 0.00516,0.01516 0.00723,0.0186 0.8622467,1.19242 1.98423202,4.906092 2.42672526,8.41189 0.41397826,3.27988 0.29720008,10.594571 -0.24753011,15.477091 -0.65571928,5.877337 -0.56957473,6.044682 0.63975423,1.239201 1.12190972,-4.458105 2.92123802,-8.4744 5.15214032,-11.745536 0.023233,-0.03427 0.04691,-0.08953 0.07028,-0.123507 0.027922,-0.0406 0.071079,-0.0776 0.099219,-0.117822 0.3379574,-0.484521 0.6566301,-1.003078 1.0144083,-1.450041 1.5929021,-1.989969 2.5842481,-2.865916 3.2132406,-2.897497 0.056598,-0.01147 0.1193512,-0.0309 0.1545132,-0.01137 0.02934,0.0058 0.07131,-0.01826 0.0987,-0.0078 0.0733,0.02813 0.102274,0.114684 0.09715,0.252698 0.0072,0.0021 0.01997,0.0036 0.02481,0.0062 0.119464,-0.892968 -0.4584683,-0.714377 -1.9771406,0.72192 -2.9704174,2.809298 -5.8823192,8.02598 -7.66878255,13.737663 l -0.95187989,3.042708 0.13539226,-1.852083 C -0.073725,34.567699 0.12055756,32.126917 0.28390759,30.162386 0.61910833,26.13109 0.44200918,21.133663 -0.16154326,17.594678 -0.63101926,14.841862 -1.7380445,11.311664 -2.381046,10.517591 -2.5942264,10.254324 -2.767347,10.100334 -2.9065953,10.078858 Z"
         id="path4188" />
      <path
         style="baseline-shift:baseline;display:inline;overflow:visible;vector-effect:none;fill:#cfc5b0;enable-background:accumulate;stop-color:#000000;stop-opacity:1"
         d="m 10.262627,20.060676 c -0.05038,0.109934 -0.117546,0.254887 -0.134359,0.29559 -0.1537675,0.536315 -0.4379859,1.272894 -0.9854696,2.428792 -0.4929807,1.040826 -0.9801926,2.205452 -1.460376,3.490226 -2.068e-4,5.53e-4 -3.1e-4,9.97e-4 -5.168e-4,0.0016 -0.4800017,1.28439 -0.952992,2.688636 -1.4180013,4.209562 -0.123151,0.402841 -0.2407538,0.881007 -0.3627685,1.300179 -0.3393449,1.165792 -0.6792103,2.326966 -1.0092407,3.61735 -0.4473708,1.748993 -0.8856102,3.610403 -1.313615,5.581055 -5.262e-4,0.0024 -5.077e-4,0.0038 -0.00103,0.0062 -0.00401,0.01847 -0.00532,0.02862 -0.0093,0.04702 -0.3858164,1.781346 -0.5364831,2.797057 -0.6009969,3.414779 -0.060294,0.504608 -0.1219541,1.018147 -0.078031,1.136882 0.2310839,0.624679 -0.3638559,4.321185 -0.7751464,4.81676 -0.02062,0.02485 -0.3903186,0.03471 -0.4842082,0.05684 -0.026283,0.01405 -0.032592,0.04046 -0.062528,0.05323 -0.011508,0.01655 -0.022679,0.04167 -0.034623,0.04806 -0.076675,0.04104 -0.3302756,0.03117 -0.4676717,0.05633 -0.02684,0.0038 -0.066701,0.0077 -0.096635,0.01189 4.8396904,-0.04242 10.8380141,-0.08651 14.9071001,-0.09509 6.192688,-0.01305 8.723089,-0.10027 8.39742,-0.289905 C 22.497972,49.214612 13.170075,47.057867 6.5217697,46.14384 4.165403,45.81988 3.0770552,45.561 2.9772832,45.300997 2.6844166,44.537798 5.1744475,33.994474 6.8519821,28.894764 c 0.5604797,-1.703859 1.6226366,-4.443616 2.3600627,-6.088518 0.6833627,-1.5243 0.9896172,-2.325936 1.0505822,-2.74557 z"
         id="path4035" />
      <path
         style="baseline-shift:baseline;display:inline;overflow:visible;vector-effect:none;fill:#cfc5b0;enable-background:accumulate;stop-color:#000000;stop-opacity:1"
         d="m 9.9391322,19.696358 c -0.6289925,0.03158 -1.6203385,0.907528 -3.2132406,2.897497 -0.3577782,0.446963 -0.6764509,0.96552 -1.0144083,1.450041 0.6704263,-0.958234 1.3910399,-1.81677 2.3590291,-2.811198 0.9854617,-1.012378 1.5667581,-1.475196 1.8686198,-1.53634 z"
         id="path4034" />
      <path
         style="baseline-shift:baseline;display:inline;overflow:visible;vector-effect:none;fill:#cfc5b0;enable-background:accumulate;stop-color:#000000;stop-opacity:1"
         d="m 10.192347,19.677238 c -0.02739,-0.01051 -0.06936,0.01356 -0.0987,0.0078 0.06196,0.03441 0.105477,0.09538 0.104386,0.222725 0.02282,0.0101 0.06481,0.01464 0.09147,0.02222 0.0051,-0.138014 -0.02385,-0.224569 -0.09715,-0.252698 z"
         id="path4033" />
      <path
         style="baseline-shift:baseline;display:inline;overflow:visible;vector-effect:none;fill:#cfc5b0;enable-background:accumulate;stop-color:#000000;stop-opacity:1"
         d="m -2.4291051,10.90258 c 0.3181346,0.529256 0.6908834,1.603925 1.0914062,2.864425 0.030758,0.102381 0.060159,0.206586 0.089917,0.311609 0.26640317,0.867598 0.55689722,1.702951 0.74827478,2.597257 0.51039924,2.385093 0.59531778,3.600066 0.6097819,8.724015 0.0153547,5.439442 -0.15846712,7.932907 -1.03197835,14.783594 -0.0533315,0.418263 -0.0698687,0.666218 -0.0490926,0.741557 0.0207761,0.07534 0.0789903,-0.0219 0.17569986,-0.294556 0.19341914,-0.545314 0.54040639,-1.791731 1.04851482,-3.75946 C 1.3846278,32.490266 1.8086881,31.321942 3.5343552,27.828679 4.2638069,26.352051 4.8761141,25.267474 5.5419846,24.285226 3.3110823,27.556362 1.511754,31.572657 0.38984428,36.030762 -0.81948468,40.836243 -0.90562923,40.668898 -0.24990995,34.791561 0.29482024,29.909041 0.41159842,22.59435 -0.00237984,19.31447 -0.44487308,15.808672 -1.5668584,12.095 -2.4291051,10.90258 Z"
         id="path4013" />
      <path
         style="baseline-shift:baseline;display:inline;overflow:visible;vector-effect:none;fill:#cfc5b0;enable-background:accumulate;stop-color:#000000;stop-opacity:1"
         d="m -2.8440669,10.376514 c -0.2486063,-0.07648 -0.3334944,0.544407 -0.3410644,2.500106 -0.00554,1.430955 -0.1197611,4.506392 -0.2537313,6.834725 -0.1339702,2.328334 -0.3708709,7.031301 -0.5265828,10.451041 -0.1557118,3.419739 -0.3615902,7.348802 -0.4578532,8.73125 -0.1658489,2.381779 -0.1853243,2.444193 -0.3663859,1.190625 -0.1050929,-0.727604 -0.2015322,-2.215885 -0.2144572,-3.307291 -0.012925,-1.091406 -0.2067728,-3.591719 -0.4309815,-5.55625 -1.0807915,-9.46997 -3.9937578,-16.153491 -5.1660928,-11.85354 -0.446568,1.637944 -0.152929,8.635531 0.519865,12.382706 1.8268658,10.174862 1.8462647,10.370048 0.6795449,6.830075 -0.9887069,-2.999859 -2.2674729,-5.611573 -3.6256189,-7.403683 -2.22112,-2.930828 -6.286954,-5.45771 -6.286954,-3.907255 0,0.163975 0.644708,1.269004 1.432987,2.455664 1.72348,2.594492 3.321793,5.770611 4.081405,8.110616 0.744699,2.294066 1.624991,6.044748 1.627291,6.933427 0.0021,0.81944 0.07424,0.799072 -4.611088,1.291394 -2.455075,0.257972 -5.261319,0.777896 -12.849345,2.380217 -1.929332,0.407407 -5.55625,1.566844 -5.55625,1.776119 0,0.106238 4.732734,0.1868 10.517187,0.1788 5.784452,-0.008 11.231563,0.06776 12.104688,0.168465 0.460735,0.05314 3.5021989,0.03197 5.5846717,0.04651 -0.9444129,-0.02826 -2.2786219,0.0012 -2.8825114,-0.05788 -0.1522093,-0.01538 -0.9820803,-0.01641 -1.0082073,-0.03256 -0.0078,-0.0048 -0.02149,-0.05253 -0.03152,-0.0739 -0.01456,-0.0057 -0.117276,-0.007 -0.12764,-0.01292 -0.262052,-0.148911 -2.371359,-0.307121 -4.687053,-0.351917 -2.452352,-0.04744 -4.351183,-0.198872 -4.548043,-0.362252 -0.432854,-0.359236 -0.181125,-1.048218 0.313676,-0.858345 0.206238,0.07914 0.375171,0.02511 0.375171,-0.120406 0,-0.399933 -0.52967,-0.525624 -2.055688,-0.487826 -1.155295,0.02862 -1.384575,-0.04254 -1.384412,-0.428914 1.07e-4,-0.254661 0.149345,-0.464651 0.331246,-0.466638 0.181901,-0.002 0.628386,-0.07164 0.992188,-0.15503 0.518697,-0.118904 0.575802,-0.09053 0.264583,0.131775 -0.34282,0.244873 -0.333815,0.283822 0.06615,0.287321 0.254661,0.0022 0.463021,-0.100894 0.463021,-0.229443 0,-0.369102 1.096736,-0.560155 2.201932,-0.383439 0.888127,0.142008 0.993371,0.234521 0.861963,0.758093 -0.162066,0.645722 0.395829,0.923459 2.161625,1.076937 0.960442,0.08348 0.991785,0.04457 0.54312,-0.673861 -0.2472,-0.39583 -0.425806,-0.448276 -0.814421,-0.240295 -0.516691,0.276525 -1.250053,0.137363 -1.250053,-0.237195 0,-0.317648 1.565354,-0.852327 2.003496,-0.684196 0.207675,0.07969 0.377754,0.01329 0.377754,-0.147795 0,-0.16109 0.219659,-0.293005 0.488343,-0.293005 0.703393,0 2.079246,-0.737228 2.26136,-1.211812 0.189343,-0.493419 -0.628996,-4.258494 -1.582332,-7.28121 -0.422838,-1.340679 -0.94073,-2.636117 -1.591117,-3.963582 -0.650388,-1.327465 -1.43327,-2.686957 -2.386418,-4.154785 -1.475556,-2.272325 -1.712977,-2.967778 -1.013375,-2.967778 1.244249,0 3.948962,2.096615 5.605859,4.345472 0.816857,1.108694 1.411939,2.047493 1.947685,3.151745 0.535747,1.104252 1.012158,2.373957 1.5921511,4.14445 0.4509528,1.376583 0.7515488,2.133158 0.9007202,2.278414 0.049724,0.04842 0.08274,0.02871 0.098702,-0.05839 0.063775,-0.348488 -0.1428234,-1.777962 -0.6237346,-4.268474 0,0 0,-5.16e-4 0,-5.16e-4 -0.6464085,-3.347578 -1.0353927,-5.567431 -1.2655557,-7.470862 -0.230164,-1.903432 -0.301507,-3.490442 -0.311609,-5.571753 -0.01696,-3.493781 0.05,-4.218192 0.443901,-4.820378 0.6150486,-0.940263 1.1214994,-0.708536 1.926497,0.88005 1.2053381,2.37862 2.2372702,6.744028 2.7905273,11.520744 0,0 0,5.16e-4 0,5.16e-4 0.1843883,1.59208 0.3156786,3.229909 0.3824056,4.855001 0,0 0,5.17e-4 0,5.17e-4 0.080887,1.9697 0.2219821,4.236103 0.3131592,5.036385 l 0.1653646,1.455208 0.2051554,-1.058333 c 0.1127204,-0.582083 0.2119693,-2.129895 0.2206584,-3.439583 0.00869,-1.309687 0.2031953,-5.655469 0.432015,-9.657292 0.2288198,-4.001823 0.4964963,-9.657292 0.5947957,-12.567708 0.032236,-0.954434 0.079507,-1.590504 0.1224731,-2.331641 0,0 0,-5.17e-4 0,-5.17e-4 -0.00689,-0.315946 0.038584,-1.122234 0.019637,-1.271757 -0.092344,-0.728743 -0.032824,-1.205678 0.1188558,-1.366324 0.032289,-0.0342 0.082935,0.0065 0.1229899,0.0015 0.017142,-0.05043 0.035038,-0.322978 0.051676,-0.322978 -0.01767,-0.0087 -0.04118,-0.06912 -0.058394,-0.07441 z M -29.901847,48.947803 c 0.356773,0 0.533301,0.175068 0.533301,0.529167 0,0.291042 -0.119062,0.529166 -0.264583,0.529166 -0.145521,0 -0.264584,-0.188687 -0.264584,-0.419095 0,-0.230408 -0.148828,-0.364354 -0.330729,-0.297657 -0.181901,0.0667 -0.300963,0.255385 -0.264583,0.419096 0.03638,0.163711 -0.21513,0.297656 -0.558622,0.297656 -0.343491,0 -1.206695,0.07529 -1.91823,0.166915 -0.829793,0.106852 -1.198583,0.07514 -1.028877,-0.08785 0.312366,-0.299994 3.328665,-1.137398 4.096907,-1.137398 z"
         id="path4012" />
      <path
         style="baseline-shift:baseline;display:inline;overflow:visible;vector-effect:none;fill:#cabda6;enable-background:accumulate;stop-color:#000000;stop-opacity:1"
         d="m -9.8653437,50.552356 c 1.5677508,0.153264 4.5852289,0.202249 7.4832641,0.149862 -0.64603,0.0083 -0.9252909,0.02699 -2.0980631,0.02325 -2.8221666,-0.009 -4.5722013,-0.09098 -5.385201,-0.173116 z"
         id="path3820" />
      <path
         style="baseline-shift:baseline;display:inline;overflow:visible;vector-effect:none;fill:#cabda6;enable-background:accumulate;stop-color:#000000;stop-opacity:1"
         d="m -29.901847,48.947803 c -0.768242,0 -3.784541,0.837404 -4.096907,1.137398 -0.169706,0.16299 0.199084,0.194702 1.028877,0.08785 0.711535,-0.09163 1.574739,-0.166915 1.91823,-0.166915 0.343492,0 0.595002,-0.133945 0.558622,-0.297656 -0.03638,-0.163711 0.08268,-0.352396 0.264583,-0.419096 0.181901,-0.0667 0.330729,0.06725 0.330729,0.297657 0,0.230408 0.119063,0.419095 0.264584,0.419095 0.145521,0 0.264583,-0.238124 0.264583,-0.529166 0,-0.354099 -0.176528,-0.529167 -0.533301,-0.529167 z"
         id="path3818" />
      <path
         style="baseline-shift:baseline;display:inline;overflow:visible;vector-effect:none;fill:#cabda6;enable-background:accumulate;stop-color:#000000;stop-opacity:1"
         d="m 2.966948,44.452987 c -0.01611,0.154253 -0.164638,0.829589 -0.1503785,0.852661 0.2135732,0.345568 -0.470807,4.255936 -0.8526611,4.871537 -0.07992,0.128842 -0.1934589,0.210946 -0.3343465,0.286288 0.09389,-0.02213 0.4635879,-0.032 0.4842082,-0.05684 0.4112905,-0.495575 1.0062303,-4.192081 0.7751464,-4.81676 -0.043923,-0.118735 0.017737,-0.632274 0.078031,-1.136882 z"
         id="path3814" />
      <path
         style="baseline-shift:baseline;display:inline;overflow:visible;vector-effect:none;fill:#cabda6;enable-background:accumulate;stop-color:#000000;stop-opacity:1"
         d="m 3.5772466,40.991183 c -7.957e-4,0.0037 -0.00179,0.0067 -0.00258,0.01033 -0.00417,0.01921 -0.00257,0.01753 -0.00672,0.03669 0.00398,-0.0184 0.00529,-0.02855 0.0093,-0.04702 z"
         id="path3799" />
      <path
         style="baseline-shift:baseline;display:inline;overflow:visible;vector-effect:none;fill:#cabda6;enable-background:accumulate;stop-color:#000000;stop-opacity:1"
         d="m -9.1186193,36.580595 c 0.4809112,2.490512 0.6875092,3.919986 0.6237346,4.268474 0.063841,-0.348373 -0.1428542,-1.778061 -0.6237346,-4.268474 z"
         id="path3776" />
      <path
         style="baseline-shift:baseline;display:inline;overflow:visible;vector-effect:none;fill:#cabda6;enable-background:accumulate;stop-color:#000000;stop-opacity:1"
         d="m -15.240209,34.109949 c 0.650387,1.327465 1.168279,2.622903 1.591117,3.963582 -0.422838,-1.340679 -0.94073,-2.636117 -1.591117,-3.963582 z m 1.591117,3.963582 c 0.953336,3.022716 1.771675,6.787791 1.582332,7.28121 -0.182114,0.474584 -1.557967,1.211812 -2.26136,1.211812 -0.268684,0 -0.488343,0.131915 -0.488343,0.293005 0,0.161086 -0.170079,0.227485 -0.377754,0.147795 -0.438142,-0.168131 -2.003496,0.366548 -2.003496,0.684196 0,0.374558 0.733362,0.51372 1.250053,0.237195 0.388615,-0.207981 0.567221,-0.155535 0.814421,0.240295 0.448665,0.718433 0.417322,0.757341 -0.54312,0.673861 -1.765796,-0.153478 -2.323691,-0.431215 -2.161625,-1.076937 0.131408,-0.523572 0.02616,-0.616085 -0.861963,-0.758093 -1.105196,-0.176716 -2.201932,0.01434 -2.201932,0.383439 0,0.128549 -0.20836,0.231643 -0.463021,0.229443 -0.399961,-0.0035 -0.408966,-0.04245 -0.06615,-0.287321 0.311219,-0.222303 0.254114,-0.250679 -0.264583,-0.131775 -0.363802,0.08339 -0.810287,0.15303 -0.992188,0.15503 -0.181901,0.002 -0.331139,0.211977 -0.331246,0.466638 -1.63e-4,0.386369 0.229117,0.457534 1.384412,0.428914 1.526018,-0.0378 2.055688,0.08789 2.055688,0.487826 0,0.145521 -0.168933,0.199546 -0.375171,0.120406 -0.494801,-0.189873 -0.74653,0.499109 -0.313676,0.858345 0.19686,0.16338 2.095691,0.314812 4.548043,0.362252 2.315694,0.0448 4.425001,0.203006 4.687053,0.351917 0.01036,0.0059 0.113075,0.0072 0.12764,0.01292 -0.03222,-0.0686 -0.06881,-0.169496 -0.101285,-0.237195 -0.0041,-0.0037 -0.0301,-0.0044 -0.03307,-0.0083 -0.01415,-0.01855 -0.03457,-0.157577 -0.04961,-0.186552 -0.421417,-1.113013 -1.080714,-4.200751 -0.920874,-4.617289 0.163261,-0.425451 -0.748679,-4.499595 -1.639176,-7.323068 z"
         id="path3764" />
      <path
         style="baseline-shift:baseline;display:inline;overflow:visible;vector-effect:none;fill:#cabda6;enable-background:accumulate;stop-color:#000000;stop-opacity:1"
         d="M 10.128268,20.35627 C 9.9745005,20.892585 9.6902821,21.629164 9.1427984,22.785062 9.6902821,21.629164 9.9745005,20.892585 10.128268,20.35627 Z"
         id="path3737" />
      <path
         style="baseline-shift:baseline;display:inline;overflow:visible;vector-effect:none;fill:#cabda6;enable-background:accumulate;stop-color:#000000;stop-opacity:1"
         d="m 10.01613,19.560969 c -0.3336109,0.115427 -0.978451,0.678149 -1.9456176,1.671733 1.4958402,-1.536697 2.1325286,-1.909992 2.1275186,-1.324984 0.0018,-0.206759 4.58e-4,-0.409843 -0.181901,-0.346749 z"
         id="path3733" />
      <path
         style="baseline-shift:baseline;display:inline;overflow:visible;vector-effect:none;fill:#cabda6;enable-background:accumulate;stop-color:#000000;stop-opacity:1"
         d="m -2.4363398,10.883977 c 0.3069975,0.56694 0.7043576,1.642165 1.0986409,2.883028 -0.4031309,-1.268708 -0.7791653,-2.357601 -1.0986409,-2.883028 z"
         id="path3723" />
      <path
         style="baseline-shift:baseline;display:inline;overflow:visible;vector-effect:none;fill:#bac3a4;enable-background:accumulate;stop-color:#000000;stop-opacity:1"
         d="m 1.0647385,50.621086 c -0.11569001,0.02118 -0.24171788,0.03752 -0.39377443,0.04754 0.14723348,-0.01107 0.2844333,-0.03218 0.39377443,-0.04754 z"
         id="path3635" />
      <path
         style="baseline-shift:baseline;display:inline;overflow:visible;vector-effect:none;fill:#bac3a4;enable-background:accumulate;stop-color:#000000;stop-opacity:1"
         d="m -11.006359,50.208708 c 0.04259,0.08879 0.10007,0.290859 0.132808,0.311092 0.165679,0.102395 3.0428785,0.195002 6.3934083,0.205672 2.3643213,0.0075 3.3210126,-0.01265 4.22971598,-0.04703 -0.53716242,-0.02787 -1.10021458,-0.06316 -1.73374428,-0.166398 -0.1455208,-0.02371 -0.5661257,0.03766 -0.9343099,0.136426 -0.3681841,0.09877 -0.7518136,0.09725 -0.8526612,-0.0036 -0.1008476,-0.100848 -1.7214958,-0.168862 -3.6013305,-0.150895 -0.4822613,0.0046 -0.6844515,-0.01598 -1.0624675,-0.02015 -0.608822,0.118303 -1.3760855,0.08192 -1.8872229,-0.09715 -0.305468,-0.04511 -0.599769,-0.09089 -0.684196,-0.167948 z"
         id="path3633" />
      <path
         style="baseline-shift:baseline;display:inline;overflow:visible;vector-effect:none;fill:#bac3a4;enable-background:accumulate;stop-color:#000000;stop-opacity:1"
         d="m 10.128268,20.356265 c -0.137977,0.33402 -0.4967287,1.135056 -1.1038087,2.425175 -0.7119839,1.513053 -1.6565851,3.833886 -2.0985799,5.157824 -1.8135016,5.43211 -4.2798421,15.707193 -4.2798421,17.828886 0,1.878893 -0.4141334,3.806022 -0.8976196,4.497917 l -0.028422,0.136942 h -0.070797 c -0.027946,0.02867 -0.054913,0.07449 -0.082166,0.113689 0.190408,-0.08121 0.3020461,-0.186638 0.396875,-0.339515 0.3818548,-0.615599 1.066235,-4.525967 0.8526618,-4.871535 C 2.744592,45.189186 3.0858134,43.25232 3.5746628,41.001518 5.2926382,33.091467 7.1693405,26.951605 9.1427984,22.785059 9.6902821,21.629161 9.9745005,20.892582 10.128268,20.356267 Z"
         id="path3618" />
      <path
         style="baseline-shift:baseline;display:inline;overflow:visible;vector-effect:none;fill:#bac3a4;enable-background:accumulate;stop-color:#000000;stop-opacity:1"
         d="m -1.2477819,14.078614 c 0.83636469,2.951692 1.28456177,6.922108 1.27279057,11.596191 -0.0115497,4.586129 -0.16565682,6.40131 -1.50636797,17.782894 -0.113659,0.964876 -0.081383,1.521354 0.08785,1.521354 0.1467599,0 0.3500443,-0.734881 0.45165202,-1.632975 0.21605335,-1.909659 1.26637964,-6.699379 2.05000408,-9.347233 0.7691106,-2.598812 2.9843321,-7.330312 4.4591593,-9.525 1.4130326,-2.102731 3.7980276,-4.630209 4.3692424,-4.630209 0.1437635,0 0.1962005,0.03518 0.2614825,0.06408 0.005,-0.585008 -0.6316783,-0.211713 -2.1275185,1.324984 -2.0172367,2.072334 -3.0263502,3.539681 -4.5361572,6.59598 -1.7256671,3.493263 -2.1497274,4.661587 -3.2809367,9.042342 -1.01621686,3.935458 -1.3884479,4.98551 -1.17512207,3.312459 0.87351113,-6.850688 1.04733295,-9.344153 1.03197825,-14.783595 -0.01446412,-5.123949 -0.09938266,-6.338922 -0.6097819,-8.724015 -0.19137756,-0.894306 -0.48187161,-1.729659 -0.74827478,-2.597257 z"
         id="path3614" />
      <path
         style="baseline-shift:baseline;display:inline;overflow:visible;vector-effect:none;fill:#bac3a4;enable-background:accumulate;stop-color:#000000;stop-opacity:1"
         d="m -3.0988317,13.410954 c -0.042966,0.741137 -0.090237,1.377207 -0.1224731,2.331641 -0.098299,2.910416 -0.3659759,8.565885 -0.5947957,12.567708 -0.2288197,4.001823 -0.423325,8.347605 -0.432015,9.657292 -0.00869,1.309688 -0.107938,2.8575 -0.2206584,3.439583 l -0.2051554,1.058333 -0.1653646,-1.455208 C -4.9304803,40.209939 -5.0715701,37.943242 -5.1524531,35.973401 -5.4193895,29.472343 -6.7182685,22.768634 -8.325386,19.59714 c -0.8049976,-1.588586 -1.3114484,-1.820313 -1.926497,-0.88005 -0.393901,0.602186 -0.460861,1.326597 -0.443901,4.820378 0.0202,4.162623 0.284348,6.34746 1.5771647,13.042615 0.9619364,4.981613 0.8268532,5.719858 -0.3756876,2.04897 -1.1599871,-3.540986 -1.9061231,-5.078806 -3.5398361,-7.296195 -1.656897,-2.248857 -4.36161,-4.345472 -5.605859,-4.345472 -0.699602,0 -0.462181,0.695453 1.013375,2.967778 1.906296,2.935657 3.13186,5.437008 3.977535,8.118367 0.890497,2.823473 1.802437,6.897617 1.639176,7.323068 -0.15984,0.416538 0.499457,3.504276 0.920874,4.617289 -0.31915,-0.614909 -0.816732,-3.37139 -0.819071,-4.668449 -0.0022,-1.23237 -0.808235,-4.728485 -1.76165,-7.642428 -0.884392,-2.702986 -2.146142,-5.244797 -3.984769,-8.025349 -1.741192,-2.6332 -1.628061,-3.137721 0.451135,-2.00608 3.835043,2.087292 6.856735,7.176107 8.5080077,14.329875 0.3441791,1.49108 0.7228622,2.71147 0.8418091,2.711979 0.118947,5.09e-4 0.153216,-0.207325 0.075964,-0.461987 -0.077251,-0.254661 -0.2681197,-1.512611 -0.4242636,-2.795695 -0.1561439,-1.283084 -0.5082943,-3.426209 -0.7823811,-4.7625 -1.9895461,-9.69989 -2.2739661,-18.697395 -0.5813599,-18.385441 0.2407393,0.04437 0.8165195,0.850561 1.2795085,1.791622 1.6300779,3.313258 2.5655864,8.415018 3.0101521,16.412951 0.1577314,2.837656 0.3755284,5.87375 0.4842082,6.746875 l 0.1979207,1.5875 0.1674317,-1.719791 c 0.092067,-0.945885 0.3580121,-6.006042 0.5911784,-11.244792 0.2331663,-5.23875 0.5337257,-11.549063 0.6676595,-14.022917 0.1041466,-1.923661 0.092983,-3.344594 0.06873,-4.448307 z"
         id="path3613" />
      <path
         style="baseline-shift:baseline;display:inline;overflow:visible;vector-effect:none;fill:#bac3a4;enable-background:accumulate;stop-color:#000000;stop-opacity:1"
         d="m -2.7856725,10.450928 c -0.016639,0 -0.034534,0.272546 -0.051676,0.322978 0.1481062,-0.01829 0.3311144,0.107001 0.5477702,0.528133 0.3592974,0.698397 0.6727635,1.535889 0.9518798,2.464966 -0.5697495,-1.793079 -1.1585778,-3.316077 -1.447974,-3.316077 z"
         id="path3611" />
      <path
         style="baseline-shift:baseline;display:inline;overflow:visible;vector-effect:none;fill:#a6af91;enable-background:accumulate;stop-color:#000000;stop-opacity:1"
         d="m -1.8983881,49.138471 -0.315743,0.632003 c -0.4461872,0.894962 -1.7472586,0.877951 -2.2060669,-0.02894 -0.3132969,-0.619266 -0.334829,-0.625409 -0.3384807,-0.09457 -0.00618,0.898382 -1.4759183,1.230377 -2.2076172,0.498678 -0.3429428,-0.342943 -0.4280008,-0.342943 -0.712618,0 -0.1339313,0.161377 -0.4199078,0.262832 -0.7560262,0.328145 0.378016,0.0042 0.5802062,0.02476 1.0624675,0.02015 1.8798347,-0.01797 3.5004829,0.05005 3.6013305,0.150895 0.1008476,0.10087 0.4844771,0.102388 0.8526612,0.0036 0.3681842,-0.09877 0.7887891,-0.160136 0.9343099,-0.136426 1.60697845,0.261863 3.0844922,0.283957 3.5165812,0.05271 0.040231,-0.02153 0.077042,-0.12097 0.1167887,-0.161748 H 1.4554123 l -1.19062499,0.06925 c -0.60970287,0.0353 -1.22117667,-0.03278 -1.46709391,-0.145728 -0.376902,-0.0696 -0.5569814,-0.204501 -0.6066813,-0.556038 z"
         id="path3573" />
      <path
         style="baseline-shift:baseline;display:inline;overflow:visible;vector-effect:none;fill:#a6af91;enable-background:accumulate;stop-color:#000000;stop-opacity:1"
         d="m -2.9603388,10.772356 c -0.1516799,0.160646 -0.2111997,0.637581 -0.1188558,1.366324 0.085227,0.672578 0.045567,3.246727 -0.088367,5.720581 -0.1339338,2.473854 -0.4344932,8.784167 -0.6676595,14.022917 -0.2331663,5.23875 -0.4991114,10.298907 -0.5911784,11.244792 l -0.1674317,1.719791 -0.1979207,-1.5875 C -4.9004314,42.386136 -5.1182284,39.350042 -5.2759598,36.512386 -5.7205255,28.514453 -6.656034,23.412693 -8.2861119,20.099435 c -0.462989,-0.941061 -1.0387692,-1.747252 -1.2795085,-1.791622 -1.6926066,-0.311954 -1.4081866,8.685551 0.5813599,18.385441 0.2740868,1.336291 0.6262372,3.479416 0.7823811,4.7625 0.1561439,1.283084 0.3470126,2.541034 0.4242636,2.795695 0.077252,0.254662 0.042983,0.462496 -0.075964,0.461987 -0.1189469,-5.09e-4 -0.49763,-1.220899 -0.8418091,-2.711979 -1.6512731,-7.153768 -4.6729651,-12.242583 -8.5080081,-14.329875 -2.079196,-1.131641 -2.192327,-0.62712 -0.451135,2.00608 1.838627,2.780552 3.100377,5.322363 3.984769,8.025349 0.953415,2.913943 1.75945,6.410058 1.76165,7.642428 0.0024,1.358177 0.554265,4.442714 0.868681,4.855001 0.06434,0.08437 0.397019,0.128925 0.717269,0.176216 -0.223294,-0.07823 -0.418666,-0.172542 -0.488859,-0.304374 -0.135594,-0.254661 -0.385133,-1.41552 -0.554489,-2.579687 -1.197466,-8.231465 -2.817826,-12.981256 -6.101436,-17.885213 -0.721213,-1.077107 -1.313262,-2.047835 -1.315165,-2.156975 -0.0072,-0.415273 0.746006,-0.16742 1.983341,0.652157 3.710758,2.457904 6.239198,6.803225 7.7003059,13.233817 0.3725742,1.639764 0.8150866,3.497274 0.9834026,4.127914 l 0.3059244,1.1467 0.1875855,-0.882117 c 0.1905565,-0.896145 0.09513,-1.685632 -0.8614461,-7.099825 -1.7261063,-9.769711 -1.8908243,-11.034599 -1.9290813,-14.816667 -0.02134,-2.110052 0.05464,-4.171781 0.168982,-4.581632 0.532508,-1.908777 2.0825627,0.506912 3.2163411,5.012097 0.8985302,3.570402 1.4197017,7.847353 1.7471802,14.336076 0.3151826,6.24509 0.6675956,10.180961 0.7859985,8.781376 0.043088,-0.509323 0.1041207,-1.223698 0.135909,-1.5875 0.031788,-0.363802 0.196926,-3.876145 0.3669027,-7.805208 0.1699768,-3.929062 0.4235247,-9.048751 0.5632731,-11.377084 0.1397485,-2.328333 0.3322835,-6.780036 0.4278809,-9.892936 0.1094791,-3.564924 0.1836301,-4.923694 0.3364136,-5.212601 0.050928,-0.0963 0.1108406,-0.07346 0.1834513,0.02584 0.5192239,0.710081 1.3428445,3.407849 1.85725097,6.083866 0.63837381,3.320912 0.64767404,12.17977 0.0180868,17.065625 -1.19637287,9.284343 -1.32384457,10.612894 -1.04593107,10.890808 0.4182007,0.4182 0.75764067,-0.43068 0.96996671,-2.424141 0.20957998,-1.967679 1.21729908,-6.614363 2.03191729,-9.370488 0.7064051,-2.390004 3.0198608,-7.282715 4.400765,-9.306925 1.2002924,-1.759458 3.5949501,-4.341337 4.0266276,-4.341337 0.1561774,0 -0.012483,0.58548 -0.3751709,1.301212 -1.1961043,2.360399 -2.7140045,6.447849 -3.7909831,10.208163 -1.3772443,4.808704 -3.1798169,12.900049 -3.212207,14.419791 -0.013957,0.654843 -0.1726838,1.905 -0.3529501,2.778125 l -0.2992065,1.450558 c 0.4834862,-0.691895 0.8976196,-2.619024 0.8976196,-4.497917 0,-2.121693 2.4663405,-12.396776 4.2798421,-17.828886 0.4419948,-1.323938 1.386596,-3.644771 2.0985799,-5.157824 0.7119838,-1.513052 1.2944943,-2.792971 1.2944943,-2.844271 0,-0.0513 -0.172182,-0.09353 -0.3824052,-0.09353 -0.5712148,0 -2.9562098,2.527478 -4.3692424,4.630209 -1.4748272,2.194688 -3.6900487,6.926188 -4.4591593,9.525 -0.78362439,2.647854 -1.83395068,7.437574 -2.05000403,9.347233 -0.10160777,0.898094 -0.30489217,1.632975 -0.45165207,1.632975 -0.169233,0 -0.2015089,-0.556478 -0.08785,-1.521354 1.34071085,-11.381591 1.49481797,-13.196772 1.50636767,-17.782901 0.01599074,-6.349568 -0.80291454,-11.4344 -2.31458737,-14.372766 -0.2752495,-0.535026 -0.5190802,-0.69033 -0.6707601,-0.529683 z"
         id="path3567" />
      <path
         style="baseline-shift:baseline;display:inline;overflow:visible;vector-effect:none;fill:#8b9b74;enable-background:accumulate;stop-color:#000000;stop-opacity:1"
         d="m -2.6631993,11.484974 c -0.1527835,0.288907 -0.2269345,1.647677 -0.3364136,5.212601 -0.095597,3.1129 -0.2881324,7.564603 -0.4278809,9.892936 -0.1397484,2.328333 -0.3932963,7.448022 -0.5632731,11.377084 -0.1699767,3.929063 -0.3351147,7.441406 -0.3669027,7.805208 -0.031788,0.363802 -0.092821,1.078177 -0.135909,1.5875 -0.1184029,1.399585 -0.4708159,-2.536286 -0.7859985,-8.781376 -0.3274785,-6.488723 -0.84865,-10.765674 -1.7471802,-14.336076 -1.1337784,-4.505185 -2.6838331,-6.920874 -3.2163407,-5.012097 -0.114344,0.409851 -0.190322,2.47158 -0.168982,4.581632 0.03826,3.782068 0.202975,5.046956 1.9290809,14.816667 0.956576,5.414193 1.0520026,6.20368 0.8614461,7.099825 l -0.1875855,0.882117 -0.3059244,-1.1467 c -0.168316,-0.63064 -0.6108284,-2.48815 -0.9834026,-4.127914 -1.4611075,-6.430592 -3.9895475,-10.775913 -7.7003055,-13.233817 -1.237335,-0.819577 -1.990541,-1.06743 -1.983341,-0.652157 0.0019,0.10914 0.593952,1.079868 1.315165,2.156975 3.28361,4.903957 4.90397,9.653748 6.101436,17.885213 0.169356,1.164167 0.418895,2.325026 0.554489,2.579687 0.31958,0.600207 2.6496038,0.654763 3.1321081,0.07338 0.2846172,-0.342943 0.3696752,-0.342943 0.712618,0 0.7316989,0.731699 2.2014372,0.399704 2.2076172,-0.498678 0.00365,-0.530841 0.025184,-0.524698 0.3384807,0.09457 0.4588083,0.90689 1.7598797,0.923901 2.2060669,0.02894 l 0.315743,-0.632003 0.0894,0.632003 c 0.0497,0.351537 0.2297793,0.48644 0.6066813,0.556038 -0.018207,-0.0084 -0.069565,-0.01126 -0.083199,-0.02015 -0.3012166,-0.196577 -0.2868576,-0.65921 0.088884,-2.847372 0.24672076,-1.436803 0.54842275,-3.38615 0.6707601,-4.332035 0.89407304,-6.912778 3.3562292,-13.850961 6.6187174,-18.651058 1.042335,-1.533587 2.8921241,-3.570989 3.100586,-3.484025 0.02978,0.01242 0.026257,0.06785 -0.018087,0.174666 C 7.142407,26.063409 5.9297073,29.434971 5.062944,32.602031 3.6150572,37.892454 2.3308758,43.953581 2.2160894,46.037386 2.1639853,46.983271 1.9713839,48.352491 1.7882085,49.080095 l -0.3327962,1.322916 h 0.2645833 l 0.3276286,-1.5875 C 2.2278905,47.942386 2.3866173,46.692229 2.4005743,46.037386 2.4329644,44.517644 4.235537,36.426299 5.6127813,31.617595 6.6897599,27.857281 8.2076601,23.769831 9.4037644,21.409432 9.7664527,20.6937 9.9351127,20.10822 9.7789353,20.10822 c -0.4316775,0 -2.8263352,2.581879 -4.0266276,4.341337 -1.3809042,2.02421 -3.6943599,6.916921 -4.400765,9.306925 -0.81461826,2.756125 -1.82233736,7.402809 -2.03191734,9.370488 -0.21232604,1.993461 -0.55176596,2.842341 -0.96996666,2.424141 C -1.9282548,45.273197 -1.8007831,43.944646 -0.60441028,34.660303 0.02517701,29.774448 0.01587678,20.91559 -0.62249703,17.594678 -1.1369035,14.918661 -1.9605241,12.220893 -2.479748,11.510812 c -0.072611,-0.0993 -0.1325235,-0.122141 -0.1834513,-0.02584 z m 0.3193603,0.737422 c 0.1205406,0.19 0.3916503,0.940511 0.6025472,1.668115 1.62022816,5.589864 1.88283489,13.880657 0.6872966,21.695834 -0.2989922,1.954498 -0.8274637,7.337236 -0.9482626,9.657291 -0.1805019,3.466707 -0.4120768,4.761785 -0.8981364,5.021916 -0.3115422,0.166732 -0.6099684,0.142914 -0.8996867,-0.07131 -0.4004228,-0.296078 -0.403023,-1.045573 -0.034623,-9.845394 0.2193173,-5.23875 0.5188491,-11.668125 0.6655925,-14.2875 0.1467435,-2.619375 0.3433796,-6.88223 0.4366658,-9.473324 0.095784,-2.660471 0.2648388,-4.560712 0.3886068,-4.365625 z m -7.1494344,6.735506 c 0.3161059,0.151364 0.7162772,0.841329 1.208195,2.076359 1.5743981,3.952752 2.3248529,9.439958 3.0220377,22.092709 0.3656575,6.63608 0.3364546,6.984862 -0.5989298,7.093107 -0.00818,9.46e-4 -0.00941,-0.0034 -0.01757,-0.0026 -0.00267,5.47e-4 -0.00401,0.0031 -0.00672,0.0036 -0.018035,0.0035 -0.031877,-0.01443 -0.049609,-0.01292 -0.3477056,0.02413 -0.6917901,-0.0134 -0.7549927,-0.120406 C -6.9309958,49.681151 -7.1353876,48.277245 -7.26137,46.169644 -7.4273513,43.392888 -8.1107666,38.533503 -8.7315645,35.718602 -9.9837912,30.040596 -10.679384,21.7271 -10.08187,19.579019 c 0.084419,-0.303488 0.1842685,-0.501235 0.3002404,-0.593245 0.086979,-0.06901 0.1829859,-0.07836 0.2883545,-0.02791 z m -8.5007736,8.851142 c 0.148912,-0.04864 0.540159,0.135886 1.131714,0.567407 4.362751,3.182489 6.9092657,8.384423 8.3865686,17.131771 0.461611,2.733273 0.6735552,3.834739 0.5224487,4.307747 7.806e-4,0.03079 0.014898,0.09508 0.014986,0.124024 2.59e-4,0.08507 -0.1331757,0.146376 -0.3162597,0.195853 -0.019797,0.0059 -0.053888,0.0092 -0.075448,0.01395 -0.1280838,0.0298 -0.2579773,0.05985 -0.4180623,0.07803 -0.0771,0.0073 -0.094281,0.04289 -0.197404,0.04289 -0.019856,0 -0.042211,-0.0086 -0.062529,-0.0093 -0.3479634,0.01969 -0.6853965,-0.0011 -0.9616984,-0.04909 -0.3608929,-0.0189 -0.6459439,-0.05734 -0.6852299,-0.127124 -0.1354,-0.240533 -0.79158,-3.943512 -1.256254,-7.090523 -0.628339,-4.255428 -3.445454,-11.27377 -5.761405,-14.353646 -0.377148,-0.501551 -0.470339,-0.783352 -0.321428,-0.83199 z"
         id="path3526" />
      <path
         style="baseline-shift:baseline;display:inline;overflow:visible;vector-effect:none;fill:#778c63;enable-background:accumulate;stop-color:#000000;stop-opacity:1"
         d="m -8.2545893,50.135847 c -0.021465,0.0058 -0.05234,0.0086 -0.075448,0.01395 0.02156,-0.0047 0.055651,-0.008 0.075448,-0.01395 z"
         id="path3493" />
      <path
         style="baseline-shift:baseline;display:inline;overflow:visible;vector-effect:none;fill:#778c63;enable-background:accumulate;stop-color:#000000;stop-opacity:1"
         d="m -17.994047,27.809044 c -0.148911,0.04864 -0.05572,0.330439 0.321428,0.83199 2.315951,3.079876 5.133066,10.098218 5.761405,14.353646 0.464674,3.147011 1.120854,6.84999 1.256254,7.090523 0.03929,0.06979 0.324337,0.108226 0.6852299,0.127124 -0.2182379,-0.03795 -0.4089399,-0.08923 -0.4630209,-0.176733 -0.585129,-0.946758 -1.427109,-7.966956 -0.955497,-7.966956 0.151589,0 0.275952,-0.238124 0.275952,-0.529166 0,-0.295138 0.146885,-0.472087 0.344165,-0.511597 0.19728,-0.03951 0.444771,0.05842 0.646472,0.313159 0.6833037,0.862988 2.1184258,6.506275 2.1683433,8.474935 0.1511065,-0.473008 -0.060838,-1.574474 -0.5224487,-4.307747 -1.4773029,-8.747348 -4.0238176,-13.949282 -8.3865686,-17.131771 -0.591555,-0.431521 -0.982802,-0.616046 -1.131714,-0.567407 z"
         id="path3485" />
      <path
         style="baseline-shift:baseline;display:inline;overflow:visible;vector-effect:none;fill:#778c63;enable-background:accumulate;stop-color:#000000;stop-opacity:1"
         d="m 9.1934413,20.991887 c -0.2084619,-0.08696 -2.058251,1.950438 -3.100586,3.484025 -3.2624882,4.800097 -5.72464436,11.73828 -6.6187174,18.651058 -0.12233735,0.945885 -0.42403934,2.895232 -0.6707601,4.332035 -0.3757411,2.188162 -0.3901001,2.650795 -0.088884,2.847372 0.1977864,0.129077 0.89544929,0.203792 1.55029301,0.165881 L 1.4554123,50.403011 1.7882085,49.080095 C 1.9713839,48.352491 2.1639853,46.983271 2.2160894,46.037386 2.3308758,43.953581 3.6150572,37.892454 5.062944,32.602031 5.9297073,29.434971 7.142407,26.063409 9.1753545,21.166553 9.2196981,21.05974 9.2232215,21.00431 9.1934413,20.991887 Z M 1.986646,35.18947 c 0.9743522,0 1.2300502,0.55283 0.9322429,2.015897 -0.8010613,3.935454 -1.0854119,6.339307 -0.9441284,7.981942 0.089843,1.044566 0.014242,2.429987 -0.1834514,3.363619 l -0.3358968,1.5875 -0.1441772,0.0083 -0.025838,0.124024 H 0.12939506 c -0.32811649,0 -0.63401756,-0.02819 -0.87178141,-0.07131 -0.40878075,-0.03489 -0.58217295,-0.158478 -0.58497725,-0.642338 -0.0039,-0.673144 0.2574476,-2.277511 1.477946,-9.075932 C 0.3726439,39.244209 0.74273949,37.547569 0.9732712,36.710824 1.324833,35.434785 1.4882629,35.18947 1.986646,35.18947 Z"
         id="path3483" />
      <path
         style="baseline-shift:baseline;display:inline;overflow:visible;vector-effect:none;fill:#778c63;enable-background:accumulate;stop-color:#000000;stop-opacity:1"
         d="m -9.4932334,18.9579 c -0.1053686,-0.05045 -0.2013755,-0.0411 -0.2883545,0.02791 -0.1159719,0.09201 -0.215821,0.289757 -0.3002401,0.593245 -0.597514,2.148081 0.098078,10.461577 1.3503052,16.139583 0.6207979,2.814901 1.3042132,7.674286 1.4701945,10.451042 0.1259824,2.107601 0.3303742,3.511507 0.5705078,3.918107 0.063203,0.107006 0.4072871,0.14454 0.7549927,0.120406 -0.2724928,0.02329 -0.5117327,-0.160297 -0.6604248,-0.551387 -0.5373255,-1.413273 -0.9560962,-12.823425 -0.4878255,-13.291695 0.2900007,-0.290001 0.6900848,0.986847 0.9777181,3.120739 0.1424601,1.056882 0.3886516,2.695237 0.5472534,3.641122 0.1586017,0.945885 0.2539664,2.909001 0.2118734,4.362524 -0.065259,2.253485 -0.1424288,2.64829 -0.5322673,2.727999 0.00816,-8.53e-4 0.00939,0.0035 0.01757,0.0026 0.9353844,-0.108245 0.9645873,-0.457027 0.5989298,-7.093107 -0.6971848,-12.652751 -1.4476396,-18.139957 -3.0220377,-22.092709 -0.4919178,-1.23503 -0.8920891,-1.924995 -1.208195,-2.076359 z"
         id="path3481" />
      <path
         style="baseline-shift:baseline;display:inline;overflow:visible;vector-effect:none;fill:#778c63;enable-background:accumulate;stop-color:#000000;stop-opacity:1"
         d="m -2.343839,12.222396 c -0.123768,-0.195087 -0.2928228,1.705154 -0.3886068,4.365625 -0.093286,2.591094 -0.2899223,6.853949 -0.4366658,9.473324 -0.1467434,2.619375 -0.4462752,9.04875 -0.6655925,14.2875 -0.3683998,8.799821 -0.3657996,9.549316 0.034623,9.845394 0.2897183,0.214227 0.5881445,0.238045 0.8996867,0.07131 0.4860596,-0.260131 0.7176345,-1.555209 0.8981364,-5.021916 0.1207989,-2.320055 0.6492704,-7.702793 0.9482626,-9.657291 1.19553829,-7.815177 0.93293156,-16.10597 -0.6872966,-21.695834 -0.2108969,-0.727604 -0.4820066,-1.478115 -0.6025472,-1.668115 z m -0.050643,22.621358 c 0.3933244,-0.41522 0.5311354,3.716799 0.2899048,8.680091 -0.2029255,4.17517 -0.3293495,5.68945 -0.6335531,6.296773 -0.00502,0.01495 -0.010533,0.137687 -0.015503,0.145728 -0.014319,0.02317 -0.039813,0.02974 -0.056327,0.05013 -0.034102,0.04515 -0.081084,0.07786 -0.1198893,0.10697 -0.1028046,0.07363 -0.2145209,0.116035 -0.3369304,0.120923 -0.028577,0.0017 -0.042883,0.02635 -0.07338,0.02635 -0.6075983,0 -0.6285065,-0.06783 -0.6263184,-2.050521 0.00446,-4.040205 1.0350902,-12.809648 1.5719971,-13.376445 z"
         id="path3477" />
      <path
         style="baseline-shift:baseline;display:inline;overflow:visible;vector-effect:none;fill:#6e855b;enable-background:accumulate;stop-color:#000000;stop-opacity:1"
         d="m -2.8099604,50.016468 c -0.03519,0.04343 -0.076702,0.07604 -0.1198893,0.10697 0.038805,-0.02911 0.085788,-0.06182 0.1198893,-0.10697 z"
         id="path3430" />
      <path
         style="baseline-shift:baseline;display:inline;overflow:visible;vector-effect:none;fill:#6e855b;enable-background:accumulate;stop-color:#000000;stop-opacity:1"
         d="m -10.768131,41.027873 c -0.19728,0.03951 -0.344165,0.216459 -0.344165,0.511597 0,0.291042 -0.124363,0.529166 -0.275952,0.529166 -0.471612,0 0.370368,7.020198 0.955497,7.966956 0.122549,0.198291 0.8019153,0.261059 1.4247193,0.225826 -0.3979237,-0.0135 -0.8732146,-0.148363 -1.0846883,-0.321427 -0.222271,-0.181901 -0.602695,-1.282261 -0.845426,-2.445329 -0.432967,-2.074604 -0.431332,-2.122034 0.0925,-2.517159 0.476058,-0.359091 0.507345,-0.54553 0.288355,-1.717725 -0.184346,-0.986761 -0.189697,-1.529815 -0.01499,-1.637109 0.05824,-0.03577 0.13683,-0.02303 0.235127,0.03772 0.605418,0.374168 2.1352706,6.009228 2.1352706,7.865153 0,0.536899 -0.1458727,0.664466 -0.5462198,0.702282 0.4353138,-0.04944 0.8102272,-0.137505 0.8097696,-0.287837 -0.00572,-1.879507 -1.4893397,-7.722475 -2.1833294,-8.598959 -0.201701,-0.254742 -0.449192,-0.352669 -0.646472,-0.313159 z"
         id="path3427" />
      <path
         style="baseline-shift:baseline;display:inline;overflow:visible;vector-effect:none;fill:#6e855b;enable-background:accumulate;stop-color:#000000;stop-opacity:1"
         d="m -7.0841181,36.365103 c -0.4682707,0.46827 -0.0495,11.878422 0.4878255,13.291695 0.1583685,0.416541 0.4148594,0.620796 0.7100342,0.564306 0.3968632,-0.07595 0.4732782,-0.462676 0.5389852,-2.731616 0.042093,-1.453523 -0.053272,-3.416639 -0.2118734,-4.362524 -0.1586018,-0.945885 -0.4047933,-2.58424 -0.5472534,-3.641122 -0.2876333,-2.133892 -0.6877174,-3.41074 -0.9777181,-3.120739 z m 0.469222,3.844215 c 0.4620125,-0.213601 1.4257591,6.594444 1.1534179,8.581389 -0.1706761,1.245218 -0.6680492,1.610911 -1.0231933,0.752409 -0.2509262,-0.606572 -0.4362116,-8.509208 -0.2154907,-9.194271 0.025828,-0.08016 0.054465,-0.125287 0.085266,-0.139527 z"
         id="path3424" />
      <path
         style="baseline-shift:baseline;display:inline;overflow:visible;vector-effect:none;fill:#6e855b;enable-background:accumulate;stop-color:#000000;stop-opacity:1"
         d="m 1.986646,35.18947 c -0.4983831,0 -0.661813,0.245315 -1.0133748,1.521354 -0.23053171,0.836745 -0.6006273,2.533385 -0.8226888,3.770312 -1.2204984,6.798421 -1.481846,8.402788 -1.477946,9.075932 0.0028,0.48386 0.1761965,0.607451 0.58497725,0.642338 -0.22305775,-0.04046 -0.38713285,-0.09392 -0.42426355,-0.153995 -0.3289259,-0.532218 1.31370805,-7.434916 2.543514,-10.688754 0.1875685,-0.496271 0.3476328,-0.736356 0.4619873,-0.750342 0.190591,-0.02331 0.2539941,0.581591 0.10542,1.676384 -0.1993501,1.468943 -0.2093743,2.357945 -0.06873,6.033223 0.019782,0.516925 -0.1048564,1.618253 -0.2769857,2.447396 l -0.2873209,1.383378 0.1441772,-0.0083 0.3358968,-1.5875 C 1.9890025,47.617296 2.0646035,46.231875 1.9747605,45.187309 1.833477,43.544674 2.1178276,41.140821 2.9188889,37.205367 3.2166962,35.7423 2.9609982,35.18947 1.986646,35.18947 Z"
         id="path3421" />
      <path
         style="baseline-shift:baseline;display:inline;overflow:visible;vector-effect:none;fill:#6e855b;enable-background:accumulate;stop-color:#000000;stop-opacity:1"
         d="m -2.3944819,34.843754 c -0.5369069,0.566797 -1.5675371,9.33624 -1.5719971,13.376445 -0.00219,1.982691 0.01872,2.050521 0.6263184,2.050521 0.030497,0 0.044803,-0.02469 0.07338,-0.02635 -0.2518232,0.01005 -0.5051032,-0.106437 -0.6056478,-0.368453 -0.083378,-0.217279 -0.018233,-1.735327 0.1446941,-3.373438 0.7125485,-7.164162 0.9360285,-8.907952 1.2319661,-8.782926 0.042277,0.01786 0.085926,0.07384 0.1328084,0.157613 0.2417751,0.432027 -0.1024664,11.131645 -0.3751709,11.943457 0.3042036,-0.607323 0.4306276,-2.121603 0.6335531,-6.296773 0.2412306,-4.963292 0.1034196,-9.095311 -0.2899048,-8.680091 z"
         id="path3420" />
      <path
         style="baseline-shift:baseline;display:inline;overflow:visible;vector-effect:none;fill:#657b50;enable-background:accumulate;stop-color:#000000;stop-opacity:1"
         d="m -10.572277,41.622665 c -0.174711,0.107294 -0.16936,0.650348 0.01499,1.637109 0.21899,1.172195 0.187703,1.358634 -0.288355,1.717725 -0.523832,0.395125 -0.525467,0.442555 -0.0925,2.517159 0.242731,1.163068 0.623155,2.263428 0.845426,2.445329 0.2222713,0.181901 0.7384677,0.330729 1.1472168,0.330729 0.6385971,0 0.7436238,-0.104878 0.7436238,-0.745174 0,-1.855925 -1.5298526,-7.490985 -2.1352706,-7.865153 -0.0983,-0.06075 -0.17689,-0.07349 -0.235127,-0.03772 z m 0.508496,1.901177 0.5183144,1.113627 c 0.2852175,0.612516 0.6524049,1.862672 0.8159709,2.778125 0.1635661,0.915452 0.3379886,1.872857 0.3875732,2.127519 0.064812,0.332866 -0.080949,0.46302 -0.5183146,0.46302 -0.3350296,0 -0.6882291,-0.208039 -0.7865153,-0.46302 -0.098163,-0.254662 -0.2320603,-1.713177 -0.2976563,-3.241146 z"
         id="path3363" />
      <path
         style="baseline-shift:baseline;display:inline;overflow:visible;vector-effect:none;fill:#657b50;enable-background:accumulate;stop-color:#000000;stop-opacity:1"
         d="m -6.6148961,40.20932 c -0.030801,0.01424 -0.059438,0.05936 -0.085266,0.139527 -0.2207209,0.685063 -0.035435,8.587699 0.2154907,9.194271 0.3551441,0.858502 0.8525172,0.492809 1.0231933,-0.752409 0.2723412,-1.986945 -0.6914054,-8.79499 -1.153418,-8.581389 z"
         id="path3359" />
      <path
         style="baseline-shift:baseline;display:inline;overflow:visible;vector-effect:none;fill:#657b50;enable-background:accumulate;stop-color:#000000;stop-opacity:1"
         d="m 1.8388514,38.606315 c -0.1143545,0.01399 -0.2744188,0.254071 -0.4619873,0.750342 -1.22980595,3.253838 -2.8724399,10.156536 -2.543514,10.688754 0.076709,0.124119 0.66010656,0.225309 1.29604496,0.225309 H 1.2853968 L 1.598556,48.763318 c 0.1721293,-0.829143 0.2967673,-1.930471 0.2769857,-2.447396 -0.1406446,-3.675278 -0.1306204,-4.56428 0.06873,-6.033223 0.1485741,-1.094793 0.085171,-1.699693 -0.1054203,-1.676384 z m -0.7069336,3.675741 c 0.068224,0.08929 0.098502,0.501012 0.1390096,1.364258 0.044123,0.940305 0.1945626,1.847469 0.3343466,2.015898 0.1646982,0.19845 0.1133062,0.976341 -0.1462443,2.210201 -0.2202877,1.047212 -0.4004924,1.955752 -0.4004924,2.018998 0,0.06325 -0.49175771,0.114721 -1.09243977,0.114721 H -1.1258255 l 0.17880047,-1.124479 c 0.20733632,-1.302308 1.37471004,-5.314284 1.82831218,-6.283854 0.0694455,-0.148439 0.12402085,-0.252847 0.16794845,-0.302307 0.032946,-0.0371 0.059941,-0.0432 0.082682,-0.01344 z"
         id="path3355" />
      <path
         style="baseline-shift:baseline;display:inline;overflow:visible;vector-effect:none;fill:#657b50;enable-background:accumulate;stop-color:#000000;stop-opacity:1"
         d="m -2.4957677,37.719548 c -0.2959376,-0.125026 -0.5194176,1.618764 -1.2319661,8.782926 -0.1629272,1.638111 -0.2280721,3.156159 -0.1446941,3.373438 0.1795851,0.467994 0.8519132,0.522258 1.1187948,0.09043 0.2747967,-0.44463 0.6369017,-11.649201 0.3906738,-12.089185 -0.046882,-0.08377 -0.090532,-0.139752 -0.1328084,-0.157613 z m -0.2010213,4.216793 0.022738,3.042708 c 0.027273,3.695181 -0.1598301,5.027083 -0.7053833,5.027083 -0.3380904,0 -0.3727543,-0.335769 -0.225826,-2.182812 0.095501,-1.200547 0.3389522,-3.01625 0.5410522,-4.034896 z"
         id="path3353" />
      <path
         style="baseline-shift:baseline;display:inline;overflow:visible;vector-effect:none;fill:#587245;enable-background:accumulate;stop-color:#000000;stop-opacity:1"
         d="m -10.063781,43.523838 0.1193723,2.778125 c 0.065596,1.527969 0.1994933,2.986484 0.2976563,3.241146 0.098286,0.254981 0.4514857,0.46302 0.7865153,0.46302 0.4373657,0 0.5831266,-0.130154 0.5183146,-0.46302 -0.049585,-0.254662 -0.2240071,-1.212067 -0.3875732,-2.127519 -0.163566,-0.915453 -0.5307534,-2.165609 -0.8159709,-2.778125 z"
         id="path3322" />
      <path
         style="baseline-shift:baseline;display:inline;overflow:visible;vector-effect:none;fill:#587245;enable-background:accumulate;stop-color:#000000;stop-opacity:1"
         d="m 1.1319178,42.282059 c -0.022741,-0.02976 -0.049737,-0.02366 -0.082682,0.01344 -0.043928,0.04946 -0.0985029,0.153868 -0.16794845,0.302307 -0.45360214,0.96957 -1.62097586,4.981546 -1.82831218,6.283854 l -0.17880047,1.124479 h 1.09192303 c 0.60068206,0 1.09243977,-0.05147 1.09243977,-0.114721 0,-0.06325 0.1802047,-0.971786 0.4004924,-2.018998 C 1.7185802,46.638557 1.7699722,45.860666 1.605274,45.662216 1.46549,45.493787 1.3150504,44.586623 1.2709274,43.646318 1.2304199,42.783072 1.200142,42.371349 1.1319178,42.282059 Z"
         id="path3318" />
      <path
         style="baseline-shift:baseline;display:inline;overflow:visible;vector-effect:none;fill:#587245;enable-background:accumulate;stop-color:#000000;stop-opacity:1"
         d="m -2.696789,41.936344 -0.3674195,1.852083 c -0.2021,1.018646 -0.4455512,2.834349 -0.5410522,4.034896 -0.1469283,1.847043 -0.1122644,2.182812 0.225826,2.182812 0.5455532,0 0.7326563,-1.331902 0.7053833,-5.027083 z"
         id="path3317" />
    </g>
  </g>
</svg>
