<?xml version="1.0" encoding="UTF-8" standalone="no"?>
<!-- Created with Inkscape (http://www.inkscape.org/) -->

<svg
   width="64.41539mm"
   height="58.992348mm"
   viewBox="0 0 64.41539 58.992348"
   version="1.1"
   id="svg1"
   xmlns="http://www.w3.org/2000/svg"
   xmlns:svg="http://www.w3.org/2000/svg">
  <defs
     id="defs1" />
  <g
     id="layer1"
     transform="translate(-55.297918,-112.44792)">
    <g
       id="g1999"
       transform="translate(-71.401565,-90.967532)">
      <path
         style="fill:#cfc4ac"
         d="m 126.47083,262.22714 c -0.59627,-0.17242 -0.50585,-0.25002 0.91765,-0.78752 3.60412,-1.36086 7.54623,-2.30393 13.33881,-3.19102 3.05238,-0.46744 3.26056,-0.54056 4.77043,-1.67556 4.72198,-3.54957 9.3382,-5.07628 15.36894,-5.08294 2.70213,-0.003 3.65467,0.10558 5.20578,0.59328 2.05613,0.6465 4.97366,2.47848 7.04782,4.42547 0.85259,0.80031 1.50834,1.19637 1.98437,1.1985 1.49233,0.007 8.73838,1.36294 11.17246,2.09114 1.3998,0.41877 3.19049,1.09766 3.97931,1.50863 l 1.43422,0.74722 -1.45521,0.17512 c -1.98788,0.23922 -62.93694,0.23701 -63.76458,-0.002 z"
         id="path871" />
      <path
         style="baseline-shift:baseline;display:inline;overflow:visible;vector-effect:none;fill:#c9baa0;enable-background:accumulate;stop-color:#000000;stop-opacity:1"
         d="m 128.66346,261.30469 c -0.0628,-0.023 -0.17838,-0.0152 -0.33744,0.0264 -0.28961,0.0757 -0.46733,0.23279 -0.39533,0.34933 0.072,0.11655 -0.0187,0.26887 -0.20154,0.33797 -0.18281,0.0691 0.062,0.11968 0.54364,0.11368 0.48562,-0.006 0.73554,-0.0979 0.56121,-0.20567 -0.17291,-0.10686 -0.2394,-0.31533 -0.1478,-0.46354 0.0503,-0.0814 0.0401,-0.13513 -0.0227,-0.15813 z"
         id="path1595" />
      <path
         style="baseline-shift:baseline;display:inline;overflow:visible;vector-effect:none;fill:#c9baa0;enable-background:accumulate;stop-color:#000000;stop-opacity:1"
         d="m 189.57706,261.26949 c -0.0444,0.0186 -0.0474,0.0671 -10e-4,0.14211 0.0889,0.14385 0.27338,0.26149 0.41031,0.26149 0.38059,0 0.29662,-0.18998 -0.16175,-0.36587 -0.11773,-0.0452 -0.20314,-0.0563 -0.24753,-0.0377 z"
         id="path1594" />
      <path
         style="baseline-shift:baseline;display:inline;overflow:visible;vector-effect:none;fill:#c9baa0;enable-background:accumulate;stop-color:#000000;stop-opacity:1"
         d="m 187.8676,260.5994 c -0.0805,0.0847 -0.0189,0.24549 0.25115,0.41238 0.14553,0.0899 0.26458,0.4046 0.26458,0.69918 0,0.70447 0.60764,0.49302 0.66094,-0.22996 0.026,-0.35295 -0.18565,-0.66147 -0.57464,-0.83871 -0.2991,-0.13628 -0.52153,-0.12764 -0.60203,-0.0429 z"
         id="path1593" />
      <path
         style="baseline-shift:baseline;display:inline;overflow:visible;vector-effect:none;fill:#c9baa0;enable-background:accumulate;stop-color:#000000;stop-opacity:1"
         d="m 161.13125,251.5464 c -0.50933,0.013 -1.37253,0.0341 -1.91823,0.0476 -0.75164,0.0184 -0.99669,0.13653 -1.01079,0.4873 -0.0162,0.40405 -0.0415,0.40937 -0.19844,0.0398 -0.16057,-0.37803 -0.3642,-0.38607 -1.89962,-0.0754 -2.70083,0.54641 -3.9711,0.94215 -3.81786,1.19011 0.0777,0.1257 -0.023,0.16588 -0.22376,0.0889 -0.58797,-0.22563 -1.77935,0.35342 -1.78335,0.86713 -0.003,0.39995 -0.042,0.41089 -0.26045,0.0729 -0.21914,-0.33922 -0.25745,-0.33007 -0.26045,0.0656 -0.002,0.25466 0.1447,0.46516 0.3266,0.46716 0.2212,0.003 0.19924,0.0904 -0.0661,0.26458 -0.35278,0.23158 -0.35278,0.2921 0,0.54519 0.35277,0.25312 0.35277,0.27293 0,0.17673 -0.21828,-0.0595 -0.41066,-0.36991 -0.42736,-0.68988 -0.032,-0.61141 -0.36639,-1.15341 -0.36639,-0.59376 0,0.17837 -0.11906,0.25061 -0.26458,0.16071 -0.14552,-0.0899 -0.26459,0.011 -0.26459,0.22428 0,0.23506 -0.1823,0.34408 -0.46302,0.27698 -0.51751,-0.12381 -3.77031,2.18162 -3.77031,2.67219 0,0.19067 -0.30086,0.26309 -0.79375,0.19069 -0.63872,-0.0937 -0.79488,-0.0206 -0.79788,0.3762 -0.003,0.3678 -0.0603,0.40422 -0.22583,0.14315 -0.14422,-0.22748 -0.53633,-0.30256 -1.12035,-0.21446 -4.07259,0.61452 -4.99969,0.80273 -4.99969,1.01441 0,0.1335 0.0945,0.18447 0.20981,0.11317 0.11531,-0.0713 0.22663,0.0977 0.24753,0.37569 0.037,0.49092 0.022,0.4906 -0.524,-0.0181 -0.53453,-0.49799 -1.42198,-0.74565 -1.16686,-0.32556 0.0663,0.10914 -0.42804,0.21491 -1.09864,0.23461 -0.6706,0.0197 -1.25954,0.15558 -1.30844,0.30231 -0.0489,0.14674 -0.32159,0.20607 -0.60565,0.13177 -0.28407,-0.0743 -0.51625,-0.0151 -0.51625,0.13126 0,0.14632 -0.14883,0.26073 -0.33073,0.25373 -0.86164,-0.032 -1.2728,0.0954 -1.11776,0.34623 0.10489,0.16987 -0.0667,0.23535 -0.44752,0.17105 -0.33965,-0.0572 -0.46871,-0.0534 -0.2868,0.009 0.1819,0.0622 0.33073,0.21635 0.33073,0.34261 0,0.12627 -0.14883,0.32617 -0.33073,0.4439 -0.18191,0.11772 3.18162,0.27343 7.47448,0.34623 v -5.1e-4 c 4.29287,0.0728 9.71021,0.0728 12.03854,0 2.32834,-0.0728 4.6285,-0.0728 5.11183,0 1.46844,0.22105 7.21773,-0.008 7.04918,-0.28061 -0.0846,-0.13692 -0.0275,-0.24856 0.12661,-0.24856 0.15411,0 0.28009,0.11906 0.28009,0.26458 0,0.43508 1.90477,0.29873 2.42672,-0.17363 0.26612,-0.24084 0.48369,-0.30995 0.48369,-0.154 0,0.15594 -0.14883,0.34093 -0.33073,0.41083 -0.1819,0.07 1.68945,0.13198 4.15892,0.13798 2.79689,0.007 4.61819,-0.0947 4.82917,-0.26975 0.24099,-0.19999 0.33848,-0.19529 0.33848,0.016 0,0.20993 1.57027,0.296 5.35781,0.293 2.94793,-0.002 5.20177,-0.10281 5.01106,-0.22376 -0.22577,-0.14316 -0.0413,-0.22457 0.52917,-0.23357 0.70572,-0.0111 0.77317,0.0287 0.34675,0.20515 -0.39438,0.16326 -0.22589,0.22278 0.66146,0.23358 0.82168,0.01 1.07134,-0.0607 0.80615,-0.22841 -0.21133,-0.13388 -0.45907,-0.19674 -0.55087,-0.14004 -0.0919,0.0568 -0.16692,-0.0634 -0.16692,-0.26717 0,-0.20379 0.12864,-0.34766 0.28629,-0.31936 0.15763,0.0283 0.25394,-0.10597 0.21394,-0.29869 -0.0406,-0.19557 0.0551,-0.27137 0.21653,-0.17157 0.15905,0.0983 0.23129,0.33003 0.16019,0.51522 -0.15529,0.40468 0.95187,1.05287 1.45573,0.85214 0.21358,-0.085 0.13564,-0.1508 -0.19431,-0.1633 -0.58035,-0.022 -0.75867,-0.70334 -0.32762,-1.25212 0.32734,-0.41673 -3.25865,-1.52886 -4.18218,-1.29707 -0.39047,0.098 -0.60805,0.065 -0.51935,-0.0786 0.0922,-0.14916 -0.20638,-0.16559 -0.75499,-0.0419 -0.67353,0.1519 -0.94451,0.11031 -1.04851,-0.16071 -0.0771,-0.20094 -0.35211,-0.36322 -0.61134,-0.36122 -0.3488,0.003 -0.38217,0.0605 -0.12815,0.22169 0.27363,0.17357 0.25883,0.28738 -0.0724,0.56224 -0.35247,0.29257 -0.38991,0.27925 -0.24805,-0.0904 0.21567,-0.56202 -1.3009,-1.22674 -3.08043,-1.34979 -0.69922,-0.0483 -1.42172,-0.18072 -1.60507,-0.29404 -0.18336,-0.11336 -0.37416,-0.0827 -0.42426,0.0677 -0.0501,0.15041 -0.65237,-0.27761 -1.33842,-0.95084 -1.37685,-1.35112 -3.05064,-2.69212 -3.94343,-3.16002 -0.4368,-0.22852 -0.62574,-0.2283 -0.76843,0.003 -0.12537,0.20283 -0.0724,0.23432 0.1571,0.0925 0.23089,-0.14273 0.28267,-0.11092 0.15503,0.0956 -0.24654,0.39891 -0.76174,0.09 -0.59118,-0.3545 0.0712,-0.18545 -0.16607,-0.47191 -0.52762,-0.63665 -0.36156,-0.16472 -0.58824,-0.18773 -0.50384,-0.0512 0.27918,0.45172 -0.38091,0.59112 -0.80254,0.16949 -0.22751,-0.22756 -0.31591,-0.41823 -0.19637,-0.42323 0.11953,-0.005 -0.0801,-0.17493 -0.4439,-0.37723 -0.70187,-0.39028 -3.21953,-0.78313 -4.7625,-0.74363 z m 4.26951,0.8847 c 0.1312,0.0494 0.22841,0.2225 0.22841,0.49506 0,0.28245 -0.1393,0.59965 -0.30955,0.70487 -0.2081,0.12863 -0.25416,0.047 -0.14056,-0.24908 0.0929,-0.24215 0.0467,-0.44028 -0.10283,-0.44028 -0.14958,0 -0.19842,-0.11907 -0.10852,-0.26459 0.13666,-0.22112 0.30185,-0.29536 0.43305,-0.24598 z m -0.95498,0.0326 c 0.0815,0.0815 -0.0657,0.22926 -0.3266,0.32866 -0.37708,0.14359 -0.40768,0.11299 -0.14831,-0.14831 0.17947,-0.18082 0.39341,-0.26185 0.47491,-0.18035 z m -10.57093,1.11208 c 0.0706,-0.0108 0.11265,0.0213 0.11265,0.0987 0,0.14777 -0.1786,0.33736 -0.39688,0.42116 -0.21828,0.0838 -0.39687,0.11086 -0.39687,0.0605 0,-0.0504 0.17859,-0.23948 0.39687,-0.42064 0.11438,-0.0949 0.2136,-0.14888 0.28423,-0.15968 z m 13.75006,0.21958 c 0.0373,0.0398 -0.093,0.22004 -0.28887,0.40049 -0.19592,0.1805 -0.42115,0.22236 -0.50075,0.0935 -0.12834,-0.20767 0.61965,-0.67563 0.78962,-0.49403 z m -16.16387,1.28261 c 0.0513,-0.022 0.13436,0.0991 0.23771,0.36845 0.0819,0.21362 0.0599,0.44378 -0.0491,0.51108 -0.10895,0.0673 -0.21548,-0.10764 -0.23668,-0.3886 -0.0229,-0.30382 -0.003,-0.46894 0.0481,-0.49093 z m 15.1014,0.0315 c 0.0815,0.0815 -0.0657,0.22927 -0.32659,0.32867 -0.37709,0.14359 -0.40767,0.11299 -0.14831,-0.14832 0.17948,-0.18082 0.3934,-0.26185 0.4749,-0.18035 z m 2.6541,0.74259 c 0.0642,0 0.11679,0.11907 0.11679,0.26459 0,0.14552 -0.12597,0.26458 -0.28008,0.26458 -0.15408,0 -0.20669,-0.11906 -0.11679,-0.26458 0.0899,-0.14552 0.21588,-0.26459 0.28008,-0.26459 z m -19.86235,0.1256 c 0.0444,0.0185 0.0474,0.0671 0.001,0.14211 -0.0889,0.14386 -0.27338,0.26148 -0.41031,0.26148 -0.38059,0 -0.29662,-0.18998 0.16175,-0.36587 0.11774,-0.0452 0.20313,-0.0563 0.24753,-0.0377 z m 5.75986,0.51156 c 0.0861,-0.0861 0.35742,-0.0442 0.60254,0.093 0.4137,0.23157 0.41382,0.26145 0.006,0.41806 -0.25833,0.0991 -0.3725,0.0607 -0.2775,-0.093 0.0889,-0.14385 0.0156,-0.26149 -0.16279,-0.26149 -0.17835,0 -0.25404,-0.0705 -0.16794,-0.15658 z m -2.58176,0.50902 c 0.20553,0 0.3122,0.0994 0.2372,0.22065 -0.075,0.12129 -0.1816,0.22066 -0.2372,0.22066 -0.0556,0 -0.16219,-0.0994 -0.23719,-0.22066 -0.075,-0.12128 0.0317,-0.22065 0.23719,-0.22065 z m 13.18938,0 c 0.19171,0 0.3483,0.15893 0.3483,0.35295 0,0.19403 -0.0251,0.35295 -0.0558,0.35295 -0.0307,0 -0.18727,-0.15892 -0.3483,-0.35295 -0.21879,-0.26357 -0.20467,-0.35295 0.0558,-0.35295 z m -14.52831,0.0196 c 0.055,0.0222 0.0696,0.07 0.0212,0.14832 -0.0712,0.11518 -0.38646,0.27643 -0.70073,0.35863 -0.42592,0.11138 -0.49494,0.0732 -0.2713,-0.15038 0.25951,-0.25951 0.78574,-0.42316 0.95085,-0.35657 z m -2.85048,0.078 c 0.19403,0.0745 0.35295,0.16975 0.35295,0.21135 0,0.0416 -0.15892,0.13634 -0.35295,0.21084 -0.19403,0.0745 -0.35243,-0.0203 -0.35243,-0.21084 0,-0.19055 0.1584,-0.28585 0.35243,-0.21135 z m 1.28623,0.13022 c 0.0815,0.0815 -0.0657,0.22926 -0.3266,0.32866 -0.37708,0.14359 -0.40767,0.11299 -0.14831,-0.14831 0.17948,-0.18082 0.39341,-0.26185 0.47491,-0.18035 z m 5.63015,0.33834 c 0.0815,0.0815 4.7e-4,0.29492 -0.18035,0.47439 -0.26131,0.25936 -0.29191,0.22929 -0.14832,-0.14779 0.0994,-0.26092 0.24717,-0.4081 0.32867,-0.3266 z m -8.07703,0.23973 c 0.0278,-0.0278 0.0647,0.009 0.10697,0.11472 0.0764,0.19099 0.0667,0.41905 -0.0212,0.50695 -0.088,0.0879 -0.15051,-0.0684 -0.13901,-0.34727 0.006,-0.15411 0.0254,-0.24658 0.0532,-0.2744 z m 3.29489,0.26986 c 0.0873,0.0873 0.013,0.15916 -0.16536,0.15916 -0.17837,0 -0.25062,0.11907 -0.16072,0.26459 0.0899,0.14552 0.10381,0.26458 0.031,0.26458 -0.0728,0 -0.20052,-0.11103 -0.28422,-0.2465 -0.17594,-0.28467 0.34164,-0.67948 0.57929,-0.44183 z m -4.47518,0.0264 c 0.0751,0.0236 0.14681,0.0779 0.20309,0.16899 0.11412,0.18466 0.0771,0.23959 -0.0915,0.13539 -0.15558,-0.0962 -0.34333,-0.0257 -0.41703,0.1571 -0.0959,0.23794 -0.14013,0.24311 -0.15503,0.0176 -0.0226,-0.34149 0.23519,-0.54986 0.46044,-0.47905 z m 4.95474,0.48562 c 0.21188,0 0.38499,0.0994 0.38499,0.22065 0,0.12129 -0.11214,0.22066 -0.24908,0.22066 -0.13693,0 -0.30999,-0.0994 -0.38499,-0.22066 -0.075,-0.12128 0.0372,-0.22065 0.24908,-0.22065 z m 5.03897,0.006 c 0.34887,-0.0209 0.56822,0.0684 0.48782,0.19844 -0.17761,0.28733 -0.83066,0.31242 -0.99994,0.0382 -0.0674,-0.10914 0.16324,-0.21578 0.51212,-0.23668 z m -7.95817,0.031 c 0.0444,-0.0186 0.1298,-0.007 0.24753,0.0382 0.22584,0.0867 0.41082,0.20429 0.41082,0.26149 0,0.21428 -0.50401,0.0943 -0.65939,-0.1571 -0.0463,-0.075 -0.0434,-0.12408 0.001,-0.14263 z m 4.52995,0.0574 c 0.19893,0.0763 0.36174,0.36377 0.36174,0.63924 0,0.65287 -0.0708,0.6299 -0.42788,-0.14056 -0.23877,-0.51499 -0.22601,-0.61079 0.0661,-0.49868 z m 0.9834,0.43464 c 0.19172,0 0.3483,0.15892 0.3483,0.35295 0,0.19403 -0.0251,0.35295 -0.0558,0.35295 -0.0307,0 -0.18727,-0.15892 -0.3483,-0.35295 -0.21878,-0.26358 -0.20467,-0.35295 0.0558,-0.35295 z m 29.87673,0.47081 c 0.0223,-0.0223 0.0957,0.0346 0.22635,0.16433 0.18082,0.17948 0.26185,0.39289 0.18035,0.47439 -0.0815,0.0815 -0.22927,-0.0651 -0.32867,-0.32608 -0.0718,-0.18855 -0.10034,-0.29033 -0.078,-0.31264 z m -31.82131,0.0837 c 0.26963,0 0.43244,0.0934 0.36174,0.20774 -0.0707,0.11428 -0.2334,0.20826 -0.36174,0.20826 -0.12835,0 -0.29104,-0.0939 -0.36174,-0.20826 -0.0707,-0.11439 0.0921,-0.20774 0.36174,-0.20774 z m -5.03018,0.0207 c 0.14999,-0.0927 0.19427,0.0136 0.10387,0.24908 -0.1759,0.45837 -0.36536,0.54233 -0.36536,0.16175 0,-0.13694 0.11764,-0.32193 0.26149,-0.41083 z m 20.44888,0.23408 c 0.0694,-0.0694 0.19698,0.0576 0.28318,0.28215 0.17891,0.46623 0.0263,0.54823 -0.23461,0.12609 -0.0959,-0.1552 -0.11797,-0.33884 -0.0486,-0.40824 z m -13.74955,0.16936 c 0.1177,-0.005 0.14108,0.11003 0.0517,0.25477 -0.21282,0.34434 -1.19166,0.86598 -1.19166,0.6351 0,-0.21877 0.84486,-0.87827 1.13998,-0.88987 z m 29.07109,0.0463 c 0.013,-0.0285 0.0681,-0.0137 0.16382,0.0455 0.16166,0.0999 0.22669,0.35637 0.14469,0.56999 -0.082,0.21363 -0.16627,0.37892 -0.18707,0.36742 -0.0208,-0.0115 -0.18654,-0.0806 -0.36845,-0.15399 -0.1819,-0.0734 -0.33073,-0.23911 -0.33073,-0.36794 0,-0.1288 0.19813,-0.15801 0.44028,-0.0651 0.31971,0.12268 0.38101,0.073 0.22376,-0.18139 -0.0705,-0.11414 -0.0993,-0.186 -0.0863,-0.21445 z m -11.55485,0.0708 c 0.0444,-0.0186 0.1298,-0.007 0.24753,0.0382 0.22584,0.0867 0.41083,0.20429 0.41083,0.26149 0,0.21428 -0.50401,0.0943 -0.65939,-0.1571 -0.0463,-0.075 -0.0434,-0.12408 0.001,-0.14263 z m -0.53537,0.26509 c 0.0444,0.0186 0.0474,0.0671 0.001,0.14211 -0.0889,0.14385 -0.27338,0.26149 -0.41031,0.26149 -0.38058,0 -0.29663,-0.18998 0.16174,-0.36587 0.11774,-0.0452 0.20314,-0.0563 0.24753,-0.0377 z M 155.575,260.6149 c 0.0137,0.0137 -0.0664,0.12091 -0.23099,0.33073 -0.19972,0.25466 -0.40812,0.46302 -0.46302,0.46302 -0.21776,0 -0.0774,-0.21762 0.36328,-0.56327 0.20983,-0.16455 0.31707,-0.24413 0.33073,-0.23048 z m 13.68082,0.0946 c 0.0479,0.0183 0.0775,0.0657 0.0775,0.13849 0,0.14552 -0.11906,0.3385 -0.26458,0.4284 -0.14553,0.0899 -0.26458,0.0442 -0.26458,-0.10128 0,-0.14553 0.11905,-0.33799 0.26458,-0.42789 0.0728,-0.045 0.13911,-0.056 0.18707,-0.0377 z m 12.0003,0.17312 c 0.0586,0.0384 0.2087,0.22753 0.48783,0.59221 0.32189,0.42098 0.27247,0.45955 -0.53796,0.42685 -0.59346,-0.024 -0.69782,-0.0738 -0.31161,-0.14883 0.41186,-0.08 0.53411,-0.24215 0.42065,-0.55914 -0.0849,-0.23735 -0.11752,-0.34953 -0.0589,-0.31109 z m -9.46867,0.10025 c 0.0693,-0.0694 0.19698,0.0576 0.28318,0.28215 0.17891,0.46622 0.0263,0.54822 -0.23461,0.12609 -0.0959,-0.15521 -0.11787,-0.33884 -0.0486,-0.40824 z m -15.16238,0.0289 c 0,0.14553 -0.11526,0.44318 -0.25632,0.66146 -0.14107,0.21829 -0.25632,0.27782 -0.25632,0.13229 0,-0.14552 0.11525,-0.44318 0.25632,-0.66146 0.14106,-0.2183 0.25632,-0.27781 0.25632,-0.13229 z m -3.3874,0.0258 c 0.0431,-0.0855 0.2025,-0.0686 0.45889,0.0899 0.19545,0.12078 0.30693,0.36586 0.24753,0.54416 -0.0769,0.2306 -0.21197,0.19947 -0.46715,-0.10801 -0.20921,-0.2521 -0.28236,-0.44055 -0.23927,-0.52606 z m -3.468,0.10645 c 0.15407,0 0.20669,0.11906 0.11679,0.26458 -0.0899,0.14552 -0.21589,0.26459 -0.28009,0.26459 -0.0642,0 -0.11679,-0.11907 -0.11679,-0.26459 0,-0.14552 0.12598,-0.26458 0.28009,-0.26458 z m -13.36146,0.26454 c 0.0642,0 0.11679,0.11907 0.11679,0.26459 0,0.14552 -0.12598,0.26458 -0.28009,0.26458 -0.15408,0 -0.20669,-0.11906 -0.11679,-0.26458 0.0899,-0.14552 0.21589,-0.26459 0.28009,-0.26459 z m 10.03556,0.12558 c 0.0444,0.0185 0.0474,0.0671 0.001,0.14211 -0.0889,0.14386 -0.27338,0.26148 -0.41031,0.26148 -0.38058,0 -0.29663,-0.18998 0.16174,-0.36587 0.11774,-0.0452 0.20314,-0.0563 0.24753,-0.0377 z m 5.90662,0.22272 c 0.19099,-0.0764 0.41905,-0.0672 0.50695,0.0207 0.0879,0.088 -0.0684,0.15051 -0.34727,0.13901 -0.30822,-0.0127 -0.37075,-0.0752 -0.15968,-0.15968 z"
         id="path1591" />
    </g>
  </g>
</svg>
