<?xml version="1.0" encoding="UTF-8" standalone="no"?>
<!-- Created with Inkscape (http://www.inkscape.org/) -->

<svg
   width="64.41539mm"
   height="58.992348mm"
   viewBox="0 0 64.41539 58.992348"
   version="1.1"
   id="svg1"
   xmlns="http://www.w3.org/2000/svg"
   xmlns:svg="http://www.w3.org/2000/svg">
  <defs
     id="defs1" />
  <g
     id="layer1"
     transform="translate(-55.297918,-112.44792)">
    <g
       id="g1998"
       transform="translate(-71.907181,-20.492292)">
      <path
         style="fill:#cfc4ac"
         d="m 131.71817,191.82666 c -2.13443,-0.0748 -3.95216,-0.2075 -4.0394,-0.29486 -0.39165,-0.39222 7.17056,-2.78688 10.37819,-3.28637 l 1.13509,-0.17676 -1.01192,-1.09943 c -1.20573,-1.31001 -2.42924,-3.06336 -3.20711,-4.59597 -0.65043,-1.28151 -2.46157,-6.73332 -2.2929,-6.90198 0.18209,-0.1821 2.36274,3.3337 3.57776,5.76831 0.93455,1.87262 3.54116,5.82083 3.84292,5.82083 0.0474,0 -0.2495,-0.68461 -0.6597,-1.52135 -0.41021,-0.83675 -0.99615,-2.63222 -1.30208,-3.98995 -0.30594,-1.35773 -0.62856,-2.75671 -0.71694,-3.10885 -0.0925,-0.36861 -0.0444,-0.64026 0.11334,-0.64026 0.15072,0 0.64495,0.98226 1.09828,2.18281 1.45863,3.86278 2.41964,5.94359 3.14035,6.79957 l 0.70407,0.83622 3.175,-0.30901 c 1.74625,-0.16996 3.20778,-0.33824 3.24783,-0.37397 0.25427,-0.2268 -5.28096,-8.76104 -7.38393,-11.38458 -2.45982,-3.06871 -3.50831,-4.7345 -3.9505,-6.27632 -0.25225,-0.87955 0.12322,-0.97255 0.9258,-0.2293 0.30042,0.27821 1.55825,1.1225 2.79518,1.87621 4.66267,2.84114 6.26276,4.4937 8.4542,8.73146 l 1.20309,2.3265 0.0232,-3.61115 c 0.027,-4.20692 0.46634,-5.80947 2.23478,-8.15174 1.75832,-2.32888 1.79208,-2.23631 1.67877,4.60289 -0.0875,5.28279 0.12397,9.17845 0.60353,11.11634 0.11674,0.47177 0.33403,0.59532 1.04698,0.59532 h 0.89967 l -0.16729,-1.42344 c -0.48302,-4.10974 1.51027,-8.50782 5.00239,-11.0375 2.12784,-1.5414 2.14557,-1.29475 0.31216,4.343 -0.91421,2.81118 -1.74671,5.78775 -1.85002,6.61459 l -0.18783,1.50335 h 1.34802 c 1.29464,0 1.36836,-0.0399 1.86125,-1.00601 1.2806,-2.51017 3.759,-4.48038 7.06828,-5.61894 3.49627,-1.20289 3.32166,-0.35264 -0.7042,3.42905 -1.75319,1.64685 -3.12231,3.05958 -3.04249,3.1394 0.0798,0.0798 0.81994,0.2367 1.64472,0.34863 1.47461,0.2001 1.51847,0.18687 2.63388,-0.79495 0.62386,-0.54915 1.88371,-1.40481 2.79967,-1.90146 1.55196,-0.84151 1.83116,-0.90301 4.09955,-0.90301 1.59455,0 2.54824,0.11407 2.76489,0.33072 0.26459,0.26459 0.12171,0.3321 -0.71437,0.33756 -1.43121,0.009 -4.19663,1.00274 -5.88531,2.1141 l -1.40062,0.92178 0.83421,0.245 c 0.5737,0.1685 0.96977,0.14858 1.26833,-0.0638 0.89043,-0.63336 3.1133,-1.72192 4.46788,-2.18796 1.61864,-0.55689 4.56607,-0.94903 4.56333,-0.60712 -10e-4,0.12794 -0.83465,0.43343 -1.8525,0.67886 -1.6238,0.39156 -4.77368,1.74892 -5.36536,2.31207 -0.11455,0.10902 1.31728,0.45203 3.18185,0.76224 3.61571,0.60154 7.59758,1.72051 9.73918,2.73685 l 1.31015,0.62176 -4.49791,0.13229 c -2.47386,0.0728 -14.61823,0.17804 -26.9875,0.23395 -12.36927,0.0559 -22.84677,0.11712 -23.28333,0.13602 -0.43657,0.0189 -2.54011,-0.0269 -4.67454,-0.10166 z"
         id="path874" />
      <path
         style="baseline-shift:baseline;display:inline;overflow:visible;vector-effect:none;fill:#c9baa0;enable-background:accumulate;stop-color:#000000;stop-opacity:1"
         d="m 183.80377,190.50398 c -0.1893,0.002 -0.15682,0.10634 0.0817,0.26045 0.5083,0.32849 0.59988,0.32849 0.39687,0 -0.0899,-0.14552 -0.30521,-0.26245 -0.47852,-0.26045 z"
         id="path1583" />
      <path
         style="baseline-shift:baseline;display:inline;overflow:visible;vector-effect:none;fill:#c9baa0;enable-background:accumulate;stop-color:#000000;stop-opacity:1"
         d="m 188.19937,190.32518 c -0.37442,0.0705 -0.599,0.42376 -0.43977,0.83871 0.0665,0.17325 0.44211,0.29175 0.83509,0.26355 1.79346,-0.12865 1.79395,-0.12853 1.38855,-0.38499 -0.21133,-0.13373 -0.47923,-0.18435 -0.59532,-0.11265 -0.11607,0.0718 -0.21084,0.0125 -0.21084,-0.13178 0,-0.1443 -0.25303,-0.3427 -0.56224,-0.4408 -0.14944,-0.0474 -0.29067,-0.0556 -0.41547,-0.032 z"
         id="path1582" />
      <path
         style="baseline-shift:baseline;display:inline;overflow:visible;vector-effect:none;fill:#c9baa0;enable-background:accumulate;stop-color:#000000;stop-opacity:1"
         d="m 139.1543,190.28488 c -0.19099,0.0637 -0.39932,0.27203 -0.46302,0.46302 -0.0661,0.19841 0.0331,0.29771 0.23151,0.23151 0.191,-0.0637 0.39932,-0.27202 0.46302,-0.46302 0.0662,-0.19841 -0.0331,-0.29761 -0.23151,-0.23151 z"
         id="path1581" />
      <path
         style="baseline-shift:baseline;display:inline;overflow:visible;vector-effect:none;fill:#c9baa0;enable-background:accumulate;stop-color:#000000;stop-opacity:1"
         d="m 133.09368,190.04355 c -0.46368,-0.14146 -0.8302,0.17358 -0.5395,0.71675 0.34363,0.6421 0.8498,0.71724 0.60927,0.0904 -0.13488,-0.35149 -0.065,-0.40293 0.339,-0.25011 0.47624,0.18013 0.48068,0.16378 0.0667,-0.25477 -0.15543,-0.15713 -0.32086,-0.25515 -0.47543,-0.3023 z"
         id="path1580" />
      <path
         style="baseline-shift:baseline;display:inline;overflow:visible;vector-effect:none;fill:#c9baa0;enable-background:accumulate;stop-color:#000000;stop-opacity:1"
         d="m 131.8488,190.02185 c -0.11216,0.0343 -0.35878,0.22562 -0.89504,0.62167 -0.52456,0.38742 -1.13562,0.62289 -1.44022,0.55449 -0.29104,-0.0653 -0.76729,-0.0191 -1.05833,0.10232 -0.39479,0.16502 -0.22543,0.22485 0.67489,0.23874 0.66212,0.0102 1.36162,-0.13022 1.55443,-0.31212 0.2805,-0.26427 0.37482,-0.26388 0.47232,0.002 0.067,0.18288 0.23656,0.26179 0.37672,0.17519 0.15402,-0.0952 0.11871,-0.32535 -0.0889,-0.58085 -0.2903,-0.35726 -0.27846,-0.39843 0.0754,-0.26613 0.25768,0.0963 0.41858,0.0136 0.41858,-0.21497 0,-0.23195 0.0222,-0.35472 -0.0899,-0.3204 z"
         id="path1579" />
      <path
         style="baseline-shift:baseline;display:inline;overflow:visible;vector-effect:none;fill:#c9baa0;enable-background:accumulate;stop-color:#000000;stop-opacity:1"
         d="m 135.03827,189.35638 c -0.2197,-0.0363 -0.524,0.0861 -0.79633,0.38706 -0.2643,0.292 -0.36469,0.50807 -0.22325,0.48007 0.55698,-0.11026 0.94189,0.0251 0.78652,0.27647 -0.0899,0.14552 -0.0373,0.26458 0.11679,0.26458 0.15411,0 0.28914,-0.0893 0.30024,-0.19843 0.0111,-0.10914 0.0591,-0.39878 0.10645,-0.64338 0.0648,-0.33518 -0.0707,-0.53011 -0.29042,-0.56637 z m -0.42116,0.25199 c 0.14581,-0.0901 0.33311,0.0141 0.41651,0.23151 0.17532,0.45688 0.15878,0.46494 -0.32298,0.15968 -0.22076,-0.13986 -0.25654,-0.29045 -0.0935,-0.39119 z"
         id="path1575" />
      <path
         style="baseline-shift:baseline;display:inline;overflow:visible;vector-effect:none;fill:#c9baa0;enable-background:accumulate;stop-color:#000000;stop-opacity:1"
         d="m 136.88363,188.98119 c -0.0344,0.0145 -0.009,0.10937 0.0605,0.29094 0.0917,0.23886 0.27312,0.43408 0.40307,0.43408 0.34025,0 0.29221,-0.15329 -0.16691,-0.53433 -0.16846,-0.1398 -0.26225,-0.20522 -0.29663,-0.19069 z"
         id="path1571" />
      <path
         style="baseline-shift:baseline;display:inline;overflow:visible;vector-effect:none;fill:#c9baa0;enable-background:accumulate;stop-color:#000000;stop-opacity:1"
         d="m 138.65665,188.30688 c -0.27902,0.0456 -0.54415,0.13834 -0.54415,0.23668 0,0.0543 0.28903,0.0747 0.64234,0.0455 0.35331,-0.0292 0.59156,-0.13621 0.52916,-0.2372 -0.0552,-0.0893 -0.34833,-0.0906 -0.62735,-0.045 z"
         id="path1566" />
      <path
         style="baseline-shift:baseline;display:inline;overflow:visible;vector-effect:none;fill:#c9baa0;enable-background:accumulate;stop-color:#000000;stop-opacity:1"
         d="m 154.72234,168.67187 -1.14515,1.26453 c -2.33325,2.57679 -3.31005,7.71554 -2.34559,12.33878 0.0785,0.37621 -0.49184,-0.57921 -1.26711,-2.12339 -2.08088,-4.14467 -3.64381,-5.92242 -7.22178,-8.21345 -1.16417,-0.74543 -2.80127,-1.80908 -3.63802,-2.36368 -1.29221,-0.85649 -1.52136,-0.93463 -1.52136,-0.51935 0,0.9411 1.55887,3.43792 4.27364,6.84455 2.45206,3.07697 7.31499,10.7728 7.00371,11.08408 -0.0659,0.0659 -1.52929,0.2867 -3.25148,0.49092 l -3.13108,0.37156 -0.60409,-0.72399 c -0.76942,-0.92175 -1.91686,-3.30047 -2.91972,-6.0539 -1.51259,-4.15298 -1.76525,-3.93112 -0.69505,0.6103 0.39275,1.66664 1.01853,3.47694 1.49397,4.3217 0.4499,0.79944 0.63112,1.29814 0.40256,1.10846 -0.81837,-0.67919 -2.52154,-3.12804 -3.62201,-5.20795 -1.55021,-2.92996 -3.51936,-6.21771 -3.7238,-6.21771 -0.25298,0 1.66425,5.47958 2.46135,7.03472 0.8148,1.58967 2.22714,3.51652 3.69745,5.04517 0.5818,0.60489 0.98357,1.21966 0.89297,1.36632 -0.0907,0.14667 -0.0154,0.32743 0.16743,0.40153 0.25146,0.10195 0.23566,0.20313 -0.0646,0.41548 -0.34252,0.24222 -0.33341,0.28173 0.0661,0.28473 0.25466,0.002 0.46302,-0.13511 0.46302,-0.30489 0,-0.16977 0.0627,-0.24578 0.13953,-0.16898 0.0768,0.0768 0.0204,0.45421 -0.12558,0.83819 -0.31807,0.83659 -0.27239,0.85187 0.50902,0.17415 0.6602,-0.57258 1.19424,-0.45957 0.94154,0.19896 -0.0876,0.2283 -0.006,0.51905 0.18035,0.64647 v -0.001 c 0.25362,0.17298 10.06851,0.12208 13.43639,-0.0698 0.21828,-0.012 5.21268,-0.0152 11.09855,-0.007 8.24247,0.0118 10.74939,-0.0599 10.90993,-0.31265 0.16538,-0.25998 0.20939,-0.25936 0.21239,0.003 0.003,0.24333 0.7383,0.33073 2.78225,0.33073 1.52798,0 2.77807,-0.0893 2.77813,-0.19843 7e-5,-0.10914 -0.48087,-0.18087 -1.06867,-0.15917 -0.9459,0.035 -1.02941,-0.009 -0.7276,-0.38137 0.18758,-0.23157 0.21191,-0.3439 0.0543,-0.2496 -0.18346,0.10974 -0.28629,-0.15638 -0.28629,-0.73897 0,-0.70727 0.075,-0.84781 0.33693,-0.63045 0.18535,0.15385 0.27896,0.43063 0.20826,0.61495 -0.133,0.34658 0.59927,1.12775 0.8356,0.89142 0.0733,-0.0733 0.0154,-0.44335 -0.12867,-0.82218 -0.18836,-0.49551 -0.1724,-0.74385 0.0563,-0.88521 0.20866,-0.12896 0.0913,-0.2595 -0.34107,-0.37983 -1.02139,-0.28428 -1.8495,-0.26471 -1.8495,0.0439 0,0.1541 0.14883,0.19093 0.33073,0.0816 0.2171,-0.13045 0.20364,-0.0425 -0.0393,0.25683 -0.32159,0.39629 -0.30747,0.50194 0.10645,0.8046 0.33112,0.24213 0.38341,0.40548 0.17157,0.5364 -0.16757,0.10356 -0.30489,0.058 -0.30489,-0.10128 0,-0.1852 -0.16678,-0.20834 -0.46302,-0.0641 -0.69883,0.3403 -1.46487,0.23919 -1.56477,-0.20671 -0.0538,-0.2399 -0.0277,-0.26609 0.0656,-0.0661 0.0849,0.18191 0.25978,0.33073 0.38861,0.33073 0.1288,0 0.19788,-0.14882 0.15348,-0.33073 -0.0443,-0.18195 -0.033,-0.24825 0.0253,-0.14728 0.0583,0.1009 0.2869,0.11426 0.50798,0.0295 0.32838,-0.12599 0.33736,-0.19956 0.0491,-0.40205 -0.27601,-0.19387 -0.28086,-0.27746 -0.0222,-0.3824 0.1819,-0.0738 0.33073,-0.29131 0.33073,-0.48318 0,-0.22827 -0.5316,-0.41025 -1.53841,-0.5271 -0.84623,-0.0982 -1.68502,-0.26922 -1.86397,-0.37982 -0.46607,-0.28805 2.56848,-1.85556 4.98988,-2.57762 1.97332,-0.58845 1.97774,-0.59186 0.79375,-0.60306 -1.57156,-0.0149 -3.2602,0.51865 -5.76761,1.82314 -1.89509,0.98594 -3.75739,1.40287 -3.75739,0.84129 0,-0.78056 4.59587,-2.999 6.54844,-3.16104 0.76399,-0.0634 1.38906,-0.20338 1.38906,-0.3111 0,-0.20913 -1.95408,-0.53226 -3.21841,-0.53226 -1.8042,0 -4.6912,1.42659 -6.67711,3.29954 l -0.8909,0.84026 -1.7508,-0.26149 c -0.96277,-0.14388 -1.75028,-0.35445 -1.75028,-0.46767 0,-0.11321 0.255,-0.38394 0.56637,-0.60203 1.18997,-0.8335 6.04821,-5.79147 6.04821,-6.17223 0,-0.52865 -1.30931,-0.28939 -3.52381,0.64389 -2.73088,1.1509 -5.29286,3.46769 -6.18877,5.59604 -0.36715,0.87221 -0.40445,0.8891 -1.68724,0.76584 -0.72149,-0.0693 -1.3694,-0.18343 -1.4397,-0.25373 -0.26058,-0.26058 0.45927,-3.13042 2.00401,-7.98969 0.87388,-2.74896 1.53193,-5.05527 1.46193,-5.12527 -0.25863,-0.25863 -2.46584,1.26079 -3.56723,2.45566 -0.62515,0.67821 -1.50481,2.02599 -1.9544,2.99517 -0.72362,1.55994 -0.82954,2.10086 -0.92604,4.71289 l -0.10904,2.95021 -0.83251,0.12712 c -0.45769,0.0698 -0.87229,0.091 -0.92139,0.047 -0.42769,-0.38309 -0.64799,-3.29127 -0.76171,-10.04384 z m 14.99237,20.9062 c 0.0719,-0.0189 0.17094,-0.009 0.28008,0.0326 0.21828,0.0838 0.39688,0.19911 0.39688,0.25631 0,0.0572 -0.1786,0.10387 -0.39688,0.10387 -0.21828,0 -0.39687,-0.11536 -0.39687,-0.25631 0,-0.0705 0.0449,-0.11758 0.11679,-0.13643 z"
         id="path1563" />
      <path
         style="fill:#f3c84d"
         d="m 162.72161,188.84638 c 0.002,-0.0364 0.18041,-0.6514 0.3974,-1.36671 0.96602,-3.18444 3.32629,-5.65634 6.69906,-7.0159 1.21038,-0.48791 2.43348,-0.81112 2.86435,-0.75693 0.7158,0.09 0.57243,0.27224 -2.98244,3.79024 -2.05392,2.03261 -3.95483,4.08261 -4.22424,4.55555 -0.433,0.76012 -0.62137,0.8599 -1.62342,0.8599 -0.62346,0 -1.13229,-0.0298 -1.13071,-0.0661 z"
         id="path1604" />
      <path
         style="fill:#f3c84d"
         d="m 150.11532,188.31721 c -0.28866,-0.32742 -1.72654,-2.61937 -3.19528,-5.09322 -1.47903,-2.49118 -3.73282,-5.81469 -5.05164,-7.44932 -2.53861,-3.14653 -3.63376,-4.82829 -4.01913,-6.172 -0.27612,-0.96277 -0.34938,-0.97836 1.71844,0.3656 7.23801,4.70428 7.87505,5.34147 10.34306,10.3453 0.93306,1.89177 1.60695,3.02286 1.49754,2.51354 -0.10942,-0.50932 -0.19217,-2.59292 -0.1839,-4.63021 0.0129,-3.17685 0.0984,-3.91553 0.60063,-5.18892 0.58384,-1.48033 2.28847,-3.9392 2.73086,-3.9392 0.12873,0 0.22559,3.04968 0.2164,6.81302 -0.009,3.74716 0.10098,7.64646 0.24472,8.6651 0.14374,1.01865 0.31347,2.41763 0.37716,3.10886 l 0.11581,1.25677 h -2.43492 c -2.1932,0 -2.48702,-0.0591 -2.95975,-0.59532 z"
         id="path1603" />
      <path
         style="fill:#f3c84d"
         d="m 169.10295,188.84638 c 0.17457,-0.32742 1.06276,-1.34151 1.97376,-2.25354 2.22537,-2.22787 4.39903,-3.2586 6.92198,-3.28234 1.00748,-0.009 2.11907,0.0819 2.47019,0.20307 0.51662,0.17828 0.32483,0.25215 -1.00541,0.38722 -2.33767,0.23737 -4.75383,1.50652 -7.0866,3.72242 -1.54012,1.46297 -2.07831,1.81848 -2.75286,1.81848 -0.78718,0 -0.81905,-0.0364 -0.52106,-0.59531 z"
         id="path1602" />
      <path
         style="fill:#f3c84d"
         d="m 159.01458,189.20843 c -0.8326,-0.1471 -0.95727,-0.28375 -1.23548,-1.35424 -0.17019,-0.65484 -0.31902,-2.27331 -0.33073,-3.5966 -0.0387,-4.37284 1.88398,-8.22082 5.08186,-10.17066 1.35712,-0.82748 1.49386,-0.68085 0.93352,1.00112 -2.29703,6.89501 -2.91362,9.27036 -3.05624,11.77396 -0.0808,1.41882 -0.21895,2.56401 -0.30693,2.54485 -0.088,-0.0192 -0.57668,-0.10845 -1.086,-0.19843 z"
         id="path1601" />
      <path
         style="fill:#f3c84d"
         d="m 173.0375,189.46621 c 0,-0.13203 0.62507,-0.80584 1.38906,-1.49735 1.5456,-1.39897 4.36001,-2.81145 6.49531,-3.25983 2.13056,-0.44739 2.7726,-0.31601 0.97917,0.20036 -2.14543,0.61771 -4.56635,1.88461 -6.6433,3.4765 -1.69505,1.29919 -2.22024,1.55474 -2.22024,1.08032 z"
         id="path1600" />
      <path
         style="fill:#f3c84d"
         d="m 141.41979,189.40221 c -2.25996,-1.16428 -5.22827,-4.65644 -6.60608,-7.7719 -0.65934,-1.49089 -2.03345,-5.6824 -1.86287,-5.6824 0.19671,0 2.26571,3.48091 3.30932,5.56766 1.13694,2.27336 3.7192,5.92154 4.36747,6.1703 0.1958,0.0751 0.0118,-0.37342 -0.40892,-0.99679 -0.42071,-0.62336 -0.89778,-1.47944 -1.06016,-1.90238 -0.35186,-0.91646 -1.56322,-6.28871 -1.44521,-6.40934 0.0453,-0.0463 0.45033,0.90625 0.90017,2.11667 1.72841,4.65066 4.16861,8.60341 5.69131,9.21905 0.42562,0.17208 0.27773,0.22539 -0.63607,0.22929 -0.6926,0.003 -1.63332,-0.22299 -2.24896,-0.54016 z"
         id="path1599" />
      <path
         style="fill:#f3c84d"
         d="m 154.99622,190.58384 c 0.191,-0.0764 0.4192,-0.067 0.50712,0.0209 0.0879,0.0879 -0.0684,0.15045 -0.34727,0.13896 -0.30822,-0.0127 -0.37092,-0.0754 -0.15985,-0.15985 z"
         id="path1598" />
      <path
         style="fill:#f3c84d"
         d="m 148.82812,191.02916 c -0.0899,-0.14552 -0.0374,-0.26458 0.11668,-0.26458 0.15411,0 0.2802,0.11906 0.2802,0.26458 0,0.14552 -0.0525,0.26459 -0.11668,0.26459 -0.0642,0 -0.19026,-0.11907 -0.2802,-0.26459 z"
         id="path1597" />
      <path
         style="fill:#6e9084"
         d="m 162.72161,188.84638 c 0.002,-0.0364 0.18041,-0.6514 0.3974,-1.36671 0.96602,-3.18444 3.32629,-5.65634 6.69906,-7.0159 1.21038,-0.48791 2.43348,-0.81112 2.86435,-0.75693 0.7158,0.09 0.57243,0.27224 -2.98244,3.79024 -2.05392,2.03261 -3.95483,4.08261 -4.22424,4.55555 -0.433,0.76012 -0.62137,0.8599 -1.62342,0.8599 -0.62346,0 -1.13229,-0.0298 -1.13071,-0.0661 z"
         id="path1630" />
      <path
         style="fill:#6e9084"
         d="m 150.11532,188.31721 c -0.28866,-0.32742 -1.72654,-2.61937 -3.19528,-5.09322 -1.47903,-2.49118 -3.73282,-5.81469 -5.05164,-7.44932 -2.53861,-3.14653 -3.63376,-4.82829 -4.01913,-6.172 -0.27612,-0.96277 -0.34938,-0.97836 1.71844,0.3656 7.23801,4.70428 7.87505,5.34147 10.34306,10.3453 0.93306,1.89177 1.60695,3.02286 1.49754,2.51354 -0.10942,-0.50932 -0.19217,-2.59292 -0.1839,-4.63021 0.0129,-3.17685 0.0984,-3.91553 0.60063,-5.18892 0.58384,-1.48033 2.28847,-3.9392 2.73086,-3.9392 0.12873,0 0.22559,3.04968 0.2164,6.81302 -0.009,3.74716 0.10098,7.64646 0.24472,8.6651 0.14374,1.01865 0.31347,2.41763 0.37716,3.10886 l 0.11581,1.25677 h -2.43492 c -2.1932,0 -2.48702,-0.0591 -2.95975,-0.59532 z"
         id="path1629" />
      <path
         style="fill:#6e9084"
         d="m 169.10295,188.84638 c 0.17457,-0.32742 1.06276,-1.34151 1.97376,-2.25354 2.22537,-2.22787 4.39903,-3.2586 6.92198,-3.28234 1.00748,-0.009 2.11907,0.0819 2.47019,0.20307 0.51662,0.17828 0.32483,0.25215 -1.00541,0.38722 -2.33767,0.23737 -4.75383,1.50652 -7.0866,3.72242 -1.54012,1.46297 -2.07831,1.81848 -2.75286,1.81848 -0.78718,0 -0.81905,-0.0364 -0.52106,-0.59531 z"
         id="path1628" />
      <path
         style="fill:#6e9084"
         d="m 159.01458,189.20843 c -0.8326,-0.1471 -0.95727,-0.28375 -1.23548,-1.35424 -0.17019,-0.65484 -0.31902,-2.27331 -0.33073,-3.5966 -0.0387,-4.37284 1.88398,-8.22082 5.08186,-10.17066 1.35712,-0.82748 1.49386,-0.68085 0.93352,1.00112 -2.29703,6.89501 -2.91362,9.27036 -3.05624,11.77396 -0.0808,1.41882 -0.21895,2.56401 -0.30693,2.54485 -0.088,-0.0192 -0.57668,-0.10845 -1.086,-0.19843 z"
         id="path1627" />
      <path
         style="fill:#6e9084"
         d="m 173.0375,189.46621 c 0,-0.13203 0.62507,-0.80584 1.38906,-1.49735 1.5456,-1.39897 4.36001,-2.81145 6.49531,-3.25983 2.13056,-0.44739 2.7726,-0.31601 0.97917,0.20036 -2.14543,0.61771 -4.56635,1.88461 -6.6433,3.4765 -1.69505,1.29919 -2.22024,1.55474 -2.22024,1.08032 z"
         id="path1626" />
      <path
         style="fill:#6e9084"
         d="m 141.41979,189.40221 c -2.25996,-1.16428 -5.22827,-4.65644 -6.60608,-7.7719 -0.65934,-1.49089 -2.03345,-5.6824 -1.86287,-5.6824 0.19671,0 2.26571,3.48091 3.30932,5.56766 1.13694,2.27336 3.7192,5.92154 4.36747,6.1703 0.1958,0.0751 0.0118,-0.37342 -0.40892,-0.99679 -0.42071,-0.62336 -0.89778,-1.47944 -1.06016,-1.90238 -0.35186,-0.91646 -1.56322,-6.28871 -1.44521,-6.40934 0.0453,-0.0463 0.45033,0.90625 0.90017,2.11667 1.72841,4.65066 4.16861,8.60341 5.69131,9.21905 0.42562,0.17208 0.27773,0.22539 -0.63607,0.22929 -0.6926,0.003 -1.63332,-0.22299 -2.24896,-0.54016 z"
         id="path1625" />
      <path
         style="fill:#6e9084"
         d="m 154.99622,190.58384 c 0.191,-0.0764 0.4192,-0.067 0.50712,0.0209 0.0879,0.0879 -0.0684,0.15045 -0.34727,0.13896 -0.30822,-0.0127 -0.37092,-0.0754 -0.15985,-0.15985 z"
         id="path1624" />
      <path
         style="fill:#6e9084"
         d="m 148.82812,191.02916 c -0.0899,-0.14552 -0.0374,-0.26458 0.11668,-0.26458 0.15411,0 0.2802,0.11906 0.2802,0.26458 0,0.14552 -0.0525,0.26459 -0.11668,0.26459 -0.0642,0 -0.19026,-0.11907 -0.2802,-0.26459 z"
         id="path1623" />
      <path
         style="fill:#668777"
         d="m 173.0375,185.09463 c 0,-0.0728 0.23812,-0.25974 0.52916,-0.4155 0.29104,-0.15576 0.52917,-0.22367 0.52917,-0.15091 0,0.0728 -0.23813,0.25974 -0.52917,0.4155 -0.29104,0.15576 -0.52916,0.22367 -0.52916,0.15091 z"
         id="path1687" />
      <path
         style="fill:#668777"
         d="m 157.50275,184.28226 c 0.002,-0.72761 0.0534,-0.99386 0.11419,-0.59168 0.0608,0.40219 0.0592,0.9975 -0.004,1.32292 -0.0628,0.32542 -0.11256,-0.004 -0.11058,-0.73124 z"
         id="path1686" />
      <path
         style="fill:#668777"
         d="m 139.6927,185.72387 c -0.21359,-0.3991 -0.19887,-0.50652 0.0621,-0.45317 0.18814,0.0385 0.31057,-0.10867 0.27208,-0.32695 -0.0484,-0.2747 0.0534,-0.23877 0.33073,0.11671 0.50184,0.64321 0.50338,0.84561 0.008,1.03575 -0.23141,0.0888 -0.50788,-0.0642 -0.67279,-0.37234 z m 0.66876,0.0136 c 0.0899,-0.14552 0.0374,-0.26459 -0.11668,-0.26459 -0.15411,0 -0.2802,0.11907 -0.2802,0.26459 0,0.14552 0.0525,0.26458 0.11668,0.26458 0.0642,0 0.19026,-0.11906 0.2802,-0.26458 z"
         id="path1683" />
      <path
         style="fill:#668777"
         d="m 138.77694,186.1018 c -0.25011,-0.38172 -0.32398,-0.61322 -0.16414,-0.51444 0.30543,0.18877 0.92145,1.20847 0.73006,1.20847 -0.0611,0 -0.31581,-0.31232 -0.56592,-0.69403 z"
         id="path1679" />
      <path
         style="fill:#668777"
         d="m 172.50833,186.96416 c 0,-0.0728 0.35719,-0.38664 0.79375,-0.6975 0.43656,-0.31086 0.79375,-0.50566 0.79375,-0.4329 0,0.0728 -0.35719,0.38663 -0.79375,0.69749 -0.43656,0.31086 -0.79375,0.50567 -0.79375,0.43291 z"
         id="path1677" />
      <path
         style="fill:#668777"
         d="m 163.0487,188.18648 c 0.17577,-0.48042 0.4763,-0.82989 0.6826,-0.79375 0.20271,0.0355 0.56507,-0.29712 0.80525,-0.73918 0.5458,-1.00456 1.37819,-2.06365 1.84653,-2.34944 0.19638,-0.11983 -0.0418,0.36325 -0.52916,1.07352 -0.48742,0.71027 -1.11266,1.79618 -1.38942,2.41313 -0.51811,1.15496 -0.952,1.46229 -0.952,0.67429 0,-0.3902 -0.0498,-0.38174 -0.38891,0.0662 -0.35171,0.46445 -0.35887,0.43148 -0.0749,-0.34472 z"
         id="path1674" />
      <path
         style="fill:#668777"
         d="m 153.92219,186.72968 c -0.87714,-2.72139 -1.32478,-5.2903 -1.18937,-6.82559 0.10049,-1.1395 0.10542,-1.13043 0.15046,0.27716 0.0508,1.5864 1.08489,6.15454 1.75195,7.73906 0.22974,0.5457 0.32158,0.99219 0.2041,0.99219 -0.11748,0 -0.53019,-0.98227 -0.91714,-2.18282 z"
         id="path1673" />
      <path
         style="fill:#668777"
         d="m 149.55597,184.04134 c -1.34593,-2.67812 -2.96397,-5.50544 -3.59565,-6.28293 -1.8927,-2.32961 -1.94821,-2.55105 -0.85172,-3.398 0.35157,-0.27156 0.44762,-0.28685 0.30418,-0.0485 -0.13869,0.2305 -0.0835,0.32005 0.16312,0.26459 0.33108,-0.0745 1.15362,0.73022 2.33267,2.28205 0.29085,0.3828 0.29933,0.45899 0.0333,0.2988 -0.29015,-0.17469 -0.30007,-0.10839 -0.0529,0.3535 0.16734,0.31267 0.41598,0.49945 0.55253,0.41506 0.14024,-0.0867 0.17247,0.0441 0.074,0.30057 -0.12756,0.33242 -0.0804,0.39602 0.17621,0.23745 0.22255,-0.13755 0.28692,-0.11383 0.17639,0.065 -0.21499,0.34787 0.0724,1.16663 0.34936,0.99543 0.19305,-0.11931 2.42885,4.42787 2.98987,6.08079 0.14817,0.43656 0.35876,0.91281 0.46797,1.05833 0.10922,0.14552 0.38352,0.71107 0.60957,1.25677 l 0.411,0.99219 -0.84639,-9.3e-4 c -0.83264,-9.1e-4 -0.88618,-0.0801 -3.29355,-4.87023 z"
         id="path1672" />
      <path
         style="fill:#668777"
         d="m 173.54498,188.80633 c 0.20613,-0.24837 0.55442,-0.37672 0.78361,-0.28876 0.22691,0.0871 0.32523,0.071 0.21849,-0.0358 -0.26842,-0.26842 1.14,-1.69078 1.64877,-1.66508 0.27526,0.0139 0.30239,0.0657 0.0811,0.15489 -0.18281,0.0737 -0.27326,0.22965 -0.20101,0.34655 0.16607,0.26871 -1.36857,1.4503 -2.24266,1.72672 -0.59732,0.1889 -0.62446,0.16645 -0.28834,-0.23855 z"
         id="path1671" />
      <path
         style="fill:#668777"
         d="m 158.56642,189.00681 c -0.17372,-0.0707 -0.25028,-0.2994 -0.17013,-0.50828 0.0802,-0.20888 0.0177,-0.37978 -0.13885,-0.37978 -0.15652,0 -0.22067,-0.16655 -0.14256,-0.37012 0.0781,-0.20356 0.002,-0.45656 -0.16884,-0.56223 -0.23089,-0.1427 -0.21852,-0.25065 0.0481,-0.41959 0.26415,-0.16737 0.27161,-0.22853 0.0283,-0.23151 -0.1819,-0.002 -0.33073,-0.18967 -0.33073,-0.41654 0,-0.22687 0.11907,-0.33891 0.26459,-0.24897 0.14552,0.0899 0.27977,0.0672 0.29835,-0.0505 0.15,-0.95088 0.25677,-1.47285 0.58502,-2.85989 0.20663,-0.87312 0.51248,-1.88515 0.67966,-2.24896 l 0.30398,-0.66145 -0.15567,0.66145 c -0.32468,1.37961 -0.44648,6.5066 -0.17757,7.47448 0.23967,0.86268 0.218,0.98946 -0.16604,0.9713 -0.24293,-0.0115 -0.58383,-0.0787 -0.75756,-0.14938 z"
         id="path1670" />
      <path
         style="fill:#668777"
         d="m 169.70525,189.21685 c -0.54337,-0.16872 -0.53952,-0.19208 0.19844,-1.20359 0.4139,-0.56733 0.75256,-0.90178 0.75256,-0.74321 0,0.15856 -0.11907,0.36189 -0.26459,0.45182 -0.14552,0.0899 -0.26458,0.28097 -0.26458,0.42452 0,0.14355 0.29887,-0.0379 0.66415,-0.40316 0.39713,-0.39713 0.83025,-0.60041 1.07728,-0.50561 0.32919,0.12632 0.21021,0.36636 -0.58555,1.18129 -0.54928,0.56251 -1.00429,1.01089 -1.01114,0.99638 -0.007,-0.0145 -0.2618,-0.1038 -0.56657,-0.19844 z"
         id="path1669" />
      <path
         style="fill:#668777"
         d="m 141.68437,189.31374 c -0.43656,-0.19223 -0.77247,-0.45045 -0.74646,-0.57382 0.026,-0.12336 -0.15258,-0.46242 -0.39687,-0.75346 l -0.44417,-0.52917 0.66146,0.52917 c 0.3638,0.29104 0.75667,0.67799 0.87304,0.85989 0.11637,0.1819 0.33859,0.33073 0.49381,0.33073 0.15522,0 -0.14835,-0.47659 -0.6746,-1.0591 -0.92492,-1.02377 -1.21562,-1.51332 -0.71485,-1.20382 0.13309,0.0822 0.28327,0.0257 0.33372,-0.12563 0.0505,-0.15136 0.53917,0.32415 1.08606,1.05668 0.72395,0.96971 0.88077,1.33187 0.57671,1.33187 -0.22969,0 -0.34403,0.11906 -0.2541,0.26458 0.19333,0.31282 0.21509,0.31632 -0.79375,-0.12792 z m -0.13229,-1.84084 c 0,-0.0642 -0.11906,-0.19026 -0.26458,-0.28019 -0.14552,-0.0899 -0.26459,-0.0374 -0.26459,0.11667 0,0.15411 0.11907,0.2802 0.26459,0.2802 0.14552,0 0.26458,-0.0525 0.26458,-0.11668 z"
         id="path1668" />
      <path
         style="fill:#567768"
         d="m 165.35669,185.48766 c 0.15143,-0.28294 0.40609,-0.59525 0.56592,-0.69404 0.15984,-0.0988 0.086,0.13272 -0.16414,0.51444 -0.5296,0.80826 -0.80384,0.93085 -0.40178,0.1796 z"
         id="path1866" />
      <path
         style="fill:#567768"
         d="m 152.2371,188.71001 c -0.48283,-0.31796 -1.47298,-2.46482 -1.3203,-2.8627 0.0777,-0.20243 0.0162,-0.33971 -0.13665,-0.30508 -0.15283,0.0346 -0.55517,-0.55449 -0.89408,-1.30917 -0.44374,-0.98813 -0.51183,-1.3321 -0.24328,-1.22905 0.20511,0.0787 0.31788,0.23215 0.25062,0.34098 -0.0673,0.10884 0.029,0.40477 0.21388,0.65763 0.31798,0.43486 0.3569,0.43339 0.71913,-0.0272 0.35121,-0.44655 0.34457,-0.45681 -0.0801,-0.12379 -0.41044,0.3219 -0.46302,0.29759 -0.46302,-0.21405 0,-0.31745 0.11906,-0.50359 0.26458,-0.41365 0.14552,0.0899 0.26687,0.008 0.26965,-0.18283 0.003,-0.19049 0.31093,0.36803 0.68476,1.24116 0.37383,0.87312 0.96687,2.21521 1.31785,2.98242 0.35099,0.76721 0.63816,1.45182 0.63816,1.52136 0,0.1965 -0.89165,0.14097 -1.22123,-0.0761 z m -0.59802,-1.98474 c -0.26131,-0.25936 -0.2917,-0.22897 -0.14811,0.14812 0.0994,0.26093 0.2473,0.40778 0.32876,0.32632 0.0815,-0.0815 1.7e-4,-0.29496 -0.18065,-0.47444 z"
         id="path1862" />
      <path
         style="fill:#567768"
         d="m 158.93717,188.84362 c -0.38543,-0.29018 -0.40833,-0.6788 -0.19857,-3.37071 0.1304,-1.67349 0.36826,-3.34036 0.52858,-3.70416 l 0.29149,-0.66146 -0.1472,0.66146 c -0.37254,1.67404 -0.45443,5.24167 -0.14204,6.18821 0.37341,1.13145 0.28968,1.3549 -0.33226,0.88666 z"
         id="path1861" />
    </g>
  </g>
</svg>
