<?xml version="1.0" encoding="UTF-8" standalone="no"?>
<!-- Created with Inkscape (http://www.inkscape.org/) -->

<svg
   width="64.41539mm"
   height="58.992348mm"
   viewBox="0 0 64.41539 58.992348"
   version="1.1"
   id="svg1"
   xmlns="http://www.w3.org/2000/svg"
   xmlns:svg="http://www.w3.org/2000/svg">
  <defs
     id="defs1" />
  <g
     id="layer1"
     transform="translate(-55.297918,-112.44792)">
    <g
       id="g4669"
       transform="translate(92.98541,-9.3567804)">
      <path
         style="baseline-shift:baseline;display:inline;overflow:visible;vector-effect:none;fill:#ebe6d7;enable-background:accumulate;stop-color:#000000;stop-opacity:1"
         d="m 2.9653977,160.70687 c -0.3490243,0.0501 -0.8267627,0.21624 -1.4335043,0.4992 -3.437187,1.60294 -5.9638726,5.07242 -7.071403,9.70948 -0.2872264,1.20257 -0.5702731,2.23429 -0.6289021,2.29289 -0.058629,0.0586 -0.1800658,-0.51635 -0.2702678,-1.27796 -0.2442507,-2.06231 -1.4704365,-5.67041 -2.3998535,-7.06107 -0.8892011,-1.33048 -1.908037,-1.7199 -2.532145,-0.9679 -0.580222,0.69913 -0.666223,5.02098 -0.155029,7.80262 0.246988,1.34397 0.404035,2.48884 0.348815,2.54404 -0.05522,0.0552 -0.566671,-0.51078 -1.136364,-1.25781 -1.936532,-2.53935 -4.616318,-4.27229 -8.09718,-5.23689 -2.33925,-0.64824 -3.666443,-0.70065 -3.666443,-0.14469 0,0.21557 1.547812,1.92161 3.439583,3.7915 1.891771,1.86989 3.439583,3.51946 3.439583,3.66592 0,0.14646 -1.160859,0.46658 -2.579687,0.71107 -1.418828,0.24448 -3.651251,0.62697 -4.960938,0.85008 -4.545617,0.77433 -12.7,3.14638 -12.7,3.69435 0,0.14096 0.773907,0.3158 1.719792,0.3886 1.311243,0.1009 60.915463,0.12123 62.010685,0.0212 0.884441,-0.0808 -1.491806,-1.36397 -4.662248,-2.51768 -1.246034,-0.45343 -1.257253,-0.46807 -1.288293,-1.6924 -0.05143,-2.02897 -0.303457,-2.82257 -0.897103,-2.82257 -0.446106,0 -0.552013,0.23414 -0.691431,1.53169 -0.09051,0.84237 -0.240276,1.60714 -0.332796,1.69964 -0.09252,0.0925 -0.6135,0.0565 -1.158069,-0.0801 -0.79763,-0.20002 -0.967044,-0.35028 -0.871264,-0.77359 0.06539,-0.28901 0.124891,-0.9993 0.132291,-1.5782 0.01023,-0.80413 -0.09791,-1.07425 -0.457336,-1.14515 -0.347787,-0.0686 -0.623761,0.25614 -1.058333,1.24488 -0.323327,0.73564 -0.669542,1.34059 -0.769462,1.34359 -0.09992,0.003 -0.218984,-0.37988 -0.264584,-0.85163 -0.111699,-1.15557 -0.828369,-1.27533 -1.268656,-0.21239 -0.427514,1.03212 -1.367774,1.07528 -2.267562,0.10439 -0.6259927,-0.67545 -0.6691827,-0.68392 -1.1673706,-0.23306 -0.5358261,0.48491 -1.8613851,0.39279 -1.8613851,-0.12919 0,-0.34046 -0.9796834,-0.33614 -1.190625,0.005 -0.191232,0.30946 -1.6305308,0.35861 -1.8138428,0.062 -0.1880254,-0.30423 1.9947187,-3.43999 3.517098,-5.05292 1.4653251,-1.55248 1.5482756,-1.74512 0.9074382,-2.10375 -1.6272757,-0.91067 -6.879872,2.33081 -9.56685794,5.90403 l -0.59686276,0.79375 0.1700154,-1.05833 c 0.30942251,-1.92936 2.7036857,-8.08959 3.7951172,-9.76478 1.2703793,-1.94986 1.3824529,-2.84822 0.3353801,-2.69803 z m 0.1353922,0.26045 c 0.030745,0.0125 0.032761,0.0517 0.056844,0.0703 0.1975617,0.0674 0.1696088,0.30529 0.1049031,0.57103 -0.014405,0.0648 -0.049559,0.15163 -0.073897,0.22634 -0.048579,0.10924 -0.01205,0.16312 -0.095601,0.29352 -0.1420562,0.22172 -0.3018641,0.56786 -0.4506185,0.82786 -0.09909,0.18246 -0.1107237,0.2729 -0.2356446,0.48317 -1.1892589,2.00182 -2.85114459,6.3185 -3.5615397,8.86768 -0.1056394,0.42548 -0.2643644,0.93247 -0.309025,1.25935 l -0.042892,0.31316 c -0.014316,0.19709 -0.014295,0.36467 0.038757,0.41548 0.1129337,0.10816 0.4547157,-0.15785 0.76171065,-0.58963 0.001541,-0.002 0.004137,-0.004 0.005684,-0.006 0.006541,-0.009 0.0176683,-0.0202 0.0242879,-0.0295 0.32419233,-0.45497 0.74481126,-0.94497 1.21646322,-1.44074 0.0333791,-0.0406 0.0616959,-0.0716 0.0940511,-0.11111 0.42855743,-0.52326 1.11123043,-1.10453 1.85828453,-1.67845 0.8363614,-0.68776 1.6828679,-1.30882 2.4024373,-1.68362 3.6987961,-1.92656 5.1970121,-1.52639 2.9005982,0.77463 -0.6907009,0.69209 -1.8425622,2.14957 -2.5595337,3.23857 l -0.344165,0.52244 c -0.2790936,0.44986 -0.6666822,1.01022 -0.7704956,1.26659 -0.033116,0.10212 -0.021753,0.15735 -0.028939,0.23203 l 0.7152018,0.18552 c 0.579267,0.1501 1.0418672,0.12289 1.3668416,-0.0801 0.3845525,-0.24016 0.6819747,-0.21583 1.3720093,0.11162 0.7121827,0.33795 1.0129409,0.35831 1.5668294,0.10594 0.043203,-0.0197 0.054239,-0.009 0.093018,-0.0258 0.2491093,-0.26342 0.6820367,-0.21771 0.7968501,0.0661 0.03922,0.0415 0.07987,0.0368 0.122473,0.0951 0.179935,0.24607 0.743274,0.51169 1.25212,0.59066 0.824465,0.12796 0.97449,0.0557 1.376143,-0.66714 0.08341,-0.15009 0.153235,-0.1519 0.244947,-0.27285 0.09422,-0.1438 0.182461,-0.24759 0.264066,-0.29507 0.07039,-0.0581 0.172876,-0.2434 0.218592,-0.2434 0.274835,0 0.330014,0.17289 0.381888,1.19062 0.04582,0.89891 0.649734,0.58664 1.278992,-0.66145 0.330155,-0.65485 0.719543,-1.1311 0.865064,-1.05834 0.0036,0.002 0.0057,0.0232 0.0093,0.0258 0.273142,-0.13648 0.43283,0.10555 0.30024,0.83354 -0.01927,0.10579 -0.04918,0.20643 -0.07338,0.32453 0.0075,0.1373 0.02842,0.24411 0.02842,0.39067 0,1.39463 0.02791,1.45071 0.84491,1.68776 1.298471,0.37676 1.604876,0.11808 1.810742,-1.52963 0.101366,-0.8113 0.283414,-1.53636 0.404626,-1.61127 0.139623,-0.0863 0.266645,0.0337 0.382923,0.23151 0.02194,0.0142 0.04479,0.004 0.06614,0.0253 0.0069,0.007 0.01009,0.12507 0.01705,0.14005 0.181768,0.43674 0.310058,1.16078 0.310058,2.06137 v 0.56224 c 0.04004,0.39302 0.06923,0.94684 0.114205,1.03301 l 1.671733,0.57981 c 0.982265,0.34053 2.262188,0.85849 2.844271,1.15084 1.050543,0.52763 1.053268,0.53258 0.37052,0.71882 -0.795362,0.21696 -58.379457,0.1953 -60.563229,-0.0227 l -1.455208,-0.14521 0.981852,-0.44959 c 0.540146,-0.24712 2.504677,-0.86857 4.365625,-1.38131 3.304632,-0.91052 4.546472,-1.16721 11.05669,-2.28461 1.74625,-0.29973 3.282696,-0.64659 3.414778,-0.7705 0.07486,-0.0702 -0.0033,-0.2731 -0.165881,-0.54467 -0.07063,-0.13165 -0.240986,-0.33186 -0.370003,-0.50178 -0.170485,-0.22795 -0.303505,-0.42696 -0.550354,-0.71262 -4.36e-4,-4.7e-4 -0.0011,-0.002 -0.0016,-0.002 -0.0058,-0.007 -0.01845,-0.0176 -0.02429,-0.0243 -0.817007,-0.94279 -2.007137,-2.15603 -3.385323,-3.41736 -1.217215,-1.11401 -1.789465,-1.78283 -2.003495,-2.23759 -0.09327,-0.0968 -0.221175,-0.22652 -0.221175,-0.23513 0,-0.0298 0.04602,-0.0395 0.05839,-0.0641 -0.0084,-0.44169 0.824418,-0.40088 2.628264,0.0605 0.684058,0.17495 1.338017,0.43991 1.994193,0.69505 0.03614,0.0131 0.06827,0.0234 0.104387,0.0367 0.439014,0.17383 0.864286,0.35566 1.285709,0.56224 0.301637,0.13581 0.633555,0.25194 0.908472,0.39739 0.175033,0.0926 0.393499,0.30248 0.580843,0.41961 0.630421,0.38788 1.205107,0.82073 1.7663,1.2759 0.123339,0.10475 0.228813,0.16968 0.350883,0.27853 0.87686,0.75268 1.675529,1.55758 2.312521,2.4443 0.37247,0.4899 0.742982,0.8185 0.835608,0.73949 0.09034,-0.10464 -0.01605,-1.06381 -0.241846,-2.15698 -0.454011,-2.19801 -0.554489,-6.90907 -0.168982,-7.92303 0.518156,-1.36285 1.4427159,-0.96801 2.3755662,0.48473 0.012863,0.0201 0.0173,0.019 0.030489,0.0398 0.2997399,0.47254 0.5935053,1.11398 0.8779825,1.81487 0.1702198,0.40592 0.3219281,0.80512 0.4800741,1.27383 0.028929,0.0874 0.046665,0.17944 0.074931,0.2682 0.2942871,0.90644 0.5922204,1.82065 0.8108032,2.90473 0.3271535,1.62254 0.6586138,2.77161 0.7363892,2.55333 0.077775,-0.21828 0.3892902,-1.50905 0.6924642,-2.86856 0.6289249,-2.82026 1.6474155,-4.90718 3.3367472,-6.83834 0.1519807,-0.17373 0.3722454,-0.31261 0.5431193,-0.48369 0.3776492,-0.3864 0.77369773,-0.7394 1.18907472,-1.05937 0.97676988,-0.76747 1.96926708,-1.41242 2.69492598,-1.59163 0.2925603,-0.0723 0.5109789,-0.0814 0.6557739,-0.0227 z"
         id="path4658" />
      <path
         style="baseline-shift:baseline;display:inline;overflow:visible;vector-effect:none;fill:#e4daca;enable-background:accumulate;stop-color:#000000;stop-opacity:1"
         d="m 12.998894,174.89933 c -0.09171,0.12095 -0.161541,0.12276 -0.244947,0.27285 -0.401653,0.7228 -0.551678,0.7951 -1.376143,0.66714 -0.508846,-0.079 -1.072185,-0.34459 -1.25212,-0.59066 -0.0426,-0.0583 -0.08325,-0.0536 -0.122473,-0.0951 0.01658,0.041 0.05116,0.0698 0.05116,0.1204 0,0.38372 1.615347,0.97114 2.091345,0.78497 0.0281,-0.0132 0.05961,-0.0172 0.08682,-0.0326 0.129369,-0.0937 0.401265,-0.48811 0.624252,-0.91932 0.05065,-0.0979 0.0943,-0.13478 0.14211,-0.20774 z"
         id="path4610" />
      <path
         style="baseline-shift:baseline;display:inline;overflow:visible;vector-effect:none;fill:#e4daca;enable-background:accumulate;stop-color:#000000;stop-opacity:1"
         d="m -17.256107,174.85743 c 0.162573,0.27157 0.240741,0.47444 0.165881,0.54467 -0.132082,0.12391 -1.668528,0.47077 -3.414778,0.7705 -6.510218,1.1174 -7.752058,1.37409 -11.05669,2.28461 -1.860948,0.51274 -3.825479,1.13419 -4.365625,1.38131 l -0.981852,0.44959 1.455208,0.14521 c 2.183772,0.21804 59.767867,0.2397 60.563229,0.0227 0.682748,-0.18624 0.680023,-0.19119 -0.37052,-0.71882 -0.582083,-0.29235 -1.862006,-0.81031 -2.844271,-1.15084 l -1.671733,-0.57981 c 0.0015,0.003 0.0021,0.0322 0.0036,0.0346 0.08478,0.13718 0.598889,0.39156 1.142565,0.56534 1.724446,0.5512 3.502112,1.36688 3.502112,1.60713 0,0.32573 -60.513805,0.3046 -60.715157,-0.0212 -0.1504,-0.24336 1.991868,-0.96521 6.210991,-2.09238 1.910861,-0.5105 8.100447,-1.67497 11.109399,-2.09032 1.227873,-0.16949 1.669738,-0.40288 1.267623,-1.15238 z"
         id="path4609" />
      <path
         style="baseline-shift:baseline;display:inline;overflow:visible;vector-effect:none;fill:#e4daca;enable-background:accumulate;stop-color:#000000;stop-opacity:1"
         d="m 6.7460454,174.73857 c -0.2086789,-0.017 -0.379265,0.037 -0.5715413,0.1571 -0.3249744,0.20299 -0.7875746,0.2302 -1.3668416,0.0801 l -0.7152018,-0.18552 c -0.00546,0.0567 -0.035799,0.1396 -0.022221,0.17622 0.03753,0.0533 0.086936,0.10231 0.2134237,0.12557 0.026995,0.01 0.1722529,0.0139 0.2139404,0.0238 0.2531483,0.0147 0.5621942,0.0129 1.0583333,-0.032 0.8730684,-0.0792 1.6544062,-0.0362 1.7358114,0.0956 0.2005497,0.32449 1.632614,0.3047 1.8365804,-0.0253 0.0195,-0.0316 0.053816,-0.0411 0.078031,-0.0667 -0.038778,0.0164 -0.049815,0.006 -0.093018,0.0258 -0.5538885,0.25237 -0.8546467,0.23201 -1.5668294,-0.10594 -0.3450173,-0.16372 -0.591789,-0.25172 -0.800468,-0.26872 z"
         id="path4608" />
      <path
         style="baseline-shift:baseline;display:inline;overflow:visible;vector-effect:none;fill:#e4daca;enable-background:accumulate;stop-color:#000000;stop-opacity:1"
         d="m 19.798479,174.35018 c 0.08619,0.18555 0.180487,0.86541 0.211873,1.73426 0.01541,0.42674 0.06371,0.55099 0.09818,0.88935 v -0.56224 c 0,-0.90059 -0.12829,-1.62463 -0.310058,-2.06137 z"
         id="path4606" />
      <path
         style="baseline-shift:baseline;display:inline;overflow:visible;vector-effect:none;fill:#e4daca;enable-background:accumulate;stop-color:#000000;stop-opacity:1"
         d="m 19.332357,173.9533 c -0.121212,0.0749 -0.30326,0.79997 -0.404626,1.61127 -0.205866,1.64771 -0.512271,1.90639 -1.810742,1.52963 -0.817001,-0.23705 -0.84491,-0.29313 -0.84491,-1.68776 0,-0.14656 -0.02088,-0.25337 -0.02842,-0.39067 -0.08397,0.40989 -0.182268,0.87386 -0.255798,1.12603 -0.138151,0.47378 -0.03303,0.64349 0.530717,0.85783 0.831037,0.31596 1.283052,0.45542 1.588533,0.4315 0.03627,-0.009 0.08096,-0.006 0.114722,-0.0202 0.1031,-0.0266 0.192393,-0.0714 0.261999,-0.15451 0.0265,-0.0248 0.04452,-0.0747 0.06925,-0.10387 0.07019,-0.11396 0.133863,-0.24174 0.199471,-0.42995 0.163668,-0.4695 0.297656,-1.18589 0.297656,-1.59215 0,-0.68221 0.354565,-1.14713 0.665076,-0.94568 -0.116278,-0.19776 -0.2433,-0.3178 -0.382923,-0.23151 z"
         id="path4605" />
      <path
         style="baseline-shift:baseline;display:inline;overflow:visible;vector-effect:none;fill:#e4daca;enable-background:accumulate;stop-color:#000000;stop-opacity:1"
         d="m 16.007496,173.83186 c -0.145521,-0.0728 -0.534909,0.40349 -0.865064,1.05834 -0.629258,1.24809 -1.233172,1.56036 -1.278992,0.66145 -0.05187,-1.01773 -0.107053,-1.19062 -0.381888,-1.19062 -0.04572,0 -0.148201,0.18526 -0.218592,0.2434 0.257478,-0.14983 0.452755,0.13718 0.541053,0.92655 0.138514,1.23831 0.671321,1.09015 1.295011,-0.35966 0.321415,-0.74715 0.666986,-1.18831 0.917773,-1.31362 -0.0036,-0.003 -0.0057,-0.024 -0.0093,-0.0258 z"
         id="path4604" />
      <path
         style="baseline-shift:baseline;display:inline;overflow:visible;vector-effect:none;fill:#e4daca;enable-background:accumulate;stop-color:#000000;stop-opacity:1"
         d="m -0.70621285,173.70577 c -0.30699495,0.43178 -0.64877695,0.69779 -0.76171065,0.58963 -0.053052,-0.0508 -0.053073,-0.21839 -0.038757,-0.41548 l -0.064079,0.46819 c 0.044857,0.0859 0.1075209,0.13221 0.1896525,0.13436 l 0.3694865,-0.41496 c 0.062743,-0.0704 0.21861811,-0.26139 0.30540765,-0.36174 z"
         id="path4603" />
      <path
         style="baseline-shift:baseline;display:inline;overflow:visible;vector-effect:none;fill:#e4daca;enable-background:accumulate;stop-color:#000000;stop-opacity:1"
         d="m -18.176464,173.64327 c 0.246849,0.28566 0.379869,0.48467 0.550354,0.71262 -0.171445,-0.22579 -0.270842,-0.40675 -0.550354,-0.71262 z"
         id="path4602" />
      <path
         style="baseline-shift:baseline;display:inline;overflow:visible;vector-effect:none;fill:#e4daca;enable-background:accumulate;stop-color:#000000;stop-opacity:1"
         d="m 0.5402227,172.22941 c -0.47165196,0.49577 -0.89227089,0.98577 -1.21646322,1.44074 0.35351713,-0.40954 0.78408592,-0.91504 1.21646322,-1.44074 z"
         id="path4600" />
      <path
         style="baseline-shift:baseline;display:inline;overflow:visible;vector-effect:none;fill:#e4daca;enable-background:accumulate;stop-color:#000000;stop-opacity:1"
         d="m -14.134851,171.38865 c 0.86462,0.77096 1.694866,1.62964 2.302186,2.43499 0.0046,0.006 0.0057,0.003 0.01034,0.009 -0.636992,-0.88672 -1.435661,-1.69162 -2.312521,-2.4443 z"
         id="path4597" />
      <path
         style="baseline-shift:baseline;display:inline;overflow:visible;vector-effect:none;fill:#e4daca;enable-background:accumulate;stop-color:#000000;stop-opacity:1"
         d="m -16.252034,169.83421 c 0.56968,0.35619 1.158683,0.75982 1.7663,1.2759 -0.561193,-0.45517 -1.135879,-0.88802 -1.7663,-1.2759 z"
         id="path4590" />
      <path
         style="baseline-shift:baseline;display:inline;overflow:visible;vector-effect:none;fill:#e4daca;enable-background:accumulate;stop-color:#000000;stop-opacity:1"
         d="m -19.027058,168.45514 c 0.450332,0.16563 0.858839,0.37004 1.285709,0.56224 -0.421423,-0.20658 -0.846695,-0.38841 -1.285709,-0.56224 z"
         id="path4580" />
      <path
         style="baseline-shift:baseline;display:inline;overflow:visible;vector-effect:none;fill:#e4daca;enable-background:accumulate;stop-color:#000000;stop-opacity:1"
         d="m -23.591121,167.96215 c 0.21403,0.45476 0.78628,1.12358 2.003495,2.23759 1.378186,1.26133 2.568316,2.47457 3.385323,3.41736 -0.527464,-0.57578 -1.2132,-1.27473 -2.147672,-2.20348 -1.398437,-1.38988 -1.997404,-2.08049 -2.542481,-2.70733 -0.113615,-0.1182 -0.249428,-0.25438 -0.331245,-0.35244 -0.05254,-0.0654 -0.212252,-0.23068 -0.36742,-0.3917 z"
         id="path4579" />
      <path
         style="baseline-shift:baseline;display:inline;overflow:visible;vector-effect:none;fill:#e4daca;enable-background:accumulate;stop-color:#000000;stop-opacity:1"
         d="m 8.5934779,167.55855 c -0.5498519,-0.14685 -1.8490842,0.23458 -3.6984823,1.19786 -0.7195694,0.3748 -1.5660759,0.99586 -2.4024373,1.68362 1.4811993,-1.13792 3.3112943,-2.22195 4.5862834,-2.5926 1.324801,-0.38514 1.8019836,-0.31216 1.6427938,0.19016 0.00443,0.0311 -0.036275,0.0872 -0.043408,0.12455 -0.042947,0.0908 -0.036596,0.14867 -0.1147217,0.26406 -0.099907,0.16531 -0.2758929,0.37438 -0.5012614,0.61082 -0.139508,0.16601 -0.2139632,0.28375 -0.3953247,0.48162 -0.9691226,1.05733 -2.0276713,2.56881 -2.7750244,3.77341 l 0.344165,-0.52244 c 0.7169715,-1.089 1.8688328,-2.54648 2.5595337,-3.23857 1.1482073,-1.15051 1.347736,-1.82564 0.7978839,-1.97249 z"
         id="path4577" />
      <path
         style="baseline-shift:baseline;display:inline;overflow:visible;vector-effect:none;fill:#e4daca;enable-background:accumulate;stop-color:#000000;stop-opacity:1"
         d="m -23.083142,167.34255 c -0.488144,-0.0322 -0.675178,0.0894 -0.67076,0.32039 0.226045,-0.44857 2.423626,-0.0404 4.622457,0.75551 -0.656176,-0.25514 -1.310135,-0.5201 -1.994193,-0.69505 -0.860555,-0.22009 -1.512174,-0.35148 -1.957504,-0.38085 z"
         id="path4576" />
      <path
         style="baseline-shift:baseline;display:inline;overflow:visible;vector-effect:none;fill:#e4daca;enable-background:accumulate;stop-color:#000000;stop-opacity:1"
         d="m -8.1135127,166.83198 c 0.1648108,0.40606 0.3293413,0.8185 0.4800741,1.27383 -0.158146,-0.46871 -0.3098543,-0.86791 -0.4800741,-1.27383 z"
         id="path4573" />
      <path
         style="baseline-shift:baseline;display:inline;overflow:visible;vector-effect:none;fill:#e4daca;enable-background:accumulate;stop-color:#000000;stop-opacity:1"
         d="m -1.4389847,163.64106 c -0.1708739,0.17108 -0.3911386,0.30996 -0.5431193,0.48369 -1.6893317,1.93116 -2.7078223,4.01808 -3.3367472,6.83834 -0.303174,1.35951 -0.6146892,2.65028 -0.6924642,2.86856 -0.077775,0.21828 -0.4092357,-0.93079 -0.7363892,-2.55333 -0.2185828,-1.08408 -0.5165161,-1.99829 -0.8108032,-2.90473 0.3909245,1.22758 0.7287913,2.5702 0.9270752,3.85919 0.1993639,1.29602 0.3274489,1.92223 0.4619873,2.00608 0.069891,-0.007 0.177569,-0.24086 0.2992066,-0.59376 0.088663,-0.36485 0.1878905,-0.85353 0.3152262,-1.53376 0.6548187,-3.498 2.1155763,-6.42346 4.1160278,-8.47028 z"
         id="path4563" />
      <path
         style="baseline-shift:baseline;display:inline;overflow:visible;vector-effect:none;fill:#e4daca;enable-background:accumulate;stop-color:#000000;stop-opacity:1"
         d="m -10.415181,163.64054 c -0.391802,-0.0639 -0.733994,0.19836 -0.982369,0.85163 -0.385507,1.01396 -0.285029,5.72502 0.168982,7.92303 0.225795,1.09317 0.332185,2.05234 0.241846,2.15698 9.12e-4,-7.8e-4 0.0074,0.008 0.0083,0.007 0.08903,-0.089 -0.02377,-1.14037 -0.250631,-2.33629 -0.416131,-2.19366 -0.514488,-6.45029 -0.17725,-7.6724 0.127586,-0.46236 0.396743,-0.68648 0.894519,-0.74466 0.5884353,-0.0687 0.8386386,0.13167 1.4898317,1.15084 -0.4856939,-0.75638 -0.9676272,-1.26692 -1.3931967,-1.33636 z"
         id="path4562" />
      <path
         style="baseline-shift:baseline;display:inline;overflow:visible;vector-effect:none;fill:#e4daca;enable-background:accumulate;stop-color:#000000;stop-opacity:1"
         d="m 2.64242,162.95635 c -1.4827688,2.59166 -3.13596973,6.68769 -3.7971843,9.35085 0.71039511,-2.54918 2.3722808,-6.86586 3.5615397,-8.86768 0.1249209,-0.21027 0.1365541,-0.30071 0.2356446,-0.48317 z"
         id="path4561" />
      <path
         style="baseline-shift:baseline;display:inline;overflow:visible;vector-effect:none;fill:#e4daca;enable-background:accumulate;stop-color:#000000;stop-opacity:1"
         d="m 3.2625371,161.60895 c -0.017321,0.0711 -0.036428,0.14208 -0.073897,0.22634 0.024338,-0.0747 0.059492,-0.16158 0.073897,-0.22634 z"
         id="path4560" />
      <path
         style="baseline-shift:baseline;display:inline;overflow:visible;vector-effect:none;fill:#e4daca;enable-background:accumulate;stop-color:#000000;stop-opacity:1"
         d="m 3.1007899,160.96765 c -0.144795,-0.0586 -0.3632136,-0.0495 -0.6557739,0.0227 -0.7256589,0.17921 -1.71815607,0.82416 -2.69492595,1.59163 0.70170122,-0.54051 1.44378845,-1.00493 2.24069005,-1.3379 0.3243942,-0.13554 0.5973856,-0.21354 0.8139039,-0.23771 0.1471033,-0.0164 0.2595523,-3.4e-4 0.35295,0.0315 -0.024083,-0.0186 -0.026099,-0.0578 -0.056844,-0.0703 z"
         id="path4558" />
      <path
         style="baseline-shift:baseline;display:inline;overflow:visible;vector-effect:none;fill:#d8d8c7;enable-background:accumulate;stop-color:#000000;stop-opacity:1"
         d="m 18.48383,177.25617 c -0.06961,0.0832 -0.158899,0.12787 -0.261999,0.15451 0.09117,-0.037 0.187033,-0.0842 0.261999,-0.15451 z"
         id="path4274" />
      <path
         style="baseline-shift:baseline;display:inline;overflow:visible;vector-effect:none;fill:#d8d8c7;enable-background:accumulate;stop-color:#000000;stop-opacity:1"
         d="m 4.0702398,174.96639 c 0.00776,0.0209 -0.026482,0.0867 -0.012402,0.10077 0.010477,0.0105 0.1973351,0.0143 0.2258261,0.0248 -0.1264873,-0.0233 -0.1758937,-0.0723 -0.2134241,-0.12557 z"
         id="path4273" />
      <path
         style="baseline-shift:baseline;display:inline;overflow:visible;vector-effect:none;fill:#d8d8c7;enable-background:accumulate;stop-color:#000000;stop-opacity:1"
         d="m 9.6848842,174.89979 c -0.2003745,-0.0259 -0.4320114,0.0527 -0.5565552,0.25424 -0.2039664,0.33002 -1.6360307,0.34981 -1.8365804,0.0253 -0.081405,-0.1318 -0.862743,-0.1748 -1.7358114,-0.0956 -0.4961391,0.045 -0.805185,0.0468 -1.0583333,0.032 0.3395341,0.0805 0.8650088,0.16786 1.7425293,0.19327 1.0989714,0.0318 2.0652454,0.1248 2.1471557,0.20671 0.08191,0.0819 0.374581,0.0279 0.6506063,-0.11989 0.3855962,-0.20637 0.6617781,-0.14292 1.1916588,0.27388 0.692575,0.54479 1.376764,0.64351 1.916162,0.38913 -0.475998,0.18617 -2.091345,-0.40125 -2.091345,-0.78497 0,-0.21763 -0.1691124,-0.34819 -0.3694868,-0.37413 z"
         id="path4271" />
      <path
         style="baseline-shift:baseline;display:inline;overflow:visible;vector-effect:none;fill:#d8d8c7;enable-background:accumulate;stop-color:#000000;stop-opacity:1"
         d="m 16.055038,173.82183 c -0.252359,0.0995 -0.620274,0.56883 -0.956014,1.34928 -0.62369,1.44981 -1.156497,1.59797 -1.295011,0.35966 -0.130482,-1.1665 -0.481803,-1.32377 -0.947229,-0.42374 -0.222987,0.43121 -0.494883,0.82566 -0.624252,0.91932 0.237814,-0.13436 0.451719,-0.32183 0.604098,-0.6165 0.166615,-0.3222 0.318548,-0.4738 0.457336,-0.54932 l 0.05581,-0.10335 0.01034,0.0775 c 0.231929,-0.0629 0.398425,0.20263 0.398425,0.86403 0,1.28371 0.890322,1.02887 1.440739,-0.41238 0.250087,-0.65484 0.564147,-1.19062 0.697632,-1.19062 0.321099,0 0.309483,1.1129 -0.02067,1.98127 -0.241985,0.63647 -0.188756,0.7236 0.65319,1.07539 0.731515,0.30565 1.20349,0.37503 1.577681,0.27854 -0.305481,0.0239 -0.757496,-0.11554 -1.588533,-0.4315 -0.563748,-0.21434 -0.668868,-0.38405 -0.530717,-0.85783 0.09472,-0.32483 0.243038,-0.97762 0.329178,-1.45056 0.127164,-0.6982 -0.0096,-0.96865 -0.261999,-0.8692 z"
         id="path4268" />
      <path
         style="baseline-shift:baseline;display:inline;overflow:visible;vector-effect:none;fill:#d8d8c7;enable-background:accumulate;stop-color:#000000;stop-opacity:1"
         d="m 8.0622442,169.0366 c -0.102783,0.10783 -0.1574416,0.18814 -0.2862875,0.31109 -0.5724885,0.5463 -1.1574656,1.24802 -1.7135904,1.97197 -0.4989883,0.6808 -0.9277223,1.31626 -1.3229167,1.94665 -0.3114338,0.5278 -0.5086705,0.95465 -0.6180501,1.29191 0.3818037,-0.9429 2.2144857,-3.58782 3.54552,-5.04 0.1813615,-0.19787 0.2558167,-0.31561 0.3953247,-0.48162 z"
         id="path4263" />
      <path
         style="baseline-shift:baseline;display:inline;overflow:visible;vector-effect:none;fill:#d8d8c7;enable-background:accumulate;stop-color:#000000;stop-opacity:1"
         d="m -22.892456,168.70586 c 0.545077,0.62684 1.144044,1.31745 2.542481,2.70733 3.961627,3.93738 4.098918,4.28289 1.826245,4.59661 -3.008952,0.41535 -9.198538,1.57982 -11.109399,2.09032 -4.219123,1.12717 -6.361391,1.84902 -6.210991,2.09238 0.201352,0.32578 60.715157,0.34691 60.715157,0.0212 0,-0.24025 -1.777666,-1.05593 -3.502112,-1.60713 -0.543676,-0.17378 -1.057785,-0.42816 -1.142565,-0.56534 -0.08478,-0.13717 -0.182088,-1.01797 -0.216008,-1.95699 -0.03392,-0.93901 -0.136997,-1.78241 -0.228927,-1.87431 -0.323474,-0.32348 -0.731221,0.18993 -0.731221,0.92036 0,0.40626 -0.133988,1.12265 -0.297656,1.59215 -0.06561,0.18821 -0.129284,0.31599 -0.199471,0.42995 0.280229,-0.33068 0.474501,-0.876 0.630969,-1.83451 0.258922,-1.58614 0.790932,-0.75104 0.746724,1.17202 -0.04099,1.78322 -0.09605,1.7239 2.413807,2.60604 1.934227,0.67983 2.400052,1.0732 1.322399,1.11673 -2.621516,0.10588 -55.886949,0.0766 -57.401147,-0.0315 l -1.852083,-0.1323 1.322916,-0.44906 c 2.623615,-0.89106 6.435804,-1.79214 10.980209,-2.59468 6.133758,-1.08321 6.424861,-1.15011 6.542236,-1.50223 0.141734,-0.4252 -2.636679,-3.57854 -5.06119,-5.74435 -0.492329,-0.4398 -0.80138,-0.75199 -1.090373,-1.05265 z"
         id="path4261" />
      <path
         style="baseline-shift:baseline;display:inline;overflow:visible;vector-effect:none;fill:#d8d8c7;enable-background:accumulate;stop-color:#000000;stop-opacity:1"
         d="m 8.6782273,168.16172 c -0.014299,0.0749 -0.053976,0.16355 -0.1147217,0.26406 0.078126,-0.11539 0.071775,-0.17328 0.1147217,-0.26406 z"
         id="path4259" />
      <path
         style="baseline-shift:baseline;display:inline;overflow:visible;vector-effect:none;fill:#d8d8c7;enable-background:accumulate;stop-color:#000000;stop-opacity:1"
         d="m 8.3206263,167.58087 c -0.2901289,0.0189 -0.7032651,0.10958 -1.2417846,0.26614 -1.9180395,0.55759 -5.1663011,2.7103 -6.4445679,4.27105 -0.56705056,0.69237 -1.30778371,1.56971 -1.6458944,1.94924 l -0.3694865,0.41496 c 0.2373302,0.006 0.60929923,-0.31053 1.07900395,-0.99322 1.78244155,-2.59069 5.52264865,-5.2496 7.92509765,-5.63377 0.7034118,-0.11248 1.0649405,-0.0541 1.098641,0.1819 0.094481,-0.29813 0.022602,-0.48389 -0.4010092,-0.4563 z"
         id="path4258" />
      <path
         style="baseline-shift:baseline;display:inline;overflow:visible;vector-effect:none;fill:#d8d8c7;enable-background:accumulate;stop-color:#000000;stop-opacity:1"
         d="m -10.511816,163.82602 c -0.497776,0.0582 -0.766933,0.2823 -0.894519,0.74466 -0.337238,1.22211 -0.238881,5.47874 0.17725,7.6724 0.226863,1.19592 0.339661,2.24729 0.250631,2.33629 -0.08903,0.089 -0.473478,-0.25114 -0.854211,-0.75603 -1.254387,-1.66342 -3.419662,-3.57282 -5.000212,-4.40903 -2.697205,-1.427 -6.979419,-2.46252 -6.979419,-1.68775 0,0.0229 0.504479,0.52213 0.588595,0.62683 -0.766137,-0.9182 -0.178037,-0.99671 1.938899,-0.49764 2.207017,0.52031 4.122591,1.45796 5.90765,2.78691 0.02791,0.0206 0.05896,0.0351 0.08682,0.0558 0.3336,0.23987 0.699821,0.53332 0.997872,0.7984 0.0069,0.006 0.01381,0.0151 0.02067,0.0212 0.886252,0.77854 1.752002,1.63985 2.591573,2.67322 0.872378,1.07375 1.107132,0.57505 0.667659,-1.41852 -0.497888,-2.25856 -0.732951,-6.21519 -0.446484,-7.51582 0.830604,-3.77114 3.6825751,0.45646 4.686019,6.94635 0.1688866,1.09229 0.4310941,2.02747 0.5823934,2.07791 0.00462,0.002 0.016207,-0.0419 0.021187,-0.0424 -0.1345384,-0.0838 -0.2626234,-0.71006 -0.4619873,-2.00608 -0.4162673,-2.70605 -1.3924137,-5.69057 -2.3600626,-7.21609 -0.6808586,-1.07339 -0.9202617,-1.26073 -1.5203205,-1.19063 z"
         id="path4255" />
      <path
         style="baseline-shift:baseline;display:inline;overflow:visible;vector-effect:none;fill:#d8d8c7;enable-background:accumulate;stop-color:#000000;stop-opacity:1"
         d="m 2.804684,161.00604 c -0.2165183,0.0242 -0.4895097,0.10217 -0.8139039,0.23771 -3.7674501,1.57414 -6.5585267,5.59363 -7.5457926,10.86755 -0.1273357,0.68023 -0.2265628,1.16891 -0.3152262,1.53376 0.1626906,-0.472 0.3458858,-1.13372 0.5260661,-1.99057 0.7237819,-3.44198 1.8459975,-5.68323 3.8891682,-7.76904 1.60756175,-1.64111 3.4081289,-2.75576 4.2080119,-2.74298 0.022806,3.6e-4 0.032073,0.0154 0.053227,0.0176 0.027069,-0.003 0.076859,-0.0289 0.1012858,-0.0289 0.1859852,0 0.2509021,0.13074 0.2351277,0.33228 0.0065,0.0342 0.032556,0.0494 0.032556,0.0899 0,0.2322 -0.2234836,0.73821 -0.4960938,1.12448 -1.3438306,1.9041 -4.1046853,8.93136 -4.3191162,10.99313 -0.03505,0.337 -3.519e-4,0.54365 0.069246,0.67696 l 0.1069703,-0.78135 c 0.3522429,-2.57819 2.7725417,-8.65321 4.5568278,-11.43806 0.5025479,-0.78436 0.3612003,-1.19492 -0.2883545,-1.12241 z"
         id="path4254" />
      <path
         style="baseline-shift:baseline;display:inline;overflow:visible;vector-effect:none;fill:#cfc5b0;enable-background:accumulate;stop-color:#000000;stop-opacity:1"
         d="m 4.7394496,173.26631 c -0.193879,0.30927 -0.5037173,0.68952 -0.649056,0.95498 -0.2614501,0.55325 -0.4093042,0.99785 -0.2707845,1.13637 0.1025454,0.10255 1.4568684,0.18824 3.0101522,0.19017 2.3331692,0.003 2.9053779,0.0836 3.2892047,0.46612 0.263873,0.26297 0.861283,0.46302 1.383378,0.46302 0.765558,0 0.997063,-0.14377 1.383378,-0.8599 l 0.408244,-0.75654 c -0.138788,0.0755 -0.290721,0.22712 -0.457336,0.54932 -0.504487,0.97557 -1.563095,1.08113 -2.607076,0.25993 -0.5298807,-0.4168 -0.8060626,-0.48025 -1.1916588,-0.27388 -0.2760253,0.14776 -0.5686963,0.20179 -0.6506063,0.11989 -0.08191,-0.0819 -1.0481843,-0.17491 -2.1471557,-0.20671 C 5.1411618,175.27726 4.159097,175.1685 4.0578374,175.06724 3.879601,174.889 4.22116,174.14467 4.7394496,173.26631 Z"
         id="path4170" />
      <path
         style="baseline-shift:baseline;display:inline;overflow:visible;vector-effect:none;fill:#cfc5b0;enable-background:accumulate;stop-color:#000000;stop-opacity:1"
         d="m -22.947749,167.54897 c -1.141382,-0.0847 -0.728082,0.53587 1.145666,2.20969 2.424511,2.16581 5.202924,5.31915 5.06119,5.74435 -0.117375,0.35212 -0.408478,0.41902 -6.542236,1.50223 -4.544405,0.80254 -8.356594,1.70362 -10.980209,2.59468 l -1.322916,0.44906 1.852083,0.1323 c 1.514198,0.1081 54.779631,0.1374 57.401147,0.0315 1.077653,-0.0435 0.611828,-0.4369 -1.322399,-1.11673 -2.509858,-0.88214 -2.454797,-0.82282 -2.413807,-2.60604 0.04421,-1.92306 -0.487802,-2.75816 -0.746724,-1.17202 -0.373037,2.28521 -0.826167,2.59848 -2.654618,1.83451 -0.841946,-0.35179 -0.895175,-0.43892 -0.65319,-1.07539 0.330153,-0.86837 0.341769,-1.98127 0.02067,-1.98127 -0.133485,0 -0.447545,0.53578 -0.697632,1.19062 -0.550417,1.44125 -1.440739,1.69609 -1.440739,0.41238 0,-0.6614 -0.166496,-0.92697 -0.398425,-0.86403 l 0.127641,0.98082 c 0.10813,0.82784 0.262311,1.07603 0.70745,1.13947 0.47299,0.0674 0.644034,-0.14479 1.013375,-1.25677 0.03334,-0.10039 0.05889,-0.0882 0.09405,-0.18242 0.181798,-0.56568 0.410007,-1.08032 0.575676,-1.11983 0.0038,-8.4e-4 0.01453,-0.0357 0.01809,-0.0357 0.0017,0 0.0019,0.002 0.0036,0.002 2.51e-4,0 7.83e-4,-0.002 0.001,-0.002 0.0089,0 0.01072,0.008 0.01912,0.009 0.07226,0.004 0.128806,0.0233 0.160714,0.0703 0.02447,0.0353 0.0231,0.10387 0.02687,0.16536 2.6e-4,0.0251 0.01233,0.0327 0.0093,0.0631 -0.0052,0.0909 -0.08839,0.29575 -0.127124,0.43356 -0.06085,0.2371 -0.09748,0.42246 -0.252181,0.86093 -0.47373,1.3427 -0.374102,1.4531 1.546159,1.71721 1.070615,0.14724 1.436158,0.10223 1.657779,-0.55759 0.07993,-0.36687 0.17463,-0.81252 0.251665,-1.23765 0.03908,-0.21568 0.08865,-0.33149 0.136425,-0.46147 0.02044,-0.0598 0.03603,-0.15094 0.05788,-0.19534 0.07246,-0.13852 0.147346,-0.1919 0.215491,-0.15813 4.09e-4,2.1e-4 6.25e-4,0.002 0.001,0.002 0.0087,0.003 0.0166,-0.0235 0.02532,-0.0181 0.02119,0.0131 0.02068,0.11165 0.03772,0.14263 0.09856,0.152 0.176733,0.45902 0.176733,1.01079 0,0.70506 -0.071,1.17531 -0.209806,1.4733 -0.08596,0.4534 -0.189198,0.82632 -0.31626,0.86868 -0.196545,0.0655 -0.143039,0.27381 0.153996,0.60203 0.533612,0.58963 0.901237,0.64716 0.901237,0.14108 0,-0.29935 0.203611,-0.29388 1.199926,0.0341 0.660112,0.21731 1.162245,0.43353 1.115695,0.48008 -0.121003,0.121 -11.547424,0.18856 -19.7119755,0.11678 -6.6208237,-0.0582 -6.9453125,-0.0845 -6.9453125,-0.56275 0,-0.66369 -0.4305242,-0.64422 -0.6061646,0.0274 -0.1237756,0.47332 -0.3605262,0.52916 -2.2463745,0.52916 -1.1596001,0 -2.4507032,0.0385 -2.8690755,0.0853 -0.4183724,0.0468 -2.0012534,0.0426 -3.5170984,-0.01 -2.122885,-0.0731 -2.82571,-0.19081 -3.060278,-0.5116 -0.276608,-0.37828 -0.343572,-0.37705 -0.730705,0.0103 -0.629001,0.629 -1.078652,0.53629 -0.897619,-0.185 0.12828,-0.5111 0.0086,-0.66347 -0.733289,-0.93173 l -0.886767,-0.32091 0.704349,-0.75447 c 0.387563,-0.41489 1.087739,-0.83818 1.555978,-0.94103 0.468238,-0.10284 0.851627,-0.34533 0.851627,-0.53899 0,-0.11729 -0.12783,-0.34144 -0.269234,-0.57619 -0.03323,-0.0487 -0.07523,-0.0931 -0.107487,-0.14263 -0.25989,-0.39932 -0.822715,-1.07282 -1.494482,-1.81849 -0.767572,-0.84844 -1.626616,-1.76604 -2.756421,-2.83445 -1.024846,-0.96916 -1.610967,-1.61009 -1.969906,-2.07481 -0.250509,-0.31297 -0.393898,-0.53779 -0.359151,-0.6134 0.0021,-0.003 -0.01755,-0.0233 -0.01499,-0.0258 7.66e-4,-7.7e-4 0.0059,2.4e-4 0.0067,-5.2e-4 6.39e-4,-7.2e-4 -0.0022,-0.004 -0.0016,-0.005 0.152566,-0.15257 0.869636,-0.0432 1.732194,0.16019 0.229922,0.0521 0.414242,0.0838 0.666626,0.15245 0.944743,0.26724 1.969861,0.65156 2.912484,1.0666 0.152575,0.0691 0.364901,0.11419 0.502295,0.18397 0.08956,0.0455 0.133618,0.0918 0.220142,0.13694 0.06664,0.0334 0.154104,0.0631 0.218074,0.0966 0.612611,0.32132 1.181655,0.70625 1.741496,1.11879 -1.785059,-1.32895 -3.700633,-2.2666 -5.90765,-2.78691 -0.729512,-0.17198 -1.282487,-0.27874 -1.662947,-0.30696 z m 3.592545,11.31442 c 0.113937,0.008 0.197532,0.0889 0.295589,0.24649 0.383286,0.61607 0.06607,0.80667 -1.34462,0.80667 -0.81457,0 -1.25979,-0.10167 -1.159103,-0.26458 0.08994,-0.14552 0.396151,-0.26458 0.680579,-0.26458 0.284428,0 0.757075,-0.14883 1.050582,-0.33073 0.218899,-0.13566 0.363037,-0.20116 0.476973,-0.19327 z"
         id="path4160" />
      <path
         style="baseline-shift:baseline;display:inline;overflow:visible;vector-effect:none;fill:#cfc5b0;enable-background:accumulate;stop-color:#000000;stop-opacity:1"
         d="m 3.1426478,161.46356 c -0.020131,0.25719 -0.182732,0.63984 -0.5121134,1.12292 -1.0971338,1.60911 -2.09556874,3.83873 -3.27421877,7.31325 -0.81771523,2.41053 -1.16336483,3.87424 -1.13533123,4.5527 0.031051,0.11261 0.061452,0.22452 0.1379761,0.27182 0.1416119,0.0875 0.2934786,0.052 0.504362,-0.12041 0.18488956,-0.16809 0.44729788,-0.50583 0.71055091,-0.84543 0.18302595,-0.23325 0.28551251,-0.3251 0.54415283,-0.68213 0.83113816,-1.14732 2.00560346,-2.23662 3.32124426,-3.14657 0.02827,-0.0202 0.054333,-0.0405 0.082682,-0.0605 0.4930985,-0.33627 1.002185,-0.64407 1.5275554,-0.91829 0.4800525,-0.26376 0.9278167,-0.45749 1.3864787,-0.63562 0.3765565,-0.15654 0.7121503,-0.28539 0.9808186,-0.35915 0.051812,-0.0127 0.1138688,-0.0494 0.1648479,-0.0605 0.1185726,-0.0257 0.1981292,-0.0183 0.298173,-0.0274 0.2072874,-0.0191 0.4171305,-0.0416 0.488859,0.0341 0.2837412,0.10354 0.3135121,0.34802 -0.083199,0.67334 -0.1404317,0.11516 -0.368168,0.38535 -0.5637899,0.59738 -0.00965,0.0106 -0.00772,0.0141 -0.01757,0.0248 -0.3659383,0.39699 -0.6967098,0.81783 -1.0381795,1.23351 -0.22939,0.29438 -0.3758896,0.57767 -0.6035807,0.88832 0.5561248,-0.72395 1.1411019,-1.42567 1.7135904,-1.97197 1.3201141,-1.25973 1.2728026,-1.72041 -0.1529622,-1.49242 -2.402449,0.38417 -6.1426561,3.04308 -7.92509765,5.63377 -0.88445655,1.28552 -1.46081955,1.36375 -1.33790285,0.1819 0.2144309,-2.06177 2.9752856,-9.08903 4.3191162,-10.99313 0.2726102,-0.38627 0.4960938,-0.89228 0.4960938,-1.12448 0,-0.0405 -0.026059,-0.0557 -0.032556,-0.0899 z"
         id="path4152" />
      <path
         style="baseline-shift:baseline;display:inline;overflow:visible;vector-effect:none;fill:#cfc5b0;enable-background:accumulate;stop-color:#000000;stop-opacity:1"
         d="m 2.7530075,161.14265 c -0.799883,-0.0128 -2.60045015,1.10187 -4.2080119,2.74298 -2.0431707,2.08581 -3.1653863,4.32706 -3.8891682,7.76904 -0.3244931,1.54314 -0.6902916,2.67881 -0.84646,2.62671 -0.1512993,-0.0504 -0.4135068,-0.98562 -0.5823934,-2.07791 -1.0034439,-6.48989 -3.855415,-10.71749 -4.686019,-6.94635 -0.286467,1.30063 -0.0514,5.25726 0.446484,7.51582 0.439473,1.99357 0.204719,2.49227 -0.667659,1.41852 -0.839571,-1.03337 -1.705321,-1.89468 -2.591573,-2.67322 0.56764,0.50723 1.133208,1.10134 1.705322,1.75855 0,0 5.17e-4,5.2e-4 5.17e-4,5.2e-4 0.32008,0.40736 0.639393,0.76138 0.918807,1.04593 0.03416,0.0391 0.06371,0.0676 0.09715,0.10438 0.283934,0.27932 0.512844,0.46199 0.608748,0.46199 0.102761,0 0.176395,-0.002 0.230994,-0.0295 0.03643,-0.3252 -0.0397,-1.15686 -0.234095,-2.22777 -0.02129,-0.1113 -0.01206,-0.0901 -0.03566,-0.21342 -0.292592,-1.52906 -0.414341,-3.57256 -0.390674,-5.26583 0.01547,-1.48742 0.143355,-2.6941 0.40876,-2.95951 1.2992493,-1.29924 3.346804,2.98778 4.2767419,8.95449 0.2520912,1.61748 0.7709876,1.87571 1.0082072,0.50178 0.8130026,-4.70878 2.0904841,-7.60057 4.3651083,-9.88053 0.6447497,-0.64626 1.5052243,-1.30555 2.30166826,-1.80351 0.74641334,-0.46667 1.41258054,-0.76665 1.81642664,-0.80563 -0.021153,-0.002 -0.03042,-0.0172 -0.053227,-0.0176 z"
         id="path4151" />
      <path
         style="baseline-shift:baseline;display:inline;overflow:visible;vector-effect:none;fill:#cabda6;enable-background:accumulate;stop-color:#000000;stop-opacity:1"
         d="m -19.355205,178.86359 c -0.113936,-0.008 -0.258074,0.0576 -0.476973,0.19327 -0.293507,0.1819 -0.766154,0.33073 -1.050582,0.33073 -0.284428,0 -0.590639,0.11906 -0.680579,0.26458 -0.100687,0.16291 0.344533,0.26458 1.159103,0.26458 1.410691,0 1.727906,-0.1906 1.34462,-0.80667 -0.09806,-0.1576 -0.181652,-0.2386 -0.295589,-0.24649 z"
         id="path3977" />
      <path
         style="baseline-shift:baseline;display:inline;overflow:visible;vector-effect:none;fill:#cabda6;enable-background:accumulate;stop-color:#000000;stop-opacity:1"
         d="m 19.38765,175.22763 c -0.02185,0.0444 -0.03744,0.1355 -0.05788,0.19534 0.02023,-0.055 0.03692,-0.15526 0.05788,-0.19534 z"
         id="path3976" />
      <path
         style="baseline-shift:baseline;display:inline;overflow:visible;vector-effect:none;fill:#cabda6;enable-background:accumulate;stop-color:#000000;stop-opacity:1"
         d="m 19.629496,175.05349 c -0.0087,-0.005 -0.01662,0.0211 -0.02532,0.0181 0.02468,0.0126 0.04077,0.0902 0.06305,0.12454 -0.01704,-0.031 -0.01653,-0.12953 -0.03772,-0.14263 z"
         id="path3974" />
      <path
         style="baseline-shift:baseline;display:inline;overflow:visible;vector-effect:none;fill:#cabda6;enable-background:accumulate;stop-color:#000000;stop-opacity:1"
         d="m 16.107747,174.60494 c 0.0014,0.0232 0.01084,0.036 0.0093,0.0631 0.003,-0.0303 -0.009,-0.038 -0.0093,-0.0631 z"
         id="path3973" />
      <path
         style="baseline-shift:baseline;display:inline;overflow:visible;vector-effect:none;fill:#cabda6;enable-background:accumulate;stop-color:#000000;stop-opacity:1"
         d="m -1.7790166,174.4525 c 0.01924,0.46564 0.2292551,0.52696 0.6423381,0.15141 -0.2108834,0.17238 -0.3627501,0.20793 -0.504362,0.12041 -0.076524,-0.0473 -0.1069249,-0.15921 -0.1379761,-0.27182 z"
         id="path3972" />
      <path
         style="baseline-shift:baseline;display:inline;overflow:visible;vector-effect:none;fill:#cabda6;enable-background:accumulate;stop-color:#000000;stop-opacity:1"
         d="m -11.549996,174.4277 c 0.397333,0.43701 0.754815,0.75441 0.837158,0.67438 0.01549,-0.0151 -0.0039,-0.18427 0.0026,-0.24185 -0.0546,0.0276 -0.128233,0.0295 -0.230994,0.0295 -0.0959,0 -0.324814,-0.18267 -0.608748,-0.46199 z"
         id="path3971" />
      <path
         style="baseline-shift:baseline;display:inline;overflow:visible;vector-effect:none;fill:#cabda6;enable-background:accumulate;stop-color:#000000;stop-opacity:1"
         d="m 15.920161,174.3693 c 0.07004,0.005 0.127761,0.0227 0.160714,0.0703 -0.03191,-0.047 -0.08845,-0.0658 -0.160714,-0.0703 z"
         id="path3970" />
      <path
         style="baseline-shift:baseline;display:inline;overflow:visible;vector-effect:none;fill:#cabda6;enable-background:accumulate;stop-color:#000000;stop-opacity:1"
         d="m 15.896391,174.3603 c -0.0036,0 -0.01429,0.0348 -0.01809,0.0357 0.0057,-10e-4 0.01626,-0.0341 0.0217,-0.0341 -0.0017,-1e-5 -0.0019,-0.002 -0.0036,-0.002 z"
         id="path3969" />
      <path
         style="baseline-shift:baseline;display:inline;overflow:visible;vector-effect:none;fill:#cabda6;enable-background:accumulate;stop-color:#000000;stop-opacity:1"
         d="m 4.0903936,174.22129 c -0.06865,0.12539 -0.1846784,0.29773 -0.2377116,0.4067 -0.4666599,0.95888 -1.1269456,2.12046 -1.4676107,2.58123 l -0.6196004,0.83768 -1.68465169,-0.003 c -0.10982193,7.6e-4 -0.11580528,0.0207 -0.24339599,0.0207 -0.16124983,0 -0.20605448,-0.0184 -0.34209799,-0.0217 l -1.51722003,-0.003 c -0.9470254,-0.002 -1.7149231,-0.0314 -2.3786662,-0.0677 -0.061472,-0.006 -0.081576,0.004 -0.1477946,-0.003 -0.0094,-0.001 -0.00879,-5.7e-4 -0.018087,-0.002 -0.1567286,-0.009 -0.2433085,-0.02 -0.3762045,-0.031 -0.7602223,-0.0789 -1.3387015,-0.0948 -1.7993733,-0.0605 -0.3481639,0.12321 -1.0114649,0.22172 -1.7735352,0.21911 -0.9190879,-0.003 -2.5636664,0.0557 -3.6550734,0.13126 -1.9763,0.13684 -1.987989,0.13416 -2.806031,-0.73949 -0.05576,-0.0596 -0.157182,-0.21855 -0.222725,-0.29456 -0.138497,-0.16928 -0.298103,-0.3709 -0.467672,-0.61908 -0.354002,-0.45331 -0.695734,-0.87627 -1.00614,-1.33067 0.141404,0.23475 0.269234,0.4589 0.269234,0.57619 0,0.19366 -0.383389,0.43615 -0.851627,0.53899 -0.468239,0.10285 -1.168415,0.52614 -1.555978,0.94103 l -0.704349,0.75447 0.886767,0.32091 c 0.74187,0.26826 0.861569,0.42063 0.733289,0.93173 -0.181033,0.72129 0.268618,0.814 0.897619,0.185 0.387133,-0.38739 0.454097,-0.38862 0.730705,-0.0103 0.234568,0.32079 0.937393,0.4385 3.060278,0.5116 1.515845,0.0524 3.098726,0.0566 3.5170981,0.01 0.4183723,-0.0468 1.7094754,-0.0853 2.8690755,-0.0853 1.8858483,0 2.1225989,-0.0558 2.2463745,-0.52916 0.1756404,-0.67161 0.6061646,-0.69108 0.6061646,-0.0274 0,0.47829 0.3244888,0.50455 6.9453125,0.56275 8.1645518,0.0718 19.5909728,0.004 19.7119758,-0.11678 0.04655,-0.0465 -0.455583,-0.26277 -1.115695,-0.48008 -0.996315,-0.32798 -1.199926,-0.33345 -1.199926,-0.0341 0,0.50608 -0.367625,0.44855 -0.901237,-0.14108 -0.297035,-0.32822 -0.350541,-0.53653 -0.153996,-0.60203 0.127062,-0.0424 0.230295,-0.41528 0.31626,-0.86868 -0.116816,0.25077 -0.279591,0.38447 -0.509013,0.38447 -0.277918,0 -0.354229,-0.17882 -0.254248,-0.59531 0.01722,-0.0717 0.04837,-0.24432 0.0708,-0.34727 -0.221621,0.65982 -0.587164,0.70483 -1.657779,0.55759 -1.920261,-0.26411 -2.019889,-0.37451 -1.546159,-1.71721 0.154703,-0.43847 0.191332,-0.62383 0.252181,-0.86093 -0.05992,0.21317 -0.09202,0.38417 -0.233578,0.72296 -0.39689,0.94989 -0.674894,1.18068 -0.674894,0.56017 0,-0.21544 0.120023,-0.55394 0.221175,-0.86868 -0.03516,0.0942 -0.06071,0.082 -0.09405,0.18242 -0.369341,1.11198 -0.540385,1.32417 -1.013375,1.25677 -0.445139,-0.0634 -0.59932,-0.31163 -0.70745,-1.13947 l -0.137976,-1.05833 -0.464055,0.85989 c -0.386315,0.71613 -0.61782,0.8599 -1.383378,0.8599 -0.522095,0 -1.119505,-0.20005 -1.383378,-0.46302 -0.3838271,-0.38253 -0.9560358,-0.46312 -3.289205,-0.46612 -1.5532838,-0.002 -2.9076068,-0.0876 -3.0101522,-0.19017 -0.1385197,-0.13852 0.00933,-0.58312 0.2707845,-1.13637 z"
         id="path3968" />
      <path
         style="baseline-shift:baseline;display:inline;overflow:visible;vector-effect:none;fill:#cabda6;enable-background:accumulate;stop-color:#000000;stop-opacity:1"
         d="m -12.565695,173.2773 c 0.235074,0.27005 0.467074,0.51914 0.70745,0.81855 0.07601,0.0947 0.136982,0.14221 0.211357,0.22738 -0.279414,-0.28455 -0.598727,-0.63857 -0.918807,-1.04593 z"
         id="path3966" />
      <path
         style="baseline-shift:baseline;display:inline;overflow:visible;vector-effect:none;fill:#cabda6;enable-background:accumulate;stop-color:#000000;stop-opacity:1"
         d="m -15.290337,170.6988 c 0.335479,0.24971 0.670947,0.50754 0.997872,0.7984 -0.298051,-0.26508 -0.664272,-0.55853 -0.997872,-0.7984 z"
         id="path3953" />
      <path
         style="baseline-shift:baseline;display:inline;overflow:visible;vector-effect:none;fill:#cabda6;enable-background:accumulate;stop-color:#000000;stop-opacity:1"
         d="m 3.4392695,169.92985 c -1.3156408,0.90995 -2.4901061,1.99925 -3.32124426,3.14657 -0.25864032,0.35703 -0.36112688,0.44888 -0.54415283,0.68213 0.14269049,-0.18407 0.21935127,-0.22349 0.38498942,-0.45837 0.84324993,-1.19572 2.11542507,-2.39505 3.48040767,-3.37033 z"
         id="path3948" />
      <path
         style="baseline-shift:baseline;display:inline;overflow:visible;vector-effect:none;fill:#cabda6;enable-background:accumulate;stop-color:#000000;stop-opacity:1"
         d="m 7.7216955,169.17328 c -0.3185239,0.34525 -0.6584707,0.74849 -1.0557495,1.25832 0.3414697,-0.41568 0.6722412,-0.83652 1.0381795,-1.23351 0.00985,-0.0107 0.00792,-0.0142 0.01757,-0.0248 z"
         id="path3943" />
      <path
         style="baseline-shift:baseline;display:inline;overflow:visible;vector-effect:none;fill:#cabda6;enable-background:accumulate;stop-color:#000000;stop-opacity:1"
         d="m -18.05916,169.10658 c 0.244068,0.10746 0.501568,0.21017 0.722437,0.32091 -0.08652,-0.0451 -0.130587,-0.0915 -0.220142,-0.13694 -0.137394,-0.0698 -0.34972,-0.11488 -0.502295,-0.18397 z"
         id="path3942" />
      <path
         style="baseline-shift:baseline;display:inline;overflow:visible;vector-effect:none;fill:#cabda6;enable-background:accumulate;stop-color:#000000;stop-opacity:1"
         d="m 5.0495072,168.95077 c -0.5253704,0.27422 -1.0344569,0.58202 -1.5275554,0.91829 0.5030828,-0.35495 1.0168651,-0.63769 1.5275554,-0.91829 z"
         id="path3939" />
      <path
         style="baseline-shift:baseline;display:inline;overflow:visible;vector-effect:none;fill:#cabda6;enable-background:accumulate;stop-color:#000000;stop-opacity:1"
         d="m -23.001494,168.37204 c 0.358939,0.46472 0.94506,1.10565 1.969906,2.07481 1.129805,1.06841 1.988849,1.98601 2.756421,2.83445 -0.724981,-0.80474 -1.580289,-1.69633 -2.41639,-2.49752 -1.125035,-1.07806 -1.886609,-1.88286 -2.309937,-2.41174 z"
         id="path3934" />
      <path
         style="baseline-shift:baseline;display:inline;overflow:visible;vector-effect:none;fill:#cabda6;enable-background:accumulate;stop-color:#000000;stop-opacity:1"
         d="m 7.4168045,167.95603 c -0.2686683,0.0738 -0.6042621,0.20261 -0.9808186,0.35915 0.3316736,-0.12881 0.6726045,-0.28382 0.9808186,-0.35915 z"
         id="path3930" />
      <path
         style="baseline-shift:baseline;display:inline;overflow:visible;vector-effect:none;fill:#cabda6;enable-background:accumulate;stop-color:#000000;stop-opacity:1"
         d="m -21.63827,167.88733 c 0.228225,0.0538 0.41374,0.0809 0.666626,0.15245 -0.252384,-0.0686 -0.436704,-0.10036 -0.666626,-0.15245 z"
         id="path3929" />
      <path
         style="baseline-shift:baseline;display:inline;overflow:visible;vector-effect:none;fill:#cabda6;enable-background:accumulate;stop-color:#000000;stop-opacity:1"
         d="m 8.2043534,167.80673 c -0.065611,-0.0102 -0.2325966,0.053 -0.324528,0.0615 0.2093122,-0.0191 0.371385,-0.009 0.488859,0.0341 -0.039917,-0.0421 -0.082001,-0.0828 -0.164331,-0.0956 z"
         id="path3928" />
      <path
         style="baseline-shift:baseline;display:inline;overflow:visible;vector-effect:none;fill:#cabda6;enable-background:accumulate;stop-color:#000000;stop-opacity:1"
         d="m -23.368913,167.73233 c -7.95e-4,7.6e-4 -0.006,-2.5e-4 -0.0067,5.2e-4 -0.0026,0.003 0.01707,0.0229 0.01499,0.0258 0.0021,-0.005 -0.01154,-0.0227 -0.0083,-0.0264 z"
         id="path3927" />
      <path
         style="baseline-shift:baseline;display:inline;overflow:visible;vector-effect:none;fill:#cabda6;enable-background:accumulate;stop-color:#000000;stop-opacity:1"
         d="m -11.370679,167.15302 c -0.02367,1.69327 0.09808,3.73677 0.390674,5.26583 0.02359,0.1233 0.01437,0.10212 0.03566,0.21342 -0.003,-0.0165 -0.0032,-0.0274 -0.0062,-0.0439 -0.305417,-1.66407 -0.437775,-3.7383 -0.420129,-5.43533 z"
         id="path3925" />
      <path
         style="baseline-shift:baseline;display:inline;overflow:visible;vector-effect:none;fill:#bac3a4;enable-background:accumulate;stop-color:#000000;stop-opacity:1"
         d="m -4.9426468,177.93633 c 0.132896,0.0111 0.2194759,0.0216 0.3762045,0.031 -0.1933938,-0.0205 -0.2231154,-0.0151 -0.3762045,-0.031 z"
         id="path3679" />
      <path
         style="baseline-shift:baseline;display:inline;overflow:visible;vector-effect:none;fill:#bac3a4;enable-background:accumulate;stop-color:#000000;stop-opacity:1"
         d="m -2.2358352,177.38805 c -0.088369,0.004 -0.2129039,0.10146 -0.4268474,0.29507 -0.3484648,0.31535 -0.7921452,0.37596 -1.7378784,0.28887 0.6637431,0.0363 1.4316408,0.066 2.3786662,0.0677 l 1.51722003,0.003 c -0.95522233,-0.0231 -1.41684753,-0.11554 -1.52083743,-0.38654 -0.069752,-0.18177 -0.1219542,-0.27196 -0.210323,-0.2682 z"
         id="path3678" />
      <path
         style="baseline-shift:baseline;display:inline;overflow:visible;vector-effect:none;fill:#bac3a4;enable-background:accumulate;stop-color:#000000;stop-opacity:1"
         d="m -15.199385,177.19219 c 0.06554,0.076 0.166967,0.23501 0.222725,0.29456 0.818042,0.87365 0.829731,0.87633 2.806031,0.73949 1.091407,-0.0756 2.7359858,-0.13426 3.6550737,-0.13126 0.7620703,0.003 1.4253713,-0.0959 1.7735352,-0.21911 -0.2709311,0.0202 -0.4841259,0.0289 -0.9689331,0.0878 -0.6757159,0.0822 -1.4608567,0.0251 -1.7451132,-0.12712 -0.2842566,-0.15213 -0.6245926,-0.17824 -0.7560266,-0.0579 -0.303299,0.27766 -2.075056,0.45977 -3.280419,0.33693 -0.768166,-0.0783 -1.161765,-0.2572 -1.706873,-0.92346 z"
         id="path3677" />
      <path
         style="baseline-shift:baseline;display:inline;overflow:visible;vector-effect:none;fill:#bac3a4;enable-background:accumulate;stop-color:#000000;stop-opacity:1"
         d="m 19.603142,175.0693 c -0.134422,-0.0666 -0.296969,0.1923 -0.409794,0.81494 -0.09865,0.54443 -0.243861,1.2575 -0.322461,1.58492 -0.09998,0.41649 -0.02367,0.59531 0.254248,0.59531 0.502037,0 0.718819,-0.55936 0.718819,-1.85777 0,-0.67856 -0.106391,-1.07078 -0.240812,-1.1374 z"
         id="path3672" />
      <path
         style="baseline-shift:baseline;display:inline;overflow:visible;vector-effect:none;fill:#bac3a4;enable-background:accumulate;stop-color:#000000;stop-opacity:1"
         d="m 15.901042,174.3603 c -0.249741,0 -0.819588,1.4075 -0.819588,2.02417 0,0.62051 0.278004,0.38972 0.674894,-0.56017 0.441988,-1.05783 0.482125,-1.464 0.144694,-1.464 z"
         id="path3671" />
      <path
         style="baseline-shift:baseline;display:inline;overflow:visible;vector-effect:none;fill:#bac3a4;enable-background:accumulate;stop-color:#000000;stop-opacity:1"
         d="m 2.9075201,161.13114 c -0.7777103,0 -2.92988127,1.34556 -4.2193807,2.63808 -2.2746242,2.27996 -3.5521057,5.17175 -4.3651083,9.88053 -0.2372196,1.37393 -0.756116,1.1157 -1.0082072,-0.50178 -0.9299379,-5.96671 -2.9774926,-10.25373 -4.2767419,-8.95449 -0.568211,0.56821 -0.561742,5.27223 0.01137,8.39484 0.235129,1.28103 0.342075,2.41212 0.237712,2.51354 -0.104363,0.10143 -0.619934,-0.3513 -1.145667,-1.00614 -1.758579,-2.19046 -3.339987,-3.56465 -5.260144,-4.57181 -2.142288,-1.12367 -5.857247,-2.19136 -6.251815,-1.79679 -0.157116,0.15711 0.839221,1.2938 2.678907,3.05666 1.610833,1.54357 3.370504,3.48573 3.910872,4.31601 0.333547,0.51251 0.721727,0.97146 1.113627,1.4733 -0.200782,-0.29387 -0.401822,-0.59227 -0.674377,-1.02216 -0.68755,-1.08445 -2.386531,-3.03203 -4.099492,-4.69894 -1.609014,-1.56576 -2.849973,-2.92177 -2.757971,-3.01377 0.353022,-0.35302 3.586016,0.58332 5.752621,1.66605 2.162351,1.08059 3.515196,2.24338 5.7366,4.93148 1.118637,1.35366 1.536249,0.71687 0.929143,-1.41697 -0.532138,-1.87035 -0.624036,-8.25964 -0.126091,-8.75864 0.518836,-0.51994 1.1318093,0.002 2.0980633,1.78646 0.8217691,1.51752 1.929598,5.42571 1.929598,6.80785 0,0.3727 0.1239343,1.00402 0.2754354,1.4025 0.2351111,0.61839 0.326776,0.66918 0.6268351,0.34778 0.1933524,-0.2071 0.4924897,-1.15063 0.6645589,-2.09651 0.9329026,-5.12828 3.4707617,-9.13353 6.7840821,-10.70581 0.4143495,-0.19662 0.7299603,-0.32268 0.9487793,-0.36483 0.6564568,-0.12645 0.4454171,0.50228 -0.5581055,2.24741 -1.61706814,2.8121 -3.7220429,8.97968 -3.8343913,11.23497 l -0.083716,1.67948 0.4325317,-0.82424 c 0.71427707,-1.36118 2.55436071,-3.63944 3.8865845,-4.81211 2.0322731,-1.78888 6.2032389,-3.63101 6.2032389,-2.73988 0,0.11697 -0.4283941,0.62299 -0.9518798,1.12448 -1.2970159,1.24252 -3.164229,3.88408 -3.8488607,5.44514 -0.3105727,0.70815 -0.9155404,1.73375 -1.344104,2.27945 -0.6982883,0.88915 -0.9253875,0.96246 -2.24120689,0.97152 l 1.68465169,0.003 0.6196004,-0.83768 c 0.3406651,-0.46077 1.0009508,-1.62235 1.4676107,-2.58123 0.7905403,-1.62438 3.4333431,-5.23274 4.4328044,-6.05235 0.6394603,-0.52439 0.262015,-0.88905 -0.703833,-0.68006 -2.458734,0.53203 -5.914738,2.98231 -7.62279057,5.40432 -2.14877633,3.04697 -2.36882683,1.80648 -0.6025472,-3.40031 1.17865003,-3.47452 2.17708497,-5.70414 3.27421877,-7.31325 0.5874791,-0.86162 0.7003234,-1.4552 0.2769857,-1.4552 z"
         id="path3663" />
      <path
         style="baseline-shift:baseline;display:inline;overflow:visible;vector-effect:none;fill:#a6af91;enable-background:accumulate;stop-color:#000000;stop-opacity:1"
         d="m 2.4207281,161.43753 c -0.218819,0.0421 -0.5344298,0.16821 -0.9487793,0.36483 -3.3133204,1.57228 -5.8511795,5.57753 -6.7840821,10.70581 -0.1720692,0.94588 -0.4712065,1.88941 -0.6645589,2.09651 -0.3000591,0.3214 -0.391724,0.27061 -0.6268351,-0.34778 -0.1515011,-0.39848 -0.2754354,-1.0298 -0.2754354,-1.4025 0,-1.38214 -1.1078289,-5.29033 -1.929598,-6.80785 -0.966254,-1.78436 -1.5792273,-2.3064 -2.0980633,-1.78646 -0.497945,0.499 -0.406047,6.88829 0.126091,8.75864 0.607106,2.13384 0.189494,2.77063 -0.929143,1.41697 -2.221404,-2.6881 -3.574249,-3.85089 -5.7366,-4.93148 -2.166605,-1.08273 -5.399599,-2.01907 -5.752621,-1.66605 -0.092,0.092 1.148957,1.44801 2.757971,3.01377 1.712961,1.66691 3.411942,3.61449 4.099492,4.69894 1.408713,2.22193 1.654491,2.44297 2.848922,2.5647 1.205363,0.12284 2.97712,-0.0593 3.280419,-0.33693 0.131434,-0.12036 0.47177,-0.0942 0.7560266,0.0579 0.2842565,0.15218 1.0693973,0.20932 1.7451132,0.12712 1.4831208,-0.1802 1.4152755,-0.18013 3.1625976,0.005 1.0849825,0.11507 1.5145584,0.0501 1.885673,-0.28577 0.4278869,-0.38722 0.4976669,-0.39041 0.6371704,-0.0269 0.1188002,0.3096 0.5694784,0.40824 1.86293542,0.40824 1.65630468,0 1.72803348,-0.0288 2.48460288,-0.99219 0.4285636,-0.5457 1.0335313,-1.5713 1.344104,-2.27945 0.6846317,-1.56106 2.5518448,-4.20262 3.8488607,-5.44514 0.5234857,-0.50149 0.9518798,-1.00751 0.9518798,-1.12448 0,-0.89113 -4.1709658,0.951 -6.2032389,2.73988 -1.33222379,1.17267 -3.17230743,3.45093 -3.8865845,4.81211 l -0.4325317,0.82424 0.083716,-1.67948 c 0.1123484,-2.25529 2.21732316,-8.42287 3.8343913,-11.23497 1.0035226,-1.74513 1.2145623,-2.37386 0.5581055,-2.24741 z m 0.053744,0.22272 c 0.2691406,0 0.041067,0.6032 -0.7622274,2.0128 -1.53179226,2.68794 -3.4612926,8.032 -3.813204,10.56215 -0.4045579,2.90866 -0.6984465,3.42044 -2.0019449,3.48402 -0.5809965,0.0283 -1.2050945,-0.0115 -1.3869955,-0.0884 -0.5004622,-0.21144 -0.4003267,-1.82151 0.3126424,-5.01623 0.795342,-3.56382 1.2637985,-4.89378 2.2851319,-6.48539 1.3486226,-2.10165 4.191518,-4.46898 5.3665975,-4.46898 z m -13.0746541,2.68821 c 0.127101,-0.0489 0.282776,-0.01 0.472323,0.1018 0.7124038,0.41832 2.0716979,3.37326 2.5316279,5.50303 1.0655937,4.93438 1.2482296,7.42299 0.5632731,7.68583 -0.5754255,0.22082 -1.764169,0.19489 -2.1445719,-0.047 -0.8660731,-0.5507 -1.9296631,-6.05477 -1.9280471,-9.97872 9e-4,-2.1767 0.124095,-3.11808 0.505395,-3.26492 z m -11.523327,3.7021 c 0.354654,0.0452 0.895376,0.17934 1.617472,0.36742 2.58301,0.67278 5.021436,2.15661 6.977352,4.24522 1.856003,1.98193 3.423867,4.49969 3.040641,4.88239 -0.296393,0.29598 -2.158676,0.50564 -3.005501,0.33848 -0.851597,-0.1681 -1.69222,-0.94626 -2.806547,-2.59778 -0.490936,-0.7276 -2.232259,-2.66236 -3.869531,-4.29947 -2.407641,-2.40741 -3.017848,-3.07189 -1.953886,-2.93626 z m 29.7852613,0.22686 c 0.6247708,-0.002 0.6085275,0.0417 -0.4175455,1.1219 -1.5147808,1.59464 -2.5143312,2.97075 -3.6654094,5.04723 -1.6610722,2.99648 -2.0592124,3.35329 -3.74292398,3.35329 -0.93908092,0 -1.48624832,-0.11989 -1.57251382,-0.34469 -0.3928042,-1.02364 2.42925568,-5.15227 4.6911865,-6.86366 1.6713243,-1.26453 3.7985549,-2.31046 4.7072062,-2.31407 z"
         id="path3588" />
      <path
         style="baseline-shift:baseline;display:inline;overflow:visible;vector-effect:none;fill:#8b9b74;enable-background:accumulate;stop-color:#000000;stop-opacity:1"
         d="m 7.6617518,168.2774 c -0.9086513,0.004 -3.0358819,1.04954 -4.7072062,2.31407 -2.26193082,1.71139 -5.0839907,5.84002 -4.6911865,6.86366 0.086266,0.2248 0.6334329,0.34469 1.57251382,0.34469 1.68371158,0 2.08185178,-0.35681 3.74292398,-3.35329 1.1510782,-2.07648 2.1506286,-3.45259 3.6654094,-5.04723 1.026073,-1.08019 1.0423163,-1.1239 0.4175455,-1.1219 z m -0.3674194,0.3246 c 0.1034245,0.10342 -0.2542774,0.67807 -0.7953003,1.27692 -0.5410229,0.59885 -1.5237909,1.9417 -2.183846,2.9838 -1.6892647,2.66705 -2.786517,4.24335 -3.1109212,4.47001 -0.33255432,0.23236 -2.3727277,0.26895 -2.5951905,0.0465 -0.2516757,-0.25168 0.46089292,-1.99682 1.35857343,-3.32693 0.45667004,-0.67666 1.46502007,-1.80672 2.24069007,-2.51147 1.4995791,-1.36245 4.7715949,-3.25324 5.0859945,-2.93884 z"
         id="path3551" />
      <path
         style="baseline-shift:baseline;display:inline;overflow:visible;vector-effect:none;fill:#8b9b74;enable-background:accumulate;stop-color:#000000;stop-opacity:1"
         d="m -22.12351,168.05054 c -1.063962,-0.13563 -0.453755,0.52885 1.953886,2.93626 1.637272,1.63711 3.378595,3.57187 3.869531,4.29947 1.114327,1.65152 1.95495,2.42968 2.806547,2.59778 0.846825,0.16716 2.709108,-0.0425 3.005501,-0.33848 0.383226,-0.3827 -1.184638,-2.90046 -3.040641,-4.88239 -1.955916,-2.08861 -4.394342,-3.57244 -6.977352,-4.24522 -0.722096,-0.18808 -1.262818,-0.32221 -1.617472,-0.36742 z m -0.05891,0.23086 c 0.241697,-0.003 1.155305,0.21651 2.030367,0.48886 3.592514,1.11812 6.70671,3.55897 8.623246,6.75876 0.497903,0.83128 0.696135,1.33729 0.65319,1.68155 0.0023,0.0222 0.0279,0.0659 0.0279,0.0858 0,0.003 -0.01754,0.004 -0.01809,0.007 -0.102382,0.37214 -0.588212,0.49713 -1.566313,0.49713 -0.872772,0 -1.469424,-0.16832 -1.959054,-0.55346 -0.387184,-0.30456 -1.200834,-1.28683 -1.808158,-2.18281 -0.607324,-0.89599 -2.300487,-2.78737 -3.763078,-4.20284 -1.58329,-1.53227 -2.481661,-2.57605 -2.220019,-2.57969 z"
         id="path3550" />
      <path
         style="baseline-shift:baseline;display:inline;overflow:visible;vector-effect:none;fill:#8b9b74;enable-background:accumulate;stop-color:#000000;stop-opacity:1"
         d="m -10.600183,164.34851 c -0.3813,0.14684 -0.504495,1.08822 -0.505395,3.26492 -0.0016,3.92395 1.061974,9.42802 1.9280476,9.97872 0.3804029,0.24191 1.5691464,0.26784 2.1445719,0.047 0.6849565,-0.26284 0.5023206,-2.75145 -0.5632731,-7.68583 -0.45993,-2.12977 -1.8192241,-5.08471 -2.5316284,-5.50303 -0.189547,-0.1113 -0.345222,-0.15075 -0.472323,-0.1018 z m 0.0863,0.0909 c 0.102111,-0.019 0.231004,0.0507 0.392741,0.18449 1.1439764,0.9466 2.3495783,4.66301 2.986381,9.20719 0.4442428,3.17009 0.3546993,3.55253 -0.8542115,3.653 -0.8572877,0.0712 -1.028523,-0.017 -1.3911295,-0.7183 -0.72102,-1.3943 -1.488336,-6.04522 -1.4981,-9.07955 -0.0075,-2.33302 0.05799,-3.1899 0.364319,-3.24683 z"
         id="path3547" />
      <path
         style="baseline-shift:baseline;display:inline;overflow:visible;vector-effect:none;fill:#8b9b74;enable-background:accumulate;stop-color:#000000;stop-opacity:1"
         d="m 2.4744716,161.6603 c -1.1750795,0 -4.0179749,2.36733 -5.3665975,4.46898 -1.0213334,1.59161 -1.4897899,2.92157 -2.2851319,6.48539 -0.7129691,3.19472 -0.8131046,4.80479 -0.3126424,5.01623 0.181901,0.0769 0.805999,0.11667 1.3869955,0.0884 1.3034984,-0.0636 1.597387,-0.57536 2.0019449,-3.48402 0.3519114,-2.53015 2.28141174,-7.87421 3.813204,-10.56215 0.8032944,-1.4096 1.031368,-2.0128 0.7622274,-2.0128 z m -0.3054078,0.26459 c 0.1243341,0 -0.2416938,0.86321 -0.8128702,1.91823 -1.53280312,2.83126 -3.3866055,7.97316 -3.7067505,10.28051 -0.4248258,3.0618 -0.612598,3.41167 -1.8319296,3.41167 -0.068586,0 -0.079095,-0.0195 -0.1462443,-0.0217 -0.1206914,0.005 -0.1744999,-0.0291 -0.2837036,-0.0413 -0.3148222,-0.0314 -0.7052146,-0.051 -0.767395,-0.11317 -0.3732477,-0.37325 -0.1415625,-2.46155 0.6092651,-5.48907 0.9021533,-3.6377 1.7017784,-5.42144 3.1868856,-7.10861 0.99348653,-1.12866 3.2530602,-2.83652 3.7527425,-2.83652 z"
         id="path3546" />
      <path
         style="baseline-shift:baseline;display:inline;overflow:visible;vector-effect:none;fill:#778c63;enable-background:accumulate;stop-color:#000000;stop-opacity:1"
         d="m 7.2943324,168.602 c -0.3143996,-0.3144 -3.5864154,1.57639 -5.0859945,2.93884 -0.77567,0.70475 -1.78402003,1.83481 -2.24069007,2.51147 -0.89768051,1.33011 -1.61024913,3.07525 -1.35857343,3.32693 0.2224628,0.22244 2.26263618,0.18585 2.5951905,-0.0465 0.3244042,-0.22666 1.4216565,-1.80296 3.1109212,-4.47001 0.6600551,-1.0421 1.6428231,-2.38495 2.183846,-2.9838 0.5410229,-0.59885 0.8987248,-1.1735 0.7953003,-1.27692 z m -4.2720907,3.27372 c 0.2279872,0.0875 0.3319337,0.29175 0.2315105,0.45424 -0.1004232,0.16249 -0.1571904,0.6239 -0.1266073,1.02526 0.039767,0.5219 -0.1733662,0.93354 -0.7472412,1.44487 -0.4413414,0.39323 -0.8963885,1.08003 -1.0113078,1.52652 -0.1863361,0.72396 -0.3286792,0.82094 -1.31774902,0.89349 -0.83179483,0.061 -1.10897628,-0.0149 -1.10897628,-0.30386 0,-0.21187 0.36545878,-1.08221 0.81235356,-1.93373 1.21370362,-2.31261 2.39983514,-3.43994 3.26801754,-3.10679 z"
         id="path3517" />
      <path
         style="baseline-shift:baseline;display:inline;overflow:visible;vector-effect:none;fill:#778c63;enable-background:accumulate;stop-color:#000000;stop-opacity:1"
         d="m -22.182421,168.28105 c -0.261642,0.004 0.636729,1.04742 2.220019,2.57969 1.462591,1.41547 3.155754,3.30685 3.763078,4.20284 0.607324,0.89598 1.420974,1.87825 1.808158,2.18281 0.48963,0.38514 1.086282,0.55346 1.959054,0.55346 0.978101,0 1.463931,-0.12499 1.566313,-0.49713 -0.02692,0.12814 -0.690071,0.23254 -1.517737,0.23254 -0.0069,0 -0.0071,-0.002 -0.01395,-0.002 -1.374605,-8e-4 -1.598931,-0.0822 -2.316654,-0.85834 -0.43732,-0.47294 -1.12551,-1.37829 -1.529106,-2.01177 -0.836822,-1.31348 -0.776111,-2.03485 0.232027,-2.75952 l 0.656808,-0.47232 1.65778,1.66967 c 1.424802,1.43512 2.743853,3.37106 2.821016,4.10879 0.04294,-0.34426 -0.155287,-0.85027 -0.65319,-1.68155 -1.916536,-3.19979 -5.030732,-5.64064 -8.623246,-6.75876 -0.875062,-0.27235 -1.78867,-0.49186 -2.030367,-0.48886 z m 1.708423,0.7819 c 0.137312,0.0107 0.352225,0.11463 0.648022,0.34468 0.392414,0.30519 1.38044,2.04226 1.161686,2.04226 -0.05654,0 -0.523792,-0.3695 -1.038179,-0.82114 -0.897309,-0.78785 -1.183466,-1.59801 -0.771529,-1.5658 z"
         id="path3515" />
      <path
         style="baseline-shift:baseline;display:inline;overflow:visible;vector-effect:none;fill:#778c63;enable-background:accumulate;stop-color:#000000;stop-opacity:1"
         d="m -10.513883,164.43947 c -0.306332,0.0569 -0.371826,0.91381 -0.364319,3.24683 0.0098,3.03433 0.77708,7.68525 1.4981,9.07955 0.3626065,0.70125 0.5338418,0.7895 1.3911295,0.7183 1.2089108,-0.10047 1.2984543,-0.48291 0.8542115,-3.653 -0.6368027,-4.54418 -1.8424046,-8.26059 -2.986381,-9.20719 -0.161737,-0.13383 -0.29063,-0.20346 -0.392741,-0.18449 z m 1.5322063,6.76187 c 0.3007373,-0.0294 0.5565364,0.0707 0.6273519,0.31471 0.052788,0.1819 0.3467432,1.11299 0.6531901,2.06913 0.3064468,0.95615 0.5575887,2.17654 0.5575887,2.71198 0,0.93753 -0.034665,0.97358 -0.9327596,0.97358 -0.7577509,0 -0.9808547,-0.12729 -1.190625,-0.67903 -0.1419942,-0.37347 -0.4350566,-1.52689 -0.6511231,-2.56315 -0.3581663,-1.71777 -0.3548533,-1.92647 0.040824,-2.36368 0.2491324,-0.27529 0.5948153,-0.43415 0.895553,-0.46354 z"
         id="path3512" />
      <path
         style="baseline-shift:baseline;display:inline;overflow:visible;vector-effect:none;fill:#778c63;enable-background:accumulate;stop-color:#000000;stop-opacity:1"
         d="m 2.1690638,161.9249 c -0.4996823,0 -2.75925597,1.70786 -3.7527425,2.83652 -1.4851072,1.68717 -2.2847323,3.47091 -3.1868856,7.10861 -0.7508276,3.02752 -0.9825128,5.11582 -0.6092651,5.48907 0.06218,0.0622 0.4525728,0.0818 0.767395,0.11317 -0.1981247,-0.0223 -0.4223835,-0.0327 -0.5028117,-0.11317 -0.4913273,-0.49133 -0.042939,-3.89795 0.6108155,-4.64003 0.1662665,-0.18873 0.5315629,-0.73009 0.8118367,-1.20303 0.3114082,-0.52548 0.5364494,-0.80627 0.6960816,-0.80977 0.2660536,-0.006 0.3508829,0.759 0.3508829,2.44636 0,2.48105 -0.2753543,3.79274 -0.8764322,4.17494 -0.1844918,0.11731 -0.5032159,0.17364 -0.8066692,0.18604 0.067149,0.002 0.077659,0.0217 0.1462443,0.0217 1.2193316,0 1.4071038,-0.34987 1.8319296,-3.41167 0.320145,-2.30735 2.17394738,-7.44925 3.7067505,-10.28051 0.5711764,-1.05502 0.9372043,-1.91823 0.8128702,-1.91823 z m -2.51560868,3.09852 c 0.24146605,0.1076 0.34008811,0.43896 0.234611,0.96634 -0.16733566,0.83668 -0.68161174,1.60642 -0.68161214,1.0201 0,-0.17185 -0.29765638,-0.38722 -0.66145838,-0.47853 -0.837488,-0.2102 -0.8340569,-0.46366 0.016536,-1.13274 0.46613955,-0.36667 0.85045696,-0.48278 1.09192352,-0.37517 z"
         id="path3511" />
      <path
         style="baseline-shift:baseline;display:inline;overflow:visible;vector-effect:none;fill:#6e855b;enable-background:accumulate;stop-color:#000000;stop-opacity:1"
         d="m 3.0222417,171.87539 c -0.8681824,-0.33315 -2.05431392,0.79418 -3.26801754,3.10679 -0.44689478,0.85152 -0.81235356,1.72186 -0.81235356,1.93373 0,0.28896 0.27718145,0.36486 1.10897628,0.30386 0.98906982,-0.0726 1.13141292,-0.16953 1.31774902,-0.89349 0.1149193,-0.44649 0.5699664,-1.13329 1.0113078,-1.52652 0.573875,-0.51133 0.7870082,-0.92297 0.7472412,-1.44487 -0.030583,-0.40136 0.026184,-0.86277 0.1266073,-1.02526 0.1004232,-0.16249 -0.00352,-0.36674 -0.2315105,-0.45424 z m -1.8438151,2.90887 c 0.077716,-0.0388 0.078357,0.0423 0.014986,0.23719 -0.094622,0.29104 -0.23808402,0.85659 -0.31884359,1.25677 -0.0941426,0.4665 -0.31586439,0.72761 -0.61805013,0.72761 -0.32563856,0 -0.43277604,-0.14871 -0.34571533,-0.48163 0.06930557,-0.26503 0.42482905,-0.83057 0.79013265,-1.25677 0.24465543,-0.28544 0.3997741,-0.44437 0.4774904,-0.48317 z"
         id="path3468" />
      <path
         style="baseline-shift:baseline;display:inline;overflow:visible;vector-effect:none;fill:#6e855b;enable-background:accumulate;stop-color:#000000;stop-opacity:1"
         d="m -15.354414,171.43149 -0.656808,0.47232 c -1.008138,0.72467 -1.068849,1.44604 -0.232027,2.75952 0.403596,0.63348 1.091786,1.53883 1.529106,2.01177 0.717723,0.77615 0.942049,0.85754 2.316654,0.85834 -1.042582,-0.001 -1.376096,-0.12629 -1.913061,-0.72605 -0.507997,-0.56741 -0.650076,-1.01355 -0.644922,-2.02727 0.005,-0.99153 0.09737,-1.46635 0.465604,-1.38079 0.368231,0.0856 1.01247,0.73156 2.120801,1.98179 1.620776,1.82829 1.618166,2.15342 -0.01447,2.15387 0.844579,0 1.535823,-0.10749 1.535823,-0.23926 0,-0.68271 -1.38131,-2.71633 -2.848921,-4.19457 z"
         id="path3467" />
      <path
         style="baseline-shift:baseline;display:inline;overflow:visible;vector-effect:none;fill:#6e855b;enable-background:accumulate;stop-color:#000000;stop-opacity:1"
         d="m -8.9816767,171.20101 c -0.3007373,0.0294 -0.6464202,0.18825 -0.8955526,0.46354 -0.3956777,0.43721 -0.3989907,0.64591 -0.040824,2.36368 0.2160665,1.03626 0.5091289,2.18968 0.6511231,2.56315 0.2097703,0.55174 0.4328741,0.67903 1.190625,0.67903 0.8980943,0 0.9327596,-0.0361 0.9327596,-0.97358 0,-0.53544 -0.2511419,-1.75583 -0.5575887,-2.71198 -0.3064469,-0.95614 -0.6004021,-1.88723 -0.6531901,-2.06913 -0.070816,-0.24402 -0.3266146,-0.3441 -0.6273523,-0.31471 z m 0.1684652,1.21647 c 0.048977,0.004 0.1120869,0.0681 0.192753,0.17311 0.5027116,0.65417 1.3189959,3.75547 1.1229289,4.26641 -0.1692104,0.44096 -0.6458131,0.52915 -1.1368815,0.21084 -0.1832055,-0.11876 -0.3103866,-1.12082 -0.3271118,-2.57556 -0.017979,-1.56382 0.00138,-2.08768 0.1483114,-2.0748 z"
         id="path3466" />
      <path
         style="baseline-shift:baseline;display:inline;overflow:visible;vector-effect:none;fill:#6e855b;enable-background:accumulate;stop-color:#000000;stop-opacity:1"
         d="m -2.9965123,170.70595 c -0.1596322,0.004 -0.3846734,0.28429 -0.6960816,0.80977 -0.2802738,0.47294 -0.6455702,1.0143 -0.8118367,1.20303 -0.6537546,0.74208 -1.1021428,4.1487 -0.6108155,4.64003 0.2362198,0.2362 1.2021893,0.21708 1.5931845,-0.0315 0.6010779,-0.3822 0.8764322,-1.69389 0.8764322,-4.17494 0,-1.68736 -0.084829,-2.45218 -0.3508829,-2.44636 z m -0.4402832,1.51206 c 0.4159508,0.20047 0.7464017,2.70855 0.4149617,3.85919 -0.2660404,0.9236 -0.4156964,1.07195 -1.155485,1.14412 -0.8456476,0.0825 -0.8495606,0.0766 -0.8495606,-1.13533 0,-1.11565 0.6411501,-2.84685 1.4081828,-3.80184 0.061222,-0.0762 0.1224795,-0.0948 0.1819011,-0.0661 z"
         id="path3465" />
      <path
         style="baseline-shift:baseline;display:inline;overflow:visible;vector-effect:none;fill:#6e855b;enable-background:accumulate;stop-color:#000000;stop-opacity:1"
         d="m -20.473998,169.06264 c -0.411937,-0.0322 -0.12578,0.77795 0.771529,1.5658 0.514387,0.45164 0.981639,0.82114 1.038179,0.82114 0.218754,0 -0.769272,-1.73707 -1.161686,-2.04226 -0.295797,-0.23005 -0.51071,-0.33394 -0.648022,-0.34468 z"
         id="path3463" />
      <path
         style="baseline-shift:baseline;display:inline;overflow:visible;vector-effect:none;fill:#6e855b;enable-background:accumulate;stop-color:#000000;stop-opacity:1"
         d="m -0.34654488,165.0231 c -0.24146606,-0.10761 -0.62578347,0.008 -1.09192302,0.37517 -0.8505934,0.66908 -0.8540245,0.92254 -0.016536,1.13274 0.363802,0.0913 0.66145838,0.30668 0.66145838,0.47853 4e-7,0.58632 0.51427648,-0.18342 0.68161214,-1.0201 0.10547711,-0.52738 0.006855,-0.85874 -0.2346115,-0.96634 z"
         id="path3461" />
      <path
         style="baseline-shift:baseline;display:inline;overflow:visible;vector-effect:none;fill:#657b50;enable-background:accumulate;stop-color:#000000;stop-opacity:1"
         d="m 1.1784266,174.78436 c -0.077716,0.0388 -0.23283477,0.19773 -0.4774902,0.48317 -0.3653036,0.4262 -0.72082708,0.99174 -0.79013265,1.25677 -0.08706071,0.33292 0.02007677,0.48163 0.34571533,0.48163 0.30218574,0 0.52390753,-0.26111 0.61805013,-0.72761 0.0807596,-0.40018 0.22422159,-0.96573 0.31884359,-1.25677 0.063371,-0.19492 0.06273,-0.276 -0.014986,-0.23719 z"
         id="path3391" />
      <path
         style="baseline-shift:baseline;display:inline;overflow:visible;vector-effect:none;fill:#657b50;enable-background:accumulate;stop-color:#000000;stop-opacity:1"
         d="m -14.489868,173.39943 c -0.368231,-0.0856 -0.460564,0.38926 -0.465604,1.38079 -0.0052,1.01372 0.136925,1.45986 0.644922,2.02727 0.539625,0.60273 0.869559,0.7276 1.92443,0.7276 1.636047,0 1.638958,-0.32431 0.01705,-2.15387 -1.108331,-1.25023 -1.75257,-1.89623 -2.120801,-1.98179 z m 0.434599,0.96066 c 0.127844,0 0.792106,0.65484 1.475879,1.45521 l 1.243335,1.45521 h -1.217497 c -1.063596,0 -1.250486,-0.0857 -1.475879,-0.67851 -0.321261,-0.84498 -0.337411,-2.23191 -0.02584,-2.23191 z"
         id="path3390" />
      <path
         style="baseline-shift:baseline;display:inline;overflow:visible;vector-effect:none;fill:#657b50;enable-background:accumulate;stop-color:#000000;stop-opacity:1"
         d="m -8.8132115,172.41757 c -0.1469323,-0.0129 -0.1662904,0.51098 -0.1483114,2.0748 0.016725,1.45474 0.1439063,2.4568 0.3271118,2.57556 0.4910684,0.31831 0.9676711,0.23012 1.1368815,-0.21084 0.196067,-0.51094 -0.6202173,-3.61224 -1.1229289,-4.26641 -0.080666,-0.10497 -0.1437756,-0.16882 -0.192753,-0.17311 z"
         id="path3388" />
      <path
         style="baseline-shift:baseline;display:inline;overflow:visible;vector-effect:none;fill:#657b50;enable-background:accumulate;stop-color:#000000;stop-opacity:1"
         d="m -3.4367955,172.2181 c -0.059422,-0.0286 -0.1206786,-0.0101 -0.1819011,0.0661 -0.7670327,0.95499 -1.4081828,2.68619 -1.4081828,3.80184 0,1.21192 0.00391,1.21783 0.8495606,1.13533 0.7397886,-0.0722 0.8894446,-0.22052 1.155485,-1.14412 0.33144,-1.15064 9.891e-4,-3.65872 -0.4149617,-3.85919 z m -0.1488282,0.68678 0.085266,1.33997 c 0.1004311,1.58255 -0.2809099,2.76108 -0.8934856,2.76108 -0.353941,0 -0.4124063,-0.1909 -0.3038574,-0.99219 0.073925,-0.54571 0.3542811,-1.46843 0.6232178,-2.05052 z"
         id="path3386" />
      <path
         style="baseline-shift:baseline;display:inline;overflow:visible;vector-effect:none;fill:#587245;enable-background:accumulate;stop-color:#000000;stop-opacity:1"
         d="m -14.055269,174.36031 c -0.311573,0 -0.295423,1.38693 0.02584,2.23191 0.225393,0.59279 0.412283,0.67851 1.475879,0.67851 h 1.217497 l -1.243335,-1.45521 c -0.683773,-0.80037 -1.348035,-1.45521 -1.475879,-1.45521 z"
         id="path3342" />
      <path
         style="baseline-shift:baseline;display:inline;overflow:visible;vector-effect:none;fill:#587245;enable-background:accumulate;stop-color:#000000;stop-opacity:1"
         d="m -3.5856237,172.9051 -0.488859,1.05834 c -0.2689367,0.58209 -0.5492928,1.50481 -0.6232178,2.05052 -0.1085489,0.80129 -0.050084,0.99219 0.3038574,0.99219 0.6125757,0 0.9939167,-1.17853 0.8934856,-2.76108 z"
         id="path3339" />
    </g>
  </g>
</svg>
