<?xml version="1.0" encoding="UTF-8" standalone="no"?>
<!-- Created with Inkscape (http://www.inkscape.org/) -->

<svg
   width="64.41539mm"
   height="58.992348mm"
   viewBox="0 0 64.41539 58.992348"
   version="1.1"
   id="svg1"
   xmlns="http://www.w3.org/2000/svg"
   xmlns:svg="http://www.w3.org/2000/svg">
  <defs
     id="defs1" />
  <g
     id="layer1"
     transform="translate(-55.297918,-112.44792)">
    <g
       id="g1995"
       transform="translate(94.330421,43.317916)">
      <path
         style="fill:#cfc4ac"
         d="m -35.718744,128.05835 -1.984375,-0.13229 2.248959,-0.88026 c 2.592127,-1.01458 7.902059,-2.41655 9.260416,-2.44501 l 0.926041,-0.0194 -1.190624,-0.5381 c -0.654844,-0.29596 -3.203282,-1.2329 -5.663196,-2.08209 -5.747921,-1.98424 -6.243644,-2.42906 -3.522674,-3.161 3.291701,-0.88545 8.453761,-0.70132 11.800739,0.42095 1.858974,0.62333 5.034673,2.44357 6.313774,3.61892 0.326848,0.30033 0.662036,0.4783 0.744861,0.39547 0.220962,-0.22096 -6.179944,-7.03816 -8.661837,-9.22517 -1.172456,-1.03315 -2.817712,-2.31337 -3.656125,-2.84493 -0.838412,-0.53155 -1.747256,-1.10913 -2.019652,-1.2835 -0.81354,-0.52077 0.04374,-0.86556 2.150568,-0.86494 5.182976,0.002 9.811128,2.20125 14.074587,6.68956 1.794797,1.88946 4.145711,5.41854 4.482812,6.7294 0.218454,0.84948 1.1540583,0.80235 1.1540583,-0.0581 0,-1.17358 -0.8205823,-6.31179 -1.3346493,-8.35713 -0.9359,-3.72369 -2.739818,-7.86177 -4.897763,-11.23519 l -0.99805,-1.5602 -0.362357,1.04664 c -0.4992,1.44191 -0.932727,1.83804 -1.613082,1.47392 -0.700441,-0.37486 -1.642015,-1.91228 -1.642015,-2.6811 0,-0.55454 -0.03868,-0.57118 -0.463021,-0.19911 -1.243362,1.09018 -3.139423,1.57102 -4.013444,1.01781 -0.319936,-0.2025 -0.304927,-0.42222 0.10155,-1.48656 0.262335,-0.686918 0.683268,-1.455234 0.935405,-1.707372 0.434854,-0.434853 0.408289,-0.480555 -0.516514,-0.888577 -1.164934,-0.513968 -2.255281,-1.604021 -2.006728,-2.006188 0.30628,-0.495572 2.010105,-1.073911 3.163811,-1.073911 1.098363,0 1.104544,-0.0055 1.001463,-0.888445 -0.103243,-0.884355 0.68073,-2.849451 1.286031,-3.223548 0.416105,-0.257167 1.77079,1.133291 2.112301,2.168081 l 0.290169,0.879221 0.972718,-0.7685 c 0.970792,-0.76698 2.840184,-1.445292 3.262991,-1.183983 0.562881,0.347879 -0.08001,2.830413 -0.994725,3.841165 -0.369295,0.408066 -0.328586,0.471798 0.473111,0.740689 0.482446,0.161813 1.353424,0.699509 1.935507,1.194879 l 1.058333,0.900673 -1.455208,0.680841 c -0.800365,0.374462 -1.663568,0.682004 -1.918229,0.683425 -0.254662,0.0014 -0.463021,0.06617 -0.463021,0.143881 0,0.07771 0.581283,1.000449 1.29174,2.050519 1.773017,2.62057 2.762043,4.44725 3.754146,6.93372 0.8738096,2.18999 1.990322,5.82264 2.3578516,7.67144 0.2337104,1.17563 0.2135954,1.74917 0.4293619,-12.24223 0.1064969,-6.905798 0.068376,-8.06815 -0.2758976,-8.412424 -0.497644,-0.497644 -1.0280385,-2.401684 -0.8541985,-3.066449 0.1178601,-0.450698 0.012663,-0.480742 -1.1453835,-0.327122 -1.0277969,0.136342 -1.5108949,0.05143 -2.4903499,-0.437737 -0.668353,-0.333792 -1.215187,-0.753799 -1.215187,-0.93335 0,-0.492661 1.560043,-1.704151 2.414503,-1.875043 l 0.75312,-0.150624 -0.632962,-0.752232 c -0.641152,-0.761966 -1.13161,-2.639349 -0.82087,-3.142137 0.283728,-0.459082 1.072427,-0.31136 2.5846032,0.484091 l 1.4417122,0.758385 0.310397,-0.824531 c 0.5197238,-1.380581 2.3550874,-3.041403 2.952803,-2.671995 0.1414105,0.0874 0.25711,1.044845 0.25711,2.127663 0,1.082818 0.089297,1.964541 0.1984375,1.959385 0.1091406,-0.0052 0.4960937,-0.179532 0.8598958,-0.3875 0.363802,-0.207968 1.3014192,-0.382343 2.0835936,-0.387499 l 1.42213535,-0.0094 -0.16489405,0.859896 c -0.10231212,0.533541 -0.60627886,1.282109 -1.3278772,1.972365 l -1.1629831,1.11247 0.5968985,0.391102 c 0.75623606,0.495505 1.80870638,2.568587 1.47397029,2.903324 -0.4080385,0.408038 -3.00149649,0.27788 -3.91922339,-0.196695 -0.7937725,-0.410476 -0.8537033,-0.410679 -0.8537033,-0.0029 0,0.241222 -0.2562452,0.853199 -0.5694337,1.359949 -0.5577109,0.902395 -0.5659204,1.066446 -0.3987748,7.968728 0.093862,3.87605 0.1809147,8.89284 0.1934495,11.14841 l 0.022791,4.10104 0.608618,-2.38125 c 1.2397584,-4.85062 3.0615192,-8.82694 5.78004267,-12.616 l 1.42694463,-1.98887 -1.21671437,-0.31491 c -0.66919292,-0.1732 -1.50388325,-0.53357 -1.85486743,-0.800812 L -1.673176,99.284153 -0.55667948,98.475367 C 0.05739324,98.030516 0.90964373,97.589728 1.3372101,97.495818 L 2.1146035,97.325074 1.454179,96.198145 C 1.0640842,95.532498 0.79375446,94.660341 0.79375446,94.067436 v -1.003779 l 1.07725274,0.14449 c 0.592489,0.07947 1.5312434,0.444927 2.086121,0.812127 l 1.0088683,0.667638 0.6355522,-0.893244 C 5.9511025,93.303384 6.5577894,92.649171 6.949742,92.340861 l 0.7126409,-0.560564 0.5491645,0.874955 c 0.4242781,0.67598 0.5258223,1.190844 0.4465218,2.264017 l -0.1026428,1.389063 1.2123929,4.11e-4 c 1.3903807,4.71e-4 3.0235877,0.714447 3.1467387,1.375634 0.05826,0.31281 -0.32197,0.65563 -1.247198,1.124479 -0.732058,0.370961 -1.534321,0.674476 -1.7828059,0.674476 -0.3992046,0 -0.3886786,0.06929 0.090433,0.595308 0.7933559,0.87104 1.1375169,1.64627 1.1375169,2.5623 0,0.78112 -0.0427,0.81114 -1.1537031,0.81114 -0.7929937,0 -1.4571581,-0.20593 -2.1242819,-0.65865 l -0.970579,-0.65865 -0.2727206,0.72479 c -0.2751912,0.73137 -2.0289476,2.70918 -2.4022693,2.70918 -0.3461692,0 -0.7951678,-1.07189 -0.9746804,-2.32684 l -0.172241,-1.20411 -0.9505832,1.56704 c -3.475601,5.72953 -4.963737,9.8289 -5.9118346,16.28536 -0.5045675,3.43606 -0.5138093,3.14105 0.098397,3.14105 0.2990489,0 0.5881739,-0.24715 0.6964137,-0.59531 0.2758599,-0.88733 2.22046206,-3.81442 3.76429856,-5.66618 2.49595314,-2.99378 6.39936374,-5.52784 9.86497884,-6.40425 2.661497,-0.67306 4.782035,-0.89663 5.271304,-0.55575 0.332333,0.23153 0.248122,0.39323 -0.517828,0.99431 -2.477916,1.94452 -5.258044,4.59251 -7.5066126,7.14981 -1.3678199,1.55563 -2.9609607,3.36419 -3.5403128,4.01903 -1.8895057,2.13572 -1.856618,2.55143 0.075751,0.95753 3.3609246,-2.77225 6.6122374,-4.104 11.3567114,-4.65175 2.638524,-0.30462 6.096958,0.033 6.934133,0.67701 0.448469,0.34497 0.438307,0.39298 -0.187258,0.88482 -0.363802,0.28603 -2.62599,1.38071 -5.027083,2.43262 -2.401094,1.05192 -4.466034,1.99731 -4.588755,2.10087 -0.122722,0.10356 0.413059,0.27501 1.190625,0.381 3.280976,0.44723 10.421104,2.71854 9.968587,3.17106 -0.15047,0.15047 -57.572015,0.27757 -59.751705,0.13226 z"
         id="path876" />
      <path
         style="baseline-shift:baseline;display:inline;overflow:visible;vector-effect:none;fill:#c9baa0;enable-background:accumulate;stop-color:#000000;stop-opacity:1"
         d="m -25.217065,127.00383 c -0.189341,0.002 -0.156819,0.10634 0.08165,0.26045 0.508297,0.32849 0.599891,0.32849 0.396875,0 -0.08994,-0.14552 -0.30521,-0.26245 -0.478523,-0.26045 z"
         id="path1557" />
      <path
         style="baseline-shift:baseline;display:inline;overflow:visible;vector-effect:none;fill:#c9baa0;enable-background:accumulate;stop-color:#000000;stop-opacity:1"
         d="m -25.796875,124.62675 c -0.145521,0 -0.08599,0.11525 0.132292,0.25631 0.218281,0.14107 0.515937,0.25632 0.661458,0.25632 0.145521,0 0.08599,-0.11525 -0.132292,-0.25632 -0.218281,-0.14106 -0.515937,-0.25631 -0.661458,-0.25631 z"
         id="path1555" />
      <path
         style="baseline-shift:baseline;display:inline;overflow:visible;vector-effect:none;fill:#c9baa0;enable-background:accumulate;stop-color:#000000;stop-opacity:1"
         d="m -4.8477661,83.127743 c -0.6352449,-0.125035 -2.5345286,1.871233 -2.7352336,2.874759 l -0.1519287,0.760161 -0.82889,-0.624768 c -0.6984903,-0.526922 -2.7905546,-1.324701 -2.9719116,-1.133264 -0.103325,0.109073 -0.169049,0.84754 -0.137459,1.543575 0.01724,0.379875 0.313489,1.105391 0.657841,1.612821 l 0.625801,0.922941 -0.824239,0.311092 c -0.453492,0.17115 -1.181944,0.608868 -1.618506,0.972551 l -0.79375,0.660941 0.661459,0.517281 c 0.816573,0.638722 2.085725,0.903144 3.4561195,0.719336 l 1.0417968,-0.140043 v 1.394747 c 0,0.998373 0.1516123,1.587223 0.5343343,2.073775 0.5154851,0.655328 0.5335484,1.026441 0.5079794,10.420552 -0.014582,5.35758 -0.1221147,10.21726 -0.2392619,10.79934 -0.1305098,0.64848 -0.224752,0.81594 -0.243396,0.43253 -0.042701,-0.87814 -1.2754342,-5.32144 -2.039152,-7.35045 -0.9605281,-2.55189 -2.3778861,-5.25285 -4.1098271,-7.83105 -1.559037,-2.320817 -1.724056,-2.628168 -1.355989,-2.52646 0.521104,0.143996 2.386262,-0.377298 2.970878,-0.83044 l 0.655774,-0.508496 -0.765845,-0.614433 c -1.143554,-0.917797 -1.802339,-1.256686 -2.463932,-1.267106 -0.695168,-0.01095 -0.766094,-0.331826 -0.180868,-0.817521 1.184499,-0.983046 1.650797,-3.689697 0.63562,-3.689697 -0.854453,0 -2.317563,0.706858 -3.010152,1.454174 l -0.636653,0.68678 -0.306442,-0.928625 c -0.168611,-0.510897 -0.656961,-1.304247 -1.085205,-1.762683 -0.628666,-0.672989 -0.85173,-0.772983 -1.158585,-0.518315 -0.547678,0.454532 -1.25415,2.756068 -1.070736,3.488159 0.14885,0.594125 0.09077,0.623945 -1.244885,0.641305 -0.787232,0.01023 -1.786674,0.220803 -2.281515,0.480591 -0.811002,0.425772 -0.851779,0.505964 -0.515214,1.012858 0.200988,0.302704 0.929705,0.845622 1.619023,1.206644 1.117864,0.58547 1.212423,0.702735 0.877466,1.085722 -0.586693,0.670819 -1.233,2.068223 -1.233,2.665473 0,0.83372 2.194359,0.76553 3.479891,-0.10801 l 0.956531,-0.65009 0.155546,0.77825 c 0.08559,0.42795 0.568907,1.22652 1.073836,1.77457 0.898792,0.97554 0.926259,0.98522 1.326534,0.46715 0.224869,-0.29104 0.549201,-0.97743 0.72037,-1.52548 l 0.311092,-0.99632 1.030428,1.52548 c 2.988911,4.42524 5.046905,10.02895 5.8833615,16.02021 0.2279016,1.63238 0.4694551,3.29521 0.5369181,3.69539 0.1038164,0.61583 0.03062,0.7276 -0.4769734,0.7276 -0.4675202,0 -0.7635422,-0.33536 -1.3430702,-1.52135 -3.03076,-6.20232 -8.660472,-10.8469 -14.663705,-12.09797 -2.794452,-0.58236 -5.605342,-0.51894 -5.605342,0.1266 0,0.11489 0.922734,0.77621 2.050521,1.46968 1.526607,0.9387 3.345909,2.55979 7.120495,6.34535 2.788489,2.79659 5.274711,5.4805 5.524727,5.96398 l 0.454236,0.87901 -1.290877,-1.07073 c -3.238211,-2.68545 -5.097591,-3.61412 -8.938472,-4.46485 -1.56789,-0.34723 -2.792335,-0.4298 -4.894792,-0.32917 -2.740474,0.13116 -6.111255,0.84231 -6.111255,1.28932 0,0.3866 1.840545,1.17189 6.085417,2.59623 5.191093,1.74184 6.513936,2.37782 6.389791,3.07319 -0.05092,0.28524 -0.205268,0.58878 -0.343132,0.67438 -0.137864,0.0856 -0.04381,0.32373 0.20929,0.52917 0.296852,0.24095 0.389653,0.25623 0.261482,0.0429 -0.109285,-0.1819 -0.07246,-0.33073 0.08165,-0.33073 0.154109,0 0.280086,0.23813 0.280086,0.52917 0,0.35278 0.176389,0.52916 0.529167,0.52916 0.703528,0 0.939846,-0.0909 0.859896,-0.33073 -0.126608,-0.37982 0.596165,-0.0634 0.755509,0.33073 0.129787,0.32104 -0.173565,0.42541 -1.5875,0.54622 -0.96137,0.0822 5.753241,0.14129 14.9210533,0.13229 13.1028895,-0.0134 16.6548277,-0.0871 16.6036377,-0.34468 -0.08441,-0.42471 1.9302001,-1.76144 2.305286,-1.52962 0.158349,0.0979 0.25414,0.0201 0.21394,-0.17363 -0.04021,-0.1938 0.132547,-0.33429 0.387057,-0.31419 0.253095,0.02 0.406144,-0.0519 0.339514,-0.15969 -0.06663,-0.10781 0.172511,-0.32982 0.53175,-0.4935 0.399544,-0.18205 0.65319,-0.19713 0.65319,-0.0388 0,0.14243 0.386953,0.24899 0.859896,0.23719 l 0.859896,-0.0212 -0.754993,-0.33383 c -0.740612,-0.32733 -0.682831,-0.36518 3.042709,-1.99782 7.307826,-3.2025 7.770606,-3.55212 5.497855,-4.15271 -2.791021,-0.73755 -8.751662,-0.19126 -11.9083168,1.0914 -1.9824753,0.80555 -4.7956786,2.66376 -6.2957397,4.15841 l -1.1492839,1.14514 0.5302002,-1.05833 C 3.8662,121.93504 11.904295,113.29605 14.59756,111.33476 c 0.848129,-0.61762 1.542024,-1.23213 1.542024,-1.3653 0,-0.13805 -0.938095,-0.18276 -2.182812,-0.10386 -4.3887374,0.27825 -8.7475023,2.43658 -12.279354,6.07973 -1.7858245,1.84211 -4.0410915,4.98675 -4.565096,6.36498 -0.1356706,0.35684 -0.4941276,0.7132 -0.7963339,0.7922 -0.7009219,0.1833 -0.7018811,-0.0489 -0.01757,-4.30464 0.8787169,-5.46474 3.02655168,-11.156 5.7686401,-15.28589 l 0.9704834,-1.46089 0.1850016,1.08468 c 0.2171774,1.27218 0.6495327,2.16835 1.0464478,2.16835 0.5361477,0 2.0848745,-1.80578 2.2479248,-2.62103 0.151785,-0.75893 0.6268351,-1.16894 0.6268351,-0.54105 0,0.40983 2.1159098,1.29731 3.1088541,1.30431 0.745955,0.005 0.859896,-0.0832 0.859896,-0.66611 0,-0.7428 -0.874922,-2.62347 -1.3601238,-2.923336 -0.1852998,-0.114522 0.2112554,-0.394997 0.9885698,-0.699699 1.328462,-0.520749 2.223637,-1.157561 2.223637,-1.581816 0,-0.508692 -2.440631,-1.329218 -3.5739418,-1.201477 l -1.113628,0.125624 0.2485636,-0.979785 C 8.8277139,94.329429 8.3782475,92.390323 7.7437134,92.14683 7.2035396,91.939546 5.2916667,94.011884 5.2916667,94.804549 c 0,0.51288 -0.042429,0.503839 -0.7276042,-0.152445 -0.8032403,-0.769371 -2.3985128,-1.518771 -3.2328776,-1.518771 -0.41911254,0 -0.5374349,0.17232 -0.5374349,0.781348 0,0.946865 0.447871,2.054559 1.1549683,2.856673 0.2886363,0.327421 0.4741245,0.604137 0.4123779,0.61495 -1.1408466,0.199797 -1.58916956,0.362269 -2.54764812,0.923974 -0.62504736,0.366303 -1.13636478,0.777608 -1.13636478,0.91364 0,0.376316 1.06174465,0.976092 2.30941979,1.304832 l 1.11827801,0.29455 -1.68206788,2.43913 c -2.81450882,4.07975 -4.67830452,8.42567 -5.86734212,13.6834 l -0.5084961,2.24896 -0.1369425,-11.77396 c -0.1269581,-10.919509 -0.1029569,-11.833601 0.3307291,-12.598711 0.257192,-0.453739 0.4676717,-1.059145 0.4676717,-1.345137 0,-0.771396 0.2943035,-0.927966 0.8314738,-0.441834 0.3065177,0.277395 1.1439831,0.47999 2.3368083,0.56534 1.69177956,0.121046 1.85866786,0.0884 1.85776774,-0.365352 -0.001409,-0.710337 -0.91276834,-2.111492 -1.71565754,-2.637565 l -0.6836792,-0.448035 0.7663615,-0.466121 c 0.94246559,-0.573148 1.87215769,-1.83905 1.96318764,-2.673739 0.06464531,-0.592758 -0.0058592,-0.621905 -1.44487304,-0.593245 -0.9091288,0.01811 -1.7764808,0.202876 -2.1735107,0.46302 -0.3633711,0.23809 -0.6948892,0.432933 -0.7363892,0.433049 -0.0415,1.15e-4 -0.075448,-0.920053 -0.075448,-2.044836 0,-1.767319 -0.065561,-2.057921 -0.4821407,-2.139921 z m -1.6190226,6.036841 c 0.209693,0 0.381372,0.119063 0.381372,0.264584 0,0.145518 -0.1488281,0.234817 -0.3307291,0.198437 -0.1819013,-0.03638 -0.3009634,0.08268 -0.2645834,0.264583 0.079408,0.397042 -0.1036048,0.433641 -0.3307291,0.06615 -0.2214669,-0.358341 0.077259,-0.79375 0.5446696,-0.79375 z m -12.8286743,7.455358 c 0.366886,-0.04664 0.77463,0.238616 0.77463,0.656808 0,0.41555 -0.03152,0.412488 -0.356568,-0.03204 -0.270447,-0.369858 -0.406039,-0.406535 -0.562756,-0.152962 -0.120033,0.194219 -0.05426,0.430626 0.157613,0.564823 0.276074,0.174862 0.282538,0.232028 0.02584,0.235128 -0.462922,0.0055 -0.722292,-0.759788 -0.375171,-1.106909 0.09662,-0.09662 0.214119,-0.149301 0.336414,-0.164848 z m 15.2900227,26.940478 c 0.1253413,0 0.1708308,0.29765 0.1012858,0.66145 -0.069545,0.36381 -0.172097,0.66146 -0.227893,0.66146 -0.055796,0 -0.1012858,-0.29765 -0.1012858,-0.66146 0,-0.3638 0.1025519,-0.66145 0.227893,-0.66145 z m -19.6747677,2.64552 c 0.235454,0 0.354523,0.11906 0.264583,0.26458 -0.08994,0.14552 -0.209003,0.26459 -0.264583,0.26459 -0.05558,0 -0.174644,-0.11907 -0.264584,-0.26459 -0.08994,-0.14552 0.02913,-0.26458 0.264584,-0.26458 z m 2.069641,0.74879 c 0.04186,0.0507 0.06615,0.1578 0.06615,0.31316 0,0.6012 -0.04939,0.64024 -0.298173,0.23771 -0.09777,-0.1582 -0.0703,-0.39426 0.06046,-0.52503 0.07031,-0.0703 0.129705,-0.0765 0.171566,-0.0258 z"
         id="path1552" />
      <path
         style="fill:#f3c84d"
         d="m -20.637494,127.12452 c -1.986308,-1.49879 -6.800209,-3.7376 -11.383199,-5.29403 -5.698348,-1.93521 -5.98247,-2.16704 -3.499613,-2.85556 2.507672,-0.69541 5.936581,-0.8246 8.797395,-0.33146 3.643822,0.62811 6.008109,1.82569 10.016093,5.07345 l 0.887967,0.71954 -0.400043,-0.76875 c -0.504158,-0.96882 -5.887176,-6.67472 -9.11206,-9.65862 -1.344476,-1.244 -3.21971,-2.71519 -4.167188,-3.26929 -0.947477,-0.55411 -1.722685,-1.10037 -1.722685,-1.21392 0,-0.4177 2.10712,-0.54408 4.228503,-0.25363 4.027473,0.55144 7.7608,2.40056 11.185683,5.54026 2.591205,2.37545 5.313673,6.92716 6.396634,10.69457 0.2450226,0.85239 0.5017216,1.49357 0.5704423,1.42485 0.2997825,-0.29978 -0.8842479,-10.20719 -1.4938273,-12.49964 -1.110567,-4.17652 -3.145639,-8.84306 -5.216837,-11.96251 l -0.961665,-1.44837 -0.351448,1.0169 c -0.193297,0.55929 -0.566838,1.23278 -0.830092,1.49663 -0.462097,0.46315 -0.507919,0.44639 -1.325428,-0.4847 -0.46573,-0.53044 -0.915244,-1.30674 -0.99892,-1.72512 l -0.152137,-0.76068 -0.956665,0.65007 c -1.285532,0.87354 -3.47966,0.94149 -3.47966,0.10777 0,-0.59725 0.646409,-1.994394 1.233102,-2.665213 0.334957,-0.382987 0.240101,-0.500325 -0.877763,-1.085795 -0.689318,-0.361022 -1.417749,-0.904071 -1.618737,-1.206775 -0.336565,-0.506894 -0.295873,-0.586888 0.515129,-1.01266 0.494841,-0.259788 1.494193,-0.470266 2.281425,-0.480501 1.335659,-0.01736 1.393597,-0.04722 1.244747,-0.641345 -0.183414,-0.732091 0.523054,-3.033483 1.070732,-3.488015 0.306855,-0.254668 0.530009,-0.154883 1.158675,0.518106 0.428244,0.458436 0.916579,1.251526 1.08519,1.762423 l 0.306566,0.928903 0.636727,-0.687039 c 0.692589,-0.747316 2.155422,-1.453954 3.009875,-1.453954 1.015177,0 0.548984,2.706642 -0.635515,3.689688 -0.585226,0.485695 -0.514176,0.806656 0.180992,0.817604 0.97113,0.01529 3.285956,1.606682 3.00301,2.064498 -0.27131,0.438989 -1.942045,1.101127 -2.778413,1.101127 -0.45095,0 -0.819909,0.05542 -0.819909,0.123149 0,0.06773 0.778718,1.311659 1.730485,2.764269 0.951767,1.45262 2.190668,3.63719 2.753114,4.8546 1.2042422,2.60658 2.8407988,7.63764 3.0861916,9.48751 0.4523588,3.41004 0.632292,0.72563 0.632292,-9.43312 0,-10.619604 -0.019237,-11.044691 -0.5291667,-11.692961 -0.3771241,-0.479436 -0.5291666,-1.073358 -0.5291666,-2.067077 v -1.39435 l -1.0415747,0.139705 c -1.3703946,0.183808 -2.6397686,-0.08024 -3.4563416,-0.718962 l -0.661458,-0.517393 0.79375,-0.661242 c 0.436562,-0.363683 1.164788,-0.801274 1.61828,-0.972424 l 0.824531,-0.311181 -0.626093,-0.9226 c -0.344352,-0.50743 -0.6402,-1.233407 -0.657442,-1.613282 -0.03159,-0.696035 0.0342,-1.434334 0.137525,-1.543407 0.181357,-0.191437 2.2731551,0.606164 2.9716454,1.133086 l 0.8288637,0.625271 0.152127,-0.760634 c 0.200705,-1.003526 2.0999366,-2.999407 2.7351815,-2.874372 0.4165799,0.082 0.4820471,0.372623 0.4820471,2.139942 0,1.124783 0.033955,2.044965 0.075455,2.04485 0.0415,-1.16e-4 0.3727583,-0.195011 0.7361294,-0.433101 0.3970299,-0.260144 1.2643747,-0.444914 2.1735035,-0.463021 1.43901389,-0.02866 1.50951275,2.76e-4 1.44486744,0.593034 -0.09102995,0.834689 -1.02021833,2.100438 -1.96268394,2.673586 l -0.7666978,0.466256 0.6836988,0.447977 c 0.8028892,0.526073 1.71437114,1.927252 1.71578025,2.637589 9.0012e-4,0.45375 -0.16612979,0.486615 -1.85790935,0.365569 -1.1928252,-0.08535 -2.0300576,-0.287901 -2.3365753,-0.565296 -0.550238,-0.497958 -0.8316094,-0.327662 -0.8316094,0.503321 0,0.319923 -0.2159659,0.865627 -0.4799242,1.212673 -0.4523523,0.594743 -0.4713529,1.315017 -0.3307292,12.537244 l 0.1491951,11.90625 0.8225702,-3.30729 c 0.4524136,-1.81901 1.3409919,-4.5533 1.9746186,-6.07619 1.1144,-2.67842 3.58702398,-6.82115 4.9193728,-8.24211 L 2.4125271,100.87694 1.14012,100.55977 c -1.36638273,-0.3406 -2.4630321,-0.93543 -2.4630321,-1.335968 0,-0.136032 0.51140239,-0.547032 1.13644975,-0.913335 C 0.77201621,97.748762 1.2203825,97.586123 2.3612291,97.386326 2.4229757,97.375513 2.2373386,97.098774 1.9487023,96.771353 1.241605,95.969239 0.79375446,94.861497 0.79375446,93.914632 c 0,-0.609028 0.1185522,-0.7813 0.53766474,-0.7813 0.8343648,0 2.4294073,0.749374 3.2326476,1.518745 0.6851755,0.656284 0.7276041,0.665164 0.7276041,0.152284 0,-0.792665 1.9118877,-2.864558 2.4520615,-2.657274 0.6345341,0.243493 1.0840441,2.182479 0.781908,3.372801 L 8.2769961,96.49947 9.3904798,96.373965 c 1.1333112,-0.127741 3.5741072,0.692707 3.5741072,1.201399 0,0.424255 -0.895356,1.061167 -2.223818,1.581916 -0.7773148,0.304702 -1.173706,0.585399 -0.9884062,0.699921 0.4852012,0.299869 1.3601412,2.180079 1.3601412,2.922879 0,0.58296 -0.113941,0.67123 -0.859896,0.66619 -0.9929444,-0.007 -3.1088539,-0.89434 -3.1088539,-1.30417 0,-0.62789 -0.4749467,-0.21789 -0.6267317,0.54104 -0.1664867,0.83243 -1.7160356,2.62102 -2.2707273,2.62102 -0.418002,0 -1.0712908,-1.64646 -1.0712908,-2.69994 v -0.86487 l -0.881975,1.31939 c -2.91842472,4.3658 -5.0414937,9.79552 -5.9472507,15.21001 -0.6360727,3.80235 -0.9532292,8.21334 -0.5136458,7.14375 2.3037056,-5.60539 5.06134515,-9.3726 8.8387373,-12.07461 2.8816158,-2.06124 5.6979799,-3.10005 9.3164419,-3.43635 2.269477,-0.21093 2.379965,0.0196 0.630921,1.31652 -2.635688,1.95435 -11.0087719,10.98266 -12.0152294,12.95548 l -0.536984,1.05258 1.7427737,-1.56046 c 3.2855115,-2.9418 6.3008527,-4.4071 10.3464187,-5.02781 2.810905,-0.43128 5.319785,-0.43585 7.122306,-0.013 2.479286,0.58165 2.138352,0.87435 -4.357736,3.74131 -5.113319,2.25669 -7.4763543,3.48984 -9.2187631,4.8108 L 6.5384921,128.0583 -6.4541887,128.0406 -19.446869,128.0229 Z M 6.5624307,98.52482 c 0.1018498,-0.713829 -0.6922161,-1.056342 -1.2216229,-0.526935 -0.5390853,0.539086 -0.195648,1.278446 0.5449927,1.173275 0.37124,-0.05272 0.6267568,-0.296795 0.6766302,-0.64634 z M -18.939342,97.999816 c 0.496082,-0.190365 0.562779,-1.331076 0.08779,-1.501392 -0.451453,-0.161874 -1.256771,0.281767 -1.256771,0.692342 0,0.184057 0.142875,0.477524 0.3175,0.652149 0.371035,0.371035 0.318627,0.361378 0.851486,0.156901 z m 13.0756979,-8.142072 c 0.094937,-0.497749 -0.3429736,-0.946073 -0.9315422,-0.953694 -0.3798277,-0.0049 -0.7152803,0.93955 -0.4729627,1.331628 0.2758815,0.446385 1.2998337,0.170854 1.4045049,-0.377934 z"
         id="path1606" />
      <path
         style="fill:#6e9084"
         d="m -20.637494,127.12452 c -1.986308,-1.49879 -6.800209,-3.7376 -11.383199,-5.29403 -5.698348,-1.93521 -5.98247,-2.16704 -3.499613,-2.85556 2.507672,-0.69541 5.936581,-0.8246 8.797395,-0.33146 3.643822,0.62811 6.008109,1.82569 10.016093,5.07345 l 0.887967,0.71954 -0.400043,-0.76875 c -0.504158,-0.96882 -5.887176,-6.67472 -9.11206,-9.65862 -1.344476,-1.244 -3.21971,-2.71519 -4.167188,-3.26929 -0.947477,-0.55411 -1.722685,-1.10037 -1.722685,-1.21392 0,-0.4177 2.10712,-0.54408 4.228503,-0.25363 4.027473,0.55144 7.7608,2.40056 11.185683,5.54026 2.591205,2.37545 5.313673,6.92716 6.396634,10.69457 0.2450226,0.85239 0.5017216,1.49357 0.5704423,1.42485 0.2997825,-0.29978 -0.8842479,-10.20719 -1.4938273,-12.49964 -1.120777,-4.21492 -3.207034,-8.9794 -5.271395,-12.03854 -1.515437,-2.2457 -1.637061,-3.377353 -0.285224,-2.653871 0.679908,0.363871 3.58413,4.933381 4.778339,7.518241 1.1912251,2.5784 2.8268694,7.614 3.0710516,9.45474 0.4527242,3.4128 0.632292,0.72128 0.632292,-9.47735 0,-10.777927 0.013704,-11.073031 0.5291666,-11.394942 0.6581095,-0.410997 0.5712899,-1.769576 0.7653955,11.977142 l 0.1606461,11.37708 0.8225702,-3.30729 c 1.0517236,-4.22865 2.711611,-8.20872 4.68578638,-11.23557 1.83790372,-2.81791 2.74781582,-3.84568 3.40468582,-3.84568 0.6760755,0 0.6124348,0.24156 -0.5294196,2.0095 -3.18598839,4.93289 -5.1661197,9.96171 -6.084724,15.453 -0.6360727,3.80235 -0.9532292,8.21334 -0.5136458,7.14375 2.3037056,-5.60539 5.06134515,-9.3726 8.8387373,-12.07461 2.8816158,-2.06124 5.6979799,-3.10005 9.3164419,-3.43635 2.269477,-0.21093 2.379965,0.0196 0.630921,1.31652 -2.635688,1.95435 -11.0087719,10.98266 -12.0152294,12.95548 l -0.536984,1.05258 1.7427737,-1.56046 c 3.2855115,-2.9418 6.3008527,-4.4071 10.3464187,-5.02781 2.810905,-0.43128 5.319785,-0.43585 7.122306,-0.013 2.479286,0.58165 2.138352,0.87435 -4.357736,3.74131 -5.113319,2.25669 -7.4763543,3.48984 -9.2187631,4.8108 l -1.1625268,0.88134 -12.9926808,-0.0177 -12.9926803,-0.0177 z"
         id="path1632" />
      <path
         style="fill:#668777"
         d="m -25.018279,110.48517 c -0.684774,-0.50072 -0.350189,-0.77632 0.670344,-0.55217 0.67251,0.1477 0.767988,0.25034 0.515689,0.55434 -0.387168,0.46651 -0.545477,0.46622 -1.186033,-0.002 z"
         id="path1760" />
      <path
         style="fill:#668777"
         d="m 6.6145875,112.33424 c 0,-0.0728 0.238125,-0.25973 0.5291666,-0.41549 0.2910417,-0.15576 0.5291667,-0.22367 0.5291667,-0.15091 0,0.0728 -0.238125,0.25973 -0.5291667,0.41549 -0.2910416,0.15576 -0.5291666,0.22367 -0.5291666,0.15091 z"
         id="path1759" />
      <path
         style="fill:#668777"
         d="m 11.112504,113.93552 c 0,-0.0549 0.208359,-0.2633 0.463021,-0.46302 0.419644,-0.32911 0.429002,-0.31975 0.0999,0.0999 -0.345644,0.44073 -0.562916,0.58089 -0.562916,0.36313 z"
         id="path1757" />
      <path
         style="fill:#668777"
         d="m -22.754161,114.03541 c 0,-0.14552 0.126089,-0.26458 0.280198,-0.26458 0.154109,0 0.206614,0.11906 0.116677,0.26458 -0.08994,0.14553 -0.216026,0.26459 -0.280198,0.26459 -0.06417,0 -0.116677,-0.11906 -0.116677,-0.26459 z"
         id="path1755" />
      <path
         style="fill:#668777"
         d="m -24.430315,114.60868 c -0.907166,-0.91673 -1.360378,-1.5434 -1.116197,-1.5434 0.226106,0 0.3485,0.0626 0.271988,0.13911 -0.07651,0.0765 0.484967,0.77104 1.247733,1.5434 0.762765,0.77236 1.327654,1.40429 1.255309,1.40429 -0.07234,0 -0.81882,-0.69453 -1.658833,-1.5434 z"
         id="path1753" />
      <path
         style="fill:#668777"
         d="m 6.7261391,118.35689 c 0.035601,-0.24257 0.273476,-0.47167 0.5286113,-0.50911 0.441049,-0.0647 0.4412038,-0.043 0.00314,0.44102 -0.5623914,0.62144 -0.613939,0.62804 -0.5317555,0.0681 z"
         id="path1749" />
      <path
         style="fill:#668777"
         d="m -25.18502,119.14634 c 0.190996,-0.0764 0.419199,-0.067 0.507118,0.0209 0.08792,0.0879 -0.06835,0.15045 -0.347266,0.13896 -0.308224,-0.0127 -0.370919,-0.0754 -0.159852,-0.15985 z"
         id="path1748" />
      <path
         style="fill:#668777"
         d="m 9.7399779,119.94002 c 0.1909961,-0.0764 0.4191991,-0.067 0.5071181,0.0209 0.08792,0.0879 -0.06835,0.15045 -0.3472656,0.13896 -0.3082245,-0.0127 -0.3709192,-0.0754 -0.1598525,-0.15985 z"
         id="path1746" />
      <path
         style="fill:#668777"
         d="m -23.089645,120.12082 c -0.443281,-0.51771 -0.322073,-0.71258 0.203192,-0.32668 0.241023,0.17708 0.497499,0.85585 0.323385,0.85585 -0.04042,0 -0.277379,-0.23813 -0.526577,-0.52917 z"
         id="path1744" />
      <path
         style="fill:#668777"
         d="m 4.7625042,120.83178 c 0,-0.0455 0.3869532,-0.43249 0.8598958,-0.85989 l 0.8598958,-0.77711 -0.7771053,0.8599 c -0.7243711,0.80154 -0.9426863,0.98151 -0.9426863,0.7771 z"
         id="path1743" />
      <path
         style="fill:#668777"
         d="m -21.561663,120.65302 c -0.09269,-0.14998 0.01351,-0.19434 0.248968,-0.10399 0.458369,0.1759 0.542234,0.36554 0.161649,0.36554 -0.136933,0 -0.32171,-0.1177 -0.410617,-0.26155 z"
         id="path1742" />
      <path
         style="fill:#668777"
         d="m 10.777365,121.41092 c 0.179476,-0.18082 0.39297,-0.26212 0.474432,-0.18066 0.08146,0.0815 -0.06538,0.22941 -0.32632,0.32877 -0.377083,0.14358 -0.407474,0.11319 -0.148112,-0.14811 z"
         id="path1737" />
      <path
         style="fill:#668777"
         d="m -22.86146,121.31113 c -0.422816,-0.36362 -0.653626,-0.66113 -0.512911,-0.66113 0.260902,0 1.41396,0.97934 1.41396,1.20093 0,0.2072 -0.106978,0.14311 -0.901049,-0.5398 z"
         id="path1735" />
      <path
         style="fill:#668777"
         d="m 15.875004,122.50208 c 0.218281,-0.14106 0.515937,-0.25648 0.661458,-0.25648 0.145521,0 0.08599,0.11542 -0.132292,0.25648 -0.218281,0.14107 -0.515937,0.25648 -0.661458,0.25648 -0.145521,0 -0.08599,-0.11541 0.132292,-0.25648 z"
         id="path1733" />
      <path
         style="fill:#668777"
         d="m 14.02292,123.29583 c 0.218282,-0.14106 0.515938,-0.25648 0.661459,-0.25648 0.145521,0 0.08599,0.11542 -0.132292,0.25648 -0.218281,0.14107 -0.515937,0.25648 -0.661458,0.25648 -0.145521,0 -0.08599,-0.11541 0.132291,-0.25648 z"
         id="path1726" />
      <path
         style="fill:#668777"
         d="m -0.13228716,124.88333 c 0.08993682,-0.14552 0.21602602,-0.26458 0.28019823,-0.26458 0.0641722,0 0.11667675,0.11906 0.11667675,0.26458 0,0.14552 -0.1260892,0.26458 -0.28019823,0.26458 -0.15410903,0 -0.20661357,-0.11906 -0.11667675,-0.26458 z"
         id="path1722" />
      <path
         style="fill:#668777"
         d="m 1.4722236,125.33491 c 0.099359,-0.26094 0.2473039,-0.40778 0.3287657,-0.32632 0.081462,0.0815 1.678e-4,0.29496 -0.1806534,0.47443 -0.2613066,0.25937 -0.2916976,0.22897 -0.1481123,-0.14811 z"
         id="path1718" />
      <path
         style="fill:#668777"
         d="m 0.52917114,125.42811 c 0,-0.13693 0.1176987,-0.32171 0.26155268,-0.41061 0.14998172,-0.0927 0.19433843,0.0135 0.1039842,0.24896 -0.17589257,0.45837 -0.36553688,0.54224 -0.36553688,0.16165 z"
         id="path1717" />
      <path
         style="fill:#668777"
         d="m 2.6136517,127.0184 c 0.7675886,-0.67412 1.0877026,-1.13182 0.9487839,-1.3566 -0.1494148,-0.24176 -0.08315,-0.29068 0.2306235,-0.17028 0.2922403,0.11215 0.4402785,0.0331 0.4402785,-0.23523 0,-0.2223 0.1190625,-0.3306 0.2645833,-0.24067 0.1455209,0.0899 0.2645833,-0.0296 0.2645833,-0.2656 0,-0.25412 0.1888213,-0.40575 0.4630209,-0.37182 0.6707875,0.083 1.4145854,-0.29785 1.2143707,-0.62181 -0.095637,-0.15474 -0.045825,-0.19997 0.1124807,-0.10213 0.1562731,0.0966 0.4425599,0.0257 0.6361928,-0.15756 0.1936329,-0.18324 0.5306535,-0.33316 0.7489348,-0.33316 0.2182812,0 0.3622404,-0.16344 0.3199093,-0.36319 -0.048981,-0.23113 0.071274,-0.3063 0.3307292,-0.20674 0.2242321,0.0861 0.4076948,0.0341 0.4076948,-0.11545 0,-0.14954 0.099219,-0.21057 0.2204861,-0.13562 0.1212673,0.0749 0.2204861,-0.0307 0.2204861,-0.23468 0,-0.27772 -0.1219119,-0.3057 -0.4850695,-0.11135 -0.3760835,0.20128 -0.4850694,0.16484 -0.4850694,-0.16219 0,-0.23199 0.1176987,-0.34906 0.2615527,-0.26015 0.1460593,0.0903 0.1965103,-0.008 0.114254,-0.22221 -0.081014,-0.21112 -0.018177,-0.46365 0.1396382,-0.56119 0.1578152,-0.0975 0.2192796,-0.28681 0.1365874,-0.42061 -0.082692,-0.1338 0.017689,-0.17879 0.2230684,-0.1 0.2053798,0.0788 0.5350419,0.4644 0.7325826,0.85686 0.197541,0.39247 0.378012,0.74832 0.401049,0.79079 0.02304,0.0425 0.537934,-0.12126 1.144219,-0.36385 1.576709,-0.63087 1.592653,-0.31671 0.02128,0.41929 -0.727181,0.34059 -1.322147,0.72216 -1.322147,0.84792 0,0.12577 0.220077,0.11088 0.489059,-0.0331 0.688663,-0.36856 2.034569,0.0438 1.986188,0.60846 -0.03028,0.35337 0.03898,0.38284 0.330729,0.14071 0.202963,-0.16844 0.367565,-0.20239 0.365782,-0.0754 -0.0042,0.30243 -5.0485796,2.90315 -5.4084988,2.78848 -0.1522404,-0.0485 -0.1941058,-0.005 -0.093034,0.0956 0.1870601,0.18706 -1.1446549,1.44783 -1.5293012,1.44783 -0.1159472,0 0.020303,-0.1697 0.3027775,-0.37711 0.5461587,-0.40102 0.5558449,-0.39353 -1.3797794,-1.06811 -0.3371493,-0.1175 -1.1493383,0.66298 -1.1493383,1.10446 0,0.33495 -0.8940645,0.60098 -1.9843749,0.59045 l -0.7937499,-0.008 z"
         id="path1708" />
      <path
         style="fill:#668777"
         d="m -2.6458287,127.52063 c 0,-0.29572 -0.1899175,-0.98033 -0.4220389,-1.52136 -0.400673,-0.93389 -0.4337281,-0.95355 -0.6529323,-0.38837 -0.4761887,1.22775 -0.4641774,0.53761 0.014877,-0.85478 0.4761731,-1.38402 1.3098451,-3.06111 0.9560843,-1.92335 -0.079181,0.25466 -0.058405,0.45923 0.046168,0.45461 0.3606414,-0.016 1.1161752,-0.71219 1.1161752,-1.02856 0,-0.17445 0.1016522,-0.25435 0.2258938,-0.17757 0.1242417,0.0768 0.37296672,-0.18407 0.5527224,-0.57969 0.17975567,-0.39562 0.23870408,-0.63186 0.13099646,-0.52499 -0.10770762,0.10688 -0.34305836,-0.007 -0.52300156,-0.2531 -0.384652,-0.52604 -0.1957797,-0.8857 1.81803668,-3.46194 0.79539362,-1.01753 1.44443102,-1.61488 1.66334472,-1.53087 0.197446,0.0758 0.3306553,-0.007 0.2960208,-0.18345 -0.034634,-0.17667 0.094706,-0.28849 0.2874237,-0.24851 0.1927176,0.04 0.285684,-0.032 0.206592,-0.15998 -0.079092,-0.12797 0.1204176,-0.46863 0.4433544,-0.75701 0.9031945,-0.80657 2.4264253,-1.81204 2.2068172,-1.4567 -0.1112394,0.17999 -0.055739,0.31661 0.1286146,0.31661 0.1783625,0 0.2491096,0.0752 0.1572156,0.16708 -0.091894,0.0919 -0.047108,0.39125 0.099525,0.66524 0.1980927,0.37014 0.1803166,0.48019 -0.069173,0.42823 -0.1846779,-0.0385 -0.3783829,0.21119 -0.4304556,0.55476 -0.061275,0.40429 0.00804,0.56119 0.1964719,0.44474 0.1601322,-0.099 0.2349135,-0.27093 0.1661806,-0.38215 -0.068733,-0.11121 0.048882,-0.2022 0.2613672,-0.2022 0.4382325,0 0.3078695,0.18088 -1.7479404,2.42535 -2.9053377,3.17194 -5.6475497,7.67058 -4.94688499,8.11543 0.23574548,0.14967 0.19323033,0.21201 -0.14654839,0.21489 -0.26324965,0.002 -0.40505102,0.12311 -0.31511424,0.26863 0.0899368,0.14553 0.0304056,0.26459 -0.13229168,0.26459 -0.1626972,0 -0.2222285,0.11906 -0.1322916,0.26458 0.089937,0.14552 0.017589,0.26458 -0.160774,0.26458 -0.1783625,0 -0.2446607,0.0796 -0.1473293,0.17697 0.1959677,0.19597 -0.5696295,1.14595 -0.9235288,1.14595 -0.1229669,0 -0.2235762,-0.24195 -0.2235768,-0.53766 z m 2.02336782,-7.54575 c 0.0357908,-0.6193 0.010483,-0.63572 -0.3081753,-0.19993 -0.26013192,0.35575 -0.26990752,0.52393 -0.0389929,0.67084 0.16949641,0.10784 0.3081753,0.1978 0.3081753,0.19993 0,0.002 0.0175468,-0.29975 0.0389929,-0.67084 z m 1.52827378,-2.25331 c -0.0460584,-0.0827 0.212361,-0.4696 0.5742652,-0.8599 0.3619043,-0.39029 0.5623243,-0.70963 0.4453778,-0.70963 -0.1169466,0 -0.7452459,0.68461 -1.39622079,1.52136 -1.03272425,1.32743 -1.0788201,1.43704 -0.36163519,0.85989 0.45207553,-0.3638 0.78427137,-0.72908 0.73821298,-0.81172 z m 3.0966904,-3.35547 c 0.3291074,-0.41964 0.319749,-0.429 -0.099895,-0.0999 -0.2546615,0.19972 -0.4630208,0.40808 -0.4630208,0.46302 0,0.21776 0.2172719,0.0776 0.5629156,-0.36313 z m 1.8183342,-0.47651 c 0,-0.10098 -0.1785937,-0.0354 -0.396875,0.14578 -0.2182812,0.18116 -0.3968749,0.44237 -0.3968749,0.58047 0,0.13809 0.1785937,0.0725 0.3968749,-0.14579 0.2182813,-0.21828 0.396875,-0.47949 0.396875,-0.58046 z m -0.398748,-0.38035 c 0.092694,-0.14998 -0.013509,-0.19434 -0.2489684,-0.10399 -0.4583687,0.1759 -0.5422336,0.36554 -0.1616484,0.36554 0.1369326,0 0.3217102,-0.1177 0.4106168,-0.26155 z"
         id="path1707" />
      <path
         style="fill:#668777"
         d="m -8.5860301,127.72756 c -0.056518,-0.1819 -0.1768149,-1.54414 -0.2673256,-3.02721 -0.5551754,-9.09682 -2.5636933,-15.95034 -6.3987393,-21.83393 -1.179043,-1.80884 -1.791787,-3.096186 -1.576283,-3.311689 0.97339,-0.97339 5.609817,6.624459 7.3833974,12.099389 0.3535562,1.09141 0.8491122,2.93688 1.1012355,4.10105 0.2521233,1.16416 0.5359678,2.41432 0.6307655,2.77812 0.094798,0.3638 0.2033769,-4.47067 0.241287,-10.74328 0.064477,-10.66836 0.1002109,-11.43305 0.5534307,-11.843208 0.4682804,-0.423788 0.4900331,-0.170377 0.6496599,7.568278 0.090836,4.40372 0.1744002,9.78795 0.1856977,11.96498 0.011298,2.17702 0.061498,3.99918 0.1115574,4.04924 0.050059,0.0501 0.2914378,-0.83817 0.536397,-1.97385 0.7948777,-3.6852 1.7462942,-6.50483 3.1965072,-9.4732 1.72476396,-3.53034 4.2419684,-7.1077 5.0861765,-7.2283 0.3255196,-0.0465 0.5918539,1.4e-4 0.5918539,0.10364 0,0.1035 -0.6423046,1.21311 -1.4273434,2.4658 -4.0944379,6.5335 -6.0121387,12.67059 -6.4163664,20.53386 -0.08977,1.74625 -0.2708478,3.38336 -0.402396,3.63802 -0.1905644,0.36891 -0.58853,0.46302 -1.957965,0.46302 -1.1438346,0 -1.7531609,-0.11063 -1.821547,-0.33073 z"
         id="path1706" />
      <path
         style="fill:#668777"
         d="m -11.777892,127.33073 c -0.106477,-0.40019 -0.248369,-0.57878 -0.315314,-0.39688 -0.06695,0.1819 -0.280469,0.33073 -0.474497,0.33073 -0.194028,0 -0.414979,0.14883 -0.491003,0.33073 -0.181084,0.43328 -1.245776,-0.80369 -2.327246,-2.70381 -0.452977,-0.79588 -1.135274,-1.83766 -1.516215,-2.31508 -0.38094,-0.47742 -0.694442,-0.95734 -0.696671,-1.0665 -0.0078,-0.38122 -0.431132,-0.86748 -0.641867,-0.73723 -0.116864,0.0722 -0.96851,-0.71935 -1.892548,-1.75906 -1.363967,-1.53471 -1.664942,-2.0346 -1.599668,-2.65688 0.05447,-0.51929 -0.09776,-0.92102 -0.472019,-1.24561 -0.473272,-0.41047 -0.497751,-0.52448 -0.170858,-0.79578 0.291332,-0.24178 0.526336,-0.2442 0.993787,-0.0102 0.462817,0.23166 0.420295,0.14683 -0.174238,-0.34762 -0.432555,-0.35974 -0.968336,-0.59721 -1.190625,-0.52771 -0.3466,0.10836 -0.349437,0.0876 -0.01992,-0.14573 0.211334,-0.14964 0.492536,-0.20515 0.624894,-0.12335 0.132358,0.0818 0.357634,-0.0153 0.500612,-0.2159 0.201918,-0.28321 0.22705,-0.26214 0.112563,0.0944 -0.09063,0.28221 0.03563,0.55694 0.327819,0.71331 0.352199,0.1885 0.475217,0.15831 0.475217,-0.11661 0,-0.20402 -0.09922,-0.30963 -0.220486,-0.23468 -0.121267,0.0749 -0.220486,0.0229 -0.220486,-0.11562 0,-0.57326 0.901782,-0.56462 1.539004,0.0147 0.364645,0.33154 0.564729,0.43373 0.444631,0.2271 -0.162677,-0.27989 -0.106088,-0.33261 0.22192,-0.20674 0.56732,0.2177 0.559232,-0.0325 -0.02274,-0.70353 -0.832841,-0.96029 1.17341,0.56464 3.039577,2.31034 1.52961,1.43088 3.996959,4.5285 2.899033,3.63958 -0.386536,-0.31295 -0.448506,-0.30381 -0.448506,0.0661 0,0.37468 0.276902,0.53506 0.818863,0.47428 0.08657,-0.01 0.431718,0.47042 0.76699,1.06696 0.335273,0.59653 0.4728,1.00007 0.305617,0.89675 -0.197034,-0.12178 -0.30397,0.0382 -0.30397,0.45474 0,0.49057 0.134292,0.63511 0.567623,0.61093 0.459555,-0.0256 0.683635,0.27055 1.176974,1.55582 0.759625,1.979 0.7735652,2.23522 0.112201,2.06227 -0.614044,-0.16058 -1.119574,0.83942 -0.882553,1.74579 0.100686,0.38502 0.02232,0.55756 -0.253245,0.55756 -0.219478,0 -0.486169,-0.32742 -0.592647,-0.7276 z m 0.92998,-4.71197 c 0,-0.22687 -0.121004,-0.33771 -0.268899,-0.2463 -0.147894,0.0914 -0.200399,0.27702 -0.116677,0.41249 0.226812,0.36699 0.385576,0.29856 0.385576,-0.16619 z m -2.645833,-4.64583 c 0,-0.14552 -0.119062,-0.19099 -0.264583,-0.10106 -0.145521,0.0899 -0.264583,0.28259 -0.264583,0.42811 0,0.14552 0.119062,0.191 0.264583,0.10106 0.145521,-0.0899 0.264583,-0.28258 0.264583,-0.42811 z m -0.953295,-0.983 c 0.07495,-0.12127 -0.03185,-0.22049 -0.23733,-0.22049 -0.205478,0 -0.312277,0.0992 -0.237329,0.22049 0.07495,0.12127 0.181745,0.22048 0.237329,0.22048 0.05558,0 0.162383,-0.0992 0.23733,-0.22048 z m -0.369621,-0.67316 c 0,-0.0549 -0.15875,-0.23165 -0.352778,-0.39267 -0.26703,-0.22162 -0.352778,-0.19734 -0.352778,0.0999 0,0.21597 0.15875,0.39267 0.352778,0.39267 0.194028,0 0.352778,-0.045 0.352778,-0.0999 z m -3.023219,-2.75068 c -0.457135,-0.43662 -0.464231,-0.42952 -0.161252,0.16126 0.17431,0.33988 0.389491,0.54541 0.478179,0.45672 0.08869,-0.0887 -0.05393,-0.36678 -0.316927,-0.61798 z m -2.147455,-0.0416 c 0.08372,-0.13547 0.03122,-0.32109 -0.116677,-0.41249 -0.147894,-0.0914 -0.268899,0.0194 -0.268899,0.2463 0,0.46475 0.158764,0.53318 0.385576,0.16619 z"
         id="path1705" />
      <path
         style="fill:#668777"
         d="m -17.991661,127.80681 c -1.411133,-0.13806 -1.980964,-0.35021 -3.175,-1.18207 -0.800365,-0.55759 -2.460722,-1.48954 -3.689683,-2.07098 -2.109068,-0.99785 -2.205588,-1.07966 -1.719791,-1.45773 0.535902,-0.41707 0.503442,-0.41293 -0.87438,0.11143 -0.292359,0.11127 -0.219218,-0.0364 0.198438,-0.40068 0.363802,-0.31729 0.501188,-0.54542 0.305302,-0.50694 -0.427304,0.0839 -0.865069,-0.90764 -0.594204,-1.34591 0.14554,-0.23549 0.40162,-0.23711 1.062492,-0.007 0.670977,0.2339 0.916469,0.22954 1.070085,-0.019 0.147558,-0.23875 0.240685,-0.21484 0.358447,0.0921 0.09258,0.24127 0.329202,0.34932 0.565987,0.25846 0.242251,-0.093 0.40853,-0.0109 0.410942,0.2029 0.0031,0.27704 0.06263,0.26839 0.260532,-0.0378 0.18637,-0.28839 0.257588,-0.3022 0.260532,-0.0505 0.0022,0.19049 0.107745,0.28225 0.234483,0.20393 0.126737,-0.0783 0.499293,0.0908 0.827901,0.37576 0.328609,0.28501 0.701164,0.4541 0.827902,0.37577 0.126737,-0.0783 0.230432,-0.003 0.230432,0.16647 0,0.19647 0.238163,0.24911 0.65441,0.14463 0.546552,-0.13717 0.625305,-0.0874 0.477825,0.30205 -0.168529,0.44502 -0.155164,0.44506 0.292962,8.4e-4 0.258251,-0.256 0.591722,-0.38994 0.741047,-0.29766 0.172495,0.10661 0.140596,0.25075 -0.08748,0.39526 -0.197437,0.1251 -0.249289,0.22928 -0.115227,0.23151 0.134062,0.002 0.444413,-0.17755 0.689668,-0.3995 0.401174,-0.36306 0.482909,-0.35642 0.814583,0.0662 0.343143,0.43718 0.332031,0.44222 -0.160501,0.0728 -0.489982,-0.36749 -0.502456,-0.36281 -0.168458,0.0632 0.198389,0.25306 0.475955,0.38888 0.616812,0.30183 0.320618,-0.19816 1.720743,1.11138 2.22931,2.08507 0.209805,0.40169 0.288472,0.69934 0.174816,0.66146 -0.113655,-0.0379 -0.247782,0.0502 -0.298058,0.1957 -0.05028,0.14552 -0.221214,0.34481 -0.379862,0.44286 -0.205485,0.12699 -0.198879,0.28619 0.02297,0.55351 0.287791,0.34676 0.166822,0.77833 -0.191106,0.68179 -0.08489,-0.0229 -0.928247,-0.11735 -1.874132,-0.20989 z m -6.879167,-5.8339 c -0.218281,-0.14106 -0.575468,-0.24993 -0.793749,-0.24193 -0.261688,0.01 -0.216625,0.092 0.132291,0.24193 0.727362,0.31256 1.145108,0.31256 0.661458,0 z m -1.785937,-0.70439 c -0.181901,-0.0734 -0.479557,-0.0734 -0.661458,0 -0.181901,0.0734 -0.03307,0.13345 0.330729,0.13345 0.363802,0 0.51263,-0.0601 0.330729,-0.13345 z"
         id="path1704" />
      <path
         style="fill:#567768"
         d="m -7.1305934,100.60781 c -0.1225452,-4.599931 -0.1339793,-4.461081 0.3837233,-4.659742 0.3389988,-0.130086 0.3962841,0.299857 0.3928234,2.948255 -0.00259,1.984877 -0.091394,2.962487 -0.2467826,2.716867 -0.173715,-0.2746 -0.2722641,-0.0489 -0.3465989,0.79375 -0.057127,0.64759 -0.1395516,-0.16202 -0.1831652,-1.79913 z"
         id="path1924" />
      <path
         style="fill:#567768"
         d="m -7.0770216,104.64271 c 0.00294,-0.58209 0.057119,-0.78906 0.1204059,-0.45994 0.063287,0.32912 0.060884,0.80537 -0.00534,1.05833 -0.066223,0.25297 -0.1180031,-0.0163 -0.1150659,-0.59839 z"
         id="path1919" />
      <path
         style="fill:#567768"
         d="m -7.3144131,116.01979 c -8.064e-4,-1.30969 0.043934,-1.87883 0.099424,-1.26475 0.05549,0.61407 0.056149,1.68563 0.00147,2.38125 -0.054683,0.69561 -0.1000836,0.19319 -0.1008899,-1.1165 z"
         id="path1906" />
      <path
         style="fill:#567768"
         d="m 2.5119295,127.26636 c 1.314435,-1.45244 6.390871,-4.68966 8.0714075,-5.1471 0.363802,-0.099 -0.112448,0.26214 -1.058333,0.80259 -2.2250062,1.27131 -5.2061737,3.65654 -5.4226768,4.33868 -0.1282306,0.40402 -0.3992092,0.53321 -1.1184513,0.53321 -0.9313883,0 -0.9402537,-0.01 -0.4719464,-0.52738 z"
         id="path1891" />
      <path
         style="fill:#567768"
         d="m -8.5659675,126.66926 c -0.072451,-0.61846 -0.327443,-2.91042 -0.5666484,-5.09323 -0.2392055,-2.18281 -0.6054387,-4.81588 -0.8138516,-5.85126 -0.8598335,-4.2716 -3.1099105,-9.69299 -5.4596245,-13.15454 -1.255105,-1.849 -1.717819,-3.136619 -1.040786,-2.89625 0.792435,0.281341 1.174958,0.70831 2.575472,2.87471 3.160513,4.88889 4.7205163,9.08868 6.3305577,17.04296 0.2503688,1.23693 0.5055751,2.4177 0.567125,2.62394 0.2427314,0.81331 0.6529786,-0.2578 1.3034933,-3.40328 1.2512484,-6.05025 3.0052298,-10.63918 5.49907334,-14.3872 1.04716148,-1.57378 1.63495526,-2.22637 1.95821236,-2.17407 0.2540488,0.0411 0.6384455,-0.0588 0.8542147,-0.22201 0.254657,-0.19263 0.2123597,-0.0182 -0.1205484,0.497 -2.66682401,4.12746 -4.1704658,7.31935 -5.287499,11.22416 -0.8854805,3.09537 -1.7292068,8.02257 -1.7334347,10.12292 -0.00126,0.62838 -0.07738,1.76758 -0.1691457,2.53157 l -0.166846,1.38906 h -1.7990174 -1.7990173 z m 3.5081969,0.13229 c -0.02038,-0.48314 -0.072603,-0.56551 -0.1554333,-0.24516 -0.068608,0.26535 -0.2730776,0.42553 -0.4543774,0.35596 -0.1812999,-0.0696 -0.3296361,0.0407 -0.3296361,0.24516 0,0.2044 0.2182812,0.37164 0.4850694,0.37164 0.3602183,0 0.4771697,-0.18727 0.4543774,-0.7276 z"
         id="path1890" />
      <path
         style="fill:#567768"
         d="m -17.925515,127.60423 c 0.400182,-0.0606 0.727604,-0.18714 0.727604,-0.28115 0,-0.44298 -4.179526,-3.60436 -6.387385,-4.8314 -2.280645,-1.26749 -1.454169,-1.12732 1.22801,0.20827 2.436653,1.21332 4.891151,2.97239 5.787764,4.14791 l 0.721457,0.94588 -1.402527,-0.0397 c -0.77139,-0.0218 -1.075106,-0.0892 -0.674923,-0.14986 z"
         id="path1889" />
      <path
         style="fill:#567768"
         d="m -2.6456953,127.9128 c 6.891e-4,-1.29821 3.47436301,-7.11662 5.5601949,-9.31333 1.2998746,-1.36898 1.1664139,-1.00096 -0.2878559,0.79375 -1.4411762,1.77855 -2.87448988,4.16737 -3.9760069,6.62658 -0.6661454,1.48721 -1.2966054,2.40785 -1.2963321,1.893 z"
         id="path1888" />
      <path
         style="fill:#567768"
         d="m -12.745831,124.92242 c -1.724336,-3.54025 -3.418624,-5.96108 -6.121513,-8.74652 -1.620891,-1.6704 -1.712643,-1.8094 -0.619968,-0.93926 2.870738,2.28611 6.365014,7.00008 7.773278,10.4866 1.14938,2.84557 0.497993,2.34001 -1.031797,-0.80082 z"
         id="path1887" />
    </g>
  </g>
</svg>
