<?xml version="1.0" encoding="UTF-8" standalone="no"?>
<!-- Created with Inkscape (http://www.inkscape.org/) -->

<svg
   width="64.41539mm"
   height="58.992348mm"
   viewBox="0 0 64.41539 58.992348"
   version="1.1"
   id="svg1"
   xmlns="http://www.w3.org/2000/svg"
   xmlns:svg="http://www.w3.org/2000/svg">
  <defs
     id="defs1" />
  <g
     id="layer1"
     transform="translate(-55.297918,-112.44792)">
    <g
       id="g2003"
       transform="translate(12.514534,123.70033)">
      <path
         style="fill:#cfc4ac"
         d="m 45.839065,47.708399 c -1.346068,-0.05679 -2.447396,-0.203189 -2.447396,-0.325329 0,-0.82053 9.722338,-3.574622 14.672915,-4.156465 l 1.57184,-0.184739 -1.177065,-1.036119 c -3.205009,-2.82123 -7.620176,-5.391277 -11.49837,-6.693144 -3.922901,-1.316874 -4.141502,-1.699635 -1.581325,-2.768838 1.442289,-0.602341 1.92684,-0.661473 5.420338,-0.661473 3.308131,0 4.091512,0.08473 5.688541,0.615294 3.816833,1.268018 7.596888,4.335481 9.756811,7.917518 0.54842,0.909506 1.1671,1.653646 1.374845,1.653646 0.479402,0 0.481227,0.01761 -0.169242,-1.632643 -1.829045,-4.640324 -4.826319,-9.546062 -7.906385,-12.940642 -1.513847,-1.66843 -1.864468,-2.198351 -1.575555,-2.381262 1.402881,-0.888165 6.027236,1.097127 8.922194,3.830408 2.736286,2.58347 4.976384,6.733243 6.156205,11.404348 0.540988,2.141861 0.58096,1.909047 0.522409,-3.042709 -0.09667,-8.175219 -1.769318,-19.26797 -3.875239,-25.699952 -0.594383,-1.8153867 -0.739929,-2.0354713 -1.438495,-2.1751845 -1.574897,-0.3149793 -3.96234,-4.500597 -3.96234,-6.9466954 0,-0.8623366 0.561099,-1.69152607 1.143378,-1.68967926 1.085747,0.003444 3.185694,2.18612686 3.870631,4.02313086 0.178549,0.4788694 0.492658,1.1866983 0.698021,1.5729531 0.42551,0.8003178 0.477337,1.7664635 0.124658,2.3238325 -0.157267,0.2485425 -0.06423,0.8443187 0.268561,1.7197917 0.886554,2.332245 1.803477,5.79775 2.605989,9.849318 0.839632,4.238967 1.872095,12.530235 1.872095,15.033985 0,0.85114 0.04818,1.497918 0.107067,1.437284 0.05889,-0.06063 0.183739,-3.146337 0.27745,-6.857118 0.09371,-3.710781 0.223065,-8.437844 0.287452,-10.504584 0.06439,-2.066739 0.0042,-5.436769 -0.133819,-7.488954 C 75.189137,8.5418278 75.10111,8.09798 74.524389,7.4125857 74.026808,6.8212443 73.842617,6.2058153 73.696482,4.6463394 c -0.397604,-4.2430239 0.830751,-7.4950326 2.282632,-6.0431521 1.446319,1.4463192 1.780651,8.2071467 0.449181,9.0832918 -0.121909,0.08022 -0.100611,2.0623139 0.04733,4.4046529 0.14794,2.34234 0.222503,8.70608 0.165695,14.141646 l -0.103288,9.882846 0.592772,-3.20175 c 1.029513,-5.56073 2.160836,-9.504031 4.079644,-14.219863 1.181396,-2.903502 3.897254,-8.110678 4.230211,-8.110678 0.444824,0 -0.343516,3.210813 -2.758735,11.235983 -1.976543,6.567562 -3.351822,11.715167 -4.095291,15.328487 -0.705565,3.429101 -0.665367,3.889474 0.134575,1.54126 3.086039,-9.058995 9.355847,-16.460483 16.078053,-18.980088 0.955865,-0.358276 1.344088,-0.400627 1.573106,-0.171609 0.331495,0.331496 0.405433,0.213228 -3.499743,5.59805 -3.680166,5.074559 -7.273583,10.552127 -8.974849,13.680668 -0.886796,1.630773 -1.609952,3.059523 -1.607012,3.175 0.0029,0.115476 0.618844,-0.742543 1.368675,-1.90671 3.543816,-5.502025 9.065746,-9.314035 14.459947,-9.982283 2.549535,-0.315844 4.935825,0.10139 4.935825,0.863012 0,0.213412 -1.80394,1.578646 -4.00876,3.033855 -2.204817,1.455208 -4.645598,3.177165 -5.423958,3.826571 -1.916317,1.598835 -4.987074,4.54884 -4.987074,4.790967 0,0.107991 0.625078,0.273872 1.389062,0.368625 2.73628,0.339366 10.01893,1.75608 11.77269,2.290174 3.40705,1.03759 5.80813,2.333705 4.36689,2.357277 -5.01344,0.082 -58.582778,0.149331 -60.324994,0.07583 z m 32.129176,-6.747592 c -0.08446,-0.211066 -0.147157,-0.148372 -0.159852,0.159853 -0.01149,0.278915 0.05104,0.435184 0.138964,0.347266 0.08792,-0.08792 0.09732,-0.316122 0.02089,-0.507119 z"
         id="path879" />
      <path
         style="baseline-shift:baseline;display:inline;overflow:visible;vector-effect:none;fill:#c9baa0;enable-background:accumulate;stop-color:#000000;stop-opacity:1"
         d="m 91.760807,47.444088 c -0.211067,0.08446 -0.148544,0.147497 0.15968,0.160197 0.278916,0.01149 0.435186,-0.05109 0.347266,-0.139009 -0.08792,-0.08792 -0.31595,-0.09762 -0.506946,-0.02119 z"
         id="path1548" />
      <path
         style="baseline-shift:baseline;display:inline;overflow:visible;vector-effect:none;fill:#c9baa0;enable-background:accumulate;stop-color:#000000;stop-opacity:1"
         d="m 90.173307,47.444088 c -0.211067,0.08446 -0.148544,0.147497 0.15968,0.160197 0.278916,0.01149 0.435186,-0.05109 0.347266,-0.139009 -0.08792,-0.08792 -0.31595,-0.09762 -0.506946,-0.02119 z"
         id="path1547" />
      <path
         style="baseline-shift:baseline;display:inline;overflow:visible;vector-effect:none;fill:#c9baa0;enable-background:accumulate;stop-color:#000000;stop-opacity:1"
         d="m 92.940063,47.441488 c -0.257431,0.06708 -0.111001,0.126375 0.325562,0.131775 0.436566,0.0054 0.647319,-0.04948 0.468188,-0.121957 -0.179132,-0.07247 -0.536319,-0.0769 -0.79375,-0.0098 z"
         id="path1546" />
      <path
         style="baseline-shift:baseline;display:inline;overflow:visible;vector-effect:none;fill:#c9baa0;enable-background:accumulate;stop-color:#000000;stop-opacity:1"
         d="m 97.965597,47.435288 c -0.402183,0.06082 -0.135909,0.112205 0.591695,0.114205 0.727642,0.002 1.056642,-0.04779 0.731221,-0.110587 -0.325421,-0.06279 -0.920732,-0.06444 -1.322916,-0.0036 z"
         id="path1545" />
      <path
         style="baseline-shift:baseline;display:inline;overflow:visible;vector-effect:none;fill:#c9baa0;enable-background:accumulate;stop-color:#000000;stop-opacity:1"
         d="m 95.911458,47.307648 c -0.528726,0 -1.032518,0.07134 -1.119828,0.158646 -0.08731,0.08731 0.416477,0.158647 1.119828,0.158647 0.70335,0 1.207139,-0.07134 1.119829,-0.158647 -0.08731,-0.08731 -0.591104,-0.158646 -1.119829,-0.158646 z"
         id="path1544" />
      <path
         style="baseline-shift:baseline;display:inline;overflow:visible;vector-effect:none;fill:#c9baa0;enable-background:accumulate;stop-color:#000000;stop-opacity:1"
         d="m 89.160449,45.643143 c -0.147896,0.0914 -0.200509,0.276913 -0.116789,0.412378 0.226811,0.366989 0.385507,0.298865 0.385507,-0.165882 0,-0.226872 -0.120823,-0.337896 -0.268718,-0.246496 z"
         id="path1540" />
      <path
         style="baseline-shift:baseline;display:inline;overflow:visible;vector-effect:none;fill:#c9baa0;enable-background:accumulate;stop-color:#000000;stop-opacity:1"
         d="m 99.744816,45.642626 c -0.143854,0.08891 -0.261483,0.273378 -0.261483,0.410311 0,0.380585 0.189461,0.296621 0.365353,-0.161747 0.09036,-0.235459 0.04611,-0.341254 -0.10387,-0.248564 z"
         id="path1539" />
      <path
         style="baseline-shift:baseline;display:inline;overflow:visible;vector-effect:none;fill:#c9baa0;enable-background:accumulate;stop-color:#000000;stop-opacity:1"
         d="m 98.681315,45.5083 c -0.140954,0 -0.256315,0.178594 -0.256315,0.396875 0,0.218282 0.04668,0.396875 0.10387,0.396875 0.05719,0 0.172555,-0.178593 0.256315,-0.396875 0.08376,-0.218281 0.03708,-0.396875 -0.10387,-0.396875 z"
         id="path1537" />
      <path
         style="baseline-shift:baseline;display:inline;overflow:visible;vector-effect:none;fill:#c9baa0;enable-background:accumulate;stop-color:#000000;stop-opacity:1"
         d="m 54.135714,45.5083 c -0.05719,0 -0.172555,0.178594 -0.256315,0.396875 -0.08376,0.218282 -0.03708,0.396875 0.103869,0.396875 0.140953,0 0.256315,-0.178593 0.256315,-0.396875 0,-0.218281 -0.04668,-0.396875 -0.103869,-0.396875 z"
         id="path1536" />
      <path
         style="baseline-shift:baseline;display:inline;overflow:visible;vector-effect:none;fill:#c9baa0;enable-background:accumulate;stop-color:#000000;stop-opacity:1"
         d="m 56.193469,45.387894 c -0.07733,0.02128 -0.139573,0.101601 -0.193786,0.242879 -0.109397,0.285081 -0.0059,0.378171 0.359151,0.322461 0.282069,-0.04305 0.575646,-0.160718 0.652156,-0.261482 0.07651,-0.10076 0.06061,-0.124727 -0.03514,-0.05323 -0.09575,0.0715 -0.319864,0.0084 -0.49816,-0.139526 -0.114348,-0.0949 -0.206894,-0.13238 -0.284221,-0.111105 z"
         id="path1534" />
      <path
         style="baseline-shift:baseline;display:inline;overflow:visible;vector-effect:none;fill:#c9baa0;enable-background:accumulate;stop-color:#000000;stop-opacity:1"
         d="m 54.753247,45.24375 c -0.136933,0 -0.24908,0.09939 -0.24908,0.220658 0,0.121266 0.173109,0.220142 0.384989,0.220142 0.211878,0 0.32403,-0.09887 0.24908,-0.220142 -0.07495,-0.121266 -0.248057,-0.220658 -0.384989,-0.220658 z"
         id="path1530" />
      <path
         style="baseline-shift:baseline;display:inline;overflow:visible;vector-effect:none;fill:#c9baa0;enable-background:accumulate;stop-color:#000000;stop-opacity:1"
         d="m 94.824703,45.074766 c -0.195979,-0.03006 -0.325113,0.02502 -0.222725,0.190686 0.06727,0.108839 -0.02752,0.268734 -0.210324,0.355534 -0.182807,0.0868 -0.06439,0.108292 0.263033,0.04754 0.604833,-0.112222 0.812998,0.203204 0.33073,0.501262 -0.145521,0.08994 -0.264584,0.294003 -0.264584,0.453202 0,0.159198 0.231941,0.02129 0.515731,-0.305925 0.394315,-0.45465 0.444114,-0.672149 0.210323,-0.922424 -0.163514,-0.175042 -0.426205,-0.289819 -0.622184,-0.319877 z"
         id="path1529" />
      <path
         style="baseline-shift:baseline;display:inline;overflow:visible;vector-effect:none;fill:#c9baa0;enable-background:accumulate;stop-color:#000000;stop-opacity:1"
         d="m 55.694792,44.193717 c -0.145521,0 -0.08599,0.115251 0.132291,0.256315 0.218281,0.141064 0.515938,0.256315 0.661459,0.256315 0.145521,0 0.08599,-0.115251 -0.132292,-0.256315 -0.218282,-0.141064 -0.515937,-0.256315 -0.661458,-0.256315 z"
         id="path1524" />
      <path
         style="baseline-shift:baseline;display:inline;overflow:visible;vector-effect:none;fill:#c9baa0;enable-background:accumulate;stop-color:#000000;stop-opacity:1"
         d="m 59.846476,43.954944 c -0.25221,-0.09356 -0.200202,0.251081 0.139527,1.09709 0.319385,0.795341 0.474272,0.937822 0.761193,0.699699 0.397125,-0.329584 0.176586,-0.95972 -0.546219,-1.559594 -0.152166,-0.126287 -0.270431,-0.206007 -0.354501,-0.237195 z"
         id="path1523" />
      <path
         style="baseline-shift:baseline;display:inline;overflow:visible;vector-effect:none;fill:#c9baa0;enable-background:accumulate;stop-color:#000000;stop-opacity:1"
         d="m 90.704024,43.920834 c -0.175442,0 -0.155463,0.151622 0.05323,0.403077 0.184074,0.221797 0.389186,0.348743 0.455786,0.282153 0.183487,-0.183488 -0.189249,-0.68523 -0.509013,-0.68523 z"
         id="path1522" />
      <path
         style="baseline-shift:baseline;display:inline;overflow:visible;vector-effect:none;fill:#c9baa0;enable-background:accumulate;stop-color:#000000;stop-opacity:1"
         d="m 89.550606,43.884144 c 0.104031,-0.198171 -0.05033,-0.0657 -0.342614,0.294039 -0.292288,0.359733 -0.47408,0.746687 -0.40411,0.859896 0.06997,0.113205 0.186656,0.205672 0.259416,0.205672 0.07276,0 0.06408,-0.111031 -0.01964,-0.246497 -0.08372,-0.135466 -0.0311,-0.320978 0.116789,-0.412378 0.147895,-0.0914 0.268718,-0.03299 0.268718,0.129708 0,0.162694 0.131948,0.214262 0.293005,0.114722 0.208395,-0.128797 0.198415,-0.239217 -0.03411,-0.382922 -0.179699,-0.111061 -0.241492,-0.364069 -0.13746,-0.56224 z"
         id="path1521" />
      <path
         style="baseline-shift:baseline;display:inline;overflow:visible;vector-effect:none;fill:#c9baa0;enable-background:accumulate;stop-color:#000000;stop-opacity:1"
         d="m 56.306641,43.739967 c -0.211067,0.08446 -0.148545,0.147497 0.15968,0.160197 0.278915,0.01149 0.435185,-0.05109 0.347265,-0.13901 -0.08792,-0.08792 -0.315949,-0.09762 -0.506945,-0.02119 z"
         id="path1520" />
      <path
         style="baseline-shift:baseline;display:inline;overflow:visible;vector-effect:none;fill:#c9baa0;enable-background:accumulate;stop-color:#000000;stop-opacity:1"
         d="m 93.464062,43.676917 c -0.276604,0.01248 -0.329866,0.07479 -0.132291,0.154512 0.51098,0.206184 0.390781,0.620772 -0.132292,0.456303 -0.440972,-0.138654 -0.440972,-0.127169 0,0.236161 0.254661,0.209823 0.463021,0.524219 0.463021,0.698666 0,0.174446 0.120822,0.242295 0.268717,0.150895 0.147849,-0.0914 0.215392,-0.253118 0.149862,-0.359151 -0.06553,-0.106034 -0.01884,-0.354901 0.10387,-0.553455 0.185061,-0.299439 0.294054,-0.290405 0.639237,0.05478 0.228888,0.228889 0.565304,0.465933 0.747241,0.526583 0.181941,0.06065 0.306133,0.408422 0.275953,0.773079 -0.03557,0.429771 0.081,0.663009 0.331245,0.663009 0.273188,0 0.307889,-0.09417 0.118856,-0.321944 -0.188253,-0.22683 -0.141559,-0.369723 0.15813,-0.484725 0.646893,-0.248236 0.696781,-0.208945 0.503845,0.398942 -0.120097,0.37836 -0.08292,0.5032 0.114205,0.381372 0.161111,-0.09958 0.293006,-0.06238 0.293006,0.08268 0,0.145065 0.22541,0.246566 0.500744,0.225826 0.656631,-0.04946 0.346737,-0.997278 -0.460437,-1.408182 -0.311377,-0.15851 -0.477764,-0.376447 -0.369486,-0.484725 0.108278,-0.108278 0.01829,-0.157548 -0.199988,-0.109038 -0.218281,0.04851 -0.373499,-0.04079 -0.345199,-0.198437 0.0283,-0.157647 -0.115565,-0.286288 -0.31936,-0.286288 -0.203799,0 -0.316157,0.08816 -0.249597,0.195854 0.06656,0.1077 -0.127438,0.13054 -0.430982,0.05116 -0.428968,-0.112177 -0.472884,-0.198984 -0.198437,-0.390674 0.239991,-0.167628 0.07751,-0.213104 -0.506946,-0.141594 -0.472943,0.05787 -0.859896,0.0066 -0.859896,-0.113688 0,-0.120322 -0.208359,-0.20941 -0.463021,-0.19792 z"
         id="path1519" />
      <path
         style="baseline-shift:baseline;display:inline;overflow:visible;vector-effect:none;fill:#c9baa0;enable-background:accumulate;stop-color:#000000;stop-opacity:1"
         d="m 58.015063,43.472801 c -0.257431,0.06708 -0.111,0.126375 0.325562,0.131775 0.436567,0.0054 0.647319,-0.04948 0.468188,-0.121957 -0.179132,-0.07247 -0.536319,-0.0769 -0.79375,-0.0098 z"
         id="path1516" />
      <path
         style="baseline-shift:baseline;display:inline;overflow:visible;vector-effect:none;fill:#c9baa0;enable-background:accumulate;stop-color:#000000;stop-opacity:1"
         d="m 75.38868,-1.5342733 c -1.051836,-0.1224172 -1.387656,0.8941085 -1.510502,4.5769816 -0.103343,3.0981859 -0.08834,3.200581 0.610815,4.2260987 0.619982,0.9093935 0.751593,1.4617573 0.975651,4.101042 0.249103,2.934297 0.07838,16.789259 -0.289904,23.555151 L 75.009375,37.967708 74.809904,34.925 C 74.244608,26.304592 72.758131,17.851781 70.69646,11.533663 70.060841,9.585768 69.97689,9.0462868 70.212252,8.4227417 70.437537,7.8258959 70.405577,7.4888494 70.059806,6.810437 69.819418,6.3387917 69.370743,5.3578124 69.062451,4.6302083 67.840379,1.7459685 65.1875,0.08158719 64.528878,1.7859375 c -0.773398,2.0013643 2.10041,7.5031249 4.068485,7.7886719 0.463499,0.067249 0.710242,0.5236706 1.332735,2.4639326 1.28375,4.001349 2.7012,11.645092 3.341915,18.022155 0.405807,4.038926 0.667378,12.273019 0.389641,12.269019 -0.131862,-0.0019 -0.511201,-1.103223 -0.842843,-2.447396 -0.77293,-3.132749 -2.796835,-7.258656 -4.641577,-9.462988 -2.47581,-2.95841 -6.37864,-5.264484 -8.932788,-5.277714 -0.66697,-0.0035 -1.288778,0.06973 -1.381828,0.162781 -0.09305,0.09305 0.69404,1.086476 1.74873,2.207617 3.028959,3.219803 6.243893,8.463418 7.895126,12.876733 0.457543,1.222893 0.490753,1.518653 0.191719,1.71049 -0.240361,0.154197 -0.450409,0.0857 -0.626318,-0.204639 -2.572058,-4.245137 -4.518119,-6.286475 -7.632609,-8.005712 -2.845702,-1.570862 -5.900607,-2.237441 -9.433016,-2.058273 -2.892509,0.146712 -5.063878,0.702782 -5.921086,1.51567 -0.484041,0.459015 -0.474647,0.483411 0.364319,0.917257 0.474068,0.24515 1.436747,0.616089 2.139405,0.824756 2.115876,0.628348 5.78779,2.425621 8.041369,3.936193 2.84666,1.908115 4.969146,3.807207 4.786788,4.282426 -0.0795,0.20719 -0.04459,0.315436 0.077,0.240296 0.121586,-0.07514 0.512747,0.186352 0.869714,0.58136 0.727425,0.804942 1.523209,1.881621 1.169438,1.582332 -0.126335,-0.106879 -0.390238,0.01218 -0.586528,0.264583 -0.335997,0.432041 -0.380029,0.427908 -0.745174,-0.07028 -0.213319,-0.291041 -0.503702,-0.665078 -0.645438,-0.831473 -0.141732,-0.166395 -0.234853,-0.350058 -0.207223,-0.407728 0.02763,-0.05767 -0.16031,0.124364 -0.417545,0.40411 -0.460308,0.50059 -0.475709,0.499034 -0.986503,-0.08992 -0.285448,-0.329125 -0.445534,-0.717379 -0.355534,-0.862996 0.09,-0.145637 -0.002,-0.207303 -0.204122,-0.136943 -0.453654,0.157883 -0.326289,1.006362 0.209806,1.398364 0.350703,0.256437 0.34776,0.330466 -0.02429,0.639238 C 57.339225,46.209926 57.15,46.498052 57.15,46.658134 c 0,0.160082 0.185329,0.02628 0.411861,-0.29714 0.414964,-0.592443 1.104866,-0.851284 0.753443,-0.28267 -0.124792,0.201918 -0.07135,0.233174 0.157096,0.09198 0.21761,-0.13449 0.477661,-0.03279 0.702283,0.274402 0.196205,0.268331 0.356567,0.365605 0.356567,0.216525 0,-0.149081 -0.08269,-0.353472 -0.183451,-0.454236 -0.315469,-0.315466 -0.372152,-1.275088 -0.06408,-1.084689 0.155883,0.09634 0.219703,0.341625 0.141593,0.545187 -0.07811,0.203562 -0.02675,0.370003 0.114205,0.370003 0.140954,0 0.256315,0.185509 0.256315,0.412378 0,0.226872 0.09939,0.351419 0.220659,0.276469 0.121266,-0.07495 0.220141,0.0372 0.220141,0.24908 0,0.462529 0.03825,0.458661 -0.886767,0.07958 -1.142164,-0.468101 -1.340524,-0.467454 -1.305864,0.0031 0.01761,0.23903 0.329696,0.495511 0.693498,0.569991 0.363802,0.07448 3.935677,0.103989 7.9375,0.06563 4.001823,-0.03836 10.252605,-0.08859 13.890625,-0.111621 3.638021,-0.02303 6.22763,-0.08962 5.754687,-0.148312 -0.954985,-0.118513 -0.977281,-0.153114 -0.581876,-0.891935 0.152822,-0.28555 0.409287,-0.437801 0.569991,-0.338481 0.178009,0.110017 0.217195,0.05899 0.100252,-0.130224 -0.206613,-0.334307 1.566791,-2.946074 2.000395,-2.946074 0.141711,0 0.19704,-0.09826 0.12299,-0.218074 -0.149288,-0.241553 3.129985,-3.521655 5.395019,-5.39657 0.800364,-0.662514 3.211381,-2.355222 5.357813,-3.761528 2.146435,-1.406306 3.902605,-2.660592 3.902605,-2.787426 0,-0.255473 -1.21302,-0.671834 -2.66237,-0.91364 -1.588969,-0.265101 -5.150146,0.515951 -7.495667,1.643828 -3.829663,1.841548 -7.062615,4.849444 -9.668144,8.995833 -1.451012,2.309114 -1.239487,1.337016 0.371554,-1.706873 1.737347,-3.282531 4.120829,-6.944511 8.378816,-12.872599 1.653182,-2.301605 3.338391,-4.682855 3.744475,-5.291666 l 0.738456,-1.10691 -0.675928,-0.08423 c -1.605938,-0.199798 -6.471984,2.848421 -9.251632,5.794995 -3.691267,3.912938 -7.263189,10.239315 -8.352978,14.794446 -0.527954,2.206759 -0.6212,1.130293 -0.130742,-1.509986 0.694719,-3.739878 2.136057,-9.259185 4.269507,-16.349389 2.154696,-7.160817 3.085977,-10.774075 2.953825,-11.460283 -0.12762,-0.662676 -4.294175,7.909365 -5.363497,11.034469 -1.618803,4.73097 -3.319811,12.295731 -3.635436,16.168526 -0.0415,0.509323 -0.06359,-6.124519 -0.04909,-14.741736 C 76.380547,10.34478 76.44778,7.6148181 76.755522,7.2434855 77.317391,6.5655126 77.190208,1.8643414 76.559668,0 76.150814,-1.2088744 75.952951,-1.4686013 75.38868,-1.5342733 Z"
         id="path1514" />
      <path
         style="fill:#f3c84d"
         d="m 69.585418,47.244462 c 0,-0.349114 -0.70698,-2.791023 -1.766574,-6.101754 -0.638631,-1.995416 -3.319949,-7.260513 -4.8591,-9.541436 -0.750084,-1.111576 -2.185535,-2.886132 -3.189891,-3.943458 -1.004356,-1.057326 -1.826102,-2.072151 -1.826102,-2.255167 0,-0.696575 2.788869,-0.149384 5.116101,1.003805 1.728036,0.856275 2.610194,1.516354 4.037621,3.021166 1.004567,1.059029 2.210882,2.507605 2.6807,3.21906 1.203468,1.822437 2.917353,6.354382 3.276081,8.662786 0.616819,3.969214 0.766259,3.258034 0.646606,-3.077173 C 73.517906,28.545449 72.231868,19.319441 70.094247,12.358524 69.405087,10.114355 69.20297,9.7331477 68.58219,9.5066798 67.73264,9.1967541 66.033698,7.3883985 65.367927,6.0854164 65.107684,5.5760935 64.753391,4.5581998 64.580608,3.8234305 c -0.677996,-2.88321846 0.785985,-3.71641556 2.84453,-1.6189109 1.067325,1.0875251 2.543105,4.0046915 2.25873,4.4648198 -0.07132,0.1154049 0.01189,0.209827 0.184928,0.209827 0.216765,0 0.272506,0.3735207 0.179233,1.2010392 -0.09984,0.8857409 0.06889,1.8362129 0.642698,3.6205534 2.105031,6.545854 3.495475,14.839133 4.137736,24.679449 0.183481,2.811185 0.201249,2.662337 0.521113,-4.365625 0.371586,-8.164356 0.410917,-19.267231 0.07841,-22.1341165 C 75.273767,8.5507903 75.045279,7.8119128 74.660642,7.3990539 73.987833,6.6768774 73.705431,4.6844993 73.881066,1.8990366 c 0.163118,-2.58697229 0.581985,-3.5410021 1.50739,-3.4332995 0.565244,0.065786 0.760803,0.3233026 1.165119,1.53426272118608 C 77.238368,2.051008 77.234916,6.4104106 76.547729,7.382751 76.10428,8.0102129 76.081022,8.4024795 76.279528,11.90625 c 0.219643,3.876875 0.04883,25.652639 -0.212736,27.119791 -0.110126,0.617714 -0.0884,0.676393 0.09797,0.264583 0.131711,-0.291041 0.493831,-2.273162 0.80471,-4.404712 1.085477,-7.442602 3.57185,-15.331015 6.575872,-20.862996 0.671686,-1.236927 1.382658,-2.546614 1.579938,-2.910416 0.338921,-0.625002 0.348984,-0.603128 0.182568,0.396875 -0.288157,1.731551 -1.522633,6.272817 -3.236536,11.906249 -1.911867,6.284119 -3.052521,10.713318 -3.915065,15.20234 -0.787711,4.099559 -0.784526,5.039756 0.0077,2.26016 2.698923,-9.469946 8.416033,-17.087695 15.300352,-20.386916 1.977122,-0.947511 2.844081,-1.131293 2.844081,-0.602902 0,0.170026 -0.618575,1.152292 -1.374612,2.182812 -3.068659,4.182755 -7.273139,10.215415 -8.681946,12.457006 -1.779194,2.830924 -4.284269,7.575492 -4.098076,7.761685 0.07245,0.07245 0.162971,0.08211 0.20117,0.02148 3.803749,-6.037809 7.303573,-9.291999 11.943043,-11.104824 3.041613,-1.188479 7.157989,-1.391195 8.488849,-0.418044 0.41347,0.302336 0.11964,0.560873 -2.67625,2.35477 -4.400756,2.823609 -6.724072,4.613374 -9.445005,7.27595 -2.261369,2.212869 -5.469673,6.259454 -5.469673,6.898816 0,0.226068 -2.058499,0.307047 -7.805208,0.307047 -6.612642,0 -7.805207,-0.05814 -7.805207,-0.380537 z m 11.898146,-2.926755 c 0,-0.14552 -0.115416,-0.08599 -0.25648,0.132292 -0.141065,0.218281 -0.256481,0.515938 -0.256481,0.661458 0,0.145521 0.115416,0.08599 0.256481,-0.132291 0.141064,-0.218281 0.25648,-0.515938 0.25648,-0.661459 z m 0.516027,-1.190624 c 0.297033,-0.623694 0.291526,-0.632137 -0.09645,-0.147868 -0.226309,0.282475 -0.411471,0.62974 -0.411471,0.771701 0,0.336165 0.122211,0.186065 0.507924,-0.623833 z"
         id="path1611" />
      <path
         style="fill:#f3c84d"
         d="m 62.1081,46.212791 c -1.423431,-2.143843 -3.79686,-4.590748 -6.148723,-6.339075 -1.895158,-1.408821 -8.056318,-4.684133 -8.811281,-4.684133 -0.77242,0 -3.22726,-1.132693 -3.22726,-1.489096 0,-0.877241 3.938411,-1.944165 7.192598,-1.948489 4.19821,-0.0056 9.073,2.006449 12.053271,4.974884 2.082717,2.074446 3.975379,5.151351 4.944481,8.038256 1.01671,3.028729 1.14617,2.859861 -2.192475,2.859861 h -2.872957 z"
         id="path1610" />
      <path
         style="fill:#6e9084"
         d="m 69.585418,47.244462 c 0,-0.349114 -0.70698,-2.791023 -1.766574,-6.101754 -0.638631,-1.995416 -3.319949,-7.260513 -4.8591,-9.541436 -0.750084,-1.111576 -2.185535,-2.886132 -3.189891,-3.943458 -1.004356,-1.057326 -1.826102,-2.072151 -1.826102,-2.255167 0,-0.696575 2.788869,-0.149384 5.116101,1.003805 1.728036,0.856275 2.610194,1.516354 4.037621,3.021166 1.004567,1.059029 2.210882,2.507605 2.6807,3.21906 1.203468,1.822437 2.917353,6.354382 3.276081,8.662786 0.616819,3.969214 0.766259,3.258034 0.646606,-3.077173 -0.182954,-9.686842 -1.468992,-18.91285 -3.606613,-25.873767 -0.686032,-2.233986 -0.894027,-2.6278958 -1.511573,-2.8626864 -0.795917,-0.302607 -1.64309,-0.9908068 -1.64309,-1.3347617 0,-0.1229669 0.416719,-0.2235762 0.926042,-0.2235762 0.573264,0 1.127629,-0.2015873 1.455208,-0.5291667 0.768746,-0.7687456 0.878177,-0.6676392 0.727195,0.6718726 -0.09984,0.8857409 0.06889,1.8362129 0.642698,3.6205534 2.105031,6.545854 3.495475,14.839133 4.137736,24.679449 0.183481,2.811185 0.201249,2.662337 0.521113,-4.365625 0.371586,-8.164356 0.410917,-19.267231 0.07841,-22.1341165 -0.156589,-1.3501098 -0.38104,-2.0667644 -0.782132,-2.497286 -0.309386,-0.332087 -0.56252,-0.8194689 -0.56252,-1.083071 0,-0.5573671 0.01508,-0.5610389 0.908817,-0.2212418 0.432635,0.1644876 0.918486,0.1668618 1.340141,0.00655 0.558964,-0.2125177 0.661458,-0.1750472 0.661458,0.2418204 0,0.2713185 -0.208359,0.7505753 -0.46302,1.0650151 -0.417617,0.5156465 -0.44177,0.9531036 -0.246303,4.4610818 0.218803,3.92679 0.04439,25.702964 -0.217635,27.172707 -0.110126,0.617714 -0.0884,0.676393 0.09797,0.264583 0.131711,-0.291041 0.493831,-2.273162 0.80471,-4.404712 1.085477,-7.442602 3.57185,-15.331015 6.575872,-20.862996 0.671686,-1.236927 1.382658,-2.546614 1.579938,-2.910416 0.338921,-0.625002 0.348984,-0.603128 0.182568,0.396875 -0.288157,1.731551 -1.522633,6.272817 -3.236536,11.906249 -1.911867,6.284119 -3.052521,10.713318 -3.915065,15.20234 -0.787711,4.099559 -0.784526,5.039756 0.0077,2.26016 2.698923,-9.469946 8.416033,-17.087695 15.300352,-20.386916 1.977122,-0.947511 2.844081,-1.131293 2.844081,-0.602902 0,0.170026 -0.618575,1.152292 -1.374612,2.182812 -3.068659,4.182755 -7.273139,10.215415 -8.681946,12.457006 -1.779194,2.830924 -4.284269,7.575492 -4.098076,7.761685 0.07245,0.07245 0.162971,0.08211 0.20117,0.02148 3.803749,-6.037809 7.303573,-9.291999 11.943043,-11.104824 3.041613,-1.188479 7.157989,-1.391195 8.488849,-0.418044 0.41347,0.302336 0.11964,0.560873 -2.67625,2.35477 -4.400756,2.823609 -6.724072,4.613374 -9.445005,7.27595 -2.261369,2.212869 -5.469673,6.259454 -5.469673,6.898816 0,0.226068 -2.058499,0.307047 -7.805208,0.307047 -6.612642,0 -7.805207,-0.05814 -7.805207,-0.380537 z m 11.898146,-2.926755 c 0,-0.14552 -0.115416,-0.08599 -0.25648,0.132292 -0.141065,0.218281 -0.256481,0.515938 -0.256481,0.661458 0,0.145521 0.115416,0.08599 0.256481,-0.132291 0.141064,-0.218281 0.25648,-0.515938 0.25648,-0.661459 z m 0.516027,-1.190624 c 0.297033,-0.623694 0.291526,-0.632137 -0.09645,-0.147868 -0.226309,0.282475 -0.411471,0.62974 -0.411471,0.771701 0,0.336165 0.122211,0.186065 0.507924,-0.623833 z"
         id="path1645" />
      <path
         style="fill:#6e9084"
         d="m 62.1081,46.212791 c -1.423431,-2.143843 -3.79686,-4.590748 -6.148723,-6.339075 -1.895158,-1.408821 -8.056318,-4.684133 -8.811281,-4.684133 -0.77242,0 -3.22726,-1.132693 -3.22726,-1.489096 0,-0.877241 3.938411,-1.944165 7.192598,-1.948489 4.19821,-0.0056 9.073,2.006449 12.053271,4.974884 2.082717,2.074446 3.975379,5.151351 4.944481,8.038256 1.01671,3.028729 1.14617,2.859861 -2.192475,2.859861 h -2.872957 z"
         id="path1644" />
      <path
         style="fill:#668777"
         d="m 75.501975,7.9222664 c 0.1027,-0.6516442 0.05897,-0.7521086 -0.224859,-0.5165533 -0.269003,0.2232527 -0.451881,0.1503398 -0.773069,-0.3082215 -0.231392,-0.3303583 -0.41889,-0.7825187 -0.416662,-1.0048008 0.0024,-0.2414876 0.08229,-0.2953598 0.198438,-0.1338508 0.3008,0.4182694 1.891561,0.4747236 2.362542,0.083844 0.372425,-0.3090854 0.398317,-0.2729237 0.221521,0.3093908 -0.110107,0.3626609 -0.323342,0.7784459 -0.473855,0.9239668 -0.184469,0.1783494 -0.216487,0.1627496 -0.09824,-0.047864 0.09648,-0.1718458 0.05442,-0.3872319 -0.09348,-0.4786357 -0.272277,-0.1682765 -0.367064,0.3023147 -0.279251,1.3863951 0.02652,0.3274219 -0.08651,0.5953125 -0.251183,0.5953125 -0.185335,0 -0.250829,-0.3082129 -0.171907,-0.8089833 z"
         id="path1817" />
      <path
         style="fill:#668777"
         d="m 75.606077,9.6572913 c -0.06955,-0.363802 -0.02389,-0.6614583 0.101447,-0.6614583 0.125341,0 0.227893,0.2976563 0.227893,0.6614583 0,0.3638017 -0.04565,0.6614587 -0.101447,0.6614587 -0.0558,0 -0.158348,-0.297657 -0.227893,-0.6614587 z"
         id="path1816" />
      <path
         style="fill:#668777"
         d="m 69.400429,10.050471 c -0.18415,-0.4878692 -0.486885,-0.7900547 -0.791491,-0.7900547 -0.644381,0 -1.72152,-0.759874 -1.525874,-1.0764366 0.08378,-0.135564 0.547447,-0.24648 1.030363,-0.24648 0.482917,0 1.02625,-0.1785937 1.207407,-0.396875 0.181158,-0.2182812 0.433861,-0.396875 0.561564,-0.396875 0.315824,0 0.296097,1.5167713 -0.02229,1.7135434 -0.162138,0.1002065 -0.15857,0.4095188 0.0098,0.8524495 0.145368,0.3823474 0.166294,0.7931874 0.0465,0.9129794 -0.119792,0.119792 -0.351999,-0.137721 -0.516016,-0.572251 z"
         id="path1815" />
      <path
         style="fill:#668777"
         d="m 69.982292,11.1125 c 0.08994,-0.145521 0.216027,-0.264584 0.280199,-0.264584 0.06417,0 0.116676,0.119063 0.116676,0.264584 0,0.14552 -0.126089,0.264583 -0.280198,0.264583 -0.154109,0 -0.206613,-0.119063 -0.116677,-0.264583 z"
         id="path1813" />
      <path
         style="fill:#668777"
         d="m 75.956305,14.133159 c 0.0127,-0.308224 0.07539,-0.370919 0.159853,-0.159852 0.07643,0.190996 0.06703,0.419199 -0.02089,0.507118 -0.08792,0.08792 -0.150453,-0.06835 -0.138965,-0.347266 z"
         id="path1812" />
      <path
         style="fill:#668777"
         d="m 71.086288,14.590196 c 0.08626,-0.329867 0.0247,-0.56728 -0.147095,-0.56728 -0.162493,0 -0.276216,-0.0893 -0.252717,-0.198437 0.0235,-0.109141 -0.09556,-0.533611 -0.264583,-0.943266 -0.362043,-0.877488 -0.388636,-1.239547 -0.09104,-1.239547 0.383934,0 1.181837,2.941065 0.879834,3.243068 -0.187268,0.187268 -0.226252,0.09496 -0.124395,-0.294538 z"
         id="path1811" />
      <path
         style="fill:#668777"
         d="m 71.722972,18.366493 c 0.0127,-0.308225 0.07539,-0.37092 0.159853,-0.159853 0.07643,0.190996 0.06703,0.419199 -0.02089,0.507118 -0.08792,0.08792 -0.150452,-0.06835 -0.138963,-0.347265 z"
         id="path1809" />
      <path
         style="fill:#668777"
         d="m 71.987556,19.953993 c 0.0127,-0.308225 0.07539,-0.37092 0.159852,-0.159853 0.07643,0.190996 0.06703,0.419199 -0.02089,0.507118 -0.08792,0.08792 -0.150453,-0.06835 -0.138964,-0.347265 z"
         id="path1807" />
      <path
         style="fill:#668777"
         d="m 75.996801,20.6375 c 0,-0.509323 0.05445,-0.717683 0.121,-0.463021 0.06655,0.254661 0.06655,0.67138 0,0.926041 -0.06655,0.254662 -0.121,0.0463 -0.121,-0.46302 z"
         id="path1806" />
      <path
         style="fill:#668777"
         d="m 84.402083,28.210521 c 0,-0.05494 0.20836,-0.263301 0.463021,-0.463021 0.419644,-0.329107 0.429002,-0.319749 0.0999,0.0999 -0.345644,0.440729 -0.562916,0.580887 -0.562916,0.363126 z"
         id="path1801" />
      <path
         style="fill:#668777"
         d="m 60.969815,28.773437 -0.777105,-0.859896 0.859895,0.777105 c 0.472943,0.427408 0.859896,0.814362 0.859896,0.859896 0,0.204407 -0.218315,0.02444 -0.942686,-0.777105 z"
         id="path1798" />
      <path
         style="fill:#668777"
         d="m 52.723266,32.095816 c 0.257431,-0.06708 0.614619,-0.06267 0.79375,0.0098 0.179132,0.07248 -0.03149,0.127362 -0.468056,0.12197 -0.436562,-0.0054 -0.583125,-0.06469 -0.325694,-0.131774 z"
         id="path1796" />
      <path
         style="fill:#668777"
         d="m 75.956305,32.124826 c 0.0127,-0.308225 0.07539,-0.370919 0.159853,-0.159853 0.07643,0.190996 0.06703,0.4192 -0.02089,0.507118 -0.08792,0.08792 -0.150453,-0.06835 -0.138965,-0.347265 z"
         id="path1795" />
      <path
         style="fill:#668777"
         d="m 81.623959,32.543749 c 0.225755,-0.436562 0.469995,-0.79375 0.542755,-0.79375 0.07276,0 -0.05242,0.357188 -0.278172,0.79375 -0.225755,0.436563 -0.469995,0.79375 -0.542756,0.79375 -0.07276,0 0.05242,-0.357187 0.278173,-0.79375 z"
         id="path1793" />
      <path
         style="fill:#668777"
         d="m 65.118414,33.771623 c -0.222391,-0.267965 -0.169802,-0.465861 0.216761,-0.815696 0.283234,-0.256323 0.448345,-0.656906 0.370982,-0.900058 -0.120577,-0.378979 -0.0991,-0.384556 0.158995,-0.04129 0.68153,0.906434 0.812458,1.290074 0.505101,1.480031 -0.189955,0.117399 -0.234517,0.07328 -0.117392,-0.116234 0.103832,-0.168005 0.0627,-0.305464 -0.09141,-0.305464 -0.154109,0 -0.280198,0.171567 -0.280198,0.38126 0,0.552646 -0.421921,0.728224 -0.762837,0.317447 z"
         id="path1792" />
      <path
         style="fill:#668777"
         d="m 68.711498,38.515183 c -0.356981,-0.270695 -0.390277,-0.396501 -0.132292,-0.499864 0.216724,-0.08683 0.167005,-0.145884 -0.133883,-0.159015 -0.263249,-0.01149 -0.408264,-0.134751 -0.322255,-0.273916 0.224032,-0.362492 0.988681,-0.0086 0.836773,0.387221 -0.06975,0.181771 0.0067,0.464063 0.170002,0.627316 0.406453,0.406453 0.162642,0.358813 -0.418345,-0.08174 z"
         id="path1788" />
      <path
         style="fill:#668777"
         d="m 77.014639,43.237326 c 0.01269,-0.308225 0.07539,-0.37092 0.159852,-0.159853 0.07643,0.190996 0.06703,0.419199 -0.02089,0.507118 -0.08792,0.08792 -0.150453,-0.06835 -0.138964,-0.347265 z"
         id="path1783" />
      <path
         style="fill:#668777"
         d="m 80.433294,47.373246 c 0,-0.720063 2.067518,-5.082057 3.380847,-7.13282 1.475878,-2.304582 4.206659,-5.399443 4.567484,-5.176441 0.362381,0.223964 1.082735,-0.194704 0.946382,-0.550035 -0.07234,-0.18852 0.129175,-0.510841 0.447815,-0.716267 2.217094,-1.429354 2.201691,-1.421802 1.769971,-0.867848 -0.234739,0.301201 -0.261762,0.428069 -0.06615,0.310547 0.185854,-0.111658 0.330729,-0.06911 0.330729,0.09712 0,0.162698 0.121005,0.221028 0.2689,0.129625 0.147894,-0.0914 0.200399,-0.277025 0.116676,-0.41249 -0.08372,-0.135466 -0.04002,-0.246301 0.09712,-0.246301 0.137137,0 0.311611,-0.238125 0.38772,-0.529167 0.142919,-0.546521 0.717087,-0.745869 0.717087,-0.248968 0,0.154109 0.119063,0.206613 0.264584,0.116676 0.14552,-0.08994 0.264583,-0.01759 0.264583,0.160774 0,0.178363 0.0765,0.247798 0.169995,0.154301 0.0935,-0.0935 0.03204,-0.336223 -0.136576,-0.53939 -0.245945,-0.296346 -0.151915,-0.433456 0.475494,-0.693337 0.430136,-0.178168 0.908313,-0.245916 1.062617,-0.150551 0.154304,0.09537 0.280553,0.0473 0.280553,-0.106807 0,-0.154109 0.208359,-0.278375 0.463021,-0.276146 0.397225,0.0035 0.406624,0.04179 0.06615,0.269611 -0.34368,0.229965 -0.32839,0.317822 0.114078,0.655478 0.501889,0.383002 0.500523,0.401021 -0.07697,1.015734 -0.352844,0.375585 -0.833114,0.598899 -1.201139,0.5585 -0.33727,-0.03702 -0.778883,0.05065 -0.981364,0.194823 -0.293116,0.208711 -0.278243,0.233492 0.07298,0.121592 0.429179,-0.136738 0.885464,0.452199 0.787674,1.016668 -0.02521,0.145521 0.117841,0.05622 0.317892,-0.198437 0.383716,-0.488463 0.849429,-0.650601 0.569977,-0.198438 -0.08994,0.145521 -0.03743,0.264584 0.116677,0.264584 0.154109,0 0.280198,-0.127567 0.280198,-0.283483 0,-0.155915 0.188192,-0.09529 0.418205,0.134724 0.230014,0.230013 0.546066,0.339184 0.702339,0.242602 0.164441,-0.10163 0.207614,-0.05179 0.102488,0.118304 -0.0999,0.16165 -0.375958,0.219344 -0.613451,0.128209 -0.267922,-0.102811 -0.366051,-0.05931 -0.258553,0.114628 0.161102,0.26067 -3.061801,2.852307 -3.547067,2.852307 -0.119397,0 -0.371867,0.172852 -0.561044,0.384115 -0.300414,0.335486 -0.276967,0.335844 0.185208,0.0028 0.291042,-0.209708 -0.4147,0.510409 -1.568315,1.60026 -1.153615,1.089852 -2.225177,1.941861 -2.38125,1.893354 -0.156072,-0.04851 -0.205068,-0.0095 -0.108879,0.08669 0.14329,0.143289 -1.052471,1.900421 -3.544351,5.208309 -0.416462,0.55284 -4.700329,1.003583 -4.700329,0.494562 z m 6.773038,-10.794601 c 0.603489,-0.554414 1.274344,-1.389062 1.116469,-1.389062 -0.06203,0 -0.516686,0.416718 -1.010341,0.926041 -0.925158,0.954521 -1.000917,1.285047 -0.106128,0.463021 z m 7.022646,-1.762853 c 0.316496,0.195605 0.797616,-0.403798 0.591633,-0.737086 -0.140863,-0.227921 -1.236509,0.282647 -2.084193,0.971229 -0.489751,0.39783 -0.464538,0.398526 0.338499,0.0094 0.477217,-0.231272 0.996544,-0.340845 1.154061,-0.243494 z m -1.22985,-0.416929 c 0.09269,-0.149981 -0.01351,-0.194338 -0.248968,-0.103984 -0.458369,0.175893 -0.542234,0.365537 -0.161649,0.365537 0.136933,0 0.321711,-0.117699 0.410617,-0.261553 z m 3.235446,-2.459341 c -0.08034,-0.209372 -0.406058,-0.448663 -0.723809,-0.531757 -0.317752,-0.08309 -0.506163,-0.07951 -0.418691,0.008 0.08747,0.08747 -0.04958,0.404775 -0.304558,0.705118 -0.445921,0.525256 -0.444925,0.531562 0.02611,0.16536 0.663994,-0.51621 1.230079,-0.569556 1.230079,-0.115917 0,0.205405 -0.119062,0.373463 -0.264583,0.373463 -0.145521,0 -0.264583,0.144576 -0.264583,0.32128 0,0.206457 0.154771,0.166509 0.433055,-0.111775 0.23818,-0.238181 0.36732,-0.60436 0.286976,-0.813732 z"
         id="path1776" />
      <path
         style="fill:#668777"
         d="m 77.119063,46.525202 c 0.368688,-2.351112 1.418791,-6.735807 1.827679,-7.631453 0.232521,-0.509323 0.351705,-0.643241 0.264854,-0.297595 -0.106223,0.422742 -0.06203,0.569187 0.135018,0.447406 0.2918,-0.180342 0.39558,0.254487 0.311558,1.305398 -0.03518,0.43995 0.0036,0.462254 0.230063,0.132291 0.236648,-0.344821 0.272904,-0.339037 0.276424,0.0441 0.0022,0.242535 -0.116984,0.481318 -0.264916,0.530628 -0.147931,0.04931 -0.316004,0.446186 -0.373494,0.881945 -0.05749,0.435759 -0.44778,1.863243 -0.867311,3.172187 -0.549577,1.71469 -0.896571,2.405664 -1.241432,2.472078 -0.42367,0.08159 -0.45795,-0.03981 -0.298443,-1.056982 z"
         id="path1775" />
      <path
         style="fill:#668777"
         d="m 73.737368,39.092187 c -0.140888,-7.941582 -0.438714,-11.91823 -1.21371,-16.205729 -0.165881,-0.9177 -0.195344,-1.9224 -0.06983,-2.38125 0.19803,-0.723956 0.248052,-0.630898 0.56889,1.058333 0.193473,1.018646 0.362432,2.405282 0.375464,3.081413 0.01303,0.676131 0.08941,1.189694 0.169729,1.141251 0.183701,-0.110796 0.988477,7.211919 1.23699,11.255461 0.163903,2.666855 0.20973,2.879294 0.370998,1.719792 0.101197,-0.727605 0.194426,-2.721901 0.207174,-4.431771 0.01275,-1.70987 0.112476,-3.109128 0.221617,-3.109462 0.109141,-3.34e-4 0.181936,1.100994 0.161768,2.447396 -0.02983,1.991111 0.0038,2.225786 0.180402,1.257378 0.140999,-0.773365 0.173341,-0.03561 0.09228,2.10515 -0.06863,1.812676 -0.04946,3.220447 0.04261,3.12838 0.137667,-0.137667 0.80872,-4.039936 0.945482,-5.498113 0.02047,-0.218281 0.123459,0.198437 0.22886,0.926042 0.114689,0.791731 0.08488,1.458859 -0.07425,1.661481 -0.180192,0.229445 -0.165253,0.559434 0.04635,1.023855 0.279216,0.612813 0.262343,0.666292 -0.159538,0.505656 -0.37831,-0.144046 -0.406254,-0.113627 -0.141048,0.15354 0.181901,0.183247 0.341467,0.577254 0.354591,0.875572 0.01534,0.34867 0.115227,0.224907 0.279667,-0.346514 0.39404,-1.369275 0.455245,-0.890275 0.147389,1.153493 -0.220545,1.46414 -0.319175,1.713532 -0.470868,1.190625 -0.235857,-0.813032 -0.291166,-0.47518 -0.36817,2.248958 -0.111621,3.948763 0.05312,3.571875 -1.561258,3.571875 h -1.420212 z m -0.0025,-10.566797 c -0.08446,-0.211067 -0.147157,-0.148372 -0.159853,0.159852 -0.01149,0.278915 0.05105,0.435185 0.138965,0.347266 0.08792,-0.08792 0.09732,-0.316122 0.02089,-0.507118 z"
         id="path1774" />
      <path
         style="fill:#668777"
         d="m 69.889385,47.360416 c -0.03254,-0.323676 -1.83323,-6.022386 -2.549905,-8.069792 -0.149008,-0.425688 -0.129402,-0.451558 0.100261,-0.132291 0.246782,0.343064 0.28604,0.334096 0.289542,-0.06615 0.0046,-0.528639 0.794662,-0.62491 1.265377,-0.154195 0.524132,0.524132 0.696932,-0.475153 0.248223,-1.435449 -0.220437,-0.471763 -0.581209,-1.295983 -0.801716,-1.831598 -0.355341,-0.863133 -2.73434,-4.714696 -2.912131,-4.714696 -0.03809,0 -0.05654,0.327422 -0.04101,0.727605 0.03695,0.951905 -0.139619,1.268415 -0.458561,0.821997 -0.196731,-0.275362 -0.222533,-0.253101 -0.110774,0.09557 0.08013,0.250001 0.03272,0.524371 -0.105364,0.609711 -0.144544,0.08933 -0.02511,0.598068 0.281516,1.199098 0.738479,1.44754 0.452712,1.312732 -0.3816,-0.180015 -0.767509,-1.373222 -0.815814,-1.53453 -0.378616,-1.264326 0.190776,0.117905 0.233581,0.07248 0.11401,-0.120993 -0.1053,-0.170379 -0.296316,-0.244971 -0.42448,-0.165761 -0.319034,0.197173 -0.858054,-0.867521 -0.627807,-1.240068 0.108974,-0.176323 0.06782,-0.227324 -0.09982,-0.123713 -0.156878,0.09696 -0.557575,-0.21207 -0.890439,-0.686724 -0.450045,-0.64175 -0.482305,-0.764229 -0.125832,-0.477729 0.6823,0.548371 1.177193,0.567498 1.039293,0.04017 -0.08104,-0.309904 0.04875,-0.444343 0.429,-0.444343 0.482875,0 0.646038,0.193844 0.59123,0.702405 -0.0091,0.08489 0.155346,0.154341 0.365543,0.154341 0.41044,0 0.533248,-0.603431 0.152567,-0.749653 -0.126286,-0.04851 -0.309846,-0.385851 -0.407913,-0.749653 l -0.178302,-0.661458 0.398536,0.661458 c 0.355273,0.589652 0.569058,0.432046 0.44862,-0.330729 -0.01723,-0.109141 0.102309,-0.198438 0.265648,-0.198438 0.193811,0 0.170832,-0.157259 -0.06615,-0.452683 -0.231662,-0.288797 -0.04253,-0.227771 0.522413,0.168567 0.948578,0.665477 3.760763,4.063201 4.423151,5.344118 0.220812,0.427005 0.318684,0.910334 0.217492,1.074066 -0.119642,0.193584 -0.06366,0.223331 0.160067,0.08506 0.262291,-0.162105 0.303213,-0.04992 0.172201,0.472071 -0.09452,0.376588 -0.05371,0.757718 0.09067,0.846955 0.153347,0.09477 0.201764,-0.03603 0.116422,-0.314514 -0.08036,-0.262219 0.02523,-0.179106 0.234637,0.184696 0.209406,0.363802 0.462909,0.959114 0.56334,1.322916 0.147504,0.534326 0.123619,0.585179 -0.124274,0.264584 -0.260293,-0.336634 -0.283005,-0.323309 -0.149623,0.08778 0.08649,0.266563 0.159073,0.623751 0.161302,0.79375 0.0025,0.18937 0.09559,0.164486 0.240383,-0.06424 0.262873,-0.415261 0.741617,0.956938 0.914888,2.622292 0.05299,0.509323 0.04367,0.717682 -0.02072,0.463021 -0.06439,-0.254662 -0.23488,-0.463021 -0.378868,-0.463021 -0.143988,0 -0.188211,0.119062 -0.09828,0.264583 0.08994,0.145521 -0.0065,0.264584 -0.214416,0.264584 -0.417688,0 -0.437863,1.744373 -0.05279,4.564062 0.147812,1.082338 0.120904,1.521354 -0.09324,1.521354 -0.169563,0 -0.301012,-0.418542 -0.301012,-0.958438 0,-0.862983 -0.04384,-0.922273 -0.440192,-0.595313 -0.400134,0.33008 -0.410611,0.307616 -0.115133,-0.246855 0.178783,-0.335489 0.267207,-0.752208 0.196497,-0.926041 -0.07071,-0.173834 -0.139785,-0.07794 -0.153502,0.213105 -0.02115,0.448842 -0.06828,0.468923 -0.31043,0.132292 -0.244387,-0.339735 -0.265115,-0.332996 -0.143967,0.0468 0.07784,0.244022 -0.02293,0.580157 -0.223919,0.746967 -0.200993,0.166809 -0.414202,0.621999 -0.473797,1.011532 -0.05959,0.389533 -0.12631,0.529648 -0.148256,0.311367 z m 0.438684,-1.726793 c -0.08146,-0.08146 -0.229406,0.06538 -0.328766,0.326319 -0.143585,0.377084 -0.113194,0.407475 0.148113,0.148113 0.180821,-0.179476 0.262115,-0.39297 0.180653,-0.474432 z m -0.44577,-6.124717 c -0.311902,-0.536368 -0.387221,-0.36469 -0.131904,0.300656 0.09074,0.236459 0.220714,0.37419 0.288836,0.306068 0.06812,-0.06812 -0.0025,-0.341148 -0.156932,-0.606724 z"
         id="path1773" />
      <path
         style="fill:#668777"
         d="m 62.970835,47.340319 c 0,-0.417524 -2.269222,-3.295968 -3.824035,-4.850682 -2.012999,-2.012869 -4.747323,-3.982716 -7.465997,-5.378611 -1.33457,-0.685231 -2.370183,-1.336983 -2.301362,-1.448337 0.06882,-0.111354 -0.03666,-0.140377 -0.234407,-0.0645 -0.197745,0.07588 -0.769476,-0.05108 -1.270513,-0.282127 -0.570128,-0.262913 -0.677612,-0.371656 -0.287269,-0.290634 0.343039,0.0712 0.908586,0.02115 1.25677,-0.11123 0.390556,-0.148489 0.633063,-0.145025 0.633063,0.009 0,0.137352 0.188577,0.177367 0.419059,0.08892 0.33027,-0.126737 0.345909,-0.206018 0.07381,-0.374185 -0.734081,-0.453687 0.122727,-0.587338 1.951053,-0.30434 1.352804,0.209395 1.960728,0.2131 2.084578,0.01271 0.09616,-0.155592 0.300989,-0.204929 0.455172,-0.109638 0.172137,0.106386 0.240477,-0.03371 0.177065,-0.362978 -0.06433,-0.334052 0.03751,-0.536234 0.27011,-0.536234 0.223191,0 0.31212,-0.159639 0.221084,-0.396875 -0.08376,-0.218281 -0.397525,-0.396875 -0.697251,-0.396875 -0.299726,0 -0.472008,-0.07295 -0.382849,-0.162107 0.320403,-0.320404 3.009089,0.512651 5.057585,1.567028 3.474096,1.788144 6.749568,5.261301 6.643489,7.044444 -0.02654,0.446079 0.0587,0.811052 0.189413,0.811052 0.130714,0 0.176342,0.09922 0.101394,0.220486 -0.07495,0.121267 0.0266,0.220486 0.225654,0.220486 0.279333,0 0.303067,-0.155973 0.104008,-0.683507 -0.591745,-1.568204 0.295626,0.0086 1.071129,1.903354 0.631173,1.542105 0.805674,2.304506 0.696423,3.042708 -0.108806,0.735201 -0.08267,0.85081 0.103052,0.455848 0.239094,-0.508462 0.249557,-0.505874 0.267426,0.06615 0.01814,0.580744 -0.04939,0.595312 -2.759529,0.595312 -1.80644,0 -2.778124,-0.09957 -2.778124,-0.28468 z m 4.602954,-0.200389 c 0.07495,-0.121268 -0.03709,-0.220486 -0.248968,-0.220486 -0.21188,0 -0.385237,0.09922 -0.385237,0.220486 0,0.121267 0.112036,0.220486 0.248969,0.220486 0.136932,0 0.310289,-0.09922 0.385236,-0.220486 z"
         id="path1772" />
      <path
         style="fill:#567768"
         d="m 69.803568,8.0237069 c 0.112905,-0.5537619 0.179437,-0.6202946 0.25654,-0.2565407 0.05726,0.2701186 -0.01134,0.6065681 -0.152439,0.7476655 -0.165666,0.1656654 -0.202542,-0.00831 -0.104101,-0.4911248 z"
         id="path1977" />
      <path
         style="fill:#567768"
         d="m 68.328523,8.4005205 c 0.16261,-0.4883766 0.904117,-0.5515719 0.904117,-0.077054 0,0.2254842 -0.226707,0.407783 -0.507118,0.407783 -0.288036,0 -0.459545,-0.1428796 -0.396999,-0.330729 z"
         id="path1976" />
      <path
         style="fill:#567768"
         d="m 68.477475,9.0796758 c 0.190996,-0.07643 0.419199,-0.067031 0.507118,0.020888 0.08792,0.087919 -0.06835,0.1504528 -0.347266,0.1389643 -0.308224,-0.012696 -0.370919,-0.075391 -0.159852,-0.1598523 z"
         id="path1975" />
      <path
         style="fill:#567768"
         d="m 74.150057,31.617708 c 0.0029,-0.582084 0.05712,-0.789055 0.120406,-0.459936 0.06329,0.329118 0.06088,0.805368 -0.0053,1.058333 -0.06622,0.252965 -0.118003,-0.01631 -0.115067,-0.598397 z"
         id="path1966" />
      <path
         style="fill:#567768"
         d="m 75.956305,36.358159 c 0.0127,-0.308224 0.07539,-0.370919 0.159853,-0.159852 0.07643,0.190996 0.06703,0.419199 -0.02089,0.507118 -0.08792,0.08792 -0.150453,-0.06835 -0.138965,-0.347266 z"
         id="path1965" />
      <path
         style="fill:#567768"
         d="m 76.770943,36.777083 c 0,-0.363802 0.06005,-0.512631 0.133453,-0.33073 0.0734,0.181901 0.0734,0.479558 0,0.661459 -0.0734,0.181901 -0.133453,0.03307 -0.133453,-0.330729 z"
         id="path1964" />
      <path
         style="fill:#567768"
         d="m 84.642913,38.938135 c 0.142696,-0.26663 0.4673,-0.653583 0.721342,-0.859896 0.285821,-0.232122 0.22193,-0.04732 -0.167604,0.484781 -0.694916,0.949258 -0.955474,1.125765 -0.553738,0.375115 z"
         id="path1961" />
      <path
         style="fill:#567768"
         d="m 75.424848,38.166145 c 0.01338,-1.094575 0.08239,-1.372909 0.245987,-0.992187 0.318776,0.741832 0.318776,2.513541 0,2.513541 -0.147869,0 -0.25638,-0.671109 -0.245987,-1.521354 z"
         id="path1960" />
      <path
         style="fill:#567768"
         d="m 75.329588,40.745833 c -0.07611,-0.291042 -0.03046,-0.529167 0.101433,-0.529167 0.131897,0 0.239813,0.238125 0.239813,0.529167 0,0.291041 -0.04564,0.529166 -0.101433,0.529166 -0.05579,0 -0.163704,-0.238125 -0.239813,-0.529166 z"
         id="path1959" />
      <path
         style="fill:#567768"
         d="m 78.072972,41.649826 c 0.0127,-0.308225 0.07539,-0.37092 0.159852,-0.159853 0.07643,0.190996 0.06703,0.419199 -0.02089,0.507118 -0.08792,0.08792 -0.150453,-0.06835 -0.138964,-0.347265 z"
         id="path1958" />
      <path
         style="fill:#567768"
         d="m 57.967442,41.310675 c -0.8518,-0.755928 -1.258317,-1.270398 -1.003827,-1.270398 0.235231,0 0.37471,0.08573 0.309953,0.190507 -0.179345,0.290186 0.608682,0.848872 0.923177,0.654503 0.151895,-0.09388 0.276173,-0.0225 0.276173,0.158607 0,0.18111 0.258879,0.604856 0.575287,0.941657 0.922785,0.982259 0.463057,0.695185 -1.080763,-0.674876 z"
         id="path1957" />
      <path
         style="fill:#567768"
         d="m 71.741727,45.888172 c -0.0218,-0.300414 -0.452148,-2.021111 -0.956322,-3.823772 -0.504173,-1.802661 -0.878353,-3.315891 -0.831511,-3.362733 0.332873,-0.332874 2.08709,6.044435 1.934896,7.034157 -0.07754,0.504242 -0.118447,0.54662 -0.147063,0.152348 z"
         id="path1954" />
      <path
         style="fill:#567768"
         d="m 77.309914,46.16979 c 0.0054,-0.436563 0.06469,-0.583125 0.131774,-0.325694 0.06708,0.257431 0.06267,0.614619 -0.0098,0.79375 -0.07248,0.179132 -0.127362,-0.03149 -0.12197,-0.468056 z"
         id="path1952" />
      <path
         style="fill:#567768"
         d="m 80.592268,46.97044 c 0.533413,-1.821467 3.340372,-7.282941 3.743113,-7.282941 0.07016,0 -0.07728,0.312634 -0.32765,0.694742 -0.36497,0.557014 -0.38662,0.737134 -0.109209,0.908583 0.413254,0.255405 0.797231,0.0662 0.743813,-0.366505 -0.08406,-0.680895 0.04959,-0.91866 0.619644,-1.102373 0.327422,-0.10552 0.756089,-0.170974 0.952593,-0.145455 0.218625,0.02839 0.279771,-0.07901 0.157557,-0.27676 -0.126071,-0.203987 -0.08951,-0.255045 0.09914,-0.138452 0.166021,0.102607 0.801611,-0.268289 1.429942,-0.834438 1.38718,-1.249897 3.37417,-2.820914 3.909206,-3.09082 0.218282,-0.110114 -0.01984,0.137377 -0.529166,0.549982 -3.126595,2.532865 -5.754241,5.7149 -7.711265,9.338212 -1.073242,1.987044 -1.179294,2.095812 -2.132062,2.186673 -0.901512,0.08597 -0.986806,0.04155 -0.845656,-0.440448 z"
         id="path1945" />
      <path
         style="fill:#567768"
         d="m 73.864975,40.15052 c 0.02542,-4.110963 0.10702,-6.938698 0.181325,-6.283854 l 0.135101,1.190625 0.157297,-1.190625 c 0.106399,-0.80537 0.226996,0.194502 0.3727,3.090086 0.162749,3.23429 0.304272,4.314813 0.578947,4.420215 0.465065,0.178463 0.640277,-0.120376 1.048346,-1.788041 l 0.331961,-1.356635 0.06059,1.322917 c 0.03332,0.727604 0.03397,1.441979 0.0014,1.5875 -0.03253,0.14552 -0.09705,0.443177 -0.14338,0.661458 -0.04633,0.218281 -0.09334,1.617265 -0.104476,3.108854 l -0.02024,2.711979 h -1.322917 -1.322916 z"
         id="path1944" />
      <path
         style="fill:#567768"
         d="m 65.70224,46.100506 c -0.898395,-1.622851 -1.967675,-3.127809 -1.432394,-2.016024 0.148429,0.308288 0.184763,0.654799 0.08074,0.770023 -0.104021,0.115225 -0.01054,0.108025 0.207746,-0.016 0.342127,-0.194393 0.346783,-0.163746 0.03375,0.222163 -0.393123,0.484645 -0.696792,0.613751 -0.430624,0.183081 0.08994,-0.145521 0.02355,-0.264583 -0.147535,-0.264583 -0.180795,0 -0.253107,0.2216 -0.172677,0.529166 0.07611,0.291042 0.03046,0.529167 -0.101433,0.529167 -0.131897,0 -0.239813,-0.137516 -0.239813,-0.30559 0,-0.182009 -0.19714,-0.127181 -0.487484,0.135577 -0.462965,0.418977 -0.562191,0.352278 -1.972724,-1.326028 -0.816881,-0.971957 -1.433758,-1.850492 -1.370838,-1.952299 0.06292,-0.101808 -0.120916,-0.398064 -0.408526,-0.658348 -0.649314,-0.587621 -0.675488,-1.49158 -0.05442,-1.879445 0.25768,-0.160924 0.492969,-0.588135 0.522865,-0.949359 0.05866,-0.708743 -1.114535,-1.712948 -3.288527,-2.814847 -1.491279,-0.755862 -1.722181,-1.216854 -0.295872,-0.590704 2.325363,1.020835 3.977548,2.09651 5.536965,3.604908 2.471091,2.390244 4.379707,5.273787 5.115376,7.728323 0.327318,1.092085 -0.244205,0.606923 -1.094578,-0.929181 z m -1.880733,-1.483035 c 0.15652,0.09673 0.223194,0.01142 0.153791,-0.196789 -0.181587,-0.544762 -0.590766,-0.44539 -0.665445,0.161609 -0.03581,0.291041 0.0025,0.379597 0.08512,0.196789 0.08262,-0.182808 0.274564,-0.255532 0.426534,-0.161609 z m -0.321506,-2.11945 c 0,-0.05494 -0.208359,-0.263302 -0.463021,-0.463021 -0.419644,-0.329107 -0.429002,-0.319749 -0.09989,0.0999 0.345643,0.440729 0.562915,0.580887 0.562915,0.363126 z"
         id="path1943" />
    </g>
  </g>
</svg>
