<?xml version="1.0" encoding="UTF-8" standalone="no"?>
<!-- Created with Inkscape (http://www.inkscape.org/) -->

<svg
   width="64.41539mm"
   height="58.992348mm"
   viewBox="0 0 64.41539 58.992348"
   version="1.1"
   id="svg1"
   xmlns="http://www.w3.org/2000/svg"
   xmlns:svg="http://www.w3.org/2000/svg">
  <defs
     id="defs1" />
  <g
     id="layer1"
     transform="translate(-55.297918,-112.44792)">
    <g
       id="g6214"
       transform="matrix(0.84695172,0,0,0.84695172,434.00185,70.985751)"
       style="stroke-width:1.1807">
      <path
         style="fill:#daa4ad;stroke-width:1.1807"
         d="m -415.52812,118.48862 c -11.02169,-0.32056 -25.77808,-1.54088 -29.96406,-2.47795 -1.30556,-0.29226 -0.37999,-1.33035 2.71198,-3.04167 0.87313,-0.48325 1.62552,-0.90566 1.67198,-0.93868 0.0465,-0.033 -0.0726,-0.31702 -0.26458,-0.6311 -0.30106,-0.49251 -0.28462,-0.61888 0.11949,-0.91887 0.2577,-0.19131 0.95331,-0.42535 1.54579,-0.52009 l 1.07723,-0.17225 -0.95048,-1.05207 c -0.52276,-0.57863 -0.95047,-1.17372 -0.95047,-1.32243 0,-0.47272 1.36845,-0.81203 2.55647,-0.63388 l 1.1477,0.17211 v -0.96439 c 0,-1.1867 0.56933,-1.48312 1.6535,-0.86089 1.0397,0.59671 1.16137,0.56785 1.48185,-0.35147 0.15219,-0.43656 0.435,-0.79375 0.62847,-0.79375 0.57362,0 1.50209,0.77022 1.93302,1.60356 0.51395,0.99387 1.05981,0.98832 1.5792,-0.0161 0.28829,-0.55749 0.60532,-0.79375 1.06513,-0.79375 0.85384,0 0.82917,-0.40835 -0.0729,-1.20736 -2.25863,-2.00048 -2.74747,-2.5223 -2.64578,-2.82423 0.0619,-0.18372 0.34018,-0.33847 0.61846,-0.34389 0.67426,-0.0131 0.7012,-0.27312 0.19475,-1.879744 -0.87359,-2.771355 0.26909,-3.010484 1.69534,-0.354783 0.64541,1.201758 1.20097,1.910287 1.57503,2.008687 0.32441,0.0853 0.69556,0.48953 0.84613,0.92147 0.28307,0.81202 0.82492,1.05128 0.82492,0.36425 0,-0.78438 0.84995,-0.77787 1.47924,0.0113 0.51063,0.6404 0.66321,0.70183 1.01602,0.40902 0.57892,-0.48046 0.54225,-0.75092 -0.64691,-4.770889 -0.58003,-1.960804 -1.0546,-3.836038 -1.0546,-4.167187 0,-1.295533 0.51673,-0.473805 1.49315,2.374472 0.99017,2.888408 1.0439,2.977239 1.81414,2.999413 0.43656,0.01257 0.98742,0.108967 1.22413,0.214219 0.31681,0.140868 0.4733,0.02036 0.59303,-0.456688 0.21699,-0.864555 0.7923,-1.04342 1.53939,-0.478598 0.76655,0.579535 2.06741,0.70243 2.06741,0.195314 0,-0.200576 -0.17263,-1.30057 -0.38362,-2.444432 -0.68985,-3.74 -1.50805,-9.929321 -1.36269,-10.308137 0.27634,-0.720138 0.91393,-0.356607 1.32226,0.753909 0.2274,0.618464 0.77778,3.327136 1.22305,6.019271 1.14812,6.941473 1.41849,8.092556 1.86911,7.957619 0.20603,-0.0617 0.70202,-0.09625 1.1022,-0.0768 0.84997,0.04133 0.85735,0.01672 0.31159,-1.038674 -0.57165,-1.105435 -0.32503,-1.605035 0.74117,-1.501491 0.85237,0.08278 0.85887,0.0744 1.03449,-1.333108 0.0972,-0.779026 0.29928,-1.538976 0.44909,-1.688778 0.40473,-0.404736 1.06244,-0.04966 1.57437,0.849964 0.24935,0.438168 0.51289,0.79667 0.58565,0.79667 0.0728,0 0.33513,-0.356475 0.58305,-0.792166 0.87706,-1.541322 2.43313,-1.645834 2.64221,-0.177462 0.0728,0.511425 0.21915,0.566618 1.30347,0.491644 0.87314,-0.06037 1.26273,0.02316 1.36625,0.292938 0.16124,0.420169 -1.01994,2.569642 -1.41206,2.569642 -0.13728,0 -0.24959,0.112216 -0.24959,0.24937 0,0.137154 0.49676,0.285982 1.10391,0.330729 1.35467,0.09984 1.49879,0.439041 0.62683,1.475306 -0.69488,0.82582 -0.85677,1.50359 -0.42315,1.77158 0.13709,0.0847 0.44922,-0.26735 0.69363,-0.7824 0.557,-1.1738 0.78839,-1.319528 2.09982,-1.322442 0.94609,-0.0021 1.10627,-0.100562 1.51031,-0.928393 0.24858,-0.509323 0.85716,-2.451401 1.35239,-4.315728 0.92351,-3.476611 1.27804,-4.217072 1.77918,-3.715938 0.34913,0.349129 -0.0392,2.943056 -0.97681,6.524316 -0.64807,2.475465 -0.65795,2.616985 -0.21668,3.104575 0.31964,0.35321 0.65832,0.4617 1.09732,0.35151 0.6885,-0.1728 1.672,0.4997 1.672,1.14329 0,0.57469 0.7126,0.69899 1.36952,0.23887 0.79781,-0.55882 1.97808,-0.53785 2.30196,0.0409 0.24089,0.43045 0.29937,0.4238 0.87304,-0.0992 0.8501,-0.77507 1.65197,-1.15588 2.43393,-1.15588 0.90161,0 1.0582,0.36372 0.56619,1.31515 -0.32973,0.63764 -0.34228,0.80152 -0.0614,0.80152 0.1942,0 0.58422,0.17833 0.86669,0.39628 0.50093,0.38651 0.4953,0.41259 -0.22877,1.05833 -0.40829,0.36413 -0.91431,0.66206 -1.12448,0.66206 -1.09318,0 0.66937,1.34773 2.43856,1.86464 0.99978,0.29211 1.17601,0.26816 1.91869,-0.26067 1.02895,-0.73268 1.97555,-0.6391 2.09536,0.20715 0.0675,0.47687 0.21187,0.58806 0.6237,0.48036 0.63648,-0.16644 1.80199,0.22833 1.80199,0.61034 0,0.148 -0.36088,0.59064 -0.80195,0.98363 -0.6835,0.60901 -0.73995,0.74924 -0.38221,0.94944 0.23086,0.1292 0.52287,0.50614 0.64891,0.83765 0.12717,0.3345 1.35186,1.3452 2.7518,2.271 2.66342,1.76135 3.07329,2.21826 2.33766,2.60598 -1.1247,0.59277 -14.52373,1.93567 -24.00109,2.40546 -7.72854,0.3831 -11.99924,0.43455 -19.05,0.22948 z"
         id="path6202" />
      <path
         style="fill:#daae71;stroke-width:1.1807"
         d="m -418.04166,118.25534 c -14.19827,-0.65718 -27.44541,-2.00681 -27.71407,-2.82352 -0.10551,-0.32075 2.8582,-2.39335 4.32723,-3.02613 1.05367,-0.45386 1.05063,-0.44875 0.50423,-0.84829 -0.74658,-0.54591 -0.31686,-1.1496 0.96992,-1.36259 0.6286,-0.10405 1.24299,-0.24868 1.36532,-0.32139 0.12233,-0.0727 -0.22106,-0.58636 -0.76308,-1.14144 -1.34023,-1.37252 -1.13101,-1.89317 0.73817,-1.83698 2.1655,0.0651 2.11329,0.0868 1.91911,-0.7973 -0.22516,-1.02513 0.43336,-1.33102 1.52126,-0.70665 1.0937,0.6277 1.43305,0.55381 1.6141,-0.35147 0.20134,-1.0067 1.01447,-1.0647 1.68098,-0.11988 1.15259,1.63385 1.27259,1.74021 1.75473,1.5552 0.26454,-0.10152 0.58473,-0.45748 0.71155,-0.79104 0.14743,-0.38776 0.49058,-0.63715 0.95152,-0.69152 1.4255,-0.16816 1.2002,-0.57011 -1.81795,-3.24331 -0.9207,-0.81548 -0.94667,-1.31093 -0.0598,-1.1414 0.36728,0.0702 0.72006,0.0431 0.78396,-0.0603 0.0639,-0.10339 -0.11754,-0.803076 -0.40319,-1.554855 -1.11305,-2.929313 -0.27137,-3.333355 1.18207,-0.567445 0.53528,1.018646 1.14385,1.85208 1.35237,1.85208 0.20852,0 0.68255,0.48064 1.05339,1.06809 0.6815,1.07958 1.18446,1.18115 1.18446,0.23921 0,-0.74134 0.66313,-0.63094 1.28565,0.21406 l 0.53603,0.7276 0.58401,-0.57615 0.58401,-0.57616 -1.09798,-3.799715 c -1.10896,-3.837747 -1.34102,-5.018328 -0.80552,-4.09804 0.15199,0.261214 0.55224,1.273245 0.88944,2.248958 1.1485,3.323286 1.12348,3.281109 1.72393,2.906122 0.42567,-0.265837 0.6402,-0.266873 1.05934,-0.0051 0.78561,0.49062 1.06193,0.401752 1.06193,-0.341535 0,-0.872803 0.66934,-1.112163 1.36129,-0.486806 0.30131,0.272311 0.77313,0.457861 1.04848,0.412333 0.43611,-0.07211 0.50064,0.08989 0.50064,1.256771 0,0.964132 0.10258,1.339552 0.36602,1.339552 0.20131,0 0.42255,-0.2162 0.49165,-0.48044 0.1272,-0.486414 0.0699,-0.937829 -1.2738,-10.026227 -0.41329,-2.795488 -0.6645,-5.169651 -0.55823,-5.275918 0.59209,-0.592086 1.08485,0.923503 1.91915,5.902745 1.05442,6.292964 1.59247,9.065704 1.79935,9.27259 0.0844,0.0844 0.33009,0.007 0.54592,-0.1722 0.2421,-0.200926 0.70066,-0.257995 1.19702,-0.148976 0.89459,0.196486 0.96145,0.04501 0.40771,-0.923661 -0.65702,-1.149345 -0.51612,-1.633075 0.44807,-1.53828 0.83247,0.08184 0.84954,0.06046 1.15565,-1.447403 0.17089,-0.841761 0.38084,-1.600611 0.46656,-1.686332 0.32005,-0.320042 0.96192,0.178247 1.44661,1.123004 l 0.50052,0.975624 0.77954,-1.160702 c 0.99433,-1.480523 1.95022,-1.608783 2.33197,-0.312902 0.24027,0.815609 0.29169,0.842053 1.35418,0.696423 0.69387,-0.09511 1.17348,-0.03964 1.2902,0.149211 0.22172,0.358759 -0.75508,2.027053 -1.31198,2.240758 -0.21534,0.08263 -0.39152,0.332571 -0.39152,0.55542 0,0.295308 0.28274,0.405179 1.04271,0.405179 1.34091,0 1.49949,0.29728 0.67885,1.272567 -0.36478,0.43351 -0.66141,1.00914 -0.65918,1.27917 0.005,0.60853 0.52238,1.38221 0.68217,1.02014 0.0642,-0.14552 0.38685,-0.74083 0.71696,-1.32292 0.55445,-0.97767 0.68693,-1.05833 1.73828,-1.05833 0.85399,0 1.25606,-0.145609 1.61069,-0.58331 0.39022,-0.481626 1.2991,-3.434412 2.33447,-7.584247 0.10418,-0.417572 0.30848,-0.715228 0.454,-0.661458 0.4226,0.156149 0.14452,2.500771 -0.68629,5.786304 -0.70339,2.781671 -0.73241,3.070051 -0.33826,3.361341 0.26093,0.19284 0.37526,0.53232 0.2896,0.8599 -0.1677,0.64127 0.13616,0.70648 0.61326,0.13162 0.53315,-0.64241 1.39994,-0.3533 1.82309,0.60808 0.43732,0.9936 0.85737,1.07085 1.79828,0.33073 0.37,-0.29104 0.89061,-0.52917 1.1569,-0.52917 0.2663,0 0.61162,0.23813 0.76738,0.52917 0.33741,0.63044 0.93919,0.69212 1.15919,0.1188 0.0866,-0.22571 0.70731,-0.65359 1.37933,-0.95086 1.45268,-0.64259 1.97608,-0.39257 1.47597,0.70504 -0.43128,0.94655 -0.39033,1.18535 0.20323,1.18535 0.28245,0 0.59177,0.12657 0.68738,0.28126 0.23413,0.37882 -0.63655,1.30624 -1.22632,1.30624 -0.82633,0 -0.86123,0.56702 -0.0745,1.21042 0.41874,0.34245 0.86241,0.62692 0.98593,0.63215 0.12353,0.005 0.64551,0.20925 1.15996,0.45337 0.91759,0.43543 0.96029,0.42985 2.24691,-0.29339 1.3307,-0.74803 1.66528,-0.70335 1.83635,0.24518 0.0786,0.43579 0.26789,0.51307 1.08452,0.44271 1.39921,-0.12055 1.60324,0.5504 0.45809,1.50642 l -0.86491,0.72206 0.69755,0.45706 c 0.38366,0.25138 0.69756,0.6322 0.69756,0.84627 0,0.21407 0.98227,1.02654 2.18281,1.80548 2.49066,1.616 3.39097,2.47111 2.81414,2.67282 -1.42423,0.49806 -13.89556,1.7562 -22.45945,2.26579 -6.86467,0.40847 -17.17004,0.52013 -23.01875,0.24942 z m -2.23246,-16.41744 c 0.20963,-0.3392 -0.839,-1.48797 -1.11046,-1.21651 -0.2333,0.2333 0.33794,1.50778 0.6758,1.50778 0.14005,0 0.33565,-0.13108 0.43466,-0.29127 z"
         id="path6187" />
      <path
         style="fill:#aca892;stroke-width:1.1807"
         d="m -418.04166,118.25534 c -10.33253,-0.47825 -20.69021,-1.36027 -25.79687,-2.19676 -1.32501,-0.21704 -1.85209,-0.41514 -1.85209,-0.69612 0,-0.59682 4.22357,-3.13448 5.37659,-3.23042 1.02132,-0.085 1.29989,-0.54465 0.42543,-0.70199 -0.71363,-0.12841 -1.07988,-0.52527 -0.62074,-0.67264 0.20624,-0.0662 0.82772,-0.19573 1.38107,-0.28785 1.42081,-0.23655 1.50449,-0.78138 0.28291,-1.84191 -0.56343,-0.48916 -0.93166,-0.98411 -0.81828,-1.09989 0.11337,-0.11579 0.88728,-0.21698 1.71979,-0.22487 l 1.51365,-0.0144 0.0821,-0.99219 c 0.0452,-0.5457 0.1392,-0.99218 0.20898,-0.99218 0.0698,0 0.60245,0.24262 1.18372,0.53917 1.22545,0.62518 1.44152,0.55569 1.65939,-0.53367 0.25437,-1.27184 0.86936,-1.00299 1.80533,0.78922 0.47969,0.91853 0.79023,1.20908 1.3626,1.27492 1.09239,0.12564 1.48448,-0.31748 1.24001,-1.40143 -0.18828,-0.8348 -0.15229,-0.90981 0.47224,-0.98437 1.37646,-0.16434 1.13546,-0.58337 -1.86283,-3.23898 -0.9207,-0.81548 -0.94667,-1.31093 -0.0598,-1.1414 0.36728,0.0702 0.72006,0.0431 0.78396,-0.0603 0.0639,-0.10339 -0.11754,-0.803076 -0.40319,-1.554855 -1.11305,-2.929313 -0.27137,-3.333355 1.18207,-0.567445 0.53584,1.019696 1.14914,1.85208 1.36461,1.85208 0.36197,0 1.62755,1.78985 1.51226,2.13872 -0.0281,0.0849 0.0966,0.15434 0.27712,0.15434 0.18046,0 0.35278,-0.29799 0.38292,-0.66221 0.0301,-0.36421 0.11971,-0.72711 0.19904,-0.80644 0.22428,-0.22428 1.0534,0.4127 0.97518,0.74919 -0.0383,0.16496 0.0675,0.55636 0.23526,0.86979 0.30342,0.56694 0.30818,0.56587 0.9283,-0.20916 0.34283,-0.42846 0.62391,-0.92879 0.62464,-1.11184 7.2e-4,-0.18305 -0.47494,-1.967602 -1.05702,-3.965667 -1.52904,-5.248594 -1.36675,-5.93145 0.28977,-1.219226 0.45295,1.288493 0.92921,2.472732 1.05834,2.631642 0.12914,0.15891 0.15933,0.364392 0.0671,0.456627 -0.0922,0.09224 -0.0352,0.327319 0.12668,0.52241 0.16191,0.195094 0.32379,0.740624 0.35973,1.212294 0.0809,1.06151 0.53523,1.46602 1.40223,1.24841 0.8467,-0.21251 0.84306,-0.55702 -0.0118,-1.11715 -0.37219,-0.24387 -0.91159,-0.9038 -1.19867,-1.466529 -0.44981,-0.881698 -0.46701,-1.044221 -0.12447,-1.175669 0.50965,-0.19557 2.01106,0.459921 1.80758,0.789159 -0.0847,0.137128 -0.0365,0.176638 0.10726,0.0878 0.14374,-0.08884 0.20836,-0.522581 0.14359,-0.963874 -0.0853,-0.581411 0.005,-0.849293 0.32648,-0.972823 0.47276,-0.181412 1.07013,0.248029 1.07013,0.769294 0,0.172632 0.22246,0.356718 0.49436,0.409081 0.3071,0.05914 0.42646,-0.01465 0.31511,-0.194814 -0.0986,-0.15951 -0.0204,-0.290018 0.17377,-0.290018 0.25345,0 0.35113,0.421908 0.34634,1.496003 -0.007,1.65317 0.4376,2.15355 0.85367,0.96001 0.17591,-0.5046 0.15446,-1.463619 -0.0669,-2.988589 -0.17924,-1.235052 -0.66403,-4.532767 -1.07732,-7.328254 -0.41329,-2.795488 -0.6645,-5.169651 -0.55823,-5.275918 0.59214,-0.592139 1.08482,0.923411 1.91887,5.902745 0.48364,2.887295 1.06428,6.182836 1.29033,7.323423 0.22605,1.140588 0.411,2.094243 0.411,2.119233 0,0.025 0.71437,0.0551 1.5875,0.067 0.87312,0.0119 1.5875,-0.0845 1.5875,-0.21414 0,-0.438127 -0.80543,-1.79693 -1.06513,-1.79693 -0.14179,0 -0.25779,-0.238125 -0.25779,-0.529167 0,-0.352778 0.17639,-0.529166 0.52917,-0.529166 0.29104,0 0.52916,0.119062 0.52916,0.264583 0,0.145521 0.23273,0.264583 0.51718,0.264583 0.57478,0 0.96671,-1.332717 0.74028,-2.517234 -0.0692,-0.361771 -0.0162,-0.657766 0.11776,-0.657766 0.13393,0 0.16993,-0.119062 0.08,-0.264583 -0.24651,-0.398857 0.55255,-0.317737 0.89135,0.09049 0.16208,0.19529 0.21634,0.433415 0.12059,0.529167 -0.0957,0.09575 -0.0282,0.174093 0.1502,0.174093 0.17837,0 0.25224,0.116602 0.16416,0.259115 -0.19434,0.314443 0.31236,1.328385 0.66383,1.328385 0.13845,0 0.41538,-0.391675 0.6154,-0.870389 0.62098,-1.486226 2.02468,-2.431152 2.02468,-1.362954 0,0.226869 0.0933,0.354827 0.20733,0.284351 0.11403,-0.07048 0.20333,0.190388 0.19844,0.579698 -0.009,0.73346 0.0812,0.759686 1.47539,0.42782 0.55332,-0.131714 0.71928,-0.05444 0.83522,0.388915 0.0796,0.304309 0.0367,0.486567 -0.0952,0.405018 -0.21726,-0.134273 -0.35163,0.233733 -0.27124,0.742853 0.0172,0.109141 -0.058,0.173143 -0.16711,0.142227 -0.44418,-0.125824 -1.38906,0.638653 -1.38906,1.123853 0,0.439739 0.18349,0.519858 1.19062,0.519858 0.65485,0 1.19063,0.07358 1.19063,0.163508 0,0.08993 -0.35409,0.566793 -0.78686,1.059692 -0.63828,0.72696 -0.75886,1.05831 -0.63857,1.75472 0.31662,1.83293 0.4565,1.88994 1.78188,0.72625 0.49722,-0.43657 1.07269,-0.79375 1.27882,-0.79375 0.41036,0 2.62057,-2.0144 2.54832,-2.322548 -0.0246,-0.105048 0.26929,-1.203028 0.65315,-2.439955 0.38386,-1.236927 0.91114,-3.141927 1.17174,-4.233333 0.26337,-1.103035 0.59132,-1.925619 0.73839,-1.852084 0.43021,0.215104 0.13884,2.56728 -0.72105,5.820833 -1.05503,3.991947 -1.19325,5.233627 -0.60762,5.458357 0.29916,0.1148 0.69152,-0.10046 1.2022,-0.65959 1.06185,-1.16258 1.6419,-1.02351 1.7046,0.4087 0.0495,1.13179 0.57873,1.33961 1.72757,0.67842 1.27388,-0.73316 1.75142,-0.74925 1.93034,-0.065 0.0761,0.29104 0.31354,0.52916 0.52763,0.52916 0.44459,0 0.95941,-0.53293 0.89456,-0.92604 -0.024,-0.14552 0.52945,-0.54874 1.22989,-0.89605 1.50121,-0.74435 2.07266,-0.50965 1.55033,0.63674 -0.43128,0.94655 -0.39033,1.18535 0.20323,1.18535 0.28245,0 0.59177,0.12657 0.68738,0.28126 0.25918,0.41937 -0.68699,1.33707 -1.20805,1.17169 -0.57415,-0.18223 -1.3158,0.10057 -1.3158,0.50173 0,0.17081 0.32742,0.4514 0.72761,0.62354 0.40018,0.17214 0.90619,0.43072 1.12448,0.57461 0.21828,0.14389 0.85932,0.46701 1.42454,0.71805 1.02005,0.45304 1.03739,0.45096 2.33921,-0.28083 1.3307,-0.74803 1.66528,-0.70335 1.83635,0.24518 0.0786,0.43579 0.26789,0.51307 1.08452,0.44271 1.39921,-0.12055 1.60324,0.5504 0.45809,1.50642 l -0.86491,0.72206 0.69755,0.45706 c 0.38366,0.25138 0.69756,0.6322 0.69756,0.84627 0,0.21407 0.98227,1.02654 2.18281,1.80548 2.49066,1.616 3.39097,2.47111 2.81414,2.67282 -1.42423,0.49806 -13.89556,1.7562 -22.45945,2.26579 -6.86467,0.40847 -17.17004,0.52013 -23.01875,0.24942 z m -9.67619,-3.57736 c 0.47431,-0.47432 0.47013,-0.45764 0.25518,-1.0178 -0.0883,-0.23018 -0.36218,-0.41851 -0.60854,-0.41851 -0.24637,0 -0.56106,-0.10672 -0.6993,-0.23716 -0.15107,-0.14254 -0.67361,0.0422 -1.30969,0.46302 l -1.05833,0.70018 1.00696,0.083 c 0.56813,0.0468 1.07051,0.24861 1.15278,0.46302 0.19134,0.49861 0.7422,0.48299 1.26094,-0.0357 z m 3.96332,-0.77486 c 0.23837,-0.3638 0.59468,-0.66145 0.79178,-0.66145 0.52794,0 0.98593,-0.66294 0.79741,-1.15422 -0.23054,-0.60077 -1.99538,-1.03715 -2.86199,-0.70767 -0.66252,0.25189 -1.00939,1.33272 -0.4277,1.33272 0.14275,0 0.3378,0.32742 0.43345,0.7276 0.3252,1.36052 0.61064,1.46483 1.26705,0.46302 z m -11.00988,-0.28299 0.59291,-0.4153 -0.60018,-0.76069 c -0.3301,-0.41838 -0.71329,-0.76728 -0.85154,-0.77533 -0.13824,-0.008 -0.10848,0.12823 0.0661,0.30286 0.45722,0.45722 0.39052,0.75224 -0.12531,0.5543 -0.34141,-0.13101 -0.402,-0.0636 -0.26459,0.29453 0.098,0.25544 0.17823,0.6333 0.17823,0.83968 0,0.48498 0.27013,0.47421 1.00433,-0.04 z m 42.49132,-4.23656 c 0.29147,-0.75955 0.16785,-1.16899 -0.35295,-1.16899 -0.64782,0 -0.8244,0.28223 -0.63345,1.01242 0.17527,0.67023 0.75404,0.7621 0.9864,0.15657 z m -22.51471,-1.16537 c 0.40769,-0.003 0.35857,-0.17391 -0.34344,-1.19424 -0.61123,-0.88839 -0.99133,-1.19063 -1.49737,-1.19063 -0.64026,0 -0.66782,0.0555 -0.49277,0.99219 0.23774,1.27221 0.6243,1.72756 1.3102,1.54336 0.30121,-0.0809 0.76173,-0.1487 1.02338,-0.15068 z m 7.9734,-0.30835 c 0.7347,-0.33475 0.81975,-0.5316 1.0687,-2.47339 0.0933,-0.72761 0.22512,-1.51472 0.29297,-1.74913 0.0967,-0.3342 -0.14602,-0.46314 -1.12439,-0.59724 -1.34553,-0.18443 -2.01591,0.12687 -1.46329,0.67949 0.43099,0.43099 0.40214,1.92872 -0.0443,2.29922 -0.30444,0.25267 -0.29395,0.44518 0.0661,1.21441 0.23537,0.50278 0.45211,0.91802 0.48164,0.92276 0.0295,0.005 0.35467,-0.12852 0.72252,-0.29612 z m 11.09342,-3.79631 c 0.24697,-0.6436 -0.10672,-1.19062 -0.76983,-1.19062 -0.84465,0 -1.05878,0.45909 -0.50138,1.075 0.55498,0.61325 1.06254,0.65942 1.27121,0.11562 z"
         id="path6172" />
      <path
         style="fill:#e9668a;stroke-width:1.1807"
         d="m -417.3802,118.0921 c -8.35148,-0.32989 -17.97451,-1.058 -23.82355,-1.80258 -3.78546,-0.48188 -4.35457,-0.60187 -4.35457,-0.91806 0,-0.52342 3.87167,-2.85652 5.19732,-3.13195 1.00131,-0.20804 1.26865,-0.66604 0.4724,-0.80931 -0.71363,-0.12841 -1.07988,-0.52527 -0.62074,-0.67264 0.20624,-0.0662 0.82772,-0.19573 1.38107,-0.28785 1.42081,-0.23655 1.50449,-0.78138 0.28291,-1.84191 -0.56343,-0.48916 -0.93166,-0.98411 -0.81828,-1.09989 0.11337,-0.11579 0.88728,-0.21698 1.71979,-0.22487 l 1.51365,-0.0144 0.0821,-0.99219 c 0.0452,-0.5457 0.1392,-0.99218 0.20898,-0.99218 0.0698,0 0.60245,0.24262 1.18372,0.53917 1.22545,0.62518 1.44152,0.55569 1.65939,-0.53367 0.25437,-1.27184 0.86936,-1.00299 1.80533,0.78922 0.47969,0.91853 0.79023,1.20908 1.3626,1.27492 0.99636,0.11459 1.43708,-0.30732 1.29959,-1.24412 -0.10034,-0.68365 -0.0195,-0.79262 0.70654,-0.95208 0.45092,-0.099 0.81986,-0.3082 0.81986,-0.4648 0,-0.5072 -1.32906,-2.04406 -2.1225,-2.45437 -0.42473,-0.21963 -0.90764,-0.65235 -1.07315,-0.96159 -0.27723,-0.51803 -0.2479,-0.54896 0.37282,-0.39317 0.94473,0.23711 1.02755,-0.0787 0.43178,-1.646652 -1.07471,-2.828417 -0.4314,-3.114289 0.93424,-0.415152 0.41388,0.81802 1.01351,1.606224 1.33251,1.751574 0.319,0.14535 0.77319,0.6694 1.00932,1.16457 0.50549,1.06002 1.15348,1.17156 1.38758,0.23885 0.22935,-0.9138 0.56134,-0.82748 1.01764,0.26459 0.21281,0.50932 0.4384,0.92604 0.50131,0.92604 0.0629,0 0.43049,-0.41443 0.81683,-0.92095 0.69343,-0.90913 0.69755,-0.93969 0.32111,-2.381249 -0.20974,-0.803165 -0.33617,-1.460301 -0.28096,-1.460301 0.21676,0 0.84624,1.506303 1.01165,2.42081 0.21589,1.19358 0.73775,1.65968 1.61242,1.44015 0.84624,-0.21239 0.84312,-0.55698 -0.0101,-1.11603 -0.37124,-0.24324 -0.85235,-0.78526 -1.06914,-1.204491 -0.6089,-1.177473 0.0175,-1.723252 0.97902,-0.853062 0.61111,0.553048 1.02969,0.267274 1.02969,-0.702992 0,-0.925686 0.62611,-1.056575 1.07168,-0.224034 0.19516,0.36467 0.46971,0.508819 0.80306,0.421645 0.44751,-0.117028 0.50651,0.01693 0.50651,1.150076 0,1.375068 0.31846,1.818008 0.93763,1.304138 0.48509,-0.40258 0.4844,-1.571804 -0.003,-4.752877 -1.29493,-8.455036 -1.48766,-9.892998 -1.41193,-10.534151 0.0822,-0.696326 0.0904,-0.699288 0.40513,-0.147074 0.17665,0.309961 0.56647,2.15543 0.86626,4.101042 0.64583,4.191351 1.81669,10.33769 2.00522,10.52622 0.0732,0.0732 0.84252,0.15194 1.70953,0.1749 1.75637,0.0465 1.85564,-0.0878 1.04622,-1.415353 -0.74482,-1.22162 -0.67908,-1.434954 0.38095,-1.236093 0.87033,0.163276 0.91533,0.132744 1.05461,-0.715615 0.08,-0.487392 0.17693,-1.234173 0.21536,-1.659513 0.11018,-1.21965 0.67609,-1.119164 1.25104,0.222145 0.28589,0.666962 0.6415,1.212659 0.79024,1.212659 0.14874,0 0.43409,-0.391675 0.63411,-0.870389 0.42327,-1.013023 1.11912,-1.775444 1.62042,-1.775444 0.19343,0 0.46019,0.446484 0.59279,0.992187 0.24682,1.015721 0.30715,1.040312 1.7297,0.705085 1.05674,-0.249023 0.96132,0.533359 -0.19844,1.627157 -1.30236,1.228282 -1.22864,1.702654 0.26458,1.702654 0.65485,0 1.19063,0.07358 1.19063,0.163508 0,0.08993 -0.35409,0.566793 -0.78686,1.059692 -0.63828,0.72696 -0.75886,1.05831 -0.63857,1.75472 0.31662,1.83293 0.4565,1.88994 1.78188,0.72625 0.49722,-0.43657 1.07269,-0.79375 1.27882,-0.79375 0.20614,0 0.869,-0.47488 1.47303,-1.05528 0.9064,-0.87096 1.2343,-1.483303 1.87725,-3.505732 0.42846,-1.347747 0.9309,-3.140493 1.11654,-3.98388 0.18564,-0.843387 0.43498,-1.593667 0.55411,-1.667288 0.33409,-0.20648 -0.0328,2.093364 -0.86932,5.449677 -0.4171,1.673489 -0.75869,3.492933 -0.75909,4.043203 -9.8e-4,1.38631 0.61323,1.56326 1.61587,0.46551 0.64016,-0.70088 0.85158,-0.79721 1.16989,-0.53304 0.2137,0.17735 0.38853,0.52324 0.38853,0.76865 0,0.24541 0.17292,0.67732 0.38427,0.95979 0.37857,0.50599 0.39993,0.50478 1.44148,-0.0817 1.23297,-0.69428 1.87842,-0.75961 1.87842,-0.19013 0,0.82059 0.80439,0.72337 1.70733,-0.20636 1.42262,-1.46482 3.09391,-1.50184 2.14094,-0.0474 -0.51992,0.7935 -0.34083,1.17152 0.55502,1.17152 1.01283,0 0.62411,0.60657 -0.65193,1.01729 -1.15939,0.37318 -1.45039,0.95426 -0.61126,1.22059 0.27185,0.0863 0.70703,0.39196 0.96705,0.67929 0.26003,0.28732 0.6764,0.52241 0.92526,0.52241 0.24886,0 0.74373,0.2291 1.09971,0.50912 0.64567,0.50788 0.65041,0.50725 1.95391,-0.26007 1.59784,-0.94059 1.70355,-0.94784 1.70355,-0.11676 0,0.60756 0.097,0.66146 1.19063,0.66146 0.65484,0 1.19062,0.11043 1.19062,0.24541 0,0.13497 -0.38695,0.55491 -0.85989,0.93319 l -0.8599,0.68778 0.7276,0.54409 c 0.40019,0.29924 0.72761,0.71132 0.72761,0.91571 0,0.2044 1.19062,1.1542 2.64583,2.11067 1.45521,0.95648 2.64584,1.83797 2.64584,1.95887 0,0.30269 -0.69424,0.44902 -4.36563,0.92019 -11.80525,1.51502 -28.86888,2.28473 -40.48125,1.82604 z m -10.33765,-3.41397 c 0.47431,-0.47432 0.47013,-0.45764 0.25518,-1.0178 -0.0883,-0.23018 -0.36218,-0.41851 -0.60854,-0.41851 -0.24637,0 -0.56106,-0.10672 -0.6993,-0.23716 -0.15107,-0.14254 -0.67361,0.0422 -1.30969,0.46302 l -1.05833,0.70018 1.00696,0.083 c 0.56813,0.0468 1.07051,0.24861 1.15278,0.46302 0.19134,0.49861 0.7422,0.48299 1.26094,-0.0357 z m 3.96332,-0.77486 c 0.23837,-0.3638 0.59468,-0.66145 0.79178,-0.66145 0.52794,0 0.98593,-0.66294 0.79741,-1.15422 -0.23054,-0.60077 -1.99538,-1.03715 -2.86199,-0.70767 -0.66252,0.25189 -1.00939,1.33272 -0.4277,1.33272 0.14275,0 0.3378,0.32742 0.43345,0.7276 0.3252,1.36052 0.61064,1.46483 1.26705,0.46302 z m -11.00988,-0.28299 0.59291,-0.4153 -0.60018,-0.76069 c -0.3301,-0.41838 -0.71329,-0.76728 -0.85154,-0.77533 -0.13824,-0.008 -0.10848,0.12823 0.0661,0.30286 0.45722,0.45722 0.39052,0.75224 -0.12531,0.5543 -0.34141,-0.13101 -0.402,-0.0636 -0.26459,0.29453 0.098,0.25544 0.17823,0.6333 0.17823,0.83968 0,0.48498 0.27013,0.47421 1.00433,-0.04 z m 42.49132,-4.23656 c 0.29147,-0.75955 0.16785,-1.16899 -0.35295,-1.16899 -0.64782,0 -0.8244,0.28223 -0.63345,1.01242 0.17527,0.67023 0.75404,0.7621 0.9864,0.15657 z m -22.51471,-1.16537 c 0.40769,-0.003 0.35857,-0.17391 -0.34344,-1.19424 -0.61123,-0.88839 -0.99133,-1.19063 -1.49737,-1.19063 -0.64026,0 -0.66782,0.0555 -0.49277,0.99219 0.23774,1.27221 0.6243,1.72756 1.3102,1.54336 0.30121,-0.0809 0.76173,-0.1487 1.02338,-0.15068 z m 7.9734,-0.30835 c 0.7347,-0.33475 0.81975,-0.5316 1.0687,-2.47339 0.0933,-0.72761 0.22512,-1.51472 0.29297,-1.74913 0.0967,-0.3342 -0.14602,-0.46314 -1.12439,-0.59724 -1.34553,-0.18443 -2.01591,0.12687 -1.46329,0.67949 0.43099,0.43099 0.40214,1.92872 -0.0443,2.29922 -0.30444,0.25267 -0.29395,0.44518 0.0661,1.21441 0.23537,0.50278 0.45211,0.91802 0.48164,0.92276 0.0295,0.005 0.35467,-0.12852 0.72252,-0.29612 z m 11.09342,-3.79631 c 0.24697,-0.6436 -0.10672,-1.19062 -0.76983,-1.19062 -0.84465,0 -1.05878,0.45909 -0.50138,1.075 0.55498,0.61325 1.06254,0.65942 1.27121,0.11562 z"
         id="path6157" />
      <path
         style="fill:#dd5376;stroke-width:1.1807"
         d="m -417.3802,118.0921 c -8.35148,-0.32989 -17.97451,-1.058 -23.82355,-1.80258 -3.78546,-0.48188 -4.35457,-0.60187 -4.35457,-0.91806 0,-0.52342 3.87167,-2.85652 5.19732,-3.13195 1.00131,-0.20804 1.26865,-0.66604 0.4724,-0.80931 -0.71363,-0.12841 -1.07988,-0.52527 -0.62074,-0.67264 0.20624,-0.0662 0.82772,-0.19573 1.38107,-0.28785 1.42081,-0.23655 1.50449,-0.78138 0.28291,-1.84191 -0.56343,-0.48916 -0.93166,-0.98411 -0.81828,-1.09989 0.11337,-0.11579 0.88728,-0.21698 1.71979,-0.22487 l 1.51365,-0.0144 0.0821,-0.99219 c 0.0452,-0.5457 0.1392,-0.99218 0.20898,-0.99218 0.0698,0 0.60245,0.24262 1.18372,0.53917 1.22545,0.62518 1.44152,0.55569 1.65939,-0.53367 0.25437,-1.27184 0.86936,-1.00299 1.80533,0.78922 0.47969,0.91853 0.79023,1.20908 1.3626,1.27492 0.99636,0.11459 1.43708,-0.30732 1.29959,-1.24412 -0.10034,-0.68365 -0.0195,-0.79262 0.70654,-0.95208 0.45092,-0.099 0.81986,-0.3082 0.81986,-0.4648 0,-0.5072 -1.32906,-2.04406 -2.1225,-2.45437 -0.42473,-0.21963 -0.90764,-0.65235 -1.07315,-0.96159 -0.27723,-0.51803 -0.2479,-0.54896 0.37282,-0.39317 0.94473,0.23711 1.02755,-0.0787 0.43178,-1.646652 -1.07471,-2.828417 -0.4314,-3.114289 0.93424,-0.415152 0.41388,0.81802 1.01351,1.606224 1.33251,1.751574 0.319,0.14535 0.77319,0.6694 1.00932,1.16457 0.50549,1.06002 1.15348,1.17156 1.38758,0.23885 0.22935,-0.9138 0.56134,-0.82748 1.01764,0.26459 0.21281,0.50932 0.4384,0.92604 0.50131,0.92604 0.0629,0 0.43049,-0.41443 0.81683,-0.92095 0.69343,-0.90913 0.69755,-0.93969 0.32111,-2.381249 -0.20974,-0.803165 -0.33617,-1.460301 -0.28096,-1.460301 0.21676,0 0.84624,1.506303 1.01165,2.42081 0.21589,1.19358 0.73775,1.65968 1.61242,1.44015 0.84624,-0.21239 0.84312,-0.55698 -0.0101,-1.11603 -0.37124,-0.24324 -0.85235,-0.78526 -1.06914,-1.204491 -0.6089,-1.177473 0.0175,-1.723252 0.97902,-0.853062 0.61111,0.553048 1.02969,0.267274 1.02969,-0.702992 0,-0.925686 0.62611,-1.056575 1.07168,-0.224034 0.19516,0.36467 0.46971,0.508819 0.80306,0.421645 0.44751,-0.117028 0.50651,0.01693 0.50651,1.150076 0,1.375068 0.31846,1.818008 0.93763,1.304138 0.48509,-0.40258 0.4844,-1.571804 -0.003,-4.752877 -1.29493,-8.455036 -1.48766,-9.892998 -1.41193,-10.534151 0.0822,-0.696326 0.0904,-0.699288 0.40513,-0.147074 0.17665,0.309961 0.56647,2.15543 0.86626,4.101042 0.64583,4.191351 1.81669,10.33769 2.00522,10.52622 0.0732,0.0732 0.84252,0.15194 1.70953,0.1749 1.75637,0.0465 1.85564,-0.0878 1.04622,-1.415353 -0.74482,-1.22162 -0.67908,-1.434954 0.38095,-1.236093 0.87033,0.163276 0.91533,0.132744 1.05461,-0.715615 0.08,-0.487392 0.17693,-1.234173 0.21536,-1.659513 0.11018,-1.21965 0.67609,-1.119164 1.25104,0.222145 0.28589,0.666962 0.6415,1.212659 0.79024,1.212659 0.14874,0 0.43409,-0.391675 0.63411,-0.870389 0.42327,-1.013023 1.11912,-1.775444 1.62042,-1.775444 0.19343,0 0.46019,0.446484 0.59279,0.992187 0.24682,1.015721 0.30715,1.040312 1.7297,0.705085 1.05674,-0.249023 0.96132,0.533359 -0.19844,1.627157 -1.30236,1.228282 -1.22864,1.702654 0.26458,1.702654 0.65485,0 1.19063,0.07358 1.19063,0.163508 0,0.08993 -0.35409,0.566793 -0.78686,1.059692 -0.63828,0.72696 -0.75886,1.05831 -0.63857,1.75472 0.31662,1.83293 0.4565,1.88994 1.78188,0.72625 0.49722,-0.43657 1.07269,-0.79375 1.27882,-0.79375 0.20614,0 0.869,-0.47488 1.47303,-1.05528 0.9064,-0.87096 1.2343,-1.483303 1.87725,-3.505732 0.42846,-1.347747 0.9309,-3.140493 1.11654,-3.98388 0.18564,-0.843387 0.43498,-1.593667 0.55411,-1.667288 0.33409,-0.20648 -0.0328,2.093364 -0.86932,5.449677 -0.4171,1.673489 -0.75869,3.492933 -0.75909,4.043203 -9.8e-4,1.38631 0.61323,1.56326 1.61587,0.46551 0.64016,-0.70088 0.85158,-0.79721 1.16989,-0.53304 0.2137,0.17735 0.38853,0.52324 0.38853,0.76865 0,0.24541 0.17292,0.67732 0.38427,0.95979 0.37857,0.50599 0.39993,0.50478 1.44148,-0.0817 1.23297,-0.69428 1.87842,-0.75961 1.87842,-0.19013 0,0.82059 0.80439,0.72337 1.70733,-0.20636 1.42262,-1.46482 3.09391,-1.50184 2.14094,-0.0474 -0.51992,0.7935 -0.34083,1.17152 0.55502,1.17152 1.01283,0 0.62411,0.60657 -0.65193,1.01729 -1.15939,0.37318 -1.45039,0.95426 -0.61126,1.22059 0.27185,0.0863 0.70703,0.39196 0.96705,0.67929 0.26003,0.28732 0.6764,0.52241 0.92526,0.52241 0.24886,0 0.74373,0.2291 1.09971,0.50912 0.64567,0.50788 0.65041,0.50725 1.95391,-0.26007 1.59784,-0.94059 1.70355,-0.94784 1.70355,-0.11676 0,0.60756 0.097,0.66146 1.19063,0.66146 0.65484,0 1.19062,0.11043 1.19062,0.24541 0,0.13497 -0.38695,0.55491 -0.85989,0.93319 l -0.8599,0.68778 0.7276,0.54409 c 0.40019,0.29924 0.72761,0.71132 0.72761,0.91571 0,0.2044 1.19062,1.1542 2.64583,2.11067 1.45521,0.95648 2.64584,1.83797 2.64584,1.95887 0,0.30269 -0.69424,0.44902 -4.36563,0.92019 -11.80525,1.51502 -28.86888,2.28473 -40.48125,1.82604 z m -10.33765,-3.41397 c 0.47431,-0.47432 0.47013,-0.45764 0.25518,-1.0178 -0.0883,-0.23018 -0.36218,-0.41851 -0.60854,-0.41851 -0.24637,0 -0.56106,-0.10672 -0.6993,-0.23716 -0.15107,-0.14254 -0.67361,0.0422 -1.30969,0.46302 l -1.05833,0.70018 1.00696,0.083 c 0.56813,0.0468 1.07051,0.24861 1.15278,0.46302 0.19134,0.49861 0.7422,0.48299 1.26094,-0.0357 z m 3.96332,-0.77486 c 0.23837,-0.3638 0.59468,-0.66145 0.79178,-0.66145 0.52794,0 0.98593,-0.66294 0.79741,-1.15422 -0.23054,-0.60077 -1.99538,-1.03715 -2.86199,-0.70767 -0.66252,0.25189 -1.00939,1.33272 -0.4277,1.33272 0.14275,0 0.3378,0.32742 0.43345,0.7276 0.3252,1.36052 0.61064,1.46483 1.26705,0.46302 z m -11.00988,-0.28299 0.59291,-0.4153 -0.60018,-0.76069 c -0.3301,-0.41838 -0.71329,-0.76728 -0.85154,-0.77533 -0.13824,-0.008 -0.10848,0.12823 0.0661,0.30286 0.45722,0.45722 0.39052,0.75224 -0.12531,0.5543 -0.34141,-0.13101 -0.402,-0.0636 -0.26459,0.29453 0.098,0.25544 0.17823,0.6333 0.17823,0.83968 0,0.48498 0.27013,0.47421 1.00433,-0.04 z m 42.49132,-4.23656 c 0.29147,-0.75955 0.16785,-1.16899 -0.35295,-1.16899 -0.64782,0 -0.8244,0.28223 -0.63345,1.01242 0.17527,0.67023 0.75404,0.7621 0.9864,0.15657 z m -22.51471,-1.16537 c 0.40769,-0.003 0.35857,-0.17391 -0.34344,-1.19424 -0.61123,-0.88839 -0.99133,-1.19063 -1.49737,-1.19063 -0.64026,0 -0.66782,0.0555 -0.49277,0.99219 0.23774,1.27221 0.6243,1.72756 1.3102,1.54336 0.30121,-0.0809 0.76173,-0.1487 1.02338,-0.15068 z m 7.9734,-0.30835 c 0.7347,-0.33475 0.81975,-0.5316 1.0687,-2.47339 0.0933,-0.72761 0.22512,-1.51472 0.29297,-1.74913 0.0967,-0.3342 -0.14602,-0.46314 -1.12439,-0.59724 -1.34553,-0.18443 -2.01591,0.12687 -1.46329,0.67949 0.43099,0.43099 0.40214,1.92872 -0.0443,2.29922 -0.30444,0.25267 -0.29395,0.44518 0.0661,1.21441 0.23537,0.50278 0.45211,0.91802 0.48164,0.92276 0.0295,0.005 0.35467,-0.12852 0.72252,-0.29612 z m 11.09342,-3.79631 c 0.24697,-0.6436 -0.10672,-1.19062 -0.76983,-1.19062 -0.84465,0 -1.05878,0.45909 -0.50138,1.075 0.55498,0.61325 1.06254,0.65942 1.27121,0.11562 z"
         id="path6136" />
      <path
         style="fill:#959a68;stroke-width:1.1807"
         d="m -417.3802,118.0921 c -8.35148,-0.32989 -17.97451,-1.058 -23.82355,-1.80258 -3.78546,-0.48188 -4.35457,-0.60187 -4.35457,-0.91806 0,-0.52342 3.87167,-2.85652 5.19732,-3.13195 1.00131,-0.20804 1.26865,-0.66604 0.4724,-0.80931 -0.71363,-0.12841 -1.07988,-0.52527 -0.62074,-0.67264 0.20624,-0.0662 0.82772,-0.19573 1.38107,-0.28785 1.42081,-0.23655 1.50449,-0.78138 0.28291,-1.84191 -0.56343,-0.48916 -0.93166,-0.98411 -0.81828,-1.09989 0.11337,-0.11579 0.88728,-0.21698 1.71979,-0.22487 l 1.51365,-0.0144 0.0821,-0.99219 c 0.0452,-0.5457 0.1392,-0.99218 0.20898,-0.99218 0.0698,0 0.60245,0.24262 1.18372,0.53917 1.22545,0.62518 1.44152,0.55569 1.65939,-0.53367 0.25437,-1.27184 0.86936,-1.00299 1.80533,0.78922 0.47969,0.91853 0.79023,1.20908 1.3626,1.27492 0.99636,0.11459 1.43708,-0.30732 1.29959,-1.24412 -0.10034,-0.68365 -0.0195,-0.79262 0.70654,-0.95208 0.45092,-0.099 0.81986,-0.3082 0.81986,-0.4648 0,-0.5072 -1.32906,-2.04406 -2.1225,-2.45437 -0.42473,-0.21963 -0.90764,-0.65235 -1.07315,-0.96159 -0.27723,-0.51803 -0.2479,-0.54896 0.37282,-0.39317 0.94473,0.23711 1.02755,-0.0787 0.43178,-1.646652 -1.07471,-2.828417 -0.4314,-3.114289 0.93424,-0.415152 0.41388,0.81802 1.01351,1.606224 1.33251,1.751574 0.319,0.14535 0.77319,0.6694 1.00932,1.16457 0.50549,1.06002 1.15348,1.17156 1.38758,0.23885 0.22935,-0.9138 0.56134,-0.82748 1.01764,0.26459 0.21281,0.50932 0.4384,0.92604 0.50131,0.92604 0.0629,0 0.43049,-0.41443 0.81683,-0.92095 0.69343,-0.90913 0.69755,-0.93969 0.32111,-2.381249 -0.20974,-0.803165 -0.33617,-1.460301 -0.28096,-1.460301 0.21676,0 0.84624,1.506303 1.01165,2.42081 0.21589,1.19358 0.73775,1.65968 1.61242,1.44015 0.84624,-0.21239 0.84312,-0.55698 -0.0101,-1.11603 -0.37124,-0.24324 -0.85235,-0.78526 -1.06914,-1.204491 -0.6089,-1.177473 0.0175,-1.723252 0.97902,-0.853062 0.61111,0.553048 1.02969,0.267274 1.02969,-0.702992 0,-0.925686 0.62611,-1.056575 1.07168,-0.224034 0.19516,0.36467 0.46971,0.508819 0.80306,0.421645 0.44751,-0.117028 0.50651,0.01693 0.50651,1.150076 0,1.375068 0.31846,1.818008 0.93763,1.304138 0.48509,-0.40258 0.4844,-1.571804 -0.003,-4.752877 -1.29493,-8.455036 -1.48766,-9.892998 -1.41193,-10.534151 0.0822,-0.696326 0.0904,-0.699288 0.40513,-0.147074 0.17665,0.309961 0.56647,2.15543 0.86626,4.101042 0.64583,4.191351 1.81669,10.33769 2.00522,10.52622 0.0732,0.0732 0.84252,0.15194 1.70953,0.1749 1.75637,0.0465 1.85564,-0.0878 1.04622,-1.415353 -0.74482,-1.22162 -0.67908,-1.434954 0.38095,-1.236093 0.87033,0.163276 0.91533,0.132744 1.05461,-0.715615 0.08,-0.487392 0.17693,-1.234173 0.21536,-1.659513 0.11018,-1.21965 0.67609,-1.119164 1.25104,0.222145 0.28589,0.666962 0.6415,1.212659 0.79024,1.212659 0.14874,0 0.43409,-0.391675 0.63411,-0.870389 0.42327,-1.013023 1.11912,-1.775444 1.62042,-1.775444 0.19343,0 0.46019,0.446484 0.59279,0.992187 0.24682,1.015721 0.30715,1.040312 1.7297,0.705085 1.05674,-0.249023 0.96132,0.533359 -0.19844,1.627157 -1.30236,1.228282 -1.22864,1.702654 0.26458,1.702654 0.65485,0 1.19063,0.07358 1.19063,0.163508 0,0.08993 -0.35409,0.566793 -0.78686,1.059692 -0.63828,0.72696 -0.75886,1.05831 -0.63857,1.75472 0.31662,1.83293 0.4565,1.88994 1.78188,0.72625 0.49722,-0.43657 1.07269,-0.79375 1.27882,-0.79375 0.20614,0 0.869,-0.47488 1.47303,-1.05528 0.9064,-0.87096 1.2343,-1.483303 1.87725,-3.505732 0.42846,-1.347747 0.9309,-3.140493 1.11654,-3.98388 0.18564,-0.843387 0.43498,-1.593667 0.55411,-1.667288 0.33409,-0.20648 -0.0328,2.093364 -0.86932,5.449677 -0.4171,1.673489 -0.75869,3.492933 -0.75909,4.043203 -9.8e-4,1.38631 0.61323,1.56326 1.61587,0.46551 0.64016,-0.70088 0.85158,-0.79721 1.16989,-0.53304 0.2137,0.17735 0.38853,0.52324 0.38853,0.76865 0,0.24541 0.17292,0.67732 0.38427,0.95979 0.37857,0.50599 0.39993,0.50478 1.44148,-0.0817 1.23297,-0.69428 1.87842,-0.75961 1.87842,-0.19013 0,0.82059 0.80439,0.72337 1.70733,-0.20636 1.42262,-1.46482 3.09391,-1.50184 2.14094,-0.0474 -0.51992,0.7935 -0.34083,1.17152 0.55502,1.17152 1.01283,0 0.62411,0.60657 -0.65193,1.01729 -1.15939,0.37318 -1.45039,0.95426 -0.61126,1.22059 0.27185,0.0863 0.70703,0.39196 0.96705,0.67929 0.26003,0.28732 0.6764,0.52241 0.92526,0.52241 0.24886,0 0.74373,0.2291 1.09971,0.50912 0.64567,0.50788 0.65041,0.50725 1.95391,-0.26007 1.59784,-0.94059 1.70355,-0.94784 1.70355,-0.11676 0,0.60756 0.097,0.66146 1.19063,0.66146 0.65484,0 1.19062,0.11043 1.19062,0.24541 0,0.13497 -0.38695,0.55491 -0.85989,0.93319 l -0.8599,0.68778 0.7276,0.54409 c 0.40019,0.29924 0.72761,0.71132 0.72761,0.91571 0,0.2044 1.19062,1.1542 2.64583,2.11067 1.45521,0.95648 2.64584,1.83797 2.64584,1.95887 0,0.30269 -0.69424,0.44902 -4.36563,0.92019 -11.80525,1.51502 -28.86888,2.28473 -40.48125,1.82604 z m -10.33765,-3.41397 c 0.47431,-0.47432 0.47013,-0.45764 0.25518,-1.0178 -0.0883,-0.23018 -0.36218,-0.41851 -0.60854,-0.41851 -0.24637,0 -0.56106,-0.10672 -0.6993,-0.23716 -0.15107,-0.14254 -0.67361,0.0422 -1.30969,0.46302 l -1.05833,0.70018 1.00696,0.083 c 0.56813,0.0468 1.07051,0.24861 1.15278,0.46302 0.19134,0.49861 0.7422,0.48299 1.26094,-0.0357 z m 3.96332,-0.77486 c 0.23837,-0.3638 0.59468,-0.66145 0.79178,-0.66145 0.52794,0 0.98593,-0.66294 0.79741,-1.15422 -0.23054,-0.60077 -1.99538,-1.03715 -2.86199,-0.70767 -0.66252,0.25189 -1.00939,1.33272 -0.4277,1.33272 0.14275,0 0.3378,0.32742 0.43345,0.7276 0.3252,1.36052 0.61064,1.46483 1.26705,0.46302 z m -11.00988,-0.28299 0.59291,-0.4153 -0.60018,-0.76069 c -0.3301,-0.41838 -0.71329,-0.76728 -0.85154,-0.77533 -0.13824,-0.008 -0.10848,0.12823 0.0661,0.30286 0.45722,0.45722 0.39052,0.75224 -0.12531,0.5543 -0.34141,-0.13101 -0.402,-0.0636 -0.26459,0.29453 0.098,0.25544 0.17823,0.6333 0.17823,0.83968 0,0.48498 0.27013,0.47421 1.00433,-0.04 z m 42.49132,-4.23656 c 0.29147,-0.75955 0.16785,-1.16899 -0.35295,-1.16899 -0.64782,0 -0.8244,0.28223 -0.63345,1.01242 0.17527,0.67023 0.75404,0.7621 0.9864,0.15657 z m -22.51471,-1.16537 c 0.40769,-0.003 0.35857,-0.17391 -0.34344,-1.19424 -0.61123,-0.88839 -0.99133,-1.19063 -1.49737,-1.19063 -0.64026,0 -0.66782,0.0555 -0.49277,0.99219 0.23774,1.27221 0.6243,1.72756 1.3102,1.54336 0.30121,-0.0809 0.76173,-0.1487 1.02338,-0.15068 z m 7.9734,-0.30835 c 0.7347,-0.33475 0.81975,-0.5316 1.0687,-2.47339 0.0933,-0.72761 0.22512,-1.51472 0.29297,-1.74913 0.0967,-0.3342 -0.14602,-0.46314 -1.12439,-0.59724 -1.34553,-0.18443 -2.01591,0.12687 -1.46329,0.67949 0.43099,0.43099 0.40214,1.92872 -0.0443,2.29922 -0.30444,0.25267 -0.29395,0.44518 0.0661,1.21441 0.23537,0.50278 0.45211,0.91802 0.48164,0.92276 0.0295,0.005 0.35467,-0.12852 0.72252,-0.29612 z m 11.09342,-3.79631 c 0.24697,-0.6436 -0.10672,-1.19062 -0.76983,-1.19062 -0.84465,0 -1.05878,0.45909 -0.50138,1.075 0.55498,0.61325 1.06254,0.65942 1.27121,0.11562 z"
         id="path6108" />
      <path
         style="fill:#a1a333;stroke-width:1.1807"
         d="m -417.90937,118.00407 c -12.67803,-0.5675 -26.75855,-1.91368 -27.47129,-2.62642 -0.28666,-0.28666 3.97292,-2.92932 4.72164,-2.92932 0.3057,0 0.78692,-0.17009 1.0694,-0.37798 0.55639,-0.40948 0.60834,-0.3585 -0.8261,-0.81078 -0.59208,-0.18668 -0.20094,-0.66333 0.54433,-0.66333 0.88428,0 1.98598,-0.45783 1.98598,-0.8253 0,-0.17009 -0.44648,-0.69692 -0.99218,-1.17075 -0.54571,-0.47383 -0.89943,-0.95624 -0.78605,-1.07202 0.11337,-0.11579 0.88728,-0.21698 1.71979,-0.22487 l 1.51365,-0.0144 0.0821,-0.99219 c 0.0452,-0.5457 0.1392,-0.99218 0.20898,-0.99218 0.0698,0 0.60245,0.24262 1.18372,0.53917 1.22545,0.62518 1.44152,0.55569 1.65939,-0.53367 0.25437,-1.27184 0.86936,-1.00299 1.80533,0.78922 0.47969,0.91853 0.79023,1.20908 1.3626,1.27492 1.00725,0.11584 1.43728,-0.30596 1.29566,-1.27087 -0.10922,-0.74417 -0.0603,-0.79877 0.71485,-0.79877 1.12298,0 1.28974,-0.60047 0.44541,-1.6039 -0.37855,-0.44987 -0.68827,-0.90583 -0.68827,-1.01323 0,-0.10741 -0.41672,-0.394 -0.92604,-0.63688 -1.07399,-0.51215 -1.2272,-0.96352 -0.26458,-0.7795 0.77563,0.14827 0.87377,-0.34272 0.29377,-1.469737 -0.20223,-0.392956 -0.49065,-1.16227 -0.64094,-1.709587 -0.39856,-1.451462 0.11574,-0.981798 1.021,0.932376 1.17388,2.482148 3.95638,4.666208 3.95638,3.105458 0,-0.77274 0.45484,-0.64662 0.92133,0.25548 0.4091,0.79111 1.19533,0.87161 1.19533,0.12239 0,-0.19759 0.25559,-0.49604 0.56797,-0.66322 0.46166,-0.24707 0.61268,-0.22405 0.80689,0.12298 0.26364,0.47109 1.18375,0.55763 1.79826,0.16913 0.32671,-0.20655 0.22382,-0.42501 -0.59532,-1.26387 -1.38617,-1.419578 -1.25183,-2.599715 0.17316,-1.521079 0.65506,0.495838 0.95321,0.284075 0.95321,-0.677013 0,-0.837622 0.68363,-1.108376 0.96265,-0.38126 0.0838,0.218281 0.43722,0.396875 0.78545,0.396875 0.57466,0 0.63315,0.110755 0.63315,1.198929 0,1.344088 0.53878,1.815268 1.25582,1.098228 0.49206,-0.49206 0.3286,-2.257938 -0.95961,-10.366948 -0.69913,-4.400864 -0.77036,-5.192552 -0.4372,-4.859396 0.068,0.06797 0.55048,2.677427 1.07224,5.798784 0.52176,3.121357 1.08126,6.401991 1.24332,7.290297 l 0.29467,1.615103 1.80809,-0.0166 c 0.99445,-0.009 1.80809,-0.11556 1.80809,-0.23658 0,-0.12101 -0.24055,-0.691528 -0.53455,-1.267814 -0.56086,-1.099377 -0.54422,-1.130556 0.56558,-1.059571 0.74953,0.04794 1.01311,-0.45797 1.02774,-1.972597 0.004,-0.436562 0.10565,-0.948213 0.2254,-1.137003 0.25871,-0.40783 0.51512,-0.151406 1.20309,1.203149 0.24021,0.472943 0.55115,0.859896 0.69098,0.859896 0.13983,0 0.418,-0.386953 0.61815,-0.859896 0.7188,-1.698482 2.02444,-2.263886 2.02444,-0.876678 0,0.940297 0.55359,1.263599 1.56184,0.912123 0.46553,-0.162285 0.90865,-0.232832 0.98472,-0.15677 0.23543,0.235432 -0.67084,1.743702 -1.22638,2.04102 -0.28954,0.154955 -0.52643,0.515672 -0.52643,0.801593 0,0.439739 0.18349,0.519858 1.19062,0.519858 0.65485,0 1.19063,0.07358 1.19063,0.163508 0,0.08993 -0.35409,0.566793 -0.78686,1.059692 -0.63828,0.72696 -0.75886,1.05831 -0.63857,1.75472 0.31662,1.83293 0.4565,1.88994 1.78188,0.72625 0.49722,-0.43657 1.06716,-0.79375 1.26655,-0.79375 0.78534,0 2.7865,-2.243085 3.2523,-3.645482 0.25239,-0.759883 0.52211,-1.381605 0.59937,-1.381605 0.23113,0 -0.19957,1.910397 -0.60936,2.702837 -0.22351,0.43222 -0.26881,0.73675 -0.10961,0.73675 0.14926,0 0.27138,0.42045 0.27138,0.93434 0,1.27685 0.67984,1.52038 1.47176,0.52722 0.73199,-0.918 1.28116,-0.76318 1.81367,0.5113 0.4489,1.07435 0.76451,1.14314 1.87395,0.40839 0.9483,-0.62804 1.71979,-0.68366 1.71979,-0.12399 0,0.72911 0.79453,0.75128 1.53715,0.0429 0.70686,-0.67428 2.13324,-1.3638 2.35744,-1.1396 0.0644,0.0644 -0.0117,0.35753 -0.16899,0.65146 -0.42916,0.8019 -0.34686,1.30801 0.24315,1.49527 0.78646,0.24961 0.64376,0.5826 -0.39688,0.92604 -0.50932,0.16809 -0.92604,0.4456 -0.92604,0.61669 0,0.53527 1.42776,1.68743 2.33913,1.8876 0.4794,0.10529 0.93585,0.35881 1.01435,0.56337 0.21566,0.56199 1.06057,0.44799 2.14594,-0.28954 1.19357,-0.81105 1.32086,-0.81695 1.42749,-0.0661 0.0703,0.49488 0.27425,0.60904 1.20903,0.67667 1.25911,0.0911 1.44905,0.44356 0.47758,0.88619 -0.91506,0.41693 -1.02628,0.94849 -0.29827,1.4255 0.34392,0.22534 0.6798,0.61808 0.74639,0.87274 0.0666,0.25466 0.94224,0.96184 1.94587,1.57151 2.15066,1.30646 3.47042,2.33252 3.26605,2.53922 -0.44458,0.44964 -12.26286,1.66124 -22.21106,2.27705 -6.44113,0.39872 -17.15977,0.52414 -22.88646,0.2678 z m -9.80848,-3.32568 c 0.47431,-0.47432 0.47013,-0.45764 0.25518,-1.0178 -0.0883,-0.23018 -0.36218,-0.41851 -0.60854,-0.41851 -0.24637,0 -0.56106,-0.10672 -0.6993,-0.23716 -0.15107,-0.14254 -0.67361,0.0422 -1.30969,0.46302 l -1.05833,0.70018 1.00696,0.083 c 0.56813,0.0468 1.07051,0.24861 1.15278,0.46302 0.19134,0.49861 0.7422,0.48299 1.26094,-0.0357 z m 3.96332,-0.77486 c 0.23837,-0.3638 0.59468,-0.66145 0.79178,-0.66145 0.52794,0 0.98593,-0.66294 0.79741,-1.15422 -0.23054,-0.60077 -1.99538,-1.03715 -2.86199,-0.70767 -0.66252,0.25189 -1.00939,1.33272 -0.4277,1.33272 0.14275,0 0.3378,0.32742 0.43345,0.7276 0.3252,1.36052 0.61064,1.46483 1.26705,0.46302 z m -11.00988,-0.28299 0.59291,-0.4153 -0.60018,-0.76069 c -0.3301,-0.41838 -0.71329,-0.76728 -0.85154,-0.77533 -0.13824,-0.008 -0.10848,0.12823 0.0661,0.30286 0.45722,0.45722 0.39052,0.75224 -0.12531,0.5543 -0.34141,-0.13101 -0.402,-0.0636 -0.26459,0.29453 0.098,0.25544 0.17823,0.6333 0.17823,0.83968 0,0.48498 0.27013,0.47421 1.00433,-0.04 z m 42.49132,-4.23656 c 0.29147,-0.75955 0.16785,-1.16899 -0.35295,-1.16899 -0.64782,0 -0.8244,0.28223 -0.63345,1.01242 0.17527,0.67023 0.75404,0.7621 0.9864,0.15657 z m -22.51471,-1.16537 c 0.40769,-0.003 0.35857,-0.17391 -0.34344,-1.19424 -0.61123,-0.88839 -0.99133,-1.19063 -1.49737,-1.19063 -0.64026,0 -0.66782,0.0555 -0.49277,0.99219 0.23774,1.27221 0.6243,1.72756 1.3102,1.54336 0.30121,-0.0809 0.76173,-0.1487 1.02338,-0.15068 z m 7.9734,-0.30835 c 0.7347,-0.33475 0.81975,-0.5316 1.0687,-2.47339 0.0933,-0.72761 0.22512,-1.51472 0.29297,-1.74913 0.0967,-0.3342 -0.14602,-0.46314 -1.12439,-0.59724 -1.34553,-0.18443 -2.01591,0.12687 -1.46329,0.67949 0.43099,0.43099 0.40214,1.92872 -0.0443,2.29922 -0.30444,0.25267 -0.29395,0.44518 0.0661,1.21441 0.23537,0.50278 0.45211,0.91802 0.48164,0.92276 0.0295,0.005 0.35467,-0.12852 0.72252,-0.29612 z m 11.09342,-3.79631 c 0.24697,-0.6436 -0.10672,-1.19062 -0.76983,-1.19062 -0.84465,0 -1.05878,0.45909 -0.50138,1.075 0.55498,0.61325 1.06254,0.65942 1.27121,0.11562 z"
         id="path6063" />
      <path
         style="fill:#926957;stroke-width:1.1807"
         d="m -397.0342,99.578036 c 0.0741,-0.457462 0.31891,-1.231368 0.54403,-1.719792 l 0.40931,-0.888042 -0.15587,1.052954 c -0.0857,0.579125 -0.33054,1.353031 -0.54403,1.719792 l -0.38815,0.666832 z"
         id="path6018" />
      <path
         style="fill:#926957;stroke-width:1.1807"
         d="m -414.89771,101.54988 c -0.0171,-0.045 -0.18623,-1.39145 -0.37589,-2.992178 -0.18966,-1.60073 -0.6963,-5.113073 -1.12585,-7.805208 -0.7211,-4.519297 -0.79558,-5.326985 -0.46028,-4.991688 0.068,0.06797 0.544,2.677427 1.05784,5.798784 0.51383,3.121357 1.05069,6.151445 1.19301,6.733528 0.33755,1.380571 0.34096,2.968482 0.007,3.175002 -0.14552,0.0899 -0.27856,0.12673 -0.29564,0.0818 z"
         id="path6017" />
      <path
         style="fill:#926957;stroke-width:1.1807"
         d="m -409.46969,104.93278 c -0.2843,-0.74088 0.42458,-2.91755 1.50843,-4.63172 0.58191,-0.920334 1.12032,-1.611044 1.19646,-1.534908 0.0761,0.07614 -0.16018,0.611445 -0.52513,1.189575 -1.05973,1.678713 -1.52798,3.022593 -1.44045,4.134153 0.0838,1.0641 -0.42975,1.64959 -0.73931,0.8429 z"
         id="path6016" />
      <path
         style="fill:#926957;stroke-width:1.1807"
         d="m -415.22994,105.69359 c -0.17434,-0.45433 0.56521,-2.50568 0.90335,-2.50568 0.46992,0 0.5136,1.05016 0.0814,1.95654 -0.4944,1.03676 -0.74416,1.17604 -0.98473,0.54914 z"
         id="path6015" />
      <path
         style="fill:#926957;stroke-width:1.1807"
         d="m -410.80198,106.56135 c 0.006,-0.90951 0.0538,-1.32889 0.10662,-0.93195 0.0573,0.43079 0.42064,0.95283 0.90134,1.29512 l 0.80531,0.57342 -0.85269,0.35853 c -0.46897,0.19719 -0.87934,0.35852 -0.91192,0.35852 -0.0326,0 -0.0545,-0.74414 -0.0487,-1.65364 z"
         id="path6014" />
      <path
         style="fill:#926957;stroke-width:1.1807"
         d="m -393.96286,111.14278 c 0.36474,-0.11095 1.0426,-0.39793 1.50634,-0.63774 0.47882,-0.24761 0.90873,-0.32994 0.9949,-0.19051 0.27011,0.43705 -1.00393,1.07609 -2.0988,1.05272 -0.90859,-0.0194 -0.96789,-0.0525 -0.40244,-0.22447 z"
         id="path6013" />
      <path
         style="fill:#926957;stroke-width:1.1807"
         d="m -417.90937,118.00407 c -12.67803,-0.5675 -26.75855,-1.91368 -27.47129,-2.62642 -0.31024,-0.31023 4.00388,-2.92932 4.82513,-2.92932 0.51278,0 0.58873,0.0705 0.34179,0.3175 -0.17463,0.17462 -0.3175,0.53181 -0.3175,0.79375 0,0.38731 0.22002,0.47625 1.17818,0.47625 0.64799,0 1.49856,-0.14598 1.89015,-0.32441 0.63487,-0.28926 0.75435,-0.2606 1.10306,0.26459 0.53539,0.80634 1.03102,0.74294 2.63472,-0.33706 0.75631,-0.50932 1.50259,-0.92604 1.65842,-0.92604 0.51655,0 0.60261,0.80558 0.1406,1.3161 -0.68499,0.7569 -0.25594,1.14721 1.09383,0.99507 0.94262,-0.10625 1.23119,-0.0343 1.52096,0.37944 0.51944,0.74161 1.56863,0.38592 2.56225,-0.86862 0.90984,-1.14877 1.15678,-1.1444 1.39058,0.0246 0.2037,1.01848 0.98359,1.06548 1.73925,0.10481 0.51085,-0.64943 0.60012,-0.67212 1.3776,-0.35008 0.72861,0.30181 0.87231,0.28835 1.16274,-0.10883 0.32684,-0.44698 0.18285,-1.818 -0.26745,-2.5466 -0.30503,-0.49355 -1.8604,-1.06255 -2.90452,-1.06255 -0.76423,0 -0.93454,-0.0984 -0.93454,-0.5397 0,-0.29684 -0.24643,-1.02276 -0.54762,-1.61314 -0.30119,-0.59039 -0.49085,-1.13021 -0.42146,-1.1996 0.29641,-0.29642 1.85049,0.81705 2.11373,1.51446 0.27554,0.73 1.39617,1.39007 3.35327,1.97515 l 0.66146,0.19774 -0.52917,-0.60301 c -0.29104,-0.33165 -1.18401,-1.02313 -1.98437,-1.53661 -1.86992,-1.19965 -4.48382,-3.51453 -4.49177,-3.97793 -0.003,-0.19727 -0.30384,-0.71246 -0.66769,-1.14487 -0.36384,-0.4324 -0.72716,-1.10443 -0.80737,-1.4934 -0.0802,-0.38897 -0.37925,-1.30823 -0.66452,-2.0428 -1.25507,-3.231816 -1.09036,-4.01706 0.25426,-1.212224 1.99059,4.152274 2.99198,5.621354 4.99916,7.333984 1.09331,0.93286 2.06509,1.69612 2.1595,1.69612 0.22872,0 0.12494,-2.91249 -0.12556,-3.52351 -0.34317,-0.83708 0.27639,-1.13247 1.32571,-0.63208 1.1381,0.54272 1.18492,0.94257 0.13494,1.15257 -0.7208,0.14416 -0.79375,0.25456 -0.79375,1.2014 0,1.18881 0.3039,1.88765 1.27246,2.9261 0.80896,0.86734 1.00213,0.89949 1.18574,0.19734 0.0967,-0.36973 0.27478,-0.47802 0.58829,-0.35772 0.34352,0.13182 0.41578,0.38113 0.30619,1.05642 -0.11164,0.68798 -0.0259,0.96618 0.38676,1.25524 0.29161,0.20425 0.49226,0.5538 0.4459,0.77679 -0.11763,0.56577 1.57684,2.03502 2.12534,1.84285 0.23991,-0.0841 0.81521,-0.43287 1.27844,-0.77515 0.94563,-0.69872 1.40672,-0.7892 1.40672,-0.27603 0,0.19047 0.16662,0.57418 0.37028,0.85269 0.3098,0.42368 0.47185,0.45747 0.99218,0.20686 0.34205,-0.16475 0.83027,-0.36613 1.08493,-0.44752 0.25466,-0.0814 0.46302,-0.38392 0.46302,-0.6723 0,-0.79652 0.81669,-1.13988 1.42253,-0.59806 0.4667,0.41739 0.51482,0.41402 0.79391,-0.0556 1.41141,-2.37474 2.35694,-3.53913 3.2006,-3.94145 1.18128,-0.56331 1.46213,-0.56874 1.46213,-0.0283 0,0.24056 -0.14962,0.36776 -0.34459,0.29295 -0.72712,-0.27902 -1.92022,0.52478 -2.41824,1.6292 -0.27224,0.60371 -0.42052,1.17209 -0.32954,1.26308 0.18265,0.18265 1.27415,-0.45421 2.29862,-1.34118 0.76974,-0.66643 2.64583,-1.56183 2.64583,-1.26277 0,0.11228 -0.35235,0.61637 -0.78299,1.1202 -0.99413,1.16304 -0.99434,1.33042 -0.001,1.04564 0.97422,-0.2794 2.44654,-1.16965 3.57937,-2.16429 l 0.83911,-0.73674 0.71011,0.65811 c 0.39057,0.36196 0.99461,0.65812 1.34233,0.65812 1.01883,0 1.02556,0.48131 0.0127,0.90453 -1.05495,0.44079 -1.26473,1.1996 -0.3414,1.23487 0.49142,0.0188 0.45684,0.064 -0.19813,0.25931 -0.74671,0.22264 -1.45551,0.88158 -1.45551,1.35314 0,0.11612 1.0418,0.13911 2.3151,0.0511 2.29732,-0.1588 2.32301,-0.1537 3.34368,0.66434 1.15737,0.92762 1.63327,1.01163 2.30202,0.40642 0.35699,-0.32307 0.58303,-0.35311 0.99563,-0.13229 0.67231,0.35981 2.07174,0.37159 2.28948,0.0193 0.0906,-0.14651 -0.081,-0.61138 -0.38126,-1.03303 -0.70873,-0.99532 -0.68824,-1.25332 0.11556,-1.45506 0.91109,-0.22867 0.82849,-0.84972 -0.18255,-1.37255 l -0.84401,-0.43646 0.71171,-0.51845 c 0.93923,-0.68418 0.90805,-1.41753 -0.082,-1.92952 -0.43656,-0.22575 -0.79375,-0.52647 -0.79375,-0.66825 0,-0.35796 0.31919,-0.32196 0.93332,0.10528 0.28704,0.19968 0.90748,0.44697 1.37875,0.54952 1.18796,0.2585 1.27947,0.55802 0.48768,1.59612 -0.37686,0.49408 -0.59213,0.95585 -0.47838,1.02615 0.11374,0.0703 0.85836,-0.0936 1.6547,-0.36414 1.86721,-0.63444 2.40524,-0.21716 0.67583,0.52415 -0.6909,0.29615 -1.35835,0.53846 -1.48322,0.53846 -0.12487,0 -0.29407,0.10847 -0.376,0.24105 -0.0819,0.13257 0.68336,0.5591 1.70067,0.94783 1.85921,0.71045 2.92166,0.72941 3.97598,0.071 0.31494,-0.19669 0.89945,0.0381 2.38993,0.95995 2.33006,1.44113 3.61741,2.43773 3.4143,2.64317 -0.44458,0.44964 -12.26286,1.66124 -22.21106,2.27705 -6.44113,0.39872 -17.15977,0.52414 -22.88646,0.2678 z m 19.33742,-4.93358 c 1.2108,-0.79334 1.94565,-3.00341 0.99864,-3.00341 -0.62272,0 -4.32403,2.19782 -4.23301,2.51354 0.0764,0.26482 1.58846,0.88299 2.22866,0.91111 0.18702,0.008 0.63959,-0.18135 1.00571,-0.42124 z"
         id="path6010" />
      <path
         style="fill:#6e8a37;stroke-width:1.1807"
         d="m -409.46969,104.93237 c -0.2843,-0.74088 0.42458,-2.91755 1.50843,-4.63172 0.58191,-0.920334 1.12032,-1.611044 1.19646,-1.534908 0.0761,0.07614 -0.16018,0.611445 -0.52513,1.189575 -1.05973,1.678713 -1.52798,3.022593 -1.44045,4.134153 0.0838,1.0641 -0.42975,1.64959 -0.73931,0.8429 z"
         id="path5969" />
      <path
         style="fill:#6e8a37;stroke-width:1.1807"
         d="m -415.22994,105.69318 c -0.17434,-0.45433 0.56521,-2.50568 0.90335,-2.50568 0.46992,0 0.5136,1.05016 0.0814,1.95654 -0.4944,1.03676 -0.74416,1.17604 -0.98473,0.54914 z"
         id="path5968" />
      <path
         style="fill:#6e8a37;stroke-width:1.1807"
         d="m -410.80198,106.56094 c 0.006,-0.90951 0.0538,-1.32889 0.10662,-0.93195 0.0573,0.43079 0.42064,0.95283 0.90134,1.29512 l 0.80531,0.57342 -0.85269,0.35853 c -0.46897,0.19719 -0.87934,0.35852 -0.91192,0.35852 -0.0326,0 -0.0545,-0.74414 -0.0487,-1.65364 z"
         id="path5967" />
      <path
         style="fill:#6e8a37;stroke-width:1.1807"
         d="m -393.96286,111.14237 c 0.36474,-0.11095 1.0426,-0.39793 1.50634,-0.63774 0.47882,-0.24761 0.90873,-0.32994 0.9949,-0.19051 0.27011,0.43705 -1.00393,1.07609 -2.0988,1.05272 -0.90859,-0.0194 -0.96789,-0.0525 -0.40244,-0.22447 z"
         id="path5966" />
      <path
         style="fill:#6e8a37;stroke-width:1.1807"
         d="m -416.32187,117.84625 c -0.87312,-0.0528 -4.14734,-0.22131 -7.27604,-0.37455 -8.79632,-0.43085 -20.7285,-1.61601 -21.25663,-2.11131 -0.33115,-0.31058 3.24436,-2.64789 4.05062,-2.64789 0.16642,0 0.21713,0.26149 0.12325,0.63556 -0.13562,0.54032 -0.044,0.66095 0.61156,0.80492 0.4241,0.0931 1.33574,0.0428 2.02588,-0.11184 1.14707,-0.25707 1.2943,-0.23243 1.71492,0.28702 0.56864,0.70223 1.1633,0.55249 2.81611,-0.70913 0.65319,-0.49859 1.30939,-0.90653 1.45822,-0.90653 0.57278,0 0.55751,0.80969 -0.0241,1.28069 -0.83935,0.67967 -0.44594,1.10056 1.0287,1.10056 0.90501,0 1.36852,0.14017 1.68474,0.50948 0.70415,0.82239 2.01494,0.17152 3.15849,-1.56833 l 0.43441,-0.66094 0.23822,0.90425 c 0.13102,0.49734 0.44876,1.03312 0.7061,1.19063 0.38166,0.2336 0.59198,0.14356 1.14139,-0.48864 0.61315,-0.70556 0.74385,-0.74846 1.45846,-0.47873 1.06176,0.40077 1.54013,0.16096 1.54013,-0.77208 0,-1.83769 -1.47361,-3.13356 -3.56338,-3.13356 -0.76423,0 -0.93454,-0.0984 -0.93454,-0.5397 0,-0.29684 -0.24643,-1.02276 -0.54762,-1.61314 -0.30119,-0.59039 -0.49085,-1.13021 -0.42146,-1.1996 0.29641,-0.29642 1.85049,0.81705 2.11373,1.51446 0.27554,0.73 1.39617,1.39007 3.35327,1.97515 l 0.66146,0.19774 -0.52917,-0.60301 c -0.29104,-0.33165 -1.18401,-1.02179 -1.98437,-1.53363 -2.23493,-1.42925 -4.38115,-3.47942 -4.27826,-4.08677 0.048,-0.28326 -0.13063,-0.73963 -0.39693,-1.01415 -0.26631,-0.27452 -0.67868,-0.70896 -0.9164,-0.96542 -0.23772,-0.25647 -0.52065,-0.99938 -0.62873,-1.65091 -0.17609,-1.06151 -0.15305,-1.148533 0.22179,-0.83744 0.62858,0.52167 1.8715,2.75015 1.83193,3.28454 -0.0205,0.2772 0.0836,0.39564 0.25474,0.28985 0.1592,-0.0984 0.22559,-0.0712 0.14754,0.0604 -0.13097,0.22088 3.85274,3.79657 4.45253,3.9965 0.30355,0.10119 0.27746,-2.68888 -0.0322,-3.44423 -0.34317,-0.83708 0.27639,-1.13247 1.32571,-0.63208 1.1381,0.54272 1.18492,0.94257 0.13494,1.15257 -0.7208,0.14416 -0.79375,0.25456 -0.79375,1.2014 0,1.18881 0.3039,1.88765 1.27246,2.9261 0.80896,0.86734 1.00213,0.89949 1.18574,0.19734 0.0967,-0.36973 0.27478,-0.47802 0.58829,-0.35772 0.34352,0.13182 0.41578,0.38113 0.30619,1.05642 -0.11164,0.68798 -0.0259,0.96618 0.38676,1.25524 0.29161,0.20425 0.49226,0.5538 0.4459,0.77679 -0.0464,0.22299 0.30959,0.75865 0.791,1.19036 0.98802,0.886 1.54855,0.86589 2.85437,-0.10242 l 0.81926,-0.60751 0.43323,0.90851 c 0.45014,0.94395 1.05597,1.17468 1.42084,0.54113 0.11637,-0.20206 0.44835,-0.41179 0.73772,-0.46606 0.28937,-0.0543 0.5673,-0.33544 0.61763,-0.62481 0.0503,-0.28937 0.2815,-0.674 0.51372,-0.85473 0.34403,-0.26775 0.51761,-0.24325 0.93735,0.13229 0.49075,0.43909 0.52919,0.43724 0.81223,-0.039 1.41141,-2.37474 2.35694,-3.53913 3.2006,-3.94145 1.18128,-0.56331 1.46213,-0.56874 1.46213,-0.0283 0,0.24056 -0.14962,0.36776 -0.34459,0.29295 -0.72712,-0.27902 -1.92022,0.52478 -2.41824,1.6292 -0.27224,0.60371 -0.42052,1.17209 -0.32954,1.26308 0.18265,0.18265 1.27415,-0.45421 2.29862,-1.34118 0.76974,-0.66643 2.64583,-1.56183 2.64583,-1.26277 0,0.11228 -0.35235,0.61637 -0.78299,1.1202 -0.99413,1.16304 -0.99434,1.33042 -10e-4,1.04564 0.97422,-0.2794 2.44654,-1.16965 3.57937,-2.16429 l 0.83911,-0.73674 0.71011,0.65811 c 0.39057,0.36196 0.99461,0.65812 1.34233,0.65812 1.01883,0 1.02556,0.48131 0.0127,0.90453 -1.05495,0.44079 -1.26473,1.1996 -0.3414,1.23487 0.49142,0.0188 0.45684,0.064 -0.19813,0.25931 -0.74671,0.22264 -1.45551,0.88158 -1.45551,1.35314 0,0.11612 1.0436,0.13705 2.31911,0.0465 2.18047,-0.15477 2.36631,-0.12655 3.10885,0.47218 1.69279,1.36494 1.58674,1.33108 2.33236,0.74458 0.58621,-0.46111 0.78302,-0.49479 1.29385,-0.2214 0.81915,0.43839 2.02232,0.44439 2.18863,0.0109 0.0749,-0.19511 -0.10243,-0.68974 -0.39397,-1.09918 -0.69245,-0.97245 -0.66865,-1.23205 0.13138,-1.43284 0.91109,-0.22867 0.82849,-0.84972 -0.18255,-1.37255 l -0.84401,-0.43646 0.71171,-0.51845 c 0.93923,-0.68418 0.90805,-1.41753 -0.082,-1.92952 -0.43656,-0.22575 -0.79375,-0.52647 -0.79375,-0.66825 0,-0.40138 0.39615,-0.30629 1.13053,0.27138 0.37,0.29104 0.8106,0.52916 0.97912,0.52916 0.16851,0 0.54445,0.12741 0.83542,0.28313 0.51914,0.27784 0.51632,0.2998 -0.15074,1.17436 -0.37388,0.49017 -0.58671,0.94874 -0.47296,1.01904 0.11374,0.0703 0.85836,-0.0936 1.6547,-0.36414 1.86721,-0.63444 2.40524,-0.21716 0.67583,0.52415 -0.6909,0.29615 -1.35835,0.53846 -1.48322,0.53846 -0.12487,0 -0.29407,0.10847 -0.376,0.24105 -0.0819,0.13257 0.68336,0.5591 1.70067,0.94783 1.84713,0.70583 3.08532,0.73256 3.89158,0.084 0.21111,-0.16981 0.56043,-0.0818 1.05833,0.26654 0.40876,0.28601 1.62914,1.08098 2.71196,1.7666 1.44056,0.91213 1.86647,1.30352 1.5875,1.45883 -0.76516,0.42598 -7.77649,1.16074 -19.03438,1.99472 -5.1454,0.38118 -20.53798,0.69669 -23.9448,0.49082 z m 17.74992,-4.77617 c 1.2108,-0.79334 1.94565,-3.00341 0.99864,-3.00341 -0.62272,0 -4.32403,2.19782 -4.23301,2.51354 0.0764,0.26482 1.58846,0.88299 2.22866,0.91111 0.18702,0.008 0.63959,-0.18135 1.00571,-0.42124 z"
         id="path5963" />
      <path
         style="fill:#695230;stroke-width:1.1807"
         d="m -425.11926,106.3201 c -0.95777,-0.7701 -1.65365,-1.53644 -1.65365,-1.82109 0,-0.27031 -0.16121,-0.58668 -0.35825,-0.70305 -0.49505,-0.29238 -1.05915,-1.40221 -0.71271,-1.40221 0.14882,0 0.57255,0.47835 0.94162,1.06301 0.36908,0.58465 1.40123,1.77528 2.29367,2.64583 1.96978,1.92148 1.73362,2.02206 -0.51068,0.21751 z"
         id="path5881" />
      <path
         style="fill:#695230;stroke-width:1.1807"
         d="m -416.32187,117.84579 c -0.87312,-0.0525 -4.14734,-0.22085 -7.27604,-0.37409 -8.79632,-0.43085 -20.7285,-1.61601 -21.25663,-2.11131 -0.33115,-0.31058 3.24436,-2.64789 4.05062,-2.64789 0.16642,0 0.21713,0.26149 0.12325,0.63556 -0.13562,0.54032 -0.044,0.66095 0.61156,0.80492 0.4241,0.0931 1.34278,0.0412 2.04152,-0.11535 1.15541,-0.25893 1.30457,-0.23598 1.64736,0.25341 0.51011,0.72829 0.75394,0.68873 2.53658,-0.41159 1.76828,-1.09144 2.82061,-1.08498 1.79099,0.011 -0.79768,0.84909 -0.50236,1.20331 1.00323,1.20331 0.91671,0 1.36766,0.13916 1.69688,0.52366 0.63567,0.74241 2.15266,0.10708 2.84841,-1.19293 0.4195,-0.78385 0.849,-0.72891 1.05287,0.13468 0.0801,0.33924 0.35847,0.74713 0.61864,0.90642 0.38829,0.23774 0.5937,0.15077 1.14655,-0.48538 0.61315,-0.70556 0.74385,-0.74846 1.45846,-0.47873 1.14807,0.43335 1.54013,0.1728 1.54013,-1.02353 0,-0.97236 0.0453,-1.03002 0.80888,-1.03002 1.28597,0 3.24363,0.55839 3.83838,1.09483 0.74605,0.67291 1.18004,0.62213 2.43157,-0.28447 l 1.07281,-0.77715 0.32426,0.78282 c 0.17834,0.43055 0.42931,0.84775 0.55771,0.92711 0.43982,0.27182 2.34347,-0.76242 2.34347,-1.2732 0,-0.59459 0.71823,-0.91589 1.12904,-0.50508 0.41911,0.41911 1.66519,0.37339 2.56957,-0.0943 0.88486,-0.45758 2.21617,-0.28713 3.10194,0.39715 0.32056,0.24764 1.13293,0.60428 1.80525,0.79252 1.06331,0.2977 1.34247,0.285 2.14484,-0.0976 0.7867,-0.37516 0.97643,-0.38586 1.28954,-0.0727 0.27494,0.27493 0.65302,0.31185 1.50566,0.14702 1.95717,-0.37837 3.52474,-0.2866 4.21171,0.24656 1.25337,0.97276 1.68135,1.09453 2.44835,0.6966 0.51436,-0.26685 0.90514,-0.30002 1.38504,-0.11757 1.74326,0.66279 2.65818,0.006 1.86431,-1.3375 -0.56244,-0.95213 -0.56621,-0.93623 0.30849,-1.29855 0.63038,-0.26111 1.03216,-0.20499 2.6117,0.36478 2.1329,0.76938 3.41638,0.85052 4.24731,0.26852 0.54448,-0.38137 0.71608,-0.31942 2.96004,1.06864 2.62274,1.62236 2.89549,1.87943 2.20595,2.07917 -1.50061,0.43467 -8.42928,1.13209 -18.8554,1.89793 -5.34523,0.39262 -20.44171,0.70306 -23.9448,0.49239 z"
         id="path5878" />
      <path
         style="fill:#523a26;stroke-width:1.1807"
         d="m -437.09166,116.15208 c -0.81088,-0.17068 -0.8375,-0.19925 -0.21405,-0.22975 0.39159,-0.0192 0.78557,-0.15389 0.87551,-0.29941 0.24467,-0.39589 1.64078,-0.31904 2.52668,0.13908 0.42934,0.22202 0.78061,0.46015 0.78061,0.52917 0,0.18694 -2.9032,0.0852 -3.96875,-0.13909 z"
         id="path5832" />
    </g>
  </g>
</svg>
