<?xml version="1.0" encoding="UTF-8" standalone="no"?>
<!-- Created with Inkscape (http://www.inkscape.org/) -->

<svg
   width="64.41539mm"
   height="58.992348mm"
   viewBox="0 0 64.41539 58.992348"
   version="1.1"
   id="svg1"
   xmlns="http://www.w3.org/2000/svg"
   xmlns:svg="http://www.w3.org/2000/svg">
  <defs
     id="defs1" />
  <g
     id="layer1"
     transform="translate(-55.297918,-112.44792)">
    <g
       id="g6214"
       transform="matrix(0.87434391,0,0,0.87434391,274.24287,182.63036)"
       style="stroke-width:1.14371">
      <path
         style="fill:#daa4ad;stroke-width:1.14371"
         d="m -227.93854,-13.09281 c -10.11456,-0.653001 -19.29438,-1.58635 -21.10052,-2.145374 -0.25466,-0.07882 -0.46302,-0.316553 -0.46302,-0.528292 0,-0.418208 3.48195,-2.777606 5.82084,-3.944243 1.79377,-0.894735 1.7303,-0.832791 1.33784,-1.305675 -0.44972,-0.541883 -0.18207,-0.853777 0.90819,-1.058312 0.55663,-0.104424 0.92897,-0.32854 0.92897,-0.559161 0,-0.23867 0.26284,-0.384886 0.69188,-0.384886 0.67457,0 0.68119,-0.01633 0.26459,-0.652149 -0.63033,-0.961995 -0.54401,-1.464517 0.25155,-1.464517 0.37336,0 0.88134,0.108368 1.12882,0.240819 0.28976,0.155071 0.66444,0.126045 1.05227,-0.08152 l 0.6023,-0.322339 -0.67279,-0.360065 c -0.93837,-0.502202 -0.88004,-1.30076 0.10948,-1.498664 0.70825,-0.141649 0.7771,-0.247433 0.72761,-1.117809 -0.0454,-0.797963 0.0403,-0.97492 0.50415,-1.041176 0.30918,-0.04416 0.92086,0.224806 1.36923,0.602086 0.48682,0.409635 0.87738,0.573538 0.97814,0.410495 0.29052,-0.47007 1.14781,-0.295322 1.589,0.3239 0.41935,0.588555 0.42776,0.589306 0.74074,0.06615 0.17412,-0.291042 0.31742,-0.826823 0.31845,-1.190625 0.002,-0.604067 0.10517,-0.663334 1.19249,-0.683081 0.65485,-0.01189 1.39329,-0.11174 1.64098,-0.221883 0.24769,-0.110143 0.57595,-0.122632 0.72947,-0.02775 0.15352,0.09488 0.35055,-0.01363 0.43785,-0.241138 0.0873,-0.227505 0.42381,-0.413645 0.74779,-0.413645 0.8686,0 0.95462,-0.219803 0.47755,-1.220234 -0.5718,-1.199068 -0.17574,-1.683325 1.01051,-1.235565 0.73844,0.278731 0.82321,0.251211 1.04809,-0.340263 0.41595,-1.094026 1.69636,-0.65556 2.19611,0.75204 0.12465,0.351089 0.33588,0.427059 0.8374,0.301184 0.37402,-0.09387 0.83433,-0.03255 1.04059,0.138641 0.25327,0.210192 0.42394,0.219507 0.54135,0.02954 0.0943,-0.152587 0.47598,-0.277431 0.84816,-0.277431 0.56676,0 0.652,-0.09449 0.52463,-0.581545 -0.0836,-0.319849 -0.0245,-0.735306 0.1315,-0.923237 0.22921,-0.276188 0.43213,-0.253943 1.05845,0.116033 0.64502,0.381024 0.81257,0.396722 0.99986,0.09368 0.14803,-0.23951 0.45897,-0.305325 0.90895,-0.192388 0.63132,0.158451 0.67368,0.115393 0.55039,-0.559502 -0.1964,-1.075088 0.21338,-1.567129 1.0048,-1.206532 0.57045,0.259913 0.66197,0.210839 0.92971,-0.498468 0.39981,-1.059226 1.3951,-0.957778 1.7668,0.180087 0.34173,1.046119 0.29322,1.008663 0.89154,0.688455 0.66039,-0.353433 1.15207,0.147151 0.94022,0.957256 -0.11478,0.438927 -0.0124,0.578851 0.4741,0.647852 0.52273,0.07414 0.60991,0.223471 0.55334,0.947744 -0.0369,0.472854 0.0426,0.859734 0.1768,0.859734 0.13417,0 0.42632,0.06998 0.64921,0.155514 0.28341,0.108756 0.52046,-0.120186 0.78839,-0.761451 0.52293,-1.251535 0.94825,-1.458462 1.52748,-0.743145 l 0.47548,0.587195 0.78549,-0.580734 c 1.03893,-0.76812 1.71859,-0.52489 1.55963,0.55815 -0.0983,0.669736 -0.0144,0.822674 0.52561,0.95821 0.53107,0.133289 0.61809,0.28373 0.50146,0.866905 -0.20777,1.038845 0.59481,1.481286 1.61986,0.892986 0.89256,-0.512256 1.6442,-0.31692 1.6442,0.42729 0,0.614573 1.37809,2.103781 1.5287,1.65196 0.0553,-0.165898 0.31563,-0.567255 0.57851,-0.891904 0.405,-0.500155 0.54195,-0.537178 0.89701,-0.2425 0.35275,0.292753 0.53062,0.260002 1.12434,-0.207019 0.38792,-0.305135 1.05969,-0.55479 1.49282,-0.55479 0.75097,0 0.77975,0.04139 0.6202,0.891854 -0.1559,0.831022 -0.11279,0.902757 0.63201,1.051718 0.93515,0.18703 1.04078,0.767723 0.24148,1.327572 -0.85123,0.596225 -0.40091,0.900366 1.11715,0.754501 1.34067,-0.128822 1.36557,-0.118332 1.2081,0.509075 -0.0884,0.352335 -0.0931,0.899441 -0.0104,1.215793 0.1226,0.468826 0.28756,0.547756 0.89209,0.426851 0.57466,-0.114934 0.80883,-0.02283 1.03996,0.409026 0.18102,0.338237 0.55794,0.55736 0.95874,0.55736 0.83826,0 1.10618,0.66586 0.52592,1.307047 -0.52233,0.577163 -0.83006,0.304654 3.6898,3.26745 3.591,2.353921 3.7557,2.806352 1.19063,3.270746 -2.0203,0.365764 -7.90321,0.982022 -14.94896,1.565961 -6.99535,0.579761 -26.27366,0.723281 -33.60209,0.250155 z"
         id="path6211" />
      <path
         style="fill:#daae71;stroke-width:1.14371"
         d="m -218.67812,-12.857278 c -15.10793,-0.636904 -29.59888,-1.949541 -30.40019,-2.753747 -0.21244,-0.213219 -0.11213,-0.434844 0.36998,-0.817399 1.04515,-0.829317 5.88978,-3.679899 6.25408,-3.679899 0.52202,0 0.70168,-0.514954 0.33415,-0.957797 -0.40045,-0.48252 0.0504,-0.883567 1.00071,-0.890235 0.34959,-0.0025 0.64616,-0.22043 0.75151,-0.552353 0.11044,-0.347971 0.31902,-0.492662 0.57087,-0.396017 0.69608,0.267111 0.86039,-0.102282 0.4013,-0.9022 -0.5669,-0.987767 -0.20396,-1.473678 0.81216,-1.087347 0.73373,0.278963 2.57522,0.09453 2.57522,-0.257923 0,-0.116675 -0.23742,-0.28749 -0.5276,-0.379589 -0.69996,-0.222161 -1.36706,-0.908178 -1.17901,-1.212453 0.0827,-0.133789 0.51439,-0.243253 0.95934,-0.243253 0.71592,0 0.78827,-0.06848 0.6289,-0.595312 -0.35686,-1.17966 -0.29401,-1.387277 0.44575,-1.472459 0.50564,-0.05822 0.91107,0.118191 1.34321,0.58447 0.5845,0.630693 0.64455,0.642698 1.07875,0.215688 0.43416,-0.426959 0.48828,-0.417439 0.97048,0.170695 0.28087,0.34258 0.44476,0.729533 0.36419,0.859895 -0.0806,0.130363 -0.0502,0.2352 0.0676,0.232972 0.67414,-0.01276 1.25739,-1.064332 1.15563,-2.083561 -0.0599,-0.60001 -0.002,-0.625499 1.13294,-0.49759 0.65784,0.07415 1.31539,0.0155 1.46122,-0.130332 0.46072,-0.460717 1.09447,0.0089 1.09447,0.81105 0,1.029649 0.21109,1.164229 0.83986,0.535457 l 0.53118,-0.53118 -0.56743,-0.528643 c -0.73849,-0.688005 -0.57119,-1.122749 0.47173,-1.225799 0.83373,-0.08238 0.83583,-0.08641 0.44264,-0.846757 -0.74726,-1.445043 -0.32503,-2.210283 0.80942,-1.466965 0.62684,0.410722 0.66405,0.400906 0.9624,-0.253891 0.53768,-1.180089 1.27221,-0.803207 2.24222,1.15047 0.0239,0.04817 0.3136,-0.05698 0.64373,-0.233659 0.51679,-0.276575 0.66379,-0.242768 1.05726,0.243147 0.53807,0.664486 0.76907,0.714801 0.76907,0.167513 0,-0.246944 0.24988,-0.396875 0.66146,-0.396875 0.55561,0 0.66146,-0.124513 0.66146,-0.778135 0,-1.009913 0.38971,-1.226179 1.22424,-0.679375 0.62803,0.4115 0.69329,0.410803 1.0015,-0.01069 0.26658,-0.364573 0.4363,-0.393821 0.88666,-0.152796 0.80105,0.42871 0.82052,0.40642 0.66404,-0.760251 -0.12319,-0.918456 -0.0744,-1.058333 0.36914,-1.058333 0.28109,0 0.64737,0.136284 0.81394,0.302854 0.22741,0.227416 0.34592,0.131262 0.47575,-0.386023 0.36426,-1.451324 1.70848,-1.49918 1.70848,-0.06082 0,0.795106 0.23637,0.971457 0.85694,0.639338 0.76919,-0.411659 1.17715,0.08536 0.78197,0.952685 -0.29005,0.636592 -0.26547,0.668635 0.51287,0.668635 0.79102,0 0.81189,0.03003 0.6438,0.926042 -0.15063,0.802903 -0.10465,0.926042 0.34579,0.926042 0.28573,0 0.67808,0.05929 0.87188,0.131749 0.22162,0.08286 0.5169,-0.260771 0.79574,-0.926042 0.42843,-1.022122 1.27642,-1.47158 1.27642,-0.67653 0,0.676978 0.55231,0.747577 1.18661,0.15168 0.89255,-0.838506 1.61396,-0.615115 1.50845,0.467104 -0.0686,0.703973 0.009,0.852039 0.4474,0.852039 0.89831,0 0.9626,0.574056 0.14137,1.262178 -0.75359,0.631439 -0.75616,0.642177 -0.11858,0.495399 0.40805,-0.09394 0.82845,0.0099 1.12448,0.277829 0.43609,0.394659 0.51214,0.392232 0.98012,-0.03129 0.73603,-0.666098 1.76626,-0.460404 1.65552,0.330538 -0.0618,0.44131 0.0689,0.6554 0.46302,0.758463 0.31056,0.08121 0.54911,0.360079 0.54911,0.641904 0,0.650806 0.7114,0.645411 0.91846,-0.007 0.26403,-0.831871 0.86452,-1.204373 1.32519,-0.822051 0.31917,0.264888 0.54305,0.197501 1.21093,-0.364478 0.9001,-0.75739 1.30985,-0.846271 1.77179,-0.384331 0.21151,0.211513 0.22399,0.456697 0.0407,0.799218 -0.34744,0.649206 -0.0958,1.012333 0.70169,1.012333 0.80303,0 0.85033,0.620517 0.088,1.154477 -0.81598,0.571533 -0.38295,0.962189 1.06655,0.962189 h 1.27122 v 1.080482 c 0,0.668332 -0.13763,1.133294 -0.3608,1.218933 -0.19843,0.07615 -0.36079,0.247832 -0.36079,0.38152 0,0.133689 0.35127,0.06142 0.78061,-0.160599 0.99139,-0.512665 1.76575,-0.515348 1.9609,-0.0068 0.0838,0.218281 0.34246,0.396875 0.57487,0.396875 0.23242,0 0.66275,0.128538 0.9563,0.28564 0.51438,0.275288 0.51655,0.304615 0.0599,0.809237 -0.6694,0.739685 -0.33762,1.132687 2.29897,2.723192 2.80111,1.689745 4.2164,2.76213 4.2164,3.194833 0,0.305964 -1.02442,0.55745 -4.23334,1.039248 -7.19605,1.080441 -28.88042,2.17205 -36.64479,1.844728 z"
         id="path6194" />
      <path
         style="fill:#aca892;stroke-width:1.14371"
         d="m -218.67812,-12.857278 c -15.10793,-0.636904 -29.59888,-1.949541 -30.40019,-2.753747 -0.21244,-0.213219 -0.11213,-0.434844 0.36998,-0.817399 1.04515,-0.829317 5.88978,-3.679899 6.25408,-3.679899 0.52202,0 0.70168,-0.514954 0.33415,-0.957797 -0.40045,-0.48252 0.0504,-0.883567 1.00071,-0.890235 0.34959,-0.0025 0.64616,-0.22043 0.75151,-0.552353 0.11044,-0.347971 0.31902,-0.492662 0.57087,-0.396017 0.69608,0.267111 0.86039,-0.102282 0.4013,-0.9022 -0.5669,-0.987767 -0.20396,-1.473678 0.81216,-1.087347 0.73373,0.278963 2.57522,0.09453 2.57522,-0.257923 0,-0.116675 -0.23742,-0.28749 -0.5276,-0.379589 -0.69996,-0.222161 -1.36706,-0.908178 -1.17901,-1.212453 0.0827,-0.133789 0.51439,-0.243253 0.95934,-0.243253 0.71592,0 0.78827,-0.06848 0.6289,-0.595312 -0.35686,-1.17966 -0.29401,-1.387277 0.44575,-1.472459 0.50564,-0.05822 0.91107,0.118191 1.34321,0.58447 0.5845,0.630693 0.64455,0.642698 1.07875,0.215688 0.43416,-0.426959 0.48828,-0.417439 0.97048,0.170695 0.28087,0.34258 0.44476,0.729533 0.36419,0.859895 -0.0806,0.130363 -0.0502,0.2352 0.0676,0.232972 0.67414,-0.01276 1.25739,-1.064332 1.15563,-2.083561 -0.0599,-0.60001 -0.002,-0.625499 1.13294,-0.49759 0.65784,0.07415 1.31539,0.0155 1.46122,-0.130332 0.46072,-0.460717 1.09447,0.0089 1.09447,0.81105 0,1.029649 0.21109,1.164229 0.83986,0.535457 l 0.53118,-0.53118 -0.56743,-0.528643 c -0.73849,-0.688005 -0.57119,-1.122749 0.47173,-1.225799 0.83373,-0.08238 0.83583,-0.08641 0.44264,-0.846757 -0.74726,-1.445043 -0.32503,-2.210283 0.80942,-1.466965 0.62684,0.410722 0.66405,0.400906 0.9624,-0.253891 0.53768,-1.180089 1.27221,-0.803207 2.24222,1.15047 0.0239,0.04817 0.3136,-0.05698 0.64373,-0.233659 0.51679,-0.276575 0.66379,-0.242768 1.05726,0.243147 0.53807,0.664486 0.76907,0.714801 0.76907,0.167513 0,-0.246944 0.24988,-0.396875 0.66146,-0.396875 0.55561,0 0.66146,-0.124513 0.66146,-0.778135 0,-1.009913 0.38971,-1.226179 1.22424,-0.679375 0.62803,0.4115 0.69329,0.410803 1.0015,-0.01069 0.26658,-0.364573 0.4363,-0.393821 0.88666,-0.152796 0.80105,0.42871 0.82052,0.40642 0.66404,-0.760251 -0.12319,-0.918456 -0.0744,-1.058333 0.36914,-1.058333 0.28109,0 0.64737,0.136284 0.81394,0.302854 0.22741,0.227416 0.34592,0.131262 0.47575,-0.386023 0.36426,-1.451324 1.70848,-1.49918 1.70848,-0.06082 0,0.795106 0.23637,0.971457 0.85694,0.639338 0.76919,-0.411659 1.17715,0.08536 0.78197,0.952685 -0.29005,0.636592 -0.26547,0.668635 0.51287,0.668635 0.79102,0 0.81189,0.03003 0.6438,0.926042 -0.15063,0.802903 -0.10465,0.926042 0.34579,0.926042 0.28573,0 0.67808,0.05929 0.87188,0.131749 0.22162,0.08286 0.5169,-0.260771 0.79574,-0.926042 0.42843,-1.022122 1.27642,-1.47158 1.27642,-0.67653 0,0.676978 0.55231,0.747577 1.18661,0.15168 0.89255,-0.838506 1.61396,-0.615115 1.50845,0.467104 -0.0686,0.703973 0.009,0.852039 0.4474,0.852039 0.89831,0 0.9626,0.574056 0.14137,1.262178 -0.75359,0.631439 -0.75616,0.642177 -0.11858,0.495399 0.40805,-0.09394 0.82845,0.0099 1.12448,0.277829 0.43609,0.394659 0.51214,0.392232 0.98012,-0.03129 0.73603,-0.666098 1.76626,-0.460404 1.65552,0.330538 -0.0618,0.44131 0.0689,0.6554 0.46302,0.758463 0.31056,0.08121 0.54911,0.360079 0.54911,0.641904 0,0.650806 0.7114,0.645411 0.91846,-0.007 0.26403,-0.831871 0.86452,-1.204373 1.32519,-0.822051 0.31917,0.264888 0.54305,0.197501 1.21093,-0.364478 0.9001,-0.75739 1.30985,-0.846271 1.77179,-0.384331 0.21151,0.211513 0.22399,0.456697 0.0407,0.799218 -0.34744,0.649206 -0.0958,1.012333 0.70169,1.012333 0.80303,0 0.85033,0.620517 0.088,1.154477 -0.81598,0.571533 -0.38295,0.962189 1.06655,0.962189 h 1.27122 v 1.080482 c 0,0.668332 -0.13763,1.133294 -0.3608,1.218933 -0.19843,0.07615 -0.36079,0.247832 -0.36079,0.38152 0,0.133689 0.35127,0.06142 0.78061,-0.160599 0.99139,-0.512665 1.76575,-0.515348 1.9609,-0.0068 0.0838,0.218281 0.34246,0.396875 0.57487,0.396875 0.23242,0 0.66275,0.128538 0.9563,0.28564 0.51438,0.275288 0.51655,0.304615 0.0599,0.809237 -0.6694,0.739685 -0.33762,1.132687 2.29897,2.723192 2.80111,1.689745 4.2164,2.76213 4.2164,3.194833 0,0.305964 -1.02442,0.55745 -4.23334,1.039248 -7.19605,1.080441 -28.88042,2.17205 -36.64479,1.844728 z"
         id="path6179" />
      <path
         style="fill:#e9668a;stroke-width:1.14371"
         d="m -224.23437,-13.240237 c -11.17558,-0.550234 -24.46015,-1.916206 -24.66321,-2.535967 -0.10806,-0.329819 3.16989,-2.515123 5.70522,-3.803485 1.59977,-0.812942 1.89289,-1.127308 1.35888,-1.457344 -0.42898,-0.265128 -0.0231,-0.658791 0.67915,-0.658791 0.35398,0 0.78231,-0.222105 0.95184,-0.493567 0.17524,-0.280606 0.50581,-0.441901 0.76613,-0.373825 0.6992,0.182844 0.83479,-0.32101 0.32529,-1.20877 -0.55695,-0.970428 -0.33741,-1.268479 0.64686,-0.878183 0.84559,0.335302 2.4919,0.06818 2.6584,-0.431338 0.0612,-0.183609 -0.25204,-0.455509 -0.70782,-0.614394 -1.03955,-0.362389 -1.05131,-0.914121 -0.0239,-1.11961 0.77497,-0.154994 1.06873,-0.764552 0.52916,-1.098021 -0.14552,-0.08994 -0.26458,-0.335089 -0.26458,-0.544782 0,-0.626923 1.10526,-0.4353 1.90421,0.33014 0.7181,0.687983 0.75465,0.694844 1.11033,0.208425 0.52724,-0.721043 1.28541,-0.08673 1.04434,0.873745 -0.14703,0.585831 -0.10314,0.647582 0.33329,0.468875 0.27644,-0.113198 0.71771,-0.267485 0.98061,-0.34286 0.26301,-0.07541 0.41695,-0.296085 0.34228,-0.490675 -0.0746,-0.194497 -0.0214,-0.424271 0.1183,-0.51061 0.1397,-0.08634 0.17709,-0.463398 0.0831,-0.837909 -0.16967,-0.675996 -0.16201,-0.679595 1.05736,-0.49674 0.80543,0.120782 1.22826,0.08753 1.22826,-0.09661 0,-0.439212 0.71865,-0.328965 0.89774,0.13772 0.0883,0.230183 0.1606,0.706433 0.1606,1.058333 0,0.762839 0.19823,0.78793 0.99218,0.125585 0.73471,-0.612917 0.7524,-0.970582 0.0661,-1.337849 -0.79799,-0.42707 -0.66647,-1.058334 0.22049,-1.058334 1.06414,0 1.14728,-0.19775 0.56389,-1.341279 -0.60105,-1.178161 -0.30566,-1.57183 0.68994,-0.919489 0.73995,0.484835 1.17151,0.347659 1.17151,-0.372372 0,-1.268239 1.34723,-0.59259 1.6893,0.847203 0.18856,0.793666 0.61966,0.959286 0.86086,0.330729 0.23424,-0.610436 0.86691,-0.471191 1.20215,0.264583 0.37493,0.822889 0.9454,0.858556 1.05794,0.06615 0.0635,-0.447289 0.23257,-0.57473 0.67986,-0.512535 0.52145,0.07251 0.59531,-0.03417 0.59531,-0.859896 0,-1.060873 0.14338,-1.130416 1.0383,-0.503594 0.58493,0.409705 0.64876,0.409144 0.95406,-0.0084 0.27551,-0.376784 0.43672,-0.397557 1.02062,-0.131516 0.8841,0.402824 1.12716,0.155152 0.7215,-0.735187 -0.4234,-0.929262 0.001,-1.424376 0.79581,-0.928097 0.30158,0.188339 0.57127,0.304421 0.59932,0.257957 0.0281,-0.04646 0.16815,-0.441665 0.31134,-0.878228 0.34681,-1.057408 0.97425,-1.015743 1.19826,0.07957 0.22087,1.079923 0.42281,1.298612 0.82645,0.894976 0.1722,-0.1722 0.46787,-0.31309 0.65705,-0.31309 0.40284,0 0.46627,0.951507 0.0794,1.190625 -0.38496,0.237922 -0.32491,1.007321 0.0661,0.847439 1.40939,-0.576219 1.3439,-0.601078 1.14929,0.436252 -0.19701,1.050187 -0.0969,1.151664 1.26882,1.286608 0.66327,0.06553 0.8065,-0.04706 1.08194,-0.850508 0.3575,-1.042807 1.02032,-1.233667 1.14856,-0.330729 0.10852,0.764126 0.33903,0.750342 1.10608,-0.06615 0.90406,-0.962331 1.54303,-0.877474 1.49422,0.198438 -0.032,0.704709 0.0684,0.875154 0.5563,0.944443 0.86984,0.123537 0.728,0.548471 -0.33073,0.990837 -1.25073,0.522586 -1.21757,1.025535 0.054,0.819187 0.69836,-0.113328 1.11291,-0.0388 1.44232,0.259307 0.42343,0.383205 0.52033,0.372673 1.1535,-0.125377 0.8494,-0.668142 1.50765,-0.493437 1.29739,0.344336 -0.11518,0.458891 -0.017,0.632682 0.42248,0.747599 0.43744,0.114393 0.53151,0.278967 0.39869,0.697455 -0.14468,0.455854 -0.061,0.547733 0.49865,0.547733 0.47961,0 0.79022,-0.22766 1.08296,-0.79375 0.46569,-0.900542 0.78666,-0.995828 1.15248,-0.342136 0.22429,0.400779 0.34413,0.353776 1.06469,-0.417584 0.81103,-0.868212 1.85019,-1.046038 1.65318,-0.282899 -0.0541,0.209638 -0.15292,0.572738 -0.21955,0.806888 -0.0868,0.304984 0.10997,0.471947 0.69372,0.588697 1.03288,0.206578 1.03567,0.577587 0.008,1.108845 l -0.80652,0.417066 0.5901,0.477839 c 0.42967,0.347922 0.88625,0.444461 1.67932,0.35507 l 1.08921,-0.12277 0.0268,0.945017 c 0.0201,0.710411 -0.098,0.984628 -0.47593,1.104572 -0.27649,0.08776 -0.50271,0.27433 -0.50271,0.414612 0,0.47839 0.7679,0.551146 1.36952,0.129756 0.75569,-0.529305 1.51174,-0.53974 1.7098,-0.0236 0.0858,0.223591 0.47969,0.396875 0.90213,0.396875 0.891,0 1.23074,0.399285 0.62714,0.737073 -0.63963,0.357955 -0.35093,1.170278 0.63009,1.772928 3.30493,2.030248 5.74153,3.77368 5.74153,4.108174 0,0.486031 -2.02735,0.853537 -7.9375,1.438863 -12.35247,1.223356 -27.70877,1.703915 -38.1,1.192299 z"
         id="path6166" />
      <path
         style="fill:#dd5376;stroke-width:1.14371"
         d="m -224.23437,-13.240237 c -11.17558,-0.550234 -24.46015,-1.916206 -24.66321,-2.535967 -0.10806,-0.329819 3.16989,-2.515123 5.70522,-3.803485 1.59977,-0.812942 1.89289,-1.127308 1.35888,-1.457344 -0.42898,-0.265128 -0.0231,-0.658791 0.67915,-0.658791 0.35398,0 0.78231,-0.222105 0.95184,-0.493567 0.17524,-0.280606 0.50581,-0.441901 0.76613,-0.373825 0.6992,0.182844 0.83479,-0.32101 0.32529,-1.20877 -0.55695,-0.970428 -0.33741,-1.268479 0.64686,-0.878183 0.84559,0.335302 2.4919,0.06818 2.6584,-0.431338 0.0612,-0.183609 -0.25204,-0.455509 -0.70782,-0.614394 -1.03955,-0.362389 -1.05131,-0.914121 -0.0239,-1.11961 0.77497,-0.154994 1.06873,-0.764552 0.52916,-1.098021 -0.14552,-0.08994 -0.26458,-0.335089 -0.26458,-0.544782 0,-0.626923 1.10526,-0.4353 1.90421,0.33014 0.7181,0.687983 0.75465,0.694844 1.11033,0.208425 0.52724,-0.721043 1.28541,-0.08673 1.04434,0.873745 -0.14703,0.585831 -0.10314,0.647582 0.33329,0.468875 0.27644,-0.113198 0.71771,-0.267485 0.98061,-0.34286 0.26301,-0.07541 0.41695,-0.296085 0.34228,-0.490675 -0.0746,-0.194497 -0.0214,-0.424271 0.1183,-0.51061 0.1397,-0.08634 0.17709,-0.463398 0.0831,-0.837909 -0.16967,-0.675996 -0.16201,-0.679595 1.05736,-0.49674 0.80543,0.120782 1.22826,0.08753 1.22826,-0.09661 0,-0.439212 0.71865,-0.328965 0.89774,0.13772 0.0883,0.230183 0.1606,0.706433 0.1606,1.058333 0,0.762839 0.19823,0.78793 0.99218,0.125585 0.73471,-0.612917 0.7524,-0.970582 0.0661,-1.337849 -0.79799,-0.42707 -0.66647,-1.058334 0.22049,-1.058334 1.06414,0 1.14728,-0.19775 0.56389,-1.341279 -0.60105,-1.178161 -0.30566,-1.57183 0.68994,-0.919489 0.73995,0.484835 1.17151,0.347659 1.17151,-0.372372 0,-1.268239 1.34723,-0.59259 1.6893,0.847203 0.18856,0.793666 0.61966,0.959286 0.86086,0.330729 0.23424,-0.610436 0.86691,-0.471191 1.20215,0.264583 0.37493,0.822889 0.9454,0.858556 1.05794,0.06615 0.0635,-0.447289 0.23257,-0.57473 0.67986,-0.512535 0.52145,0.07251 0.59531,-0.03417 0.59531,-0.859896 0,-1.060873 0.14338,-1.130416 1.0383,-0.503594 0.58493,0.409705 0.64876,0.409144 0.95406,-0.0084 0.27551,-0.376784 0.43672,-0.397557 1.02062,-0.131516 0.8841,0.402824 1.12716,0.155152 0.7215,-0.735187 -0.4234,-0.929262 0.001,-1.424376 0.79581,-0.928097 0.30158,0.188339 0.57127,0.304421 0.59932,0.257957 0.0281,-0.04646 0.16815,-0.441665 0.31134,-0.878228 0.34681,-1.057408 0.97425,-1.015743 1.19826,0.07957 0.22087,1.079923 0.42281,1.298612 0.82645,0.894976 0.1722,-0.1722 0.46787,-0.31309 0.65705,-0.31309 0.40284,0 0.46627,0.951507 0.0794,1.190625 -0.38496,0.237922 -0.32491,1.007321 0.0661,0.847439 1.40939,-0.576219 1.3439,-0.601078 1.14929,0.436252 -0.19701,1.050187 -0.0969,1.151664 1.26882,1.286608 0.66327,0.06553 0.8065,-0.04706 1.08194,-0.850508 0.3575,-1.042807 1.02032,-1.233667 1.14856,-0.330729 0.10852,0.764126 0.33903,0.750342 1.10608,-0.06615 0.90406,-0.962331 1.54303,-0.877474 1.49422,0.198438 -0.032,0.704709 0.0684,0.875154 0.5563,0.944443 0.86984,0.123537 0.728,0.548471 -0.33073,0.990837 -1.25073,0.522586 -1.21757,1.025535 0.054,0.819187 0.69836,-0.113328 1.11291,-0.0388 1.44232,0.259307 0.42343,0.383205 0.52033,0.372673 1.1535,-0.125377 0.8494,-0.668142 1.50765,-0.493437 1.29739,0.344336 -0.11518,0.458891 -0.017,0.632682 0.42248,0.747599 0.43744,0.114393 0.53151,0.278967 0.39869,0.697455 -0.14468,0.455854 -0.061,0.547733 0.49865,0.547733 0.47961,0 0.79022,-0.22766 1.08296,-0.79375 0.46569,-0.900542 0.78666,-0.995828 1.15248,-0.342136 0.22429,0.400779 0.34413,0.353776 1.06469,-0.417584 0.81103,-0.868212 1.85019,-1.046038 1.65318,-0.282899 -0.0541,0.209638 -0.15292,0.572738 -0.21955,0.806888 -0.0868,0.304984 0.10997,0.471947 0.69372,0.588697 1.03288,0.206578 1.03567,0.577587 0.008,1.108845 l -0.80652,0.417066 0.5901,0.477839 c 0.42967,0.347922 0.88625,0.444461 1.67932,0.35507 l 1.08921,-0.12277 0.0268,0.945017 c 0.0201,0.710411 -0.098,0.984628 -0.47593,1.104572 -0.27649,0.08776 -0.50271,0.27433 -0.50271,0.414612 0,0.47839 0.7679,0.551146 1.36952,0.129756 0.75569,-0.529305 1.51174,-0.53974 1.7098,-0.0236 0.0858,0.223591 0.47969,0.396875 0.90213,0.396875 0.891,0 1.23074,0.399285 0.62714,0.737073 -0.63963,0.357955 -0.35093,1.170278 0.63009,1.772928 3.30493,2.030248 5.74153,3.77368 5.74153,4.108174 0,0.486031 -2.02735,0.853537 -7.9375,1.438863 -12.35247,1.223356 -27.70877,1.703915 -38.1,1.192299 z"
         id="path6151" />
      <path
         style="fill:#959a68;stroke-width:1.14371"
         d="m -224.23437,-13.240237 c -11.17558,-0.550234 -24.46015,-1.916206 -24.66321,-2.535967 -0.10806,-0.329819 3.16989,-2.515123 5.70522,-3.803485 1.59977,-0.812942 1.89289,-1.127308 1.35888,-1.457344 -0.42898,-0.265128 -0.0231,-0.658791 0.67915,-0.658791 0.35398,0 0.78231,-0.222105 0.95184,-0.493567 0.17524,-0.280606 0.50581,-0.441901 0.76613,-0.373825 0.6992,0.182844 0.83479,-0.32101 0.32529,-1.20877 -0.55695,-0.970428 -0.33741,-1.268479 0.64686,-0.878183 0.84559,0.335302 2.4919,0.06818 2.6584,-0.431338 0.0612,-0.183609 -0.25204,-0.455509 -0.70782,-0.614394 -1.03955,-0.362389 -1.05131,-0.914121 -0.0239,-1.11961 0.77497,-0.154994 1.06873,-0.764552 0.52916,-1.098021 -0.14552,-0.08994 -0.26458,-0.335089 -0.26458,-0.544782 0,-0.626923 1.10526,-0.4353 1.90421,0.33014 0.7181,0.687983 0.75465,0.694844 1.11033,0.208425 0.52724,-0.721043 1.28541,-0.08673 1.04434,0.873745 -0.14703,0.585831 -0.10314,0.647582 0.33329,0.468875 0.27644,-0.113198 0.71771,-0.267485 0.98061,-0.34286 0.26301,-0.07541 0.41695,-0.296085 0.34228,-0.490675 -0.0746,-0.194497 -0.0214,-0.424271 0.1183,-0.51061 0.1397,-0.08634 0.17709,-0.463398 0.0831,-0.837909 -0.16967,-0.675996 -0.16201,-0.679595 1.05736,-0.49674 0.80543,0.120782 1.22826,0.08753 1.22826,-0.09661 0,-0.439212 0.71865,-0.328965 0.89774,0.13772 0.0883,0.230183 0.1606,0.706433 0.1606,1.058333 0,0.762839 0.19823,0.78793 0.99218,0.125585 0.73471,-0.612917 0.7524,-0.970582 0.0661,-1.337849 -0.79799,-0.42707 -0.66647,-1.058334 0.22049,-1.058334 1.06414,0 1.14728,-0.19775 0.56389,-1.341279 -0.60105,-1.178161 -0.30566,-1.57183 0.68994,-0.919489 0.73995,0.484835 1.17151,0.347659 1.17151,-0.372372 0,-1.268239 1.34723,-0.59259 1.6893,0.847203 0.18856,0.793666 0.61966,0.959286 0.86086,0.330729 0.23424,-0.610436 0.86691,-0.471191 1.20215,0.264583 0.37493,0.822889 0.9454,0.858556 1.05794,0.06615 0.0635,-0.447289 0.23257,-0.57473 0.67986,-0.512535 0.52145,0.07251 0.59531,-0.03417 0.59531,-0.859896 0,-1.060873 0.14338,-1.130416 1.0383,-0.503594 0.58493,0.409705 0.64876,0.409144 0.95406,-0.0084 0.27551,-0.376784 0.43672,-0.397557 1.02062,-0.131516 0.8841,0.402824 1.12716,0.155152 0.7215,-0.735187 -0.4234,-0.929262 0.001,-1.424376 0.79581,-0.928097 0.30158,0.188339 0.57127,0.304421 0.59932,0.257957 0.0281,-0.04646 0.16815,-0.441665 0.31134,-0.878228 0.34681,-1.057408 0.97425,-1.015743 1.19826,0.07957 0.22087,1.079923 0.42281,1.298612 0.82645,0.894976 0.1722,-0.1722 0.46787,-0.31309 0.65705,-0.31309 0.40284,0 0.46627,0.951507 0.0794,1.190625 -0.38496,0.237922 -0.32491,1.007321 0.0661,0.847439 1.40939,-0.576219 1.3439,-0.601078 1.14929,0.436252 -0.19701,1.050187 -0.0969,1.151664 1.26882,1.286608 0.66327,0.06553 0.8065,-0.04706 1.08194,-0.850508 0.3575,-1.042807 1.02032,-1.233667 1.14856,-0.330729 0.10852,0.764126 0.33903,0.750342 1.10608,-0.06615 0.90406,-0.962331 1.54303,-0.877474 1.49422,0.198438 -0.032,0.704709 0.0684,0.875154 0.5563,0.944443 0.86984,0.123537 0.728,0.548471 -0.33073,0.990837 -1.25073,0.522586 -1.21757,1.025535 0.054,0.819187 0.69836,-0.113328 1.11291,-0.0388 1.44232,0.259307 0.42343,0.383205 0.52033,0.372673 1.1535,-0.125377 0.8494,-0.668142 1.50765,-0.493437 1.29739,0.344336 -0.11518,0.458891 -0.017,0.632682 0.42248,0.747599 0.43744,0.114393 0.53151,0.278967 0.39869,0.697455 -0.14468,0.455854 -0.061,0.547733 0.49865,0.547733 0.47961,0 0.79022,-0.22766 1.08296,-0.79375 0.46569,-0.900542 0.78666,-0.995828 1.15248,-0.342136 0.22429,0.400779 0.34413,0.353776 1.06469,-0.417584 0.81103,-0.868212 1.85019,-1.046038 1.65318,-0.282899 -0.0541,0.209638 -0.15292,0.572738 -0.21955,0.806888 -0.0868,0.304984 0.10997,0.471947 0.69372,0.588697 1.03288,0.206578 1.03567,0.577587 0.008,1.108845 l -0.80652,0.417066 0.5901,0.477839 c 0.42967,0.347922 0.88625,0.444461 1.67932,0.35507 l 1.08921,-0.12277 0.0268,0.945017 c 0.0201,0.710411 -0.098,0.984628 -0.47593,1.104572 -0.27649,0.08776 -0.50271,0.27433 -0.50271,0.414612 0,0.47839 0.7679,0.551146 1.36952,0.129756 0.75569,-0.529305 1.51174,-0.53974 1.7098,-0.0236 0.0858,0.223591 0.47969,0.396875 0.90213,0.396875 0.891,0 1.23074,0.399285 0.62714,0.737073 -0.63963,0.357955 -0.35093,1.170278 0.63009,1.772928 3.30493,2.030248 5.74153,3.77368 5.74153,4.108174 0,0.486031 -2.02735,0.853537 -7.9375,1.438863 -12.35247,1.223356 -27.70877,1.703915 -38.1,1.192299 z"
         id="path6130" />
      <path
         style="fill:#a1a333;stroke-width:1.14371"
         d="m -219.07499,-13.142499 c -7.10552,-0.221831 -22.53777,-1.352755 -26.40439,-1.934997 -3.61937,-0.54501 -3.56235,-0.528065 -3.20912,-0.953675 0.48263,-0.58154 4.97504,-3.314523 6.25186,-3.803363 1.40499,-0.537906 1.55548,-0.695178 1.14195,-1.193441 -0.28498,-0.343379 -0.23444,-0.403269 0.34028,-0.403269 0.37122,0 0.83784,-0.162885 1.03692,-0.361968 0.19908,-0.199082 0.62431,-0.445231 0.94494,-0.546996 0.69636,-0.221017 0.72506,-0.4803 0.15026,-1.35756 -0.52119,-0.795441 -0.3467,-1.061021 0.42557,-0.647715 0.31257,0.167283 0.91682,0.226876 1.34558,0.132706 0.48618,-0.106784 0.77823,-0.06375 0.77823,0.114677 0,0.456755 0.45192,0.329647 0.63077,-0.177414 0.0898,-0.254662 0.23326,-0.613543 0.31875,-0.797515 0.0977,-0.210291 -0.22165,-0.493546 -0.86007,-0.762845 -1.06978,-0.451253 -1.0465,-0.494803 0.53453,-0.999923 0.46756,-0.14938 0.46959,-0.190795 0.0415,-0.844135 -0.31645,-0.482966 -0.36705,-0.770164 -0.17035,-0.966863 0.1967,-0.1967 0.55141,0.0167 1.19415,0.718402 0.88749,0.968919 1.48571,1.06627 1.48571,0.241778 0,-0.22182 0.14883,-0.352711 0.33073,-0.29087 0.1819,0.06184 0.33073,0.448296 0.33073,0.858789 0,0.764273 0.47656,1.173591 0.78512,0.674336 0.0947,-0.153203 0.52465,-0.27855 0.95549,-0.27855 0.7685,0 0.78124,-0.02257 0.67212,-1.190625 -0.11653,-1.247392 0.0326,-1.387349 0.95326,-0.894624 0.46057,0.246488 0.62532,0.200237 0.98493,-0.276503 0.54402,-0.721228 0.80845,-0.467983 0.80845,0.774252 0,1.266828 0.22662,1.450827 0.94994,0.771299 l 0.59232,-0.556457 0.29652,0.554037 c 0.2967,0.554387 1.07164,0.774638 1.07164,0.304578 0,-0.448279 -1.07328,-2.080912 -1.4674,-2.23215 -0.67474,-0.25892 -0.41322,-0.69339 0.41737,-0.69339 0.97516,0 1.24853,-0.553194 0.67675,-1.369517 -0.70938,-1.012789 -0.54071,-1.377259 0.38447,-0.830744 0.70353,0.415585 0.83635,0.425803 1.05428,0.0811 0.13714,-0.216912 0.25117,-0.602744 0.2534,-0.857406 0.002,-0.254661 0.10853,-0.463021 0.23623,-0.463021 0.40985,0 0.80975,0.675024 1.03113,1.740512 0.24248,1.167092 0.59468,1.325685 0.98224,0.442301 0.34747,-0.791995 0.88222,-0.753982 1.20135,0.0854 0.30429,0.800337 1.18301,0.786561 1.18383,-0.01856 3.9e-4,-0.37649 0.18277,-0.521203 0.66146,-0.524839 0.551,-0.0042 0.67472,-0.148047 0.74384,-0.864916 0.0951,-0.985843 0.20978,-1.036193 0.91234,-0.400387 0.4821,0.436289 0.52473,0.436289 0.84375,0 0.4658,-0.637015 0.67454,-0.57452 0.67454,0.20195 0,0.411574 0.14993,0.661458 0.39688,0.661458 0.21828,0 0.39687,-0.164707 0.39687,-0.366016 0,-0.201309 0.2459,-0.43032 0.54644,-0.508912 0.52583,-0.137508 0.53008,-0.174518 0.11278,-0.981489 -0.45513,-0.880134 -0.34246,-1.37224 0.19186,-0.837923 0.60937,0.609372 1.22723,0.362021 1.31497,-0.52643 0.12482,-1.263841 0.70057,-1.247395 0.90416,0.02583 0.17424,1.089636 0.53306,1.337928 1.1058,0.765186 0.49671,-0.496709 0.71066,-0.01643 0.31884,0.71571 -0.47449,0.886582 -0.0487,1.372782 0.80309,0.916943 0.57332,-0.306835 0.58657,-0.286732 0.41473,0.629259 -0.16498,0.879427 -0.12541,0.957228 0.56064,1.10218 0.40598,0.08578 0.93636,0.2625 1.17861,0.392714 0.54433,0.292584 0.88642,-0.08662 1.13751,-1.260903 0.21684,-1.014079 0.67099,-1.14839 0.67099,-0.198438 0,0.430992 0.14806,0.661459 0.42494,0.661459 0.23372,0 0.65908,-0.297656 0.94525,-0.661459 0.73034,-0.928486 1.23021,-0.852158 1.18236,0.180544 -0.0321,0.693294 0.0775,0.87057 0.62091,1.003754 0.61629,0.151055 0.58434,0.191993 -0.4831,0.6191 -1.49163,0.596829 -1.32649,1.128734 0.3235,1.04199 0.89801,-0.04721 1.27855,0.04341 1.3888,0.330729 0.2093,0.545415 0.61639,0.495549 1.31539,-0.161128 0.6834,-0.642022 1.17651,-0.485189 0.96904,0.308198 -0.10449,0.399549 0.007,0.583636 0.41918,0.69139 0.43902,0.114808 0.527,0.284611 0.40313,0.778118 -0.14444,0.575505 -0.0764,0.631263 0.77041,0.631263 0.79417,0 0.96896,-0.115086 1.20554,-0.793749 0.31851,-0.913656 0.50644,-0.976562 0.98807,-0.33073 0.3196,0.428567 0.40434,0.399034 1.13873,-0.396875 0.43639,-0.472942 0.9818,-0.859895 1.21202,-0.859895 0.37582,0 0.37842,0.07767 0.0255,0.760205 -0.46009,0.889714 -0.33267,1.091878 0.68821,1.091878 1.07019,0 0.92602,0.379618 -0.33183,0.873716 -1.01981,0.400589 -1.22742,0.978367 -0.35157,0.978367 0.2133,0 0.50419,0.306093 0.64643,0.680206 l 0.25861,0.680206 0.69656,-0.547914 c 0.78356,-0.616351 1.41715,-0.713081 1.42256,-0.217185 0.002,0.181901 0.0754,0.598619 0.16315,0.926041 0.12867,0.480107 0.0512,0.595313 -0.40049,0.595313 -0.65269,0 -0.73811,0.581159 -0.15637,1.063953 0.33035,0.274172 0.57362,0.244024 1.33981,-0.16604 0.88673,-0.474579 0.94995,-0.476586 1.197,-0.03802 0.16087,0.285571 0.57571,0.463021 1.08244,0.463021 0.7755,0 0.79734,0.02682 0.38909,0.477939 -0.39189,0.433027 -0.3941,0.53281 -0.0235,1.061875 0.22496,0.321166 0.90716,0.83406 1.516,1.139766 1.51803,0.762212 5.47262,3.421908 5.47262,3.680662 0,0.496488 -5.17935,1.155891 -15.47812,1.970581 -9.49093,0.750784 -17.76155,0.994272 -25.53229,0.751672 z m 16.02154,-13.868048 c 0.0978,-0.158201 0.0581,-0.407356 -0.0883,-0.553678 -0.32837,-0.328379 -1.47212,0.215529 -1.24068,0.590007 0.21169,0.342528 1.10999,0.317972 1.32896,-0.03633 z"
         id="path6095" />
      <path
         style="fill:#926957;stroke-width:1.14371"
         d="m -219.07499,-13.142499 c -7.10552,-0.221831 -22.53777,-1.352755 -26.40439,-1.934997 -3.61937,-0.54501 -3.56235,-0.528065 -3.20912,-0.953675 0.48263,-0.58154 4.97504,-3.314523 6.25186,-3.803363 1.40499,-0.537906 1.55548,-0.695178 1.14195,-1.193441 -0.28498,-0.343379 -0.23444,-0.403269 0.34028,-0.403269 0.37122,0 0.83784,-0.162885 1.03692,-0.361968 0.19908,-0.199082 0.62431,-0.445231 0.94494,-0.546996 0.69636,-0.221017 0.72506,-0.4803 0.15026,-1.35756 -0.52119,-0.795441 -0.3467,-1.061021 0.42557,-0.647715 0.31257,0.167283 0.91682,0.226876 1.34558,0.132706 0.48618,-0.106784 0.77823,-0.06375 0.77823,0.114677 0,0.456755 0.45192,0.329647 0.63077,-0.177414 0.0898,-0.254662 0.23326,-0.613543 0.31875,-0.797515 0.0977,-0.210291 -0.22165,-0.493546 -0.86007,-0.762845 -1.06978,-0.451253 -1.0465,-0.494803 0.53453,-0.999923 0.46756,-0.14938 0.46959,-0.190795 0.0415,-0.844135 -0.31645,-0.482966 -0.36705,-0.770164 -0.17035,-0.966863 0.1967,-0.1967 0.55141,0.0167 1.19415,0.718402 0.88749,0.968919 1.48571,1.06627 1.48571,0.241778 0,-0.22182 0.14883,-0.352711 0.33073,-0.29087 0.1819,0.06184 0.33073,0.448296 0.33073,0.858789 0,0.764273 0.47656,1.173591 0.78512,0.674336 0.0947,-0.153203 0.52465,-0.27855 0.95549,-0.27855 0.7685,0 0.78124,-0.02257 0.67212,-1.190625 -0.11653,-1.247392 0.0326,-1.387349 0.95326,-0.894624 0.46057,0.246488 0.62532,0.200237 0.98493,-0.276503 0.54402,-0.721228 0.80845,-0.467983 0.80845,0.774252 0,1.266828 0.22662,1.450827 0.94994,0.771299 l 0.59232,-0.556457 0.29652,0.554037 c 0.2967,0.554387 1.07164,0.774638 1.07164,0.304578 0,-0.448279 -1.07328,-2.080912 -1.4674,-2.23215 -0.67474,-0.25892 -0.41322,-0.69339 0.41737,-0.69339 0.97516,0 1.24853,-0.553194 0.67675,-1.369517 -0.70938,-1.012789 -0.54071,-1.377259 0.38447,-0.830744 0.70353,0.415585 0.83635,0.425803 1.05428,0.0811 0.13714,-0.216912 0.25117,-0.602744 0.2534,-0.857406 0.002,-0.254661 0.10853,-0.463021 0.23623,-0.463021 0.40985,0 0.80975,0.675024 1.03113,1.740512 0.24248,1.167092 0.59468,1.325685 0.98224,0.442301 0.34747,-0.791995 0.88222,-0.753982 1.20135,0.0854 0.30429,0.800337 1.18301,0.786561 1.18383,-0.01856 3.9e-4,-0.37649 0.18277,-0.521203 0.66146,-0.524839 0.551,-0.0042 0.67472,-0.148047 0.74384,-0.864916 0.0951,-0.985843 0.20978,-1.036193 0.91234,-0.400387 0.4821,0.436289 0.52473,0.436289 0.84375,0 0.4658,-0.637015 0.67454,-0.57452 0.67454,0.20195 0,0.411574 0.14993,0.661458 0.39688,0.661458 0.21828,0 0.39687,-0.164707 0.39687,-0.366016 0,-0.201309 0.2459,-0.43032 0.54644,-0.508912 0.52583,-0.137508 0.53008,-0.174518 0.11278,-0.981489 -0.45513,-0.880134 -0.34246,-1.37224 0.19186,-0.837923 0.60937,0.609372 1.22723,0.362021 1.31497,-0.52643 0.12482,-1.263841 0.70057,-1.247395 0.90416,0.02583 0.17424,1.089636 0.53306,1.337928 1.1058,0.765186 0.49671,-0.496709 0.71066,-0.01643 0.31884,0.71571 -0.47449,0.886582 -0.0487,1.372782 0.80309,0.916943 0.57332,-0.306835 0.58657,-0.286732 0.41473,0.629259 -0.16498,0.879427 -0.12541,0.957228 0.56064,1.10218 0.40598,0.08578 0.93636,0.2625 1.17861,0.392714 0.54433,0.292584 0.88642,-0.08662 1.13751,-1.260903 0.21684,-1.014079 0.67099,-1.14839 0.67099,-0.198438 0,0.430992 0.14806,0.661459 0.42494,0.661459 0.23372,0 0.65908,-0.297656 0.94525,-0.661459 0.73034,-0.928486 1.23021,-0.852158 1.18236,0.180544 -0.0321,0.693294 0.0775,0.87057 0.62091,1.003754 0.61629,0.151055 0.58434,0.191993 -0.4831,0.6191 -1.49163,0.596829 -1.32649,1.128734 0.3235,1.04199 0.89801,-0.04721 1.27855,0.04341 1.3888,0.330729 0.2093,0.545415 0.61639,0.495549 1.31539,-0.161128 0.6834,-0.642022 1.17651,-0.485189 0.96904,0.308198 -0.10449,0.399549 0.007,0.583636 0.41918,0.69139 0.43902,0.114808 0.527,0.284611 0.40313,0.778118 -0.14444,0.575505 -0.0764,0.631263 0.77041,0.631263 0.79417,0 0.96896,-0.115086 1.20554,-0.793749 0.31851,-0.913656 0.50644,-0.976562 0.98807,-0.33073 0.3196,0.428567 0.40434,0.399034 1.13873,-0.396875 0.43639,-0.472942 0.9818,-0.859895 1.21202,-0.859895 0.37582,0 0.37842,0.07767 0.0255,0.760205 -0.46009,0.889714 -0.33267,1.091878 0.68821,1.091878 1.07019,0 0.92602,0.379618 -0.33183,0.873716 -1.01981,0.400589 -1.22742,0.978367 -0.35157,0.978367 0.2133,0 0.50419,0.306093 0.64643,0.680206 l 0.25861,0.680206 0.69656,-0.547914 c 0.78356,-0.616351 1.41715,-0.713081 1.42256,-0.217185 0.002,0.181901 0.0754,0.598619 0.16315,0.926041 0.12867,0.480107 0.0512,0.595313 -0.40049,0.595313 -0.65269,0 -0.73811,0.581159 -0.15637,1.063953 0.33035,0.274172 0.57362,0.244024 1.33981,-0.16604 0.88673,-0.474579 0.94995,-0.476586 1.197,-0.03802 0.16087,0.285571 0.57571,0.463021 1.08244,0.463021 0.7755,0 0.79734,0.02682 0.38909,0.477939 -0.39189,0.433027 -0.3941,0.53281 -0.0235,1.061875 0.22496,0.321166 0.90716,0.83406 1.516,1.139766 1.51803,0.762212 5.47262,3.421908 5.47262,3.680662 0,0.496488 -5.17935,1.155891 -15.47812,1.970581 -9.49093,0.750784 -17.76155,0.994272 -25.53229,0.751672 z m 16.02154,-13.868048 c 0.0978,-0.158201 0.0581,-0.407356 -0.0883,-0.553678 -0.32837,-0.328379 -1.47212,0.215529 -1.24068,0.590007 0.21169,0.342528 1.10999,0.317972 1.32896,-0.03633 z"
         id="path6050" />
      <path
         style="fill:#6e8a37;stroke-width:1.14371"
         d="m -224.23437,-13.529181 c -8.9563,-0.41519 -23.49291,-1.770723 -24.2932,-2.265332 -0.30326,-0.187425 2.03613,-1.731354 4.80559,-3.171544 2.75124,-1.430718 2.86868,-1.530082 2.43129,-2.057098 -0.29013,-0.349592 -0.24193,-0.408089 0.33628,-0.408089 0.37122,0 0.83784,-0.162885 1.03692,-0.361968 0.19908,-0.199082 0.62431,-0.445231 0.94494,-0.546996 0.69636,-0.221017 0.72506,-0.4803 0.15026,-1.35756 -0.52119,-0.795441 -0.3467,-1.061021 0.42557,-0.647715 0.31257,0.167283 0.91682,0.226876 1.34558,0.132706 0.48618,-0.106784 0.77823,-0.06375 0.77823,0.114677 0,0.456755 0.45192,0.329647 0.63077,-0.177414 0.0898,-0.254662 0.23326,-0.613543 0.31875,-0.797515 0.0977,-0.210291 -0.22165,-0.493546 -0.86007,-0.762845 -1.06978,-0.451253 -1.0465,-0.494803 0.53453,-0.999923 0.46756,-0.14938 0.46959,-0.190795 0.0415,-0.844135 -0.31645,-0.482966 -0.36705,-0.770164 -0.17035,-0.966863 0.1967,-0.1967 0.55141,0.0167 1.19415,0.718402 0.88749,0.968919 1.48571,1.06627 1.48571,0.241778 0,-0.22182 0.14883,-0.352711 0.33073,-0.29087 0.1819,0.06184 0.33073,0.448296 0.33073,0.858789 0,0.764273 0.47656,1.173591 0.78512,0.674336 0.0947,-0.153203 0.52465,-0.27855 0.95549,-0.27855 0.7685,0 0.78124,-0.02257 0.67212,-1.190625 -0.11653,-1.247392 0.0326,-1.387349 0.95326,-0.894624 0.46057,0.246488 0.62532,0.200237 0.98493,-0.276503 0.54402,-0.721228 0.80845,-0.467983 0.80845,0.774252 0,1.266828 0.22662,1.450827 0.94994,0.771299 l 0.59232,-0.556457 0.29652,0.554037 c 0.2967,0.554387 1.07164,0.774638 1.07164,0.304578 0,-0.448279 -1.07328,-2.080912 -1.4674,-2.23215 -0.67474,-0.25892 -0.41322,-0.69339 0.41737,-0.69339 0.97516,0 1.24853,-0.553194 0.67675,-1.369517 -0.70938,-1.012789 -0.54071,-1.377259 0.38447,-0.830744 0.70353,0.415585 0.83635,0.425803 1.05428,0.0811 0.13714,-0.216912 0.25117,-0.602744 0.2534,-0.857406 0.01,-1.138191 0.95666,-0.217898 1.25551,1.220489 0.23794,1.145188 0.62535,1.339777 0.99409,0.499303 0.34747,-0.791995 0.88222,-0.753982 1.20135,0.0854 0.30429,0.800337 1.18301,0.786561 1.18383,-0.01856 3.9e-4,-0.37649 0.18277,-0.521203 0.66146,-0.524839 0.551,-0.0042 0.67472,-0.148047 0.74384,-0.864916 0.0951,-0.985843 0.20978,-1.036193 0.91234,-0.400387 0.4821,0.436289 0.52473,0.436289 0.84375,0 0.4658,-0.637015 0.67454,-0.57452 0.67454,0.20195 0,0.411574 0.14993,0.661458 0.39688,0.661458 0.21828,0 0.39687,-0.164707 0.39687,-0.366016 0,-0.201309 0.2459,-0.43032 0.54644,-0.508912 0.52583,-0.137508 0.53008,-0.174518 0.11278,-0.981489 -0.45513,-0.880134 -0.34246,-1.37224 0.19186,-0.837923 0.60937,0.609372 1.22723,0.362021 1.31497,-0.52643 0.12482,-1.263841 0.70057,-1.247395 0.90416,0.02583 0.17424,1.089636 0.53306,1.337928 1.1058,0.765186 0.49671,-0.496709 0.71066,-0.01643 0.31884,0.71571 -0.47449,0.886582 -0.0487,1.372782 0.80309,0.916943 0.57332,-0.306835 0.58657,-0.286732 0.41473,0.629259 -0.16498,0.879427 -0.12541,0.957228 0.56064,1.10218 0.40598,0.08578 0.93636,0.2625 1.17861,0.392714 0.54433,0.292584 0.88642,-0.08662 1.13751,-1.260903 0.21684,-1.014079 0.67099,-1.14839 0.67099,-0.198438 0,0.430992 0.14806,0.661459 0.42494,0.661459 0.23372,0 0.65908,-0.297656 0.94525,-0.661459 0.73034,-0.928486 1.23021,-0.852158 1.18236,0.180544 -0.0321,0.693294 0.0775,0.87057 0.62091,1.003754 0.61629,0.151055 0.58434,0.191993 -0.4831,0.6191 -1.49163,0.596829 -1.32649,1.128734 0.3235,1.04199 0.89801,-0.04721 1.27855,0.04341 1.3888,0.330729 0.2093,0.545415 0.61639,0.495549 1.31539,-0.161128 0.6834,-0.642022 1.17651,-0.485189 0.96904,0.308198 -0.10449,0.399549 0.007,0.583636 0.41918,0.69139 0.43902,0.114808 0.527,0.284611 0.40313,0.778118 -0.14444,0.575505 -0.0764,0.631263 0.77041,0.631263 0.79417,0 0.96896,-0.115086 1.20554,-0.793749 0.31851,-0.913656 0.50644,-0.976562 0.98807,-0.33073 0.3196,0.428567 0.40434,0.399034 1.13873,-0.396875 0.43639,-0.472942 0.9818,-0.859895 1.21202,-0.859895 0.37582,0 0.37842,0.07767 0.0255,0.760205 -0.46009,0.889714 -0.33267,1.091878 0.68821,1.091878 1.07019,0 0.92602,0.379618 -0.33183,0.873716 -1.01981,0.400589 -1.22742,0.978367 -0.35157,0.978367 0.2133,0 0.50419,0.306093 0.64643,0.680206 l 0.25861,0.680206 0.69656,-0.547914 c 0.78356,-0.616351 1.41715,-0.713081 1.42256,-0.217185 0.002,0.181901 0.0754,0.598619 0.16315,0.926041 0.12867,0.480107 0.0512,0.595313 -0.40049,0.595313 -0.65269,0 -0.73811,0.581159 -0.15637,1.063953 0.33035,0.274172 0.57362,0.244024 1.33981,-0.16604 0.88673,-0.474579 0.94995,-0.476586 1.197,-0.03802 0.16251,0.288483 0.57646,0.463021 1.09813,0.463021 0.7822,0 0.80822,0.02908 0.39538,0.441921 -0.40888,0.408878 -0.40985,0.496216 -0.013,1.168079 0.23593,0.399387 0.72545,0.861251 1.08783,1.026363 1.49492,0.681128 5.61854,3.540018 5.40872,3.749839 -0.37639,0.37639 -5.12394,0.982078 -12.10818,1.544752 -13.00074,1.047385 -22.73021,1.26885 -33.60208,0.764859 z m 21.18092,-13.481366 c 0.0978,-0.158201 0.0581,-0.407356 -0.0883,-0.553678 -0.32837,-0.328379 -1.47212,0.215529 -1.24068,0.590007 0.21169,0.342528 1.10999,0.317972 1.32896,-0.03633 z"
         id="path5999" />
      <path
         style="fill:#695230;stroke-width:1.14371"
         d="m -218.45261,-28.058354 c -0.31253,-0.118237 -0.64359,-0.336907 -0.7357,-0.485933 -0.23563,-0.381262 0.11856,-1.646197 0.41044,-1.465807 0.13237,0.08181 0.16,0.279287 0.0614,0.438838 -0.0986,0.159551 0.15048,0.55304 0.55353,0.87442 0.79131,0.630973 0.63006,0.986429 -0.28966,0.638482 z"
         id="path5952" />
      <path
         style="fill:#695230;stroke-width:1.14371"
         d="m -220.13333,-24.962472 c 0,-0.518489 0.79251,-2.025025 1.06527,-2.025025 0.12801,0 0.53601,0.138174 0.90666,0.307053 0.66511,0.303044 0.93981,1.015864 0.39149,1.015864 -0.16588,0 -0.21013,0.22772 -0.10725,0.551875 0.15859,0.499678 0.12005,0.522384 -0.40745,0.240072 -0.42134,-0.225493 -0.66264,-0.231779 -0.87171,-0.02271 -0.40141,0.401414 -0.97701,0.361864 -0.97701,-0.06713 z"
         id="path5948" />
      <path
         style="fill:#695230;stroke-width:1.14371"
         d="m -224.01825,-24.240902 c -1.32331,-0.626137 -2.72966,-0.663273 -2.72966,-0.07208 0,0.129745 -0.11906,0.2359 -0.26458,0.2359 -0.55396,0 -0.22349,-1.487123 0.52916,-2.38125 0.69957,-0.831069 0.78025,-0.866589 0.78664,-0.346344 0.009,0.707545 0.42393,1.020756 0.63254,0.477116 0.17905,-0.466587 1.11357,-0.527797 1.38376,-0.09063 0.10358,0.167597 -0.009,0.449188 -0.25072,0.625758 -0.39063,0.285635 -0.31485,0.425775 0.68718,1.270888 1.31438,1.108535 1.12242,1.178107 -0.77432,0.280644 z"
         id="path5946" />
      <path
         style="fill:#695230;stroke-width:1.14371"
         d="m -195.9901,-23.31378 c 0.92746,-0.691958 0.92081,-1.103526 -0.0236,-1.459992 -0.62476,-0.235821 -0.94759,-0.180802 -1.91823,0.326912 -1.4985,0.783822 -2.26212,0.810399 -0.99694,0.0347 0.53013,-0.325028 1.29495,-0.826565 1.69961,-1.114527 0.52383,-0.372763 0.76696,-0.429919 0.84412,-0.198437 0.0596,0.178821 0.38338,0.325129 0.71948,0.325129 0.33611,0 0.67964,0.178594 0.7634,0.396875 0.0956,0.249104 0.50019,0.396875 1.08664,0.396875 0.66725,0 0.93435,0.117151 0.93435,0.409811 0,0.507338 -1.96917,1.431557 -3.04271,1.42808 l -0.79375,-0.0026 z"
         id="path5945" />
      <path
         style="fill:#695230;stroke-width:1.14371"
         d="m -220.45675,-22.494982 c -0.57326,-0.90575 -0.87763,-1.966112 -0.49679,-1.730742 0.4253,0.262852 1.13506,1.71766 1.01447,2.079408 -0.0564,0.169064 -0.28931,0.01216 -0.51768,-0.348666 z"
         id="path5942" />
      <path
         style="fill:#695230;stroke-width:1.14371"
         d="m -214.42,-19.808902 c -0.62293,-0.135392 -0.6983,-0.223396 -0.39688,-0.463381 0.20465,-0.162937 0.81692,-0.439514 1.3606,-0.614616 1.17578,-0.378684 1.42271,-0.691495 0.97331,-1.232989 -0.24375,-0.293693 -0.60302,-0.355212 -1.34367,-0.230081 l -1.01096,0.170801 0.16753,-0.882809 c 0.0921,-0.485544 0.27061,-1.084811 0.39659,-1.331703 0.16304,-0.31951 0.0954,-0.523715 -0.23478,-0.708478 -0.41395,-0.23166 -0.4258,-0.354142 -0.11011,-1.138606 0.19456,-0.483461 0.61087,-1.920297 0.92512,-3.192968 0.31426,-1.27267 0.66068,-2.314467 0.76982,-2.315104 0.10914,-6.36e-4 0.19844,0.534624 0.19844,1.189468 0,1.392811 0.27631,1.495114 1.06117,0.392882 0.79404,-1.115121 1.9579,-1.685575 2.6659,-1.306663 0.33299,0.17821 0.48704,0.449955 0.3934,0.693974 -0.0997,0.25972 0.0379,0.451217 0.39023,0.543364 0.37162,0.09718 0.51877,0.320113 0.46412,0.703119 -0.0612,0.428964 -0.26666,0.560824 -0.87378,0.560824 -0.71015,0 -0.78479,0.07664 -0.70867,0.727604 0.0783,0.669467 0.0122,0.727604 -0.82682,0.727604 -1.4545,0 -2.56555,0.300777 -2.56555,0.694531 0,0.200091 0.23812,0.363802 0.52916,0.363802 0.73085,0 0.66283,0.383327 -0.13229,0.745608 -0.787,0.358582 -0.84347,0.725863 -0.16724,1.087769 0.27182,0.145473 0.56458,0.616336 0.65059,1.046363 0.0934,0.467144 0.37375,0.850861 0.69641,0.953268 0.75906,0.240919 0.67677,0.533681 -0.37563,1.336392 -0.50362,0.384128 -0.9879,0.925968 -1.07617,1.20409 -0.16467,0.518846 -0.48133,0.566859 -1.81984,0.275935 z m 4.2968,-9.654091 c 0.15275,-0.800932 -0.45046,-1.191612 -0.89981,-0.582785 -0.20849,0.282475 -0.37907,0.677709 -0.37907,0.878298 0,0.553193 1.16852,0.283182 1.27888,-0.295513 z"
         id="path5941" />
      <path
         style="fill:#695230;stroke-width:1.14371"
         d="m -220.86726,-19.261846 c -0.44177,-0.936098 -0.43761,-2.058524 0.006,-1.709858 0.1819,0.142862 0.70434,0.330389 1.16097,0.416726 1.15872,0.219083 1.90581,-0.574325 1.4607,-1.551248 -0.41494,-0.910696 -0.38544,-1.263983 0.0903,-1.081421 0.24175,0.09277 0.39687,4.19e-4 0.39687,-0.236276 0,-0.570456 0.18142,-0.489374 1.21287,0.542074 l 0.93064,0.930644 -0.81456,0.458418 c -0.44801,0.25213 -0.88368,0.726309 -0.96815,1.053731 -0.11351,0.439995 -0.34789,0.595312 -0.89835,0.595312 -0.40962,0 -1.08417,0.285591 -1.499,0.634647 l -0.75423,0.634647 z"
         id="path5939" />
      <path
         style="fill:#695230;stroke-width:1.14371"
         d="m -224.23437,-13.529181 c -8.97804,-0.416198 -23.49312,-1.770855 -24.29681,-2.267563 -0.52723,-0.325845 5.96395,-4.047 7.05959,-4.047 0.4195,0 0.67421,0.132744 0.63462,0.330729 -0.0437,0.218756 0.29217,0.335428 0.99219,0.344609 0.58208,0.0076 1.2738,0.112396 1.53714,0.232806 0.34677,0.158552 0.67512,0.03595 1.19063,-0.444572 0.39149,-0.364924 0.97527,-0.798925 1.29727,-0.964446 0.38514,-0.197979 0.52918,-0.447603 0.42098,-0.729578 -0.14192,-0.369841 0.80037,0.04532 2.49929,1.10115 0.0364,0.02261 -0.37042,0.47767 -0.904,1.011247 l -0.97013,0.970138 h 0.72295 c 0.39762,0 0.95638,0.124933 1.2417,0.277629 0.40705,0.217847 0.69154,0.154594 1.32117,-0.293746 0.77738,-0.553542 0.81371,-0.556014 1.16399,-0.07919 0.34712,0.472511 0.39144,0.464652 1.10883,-0.196635 0.41099,-0.37885 0.95562,-0.762066 1.21028,-0.851592 0.25466,-0.08952 0.46302,-0.390191 0.46302,-0.668145 0,-0.65211 -1.17882,-1.144286 -2.54731,-1.06354 -0.5776,0.03408 -1.19356,-0.02665 -1.36882,-0.134964 -0.45926,-0.283839 0.10132,-1.23132 0.68196,-1.152647 0.82574,0.11188 0.73744,-0.459566 -0.13354,-0.864252 -0.46979,-0.218281 -0.85675,-0.480424 -0.8599,-0.58254 -0.0123,-0.397543 1.68409,0.554507 3.08158,1.729486 1.53102,1.287248 1.79884,1.411815 2.07495,0.965064 0.10193,-0.164923 0.42934,-0.06241 0.84505,0.264583 0.80823,0.635759 1.13645,0.675311 1.13645,0.136949 0,-0.218281 0.0595,-0.396875 0.13229,-0.396875 0.25059,0 1.23451,1.102644 1.10208,1.235071 -0.0729,0.07295 -0.81725,0.152327 -1.65399,0.176388 -0.94842,0.02727 -1.56273,0.168298 -1.63125,0.374478 -0.0635,0.191031 0.11379,0.330729 0.41968,0.330729 0.29126,0 0.73465,0.0787 0.9853,0.17488 0.38717,0.148569 0.32076,0.286823 -0.44138,0.918924 l -0.89711,0.744045 0.80698,0.0071 c 0.44384,0.0039 0.94704,0.147179 1.11823,0.318366 0.23861,0.238609 0.43966,0.195038 0.86147,-0.186693 0.46747,-0.423057 0.63179,-0.446998 1.09264,-0.159194 0.46535,0.290617 0.62581,0.260409 1.1293,-0.212601 0.6581,-0.618246 0.94451,-0.489785 0.94451,0.423629 0,0.868941 0.87649,0.806399 1.54417,-0.110186 l 0.52998,-0.727546 0.63362,0.595255 c 1.06612,1.001563 1.67637,0.776419 1.53322,-0.565662 -0.0775,-0.726315 0.45042,-0.947139 2.27505,-0.951699 1.11698,-0.0028 1.72294,0.118485 1.94821,0.38991 0.17982,0.216679 0.43322,0.328286 0.5631,0.248016 0.12988,-0.08027 0.65696,0.0062 1.17129,0.192204 0.73739,0.266643 1.04403,0.270146 1.45007,0.01657 0.28322,-0.17687 0.69073,-0.321583 0.90558,-0.321583 0.21485,0 0.87131,-0.500234 1.4588,-1.111632 1.2316,-1.281731 1.37392,-2.213727 0.52097,-3.411586 -0.61402,-0.862322 -1.62438,-1.010276 -2.47995,-0.363158 -1.0472,0.792068 -1.26772,0.388408 -0.34548,-0.632407 0.50726,-0.561476 0.9837,-1.186554 1.05876,-1.389062 0.10901,-0.294117 0.20912,-0.274353 0.49756,0.09823 0.34181,0.441523 0.40684,0.434459 1.21804,-0.132292 0.47132,-0.329295 0.80075,-0.752053 0.73206,-0.939463 -0.18704,-0.510338 0.59876,-0.698115 1.39783,-0.334032 0.62337,0.284023 0.75989,0.25199 1.19004,-0.279218 0.30808,-0.380465 0.42967,-0.824018 0.33227,-1.212089 -0.12747,-0.50788 -0.0492,-0.612041 0.45997,-0.612041 0.33747,0 0.75142,-0.137829 0.91987,-0.306287 0.232,-0.231993 0.40528,-0.224135 0.71438,0.0324 0.60685,0.503641 0.49951,0.899544 -0.38566,1.422427 -0.43657,0.257884 -0.79375,0.581211 -0.79375,0.718505 0,0.462179 0.74723,0.254606 1.5672,-0.435354 0.44772,-0.376738 0.81405,-0.565336 0.81405,-0.419107 0,0.3658 -1.87295,1.818271 -2.79832,2.170097 -0.62799,0.238761 -0.81442,0.210728 -1.08815,-0.16362 -0.28193,-0.385556 -0.39382,-0.399048 -0.76369,-0.09209 -0.23835,0.197813 -0.67687,0.483371 -0.97449,0.634573 -0.85197,0.432835 -1.17829,1.117641 -0.79292,1.663975 0.17964,0.254662 0.58061,0.939271 0.89107,1.521355 0.73394,1.376109 0.68598,1.343243 1.23508,0.846315 0.88692,-0.802652 2.48147,-1.304084 3.58555,-1.127535 0.5728,0.09159 1.45634,0.02961 1.96343,-0.137746 0.71133,-0.23476 0.96747,-0.23068 1.12107,0.01786 0.12471,0.201781 0.73079,0.299912 1.62221,0.262648 0.78271,-0.03272 1.57194,-0.04472 1.75384,-0.02666 0.51531,0.05115 0.38933,0.454985 -0.22785,0.73038 -0.50804,0.226693 -0.41117,0.340241 1.07041,1.254728 1.71402,1.057953 2.6864,1.147235 2.08977,0.191876 -0.25234,-0.404066 -0.25049,-0.598406 0.009,-0.910688 0.26903,-0.324161 0.24334,-0.44521 -0.14002,-0.659748 -0.43391,-0.24283 -0.41998,-0.303949 0.18377,-0.806305 0.89358,-0.743518 1.00178,-0.702829 0.9715,0.365344 -0.0325,1.145738 0.15678,1.338854 1.72046,1.755564 1.12138,0.298841 1.29915,0.282705 1.79119,-0.162584 0.53483,-0.48401 0.56967,-0.481442 1.66548,0.122738 2.58088,1.422988 6.0292,3.798421 5.81906,4.008559 -0.37639,0.37639 -5.12394,0.982078 -12.10818,1.544752 -13.00074,1.047385 -22.73021,1.26885 -33.60208,0.764859 z m 25.53229,-3.948928 c 0,-0.977404 0.49965,-1.006629 1.30837,-0.07653 0.54353,0.625116 0.63712,0.653214 0.85844,0.257723 0.20213,-0.361179 0.50406,-0.414826 1.62049,-0.287927 l 1.37208,0.155956 -0.73776,-0.630155 c -0.47025,-0.401662 -0.67917,-0.782839 -0.57618,-1.051236 0.10796,-0.28135 -0.024,-0.479992 -0.39778,-0.598613 -0.40615,-0.128908 -0.51478,-0.317988 -0.3966,-0.690336 0.15786,-0.497374 0.13456,-0.499356 -0.77444,-0.06588 -0.8159,0.389076 -1.07354,0.401926 -1.99056,0.09928 -0.69215,-0.228432 -1.57956,-0.287042 -2.58793,-0.170923 -1.64667,0.189621 -4.38625,1.396268 -4.23215,1.864048 0.0515,0.156289 0.70634,0.346723 1.45524,0.423186 0.74889,0.07646 1.50742,0.284823 1.68562,0.463021 0.47267,0.472667 0.74733,0.397262 0.74733,-0.20517 0,-0.347414 -0.17639,-0.529166 -0.51355,-0.529166 -0.72375,0 -0.92248,-0.457606 -0.28641,-0.659488 0.56997,-0.180901 1.15093,0.04108 0.9516,0.363601 -0.19121,0.309382 1.912,2.476557 2.2192,2.286696 0.15125,-0.09348 0.27499,-0.520117 0.27499,-0.948091 z"
         id="path5937" />
      <path
         style="fill:#523a26;stroke-width:1.14371"
         d="m -214.1952,-26.252616 c 0.22653,-0.323421 0.41724,-0.948499 0.42381,-1.389062 0.014,-0.9408 0.72559,-2.701233 0.76032,-1.881031 0.0118,0.279122 -0.10979,1.261387 -0.27025,2.182813 -0.24141,1.386262 -0.38095,1.675318 -0.80875,1.675318 -0.48142,0 -0.48866,-0.04048 -0.10513,-0.588038 z"
         id="path5873" />
      <path
         style="fill:#523a26;stroke-width:1.14371"
         d="m -214.31249,-22.793749 c 0,-0.361525 1.23596,-0.844144 1.70292,-0.664957 0.82536,0.316721 0.43537,0.845229 -0.64459,0.873546 -0.58208,0.01526 -1.05833,-0.0786 -1.05833,-0.208589 z"
         id="path5872" />
      <path
         style="fill:#523a26;stroke-width:1.14371"
         d="m -198.27243,-21.044385 c -0.0904,-0.235578 0.0162,-0.473017 0.25314,-0.563949 0.52807,-0.202638 1.77865,0.362455 1.56548,0.707381 -0.25916,0.419324 -1.6446,0.310056 -1.81862,-0.143432 z"
         id="path5871" />
      <path
         style="fill:#523a26;stroke-width:1.14371"
         d="m -236.17919,-18.648021 c 0.094,-0.244889 0.17086,-0.554578 0.17086,-0.688197 0,-0.133619 0.29766,-0.242944 0.66146,-0.242944 0.90717,0 0.82977,0.42854 -0.17086,0.945986 -0.77551,0.401032 -0.82065,0.400019 -0.66146,-0.01484 z"
         id="path5870" />
      <path
         style="fill:#523a26;stroke-width:1.14371"
         d="m -235.44785,-16.850429 c -0.34702,-0.25446 -0.22757,-0.285173 0.63015,-0.162024 0.58208,0.08357 1.55475,0.162465 2.16148,0.175313 0.60674,0.01285 1.04376,0.119463 0.97117,0.23692 -0.1962,0.317447 -3.26715,0.113241 -3.7628,-0.250209 z"
         id="path5869" />
      <path
         style="fill:#523a26;stroke-width:1.14371"
         d="m -243.94583,-15.341867 c -0.65484,-0.10911 -1.90441,-0.285912 -2.77681,-0.392894 l -1.58618,-0.194511 0.99872,-0.512378 c 1.16015,-0.595193 4.95177,-0.859032 4.95177,-0.344568 0,0.567289 0.94831,1.394618 1.73099,1.510161 0.4304,0.06354 0.12771,0.119361 -0.67265,0.124049 -0.80037,0.0047 -1.99099,-0.08075 -2.64584,-0.189859 z"
         id="path5868" />
      <path
         style="fill:#523a26;stroke-width:1.14371"
         d="m -237.9927,-14.786494 -1.5875,-0.134358 1.5875,-0.146342 c 1.4092,-0.129907 1.59729,-0.215476 1.6747,-0.761884 0.0649,-0.457946 0.20035,-0.568806 0.52916,-0.433003 0.24309,0.100396 0.65993,0.244958 0.92632,0.321249 0.31075,0.08899 0.43954,0.310063 0.35933,0.616786 -0.0869,0.332255 0.0478,0.511907 0.44169,0.58899 0.76967,0.150635 -1.96665,0.114832 -3.9312,-0.05144 z"
         id="path5866" />
      <path
         style="fill:#523a26;stroke-width:1.14371"
         d="m -204.68324,-13.953341 1.0303,-0.106058 -0.69816,-0.362208 c -0.38398,-0.199214 -1.23457,-0.442648 -1.89019,-0.540965 -0.65562,-0.09832 -1.19204,-0.2843 -1.19204,-0.413298 0,-0.128998 -0.20836,-0.242089 -0.46302,-0.251313 -0.37496,-0.01358 -0.35679,-0.05969 0.0955,-0.242443 0.30718,-0.124119 0.63087,-0.414228 0.7193,-0.644687 0.0884,-0.230458 0.38808,-0.419015 0.66587,-0.419015 0.27779,0 0.65329,-0.178594 0.83445,-0.396875 0.20827,-0.250958 0.79194,-0.396875 1.5875,-0.396875 0.79555,0 1.37922,0.145917 1.5875,0.396875 0.38215,0.460467 1.32291,0.534645 1.32291,0.10431 0,-0.16091 0.34543,0.07722 0.76761,0.529167 0.95628,1.023695 1.79598,1.072515 2.15609,0.125354 0.24776,-0.651672 0.29539,-0.668657 0.74188,-0.264584 0.60599,0.548413 1.36151,0.557896 1.36151,0.01709 0,-0.269843 0.16174,-0.367689 0.46302,-0.280109 0.47262,0.137387 1.78557,0.244178 2.38125,0.193683 0.59752,-0.05065 0.35697,-1.085758 -0.32449,-1.39625 -0.45543,-0.207506 -0.63962,-0.487009 -0.60406,-0.916639 0.051,-0.616157 0.0537,-0.615616 0.86625,0.171917 0.69757,0.676107 1.01833,0.790019 2.22463,0.790019 h 1.40954 l -0.15946,-0.797309 c -0.17735,-0.886748 -0.0783,-0.892629 2.11695,-0.125737 0.86873,0.303479 1.09714,0.299691 1.54824,-0.02567 0.29104,-0.20992 0.66101,-0.445741 0.82214,-0.524046 0.30766,-0.14951 2.70285,1.147627 5.08026,2.751265 1.17345,0.791524 1.32338,0.977371 0.91147,1.129749 -0.79622,0.294539 -7.01263,1.001488 -11.44408,1.301453 -2.25557,0.15268 -5.58932,0.388842 -7.40833,0.524804 -3.1382,0.234565 -8.69131,0.292907 -6.51033,0.0684 z"
         id="path5865" />
      <path
         style="fill:#523a26;stroke-width:1.14371"
         d="m -222.64687,-13.772966 c -4.25043,-0.234318 -4.04846,-0.204711 -3.57187,-0.523608 0.34351,-0.229856 0.32782,-0.318242 -0.11672,-0.657406 -0.28247,-0.215516 -0.89781,-0.391847 -1.36742,-0.391847 -1.11712,0 -1.69086,-0.23405 -1.69086,-0.689766 0,-0.202712 -0.26789,-0.377967 -0.59532,-0.389456 -0.56871,-0.01995 -0.56525,-0.03194 0.0775,-0.26836 0.37003,-0.13611 0.88899,-0.613464 1.15323,-1.060787 0.36939,-0.625339 0.61138,-0.778179 1.047,-0.661294 0.31161,0.08361 0.86422,0.157928 1.22802,0.165148 l 0.66146,0.01313 -0.76579,0.626189 c -0.99696,0.815211 -0.79767,1.595381 0.34351,1.344736 0.44107,-0.09688 0.84256,-0.04947 0.94187,0.111221 0.2565,0.41501 0.96012,0.339915 1.51431,-0.161616 0.4553,-0.41204 0.50998,-0.412112 0.81458,-0.0011 0.28948,0.390635 0.4078,0.398147 1.04309,0.06623 0.65415,-0.341767 0.73061,-0.330148 0.87773,0.133368 0.25392,0.800047 1.26008,0.759372 2.17324,-0.08786 0.555,-0.514922 0.62338,-0.521852 1.07917,-0.109365 0.97422,0.881657 2.44338,0.15144 2.0032,-0.99565 -0.13237,-0.344968 0.0719,-0.416042 1.19574,-0.416042 1.88348,0 3.34085,0.511689 4.31419,1.514734 0.7366,0.75908 0.7944,0.927026 0.52361,1.521354 -0.16742,0.367443 -0.51531,0.685961 -0.77309,0.707817 -0.25778,0.02186 0.0671,0.123036 0.72193,0.224844 1.55734,0.242119 -8.38047,0.230783 -12.83229,-0.01464 z"
         id="path5863" />
    </g>
  </g>
</svg>
