<?xml version="1.0" encoding="UTF-8" standalone="no"?>
<!-- Created with Inkscape (http://www.inkscape.org/) -->

<svg
   width="185"
   height="185"
   viewBox="0 0 48.947914 48.947918"
   version="1.1"
   id="svg1"
   xmlns="http://www.w3.org/2000/svg"
   xmlns:svg="http://www.w3.org/2000/svg">
  <defs
     id="defs1" />
  <g
     id="layer1">
    <g
       id="g3092"
       style="display:inline;stroke-width:1.19965"
       transform="matrix(0.83357741,0,0,0.83357741,-69.925905,-93.41825)">
      <path
         style="fill:#c6ba42;stroke-width:1.19965"
         d="m 97.592101,170.51748 c -6.481946,-0.83553 -15.270981,-4.54366 -11.178488,-10.50171 -5.673874,-6.37637 6.685806,-1.06884 2.572174,-8.06239 4.968904,1.51955 4.699718,1.46771 6.930751,-2.8751 2.84667,2.09132 3.328625,-6.18785 6.730442,-0.18958 6.83413,-2.36373 1.91887,-9.767 -4.091281,-10.00704 -5.393131,-7.07653 5.215101,-17.54029 10.999981,-10.2519 10.53973,5.6515 -8.01684,13.36507 0.29728,20.67461 1.55361,-7.24659 6.77499,-2.6983 6.58208,-0.0267 5.02046,-1.94258 4.09334,-6.79471 -0.6854,-7.78143 -3.61499,-7.31487 2.90291,-13.71969 10.07546,-11.09645 7.41009,3.69784 3.07262,15.33152 -4.12572,15.78994 -2.30976,8.87299 7.44416,-4.65852 5.98274,5.45226 2.40824,-4.51192 6.33895,-1.474 6.34105,0.98697 7.31503,-3.02268 1.23486,6.43651 7.96785,5.58427 -3.76309,2.06428 1.47143,7.43877 -1.21464,7.57036 -6.73838,7.63184 -19.39047,3.69627 -28.93672,4.76657 -4.74314,-0.0325 -9.53087,0.57624 -14.247559,-0.0327 z m 25.965879,-27.30433 c 8.32679,-1.04457 2.60642,-15.77964 -1.37008,-10.18582 -5.74601,-5.16695 -7.84413,11.05273 -1.39361,7.85088 0.60471,1.15325 0.0274,3.91753 2.76369,2.33494 z m -2.70558,-3.09228 c -6.13622,-16.74597 15.69648,3.43634 0,0 z m -14.08113,-0.64337 c 3.95975,-1.7458 4.49276,-5.27222 3.41873,-8.89617 -4.17216,3.09117 -2.7115,-8.31663 -7.17384,-1.24099 -5.567904,0.23922 -2.93887,5.11195 -3.285771,8.68309 6.501951,-2.95164 -0.497174,2.94636 7.040881,1.45407 z m -3.4914,-3.22717 c -5.543636,-10.31943 11.0282,-4.67968 2.6922,1.16881 -1.05729,0.3952 -2.01071,-0.53573 -2.6922,-1.16881 z"
         id="path2301" />
      <path
         style="fill:#67884e;stroke-width:1.19965"
         d="m 97.860288,170.48427 c -6.433397,-0.68904 -15.807747,-4.43488 -11.316443,-10.417 -4.960133,-6.05883 5.893052,-1.59648 2.608766,-8.20156 5.018928,1.74067 4.59418,2.29485 6.104716,-2.62157 3.790722,2.49329 3.762355,-4.5168 8.252313,-1.0524 5.92903,-3.53561 0.90574,-9.34204 -4.8229,-9.3329 -5.541077,-5.00645 4.43927,-13.62821 3.27109,-11.57448 7.29672,-6.23809 16.16379,9.66745 6.78768,12.65105 -2.83794,6.00649 0.81574,12.22064 4.9933,4.99751 3.51118,1.9685 0.9095,7.28394 5.21564,2.11667 3.74931,-3.86741 -6.18679,-5.34163 -3.93431,-11.35392 1.20629,-6.69945 11.45261,-7.85568 14.47478,-1.96149 0.85748,5.81169 -2.14062,11.47748 -7.79586,12.45551 -2.46724,9.62397 7.31191,-5.09515 5.95688,5.51745 0.58592,-2.31191 8.32866,-5.53133 5.06815,1.59084 7.63713,-4.9328 3.22648,5.30446 9.42436,5.24704 -3.0889,3.54748 0.15369,11.98924 -8.7263,11.07092 -10.09331,2.06593 -20.86003,0.25493 -31.26096,1.15078 l -2.205313,0.004 -2.095732,-0.28679 z M 122.85991,144.2148 c -1.79401,-1.3219 -1.31125,0.27547 0.16412,0.11652 z m 0.69105,-0.98339 c 7.10811,-1.77108 4.73649,-11.62151 -0.71663,-12.01882 -1.07745,2.0902 -8.8348,1.06717 -5.12929,6.83739 -2.46144,4.91057 4.17094,1.99313 4.99392,5.54012 l 0.85197,-0.35865 z m -16.82433,-3.72636 c 3.95297,-1.73895 4.63469,-5.29485 3.47633,-8.93239 -3.55004,2.08284 -3.81734,-8.44382 -7.58853,-0.37635 -5.629597,-1.24722 -3.096126,6.75456 -1.62445,8.35587 3.78183,-5.4273 -0.41547,4.26698 5.73665,0.95287 z m -8.259483,-8.20519 c -0.748794,0.51148 -0.314273,1.15084 0,0 z"
         id="path2310" />
      <path
         style="fill:#527247;stroke-width:1.19965"
         d="m 88.959497,168.28245 c -0.801542,-1.23066 1.459997,1.60342 0,0 z"
         id="path2324" />
      <path
         style="fill:#527247;stroke-width:1.19965"
         d="m 89.168474,153.33349 c -0.463079,0.26443 0.429436,1.45702 0,0 z"
         id="path2321" />
      <path
         style="fill:#527247;stroke-width:1.19965"
         d="m 96.974831,169.93255 c -5.936457,0.11715 -15.459062,-5.68649 -9.786142,-9.56958 -7.184103,-6.19178 6.5634,-1.85717 1.578909,-7.6557 3.276307,-2.08995 6.031457,3.24911 6.488896,-3.28242 4.369853,5.17517 2.377233,-7.34338 7.214356,-0.2666 6.41221,-2.15171 3.88321,-10.74869 -3.424937,-9.96575 -6.637407,-6.68635 4.852477,-17.2555 10.055617,-10.94442 8.13603,3.73284 0.20599,11.07505 -1.43778,15.32211 -0.55231,5.31262 3.17843,8.16839 5.14967,1.63211 4.80234,-1.10524 1.5259,10.26129 4.9709,2.16613 7.28375,-4.07902 -5.44554,-4.42272 -2.36776,-10.87176 -0.71143,-8.80692 16.40478,-8.69662 13.78798,0.76863 2.96544,7.82997 -8.83182,5.47465 -7.56457,10.72306 -1.46447,7.68513 6.1256,-6.7468 5.93569,2.53239 -1.0284,3.2616 7.85084,-6.55946 5.21782,1.78719 0.52134,0.57708 8.81548,-1.72982 4.61843,4.666 7.88682,-0.21841 1.86439,4.9589 3.19379,8.80377 -5.45985,6.51667 -16.69933,4.24098 -25.1621,4.57062 -6.07156,-0.74656 -12.63399,0.73251 -18.468769,-0.41578 z m 17.227959,-0.0575 c -5.33244,-0.36642 -1.00948,0.36513 0,0 z m -2.58767,-0.73125 c 4.95158,-0.83977 15.89338,1.79158 17.74263,-1.12428 -7.34109,1.27253 -4.22278,-0.43795 -0.41242,-3.41651 -3.22994,-0.83318 -8.73047,3.31741 -3.03242,-2.23073 1.58526,-5.37229 -11.65118,10.44478 -6.87268,0.59557 3.05969,-1.40419 2.9694,-6.2465 -1.43355,-1.54414 -4.35979,11.28155 -1.16111,-12.6375 -4.9756,-1.80026 -0.49623,3.20506 0.24578,11.68259 -1.74994,3.73818 0.0941,-4.16995 1.4522,-6.97551 -1.60547,-2.73234 -1.08026,-5.85595 -0.21776,8.09846 -3.56444,0.13012 -4.7153,-2.76761 2.98511,8.97075 -3.81918,2.66853 -8.832548,-4.87973 7.56357,7.26905 -2.324066,4.72875 -7.274831,2.12414 12.421226,0.5837 12.047136,0.98711 z m -3.42458,-1.51553 c -2.38271,-12.17518 3.02079,3.04913 0,0 z m 8.73326,-4.25202 c 0.92719,-1.20743 -0.33502,1.10102 0,0 z m 19.8051,4.67946 c -3.76186,-3.09473 7.28129,-4.49371 -0.57976,-3.92198 -9.22939,0.98089 11.02998,-9.34118 -0.72152,-3.86286 -8.76301,6.52922 7.43874,-13.02258 -2.83755,-3.76238 -8.12521,9.95712 2.94773,-12.06568 -3.50095,-3.18938 -5.25307,8.68769 -3.73943,0.0294 -4.38451,-2.9555 -0.3617,4.94692 -11.06451,8.65875 -7.51721,9.51573 3.17727,-7.29587 7.33667,0.62792 6.94434,-0.67156 5.43673,-4.68672 3.95795,8.37214 4.5936,2.41712 4.78233,2.52108 -2.31764,8.30138 6.77751,6.57778 l 1.22604,-0.14697 z m -38.872113,-0.72396 c 2.285333,-1.39367 -4.056689,-0.24695 -0.731891,-4.58917 3.497624,-5.43038 8.012304,-3.95979 12.721924,-7.48874 -2.04916,-4.2229 -3.38537,-8.68901 -4.85069,-2.6516 -2.6213,-6.67568 -0.0745,5.07824 1.25035,3.58775 -4.38032,-0.29505 -9.444433,3.63292 -7.289292,-0.67369 -4.997434,-5.90699 0.139535,4.4788 -4.690914,1.55238 6.202376,6.97127 -13.723482,-2.16838 -2.013063,3.70304 1.235185,1.73716 -10.991666,3.80455 -1.106823,3.06543 8.811972,-0.22554 -7.537791,2.99334 1.961665,3.91643 1.587343,-0.16144 3.276023,0.64245 4.748734,-0.42183 z m 29.208183,-8.00916 c -2.2159,-0.40625 -3.86892,1.0396 0,0 z m -10.47144,-3.45622 c 6.01017,-0.16987 1.83471,-11.20884 -0.29989,-1.07767 -0.57499,0.14733 -0.31587,2.311 0.29989,1.07767 z m -3.33796,-0.80909 c 3.46939,-3.75743 -1.91528,-11.65843 -2.67022,-2.13291 0.0404,2.4777 0.19513,2.29084 2.67022,2.13291 z m -11.0653,-0.46702 c -0.96278,-2.42753 -2.508702,-9.66319 -2.335155,-0.96241 -0.365565,1.76118 1.570505,2.0426 2.335155,0.96241 z m 21.13345,-10.51482 c 6.70998,0.0732 3.72172,-12.26077 4.57789,-10.4568 -1.81569,0.65337 -4.88035,-3.96164 -6.10574,-1.3927 -6.00109,-2.82139 -6.66301,11.59226 -0.90507,8.75093 -0.0203,1.28479 0.29672,4.68307 2.43292,3.09857 z m 2.32989,-0.87686 c 1.49284,-1.15762 -2.77516,1.37282 0,0 z m -19.49552,-3.45806 c 4.2954,-1.58401 4.59253,-5.56226 4.7421,-8.92968 -4.15669,2.06263 -4.38944,-8.59704 -8.33496,-0.62318 -7.290088,-1.10978 -2.49188,5.06125 -2.1493,8.21625 5.31872,-3.38653 -0.638924,2.48529 5.74216,1.33661 z m 5.77268,-7.96553 c -0.43879,0.33873 0.3917,1.74389 0,0 z"
         id="path2320" />
      <path
         style="fill:#46643b;stroke-width:1.19965"
         d="m 98.412453,170.37581 c -4.518592,-0.36721 -18.448963,-4.68518 -10.561095,-9.65202 -5.827978,-2.66161 -0.302114,-5.80966 1.927956,-4.9573 -1.544324,-4.39357 -1.131318,-4.15355 4.347722,-2.10235 -1.186476,-8.40202 5.410743,1.77233 4.807679,-6.00586 4.813635,2.14289 8.040955,0.016 7.254925,-6.75522 -8.316355,3.06554 -12.955528,-12.53711 -4.39015,-12.56025 -3.505519,1.2409 8.49218,-6.04556 7.89736,1.24021 7.13206,1.69644 -0.11271,9.50108 -1.95144,12.44428 -1.64787,4.82431 2.35413,10.95331 4.83004,3.33625 5.58925,-1.05963 1.01653,10.6543 5.2935,2.54301 0.40125,0.64063 4.98844,-6.24975 -1.53624,-5.74731 -3.80996,-6.55199 2.97801,-14.96632 9.38249,-11.50884 6.97504,2.69853 3.73148,15.07666 -3.69807,14.54185 -1.43346,4.18427 1.9e-4,7.68028 3.6536,1.85736 3.54005,1.91657 0.39853,8.02797 4.84438,1.92197 5.24161,-1.86254 -0.52478,7.85313 5.77665,2.99915 3.78702,1.30617 -0.89727,6.73054 5.23322,5.78248 1.44672,3.57781 -4.89795,3.12722 -0.14432,6.12705 -2.91601,7.25467 -12.62493,6.55277 -20.15914,6.5106 -1.89791,-0.13787 -16.01038,-0.1111 -10.31942,-0.22979 3.07418,-0.0784 9.39036,-0.17934 10.41605,-0.2435 -7.63672,-0.10557 -15.30797,-0.052 -22.905697,0.45823 z m 31.591207,-0.50631 c 3.44363,-2.69101 7.50403,-0.96296 7.5479,-4.39189 6.83773,-3.00052 -10.02046,0.23666 -1.33019,-4.3366 8.09297,-4.79773 -1.52258,-0.58998 -2.91258,-0.45628 2.8135,-5.0214 4.69471,-9.75538 -1.59397,-3.38734 -6.03127,6.12933 4.4034,-14.45699 -3.21941,-3.43477 -5.53128,8.44053 -0.79358,-11.8295 -6.19049,0.0242 -4.91163,6.42751 -0.25933,-11.01756 -4.99295,-0.95026 -2.24297,3.35393 0.0456,-5.05503 -1.49335,1.49042 1.05753,3.74431 -1.0805,10.38768 2.60885,4.1336 5.84633,-6.19145 2.8878,5.61131 8.80379,0.82829 -1.73662,-3.75399 2.49882,2.93914 0.0608,3.89993 3.06123,-0.1316 4.15095,-1.63257 2.87073,3.23411 3.63328,3.26104 -9.92715,4.63887 -0.15875,3.34656 z m -21.39439,-0.76748 c 4.59079,-0.71356 22.6789,1.71926 19.71726,-1.19418 -7.76204,2.25307 7.47569,-5.79966 -3.11818,-3.08087 -3.07101,0.63165 5.09888,-7.72179 -2.9837,-1.69122 -7.05936,8.51757 -0.11786,-4.37208 -0.44042,-5.23816 -4.9485,3.31718 -7.07689,9.73522 -6.8606,0.0532 -3.15459,-6.71034 -2.59122,16.73105 -3.93038,4.13928 -0.24372,-8.24373 5.29238,-5.03329 2.64234,-14.27363 -2.85847,-0.0935 -3.77881,12.4043 -5.93856,1.85638 -1.87692,-1.57549 -2.18107,3.61166 -3.94302,0.93846 0.76303,4.49726 2.08283,7.10156 -1.03699,4.64143 -0.83527,-6.15269 -3.964706,-8.67217 -3.041197,-0.45374 -2.642326,-0.66376 -5.099631,-3.71792 -3.161599,1.9933 -7.475751,-2.62605 3.458266,5.60642 -5.066206,2.22971 -10.59218,-3.01444 7.389865,3.62648 -2.933478,3.39844 -7.436682,4.07024 13.03675,-0.50422 1.637136,3.78169 2.373399,3.93261 11.793554,0.89927 7.467508,-1.20211 -1.261802,-3.66596 4.908376,-6.32723 8.100516,-6.84875 0.98844,-1.92524 8.03932,-2.8606 3.6986,0.95533 -1.50956,-6.73489 -1.16323,8.59728 -5.2444,0.46273 0.75624,4.08892 1.21738,7.64645 -3.69748,2.42206 -5.729338,0.19157 8.81081,7.76181 -1.900891,6.37471 -2.195229,2.39586 8.547191,0.21053 10.033741,0.7359 z m 19.01314,-2.85151 c 1.44771,-1.27142 1.3856,-0.23509 0,0 z m -19.46112,-0.43855 c 0.0873,-1.95052 0.90005,0.94269 0,0 z m 9.96655,-0.7707 c 1.04336,-4.12868 -0.0953,2.62768 0,0 z m 4.49725,-6.95523 c -0.97024,-0.38016 0.71974,1.76263 0,0 z m 0.87744,-14.36287 c 6.83055,0.19627 3.44682,-12.31145 4.20127,-10.20127 -0.72528,1.89193 -4.84362,-5.21192 -5.76996,-1.06385 -6.49043,-3.694 -6.94926,11.59336 -0.99942,8.66308 -0.5979,1.31418 1.27507,5.20375 2.56811,2.60204 z m 2.28094,-0.51681 c 3.12154,-1.68438 -4.30497,1.3924 0,0 z m -7.35533,-1.35906 c -1.45702,-0.42943 -0.26443,0.46307 0,0 z m -11.26249,-0.66813 c -0.45364,-0.45493 0.22842,1.47916 0,0 z m -0.44532,-0.9629 c -2.09684,-0.44529 -2.1017,0.75154 0,0 z m -0.33073,-0.47717 c 4.7401,-0.48421 3.50973,-7.47149 5.35776,-7.50616 0.90474,-0.0824 -6.82479,-3.16178 -4.75643,-5.54947 -3.08945,3.27399 -12.490733,2.81054 -6.87569,8.33356 -2.765116,5.14632 3.84707,1.1709 4.59541,4.88523 l 1.67879,-0.16315 z m 4.22782,-5.54934 c -0.97406,-0.30009 -0.48607,0.46076 0,0 z m 10.19197,-2.9258 c -1.45702,-0.42946 -0.26443,0.46311 0,0 z m 2.3151,-1.41227 c 0.65605,-1.04207 -1.93896,1.10935 0,0 z"
         id="path2342" />
      <path
         style="fill:#2d4c35;stroke-width:1.19965"
         d="m 100.0396,128.34204 c 2.6396,-0.39792 0.51632,0.40523 0,0 z"
         id="path2414" />
      <path
         style="fill:#2d4c35;stroke-width:1.19965"
         d="m 110.54591,133.80283 c 3.09612,-1.79901 -2.85687,-6.98422 1.89586,-2.55562 0.59781,1.23445 -0.14165,3.72101 -1.89586,2.55562 z m 0.9885,-1.43761 c 0.28855,-1.25655 0.1546,1.59389 0,0 z"
         id="path2413" />
      <path
         style="fill:#2d4c35;stroke-width:1.19965"
         d="m 110.06452,157.71393 c -0.81291,-2.09763 1.73891,-0.19642 0,0 z"
         id="path2408" />
      <path
         style="fill:#2d4c35;stroke-width:1.19965"
         d="m 111.26071,164.89652 c -2.1706,-4.22389 5.30182,-13.93168 1.17426,-5.09193 -0.72467,0.0539 0.15163,7.83822 -1.17426,5.09193 z"
         id="path2397" />
      <path
         style="fill:#2d4c35;stroke-width:1.19965"
         d="m 125.77033,167.96611 c 5.72789,-1.90709 3.79252,-5.15627 -1.45521,-3.6314 7.31042,-7.06749 -4.46063,-0.024 -5.41816,1.09678 2.60804,-5.02361 6.4948,-10.43843 -1.02268,-4.90342 -7.61698,8.70695 7.67498,-11.11647 4.84649,-0.0647 -9.57883,9.53343 11.19055,-9.27764 3.86799,3.00212 7.43007,-0.66613 4.14043,4.61158 -0.81843,4.50061 z"
         id="path2389" />
      <path
         style="fill:#2d4c35;stroke-width:1.19965"
         d="m 96.785243,169.63221 c -4.208168,-0.0921 -11.551034,-3.07842 -2.563464,-1.66882 8.688211,1.83024 1.005293,-8.47436 8.261161,-8.09474 -0.18445,-1.5805 7.15645,-3.36806 5.4868,-2.21017 0.5776,7.4737 -6.4147,-2.48368 -4.44301,3.04382 3.4145,7.88768 -4.340161,-0.65947 -3.43486,0.11023 -5.996524,1.15208 8.3781,8.25142 -1.320456,7.4302 3.505006,2.77446 18.763856,-0.0911 26.640286,1.07273 12.97904,-0.82059 -8.34628,1.2611 -12.14884,0.55223 -5.21084,-0.59627 -12.26302,1.18711 -16.477617,-0.23548 z m 3.089735,-3.73401 c -1.551391,-2.55031 -1.664181,-0.25298 0.110767,0.43647 z"
         id="path2387" />
      <path
         style="fill:#2d4c35;stroke-width:1.19965"
         d="m 117.56824,170.31701 c -9.69155,-0.40463 9.24837,0.20317 12.50128,-0.36914 6.65536,-1.68106 5.67684,-0.33102 2.16304,-1.67205 5.18875,0.48987 5.35458,-1.74071 6.89693,-4.65406 -8.42336,1.72078 -2.84666,-2.71508 1.02336,-4.99078 -8.12775,2.86357 -5.17805,-0.65754 -3.42798,-4.88101 -3.60899,0.75279 -9.14077,8.49519 -5.58248,-0.0383 3.21422,-10.34167 -7.89423,10.10305 -5.33339,-1.48423 0.50643,-7.14336 -8.32615,10.46722 -5.68901,-1.93679 -1.0993,-2.92468 -3.89283,6.38942 -3.59827,1.13525 -2.21203,4.56802 0.16444,13.97741 -1.85506,3.82573 0.18799,-6.52785 -1.91457,-12.59997 -4.41824,-2.88896 -1.17033,2.42281 -4.0918,-6.91221 -4.57238,-1.74123 -1.00203,-1.76296 -2.51385,-0.3488 -2.52807,4.10105 -1.18863,-5.27308 -4.161039,-8.38947 -3.836455,0 -3.502068,-2.91791 -4.164807,-2.6461 -3.248753,1.94803 -6.127302,-3.15731 -2.074976,0.22447 -1.446071,2.82651 -4.500656,-1.17973 -12.328046,-2.38453 -2.927561,1.57492 -4.910146,0.97718 -7.521927,5.40747 -0.08666,2.9939 3.47763,2.82345 -11.389094,2.33389 -5.279051,-2.65035 2.786635,-1.31091 -5.513183,-6.78397 3.041136,-4.9781 2.663815,-4.34777 -2.117569,-6.27863 4.865468,-2.55536 -1.109349,-7.39389 5.102451,0.41498 5.32978,-6.61664 4.736517,3.78226 7.575317,-0.71633 6.708977,-6.62555 -8.777097,3.6775 -11.766254,-12.43801 -5.30361,-11.32142 1.63721,-6.35351 12.04708,-1.5333 6.70169,1.62553 1.92335,-8.54469 -5.1352,-1.15524 -9.564477,0.37687 1.522459,3.90399 1.04678,6.72766 4.900127,8.07267 6.01884,2.10772 8.06661,-5.20636 9.23442,-4.21524 -2.05787,3.75964 -8.96052,11.64758 -2.22178,14.38487 3.23093,-11.23896 6.76095,2.66917 6.11639,1.32833 -0.78514,-2.63387 7.08004,-5.00358 2.70517,-8.18847 -7.52052,-2.70355 -1.4396,-15.13427 5.94202,-12.87858 7.9257,2.81004 4.96845,16.02858 -3.30123,15.29551 0.0717,6.78979 0.0617,6.06354 4.63065,2.07644 2.80787,3.27544 -0.21301,7.82475 4.05951,2.10214 6.31034,-3.60579 -0.96317,9.90007 5.02431,2.88847 5.89006,-1.40928 -1.47704,6.61261 6.31123,5.54497 0.77196,3.54492 -3.9551,3.22643 -0.24033,6.5336 -3.28881,7.24482 -13.69309,6.0349 -21.45236,6.10801 l -2.24279,-0.0564 z m -11.565,-21.67994 c 0.27048,-1.88105 -1.06017,1.88955 0,0 z m 8.65459,-2.94826 c -1.95542,-1.0152 -2.54105,0.92962 0,0 z m 8.79265,-1.54966 c 4.38204,-0.16525 5.60138,-7.77493 2.77634,-10.79886 -1.86856,-1.9319 -3.61101,-4.04826 -4.16892,-0.77663 -5.87117,-4.75553 -5.30664,8.07164 -4.41702,9.38718 5.44234,-3.49374 1.35246,3.10688 5.8096,2.18831 z m -16.12471,-2.96462 c -4.39195,-3.91351 0.2484,2.02137 0,0 z m 2.34074,-2.44898 c 2.1771,-1.41223 -3.77693,1.53356 0,0 z m 19.01423,-4.49352 c -2.03909,-3.54547 -2.22767,-0.0146 0,0 z m -29.022063,-4.88587 c -1.640554,0.7524 -1.428778,2.24294 0,0 z m 23.598113,0.50549 c -0.33565,-1.07882 -1.54694,1.26354 0,0 z m -14.76822,-1.10794 c -0.45365,-0.45492 0.22843,1.47918 0,0 z"
         id="path2382" />
      <path
         style="fill:#193521;stroke-width:1.19965"
         d="m 122.33071,129.59915 c 2.50598,-0.84427 -0.0776,0.60293 0,0 z"
         id="path2890" />
      <path
         style="fill:#193521;stroke-width:1.19965"
         d="m 102.47008,129.7855 c -0.31898,-9.31882 11.49689,2.71226 3.81161,-3.89099 -6.740078,3.06652 1.948,-1.04388 -3.59629,3.70621 l -0.0661,0.25092 -0.14918,-0.0661 z m 0.41376,-1.52136 c -0.32,-0.96735 -0.65251,0.94254 0,0 z"
         id="path2889" />
      <path
         style="fill:#193521;stroke-width:1.19965"
         d="m 98.253633,129.98379 c 1.195304,-1.89683 1.22736,0.12705 0,0 z"
         id="path2888" />
      <path
         style="fill:#193521;stroke-width:1.19965"
         d="m 99.392866,130.00319 c 5.824024,-1.80219 -2.529259,1.45868 0,0 z"
         id="path2887" />
      <path
         style="fill:#193521;stroke-width:1.19965"
         d="m 107.77863,130.26408 c 0.11034,-3.27451 0.59169,2.93389 0,0 z"
         id="path2886" />
      <path
         style="fill:#193521;stroke-width:1.19965"
         d="m 97.724467,131.04222 c 0.627986,-1.38828 0.228987,1.39755 0,0 z"
         id="path2885" />
      <path
         style="fill:#193521;stroke-width:1.19965"
         d="m 124.47355,131.10832 c -0.93414,-1.63373 1.9252,1.94819 0,0 z"
         id="path2884" />
      <path
         style="fill:#193521;stroke-width:1.19965"
         d="m 122.06613,131.51774 c 1.04261,-1.8595 1.38435,-0.39335 0,0 z"
         id="path2883" />
      <path
         style="fill:#193521;stroke-width:1.19965"
         d="m 96.934768,131.81388 c 0.675853,-2.89946 0.321267,1.3714 0,0 z"
         id="path2882" />
      <path
         style="fill:#193521;stroke-width:1.19965"
         d="m 122.08702,132.60763 c 0.17023,-1.0197 0.26833,1.20429 0,0 z"
         id="path2881" />
      <path
         style="fill:#193521;stroke-width:1.19965"
         d="m 125.26202,133.0927 c 0.39777,-0.78409 1.1261,1.37077 0,0 z"
         id="path2880" />
      <path
         style="fill:#193521;stroke-width:1.19965"
         d="m 111.7558,133.76977 c -0.70381,-5.91333 1.0949,-2.53559 0,0 z"
         id="path2879" />
      <path
         style="fill:#193521;stroke-width:1.19965"
         d="m 110.60085,133.9085 c -0.5892,-1.39913 0.89445,0.35528 0,0 z"
         id="path2878" />
      <path
         style="fill:#193521;stroke-width:1.19965"
         d="m 99.652329,134.42859 c -5.56265,-4.16152 1.497761,-0.28238 0,0 z"
         id="path2877" />
      <path
         style="fill:#193521;stroke-width:1.19965"
         d="m 115.50313,135.27551 c 0.28855,-1.25655 0.1546,1.59389 0,0 z"
         id="path2876" />
      <path
         style="fill:#193521;stroke-width:1.19965"
         d="m 115.62794,136.81891 c -0.81491,-1.19824 1.16412,0.22634 0,0 z"
         id="path2875" />
      <path
         style="fill:#193521;stroke-width:1.19965"
         d="m 110.9327,136.53204 c 0.3702,-2.54079 0.12568,2.7048 0,0 z"
         id="path2874" />
      <path
         style="fill:#193521;stroke-width:1.19965"
         d="m 128.15155,137.68719 c 1.64932,-1.69022 1.63875,-0.46699 0,0 z"
         id="path2873" />
      <path
         style="fill:#193521;stroke-width:1.19965"
         d="m 127.5134,138.55669 c 4.97209,-5.53713 -8.99541,-11.73643 0.97561,-6.19728 3.30393,6.42106 -1.10947,0.38267 -0.47914,6.95466 l -0.49638,-0.75733 z m 1.45279,-2.50948 c 0.17024,-1.01969 0.26833,1.20428 0,0 z"
         id="path2872" />
      <path
         style="fill:#193521;stroke-width:1.19965"
         d="m 99.710714,139.115 c 0.669586,-0.48386 1.053386,0.85232 0,0 z"
         id="path2871" />
      <path
         style="fill:#193521;stroke-width:1.19965"
         d="m 98.399419,138.49168 c -2.227066,-9.00687 2.955351,1.52777 0.952712,-0.31262 -2.751716,-2.06558 1.587409,3.37142 -0.952712,0.31262 z m -0.0012,-1.65062 c -0.564364,-2.35461 -0.381388,2.7894 0,0 z"
         id="path2870" />
      <path
         style="fill:#193521;stroke-width:1.19965"
         d="m 106.65418,139.73049 c 0.98544,-2.69965 1.39678,-0.31818 0,0 z"
         id="path2869" />
      <path
         style="fill:#193521;stroke-width:1.19965"
         d="m 108.30444,139.64709 c 4.3276,-2.82422 5.70201,-4.78954 1.04486,-0.11448 l -1.29771,0.42302 z"
         id="path2868" />
      <path
         style="fill:#193521;stroke-width:1.19965"
         d="m 103.13288,139.75888 c -1.28097,-1.03173 3.11528,1.34603 0,0 z"
         id="path2867" />
      <path
         style="fill:#193521;stroke-width:1.19965"
         d="m 105.33435,140.51239 c 2.32068,-0.38427 0.47895,0.4075 0,0 z"
         id="path2866" />
      <path
         style="fill:#193521;stroke-width:1.19965"
         d="m 120.77394,141.66302 c -3.27589,-0.368 1.09416,-0.6949 0,0 z"
         id="path2865" />
      <path
         style="fill:#193521;stroke-width:1.19965"
         d="m 126.29897,142.36469 c 4.74548,-7.98239 1.57696,-0.11722 0,0 z"
         id="path2864" />
      <path
         style="fill:#193521;stroke-width:1.19965"
         d="m 116.83761,142.6533 c -3.22962,-1.90845 6.60632,0.52753 0,0 z m 0.43472,-0.56472 c 0.44413,-4.33297 -3.80137,-8.49872 1.66746,-11.05479 3.37495,-1.55727 -4.79781,3.98731 -1.56952,7.26276 -2.45565,0.43441 1.48818,4.7089 -0.0979,3.79203 z"
         id="path2863" />
      <path
         style="fill:#193521;stroke-width:1.19965"
         d="m 112.65788,145.34935 c 2.97937,-1.35818 -0.3737,0.89325 0,0 z"
         id="path2861" />
      <path
         style="fill:#193521;stroke-width:1.19965"
         d="m 114.68439,145.64842 c -0.91641,-1.59001 1.51345,1.71586 0,0 z"
         id="path2859" />
      <path
         style="fill:#193521;stroke-width:1.19965"
         d="m 105.75606,146.91304 c 0.34619,-5.2738 0.0554,-7.14994 1.33157,-1.66772 -0.0125,-9.77133 2.37064,2.13746 -1.33157,1.66772 z m 0.81345,-0.68722 c -1.26773,-0.95333 -0.0467,1.86212 0,0 z"
         id="path2856" />
      <path
         style="fill:#193521;stroke-width:1.19965"
         d="m 124.17958,148.114 c 2.6543,-2.8505 -0.63187,1.71847 0,0 z"
         id="path2845" />
      <path
         style="fill:#193521;stroke-width:1.19965"
         d="m 101.48933,148.09101 c -4.318902,-2.98049 2.88664,1.74219 0,0 z"
         id="path2843" />
      <path
         style="fill:#193521;stroke-width:1.19965"
         d="m 102.75158,148.97336 c 1.82511,-2.35787 3.40508,-0.35924 0,0 z"
         id="path2841" />
      <path
         style="fill:#193521;stroke-width:1.19965"
         d="m 99.597467,149.01193 c 0.170216,-1.0197 0.26837,1.20425 0,0 z"
         id="path2837" />
      <path
         style="fill:#193521;stroke-width:1.19965"
         d="m 116.51396,149.54755 c 0.93439,-2.2598 0.71895,-0.10371 0,0 z"
         id="path2835" />
      <path
         style="fill:#193521;stroke-width:1.19965"
         d="m 109.36616,149.44885 c -3.62425,-3.4701 0.28759,-1.22657 0,0 z"
         id="path2834" />
      <path
         style="fill:#193521;stroke-width:1.19965"
         d="m 110.17436,149.56314 c 1.27235,-4.11599 2.93952,-4.41918 0,0 z"
         id="path2832" />
      <path
         style="fill:#193521;stroke-width:1.19965"
         d="m 120.25585,150.48918 c 0.23155,-1.19259 0.23155,1.19259 0,0 z"
         id="path2826" />
      <path
         style="fill:#193521;stroke-width:1.19965"
         d="m 132.93498,150.86407 c 0.17023,-1.01969 0.26833,1.20425 0,0 z"
         id="path2824" />
      <path
         style="fill:#193521;stroke-width:1.19965"
         d="m 115.29278,149.10109 c 0.80199,-6.18074 -0.26258,7.15885 0,0 z"
         id="path2820" />
      <path
         style="fill:#193521;stroke-width:1.19965"
         d="m 121.32991,149.46615 c -1.12693,-2.7575 -1.94694,-9.77313 1.0645,-4.92369 5.12988,-2.14447 7.06254,-3.11964 1.63733,0.57582 -4.44719,-2.80133 -1.6567,8.68963 -2.70183,4.34787 z m -0.18979,-3.2103 c -0.94941,-1.00732 -0.32857,1.04308 0,0 z m 0.041,-1.97296 c -1.21949,-1.51737 0.19684,1.83727 0,0 z m 2.73713,0.38546 c -0.31997,-0.96735 -0.65254,0.94251 0,0 z m -3.3439,-1.71979 c -0.22894,-1.39756 -0.62801,1.38825 0,0 z"
         id="path2817" />
      <path
         style="fill:#193521;stroke-width:1.19965"
         d="m 96.672371,150.68752 c -3.019833,-3.65293 3.316842,3.30575 0,0 z"
         id="path2816" />
      <path
         style="fill:#193521;stroke-width:1.19965"
         d="m 127.25474,150.7342 c -2.32435,-8.02764 1.19918,1.7194 -3.3e-4,0 z"
         id="path2812" />
      <path
         style="fill:#193521;stroke-width:1.19965"
         d="m 136.83322,152.16041 c 1.47916,-0.2284 -0.45492,0.45366 0,0 z"
         id="path2808" />
      <path
         style="fill:#193521;stroke-width:1.19965"
         d="m 128.20187,151.57874 c 5.42684,-4.47754 4.77887,-3.19096 -0.33385,0.70548 l 0.33382,-0.70548 z m 1.27394,0.33508 c 1.16516,-3.45586 2.13795,-1.65404 0,0 z"
         id="path2804" />
      <path
         style="fill:#193521;stroke-width:1.19965"
         d="m 122.6026,153.26731 c 2.04492,-4.53602 3.24313,-4.06903 0,0 z"
         id="path2797" />
      <path
         style="fill:#193521;stroke-width:1.19965"
         d="m 103.36543,151.8121 c 0.18922,-3.06136 0.18923,3.06134 0,0 z"
         id="path2796" />
      <path
         style="fill:#193521;stroke-width:1.19965"
         d="m 132.14297,153.3996 c 0.51266,-2.18241 0.50308,0.37512 0,0 z"
         id="path2792" />
      <path
         style="fill:#193521;stroke-width:1.19965"
         d="m 94.180928,153.24567 c 0.19473,-9.42709 0.939998,0.74737 0,0 z"
         id="path2791" />
      <path
         style="fill:#193521;stroke-width:1.19965"
         d="m 92.420569,153.0095 c -4.677276,-3.21161 5.479162,3.092 0,0 z"
         id="path2788" />
      <path
         style="fill:#193521;stroke-width:1.19965"
         d="m 128.1266,153.71085 c 1.81746,-2.46813 -0.49532,1.558 0,0 z"
         id="path2786" />
      <path
         style="fill:#193521;stroke-width:1.19965"
         d="m 134.65934,154.0901 c 2.36137,-2.13927 0.12617,0.82574 0,0 z"
         id="path2783" />
      <path
         style="fill:#193521;stroke-width:1.19965"
         d="m 133.39741,154.1557 c 1.01787,-2.99325 4.38672,-2.59413 0,0 z"
         id="path2782" />
      <path
         style="fill:#193521;stroke-width:1.19965"
         d="m 89.951974,155.90291 c -0.693833,-1.93658 0.974746,1.23949 0,0 z"
         id="path2773" />
      <path
         style="fill:#193521;stroke-width:1.19965"
         d="m 137.14741,156.32563 c 0.77748,-3.22742 1.20801,0.5595 0,0 z"
         id="path2772" />
      <path
         style="fill:#193521;stroke-width:1.19965"
         d="m 138.94988,157.98136 c 1.47916,-0.2284 -0.4549,0.45364 0,0 z"
         id="path2766" />
      <path
         style="fill:#193521;stroke-width:1.19965"
         d="m 141.1245,157.86564 c -10.07078,-0.38691 1.53474,-0.73488 0,0 z"
         id="path2764" />
      <path
         style="fill:#193521;stroke-width:1.19965"
         d="m 136.75054,158.69126 c 2.53329,-0.83752 -1.32245,0.86745 0,0 z"
         id="path2760" />
      <path
         style="fill:#193521;stroke-width:1.19965"
         d="m 139.79324,159.38513 c 0.89414,-1.07337 1.25105,-0.73073 0,0 z"
         id="path2758" />
      <path
         style="fill:#193521;stroke-width:1.19965"
         d="m 140.49762,160.56037 c 3.70925,-3.34079 -1.72896,2.10414 0,0 z"
         id="path2753" />
      <path
         style="fill:#193521;stroke-width:1.19965"
         d="m 138.73491,161.23311 c 1.03296,-0.86271 1.06045,0.46969 0,0 z"
         id="path2750" />
      <path
         style="fill:#193521;stroke-width:1.19965"
         d="m 127.35783,161.6173 c 0.46367,-1.3916 0.41128,0.97228 0,0 z"
         id="path2746" />
      <path
         style="fill:#193521;stroke-width:1.19965"
         d="m 88.943637,161.95011 c 1.479162,-0.22839 -0.454915,0.45363 0,0 z"
         id="path2745" />
      <path
         style="fill:#193521;stroke-width:1.19965"
         d="m 122.38905,162.27417 c 6.00073,-5.78826 -2.65112,3.71131 0,0 z m 0.73544,-1.30564 c 1.03295,-0.86268 1.06046,0.46966 0,0 z"
         id="path2741" />
      <path
         style="fill:#193521;stroke-width:1.19965"
         d="m 140.75784,162.79732 c -2.7491,-2.084 1.33204,0.40987 0,0 z"
         id="path2740" />
      <path
         style="fill:#193521;stroke-width:1.19965"
         d="m 135.89064,163.80052 c 2.04931,-0.41175 0.39346,0.42558 0,0 z"
         id="path2734" />
      <path
         style="fill:#193521;stroke-width:1.19965"
         d="m 120.47866,163.58606 c 2.50251,-2.39152 -1.88254,2.35056 0,0 z"
         id="path2731" />
      <path
         style="fill:#193521;stroke-width:1.19965"
         d="m 88.679053,165.6543 c 1.479158,-0.2284 -0.454918,0.45366 0,0 z"
         id="path2723" />
      <path
         style="fill:#193521;stroke-width:1.19965"
         d="m 85.922816,165.7213 c -5.591193,-6.22654 5.940222,3.0876 0,0 z"
         id="path2722" />
      <path
         style="fill:#193521;stroke-width:1.19965"
         d="m 139.67956,166.10895 c 2.31557,-5.57513 1.6418,0.48727 0,0 z"
         id="path2721" />
      <path
         style="fill:#193521;stroke-width:1.19965"
         d="m 96.35197,168.03552 c 1.47916,-0.2284 -0.454922,0.45366 0,0 z"
         id="path2714" />
      <path
         style="fill:#193521;stroke-width:1.19965"
         d="m 136.94897,168.19502 c 1.23271,-2.49538 0.13785,1.24483 0,0 z"
         id="path2709" />
      <path
         style="fill:#193521;stroke-width:1.19965"
         d="m 98.330515,168.12772 c 7.582935,-1.93192 1.062498,0.35227 0,0 z"
         id="path2708" />
      <path
         style="fill:#193521;stroke-width:1.19965"
         d="m 133.911,168.55368 c 3.48907,-0.367 0.73123,0.37855 0,0 z"
         id="path2705" />
      <path
         style="fill:#193521;stroke-width:1.19965"
         d="m 134.63387,169.27485 c 8.227,-2.54568 -0.675,0.98928 -1.76813,0.13277 0.58938,-0.0443 1.17875,-0.0885 1.76813,-0.13277 z"
         id="path2696" />
      <path
         style="fill:#193521;stroke-width:1.19965"
         d="m 116.8503,169.34345 c 4.08082,-0.22923 3.63556,0.28517 0,0 z"
         id="path2695" />
      <path
         style="fill:#193521;stroke-width:1.19965"
         d="m 104.14064,169.34645 c 4.40656,-0.36636 0.87555,0.36836 0,0 z"
         id="path2694" />
      <path
         style="fill:#193521;stroke-width:1.19965"
         d="m 122.93706,169.60731 c 4.78362,-0.2218 4.3335,0.27514 0,0 z"
         id="path2688" />
      <path
         style="fill:#193521;stroke-width:1.19965"
         d="m 98.978344,169.81451 c -2.44067,-1.09069 13.112886,0.89943 1.456116,0.1324 l -1.456116,-0.13242 z"
         id="path2686" />
      <path
         style="fill:#193521;stroke-width:1.19965"
         d="m 116.97293,170.13708 c 4.39294,-0.22299 4.36604,0.27275 0,0 z"
         id="path2680" />
      <path
         style="fill:#193521;stroke-width:1.19965"
         d="m 125.83647,170.40304 c 3.34765,-0.23511 3.30828,0.28811 0,0 z"
         id="path2675" />
    </g>
  </g>
</svg>
