<?xml version="1.0" encoding="UTF-8" standalone="no"?>
<!-- Created with Inkscape (http://www.inkscape.org/) -->

<svg
   width="64.41539mm"
   height="58.992348mm"
   viewBox="0 0 64.41539 58.992348"
   version="1.1"
   id="svg1"
   xmlns="http://www.w3.org/2000/svg"
   xmlns:svg="http://www.w3.org/2000/svg">
  <defs
     id="defs1" />
  <g
     id="layer1"
     transform="translate(-55.297918,-112.44792)">
    <g
       id="g5604"
       transform="translate(158.21352,35.657498)">
      <path
         style="fill:#ebe5d8"
         d="m -103.68975,135.58431 c -0.26362,-0.42654 0.0987,-0.62062 2.80004,-1.4998 2.909698,-0.94699 5.514474,-1.57637 10.781771,-2.60515 2.073672,-0.40502 3.770312,-0.82721 3.770312,-0.93821 0,-0.111 -0.892924,-1.12707 -1.984276,-2.25795 -1.091352,-1.13087 -1.984321,-2.20496 -1.984375,-2.38686 -2.9e-4,-0.9764 2.010048,0.22286 4.728392,2.82071 0.927179,0.88608 1.849914,1.61106 2.05052,1.61106 0.423146,0 0.487092,-0.42232 0.100156,-0.66146 -0.387314,-0.23937 -0.323264,-1.19063 0.08017,-1.19063 0.189613,0 0.839143,0.36358 1.443399,0.80796 0.917113,0.67445 1.252034,0.77918 2.026943,0.6338 l 0.928295,-0.17415 -0.630065,-1.22911 c -1.573249,-3.06907 -4.357356,-6.15863 -7.764539,-8.61641 -0.874275,-0.63066 -1.371556,-1.17373 -1.320716,-1.44233 0.215933,-1.14082 4.714742,-0.23062 7.281712,1.47324 1.517968,1.00757 3.141317,2.70888 4.368469,4.57825 0.498429,0.75929 0.710209,0.95099 0.584567,0.52917 -1.786349,-5.9974 -2.746592,-9.69504 -2.620711,-10.09165 0.280827,-0.88481 1.108955,-0.51964 2.635092,1.16196 2.450957,2.70064 4.239262,6.96492 4.771193,11.37709 0.100878,0.83674 0.258993,1.52084 0.351366,1.52021 0.09237,-6.3e-4 0.465607,-0.71701 0.82941,-1.59196 1.403064,-3.3744 4.087857,-6.18232 6.246099,-6.53255 1.202271,-0.1951 1.186076,0.30559 -0.07715,2.38508 -1.044662,1.7197 -2.720821,5.38259 -2.72614,5.95741 -0.0019,0.20826 0.227814,0.31502 0.569386,0.26458 0.457722,-0.0676 0.715657,-0.50925 1.285514,-2.20121 1.316921,-3.91008 3.770513,-8.33438 4.622011,-8.33438 0.688236,0 0.658568,0.46709 -0.14178,2.23223 -0.656829,1.4486 -2.101853,6.12759 -2.104361,6.81391 -3.67e-4,0.10043 0.624411,-0.48025 1.388395,-1.2904 2.176297,-2.30781 7.891558,-5.89099 8.824968,-5.53281 1.011475,0.38814 -0.351766,2.73304 -3.70362,6.37058 -1.148702,1.2466 -2.022416,2.33268 -1.941588,2.41351 0.08083,0.0808 1.00488,-0.16251 2.053446,-0.54075 1.103949,-0.39821 2.589521,-0.71323 3.529088,-0.74834 1.462223,-0.0546 1.630337,-0.007 1.700861,0.48669 0.05375,0.37589 -0.137392,0.64558 -0.610232,0.86102 -0.74542,0.33964 -0.667191,0.84061 0.131264,0.84061 1.13366,0 6.158691,1.14088 8.838464,2.00668 3.413141,1.10274 4.923702,1.8281 4.923702,2.36433 0,0.34298 -3.384942,0.39326 -27.318228,0.40576 -15.025025,0.008 -29.844729,0.0618 -32.932675,0.11989 -3.713919,0.0699 -5.672029,0.0125 -5.784549,-0.16962 z"
         id="path5590" />
      <path
         style="fill:#e3d9c9"
         d="m -103.00638,135.37533 c 0,-0.63138 5.906895,-2.28854 12.897498,-3.61835 2.246045,-0.42726 4.034371,-0.89446 4.034896,-1.05411 5.18e-4,-0.1577 -0.892026,-1.24792 -1.983432,-2.42272 -1.091406,-1.17479 -1.984375,-2.20662 -1.984375,-2.29295 0,-0.65599 2.016764,0.67199 4.538482,2.98846 2.073904,1.9051 3.31207,2.2125 2.284554,0.56718 -0.560469,-0.89745 0.01741,-0.9197 1.232032,-0.0474 1.020139,0.73261 1.316525,0.82121 2.248519,0.67218 0.590423,-0.0944 1.073496,-0.23611 1.073496,-0.31489 0,-0.30371 -1.707343,-3.14849 -2.649157,-4.41403 -1.22563,-1.64691 -4.21025,-4.51638 -5.883655,-5.65665 -1.249943,-0.85172 -1.584381,-1.5156 -0.896489,-1.77957 0.53426,-0.20501 3.79773,0.6115 5.430916,1.3588 1.760907,0.80574 4.592904,3.61999 5.806163,5.76976 0.48002,0.85055 0.925535,1.49368 0.990033,1.42919 0.0645,-0.0645 -0.127569,-0.88021 -0.426815,-1.81268 -1.279983,-3.98855 -2.673095,-9.28581 -2.536001,-9.64307 0.269221,-0.70158 0.888367,-0.40564 2.23582,1.06869 2.441609,2.67151 3.844007,5.88431 4.715528,10.80297 0.249312,1.40706 0.550782,2.55829 0.669934,2.55829 0.119151,0 0.216733,-0.14883 0.216848,-0.33073 3.7e-4,-0.58703 1.578153,-3.68697 2.551304,-5.01267 0.520056,-0.70846 1.325984,-1.57827 1.790951,-1.93292 2.275521,-1.73562 3.910412,-1.64508 2.701322,0.1496 -1.313536,1.94972 -3.33962,6.28571 -3.33962,7.14708 0,0.15365 0.322616,0.24169 0.716924,0.19565 0.651896,-0.0761 0.815456,-0.3477 1.803249,-2.99414 1.636645,-4.3848 3.422729,-7.54062 4.26772,-7.54062 0.227982,0 0.350082,0.14793 0.272985,0.33073 -1.162391,2.75607 -1.630383,4.06931 -2.176265,6.10685 -0.35747,1.33428 -0.650245,2.59201 -0.650612,2.79495 -3.67e-4,0.20295 0.722935,-0.42069 1.607338,-1.38586 2.032241,-2.21783 7.283894,-5.73001 8.567912,-5.73001 0.717748,0 0.450091,1.18354 -0.584772,2.58578 -0.545703,0.73942 -1.933923,2.36993 -3.084932,3.62334 -2.479913,2.70055 -2.432777,3.12195 0.236809,2.11713 0.995533,-0.37472 2.564522,-0.75176 3.486643,-0.83787 1.459837,-0.13632 1.676584,-0.0987 1.676584,0.29088 0,0.24609 -0.356435,0.65026 -0.792077,0.89815 -0.435643,0.2479 -0.79283,0.52348 -0.79375,0.61242 -9.2e-4,0.0889 1.456843,0.42955 3.239473,0.75693 4.617178,0.84793 11.310937,3.05175 11.310937,3.72396 0,0.15799 -9.660997,0.26137 -25.86302,0.27674 -14.224661,0.0135 -28.809816,0.0691 -32.411457,0.12366 -3.601641,0.0545 -6.548441,-0.003 -6.548441,-0.1281 z"
         id="path5576" />
      <path
         style="fill:#dad7c5"
         d="m -102.06389,135.11334 c 0.70032,-0.66324 6.568945,-2.15858 15.263243,-3.88912 0.400182,-0.0797 0.727604,-0.3019 0.727604,-0.49388 0,-0.19197 -0.843843,-1.25262 -1.875207,-2.357 -1.031364,-1.10437 -1.835036,-2.12738 -1.785938,-2.27335 0.133907,-0.3981 2.152145,1.03437 4.040818,2.86802 2.003937,1.94556 3.435809,2.25706 2.521434,0.54853 -0.403254,-0.75348 0.309343,-0.67041 1.283974,0.14969 0.890494,0.7493 2.868269,0.94031 3.113705,0.30072 0.155355,-0.40485 -0.949489,-2.38827 -2.708605,-4.8625 -1.162772,-1.63546 -3.901598,-4.19265 -5.923621,-5.53076 -1.348771,-0.89257 -1.369439,-1.41785 -0.05562,-1.4137 3.866715,0.0122 8.165765,2.88791 10.633093,7.11256 0.603933,1.03407 1.146645,1.88014 1.206026,1.88014 0.05938,0 -0.06595,-0.56555 -0.278515,-1.25677 -1.803642,-5.86514 -3.064688,-10.71842 -2.842689,-10.94042 0.430485,-0.43048 1.080473,0.0129 2.504892,1.70873 2.245174,2.67296 3.779186,6.59995 4.588072,11.74523 0.09723,0.61846 0.285376,1.12448 0.418106,1.12448 0.13273,0 0.241327,-0.12245 0.241327,-0.27211 0,-0.69939 1.946308,-4.25835 2.956238,-5.40569 1.429617,-1.62414 3.029308,-2.78887 3.830334,-2.78887 0.808658,0 0.784941,0.43101 -0.0949,1.72452 -0.877691,1.29035 -2.984467,5.90692 -2.986229,6.54371 -0.0015,0.5491 1.111944,0.6461 1.518604,0.13229 0.143969,-0.1819 0.533647,-1.16417 0.865951,-2.18281 1.326857,-4.06736 4.493331,-9.49703 4.493331,-7.70489 0,0.2007 -0.291351,1.00437 -0.647447,1.78594 -0.658844,1.44605 -2.364653,7.36067 -2.176983,7.54834 0.05663,0.0566 0.783068,-0.67171 1.614318,-1.61851 1.512513,-1.72278 4.545386,-3.93383 7.261544,-5.29387 3.050999,-1.52771 2.251211,0.64675 -1.863934,5.06765 -1.429999,1.53624 -2.599998,2.89777 -2.599998,3.02561 0,0.40413 0.937175,0.25433 2.803412,-0.44812 1.914148,-0.72049 4.605688,-0.9885 4.786514,-0.47663 0.0579,0.16391 -0.331459,0.5557 -0.865252,0.87064 -0.533793,0.31495 -0.916162,0.627 -0.849708,0.69346 0.06645,0.0665 1.837631,0.46865 3.935949,0.89378 3.139466,0.63607 7.060079,1.7838 9.569813,2.8015 1.006583,0.40817 0.360417,0.66089 -1.719792,0.67261 -34.069209,0.19205 -61.100274,0.19686 -60.903864,0.0109 z"
         id="path5561" />
      <path
         style="fill:#d1c5b1"
         d="m -98.773043,134.12959 c 1.527969,-0.4987 5.033221,-1.35824 7.789449,-1.9101 2.756228,-0.55186 5.054289,-1.13227 5.106803,-1.28981 0.05251,-0.15755 -0.735381,-1.21938 -1.750877,-2.35964 -1.015496,-1.14026 -1.806575,-2.11298 -1.757954,-2.1616 0.236605,-0.2366 1.836,0.89802 3.637709,2.58062 1.100081,1.02735 2.184308,1.86791 2.409394,1.86791 0.589635,0 0.773378,-0.4363 0.443402,-1.05286 -0.408361,-0.76303 0.128837,-0.69875 1.239379,0.1483 0.750952,0.57278 1.064173,0.65442 1.941817,0.50615 0.575541,-0.0972 1.106573,-0.2741 1.180071,-0.39302 0.161335,-0.26105 -1.394941,-3.06271 -2.654154,-4.7781 -1.0685,-1.45559 -3.992564,-4.26542 -5.758855,-5.53387 -2.223479,-1.59678 -1.494782,-1.99382 1.937467,-1.05563 3.559456,0.97295 6.618331,3.68682 8.695582,7.71483 1.431529,2.77588 1.336682,2.07901 -0.596696,-4.38415 -1.769042,-5.91378 -1.996959,-7.04665 -1.417694,-7.04665 0.631291,0 3.04734,2.8151 3.948958,4.6012 1.122376,2.22341 1.725546,4.07003 2.203564,6.74625 0.761169,4.26145 0.782193,4.27998 1.829153,1.61145 1.232423,-3.14124 3.789531,-6.06133 5.880902,-6.7157 0.966808,-0.30251 0.894812,0.1832 -0.330741,2.23125 -1.301333,2.1747 -2.859693,5.96014 -2.615967,6.3545 0.224857,0.36382 1.338288,0.31046 1.636134,-0.0784 0.139318,-0.1819 0.584528,-1.28322 0.989355,-2.44739 1.297342,-3.73079 3.760748,-8.24645 4.238188,-7.76901 0.08129,0.0813 -0.144972,0.79101 -0.502815,1.57716 -0.711002,1.562 -1.911507,5.52759 -2.178127,7.19494 l -0.168135,1.05146 2.486822,-2.48265 c 1.864546,-1.86141 3.103777,-2.83018 4.952374,-3.87154 2.449791,-1.38002 3.064479,-1.59485 3.330734,-1.16404 0.248652,0.40233 -1.51165,2.86697 -3.878056,5.42976 -1.273308,1.37898 -2.315104,2.63535 -2.315104,2.79193 0,0.44457 0.88228,0.33945 2.970991,-0.35399 3.470948,-1.15233 5.630647,-0.91713 3.456299,0.37641 -0.913771,0.54361 -0.956097,0.61687 -0.474166,0.82079 0.291042,0.12315 2.061753,0.52775 3.934913,0.89911 1.87316,0.37135 4.094694,0.90728 4.936742,1.19094 3.201455,1.0785 4.491008,1.63335 4.345036,1.86954 -0.09114,0.14747 -12.396236,0.23369 -31.025534,0.21741 l -30.87449,-0.027 z"
         id="path5545" />
      <path
         style="fill:#cbbca7"
         d="m -88.652731,134.88845 c -4.547525,-0.0385 -8.268228,-0.1727 -8.268228,-0.29833 0,-0.48248 0.688511,-0.82178 1.011712,-0.49858 0.23855,0.23855 0.311204,0.20619 0.311204,-0.13859 0,-0.44285 0.598249,-0.59298 2.050521,-0.5146 0.327422,0.0177 0.595312,-0.0657 0.595312,-0.18527 0,-0.36549 1.388628,-0.50712 1.891713,-0.19294 0.379556,0.23704 0.574502,0.18702 0.983955,-0.25248 0.304335,-0.32667 1.144832,-0.67286 2.080495,-0.85694 0.863431,-0.16987 1.78142,-0.46354 2.039974,-0.6526 0.434681,-0.31785 0.37152,-0.46203 -0.838301,-1.91363 -0.719621,-0.86343 -1.506556,-1.73328 -1.748744,-1.933 -0.242188,-0.19972 -0.440342,-0.47067 -0.440342,-0.60211 0,-0.47102 1.486894,0.55994 3.262381,2.26203 0.993944,0.95286 1.946444,1.7496 2.116666,1.77054 0.832515,0.10241 1.028553,-0.046 0.906196,-0.68608 -0.154759,-0.80957 0.320451,-0.87302 0.990798,-0.1323 0.643987,0.7116 3.307292,0.78209 3.307292,0.0875 0,-0.6106 -1.394275,-3.04449 -2.967753,-5.18059 -1.149525,-1.56056 -5.085728,-5.19722 -6.471044,-5.9786 -0.364079,-0.20535 -0.408309,-0.34804 -0.179553,-0.57925 0.417906,-0.42238 4.259509,0.5602 5.885265,1.50529 2.181412,1.2681 4.385184,3.85431 5.8805,6.90097 0.74164,1.51107 1.393713,2.70213 1.449051,2.64679 0.106354,-0.10636 -0.01338,-0.54095 -2.370215,-8.60275 -0.819959,-2.80476 -1.490834,-5.2753 -1.490834,-5.4901 0,-0.78207 0.770313,-0.35689 2.04873,1.13081 0.719037,0.83674 1.616004,2.05713 1.99326,2.71198 0.970796,1.68511 2.034808,5.00295 2.538541,7.91578 0.424424,2.45422 0.960955,3.35958 1.276302,2.15369 0.343095,-1.312 1.958861,-4.27632 2.902154,-5.32435 1.266935,-1.40762 2.924256,-2.62846 3.56821,-2.62846 0.695431,0 0.622623,0.28542 -0.552924,2.16754 -1.257769,2.01375 -2.792679,5.84095 -2.572573,6.41454 0.211807,0.55196 1.052098,0.5255 1.56443,-0.0493 0.227001,-0.25467 0.853487,-1.65365 1.39219,-3.10886 1.098082,-2.96627 2.196313,-5.16801 3.16739,-6.35 l 0.652113,-0.79375 -0.758723,2.11667 c -1.0118,2.8227 -2.238897,7.52777 -2.02028,7.74639 0.09624,0.0962 0.487317,-0.23812 0.869072,-0.743 1.759056,-2.32642 5.052278,-4.96512 8.197087,-6.56794 1.364191,-0.69529 1.664186,-0.7091 1.664186,-0.0766 0,0.64635 -1.446026,2.53743 -4.152159,5.43007 -1.208812,1.29213 -2.197841,2.51252 -2.197841,2.71198 0,0.54275 0.955041,0.4403 2.808784,-0.30132 3.020941,-1.20856 6.486522,-1.15946 3.938091,0.0558 -1.781548,0.84956 -1.302906,1.07319 5.55625,2.59602 2.408019,0.53461 3.307291,0.9021 3.307291,1.35154 0,0.20063 0.20836,0.37232 0.463021,0.38155 0.325885,0.0118 0.267112,0.0965 -0.198438,0.28593 -0.367201,0.14942 -1.485376,0.20293 -2.513541,0.12027 -1.018646,-0.0819 -1.971146,-0.13937 -2.116667,-0.12775 -0.14552,0.0116 -4.937786,0.0766 -10.649478,0.14435 -10.354951,0.12288 -10.384896,0.12166 -10.384896,-0.42275 0,-0.3735 -0.170836,-0.54599 -0.540765,-0.54599 -0.368242,0 -0.515962,0.14772 -0.46302,0.46302 0.07113,0.42365 -0.293513,0.46756 -4.287881,0.51644 -2.401094,0.0294 -4.782343,0.0889 -5.291666,0.13229 -0.509323,0.0434 -4.646745,0.0474 -9.194271,0.009 z"
         id="path5525" />
      <path
         style="fill:#bcc2a6"
         d="m -77.161651,132.67553 c -0.221905,-0.34515 -0.602433,-1.10379 -0.84562,-1.68587 -1.778814,-4.25771 -3.79045,-7.06186 -6.994571,-9.75017 -1.294703,-1.08628 -2.57139,-2.09766 -2.837082,-2.24753 -0.364079,-0.20535 -0.408309,-0.34804 -0.179553,-0.57925 0.417906,-0.42238 4.259509,0.5602 5.885265,1.50529 2.181412,1.2681 4.385184,3.85431 5.8805,6.90097 0.74164,1.51107 1.393713,2.70213 1.449051,2.64679 0.106354,-0.10636 -0.01338,-0.54095 -2.370215,-8.60275 -0.819959,-2.80476 -1.490834,-5.2753 -1.490834,-5.4901 0,-0.78207 0.770313,-0.35689 2.04873,1.13081 0.719037,0.83674 1.617607,2.05713 1.996824,2.71198 0.923016,1.59389 2.174109,5.49271 2.547063,7.9375 0.422404,2.76894 0.510906,3.00859 0.970258,2.62736 0.206043,-0.171 0.374624,-0.44852 0.374624,-0.6167 0,-0.69215 1.877272,-4.15398 2.821488,-5.20304 1.266935,-1.40762 2.924256,-2.62846 3.56821,-2.62846 0.693446,0 0.618862,0.31662 -0.478796,2.03254 -1.026521,1.60471 -2.735756,5.58036 -2.736117,6.36416 -3.18e-4,0.68711 -0.923082,2.99799 -1.28693,3.22286 -0.172499,0.10661 -1.292913,0.14698 -2.489807,0.0897 -1.196895,-0.0573 -2.354766,-0.10969 -2.573048,-0.11646 -0.218281,-0.007 -0.950173,0.0755 -1.626426,0.1828 -1.112602,0.17656 -1.267928,0.13543 -1.633014,-0.43243 z"
         id="path5503" />
      <path
         style="fill:#bcc2a6"
         d="m -81.317451,132.51101 c -0.859936,-0.77341 -1.728265,-2.77488 -1.274971,-2.93877 0.143754,-0.052 0.520751,0.1344 0.83777,0.41417 0.31702,0.27977 0.909244,0.71555 1.316053,0.96839 0.978589,0.60822 1.495802,1.69835 0.965096,2.03413 -0.615947,0.3897 -0.985855,0.29383 -1.843948,-0.47792 z"
         id="path5502" />
      <path
         style="fill:#bcc2a6"
         d="m -84.743464,132.52561 c -0.321145,-0.40822 -0.737064,-1.0994 -0.924266,-1.53596 -0.187201,-0.43657 -1.009823,-1.52686 -1.828048,-2.42287 -0.818225,-0.89601 -1.487682,-1.70274 -1.487682,-1.79273 0,-0.45219 1.714924,0.84822 3.926741,2.97761 2.598535,2.50169 2.957599,3.27662 1.591798,3.43541 -0.503782,0.0586 -0.855078,-0.12318 -1.278543,-0.66146 z"
         id="path5501" />
      <path
         style="fill:#bcc2a6"
         d="m -59.085545,133.57245 c -0.509323,-0.0608 -1.117329,-0.28292 -1.351126,-0.4935 -0.371481,-0.33458 -0.467203,-0.33211 -0.759104,0.0196 -0.265045,0.31936 -0.723627,0.37191 -2.220749,0.25449 -3.234799,-0.25371 -3.162227,-0.21372 -2.950452,-1.62594 0.100842,-0.67246 0.341805,-1.47067 0.535473,-1.77381 0.193669,-0.30313 0.791426,-1.74178 1.328349,-3.19699 1.092789,-2.96175 2.190713,-5.16513 3.164154,-6.35 l 0.652113,-0.79375 -0.758723,2.11667 c -1.0118,2.8227 -2.238897,7.52777 -2.02028,7.74639 0.09624,0.0962 0.487317,-0.23812 0.869072,-0.743 1.759056,-2.32642 5.052278,-4.96512 8.197087,-6.56794 1.364191,-0.69529 1.664186,-0.7091 1.664186,-0.0766 0,0.64635 -1.446026,2.53743 -4.152159,5.43007 -1.208812,1.29213 -2.200488,2.48276 -2.203724,2.64584 -0.0032,0.16308 -0.238713,0.59416 -0.523283,0.95797 -0.843449,1.07828 -0.610697,1.12319 0.798252,0.154 1.694732,-1.16577 3.864318,-1.9761 5.845149,-2.18314 1.788361,-0.18692 2.069427,0.16403 0.698786,0.87254 -0.472943,0.24448 -1.276615,0.78041 -1.785938,1.19096 -2.023341,1.63097 -3.46012,2.60941 -3.772601,2.56913 -0.180642,-0.0233 -0.745159,-0.0921 -1.254482,-0.15298 z"
         id="path5500" />
      <path
         style="fill:#bcc2a6"
         d="m -54.30985,133.65135 c -0.27753,-0.33441 -0.264432,-0.43451 0.07384,-0.56431 0.63334,-0.24304 1.36817,-0.0176 1.36817,0.41974 0,0.54016 -1.028158,0.64323 -1.442013,0.14457 z"
         id="path5499" />
      <path
         style="fill:#9dabdc"
         d="m -76.713185,133.03407 c -0.465178,-0.30091 -1.420273,-1.99292 -1.42137,-2.51805 -0.0013,-0.6435 -0.88412,-2.32923 -2.384564,-4.55352 -1.283318,-1.90241 -4.293153,-4.94872 -6.275879,-6.35193 -0.615357,-0.4355 -1.121372,-0.88111 -1.124479,-0.99026 -0.01956,-0.68717 4.224812,0.46333 6.064542,1.64388 2.159056,1.38546 4.087583,3.73595 5.581804,6.80309 0.731937,1.50242 1.445761,2.73168 1.586274,2.73168 0.34333,0 0.378302,0.16779 -0.699921,-3.35807 -0.52547,-1.71832 -1.418439,-4.73138 -1.984375,-6.69568 -1.477477,-5.12816 -1.392289,-5.45219 0.789764,-3.00398 2.262467,2.53843 3.339916,5.2313 4.589387,11.47023 0.210372,1.05045 0.477331,1.71979 0.685912,1.71979 0.18782,0 0.615261,-0.6736 0.949869,-1.49688 0.885489,-2.1787 1.935535,-3.86677 3.171539,-5.09863 1.158282,-1.1544 2.882907,-2.14214 3.02591,-1.73302 0.04738,0.13555 -0.337458,0.93383 -0.855198,1.77395 -1.018118,1.65207 -2.857585,5.99222 -2.756701,6.50432 0.03411,0.17317 -0.150472,0.93992 -0.410189,1.70391 -0.480705,1.41404 -0.786866,1.60517 -2.281767,1.42444 -0.997702,-0.12062 -5.019851,-0.0736 -5.460969,0.0638 -0.270686,0.0843 -0.626001,0.0667 -0.789589,-0.0391 z"
         id="path5484" />
      <path
         style="fill:#9dabdc"
         d="m -80.678687,132.96477 c -0.832864,-0.31491 -1.69019,-1.54533 -1.69019,-2.42573 v -0.77608 l 0.859896,0.58975 c 1.114196,0.76416 2.315104,1.87024 2.315104,2.13231 0,0.39064 -0.927713,0.69039 -1.48481,0.47975 z"
         id="path5483" />
      <path
         style="fill:#9dabdc"
         d="m -84.463341,132.73161 c -0.278831,-0.27883 -0.749155,-1.02297 -1.045166,-1.65365 -0.29601,-0.63067 -1.109673,-1.79066 -1.808139,-2.57775 -1.699188,-1.91479 -0.68435,-1.33071 2.074209,1.19379 2.54912,2.33283 2.771057,2.6336 2.332896,3.16155 -0.433188,0.52196 -0.949046,0.48081 -1.5538,-0.12394 z"
         id="path5482" />
      <path
         style="fill:#9dabdc"
         d="m -59.131553,133.5762 c -0.534627,-0.0564 -1.111093,-0.27012 -1.281035,-0.47489 -0.260628,-0.31404 -0.398355,-0.31655 -0.880033,-0.0161 -0.436154,0.27209 -1.034578,0.30372 -2.533302,0.1339 -1.07924,-0.12229 -2.126723,-0.28546 -2.327741,-0.36259 -0.476399,-0.18281 -0.205807,-1.80869 0.494375,-2.9705 0.278087,-0.46143 0.786421,-1.65206 1.12963,-2.64584 0.789764,-2.28679 2.079736,-5.08797 2.659734,-5.77561 0.382926,-0.454 0.425179,-0.46217 0.29744,-0.0575 -1.487723,4.71256 -2.258114,7.95988 -1.959508,8.25963 0.175472,0.17614 0.40869,0.0435 0.697721,-0.39688 0.974086,-1.48409 3.475375,-3.83901 5.46783,-5.14786 2.616419,-1.71873 3.763772,-2.31672 4.240892,-2.2103 0.666539,0.14866 -0.314182,1.6234 -3.192562,4.80076 -1.501325,1.65727 -2.940257,3.4762 -3.197626,4.04208 -0.257369,0.56588 -0.523609,1.14726 -0.591644,1.29196 -0.06804,0.14471 0.290497,-0.0528 0.796738,-0.43895 1.234916,-0.94192 3.710373,-1.95811 5.635154,-2.31326 1.831612,-0.33797 2.483928,-0.0246 1.263007,0.60679 -0.437841,0.22642 -1.143357,0.74257 -1.567815,1.147 -1.156328,1.10177 -3.500729,2.72582 -3.861815,2.67522 -0.174565,-0.0245 -0.754812,-0.0906 -1.28944,-0.14706 z"
         id="path5481" />
      <path
         style="fill:#a9af90"
         d="m -76.713185,133.03407 c -0.465178,-0.30091 -1.420273,-1.99292 -1.42137,-2.51805 -0.0013,-0.6435 -0.88412,-2.32923 -2.384564,-4.55352 -1.283318,-1.90241 -4.293153,-4.94872 -6.275879,-6.35193 -0.615357,-0.4355 -1.121372,-0.88111 -1.124479,-0.99026 -0.01956,-0.68717 4.224812,0.46333 6.064542,1.64388 2.159056,1.38546 4.087583,3.73595 5.581804,6.80309 0.731937,1.50242 1.445761,2.73168 1.586274,2.73168 0.34333,0 0.378302,0.16779 -0.699921,-3.35807 -0.52547,-1.71832 -1.418439,-4.73138 -1.984375,-6.69568 -1.477477,-5.12816 -1.392289,-5.45219 0.789764,-3.00398 2.262467,2.53843 3.339916,5.2313 4.589387,11.47023 0.210372,1.05045 0.477331,1.71979 0.685912,1.71979 0.18782,0 0.615261,-0.6736 0.949869,-1.49688 0.885489,-2.1787 1.935535,-3.86677 3.171539,-5.09863 1.158282,-1.1544 2.882907,-2.14214 3.02591,-1.73302 0.04738,0.13555 -0.337458,0.93383 -0.855198,1.77395 -1.018118,1.65207 -2.857585,5.99222 -2.756701,6.50432 0.03411,0.17317 -0.150472,0.93992 -0.410189,1.70391 -0.480705,1.41404 -0.786866,1.60517 -2.281767,1.42444 -0.997702,-0.12062 -5.019851,-0.0736 -5.460969,0.0638 -0.270686,0.0843 -0.626001,0.0667 -0.789589,-0.0391 z"
         id="path5463" />
      <path
         style="fill:#a9af90"
         d="m -80.678687,132.96477 c -0.832864,-0.31491 -1.69019,-1.54533 -1.69019,-2.42573 v -0.77608 l 0.859896,0.58975 c 1.114196,0.76416 2.315104,1.87024 2.315104,2.13231 0,0.39064 -0.927713,0.69039 -1.48481,0.47975 z"
         id="path5462" />
      <path
         style="fill:#a9af90"
         d="m -84.463341,132.73161 c -0.278831,-0.27883 -0.749155,-1.02297 -1.045166,-1.65365 -0.29601,-0.63067 -1.109673,-1.79066 -1.808139,-2.57775 -1.699188,-1.91479 -0.68435,-1.33071 2.074209,1.19379 2.54912,2.33283 2.771057,2.6336 2.332896,3.16155 -0.433188,0.52196 -0.949046,0.48081 -1.5538,-0.12394 z"
         id="path5461" />
      <path
         style="fill:#a9af90"
         d="m -59.131553,133.5762 c -0.534627,-0.0564 -1.111093,-0.27012 -1.281035,-0.47489 -0.260628,-0.31404 -0.398355,-0.31655 -0.880033,-0.0161 -0.436154,0.27209 -1.034578,0.30372 -2.533302,0.1339 -1.07924,-0.12229 -2.126723,-0.28546 -2.327741,-0.36259 -0.476399,-0.18281 -0.205807,-1.80869 0.494375,-2.9705 0.278087,-0.46143 0.786421,-1.65206 1.12963,-2.64584 0.789764,-2.28679 2.079736,-5.08797 2.659734,-5.77561 0.382926,-0.454 0.425179,-0.46217 0.29744,-0.0575 -1.487723,4.71256 -2.258114,7.95988 -1.959508,8.25963 0.175472,0.17614 0.40869,0.0435 0.697721,-0.39688 0.974086,-1.48409 3.475375,-3.83901 5.46783,-5.14786 2.616419,-1.71873 3.763772,-2.31672 4.240892,-2.2103 0.666539,0.14866 -0.314182,1.6234 -3.192562,4.80076 -1.501325,1.65727 -2.940257,3.4762 -3.197626,4.04208 -0.257369,0.56588 -0.523609,1.14726 -0.591644,1.29196 -0.06804,0.14471 0.290497,-0.0528 0.796738,-0.43895 1.234916,-0.94192 3.710373,-1.95811 5.635154,-2.31326 1.831612,-0.33797 2.483928,-0.0246 1.263007,0.60679 -0.437841,0.22642 -1.143357,0.74257 -1.567815,1.147 -1.156328,1.10177 -3.500729,2.72582 -3.861815,2.67522 -0.174565,-0.0245 -0.754812,-0.0906 -1.28944,-0.14706 z"
         id="path5460" />
      <path
         style="fill:#7689ca"
         d="m -73.618715,132.21558 c -0.145359,-0.27161 -0.451963,-1.40242 -0.681343,-2.51292 -0.22938,-1.1105 -0.880022,-3.47788 -1.445871,-5.26086 -1.366341,-4.30529 -2.448939,-8.35546 -2.329317,-8.71433 0.161533,-0.4846 2.88169,2.98353 3.692666,4.70805 0.695669,1.47933 1.082805,2.87121 2.485401,8.93585 0.42029,1.81727 0.515316,2.00469 0.737854,1.4552 0.140489,-0.34689 0.821759,-1.82974 1.513933,-3.29524 1.035028,-2.19139 1.546703,-2.93135 2.881546,-4.16718 2.057999,-1.90535 2.67932,-1.98628 1.584119,-0.20635 -0.989587,1.60828 -2.901651,6.14061 -2.901651,6.87803 0,0.30041 -0.191521,1.02486 -0.425603,1.60989 -0.389276,0.9729 -0.508968,1.06369 -1.402292,1.06369 -0.537178,0 -1.119563,-0.14288 -1.294188,-0.3175 -0.246944,-0.24695 -0.388055,-0.24695 -0.635,0 -0.479885,0.47988 -1.482189,0.38061 -1.780254,-0.17633 z"
         id="path5425" />
      <path
         style="fill:#7689ca"
         d="m -77.199964,131.72195 c -0.369048,-0.54311 -0.670996,-1.14884 -0.670996,-1.34608 0,-0.52412 -1.692436,-3.46423 -3.126301,-5.43102 -1.134244,-1.55581 -2.607701,-3.01407 -5.478134,-5.42165 l -1.052857,-0.88309 1.190625,0.18708 c 3.0476,0.47887 6.021669,2.35972 8.003294,5.06142 0.818384,1.11576 3.174706,5.71473 3.884455,7.58151 0.316239,0.83177 -0.08346,1.23929 -1.215502,1.23929 -0.700939,0 -0.989962,-0.18598 -1.534584,-0.98746 z"
         id="path5424" />
      <path
         style="fill:#7689ca"
         d="m -80.655197,132.50692 c -0.39942,-0.28683 -1.246146,-1.67616 -1.106586,-1.81572 0.204969,-0.20497 1.774156,1.24985 1.774156,1.64485 0,0.40903 -0.247645,0.47242 -0.66757,0.17087 z"
         id="path5423" />
      <path
         style="fill:#7689ca"
         d="m -84.594315,131.89536 c -0.376738,-0.44773 -0.684978,-0.91485 -0.684978,-1.03804 0,-0.12319 -0.30824,-0.5903 -0.684978,-1.03803 -1.156045,-1.37388 -0.268636,-0.90192 1.175765,0.62532 1.250756,1.32249 1.716847,2.2648 1.120232,2.2648 -0.132585,0 -0.549303,-0.36633 -0.926041,-0.81405 z"
         id="path5422" />
      <path
         style="fill:#7689ca"
         d="m -64.906378,132.74072 c -0.859181,-0.15179 -0.923728,-0.23046 -0.893994,-1.08965 0.03567,-1.0308 2.917453,-8.38348 3.182074,-8.11886 0.04492,0.0449 -0.213392,1.18426 -0.574034,2.53186 -1.085373,4.05569 -0.750049,5.11123 0.895713,2.81955 0.466059,-0.64898 1.528039,-1.79077 2.359956,-2.53732 1.579253,-1.41719 5.961875,-4.22023 6.598441,-4.22023 0.646982,0 -0.411806,1.46411 -3.286589,4.54475 -1.484252,1.59054 -2.781227,3.15341 -2.882166,3.47305 -0.10094,0.31964 -0.597535,1.08718 -1.103544,1.70564 -0.854261,1.04411 -1.007566,1.12199 -2.144917,1.08965 -0.673694,-0.0192 -1.641617,-0.10845 -2.15094,-0.19844 z"
         id="path5421" />
      <path
         style="fill:#7689ca"
         d="m -59.762079,132.9496 c -0.223526,-0.36168 1.493823,-1.80074 2.915102,-2.44273 2.140519,-0.96686 5.546953,-1.56098 4.10377,-0.71574 -0.445231,0.26077 -1.362382,0.9057 -3.413561,2.40041 -1.461941,1.06532 -3.190755,1.42882 -3.605311,0.75806 z"
         id="path5420" />
      <path
         style="fill:#88976d"
         d="m -73.618715,132.21558 c -0.145359,-0.27161 -0.451963,-1.40242 -0.681343,-2.51292 -0.22938,-1.1105 -0.880022,-3.47788 -1.445871,-5.26086 -1.366341,-4.30529 -2.448939,-8.35546 -2.329317,-8.71433 0.161533,-0.4846 2.88169,2.98353 3.692666,4.70805 0.695669,1.47933 1.082805,2.87121 2.485401,8.93585 0.42029,1.81727 0.515316,2.00469 0.737854,1.4552 0.140489,-0.34689 0.821759,-1.82974 1.513933,-3.29524 1.035028,-2.19139 1.546703,-2.93135 2.881546,-4.16718 2.057999,-1.90535 2.67932,-1.98628 1.584119,-0.20635 -0.989587,1.60828 -2.901651,6.14061 -2.901651,6.87803 0,0.30041 -0.191521,1.02486 -0.425603,1.60989 -0.389276,0.9729 -0.508968,1.06369 -1.402292,1.06369 -0.537178,0 -1.119563,-0.14288 -1.294188,-0.3175 -0.246944,-0.24695 -0.388055,-0.24695 -0.635,0 -0.479885,0.47988 -1.482189,0.38061 -1.780254,-0.17633 z"
         id="path5392" />
      <path
         style="fill:#88976d"
         d="m -77.199964,131.72195 c -0.369048,-0.54311 -0.670996,-1.14884 -0.670996,-1.34608 0,-0.52412 -1.692436,-3.46423 -3.126301,-5.43102 -1.134244,-1.55581 -2.607701,-3.01407 -5.478134,-5.42165 l -1.052857,-0.88309 1.190625,0.18708 c 3.0476,0.47887 6.021669,2.35972 8.003294,5.06142 0.818384,1.11576 3.174706,5.71473 3.884455,7.58151 0.316239,0.83177 -0.08346,1.23929 -1.215502,1.23929 -0.700939,0 -0.989962,-0.18598 -1.534584,-0.98746 z"
         id="path5391" />
      <path
         style="fill:#88976d"
         d="m -80.655197,132.50692 c -0.39942,-0.28683 -1.246146,-1.67616 -1.106586,-1.81572 0.204969,-0.20497 1.774156,1.24985 1.774156,1.64485 0,0.40903 -0.247645,0.47242 -0.66757,0.17087 z"
         id="path5390" />
      <path
         style="fill:#88976d"
         d="m -84.594315,131.89536 c -0.376738,-0.44773 -0.684978,-0.91485 -0.684978,-1.03804 0,-0.12319 -0.30824,-0.5903 -0.684978,-1.03803 -1.156045,-1.37388 -0.268636,-0.90192 1.175765,0.62532 1.250756,1.32249 1.716847,2.2648 1.120232,2.2648 -0.132585,0 -0.549303,-0.36633 -0.926041,-0.81405 z"
         id="path5389" />
      <path
         style="fill:#88976d"
         d="m -64.906378,132.74072 c -0.859181,-0.15179 -0.923728,-0.23046 -0.893994,-1.08965 0.03567,-1.0308 2.917453,-8.38348 3.182074,-8.11886 0.04492,0.0449 -0.213392,1.18426 -0.574034,2.53186 -1.085373,4.05569 -0.750049,5.11123 0.895713,2.81955 0.466059,-0.64898 1.528039,-1.79077 2.359956,-2.53732 1.579253,-1.41719 5.961875,-4.22023 6.598441,-4.22023 0.646982,0 -0.411806,1.46411 -3.286589,4.54475 -1.484252,1.59054 -2.781227,3.15341 -2.882166,3.47305 -0.10094,0.31964 -0.597535,1.08718 -1.103544,1.70564 -0.854261,1.04411 -1.007566,1.12199 -2.144917,1.08965 -0.673694,-0.0192 -1.641617,-0.10845 -2.15094,-0.19844 z"
         id="path5388" />
      <path
         style="fill:#88976d"
         d="m -59.762079,132.9496 c -0.223526,-0.36168 1.493823,-1.80074 2.915102,-2.44273 2.140519,-0.96686 5.546953,-1.56098 4.10377,-0.71574 -0.445231,0.26077 -1.362382,0.9057 -3.413561,2.40041 -1.461941,1.06532 -3.190755,1.42882 -3.605311,0.75806 z"
         id="path5387" />
      <path
         style="fill:#78895c"
         d="m -84.164463,121.0481 c -1.075323,-0.7908 -1.468494,-1.57404 -0.784101,-1.56202 0.181901,0.003 0.845287,0.23933 1.474192,0.52473 0.908833,0.41244 1.125994,0.63773 1.058333,1.09795 -0.126663,0.86152 -0.512659,0.84813 -1.748424,-0.0607 z"
         id="path5347" />
      <path
         style="fill:#78895c"
         d="m -70.85958,132.18014 c -0.100117,-0.16199 -0.102371,-0.61518 -0.005,-1.00709 0.271365,-1.09232 2.565799,-4.84283 2.891759,-4.7269 0.311779,0.11087 0.310443,0.13344 -0.13585,2.29454 -0.667166,3.23064 -0.825765,3.56479 -1.733805,3.65293 -0.459286,0.0446 -0.916979,-0.0515 -1.017096,-0.21348 z"
         id="path5346" />
      <path
         style="fill:#78895c"
         d="m -73.318431,132.11374 c -0.161479,-0.19457 -0.543385,-1.50666 -0.848678,-2.91577 -0.579872,-2.67643 -0.517215,-4.42607 0.158502,-4.42607 0.463359,0 0.912392,1.09517 1.710539,4.17194 0.4823,1.85921 0.566332,2.56296 0.347523,2.91041 -0.372176,0.591 -0.994744,0.7091 -1.367886,0.25949 z"
         id="path5345" />
      <path
         style="fill:#78895c"
         d="m -77.701371,129.99742 c -0.624797,-1.34607 -1.632928,-3.23417 -2.240292,-4.19578 -0.607363,-0.96161 -1.104297,-1.87632 -1.104297,-2.03269 0,-0.44039 0.978234,-0.64604 1.569031,-0.32985 0.794155,0.42502 2.339072,2.56804 2.545062,3.53037 0.0995,0.46482 0.581428,1.49998 1.070957,2.30034 0.489529,0.80037 0.966787,1.84217 1.060574,2.31511 0.167467,0.84449 0.153186,0.85989 -0.797259,0.85989 -0.962362,0 -0.974141,-0.0137 -2.103776,-2.44739 z"
         id="path5344" />
      <path
         style="fill:#78895c"
         d="m -64.774086,132.47112 c -0.694398,-0.15367 -0.788785,-0.28298 -0.754082,-1.03306 0.05201,-1.12407 0.847528,-2.39083 1.175869,-1.87241 0.127363,0.20109 0.233391,0.63351 0.23562,0.96093 0.006,0.87944 0.276592,0.72323 1.557879,-0.8993 1.140705,-1.44451 3.08331,-2.65043 3.560838,-2.21049 0.120931,0.11141 -0.0279,0.68824 -0.330729,1.28184 -0.302832,0.5936 -0.550604,1.24096 -0.550604,1.43859 0,0.19762 -0.382666,0.85721 -0.85037,1.46575 -0.787698,1.02488 -0.938823,1.10412 -2.050521,1.07512 -0.660083,-0.0172 -1.557338,-0.11035 -1.9939,-0.20697 z"
         id="path5343" />
      <path
         style="fill:#78895c"
         d="m -59.185291,132.76206 c -0.151609,-0.24531 1.195564,-1.37313 2.350483,-1.96777 1.084936,-0.5586 2.776346,-1.0021 2.776346,-0.72797 0,0.12358 -0.863203,0.82705 -1.918229,1.56328 -1.786395,1.24658 -2.89602,1.63822 -3.2086,1.13246 z"
         id="path5342" />
      <path
         style="fill:#657749"
         d="m -70.727211,131.73139 c 0,-0.51728 1.282326,-2.46162 1.623484,-2.46162 0.260268,0 0.310989,1.85869 0.068,2.49191 -0.227485,0.59281 -1.691484,0.5666 -1.691484,-0.0303 z"
         id="path5305" />
      <path
         style="fill:#657749"
         d="m -73.190605,131.9964 c -0.510417,-0.8272 -0.91132,-5.37246 -0.473865,-5.37246 0.3797,0 1.665747,3.81457 1.569509,4.65536 -0.0834,0.72862 -0.799383,1.19724 -1.095644,0.7171 z"
         id="path5304" />
      <path
         style="fill:#657749"
         d="m -76.260194,131.9389 c -0.296435,-0.29643 -0.607798,-0.86942 -0.691918,-1.2733 -0.08412,-0.40389 -0.444335,-1.36205 -0.80048,-2.12926 -1.290751,-2.78055 -0.678761,-2.56395 1.324846,0.46888 1.413433,2.13949 1.716604,3.14022 1.020718,3.36925 -0.172806,0.0569 -0.556731,-0.13913 -0.853166,-0.43557 z"
         id="path5303" />
      <path
         style="fill:#657749"
         d="m -63.553656,132.46882 c -0.526683,-0.33354 0.920424,-2.41749 1.90496,-2.7433 0.8379,-0.27728 0.843695,-0.27453 1.086024,0.51479 0.129824,0.42287 -0.04259,0.82272 -0.655998,1.52136 -0.822346,0.9366 -1.600533,1.17227 -2.334986,0.70715 z"
         id="path5302" />
    </g>
  </g>
</svg>
