<?xml version="1.0" encoding="UTF-8" standalone="no"?>
<!-- Created with Inkscape (http://www.inkscape.org/) -->

<svg
   width="64.41539mm"
   height="58.992348mm"
   viewBox="0 0 64.41539 58.992348"
   version="1.1"
   id="svg1"
   xmlns="http://www.w3.org/2000/svg"
   xmlns:svg="http://www.w3.org/2000/svg">
  <defs
     id="defs1" />
  <g
     id="layer1"
     transform="translate(-55.297918,-112.44792)">
    <g
       id="g5600"
       transform="translate(241.85177,89.688583)">
      <path
         style="fill:#ebe5d8"
         d="m -187.48924,81.700681 c -2.3686,-0.497591 6.35497,-3.805619 13.11151,-4.971966 1.56435,-0.270046 2.84427,-0.573783 2.84427,-0.674971 0,-0.101189 -0.6939,-1.119845 -1.542,-2.26368 -2.19572,-2.961369 -5.6814,-6.37628 -7.91036,-7.749763 -2.01473,-1.241473 -2.39003,-1.694236 -1.89689,-2.288437 0.44644,-0.537927 3.06193,-0.454174 5.05662,0.161923 3.38147,1.044431 6.47023,3.549405 9.26081,7.510503 1.03838,1.473923 1.99077,2.79779 2.11644,2.941927 1.05504,1.210136 -3.78556,-8.663631 -6.54921,-13.358942 -3.3974,-5.77204 -3.41742,-5.814713 -2.94793,-6.284202 0.94027,-0.940269 6.71636,3.879514 9.34602,7.798661 0.5608,0.835785 1.76898,3.009835 2.68485,4.831221 0.91587,1.821386 1.60841,3.013955 1.53897,2.650153 -0.88855,-4.655699 -2.47706,-10.875388 -3.74632,-14.668523 -1.61815,-4.835784 -1.99002,-5.467742 -2.44666,-4.157846 -0.35686,1.023696 -1.85579,2.686786 -2.42157,2.686786 -0.90806,0 -1.45026,-0.989215 -1.45983,-2.663392 l -0.009,-1.569335 -1.2062,-3.03e-4 c -1.99729,-5.02e-4 -2.71127,-0.992517 -1.74938,-2.43062 0.40892,-0.611366 0.9854,-1.011589 1.90337,-1.321435 1.3879,-0.46846 1.36361,-0.414716 1.01624,-2.248081 -0.12802,-0.675666 -0.0257,-0.973965 0.52165,-1.521354 0.99463,-0.99463 2.51459,-0.947217 3.57327,0.111465 l 0.79236,0.792361 1.32226,-0.686012 c 0.99524,-0.516348 1.52632,-0.641191 2.14737,-0.504786 1.62634,0.357203 2.00116,2.129131 0.77904,3.682803 l -0.52072,0.661994 0.73745,0.383625 c 2.93165,1.525043 2.25065,4.330393 -1.02671,4.229515 -1.12941,-0.03476 -1.30426,0.02434 -1.17415,0.396875 2.56511,7.344769 4.08693,12.823706 5.48605,19.751134 1.1211,5.55091 1.26552,5.581078 0.63894,0.133462 -0.86097,-7.485367 -1.14339,-17.08608 -0.54617,-18.566521 0.29393,-0.72861 1.01177,-0.838801 1.50404,-0.230875 0.60528,0.747484 1.81358,4.417544 2.35591,7.15573 0.24498,1.236927 0.51197,2.070364 0.59331,1.852083 0.0813,-0.218281 0.34436,-3.135312 0.58449,-6.482291 0.24014,-3.34698 0.49939,-6.668607 0.57613,-7.381396 l 0.13951,-1.295978 -0.75736,0.533662 c -1.10927,0.781627 -1.77429,0.920725 -2.35874,0.493364 -0.66215,-0.484175 -0.68574,-2.308316 -0.0461,-3.568948 0.57511,-1.133545 0.58612,-1.083829 -0.24001,-1.083829 -1.91191,0 -3.48443,-0.99022 -3.11235,-1.959854 0.25665,-0.668809 1.9958,-1.591609 3.27785,-1.739242 l 1.19287,-0.137363 -0.0827,-1.060831 c -0.12559,-1.611565 0.82162,-2.883001 2.22522,-2.986888 0.86361,-0.06392 1.20108,0.05518 1.77087,0.624966 0.38716,0.387165 0.78147,1.117244 0.87624,1.622399 0.14762,0.786899 0.25277,0.893194 0.73403,0.742052 0.30895,-0.09703 1.15704,-0.231057 1.88464,-0.297844 2.46318,-0.226099 3.51856,1.053289 2.06661,2.505247 -0.41183,0.411827 -0.92622,0.807923 -1.1431,0.880215 -0.30612,0.10204 -0.20199,0.350486 0.46557,1.110789 1.32317,1.507006 1.11383,3.238584 -0.45159,3.73543 -0.5958,0.1891 -2.53114,-0.270942 -3.35339,-0.79712 -0.53297,-0.341058 -0.57232,-0.3073 -0.71914,0.616849 -0.55825,3.513957 -1.65786,20.085449 -1.353,20.390303 0.26982,0.269823 0.70326,-1.63607 0.92291,-4.058137 0.1324,-1.459982 0.36625,-3.071232 0.51966,-3.580555 0.15342,-0.509323 0.20248,-1.555967 0.10902,-2.325876 -0.22834,-1.881097 0.3868,-3.460924 1.82789,-4.694444 1.49822,-1.282416 2.39728,-1.200543 2.51489,0.229019 0.19013,2.311152 -1.11046,5.482686 -2.45855,5.995229 -0.8127,0.308987 -1.64597,2.912739 -0.93215,2.912739 0.14552,0 0.26458,-0.09763 0.26458,-0.216959 0,-0.560819 1.93532,-2.428875 2.51633,-2.428875 1.24933,0 1.14521,1.270639 -0.6366,7.769101 -1.54317,5.6281 -1.54376,6.487253 -10e-4,1.755899 1.53934,-4.72151 3.22584,-8.898197 4.96788,-12.303124 0.67006,-1.309688 1.25913,-2.470547 1.30904,-2.579688 0.0499,-0.109141 -0.60379,-0.198882 -1.45266,-0.199426 -1.75707,-0.0011 -3.2632,-0.718935 -3.2632,-1.555214 0,-0.662783 1.68371,-2.127518 2.67302,-2.32538 1.09656,-0.219311 1.14788,-0.455206 0.38302,-1.760353 -1.72898,-2.950274 0.11705,-4.036596 3.26249,-1.919867 l 1.31578,0.88545 0.3182,-0.768222 c 0.80029,-1.932049 3.02479,-2.689426 4.20605,-1.432032 0.52304,0.556745 0.59053,0.846581 0.47754,2.050521 -0.0724,0.77117 -0.21318,1.59423 -0.31288,1.829022 -0.1434,0.337701 0.0311,0.460861 0.83533,0.589457 1.1645,0.186211 2.10641,0.950533 2.34554,1.903315 0.36284,1.44565 -1.56847,2.87945 -3.67382,2.727439 -0.82934,-0.05988 -1.08059,0.02084 -1.13086,0.363318 -0.24456,1.66631 -1.62621,3.646868 -2.54408,3.646868 -0.14891,0 -0.68746,-0.416719 -1.19679,-0.926042 -0.50932,-0.509323 -0.97166,-0.926041 -1.02741,-0.926041 -0.39803,0 -4.60821,10.111751 -4.60821,11.067704 0,0.06991 0.79989,-0.992744 1.77753,-2.361447 3.58763,-5.022715 9.0886,-9.3814 9.99305,-7.917976 0.22268,0.360309 -0.20666,1.088338 -2.12295,3.599864 -1.90191,2.492686 -3.80181,5.629692 -5.69779,9.407877 l -1.31974,2.629889 2.45526,-2.460202 c 3.59584,-3.603074 6.63631,-5.208448 9.89735,-5.225822 1.66565,-0.0089 2.36552,0.354817 2.08274,1.082306 -0.0779,0.200346 -0.96393,0.872246 -1.96902,1.493113 -1.00508,0.620866 -2.55433,1.862554 -3.44278,2.759306 -1.57186,1.586559 -5.42845,6.419927 -5.7119,7.158579 -0.10806,0.281603 0.37355,0.445095 2.05175,0.696503 5.19356,0.778039 10.35994,2.06797 14.09921,3.520254 2.3403,0.908946 3.12916,1.429998 2.49437,1.647552 -0.44293,0.151797 -65.76677,0.35865 -66.47203,0.210489 z m 50.03412,-31.858823 c 0.43944,-0.439439 0.3969,-1.152803 -0.0983,-1.647976 -0.86058,-0.860585 -3.14936,-0.249141 -2.60947,0.697115 0.70158,1.229622 1.98004,1.67857 2.70775,0.950861 z m -30.36811,-2.334397 c 0.41678,-0.416772 0.4754,-0.647039 0.26487,-1.040414 -0.58527,-1.093586 -2.26843,-0.975661 -2.55829,0.179238 -0.31689,1.262611 1.28899,1.865615 2.29342,0.861176 z m 15.48428,-5.935114 c 1.13202,-0.472988 1.39145,-1.057787 0.77262,-1.741593 -0.61872,-0.683671 -1.97463,-0.673618 -2.71932,0.02016 -0.69354,0.646136 -0.7226,0.98004 -0.14117,1.622506 0.52898,0.584517 0.88529,0.601399 2.08787,0.09893 z"
         id="path5593" />
      <path
         style="fill:#e3d9c9"
         d="m -187.10786,81.4025 c -0.25536,-0.157824 -0.25156,-0.260325 0.0176,-0.474929 1.25542,-1.00092 8.47838,-3.200229 12.97711,-3.951381 1.56435,-0.2612 2.84427,-0.597573 2.84427,-0.747496 0,-0.493882 -3.37976,-4.787332 -5.34622,-6.791529 -1.0614,-1.081771 -2.87434,-2.617356 -4.02875,-3.412411 -1.15441,-0.795055 -2.14635,-1.59365 -2.20432,-1.774656 -0.20092,-0.627416 1.26122,-0.915726 3.05758,-0.602903 2.12863,0.370684 4.17019,1.273874 6.27586,2.776451 2.05017,1.462972 3.29073,2.85774 5.73289,6.445499 1.04619,1.536967 1.94213,2.67462 1.99096,2.528117 0.25064,-0.751916 -4.207,-9.722702 -8.04369,-16.187526 -2.02782,-3.416887 -2.45139,-4.552411 -1.69812,-4.552411 0.1379,0 1.14533,0.59835 2.23874,1.329666 4.25818,2.848045 7.99381,7.912017 10.49153,14.222176 0.47685,1.204711 0.90285,2.154536 0.94667,2.110722 0.0438,-0.04381 -0.14137,-1.208081 -0.41151,-2.587259 -1.77376,-9.055752 -5.03077,-19.573222 -6.06136,-19.573222 -0.1224,0 -0.42667,0.534501 -0.67615,1.18778 -0.45533,1.192247 -1.48157,2.251804 -2.181,2.251804 -0.63841,0 -1.20134,-1.777629 -1.00803,-3.183143 l 0.17252,-1.254434 -1.17256,0.132164 c -1.42091,0.160158 -2.30838,-0.255719 -2.30838,-1.081734 0,-0.988319 1.70837,-2.28577 3.0097,-2.28577 0.91918,0 1.01245,-0.28487 0.51113,-1.561112 -0.41539,-1.057462 -0.41112,-1.135789 0.0994,-1.822441 0.3817,-0.513422 0.81348,-0.741163 1.5181,-0.800726 0.84466,-0.0714 1.11565,0.05562 1.90559,0.8932 l 0.9209,0.976437 0.58167,-0.544846 c 1.23096,-1.153033 2.64162,-1.296563 3.69052,-0.375501 0.65058,0.571283 0.57582,1.47284 -0.19843,2.392987 -0.87355,1.038155 -0.838,1.262568 0.28439,1.79518 1.12237,0.532598 1.774,1.42783 1.65424,2.272671 -0.12694,0.895571 -1.64696,1.602099 -3.06311,1.423782 -0.61847,-0.07787 -1.12448,-0.06651 -1.12448,0.02526 0,0.09177 0.35365,1.131288 0.7859,2.310042 1.9358,5.279052 3.4287,10.778353 4.89142,18.018191 0.47041,2.328333 0.96303,4.173802 1.09471,4.101041 0.27999,-0.154706 0.29383,0.106761 -0.30813,-5.820833 -0.62513,-6.155834 -0.69516,-16.568366 -0.1139,-16.937662 0.21828,-0.138683 0.48311,-0.253975 0.58852,-0.256203 0.59533,-0.01259 2.14232,4.396147 2.71979,7.751073 0.23018,1.337233 0.49327,2.848053 0.58467,3.357375 0.10084,0.561989 0.39836,-2.0904 0.7568,-6.746874 0.32485,-4.220105 0.67777,-8.446823 0.78428,-9.392709 l 0.19364,-1.719791 -0.76333,0.695275 c -1.30576,1.189343 -1.9189,1.402843 -2.50513,0.872306 -0.64429,-0.583075 -0.63553,-1.523654 0.0278,-2.985537 0.28784,-0.634355 0.52335,-1.244094 0.52335,-1.354976 0,-0.110882 -0.6159,-0.283307 -1.36868,-0.383166 -1.79921,-0.238674 -2.38812,-0.572006 -2.28539,-1.293575 0.10747,-0.754904 2.09908,-1.768036 3.47559,-1.768036 h 1.03232 L -155.7748,37.8704 c -0.31027,-2.068998 1.04094,-3.660941 2.60319,-3.066977 0.8429,0.320471 1.45845,1.238887 1.65681,2.471992 0.12809,0.796282 0.25113,0.968366 0.58882,0.82351 1.97042,-0.845235 4.04067,-0.740497 4.63431,0.234459 0.24159,0.396759 0.13082,0.624493 -0.65776,1.352374 -0.52155,0.4814 -1.11668,0.931409 -1.32251,1.00002 -0.26524,0.08841 -0.0854,0.397187 0.61754,1.060117 0.78998,0.74505 0.99178,1.129653 0.99178,1.890217 0,1.805696 -1.71295,2.21312 -4.04645,0.962443 -0.74434,-0.398944 -1.02325,-0.448676 -1.11018,-0.197953 -0.57893,1.669789 -1.86227,22.427555 -1.38657,22.427555 0.27685,0 0.92596,-2.727092 1.10208,-4.630208 0.0943,-1.018646 0.30304,-2.328334 0.46392,-2.910417 0.16089,-0.582083 0.30478,-2.198703 0.31975,-3.592489 0.0254,-2.361045 0.079,-2.602064 0.78549,-3.528255 0.8923,-1.169847 2.19105,-2.026617 2.74806,-1.81287 0.31587,0.121207 0.37001,0.53332 0.27157,2.067137 -0.14224,2.216446 -1.05508,4.094313 -2.30428,4.740298 -0.869,0.449379 -1.34822,1.590848 -1.32575,3.157849 0.0136,0.944635 0.0563,1.020525 0.33073,0.586629 1.16979,-1.84976 2.37471,-3.100035 2.91361,-3.023306 0.89179,0.126973 0.84662,1.251252 -0.21076,5.246465 -1.4294,5.400815 -2.55767,10.322019 -2.46791,10.764391 0.0441,0.217493 0.83556,-2.027348 1.75873,-4.988537 1.87546,-6.015726 3.99418,-11.434705 5.75056,-14.708027 0.64344,-1.199165 1.1699,-2.240961 1.1699,-2.315104 0,-0.07414 -0.70878,-0.134806 -1.57505,-0.134806 -2.54565,0 -3.61129,-0.768942 -2.79409,-2.01615 0.46227,-0.705512 1.46389,-1.275346 2.71549,-1.544881 0.93138,-0.200574 1.0675,-0.527285 0.4919,-1.180635 -0.2024,-0.22974 -0.61372,-0.882115 -0.91404,-1.449723 -0.64808,-1.224889 -0.3978,-2.010694 0.64043,-2.010694 0.82077,0 2.45696,0.815137 3.13001,1.559346 0.70926,0.78425 1.05905,0.696715 1.44142,-0.36071 0.65167,-1.802146 2.63058,-2.575729 3.74309,-1.463219 0.63508,0.635081 0.70445,2.438695 0.13229,3.439583 -0.54306,0.949988 -0.52409,0.975175 0.85117,1.130186 1.31768,0.148522 2.45613,1.075867 2.45613,2.000697 0,1.295802 -1.85096,2.337074 -3.7109,2.087603 -0.9769,-0.13103 -1.0081,-0.109397 -1.18246,0.820053 -0.2481,1.322485 -0.81975,2.345346 -1.59444,2.85294 -0.60661,0.397466 -0.70662,0.396601 -1.32946,-0.0115 -0.37043,-0.242714 -0.80626,-0.732657 -0.96851,-1.088763 -0.16225,-0.356105 -0.37983,-0.647464 -0.48349,-0.647464 -0.63762,0 -5.88422,12.980555 -5.43014,13.434636 0.0615,0.06145 0.40674,-0.465655 0.76729,-1.171349 1.76523,-3.454974 5.73389,-7.991563 8.70906,-9.955345 3.33473,-2.201117 3.59554,-1.420076 0.79562,2.382693 -1.15412,1.567494 -2.71865,3.903854 -3.47674,5.191911 -1.97048,3.348025 -4.73378,8.90287 -4.42879,8.90287 0.0491,0 0.68734,-0.803672 1.4182,-1.785937 2.51478,-3.379821 5.9891,-6.140865 8.86588,-7.045724 1.78596,-0.561753 4.827,-0.507977 4.827,0.08536 0,0.210002 -0.8651,0.968195 -1.92244,1.684872 -1.05734,0.716677 -2.69201,2.09267 -3.6326,3.057761 -1.76522,1.811198 -5.6781,6.842872 -5.68538,7.310962 -0.002,0.145521 1.72659,0.538968 3.8419,0.874326 5.8663,0.930037 14.67456,3.525922 14.67456,4.324741 0,0.242635 -1.58006,0.257396 -39.83739,0.372161 -13.97969,0.04194 -25.56415,-0.01432 -25.74326,-0.125011 z m 49.75097,-31.416391 c 1.0906,-0.986979 0.12903,-2.472534 -1.60042,-2.472534 -1.68292,0 -1.98225,0.9357 -0.7406,2.315104 0.63207,0.702191 1.66249,0.771486 2.34102,0.15743 z m -30.53127,-2.090662 c 1.12797,-0.790063 0.42677,-2.498539 -1.02547,-2.498539 -0.78196,0 -1.56149,0.814416 -1.56149,1.631369 0,0.509127 0.95559,1.279048 1.5875,1.279048 0.22628,0 0.67604,-0.185345 0.99946,-0.411878 z m 16.19845,-6.432238 c 0.86663,-0.639371 0.95091,-1.200812 0.28085,-1.870866 -0.71179,-0.7118 -2.11639,-0.710436 -3.02329,0.0029 -0.84151,0.661934 -0.88874,1.376694 -0.14041,2.125023 0.64799,0.647998 1.79467,0.545737 2.88285,-0.257093 z"
         id="path5580" />
      <path
         style="fill:#dad7c5"
         d="m -151.13729,57.567741 c 0.005,-0.363802 -0.0697,-1.375833 -0.16701,-2.248958 -0.16757,-1.503343 -0.12988,-1.655798 0.71101,-2.87585 1.00087,-1.452182 2.05048,-2.187871 2.74254,-1.922303 0.39838,0.152875 0.44635,0.423047 0.33075,1.863092 -0.16826,2.096274 -1.23187,4.205118 -2.35563,4.670594 -0.42255,0.175029 -0.88153,0.510981 -1.01994,0.746559 -0.20559,0.349922 -0.24984,0.307248 -0.24172,-0.233134 z"
         id="path5566" />
      <path
         style="fill:#dad7c5"
         d="m -176.62668,81.44328 c -6.18466,-0.04178 -10.25261,-0.168087 -10.25261,-0.318348 0,-0.860504 7.46461,-3.015653 15.30049,-4.417493 l 0.61612,-0.110223 -0.61612,-1.032404 c -2.00972,-3.367614 -5.97408,-7.518719 -9.36698,-9.808222 -1.098,-0.740927 -1.95009,-1.487539 -1.89351,-1.65914 0.18237,-0.553221 3.03166,-0.517729 4.93871,0.06152 3.56117,1.08167 6.91531,3.952374 9.92485,8.494351 1.01086,1.525588 1.87406,2.823406 1.91823,2.884039 0.0442,0.06063 0.15539,0.03515 0.24717,-0.05664 0.43792,-0.437918 -4.07269,-9.707904 -7.8103,-16.051346 -1.32591,-2.250319 -2.41074,-4.185085 -2.41074,-4.299479 0,-0.516672 1.22533,-0.115316 2.72649,0.893062 2.01412,1.352938 5.03671,4.400677 6.39735,6.450576 1.36997,2.063945 3.34548,5.908856 4.2598,8.290776 0.41206,1.073478 0.78968,1.830327 0.83916,1.681887 0.11032,-0.330956 -0.66561,-4.166978 -1.9124,-9.454498 -1.50693,-6.390751 -3.80654,-12.832292 -4.58109,-12.832292 -0.11877,0 -0.46194,0.582237 -0.7626,1.293859 -0.56891,1.346577 -1.6571,2.310758 -2.32059,2.056149 -0.54314,-0.208419 -0.98464,-2.063836 -0.78628,-3.304315 l 0.1672,-1.045595 -1.18103,0.133119 c -1.42961,0.161138 -2.31685,-0.252744 -2.31685,-1.08078 0,-0.988319 1.70837,-2.28577 3.0097,-2.28577 0.91918,0 1.01245,-0.28487 0.51113,-1.561112 -0.41539,-1.057462 -0.41112,-1.135789 0.0994,-1.822441 0.3817,-0.513422 0.81348,-0.741163 1.5181,-0.800726 0.84466,-0.0714 1.11565,0.05562 1.90559,0.8932 l 0.9209,0.976437 0.58167,-0.544846 c 1.23096,-1.153033 2.64162,-1.296563 3.69052,-0.375501 0.65058,0.571283 0.57582,1.47284 -0.19843,2.392987 -0.87355,1.038155 -0.838,1.262568 0.28439,1.79518 1.12237,0.532598 1.774,1.42783 1.65424,2.272671 -0.12694,0.895571 -1.64696,1.602099 -3.06311,1.423782 -0.61847,-0.07787 -1.12448,-0.09149 -1.12448,-0.03026 0,0.06123 0.66043,2.112782 1.46763,4.559 1.71543,5.198628 3.04256,10.241665 4.19364,15.935615 0.53854,2.663958 0.95229,4.122131 1.19233,4.202144 0.29476,0.09825 0.33427,-0.133397 0.19939,-1.169195 -0.9938,-7.632157 -1.46136,-20.874544 -0.76186,-21.577604 0.59557,-0.598589 1.20937,0.113861 1.99748,2.318481 0.78701,2.201557 1.76274,6.679346 1.76961,8.121049 0.002,0.467782 0.10008,1.001823 0.21746,1.186757 0.11737,0.184934 0.42526,-2.791628 0.68419,-6.614583 0.25893,-3.822955 0.61949,-8.056152 0.80123,-9.407106 0.18175,-1.350953 0.24514,-2.509005 0.14087,-2.573448 -0.10427,-0.06444 -0.41358,0.130338 -0.68734,0.432846 -0.27377,0.302508 -0.84812,0.731194 -1.27634,0.952635 -0.73406,0.379595 -0.80596,0.368805 -1.2574,-0.188691 -0.61046,-0.753889 -0.59712,-1.436966 0.0562,-2.876685 0.28784,-0.634355 0.52335,-1.244094 0.52335,-1.354976 0,-0.110882 -0.6159,-0.283307 -1.36868,-0.383166 -1.79921,-0.238674 -2.38812,-0.572006 -2.28539,-1.293575 0.10766,-0.756269 2.09998,-1.768036 3.48152,-1.768036 h 1.03823 l -0.16568,-1.208748 c -0.52093,-3.80062 3.62793,-4.351606 4.23741,-0.562744 0.12809,0.796282 0.25113,0.968366 0.58882,0.82351 1.97042,-0.845235 4.04067,-0.740497 4.63431,0.234459 0.24159,0.396759 0.13082,0.624493 -0.65776,1.352374 -0.52155,0.4814 -1.11668,0.931409 -1.32251,1.00002 -0.26524,0.08841 -0.0854,0.397187 0.61754,1.060117 0.78998,0.74505 0.99178,1.129653 0.99178,1.890217 0,1.805696 -1.71295,2.21312 -4.04645,0.962443 -1.10677,-0.593194 -1.0963,-0.603338 -1.36967,1.327519 -0.75734,5.349162 -1.58938,21.594205 -1.08195,21.124369 0.34271,-0.317317 1.19717,-4.036919 1.20588,-5.249369 0.005,-0.654844 0.17401,-1.726406 0.37624,-2.38125 l 0.36768,-1.190625 0.0913,1.719791 0.0913,1.719792 0.49927,-0.926042 c 0.8308,-1.540947 2.02966,-2.910416 2.54784,-2.910416 1.03988,0 0.92538,1.283314 -0.6326,7.090357 -0.87073,3.245436 -1.78714,7.139354 -2.12775,9.040958 -0.3665,2.046167 0.38434,0.127154 1.96369,-5.018815 1.7146,-5.586658 3.65219,-10.558587 5.70381,-14.636189 0.64563,-1.283185 1.17387,-2.384513 1.17387,-2.447396 0,-0.06288 -0.70878,-0.114332 -1.57505,-0.114332 -2.40232,0 -3.53216,-0.713611 -2.92527,-1.847602 0.33772,-0.631041 1.7553,-1.485944 2.84667,-1.716754 1.03489,-0.218863 1.0518,-0.362687 0.19173,-1.630073 -1.20358,-1.773583 -1.19992,-3.007654 0.009,-3.007654 0.83608,0 2.46899,0.808949 3.14763,1.559346 0.70926,0.78425 1.05905,0.696715 1.44142,-0.36071 0.65167,-1.802146 2.63058,-2.575729 3.74309,-1.463219 0.63508,0.635081 0.70445,2.438695 0.13229,3.439583 -0.54306,0.949988 -0.52409,0.975175 0.85117,1.130186 1.31768,0.148522 2.45613,1.075867 2.45613,2.000697 0,1.295802 -1.85096,2.337074 -3.7109,2.087603 -0.9769,-0.13103 -1.0081,-0.109397 -1.18246,0.820053 -0.2481,1.322485 -0.81975,2.345346 -1.59444,2.85294 -0.60661,0.397466 -0.70662,0.396601 -1.32946,-0.0115 -0.37043,-0.242714 -0.80626,-0.732657 -0.96851,-1.088763 -0.16225,-0.356105 -0.39324,-0.647464 -0.51331,-0.647464 -0.47144,0 -2.86103,5.383703 -4.57429,10.305751 -1.12754,3.239339 -1.20162,4.069182 -0.20192,2.261957 3.15835,-5.709605 10.10568,-12.40981 11.4616,-11.053895 0.16759,0.167594 -0.31972,1.036864 -1.39081,2.480941 -0.90684,1.222625 -2.30881,3.234985 -3.11549,4.471912 -1.52761,2.342371 -5.7097,10.541846 -5.48924,10.762305 0.0695,0.06952 0.61904,-0.599059 1.22117,-1.485724 3.37253,-4.966281 8.61019,-8.389539 12.49485,-8.166456 2.03384,0.116797 1.97579,0.650406 -0.22565,2.074106 -0.98261,0.63547 -2.56963,1.935155 -3.52671,2.888189 -1.88453,1.876572 -5.8211,7.005362 -5.8211,7.584062 0,0.394144 0.24364,0.460194 3.30729,0.896584 5.66112,0.806378 14.99965,3.508175 14.56371,4.213534 -0.0732,0.118509 -7.66629,0.241358 -16.87344,0.272997 -9.20715,0.03164 -19.12152,0.07669 -22.03193,0.10011 -2.91042,0.02342 -9.90534,0.01142 -15.54427,-0.02667 z m 39.26979,-31.457171 c 1.0906,-0.986979 0.12903,-2.472534 -1.60042,-2.472534 -1.68292,0 -1.98225,0.9357 -0.7406,2.315104 0.63207,0.702191 1.66249,0.771486 2.34102,0.15743 z m -30.53127,-2.090662 c 1.12797,-0.790063 0.42677,-2.498539 -1.02547,-2.498539 -0.78196,0 -1.56149,0.814416 -1.56149,1.631369 0,0.509127 0.95559,1.279048 1.5875,1.279048 0.22628,0 0.67604,-0.185345 0.99946,-0.411878 z m 16.19845,-6.432238 c 0.86663,-0.639371 0.95091,-1.200812 0.28085,-1.870866 -0.71179,-0.7118 -2.11639,-0.710436 -3.02329,0.0029 -0.84151,0.661934 -0.88874,1.376694 -0.14041,2.125023 0.64799,0.647998 1.79467,0.545737 2.88285,-0.257093 z"
         id="path5565" />
      <path
         style="fill:#d1c5b1"
         d="m -151.17554,55.924199 c -0.22779,-0.845961 -0.22301,-1.370897 0.0199,-2.181536 0.34135,-1.139332 2.29327,-3.319021 2.97219,-3.319021 1.37177,0 0.15308,5.524411 -1.40232,6.356836 -0.91288,0.488554 -1.28099,0.290274 -1.58973,-0.856279 z"
         id="path5550" />
      <path
         style="fill:#d1c5b1"
         d="m -181.32304,81.130529 -5.42396,-0.147513 1.32292,-0.566364 c 2.52671,-1.08173 8.30409,-2.641585 12.17083,-3.286047 1.01865,-0.169776 1.96353,-0.412572 2.09975,-0.539548 0.49893,-0.465095 -3.81635,-6.001238 -6.69624,-8.590714 -0.6363,-0.572134 -1.94599,-1.578208 -2.91042,-2.235721 -0.96442,-0.657513 -1.7535,-1.371888 -1.7535,-1.5875 0,-0.582734 1.75182,-0.638306 3.85718,-0.12236 3.82226,0.936693 7.17835,3.67205 10.53686,8.58799 1.26589,1.852921 2.30254,3.126598 2.43606,2.993074 0.49331,-0.493305 -4.11748,-10.03383 -7.95863,-16.467788 -2.84075,-4.758296 -2.81147,-5.095539 0.26487,-3.050393 4.10903,2.73168 7.90248,7.888152 10.36594,14.090545 0.76734,1.931971 1.43701,3.387157 1.48814,3.233748 0.25405,-0.762141 -2.70675,-13.365741 -4.22644,-17.991213 -1.06134,-3.230393 -2.22996,-5.820833 -2.62595,-5.820833 -0.10872,0 -0.38792,0.558375 -0.62046,1.240833 -1.17161,3.438481 -3.35959,3.156504 -2.95586,-0.380938 l 0.15853,-1.389062 h -1.55741 c -1.86735,0 -2.43489,-0.431081 -1.89519,-1.43952 0.39544,-0.738876 1.59635,-1.383752 2.98496,-1.602884 1.12236,-0.177116 1.16215,-0.287392 0.55962,-1.550908 -0.56158,-1.177649 -0.31872,-2.129651 0.64514,-2.528893 0.981,-0.406343 1.89734,-0.05466 2.77303,1.064261 l 0.67354,0.860627 0.95776,-0.840925 c 1.00274,-0.880414 2.10713,-1.08417 3.07341,-0.567032 0.80678,0.431775 0.67789,1.913085 -0.25754,2.960019 l -0.76931,0.861011 1.22406,0.664518 c 0.67324,0.365485 1.40638,0.998892 1.62921,1.407571 0.38851,0.712554 0.37467,0.76957 -0.33722,1.389063 -0.61134,0.531999 -1.02491,0.646009 -2.34341,0.646009 -1.42402,0 -1.57911,0.05119 -1.40259,0.46302 1.81295,4.229774 4.94637,15.602335 6.08819,22.096696 0.38815,2.207655 0.76467,3.007391 1.0571,2.24531 0.0884,-0.230382 -0.0863,-3.078049 -0.3882,-6.328148 -0.56581,-6.090967 -0.74532,-15.640397 -0.307,-16.33262 0.9393,-1.483427 2.85704,3.881382 3.56098,9.961696 0.32228,2.783643 0.695,4.199623 0.695,2.640294 0,-1.753328 0.84857,-13.133899 1.21487,-16.293295 0.22519,-1.942282 0.34697,-3.593892 0.27062,-3.670246 -0.0764,-0.07635 -0.51056,0.232905 -0.96489,0.687241 -0.8528,0.8528 -1.86868,1.269669 -2.35765,0.96747 -0.44854,-0.277215 -0.31216,-2.028629 0.25536,-3.279333 0.28785,-0.634355 0.52336,-1.242896 0.52336,-1.352314 0,-0.109419 -0.73002,-0.265138 -1.62226,-0.346044 -1.89784,-0.17209 -2.65531,-0.690505 -2.05918,-1.409308 0.56312,-0.679002 1.93183,-1.162919 3.2892,-1.162919 h 1.21226 l -0.17107,-1.521354 c -0.14789,-1.315229 -0.0933,-1.619936 0.40294,-2.248959 1.1661,-1.478113 3.0793,-0.54164 3.37342,1.65122 0.13965,1.041138 0.19017,1.097001 0.83821,0.926776 2.22649,-0.584851 4.52606,-0.330413 4.52606,0.50079 0,0.36708 -0.99311,1.30962 -2.01043,1.90806 -0.45878,0.269873 -0.42502,0.355386 0.47564,1.204813 1.09698,1.034587 1.45416,2.032228 1.01881,2.845677 -0.42659,0.797099 -2.18256,0.744186 -3.67821,-0.110835 -0.63332,-0.36205 -1.18355,-0.658272 -1.22273,-0.658272 -0.0806,0 -0.52434,3.595964 -0.93045,7.540625 -0.30828,2.994352 -0.79036,11.789768 -0.79398,14.485938 -0.001,0.982265 0.0997,1.785937 0.22458,1.785937 0.25312,0 1.23366,-3.642062 1.5315,-5.688542 0.11715,-0.804926 0.23217,-1.089821 0.29376,-0.727604 0.15497,0.911352 0.47024,0.723517 1.33227,-0.79375 0.90853,-1.599105 2.00438,-2.71435 2.41674,-2.459501 0.62015,0.383276 0.37166,1.833802 -1.65664,9.670281 -1.24625,4.815005 -1.77181,7.749458 -1.30298,7.275158 0.14385,-0.145521 1.05735,-2.824427 2.03,-5.953125 1.92917,-6.205457 3.78303,-10.950764 5.76118,-14.746854 0.70039,-1.344051 1.27344,-2.496308 1.27344,-2.560571 0,-0.06426 -0.62594,-0.05224 -1.39098,0.02672 -1.72695,0.178238 -3.37152,-0.413521 -3.37152,-1.213163 0,-0.712367 1.46999,-1.790532 2.87018,-2.105133 0.62687,-0.14085 1.2007,-0.317019 1.27517,-0.391487 0.0745,-0.07447 -0.35152,-0.852414 -0.94664,-1.72877 -1.23611,-1.820243 -1.28278,-2.025526 -0.54973,-2.41784 0.71441,-0.382345 2.63186,0.461238 3.6956,1.625888 l 0.78389,0.858242 0.42987,-1.042787 c 0.65928,-1.599261 1.37184,-2.233412 2.50955,-2.233412 0.56311,0 1.12487,0.174784 1.32089,0.410973 0.47472,0.571995 0.42373,2.467283 -0.0931,3.462806 l -0.43149,0.831071 1.16389,0.174536 c 1.51166,0.226687 2.52405,1.02005 2.52405,1.977977 0,1.18844 -0.83795,1.711845 -2.92985,1.830048 -1.76516,0.09974 -1.83265,0.128607 -1.83265,0.783911 0,1.107739 -1.02497,2.945641 -1.74329,3.125926 -0.91697,0.230146 -1.29006,0.0096 -1.79932,-1.063576 -0.24803,-0.522686 -0.56243,-0.950338 -0.69868,-0.950338 -0.75212,0 -6.09538,13.307682 -5.75421,14.331194 0.0545,0.163505 0.66893,-0.718024 1.3654,-1.958953 2.37239,-4.226979 6.56626,-8.774136 9.47946,-10.277993 2.11744,-1.093071 2.04041,-0.497199 -0.34653,2.680825 -1.03314,1.375532 -2.46977,3.500224 -3.19251,4.721536 -1.56988,2.65283 -6.04157,11.527534 -6.04157,11.990361 0,0.179229 0.72746,-0.801783 1.61656,-2.180028 2.33355,-3.61734 5.57552,-6.744979 8.44971,-8.15173 2.31266,-1.131914 5.24311,-1.686729 6.04107,-1.143742 0.5122,0.348541 0.21723,0.701852 -1.50662,1.804586 -2.07935,1.330137 -4.76381,3.986664 -6.89756,6.825778 -2.41953,3.21936 -2.7989,3.835445 -2.51697,4.087458 0.13078,0.116897 1.60699,0.420335 3.28048,0.674308 4.78063,0.725521 12.3029,2.716541 14.02292,3.711636 0.76377,0.441871 3.53733,0.397166 -30.95625,0.498964 -12.15099,0.03586 -24.53349,-0.0012 -27.51667,-0.08231 z m 44.11927,-31.03625 c 0.42668,-0.341366 0.42557,-1.556467 -0.002,-2.141157 -0.33593,-0.459407 -0.94031,-0.576928 -2.51157,-0.488365 -0.73412,0.04138 -0.8599,0.147767 -0.8599,0.72732 0,1.857231 2.01176,2.991611 3.37344,1.902202 z m -30.44413,-2.362591 c 0.79063,-0.742762 0.77214,-1.153988 -0.0877,-1.950888 -1.17213,-1.086288 -2.42953,-0.687751 -2.81483,0.892165 -0.34328,1.407577 1.72729,2.162827 2.90256,1.058723 z m 16.05388,-6.17193 c 0.42125,-0.276014 0.69806,-0.700011 0.69806,-1.069217 0,-0.716606 -1.13862,-1.708566 -1.96118,-1.708566 -0.83571,0 -2.53673,1.251909 -2.53673,1.866972 0,0.09808 0.25709,0.505177 0.57132,0.904654 0.48684,0.618911 0.71619,0.706893 1.55089,0.594936 0.53876,-0.07226 1.2937,-0.337214 1.67764,-0.588779 z"
         id="path5549" />
      <path
         style="fill:#cbbca7"
         d="m -150.88665,56.526802 c -0.53195,-0.993962 -0.32082,-2.751058 0.4807,-4.000489 0.74027,-1.153955 2.18131,-2.253226 2.51558,-1.918961 0.26476,0.264761 0.19604,2.488247 -0.11108,3.594184 -0.30546,1.099975 -1.6838,2.837039 -2.25115,2.837039 -0.19808,0 -0.48341,-0.230298 -0.63405,-0.511773 z"
         id="path5531" />
      <path
         style="fill:#cbbca7"
         d="m -168.75232,80.553646 c -0.87227,-0.765863 -0.89275,-0.769897 -1.25841,-0.247845 -0.37507,0.535495 -1.09497,0.682269 -2.91179,0.593663 -0.69353,-0.03382 -0.99219,-0.170353 -0.99219,-0.453568 0,-0.555292 -0.5678,-0.725961 -1.38348,-0.415842 -0.55039,0.209258 -0.77033,0.160179 -1.1469,-0.255927 -0.40064,-0.442696 -0.52479,-0.463763 -0.886,-0.150344 -0.23104,0.20047 -0.56795,0.310892 -0.74869,0.245381 -0.57519,-0.208487 0.14133,-1.134756 0.87781,-1.134756 0.36457,0 0.98546,-0.229983 1.37975,-0.511072 0.40229,-0.286791 1.58394,-0.640094 2.69265,-0.805076 2.87982,-0.428532 2.8805,-0.437626 0.29214,-3.928545 -2.19272,-2.957323 -5.63084,-6.365916 -7.90486,-7.836972 -1.04702,-0.67731 -1.90366,-1.339371 -1.90366,-1.471248 0,-0.878249 4.18081,-0.306414 6.55469,0.896524 3.2911,1.667725 5.51785,3.887699 8.45663,8.430868 1.37946,2.132577 2.18659,2.853238 2.18659,1.952349 0,-1.129265 -4.14886,-9.507387 -7.68776,-15.52449 -1.58567,-2.696087 -2.57773,-4.644759 -2.43652,-4.785975 0.38337,-0.383364 3.38828,1.730281 5.49704,3.866599 3.19774,3.239519 5.97335,7.955208 7.78986,13.234746 0.45061,1.309688 0.87867,2.54712 0.95123,2.749849 0.0726,0.202729 0.18888,0.311656 0.25848,0.24206 0.15607,-0.156069 -1.07841,-6.235116 -2.4881,-12.252325 -1.54929,-6.613136 -3.96921,-13.361458 -4.79135,-13.361458 -0.11998,0 -0.40839,0.558375 -0.64093,1.240833 -1.17161,3.438481 -3.35959,3.156504 -2.95586,-0.380938 l 0.15853,-1.389062 h -1.55741 c -1.86735,0 -2.43489,-0.431081 -1.89519,-1.43952 0.39544,-0.738876 1.59635,-1.383752 2.98496,-1.602884 1.12236,-0.177116 1.16215,-0.287392 0.55962,-1.550908 -0.56158,-1.177649 -0.31872,-2.129651 0.64514,-2.528893 0.981,-0.406343 1.89734,-0.05466 2.77303,1.064261 l 0.67354,0.860627 0.95776,-0.840925 c 1.00274,-0.880414 2.10713,-1.08417 3.07341,-0.567032 0.80678,0.431775 0.67789,1.913085 -0.25754,2.960019 l -0.76931,0.861011 1.22406,0.664518 c 0.67324,0.365485 1.40638,0.998892 1.62921,1.407571 0.38851,0.712554 0.37467,0.76957 -0.33722,1.389063 -0.61162,0.532242 -1.02476,0.646009 -2.34596,0.646009 -1.40997,0 -1.58486,0.05591 -1.44841,0.46302 0.0854,0.254662 0.8174,2.427552 1.62677,4.828646 1.51777,4.502703 3.48888,12.091452 4.22647,16.271875 0.6122,3.469737 0.64234,3.571875 1.05417,3.571875 0.20692,0 0.42808,-0.0893 0.49146,-0.198438 0.0634,-0.10914 -0.10581,-2.282031 -0.37598,-4.828645 -0.64196,-6.050857 -0.94569,-16.50135 -0.51137,-17.594792 l 0.31528,-0.79375 0.48828,0.599523 c 1.07878,1.324525 2.41791,6.564222 2.79184,10.923788 0.29351,3.421959 0.55875,3.648316 0.75876,0.647522 0.57742,-8.663151 0.99363,-14.068822 1.25815,-16.340835 0.16537,-1.420376 0.22791,-2.655268 0.13897,-2.744204 -0.0889,-0.08894 -0.53343,0.210027 -0.98776,0.664363 -0.8528,0.8528 -1.86868,1.269669 -2.35765,0.96747 -0.44854,-0.277215 -0.31216,-2.028629 0.25536,-3.279333 0.28785,-0.634355 0.52336,-1.242896 0.52336,-1.352314 0,-0.109419 -0.73002,-0.265138 -1.62226,-0.346044 -1.89784,-0.17209 -2.65531,-0.690505 -2.05918,-1.409308 0.56312,-0.679002 1.93183,-1.162919 3.2892,-1.162919 h 1.21226 l -0.17107,-1.521354 c -0.14789,-1.315229 -0.0933,-1.619936 0.40294,-2.248959 1.1661,-1.478113 3.0793,-0.54164 3.37342,1.65122 0.13965,1.041138 0.19017,1.097001 0.83821,0.926776 2.22649,-0.584851 4.52606,-0.330413 4.52606,0.50079 0,0.36708 -0.99311,1.30962 -2.01043,1.90806 -0.45878,0.269873 -0.42502,0.355386 0.47564,1.204813 1.09698,1.034587 1.45416,2.032228 1.01881,2.845677 -0.42801,0.799748 -2.18272,0.744086 -3.68911,-0.117026 -0.63932,-0.365454 -1.213,-0.613854 -1.27485,-0.552 -0.16748,0.167482 -0.54175,3.19666 -1.00102,8.102003 -0.52833,5.642839 -0.83439,16.372578 -0.45661,16.007291 0.29479,-0.285032 1.2353,-3.341773 1.52641,-4.960937 0.0981,-0.545704 0.32168,-0.992188 0.49681,-0.992188 0.17513,0 0.50629,-0.386953 0.73591,-0.859896 0.78833,-1.623705 2.04314,-3.108854 2.62669,-3.108854 0.52087,0 0.54887,0.09586 0.38621,1.322059 -0.0965,0.727132 -0.87222,4.090648 -1.72392,7.474479 -1.76642,7.018042 -2.04487,8.502753 -1.56463,8.342671 0.17736,-0.05912 1.17765,-2.838298 2.22287,-6.175953 2.03842,-6.509169 3.92317,-11.336364 5.81403,-14.890822 0.64883,-1.219672 1.17969,-2.314605 1.17969,-2.433184 0,-0.11858 -0.62594,-0.150997 -1.39098,-0.07204 -1.72695,0.178238 -3.37152,-0.413521 -3.37152,-1.213163 0,-0.712367 1.46999,-1.790532 2.87018,-2.105133 0.62687,-0.14085 1.2007,-0.317019 1.27517,-0.391487 0.0745,-0.07447 -0.35152,-0.852414 -0.94664,-1.72877 -1.23611,-1.820243 -1.28278,-2.025526 -0.54973,-2.41784 0.71441,-0.382345 2.63186,0.461238 3.6956,1.625888 l 0.78389,0.858242 0.42987,-1.042787 c 0.65928,-1.599261 1.37184,-2.233412 2.50955,-2.233412 0.56311,0 1.12487,0.174784 1.32089,0.410973 0.47472,0.571995 0.42373,2.467283 -0.0931,3.462806 l -0.43149,0.831071 1.16389,0.174536 c 1.51166,0.226687 2.52405,1.02005 2.52405,1.977977 0,1.18844 -0.83795,1.711845 -2.92985,1.830048 -1.76516,0.09974 -1.83265,0.128607 -1.83265,0.783911 0,1.107739 -1.02497,2.945641 -1.74329,3.125926 -0.94504,0.237191 -1.29395,0.0061 -1.88423,-1.248105 l -0.53374,-1.134047 -0.65897,1.044014 c -1.60211,2.538244 -5.73042,13.312894 -5.43751,14.191604 0.0524,0.157215 0.82831,-0.95074 1.72424,-2.462122 2.6753,-4.513091 5.29569,-7.464925 8.63334,-9.72535 2.70145,-1.829561 2.78471,-1.200479 0.28417,2.147308 -1.11468,1.492375 -2.65809,3.784971 -3.4298,5.094658 -2.08166,3.532876 -6.07699,11.737341 -5.82871,11.969313 0.11864,0.110836 0.25957,0.08055 0.31318,-0.06731 0.0536,-0.147857 0.78146,-1.304337 1.61743,-2.569954 3.93941,-5.964104 8.42657,-9.199756 12.75812,-9.199756 2.06178,0 2.05664,0.360447 -0.0243,1.70127 -0.88756,0.571897 -2.41209,1.822053 -3.38785,2.778125 -2.21746,2.172734 -6.10626,7.352383 -6.10626,8.133168 0,0.498719 0.18385,0.606911 1.25677,0.739564 0.69122,0.08546 2.04771,0.330882 3.01442,0.545379 0.9667,0.214496 2.06384,0.389994 2.43808,0.389994 0.78652,0 1.46397,0.911255 0.85202,1.14608 -0.20158,0.07735 -0.63352,0.07082 -0.95987,-0.01452 -0.52848,-0.138202 -0.57824,-0.07609 -0.4551,0.568117 0.0845,0.441831 0.0115,0.771923 -0.18746,0.848277 -0.91491,0.351084 -10.07177,0.679064 -21.12442,0.756635 l -12.38743,0.08694 z m 31.54855,-30.459017 c 0.42668,-0.341366 0.42557,-1.556467 -0.002,-2.141157 -0.33593,-0.459407 -0.94031,-0.576928 -2.51157,-0.488365 -0.73412,0.04138 -0.8599,0.147767 -0.8599,0.72732 0,1.857231 2.01176,2.991611 3.37344,1.902202 z m -30.44413,-2.362591 c 0.79063,-0.742762 0.77214,-1.153988 -0.0877,-1.950888 -1.17213,-1.086288 -2.42953,-0.687751 -2.81483,0.892165 -0.34328,1.407577 1.72729,2.162827 2.90256,1.058723 z m 16.05388,-6.17193 c 0.42125,-0.276014 0.69806,-0.700011 0.69806,-1.069217 0,-0.716606 -1.13862,-1.708566 -1.96118,-1.708566 -0.83571,0 -2.53673,1.251909 -2.53673,1.866972 0,0.09808 0.25709,0.505177 0.57132,0.904654 0.48684,0.618911 0.71619,0.706893 1.55089,0.594936 0.53876,-0.07226 1.2937,-0.337214 1.67764,-0.588779 z"
         id="path5530" />
      <path
         style="fill:#bcc2a6"
         d="m -150.88665,56.526802 c -0.53195,-0.993962 -0.32082,-2.751058 0.4807,-4.000489 0.74027,-1.153955 2.18131,-2.253226 2.51558,-1.918961 0.26476,0.264761 0.19604,2.488247 -0.11108,3.594184 -0.30546,1.099975 -1.6838,2.837039 -2.25115,2.837039 -0.19808,0 -0.48341,-0.230298 -0.63405,-0.511773 z"
         id="path5508" />
      <path
         style="fill:#bcc2a6"
         d="m -169.24825,79.292362 c -0.8203,-1.170653 -1.49146,-2.295646 -1.49146,-2.499985 0,-0.68974 -3.28163,-4.991246 -5.68389,-7.45034 -1.31224,-1.343293 -3.2491,-2.999994 -4.30413,-3.681559 -1.05502,-0.681564 -1.91822,-1.347106 -1.91822,-1.478983 0,-0.478884 1.78005,-0.556599 3.51782,-0.153584 2.171,0.503488 3.77007,1.293014 5.97345,2.94932 1.89874,1.427307 3.08027,2.825267 5.51564,6.52595 1.88268,2.860846 2.191,3.175815 2.191,2.238253 0,-1.39533 -3.76331,-9.132041 -7.68776,-15.804688 -1.58567,-2.696087 -2.57773,-4.644759 -2.43652,-4.785975 0.38337,-0.383364 3.38828,1.730281 5.49704,3.866599 3.19774,3.239519 5.97335,7.955208 7.78986,13.234746 0.45061,1.309688 0.87867,2.54712 0.95123,2.749849 0.0726,0.202729 0.18888,0.311656 0.25848,0.24206 0.15607,-0.156069 -1.07841,-6.235116 -2.4881,-12.252325 -1.54929,-6.613136 -3.96921,-13.361458 -4.79135,-13.361458 -0.11998,0 -0.40839,0.558375 -0.64093,1.240833 -1.17161,3.438481 -3.35959,3.156504 -2.95586,-0.380938 l 0.15853,-1.389062 h -1.55741 c -1.86735,0 -2.43489,-0.431081 -1.89519,-1.43952 0.39544,-0.738876 1.59635,-1.383752 2.98496,-1.602884 1.12236,-0.177116 1.16215,-0.287392 0.55962,-1.550908 -0.56158,-1.177649 -0.31872,-2.129651 0.64514,-2.528893 0.981,-0.406343 1.89734,-0.05466 2.77303,1.064261 l 0.67354,0.860627 0.95776,-0.840925 c 1.00274,-0.880414 2.10713,-1.08417 3.07341,-0.567032 0.80678,0.431775 0.67789,1.913085 -0.25754,2.960019 l -0.76931,0.861011 1.22406,0.664518 c 0.67324,0.365485 1.40638,0.998892 1.62921,1.407571 0.38851,0.712554 0.37467,0.76957 -0.33722,1.389063 -0.61162,0.532242 -1.02476,0.646009 -2.34596,0.646009 -1.40997,0 -1.58486,0.05591 -1.44841,0.46302 0.0854,0.254662 0.8174,2.427552 1.62677,4.828646 1.56222,4.63458 3.52784,12.239906 4.2397,16.404167 0.23632,1.382448 0.6263,2.979691 0.86663,3.549429 l 0.43695,1.035889 0.16369,-0.800353 c 0.09,-0.440194 -0.0536,-2.870875 -0.3192,-5.401513 -0.63579,-6.058095 -0.93424,-16.480089 -0.50302,-17.565744 l 0.31528,-0.79375 0.48828,0.599523 c 1.07878,1.324525 2.41791,6.564222 2.79184,10.923788 0.29351,3.421959 0.55875,3.648316 0.75876,0.647522 0.57742,-8.663151 0.99363,-14.068822 1.25815,-16.340835 0.16537,-1.420376 0.22791,-2.655268 0.13897,-2.744204 -0.0889,-0.08894 -0.53343,0.210027 -0.98776,0.664363 -0.8528,0.8528 -1.86868,1.269669 -2.35765,0.96747 -0.44854,-0.277215 -0.31216,-2.028629 0.25536,-3.279333 0.28785,-0.634355 0.52336,-1.242896 0.52336,-1.352314 0,-0.109419 -0.73002,-0.265138 -1.62226,-0.346044 -1.89784,-0.17209 -2.65531,-0.690505 -2.05918,-1.409308 0.56312,-0.679002 1.93183,-1.162919 3.2892,-1.162919 h 1.21226 l -0.17107,-1.521354 c -0.14789,-1.315229 -0.0933,-1.619936 0.40294,-2.248959 1.1661,-1.478113 3.0793,-0.54164 3.37342,1.65122 0.13965,1.041138 0.19017,1.097001 0.83821,0.926776 2.22649,-0.584851 4.52606,-0.330413 4.52606,0.50079 0,0.36708 -0.99311,1.30962 -2.01043,1.90806 -0.45878,0.269873 -0.42502,0.355386 0.47564,1.204813 1.09698,1.034587 1.45416,2.032228 1.01881,2.845677 -0.42801,0.799748 -2.18272,0.744086 -3.68911,-0.117026 -0.63932,-0.365454 -1.213,-0.613854 -1.27485,-0.552 -0.16748,0.167482 -0.54175,3.19666 -1.00102,8.102003 -0.52833,5.642839 -0.83439,16.372578 -0.45661,16.007291 0.29479,-0.285032 1.2353,-3.341773 1.52641,-4.960937 0.0981,-0.545704 0.32168,-0.992188 0.49681,-0.992188 0.17513,0 0.50629,-0.386953 0.73591,-0.859896 0.78833,-1.623705 2.04314,-3.108854 2.62669,-3.108854 0.52087,0 0.54887,0.09586 0.38621,1.322059 -0.0965,0.727132 -0.87222,4.090648 -1.72392,7.474479 -1.76642,7.018042 -2.04487,8.502753 -1.56463,8.342671 0.17736,-0.05912 1.17765,-2.838298 2.22287,-6.175953 2.03842,-6.509169 3.92317,-11.336364 5.81403,-14.890822 0.64883,-1.219672 1.17969,-2.314605 1.17969,-2.433184 0,-0.11858 -0.62594,-0.150997 -1.39098,-0.07204 -1.72695,0.178238 -3.37152,-0.413521 -3.37152,-1.213163 0,-0.712367 1.46999,-1.790532 2.87018,-2.105133 0.62687,-0.14085 1.2007,-0.317019 1.27517,-0.391487 0.0745,-0.07447 -0.35152,-0.852414 -0.94664,-1.72877 -1.23611,-1.820243 -1.28278,-2.025526 -0.54973,-2.41784 0.71441,-0.382345 2.63186,0.461238 3.6956,1.625888 l 0.78389,0.858242 0.42987,-1.042787 c 0.65928,-1.599261 1.37184,-2.233412 2.50955,-2.233412 0.56311,0 1.12487,0.174784 1.32089,0.410973 0.47472,0.571995 0.42373,2.467283 -0.0931,3.462806 l -0.43149,0.831071 1.16389,0.174536 c 1.51166,0.226687 2.52405,1.02005 2.52405,1.977977 0,1.18844 -0.83795,1.711845 -2.92985,1.830048 -1.76516,0.09974 -1.83265,0.128607 -1.83265,0.783911 0,1.107739 -1.02497,2.945641 -1.74329,3.125926 -0.94504,0.237191 -1.29395,0.0061 -1.88423,-1.248105 l -0.53374,-1.134047 -0.65897,1.044014 c -1.60211,2.538244 -5.73042,13.312894 -5.43751,14.191604 0.0524,0.157215 0.82831,-0.95074 1.72424,-2.462122 2.6753,-4.513091 5.29569,-7.464925 8.63334,-9.72535 2.70145,-1.829561 2.78471,-1.200479 0.28417,2.147308 -1.11468,1.492375 -2.65809,3.784971 -3.4298,5.094658 -2.08166,3.532876 -6.07699,11.737341 -5.82871,11.969313 0.11864,0.110836 0.25957,0.08055 0.31318,-0.06731 0.0536,-0.147857 0.78146,-1.304337 1.61743,-2.569954 3.93941,-5.964104 8.42657,-9.199756 12.75812,-9.199756 2.06178,0 2.05664,0.360447 -0.0243,1.70127 -0.88756,0.571897 -2.41209,1.822053 -3.38785,2.778125 -1.95785,1.91836 -6.10532,7.317331 -6.10789,7.950942 -9e-4,0.221075 -0.15923,0.699611 -0.35184,1.063413 -0.19261,0.363802 -0.74018,1.406473 -1.21682,2.317047 -0.98983,1.890982 -1.28652,2.034391 -3.77033,1.822451 -0.91896,-0.07841 -1.7899,-0.137071 -1.93543,-0.13035 -0.33048,0.01526 -15.46445,0.02015 -16.00729,0.0052 -0.21828,-0.006 -1.24376,0.04992 -2.27886,0.124322 l -1.88198,0.135276 z m 32.04448,-29.197733 c 0.42668,-0.341366 0.42557,-1.556467 -0.002,-2.141157 -0.33593,-0.459407 -0.94031,-0.576928 -2.51157,-0.488365 -0.73412,0.04138 -0.8599,0.147767 -0.8599,0.72732 0,1.857231 2.01176,2.991611 3.37344,1.902202 z m -30.44413,-2.362591 c 0.79063,-0.742762 0.77214,-1.153988 -0.0877,-1.950888 -1.17213,-1.086288 -2.42953,-0.687751 -2.81483,0.892165 -0.34328,1.407577 1.72729,2.162827 2.90256,1.058723 z m 16.05388,-6.17193 c 0.42125,-0.276014 0.69806,-0.700011 0.69806,-1.069217 0,-0.716606 -1.13862,-1.708566 -1.96118,-1.708566 -0.83571,0 -2.53673,1.251909 -2.53673,1.866972 0,0.09808 0.25709,0.505177 0.57132,0.904654 0.48684,0.618911 0.71619,0.706893 1.55089,0.594936 0.53876,-0.07226 1.2937,-0.337214 1.67764,-0.588779 z"
         id="path5507" />
      <path
         style="fill:#9dabdc"
         d="m -150.92389,56.046387 c -0.5616,-1.462393 0.45726,-3.966362 2.03439,-4.999736 0.92961,-0.609105 1.23214,-0.122865 1.01186,1.626299 -0.20447,1.623529 -0.67914,2.820198 -1.40763,3.548685 -0.75251,0.752517 -1.30503,0.693427 -1.63862,-0.175248 z"
         id="path5488" />
      <path
         style="fill:#9dabdc"
         d="m -167.0737,81.12752 c -0.8461,-0.126498 -1.12943,-0.387201 -2.31325,-2.128529 -0.74198,-1.091406 -1.34989,-2.187636 -1.35091,-2.436066 -0.003,-0.667205 -3.63088,-5.365424 -5.86479,-7.594521 -1.06825,-1.065942 -2.80884,-2.525253 -3.868,-3.242912 -1.05915,-0.717659 -1.85579,-1.417991 -1.77032,-1.556293 0.26149,-0.423091 2.35512,-0.280668 4.1857,0.284741 2.13884,0.660619 5.25638,2.709864 6.96154,4.576001 0.70404,0.770505 2.02506,2.525076 2.93562,3.899047 2.0879,3.150525 2.4727,3.574342 2.76731,3.047904 0.45063,-0.805229 -3.32263,-8.781509 -7.584,-16.031807 -1.39007,-2.365066 -2.52741,-4.403276 -2.52741,-4.529356 0,-0.435973 0.45391,-0.223813 2.31022,1.079827 3.99841,2.807973 7.78223,8.066199 10.10081,14.036708 0.70641,1.819044 1.36753,3.694305 1.46916,4.167248 0.19763,0.919721 0.6719,1.182306 0.6719,0.372009 0,-1.967022 -3.23675,-15.600961 -4.75219,-20.017321 -1.33694,-3.896163 -2.05759,-5.41951 -2.56513,-5.422286 -0.16822,-9.2e-4 -0.49611,0.556703 -0.72865,1.239161 -1.17161,3.438481 -3.35959,3.156504 -2.95586,-0.380938 l 0.15853,-1.389062 h -1.55741 c -1.86735,0 -2.43489,-0.431081 -1.89519,-1.43952 0.39544,-0.738876 1.59635,-1.383752 2.98496,-1.602884 1.12236,-0.177116 1.16215,-0.287392 0.55962,-1.550908 -0.56158,-1.177649 -0.31872,-2.129651 0.64514,-2.528893 0.981,-0.406343 1.89734,-0.05466 2.77303,1.064261 l 0.67354,0.860627 0.95776,-0.840925 c 1.00274,-0.880414 2.10713,-1.08417 3.07341,-0.567032 0.80678,0.431775 0.67789,1.913085 -0.25754,2.960019 l -0.76931,0.861011 1.22406,0.664518 c 0.67324,0.365485 1.40638,0.998892 1.62921,1.407571 0.38851,0.712554 0.37467,0.76957 -0.33722,1.389063 -0.62169,0.541001 -1.01888,0.646009 -2.44353,0.646009 h -1.70118 l 0.5498,1.389062 c 1.83537,4.637069 5.29576,17.544918 5.91091,22.048731 0.10104,0.739797 0.40346,1.680073 0.67204,2.089501 l 0.48833,0.744416 0.16952,-1.16346 c 0.0932,-0.639902 -0.0118,-2.711272 -0.23344,-4.603042 -0.55313,-4.721325 -0.99708,-14.449857 -0.75363,-16.514857 0.11012,-0.934005 0.33331,-1.742356 0.49599,-1.796336 0.29544,-0.09803 1.01935,1.525942 1.79362,4.023693 0.59489,1.919057 1.14299,5.40871 1.35559,8.630685 0.10197,1.545418 0.27948,2.962078 0.39447,3.148133 0.23338,0.377615 0.31467,-0.524565 0.93022,-10.32361 0.2331,-3.710781 0.60051,-8.159936 0.81645,-9.88701 0.21594,-1.727075 0.34165,-3.191108 0.27936,-3.253406 -0.0623,-0.0623 -0.56374,0.311571 -1.1143,0.83082 -1.02354,0.965318 -1.98876,1.38215 -2.4872,1.074098 -0.44854,-0.277215 -0.31216,-2.028629 0.25536,-3.279333 0.28785,-0.634355 0.52336,-1.242896 0.52336,-1.352314 0,-0.109419 -0.73002,-0.265138 -1.62226,-0.346044 -1.89784,-0.17209 -2.65531,-0.690505 -2.05918,-1.409308 0.56312,-0.679002 1.93183,-1.162919 3.2892,-1.162919 h 1.21226 l -0.17107,-1.521354 c -0.14789,-1.315229 -0.0933,-1.619936 0.40294,-2.248959 1.1661,-1.478113 3.0793,-0.54164 3.37342,1.65122 0.13965,1.041138 0.19017,1.097001 0.83821,0.926776 2.22649,-0.584851 4.52606,-0.330413 4.52606,0.50079 0,0.36708 -0.99311,1.30962 -2.01043,1.90806 -0.45878,0.269873 -0.42502,0.355386 0.47564,1.204813 1.09698,1.034587 1.45416,2.032228 1.01881,2.845677 -0.42659,0.797099 -2.18256,0.744186 -3.67821,-0.110835 -0.63332,-0.36205 -1.24174,-0.658272 -1.35205,-0.658272 -0.65628,0 -2.25243,24.057166 -1.63698,24.672612 0.34656,0.346561 0.44176,0.126713 1.35595,-3.131232 0.44575,-1.58854 0.93084,-2.929155 1.07799,-2.979143 0.14714,-0.04999 0.55495,-0.658093 0.90625,-1.351345 0.70194,-1.385218 1.90109,-2.923392 2.27905,-2.923392 0.43989,0 0.24993,2.024663 -0.4379,4.667389 -1.77479,6.818922 -2.20462,8.6075 -2.52083,10.489372 -0.32585,1.939226 -0.23385,2.688658 0.26463,2.155808 0.12706,-0.135819 1.0299,-2.806788 2.00631,-5.935486 1.99834,-6.403284 4.04109,-11.642158 5.97269,-15.317728 0.71839,-1.366991 1.30616,-2.526025 1.30616,-2.575631 0,-0.04961 -0.68496,-0.0186 -1.52214,0.0689 -1.86009,0.194419 -3.50494,-0.368066 -3.50494,-1.198576 0,-0.712367 1.46999,-1.790532 2.87018,-2.105133 0.62687,-0.14085 1.2007,-0.317019 1.27517,-0.391487 0.0745,-0.07447 -0.35152,-0.852414 -0.94664,-1.72877 -1.23611,-1.820243 -1.28278,-2.025526 -0.54973,-2.41784 0.71441,-0.382345 2.63186,0.461238 3.6956,1.625888 l 0.78389,0.858242 0.42987,-1.042787 c 0.65928,-1.599261 1.37184,-2.233412 2.50955,-2.233412 0.56311,0 1.12487,0.174784 1.32089,0.410973 0.47472,0.571995 0.42373,2.467283 -0.0931,3.462806 l -0.43149,0.831071 1.16389,0.174536 c 1.51166,0.226687 2.52405,1.02005 2.52405,1.977977 0,1.18844 -0.83795,1.711845 -2.92985,1.830048 -1.73359,0.09796 -1.83265,0.138152 -1.83265,0.743653 0,0.817769 -0.58927,2.232913 -1.17277,2.816408 -0.98582,0.985825 -2.23058,0.287977 -2.67995,-1.50246 -0.0949,-0.377953 -0.28203,-0.619477 -0.41594,-0.536718 -0.72783,0.449825 -4.27774,8.68959 -5.6515,13.117824 -1.00217,3.230403 -0.7717,3.628916 0.64576,1.11663 2.54954,-4.51875 4.84222,-7.436291 7.61385,-9.689 1.62071,-1.317264 3.20116,-2.318331 3.6601,-2.318331 0.33396,0 -0.12568,0.763022 -1.93757,3.216461 -1.00412,1.359644 -2.37197,3.377367 -3.03968,4.483828 -1.2709,2.105994 -5.81221,11.04926 -6.13275,12.077315 -0.40747,1.306806 0.44626,0.476566 2.04792,-1.991586 2.8913,-4.455482 6.16465,-7.497671 9.46867,-8.799993 1.59266,-0.627771 4.57813,-0.991452 4.82744,-0.588064 0.0902,0.146006 -0.51814,0.716963 -1.35194,1.268794 -0.83381,0.55183 -2.33311,1.787481 -3.33179,2.74589 -2.25472,2.163805 -6.5186,7.767201 -6.5186,8.566451 0,0.324086 -0.50601,1.481136 -1.12448,2.571222 l -1.12448,1.981973 -4.7625,0.03513 c -2.61937,0.01932 -5.89359,0.0619 -7.27604,0.09461 -1.38244,0.03272 -4.38047,0.03452 -6.66227,0.004 -2.28181,-0.03052 -4.24634,-0.0082 -4.36563,0.04954 -0.11929,0.05776 -0.65078,0.04016 -1.18109,-0.03913 z m 29.86993,-31.032891 c 0.42668,-0.341366 0.42557,-1.556467 -0.002,-2.141157 -0.33593,-0.459407 -0.94031,-0.576928 -2.51157,-0.488365 -0.73412,0.04138 -0.8599,0.147767 -0.8599,0.72732 0,1.857231 2.01176,2.991611 3.37344,1.902202 z m -30.44413,-2.362591 c 0.79063,-0.742762 0.77214,-1.153988 -0.0877,-1.950888 -1.17213,-1.086288 -2.42953,-0.687751 -2.81483,0.892165 -0.34328,1.407577 1.72729,2.162827 2.90256,1.058723 z m 16.05388,-6.17193 c 0.42125,-0.276014 0.69806,-0.700011 0.69806,-1.069217 0,-0.716606 -1.13862,-1.708566 -1.96118,-1.708566 -0.83571,0 -2.53673,1.251909 -2.53673,1.866972 0,0.09808 0.25709,0.505177 0.57132,0.904654 0.48684,0.618911 0.71619,0.706893 1.55089,0.594936 0.53876,-0.07226 1.2937,-0.337214 1.67764,-0.588779 z"
         id="path5487" />
      <path
         style="fill:#a9af90"
         d="m -149.77148,44.42793 c -0.73797,-0.29778 -0.28211,-0.654641 0.66146,-0.517808 0.5457,0.07914 1.14102,0.148381 1.32292,0.153877 0.1819,0.0055 0.33073,0.129055 0.33073,0.274576 0,0.268249 -1.70835,0.334186 -2.31511,0.08936 z"
         id="path5472" />
      <path
         style="fill:#a9af90"
         d="m -136.73737,50.958626 c -0.0881,-0.142513 -0.0356,-0.491873 0.11668,-0.776356 0.15225,-0.284482 0.27682,-0.763193 0.27682,-1.063801 0,-0.370172 0.17077,-0.546561 0.52916,-0.546561 0.29104,0 0.52917,0.153419 0.52917,0.340931 0,0.187512 0.22529,0.782825 0.50064,1.322917 l 0.50065,0.981986 h -1.14649 c -0.63057,0 -1.21855,-0.116602 -1.30663,-0.259116 z"
         id="path5469" />
      <path
         style="fill:#a9af90"
         d="m -139.37158,54.863037 c -0.59629,-0.851324 -0.54644,-1.354682 0.0999,-1.008771 0.28147,0.150641 0.75772,0.273892 1.05833,0.273892 0.6753,0 0.69731,0.310721 0.0627,0.885035 -0.62588,0.566413 -0.72781,0.553878 -1.22094,-0.150156 z"
         id="path5468" />
      <path
         style="fill:#a9af90"
         d="m -150.92389,56.046387 c -0.5616,-1.462393 0.45726,-3.966362 2.03439,-4.999736 0.92961,-0.609105 1.23214,-0.122865 1.01186,1.626299 -0.20447,1.623529 -0.67914,2.820198 -1.40763,3.548685 -0.75251,0.752517 -1.30503,0.693427 -1.63862,-0.175248 z"
         id="path5467" />
      <path
         style="fill:#a9af90"
         d="m -167.0737,81.12752 c -0.8461,-0.126498 -1.12943,-0.387201 -2.31325,-2.128529 -0.74198,-1.091406 -1.34989,-2.187636 -1.35091,-2.436066 -0.003,-0.667205 -3.63088,-5.365424 -5.86479,-7.594521 -1.06825,-1.065942 -2.80884,-2.525253 -3.868,-3.242912 -1.05915,-0.717659 -1.85579,-1.417991 -1.77032,-1.556293 0.26149,-0.423091 2.35512,-0.280668 4.1857,0.284741 2.13884,0.660619 5.25638,2.709864 6.96154,4.576001 0.70404,0.770505 2.02506,2.525076 2.93562,3.899047 2.0879,3.150525 2.4727,3.574342 2.76731,3.047904 0.45063,-0.805229 -3.32263,-8.781509 -7.584,-16.031807 -1.39007,-2.365066 -2.52741,-4.403276 -2.52741,-4.529356 0,-0.435973 0.45391,-0.223813 2.31022,1.079827 3.99841,2.807973 7.78223,8.066199 10.10081,14.036708 0.70641,1.819044 1.36753,3.694305 1.46916,4.167248 0.19763,0.919721 0.6719,1.182306 0.6719,0.372009 0,-0.669646 -1.35679,-7.246053 -2.51951,-12.212113 -1.08152,-4.619287 -2.92664,-10.289214 -4.02417,-12.366021 l -0.73236,-1.385814 0.7276,-0.675415 c 0.40018,-0.371478 0.72943,-0.759893 0.73166,-0.863145 0.013,-0.604413 0.48077,-0.891538 0.99981,-0.613756 0.47883,0.256263 0.51096,0.402464 0.27569,1.254541 -0.20544,0.744023 -0.18556,1.01566 0.087,1.188408 0.26947,0.170808 0.24146,0.224894 -0.11805,0.227984 -0.74051,0.0064 -0.78977,0.599889 -0.17808,2.145511 1.85097,4.677041 5.30924,17.565651 5.92721,22.090084 0.10104,0.739797 0.40346,1.680073 0.67204,2.089501 l 0.48833,0.744416 0.16952,-1.16346 c 0.0932,-0.639902 -0.0118,-2.711272 -0.23344,-4.603042 -0.55313,-4.721325 -0.99708,-14.449857 -0.75363,-16.514857 0.11012,-0.934005 0.33331,-1.742356 0.49599,-1.796336 0.29544,-0.09803 1.01935,1.525942 1.79362,4.023693 0.59489,1.919057 1.14299,5.40871 1.35559,8.630685 0.10197,1.545418 0.27948,2.962078 0.39447,3.148133 0.23121,0.374109 0.3093,-0.485933 0.91331,-10.059027 0.36534,-5.790325 1.05586,-13.402847 1.36198,-15.015103 0.13352,-0.703155 0.8168,-0.798131 0.95175,-0.132292 0.0516,0.254661 0.003,1.117864 -0.10716,1.918229 -0.85917,6.220247 -1.79336,22.866604 -1.31037,23.349593 0.34667,0.346671 0.44182,0.126961 1.35605,-3.13113 0.44575,-1.58854 0.93084,-2.929155 1.07799,-2.979143 0.14714,-0.04999 0.55495,-0.658093 0.90625,-1.351345 0.70194,-1.385218 1.90109,-2.923392 2.27905,-2.923392 0.43989,0 0.24993,2.024663 -0.4379,4.667389 -1.77479,6.818922 -2.20462,8.6075 -2.52083,10.489372 -0.3256,1.937738 -0.23368,2.689996 0.26341,2.155808 0.12639,-0.135819 1.07173,-2.928764 2.10076,-6.206545 2.94948,-9.395007 6.88992,-18.276803 8.19279,-18.466613 0.85448,-0.124487 0.78513,1.204438 -0.10703,2.05108 -1.25492,1.190888 -4.41772,8.267681 -6.0578,13.554377 -1.00217,3.230403 -0.7717,3.628916 0.64576,1.11663 2.54954,-4.51875 4.84222,-7.436291 7.61385,-9.689 1.62071,-1.317264 3.20116,-2.318331 3.6601,-2.318331 0.33396,0 -0.12568,0.763022 -1.93757,3.216461 -1.00412,1.359644 -2.37197,3.377367 -3.03968,4.483828 -1.2709,2.105994 -5.81221,11.04926 -6.13275,12.077315 -0.40747,1.306806 0.44626,0.476566 2.04792,-1.991586 2.8913,-4.455482 6.16465,-7.497671 9.46867,-8.799993 1.59266,-0.627771 4.57813,-0.991452 4.82744,-0.588064 0.0902,0.146006 -0.51814,0.716963 -1.35194,1.268794 -0.83381,0.55183 -2.33311,1.787481 -3.33179,2.74589 -2.25472,2.163805 -6.5186,7.767201 -6.5186,8.566451 0,0.324086 -0.50601,1.481136 -1.12448,2.571222 l -1.12448,1.981973 -4.7625,0.03513 c -2.61937,0.01932 -5.89359,0.0619 -7.27604,0.09461 -1.38244,0.03272 -4.38047,0.03452 -6.66227,0.004 -2.28181,-0.03052 -4.24634,-0.0082 -4.36563,0.04954 -0.11929,0.05776 -0.65078,0.04016 -1.18109,-0.03913 z"
         id="path5466" />
      <path
         style="fill:#7689ca"
         d="m -149.77148,44.42793 c -0.73797,-0.29778 -0.28211,-0.654641 0.66146,-0.517808 0.5457,0.07914 1.14102,0.148381 1.32292,0.153877 0.1819,0.0055 0.33073,0.129055 0.33073,0.274576 0,0.268249 -1.70835,0.334186 -2.31511,0.08936 z"
         id="path5443" />
      <path
         style="fill:#7689ca"
         d="m -136.73737,50.958664 c -0.0881,-0.142513 -0.0356,-0.491873 0.11668,-0.776356 0.15225,-0.284482 0.27682,-0.763193 0.27682,-1.063801 0,-0.370172 0.17077,-0.546561 0.52916,-0.546561 0.29104,0 0.52917,0.153419 0.52917,0.340931 0,0.187512 0.22529,0.782825 0.50064,1.322917 l 0.50065,0.981986 h -1.14649 c -0.63057,0 -1.21855,-0.116602 -1.30663,-0.259116 z"
         id="path5440" />
      <path
         style="fill:#7689ca"
         d="m -139.37158,54.863075 c -0.59629,-0.851324 -0.54644,-1.354682 0.0999,-1.008771 0.28147,0.150641 0.75772,0.273892 1.05833,0.273892 0.6753,0 0.69731,0.310721 0.0627,0.885035 -0.62588,0.566413 -0.72781,0.553878 -1.22094,-0.150156 z"
         id="path5439" />
      <path
         style="fill:#7689ca"
         d="m -150.62206,55.997674 c -0.46315,-0.865391 -0.30643,-2.012274 0.42154,-3.085007 0.77513,-1.142205 1.37698,-1.67388 1.90908,-1.686473 0.7783,-0.01842 -0.13385,3.578926 -1.22222,4.820231 -0.52162,0.594917 -0.76976,0.584003 -1.1084,-0.04875 z"
         id="path5438" />
      <path
         style="fill:#7689ca"
         d="m -146.86106,80.940467 c -0.1819,-0.0734 -0.33073,-0.262862 -0.33073,-0.42103 0,-0.683749 1.84026,-4.259088 3.57624,-6.948084 3.24768,-5.030588 6.58499,-8.02527 10.19587,-9.149103 1.68077,-0.523114 3.42581,-0.667709 3.42581,-0.283866 0,0.121333 -0.62508,0.652382 -1.38907,1.180109 -2.71137,1.872896 -8.03994,7.989417 -9.12489,10.47421 -0.65324,1.496085 -2.23368,4.626123 -2.52072,4.992264 -0.2545,0.324633 -3.12474,0.44109 -3.83251,0.1555 z"
         id="path5437" />
      <path
         style="fill:#7689ca"
         d="m -150.9621,80.933267 c -0.96833,-0.253051 -0.59515,-1.981921 2.50205,-11.591574 2.43008,-7.539796 4.46259,-12.602479 6.51017,-16.215875 0.55345,-0.976686 0.99942,-1.894854 0.99104,-2.040375 -0.008,-0.145521 0.25265,-0.30263 0.58007,-0.349131 0.50732,-0.07205 0.59531,0.03647 0.59531,0.734153 0,0.61174 -0.15441,0.877409 -0.61085,1.050945 -0.70898,0.269553 -1.7215,2.074048 -3.49963,6.236949 -2.08206,4.874478 -4.41444,12.308992 -3.859,12.300661 0.0904,-0.0014 0.75959,-1.096329 1.48719,-2.433275 2.75995,-5.071301 5.15375,-8.227258 8.0326,-10.590065 2.92293,-2.398984 4.03075,-2.714594 2.36265,-0.673102 -2.18968,2.679837 -4.67449,6.811236 -7.37253,12.258069 -1.58974,3.209362 -2.89043,6.040937 -2.89043,6.292389 0,0.876855 -1.63069,4.677948 -2.11898,4.939271 -0.49523,0.265037 -1.85033,0.305526 -2.70966,0.08096 z"
         id="path5436" />
      <path
         style="fill:#7689ca"
         d="m -157.75979,80.860547 c -0.27999,-0.173042 -0.38221,-1.150784 -0.43419,-4.152799 -0.0374,-2.159558 -0.18987,-5.057563 -0.33884,-6.440011 -0.78839,-7.316157 -0.9667,-17.197916 -0.31033,-17.197916 0.25683,0 0.83973,1.416975 1.41495,3.439583 0.74212,2.60948 1.21199,5.868794 1.52571,10.583333 0.16946,2.546615 0.41275,4.743318 0.54065,4.881563 0.14238,0.153888 0.23416,0.10259 0.2367,-0.132292 0.0345,-3.190354 1.46853,-22.995831 1.81892,-25.122187 0.1319,-0.800365 0.19682,-1.812396 0.14428,-2.248958 -0.12555,-1.043249 0.095,-1.719792 0.56063,-1.719792 0.284,0 0.34695,0.274341 0.25803,1.124479 -0.0647,0.618464 -0.36113,3.446198 -0.65877,6.283854 -0.71607,6.826962 -1.05524,19.442319 -0.5179,19.263205 0.20929,-0.06976 0.78002,-1.461305 1.30009,-3.169857 0.50987,-1.675027 1.13539,-3.357705 1.39005,-3.739284 0.25466,-0.381579 0.46302,-0.788855 0.46302,-0.905058 0,-0.37422 1.85722,-2.982339 2.1237,-2.982339 0.50809,0 0.23371,1.614453 -1.30956,7.705489 -1.05921,4.180537 -1.66112,7.171276 -1.85718,9.227844 -0.34278,3.595616 -0.64359,5.02589 -1.11878,5.319573 -0.46179,0.285405 -4.76409,0.270247 -5.23118,-0.01843 z"
         id="path5435" />
      <path
         style="fill:#7689ca"
         d="m -163.23614,80.806807 c -0.352,-0.45893 -1.68566,-4.20128 -1.68401,-4.725468 0.005,-1.616953 -6.37261,-14.267573 -9.90038,-19.638077 -1.45158,-2.209803 3.01447,1.024023 5.70149,4.128404 1.0233,1.182236 2.5175,3.309807 3.32045,4.727937 1.48951,2.630687 3.63749,7.721868 3.94144,9.34207 0.0927,0.494385 0.33336,1.035595 0.5347,1.20269 0.98479,0.817302 0.67041,-1.301182 -1.7699,-11.926622 -1.4005,-6.097928 -2.98881,-11.152407 -4.23673,-13.482472 l -0.77333,-1.44393 0.66573,-0.617298 c 0.36615,-0.339514 0.66755,-0.701776 0.66978,-0.805028 0.013,-0.604413 0.48077,-0.891538 0.99981,-0.613756 0.48155,0.257717 0.51167,0.39988 0.27012,1.274717 -0.20256,0.733603 -0.19121,1.011539 0.0445,1.090109 0.17735,0.05912 0.0444,0.244434 -0.30262,0.421722 -0.34044,0.173945 -0.59191,0.487893 -0.55882,0.697663 0.0331,0.209769 0.84274,2.703117 1.79919,5.540774 1.80563,5.356992 3.42415,11.54799 4.32506,16.543761 0.28794,1.596712 0.63629,3.200769 0.7741,3.564572 0.34884,0.920844 0.93086,4.501941 0.75952,4.673275 -0.0774,0.07744 -1.07879,0.198575 -2.22522,0.269184 -1.54725,0.0953 -2.15412,0.03751 -2.35488,-0.224227 z"
         id="path5434" />
      <path
         style="fill:#7689ca"
         d="m -168.48508,79.858887 c -0.50903,-0.691224 -1.29442,-1.981026 -1.74532,-2.866228 -1.92088,-3.771101 -6.59015,-9.024546 -10.44521,-11.752001 l -1.30889,-0.926042 1.01916,-0.08373 c 2.39897,-0.197079 6.06836,1.519449 9.02549,4.222098 2.49137,2.27698 8.19943,11.561568 7.65224,12.446949 -0.0733,0.118646 -0.83952,0.21572 -1.70264,0.21572 -1.56588,0 -1.57134,-0.0028 -2.49483,-1.256771 z"
         id="path5433" />
      <path
         style="fill:#88976d"
         d="m -150.62206,55.997674 c -0.46315,-0.865391 -0.30643,-2.012274 0.42154,-3.085007 0.77513,-1.142205 1.37698,-1.67388 1.90908,-1.686473 0.7783,-0.01842 -0.13385,3.578926 -1.22222,4.820231 -0.52162,0.594917 -0.76976,0.584003 -1.1084,-0.04875 z"
         id="path5405" />
      <path
         style="fill:#88976d"
         d="m -146.86106,80.940467 c -0.1819,-0.0734 -0.33073,-0.262862 -0.33073,-0.42103 0,-0.683749 1.84026,-4.259088 3.57624,-6.948084 3.24768,-5.030588 6.58499,-8.02527 10.19587,-9.149103 1.68077,-0.523114 3.42581,-0.667709 3.42581,-0.283866 0,0.121333 -0.62508,0.652382 -1.38907,1.180109 -2.71137,1.872896 -8.03994,7.989417 -9.12489,10.47421 -0.65324,1.496085 -2.23368,4.626123 -2.52072,4.992264 -0.2545,0.324633 -3.12474,0.44109 -3.83251,0.1555 z"
         id="path5404" />
      <path
         style="fill:#88976d"
         d="m -150.9621,80.933267 c -0.96833,-0.253051 -0.59515,-1.981921 2.50205,-11.591574 2.08047,-6.455068 3.50061,-10.149177 5.39086,-14.022917 1.4343,-2.939325 2.13911,-4.101041 2.48809,-4.101041 0.46543,0 0.29241,0.797124 -0.36276,1.671299 -0.79778,1.064456 -1.44627,2.357419 -2.975,5.931566 -2.05642,4.807864 -4.38688,12.246711 -3.83408,12.23842 0.0904,-0.0014 0.75959,-1.096329 1.48719,-2.433275 2.75995,-5.071301 5.15375,-8.227258 8.0326,-10.590065 2.92293,-2.398984 4.03075,-2.714594 2.36265,-0.673102 -2.18968,2.679837 -4.67449,6.811236 -7.37253,12.258069 -1.58974,3.209362 -2.89043,6.040937 -2.89043,6.292389 0,0.876855 -1.63069,4.677948 -2.11898,4.939271 -0.49523,0.265037 -1.85033,0.305526 -2.70966,0.08096 z"
         id="path5403" />
      <path
         style="fill:#88976d"
         d="m -157.75979,80.860547 c -0.27999,-0.173042 -0.38221,-1.150784 -0.43419,-4.152799 -0.0374,-2.159558 -0.18987,-5.057563 -0.33884,-6.440011 -0.78839,-7.316157 -0.9667,-17.197916 -0.31033,-17.197916 0.25683,0 0.83973,1.416975 1.41495,3.439583 0.74212,2.60948 1.21199,5.868794 1.52571,10.583333 0.16946,2.546615 0.41275,4.743318 0.54065,4.881563 0.14238,0.153888 0.23416,0.10259 0.2367,-0.132292 0.0358,-3.308404 1.47246,-23.024818 1.8381,-25.226097 0.14243,-0.857515 0.20206,-1.651196 0.13251,-1.763735 -0.0696,-0.112539 -0.002,-0.531652 0.14985,-0.931362 0.61986,-1.630354 0.70892,-0.03922 0.23071,4.121924 -0.97626,8.49508 -1.40726,21.6003 -0.70266,21.365432 0.18136,-0.06045 0.74691,-1.480391 1.25677,-3.155418 0.50987,-1.675027 1.13539,-3.357705 1.39005,-3.739284 0.25466,-0.381579 0.46302,-0.788855 0.46302,-0.905058 0,-0.37422 1.85722,-2.982339 2.1237,-2.982339 0.50809,0 0.23371,1.614453 -1.30956,7.705489 -1.05921,4.180537 -1.66112,7.171276 -1.85718,9.227844 -0.34278,3.595616 -0.64359,5.02589 -1.11878,5.319573 -0.46179,0.285405 -4.76409,0.270247 -5.23118,-0.01843 z"
         id="path5402" />
      <path
         style="fill:#88976d"
         d="m -163.23614,80.806807 c -0.352,-0.45893 -1.68566,-4.20128 -1.68401,-4.725468 0.005,-1.616953 -6.37261,-14.267573 -9.90038,-19.638077 -1.45158,-2.209803 3.01447,1.024023 5.70149,4.128404 1.0233,1.182236 2.5175,3.309807 3.32045,4.727937 1.48951,2.630687 3.63749,7.721868 3.94144,9.34207 0.0927,0.494385 0.33336,1.035595 0.5347,1.20269 0.98479,0.817302 0.67041,-1.301182 -1.7699,-11.926622 -1.32062,-5.75014 -2.93752,-10.974106 -4.12206,-13.317761 -0.58195,-1.151407 -0.59879,-1.270023 -0.16854,-1.187166 0.67418,0.129837 1.14083,1.217147 3.10248,7.228886 1.79401,5.498015 3.21065,11.001773 4.09726,15.918135 0.28439,1.577005 0.62984,3.164937 0.76765,3.52874 0.34884,0.920844 0.93086,4.501941 0.75952,4.673275 -0.0774,0.07744 -1.07879,0.198575 -2.22522,0.269184 -1.54725,0.0953 -2.15412,0.03751 -2.35488,-0.224227 z"
         id="path5401" />
      <path
         style="fill:#88976d"
         d="m -168.48508,79.858887 c -0.50903,-0.691224 -1.29442,-1.981026 -1.74532,-2.866228 -1.92088,-3.771101 -6.59015,-9.024546 -10.44521,-11.752001 l -1.30889,-0.926042 1.01916,-0.08373 c 2.39897,-0.197079 6.06836,1.519449 9.02549,4.222098 2.49137,2.27698 8.19943,11.561568 7.65224,12.446949 -0.0733,0.118646 -0.83952,0.21572 -1.70264,0.21572 -1.56588,0 -1.57134,-0.0028 -2.49483,-1.256771 z"
         id="path5400" />
      <path
         style="fill:#78895c"
         d="m -147.4363,67.225687 c -0.0295,-0.387182 1.60417,-5.211477 1.72411,-5.091537 0.0561,0.05605 -0.30442,1.283963 -0.80106,2.72869 -0.49664,1.444727 -0.91201,2.508008 -0.92305,2.362847 z"
         id="path5364" />
      <path
         style="fill:#78895c"
         d="m -146.75238,80.652637 c -0.18529,-0.303904 1.42224,-3.967158 2.54964,-5.810145 1.078,-1.76224 4.31793,-5.894361 4.62825,-5.902743 0.10335,-0.0028 0.66416,-0.42878 1.24624,-0.94664 2.43519,-2.166505 2.64967,-2.27983 3.8613,-2.040218 l 1.11614,0.220726 -1.6322,1.59223 c -0.89771,0.875727 -2.04428,2.183858 -2.54792,2.906958 -2.33197,3.34807 -3.24598,4.80483 -3.39803,5.41577 -0.0906,0.363802 -0.65093,1.584192 -1.24529,2.711979 l -1.08067,2.05052 h -1.68824 c -0.92853,0 -1.74268,-0.0893 -1.80922,-0.198437 z"
         id="path5362" />
      <path
         style="fill:#78895c"
         d="m -151.06457,80.454963 c -0.18808,-0.490139 0.29664,-3.050782 0.97681,-5.160138 0.25807,-0.800365 0.91031,-2.859913 1.4494,-4.576774 0.5391,-1.71686 1.03323,-3.068508 1.09808,-3.003661 0.0649,0.06485 -0.18598,1.226893 -0.5574,2.582322 -0.6354,2.31881 -0.61262,3.197082 0.072,2.773988 0.14878,-0.09195 0.52427,-0.84953 0.83443,-1.683508 0.67896,-1.825619 1.60419,-3.459384 2.33227,-4.118286 0.52028,-0.470849 0.54367,-0.469452 0.82117,0.04907 0.46241,0.864019 0.33106,2.042596 -0.37582,3.372043 -0.3638,0.684218 -0.66145,1.408851 -0.66145,1.610296 0,0.201445 -0.29766,0.95366 -0.66146,1.671589 -0.3638,0.717929 -0.66146,1.531866 -0.66146,1.80875 0,0.276884 -0.40098,1.501232 -0.89106,2.720775 l -0.89105,2.21735 -1.36086,0.08007 c -1.05471,0.06206 -1.39747,-0.01531 -1.52356,-0.343895 z"
         id="path5361" />
      <path
         style="fill:#78895c"
         d="m -157.90594,78.751038 c -0.10225,-1.15502 -0.10524,-2.57747 -0.007,-3.160999 0.0986,-0.58353 0.0381,-2.182456 -0.13445,-3.553168 -0.34057,-2.705775 -0.1439,-3.621213 0.778,-3.621213 0.94942,0 1.20856,0.754963 1.346,3.921482 0.0891,2.052612 0.2371,3.082411 0.45326,3.153824 0.48613,0.160597 0.55848,-0.527645 0.88738,-8.441117 0.1673,-4.025414 0.3958,-7.716352 0.50777,-8.202083 0.11198,-0.485731 0.1405,1.56666 0.0634,4.56087 -0.0771,2.99421 -0.0596,5.765349 0.039,6.158087 0.16891,0.672957 0.24585,0.705035 1.33636,0.557142 0.63643,-0.08631 1.21614,-0.05948 1.28824,0.05962 0.18125,0.299372 -0.50681,7.576121 -0.87734,9.278528 l -0.30233,1.389062 h -2.59637 -2.59637 z"
         id="path5360" />
      <path
         style="fill:#78895c"
         d="m -159.60384,80.365569 c -0.15963,-0.298274 -0.41526,-1.471916 -0.56807,-2.608093 -0.1528,-1.136177 -0.39767,-2.661089 -0.54414,-3.388693 -0.14647,-0.727604 -0.49369,-2.547259 -0.7716,-4.043677 -0.2779,-1.496418 -0.85649,-4.175324 -1.28576,-5.953125 -0.42926,-1.7778 -0.86202,-3.649083 -0.96168,-4.158406 -0.27615,-1.411317 0.2783,-0.660964 0.78203,1.058333 0.63992,2.184118 2.46291,10.19589 2.79467,12.282131 0.16015,1.007099 0.33681,1.904922 0.39258,1.995163 0.0558,0.09024 0.28683,1.22637 0.51345,2.524733 0.40853,2.340471 0.24506,3.406272 -0.35148,2.291634 z"
         id="path5359" />
      <path
         style="fill:#78895c"
         d="m -163.19968,80.520345 c -0.064,-0.181901 -0.41741,-1.178571 -0.78545,-2.214823 -0.36804,-1.036252 -0.66916,-2.083961 -0.66916,-2.328243 0,-0.244282 -0.1972,-0.82519 -0.43822,-1.290906 -0.44269,-0.855387 -0.93623,-4.505633 -0.69441,-5.135818 0.072,-0.187631 0.46349,-0.341147 0.86997,-0.341147 0.6664,0 0.7697,0.127767 1.05085,1.29975 0.1715,0.714862 0.60009,1.690494 0.95243,2.16807 0.35235,0.477576 0.64063,1.024005 0.64063,1.214288 0,0.190283 0.34305,1.336019 0.76233,2.546081 0.41927,1.210061 0.84646,2.698119 0.94929,3.306795 l 0.18698,1.106682 h -1.35448 c -0.84517,0 -1.3982,-0.124358 -1.47076,-0.330729 z"
         id="path5358" />
      <path
         style="fill:#78895c"
         d="m -168.89666,78.800554 c -0.72259,-1.127787 -1.31382,-2.207293 -1.31384,-2.398904 -7e-5,-0.643379 -3.73184,-5.358411 -6.58166,-8.315816 -1.08628,-1.127289 -1.91635,-2.108315 -1.84461,-2.180057 0.0717,-0.07174 0.4816,-0.200672 0.91079,-0.286511 0.61143,-0.122284 1.0668,0.04097 2.10356,0.754132 0.72776,0.500611 1.58434,0.993085 1.90352,1.094387 0.83196,0.264057 2.73354,2.188527 3.9332,3.980567 0.5667,0.846534 1.59639,2.385721 2.2882,3.420417 1.35296,2.02354 2.43009,4.107729 2.72011,5.26325 0.18038,0.71872 0.17977,0.719055 -1.3125,0.719055 h -1.49296 z"
         id="path5357" />
      <path
         style="fill:#657749"
         d="m -160.7691,72.998369 c -0.21947,-0.992522 -0.46657,-2.340367 -0.54911,-2.995211 -0.13337,-1.058091 -0.11964,-1.102269 0.12328,-0.396875 0.35555,1.032426 1.07367,4.947869 0.93324,5.088304 -0.0596,0.0596 -0.28794,-0.703696 -0.50741,-1.696218 z"
         id="path5322" />
      <path
         style="fill:#657749"
         d="m -150.22497,79.726592 c 0.10112,-0.472942 0.33685,-1.157552 0.52383,-1.521354 0.18698,-0.363802 1.1555,-2.298267 2.15226,-4.298811 1.94337,-3.900429 2.85667,-4.864776 1.75466,-1.852751 -0.35938,0.982265 -0.74843,2.440781 -0.86457,3.241146 -0.11613,0.800364 -0.54739,2.318411 -0.95836,3.373437 l -0.74721,1.918229 h -1.02224 c -1.01462,0 -1.02086,-0.0064 -0.83837,-0.859896 z"
         id="path5320" />
      <path
         style="fill:#657749"
         d="m -154.86065,78.932842 c 0.002,-0.909505 0.11946,-1.832239 0.26053,-2.05052 0.22798,-0.352778 0.25786,-0.352778 0.26894,0 0.0247,0.787204 0.79395,-0.619718 1.33845,-2.448058 0.29483,-0.989975 0.62832,-1.742933 0.74108,-1.67324 0.28408,0.175572 0.1132,4.708389 -0.24201,6.419414 l -0.2919,1.40605 h -1.03957 -1.03958 z"
         id="path5319" />
      <path
         style="fill:#657749"
         d="m -146.31387,80.68185 c -0.21309,-0.08684 -0.0234,-0.731057 0.59531,-2.022169 0.49941,-1.042097 0.90802,-2.046909 0.90802,-2.232916 0,-0.186006 0.23394,-0.338193 0.51986,-0.338193 0.28592,0 0.65293,-0.248659 0.81558,-0.552576 0.48741,-0.91072 2.13926,-2.622424 2.53073,-2.622424 0.29024,0 0.25832,0.280782 -0.15582,1.370702 -0.37784,0.994383 -0.4431,1.464354 -0.23773,1.711814 0.21023,0.253311 -0.0336,0.922032 -0.94716,2.598047 l -1.23026,2.256936 -1.24291,-0.02089 c -0.6836,-0.01149 -1.38363,-0.07824 -1.55562,-0.148333 z"
         id="path5318" />
      <path
         style="fill:#657749"
         d="m -157.60303,79.872896 c -0.25785,-1.560389 -0.2016,-4.264023 0.0925,-4.445783 0.14785,-0.09137 0.26458,-1.330869 0.26458,-2.809355 0,-2.972996 0.36117,-3.298582 0.63398,-0.57152 0.0987,0.986357 0.36047,2.696889 0.58177,3.801183 0.2213,1.104294 0.36572,2.652107 0.32092,3.439583 -0.079,1.38826 -0.10647,1.434212 -0.90446,1.511934 -0.7669,0.07469 -0.83434,0.01156 -0.98928,-0.926042 z"
         id="path5317" />
      <path
         style="fill:#657749"
         d="m -162.11892,80.619657 c -0.56049,-0.120141 -0.83791,-0.382867 -1.01286,-0.959211 -0.13252,-0.436562 -0.48383,-1.419435 -0.78071,-2.184161 -0.40768,-1.050157 -0.46691,-1.478201 -0.24204,-1.749153 0.22313,-0.268853 0.19782,-0.597865 -0.10102,-1.31307 -0.2193,-0.52488 -0.39611,-1.464167 -0.3929,-2.087305 l 0.006,-1.132977 0.77562,1.32993 c 0.94942,1.627952 2.85077,6.367058 2.96541,7.391242 0.0935,0.835255 -0.0961,0.94503 -1.21733,0.704705 z"
         id="path5316" />
      <path
         style="fill:#657749"
         d="m -166.9485,80.667087 c -0.36951,-0.072 -0.96531,-0.758866 -1.67018,-1.925463 -0.97542,-1.614384 -1.05762,-1.874922 -0.74849,-2.372515 0.30063,-0.483921 0.26448,-0.70324 -0.26918,-1.633355 -0.77956,-1.358685 -0.5531,-1.633863 0.4101,-0.49833 0.40453,0.476898 1.24154,1.449685 1.86002,2.161749 1.25134,1.440656 2.55168,3.804464 2.30893,4.197238 -0.15776,0.255271 -0.81732,0.279919 -1.8912,0.07068 z"
         id="path5315" />
    </g>
  </g>
</svg>
