<?xml version="1.0" encoding="UTF-8" standalone="no"?>
<!-- Created with Inkscape (http://www.inkscape.org/) -->

<svg
   width="64.41539mm"
   height="58.992348mm"
   viewBox="0 0 64.41539 58.992348"
   version="1.1"
   id="svg1"
   xmlns="http://www.w3.org/2000/svg"
   xmlns:svg="http://www.w3.org/2000/svg">
  <defs
     id="defs1" />
  <g
     id="layer1"
     transform="translate(-55.297918,-112.44792)">
    <g
       id="g5601"
       transform="translate(322.793,89.262265)">
      <path
         style="fill:#ebe5d8"
         d="m -266.66507,81.886855 c -0.0995,-0.161073 -0.0181,-0.447627 0.18104,-0.636786 0.38565,-0.366353 4.85875,-1.817075 6.84433,-2.219758 0.65484,-0.132805 2.08359,-0.423675 3.175,-0.646378 4.72773,-0.964699 6.70633,-1.288907 10.31875,-1.6908 2.11005,-0.23475 3.92245,-0.499238 4.02756,-0.587751 0.27085,-0.228096 -0.98606,-5.652734 -2.18024,-9.409566 -1.24154,-3.905803 -2.61762,-7.195496 -3.83501,-9.168004 -0.99701,-1.615453 -1.16403,-2.529967 -0.508,-2.781706 0.6161,-0.236421 1.62927,0.398745 3.23465,2.027836 3.10613,3.151999 5.09969,6.954331 6.79734,12.964583 l 0.41103,1.455208 -0.13915,-2.38125 c -0.31658,-5.417166 -1.31458,-15.768489 -1.86847,-19.379819 -0.2287,-1.491088 -0.34198,-2.830541 -0.25173,-2.976562 0.32143,-0.520093 1.16416,-0.252842 1.73628,0.55062 1.5943,2.238999 3.25202,7.629938 3.75599,12.214615 0.15597,1.418828 0.37296,2.579688 0.48221,2.579688 0.10925,0 0.2815,-0.922735 0.38276,-2.050521 0.20784,-2.314527 1.60501,-8.019097 2.62861,-10.732378 1.27208,-3.37196 2.78415,-6.002518 3.45031,-6.002518 0.64543,0 0.68674,0.949066 0.15122,3.474216 -0.63498,2.994148 -1.51012,7.855742 -1.70838,9.490368 -0.0794,0.654843 -0.39517,3.017673 -0.70167,5.250731 -0.58135,4.235681 -0.57523,5.474504 0.013,2.627176 1.209,-5.852335 4.7561,-12.350995 8.15743,-14.945272 1.21808,-0.929059 2.15802,-1.130386 2.15802,-0.462227 0,0.22435 -0.37111,1.206615 -0.82468,2.182812 -0.45357,0.976198 -1.16539,2.508612 -1.58182,3.405366 -1.21623,2.619083 -2.30733,5.787707 -3.30235,9.590215 -0.9402,3.593043 -1.12458,5.499751 -0.29589,3.059896 1.16601,-3.433009 6.51955,-10.708697 7.87959,-10.708697 0.89641,0 0.81151,0.552446 -0.49955,3.250481 -1.79091,3.685531 -2.48014,5.365644 -3.89177,9.486867 -1.01294,2.957263 -2.24603,7.203192 -2.24603,7.733808 0,0.162123 0.25674,0.205639 5.68854,0.964164 4.44347,0.62051 7.89872,1.421691 12.10205,2.80614 2.88889,0.951513 3.46715,1.302763 2.81466,1.709675 -0.57231,0.356903 -62.33469,0.312995 -62.55562,-0.04447 z"
         id="path5592" />
      <path
         style="fill:#e3d9c9"
         d="m -253.15741,81.903094 c -7.13052,-0.07623 -13.00137,-0.165524 -13.04634,-0.198437 -0.49517,-0.362425 3.29024,-1.675525 7.75467,-2.689973 3.61824,-0.822168 11.34123,-2.071927 14.08907,-2.279939 l 2.44739,-0.185268 v -0.7618 c 0,-1.023353 -1.0891,-5.57006 -2.11444,-8.827237 -1.20226,-3.819196 -2.56611,-7.1139 -3.90857,-9.442095 -1.19134,-2.066115 -1.25026,-2.596447 -0.28847,-2.596447 0.69108,0 3.65204,2.834248 5.1561,4.935449 1.94088,2.711446 3.70017,7.205569 4.85212,12.394759 l 0.52861,2.38125 -0.12852,-1.984375 c -0.0707,-1.091406 -0.36053,-4.60375 -0.6441,-7.805208 -0.28358,-3.201458 -0.6466,-7.309114 -0.80671,-9.128125 -0.16011,-1.81901 -0.46378,-4.467367 -0.67482,-5.885237 -0.5058,-3.398275 -0.50384,-3.429046 0.21161,-3.327436 0.45451,0.06455 0.8804,0.651844 1.80066,2.483047 1.39874,2.783352 2.42435,6.700605 2.91916,11.149625 0.18136,1.630635 0.40894,2.915845 0.50574,2.856024 0.0968,-0.05982 0.32835,-1.334446 0.51457,-2.832499 0.65788,-5.292294 2.95982,-12.746433 4.86518,-15.754461 0.39175,-0.618464 0.83357,-1.124479 0.98184,-1.124479 0.59593,0 0.54971,0.999894 -0.22385,4.843217 -0.93956,4.667987 -1.43003,7.721752 -2.15431,13.413032 -0.47364,3.721744 -0.95164,9.536509 -0.65251,7.9375 1.91348,-10.228394 3.2662,-13.730858 7.09234,-18.363533 1.70474,-2.064091 3.8642,-3.430423 3.8642,-2.444952 0,0.197 -0.65617,1.738618 -1.45815,3.425818 -2.34031,4.923498 -4.46675,11.51301 -5.31057,16.456626 -0.24324,1.425097 -0.1027,1.218659 1.18632,-1.742562 1.32691,-3.04828 3.63251,-6.651644 5.69905,-8.906917 1.44256,-1.574312 2.05608,-1.940518 2.3781,-1.419475 0.0796,0.128793 -0.62043,1.825434 -1.55563,3.770312 -2.44269,5.079937 -6.08671,16.0992 -5.45338,16.49062 0.10785,0.06665 2.269,0.425727 4.80257,0.79794 5.15491,0.75732 8.97866,1.609763 12.60745,2.810621 2.41489,0.799151 3.07804,1.190236 2.4007,1.415789 -0.57253,0.190652 -34.30723,0.28774 -48.23708,0.138826 z"
         id="path5578" />
      <path
         style="fill:#dad7c5"
         d="m -230.80685,82.092668 c -0.20365,-0.180835 -15.24197,-0.44436 -25.47503,-0.446413 -6.04708,-0.0012 -9.41714,-0.09466 -9.316,-0.25831 0.58159,-0.941023 11.36573,-3.311088 19.28629,-4.238609 2.30999,-0.270507 4.29835,-0.590196 4.41858,-0.71042 0.28177,-0.281772 -0.77896,-5.167705 -1.98184,-9.128732 -1.22036,-4.018582 -2.29974,-6.723541 -3.74565,-9.386764 -0.64421,-1.186566 -1.17128,-2.347425 -1.17128,-2.579687 0,-0.830303 1.04935,-0.40268 2.65128,1.080424 3.90274,3.613249 6.43311,8.846447 7.9436,16.428634 0.32678,1.640317 0.63987,2.936674 0.69575,2.880793 0.0559,-0.05588 -0.13934,-2.707645 -0.43381,-5.892811 -0.29447,-3.185165 -0.77908,-8.470116 -1.0769,-11.744335 -0.29782,-3.274219 -0.71835,-7.134585 -0.93451,-8.578591 -0.43443,-2.902072 -0.26937,-3.524456 0.70193,-2.646719 1.71386,1.54877 3.48467,7.284603 4.22511,13.685599 0.18178,1.57144 0.4121,2.762065 0.51183,2.645833 0.0997,-0.116231 0.38442,-1.64008 0.63267,-3.38633 0.76633,-5.390762 2.37159,-10.773979 4.31965,-14.485937 0.64929,-1.237193 1.0898,-1.785938 1.43367,-1.785938 0.27301,0 0.49639,0.10657 0.49639,0.236822 0,0.130251 -0.41205,2.303142 -0.91566,4.828645 -1.17815,5.908142 -2.51125,15.681948 -2.64723,19.408491 -0.0584,1.600729 -0.0512,2.553229 0.0159,2.116667 0.5436,-3.532612 1.58552,-8.206004 2.25723,-10.124484 1.61031,-4.599196 4.2596,-8.749367 6.95014,-10.887542 1.99254,-1.58347 2.06858,-0.983339 0.33846,2.671189 -1.32963,2.808568 -2.4786,5.736906 -3.45901,8.815837 -0.77407,2.430963 -2.01079,7.653485 -2.00376,8.461725 0.006,0.656529 0.16293,0.445484 0.88332,-1.185684 1.40826,-3.188732 2.41159,-5.032184 3.84169,-7.058431 1.38175,-1.95776 3.8315,-4.583235 4.27648,-4.583235 0.48069,0 0.24797,1.073457 -0.53255,2.456463 -2.30865,4.090701 -6.80069,17.252662 -6.2128,18.203888 0.0822,0.132953 0.42945,0.241732 0.77174,0.241732 1.07365,0 9.01402,1.303944 11.4439,1.879284 2.89288,0.684967 7.15255,2.035543 7.33107,2.324396 0.0736,0.119033 -5.36908,0.287289 -12.09479,0.3739 -6.7257,0.08661 -12.4697,0.230076 -12.76444,0.31881 -0.29474,0.08873 -0.5924,0.111162 -0.66146,0.04984 z"
         id="path5563" />
      <path
         style="fill:#d1c5b1"
         d="m -240.62368,81.786882 c -0.0913,-0.0913 -5.60102,-0.17714 -12.24382,-0.190753 -6.6428,-0.01361 -12.13283,-0.113766 -12.20007,-0.22256 -0.14038,-0.227143 3.30144,-1.321806 6.22162,-1.978773 3.65457,-0.822185 11.64498,-2.106592 14.99234,-2.409922 1.3123,-0.118918 2.03481,-0.304114 2.12736,-0.545294 0.23401,-0.609821 -1.20063,-6.599158 -2.55584,-10.670105 -1.28485,-3.859624 -2.52704,-6.745302 -3.89637,-9.051549 -0.58094,-0.978421 -0.67087,-1.315494 -0.41832,-1.568042 0.45835,-0.458342 1.85099,0.592289 3.9705,2.9954 2.92699,3.318637 5.49845,9.495347 6.42351,15.429399 0.18148,1.164167 0.43304,2.229776 0.55901,2.368021 0.3294,0.361468 0.2816,-1.237014 -0.17763,-5.939896 -0.22026,-2.255573 -0.51313,-5.529792 -0.65082,-7.276042 -0.37768,-4.789686 -0.73794,-8.357025 -1.23536,-12.232858 -0.24717,-1.925885 -0.37331,-3.577704 -0.2803,-3.670707 0.40575,-0.405756 1.01509,0.263717 1.87879,2.064224 1.62453,3.386564 2.57728,7.481858 3.21964,13.839341 0.2396,2.371286 0.47709,1.830165 1.0451,-2.38125 0.75609,-5.60596 2.53295,-11.617299 4.45299,-15.065008 1.70487,-3.061357 1.90107,-2.132406 0.72817,3.447678 -1.18746,5.649341 -2.22884,13.123157 -2.79845,20.083997 -0.46459,5.677579 -0.4959,7.368502 -0.13224,7.14375 0.14552,-0.08994 0.26562,-0.722042 0.26688,-1.404678 0.004,-1.96827 0.70342,-7.349894 1.33038,-10.231406 1.02055,-4.690403 2.82526,-8.896606 5.13577,-11.969865 1.90777,-2.537563 4.37947,-4.524101 4.37947,-3.519833 0,0.142226 -0.69935,1.779335 -1.55412,3.638021 -1.82965,3.97856 -3.14044,7.725893 -4.23622,12.110678 -0.79627,3.186303 -1.27226,5.953125 -1.02413,5.953125 0.0731,0 0.52244,-0.982266 0.99857,-2.182813 0.88447,-2.230143 2.64205,-5.532113 4.01095,-7.535361 1.74909,-2.559645 4.45078,-5.025177 4.45078,-4.06174 0,0.133652 -0.64199,1.532636 -1.42665,3.108854 -2.75307,5.530317 -6.27642,16.307094 -5.56274,17.014549 0.13339,0.132221 2.20705,0.549765 4.60814,0.927875 2.4011,0.378111 5.65098,0.978175 7.22196,1.333476 3.16024,0.714734 7.41291,1.9839 7.23701,2.159808 -0.062,0.06205 -3.07281,0.156241 -6.69058,0.209323 -3.61777,0.05308 -11.39985,0.175358 -17.29352,0.271724 -5.89367,0.09637 -10.79046,0.100512 -10.88176,0.0092 z"
         id="path5547" />
      <path
         style="fill:#cbbca7"
         d="m -264.34138,81.231221 c 0.38182,-0.381818 7.30647,-1.967646 8.5919,-1.967646 0.47975,0 0.87228,0.116794 0.87228,0.259542 0,0.389191 -1.20535,0.615154 -2.24301,0.420488 -0.81639,-0.153156 -0.93427,-0.101629 -1.07805,0.471267 -0.11275,0.449229 -0.40434,0.691803 -0.96681,0.804296 -1.01364,0.20273 -5.37714,0.21289 -5.17631,0.01205 z"
         id="path5529" />
      <path
         style="fill:#cbbca7"
         d="m -240.63422,81.625171 c -0.21687,-0.121368 -2.46846,-0.298136 -5.00354,-0.392819 -3.00115,-0.112089 -4.67568,-0.277862 -4.79968,-0.475151 -0.12484,-0.198635 0.16332,-0.375128 0.8366,-0.512402 1.20928,-0.246557 1.90438,-0.882108 1.24253,-1.136084 -0.23299,-0.08941 -0.62408,0.04308 -0.87866,0.297669 -0.43533,0.435329 -0.46906,0.420412 -0.65951,-0.291732 -0.1104,-0.412786 -0.15637,-0.794878 -0.10215,-0.849094 0.0542,-0.05422 0.85395,-0.119732 1.77719,-0.145592 0.92324,-0.02586 1.73814,-0.124269 1.81091,-0.21869 0.0728,-0.09442 1.14432,-0.339169 2.38125,-0.543886 2.14012,-0.354202 2.25302,-0.406916 2.33308,-1.089326 0.29656,-2.527889 -3.63475,-14.953022 -5.92772,-18.734933 -1.71162,-2.823049 -0.91118,-3.160402 1.65407,-0.697122 3.7907,3.640018 6.29768,9.040415 7.64778,16.474441 0.55592,3.06104 0.59841,3.192919 0.92375,2.867578 0.1751,-0.175098 0.17428,-1.056165 -0.002,-2.62393 -0.14633,-1.298173 -0.50623,-5.158284 -0.79979,-8.578023 -0.90059,-10.491097 -1.04445,-11.936438 -1.49531,-15.023564 -0.23978,-1.641762 -0.35026,-3.070512 -0.24552,-3.175 0.33895,-0.338138 1.37552,1.160898 2.24201,3.242301 1.41459,3.398 2.05742,6.481165 2.81228,13.488358 0.23299,2.162847 0.49499,1.499185 1.03948,-2.633137 0.48764,-3.700805 1.84207,-9.337953 2.86071,-11.90625 1.39196,-3.509564 2.57737,-5.502798 3.01334,-5.06683 0.0924,0.09237 -0.14589,1.686918 -0.52949,3.543432 -1.14168,5.525482 -1.86989,10.246876 -2.69827,17.494374 -0.52374,4.582134 -0.81326,11.541115 -0.47137,11.329814 0.1482,-0.09159 0.34916,-1.211581 0.44659,-2.488867 0.69429,-9.10237 2.45429,-15.471939 5.57021,-20.15895 1.85299,-2.787291 4.62503,-5.460294 5.01247,-4.833394 0.0741,0.119837 -0.50583,1.578675 -1.28865,3.241862 -1.74883,3.715554 -3.03732,7.240192 -4.0779,11.154999 -0.71953,2.707009 -1.61516,6.973317 -1.61516,7.69383 0,0.646129 0.54827,-0.327707 1.46138,-2.595687 1.26246,-3.135716 3.27012,-6.61263 5.21252,-9.027173 2.98624,-3.712109 3.66057,-3.562516 1.69056,0.375032 -2.4859,4.968689 -5.71863,14.483751 -5.71863,16.831942 0,0.800438 0.53525,1.095221 2.44123,1.344501 0.68783,0.08996 1.31656,0.270272 1.39716,0.400692 0.30226,0.489061 -0.18753,1.554606 -0.75171,1.635386 -0.80225,0.114866 -0.89906,0.939102 -0.12558,1.069217 0.33593,0.05651 -0.1036,0.186433 -0.97672,0.288717 -0.87313,0.102285 -2.12328,0.300157 -2.77813,0.439715 -1.44531,0.30802 -14.30687,0.29398 -14.86118,-0.01622 z"
         id="path5527" />
      <path
         style="fill:#bcc2a6"
         d="m -240.55266,81.667716 c -0.35343,-0.218431 -1.09538,-3.809895 -1.09538,-5.302276 0,-3.442764 -3.68382,-15.051907 -5.97588,-18.832309 -1.71162,-2.823049 -0.91118,-3.160402 1.65407,-0.697122 3.76166,3.612135 6.2445,8.929173 7.63111,16.342149 0.66129,3.535352 0.66316,3.541716 0.95196,3.252907 0.17457,-0.174567 0.12664,-1.590937 -0.14233,-4.205458 -0.22305,-2.168232 -0.58475,-6.085366 -0.80379,-8.704741 -0.69345,-8.292849 -0.91588,-10.507232 -1.36295,-13.568355 -0.23978,-1.641762 -0.35026,-3.070512 -0.24552,-3.175 0.33895,-0.338138 1.37552,1.160898 2.24201,3.242301 1.41459,3.398 2.05742,6.481165 2.81228,13.488358 0.23299,2.162847 0.49499,1.499185 1.03948,-2.633137 0.48764,-3.700805 1.84207,-9.337953 2.86071,-11.90625 1.39196,-3.509564 2.57737,-5.502798 3.01334,-5.06683 0.0924,0.09237 -0.14589,1.686918 -0.52949,3.543432 -1.14168,5.525482 -1.86989,10.246876 -2.69827,17.494374 -0.52374,4.582134 -0.81326,11.541115 -0.47137,11.329814 0.1482,-0.09159 0.34916,-1.211581 0.44659,-2.488867 0.69429,-9.10237 2.45429,-15.471939 5.57021,-20.15895 1.85299,-2.787291 4.62503,-5.460294 5.01247,-4.833394 0.0741,0.119837 -0.50583,1.578675 -1.28865,3.241862 -1.74883,3.715554 -3.03732,7.240192 -4.0779,11.154999 -0.71953,2.707009 -1.61516,6.973317 -1.61516,7.69383 0,0.646129 0.54827,-0.327707 1.46138,-2.595687 1.26246,-3.135716 3.27012,-6.61263 5.21252,-9.027173 2.98638,-3.712284 3.66093,-3.562565 1.6897,0.375032 -1.58362,3.16333 -2.97465,6.721243 -4.28824,10.968268 -0.87192,2.819066 -1.13679,4.050878 -1.68755,7.848354 -0.15653,1.079318 -0.43169,2.269943 -0.61146,2.645833 -0.31252,0.653479 -0.43517,0.686786 -2.79804,0.759863 -1.53116,0.04735 -2.60559,-0.03511 -2.8245,-0.216798 -0.24294,-0.201623 -0.50858,-0.21013 -0.85033,-0.02723 -0.56223,0.300895 -7.75603,0.351763 -8.23102,0.0582 z"
         id="path5505" />
      <path
         style="fill:#9dabdc"
         d="m -240.68781,81.430338 c -0.27286,-0.454472 -0.96113,-4.502371 -0.8256,-4.855551 0.20237,-0.527382 -0.93514,-5.704166 -2.08353,-9.482046 -1.11392,-3.664502 -2.9549,-8.117452 -4.09606,-9.907529 -0.86671,-1.359573 -1.04064,-1.99872 -0.54389,-1.99872 0.49433,0 3.94774,3.489952 5.04507,5.098468 1.9082,2.797105 3.66541,7.527134 4.59326,12.364031 0.64687,3.372168 0.76555,3.785216 1.12167,3.903924 0.43219,0.144064 0.41801,-0.921979 -0.0801,-6.02059 -0.22037,-2.255573 -0.50952,-5.470261 -0.64256,-7.14375 -0.43071,-5.417997 -1.08949,-11.861563 -1.43415,-14.027551 -0.18503,-1.162822 -0.27738,-2.173261 -0.20522,-2.245419 0.36332,-0.363321 0.69262,0.0526 1.6367,2.067203 1.36416,2.911048 2.27542,6.609623 2.78297,11.29535 0.67065,6.191592 0.68647,6.288714 0.92651,5.688542 0.1164,-0.291042 0.4088,-2.136511 0.64979,-4.101042 0.78633,-6.410337 2.26002,-11.956217 4.20154,-15.81157 1.65652,-3.289402 1.8307,-2.881626 0.82303,1.926835 -1.59234,7.598506 -3.75089,26.637533 -3.18544,28.096471 0.34483,0.889695 0.93915,-0.398347 0.93915,-2.035383 0,-2.066668 0.65509,-7.091157 1.29432,-9.927395 1.2912,-5.728947 3.12025,-9.624383 6.18627,-13.175236 1.19086,-1.379162 2.83816,-2.613968 2.83816,-2.12746 0,0.103959 -0.66962,1.614621 -1.48803,3.357027 -1.64816,3.508927 -3.20437,7.883632 -4.1959,11.795185 -0.65023,2.565113 -1.79631,9.030317 -1.63024,9.196384 0.0483,0.04829 0.59696,-1.286169 1.21926,-2.965462 1.42917,-3.856602 3.08593,-7.091974 4.98777,-9.7403 1.41865,-1.97547 3.4068,-4.05054 3.64892,-3.808428 0.0624,0.06241 -0.65679,1.708774 -1.59821,3.658589 -2.47034,5.116404 -5.71156,15.0515 -5.3551,16.414608 0.0668,0.255441 -0.0818,1.393367 -0.33017,2.528724 l -0.45162,2.064286 -7.31952,0.0501 c -4.02574,0.02755 -7.3688,-0.03198 -7.42902,-0.132292 z"
         id="path5485" />
      <path
         style="fill:#a9af90"
         d="m -240.68781,81.430338 c -0.27286,-0.454472 -0.96113,-4.502371 -0.8256,-4.855551 0.20237,-0.527382 -0.93514,-5.704166 -2.08353,-9.482046 -1.11392,-3.664502 -2.9549,-8.117452 -4.09606,-9.907529 -0.86671,-1.359573 -1.04064,-1.99872 -0.54389,-1.99872 0.49433,0 3.94774,3.489952 5.04507,5.098468 1.9082,2.797105 3.66541,7.527134 4.59326,12.364031 0.64687,3.372168 0.76555,3.785216 1.12167,3.903924 0.43219,0.144064 0.41801,-0.921979 -0.0801,-6.02059 -0.22037,-2.255573 -0.50952,-5.470261 -0.64256,-7.14375 -0.43071,-5.417997 -1.08949,-11.861563 -1.43415,-14.027551 -0.18503,-1.162822 -0.27738,-2.173261 -0.20522,-2.245419 0.36332,-0.363321 0.69262,0.0526 1.6367,2.067203 1.36416,2.911048 2.27542,6.609623 2.78297,11.29535 0.67065,6.191592 0.68647,6.288714 0.92651,5.688542 0.1164,-0.291042 0.4088,-2.136511 0.64979,-4.101042 0.78633,-6.410337 2.26002,-11.956217 4.20154,-15.81157 1.65652,-3.289402 1.8307,-2.881626 0.82303,1.926835 -1.59234,7.598506 -3.75089,26.637533 -3.18544,28.096471 0.34483,0.889695 0.93915,-0.398347 0.93915,-2.035383 0,-2.066668 0.65509,-7.091157 1.29432,-9.927395 1.2912,-5.728947 3.12025,-9.624383 6.18627,-13.175236 1.19086,-1.379162 2.83816,-2.613968 2.83816,-2.12746 0,0.103959 -0.66962,1.614621 -1.48803,3.357027 -1.64816,3.508927 -3.20437,7.883632 -4.1959,11.795185 -0.65023,2.565113 -1.79631,9.030317 -1.63024,9.196384 0.0483,0.04829 0.59696,-1.286169 1.21926,-2.965462 1.42917,-3.856602 3.08593,-7.091974 4.98777,-9.7403 1.41865,-1.97547 3.4068,-4.05054 3.64892,-3.808428 0.0624,0.06241 -0.65679,1.708774 -1.59821,3.658589 -2.47034,5.116404 -5.71156,15.0515 -5.3551,16.414608 0.0668,0.255441 -0.0818,1.393367 -0.33017,2.528724 l -0.45162,2.064286 -7.31952,0.0501 c -4.02574,0.02755 -7.3688,-0.03198 -7.42902,-0.132292 z"
         id="path5464" />
      <path
         style="fill:#7689ca"
         d="m -231.18748,81.43384 c -0.22604,-0.226036 -0.16434,-3.747654 0.10566,-6.030807 0.1361,-1.150925 0.3873,-3.342747 0.55821,-4.870715 0.91476,-8.178214 3.00489,-14.123324 6.48623,-18.44936 1.58147,-1.965186 2.76226,-3.018187 2.76226,-2.463315 0,0.142162 -0.4723,1.184968 -1.04955,2.317346 -2.70752,5.311231 -5.46607,15.116644 -6.01298,21.373454 -0.19363,2.215223 0.20385,1.682314 1.38143,-1.852084 1.19636,-3.590757 2.56679,-6.494741 4.37014,-9.260416 1.58551,-2.431589 3.42878,-4.717254 3.63661,-4.509422 0.0781,0.07808 -0.525,1.541365 -1.34018,3.251737 -2.27443,4.772106 -5.28783,14.167143 -5.15951,16.086077 0.0611,0.913102 -0.65557,4.214967 -0.95781,4.41311 -0.33115,0.217096 -4.56277,0.212135 -4.78051,-0.0056 z"
         id="path5428" />
      <path
         style="fill:#7689ca"
         d="m -236.36271,81.37632 c -0.16336,-0.100962 -0.38425,-1.998143 -0.52591,-4.516852 -0.13434,-2.388525 -0.36517,-5.592929 -0.51297,-7.120897 -0.1478,-1.527969 -0.38519,-4.266407 -0.52754,-6.085417 -0.62225,-7.951213 -1.274,-13.743959 -1.77869,-15.808854 -0.27096,-1.108648 0.39873,-0.603592 1.0525,0.79375 1.8221,3.89446 2.85555,8.65133 3.34832,15.411979 0.1591,2.182813 0.3581,4.266406 0.44221,4.630208 0.14614,0.632098 0.16224,0.63715 0.36284,0.113831 0.11545,-0.301195 0.28969,-1.372757 0.38718,-2.38125 0.86847,-8.983282 2.43575,-15.616026 4.78588,-20.253769 0.37456,-0.739161 0.73738,-1.287565 0.80627,-1.218676 0.0689,0.06889 -0.0564,0.943931 -0.27833,1.944538 -2.06582,9.312513 -3.66484,24.10198 -3.38013,31.26301 0.13445,3.38147 0.051,3.511338 -2.21723,3.448843 -0.9255,-0.0255 -1.80948,-0.1247 -1.9644,-0.220444 z"
         id="path5427" />
      <path
         style="fill:#7689ca"
         d="m -240.22868,81.44917 c -0.16524,-0.110671 -0.49843,-1.451377 -0.74043,-2.979345 -0.9368,-5.914889 -1.29288,-7.643081 -2.18061,-10.583334 -1.28301,-4.249459 -2.88389,-8.280842 -4.12735,-10.393642 -0.58094,-0.987077 -0.97553,-1.875401 -0.87688,-1.974053 0.28888,-0.28888 4.43817,4.188316 5.42558,5.854356 1.71864,2.899815 2.90511,6.643104 4.70612,14.847714 0.25555,1.164167 0.46703,2.831042 0.46995,3.704167 l 0.005,1.5875 -1.19063,0.06893 c -0.65484,0.03791 -1.32582,-0.02162 -1.49106,-0.132292 z"
         id="path5426" />
      <path
         style="fill:#88976d"
         d="m -231.18748,81.43384 c -0.22604,-0.226036 -0.16434,-3.747654 0.10566,-6.030807 0.1361,-1.150925 0.3873,-3.342747 0.55821,-4.870715 0.91476,-8.178214 3.00489,-14.123324 6.48623,-18.44936 1.58147,-1.965186 2.76226,-3.018187 2.76226,-2.463315 0,0.142162 -0.4723,1.184968 -1.04955,2.317346 -2.70752,5.311231 -5.46607,15.116644 -6.01298,21.373454 -0.19363,2.215223 0.20385,1.682314 1.38143,-1.852084 1.19636,-3.590757 2.56679,-6.494741 4.37014,-9.260416 1.58551,-2.431589 3.42878,-4.717254 3.63661,-4.509422 0.0781,0.07808 -0.525,1.541365 -1.34018,3.251737 -2.27443,4.772106 -5.28783,14.167143 -5.15951,16.086077 0.0611,0.913102 -0.65557,4.214967 -0.95781,4.41311 -0.33115,0.217096 -4.56277,0.212135 -4.78051,-0.0056 z"
         id="path5395" />
      <path
         style="fill:#88976d"
         d="m -236.36271,81.37632 c -0.16336,-0.100962 -0.38425,-1.998143 -0.52591,-4.516852 -0.13434,-2.388525 -0.36517,-5.592929 -0.51297,-7.120897 -0.1478,-1.527969 -0.38519,-4.266407 -0.52754,-6.085417 -0.62225,-7.951213 -1.274,-13.743959 -1.77869,-15.808854 -0.27096,-1.108648 0.39873,-0.603592 1.0525,0.79375 1.8221,3.89446 2.85555,8.65133 3.34832,15.411979 0.1591,2.182813 0.3581,4.266406 0.44221,4.630208 0.14614,0.632098 0.16224,0.63715 0.36284,0.113831 0.11545,-0.301195 0.28969,-1.372757 0.38718,-2.38125 0.86847,-8.983282 2.43575,-15.616026 4.78588,-20.253769 0.37456,-0.739161 0.73738,-1.287565 0.80627,-1.218676 0.0689,0.06889 -0.0564,0.943931 -0.27833,1.944538 -2.06582,9.312513 -3.66484,24.10198 -3.38013,31.26301 0.13445,3.38147 0.051,3.511338 -2.21723,3.448843 -0.9255,-0.0255 -1.80948,-0.1247 -1.9644,-0.220444 z"
         id="path5394" />
      <path
         style="fill:#88976d"
         d="m -240.22868,81.44917 c -0.16524,-0.110671 -0.49843,-1.451377 -0.74043,-2.979345 -0.9368,-5.914889 -1.29288,-7.643081 -2.18061,-10.583334 -1.28301,-4.249459 -2.88389,-8.280842 -4.12735,-10.393642 -0.58094,-0.987077 -0.97553,-1.875401 -0.87688,-1.974053 0.28888,-0.28888 4.43817,4.188316 5.42558,5.854356 1.71864,2.899815 2.90511,6.643104 4.70612,14.847714 0.25555,1.164167 0.46703,2.831042 0.46995,3.704167 l 0.005,1.5875 -1.19063,0.06893 c -0.65484,0.03791 -1.32582,-0.02162 -1.49106,-0.132292 z"
         id="path5393" />
      <path
         style="fill:#78895c"
         d="m -244.24893,63.215411 c -0.54552,-1.347581 -0.50512,-2.064956 0.12139,-2.155278 0.44299,-0.06387 0.58694,0.08057 0.67444,0.676737 0.0612,0.416864 -0.0243,1.089468 -0.18991,1.494676 l -0.30114,0.736742 z"
         id="path5365" />
      <path
         style="fill:#78895c"
         d="m -231.0647,79.426497 c 0,-3.177493 0.73583,-8.069986 1.46203,-9.721007 0.36005,-0.818562 0.65463,-1.681765 0.65463,-1.918229 0,-0.236465 0.10425,-0.429936 0.23167,-0.429936 0.12741,0 0.17168,1.279922 0.0984,2.84427 -0.22298,4.758382 -0.20934,6.013472 0.0668,6.151563 0.14552,0.07276 0.6345,-0.958632 1.08662,-2.291984 0.96028,-2.831959 1.67324,-4.154067 2.30584,-4.275894 0.40119,-0.07726 0.43407,0.0902 0.2856,1.454344 -0.0923,0.847912 -0.32746,2.40834 -0.5226,3.467616 -0.19514,1.059277 -0.30493,2.071308 -0.24399,2.248959 0.0609,0.17765 -0.0973,1.215969 -0.35169,2.307376 l -0.46251,1.984374 -2.30541,0.04162 -2.3054,0.04162 z"
         id="path5350" />
      <path
         style="fill:#78895c"
         d="m -236.26122,81.055555 c -0.3477,-0.562583 -0.46638,-11.05158 -0.12887,-11.389091 0.55479,-0.554787 0.88885,0.233204 1.2288,2.898471 0.18222,1.428679 0.35423,2.538067 0.38223,2.465306 0.028,-0.07276 0.0867,-0.489479 0.13045,-0.926041 0.61077,-6.095685 1.34846,-8.284449 1.96583,-5.832676 0.30813,1.223728 0.42179,11.941707 0.13456,12.690203 -0.20232,0.52725 -3.39527,0.607937 -3.713,0.09383 z"
         id="path5349" />
      <path
         style="fill:#78895c"
         d="m -240.14029,81.181804 c -0.13518,-0.241686 -0.84349,-4.217388 -1.24434,-6.984385 -0.24401,-1.684396 -0.2264,-2.183152 0.10511,-2.976562 0.21903,-0.524214 0.56879,-0.953116 0.77725,-0.953116 0.39606,0 1.01061,1.47226 1.65664,3.96875 0.20711,0.800365 0.49437,1.819828 0.63834,2.265473 0.14398,0.445646 0.33915,1.725568 0.43372,2.844271 l 0.17193,2.034006 h -1.21383 c -0.66761,0 -1.26378,-0.0893 -1.32482,-0.198437 z"
         id="path5348" />
      <path
         style="fill:#657749"
         d="m -230.72271,78.692742 c 0.1517,-2.881043 0.81312,-6.51915 1.2619,-6.940994 0.23932,-0.224958 0.2751,0.601375 0.15342,3.543077 -0.18604,4.497657 -0.39858,5.648919 -1.0666,5.777569 -0.44182,0.08509 -0.4688,-0.09908 -0.34872,-2.379652 z"
         id="path5309" />
      <path
         style="fill:#657749"
         d="m -234.57727,79.608536 c -0.0775,-0.844573 0.0155,-2.369024 0.20674,-3.38767 0.19118,-1.018646 0.42062,-2.920428 0.50987,-4.226182 0.14324,-2.095497 0.43395,-3.122699 0.78327,-2.767637 0.062,0.06306 0.15332,2.734028 0.20285,5.935486 l 0.09,5.820833 -0.82596,0.08038 c -0.82551,0.08034 -0.82602,0.07957 -0.96682,-1.455208 z"
         id="path5308" />
      <path
         style="fill:#657749"
         d="m -240.06054,80.474385 c 0,-0.352701 -0.14172,-1.255246 -0.31493,-2.005657 -0.23654,-1.024724 -0.23985,-1.484622 -0.0133,-1.847371 0.19469,-0.311751 0.24584,-1.148443 0.14427,-2.359968 -0.0937,-1.118291 -0.0559,-1.876981 0.0937,-1.876981 0.25527,0 1.50886,3.496599 1.94459,5.423958 0.13159,0.582084 0.24444,1.564349 0.25078,2.182813 l 0.0115,1.124479 h -1.05833 c -0.94362,0 -1.05834,-0.06951 -1.05834,-0.641273 z"
         id="path5307" />
      <path
         style="fill:#657749"
         d="m -228.56953,81.227087 c -0.38207,-0.166996 0.17442,-3.66114 0.76227,-4.786233 0.24091,-0.461091 0.68582,-1.500624 0.98867,-2.310076 0.30285,-0.809451 0.64623,-1.530802 0.76305,-1.603002 0.33118,-0.204681 0.0594,5.917193 -0.32835,7.397257 -0.3111,1.187364 -0.42634,1.328184 -1.12465,1.374323 -0.42792,0.02827 -0.90537,-0.0042 -1.06099,-0.07227 z"
         id="path5306" />
    </g>
  </g>
</svg>
