<?xml version="1.0" encoding="UTF-8" standalone="no"?>
<!-- Created with Inkscape (http://www.inkscape.org/) -->

<svg
   width="185"
   height="185"
   viewBox="0 0 48.947914 48.947918"
   version="1.1"
   id="svg1"
   sodipodi:docname="convallaria-majalis-7.svg"
   inkscape:version="1.4 (e7c3feb100, 2024-10-09)"
   xmlns:inkscape="http://www.inkscape.org/namespaces/inkscape"
   xmlns:sodipodi="http://sodipodi.sourceforge.net/DTD/sodipodi-0.dtd"
   xmlns="http://www.w3.org/2000/svg"
   xmlns:svg="http://www.w3.org/2000/svg">
  <sodipodi:namedview
     id="namedview1"
     pagecolor="#ffffff"
     bordercolor="#666666"
     borderopacity="1.0"
     inkscape:showpageshadow="2"
     inkscape:pageopacity="0.0"
     inkscape:pagecheckerboard="true"
     inkscape:deskcolor="#d1d1d1"
     showgrid="false"
     inkscape:zoom="1.211637"
     inkscape:cx="79.644316"
     inkscape:cy="150.21001"
     inkscape:current-layer="svg1" />
  <defs
     id="defs1" />
  <g
     id="g16089"
     transform="matrix(0.94874544,0,0,0.94874544,-161.58261,-111.46666)"
     style="stroke-width:1.05402">
    <path
       style="fill:#ede4d3;stroke-width:1.05402"
       d="m 180.27566,168.68109 c -0.23463,-0.61142 0.46573,-1.07185 2.55372,-1.67886 2.05282,-0.59678 4.03737,-0.98076 6.27929,-1.21495 l 1.64242,-0.17155 -2.10161,-2.72239 c -5.28136,-6.8414 -8.79734,-14.67262 -10.15064,-22.60874 -0.41724,-2.44685 -0.5812,-7.77202 -0.26469,-8.59684 0.42144,-1.09824 3.50685,0.11186 6.29403,2.4685 3.05677,2.5846 5.58699,6.52207 7.02841,10.93746 0.32066,0.98227 0.62301,1.78594 0.67189,1.78594 0.0489,0 0.10286,-3.30399 0.11996,-7.34219 0.0352,-8.3178 0.26819,-11.2799 1.07874,-13.71561 1.54747,-4.65013 6.03233,-7.88943 10.8915,-7.86664 2.95194,0.0138 4.52486,1.01238 7.55539,4.79641 1.41765,1.77012 0.96027,3.49053 -0.92797,3.49053 -1.53081,0 -2.30669,-1.50642 -1.48891,-2.89081 l 0.47656,-0.80676 -0.91499,-0.95253 c -1.78839,-1.86174 -4.17942,-2.47872 -7.23728,-1.8675 l -1.03062,0.206 0.77731,0.47271 c 1.13391,0.68957 2.09614,1.93808 2.60581,3.38105 0.24617,0.69697 0.615,1.58324 0.81962,1.9695 0.49497,0.93433 0.4725,2.46675 -0.0437,2.98298 -0.65574,0.65574 -1.8446,0.52061 -2.47544,-0.28136 -0.69032,-0.87761 -0.69643,-1.6891 -0.0192,-2.55006 0.63141,-0.80271 0.66044,-1.28773 0.13758,-2.29883 -0.94982,-1.83674 -3.17543,-2.58186 -4.76937,-1.59674 -1.04997,0.64891 -2.2053,2.22525 -2.86351,3.90698 -0.5768,1.47374 -0.56102,1.59762 0.1853,1.45495 1.4327,-0.27388 3.10965,1.30645 3.99542,3.76521 0.26212,0.72761 0.66594,1.54079 0.89738,1.80707 0.60527,0.69641 0.55237,2.5138 -0.0868,2.98116 -1.90367,1.392 -4.10401,-1.25335 -2.4802,-2.98182 0.52473,-0.55855 0.54495,-0.69948 0.24428,-1.70303 -0.42365,-1.414 -1.36481,-2.35234 -2.35943,-2.35234 -1.44582,0 -1.44845,0.0171 -1.66219,10.80135 -0.21421,10.80785 -0.24466,23.25439 -0.0548,22.40386 1.00693,-4.51101 4.07184,-11.36103 6.62943,-14.81667 2.319,-3.13326 5.90984,-6.42237 8.45998,-7.7491 2.25438,-1.17286 5.069,-2.04903 5.42825,-1.68978 0.30241,0.30242 -0.45161,3.7102 -1.28909,5.82601 -1.05335,2.66116 -1.85611,4.17155 -3.60773,6.78787 -2.91535,4.35456 -4.7895,6.56673 -10.44448,12.32819 l -2.75138,2.80318 2.40704,0.17086 c 3.32468,0.23599 7.87263,1.37606 8.73547,2.18978 1.01583,0.95801 0.18516,1.0261 -13.49928,1.10654 -12.20539,0.0717 -13.23318,0.0434 -13.39144,-0.36899 z"
       id="path16076" />
    <path
       style="fill:#e4d9c9;stroke-width:1.05402"
       d="m 180.78553,168.92057 c -0.95942,-0.18904 -0.68916,-0.74137 0.66146,-1.35183 1.86969,-0.84507 4.3974,-1.41262 7.13644,-1.60235 l 2.44009,-0.16902 -1.44139,-1.79555 c -6.13707,-7.64499 -10.00233,-16.13272 -11.23126,-24.66279 -0.2943,-2.04274 -0.36083,-6.54058 -0.11055,-7.47447 0.56151,-2.09528 6.61427,1.71827 9.75298,6.14488 1.48787,2.09838 2.64097,4.43356 3.5763,7.24249 l 0.76227,2.28919 0.0206,-6.87917 c 0.027,-9.01619 0.32257,-12.77767 1.18386,-15.06591 2.69184,-7.15156 11.49462,-10.05228 16.13076,-5.31546 1.90365,1.945 3.06689,3.54238 3.06689,4.21153 0,1.71021 -2.0902,2.40759 -3.1558,1.05291 -0.66878,-0.85022 -0.68357,-1.24105 -0.0854,-2.25481 l 0.46302,-0.78464 -1.33737,-1.27616 c -1.75564,-1.67529 -3.3427,-2.08433 -6.21042,-1.60062 l -1.95198,0.32924 0.94755,0.48612 c 1.24674,0.63962 2.17959,1.78081 2.73036,3.34017 0.24617,0.69697 0.615,1.58324 0.81962,1.9695 0.52568,0.99231 0.47127,2.43319 -0.11182,2.96087 -0.72931,0.66003 -1.77263,0.54767 -2.40736,-0.25925 -0.72883,-0.92656 -0.69253,-1.84036 0.10237,-2.57704 0.59294,-0.54953 0.62459,-0.68826 0.35636,-1.56223 -0.4443,-1.44767 -1.71221,-2.53364 -3.19549,-2.73694 -1.1533,-0.15808 -1.32725,-0.10099 -2.41952,0.79405 -1.14041,0.93448 -2.30641,2.87674 -2.68783,4.47726 -0.16393,0.68785 -0.1291,0.72876 0.48841,0.57378 1.4366,-0.36057 3.1847,1.25537 3.99254,3.6907 0.23735,0.71554 0.5938,1.48945 0.79211,1.71979 0.5363,0.62294 0.69867,1.57787 0.40129,2.36005 -0.3195,0.84034 -0.68245,1.09475 -1.55361,1.089 -0.96415,-0.006 -1.59072,-0.59612 -1.76332,-1.65973 -0.12312,-0.75873 -0.0301,-1.05633 0.49384,-1.58029 0.61814,-0.61814 0.63057,-0.69681 0.29292,-1.85477 -0.2007,-0.68831 -0.65158,-1.44443 -1.04662,-1.75516 -0.86778,-0.68261 -2.34138,-0.72937 -2.61179,-0.0829 -0.26813,0.64103 -0.62282,15.17483 -0.6118,25.06927 0.007,5.95987 0.082,7.94893 0.27578,7.27604 2.52783,-8.77875 5.41094,-13.97981 10.38592,-18.73592 2.52773,-2.41652 5.47673,-4.1828 8.10417,-4.85391 1.92593,-0.49193 2.10166,-0.31566 1.68185,1.68706 -0.51048,2.43532 -1.07852,4.00253 -2.41559,6.66465 -2.31015,4.59952 -5.34182,8.56634 -11.43385,14.96075 l -3.99988,4.19841 2.31637,0.17782 c 4.06931,0.31238 9.25602,1.80064 8.99819,2.58192 -0.0696,0.21083 -0.91663,0.39107 -2.33714,0.49731 -2.51131,0.18782 -23.3345,0.22745 -24.25457,0.0462 z"
       id="path16059" />
    <path
       style="fill:#dad4c8;stroke-width:1.05402"
       d="m 181.3147,168.89097 c -3.61412,-0.26149 2.0197,-2.52845 7.23758,-2.91229 l 2.46527,-0.18135 -1.59683,-1.98438 c -2.58374,-3.2108 -4.65637,-6.4994 -6.58671,-10.45104 -2.39792,-4.90882 -3.80346,-9.30524 -4.48314,-14.02292 -0.2943,-2.04274 -0.36083,-6.54058 -0.11055,-7.47447 0.56151,-2.09528 6.61427,1.71827 9.75298,6.14488 1.48787,2.09838 2.64097,4.43356 3.5763,7.24249 l 0.76227,2.28919 0.0223,-6.74688 c 0.0301,-9.11405 0.32553,-12.92239 1.17798,-15.18715 2.69597,-7.16251 11.49494,-10.06725 16.13492,-5.32651 2.9885,3.05341 3.60246,4.36768 2.53772,5.43241 -0.76134,0.76135 -1.95571,0.68497 -2.62663,-0.16797 -0.66257,-0.84232 -0.66808,-0.95499 -0.1047,-2.14222 l 0.44366,-0.93495 -1.31802,-1.2573 c -1.73482,-1.65491 -3.33443,-2.0636 -6.19106,-1.58176 l -1.95198,0.32924 0.94755,0.48612 c 1.25055,0.64157 2.18269,1.78494 2.72311,3.34017 0.24218,0.69697 0.61101,1.60429 0.81962,2.01626 0.20861,0.41198 0.37929,1.13766 0.37929,1.61264 0,1.69006 -1.85549,2.35892 -2.89122,1.04222 -0.72538,-0.92218 -0.69249,-1.73242 0.10262,-2.52752 0.59138,-0.59138 0.624,-0.73887 0.35636,-1.61094 -0.44454,-1.44843 -1.71219,-2.53441 -3.19574,-2.73775 -1.1533,-0.15808 -1.32725,-0.10099 -2.41952,0.79405 -1.14041,0.93448 -2.30641,2.87674 -2.68783,4.47726 -0.16393,0.68785 -0.1291,0.72876 0.48841,0.57378 1.45626,-0.3655 3.20234,1.27085 4.01045,3.75841 0.24455,0.75279 0.6167,1.51151 0.82701,1.68605 0.52238,0.43353 0.4997,2.47867 -0.0334,3.01177 -0.65574,0.65574 -1.84461,0.52061 -2.47544,-0.28136 -0.7178,-0.91255 -0.69459,-1.82652 0.0657,-2.58681 0.5833,-0.5833 0.5964,-0.67463 0.26146,-1.82331 -0.2007,-0.68831 -0.65158,-1.44443 -1.04662,-1.75516 -0.86796,-0.68274 -2.34222,-0.72957 -2.60948,-0.0829 -0.28028,0.67819 -0.68244,18.40412 -0.59877,26.39219 0.0399,3.80933 0.16167,6.52495 0.27287,6.08542 0.68717,-2.71613 2.35257,-7.25725 3.49438,-9.52824 3.37915,-6.72096 8.79722,-12.08315 14.03444,-13.88967 2.06818,-0.71341 2.93735,-0.63131 2.82549,0.26687 -0.25557,2.05216 -1.05822,4.46058 -2.42488,7.27604 -2.48963,5.1289 -5.89033,9.58561 -12.3514,16.18685 l -3.41282,3.48685 2.25657,0.16074 c 4.94277,0.35208 10.33745,2.09526 9.01454,2.91287 -0.26151,0.16162 -23.87026,0.33506 -25.87411,0.19008 z"
       id="path16030" />
    <path
       style="fill:#cfc8ab;stroke-width:1.05402"
       d="m 185.23896,168.84053 c -3.22942,-0.0877 -4.90606,-0.23143 -4.97073,-0.42623 -0.24313,-0.73236 4.80912,-2.18475 8.51505,-2.44784 l 2.37536,-0.16863 -0.9374,-1.05834 c -2.7942,-3.15469 -5.52763,-7.40354 -7.65968,-11.90625 -2.76208,-5.83328 -4.15545,-11.15262 -4.40461,-16.81507 -0.22432,-5.09783 0.13161,-5.52429 3.29241,-3.94482 1.94992,0.97439 4.95661,3.70199 6.56434,5.95502 1.4612,2.04769 3.09353,5.48542 3.76021,7.91912 l 0.50249,1.83433 0.16804,-9.38054 c 0.1839,-10.26526 0.34659,-11.56713 1.78209,-14.26041 1.98524,-3.72468 5.81107,-6.09847 9.83399,-6.10164 3.14662,-0.002 4.98251,1.10149 7.70194,4.63139 0.82736,1.07394 0.98419,1.46086 0.85633,2.11263 -0.30625,1.56107 -2.06537,2.00205 -3.04062,0.76223 -0.65326,-0.83048 -0.66873,-1.05018 -0.14476,-2.05493 0.53798,-1.03158 0.31049,-1.5804 -1.10219,-2.65906 -1.67653,-1.28013 -3.50718,-1.65228 -5.96609,-1.21285 l -1.90083,0.3397 0.77702,0.39545 c 1.32657,0.67513 2.17521,1.66229 2.75926,3.20967 0.30902,0.8187 0.73357,1.82561 0.94345,2.23758 0.20988,0.41198 0.38161,1.13766 0.38161,1.61264 0,1.69006 -1.85549,2.35892 -2.89122,1.04222 -0.73174,-0.93026 -0.69138,-1.7221 0.12694,-2.49087 0.51317,-0.4821 0.63526,-0.7949 0.50854,-1.30289 -0.46503,-1.86414 -2.05194,-3.18202 -3.83159,-3.18202 -1.62207,0 -3.61476,2.1544 -4.61507,4.9896 l -0.40074,1.1358 0.80511,-0.17683 c 1.21055,-0.26588 2.75933,0.86307 3.56863,2.60127 0.35135,0.75462 0.63997,1.53185 0.6414,1.72718 0.001,0.19533 0.24071,0.65787 0.53175,1.02787 0.64133,0.81532 0.70326,2.50613 0.11339,3.096 -0.65574,0.65574 -1.84461,0.52061 -2.47544,-0.28136 -0.73093,-0.92923 -0.69207,-1.84079 0.11016,-2.58426 0.65132,-0.60363 0.65394,-0.62375 0.23954,-1.83995 -0.53392,-1.56697 -1.47992,-2.33928 -2.73605,-2.23371 -0.91435,0.0769 -0.94491,0.11532 -1.11385,1.40193 -0.32344,2.46329 -0.55629,32.31522 -0.24868,31.88229 0.15509,-0.21828 0.28381,-0.61992 0.28604,-0.89253 0.002,-0.27261 0.42492,-1.76089 0.93931,-3.30729 3.27166,-9.83554 10.21447,-17.93864 16.92675,-19.75557 2.39515,-0.64834 2.53538,-0.54668 2.10144,1.52345 -1.38378,6.60147 -5.80696,13.39387 -14.46643,22.21522 l -3.55332,3.61974 2.00472,0.15021 c 2.81573,0.21098 4.85444,0.59881 7.22748,1.37492 2.06113,0.67409 2.5701,1.01263 2.14928,1.42957 -0.27281,0.27029 -15.15131,0.44373 -22.03477,0.25686 z"
       id="path16011" />
    <path
       style="fill:#bac4b4;stroke-width:1.05402"
       d="m 180.3297,168.58709 c -0.53276,-0.86201 5.64385,-2.65745 9.14205,-2.65745 1.86362,0 1.89656,0.22801 -0.36739,-2.54348 -2.22619,-2.72526 -4.40097,-6.20993 -6.25613,-10.02423 -3.01576,-6.20055 -4.4312,-11.43361 -4.69128,-17.34424 -0.22432,-5.09783 0.13161,-5.52429 3.29241,-3.94482 1.94992,0.97439 4.95661,3.70199 6.56434,5.95502 1.4612,2.04769 3.09353,5.48542 3.76021,7.91912 l 0.50249,1.83433 0.16804,-9.38054 c 0.1839,-10.26526 0.34659,-11.56713 1.78209,-14.26041 1.99922,-3.75091 5.81,-6.10033 9.89478,-6.10033 3.07921,0 4.83822,1.00809 7.17376,4.1113 1.17099,1.55587 1.45906,2.12234 1.33358,2.6223 -0.42358,1.68769 -2.27377,1.97792 -3.138,0.49224 -0.45801,-0.78736 -0.4624,-0.89913 -0.0654,-1.66687 0.56498,-1.09256 0.33363,-1.67791 -1.09405,-2.76802 -1.67653,-1.28013 -3.50718,-1.65228 -5.96609,-1.21285 l -1.90083,0.3397 0.77702,0.39545 c 1.32411,0.67388 2.17449,1.66101 2.76503,3.20967 0.31219,0.8187 0.73674,1.87953 0.94345,2.35741 0.55709,1.28789 0.47817,2.33673 -0.2122,2.82029 -0.8287,0.58044 -1.45128,0.51328 -2.20211,-0.23756 -0.8345,-0.83449 -0.82529,-1.73895 0.0259,-2.53857 0.51317,-0.4821 0.63526,-0.7949 0.50854,-1.30289 -0.46503,-1.86414 -2.05194,-3.18202 -3.83159,-3.18202 -1.62207,0 -3.61476,2.1544 -4.61507,4.9896 l -0.40074,1.1358 0.80511,-0.17683 c 1.21055,-0.26588 2.75933,0.86307 3.56863,2.60127 0.35135,0.75462 0.63997,1.53185 0.6414,1.72718 0.001,0.19533 0.24071,0.65787 0.53175,1.02787 0.64133,0.81532 0.70326,2.50613 0.11339,3.096 -0.65574,0.65574 -1.84461,0.52061 -2.47544,-0.28136 -0.73093,-0.92923 -0.69207,-1.84079 0.11016,-2.58426 0.65132,-0.60363 0.65394,-0.62375 0.23954,-1.83995 -0.53392,-1.56697 -1.47992,-2.33928 -2.73605,-2.23371 -0.91429,0.0768 -0.94493,0.1154 -1.11422,1.40193 -0.32193,2.44663 -0.50822,32.63867 -0.19509,31.61771 0.15622,-0.50932 0.5678,-1.88548 0.91464,-3.05813 3.11828,-10.5428 11.12875,-19.67852 18.30609,-20.87761 1.10443,-0.18451 1.12448,-0.17438 1.12448,0.56832 0,1.28305 -1.03725,4.59762 -2.22547,7.11158 -2.28611,4.8368 -6.62337,10.49747 -12.68565,16.55641 -1.83982,1.83881 -3.34513,3.41638 -3.34513,3.50573 0,0.0893 1.05629,0.16245 2.34732,0.16245 1.61827,0 3.118,0.19814 4.82865,0.63794 3.86385,0.99338 5.17669,1.67844 4.04718,2.11188 -0.71436,0.27412 -26.52278,0.18483 -26.69409,-0.0924 z"
       id="path16002" />
    <path
       style="fill:#c4b0a8;stroke-width:1.05402"
       d="m 180.3297,168.58706 c -0.52994,-0.85745 5.64047,-2.65745 9.10978,-2.65745 1.72672,0 1.91127,-0.17062 1.02886,-0.95118 -0.93707,-0.82891 -3.99845,-5.08883 -5.6239,-7.82569 -3.11493,-5.24477 -5.24623,-10.98597 -6.25442,-16.84786 -0.56042,-3.25844 -0.67743,-7.25496 -0.24565,-8.39061 0.24315,-0.63954 0.36837,-0.69646 1.22591,-0.5573 2.10527,0.34164 5.85522,3.25149 8.18596,6.35205 1.57706,2.09796 2.56662,4.07886 3.64856,7.30369 l 0.87182,2.59853 0.17549,-9.16321 c 0.22919,-11.96645 0.5445,-13.42821 3.62319,-16.79679 1.99244,-2.18005 4.57997,-3.40467 7.51982,-3.55897 1.96826,-0.10331 2.37155,-0.0398 3.74685,0.58981 1.89177,0.86608 2.17663,1.11774 3.99614,3.53037 1.1348,1.50471 1.41575,2.06229 1.29054,2.56118 -0.42181,1.68063 -2.27361,1.97823 -3.13155,0.50328 -0.46159,-0.79355 -0.46296,-0.87803 -0.029,-1.7881 0.43961,-0.92188 0.43671,-0.98052 -0.083,-1.68064 -0.29619,-0.39899 -1.11304,-1.08262 -1.81523,-1.51918 -1.17069,-0.72785 -1.46514,-0.79194 -3.5464,-0.77194 -1.24834,0.012 -2.56312,0.14313 -2.92173,0.29141 l -0.65203,0.26958 0.95064,0.45111 c 1.4083,0.66828 2.01185,1.44698 2.91466,3.76049 1.12899,2.89313 1.22917,3.88606 0.4473,4.4337 -0.85324,0.59763 -1.46994,0.53664 -2.22682,-0.22025 -0.8345,-0.83449 -0.82529,-1.73895 0.0259,-2.53857 0.76482,-0.71851 0.71835,-1.36059 -0.2071,-2.86162 -0.60491,-0.98112 -1.84885,-1.62329 -3.14444,-1.62329 -1.63966,0 -3.57458,2.12129 -4.60888,5.05281 l -0.35396,1.00322 0.98814,-0.0394 c 1.3488,-0.0538 2.7245,1.02651 3.44755,2.70727 0.30665,0.71284 0.55755,1.43381 0.55755,1.60217 0,0.16835 0.23813,0.60882 0.52917,0.97882 0.64133,0.81532 0.70326,2.50613 0.11339,3.096 -0.65574,0.65574 -1.84461,0.52061 -2.47544,-0.28136 -0.73093,-0.92923 -0.69207,-1.84079 0.11016,-2.58426 0.64739,-0.59999 0.65164,-0.63051 0.25111,-1.80599 -0.57467,-1.68657 -1.38521,-2.37765 -2.6654,-2.27257 -0.99116,0.0813 -1.02793,0.12026 -1.20483,1.27454 -0.32579,2.12577 -0.50606,32.7916 -0.18665,31.75 0.15619,-0.50932 0.56775,-1.88548 0.91459,-3.05813 3.11828,-10.5428 11.12875,-19.67852 18.30609,-20.87761 1.10443,-0.18451 1.12448,-0.17438 1.12448,0.56832 0,1.28305 -1.03725,4.59762 -2.22547,7.11158 -2.28611,4.8368 -6.62337,10.49747 -12.68565,16.55641 -1.83982,1.83881 -3.34513,3.41638 -3.34513,3.50573 0,0.0893 1.05629,0.16245 2.34732,0.16245 1.61827,0 3.118,0.19814 4.82865,0.63794 3.86385,0.99338 5.17669,1.67844 4.04718,2.11188 -0.71436,0.27412 -26.52278,0.18483 -26.69409,-0.0924 z"
       id="path15993" />
    <path
       style="fill:#d1b883;stroke-width:1.05402"
       d="m 180.34104,168.60498 c -0.53279,-0.86207 5.75144,-2.67581 9.27112,-2.67581 1.55687,0 1.72293,-0.18448 0.85618,-0.95118 -0.93707,-0.82891 -3.99845,-5.08883 -5.6239,-7.82569 -3.11493,-5.24477 -5.24623,-10.98597 -6.25442,-16.84786 -0.56042,-3.25844 -0.67743,-7.25496 -0.24565,-8.39061 0.24315,-0.63954 0.36837,-0.69646 1.22591,-0.5573 2.10527,0.34164 5.85522,3.25149 8.18596,6.35205 1.57706,2.09796 2.56662,4.07886 3.64856,7.30369 l 0.87182,2.59853 0.17549,-9.16321 c 0.22919,-11.96645 0.5445,-13.42821 3.62319,-16.79679 1.99244,-2.18005 4.57997,-3.40467 7.51982,-3.55897 1.96826,-0.10331 2.37155,-0.0398 3.74685,0.58981 1.82572,0.83584 2.18409,1.13776 3.67601,3.09692 1.69058,2.22004 1.81717,2.52174 1.44007,3.43215 -0.56303,1.35928 -2.18279,1.3948 -2.95949,0.0649 -0.46314,-0.793 -0.46457,-0.87686 -0.0304,-1.78724 0.43961,-0.92188 0.43671,-0.98052 -0.083,-1.68064 -0.29619,-0.39899 -1.11304,-1.08262 -1.81523,-1.51918 -1.17069,-0.72785 -1.46514,-0.79194 -3.5464,-0.77194 -1.24834,0.012 -2.56312,0.14313 -2.92173,0.29141 l -0.65203,0.26958 0.98583,0.46781 c 1.31684,0.62488 2.16192,1.68219 2.69592,3.37294 0.24272,0.76851 0.6216,1.75447 0.84196,2.19103 0.58016,1.14939 0.37306,2.27927 -0.50768,2.76978 -0.64821,0.361 -0.80468,0.36191 -1.43399,0.008 -0.38852,-0.21828 -0.81643,-0.72811 -0.95092,-1.13295 -0.24118,-0.72602 -0.171,-0.90229 0.97119,-2.43909 0.32899,-0.44265 -0.78468,-2.68929 -1.5969,-3.22148 -0.34927,-0.22885 -1.16787,-0.47615 -1.81912,-0.54955 -1.06877,-0.12047 -1.30092,-0.0377 -2.38372,0.84955 -1.18498,0.97099 -1.96162,2.18312 -2.65134,4.138 l -0.35396,1.00322 0.98814,-0.0394 c 1.3488,-0.0538 2.7245,1.02651 3.44755,2.70727 0.30665,0.71284 0.55755,1.43381 0.55755,1.60217 0,0.16835 0.23813,0.60882 0.52917,0.97882 1.60081,2.0351 -0.46851,4.65482 -2.26099,2.86234 -0.83477,-0.83477 -0.83126,-1.85315 0.009,-2.63196 0.64739,-0.59999 0.65164,-0.63051 0.25111,-1.80599 -0.57467,-1.68657 -1.38521,-2.37765 -2.6654,-2.27257 -0.99116,0.0813 -1.02793,0.12026 -1.20483,1.27454 -0.32579,2.12577 -0.50606,32.7916 -0.18665,31.75 0.15619,-0.50932 0.56775,-1.88548 0.91459,-3.05813 3.11828,-10.5428 11.12875,-19.67852 18.30609,-20.87761 1.06574,-0.17804 1.12448,-0.1543 1.12448,0.45453 0,1.29205 -1.07996,4.81251 -2.20467,7.18679 -2.3137,4.88427 -6.61465,10.49892 -12.70998,16.59218 -1.83788,1.83725 -3.3416,3.41483 -3.3416,3.50572 0,0.0909 1.05629,0.16527 2.34732,0.16527 1.61827,0 3.118,0.19814 4.82865,0.63794 3.86385,0.99338 5.17669,1.67844 4.04718,2.11188 -0.67156,0.2577 -26.52205,0.186 -26.68275,-0.074 z"
       id="path15985" />
    <path
       style="fill:#b5afa6;stroke-width:1.05402"
       d="m 196.07785,155.01579 c -0.0207,-0.32348 1.61952,-3.68226 1.73955,-3.56224 0.0607,0.0607 -0.30302,0.93153 -0.80828,1.93517 -0.50525,1.00364 -0.92432,1.73582 -0.93127,1.62707 z"
       id="path15977" />
    <path
       style="fill:#b5afa6;stroke-width:1.05402"
       d="m 192.65697,168.64113 c 0.078,-0.49391 -0.0546,-0.8599 -0.31153,-0.8599 -0.15411,0 -0.21432,0.10659 -0.13381,0.23686 0.0805,0.13027 -0.0413,0.30887 -0.27061,0.39688 -0.67365,0.2585 -0.89647,0.18659 -0.73398,-0.23686 0.10144,-0.26436 -0.0118,-0.39823 -0.33903,-0.40093 -0.37657,-0.003 -0.40748,-0.0572 -0.13235,-0.23151 0.38308,-0.24273 0.12328,-0.49329 -0.42513,-0.40999 -0.1819,0.0276 -0.47955,0.0735 -0.66145,0.10191 -0.18191,0.0284 -0.0926,0.15399 0.19843,0.27906 0.4525,0.19444 0.46208,0.23008 0.0661,0.24598 -0.25466,0.0102 -0.43326,0.16036 -0.39688,0.33362 0.0364,0.17326 -0.17198,0.34501 -0.46302,0.38168 -0.39668,0.05 -0.41348,0.0325 -0.0671,-0.0696 0.39122,-0.11541 0.41302,-0.22462 0.14223,-0.71241 -0.1759,-0.31685 -0.29251,-0.67145 -0.25913,-0.78798 0.0334,-0.11654 -0.44734,-0.14424 -1.06827,-0.0616 -0.89555,0.11924 -1.02943,0.0898 -0.64758,-0.14227 0.26476,-0.16092 1.12813,-0.25228 1.91859,-0.20302 0.79047,0.0493 1.43705,-0.007 1.43685,-0.12449 -2e-4,-0.11773 0.1187,-0.14046 0.26422,-0.0505 0.51968,0.32118 0.25368,-0.85367 -0.30521,-1.34805 -0.93707,-0.82891 -3.99845,-5.08883 -5.6239,-7.82569 -3.11493,-5.24477 -5.24623,-10.98597 -6.25442,-16.84786 -0.56042,-3.25844 -0.67743,-7.25496 -0.24565,-8.39061 0.24315,-0.63954 0.36837,-0.69646 1.22591,-0.5573 2.10527,0.34164 5.85522,3.25149 8.18596,6.35205 1.57706,2.09796 2.56662,4.07886 3.64856,7.30369 l 0.87182,2.59853 0.17549,-9.16321 c 0.22919,-11.96645 0.5445,-13.42821 3.62319,-16.79679 1.99244,-2.18005 4.57997,-3.40467 7.51982,-3.55897 1.96826,-0.10331 2.37155,-0.0398 3.74685,0.58981 1.82572,0.83584 2.18409,1.13776 3.67601,3.09692 1.64756,2.16354 1.75517,2.41966 1.4203,3.38027 -0.48347,1.38689 -2.27556,1.43333 -2.98602,0.0774 -0.31919,-0.6092 -0.31407,-0.8422 0.0378,-1.72162 0.3817,-0.95395 0.37436,-1.06099 -0.11827,-1.72468 -0.28887,-0.38918 -1.09973,-1.06479 -1.80192,-1.50135 -1.17069,-0.72785 -1.46514,-0.79194 -3.5464,-0.77194 -1.24834,0.012 -2.56312,0.14313 -2.92173,0.29141 l -0.65203,0.26958 0.98583,0.46781 c 1.31908,0.62594 2.16368,1.68454 2.69108,3.37294 0.24006,0.76851 0.60804,1.71331 0.81774,2.09956 0.5321,0.98008 0.47522,1.9819 -0.14789,2.60501 -0.65193,0.65193 -1.35724,0.6744 -2.07607,0.0661 -0.91046,-0.7704 -0.97129,-1.71488 -0.17167,-2.66518 0.76945,-0.91444 0.73787,-1.36672 -0.20402,-2.92143 -0.59359,-0.9798 -1.83629,-1.62329 -3.13489,-1.62329 -1.63966,0 -3.57458,2.12129 -4.60888,5.05281 l -0.35396,1.00322 0.98814,-0.0394 c 1.3488,-0.0538 2.7245,1.02651 3.44755,2.70727 0.30665,0.71284 0.55755,1.43381 0.55755,1.60217 0,0.16835 0.23813,0.60882 0.52917,0.97882 1.52662,1.94078 -0.29615,4.50998 -2.14027,3.0167 -0.83753,-0.67819 -0.85104,-2.28476 -0.0245,-2.90825 0.57149,-0.43107 0.576,-0.47478 0.17174,-1.66123 -0.58222,-1.70873 -1.38827,-2.40087 -2.67318,-2.2954 -0.99091,0.0813 -1.02802,0.12055 -1.20625,1.27454 -0.10113,0.65484 -0.24695,8.51297 -0.32405,17.4625 -0.11399,13.23254 -0.0796,15.983 0.18388,14.72529 0.17823,-0.85062 0.41965,-1.44956 0.53648,-1.33098 0.11683,0.11858 0.13864,0.0233 0.0485,-0.21162 -0.22907,-0.59695 0.38329,-2.79082 0.65587,-2.34977 0.13584,0.21979 0.42219,-0.30342 0.80777,-1.4759 0.68242,-2.07515 1.51728,-3.84314 1.94902,-4.12745 0.16235,-0.10691 0.20283,-0.19621 0.0899,-0.19844 -0.11287,-0.002 -0.0236,-0.35532 0.19844,-0.78466 0.47848,-0.92528 0.50802,-1.16719 0.11269,-0.92287 -0.18635,0.11517 -0.17286,-0.0457 0.0375,-0.4474 0.61534,-1.17496 1.34031,-2.07288 1.62402,-2.01145 0.1557,0.0337 0.34319,-0.10411 0.41664,-0.30627 0.0914,-0.25151 0.0228,-0.29908 -0.2174,-0.15066 -0.19302,0.11929 -0.0813,-0.16179 0.24828,-0.62463 0.73481,-1.03196 1.0123,-1.11488 0.38123,-0.11392 l -0.45874,0.7276 0.60121,-0.51876 c 0.34847,-0.30068 0.55013,-0.71411 0.47969,-0.98345 -0.13988,-0.53491 2.37182,-3.40776 4.13504,-4.72961 0.72826,-0.54596 0.86411,-0.60284 0.3928,-0.16447 -0.69124,0.64292 -0.69661,0.66758 -0.13229,0.60716 0.65019,-0.0696 1.8283,-0.67231 1.33921,-0.68511 -0.34163,-0.009 -0.31933,-0.67157 0.0334,-0.99258 0.12456,-0.11335 0.13128,-0.0418 0.0149,0.15896 -0.14469,0.24969 -0.0954,0.32634 0.15602,0.24254 0.20215,-0.0674 0.36755,-0.25151 0.36755,-0.40915 0,-0.15765 0.10839,-0.38586 0.24086,-0.50712 0.14283,-0.13075 0.15208,-0.0676 0.0227,0.1552 -0.17012,0.29303 -0.10668,0.32892 0.28831,0.16311 0.27854,-0.11692 0.72825,-0.20307 0.99936,-0.19144 0.27111,0.0116 0.41804,-0.0538 0.32651,-0.14528 -0.0915,-0.0915 0.40102,-0.45215 1.09457,-0.80137 0.99276,-0.4999 1.09215,-0.6014 0.46724,-0.47722 -0.68308,0.13575 -0.72325,0.11518 -0.28809,-0.14749 0.38606,-0.23303 0.62982,-0.2277 1.03055,0.0226 0.43712,0.27299 0.50039,0.26396 0.37839,-0.054 -0.11085,-0.28887 0.0181,-0.35029 0.53013,-0.25242 0.46442,0.0888 0.6179,0.0343 0.48939,-0.1736 -0.11747,-0.19007 0.0157,-0.30294 0.35755,-0.30294 0.63619,0 0.67876,0.40759 0.25091,2.40259 -0.21446,0.99996 -0.36215,1.27163 -0.5465,1.00521 -0.17896,-0.25864 -0.20341,-0.1903 -0.0839,0.23437 0.23213,0.8245 -0.36967,2.63789 -0.71157,2.14417 -0.18356,-0.26507 -0.21133,-0.21936 -0.10341,0.1702 0.32692,1.18004 -3.15798,7.06075 -6.81628,11.50238 -2.04293,2.48038 -5.11864,5.72967 -8.42037,8.89559 -1.07908,1.0347 -1.58867,1.7009 -1.41669,1.85208 0.14772,0.12986 0.92343,0.25137 1.7238,0.27001 3.1413,0.0732 5.92465,0.23474 5.38018,0.3123 -0.56159,0.08 -1.11324,0.84443 -0.60938,0.84443 0.14095,0 0.25628,-0.13197 0.25628,-0.29327 0,-0.30307 1.32325,-0.0959 1.58485,0.2481 0.0742,0.0976 0.37307,0.17746 0.66411,0.17746 0.29104,0 0.4994,0.14883 0.46302,0.33073 -0.0936,0.46784 0.37508,0.41236 0.5587,-0.0661 0.0838,-0.21828 0.30486,-0.38747 0.49133,-0.37598 0.26555,0.0164 0.26735,0.0498 0.008,0.15434 -0.48797,0.1969 -0.40179,0.82573 0.13229,0.9653 0.25467,0.0666 -0.10626,0.13481 -0.80205,0.15169 -0.8993,0.0218 -1.30894,-0.0836 -1.41679,-0.36466 -0.0834,-0.21745 -0.27669,-0.31811 -0.42945,-0.2237 -0.16908,0.10449 -0.19836,0.0432 -0.0748,-0.15665 0.15098,-0.24428 -0.0586,-0.30717 -0.81901,-0.24575 -0.5969,0.0482 -1.09671,0.25028 -1.20176,0.48585 -0.14473,0.32458 -0.18347,0.30706 -0.19844,-0.0897 -0.0149,-0.39373 -0.17719,-0.46977 -0.80589,-0.3775 -0.43301,0.0635 -0.81996,0.0325 -0.85989,-0.0689 -0.0399,-0.10147 -0.63299,-0.0406 -1.31791,0.13525 -0.68492,0.17586 -1.18391,0.2204 -1.10887,0.099 0.13041,-0.21099 -1.70965,-0.36338 -2.54062,-0.2104 -0.21828,0.0402 -0.7055,0.0835 -1.0827,0.0964 -0.51822,0.0176 -0.65617,0.13674 -0.56446,0.48745 0.0668,0.25529 -0.0116,0.46415 -0.17406,0.46415 -0.16249,0 -0.28134,-0.0893 -0.26411,-0.19843 z m 6.67565,-18.65153 c -0.0759,-0.12277 0.008,-0.39947 0.18711,-0.61489 0.17878,-0.21543 0.26333,-0.45342 0.18787,-0.52888 -0.12144,-0.12143 -1.26113,1.58399 -1.26113,1.88714 0,0.0657 0.23042,-0.0245 0.51205,-0.20037 0.28163,-0.17588 0.44998,-0.42023 0.3741,-0.543 z m 4.48412,-5.96029 c 0.12018,-0.18496 0.32202,-0.27231 0.44854,-0.19412 0.24364,0.15058 0.61487,-0.30559 0.69878,-0.85865 0.0276,-0.1819 -0.0286,-0.32872 -0.12486,-0.32627 -0.18724,0.005 -1.60738,1.47058 -2.68723,2.77367 -0.60661,0.73202 -0.57595,0.72173 0.39425,-0.13229 0.57861,-0.50932 1.15034,-1.07737 1.27052,-1.26234 z"
       id="path15976" />
    <path
       style="fill:#b5afa6;stroke-width:1.05402"
       d="m 180.30395,168.60053 c -0.06,-0.06 0.0214,-0.26641 0.18093,-0.45865 0.22493,-0.27102 0.41752,-0.28161 0.8576,-0.0472 0.52978,0.28223 0.54113,0.26977 0.17066,-0.18739 -0.36148,-0.44605 -0.35366,-0.47351 0.0878,-0.3079 0.26657,0.10001 0.62375,0.18365 0.79375,0.18588 0.18261,0.002 0.14668,0.11964 -0.0878,0.2865 -0.30276,0.21546 -0.17726,0.25373 0.52916,0.16139 0.50933,-0.0666 1.16417,-0.0253 1.45521,0.0918 0.45234,0.18194 0.41393,0.21921 -0.26458,0.25673 -1.99547,0.11034 -3.62299,0.11858 -3.72273,0.0188 z"
       id="path15975" />
    <path
       style="fill:#d1b77c;stroke-width:1.05402"
       d="m 196.07785,155.0163 c -0.0207,-0.32348 1.61952,-3.68226 1.73955,-3.56224 0.0607,0.0607 -0.30302,0.93153 -0.80828,1.93517 -0.50525,1.00364 -0.92432,1.73582 -0.93127,1.62707 z"
       id="path15965" />
    <path
       style="fill:#d1b77c;stroke-width:1.05402"
       d="m 192.65697,168.64161 c 0.078,-0.49391 -0.0546,-0.8599 -0.31153,-0.8599 -0.15411,0 -0.21432,0.10659 -0.13381,0.23686 0.0805,0.13027 -0.0413,0.30887 -0.27061,0.39688 -0.67365,0.2585 -0.89647,0.18659 -0.73398,-0.23686 0.10144,-0.26436 -0.0118,-0.39823 -0.33903,-0.40093 -0.37657,-0.003 -0.40748,-0.0572 -0.13235,-0.23151 0.38308,-0.24273 0.12328,-0.49329 -0.42513,-0.40999 -0.1819,0.0276 -0.47955,0.0735 -0.66145,0.10191 -0.18191,0.0284 -0.0926,0.15399 0.19843,0.27906 0.4525,0.19444 0.46208,0.23008 0.0661,0.24598 -0.25466,0.0102 -0.43326,0.16036 -0.39688,0.33362 0.0364,0.17326 -0.17198,0.34501 -0.46302,0.38168 -0.39668,0.05 -0.41348,0.0325 -0.0671,-0.0696 0.39122,-0.11541 0.41302,-0.22462 0.14223,-0.71241 -0.1759,-0.31685 -0.29251,-0.67145 -0.25913,-0.78798 0.0334,-0.11654 -0.44734,-0.14424 -1.06827,-0.0616 -0.89555,0.11924 -1.02943,0.0898 -0.64758,-0.14227 0.26476,-0.16092 1.12813,-0.25228 1.91859,-0.20302 0.79047,0.0493 1.43705,-0.007 1.43685,-0.12449 -2e-4,-0.11773 0.1187,-0.14046 0.26422,-0.0505 0.57222,0.35365 0.22431,-0.8716 -0.41889,-1.47523 -0.37592,-0.35279 -1.49331,-1.77253 -2.48309,-3.15498 -6.06646,-8.4731 -9.30043,-17.02849 -9.70132,-25.66458 -0.22778,-4.90681 0.15658,-5.46049 2.85109,-4.10711 5.10797,2.56558 9.0985,7.95671 10.93505,14.77302 0.35197,1.30631 0.37117,1.11696 0.39748,-3.91903 0.078,-14.94472 0.55782,-17.66583 3.72593,-21.13225 0.95472,-1.04461 1.95354,-1.77962 3.36928,-2.47938 1.90162,-0.93992 2.15129,-0.99462 4.53973,-0.99462 3.55199,0 4.80323,0.67835 7.32045,3.96875 1.3105,1.71302 1.45208,2.09149 1.12902,3.0182 -0.49026,1.40638 -2.2846,1.43037 -3.00351,0.0402 -0.34263,-0.66257 -0.33267,-0.83931 0.0945,-1.67713 0.47353,-0.92879 0.47219,-0.94326 -0.16258,-1.75434 -0.35202,-0.4498 -1.1969,-1.14517 -1.87751,-1.54527 -1.10938,-0.65215 -1.48395,-0.72602 -3.61872,-0.71363 -1.30969,0.008 -2.60842,0.14191 -2.88606,0.29848 -0.46066,0.25978 -0.41887,0.32546 0.47796,0.75103 1.19532,0.56722 2.05448,1.67565 2.66218,3.43459 0.25138,0.72761 0.62447,1.63895 0.82909,2.0252 0.52282,0.98692 0.4626,1.98528 -0.15713,2.60501 -0.65193,0.65193 -1.35724,0.6744 -2.07607,0.0661 -0.91046,-0.7704 -0.97129,-1.71488 -0.17167,-2.66518 0.76945,-0.91444 0.73787,-1.36672 -0.20402,-2.92143 -0.60064,-0.99145 -1.83867,-1.62329 -3.18066,-1.62329 -1.64661,0 -3.51386,2.0789 -4.57912,5.09817 l -0.36996,1.04859 0.7133,-0.13636 c 1.54304,-0.29497 3.19639,1.07896 3.91098,3.25002 0.26343,0.80036 0.69954,1.73915 0.96914,2.0862 0.70471,0.90718 0.6527,2.53245 -0.0979,3.05817 -0.77424,0.5423 -1.33671,0.51981 -2.0814,-0.0832 -0.83753,-0.67819 -0.85104,-2.28476 -0.0245,-2.90825 0.57149,-0.43107 0.576,-0.47478 0.17174,-1.66123 -0.58149,-1.70658 -1.38869,-2.40093 -2.66847,-2.2954 -0.98323,0.0811 -1.02427,0.12419 -1.21335,1.27454 -0.2627,1.59823 -0.64182,25.66321 -0.47518,30.1625 0.11931,3.22157 0.15366,3.42232 0.35021,2.04695 0.11986,-0.83871 0.32685,-1.45761 0.45999,-1.37532 0.13314,0.0823 0.17595,-0.0227 0.0951,-0.23328 -0.21743,-0.56661 0.41288,-2.72614 0.67289,-2.30543 0.13584,0.21979 0.42219,-0.30342 0.80777,-1.4759 0.68242,-2.07515 1.51728,-3.84314 1.94902,-4.12745 0.16235,-0.10691 0.20283,-0.19621 0.0899,-0.19844 -0.11287,-0.002 -0.0236,-0.35532 0.19844,-0.78466 0.47848,-0.92528 0.50802,-1.16719 0.11269,-0.92287 -0.18635,0.11517 -0.17286,-0.0457 0.0375,-0.4474 0.61534,-1.17496 1.34031,-2.07288 1.62402,-2.01145 0.1557,0.0337 0.34319,-0.10411 0.41664,-0.30627 0.0914,-0.25151 0.0228,-0.29908 -0.2174,-0.15066 -0.19302,0.11929 -0.0813,-0.16179 0.24828,-0.62463 0.73481,-1.03196 1.0123,-1.11488 0.38123,-0.11392 l -0.45874,0.7276 0.60121,-0.51876 c 0.34847,-0.30068 0.55013,-0.71411 0.47969,-0.98345 -0.13988,-0.53491 2.37182,-3.40776 4.13504,-4.72961 0.72826,-0.54596 0.86411,-0.60284 0.3928,-0.16447 -0.69124,0.64292 -0.69661,0.66758 -0.13229,0.60716 0.65019,-0.0696 1.8283,-0.67231 1.33921,-0.68511 -0.34163,-0.009 -0.31933,-0.67157 0.0334,-0.99258 0.12456,-0.11335 0.13128,-0.0418 0.0149,0.15896 -0.14469,0.24969 -0.0954,0.32634 0.15602,0.24254 0.20215,-0.0674 0.36755,-0.25151 0.36755,-0.40915 0,-0.15765 0.10839,-0.38586 0.24086,-0.50712 0.14283,-0.13075 0.15208,-0.0676 0.0227,0.1552 -0.17012,0.29303 -0.10668,0.32892 0.28831,0.16311 0.27854,-0.11692 0.72825,-0.20307 0.99936,-0.19144 0.27111,0.0116 0.41804,-0.0538 0.32651,-0.14528 -0.0915,-0.0915 0.40102,-0.45215 1.09457,-0.80137 0.99276,-0.4999 1.09215,-0.6014 0.46724,-0.47722 -0.68308,0.13575 -0.72325,0.11518 -0.28809,-0.14749 0.38606,-0.23303 0.62982,-0.2277 1.03055,0.0226 0.43712,0.27299 0.50039,0.26396 0.37839,-0.054 -0.11085,-0.28887 0.0181,-0.35029 0.53013,-0.25242 0.46442,0.0888 0.6179,0.0343 0.48939,-0.1736 -0.11747,-0.19007 0.0157,-0.30294 0.35755,-0.30294 0.63619,0 0.67876,0.40759 0.25091,2.40259 -0.21446,0.99996 -0.36215,1.27163 -0.5465,1.00521 -0.17896,-0.25864 -0.20341,-0.1903 -0.0839,0.23437 0.23213,0.8245 -0.36967,2.63789 -0.71157,2.14417 -0.18356,-0.26507 -0.21133,-0.21936 -0.10341,0.1702 0.32692,1.18004 -3.15798,7.06075 -6.81628,11.50238 -2.04293,2.48038 -5.11864,5.72967 -8.42037,8.89559 -1.07908,1.0347 -1.58867,1.7009 -1.41669,1.85208 0.14772,0.12986 0.92343,0.25137 1.7238,0.27001 3.1413,0.0732 5.92465,0.23474 5.38018,0.3123 -0.56159,0.08 -1.11324,0.84443 -0.60938,0.84443 0.14095,0 0.25628,-0.13197 0.25628,-0.29327 0,-0.30307 1.32325,-0.0959 1.58485,0.2481 0.0742,0.0976 0.37307,0.17746 0.66411,0.17746 0.29104,0 0.4994,0.14883 0.46302,0.33073 -0.0936,0.46784 0.37508,0.41236 0.5587,-0.0661 0.0838,-0.21828 0.30486,-0.38747 0.49133,-0.37598 0.26555,0.0164 0.26735,0.0498 0.008,0.15434 -0.48797,0.1969 -0.40179,0.82573 0.13229,0.9653 0.25467,0.0666 -0.10626,0.13481 -0.80205,0.15169 -0.8993,0.0218 -1.30894,-0.0836 -1.41679,-0.36466 -0.0834,-0.21745 -0.27669,-0.31811 -0.42945,-0.2237 -0.16908,0.10449 -0.19836,0.0432 -0.0748,-0.15665 0.15098,-0.24428 -0.0586,-0.30717 -0.81901,-0.24575 -0.5969,0.0482 -1.09671,0.25028 -1.20176,0.48585 -0.14473,0.32458 -0.18347,0.30706 -0.19844,-0.0897 -0.0149,-0.39373 -0.17719,-0.46977 -0.80589,-0.3775 -0.43301,0.0635 -0.81996,0.0325 -0.85989,-0.0689 -0.0399,-0.10147 -0.63299,-0.0406 -1.31791,0.13525 -0.68492,0.17586 -1.18391,0.2204 -1.10887,0.099 0.13041,-0.21099 -1.70965,-0.36338 -2.54062,-0.2104 -0.21828,0.0402 -0.7055,0.0835 -1.0827,0.0964 -0.51822,0.0176 -0.65617,0.13674 -0.56446,0.48745 0.0668,0.25529 -0.0116,0.46415 -0.17406,0.46415 -0.16249,0 -0.28134,-0.0893 -0.26411,-0.19843 z m 6.67565,-18.65153 c -0.0759,-0.12277 0.008,-0.39947 0.18711,-0.61489 0.17878,-0.21543 0.26333,-0.45342 0.18787,-0.52888 -0.12144,-0.12143 -1.26113,1.58399 -1.26113,1.88714 0,0.0657 0.23042,-0.0245 0.51205,-0.20037 0.28163,-0.17588 0.44998,-0.42023 0.3741,-0.543 z m 4.48412,-5.96029 c 0.12018,-0.18496 0.32202,-0.27231 0.44854,-0.19412 0.24364,0.15058 0.61487,-0.30559 0.69878,-0.85865 0.0276,-0.1819 -0.0286,-0.32872 -0.12486,-0.32627 -0.18724,0.005 -1.60738,1.47058 -2.68723,2.77367 -0.60661,0.73202 -0.57595,0.72173 0.39425,-0.13229 0.57861,-0.50932 1.15034,-1.07737 1.27052,-1.26234 z"
       id="path15962" />
    <path
       style="fill:#d1b77c;stroke-width:1.05402"
       d="m 180.30395,168.60101 c -0.06,-0.06 0.0214,-0.26641 0.18093,-0.45865 0.22493,-0.27102 0.41752,-0.28161 0.8576,-0.0472 0.52978,0.28223 0.54113,0.26977 0.17066,-0.18739 -0.36148,-0.44605 -0.35366,-0.47351 0.0878,-0.3079 0.26657,0.10001 0.62375,0.18365 0.79375,0.18588 0.18261,0.002 0.14668,0.11964 -0.0878,0.2865 -0.30276,0.21546 -0.17726,0.25373 0.52916,0.16139 0.50933,-0.0666 1.16417,-0.0253 1.45521,0.0918 0.45234,0.18194 0.41393,0.21921 -0.26458,0.25673 -1.99547,0.11034 -3.62299,0.11858 -3.72273,0.0188 z"
       id="path15961" />
    <path
       style="fill:#b2a49a;stroke-width:1.05402"
       d="m 203.47355,143.57237 c 0.93748,-0.94589 1.76404,-1.71979 1.8368,-1.71979 0.0728,0 -0.63474,0.7739 -1.57221,1.71979 -0.93748,0.94588 -1.76404,1.71979 -1.8368,1.71979 -0.0728,0 0.63474,-0.77391 1.57221,-1.71979 z"
       id="path15951" />
    <path
       style="fill:#b2a49a;stroke-width:1.05402"
       d="m 193.68397,165.55442 c 0,-1.5962 0.19785,-2.34307 0.56121,-2.1185 0.13264,0.082 0.16313,0.27533 0.0677,0.42968 -0.0994,0.16075 -0.0164,0.22975 0.19412,0.16154 0.45079,-0.14606 0.86513,-0.79965 3.071,-4.84436 3.23587,-5.93332 8.81556,-13.64529 12.81737,-17.71553 1.81307,-1.84408 2.49275,-2.70058 2.26584,-2.8553 -0.21525,-0.14677 -0.14638,-0.19509 0.20501,-0.14384 0.29104,0.0424 0.61664,0.19624 0.72355,0.34176 0.11094,0.15099 0.19613,0.0741 0.19844,-0.17904 0.002,-0.24399 -0.20431,-0.49807 -0.45897,-0.56462 -0.34843,-0.0911 -0.31569,-0.1286 0.13229,-0.15169 0.4874,-0.0251 0.58964,0.10121 0.56401,0.69691 -0.0398,0.92532 -0.42045,2.44539 -0.48034,1.91823 -0.0248,-0.21828 -0.33446,0.37703 -0.68813,1.32292 -0.35367,0.94588 -0.60543,1.83885 -0.55948,1.98437 0.046,0.14552 0.2726,-0.2712 0.50365,-0.92604 0.23104,-0.65484 0.42764,-1.01203 0.43687,-0.79375 0.0466,1.10074 -3.7413,8.35844 -4.21089,8.06822 -0.12401,-0.0766 -0.31163,5e-5 -0.41693,0.17043 -0.11957,0.19347 -0.0768,0.23889 0.11401,0.12099 0.52236,-0.32284 0.34341,0.0802 -0.75159,1.69263 -1.07937,1.58945 -1.92196,2.44175 -1.34128,1.35674 0.4222,-0.7889 0.16858,-0.69942 -0.37681,0.13294 -0.25011,0.38172 -0.32333,0.61282 -0.16272,0.51355 0.16062,-0.0993 0.29203,-0.0752 0.29203,0.0536 0,0.31982 -1.19706,1.42231 -1.36355,1.25582 -0.0735,-0.0735 -0.42187,0.19328 -0.77412,0.59289 l -0.64045,0.72656 0.76389,-0.66145 c 0.42731,-0.37001 0.71162,-0.49429 0.64524,-0.28206 -0.152,0.48597 -6.08906,6.83898 -6.42197,6.87189 -0.13769,0.0136 0.15996,-0.42174 0.66145,-0.96744 l 0.9118,-0.99219 -0.98189,0.90182 c -0.54004,0.496 -0.92895,0.98749 -0.86424,1.09219 0.13824,0.22368 -4.01372,4.2237 -4.38415,4.2237 -0.1386,0 -0.25201,-0.6451 -0.25201,-1.43357 z"
       id="path15949" />
    <path
       style="fill:#b2a49a;stroke-width:1.05402"
       d="m 191.13528,165.7609 c -3.07343,-3.29995 -6.55513,-8.60334 -8.7479,-13.32499 -2.53345,-5.45523 -3.9679,-11.03507 -4.21713,-16.40417 -0.22778,-4.90681 0.15658,-5.46049 2.85109,-4.10711 5.10797,2.56558 9.0985,7.95671 10.93505,14.77302 0.35197,1.30631 0.37117,1.11696 0.39748,-3.91903 0.078,-14.94472 0.55782,-17.66583 3.72593,-21.13225 0.95472,-1.04461 1.95354,-1.77962 3.36928,-2.47938 1.90162,-0.93992 2.15129,-0.99462 4.53973,-0.99462 3.55199,0 4.80323,0.67835 7.32045,3.96875 1.3105,1.71302 1.45208,2.09149 1.12902,3.0182 -0.49026,1.40638 -2.2846,1.43037 -3.00351,0.0402 -0.34263,-0.66257 -0.33267,-0.83931 0.0945,-1.67713 0.47353,-0.92879 0.47219,-0.94326 -0.16258,-1.75434 -0.35202,-0.4498 -1.1969,-1.14517 -1.87751,-1.54527 -1.10938,-0.65215 -1.48395,-0.72602 -3.61872,-0.71363 -1.30969,0.008 -2.60842,0.14191 -2.88606,0.29848 -0.46066,0.25978 -0.41887,0.32546 0.47796,0.75103 1.19532,0.56722 2.05448,1.67565 2.66218,3.43459 0.25138,0.72761 0.62447,1.63895 0.82909,2.0252 0.52282,0.98692 0.4626,1.98528 -0.15713,2.60501 -0.65193,0.65193 -1.35724,0.6744 -2.07607,0.0661 -0.91046,-0.7704 -0.97129,-1.71488 -0.17167,-2.66518 0.76945,-0.91444 0.73787,-1.36672 -0.20402,-2.92143 -0.60064,-0.99145 -1.83867,-1.62329 -3.18066,-1.62329 -1.64661,0 -3.51386,2.0789 -4.57912,5.09817 l -0.36996,1.04859 0.7133,-0.13636 c 1.54304,-0.29497 3.19639,1.07896 3.91098,3.25002 0.26343,0.80036 0.69954,1.73915 0.96914,2.0862 0.70471,0.90718 0.6527,2.53245 -0.0979,3.05817 -0.77424,0.5423 -1.33671,0.51981 -2.0814,-0.0832 -0.83753,-0.67819 -0.85104,-2.28476 -0.0245,-2.90825 0.57149,-0.43107 0.576,-0.47478 0.17174,-1.66123 -0.58175,-1.70733 -1.38855,-2.40091 -2.6701,-2.2954 -0.96343,0.0793 -1.02911,0.14191 -1.1984,1.14225 -0.21321,1.25988 -0.55345,17.95114 -0.59281,29.08185 -0.0224,6.35121 -0.0979,7.93853 -0.38161,8.03333 -0.19449,0.065 -1.00368,-0.57983 -1.79819,-1.4329 z"
       id="path15948" />
    <path
       style="fill:#c3ab75;stroke-width:1.05402"
       d="m 203.47355,143.57237 c 0.93748,-0.94589 1.76404,-1.71979 1.8368,-1.71979 0.0728,0 -0.63474,0.7739 -1.57221,1.71979 -0.93748,0.94588 -1.76404,1.71979 -1.8368,1.71979 -0.0728,0 0.63474,-0.77391 1.57221,-1.71979 z"
       id="path15931" />
    <path
       style="fill:#c3ab75;stroke-width:1.05402"
       d="m 193.68397,165.55442 c 0,-1.5962 0.19785,-2.34307 0.56121,-2.1185 0.13264,0.082 0.16313,0.27533 0.0677,0.42968 -0.0994,0.16075 -0.0164,0.22975 0.19412,0.16154 0.45079,-0.14606 0.86513,-0.79965 3.071,-4.84436 3.23587,-5.93332 8.81556,-13.64529 12.81737,-17.71553 1.81307,-1.84408 2.49275,-2.70058 2.26584,-2.8553 -0.21525,-0.14677 -0.14638,-0.19509 0.20501,-0.14384 0.29104,0.0424 0.61664,0.19624 0.72355,0.34176 0.11094,0.15099 0.19613,0.0741 0.19844,-0.17904 0.002,-0.24399 -0.20431,-0.49807 -0.45897,-0.56462 -0.34843,-0.0911 -0.31569,-0.1286 0.13229,-0.15169 0.4874,-0.0251 0.58964,0.10121 0.56401,0.69691 -0.0398,0.92532 -0.42045,2.44539 -0.48034,1.91823 -0.0248,-0.21828 -0.33446,0.37703 -0.68813,1.32292 -0.35367,0.94588 -0.60543,1.83885 -0.55948,1.98437 0.046,0.14552 0.2726,-0.2712 0.50365,-0.92604 0.23104,-0.65484 0.42764,-1.01203 0.43687,-0.79375 0.0466,1.10074 -3.7413,8.35844 -4.21089,8.06822 -0.12401,-0.0766 -0.31163,5e-5 -0.41693,0.17043 -0.11957,0.19347 -0.0768,0.23889 0.11401,0.12099 0.52236,-0.32284 0.34341,0.0802 -0.75159,1.69263 -1.07937,1.58945 -1.92196,2.44175 -1.34128,1.35674 0.4222,-0.7889 0.16858,-0.69942 -0.37681,0.13294 -0.25011,0.38172 -0.32333,0.61282 -0.16272,0.51355 0.16062,-0.0993 0.29203,-0.0752 0.29203,0.0536 0,0.31982 -1.19706,1.42231 -1.36355,1.25582 -0.0735,-0.0735 -0.42187,0.19328 -0.77412,0.59289 l -0.64045,0.72656 0.76389,-0.66145 c 0.42731,-0.37001 0.71162,-0.49429 0.64524,-0.28206 -0.152,0.48597 -6.08906,6.83898 -6.42197,6.87189 -0.13769,0.0136 0.15996,-0.42174 0.66145,-0.96744 l 0.9118,-0.99219 -0.98189,0.90182 c -0.54004,0.496 -0.92895,0.98749 -0.86424,1.09219 0.13824,0.22368 -4.01372,4.2237 -4.38415,4.2237 -0.1386,0 -0.25201,-0.6451 -0.25201,-1.43357 z"
       id="path15929" />
    <path
       style="fill:#c3ab75;stroke-width:1.05402"
       d="m 191.13528,165.7609 c -5.33601,-5.72928 -10.10855,-14.67136 -11.91301,-22.32082 -1.04036,-4.41031 -1.47094,-9.96595 -0.89068,-11.49215 0.35484,-0.93329 1.02022,-0.87004 3.26686,0.31053 4.63112,2.43359 8.72998,8.15042 10.33205,14.41051 0.30934,1.20873 0.36227,0.41506 0.52609,-7.88778 0.23832,-12.07855 0.60915,-13.84515 3.58961,-17.10066 2.56334,-2.79989 7.0038,-4.28435 10.20955,-3.41307 1.58016,0.42947 3.44281,1.71653 4.34311,3.00104 0.43839,0.62546 0.96258,1.3158 1.16488,1.53408 0.7839,0.84584 0.97206,1.50327 0.67454,2.35674 -0.49026,1.40638 -2.2846,1.43037 -3.00351,0.0402 -0.34263,-0.66257 -0.33267,-0.83931 0.0945,-1.67713 0.47353,-0.92879 0.47219,-0.94326 -0.16258,-1.75434 -0.35202,-0.4498 -1.1969,-1.14517 -1.87751,-1.54527 -1.10938,-0.65215 -1.48395,-0.72602 -3.61872,-0.71363 -1.30969,0.008 -2.60842,0.14191 -2.88606,0.29848 -0.46066,0.25978 -0.41887,0.32546 0.47796,0.75103 1.19532,0.56722 2.05448,1.67565 2.66218,3.43459 0.25138,0.72761 0.62447,1.63895 0.82909,2.0252 0.52282,0.98692 0.4626,1.98528 -0.15713,2.60501 -0.65193,0.65193 -1.35724,0.6744 -2.07607,0.0661 -0.91046,-0.7704 -0.97129,-1.71488 -0.17167,-2.66518 0.76945,-0.91444 0.73787,-1.36672 -0.20402,-2.92143 -0.60064,-0.99145 -1.83867,-1.62329 -3.18066,-1.62329 -1.64661,0 -3.51386,2.0789 -4.57912,5.09817 l -0.36996,1.04859 0.7133,-0.13636 c 1.52779,-0.29206 3.21278,1.12832 3.93236,3.3148 0.25167,0.76473 0.67816,1.67437 0.94776,2.02142 0.70471,0.90718 0.6527,2.53245 -0.0979,3.05817 -0.77424,0.5423 -1.33671,0.51981 -2.0814,-0.0832 -0.8602,-0.69655 -0.85055,-2.28514 0.0179,-2.94018 0.62629,-0.47241 0.62714,-0.48024 0.17855,-1.65483 -0.64785,-1.69639 -1.45915,-2.37361 -2.71924,-2.26987 -0.96381,0.0793 -1.02894,0.14152 -1.1965,1.14225 -0.22635,1.35186 -0.55432,16.99926 -0.59292,28.28833 -0.024,7.01275 -0.0986,8.73213 -0.3834,8.82707 -0.19449,0.0649 -1.00368,-0.58005 -1.79819,-1.43312 z"
       id="path15928" />
    <path
       style="fill:#a8998f;stroke-width:1.05402"
       d="m 192.49335,166.98507 c -1.04563,-0.4058 -5.04957,-5.53922 -7.56831,-9.70326 -4.15454,-6.86835 -6.83178,-15.66234 -6.84674,-22.48961 -0.006,-2.57222 0.28434,-3.52296 1.07449,-3.52296 1.00257,0 4.28413,1.93726 5.99916,3.5416 2.99517,2.80183 5.64896,7.44427 6.77855,11.85813 0.30934,1.20873 0.36227,0.41506 0.52609,-7.88778 0.23832,-12.07855 0.60915,-13.84515 3.58961,-17.10066 2.56334,-2.79989 7.0038,-4.28435 10.20955,-3.41307 1.58016,0.42947 3.44281,1.71653 4.34311,3.00104 0.43839,0.62546 0.97191,1.31899 1.1856,1.54118 0.927,0.96382 0.96714,2.65633 0.0764,3.22252 -1.5744,1.0008 -3.30774,-1.25987 -2.18978,-2.85598 0.33789,-0.48241 0.30863,-0.62485 -0.28388,-1.38194 -0.36334,-0.46426 -1.21747,-1.17145 -1.89808,-1.57155 -1.10938,-0.65215 -1.48395,-0.72602 -3.61872,-0.71363 -1.30969,0.008 -2.60842,0.14191 -2.88606,0.29848 -0.46066,0.25978 -0.41887,0.32546 0.47796,0.75103 1.19532,0.56722 2.05448,1.67565 2.66218,3.43459 0.25138,0.72761 0.62447,1.63895 0.82909,2.0252 0.52282,0.98692 0.4626,1.98528 -0.15713,2.60501 -0.65193,0.65193 -1.35724,0.6744 -2.07607,0.0661 -0.91046,-0.7704 -0.97129,-1.71488 -0.17167,-2.66518 0.76945,-0.91444 0.73787,-1.36672 -0.20402,-2.92143 -0.60064,-0.99145 -1.83867,-1.62329 -3.18066,-1.62329 -1.64661,0 -3.51386,2.0789 -4.57912,5.09817 l -0.36996,1.04859 0.7133,-0.13636 c 1.52779,-0.29206 3.21278,1.12832 3.93236,3.3148 0.25167,0.76473 0.67816,1.67437 0.94776,2.02142 0.70471,0.90718 0.6527,2.53245 -0.0979,3.05817 -0.77424,0.5423 -1.33671,0.51981 -2.0814,-0.0832 -0.84589,-0.68496 -0.84227,-2.19016 0.007,-2.87779 0.57229,-0.46341 0.59423,-0.57365 0.29477,-1.48104 -0.5451,-1.65166 -1.48773,-2.55443 -2.66723,-2.55443 -0.56056,0 -1.10425,0.13761 -1.20819,0.30579 -0.32563,0.52687 -0.62446,11.7494 -0.66663,25.03444 -0.0223,7.02489 -0.11382,12.81521 -0.20338,12.86737 -0.0896,0.0522 -0.40098,0.002 -0.69202,-0.11052 z"
       id="path15906" />
    <path
       style="fill:#b5a172;stroke-width:1.05402"
       d="m 192.59546,167.06126 c -0.51157,-0.11765 -2.77549,-2.67111 -4.63933,-5.23264 -5.18819,-7.13031 -8.26467,-14.40795 -9.50702,-22.48959 -0.42795,-2.78383 -0.4858,-6.42245 -0.11752,-7.3911 0.35279,-0.9279 1.01992,-0.8702 3.20314,0.27705 4.67905,2.45877 8.79044,8.17118 10.39577,14.44399 0.30934,1.20873 0.36227,0.41506 0.52609,-7.88778 0.23832,-12.07855 0.60915,-13.84515 3.58961,-17.10066 2.56334,-2.79989 7.0038,-4.28435 10.20955,-3.41307 1.58016,0.42947 3.44281,1.71653 4.34311,3.00104 0.43839,0.62546 0.97191,1.31899 1.1856,1.54118 0.927,0.96382 0.96714,2.65633 0.0764,3.22252 -1.5744,1.0008 -3.30774,-1.25987 -2.18978,-2.85598 0.33789,-0.48241 0.30863,-0.62485 -0.28388,-1.38194 -0.36334,-0.46426 -1.21747,-1.17145 -1.89808,-1.57155 -1.10938,-0.65215 -1.48395,-0.72602 -3.61872,-0.71363 -1.30969,0.008 -2.60842,0.14191 -2.88606,0.29848 -0.46066,0.25978 -0.41887,0.32546 0.47796,0.75103 1.19532,0.56722 2.05448,1.67565 2.66218,3.43459 0.25138,0.72761 0.62447,1.63895 0.82909,2.0252 0.52282,0.98692 0.4626,1.98528 -0.15713,2.60501 -0.65193,0.65193 -1.35724,0.6744 -2.07607,0.0661 -0.91927,-0.77786 -0.97166,-1.71445 -0.15049,-2.69035 l 0.7202,-0.85591 -0.50359,-1.20928 c -0.63771,-1.53135 -1.57766,-2.23196 -3.19586,-2.3821 -1.16939,-0.10851 -1.37159,-0.0364 -2.41009,0.85912 -1.1381,0.98144 -1.90763,2.21678 -2.59564,4.16679 l -0.36996,1.04859 0.72669,-0.14346 c 1.63641,-0.32304 3.5659,1.59091 4.18904,4.15531 0.10236,0.42124 0.407,0.98679 0.67698,1.25677 0.72154,0.72154 0.66518,2.45544 -0.0972,2.98941 -0.77424,0.5423 -1.33671,0.51981 -2.0814,-0.0832 -0.84589,-0.68496 -0.84227,-2.19016 0.007,-2.87779 0.57229,-0.46341 0.59423,-0.57365 0.29477,-1.48104 -0.5451,-1.65166 -1.48773,-2.55443 -2.66723,-2.55443 -0.56056,0 -1.10425,0.13761 -1.20819,0.30579 -0.3221,0.52117 -0.62183,11.67947 -0.67258,25.03876 -0.0267,7.02726 -0.11868,12.8106 -0.20441,12.85188 -0.0857,0.0413 -0.34805,0.0309 -0.58293,-0.0232 z"
       id="path15892" />
    <path
       style="fill:#87988a;stroke-width:1.05402"
       d="m 191.105,165.73122 c -4.01674,-4.30766 -8.51225,-11.84015 -10.46139,-17.52864 -2.06148,-6.0164 -3.18948,-13.94676 -2.31202,-16.25465 0.35279,-0.9279 1.01992,-0.8702 3.20314,0.27705 4.67905,2.45877 8.79044,8.17118 10.39577,14.44399 0.30934,1.20873 0.36227,0.41506 0.52609,-7.88778 0.23832,-12.07855 0.60915,-13.84515 3.58961,-17.10066 2.56334,-2.79989 7.0038,-4.28435 10.20955,-3.41307 1.57559,0.42823 3.44001,1.71408 4.35133,3.00104 0.4429,0.62546 1.04311,1.41521 1.33379,1.75499 1.05738,1.23599 0.4749,3.21867 -0.94559,3.21867 -1.39403,0 -2.18648,-1.83482 -1.32417,-3.06594 0.33789,-0.48241 0.30863,-0.62485 -0.28388,-1.38194 -0.36334,-0.46426 -1.21747,-1.17145 -1.89808,-1.57155 -1.10938,-0.65215 -1.48395,-0.72602 -3.61872,-0.71363 -1.30969,0.008 -2.60842,0.14191 -2.88606,0.29848 -0.46066,0.25978 -0.41887,0.32546 0.47796,0.75103 1.12585,0.53425 2.00432,1.61583 2.63278,3.24151 0.5504,1.42374 0.54698,1.64201 -0.0262,1.67466 -0.29339,0.0167 -0.22155,0.0936 0.19606,0.20981 1.23594,0.34398 1.40326,2.59527 0.23919,3.21826 -0.80466,0.43065 -1.75736,0.0883 -2.21451,-0.79568 -0.44374,-0.85811 -0.32468,-1.43885 0.47771,-2.33013 0.53519,-0.59447 0.53532,-0.60347 0.0267,-1.82486 -0.64501,-1.549 -1.58009,-2.24965 -3.20338,-2.40026 -1.16939,-0.10851 -1.37159,-0.0364 -2.41009,0.85912 -1.1381,0.98144 -1.90763,2.21678 -2.59564,4.16679 l -0.36996,1.04859 0.72669,-0.14346 c 1.71664,-0.33888 3.79459,1.8415 4.21316,4.42084 0.0841,0.51834 0.25083,0.88193 0.37047,0.80799 0.34171,-0.21119 0.77326,0.81144 0.77326,1.83235 0,1.54579 -1.46242,2.23449 -2.66943,1.25711 -0.84589,-0.68496 -0.84227,-2.19016 0.007,-2.87779 0.57229,-0.46341 0.59423,-0.57365 0.29477,-1.48104 -0.5451,-1.65166 -1.48773,-2.55443 -2.66723,-2.55443 -0.56056,0 -1.10425,0.13761 -1.20819,0.30579 -0.32202,0.52103 -0.62183,11.67813 -0.67255,25.02807 -0.0478,12.56995 -0.0566,12.76614 -0.57722,12.76614 -0.29079,0 -1.05607,-0.56555 -1.70061,-1.25677 z"
       id="path15883" />
    <path
       style="fill:#df7453;stroke-width:1.05402"
       d="m 191.25963,165.86351 c -1.60978,-1.64434 -4.62627,-5.7674 -6.41999,-8.7751 -3.83351,-6.428 -6.33859,-14.31903 -6.68462,-21.05667 -0.15918,-3.09957 0.0999,-4.58146 0.82548,-4.72119 0.26216,-0.0505 1.37403,0.35172 2.47082,0.89378 3.3563,1.65877 7.022,5.76667 8.86532,9.93473 0.74515,1.68492 1.71224,4.59024 1.84221,5.53435 0.0501,0.3638 0.1852,-3.50573 0.30026,-8.59896 0.2798,-12.38509 0.65111,-14.18701 3.58348,-17.38997 1.65234,-1.80482 3.91945,-3.01442 6.46802,-3.45098 3.16696,-0.54247 6.29283,0.57431 7.83952,2.80083 0.42287,0.60873 1.07269,1.43906 1.44405,1.84517 1.21266,1.32612 0.72881,3.36266 -0.7989,3.36266 -1.41493,0 -2.18465,-1.83743 -1.29926,-3.1015 0.37406,-0.53405 0.34557,-0.63727 -0.41497,-1.50348 -0.44913,-0.51153 -1.46876,-1.24913 -2.26583,-1.6391 -1.30704,-0.63947 -1.64923,-0.69476 -3.48764,-0.5635 -1.12112,0.08 -2.24676,0.22849 -2.50142,0.32987 -0.58648,0.23347 -0.60257,0.65688 -0.025,0.65688 1.17311,0 2.84342,2.13391 3.36541,4.29948 0.14004,0.58099 0.0811,0.73291 -0.29268,0.75397 -0.30354,0.0171 -0.2364,0.0909 0.19102,0.20981 1.23594,0.34398 1.40326,2.59527 0.23919,3.21826 -0.80466,0.43065 -1.75736,0.0883 -2.21451,-0.79568 -0.42962,-0.8308 -0.32618,-1.42331 0.3949,-2.26188 0.25026,-0.29105 0.53379,-0.88636 0.63007,-1.32292 0.101,-0.45799 0.0807,-0.65326 -0.0479,-0.46163 -0.15708,0.23399 -0.35388,0.0576 -0.66608,-0.59712 -0.24372,-0.51109 -0.83162,-1.17827 -1.30644,-1.48263 -0.72121,-0.4623 -0.75905,-0.52976 -0.22989,-0.40987 0.36361,0.0824 0.53266,0.045 0.39688,-0.0878 -0.13011,-0.12725 -0.98339,-0.14212 -1.89618,-0.0331 -1.43129,0.17103 -1.80003,0.33541 -2.6801,1.19477 -0.94836,0.92605 -2.08076,2.87334 -2.53773,4.3639 -0.18122,0.59111 -0.14046,0.62362 0.59682,0.47617 0.58883,-0.11777 1.06392,0.0185 1.85664,0.5325 1.13333,0.73487 2.33593,2.71537 2.06985,3.40875 -0.087,0.22676 -0.0402,0.32967 0.10822,0.23794 0.14691,-0.0908 0.26155,0.14197 0.26155,0.53103 0,0.38098 0.11309,0.6228 0.25131,0.53738 0.37236,-0.23013 0.80702,0.75033 0.80702,1.82038 0,1.85662 -2.30474,2.31921 -3.11651,0.62552 -0.48002,-1.00153 -0.161,-1.94016 0.82462,-2.42628 0.46018,-0.22696 0.69264,-0.41537 0.51658,-0.41868 -0.17606,-0.003 -0.46103,-0.47635 -0.63326,-1.0512 -0.55207,-1.84268 -2.4452,-3.09999 -3.50236,-2.32609 -0.42532,0.31136 -0.51805,0.97448 -0.73239,5.23732 -0.13498,2.68445 -0.27303,11.16127 -0.30678,18.83738 -0.0694,15.77517 0.0534,15.02078 -2.08882,12.8325 z m 1.9532,-31.3441 c 0.0408,-2.50528 -0.007,-4.35075 -0.10558,-4.10105 -0.0989,0.24971 -0.16915,2.65666 -0.15609,5.3488 0.0281,5.78207 0.15708,5.16681 0.26167,-1.24775 z"
       id="path15875" />
    <path
       style="fill:#799283;stroke-width:1.05402"
       d="m 191.25963,165.86351 c -1.60978,-1.64434 -4.62627,-5.7674 -6.41999,-8.7751 -3.83351,-6.428 -6.33859,-14.31903 -6.68462,-21.05667 -0.15918,-3.09957 0.0999,-4.58146 0.82548,-4.72119 0.26216,-0.0505 1.37403,0.35172 2.47082,0.89378 3.3563,1.65877 7.022,5.76667 8.86532,9.93473 0.74515,1.68492 1.71224,4.59024 1.84221,5.53435 0.0501,0.3638 0.1852,-3.50573 0.30026,-8.59896 0.2798,-12.38509 0.65111,-14.18701 3.58348,-17.38997 4.23601,-4.62691 11.5276,-4.79216 14.53496,-0.3294 0.86247,1.27985 0.87076,1.31756 0.30824,1.4027 -0.40889,0.0619 -0.84446,-0.22375 -1.48842,-0.97606 -0.5007,-0.58496 -1.56759,-1.38511 -2.37087,-1.77812 -1.31949,-0.64556 -1.65733,-0.70051 -3.49892,-0.56902 -1.12112,0.08 -2.24676,0.22849 -2.50142,0.32987 -0.58648,0.23347 -0.60257,0.65688 -0.025,0.65688 1.17311,0 2.84342,2.13391 3.36541,4.29948 0.15776,0.65451 0.1051,0.7276 -0.52419,0.7276 -0.64672,0 -0.68711,-0.065 -0.53458,-0.8599 0.0908,-0.47294 0.0685,-0.71044 -0.0495,-0.52777 -0.14903,0.23071 -0.34986,0.0484 -0.65767,-0.59712 -0.24372,-0.51109 -0.83162,-1.17827 -1.30644,-1.48263 -0.72121,-0.4623 -0.75905,-0.52976 -0.22989,-0.40987 0.36361,0.0824 0.53266,0.045 0.39688,-0.0878 -0.13011,-0.12725 -0.98339,-0.14212 -1.89618,-0.0331 -1.43129,0.17103 -1.80003,0.33541 -2.6801,1.19477 -0.94836,0.92605 -2.08076,2.87334 -2.53773,4.3639 -0.18122,0.59111 -0.14046,0.62362 0.59682,0.47617 0.58883,-0.11777 1.06392,0.0185 1.85664,0.5325 1.13333,0.73487 2.33593,2.71537 2.06985,3.40875 -0.087,0.22676 -0.0402,0.32967 0.10822,0.23794 0.14385,-0.0889 0.26155,0.0835 0.26155,0.38313 0,1.10019 -1.1614,0.295 -1.44644,-1.00281 -0.33836,-1.54054 -2.41512,-2.81376 -3.40616,-2.08826 -0.42532,0.31136 -0.51805,0.97448 -0.73239,5.23732 -0.13498,2.68445 -0.27303,11.16127 -0.30678,18.83738 -0.0694,15.77517 0.0534,15.02078 -2.08882,12.8325 z m 1.9532,-31.3441 c 0.0408,-2.50528 -0.007,-4.35075 -0.10558,-4.10105 -0.0989,0.24971 -0.16915,2.65666 -0.15609,5.3488 0.0281,5.78207 0.15708,5.16681 0.26167,-1.24775 z"
       id="path15867" />
    <path
       style="fill:#718a79;stroke-width:1.05402"
       d="m 198.75153,131.45918 c -0.18112,-0.61379 -0.39883,-1.28138 -0.4838,-1.48354 -0.0865,-0.20572 -0.0389,-0.29609 0.10812,-0.20525 0.29314,0.18117 1.00335,2.5064 0.82119,2.68856 -0.0639,0.0639 -0.26439,-0.38599 -0.44551,-0.99977 z"
       id="path15844" />
    <path
       style="fill:#718a79;stroke-width:1.05402"
       d="m 193.27984,134.77144 c 0.0321,-1.93009 0.1362,-3.58705 0.23127,-3.68212 0.23709,-0.23708 0.17486,4.23811 -0.0816,5.86846 -0.14615,0.9291 -0.19071,0.27824 -0.14968,-2.18634 z"
       id="path15842" />
    <path
       style="fill:#718a79;stroke-width:1.05402"
       d="m 191.65446,166.26037 c -0.96618,-0.9219 -2.73299,-3.09855 -2.73299,-3.36694 0,-0.11197 0.20836,-0.0402 0.46302,0.15954 0.419,0.3286 0.42873,0.31938 0.10231,-0.097 -0.19839,-0.25306 -0.46292,-0.39694 -0.58784,-0.31973 -0.2484,0.15352 -1.5194,-1.52782 -3.50139,-4.63181 -3.97568,-6.22633 -6.87914,-14.99301 -7.23338,-21.84044 -0.16033,-3.09906 0.11021,-4.7175 0.81115,-4.85249 0.26499,-0.051 1.37919,0.35073 2.47598,0.89279 2.4174,1.19475 5.2413,3.86536 7.04764,6.66507 1.33249,2.06529 3.23523,6.51922 3.56224,8.33849 0.12508,0.69588 0.27995,-2.41532 0.40484,-8.13344 0.2745,-12.56671 0.66396,-14.35386 3.82994,-17.57471 3.09197,-3.14556 7.76104,-4.27873 11.19261,-2.71642 1.28519,0.58512 2.80905,1.84184 2.92192,2.40971 0.041,0.20615 0.31126,0.6215 0.60063,0.923 0.49401,0.51471 0.4971,0.55377 0.0507,0.63974 -0.86801,0.16716 -1.23796,-0.14906 -1.09421,-0.93531 0.16613,-0.9086 -0.24956,-1.66405 -0.67922,-1.23439 -0.21376,0.21376 -0.18108,0.40414 0.12127,0.70649 0.81905,0.81905 0.39262,0.75241 -0.56486,-0.0883 -1.6735,-1.46934 -3.04322,-1.92363 -5.34832,-1.77385 -1.10402,0.0717 -2.21567,0.21771 -2.47033,0.32438 -0.26744,0.11203 -0.46302,0.0784 -0.46302,-0.0795 0,-0.15041 0.14883,-0.32439 0.33073,-0.3866 0.1819,-0.0622 0.0331,-0.0644 -0.33073,-0.005 -0.36381,0.0595 -0.79826,0.28658 -0.96547,0.50461 -0.16851,0.21974 -0.3454,0.27643 -0.39687,0.1272 -0.0523,-0.15171 -0.47304,-0.0279 -0.96386,0.28357 -0.47904,0.30403 -0.81679,0.60697 -0.75056,0.67321 0.0662,0.0662 0.42318,-0.0779 0.79321,-0.3204 0.37003,-0.24245 0.805,-0.3591 0.9666,-0.25923 0.1616,0.0999 0.46071,-0.0387 0.66468,-0.30792 0.31897,-0.42103 0.37203,-0.42936 0.37927,-0.0596 0.005,0.26045 0.31347,0.49096 0.78219,0.58471 1.12628,0.22525 2.25042,1.46203 2.89516,3.18525 0.60817,1.62549 0.70774,2.11986 0.29981,1.48864 -0.17098,-0.26459 -0.25783,-0.28664 -0.26053,-0.0662 -0.002,0.1819 -0.18264,0.33073 -0.40092,0.33073 -0.21829,0 -0.39688,-0.17486 -0.39688,-0.38857 0,-0.2367 0.15512,-0.32905 0.39688,-0.23628 0.2549,0.0978 0.39687,-0.005 0.39687,-0.2885 0,-0.24244 -0.11906,-0.36721 -0.26458,-0.27727 -0.14552,0.0899 -0.2737,-0.0519 -0.28483,-0.31512 -0.0551,-1.30368 -0.60259,-2.33529 -1.08204,-2.03897 -0.32614,0.20156 -0.13124,0.76659 0.26444,0.76659 0.16977,0 0.30868,0.0893 0.30868,0.19843 0,0.10914 -0.001,0.34727 -0.003,0.52917 -0.002,0.1819 -0.29531,-0.0401 -0.65266,-0.49342 -0.85111,-1.07961 -1.97905,-1.52471 -3.44502,-1.35948 -0.64979,0.0732 -1.11704,0.029 -1.03834,-0.0984 0.0787,-0.12735 0.004,-0.23154 -0.1654,-0.23154 -0.16968,0 -0.24484,0.16592 -0.16702,0.36871 0.0778,0.20279 -0.16435,0.64927 -0.53814,0.99218 -0.3738,0.34292 -1.02004,1.15281 -1.4361,1.79976 -0.8371,1.30167 -0.95333,1.26227 -0.37309,-0.12644 0.48999,-1.17272 0.0924,-1.18948 -0.62638,-0.0264 -0.57324,0.92752 -0.72991,1.63208 -0.30444,1.36913 0.42817,-0.26462 0.55168,0.29447 0.25381,1.14893 -0.39939,1.14569 -0.82002,1.03551 -0.64155,-0.16804 0.10946,-0.73822 0.0834,-0.85674 -0.10171,-0.46302 -0.13686,0.29104 -0.2572,0.84256 -0.26743,1.22559 -0.0184,0.68793 -0.007,0.69234 0.95594,0.3614 1.14968,-0.39524 2.01536,-0.16653 3.06958,0.811 0.75098,0.69635 1.01031,1.21637 0.32151,0.64472 -0.25026,-0.20771 -0.39687,-0.22544 -0.39687,-0.048 0,0.15476 0.10342,0.34529 0.22983,0.42341 0.1264,0.0781 0.3064,0.62093 0.4,1.20624 0.0936,0.58531 0.28783,1.0642 0.43163,1.0642 0.1438,0 0.26145,0.11906 0.26145,0.26458 0,0.6428 -0.51645,0.17577 -0.80461,-0.7276 -0.37897,-1.18806 -1.74988,-2.71198 -2.43968,-2.71198 -0.85342,0 -1.51821,0.51859 -1.51821,1.18432 0,0.35009 -0.10419,0.70093 -0.23154,0.77963 -0.12734,0.0787 -0.17139,-0.39051 -0.0979,-1.04271 0.0918,-0.8148 0.0352,-1.18582 -0.18095,-1.18582 -0.17303,0 -0.24254,0.1166 -0.15446,0.25911 0.0881,0.14252 0.0517,0.46994 -0.0808,0.72761 -0.29983,0.583 -0.63032,15.15286 -0.34371,15.15286 0.11466,0 0.22685,-1.14971 0.2493,-2.5549 0.0224,-1.4052 0.0967,-2.61083 0.16509,-2.67917 0.0684,-0.0684 0.0993,6.1414 0.0689,13.79945 -0.0506,12.72056 -0.093,13.92373 -0.49042,13.92396 -0.23928,1.3e-4 -0.77819,-0.32718 -1.1976,-0.72736 z M 179.2836,140.79424 c -0.20582,-0.94588 -0.38369,-1.46098 -0.39526,-1.14466 -0.0256,0.69887 0.58483,3.43007 0.69272,3.09959 0.0422,-0.12932 -0.0916,-1.00904 -0.29746,-1.95493 z m 17.19514,-18.29717 c 0.42741,-0.45907 0.62828,-0.7497 0.44638,-0.64584 -0.19139,0.10927 -0.33474,0.0429 -0.34025,-0.15752 -0.005,-0.19049 -0.2958,0.004 -0.64571,0.43201 -0.34991,0.42809 -0.57673,0.87457 -0.50404,0.99218 0.18642,0.30164 0.18273,0.30383 1.04362,-0.62083 z m 5.51811,-1.11031 c -0.0914,-0.23828 -0.27283,-0.36735 -0.4031,-0.28684 -0.13028,0.0805 -0.23686,0.006 -0.23686,-0.16621 0,-0.23294 -0.10113,-0.22867 -0.39688,0.0168 -0.2742,0.22757 -0.39687,0.23759 -0.39687,0.0324 0,-0.16334 -0.23813,-0.29698 -0.52917,-0.29698 -0.91516,0 -0.5752,0.3806 0.72895,0.81612 1.42922,0.47727 1.4602,0.47438 1.23393,-0.11527 z m 7.15939,-0.95595 c 0.23713,-0.3837 -1.80457,-1.56529 -3.23403,-1.87163 -1.57631,-0.3378 -4.08051,-0.0185 -4.23285,0.53973 -0.07,0.2563 -0.0309,0.29291 0.1104,0.1036 0.2508,-0.33592 4.6885,-0.4869 4.48182,-0.15248 -0.0737,0.11927 0.26467,0.36102 0.75195,0.53722 0.48729,0.17621 1.03131,0.49549 1.20894,0.70952 0.37368,0.45025 0.68969,0.4966 0.91377,0.13404 z"
       id="path15841" />
    <path
       style="fill:#6c8676;stroke-width:1.05402"
       d="m 204.13501,118.30466 -1.32291,-0.18145 1.37344,-0.0416 c 0.7554,-0.0229 1.44703,0.0775 1.53697,0.22302 0.0899,0.14552 0.0672,0.24588 -0.0505,0.22302 -0.11773,-0.0229 -0.80936,-0.12322 -1.53697,-0.22302 z"
       id="path15818" />
    <path
       style="fill:#6c8676;stroke-width:1.05402"
       d="m 200.69543,118.71635 c 0.43656,-0.2133 1.0914,-0.381 1.45521,-0.37267 0.60878,0.0139 0.59824,0.0325 -0.13229,0.23257 -1.9207,0.52611 -2.16615,0.5521 -1.32292,0.1401 z"
       id="path15817" />
    <path
       style="fill:#6c8676;stroke-width:1.05402"
       d="m 209.28232,121.62946 c -1.41585,-1.5106 -2.5913,-2.05877 -4.88272,-2.27703 l -1.85209,-0.17642 1.63171,-0.0388 c 2.06368,-0.0491 3.5431,0.56714 5.06792,2.11091 l 1.14338,1.15758 -0.15728,-0.79375 c -0.12946,-0.65335 -0.11268,-0.69324 0.0949,-0.22551 0.13867,0.31253 0.38148,0.64818 0.53957,0.74589 0.31069,0.19202 0.13131,0.67025 -0.2514,0.67025 -0.12893,0 -0.7292,-0.52791 -1.33394,-1.17312 z"
       id="path15809" />
    <path
       style="fill:#6c8676;stroke-width:1.05402"
       d="m 203.39274,123.01726 c -0.45156,-1.08074 -1.86207,-2.33135 -2.62942,-2.33135 -0.30413,0 -0.47913,-0.0738 -0.38889,-0.16407 0.29948,-0.29948 1.48336,0.15986 2.16256,0.83906 0.75081,0.75081 1.57698,2.21238 1.36845,2.4209 -0.075,0.075 -0.30568,-0.26908 -0.5127,-0.76454 z"
       id="path15804" />
    <path
       style="fill:#6c8676;stroke-width:1.05402"
       d="m 195.44333,123.9932 c 0.0952,-0.29104 0.32517,-0.70776 0.51096,-0.92604 0.18579,-0.21828 0.37606,-0.51594 0.42281,-0.66146 0.0467,-0.14552 0.18201,-0.23224 0.30058,-0.19272 0.11857,0.0395 0.52158,-0.16884 0.89558,-0.46302 l 0.67999,-0.53488 h -0.74623 c -0.41043,0 -1.00006,0.20836 -1.3103,0.46302 -0.31024,0.25466 -0.0661,-0.0132 0.54249,-0.59531 0.60861,-0.58209 1.50961,-1.27537 2.00222,-1.54064 0.97479,-0.5249 0.93817,-0.48484 -0.88096,0.96378 -0.43148,0.34361 -0.47203,0.44069 -0.1416,0.33904 0.25466,-0.0784 0.46302,-0.0144 0.46302,0.14213 0,0.15653 0.16852,0.21992 0.37448,0.14089 0.20597,-0.079 0.71199,-0.0425 1.12448,0.0812 0.70383,0.2111 0.68298,0.22635 -0.3388,0.24769 -1.05559,0.0221 -2.19139,0.64457 -2.9246,1.60293 -0.17007,0.2223 -0.49778,0.64231 -0.72825,0.93335 l -0.41903,0.52917 z"
       id="path15802" />
    <path
       style="fill:#6c8676;stroke-width:1.05402"
       d="m 193.78844,129.15258 c 0.0325,-1.39216 0.21481,-1.57801 1.55306,-1.58345 0.79079,-0.003 1.19976,0.19418 1.98438,0.95777 0.9417,0.91648 0.50842,0.74136 -0.57951,-0.23422 -0.56012,-0.50228 -1.4749,-0.62535 -1.4749,-0.19844 0,0.14552 0.12073,0.26459 0.26829,0.26459 0.50754,0 2.10641,1.19106 2.10969,1.57158 0.002,0.23084 -0.32188,0.0484 -0.82187,-0.46302 -0.45383,-0.46419 -1.01938,-0.84235 -1.25678,-0.84037 -1.04509,0.009 -1.59628,0.33775 -1.70147,1.01558 -0.0598,0.38533 -0.0962,0.16482 -0.0809,-0.49002 z"
       id="path15791" />
    <path
       style="fill:#6c8676;stroke-width:1.05402"
       d="m 193.51004,132.98899 c 9.6e-4,-1.16416 0.0475,-1.6075 0.10337,-0.98519 0.0559,0.62231 0.0551,1.57481 -0.002,2.11667 -0.0568,0.54185 -0.10258,0.0327 -0.10162,-1.13148 z"
       id="path15787" />
    <path
       style="fill:#6c8676;stroke-width:1.05402"
       d="m 191.47095,166.08025 c -1.20737,-1.20738 -4.46788,-5.54431 -6.07307,-8.07804 -4.71545,-7.44316 -7.98318,-18.77303 -7.20676,-24.98726 0.22418,-1.79435 0.51693,-1.97949 2.1461,-1.3573 5.0087,1.91284 9.61663,7.86122 11.49754,14.84215 l 0.49442,1.83503 0.0189,-2.91042 c 0.0759,-11.68038 0.47236,-17.99513 1.22917,-19.57916 0.20858,-0.43657 0.30645,-0.55563 0.21749,-0.26459 -0.089,0.29104 -0.31689,1.42214 -0.50651,2.51354 -0.41466,2.38671 -0.77124,18.47069 -0.40129,18.10074 0.13494,-0.13494 0.28205,-1.31601 0.32691,-2.62461 0.0449,-1.30859 0.0487,3.39528 0.008,10.45304 -0.0811,14.22126 -0.0184,13.78986 -1.75136,12.05688 z m -0.32982,-1.62501 c 0.0878,-0.22882 0.0493,-0.62219 -0.0855,-0.87415 -0.14863,-0.27771 -0.14985,-0.60878 -0.003,-0.84073 0.18826,-0.29757 0.24297,-0.25029 0.24612,0.2127 0.002,0.32742 0.10332,0.59531 0.22465,0.59531 0.49994,0 -1.82478,-9.6427 -2.58339,-10.71563 -0.1029,-0.14552 -0.20597,-0.5754 -0.22904,-0.9553 -0.14437,-2.37577 -4.63617,-12.81626 -6.27375,-14.58231 -0.34546,-0.37256 -0.56737,-0.73812 -0.49314,-0.81235 0.14835,-0.14836 -0.47067,-1.24483 -0.7028,-1.24483 -0.0795,0 -0.16275,0.2407 -0.18492,0.53489 -0.0246,0.3264 0.0725,0.46516 0.24916,0.35599 0.17506,-0.10819 0.21379,-0.0565 0.098,0.13089 -0.25384,0.41073 -0.68405,0.12438 -0.68405,-0.4553 0,-0.25335 -0.12944,-0.59007 -0.28764,-0.74827 -0.20713,-0.20713 -0.19568,-0.34447 0.0409,-0.49067 0.2043,-0.12627 0.26141,-0.0944 0.15103,0.0841 -0.0976,0.15795 -0.0647,0.35689 0.0731,0.44207 0.13784,0.0852 0.31706,0.0474 0.39828,-0.084 0.18824,-0.30458 -0.53853,-0.92214 -0.85503,-0.72654 -0.13087,0.0809 -0.22538,-0.17676 -0.21003,-0.57253 0.0173,-0.44547 -0.0981,-0.6944 -0.30281,-0.65345 -0.1819,0.0364 -0.34482,-0.0827 -0.36203,-0.26458 -0.0172,-0.1819 -0.12941,0.0265 -0.24932,0.46302 -0.18762,0.68309 -0.21079,0.62026 -0.1662,-0.45072 0.0285,-0.68446 -0.0252,-1.16071 -0.1194,-1.05834 -0.36287,0.39451 -0.45403,2.82846 -0.21553,5.75455 0.3974,4.87569 1.89727,10.14774 4.39743,15.45693 1.57033,3.33466 5.26395,9.10792 5.66751,8.85851 0.14021,-0.0867 0.22221,-0.0282 0.18222,0.1298 -0.0773,0.30547 1.66164,2.91097 1.94951,2.92103 0.0936,0.003 0.24198,-0.18127 0.32978,-0.4101 z m -0.81829,-3.48656 c -0.23492,-0.34456 -0.37228,-0.38111 -0.53691,-0.14284 -0.16257,0.23527 -0.30508,0.1859 -0.53744,-0.18618 -0.19973,-0.3198 -0.22075,-0.56535 -0.0571,-0.66652 0.14254,-0.0881 0.25917,-0.048 0.25917,0.0892 0,0.23531 0.97029,0.66254 1.37954,0.60743 0.1039,-0.014 0.12093,0.15172 0.0378,0.36826 -0.18672,0.48657 -0.16419,0.48944 -0.54514,-0.0693 z m -0.46823,-1.37751 c -0.086,-0.13916 -0.30611,-0.19557 -0.48912,-0.12534 -0.19852,0.0762 -0.46808,-0.24662 -0.66827,-0.80021 -0.18454,-0.51034 -0.45966,-0.90042 -0.61138,-0.86684 -0.15171,0.0336 -0.31067,-0.35567 -0.35325,-0.86499 -0.0426,-0.50933 -0.0186,-0.70041 0.0533,-0.42462 0.0926,0.35501 0.18943,0.40647 0.33172,0.17625 0.1486,-0.24045 0.24424,-0.2124 0.36704,0.10763 0.0971,0.25295 0.0574,0.36563 -0.0955,0.27115 -0.14385,-0.0889 -0.26155,-0.0554 -0.26155,0.0745 0,0.44627 0.33493,0.56984 0.82854,0.30567 0.34277,-0.18344 0.49438,-0.1758 0.49438,0.0249 0,0.15923 0.13746,0.20455 0.30546,0.10072 0.17961,-0.11101 0.23401,-0.0732 0.13203,0.0918 -0.0954,0.15434 -0.41321,0.21792 -0.70627,0.14128 -0.40177,-0.10507 -0.49407,-0.0383 -0.37523,0.27137 0.16118,0.42004 1.17317,0.5152 1.17317,0.11031 0,-0.12314 0.11907,-0.15031 0.26459,-0.0604 0.30599,0.18911 0.36208,0.69396 0.0661,0.59531 -0.10914,-0.0364 -0.2282,0.0231 -0.26458,0.13229 -0.1537,0.46112 -0.0386,0.69601 0.39687,0.80981 0.41744,0.10909 0.41898,0.12402 0.0156,0.15169 -0.24607,0.0169 -0.51778,-0.0832 -0.60379,-0.22234 z m -3.87289,-2.32666 c -0.23437,-0.0499 -0.5618,-0.38847 -0.72759,-0.75235 -0.42157,-0.92524 -0.35939,-1.16773 0.0954,-0.37212 0.37747,0.66031 0.37814,0.66041 0.3875,0.0578 0.005,-0.33199 -0.18227,-0.67715 -0.41646,-0.76703 -0.38926,-0.14937 -0.38956,-0.18372 -0.004,-0.39975 0.25558,-0.14304 0.61891,-0.13115 0.92021,0.0301 0.27384,0.14655 0.57307,0.19127 0.66497,0.0994 0.0919,-0.0919 0.16708,-0.0282 0.16708,0.1416 0,0.16977 -0.10792,0.30868 -0.23982,0.30868 -0.13189,0 -0.18008,0.22842 -0.10707,0.5076 0.17494,0.66896 -0.20688,1.25971 -0.74073,1.14604 z m 1.5895,-1.78593 c -0.0195,-0.14552 -0.0204,-0.3565 -0.002,-0.46884 0.0183,-0.11233 -0.29502,-0.33943 -0.69627,-0.50466 -0.63972,-0.26343 -0.66563,-0.31529 -0.21044,-0.42126 0.2855,-0.0665 0.56108,0.005 0.6124,0.15907 0.0513,0.15395 0.26421,0.21434 0.47309,0.13418 0.21574,-0.0828 0.37803,0.009 0.37573,0.2133 -0.005,0.44762 -0.50401,1.24992 -0.5524,0.88821 z m -2.5245,-2.04973 c 0.0477,-0.31249 0.22537,-0.61439 0.39485,-0.67088 0.16948,-0.0565 0.24593,-0.20338 0.16989,-0.32642 -0.076,-0.12303 -0.0308,-0.29012 0.10056,-0.3713 0.53469,-0.33045 0.40732,0.81441 -0.15068,1.35463 l -0.60132,0.58214 z m 1.49345,0.13247 -0.92604,-0.34844 0.9328,0.11439 c 0.55252,0.0678 1.13943,-0.0367 1.43963,-0.25621 0.27876,-0.20384 0.38883,-0.37061 0.2446,-0.37061 -0.14423,0 -0.39474,0.1325 -0.55669,0.29445 -0.31621,0.31622 -0.86972,0.10895 -0.86972,-0.32568 0,-0.14552 0.10558,-0.19933 0.23461,-0.11959 0.12903,0.0798 0.38409,-0.0351 0.56679,-0.25526 0.25123,-0.30272 0.26028,-0.5438 0.0371,-0.98928 -0.29332,-0.58555 -0.29471,-0.58512 -0.23606,0.0725 0.0324,0.3638 -0.0601,0.66145 -0.20559,0.66145 -0.14552,0 -0.26944,-0.28104 -0.27538,-0.62453 -0.006,-0.3435 -0.24407,-0.80486 -0.52917,-1.02526 -0.50513,-0.39048 -0.50317,-0.39712 0.0769,-0.26013 0.35525,0.0839 0.59523,0.0172 0.59512,-0.16537 -1e-4,-0.16827 -0.28526,-0.32235 -0.63368,-0.34238 -0.64038,-0.0368 -0.73569,0.25495 -0.30748,0.94128 0.17911,0.28707 0.12544,0.33388 -0.22751,0.19844 -0.25406,-0.0975 -0.66054,-0.18562 -0.9033,-0.19585 -0.35272,-0.0149 -0.33509,-0.0643 0.0878,-0.24599 0.44007,-0.1891 0.45277,-0.23052 0.0755,-0.24598 -0.24954,-0.0102 -0.58196,-0.25824 -0.73872,-0.55113 -0.22606,-0.42241 -0.38853,-0.47712 -0.78566,-0.26458 -0.65025,0.348 -0.76382,0.33786 -0.70304,-0.0628 0.0817,-0.53883 0.44098,-0.99278 0.77852,-0.98377 0.17331,0.005 0.077,0.19278 -0.21406,0.41811 l -0.52916,0.4097 0.52916,-0.0808 c 0.29104,-0.0444 0.66977,0.007 0.84162,0.11537 0.17184,0.10788 0.39546,0.0618 0.49691,-0.10233 0.10146,-0.16416 0.0204,-0.39976 -0.18015,-0.52356 -0.43701,-0.26975 -0.56354,-1.36728 -0.12973,-1.12523 0.18796,0.10487 0.18196,0.0426 -0.0166,-0.17229 -0.17098,-0.18505 -0.6153,-0.33647 -0.98736,-0.33647 -0.37206,0 -0.61183,-0.10459 -0.53282,-0.23243 0.079,-0.12784 0.50261,-0.16919 0.94135,-0.0919 0.55193,0.0972 0.74092,0.0486 0.61335,-0.15776 -0.13587,-0.21984 -0.0368,-0.21932 0.37673,0.002 0.30861,0.16516 0.56111,0.42975 0.56111,0.58796 0,0.17763 -0.1723,0.14876 -0.4504,-0.0754 -0.42323,-0.34123 -0.42369,-0.32433 -0.008,0.2803 0.31389,0.45606 0.36304,0.73962 0.16874,0.97374 -0.19838,0.23901 -0.13761,0.40337 0.21984,0.59467 0.43518,0.2329 0.48743,0.16984 0.43899,-0.52977 -0.0504,-0.72795 0.0601,-0.98175 0.15634,-0.35915 0.0225,0.14552 0.22908,0.47252 0.45908,0.72667 0.31711,0.35041 0.5044,0.39054 0.7749,0.16604 0.42348,-0.35146 0.48415,0.0646 0.0698,0.47896 -0.20611,0.20612 -0.11505,0.40723 0.32347,0.71438 0.40172,0.28138 0.47717,0.43024 0.22073,0.43554 -0.30355,0.006 -0.28976,0.0662 0.0624,0.27158 0.26629,0.15524 0.38634,0.43471 0.29218,0.68011 -0.0879,0.22912 0.006,0.52181 0.20943,0.65041 0.3084,0.19529 0.30941,0.2345 0.006,0.23788 -0.30779,0.003 -0.30779,0.0711 0,0.44396 0.28447,0.34461 0.29113,0.46413 0.0307,0.55176 -0.1828,0.0615 -0.25371,0.23915 -0.15755,0.39473 0.10883,0.1761 0.0484,0.20471 -0.16023,0.0758 -0.18426,-0.11389 -0.41103,-0.0983 -0.50389,0.0346 -0.0985,0.14099 -0.55464,0.0965 -1.0949,-0.10677 z m -0.88122,-6.98763 c -0.16414,-0.62765 0.45718,-1.75363 0.72687,-1.31726 0.091,0.14726 -0.0454,0.39051 -0.3031,0.54055 -0.25773,0.15004 -0.32716,0.27642 -0.15431,0.28084 0.17286,0.004 0.29635,0.24617 0.27443,0.53722 -0.0526,0.69839 -0.35649,0.67529 -0.54389,-0.0413 z m -0.77606,-1.25526 c -0.17201,-0.65776 0.1841,-1.19942 0.63551,-0.96663 0.19817,0.1022 0.13441,0.002 -0.14169,-0.22221 -0.2761,-0.22441 -0.62191,-0.33391 -0.76848,-0.24332 -0.14657,0.0906 -0.18782,0.0374 -0.0917,-0.11817 0.0962,-0.15558 0.0253,-0.35147 -0.15755,-0.43532 -0.18281,-0.0838 -0.0352,-0.0767 0.32806,0.0159 1.13208,0.28857 1.62117,1.41426 0.61446,1.41426 -0.32609,0 -0.34807,0.079 -0.10382,0.37332 0.18282,0.22029 0.20843,0.43599 0.0625,0.52619 -0.13604,0.0841 -0.30582,-0.0707 -0.37729,-0.34403 z m -1.51772,-1.88131 c -0.26399,-0.16866 -0.28613,-0.25492 -0.0661,-0.25762 0.1819,-0.002 0.33072,-0.16419 0.33072,-0.35992 0,-0.48418 -0.9159,-1.28093 -1.18837,-1.03377 -0.12065,0.10946 -0.12123,0.03 -0.001,-0.17667 0.16248,-0.27984 0.10579,-0.33259 -0.22216,-0.20675 -0.28747,0.11032 -0.44028,0.0341 -0.44028,-0.21962 0,-0.21371 -0.11906,-0.38857 -0.26458,-0.38857 -0.14552,0 -0.26459,0.0963 -0.26459,0.21402 0,0.1177 -0.18516,0.44513 -0.41147,0.7276 -0.39089,0.4879 -0.39614,0.48213 -0.10497,-0.11537 0.2285,-0.4689 0.22993,-0.67628 0.006,-0.8149 -0.32486,-0.20078 -0.10859,-1.06968 0.26623,-1.06968 0.12539,0 0.16095,-0.20836 0.079,-0.46302 -0.098,-0.30477 -0.0702,-0.35476 0.0814,-0.14626 0.25278,0.34756 0.85184,0.10628 0.78647,-0.31676 -0.0225,-0.14552 0.25677,-0.29785 0.62057,-0.33851 0.62099,-0.0694 0.63185,-0.0505 0.17752,0.30904 -0.39851,0.31537 -0.43028,0.48322 -0.17998,0.95091 0.24354,0.45506 0.37915,0.50552 0.68237,0.25387 0.29986,-0.24887 0.37842,-0.23082 0.37842,0.0869 0,0.44699 -0.79753,0.8566 -1.03718,0.53269 -0.33439,-0.45198 -1.3227,-0.8529 -1.47901,-0.59998 -0.0877,0.14192 0.17466,0.40592 0.58305,0.58666 0.40838,0.18075 0.90018,0.50868 1.09287,0.72873 0.19269,0.22006 0.28005,0.2595 0.19412,0.0877 -0.0859,-0.17185 -0.0352,-0.38723 0.11267,-0.47864 0.1479,-0.0914 0.2689,-0.001 0.2689,0.20018 0,0.43797 1.09425,1.51695 1.53841,1.51695 0.17252,0 0.31367,0.12133 0.31367,0.26962 0,0.1528 -0.27629,0.20028 -0.63768,0.10958 -0.45295,-0.11369 -0.66372,-0.0405 -0.7276,0.25257 -0.065,0.2982 -0.19998,0.34231 -0.48679,0.15906 z m -3.56338,-4.80368 c 0.0557,-0.28938 -0.0606,-0.48507 -0.28827,-0.48507 -0.20992,0 -0.38168,-0.10933 -0.38168,-0.24294 0,-0.13362 -0.0723,-0.43128 -0.1606,-0.66146 -0.10539,-0.27464 -0.0144,-0.41852 0.26458,-0.41852 0.23652,0 0.41592,-0.20547 0.4043,-0.46302 -0.0125,-0.2766 -0.0746,-0.32986 -0.15433,-0.13229 -0.15508,0.38431 -0.61853,0.44723 -0.61853,0.084 0,-0.32013 0.97533,-0.62953 1.31761,-0.41799 0.16382,0.10125 0.10353,0.40809 -0.15886,0.80856 -0.23258,0.35496 -0.54731,0.56848 -0.6994,0.47449 -0.16237,-0.10036 -0.19749,-0.043 -0.0851,0.13887 0.1053,0.17038 0.30229,0.24128 0.43776,0.15756 0.13545,-0.0837 0.24629,0.0334 0.24629,0.26027 0,0.22687 0.0936,0.41249 0.20788,0.41249 0.11434,0 0.20789,0.21828 0.20789,0.48507 0,0.26679 -0.14242,0.48507 -0.31649,0.48507 -0.17407,0 -0.27446,-0.21828 -0.22308,-0.48507 z m 1.0576,-0.46063 c -0.0881,-0.2776 -0.3418,-0.57441 -0.56377,-0.65959 -0.58399,-0.2241 -0.1881,-0.68777 0.58724,-0.68777 0.3638,0 0.60741,0.0893 0.54133,0.19844 -0.12815,0.21168 0.36725,0.76712 0.66217,0.74239 0.097,-0.008 0.27561,0.0936 0.39688,0.22607 0.1265,0.1382 0.0891,0.16569 -0.0876,0.0645 -0.16947,-0.097 -0.35847,-0.0268 -0.41999,0.15602 -0.0873,0.25943 -0.20974,0.25158 -0.55782,-0.0358 -0.38926,-0.32134 -0.42477,-0.31293 -0.27932,0.0661 0.0917,0.23886 0.10241,0.4343 0.0239,0.4343 -0.0785,0 -0.21485,-0.22713 -0.30296,-0.50473 z"
       id="path15785" />
    <path
       style="fill:#627d70;stroke-width:1.05402"
       d="m 204.2673,119.36299 -1.71979,-0.17325 1.5875,-0.0271 c 0.87313,-0.0149 1.82563,0.0753 2.11667,0.20032 0.58411,0.25101 0.50724,0.25101 -1.98438,0 z"
       id="path15742" />
    <path
       style="fill:#627d70;stroke-width:1.05402"
       d="m 203.60289,123.32243 c -0.10096,-0.31809 -0.61351,-1.0712 -1.13901,-1.67358 -0.94909,-1.08794 -0.94963,-1.08995 -0.0816,-0.30148 0.88817,0.80672 1.76394,2.19361 1.53178,2.42578 -0.0702,0.0702 -0.21025,-0.13262 -0.31121,-0.45072 z"
       id="path15734" />
    <path
       style="fill:#627d70;stroke-width:1.05402"
       d="m 196.63648,128.16438 c -0.50746,-0.35333 -0.80818,-0.38084 -1.6644,-0.15231 -0.76456,0.20408 -1.01887,0.19927 -0.94757,-0.0179 0.18236,-0.55542 2.15916,-0.50126 2.85524,0.0782 0.76812,0.63946 0.62225,0.6946 -0.24327,0.092 z"
       id="path15729" />
    <path
       style="fill:#627d70;stroke-width:1.05402"
       d="m 193.72631,129.75464 c -0.0346,-0.69751 0.0997,-0.92654 0.7364,-1.2558 0.4283,-0.22148 0.84309,-0.29857 0.92174,-0.1713 0.0787,0.12727 -0.20436,0.30088 -0.62892,0.38579 -0.63349,0.1267 -0.79121,0.31042 -0.87941,1.0244 l -0.10746,0.87001 z"
       id="path15728" />
    <path
       style="fill:#627d70;stroke-width:1.05402"
       d="m 193.50137,133.25366 c 0.001,-0.87313 0.0509,-1.19842 0.10977,-0.72287 0.0589,0.47555 0.0577,1.18993 -0.003,1.5875 -0.0604,0.39758 -0.10855,0.008 -0.10707,-0.86463 z"
       id="path15723" />
    <path
       style="fill:#627d70;stroke-width:1.05402"
       d="m 178.38048,138.51225 c -0.0233,-0.45475 -0.10147,-1.22866 -0.17374,-1.71979 l -0.13139,-0.89297 0.27839,0.88746 c 0.15312,0.48811 0.2313,1.26201 0.17374,1.71979 l -0.10466,0.83233 z"
       id="path15722" />
    <path
       style="fill:#627d70;stroke-width:1.05402"
       d="m 182.82977,153.31275 c -1.97523,-4.16827 -4.2609,-11.37517 -4.20667,-13.26399 0.0112,-0.39035 0.26156,0.42137 0.55635,1.80382 0.73156,3.43074 2.10066,7.51663 3.52909,10.53208 0.65528,1.38332 1.14286,2.56369 1.0835,2.62305 -0.0594,0.0593 -0.49238,-0.70338 -0.96227,-1.69496 z"
       id="path15717" />
    <path
       style="fill:#627d70;stroke-width:1.05402"
       d="m 188.19241,162.02705 c -1.95602,-2.59335 -4.52739,-6.68072 -4.20285,-6.68072 0.0626,0 0.85227,1.16085 1.75485,2.57968 1.5182,2.38656 1.96383,3.03504 3.6581,5.32323 0.33733,0.45559 0.55104,0.82833 0.47491,0.82833 -0.0761,0 -0.83439,-0.92273 -1.68501,-2.05052 z"
       id="path15714" />
    <path
       style="fill:#627d70;stroke-width:1.05402"
       d="m 191.82207,166.39541 c -0.90266,-0.80419 -2.19852,-2.36955 -1.42392,-1.72005 0.30285,0.25394 0.63027,0.38207 0.7276,0.28474 0.0973,-0.0973 0.17697,-0.0381 0.17697,0.13171 0,0.41532 0.97611,1.36935 1.38906,1.35764 0.1819,-0.005 0.0331,-0.17953 -0.33073,-0.3875 -0.63564,-0.36337 -0.63897,-0.37849 -0.0854,-0.3875 0.4902,-0.008 0.56039,-0.13311 0.47097,-0.83966 -0.0578,-0.45665 -0.27141,-1.0222 -0.47471,-1.25677 -0.32818,-0.37865 -0.85794,-2.30708 -1.38914,-5.0567 -0.0984,-0.50932 -0.56824,-2.11666 -1.0441,-3.57187 -0.47586,-1.45521 -0.94878,-3.04596 -1.05094,-3.535 -0.72006,-3.44704 -2.77411,-8.24877 -5.9012,-13.79521 -1.10761,-1.96453 -2.01191,-3.6314 -2.00955,-3.70416 0.002,-0.0728 -0.0899,-0.25136 -0.20495,-0.39688 -1.6861,-2.13209 -2.0693,-2.34152 -2.0693,-1.13091 0,0.30671 -0.0738,0.48382 -0.16407,0.39358 -0.32386,-0.32386 0.17369,-1.51163 0.63213,-1.50904 1.21492,0.007 4.25858,1.83277 6.34496,3.80638 1.04458,0.98813 1.52104,1.75901 0.81902,1.32514 -0.19078,-0.1179 -0.23358,-0.0725 -0.11401,0.12099 0.1053,0.17038 0.29604,0.24515 0.42387,0.16614 0.33387,-0.20634 2.16187,2.3318 3.25164,4.51485 0.9951,1.99343 2.30021,5.7217 2.30021,6.57098 0,0.28295 0.057,0.45751 0.12656,0.3879 0.0696,-0.0696 0.2019,-4.22688 0.29397,-9.23837 0.0921,-5.01149 0.23003,-9.17134 0.30658,-9.2441 0.0765,-0.0728 0.0592,3.70748 -0.0386,8.40052 -0.15772,7.57137 -0.132,8.53282 0.22831,8.53282 0.28555,0 0.40055,0.2552 0.38747,0.85989 -0.0156,0.7206 -0.0554,0.77418 -0.24599,0.33073 -0.12506,-0.29104 -0.23576,-0.39008 -0.24598,-0.22008 -0.0102,0.17 -0.0914,0.49877 -0.18035,0.73061 -0.1095,0.28536 -0.0454,0.37688 0.19844,0.28335 0.30013,-0.11513 0.35267,1.39538 0.31509,9.05898 -0.0488,9.9461 -0.0505,9.95688 -1.41993,8.73685 z"
       id="path15713" />
    <path
       style="fill:#617c6d;stroke-width:1.05402"
       d="m 204.66418,119.36302 -1.32292,-0.18145 1.19063,-0.023 c 0.65484,-0.0126 1.42875,0.0794 1.71979,0.20442 0.60415,0.25962 0.3053,0.25962 -1.5875,0 z"
       id="path15672" />
    <path
       style="fill:#617c6d;stroke-width:1.05402"
       d="m 192.72352,132.32758 c 0,-1.52797 0.0437,-2.15305 0.0972,-1.38907 0.0534,0.76399 0.0534,2.01414 0,2.77813 -0.0534,0.76398 -0.0972,0.13891 -0.0972,-1.38906 z"
       id="path15668" />
    <path
       style="fill:#617c6d;stroke-width:1.05402"
       d="m 179.1373,142.80236 c -0.31653,-1.38944 -0.52058,-2.73709 -0.45344,-2.99479 0.0952,-0.36532 0.12882,-0.33965 0.15275,0.11653 0.0169,0.32179 0.2717,1.61867 0.56626,2.88197 0.29456,1.26329 0.4848,2.34767 0.42275,2.40972 -0.062,0.062 -0.3718,-1.02399 -0.68832,-2.41343 z"
       id="path15661" />
    <path
       style="fill:#617c6d;stroke-width:1.05402"
       d="m 192.46301,143.44008 c 0,-1.81901 0.0423,-2.56316 0.0939,-1.65365 0.0517,0.90951 0.0517,2.39779 0,3.30729 -0.0517,0.90951 -0.0939,0.16537 -0.0939,-1.65364 z"
       id="path15660" />
    <path
       style="fill:#617c6d;stroke-width:1.05402"
       d="m 180.48409,147.63684 c -0.30715,-0.90952 -0.54959,-1.77939 -0.53876,-1.93303 0.0108,-0.15365 0.30765,0.545 0.65958,1.55255 0.35194,1.00755 0.59439,1.87742 0.53877,1.93304 -0.0556,0.0556 -0.35243,-0.64303 -0.65959,-1.55256 z"
       id="path15658" />
    <path
       style="fill:#617c6d;stroke-width:1.05402"
       d="m 187.80389,161.49789 c -2.14122,-2.99248 -4.09982,-6.15156 -3.81391,-6.15156 0.0628,0 0.68224,0.92273 1.37648,2.05052 0.69425,1.12778 1.81466,2.82442 2.48981,3.77031 1.40265,1.9651 1.66832,2.38125 1.52022,2.38125 -0.058,0 -0.76563,-0.92274 -1.5726,-2.05052 z"
       id="path15649" />
    <path
       style="fill:#617c6d;stroke-width:1.05402"
       d="m 192.04974,166.51734 c -0.3895,-0.25683 -0.98019,-0.82154 -1.31264,-1.25492 -0.45776,-0.59675 -0.30339,-0.51509 0.63613,0.33651 0.68232,0.61846 1.31752,1.12448 1.41155,1.12448 0.31433,0 -0.0696,-2.95615 -0.41139,-3.16738 -0.18532,-0.11453 -0.67335,-1.68115 -1.08449,-3.48137 -0.41115,-1.80022 -1.11201,-4.37101 -1.55748,-5.71286 -0.44547,-1.34186 -0.80995,-2.6052 -0.80995,-2.80743 0,-1.35677 -3.66639,-10.37687 -5.01893,-12.34763 -0.24968,-0.3638 -0.79531,-1.3163 -1.21251,-2.11666 -0.4172,-0.80037 -0.97173,-1.77125 -1.2323,-2.15751 -0.6513,-0.96549 -0.62062,-1.01749 0.60019,-1.01749 0.64859,0 1.00918,0.10479 0.91043,0.26458 -0.0899,0.14552 -0.0374,0.26458 0.11667,0.26458 0.15411,0 0.25044,0.13395 0.21406,0.29766 -0.0364,0.16371 0.10165,0.35855 0.30674,0.43298 0.26192,0.095 0.32187,0.002 0.20147,-0.3114 -0.0949,-0.24718 -0.0621,-0.37916 0.0733,-0.29548 0.32233,0.19921 0.24752,1.27815 -0.10579,1.52584 -0.1798,0.12605 -0.15801,0.19581 0.062,0.19843 0.18659,0.002 0.44693,-0.26383 0.57854,-0.59126 0.18333,-0.45611 0.24321,-0.48704 0.25606,-0.13229 0.009,0.25466 0.15622,0.46302 0.32666,0.46302 0.53994,0 1.24911,0.82473 1.08251,1.25889 -0.10527,0.27434 -0.0543,0.35045 0.15013,0.22411 0.18578,-0.11482 0.30955,-0.0264 0.30955,0.22118 0,0.22687 0.18562,0.41249 0.41249,0.41249 0.22687,0 0.3582,0.0893 0.29184,0.19844 -0.0663,0.10914 0.16475,0.41235 0.51356,0.67381 0.82783,0.62051 0.80172,0.37675 -0.0882,-0.82376 -1.55173,-2.0932 -4.09888,-4.48065 -5.77324,-5.41128 -1.5457,-0.85913 -1.71571,-0.90418 -1.55994,-0.41341 0.1171,0.36894 0.0781,0.49102 -0.11811,0.36976 -0.16111,-0.0996 -0.29293,-0.34269 -0.29293,-0.54025 0,-0.19757 -0.32742,-0.4788 -0.72761,-0.62496 -0.56788,-0.20741 -0.61144,-0.26976 -0.19843,-0.28404 0.29104,-0.0101 1.14799,0.26981 1.90433,0.62196 3.55486,1.6551 6.67224,4.93904 8.94504,9.42294 1.00499,1.98269 2.24364,5.60332 2.25555,6.59303 0.007,0.59629 0.0383,0.61686 0.28672,0.18971 0.15327,-0.2635 0.21292,-0.65045 0.13255,-0.8599 -0.0804,-0.20944 -0.0203,-0.3808 0.13341,-0.3808 0.17309,0 0.22285,0.3778 0.13066,0.99219 -0.16657,1.11017 -0.23586,2.70758 -0.16926,3.9026 0.0385,0.69014 0.0739,0.72468 0.27162,0.26458 0.13603,-0.31656 0.25258,2.36761 0.29008,6.68073 0.0345,3.96544 0.0726,7.40834 0.0848,7.65087 0.0316,0.6321 -0.40012,0.68421 -1.21531,0.14671 z m 0.84048,-10.27737 c 0,-1.09416 -0.0449,-1.18578 -0.42589,-0.86957 -0.28364,0.23541 -0.32345,0.3876 -0.11917,0.4557 0.21653,0.0722 0.18591,0.28661 -0.10416,0.7293 -0.37702,0.57541 -0.37452,0.61313 0.0303,0.45779 0.2968,-0.1139 0.37856,-0.068 0.24984,0.14026 -0.10522,0.17025 -0.0652,0.30954 0.0889,0.30954 0.1568,0 0.2802,-0.53862 0.2802,-1.22302 z m -0.92643,-0.27409 c 0.0507,-0.26799 0.11041,-0.48726 0.13268,-0.48726 0.0223,0 0.0775,-0.18852 0.12265,-0.41893 0.0452,-0.2304 -0.0716,-0.41892 -0.2596,-0.41892 -0.18797,0 -0.28085,0.15875 -0.20639,0.35278 0.0745,0.19403 -0.0202,0.35278 -0.21044,0.35278 -0.25557,0 -0.26836,0.0774 -0.049,0.29682 0.16325,0.16325 0.22763,0.49067 0.14305,0.7276 -0.0846,0.23693 -0.0663,0.3524 0.0405,0.25659 0.10687,-0.0958 0.23579,-0.39346 0.2865,-0.66146 z m -1.74002,-11.58702 c 0.24931,-0.15408 0.30643,-0.12886 0.17817,0.0787 -0.10383,0.168 -0.0627,0.30546 0.0914,0.30546 0.4769,0 0.2805,-0.85029 -0.6417,-2.77812 l -0.88596,-1.85209 -0.0221,1.26608 c -0.0127,0.72534 0.15932,1.57287 0.40268,1.98438 0.34969,0.59131 0.35268,0.63159 0.0169,0.22784 -0.38587,-0.46401 -0.40668,-0.44871 -0.38586,0.28364 0.0226,0.79525 0.46503,0.96709 1.24646,0.48414 z m -2.39932,-4.46404 c 0.21227,-0.25577 0.20673,-0.4342 -0.0205,-0.66146 -0.38738,-0.38738 -0.99913,-0.40636 -0.99913,-0.031 0,0.15411 0.13182,0.19873 0.29293,0.0992 0.19713,-0.12183 0.23456,0.003 0.11447,0.38126 -0.1989,0.62668 0.16386,0.75232 0.61225,0.21204 z m -2.57313,-3.35391 c 0.14399,0 0.1933,0.11083 0.10958,0.2463 -0.0837,0.13547 -0.0394,0.316 0.0984,0.40119 0.4249,0.2626 0.56949,-0.3034 0.16357,-0.64029 -0.50319,-0.41761 -0.94378,-0.12163 -0.89869,0.60373 0.036,0.57951 0.0361,0.5795 0.15069,-0.0156 0.0631,-0.32742 0.23247,-0.59531 0.37646,-0.59531 z"
       id="path15643" />
    <path
       style="fill:#5b796a;stroke-width:1.05402"
       d="m 181.51314,132.58872 c -0.80037,-0.41702 -1.75287,-0.88134 -2.11667,-1.03182 -0.62274,-0.25758 -0.61499,-0.26405 0.13229,-0.11049 0.94854,0.19492 3.20151,1.2897 3.43648,1.66988 0.21428,0.34672 0.2526,0.36064 -1.4521,-0.52757 z"
       id="path15587" />
    <path
       style="fill:#5b796a;stroke-width:1.05402"
       d="m 192.72227,132.45986 c 6.9e-4,-1.45521 0.0451,-2.01677 0.0987,-1.2479 0.0536,0.76886 0.053,1.95948 -10e-4,2.64583 -0.0543,0.68635 -0.0982,0.0573 -0.0975,-1.39793 z"
       id="path15586" />
    <path
       style="fill:#5b796a;stroke-width:1.05402"
       d="m 192.46301,143.44008 c 0,-1.81901 0.0423,-2.56316 0.0939,-1.65365 0.0517,0.90951 0.0517,2.39779 0,3.30729 -0.0517,0.90951 -0.0939,0.16537 -0.0939,-1.65364 z"
       id="path15563" />
    <path
       style="fill:#5b796a;stroke-width:1.05402"
       d="m 191.60964,147.73409 c -0.18226,-0.33043 -0.25367,-0.72654 -0.15868,-0.88023 0.32254,-0.52189 -2.17661,-6.67458 -2.60388,-6.41052 -0.14957,0.0924 -0.19856,0.0493 -0.10886,-0.0958 0.14614,-0.23646 -1.34901,-2.84572 -1.86011,-3.24617 -0.11308,-0.0886 -0.9795,-0.97847 -1.92539,-1.97749 -1.24883,-1.31899 -1.45261,-1.61938 -0.74414,-1.09693 2.77758,2.04826 5.75531,6.6716 7.22905,11.22413 0.7249,2.2393 0.82362,3.66433 0.17201,2.48302 z"
       id="path15560" />
    <path
       style="fill:#5b796a;stroke-width:1.05402"
       d="m 188.12328,148.58775 c -0.14075,-0.37022 -0.33224,-0.9953 -0.42553,-1.38906 -0.0933,-0.39377 -0.75422,-1.95104 -1.46873,-3.4606 -0.71452,-1.50957 -1.25058,-2.79321 -1.19126,-2.85253 0.1712,-0.1712 0.87203,1.02798 1.0696,1.83019 0.099,0.402 0.56433,1.10623 1.03405,1.56494 0.46971,0.45871 0.70519,0.74785 0.52329,0.64253 -0.41746,-0.24171 -0.44229,0.4161 -0.0312,0.82718 0.16473,0.16473 0.33946,0.74467 0.38828,1.28876 0.0488,0.54408 0.18193,1.05819 0.2958,1.14246 0.21609,0.15992 0.36182,1.07926 0.17108,1.07926 -0.0602,0 -0.22461,-0.30291 -0.36537,-0.67313 z"
       id="path15558" />
    <path
       style="fill:#5b796a;stroke-width:1.05402"
       d="m 180.48409,147.63681 c -0.30715,-0.90952 -0.54959,-1.77939 -0.53876,-1.93303 0.0108,-0.15365 0.30765,0.545 0.65958,1.55255 0.35194,1.00755 0.59439,1.87742 0.53877,1.93304 -0.0556,0.0556 -0.35243,-0.64303 -0.65959,-1.55256 z"
       id="path15557" />
    <path
       style="fill:#5b796a;stroke-width:1.05402"
       d="m 192.29696,149.04437 c -0.0722,-0.27615 -0.0178,-0.70482 0.12083,-0.95261 0.13867,-0.24779 0.18637,-0.62188 0.106,-0.83133 -0.0804,-0.20944 -0.0235,-0.3808 0.12636,-0.3808 0.17429,0 0.20676,0.45292 0.0901,1.25677 -0.21364,1.47198 -0.26713,1.58155 -0.44328,0.90797 z"
       id="path15556" />
    <path
       style="fill:#5b796a;stroke-width:1.05402"
       d="m 189.21365,151.66481 c -0.20311,-0.12861 -0.29614,-0.42444 -0.20675,-0.65741 0.0894,-0.23296 0.0611,-0.42357 -0.0629,-0.42357 -0.12399,0 -0.29292,-0.2679 -0.37542,-0.59532 -0.13566,-0.53846 -0.11716,-0.55148 0.19374,-0.1364 0.18906,0.2524 0.40142,0.40123 0.47191,0.33073 0.0705,-0.0705 0.13847,0.0206 0.15103,0.20255 0.0126,0.1819 0.0851,0.59862 0.1612,0.92604 0.15704,0.67576 0.16423,0.66813 -0.33284,0.35338 z"
       id="path15550" />
    <path
       style="fill:#5b796a;stroke-width:1.05402"
       d="m 187.80981,161.49789 c -1.29973,-1.82381 -2.87728,-4.23441 -3.50626,-5.35781 -0.61276,-1.09441 0.51374,0.43359 2.34071,3.17499 1.11527,1.67349 2.21748,3.3106 2.44934,3.63803 0.23187,0.32742 0.36667,0.59531 0.29955,0.59531 -0.0671,0 -0.77962,-0.92274 -1.58334,-2.05052 z"
       id="path15526" />
    <path
       style="fill:#5b796a;stroke-width:1.05402"
       d="m 192.04974,166.51734 c -0.3895,-0.25683 -0.98019,-0.82154 -1.31264,-1.25492 -0.45776,-0.59675 -0.30339,-0.51509 0.63613,0.33651 0.68232,0.61846 1.28899,1.12448 1.34815,1.12448 0.0592,0 0.12336,-3.17701 0.14266,-7.06002 0.0193,-3.88301 0.0926,-7.11754 0.16293,-7.18784 0.0703,-0.0703 0.14768,2.9281 0.17193,6.66314 0.0242,3.73503 0.054,6.98941 0.0661,7.23194 0.0316,0.6321 -0.40012,0.68421 -1.21531,0.14671 z"
       id="path15521" />
    <path
       style="fill:#486a5a;stroke-width:1.05402"
       d="m 192.46003,143.0432 c 5.9e-4,-1.60073 0.0442,-2.22146 0.0968,-1.3794 0.0527,0.84206 0.0522,2.15174 -0.001,2.91042 -0.0533,0.75867 -0.0964,0.0697 -0.0958,-1.53102 z"
       id="path15481" />
  </g>
</svg>
