<?xml version="1.0" encoding="UTF-8" standalone="no"?>
<!-- Created with Inkscape (http://www.inkscape.org/) -->

<svg
   width="185"
   height="185"
   viewBox="0 0 48.947914 48.947918"
   version="1.1"
   id="svg1"
   sodipodi:docname="convallaria-majalis-3.svg"
   inkscape:version="1.4 (e7c3feb100, 2024-10-09)"
   xmlns:inkscape="http://www.inkscape.org/namespaces/inkscape"
   xmlns:sodipodi="http://sodipodi.sourceforge.net/DTD/sodipodi-0.dtd"
   xmlns="http://www.w3.org/2000/svg"
   xmlns:svg="http://www.w3.org/2000/svg">
  <sodipodi:namedview
     id="namedview1"
     pagecolor="#ffffff"
     bordercolor="#666666"
     borderopacity="1.0"
     inkscape:showpageshadow="2"
     inkscape:pageopacity="0.0"
     inkscape:pagecheckerboard="true"
     inkscape:deskcolor="#d1d1d1"
     showgrid="false"
     inkscape:zoom="1.211637"
     inkscape:cx="79.644316"
     inkscape:cy="150.21001"
     inkscape:current-layer="svg1" />
  <defs
     id="defs1" />
  <g
     id="g16083"
     transform="matrix(0.80911396,0,0,0.80911396,-39.303058,-29.005558)"
     style="stroke-width:1.23592">
    <path
       style="fill:#ede4d3;stroke-width:1.23592"
       d="m 62.064958,96.097765 c -0.641454,-1.037895 7.646888,-3.193103 12.2798,-3.193103 h 1.019096 L 74.596121,91.077403 C 73.334746,88.075238 71.72109,81.065261 71.71262,78.551017 c -0.0025,-0.7399 0.875081,-0.544112 1.778901,0.396875 1.852328,1.928498 4.32565,8.122157 4.973794,12.455308 0.105029,0.702164 0.279712,1.178414 0.388184,1.058333 0.108473,-0.120081 0.462018,-1.111298 0.785654,-2.202704 0.851028,-2.869938 2.728877,-6.348772 4.27472,-7.919191 0.72613,-0.737674 1.492238,-1.341226 1.702462,-1.341226 0.84281,0 0.190491,3.358979 -1.680484,8.653291 -0.576247,1.630612 -0.982875,3.029597 -0.903618,3.108854 0.07926,0.07926 0.749339,0.144485 1.48907,0.14495 2.712528,0.0017 8.880031,1.361649 10.51462,2.31849 0.395564,0.231551 0.643522,0.566479 0.567005,0.765879 -0.111629,0.2909 -3.113534,0.354369 -16.760811,0.354369 -9.98378,0 -16.685678,-0.09846 -16.777159,-0.24648 z"
       id="path16080" />
    <path
       style="fill:#e4d9c9;stroke-width:1.23592"
       d="m 62.186061,95.932492 c 0,-0.92886 4.712802,-2.307351 9.317782,-2.725443 1.55952,-0.141591 3.077567,-0.194134 3.373438,-0.116763 0.29587,0.07737 0.537538,0.09702 0.537039,0.04367 -4.99e-4,-0.05335 -0.359193,-0.976246 -0.797098,-2.050874 -1.390025,-3.411155 -3.246184,-11.966284 -2.765134,-12.74464 0.560478,-0.906872 2.339098,0.990245 3.781084,4.032989 1.160931,2.44969 1.696854,4.124472 2.566262,8.019687 0.324802,1.455208 0.655856,2.46724 0.735677,2.248958 0.07982,-0.218281 0.461948,-1.408906 0.849172,-2.645833 0.95766,-3.059094 2.345266,-5.612619 4.051282,-7.45532 1.581893,-1.708633 2.163981,-1.927584 2.161141,-0.812909 -0.003,1.177426 -0.937213,4.736363 -2.095244,7.981945 -0.592846,1.661555 -1.077902,3.060539 -1.077902,3.108854 0,0.04832 0.633863,0.08785 1.408584,0.08785 1.934211,0 5.966145,0.716178 8.51329,1.512186 2.276609,0.711462 2.778125,0.993605 2.778125,1.562919 0,0.305725 -2.686966,0.364478 -16.668749,0.364478 -14.907958,0 -16.668749,-0.0435 -16.668749,-0.411754 z"
       id="path16066" />
    <path
       style="fill:#dad4c8;stroke-width:1.23592"
       d="m 62.186061,95.954164 c 0,-1.120663 6.134527,-2.703825 11.049258,-2.851524 1.828024,-0.05494 2.157521,-0.130635 2.013422,-0.462562 -0.698294,-1.608493 -1.582592,-4.199556 -2.107787,-6.175979 -0.714214,-2.687745 -1.517962,-7.75497 -1.288866,-8.125655 0.556758,-0.900853 2.353011,1.035764 3.816913,4.115177 1.124933,2.366367 1.665271,4.061308 2.530433,7.937499 0.324802,1.455208 0.655856,2.46724 0.735677,2.248958 0.07982,-0.218281 0.461948,-1.408906 0.849172,-2.645833 0.95766,-3.059094 2.345266,-5.612619 4.051282,-7.45532 2.25577,-2.436501 2.584223,-2.044623 1.648794,1.967178 -0.282811,1.212896 -0.997186,3.559226 -1.5875,5.214066 -0.590315,1.65484 -1.073299,3.030374 -1.073299,3.056741 0,0.02637 1.101328,0.125385 2.447395,0.220039 4.429795,0.311498 10.010613,1.889259 10.202238,2.88429 0.08416,0.437001 -0.848128,0.463006 -16.598983,0.463006 -14.528331,0 -16.688149,-0.05048 -16.688149,-0.390081 z"
       id="path16034" />
    <path
       style="fill:#cfc8ab;stroke-width:1.23592"
       d="m 62.232422,95.883219 c 0.06059,-0.32786 0.827295,-0.713156 2.599472,-1.306318 2.678606,-0.896552 5.543022,-1.376753 8.675283,-1.454358 1.639168,-0.04061 1.902551,-0.110142 1.756009,-0.463559 -1.531311,-3.693081 -2.541617,-7.346305 -3.111208,-11.249999 -0.542111,-3.715361 -0.191553,-4.214648 1.542212,-2.19651 1.786289,2.079277 3.592942,6.639212 4.539826,11.458381 0.243487,1.23923 0.522179,2.159497 0.619315,2.045038 0.09714,-0.114459 0.391382,-0.982013 0.653881,-1.927899 0.84807,-3.055922 2.673853,-6.517505 4.342792,-8.233689 1.6458,-1.692392 2.148556,-1.905528 2.148556,-0.910854 0,1.405111 -1.401296,6.479306 -2.541433,9.202717 -0.348462,0.832359 -0.633567,1.618347 -0.633567,1.746638 0,0.128291 0.982265,0.30477 2.182812,0.392174 4.429299,0.322472 10.384895,1.946326 10.384895,2.831549 0,0.345923 -2.080831,0.403953 -16.622387,0.463564 -15.735198,0.0645 -16.617802,0.04332 -16.536458,-0.396875 z"
       id="path16016" />
    <path
       style="fill:#bac4b4;stroke-width:1.23592"
       d="m 62.232422,95.883219 c 0.06059,-0.32786 0.827295,-0.713156 2.599472,-1.306318 2.678606,-0.896552 5.543022,-1.376753 8.675283,-1.454358 1.639168,-0.04061 1.902551,-0.110142 1.756009,-0.463559 -1.531311,-3.693081 -2.541617,-7.346305 -3.111208,-11.249999 -0.542111,-3.715361 -0.191553,-4.214648 1.542212,-2.19651 1.786289,2.079277 3.592942,6.639212 4.539826,11.458381 0.243487,1.23923 0.522179,2.159497 0.619315,2.045038 0.09714,-0.114459 0.391382,-0.982013 0.653881,-1.927899 0.84807,-3.055922 2.673853,-6.517505 4.342792,-8.233689 1.6458,-1.692392 2.148556,-1.905528 2.148556,-0.910854 0,1.405111 -1.401296,6.479306 -2.541433,9.202717 -0.348462,0.832359 -0.633567,1.618347 -0.633567,1.746638 0,0.128291 0.982265,0.30477 2.182812,0.392174 4.429299,0.322472 10.384895,1.946326 10.384895,2.831549 0,0.345923 -2.080831,0.403953 -16.622387,0.463564 -15.735198,0.0645 -16.617802,0.04332 -16.536458,-0.396875 z"
       id="path16005" />
    <path
       style="fill:#c4b0a8;stroke-width:1.23592"
       d="m 62.235892,95.884016 c 0.195353,-1.014388 5.554333,-2.399402 10.215747,-2.640232 2.60291,-0.134479 2.96656,-0.209167 2.811875,-0.577517 -2.223603,-5.29505 -4.122699,-14.578271 -2.98232,-14.578271 0.602667,0 2.242159,2.053441 3.181855,3.98523 1.058377,2.175765 2.060758,5.317399 2.759463,8.648623 0.251808,1.200547 0.556619,2.182813 0.677357,2.182813 0.120738,0 0.219524,-0.217271 0.219524,-0.482824 0,-0.778421 1.242773,-4.209695 2.309595,-6.376755 0.962403,-1.954948 3.567181,-5.046671 4.251824,-5.046671 0.174761,0 0.317748,0.28961 0.317748,0.643578 0,1.031314 -1.478359,6.476233 -2.363052,8.703319 -0.446572,1.124179 -0.811948,2.142277 -0.811948,2.262441 0,0.120164 0.940876,0.291035 2.090836,0.379714 4.503774,0.347306 10.476871,1.960219 10.476871,2.829066 0,0.345923 -2.080831,0.403953 -16.622387,0.463564 -15.725584,0.06446 -16.617565,0.0431 -16.532988,-0.396078 z"
       id="path15995" />
    <path
       style="fill:#d1b883;stroke-width:1.23592"
       d="m 62.235892,95.884016 c 0.05794,-0.300829 0.693492,-0.679885 1.805722,-1.076962 2.780163,-0.992543 4.945374,-1.340636 7.801738,-1.254256 2.291534,0.0693 2.397824,0.05536 0.79375,-0.104103 l -1.852083,-0.184116 2.343411,-0.04767 c 2.119317,-0.04311 2.324956,-0.09194 2.150417,-0.510688 -2.255787,-5.411954 -4.143651,-14.618228 -2.997653,-14.618228 0.602667,0 2.242159,2.053441 3.181855,3.98523 1.058377,2.175765 2.060758,5.317399 2.759463,8.648623 0.251808,1.200547 0.556619,2.182813 0.677357,2.182813 0.120738,0 0.219524,-0.217271 0.219524,-0.482824 0,-0.778421 1.242773,-4.209695 2.309595,-6.376755 0.962403,-1.954948 3.567181,-5.046671 4.251824,-5.046671 0.174761,0 0.317748,0.28961 0.317748,0.643578 0,1.031314 -1.478359,6.476233 -2.363052,8.703319 -0.446572,1.124179 -0.811948,2.144567 -0.811948,2.26753 0,0.122963 1.101328,0.312795 2.447395,0.42185 1.773152,0.143656 2.301614,0.263178 1.91823,0.433844 -0.376293,0.16751 -0.243933,0.193324 0.458156,0.08935 1.121278,-0.166048 4.930928,0.660012 6.74535,1.462617 2.582605,1.142409 2.028184,1.187043 -15.645835,1.259591 -15.704587,0.06446 -16.59554,0.04309 -16.510964,-0.396078 z m 6.238761,0.0066 c -0.397576,-0.06037 -1.111951,-0.06159 -1.5875,-0.0027 -0.475549,0.05889 -0.150259,0.10828 0.722866,0.109765 0.873125,0.0015 1.26221,-0.04669 0.864634,-0.107065 z m 13.629286,-0.0043 c -0.614073,-0.05549 -1.685635,-0.05615 -2.38125,-0.0015 -0.695615,0.05468 -0.193192,0.100084 1.116496,0.10089 1.309687,8.07e-4 1.878827,-0.04393 1.264754,-0.09942 z m 12.901686,-0.190001 c -0.335207,-0.4039 -2.080908,-1.074762 -2.279624,-0.876045 -0.06395,0.06395 0.390513,0.284174 1.009915,0.48939 l 1.126185,0.373121 -2.778125,0.146646 -2.778125,0.146646 3.008959,0.05179 c 2.601094,0.04477 2.965835,-1.7e-4 2.690815,-0.331548 z"
       id="path15987" />
    <path
       style="fill:#b5afa6;stroke-width:1.23592"
       d="m 62.235892,95.884016 c 0.05794,-0.300829 0.693492,-0.679885 1.805722,-1.076962 2.780163,-0.992543 4.945374,-1.340636 7.801738,-1.254256 2.291534,0.0693 2.397824,0.05536 0.79375,-0.104103 l -1.852083,-0.184116 2.343411,-0.04767 c 2.119317,-0.04311 2.324956,-0.09194 2.150417,-0.510688 -2.255787,-5.411954 -4.143651,-14.618228 -2.997653,-14.618228 0.602667,0 2.242159,2.053441 3.181855,3.98523 1.058377,2.175765 2.060758,5.317399 2.759463,8.648623 0.251808,1.200547 0.556619,2.182813 0.677357,2.182813 0.120738,0 0.219524,-0.217271 0.219524,-0.482824 0,-0.778421 1.242773,-4.209695 2.309595,-6.376755 0.962403,-1.954948 3.567181,-5.046671 4.251824,-5.046671 0.174761,0 0.317748,0.28961 0.317748,0.643578 0,1.031314 -1.478359,6.476233 -2.363052,8.703319 -0.446572,1.124179 -0.811948,2.144567 -0.811948,2.26753 0,0.122963 1.101328,0.312795 2.447395,0.42185 1.773152,0.143656 2.301614,0.263178 1.91823,0.433844 -0.376293,0.16751 -0.243933,0.193324 0.458156,0.08935 1.121278,-0.166048 4.930928,0.660012 6.74535,1.462617 2.582605,1.142409 2.028184,1.187043 -15.645835,1.259591 -15.704587,0.06446 -16.59554,0.04309 -16.510964,-0.396078 z m 6.238761,0.0066 c -0.397576,-0.06037 -1.111951,-0.06159 -1.5875,-0.0027 -0.475549,0.05889 -0.150259,0.10828 0.722866,0.109765 0.873125,0.0015 1.26221,-0.04669 0.864634,-0.107065 z m 13.629286,-0.0043 c -0.614073,-0.05549 -1.685635,-0.05615 -2.38125,-0.0015 -0.695615,0.05468 -0.193192,0.100084 1.116496,0.10089 1.309687,8.07e-4 1.878827,-0.04393 1.264754,-0.09942 z m 12.901686,-0.190001 c -0.335207,-0.4039 -2.080908,-1.074762 -2.279624,-0.876045 -0.06395,0.06395 0.390513,0.284174 1.009915,0.48939 l 1.126185,0.373121 -2.778125,0.146646 -2.778125,0.146646 3.008959,0.05179 c 2.601094,0.04477 2.965835,-1.7e-4 2.690815,-0.331548 z"
       id="path15979" />
    <path
       style="fill:#d1b77c;stroke-width:1.23592"
       d="m 62.301304,96.052077 c -0.226123,-0.365876 0.147842,-0.612746 1.980165,-1.307195 2.398247,-0.908933 4.737693,-1.277534 7.561883,-1.191444 2.163151,0.06594 2.33209,0.04678 0.926042,-0.105048 l -1.719792,-0.185701 2.182812,-0.04672 c 2.153343,-0.04609 2.598026,-0.269999 1.958197,-0.985993 -1.284062,-1.436913 -4.022789,-14.141978 -3.048471,-14.141978 0.960096,0 2.86049,2.633771 4.057645,5.623523 0.737252,1.841202 1.863397,5.953809 2.245645,8.200955 0.17172,1.009501 0.673963,1.389083 0.673963,0.509364 0,-0.773292 1.170077,-3.998869 2.265467,-6.245264 1.186331,-2.432894 3.87555,-5.492978 4.3821,-4.986428 0.543579,0.543579 -0.495764,4.705746 -2.594907,10.391599 -0.510381,1.382448 -1.065475,2.697971 -1.233542,2.923384 -0.168067,0.225413 -0.03769,0.129477 0.289736,-0.213192 0.327422,-0.342668 0.595313,-0.794988 0.595313,-1.005154 0,-0.427826 1.00367,-0.465358 3.439583,-0.128624 1.181926,0.163386 1.281301,0.211407 0.529167,0.255708 -0.637033,0.03752 -0.01773,0.245061 1.984374,0.664995 3.790365,0.795015 5.100303,1.161999 5.299775,1.484752 0.107329,0.173662 -5.215095,0.257164 -15.631182,0.245234 -8.686659,-0.0099 -15.858928,0.04691 -15.938376,0.126362 -0.07945,0.07945 7.257267,0.144452 16.303812,0.144452 9.800413,0 16.448263,-0.09809 16.448263,-0.242701 0,-0.263559 -1.478187,-0.878048 -3.571875,-1.484845 -1.199824,-0.347735 -1.224443,-0.369318 -0.264583,-0.231955 1.601515,0.229189 3.968749,1.24102 3.968749,1.696369 0,0.345873 -2.061787,0.403962 -16.453462,0.463566 -11.919362,0.04936 -16.503903,-0.01347 -16.636501,-0.228019 z m 2.03825,-0.785874 c 0.292162,-0.156361 1.742851,-0.57378 3.223751,-0.927599 1.480901,-0.353818 2.119944,-0.574721 1.420096,-0.490894 -2.17486,0.2605 -6.619022,1.613261 -5.523175,1.681202 0.191468,0.01187 0.587165,-0.106349 0.879328,-0.262709 z"
       id="path15967" />
    <path
       style="fill:#b2a49a;stroke-width:1.23592"
       d="m 62.301304,96.052077 c -0.226123,-0.365876 0.147842,-0.612746 1.980165,-1.307195 2.398247,-0.908933 4.737693,-1.277534 7.561883,-1.191444 2.163151,0.06594 2.33209,0.04678 0.926042,-0.105048 l -1.719792,-0.185701 2.182812,-0.04672 c 2.153343,-0.04609 2.598026,-0.269999 1.958197,-0.985993 -1.284062,-1.436913 -4.022789,-14.141978 -3.048471,-14.141978 0.960096,0 2.86049,2.633771 4.057645,5.623523 0.737252,1.841202 1.863397,5.953809 2.245645,8.200955 0.17172,1.009501 0.673963,1.389083 0.673963,0.509364 0,-0.773292 1.170077,-3.998869 2.265467,-6.245264 1.186331,-2.432894 3.87555,-5.492978 4.3821,-4.986428 0.543579,0.543579 -0.495764,4.705746 -2.594907,10.391599 -0.510381,1.382448 -1.065475,2.697971 -1.233542,2.923384 -0.168067,0.225413 -0.03769,0.129477 0.289736,-0.213192 0.327422,-0.342668 0.595313,-0.794988 0.595313,-1.005154 0,-0.427826 1.00367,-0.465358 3.439583,-0.128624 1.181926,0.163386 1.281301,0.211407 0.529167,0.255708 -0.637033,0.03752 -0.01773,0.245061 1.984374,0.664995 3.790365,0.795015 5.100303,1.161999 5.299775,1.484752 0.107329,0.173662 -5.215095,0.257164 -15.631182,0.245234 -8.686659,-0.0099 -15.858928,0.04691 -15.938376,0.126362 -0.07945,0.07945 7.257267,0.144452 16.303812,0.144452 9.800413,0 16.448263,-0.09809 16.448263,-0.242701 0,-0.263559 -1.478187,-0.878048 -3.571875,-1.484845 -1.199824,-0.347735 -1.224443,-0.369318 -0.264583,-0.231955 1.601515,0.229189 3.968749,1.24102 3.968749,1.696369 0,0.345873 -2.061787,0.403962 -16.453462,0.463566 -11.919362,0.04936 -16.503903,-0.01347 -16.636501,-0.228019 z m 2.03825,-0.785874 c 0.292162,-0.156361 1.742851,-0.57378 3.223751,-0.927599 1.480901,-0.353818 2.119944,-0.574721 1.420096,-0.490894 -2.17486,0.2605 -6.619022,1.613261 -5.523175,1.681202 0.191468,0.01187 0.587165,-0.106349 0.879328,-0.262709 z"
       id="path15953" />
    <path
       style="fill:#c3ab75;stroke-width:1.23592"
       d="m 71.914236,93.242077 c 0.475549,-0.05889 1.189924,-0.05767 1.5875,0.0027 0.397576,0.06037 0.0085,0.10855 -0.864634,0.107065 -0.873125,-0.0015 -1.198415,-0.05088 -0.722866,-0.109765 z"
       id="path15938" />
    <path
       style="fill:#c3ab75;stroke-width:1.23592"
       d="m 79.265685,95.04398 c -0.121805,-0.197083 -0.625526,-0.241888 -1.465992,-0.130397 -1.234555,0.16377 -1.295706,0.140306 -1.706949,-0.65495 -0.270748,-0.523569 -0.641462,-0.836014 -1.015041,-0.855497 -0.447839,-0.02336 -0.477837,-0.05962 -0.125497,-0.151692 0.254661,-0.06655 0.463021,-0.186804 0.463021,-0.267233 0,-0.08043 -0.409277,-1.173026 -0.909505,-2.427995 -1.539833,-3.863131 -3.171088,-12.46822 -2.363582,-12.46822 0.960096,0 2.86049,2.633771 4.057645,5.623523 0.737252,1.841202 1.863397,5.953809 2.245645,8.200955 0.09283,0.545703 0.252677,0.991286 0.355223,0.990183 0.102547,-0.0011 0.449139,-0.945359 0.770206,-2.09835 0.901827,-3.238573 2.583192,-6.446021 4.35525,-8.308272 1.172566,-1.232246 1.6074,-1.53934 1.844262,-1.302478 0.432076,0.432076 -0.313935,3.782147 -1.789502,8.036023 -0.63652,1.835007 -1.157309,3.406061 -1.157309,3.491232 0,0.08517 0.506015,0.202919 1.124479,0.261663 1.096101,0.104111 1.092758,0.106146 -0.132456,0.08064 -0.691315,-0.01439 -1.257453,0.0929 -1.258085,0.23842 -6.33e-4,0.145521 -0.268449,0.595782 -0.595148,1.000581 -0.646953,0.801612 -2.367248,1.274871 -2.696665,0.741862 z"
       id="path15936" />
    <path
       style="fill:#c3ab75;stroke-width:1.23592"
       d="m 63.935072,94.900619 c 0.452633,-0.208912 1.167007,-0.447604 1.587499,-0.530427 0.65424,-0.128863 0.630941,-0.09821 -0.16151,0.212479 -0.509323,0.199686 -1.223698,0.438378 -1.5875,0.530426 -0.497548,0.125889 -0.457526,0.07324 0.161511,-0.212478 z"
       id="path15935" />
    <path
       style="fill:#c3ab75;stroke-width:1.23592"
       d="m 78.788664,96.145844 c 9.058672,-0.0386 16.470312,-0.170155 16.470312,-0.292337 0,-0.122181 -0.267891,-0.351347 -0.595313,-0.509256 -0.327422,-0.15791 -0.46924,-0.295167 -0.315153,-0.305016 0.49619,-0.03172 1.261941,0.68578 1.067564,1.000288 -0.139517,0.225743 -4.453091,0.288107 -16.643025,0.240616 l -16.454696,-0.06411 z"
       id="path15932" />
    <path
       style="fill:#a8998f;stroke-width:1.23592"
       d="m 71.914236,93.242077 c 0.475549,-0.05889 1.189924,-0.05767 1.5875,0.0027 0.397576,0.06037 0.0085,0.10855 -0.864634,0.107065 -0.873125,-0.0015 -1.198415,-0.05088 -0.722866,-0.109765 z"
       id="path15914" />
    <path
       style="fill:#a8998f;stroke-width:1.23592"
       d="m 79.265685,95.04398 c -0.121805,-0.197083 -0.625526,-0.241888 -1.465992,-0.130397 -1.234555,0.16377 -1.295706,0.140306 -1.706949,-0.65495 -0.270748,-0.523569 -0.641462,-0.836014 -1.015041,-0.855497 -0.447839,-0.02336 -0.477837,-0.05962 -0.125497,-0.151692 0.254661,-0.06655 0.463021,-0.186804 0.463021,-0.267233 0,-0.08043 -0.409277,-1.173026 -0.909505,-2.427995 -1.539833,-3.863131 -3.171088,-12.46822 -2.363582,-12.46822 0.960096,0 2.86049,2.633771 4.057645,5.623523 0.737252,1.841202 1.863397,5.953809 2.245645,8.200955 0.09283,0.545703 0.252677,0.991286 0.355223,0.990183 0.102547,-0.0011 0.449139,-0.945359 0.770206,-2.09835 0.901827,-3.238573 2.583192,-6.446021 4.35525,-8.308272 1.172566,-1.232246 1.6074,-1.53934 1.844262,-1.302478 0.432076,0.432076 -0.313935,3.782147 -1.789502,8.036023 -0.63652,1.835007 -1.157309,3.406061 -1.157309,3.491232 0,0.08517 0.506015,0.202919 1.124479,0.261663 1.096101,0.104111 1.092758,0.106146 -0.132456,0.08064 -0.691315,-0.01439 -1.257453,0.0929 -1.258085,0.23842 -6.33e-4,0.145521 -0.268449,0.595782 -0.595148,1.000581 -0.646953,0.801612 -2.367248,1.274871 -2.696665,0.741862 z"
       id="path15912" />
    <path
       style="fill:#a8998f;stroke-width:1.23592"
       d="m 63.935072,94.900619 c 0.452633,-0.208912 1.167007,-0.447604 1.587499,-0.530427 0.65424,-0.128863 0.630941,-0.09821 -0.16151,0.212479 -0.509323,0.199686 -1.223698,0.438378 -1.5875,0.530426 -0.497548,0.125889 -0.457526,0.07324 0.161511,-0.212478 z"
       id="path15911" />
    <path
       style="fill:#a8998f;stroke-width:1.23592"
       d="m 78.788664,96.145844 c 9.058672,-0.0386 16.470312,-0.170155 16.470312,-0.292337 0,-0.122181 -0.267891,-0.351347 -0.595313,-0.509256 -0.327422,-0.15791 -0.46924,-0.295167 -0.315153,-0.305016 0.49619,-0.03172 1.261941,0.68578 1.067564,1.000288 -0.139517,0.225743 -4.453091,0.288107 -16.643025,0.240616 l -16.454696,-0.06411 z"
       id="path15908" />
    <path
       style="fill:#b5a172;stroke-width:1.23592"
       d="m 79.074666,94.863208 c -0.331194,-0.331194 -0.540179,-0.359834 -0.965344,-0.132292 -1.379303,0.738181 -1.751481,0.354162 -3.308493,-3.413754 -1.91038,-4.623052 -3.549716,-13.229166 -2.519959,-13.229166 0.576965,0 2.224302,2.079922 3.180149,4.015245 1.065506,2.157355 2.088774,5.357552 2.732212,8.544797 0.404574,2.004043 0.563432,2.484297 0.739153,2.234575 0.04267,-0.06063 0.340679,-1.031679 0.662251,-2.157878 0.912944,-3.197284 2.612499,-6.419769 4.348924,-8.245889 1.999353,-2.102629 2.327177,-1.862617 1.665684,1.219503 -0.503207,2.34461 -2.531279,8.443379 -3.337686,10.037007 -0.687074,1.3578 -2.372375,1.952368 -3.196891,1.127852 z"
       id="path15894" />
    <path
       style="fill:#87988a;stroke-width:1.23592"
       d="m 79.074666,94.863208 c -0.331194,-0.331194 -0.540179,-0.359834 -0.965344,-0.132292 -1.379303,0.738181 -1.751481,0.354162 -3.308493,-3.413754 -1.91038,-4.623052 -3.549716,-13.229166 -2.519959,-13.229166 0.576965,0 2.224302,2.079922 3.180149,4.015245 1.065506,2.157355 2.088774,5.357552 2.732212,8.544797 0.404574,2.004043 0.563432,2.484297 0.739153,2.234575 0.04267,-0.06063 0.340679,-1.031679 0.662251,-2.157878 0.912944,-3.197284 2.612499,-6.419769 4.348924,-8.245889 1.999353,-2.102629 2.327177,-1.862617 1.665684,1.219503 -0.503207,2.34461 -2.531279,8.443379 -3.337686,10.037007 -0.687074,1.3578 -2.372375,1.952368 -3.196891,1.127852 z"
       id="path15885" />
    <path
       style="fill:#df7453;stroke-width:1.23592"
       d="m 76.130675,94.029141 c -1.414261,-2.284964 -2.57047,-5.678398 -3.504589,-10.285847 -0.702202,-3.463541 -0.838217,-5.655298 -0.350954,-5.655298 0.643626,0 2.228848,2.097406 3.313157,4.383636 1.015347,2.140829 2.394308,6.818577 2.871237,9.739888 0.21672,1.327465 0.440977,1.03148 1.178791,-1.555816 0.860809,-3.018611 2.769336,-6.598696 4.43594,-8.321104 1.056041,-1.091401 1.469609,-1.367548 1.70122,-1.135937 0.688924,0.688924 -2.73165,11.795897 -4.073578,13.227353 -0.606026,0.646456 -2.244159,0.827826 -2.765767,0.306218 -0.20907,-0.209071 -0.438621,-0.209071 -0.829272,0 -0.906062,0.484909 -1.335431,0.332147 -1.976185,-0.703093 z"
       id="path15877" />
    <path
       style="fill:#799283;stroke-width:1.23592"
       d="m 76.130675,94.029141 c -1.414261,-2.284964 -2.57047,-5.678398 -3.504589,-10.285847 -0.702202,-3.463541 -0.838217,-5.655298 -0.350954,-5.655298 0.643626,0 2.228848,2.097406 3.313157,4.383636 1.015347,2.140829 2.394308,6.818577 2.871237,9.739888 0.21672,1.327465 0.440977,1.03148 1.178791,-1.555816 0.860809,-3.018611 2.769336,-6.598696 4.43594,-8.321104 1.056041,-1.091401 1.469609,-1.367548 1.70122,-1.135937 0.688924,0.688924 -2.73165,11.795897 -4.073578,13.227353 -0.606026,0.646456 -2.244159,0.827826 -2.765767,0.306218 -0.20907,-0.209071 -0.438621,-0.209071 -0.829272,0 -0.906062,0.484909 -1.335431,0.332147 -1.976185,-0.703093 z"
       id="path15869" />
    <path
       style="fill:#718a79;stroke-width:1.23592"
       d="M 76.128985,94.029141 C 74.25557,91.010642 71.975644,82.815312 71.975644,79.099705 c 0,-1.250103 0.346515,-1.279396 1.438458,-0.121598 1.823839,1.933833 3.635534,6.359639 4.670062,11.408543 0.567202,2.768168 0.682071,3.094223 0.877133,2.489735 0.06542,-0.202729 0.435904,-1.380629 0.823301,-2.617556 1.322559,-4.222825 4.383181,-8.995833 5.768446,-8.995833 0.562717,0 0.557203,0.175019 -0.0917,2.910416 -0.878043,3.701345 -1.867786,6.466433 -2.165395,6.049555 -0.192012,-0.268961 -0.216223,-0.233761 -0.09495,0.138047 0.207121,0.63502 -0.770787,3.283318 -1.50104,4.065002 -0.596329,0.638328 -2.239875,0.830172 -2.749151,0.320897 -0.189498,-0.189498 -0.497764,-0.189498 -0.996182,0 -1.06051,0.403205 -1.152317,0.36711 -1.825644,-0.717772 z m -1.232006,-4.18729 c -0.428417,-1.15311 -0.784729,-1.952202 -0.791804,-1.77576 -0.0071,0.176442 0.234481,1.00988 0.536793,1.852083 0.302311,0.842204 0.60277,1.697149 0.667686,1.899878 0.06492,0.202729 0.173882,0.312745 0.242147,0.24448 0.06826,-0.06827 -0.226405,-1.067572 -0.654822,-2.220681 z m 9.983283,-5.115594 c -0.04532,-0.231304 -0.363701,0.591478 -0.707503,1.828405 -0.916729,3.298193 -0.92107,3.616322 -0.01296,0.94972 0.441578,-1.296665 0.765786,-2.546821 0.720462,-2.778125 z m -11.435961,-0.025 c -0.356889,-1.381723 -0.652916,-2.274098 -0.657836,-1.983056 -0.0049,0.291042 0.22735,1.466978 0.516157,2.613192 0.288808,1.146213 0.534505,2.158244 0.545993,2.248958 0.01149,0.09071 0.07122,0.04528 0.132731,-0.100969 0.06151,-0.146247 -0.180156,-1.396403 -0.537045,-2.778125 z"
       id="path15855" />
    <path
       style="fill:#6c8676;stroke-width:1.23592"
       d="m 76.537329,94.690599 c -1.674105,-2.084561 -4.01739,-9.664016 -4.459965,-14.425949 -0.213859,-2.30104 0.106267,-2.593812 1.350661,-1.235251 1.867299,2.038615 3.825287,6.881694 4.746327,11.740029 0.441427,2.32845 0.588449,2.722087 0.786945,2.106957 0.06542,-0.202729 0.435904,-1.380629 0.823301,-2.617556 1.322559,-4.222825 4.383181,-8.995833 5.768446,-8.995833 0.592018,0 0.57222,0.235991 -0.31394,3.742086 -0.901511,3.566827 -2.79461,8.584251 -3.554565,9.420934 -0.580268,0.638853 -2.222947,0.831678 -2.733728,0.320897 -0.189498,-0.189498 -0.497764,-0.189498 -0.996182,0 -0.926082,0.352096 -1.094687,0.345397 -1.4173,-0.05631 z m -0.471602,-2.332834 c -0.107931,-0.174636 -0.221292,-0.730186 -0.251914,-1.234555 -0.03062,-0.504369 -0.222127,-1.033314 -0.425568,-1.175434 -0.266449,-0.186136 -0.282697,-0.294164 -0.0581,-0.386286 0.35536,-0.145754 -0.215932,-2.446545 -0.856663,-3.450084 -0.20211,-0.316551 -0.260935,-0.614207 -0.130724,-0.661458 0.130211,-0.04725 0.02152,-0.526002 -0.241544,-1.063891 -0.26306,-0.53789 -0.412367,-1.043905 -0.331793,-1.124479 0.08057,-0.08057 0.01924,-0.146499 -0.136299,-0.146499 -0.155539,0 -0.413508,-0.374954 -0.573264,-0.833232 -0.382624,-1.097596 -0.367216,-1.283435 0.106409,-1.283435 0.218281,0 0.410686,-0.208359 0.427567,-0.46302 0.02923,-0.440973 0.03645,-0.440973 0.151692,0 0.06655,0.254661 0.231332,0.46302 0.366183,0.46302 0.42519,0 0.25306,-0.364683 -0.686857,-1.455208 -0.881748,-1.023035 -0.913693,-1.036272 -0.957788,-0.396875 -0.02509,0.363802 -0.02691,0.840052 -0.0041,1.058333 0.02286,0.218282 0.0948,0.992188 0.15986,1.719792 0.223792,2.502701 2.331162,9.704558 3.118066,10.655873 0.336583,0.406906 0.601588,0.22531 0.324787,-0.222562 z m 8.89894,-7.487156 c 0.438178,-1.726594 0.738918,-3.197032 0.66831,-3.26764 -0.23612,-0.236121 -0.703826,0.221804 -0.523894,0.512939 0.09934,0.160732 0.05567,0.211896 -0.09917,0.1162 -0.301642,-0.186425 -1.960107,1.519215 -2.443699,2.513208 -0.286872,0.58965 -0.281683,0.59459 0.110455,0.105131 0.226309,-0.282475 0.411471,-0.371772 0.411471,-0.198438 0,0.173334 0.126089,0.315153 0.280198,0.315153 0.154109,0 0.211698,-0.110835 0.127976,-0.246301 -0.08372,-0.135465 -0.02928,-0.322286 0.120993,-0.415157 0.150268,-0.09287 0.212425,-0.267216 0.138127,-0.387433 -0.0743,-0.120217 0.05037,-0.289743 0.277037,-0.376724 0.226669,-0.08698 0.338021,-0.278051 0.247449,-0.424599 -0.09057,-0.146549 -0.05049,-0.266452 0.08906,-0.266452 0.368789,0 0.311432,1.80951 -0.06943,2.190372 -0.177744,0.177743 -0.336746,0.3827 -0.353338,0.455461 -0.134191,0.588441 -0.420947,1.03268 -0.596542,0.924157 -0.116702,-0.07213 -0.150221,0.105813 -0.07449,0.395418 0.07573,0.289606 0.243224,0.461337 0.3722,0.381626 0.334909,-0.206985 0.291442,0.187554 -0.162372,1.473799 -0.218281,0.618675 -0.391306,1.318253 -0.384499,1.554619 0.02284,0.792982 1.059912,-2.18634 1.864148,-5.355339 z"
       id="path15821" />
    <path
       style="fill:#627d70;stroke-width:1.23592"
       d="m 74.377782,84.393489 c -0.01149,-0.242759 -0.09316,-0.629712 -0.181488,-0.859895 -0.261306,-0.680954 0.889061,-0.514822 1.22422,0.176797 0.265245,0.54735 0.25749,0.556878 -0.09626,0.118268 -0.36235,-0.449274 -0.400489,-0.433872 -0.655166,0.264584 -0.151313,0.41498 -0.279618,0.547222 -0.291306,0.300246 z"
       id="path15749" />
    <path
       style="fill:#627d70;stroke-width:1.23592"
       d="m 75.67981,88.977333 c 0,-0.268261 -0.228274,-1.151237 -0.507276,-1.962169 -0.535882,-1.557569 -0.498484,-1.783419 0.295316,-1.783419 0.517491,0 1.025968,0.954624 0.810344,1.521355 -0.06921,0.181901 -0.0079,0.330729 0.136214,0.330729 0.322265,0 0.572439,1.194197 0.393512,1.878416 -0.171847,0.657142 -1.12811,0.669932 -1.12811,0.01509 z"
       id="path15748" />
    <path
       style="fill:#627d70;stroke-width:1.23592"
       d="m 75.724151,93.103099 c -1.064614,-1.94297 -2.072123,-4.809569 -2.812643,-8.002628 -0.753212,-3.247784 -0.391912,-2.677738 0.50244,0.792733 0.487515,1.891771 1.02297,3.79677 1.1899,4.233333 0.495151,1.294945 1.678723,3.571875 1.856698,3.571875 0.09077,0 0.190717,-0.327422 0.222101,-0.727604 0.03138,-0.400183 0.108922,-0.992992 0.172308,-1.317353 0.06338,-0.324362 0.0035,-0.658811 -0.133075,-0.743219 -0.136576,-0.08441 -0.24832,-0.272533 -0.24832,-0.418054 0,-0.145521 0.108893,-0.197283 0.241985,-0.115028 0.133092,0.08225 0.297494,-1.5e-5 0.365338,-0.182823 0.06919,-0.186431 0.254209,-0.0031 0.421366,0.417429 0.163907,0.412394 0.220163,0.888644 0.125013,1.058334 -0.120882,0.215579 -0.08329,0.226528 0.124771,0.03634 0.471118,-0.430636 -0.881138,-5.679119 -2.331912,-9.050806 -0.585516,-1.360774 -1.146354,-1.70171 -0.875919,-0.532475 0.135069,0.583973 0.128757,0.583046 -0.339146,-0.04984 -0.332081,-0.44917 -0.381389,-0.676679 -0.16247,-0.749652 0.172869,-0.05762 0.314308,-0.246314 0.314308,-0.419312 0,-0.502394 -1.603546,-2.308507 -1.891556,-2.130507 -0.153297,0.09474 -0.203984,0.889389 -0.122513,1.920687 0.113038,1.430883 0.09459,1.561626 -0.09886,0.700751 -0.314847,-1.401082 -0.327773,-2.974735 -0.02597,-3.161261 0.384776,-0.237805 1.785436,1.328805 2.78227,3.111912 1.162696,2.079798 2.660189,6.54375 3.157224,9.411535 0.36175,2.087218 0.754485,2.835776 1.308245,2.493533 0.131625,-0.08135 0.08586,-0.242746 -0.101688,-0.35866 -0.489126,-0.302297 0.294592,-2.884181 1.883616,-6.205392 1.280259,-2.675863 2.735706,-4.669478 3.782049,-5.180504 0.343342,-0.167686 0.169996,0.104335 -0.433665,0.680526 -0.553099,0.52793 -1.432601,1.627329 -1.954449,2.443108 -0.784242,1.225967 -0.896251,1.567405 -0.645769,1.968491 0.166675,0.266889 0.192897,0.485254 0.05827,0.485254 -0.134627,0 -0.292379,-0.142808 -0.35056,-0.317352 -0.06644,-0.19932 -0.169504,-0.151298 -0.27711,0.129118 -0.09423,0.245558 -0.08631,0.433798 0.01759,0.418311 0.922346,-0.137478 1.321033,0.07833 1.285406,0.695777 -0.02099,0.3637 -0.09769,0.661418 -0.170449,0.661596 -0.07276,1.79e-4 -0.139039,0.714638 -0.147287,1.587687 -0.0082,0.873049 0.06979,1.587362 0.173415,1.587362 0.294213,0 1.808981,-4.375333 2.423928,-7.001397 0.305394,-1.304155 0.601305,-2.233063 0.657579,-2.064241 0.352588,1.057767 -3.011157,10.67281 -4.074023,11.645326 -0.767171,0.701956 -2.331509,0.817003 -2.572426,0.189185 -0.140107,-0.365115 -0.235156,-0.365115 -0.941209,0 -0.431951,0.22337 -0.902,0.406127 -1.044554,0.406127 -0.142554,0 -0.732166,-0.863203 -1.310248,-1.918229 z m 4.454316,-1.921793 c 0.166562,-0.802325 0.389742,-1.405064 0.495955,-1.339421 0.106214,0.06564 0.204953,-0.298234 0.21942,-0.808617 0.01447,-0.510384 -0.01088,-0.88991 -0.05632,-0.843392 -0.210548,0.215535 -1.188965,3.435344 -1.188965,3.912689 0,0.955108 0.21965,0.57324 0.529907,-0.921259 z"
       id="path15745" />
    <path
       style="fill:#617c6d;stroke-width:1.23592"
       d="m 72.017987,79.653447 c -0.04353,-1.246689 0.115597,-1.66259 0.536575,-1.402411 0.142105,0.08783 0.13585,0.274782 -0.01529,0.45689 -0.140698,0.16953 -0.306018,0.724477 -0.36738,1.233215 -0.09894,0.820316 -0.116357,0.787762 -0.153909,-0.287694 z"
       id="path15689" />
    <path
       style="fill:#617c6d;stroke-width:1.23592"
       d="m 83.749601,82.610819 c 0.729695,-0.794455 1.719792,-1.517954 1.719792,-1.256713 0,0.06035 -0.565547,0.562244 -1.256771,1.115318 -1.210312,0.968416 -1.227428,0.973643 -0.463021,0.141395 z"
       id="path15688" />
    <path
       style="fill:#617c6d;stroke-width:1.23592"
       d="m 75.284152,82.324026 c -0.263152,-0.583566 -0.579439,-1.06103 -0.702859,-1.06103 -0.123419,0 -0.224399,-0.13759 -0.224399,-0.305755 0,-0.168165 -0.30968,-0.711767 -0.688178,-1.208003 -0.378498,-0.496236 -0.631498,-0.958927 -0.562223,-1.028203 0.139726,-0.139726 1.719172,2.178338 2.424795,3.558736 0.248668,0.486466 0.402444,0.934164 0.341723,0.994885 -0.06072,0.06072 -0.325707,-0.367063 -0.588859,-0.95063 z"
       id="path15687" />
    <path
       style="fill:#617c6d;stroke-width:1.23592"
       d="m 83.770482,89.134349 c 0.507864,-1.601094 1.133168,-3.210971 1.150412,-2.961791 0.02644,0.382001 -1.056667,3.557104 -1.213412,3.557104 -0.06921,0 -0.04086,-0.267891 0.063,-0.595313 z"
       id="path15685" />
    <path
       style="fill:#617c6d;stroke-width:1.23592"
       d="m 74.419354,90.206689 c -0.435309,-1.20825 -0.869371,-2.613537 -0.964583,-3.12286 -0.09521,-0.509323 0.29761,0.442585 0.872938,2.115352 0.575327,1.672766 1.009389,3.078054 0.964583,3.12286 -0.04481,0.04481 -0.437629,-0.907101 -0.872938,-2.115352 z"
       id="path15682" />
    <path
       style="fill:#617c6d;stroke-width:1.23592"
       d="m 79.119393,92.434301 c 0,-1.152927 2.554163,-7.162331 3.567334,-8.39318 0.23957,-0.291042 0.0025,0.271769 -0.526914,1.250691 -0.529374,0.978922 -0.875852,1.920053 -0.769953,2.091401 0.107806,0.174434 0.07926,0.24153 -0.06486,0.152458 -0.200503,-0.123918 -0.814196,1.034475 -1.022161,1.929408 -0.192571,0.828689 -0.983242,3.174999 -1.069926,3.174999 -0.06244,0 -0.113518,-0.0926 -0.113518,-0.205777 z"
       id="path15680" />
    <path
       style="fill:#617c6d;stroke-width:1.23592"
       d="m 79.17231,94.703828 c -0.174625,-0.174625 -0.3175,-0.472281 -0.3175,-0.661458 0,-0.189177 -0.119062,-0.343958 -0.264583,-0.343958 -0.145521,0 -0.264584,-0.185621 -0.264584,-0.41249 0,-0.22687 -0.09149,-0.355947 -0.203307,-0.28684 -0.111818,0.06911 -0.164896,-0.310818 -0.117949,-0.84428 0.04695,-0.533463 -0.222313,-2.101026 -0.598353,-3.483473 -0.37604,-1.382448 -0.742227,-2.811198 -0.813748,-3.175 l -0.130039,-0.661458 0.294486,0.661458 c 0.493638,1.108785 1.56891,5.568374 1.56891,6.506908 0,1.03647 0.762693,1.629293 1.52486,1.185239 0.252733,-0.147248 0.374055,-0.271344 0.269604,-0.275769 -0.104452,-0.0044 -0.09088,-0.275936 0.03015,-0.603358 0.235277,-0.636472 1.262192,-0.883909 1.262192,-0.304127 0,0.190848 -0.09922,0.285675 -0.220486,0.210728 -0.121268,-0.07495 -0.220486,0.227946 -0.220486,0.673097 0,0.621952 -0.122532,0.817023 -0.529167,0.842438 -1.255134,0.07844 -1.506734,0.278745 -0.940467,0.748705 0.315118,0.261524 0.553903,0.257787 1.177937,-0.01844 0.430484,-0.190551 0.713358,-0.458651 0.628609,-0.595779 -0.08475,-0.137127 -0.0297,-0.172444 0.122334,-0.07848 0.152033,0.09396 0.473671,-0.24483 0.714752,-0.752869 0.550574,-1.160248 0.737673,-1.192367 0.371728,-0.06381 -0.535171,1.650442 -2.44037,2.637543 -3.344893,1.73302 z"
       id="path15676" />
    <path
       style="fill:#617c6d;stroke-width:1.23592"
       d="m 76.47356,94.492162 c -0.167496,-0.31297 -0.180308,-0.529167 -0.03136,-0.529167 0.138515,0 0.311898,0.148828 0.385296,0.330729 0.0734,0.181901 0.142852,-0.0492 0.154341,-0.513552 0.01149,-0.464354 0.11176,-0.900442 0.222825,-0.969084 0.111065,-0.06864 0.182317,0.292339 0.158338,0.802182 -0.03882,0.825381 0.0188,0.911293 0.525666,0.783807 0.553756,-0.139278 0.555273,-0.132724 0.05568,0.240536 -0.701866,0.524381 -1.135237,0.481523 -1.470784,-0.145451 z"
       id="path15675" />
    <path
       style="fill:#5b796a;stroke-width:1.23592"
       d="m 71.975644,79.602916 c 0,-0.670509 0.104193,-1.283502 0.231541,-1.362207 0.213252,-0.131797 0.0852,2.221656 -0.134454,2.471071 -0.0534,0.06063 -0.09709,-0.438355 -0.09709,-1.108864 z"
       id="path15612" />
    <path
       style="fill:#5b796a;stroke-width:1.23592"
       d="m 77.064151,87.296648 c -0.330018,-1.17901 -0.556294,-2.187394 -0.502835,-2.240853 0.144749,-0.144749 1.292954,3.841058 1.190713,4.133364 -0.04831,0.138129 -0.357859,-0.7135 -0.687878,-1.892511 z"
       id="path15602" />
    <path
       style="fill:#5b796a;stroke-width:1.23592"
       d="m 83.770482,89.134349 c 0.507864,-1.601094 1.133168,-3.210971 1.150412,-2.961791 0.02644,0.382001 -1.056667,3.557104 -1.213412,3.557104 -0.06921,0 -0.04086,-0.267891 0.063,-0.595313 z"
       id="path15601" />
    <path
       style="fill:#5b796a;stroke-width:1.23592"
       d="m 79.268948,92.110912 c 0.622166,-2.701366 2.324961,-6.729747 3.411099,-8.069791 0.235896,-0.291042 -0.103089,0.482864 -0.7533,1.719791 -0.650211,1.236927 -1.436823,3.082396 -1.748028,4.101042 -0.626599,2.051002 -1.178264,3.414722 -0.909771,2.248958 z"
       id="path15596" />
    <path
       style="fill:#5b796a;stroke-width:1.23592"
       d="m 80.341496,92.988521 c 0.249341,-1.37503 0.613327,-1.617667 0.621935,-0.414588 0.0058,0.803806 -0.100136,1.124479 -0.371309,1.124479 -0.267142,0 -0.341276,-0.209983 -0.250626,-0.709891 z"
       id="path15594" />
    <path
       style="fill:#5b796a;stroke-width:1.23592"
       d="m 79.17231,94.703828 c -0.174625,-0.174625 -0.313713,-0.442515 -0.309085,-0.595312 0.0046,-0.152797 0.179877,-0.05127 0.389443,0.225614 0.32106,0.424195 0.517534,0.462397 1.248356,0.242729 0.47703,-0.143384 0.834612,-0.408542 0.794626,-0.589239 -0.03999,-0.180698 0.04366,-0.256627 0.185874,-0.168733 0.142217,0.0879 0.438056,-0.171146 0.657421,-0.575646 0.527633,-0.972934 0.537123,-0.53873 0.01048,0.479677 -0.58754,1.136177 -2.268127,1.689902 -2.977119,0.98091 z"
       id="path15592" />
    <path
       style="fill:#5b796a;stroke-width:1.23592"
       d="m 76.439552,94.426016 c -0.287267,-0.539118 -0.275802,-0.561155 0.121462,-0.233448 0.252556,0.208335 0.745883,0.303137 1.162765,0.223445 0.677107,-0.129438 0.691093,-0.114289 0.215534,0.233448 -0.71827,0.525212 -1.133833,0.463298 -1.499761,-0.223445 z"
       id="path15591" />
  </g>
</svg>
