<?xml version="1.0" encoding="UTF-8" standalone="no"?>
<!-- Created with Inkscape (http://www.inkscape.org/) -->

<svg
   width="64.41539mm"
   height="58.992348mm"
   viewBox="0 0 64.41539 58.992348"
   version="1.1"
   id="svg1"
   xmlns="http://www.w3.org/2000/svg"
   xmlns:svg="http://www.w3.org/2000/svg">
  <defs
     id="defs1" />
  <g
     id="layer1"
     transform="translate(-55.297918,-112.44792)">
    <g
       id="g5275"
       transform="translate(13.172969,258.56617)">
      <path
         style="fill:#ece6d7"
         d="m 40.852781,-87.320898 c -0.08405,-0.136002 -4.14e-4,-0.373766 0.185866,-0.528365 0.483078,-0.400919 4.744751,-1.785984 6.931524,-2.252781 6.367993,-1.359334 7.540625,-1.638724 7.540625,-1.796621 0,-0.29922 -2.772235,-2.034601 -5.294317,-3.314167 -1.707413,-0.866249 -2.380001,-1.342886 -2.322644,-1.645968 0.112401,-0.593936 1.5639,-0.6703 3.800244,-0.199931 3.077051,0.647194 4.659793,1.347463 8.446925,3.737257 0.79209,0.499833 0.791813,0.498773 -0.132292,-0.507051 -0.509323,-0.554363 -1.50228,-1.469653 -2.206571,-2.033978 -1.056929,-0.846882 -1.486577,-1.026046 -2.460535,-1.026046 -0.649003,0 -1.561046,-0.208359 -2.026762,-0.463021 l -0.846756,-0.46302 1.322916,-0.08202 c 1.686464,-0.104559 2.002156,-0.419834 0.960014,-0.958746 -1.216524,-0.629089 -2.679805,-1.993994 -2.679805,-2.499644 0,-0.74714 0.761118,-1.57995 1.524242,-1.66782 0.698747,-0.0804 0.72172,-0.13267 0.64112,-1.45729 -0.133797,-2.1989 0.63893,-3.01043 1.975249,-2.07444 0.304804,0.2135 1.13492,0.51832 1.844703,0.67738 1.384486,0.31027 2.388405,1.06166 2.782348,2.08247 0.219144,0.56786 0.278702,0.58921 0.567241,0.20338 0.177313,-0.23711 0.452091,-0.34403 0.610616,-0.2376 0.158526,0.10642 1.150056,1.87906 2.2034,3.9392 1.053344,2.060138 2.114266,3.930359 2.357605,4.156049 0.243338,0.225689 0.965863,0.861662 1.60561,1.413273 1.350698,1.164616 1.354206,1.233615 -0.135286,-2.660848 -0.49258,-1.287911 -0.895599,-2.501275 -0.895599,-2.696364 0,-1.17875 1.48994,-0.41465 3.116355,1.598207 0.985115,1.219179 1.723343,2.522937 2.921526,5.159604 0.244339,0.537681 0.27375,0.290125 0.157171,-1.322917 -0.16609,-2.29811 -0.862613,-7.455754 -1.029399,-7.622544 -0.06238,-0.0624 -0.599047,-0.13697 -1.192591,-0.16575 -0.637717,-0.0309 -1.265199,-0.2471 -1.53393,-0.52845 -0.435108,-0.45554 -0.411886,-0.46855 0.53743,-0.30103 1.325348,0.23388 1.263118,-0.169 -0.154422,-0.99973 -1.405257,-0.82354 -3.011659,-2.559 -3.250856,-3.51204 -0.131881,-0.52545 0.0706,-1.20898 0.787035,-2.65688 0.530529,-1.07218 0.964597,-2.12604 0.964597,-2.34191 0,-0.44574 0.415388,-0.52607 0.661459,-0.12792 0.255801,0.4139 1.644718,0.31269 1.815472,-0.13229 0.08376,-0.21828 0.272542,-0.39687 0.41951,-0.39687 0.173612,0 0.16567,0.22287 -0.02267,0.63623 -0.263226,0.57772 -0.1532,0.77292 1.196297,2.12242 0.817402,0.8174 1.486185,1.60266 1.486185,1.74502 0,0.14235 0.15667,0.25883 0.348155,0.25883 0.607453,0 1.549521,-2.06608 1.700309,-3.729 0.07868,-0.86774 0.234536,-1.63424 0.346339,-1.70334 0.819998,-0.50678 1.914126,1.33059 1.914126,3.2144 0,1.22438 -0.178215,1.7071 -1.360715,3.68568 -1.659146,2.77612 -1.730733,3.19806 -0.437995,2.5816 1.878793,-0.89593 1.516311,0.33947 -0.489802,1.66934 -0.683563,0.45313 -1.296969,0.87801 -1.363125,0.94416 -0.137444,0.13745 0.588217,4.460445 0.781113,4.653341 0.06967,0.06967 0.418655,-0.533535 0.775517,-1.340462 1.188442,-2.687279 4.466668,-6.505899 5.308037,-6.183039 0.228548,0.0877 0.415541,0.32615 0.415541,0.52989 0,0.20374 -0.70224,2.14224 -1.560534,4.307784 -0.858294,2.165544 -1.638369,4.235008 -1.733502,4.59881 -0.164486,0.629023 -0.143928,0.622536 0.419221,-0.132291 0.325704,-0.436563 1.084565,-1.27 1.686358,-1.852083 0.601793,-0.582084 1.657773,-1.935464 2.346622,-3.00751 1.233217,-1.91924 1.2441,-1.95503 0.708602,-2.33011 -0.56319,-0.39447 -0.727712,-0.88009 -0.298166,-0.88009 0.135126,0 0.424278,0.1786 0.642559,0.39688 0.218282,0.21828 0.464911,0.39687 0.548066,0.39687 0.39207,0 0.07236,-1.43197 -0.67746,-3.03429 -1.11131,-2.37481 -1.232842,-3.65687 -0.506669,-5.3449 0.518553,-1.20541 1.973444,-2.71254 2.301669,-2.38432 0.07205,0.0721 -0.05637,0.49334 -0.285382,0.9362 -0.229011,0.44286 -0.416384,0.91024 -0.416384,1.03862 0,0.27163 6.138544,0.21936 6.584187,-0.0561 0.407122,-0.25162 1.272092,0.0494 1.446271,0.50328 0.07801,0.20331 -0.0477,1.03594 -0.279369,1.85031 -0.397082,1.39584 -0.393993,1.50057 0.05391,1.82808 1.194875,0.87371 -0.593904,2.80482 -3.620213,3.90827 -0.855362,0.31188 -1.618104,0.66883 -1.694983,0.79323 -0.229685,0.37164 2.354759,0.25602 3.752004,-0.16785 1.72333,-0.52279 1.868333,-0.50294 1.273683,0.1743 -0.497229,0.56628 -0.496889,0.57116 0.02514,0.36123 2.867231,-1.153 4.734723,-1.46944 4.975104,-0.84302 0.116126,0.30262 -0.511028,0.92409 -2.2751,2.25447 -2.527909,1.906443 -7.798184,7.06309 -7.511611,7.349663 0.09,0.09 0.60847,-0.226951 1.152168,-0.704324 2.209202,-1.939706 6.5535,-3.232322 9.410965,-2.80017 1.348707,0.203973 2.116453,0.745013 1.890973,1.332595 -0.0771,0.200979 -0.994797,0.571619 -2.039277,0.823644 -2.013184,0.485766 -3.858143,1.302132 -4.944288,2.187771 -0.803817,0.65543 -1.17527,0.512636 4.922707,1.892373 4.741368,1.072789 8.630968,2.165249 9.335068,2.621914 0.20055,0.130069 0.29685,0.346156 0.21401,0.480194 -0.20467,0.331156 -66.758487,0.453099 -66.96269,0.122692 z m 48.884597,-12.894652 c 1.363135,-0.91162 2.171775,-1.60248 1.932095,-1.65067 -0.226708,-0.0456 -0.635971,0.0369 -0.909472,0.18326 -0.273501,0.14637 -1.39716,0.34768 -2.497019,0.44735 l -1.999744,0.18121 -1.172573,2.016779 c -0.644915,1.109229 -1.328247,2.373968 -1.518515,2.810531 -1.200789,2.755169 -1.229698,2.752754 1.347811,0.112586 1.41011,-1.44439 3.480764,-3.207127 4.817417,-4.101046 z M 62.8386,-96.884115 c -0.368839,-0.740165 -0.746761,-1.222551 -0.839826,-1.071969 -0.09306,0.150582 -0.400307,0.273785 -0.68276,0.273785 -0.282454,0 -0.513552,0.107655 -0.513552,0.239234 0,0.268781 2.457165,2.154296 2.609246,2.002215 0.05363,-0.05363 -0.204268,-0.7031 -0.573108,-1.443265 z m -1.549582,-2.618333 c 0.26835,-0.170091 0.307254,-0.600792 0.160422,-1.776002 -0.213105,-1.70563 -0.449957,-1.47021 -0.78786,0.78309 -0.182534,1.21722 -0.0521,1.42363 0.627438,0.992912 z"
         id="path4738" />
      <path
         style="fill:#d9d4c9"
         d="m 63.634511,-87.26553 c -0.07156,-0.07156 -4.975234,-0.121225 -10.897061,-0.110375 -8.562716,0.01569 -10.745553,-0.04874 -10.662403,-0.314689 0.159644,-0.510611 4.05329,-1.694261 9.060008,-2.754198 2.479418,-0.524901 4.610458,-1.0477 4.735644,-1.161778 0.348804,-0.31785 -2.042484,-1.964794 -5.056257,-3.482379 -1.491589,-0.751089 -2.711979,-1.522794 -2.711979,-1.714901 0,-0.86466 4.867706,-0.0648 7.937499,1.30429 0.800365,0.356953 2.27113,1.210081 3.268367,1.895842 0.997237,0.68576 1.890206,1.166763 1.984375,1.068896 0.233658,-0.242833 -4.060907,-4.250282 -5.000496,-4.666184 -0.49187,-0.217723 -0.736084,-0.509893 -0.701762,-0.839563 0.03463,-0.332653 -0.264162,-0.683005 -0.8734,-1.024108 -1.384129,-0.774952 -2.38125,-1.817013 -2.38125,-2.488583 0,-0.69062 0.908922,-1.42071 1.768708,-1.42071 0.569257,0 0.58632,-0.0676 0.43261,-1.71363 -0.201882,-2.1619 0.148881,-2.38474 2.154893,-1.36901 0.76186,0.38577 1.650354,0.70139 1.974431,0.70139 0.324076,0 0.949643,0.36042 1.390148,0.80092 l 0.800919,0.80092 -0.185714,2.34644 c -0.167411,2.115182 -0.137527,2.375239 0.303208,2.638664 0.462342,0.276339 0.46375,0.307323 0.0259,0.569956 -0.254662,0.152751 -0.463021,0.431303 -0.463021,0.619002 0,0.335973 3.135564,2.935064 3.319266,2.751362 0.05187,-0.05187 -0.360488,-1.120817 -0.916355,-2.375435 -1.425713,-3.217899 -1.957767,-6.299739 -1.087597,-6.299739 0.124163,0 1.023937,1.51804 1.999497,3.37344 1.911386,3.635202 2.660102,4.829071 3.256586,5.192795 0.209133,0.127525 0.85967,0.663306 1.445636,1.190624 l 1.065394,0.958762 -0.196654,-0.79375 c -0.10816,-0.436563 -0.603894,-1.881787 -1.101631,-3.211611 -1.425673,-3.80903 -1.159301,-4.18569 1.225688,-1.733186 1.320579,1.357963 2.910696,4.042947 3.542237,5.981227 0.377171,1.157584 0.58859,-0.131077 0.387078,-2.359347 -0.387431,-4.284123 -0.839303,-6.765764 -1.350222,-7.415284 -0.269459,-0.34257 -1.313434,-1.17031 -2.319945,-1.83944 -3.148023,-2.0928 -3.516746,-3.36025 -1.83014,-6.29093 0.857863,-1.49063 0.896058,-1.51913 1.811977,-1.35175 1.095017,0.2001 2.55695,1.2816 3.723594,2.7546 0.455614,0.57526 0.907681,1.04512 1.004594,1.04412 0.449965,-0.005 1.418576,-1.94103 1.726832,-3.45222 0.187877,-0.92104 0.455046,-1.71244 0.593711,-1.75866 0.493118,-0.16438 1.262606,1.60183 1.243706,2.85467 -0.01496,0.9919 -0.330343,1.78822 -1.636321,4.13168 -1.842518,3.30623 -2.106211,4.46129 -1.629468,7.137595 0.543573,3.051468 0.489627,3.035002 1.77966,0.5432 0.675783,-1.30533 1.855704,-3.014375 2.769966,-4.012125 2.510925,-2.74024 2.990511,-2.24753 1.408968,1.44751 -1.145602,2.676525 -2.508975,6.506442 -2.508975,7.048082 0,0.221105 0.535385,-0.31021 1.189744,-1.1807 0.654359,-0.870489 1.468249,-1.765192 1.808644,-1.988228 0.340395,-0.223035 1.144464,-1.260804 1.786819,-2.306152 0.642355,-1.045342 1.391784,-2.253822 1.665398,-2.685492 l 0.49748,-0.78487 -0.998701,-2.47117 c -1.097155,-2.71479 -1.150084,-3.99847 -0.221649,-5.37566 l 0.483719,-0.71752 0.09098,0.62049 c 0.07263,0.49535 0.206665,0.58801 0.664586,0.45944 1.353671,-0.38009 2.778436,-0.46071 3.291278,-0.18625 0.418982,0.22423 0.956229,0.18622 2.281827,-0.16146 2.348791,-0.61604 2.548284,-0.41068 1.913885,1.97014 -0.438893,1.64711 -0.441292,1.79519 -0.03391,2.09308 0.934402,0.68325 -0.616836,2.1914 -3.592337,3.49256 -1.617647,0.70738 -2.137964,1.09482 -2.948941,2.19583 -1.022572,1.38829 -4.022434,7.276506 -4.296793,8.433872 -0.153461,0.647364 -0.143964,0.644982 0.445691,-0.111792 3.378926,-4.336579 6.600181,-7.095194 10.456902,-8.95507 2.391259,-1.15316 4.565381,-1.59767 4.565381,-0.9334 0,0.21302 -0.684609,0.85309 -1.521354,1.42238 -2.568673,1.74762 -9.394047,8.598592 -8.979483,9.013156 0.08223,0.08223 0.841447,-0.41682 1.687151,-1.108998 0.845705,-0.692177 2.430614,-1.686956 3.52202,-2.210619 1.87398,-0.899147 2.132945,-0.952115 4.654971,-0.952115 1.88388,0 2.800661,0.107769 3.112116,0.365834 0.652956,0.54103 0.160189,0.949572 -1.612399,1.336782 -2.528277,0.552287 -6.322871,2.643423 -5.734022,3.159923 0.132436,0.116165 1.55048,0.4777 3.151209,0.803412 5.683318,1.156428 11.266358,2.735049 10.915118,3.086284 -0.0673,0.06725 -9.575348,0.185533 -21.12911,0.262846 -11.553762,0.07731 -21.144028,0.185704 -21.311702,0.240868 -0.167674,0.05517 -0.363408,0.04175 -0.434964,-0.0298 z"
         id="path5273" />
      <path
         style="fill:#d1c6b0"
         d="m 61.021005,-87.497784 c -0.09027,-0.09027 -4.224498,-0.153777 -9.187169,-0.141122 -8.76601,0.02235 -10.193148,-0.108493 -8.163144,-0.748427 1.318064,-0.415503 7.201192,-1.80032 9.755434,-2.296311 2.767917,-0.537483 3.113839,-0.707647 2.628172,-1.29284 -0.467662,-0.563498 -3.694162,-2.544615 -5.901314,-3.623492 -2.765867,-1.351981 -2.232207,-1.880359 1.213098,-1.201092 2.963542,0.584284 5.107588,1.476244 7.708658,3.206937 2.304791,1.533555 2.521472,1.637042 2.521472,1.204261 0,-0.565492 -3.512084,-3.871925 -5.509957,-5.187319 -0.0473,-0.03114 -0.116771,-0.275891 -0.154381,-0.543886 -0.03761,-0.267996 -0.423436,-0.665859 -0.857391,-0.88414 -3.053638,-1.535995 -3.612912,-3.412125 -1.135258,-3.808315 0.89979,-0.14388 1.06035,-0.2556 0.906423,-0.63067 -0.431826,-1.05222 -0.451985,-2.59117 -0.03844,-2.93439 0.344776,-0.28614 0.68381,-0.18854 2.104074,0.60572 0.93119,0.52075 1.931067,0.94682 2.221951,0.94682 0.775447,0 1.50029,0.94193 1.480848,1.92436 -0.0093,0.46957 -0.0771,1.93521 -0.150683,3.25697 l -0.133787,2.403204 1.757778,1.349982 c 0.966778,0.742491 1.790677,1.258993 1.830887,1.147783 0.04021,-0.11121 -0.415616,-1.420354 -1.012947,-2.909208 -1.086497,-2.708111 -1.653988,-5.585591 -1.101578,-5.585591 0.154866,0 1.094257,1.57459 2.087537,3.499081 1.530257,2.964896 2.088709,3.772393 3.658046,5.289369 1.018646,0.984659 1.943648,1.791323 2.055561,1.792587 0.295245,0.0033 -0.0145,-1.131953 -1.046094,-3.834161 -1.253619,-3.283795 -1.259548,-3.307291 -0.834614,-3.307291 1.082797,0 3.551803,3.161143 4.718407,6.04112 0.393023,0.970248 0.82204,1.704557 0.953371,1.631796 0.330751,-0.183242 0.184326,-3.532663 -0.306516,-7.011458 -0.463815,-3.287253 -0.477626,-3.309403 -3.216027,-5.159373 -2.046723,-1.3827 -2.809158,-2.31031 -2.809158,-3.41775 0,-1.06062 1.272599,-2.8417 2.419175,-3.38578 0.883695,-0.41934 0.970375,-0.41462 1.877432,0.10228 0.523029,0.29805 1.423016,1.1657 1.999969,1.92812 l 1.049007,1.3862 0.842966,-0.91983 c 0.56182,-0.61305 0.95401,-1.41603 1.175909,-2.40758 0.353472,-1.57948 0.590407,-1.8033 1.033177,-0.97597 0.676598,1.26423 0.340412,2.69026 -1.479291,6.27485 l -1.76627,3.47933 0.47365,2.943969 c 0.260507,1.619181 0.549573,2.990889 0.642369,3.048239 0.0928,0.05735 0.693378,-0.920342 1.334628,-2.172651 1.284065,-2.507677 4.261771,-5.959837 4.732495,-5.486557 0.174706,0.17566 -0.221583,1.4651 -1.179073,3.83646 -2.371882,5.874302 -2.872488,8.222285 -1.196041,5.609768 0.475933,-0.741676 1.303438,-1.744578 1.8389,-2.228671 1.258237,-1.137528 4.280859,-5.679027 4.280859,-6.432007 0,-0.31903 -0.357188,-1.36782 -0.79375,-2.33064 -0.464975,-1.02548 -0.79375,-2.1964 -0.79375,-2.82689 0,-1.03991 0.04699,-1.0982 1.389062,-1.72302 1.494678,-0.69587 3.074808,-0.84467 3.582157,-0.33732 0.243016,0.24302 0.710999,0.1746 2.057731,-0.30084 1.54568,-0.54567 1.787923,-0.57065 2.13811,-0.22046 0.350187,0.35019 0.345009,0.56666 -0.0457,1.91065 -0.260639,0.89657 -0.3736,1.87302 -0.276536,2.39042 0.142714,0.76073 0.0512,0.96981 -0.702343,1.60452 -0.476542,0.4014 -1.798305,1.15002 -2.93725,1.6636 l -2.070811,0.93378 -1.543938,2.611386 c -1.683759,2.847872 -3.803848,7.455419 -3.647002,7.925956 0.05409,0.162262 0.531375,-0.307732 1.06064,-1.044431 3.23189,-4.498555 8.239902,-8.335941 12.707187,-9.736871 2.384925,-0.7479 2.434735,-0.21042 0.138281,1.49214 -3.437143,2.54826 -9.343746,8.660052 -8.848209,9.155588 0.08548,0.08548 1.022716,-0.508457 2.082748,-1.319859 3.218774,-2.463811 6.495401,-3.609121 9.271716,-3.24083 2.678532,0.355319 2.778182,0.951237 0.262385,1.569136 -0.982265,0.241252 -2.38125,0.72967 -3.108854,1.085373 -1.547445,0.756498 -3.255466,2.122459 -2.991184,2.392148 0.101099,0.103167 0.934536,0.33566 1.852083,0.516651 5.715903,1.127494 11.517142,2.683948 11.196332,3.00394 -0.0992,0.09895 -3.47423,0.192242 -7.500055,0.207317 -4.025822,0.01507 -13.871308,0.111097 -21.878859,0.213385 -8.007551,0.102287 -14.633043,0.112119 -14.723314,0.02185 z"
         id="path5259" />
      <path
         style="fill:#c8b3ca"
         d="m 49.689963,-88.446652 c 0,-0.159145 0.238125,-0.351625 0.529166,-0.427734 0.291042,-0.07611 0.529167,-0.292528 0.529167,-0.480931 0,-0.555483 1.867602,-0.329794 2.976562,0.359702 0.545704,0.33929 0.992188,0.666712 0.992188,0.727604 0,0.06089 -1.131094,0.110712 -2.513542,0.110712 -1.642753,0 -2.513541,-0.100243 -2.513541,-0.289353 z"
         id="path5238" />
      <path
         style="fill:#c8b3ca"
         d="m 60.405587,-87.788671 c -0.727604,-0.189445 -1.538723,-0.474608 -1.802486,-0.633697 -0.263764,-0.159089 -0.727679,-0.210505 -1.030924,-0.114259 -0.455372,0.144529 -0.527423,0.08348 -0.413884,-0.350694 0.122465,-0.468306 0.03283,-0.511915 -0.821159,-0.399509 -0.527246,0.0694 -1.110335,0.249836 -1.295753,0.400974 -0.185418,0.151139 -0.423543,0.185284 -0.529167,0.07588 -0.105623,-0.109405 0.07585,-0.379018 0.403269,-0.599142 0.327422,-0.220123 0.595313,-0.609941 0.595313,-0.866261 0,-0.25632 0.238125,-0.528307 0.529166,-0.604416 0.291042,-0.07611 0.529167,-0.330524 0.529167,-0.565367 0,-0.488739 -2.947467,-2.485832 -5.924503,-4.01422 -1.1059,-0.56776 -2.011238,-1.121589 -2.011862,-1.230729 -0.0019,-0.328401 2.171433,-0.223835 3.717492,0.178862 2.645857,0.689159 4.40597,1.477131 6.638835,2.972094 1.215635,0.8139 2.359074,1.537078 2.540975,1.607062 1.27389,0.490108 -1.50761,-2.742086 -4.043066,-4.698176 -0.764942,-0.590148 -1.450004,-1.299382 -1.522361,-1.576075 -0.07236,-0.276692 -0.531494,-0.671133 -1.020305,-0.876534 -1.077887,-0.452936 -2.608538,-1.842872 -2.608538,-2.368732 0,-0.57594 0.827856,-1.20258 1.719792,-1.30178 0.620747,-0.069 0.776934,-0.20362 0.716597,-0.61745 -0.366745,-2.5154 -0.364876,-2.67586 0.03503,-3.00775 0.344776,-0.28614 0.68381,-0.18854 2.104074,0.60572 0.93119,0.52075 1.931067,0.94682 2.221951,0.94682 0.779699,0 1.501244,0.94164 1.474572,1.92436 -0.07608,2.80314 -0.24193,4.863033 -0.413627,5.137354 -0.198962,0.317884 3.202328,3.257037 3.769157,3.257037 0.371752,0 0.41689,0.153641 -0.772256,-2.62859 -1.018076,-2.38198 -1.823859,-5.432701 -1.516195,-5.740361 0.325661,-0.32566 0.76064,0.31465 2.470466,3.636685 0.9771,1.898414 2.083189,3.725324 2.457973,4.0598 0.374785,0.334476 1.246974,1.114026 1.938198,1.732333 1.121575,1.00326 1.256771,1.062349 1.256771,0.549286 0,-0.3162 -0.487429,-1.875406 -1.083175,-3.464902 -0.595746,-1.589496 -1.027192,-3.042591 -0.958769,-3.229101 0.249745,-0.680761 2.986785,2.528464 4.018856,4.712177 0.54392,1.150855 1.074274,2.263972 1.178565,2.473592 0.104291,0.20962 0.349032,0.434265 0.543868,0.49921 0.440072,0.146691 0.229316,-4.032884 -0.396282,-7.858815 -0.447877,-2.739045 -0.317314,-2.558665 -3.32608,-4.595225 -1.952542,-1.32162 -2.711011,-2.25982 -2.711011,-3.35342 0,-1.06062 1.272599,-2.8417 2.419175,-3.38578 0.883695,-0.41934 0.970375,-0.41462 1.877432,0.10228 0.523029,0.29805 1.423016,1.1657 1.999969,1.92812 l 1.049007,1.3862 0.842966,-0.91983 c 0.56182,-0.61305 0.95401,-1.41603 1.175909,-2.40758 0.353472,-1.57948 0.590407,-1.8033 1.033177,-0.97597 0.661302,1.23565 0.326193,2.83198 -1.212146,5.77418 -0.817321,1.56319 -1.591227,2.95528 -1.719791,3.09352 -0.128564,0.13825 -0.233753,0.66718 -0.233753,1.17541 0,1.3302 0.841246,5.849281 1.088868,5.849281 0.115025,0 0.75419,-1.055326 1.420367,-2.345168 0.666178,-1.289843 1.872398,-3.075783 2.680489,-3.968753 2.431,-2.68634 2.511847,-2.27504 0.521167,2.651375 -1.359873,3.365333 -2.42663,6.770419 -2.193953,7.003096 0.05886,0.05886 0.529654,-0.519862 1.046218,-1.28604 0.516563,-0.766178 1.576409,-2.065323 2.355212,-2.886989 1.748193,-1.844407 3.929548,-5.239222 3.929548,-6.115502 0,-0.35846 -0.357188,-1.4395 -0.79375,-2.40232 -0.464975,-1.02548 -0.79375,-2.1964 -0.79375,-2.82689 0,-1.03991 0.04699,-1.0982 1.389062,-1.72302 1.494678,-0.69587 3.074808,-0.84467 3.582157,-0.33732 0.243016,0.24302 0.710999,0.1746 2.057731,-0.30084 1.54568,-0.54567 1.787923,-0.57065 2.13811,-0.22046 0.350187,0.35019 0.345009,0.56666 -0.0457,1.91065 -0.260639,0.89657 -0.3736,1.87302 -0.276536,2.39042 0.142307,0.75856 0.05108,0.96981 -0.687057,1.59091 -0.468135,0.39391 -1.826408,1.16676 -3.018385,1.71746 l -2.16723,1.00126 -1.489311,2.495695 c -1.659839,2.781451 -3.505654,6.789143 -3.763626,8.171706 -0.160646,0.860961 -0.113591,0.827959 0.973542,-0.682812 3.12019,-4.336073 6.424548,-7.233658 10.478927,-9.188949 2.086236,-1.00612 4.334212,-1.57898 4.310603,-1.09849 -0.0063,0.1283 -0.853433,0.82744 -1.882507,1.55364 -3.216765,2.270014 -8.823277,8.120452 -8.644962,9.02108 0.06993,0.353224 0.386294,0.200681 1.548574,-0.746696 2.063891,-1.682282 3.866347,-2.731344 5.53265,-3.220102 1.416542,-0.415499 4.869251,-0.573967 5.685026,-0.260925 0.526362,0.201984 0.550945,0.897734 0.03172,0.897734 -1.699673,0 -7.086877,2.612499 -7.475487,3.625202 -0.198657,0.51769 -0.0031,0.641049 1.433915,0.904704 2.733539,0.50152 3.375101,1.200905 2.012998,2.194426 -0.58453,0.426357 -0.853664,0.464159 -1.698723,0.2386 -0.552282,-0.147412 -1.099186,-0.180216 -1.215341,-0.0729 -0.173337,0.16015 -4.57403,0.819014 -5.502858,0.823878 -0.145521,7.62e-4 -1.812396,-0.0046 -3.704166,-0.01193 -1.891771,-0.0073 -7.487708,0.02452 -12.435416,0.07076 -6.764658,0.06323 -9.323947,-0.0013 -10.31875,-0.260363 z"
         id="path5234" />
      <path
         style="fill:#cbbba4"
         d="m 49.689963,-88.446652 c 0,-0.159145 0.238125,-0.351625 0.529166,-0.427734 0.291042,-0.07611 0.529167,-0.292528 0.529167,-0.480931 0,-0.555483 1.867602,-0.329794 2.976562,0.359702 0.545704,0.33929 0.992188,0.666712 0.992188,0.727604 0,0.06089 -1.131094,0.110712 -2.513542,0.110712 -1.642753,0 -2.513541,-0.100243 -2.513541,-0.289353 z"
         id="path5208" />
      <path
         style="fill:#cbbba4"
         d="m 60.405587,-87.788671 c -0.727604,-0.189445 -1.538723,-0.474608 -1.802486,-0.633697 -0.263764,-0.159089 -0.727679,-0.210505 -1.030924,-0.114259 -0.455372,0.144529 -0.527423,0.08348 -0.413884,-0.350694 0.122465,-0.468306 0.03283,-0.511915 -0.821159,-0.399509 -0.527246,0.0694 -1.110335,0.249836 -1.295753,0.400974 -0.185418,0.151139 -0.423543,0.185284 -0.529167,0.07588 -0.105623,-0.109405 0.07585,-0.379018 0.403269,-0.599142 0.327422,-0.220123 0.595313,-0.609941 0.595313,-0.866261 0,-0.25632 0.238125,-0.528307 0.529166,-0.604416 0.291042,-0.07611 0.529167,-0.330524 0.529167,-0.565367 0,-0.488739 -2.947467,-2.485832 -5.924503,-4.01422 -1.1059,-0.56776 -2.011238,-1.121589 -2.011862,-1.230729 -0.0019,-0.328401 2.171433,-0.223835 3.717492,0.178862 2.645857,0.689159 4.40597,1.477131 6.638835,2.972094 1.215635,0.8139 2.359074,1.537078 2.540975,1.607062 1.28143,0.493009 -1.511896,-2.745392 -4.071183,-4.719869 -0.808554,-0.623794 -1.418921,-1.304978 -1.418921,-1.583549 0,-0.303574 -0.553783,-0.843111 -1.4611,-1.423515 -1.643846,-1.051554 -2.258683,-1.997054 -1.720402,-2.645644 0.184734,-0.22259 0.654676,-0.40471 1.044316,-0.40471 1.039782,0 1.316592,-0.40471 1.054547,-1.5418 -0.253091,-1.09823 -0.09401,-1.89779 0.377592,-1.89779 0.453587,0 2.25433,1.23236 3.417026,2.33849 0.545704,0.51915 0.992188,0.80068 0.992188,0.62563 0,-0.17506 0.123426,-0.31828 0.27428,-0.31828 0.178426,0 0.244838,1.07551 0.190033,3.07751 l -0.08425,3.077507 1.780218,1.420407 c 1.520969,1.213557 2.337632,1.680147 2.337632,1.335575 0,-0.04666 -0.472933,-1.191348 -1.050963,-2.543758 -1.018076,-2.38198 -1.823859,-5.432701 -1.516195,-5.740361 0.325661,-0.32566 0.76064,0.31465 2.470466,3.636685 0.9771,1.898414 2.083189,3.725324 2.457973,4.0598 0.374785,0.334476 1.246974,1.114026 1.938198,1.732333 1.121575,1.00326 1.256771,1.062349 1.256771,0.549286 0,-0.3162 -0.487429,-1.875406 -1.083175,-3.464902 -0.595746,-1.589496 -1.027192,-3.042591 -0.958769,-3.229101 0.249745,-0.680761 2.986785,2.528464 4.018856,4.712177 0.54392,1.150855 1.074274,2.263972 1.178565,2.473592 0.104291,0.20962 0.349032,0.434265 0.543868,0.49921 0.784746,0.261582 -0.388192,-9.92086 -1.252867,-10.87632 -0.243853,-0.26945 -1.253803,-1.02869 -2.244332,-1.68719 -1.630438,-1.08391 -2.583396,-2.19579 -2.583396,-3.0142 0,-0.16712 0.328767,-0.61952 0.730593,-1.00533 0.401826,-0.3858 1.102,-1.17317 1.555942,-1.74969 l 0.82535,-1.04823 1.057742,0.69998 c 0.581759,0.38499 1.399631,1.23929 1.817495,1.89846 0.747197,1.17868 1.230778,1.4754 1.553503,0.95322 0.332416,-0.53786 0.869548,-0.24028 0.984897,0.54565 0.08298,0.56538 -0.147809,1.34035 -0.76372,2.56451 -0.498158,0.99012 -0.882635,2.15766 -0.882635,2.68029 0,1.33168 0.841053,5.851221 1.088868,5.851221 0.115025,0 0.75419,-1.055326 1.420367,-2.345168 0.666178,-1.289843 1.872398,-3.075783 2.680489,-3.968753 2.431,-2.68634 2.511847,-2.27504 0.521167,2.651375 -1.368772,3.387355 -2.426338,6.770711 -2.190195,7.006854 0.06092,0.06092 0.469431,-0.4406 0.907795,-1.114497 0.438364,-0.673897 1.47748,-1.957305 2.309147,-2.852018 0.831666,-0.894713 2.162319,-2.638782 2.957006,-3.875714 1.63024,-2.53746 1.667097,-2.97235 0.454681,-5.36494 -0.360403,-0.71122 -0.618548,-1.59899 -0.573656,-1.97282 0.154537,-1.28689 2.567329,-2.38592 4.206145,-1.91592 0.604465,0.17336 1.107696,0.0741 2.230629,-0.44 2.530804,-1.15864 2.75033,-0.79593 1.754892,2.89954 -0.630474,2.34058 -0.859814,2.595 -3.612128,4.00717 -1.799238,0.92316 -1.896014,1.02512 -3.391748,3.573374 -1.725133,2.939079 -3.528331,6.861493 -3.783828,8.230787 -0.160646,0.860961 -0.113591,0.827959 0.973542,-0.682812 3.12019,-4.336073 6.424548,-7.233658 10.478927,-9.188949 2.086236,-1.00612 4.334212,-1.57898 4.310603,-1.09849 -0.0063,0.1283 -0.853433,0.82744 -1.882507,1.55364 -3.216765,2.270014 -8.823277,8.120452 -8.644962,9.02108 0.06993,0.353224 0.386294,0.200681 1.548574,-0.746696 2.063891,-1.682282 3.866347,-2.731344 5.53265,-3.220102 1.416542,-0.415499 4.869251,-0.573967 5.685026,-0.260925 0.526362,0.201984 0.550945,0.897734 0.03172,0.897734 -1.699673,0 -7.086877,2.612499 -7.475487,3.625202 -0.198657,0.51769 -0.0031,0.641049 1.433915,0.904704 2.733539,0.50152 3.375101,1.200905 2.012998,2.194426 -0.58453,0.426357 -0.853664,0.464159 -1.698723,0.2386 -0.552282,-0.147412 -1.099186,-0.180216 -1.215341,-0.0729 -0.173337,0.16015 -4.57403,0.819014 -5.502858,0.823878 -0.145521,7.62e-4 -1.812396,-0.0046 -3.704166,-0.01193 -1.891771,-0.0073 -7.487708,0.02452 -12.435416,0.07076 -6.764658,0.06323 -9.323947,-0.0013 -10.31875,-0.260363 z"
         id="path5204" />
      <path
         style="fill:#acab95"
         d="m 62.080628,-87.608195 c -1.090475,-0.151654 -1.540464,-0.451969 -3.836458,-2.56039 -2.978834,-2.735476 -4.117637,-3.553583 -7.165145,-5.147386 -1.200547,-0.627868 -2.182812,-1.253933 -2.182812,-1.391254 0,-0.371044 2.896067,0.02038 4.817325,0.651098 2.176134,0.714387 3.945915,1.61797 5.945711,3.035651 0.899202,0.637456 1.723264,1.15901 1.83125,1.15901 0.107986,0 0.432503,0.20836 0.72115,0.463021 0.521581,0.46017 0.521769,0.458133 0.03067,-0.330729 -1.081684,-1.737527 -1.863648,-2.597772 -3.87092,-4.258429 -1.151932,-0.953016 -2.197955,-2.00507 -2.324495,-2.337898 -0.126541,-0.332827 -0.776065,-0.925112 -1.443386,-1.316189 -1.476316,-0.86518 -2.204455,-1.84486 -1.764858,-2.37454 0.165482,-0.19939 0.786948,-0.44026 1.381036,-0.53526 0.946747,-0.15139 1.063427,-0.24534 0.944686,-0.76062 -0.383165,-1.66277 -0.424097,-2.21018 -0.192296,-2.57169 0.22165,-0.34568 0.379286,-0.32887 1.234355,0.13162 0.53914,0.29034 1.555676,1.04525 2.258971,1.67758 0.703294,0.63232 1.278717,1.01958 1.278717,0.86057 0,-0.15901 0.123405,-0.2891 0.274233,-0.2891 0.325165,0 0.271346,5.266693 -0.0584,5.714508 -0.227173,0.308519 3.952107,3.699489 4.224188,3.427407 0.08158,-0.08158 -0.345804,-1.368218 -0.949751,-2.859188 -2.424925,-5.986437 -2.009243,-7.444617 0.648863,-2.276154 1.578607,3.069468 2.071476,3.77597 3.798362,5.444757 1.091406,1.054688 2.070695,1.919445 2.176197,1.921682 0.329513,0.007 -0.086,-1.609052 -1.150012,-4.472703 -0.563408,-1.516339 -0.970388,-2.81097 -0.904401,-2.876957 0.682877,-0.682872 3.362856,2.964152 4.905602,6.675748 0.474419,1.141377 0.591482,1.257921 0.926757,0.922647 0.334981,-0.334981 0.335399,-0.837232 0.0033,-3.952228 -0.494479,-4.637919 -0.832159,-6.328729 -1.38621,-6.940949 -0.248296,-0.27437 -1.26188,-1.03762 -2.252409,-1.69612 -1.630438,-1.08391 -2.583396,-2.19579 -2.583396,-3.0142 0,-0.16712 0.328767,-0.61952 0.730593,-1.00533 0.401826,-0.3858 1.102,-1.17317 1.555942,-1.74969 l 0.82535,-1.04823 1.057742,0.69998 c 0.581759,0.38499 1.399631,1.23929 1.817495,1.89846 0.747197,1.17868 1.230778,1.4754 1.553503,0.95322 0.335829,-0.54338 0.870082,-0.23664 0.988077,0.56731 0.08621,0.58736 -0.110223,1.26724 -0.668258,2.31297 -0.434694,0.8146 -0.880393,1.79504 -0.990442,2.17876 -0.207178,0.72239 0.656426,6.275084 1.03508,6.655238 0.11225,0.112695 0.695924,-0.780274 1.297053,-1.984375 1.488673,-2.981903 4.191609,-6.213933 4.738953,-5.666583 0.05886,0.0589 -0.602304,1.87736 -1.469252,4.04112 -1.341604,3.348418 -2.597473,7.505981 -2.267322,7.505981 0.05389,0 0.530031,-0.684609 1.0581,-1.521354 0.528069,-0.836745 1.589647,-2.176198 2.359062,-2.976562 0.769415,-0.800365 2.073582,-2.526771 2.898148,-3.836455 1.689042,-2.68277 1.726999,-3.09298 0.508668,-5.49724 -0.360403,-0.71122 -0.618548,-1.59899 -0.573656,-1.97282 0.154537,-1.28689 2.567329,-2.38592 4.206145,-1.91592 0.604465,0.17336 1.107696,0.0741 2.230629,-0.44 2.530804,-1.15864 2.75033,-0.79593 1.754892,2.89954 -0.631762,2.34536 -0.860407,2.59777 -3.636537,4.01455 -1.83846,0.93824 -1.908523,1.01231 -3.456769,3.654558 -2.14301,3.657276 -4.592589,9.263422 -4.213327,9.642684 0.06164,0.06164 0.652041,-0.702035 1.312001,-1.697058 1.307844,-1.971838 3.551566,-4.621705 4.960735,-5.858698 1.847715,-1.621956 4.886964,-3.513486 6.880799,-4.282396 3.365897,-1.29802 3.744034,-1.04258 1.221695,0.82529 -2.390995,1.770602 -5.212321,4.450253 -7.22042,6.857838 -2.49143,2.987067 -2.181846,3.385974 0.844992,1.088795 1.33208,-1.010965 3.118018,-2.105695 3.96875,-2.432735 1.853902,-0.712679 5.521016,-1.013437 6.429365,-0.527303 0.773428,0.413927 0.510865,0.612587 -1.533485,1.160264 -2.87201,0.769405 -4.206356,1.631402 -7.047992,4.553049 l -2.651102,2.725748 -11.963729,0.02205 c -6.580051,0.01213 -12.116457,0.06295 -12.303124,0.112942 -0.186667,0.04999 -0.895314,0.01358 -1.574771,-0.08091 z"
         id="path5173" />
      <path
         style="fill:#92976f"
         d="m 84.382626,-87.867186 c -0.4094,-0.25931 -0.316486,-0.470067 0.859185,-1.948886 0.852797,-1.072693 3.7097,-3.454924 5.494618,-4.581693 1.821066,-1.149589 3.863894,-1.739848 6.119853,-1.768282 2.47349,-0.03118 3.240468,0.410577 1.484522,0.85504 -3.577767,0.905601 -4.881243,1.698915 -8.329674,5.069561 -2.651192,2.591389 -2.684488,2.61328 -3.96875,2.609262 -0.71232,-0.0022 -1.459209,-0.107979 -1.659754,-0.235002 z"
         id="path5141" />
      <path
         style="fill:#92976f"
         d="m 58.620275,-90.105818 c -3.036748,-2.735067 -4.151958,-3.542892 -7.210521,-5.223085 -1.799668,-0.988631 -2.013077,-1.17479 -1.424978,-1.243025 1.03375,-0.119943 3.967055,0.629415 5.907025,1.509039 1.773641,0.804207 5.312373,3.129559 6.424564,4.221673 0.946979,0.929884 1.051198,0.468326 0.184482,-0.81702 -1.257716,-1.865198 -2.269959,-2.97294 -4.079635,-4.464522 -2.018959,-1.664079 -2.166061,-1.842679 -1.840648,-2.234777 0.168819,-0.203415 -0.163716,-0.487892 -1.062274,-0.908754 -1.564557,-0.732799 -2.737473,-1.882241 -2.609253,-2.557041 0.06911,-0.36369 0.39776,-0.52311 1.281209,-0.62147 1.280574,-0.14257 1.255963,-0.086 0.886418,-2.03896 -0.08829,-0.46659 -0.08692,-1.04013 0.003,-1.27454 0.145284,-0.3786 0.278623,-0.36152 1.194011,0.15296 0.566755,0.31853 1.682231,1.25417 2.478836,2.0792 l 1.448372,1.50006 -0.129975,2.02529 c -0.125065,1.948778 -0.156186,2.028474 -0.823703,2.109376 -0.689431,0.08356 -0.687992,0.08715 0.232314,0.580648 0.509323,0.273113 1.750095,1.134684 2.757272,1.914602 1.827309,1.414995 2.269811,1.642302 2.269811,1.165967 0,-0.138636 -0.531592,-1.549985 -1.181315,-3.136332 -1.21221,-2.959701 -1.805857,-5.320461 -1.251797,-4.978031 0.161322,0.0997 1.042658,1.63135 1.958524,3.403663 1.002385,1.939734 2.027256,3.542431 2.574768,4.026429 0.500255,0.442224 1.42596,1.315251 2.057122,1.940059 0.631161,0.624807 1.252799,1.070977 1.381416,0.991487 0.28284,-0.174805 -0.160834,-1.878851 -1.271967,-4.885328 -0.453018,-1.225763 -0.764455,-2.287873 -0.692083,-2.360245 0.201791,-0.201791 1.415168,1.014257 2.327354,2.332478 0.450298,0.650736 1.201349,2.063325 1.669001,3.139088 0.467653,1.075762 0.984505,2.090159 1.148561,2.254215 0.925459,0.925459 0.961594,-2.145829 0.09413,-8.000293 l -0.446196,-3.011333 -2.000945,-1.45217 c -1.10052,-0.79869 -2.209305,-1.6892 -2.463966,-1.97891 -0.551349,-0.62724 -0.604429,-1.26188 -0.105541,-1.26188 0.196614,0 0.725601,-0.83344 1.175527,-1.85208 0.449926,-1.01865 0.949817,-1.85209 1.110868,-1.85209 0.72912,0 1.841078,0.87203 2.670149,2.094 0.930132,1.37093 1.245156,1.55974 1.753755,1.05114 0.161945,-0.16194 0.423883,-0.21445 0.582083,-0.11667 0.556677,0.34404 0.27733,1.77102 -0.696021,3.55545 l -0.983657,1.80332 0.477124,2.992439 c 0.775863,4.866073 0.751306,4.850152 2.430426,1.575675 1.351359,-2.635304 3.825227,-5.877434 4.205034,-5.510924 0.09597,0.0926 -0.47432,1.75949 -1.267315,3.704171 -1.405111,3.445787 -2.699412,7.865155 -2.488647,8.497447 0.05768,0.173025 0.512816,-0.453934 1.011424,-1.393243 0.498609,-0.939309 1.629491,-2.483655 2.513073,-3.43188 2.125818,-2.281343 4.611196,-6.136115 4.611196,-7.151865 0,-0.42868 -0.313683,-1.54324 -0.697074,-2.47682 -0.464324,-1.13065 -0.639731,-1.92588 -0.525334,-2.38168 0.247618,-0.98658 1.571419,-1.59675 3.395692,-1.56515 1.024473,0.0177 2.002999,-0.17344 3.035508,-0.59309 2.095512,-0.85168 2.304867,-0.62489 1.639526,1.77608 -0.887667,3.20325 -1.199974,3.60017 -4.068853,5.17122 -1.651566,0.90443 -1.947903,1.20037 -3.120176,3.11601 -0.712411,1.164166 -1.747033,3.071662 -2.29916,4.238879 -2.221056,4.695395 -3.256621,8.934199 -1.356049,5.550618 1.737254,-3.092827 4.316957,-6.074669 7.038628,-8.135851 2.393018,-1.812286 6.654822,-3.991606 7.54577,-3.858606 0.518151,0.0774 0.431481,0.2026 -0.699016,1.01021 -3.29755,2.355715 -8.262851,7.419326 -9.388222,9.574102 -1.015417,1.944244 -2.180951,3.689921 -2.620824,3.925334 -0.685568,0.366905 -2.471323,0.328782 -2.861186,-0.06108 -0.236401,-0.2364 -0.447612,-0.247383 -0.780521,-0.04058 -0.299028,0.185752 -3.535474,0.291555 -9.385479,0.306823 l -8.929061,0.0233 z"
         id="path5140" />
      <path
         style="fill:#966996"
         d="m 57.612996,-98.330658 c -1.620629,-0.597051 -3.264575,-1.500052 -4.020429,-2.208372 -0.897493,-0.84106 -0.95921,-1.62551 -0.132292,-1.68149 0.327422,-0.0222 0.714375,-0.068 0.859896,-0.10177 0.145521,-0.0338 0.664727,-0.0752 1.153791,-0.092 0.887199,-0.0305 0.887928,-0.0316 0.322682,-0.49354 -0.589936,-0.48215 -1.000057,-2.11272 -0.716953,-2.85048 0.145284,-0.3786 0.278623,-0.36152 1.194011,0.15296 0.566755,0.31853 1.682231,1.25417 2.478836,2.0792 l 1.448372,1.50006 -0.130893,2.039597 c -0.128126,1.996467 -0.145545,2.039207 -0.823703,2.020958 -0.381046,-0.01025 -1.116039,-0.174564 -1.633318,-0.365133 z"
         id="path5095" />
      <path
         style="fill:#966996"
         d="m 84.53738,-88.058493 c -0.339991,-0.339991 2.133967,-3.093189 4.178622,-4.650272 3.142466,-2.393107 5.670055,-3.386036 8.619456,-3.386036 1.540728,0 1.442497,0.388643 -0.23086,0.913375 -2.714294,0.851152 -4.057738,1.730074 -6.938671,4.53949 -2.816049,2.746144 -2.82068,2.749218 -4.140987,2.749218 -0.726981,0 -1.396384,-0.0746 -1.48756,-0.165775 z"
         id="path5094" />
      <path
         style="fill:#966996"
         d="m 80.646211,-88.229854 c 0,-0.713208 2.385474,-4.475185 4.128481,-6.510761 2.810687,-3.282469 7.458565,-6.533215 10.423602,-7.290315 0.592254,-0.15122 0.565336,-0.0917 -0.257282,0.56851 -3.68425,2.957092 -7.397038,6.71131 -8.643377,8.739828 -2.725313,4.43567 -3.093159,4.829874 -4.506919,4.829874 -0.750815,0 -1.144505,-0.115969 -1.144505,-0.337136 z"
         id="path5093" />
      <path
         style="fill:#966996"
         d="m 76.942045,-88.191434 c 0,-0.459055 1.241703,-3.796504 1.872587,-5.033139 0.3094,-0.606475 1.354094,-1.964261 2.321542,-3.017301 2.315875,-2.520768 4.272537,-5.667006 4.272537,-6.870086 0,-0.50042 -0.313683,-1.67369 -0.697074,-2.60727 -0.464324,-1.13065 -0.639731,-1.92588 -0.525334,-2.38168 0.247618,-0.98658 1.571419,-1.59675 3.395692,-1.56515 1.024473,0.0177 2.002999,-0.17344 3.035508,-0.59309 2.095512,-0.85168 2.304867,-0.62489 1.639526,1.77608 -0.893468,3.22418 -1.35841,3.77548 -4.630935,5.49098 -1.544301,0.80955 -1.693437,0.97926 -3.229179,3.674583 -1.90233,3.338709 -2.932017,5.592169 -3.91879,8.576231 -0.397778,1.202906 -0.834921,2.33593 -0.971428,2.517831 -0.31233,0.41619 -2.564652,0.444302 -2.564652,0.03201 z"
         id="path5092" />
      <path
         style="fill:#966996"
         d="m 64.584674,-89.190899 c -0.552248,-0.721998 -1.301743,-1.756152 -1.665545,-2.298119 -0.922085,-1.373658 -3.716146,-4.316833 -5.000409,-5.267271 -1.205477,-0.89213 -1.339396,-1.190593 -0.534215,-1.190593 0.718214,0 3.388729,1.57348 5.439848,3.205185 0.893759,0.711002 1.697431,1.292731 1.785937,1.292731 0.367871,0 0.0901,-0.970239 -1.178455,-4.116286 -1.613897,-4.002508 -1.698621,-5.588038 -0.126428,-2.366005 1.514274,3.103334 2.621643,4.722455 4.005256,5.856222 0.676493,0.554336 1.647528,1.547054 2.157855,2.206039 l 0.927867,1.198155 -0.145004,-1.5875 c -0.07975,-0.873125 -0.559205,-2.688828 -1.06545,-4.034895 -0.506245,-1.346068 -0.821659,-2.447396 -0.700921,-2.447396 0.272163,0 1.830253,1.929462 2.563894,3.175 0.667737,1.133649 2.050444,4.582377 2.307241,5.754687 0.488223,2.228802 0.879811,0.128604 0.727651,-3.902604 -0.07672,-2.032599 -0.820041,-7.562571 -1.124954,-8.369161 -0.117254,-0.31018 -1.220217,-1.29094 -2.45103,-2.17948 -2.04678,-1.47759 -2.5616,-2.02066 -2.5616,-2.70216 0,-0.13362 0.160866,-0.24295 0.35748,-0.24295 0.196614,0 0.725601,-0.83344 1.175527,-1.85208 0.449926,-1.01865 0.949817,-1.85209 1.110868,-1.85209 0.72912,0 1.841078,0.87203 2.670149,2.094 0.930132,1.37093 1.245156,1.55974 1.753755,1.05114 0.161945,-0.16194 0.423883,-0.21445 0.582083,-0.11667 0.568791,0.35153 0.268609,1.79363 -0.7656,3.67801 l -1.053238,1.91906 0.529829,3.16171 c 0.291406,1.738942 0.594793,3.370072 0.674192,3.624734 0.149034,0.477998 0.902454,0.656512 0.902454,0.213825 0,-1.221161 4.427293,-8.297049 4.692864,-7.500339 0.05488,0.16465 -0.27632,1.17198 -0.736004,2.23851 -1.637983,3.800352 -2.655419,7.40235 -3.027271,10.717352 -0.100837,0.898949 -0.323483,1.68823 -0.494769,1.753959 -0.171285,0.06573 -2.655555,0.137168 -5.520599,0.158755 l -5.209172,0.03925 z"
         id="path5091" />
      <path
         style="fill:#966996"
         d="m 58.447453,-90.541519 c -2.917905,-2.552688 -3.801392,-3.192743 -6.905407,-5.002727 l -1.455208,-0.848547 1.306703,0.172697 c 2.536823,0.335272 5.725935,1.740796 8.615171,3.796927 1.38724,0.987233 4.233333,3.805592 4.233333,4.192081 0,0.232434 -0.434889,0.336824 -1.389062,0.333428 -1.378967,-0.0049 -1.410986,-0.02412 -4.40553,-2.643859 z"
         id="path5090" />
      <path
         style="fill:#8c5771"
         d="m 56.717843,-99.008665 c -1.789665,-0.763267 -3.588297,-2.164615 -3.588297,-2.795715 0,-0.39722 0.547691,-0.53563 2.402226,-0.60708 1.139884,-0.0439 1.787857,0.0997 2.84427,0.63027 l 1.368087,0.68716 v 1.44128 c 0,1.320398 -0.04993,1.440684 -0.595313,1.434126 -0.327421,-0.0039 -1.421359,-0.359455 -2.430973,-0.790041 z"
         id="path5036" />
      <path
         style="fill:#8c5771"
         d="m 84.53738,-88.058493 c -0.339991,-0.339991 2.133967,-3.093189 4.178622,-4.650272 3.142466,-2.393107 5.670055,-3.386036 8.619456,-3.386036 1.540728,0 1.442497,0.388643 -0.23086,0.913375 -2.714294,0.851152 -4.057738,1.730074 -6.938671,4.53949 -2.816049,2.746144 -2.82068,2.749218 -4.140987,2.749218 -0.726981,0 -1.396384,-0.0746 -1.48756,-0.165775 z"
         id="path5035" />
      <path
         style="fill:#8c5771"
         d="m 80.646211,-88.229854 c 0,-0.713208 2.385474,-4.475185 4.128481,-6.510761 2.810687,-3.282469 7.458565,-6.533215 10.423602,-7.290315 0.592254,-0.15122 0.565336,-0.0917 -0.257282,0.56851 -3.68425,2.957092 -7.397038,6.71131 -8.643377,8.739828 -2.725313,4.43567 -3.093159,4.829874 -4.506919,4.829874 -0.750815,0 -1.144505,-0.115969 -1.144505,-0.337136 z"
         id="path5034" />
      <path
         style="fill:#8c5771"
         d="m 76.942045,-88.191434 c 0,-0.459055 1.241703,-3.796504 1.872587,-5.033139 0.3094,-0.606475 1.354094,-1.964261 2.321542,-3.017301 2.382138,-2.592893 4.252862,-5.646996 4.540149,-7.412156 0.228204,-1.40214 0.942718,-3.05244 1.924858,-4.4458 0.613064,-0.86975 4.319953,-2.75653 4.686856,-2.38557 0.360256,0.36424 -0.68631,3.74854 -1.481671,4.79131 -0.648609,0.85037 -1.720394,1.63677 -3.761885,2.76019 -1.40779,0.77469 -4.979845,7.394312 -6.545965,12.130768 -0.408993,1.236927 -0.855312,2.397786 -0.991819,2.579687 -0.31233,0.41619 -2.564652,0.444302 -2.564652,0.03201 z"
         id="path5033" />
      <path
         style="fill:#8c5771"
         d="m 64.584674,-89.190899 c -0.552248,-0.721998 -1.301743,-1.756152 -1.665545,-2.298119 -0.922085,-1.373658 -3.716146,-4.316833 -5.000409,-5.267271 -1.205477,-0.89213 -1.339396,-1.190593 -0.534215,-1.190593 0.718214,0 3.388729,1.57348 5.439848,3.205185 0.893759,0.711002 1.697431,1.292731 1.785937,1.292731 0.367871,0 0.0901,-0.970239 -1.178455,-4.116286 -1.613897,-4.002508 -1.698621,-5.588038 -0.126428,-2.366005 1.514274,3.103334 2.621643,4.722455 4.005256,5.856222 0.676493,0.554336 1.647528,1.547054 2.157855,2.206039 l 0.927867,1.198155 -0.145004,-1.5875 c -0.07975,-0.873125 -0.559205,-2.688828 -1.06545,-4.034895 -0.506245,-1.346068 -0.821659,-2.447396 -0.700921,-2.447396 0.272163,0 1.830253,1.929462 2.563894,3.175 0.667737,1.133649 2.050444,4.582377 2.307241,5.754687 0.306561,1.399491 0.59484,0.989993 0.745048,-1.058333 0.153854,-2.098062 -0.130942,-5.619275 -0.754334,-9.326562 -0.392325,-2.33315 -0.426801,-2.4053 -1.706586,-3.57188 -1.38686,-1.26417 -1.841978,-2.14121 -1.841978,-3.54961 0,-0.90098 0.445534,-2.49519 0.810489,-2.90008 0.501157,-0.55599 1.561133,0.1467 2.543192,1.68597 0.817187,1.28085 1.126517,1.56797 1.607256,1.49182 0.498249,-0.0789 0.595313,0.0267 0.595313,0.64764 0,0.40806 -0.243174,1.15408 -0.540386,1.65782 -0.991808,1.68099 -1.051369,2.36143 -0.49654,5.672632 0.285601,1.704461 0.584239,3.30738 0.663638,3.562042 0.149034,0.477998 0.902454,0.656512 0.902454,0.213825 0,-1.221161 4.427293,-8.297049 4.692864,-7.500339 0.05488,0.16465 -0.27632,1.17198 -0.736004,2.23851 -1.637983,3.800352 -2.655419,7.40235 -3.027271,10.717352 -0.100837,0.898949 -0.323483,1.68823 -0.494769,1.753959 -0.171285,0.06573 -2.655555,0.137168 -5.520599,0.158755 l -5.209172,0.03925 z"
         id="path5032" />
      <path
         style="fill:#8c5771"
         d="m 58.447453,-90.541519 c -2.917905,-2.552688 -3.801392,-3.192743 -6.905407,-5.002727 l -1.455208,-0.848547 1.306703,0.172697 c 2.536823,0.335272 5.725935,1.740796 8.615171,3.796927 1.38724,0.987233 4.233333,3.805592 4.233333,4.192081 0,0.232434 -0.434889,0.336824 -1.389062,0.333428 -1.378967,-0.0049 -1.410986,-0.02412 -4.40553,-2.643859 z"
         id="path5031" />
      <path
         style="fill:#728454"
         d="m 57.892046,-98.743959 c -0.800365,-0.282372 -1.812396,-0.711647 -2.248959,-0.953945 -0.926236,-0.514076 -2.248958,-1.691926 -2.248958,-2.002646 0,-0.67278 4.956222,0.0791 6.019271,0.91315 0.350664,0.27512 0.46961,2.582615 0.132291,2.566389 -0.10914,-0.0052 -0.853281,-0.240576 -1.653645,-0.522948 z"
         id="path4985" />
      <path
         style="fill:#728454"
         d="m 84.53738,-88.058493 c -0.339991,-0.339991 2.133967,-3.093189 4.178622,-4.650272 3.142466,-2.393107 5.670055,-3.386036 8.619456,-3.386036 1.540728,0 1.442497,0.388643 -0.23086,0.913375 -2.714294,0.851152 -4.057738,1.730074 -6.938671,4.53949 -2.816049,2.746144 -2.82068,2.749218 -4.140987,2.749218 -0.726981,0 -1.396384,-0.0746 -1.48756,-0.165775 z"
         id="path4984" />
      <path
         style="fill:#728454"
         d="m 80.646211,-88.229854 c 0,-0.713208 2.385474,-4.475185 4.128481,-6.510761 2.810687,-3.282469 7.458565,-6.533215 10.423602,-7.290315 0.592254,-0.15122 0.565336,-0.0917 -0.257282,0.56851 -3.68425,2.957092 -7.397038,6.71131 -8.643377,8.739828 -2.725313,4.43567 -3.093159,4.829874 -4.506919,4.829874 -0.750815,0 -1.144505,-0.115969 -1.144505,-0.337136 z"
         id="path4983" />
      <path
         style="fill:#728454"
         d="m 76.942045,-88.191434 c 0,-0.459055 1.241703,-3.796504 1.872587,-5.033139 0.3094,-0.606475 1.354094,-1.963268 2.321542,-3.015095 2.003866,-2.178641 4.53712,-6.090682 4.53712,-7.006552 0,-0.33833 0.482991,-1.613 1.073314,-2.8326 0.896431,-1.85203 1.273743,-2.34458 2.289503,-2.98875 1.26706,-0.80355 2.930886,-1.45922 3.149116,-1.24099 0.194336,0.19434 -0.447141,2.58918 -0.979146,3.65548 -0.592206,1.18695 -1.977709,2.41927 -3.702902,3.29349 -0.72907,0.36945 -1.403336,0.87524 -1.498369,1.12399 -0.09503,0.24874 -0.703721,1.34523 -1.352638,2.436635 -1.60401,2.697763 -3.262196,6.287397 -4.155512,8.995833 -0.407972,1.236927 -0.853456,2.397786 -0.989963,2.579687 -0.31233,0.41619 -2.564652,0.444302 -2.564652,0.03201 z"
         id="path4982" />
      <path
         style="fill:#728454"
         d="m 64.584674,-89.190899 c -0.552248,-0.721998 -1.301743,-1.756152 -1.665545,-2.298119 -0.922085,-1.373658 -3.716146,-4.316833 -5.000409,-5.267271 -1.205477,-0.89213 -1.339396,-1.190593 -0.534215,-1.190593 0.718214,0 3.388729,1.57348 5.439848,3.205185 0.893759,0.711002 1.697431,1.292731 1.785937,1.292731 0.367871,0 0.0901,-0.970239 -1.178455,-4.116286 -1.613897,-4.002508 -1.698621,-5.588038 -0.126428,-2.366005 1.514274,3.103334 2.621643,4.722455 4.005256,5.856222 0.676493,0.554336 1.647528,1.547054 2.157855,2.206039 l 0.927867,1.198155 -0.145004,-1.5875 c -0.07975,-0.873125 -0.559205,-2.688828 -1.06545,-4.034895 -0.506245,-1.346068 -0.821659,-2.447396 -0.700921,-2.447396 0.272163,0 1.830253,1.929462 2.563894,3.175 0.667737,1.133649 2.050444,4.582377 2.307241,5.754687 0.295127,1.347294 0.669717,1.009736 0.734024,-0.661458 0.09637,-2.504395 -0.04586,-4.796822 -0.488349,-7.871354 -0.23038,-1.600729 -0.448132,-3.233723 -0.483892,-3.628883 -0.04258,-0.47049 -0.52806,-1.15538 -1.406623,-1.98437 -0.988772,-0.93299 -1.390952,-1.53356 -1.529248,-2.28362 -0.31828,-1.72621 0.676529,-4.13601 1.566446,-3.79452 0.241577,0.0927 0.883872,0.88057 1.427324,1.75082 0.5811,0.93054 1.17881,1.5872 1.451114,1.59424 0.636864,0.0164 0.58127,0.60833 -0.226123,2.40745 l -0.689143,1.53561 0.576265,3.487358 c 0.316945,1.918046 0.639798,3.652923 0.71745,3.855282 0.157644,0.410813 0.878321,0.508232 0.878321,0.118729 0,-1.221161 4.427293,-8.297049 4.692864,-7.500339 0.05488,0.16465 -0.27632,1.17198 -0.736004,2.23851 -1.637983,3.800352 -2.655419,7.40235 -3.027271,10.717352 -0.100837,0.898949 -0.323483,1.68823 -0.494769,1.753959 -0.171285,0.06573 -2.655555,0.137168 -5.520599,0.158755 l -5.209172,0.03925 z"
         id="path4981" />
      <path
         style="fill:#728454"
         d="m 58.447453,-90.541519 c -2.917905,-2.552688 -3.801392,-3.192743 -6.905407,-5.002727 l -1.455208,-0.848547 1.306703,0.172697 c 2.536823,0.335272 5.725935,1.740796 8.615171,3.796927 1.38724,0.987233 4.233333,3.805592 4.233333,4.192081 0,0.232434 -0.434889,0.336824 -1.389062,0.333428 -1.378967,-0.0049 -1.410986,-0.02412 -4.40553,-2.643859 z"
         id="path4980" />
      <path
         style="fill:#667849"
         d="m 78.264961,-99.27509 c 0,-0.348288 1.217173,-2.27941 1.576779,-2.50165 0.482286,-0.29807 0.298548,0.24999 -0.512618,1.52907 -0.782057,1.233172 -1.064161,1.490999 -1.064161,0.97258 z"
         id="path4934" />
      <path
         style="fill:#667849"
         d="m 57.892046,-98.743992 c -0.800365,-0.282372 -1.812396,-0.711647 -2.248959,-0.953945 -0.926236,-0.514073 -2.248958,-1.691923 -2.248958,-2.002643 0,-0.67278 4.956222,0.0791 6.019271,0.91315 0.350664,0.27512 0.46961,2.582612 0.132291,2.566386 -0.10914,-0.0052 -0.853281,-0.240576 -1.653645,-0.522948 z"
         id="path4933" />
      <path
         style="fill:#667849"
         d="m 94.85199,-95.304127 c 0.173335,-0.184922 0.947242,-0.385493 1.719792,-0.445713 1.782099,-0.138912 1.154925,0.371547 -0.759041,0.617786 -1.025411,0.131923 -1.214032,0.09814 -0.960751,-0.172073 z"
         id="path4932" />
      <path
         style="fill:#667849"
         d="m 84.782164,-88.100853 c -0.247616,-0.40065 2.042455,-2.985666 3.773943,-4.260001 2.422933,-1.783221 3.3594,-2.226512 4.148156,-1.963593 0.613263,0.204421 0.490439,0.368417 -2.489027,3.323361 -2.977878,2.953371 -3.188222,3.108329 -4.219292,3.108329 -0.596844,0 -1.143045,-0.09364 -1.21378,-0.208096 z"
         id="path4927" />
      <path
         style="fill:#667849"
         d="m 80.821731,-88.091153 c -0.06616,-0.109141 0.426666,-1.150938 1.095173,-2.315104 1.801652,-3.137476 7.325678,-8.560963 10.335834,-10.147723 1.201852,-0.63353 2.240235,-1.09683 2.307517,-1.02955 0.06728,0.0673 -0.532838,0.62779 -1.333601,1.24557 -2.05945,1.588857 -6.321743,6.097805 -7.188044,7.604013 -1.050283,1.826091 -2.791346,4.411694 -3.123582,4.638742 -0.373608,0.255322 -1.939139,0.258352 -2.093297,0.0041 z"
         id="path4926" />
      <path
         style="fill:#667849"
         d="m 77.368496,-88.109443 c -0.267637,-0.433046 1.18138,-4.438368 2.073699,-5.732049 0.503517,-0.729996 1.516186,-1.918102 2.250375,-2.640236 0.73419,-0.722133 1.335193,-1.436508 1.335562,-1.5875 3.69e-4,-0.150991 0.59538,-1.167498 1.322246,-2.258902 0.831361,-1.24831 1.321823,-2.27164 1.322245,-2.7588 3.69e-4,-0.42594 0.483662,-1.77229 1.073985,-2.99189 0.896431,-1.85203 1.273743,-2.34458 2.289503,-2.98875 1.26706,-0.80355 2.930886,-1.45922 3.149116,-1.24099 0.194336,0.19434 -0.447141,2.58918 -0.979146,3.65548 -0.589008,1.18054 -1.975939,2.41837 -3.673532,3.27861 -1.167331,0.59153 -1.481621,0.968 -3.160968,3.786334 -1.651165,2.771042 -4.51912,9.224236 -4.51912,10.168486 0,0.736171 -0.821812,1.526934 -1.586888,1.526934 -0.419722,0 -0.823407,-0.09753 -0.897077,-0.216727 z"
         id="path4925" />
      <path
         style="fill:#667849"
         d="m 74.439169,-88.223445 c -0.05776,-0.181901 -0.161349,-2.116666 -0.230197,-4.299479 -0.06885,-2.182812 -0.335811,-5.337969 -0.593251,-7.011458 l -0.468073,-3.042708 -1.390077,-1.32292 c -1.031043,-0.98123 -1.438258,-1.58577 -1.576619,-2.34062 -0.316598,-1.72726 0.678364,-4.13573 1.567551,-3.79452 0.241577,0.0927 0.883872,0.88057 1.427324,1.75082 0.5811,0.93054 1.17881,1.5872 1.451114,1.59424 0.635459,0.0164 0.57896,0.67784 -0.201023,2.35333 -0.78407,1.68428 -0.788463,2.39862 -0.03927,6.38731 0.440531,2.34539 0.67231,3.059404 1.014236,3.124439 0.290723,0.0553 0.596946,-0.239671 0.890043,-0.857327 0.279183,-0.588335 0.634061,-0.941627 0.945851,-0.941627 0.603794,0 0.615316,0.337756 0.09477,2.778124 -0.217283,1.018646 -0.519176,2.621387 -0.670874,3.561647 -0.151698,0.940259 -0.403151,1.862993 -0.558784,2.05052 -0.362187,0.436409 -1.52512,0.443563 -1.662719,0.01023 z"
         id="path4924" />
      <path
         style="fill:#667849"
         d="m 65.266517,-88.603238 c -0.382119,-0.409577 -1.266444,-1.578123 -1.965166,-2.596769 -1.688847,-2.462118 -2.945899,-3.880001 -4.625553,-5.217361 -0.764602,-0.608786 -1.252225,-1.15287 -1.083606,-1.209077 0.424468,-0.141489 2.423276,1.052201 4.890854,2.920823 1.407769,1.06606 2.164178,1.486478 2.34647,1.304185 0.264289,-0.264288 -0.254838,-1.883988 -1.814702,-5.661952 -0.91267,-2.210471 -0.726607,-2.478381 0.287509,-0.413981 1.38084,2.810929 2.421875,4.269919 4.068852,5.702415 0.963489,0.838017 1.855987,1.940319 2.404972,2.970321 0.480115,0.900788 0.966787,1.537521 1.081492,1.414962 0.284956,-0.304466 -0.605144,-4.571987 -1.424094,-6.82772 -0.367886,-1.013311 -0.631513,-1.879755 -0.585838,-1.92543 0.122139,-0.122139 1.289144,1.473229 2.078746,2.841773 1.033356,1.791022 2.053484,4.71157 2.120014,6.06944 l 0.05912,1.206602 -0.926042,-0.05847 c -0.509323,-0.03216 -1.045104,-0.05204 -1.190625,-0.04418 -5.417781,0.292664 -4.971019,0.329794 -5.722403,-0.475583 z"
         id="path4923" />
      <path
         style="fill:#667849"
         d="m 58.880658,-90.342789 c -3.509197,-3.174486 -4.855257,-4.237148 -6.126402,-4.836552 -0.570211,-0.268882 -0.897849,-0.535175 -0.728085,-0.591763 0.661589,-0.22053 4.562456,1.346297 6.551265,2.631389 2.196862,1.419528 5.400026,4.331206 5.400026,4.908627 0,0.224795 -0.400842,0.338372 -1.1942,0.338372 -1.134917,0 -1.328653,-0.121628 -3.902604,-2.450073 z"
         id="path4922" />
      <path
         style="fill:#6a2969"
         d="m 85.673294,-103.15308 c 0,-0.38955 0.482991,-1.70614 1.073314,-2.92574 0.896431,-1.85203 1.273743,-2.34458 2.289503,-2.98875 1.26706,-0.80355 2.930886,-1.45922 3.149116,-1.24099 0.193654,0.19365 -0.446807,2.58947 -0.970503,3.63043 -0.626103,1.24451 -1.636827,2.15534 -3.648618,3.288 -0.923485,0.51993 -1.727157,0.94533 -1.785938,0.94533 -0.05878,0 -0.106874,-0.31873 -0.106874,-0.70828 z"
         id="path4867" />
      <path
         style="fill:#6a2969"
         d="m 57.892046,-98.743959 c -0.800365,-0.282372 -1.812396,-0.711647 -2.248959,-0.953945 -0.926236,-0.514076 -2.248958,-1.691926 -2.248958,-2.002646 0,-0.67278 4.956222,0.0791 6.019271,0.91315 0.350664,0.27512 0.46961,2.582615 0.132291,2.566389 -0.10914,-0.0052 -0.853281,-0.240576 -1.653645,-0.522948 z"
         id="path4865" />
      <path
         style="fill:#6a2969"
         d="m 85.708751,-89.227001 c 1.879999,-2.258112 2.277017,-2.597584 3.251788,-2.780452 1.802743,-0.338197 1.772156,0.229062 -0.115025,2.133168 -1.580165,1.594336 -1.784788,1.716986 -2.864536,1.716986 h -1.162811 z"
         id="path4862" />
      <path
         style="fill:#6a2969"
         d="m 80.910794,-88.319424 c 0,-0.523636 4.521928,-5.394125 5.008089,-5.394125 0.402727,0 -0.136076,1.138808 -1.658661,3.505729 -1.268654,1.972176 -1.357839,2.050521 -2.334239,2.050521 -0.558354,0 -1.015189,-0.07296 -1.015189,-0.162125 z"
         id="path4861" />
      <path
         style="fill:#6a2969"
         d="m 77.603182,-88.62032 c 0.103722,-0.254661 0.358948,-0.948995 0.56717,-1.542963 0.538594,-1.53638 1.801583,-2.987772 2.233656,-2.566854 0.263939,0.257125 0.243907,0.523506 -0.09948,1.322916 -0.236481,0.55053 -0.572846,1.506979 -0.74748,2.125443 -0.294837,1.044165 -0.382686,1.124479 -1.229984,1.124479 -0.764471,0 -0.881881,-0.0751 -0.723882,-0.463021 z"
         id="path4860" />
      <path
         style="fill:#6a2969"
         d="m 74.672525,-88.752611 c 0.392283,-1.346403 0.459647,-2.271021 0.200708,-2.754854 -0.150804,-0.281779 -0.404793,-1.756624 -0.56442,-3.277434 -0.159627,-1.520809 -0.476382,-3.896202 -0.703899,-5.278651 l -0.413667,-2.51354 -1.411877,-1.32292 c -1.058222,-0.99154 -1.458602,-1.57784 -1.598418,-2.34062 -0.316598,-1.72726 0.678364,-4.13573 1.567551,-3.79452 0.241577,0.0927 0.883872,0.88057 1.427324,1.75082 0.5811,0.93054 1.17881,1.5872 1.451114,1.59424 0.662659,0.0171 0.576885,0.69643 -0.329983,2.61338 l -0.792585,1.67538 0.651201,3.717468 c 0.375514,2.143669 0.823158,3.907475 1.057378,4.166286 0.223397,0.24685 0.406176,0.588272 0.406176,0.758715 0,0.170442 0.297656,0.309895 0.661458,0.309895 0.78314,0 0.77877,-0.0556 0.230967,2.938639 -0.428157,2.340265 -0.434783,2.353028 -1.221484,2.353028 -0.695291,0 -0.770006,-0.07203 -0.617544,-0.595312 z"
         id="path4859" />
      <path
         style="fill:#6a2969"
         d="m 71.499365,-88.884903 c -0.0886,-0.400182 -0.258582,-1.084792 -0.377732,-1.521354 -0.451932,-1.655862 -0.511116,-2.778125 -0.146508,-2.778125 0.505513,0 1.221582,1.208357 1.634131,2.757577 0.518701,1.94784 0.477261,2.269506 -0.292379,2.269506 -0.500649,0 -0.694645,-0.172661 -0.817512,-0.727604 z"
         id="path4858" />
      <path
         style="fill:#6a2969"
         d="m 65.37986,-88.752611 c -0.831742,-0.913678 -2.989898,-4.101644 -2.989898,-4.416592 0,-0.513535 0.721571,-0.288568 2.086977,0.650667 1.391557,0.957222 1.519076,0.978904 1.120151,0.19046 -0.433223,-0.856231 -1.341457,-4.13313 -1.186564,-4.281108 0.08467,-0.08089 0.348249,0.150583 0.58573,0.514385 0.237481,0.363802 0.977594,1.256771 1.644696,1.984375 1.128726,1.231096 3.68651,5.201182 3.68651,5.722048 0,0.127092 -0.991277,0.231077 -2.202838,0.231077 -1.947464,0 -2.265663,-0.06901 -2.744764,-0.595312 z"
         id="path4857" />
      <path
         style="fill:#6a2969"
         d="m 61.819955,-88.109749 c -0.587788,-0.241501 -3.663326,-3.149679 -3.663326,-3.463981 0,-0.367199 0.816137,-0.481548 1.710485,-0.239655 0.849271,0.2297 4.17132,3.343379 3.949703,3.701963 -0.159255,0.25768 -1.371295,0.258695 -1.996862,0.0017 z"
         id="path4848" />
      <path
         style="fill:#526736"
         d="m 85.708751,-89.227001 c 1.879999,-2.258112 2.277017,-2.597584 3.251788,-2.780452 1.802743,-0.338197 1.772156,0.229062 -0.115025,2.133168 -1.580165,1.594336 -1.784788,1.716986 -2.864536,1.716986 h -1.162811 z"
         id="path4798" />
      <path
         style="fill:#526736"
         d="m 80.910794,-88.319424 c 0,-0.523636 4.521928,-5.394125 5.008089,-5.394125 0.402727,0 -0.136076,1.138808 -1.658661,3.505729 -1.268654,1.972176 -1.357839,2.050521 -2.334239,2.050521 -0.558354,0 -1.015189,-0.07296 -1.015189,-0.162125 z"
         id="path4797" />
      <path
         style="fill:#526736"
         d="m 77.603182,-88.62032 c 0.103722,-0.254661 0.358948,-0.948995 0.56717,-1.542963 0.538594,-1.53638 1.801583,-2.987772 2.233656,-2.566854 0.263939,0.257125 0.243907,0.523506 -0.09948,1.322916 -0.236481,0.55053 -0.572846,1.506979 -0.74748,2.125443 -0.294837,1.044165 -0.382686,1.124479 -1.229984,1.124479 -0.764471,0 -0.881881,-0.0751 -0.723882,-0.463021 z"
         id="path4796" />
      <path
         style="fill:#526736"
         d="m 74.672525,-88.752611 c 0.39325,-1.349721 0.459346,-2.271584 0.197896,-2.760108 -0.152351,-0.284669 -0.412597,-1.819046 -0.578326,-3.409726 -0.165729,-1.59068 -0.471357,-3.893624 -0.679173,-5.117655 -0.207816,-1.22403 -0.329015,-2.27434 -0.269332,-2.33402 0.13358,-0.13358 0.281656,0.55749 0.941469,4.393835 0.287672,1.672616 0.698908,3.209683 0.925819,3.460417 0.224538,0.248111 0.40825,0.590564 0.40825,0.761007 0,0.170442 0.297656,0.309895 0.661458,0.309895 0.78314,0 0.77877,-0.0556 0.230967,2.938639 -0.428157,2.340265 -0.434783,2.353028 -1.221484,2.353028 -0.695291,0 -0.770006,-0.07203 -0.617544,-0.595312 z"
         id="path4795" />
      <path
         style="fill:#526736"
         d="m 71.499365,-88.884903 c -0.0886,-0.400182 -0.258582,-1.084792 -0.377732,-1.521354 -0.451932,-1.655862 -0.511116,-2.778125 -0.146508,-2.778125 0.505513,0 1.221582,1.208357 1.634131,2.757577 0.518701,1.94784 0.477261,2.269506 -0.292379,2.269506 -0.500649,0 -0.694645,-0.172661 -0.817512,-0.727604 z"
         id="path4794" />
      <path
         style="fill:#526736"
         d="m 65.37986,-88.752611 c -0.831742,-0.913678 -2.989898,-4.101644 -2.989898,-4.416592 0,-0.513535 0.721571,-0.288568 2.086977,0.650667 1.391557,0.957222 1.519076,0.978904 1.120151,0.19046 -0.433223,-0.856231 -1.341457,-4.13313 -1.186564,-4.281108 0.08467,-0.08089 0.348249,0.150583 0.58573,0.514385 0.237481,0.363802 0.977594,1.256771 1.644696,1.984375 1.128726,1.231096 3.68651,5.201182 3.68651,5.722048 0,0.127092 -0.991277,0.231077 -2.202838,0.231077 -1.947464,0 -2.265663,-0.06901 -2.744764,-0.595312 z"
         id="path4793" />
      <path
         style="fill:#526736"
         d="m 61.819955,-88.109749 c -0.587788,-0.241501 -3.663326,-3.149679 -3.663326,-3.463981 0,-0.367199 0.816137,-0.481548 1.710485,-0.239655 0.849271,0.2297 4.17132,3.343379 3.949703,3.701963 -0.159255,0.25768 -1.371295,0.258695 -1.996862,0.0017 z"
         id="path4784" />
      <path
         style="fill:#ffffff;stroke-width:1.00157"
         d="m -775.92936,-141.3034 c -1.73503,0.31553 -2.37403,2.44517 -4.13955,2.85358 -1.97621,1.12035 -3.65261,3.11044 -6.15544,2.9521 -2.36792,0.46023 -1.5262,3.41853 -1.57431,5.09624 0.42932,5.45074 0.37802,11.02298 1.67018,16.3559 1.43298,3.97612 5.41539,6.24237 8.90589,8.20175 3.88834,1.48551 8.20633,0.92294 12.27914,0.86745 1.10363,0.19741 2.03942,-1.18309 0.78943,-1.7349 -4.44705,-2.8254 -9.881,-5.26433 -12.18261,-10.33135 -0.35941,-2.27191 2.02458,-3.8839 3.59805,-5.128 1.4198,-1.29011 3.52049,-1.12666 5.00965,-2.16531 0.62876,-4.84998 0.38346,-9.86489 0.65984,-14.7724 -0.92997,-1.16763 -2.97355,0.0259 -4.38815,-0.26446 -1.48188,0.0184 -3.05676,-0.3412 -3.78649,-1.72961 -0.19922,-0.13836 -0.4435,-0.20849 -0.68563,-0.20099 z"
         transform="matrix(0.26458333,0,0,0.26458333,257.38346,-70.425789)"
         id="path4685" />
      <path
         style="fill:#ffffff;stroke-width:1.00157"
         d="m -758.01577,-149.43639 c -3.36167,0.43763 -7.22044,2.38538 -8.23216,5.85065 -0.62054,2.27929 0.367,4.86946 2.68433,5.70717 4.28962,2.41783 9.24983,3.07606 13.77074,4.76038 3.24031,1.47401 5.17078,4.72069 8.08141,6.65529 1.68723,-0.20741 0.1,-2.26368 0.59438,-3.29657 0.63019,-1.55372 0.96687,-3.30851 -0.16991,-4.74518 -3.12332,-4.98117 -6.87986,-9.77309 -11.67617,-13.24378 -1.49427,-0.97927 -3.22626,-1.77535 -5.05262,-1.68796 z"
         transform="matrix(0.26458333,0,0,0.26458333,257.38346,-70.425789)"
         id="path4686" />
      <path
         style="fill:#ffffff;stroke-width:1.00158"
         d="m -741.72914,-119.6587 c -0.81673,0.12834 -0.95444,1.12227 -1.16447,1.76994 -0.51454,2.19683 -0.81309,4.46389 -0.74778,6.72206 -0.0114,0.82524 0.64451,1.69012 1.53572,1.56415 1.19491,0.0314 2.33921,-0.99837 2.24002,-2.2316 0.0215,-2.16839 -0.16994,-4.35922 -0.71025,-6.46304 -0.17973,-0.5511 -0.43712,-1.37462 -1.15324,-1.36151 z"
         transform="matrix(0.26458333,0,0,0.26458333,257.38346,-70.425789)"
         id="path4687" />
      <path
         style="fill:#ffffff;stroke-width:1.00158"
         d="m -733.17086,-138.5204 c -1.05862,0.0674 -1.66834,1.12697 -2.0906,1.98052 -0.69507,1.61029 -1.18096,3.42446 -0.86547,5.18237 0.27585,1.29705 1.86738,2.24704 3.08086,1.55176 0.70127,-0.48372 0.52773,-1.46701 0.70848,-2.1973 0.19254,-1.5943 0.62574,-3.15477 0.72757,-4.76179 0.0253,-0.88983 -0.58205,-1.82039 -1.56084,-1.75556 z"
         transform="matrix(0.26458333,0,0,0.26458333,257.38346,-70.425789)"
         id="path4688" />
      <path
         style="fill:#ffffff;stroke-width:1.00158"
         d="m -733.00656,-127.34705 c -0.87129,-0.0567 -1.52022,0.77181 -1.46861,1.60035 -0.0605,1.05717 0.76538,2.00666 1.80316,2.14614 0.97391,0.18028 2.15169,0.10258 2.83205,0.97015 0.43377,0.53439 1.1595,0.93996 1.84073,0.61797 1.54225,-0.65256 2.06796,-3.07861 0.72926,-4.18021 -0.87555,-0.49304 -1.9663,-0.36789 -2.89977,-0.63598 -0.94652,-0.15827 -1.8746,-0.47404 -2.83682,-0.51842 z"
         transform="matrix(0.26458333,0,0,0.26458333,257.38346,-70.425789)"
         id="path4689" />
      <path
         style="fill:#ffffff;stroke-width:1.00158"
         d="m -723.31174,-166.52054 c -1.35887,0.11118 -2.33852,1.23482 -3.16781,2.20762 -1.23896,1.60574 -2.2684,3.45619 -2.62587,5.47011 -0.13835,1.1893 0.0919,2.40662 -0.18837,3.57082 -0.33669,0.89084 -1.31562,1.46032 -1.31704,2.49193 -0.16022,2.3722 0.39922,4.71894 0.82397,7.03765 0.97685,4.71315 2.51529,9.49279 5.6556,13.23448 2.21636,2.63229 5.03143,4.72556 8.1521,6.16585 2.84621,1.32049 5.77836,2.46481 8.7633,3.43078 0.79572,0.21442 1.7549,0.55703 2.51209,0.0706 0.51645,-0.52993 -0.11568,-1.17057 -0.54727,-1.49472 -2.97773,-2.35192 -6.4388,-4.10756 -9.14226,-6.78851 -2.44252,-2.36435 -4.85296,-5.06518 -5.85642,-8.41811 -0.62553,-2.04094 0.2158,-4.10561 0.87257,-6.02205 1.35948,-3.66341 3.45966,-7.03985 4.38071,-10.86607 0.54073,-1.78534 0.542,-3.67324 0.38643,-5.51533 -0.0596,-1.17547 -0.8441,-2.21743 -1.92695,-2.65584 -2.02129,-0.91321 -4.1685,-1.60448 -6.37032,-1.9025 -0.13447,-0.0116 -0.26945,-0.019 -0.40446,-0.0167 z"
         transform="matrix(0.26458333,0,0,0.26458333,257.38346,-70.425789)"
         id="path4690" />
      <path
         style="fill:#ffffff;stroke-width:1.00158"
         d="m -705.25253,-164.08548 c -1.50676,0.13666 -3.04313,0.30436 -4.47526,0.81522 -0.96414,0.3268 -1.89995,1.25208 -1.65886,2.34961 0.22231,1.12831 1.23847,1.84564 1.99909,2.61894 0.54298,0.58308 1.47004,0.99261 2.17021,0.41564 1.19608,-0.78813 1.83931,-2.13633 2.64257,-3.2761 0.406,-0.71532 1.14408,-1.60942 0.65135,-2.45404 -0.2969,-0.41772 -0.858,-0.47817 -1.3291,-0.46927 z"
         transform="matrix(0.26458333,0,0,0.26458333,257.38346,-70.425789)"
         id="path4691" />
      <path
         style="fill:#ffffff;stroke-width:1.00158"
         d="m -687.77035,-168.31081 c -0.90417,0.0753 -1.09486,1.15961 -1.33704,1.85341 -0.19857,0.74282 -0.58471,1.60061 -1.44068,1.73109 -1.54821,0.31811 -3.15358,0.16722 -4.68848,0.66645 -2.53235,0.80476 -5.04271,2.10502 -6.71842,4.22237 -0.79901,1.09242 -1.44064,2.57058 -0.81158,3.89508 0.95379,2.04295 2.52258,3.71495 3.96252,5.42221 1.8198,1.98865 3.57439,4.06511 5.65667,5.7887 0.81365,0.64968 1.97078,1.34669 3.00475,0.76509 1.36635,-1.42631 2.46322,-3.11511 3.16764,-4.96551 1.05862,-2.51874 1.57144,-5.22839 1.71874,-7.94833 0.15656,-2.8725 0.24972,-5.7897 -0.28097,-8.63032 -0.23497,-1.15511 -0.8266,-2.51488 -2.09563,-2.79462 -0.0456,-0.005 -0.0916,-0.007 -0.13752,-0.006 z"
         transform="matrix(0.26458333,0,0,0.26458333,257.38346,-70.425789)"
         id="path4692" />
      <path
         style="fill:#ffffff;stroke-width:1.00158"
         d="m -674.59715,-151.94402 c -1.00139,-0.006 -1.50781,1.03098 -1.73159,1.8635 -0.43106,1.45515 -0.68277,2.96833 -1.3372,4.33889 -1.66347,3.83095 -3.81187,7.44308 -5.95606,11.02476 -0.9854,1.78466 -2.11004,3.52481 -2.77644,5.46137 -0.23218,0.70717 0.15983,1.68336 0.99935,1.67027 1.10673,-0.0155 2.02531,-0.77426 2.92086,-1.34018 1.64535,-1.08956 2.92187,-2.62746 3.95081,-4.29429 2.55294,-3.99949 4.36141,-8.40649 6.50723,-12.62296 0.41562,-1.00051 1.11355,-1.96552 1.11631,-3.08397 -0.25438,-1.33307 -1.53424,-2.11331 -2.62335,-2.73584 -0.3327,-0.16211 -0.69565,-0.28665 -1.06992,-0.28155 z"
         transform="matrix(0.26458333,0,0,0.26458333,257.38346,-70.425789)"
         id="path4693" />
      <path
         style="fill:#ffffff;stroke-width:1.00158"
         d="m -660.43038,-147.25901 c -1.52555,0.98661 -3.28279,1.66462 -4.59509,2.95128 -0.59982,0.51328 -0.86586,1.48451 -0.26992,2.1063 0.87274,1.25013 0.70446,2.85268 0.96084,4.28319 0.71402,2.81426 2.12869,5.39223 3.58174,7.88458 1.24746,1.98719 2.51875,4.04287 4.3519,5.54813 1.0307,0.73546 2.13004,1.52477 3.40979,1.71771 0.61953,0.10677 1.39713,-0.3017 1.26216,-1.0177 -0.28066,-1.95352 -1.11221,-3.77689 -1.81082,-5.60843 -2.12602,-5.02574 -4.37066,-10.04605 -5.59852,-15.37751 -0.2625,-0.80696 -0.30511,-1.70913 -0.72133,-2.44953 -0.2004,-0.0975 -0.36064,-0.13338 -0.57075,-0.038 z"
         transform="matrix(0.26458333,0,0,0.26458333,257.38346,-70.425789)"
         id="path4694" />
      <path
         style="fill:#ffffff;stroke-width:1.00158"
         d="m -638.9389,-169.20074 c -1.22175,-0.002 -2.65992,0.0198 -3.48417,1.07935 -2.2058,2.69177 -4.0483,5.66055 -5.86154,8.62469 -0.78022,1.37994 -1.67053,2.73454 -2.16301,4.24934 -0.14091,0.78558 0.76756,1.07967 1.36894,1.21572 3.42872,0.71955 6.95618,0.4163 10.43232,0.4582 2.59702,-0.0582 5.20301,0.0268 7.79334,-0.18729 1.63093,-0.2283 3.37022,-0.46023 4.75179,-1.42547 0.64568,-0.42647 0.73108,-1.4259 0.0934,-1.90283 -0.67077,-0.61607 -1.7853,-0.75754 -2.08401,-1.73721 -0.62495,-1.50614 -0.25452,-3.23691 -0.96892,-4.72485 -1.2375,-3.08376 -4.30685,-5.37288 -7.62273,-5.63064 -0.75141,-0.0254 -1.50366,-0.0203 -2.2554,-0.019 z"
         transform="matrix(0.26458333,0,0,0.26458333,257.38346,-70.425789)"
         id="path4695" />
      <path
         style="fill:#ffffff;stroke-width:1.00158"
         d="m -622.32152,-156.51762 c -0.56608,-0.0905 -1.10477,0.52027 -0.76976,1.04596 0.70922,1.18408 2.07963,1.91705 2.39755,3.3131 0.26033,1.9013 -0.50058,3.76438 -0.97093,5.59858 -0.47823,1.90901 -1.30226,3.80436 -1.17356,5.80882 0.19576,1.37818 1.6577,1.96158 2.46353,2.93275 0.7379,0.66951 0.79541,1.76946 0.4013,2.63557 -0.91335,2.06851 -2.69547,3.59476 -4.39631,5.03341 -3.35686,2.73856 -7.12693,4.78228 -11.17644,6.27727 -1.37919,0.61603 -2.8379,1.14418 -4.0538,2.05752 -0.49259,0.30344 -0.49741,1.06572 0.0346,1.32916 0.84685,0.46065 1.87175,0.25095 2.79645,0.27147 3.40664,-0.24301 6.74412,-1.08149 10.01026,-2.04657 3.5657,-1.03324 6.97563,-2.69109 9.81335,-5.10679 2.20008,-1.77572 3.9939,-3.96939 5.90718,-6.03263 1.00909,-0.98961 1.99895,-2.10852 3.3232,-2.67062 0.59011,0.0614 1.36986,0.0373 1.62018,-0.62033 0.38199,-1.18417 0.16171,-2.46398 0.13189,-3.68464 -0.27041,-3.09481 -0.45867,-6.23992 -1.36909,-9.22807 -0.5682,-1.96779 -1.97608,-3.67599 -3.85899,-4.50972 -2.83523,-1.26685 -5.95983,-1.63681 -8.99241,-2.16168 -0.70927,-0.10008 -1.41985,-0.2363 -2.13819,-0.24256 z"
         transform="matrix(0.26458333,0,0,0.26458333,257.38346,-70.425789)"
         id="path4696" />
    </g>
  </g>
</svg>
