<?xml version="1.0" encoding="UTF-8" standalone="no"?>
<!-- Created with Inkscape (http://www.inkscape.org/) -->

<svg
   width="64.41539mm"
   height="58.992348mm"
   viewBox="0 0 64.41539 58.992348"
   version="1.1"
   id="svg1"
   xmlns="http://www.w3.org/2000/svg"
   xmlns:svg="http://www.w3.org/2000/svg">
  <defs
     id="defs1" />
  <g
     id="layer1"
     transform="translate(-55.297918,-112.44792)">
    <g
       id="g5281"
       transform="translate(13.097282,67.390563)">
      <path
         style="fill:#ece6d7"
         d="m 42.347776,103.98562 c -1.200547,-0.0423 -2.182813,-0.17264 -2.182813,-0.28972 0,-1.07076 7.478443,-4.331674 12.964583,-5.653108 1.236927,-0.297936 2.301036,-0.585906 2.364686,-0.639934 0.06365,-0.05403 -0.290964,-0.437753 -0.788031,-0.852723 -0.808322,-0.674817 -0.863801,-0.802638 -0.525371,-1.210421 0.483171,-0.582186 1.732519,-0.405604 4.366439,0.617151 1.331312,0.516949 2.080745,0.675608 2.484962,0.526079 l 0.578765,-0.214099 -0.636957,-1.262563 C 60.623713,94.311893 60.124366,93.065387 59.864378,92.23629 59.475501,90.996164 59.45213,90.655994 59.73259,90.318061 c 0.187504,-0.225929 0.51377,-0.410779 0.725036,-0.410779 0.615879,0 3.477635,2.894577 4.501102,4.552725 0.516568,0.836907 1.033231,1.463544 1.148139,1.392527 0.114908,-0.07102 -0.135413,-1.441576 -0.556269,-3.045686 -0.420856,-1.60411 -0.798152,-3.537817 -0.838435,-4.297127 -0.06427,-1.211489 -0.0084,-1.388314 0.455924,-1.443844 0.712973,-0.08526 1.43275,0.569601 2.697169,2.453911 1.023588,1.525409 2.462206,4.758838 2.462206,5.534037 0,0.576248 0.447769,0.734554 1.550649,0.548224 l 1.002064,-0.169297 0.294862,-2.519745 c 0.32259,-2.756697 0.800064,-3.799475 1.739728,-3.799475 0.806226,0 1.415315,1.296713 1.635266,3.481376 0.261985,2.60218 0.355985,2.630568 1.337901,0.404052 2.03274,-4.609282 4.747059,-7.808448 5.538519,-6.52784 0.0911,0.147403 -0.0666,0.891544 -0.350441,1.653646 -0.283843,0.762102 -0.834297,2.576266 -1.223232,4.031474 -0.388934,1.455208 -0.768013,2.854193 -0.842398,3.108854 -0.261262,0.894452 0.662321,0.472299 1.447134,-0.661458 1.828181,-2.641028 4.391174,-4.696354 5.856356,-4.696354 1.192867,0 1.049973,0.849792 -0.630622,3.75032 -0.786296,1.357063 -1.308256,2.511683 -1.15991,2.565821 0.148345,0.05414 1.14185,-0.106951 2.207787,-0.357975 2.182516,-0.513975 3.3709,-0.323796 3.50239,0.560492 0.06095,0.409901 0.422285,0.595211 1.658455,0.850538 3.166837,0.654099 8.0742,2.421667 12.02195,4.330152 2.35305,1.13754 3.02276,1.65663 2.63449,2.04193 -0.23061,0.22885 -60.550585,0.53599 -66.200634,0.33708 z"
         id="path4728" />
      <path
         style="fill:#d9d4c9"
         d="m 40.69413,103.4338 c 0,-0.73477 7.83484,-3.916799 12.417018,-5.043018 1.51785,-0.373061 2.796175,-0.797355 2.840723,-0.942875 0.04455,-0.145521 -0.34197,-0.53871 -0.858928,-0.873754 -0.516957,-0.335043 -0.889733,-0.751762 -0.828391,-0.926041 0.184479,-0.52412 2.339536,-0.293263 4.196168,0.449507 1.699716,0.679993 2.993329,0.876926 3.221294,0.490392 0.06437,-0.109141 -0.303987,-1.150938 -0.818566,-2.315104 -1.717026,-3.884544 -1.100555,-5.219025 1.325669,-2.86969 0.728285,0.705204 1.851084,2.085862 2.49511,3.068127 1.109927,1.692857 1.495901,2.041459 1.75769,1.5875 0.06294,-0.10914 -0.281824,-1.74625 -0.76614,-3.638021 -1.369509,-5.349398 -1.149817,-6.477058 0.834806,-4.284974 1.461322,1.614082 2.378982,3.213138 3.2685,5.695484 0.701104,1.956544 0.759366,2.031542 1.629924,2.098128 0.496556,0.03798 1.051099,-0.02823 1.232317,-0.147139 0.181218,-0.118906 0.462539,-1.221543 0.625159,-2.450304 0.370208,-2.797311 0.820481,-3.953903 1.539295,-3.953903 0.853651,0 1.293867,1.006817 1.619593,3.704167 0.166941,1.382448 0.347029,2.558693 0.400196,2.613878 0.05317,0.05519 0.236305,-0.242471 0.406975,-0.661458 1.832778,-4.499386 4.468359,-8.567004 5.550922,-8.567004 0.630963,0 0.630332,0.09245 -0.01339,1.963474 -0.83434,2.42505 -2.084277,7.248329 -1.920757,7.411849 0.414531,0.414532 1.061618,0.03145 1.72763,-1.02278 0.930995,-1.473667 3.791979,-4.169356 4.921618,-4.637268 0.740875,-0.30688 0.91106,-0.298592 1.271583,0.06193 0.378584,0.378584 0.271169,0.663317 -1.187634,3.148158 -0.999318,1.702179 -1.511099,2.82739 -1.357758,2.985188 0.156285,0.160829 0.864788,0.08841 1.941272,-0.198437 2.640919,-0.703705 3.695199,-0.581672 3.892809,0.450593 0.07575,0.395695 0.620096,0.637013 2.507455,1.111593 5.703068,1.434052 13.935168,4.897132 13.461778,5.663112 -0.20535,0.33226 -67.333935,0.36087 -67.333935,0.0287 z"
         id="path5264" />
      <path
         style="fill:#d1c6b0"
         d="m 43.472255,103.40098 -2.38125,-0.13229 1.691918,-0.88302 c 2.039781,-1.06458 8.211096,-3.365133 9.685165,-3.610455 1.569669,-0.261231 3.836458,-0.973579 3.836458,-1.205622 0,-0.111486 -0.435643,-0.552187 -0.968096,-0.979335 -1.924667,-1.544022 -0.17267,-1.689106 3.289183,-0.272378 1.858695,0.760652 3.235162,0.844238 3.235162,0.196457 0,-0.144089 -0.491921,-1.413356 -1.093158,-2.820592 -1.082409,-2.53345 -1.133622,-3.176545 -0.275737,-3.462506 0.431539,-0.143847 2.96782,2.548305 4.194382,4.452153 0.598085,0.928337 1.200072,1.570156 1.473992,1.571525 0.607618,0.003 0.595289,-0.147158 -0.304342,-3.707595 -1.13359,-4.486369 -1.197888,-4.994522 -0.658176,-5.201628 0.850564,-0.326393 3.218914,3.102769 4.374947,6.334537 0.901029,2.518886 1.316748,2.873544 2.793925,2.383546 0.708429,-0.234995 0.75242,-0.352449 1.064786,-2.84292 0.179206,-1.428789 0.514144,-2.885204 0.744308,-3.236479 0.981212,-1.497519 1.8753,0.03415 2.157712,3.696399 0.0876,1.135967 0.262868,2.129421 0.389486,2.207675 0.126618,0.07825 0.414812,-0.312773 0.640431,-0.868949 1.744803,-4.301122 4.289141,-8.287271 5.289721,-8.287271 0.205914,0 0.374389,0.04563 0.374389,0.101407 0,0.05577 -0.535781,1.968161 -1.190625,4.249749 -1.348243,4.69751 -1.410874,5.173844 -0.680289,5.173844 0.327027,0 1.063558,-0.733857 2.050521,-2.043076 2.186794,-2.90081 5.093073,-4.82459 5.537789,-3.665679 0.0795,0.207165 -0.519552,1.505051 -1.33122,2.884192 -1.44771,2.459869 -1.763745,3.353729 -1.185752,3.353729 0.159505,0 0.927605,-0.185354 1.70689,-0.411898 0.779285,-0.226545 1.988235,-0.375373 2.686555,-0.33073 1.139574,0.07285 1.261344,0.141264 1.188393,0.667643 -0.06322,0.456154 0.08376,0.623505 0.661458,0.753126 2.552859,0.572799 6.812666,1.851764 8.894839,2.670591 2.84162,1.11748 5.89192,2.60731 6.13133,2.99468 0.11403,0.1845 -9.329678,0.27908 -29.547503,0.29591 -16.343301,0.0136 -30.250874,0.0434 -30.905717,0.0661 -0.654844,0.0228 -2.262188,-0.0181 -3.571875,-0.0909 z"
         id="path5244" />
      <path
         style="fill:#c8b3ca"
         d="m 44.209989,102.53523 c 0.21872,-0.32427 0.605613,-0.55051 0.860072,-0.50294 0.254383,0.0476 0.534724,-0.0267 0.622979,-0.16508 0.244827,-0.38379 3.697585,-1.939207 5.177575,-2.332421 0.964607,-0.256282 1.361867,-0.269672 1.497343,-0.05047 0.128575,0.208039 0.317537,0.165226 0.624184,-0.141421 0.241882,-0.241882 0.724043,-0.439785 1.07147,-0.439785 0.827137,0 2.490692,-0.834996 2.499007,-1.254339 0.0036,-0.180563 -0.408735,-0.597282 -0.916256,-0.926041 -2.315937,-1.500206 -0.131479,-1.644844 3.2311,-0.213938 2.160086,0.919199 2.191977,0.92458 2.808397,0.473843 0.421827,-0.308448 0.376829,-0.514062 -0.610889,-2.791358 -1.177251,-2.714288 -1.341916,-3.754834 -0.5942,-3.754834 0.617179,0 2.87117,2.341952 4.26532,4.431771 1.054506,1.580697 1.708035,2.028861 1.940703,1.330858 0.05918,-0.177534 -0.288088,-1.865934 -0.771701,-3.752 -0.879182,-3.428762 -1.09443,-5.185629 -0.635332,-5.185629 0.373707,0 2.082827,2.091262 2.919179,3.571875 0.411001,0.727605 1.018298,2.096823 1.34955,3.042709 0.331251,0.945885 0.779547,1.928151 0.996214,2.182812 0.457298,0.537491 1.970555,0.622076 2.36674,0.132292 0.147139,-0.181901 0.40319,-1.364363 0.569003,-2.627693 0.350597,-2.671211 0.702136,-3.820526 1.230601,-4.023318 0.674258,-0.258737 1.191259,1.034675 1.484768,3.714537 0.156966,1.43316 0.382696,2.712469 0.501622,2.842911 0.119379,0.130937 0.417544,-0.224591 0.665681,-0.79375 2.289009,-5.250372 4.343319,-8.571541 5.301927,-8.571541 0.291724,0 0.363973,0.140671 0.237809,0.463021 -0.506841,1.294984 -2.036146,6.973793 -2.173197,8.069791 -0.143873,1.150558 -0.110152,1.256771 0.399007,1.256771 0.380751,0 0.882397,-0.479828 1.590531,-1.521354 1.895716,-2.788225 5.173515,-5.360896 5.902036,-4.632374 0.219353,0.219352 -0.126561,1.021128 -1.325566,3.072454 -0.892304,1.526606 -1.622372,2.903945 -1.622372,3.060752 0,0.399162 0.868125,0.355183 2.530966,-0.128218 0.78198,-0.227328 1.871868,-0.376156 2.421971,-0.330729 0.899754,0.0743 0.993216,0.151343 0.930761,0.767247 -0.07513,0.74091 -0.222169,0.682681 5.89026,2.332645 2.928868,0.790606 9.392708,3.448644 9.392708,3.862434 0,0.0682 -14.181194,0.12304 -31.513764,0.12193 l -31.513764,-0.002 z m 28.763306,-1.28172 c 0,-0.35679 -0.190214,-0.49831 -0.669762,-0.49831 -0.73546,0 -1.191933,0.72535 -0.66242,1.05261 0.527634,0.32609 1.332182,-0.009 1.332182,-0.5543 z"
         id="path5214" />
      <path
         style="fill:#cbbba4"
         d="m 44.209989,102.53523 c 0.21872,-0.32427 0.605613,-0.55051 0.860072,-0.50294 0.254383,0.0476 0.534724,-0.0267 0.622979,-0.16508 0.244827,-0.38379 3.697585,-1.939207 5.177575,-2.332421 0.964607,-0.256282 1.361867,-0.269672 1.497343,-0.05047 0.128575,0.208039 0.317537,0.165226 0.624184,-0.141421 0.241882,-0.241882 0.724043,-0.439785 1.07147,-0.439785 0.827137,0 2.490692,-0.834996 2.499007,-1.254339 0.0036,-0.180563 -0.408735,-0.597282 -0.916256,-0.926041 -2.315937,-1.500206 -0.131479,-1.644844 3.2311,-0.213938 2.160086,0.919199 2.191977,0.92458 2.808397,0.473843 0.421827,-0.308448 0.376829,-0.514062 -0.610889,-2.791358 -1.177251,-2.714288 -1.341916,-3.754834 -0.5942,-3.754834 0.617179,0 2.87117,2.341952 4.26532,4.431771 1.054506,1.580697 1.708035,2.028861 1.940703,1.330858 0.05918,-0.177534 -0.288088,-1.865934 -0.771701,-3.752 -0.879182,-3.428762 -1.09443,-5.185629 -0.635332,-5.185629 0.373707,0 2.082827,2.091262 2.919179,3.571875 0.411001,0.727605 1.018298,2.096823 1.34955,3.042709 0.331251,0.945885 0.779547,1.928151 0.996214,2.182812 0.457298,0.537491 1.970555,0.622076 2.36674,0.132292 0.147139,-0.181901 0.40319,-1.364363 0.569003,-2.627693 0.350597,-2.671211 0.702136,-3.820526 1.230601,-4.023318 0.674258,-0.258737 1.191259,1.034675 1.484768,3.714537 0.156966,1.43316 0.382696,2.712469 0.501622,2.842911 0.119379,0.130937 0.417544,-0.224591 0.665681,-0.79375 2.289009,-5.250372 4.343319,-8.571541 5.301927,-8.571541 0.291724,0 0.363973,0.140671 0.237809,0.463021 -0.506841,1.294984 -2.036146,6.973793 -2.173197,8.069791 -0.143873,1.150558 -0.110152,1.256771 0.399007,1.256771 0.380751,0 0.882397,-0.479828 1.590531,-1.521354 1.895716,-2.788225 5.173515,-5.360896 5.902036,-4.632374 0.219353,0.219352 -0.126561,1.021128 -1.325566,3.072454 -0.892304,1.526606 -1.622372,2.903945 -1.622372,3.060752 0,0.399162 0.868125,0.355183 2.530966,-0.128218 0.78198,-0.227328 1.871868,-0.376156 2.421971,-0.330729 0.899754,0.0743 0.993216,0.151343 0.930761,0.767247 -0.07513,0.74091 -0.222169,0.682681 5.89026,2.332645 2.928868,0.790606 9.392708,3.448644 9.392708,3.862434 0,0.0682 -14.181194,0.12304 -31.513764,0.12193 l -31.513764,-0.002 z m 28.763306,-1.28172 c 0,-0.35679 -0.190214,-0.49831 -0.669762,-0.49831 -0.73546,0 -1.191933,0.72535 -0.66242,1.05261 0.527634,0.32609 1.332182,-0.009 1.332182,-0.5543 z"
         id="path5179" />
      <path
         style="fill:#acab95"
         d="m 76.857639,98.097441 c -0.319071,-0.455538 -0.403798,-0.476455 -0.535866,-0.132292 -0.109027,0.284121 -0.516763,0.408799 -1.3369,0.408799 -1.559577,0 -2.126844,-0.548435 -1.894892,-1.831983 0.09404,-0.520378 0.329916,-2.028272 0.524172,-3.350876 0.373658,-2.544067 0.744536,-3.548391 1.310356,-3.548391 0.554481,0 0.936725,1.170119 1.23108,3.76856 0.461065,4.07008 0.440906,4.062455 1.823266,0.68962 0.676924,-1.651634 1.655435,-3.657815 2.174468,-4.45818 1.065849,-1.643569 2.420053,-3.082046 2.545943,-2.704377 0.04604,0.138125 -0.403635,1.928881 -0.999282,3.979456 -0.595647,2.050575 -1.126471,4.299195 -1.17961,4.996932 -0.05314,0.697738 -0.222211,1.596036 -0.375716,1.996218 -0.252653,0.65866 -0.403652,0.727605 -1.593562,0.727605 -1.024181,0 -1.398158,-0.119493 -1.693457,-0.541091 z"
         id="path5150" />
      <path
         style="fill:#acab95"
         d="m 62.673749,98.205975 c -0.301604,-0.383427 -0.54837,-0.948766 -0.54837,-1.256309 0,-0.307543 -0.484405,-1.663691 -1.076456,-3.013661 -1.085634,-2.475419 -1.205338,-3.224378 -0.550207,-3.442529 0.474093,-0.157867 2.96197,2.497337 4.162693,4.442662 0.525976,0.852148 1.142951,1.620978 1.371055,1.708509 0.916494,0.351692 0.90969,-0.368757 -0.04031,-4.267418 -1.060313,-4.351389 -1.121271,-4.851197 -0.591664,-4.851197 0.861451,0 3.333023,3.987482 4.263932,6.879166 0.257659,0.800365 0.579903,1.596259 0.716097,1.768654 0.136195,0.172395 0.209738,0.707681 0.163429,1.189525 -0.07918,0.82383 -0.161996,0.890206 -1.38866,1.112952 -1.227482,0.222895 -1.340719,0.19472 -1.91888,-0.477432 l -0.614419,-0.714305 -0.243664,0.640885 c -0.288809,0.759625 -0.765742,0.977638 -2.13872,0.977638 -0.784074,0 -1.143288,-0.159927 -1.56586,-0.69714 z"
         id="path5149" />
      <path
         style="fill:#acab95"
         d="m 60.008712,98.991095 c -0.841373,-0.132974 -3.175,-1.177384 -3.175,-1.420964 0,-0.101309 -0.47625,-0.499364 -1.058333,-0.884569 -2.428311,-1.60698 -0.375502,-1.570382 3.549282,0.06328 2.386466,0.993347 3.064228,1.656903 2.231439,2.184665 -0.36711,0.232648 -0.425898,0.234836 -1.547388,0.05759 z"
         id="path5148" />
      <path
         style="fill:#acab95"
         d="m 86.070169,99.239988 c -0.436562,-0.06215 -0.901286,-0.217336 -1.03272,-0.344848 -0.136908,-0.132823 -0.433435,-0.127767 -0.69429,0.01184 -0.646522,0.346008 -3.182634,7.11e-4 -3.35837,-0.45725 -0.208972,-0.544573 0.213708,-1.326616 2.002977,-3.705906 1.603611,-2.132411 2.9083,-3.346069 4.437921,-4.128278 1.554499,-0.794931 1.538952,-0.08613 -0.05633,2.568027 -0.667894,1.111212 -1.421144,2.586143 -1.673889,3.277624 l -0.459536,1.257237 1.210867,-0.596315 c 1.639977,-0.807639 4.092255,-1.282695 4.854925,-0.940498 0.584541,0.262273 0.581959,0.271252 -0.321347,1.11732 -0.97737,0.91544 -3.220167,2.158708 -3.776935,2.0937 -0.186739,-0.0218 -0.696712,-0.0905 -1.133275,-0.152651 z"
         id="path5147" />
      <path
         style="fill:#92976f"
         d="m 73.672086,97.772892 c -0.476769,-0.348996 -0.477722,-0.460798 -0.03113,-3.649796 0.48654,-3.474247 0.71481,-4.215814 1.297713,-4.215814 0.522817,0 0.687787,0.593369 1.063121,3.823856 0.420867,3.62239 0.292625,4.219054 -0.929338,4.323857 -0.499694,0.04286 -1.12986,-0.08409 -1.400368,-0.282103 z"
         id="path5108" />
      <path
         style="fill:#92976f"
         d="m 67.444893,97.514052 c -0.40045,-1.057687 -2.149933,-8.513076 -2.147181,-9.150173 0.0043,-0.989076 0.556385,-0.556813 1.998571,1.564728 1.264144,1.859632 3.031179,6.141712 3.031179,7.345499 0,0.602079 -0.487741,0.835259 -1.747104,0.835259 -0.700609,0 -0.961951,-0.137019 -1.135465,-0.595313 z"
         id="path5107" />
      <path
         style="fill:#92976f"
         d="m 77.537357,98.19872 c -0.181901,-0.0734 -0.330729,-0.436547 -0.330729,-0.806997 0,-0.851401 1.112786,-3.957057 2.160331,-6.029233 1.171364,-2.317105 3.131335,-4.7911 3.131335,-3.952561 0,0.08166 -0.418514,1.599711 -0.930031,3.373437 -0.511517,1.773727 -1.052338,3.986342 -1.201824,4.916923 -0.367767,2.289425 -0.609299,2.678273 -1.647766,2.652771 -0.467823,-0.01149 -0.999415,-0.08094 -1.181316,-0.15434 z"
         id="path5106" />
      <path
         style="fill:#92976f"
         d="m 62.952227,97.959056 c -0.309246,-0.393142 -0.562546,-0.847575 -0.56289,-1.009852 -3.44e-4,-0.162276 -0.476594,-1.398292 -1.058334,-2.746702 -1.584427,-3.672535 -1.336712,-4.492341 0.718238,-2.376991 1.252064,1.288865 4.044888,5.358355 4.044888,5.893902 0,0.465489 -0.175861,0.556946 -1.488256,0.773971 -0.977405,0.161629 -1.1501,0.105827 -1.653646,-0.534328 z"
         id="path5105" />
      <path
         style="fill:#92976f"
         d="m 58.274862,98.164421 c -1.648029,-0.921995 -3.387329,-2.272649 -3.064969,-2.380102 0.92982,-0.30994 6.121736,1.776391 6.121736,2.459972 0,0.555428 -2.015321,0.502769 -3.056767,-0.07987 z"
         id="path5104" />
      <path
         style="fill:#92976f"
         d="m 82.236715,98.669847 c -0.52726,-0.09346 -0.95648,-0.338638 -1.001032,-0.571816 -0.117714,-0.616095 2.527219,-4.38512 4.017649,-5.725145 2.623374,-2.358639 3.939339,-2.46565 2.496192,-0.202984 -0.459279,0.72009 -1.411669,2.457259 -2.116423,3.860375 -1.136167,2.262031 -1.697719,2.955981 -2.29655,2.838008 -0.09724,-0.01916 -0.592165,-0.108454 -1.099836,-0.198438 z"
         id="path5103" />
      <path
         style="fill:#92976f"
         d="m 86.202461,98.976971 c -1.074799,-0.192816 -1.139517,-0.487672 -0.268001,-1.221004 0.912494,-0.767813 3.066588,-1.498685 4.417065,-1.498685 0.981266,0 1.102603,0.249738 0.414998,0.854157 -0.63826,0.561043 -3.36139,2.064384 -3.659414,2.020228 -0.133754,-0.01982 -0.540846,-0.08943 -0.904648,-0.154696 z"
         id="path5102" />
      <path
         style="fill:#966996"
         d="m 73.806073,97.494927 c -0.21163,-0.254999 -0.18841,-1.171585 0.08565,-3.380812 0.393048,-3.168433 0.578806,-3.942256 0.946351,-3.942256 0.435752,0 0.606642,0.66121 0.91127,3.525912 0.399964,3.761223 0.326462,4.147005 -0.790119,4.147005 -0.47454,0 -0.993457,-0.157432 -1.153149,-0.349849 z"
         id="path5047" />
      <path
         style="fill:#966996"
         d="m 67.76845,97.514047 c -0.253815,-0.401661 -1.852875,-6.790834 -2.069344,-8.268229 l -0.155067,-1.058333 0.901639,0.995938 c 1.663516,1.837497 3.947114,7.155399 3.534444,8.230799 -0.199625,0.520216 -1.897593,0.596855 -2.211672,0.09983 z"
         id="path5046" />
      <path
         style="fill:#966996"
         d="M 77.76311,97.867257 C 76.890977,97.315041 79.382012,90.862359 81.310592,88.678 l 0.900277,-1.019677 -0.527444,1.852084 c -0.290093,1.018646 -0.778875,2.923646 -1.086181,4.233333 -0.307306,1.309687 -0.664718,2.827734 -0.79425,3.373437 -0.200885,0.846308 -0.340991,0.991592 -0.952918,0.988136 -0.394574,-0.0022 -0.883708,-0.109351 -1.086966,-0.238051 z"
         id="path5045" />
      <path
         style="fill:#966996"
         d="m 63.317353,97.918057 c -0.392624,-0.458552 -1.769145,-3.514358 -2.655066,-5.894109 -0.549737,-1.476699 0.08214,-1.328672 1.63842,0.383827 1.338548,1.47291 3.528838,4.835223 3.528838,5.417118 0,0.15646 -0.208359,0.286098 -0.463021,0.288085 -0.254661,0.002 -0.722148,0.07311 -1.03886,0.158058 -0.382391,0.102561 -0.721798,-0.01602 -1.010311,-0.352979 z"
         id="path5044" />
      <path
         style="fill:#966996"
         d="m 57.379715,97.284832 c -0.897031,-0.599014 -1.58569,-1.134391 -1.530354,-1.189726 0.159492,-0.159493 2.869692,0.699273 3.960914,1.255073 1.232644,0.627831 1.269886,1.023769 0.0963,1.023769 -0.608894,0 -1.418369,-0.348897 -2.526856,-1.089116 z"
         id="path5043" />
      <path
         style="fill:#966996"
         d="m 82.519326,98.405264 c -0.497755,-0.08998 -0.946683,-0.289999 -0.997616,-0.444478 -0.199374,-0.604687 2.990058,-4.720343 4.638885,-5.986037 1.938,-1.487673 2.433568,-1.612405 1.644143,-0.413821 -0.311495,0.472942 -1.169574,2.05052 -1.906843,3.505729 -1.293871,2.553822 -1.985591,3.610173 -2.316129,3.537045 -0.08659,-0.01916 -0.564684,-0.108454 -1.06244,-0.198438 z"
         id="path5042" />
      <path
         style="fill:#966996"
         d="m 86.385212,98.693594 c -1.058855,-0.132823 -0.767134,-0.598741 0.915178,-1.461664 1.084828,-0.55645 1.745676,-0.723952 2.609667,-0.661458 l 1.156972,0.08369 -1.572388,0.951691 c -1.841521,1.114583 -2.119704,1.211898 -3.109429,1.087746 z"
         id="path5041" />
      <path
         style="fill:#8c5771"
         d="m 73.806073,97.494927 c -0.21163,-0.254999 -0.18841,-1.171585 0.08565,-3.380812 0.393048,-3.168433 0.578806,-3.942256 0.946351,-3.942256 0.435752,0 0.606642,0.66121 0.91127,3.525912 0.399964,3.761223 0.326462,4.147005 -0.790119,4.147005 -0.47454,0 -0.993457,-0.157432 -1.153149,-0.349849 z"
         id="path4996" />
      <path
         style="fill:#8c5771"
         d="m 67.76845,97.514047 c -0.253815,-0.401661 -1.852875,-6.790834 -2.069344,-8.268229 l -0.155067,-1.058333 0.901639,0.995938 c 1.663516,1.837497 3.947114,7.155399 3.534444,8.230799 -0.199625,0.520216 -1.897593,0.596855 -2.211672,0.09983 z"
         id="path4995" />
      <path
         style="fill:#8c5771"
         d="M 77.76311,97.867257 C 76.890977,97.315041 79.382012,90.862359 81.310592,88.678 l 0.900277,-1.019677 -0.527444,1.852084 c -0.290093,1.018646 -0.778875,2.923646 -1.086181,4.233333 -0.307306,1.309687 -0.664718,2.827734 -0.79425,3.373437 -0.200885,0.846308 -0.340991,0.991592 -0.952918,0.988136 -0.394574,-0.0022 -0.883708,-0.109351 -1.086966,-0.238051 z"
         id="path4994" />
      <path
         style="fill:#8c5771"
         d="m 63.317353,97.918057 c -0.392624,-0.458552 -1.769145,-3.514358 -2.655066,-5.894109 -0.549737,-1.476699 0.08214,-1.328672 1.63842,0.383827 1.338548,1.47291 3.528838,4.835223 3.528838,5.417118 0,0.15646 -0.208359,0.286098 -0.463021,0.288085 -0.254661,0.002 -0.722148,0.07311 -1.03886,0.158058 -0.382391,0.102561 -0.721798,-0.01602 -1.010311,-0.352979 z"
         id="path4993" />
      <path
         style="fill:#8c5771"
         d="m 57.379715,97.284832 c -0.897031,-0.599014 -1.58569,-1.134391 -1.530354,-1.189726 0.159492,-0.159493 2.869692,0.699273 3.960914,1.255073 1.232644,0.627831 1.269886,1.023769 0.0963,1.023769 -0.608894,0 -1.418369,-0.348897 -2.526856,-1.089116 z"
         id="path4992" />
      <path
         style="fill:#8c5771"
         d="m 82.519326,98.405264 c -0.497755,-0.08998 -0.946683,-0.289999 -0.997616,-0.444478 -0.199374,-0.604687 2.990058,-4.720343 4.638885,-5.986037 1.938,-1.487673 2.433568,-1.612405 1.644143,-0.413821 -0.311495,0.472942 -1.169574,2.05052 -1.906843,3.505729 -1.293871,2.553822 -1.985591,3.610173 -2.316129,3.537045 -0.08659,-0.01916 -0.564684,-0.108454 -1.06244,-0.198438 z"
         id="path4991" />
      <path
         style="fill:#8c5771"
         d="m 86.385212,98.693594 c -1.058855,-0.132823 -0.767134,-0.598741 0.915178,-1.461664 1.084828,-0.55645 1.745676,-0.723952 2.609667,-0.661458 l 1.156972,0.08369 -1.572388,0.951691 c -1.841521,1.114583 -2.119704,1.211898 -3.109429,1.087746 z"
         id="path4990" />
      <path
         style="fill:#728454"
         d="m 73.806073,97.494927 c -0.21163,-0.254999 -0.18841,-1.171585 0.08565,-3.380812 0.393048,-3.168433 0.578806,-3.942256 0.946351,-3.942256 0.435752,0 0.606642,0.66121 0.91127,3.525912 0.399964,3.761223 0.326462,4.147005 -0.790119,4.147005 -0.47454,0 -0.993457,-0.157432 -1.153149,-0.349849 z"
         id="path4946" />
      <path
         style="fill:#728454"
         d="m 67.76845,97.514047 c -0.253815,-0.401661 -1.852875,-6.790834 -2.069344,-8.268229 l -0.155067,-1.058333 0.901639,0.995938 c 1.663516,1.837497 3.947114,7.155399 3.534444,8.230799 -0.199625,0.520216 -1.897593,0.596855 -2.211672,0.09983 z"
         id="path4945" />
      <path
         style="fill:#728454"
         d="M 77.76311,97.867257 C 76.890977,97.315041 79.382012,90.862359 81.310592,88.678 l 0.900277,-1.019677 -0.527444,1.852084 c -0.290093,1.018646 -0.778875,2.923646 -1.086181,4.233333 -0.307306,1.309687 -0.664718,2.827734 -0.79425,3.373437 -0.200885,0.846308 -0.340991,0.991592 -0.952918,0.988136 -0.394574,-0.0022 -0.883708,-0.109351 -1.086966,-0.238051 z"
         id="path4944" />
      <path
         style="fill:#728454"
         d="m 63.317353,97.918057 c -0.392624,-0.458552 -1.769145,-3.514358 -2.655066,-5.894109 -0.549737,-1.476699 0.08214,-1.328672 1.63842,0.383827 1.338548,1.47291 3.528838,4.835223 3.528838,5.417118 0,0.15646 -0.208359,0.286098 -0.463021,0.288085 -0.254661,0.002 -0.722148,0.07311 -1.03886,0.158058 -0.382391,0.102561 -0.721798,-0.01602 -1.010311,-0.352979 z"
         id="path4943" />
      <path
         style="fill:#728454"
         d="m 57.379715,97.284832 c -0.897031,-0.599014 -1.58569,-1.134391 -1.530354,-1.189726 0.159492,-0.159493 2.869692,0.699273 3.960914,1.255073 1.232644,0.627831 1.269886,1.023769 0.0963,1.023769 -0.608894,0 -1.418369,-0.348897 -2.526856,-1.089116 z"
         id="path4942" />
      <path
         style="fill:#728454"
         d="m 82.519326,98.405264 c -0.497755,-0.08998 -0.946683,-0.289999 -0.997616,-0.444478 -0.199374,-0.604687 2.990058,-4.720343 4.638885,-5.986037 1.938,-1.487673 2.433568,-1.612405 1.644143,-0.413821 -0.311495,0.472942 -1.169574,2.05052 -1.906843,3.505729 -1.293871,2.553822 -1.985591,3.610173 -2.316129,3.537045 -0.08659,-0.01916 -0.564684,-0.108454 -1.06244,-0.198438 z"
         id="path4941" />
      <path
         style="fill:#728454"
         d="m 86.385212,98.693594 c -1.058855,-0.132823 -0.767134,-0.598741 0.915178,-1.461664 1.084828,-0.55645 1.745676,-0.723952 2.609667,-0.661458 l 1.156972,0.08369 -1.572388,0.951691 c -1.841521,1.114583 -2.119704,1.211898 -3.109429,1.087746 z"
         id="path4940" />
      <path
         style="fill:#667849"
         d="m 73.973728,97.274207 c -0.196346,-0.589041 0.107957,-1.554265 0.567555,-1.800234 0.661435,-0.353989 1.118805,0.06837 1.167188,1.077842 0.03941,0.822331 -0.02561,0.90275 -0.789981,0.976989 -0.499777,0.04854 -0.87766,-0.05329 -0.944762,-0.254597 z"
         id="path4878" />
      <path
         style="fill:#667849"
         d="m 77.90339,97.63732 c -0.147425,-0.238539 0.666303,-3.274483 1.167706,-4.356602 0.345291,-0.7452 0.922154,-0.966696 1.10319,-0.423588 0.05574,0.167208 -0.0471,1.209005 -0.228515,2.315104 -0.18142,1.106099 -0.336163,2.159916 -0.343874,2.341817 -0.01523,0.359234 -1.486673,0.466024 -1.698507,0.123269 z"
         id="path4877" />
      <path
         style="fill:#667849"
         d="m 68.23073,97.59939 c -0.423751,-0.269617 -1.645735,-4.903186 -1.436729,-5.447847 0.24508,-0.638669 0.876537,-0.655069 1.283906,-0.03335 0.486257,0.742122 1.720388,4.313966 1.720388,4.979177 0,0.265553 -0.109325,0.482824 -0.242944,0.482824 -0.133619,0 -0.401509,0.05828 -0.595312,0.129513 -0.193803,0.07123 -0.521992,0.02159 -0.729309,-0.110321 z"
         id="path4876" />
      <path
         style="fill:#667849"
         d="m 63.0994,97.381761 c -0.199366,-0.400183 -0.520276,-1.322917 -0.713133,-2.050521 -0.192857,-0.727604 -0.708536,-1.964882 -1.145954,-2.749506 -0.437418,-0.784625 -0.67194,-1.379937 -0.521159,-1.322917 0.338057,0.127842 2.344683,2.441605 2.933102,3.382047 0.237576,0.379707 0.776971,1.139185 1.198656,1.68773 0.939232,1.221792 0.794376,1.780771 -0.461477,1.780771 -0.747609,0 -0.997871,-0.141152 -1.290035,-0.727604 z"
         id="path4875" />
      <path
         style="fill:#667849"
         d="m 58.384378,97.589001 c -0.538057,-0.448247 -0.558633,-0.521584 -0.148464,-0.529167 0.484508,-0.009 2.037382,0.695333 2.037382,0.924034 0,0.34205 -1.340795,0.06176 -1.888918,-0.394867 z"
         id="path4874" />
      <path
         style="fill:#667849"
         d="m 82.299857,98.191781 c -0.798318,-0.159875 -0.756819,-0.364499 0.347007,-1.711029 0.518276,-0.632231 1.119005,-1.365558 1.334954,-1.629615 0.215948,-0.264057 0.595576,-0.43777 0.843617,-0.38603 0.586903,0.122424 0.487858,1.027332 -0.283037,2.585925 -0.595758,1.204499 -0.971019,1.395389 -2.242541,1.140749 z"
         id="path4873" />
      <path
         style="fill:#667849"
         d="m 86.522147,98.456976 c -0.897682,-0.353236 1.440426,-1.673107 2.953772,-1.667415 l 0.827583,0.0031 -1.190625,0.763636 c -1.311671,0.841272 -2.070901,1.105218 -2.59073,0.900667 z"
         id="path4872" />
      <path
         style="fill:#6a2969"
         d="m 78.264961,97.298221 c 0,-0.155088 0.13186,-0.528361 0.293023,-0.829495 0.235026,-0.439151 0.338959,-0.474984 0.525115,-0.181044 0.414466,0.654442 0.27181,1.292516 -0.288971,1.292516 -0.291042,0 -0.529167,-0.12689 -0.529167,-0.281977 z"
         id="path4807" />
      <path
         style="fill:#6a2969"
         d="m 68.387184,97.403809 c -0.341053,-0.341053 -0.186057,-1.675694 0.194603,-1.675694 0.388045,0 1.022624,1.428606 0.753931,1.697299 -0.20805,0.20805 -0.730785,0.196144 -0.948534,-0.02161 z"
         id="path4806" />
      <path
         style="fill:#6a2969"
         d="m 63.501212,97.527282 c -0.428327,-0.428328 -0.400432,-0.916978 0.06249,-1.094617 0.399276,-0.153217 1.736679,0.745278 1.736679,1.166737 0,0.357699 -1.42653,0.300516 -1.799167,-0.07212 z"
         id="path4805" />
      <path
         style="fill:#6a2969"
         d="m 83.108459,97.674229 c -0.102231,-0.26641 0.02319,-0.57419 0.323457,-0.79375 0.893177,-0.653107 1.196992,-0.315098 0.644569,0.717113 -0.335246,0.626414 -0.74462,0.658824 -0.968026,0.07664 z"
         id="path4804" />
      <path
         style="fill:#526736"
         d="m 78.264961,97.298221 c 0,-0.155088 0.13186,-0.528361 0.293023,-0.829495 0.235026,-0.439151 0.338959,-0.474984 0.525115,-0.181044 0.414466,0.654442 0.27181,1.292516 -0.288971,1.292516 -0.291042,0 -0.529167,-0.12689 -0.529167,-0.281977 z"
         id="path4745" />
      <path
         style="fill:#526736"
         d="m 68.387184,97.403809 c -0.341053,-0.341053 -0.186057,-1.675694 0.194603,-1.675694 0.388045,0 1.022624,1.428606 0.753931,1.697299 -0.20805,0.20805 -0.730785,0.196144 -0.948534,-0.02161 z"
         id="path4744" />
      <path
         style="fill:#526736"
         d="m 63.501212,97.527282 c -0.428327,-0.428328 -0.400432,-0.916978 0.06249,-1.094617 0.399276,-0.153217 1.736679,0.745278 1.736679,1.166737 0,0.357699 -1.42653,0.300516 -1.799167,-0.07212 z"
         id="path4743" />
      <path
         style="fill:#526736"
         d="m 83.108459,97.674229 c -0.102231,-0.26641 0.02319,-0.57419 0.323457,-0.79375 0.893177,-0.653107 1.196992,-0.315098 0.644569,0.717113 -0.335246,0.626414 -0.74462,0.658824 -0.968026,0.07664 z"
         id="path4742" />
    </g>
  </g>
</svg>
