<?xml version="1.0" encoding="UTF-8" standalone="no"?>
<!-- Created with Inkscape (http://www.inkscape.org/) -->

<svg
   width="185"
   height="185"
   viewBox="0 0 48.947914 48.947918"
   version="1.1"
   id="svg1"
   xmlns="http://www.w3.org/2000/svg"
   xmlns:svg="http://www.w3.org/2000/svg">
  <defs
     id="defs1" />
  <g
     id="g12793"
     transform="translate(-166.10496,-176.12699)">
    <path
       style="fill:#9ca89b"
       d="m 175.43415,224.66304 c -0.32342,-0.22654 -0.58804,-0.6365 -0.58804,-0.91104 0,-1.13686 0.86068,-1.32292 6.11952,-1.32292 4.56855,0 4.93609,-0.0351 4.84657,-0.46302 -1.00502,-4.80357 -2.07752,-7.18247 -4.64211,-10.29659 -1.63969,-1.99105 -1.81887,-2.45573 -1.15831,-3.00395 0.57959,-0.48102 1.14396,-0.12318 2.85301,1.80892 2.78251,3.14568 3.74128,5.0397 4.98004,9.83797 l 0.30739,1.19063 0.36367,-1.32292 c 0.20002,-0.7276 0.51907,-2.33494 0.709,-3.57187 0.30893,-2.01195 0.29441,-2.48466 -0.13779,-4.48555 -0.60339,-2.79345 -1.62391,-5.00015 -3.21679,-6.95578 -1.34269,-1.64847 -1.49292,-2.16015 -0.75082,-2.5573 1.25978,-0.67422 4.12033,2.67844 5.19918,6.09359 0.36686,1.16134 0.68127,2.31374 0.69868,2.56088 0.0174,0.24715 0.18705,-0.50313 0.377,-1.6673 0.70396,-4.31466 0.37429,-7.09877 -1.2313,-10.39828 -0.85374,-1.75446 -0.85456,-2.43401 -0.003,-2.43401 1.11654,0 3.00676,3.1599 3.61951,6.05074 0.54307,2.56216 0.47179,3.85159 -0.40629,7.34935 -0.79685,3.17419 -2.4784,9.41872 -2.73263,10.14782 -0.0761,0.21829 -0.20525,0.78383 -0.28696,1.25678 -0.14691,0.85026 -0.13685,0.85989 0.8981,0.85989 1.23065,0 1.21235,0.0475 1.45458,-3.77346 0.30621,-4.83016 1.74118,-8.11285 4.62567,-10.58188 1.12725,-0.96487 2.43358,-1.36509 2.90783,-0.89084 0.55171,0.55171 0.23656,1.1982 -1.02642,2.10556 -2.0876,1.49979 -3.09049,3.28983 -3.95276,7.05521 -0.32147,1.4038 -0.68668,4.49791 -0.5309,4.49791 0.0596,0 0.68586,-0.8632 1.39173,-1.91823 1.72832,-2.58325 5.24204,-5.81465 6.20185,-5.70353 0.49869,0.0577 0.72564,0.25625 0.78691,0.6883 0.0654,0.46109 -0.47724,1.19643 -2.25552,3.05654 -2.14969,2.24861 -4.04829,4.70855 -4.04829,5.2452 0,0.12057 1.94608,0.21922 4.32461,0.21922 3.85361,0 4.37231,0.0527 4.7625,0.48386 0.54993,0.60766 0.55757,1.21075 0.0221,1.7462 -0.36802,0.36803 -2.10845,0.41577 -15.15467,0.41577 -12.91163,0 -14.81179,-0.0511 -15.32693,-0.41187 z"
       id="path12753" />
    <path
       style="fill:#8c708c"
       d="m 175.12123,224.42611 c -0.44286,-0.53362 -0.12863,-1.32915 0.66846,-1.69233 0.42684,-0.19448 2.42175,-0.30474 5.51382,-0.30474 h 4.84501 l -0.7588,-2.79162 c -1.0457,-3.84718 -1.84172,-5.2905 -5.11618,-9.27651 -0.72879,-0.88716 -0.67711,-1.55611 0.13665,-1.76891 0.55472,-0.14506 2.0089,1.27468 3.87462,3.78288 1.69601,2.28004 2.37137,3.78831 3.17574,7.09229 0.69524,2.85572 0.75842,2.99593 0.91144,2.02294 0.0904,-0.57499 0.37053,-1.93841 0.62243,-3.02982 0.63797,-2.76409 0.61559,-5.27126 -0.0688,-7.70823 -0.65044,-2.31604 -1.22014,-3.39322 -3.03568,-5.73976 -1.26219,-1.63136 -1.45354,-2.42701 -0.58369,-2.42701 1.68448,0 4.22478,3.45047 5.16747,7.01894 0.3266,1.23631 0.62551,2.21615 0.66424,2.17742 0.0387,-0.0387 0.25477,-1.30814 0.48008,-2.82091 0.59182,-3.97357 -0.029,-7.78126 -1.71406,-10.5128 -0.93379,-1.51371 0.0217,-2.28352 1.22406,-0.98618 2.56668,2.76949 3.47756,7.72202 2.28056,12.39957 -0.29791,1.16417 -1.15895,4.34211 -1.91341,7.0621 -0.75446,2.71998 -1.31026,5.10566 -1.23511,5.30151 0.0923,0.2406 0.4755,0.32377 1.18148,0.25644 l 1.04485,-0.0996 0.30202,-3.34979 c 0.36659,-4.06599 0.98212,-6.38387 2.15708,-8.12287 2.12402,-3.14366 5.317,-5.01353 5.29057,-3.09827 -0.007,0.53779 -0.27114,0.90795 -1.01087,1.4189 -1.5309,1.05744 -2.81908,2.8322 -3.43511,4.73267 -0.65531,2.02164 -1.17114,5.15991 -1.05202,6.40041 l 0.0841,0.87563 0.89775,-1.58442 c 1.06123,-1.87295 4.50309,-5.49481 5.81194,-6.1159 0.86558,-0.41074 0.94148,-0.40893 1.26256,0.0302 0.4569,0.62485 0.12664,1.22985 -1.59023,2.91315 -2.55369,2.50374 -3.81658,3.98832 -4.22573,4.96754 l -0.40949,0.98007 h 4.07031 c 2.23868,0 4.35949,0.10994 4.71292,0.24432 0.78742,0.29938 1.0681,0.94755 0.70451,1.62693 -0.26466,0.49451 -0.7338,0.51 -15.44478,0.51 -12.94045,0 -15.21873,-0.0565 -15.49068,-0.38418 z"
       id="path12709" />
    <path
       style="fill:#4e8561"
       d="m 175.2791,224.32099 c -0.41965,-0.46371 -0.41789,-0.5291 0.0291,-1.08113 0.463,-0.57178 0.61104,-0.58679 5.51067,-0.5586 2.76919,0.0159 5.10158,-0.0377 5.1831,-0.11925 0.27366,-0.27365 -0.96464,-4.87501 -1.79528,-6.67104 -0.59518,-1.28691 -2.1751,-3.5851 -3.50631,-5.10035 -0.81556,-0.92832 -0.98868,-1.28906 -0.79356,-1.65365 0.37761,-0.70556 1.08538,-0.5622 1.94308,0.39359 1.85936,2.07202 3.41342,4.13177 4.04242,5.35782 0.74136,1.44509 1.91835,5.61659 1.91835,6.79905 0,1.05798 0.65744,0.94335 0.6786,-0.11832 0.009,-0.47295 0.23095,-1.75287 0.49227,-2.84428 0.77081,-3.21926 0.78561,-4.84431 0.0692,-7.59699 -0.63677,-2.44659 -1.711,-4.56084 -3.24391,-6.38447 -1.11698,-1.32882 -1.26778,-1.8272 -0.6155,-2.03422 0.72776,-0.23098 1.61281,0.40857 2.98521,2.15715 1.09281,1.39234 1.86615,3.24178 2.55887,6.11947 0.14888,0.61847 0.39219,1.12448 0.54069,1.12448 0.1485,0 0.19522,-0.121 0.10382,-0.26889 -0.0914,-0.14789 0.0293,-1.41668 0.2683,-2.81953 0.64321,-3.77597 0.0995,-7.32661 -1.58295,-10.3368 -1.08166,-1.93531 -0.27714,-2.61945 1.1581,-0.9848 1.76259,2.00747 2.67275,4.73548 2.67275,8.01094 0,1.73052 -1.03363,6.29795 -2.79536,12.35221 -0.3811,1.30968 -0.75348,2.88726 -0.8275,3.50573 l -0.13459,1.12447 h 1.21727 c 1.08394,0 1.21801,-0.0652 1.22409,-0.59531 0.01,-0.85609 0.48763,-5.47847 0.66323,-6.41614 0.53517,-2.85761 1.67864,-5.05128 3.61232,-6.92995 1.72333,-1.67431 3.39054,-2.18083 3.39054,-1.03009 0,0.45957 -0.3659,0.90752 -1.30344,1.59574 -0.71689,0.52625 -1.65667,1.4901 -2.08841,2.1419 -1.2368,1.86723 -2.58007,7.74104 -2.1455,9.38177 0.16845,0.63601 0.19288,0.62074 0.63485,-0.39687 0.57144,-1.31573 1.67272,-2.67867 3.95325,-4.89251 1.91676,-1.86071 2.71552,-2.39986 3.25102,-2.19436 0.84032,0.32246 0.21936,1.37139 -2.46362,4.16154 -2.42504,2.52192 -3.54232,4.08349 -3.54232,4.95097 0,0.13723 1.88118,0.22269 4.36365,0.19823 4.74986,-0.0468 5.25292,0.0837 5.10858,1.32535 l -0.0795,0.68411 -15.10444,0.0683 c -14.45286,0.0653 -15.12371,0.047 -15.55111,-0.42526 z"
       id="path12654" />
    <path
       style="fill:#4a835d"
       d="m 175.2791,224.32115 c -0.41965,-0.46371 -0.41789,-0.5291 0.0291,-1.08113 0.463,-0.57178 0.61104,-0.58679 5.51067,-0.5586 2.76919,0.0159 5.10158,-0.0377 5.1831,-0.11925 0.27366,-0.27365 -0.96464,-4.87501 -1.79528,-6.67104 -0.59518,-1.28691 -2.1751,-3.5851 -3.50631,-5.10035 -0.81556,-0.92832 -0.98868,-1.28906 -0.79356,-1.65365 0.37761,-0.70556 1.08538,-0.5622 1.94308,0.39359 1.85936,2.07202 3.41342,4.13177 4.04242,5.35782 0.74136,1.44509 1.91835,5.61659 1.91835,6.79905 0,1.05798 0.65744,0.94335 0.6786,-0.11832 0.009,-0.47295 0.23095,-1.75287 0.49227,-2.84428 0.77081,-3.21926 0.78561,-4.84431 0.0692,-7.59699 -0.63677,-2.44659 -1.711,-4.56084 -3.24391,-6.38447 -1.11698,-1.32882 -1.26778,-1.8272 -0.6155,-2.03422 0.72776,-0.23098 1.61281,0.40857 2.98521,2.15715 1.09281,1.39234 1.86615,3.24178 2.55887,6.11947 0.14888,0.61847 0.39219,1.12448 0.54069,1.12448 0.1485,0 0.19522,-0.121 0.10382,-0.26889 -0.0914,-0.14789 0.0293,-1.41668 0.2683,-2.81953 0.64321,-3.77597 0.0995,-7.32661 -1.58295,-10.3368 -1.08166,-1.93531 -0.27714,-2.61945 1.1581,-0.9848 1.76259,2.00747 2.67275,4.73548 2.67275,8.01094 0,1.73052 -1.03363,6.29795 -2.79536,12.35221 -0.3811,1.30968 -0.75348,2.88726 -0.8275,3.50573 l -0.13459,1.12447 h 1.21727 c 1.08394,0 1.21801,-0.0652 1.22409,-0.59531 0.01,-0.85609 0.48763,-5.47847 0.66323,-6.41614 0.53517,-2.85761 1.67864,-5.05128 3.61232,-6.92995 1.72333,-1.67431 3.39054,-2.18083 3.39054,-1.03009 0,0.45957 -0.3659,0.90752 -1.30344,1.59574 -0.71689,0.52625 -1.65667,1.4901 -2.08841,2.1419 -1.2368,1.86723 -2.58007,7.74104 -2.1455,9.38177 0.16845,0.63601 0.19288,0.62074 0.63485,-0.39687 0.57144,-1.31573 1.67272,-2.67867 3.95325,-4.89251 1.91676,-1.86071 2.71552,-2.39986 3.25102,-2.19436 0.84032,0.32246 0.21936,1.37139 -2.46362,4.16154 -2.42504,2.52192 -3.54232,4.08349 -3.54232,4.95097 0,0.13723 1.88118,0.22269 4.36365,0.19823 4.74986,-0.0468 5.25292,0.0837 5.10858,1.32535 l -0.0795,0.68411 -15.10444,0.0683 c -14.45286,0.0653 -15.12371,0.047 -15.55111,-0.42526 z"
       id="path12569" />
    <path
       style="fill:#5b6f57"
       d="m 175.2791,224.32104 c -0.41965,-0.46371 -0.41789,-0.5291 0.0291,-1.08113 0.463,-0.57178 0.61104,-0.58679 5.51067,-0.5586 2.76919,0.0159 5.10158,-0.0377 5.1831,-0.11925 0.27366,-0.27365 -0.96464,-4.87501 -1.79528,-6.67104 -0.59518,-1.28691 -2.1751,-3.5851 -3.50631,-5.10035 -0.81556,-0.92832 -0.98868,-1.28906 -0.79356,-1.65365 0.37761,-0.70556 1.08538,-0.5622 1.94308,0.39359 1.85936,2.07202 3.41342,4.13177 4.04242,5.35782 0.74136,1.44509 1.91835,5.61659 1.91835,6.79905 0,1.05798 0.65744,0.94335 0.6786,-0.11832 0.009,-0.47295 0.23095,-1.75287 0.49227,-2.84428 0.77081,-3.21926 0.78561,-4.84431 0.0692,-7.59699 -0.63677,-2.44659 -1.711,-4.56084 -3.24391,-6.38447 -1.11698,-1.32882 -1.26778,-1.8272 -0.6155,-2.03422 0.72776,-0.23098 1.61281,0.40857 2.98521,2.15715 1.09281,1.39234 1.86615,3.24178 2.55887,6.11947 0.14888,0.61847 0.39219,1.12448 0.54069,1.12448 0.1485,0 0.19522,-0.121 0.10382,-0.26889 -0.0914,-0.14789 0.0293,-1.41668 0.2683,-2.81953 0.64321,-3.77597 0.0995,-7.32661 -1.58295,-10.3368 -1.08166,-1.93531 -0.27714,-2.61945 1.1581,-0.9848 1.76259,2.00747 2.67275,4.73548 2.67275,8.01094 0,1.73052 -1.03363,6.29795 -2.79536,12.35221 -0.3811,1.30968 -0.75348,2.88726 -0.8275,3.50573 l -0.13459,1.12447 h 1.21727 c 1.08394,0 1.21801,-0.0652 1.22409,-0.59531 0.01,-0.85609 0.48763,-5.47847 0.66323,-6.41614 0.53517,-2.85761 1.67864,-5.05128 3.61232,-6.92995 1.72333,-1.67431 3.39054,-2.18083 3.39054,-1.03009 0,0.45957 -0.3659,0.90752 -1.30344,1.59574 -0.71689,0.52625 -1.65667,1.4901 -2.08841,2.1419 -1.2368,1.86723 -2.58007,7.74104 -2.1455,9.38177 0.16845,0.63601 0.19288,0.62074 0.63485,-0.39687 0.57144,-1.31573 1.67272,-2.67867 3.95325,-4.89251 1.91676,-1.86071 2.71552,-2.39986 3.25102,-2.19436 0.84032,0.32246 0.21936,1.37139 -2.46362,4.16154 -2.42504,2.52192 -3.54232,4.08349 -3.54232,4.95097 0,0.13723 1.88118,0.22269 4.36365,0.19823 4.74986,-0.0468 5.25292,0.0837 5.10858,1.32535 l -0.0795,0.68411 -15.10444,0.0683 c -14.45286,0.0653 -15.12371,0.047 -15.55111,-0.42526 z"
       id="path12144" />
    <path
       style="fill:#367048"
       d="m 203.61955,222.7715 c 0.32742,-0.0631 0.8632,-0.0631 1.19062,0 0.32742,0.0631 0.0595,0.11467 -0.59531,0.11467 -0.65484,0 -0.92273,-0.0516 -0.59531,-0.11467 z"
       id="path11753" />
    <path
       style="fill:#367048"
       d="m 201.50597,222.7711 c 0.32911,-0.0633 0.80536,-0.0609 1.05833,0.005 0.25296,0.0662 -0.0163,0.118 -0.5984,0.11506 -0.58208,-0.003 -0.78905,-0.0571 -0.45993,-0.1204 z"
       id="path11752" />
    <path
       style="fill:#367048"
       d="m 199.3893,222.7711 c 0.32912,-0.0633 0.80537,-0.0609 1.05833,0.005 0.25297,0.0662 -0.0163,0.118 -0.59839,0.11506 -0.58209,-0.003 -0.78906,-0.0571 -0.45994,-0.1204 z"
       id="path11751" />
    <path
       style="fill:#367048"
       d="m 176.63513,222.7711 c 0.32912,-0.0633 0.80537,-0.0609 1.05834,0.005 0.25296,0.0662 -0.0163,0.118 -0.5984,0.11506 -0.58208,-0.003 -0.78905,-0.0571 -0.45994,-0.1204 z"
       id="path11750" />
    <path
       style="fill:#255c36"
       d="m 203.61955,222.77148 c 0.32742,-0.0631 0.8632,-0.0631 1.19062,0 0.32742,0.0631 0.0595,0.11467 -0.59531,0.11467 -0.65484,0 -0.92273,-0.0516 -0.59531,-0.11467 z"
       id="path11649" />
    <path
       style="fill:#255c36"
       d="m 201.50597,222.77108 c 0.32911,-0.0633 0.80536,-0.0609 1.05833,0.005 0.25296,0.0662 -0.0163,0.118 -0.5984,0.11506 -0.58208,-0.003 -0.78905,-0.0571 -0.45993,-0.1204 z"
       id="path11648" />
    <path
       style="fill:#255c36"
       d="m 199.3893,222.77108 c 0.32912,-0.0633 0.80537,-0.0609 1.05833,0.005 0.25297,0.0662 -0.0163,0.118 -0.59839,0.11506 -0.58209,-0.003 -0.78906,-0.0571 -0.45994,-0.1204 z"
       id="path11647" />
    <path
       style="fill:#255c36"
       d="m 176.63513,222.77108 c 0.32912,-0.0633 0.80537,-0.0609 1.05834,0.005 0.25296,0.0662 -0.0163,0.118 -0.5984,0.11506 -0.58208,-0.003 -0.78905,-0.0571 -0.45994,-0.1204 z"
       id="path11646" />
  </g>
</svg>
