<?xml version="1.0" encoding="UTF-8" standalone="no"?>
<!-- Created with Inkscape (http://www.inkscape.org/) -->

<svg
   width="185"
   height="185"
   viewBox="0 0 48.947914 48.947918"
   version="1.1"
   id="svg1"
   sodipodi:docname="deutzia-gracilis-8.svg"
   inkscape:version="1.4 (e7c3feb100, 2024-10-09)"
   xmlns:inkscape="http://www.inkscape.org/namespaces/inkscape"
   xmlns:sodipodi="http://sodipodi.sourceforge.net/DTD/sodipodi-0.dtd"
   xmlns="http://www.w3.org/2000/svg"
   xmlns:svg="http://www.w3.org/2000/svg">
  <sodipodi:namedview
     id="namedview1"
     pagecolor="#ffffff"
     bordercolor="#666666"
     borderopacity="1.0"
     inkscape:showpageshadow="2"
     inkscape:pageopacity="0.0"
     inkscape:pagecheckerboard="0"
     inkscape:deskcolor="#d1d1d1"
     inkscape:zoom="2.6213988"
     inkscape:cx="82.589494"
     inkscape:cy="79.728426"
     inkscape:window-width="1920"
     inkscape:window-height="1023"
     inkscape:window-x="0"
     inkscape:window-y="0"
     inkscape:window-maximized="1"
     inkscape:current-layer="svg1" />
  <defs
     id="defs1" />
  <g
     id="g21485"
     transform="matrix(0.81889218,0,0,0.81889218,-31.359271,-153.17705)">
    <path
       style="fill:#cdc14b"
       d="m 68.87762,199.63122 c -0.08446,-0.21106 -0.147156,-0.14837 -0.159852,0.15986 -0.01149,0.27891 0.05104,0.43518 0.138964,0.34726 0.08792,-0.0879 0.09732,-0.31612 0.02089,-0.50712 z"
       id="path21430" />
    <path
       style="fill:#cdc14b"
       d="m 76.766671,202.06208 c 0.263389,-0.29104 0.419358,-0.52916 0.346598,-0.52916 -0.07276,0 -0.347792,0.23812 -0.611181,0.52916 -0.263389,0.29104 -0.419358,0.52917 -0.346598,0.52917 0.07276,0 0.347792,-0.23813 0.611181,-0.52917 z"
       id="path21429" />
    <path
       style="fill:#cdc14b"
       d="m 75.443755,203.385 c 0.263389,-0.29104 0.419357,-0.52917 0.346597,-0.52917 -0.07276,0 -0.347792,0.23813 -0.611181,0.52917 -0.263389,0.29104 -0.419358,0.52917 -0.346597,0.52917 0.07276,0 0.347791,-0.23813 0.611181,-0.52917 z"
       id="path21428" />
    <path
       style="fill:#cdc14b"
       d="m 74.551462,204.50948 c 0.329107,-0.41965 0.319749,-0.429 -0.0999,-0.0999 -0.254661,0.19972 -0.463021,0.40808 -0.463021,0.46302 0,0.21777 0.217272,0.0776 0.562916,-0.36312 z"
       id="path21427" />
    <path
       style="fill:#cdc14b"
       d="m 76.527226,216.01885 0.504028,-0.59531 -0.661458,0.52635 c -0.363802,0.28949 -0.711068,0.55738 -0.771701,0.59531 -0.06063,0.0379 0.01021,0.069 0.15743,0.069 0.147221,0 0.494486,-0.26789 0.771701,-0.59531 z"
       id="path21426" />
    <path
       style="fill:#cdc14b"
       d="m 80.213256,224.86735 c -0.08146,-0.0815 -0.294957,-1.7e-4 -0.474432,0.18065 -0.259363,0.26131 -0.228972,0.2917 0.148112,0.14811 0.260938,-0.0994 0.407781,-0.2473 0.32632,-0.32876 z"
       id="path21425" />
    <path
       style="fill:#cdc14b"
       d="m 76.369796,226.782 c 0,-0.0728 -0.238125,-0.005 -0.529167,0.15091 -0.291041,0.15577 -0.529166,0.34274 -0.529166,0.4155 0,0.0728 0.238125,0.005 0.529166,-0.15091 0.291042,-0.15576 0.529167,-0.34273 0.529167,-0.4155 z"
       id="path21424" />
    <path
       style="fill:#cdc14b"
       d="m 74.118965,227.99428 c 0.09269,-0.14998 -0.01351,-0.19434 -0.248969,-0.10399 -0.458368,0.1759 -0.542233,0.36554 -0.161648,0.36554 0.136933,0 0.32171,-0.1177 0.410617,-0.26155 z"
       id="path21423" />
    <path
       style="fill:#cdc14b"
       d="m 54.409381,246.37979 c -0.262781,-0.31663 -0.262781,-0.47712 0,-0.79375 0.270834,-0.32634 1.19044,-0.39688 5.173942,-0.39688 4.386853,0 4.857121,-0.0437 4.977465,-0.46302 0.07309,-0.25466 0.507101,-2.46372 0.964459,-4.90902 0.655797,-3.50627 0.764436,-4.52687 0.513991,-4.82864 -0.174663,-0.21046 -0.235351,-0.38265 -0.134863,-0.38265 0.100488,0 -0.07036,-0.3554 -0.379673,-0.78979 l -0.562377,-0.78978 -2.321551,0.16479 c -4.625843,0.32835 -8.897309,-1.30672 -12.740141,-4.87679 -2.236987,-2.0782 -5.460714,-6.05216 -5.156432,-6.35644 0.707641,-0.70764 7.213594,-1.10428 9.268305,-0.56504 1.9486,0.51139 5.939628,2.69911 7.500097,4.11125 1.604415,1.45192 3.84966,4.8419 4.674095,7.05718 0.258452,0.69447 0.502024,1.23025 0.541272,1.19062 0.179578,-0.1813 1.768653,-7.36185 1.892859,-8.55326 0.120779,-1.15854 0.05081,-1.44049 -0.522982,-2.10756 -0.652672,-0.75878 -0.714433,-0.77269 -4.198878,-0.94556 -4.962976,-0.24623 -7.565828,-1.25946 -10.365833,-4.03518 -0.945247,-0.93705 -3.621554,-4.82128 -3.621636,-5.25622 -5.1e-5,-0.26876 1.698934,-0.66326 3.710384,-0.86153 5.391424,-0.53145 11.012511,2.3473 13.777399,7.05587 0.572537,0.97503 1.113599,2.13589 1.202359,2.57969 0.403012,2.01506 0.747538,0.33617 1.056059,-5.14621 0.154301,-2.7419 0.131226,-2.9396 -0.398519,-3.41444 -0.309266,-0.27722 -0.562302,-0.65143 -0.562302,-0.83159 0,-0.50213 -0.651842,-0.64876 -2.884034,-0.64876 -4.289691,0 -7.284819,-1.51979 -9.720112,-4.93221 -1.1665,-1.63453 -2.407689,-4.22123 -2.149424,-4.4795 0.07636,-0.0763 0.956598,-0.20697 1.956095,-0.29026 3.738153,-0.31152 7.417263,0.80388 9.573433,2.90238 1.387169,1.35007 2.974465,3.89069 3.346705,5.35672 0.246525,0.97091 0.623206,1.49755 0.700848,0.97985 0.07199,-0.48002 -0.349169,-3.73176 -0.698284,-5.3914 -0.30926,-1.47017 -0.618298,-2.10649 -1.620778,-3.33727 -1.749725,-2.14819 -2.453573,-3.83276 -2.646452,-6.33396 -0.11896,-1.54265 -0.04854,-2.4778 0.268802,-3.5694 0.758008,-2.60746 2.285701,-5.61517 2.285701,-4.50007 0,0.11955 0.650811,1.03407 1.446246,2.03227 2.71114,3.40221 3.495823,6.60872 2.524992,10.31806 -0.304693,1.16417 -0.658237,2.51582 -0.785655,3.00367 -0.237867,0.91074 0.124692,4.21503 0.506848,4.61931 0.111593,0.11805 0.26093,-0.59645 0.33186,-1.58779 0.363608,-5.08189 4.617977,-9.17844 10.497232,-10.10783 1.643907,-0.25987 1.672304,-0.14543 0.690039,2.78068 -1.96123,5.84241 -3.778556,7.82912 -8.818667,9.64065 -1.266499,0.4552 -1.742202,0.77003 -1.943739,1.28639 -0.398686,1.02146 -0.639757,9.67693 -0.263037,9.4441 0.163583,-0.1011 0.833902,-1.28012 1.489597,-2.62004 1.586869,-3.24279 2.824644,-4.8016 4.976965,-6.26783 2.331146,-1.58804 4.337209,-2.12152 7.977724,-2.12152 3.171093,0 3.201721,0.0264 2.234436,1.92877 -1.866696,3.67118 -4.697433,6.64169 -7.744324,8.12673 -2.270517,1.10663 -6.052913,2.02182 -7.183382,1.73809 -0.484732,-0.12166 -0.823528,0.002 -1.294123,0.47268 -0.754297,0.7543 -1.016339,1.64711 -1.74828,5.95664 -0.522733,3.07776 -0.565613,4.49083 -0.102031,3.36229 0.436549,-1.06273 2.491418,-3.95799 3.725839,-5.24961 1.847305,-1.93291 4.731314,-3.73742 6.806235,-4.25862 2.355939,-0.5918 6.360142,-0.56416 8.976492,0.0619 1.133354,0.27122 2.131444,0.56393 2.217979,0.65047 0.200613,0.20061 -2.640962,3.4126 -4.64471,5.25016 -3.282203,3.00999 -6.7662,4.46179 -11.173156,4.65591 -1.831603,0.0807 -3.150433,0.0107 -3.792812,-0.20133 -0.930082,-0.30695 -1.028998,-0.28302 -1.779689,0.43053 -1.42861,1.35794 -1.785363,2.50515 -2.867866,9.22222 -0.304872,1.89177 -0.62029,3.70747 -0.700929,4.03489 l -0.146617,0.59531 h 5.460945 c 4.63053,0 5.4843,0.0609 5.614533,0.40025 0.08447,0.22013 0.0066,0.57732 -0.172992,0.79375 -0.49331,0.5944 -22.522522,0.59118 -23.015952,-0.003 z"
       id="path21422" />
    <path
       style="fill:#569747"
       d="m 71.199542,209.18819 c -0.09592,-0.1552 -0.117656,-0.33893 -0.0483,-0.40829 0.06936,-0.0694 0.196603,0.0576 0.282774,0.28219 0.178907,0.46622 0.02642,0.54823 -0.234473,0.1261 z"
       id="path21306" />
    <path
       style="fill:#569747"
       d="m 54.456912,246.43706 c -0.174916,-0.21076 -0.191071,-0.48681 -0.04258,-0.7276 0.191455,-0.31048 1.228468,-0.41444 5.190072,-0.5203 l 4.95081,-0.13229 0.876037,-4.63021 c 0.829324,-4.38331 0.916962,-6.13511 0.325221,-6.50082 -0.368186,-0.22756 -0.274242,-0.69734 0.09614,-0.48077 0.181901,0.10636 0.115092,-0.0529 -0.148466,-0.35382 -0.365192,-0.41702 -0.396664,-0.57511 -0.132291,-0.66451 0.202172,-0.0684 0.531309,0.27791 0.788903,0.82998 0.429235,0.91992 0.446039,0.92825 0.581835,0.2883 0.07691,-0.36244 0.438819,-1.96867 0.804243,-3.5694 1.191224,-5.21811 1.9785,-10.86288 1.996928,-14.31796 0.0097,-1.8153 -0.07851,-2.26509 -0.570628,-2.91042 l -0.582081,-0.76328 0.582081,0.50402 0.58208,0.50403 -8.8e-4,-1.29778 c -4.84e-4,-0.71377 -0.231362,-2.48572 -0.513063,-3.93766 -0.2817,-1.45194 -0.468506,-2.68357 -0.415124,-2.73695 0.05338,-0.0534 0.348779,0.36066 0.656438,0.9201 l 0.55938,1.01715 -0.148815,-1.05833 c -0.25604,-1.82089 0.283355,-0.40934 0.657181,1.71979 0.191625,1.09141 0.445324,2.11205 0.563776,2.26809 0.118452,0.15605 0.168676,0.65265 0.111609,1.10357 -0.197648,1.56172 -0.2532,9.04634 -0.06851,9.23102 0.102032,0.10204 0.185512,0.002 0.185512,-0.22306 0,-0.22472 0.166125,-0.54645 0.369167,-0.71496 0.307538,-0.25523 0.304071,-0.11744 -0.02077,0.82542 -0.214465,0.62248 -0.487186,1.25179 -0.606047,1.39846 -0.460082,0.56771 -1.956793,9.48645 -1.549768,9.2349 0.120954,-0.0748 0.219916,-0.003 0.219916,0.15989 0,0.1627 0.140664,0.20888 0.312588,0.10263 0.171923,-0.10626 -0.0082,0.22734 -0.400207,0.74133 -0.928871,1.21781 -1.330097,2.64678 -2.140306,7.62271 -0.367266,2.25557 -0.745485,4.48799 -0.840488,4.96094 l -0.172733,0.85989 h 5.465335 c 4.634449,0 5.488685,0.0609 5.618923,0.40025 0.08447,0.22013 0.0066,0.57732 -0.172992,0.79375 -0.279622,0.33692 -1.934128,0.3935 -11.506578,0.3935 -8.777022,0 -11.240576,-0.073 -11.461843,-0.3396 z"
       id="path21279" />
    <path
       style="fill:#926a2f"
       d="m 68.961463,206.01518 c 0,-0.29963 0.113863,-0.47441 0.253028,-0.3884 0.139165,0.086 0.185958,0.33116 0.103984,0.54478 -0.209874,0.54692 -0.357012,0.48247 -0.357012,-0.15638 z"
       id="path20846" />
    <path
       style="fill:#926a2f"
       d="m 69.845158,205.98608 c -0.02835,-0.73652 0.03589,-0.97649 0.194386,-0.72611 0.287775,0.45462 0.322686,1.82978 0.0464,1.8277 -0.10914,-8.2e-4 -0.217493,-0.49654 -0.240784,-1.10159 z"
       id="path20845" />
    <path
       style="fill:#926a2f"
       d="m 71.199542,209.18823 c -0.09592,-0.1552 -0.117656,-0.33893 -0.0483,-0.40829 0.06936,-0.0694 0.196603,0.0576 0.282774,0.28219 0.178907,0.46622 0.02642,0.54823 -0.234473,0.1261 z"
       id="path20844" />
    <path
       style="fill:#926a2f"
       d="m 71.342713,219.82156 c 0,-0.1277 0.198087,-0.39559 0.440193,-0.59531 0.399151,-0.32927 0.410617,-0.30762 0.122982,0.23219 -0.328059,0.61567 -0.563175,0.76727 -0.563175,0.36312 z"
       id="path20843" />
    <path
       style="fill:#926a2f"
       d="m 65.364323,232.71287 c -0.111584,-0.18055 -0.07311,-0.23398 0.09408,-0.13065 0.155576,0.0962 0.343166,0.0252 0.416867,-0.15755 0.08084,-0.20052 0.142288,-0.14869 0.15489,0.13064 0.02362,0.5236 -0.380509,0.61923 -0.665837,0.15756 z"
       id="path20841" />
    <path
       style="fill:#926a2f"
       d="m 70.195025,218.4001 c -0.0734,-0.1819 -0.133452,-0.0331 -0.133452,0.33073 0,0.3638 0.06005,0.51263 0.133452,0.33073 0.0734,-0.1819 0.0734,-0.47956 0,-0.66146 z"
       id="path20814" />
    <path
       style="fill:#926a2f"
       d="m 54.588574,246.60308 c -0.168712,-0.16871 -0.256456,-1.09614 -0.113048,-1.19488 0.03638,-0.025 2.326817,-0.11434 5.089859,-0.19843 l 5.023713,-0.1529 0.734737,-3.83646 c 1.235707,-6.4523 1.244566,-6.54325 0.686504,-7.04829 -0.268653,-0.24313 -0.488459,-0.56542 -0.488459,-0.7162 0,-0.15078 0.188313,-0.043 0.418474,0.23945 0.412745,0.50655 0.416359,0.50634 0.263934,-0.0156 -0.149421,-0.51164 -0.14181,-0.51275 0.229783,-0.0336 0.364918,0.47052 0.392854,0.45716 0.553309,-0.26458 0.09294,-0.41807 0.343447,-1.4745 0.556678,-2.34762 1.149828,-4.70827 1.984547,-10.01693 2.133995,-13.57185 0.15404,-3.66414 0.139799,-3.80874 -0.455985,-4.63021 -0.583872,-0.80504 -0.585943,-0.82244 -0.04092,-0.34392 l 0.574067,0.50403 v -1.2761 c 0,-0.70186 -0.129788,-2.02141 -0.288418,-2.93233 -0.199741,-1.14699 -0.204218,-1.80445 -0.01456,-2.13834 0.258409,-0.45492 0.274466,-0.45227 0.284671,0.0471 0.04246,2.07745 0.375872,6.47751 0.482738,6.37064 0.07209,-0.0721 0.127455,-1.41591 0.123033,-2.98627 -0.0068,-2.40413 0.0302,-2.66711 0.234045,-1.66458 0.133147,0.65485 0.260746,1.33946 0.283553,1.52136 0.02281,0.1819 0.118413,0.33073 0.212458,0.33073 0.09404,0 0.14323,0.50601 0.109301,1.12447 -0.319225,5.81891 -0.34874,8.76697 -0.09088,9.07767 0.201073,0.24228 0.205594,0.50187 0.01494,0.8581 -0.314758,0.58814 -0.892392,3.32295 -1.458145,6.90362 -0.216013,1.36715 -0.518373,2.61136 -0.67191,2.76489 -0.153537,0.15354 -0.279158,0.3876 -0.279158,0.52014 0,0.13254 0.234164,-0.0401 0.520364,-0.38365 0.29477,-0.35383 0.52418,-0.47447 0.529167,-0.27828 0.0053,0.20782 0.141081,0.26544 0.339531,0.14407 0.181901,-0.11125 0.0141,0.17568 -0.372884,0.63763 -0.386987,0.46195 -0.889352,1.40915 -1.116366,2.10489 -0.328002,1.00524 -2.016479,10.42467 -2.016479,11.24924 0,0.11121 2.351485,0.20403 5.225521,0.20625 2.874036,0.002 5.404114,0.11791 5.622395,0.25706 0.307307,0.1959 0.33067,0.35919 0.103521,0.72355 -0.272569,0.43721 -1.089434,0.47544 -11.528619,0.5395 -6.179395,0.0379 -11.3159,-0.0117 -11.414457,-0.11024 z"
       id="path20813" />
    <path
       style="fill:#478b3c"
       d="m 69.003239,206.03086 c 0,-0.3638 0.06005,-0.51263 0.133453,-0.33073 0.0734,0.1819 0.0734,0.47956 0,0.66146 -0.0734,0.1819 -0.133453,0.0331 -0.133453,-0.33073 z"
       id="path20367" />
    <path
       style="fill:#478b3c"
       d="m 70.195025,218.4001 c -0.0734,-0.1819 -0.133452,-0.0331 -0.133452,0.33073 0,0.3638 0.06005,0.51263 0.133452,0.33073 0.0734,-0.1819 0.0734,-0.47956 0,-0.66146 z"
       id="path20346" />
    <path
       style="fill:#478b3c"
       d="m 54.588574,246.60308 c -0.168712,-0.16871 -0.256456,-1.09614 -0.113048,-1.19488 0.03638,-0.025 2.326653,-0.11434 5.089494,-0.19843 l 5.023348,-0.1529 0.84128,-4.36562 c 1.046867,-5.43247 1.092079,-5.91275 0.612214,-6.50348 -0.320525,-0.39458 -0.322604,-0.43803 -0.012,-0.25078 0.289823,0.17472 0.33503,0.11073 0.197788,-0.27994 -0.173159,-0.49292 -0.167654,-0.49321 0.206419,-0.0109 0.364918,0.47052 0.392854,0.45716 0.553309,-0.26458 0.09294,-0.41807 0.343447,-1.4745 0.556678,-2.34762 0.21323,-0.87313 0.754458,-3.43297 1.202729,-5.68855 0.758661,-3.81737 0.817151,-4.52197 0.845586,-10.18645 0.0168,-3.34698 -0.07397,-6.6212 -0.201719,-7.27604 -0.189942,-0.97367 -0.169492,-1.13161 0.112228,-0.86673 0.226367,0.21282 0.385848,1.32756 0.465091,3.25085 0.06633,1.60983 0.179579,2.86798 0.251669,2.79589 0.07209,-0.0721 0.126466,-1.41591 0.120834,-2.98627 -0.0094,-2.61838 0.01036,-2.7345 0.238079,-1.39999 0.136574,0.80036 0.334616,1.48488 0.440092,1.52115 0.105476,0.0363 0.105731,2.29019 5.67e-4,5.00869 -0.128212,3.31429 -0.100371,5.05218 0.08451,5.27495 0.190131,0.22909 0.190868,0.49075 0.0024,0.84295 -0.314758,0.58814 -0.892392,3.32295 -1.458145,6.90362 -0.216013,1.36715 -0.518373,2.61136 -0.67191,2.76489 -0.153537,0.15354 -0.275538,0.40418 -0.271113,0.55697 0.0044,0.1528 0.129404,0.0695 0.277731,-0.1852 0.310272,-0.53271 0.75952,-0.6233 0.656019,-0.1323 -0.03834,0.1819 -0.344564,0.92604 -0.680491,1.65365 -0.495369,1.07295 -2.325818,10.32261 -2.369262,11.97239 -0.0067,0.25358 1.21024,0.33168 5.216812,0.33478 2.874036,0.002 5.404114,0.11791 5.622395,0.25706 0.307307,0.1959 0.33067,0.35919 0.103521,0.72355 -0.272569,0.43721 -1.089434,0.47544 -11.528619,0.5395 -6.179395,0.0379 -11.3159,-0.0117 -11.414457,-0.11024 z"
       id="path20345" />
    <path
       style="fill:#3b8335"
       d="m 69.003239,206.03086 c 0,-0.3638 0.06005,-0.51263 0.133453,-0.33073 0.0734,0.1819 0.0734,0.47956 0,0.66146 -0.0734,0.1819 -0.133453,0.0331 -0.133453,-0.33073 z"
       id="path19810" />
    <path
       style="fill:#3b8335"
       d="m 69.663898,210.72719 c -0.08672,-1.20055 -0.234563,-2.59954 -0.328539,-3.10886 -0.133371,-0.72284 -0.100087,-0.85911 0.151683,-0.62104 0.313872,0.2968 0.761836,5.91271 0.47164,5.91271 -0.07541,0 -0.208064,-0.98227 -0.294784,-2.18281 z"
       id="path19793" />
    <path
       style="fill:#3b8335"
       d="m 70.548964,215.43915 c 0,-0.0642 -0.119062,-0.19026 -0.264583,-0.28019 -0.145521,-0.0899 -0.264584,-0.0374 -0.264584,0.11667 0,0.15411 0.119063,0.2802 0.264584,0.2802 0.145521,0 0.264583,-0.0525 0.264583,-0.11668 z"
       id="path19752" />
    <path
       style="fill:#3b8335"
       d="m 70.195026,216.8126 c -0.0734,-0.1819 -0.133452,-0.0331 -0.133452,0.33073 0,0.3638 0.06005,0.51263 0.133452,0.33073 0.0734,-0.1819 0.0734,-0.47956 0,-0.66146 z"
       id="path19751" />
    <path
       style="fill:#3b8335"
       d="m 70.209656,218.53603 c -0.06081,-0.40218 -0.112199,-0.13593 -0.114185,0.59168 -0.002,0.7276 0.04777,1.05666 0.110574,0.73124 0.0628,-0.32542 0.06443,-0.92073 0.0036,-1.32292 z"
       id="path19750" />
    <path
       style="fill:#3b8335"
       d="m 69.165473,228.56984 c 0.06445,-0.19334 -0.05651,-0.25247 -0.314193,-0.15359 -0.230441,0.0884 -0.418983,0.27703 -0.418983,0.4191 0,0.34777 0.601339,0.13 0.733176,-0.26551 z"
       id="path19749" />
    <path
       style="fill:#3b8335"
       d="m 54.588574,246.60308 c -0.168712,-0.16871 -0.256456,-1.09614 -0.113048,-1.19488 0.03638,-0.025 2.3237,-0.11434 5.082933,-0.19843 l 5.016787,-0.1529 0.197604,-0.92604 c 0.757809,-3.55135 1.56003,-8.43149 1.46659,-8.92168 -0.06358,-0.33355 -0.0019,-0.51929 0.142757,-0.42989 0.15397,0.0952 0.179965,-0.0781 0.06573,-0.43801 -0.126113,-0.39735 -0.09411,-0.5368 0.09619,-0.41919 0.167829,0.10372 0.352466,-0.1276 0.448714,-0.56218 0.08995,-0.40613 0.333773,-1.44128 0.541834,-2.30032 1.563007,-6.45333 2.330535,-11.98716 2.177935,-15.70279 -0.04932,-1.20089 -3.76e-4,-2.18315 0.108765,-2.18281 0.109141,3.4e-4 0.198437,0.12671 0.198437,0.28082 0,0.15411 0.119972,0.20605 0.266604,0.11543 0.163237,-0.10089 0.228261,-1.31229 0.167711,-3.12447 -0.08187,-2.45029 -0.05598,-2.72062 0.150452,-1.57064 0.13714,0.76399 0.329561,1.389 0.427602,1.38891 0.174811,-1.5e-4 -0.09384,9.08325 -0.303233,10.25276 -0.05862,0.32742 -0.004,0.59531 0.121305,0.59531 0.125341,0 0.227893,-0.1389 0.227893,-0.30868 0,-0.16977 0.06918,-0.2395 0.153728,-0.15495 0.08455,0.0846 0.02934,0.38615 -0.122688,0.67022 -0.300313,0.56114 -0.82003,2.99155 -1.482963,6.93494 -0.232202,1.38123 -0.536292,2.62544 -0.675756,2.7649 -0.139464,0.13946 -0.249951,0.37859 -0.245526,0.53138 0.0044,0.1528 0.129404,0.0695 0.277731,-0.1852 0.310272,-0.53271 0.75952,-0.6233 0.656019,-0.1323 -0.03834,0.1819 -0.344682,0.92604 -0.680754,1.65365 -0.498045,1.07828 -2.345341,10.40199 -2.372077,11.97239 -0.0043,0.25348 1.214981,0.33168 5.21989,0.33478 2.874036,0.002 5.404114,0.11791 5.622395,0.25706 0.307307,0.1959 0.33067,0.35919 0.103521,0.72355 -0.272569,0.43721 -1.089434,0.47544 -11.528619,0.5395 -6.179395,0.0379 -11.3159,-0.0117 -11.414457,-0.11024 z"
       id="path19748" />
    <path
       style="fill:#4d7134"
       d="m 69.003239,206.03086 c 0,-0.3638 0.06005,-0.51263 0.133453,-0.33073 0.0734,0.1819 0.0734,0.47956 0,0.66146 -0.0734,0.1819 -0.133453,0.0331 -0.133453,-0.33073 z"
       id="path19255" />
    <path
       style="fill:#4d7134"
       d="m 70.28438,209.0735 c 0,-0.21828 0.04679,-0.39687 0.103984,-0.39687 0.05719,0 0.172517,0.17859 0.256279,0.39687 0.08376,0.21828 0.03697,0.39688 -0.103984,0.39688 -0.140953,0 -0.256279,-0.1786 -0.256279,-0.39688 z"
       id="path19241" />
    <path
       style="fill:#4d7134"
       d="m 69.648205,209.2467 c -0.294133,-0.47592 -0.492744,-2.5573 -0.218505,-2.28987 0.149222,0.14552 0.31642,0.7706 0.371551,1.38907 0.103457,1.16059 0.08277,1.28236 -0.153046,0.9008 z"
       id="path19240" />
    <path
       style="fill:#4d7134"
       d="m 69.839899,211.3225 c 0,-0.94589 0.04802,-1.33284 0.106713,-0.8599 0.05869,0.47295 0.05869,1.24685 0,1.71979 -0.05869,0.47295 -0.106713,0.086 -0.106713,-0.85989 z"
       id="path19225" />
    <path
       style="fill:#4d7134"
       d="m 70.290508,218.72562 c -0.208609,-0.88708 -0.217244,-0.87234 -0.235584,0.40209 -0.01282,0.89085 0.0579,1.19159 0.216546,0.92083 0.130679,-0.22304 0.139157,-0.81213 0.01904,-1.32292 z"
       id="path19134" />
    <path
       style="fill:#4d7134"
       d="m 69.893016,224.40284 c 0.02122,-0.13643 -0.01127,-0.15801 -0.07221,-0.048 -0.06094,0.11004 -0.219685,0.13278 -0.352777,0.0505 -0.133092,-0.0823 -0.241985,-0.0135 -0.241985,0.15269 0,0.35319 0.609965,0.2112 0.66697,-0.15526 z"
       id="path19133" />
    <path
       style="fill:#4d7134"
       d="m 69.317347,226.52463 c -0.08617,-0.22456 -0.213419,-0.35154 -0.282774,-0.28219 -0.06935,0.0694 -0.04762,0.25309 0.0483,0.40829 0.260892,0.42213 0.413379,0.34012 0.234472,-0.1261 z"
       id="path19132" />
    <path
       style="fill:#4d7134"
       d="m 69.226047,228.48802 c 0,-0.46917 -0.0653,-0.50737 -0.396875,-0.23219 -0.218282,0.18116 -0.396875,0.43386 -0.396875,0.56156 0,0.12771 0.178593,0.23219 0.396875,0.23219 0.228118,0 0.396875,-0.23878 0.396875,-0.56156 z"
       id="path19131" />
    <path
       style="fill:#4d7134"
       d="m 68.692828,229.49699 c 0.0022,-0.11773 -0.115011,-0.14047 -0.260531,-0.0505 -0.145521,0.0899 -0.262761,0.36485 -0.260532,0.61092 0.0035,0.38557 0.0395,0.39256 0.260532,0.0505 0.141064,-0.21828 0.258303,-0.49319 0.260531,-0.61092 z"
       id="path19130" />
    <path
       style="fill:#4d7134"
       d="m 69.062417,231.2848 c 0.09035,-0.23546 0.046,-0.34166 -0.103984,-0.24897 -0.143854,0.0889 -0.261553,0.27368 -0.261553,0.41062 0,0.38058 0.189644,0.29672 0.365537,-0.16165 z"
       id="path19129" />
    <path
       style="fill:#4d7134"
       d="m 54.58857,246.60308 c -0.168712,-0.16871 -0.256456,-1.09614 -0.113048,-1.19488 0.03638,-0.025 2.3237,-0.11434 5.082933,-0.19843 l 5.016787,-0.1529 0.198861,-0.92604 c 0.800711,-3.72868 1.798558,-9.85233 1.645729,-10.09961 -0.112484,-0.182 -0.06833,-0.2282 0.11174,-0.11691 0.183536,0.11343 0.360426,-0.0992 0.461249,-0.55443 0.08995,-0.40613 0.33454,-1.44427 0.543539,-2.30697 1.566317,-6.46542 2.179673,-10.68334 2.128504,-14.63727 -0.02307,-1.78267 0.04735,-3.24119 0.156491,-3.24114 0.109141,4e-5 0.198437,0.13899 0.198437,0.30876 0,0.44222 0.354386,0.0275 0.439904,-0.51477 0.0395,-0.25045 0.100472,-0.84827 0.135504,-1.32848 0.03503,-0.48022 0.187787,-0.97657 0.339456,-1.10301 0.189034,-0.15758 0.248876,0.56975 0.190275,2.31265 -0.04813,1.4315 -0.178656,2.39178 -0.298701,2.19754 -0.173599,-0.28088 -0.244291,-0.27797 -0.380468,0.0157 -0.09199,0.19837 -0.117549,0.0928 -0.0568,-0.23464 0.06075,-0.32742 0.01289,-0.59531 -0.106348,-0.59531 -0.119242,0 -0.211346,0.80367 -0.204674,1.78593 0.01008,1.48476 0.04388,1.61812 0.200399,0.79083 0.186056,-0.98341 0.429936,-1.44731 0.646848,-1.2304 0.06141,0.0614 0.02955,1.33352 -0.07078,2.82693 -0.145516,2.16588 -0.113332,2.68876 0.15906,2.58424 0.256389,-0.0984 0.276421,-0.009 0.08039,0.35683 -0.57336,1.07133 -1.988481,9.31628 -1.636352,9.53391 0.446816,0.27615 0.433861,0.40875 -0.118329,1.2111 -0.30045,0.43656 -0.681821,1.27 -0.847493,1.85208 -0.267155,0.93865 -1.911468,10.40876 -1.911468,11.00874 0,0.13024 2.342378,0.23787 5.225521,0.2401 2.874036,0.002 5.404114,0.11791 5.622395,0.25706 0.307307,0.1959 0.33067,0.35919 0.103521,0.72355 -0.272569,0.43721 -1.089434,0.47544 -11.528619,0.5395 -6.179395,0.0379 -11.3159,-0.0117 -11.414457,-0.11024 z"
       id="path19128" />
    <path
       style="fill:#307031"
       d="m 69.432639,208.29368 c -0.183869,-1.00923 -0.103034,-1.45373 0.207837,-1.14286 0.08241,0.0824 0.11218,0.60827 0.06614,1.16857 l -0.0837,1.01873 z"
       id="path18643" />
    <path
       style="fill:#307031"
       d="m 70.305268,209.05152 c 0.0127,-0.30822 0.07539,-0.37092 0.159852,-0.15985 0.07643,0.191 0.06703,0.4192 -0.02089,0.50712 -0.08792,0.0879 -0.150453,-0.0684 -0.138964,-0.34727 z"
       id="path18641" />
    <path
       style="fill:#307031"
       d="m 69.839899,211.3225 c 0,-0.94589 0.04802,-1.33284 0.106713,-0.8599 0.05869,0.47295 0.05869,1.24685 0,1.71979 -0.05869,0.47295 -0.106713,0.086 -0.106713,-0.85989 z"
       id="path18630" />
    <path
       style="fill:#307031"
       d="m 70.68475,214.77309 c -0.210859,-0.66435 -0.10865,-3.9653 0.127295,-4.11112 0.09846,-0.0608 0.202551,0.95584 0.231317,2.25932 0.05195,2.35379 -0.04326,2.8454 -0.358612,1.8518 z"
       id="path18625" />
    <path
       style="fill:#307031"
       d="m 69.887505,224.55166 c 0.08994,-0.14552 0.08208,-0.39635 -0.01746,-0.55741 -0.17783,-0.28773 -0.630345,0.15319 -0.639949,0.62356 -0.0059,0.29002 0.466672,0.24247 0.657407,-0.0661 z"
       id="path18541" />
    <path
       style="fill:#307031"
       d="m 69.317348,226.52463 c -0.08617,-0.22456 -0.213419,-0.35154 -0.282774,-0.28219 -0.06935,0.0694 -0.04762,0.25309 0.0483,0.40829 0.260892,0.42213 0.413379,0.34012 0.234472,-0.1261 z"
       id="path18540" />
    <path
       style="fill:#307031"
       d="m 68.035422,232.75375 c 0.08994,-0.14552 0.03743,-0.26459 -0.116677,-0.26459 -0.154109,0 -0.280198,0.11907 -0.280198,0.26459 0,0.14552 0.0525,0.26458 0.116676,0.26458 0.06417,0 0.190262,-0.11906 0.280199,-0.26458 z"
       id="path18539" />
    <path
       style="fill:#307031"
       d="m 54.74011,246.60325 c -0.181901,-0.0744 -0.330729,-0.34859 -0.330729,-0.60931 0,-0.67534 0.96279,-0.80478 5.986197,-0.80478 2.606353,0 4.332552,-0.10169 4.332552,-0.25525 0,-0.70365 1.869642,-10.39578 2.08208,-10.79339 0.13539,-0.2534 0.321382,-0.93698 0.413317,-1.51906 0.09193,-0.58209 0.277784,-1.47506 0.412998,-1.98438 0.526362,-1.9827 1.604837,-7.42668 1.842321,-9.29976 0.137348,-1.0833 0.269623,-3.30949 0.293944,-4.94709 0.02432,-1.6376 0.115908,-2.90577 0.203528,-2.81815 0.183838,0.18383 0.09722,5.95897 -0.107139,7.14313 -0.117935,0.68338 -0.09442,0.72518 0.169094,0.30064 0.168342,-0.27121 0.333399,-1.55226 0.366793,-2.84678 0.05502,-2.13278 0.20924,-2.90067 0.520126,-2.58979 0.06141,0.0614 0.02955,1.33352 -0.07078,2.82693 -0.135204,2.01239 -0.103096,2.68484 0.124035,2.59768 0.213547,-0.082 0.194268,0.17734 -0.06359,0.85519 -0.203527,0.53504 -0.660341,2.68682 -1.015144,4.78174 -0.354803,2.09491 -0.798368,3.94038 -0.985702,4.10104 -0.187333,0.16065 -0.254326,0.18399 -0.148873,0.0519 0.105453,-0.13213 0.04394,-0.42288 -0.136701,-0.6461 -0.199459,-0.24649 -0.211208,-0.33566 -0.02992,-0.22708 0.283683,0.1699 0.627527,-0.86512 0.627527,-1.88895 0,-0.33798 -0.07128,-0.31809 -0.355745,0.0992 -0.836595,1.22732 -0.755036,3.26666 0.140003,3.50071 0.450425,0.11779 0.46124,0.1859 0.113735,0.71626 -0.211213,0.32236 -0.508375,1.05158 -0.660362,1.62051 -0.29544,1.10592 -1.883465,10.26527 -1.883465,10.86338 0,0.28828 1.018269,0.35749 5.25927,0.35749 4.174485,0 5.322409,0.0761 5.565382,0.36885 0.234206,0.2822 0.221606,0.45335 -0.05364,0.72859 -0.290165,0.29017 -2.479856,0.36867 -11.32007,0.40583 -6.028174,0.0254 -11.109144,-0.0148 -11.291045,-0.0892 z"
       id="path18538" />
  </g>
</svg>
