<?xml version="1.0" encoding="UTF-8" standalone="no"?>
<!-- Created with Inkscape (http://www.inkscape.org/) -->

<svg
   width="185"
   height="185"
   viewBox="0 0 48.947914 48.947918"
   version="1.1"
   id="svg1"
   xmlns="http://www.w3.org/2000/svg"
   xmlns:svg="http://www.w3.org/2000/svg">
  <defs
     id="defs1" />
  <g
     id="layer1">
    <g
       id="g2281"
       transform="matrix(0.79253486,0,0,0.79253486,-59.472293,-19.016049)"
       style="display:inline;stroke-width:1.26177">
      <path
         style="fill:#f0908e;stroke-width:1.26177"
         d="M 106.27181,85.603253 C 88.357641,85.544 85.303579,85.479121 85.303579,85.15782 c 0,-0.490129 1.221187,-1.443275 2.093511,-1.634003 2.212676,-0.483786 1.674699,-0.607402 -2.007829,-0.461356 -4.788076,0.189891 -9.379139,-0.07347 -10.056333,-0.576866 -1.785806,-1.327493 4.590695,-3.299938 12.2123,-3.777635 l 2.909109,-0.182334 -1.968909,-0.906003 C 87.402529,77.121321 84.904155,76.150236 82.933487,75.461656 78.049882,73.755254 75.77858,72.793391 75.77858,72.43166 c 0,-1.185686 8.38018,-1.178859 11.53709,0.0094 0.965293,0.363335 1.889731,0.659296 2.054306,0.65769 0.412208,-0.004 -2.168403,-2.306465 -4.74204,-4.230892 -2.480463,-1.854756 -4.401216,-4.136309 -3.801661,-4.515776 0.526878,-0.333469 0.421959,-0.356291 3.606487,0.78448 3.873692,1.387646 6.053445,2.400001 7.970205,3.701649 1.727029,1.172803 2.201727,1.358817 1.596086,0.625438 -0.611695,-0.740711 -3.441337,-7.355252 -4.329379,-10.120312 -0.25705,-0.800365 -0.560017,-1.574271 -0.673261,-1.719792 -0.434501,-0.558344 -0.561472,-2.223002 -0.237825,-3.11803 l 0.330483,-0.913935 1.104052,0.825358 c 1.468423,1.097751 3.910631,4.467816 5.22937,7.216141 1.007583,2.099859 1.594786,2.86341 1.000988,1.301603 -0.149592,-0.393458 -0.271986,-1.472917 -0.271986,-2.3988 0,-4.212032 -1.40141,-10.780433 -2.88013,-13.499157 -0.93104,-1.711779 -1.064238,-1.842855 -1.799682,-1.771029 -0.637917,0.0623 -0.977771,-0.125596 -1.726836,-0.954721 -0.512935,-0.567758 -0.983705,-1.185573 -1.046154,-1.372922 -0.07372,-0.221171 -0.520332,0.03498 -1.27344,0.730375 -1.175688,1.085592 -3.658637,2.584474 -3.893015,2.350096 -0.07037,-0.07037 -0.136129,-0.669917 -0.146143,-1.332339 -0.01708,-1.129907 -0.07402,-1.222823 -0.920582,-1.502213 -0.599345,-0.197802 -0.854646,-0.422185 -0.760249,-0.668181 0.08289,-0.215995 -0.0233,-0.37037 -0.254751,-0.37037 -0.529951,0 -0.778288,-0.711038 -0.405302,-1.160459 0.164311,-0.197984 0.228365,-0.543385 0.142342,-0.767558 -0.168539,-0.439206 1.523875,-1.772783 2.259216,-1.780201 0.220881,-0.0022 0.567436,-0.109062 0.770122,-0.237408 0.28075,-0.177779 0.103476,-0.400672 -0.744332,-0.935869 -1.381333,-0.871997 -1.333829,-1.415079 0.187694,-2.145763 1.128684,-0.542029 1.131892,-0.547597 0.595313,-1.033194 -0.805702,-0.72915 -0.693234,-1.636036 0.2643,-2.131196 0.718028,-0.371307 0.965033,-0.37434 2.315104,-0.02843 1.075668,0.275602 1.541651,0.302457 1.616549,0.09316 0.238664,-0.666918 1.361162,-1.496962 2.637369,-1.95023 1.464454,-0.520128 1.570239,-0.646866 0.961566,-1.15202 -1.130212,-0.937993 0.237761,-2.195479 2.490396,-2.289255 1.293372,-0.05384 1.535993,0.02934 2.5052,0.858949 l 1.073136,0.918565 0.463913,-1.397775 c 0.255152,-0.768777 0.467265,-1.411349 0.471363,-1.427938 0.0041,-0.01659 0.468949,-0.349981 1.033008,-0.740872 0.74664,-0.517423 1.20906,-0.664651 1.70032,-0.541354 0.79013,0.198311 1.41321,0.831868 1.54967,1.575725 0.0799,0.435571 0.32139,0.533975 1.3805,0.562536 1.53593,0.04142 1.84923,0.41432 1.35065,1.607587 -0.23117,0.55325 -0.2634,0.873832 -0.0879,0.873832 0.53487,0 2.21497,0.901935 2.77814,1.491401 l 0.56884,0.5954 -0.56884,0.08736 c -0.31287,0.04805 -0.53411,0.248263 -0.49166,0.444923 0.0977,0.452698 -0.65484,1.29274 -1.5925,1.777622 -0.47629,0.246302 -1.0856,0.315767 -1.78656,0.203679 -1.38189,-0.220973 -1.43929,0.342032 -0.13621,1.33594 0.77148,0.58844 0.88222,0.792122 0.65824,1.210643 -0.33857,0.632626 -1.86772,0.941461 -2.63316,0.531807 -0.97105,-0.519687 -1.41381,0.09673 -1.22113,1.700064 0.45453,3.782172 0.0639,7.025327 -0.84621,7.025327 -0.27147,0 -0.3161,1.545814 -0.22217,7.694835 0.0646,4.232159 0.17108,7.74838 0.23652,7.813824 0.0654,0.06544 0.38186,-0.583906 0.70314,-1.442999 0.83837,-2.241781 3.02986,-5.851944 4.16169,-6.855772 0.53326,-0.472946 1.02568,-0.803782 1.09427,-0.735191 0.0686,0.06859 -0.0218,0.693672 -0.20092,1.389069 -0.33145,1.286953 -0.44646,1.611967 -1.14958,3.248733 -0.82457,1.919457 -3.06508,9.451718 -3.23475,10.874741 -0.16677,1.398691 0.25408,5.234492 0.65944,6.010397 0.10019,0.191775 0.33634,-0.5226 0.52478,-1.5875 0.43958,-2.484224 1.64665,-6.70034 2.25481,-7.875739 0.25967,-0.501862 0.6742,-1.506974 0.92119,-2.233584 0.24698,-0.726609 0.56538,-1.359883 0.70755,-1.407274 0.55799,-0.185996 1.48827,4.840789 1.90613,10.299799 0.14991,1.95849 0.23652,2.269628 0.57345,2.060201 0.33202,-0.206365 0.42129,-1.491479 0.54624,-7.863132 0.12042,-6.140732 0.22873,-7.770243 0.55901,-8.410201 0.22531,-0.436562 0.36017,-0.931667 0.29969,-1.100232 -0.0605,-0.168565 0.002,-0.375429 0.13795,-0.459696 0.40561,-0.250677 1.18511,4.754462 1.02223,6.563633 -0.16433,1.825274 0.12963,4.338281 0.40508,3.462962 0.0916,-0.291042 0.24577,-1.153736 0.34263,-1.917099 0.0979,-0.771671 0.64843,-2.357632 1.23987,-3.571875 0.58507,-1.201168 1.51855,-3.49363 2.07439,-5.094359 l 1.01063,-2.910417 -0.64386,-0.485088 c -0.71176,-0.536251 -0.8324,-1.366195 -0.29182,-2.00762 0.19362,-0.229739 0.56544,-0.995772 0.82626,-1.702295 0.26082,-0.706522 0.82594,-1.685182 1.25583,-2.174799 0.50577,-0.576034 0.72746,-1.060859 0.62816,-1.373735 -0.13291,-0.418744 -0.38377,-0.468858 -1.87246,-0.374065 -1.23858,0.07887 -1.71899,0.01899 -1.71899,-0.214257 0,-0.178042 -0.17478,-0.256644 -0.3884,-0.17467 -0.21362,0.08197 -0.44891,0.05115 -0.52286,-0.0685 -0.0739,-0.119649 -0.40549,-0.165731 -0.73677,-0.102402 -1.04855,0.200442 -1.98926,-0.337611 -2.19026,-1.252757 -0.24369,-1.109511 0.71314,-2.124062 2.6119,-2.76947 l 1.39474,-0.474086 -0.48105,-0.94355 c -0.55905,-1.096548 -0.62354,-2.236111 -0.14884,-2.630078 0.18271,-0.15164 0.65553,-0.356857 1.0507,-0.456039 0.70155,-0.176079 0.70984,-0.201017 0.35176,-1.058024 -0.20169,-0.482732 -0.31136,-0.933054 -0.2437,-1.000715 0.0677,-0.06766 0.56354,-0.02585 1.10196,0.09292 0.67982,0.14996 1.31499,0.594606 2.07875,1.45522 0.60489,0.681604 1.21647,1.167175 1.35907,1.079047 0.14259,-0.08813 0.33703,-0.574762 0.43207,-1.081408 0.40084,-2.136641 2.34876,-3.206544 3.51193,-1.92894 0.71577,0.786194 1.67248,3.427278 1.49179,4.118234 l -0.1429,0.546465 1.50086,-0.539677 c 1.48422,-0.533691 1.51606,-0.534127 2.87099,-0.03929 1.16863,0.426795 1.35982,0.592174 1.30004,1.124532 -0.0385,0.343281 -0.26836,0.769132 -0.5107,0.946334 -0.40329,0.294892 -0.39345,0.347427 0.11613,0.620148 0.50051,0.267866 1.3907,1.658175 1.3907,2.172015 0,0.350739 -1.67912,1.232231 -2.68893,1.411606 l -0.96913,0.172153 0.90299,1.341839 c 0.49664,0.738012 0.90299,1.617794 0.90299,1.955071 0,0.337277 0.0712,0.798795 0.15824,1.025595 0.23487,0.61206 -1.08151,1.165471 -1.76175,0.74065 -0.65426,-0.408592 -1.07675,-0.4025 -1.02257,0.01474 0.15617,1.202666 -0.40133,1.304843 -1.60292,0.293776 -0.62115,-0.522666 -0.90589,-0.622534 -1.13155,-0.396875 -0.60899,0.608991 -1.51541,0.337215 -2.08284,-0.624505 -0.30051,-0.509323 -0.63416,-0.926042 -0.74145,-0.926042 -0.10729,0 -0.39529,0.720154 -0.64,1.600342 -0.56699,2.039326 -1.48022,4.01844 -1.99883,4.331775 -0.88275,0.533332 -1.6537,1.514423 -1.50157,1.910856 0.0868,0.22611 -0.42327,2.036518 -1.13341,4.02313 -0.71015,1.986612 -1.37874,4.02874 -1.48576,4.538063 l -0.19458,0.926041 0.86586,-1.190624 c 1.62495,-2.23443 3.21602,-3.958908 4.51108,-4.889309 1.42926,-1.026827 3.96213,-2.321719 4.15809,-2.125764 0.0688,0.06883 -0.17102,0.574054 -0.53301,1.122715 -0.36198,0.548661 -1.14215,2.032035 -1.73371,3.296386 -1.02136,2.182976 -5.83025,9.560879 -7.58281,11.633706 -0.45011,0.532369 -1.04929,1.365806 -1.33151,1.852083 l -0.51314,0.88414 0.9255,-0.926041 c 1.53439,-1.535286 3.91434,-3.512581 5.49167,-4.562549 2.52273,-1.679278 7.94609,-3.374951 10.79428,-3.374951 0.98704,0 1.17296,0.07474 1.04104,0.418515 -0.0883,0.230183 -0.16099,0.617136 -0.16146,0.859895 -5.5e-4,0.279671 -0.84874,0.914397 -2.31511,1.732455 -3.28475,1.832503 -6.44548,3.967999 -7.31135,4.939797 -0.57354,0.643694 -0.63092,0.798105 -0.2534,0.68192 1.67602,-0.51582 5.21649,-1.300687 7.79456,-1.727934 2.57563,-0.426842 3.78369,-0.368198 4.50424,0.218656 l 0.62463,0.50872 -2.38125,1.106581 c -1.30969,0.608619 -3.1327,1.393452 -4.05113,1.744073 -0.91843,0.350621 -2.64484,1.109757 -3.83646,1.686969 l -2.16658,1.049476 3.04271,0.0061 c 4.49699,0.009 11.24919,1.214887 11.57635,2.067449 0.20529,0.534985 -0.86438,1.376091 -1.75003,1.376091 -0.38412,0 -1.53179,0.176527 -2.55038,0.392281 -1.01859,0.215754 -2.98308,0.407271 -4.36552,0.425591 -1.38245,0.01832 -3.22792,0.115229 -4.10104,0.215352 l -1.5875,0.182042 1.18619,0.345225 c 1.48462,0.432078 3.50222,1.443914 3.94643,1.979154 0.32381,0.39016 0.19033,1.027034 -0.1873,0.893742 -0.10055,-0.03549 -9.61853,-0.09574 -21.15105,-0.133885 z m -7.716082,-33.557196 0.0466,-6.615345 -0.828543,-0.828544 c -0.594814,-0.594813 -0.829074,-1.076859 -0.830425,-1.708791 -0.001,-0.484137 -0.07953,-1.70267 -0.174442,-2.707852 -0.135202,-1.431927 -0.100647,-1.783157 0.159607,-1.622311 0.6333,0.391401 0.169411,-0.71217 -0.51245,-1.219097 -0.644853,-0.479413 -0.69417,-0.479312 -1.964508,0.004 -1.23242,0.468914 -1.271456,0.512695 -0.720193,0.807722 0.74902,0.400863 0.49208,0.814551 -0.505914,0.814551 -0.8326,0 -1.046077,0.369733 -0.36449,0.631282 0.227504,0.0873 0.341117,0.276083 0.252471,0.419514 -0.08864,0.143431 0.08952,0.59986 0.395915,1.014285 0.313441,0.423953 0.594567,1.265382 0.642784,1.923898 0.08407,1.148214 0.50166,2.363065 1.993869,5.800604 0.666919,1.536352 1.496003,5.216718 1.987272,8.821644 0.09601,0.704561 0.219858,1.235735 0.275206,1.180387 0.05535,-0.05535 0.121605,-3.077538 0.147237,-6.715977 z M 96.03686,47.668644 c -0.240171,-0.600247 -0.375493,-1.152541 -0.300714,-1.227319 0.130374,-0.130374 0.398119,0.450234 0.794724,1.723365 0.31334,1.005846 -0.0317,0.659386 -0.49401,-0.496046 z m 28.0164,-6.033342 c 0.0835,-0.135044 -0.0881,-0.321661 -0.38126,-0.414704 -0.29315,-0.09304 -0.53301,-0.28021 -0.53301,-0.415924 0,-0.135715 -0.35345,-0.246754 -0.78544,-0.246754 -0.55724,0 -0.74494,0.105562 -0.64603,0.36333 0.26948,0.702251 2.02312,1.236065 2.34574,0.714052 z m -2.63406,-0.548215 c -0.0899,-0.145521 -0.28258,-0.264584 -0.4281,-0.264584 -0.14552,0 -0.191,0.119063 -0.10106,0.264584 0.0899,0.14552 0.28258,0.264583 0.4281,0.264583 0.14552,0 0.191,-0.119063 0.10106,-0.264583 z M 93.048613,33.19314 c -0.403467,-0.205901 -0.941935,-0.556512 -1.196597,-0.779133 -0.433419,-0.37889 -0.46302,-0.317791 -0.46302,0.955717 v 1.360485 l 1.196596,-0.581351 1.196596,-0.581351 z m 6.090219,0.439659 c 0.25274,0.209756 0.3389,0.16728 0.339035,-0.16714 1.38e-4,-0.341946 -0.221898,-0.442057 -0.935491,-0.421793 -0.754627,0.02143 -0.952535,0.140461 -1.022823,0.615175 -0.08502,0.574205 -0.07042,0.577644 0.596637,0.140569 0.494814,-0.324214 0.777434,-0.370315 1.022642,-0.166811 z"
         id="path1397" />
      <path
         style="fill:#67856d;stroke-width:1.26177"
         d="m 85.479968,85.360699 c -0.558628,-0.558628 0.543193,-1.319587 2.818429,-1.946514 l 1.63539,-0.450621 -6.879166,0.02999 c -7.195426,0.03137 -8.209173,-0.109192 -8.016148,-1.111487 0.245285,-1.273667 6.407981,-2.833365 12.460532,-3.153598 1.571287,-0.08313 2.761912,-0.233557 2.645833,-0.334271 -0.394477,-0.342266 -5.23059,-2.332818 -6.957925,-2.863894 -0.945886,-0.290816 -2.315104,-0.76843 -3.042708,-1.061365 -0.727605,-0.292935 -2.011368,-0.798178 -2.852809,-1.122764 -0.84144,-0.324585 -1.486741,-0.719605 -1.434002,-0.877823 0.438369,-1.315104 8.729846,-1.181566 11.986582,0.19305 0.858355,0.362298 1.614177,0.605648 1.679605,0.540779 0.167656,-0.166224 -3.179477,-3.151652 -5.305484,-4.732152 -1.57414,-1.170235 -3.667327,-3.382419 -3.674449,-3.88334 -0.01708,-1.201417 8.52824,1.950811 12.273102,4.527344 0.649622,0.446951 1.260288,0.812638 1.357037,0.812638 0.09675,0 -0.144276,-0.546352 -0.535612,-1.214116 -1.118678,-1.908879 -4.679803,-10.917221 -5.008623,-12.669978 -0.09623,-0.51296 -0.05145,-0.962849 0.105492,-1.059846 0.149986,-0.0927 0.272702,-0.465094 0.272702,-0.827551 0,-0.651954 0.013,-0.648244 1.213569,0.346344 1.599353,1.32495 4.115811,4.827142 5.425609,7.5509 0.578083,1.202138 0.986641,1.863375 0.907906,1.469416 -0.07873,-0.39396 -0.264806,-2.239429 -0.413491,-4.101042 -0.329973,-4.131421 -0.87203,-7.390993 -1.595669,-9.595308 -0.519389,-1.582137 -0.82233,-2.219072 -1.984618,-4.172665 -0.49439,-0.83098 -0.907473,-1.114004 -0.907473,-0.621756 0,0.340594 -1.098267,0.03012 -1.682243,-0.475564 -1.040413,-0.900924 -2.22317,-3.997582 -1.526862,-3.997582 0.126763,0 0.513716,-0.423766 0.859896,-0.941702 0.587766,-0.879386 0.698584,-0.931144 1.674623,-0.782146 0.574864,0.08776 1.183539,0.274364 1.352613,0.414682 0.602863,0.500332 1.703223,2.960217 1.703223,3.807602 0,0.474156 0.636297,2.338402 1.413993,4.14277 1.365784,3.168816 1.782395,4.801133 2.588125,10.140499 0.130153,0.862491 0.294952,1.626475 0.36622,1.697743 0.15259,0.152591 0.148088,0.313716 0.211963,-7.586392 l 0.04991,-6.172568 -0.708348,-0.516201 c -0.389591,-0.283911 -0.773517,-0.840005 -0.853169,-1.235765 -0.275683,-1.369759 -0.240516,-3.897717 0.06454,-4.639392 0.168494,-0.409656 0.306353,-0.9696 0.306353,-1.244321 0,-1.047491 0.584402,-1.847309 1.349771,-1.847309 0.404616,0 0.812824,-0.124844 0.907128,-0.277431 0.230304,-0.37264 0.835405,0.14381 1.362295,1.162702 0.27298,0.527873 0.45549,1.860713 0.54794,4.001455 0.13799,3.195123 0.13538,3.213445 -0.56619,3.970452 l -0.70483,0.760515 0.0422,7.885079 c 0.0232,4.336794 0.12785,7.832169 0.23249,7.767502 0.10463,-0.06467 0.40287,-0.687013 0.66274,-1.382989 1.03549,-2.773165 3.39519,-6.602081 4.52497,-7.342345 0.71423,-0.467982 0.71524,-0.467679 0.52335,0.158194 -0.10575,0.344891 -0.30821,1.197325 -0.44993,1.8943 -0.14171,0.696974 -0.4856,1.798973 -0.76418,2.448887 -0.79397,1.85225 -2.85203,8.852013 -3.05703,10.397411 -0.18469,1.392201 0.31978,6.036207 0.67987,6.258753 0.10135,0.06264 0.33599,-0.745032 0.52142,-1.794821 0.49351,-2.793877 1.42265,-5.846211 2.70461,-8.884939 1.07922,-2.558161 1.4109,-3.08462 1.48077,-2.35033 0.0173,0.181901 0.25537,1.223698 0.52902,2.315104 0.27366,1.091406 0.64381,3.710781 0.82256,5.820833 0.17876,2.110052 0.38658,4.132431 0.46182,4.494177 0.13151,0.632175 0.14858,0.637313 0.43968,0.132291 0.19496,-0.338239 0.36526,-3.164704 0.47802,-7.93376 0.15375,-6.503014 0.24181,-7.602329 0.72054,-8.995833 0.29996,-0.873124 0.55277,-1.527968 0.56181,-1.455208 0.009,0.07276 0.18817,1.433063 0.39808,3.022895 0.20991,1.589832 0.31474,2.998877 0.23295,3.131211 -0.0818,0.132333 -0.0614,1.272343 0.0454,2.533354 0.20842,2.462191 0.44623,2.373176 0.7742,-0.289796 0.11578,-0.940125 0.64931,-2.511664 1.39228,-4.101041 0.66251,-1.417257 1.60197,-3.767456 2.08768,-5.222664 l 0.88311,-2.645834 -0.65186,-0.485088 c -0.66664,-0.496084 -0.84135,-1.19614 -0.41049,-1.644807 0.13276,-0.138245 0.53886,-0.989873 0.90243,-1.892506 0.66035,-1.639404 2.30505,-3.892804 3.04988,-4.178621 0.46941,-0.180129 0.82374,0.299844 0.82935,1.123419 0.002,0.361061 0.16636,0.595312 0.41654,0.595312 0.22687,0 0.3389,-0.119062 0.24897,-0.264583 -0.0899,-0.145521 -0.0397,-0.264584 0.11163,-0.264584 0.60632,0 0.61806,1.434644 0.0269,3.281973 -0.81965,2.561127 -1.51229,3.860466 -2.06209,3.868287 -0.50535,0.0072 -1.38369,1.545052 -1.38369,2.422676 0,0.305444 -0.521,2.056723 -1.15779,3.891729 -0.63678,1.835007 -1.24658,3.753095 -1.35511,4.262418 -0.18543,0.870215 -0.1208,0.822363 1.07198,-0.79375 1.9381,-2.625935 3.79085,-4.285003 6.1641,-5.519704 1.1858,-0.616917 2.15599,-1.044723 2.15599,-0.95068 0,0.09404 -0.24457,0.514458 -0.54349,0.934254 -0.29892,0.419796 -1.09378,1.926457 -1.76635,3.348135 -0.67257,1.421678 -1.64077,3.180182 -2.15156,3.907786 -0.51079,0.727605 -1.8216,2.632604 -2.9129,4.233334 -1.09131,1.600729 -2.31709,3.298976 -2.72396,3.773883 -0.40687,0.474907 -0.93853,1.247841 -1.18147,1.717631 -0.36185,0.699742 -0.0487,0.495804 1.73221,-1.12805 4.00838,-3.654929 5.53318,-4.569514 9.74486,-5.845031 3.85633,-1.167898 6.9736,-1.359689 6.15968,-0.378976 -0.17444,0.210185 -0.24598,0.497328 -0.15898,0.638096 0.1965,0.317936 -0.61038,0.883029 -3.81679,2.673067 -2.52047,1.407101 -4.98559,3.15601 -5.92799,4.205684 -0.62136,0.692096 -0.72143,0.695318 2.41166,-0.07764 3.53682,-0.872563 8.11819,-1.554951 9.05625,-1.348916 0.42543,0.09344 0.90803,0.331977 1.07245,0.530082 0.24046,0.289739 -0.0886,0.544095 -1.68242,1.300422 -1.08974,0.517127 -3.1508,1.407983 -4.58013,1.979679 -2.57556,1.03016 -6.16067,2.662499 -5.90607,2.689096 0.0728,0.0076 1.91823,0.05403 4.10104,0.103165 3.65095,0.08219 5.23885,0.296787 9.06198,1.224683 1.17384,0.284897 1.38906,0.431139 1.38906,0.943841 0,0.72333 -0.69844,1.151 -1.90083,1.163917 -0.48251,0.0052 -1.59167,0.181918 -2.46479,0.392742 -0.87313,0.210824 -2.59953,0.386023 -3.83646,0.389331 -3.0264,0.0081 -5.83749,0.290411 -5.66533,0.56897 0.0772,0.124868 0.40117,0.228195 0.72001,0.229617 1.14956,0.0051 4.41615,1.794935 4.41615,2.419672 0,0.261609 -42.1602,0.308506 -42.421518,0.04719 z"
         id="path1406" />
      <path
         style="fill:#51765f;stroke-width:1.26177"
         d="m 92.62005,40.602594 c -0.241152,-0.26647 -0.383776,-0.539174 -0.316942,-0.606008 0.06683,-0.06683 -0.124958,-0.140084 -0.426204,-0.162776 -0.643175,-0.04845 -0.914303,-0.260607 -0.659135,-0.515775 0.286677,-0.286676 1.634799,0.314382 1.551006,0.691514 -0.04149,0.186718 0.06239,0.505549 0.230834,0.708513 0.453408,0.546323 0.130436,0.44807 -0.379559,-0.115468 z"
         id="path1430" />
      <path
         style="fill:#51765f;stroke-width:1.26177"
         d="m 99.0828,41.461913 c 0.0127,-0.308224 0.07539,-0.370919 0.159852,-0.159852 0.07643,0.190996 0.06703,0.419199 -0.02089,0.507118 -0.08792,0.08792 -0.150452,-0.06835 -0.138964,-0.347266 z"
         id="path1429" />
      <path
         style="fill:#51765f;stroke-width:1.26177"
         d="m 93.791134,42.78483 c 0.01269,-0.308225 0.07539,-0.37092 0.159852,-0.159853 0.07643,0.190996 0.06703,0.419199 -0.02089,0.507118 -0.08792,0.08792 -0.150453,-0.06835 -0.138964,-0.347265 z"
         id="path1428" />
      <path
         style="fill:#51765f;stroke-width:1.26177"
         d="m 120.47993,62.801498 c 0.30359,-0.426344 0.84604,-1.289547 1.20546,-1.918229 0.35941,-0.628682 0.65491,-1.012689 0.65667,-0.853349 0.004,0.346108 -2.03387,3.546749 -2.25802,3.546749 -0.0858,0 0.0923,-0.348827 0.39589,-0.775171 z"
         id="path1427" />
      <path
         style="fill:#51765f;stroke-width:1.26177"
         d="m 111.84873,62.91521 c 10e-4,-1.018645 0.049,-1.402943 0.10627,-0.853994 0.0573,0.548949 0.0563,1.382386 -0.002,1.852083 -0.0585,0.469697 -0.10531,0.02056 -0.10414,-0.998089 z"
         id="path1426" />
      <path
         style="fill:#51765f;stroke-width:1.26177"
         d="m 85.456124,85.305271 c -0.280669,-0.454131 1.840482,-1.585482 3.551622,-1.894317 2.989885,-0.53963 3.178806,-0.635616 1.455208,-0.739357 -0.873125,-0.05255 -2.938204,0.05039 -4.589064,0.228752 -3.100442,0.334982 -9.069808,0.166511 -10.270129,-0.28985 -0.340412,-0.129425 -0.618931,-0.424325 -0.618931,-0.655334 0,-0.552461 2.908165,-1.869236 4.634251,-2.098322 0.72538,-0.09627 2.09278,-0.335017 3.038665,-0.530544 0.945885,-0.195527 3.148542,-0.443621 4.894791,-0.551319 l 3.175,-0.195814 -2.228425,-1.036364 c -1.225634,-0.57 -3.642286,-1.505631 -5.370338,-2.07918 -1.728052,-0.57355 -3.701823,-1.324953 -4.386158,-1.669786 -0.684334,-0.344833 -1.631198,-0.71063 -2.10414,-0.812882 -0.472943,-0.102253 -0.859896,-0.286283 -0.859896,-0.408956 0,-0.952686 6.860124,-1.245669 10.025119,-0.428154 0.92991,0.240194 2.228232,0.674473 2.885159,0.965063 0.656928,0.29059 1.253608,0.469152 1.325957,0.396803 0.220648,-0.220648 -3.412313,-3.515809 -5.240402,-4.753137 -1.465479,-0.991899 -4.233333,-3.759013 -4.233333,-4.232201 0,-0.429777 1.893629,-0.02492 4.679568,1.000486 3.59669,1.323818 4.817506,1.913614 7.278746,3.516482 0.974522,0.634652 1.84909,1.153912 1.943486,1.153912 0.0944,0 -0.180734,-0.625078 -0.6114,-1.389063 -1.19233,-2.115145 -3.970675,-8.915939 -4.418423,-10.815354 -0.420807,-1.785124 -0.539922,-4.201663 -0.206874,-4.196927 0.385745,0.0055 2.595829,2.313658 3.819137,3.988638 1.212821,1.660622 3.390759,5.751302 3.390759,6.368643 0,0.171283 0.05972,0.251701 0.132718,0.178706 0.349672,-0.349672 -0.973424,-12.651313 -1.517667,-14.110684 -0.162807,-0.436562 -0.810765,-1.712354 -1.439907,-2.835093 -0.629142,-1.122738 -1.143894,-2.147149 -1.143894,-2.276469 0,-0.129319 0.298092,-0.556772 0.662427,-0.949896 l 0.662427,-0.71477 0.263614,0.693359 c 0.144988,0.381348 0.263615,0.795022 0.263615,0.919277 0,0.124255 0.199271,0.622519 0.442824,1.107255 0.243553,0.484735 0.60074,1.197364 0.79375,1.583619 0.193009,0.386254 0.350926,1.101415 0.350926,1.589246 0,0.487831 0.110415,1.271961 0.245367,1.74251 0.134952,0.47055 0.444754,2.255701 0.68845,3.967003 0.243696,1.711302 0.559264,3.230521 0.701263,3.376042 0.245838,0.251935 0.195597,-0.329533 -0.228611,-2.645833 -0.26902,-1.46893 0.135427,-0.543679 0.557067,1.274399 0.491011,2.117195 0.520808,2.587 0.128936,2.032892 -0.228293,-0.322807 -0.261485,-0.325893 -0.177849,-0.01654 0.180272,0.666808 0.661999,0.592898 0.84328,-0.129382 0.09637,-0.383973 0.158847,-3.633612 0.138835,-7.221419 l -0.03638,-6.523287 -0.834864,-0.698898 c -0.825318,-0.690907 -0.834608,-0.725697 -0.812501,-3.042708 0.0123,-1.289096 0.164459,-2.687745 0.338132,-3.108109 0.442503,-1.071052 0.58436,-0.760402 0.277144,0.606914 -0.317273,1.412079 0.280634,3.290807 1.326778,4.168964 0.918356,0.770889 1.039721,0.478493 1.097951,-2.645221 0.0263,-1.412114 0.15173,-2.631676 0.27869,-2.710138 0.12695,-0.07846 0.23264,0.0132 0.23487,0.203686 0.003,0.280377 0.0467,0.279125 0.22777,-0.0066 0.34522,-0.544599 0.4963,0.09386 0.44025,1.860504 -0.0286,0.903093 0.0536,1.444907 0.20512,1.351261 0.15462,-0.09556 0.20524,0.418932 0.13021,1.323603 -0.0915,1.103263 -0.26988,1.601106 -0.7009,1.95603 -0.56752,0.467319 -0.57893,0.61271 -0.61905,7.884432 -0.0234,4.240007 -0.12442,6.899137 -0.23623,6.217708 l -0.19536,-1.190625 0.06056,1.322916 c 0.0333,0.727604 0.15244,1.561042 0.26474,1.852084 0.14009,0.363086 0.12521,0.418966 -0.0474,0.178045 -0.278719,-0.388947 -0.60467,1.039366 -0.563165,2.467788 0.02042,0.702849 0.06256,0.657398 0.367987,-0.396875 0.189708,-0.654844 0.358618,-1.071563 0.375348,-0.926042 0.0167,0.145521 0.42189,-0.700524 0.90035,-1.8801 0.47846,-1.179576 1.39567,-3.06357 2.03825,-4.186653 1.14544,-2.001972 2.82151,-4.025571 3.10194,-3.745133 0.078,0.07799 0.0197,0.293513 -0.12957,0.47893 -0.14926,0.185418 -0.40826,0.991967 -0.57555,1.792332 -0.1673,0.800364 -0.70802,2.645833 -1.20161,4.101041 -1.32016,3.892145 -2.27793,7.193636 -2.52773,8.713225 -0.21823,1.327592 0.35307,6.381666 0.77232,6.832401 0.10221,0.109887 0.3934,-0.902145 0.64707,-2.248958 0.57923,-3.075212 1.46301,-5.991452 2.76384,-9.119989 l 1.01368,-2.437904 0.42296,1.247279 c 0.23263,0.686004 0.49972,1.663998 0.59355,2.173321 0.31076,1.68699 0.88082,8.846493 0.78398,9.846325 -0.0524,0.540531 0.0196,1.053712 0.15984,1.1404 0.66761,0.412605 0.90132,-1.529344 1.03877,-8.631429 0.0978,-5.053263 0.23793,-7.418261 0.45503,-7.67953 0.17255,-0.207645 0.40558,-1.029403 0.51786,-1.82613 l 0.20414,-1.448594 0.19562,1.190625 c 0.24337,1.481233 0.21361,4.012043 -0.0513,4.365625 -0.10904,0.14552 -0.2708,1.544666 -0.35947,3.109212 -0.12509,2.207269 -0.0869,2.829727 0.17059,2.778124 0.18249,-0.03658 0.40701,-0.36416 0.49893,-0.727962 0.1596,-0.631636 0.16873,-0.625672 0.20249,0.132292 0.0195,0.436562 0.13771,0.955289 0.26282,1.152727 0.40592,0.640624 0.61618,-0.157463 0.69531,-2.639175 0.0715,-2.243945 0.14898,-2.519445 1.53618,-5.46539 0.80347,-1.706281 1.77447,-4.131937 2.15779,-5.390347 l 0.69694,-2.288019 -0.69966,-0.699662 c -0.63436,-0.634352 -0.66518,-0.754192 -0.33019,-1.283856 0.20321,-0.321306 0.58349,-1.157144 0.84506,-1.857416 0.4587,-1.228024 2.29965,-3.662826 2.90352,-3.84015 0.16162,-0.04746 0.12237,0.0331 -0.0872,0.179025 -0.30799,0.214424 -0.32544,0.446609 -0.091,1.210508 0.17165,0.559279 0.19138,1.006196 0.0483,1.094602 -0.3399,0.210071 -0.14717,2.571231 0.21987,2.693576 0.27367,0.09123 0.86022,-1.434576 0.86384,-2.247151 0.002,-0.467365 1.00936,-1.420169 1.19087,-1.126475 0.0827,0.133807 -0.0452,0.695011 -0.28425,1.24712 -0.23903,0.552109 -0.47727,1.319661 -0.52941,1.705672 -0.19264,1.425969 -0.94829,2.870845 -1.58499,3.030647 -0.66097,0.165892 -1.84344,2.210353 -1.62759,2.814051 0.0654,0.182947 -0.34488,1.642318 -0.91176,3.243047 -1.06999,3.021386 -1.85141,5.732965 -1.69671,5.887667 0.0491,0.04915 0.40808,-0.4545 0.79764,-1.11922 1.52295,-2.598721 5.12682,-5.831038 7.70007,-6.906213 l 0.94096,-0.393156 -1.26907,2.367051 c -0.69799,1.301879 -1.33735,2.347586 -1.42079,2.323795 -0.21503,-0.06131 -2.3229,2.399981 -3.13522,3.660909 -0.375,0.582083 -0.86041,1.058333 -1.07869,1.058333 -0.23754,0 -0.89681,1.009116 -1.64212,2.513542 -1.36944,2.7642 -1.77189,3.883111 -1.28944,3.584945 0.16507,-0.102019 -0.17511,0.549793 -0.75596,1.448471 -0.58084,0.898677 -1.12788,1.860206 -1.21565,2.136729 -0.0878,0.276524 -0.26642,0.502771 -0.39702,0.502771 -0.13059,0 -0.37692,0.26062 -0.5474,0.579156 -0.29947,0.559576 -0.28157,0.557339 0.52959,-0.06615 2.05165,-1.576974 2.69017,-2.201141 2.57058,-2.512793 -0.25085,-0.653683 3.76365,-4.048162 6.3193,-5.343314 1.51377,-0.767155 6.32816,-2.112521 8.24683,-2.304556 l 1.63226,-0.163367 -0.13545,0.859391 c -0.15868,1.006842 -0.27366,1.101374 -3.37893,2.77795 -2.93205,1.583048 -7.3499,4.895091 -6.98663,5.237842 0.051,0.04813 0.98572,-0.144251 2.07712,-0.427516 2.80473,-0.727941 4.23026,-0.970292 7.47115,-1.270154 4.1411,-0.383153 4.68634,-0.01829 1.99951,1.338024 -0.90302,0.455841 -2.65919,1.222377 -3.90261,1.703413 -1.24341,0.481037 -3.07647,1.241307 -4.07345,1.68949 -0.99699,0.448182 -2.18761,0.878258 -2.64584,0.955724 -3.25587,0.550426 -2.14658,0.783313 3.7311,0.783313 4.80829,0 5.75884,0.0718 7.6557,0.578262 2.26069,0.603608 3.44423,1.378827 2.91423,1.908821 -0.16007,0.160073 -0.60549,0.291042 -0.98982,0.291042 -0.38433,0 -1.28325,0.185216 -1.9976,0.411591 -1.0423,0.3303 -6.20678,0.761145 -10.75768,0.897457 -0.95057,0.02847 -0.41953,0.479118 0.71532,0.607032 1.20835,0.136199 4.1436,1.490655 4.03923,1.863883 -0.032,0.114448 0.1204,0.320984 0.33868,0.458969 0.25208,0.159352 -7.34378,0.252359 -20.82032,0.254933 -11.864885,0.0023 -21.28035,-0.09813 -21.360467,-0.227762 z m 17.478856,-3.075478 c 0.0838,-0.218281 0.0623,-0.605235 -0.0476,-0.859896 -0.10997,-0.254661 -0.17502,-0.720957 -0.14457,-1.036212 0.0309,-0.319592 -0.15657,-0.696479 -0.42368,-0.85185 -0.26348,-0.153263 -0.33023,-0.28228 -0.14832,-0.286705 0.31063,-0.0076 0.49613,-0.801795 0.18727,-0.801795 -0.36581,0 -0.82309,0.690717 -0.71951,1.086806 0.0634,0.242535 -0.0128,0.520125 -0.16929,0.616867 -0.16871,0.104268 -0.22706,0.02595 -0.1433,-0.192333 0.0777,-0.202525 -0.0427,-0.520944 -0.26761,-0.707597 -0.34081,-0.282848 -0.40892,-0.266459 -0.40892,0.0984 0,0.993756 1.34666,3.331191 1.91919,3.331191 0.11775,0 0.28262,-0.178594 0.36638,-0.396875 z m -0.56462,-0.134161 c 0.0906,-0.146548 -0.0215,-0.33788 -0.24897,-0.425182 -0.47922,-0.183895 -0.56264,-0.895865 -0.10496,-0.895865 0.16977,0 0.23497,0.07371 0.14489,0.163789 -0.0901,0.09009 0.009,0.336714 0.22048,0.548066 0.45108,0.451073 0.50154,0.875644 0.10408,0.875644 -0.15411,0 -0.20609,-0.119903 -0.11552,-0.266452 z m -17.463656,-0.94181 c 0.291042,-0.05815 0.87794,-0.181417 1.304218,-0.273926 l 0.775052,-0.168199 -0.625049,-0.334516 c -0.610226,-0.326583 -1.428269,-0.153957 -3.769325,0.795415 -0.899582,0.36481 -0.4481,0.600642 0.661459,0.345514 0.618463,-0.142208 1.362604,-0.306137 1.653645,-0.364288 z m 36.698106,0.06165 c 1.14394,-0.241815 1.45581,-0.404176 1.29042,-0.671787 -0.15855,-0.256541 -0.35373,-0.280322 -0.71478,-0.08709 -0.27316,0.146195 -0.5562,0.26918 -0.62896,0.2733 -0.11799,0.0067 -0.56935,0.164425 -1.85208,0.647273 -0.71424,0.268856 0.25957,0.186219 1.9054,-0.161692 z M 105.6579,80.352571 c 0.0496,0.63919 1.02652,-0.776963 1.04388,-1.513278 0.0232,-0.986003 0.10765,-1.371401 0.52156,-2.381412 0.16788,-0.409655 0.30524,-1.391921 0.30524,-2.182812 0,-0.971838 0.10721,-1.439297 0.33073,-1.442036 0.26352,-0.0032 0.26378,-0.04657 0.001,-0.21327 -0.22834,-0.145005 -0.28623,-0.664944 -0.1886,-1.694049 0.0775,-0.816656 0.0324,-1.551854 -0.10014,-1.633774 -0.28797,-0.177976 -0.64992,2.241567 -0.42356,2.83144 0.087,0.226646 -0.0163,0.807371 -0.2295,1.290499 -0.21319,0.483128 -0.38945,1.321523 -0.39167,1.8631 -0.004,0.876779 -0.59705,1.958795 -0.90528,1.650572 -0.0647,-0.06472 -0.0818,0.268374 -0.038,0.740203 0.0727,0.782892 0.0594,0.800059 -0.15204,0.196414 -0.17165,-0.489919 -0.23376,-0.146841 -0.23952,1.322917 -0.005,1.334701 0.0667,1.811128 0.21961,1.455208 0.12507,-0.291042 0.23576,-0.421417 0.24599,-0.289722 z m 7.98873,-2.478238 c 1.29174,-1.304097 2.34861,-2.434444 2.34861,-2.511882 0,-0.21166 -0.85167,-0.02688 -1.48656,0.322533 -0.30829,0.169665 -0.61902,0.249984 -0.69052,0.178487 -0.16854,-0.168537 -2.10573,2.440225 -2.52639,3.402209 -0.67315,1.539406 -0.37171,1.361301 2.35486,-1.391347 z m 12.33112,1.946649 c -0.0879,-0.08792 -0.31612,-0.09732 -0.50712,-0.02089 -0.21106,0.08446 -0.14837,0.147157 0.15986,0.159852 0.27891,0.01149 0.43518,-0.05105 0.34726,-0.138964 z m 0.79926,-0.551698 c -0.25466,-0.06655 -0.67138,-0.06655 -0.92604,0 -0.25466,0.06655 -0.0463,0.121 0.46302,0.121 0.50933,0 0.71769,-0.05445 0.46302,-0.121 z M 97.209829,71.285266 c 0,-0.28412 -0.81285,-1.355611 -2.327309,-3.067835 -0.63843,-0.7218 -1.50877,-2.001721 -1.934087,-2.844271 -0.855675,-1.695082 -1.162512,-1.990218 -0.705166,-0.678275 0.9262,2.656897 4.966562,8.018258 4.966562,6.590381 z m -3.298591,-0.815352 c -0.190846,-0.308797 -2.262493,-1.718252 -3.358787,-2.285167 -1.510805,-0.781268 -0.491148,0.106207 1.224143,1.065453 0.938192,0.524666 1.777596,1.070102 1.865342,1.212079 0.08775,0.141977 0.219071,0.258139 0.291831,0.258139 0.07276,0 0.06262,-0.112727 -0.02253,-0.250504 z M 106.3355,68.638546 c 0.1476,-0.690337 0.10972,-0.864633 -0.16808,-0.773186 -0.21451,0.07062 -0.38618,0.588272 -0.42718,1.288122 -0.0762,1.301269 0.27118,1.000732 0.59526,-0.514936 z m 17.72954,-0.423468 c 0.43656,-0.357846 0.67468,-0.650629 0.52916,-0.650629 -0.14552,0 -0.62177,0.292783 -1.05833,0.650629 -0.43656,0.357846 -0.67469,0.650629 -0.52917,0.650629 0.14552,0 0.62177,-0.292783 1.05834,-0.650629 z M 95.638037,65.844555 c -0.164396,-0.198086 -0.834798,-1.461212 -1.489781,-2.806947 -1.116858,-2.294709 -3.255894,-5.667083 -3.463101,-5.459876 -0.112768,0.112768 2.744109,5.437722 3.218474,5.998937 0.184502,0.218281 0.665239,1.051718 1.068304,1.852083 0.403065,0.800365 0.785082,1.302377 0.848926,1.115583 0.06385,-0.186794 -0.01842,-0.501695 -0.182822,-0.69978 z m 33.035163,0.20765 c 0.2624,-0.224423 -1.20678,-0.06114 -1.56546,0.173979 -0.27922,0.183037 -0.12235,0.209787 0.52917,0.09023 0.50932,-0.09346 0.97565,-0.212356 1.03629,-0.264214 z m -14.43127,-4.117282 c -0.26293,-0.425427 -0.87161,1.07687 -1.02048,2.518675 l -0.14167,1.372029 0.65825,-1.820479 c 0.36204,-1.001264 0.58879,-1.932865 0.5039,-2.070225 z m 5.40638,-14.372546 c -0.0815,-0.08146 -0.2294,0.06538 -0.32876,0.326319 -0.14359,0.377084 -0.1132,0.407475 0.14811,0.148112 0.18082,-0.179475 0.26211,-0.39297 0.18065,-0.474431 z m -0.78548,-0.654457 c 0.13135,0 0.23093,-0.390358 0.22129,-0.867462 -0.01,-0.477104 0.0882,-1.042651 0.21739,-1.256771 0.20517,-0.340038 0.17563,-0.341184 -0.23341,-0.0091 -0.25757,0.20914 -0.75447,0.944975 -1.10422,1.635188 -0.57803,1.140671 -0.59421,1.263438 -0.1778,1.348346 0.25621,0.05224 0.54182,-0.114543 0.64803,-0.378417 0.10446,-0.259507 0.29738,-0.471831 0.42872,-0.471831 z"
         id="path1423" />
      <path
         style="fill:#2f6955;stroke-width:1.26177"
         d="m 97.261409,39.631878 c 0.0054,-0.436562 0.06469,-0.583124 0.131773,-0.325693 0.06708,0.257431 0.06267,0.614618 -0.0098,0.79375 -0.07248,0.179131 -0.127362,-0.03149 -0.12197,-0.468057 z"
         id="path1496" />
      <path
         style="fill:#2f6955;stroke-width:1.26177"
         d="m 100.84003,40.999301 c -0.10484,-0.266563 -0.187,-0.683282 -0.18257,-0.926041 0.007,-0.393787 0.0376,-0.390557 0.28238,0.02995 0.15089,0.259234 0.23304,0.675953 0.18258,0.926042 -0.0838,0.415267 -0.1083,0.412669 -0.28239,-0.02995 z"
         id="path1495" />
      <path
         style="fill:#2f6955;stroke-width:1.26177"
         d="m 97.4953,41.99108 c 0.0127,-0.308225 0.07539,-0.37092 0.159853,-0.159853 0.07643,0.190996 0.06703,0.419199 -0.02089,0.507118 -0.08792,0.08792 -0.150452,-0.06835 -0.138963,-0.347265 z"
         id="path1494" />
      <path
         style="fill:#2f6955;stroke-width:1.26177"
         d="m 97.017308,41.616253 c 0,-0.654843 0.0516,-0.922734 0.114663,-0.595312 0.06306,0.327422 0.06306,0.863203 0,1.190625 -0.06306,0.327422 -0.114663,0.05953 -0.114663,-0.595313 z"
         id="path1493" />
      <path
         style="fill:#2f6955;stroke-width:1.26177"
         d="m 100.83468,43.907855 c -0.0823,-0.21439 0.0963,-0.609346 0.39691,-0.87768 0.53864,-0.480882 0.54365,-0.478392 0.34929,0.173578 -0.26655,0.894098 -0.56517,1.17587 -0.7462,0.704102 z"
         id="path1492" />
      <path
         style="fill:#2f6955;stroke-width:1.26177"
         d="m 117.73205,46.036613 c 0.0994,-0.260938 0.2473,-0.407781 0.32876,-0.32632 0.0815,0.08146 1.7e-4,0.294957 -0.18065,0.474432 -0.26131,0.259363 -0.2917,0.228972 -0.14811,-0.148112 z"
         id="path1491" />
      <path
         style="fill:#2f6955;stroke-width:1.26177"
         d="m 119.91458,50.747106 c 0.31425,-0.399511 0.52596,-0.801686 0.47045,-0.893722 -0.0555,-0.09204 0.0652,-0.320862 0.26819,-0.5085 0.43022,-0.397648 0.47231,-0.09702 0.11719,0.837016 -0.13856,0.364427 -0.51636,0.804119 -0.83956,0.977092 l -0.58765,0.314497 z"
         id="path1489" />
      <path
         style="fill:#2f6955;stroke-width:1.26177"
         d="m 111.25363,55.749412 c 0.0127,-0.308224 0.0754,-0.370919 0.15986,-0.159852 0.0764,0.190996 0.067,0.419199 -0.0209,0.507118 -0.0879,0.08792 -0.15046,-0.06835 -0.13897,-0.347266 z"
         id="path1487" />
      <path
         style="fill:#2f6955;stroke-width:1.26177"
         d="m 100.19592,56.829794 c 0.002,-0.727604 0.0534,-0.993858 0.11419,-0.591674 0.0608,0.402183 0.0592,0.997495 -0.004,1.322916 -0.0628,0.325421 -0.11256,-0.0036 -0.11057,-0.731242 z"
         id="path1486" />
      <path
         style="fill:#2f6955;stroke-width:1.26177"
         d="m 111.8233,62.518335 c 0,-0.509322 0.0545,-0.717682 0.121,-0.46302 0.0666,0.254661 0.0666,0.67138 0,0.926041 -0.0665,0.254662 -0.121,0.0463 -0.121,-0.463021 z"
         id="path1482" />
      <path
         style="fill:#2f6955;stroke-width:1.26177"
         d="m 100.21861,64.774291 c -0.16939,-0.441421 -0.12004,-0.718827 0.56605,-3.181997 0.85742,-3.078282 3.67966,-8.309707 4.89103,-9.066217 0.44474,-0.277745 0.46189,-0.227954 0.23393,0.679082 -0.81574,3.2457 -1.38691,5.052079 -1.56304,4.943225 -0.11083,-0.06849 -0.39271,0.353354 -0.62642,0.937438 -0.51597,1.289537 -0.54626,2.029846 -0.0376,0.918972 0.52503,-1.146617 0.4763,-0.76076 -0.13366,1.058333 -0.37781,1.126739 -0.48951,1.305513 -0.38486,0.615945 0.24915,-1.641704 -0.35431,-1.426434 -0.83356,0.297357 -0.2447,0.880132 -0.54445,1.60024 -0.66611,1.60024 -0.12167,0 -0.22121,0.233936 -0.22121,0.519857 0,0.701349 -1.00256,1.256249 -1.22455,0.677765 z"
         id="path1481" />
      <path
         style="fill:#2f6955;stroke-width:1.26177"
         d="m 101.73673,66.235731 c -0.019,-0.946305 0.0606,-1.352428 0.23153,-1.181464 0.16373,0.163726 0.1745,0.699461 0.029,1.441979 l -0.23153,1.181464 z"
         id="path1479" />
      <path
         style="fill:#2f6955;stroke-width:1.26177"
         d="m 91.241128,68.456864 c -0.49319,-0.395127 -0.489944,-0.400012 0.08172,-0.122983 0.327422,0.158669 0.595312,0.343831 0.595312,0.411472 0,0.202464 -0.137215,0.143996 -0.677034,-0.288489 z"
         id="path1478" />
      <path
         style="fill:#2f6955;stroke-width:1.26177"
         d="m 85.434716,85.270632 c -0.09057,-0.146548 0.05123,-0.333702 0.315114,-0.415896 0.263885,-0.08219 1.253697,-0.434732 2.199582,-0.783416 0.945886,-0.348685 2.228446,-0.712952 2.850135,-0.809483 0.621689,-0.09653 1.205632,-0.29733 1.297652,-0.446221 0.113626,-0.183851 -1.055543,-0.196212 -3.643885,-0.03853 -5.165941,0.314718 -11.757753,0.229404 -12.708676,-0.164481 -0.417894,-0.173098 -0.759808,-0.485424 -0.759808,-0.694059 0,-0.450322 2.482194,-1.598537 4.205006,-1.945155 3.293094,-0.662547 5.979587,-1.038604 8.627285,-1.207651 l 2.910416,-0.185821 -2.116666,-1.012538 c -1.164167,-0.556895 -3.388606,-1.42751 -4.943198,-1.934699 -1.554592,-0.50719 -3.599895,-1.272822 -4.545117,-1.701407 -0.945222,-0.428584 -2.084298,-0.859567 -2.531281,-0.957741 -1.049518,-0.230513 -1.032373,-0.555547 0.0472,-0.894806 1.602517,-0.503596 3.761088,-0.60972 6.404073,-0.314852 2.448347,0.273154 5.896012,1.260575 6.683579,1.914197 0.251175,0.208457 0.339951,0.178525 0.339951,-0.11462 0,-0.484576 -3.906147,-4.06992 -5.857284,-5.376238 -1.508289,-1.009824 -3.760648,-3.37109 -3.481695,-3.650043 0.50595,-0.50595 4.484263,0.663211 4.141864,1.217225 -0.102175,0.165323 -0.05299,0.209058 0.116984,0.104012 0.161312,-0.0997 0.621853,-0.0988 1.023423,0.002 0.657774,0.165091 0.678645,0.203379 0.210605,0.386374 -0.34641,0.135439 -0.387277,0.210436 -0.122647,0.225071 0.539913,0.02986 3.113305,1.352837 4.537596,2.332775 1.729293,1.189785 3.92907,2.455376 3.92907,2.2605 0,-0.09391 -0.201683,-0.393597 -0.448186,-0.665979 -0.423107,-0.467529 -0.421087,-0.484842 0.0361,-0.309402 0.545876,0.209472 0.549981,0.224502 -0.467338,-1.711167 -0.988402,-1.880649 -0.472303,-1.507574 0.969768,0.701021 1.256035,1.923673 2.442864,3.164564 2.741278,2.86615 0.303135,-0.303135 -0.658793,-1.843945 -2.318282,-3.713409 -1.574541,-1.773768 -2.490322,-3.441772 -2.732182,-4.976399 -0.07429,-0.471345 -0.340884,-1.00749 -0.592442,-1.191434 -0.58958,-0.431111 -0.746884,-0.262114 -0.385154,0.413784 0.157311,0.293938 0.279161,0.691088 0.270778,0.882556 -0.02141,0.4889 -1.114486,-1.97381 -1.785564,-4.022874 -0.578594,-1.766674 -1.006892,-5.550877 -0.628251,-5.550877 0.117363,0 0.563085,0.375602 0.990493,0.834671 0.427408,0.459069 0.598512,0.736409 0.380231,0.616312 -0.218282,-0.120097 0.398353,0.564753 1.370298,1.52189 1.454702,1.432538 2.033957,2.282625 3.27596,4.807646 1.510516,3.070912 1.913114,3.673041 1.586932,2.373426 -0.0958,-0.381684 -0.286906,-2.018793 -0.424687,-3.638021 C 95.771655,52.87458 95.110934,48.953924 94.3916,48.363141 94.214415,48.21762 93.69368,47.405623 93.23441,46.558703 92.418838,45.05474 92.412268,45.015477 92.952517,44.874199 c 0.304228,-0.07956 0.553142,-0.323936 0.553142,-0.543063 0,-0.315029 0.079,-0.332853 0.377441,-0.08517 0.279071,0.231609 0.314283,0.498638 0.135107,1.024585 -0.166789,0.489583 -0.127715,1.03964 0.125338,1.764466 0.327815,0.938968 0.378283,0.98199 0.465564,0.396875 0.188081,-1.260868 1.511792,3.583246 2.078339,7.605677 0.302807,2.149896 0.714116,4.266088 0.914022,4.702651 0.199905,0.436562 0.42252,1.329531 0.494699,1.984375 0.192947,1.750489 0.224227,1.809355 0.42179,0.793749 0.09908,-0.509322 0.202349,-4.62444 0.229494,-9.144705 l 0.04935,-8.218664 -0.79349,-0.586652 c -0.477825,-0.353271 -0.78937,-0.820328 -0.783134,-1.174044 0.0084,-0.475407 0.0843,-0.417061 0.398203,0.306039 0.375717,0.865489 0.42711,0.889644 1.643289,0.77233 l 1.255439,-0.1211 -0.17026,5.048502 c -0.0936,2.776677 -0.30413,6.655847 -0.467744,8.620378 -0.389311,4.674297 -0.401327,10.388012 -0.02808,13.354164 0.164304,1.305675 0.349604,2.424828 0.411774,2.487006 0.0622,0.06218 0.0478,-1.006102 -0.032,-2.373956 -0.0798,-1.367853 -0.0327,-3.201381 0.10452,-4.074506 0.20355,-1.294777 0.25552,-1.404548 0.28184,-0.595313 0.0287,0.883772 0.21372,1.109026 0.85162,1.037031 0.0868,-0.0098 0.30907,1.017896 0.49382,2.283772 0.18475,1.265876 0.45515,2.777843 0.6009,3.359926 0.26203,1.046452 0.27206,1.024249 0.89376,-1.977762 0.72426,-3.497234 1.07737,-4.660577 2.55911,-8.431327 1.03146,-2.624847 1.08922,-2.709418 1.41976,-2.078568 0.49866,0.951726 1.0855,4.648679 1.24727,7.857449 0.13481,2.673866 0.12563,2.639543 -0.24455,-0.914568 -0.55225,-5.302278 -0.95385,-5.346901 -1.29385,-0.143765 -0.0808,1.236927 -0.26517,2.606146 -0.40966,3.042708 -0.26688,0.806346 -0.13199,-4.092254 0.17303,-6.283854 0.0759,-0.545703 0.0722,-0.992187 -0.008,-0.992187 -0.33896,0 -0.78774,1.281289 -0.97005,2.769559 -0.10754,0.877836 -0.33518,2.625849 -0.50588,3.884472 -0.19742,1.455598 -0.22677,2.755494 -0.0807,3.571875 0.15425,0.861838 0.12011,1.804975 -0.10391,2.870968 -0.59719,2.84171 -0.40951,6.303883 0.35768,6.598282 0.7852,0.301308 1.75454,-1.812529 2.35847,-5.143074 0.47793,-2.635694 0.74095,-3.438931 1.1052,-3.375232 0.84774,0.148249 1.0898,-1.699406 1.16914,-8.924189 0.0566,-5.151884 0.1637,-7.075946 0.40749,-7.319608 0.1819,-0.181804 0.33073,-0.663928 0.33073,-1.071386 0,-0.95227 0.44006,-0.961332 0.64243,-0.01323 0.18507,0.867019 0.0215,1.833978 -0.39529,2.336129 -0.36912,0.444754 -0.58679,8.920137 -0.22333,8.695507 0.13243,-0.08184 0.24077,-0.558496 0.24077,-1.059231 0,-0.588138 0.12651,-0.910427 0.35737,-0.910427 0.41842,0 0.21852,1.597988 -0.49145,3.928701 -0.2371,0.778338 -0.37137,1.47487 -0.29839,1.547849 0.33564,0.335647 0.65072,-0.301998 0.82044,-1.660411 0.10233,-0.819057 0.51928,-2.093502 0.93168,-2.847767 0.41055,-0.750886 1.12738,-2.459244 1.59296,-3.796351 0.65968,-1.894528 0.79338,-2.590528 0.60575,-3.153415 l -0.24077,-0.72231 -0.46187,0.973309 c -0.25402,0.535321 -0.58855,1.692522 -0.74339,2.571559 -0.15484,0.879037 -0.33226,1.547514 -0.39427,1.485505 -0.36602,-0.366021 0.57789,-3.752374 1.70038,-6.100259 0.70403,-1.472598 1.62882,-3.79539 2.05509,-5.16176 l 0.77503,-2.48431 -0.59074,-0.392233 c -0.70318,-0.466894 -0.71474,-0.901072 -0.0616,-2.312064 0.58957,-1.273593 0.69263,-1.035682 0.1323,0.305393 -0.52642,1.25989 -0.50082,1.610332 0.13229,1.811273 0.33812,0.107315 0.52916,0.400324 0.52916,0.81158 0,0.754577 0.64138,0.868929 1.02535,0.182812 0.51485,-0.919987 0.51731,-0.157602 0.003,0.990704 -0.29021,0.648202 -0.55536,1.538292 -0.58922,1.977977 -0.0339,0.439685 -0.68234,2.682826 -1.44107,4.984757 -0.75873,2.301931 -1.37837,4.266462 -1.37699,4.365625 0.001,0.09916 0.45985,-0.53408 1.01881,-1.407205 0.55897,-0.873125 1.76388,-2.361406 2.67758,-3.307292 0.9137,-0.945885 1.44063,-1.422135 1.17096,-1.058333 -0.26967,0.363802 0.005,0.181368 0.61139,-0.40541 1.22686,-1.188082 3.24999,-2.428586 3.24999,-1.992769 0,0.154832 -0.20135,0.281513 -0.44744,0.281513 -0.4034,0 -0.40011,0.03462 0.0335,0.351674 0.41235,0.301519 0.43397,0.443026 0.15158,0.992188 -0.48418,0.941579 -2.1662,2.626875 -2.44797,2.452735 -1.02848,-0.635636 -6.07318,7.8963 -6.38211,10.793848 -0.0829,0.777331 -1.37891,2.911813 -2.57754,4.245032 -0.43316,0.481789 -0.96257,1.200204 -1.17649,1.596477 -0.35912,0.665272 -0.3532,0.706862 0.0772,0.5426 0.36441,-0.139073 0.32178,0.0059 -0.19532,0.664211 -1.62733,2.071773 -1.90493,2.490526 -2.6604,4.013188 -0.44069,0.888218 -0.73619,1.720222 -0.65666,1.848898 0.33014,0.534191 1.65888,-0.231637 2.75971,-1.59058 2.00961,-2.480816 2.51539,-3.008443 4.40502,-4.595221 2.69943,-2.266796 4.42446,-4.171299 4.02148,-4.439875 -0.18069,-0.120424 -0.59641,-0.173114 -0.92384,-0.117088 -0.37571,0.06429 -0.59531,-0.031 -0.59531,-0.25832 0,-0.631175 -0.51518,-0.393459 -1.92956,0.890349 -0.75775,0.687794 -1.04418,0.88324 -0.6365,0.434324 0.40767,-0.448915 0.76134,-1.083225 0.78592,-1.409577 0.0804,-1.067902 4.21338,-4.423204 6.75792,-5.48638 1.99757,-0.834638 5.79989,-1.864423 7.39813,-2.003638 l 1.66028,-0.14462 -0.0591,0.877256 c -0.0628,0.932904 0.0518,0.847309 -4.71669,3.523442 -1.63358,0.916791 -5.9386,4.252007 -5.74207,4.448537 0.07,0.07 1.23039,-0.166261 2.57862,-0.525037 1.34824,-0.358776 2.60665,-0.592721 2.79648,-0.519877 0.18983,0.07284 0.74056,0.0019 1.22385,-0.157557 0.48329,-0.1595 2.06578,-0.402952 3.51664,-0.541003 2.06543,-0.196528 2.71243,-0.177127 2.98117,0.0894 0.28042,0.278106 -0.0722,0.544354 -1.92694,1.45491 -1.2486,0.612981 -3.33162,1.519573 -4.62894,2.014649 -1.29732,0.495076 -2.71895,1.086399 -3.15918,1.314051 -0.73813,0.381702 -0.78729,0.379704 -0.63173,-0.02568 0.13975,-0.364185 0.0489,-0.409539 -0.52942,-0.264384 -0.67903,0.170428 -2.15336,1.036539 -3.22536,1.894781 -0.51664,0.413622 -0.51351,0.419908 0.13229,0.265534 1.53749,-0.367523 8.75011,-0.474065 10.76379,-0.158999 2.43208,0.380533 4.05288,0.817906 4.05288,1.093672 0,0.108251 0.36793,0.32508 0.81761,0.481842 0.99289,0.346123 0.89463,0.9253 -0.17656,1.040638 -0.42534,0.0458 -1.48772,0.271366 -2.36084,0.501264 -0.87313,0.229898 -2.65906,0.444092 -3.96875,0.475985 -3.85232,0.09381 -7.80521,0.444958 -7.80521,0.693358 0,0.126774 0.44649,0.231163 0.99219,0.231975 1.30516,0.0019 3.0307,0.49063 2.8373,0.80355 -0.084,0.135985 0.002,0.188843 0.19166,0.117462 0.53035,-0.199814 2.23583,0.924625 1.80566,1.190484 -0.26309,0.162597 -0.22571,0.245838 0.15406,0.343081 0.27578,0.07062 -8.98679,0.142208 -20.58348,0.159088 -13.902891,0.02024 -21.141003,-0.06007 -21.249587,-0.23576 z m 5.353455,-0.157983 c -0.08792,-0.08792 -0.316122,-0.09732 -0.507118,-0.02089 -0.211067,0.08446 -0.148372,0.147157 0.159852,0.159853 0.278915,0.01149 0.435185,-0.05105 0.347266,-0.138963 z m 27.522179,-0.02253 c -0.25466,-0.06655 -0.67138,-0.06655 -0.92604,0 -0.25466,0.06655 -0.0463,0.121 0.46302,0.121 0.50932,0 0.71768,-0.05445 0.46302,-0.121 z m -14.48594,-0.690741 c 0,-0.189177 -0.10097,-0.457068 -0.22437,-0.595312 -0.12341,-0.138245 -0.43015,-1.561042 -0.68164,-3.161771 -0.2515,-1.600729 -0.56795,-3.185452 -0.70323,-3.521607 -0.13528,-0.336155 -0.25917,-1.855768 -0.2753,-3.376918 -0.0406,-3.824352 -0.57905,-3.934127 -0.90732,-0.184965 -0.13846,1.581272 -0.36249,2.181662 -0.41357,1.108317 -0.0194,-0.408507 -0.10719,-0.257226 -0.243,0.418923 -0.20463,1.018728 -0.12902,3.325236 0.14962,4.564062 0.23108,1.027414 -0.30607,0.647113 -0.634555,-0.449256 -0.290337,-0.969059 -1.405556,-2.345974 -5.001596,-6.17526 -0.654251,-0.696688 -1.977392,-1.794665 -2.940313,-2.439949 -0.962921,-0.645284 -1.98889,-1.343014 -2.279932,-1.550512 -0.291042,-0.207498 -0.826823,-0.457191 -1.190625,-0.554875 -0.520968,-0.139884 -0.33833,0.130543 0.859896,1.273223 0.836745,0.797956 1.521354,1.604826 1.521354,1.793043 0,0.621644 1.921602,2.348899 2.613191,2.348899 0.481558,0 1.296641,0.672856 3.095025,2.554958 1.969733,2.061429 2.62159,2.955825 3.374606,4.630208 0.513309,1.141388 0.809139,2.07525 0.657399,2.07525 -0.43373,0 -2.969638,-1.413686 -3.207201,-1.787906 -0.770526,-1.213766 -3.034208,-1.987076 -5.606978,-1.915434 -0.582084,0.01621 -1.693804,0.02075 -2.47049,0.01008 -2.227765,-0.03059 -10.459702,2.083513 -10.716272,2.752122 -0.243879,0.635539 2.199256,0.738121 7.233637,0.303725 5.086306,-0.438876 9.761486,-0.333326 11.622653,0.262401 0.644386,0.206257 1.455085,0.375012 1.801552,0.375012 0.409737,0 0.563775,0.107058 0.440661,0.306262 -0.127279,0.205942 -0.01787,0.261437 0.334008,0.169418 0.28943,-0.07569 0.98782,0.133975 1.56273,0.469151 1.16264,0.677824 2.23006,0.820802 2.23006,0.298711 z m 20.10833,-0.185208 c -0.3638,-0.11651 -1.3163,-0.206809 -2.11666,-0.200664 -1.40693,0.0108 -1.4201,0.01746 -0.39688,0.200664 0.58209,0.10422 1.53459,0.194519 2.11667,0.200664 0.8966,0.0095 0.95725,-0.0212 0.39687,-0.200664 z m 0.7221,-0.689019 c -0.0879,-0.08792 -0.31613,-0.09732 -0.50712,-0.02089 -0.21107,0.08446 -0.14837,0.147157 0.15985,0.159853 0.27892,0.01149 0.43518,-0.05105 0.34727,-0.138963 z m -10.10157,-1.659486 c 0.13824,-0.127511 1.04601,-0.491407 2.01726,-0.808658 2.04036,-0.666465 3.17944,-1.547942 1.22519,-0.948109 -0.62646,0.192283 -1.48045,0.482636 -1.89776,0.645229 -0.83923,0.326982 -2.23394,1.343376 -1.8434,1.343376 0.13604,0 0.36046,-0.104327 0.49871,-0.231838 z m 7.88547,-0.470991 c 1.03832,-0.09502 1.88641,-0.05966 1.98437,0.08273 0.22514,0.327237 7.95131,0.01469 8.59916,-0.347861 0.43406,-0.242913 0.34971,-0.354939 -0.75445,-1.002022 -1.497,-0.877297 -3.52089,-1.191605 -6.06745,-0.942267 -1.83265,0.179438 -5.24457,1.134053 -5.89726,1.649984 -0.17729,0.140142 -0.83214,0.423286 -1.45521,0.629209 l -1.13286,0.374406 1.4552,-0.139123 c 0.80037,-0.07652 2.27119,-0.213795 3.2685,-0.305061 z m 2.42005,-5.911754 c 0.0899,-0.145521 0.0374,-0.264583 -0.11668,-0.264583 -0.15411,0 -0.2802,0.119062 -0.2802,0.264583 0,0.145521 0.0525,0.264583 0.11668,0.264583 0.0642,0 0.19026,-0.119062 0.2802,-0.264583 z m 3.10885,-1.335427 c 0.40018,-0.185357 0.7276,-0.434411 0.7276,-0.553453 0,-0.263412 -1.3777,0.315257 -1.64959,0.69287 -0.10691,0.148483 -0.19621,0.177614 -0.19844,0.06474 -0.004,-0.207905 -1.59155,0.51967 -1.59155,0.729457 0,0.129478 1.62326,-0.429334 2.71198,-0.93361 z m -5.83918,-4.176186 c 0.53562,-0.500476 2.44062,-1.674231 4.23334,-2.608343 2.98455,-1.55513 3.16203,-1.687789 2.10411,-1.572748 -1.99708,0.217168 -8.23733,3.573909 -8.23733,4.431005 0,0.164989 0.19428,0.216679 0.44818,0.119246 0.4212,-0.161627 0.4212,-0.142158 0,0.323255 -0.2465,0.272382 -0.44818,0.589741 -0.44818,0.705241 0,0.256286 0.61036,-0.192729 1.89988,-1.397656 z M 96.769946,68.008439 c -0.438877,-1.481981 -0.939252,-2.56988 -1.673293,-3.63802 -0.25001,-0.363802 -0.974265,-1.640862 -1.609456,-2.837911 -1.152075,-2.171141 -3.950285,-6.206968 -3.950285,-5.697452 0,0.537846 0.869913,2.33178 1.48546,3.063316 0.347164,0.412581 0.631207,0.874266 0.631207,1.025966 0,0.1517 0.400539,0.946237 0.890086,1.765637 0.489547,0.8194 1.514702,2.680444 2.278122,4.135652 1.209607,2.305718 2.018706,3.571875 2.282496,3.571875 0.04236,0 -0.108089,-0.625078 -0.334337,-1.389063 z m 25.458584,-0.586897 c 0.28247,-0.213654 0.39453,-0.388461 0.24901,-0.388461 -0.14553,0 -0.4957,0.174807 -0.77818,0.388461 -0.28247,0.213653 -0.39453,0.38846 -0.24901,0.38846 0.14553,0 0.4957,-0.174807 0.77818,-0.38846 z M 99.242652,45.799977 c -0.08446,-0.211067 -0.147156,-0.148372 -0.159852,0.159852 -0.01149,0.278915 0.05104,0.435185 0.138964,0.347266 0.08792,-0.08792 0.09732,-0.316122 0.02089,-0.507118 z"
         id="path1471" />
      <path
         style="fill:#105b4b;stroke-width:1.26177"
         d="m 97.006629,41.616253 c 0,-0.509323 0.05445,-0.717682 0.121,-0.463021 0.06655,0.254662 0.06655,0.671381 0,0.926042 -0.06655,0.254662 -0.121,0.0463 -0.121,-0.463021 z"
         id="path1694" />
      <path
         style="fill:#105b4b;stroke-width:1.26177"
         d="m 93.483387,46.841774 c -0.309208,-0.618464 -0.393132,-0.945886 -0.186499,-0.727604 0.401527,0.42416 1.072233,1.852083 0.869937,1.852083 -0.06668,0 -0.37423,-0.506016 -0.683438,-1.124479 z"
         id="path1693" />
      <path
         style="fill:#105b4b;stroke-width:1.26177"
         d="m 116.38124,50.3299 c -0.0959,-0.155203 -0.11766,-0.338931 -0.0483,-0.408286 0.0694,-0.06936 0.1966,0.05763 0.28277,0.282186 0.17891,0.466224 0.0264,0.548232 -0.23447,0.1261 z"
         id="path1692" />
      <path
         style="fill:#105b4b;stroke-width:1.26177"
         d="m 120.22858,50.612086 c 0.15576,-0.291042 0.34273,-0.529167 0.41549,-0.529167 0.0728,0 0.005,0.238125 -0.15091,0.529167 -0.15576,0.291042 -0.34273,0.529167 -0.41549,0.529167 -0.0728,0 -0.005,-0.238125 0.15091,-0.529167 z"
         id="path1691" />
      <path
         style="fill:#105b4b;stroke-width:1.26177"
         d="m 116.69723,53.522503 c 0.092,-0.363802 0.33074,-1.078177 0.53042,-1.5875 0.31069,-0.792451 0.34134,-0.815751 0.21248,-0.161511 -0.0828,0.420492 -0.32151,1.134867 -0.53043,1.5875 -0.28571,0.619036 -0.33836,0.659059 -0.21247,0.161511 z"
         id="path1690" />
      <path
         style="fill:#105b4b;stroke-width:1.26177"
         d="m 115.39687,57.282535 c 0.25635,-0.609849 0.54423,-1.110028 0.63975,-1.111508 0.30664,-0.0048 -0.1191,1.161194 -0.62053,1.699413 -0.47109,0.505658 -0.47165,0.488442 -0.0192,-0.587905 z"
         id="path1688" />
      <path
         style="fill:#105b4b;stroke-width:1.26177"
         d="m 111.25363,58.395245 c 0.0127,-0.308224 0.0754,-0.370919 0.15986,-0.159852 0.0764,0.190996 0.067,0.419199 -0.0209,0.507118 -0.0879,0.08792 -0.15046,-0.06835 -0.13897,-0.347266 z"
         id="path1687" />
      <path
         style="fill:#105b4b;stroke-width:1.26177"
         d="m 110.45988,59.188995 c 0.0127,-0.308224 0.0754,-0.370919 0.15986,-0.159852 0.0764,0.190996 0.067,0.419199 -0.0209,0.507118 -0.0879,0.08792 -0.15046,-0.06835 -0.13897,-0.347266 z"
         id="path1685" />
      <path
         style="fill:#105b4b;stroke-width:1.26177"
         d="m 114.42899,59.343336 c 0.38571,-0.809898 0.50792,-0.959998 0.50792,-0.623834 0,0.141961 -0.18516,0.489227 -0.41147,0.771701 -0.38798,0.484269 -0.39349,0.475827 -0.0965,-0.147867 z"
         id="path1684" />
      <path
         style="fill:#105b4b;stroke-width:1.26177"
         d="m 90.706041,60.308766 c -0.09143,-0.238273 -0.271467,-0.368193 -0.400072,-0.288711 -0.128606,0.07948 -0.162923,-0.04026 -0.07626,-0.266102 0.08666,-0.22584 0.05476,-0.410617 -0.0709,-0.410617 -0.322429,0 -0.889856,-1.940725 -0.869065,-2.972396 0.01511,-0.750045 0.06676,-0.680792 0.391406,0.524822 0.205697,0.763886 0.622886,1.876752 0.927087,2.473035 0.304201,0.596283 0.488058,1.149186 0.408571,1.228672 -0.07949,0.07949 -0.219331,-0.05043 -0.310765,-0.288703 z"
         id="path1683" />
      <path
         style="fill:#105b4b;stroke-width:1.26177"
         d="m 113.3703,61.570245 c 0.0127,-0.308224 0.0754,-0.370919 0.15985,-0.159852 0.0764,0.190996 0.067,0.419199 -0.0209,0.507118 -0.0879,0.08792 -0.15045,-0.06835 -0.13896,-0.347266 z"
         id="path1682" />
      <path
         style="fill:#105b4b;stroke-width:1.26177"
         d="m 100.98801,61.460002 c 0.13353,-1.3925 1.37602,-4.168357 2.97623,-6.649216 1.66607,-2.582959 2.18366,-2.780448 1.61057,-0.614521 -0.40565,1.53313 -1.27272,3.327243 -2.21506,4.583354 -0.36784,0.49032 -0.86026,1.395861 -1.09426,2.012315 -0.234,0.616453 -0.54452,1.149385 -0.69004,1.184295 -0.14552,0.03491 -0.36291,0.200929 -0.4831,0.368934 -0.12207,0.170641 -0.16812,-0.220043 -0.10434,-0.885161 z m 3.62078,-5.886979 c 0.005,-0.10914 -0.13946,-0.198201 -0.32136,-0.197911 -0.18555,2.95e-4 -0.35429,0.37776 -0.3844,0.859895 l -0.0537,0.85937 0.37502,-0.661458 c 0.20627,-0.363802 0.37925,-0.750755 0.38441,-0.859896 z"
         id="path1681" />
      <path
         style="fill:#105b4b;stroke-width:1.26177"
         d="m 113.10572,62.628579 c 0.0127,-0.308225 0.0754,-0.37092 0.15985,-0.159853 0.0764,0.190996 0.067,0.419199 -0.0209,0.507118 -0.0879,0.08792 -0.15045,-0.06835 -0.13896,-0.347265 z"
         id="path1680" />
      <path
         style="fill:#105b4b;stroke-width:1.26177"
         d="m 92.480402,62.352971 c -0.174608,-0.383222 -0.256811,-0.757425 -0.182674,-0.831563 0.07414,-0.07414 0.260521,0.195886 0.414184,0.600053 0.362947,0.954623 0.180906,1.136665 -0.23151,0.23151 z"
         id="path1679" />
      <path
         style="fill:#105b4b;stroke-width:1.26177"
         d="m 108.10932,64.767294 c 0.005,-0.436563 0.0647,-0.583125 0.13178,-0.325694 0.0671,0.257431 0.0627,0.614619 -0.01,0.79375 -0.0725,0.179132 -0.12736,-0.03149 -0.12197,-0.468056 z"
         id="path1676" />
      <path
         style="fill:#105b4b;stroke-width:1.26177"
         d="m 84.245246,65.428752 c -0.218281,-0.141064 -0.277812,-0.25648 -0.132292,-0.25648 0.145521,0 0.443177,0.115416 0.661459,0.25648 0.218281,0.141064 0.277812,0.25648 0.132291,0.25648 -0.145521,0 -0.443177,-0.115416 -0.661458,-0.25648 z"
         id="path1674" />
      <path
         style="fill:#105b4b;stroke-width:1.26177"
         d="m 101.72863,66.597328 c 0.0127,-0.308224 0.0754,-0.370919 0.15986,-0.159852 0.0764,0.190996 0.067,0.419199 -0.0209,0.507118 -0.0879,0.08792 -0.15046,-0.06835 -0.13897,-0.347266 z"
         id="path1671" />
      <path
         style="fill:#105b4b;stroke-width:1.26177"
         d="m 110.18251,64.50271 c 0,-2.317164 0.0837,-3.310073 0.25648,-3.042708 0.14107,0.218281 0.25648,1.5875 0.25648,3.042708 0,1.455209 -0.11541,2.824427 -0.25648,3.042709 -0.17278,0.267365 -0.25648,-0.725544 -0.25648,-3.042709 z"
         id="path1668" />
      <path
         style="fill:#105b4b;stroke-width:1.26177"
         d="m 108.38905,66.88396 c 0.003,-0.582083 0.0571,-0.789054 0.12041,-0.459936 0.0633,0.329119 0.0609,0.805369 -0.005,1.058334 -0.0662,0.252964 -0.11801,-0.01631 -0.11507,-0.598398 z"
         id="path1667" />
      <path
         style="fill:#105b4b;stroke-width:1.26177"
         d="m 90.168606,69.109986 c -1.373079,-1.090224 -1.432433,-1.173434 -0.498777,-0.699262 0.726936,0.369186 1.985892,1.515944 1.664264,1.515944 -0.07531,0 -0.599774,-0.367507 -1.165487,-0.816682 z"
         id="path1664" />
      <path
         style="fill:#105b4b;stroke-width:1.26177"
         d="m 101.72863,70.301495 c 0.0127,-0.308225 0.0754,-0.370919 0.15986,-0.159853 0.0764,0.190996 0.067,0.4192 -0.0209,0.507118 -0.0879,0.08792 -0.15046,-0.06835 -0.13897,-0.347265 z"
         id="path1661" />
      <path
         style="fill:#105b4b;stroke-width:1.26177"
         d="m 101.07996,69.926668 c 0.0876,-0.509322 0.26113,-1.104635 0.38552,-1.322916 0.40354,-0.708109 0.2595,0.575975 -0.16324,1.455208 l -0.38163,0.79375 z"
         id="path1660" />
      <path
         style="fill:#105b4b;stroke-width:1.26177"
         d="m 124.93133,76.040235 c 0.47646,-0.306524 1.01224,-0.559985 1.19062,-0.563245 0.17839,-0.0033 1.03871,-0.357781 1.91184,-0.787822 0.87312,-0.430041 1.70114,-0.784561 1.84003,-0.787821 0.59847,-0.01405 3.30011,-1.44179 3.03651,-1.604707 -0.43452,-0.268548 -3.61071,0.467219 -5.24317,1.214587 -1.55151,0.710305 -2.08001,0.699275 -0.98152,-0.02048 0.37518,-0.245826 0.60524,-0.571392 0.51124,-0.72348 -0.10488,-0.169709 -0.0415,-0.196537 0.16415,-0.06945 0.19003,0.117444 0.42212,0.06618 0.53622,-0.118449 0.11072,-0.17914 1.25745,-0.44871 2.55011,-0.599472 3.22201,-0.37578 3.33878,-0.376288 3.46456,-0.01506 0.13333,0.382948 -2.66387,1.828126 -6.37579,3.294057 -3.58737,1.416742 -3.5969,1.4196 -2.6048,0.781345 z"
         id="path1654" />
      <path
         style="fill:#105b4b;stroke-width:1.26177"
         d="m 97.310134,74.82146 c -1.883287,-1.855251 -2.153918,-2.239542 -2.191284,-3.111579 -0.0241,-0.56242 -0.383994,-1.573865 -0.82791,-2.326747 -0.431903,-0.73251 -0.785278,-1.393154 -0.785278,-1.468099 0,-0.372023 0.562088,0.302213 1.291032,1.548621 0.966084,1.65189 2.84691,3.821598 3.096457,3.572051 0.423204,-0.423204 -2.18712,-4.961122 -2.853763,-4.961122 -0.270503,0 -1.964189,-2.61106 -2.188207,-3.373437 -0.120787,-0.41106 -0.06368,-0.595313 0.184503,-0.595313 0.313577,0 1.792895,2.497533 1.792895,3.026945 0,0.374664 2.495036,3.113988 2.586464,2.839704 0.200856,-0.60257 -1.062062,-4.046914 -1.965338,-5.360046 -0.526923,-0.766012 -1.371976,-2.175632 -1.877894,-3.132488 -0.505918,-0.956857 -1.663877,-2.811302 -2.573242,-4.120989 -1.715031,-2.470027 -2.486296,-4.047874 -1.632113,-3.338966 0.239272,0.198578 0.440508,0.495301 0.447192,0.659384 0.0067,0.164082 0.675647,1.012707 1.486586,1.885832 0.810938,0.873125 1.382386,1.420275 1.269884,1.21589 -0.142453,-0.258797 -0.103799,-0.309342 0.127327,-0.166498 0.607228,0.375288 2.301041,3.241706 3.194898,5.406686 0.485281,1.175385 0.927481,2.091912 0.982666,2.036728 0.11628,-0.116281 -0.575127,-7.115005 -1.134403,-11.48292 -0.210574,-1.644562 -0.375314,-3.251906 -0.36609,-3.571874 0.05455,-1.892143 1.058282,3.474865 1.44989,7.752613 0.08659,0.945885 0.268267,2.669168 0.403722,3.829517 0.135456,1.160349 0.246284,2.571105 0.246284,3.135013 0,1.266745 0.766439,3.028457 1.093282,2.51298 0.121842,-0.192162 0.248263,-5.290479 0.280934,-11.329593 0.03989,-7.372813 0.109958,-9.67633 0.213284,-7.011458 l 0.153881,3.968749 0.05535,-3.25676 c 0.03553,-2.090551 0.150096,-3.198206 0.319935,-3.093239 0.146884,0.09078 0.266385,-0.108248 0.268634,-0.447406 0.0022,-0.33601 0.131315,-0.789521 0.286858,-1.007803 0.21419,-0.300571 0.2453,-0.180192 0.12824,0.496094 -0.085,0.491133 -0.15456,2.135269 -0.15456,3.653636 0,1.518366 -0.10356,2.696665 -0.230133,2.61844 -0.12657,-0.07822 -0.246782,0.594555 -0.267138,1.495065 -0.02036,0.90051 -0.154924,1.755204 -0.299039,1.899319 -0.312186,0.312186 -0.356417,3.595779 -0.04844,3.595779 0.117476,0 0.210801,2.589609 0.207389,5.754687 -0.0034,3.165078 0.0493,7.224586 0.117136,9.021129 0.06784,1.796544 0.06381,3.284825 -0.009,3.307292 -0.07276,0.02247 -1.099186,-0.911651 -2.280945,-2.075817 z"
         id="path1653" />
      <path
         style="fill:#105b4b;stroke-width:1.26177"
         d="m 131.93169,81.462622 c 0.83416,-0.179246 1.58794,-0.397195 1.67508,-0.484331 0.26235,-0.262349 -0.40201,-1.262085 -0.83869,-1.262085 -0.22356,0 -0.58506,-0.178593 -0.80334,-0.396875 -0.30837,-0.308372 -1.09998,-0.396875 -3.54981,-0.396875 -2.79817,0 -3.44357,0.0926 -5.73579,0.822972 -1.42057,0.452635 -2.70192,0.912467 -2.84744,1.021851 -0.14552,0.109383 -0.58094,0.274319 -0.9676,0.366524 -0.38667,0.09221 -0.92245,0.249978 -1.19063,0.350605 -0.40613,0.15239 -0.43422,0.117152 -0.16809,-0.210906 0.58088,-0.716048 4.1532,-2.316925 5.63361,-2.524616 1.43473,-0.201281 1.44218,-0.206876 0.52917,-0.39759 -0.50932,-0.10639 0.91943,-0.150944 3.175,-0.09901 4.02038,0.09257 7.01289,0.504326 6.75053,0.928845 -0.0728,0.117724 0.19431,0.294339 0.59349,0.392478 0.99727,0.245181 1.96617,0.906349 1.77692,1.212554 -0.086,0.139128 -0.47673,0.254249 -0.86833,0.255824 -0.39159,0.0016 -1.29645,0.180169 -2.01081,0.396875 -0.71435,0.216706 -1.60732,0.384032 -1.98437,0.371837 -0.37706,-0.0122 -0.003,-0.168831 0.8311,-0.348077 z"
         id="path1649" />
      <path
         style="fill:#105b4b;stroke-width:1.26177"
         d="m 129.1748,81.652132 c 0.191,-0.07643 0.4192,-0.06703 0.50712,0.02089 0.0879,0.08792 -0.0683,0.150453 -0.34727,0.138965 -0.30822,-0.0127 -0.37092,-0.07539 -0.15985,-0.159853 z"
         id="path1648" />
      <path
         style="fill:#105b4b;stroke-width:1.26177"
         d="m 126.31399,81.773719 c 0,-0.112986 0.47625,-0.20543 1.05834,-0.20543 0.58208,0 1.05833,0.04703 1.05833,0.104502 0,0.05747 -0.47625,0.149918 -1.05833,0.205429 -0.58209,0.05551 -1.05834,0.0085 -1.05834,-0.104501 z"
         id="path1647" />
      <path
         style="fill:#105b4b;stroke-width:1.26177"
         d="m 123.0067,82.104431 c 0.80418,-0.211694 3.22341,-0.352205 3.02066,-0.175443 -0.0606,0.05286 -0.94368,0.160978 -1.96232,0.240254 -1.12337,0.08743 -1.53978,0.06193 -1.05834,-0.06481 z"
         id="path1646" />
      <path
         style="fill:#105b4b;stroke-width:1.26177"
         d="m 84.708267,82.704481 c 0.327422,-0.06306 0.863203,-0.06306 1.190625,0 0.327422,0.06306 0.05953,0.114662 -0.595313,0.114662 -0.654843,0 -0.922734,-0.0516 -0.595312,-0.114662 z"
         id="path1645" />
      <path
         style="fill:#105b4b;stroke-width:1.26177"
         d="m 77.736264,82.914614 c -1.813797,-0.150273 -2.904889,-0.619351 -2.597505,-1.116709 0.36396,-0.5889 3.032514,-1.637825 4.984565,-1.959277 1.175651,-0.193599 2.73286,-0.471083 3.460464,-0.616632 0.727604,-0.145548 2.626871,-0.336198 4.220594,-0.423666 1.593723,-0.08747 2.928519,-0.189875 2.966213,-0.227569 0.145376,-0.145376 -6.19497,-2.805323 -7.407227,-3.107532 -0.915624,-0.228261 -1.178593,-0.388351 -0.926042,-0.563757 0.246852,-0.171447 0.186488,-0.198663 -0.201126,-0.09068 -0.656602,0.182918 -2.322776,-0.453103 -2.030256,-0.775 0.111564,-0.122768 0.05779,-0.1399 -0.1195,-0.03807 -0.17729,0.101829 -0.836264,-0.04897 -1.464387,-0.335117 -0.628124,-0.286143 -1.466459,-0.601684 -1.862968,-0.701201 -0.396509,-0.09952 -0.77717,-0.271946 -0.845912,-0.383174 -0.166995,-0.270203 1.738184,-0.737266 3.701861,-0.907527 1.612185,-0.139785 6.118199,0.385945 5.824574,0.679571 -0.157266,0.157265 2.16656,0.629586 2.595613,0.527562 0.119957,-0.02853 0.130191,0.09038 0.02274,0.264239 -0.137792,0.222951 -0.0485,0.259746 0.302998,0.124863 0.274098,-0.105181 0.41584,-0.108719 0.314983,-0.0079 -0.22911,0.22911 1.596746,1.230928 1.999027,1.096834 0.626711,-0.208904 -7.370904,-7.866826 -8.215786,-7.866826 -0.459916,0 -1.969131,-1.78932 -1.66681,-1.976164 0.368714,-0.227878 2.135643,0.0537 2.664529,0.424611 0.314114,0.220294 0.282549,0.251039 -0.159752,0.155599 -1.169398,-0.252334 -0.483658,0.553103 1.058333,1.243065 1.205683,0.539482 2.074271,1.218399 3.461632,2.705725 3.426846,3.673765 5.636686,5.777473 6.768047,6.442997 2.06429,1.21432 4.069237,3.309132 4.809729,5.025309 0.751925,1.742669 0.4998,2.106763 -0.617594,0.891876 -0.879488,-0.956223 -2.604126,-1.683221 -4.695759,-1.979433 -0.965251,-0.136696 -1.846666,-0.340203 -1.958701,-0.452238 -0.253694,-0.253694 -4.67817,0.142593 -5.26658,0.471711 -0.23743,0.132803 -1.170871,0.3755 -2.074314,0.539325 -0.903443,0.163825 -2.380115,0.525652 -3.281493,0.80406 -0.901378,0.278407 -2.431155,0.618396 -3.399505,0.755532 -0.968349,0.137135 -1.971553,0.367372 -2.229343,0.511639 -0.592383,0.331514 0.586047,0.521877 5.066347,0.818417 2.850539,0.188669 2.945173,0.209685 0.926041,0.20565 -1.236927,-0.0025 -3.094406,-0.07454 -4.127732,-0.16015 z m 0.257329,-10.287191 c 0.07127,-0.115312 -0.1003,-0.226975 -0.38126,-0.248139 -0.28096,-0.02116 -0.510837,0.07318 -0.510837,0.209659 0,0.301195 0.710782,0.331855 0.892097,0.03848 z"
         id="path1643" />
      <path
         style="fill:#105b4b;stroke-width:1.26177"
         d="m 123.88313,83.768844 c 0.191,-0.07643 0.4192,-0.06703 0.50712,0.02089 0.0879,0.08792 -0.0683,0.150453 -0.34726,0.138964 -0.30823,-0.0127 -0.37092,-0.07539 -0.15986,-0.159852 z"
         id="path1641" />
      <path
         style="fill:#105b4b;stroke-width:1.26177"
         d="m 125.90154,84.06728 c -0.49319,-0.395127 -0.48994,-0.400012 0.0817,-0.122983 0.32743,0.158669 0.59532,0.343831 0.59532,0.411471 0,0.202465 -0.13722,0.143997 -0.67704,-0.288488 z"
         id="path1639" />
      <path
         style="fill:#105b4b;stroke-width:1.26177"
         d="m 108.86406,84.455261 c 0.15321,-0.286278 0.41005,-0.439243 0.57076,-0.339923 0.17443,0.107805 0.21744,0.05964 0.10671,-0.119524 -0.24411,-0.394971 1.66869,-2.965574 3.00694,-4.041019 0.58046,-0.466475 1.11705,-1.042407 1.19241,-1.279847 0.0754,-0.237441 0.52412,-0.660086 0.99725,-0.939212 0.98466,-0.580901 5.22586,-4.750512 5.22586,-5.137642 0,-0.340936 3.41166,-3.384343 4.38951,-3.91571 0.42343,-0.230092 1.90096,-1.007465 3.28341,-1.727497 1.38245,-0.720031 2.57307,-1.374101 2.64583,-1.453488 0.0728,-0.07939 -0.49788,-0.0639 -1.2681,0.03441 -2.04874,0.261508 -5.38121,1.816847 -8.33972,3.892335 -1.428,1.001788 -2.75139,1.821433 -2.94088,1.821433 -0.18948,0 -0.65823,0.246767 -1.04166,0.54837 -0.6347,0.499259 -0.69714,0.506615 -0.69714,0.08213 0,-0.256433 0.61996,-1.039182 1.37768,-1.739444 1.01111,-0.93443 1.52151,-1.233271 1.91823,-1.123131 0.36956,0.1026 0.43197,0.07443 0.1973,-0.08905 -0.3936,-0.2742 -0.14064,-0.55143 1.00471,-1.101108 l 0.66146,-0.317446 -0.66146,0.54104 c -0.65094,0.532438 -0.65224,0.541135 -0.0818,0.546925 0.31883,0.0032 0.65476,-0.115572 0.7465,-0.264016 0.0918,-0.148444 0.84291,-0.618967 1.66926,-1.045607 0.82635,-0.426639 1.32387,-0.791058 1.10558,-0.809818 -0.21828,-0.01876 0.67469,-0.381371 1.98438,-0.8058 2.65942,-0.861835 5.00428,-1.029685 5.25505,-0.376168 0.0838,0.218282 0.0502,0.396875 -0.0746,0.396875 -0.12479,0 -0.21035,0.199169 -0.19014,0.442597 0.0252,0.302948 -0.92781,0.99508 -3.02027,2.193607 -3.07937,1.763817 -5.66566,3.604925 -6.83809,4.867845 l -0.63469,0.683683 0.89928,-0.267026 c 2.63056,-0.781107 3.85379,-0.97863 3.85379,-0.622298 0,0.295517 -0.40879,0.6156 -0.97014,0.759623 -0.64407,0.165243 -1.85209,1.026705 -1.85209,1.320755 0,0.20315 -0.74414,0.867606 -1.65364,1.476569 -1.50133,1.005218 -1.52114,1.198453 -0.0661,0.645097 0.34897,-0.132719 0.43907,-0.112332 0.26459,0.05987 -0.14553,0.143615 -0.68131,0.423621 -1.19063,0.622236 -1.55541,0.606546 -2.71384,1.370228 -2.38592,1.572894 0.1744,0.107782 -0.49797,0.605084 -1.60363,1.186093 -1.04717,0.550272 -1.81603,0.858244 -1.70857,0.684382 0.10745,-0.173861 -0.39713,-0.01587 -1.12128,0.351083 -1.27631,0.646752 -2.00136,1.485492 -1.28414,1.485492 0.19059,0 0.91279,-0.17042 1.60489,-0.378712 0.6921,-0.208292 1.41118,-0.320071 1.59796,-0.248397 0.18678,0.07167 1.31947,-0.05556 2.51708,-0.282746 2.81132,-0.533297 3.15217,-0.503358 1.23674,0.108631 -2.05921,0.657926 -2.20994,0.895462 -0.44063,0.694385 1.95237,-0.22188 3.7928,-0.177543 3.96259,0.09546 0.0761,0.122437 0.43611,0.271672 0.79991,0.331634 0.3638,0.05996 -0.46963,0.09352 -1.85208,0.07456 -3.09049,-0.04237 -3.56677,0.04496 -3.05213,0.5596 0.24574,0.245738 1.05789,0.378924 2.43792,0.3998 1.13818,0.01722 2.4266,0.11819 2.86317,0.224383 0.43656,0.106193 -2.68915,0.203936 -6.94602,0.217207 -7.61853,0.02375 -7.73541,0.01597 -7.46121,-0.496376 z m 7.42279,-5.920455 c 1.34488,-0.975756 4.03701,-2.761249 4.3386,-2.877482 0.14552,-0.05608 0.1846,-0.188328 0.0868,-0.293878 -0.42149,-0.455108 -5.98016,2.888229 -6.02728,3.625193 -0.0253,0.395942 0.72268,0.184018 1.60183,-0.453833 z m 6.5159,-4.799248 c -0.0879,-0.08792 -0.31612,-0.09732 -0.50712,-0.02089 -0.21106,0.08446 -0.14837,0.147156 0.15986,0.159852 0.27891,0.01149 0.43518,-0.05104 0.34726,-0.138964 z"
         id="path1633" />
      <path
         style="fill:#105b4b;stroke-width:1.26177"
         d="m 106.87482,83.089681 c 0.34551,-1.055026 0.88053,-2.692136 1.18895,-3.638021 0.30841,-0.945885 0.87238,-2.672292 1.25326,-3.836458 0.38088,-1.164167 0.84193,-3.24776 1.02455,-4.630208 l 0.33205,-2.513542 -0.13718,2.447396 c -0.0755,1.346068 -0.0784,2.447396 -0.007,2.447396 0.35778,0 1.26569,-1.958989 1.60488,-3.462855 0.3662,-1.6236 1.85345,-5.629082 2.67639,-7.208066 0.21471,-0.411975 0.39038,-0.984548 0.39038,-1.272385 0,-0.332197 0.11306,-0.453467 0.30955,-0.33203 0.20692,0.127882 0.25461,0.04815 0.14385,-0.240495 -0.0911,-0.237493 -0.0499,-0.503377 0.0916,-0.590853 0.14154,-0.08748 0.19973,-0.252272 0.12931,-0.366215 -0.0704,-0.113942 0.10383,-0.661958 0.38722,-1.217813 0.3815,-0.7483 0.44022,-1.10105 0.22621,-1.358918 -0.21571,-0.259917 -0.18503,-0.388187 0.12093,-0.505594 0.2434,-0.0934 0.34474,-0.327301 0.24942,-0.575701 -0.1013,-0.263985 -0.0535,-0.352226 0.12951,-0.239114 0.19031,0.117619 0.35378,-0.330717 0.47535,-1.303717 0.12719,-1.018006 0.38658,-1.70353 0.8273,-2.186385 l 0.64201,-0.7034 -0.44155,0.905954 c -0.24285,0.498275 -0.47741,1.291782 -0.52124,1.763349 -0.0948,1.0199 -2.44286,8.333078 -2.79159,8.694551 -0.13338,0.138244 -0.2425,0.480245 -0.2425,0.760001 0,0.422131 0.0675,0.452623 0.39688,0.179269 0.21828,-0.181157 0.39687,-0.465215 0.39687,-0.631241 0,-0.166025 0.40851,-0.895587 0.90781,-1.621249 0.96692,-1.405307 2.44506,-3.1738 2.09791,-2.510009 -0.22427,0.428822 1.71439,-1.031108 2.28964,-1.72424 0.19231,-0.231724 0.59758,-0.550038 0.90059,-0.707364 0.48728,-0.253003 0.47451,-0.198111 -0.11053,0.475173 -0.3638,0.41867 -0.78052,0.849725 -0.92604,0.957898 -0.15854,0.117846 -0.11363,0.198304 0.11202,0.200731 0.20714,0.0022 -0.51877,0.926786 -1.61314,2.054572 -1.82098,1.87659 -2.05226,2.241285 -2.72667,4.299479 -0.40531,1.236927 -1.31419,3.482009 -2.01974,4.98907 -0.71193,1.520674 -1.08921,2.580407 -0.84777,2.38125 0.388,-0.320047 0.40409,-0.301627 0.14878,0.170305 -0.15745,0.291042 -0.50788,0.767292 -0.77873,1.058333 -3.14034,3.374414 -5.40881,7.117204 -5.8933,9.723437 -0.20941,1.126497 -0.45991,1.785938 -0.67843,1.785938 -0.25961,0 -0.189,-0.480734 0.28176,-1.918229 z"
         id="path1632" />
      <path
         style="fill:#105b4b;stroke-width:1.26177"
         d="m 104.08245,84.329227 c -0.14192,-0.373275 -0.25804,-0.829682 -0.25804,-1.014236 0,-0.184554 -0.0874,-0.422993 -0.19431,-0.529864 -0.27232,-0.272317 -0.82663,-3.005268 -0.84703,-4.176139 -0.009,-0.536229 -0.12141,-1.250604 -0.24904,-1.587499 -0.12762,-0.336896 -0.29901,-1.862693 -0.38085,-3.390662 -0.13324,-2.487386 -0.1214,-2.598144 0.11313,-1.058333 0.14406,0.945885 0.35761,1.815527 0.47454,1.932537 0.11693,0.11701 0.35867,-0.692765 0.5372,-1.799499 0.45494,-2.820105 1.40057,-6.127601 2.71493,-9.495825 1.10539,-2.832736 1.12944,-2.867831 1.45017,-2.116666 0.17938,0.420105 0.31936,1.001953 0.31107,1.292995 -0.009,0.329902 -0.12211,0.194351 -0.29931,-0.35997 l -0.28424,-0.889137 -0.49877,1.550595 c -1.03615,3.221179 -1.53702,7.368602 -1.68,13.911123 -0.0864,3.955226 -0.0392,6.458161 0.12786,6.770245 0.33525,0.626426 0.084,1.639018 -0.40671,1.639018 -0.20491,0 -0.48868,-0.305408 -0.6306,-0.678683 z"
         id="path1631" />
      <path
         style="fill:#105b4b;stroke-width:1.26177"
         d="m 97.151191,84.785165 c 0.594602,-0.377327 -0.920241,-0.979647 -3.380946,-1.344305 -0.800364,-0.118608 -1.276614,-0.233085 -1.058333,-0.254394 0.352778,-0.03444 0.352778,-0.06724 0,-0.295223 -0.218281,-0.141064 -1.706562,-0.281961 -3.307291,-0.313104 -2.55128,-0.04964 -2.665551,-0.06968 -0.926042,-0.162455 1.091406,-0.05821 3.472656,0.04209 5.291666,0.222885 3.988035,0.396377 3.630954,0.334457 4.7625,0.825834 0.509323,0.221174 1.342761,0.484103 1.852085,0.584287 0.50932,0.100183 1.15716,0.356992 1.43963,0.570685 0.46209,0.349574 0.23657,0.388128 -2.248958,0.384483 -1.519401,-0.0022 -2.610342,-0.10064 -2.424311,-0.218693 z"
         id="path1630" />
      <path
         style="fill:#105b4b;stroke-width:1.26177"
         d="m 87.155663,84.857645 c 0,-0.26063 1.674412,-0.926455 2.068282,-0.822446 0.322327,0.08512 0.28521,0.126053 -0.134439,0.148272 -0.318833,0.01688 -0.6444,0.135383 -0.72348,0.263338 -0.145454,0.235349 -1.210363,0.596814 -1.210363,0.410836 z"
         id="path1629" />
      <path
         style="fill:#105b4b;stroke-width:1.26177"
         d="m 85.47666,85.338679 c -0.110442,-0.178566 21.57951,-0.17497 36.47171,0.006 3.20146,0.03891 -3.66738,0.09812 -15.26407,0.131572 -11.5967,0.03345 -21.140137,-0.02848 -21.20764,-0.137618 z"
         id="path1623" />
      <path
         style="fill:#042d1c;stroke-width:1.26177"
         d="m 99.87655,46.224413 c 0.0127,-0.308225 0.07539,-0.370919 0.15985,-0.159853 0.0764,0.190996 0.067,0.4192 -0.0209,0.507118 -0.08792,0.08792 -0.150448,-0.06835 -0.13896,-0.347265 z"
         id="path2280" />
      <path
         style="fill:#042d1c;stroke-width:1.26177"
         d="m 117.32626,56.300627 c 0,-0.14552 0.11542,-0.443177 0.25648,-0.661458 0.14107,-0.218281 0.25648,-0.277812 0.25648,-0.132291 0,0.14552 -0.11541,0.443177 -0.25648,0.661458 -0.14106,0.218281 -0.25648,0.277812 -0.25648,0.132291 z"
         id="path2259" />
      <path
         style="fill:#042d1c;stroke-width:1.26177"
         d="m 103.57096,55.433975 c 0.34269,-0.62218 0.95568,-1.515149 1.36219,-1.984375 0.40652,-0.469227 0.19217,-0.0197 -0.47632,0.998944 -1.44948,2.208706 -1.73387,2.525054 -0.88587,0.985431 z"
         id="path2258" />
      <path
         style="fill:#042d1c;stroke-width:1.26177"
         d="m 116.5459,58.646111 c -0.0118,-0.165194 0.15244,-0.700975 0.36503,-1.190625 0.21258,-0.48965 0.38581,-0.711678 0.38494,-0.493397 -0.002,0.488927 -0.7201,2.101514 -0.74997,1.684022 z"
         id="path2248" />
      <path
         style="fill:#042d1c;stroke-width:1.26177"
         d="m 98.911746,52.464172 c 0,-3.56526 0.03745,-5.023775 0.08323,-3.241145 0.04577,1.78263 0.04577,4.699661 0,6.482291 -0.04577,1.78263 -0.08323,0.324115 -0.08323,-3.241146 z"
         id="path2247" />
      <path
         style="fill:#042d1c;stroke-width:1.26177"
         d="m 93.241079,58.549586 c -0.31086,-0.436563 -0.505669,-0.79375 -0.432908,-0.79375 0.07276,0 0.386631,0.357187 0.697491,0.79375 0.31086,0.436562 0.505669,0.79375 0.432908,0.79375 -0.07276,0 -0.386631,-0.357188 -0.697491,-0.79375 z"
         id="path2244" />
      <path
         style="fill:#042d1c;stroke-width:1.26177"
         d="m 101.19733,60.269375 c 0,-0.145521 0.17016,-0.562239 0.37812,-0.926041 0.20797,-0.363802 0.37813,-0.542396 0.37813,-0.396875 0,0.145521 -0.17016,0.562239 -0.37813,0.926041 -0.20796,0.363802 -0.37812,0.542396 -0.37812,0.396875 z"
         id="path2240" />
      <path
         style="fill:#042d1c;stroke-width:1.26177"
         d="m 117.71504,60.401667 c 0.26338,-0.291042 0.53842,-0.529167 0.61118,-0.529167 0.0728,0 -0.0832,0.238125 -0.3466,0.529167 -0.26339,0.291042 -0.53842,0.529167 -0.61118,0.529167 -0.0728,0 0.0832,-0.238125 0.3466,-0.529167 z"
         id="path2236" />
      <path
         style="fill:#042d1c;stroke-width:1.26177"
         d="m 115.77228,61.063127 c -7.5e-4,-0.145521 0.15912,-0.681302 0.35526,-1.190625 0.19614,-0.509323 0.3603,-0.747448 0.36481,-0.529166 0.005,0.218281 -0.15536,0.754062 -0.35526,1.190625 -0.1999,0.436562 -0.36406,0.674687 -0.36481,0.529166 z"
         id="path2233" />
      <path
         style="fill:#042d1c;stroke-width:1.26177"
         d="m 94.483404,60.530638 c -0.242008,-0.507495 -0.385467,-0.922719 -0.318797,-0.922719 0.181044,0 0.984229,1.62002 0.863193,1.741057 -0.05741,0.05741 -0.302388,-0.310842 -0.544396,-0.818338 z"
         id="path2232" />
      <path
         style="fill:#042d1c;stroke-width:1.26177"
         d="m 115.48697,61.834829 c 0.0127,-0.308225 0.0754,-0.37092 0.15985,-0.159853 0.0764,0.190996 0.067,0.419199 -0.0209,0.507118 -0.0879,0.08792 -0.15045,-0.06835 -0.13896,-0.347265 z"
         id="path2227" />
      <path
         style="fill:#042d1c;stroke-width:1.26177"
         d="m 116.51652,62.003904 c 0.15143,-0.282937 0.40609,-0.595252 0.56592,-0.694034 0.15984,-0.09878 0.086,0.132712 -0.16414,0.514431 -0.5296,0.808265 -0.80383,0.930856 -0.40178,0.179603 z"
         id="path2221" />
      <path
         style="fill:#042d1c;stroke-width:1.26177"
         d="m 105.95977,63.515878 c -0.0303,-0.313228 0.83162,-2.352092 0.946,-2.23771 0.0576,0.05758 -0.1275,0.628072 -0.41131,1.267747 -0.2838,0.639676 -0.52441,1.076159 -0.53469,0.969963 z"
         id="path2214" />
      <path
         style="fill:#042d1c;stroke-width:1.26177"
         d="m 95.929891,63.697629 c -0.443306,-0.972951 -0.358731,-1.180516 0.120612,-0.296006 0.223843,0.413047 0.357479,0.800503 0.296969,0.861013 -0.06051,0.06051 -0.248422,-0.193743 -0.417581,-0.565007 z"
         id="path2212" />
      <path
         style="fill:#042d1c;stroke-width:1.26177"
         d="m 110.1953,64.216078 c 0.0127,-0.308224 0.0754,-0.370919 0.15985,-0.159852 0.0764,0.190996 0.067,0.419199 -0.0209,0.507118 -0.0879,0.08792 -0.15045,-0.06835 -0.13896,-0.347266 z"
         id="path2209" />
      <path
         style="fill:#042d1c;stroke-width:1.26177"
         d="m 80.805663,64.610232 c 0,-0.131897 0.238125,-0.239813 0.529166,-0.239813 0.291042,0 0.529167,0.04565 0.529167,0.101433 0,0.05579 -0.238125,0.163704 -0.529167,0.239813 -0.291041,0.07611 -0.529166,0.03046 -0.529166,-0.101433 z"
         id="path2208" />
      <path
         style="fill:#042d1c;stroke-width:1.26177"
         d="m 128.76503,64.974308 c 0.40218,-0.06082 0.99749,-0.05919 1.32291,0.0036 0.32543,0.0628 -0.004,0.11256 -0.73124,0.110574 -0.7276,-0.002 -0.99386,-0.05337 -0.59167,-0.114185 z"
         id="path2207" />
      <path
         style="fill:#042d1c;stroke-width:1.26177"
         d="m 125.78483,65.727335 c 0.21828,-0.130819 0.81359,-0.311636 1.32291,-0.401814 0.62469,-0.110605 0.75384,-0.09024 0.39688,0.06258 -0.81818,0.350269 -2.18958,0.620782 -1.71979,0.339234 z"
         id="path2199" />
      <path
         style="fill:#042d1c;stroke-width:1.26177"
         d="m 81.441982,65.627194 -0.504027,-0.595312 0.595312,0.504028 c 0.327422,0.277215 0.595312,0.545106 0.595312,0.595312 0,0.211734 -0.212935,0.05542 -0.686597,-0.504028 z"
         id="path2197" />
      <path
         style="fill:#042d1c;stroke-width:1.26177"
         d="m 108.3641,67.016252 c 0,-0.363802 0.0601,-0.51263 0.13346,-0.330729 0.0734,0.181901 0.0734,0.479557 0,0.661458 -0.0734,0.181901 -0.13346,0.03307 -0.13346,-0.330729 z"
         id="path2188" />
      <path
         style="fill:#042d1c;stroke-width:1.26177"
         d="m 129.03922,67.412444 c 0.84404,-0.508949 1.61794,-0.922673 1.71979,-0.919386 0.28007,0.009 -2.68514,1.833354 -2.98981,1.839451 -0.14552,0.0029 0.42599,-0.411116 1.27002,-0.920065 z"
         id="path2183" />
      <path
         style="fill:#042d1c;stroke-width:1.26177"
         d="m 104.10988,68.713995 c 0.0127,-0.308225 0.0754,-0.370919 0.15986,-0.159853 0.0764,0.190997 0.067,0.4192 -0.0209,0.507118 -0.0879,0.08792 -0.15046,-0.06835 -0.13897,-0.347265 z"
         id="path2179" />
      <path
         style="fill:#042d1c;stroke-width:1.26177"
         d="m 124.92783,69.87059 c 0.31186,-0.375777 2.4445,-1.64568 2.4445,-1.455608 0,0.06032 -0.617,0.493219 -1.37111,0.961997 -0.7541,0.468779 -1.23713,0.690904 -1.07339,0.493611 z"
         id="path2174" />
      <path
         style="fill:#042d1c;stroke-width:1.26177"
         d="m 118.50879,69.264057 c 0.58208,-0.534115 1.29645,-1.094353 1.5875,-1.244973 0.67145,-0.347492 0.33967,-0.04273 -1.32292,1.215177 l -1.32292,1.000914 z"
         id="path2173" />
      <path
         style="fill:#042d1c;stroke-width:1.26177"
         d="m 103.8453,69.772328 c 0.0127,-0.308224 0.0754,-0.370919 0.15985,-0.159852 0.0764,0.190996 0.067,0.419199 -0.0209,0.507118 -0.0879,0.08792 -0.15045,-0.06835 -0.13896,-0.347266 z"
         id="path2172" />
      <path
         style="fill:#042d1c;stroke-width:1.26177"
         d="m 116.52441,70.885107 c 0,-0.05494 0.20836,-0.263302 0.46302,-0.463021 0.41965,-0.329107 0.429,-0.319749 0.0999,0.0999 -0.34565,0.440729 -0.56292,0.580887 -0.56292,0.363126 z"
         id="path2170" />
      <path
         style="fill:#042d1c;stroke-width:1.26177"
         d="m 103.6016,70.984998 c 0,-0.363802 0.0601,-0.51263 0.13346,-0.330729 0.0734,0.181901 0.0734,0.479557 0,0.661458 -0.0734,0.181901 -0.13346,0.03307 -0.13346,-0.330729 z"
         id="path2166" />
      <path
         style="fill:#042d1c;stroke-width:1.26177"
         d="m 80.347678,71.595398 c 0.257431,-0.06708 0.614618,-0.06267 0.79375,0.0098 0.179131,0.07247 -0.03149,0.127362 -0.468057,0.121969 -0.436562,-0.0054 -0.583124,-0.06469 -0.325693,-0.131773 z"
         id="path2163" />
      <path
         style="fill:#042d1c;stroke-width:1.26177"
         d="m 77.696809,71.860951 c 0.254661,-0.06655 0.67138,-0.06655 0.926041,0 0.254662,0.06655 0.0463,0.121 -0.46302,0.121 -0.509323,0 -0.717683,-0.05445 -0.463021,-0.121 z"
         id="path2162" />
      <path
         style="fill:#042d1c;stroke-width:1.26177"
         d="m 102.0141,72.043335 c 0,-0.363802 0.0601,-0.51263 0.13346,-0.330729 0.0734,0.181901 0.0734,0.479557 0,0.661458 -0.0734,0.181901 -0.13346,0.03307 -0.13346,-0.330729 z"
         id="path2156" />
      <path
         style="fill:#042d1c;stroke-width:1.26177"
         d="m 121.61883,72.393238 c 0.48295,-0.547745 2.84308,-2.314748 2.84308,-2.128587 0,0.05845 -0.74414,0.679756 -1.65365,1.380675 -0.9095,0.700919 -1.44475,1.03748 -1.18943,0.747912 z"
         id="path2154" />
      <path
         style="fill:#042d1c;stroke-width:1.26177"
         d="m 103.33702,72.307918 c 0,-0.363802 0.0601,-0.51263 0.13345,-0.330729 0.0734,0.181901 0.0734,0.479557 0,0.661458 -0.0734,0.181901 -0.13345,0.03307 -0.13345,-0.330729 z"
         id="path2153" />
      <path
         style="fill:#042d1c;stroke-width:1.26177"
         d="m 123.88313,72.920934 c 0.191,-0.07643 0.4192,-0.06703 0.50712,0.02089 0.0879,0.08792 -0.0683,0.150453 -0.34726,0.138964 -0.30823,-0.0127 -0.37092,-0.07539 -0.15986,-0.159852 z"
         id="path2149" />
      <path
         style="fill:#042d1c;stroke-width:1.26177"
         d="m 77.36608,73.175087 c -0.218282,-0.08217 -0.681278,-0.254692 -1.028882,-0.38339 -0.347604,-0.128698 -0.573319,-0.292685 -0.501588,-0.364416 0.07173,-0.07173 0.65379,0.101784 1.293465,0.385588 1.046168,0.464152 1.222098,0.733029 0.237005,0.362218 z"
         id="path2147" />
      <path
         style="fill:#042d1c;stroke-width:1.26177"
         d="m 130.28274,73.895418 c 0.21828,-0.141064 0.51594,-0.25648 0.66146,-0.25648 0.14552,0 0.086,0.115416 -0.13229,0.25648 -0.21828,0.141064 -0.51594,0.256481 -0.66146,0.256481 -0.14552,0 -0.086,-0.115417 0.13229,-0.256481 z"
         id="path2140" />
      <path
         style="fill:#042d1c;stroke-width:1.26177"
         d="m 85.832746,76.276668 c -0.218281,-0.141064 -0.277813,-0.25648 -0.132292,-0.25648 0.145521,0 0.443177,0.115416 0.661459,0.25648 0.218281,0.141064 0.277812,0.25648 0.132291,0.25648 -0.145521,0 -0.443177,-0.115416 -0.661458,-0.25648 z"
         id="path2128" />
      <path
         style="fill:#042d1c;stroke-width:1.26177"
         d="m 87.684829,77.070418 c -0.218281,-0.141064 -0.277812,-0.25648 -0.132292,-0.25648 0.145521,0 0.443178,0.115416 0.661459,0.25648 0.218281,0.141064 0.277812,0.25648 0.132291,0.25648 -0.14552,0 -0.443177,-0.115416 -0.661458,-0.25648 z"
         id="path2126" />
      <path
         style="fill:#042d1c;stroke-width:1.26177"
         d="m 82.393163,79.444232 c 1.236927,-0.2729 3.022864,-0.484963 3.96875,-0.471252 1.647869,0.02389 1.620207,0.03374 -0.661459,0.235684 -1.309687,0.115915 -2.797182,0.337073 -3.305544,0.491463 -0.508363,0.154389 -1.222738,0.271612 -1.5875,0.260496 -0.364763,-0.01112 0.348826,-0.243492 1.585753,-0.516391 z"
         id="path2113" />
      <path
         style="fill:#042d1c;stroke-width:1.26177"
         d="m 79.024761,80.062064 c 0.257431,-0.06708 0.614618,-0.06267 0.79375,0.0098 0.179131,0.07248 -0.03149,0.127362 -0.468056,0.12197 -0.436563,-0.0054 -0.583125,-0.06469 -0.325694,-0.131774 z"
         id="path2112" />
      <path
         style="fill:#042d1c;stroke-width:1.26177"
         d="m 134.46647,80.858427 c 0.19099,-0.07643 0.4192,-0.06703 0.50712,0.02089 0.0879,0.08792 -0.0684,0.150453 -0.34727,0.138965 -0.30822,-0.0127 -0.37092,-0.07539 -0.15985,-0.159853 z"
         id="path2110" />
      <path
         style="fill:#042d1c;stroke-width:1.26177"
         d="m 76.836913,80.774585 c 0.509323,-0.278843 1.104635,-0.509363 1.322917,-0.512266 0.218281,-0.0029 -0.122143,0.230231 -0.756498,0.518076 -1.459169,0.662115 -1.780406,0.658819 -0.566419,-0.0058 z"
         id="path2108" />
      <path
         style="fill:#042d1c;stroke-width:1.26177"
         d="m 131.01035,81.657701 c 0.1819,-0.0734 0.47955,-0.0734 0.66146,0 0.1819,0.0734 0.0331,0.133452 -0.33073,0.133452 -0.36381,0 -0.51263,-0.06005 -0.33073,-0.133452 z"
         id="path2103" />
      <path
         style="fill:#042d1c;stroke-width:1.26177"
         d="m 124.66035,81.922273 c 0.1819,-0.0734 0.47956,-0.0734 0.66146,0 0.1819,0.0734 0.0331,0.133452 -0.33073,0.133452 -0.3638,0 -0.51263,-0.06005 -0.33073,-0.133452 z"
         id="path2101" />
      <path
         style="fill:#042d1c;stroke-width:1.26177"
         d="m 87.621768,82.439538 c 0.329119,-0.06329 0.805369,-0.06088 1.058333,0.0053 0.252965,0.06622 -0.01631,0.118003 -0.598397,0.115066 -0.582083,-0.0029 -0.789054,-0.05712 -0.459936,-0.120406 z"
         id="path2099" />
      <path
         style="fill:#042d1c;stroke-width:1.26177"
         d="m 75.278547,82.264897 c -0.230404,-0.27762 -0.191782,-0.446865 0.166041,-0.727604 0.418409,-0.328272 0.43082,-0.320486 0.120883,0.07583 -0.291463,0.372693 -0.270805,0.485059 0.132291,0.719558 0.262731,0.152843 0.343443,0.281516 0.17936,0.285941 -0.164082,0.0044 -0.433441,-0.154751 -0.598575,-0.353725 z"
         id="path2098" />
      <path
         style="fill:#042d1c;stroke-width:1.26177"
         d="m 76.903059,82.701742 c 0.400182,-0.06062 1.055026,-0.06062 1.455208,0 0.400182,0.06062 0.07276,0.110223 -0.727604,0.110223 -0.800365,0 -1.127786,-0.0496 -0.727604,-0.110223 z"
         id="path2097" />
      <path
         style="fill:#042d1c;stroke-width:1.26177"
         d="m 83.137303,82.975125 c 0.190996,-0.07643 0.4192,-0.06703 0.507118,0.02089 0.08792,0.08792 -0.06835,0.150453 -0.347265,0.138964 -0.308225,-0.01269 -0.370919,-0.07539 -0.159853,-0.159852 z"
         id="path2095" />
      <path
         style="fill:#042d1c;stroke-width:1.26177"
         d="m 80.342642,82.966325 c 0.400182,-0.06062 1.055026,-0.06062 1.455208,0 0.400183,0.06062 0.07276,0.110223 -0.727604,0.110223 -0.800364,0 -1.127786,-0.0496 -0.727604,-0.110223 z"
         id="path2094" />
      <path
         style="fill:#042d1c;stroke-width:1.26177"
         d="m 85.568102,85.338649 c -5.5e-5,-0.17981 15.229988,-0.177741 34.528188,0.0047 4.07458,0.03852 -2.02737,0.09787 -13.5599,0.13189 -11.532525,0.03402 -20.968255,-0.02744 -20.968288,-0.13658 z"
         id="path2089" />
    </g>
  </g>
</svg>
