<?xml version="1.0" encoding="UTF-8" standalone="no"?>
<!-- Created with Inkscape (http://www.inkscape.org/) -->

<svg
   width="185"
   height="185"
   viewBox="0 0 48.947914 48.947918"
   version="1.1"
   id="svg1"
   sodipodi:docname="dryopteris-filix-mas-3.svg"
   inkscape:version="1.4 (e7c3feb100, 2024-10-09)"
   xmlns:inkscape="http://www.inkscape.org/namespaces/inkscape"
   xmlns:sodipodi="http://sodipodi.sourceforge.net/DTD/sodipodi-0.dtd"
   xmlns="http://www.w3.org/2000/svg"
   xmlns:svg="http://www.w3.org/2000/svg">
  <sodipodi:namedview
     id="namedview1"
     pagecolor="#ffffff"
     bordercolor="#666666"
     borderopacity="1.0"
     inkscape:showpageshadow="2"
     inkscape:pageopacity="0.0"
     inkscape:pagecheckerboard="0"
     inkscape:deskcolor="#d1d1d1"
     inkscape:zoom="2.3694273"
     inkscape:cx="64.361545"
     inkscape:cy="53.59945"
     inkscape:window-width="1920"
     inkscape:window-height="1023"
     inkscape:window-x="0"
     inkscape:window-y="0"
     inkscape:window-maximized="1"
     inkscape:current-layer="svg1" />
  <defs
     id="defs1" />
  <g
     id="g18520"
     transform="matrix(0.78040227,0,0,0.78040227,-66.225965,9.1113737)">
    <path
       style="fill:#9a7733"
       d="m 95.539585,50.808376 c -6.785227,-0.135079 -7.011458,-0.156633 -7.011458,-0.668015 0,-0.420975 0.376619,-0.649889 1.852083,-1.125716 3.343604,-1.07829 8.539387,-2.002892 11.50937,-2.04812 1.52797,-0.02327 4.31006,-0.06298 6.18241,-0.08825 3.38107,-0.04563 3.40342,-0.05 3.27809,-0.641254 -2.09043,-9.86153 -4.28679,-18.906648 -4.76995,-19.643711 -1.03266,-1.575341 -3.17484,-1.377644 -3.40356,0.314107 -0.17669,1.306922 0.0558,1.969383 0.84965,2.420999 0.93812,0.533691 0.95621,0.703435 0.13248,1.243164 -0.58695,0.384584 -0.71204,0.383611 -1.47605,-0.01147 -1.54441,-0.798649 -2.10211,-3.649135 -1.05119,-5.372843 0.59612,-0.977752 2.33177,-1.895047 3.56542,-1.884326 1.04134,0.009 2.47801,0.74098 3.07966,1.56898 0.63098,0.868362 1.98012,6.179695 4.35167,17.13177 0.8292,3.829348 1.0641,4.564063 1.45922,4.564063 0.25901,0 0.54338,-0.117239 0.63194,-0.260531 0.16966,-0.274521 -0.35154,-5.65066 -1.19315,-12.307177 -0.27598,-2.182813 -0.80663,-6.885781 -1.17922,-10.451041 -0.37258,-3.56526 -0.86322,-7.493999 -1.0903,-8.73053 -0.76425,-4.161692 -2.04696,-6.0861361 -4.05662,-6.0861361 -2.81783,0 -4.2129,3.2383181 -2.24349,5.2077261 0.68671,0.686707 0.63893,0.682631 3.54758,0.302645 1.04774,-0.136878 1.0147,0.841343 -0.0551,1.632309 -0.65577,0.484828 -1.20514,0.643629 -2.22663,0.643629 -4.14799,0 -5.83493,-5.849381 -2.49696,-8.6580974 1.65932,-1.3962271 4.37805,-1.5981305 6.21685,-0.4616883 0.98791,0.6105617 2.13292,2.2125511 2.67056,3.7363957 0.39015,1.105787 1.21331,6.506618 1.71055,11.223122 0.35407,3.358404 1.72292,14.933912 2.11195,17.859374 0.14513,1.091406 0.34211,2.96664 0.43772,4.167187 0.16265,2.042187 0.21255,2.182813 0.77469,2.182813 0.55989,0 0.61127,-0.139759 0.75381,-2.050521 0.77026,-10.325022 1.92092,-18.506435 3.19225,-22.697621 0.2191,-0.722324 0.39966,-1.870221 0.40123,-2.550883 0.002,-1.023691 -0.11761,-1.332336 -0.69427,-1.785937 -0.9015,-0.709121 -1.10802,-0.692335 -2.00036,0.162589 -0.78963,0.756513 -0.91731,1.377671 -0.45914,2.233764 0.28963,0.541191 -0.0537,1.28861 -0.59195,1.28861 -0.62673,0 -1.54308,-1.334657 -1.54308,-2.247472 0,-1.628308 0.84591,-2.88765 2.38416,-3.549386 1.65773,-0.713135 2.72699,-0.468486 3.92728,0.898568 1.3444,1.531187 1.36264,2.457051 0.15414,7.824315 -1.08598,4.823099 -2.22393,14.180366 -2.27681,18.72188 -0.0129,1.104472 -0.11951,2.343288 -0.23699,2.752925 -0.1294,0.451188 -0.116,0.684476 0.034,0.591784 0.13616,-0.08416 0.24757,-0.02191 0.24757,0.138316 0,0.193412 0.68096,0.265355 2.02605,0.214052 1.55821,-0.05943 2.03937,-0.168918 2.08376,-0.47415 0.0919,-0.632232 1.90373,-6.857861 2.49531,-8.574233 0.29625,-0.859526 0.53863,-1.70008 0.53863,-1.867897 0,-0.167817 -0.54776,-0.946839 -1.21724,-1.731161 -0.66949,-0.784321 -1.33093,-1.725057 -1.46988,-2.090525 -0.31142,-0.819087 -0.0761,-1.875767 0.4177,-1.875767 0.33079,0 1.50805,0.90598 2.86507,2.204861 0.27873,0.266789 0.53634,0.445382 0.57247,0.396875 0.47563,-0.638621 0.94855,-1.440791 0.94855,-1.608948 0,-0.116812 -0.70399,-0.969126 -1.56443,-1.894032 -0.86044,-0.924905 -1.75341,-2.047083 -1.98438,-2.493728 -0.39837,-0.77037 -0.58571,-2.425861 -0.27451,-2.425861 0.32067,0 1.65118,0.808958 3.01121,1.830827 0.79027,0.593774 1.52495,1.07959 1.63262,1.07959 0.29527,0 0.5928,-1.628922 0.33225,-1.818989 -0.1247,-0.09096 -0.80753,-1.032393 -1.51741,-2.092068 -1.38378,-2.065639 -1.79258,-3.801545 -0.93436,-3.967573 0.49968,-0.09667 2.28038,1.312394 3.17647,2.513534 0.34985,0.468937 0.71124,0.85589 0.80311,0.859896 0.0919,0.004 0.30654,-0.546775 0.47706,-1.223957 0.30591,-1.214882 0.29792,-1.243883 -0.6009,-2.182812 -1.14145,-1.192383 -1.76298,-2.409362 -1.76298,-3.451975 0,-1.151984 0.57189,-1.035617 2.14584,0.43663 1.07005,1.000903 1.37677,1.168672 1.57212,0.859896 0.39214,-0.619863 0.30619,-0.855442 -0.80081,-2.195074 -1.25479,-1.51846 -1.75053,-2.964845 -1.20363,-3.511738 0.55762,-0.557629 0.82393,-0.457701 1.97631,0.741587 0.58501,0.608817 1.13322,1.037374 1.21824,0.95235 0.085,-0.08502 -0.1364,-0.731975 -0.49206,-1.437669 -0.775,-1.5377589 -1.05681,-2.7443985 -0.75156,-3.2180427 0.17361,-0.2693989 0.41379,-0.187697 1.06904,0.3636518 0.46481,0.3911136 0.89716,0.6590609 0.96079,0.5954384 0.0636,-0.063623 0.16205,-0.7414892 0.21873,-1.5063705 0.1226,-1.6544931 0.5262,-2.2243523 1.05917,-1.4954777 0.3323,0.4544484 0.39375,0.4022762 0.81003,-0.6877256 0.5186,-1.3579393 1.38736,-2.0968692 1.65261,-1.4056398 0.1664,0.4336506 -0.0577,3.5158272 -0.32774,4.5067901 -0.13403,0.4919177 -0.0585,0.5388621 0.69042,0.4289481 0.76059,-0.1116306 0.81507,-0.075123 0.57034,0.3821564 -0.14881,0.2780677 -0.81605,0.7780035 -1.48275,1.1109675 -0.6667,0.332964 -1.21217,0.665136 -1.21217,0.738158 0,0.07302 0.65484,0.05095 1.4552,-0.04905 1.4245,-0.177979 1.45521,-0.167847 1.45521,0.479981 0,0.666904 -0.48186,1.007973 -2.51751,1.78194 -0.71312,0.27113 -0.74278,0.326578 -0.30565,0.571219 0.26628,0.149018 1.01042,0.229084 1.65365,0.177926 1.06174,-0.08444 1.16951,-0.03854 1.16951,0.498104 0,0.791253 -0.79648,1.242532 -3.175,1.79892 -2.52575,0.590828 -2.90664,0.86375 -2.10801,1.510443 0.43296,0.350586 0.83148,0.434596 1.48237,0.312488 1.31459,-0.246619 2.74412,0.08357 2.73389,0.631478 -0.0168,0.902393 -0.7247,1.374637 -2.79151,1.862333 -1.75058,0.413074 -2.15864,0.61364 -2.54371,1.250258 -0.60788,1.004983 -0.34085,1.129981 2.12844,0.996308 2.43529,-0.131834 2.96963,0.103239 2.35766,1.037216 -0.42639,0.650758 -1.40294,1.081263 -4.38561,1.93337 -1.3248,0.378477 -1.75214,0.633834 -2.06133,1.231752 -0.21454,0.414861 -0.3278,0.855032 -0.25171,0.978158 0.0761,0.123126 1.19541,0.163596 2.48737,0.08993 1.29195,-0.07366 2.4112,-0.02907 2.48722,0.09909 0.27595,0.465233 -0.32146,1.406337 -1.17506,1.851081 -0.48045,0.250325 -1.81425,0.703572 -2.964,1.007215 -2.00071,0.528379 -2.10496,0.594008 -2.42862,1.528888 l -0.33818,0.97681 2.20599,-0.155679 c 2.57095,-0.181435 3.28665,-0.02524 2.76491,0.603431 -0.5949,0.716799 -2.29607,1.431017 -3.94594,1.65665 -0.87581,0.119775 -1.6422,0.267593 -1.70309,0.328485 -0.0609,0.06089 -0.81218,2.372529 -1.66952,5.136971 -1.33734,4.312162 -1.50011,5.051808 -1.1457,5.206099 0.22721,0.09891 1.34279,0.18821 2.47909,0.198438 2.6484,0.02384 5.09071,0.396671 9.01639,1.376401 3.09158,0.771565 5.1895,1.603878 5.1895,2.058848 0,0.126994 -0.20836,0.332934 -0.46303,0.457643 -0.50726,0.24841 -36.98671,0.325382 -48.220305,0.101745 z"
       id="path18359" />
    <path
       style="fill:#659127"
       d="m 125.03481,46.068751 c 0.17088,-0.887296 1.93763,-6.944077 2.50989,-8.604404 0.29625,-0.859526 0.53863,-1.70008 0.53863,-1.867897 0,-0.167817 -0.54776,-0.946839 -1.21724,-1.731161 -0.66949,-0.784321 -1.33093,-1.725057 -1.46988,-2.090525 -0.31142,-0.819087 -0.0761,-1.875767 0.4177,-1.875767 0.33079,0 1.50805,0.90598 2.86507,2.204861 0.27873,0.266789 0.53634,0.445382 0.57247,0.396875 0.47563,-0.638621 0.94855,-1.440791 0.94855,-1.608948 0,-0.116812 -0.70399,-0.969126 -1.56443,-1.894032 -0.86044,-0.924905 -1.75341,-2.047083 -1.98438,-2.493728 -0.39837,-0.77037 -0.58571,-2.425861 -0.27451,-2.425861 0.32067,0 1.65118,0.808958 3.01121,1.830827 0.79027,0.593774 1.52495,1.07959 1.63262,1.07959 0.29527,0 0.5928,-1.628922 0.33225,-1.818989 -0.1247,-0.09096 -0.80753,-1.032393 -1.51741,-2.092068 -1.38378,-2.065639 -1.79258,-3.801545 -0.93436,-3.967573 0.49968,-0.09667 2.28038,1.312394 3.17647,2.513534 0.34985,0.468937 0.71124,0.85589 0.80311,0.859896 0.0919,0.004 0.30654,-0.546775 0.47706,-1.223957 0.30591,-1.214882 0.29792,-1.243883 -0.6009,-2.182812 -1.14145,-1.192383 -1.76298,-2.409362 -1.76298,-3.451975 0,-1.151984 0.57189,-1.035617 2.14584,0.43663 1.07005,1.000903 1.37677,1.168672 1.57212,0.859896 0.39214,-0.619863 0.30619,-0.855442 -0.80081,-2.195074 -1.25479,-1.51846 -1.75053,-2.964845 -1.20363,-3.511738 0.55762,-0.557629 0.82393,-0.457701 1.97631,0.741587 0.58501,0.608817 1.13322,1.037374 1.21824,0.95235 0.085,-0.08502 -0.1364,-0.731975 -0.49206,-1.437669 -0.775,-1.5377589 -1.05681,-2.7443985 -0.75156,-3.2180427 0.17361,-0.2693989 0.41379,-0.187697 1.06904,0.3636518 0.46481,0.3911136 0.89716,0.6590609 0.96079,0.5954384 0.0636,-0.063623 0.16205,-0.7414892 0.21873,-1.5063705 0.1226,-1.6544931 0.5262,-2.2243523 1.05917,-1.4954777 0.3323,0.4544484 0.39375,0.4022762 0.81003,-0.6877256 0.5186,-1.3579393 1.38736,-2.0968692 1.65261,-1.4056398 0.1664,0.4336506 -0.0577,3.5158272 -0.32774,4.5067901 -0.13403,0.4919177 -0.0585,0.5388621 0.69042,0.4289481 0.76059,-0.1116306 0.81507,-0.075123 0.57034,0.3821564 -0.14881,0.2780677 -0.81605,0.7780035 -1.48275,1.1109675 -0.6667,0.332964 -1.21217,0.665136 -1.21217,0.738158 0,0.07302 0.65484,0.05095 1.4552,-0.04905 1.4245,-0.177979 1.45521,-0.167847 1.45521,0.479981 0,0.666904 -0.48186,1.007973 -2.51751,1.78194 -0.71312,0.27113 -0.74278,0.326578 -0.30565,0.571219 0.26628,0.149018 1.01042,0.229084 1.65365,0.177926 1.06174,-0.08444 1.16951,-0.03854 1.16951,0.498104 0,0.791253 -0.79648,1.242532 -3.175,1.79892 -2.52575,0.590828 -2.90664,0.86375 -2.10801,1.510443 0.43296,0.350586 0.83148,0.434596 1.48237,0.312488 1.31459,-0.246619 2.74412,0.08357 2.73389,0.631478 -0.0168,0.902393 -0.7247,1.374637 -2.79151,1.862333 -1.75058,0.413074 -2.15864,0.61364 -2.54371,1.250258 -0.60788,1.004983 -0.34085,1.129981 2.12844,0.996308 2.43529,-0.131834 2.96963,0.103239 2.35766,1.037216 -0.42639,0.650758 -1.40294,1.081263 -4.38561,1.93337 -1.3248,0.378477 -1.75214,0.633834 -2.06133,1.231752 -0.21454,0.414861 -0.3278,0.855032 -0.25171,0.978158 0.0761,0.123126 1.19541,0.163596 2.48737,0.08993 1.29195,-0.07366 2.4112,-0.02907 2.48722,0.09909 0.27595,0.465233 -0.32146,1.406337 -1.17506,1.851081 -0.48045,0.250325 -1.81425,0.703572 -2.964,1.007215 -2.00071,0.528379 -2.10496,0.594008 -2.42862,1.528888 l -0.33818,0.97681 2.20599,-0.155679 c 2.57095,-0.181435 3.28665,-0.02524 2.76491,0.603431 -0.5949,0.716799 -2.29607,1.431017 -3.94594,1.65665 -0.87581,0.119775 -1.6422,0.267593 -1.70309,0.328485 -0.0609,0.06089 -0.80937,2.372529 -1.66327,5.136971 l -1.55256,5.026258 -1.10212,0.08075 c -0.97908,0.07174 -1.09076,0.02179 -1.0004,-0.447458 z"
       id="path17842" />
    <path
       style="fill:#659127"
       d="m 118.35232,44.715668 c 0.10498,-1.091406 0.38207,-4.067968 0.61577,-6.614583 0.62403,-6.800015 1.6166,-12.954701 2.62573,-16.281475 0.2191,-0.722324 0.39966,-1.870221 0.40123,-2.550883 0.002,-1.023691 -0.11761,-1.332336 -0.69427,-1.785937 -0.9015,-0.709121 -1.10802,-0.692335 -2.00036,0.162589 -0.78963,0.756513 -0.91731,1.377671 -0.45914,2.233764 0.28963,0.541191 -0.0537,1.28861 -0.59195,1.28861 -0.62673,0 -1.54308,-1.334657 -1.54308,-2.247472 0,-1.628308 0.84591,-2.88765 2.38416,-3.549386 1.65773,-0.713135 2.72699,-0.468486 3.92728,0.898568 1.3444,1.531187 1.36264,2.457051 0.15414,7.824315 -1.08598,4.823099 -2.22393,14.180366 -2.27681,18.72188 -0.0129,1.104472 -0.11951,2.343288 -0.23699,2.752925 -0.1294,0.451188 -0.116,0.684476 0.034,0.591784 0.13616,-0.08416 0.24757,0.02929 0.24757,0.252112 0,0.319796 -0.29256,0.392743 -1.38906,0.346344 l -1.38906,-0.05878 z"
       id="path17837" />
    <path
       style="fill:#659127"
       d="m 114.25885,46.583337 c 0.32743,-0.144714 0.59532,-0.377059 0.59532,-0.516321 0,-0.504248 -1.05174,-10.024078 -1.43546,-12.993014 -0.21628,-1.673489 -0.69832,-5.959739 -1.07119,-9.524999 -0.37287,-3.56526 -0.86374,-7.493999 -1.09082,-8.73053 -0.76425,-4.161692 -2.04696,-6.0861361 -4.05662,-6.0861361 -2.81783,0 -4.2129,3.2383181 -2.24349,5.2077261 0.68671,0.686707 0.63893,0.682631 3.54758,0.302645 1.04774,-0.136878 1.0147,0.841343 -0.0551,1.632309 -0.65577,0.484828 -1.20514,0.643629 -2.22663,0.643629 -4.14799,0 -5.83493,-5.849381 -2.49696,-8.6580974 1.65932,-1.3962271 4.37805,-1.5981305 6.21685,-0.4616883 0.98791,0.6105617 2.13292,2.2125511 2.67056,3.7363957 0.39015,1.105787 1.21331,6.506618 1.71055,11.223122 0.35407,3.358404 1.72292,14.933912 2.11195,17.859374 0.14513,1.091406 0.34211,2.96664 0.43772,4.167187 l 0.17384,2.182813 h -0.79871 c -0.4393,0 -1.20056,0.06271 -1.69169,0.139351 -0.75392,0.117652 -0.80027,0.09838 -0.29766,-0.123766 z"
       id="path17836" />
    <path
       style="fill:#659127"
       d="m 111.35008,46.237022 c -2.09043,-9.86153 -4.28679,-18.906648 -4.76995,-19.643711 -1.03266,-1.575341 -3.17484,-1.377644 -3.40356,0.314107 -0.17669,1.306922 0.0558,1.969383 0.84965,2.420999 0.93812,0.533691 0.95621,0.703435 0.13248,1.243164 -0.58695,0.384584 -0.71204,0.383611 -1.47605,-0.01147 -1.54441,-0.798649 -2.10211,-3.649135 -1.05119,-5.372843 0.57644,-0.945474 2.30784,-1.887455 3.48682,-1.897035 1.69765,-0.01379 3.19186,1.125299 3.77322,2.876463 0.82519,2.485621 4.69423,19.877466 4.5219,20.326543 -0.0716,0.186504 -0.5367,0.339099 -1.03363,0.339099 -0.72318,0 -0.92868,-0.11881 -1.02969,-0.595313 z"
       id="path17835" />
  </g>
</svg>
