<?xml version="1.0" encoding="UTF-8" standalone="no"?>
<!-- Created with Inkscape (http://www.inkscape.org/) -->

<svg
   width="185"
   height="185"
   viewBox="0 0 48.947914 48.947918"
   version="1.1"
   id="svg1"
   sodipodi:docname="dryopteris-filix-mas-10.svg"
   inkscape:version="1.4 (e7c3feb100, 2024-10-09)"
   xmlns:inkscape="http://www.inkscape.org/namespaces/inkscape"
   xmlns:sodipodi="http://sodipodi.sourceforge.net/DTD/sodipodi-0.dtd"
   xmlns="http://www.w3.org/2000/svg"
   xmlns:svg="http://www.w3.org/2000/svg">
  <sodipodi:namedview
     id="namedview1"
     pagecolor="#ffffff"
     bordercolor="#666666"
     borderopacity="1.0"
     inkscape:showpageshadow="2"
     inkscape:pageopacity="0.0"
     inkscape:pagecheckerboard="0"
     inkscape:deskcolor="#d1d1d1"
     inkscape:zoom="2.6213988"
     inkscape:cx="82.589494"
     inkscape:cy="79.728426"
     inkscape:window-width="1920"
     inkscape:window-height="1023"
     inkscape:window-x="0"
     inkscape:window-y="0"
     inkscape:window-maximized="1"
     inkscape:current-layer="g18523" />
  <defs
     id="defs1" />
  <g
     id="g18523"
     transform="matrix(0.77582028,0,0,0.77582028,-66.369878,-107.02207)">
    <path
       style="fill:#786721"
       d="m 90.390482,200.81983 c -0.418202,-0.0728 -0.804358,-0.26457 -0.858125,-0.42623 -0.184338,-0.55426 3.313493,-1.77192 7.462436,-2.59781 2.440216,-0.48575 12.483897,-1.73612 13.956767,-1.73752 0.61827,-5.9e-4 0.9912,-0.12558 0.98955,-0.33167 -10e-4,-0.1819 -0.50746,-1.34276 -1.12448,-2.57969 l -1.12184,-2.24896 -3.30729,-0.0258 c -1.81901,-0.0142 -4.02167,-0.10756 -4.89479,-0.20744 -1.516638,-0.17351 -5.156707,-1.43437 -5.158514,-1.78683 -4.74e-4,-0.0924 0.30492,-0.36836 0.678653,-0.61324 0.888613,-0.58224 4.522281,-0.9442 8.015601,-0.79846 l 2.74199,0.11439 -0.65869,-0.85484 -0.65868,-0.85484 -3.40622,-0.0657 c -4.150654,-0.08 -7.28635,-0.66377 -8.691513,-1.61807 -0.564894,-0.38363 -1.035546,-0.81574 -1.045895,-0.96023 -0.05292,-0.73894 8.262008,-1.28574 10.367828,-0.6818 0.9499,0.27243 1.10235,0.0514 0.39513,-0.57277 -0.45109,-0.39815 -1.9576,-0.70001 -6.283857,-1.25912 -2.737044,-0.35372 -5.189566,-1.17333 -5.957739,-1.99101 l -0.609009,-0.64826 1.034416,-0.43503 c 0.866964,-0.36461 1.70891,-0.41235 5.201047,-0.29489 2.639462,0.0888 4.108932,0.0468 4.009192,-0.1146 -0.24952,-0.40374 -1.3166,-0.73035 -3.365616,-1.03018 -4.72425,-0.69127 -7.323749,-1.56557 -7.323749,-2.46322 0,-0.75815 1.493573,-1.04626 4.580205,-0.88351 2.946565,0.15536 2.957324,0.15375 2.298961,-0.34481 -0.634824,-0.48073 -1.014456,-0.5765 -3.733192,-0.94173 -1.347708,-0.18105 -3.967035,-1.38319 -4.138173,-1.89921 -0.184992,-0.55779 1.279762,-0.92285 3.062052,-0.76315 1.993211,0.1786 2.158746,-0.29393 0.292445,-0.83482 -2.286825,-0.66276 -3.031086,-0.93456 -3.632654,-1.32662 -0.862592,-0.56219 -0.364486,-0.94155 1.47976,-1.12699 l 1.510387,-0.15188 -1.918229,-0.88197 c -1.334673,-0.61366 -1.918229,-1.02554 -1.918229,-1.35391 0,-0.53396 0.766195,-0.86768 1.417935,-0.61758 0.624048,0.23947 0.546423,0.004 -0.464514,-1.41076 -0.934822,-1.30798 -1.642379,-3.24176 -1.186136,-3.24176 0.589906,0 2.336084,1.09843 2.999458,1.88681 0.57375,0.68186 0.76422,0.7765 0.955272,0.47462 0.131248,-0.20738 0.240455,-0.5113 0.242684,-0.67539 0.0022,-0.16408 0.166848,-0.43344 0.365821,-0.59857 0.474732,-0.39399 0.709468,-0.0644 1.34551,1.88909 0.669,2.05474 0.878234,2.01333 1.336698,-0.26458 0.09519,-0.47294 0.273436,-0.8599 0.396109,-0.8599 0.402173,0 0.877059,1.94229 1.035041,4.23334 0.215296,3.12221 0.570396,2.96368 1.36114,-0.60765 0.186769,-0.84352 0.438518,-1.59483 0.559443,-1.66956 0.475853,-0.2941 0.822279,1.51355 0.943473,4.92304 0.111558,3.13827 0.324578,4.3407 0.699978,3.95111 0.0608,-0.0631 0.25742,-1.06715 0.43702,-2.23132 0.64831,-4.20229 0.96727,-4.86161 1.56796,-3.24114 0.17531,0.47294 0.42788,1.06664 0.56126,1.31932 0.13338,0.25269 0.24434,0.72894 0.24657,1.05834 0.007,1.05818 0.3777,1.35352 1.47481,1.17548 0.79527,-0.12906 1.31828,-0.002 2.52859,0.61271 1.44788,0.73576 2.311,1.31753 6.4281,4.33273 0.9678,0.70878 1.83628,1.21205 1.92994,1.11838 0.2508,-0.25079 -2.16364,-2.63072 -4.33507,-4.27312 -3.42076,-2.58733 -6.47459,-5.34821 -7.43807,-6.72453 -0.83674,-1.19527 -0.90189,-1.39973 -0.5562,-1.74543 0.34569,-0.34569 0.70634,-0.23569 3.07866,0.93902 2.67325,1.32372 7.60674,4.36014 8.70637,5.3585 0.31702,0.28783 0.70305,0.4808 0.85784,0.42882 0.49198,-0.16519 -0.70773,-1.77959 -1.99079,-2.67893 -3.12796,-2.19248 -7.2696,-5.67285 -8.49243,-7.13647 -2.50182,-2.99449 0.53703,-2.62066 5.69583,0.70068 0.97111,0.62522 2.4174,1.6807 3.21399,2.3455 0.79658,0.66481 1.54719,1.14764 1.66802,1.07296 0.56047,-0.34639 -1.50098,-2.54704 -5.10073,-5.44516 -3.47822,-2.80028 -4.91569,-4.71513 -3.84737,-5.12508 0.88585,-0.33994 3.99861,1.19724 7.0301,3.47168 0.80461,0.60368 1.61205,1.0479 1.79429,0.98715 0.45266,-0.15088 -1.24853,-1.99969 -3.16709,-3.4419 -0.83764,-0.62966 -2.14061,-1.88267 -2.8955,-2.78446 l -1.37252,-1.63963 0.98616,-0.0834 c 0.78103,-0.0661 1.38063,0.15407 2.88265,1.05833 1.04307,0.62796 2.01558,1.18849 2.16112,1.24562 0.14554,0.0571 0.60573,0.34287 1.02265,0.63499 l 0.75802,0.53112 -0.19472,-0.63499 c -0.31605,-1.03069 -0.45119,-1.18524 -2.15022,-2.45923 -1.7652,-1.32361 -2.5637,-2.32103 -2.41779,-3.0201 0.13737,-0.65814 1.10543,-0.45353 2.8222,0.59648 0.81198,0.49663 1.51719,0.86208 1.56715,0.81213 0.16444,-0.16444 -0.50958,-1.22435 -1.41803,-2.2299 -0.97093,-1.07471 -1.55605,-2.30395 -1.20111,-2.52332 0.12271,-0.0758 0.65923,0.15807 1.19227,0.5198 0.53304,0.36173 0.99363,0.65742 1.02355,0.6571 0.0299,-3.3e-4 0.0677,-0.71822 0.0839,-1.59532 0.0288,-1.55928 0.73111,-3.69576 1.21483,-3.69576 0.4627,0 1.00465,1.85602 1.00465,3.44062 v 1.60554 l 0.98746,-0.671 c 1.16765,-0.79343 1.39412,-0.82725 1.3928,-0.20797 -0.001,0.65065 -0.89992,2.04961 -1.87738,2.92297 -0.45492,0.40647 -0.78394,0.93296 -0.73115,1.16999 0.0808,0.36261 0.32673,0.29483 1.55118,-0.42746 2.08546,-1.23018 3.15727,-1.57219 3.35032,-1.0691 0.24183,0.6302 -1.21117,2.4588 -3.00841,3.78609 -1.43572,1.06029 -2.19571,1.97766 -1.88742,2.27824 0.0497,0.0484 1.51905,-0.61485 3.2653,-1.47396 2.76638,-1.36097 3.21397,-1.5095 3.47775,-1.15402 0.67352,0.90766 -0.32972,2.10566 -4.13169,4.93379 -3.01504,2.24275 -4.05524,4.22931 -1.20858,2.30812 0.68292,-0.4609 2.51246,-1.4768 4.06564,-2.25757 4.01553,-2.01857 5.04051,-1.91431 3.23942,0.32949 -1.14308,1.42406 -2.57676,2.70863 -5.72533,5.12986 -1.84067,1.41548 -3.234,3.16887 -2.51814,3.16887 0.13381,0 0.28298,-0.10119 0.33149,-0.22486 0.11859,-0.30236 4.51126,-3.2383 6.37711,-4.2623 2.00729,-1.10161 3.57467,-1.64204 3.7833,-1.30448 0.60128,0.9729 -1.06653,2.95487 -5.44201,6.46713 -4.00659,3.21615 -4.7625,3.94811 -4.7625,4.61169 0,0.42099 0.0796,0.48509 0.33073,0.26621 2.28621,-1.99297 7.47122,-5.19955 9.63659,-5.95958 1.7531,-0.61532 1.81349,-0.61922 2.03761,-0.13168 0.1636,0.35591 0.0682,0.76586 -0.32725,1.40565 -0.69582,1.12586 -4.50612,4.67436 -7.31213,6.80973 -2.09589,1.59497 -4.36555,3.80974 -4.36555,4.25998 0,0.44054 0.47437,0.23226 1.36108,-0.59762 1.36655,-1.27895 4.36822,-3.44031 7.02955,-5.06165 2.22799,-1.35733 2.4501,-1.43829 2.96211,-1.07966 0.52477,0.36757 0.55351,0.34649 0.55351,-0.40593 0,-0.80328 0.92878,-2.67596 1.32717,-2.67596 0.34899,0 1.00429,2.12087 1.17352,3.79813 0.1623,1.6086 0.51155,2.55187 0.94483,2.55187 0.15111,0 0.18753,-0.76755 0.091,-1.91823 -0.0885,-1.05503 -0.0228,-2.80464 0.14606,-3.88803 0.46175,-2.96336 1.14693,-3.47102 1.47411,-1.09218 0.24925,1.81226 0.84216,3.68286 1.01248,3.19427 0.0761,-0.21828 0.21367,-1.62889 0.30575,-3.13469 0.15428,-2.52309 0.48163,-3.74448 1.00357,-3.74448 0.28416,0 0.72356,1.21553 0.72356,2.0016 0,1.30057 0.81031,0.39722 1.18763,-1.324 0.21818,-0.99528 1.15711,-2.32106 1.55159,-2.19088 0.16692,0.0551 0.36302,0.48559 0.43578,0.9567 l 0.13229,0.85655 1.5355,-1.19458 c 1.74713,-1.35923 2.45206,-1.38225 2.18991,-0.0715 -0.0891,0.44538 -0.63631,1.37234 -1.21608,2.05992 -1.17776,1.39675 -1.28062,1.65961 -0.5599,1.43087 0.27182,-0.0863 0.83736,-0.0255 1.25677,0.13501 l 0.76255,0.29187 -0.63786,0.51934 c -0.35083,0.28563 -1.33309,0.71262 -2.18282,0.94887 -0.84972,0.23624 -1.54495,0.52339 -1.54495,0.63811 0,0.11472 0.74414,0.24403 1.65365,0.28735 0.9095,0.0433 1.63643,0.19783 1.6154,0.34335 -0.0853,0.58997 -1.4494,1.25829 -3.28044,1.60718 -1.0663,0.20317 -2.04146,0.47213 -2.16701,0.59769 -0.12799,0.12799 0.73629,0.29645 1.96724,0.38344 3.17468,0.22436 3.76503,0.54976 2.50053,1.3783 -0.7135,0.4675 -2.61496,0.97223 -5.46437,1.45046 -1.845,0.30966 -2.64583,0.62279 -2.64583,1.03455 0,0.093 1.72036,0.16773 3.82302,0.16604 3.89707,-0.003 4.62011,0.16459 4.03052,0.93496 -0.76669,1.00177 -5.48415,2.36926 -8.17327,2.36926 -1.05204,0 -2.84907,0.88463 -2.85346,1.40468 -0.001,0.11773 0.10697,0.14682 0.23993,0.0646 0.50345,-0.31114 7.57047,-0.20607 8.68795,0.12918 1.29198,0.38759 1.3792,0.60365 0.48122,1.19203 -1.46945,0.96282 -3.51028,1.5061 -6.50049,1.73046 -3.47646,0.26085 -5.3926,0.65155 -5.84013,1.1908 -0.26379,0.31784 0.11942,0.37431 2.56658,0.37821 2.91353,0.005 7.33584,0.37403 8.131,0.67916 1.3428,0.51528 -0.6622,1.77267 -3.53454,2.2166 -1.0914,0.16868 -3.69934,0.41686 -5.79542,0.55152 -2.68743,0.17264 -3.9989,0.36791 -4.4482,0.6623 -1.12722,0.73858 -0.60451,1.04147 1.66512,0.96488 3.95665,-0.13352 9.4012,0.73754 9.36394,1.49812 -0.0224,0.45656 -1.51669,1.16797 -3.23628,1.54072 -1.32293,0.28678 -3.22329,0.40873 -6.14812,0.39456 l -4.23333,-0.0205 -1.19062,2.42346 c -0.65485,1.3329 -1.23032,2.51784 -1.27882,2.6332 -0.0485,0.11536 0.88374,0.20974 2.07167,0.20974 3.48995,0 11.03945,1.06854 14.97068,2.11892 4.36801,1.16709 5.89341,2.10728 4.14636,2.55565 -0.81765,0.20984 -51.124342,0.2944 -52.311078,0.0879 z"
       id="path18395" />
    <path
       style="fill:#9a7733"
       d="m 90.390482,200.81988 c -1.186784,-0.20648 -1.071885,-0.67108 0.310672,-1.2562 2.866884,-1.21332 6.419051,-1.94572 13.834266,-2.85238 4.11004,-0.50254 6.01682,-0.62124 7.87135,-0.49001 2.08576,0.14758 2.4474,0.11396 2.4474,-0.22756 0,-0.2204 -0.1786,-0.54894 -0.39688,-0.7301 -0.21828,-0.18116 -0.39628,-0.46363 -0.39556,-0.62771 7.2e-4,-0.16408 0.28705,0.0588 0.63627,0.49529 0.34923,0.43649 0.57943,0.88348 0.51155,0.99331 -0.0679,0.10983 0.3004,0.16942 0.8184,0.13242 0.518,-0.037 0.94206,-0.14019 0.94235,-0.22932 2.9e-4,-0.0891 0.30906,-0.12819 0.68615,-0.0868 0.52783,0.0579 0.78661,-0.10721 1.12448,-0.71765 0.74977,-1.35464 1.15283,-1.73855 0.57301,-0.54578 -0.62193,1.27938 -0.52807,1.64457 0.42266,1.64457 0.6348,0 1.46159,-0.66457 2.15893,-1.73534 0.18397,-0.28249 0.15421,-0.13258 -0.0661,0.33314 -0.22035,0.46572 -0.40064,0.9122 -0.40064,0.99219 0,0.08 0.96202,0.14543 2.13782,0.14543 3.46937,0 11.02831,1.07146 14.94863,2.11892 4.36801,1.16709 5.89341,2.10728 4.14636,2.55565 -0.81765,0.20984 -51.124342,0.2944 -52.311078,0.0879 z"
       id="path17963" />
    <path
       style="fill:#a0892c"
       d="m 112.218,178.52902 c -0.005,-0.5457 -0.14147,-0.99218 -0.30256,-0.99218 -0.16109,0 -0.22632,-0.17348 -0.14495,-0.38552 0.11986,-0.31234 0.0215,-0.33745 -0.51809,-0.13229 -1.11715,0.42474 -1.34413,0.32448 -1.21757,-0.53783 0.0639,-0.43508 0.22995,-0.72069 0.36909,-0.63469 0.13914,0.086 0.19887,0.29739 0.13272,0.46977 -0.0665,0.17324 0.10296,0.31341 0.37884,0.31341 0.27451,0 0.4991,-0.10057 0.4991,-0.2235 0,-0.12292 0.11084,-0.155 0.2463,-0.0713 0.13547,0.0837 0.33246,0.0128 0.43776,-0.15756 0.11214,-0.18144 0.0773,-0.23924 -0.084,-0.13952 -0.15152,0.0936 -0.42488,-0.01 -0.60747,-0.22976 -0.27663,-0.33331 -0.25957,-0.37223 0.10231,-0.23336 0.24149,0.0927 0.4343,0.0366 0.4343,-0.12623 0,-0.38596 -0.98532,-0.37965 -1.11424,0.007 -0.15325,0.45976 -0.99699,-0.50237 -1.03376,-1.17881 -0.0443,-0.81536 -0.048,-0.78043 0.15098,-1.43631 0.10871,-0.35834 0.0682,-0.59531 -0.10182,-0.59531 -0.15532,0 -0.26381,0.0893 -0.24108,0.19844 0.0227,0.10914 -0.0888,0.49609 -0.24781,0.85989 -0.28444,0.65071 -0.28942,0.65169 -0.30592,0.0605 -0.0104,-0.3744 -0.26616,-0.71462 -0.67822,-0.90237 -0.51335,-0.23389 -0.66146,-0.49923 -0.66146,-1.18495 0,-0.48597 0.12609,-0.88357 0.2802,-0.88357 0.1541,0 0.19455,0.14882 0.0899,0.33073 -0.10468,0.1819 -0.0916,0.24117 0.0291,0.13171 0.12066,-0.10946 0.45787,0.01 0.74936,0.26458 0.29148,0.25498 0.44294,0.31477 0.33658,0.13287 -0.11332,-0.19379 -0.0517,-0.33073 0.14883,-0.33073 0.18822,0 -0.0726,-0.22487 -0.5797,-0.49972 -0.50705,-0.27485 -1.04097,-0.40585 -1.18649,-0.29112 -0.14553,0.11474 -0.43074,0.0284 -0.63382,-0.19178 -0.32338,-0.35068 -0.29053,-0.38056 0.26458,-0.24068 0.47495,0.11969 0.43487,0.0639 -0.15993,-0.2226 -0.43656,-0.21027 -0.94258,-0.38768 -1.12448,-0.39425 -0.1819,-0.007 -0.33073,-0.1248 -0.33073,-0.26275 0,-0.73487 4.33953,1.7719 7.90639,4.5672 0.96299,0.75469 1.99436,1.50674 2.29192,1.67122 0.57338,0.31695 0.56062,0.36429 0.41914,-1.55583 -0.0234,-0.31704 -0.2572,-0.46302 -0.7417,-0.46302 h -0.70757 l 0.62539,0.7276 c 0.34397,0.40019 0.0423,0.14695 -0.67043,-0.56275 -0.71271,-0.7097 -2.37237,-2.09729 -3.68813,-3.08353 -2.43461,-1.82489 -3.88266,-3.16674 -3.41738,-3.16674 0.14178,0 0.42469,0.14883 0.62867,0.33073 0.31682,0.28252 0.31835,0.26148 0.0105,-0.14433 -0.1982,-0.26128 -0.53354,-0.40861 -0.74521,-0.32738 -0.49252,0.189 -2.31627,-1.43555 -3.40578,-3.03379 -0.6286,-0.9221 -0.77053,-1.33261 -0.57905,-1.67477 0.13951,-0.24929 0.36734,-0.38299 0.50629,-0.29711 0.13895,0.0859 0.191,0.25587 0.11566,0.37776 -0.0753,0.1219 0.0845,0.1637 0.35525,0.0929 0.90784,-0.23741 7.17566,3.32037 10.70428,6.07602 0.75305,0.5881 1.08557,0.71195 1.30969,0.48784 0.22411,-0.22411 0.21976,-0.30038 -0.0171,-0.30038 -0.17462,0 -0.3175,-0.16343 -0.3175,-0.36317 0,-0.19975 -0.52418,-0.84635 -1.16484,-1.4369 -0.64066,-0.59054 -1.09078,-1.14778 -1.00025,-1.2383 0.0905,-0.0905 -0.0104,-0.0986 -0.22422,-0.0179 -0.39679,0.14968 -4.62214,-3.08756 -4.62214,-3.54125 0,-0.13064 -0.10839,-0.33675 -0.24086,-0.45801 -0.13994,-0.1281 -0.16111,-0.0819 -0.0505,0.11024 0.29583,0.51407 -0.14063,0.38996 -0.79693,-0.2266 -0.33887,-0.31835 -0.53402,-0.7438 -0.45511,-0.99219 0.0933,-0.29388 0.0634,-0.33216 -0.0922,-0.11809 -0.29743,0.40895 -0.60402,0.20109 -1.77247,-1.20169 -2.65603,-3.1887 0.49898,-2.75667 5.91027,0.80931 2.28368,1.50492 3.18641,2.27981 3.18641,2.73517 0,0.1751 0.20836,0.47602 0.46302,0.66873 0.3939,0.29806 0.41365,0.295 0.13229,-0.0205 -0.53939,-0.60489 -0.37612,-0.91731 0.20469,-0.39169 0.36459,0.32995 0.62168,0.39828 0.80579,0.21417 0.18411,-0.18411 0.0136,-0.54525 -0.53441,-1.1319 -0.44263,-0.47383 -0.73685,-0.97143 -0.65383,-1.10576 0.083,-0.13433 0.0332,-0.21152 -0.11063,-0.17154 -0.42169,0.1172 -2.716,-1.91717 -2.51993,-2.23442 0.098,-0.1585 0.0576,-0.21369 -0.0897,-0.12264 -0.14731,0.091 -1.03865,-0.45611 -1.98075,-1.21589 -4.14179,-3.34028 -4.8866,-5.40429 -1.55029,-4.29615 0.73131,0.2429 1.41011,0.57183 1.50845,0.73096 0.11556,0.18697 0.0182,0.22769 -0.27521,0.11509 -0.27946,-0.10724 -0.38931,-0.0695 -0.28572,0.0981 0.0926,0.14977 0.37324,0.20727 0.62373,0.12777 0.46773,-0.14845 3.43875,1.66866 4.89877,2.99614 0.42269,0.38431 0.68984,0.5601 0.59366,0.39062 -0.0962,-0.16947 -0.0405,-0.35293 0.1238,-0.40768 0.38258,-0.12753 -1.30973,-1.8594 -3.28314,-3.35991 -0.84291,-0.64092 -2.14019,-1.89108 -2.88283,-2.77813 l -1.35027,-1.61281 0.732,-0.0868 c 1.03753,-0.12303 2.05126,0.17207 1.82861,0.53232 -0.11098,0.17957 -0.0651,0.22425 0.11552,0.1126 0.16473,-0.10181 0.95935,0.23698 1.76581,0.75287 0.80647,0.51589 1.56566,0.93798 1.68711,0.93798 0.12145,0 0.53585,0.29197 0.9209,0.64882 0.38505,0.35686 0.69473,0.50568 0.68816,0.33073 -0.0319,-0.8506 -0.79665,-1.84074 -2.27216,-2.94187 -1.76353,-1.31607 -2.56397,-2.31398 -2.41779,-3.01431 0.13737,-0.65814 1.10543,-0.45353 2.8222,0.59648 0.81198,0.49663 1.51719,0.86208 1.56715,0.81213 0.17759,-0.17759 -0.55695,-1.34065 -1.42278,-2.25282 -0.94588,-0.99648 -1.55839,-2.27665 -1.19636,-2.5004 0.12271,-0.0758 0.65923,0.15807 1.19227,0.5198 0.53304,0.36173 0.99363,0.65742 1.02355,0.6571 0.0299,-3.3e-4 0.0677,-0.71822 0.0839,-1.59532 0.0288,-1.55928 0.73111,-3.69576 1.21483,-3.69576 0.46362,0 1.00465,1.85741 1.00465,3.4491 v 1.61402 l 0.79194,-0.56392 c 0.43557,-0.31015 0.93022,-0.47845 1.09921,-0.37401 0.19102,0.11806 0.23585,0.0743 0.11849,-0.11556 -0.10384,-0.168 -0.0627,-0.30546 0.0914,-0.30546 0.36738,0 0.35704,0.68127 -0.0213,1.40645 -0.16585,0.31786 -0.82682,1.14492 -1.46883,1.83792 -0.642,0.693 -1.09419,1.37827 -1.00485,1.52282 0.13565,0.21948 1.64762,-0.47463 2.90752,-1.33478 0.14552,-0.0994 0.65693,-0.31266 1.13646,-0.47402 2.10477,-0.70825 0.8134,1.82033 -1.98518,3.88712 -1.44073,1.064 -2.19326,1.97467 -1.88581,2.28211 0.0506,0.0505 1.39149,-0.55373 2.97986,-1.34285 3.37486,-1.67667 3.85571,-1.75924 3.85571,-0.66211 0,0.83695 -1.32816,2.14948 -4.75563,4.69971 -1.65409,1.23073 -2.51132,2.31632 -2.21178,2.80098 0.0792,0.12821 0.3994,0.003 0.71147,-0.27926 1.28109,-1.15686 7.41169,-4.28993 8.39425,-4.28993 1.19948,0 0.74292,0.8245 -1.87373,3.38374 -0.80036,0.78281 -2.11005,1.91928 -2.91041,2.5255 -0.80037,0.60622 -1.75165,1.37011 -2.11397,1.69753 -0.71607,0.64712 -1.21152,0.79382 -0.89357,0.26459 0.13666,-0.22747 0.0598,-0.21811 -0.24605,0.03 -0.24462,0.19839 -0.39263,0.44505 -0.32892,0.54813 0.0637,0.10309 -0.0588,0.52403 -0.27222,0.93543 -0.46854,0.9031 -0.38181,1.05656 0.30055,0.53184 3.47893,-2.67522 9.12622,-6.02039 9.51211,-5.63449 0.11904,0.11903 -0.063,0.22295 -1.7246,0.98462 -0.59817,0.2742 -0.6045,0.29226 -0.0662,0.18877 0.53756,-0.10333 0.59532,-0.0113 0.59532,0.94845 v 1.06287 l 0.49879,-0.61599 c 0.27434,-0.33879 0.43968,-0.77005 0.36742,-0.95835 -0.0919,-0.23948 0.0166,-0.28682 0.3611,-0.15754 0.42442,0.15929 0.445,0.1264 0.1489,-0.23802 -0.23097,-0.28427 -0.25265,-0.47906 -0.0661,-0.59432 0.15258,-0.0943 0.27743,-0.0384 0.27743,0.12435 0,0.16269 0.13094,0.21488 0.29098,0.11597 0.19156,-0.11839 0.18128,0.0345 -0.0301,0.44741 -0.41285,0.80655 -3.20182,3.67331 -3.5599,3.6592 -0.15008,-0.006 0.14385,-0.37617 0.65317,-0.82278 0.50933,-0.44662 0.68659,-0.69093 0.39392,-0.54292 -0.60729,0.30711 -1.63943,1.37645 -1.32857,1.37645 0.11313,0 0.0562,0.18017 -0.12658,0.40037 -0.18275,0.2202 -0.46522,0.3797 -0.62771,0.35444 -0.44387,-0.069 -1.84812,0.55882 -1.6633,0.74364 0.0884,0.0884 0.4621,-0.0367 0.83044,-0.27808 1.19168,-0.78082 0.70972,-0.20848 -0.71934,0.85425 -0.76399,0.56814 -1.69716,1.31604 -2.07372,1.66199 -1.32935,1.22132 -1.91766,1.6836 -1.72646,1.35662 0.10636,-0.1819 0.0703,-0.33073 -0.0802,-0.33073 -0.16586,0 -0.20784,0.32872 -0.1066,0.83489 0.13404,0.67021 0.0936,0.79303 -0.20505,0.62264 -0.29503,-0.16832 -0.30598,-0.14089 -0.0529,0.1325 0.25862,0.27935 0.54311,0.16124 1.49973,-0.62264 1.26633,-1.03766 1.77855,-1.25475 1.19006,-0.50437 -0.32763,0.41776 -0.31869,0.42821 0.0914,0.10692 0.25001,-0.19586 0.4286,-0.48605 0.39688,-0.64488 -0.0317,-0.15882 0.18043,-0.30563 0.47147,-0.32624 1.234,-0.0874 1.40668,-0.14904 1.5637,-0.55824 0.14862,-0.38729 0.0963,-0.38517 -0.52381,0.0211 -0.37891,0.24827 -0.74439,0.39593 -0.81217,0.32814 -0.21644,-0.21643 1.73564,-1.28616 2.02297,-1.10858 0.15178,0.0938 0.24325,0.0192 0.20327,-0.16576 -0.04,-0.18498 0.55237,-0.67763 1.31636,-1.0948 0.76398,-0.41716 1.38906,-0.6938 1.38906,-0.61477 0,0.079 -0.4779,0.38752 -1.062,0.6855 -0.87577,0.44679 -1.00336,0.60529 -0.7276,0.90391 0.2432,0.26337 0.37047,0.27782 0.46668,0.053 0.0728,-0.17 0.31089,-0.29482 0.52917,-0.27737 0.21828,0.0174 0.68322,0.0499 1.03319,0.072 0.61927,0.0392 0.62349,0.0545 0.15743,0.56947 -0.65058,0.71888 -0.19438,0.67147 0.6364,-0.0661 0.50982,-0.45264 0.57732,-0.47247 0.28164,-0.0828 -0.35163,0.46347 -0.34453,0.49594 0.0742,0.33903 0.69675,-0.26112 0.55989,-0.0306 -0.3785,0.63764 -0.46284,0.32957 -0.75347,0.45674 -0.64584,0.2826 0.10762,-0.17414 0.0658,-0.31662 -0.0928,-0.31662 -0.15867,0 -0.35703,0.17859 -0.44079,0.39687 -0.0838,0.21829 -0.26631,0.39688 -0.40566,0.39688 -0.28255,0 -1.44724,1.30705 -1.53247,1.71979 -0.0932,0.45112 -0.58886,0.93433 -2.24658,2.18997 -1.2537,0.9496 -1.45736,1.04405 -0.94202,0.43683 0.36162,-0.42609 0.48664,-0.62589 0.27781,-0.44399 -0.20882,0.1819 -0.62819,0.33073 -0.93192,0.33073 -0.36453,0 -0.56593,0.18181 -0.59253,0.53489 -0.0259,0.34348 0.0723,0.47128 0.27443,0.35714 0.17309,-0.0978 -0.0956,0.25685 -0.59708,0.78803 -0.89652,0.94959 -1.26246,1.22248 -0.94029,0.70119 0.0899,-0.14552 -0.0727,-0.26458 -0.36136,-0.26458 -0.43981,0 -0.51095,0.15 -0.43889,0.92534 0.0557,0.59946 -0.0123,0.8646 -0.19307,0.75287 -0.16348,-0.10104 -0.20087,-0.046 -0.0903,0.13299 0.10384,0.16801 0.0627,0.30547 -0.0914,0.30547 -0.15411,0 -0.2802,0.12608 -0.2802,0.28019 0,0.15411 0.10659,0.21433 0.23686,0.13382 0.13027,-0.0805 0.30094,0.0206 0.37926,0.2247 0.0907,0.23637 -0.0913,0.42976 -0.50144,0.53269 -0.62327,0.15643 -0.91537,0.68068 -0.37926,0.68068 0.14552,0 0.26458,-0.10518 0.26458,-0.23373 0,-0.4049 1.02548,-0.52154 1.33254,-0.15156 0.16151,0.19461 0.4515,0.29326 0.64442,0.21923 0.19292,-0.074 0.41376,-0.0327 0.49075,0.0919 0.077,0.12457 -0.1491,0.25042 -0.50241,0.27966 -0.35331,0.0292 -0.64238,-0.0716 -0.64238,-0.22407 0,-0.15248 -0.14605,-0.18697 -0.32457,-0.0766 -0.59865,0.36999 -2.32126,0.41136 -2.32126,0.0557 0,-0.2574 -0.0706,-0.26038 -0.3175,-0.0134 -0.17463,0.17463 -0.56753,0.3175 -0.87313,0.3175 -0.30559,0 -0.6985,-0.14287 -0.87312,-0.3175 -0.24695,-0.24694 -0.32447,-0.23224 -0.34884,0.0661 -0.0172,0.211 -0.0105,0.49309 0.0149,0.62687 0.0255,0.13377 -0.1317,0.0955 -0.34921,-0.085 -0.33332,-0.27663 -0.47969,-0.14852 -0.93131,0.81511 l -0.53583,1.14332 z"
       id="path17653" />
  </g>
</svg>
