<?xml version="1.0" encoding="UTF-8" standalone="no"?>
<!-- Created with Inkscape (http://www.inkscape.org/) -->

<svg
   width="185"
   height="185"
   viewBox="0 0 48.947914 48.947918"
   version="1.1"
   id="svg1"
   sodipodi:docname="dryopteris-filix-mas-4.svg"
   inkscape:version="1.4 (e7c3feb100, 2024-10-09)"
   xmlns:inkscape="http://www.inkscape.org/namespaces/inkscape"
   xmlns:sodipodi="http://sodipodi.sourceforge.net/DTD/sodipodi-0.dtd"
   xmlns="http://www.w3.org/2000/svg"
   xmlns:svg="http://www.w3.org/2000/svg">
  <sodipodi:namedview
     id="namedview1"
     pagecolor="#ffffff"
     bordercolor="#666666"
     borderopacity="1.0"
     inkscape:showpageshadow="2"
     inkscape:pageopacity="0.0"
     inkscape:pagecheckerboard="0"
     inkscape:deskcolor="#d1d1d1"
     inkscape:zoom="2.6213988"
     inkscape:cx="82.589494"
     inkscape:cy="108.3391"
     inkscape:window-width="1920"
     inkscape:window-height="1023"
     inkscape:window-x="0"
     inkscape:window-y="0"
     inkscape:window-maximized="1"
     inkscape:current-layer="g18521" />
  <defs
     id="defs1" />
  <g
     id="g18521"
     transform="matrix(0.89990774,0,0,0.89990774,-151.8699,3.1454674)">
    <path
       style="fill:#a2a25b"
       d="m 184.32925,50.80109 c -8.30426,-0.09043 -12.17879,-0.222133 -12.24341,-0.416188 -0.15926,-0.478191 0.76147,-1.075833 2.56416,-1.664386 2.1349,-0.697017 8.53219,-1.781527 11.97239,-2.029638 1.41883,-0.102327 2.57969,-0.207184 2.57969,-0.233015 0,-0.02583 -0.40353,-0.802224 -0.89673,-1.725317 l -0.89673,-1.678352 -4.32879,-0.05418 c -3.72556,-0.04663 -4.53106,-0.133654 -5.78026,-0.624468 -0.79831,-0.313658 -1.48292,-0.570286 -1.52136,-0.570286 -0.0384,0 -0.0699,-0.102887 -0.0699,-0.228638 0,-0.688188 4.46285,-1.598673 7.91747,-1.615276 l 1.69977,-0.0082 -0.6271,-0.667522 c -0.6181,-0.65793 -0.68054,-0.66675 -4.3456,-0.613781 -3.96194,0.05726 -5.2212,-0.218571 -6.30402,-1.380841 -0.48148,-0.516806 -0.47233,-0.534149 0.51853,-0.982495 0.79807,-0.361115 1.76821,-0.456403 4.64668,-0.456403 2.00091,0 3.63802,-0.06363 3.63802,-0.141391 0,-0.46831 -1.70463,-1.049451 -3.08353,-1.051233 -3.21544,-0.0042 -7.15093,-1.075233 -7.43553,-2.023647 -0.13041,-0.434552 2.21845,-0.883997 4.6451,-0.888822 1.90394,-0.0038 3.02914,-0.283126 2.65351,-0.658756 -0.0893,-0.08933 -1.39556,-0.288256 -2.90275,-0.442066 -3.92689,-0.40074 -6.40835,-1.575258 -4.96271,-2.348939 0.29483,-0.157786 1.61194,-0.356589 2.92693,-0.441783 2.58116,-0.167226 2.61318,-0.427445 0.0892,-0.724867 -1.75125,-0.206363 -3.50802,-0.87676 -4.0647,-1.551116 -0.45776,-0.554536 -0.27367,-0.630846 2.21262,-0.917181 l 1.85208,-0.213296 -1.7933,-0.326749 c -2.10101,-0.382815 -3.10149,-0.78978 -3.10149,-1.261591 0,-0.426206 0.39281,-0.671412 1.43211,-0.893961 l 0.81685,-0.174915 -1.40666,-0.722277 c -1.42678,-0.732613 -1.66685,-1.287964 -0.62314,-1.44154 0.74056,-0.108971 0.7297,-0.172629 -0.23811,-1.394582 -1.69012,-2.13395 -0.28248,-3.240203 1.59147,-1.250725 0.70454,0.747977 1.07331,0.990961 1.07331,0.707209 0,-0.23775 0.23571,-0.713354 0.52379,-1.056897 0.63978,-0.762936 0.84223,-0.534117 1.33135,1.504775 0.38885,1.620916 0.66412,1.651761 0.92566,0.103721 0.13314,-0.788041 0.29361,-1.049714 0.60673,-0.989411 0.56466,0.108742 0.78308,0.988342 0.84092,3.386499 0.046,1.907291 0.062,1.953541 0.41131,1.190625 0.1999,-0.436562 0.36883,-1.098415 0.37539,-1.470784 0.007,-0.372369 0.18251,-0.90815 0.391,-1.190625 0.68538,-0.928619 1.04012,-0.07058 1.23805,2.994565 0.21347,3.305786 0.16956,3.045788 0.48175,2.852845 0.13573,-0.08389 0.38476,-0.835053 0.5534,-1.66926 0.3771,-1.865451 0.96691,-2.898187 1.40499,-2.460105 0.34734,0.347338 0.42276,5.225638 0.11207,7.248554 -0.14861,0.967562 -0.11646,1.252204 0.13229,1.171499 0.43155,-0.140011 1.15595,-2.338422 1.37386,-4.169397 0.30463,-2.559706 0.35988,-2.696001 1.01407,-2.501703 2.04011,0.605935 5.80408,2.707336 9.54821,5.330721 0.45533,0.319033 0.91817,0.586924 1.02855,0.595313 0.24512,0.01863 -0.36145,-1.105726 -0.72985,-1.352865 -1.41074,-0.946376 -6.43693,-4.816531 -7.74781,-5.965798 -2.39794,-2.10231 -2.97426,-3.490755 -1.45692,-3.50995 0.49969,-0.0063 5.56551,2.716126 7.57179,4.069189 0.99366,0.670135 1.91639,1.218426 2.05052,1.218426 0.34061,0 0.30386,-0.353958 -0.0868,-0.836446 -0.38481,-0.475203 -3.66832,-3.04719 -4.82865,-3.782297 -0.43656,-0.276578 -1.47835,-1.154567 -2.3151,-1.951087 -2.69907,-2.569318 -1.67101,-3.215635 2.16454,-1.360805 1.21148,0.585859 2.90335,1.556679 3.7597,2.157378 0.85636,0.600699 1.61782,1.031369 1.69215,0.957046 0.31734,-0.31735 -0.28242,-0.961133 -2.16839,-2.327539 -3.75102,-2.717644 -5.11727,-4.191707 -5.11727,-5.521061 0,-0.286142 0.14571,-0.5688288 0.32381,-0.6281934 0.3717,-0.1239015 4.20058,1.8092204 5.90185,2.9797234 0.63015,0.433555 1.21663,0.788282 1.30328,0.788282 0.50526,0 -0.90168,-1.783672 -2.20573,-2.796364 -1.51342,-1.1752753 -2.41824,-2.1905168 -2.75205,-3.0879183 -0.12819,-0.344606 0.003,-0.5040203 0.52134,-0.6341476 0.50721,-0.1273025 1.10128,0.050868 2.2197,0.6657223 2.08724,1.1474656 2.24417,0.6445942 0.40165,-1.2870888 -2.01487,-2.1123821 -2.00622,-2.8330591 0.0238,-1.9848554 0.527,0.2201914 1.0082,0.3503184 1.06935,0.2891711 0.0611,-0.061147 -0.0762,-0.4735163 -0.30521,-0.9163755 -0.5329,-1.0305205 -0.55306,-2.4189769 -0.0351,-2.4189769 0.20969,0 0.4667,0.1382573 0.57114,0.3072384 0.10672,0.1726794 0.35004,-0.3198008 0.55557,-1.12447911 0.38605,-1.51143019 0.90497,-2.26833899 1.36163,-1.98610689 0.151,0.093325 0.35682,1.00454173 0.45736,2.0249256 0.16976,1.7227779 0.21486,1.8262462 0.63157,1.4491244 0.24682,-0.2233655 0.52868,-0.4061191 0.62636,-0.4061191 0.38273,0 0.14716,1.0293835 -0.43053,1.8813073 -0.62906,0.9276842 -1.04668,1.8228592 -0.85041,1.8228592 0.0618,0 0.71813,-0.3571875 1.45855,-0.7937499 1.55821,-0.9187536 1.85208,-0.9700768 1.85208,-0.3234548 0,0.610189 -0.57907,1.451438 -2.19077,3.1826904 -0.71889,0.7722151 -1.25424,1.4568689 -1.18965,1.5214531 0.0646,0.064584 1.07935,-0.3723034 2.25505,-0.9708612 2.18083,-1.1102831 2.71287,-1.1483084 2.71287,-0.1938901 0,0.582767 -0.78864,2.0757289 -1.09648,2.0757289 -0.10375,0 -0.34597,0.1505406 -0.53827,0.3345349 -0.19229,0.183994 -0.84437,0.720852 -1.44906,1.193019 -0.60468,0.472166 -1.2242,1.216413 -1.3767,1.653882 l -0.27728,0.795397 0.88386,-0.674151 c 1.0911,-0.832227 5.15077,-3.038099 5.59129,-3.038099 0.4655,0 0.66632,0.702881 0.39752,1.391361 -0.2978,0.762762 -1.4955,1.866159 -4.03938,3.721328 -1.89657,1.383112 -2.59342,2.134343 -2.59342,2.795819 0,0.148709 1.05663,-0.436389 2.34807,-1.300217 2.94402,-1.969225 5.41412,-3.243443 6.0368,-3.114132 0.68695,0.142657 0.4926,1.216958 -0.38863,2.148251 -0.8389,0.886561 -4.86943,4.242814 -6.2513,5.205507 -0.94859,0.660843 -1.8901,1.795114 -1.6715,2.013715 0.0636,0.06365 1.23568,-0.588189 2.60452,-1.448523 1.36884,-0.860333 3.26105,-1.885437 4.2049,-2.278009 0.94386,-0.392573 2.04407,-0.87331 2.44492,-1.068305 0.65756,-0.319869 0.75642,-0.302982 1.011,0.172702 0.32407,0.605547 -0.15337,1.512424 -1.31534,2.498378 -0.37898,0.321578 -0.98672,0.846575 -1.35052,1.166659 -0.3638,0.320085 -2.23011,1.768379 -4.14735,3.218432 -3.27645,2.478045 -4.57061,3.74132 -4.11794,4.019635 0.10752,0.06611 1.37273,-0.748141 2.81156,-1.809441 2.34338,-1.728503 5.87597,-3.698617 8.32244,-4.641396 0.92208,-0.355337 1.35038,-0.118908 1.36057,0.751049 0.006,0.509602 1.55135,5.14435 1.86963,5.607186 0.1925,0.279934 0.21123,0.0071 0.0636,-0.926041 -0.11515,-0.727604 -0.20936,-2.607318 -0.20936,-4.177141 0,-2.24933 0.0841,-2.907329 0.39688,-3.104802 0.6449,-0.40718 0.7249,-0.319822 0.91393,0.998089 0.22888,1.595642 0.70404,3.241146 0.93593,3.241146 0.22987,0 0.27673,-0.436101 0.34386,-3.199833 0.0363,-1.494373 0.1829,-2.427839 0.42767,-2.723193 0.45509,-0.549147 0.60003,-0.39379 1.20613,1.292818 0.6927,1.927626 0.84398,1.939949 1.00176,0.0816 0.14095,-1.660164 1.02686,-4.18264 1.46897,-4.18264 0.1274,0 0.38881,0.47625 0.58091,1.058333 0.19211,0.582084 0.36599,1.058334 0.3864,1.058334 0.0204,0 0.72114,-0.662533 1.55717,-1.472294 1.65369,-1.601729 2.36882,-1.763511 2.50664,-0.567074 0.0586,0.508354 -0.19933,1.129405 -0.83828,2.018773 l -0.92285,1.284541 0.83828,-0.03666 c 0.50695,-0.02217 0.83827,0.092 0.83827,0.288868 0,0.334654 -1.84035,1.394263 -2.42158,1.394263 -0.66707,0 -0.55566,0.419041 0.12555,0.472215 0.84928,0.06629 2.16374,0.575428 2.16374,0.838092 0,0.376427 -1.24174,0.835062 -3.49659,1.291467 -1.26828,0.256712 -2.38945,0.550238 -2.49149,0.652279 -0.10204,0.102042 0.81658,0.187354 2.04138,0.189582 1.2248,0.0022 2.4055,0.123434 2.62378,0.269346 0.69546,0.464884 -0.75044,1.445819 -2.67577,1.815315 -1.98222,0.380414 -3.66171,0.852519 -3.79533,1.066868 -0.052,0.08344 1.1034,0.113643 2.56758,0.06712 4.05554,-0.128871 4.72847,0.19339 2.91133,1.394218 -0.71339,0.471437 -1.74454,0.768491 -3.66973,1.057176 -1.47264,0.220827 -2.87163,0.475983 -3.10885,0.567013 -1.00091,0.384085 -0.27705,0.608295 2.01608,0.624468 2.28728,0.01613 4.27229,0.295081 4.6275,0.650294 0.31003,0.310024 -0.82034,1.204336 -2.01278,1.592455 -0.67411,0.21941 -2.35767,0.511396 -3.74125,0.648857 -2.4341,0.241833 -4.07168,0.706813 -3.83545,1.08905 0.0631,0.102035 0.98207,0.204494 2.04223,0.227689 1.06016,0.02319 2.84707,0.115986 3.9709,0.206206 1.7423,0.139868 2.06846,0.243181 2.21385,0.701263 0.12129,0.382161 -0.008,0.671741 -0.44731,1.003245 -0.84128,0.634582 -1.59303,0.759502 -6.19112,1.028789 -4.1403,0.242477 -4.76889,0.358095 -4.9832,0.916574 -0.0965,0.251424 0.35183,0.347464 1.76548,0.378213 5.16248,0.11229 8.2894,0.684508 8.03435,1.470263 -0.31087,0.957746 -3.70161,1.536471 -8.42825,1.438516 -2.42051,-0.05016 -3.46018,0.02454 -3.75578,0.26987 -0.38403,0.318716 -2.02531,2.726301 -2.02531,2.970915 0,0.06187 1.63711,0.114756 3.63802,0.117529 3.02588,0.0042 4.12797,0.123812 6.54982,0.710907 5.66484,1.37325 8.18121,2.472558 7.51029,3.280972 -0.34656,0.417572 -16.27655,0.577463 -36.06471,0.361986 z"
       id="path18512" />
    <path
       style="fill:#9e9327"
       d="m 172.28344,50.421911 c -0.2528,-0.3046 -0.19412,-0.454777 0.29833,-0.76358 1.0428,-0.653906 3.91541,-1.463644 7.09531,-2.000041 4.33773,-0.731703 5.17349,-0.828971 7.47448,-0.8699 1.12779,-0.02006 2.05052,-0.135188 2.05052,-0.255838 0,-0.120651 -0.38434,-0.998757 -0.85408,-1.951348 l -0.85408,-1.731983 -2.91623,0.1597 c -3.51505,0.192493 -6.95551,-0.286618 -8.29257,-1.154807 l -0.61384,-0.39858 0.87161,-0.366485 c 1.5288,-0.64281 3.07322,-0.875762 6.05165,-0.912797 1.59686,-0.01986 2.90337,-0.08388 2.90337,-0.142283 0,-0.0584 -0.32742,-0.394365 -0.7276,-0.746589 -0.69375,-0.61061 -0.89995,-0.641065 -4.43177,-0.654578 -2.99604,-0.01146 -3.90649,-0.106206 -4.7625,-0.495597 -3.19245,-1.452215 -1.62635,-2.263645 4.22835,-2.190791 l 3.4346,0.04274 -0.56849,-0.568488 c -0.47809,-0.478092 -1.10837,-0.621065 -3.96377,-0.899141 -3.21236,-0.312839 -5.28384,-0.819046 -6.09019,-1.488252 -0.76736,-0.636858 0.59309,-1.056104 4.02067,-1.239034 2.69708,-0.143942 3.24665,-0.240914 3.06087,-0.540089 -0.14268,-0.229754 -1.0938,-0.456601 -2.57112,-0.613224 -4.17635,-0.44277 -6.26019,-1.305417 -5.35062,-2.214992 0.26393,-0.263925 1.14592,-0.422381 2.7554,-0.495028 1.30197,-0.05877 2.48628,-0.125905 2.6318,-0.149197 0.48803,-0.07811 -1.31422,-0.769108 -2.0375,-0.781187 -2.21408,-0.03698 -4.94028,-1.193826 -4.3125,-1.82999 0.14552,-0.147465 1.01389,-0.294704 1.9297,-0.327197 0.91582,-0.03249 1.72652,-0.158416 1.80156,-0.279829 0.075,-0.121413 0.0917,-0.220751 0.0371,-0.220751 -0.49517,0 -3.39909,-0.614736 -3.97905,-0.842333 -1.08732,-0.426699 -0.81095,-1.085867 0.59795,-1.426157 l 1.17631,-0.284116 -1.29268,-0.641926 c -1.44304,-0.71659 -1.79787,-1.26497 -0.96023,-1.484016 0.30637,-0.08012 0.55704,-0.199628 0.55704,-0.265577 0,-0.06595 -0.37514,-0.665146 -0.83363,-1.331549 -0.6398,-0.929908 -0.77006,-1.310123 -0.56022,-1.635172 0.41428,-0.641745 1.15833,-0.383362 2.21701,0.769891 0.9932,1.081926 1.2935,1.109274 1.2935,0.117796 0,-0.529317 0.6797,-1.402742 0.8953,-1.150482 0.0712,0.08326 0.74056,2.267942 1.08573,3.543433 0.0394,0.14552 0.21971,-0.302988 0.40074,-0.996685 0.63355,-2.427685 1.34456,-1.676833 1.46564,1.54777 0.0471,1.25372 0.14492,2.338812 0.21743,2.411316 0.12751,0.127513 0.46223,-0.911916 0.91135,-2.83011 0.11959,-0.510727 0.38193,-0.926041 0.58495,-0.926041 0.52087,0 0.7315,0.981484 0.76654,3.571874 0.0301,2.227213 0.34969,3.483209 0.67128,2.638419 0.0815,-0.214203 0.35584,-1.222145 0.60955,-2.239872 0.55239,-2.215855 1.22752,-2.658045 1.45612,-0.953712 0.16887,1.259023 0.0761,4.066611 -0.20423,6.177561 -0.13634,1.026841 -0.11034,1.521354 0.08,1.521354 0.47152,0 1.45168,-2.93624 1.58544,-4.749457 0.0693,-0.938712 0.26312,-1.843967 0.43084,-2.011679 0.44993,-0.449937 4.37912,1.354368 7.36998,3.384339 3.90357,2.649447 3.89834,2.646562 3.89834,2.15181 0,-0.523622 -0.67502,-1.116893 -4.36562,-3.836879 -3.13567,-2.311003 -5.20399,-4.11558 -6.15156,-5.367144 -0.78099,-1.031534 -0.75198,-1.212656 0.19422,-1.212656 1.14912,0 4.57979,1.73074 7.97381,4.02271 1.60137,1.081401 2.08457,1.224831 2.08457,0.618768 0,-0.399305 -2.7605,-2.720737 -4.65118,-3.911389 -1.56397,-0.984911 -4.34465,-3.708119 -4.34465,-4.254856 0,-0.394531 0.15569,-0.441336 0.99218,-0.298284 1.40731,0.240666 3.86952,1.421875 5.9557,2.857153 0.98368,0.676765 1.91514,1.230481 2.06992,1.230481 0.7746,0 -0.12631,-1.087705 -2.14127,-2.585241 -3.78155,-2.810483 -3.95085,-2.962156 -4.49349,-4.025824 -0.50216,-0.984315 -0.48661,-1.8556009 0.0331,-1.8556009 0.43158,0 4.02539,1.8762529 5.45526,2.8480809 0.76402,0.519277 1.45741,0.875861 1.54086,0.792409 0.32208,-0.322076 -0.73408,-1.79948 -1.82099,-2.547295 -1.3637,-0.9382513 -3.09338,-2.7974882 -3.09338,-3.3250856 0,-0.7958311 1.02868,-0.7097998 2.8089,0.2349161 0.97586,0.5178635 1.82428,0.8915771 1.88538,0.8304746 0.21903,-0.2190321 -0.49451,-1.2231171 -1.78938,-2.5179888 -1.85595,-1.8559455 -1.7548,-2.4842875 0.25506,-1.584447 1.57099,0.7033517 1.63884,0.5938804 0.67002,-1.0810638 -0.38989,-0.6740734 -0.53492,-2.1166666 -0.21279,-2.1166666 0.0977,0 0.38105,0.1841176 0.62971,0.4091501 0.41738,0.3777258 0.46553,0.3320035 0.62689,-0.5953125 0.51569,-2.963523 1.49877,-3.3134994 1.79436,-0.63879181 0.21207,1.91894921 0.30437,2.09019431 0.87248,1.61870421 0.22531,-0.1869945 0.48765,-0.2619971 0.58298,-0.1666725 0.15933,0.1593354 -0.13511,0.832983 -1.10981,2.5390616 -0.20506,0.3589287 -0.32631,0.6991231 -0.26945,0.7559877 0.0569,0.056864 0.78561,-0.2661134 1.61943,-0.7177288 0.83381,-0.4516154 1.58145,-0.755695 1.66142,-0.6757325 0.25419,0.2541988 -1.0668,2.462088 -1.73507,2.8999519 -0.62246,0.407857 -1.67255,1.8757698 -1.67456,2.3408744 -5.4e-4,0.125877 0.32644,0.012796 0.72662,-0.2512911 1.20515,-0.7953022 3.20468,-1.6973677 3.7624,-1.6973677 0.44556,0 0.50131,0.1285063 0.373,0.8598958 -0.15541,0.8859349 -1.91513,2.7488823 -3.31296,3.5073103 -0.57115,0.309888 -1.47196,1.885952 -1.22051,2.135407 0.037,0.03674 0.66265,-0.343113 1.39026,-0.844124 1.80138,-1.240389 4.88079,-2.787952 5.17984,-2.603133 0.13426,0.08298 0.24412,0.459938 0.24412,0.837684 0,0.792579 -1.29592,2.131304 -3.64074,3.760996 -2.40132,1.668958 -2.69362,1.952202 -2.95493,2.863324 l -0.24611,0.85813 0.94696,-0.726808 c 2.24542,-1.723405 5.9862,-3.847735 7.40073,-4.202759 0.53279,-0.133722 0.61075,-0.05534 0.61075,0.614055 0,0.558513 -0.30602,1.058568 -1.12448,1.837432 -1.29348,1.230918 -4.11403,3.53839 -5.87006,4.80226 -1.2314,0.886277 -2.19664,2.068171 -1.91724,2.347575 0.0856,0.08565 1.027,-0.438014 2.09188,-1.163704 2.20062,-1.49966 3.77853,-2.332741 6.3884,-3.37285 1.43718,-0.572759 1.86217,-0.651944 2.0312,-0.378458 0.46485,0.752147 -0.9769,2.362857 -4.608,5.148013 -0.56315,0.431958 -1.4103,1.083034 -1.88254,1.446836 -0.47225,0.363802 -1.52898,1.170823 -2.3483,1.79338 -1.49622,1.136907 -2.49311,2.320896 -2.2005,2.613507 0.0864,0.08637 1.33065,-0.686696 2.76507,-1.717927 2.69417,-1.936895 6.28393,-3.975407 8.17634,-4.643086 1.2038,-0.424727 1.67323,-0.209604 1.67323,0.766785 0,0.748408 1.5131,5.192686 1.88663,5.541414 0.21737,0.202935 0.23446,-0.109624 0.0645,-1.179073 -0.39004,-2.453839 -0.29563,-6.859217 0.15294,-7.136173 0.53368,-0.329513 0.80638,-0.09451 0.80638,0.694921 0,0.91032 0.7784,3.530836 1.0488,3.530836 0.39663,0 0.53861,-0.812375 0.54711,-3.130494 0.006,-1.518021 0.13061,-2.454601 0.36982,-2.770046 0.32994,-0.435099 0.40051,-0.36601 0.81073,0.79375 0.9737,2.752736 1.00118,2.772161 1.23581,0.873457 0.22596,-1.828581 1.04638,-4.287955 1.47846,-4.43198 0.1429,-0.04763 0.33194,0.245465 0.42007,0.651332 0.33233,1.530326 0.56907,1.567383 1.80272,0.28218 1.78142,-1.855875 2.86981,-2.222402 2.86981,-0.96644 0,0.516193 -0.44034,1.552003 -0.77332,1.819074 -0.0907,0.07276 -0.38409,0.476181 -0.65193,0.89649 l -0.48699,0.764198 0.67444,-0.128926 c 1.17787,-0.225164 1.34756,0.203294 0.3205,0.809272 -0.52672,0.310777 -1.25131,0.638745 -1.61019,0.728818 -1.00463,0.252146 -1.04458,0.632935 -0.0678,0.646249 0.48153,0.0066 1.23148,0.163705 1.66656,0.349203 l 0.79105,0.337269 -0.65876,0.425937 c -0.36232,0.234264 -1.65027,0.612163 -2.86212,0.839775 -3.17596,0.596514 -3.54913,0.928384 -1.05501,0.938253 2.45356,0.0097 3.6072,0.354378 3.12616,0.933992 -0.36832,0.443804 -2.48115,1.105247 -4.23341,1.325317 -0.65485,0.08224 -1.48828,0.386969 -1.85209,0.67717 l -0.66145,0.527637 3.10348,-0.176171 c 2.76408,-0.156905 3.12217,-0.127481 3.27433,0.269051 0.3616,0.942313 -1.18086,1.639053 -4.73175,2.137366 -1.43591,0.201508 -2.80011,0.522569 -3.03156,0.713468 -0.35441,0.292324 0.13876,0.388838 3.12556,0.611673 2.99719,0.223611 3.55961,0.334131 3.63185,0.713696 0.17721,0.93098 -3.50392,2.062976 -6.7165,2.065418 -0.89154,6.78e-4 -1.59282,0.186788 -2.22729,0.591088 l -0.92604,0.5901 3.57188,0.188041 c 5.07272,0.267054 5.83367,0.502741 4.91186,1.521331 -0.62992,0.696055 -2.42298,1.032485 -6.95644,1.305227 -3.47831,0.209263 -4.57001,0.469137 -4.57001,1.087877 0,0.106027 1.69664,0.27372 3.77031,0.372652 3.81862,0.182181 6.404,0.729153 6.20917,1.313635 -0.0559,0.167685 -0.68703,0.536377 -1.40253,0.819317 -1.10676,0.437661 -1.99191,0.516762 -5.93111,0.530024 -2.54662,0.0086 -4.76364,0.10206 -4.92672,0.207745 -0.16308,0.105685 -0.72884,0.91791 -1.25724,1.804945 l -0.96074,1.612789 3.29597,-0.163244 c 2.80154,-0.138755 3.56566,-0.08617 5.0937,0.350505 0.98876,0.282562 2.92134,0.775203 4.29463,1.094759 4.40145,1.024186 6.53995,2.334745 4.48149,2.746438 -0.45475,0.09095 -11.21533,0.165365 -23.9124,0.165365 -19.71874,0 -23.13146,-0.0553 -23.40025,-0.379174 z"
       id="path18440" />
    <path
       style="fill:#9a7733"
       d="m 172.28344,50.421911 c -0.2528,-0.3046 -0.19412,-0.454777 0.29833,-0.76358 1.0428,-0.653906 3.91541,-1.463644 7.09531,-2.000041 4.33773,-0.731703 5.17349,-0.828971 7.47448,-0.8699 1.12779,-0.02006 2.05052,-0.135188 2.05052,-0.255838 0,-0.120651 -0.38434,-0.998757 -0.85408,-1.951348 l -0.85408,-1.731983 -2.91623,0.1597 c -3.51505,0.192493 -6.95551,-0.286618 -8.29257,-1.154807 l -0.61384,-0.39858 0.87161,-0.366485 c 1.5288,-0.64281 3.07322,-0.875762 6.05165,-0.912797 1.59686,-0.01986 2.90337,-0.08388 2.90337,-0.142283 0,-0.0584 -0.32742,-0.394365 -0.7276,-0.746589 -0.69375,-0.61061 -0.89995,-0.641065 -4.43177,-0.654578 -2.99604,-0.01146 -3.90649,-0.106206 -4.7625,-0.495597 -3.19245,-1.452215 -1.62635,-2.263645 4.22835,-2.190791 l 3.4346,0.04274 -0.56849,-0.568488 c -0.47809,-0.478092 -1.10837,-0.621065 -3.96377,-0.899141 -3.21236,-0.312839 -5.28384,-0.819046 -6.09019,-1.488252 -0.76736,-0.636858 0.59309,-1.056104 4.02067,-1.239034 2.69708,-0.143942 3.24665,-0.240914 3.06087,-0.540089 -0.14268,-0.229754 -1.0938,-0.456601 -2.57112,-0.613224 -4.17635,-0.44277 -6.26019,-1.305417 -5.35062,-2.214992 0.26393,-0.263925 1.14592,-0.422381 2.7554,-0.495028 1.30197,-0.05877 2.48628,-0.125905 2.6318,-0.149197 0.48803,-0.07811 -1.31422,-0.769108 -2.0375,-0.781187 -2.21408,-0.03698 -4.94028,-1.193826 -4.3125,-1.82999 0.14552,-0.147465 1.01389,-0.294704 1.9297,-0.327197 0.91582,-0.03249 1.72652,-0.158416 1.80156,-0.279829 0.075,-0.121413 0.0917,-0.220751 0.0371,-0.220751 -0.49517,0 -3.39909,-0.614736 -3.97905,-0.842333 -1.08732,-0.426699 -0.81095,-1.085867 0.59795,-1.426157 l 1.17631,-0.284116 -1.29268,-0.641926 c -1.44304,-0.71659 -1.79787,-1.26497 -0.96023,-1.484016 0.30637,-0.08012 0.55704,-0.199628 0.55704,-0.265577 0,-0.06595 -0.37514,-0.665146 -0.83363,-1.331549 -0.6398,-0.929908 -0.77006,-1.310123 -0.56022,-1.635172 0.41428,-0.641745 1.15833,-0.383362 2.21701,0.769891 0.9932,1.081926 1.2935,1.109274 1.2935,0.117796 0,-0.529317 0.6797,-1.402742 0.8953,-1.150482 0.0712,0.08326 0.74056,2.267942 1.08573,3.543433 0.0394,0.14552 0.21971,-0.302988 0.40074,-0.996685 0.63355,-2.427685 1.34456,-1.676833 1.46564,1.54777 0.0471,1.25372 0.14492,2.338812 0.21743,2.411316 0.12751,0.127513 0.46223,-0.911916 0.91135,-2.83011 0.11959,-0.510727 0.38193,-0.926041 0.58495,-0.926041 0.52087,0 0.7315,0.981484 0.76654,3.571874 0.0301,2.227213 0.34969,3.483209 0.67128,2.638419 0.0815,-0.214203 0.35584,-1.222145 0.60955,-2.239872 0.55239,-2.215855 1.22752,-2.658045 1.45612,-0.953712 0.16887,1.259023 0.0761,4.066611 -0.20423,6.177561 -0.13634,1.026841 -0.11034,1.521354 0.08,1.521354 0.47152,0 1.45168,-2.93624 1.58544,-4.749457 0.0693,-0.938712 0.26312,-1.843967 0.43084,-2.011679 0.44993,-0.449937 4.37912,1.354368 7.36998,3.384339 3.90357,2.649447 3.89834,2.646562 3.89834,2.15181 0,-0.523622 -0.67502,-1.116893 -4.36562,-3.836879 -3.13567,-2.311003 -5.20399,-4.11558 -6.15156,-5.367144 -0.78099,-1.031534 -0.75198,-1.212656 0.19422,-1.212656 1.14912,0 4.57979,1.73074 7.97381,4.02271 1.60137,1.081401 2.08457,1.224831 2.08457,0.618768 0,-0.399305 -2.7605,-2.720737 -4.65118,-3.911389 -1.56397,-0.984911 -4.34465,-3.708119 -4.34465,-4.254856 0,-0.394531 0.15569,-0.441336 0.99218,-0.298284 1.40731,0.240666 3.86952,1.421875 5.9557,2.857153 0.98368,0.676765 1.91514,1.230481 2.06992,1.230481 0.7746,0 -0.12631,-1.087705 -2.14127,-2.585241 -3.78155,-2.810483 -3.95085,-2.962156 -4.49349,-4.025824 -0.50216,-0.984315 -0.48661,-1.8556009 0.0331,-1.8556009 0.43158,0 4.02539,1.8762529 5.45526,2.8480809 0.76402,0.519277 1.45741,0.875861 1.54086,0.792409 0.32208,-0.322076 -0.73408,-1.79948 -1.82099,-2.547295 -1.3637,-0.9382513 -3.09338,-2.7974882 -3.09338,-3.3250856 0,-0.7958311 1.02868,-0.7097998 2.8089,0.2349161 0.97586,0.5178635 1.82428,0.8915771 1.88538,0.8304746 0.21903,-0.2190321 -0.49451,-1.2231171 -1.78938,-2.5179888 -1.85595,-1.8559455 -1.7548,-2.4842875 0.25506,-1.584447 1.57099,0.7033517 1.63884,0.5938804 0.67002,-1.0810638 -0.38989,-0.6740734 -0.53492,-2.1166666 -0.21279,-2.1166666 0.0977,0 0.38105,0.1841176 0.62971,0.4091501 0.41738,0.3777258 0.46553,0.3320035 0.62689,-0.5953125 0.51569,-2.963523 1.49877,-3.3134994 1.79436,-0.63879181 0.21207,1.91894921 0.30437,2.09019431 0.87248,1.61870421 0.22531,-0.1869945 0.48765,-0.2619971 0.58298,-0.1666725 0.15933,0.1593354 -0.13511,0.832983 -1.10981,2.5390616 -0.20506,0.3589287 -0.32631,0.6991231 -0.26945,0.7559877 0.0569,0.056864 0.78561,-0.2661134 1.61943,-0.7177288 0.83381,-0.4516154 1.58145,-0.755695 1.66142,-0.6757325 0.25419,0.2541988 -1.0668,2.462088 -1.73507,2.8999519 -0.62246,0.407857 -1.67255,1.8757698 -1.67456,2.3408744 -5.4e-4,0.125877 0.32644,0.012796 0.72662,-0.2512911 1.20515,-0.7953022 3.20468,-1.6973677 3.7624,-1.6973677 0.44556,0 0.50131,0.1285063 0.373,0.8598958 -0.15541,0.8859349 -1.91513,2.7488823 -3.31296,3.5073103 -0.57115,0.309888 -1.47196,1.885952 -1.22051,2.135407 0.037,0.03674 0.66265,-0.343113 1.39026,-0.844124 1.80138,-1.240389 4.88079,-2.787952 5.17984,-2.603133 0.13426,0.08298 0.24412,0.459938 0.24412,0.837684 0,0.792579 -1.29592,2.131304 -3.64074,3.760996 -2.40132,1.668958 -2.69362,1.952202 -2.95493,2.863324 l -0.24611,0.85813 0.94696,-0.726808 c 2.24542,-1.723405 5.9862,-3.847735 7.40073,-4.202759 0.53279,-0.133722 0.61075,-0.05534 0.61075,0.614055 0,0.558513 -0.30602,1.058568 -1.12448,1.837432 -1.29348,1.230918 -4.11403,3.53839 -5.87006,4.80226 -1.2314,0.886277 -2.19664,2.068171 -1.91724,2.347575 0.0856,0.08565 1.027,-0.438014 2.09188,-1.163704 2.20062,-1.49966 3.77853,-2.332741 6.3884,-3.37285 1.43718,-0.572759 1.86217,-0.651944 2.0312,-0.378458 0.46485,0.752147 -0.9769,2.362857 -4.608,5.148013 -0.56315,0.431958 -1.4103,1.083034 -1.88254,1.446836 -0.47225,0.363802 -1.52898,1.170823 -2.3483,1.79338 -1.49622,1.136907 -2.49311,2.320896 -2.2005,2.613507 0.0864,0.08637 1.33065,-0.686696 2.76507,-1.717927 2.69417,-1.936895 6.28393,-3.975407 8.17634,-4.643086 1.2038,-0.424727 1.67323,-0.209604 1.67323,0.766785 0,0.748408 1.5131,5.192686 1.88663,5.541414 0.21737,0.202935 0.23446,-0.109624 0.0645,-1.179073 -0.39004,-2.453839 -0.29563,-6.859217 0.15294,-7.136173 0.53368,-0.329513 0.80638,-0.09451 0.80638,0.694921 0,0.91032 0.7784,3.530836 1.0488,3.530836 0.39663,0 0.53861,-0.812375 0.54711,-3.130494 0.006,-1.518021 0.13061,-2.454601 0.36982,-2.770046 0.32994,-0.435099 0.40051,-0.36601 0.81073,0.79375 0.9737,2.752736 1.00118,2.772161 1.23581,0.873457 0.22596,-1.828581 1.04638,-4.287955 1.47846,-4.43198 0.1429,-0.04763 0.33194,0.245465 0.42007,0.651332 0.33233,1.530326 0.56907,1.567383 1.80272,0.28218 1.78142,-1.855875 2.86981,-2.222402 2.86981,-0.96644 0,0.516193 -0.44034,1.552003 -0.77332,1.819074 -0.0907,0.07276 -0.38409,0.476181 -0.65193,0.89649 l -0.48699,0.764198 0.67444,-0.128926 c 1.17787,-0.225164 1.34756,0.203294 0.3205,0.809272 -0.52672,0.310777 -1.25131,0.638745 -1.61019,0.728818 -1.00463,0.252146 -1.04458,0.632935 -0.0678,0.646249 0.48153,0.0066 1.23148,0.163705 1.66656,0.349203 l 0.79105,0.337269 -0.65876,0.425937 c -0.36232,0.234264 -1.65027,0.612163 -2.86212,0.839775 -3.17596,0.596514 -3.54913,0.928384 -1.05501,0.938253 2.45356,0.0097 3.6072,0.354378 3.12616,0.933992 -0.36832,0.443804 -2.48115,1.105247 -4.23341,1.325317 -0.65485,0.08224 -1.48828,0.386969 -1.85209,0.67717 l -0.66145,0.527637 3.10348,-0.176171 c 2.76408,-0.156905 3.12217,-0.127481 3.27433,0.269051 0.3616,0.942313 -1.18086,1.639053 -4.73175,2.137366 -1.43591,0.201508 -2.80011,0.522569 -3.03156,0.713468 -0.35441,0.292324 0.13876,0.388838 3.12556,0.611673 2.99719,0.223611 3.55961,0.334131 3.63185,0.713696 0.17721,0.93098 -3.50392,2.062976 -6.7165,2.065418 -0.89154,6.78e-4 -1.59282,0.186788 -2.22729,0.591088 l -0.92604,0.5901 3.57188,0.188041 c 5.07272,0.267054 5.83367,0.502741 4.91186,1.521331 -0.62992,0.696055 -2.42298,1.032485 -6.95644,1.305227 -3.47831,0.209263 -4.57001,0.469137 -4.57001,1.087877 0,0.106027 1.69664,0.27372 3.77031,0.372652 3.81862,0.182181 6.404,0.729153 6.20917,1.313635 -0.0559,0.167685 -0.68703,0.536377 -1.40253,0.819317 -1.10676,0.437661 -1.99191,0.516762 -5.93111,0.530024 -2.54662,0.0086 -4.76364,0.10206 -4.92672,0.207745 -0.16308,0.105685 -0.72884,0.91791 -1.25724,1.804945 l -0.96074,1.612789 3.29597,-0.163244 c 2.80154,-0.138755 3.56566,-0.08617 5.0937,0.350505 0.98876,0.282562 2.92134,0.775203 4.29463,1.094759 4.40145,1.024186 6.53995,2.334745 4.48149,2.746438 -0.45475,0.09095 -11.21533,0.165365 -23.9124,0.165365 -19.71874,0 -23.13146,-0.0553 -23.40025,-0.379174 z"
       id="path18360" />
    <path
       style="fill:#659127"
       d="m 198.4625,46.8109 c -0.31609,-0.230209 -0.26503,-0.259702 0.25081,-0.144881 0.35623,0.07929 0.82208,3.26e-4 1.03522,-0.175485 0.31284,-0.258053 0.36249,-0.243171 0.25762,0.07722 -0.16165,0.493892 -1.01485,0.628283 -1.54365,0.243146 z"
       id="path17830" />
    <path
       style="fill:#659127"
       d="m 189.20208,46.64762 c 0,-0.183951 -0.38434,-1.113849 -0.85408,-2.06644 l -0.85408,-1.731983 -2.91623,0.1597 c -3.51505,0.192493 -6.95551,-0.286618 -8.29257,-1.154807 l -0.61384,-0.39858 0.87161,-0.366485 c 1.5288,-0.64281 3.07322,-0.875762 6.05165,-0.912797 1.59686,-0.01986 2.90337,-0.08388 2.90337,-0.142283 0,-0.0584 -0.32742,-0.394365 -0.7276,-0.746589 -0.69375,-0.61061 -0.89995,-0.641065 -4.43177,-0.654578 -2.99604,-0.01146 -3.90649,-0.106206 -4.7625,-0.495597 -3.19245,-1.452215 -1.62635,-2.263645 4.22835,-2.190791 l 3.4346,0.04274 -0.56849,-0.568488 c -0.47809,-0.478092 -1.10837,-0.621065 -3.96377,-0.899141 -3.21236,-0.312839 -5.28384,-0.819046 -6.09019,-1.488252 -0.76736,-0.636858 0.59309,-1.056104 4.02067,-1.239034 2.69708,-0.143942 3.24665,-0.240914 3.06087,-0.540089 -0.14268,-0.229754 -1.0938,-0.456601 -2.57112,-0.613224 -4.17635,-0.44277 -6.26019,-1.305417 -5.35062,-2.214992 0.26393,-0.263925 1.14592,-0.422381 2.7554,-0.495028 1.30197,-0.05877 2.48628,-0.125905 2.6318,-0.149197 0.48803,-0.07811 -1.31422,-0.769108 -2.0375,-0.781187 -2.21408,-0.03698 -4.94028,-1.193826 -4.3125,-1.82999 0.14552,-0.147465 1.01389,-0.294704 1.9297,-0.327197 0.91582,-0.03249 1.72652,-0.158416 1.80156,-0.279829 0.075,-0.121413 0.0917,-0.220751 0.0371,-0.220751 -0.49517,0 -3.39909,-0.614736 -3.97905,-0.842333 -1.08732,-0.426699 -0.81095,-1.085867 0.59795,-1.426157 l 1.17631,-0.284116 -1.29268,-0.641926 c -1.44304,-0.71659 -1.79787,-1.26497 -0.96023,-1.484016 0.30637,-0.08012 0.55704,-0.199628 0.55704,-0.265577 0,-0.06595 -0.37514,-0.665146 -0.83363,-1.331549 -0.6398,-0.929908 -0.77006,-1.310123 -0.56022,-1.635172 0.41428,-0.641745 1.15833,-0.383362 2.21701,0.769891 0.9932,1.081926 1.2935,1.109274 1.2935,0.117796 0,-0.529317 0.6797,-1.402742 0.8953,-1.150482 0.0712,0.08326 0.74056,2.267942 1.08573,3.543433 0.0394,0.14552 0.21971,-0.302988 0.40074,-0.996685 0.63355,-2.427685 1.34456,-1.676833 1.46564,1.54777 0.0471,1.25372 0.14492,2.338812 0.21743,2.411316 0.12751,0.127513 0.46223,-0.911916 0.91135,-2.83011 0.11959,-0.510727 0.38193,-0.926041 0.58495,-0.926041 0.52087,0 0.7315,0.981484 0.76654,3.571874 0.0301,2.227213 0.34969,3.483209 0.67128,2.638419 0.0815,-0.214203 0.35584,-1.222145 0.60955,-2.239872 0.55239,-2.215855 1.22752,-2.658045 1.45612,-0.953712 0.16887,1.259023 0.0761,4.066611 -0.20423,6.177561 -0.13634,1.026841 -0.11034,1.521354 0.08,1.521354 0.47152,0 1.45168,-2.93624 1.58544,-4.749457 0.0693,-0.938712 0.26312,-1.843967 0.43084,-2.011679 0.44993,-0.449937 4.37912,1.354368 7.36998,3.384339 3.90357,2.649447 3.89834,2.646562 3.89834,2.15181 0,-0.523622 -0.67502,-1.116893 -4.36562,-3.836879 -3.13567,-2.311003 -5.20399,-4.11558 -6.15156,-5.367144 -0.78099,-1.031534 -0.75198,-1.212656 0.19422,-1.212656 1.14912,0 4.57979,1.73074 7.97381,4.02271 1.60137,1.081401 2.08457,1.224831 2.08457,0.618768 0,-0.399305 -2.7605,-2.720737 -4.65118,-3.911389 -1.56397,-0.984911 -4.34465,-3.708119 -4.34465,-4.254856 0,-0.394531 0.15569,-0.441336 0.99218,-0.298284 1.40731,0.240666 3.86952,1.421875 5.9557,2.857153 0.98368,0.676765 1.91514,1.230481 2.06992,1.230481 0.7746,0 -0.12631,-1.087705 -2.14127,-2.585241 -3.78155,-2.810483 -3.95085,-2.962156 -4.49349,-4.025824 -0.50216,-0.984315 -0.48661,-1.8556009 0.0331,-1.8556009 0.43158,0 4.02539,1.8762529 5.45526,2.8480809 0.76402,0.519277 1.45741,0.875861 1.54086,0.792409 0.32208,-0.322076 -0.73408,-1.79948 -1.82099,-2.547295 -1.3637,-0.9382513 -3.09338,-2.7974882 -3.09338,-3.3250856 0,-0.7958311 1.02868,-0.7097998 2.8089,0.2349161 0.97586,0.5178635 1.82428,0.8915771 1.88538,0.8304746 0.21903,-0.2190321 -0.49451,-1.2231171 -1.78938,-2.5179888 -1.85595,-1.8559455 -1.7548,-2.4842875 0.25506,-1.584447 1.57099,0.7033517 1.63884,0.5938804 0.67002,-1.0810638 -0.38989,-0.6740734 -0.53492,-2.1166666 -0.21279,-2.1166666 0.0977,0 0.38105,0.1841176 0.62971,0.4091501 0.41738,0.3777258 0.46553,0.3320035 0.62689,-0.5953125 0.51569,-2.963523 1.49877,-3.3134994 1.79436,-0.63879181 0.21207,1.91894921 0.30437,2.09019431 0.87248,1.61870421 0.22531,-0.1869945 0.48765,-0.2619971 0.58298,-0.1666725 0.15933,0.1593354 -0.13511,0.832983 -1.10981,2.5390616 -0.20506,0.3589287 -0.32631,0.6991231 -0.26945,0.7559877 0.0569,0.056864 0.78561,-0.2661134 1.61943,-0.7177288 0.83381,-0.4516154 1.58145,-0.755695 1.66142,-0.6757325 0.25419,0.2541988 -1.0668,2.462088 -1.73507,2.8999519 -0.62246,0.407857 -1.67255,1.8757698 -1.67456,2.3408744 -5.4e-4,0.125877 0.32644,0.012796 0.72662,-0.2512911 1.20515,-0.7953022 3.20468,-1.6973677 3.7624,-1.6973677 0.44556,0 0.50131,0.1285063 0.373,0.8598958 -0.15541,0.8859349 -1.91513,2.7488823 -3.31296,3.5073103 -0.57115,0.309888 -1.47196,1.885952 -1.22051,2.135407 0.037,0.03674 0.66265,-0.343113 1.39026,-0.844124 1.80138,-1.240389 4.88079,-2.787952 5.17984,-2.603133 0.13426,0.08298 0.24412,0.459938 0.24412,0.837684 0,0.792579 -1.29592,2.131304 -3.64074,3.760996 -2.40132,1.668958 -2.69362,1.952202 -2.95493,2.863324 l -0.24611,0.85813 0.94696,-0.726808 c 2.24542,-1.723405 5.9862,-3.847735 7.40073,-4.202759 0.53279,-0.133722 0.61075,-0.05534 0.61075,0.614055 0,0.558513 -0.30602,1.058568 -1.12448,1.837432 -1.29348,1.230918 -4.11403,3.53839 -5.87006,4.80226 -1.2314,0.886277 -2.19664,2.068171 -1.91724,2.347575 0.0856,0.08565 1.027,-0.438014 2.09188,-1.163704 2.20062,-1.49966 3.77853,-2.332741 6.3884,-3.37285 1.43718,-0.572759 1.86217,-0.651944 2.0312,-0.378458 0.46485,0.752147 -0.9769,2.362857 -4.608,5.148013 -0.56315,0.431958 -1.4103,1.083034 -1.88254,1.446836 -0.47225,0.363802 -1.52898,1.170823 -2.3483,1.79338 -1.49622,1.136907 -2.49311,2.320896 -2.2005,2.613507 0.0864,0.08637 1.33065,-0.686696 2.76507,-1.717927 2.69417,-1.936895 6.28393,-3.975407 8.17634,-4.643086 1.2038,-0.424727 1.67323,-0.209604 1.67323,0.766785 0,0.748408 1.5131,5.192686 1.88663,5.541414 0.21737,0.202935 0.23446,-0.109624 0.0645,-1.179073 -0.39004,-2.453839 -0.29563,-6.859217 0.15294,-7.136173 0.53368,-0.329513 0.80638,-0.09451 0.80638,0.694921 0,0.91032 0.7784,3.530836 1.0488,3.530836 0.39663,0 0.53861,-0.812375 0.54711,-3.130494 0.006,-1.518021 0.13061,-2.454601 0.36982,-2.770046 0.32994,-0.435099 0.40051,-0.36601 0.81073,0.79375 0.9737,2.752736 1.00118,2.772161 1.23581,0.873457 0.22596,-1.828581 1.04638,-4.287955 1.47846,-4.43198 0.1429,-0.04763 0.33194,0.245465 0.42007,0.651332 0.33233,1.530326 0.56907,1.567383 1.80272,0.28218 1.78142,-1.855875 2.86981,-2.222402 2.86981,-0.96644 0,0.516193 -0.44034,1.552003 -0.77332,1.819074 -0.0907,0.07276 -0.38409,0.476181 -0.65193,0.89649 l -0.48699,0.764198 0.67444,-0.128926 c 1.17787,-0.225164 1.34756,0.203294 0.3205,0.809272 -0.52672,0.310777 -1.25131,0.638745 -1.61019,0.728818 -1.00463,0.252146 -1.04458,0.632935 -0.0678,0.646249 0.48153,0.0066 1.23148,0.163705 1.66656,0.349203 l 0.79105,0.337269 -0.65876,0.425937 c -0.36232,0.234264 -1.65027,0.612163 -2.86212,0.839775 -3.17596,0.596514 -3.54913,0.928384 -1.05501,0.938253 2.45356,0.0097 3.6072,0.354378 3.12616,0.933992 -0.36832,0.443804 -2.48115,1.105247 -4.23341,1.325317 -0.65485,0.08224 -1.48828,0.386969 -1.85209,0.67717 l -0.66145,0.527637 3.10348,-0.176171 c 2.76408,-0.156905 3.12217,-0.127481 3.27433,0.269051 0.3616,0.942313 -1.18086,1.639053 -4.73175,2.137366 -1.43591,0.201508 -2.80011,0.522569 -3.03156,0.713468 -0.35441,0.292324 0.13876,0.388838 3.12556,0.611673 2.99719,0.223611 3.55961,0.334131 3.63185,0.713696 0.17721,0.93098 -3.50392,2.062976 -6.7165,2.065418 -0.89154,6.78e-4 -1.59282,0.186788 -2.22729,0.591088 l -0.92604,0.5901 3.57188,0.188041 c 5.07272,0.267054 5.83367,0.502741 4.91186,1.521331 -0.62992,0.696055 -2.42298,1.032485 -6.95644,1.305227 -3.47831,0.209263 -4.57001,0.469137 -4.57001,1.087877 0,0.106027 1.69664,0.27372 3.77031,0.372652 3.81862,0.182181 6.404,0.729153 6.20917,1.313635 -0.0559,0.167685 -0.68703,0.536377 -1.40253,0.819317 -1.10676,0.437661 -1.99191,0.516762 -5.93111,0.530024 -2.54662,0.0086 -4.76364,0.10206 -4.92672,0.207745 -0.16308,0.105685 -0.72355,0.909021 -1.24548,1.785189 -0.91765,1.540474 -0.92969,1.593911 -0.36495,1.619612 0.33343,0.01517 0.1299,0.133351 -0.47431,0.275417 -0.58209,0.136861 -6.08533,0.100762 -6.08533,0.100762 -0.58208,0.08462 -1.71318,0.04254 -2.51354,-0.09352 l -1.45521,-0.24738 1.25677,-0.03093 1.25677,-0.03093 -2.90697,0.264583 -0.72932,0.0215 c -0.40113,0.01182 -1.05675,0.04552 -1.45694,0.07488 -0.43817,0.03215 -0.7276,-0.07965 -0.7276,-0.281069 z"
       id="path17824"
       sodipodi:nodetypes="cscsscssssssscsscscssssssscssscsssccssccccccsccsscsccsssssssssssssssscsssssscsscsscscsccssscsccsssscssscscsscssscsssscssscscsscsssscssscscsssssccssssscsscssssssscssssssccccsscc" />
  </g>
</svg>
