<?xml version="1.0" encoding="UTF-8" standalone="no"?>
<!-- Created with Inkscape (http://www.inkscape.org/) -->

<svg
   width="185"
   height="185"
   viewBox="0 0 48.947914 48.947918"
   version="1.1"
   id="svg1"
   xmlns="http://www.w3.org/2000/svg"
   xmlns:svg="http://www.w3.org/2000/svg">
  <defs
     id="defs1" />
  <g
     id="layer1">
    <g
       id="g765"
       style="display:inline"
       transform="translate(-3.0907802,-163.34891)">
      <path
         style="fill:#e99015"
         d="m 18.491527,211.87668 c -5.64834,-0.74318 -9.9401262,-2.40431 -13.1335184,-5.08331 -3.0679921,-2.5738 -2.6349783,-3.12089 2.776252,-3.50762 3.1085974,-0.22217 5.6918634,-0.0724 7.0226274,0.40725 0.291041,0.10489 -0.368944,-0.68815 -1.466634,-1.76232 -2.278542,-2.2297 -3.551908,-3.78363 -4.5920586,-5.60384 -0.9081273,-1.58917 -1.7465157,-3.99443 -1.7465157,-5.01058 0,-0.73114 0.046932,-0.76403 0.8598958,-0.60257 3.1476915,0.62517 6.7793575,2.45121 8.4005205,4.22386 0.363802,0.3978 1.649399,1.36816 2.856883,2.15637 3.581177,2.33768 5.628119,4.74581 6.721359,7.90737 0.448836,1.29799 0.458834,1.08327 0.467286,-10.03652 l 0.0086,-11.36288 -0.65405,1.3125 c -0.712958,1.43072 -2.582072,3.39667 -3.486547,3.66717 -0.425854,0.12736 -0.714191,-0.0148 -1.147794,-0.56608 -0.517976,-0.6585 -0.569632,-0.99042 -0.48961,-3.14598 l 0.08946,-2.40982 -1.017734,0.53079 c -0.559754,0.29194 -2.018269,0.73524 -3.241146,0.98512 -2.554707,0.52202 -2.609124,0.47324 -1.70179,-1.52564 1.292797,-2.84806 3.953095,-5.38805 6.644386,-6.34392 1.060102,-0.37651 1.300659,-0.57748 1.300659,-1.08661 0,-1.60403 2.242845,-3.20311 4.507999,-3.21407 2.229211,-0.0108 4.752417,1.88449 4.752417,3.56974 0,0.47433 0.294237,0.69416 1.534325,1.14632 3.049499,1.1119 6.118385,3.83764 7.507878,6.66839 l 0.707829,1.44203 -0.783185,0.0836 c -1.771912,0.18914 -5.716232,-0.95635 -6.916327,-2.00859 -0.563623,-0.49418 -0.568258,-0.42418 -0.06614,0.99896 0.4778,1.35423 0.506088,4.39985 0.04852,5.22354 l -0.329608,0.59335 -0.991253,-0.81708 c -1.281642,-1.05644 -3.083719,-3.71291 -3.66097,-5.39669 -0.440866,-1.28596 -0.453469,-0.98294 -0.451201,10.84792 0.0013,6.69395 0.06055,11.99224 0.131693,11.77395 1.112717,-3.41382 3.756072,-7.02095 6.177519,-8.42985 0.66005,-0.38405 1.791786,-1.35311 2.51497,-2.15348 0.723183,-0.80036 0.989716,-1.167 0.592295,-0.81475 -0.397421,0.35225 -0.7863,0.57673 -0.864175,0.49886 -0.124126,-0.12413 1.112372,-1.09269 1.462422,-1.14553 0.07276,-0.011 0.965729,-0.44682 1.984375,-0.96851 2.168866,-1.11077 5.111567,-2.06798 6.357482,-2.06798 h 0.877785 l -0.531952,1.87973 c -0.867984,3.06717 -2.63082,5.77983 -5.774386,8.88563 l -2.150993,2.12516 1.404782,-0.22411 c 1.783629,-0.28454 6.71545,-0.33043 8.901651,-0.0828 2.138532,0.2422 2.357229,0.67881 0.948977,1.89451 -2.934467,2.53325 -4.48331,3.3553 -10.250672,5.44059 l -3.751424,1.35639 -7.805208,0.057 c -5.392148,0.0394 -8.655639,-0.0549 -10.555985,-0.30494 z"
         id="path69" />
      <path
         style="fill:#d35b0f"
         d="m 18.732597,211.8669 c -3.480028,-0.43278 -6.96689,-1.36806 -9.4181972,-2.52624 -2.7776491,-1.31238 -5.9314699,-3.9044 -5.9314699,-4.87488 0,-1.16212 9.0756301,-1.75961 11.7739581,-0.77514 0.291041,0.10619 -0.368944,-0.68579 -1.466634,-1.75996 -3.243438,-3.17392 -4.8250243,-5.44186 -5.8280625,-8.35724 -0.5901386,-1.71527 -0.6492926,-2.6334 -0.1797826,-2.79041 0.6048332,-0.20226 3.8004771,0.7748 5.5065991,1.68363 0.925545,0.49303 2.342263,1.50339 3.148261,2.24525 0.805999,0.74186 2.262036,1.84938 3.235639,2.46117 2.906873,1.82659 6.01067,5.67433 6.744304,8.36083 0.126439,0.46301 0.271882,-3.94686 0.34905,-10.58333 0.07276,-6.2574 0.043,-11.4902 -0.06615,-11.62844 -0.10914,-0.13824 -0.198437,-0.003 -0.198437,0.30058 0,0.7234 -1.957242,3.64156 -2.863071,4.26871 -0.883783,0.61189 -1.648695,0.89821 -1.565526,0.58601 0.03463,-0.13001 -0.157278,-0.40072 -0.426473,-0.60156 -0.642733,-0.47955 -0.925149,-3.51979 -0.436538,-4.6994 0.399956,-0.96558 0.184125,-1.30538 -0.461457,-0.72652 -0.589804,0.52885 -3.253455,1.40554 -4.913375,1.61715 -1.22796,0.15653 -1.266992,0.14107 -1.08617,-0.43021 0.953555,-3.01262 3.549135,-5.88181 6.519976,-7.20727 1.328061,-0.59252 1.780878,-0.92773 1.786927,-1.3228 0.02524,-1.64881 2.228746,-3.29004 4.43254,-3.30148 2.40808,-0.0125 4.834,1.86342 4.834,3.73805 0,0.54631 0.129617,0.75405 0.470485,0.75405 1.166822,0 4.407394,1.90599 5.98563,3.52053 1.319369,1.34972 3.068884,4.09375 3.068884,4.8134 0,0.18846 -1.843489,-0.0288 -3.93338,-0.46361 -0.780911,-0.16246 -2.050235,-0.67499 -2.82072,-1.13895 l -1.400882,-0.84357 0.412032,1.091 c 0.530543,1.40479 0.608662,5.29042 0.11608,5.7738 -0.289394,0.28399 -0.613715,0.0647 -1.852083,-1.25228 -1.941052,-2.06428 -2.932307,-3.92372 -3.20341,-6.00911 -0.131363,-1.01048 -0.222814,3.44446 -0.234883,11.44213 l -0.01976,13.09687 0.55453,-1.45521 c 1.101019,-2.88931 3.668427,-6.20766 5.542648,-7.16382 0.544038,-0.27754 1.804496,-1.32483 2.801017,-2.3273 1.076296,-1.08272 2.451871,-2.14543 3.388357,-2.61769 1.945902,-0.98132 4.90976,-1.9141 6.081899,-1.9141 h 0.877785 l -0.536001,1.89404 c -0.917135,3.24086 -3.600152,7.1303 -6.746056,9.77944 -0.753339,0.63438 -1.348651,1.17239 -1.322917,1.19558 0.02573,0.0232 0.701634,-0.0645 1.501998,-0.19482 1.738985,-0.28317 7.900326,-0.30197 9.392708,-0.0287 0.799759,0.14647 1.078011,0.33094 1.138875,0.75501 0.06224,0.43369 -0.410022,0.93082 -2.078845,2.18832 -2.718185,2.04821 -3.163457,2.26993 -8.320446,4.14304 l -4.233333,1.53762 -7.540625,0.0628 c -5.288565,0.0441 -8.448205,-0.05 -10.579498,-0.31506 z m 14.283665,-24.72153 c 0,-0.14552 -0.12609,-0.26458 -0.280199,-0.26458 -0.154109,0 -0.206613,0.11906 -0.116676,0.26458 0.08994,0.14552 0.216026,0.26458 0.280198,0.26458 0.06417,0 0.116677,-0.11906 0.116677,-0.26458 z m 7.601258,-3.07027 c -0.08792,-0.0879 -0.316122,-0.0973 -0.507118,-0.0209 -0.211067,0.0845 -0.148372,0.14716 0.159852,0.15985 0.278915,0.0115 0.435185,-0.051 0.347266,-0.13896 z m -4.361761,-1.07426 c -0.182808,-0.0737 -0.280688,-0.21764 -0.217512,-0.31986 0.06318,-0.10222 -0.203973,-0.20997 -0.593664,-0.23946 l -0.70853,-0.0536 0.661459,0.36841 c 0.363802,0.20262 0.78052,0.37068 0.926041,0.37346 0.145521,0.003 0.115014,-0.0553 -0.06779,-0.12895 z m -19.37908,-0.75026 c 0,-0.21828 -0.04679,-0.39688 -0.103984,-0.39688 -0.05719,0 -0.172517,0.1786 -0.256279,0.39688 -0.08376,0.21828 -0.03697,0.39687 0.103984,0.39687 0.140953,0 0.256279,-0.17859 0.256279,-0.39687 z m 16.247544,-1.85209 c -0.238372,-0.3638 -0.486269,-0.66145 -0.550881,-0.66145 -0.129664,0 0.119853,0.4793 0.516512,0.99218 0.455572,0.58906 0.480412,0.35002 0.03437,-0.33073 z m -6.193378,-1.98437 c -0.363802,-0.11651 -0.959114,-0.21184 -1.322916,-0.21184 H 24.94647 l 0.661459,0.21184 c 0.363802,0.11651 0.959114,0.21184 1.322916,0.21184 h 0.661459 z m -4.038526,-1.89153 c 0.03022,-0.40119 -0.0399,-0.48588 -0.238142,-0.28764 -0.154536,0.15454 -0.200978,0.41042 -0.103204,0.56862 0.248725,0.40244 0.292585,0.36634 0.341346,-0.28098 z"
         id="path83" />
      <path
         style="fill:#346d34"
         d="m 18.732597,211.8669 c -3.480028,-0.43278 -6.96689,-1.36806 -9.4181972,-2.52624 -2.7776491,-1.31238 -5.9314699,-3.9044 -5.9314699,-4.87488 0,-1.16212 9.0756301,-1.75961 11.7739581,-0.77514 0.291041,0.10619 -0.368944,-0.68579 -1.466634,-1.75996 -3.243438,-3.17392 -4.8250243,-5.44186 -5.8280625,-8.35724 -0.5901386,-1.71527 -0.6492926,-2.6334 -0.1797826,-2.79041 0.6048332,-0.20226 3.8004771,0.7748 5.5065991,1.68363 0.925545,0.49303 2.342263,1.50339 3.148261,2.24525 0.805999,0.74186 2.262036,1.84938 3.235639,2.46117 2.891983,1.81723 5.992784,5.66562 6.742936,8.36861 0.128159,0.46179 0.277994,-4.0157 0.363275,-10.8557 0.136907,-10.98066 0.176602,-11.72429 0.699113,-13.09687 0.640733,-1.68314 0.992575,-3.175 0.748797,-3.175 -0.950377,0 -4.106242,-0.6598 -4.569621,-0.95538 -0.480143,-0.30627 -0.595121,-0.62169 -0.594323,-1.63041 0.0019,-2.38484 1.823477,-4.01334 4.496927,-4.02025 1.301621,-0.003 3.571875,0.96646 3.571875,1.52585 0,0.18535 0.121486,0.42194 0.269969,0.52578 0.148482,0.10383 0.413605,0.51573 0.589162,0.91534 0.567358,1.29143 -0.355754,2.71346 -2.094774,3.22693 -1.083513,0.31992 -1.14489,0.39045 -1.132378,1.30124 0.0073,0.52964 0.04325,6.82681 0.07993,13.99371 l 0.0667,13.03073 0.55453,-1.45521 c 1.101019,-2.88931 3.668427,-6.20766 5.542648,-7.16382 0.544038,-0.27754 1.804496,-1.32483 2.801017,-2.3273 1.076296,-1.08272 2.451871,-2.14543 3.388357,-2.61769 1.945902,-0.98132 4.90976,-1.9141 6.081899,-1.9141 h 0.877785 l -0.536001,1.89404 c -0.917135,3.24086 -3.600152,7.1303 -6.746056,9.77944 -0.753339,0.63438 -1.348651,1.17239 -1.322917,1.19558 0.02573,0.0232 0.701634,-0.0645 1.501998,-0.19482 1.738985,-0.28317 7.900326,-0.30197 9.392708,-0.0287 0.799759,0.14647 1.078011,0.33094 1.138875,0.75501 0.06224,0.43369 -0.410022,0.93082 -2.078845,2.18832 -2.718185,2.04821 -3.163457,2.26993 -8.320446,4.14304 l -4.233333,1.53762 -7.540625,0.0628 c -5.288565,0.0441 -8.448205,-0.05 -10.579498,-0.31506 z"
         id="path110" />
      <path
         style="fill:#134829"
         d="m 15.730985,194.67946 c -1.682417,-1.54836 -4.807399,-3.09062 -6.3517679,-3.13477 -0.6484466,-0.0185 -1.1247644,-0.12299 -1.058484,-0.23213 0.06628,-0.10914 0.00434,-0.19844 -0.1376399,-0.19844 -0.4539251,0 -0.4979382,0.63181 -0.1196291,1.71727 0.2023866,0.5807 0.2584751,0.93789 0.1246412,0.79375 -0.4025917,-0.43358 -0.8873027,-2.21465 -0.6897155,-2.53435 0.4380662,-0.70881 4.0245362,0.40538 6.4678732,2.00933 1.917568,1.2588 3.713379,2.75486 3.307291,2.75524 -0.145521,1.4e-4 -0.839677,-0.52902 -1.542569,-1.1759 z"
         id="path169" />
      <path
         style="fill:#134829"
         d="m 35.926678,197.35044 c 0,-0.0728 0.238125,-0.25973 0.529167,-0.41549 0.291042,-0.15576 0.529166,-0.22367 0.529166,-0.15091 0,0.0728 -0.238124,0.25973 -0.529166,0.41549 -0.291042,0.15577 -0.529167,0.22368 -0.529167,0.15091 z"
         id="path167" />
      <path
         style="fill:#134829"
         d="m 41.284945,201.58597 c 3.343173,-3.33168 5.492865,-6.73291 5.907953,-9.34753 l 0.178544,-1.12463 -0.893736,0.17072 c -1.442541,0.27555 -4.502703,1.41402 -5.784658,2.15207 -0.652716,0.37578 -1.734922,1.16781 -2.404904,1.76006 -1.083206,0.95755 -1.068023,0.93028 0.137063,-0.24608 1.653311,-1.61392 3.867212,-2.82526 6.493869,-3.55314 2.962757,-0.82102 2.909744,-0.84255 2.520342,1.02347 -0.34286,1.64299 -1.252258,3.59288 -2.574906,5.521 -1.021425,1.48901 -3.770821,4.42033 -4.811025,5.12938 -0.450735,0.30723 0.103421,-0.36116 1.231458,-1.48532 z"
         id="path161" />
      <path
         style="fill:#134829"
         d="m 13.646453,201.7636 c -1.734498,-1.66915 -4.1781067,-4.74294 -4.1781067,-5.25559 0,-0.1251 0.4389312,0.4258 0.9754027,1.22422 0.536472,0.79843 1.985427,2.43395 3.219901,3.63449 1.234475,1.20055 2.153185,2.18281 2.04158,2.18281 -0.111605,0 -1.038055,-0.80367 -2.058777,-1.78593 z"
         id="path160" />
      <path
         style="fill:#134829"
         d="m 19.787096,211.74255 c -3.579473,-0.2801 -8.589209,-1.64646 -11.6416663,-3.17517 -1.8469744,-0.92499 -3.8371346,-2.67212 -4.1869836,-3.6757 -0.25305,-0.7259 -0.2167231,-0.79512 0.5692802,-1.08469 1.2576159,-0.46332 8.0805837,-0.6603 9.6019687,-0.27721 1.247721,0.31418 1.693725,0.62418 7.146124,4.96712 1.32812,1.05787 3.173589,2.28239 4.101041,2.72115 l 1.686277,0.79773 -2.38125,-0.0383 c -1.309687,-0.0211 -3.512343,-0.12679 -4.894791,-0.23496 z"
         id="path156" />
      <path
         style="fill:#134829"
         d="m 27.423426,211.56121 c -0.720097,-0.75887 -2.633357,-4.01293 -5.504021,-9.36118 -0.906091,-1.68811 -1.95466,-3.41452 -2.330152,-3.83646 -0.375492,-0.42194 -0.990604,-1.10644 -1.366914,-1.52111 l -0.684201,-0.75395 1.455208,0.85133 c 0.800364,0.46824 1.909514,1.21067 2.464777,1.64985 1.118448,0.88463 3.760894,4.69541 4.540014,6.54734 0.275497,0.65485 0.568294,1.27298 0.65066,1.37364 0.08237,0.10066 0.180799,-5.13809 0.218739,-11.64167 0.0628,-10.76411 0.113535,-11.95519 0.565707,-13.27988 0.61743,-1.80883 0.915959,-3.175 0.693786,-3.175 -0.950377,0 -4.106242,-0.6598 -4.569621,-0.95538 -1.388923,-0.88596 -0.336654,-4.35276 1.564556,-5.15458 1.241647,-0.52366 3.342147,-0.46417 4.664421,0.13209 0.615233,0.27743 1.056771,0.56625 0.981196,0.64183 -0.07558,0.0756 0.07908,0.38437 0.343684,0.6862 0.721095,0.82258 1.064342,1.80706 0.837081,2.40088 -0.3635,0.9498 -1.310937,1.71316 -2.328175,1.87582 l -0.997465,0.1595 -0.06523,14.39432 c -0.04492,9.91238 0.02122,14.39432 0.212403,14.39432 0.152699,0 0.277635,-0.28387 0.277635,-0.63082 0,-0.34695 0.498374,-1.62688 1.107498,-2.84427 1.462886,-2.92373 5.242502,-6.88459 5.242502,-5.4939 0,0.16029 -0.68457,1.55927 -1.521265,3.10886 -0.836696,1.54958 -1.909511,3.68829 -2.384034,4.7527 -0.474522,1.0644 -1.343276,2.65869 -1.930564,3.54287 -1.437674,2.16446 -1.302966,2.81748 0.282735,1.3706 1.592979,-1.45352 6.991962,-5.43789 8.538647,-6.3014 1.87577,-1.04723 6.615366,-1.49696 10.974463,-1.04135 1.425427,0.14899 1.615723,0.23825 1.72484,0.80906 0.101246,0.52964 -0.157047,0.86791 -1.480191,1.93851 -2.28611,1.84978 -4.091033,2.73487 -8.976172,4.40171 l -4.302418,1.46801 -4.101041,0.11357 -4.101042,0.11356 z"
         id="path155" />
      <path
         style="fill:#462813"
         d="m 47.254152,190.93338 c 0.190996,-0.0764 0.419199,-0.067 0.507118,0.0209 0.08792,0.0879 -0.06835,0.15045 -0.347266,0.13896 -0.308224,-0.0127 -0.370919,-0.0754 -0.159852,-0.15985 z"
         id="path357" />
      <path
         style="fill:#462813"
         d="m 8.0958203,190.93338 c 0.1909961,-0.0764 0.4191992,-0.067 0.507118,0.0209 0.087919,0.0879 -0.068351,0.15045 -0.3472656,0.13896 -0.3082245,-0.0127 -0.3709192,-0.0754 -0.1598524,-0.15985 z"
         id="path356" />
      <path
         style="fill:#462813"
         d="m 9.1541536,191.19796 c 0.1909961,-0.0764 0.4191992,-0.067 0.507118,0.0209 0.087919,0.0879 -0.068351,0.15045 -0.3472656,0.13896 -0.3082245,-0.0127 -0.3709192,-0.0754 -0.1598524,-0.15985 z"
         id="path354" />
      <path
         style="fill:#462813"
         d="m 44.608318,191.4625 c 0.190996,-0.0764 0.4192,-0.067 0.507118,0.0209 0.08792,0.0879 -0.06835,0.15046 -0.347265,0.13897 -0.308225,-0.0127 -0.370919,-0.0754 -0.159853,-0.15986 z"
         id="path352" />
      <path
         style="fill:#462813"
         d="m 11.188138,191.89587 c -0.727604,-0.27234 -1.129098,-0.50011 -0.892208,-0.50616 0.481346,-0.0123 2.347416,0.71793 2.347416,0.91858 0,0.0708 -0.02977,0.11839 -0.06615,0.10574 -0.03638,-0.0127 -0.661458,-0.24582 -1.389062,-0.51816 z"
         id="path346" />
      <path
         style="fill:#462813"
         d="m 41.747511,192.56934 c 0.363802,-0.20797 0.780521,-0.37813 0.926042,-0.37813 0.145521,0 -0.03307,0.17016 -0.396875,0.37813 -0.363802,0.20796 -0.780521,0.37812 -0.926042,0.37812 -0.145521,0 0.03307,-0.17016 0.396875,-0.37812 z"
         id="path344" />
      <path
         style="fill:#462813"
         d="m 43.599594,199.21631 c 0,-0.0549 0.20836,-0.2633 0.463021,-0.46302 0.419644,-0.32911 0.429003,-0.31975 0.09989,0.0999 -0.345644,0.44073 -0.562916,0.58089 -0.562916,0.36313 z"
         id="path336" />
      <path
         style="fill:#462813"
         d="m 22.432929,199.92743 c 0,-0.14889 -0.725347,-0.79381 -1.611882,-1.43315 -2.377492,-1.71459 -2.605978,-1.9244 -1.398803,-1.28449 1.421817,0.7537 3.462997,2.52522 3.209122,2.78517 -0.10914,0.11175 -0.198437,0.0814 -0.198437,-0.0675 z"
         id="path335" />
      <path
         style="fill:#462813"
         d="m 31.892097,200.77141 c 0.301935,-0.43656 1.002324,-1.21047 1.55642,-1.71979 0.804839,-0.73981 0.747446,-0.63339 -0.285379,0.52916 -1.737142,1.95534 -1.915446,2.12236 -1.271041,1.19063 z"
         id="path333" />
      <path
         style="fill:#462813"
         d="m 41.61522,201.43287 c 0.716663,-0.72761 1.362555,-1.32292 1.435315,-1.32292 0.07276,0 -0.454069,0.59531 -1.170732,1.32292 -0.716663,0.7276 -1.362556,1.32291 -1.435316,1.32291 -0.07276,0 0.454069,-0.59531 1.170733,-1.32291 z"
         id="path332" />
      <path
         style="fill:#462813"
         d="m 13.946237,202.02818 -0.641433,-0.7276 0.727605,0.64143 c 0.680055,0.59952 0.848938,0.81377 0.641433,0.81377 -0.04739,0 -0.374816,-0.32742 -0.727605,-0.7276 z"
         id="path331" />
      <path
         style="fill:#462813"
         d="m 30.105845,203.56515 c 0,-0.13693 0.117699,-0.32171 0.261553,-0.41062 0.149982,-0.0927 0.194338,0.0135 0.103984,0.24897 -0.175893,0.45837 -0.365537,0.54223 -0.365537,0.16165 z"
         id="path327" />
      <path
         style="fill:#462813"
         d="m 40.126578,203.80301 c 0.89174,-0.37012 7.246306,-0.59032 9.29385,-0.32204 1.392145,0.1824 0.888075,0.223 -2.645834,0.21307 -2.401093,-0.007 -5.020468,0.0737 -5.820833,0.1787 -1.052799,0.13814 -1.28154,0.11886 -0.827183,-0.0697 z"
         id="path324" />
      <path
         style="fill:#462813"
         d="m 4.7058465,203.76311 c 0.9783903,-0.44465 9.4998525,-0.44769 10.1864575,-0.004 0.465591,0.30112 0.417909,0.31701 -0.396875,0.13229 -1.156945,-0.26229 -7.0468942,-0.27473 -8.9958325,-0.019 -1.1950152,0.1568 -1.3369387,0.13719 -0.79375,-0.10967 z"
         id="path323" />
      <path
         style="fill:#462813"
         d="m 29.067244,206.19537 c -9.42e-4,-0.3813 0.745438,-1.89597 0.764642,-1.55173 0.0052,0.0924 -0.164558,0.56868 -0.377143,1.05833 -0.212585,0.48965 -0.38696,0.71168 -0.387499,0.4934 z"
         id="path321" />
      <path
         style="fill:#462813"
         d="m 5.2012642,206.5261 c -0.3291075,-0.41965 -0.3197491,-0.42901 0.099895,-0.0999 0.4407291,0.34565 0.5808871,0.56292 0.363126,0.56292 -0.054942,0 -0.2633016,-0.20836 -0.463021,-0.46302 z"
         id="path320" />
      <path
         style="fill:#462813"
         d="m 39.23397,210.83725 c 0.436562,-0.21603 1.627187,-0.64668 2.645833,-0.957 2.406564,-0.73313 5.189826,-2.12802 7.002221,-3.5093 2.204683,-1.68026 2.646026,-1.91435 1.332153,-0.70657 -1.845586,1.69655 -4.853796,3.34 -8.057604,4.40203 -3.52463,1.16839 -3.955818,1.28212 -2.922603,0.77084 z"
         id="path319" />
      <path
         style="fill:#462813"
         d="m 26.990446,210.84125 c -0.32892,-0.41815 -0.541009,-0.94993 -0.471309,-1.18173 0.0697,-0.23179 0.189017,-6.31504 0.26515,-13.51832 0.126675,-11.98543 0.181256,-13.22037 0.643166,-14.55208 0.618943,-1.78446 0.925334,-3.175 0.699576,-3.175 -0.950377,0 -4.106242,-0.6598 -4.569621,-0.95538 -1.388923,-0.88596 -0.336654,-4.35276 1.564556,-5.15458 1.241647,-0.52366 3.342147,-0.46417 4.664421,0.13209 0.615233,0.27743 1.056771,0.56625 0.981196,0.64183 -0.07558,0.0756 0.07908,0.38437 0.343684,0.6862 0.721095,0.82258 1.064342,1.80706 0.837081,2.40088 -0.363618,0.95011 -1.31106,1.71318 -2.329287,1.876 l -0.998577,0.15968 -0.05497,15.12174 c -0.05354,14.72785 -0.142848,17.3707 -0.58697,17.3707 -0.118327,0 -0.254496,0.20436 -0.302597,0.45413 -0.07136,0.37054 -0.197529,0.31419 -0.685494,-0.30616 z"
         id="path318" />
      <path
         style="fill:#462813"
         d="m 37.514178,211.48703 c 0.218281,-0.14106 0.515938,-0.25648 0.661458,-0.25648 0.145521,0 0.08599,0.11542 -0.132291,0.25648 -0.218281,0.14107 -0.515938,0.25648 -0.661459,0.25648 -0.14552,0 -0.08599,-0.11541 0.132292,-0.25648 z"
         id="path317" />
      <path
         style="fill:#462813"
         d="m 35.334451,211.82907 c 0.329118,-0.0633 0.805368,-0.0609 1.058333,0.005 0.252965,0.0662 -0.01631,0.118 -0.598397,0.11507 -0.582084,-0.003 -0.789055,-0.0571 -0.459936,-0.12041 z"
         id="path316" />
      <path
         style="fill:#462813"
         d="m 29.245949,212.08572 c 0.763985,-0.0534 2.014141,-0.0534 2.778125,0 0.763985,0.0534 0.138906,0.0972 -1.389062,0.0972 -1.527969,0 -2.153047,-0.0437 -1.389063,-0.0972 z"
         id="path315" />
      <path
         style="fill:#162810"
         d="m 23.755846,173.40949 c 0,-0.80343 3.295947,-1.77826 4.630208,-1.36946 0.672724,0.20611 0.527072,0.24666 -0.955266,0.26593 -1.39961,0.0182 -1.94139,0.15329 -2.711979,0.67623 -0.52963,0.35941 -0.962963,0.5517 -0.962963,0.4273 z"
         id="path619" />
      <path
         style="fill:#162810"
         d="m 30.614987,173.71777 -0.641433,-0.72761 0.727604,0.64143 c 0.680055,0.59952 0.848939,0.81378 0.641433,0.81378 -0.04739,0 -0.374816,-0.32742 -0.727604,-0.7276 z"
         id="path618" />
      <path
         style="fill:#162810"
         d="m 22.962096,175.23912 c 0,-0.14552 0.119062,-0.26458 0.264583,-0.26458 0.145521,0 0.264583,0.11906 0.264583,0.26458 0,0.14552 -0.119062,0.26458 -0.264583,0.26458 -0.145521,0 -0.264583,-0.11906 -0.264583,-0.26458 z"
         id="path617" />
      <path
         style="fill:#162810"
         d="m 31.44965,175.61395 c 0.0127,-0.30823 0.07539,-0.37092 0.159852,-0.15986 0.07643,0.191 0.06703,0.4192 -0.02089,0.50712 -0.08792,0.0879 -0.150453,-0.0683 -0.138964,-0.34726 z"
         id="path616" />
      <path
         style="fill:#162810"
         d="m 23.247567,176.14311 c 0.0127,-0.30822 0.07539,-0.37092 0.159852,-0.15985 0.07643,0.191 0.06703,0.4192 -0.02089,0.50712 -0.08792,0.0879 -0.150452,-0.0683 -0.138964,-0.34727 z"
         id="path614" />
      <path
         style="fill:#162810"
         d="m 47.254152,190.93338 c 0.190996,-0.0764 0.419199,-0.067 0.507118,0.0209 0.08792,0.0879 -0.06835,0.15045 -0.347266,0.13896 -0.308224,-0.0127 -0.370919,-0.0754 -0.159852,-0.15985 z"
         id="path606" />
      <path
         style="fill:#162810"
         d="m 8.0958203,190.93338 c 0.1909961,-0.0764 0.4191992,-0.067 0.507118,0.0209 0.087919,0.0879 -0.068351,0.15045 -0.3472656,0.13896 -0.3082245,-0.0127 -0.3709192,-0.0754 -0.1598524,-0.15985 z"
         id="path605" />
      <path
         style="fill:#162810"
         d="m 9.1541536,191.19796 c 0.1909961,-0.0764 0.4191992,-0.067 0.507118,0.0209 0.087919,0.0879 -0.068351,0.15045 -0.3472656,0.13896 -0.3082245,-0.0127 -0.3709192,-0.0754 -0.1598524,-0.15985 z"
         id="path603" />
      <path
         style="fill:#162810"
         d="m 44.608318,191.46251 c 0.190996,-0.0764 0.4192,-0.067 0.507118,0.0209 0.08792,0.0879 -0.06835,0.15046 -0.347265,0.13897 -0.308225,-0.0127 -0.370919,-0.0754 -0.159853,-0.15986 z"
         id="path601" />
      <path
         style="fill:#162810"
         d="m 10.212487,191.46251 c 0.190996,-0.0764 0.419199,-0.067 0.507118,0.0209 0.08792,0.0879 -0.06835,0.15046 -0.347266,0.13897 -0.308224,-0.0127 -0.370919,-0.0754 -0.159852,-0.15986 z"
         id="path600" />
      <path
         style="fill:#162810"
         d="m 11.32043,191.90788 c -0.218282,-0.14107 -0.277813,-0.25648 -0.132292,-0.25648 0.145521,0 0.443177,0.11541 0.661458,0.25648 0.218281,0.14106 0.277813,0.25648 0.132292,0.25648 -0.145521,0 -0.443177,-0.11542 -0.661458,-0.25648 z"
         id="path595" />
      <path
         style="fill:#162810"
         d="m 41.747511,192.56934 c 0.363802,-0.20797 0.780521,-0.37813 0.926042,-0.37813 0.145521,0 -0.03307,0.17016 -0.396875,0.37813 -0.363802,0.20796 -0.780521,0.37812 -0.926042,0.37812 -0.145521,0 0.03307,-0.17016 0.396875,-0.37812 z"
         id="path591" />
      <path
         style="fill:#162810"
         d="m 43.599594,199.21632 c 0,-0.0549 0.20836,-0.2633 0.463021,-0.46302 0.419644,-0.32911 0.429003,-0.31975 0.09989,0.0999 -0.345644,0.44073 -0.562916,0.58089 -0.562916,0.36313 z"
         id="path583" />
      <path
         style="fill:#162810"
         d="m 22.432929,199.92744 c 0,-0.14889 -0.725347,-0.79381 -1.611882,-1.43315 -2.377492,-1.71459 -2.605978,-1.9244 -1.398803,-1.28449 1.421817,0.7537 3.462997,2.52522 3.209122,2.78517 -0.10914,0.11175 -0.198437,0.0814 -0.198437,-0.0675 z"
         id="path582" />
      <path
         style="fill:#162810"
         d="m 31.892097,200.77142 c 0.301935,-0.43656 1.002324,-1.21047 1.55642,-1.71979 0.804839,-0.73981 0.747446,-0.63339 -0.285379,0.52916 -1.737142,1.95534 -1.915446,2.12236 -1.271041,1.19063 z"
         id="path580" />
      <path
         style="fill:#162810"
         d="m 41.61522,201.43288 c 0.716663,-0.72761 1.362555,-1.32292 1.435315,-1.32292 0.07276,0 -0.454069,0.59531 -1.170732,1.32292 -0.716663,0.7276 -1.362556,1.32291 -1.435316,1.32291 -0.07276,0 0.454069,-0.59531 1.170733,-1.32291 z"
         id="path579" />
      <path
         style="fill:#162810"
         d="m 13.946237,202.02819 -0.641433,-0.7276 0.727605,0.64143 c 0.680055,0.59952 0.848938,0.81377 0.641433,0.81377 -0.04739,0 -0.374816,-0.32742 -0.727605,-0.7276 z"
         id="path578" />
      <path
         style="fill:#162810"
         d="m 30.105845,203.56515 c 0,-0.13693 0.117699,-0.32171 0.261553,-0.41062 0.149982,-0.0927 0.194338,0.0135 0.103984,0.24897 -0.175893,0.45837 -0.365537,0.54223 -0.365537,0.16165 z"
         id="path576" />
      <path
         style="fill:#162810"
         d="m 40.126578,203.80301 c 0.89174,-0.37012 7.246306,-0.59032 9.29385,-0.32204 1.392145,0.1824 0.888075,0.223 -2.645834,0.21307 -2.401093,-0.007 -5.020468,0.0737 -5.820833,0.1787 -1.052799,0.13814 -1.28154,0.11886 -0.827183,-0.0697 z"
         id="path573" />
      <path
         style="fill:#162810"
         d="m 4.7058465,203.76311 c 0.9783903,-0.44465 9.4998525,-0.44769 10.1864575,-0.004 0.465591,0.30112 0.417909,0.31701 -0.396875,0.13229 -1.156945,-0.26229 -7.0468942,-0.27473 -8.9958325,-0.019 -1.1950152,0.1568 -1.3369387,0.13719 -0.79375,-0.10967 z"
         id="path572" />
      <path
         style="fill:#162810"
         d="m 29.320198,205.53391 c 0,-0.14552 0.115416,-0.44318 0.256481,-0.66146 0.141064,-0.21828 0.25648,-0.27781 0.25648,-0.13229 0,0.14552 -0.115416,0.44318 -0.25648,0.66146 -0.141065,0.21828 -0.256481,0.27781 -0.256481,0.13229 z"
         id="path570" />
      <path
         style="fill:#162810"
         d="m 5.2012642,206.5261 c -0.3291075,-0.41965 -0.3197491,-0.42901 0.099895,-0.0999 0.4407291,0.34565 0.5808871,0.56292 0.363126,0.56292 -0.054942,0 -0.2633016,-0.20836 -0.463021,-0.46302 z"
         id="path569" />
      <path
         style="fill:#162810"
         d="m 39.23397,210.83104 c 0.436562,-0.21239 1.627187,-0.64007 2.645833,-0.95039 2.406564,-0.73313 5.189826,-2.12802 7.002221,-3.5093 2.20177,-1.67804 2.647398,-1.91532 1.332153,-0.70933 -1.807794,1.65764 -4.438781,3.12197 -7.598376,4.22904 -3.424189,1.19979 -4.571113,1.51857 -3.381831,0.93998 z"
         id="path568" />
      <path
         style="fill:#162810"
         d="m 26.973196,210.81932 c -0.340097,-0.43236 -0.520515,-0.92773 -0.424814,-1.16639 0.09149,-0.22817 0.228204,-6.24892 0.303805,-13.37944 0.0756,-7.13052 0.183758,-13.01419 0.240349,-13.07482 0.05659,-0.0606 0.102893,4.78413 0.102893,10.76615 0,8.01876 0.08133,10.92667 0.309546,11.06771 0.208136,0.12864 0.254196,0.0471 0.140595,-0.24897 -0.09292,-0.24215 -0.05362,-0.44028 0.08733,-0.44028 0.140954,0 0.28431,0.2679 0.31857,0.59532 0.03426,0.32742 0.127542,-5.06016 0.207295,-11.9724 l 0.145004,-12.56771 -0.0089,15.02489 c -0.0063,10.62797 -0.09403,15.08009 -0.299914,15.21354 -0.160081,0.10376 -0.344962,0.35635 -0.410847,0.5613 -0.08551,0.26601 -0.288949,0.15759 -0.710954,-0.3789 z m 0.402973,-5.20273 c -0.08446,-0.21106 -0.147156,-0.14837 -0.159852,0.15985 -0.01149,0.27892 0.05104,0.43519 0.138964,0.34727 0.08792,-0.0879 0.09732,-0.31612 0.02089,-0.50712 z"
         id="path567" />
      <path
         style="fill:#162810"
         d="m 35.199074,211.83382 c 0.254662,-0.0666 0.67138,-0.0666 0.926042,0 0.254661,0.0666 0.0463,0.121 -0.463021,0.121 -0.509323,0 -0.717682,-0.0545 -0.463021,-0.121 z"
         id="path566" />
      <path
         style="fill:#162810"
         d="m 29.245949,212.08572 c 0.763985,-0.0534 2.014141,-0.0534 2.778125,0 0.763985,0.0534 0.138906,0.0972 -1.389062,0.0972 -1.527969,0 -2.153047,-0.0437 -1.389063,-0.0972 z"
         id="path565" />
    </g>
  </g>
</svg>
