<?xml version="1.0" encoding="UTF-8" standalone="no"?>
<!-- Created with Inkscape (http://www.inkscape.org/) -->

<svg
   width="185"
   height="185"
   viewBox="0 0 48.947914 48.947918"
   version="1.1"
   id="svg1"
   xmlns="http://www.w3.org/2000/svg"
   xmlns:svg="http://www.w3.org/2000/svg">
  <defs
     id="defs1" />
  <g
     id="layer1">
    <g
       id="g3646"
       style="display:inline;stroke-width:1.40551"
       transform="matrix(0.71148774,0,0,0.71148774,-125.79783,-64.019599)">
      <path
         style="fill:#f0948e;stroke-width:1.40551"
         d="m 210.73249,158.77648 c 1.84404,-12.96525 -9.00497,-17.71598 -16.52048,-24.67641 -9.47178,-8.16921 4.19816,-9.08869 8.9149,-4.5993 5.29469,3.99325 7.89902,22.41078 7.15417,7.64247 -0.39426,-9.79375 0.59731,-20.09899 -3.36515,-29.05953 1.52419,-4.40316 -12.44358,11.98083 -9.29441,-0.68735 3.20609,-3.62251 -10.34343,2.37466 -3.43802,-4.82888 7.57715,-3.604299 18.1519,-20.824178 23.89176,-5.941397 6.37447,0.402138 19.29409,13.948777 5.10222,9.487027 5.6971,11.02593 -6.16918,3.7554 -7.74862,2.14306 -3.29216,7.7704 -2.53046,25.26247 -1.051,28.08102 -1.75812,-8.67644 17.62908,-16.39317 15.97438,-8.8106 -3.53053,8.05509 -22.7273,15.25374 -15.71713,21.98439 1.0589,-9.56711 25.52053,-10.65443 12.1064,-0.90288 -5.80443,3.59116 -13.21541,3.70561 -16.00902,10.16838 z m 3.55418,-54.11397 c -0.50932,0.11476 0.37901,1.15976 0,0 z m -11.29324,-1.93476 c 1.86828,-2.3522 -2.48997,2.38823 0,0 z m 9.82235,-2.63337 c -2.51825,-2.53783 -5.93694,1.20529 -0.6595,-0.756031 0.25204,0.514674 2.01332,4.337571 0.6595,0.756031 z"
         id="path3102" />
      <path
         style="fill:#9d9967;stroke-width:1.40551"
         d="m 210.73249,158.77648 c 2.98789,-15.47372 -13.01238,-17.23434 -18.55663,-27.92341 -3.45559,-9.68816 18.27447,-0.64831 16.25485,8.09519 3.43115,12.894 1.48393,-8.96054 1.64043,-12.76595 0.31548,-5.22144 -1.87141,-19.81407 -4.26527,-18.99215 -3.40989,7.49434 -11.48804,5.15066 -7.86011,-1.40865 -12.91823,3.39008 2.98182,-8.715969 6.50302,-10.59452 7.95197,-12.479412 15.12402,5.09775 23.77849,7.41146 7.528,8.34008 -10.93065,-0.57134 -3.8808,7.93741 -1.83256,7.49963 -10.85493,-10.00788 -10.19757,2.0712 -1.96192,6.2953 -0.15318,13.47351 -0.75807,20.08013 0.12395,12.52289 3.29184,-10.83686 11.86454,-7.78175 15.98331,-0.86856 -7.47085,13.66791 -11.25662,17.93235 -3.6242,10.51287 2.37413,5.95703 6.72769,0.004 6.83849,-3.94419 15.07995,1.05485 5.56509,6.08721 -5.90036,3.14686 -12.81091,3.64304 -15.55904,9.84729 z m 0.8599,-44.53936 c 7.93323,-4.99 -1.98667,-24.246444 -3.59389,-9.01658 0.26359,2.72766 0.55641,8.62381 3.59389,9.01658 z M 200.3476,110.4946 c 8.00702,-1.88254 10.09786,-18.696287 1.30717,-6.44827 -1.21392,1.04711 -6.37725,9.67107 -1.30717,6.44827 z m 22.75416,-0.58149 c -0.34633,-6.27893 -13.76377,-16.703191 -7.02232,-4.13 0.44791,1.19959 6.92799,8.5279 7.02232,4.13 z m -5.23162,-2.40492 c -1.67337,-2.54795 2.70288,2.44349 0,0 z m 2.47281,-2.14029 c -1.4368,-1.74666 1.95074,1.41837 0,0 z m 8.65853,0.76464 c -3.49004,-7.506291 -19.01176,-10.302858 -8.11239,-2.85202 2.06769,1.82943 5.31081,3.14025 8.11239,2.85202 z m -9.10847,-4.52927 c -0.9182,-1.12766 1.72896,1.36439 0,0 z m -0.36125,-2.179782 c 0.6696,-0.48387 1.05337,0.852322 0,0 z m -22.58349,5.719292 c 5.25618,-1.41101 12.78974,-10.890625 2.63629,-5.269282 -2.37673,1.135002 -10.46901,8.344882 -2.63629,5.269562 z m -1.93849,0.0218 c 2.51258,-1.2068 0.68672,0.55074 0,0 z m 1.26358,-1.2896 c 1.38108,-0.27868 0.94005,0.77557 0,0 z m 2.76345,-1.03763 c 2.80301,-2.10472 -0.005,0.95742 0,0 z m 3.16287,-2.07839 c 0.46367,-1.391594 0.4113,0.97229 0,0 z"
         id="path3108" />
      <path
         style="fill:#d36758;stroke-width:1.40551"
         d="m 210.69875,158.61369 c 2.28498,-13.11495 -9.22069,-17.58729 -16.48738,-24.6037 -10.2843,-12.92955 16.22921,-5.92493 14.19055,5.03711 3.23675,12.4495 1.58053,-8.13096 1.74947,-11.48727 0.40314,-5.60537 -1.64183,-20.92123 -4.34558,-20.36994 -2.43032,6.32548 -12.33114,6.76333 -7.35642,-1.51212 -12.96987,3.82214 0.91155,-8.492234 5.63871,-9.773952 3.96866,-10.311263 13.14321,-2.784517 16.38493,1.987991 8.10953,2.561501 14.47114,11.283201 2.36411,8.122221 5.88629,8.90966 -4.55824,6.80128 -7.15616,1.34718 -3.19241,6.17954 -2.80809,12.72045 -2.39894,19.48104 0.30398,4.66198 -1.06719,18.18834 2.54506,5.96994 -0.0991,-9.46205 24.02538,-11.42521 11.45905,-1.56982 -4.36331,4.80812 -19.95849,14.44553 -12.61958,18.27021 0.82204,-9.14474 24.70677,-10.79629 12.3957,-1.27863 -5.71348,3.92033 -13.67861,4.05174 -16.36352,10.37974 z m 13.23051,-9.12084 c 0.89187,-1.14641 -2.06598,1.50249 0,0 z m -14.81758,-2.78253 c -0.87937,-0.68483 0.83664,1.44317 0,0 z m -0.4707,-0.8669 c -0.84772,-1.04192 0.28945,1.31183 0,0 z m 2.59528,-21.03538 c 0.68333,-10.488 -0.98041,-5.23392 -0.19348,2.43982 l 0.19351,-2.43982 z m 1.05924,-5.94071 c -0.39003,-9.80549 -0.39256,8.63042 0.11256,7.48944 0.1096,-2.49604 0.0332,-4.99652 -0.11256,-7.48944 z m -1.96692,3.50573 c -0.37845,0.75656 0.37557,3.81792 0,0 z m 1.26381,-8.13594 c 7.93323,-4.99 -1.98667,-24.246444 -3.59389,-9.01658 0.26359,2.72766 0.55641,8.62381 3.59389,9.01658 z M 200.3476,110.4946 c 8.00702,-1.88254 10.09786,-18.696287 1.30717,-6.44827 -1.21392,1.04711 -6.37725,9.67107 -1.30717,6.44827 z m 22.75416,-0.58149 c -0.34633,-6.27893 -13.76377,-16.703191 -7.02232,-4.13 0.44791,1.19959 6.92799,8.5279 7.02232,4.13 z m -5.23162,-2.40492 c -1.67337,-2.54795 2.70288,2.44349 0,0 z m 2.47281,-2.14029 c -1.4368,-1.74666 1.95074,1.41837 0,0 z m 8.65853,0.76464 c -3.52744,-7.532817 -19.04753,-10.305402 -8.06475,-2.80348 2.04624,1.83245 5.28675,3.08411 8.06475,2.80348 z m -9.10847,-4.52927 c -0.9182,-1.12766 1.72896,1.36439 0,0 z m -0.36125,-2.179782 c 0.6696,-0.48387 1.05337,0.852322 0,0 z m -22.58349,5.719292 c 5.25618,-1.41101 12.78974,-10.890625 2.63629,-5.269282 -2.3768,1.134992 -10.46895,8.344912 -2.63629,5.269562 z m -1.93849,0.0218 c 2.51258,-1.2068 0.68672,0.55074 0,0 z m 1.26358,-1.2896 c 1.38108,-0.27868 0.94005,0.77557 0,0 z m 2.76345,-1.03763 c 2.80301,-2.10472 -0.005,0.95742 0,0 z m 3.16287,-2.07839 c 0.46367,-1.391594 0.4113,0.97229 0,0 z"
         id="path3114" />
      <path
         style="fill:#6d8a49;stroke-width:1.40551"
         d="m 198.23681,106.36577 c 1.26652,-2.50369 1.23504,-0.82633 0,0 z"
         id="path3122" />
      <path
         style="fill:#6d8a49;stroke-width:1.40551"
         d="m 197.55097,108.01942 c 1.22511,-3.58346 -0.31371,2.49403 0,0 z"
         id="path3121" />
      <path
         style="fill:#6d8a49;stroke-width:1.40551"
         d="m 210.69875,158.61369 c 2.28498,-13.11495 -9.22069,-17.58729 -16.48738,-24.6037 -10.2843,-12.92955 16.22921,-5.92493 14.19055,5.03711 3.84802,13.42415 1.24607,-12.22293 1.56522,-15.85051 0.28343,-4.26237 -2.27146,-17.53673 -4.12638,-16.15975 -3.64488,7.14737 -13.35626,6.20524 -5.49321,-2.51595 -0.69404,-0.60071 -11.53155,6.14308 -6.33315,-1.63974 4.51669,-3.628803 12.14788,-7.188144 13.78555,-11.695814 9.34322,-1.918725 12.2784,8.793818 20.65778,11.634684 2.02215,3.68352 -1.10842,-2.47148 1.15773,3.6393 -6.49751,-0.0226 -7.61563,-1.84001 -5.35705,5.73507 -6.14058,0.93797 -9.51392,-10.00386 -10.59353,1.34308 -1.65607,6.54757 0.34394,13.85176 -0.33054,20.65981 -0.26594,12.00269 3.02257,-11.2559 10.25592,-8.88789 7.47831,-2.57064 9.9874,1.13009 3.69585,5.933 -4.36331,4.80812 -19.95849,14.44553 -12.61958,18.27021 0.82204,-9.14474 24.70677,-10.79629 12.3957,-1.27863 -5.71344,3.92034 -13.67863,4.0517 -16.36348,10.37972 z m 13.23051,-9.12084 c 0.89187,-1.14641 -2.06598,1.50249 0,0 z m -14.81758,-2.78253 c -0.87937,-0.68483 0.83664,1.44317 0,0 z m -0.4707,-0.8669 c -0.84772,-1.04192 0.28945,1.31183 0,0 z m 2.59528,-21.03538 c 0.68333,-10.488 -0.98041,-5.23392 -0.19348,2.43982 l 0.19351,-2.43982 z m 1.05924,-5.94071 c -0.39003,-9.80549 -0.39256,8.63042 0.11256,7.48944 0.1096,-2.49604 0.0332,-4.99652 -0.11256,-7.48944 z m -1.96692,3.50573 c -0.37845,0.75656 0.37557,3.81792 0,0 z m 1.60181,-8.01865 c 7.5551,-5.25998 -2.38505,-24.635875 -3.99263,-9.2488 -0.13158,2.61101 0.18654,9.71793 3.99263,9.2488 z m 11.69901,-2.69697 c 1.14181,-7.42683 -16.23417,-19.984442 -7.43435,-5.4044 1.52653,1.79523 5.15702,6.48871 7.43435,5.4044 z m -19.05013,-4.05823 c 4.6233,-3.96552 5.0471,-13.920152 -1.74802,-5.07711 -4.58313,4.00387 -8.17816,14.29792 1.74802,5.07711 z m 14.55374,2.56927 c -0.89412,-1.07336 -1.25105,-0.73073 0,0 z m 10.00434,-3.99542 c -1.82389,-8.032877 -21.1229,-11.853278 -7.71008,-2.4095 1.93944,1.67024 5.1475,3.06345 7.71008,2.4095 z m -31.92213,-0.97533 c 6.15468,-2.09536 12.76753,-11.132486 2.32543,-5.529294 -2.75274,1.001634 -10.30658,9.014094 -2.32543,5.529294 z m -2.27494,-2.66842 c 3.10624,-3.35353 -3.21421,3.22004 0,0 z m 17.60223,-4.7283 c 13.02851,-3.429031 -10.34144,-10.891033 -6.73854,-0.896447 2.08948,1.110816 4.44092,1.421747 6.73854,0.896447 z"
         id="path3120" />
      <path
         style="fill:#58662c;stroke-width:1.40551"
         d="m 198.23681,106.36577 c 1.26652,-2.50369 1.23504,-0.82633 0,0 z"
         id="path3133" />
      <path
         style="fill:#58662c;stroke-width:1.40551"
         d="m 197.45983,108.41629 c 0.0987,-1.75432 0.96964,-0.4091 0,0 z"
         id="path3132" />
      <path
         style="fill:#58662c;stroke-width:1.40551"
         d="m 191.35176,127.73087 c -0.31999,-0.96737 -0.65252,0.94254 0,0 z"
         id="path3131" />
      <path
         style="fill:#58662c;stroke-width:1.40551"
         d="m 210.5903,158.52288 c -0.35728,-12.66073 -1.55147,-15.56741 -13.25846,-20.31051 -3.23547,-4.31271 -11.50092,-14.26905 0.53407,-10.93682 8.61448,-1.34337 10.87505,16.7833 12.51838,15.83043 -0.26565,-9.2322 0.26356,-18.45035 0.0562,-27.67825 0.75061,8.70847 0.15366,17.89178 1.28442,26.31457 1.03455,-7.23177 2.92982,-22.41219 -1.52359,-26.04995 -0.15718,9.54558 -0.13063,10.11118 -0.48281,0.76391 -3.03891,-4.80524 -1.3438,-16.28442 -6.99775,-5.80297 -4.95558,3.63601 -7.73453,-0.61307 -1.78504,-7.2641 -5.95271,5.56835 -11.71775,3.3647 -4.92101,-2.36774 7.25727,-1.00923 12.82856,-16.668395 20.99565,-7.408615 0.78708,6.480205 11.33865,5.667303 12.97042,11.760755 -1.59783,3.73442 -11.03986,-2.99871 -5.54701,5.75319 -4.19745,4.95058 -10.47168,-10.57089 -10.61635,2.03878 -1.84052,5.61116 0.0208,12.1326 -0.51293,18.05652 -0.65818,11.46282 1.6402,3.59353 4.58611,-2.50792 4.39321,-5.98573 20.82802,-5.4765 9.0506,2.98547 -4.48651,5.39291 -18.48541,11.4107 -12.93147,18.54336 0.69541,-8.44306 24.42288,-12.70439 13.64745,-2.45852 -5.89033,4.32605 -13.74663,4.43734 -17.0669,10.73841 z m 0.84159,-6.18576 c -1.95199,-12.13589 0.11757,5.48167 0,0 z m 3.23695,0.59531 c 0.91821,-1.12766 -1.72896,1.36438 0,0 z m 1.47518,-2.64583 c 1.14798,-5.4342 17.06942,-9.61266 4.84204,-6.23634 -2.13006,0.21323 -9.87078,11.57561 -4.84204,6.23634 z m 3.78274,-5.35781 c 0.65254,-0.94251 0.31999,0.96735 0,0 z m -0.61032,5.69423 c 7.66306,-3.12815 3.37304,-1.22817 4.0255,-0.6547 4.93629,-2.75148 10.27695,-10.22621 0.99484,-5.06446 -5.70882,1.60158 -1.08174,1.76288 -7.28635,6.76733 l 0.87694,-0.3831 1.38907,-0.66505 z m -0.18343,-0.66715 c 0.65254,-0.94251 0.31999,0.96735 0,0 z m -6.96136,-2.05052 c -0.42558,0.39346 0.41175,2.04931 0,0 z m 0.25742,-2.24896 c -0.46307,0.26443 0.42943,1.45702 0,0 z m -3.27155,-0.79066 c -2.69785,-4.86703 0.0186,2.50375 0,0 z m 3.68331,-1.04286 c -0.25889,-3.21121 -0.41598,4.1299 0,0 z m 2.27233,-3.79587 c -0.74879,0.51148 -0.31428,1.15084 0,0 z m 2.3252,-1.75027 c 1.25803,-1.64642 -1.9776,1.72571 0,0 z m -1.71315,-1.29693 c 5.0029,-12.20979 -2.8764,3.24182 0,0 z m -15.19969,0.84311 c 5.35091,-1.24238 -8.1771,-9.82808 -4.57535,-3.87064 -3.77216,-3.15399 3.42457,5.60316 4.57535,3.87064 z m 4.219,-0.74208 c -1.38684,-2.20812 1.22972,2.84675 0,0 z m 1.42391,-0.35412 c -1.27955,-1.91395 0.68024,1.88067 0,0 z m 12.98939,0.2513 c 6.67445,-1.29441 11.63145,-13.8496 1.46536,-5.65466 -3.29536,3.37098 -2.2395,5.01207 -1.46536,5.65466 z m -15.28954,-1.60289 c -3.91712,-5.63951 -12.09832,-8.53358 -2.25991,-1.95678 0.27753,-0.15963 3.82766,4.64897 2.25991,1.95678 z m 1.87894,-0.89737 c -1.77607,-2.43378 1.17008,2.30755 0,0 z m -0.90171,-1.45521 c -1.09094,-1.91523 0.32738,1.88112 0,0 z m -10.22744,-0.67287 c -0.84773,-1.04193 0.28943,1.31183 0,0 z m 9.43369,-0.0929 c -3.88939,-6.25035 -0.65647,1.68518 0,0 z m -11.31022,-1.59422 c -2.77625,-4.33071 2.29079,4.54369 0,0 z m 5.35594,1.03519 c -4.84497,-3.81278 0.82659,1.84909 0,0 z m 23.67424,-2.56732 c 6.92689,-1.35297 11.44835,-4.67528 0.44009,-2.35139 -4.96018,1.50325 -5.81457,7.9035 -0.44009,2.35139 z m -20.49808,0.21223 c -4.65241,-2.12161 1.80821,1.48331 0,0 z m -2.32062,-0.97788 c -1.04768,-0.55601 -0.24727,0.59616 0,0 z m -1.32291,-0.26458 c -1.04767,-0.55602 -0.24728,0.59618 0,0 z m 14.42743,-13.81858 c 7.86084,-6.31947 -3.73114,-24.47302 -4.17652,-8.19144 0.006,2.39648 0.50848,9.33955 4.17652,8.19144 z m 11.57186,-2.62417 c 1.14181,-7.42683 -16.23417,-19.984442 -7.43435,-5.4044 1.52653,1.79523 5.15702,6.48871 7.43435,5.4044 z m -19.05013,-4.05823 c 4.6233,-3.96552 5.0471,-13.920152 -1.74802,-5.07711 -4.58313,4.00387 -8.17816,14.29792 1.74802,5.07711 z m 14.55374,2.56927 c -0.89412,-1.07336 -1.25105,-0.73073 0,0 z m 10.00434,-3.99542 c -1.82389,-8.032877 -21.1229,-11.853278 -7.71008,-2.4095 1.93944,1.67024 5.1475,3.06345 7.71008,2.4095 z m -31.92213,-0.97533 c 6.15468,-2.09536 12.76753,-11.132486 2.32543,-5.529294 -2.75274,1.001634 -10.30658,9.014094 -2.32543,5.529294 z m -2.27494,-2.66842 c 3.10624,-3.35353 -3.21421,3.22004 0,0 z m 17.60223,-4.7283 c 13.02851,-3.429031 -10.34144,-10.891033 -6.73854,-0.896447 2.08948,1.110816 4.44092,1.421747 6.73854,0.896447 z m 16.38107,5.98612 c -1.81757,-2.72793 2.32517,2.32237 0,0 z"
         id="path3130" />
      <path
         style="fill:#58210e;stroke-width:1.40551"
         d="m 197.45983,108.41629 c 0.0987,-1.75432 0.96964,-0.4091 0,0 z"
         id="path3174" />
      <path
         style="fill:#58210e;stroke-width:1.40551"
         d="m 210.45334,119.13191 c 0.28857,-1.25655 0.15462,1.59388 0,0 z"
         id="path3173" />
      <path
         style="fill:#58210e;stroke-width:1.40551"
         d="m 209.96155,121.38087 c 0.18418,-3.53099 0.18418,3.53101 0,0 z"
         id="path3172" />
      <path
         style="fill:#58210e;stroke-width:1.40551"
         d="m 230.46049,124.9043 c 1.15976,-0.37898 0.11472,0.50934 0,0 z"
         id="path3171" />
      <path
         style="fill:#58210e;stroke-width:1.40551"
         d="m 229.93132,125.43347 c 1.15979,-0.37899 0.1147,0.50937 0,0 z"
         id="path3170" />
      <path
         style="fill:#58210e;stroke-width:1.40551"
         d="m 210.72773,125.61421 c 0.21279,-1.65586 0.21279,1.65586 0,0 z"
         id="path3169" />
      <path
         style="fill:#58210e;stroke-width:1.40551"
         d="m 210.68723,127.04737 c 0.3819,-0.70468 0.11799,1.14072 0,0 z"
         id="path3168" />
      <path
         style="fill:#58210e;stroke-width:1.40551"
         d="m 191.2499,129.19539 c -1.28734,-3.56962 1.74465,2.63297 0,0 z"
         id="path3167" />
      <path
         style="fill:#58210e;stroke-width:1.40551"
         d="m 220.19135,130.54498 c 3.84638,-3.17834 6.17648,-2.11583 0,0 z"
         id="path3166" />
      <path
         style="fill:#58210e;stroke-width:1.40551"
         d="m 199.11969,132.01858 c -6.55882,-4.65418 5.26679,3.14814 0,0 z"
         id="path3165" />
      <path
         style="fill:#58210e;stroke-width:1.40551"
         d="m 212.9251,138.88798 c -0.17706,-7.93327 -0.12577,-15.87755 -0.49031,-23.81027 -7.42531,0.8982 -3.17947,-16.296218 -9.07668,-5.07392 -7.51012,6.393 -5.42102,-2.19194 -4.74354,-5.06647 -9.95279,6.0314 -3.96693,-5.871653 1.94199,-6.483347 5.111,-4.886949 14.57188,-13.220865 17.88744,-1.17463 6.89087,0.878728 17.89476,12.075777 5.18696,8.614727 1.18788,3.15349 0.39021,10.59064 -5.80159,3.74522 -4.06385,-6.022 -5.20208,8.47778 -4.70098,12.17706 0.45584,5.59551 -1.35256,24.58826 2.75198,10.94304 1.7e-4,-9.31157 21.74082,-8.47038 6.09675,-6.02113 -5.65487,0.16881 -6.26732,12.87979 -9.05202,12.14972 z m 14.21156,-13.71359 c -1.45702,-0.42946 -0.26443,0.46311 0,0 z m -14.78092,-10.96063 c 6.43126,-4.55698 -1.61441,-24.519678 -4.59496,-9.45604 -0.62053,2.95952 0.47362,10.93389 4.59496,9.45604 z m 11.27519,-2.71865 c 1.1419,-6.98322 -15.70201,-19.567876 -7.75237,-5.83659 4.93517,6.9923 0.4541,1.92185 7.51565,6.39536 z m -19.07327,-3.86994 c 5.055,-4.48712 4.72605,-13.349632 -1.75188,-5.06223 -4.87118,4.22743 -7.88076,14.03149 1.75188,5.06223 z m 24.56837,-1.44079 c -1.12765,-7.593194 -21.40481,-12.338503 -8.04217,-2.60523 2.11692,1.74493 5.27168,3.17559 8.04217,2.60523 z m -28.77843,-1.63929 c 3.66767,-5.132701 -4.66221,4.58258 0,0 z m -3.18214,0.67911 c 6.03862,-2.001 12.91804,-11.139268 2.45894,-5.61794 -2.72486,0.97603 -10.45617,9.03846 -2.45894,5.61794 z m 15.37705,-7.42319 c 12.25804,-2.310232 -8.21689,-12.604831 -7.20074,-1.125471 2.22613,1.175866 4.72121,1.757209 7.20074,1.125471 z"
         id="path3164" />
      <path
         style="fill:#58210e;stroke-width:1.40551"
         d="m 210.43769,135.42584 c -0.20447,-13.9811 0.98677,2.25424 0.0762,5.11781 -0.0659,-1.70518 -0.0626,-3.41177 -0.0762,-5.11781 z"
         id="path3163" />
      <path
         style="fill:#58210e;stroke-width:1.40551"
         d="m 209.26575,142.9472 c -1.21304,-9.05588 -8.34964,-17.20778 -18.04628,-15.60535 10.55767,-2.84746 17.46304,7.06298 18.58776,16.41758 z"
         id="path3162" />
      <path
         style="fill:#58210e;stroke-width:1.40551"
         d="m 210.55895,144.10135 c 0.44861,-4.10321 0.37119,3.44802 0,0 z"
         id="path3161" />
      <path
         style="fill:#58210e;stroke-width:1.40551"
         d="m 220.48925,145.55009 c 5.21378,-3.20319 1.47184,0.22888 1e-5,0 z"
         id="path3160" />
      <path
         style="fill:#58210e;stroke-width:1.40551"
         d="m 207.12124,144.24691 c -4.44016,-4.92174 -13.01519,-5.77391 -14.3282,-13.8702 2.34459,3.96831 5.67292,9.09863 5.94288,8.06211 -2.24711,-3.54497 16.08552,10.87834 8.38532,5.80809 z m -11.38436,-8.78327 c -1.34206,-1.20305 1.29983,1.97822 0,0 z"
         id="path3159" />
      <path
         style="fill:#58210e;stroke-width:1.40551"
         d="m 209.12743,146.43007 c -1.8179,-4.24294 3.05356,5.38941 0,0 z"
         id="path3158" />
      <path
         style="fill:#58210e;stroke-width:1.40551"
         d="m 212.52375,148.96368 c -1.72979,-9.65371 9.29919,-10.70593 13.01171,-16.37042 0.5041,-2.12309 11.20875,-12.59169 2.75246,-2.83018 -4.07918,8.32166 -18.31014,9.43401 -15.43881,21.25166 l -0.32541,-2.05106 z"
         id="path3157" />
      <path
         style="fill:#58210e;stroke-width:1.40551"
         d="m 212.78301,151.66758 c 3.54448,-5.38079 5.57252,-2.96355 0,0 z"
         id="path3156" />
      <path
         style="fill:#58210e;stroke-width:1.40551"
         d="m 210.57815,158.51073 c -0.10525,-4.49443 0.60737,-3.5592 -0.41207,-9.61319 1.13801,6.78129 0.65612,11.82453 5.45222,3.73758 6.82944,0.2578 22.46615,-12.30064 7.74805,-10.12618 -2.07373,0.25413 -11.22747,9.71248 -3.82206,1.40228 6.65365,-6.04071 17.84733,0.40337 5.63542,5.55719 -6.6848,1.99823 -11.62118,4.76213 -14.60156,9.04232 z m 0.26342,-1.74184 c -0.46307,0.26443 0.42943,1.45702 0,0 z m 11.43586,-14.17128 c -4.5283,1.6668 -0.58548,0.89273 0,0 z"
         id="path3155" />
      <path
         style="fill:#271c02;stroke-width:1.40551"
         d="m 218.33926,97.568364 c -0.43667,-0.98084 1.33753,0.996364 0,0 z"
         id="path3528" />
      <path
         style="fill:#271c02;stroke-width:1.40551"
         d="m 200.3476,98.626698 c 1.93896,-1.10935 -0.65605,1.04207 0,0 z"
         id="path3527" />
      <path
         style="fill:#271c02;stroke-width:1.40551"
         d="m 215.13051,98.692848 c -0.80153,-1.230664 1.45998,1.603452 0,0 z"
         id="path3526" />
      <path
         style="fill:#271c02;stroke-width:1.40551"
         d="m 216.18885,99.486598 c -0.80155,-1.230665 1.46001,1.603432 0,0 z"
         id="path3523" />
      <path
         style="fill:#271c02;stroke-width:1.40551"
         d="m 208.81426,99.700651 c 0.46369,-1.39159 0.41129,0.972279 0,0 z"
         id="path3522" />
      <path
         style="fill:#271c02;stroke-width:1.40551"
         d="m 217.28093,100.47879 c -0.43667,-0.980835 1.33752,0.99637 0,0 z"
         id="path3520" />
      <path
         style="fill:#271c02;stroke-width:1.40551"
         d="m 213.73244,101.93201 c -5.14501,-5.408653 -1.85422,-4.380261 0,0 z"
         id="path3516" />
      <path
         style="fill:#271c02;stroke-width:1.40551"
         d="m 195.45281,102.33091 c 1.98979,-1.92532 -1.37141,1.88485 0,0 z"
         id="path3515" />
      <path
         style="fill:#271c02;stroke-width:1.40551"
         d="m 207.31228,103.65379 c 1.7944,-4.374732 -0.84261,3.04411 0,0 z"
         id="path3513" />
      <path
         style="fill:#271c02;stroke-width:1.40551"
         d="m 221.44488,104.7937 c -5.06458,-5.042637 0.36163,-1.39954 0,0 z"
         id="path3512" />
      <path
         style="fill:#271c02;stroke-width:1.40551"
         d="m 207.01376,106.43192 c 0.28854,-1.25657 0.15461,1.59387 0,0 z"
         id="path3506" />
      <path
         style="fill:#271c02;stroke-width:1.40551"
         d="m 205.91693,106.27392 c 2.24924,-3.47586 -1.78768,3.73045 0,0 z"
         id="path3504" />
      <path
         style="fill:#271c02;stroke-width:1.40551"
         d="m 215.21584,107.75483 c 0.28857,-1.25655 0.15462,1.59388 0,0 z"
         id="path3497" />
      <path
         style="fill:#271c02;stroke-width:1.40551"
         d="m 204.58093,108.284 c 2.50251,-2.39152 -1.88255,2.35059 0,0 z"
         id="path3496" />
      <path
         style="fill:#271c02;stroke-width:1.40551"
         d="m 214.94146,109.21016 c 0.23154,-1.19259 0.23154,1.19259 0,0 z"
         id="path3491" />
      <path
         style="fill:#271c02;stroke-width:1.40551"
         d="m 217.40077,109.14396 c -2.34776,-2.40743 1.8314,1.73329 1.20308,1.04589 z"
         id="path3490" />
      <path
         style="fill:#271c02;stroke-width:1.40551"
         d="m 224.04257,110.34694 c -2.9561,-7.66743 -0.84057,0.1319 5e-5,0 z"
         id="path3487" />
      <path
         style="fill:#271c02;stroke-width:1.40551"
         d="m 214.11403,111.98825 c 0.21555,-1.47794 0.92717,-0.35973 0,0 z"
         id="path3484" />
      <path
         style="fill:#271c02;stroke-width:1.40551"
         d="m 224.04481,112.04295 c 0.9272,-1.20743 -0.335,1.10102 0,0 z"
         id="path3483" />
      <path
         style="fill:#271c02;stroke-width:1.40551"
         d="m 210.11354,114.43561 c -4.01327,-4.01986 4.91215,3.18221 0,0 z"
         id="path3481" />
      <path
         style="fill:#271c02;stroke-width:1.40551"
         d="m 210.72773,125.61426 c 0.21279,-1.65586 0.21279,1.65586 0,0 z"
         id="path3470" />
      <path
         style="fill:#271c02;stroke-width:1.40551"
         d="m 210.68723,127.04737 c 0.3819,-0.70468 0.11799,1.14072 0,0 z"
         id="path3466" />
      <path
         style="fill:#271c02;stroke-width:1.40551"
         d="m 190.94401,128.77158 c -0.32321,-1.327 0.86114,1.00767 0,0 z"
         id="path3459" />
      <path
         style="fill:#271c02;stroke-width:1.40551"
         d="m 221.24968,129.72202 c 4.45041,-2.8612 1.86326,0.0697 0,0 z"
         id="path3456" />
      <path
         style="fill:#271c02;stroke-width:1.40551"
         d="m 197.04218,130.64432 c 0.66959,-0.48386 1.05339,0.85231 0,0 z"
         id="path3452" />
      <path
         style="fill:#271c02;stroke-width:1.40551"
         d="m 195.18015,135.4866 c -4.37544,-8.28334 2.96178,2.13964 0,0 z m 0.14036,-0.61202 c -1.27955,-1.91392 0.68025,1.8807 0,0 z"
         id="path3441" />
      <path
         style="fill:#271c02;stroke-width:1.40551"
         d="m 212.88117,133.28709 c 0.70949,-6.44878 -1.41429,-13.62129 0.27485,-19.70456 -0.27758,0.14643 0.39679,24.59286 -0.28318,22.37481 l 0.008,-2.67025 z"
         id="path3432" />
      <path
         style="fill:#271c02;stroke-width:1.40551"
         d="m 219.15677,127.95104 c 0.69994,-1.97078 -2.10304,3.05688 0,0 z"
         id="path3431" />
      <path
         style="fill:#271c02;stroke-width:1.40551"
         d="m 213.66267,138.71105 c -1.15912,-8.13545 12.76394,-16.07068 12.74638,-13.23838 -4.06371,-1.39854 -10.58048,5.64137 -12.74638,13.23838 z"
         id="path3430" />
      <path
         style="fill:#271c02;stroke-width:1.40551"
         d="m 207.9264,138.50188 c -1.69781,-7.52498 -8.73353,-12.19564 -16.43176,-11.1615 8.10255,-2.35313 16.5228,5.15954 16.43176,11.1615 z"
         id="path3428" />
      <path
         style="fill:#271c02;stroke-width:1.40551"
         d="m 199.21839,138.70151 c -3.49386,-2.77532 3.72163,2.42182 0,0 z"
         id="path3427" />
      <path
         style="fill:#271c02;stroke-width:1.40551"
         d="m 198.18608,138.83625 c -3.82492,-3.56453 -1.11333,-1.25597 1.10318,0.41076 z"
         id="path3426" />
      <path
         style="fill:#271c02;stroke-width:1.40551"
         d="m 208.30598,140.01192 c 0.3819,-0.70465 0.11798,1.14071 0,0 z"
         id="path3423" />
      <path
         style="fill:#271c02;stroke-width:1.40551"
         d="m 215.29655,140.47009 c 6.80332,-3.52437 11.16256,-8.91045 15.71991,-14.47313 0.14872,3.7539 -13.48187,14.04158 -15.71991,14.47313 z"
         id="path3421" />
      <path
         style="fill:#271c02;stroke-width:1.40551"
         d="m 210.47901,135.13921 c -0.0853,-11.95851 0.76718,6.39226 0.006,3.34793 l -0.005,-1.42682 z"
         id="path3420" />
      <path
         style="fill:#271c02;stroke-width:1.40551"
         d="m 221.99382,142.3668 c 1.15978,-0.37898 0.11472,0.50934 0,0 z"
         id="path3416" />
      <path
         style="fill:#271c02;stroke-width:1.40551"
         d="m 223.05215,142.63138 c 1.15977,-0.37898 0.11473,0.50934 0,0 z"
         id="path3415" />
      <path
         style="fill:#271c02;stroke-width:1.40551"
         d="m 206.49346,143.09279 c -4.5818,-3.2981 -7.02529,-4.17562 -0.50991,-1.17221 0.59014,0.29594 2.53961,4.62039 0.50991,1.17221 z"
         id="path3407" />
      <path
         style="fill:#271c02;stroke-width:1.40551"
         d="m 209.01199,146.23049 c -2.29082,-4.54367 2.77626,4.3307 0,0 z"
         id="path3399" />
      <path
         style="fill:#271c02;stroke-width:1.40551"
         d="m 212.62627,150.34957 c -0.17406,-6.03682 1.94513,-11.57562 0.47329,-2.57675 0.0518,-0.66052 0.12318,5.25273 -0.47329,2.57675 z"
         id="path3394" />
      <path
         style="fill:#271c02;stroke-width:1.40551"
         d="m 213.78422,151.25698 c 3.63544,-6.88257 12.8362,-12.32348 2.70227,-3.28543 0.0245,-0.3598 -1.12513,2.71939 -2.70227,3.28543 z"
         id="path3392" />
      <path
         style="fill:#271c02;stroke-width:1.40551"
         d="m 210.52388,151.95047 c -0.40534,-5.62101 0.97785,4.96889 0,0 z"
         id="path3388" />
      <path
         style="fill:#271c02;stroke-width:1.40551"
         d="m 210.99231,154.45379 c 0.21279,-1.65586 0.21279,1.65586 0,0 z"
         id="path3386" />
      <path
         style="fill:#271c02;stroke-width:1.40551"
         d="m 213.04957,155.37983 c 4.33899,-5.55411 16.09741,-4.82297 17.52667,-12.77033 -7.5995,-0.39243 -8.01257,-1.1872 0,-0.35518 0.72511,8.3099 -13.50704,8.09751 -17.52667,13.12551 z"
         id="path3385" />
      <path
         style="fill:#271c02;stroke-width:1.40551"
         d="m 210.44354,155.24754 c 0.23154,-1.19259 0.23154,1.19259 0,0 z"
         id="path3382" />
      <path
         style="fill:#271c02;stroke-width:1.40551"
         d="m 212.52653,156.70275 c 0.21555,-1.47794 0.92717,-0.35973 0,0 z"
         id="path3381" />
      <path
         style="fill:#271c02;stroke-width:1.40551"
         d="m 210.42265,156.41611 c 0.3819,-0.70465 0.11795,1.14075 0,0 z"
         id="path3380" />
      <path
         style="fill:#271c02;stroke-width:1.40551"
         d="m 210.93093,157.23191 c 0.62801,-1.38825 0.22894,1.39756 0,0 z"
         id="path3378" />
      <path
         style="fill:#271c02;stroke-width:1.40551"
         d="m 210.42265,157.73899 c 0.3819,-0.70465 0.11795,1.14075 0,0 z"
         id="path3375" />
      <path
         style="fill:#271c02;stroke-width:1.40551"
         d="m 211.49799,158.18605 c -0.0869,-0.80305 2.18397,-0.89178 0,0 z"
         id="path3374" />
    </g>
  </g>
</svg>
