<?xml version="1.0" encoding="UTF-8" standalone="no"?>
<!-- Created with Inkscape (http://www.inkscape.org/) -->

<svg
   width="185"
   height="185"
   viewBox="0 0 48.947914 48.947918"
   version="1.1"
   id="svg1"
   xmlns="http://www.w3.org/2000/svg"
   xmlns:svg="http://www.w3.org/2000/svg">
  <defs
     id="defs1" />
  <g
     id="g11748"
     transform="matrix(0.97364251,0,0,0.97364251,-56.714747,-148.93286)"
     style="stroke-width:1.02707">
    <path
       style="fill:#fbdb6c;stroke-width:1.02707"
       d="m 81.001988,202.64508 c -0.612549,-0.32742 -1.739105,-1.02022 -2.503458,-1.53955 -1.560874,-1.06053 -3.060208,-1.5693 -4.624653,-1.5693 -1.138524,0 -2.229691,0.61682 -4.276809,2.41763 -1.839099,1.61782 -2.640739,1.25194 -1.504608,-0.68672 0.37508,-0.64003 0.681963,-1.22052 0.681963,-1.28999 0,-0.0695 -0.93781,-0.062 -2.084023,0.0165 -2.520351,0.17275 -3.720488,-0.0241 -4.484204,-0.73565 -0.941957,-0.87756 -0.713634,-1.09747 1.078123,-1.03839 0.909505,0.03 2.010833,0.0382 2.447396,0.0182 0.792701,-0.0363 0.79301,-0.0369 0.233567,-0.49345 -0.3081,-0.25143 -0.620192,-0.70904 -0.693538,-1.01691 -0.121546,-0.51019 -0.06022,-0.5407 0.692474,-0.34456 0.454207,0.11835 1.659268,0.50296 2.677913,0.85467 1.018646,0.35171 1.971146,0.56822 2.116667,0.48112 0.145521,-0.0871 0.889661,-0.1195 1.653646,-0.072 0.763984,0.0475 1.389062,-0.0182 1.389062,-0.14591 0,-0.43385 -3.376854,-1.89984 -5.065654,-2.19915 -0.924671,-0.16388 -2.217002,-0.40979 -2.871846,-0.54648 -0.654843,-0.13669 -1.992422,-0.26327 -2.972396,-0.28129 -2.097137,-0.0386 -2.735725,-0.47341 -1.695833,-1.15478 0.362367,-0.23743 1.029424,-0.44223 1.48235,-0.45511 0.966551,-0.0275 1.289087,-0.3523 0.543443,-0.54729 -0.657543,-0.17195 -1.265662,-1.41362 -0.880815,-1.79847 0.295631,-0.29563 2.729501,0.72965 2.729501,1.14981 0,0.26489 3.242721,1.78277 3.8086,1.78277 0.20935,0 0.426277,0.13692 0.48206,0.30427 0.05578,0.16735 0.26916,0.24836 0.474172,0.18002 0.260707,-0.0869 -0.02162,-0.54703 -0.939271,-1.53079 -1.635373,-1.75319 -2.871825,-2.54478 -5.225176,-3.34521 -2.166786,-0.73697 -2.569134,-1.02292 -2.569134,-1.82589 0,-0.55383 0.09002,-0.58711 1.25677,-0.46453 0.691224,0.0726 1.369881,0.23658 1.508125,0.36437 0.544552,0.50337 0.734427,0.19666 0.224705,-0.36297 -0.761695,-0.83627 -1.137517,-1.63911 -1.137517,-2.43 0,-1.5029 1.539556,-0.33088 2.784769,2.11997 0.619521,1.21935 2.044409,3.02201 2.388706,3.02201 0.253228,0 -0.179383,-1.1389 -0.729046,-1.91929 -0.900613,-1.27867 -1.483521,-3.99653 -1.007012,-4.69529 0.230127,-0.33746 0.3482,-0.29785 0.788711,0.26458 0.284937,0.3638 0.652363,1.01865 0.816502,1.45521 0.164139,0.43656 0.386181,1.02632 0.493426,1.31056 0.145472,0.38556 0.204484,0.26431 0.23237,-0.47746 0.04641,-1.23457 0.592394,-2.4206 1.114305,-2.4206 0.31327,0 0.387534,0.37691 0.364925,1.85208 -0.01561,1.01865 -0.120483,2.58561 -0.233045,3.48213 -0.112563,0.89652 -0.130163,1.92686 -0.03911,2.28963 0.199383,0.79441 2.079244,3.22768 2.785675,3.60575 0.496219,0.26557 0.49619,0.25318 -0.0017,-0.71718 -0.278652,-0.54308 -0.615503,-1.166 -0.748557,-1.38429 -0.304416,-0.4994 -1.073417,-3.01716 -1.073417,-3.51443 0,-0.20477 0.223361,-0.57444 0.496357,-0.8215 0.473258,-0.42829 0.522408,-0.40504 1.056167,0.49961 0.307895,0.52185 0.633505,1.24244 0.723578,1.60132 0.09007,0.35888 0.269642,0.71794 0.399042,0.79791 0.1294,0.08 0.235273,0.37059 0.235273,0.64581 0,0.27522 0.179942,0.60111 0.399871,0.72419 0.495845,0.27748 0.983043,1.85087 0.63897,2.06352 -0.808669,0.49978 0.92817,3.02758 2.738541,3.98567 0.722754,0.3825 0.732628,0.37753 0.60862,-0.30634 -0.207913,-1.14657 -2.00979,-4.43173 -2.872362,-5.23685 -0.64345,-0.6006 -0.73028,-0.79824 -0.431897,-0.98307 0.318687,-0.1974 0.309869,-0.39761 -0.06012,-1.36494 -0.23847,-0.62348 -0.585951,-1.55032 -0.77218,-2.05965 -2.908571,-7.95474 -3.933839,-10.13676 -4.963348,-10.5632 -0.770133,-0.319 -2.165263,-2.20341 -2.165263,-2.92463 0,-0.44186 0.704874,-1.59342 1.175288,-1.92009 0.918506,-0.63784 3.250203,0.0819 3.771013,1.164 0.588724,1.22322 0.598888,1.59724 0.07468,2.74795 l -0.532302,1.16847 0.819732,1.79032 c 0.450853,0.98467 1.17703,2.68328 1.613727,3.77469 0.436697,1.0914 1.007956,2.34156 1.269465,2.77812 0.261509,0.43656 0.627251,1.26764 0.81276,1.84684 0.27612,0.8621 0.385611,0.97648 0.603726,0.6307 0.234446,-0.37168 0.411948,-0.3234 1.478416,0.40212 0.666589,0.45348 1.364543,1.0031 1.551008,1.22138 0.281628,0.32968 0.310628,0.21769 0.171283,-0.66146 -0.09226,-0.58208 -0.347385,-1.20098 -0.566947,-1.37534 -1.412294,-1.12149 -2.996073,-2.85067 -2.92875,-3.19762 0.138022,-0.7113 0.569016,-0.61413 1.962723,0.44249 l 1.353947,1.02648 -0.364204,-1.21015 c -0.474842,-1.57778 -0.978566,-2.32185 -2.499861,-3.69261 -1.334204,-1.20219 -2.389159,-3.42052 -1.799871,-3.78471 0.501136,-0.30972 1.279212,0.0465 1.848844,0.8465 0.761743,1.06976 1.130514,0.70482 0.940433,-0.93069 -0.08652,-0.74443 -0.04542,-1.53211 0.09133,-1.75039 0.453498,-0.72387 1.378107,0.54437 1.527064,2.09459 0.07108,0.73975 0.239703,1.345 0.374718,1.345 0.135014,0 0.522677,-0.62508 0.861473,-1.38907 0.65073,-1.46739 1.535495,-2.47033 1.952111,-2.21285 0.696859,0.43068 0.485061,1.38833 -0.905153,4.09267 -1.3948,2.71326 -1.441712,2.87234 -1.279364,4.33837 0.196405,1.77356 0.483771,2.15282 0.581536,0.76749 0.09686,-1.37247 1.158653,-3.34766 1.799586,-3.34766 0.90743,0 0.804764,1.66327 -0.264561,4.28612 -0.517972,1.27049 -0.941768,2.63548 -0.941768,3.03332 0,0.39784 0.297657,2.18774 0.661459,3.97756 0.363802,1.78983 0.673658,3.7902 0.68857,4.44528 l 0.02711,1.19106 0.353025,-1.5875 c 0.194164,-0.87313 0.410605,-2.06375 0.48098,-2.64584 0.07038,-0.58208 0.252147,-1.6022 0.403937,-2.26692 0.603613,-2.64338 1.089084,-9.53177 1.089084,-15.45313 0,-3.3751 -0.07318,-6.20972 -0.162618,-6.29916 -0.08944,-0.0894 -0.435123,0.0159 -0.768184,0.23416 -0.370063,0.24248 -1.246706,0.39985 -2.254181,0.40467 -1.318649,0.006 -1.945996,-0.14732 -3.13442,-0.76757 -0.817193,-0.4265 -1.632878,-1.06128 -1.812634,-1.41063 -0.452204,-0.87882 -0.417518,-2.48596 0.06225,-2.88412 0.555196,-0.46078 0.494188,-0.79375 -0.145431,-0.79375 -2.316408,0 -3.947466,-3.29662 -2.660966,-5.37822 0.804099,-1.30106 2.239235,-1.83431 4.025154,-1.49561 0.751856,0.14258 1.41029,0.25924 1.463189,0.25924 0.0529,0 0.09618,-0.31959 0.09618,-0.71021 0,-0.92116 0.886009,-2.73982 1.713498,-3.51721 0.854645,-0.80289 2.902352,-1.02591 4.036199,-0.43957 0.768023,0.39716 2.187803,2.68687 2.187803,3.52832 0,0.43652 -0.130223,0.47134 1.690931,-0.45218 0.857252,-0.43472 1.843342,-0.7904 2.191311,-0.7904 0.931756,0 2.235936,0.61919 3.06307,1.45425 1.699036,1.71532 0.418945,5.05925 -2.315104,6.04764 -0.153432,0.0555 -0.07007,0.4343 0.198438,0.90177 1.042327,1.81469 0.342798,3.84566 -1.709242,4.96252 -1.283002,0.6983 -1.416318,0.71859 -2.647729,0.40299 -0.713186,-0.18278 -1.378962,-0.25007 -1.479501,-0.14953 -0.100539,0.10055 -0.198935,3.00062 -0.218656,6.44461 -0.04205,7.34345 -0.348824,11.51518 -1.309657,17.80968 -1.021946,6.69486 -0.978424,6.26853 -0.579922,5.68073 0.185865,-0.27416 0.590307,-0.80994 0.898761,-1.19062 0.968758,-1.19563 2.746467,-5.00852 2.746467,-5.89072 0,-0.46457 -0.386954,-1.95849 -0.859896,-3.31983 -0.743275,-2.13946 -0.806071,-2.50958 -0.463021,-2.72902 0.218281,-0.13963 0.477556,-0.25569 0.576166,-0.25792 0.285374,-0.006 1.805084,3.3766 1.805084,4.01832 0,1.2138 0.520649,0.0217 0.775023,-1.77448 0.252332,-1.78179 0.22996,-1.91919 -0.688305,-4.22758 -0.522012,-1.31226 -1.171793,-2.82767 -1.443957,-3.36758 -0.627868,-1.24553 -0.620765,-1.43725 0.05984,-1.61523 0.639271,-0.16717 1.297397,0.028 1.297397,0.38472 0,0.13463 0.185906,0.68744 0.413124,1.22847 0.490827,1.1687 0.748065,0.88346 1.008251,-1.11801 0.16732,-1.2871 1.054385,-2.66485 1.527501,-2.37245 0.35877,0.22173 0.281014,3.81269 -0.08256,3.81269 -0.169774,0 -0.240187,0.0685 -0.156473,0.15221 0.08371,0.0837 0.03767,0.53019 -0.102329,0.99218 -0.139995,0.46199 -0.28884,1.4353 -0.330767,2.1629 -0.07443,1.29161 -0.06811,1.30413 0.266785,0.52917 0.188657,-0.43657 0.348384,-0.92984 0.354948,-1.09617 0.0066,-0.16634 0.186599,-0.36945 0.40008,-0.45137 0.443363,-0.17014 2.786853,-4.96352 2.786853,-5.70024 0,-0.26734 -0.22129,-0.77002 -0.491756,-1.11706 -1.444149,-1.85305 -1.714786,-3.52915 -0.845106,-5.23387 0.556075,-1.09 1.643126,-1.70922 2.936005,-1.67246 1.215321,0.0345 3.893779,1.37085 4.787129,2.38832 0.69761,0.79454 0.79564,1.07925 0.67676,1.96558 -0.1795,1.33823 -0.67804,1.86362 -3.094282,3.2609 -1.732038,1.00162 -2.124072,1.37634 -3.082952,2.94675 -0.945014,1.5477 -3.796214,7.46612 -3.796214,7.88004 0,0.16577 -1.46724,3.12365 -3.403631,6.86155 -0.747537,1.443 -1.298465,2.68433 -1.224284,2.75851 0.185926,0.18593 4.386318,-3.87457 5.020184,-4.85298 0.932276,-1.43904 1.400713,-2.89382 1.593191,-4.94784 0.152391,-1.62625 0.310749,-2.14005 0.801739,-2.60131 l 0.61184,-0.5748 0.185099,1.23433 c 0.101804,0.67888 0.125552,1.76263 0.05277,2.40833 -0.169013,1.49947 0.34043,1.57636 1.204664,0.18181 0.744817,-1.20186 1.047878,-2.01547 1.650779,-4.43177 0.49782,-1.99516 0.77526,-2.51354 1.345257,-2.51354 0.55765,0 0.45624,2.00681 -0.18693,3.69903 l -0.55114,1.45007 0.54503,-0.49325 c 0.29977,-0.27128 0.48752,-0.58631 0.41721,-0.70006 -0.17828,-0.28848 1.16821,-1.83913 1.59698,-1.83913 0.19322,0 0.4014,-0.14883 0.46262,-0.33073 0.0877,-0.2604 0.20151,-0.25629 0.53549,0.0194 0.52677,0.43474 0.36372,0.9204 -0.79244,2.36044 -0.4959,0.61766 -0.84336,1.21731 -0.77213,1.33256 0.0712,0.11524 0.67846,0.1774 1.34942,0.13813 1.3301,-0.0778 1.86117,0.43093 1.16998,1.12086 -0.42945,0.42867 -4.686698,1.71037 -5.123878,1.54261 -0.566786,-0.2175 -4.900323,3.21063 -4.900323,3.8765 0,0.42813 4.471055,-1.19932 4.825266,-1.75639 0.107282,-0.16872 0.516738,-0.3875 0.909903,-0.48618 0.393172,-0.0987 1.049742,-0.41788 1.459052,-0.70933 0.91552,-0.65192 1.93391,-0.57019 1.93391,0.15519 0,0.34764 -0.49958,0.81252 -1.53041,1.42411 -0.84172,0.49938 -1.47621,0.96217 -1.40998,1.0284 0.0662,0.0662 1.03567,-0.19546 2.15428,-0.58156 1.17236,-0.40464 2.21788,-0.62093 2.46831,-0.51062 0.23895,0.10525 0.58329,0.16737 0.76519,0.13804 0.36999,-0.0597 0.42125,0.21175 0.12726,0.67379 -0.28445,0.44707 -2.94007,1.40238 -3.45696,1.24357 -0.30985,-0.0952 -0.2879,-0.0384 0.074,0.1912 0.75335,0.47809 1.73438,1.59247 1.73438,1.97013 0,0.18006 -0.26104,0.39564 -0.58009,0.47908 -0.40946,0.10707 -1.30315,-0.27978 -3.03839,-1.31523 l -2.4583,-1.46692 -1.790258,0.42887 c -2.323088,0.55651 -4.171075,1.39699 -5.345962,2.43138 -0.518217,0.45625 -1.2994,1.14299 -1.735963,1.5261 l -0.79375,0.69656 0.79375,-0.18 c 0.680096,-0.15422 3.175697,-1.25776 7.39771,-3.27123 1.366672,-0.65176 1.909433,-0.31775 1.323833,0.81467 -0.215955,0.41762 -0.650545,0.89732 -0.965756,1.06602 l -0.57311,0.30672 0.641995,0.32191 c 0.353097,0.17705 1.237307,0.48088 1.964911,0.67517 1.44786,0.38663 2.77813,1.22414 2.77813,1.74907 0,0.58035 -0.79666,0.81901 -1.945307,0.58276 -0.603574,-0.12414 -1.464,-0.27078 -1.912059,-0.32586 -0.448059,-0.0551 -1.390238,-0.40656 -2.09373,-0.78105 -0.703492,-0.3745 -1.348929,-0.64473 -1.434305,-0.6005 -0.08538,0.0442 -0.37048,0.1572 -0.633565,0.25106 -0.43945,0.15679 -0.420932,0.24593 0.227781,1.09643 0.653632,0.85696 0.732083,1.72492 0.155907,1.72492 -0.133951,0 -1.058532,-0.47625 -2.054625,-1.05833 -2.265961,-1.32415 -3.25473,-1.36847 -5.181271,-0.23221 -1.446892,0.85336 -3.378565,1.54725 -4.321205,1.55226 -0.296588,0.002 -1.040427,-0.26503 -1.652976,-0.59245 z m 0.429076,-4.49791 c -0.09908,-1.34607 -0.307443,-2.86412 -0.463034,-3.37344 -0.389288,-1.27432 -1.265325,-2.64584 -1.689994,-2.64584 -0.193644,0 -0.725909,-0.38695 -1.18281,-0.85989 -1.219154,-1.26196 -1.91247,-1.81915 -1.91247,-1.53697 0,0.13693 0.103684,0.31305 0.230409,0.39137 0.126725,0.0783 0.304346,0.51208 0.394714,0.96392 0.09037,0.45184 0.388759,1.13893 0.663093,1.52686 0.274334,0.38794 1.06776,2.01503 1.763167,3.61576 0.978852,2.25317 2.120055,4.36562 2.358431,4.36562 0.01025,0 -0.06243,-1.10133 -0.161506,-2.44739 z"
       id="path11705" />
    <path
       style="fill:#fb8601;stroke-width:1.02707"
       d="m 81.001988,202.64508 c -0.612549,-0.32742 -1.739105,-1.02022 -2.503458,-1.53955 -1.560874,-1.06053 -3.060208,-1.5693 -4.624653,-1.5693 -1.138524,0 -2.229691,0.61682 -4.276809,2.41763 -1.839099,1.61782 -2.640739,1.25194 -1.504608,-0.68672 0.37508,-0.64003 0.681963,-1.22052 0.681963,-1.28999 0,-0.0695 -0.93781,-0.062 -2.084023,0.0165 -2.520351,0.17275 -3.720488,-0.0241 -4.484204,-0.73565 -0.941957,-0.87756 -0.713634,-1.09747 1.078123,-1.03839 0.909505,0.03 2.010833,0.0382 2.447396,0.0182 0.792701,-0.0363 0.79301,-0.0369 0.233567,-0.49345 -0.3081,-0.25143 -0.620192,-0.70904 -0.693538,-1.01691 -0.121546,-0.51019 -0.06022,-0.5407 0.692474,-0.34456 0.454207,0.11835 1.659268,0.50296 2.677913,0.85467 1.018646,0.35171 1.971146,0.56822 2.116667,0.48112 0.145521,-0.0871 0.889661,-0.1195 1.653646,-0.072 0.763984,0.0475 1.389062,-0.0182 1.389062,-0.14591 0,-0.43385 -3.376854,-1.89984 -5.065654,-2.19915 -0.924671,-0.16388 -2.217002,-0.40979 -2.871846,-0.54648 -0.654843,-0.13669 -1.992422,-0.26327 -2.972396,-0.28129 -2.097137,-0.0386 -2.735725,-0.47341 -1.695833,-1.15478 0.362367,-0.23743 1.029424,-0.44223 1.48235,-0.45511 0.966551,-0.0275 1.289087,-0.3523 0.543443,-0.54729 -0.657543,-0.17195 -1.265662,-1.41362 -0.880815,-1.79847 0.295631,-0.29563 2.729501,0.72965 2.729501,1.14981 0,0.26489 3.242721,1.78277 3.8086,1.78277 0.20935,0 0.426277,0.13692 0.48206,0.30427 0.05578,0.16735 0.26916,0.24836 0.474172,0.18002 0.260707,-0.0869 -0.02162,-0.54703 -0.939271,-1.53079 -1.635373,-1.75319 -2.871825,-2.54478 -5.225176,-3.34521 -2.166786,-0.73697 -2.569134,-1.02292 -2.569134,-1.82589 0,-0.55383 0.09002,-0.58711 1.25677,-0.46453 0.691224,0.0726 1.369881,0.23658 1.508125,0.36437 0.544552,0.50337 0.734427,0.19666 0.224705,-0.36297 -0.761695,-0.83627 -1.137517,-1.63911 -1.137517,-2.43 0,-1.5029 1.539556,-0.33088 2.784769,2.11997 0.619521,1.21935 2.044409,3.02201 2.388706,3.02201 0.253228,0 -0.179383,-1.1389 -0.729046,-1.91929 -0.900613,-1.27867 -1.483521,-3.99653 -1.007012,-4.69529 0.230127,-0.33746 0.3482,-0.29785 0.788711,0.26458 0.284937,0.3638 0.652363,1.01865 0.816502,1.45521 0.164139,0.43656 0.386181,1.02632 0.493426,1.31056 0.145472,0.38556 0.204484,0.26431 0.23237,-0.47746 0.04641,-1.23457 0.592394,-2.4206 1.114305,-2.4206 0.313069,0 0.387948,0.37785 0.367029,1.85208 -0.01445,1.01865 -0.119325,2.58561 -0.233045,3.48213 -0.11372,0.89652 -0.132267,1.92686 -0.04122,2.28963 0.199383,0.79441 2.079244,3.22768 2.785675,3.60575 0.496219,0.26557 0.49619,0.25318 -0.0017,-0.71718 -0.278652,-0.54308 -0.615503,-1.166 -0.748557,-1.38429 -0.304416,-0.4994 -1.073417,-3.01716 -1.073417,-3.51443 0,-0.20477 0.223361,-0.57444 0.496357,-0.8215 0.473258,-0.42829 0.522408,-0.40504 1.056167,0.49961 0.307895,0.52185 0.633505,1.24244 0.723578,1.60132 0.09007,0.35888 0.269642,0.71794 0.399042,0.79791 0.1294,0.08 0.235273,0.37059 0.235273,0.64581 0,0.27522 0.179942,0.60111 0.399871,0.72419 0.495845,0.27748 0.983043,1.85087 0.63897,2.06352 -0.808669,0.49978 0.92817,3.02758 2.738541,3.98567 0.722754,0.3825 0.732628,0.37753 0.60862,-0.30634 -0.207913,-1.14657 -2.00979,-4.43173 -2.872362,-5.23685 -0.64345,-0.6006 -0.73028,-0.79824 -0.431897,-0.98307 0.318687,-0.1974 0.309869,-0.39761 -0.06012,-1.36494 -0.23847,-0.62348 -0.585765,-1.55032 -0.771766,-2.05965 -1.823609,-4.99355 -2.313755,-6.23769 -3.198093,-8.11773 -0.659467,-1.40199 -1.210188,-2.22555 -1.563139,-2.33758 -0.784081,-0.24885 -2.10321,-2.187 -2.10321,-3.09016 0,-2.31254 3.577026,-2.79178 4.608802,-0.61747 0.527845,1.11235 0.526996,1.74618 -0.0038,2.85933 -0.408917,0.85751 -0.395845,0.94255 0.418238,2.72096 0.462192,1.00968 1.197646,2.72875 1.634343,3.82016 0.436697,1.0914 1.007956,2.34156 1.269465,2.77812 0.261509,0.43656 0.627251,1.26764 0.81276,1.84684 0.27612,0.8621 0.385611,0.97648 0.603726,0.6307 0.234446,-0.37168 0.411948,-0.3234 1.478416,0.40212 0.666589,0.45348 1.364543,1.0031 1.551008,1.22138 0.281628,0.32968 0.310628,0.21769 0.171283,-0.66146 -0.09226,-0.58208 -0.347385,-1.20098 -0.566947,-1.37534 -1.412294,-1.12149 -2.996073,-2.85067 -2.92875,-3.19762 0.138022,-0.7113 0.569016,-0.61413 1.962723,0.44249 l 1.353947,1.02648 -0.364204,-1.21015 c -0.474333,-1.57609 -0.984721,-2.33625 -2.424909,-3.61158 -1.091052,-0.96615 -1.547485,-1.7006 -2.021583,-3.25292 -0.160479,-0.52545 -0.08869,-0.59531 0.611748,-0.59531 0.580436,0 0.945953,0.21401 1.360978,0.79686 0.787339,1.10571 1.153277,0.75014 0.977796,-0.95011 -0.104765,-1.01508 -0.04363,-1.48784 0.220793,-1.70729 0.515721,-0.42801 1.442737,1.14855 1.44404,2.45585 5.44e-4,0.5457 0.121977,0.99219 0.269853,0.99219 0.147875,0 0.471382,-0.44649 0.718904,-0.99219 0.729389,-1.60806 1.394945,-2.4474 1.940665,-2.4474 0.912648,0 0.616623,1.50213 -0.834267,4.23334 -1.285752,2.42034 -1.328745,2.56996 -1.159513,4.03537 0.205102,1.77601 0.491257,2.14904 0.588756,0.76749 0.09686,-1.37247 1.158653,-3.34766 1.799586,-3.34766 0.90743,0 0.804764,1.66327 -0.264561,4.28612 -0.517972,1.27049 -0.941768,2.63548 -0.941768,3.03332 0,0.39784 0.297657,2.18774 0.661459,3.97756 0.363802,1.78983 0.673658,3.7902 0.68857,4.44528 l 0.02711,1.19106 0.353025,-1.5875 c 0.194164,-0.87313 0.410605,-2.06375 0.48098,-2.64584 0.07038,-0.58208 0.252147,-1.6022 0.403937,-2.26692 0.57753,-2.52915 1.067152,-9.34685 1.104237,-15.37584 0.0212,-3.44613 -0.04139,-6.39502 -0.139092,-6.55309 -0.117653,-0.19037 -0.406776,-0.10717 -0.856277,0.24641 -1.497733,1.17811 -5.530642,0.30303 -6.956318,-1.50942 -0.638519,-0.81175 -0.685593,-2.11498 -0.10627,-2.94208 0.496251,-0.7085 0.575445,-0.61635 -1.046597,-1.2178 -1.061956,-0.39377 -1.370017,-0.66517 -1.780127,-1.5683 -0.602524,-1.32685 -0.630666,-2.07095 -0.115966,-3.06627 0.666937,-1.28972 1.636566,-1.8625 3.149821,-1.86068 0.74436,9e-4 1.651038,0.15696 2.01484,0.34682 0.653401,0.34098 0.661754,0.33183 0.685781,-0.75109 0.0278,-1.25316 0.968204,-3.11087 1.875806,-3.70555 0.869181,-0.56951 2.731004,-0.74551 3.512914,-0.33208 0.92203,0.48752 2.128039,2.30698 2.199418,3.31818 0.03325,0.47105 0.122114,0.85669 0.197474,0.85698 0.07536,2.9e-4 0.570843,-0.29427 1.101073,-0.65457 0.530231,-0.3603 1.512978,-0.7781 2.183883,-0.92846 1.042387,-0.2336 1.369295,-0.19711 2.247354,0.25084 1.62495,0.82899 2.210882,1.7527 2.06762,3.25958 -0.132662,1.39537 -0.728097,2.21393 -2.374868,3.26479 l -0.987919,0.63043 0.523909,0.85927 c 0.618908,1.01508 0.65854,1.74941 0.158947,2.9451 -0.724286,1.73347 -3.189151,2.73411 -4.944169,2.00716 -0.688719,-0.28528 -0.861306,-0.28005 -1.056587,0.032 -0.128373,0.20512 -0.232006,3.23045 -0.230294,6.72295 0.0036,7.42884 -0.269262,11.34092 -1.230321,17.63674 -1.021361,6.69084 -0.977908,6.26508 -0.579416,5.67729 0.185865,-0.27416 0.590307,-0.80994 0.898761,-1.19062 0.968758,-1.19563 2.746467,-5.00852 2.746467,-5.89072 0,-0.46457 -0.386954,-1.95849 -0.859896,-3.31983 -0.743275,-2.13946 -0.806071,-2.50958 -0.463021,-2.72902 0.218281,-0.13963 0.477556,-0.25569 0.576166,-0.25792 0.285374,-0.006 1.805084,3.3766 1.805084,4.01832 0,1.2138 0.520649,0.0217 0.775023,-1.77448 0.252332,-1.78179 0.22996,-1.91919 -0.688305,-4.22758 -0.522012,-1.31226 -1.171793,-2.82767 -1.443957,-3.36758 -0.612353,-1.21476 -0.616831,-1.43854 -0.03182,-1.59027 0.791706,-0.20533 1.150563,0.0754 1.682292,1.31583 0.282601,0.65928 0.587753,1.12476 0.678115,1.03439 0.09036,-0.0904 0.263107,-0.78936 0.383875,-1.55334 0.212699,-1.34552 0.88093,-2.60629 1.422906,-2.68463 0.263432,-0.0381 0.527582,2.81138 0.312563,3.37171 -0.06209,0.16181 -0.127832,0.35374 -0.146084,0.4265 -0.01825,0.0728 -0.158834,0.54901 -0.312404,1.05833 -0.153571,0.50932 -0.313523,1.52136 -0.35545,2.24896 -0.07443,1.29161 -0.06811,1.30413 0.266785,0.52917 0.188657,-0.43657 0.348384,-0.92984 0.354948,-1.09617 0.0066,-0.16634 0.189536,-0.37058 0.406606,-0.45388 0.463165,-0.17773 2.780327,-4.88068 2.780327,-5.643 0,-0.28679 -0.347247,-1.04787 -0.771661,-1.69128 -1.448697,-2.19623 -1.310689,-4.40012 0.355098,-5.67068 1.065201,-0.81247 2.033458,-0.83177 3.998711,-0.0797 4.224098,1.61647 4.619348,4.45387 0.915769,6.57395 -0.945886,0.54147 -2.112411,1.38602 -2.592278,1.87679 -0.823509,0.84222 -3.377067,5.71803 -4.540547,8.6698 -0.557709,1.41492 -1.432419,3.20898 -3.679183,7.54615 -0.747513,1.443 -1.298421,2.68433 -1.22424,2.75851 0.185926,0.18593 4.386318,-3.87457 5.020184,-4.85298 0.932276,-1.43904 1.400713,-2.89382 1.593191,-4.94784 0.152391,-1.62625 0.310749,-2.14005 0.801739,-2.60131 l 0.61184,-0.5748 0.185099,1.23433 c 0.101804,0.67888 0.125552,1.76263 0.05277,2.40833 -0.09919,0.88004 -0.04192,1.17399 0.228728,1.17399 0.508268,0 1.584116,-1.79862 2.079859,-3.47714 1.090283,-3.69157 1.34432,-4.32806 1.727417,-4.32806 0.63594,0 0.63532,1.80226 -0.001,3.5035 -0.559113,1.49439 -0.559274,1.50164 -0.0226,1.01597 0.29728,-0.26903 0.48299,-0.58222 0.41268,-0.69597 -0.17828,-0.28848 1.16821,-1.83913 1.59698,-1.83913 0.19322,0 0.4014,-0.14883 0.46262,-0.33073 0.0877,-0.2604 0.20151,-0.25629 0.53549,0.0194 0.52677,0.43474 0.36372,0.9204 -0.79244,2.36044 -0.4959,0.61766 -0.84336,1.21731 -0.77213,1.33256 0.0712,0.11524 0.67846,0.1774 1.34942,0.13813 1.3301,-0.0778 1.86117,0.43093 1.16998,1.12086 -0.42945,0.42867 -4.686692,1.71037 -5.123872,1.54261 -0.566786,-0.2175 -4.900323,3.21063 -4.900323,3.8765 0,0.42813 4.471055,-1.19932 4.825266,-1.75639 0.107282,-0.16872 0.516738,-0.3875 0.909903,-0.48618 0.393166,-0.0987 1.049736,-0.41788 1.459046,-0.70933 0.91552,-0.65192 1.93391,-0.57019 1.93391,0.15519 0,0.34764 -0.49958,0.81252 -1.53041,1.42411 -0.84172,0.49938 -1.47621,0.96217 -1.40998,1.0284 0.0662,0.0662 1.03567,-0.19546 2.15428,-0.58156 1.17236,-0.40464 2.21788,-0.62093 2.46831,-0.51062 0.23895,0.10525 0.58329,0.16737 0.76519,0.13804 0.36999,-0.0597 0.42125,0.21175 0.12726,0.67379 -0.28445,0.44707 -2.94007,1.40238 -3.45696,1.24357 -0.30985,-0.0952 -0.2879,-0.0384 0.074,0.1912 0.75335,0.47809 1.73438,1.59247 1.73438,1.97013 0,0.18006 -0.26104,0.39564 -0.58009,0.47908 -0.40946,0.10707 -1.30315,-0.27978 -3.03839,-1.31523 l -2.458294,-1.46692 -1.790258,0.42887 c -2.323088,0.55651 -4.171075,1.39699 -5.345962,2.43138 -0.518217,0.45625 -1.2994,1.14299 -1.735963,1.5261 l -0.79375,0.69656 0.79375,-0.18 c 0.680096,-0.15422 3.175697,-1.25776 7.39771,-3.27123 1.366672,-0.65176 1.909433,-0.31775 1.323833,0.81467 -0.215955,0.41762 -0.650545,0.89732 -0.965756,1.06602 l -0.57311,0.30672 0.641995,0.32191 c 0.353097,0.17705 1.237307,0.48088 1.964911,0.67517 1.447854,0.38663 2.778124,1.22414 2.778124,1.74907 0,0.58035 -0.79666,0.81901 -1.945301,0.58276 -0.603574,-0.12414 -1.464,-0.27078 -1.912059,-0.32586 -0.448059,-0.0551 -1.390238,-0.40656 -2.09373,-0.78105 -0.703492,-0.3745 -1.348929,-0.64473 -1.434305,-0.6005 -0.08538,0.0442 -0.37048,0.1572 -0.633565,0.25106 -0.43945,0.15679 -0.420932,0.24593 0.227781,1.09643 0.653632,0.85696 0.732083,1.72492 0.155907,1.72492 -0.133951,0 -1.058532,-0.47625 -2.054625,-1.05833 -2.265961,-1.32415 -3.25473,-1.36847 -5.181271,-0.23221 -1.446892,0.85336 -3.378565,1.54725 -4.321205,1.55226 -0.296588,0.002 -1.040427,-0.26503 -1.652976,-0.59245 z m 0.429076,-4.49791 c -0.09908,-1.34607 -0.307443,-2.86412 -0.463034,-3.37344 -0.389288,-1.27432 -1.265325,-2.64584 -1.689994,-2.64584 -0.193644,0 -0.725909,-0.38695 -1.18281,-0.85989 -1.219154,-1.26196 -1.91247,-1.81915 -1.91247,-1.53697 0,0.13693 0.103684,0.31305 0.230409,0.39137 0.126725,0.0783 0.304346,0.51208 0.394714,0.96392 0.09037,0.45184 0.388759,1.13893 0.663093,1.52686 0.274334,0.38794 1.06776,2.01503 1.763167,3.61576 0.978852,2.25317 2.120055,4.36562 2.358431,4.36562 0.01025,0 -0.06243,-1.10133 -0.161506,-2.44739 z"
       id="path11662" />
    <path
       style="fill:#5a9b88;stroke-width:1.02707"
       d="m 83.444739,164.00542 c -0.249274,-0.1395 -0.987954,-0.2429 -1.641511,-0.22979 -1.165148,0.0234 -1.179119,0.0137 -0.717538,-0.49631 0.25891,-0.2861 0.630887,-0.52017 0.826614,-0.52017 0.633527,0 0.380433,-1.27653 -0.437882,-2.20854 -1.180786,-1.34484 -0.959835,-1.50411 0.330729,-0.2384 1.092728,1.07168 1.909786,1.30469 2.751287,0.78461 0.154828,-0.0957 0.774869,-0.23597 1.37787,-0.31173 0.868558,-0.10913 1.096364,-0.0535 1.096364,0.26786 0,0.41932 0.325159,0.89683 1.124479,1.65132 0.557206,0.52597 0.60468,0.88638 0.09078,0.68918 -0.204734,-0.0786 -0.948874,0.0594 -1.653646,0.30649 -1.558413,0.54648 -2.545686,0.6423 -3.147545,0.30548 z"
       id="path11623" />
    <path
       style="fill:#5a9b88;stroke-width:1.02707"
       d="m 81.001988,202.64508 c -0.612549,-0.32742 -1.739105,-1.02022 -2.503458,-1.53955 -1.560874,-1.06053 -3.060208,-1.5693 -4.624653,-1.5693 -1.138524,0 -2.229691,0.61682 -4.276809,2.41763 -1.839099,1.61782 -2.640739,1.25194 -1.504608,-0.68672 0.37508,-0.64003 0.681963,-1.22052 0.681963,-1.28999 0,-0.0695 -0.93781,-0.062 -2.084023,0.0165 -2.520351,0.17275 -3.720488,-0.0241 -4.484204,-0.73565 -0.941957,-0.87756 -0.713634,-1.09747 1.078123,-1.03839 0.909505,0.03 2.010833,0.0382 2.447396,0.0182 0.792701,-0.0363 0.79301,-0.0369 0.233567,-0.49345 -0.3081,-0.25143 -0.620192,-0.70904 -0.693538,-1.01691 -0.121546,-0.51019 -0.06022,-0.5407 0.692474,-0.34456 0.454207,0.11835 1.659268,0.50296 2.677913,0.85467 1.018646,0.35171 1.971146,0.56822 2.116667,0.48112 0.145521,-0.0871 0.889661,-0.1195 1.653646,-0.072 0.763984,0.0475 1.389062,-0.0182 1.389062,-0.14591 0,-0.43385 -3.376854,-1.89984 -5.065654,-2.19915 -0.924671,-0.16388 -2.217002,-0.40979 -2.871846,-0.54648 -0.654843,-0.13669 -1.992422,-0.26327 -2.972396,-0.28129 -2.097137,-0.0386 -2.735725,-0.47341 -1.695833,-1.15478 0.362367,-0.23743 1.029424,-0.44223 1.48235,-0.45511 0.966551,-0.0275 1.289087,-0.3523 0.543443,-0.54729 -0.657543,-0.17195 -1.265662,-1.41362 -0.880815,-1.79847 0.295631,-0.29563 2.729501,0.72965 2.729501,1.14981 0,0.26489 3.242721,1.78277 3.8086,1.78277 0.20935,0 0.426277,0.13692 0.48206,0.30427 0.05578,0.16735 0.26916,0.24836 0.474172,0.18002 0.260707,-0.0869 -0.02162,-0.54703 -0.939271,-1.53079 -1.635373,-1.75319 -2.871825,-2.54478 -5.225176,-3.34521 -2.166786,-0.73697 -2.569134,-1.02292 -2.569134,-1.82589 0,-0.55383 0.09002,-0.58711 1.25677,-0.46453 0.691224,0.0726 1.369881,0.23658 1.508125,0.36437 0.544552,0.50337 0.734427,0.19666 0.224705,-0.36297 -0.761695,-0.83627 -1.137517,-1.63911 -1.137517,-2.43 0,-1.5029 1.539556,-0.33088 2.784769,2.11997 0.619521,1.21935 2.044409,3.02201 2.388706,3.02201 0.253228,0 -0.179383,-1.1389 -0.729046,-1.91929 -0.900613,-1.27867 -1.483521,-3.99653 -1.007012,-4.69529 0.230127,-0.33746 0.3482,-0.29785 0.788711,0.26458 0.284937,0.3638 0.652363,1.01865 0.816502,1.45521 0.164139,0.43656 0.386181,1.02632 0.493426,1.31056 0.145472,0.38556 0.204484,0.26431 0.23237,-0.47746 0.04641,-1.23457 0.592394,-2.4206 1.114305,-2.4206 0.313069,0 0.387948,0.37785 0.367029,1.85208 -0.01445,1.01865 -0.119325,2.58561 -0.233045,3.48213 -0.11372,0.89652 -0.132267,1.92686 -0.04122,2.28963 0.199383,0.79441 2.079244,3.22768 2.785675,3.60575 0.496219,0.26557 0.49619,0.25318 -0.0017,-0.71718 -0.278652,-0.54308 -0.615503,-1.166 -0.748557,-1.38429 -0.304416,-0.4994 -1.073417,-3.01716 -1.073417,-3.51443 0,-0.20477 0.223361,-0.57444 0.496357,-0.8215 0.473258,-0.42829 0.522408,-0.40504 1.056167,0.49961 0.307895,0.52185 0.633505,1.24244 0.723578,1.60132 0.09007,0.35888 0.269642,0.71794 0.399042,0.79791 0.1294,0.08 0.235273,0.37059 0.235273,0.64581 0,0.27522 0.179942,0.60111 0.399871,0.72419 0.495845,0.27748 0.983043,1.85087 0.63897,2.06352 -0.808669,0.49978 0.92817,3.02758 2.738541,3.98567 0.722754,0.3825 0.732628,0.37753 0.60862,-0.30634 -0.207913,-1.14657 -2.00979,-4.43173 -2.872362,-5.23685 -0.64345,-0.6006 -0.73028,-0.79824 -0.431897,-0.98307 0.318687,-0.1974 0.309869,-0.39761 -0.06012,-1.36494 -0.23847,-0.62348 -0.585765,-1.55032 -0.771766,-2.05965 -1.822755,-4.99121 -2.31182,-6.23364 -3.182967,-8.08604 -0.670527,-1.42581 -1.216934,-2.23037 -1.648166,-2.42685 -0.647377,-0.29496 -1.994094,-1.92381 -1.588305,-1.92105 0.11905,8.2e-4 0.679478,0.13004 1.245395,0.28717 0.895732,0.24871 1.124571,0.21499 1.76762,-0.26043 0.679055,-0.50205 0.748498,-0.50921 0.860325,-0.0887 0.06691,0.25157 0.05642,-0.12675 -0.02331,-0.84071 -0.102763,-0.92025 -0.05881,-1.24487 0.151007,-1.1152 0.566375,0.35004 0.671631,1.99378 0.195309,3.05007 -0.447349,0.99204 -0.444282,1.01453 0.385638,2.82745 0.460115,1.0051 1.193871,2.72043 1.630568,3.81184 0.436697,1.0914 1.007956,2.34156 1.269465,2.77812 0.261509,0.43656 0.627251,1.26764 0.81276,1.84684 0.27612,0.8621 0.385611,0.97648 0.603726,0.6307 0.234446,-0.37168 0.411948,-0.3234 1.478416,0.40212 0.666589,0.45348 1.364543,1.0031 1.551008,1.22138 0.281628,0.32968 0.310628,0.21769 0.171283,-0.66146 -0.09226,-0.58208 -0.347385,-1.20098 -0.566947,-1.37534 -1.412294,-1.12149 -2.996073,-2.85067 -2.92875,-3.19762 0.138022,-0.7113 0.569016,-0.61413 1.962723,0.44249 l 1.353947,1.02648 -0.364204,-1.21015 c -0.474333,-1.57609 -0.984721,-2.33625 -2.424909,-3.61158 -1.091052,-0.96615 -1.547485,-1.7006 -2.021583,-3.25292 -0.160479,-0.52545 -0.08869,-0.59531 0.611748,-0.59531 0.580436,0 0.945953,0.21401 1.360978,0.79686 0.787339,1.10571 1.153277,0.75014 0.977796,-0.95011 -0.104765,-1.01508 -0.04363,-1.48784 0.220793,-1.70729 0.515721,-0.42801 1.442737,1.14855 1.44404,2.45585 5.44e-4,0.5457 0.121977,0.99219 0.269853,0.99219 0.147875,0 0.471382,-0.44649 0.718904,-0.99219 0.729389,-1.60806 1.394945,-2.4474 1.940665,-2.4474 0.912648,0 0.616623,1.50213 -0.834267,4.23334 -1.285752,2.42034 -1.328745,2.56996 -1.159513,4.03537 0.205102,1.77601 0.491257,2.14904 0.588756,0.76749 0.09686,-1.37247 1.158653,-3.34766 1.799586,-3.34766 0.90743,0 0.804764,1.66327 -0.264561,4.28612 -0.517972,1.27049 -0.941768,2.63548 -0.941768,3.03332 0,0.39784 0.297657,2.18774 0.661459,3.97756 0.363802,1.78983 0.673658,3.7902 0.68857,4.44528 l 0.02711,1.19106 0.353025,-1.5875 c 0.194164,-0.87313 0.410605,-2.06375 0.48098,-2.64584 0.07038,-0.58208 0.252147,-1.6022 0.403937,-2.26692 0.583865,-2.5569 1.066525,-9.38097 1.112196,-15.72474 0.02619,-3.63802 0.12972,-6.84336 0.230065,-7.12296 0.174485,-0.48621 0.200565,-0.48251 0.597856,0.0847 0.228477,0.3262 0.457884,0.46522 0.509794,0.30894 0.208881,-0.62887 -0.03098,12.79953 -0.290343,16.25432 -0.152945,2.03729 -0.569412,5.60916 -0.925483,7.9375 -1.059982,6.93118 -1.005706,6.41757 -0.618378,5.85153 0.187597,-0.27416 0.593456,-0.80994 0.90191,-1.19062 0.968758,-1.19563 2.746467,-5.00852 2.746467,-5.89072 0,-0.46457 -0.386954,-1.95849 -0.859896,-3.31983 -0.743275,-2.13946 -0.806071,-2.50958 -0.463021,-2.72902 0.218281,-0.13963 0.477556,-0.25569 0.576166,-0.25792 0.285374,-0.006 1.805084,3.3766 1.805084,4.01832 0,1.2138 0.520649,0.0217 0.775023,-1.77448 0.252332,-1.78179 0.22996,-1.91919 -0.688305,-4.22758 -0.522012,-1.31226 -1.171793,-2.82767 -1.443957,-3.36758 -0.612353,-1.21476 -0.616831,-1.43854 -0.03182,-1.59027 0.791706,-0.20533 1.150563,0.0754 1.682292,1.31583 0.282601,0.65928 0.587753,1.12476 0.678115,1.03439 0.09036,-0.0904 0.263107,-0.78936 0.383875,-1.55334 0.212699,-1.34552 0.88093,-2.60629 1.422906,-2.68463 0.263432,-0.0381 0.527582,2.81138 0.312563,3.37171 -0.06209,0.16181 -0.127832,0.35374 -0.146084,0.4265 -0.01825,0.0728 -0.158834,0.54901 -0.312404,1.05833 -0.153571,0.50932 -0.313523,1.52136 -0.35545,2.24896 -0.07443,1.29161 -0.06811,1.30413 0.266785,0.52917 0.188657,-0.43657 0.348384,-0.92984 0.354948,-1.09617 0.0066,-0.16634 0.189536,-0.37058 0.406606,-0.45388 0.217071,-0.0833 0.944342,-1.29659 1.616159,-2.69621 0.921359,-1.9195 1.183564,-2.73437 1.06715,-3.31644 -0.158166,-0.79083 0.168389,-1.04485 0.546892,-0.42541 0.116371,0.19045 0.591568,0.49966 1.055991,0.68714 l 0.844407,0.34088 -1.036778,1.51888 c -0.861146,1.26158 -4.22391,8.1127 -4.22391,8.60557 0,0.17123 -1.444186,3.08521 -3.403631,6.86761 -0.747537,1.443 -1.298465,2.68433 -1.224284,2.75851 0.185926,0.18593 4.386318,-3.87457 5.020184,-4.85298 0.932276,-1.43904 1.400713,-2.89382 1.593191,-4.94784 0.152391,-1.62625 0.310749,-2.14005 0.801739,-2.60131 l 0.61184,-0.5748 0.185099,1.23433 c 0.101804,0.67888 0.125552,1.76263 0.05277,2.40833 -0.09919,0.88004 -0.04192,1.17399 0.228728,1.17399 0.508268,0 1.584116,-1.79862 2.079859,-3.47714 1.090283,-3.69157 1.34432,-4.32806 1.727424,-4.32806 0.63594,0 0.63532,1.80226 -10e-4,3.5035 -0.55912,1.49439 -0.559281,1.50164 -0.0226,1.01597 0.29728,-0.26903 0.48299,-0.58222 0.41268,-0.69597 -0.17828,-0.28848 1.16821,-1.83913 1.59698,-1.83913 0.19322,0 0.4014,-0.14883 0.46262,-0.33073 0.0877,-0.2604 0.20151,-0.25629 0.53549,0.0194 0.52677,0.43474 0.36372,0.9204 -0.79244,2.36044 -0.4959,0.61766 -0.84336,1.21731 -0.77213,1.33256 0.0712,0.11524 0.67846,0.1774 1.34942,0.13813 1.3301,-0.0778 1.86117,0.43093 1.16998,1.12086 -0.42945,0.42867 -4.686699,1.71037 -5.123879,1.54261 -0.566786,-0.2175 -4.900323,3.21063 -4.900323,3.8765 0,0.42813 4.471055,-1.19932 4.825266,-1.75639 0.107282,-0.16872 0.516738,-0.3875 0.909903,-0.48618 0.393173,-0.0987 1.049743,-0.41788 1.459053,-0.70933 0.91552,-0.65192 1.93391,-0.57019 1.93391,0.15519 0,0.34764 -0.49958,0.81252 -1.53041,1.42411 -0.84172,0.49938 -1.47621,0.96217 -1.40998,1.0284 0.0662,0.0662 1.03567,-0.19546 2.15428,-0.58156 1.17236,-0.40464 2.21788,-0.62093 2.46831,-0.51062 0.23895,0.10525 0.58329,0.16737 0.76519,0.13804 0.36999,-0.0597 0.42125,0.21175 0.12726,0.67379 -0.28445,0.44707 -2.94007,1.40238 -3.45696,1.24357 -0.30985,-0.0952 -0.2879,-0.0384 0.074,0.1912 0.75335,0.47809 1.73438,1.59247 1.73438,1.97013 0,0.18006 -0.26104,0.39564 -0.58009,0.47908 -0.40946,0.10707 -1.30315,-0.27978 -3.03839,-1.31523 l -2.458301,-1.46692 -1.790258,0.42887 c -2.323088,0.55651 -4.171075,1.39699 -5.345962,2.43138 -0.518217,0.45625 -1.2994,1.14299 -1.735963,1.5261 l -0.79375,0.69656 0.79375,-0.18 c 0.680096,-0.15422 3.175697,-1.25776 7.39771,-3.27123 1.366672,-0.65176 1.909433,-0.31775 1.323833,0.81467 -0.215955,0.41762 -0.650545,0.89732 -0.965756,1.06602 l -0.57311,0.30672 0.641995,0.32191 c 0.353097,0.17705 1.237307,0.48088 1.964911,0.67517 1.447861,0.38663 2.778131,1.22414 2.778131,1.74907 0,0.58035 -0.79666,0.81901 -1.945308,0.58276 -0.603574,-0.12414 -1.464,-0.27078 -1.912059,-0.32586 -0.448059,-0.0551 -1.390238,-0.40656 -2.09373,-0.78105 -0.703492,-0.3745 -1.348929,-0.64473 -1.434305,-0.6005 -0.08538,0.0442 -0.37048,0.1572 -0.633565,0.25106 -0.43945,0.15679 -0.420932,0.24593 0.227781,1.09643 0.653632,0.85696 0.732083,1.72492 0.155907,1.72492 -0.133951,0 -1.058532,-0.47625 -2.054625,-1.05833 -2.265961,-1.32415 -3.25473,-1.36847 -5.181271,-0.23221 -1.446892,0.85336 -3.378565,1.54725 -4.321205,1.55226 -0.296588,0.002 -1.040427,-0.26503 -1.652976,-0.59245 z m 0.429076,-4.49791 c -0.09908,-1.34607 -0.307443,-2.86412 -0.463034,-3.37344 -0.389288,-1.27432 -1.265325,-2.64584 -1.689994,-2.64584 -0.193644,0 -0.725909,-0.38695 -1.18281,-0.85989 -1.219154,-1.26196 -1.91247,-1.81915 -1.91247,-1.53697 0,0.13693 0.103684,0.31305 0.230409,0.39137 0.126725,0.0783 0.304346,0.51208 0.394714,0.96392 0.09037,0.45184 0.388759,1.13893 0.663093,1.52686 0.274334,0.38794 1.06776,2.01503 1.763167,3.61576 0.978852,2.25317 2.120055,4.36562 2.358431,4.36562 0.01025,0 -0.06243,-1.10133 -0.161506,-2.44739 z"
       id="path11619" />
    <path
       style="fill:#478c79;stroke-width:1.02707"
       d="m 83.444739,164.00542 c -0.249274,-0.1395 -0.987954,-0.2429 -1.641511,-0.22979 -1.165148,0.0234 -1.179119,0.0137 -0.717538,-0.49631 0.25891,-0.2861 0.630887,-0.52017 0.826614,-0.52017 0.633527,0 0.380433,-1.27653 -0.437882,-2.20854 -1.180786,-1.34484 -0.959835,-1.50411 0.330729,-0.2384 1.092728,1.07168 1.909786,1.30469 2.751287,0.78461 0.154828,-0.0957 0.774869,-0.23597 1.37787,-0.31173 0.868558,-0.10913 1.096364,-0.0535 1.096364,0.26786 0,0.41932 0.325159,0.89683 1.124479,1.65132 0.557206,0.52597 0.60468,0.88638 0.09078,0.68918 -0.204734,-0.0786 -0.948874,0.0594 -1.653646,0.30649 -1.558413,0.54648 -2.545686,0.6423 -3.147545,0.30548 z"
       id="path10636" />
    <path
       style="fill:#478c79;stroke-width:1.02707"
       d="m 78.919577,183.91773 c -0.0882,-0.44101 -0.472179,-1.04711 -0.853282,-1.34688 -0.381103,-0.29978 -0.680048,-0.62356 -0.664322,-0.71952 0.01573,-0.096 -0.294867,-0.31048 -0.690206,-0.47671 -0.730032,-0.30695 -1.851928,-2.1954 -1.851928,-3.11728 0,-0.38267 0.137421,-0.43982 0.711262,-0.2958 0.74856,0.18788 1.542697,1.00702 1.122331,1.15767 -0.474281,0.16998 -0.240811,0.54187 0.27751,0.44205 0.287982,-0.0555 0.592665,0.0109 0.677073,0.14748 0.08441,0.13658 0.02738,0.24832 -0.126728,0.24832 -0.154109,0 -0.280198,0.25271 -0.280198,0.56157 0,0.44184 0.07626,0.49827 0.357716,0.26468 0.24677,-0.2048 0.363446,-1.00169 0.376189,-2.56935 0.01016,-1.24986 0.08575,-2.33975 0.167977,-2.42197 0.226393,-0.2264 1.009805,1.75975 1.225032,3.10576 0.149686,0.93612 0.09177,1.31481 -0.271762,1.77696 -0.254092,0.32303 -0.556293,0.50206 -0.671558,0.39786 -0.115265,-0.10421 -0.131071,0.0286 -0.03513,0.29519 0.09595,0.26657 0.174448,0.60102 0.174448,0.74322 0,0.14221 0.127179,0.17996 0.282621,0.0839 0.155441,-0.0961 0.219257,-0.33979 0.141813,-0.54161 -0.07744,-0.20181 -0.0558,-0.35426 0.04811,-0.33878 0.656742,0.0979 1.067535,-0.11684 1.331399,-0.69596 0.183336,-0.40238 0.19997,-0.66146 0.04247,-0.66146 -0.142401,0 -0.258911,0.17157 -0.258911,0.38126 0,0.2097 -0.119063,0.45485 -0.264584,0.54478 -0.483474,0.29881 -0.273243,-0.65922 0.24135,-1.09983 0.278262,-0.23825 0.449569,-0.58007 0.380681,-0.75959 -0.06889,-0.17952 0.133986,-0.8779 0.450832,-1.55197 0.567627,-1.20757 1.043804,-1.7745 1.043804,-1.24273 0,0.14954 0.178594,0.20336 0.396875,0.1196 0.271809,-0.10431 0.396875,0.0156 0.396875,0.38051 0,0.71451 -1.425436,3.8568 -2.03045,4.47601 -0.2657,0.27193 -0.524758,0.72745 -0.575682,1.01225 -0.05093,0.28481 -0.229519,0.60531 -0.396875,0.71222 -0.2215,0.1415 -0.214305,0.19549 0.02645,0.19844 0.1855,0.002 0.327034,0.32355 0.322314,0.73166 -0.0082,0.71095 -0.01806,0.71549 -0.429941,0.19843 -0.41586,-0.52205 -0.419636,-0.52116 -0.280939,0.0661 0.07732,0.32742 0.0297,0.59531 -0.10584,0.59531 -0.135535,0 -0.318593,-0.36082 -0.406794,-0.80183 z"
       id="path10630" />
    <path
       style="fill:#478c79;stroke-width:1.02707"
       d="m 79.530032,186.12656 c -0.361866,-0.36187 -0.149696,-1.0866 0.35689,-1.21908 0.305851,-0.08 0.525616,-0.009 0.520752,0.16758 -0.01246,0.45316 -0.678273,1.25087 -0.877642,1.0515 z"
       id="path10628" />
    <path
       style="fill:#478c79;stroke-width:1.02707"
       d="m 90.470255,186.6187 c 0,-0.3008 -0.416719,-1.46133 -0.926041,-2.57897 -0.509323,-1.11764 -0.926042,-2.25533 -0.926042,-2.5282 0,-0.27287 -0.105176,-0.49613 -0.233725,-0.49613 -0.384363,0 -0.568344,-1.15377 -0.219348,-1.37555 0.660006,-0.41942 0.973187,-0.17617 1.430337,1.11096 0.258422,0.72761 0.552951,1.32292 0.654509,1.32292 0.178611,0 0.561715,-0.91536 0.609045,-1.45521 0.03943,-0.44977 0.460332,-2.10496 0.591976,-2.32795 0.0686,-0.11621 0.295452,-0.0696 0.50411,0.10357 0.307886,0.25552 0.347971,0.23301 0.21272,-0.11945 -0.09267,-0.24149 -0.03663,-0.43429 0.126235,-0.43429 0.371948,0 0.364478,0.20762 -0.09996,2.77812 -0.210341,1.16417 -0.386593,2.27252 -0.391669,2.46301 -0.0051,0.19049 -0.09853,0.29228 -0.207669,0.22621 -0.10914,-0.0661 -0.35196,0.046 -0.539598,0.24897 -0.23615,0.25549 -0.247797,0.3691 -0.03784,0.3691 0.166827,0 0.236252,0.17478 0.154278,0.3884 -0.08197,0.21362 -0.05503,0.44651 0.05987,0.51752 0.314783,0.19455 0.02695,1.67978 -0.393097,2.02838 -0.294212,0.24418 -0.368094,0.19572 -0.368094,-0.24141 z"
       id="path10624" />
    <path
       style="fill:#478c79;stroke-width:1.02707"
       d="m 81.17876,187.62998 c -0.12677,-2.44187 -0.09816,-3.14644 0.16117,-3.96936 0.291684,-0.92558 1.137948,-2.11606 1.504221,-2.11606 0.106586,0 0.268948,0.40061 0.360804,0.89025 0.1603,0.85447 -0.537971,3.06998 -1.62308,5.1498 l -0.368776,0.70683 z"
       id="path10621" />
    <path
       style="fill:#478c79;stroke-width:1.02707"
       d="m 80.711364,190.19401 c -0.01688,-0.26325 -0.139616,-0.41132 -0.272746,-0.32904 -0.13313,0.0823 -0.446044,-0.38454 -0.695365,-1.03738 -0.24932,-0.65283 -0.543624,-1.13115 -0.654008,-1.06293 -0.284171,0.17562 -0.826434,-0.53908 -0.58909,-0.77643 0.107879,-0.10788 0.07708,-0.16092 -0.06844,-0.11788 -0.590963,0.1748 -1.447692,-0.58252 -1.393925,-1.23218 0.02977,-0.35974 0.132648,-0.65406 0.228611,-0.65406 0.303125,0 0.771598,0.70239 0.589755,0.88423 -0.09575,0.0958 0.08387,0.1741 0.39917,0.1741 0.315295,0 0.573264,0.11906 0.573264,0.26458 0,0.14552 0.178594,0.26458 0.396875,0.26458 0.218281,0 0.396875,0.2311 0.396875,0.51356 0,0.63 0.515609,0.99482 0.786511,0.55649 0.262738,-0.42512 0.54985,0.28987 0.409355,1.01941 -0.07719,0.4008 0.0045,0.48624 0.343619,0.35929 0.357872,-0.13399 0.38577,-0.0922 0.142632,0.2137 -0.166242,0.20914 -0.36079,0.61839 -0.432329,0.90943 -0.111671,0.45431 -0.134412,0.46146 -0.160763,0.0505 z"
       id="path10616" />
    <path
       style="fill:#478c79;stroke-width:1.02707"
       d="m 63.001244,191.90574 c -0.462772,-0.41317 -0.841404,-0.88239 -0.841404,-1.04272 0,-0.49804 0.447292,-0.59902 1.096942,-0.24765 1.885901,1.02002 2.399181,1.6909 1.08587,1.4193 -0.400182,-0.0828 -0.578776,-0.0857 -0.396875,-0.007 0.368082,0.16009 0.452915,0.62891 0.1138,0.62891 -0.119311,0 -0.595561,-0.33804 -1.058333,-0.7512 z"
       id="path10604" />
    <path
       style="fill:#478c79;stroke-width:1.02707"
       d="m 80.507494,192.71332 c -0.07459,-0.28524 -0.405884,-0.49492 -0.835126,-0.52856 -0.878095,-0.0688 -2.25904,-1.61129 -1.866268,-2.08455 0.188212,-0.22678 0.116439,-0.27478 -0.262653,-0.17564 -0.716304,0.18731 -1.254509,-0.77554 -0.693673,-1.24099 0.320566,-0.26605 0.391315,-0.23918 0.391315,0.1486 0,0.26036 0.07624,0.39713 0.169417,0.30396 0.245926,-0.24593 1.682666,0.66283 1.682666,1.06431 0,0.1869 -0.178593,0.33982 -0.396875,0.33982 -0.469782,0 -0.525483,0.41846 -0.09141,0.68673 0.177349,0.10961 0.234081,0.0733 0.135268,-0.0866 -0.09361,-0.15146 0.07339,-0.33908 0.371115,-0.41694 0.443957,-0.11609 0.485181,-0.0739 0.229211,0.23451 -0.205263,0.24732 -0.215575,0.37605 -0.03012,0.37605 0.155087,0 0.460757,-0.25524 0.679266,-0.5672 l 0.397289,-0.56721 0.129451,0.63335 c 0.311583,1.52446 0.404983,2.35315 0.265217,2.35315 -0.08275,0 -0.206084,-0.21276 -0.274085,-0.47279 z"
       id="path10603" />
    <path
       style="fill:#478c79;stroke-width:1.02707"
       d="m 88.552704,192.28211 c 0.07531,-0.59421 0.24672,-1.21984 0.380905,-1.39029 0.174983,-0.22228 0.09006,-0.26967 -0.300316,-0.16758 -0.309348,0.0809 -0.544288,0.0148 -0.544288,-0.15311 0,-0.16249 0.267891,-0.30953 0.595313,-0.32674 0.478687,-0.0252 0.444957,-0.064 -0.17218,-0.19844 -0.591226,-0.12875 -0.848242,-0.40062 -1.119089,-1.18376 -0.373613,-1.08028 -0.34356,-2.07645 0.06677,-2.21323 0.373518,-0.1245 1.945316,3.23963 1.819316,3.8939 -0.06025,0.31287 -0.181887,0.82723 -0.270297,1.14303 -0.113364,0.40493 -0.0874,0.46836 0.0881,0.2152 0.158645,-0.22886 0.309663,-0.26057 0.416638,-0.0875 0.09229,0.14933 0.0083,0.43099 -0.186625,0.62593 -0.194932,0.19493 -0.311782,0.48234 -0.259666,0.63869 0.05212,0.15635 -0.07315,0.28427 -0.278376,0.28427 -0.282559,0 -0.339894,-0.26226 -0.236201,-1.08039 z"
       id="path10602" />
    <path
       style="fill:#478c79;stroke-width:1.02707"
       d="m 73.636286,193.82344 c -0.861826,-0.36192 -1.317288,-1.03664 -0.881558,-1.30593 0.139165,-0.086 0.253028,-0.0104 0.253028,0.16791 0,0.17837 0.0765,0.2478 0.169995,0.1543 0.0935,-0.0935 0.035,-0.33265 -0.129996,-0.53146 -0.164995,-0.19881 -0.230579,-0.43088 -0.145742,-0.51571 0.08484,-0.0848 0.02789,-0.37154 -0.126542,-0.63712 -0.216189,-0.37177 -0.285387,-0.39155 -0.30077,-0.086 -0.01099,0.21828 -0.183533,0.0397 -0.383431,-0.39687 -0.497957,-1.0875 -0.503155,-0.42841 -0.006,0.76143 0.220234,0.5271 0.333221,0.95836 0.251083,0.95836 -0.230562,0 -0.937243,-1.82057 -1.048782,-2.7019 -0.05484,-0.43333 0.02522,-1.10401 0.17792,-1.49039 0.26089,-0.66014 0.290709,-0.67059 0.49448,-0.17334 0.119266,0.29104 0.225216,0.92315 0.235444,1.40468 0.01137,0.5355 0.12553,0.80942 0.293942,0.70534 0.15144,-0.0936 0.198216,-0.41319 0.103946,-0.71021 -0.114288,-0.36009 -0.07379,-0.47971 0.121529,-0.35899 0.161111,0.0996 0.296716,0.4419 0.301344,0.76074 0.0046,0.31883 0.18378,0.81157 0.398116,1.09498 0.214335,0.28341 0.331497,0.70013 0.26036,0.92604 -0.07114,0.22592 -0.0224,0.76794 0.108309,1.20451 l 0.23765,0.79375 0.02274,-0.72761 c 0.01251,-0.40018 0.129065,-0.7276 0.259017,-0.7276 0.382686,0 0.602708,0.86685 0.271914,1.0713 -0.21926,0.13551 -0.207007,0.21972 0.04415,0.30344 0.191199,0.0637 0.234437,0.18059 0.09608,0.25969 -0.138354,0.0791 -0.623557,-0.0124 -1.07823,-0.20335 z"
       id="path10600" />
    <path
       style="fill:#478c79;stroke-width:1.02707"
       d="m 102.11192,194.31984 c -1.17543,-0.43339 -1.07384,-0.70026 0.44732,-1.17514 1.8602,-0.58073 2.62382,-0.61076 2.8157,-0.11073 0.2731,0.7117 -2.1889,1.68191 -3.26302,1.28587 z"
       id="path10598" />
    <path
       style="fill:#478c79;stroke-width:1.02707"
       d="m 77.092654,194.9985 c -0.392248,-0.77845 -0.91511,-1.71302 -1.161915,-2.07683 -0.246804,-0.3638 -0.424143,-1.04677 -0.394086,-1.51772 0.03006,-0.47094 -0.02514,-0.80695 -0.122649,-0.74668 -0.194224,0.12003 -0.563086,-0.66409 -1.175131,-2.4981 -0.218536,-0.65484 -0.592343,-1.651 -0.830683,-2.21369 -0.23834,-0.56269 -0.367773,-1.19396 -0.287628,-1.40281 0.08014,-0.20885 0.03151,-0.30914 -0.10808,-0.22287 -0.139588,0.0863 -0.331427,-0.17544 -0.426311,-0.58157 -0.09488,-0.40614 -0.723451,-1.85987 -1.396819,-3.23051 -0.894884,-1.82155 -1.449837,-2.62603 -2.062508,-2.9899 -0.811259,-0.48181 -1.898133,-1.79558 -1.483,-1.79259 0.112496,8.2e-4 0.667561,0.13004 1.233478,0.28717 0.895732,0.24871 1.124571,0.21499 1.76762,-0.26043 0.679055,-0.50205 0.748498,-0.50921 0.860325,-0.0887 0.06691,0.25157 0.0681,-0.13791 0.0027,-0.86551 -0.114992,-1.27854 -0.105458,-1.30073 0.284171,-0.66146 0.713689,1.17095 0.317987,2.90363 -0.665597,2.91447 -0.289393,0.003 -0.295772,0.0497 -0.02995,0.21839 0.185766,0.11789 0.36436,0.59208 0.396875,1.05376 0.03251,0.46167 0.139769,0.83965 0.238342,0.83994 0.27587,8.1e-4 1.581605,2.89507 1.422351,3.15275 -0.0773,0.12507 0.03674,0.37453 0.253422,0.55436 0.216679,0.17982 0.394056,0.4612 0.394171,0.62529 1.15e-4,0.16408 0.377195,1.07224 0.837957,2.01812 0.460762,0.94589 0.815679,1.81562 0.788704,1.93274 -0.02697,0.11713 0.126063,0.46296 0.340084,0.76851 0.298007,0.42547 0.321234,0.68243 0.09919,1.09732 -0.213092,0.39817 -0.209757,0.56849 0.01258,0.6426 0.166388,0.0555 0.302524,0.32905 0.302524,0.60796 0,0.27892 0.119062,0.50712 0.264583,0.50712 0.145521,0 0.264584,0.12143 0.264584,0.26984 0,0.14842 0.270267,0.71396 0.600594,1.25677 0.330327,0.54281 0.814895,1.4549 1.076817,2.02686 0.397789,0.86865 0.407813,0.98315 0.06086,0.6952 -0.228448,-0.18959 -0.424759,-0.53849 -0.436247,-0.77534 -0.01342,-0.27674 -0.06877,-0.31185 -0.15489,-0.0982 -0.0737,0.1828 -0.242895,0.26508 -0.375987,0.18282 -0.364611,-0.22534 -0.292107,0.0884 0.19073,0.82528 0.237993,0.36323 0.365061,0.72806 0.282372,0.81075 -0.08269,0.0827 -0.471273,-0.48657 -0.863522,-1.26503 z m 0.258491,-1.05447 c -0.102167,-0.16531 -0.213061,-0.55226 -0.246431,-0.8599 -0.1128,-1.03986 -0.143808,-1.08934 -0.403611,-0.64401 -0.278945,0.47814 0.160652,1.80447 0.598071,1.80447 0.13075,0 0.154137,-0.13525 0.05197,-0.30056 z"
       id="path10593" />
    <path
       style="fill:#478c79;stroke-width:1.02707"
       d="m 101.97963,196.67449 c -0.43656,-0.24759 -1.36204,-0.84367 -2.056614,-1.32464 -1.461457,-1.012 -1.696611,-1.05126 -3.568857,-0.59587 -0.765676,0.18624 -1.575531,0.26824 -1.799679,0.18223 -0.226023,-0.0867 -0.337748,-0.0435 -0.250842,0.0971 0.165052,0.26706 -1.699904,1.16832 -1.933729,0.9345 -0.07467,-0.0747 -0.01075,-0.13577 0.142057,-0.13577 0.395568,0 0.632693,-1.10198 0.31857,-1.48047 -0.183615,-0.22125 0.03855,-0.8666 0.733418,-2.13044 0.548254,-0.99717 1.010822,-1.93211 1.02793,-2.07763 0.01711,-0.14552 0.06111,-0.74083 0.09778,-1.32292 0.05929,-0.94118 0.09012,-0.98511 0.27851,-0.39687 l 0.211836,0.66146 0.02637,-0.72761 c 0.01451,-0.40018 -0.09269,-0.7276 -0.238209,-0.7276 -0.391656,0 -0.32107,-1.21125 0.09049,-1.55281 0.19529,-0.16208 0.439708,-0.21005 0.54315,-0.10661 0.103443,0.10345 0.109515,-0.0166 0.01349,-0.26688 -0.09753,-0.25416 -0.05061,-0.45495 0.106319,-0.45495 0.687141,0 0.632563,2.67926 -0.113185,5.55625 l -0.171458,0.66146 0.483623,-0.66146 c 0.265992,-0.3638 0.755823,-0.9579 1.088511,-1.32021 0.332689,-0.36232 0.604889,-0.74927 0.604889,-0.8599 0,-0.11063 0.208359,-0.20297 0.463021,-0.20519 0.399734,-0.004 0.408775,-0.0426 0.06614,-0.28599 -0.305602,-0.21709 -0.229542,-0.24542 0.33073,-0.1232 0.421592,0.092 0.727604,0.0453 0.727604,-0.11089 0,-0.14829 -0.141757,-0.23986 -0.315016,-0.20348 -0.173258,0.0364 -0.363298,-0.15631 -0.42231,-0.42821 -0.07508,-0.34594 -0.0067,-0.4322 0.227687,-0.28732 0.232169,0.14349 0.286569,0.0809 0.177246,-0.20402 -0.184524,-0.48087 0.536562,-3.88843 0.925197,-4.37211 0.500691,-0.62314 0.730111,-0.32986 0.730111,0.93331 0,0.71584 -0.17863,1.51908 -0.41188,1.85209 -0.226529,0.32342 -0.331899,0.58803 -0.23415,0.58803 0.09775,0 -0.01456,0.29347 -0.249581,0.65215 -0.525567,0.80212 -0.52619,0.84079 -0.01669,1.03631 0.235882,0.0905 0.341698,0.0461 0.248662,-0.10448 -0.08907,-0.14413 0.142869,-0.37794 0.515429,-0.51959 0.37256,-0.14165 0.67738,-0.32704 0.67738,-0.41199 0,-0.085 -0.11906,-0.0809 -0.26459,0.009 -0.14552,0.0899 -0.26458,0.0374 -0.26458,-0.11667 0,-0.15411 0.26789,-0.29401 0.59531,-0.31089 0.44799,-0.0231 0.48073,-0.0606 0.1323,-0.1517 -0.25467,-0.0666 -0.46303,-0.24713 -0.46303,-0.40129 0,-0.35944 0.97239,-1.20547 1.62277,-1.41189 0.27587,-0.0876 0.4333,-0.26969 0.34984,-0.40473 -0.0835,-0.13504 -0.0814,-0.24553 0.005,-0.24553 0.086,0 0.25613,0.26789 0.37798,0.59531 0.1702,0.45736 0.0427,0.85587 -0.55041,1.71979 -0.42457,0.61846 -0.8714,1.12448 -0.99296,1.12448 -0.41367,0 -0.50019,1.0198 -0.0996,1.17354 0.6016,0.23085 0.78632,0.16935 0.346,-0.11521 -0.32259,-0.20847 -0.28825,-0.25724 0.18343,-0.26053 0.31917,-0.002 0.74657,0.23332 0.94978,0.52343 0.2032,0.29012 0.44623,0.45072 0.54005,0.35689 0.0938,-0.0938 -0.0359,-0.32741 -0.28831,-0.51907 -0.42815,-0.32511 -0.42344,-0.34876 0.0703,-0.35284 0.29104,-0.002 0.70718,0.10818 0.92475,0.24573 0.33915,0.2144 0.32028,0.30529 -0.13229,0.63704 -0.66899,0.4904 -4.0068,1.31372 -4.52295,1.11566 -0.454594,-0.17445 -3.755851,2.21804 -5.149223,3.73174 -1.00465,1.09141 -1.453952,1.93028 -1.033864,1.93028 0.140953,0 0.256279,-0.11347 0.256279,-0.25217 0,-0.13869 0.446484,-0.45637 0.992187,-0.70594 0.545704,-0.24958 1.099881,-0.51169 1.231506,-0.58247 0.131625,-0.0708 0.168697,-0.0144 0.08238,0.12525 -0.08926,0.14442 0.289833,0.26375 0.879083,0.27671 0.907665,0.02 1.005327,-0.0346 0.788301,-0.44007 -0.195461,-0.36523 -0.106278,-0.52731 0.422781,-0.76836 0.368772,-0.16803 0.799032,-0.22606 0.956132,-0.12897 0.165993,0.10259 0.209477,0.0533 0.103815,-0.11766 -0.105223,-0.17025 0.147486,-0.46449 0.599839,-0.69841 0.599724,-0.31013 0.812414,-0.32815 0.913804,-0.0774 0.0997,0.24658 0.13727,0.24178 0.15303,-0.0196 0.0116,-0.1924 0.15666,-0.26243 0.32635,-0.15755 0.17739,0.10963 0.23408,0.0733 0.1352,-0.0867 -0.21585,-0.34926 0.2776,-0.74201 1.21298,-0.96546 0.63398,-0.15145 0.7276,-0.0951 0.7276,0.43756 0,0.44113 -0.25513,0.72702 -0.91623,1.02666 -0.63594,0.28825 -0.95331,0.32535 -1.03744,0.12127 -0.0667,-0.16171 -0.13062,-0.0729 -0.1421,0.19731 -0.0141,0.33165 -0.15434,0.44012 -0.43151,0.33376 -0.22584,-0.0867 -0.34558,-0.0523 -0.2661,0.0763 0.0795,0.12861 -0.0334,0.3021 -0.25084,0.38554 -0.217445,0.0834 -0.395355,0.33172 -0.395355,0.55173 0,0.2886 0.221065,0.37427 0.793745,0.30759 0.43656,-0.0508 0.79375,0.011 0.79375,0.13746 0,0.12643 0.14883,0.23252 0.33073,0.23576 0.55099,0.01 1.45398,0.87915 1.6428,1.58161 0.10281,0.38248 0.0838,0.52786 -0.045,0.3447 -0.13027,-0.18525 -0.3676,-0.22724 -0.57164,-0.10114 -0.24997,0.15449 -0.15078,0.26535 0.34988,0.391 0.38432,0.0965 0.83075,0.0938 0.99206,-0.006 0.17738,-0.10963 0.21868,-0.0605 0.10451,0.12419 -0.26622,0.43076 -1.20966,0.35365 -2.14193,-0.17505 z m -0.7738,-1.30542 c -0.0544,-0.51956 -0.24447,-0.75257 -0.66459,-0.81493 l -0.58834,-0.0873 0.55034,0.55034 c 0.30269,0.30269 0.55035,0.66941 0.55035,0.81493 0,0.14552 0.0514,0.26458 0.11424,0.26458 0.0628,0 0.0799,-0.32742 0.038,-0.7276 z m -3.327242,-5.34365 c 0,-0.10659 0.297656,-0.32943 0.661458,-0.49519 0.823022,-0.37499 0.860069,-0.78323 0.06615,-0.7289 -0.327422,0.0224 -0.565547,0.18475 -0.529166,0.36075 0.03638,0.17601 -0.07727,0.29025 -0.252557,0.25387 -0.175287,-0.0364 -0.325938,0.0529 -0.334781,0.19843 -0.0088,0.14552 -0.109735,0.41205 -0.224206,0.59228 -0.143081,0.22529 -0.0798,0.27846 0.202489,0.17013 0.225839,-0.0867 0.410617,-0.24478 0.410617,-0.35137 z"
       id="path10590" />
    <path
       style="fill:#478c79;stroke-width:1.02707"
       d="m 94.438494,197.585 c -0.280453,-0.44907 -0.250956,-0.48831 0.265552,-0.35324 0.319578,0.0836 0.51141,0.0823 0.426294,-0.003 -0.08512,-0.0851 0.441076,-0.43991 1.169316,-0.78843 1.266296,-0.60603 1.843515,-0.62108 1.843515,-0.0481 0,0.14552 -0.119062,0.191 -0.264583,0.10106 -0.145521,-0.0899 -0.279466,-0.0374 -0.297656,0.11668 -0.01819,0.15411 -0.04796,0.3933 -0.06615,0.53155 -0.0647,0.49172 -0.577227,0.75411 -1.661517,0.85061 -0.863001,0.0768 -1.16709,-0.0108 -1.414775,-0.40736 z"
       id="path10584" />
    <path
       style="fill:#478c79;stroke-width:1.02707"
       d="m 69.454067,197.97815 c -0.0919,-0.1487 -0.573371,-0.23837 -1.069931,-0.19926 -0.496561,0.0391 -0.842983,-0.0257 -0.769827,-0.14411 0.07316,-0.11837 -0.05964,-0.21522 -0.295094,-0.21522 -0.235458,0 -0.358367,0.11284 -0.273132,0.25075 0.207342,0.33549 -0.873107,0.11547 -1.341363,-0.27315 -0.203434,-0.16884 -0.356069,-0.50076 -0.339188,-0.7376 0.02589,-0.36331 0.0496,-0.35825 0.151692,0.0324 0.06655,0.25466 0.227595,0.46302 0.357879,0.46302 0.130283,0 0.169853,-0.20836 0.08793,-0.46302 -0.08662,-0.26928 -0.05547,-0.35231 0.07445,-0.19844 0.122868,0.14552 0.40199,0.30871 0.620271,0.36264 2.707768,0.66898 3.40752,0.94824 3.1133,1.24246 -0.08244,0.0824 -0.225087,0.0282 -0.316989,-0.12047 z"
       id="path10583" />
    <path
       style="fill:#478c79;stroke-width:1.02707"
       d="m 88.958877,197.85647 c 0.04048,-0.58629 1.055149,-1.56838 1.721437,-1.66617 0.207023,-0.0304 0.6607,-0.32232 1.008171,-0.64876 0.347472,-0.32643 0.694645,-0.53063 0.771496,-0.45378 0.07685,0.0769 -0.04174,0.29034 -0.26354,0.47441 -0.221798,0.18408 -0.403269,0.47877 -0.403269,0.65488 0,0.35448 -2.046717,2.08726 -2.553232,2.1616 -0.1762,0.0259 -0.302678,-0.20912 -0.281063,-0.52218 z m 0.84992,-0.17233 c -0.08994,-0.14552 -0.02645,-0.26458 0.14109,-0.26458 0.167536,0 0.621047,-0.25289 1.007802,-0.56197 l 0.703191,-0.56198 -0.661458,0.2015 c -0.837834,0.25522 -1.887182,1.06374 -1.666722,1.2842 0.270274,0.27028 0.654698,0.19182 0.476097,-0.0972 z"
       id="path10582" />
    <path
       style="fill:#478c79;stroke-width:1.02707"
       d="m 68.50984,198.98404 c 0,-0.13286 -0.231099,-0.24156 -0.513552,-0.24156 -0.282454,0 -0.587136,-0.11906 -0.677073,-0.26459 -0.0922,-0.14917 0.122194,-0.26458 0.491503,-0.26458 0.360263,0 0.694712,0.10333 0.743219,0.22961 0.04851,0.12629 0.370995,0.31764 0.71664,0.42522 0.46564,0.14494 0.57605,0.11083 0.426192,-0.13164 -0.121199,-0.19611 -0.08146,-0.28699 0.09916,-0.22678 0.651075,0.21702 0.388244,0.63191 -0.426192,0.67276 -0.472942,0.0237 -0.859895,-0.0656 -0.859895,-0.19844 z"
       id="path10580" />
    <path
       style="fill:#478c79;stroke-width:1.02707"
       d="m 62.568067,198.7333 -0.782398,-0.49967 2.46573,0.10772 c 2.53649,0.11081 3.562384,0.37202 1.72285,0.43867 l -1.036284,0.0375 1.058333,0.18949 c 0.906148,0.16224 0.792009,0.19211 -0.79375,0.2077 -1.386144,0.0136 -2.048915,-0.1075 -2.634481,-0.48146 z"
       id="path10579" />
    <path
       style="fill:#478c79;stroke-width:1.02707"
       d="m 74.595256,199.33262 c 0,-0.12474 0.41501,-0.38964 0.922245,-0.58866 1.018749,-0.39973 1.033451,-0.49013 0.108668,-0.66823 -0.345502,-0.0665 -0.952103,-0.36046 -1.348003,-0.65316 -0.395899,-0.2927 -0.850726,-0.53219 -1.010728,-0.53219 -0.160001,0 -0.205958,-0.13745 -0.102125,-0.30546 0.118834,-0.19228 0.07238,-0.23352 -0.125384,-0.11129 -0.172795,0.10679 -0.704523,-0.0361 -1.181618,-0.31764 -0.862065,-0.50863 -2.421867,-0.9345 -4.639899,-1.26682 -0.796224,-0.1193 -1.044738,-0.24451 -0.79375,-0.39993 0.222478,-0.13776 -0.358989,-0.21993 -1.486697,-0.21007 -2.655024,0.0232 -3.659276,-0.081 -3.251556,-0.33726 0.187627,-0.11794 0.549499,-0.14961 0.80416,-0.0704 0.261384,0.0813 0.463021,0.008 0.463021,-0.16918 0,-0.19226 -0.257929,-0.26395 -0.667773,-0.1856 -0.676215,0.12926 -1.132743,-0.16767 -0.684095,-0.44495 0.356348,-0.22024 5.114981,0.31315 5.297849,0.59383 0.08528,0.13089 0.63131,0.32531 1.213394,0.43204 1.456681,0.26709 1.126719,0.0428 -1.042253,-0.70831 -1.716479,-0.59445 -2.576066,-1.2615 -1.625629,-1.2615 0.230408,0 0.418923,0.1095 0.418923,0.24332 0,0.13383 0.625079,0.44265 1.389063,0.68627 0.763984,0.24362 1.70454,0.66465 2.090124,0.93561 0.385584,0.27096 0.99578,0.56662 1.35599,0.65703 0.569944,0.14304 0.654927,0.0759 0.654927,-0.51747 0,-0.39442 -0.149855,-0.68184 -0.355498,-0.68184 -0.218922,0 -0.298276,0.17789 -0.206552,0.46302 0.121433,0.37749 0.09869,0.39205 -0.123137,0.0788 -0.149646,-0.21133 -0.213382,-0.47922 -0.141636,-0.59531 0.07175,-0.11609 0.04901,-0.34285 -0.05053,-0.5039 -0.129046,-0.2088 -0.238453,-0.19984 -0.381261,0.0312 -0.139988,0.2265 -0.526468,-0.002 -1.283822,-0.75948 -0.595947,-0.59595 -1.549842,-1.42133 -2.119765,-1.83418 -0.863195,-0.6253 -0.993869,-0.83616 -0.782574,-1.26279 0.244405,-0.49349 0.239195,-0.49431 -0.142925,-0.0225 -0.384823,0.47515 -0.445803,0.47263 -2.057648,-0.0852 -2.063728,-0.71419 -2.222247,-0.81194 -1.775607,-1.09495 0.290461,-0.18404 0.281349,-0.22823 -0.04774,-0.23151 -0.223694,-0.002 -0.423648,-0.22883 -0.444343,-0.50356 -0.02766,-0.36726 0.09503,-0.46483 0.463401,-0.36849 0.275565,0.0721 0.491185,0.20754 0.479157,0.30107 -0.06239,0.48512 0.07133,0.83151 0.320992,0.83151 0.154109,0 0.206093,-0.1199 0.115521,-0.26645 -0.291383,-0.47147 0.617885,-0.58837 1.429019,-0.18372 0.64772,0.32312 0.810664,0.32982 0.922684,0.0379 0.08341,-0.21736 -6.96e-4,-0.30206 -0.217375,-0.21891 -0.19682,0.0755 -0.609159,-0.22353 -0.930583,-0.67493 -0.317441,-0.44581 -0.445806,-0.81056 -0.285256,-0.81056 0.211265,0 0.212575,-0.14823 0.0047,-0.53657 -0.157942,-0.29512 -0.400615,-0.46646 -0.539274,-0.38077 -0.141428,0.0874 -0.206825,-0.11261 -0.148964,-0.45561 0.207325,-1.22901 1.266597,-0.40618 2.52181,1.9589 0.485435,0.91466 1.046267,1.85098 1.246293,2.08072 0.200026,0.22974 0.361861,0.5274 0.359633,0.66146 -0.0022,0.13406 -0.130356,0.0652 -0.284727,-0.15313 -0.249489,-0.35277 -0.268037,-0.35277 -0.166937,0 0.06256,0.21829 0.303527,0.36332 0.535492,0.32231 0.404505,-0.0715 1.018932,0.73179 1.145933,1.49821 0.07732,0.46663 0.626373,1.04318 0.626373,0.65775 0,-0.15037 -0.08282,-0.35623 -0.184047,-0.45745 -0.196117,-0.19612 -0.272058,-0.50126 -0.526055,-2.11374 -0.113995,-0.72369 -0.05353,-1.08671 0.208652,-1.25272 0.203037,-0.12856 0.245667,-0.23558 0.09473,-0.2378 -0.150934,-0.002 -0.293838,-0.26177 -0.317565,-0.57675 -0.02373,-0.31499 -0.213275,-0.74284 -0.421217,-0.95078 -0.327715,-0.32771 -0.360604,-0.28667 -0.246904,0.30812 0.07215,0.3774 0.22521,0.68619 0.340143,0.68619 0.114933,0 0.143148,0.2517 0.0627,0.55933 -0.139235,0.53244 -0.15922,0.53562 -0.415638,0.0662 -0.148154,-0.27126 -0.344873,-0.55272 -0.437155,-0.62548 -0.218543,-0.17231 -0.803481,-2.18036 -0.803481,-2.75829 0,-0.24637 0.119063,-0.37436 0.264583,-0.28442 0.145521,0.0899 0.264584,0.0374 0.264584,-0.11668 0,-0.15411 -0.119063,-0.28019 -0.264584,-0.28019 -0.14552,0 -0.264583,-0.11907 -0.264583,-0.26459 0,-0.69605 0.765301,-0.1409 1.185396,0.8599 0.259607,0.61846 0.632166,1.48166 0.827909,1.91823 l 0.355896,0.79375 0.007,-1.05834 c 0.0077,-1.1687 1.087268,-3.27137 1.26363,-2.46126 0.139688,0.64165 -0.424598,1.59012 -0.808848,1.35955 -0.242587,-0.14556 -0.245435,-0.10051 -0.01208,0.19103 0.167957,0.20983 0.360103,0.67917 0.426989,1.04297 0.08965,0.48761 0.131083,0.40068 0.157644,-0.33072 0.01982,-0.54571 0.152117,-0.99219 0.294,-0.99219 0.141883,0 0.209342,0.32742 0.149909,0.7276 -0.283597,1.90957 -0.723796,4.74413 -0.801291,5.15974 -0.04752,0.25486 0.0036,0.40779 0.113499,0.33984 0.109947,-0.0679 0.209943,0.22954 0.222213,0.66109 0.01227,0.43156 -0.09582,0.78464 -0.240193,0.78464 -0.144376,0 -0.192131,0.11387 -0.106122,0.25303 0.259126,0.41928 0.979227,-0.0138 0.807487,-0.48561 -0.08586,-0.23588 0.146495,-0.0717 0.516344,0.36488 0.369848,0.43656 0.744576,1.11508 0.832728,1.50783 0.17252,0.76863 0.945328,1.60494 1.567442,1.69625 0.372972,0.0547 0.49236,-0.20801 0.403932,-0.88898 -0.08155,-0.62798 0.446167,-0.32844 0.761179,0.43207 0.173779,0.41954 0.586265,0.99782 0.916635,1.28508 0.33037,0.28725 0.768178,0.75364 0.972908,1.03643 0.20473,0.28278 0.669892,0.72755 1.033694,0.98838 0.623906,0.4473 0.627756,0.46434 0.06781,0.30013 -0.467707,-0.13716 -0.55993,-0.0862 -0.434714,0.24009 0.187181,0.48778 -0.318348,0.56883 -0.520468,0.0834 -0.104644,-0.25131 -0.22114,-0.23542 -0.48507,0.0661 -0.391288,0.44708 -1.273392,0.6726 -1.273392,0.32557 z m -9.074669,-5.51968 c -0.259035,-0.25904 -2.03783,-0.30861 -2.03783,-0.0568 0,0.1231 0.496093,0.22382 1.10243,0.22382 0.606337,0 1.027267,-0.0752 0.9354,-0.16703 z"
       id="path10576" />
    <path
       style="fill:#478c79;stroke-width:1.02707"
       d="m 63.482757,199.76945 c -0.509323,-0.14959 -1.100384,-0.44184 -1.313468,-0.64945 -0.506576,-0.49357 -0.02508,-0.47253 0.636433,0.0278 0.594961,0.45 4.249936,0.55032 4.513493,0.12387 0.08994,-0.14552 0.364854,-0.25621 0.610927,-0.24598 0.361751,0.015 0.346098,0.0597 -0.08176,0.23328 -0.466975,0.18945 -0.43588,0.22925 0.264584,0.33863 0.565809,0.0884 0.413849,0.13618 -0.529167,0.16651 -0.727604,0.0234 -1.739635,0.0954 -2.248958,0.15993 -0.509323,0.0645 -1.342761,-0.005 -1.852083,-0.1546 z"
       id="path10568" />
    <path
       style="fill:#478c79;stroke-width:1.02707"
       d="m 98.56149,199.97385 c -0.715809,-0.16793 -1.356334,-0.47073 -1.423387,-0.67289 -0.06801,-0.20505 -0.0016,-0.2932 0.150215,-0.19937 0.149671,0.0925 0.777544,0.23169 1.395272,0.3093 1.241324,0.15597 1.57625,0.29835 1.57625,0.67012 0,0.29082 -0.003,0.29066 -1.69835,-0.10716 z"
       id="path10566" />
    <path
       style="fill:#478c79;stroke-width:1.02707"
       d="m 84.655594,200.18562 c 0.701724,-1.37639 1.096893,-1.79883 1.329954,-1.42173 0.263173,0.42582 0.793456,0.0556 0.608969,-0.4252 -0.08165,-0.21279 -0.241974,-0.32909 -0.356268,-0.25845 -0.114294,0.0706 0.339044,-0.89414 1.007417,-2.14394 0.931338,-1.74152 1.255607,-2.15819 1.388092,-1.7836 0.148379,0.41954 0.253084,0.35759 0.73911,-0.43727 0.63528,-1.03894 0.723242,-1.85581 0.250721,-2.32833 -0.180975,-0.18097 -0.202483,-0.3175 -0.05002,-0.3175 0.147114,0 0.417344,-0.62508 0.60051,-1.38906 0.409797,-1.70926 0.773045,-2.52914 1.474748,-3.32861 0.297671,-0.33914 0.511454,-0.66657 0.475074,-0.7276 -0.176771,-0.29658 -0.02832,-0.90476 0.301305,-1.23438 0.484337,-0.48434 2.673053,-4.67883 3.071625,-5.88652 0.2429,-0.73599 0.241113,-1.03454 -0.008,-1.33469 -0.209321,-0.25222 -0.2222,-0.38664 -0.03705,-0.38664 0.156108,0 0.379046,0.14905 0.495418,0.33123 0.116371,0.18217 0.60006,0.5096 1.074862,0.7276 l 0.863278,0.39638 -0.611616,0.66146 c -0.756864,0.81854 -2.466888,3.95901 -3.631774,6.66977 -0.490509,1.14144 -0.993828,1.96702 -1.143002,1.87482 -0.160101,-0.0989 -0.198219,0.0133 -0.09545,0.28114 0.181788,0.47373 -0.822856,2.81593 -1.207842,2.81593 -0.125112,0 -0.153891,0.11907 -0.06395,0.26459 0.08994,0.14552 0.07879,0.40168 -0.02477,0.56925 -0.130468,0.2111 -0.297771,0.15494 -0.544781,-0.18286 -0.330694,-0.45226 -0.356488,-0.43488 -0.356488,0.24011 0,0.45323 0.107662,0.66111 0.28548,0.55121 0.157014,-0.097 -0.333668,1.02703 -1.090404,2.49792 -0.81842,1.5908 -1.536817,2.67437 -1.773085,2.67437 -0.323069,0 -0.335727,-0.0741 -0.06782,-0.39688 0.207702,-0.25026 0.225438,-0.39687 0.04801,-0.39687 -0.532425,0 -0.657319,0.60995 -0.19423,0.94857 0.265175,0.1939 0.379644,0.47529 0.267298,0.65707 -0.135352,0.219 -0.305334,0.12157 -0.546285,-0.31313 l -0.349793,-0.63105 -0.0094,0.59531 c -0.0052,0.32742 0.116714,0.59531 0.270823,0.59531 0.154109,0 0.207456,0.1177 0.11855,0.26155 -0.09711,0.15713 0.0287,0.19017 0.315114,0.0828 0.417787,-0.15668 0.432143,-0.12394 0.116054,0.2647 -0.198389,0.24392 -0.471495,0.37503 -0.606902,0.29134 -0.135407,-0.0837 -0.419573,-0.008 -0.631479,0.1676 -0.30258,0.25112 -0.385285,0.24835 -0.385285,-0.0129 0,-0.38276 -0.884655,0.7003 -1.137285,1.39235 -0.09296,0.25466 -0.278989,0.46302 -0.413389,0.46302 -0.134401,0 -0.02913,-0.42217 0.233929,-0.93815 z m 6.980626,-11.4642 c -0.122417,-0.56518 -0.0929,-0.62062 0.158503,-0.29765 0.257325,0.33057 0.287714,0.29962 0.181905,-0.18528 -0.07796,-0.35724 0.116415,-0.91212 0.503113,-1.43626 0.346579,-0.46976 0.578603,-0.90565 0.515608,-0.96865 -0.208276,-0.20827 -1.466761,1.33561 -1.466761,1.79939 0,0.25017 -0.235059,0.75368 -0.522355,1.11892 l -0.522355,0.66407 h 0.651387 c 0.5649,0 0.631414,-0.0922 0.500955,-0.69454 z"
       id="path10563" />
    <path
       style="fill:#478c79;stroke-width:1.02707"
       d="m 78.691638,200.86672 c 0.0706,-0.11423 -0.211419,-0.27565 -0.626706,-0.3587 -0.850222,-0.17005 -1.284775,-1.10437 -0.630425,-1.35547 0.296567,-0.11381 0.363907,-0.0171 0.261315,0.3752 -0.112966,0.43198 -0.05578,0.48439 0.313098,0.28697 0.479961,-0.25687 0.748205,-0.14253 1.288266,0.54913 0.283946,0.36364 0.252994,0.45249 -0.198803,0.57063 -0.294309,0.077 -0.477344,0.0465 -0.406745,-0.0678 z"
       id="path10562" />
    <path
       style="fill:#478c79;stroke-width:1.02707"
       d="m 99.532234,201.46621 c -0.327422,-0.0631 -0.595313,-0.24208 -0.595313,-0.39782 0,-0.15574 -0.208359,-0.44954 -0.46302,-0.65289 -0.254662,-0.20335 0.01147,-0.12718 0.591394,0.16927 1.424535,0.72819 2.080765,0.71799 1.843785,-0.0287 -0.15604,-0.49164 -0.12786,-0.5188 0.21041,-0.20281 0.2989,0.27921 0.32207,0.47459 0.0987,0.83225 -0.28902,0.4628 -0.53111,0.5031 -1.685956,0.28067 z"
       id="path10561" />
    <path
       style="fill:#478c79;stroke-width:1.02707"
       d="m 67.71609,202.19768 c 0,-0.65275 0.450591,-0.93937 0.89583,-0.56986 0.188915,0.15679 0.419974,0.20858 0.513464,0.11509 0.09349,-0.0935 -0.02575,-0.31311 -0.264986,-0.48804 -0.393548,-0.28777 -0.396288,-0.37328 -0.02877,-0.89798 0.347764,-0.4965 0.429688,-0.51871 0.569502,-0.15436 0.08982,0.23406 0.295921,0.34361 0.458006,0.24344 0.207219,-0.12807 0.188138,-0.25414 -0.06428,-0.42468 -0.292116,-0.19737 -0.285057,-0.23246 0.0379,-0.18841 0.35412,0.0483 1.353621,-0.14423 2.331874,-0.44917 0.207765,-0.0648 0.26259,-0.24207 0.136343,-0.44093 -0.116135,-0.18293 -0.212979,-0.44173 -0.215207,-0.57513 -0.0022,-0.13339 -0.169453,-0.29767 -0.37161,-0.36505 -0.245014,-0.0817 -0.297543,-0.009 -0.157557,0.21727 0.149657,0.24215 0.103218,0.27695 -0.161608,0.12113 -0.204386,-0.12026 -0.133485,0.0573 0.157557,0.3945 l 0.529166,0.61314 -0.599089,-0.31441 c -0.329499,-0.17293 -0.58329,-0.22002 -0.56398,-0.10465 0.109151,0.65216 -0.08047,0.64374 -0.426061,-0.0189 -0.449264,-0.86142 -0.47536,-0.98229 -0.196807,-0.91154 0.109141,0.0277 0.600264,-0.0445 1.091385,-0.16057 0.649001,-0.15334 0.953995,-0.1129 1.116406,0.14803 0.181925,0.29228 0.323313,0.29712 0.760698,0.026 0.449655,-0.27869 0.53724,-0.2679 0.53724,0.0661 0,0.21951 0.126089,0.39911 0.280198,0.39911 0.154109,0 0.207457,-0.11769 0.11855,-0.26155 -0.09448,-0.15286 0.0182,-0.19254 0.271153,-0.0955 0.761394,0.29217 -0.117719,0.57427 -1.298922,0.4168 -0.977853,-0.13036 -1.054531,-0.10152 -0.740697,0.27856 0.192541,0.23318 0.490197,0.39102 0.661458,0.35076 0.171262,-0.0403 0.251854,-0.0332 0.179093,0.0157 -0.07276,0.0489 -0.251354,0.11019 -0.396875,0.13617 -0.14552,0.026 -0.409279,0.17482 -0.58613,0.33073 -0.951704,0.83904 -1.166408,0.95593 -1.442464,0.78532 -0.179904,-0.11119 -0.229837,-0.0698 -0.123433,0.10241 0.196244,0.31753 -2.065418,2.17388 -2.64852,2.17388 -0.197355,0 -0.358827,-0.2311 -0.358827,-0.51355 z"
       id="path10551" />
    <path
       style="fill:#478c79;stroke-width:1.02707"
       d="m 82.408792,203.02552 c -0.431982,-0.0528 -1.086826,-0.30435 -1.455208,-0.55897 -0.368383,-0.25463 -0.904575,-0.54827 -1.191538,-0.65254 -0.31995,-0.11626 -0.412046,-0.26083 -0.238111,-0.37379 0.496684,-0.32256 0.555633,-0.96635 0.121627,-1.3283 -0.231054,-0.19269 -0.295351,-0.28985 -0.142882,-0.2159 0.386013,0.18723 1.081193,-0.28338 0.803378,-0.54384 -0.124849,-0.11706 -0.277921,-0.0707 -0.340161,0.10304 -0.127541,0.356 -0.872725,0.16175 -0.872725,-0.2275 0,-0.13854 0.09922,-0.19057 0.220487,-0.11562 0.121267,0.075 0.220486,-0.0318 0.220486,-0.23733 0,-0.20548 -0.08573,-0.32062 -0.190507,-0.25586 -0.255057,0.15764 -0.68497,-0.38675 -1.03734,-1.31356 -0.254134,-0.66842 -0.240265,-0.71844 0.116988,-0.42195 0.222917,0.185 0.405303,0.49336 0.405303,0.68523 0,0.19188 0.11141,0.41772 0.247578,0.50188 0.309611,0.19135 -0.113503,-1.36122 -0.496845,-1.82312 -0.194866,-0.2348 -0.160663,-0.32713 0.121176,-0.32713 0.215971,0 0.392674,0.0973 0.392674,0.21627 0,0.19975 0.888844,2.06205 1.969897,4.1273 0.247561,0.47294 0.649749,0.85807 0.893753,0.85585 0.253182,-0.002 0.330054,-0.0875 0.179059,-0.19844 -0.145521,-0.10691 -0.303585,-0.43251 -0.351253,-0.72355 l -0.08667,-0.52917 0.408983,0.52917 c 0.479575,0.6205 0.575809,0.11319 0.134832,-0.71079 -0.211585,-0.39535 -0.211585,-0.49463 0,-0.36386 0.16711,0.10328 0.290981,-0.008 0.290981,-0.26096 0,-0.28312 -0.141968,-0.38632 -0.396875,-0.28851 -0.392457,0.1506 -0.448586,-0.0709 -0.510268,-2.0139 -0.0104,-0.32743 -0.122432,-0.67067 -0.248972,-0.76278 -0.286443,-0.20848 -0.333913,-2.08985 -0.09258,-3.669 0.124742,-0.81622 0.108374,-0.98262 -0.05205,-0.52916 l -0.234012,0.66146 -0.0078,-0.66146 c -0.0043,-0.3638 0.08606,-0.89959 0.200761,-1.19063 0.185684,-0.47117 0.227695,-0.44217 0.383324,0.26459 0.09613,0.43656 0.229449,1.22565 0.296262,1.75354 0.06681,0.52788 0.243136,1.27977 0.39183,1.67087 0.148694,0.39109 0.258138,0.97122 0.243209,1.28916 -0.01513,0.32218 -0.236681,-0.0661 -0.50048,-0.87712 -0.431271,-1.32587 -0.481766,-1.38466 -0.56817,-0.66145 -0.05216,0.43656 0.05246,1.0914 0.232485,1.4552 0.180024,0.36381 0.26206,0.86742 0.182303,1.11914 -0.07976,0.25173 -0.02231,0.66845 0.127658,0.92605 0.236135,0.4056 0.273751,0.37295 0.280719,-0.24363 0.0044,-0.3916 0.127108,-0.78558 0.272629,-0.87551 0.166763,-0.10307 0.264583,0.52121 0.264583,1.68856 0,2.07427 0.40457,2.81232 0.480544,0.87665 0.09062,-2.30893 0.369013,-3.93677 0.574586,-3.35979 0.105963,0.2974 0.176716,-0.22302 0.16187,-1.19063 -0.01451,-0.94543 0.08001,-1.95709 0.210032,-2.24813 0.130024,-0.29104 0.210348,-0.85659 0.178497,-1.25677 -0.04062,-0.51035 0.06655,-0.7276 0.358905,-0.7276 0.229249,0 0.416816,0.1389 0.416816,0.30868 0,0.16977 0.06721,0.24147 0.149352,0.15933 0.08215,-0.0822 0.05842,-0.60801 -0.05273,-1.16858 l -0.202081,-1.01922 -0.199495,0.79375 c -0.19344,0.76965 -0.109982,-0.87976 0.207507,-4.10104 0.07888,-0.80037 0.1778,-4.61037 0.219814,-8.46667 0.09313,-8.54807 0.03862,-7.95051 0.657643,-7.20842 0.350376,0.42003 0.542959,0.49839 0.650213,0.26458 0.08382,-0.18271 0.07996,-0.0455 -0.0086,0.30493 -0.08852,0.35042 -0.161529,3.20792 -0.162234,6.35 -0.0017,7.44238 -0.221413,10.31763 -0.813869,10.64919 -0.245059,0.13714 -0.437193,0.45179 -0.426965,0.69922 0.0151,0.36525 0.05782,0.35033 0.227135,-0.0793 0.182535,-0.46318 0.232163,-0.42269 0.397985,0.32473 0.174815,0.78796 -0.468868,6.5589 -0.83436,7.48047 -0.08657,0.21829 -0.129728,0.5617 -0.09591,0.76316 0.106843,0.63641 -0.247197,1.64649 -0.518365,1.4789 -0.155202,-0.0959 -0.232164,0.19339 -0.190681,0.71678 0.05098,0.64327 -0.03072,0.85597 -0.30596,0.79655 -0.276486,-0.0597 -0.302553,0.0101 -0.09884,0.26458 0.1609,0.20102 0.187422,0.56709 0.06338,0.87483 -0.334298,0.82938 -0.285144,1.19062 0.162009,1.19062 0.244421,0 0.335569,0.12446 0.223703,0.30546 -0.109036,0.17643 -0.07334,0.23412 0.0845,0.13657 0.15031,-0.0929 0.471948,-0.58755 0.714752,-1.09922 0.540688,-1.13941 0.894455,-1.20491 0.737655,-0.13656 -0.07515,0.51201 -0.0019,0.79375 0.206423,0.79375 0.190663,0 0.254686,-0.17782 0.15632,-0.43416 -0.154963,-0.40382 0.551715,-1.85814 0.78806,-1.62179 0.05864,0.0586 -0.0021,0.48569 -0.134963,0.949 -0.132874,0.4633 -0.144724,0.84237 -0.02633,0.84237 0.220337,0 0.626911,-1.01621 0.563616,-1.40873 -0.01934,-0.11996 0.08087,-0.14639 0.222693,-0.0587 0.141825,0.0877 0.387089,-0.0821 0.545031,-0.37721 0.157942,-0.29511 0.404786,-0.53657 0.548541,-0.53657 0.143756,0 0.05233,0.32742 -0.203179,0.7276 -0.445629,0.69797 -0.445238,0.71228 0.0096,0.35146 0.268559,-0.21306 1.097616,-0.38514 1.912069,-0.39688 0.790858,-0.0114 1.438641,-0.11705 1.439517,-0.23478 8.76e-4,-0.11773 0.139051,-0.12909 0.307056,-0.0253 0.184971,0.11432 0.233812,0.0728 0.123819,-0.10512 -0.0999,-0.16165 -0.356426,-0.22684 -0.570047,-0.14487 -0.213621,0.082 -0.388402,0.0874 -0.388402,0.0121 0,-0.24223 2.61571,-1.44911 2.781468,-1.28335 0.08797,0.088 -0.233985,0.31262 -0.715451,0.49923 -0.756551,0.29324 -0.779893,0.32667 -0.171943,0.2463 0.475821,-0.0629 0.662928,0.0126 0.578225,0.23334 -0.06887,0.17948 -0.35566,0.26606 -0.637303,0.19241 -0.292184,-0.0764 -0.512079,-1.8e-4 -0.512079,0.1775 0,0.19807 0.361135,0.28153 0.992187,0.2293 0.566055,-0.0469 0.967746,-0.21226 0.935279,-0.38513 -0.0698,-0.37166 1.660201,-0.72997 2.11193,-0.43742 0.203603,0.13185 -0.06381,0.26099 -0.711423,0.34356 -0.570708,0.0728 -1.086645,0.28112 -1.146527,0.46302 -0.05988,0.1819 0.02713,0.33073 0.19337,0.33073 0.166236,0 0.228884,-0.1187 0.13922,-0.26379 -0.105529,-0.17075 0.05227,-0.18192 0.447405,-0.0317 0.335739,0.12764 0.729496,0.24635 0.875017,0.26378 0.145521,0.0174 0.264583,0.18053 0.264583,0.36243 0,0.39902 0.396944,0.85153 0.930766,1.06107 0.270391,0.10613 0.285382,0.16041 0.04828,0.17481 -0.609362,0.037 -1.905089,-0.77381 -1.905089,-1.19215 0,-0.23872 -0.12542,-0.32818 -0.304732,-0.21736 -0.444318,0.27461 -2.180728,0.28641 -2.374598,0.0162 -0.09118,-0.12711 -0.609757,-0.0706 -1.152388,0.12564 -0.914359,0.33064 -0.940966,0.3687 -0.363378,0.51977 0.406525,0.10633 0.739891,0.0185 0.958767,-0.25269 0.282926,-0.35051 0.310052,-0.28824 0.17298,0.39713 -0.120974,0.60486 -0.05451,0.85429 0.259766,0.97489 0.284309,0.1091 0.425442,0.0135 0.431848,-0.29265 0.0072,-0.34424 0.16408,-0.26562 0.645712,0.32363 0.956639,1.17039 0.273968,1.73225 -0.841756,0.69279 -0.30299,-0.28228 -0.611848,-0.45227 -0.686351,-0.37777 -0.0745,0.0745 -0.600752,-0.15827 -1.169444,-0.51727 -0.739872,-0.46706 -1.367875,-0.64183 -2.20781,-0.61441 -0.645603,0.0211 -1.233356,0.10358 -1.306116,0.18335 -0.964995,1.05798 -4.118839,2.31217 -5.41563,2.15363 z"
       id="path10549" />
    <path
       style="fill:#3b8472;stroke-width:1.02707"
       d="m 83.444739,164.00542 c -0.249274,-0.1395 -0.987954,-0.2429 -1.641511,-0.22979 -1.165148,0.0234 -1.179119,0.0137 -0.717538,-0.49631 0.25891,-0.2861 0.630887,-0.52017 0.826614,-0.52017 0.633527,0 0.380433,-1.27653 -0.437882,-2.20854 -1.180786,-1.34484 -0.959835,-1.50411 0.330729,-0.2384 1.092728,1.07168 1.909786,1.30469 2.751287,0.78461 0.154828,-0.0957 0.774869,-0.23597 1.37787,-0.31173 0.868558,-0.10913 1.096364,-0.0535 1.096364,0.26786 0,0.41932 0.325159,0.89683 1.124479,1.65132 0.557206,0.52597 0.60468,0.88638 0.09078,0.68918 -0.204734,-0.0786 -0.948874,0.0594 -1.653646,0.30649 -1.558413,0.54648 -2.545686,0.6423 -3.147545,0.30548 z"
       id="path10238" />
    <path
       style="fill:#3b8472;stroke-width:1.02707"
       d="m 69.412802,177.47875 c -0.08415,-0.2193 -0.321746,-0.33397 -0.527984,-0.25483 -0.206238,0.0791 -0.374978,0.0167 -0.374978,-0.13869 0,-0.15542 -0.260576,-0.52535 -0.579057,-0.82206 -0.658575,-0.61355 -0.505725,-0.65406 0.946539,-0.25083 0.895732,0.24871 1.124571,0.21499 1.76762,-0.26043 0.679055,-0.50205 0.748498,-0.50921 0.860325,-0.0887 0.06691,0.25157 0.0681,-0.13791 0.0027,-0.86551 -0.114992,-1.27854 -0.105458,-1.30073 0.284171,-0.66146 0.525081,0.8615 0.529763,1.8273 0.0098,2.02682 -0.226644,0.087 -0.346456,0.32915 -0.266248,0.53816 0.105702,0.27546 0.0083,0.3364 -0.353766,0.22147 -0.368913,-0.11709 -0.489596,-0.0351 -0.461356,0.3133 0.04876,0.60161 -1.089004,0.81286 -1.307753,0.2428 z"
       id="path10232" />
    <path
       style="fill:#3b8472;stroke-width:1.02707"
       d="m 75.832245,179.72896 c 0.05617,-0.2201 -0.05416,-0.30413 -0.283685,-0.21606 -0.406798,0.15611 -0.83111,-0.96369 -0.542257,-1.43106 0.189862,-0.3072 1.220053,-0.0404 1.503131,0.38932 0.364695,0.55359 0.186919,0.8259 -0.202801,0.31064 -0.567878,-0.7508 -0.511483,0.0849 0.06193,0.91774 0.383668,0.55727 0.38748,0.60355 0.02573,0.31241 -0.233565,-0.18797 -0.47626,-0.2475 -0.539322,-0.13229 -0.06306,0.11522 -0.07329,0.0474 -0.02273,-0.1507 z"
       id="path10224" />
    <path
       style="fill:#3b8472;stroke-width:1.02707"
       d="m 79.078579,180.22144 c -0.01248,-0.21829 -0.08418,-0.99219 -0.159326,-1.7198 -0.07515,-0.7276 -0.06689,-1.2536 0.01834,-1.16888 0.303771,0.30194 0.604889,2.58962 0.386254,2.93448 -0.178101,0.28092 -0.227107,0.27177 -0.245268,-0.0458 z"
       id="path10223" />
    <path
       style="fill:#3b8472;stroke-width:1.02707"
       d="m 80.510224,180.90832 c 0.02099,-0.34984 0.110834,-0.5912 0.199662,-0.53637 0.27329,0.16869 1.106583,-1.94823 0.938899,-2.3852 -0.101918,-0.2656 -0.0088,-0.41111 0.263213,-0.41111 0.342811,0 0.360265,-0.0731 0.09401,-0.39396 -0.179828,-0.21668 -0.462297,-0.31289 -0.62771,-0.21379 -0.165412,0.0991 -0.137343,-0.0213 0.06238,-0.2675 0.389123,-0.47971 0.697872,-0.6155 0.435973,-0.19173 -0.087,0.14076 0.07462,0.40131 0.359154,0.579 0.500654,0.31266 0.483835,0.38969 -0.521853,2.3899 -0.571549,1.13676 -1.084788,2.06683 -1.14053,2.06683 -0.05574,0 -0.08418,-0.28623 -0.06319,-0.63607 z"
       id="path10219" />
    <path
       style="fill:#3b8472;stroke-width:1.02707"
       d="m 71.703458,181.05001 c -0.145521,-0.2719 -0.189398,-0.56956 -0.0975,-0.66145 0.09189,-0.0919 0.03689,-0.16708 -0.122222,-0.16708 -0.159116,0 -0.463025,-0.34824 -0.675352,-0.77386 -0.321064,-0.64359 -0.324326,-0.75017 -0.01938,-0.63315 0.20167,0.0774 0.366672,0.38067 0.366672,0.67396 0,0.40568 0.08173,0.46543 0.341631,0.24973 0.253372,-0.21028 0.422857,-0.15347 0.65604,0.21992 0.215073,0.34438 0.226828,0.55757 0.03721,0.67477 -0.152461,0.0942 -0.213291,0.33787 -0.135177,0.54143 0.207544,0.54085 -0.04337,0.45225 -0.351915,-0.12427 z"
       id="path10218" />
    <path
       style="fill:#3b8472;stroke-width:1.02707"
       d="m 89.402772,181.12341 c -0.343175,-0.90262 -0.824997,-1.26121 -1.104295,-0.82186 -0.155447,0.24452 -0.202293,0.24346 -0.20542,-0.005 -0.0022,-0.17678 0.21779,-0.44015 0.48893,-0.58526 0.423816,-0.22682 0.553343,-0.11017 0.923197,0.83139 0.236618,0.60237 0.375295,1.15014 0.30817,1.21726 -0.06712,0.0671 -0.251886,-0.21947 -0.410582,-0.63687 z"
       id="path10217" />
    <path
       style="fill:#3b8472;stroke-width:1.02707"
       d="m 94.972072,182.10881 c -0.0024,-0.22252 -0.194529,-0.31174 -0.499526,-0.23198 -0.396132,0.10359 -0.466493,0.0182 -0.350503,-0.42534 0.07982,-0.30522 0.193955,-0.40845 0.25364,-0.2294 0.05969,0.17906 0.223193,0.25469 0.363351,0.16806 0.153976,-0.0952 0.118853,-0.32485 -0.08874,-0.58035 -0.292919,-0.36051 -0.277294,-0.39803 0.10597,-0.2545 0.310035,0.11611 0.407075,0.0577 0.312691,-0.18828 -0.07527,-0.19616 -0.0077,-0.43644 0.150082,-0.53398 0.157815,-0.0975 0.226889,-0.27449 0.153498,-0.39324 -0.07339,-0.11875 -0.0033,-0.58926 0.155786,-1.04558 0.218103,-0.62566 0.209358,-0.92591 -0.03557,-1.22102 -0.210087,-0.25314 -0.224552,-0.39135 -0.04096,-0.39135 0.156108,0 0.379046,0.15582 0.495418,0.34627 0.116371,0.19045 0.600465,0.50334 1.075764,0.69533 0.702972,0.28395 0.806042,0.41912 0.552522,0.72459 -0.251954,0.30359 -0.35337,0.30977 -0.529399,0.0323 -0.162822,-0.25667 -0.218763,-0.22852 -0.221793,0.11162 -0.0036,0.40217 -0.309801,1.04579 -1.521505,3.19797 -0.179756,0.31927 -0.328584,0.41778 -0.330729,0.21891 z"
       id="path10216" />
    <path
       style="fill:#3b8472;stroke-width:1.02707"
       d="m 101.00387,185.35231 c 0.49251,-0.93827 2.16638,-1.83606 2.16638,-1.16194 0,0.14552 -0.0893,0.25048 -0.19843,0.23325 -0.50976,-0.0805 -0.842,0.0849 -1.52426,0.75893 -0.57911,0.57211 -0.67393,0.60839 -0.44369,0.16976 z"
       id="path10201" />
    <path
       style="fill:#3b8472;stroke-width:1.02707"
       d="m 89.994034,185.05026 c -0.144872,-0.40018 -0.351131,-0.96573 -0.458353,-1.25677 -0.194889,-0.529 -0.194821,-0.529 0.215959,-3.2e-4 0.40101,0.51611 0.415905,0.50974 0.618376,-0.26458 l 0.207468,-0.79343 0.187904,0.92604 c 0.103348,0.50932 0.271702,1.19393 0.37412,1.52135 0.292404,0.93479 -0.805058,0.80805 -1.145474,-0.13229 z"
       id="path10200" />
    <path
       style="fill:#3b8472;stroke-width:1.02707"
       d="m 85.596463,185.54726 c -0.101487,-0.16421 -0.05654,-0.29856 0.09988,-0.29856 0.156421,0 0.257184,-0.35719 0.22392,-0.79375 -0.0713,-0.93566 -0.383836,-1.04355 -0.574819,-0.19844 -0.07399,0.32742 -0.08437,-0.23812 -0.02305,-1.25677 0.06131,-1.01865 0.137108,-3.10224 0.168431,-4.63021 l 0.05695,-2.77812 0.159981,2.91041 0.159982,2.91042 0.04825,-3.96875 c 0.03212,-2.64214 -0.03748,-3.83609 -0.208231,-3.57187 -0.29502,0.45651 -0.288238,0.50262 -0.311305,-2.11667 -0.02638,-2.99599 -0.02055,-3.03104 0.440684,-2.64825 0.216679,0.17983 0.328715,0.43253 0.248968,0.56156 -0.07975,0.12903 -0.02883,0.23461 0.113157,0.23461 0.141982,0 0.326503,-0.14883 0.410047,-0.33073 0.08354,-0.1819 0.0799,-0.0454 -0.0081,0.3034 -0.088,0.34877 -0.189608,3.87222 -0.225798,7.8299 -0.06098,6.66907 -0.260759,8.68026 -0.778944,7.84182 z"
       id="path10199" />
    <path
       style="fill:#3b8472;stroke-width:1.02707"
       d="m 64.613336,185.33008 c -0.700068,-1.01047 -0.919016,-1.4043 -0.780722,-1.4043 0.22141,0 1.555244,1.88726 1.425517,2.01699 -0.07158,0.0716 -0.361738,-0.20413 -0.644795,-0.61269 z"
       id="path10197" />
    <path
       style="fill:#3b8472;stroke-width:1.02707"
       d="m 68.245256,186.296 c 0,-0.15161 -0.238125,-0.53125 -0.529166,-0.84364 -0.597265,-0.64109 -0.676028,-0.99738 -0.220486,-0.99738 0.169774,0 0.236475,0.0722 0.148224,0.16045 -0.08825,0.0883 0.0705,0.40836 0.352778,0.71135 0.470816,0.50537 0.697112,1.24486 0.380942,1.24486 -0.07276,0 -0.132292,-0.12404 -0.132292,-0.27564 z"
       id="path10189" />
    <path
       style="fill:#3b8472;stroke-width:1.02707"
       d="m 100.63127,186.53048 c -0.26467,-0.42826 0.11629,-0.5872 0.54822,-0.22872 0.34132,0.28327 0.40326,0.24165 0.40326,-0.27098 0,-0.33312 0.0796,-0.52603 0.17697,-0.4287 0.0973,0.0973 0.39499,-0.0203 0.66146,-0.26149 0.26647,-0.24115 0.48449,-0.34436 0.48449,-0.22935 0,0.29677 -1.38987,1.5624 -1.78489,1.62533 -0.18132,0.0289 -0.4016,-0.0639 -0.48951,-0.20609 z"
       id="path10186" />
    <path
       style="fill:#3b8472;stroke-width:1.02707"
       d="m 99.03303,185.57946 c 0.07215,-0.69123 0.139576,-1.29357 0.14983,-1.33853 0.01026,-0.045 0.135914,-0.009 0.279244,0.0793 0.161624,0.0999 0.199307,-0.1454 0.09922,-0.64584 -0.108667,-0.54333 -0.05695,-0.8069 0.158324,-0.8069 0.175838,0 0.268578,0.14883 0.206089,0.33073 -0.06249,0.1819 -0.02165,0.65654 0.09075,1.05476 0.11401,0.40393 0.096,0.79101 -0.04073,0.87551 -0.1348,0.0833 -0.246914,0.41234 -0.249142,0.73118 -0.0034,0.4831 -0.05129,0.51356 -0.287535,0.18282 -0.227751,-0.31885 -0.257833,-0.27984 -0.153011,0.19844 0.07176,0.32742 0.01466,0.59531 -0.126878,0.59531 -0.149039,0 -0.202139,-0.52894 -0.126166,-1.25677 z"
       id="path10185" />
    <path
       style="fill:#3b8472;stroke-width:1.02707"
       d="m 81.761058,186.76158 c -0.01213,-0.11381 0.150466,-0.61983 0.361322,-1.12447 0.283177,-0.67774 0.300464,-0.91965 0.06615,-0.92559 -0.174476,-0.004 -0.108869,-0.12941 0.145792,-0.27773 0.254662,-0.14833 0.463021,-0.38986 0.463021,-0.53674 0,-0.14688 -0.117699,-0.19431 -0.261553,-0.1054 -0.151426,0.0936 -0.19346,-0.0158 -0.09983,-0.25979 0.08895,-0.23179 0.05782,-0.40247 -0.06918,-0.37929 -0.126993,0.0232 -0.40949,0.0243 -0.627771,0.002 -0.345623,-0.0346 -0.343505,-0.0814 0.0164,-0.36206 0.2273,-0.17727 0.499093,-0.55059 0.603986,-0.82958 0.302549,-0.80472 0.830141,-0.0526 0.798899,1.13885 -0.0223,0.85045 -1.33124,4.27862 -1.397229,3.65939 z"
       id="path10184" />
    <path
       style="fill:#3b8472;stroke-width:1.02707"
       d="m 68.702519,187.43145 c -0.194539,-0.37431 0.124932,-2.71044 0.351509,-2.5704 0.124548,0.077 0.151886,0.33426 0.06075,0.57176 -0.110763,0.28864 -0.06307,0.36837 0.143847,0.24049 0.200819,-0.12411 0.316078,0.0233 0.328142,0.41962 0.01757,0.57715 0.03117,0.58167 0.245987,0.0818 0.198851,-0.46275 0.229725,-0.43429 0.245987,0.22674 0.01396,0.56733 -0.08042,0.71792 -0.378278,0.60362 -0.241753,-0.0928 -0.396875,-4.2e-4 -0.396875,0.23628 0,0.40379 -0.42084,0.53691 -0.601071,0.19013 z"
       id="path10177" />
    <path
       style="fill:#3b8472;stroke-width:1.02707"
       d="m 95.922521,187.47595 c -0.247534,-0.64507 -0.19034,-1.43357 0.103984,-1.43357 0.145521,0 0.264583,0.41672 0.264583,0.92604 0,1.00399 -0.116498,1.16441 -0.368567,0.50753 z"
       id="path10176" />
    <path
       style="fill:#3b8472;stroke-width:1.02707"
       d="m 92.057755,187.81362 c 0,-0.19001 0.297656,-0.74892 0.661458,-1.24203 0.718812,-0.97429 0.835023,-0.93499 0.354406,0.11985 -0.168879,0.37065 -0.419743,0.6739 -0.557474,0.6739 -0.137732,0 -0.181889,0.1786 -0.09813,0.39688 0.08376,0.21828 0.03697,0.39687 -0.103985,0.39687 -0.140953,0 -0.256279,-0.15546 -0.256279,-0.34547 z"
       id="path10174" />
    <path
       style="fill:#3b8472;stroke-width:1.02707"
       d="m 63.350465,187.95661 c -0.271738,-0.19965 -0.487809,-0.85585 -0.281808,-0.85585 0.06329,0 0.446206,0.1259 0.850931,0.27978 0.589118,0.22398 0.658507,0.3287 0.347953,0.52511 -0.468169,0.2961 -0.575298,0.30206 -0.917076,0.051 z"
       id="path10173" />
    <path
       style="fill:#3b8472;stroke-width:1.02707"
       d="m 66.077522,187.96071 c -0.218716,-0.25466 -0.49372,-0.70115 -0.61112,-0.99219 -0.196662,-0.48754 -0.22239,-0.49159 -0.32702,-0.0515 -0.122657,0.5159 -0.730584,0.47734 -0.730584,-0.0464 0,-0.17508 -0.178594,-0.43122 -0.396875,-0.56921 -0.273105,-0.17264 -0.291831,-0.25214 -0.06005,-0.25493 0.24952,-0.003 0.224236,-0.19265 -0.09754,-0.73166 l -0.434373,-0.7276 0.554682,0.66146 c 0.305075,0.3638 0.557329,0.73687 0.560565,0.82904 0.0032,0.0922 0.243407,0.22969 0.533714,0.30561 0.290307,0.0759 0.606061,0.35769 0.701675,0.62617 0.09561,0.26847 0.352793,0.6965 0.571509,0.95116 0.218716,0.25466 0.338134,0.46302 0.265374,0.46302 -0.07276,0 -0.311241,-0.20836 -0.529957,-0.46302 z"
       id="path10170" />
    <path
       style="fill:#3b8472;stroke-width:1.02707"
       d="m 99.201505,188.57436 c 0,-0.20816 0.26789,-0.41652 0.595312,-0.46302 0.662043,-0.094 0.796483,-0.50256 0.227753,-0.69214 -0.245012,-0.0817 -0.297542,-0.009 -0.157556,0.21727 0.140706,0.22767 0.104967,0.27488 -0.10831,0.14307 -0.24374,-0.15064 -0.245727,-0.28419 -0.0085,-0.57005 0.404486,-0.48738 0.774196,-0.47613 0.774196,0.0236 0,0.21828 0.11906,0.39688 0.26458,0.39688 0.50326,0 0.26156,0.41686 -0.50384,0.86899 -0.934479,0.55202 -1.083651,0.5624 -1.083651,0.0754 z"
       id="path10165" />
    <path
       style="fill:#3b8472;stroke-width:1.02707"
       d="m 63.367659,188.83989 c -0.783213,-0.24226 -0.928317,-0.36533 -0.585725,-0.4968 0.257639,-0.0989 0.880432,0.053 1.434096,0.34979 1.083538,0.58074 0.74404,0.63957 -0.848371,0.14701 z"
       id="path10163" />
    <path
       style="fill:#3b8472;stroke-width:1.02707"
       d="m 68.468772,189.15932 c -0.0904,-0.4423 -0.04585,-0.65704 0.115593,-0.55726 0.144467,0.0893 0.495538,-0.12268 0.780159,-0.47103 0.382983,-0.46874 0.476703,-0.50739 0.36057,-0.1487 -0.08631,0.26656 -0.156921,0.64978 -0.156921,0.85159 0,0.20736 -0.162528,0.30456 -0.373733,0.22352 -0.222719,-0.0855 -0.415123,0.0515 -0.476164,0.33903 -0.07579,0.35699 -0.140676,0.29532 -0.249504,-0.23715 z"
       id="path10161" />
    <path
       style="fill:#3b8472;stroke-width:1.02707"
       d="m 90.330551,189.28508 c 0.193563,-0.77121 0.667225,-1.48038 0.860007,-1.2876 0.06365,0.0636 -0.08264,0.41848 -0.325093,0.78851 -0.242452,0.37003 -0.364001,0.79708 -0.270109,0.949 0.09389,0.15192 0.03172,0.27622 -0.138169,0.27622 -0.20469,0 -0.247407,-0.24494 -0.126636,-0.72613 z"
       id="path10160" />
    <path
       style="fill:#3b8472;stroke-width:1.02707"
       d="m 87.633505,189.19808 c -0.264009,-0.69944 -0.253622,-0.76891 0.07429,-0.49677 0.301512,0.25023 0.381215,0.23769 0.381215,-0.06 0,-0.20699 -0.148828,-0.5338 -0.330729,-0.72624 -0.273,-0.28881 -0.226229,-0.29611 0.267947,-0.0418 0.482584,0.24834 0.546901,0.40483 0.331678,0.80697 -0.146849,0.27439 -0.195155,0.68611 -0.107348,0.91494 0.08781,0.22882 0.05395,0.41604 -0.07523,0.41604 -0.129186,0 -0.373002,-0.36592 -0.541814,-0.81315 z"
       id="path10159" />
    <path
       style="fill:#3b8472;stroke-width:1.02707"
       d="m 77.625892,190.29531 c 0.09658,-0.15626 0.0027,-0.28411 -0.208589,-0.28411 -0.2113,0 -0.448248,-0.16696 -0.526551,-0.37101 -0.237636,-0.61927 0.145548,-0.7197 0.548881,-0.14386 0.298758,0.42654 0.456732,0.475 0.751335,0.2305 0.205171,-0.17028 0.373038,-0.20459 0.373038,-0.0763 0,0.12834 -0.250584,0.38983 -0.556854,0.5811 -0.306269,0.19127 -0.477836,0.21991 -0.38126,0.0636 z"
       id="path10155" />
    <path
       style="fill:#3b8472;stroke-width:1.02707"
       d="m 71.401495,190.27581 c -0.06462,-0.73579 0.06895,-2.24708 0.220298,-2.49263 0.08261,-0.13402 0.253369,0.0353 0.379477,0.37615 0.15217,0.41135 0.126115,0.68358 -0.07747,0.8094 -0.168715,0.10427 -0.225526,0.32102 -0.126246,0.48165 0.09928,0.16064 0.05862,0.50138 -0.09035,0.75719 -0.216722,0.37215 -0.277824,0.38579 -0.30571,0.0682 z"
       id="path10154" />
    <path
       style="fill:#3b8472;stroke-width:1.02707"
       d="m 85.45842,190.78293 c 0.0084,-0.4972 0.120056,-1.38024 0.248155,-1.96233 0.178994,-0.81334 0.198545,-0.6296 0.08446,0.79375 -0.157983,1.9711 -0.358009,2.67384 -0.332619,1.16858 z"
       id="path10150" />
    <path
       style="fill:#3b8472;stroke-width:1.02707"
       d="m 94.192735,191.26732 c 0.186583,-0.40951 0.458514,-0.62887 0.676074,-0.54539 0.219122,0.0841 0.363946,-0.0357 0.363946,-0.30113 0,-0.24244 0.103095,-0.37709 0.2291,-0.29921 0.391247,0.2418 0.02406,1.45615 -0.392019,1.29648 -0.205143,-0.0787 -0.556641,0.009 -0.781107,0.19558 -0.361013,0.29962 -0.372093,0.25964 -0.09599,-0.34633 z"
       id="path10148" />
    <path
       style="fill:#3b8472;stroke-width:1.02707"
       d="m 104.69326,193.53962 c 0.47431,-0.19123 0.13186,-0.61798 -0.4959,-0.61798 -0.29104,0 -0.45558,0.11907 -0.36565,0.26459 0.20264,0.32788 -0.13761,0.33683 -0.64315,0.0169 -0.28067,-0.17761 -0.13115,-0.28598 0.57814,-0.41905 0.5262,-0.0987 1.08351,-0.10112 1.23847,-0.005 0.45381,0.28047 0.32355,0.93854 -0.18127,0.91577 -0.27933,-0.0126 -0.33116,-0.074 -0.13064,-0.15489 z"
       id="path10138" />
    <path
       style="fill:#3b8472;stroke-width:1.02707"
       d="m 65.550302,193.69316 c -0.227719,-0.12743 -1.252995,-0.26386 -2.278392,-0.30317 -1.025396,-0.0393 -1.711614,-0.15744 -1.524927,-0.26251 0.321005,-0.18067 4.598661,0.18761 4.826589,0.41554 0.237421,0.23742 -0.637831,0.36585 -1.02327,0.15014 z"
       id="path10137" />
    <path
       style="fill:#3b8472;stroke-width:1.02707"
       d="m 84.307687,194.59315 c 0.12364,-0.3222 0.195816,-0.32941 0.400831,-0.04 0.16648,0.23497 0.196727,0.0462 0.09051,-0.56486 -0.11632,-0.6692 -0.08046,-0.8387 0.132416,-0.62583 0.41961,0.41961 0.194457,1.48425 -0.329849,1.5597 -0.297002,0.0427 -0.394619,-0.0665 -0.293909,-0.32897 z"
       id="path10128" />
    <path
       style="fill:#3b8472;stroke-width:1.02707"
       d="m 74.859839,197.74602 -0.661458,-0.36745 0.727604,0.15776 c 0.562317,0.12192 0.727604,0.0591 0.727604,-0.27656 0,-0.35605 0.07151,-0.37496 0.396875,-0.10493 0.45743,0.37963 0.542967,0.91527 0.102711,0.64317 -0.161791,-0.1 -0.37015,-0.0699 -0.463021,0.0668 -0.100336,0.14774 -0.437272,0.0995 -0.830315,-0.11882 z"
       id="path10115" />
    <path
       style="fill:#3b8472;stroke-width:1.02707"
       d="m 64.204459,198.55145 c 0.469697,-0.0585 1.303135,-0.0594 1.852084,-0.002 0.548948,0.0573 0.164651,0.10509 -0.853995,0.10627 -1.018646,0.001 -1.467786,-0.0457 -0.998089,-0.10414 z"
       id="path10107" />
    <path
       style="fill:#3b8472;stroke-width:1.02707"
       d="m 91.396297,199.52444 c 0.67745,-0.27597 2.709121,-0.31444 2.868404,-0.0543 0.06683,0.10914 -0.670284,0.21452 -1.638031,0.23416 -1.131602,0.023 -1.570693,-0.0412 -1.230373,-0.17984 z"
       id="path10101" />
    <path
       style="fill:#3b8472;stroke-width:1.02707"
       d="m 82.692369,199.9478 c -0.355467,-1.41629 -0.457361,-3.32195 -0.177623,-3.32195 0.166552,0 0.282593,0.60469 0.282593,1.4726 0,0.80993 0.123251,1.7029 0.273892,1.98438 0.157126,0.29359 0.169354,0.51177 0.02868,0.51177 -0.134865,0 -0.31826,-0.29106 -0.407545,-0.6468 z"
       id="path10099" />
    <path
       style="fill:#3b8472;stroke-width:1.02707"
       d="m 86.527435,201.49857 c 0.507028,-0.60816 0.876051,-1.46542 0.787777,-1.83005 -0.03523,-0.14552 0.02421,-0.17632 0.132088,-0.0684 0.107878,0.10788 0.342021,0.0751 0.520316,-0.0729 0.228694,-0.1898 0.369436,-0.15109 0.477844,0.13141 0.08452,0.22025 0.06866,0.38779 -0.03525,0.3723 -0.56601,-0.0844 -0.629427,0.0814 -0.17334,0.45298 0.438528,0.35731 0.445918,0.39719 0.05057,0.27289 -0.254662,-0.0801 -0.463021,-0.0559 -0.463021,0.0536 0,0.10958 -0.386953,0.42335 -0.859896,0.69727 -0.846424,0.49023 -0.853272,0.49009 -0.437091,-0.009 z"
       id="path10096" />
    <path
       style="fill:#317866;stroke-width:1.02707"
       d="m 83.444739,164.00542 c -0.249274,-0.1395 -0.987954,-0.2429 -1.641511,-0.22979 -1.165148,0.0234 -1.179119,0.0137 -0.717538,-0.49631 0.25891,-0.2861 0.630887,-0.52017 0.826614,-0.52017 0.633527,0 0.380433,-1.27653 -0.437882,-2.20854 -1.180786,-1.34484 -0.959835,-1.50411 0.330729,-0.2384 1.092728,1.07168 1.909786,1.30469 2.751287,0.78461 0.154828,-0.0957 0.774869,-0.23597 1.37787,-0.31173 0.868558,-0.10913 1.096364,-0.0535 1.096364,0.26786 0,0.41932 0.325159,0.89683 1.124479,1.65132 0.557206,0.52597 0.60468,0.88638 0.09078,0.68918 -0.204734,-0.0786 -0.948874,0.0594 -1.653646,0.30649 -1.558413,0.54648 -2.545686,0.6423 -3.147545,0.30548 z"
       id="path7919" />
    <path
       style="fill:#317866;stroke-width:1.02707"
       d="m 85.407325,171.60807 c -0.114821,-0.21948 -0.114054,-0.88265 0.0028,-2.39903 0.02693,-0.3496 0.106191,-0.36859 0.427035,-0.10231 0.216679,0.17983 0.328715,0.43253 0.248968,0.56156 -0.07975,0.12903 -0.0189,0.23461 0.135205,0.23461 0.154109,0 0.280198,-0.13891 0.280198,-0.30868 0,-0.16978 0.0556,-0.25309 0.123543,-0.18514 0.06795,0.068 0.01865,0.47474 -0.10955,0.90399 -0.172542,0.57771 -0.244229,0.64299 -0.275963,0.25128 -0.03042,-0.37545 -0.138519,-0.26442 -0.372156,0.38226 -0.181106,0.50129 -0.388131,0.79894 -0.460054,0.66146 z"
       id="path7911" />
    <path
       style="fill:#317866;stroke-width:1.02707"
       d="m 86.107854,174.46109 c -0.112763,-0.62168 -0.308446,-1.19426 -0.434852,-1.27238 -0.126407,-0.0781 -0.221462,-0.34338 -0.211234,-0.58945 0.01516,-0.36473 0.06062,-0.34962 0.245987,0.0818 0.182262,0.42415 0.237724,0.31912 0.279456,-0.52917 0.04081,-0.82959 0.103392,-0.65803 0.28954,0.79375 0.269368,2.10083 0.142976,3.23494 -0.168897,1.51549 z"
       id="path7908" />
    <path
       style="fill:#317866;stroke-width:1.02707"
       d="m 69.30359,177.32374 c 0,-0.14327 -0.178594,-0.19195 -0.396875,-0.10819 -0.218282,0.0838 -0.396875,0.0205 -0.396875,-0.1406 0,-0.16109 -0.238125,-0.53101 -0.529167,-0.82205 -0.60782,-0.60782 -0.515443,-0.6326 0.896649,-0.24053 0.895732,0.24871 1.124571,0.21499 1.76762,-0.26043 0.680656,-0.50324 0.749652,-0.51021 0.878371,-0.0887 0.07683,0.25157 0.08279,-0.13791 0.01325,-0.86551 -0.121105,-1.2671 -0.109876,-1.29501 0.266126,-0.66146 0.539041,0.90826 0.505854,1.51173 -0.112241,2.04096 -0.393358,0.33681 -0.442706,0.50496 -0.198437,0.6762 0.195423,0.137 0.07167,0.15605 -0.310217,0.0478 -0.48383,-0.13719 -0.601173,-0.0911 -0.492072,0.19319 0.100459,0.26179 -0.08522,0.39075 -0.621434,0.43161 -0.420585,0.032 -0.764699,-0.0589 -0.764699,-0.20221 z"
       id="path7907" />
    <path
       style="fill:#317866;stroke-width:1.02707"
       d="m 74.983678,178.87209 c -0.272286,-0.85789 0.253992,-1.19171 1.053201,-0.66805 0.371274,0.24327 0.67322,0.58839 0.670992,0.76693 -0.0026,0.20721 -0.0947,0.18108 -0.254657,-0.0722 -0.137834,-0.21828 -0.496106,-0.41053 -0.796161,-0.42721 -0.417321,-0.0232 -0.50875,0.0856 -0.388971,0.46302 0.08612,0.27135 0.09705,0.49336 0.02429,0.49336 -0.07276,0 -0.211674,-0.25011 -0.308696,-0.55581 z"
       id="path7901" />
    <path
       style="fill:#317866;stroke-width:1.02707"
       d="m 96.190135,179.83851 c 0.11168,-0.29103 -0.0048,-0.41061 -0.399906,-0.41061 -0.651761,0 -0.639158,0.0487 -0.265081,-1.02438 0.221539,-0.63551 0.213689,-0.9336 -0.0324,-1.23011 -0.210087,-0.25314 -0.224552,-0.39135 -0.04096,-0.39135 0.156108,0 0.379046,0.15582 0.495418,0.34627 0.116371,0.19045 0.600465,0.50334 1.075764,0.69533 0.707687,0.28585 0.807112,0.41783 0.549041,0.72879 -0.271156,0.32672 -0.349923,0.31756 -0.564363,-0.0656 -0.20272,-0.36224 -0.29077,-0.37811 -0.471886,-0.0851 -0.122464,0.19815 -0.158437,0.61616 -0.07994,0.92892 0.0785,0.31275 0.01538,0.64735 -0.14027,0.74354 -0.173955,0.10751 -0.22228,0.0167 -0.125422,-0.23572 z"
       id="path7900" />
    <path
       style="fill:#317866;stroke-width:1.02707"
       d="m 86.03407,179.4279 c 4.82e-4,-1.09141 0.09177,-2.34157 0.202852,-2.77813 0.289987,-1.13963 0.304112,2.3073 0.01518,3.70417 -0.189965,0.9184 -0.218793,0.79596 -0.218032,-0.92604 z"
       id="path7899" />
    <path
       style="fill:#317866;stroke-width:1.02707"
       d="m 86.059159,183.26435 c 0.0012,-1.01864 0.049,-1.40294 0.106272,-0.85399 0.05728,0.54895 0.05632,1.38239 -0.0021,1.85208 -0.05845,0.4697 -0.105312,0.0206 -0.104138,-0.99809 z"
       id="path7895" />
    <path
       style="fill:#317866;stroke-width:1.02707"
       d="m 82.033644,186.30706 c -0.007,-0.0728 0.217571,-0.78713 0.499112,-1.5875 0.28154,-0.80036 0.512656,-1.21708 0.51359,-0.92604 0.0015,0.45317 -0.97711,2.88198 -1.012702,2.51354 z"
       id="path7894" />
    <path
       style="fill:#605b33;stroke-width:1.02707"
       d="m 83.444739,164.00542 c -0.249274,-0.1395 -0.987954,-0.2429 -1.641511,-0.22979 -1.165148,0.0234 -1.179119,0.0137 -0.717538,-0.49631 0.25891,-0.2861 0.630887,-0.52017 0.826614,-0.52017 0.633527,0 0.380433,-1.27653 -0.437882,-2.20854 -1.180786,-1.34484 -0.959835,-1.50411 0.330729,-0.2384 1.092728,1.07168 1.909786,1.30469 2.751287,0.78461 0.154828,-0.0957 0.774869,-0.23597 1.37787,-0.31173 0.868558,-0.10913 1.096364,-0.0535 1.096364,0.26786 0,0.41932 0.325159,0.89683 1.124479,1.65132 0.557206,0.52597 0.60468,0.88638 0.09078,0.68918 -0.204734,-0.0786 -0.948874,0.0594 -1.653646,0.30649 -1.558413,0.54648 -2.545686,0.6423 -3.147545,0.30548 z"
       id="path7877" />
    <path
       style="fill:#605b33;stroke-width:1.02707"
       d="m 69.30359,176.88565 c 0,-0.32668 -0.148829,-0.64376 -0.33073,-0.70464 -0.181901,-0.0609 -0.02526,-0.065 0.34809,-0.009 0.41732,0.0625 0.977905,-0.12368 1.455208,-0.48317 0.427015,-0.32162 0.627562,-0.42151 0.445661,-0.22197 -0.449742,0.49333 -0.416613,0.80246 0.06615,0.61721 0.251091,-0.0964 0.398364,-0.50636 0.400927,-1.11617 0.003,-0.70739 0.07045,-0.85886 0.253574,-0.56921 0.310377,0.49094 0.04997,1.64923 -0.435409,1.93669 -0.199382,0.11809 -0.286109,0.33833 -0.192727,0.48942 0.100908,0.16327 -0.06596,0.14855 -0.411338,-0.0363 -0.526684,-0.28187 -0.556,-0.26406 -0.312949,0.19008 0.234879,0.43888 0.171667,0.50109 -0.509139,0.50109 -0.629186,0 -0.777313,-0.11319 -0.777313,-0.59395 z"
       id="path7871" />
  </g>
</svg>
