<?xml version="1.0" encoding="UTF-8" standalone="no"?>
<!-- Created with Inkscape (http://www.inkscape.org/) -->

<svg
   width="185"
   height="185"
   viewBox="0 0 48.947914 48.947918"
   version="1.1"
   id="svg1"
   xmlns="http://www.w3.org/2000/svg"
   xmlns:svg="http://www.w3.org/2000/svg">
  <defs
     id="defs1" />
  <g
     id="g29033"
     transform="matrix(0.77032242,0,0,0.77032242,-124.07512,-1.8094841)">
    <path
       style="fill:#dbdea7"
       d="m 197.01523,19.496075 c 0.15711,-0.252677 1.26621,-2.597656 1.26621,-2.677176 0,-0.01369 -0.27952,-0.04802 -0.62117,-0.0763 -0.43453,-0.03596 -1.06291,0.379886 -2.09139,1.384032 -1.40383,1.370603 -1.47468,1.504768 -1.56868,2.970264 -0.1824,2.843612 -0.0475,2.907687 1.46425,0.695654 0.74898,-1.095897 1.44683,-2.129312 1.55078,-2.296477 z"
       id="path29030" />
    <path
       style="fill:#dbdea7"
       d="m 191.8254,19.942789 c -0.73498,-2.157029 -2.78381,-4.153671 -3.33955,-3.25447 -0.31415,0.508296 0.21094,1.708673 1.74299,3.984558 0.76869,1.141907 1.496,2.347447 1.61625,2.678977 0.42258,1.165048 0.40333,-2.167565 -0.0197,-3.409065 z"
       id="path29029" />
    <path
       style="fill:#dbdea7"
       d="m 192.05893,64.262244 c -0.45226,-3.896694 -1.6105,-5.033781 -7.40353,-7.268307 -3.03217,-1.169589 -5.333,-2.709933 -8.05164,-5.390343 -2.63747,-2.600397 -5.30982,-5.666278 -5.30982,-6.091762 0,-0.599405 2.9757,-1.107026 5.93817,-1.012985 2.86548,0.09096 3.04348,0.132046 5.19826,1.19978 3.58282,1.775358 6.83115,5.531787 8.42379,9.741425 1.29891,3.433256 1.3722,3.342863 1.28716,-1.5875 -0.076,-4.40659 -0.0937,-4.529344 -0.87134,-6.045756 -1.04319,-2.034252 -2.87921,-4.291815 -4.46545,-5.490699 -1.00703,-0.761117 -1.88278,-1.111983 -4.14247,-1.659664 -1.57601,-0.381978 -3.02114,-0.694505 -3.21141,-0.694505 -0.19027,0 -0.85276,-0.20836 -1.47221,-0.463021 -0.93946,-0.386224 -1.12643,-0.583702 -1.12726,-1.190625 -0.001,-0.834157 -0.17506,-0.88125 -1.22751,-0.332359 -1.75447,0.915015 -3.80056,0.02818 -3.80056,-1.647264 0,-1.388947 1.49594,-2.716731 3.06078,-2.716731 0.41314,0 1.09607,-0.342644 1.64692,-0.826301 0.87425,-0.7676 1.0459,-0.816216 2.41618,-0.684341 0.81129,0.07808 1.85117,0.334153 2.31083,0.569055 0.45967,0.234902 1.6405,0.523975 2.62406,0.642385 1.51966,0.18295 1.8794,0.329536 2.39473,0.975825 0.38661,0.484864 0.50449,0.823536 0.32519,0.934349 -0.47589,0.294117 0.24541,1.299445 0.93232,1.299445 0.73557,0 1.4869,0.762938 1.4869,1.509875 0,0.298192 -0.17859,0.969602 -0.39687,1.492023 -0.21828,0.52242 -0.39688,1.050649 -0.39688,1.173842 0,0.123193 0.74151,1.109282 1.64779,2.19131 2.70729,3.232275 2.4409,3.179482 2.54099,0.503564 0.17852,-4.772646 -1.31826,-8.477736 -4.62747,-11.454767 -0.96212,-0.865537 -1.37708,-1.034716 -3.30729,-1.348359 -3.3571,-0.545501 -4.34912,-0.876272 -4.83024,-1.610547 -0.5024,-0.766758 -0.93313,-0.817524 -2.04742,-0.241304 -0.67342,0.348239 -0.94629,0.36345 -1.6405,0.09145 -1.09616,-0.429487 -1.49419,-0.956739 -1.49419,-1.979264 0,-1.212349 0.88176,-2.19958 2.145,-2.40158 1.26413,-0.202143 2.35292,-0.999209 2.35292,-1.722492 0,-0.473078 0.16,-0.523364 1.52135,-0.478151 0.83675,0.02779 1.85653,-0.08285 2.26619,-0.245868 0.40965,-0.163017 0.92665,-0.296395 1.14889,-0.296395 0.6465,0 1.81044,1.059922 1.81044,1.648647 0,0.525705 0.32963,0.816783 1.24136,1.096168 0.24618,0.07544 0.62852,0.413284 0.84965,0.750767 0.35582,0.543042 0.35821,0.823133 0.0208,2.435596 l -0.38121,1.821989 1.67285,1.613521 c 0.92007,0.887436 1.98787,2.030238 2.37289,2.539561 l 0.70005,0.926042 0.003,-3.166141 0.003,-3.166141 -1.32158,-2.68591 c -1.97288,-4.009579 -4.30084,-5.845587 -7.88699,-6.220287 -2.16627,-0.226343 -2.96226,-0.90229 -2.96226,-2.515521 0,-1.347658 0.74476,-2.077849 2.40549,-2.358427 0.77229,-0.130478 1.13026,-0.346682 1.29607,-0.782791 0.17529,-0.461039 0.51619,-0.645579 1.45178,-0.785879 1.62649,-0.243907 2.65473,0.01291 3.16407,0.790258 0.23036,0.351562 0.78309,0.827571 1.2283,1.057799 0.44521,0.230228 1.16775,0.798253 1.60564,1.262277 l 0.79617,0.84368 -0.15298,-2.116666 c -0.0841,-1.164167 -0.1917,-2.338596 -0.23901,-2.609842 -0.13945,-0.799361 -2.03053,-2.00157 -2.03053,-1.290856 0,0.11019 -0.53662,0.157665 -1.19249,0.105501 -0.89249,-0.07098 -1.32516,-0.263491 -1.7198,-0.765192 -0.64433,-0.8191358 -0.65845,-1.2213558 -0.0774,-2.2050054 0.54457,-0.9218877 2.59227,-1.744009 3.16337,-1.2700443 0.44513,0.369431 1.03143,-0.058171 1.24467,-0.907767 0.16931,-0.6745992 1.43292,-1.5078356 2.28664,-1.5078356 0.93825,0 2.40534,0.8248455 2.66043,1.4957832 0.12983,0.3414858 0.39242,0.6208834 0.58354,0.6208834 0.54247,0 2.40729,1.0135201 2.77447,1.5079117 0.44056,0.5931988 0.41922,1.7095115 -0.0448,2.344123 -0.28853,0.394595 -0.69484,0.51359 -1.75366,0.51359 -1.17972,0 -1.43961,0.09523 -1.8052,0.661458 -0.23488,0.363802 -0.57665,0.818612 -0.75947,1.010689 -0.43541,0.457444 -0.56778,1.123359 -0.65667,3.30345 -0.072,1.765103 -0.0643,1.788574 0.39006,1.190625 1.15388,-1.518639 3.30534,-3.734528 3.95516,-4.073613 0.39296,-0.205049 1.23771,-0.372817 1.87722,-0.372817 1.20341,0 1.79579,0.403987 2.41574,1.64747 0.30224,0.606236 1.03388,1.04511 2.40091,1.440172 0.98197,0.283785 1.19895,1.390007 0.52008,2.651516 -0.56346,1.047032 -0.75924,1.129767 -3.66532,1.54886 -1.29332,0.186513 -2.42441,0.441463 -2.51354,0.566555 -0.0891,0.125092 -0.46448,0.419415 -0.83411,0.654051 -0.94024,0.596852 -2.70022,2.947018 -3.73323,4.985125 -0.83526,1.647926 -0.87579,1.869051 -0.97004,5.291666 l -0.0984,3.571875 1.31839,-1.984375 c 0.72511,-1.091406 1.67732,-2.311056 2.11602,-2.710332 0.69983,-0.636949 0.79264,-0.888396 0.75699,-2.050811 -0.0223,-0.728669 0.0394,-1.324723 0.13728,-1.324563 0.0978,1.59e-4 0.30677,-0.390146 0.46426,-0.867346 0.2825,-0.855971 1.93785,-2.612396 3.30843,-3.510436 0.59442,-0.389479 0.80101,-0.408867 1.33151,-0.124956 0.42265,0.226199 1.09376,0.277848 2.05299,0.157999 1.21601,-0.15193 1.5297,-0.09576 2.13821,0.382901 0.39223,0.308523 0.71314,0.711793 0.71314,0.896154 0,0.361364 1.08903,0.949307 1.75838,0.949307 0.66913,0 1.94578,1.561494 1.94578,2.37992 0,1.222164 -0.77302,1.903676 -2.32886,2.053173 -0.80175,0.07704 -1.70056,-0.0057 -2.1688,-0.199656 -0.73627,-0.304972 -0.85706,-0.273705 -1.52442,0.39461 -0.97225,0.973636 -1.64014,1.192786 -3.63521,1.192786 -2.08197,0 -2.59656,0.20539 -4.11028,1.640538 -3.25058,3.081844 -4.21725,5.70155 -4.22209,11.441991 l -0.002,2.366904 0.7602,-1.176279 c 0.41812,-0.646954 1.26276,-1.652529 1.87699,-2.234613 1.47496,-1.397761 1.76873,-2.153517 1.12113,-2.884182 -0.27075,-0.30547 -0.51201,-0.853057 -0.53614,-1.216859 -0.0622,-0.937749 0.77028,-2.569007 1.47581,-2.891928 0.32833,-0.150272 0.56645,-0.367431 0.52917,-0.482573 -0.0373,-0.115143 0.42289,-0.65314 1.02261,-1.195549 0.96184,-0.869926 1.25118,-0.9862 2.45401,-0.9862 0.74998,0 2.04111,-0.238125 2.86918,-0.529166 2.098,-0.737388 2.97426,-0.684632 4.01163,0.241524 0.47477,0.423881 1.24036,0.912146 1.7013,1.085036 1.62359,0.60898 2.07747,0.910713 2.44814,1.627507 0.56576,1.094069 0.45637,1.767072 -0.43158,2.655013 -0.74502,0.745029 -0.90336,0.792943 -2.09702,0.634597 -0.79358,-0.105271 -1.35663,-0.06535 -1.46104,0.103595 -0.46519,0.752692 -4.6516,2.10637 -7.68112,2.483693 -1.68004,0.209248 -2.35136,0.563568 -3.78609,1.998299 -1.58679,1.586788 -2.7827,3.269296 -3.54572,4.988409 -0.46753,1.053365 -0.5678,1.887401 -0.64307,5.348992 l -0.0892,4.101042 0.492,-1.32601 c 2.07331,-5.587757 5.83989,-9.60364 10.29932,-10.98102 2.7165,-0.839039 7.8264,-0.625726 9.20781,0.384381 0.43895,0.320973 0.44417,0.399705 0.0647,0.97651 -0.89819,1.365202 -5.37458,6.107799 -6.94276,7.355641 -2.10537,1.675287 -4.82952,3.221085 -7.75482,4.400407 -1.25981,0.507884 -2.68824,1.226749 -3.17429,1.597475 -1.81886,1.387313 -1.8795,1.510914 -2.61571,5.331678 -0.0807,0.418705 -0.30174,0.595312 -0.74515,0.595312 -0.57545,0 -0.64693,-0.142064 -0.81949,-1.628849 z"
       id="path29028" />
    <path
       style="fill:#e8d749"
       d="m 195.81454,21.387703 c 1.81982,-2.598645 2.66088,-4.425703 2.17541,-4.725734 -0.46003,-0.284318 -1.55975,0.387602 -2.94575,1.799841 -1.09933,1.120129 -1.1172,1.168256 -1.17482,3.164078 -0.0562,1.945544 0.13674,3.006873 0.39687,2.183426 0.0667,-0.211114 0.76342,-1.300839 1.54829,-2.421611 z"
       id="path29016" />
    <path
       style="fill:#e8d749"
       d="m 191.89733,19.74166 c -0.58886,-1.475222 -2.1492,-3.213273 -2.87631,-3.203891 -1.12136,0.01447 -0.757,1.318438 1.18621,4.245258 0.94832,1.428331 1.74753,2.785793 1.77603,3.01658 0.0285,0.230787 0.094,-0.404664 0.14543,-1.412114 0.054,-1.057809 -0.0437,-2.175693 -0.23136,-2.645833 z"
       id="path29015" />
    <path
       style="fill:#e8d749"
       d="m 192.3609,65.428072 c -0.0745,-0.254661 -0.25648,-1.144666 -0.40451,-1.977788 -0.55867,-3.144394 -1.67095,-4.246355 -6.08105,-6.024646 -4.19757,-1.69259 -6.01754,-2.821365 -8.73502,-5.417615 -2.53944,-2.426159 -5.58179,-5.890195 -5.58179,-6.35546 0,-0.568019 1.36859,-0.953055 3.94564,-1.110056 2.99985,-0.182759 4.67169,0.12027 7.08502,1.284196 3.27812,1.581008 5.98013,4.65492 7.86883,8.951891 1.90441,4.332696 1.7649,4.409652 1.67874,-0.926042 l -0.0769,-4.7625 -0.9241,-1.712717 c -1.09772,-2.034474 -3.62473,-4.823144 -5.13535,-5.667089 -0.59424,-0.331983 -2.21152,-0.869424 -3.59397,-1.194314 -1.38245,-0.32489 -3.02464,-0.718409 -3.64932,-0.874488 -1.16085,-0.290045 -1.90693,-1.015828 -1.90693,-1.855054 0,-0.592369 -0.053,-0.589018 -1.37853,0.08725 -0.95394,0.48666 -1.22321,0.518491 -2.11808,0.250383 -1.20125,-0.359904 -1.64863,-1.203317 -1.31743,-2.483646 0.2469,-0.954411 1.83099,-2.016891 3.0178,-2.024092 0.39451,-0.0024 0.94208,-0.245634 1.21682,-0.540532 1.00525,-1.079003 3.98016,-1.271956 4.74661,-0.307864 0.1819,0.228809 0.33073,0.336675 0.33073,0.239703 0,-0.09697 0.32742,-0.0466 0.7276,0.111947 0.40018,0.158543 1.23079,0.273804 1.84579,0.256136 0.89817,-0.0258 1.2886,0.123639 1.98437,0.759551 0.68913,0.629842 0.79069,0.841128 0.4968,1.033596 -0.29909,0.195885 -0.23845,0.372863 0.31871,0.930016 0.37845,0.378452 0.91705,0.688094 1.19689,0.688094 0.9173,0 1.15787,0.600837 0.81045,2.024093 -0.17228,0.705759 -0.41864,1.418705 -0.54746,1.584324 -0.23098,0.296951 0.29519,1.065574 1.96734,2.873874 0.40369,0.436563 0.99975,1.17989 1.32456,1.651838 0.32482,0.471948 0.6954,0.858902 0.82353,0.859896 0.12871,9.99e-4 0.17882,-1.594098 0.11198,-3.564841 -0.12017,-3.543449 -0.12803,-3.580883 -1.20849,-5.754688 -1.07286,-2.158545 -3.28149,-4.952474 -4.37951,-5.540116 -0.31,-0.165911 -1.40026,-0.403113 -2.42279,-0.527115 -3.58772,-0.435084 -3.84616,-0.511433 -4.4372,-1.310851 -0.62657,-0.847479 -1.49822,-0.977804 -2.57011,-0.384265 -1.22472,0.678167 -2.92163,-0.417851 -2.92163,-1.887057 0,-1.177744 0.91136,-2.079879 2.346,-2.32226 0.85263,-0.144051 1.29881,-0.42465 1.93598,-1.217525 0.72082,-0.896968 0.95962,-1.025175 1.84488,-0.990487 0.55929,0.02191 1.01689,0.137479 1.01689,0.256808 0,0.11933 0.46979,-0.0279 1.04397,-0.327186 1.00309,-0.522839 1.08122,-0.526474 1.99504,-0.09284 0.56265,0.266991 0.93427,0.626035 0.90994,0.879124 -0.0836,0.868967 0.0419,1.040641 1.05693,1.446792 1.0925,0.437129 1.32952,0.857141 1.21671,2.15602 -0.0379,0.436563 -0.0843,1.13391 -0.10305,1.549662 -0.0246,0.545622 -0.14134,0.714767 -0.41954,0.608014 -0.76379,-0.293094 0.15925,1.104272 1.2108,1.832993 1.07406,0.744325 3.40795,3.413718 3.40795,3.897851 0,0.176125 0.0805,0.189944 0.20817,0.03575 0.11449,-0.138245 0.14426,-1.739636 0.0661,-3.558646 -0.14051,-3.272027 -0.15472,-3.332671 -1.33265,-5.687524 -0.65485,-1.309129 -1.66688,-2.8589 -2.24896,-3.443936 -1.30057,-1.307171 -3.61213,-2.469891 -5.02746,-2.528823 -2.51562,-0.104748 -3.5715,-0.900013 -3.5715,-2.689977 0,-0.848005 0.13314,-1.084558 0.8599,-1.527858 0.47294,-0.28848 1.24113,-0.596565 1.70709,-0.684634 0.46596,-0.08807 1.02345,-0.429107 1.23885,-0.757863 0.79753,-1.217184 3.37606,-1.044993 4.92556,0.328923 0.44649,0.3959 1.34349,1.227924 1.99333,1.848943 l 1.18152,1.129125 -0.002,-1.393708 c -0.001,-0.76654 -0.0771,-2.016663 -0.16859,-2.778051 -0.14737,-1.226938 -0.27187,-1.446642 -1.09492,-1.932254 -0.65026,-0.38366 -1.01216,-0.46439 -1.20725,-0.269303 -0.55211,0.552113 -2.0153,0.316178 -2.71389,-0.437606 -0.75752,-0.8173859 -0.6897,-1.6765547 0.20833,-2.6388418 0.64644,-0.6926964 2.44916,-1.0660734 2.98801,-0.6188717 0.30216,0.2507694 0.47791,0.1020689 0.93248,-0.7889614 0.71484,-1.4012147 1.92119,-1.9795178 3.21835,-1.5428337 1.13655,0.3826124 1.54297,0.7124483 1.83977,1.4930994 0.13363,0.3514733 0.39111,0.5753646 0.57883,0.5033276 0.18598,-0.071365 0.56427,0.035594 0.84065,0.237687 0.27638,0.202093 0.71112,0.3674418 0.9661,0.3674418 0.60492,0 1.28735,0.9912652 1.28735,1.8699476 0,1.0578992 -0.89589,1.7084892 -2.27896,1.6549622 -1.09489,-0.04237 -1.22411,0.02956 -2.08988,1.163426 -0.8443,1.105743 -0.92283,1.361123 -0.92283,3.000989 0,0.985817 -0.0763,2.010493 -0.16965,2.277056 -0.0933,0.266563 0.47224,-0.170183 1.25677,-0.970548 0.78453,-0.800364 1.39704,-1.53251 1.36114,-1.626991 -0.072,-0.189471 1.69051,-1.804565 1.99272,-1.826037 0.10408,-0.0074 0.69861,-0.07842 1.32118,-0.157823 1.20561,-0.153773 2.43992,0.386171 2.43992,1.067329 0,0.558272 1.33574,1.749772 1.96159,1.749772 0.80264,0 1.74258,0.72875 1.74258,1.351059 0,1.725135 -1.64482,2.907319 -4.06318,2.920338 -1.95128,0.0105 -3.68237,1.064539 -5.23287,3.18622 -1.61919,2.215682 -2.59431,4.200426 -2.73892,5.574747 -0.31115,2.95718 -0.38638,6.546802 -0.13719,6.546802 0.14625,0 0.26591,-0.127376 0.26591,-0.283058 0,-0.455977 1.5667,-2.660745 2.80895,-3.952948 1.02063,-1.061677 1.15813,-1.353514 1.24661,-2.645834 0.15633,-2.283497 0.9226,-3.495048 3.4019,-5.378697 0.79486,-0.603899 1.07293,-0.688559 1.50396,-0.457882 0.29083,0.155652 1.31053,0.283003 2.26598,0.283003 1.81357,0 1.74416,-0.03595 3.19239,1.653645 0.21828,0.254662 0.66477,0.466808 0.99219,0.471436 1.25274,0.01771 2.46125,1.634274 2.17978,2.915785 -0.27394,1.247276 -1.51948,1.691212 -3.59779,1.28233 -1.53267,-0.301536 -1.60811,-0.289909 -2.29921,0.354358 -1.14001,1.062747 -1.69601,1.235451 -3.81103,1.183781 l -1.99202,-0.04866 -1.47049,1.256275 c -3.35361,2.86508 -4.3333,5.095057 -4.7181,10.739331 -0.14252,2.090542 -0.20187,3.858252 -0.13187,3.928243 0.07,0.06999 0.37545,-0.359251 0.6788,-0.953872 0.30336,-0.594622 0.95856,-1.451497 1.45601,-1.904168 0.49745,-0.452671 1.23137,-1.294771 1.63093,-1.871334 0.68679,-0.991039 0.70417,-1.08714 0.31819,-1.759492 -1.03995,-1.811561 -0.59013,-3.537575 1.15745,-4.441287 0.43604,-0.225484 0.73787,-0.4649 0.67073,-0.532038 -0.0671,-0.06714 0.21529,-0.483213 0.62762,-0.924613 0.64958,-0.695379 0.95408,-0.810084 2.28029,-0.85899 0.84183,-0.03104 1.64967,-0.120592 1.79519,-0.198996 0.9342,-0.503335 3.32133,-1.085155 3.8785,-0.945316 0.36277,0.09105 1.0293,0.51887 1.48118,0.950713 0.45188,0.431843 1.28404,0.909689 1.84924,1.061881 1.62985,0.438874 2.28672,1.328051 2.21514,2.998526 -0.0477,1.11313 -1.3814,1.829151 -3.00792,1.614865 -0.78519,-0.103445 -1.25677,-0.06444 -1.25677,0.103959 0,0.512772 -2.99569,1.634571 -5.55625,2.080655 -2.96455,0.516464 -3.60523,0.68762 -4.3904,1.172886 -1.42449,0.880379 -3.49751,3.39339 -4.5481,5.513414 -0.94721,1.911416 -0.97341,2.046583 -1.12788,5.820833 -0.087,2.125187 -0.0734,3.963966 0.0302,4.086175 0.10358,0.122209 0.39402,-0.397121 0.64544,-1.154068 0.93652,-2.819599 3.47932,-6.63094 5.5088,-8.256991 1.50035,-1.202111 2.15964,-1.586131 4.01427,-2.338214 1.39254,-0.5647 1.97741,-0.640855 4.7625,-0.620121 3.0855,0.02297 5.13491,0.432161 5.34671,1.067539 0.11671,0.35014 -1.83561,2.633041 -4.95557,5.79468 -2.95902,2.998551 -5.12122,4.433281 -9.7147,6.446226 -4.69844,2.058938 -5.43759,2.881992 -6.02603,6.710105 -0.11409,0.742174 -0.27834,0.992187 -0.65186,0.992187 -0.27465,0 -0.56027,-0.208359 -0.63472,-0.463021 z"
       id="path29014" />
    <path
       style="fill:#85ae62"
       d="m 192.3609,65.428072 c -0.0745,-0.254661 -0.25648,-1.144666 -0.40451,-1.977788 -0.55867,-3.144394 -1.67095,-4.246355 -6.08105,-6.024646 -4.19757,-1.69259 -6.01754,-2.821365 -8.73502,-5.417615 -2.53944,-2.426159 -5.58179,-5.890195 -5.58179,-6.35546 0,-0.568019 1.36859,-0.953055 3.94564,-1.110056 2.99985,-0.182759 4.67169,0.12027 7.08502,1.284196 3.27812,1.581008 5.98013,4.65492 7.86883,8.951891 1.90441,4.332696 1.7649,4.409652 1.67874,-0.926042 l -0.0769,-4.7625 -0.9241,-1.712717 c -1.00898,-1.870018 -3.50181,-4.703607 -4.89599,-5.565261 -0.76909,-0.475319 -2.27623,-0.915611 -7.26256,-2.121654 -2.23555,-0.540713 -2.43611,-1.39034 -0.26756,-1.133508 1.14308,0.135381 1.31554,0.0941 1.31554,-0.314899 0,-0.258889 0.20836,-0.628874 0.46302,-0.82219 0.55269,-0.419547 0.8599,-0.460902 0.8599,-0.115755 0,0.488804 1.25834,1.502973 2.41103,1.94319 0.64103,0.244813 1.28353,0.698965 1.42776,1.009227 0.32414,0.697243 2.24662,1.437348 2.24662,0.86489 0,-0.201134 0.1069,-0.365697 0.23756,-0.365697 0.25684,0 3.00008,3.025309 3.86349,4.260758 0.29104,0.416449 0.63399,0.759238 0.76212,0.761753 0.12878,0.0025 0.17885,-1.590361 0.11198,-3.562077 -0.12017,-3.543449 -0.12803,-3.580883 -1.20849,-5.754688 -1.07286,-2.158545 -3.28149,-4.952474 -4.37951,-5.540116 -0.31,-0.165911 -1.40026,-0.403113 -2.42279,-0.527115 -3.45726,-0.419262 -3.83453,-0.523822 -4.37661,-1.212976 -0.28889,-0.367254 -0.52342,-0.800506 -0.52119,-0.962782 0.002,-0.169728 0.10042,-0.14297 0.23093,0.063 0.16813,0.265322 0.35916,0.287256 0.73764,0.0847 0.40478,-0.21663 0.57693,-0.167398 0.82964,0.237266 0.24145,0.386627 0.24339,0.510615 0.008,0.510615 -0.171,0 -0.25085,0.06007 -0.17743,0.133484 0.27627,0.276277 1.8076,-0.466877 1.82768,-0.886971 0.0131,-0.2747 0.0705,-0.314241 0.15434,-0.106409 0.21992,0.545025 1.14769,0.397236 1.14769,-0.182823 0,-0.747063 0.39126,-0.871122 0.91659,-0.290631 0.5413,0.598129 0.34076,1.062105 -0.46919,1.085537 -0.54737,0.01584 -0.54281,0.03159 0.0818,0.282459 0.3638,0.146129 1.01865,0.276473 1.45521,0.289656 1.30627,0.03944 4.38923,2.682291 5.58469,4.787437 0.46597,0.82055 0.53062,0.264071 0.37872,-3.259656 -0.14104,-3.271524 -0.15545,-3.333033 -1.3332,-5.687524 -0.65485,-1.309129 -1.66688,-2.8589 -2.24896,-3.443936 -1.11382,-1.119469 -3.89376,-2.638429 -4.71547,-2.576532 -0.39278,0.02959 -0.42422,-0.03547 -0.16693,-0.345486 0.38926,-0.469019 1.49015,-0.503345 1.64232,-0.05121 0.0878,0.260966 0.2001,0.25746 0.53221,-0.01662 0.34996,-0.288808 0.55788,-0.276514 1.23366,0.07294 0.44701,0.231161 0.81275,0.532561 0.81275,0.669778 0,0.401746 0.75573,-0.0037 0.84484,-0.453254 0.0797,-0.402205 2.62023,3.25437 3.11151,4.478428 0.18335,0.456825 0.24758,0.136123 0.26021,-1.299236 0.0189,-2.144625 -0.23309,-2.903719 -1.48995,-4.488749 -0.95518,-1.204574 -1.08938,-1.675263 -0.47765,-1.675263 0.21828,0 0.40116,-0.148828 0.40639,-0.330729 0.005,-0.181901 0.312,0.02646 0.68171,0.463021 l 0.6722,0.79375 -0.0864,-2.885686 -0.0864,-2.885686 0.7809,-0.107065 c 0.42949,-0.05889 1.04071,0.03198 1.35826,0.201934 0.52247,0.279617 0.56763,0.476124 0.47499,2.066708 -0.0563,0.966742 -0.16321,2.29275 -0.23756,2.946685 l -0.13519,1.188974 1.15233,-1.25512 c 1.12228,-1.222395 1.97857,-1.662471 1.66996,-0.858244 -0.0838,0.218281 -0.0475,0.396875 0.0806,0.396875 0.55759,0 0.0166,0.815287 -1.44147,2.172492 l -1.56996,1.461312 -0.0646,2.142216 c -0.0355,1.178219 0.0502,2.213108 0.19035,2.299754 0.1402,0.08665 0.2549,0.03043 0.2549,-0.124917 0,-0.264617 2.88766,-4.724533 3.90417,-6.029893 0.54254,-0.696701 1.00261,-0.764024 1.2269,-0.179533 0.27724,0.722468 0.18424,0.892545 -0.6993,1.278935 l -0.85989,0.376051 0.79375,0.04018 c 0.43656,0.0221 1.02686,0.131349 1.31177,0.242778 0.45231,0.176896 0.36725,0.290958 -0.67043,0.899083 -2.01526,1.181019 -4.89341,5.622224 -5.13569,7.92474 -0.31115,2.95718 -0.38638,6.546802 -0.13719,6.546802 0.14625,0 0.26591,-0.12376 0.26591,-0.275021 0,-0.473628 1.72138,-2.856745 3.12828,-4.330859 0.74155,-0.776985 1.28178,-1.479202 1.2005,-1.560483 -0.0813,-0.08128 0.0996,-0.08309 0.402,-0.004 0.31485,0.08234 0.95435,-0.09492 1.4965,-0.414801 1.05188,-0.620624 1.29202,-0.687585 1.04761,-0.292123 -0.0906,0.146549 0.0139,0.334996 0.23226,0.418772 0.21832,0.08377 0.33619,0.310616 0.26195,0.504089 -0.21093,0.549679 2.04749,-0.07191 2.6158,-0.719956 0.25466,-0.290389 0.46302,-0.408635 0.46302,-0.262768 0,0.145866 0.31102,0.343273 0.69115,0.438681 0.67933,0.170501 0.68274,0.182778 0.19907,0.717229 -0.88741,0.98058 -1.77398,1.257995 -3.85761,1.207092 l -1.98882,-0.04859 -1.47049,1.256275 c -3.35361,2.86508 -4.3333,5.095057 -4.7181,10.739331 -0.14252,2.090542 -0.20187,3.858252 -0.13187,3.928243 0.07,0.06999 0.37726,-0.362799 0.68283,-0.961757 0.30556,-0.598959 0.91605,-1.410205 1.35664,-1.80277 0.44059,-0.392565 1.23538,-1.283265 1.76621,-1.979333 0.79046,-1.036528 1.11521,-1.265578 1.79434,-1.265578 0.62773,0 0.90244,-0.160718 1.13059,-0.661458 0.32555,-0.71451 1.29316,-0.907744 1.52465,-0.304478 0.17623,0.459236 1.66703,0.506033 2.10692,0.06614 0.1855,-0.185495 0.37784,-0.623255 0.42744,-0.9728 0.11663,-0.822036 0.90256,-0.967194 1.63513,-0.302004 0.66666,0.605335 2.63582,0.930698 3.06079,0.50573 0.20817,-0.208169 0.28904,-0.208359 0.28904,-6.8e-4 0,0.530107 -2.95317,1.645995 -5.55625,2.099485 -2.96455,0.516464 -3.60523,0.68762 -4.3904,1.172886 -1.42449,0.880379 -3.49751,3.39339 -4.5481,5.513414 -0.94721,1.911416 -0.97341,2.046583 -1.12788,5.820833 -0.087,2.125187 -0.0734,3.963966 0.0302,4.086175 0.10358,0.122209 0.39402,-0.397121 0.64544,-1.154068 0.93652,-2.819599 3.47932,-6.63094 5.5088,-8.256991 1.50035,-1.202111 2.15964,-1.586131 4.01427,-2.338214 1.39254,-0.5647 1.97741,-0.640855 4.7625,-0.620121 3.0855,0.02297 5.13491,0.432161 5.34671,1.067539 0.11671,0.35014 -1.83561,2.633041 -4.95557,5.79468 -2.95902,2.998551 -5.12122,4.433281 -9.7147,6.446226 -4.69844,2.058938 -5.43759,2.881992 -6.02603,6.710105 -0.11409,0.742174 -0.27834,0.992187 -0.65186,0.992187 -0.27465,0 -0.56027,-0.208359 -0.63472,-0.463021 z"
       id="path29002" />
    <path
       style="fill:#81aa5d"
       d="m 195.22995,24.651406 c -0.0577,-0.05769 0.021,-0.34014 0.17489,-0.627671 0.18587,-0.347284 0.19128,-0.611291 0.0161,-0.78643 -0.17514,-0.17514 -0.42035,0.07866 -0.73046,0.756009 -0.25674,0.560811 -0.52472,1.127349 -0.59549,1.258974 -0.0725,0.134776 0.0244,0.14471 0.22174,0.02274 0.26189,-0.161852 0.30476,-0.08861 0.16969,0.289849 -0.13192,0.369655 -0.0418,0.328853 0.33382,-0.151081 0.283,-0.361628 0.46735,-0.704704 0.40967,-0.762392 z"
       id="path28986" />
    <path
       style="fill:#81aa5d"
       d="m 197.10284,32.209637 c 0.007,-0.174625 0.14814,-0.29017 0.3145,-0.256766 0.17046,0.03423 0.25844,-0.167855 0.2016,-0.463021 -0.0939,-0.48766 0.15739,-0.657198 0.79479,-0.536188 0.14552,0.02763 0.12849,-0.08842 -0.0379,-0.257884 -0.2298,-0.234108 -0.4528,-0.209595 -0.92844,0.102057 -0.61654,0.403972 -1.90963,2.275545 -1.32074,1.911591 0.16647,-0.102884 0.30267,-0.03716 0.30267,0.146054 0,0.445028 0.65599,-0.184041 0.67348,-0.645843 z"
       id="path28985" />
    <path
       style="fill:#81aa5d"
       d="m 196.90363,43.864532 c 0.15096,-0.181901 0.31437,-0.449792 0.36312,-0.595313 0.0488,-0.145521 0.1868,-0.231867 0.30675,-0.191882 0.11996,0.03999 0.1427,-0.04931 0.0505,-0.198437 -0.0922,-0.149127 -4e-4,-0.271139 0.20391,-0.271139 0.20432,0 0.56434,-0.213104 0.80006,-0.473564 0.3969,-0.43857 0.39263,-0.47627 -0.0578,-0.510198 -0.53488,-0.04029 -2.2072,1.539466 -2.30016,2.172842 -0.071,0.483924 0.25886,0.51917 0.63356,0.06769 z"
       id="path28984" />
    <path
       style="fill:#81aa5d"
       d="m 208.66205,52.018232 c 0.11964,0.119634 2.77855,-2.823724 3.33789,-3.694963 0.19637,-0.305873 -0.17253,0.0076 -0.81978,0.696662 -0.64724,0.689037 -1.26432,1.165287 -1.37127,1.058333 -0.10696,-0.106954 -0.15478,-0.02128 -0.10627,0.190387 0.0485,0.211666 -0.0606,0.39026 -0.24253,0.396875 -0.1819,0.0066 -0.3605,0.120596 -0.39688,0.253292 -0.10157,0.37048 -1.57871,1.882136 -1.7823,1.823954 -0.099,-0.0283 -0.18003,0.13902 -0.18003,0.371812 0,0.293254 0.22327,0.173386 0.72688,-0.390255 0.39978,-0.447433 0.77521,-0.765176 0.83429,-0.706097 z"
       id="path28983" />
    <path
       style="fill:#81aa5d"
       d="m 203.77154,49.342383 c 0.47295,-0.274293 0.8599,-0.602406 0.8599,-0.729141 0,-0.52976 -3.46557,2.427467 -5.55625,4.741234 -0.50932,0.563672 0.14552,0.0038 1.45521,-1.24426 1.30969,-1.248015 2.7682,-2.493539 3.24114,-2.767833 z"
       id="path28982" />
    <path
       style="fill:#81aa5d"
       d="m 189.02102,53.80863 c 0,-0.278597 -0.14548,-0.35374 -0.45495,-0.234985 -0.25023,0.09602 -0.3758,0.09542 -0.27905,-0.0013 0.0967,-0.09675 -0.38313,-0.57125 -1.0664,-1.054445 -4.38356,-3.099973 -6.38315,-4.245665 -6.98697,-4.003268 -0.22592,0.0907 -0.19329,0.143833 0.0968,0.157682 1.08057,0.05158 5.35241,2.836361 7.08071,4.615859 1.14813,1.182148 1.60981,1.331417 1.60981,0.520482 z"
       id="path28981" />
    <path
       style="fill:#81aa5d"
       d="m 183.88692,55.796047 c 0.10383,-0.168005 0.0754,-0.235393 -0.0632,-0.14975 -0.13857,0.08564 -0.42486,0.04633 -0.63619,-0.08736 -0.22185,-0.140343 -0.25494,-0.244786 -0.0783,-0.247125 0.17515,-0.0023 0.24679,-0.230286 0.16757,-0.533218 -0.10921,-0.41764 -0.36089,-0.529167 -1.19416,-0.529167 -0.86219,0 -1.02578,-0.07817 -0.89218,-0.426334 0.11278,-0.293892 0.0488,-0.382286 -0.2059,-0.284543 -0.20323,0.07798 -0.60566,-0.02362 -0.89429,-0.225783 -0.28863,-0.202166 -0.59995,-0.292403 -0.69183,-0.200526 -0.0919,0.09188 -0.16705,0.02111 -0.16705,-0.157248 0,-0.178363 -0.11906,-0.250711 -0.26458,-0.160774 -0.14552,0.08994 -0.26458,0.0036 -0.26458,-0.191922 0,-0.195494 -0.35851,-0.567219 -0.79669,-0.826055 -0.63103,-0.37276 -0.78437,-0.63218 -0.73747,-1.247671 0.0326,-0.427383 0.15295,-0.77706 0.26752,-0.77706 0.11457,0 0.1989,-0.20836 0.18741,-0.463021 -0.0126,-0.279333 -0.074,-0.331162 -0.15489,-0.130643 -0.0737,0.182807 -0.24289,0.265078 -0.37598,0.182822 -0.13309,-0.08225 -0.24199,0.240173 -0.24199,0.716506 0,0.816538 -0.0258,0.840233 -0.45168,0.41438 -0.35279,-0.352792 -0.38176,-0.521607 -0.13229,-0.771071 0.38802,-0.388022 0.41419,-0.742723 0.0548,-0.742723 -0.14553,0 -0.26459,0.178593 -0.26459,0.396875 0,0.600761 -0.24819,0.488272 -1.23779,-0.561005 -0.49686,-0.526833 -0.95424,-0.907035 -1.01638,-0.844892 -0.16694,0.166942 4.04989,4.432035 5.4129,5.474857 1.22969,0.940813 3.98593,2.650895 4.30014,2.667976 0.10055,0.0055 0.26777,-0.12752 0.37161,-0.295525 z"
       id="path28980" />
    <path
       style="fill:#81aa5d"
       d="m 187.69811,57.424427 c 0,-0.145521 -0.1318,-0.264583 -0.29289,-0.264583 -0.16109,0 -0.23198,-0.15875 -0.15752,-0.352778 0.0745,-0.194028 -0.002,-0.365644 -0.17013,-0.38137 -0.56977,-0.05333 -1.09811,-0.206061 -1.42998,-0.413387 -0.19455,-0.121537 -0.33073,-0.0779 -0.33073,0.105983 0,0.220495 -0.1319,0.205606 -0.44767,-0.05053 -0.30418,-0.246738 -0.38397,-0.257122 -0.24896,-0.0324 0.11761,0.195775 0.0574,0.338337 -0.14765,0.349373 -0.19049,0.01025 0.12613,0.191612 0.7036,0.40302 0.57746,0.211407 1.20873,0.323444 1.4028,0.24897 0.19407,-0.07447 0.28641,-0.02788 0.20518,0.103549 -0.0812,0.131425 0.002,0.299255 0.1847,0.372956 0.53663,0.216351 0.72925,0.192895 0.72925,-0.08881 z"
       id="path28979" />
    <path
       style="fill:#81aa5d"
       d="m 198.68232,57.887448 c -0.27138,0.535758 0.11631,0.396629 2.9604,-1.062389 3.34249,-1.714695 5.10788,-2.94847 5.09734,-3.562367 -0.008,-0.448173 -0.0199,-0.448168 -0.28084,1.12e-4 -0.15004,0.257723 -0.38455,0.399524 -0.52112,0.315115 -0.13658,-0.08441 -0.24833,-0.0128 -0.24833,0.159123 0,0.231508 -0.0921,0.236154 -0.35507,0.01791 -0.44545,-0.369692 -0.71909,-0.122696 -0.5032,0.454195 0.1336,0.356978 0.0922,0.379273 -0.22554,0.12156 -0.27382,-0.222069 -0.50412,-0.234275 -0.77714,-0.04119 -0.31925,0.22578 -0.30595,0.248013 0.075,0.12546 0.25466,-0.08192 0.46302,-0.03362 0.46302,0.107333 0,0.260208 -0.37184,0.358733 -1.01874,0.269932 -0.19651,-0.02697 -0.29636,0.04953 -0.2219,0.170007 0.0745,0.120479 -0.0327,0.448854 -0.23803,0.729724 -0.35907,0.49105 -0.37357,0.485855 -0.37747,-0.135209 -0.003,-0.481524 -0.0641,-0.550995 -0.2401,-0.273001 -0.12983,0.205085 -0.1808,0.516859 -0.11328,0.692832 0.11224,0.292491 -0.79718,0.75978 -1.31588,0.676137 -0.11996,-0.01934 -0.14269,0.08684 -0.0505,0.235969 0.0931,0.150607 -0.0677,0.271139 -0.36159,0.271139 -0.29104,0 -0.60275,0.119062 -0.69269,0.264583 -0.0899,0.145521 -0.36485,0.260797 -0.61093,0.256169 -0.39138,-0.0074 -0.38309,-0.05706 0.0662,-0.396875 0.28247,-0.213654 0.37879,-0.388461 0.21405,-0.388461 -0.16475,0 -0.37312,0.119063 -0.46306,0.264584 -0.0899,0.14552 -0.30532,0.260622 -0.47864,0.25578 -0.17331,-0.0048 -0.034,-0.242966 0.30951,-0.529166 0.34355,-0.286201 0.50088,-0.520364 0.34963,-0.520364 -0.50764,0 -1.10654,0.82521 -1.10654,1.524676 0,0.671748 0.0128,0.677286 0.41649,0.179539 0.22908,-0.282475 0.34111,-0.364762 0.24897,-0.182861 z"
       id="path28978" />
    <path
       style="fill:#81aa5d"
       d="m 189.66746,58.280271 c -0.15378,-0.106912 -0.4376,-0.584911 -0.6307,-1.062219 -0.1931,-0.477309 -1.07931,-1.617866 -1.96935,-2.534573 -1.48291,-1.527336 -1.59579,-1.484061 -0.20676,0.07927 0.43986,0.495051 0.49642,0.701402 0.24252,0.884854 -0.23112,0.167001 -0.1925,0.194736 0.12788,0.09185 0.50166,-0.161103 1.13995,0.709205 0.8565,1.167837 -0.0903,0.146119 -0.007,0.232955 0.1862,0.192969 0.19272,-0.03999 0.3504,0.105893 0.3504,0.324174 0,0.424305 0.62168,1.038666 1.05833,1.045867 0.1622,0.0027 0.15639,-0.07086 -0.015,-0.190023 z"
       id="path28977" />
    <path
       style="fill:#81aa5d"
       d="m 196.60757,59.011927 c 0.1374,0 0.48093,-0.172672 0.76341,-0.383716 0.49233,-0.367834 0.48772,-0.377187 -0.11135,-0.225977 -0.62248,0.157117 -0.62196,0.15364 0.13229,-0.883344 0.41648,-0.572595 0.99535,-1.334108 1.2864,-1.692252 0.71505,-0.879909 4.79948,-4.460196 6.02505,-5.281377 1.19114,-0.798106 1.47296,-1.486349 0.85174,-2.080024 -0.42573,-0.406851 -0.43148,-0.395871 -0.0933,0.178502 0.32718,0.55577 0.29694,0.665199 -0.32901,1.190625 -0.37912,0.318233 -1.94871,1.635255 -3.48798,2.926717 -2.78893,2.339946 -3.80199,3.419339 -4.88977,5.209921 -0.31523,0.518897 -0.81512,1.162428 -1.11086,1.430069 -0.29574,0.267641 -0.53771,0.593364 -0.53771,0.723828 0,0.130464 0.28154,-0.06658 0.62565,-0.437882 0.34411,-0.3713 0.73807,-0.67509 0.87548,-0.67509 z"
       id="path28976" />
    <path
       style="fill:#81aa5d"
       d="m 192.46061,65.603098 c 0,-0.132644 0.20836,-0.242995 0.46302,-0.245223 0.3957,-0.0035 0.40531,-0.04134 0.0661,-0.260532 -0.26458,-0.170987 -0.28663,-0.257831 -0.0661,-0.260532 0.20417,-0.0025 0.31556,-0.333089 0.29108,-0.863947 -0.0356,-0.771684 -0.0507,-0.787241 -0.14799,-0.151654 -0.0596,0.389533 -0.27145,0.843598 -0.47079,1.009033 -0.29556,0.245293 -0.39383,0.0658 -0.53261,-0.972825 -0.48353,-3.618823 -1.54196,-4.680693 -6.65387,-6.675528 -2.96552,-1.157242 -4.1153,-1.780219 -6.17801,-3.347391 -2.26748,-1.722752 -7.67291,-7.534111 -7.67291,-8.249118 0,-0.151345 0.18833,-0.347441 0.41851,-0.435771 0.57171,-0.219386 0.69658,-0.201911 0.52627,0.07365 -0.0796,0.128838 0.39102,0.410641 1.04588,0.626229 0.96956,0.319192 1.13492,0.324825 0.89051,0.03033 -0.32018,-0.385804 -0.0395,-0.481468 0.467,-0.159157 0.28716,0.182738 0.34388,0.305661 0.36441,0.789698 0.005,0.109141 0.15345,0.01984 0.33073,-0.198438 0.18918,-0.232946 0.86394,-0.426869 1.63361,-0.469491 0.72122,-0.03994 1.404,-0.218533 1.5173,-0.396875 0.29875,-0.470239 0.26102,0.01974 -0.0456,0.592729 -0.19288,0.360403 -0.15883,0.524047 0.13229,0.635761 0.25132,0.09644 0.39492,-0.01277 0.40008,-0.304282 0.008,-0.424758 0.0252,-0.425265 0.26877,-0.0077 0.14979,0.256805 0.48687,0.403471 0.79218,0.344675 0.32167,-0.06195 0.65844,0.10102 0.8532,0.412875 0.37987,0.60828 0.77427,0.690457 0.55358,0.115345 -0.1098,-0.286133 -0.0322,-0.353341 0.27289,-0.236276 0.23448,0.08998 0.42633,0.282662 0.42633,0.428183 0,0.145521 0.1786,0.19605 0.39688,0.112288 0.24175,-0.09277 0.39687,-4.19e-4 0.39687,0.236276 0,0.213714 0.14883,0.358805 0.33073,0.322425 0.1819,-0.03638 0.30503,0.07047 0.27363,0.237448 -0.0351,0.186411 0.15979,0.246876 0.50481,0.156651 0.46318,-0.121126 0.53721,-0.05253 0.42137,0.390469 -0.11205,0.428482 -0.0378,0.510543 0.36635,0.404856 0.3311,-0.08658 0.48005,-0.0103 0.42948,0.219952 -0.0689,0.313824 0.21947,0.384678 1.12883,0.277343 0.15411,-0.01819 0.20541,-0.154078 0.11401,-0.301973 -0.0914,-0.147894 -0.26353,-0.208736 -0.38251,-0.135204 -0.11898,0.07353 -0.36346,-0.04359 -0.54328,-0.260268 -0.17983,-0.216679 -0.22309,-0.394055 -0.0961,-0.394169 0.47152,-4.22e-4 -1.754,-1.74454 -3.11849,-2.443935 -2.22307,-1.139478 -4.03779,-1.490776 -7.13461,-1.381132 -2.09806,0.07428 -2.46455,0.04226 -1.5546,-0.13582 6.69512,-1.310294 12.64336,2.1183 16.05253,9.252761 1.57986,3.306195 1.88389,3.99744 2.03654,4.630208 0.0702,0.291042 0.10679,-1.733021 0.0813,-4.497917 l -0.0464,-5.027083 -1.02095,-1.910609 c -1.41442,-2.646934 -4.55403,-5.657087 -6.39851,-6.134689 -0.72148,-0.186816 -1.60944,-0.446156 -1.97324,-0.57631 -0.36381,-0.130155 -1.13771,-0.303796 -1.7198,-0.38587 -1.65933,-0.233967 -3.60872,-0.936135 -3.50048,-1.260867 0.0587,-0.176199 0.59691,-0.264337 1.33639,-0.218863 1.05221,0.06471 1.23805,0.0033 1.23805,-0.409371 0,-0.509695 0.99093,-1.297558 1.27488,-1.013616 0.0907,0.09076 -0.0101,0.275776 -0.22421,0.411156 -0.32902,0.208082 -0.31972,0.246772 0.0602,0.250197 0.24716,0.0022 0.77056,0.301708 1.16311,0.66551 0.39255,0.363802 0.86933,0.661458 1.05952,0.661458 0.6584,0 1.5841,0.566143 1.83674,1.123316 0.13956,0.307784 0.65937,0.693853 1.15514,0.857932 0.49576,0.164079 0.98846,0.533696 1.09488,0.82137 0.10642,0.287675 0.40619,0.697505 0.66616,0.910734 0.42265,0.346655 0.41879,0.303675 -0.0365,-0.406061 l -0.50923,-0.79375 0.7276,0.469121 c 0.40018,0.258016 0.7276,0.392265 0.7276,0.298332 0,-0.09393 0.17729,-0.02366 0.39397,0.156171 0.21668,0.179828 0.31734,0.450928 0.2237,0.602444 -0.0936,0.151517 -0.0461,0.198777 0.10555,0.105023 0.1517,-0.09375 0.73319,0.393866 1.29219,1.083599 0.55901,0.689733 1.1379,1.381973 1.28643,1.538311 0.41723,0.439185 0.16396,-5.784935 -0.3008,-7.392299 -0.21607,-0.74724 -0.40989,-1.558236 -0.43072,-1.802213 -0.0208,-0.243978 -0.1118,-0.397905 -0.20216,-0.342061 -0.0904,0.05584 -0.3625,-0.314124 -0.60476,-0.822152 -0.52103,-1.092603 -0.54409,-1.265582 -0.13501,-1.01276 0.19077,0.117906 0.23358,0.07248 0.114,-0.120992 -0.1053,-0.170379 -0.29631,-0.244972 -0.42448,-0.165762 -0.29992,0.185363 -0.83109,-0.79202 -0.58099,-1.069059 0.10402,-0.115225 0.0597,-0.13581 -0.0986,-0.04575 -0.15825,0.09006 -0.75356,-0.316992 -1.32291,-0.904568 -1.34263,-1.385607 -1.75463,-1.592981 -3.67245,-1.848479 -3.52726,-0.46991 -4.63878,-0.820302 -4.63878,-1.462309 0,-0.188571 0.25555,-0.47962 0.56788,-0.646776 0.50885,-0.27233 0.55269,-0.245825 0.42171,0.255011 -0.0804,0.307411 -0.052,0.617154 0.0632,0.688316 0.27237,0.168332 1.85764,-0.383992 1.85764,-0.647219 0,-0.111105 0.29765,-0.145109 0.66146,-0.07556 0.52263,0.09991 0.66146,0.01817 0.66146,-0.389468 0,-0.762975 0.29452,-0.923607 0.82058,-0.447535 0.57864,0.523668 0.3714,1.160087 -0.38587,1.184986 -0.38527,0.01267 -0.23369,0.140734 0.47292,0.399553 0.57196,0.2095 1.23659,0.31849 1.47696,0.2422 0.25254,-0.08015 0.65125,0.105463 0.94445,0.439678 0.27908,0.318113 0.35859,0.491363 0.17668,0.385 -0.22104,-0.129249 -0.33073,-0.0089 -0.33073,0.362993 0,0.380745 0.14429,0.531838 0.45709,0.478636 0.25139,-0.04276 0.45975,0.06116 0.46302,0.230936 0.007,0.349494 0.34952,0.749653 0.6422,0.749653 0.1074,0 0.40364,0.208359 0.6583,0.463021 0.75437,0.75437 1.10287,0.526811 0.4052,-0.264584 l -0.64143,-0.727604 0.75926,0.661459 c 0.41759,0.363802 1.06134,1.135144 1.43054,1.714095 0.60147,0.94317 0.69255,0.998199 0.87579,0.529166 0.11248,-0.287908 0.19499,-1.714095 0.18337,-3.169303 -0.0162,-2.021958 -0.0648,-2.365089 -0.20625,-1.455208 l -0.18511,1.190625 -0.0397,-1.506696 c -0.0413,-1.567062 -1.04822,-4.179256 -2.49311,-6.467883 -0.38036,-0.602476 -0.60903,-1.197789 -0.50816,-1.322916 0.10088,-0.125128 0.0776,-0.141528 -0.0517,-0.03645 -0.12933,0.105083 -0.56493,-0.08643 -0.96798,-0.425574 -0.40306,-0.339149 -1.51763,-1.010996 -2.47682,-1.492993 -0.9592,-0.481996 -1.744,-0.975097 -1.744,-1.095779 0,-0.327466 0.90705,-0.264874 1.25879,0.08686 0.23199,0.231994 0.40066,0.227961 0.69537,-0.01662 0.30945,-0.256825 0.55541,-0.236896 1.20184,0.09738 0.44701,0.231161 0.81275,0.543325 0.81275,0.693697 0,0.150372 0.1393,0.187314 0.30955,0.08209 0.20488,-0.126626 0.25526,-0.04985 0.149,0.227072 -0.0938,0.244459 0.003,0.481219 0.23336,0.56954 0.21665,0.08314 0.32781,0.0442 0.24702,-0.08652 -0.0808,-0.130722 -0.0741,-0.427306 0.0148,-0.659076 0.12518,-0.326199 0.3557,-0.167214 1.0204,0.703727 1.10649,1.449817 2.0588,3.320756 1.85671,3.647744 -0.0868,0.14053 -0.001,0.255509 0.19039,0.255509 0.26776,0 0.32575,-0.504811 0.25078,-2.182812 -0.10372,-2.321239 -0.42545,-3.218852 -1.66288,-4.639415 -0.8968,-1.029534 -0.93465,-1.271695 -0.22766,-1.45658 0.36003,-0.09415 0.69981,0.0782 1.06204,0.5387 0.29295,0.372428 0.59786,0.611927 0.67756,0.532221 0.0797,-0.07971 0.0112,-1.360532 -0.15233,-2.84628 -0.16349,-1.485748 -0.22764,-2.770972 -0.14256,-2.856054 0.35113,-0.351122 1.95807,-0.284944 2.27221,0.09358 0.36381,0.438357 0.37021,3.100371 0.0121,5.017391 -0.12172,0.651568 -0.16124,1.18467 -0.0878,1.18467 0.21585,0 1.38501,-1.432785 1.38536,-1.697743 1.8e-4,-0.133394 0.0746,-0.168223 0.16546,-0.0774 0.0908,0.09082 0.37823,-0.09769 0.63869,-0.418924 0.26045,-0.321233 0.56029,-0.497641 0.66631,-0.392017 0.10602,0.105624 0.0433,0.372105 -0.13931,0.592181 -0.26962,0.324863 -0.25931,0.428065 0.0548,0.548588 0.27846,0.106855 -0.0596,0.579944 -1.20644,1.688412 l -1.5933,1.539963 -0.11985,2.283468 c -0.0762,1.451903 -0.0217,2.283469 0.1496,2.283469 0.1482,0 0.34159,-0.187978 0.42975,-0.417728 0.44228,-1.152551 2.07367,-3.246545 2.42445,-3.111936 0.20859,0.08004 0.31217,0.254058 0.23019,0.386704 -0.082,0.132646 -0.26073,0.172155 -0.39722,0.0878 -0.13649,-0.08436 -0.32925,0.06253 -0.42834,0.326413 -0.0991,0.263885 -0.35573,0.611401 -0.57029,0.772259 -0.26033,0.195172 -0.31969,0.459232 -0.17841,0.79375 0.20466,0.484616 0.21708,0.483688 0.37371,-0.02788 0.26787,-0.874867 0.77143,-1.595457 0.97363,-1.393253 0.10441,0.104412 0.0369,0.374188 -0.15015,0.599503 -0.18699,0.225314 -0.29326,0.454656 -0.23614,0.509647 0.0571,0.05499 0.31777,-0.186011 0.57922,-0.535561 0.29194,-0.390309 0.35601,-0.635545 0.16604,-0.635545 -0.23496,0 -0.2344,-0.09028 0.002,-0.375517 0.24561,-0.29594 0.21518,-0.429508 -0.14361,-0.630295 -0.42192,-0.236117 -0.4133,-0.308121 0.11762,-0.983081 0.31509,-0.400566 0.57288,-0.910683 0.57288,-1.133593 0,-0.22291 0.0743,-0.330979 0.16514,-0.240154 0.0908,0.09083 0.38606,-0.09769 0.65609,-0.418923 0.42111,-0.500991 0.52876,-0.527614 0.75685,-0.187186 0.14625,0.218281 0.26773,0.54865 0.26996,0.734152 0.005,0.41206 -1.24489,0.923516 -1.6718,0.684133 -0.21541,-0.120788 -0.22647,-0.08322 -0.0366,0.124488 0.14955,0.163619 0.73161,0.356345 1.29346,0.42828 1.23836,0.158548 1.43092,0.305299 0.70354,0.53616 -0.30201,0.09585 -0.54911,0.277295 -0.54911,0.403203 0,0.125908 -0.23312,0.302914 -0.51804,0.393345 -0.28493,0.09043 -0.98361,0.749146 -1.55263,1.463809 -0.56903,0.714662 -1.10981,1.224165 -1.20175,1.132227 -0.0919,-0.09194 -0.16716,0.02158 -0.16716,0.252254 0,0.230676 -0.41672,1.288958 -0.92604,2.351737 -0.7216,1.50573 -0.93186,2.28444 -0.95242,3.527288 -0.0198,1.198872 -0.079,1.430698 -0.23821,0.933506 -0.15707,-0.490454 -0.21384,-0.251048 -0.21961,0.926042 -0.005,1.08903 0.0616,1.421343 0.21304,1.058333 0.1341,-0.321346 0.16421,0.06832 0.0767,0.992188 -0.0793,0.836744 -0.038,1.521354 0.0918,1.521354 0.12975,0 0.53336,-0.565547 0.89691,-1.256771 0.88906,-1.690372 3.60925,-4.371649 5.19408,-5.119781 0.70827,-0.334343 1.39363,-0.659186 1.52303,-0.721872 0.12939,-0.06269 0.15161,0.02137 0.0494,0.186801 -0.10224,0.165428 0.003,0.373372 0.23451,0.462099 0.33924,0.130178 0.35759,0.236995 0.0951,0.553307 -0.27414,0.330317 -0.22317,0.378771 0.32397,0.307994 0.35712,-0.0462 0.81836,0.02116 1.02499,0.149686 0.28341,0.176278 0.33419,0.12553 0.20674,-0.206601 -0.12127,-0.31604 -0.0262,-0.440279 0.33691,-0.440279 0.27822,0 0.69121,-0.264617 0.91774,-0.588038 0.22653,-0.323421 0.41188,-0.45637 0.41188,-0.295442 0,0.160928 0.23861,0.354996 0.53026,0.431262 0.68667,0.179569 0.46704,0.747051 -0.51324,1.326115 -0.50594,0.29887 -1.33792,0.44902 -2.48802,0.44902 -2.1667,0 -2.81299,0.246994 -4.32413,1.65257 -2.88598,2.684362 -3.91199,4.809798 -4.31115,8.930763 -0.6313,6.517655 -0.58142,6.988767 0.49449,4.670073 0.23393,-0.50414 1.35107,-1.893281 2.48253,-3.08698 1.81509,-1.914941 2.14817,-2.157007 2.83029,-2.056893 0.42521,0.06241 0.71435,0.01841 0.64255,-0.09777 -0.0718,-0.116182 -0.002,-0.451826 0.15557,-0.745875 0.32363,-0.604692 1.27188,-0.718561 1.47944,-0.177654 0.17153,0.446992 1.66337,0.511093 2.07961,0.08936 0.34934,-0.353962 0.78014,-1.278172 0.72463,-1.554582 -0.0592,-0.294597 1.04575,8.31e-4 1.51017,0.403783 0.57612,0.499861 2.53506,0.727215 2.975,0.345276 0.19149,-0.166249 0.13726,-0.04847 -0.12051,0.261731 -0.55167,0.66388 -3.37409,1.524123 -4.22056,1.286381 -0.39372,-0.110582 -0.474,-0.08563 -0.24265,0.0754 0.23387,0.16279 -0.25891,0.340517 -1.52291,0.549262 -2.86289,0.472796 -3.81636,0.966992 -5.58085,2.892623 -1.93253,2.109014 -3.06541,4.028261 -3.40263,5.764492 -0.34502,1.776394 -0.59633,9.130987 -0.28863,8.447 0.13092,-0.291042 0.6006,-1.422135 1.04373,-2.513542 0.87558,-2.156516 1.81559,-3.841691 2.02573,-3.631554 0.0728,0.07276 -0.1118,0.532673 -0.41014,1.022027 -0.29834,0.489355 -0.54288,1.067382 -0.54343,1.284506 -5.4e-4,0.217123 0.29572,-0.162582 0.65835,-0.843789 0.36263,-0.681207 0.59917,-1.395345 0.52564,-1.586973 -0.15525,-0.404558 1.39917,-2.398985 1.71675,-2.202712 0.11732,0.07251 0.37563,-0.07521 0.57402,-0.328272 0.32642,-0.416366 0.31669,-0.425586 -0.10231,-0.09698 -0.25466,0.199719 -0.46302,0.243964 -0.46302,0.09832 0,-0.831377 4.78099,-3.633264 6.74284,-3.951629 0.81042,-0.131513 0.91668,-0.09005 0.76724,0.299384 -0.12466,0.324859 -0.35342,0.406874 -0.81306,0.291509 -0.40952,-0.102782 -1.19594,0.08914 -2.18616,0.533527 -1.41019,0.632855 -1.77486,1.088917 -1.27243,1.591341 0.25066,0.250658 1.28705,-0.559471 1.05937,-0.828088 -0.10822,-0.127671 0.006,-0.07698 0.25467,0.112655 0.55388,0.423031 1.04061,0.173903 0.814,-0.416637 -0.12533,-0.326607 -0.0568,-0.39219 0.27614,-0.264414 0.26409,0.101342 0.44444,0.03979 0.44686,-0.152503 0.003,-0.204675 0.0992,-0.177486 0.26458,0.07445 0.21938,0.334189 0.29784,0.338981 0.49672,0.03034 0.15099,-0.234329 0.47085,-0.307643 0.88676,-0.203255 0.35782,0.08981 0.73771,0.07615 0.8442,-0.03034 0.10649,-0.106491 0.30276,-0.208502 0.43615,-0.226692 0.1334,-0.01819 0.2723,-0.05713 0.30868,-0.08652 0.0364,-0.0294 0.58359,-0.110925 1.21601,-0.181172 0.8964,-0.09957 1.10655,-0.05133 0.95337,0.218815 -0.14896,0.262722 -0.11777,0.274011 0.12896,0.04668 0.24416,-0.224968 0.66258,-0.176632 1.67531,0.193535 0.74243,0.271367 1.4072,0.436069 1.47726,0.366005 0.0701,-0.07006 -0.0115,-0.12739 -0.18129,-0.12739 -0.16977,0 -0.30868,-0.178593 -0.30868,-0.396874 0,-0.451679 0.22834,-0.495422 0.77625,-0.148708 0.4713,0.298237 -0.55805,1.618664 -4.2064,5.395852 -3.4173,3.537987 -6.87102,5.769917 -11.75757,7.59821 -2.72008,1.017712 -4.38294,3.076316 -4.3955,5.441591 -0.002,0.41968 -0.11177,0.933268 -0.24342,1.141309 -0.27257,0.430701 -1.07544,0.624651 -1.07544,0.259791 z"
       id="path28975" />
    <path
       style="fill:#7ca65b"
       d="m 197.54624,21.092709 c -0.0406,-0.124492 0.1678,-0.289513 0.46302,-0.366715 0.88576,-0.23163 0.60554,-0.509587 -0.39587,-0.392678 -1.06971,0.124882 -1.54341,0.770258 -1.29419,1.763215 l 0.16723,0.666294 0.56677,-0.721884 c 0.31173,-0.397036 0.5336,-0.82374 0.49304,-0.948232 z"
       id="path28844" />
    <path
       style="fill:#7ca65b"
       d="m 192.19262,29.488838 c -0.003,-1.302147 -0.19892,-1.972341 -1.16578,-3.984578 -1.47063,-3.060701 -2.51141,-4.205567 -5.02128,-5.523444 -1.10325,-0.579294 -2.0072,-1.142559 -2.00877,-1.2517 -0.005,-0.350531 0.7885,-0.212181 1.51758,0.264584 0.38944,0.254661 0.62143,0.322419 0.51554,0.150574 -0.33963,-0.551196 0.31947,-0.65876 1.1241,-0.183453 0.42895,0.253386 0.73388,0.535174 0.67762,0.626196 -0.0562,0.09102 0.26726,0.514278 0.71892,0.940569 0.5694,0.537431 0.73705,0.61377 0.54678,0.24898 -0.15563,-0.298372 -0.18232,-0.755149 -0.0617,-1.055262 0.11701,-0.291042 0.22111,-0.386473 0.23134,-0.212069 0.0102,0.174403 0.32868,0.650653 0.70768,1.058333 0.77342,0.831956 2.0664,3.233321 1.85485,3.444876 -0.19858,0.198576 -0.88159,-0.542657 -0.78685,-0.853919 0.0439,-0.144222 -0.28478,-0.67894 -0.7304,-1.188263 -0.44886,-0.513035 -0.74048,-0.709887 -0.65386,-0.441381 0.086,0.266563 0.15634,0.696393 0.15634,0.955178 0,0.258784 0.41995,0.91579 0.93322,1.460012 0.72466,0.768369 1.01281,0.923438 1.28938,0.693904 0.19589,-0.162576 0.54985,-0.221269 0.78658,-0.130429 0.36686,0.140779 0.43041,-0.06037 0.43041,-1.362449 0,-2.032613 -0.39178,-1.517397 -0.51499,0.677248 -0.0198,0.352778 -0.0508,0.352778 -0.27876,0 -0.14107,-0.218281 -0.25831,-1.146928 -0.26053,-2.06366 -0.004,-1.806502 -0.38985,-2.807722 -1.62825,-4.2294 -0.92625,-1.063332 -0.95162,-1.379856 -0.1106,-1.379856 0.7378,0 1.49551,0.905837 1.29798,1.551729 -0.0885,0.289572 -0.0244,0.262653 0.19396,-0.0814 0.25782,-0.406214 0.25903,-1.092383 0.006,-3.271051 -0.17626,-1.516352 -0.28432,-2.787283 -0.24014,-2.824291 0.0442,-0.03701 0.51034,-0.144915 1.03589,-0.239794 0.69961,-0.126303 1.04645,-0.06297 1.29495,0.236454 0.38074,0.45877 0.38652,3.088108 0.0112,5.09712 -0.25211,1.349523 -0.13017,1.791976 0.28796,1.044818 0.14355,-0.25651 0.39298,-0.384814 0.55428,-0.285121 0.18701,0.11558 0.23476,0.02873 0.13176,-0.239674 -0.0908,-0.236526 0.0272,-0.574299 0.26916,-0.771008 0.37149,-0.301957 0.40683,-0.286433 0.25716,0.112947 -0.0954,0.254662 -0.0582,0.463021 0.0828,0.463021 0.14096,0 0.25628,-0.219672 0.25628,-0.488159 0,-0.268488 0.26789,-0.714973 0.59531,-0.992188 l 0.59532,-0.504028 -0.47445,0.562622 c -0.44166,0.523749 -0.44349,0.574498 -0.0265,0.734509 0.40116,0.153939 0.38452,0.239384 -0.15933,0.818286 -0.33399,0.355519 -0.72741,0.572141 -0.87426,0.481381 -0.14685,-0.09076 -0.18876,-0.03841 -0.0931,0.11633 0.0956,0.15474 -0.18039,0.57944 -0.61338,0.943776 -0.67419,0.567293 -0.81772,0.922245 -0.99943,2.471513 -0.1167,0.994995 -0.14971,2.13816 -0.0734,2.540366 0.12807,0.674563 0.28118,0.515359 1.97403,-2.052581 1.00936,-1.531126 1.90233,-2.675794 1.98438,-2.543708 0.082,0.132087 0.61848,0.314587 1.19208,0.405556 0.5736,0.09097 1.08142,0.203915 1.1285,0.250991 0.0471,0.04708 -0.24247,0.311988 -0.64343,0.588693 -0.40096,0.276704 -1.23921,1.03888 -1.86277,1.693724 -1.07385,1.127713 -1.14203,1.159169 -1.29024,0.595313 -0.0861,-0.327422 -0.25025,-0.595313 -0.36487,-0.595313 -0.11461,0 -0.65288,0.863203 -1.19616,1.918229 -0.81213,1.577159 -0.88226,1.824141 -0.39442,1.389063 0.32633,-0.291042 0.652,-0.469636 0.72371,-0.396875 0.0717,0.07276 0.28766,-0.224896 0.4799,-0.661459 0.19224,-0.436562 0.35919,-0.654623 0.37101,-0.48458 0.0118,0.170043 -0.39523,1.178715 -0.90455,2.241494 -0.71368,1.489194 -0.93431,2.298089 -0.96207,3.527288 -0.0198,0.877231 -0.0908,1.297308 -0.15765,0.933506 -0.0669,-0.363802 -0.23504,-0.799686 -0.37369,-0.968632 -0.16163,-0.196962 -0.15254,-0.368693 0.0254,-0.478636 0.15259,-0.0943 0.26362,-0.491857 0.24674,-0.883451 -0.0237,-0.548814 -0.0599,-0.590714 -0.15797,-0.182822 -0.21436,0.891183 -0.60509,1.096205 -0.60509,0.3175 0,-0.392906 -0.10626,-0.714375 -0.23614,-0.714375 -0.12988,0 -0.24644,0.731721 -0.25903,1.626046 -0.0126,0.894326 -0.0849,1.688076 -0.16073,1.763889 -0.0758,0.07581 -0.13938,-0.566611 -0.14125,-1.427609 z"
       id="path28843" />
    <path
       style="fill:#7ca65b"
       d="m 182.27415,40.43068 c -3.90147,-0.953529 -4.92827,-1.294343 -4.8258,-1.60176 0.0615,-0.184474 0.58306,-0.272549 1.33879,-0.226076 1.10114,0.06771 1.23805,0.0154 1.23805,-0.473016 0,-0.302032 0.16867,-0.54915 0.37483,-0.54915 0.20615,0 0.42476,-0.0893 0.4858,-0.198438 0.061,-0.10914 0.0747,-0.04961 0.0303,0.132292 -0.0443,0.181901 0.0473,0.330729 0.20361,0.330729 0.15633,0 0.63798,0.297657 1.07033,0.661459 0.43235,0.363802 0.94996,0.661458 1.15022,0.661458 0.87502,0 1.69891,0.615046 1.64799,1.23025 -0.059,0.71323 0.0661,0.711744 -2.71417,0.03225 z"
       id="path28841" />
    <path
       style="fill:#7ca65b"
       d="m 179.76061,45.113192 c -0.75227,-0.212213 -2.26216,-0.300612 -4.10104,-0.240103 -2.67051,0.08787 -2.77956,0.07346 -1.32292,-0.17479 1.97512,-0.33662 5.00832,-0.153135 6.22476,0.376548 1.10337,0.480449 0.8153,0.494243 -0.8008,0.03834 z"
       id="path28840" />
    <path
       style="fill:#7ca65b"
       d="m 197.06089,32.581521 c 0.59854,-0.639485 0.92103,-1.067573 0.71665,-0.951307 -0.2489,0.141585 -0.30927,0.110521 -0.18282,-0.09407 0.10383,-0.168005 0.36035,-0.305464 0.57004,-0.305464 0.2097,0 0.38126,-0.244856 0.38126,-0.544125 0,-0.53506 -0.0138,-0.536162 -0.83035,-0.06615 -0.95428,0.549319 -1.838,1.831227 -1.63217,2.36761 0.0885,0.230535 0.007,0.314254 -0.22054,0.226903 -0.47424,-0.181981 -1.04176,0.756615 -1.18134,1.953746 l -0.11156,0.956804 0.70129,-1.190625 c 0.3857,-0.654844 1.191,-1.71384 1.78954,-2.353324 z"
       id="path28827" />
    <path
       style="fill:#7ca65b"
       d="m 193.52979,41.159255 c 0.15322,0.0947 0.24473,-0.556847 0.23099,-1.644733 -0.0182,-1.445459 -0.0679,-1.650856 -0.25101,-1.039147 -0.12554,0.419323 -0.19021,1.074166 -0.1437,1.455208 0.0465,0.381042 0.0289,0.514209 -0.0393,0.295928 -0.0681,-0.218281 -0.24667,-0.515937 -0.39682,-0.661458 -0.18716,-0.181388 -0.22141,0.192994 -0.10891,1.190625 0.0902,0.800364 0.18936,2.169583 0.22025,3.042708 0.0468,1.323952 0.071,1.223642 0.14544,-0.604225 0.0533,-1.309859 0.19137,-2.128627 0.34302,-2.034906 z"
       id="path28826" />
    <path
       style="fill:#7ca65b"
       d="m 195.37102,45.694644 c 0,-0.186951 0.18743,-0.571026 0.4165,-0.853501 0.22907,-0.282475 0.33067,-0.334997 0.22577,-0.116715 -0.21902,0.455741 -0.22977,0.465998 1.70763,-1.628822 0.80272,-0.867937 1.26804,-1.568244 1.10782,-1.667266 -0.28342,-0.175162 -3.03708,2.217419 -2.81159,2.442912 0.0688,0.06881 -0.10697,0.318696 -0.39064,0.555292 -0.28366,0.236597 -0.55806,0.6683 -0.60976,0.959342 -0.0517,0.291042 -0.23127,0.864339 -0.39903,1.273995 -0.4571,1.116173 -0.36717,1.212427 0.22513,0.240964 0.29049,-0.47646 0.52817,-1.01925 0.52817,-1.206201 z"
       id="path28825" />
    <path
       style="fill:#7ca65b"
       d="m 192.46061,65.603098 c 0,-0.132644 0.20836,-0.24923 0.46302,-0.259079 0.36398,-0.01408 0.33335,-0.08036 -0.14321,-0.309889 -0.33343,-0.16059 -0.54699,-0.446375 -0.47458,-0.635078 0.0724,-0.188702 0.0178,-0.413466 -0.12137,-0.499475 -0.13917,-0.08601 -0.25638,-0.476775 -0.26048,-0.868369 -0.004,-0.391595 -0.27869,-1.247771 -0.6102,-1.902615 -0.72966,-1.441323 -2.31025,-2.573612 -4.99369,-3.577354 -4.73396,-1.770734 -7.32914,-3.512203 -10.9772,-7.366129 -2.12614,-2.246124 -4.25039,-4.80603 -3.49038,-4.206207 0.22889,0.180638 0.51358,0.24017 0.63266,0.132291 0.11909,-0.107878 0.1352,-0.05432 0.0358,0.119013 -0.30706,0.53553 4.36993,5.489932 7.23961,7.669025 1.52805,1.160331 4.16692,2.486509 7.27604,3.656621 2.63036,0.98993 2.77812,1.02597 2.77812,0.677568 0,-0.171082 -0.11906,-0.237473 -0.26458,-0.147536 -0.14552,0.08994 -0.26565,-0.05186 -0.26695,-0.315114 -0.003,-0.568273 -2.16155,-3.415369 -3.34312,-4.409134 -0.87894,-0.73924 -1.41789,-0.9415 -0.92444,-0.346932 0.22018,0.2653 0.20128,0.352778 -0.0762,0.352778 -0.20421,0 -0.33049,-0.199958 -0.28276,-0.447766 0.09,-0.467609 -1.64041,-1.932894 -3.24246,-2.745586 -0.47294,-0.239915 -0.85989,-0.548478 -0.85989,-0.685694 0,-0.137217 -0.16655,-0.185574 -0.37011,-0.10746 -0.20357,0.07811 -0.44342,0.02342 -0.53301,-0.121546 -0.0896,-0.144965 0.0896,-0.343714 0.39822,-0.441664 1.02513,-0.325363 4.79516,2.056626 7.91868,5.003194 1.10578,1.043139 1.84663,1.957239 1.84663,2.27846 0,0.29504 0.23813,0.740324 0.52917,0.989522 0.29104,0.249197 0.52917,0.598193 0.52917,0.775545 0,0.177353 0.1187,0.395821 0.26378,0.485486 0.43905,0.271346 -0.23511,-1.238642 -0.7372,-1.65121 -0.24895,-0.204552 -0.3038,-0.296525 -0.12189,-0.204385 0.19479,0.09867 0.33072,-0.002 0.33072,-0.244962 0,-0.22687 -0.10791,-0.41249 -0.23981,-0.41249 -0.1319,0 -0.18178,-0.221898 -0.11086,-0.493107 0.081,-0.309876 -0.10306,-0.678558 -0.49542,-0.992188 -0.34341,-0.274494 -0.58746,-0.681413 -0.54234,-0.904266 0.21093,-1.041784 -3.79064,-5.710393 -5.92879,-6.917095 -1.82153,-1.028005 -1.84855,-1.279144 -0.0324,-0.301003 1.58874,0.855656 3.94476,3.083966 5.19444,4.912857 0.4729,0.692077 1.27898,2.180358 1.79129,3.307291 0.51232,1.126933 1.09462,2.406157 1.29402,2.842719 0.19939,0.436563 0.41998,1.031875 0.49019,1.322917 0.0702,0.291042 0.10679,-1.733021 0.0813,-4.497917 l -0.0464,-5.027083 -1.01619,-1.901552 c -0.98595,-1.844945 -3.57097,-4.715782 -5.05961,-5.619038 -0.95074,-0.576874 -0.83147,-0.785031 0.25497,-0.444982 0.50932,0.159416 0.92604,0.424728 0.92604,0.589584 0,0.44622 0.73808,0.975199 1.46949,1.05318 0.63368,0.06756 0.63673,0.05811 0.18278,-0.56624 -0.2539,-0.349221 -0.59773,-0.638689 -0.76407,-0.643262 -0.16633,-0.0046 -0.36862,-0.180844 -0.44954,-0.391715 -0.32273,-0.841018 0.63594,-0.02387 2.37656,2.025716 0.99824,1.175441 1.96382,2.290309 2.14572,2.477485 0.1819,0.187175 0.33073,0.487729 0.33073,0.667898 0,0.180169 0.0384,0.27797 0.0854,0.217336 0.1286,-0.166071 -0.28464,-7.683939 -0.46418,-8.444617 -0.13258,-0.561685 -0.0976,-0.54173 0.2317,0.132291 0.30351,0.621195 0.38954,0.678713 0.39571,0.264584 0.01,-0.668985 -0.24834,-1.047916 -0.87137,-1.278301 -0.2958,-0.109382 -0.43036,-0.338005 -0.33903,-0.576013 0.0833,-0.217055 0.0234,-0.394645 -0.13315,-0.394645 -0.15652,0 -0.21368,-0.184777 -0.12702,-0.410616 0.0867,-0.22584 0.0536,-0.346325 -0.0736,-0.267745 -0.12714,0.07858 -0.6212,-0.480783 -1.09789,-1.243029 -0.4767,-0.762245 -1.44368,-1.909503 -2.14885,-2.54946 -1.15597,-1.049072 -1.45767,-1.1838 -3.06626,-1.36927 -1.85133,-0.213458 -3.56494,-0.567626 -4.36383,-0.901914 -0.5063,-0.211858 -0.63099,-0.666299 -0.18282,-0.666299 0.15411,0 0.21432,-0.106586 0.13381,-0.236859 -0.0805,-0.130272 0.0448,-0.310212 0.2784,-0.399865 0.34376,-0.131912 0.39278,-0.03548 0.257,0.505539 -0.16408,0.653734 -0.14332,0.664632 0.93712,0.491863 0.80254,-0.128331 1.05336,-0.09325 0.9165,0.128194 -0.12055,0.19505 0.0226,0.304878 0.39736,0.304878 0.56963,0 0.57254,-0.01464 0.10544,-0.530788 -0.2642,-0.291934 -0.40172,-0.609434 -0.3056,-0.705556 0.0961,-0.09612 0.17477,-0.04701 0.17477,0.109144 0,0.15615 0.23813,0.221639 0.52917,0.14553 0.29287,-0.07659 0.52917,-0.360896 0.52917,-0.636688 0,-0.55275 0.52587,-0.660348 0.98474,-0.201484 0.42371,0.423711 0.11375,1.026092 -0.52798,1.026092 -0.29973,0 -0.45566,0.0893 -0.34652,0.198438 0.20235,0.202357 0.3316,0.236368 1.14653,0.301708 0.39841,0.03194 0.40764,0.074 0.0661,0.301411 -0.28079,0.186987 -0.0836,0.217101 0.67423,0.10296 0.841,-0.126671 1.15361,-0.05973 1.45521,0.311617 0.235,0.289361 0.25572,0.395817 0.0534,0.274249 -0.21255,-0.127697 -0.33073,-0.03876 -0.33073,0.248906 0,0.529881 1.02296,1.488803 1.36363,1.278261 0.13034,-0.08056 0.20427,0.01121 0.16428,0.20393 -0.04,0.192717 0.0761,0.32063 0.25803,0.284249 0.18534,-0.03707 0.33251,0.195563 0.33478,0.529167 0.003,0.481393 0.0531,0.519366 0.26053,0.198438 0.18637,-0.288387 0.25759,-0.3022 0.26054,-0.05053 0.002,0.190489 0.12889,0.269186 0.28148,0.174882 0.18668,-0.115376 0.16504,-0.315213 -0.0661,-0.610928 -0.31291,-0.400237 -0.29903,-0.404386 0.15543,-0.04647 0.27446,0.216145 0.79444,0.860989 1.15553,1.432986 0.87501,1.386113 1.10163,0.945656 1.16177,-2.258049 0.0256,-1.36309 0.0972,-2.328775 0.15906,-2.145967 0.0619,0.182808 0.23173,0.258715 0.3774,0.168683 0.17019,-0.105182 0.23305,0.500242 0.17584,1.693755 -0.049,1.021596 2.8e-4,1.801865 0.10942,1.733931 0.10914,-0.06793 0.19843,0.300227 0.19843,0.818138 0,0.517911 0.0895,0.941657 0.1989,0.941657 0.10939,0 0.49634,-0.56087 0.85989,-1.246377 0.96913,-1.827363 3.29116,-4.127912 3.9541,-3.917505 0.62117,0.197154 1.6017,-0.266596 1.6017,-0.757545 0,-0.190607 0.21773,-0.543606 0.48385,-0.784441 0.52421,-0.474399 0.96489,-0.590934 0.71682,-0.18956 -0.0844,0.136577 0.0429,0.358226 0.28295,0.492553 0.29764,0.166567 0.34147,0.302908 0.13785,0.428751 -0.5907,0.365076 -0.27154,0.550993 1.02643,0.597908 1.44272,0.05215 1.64229,-0.06788 0.72553,-0.436372 -0.58439,-0.234899 -0.58499,-0.239594 -0.0324,-0.256058 0.3096,-0.0092 0.7056,-0.188692 0.87999,-0.398819 0.24524,-0.295499 0.45762,-0.318008 0.93749,-0.09936 1.41203,0.64336 -0.5173,1.804328 -2.99847,1.804328 -2.03067,0 -2.69936,0.263569 -4.19268,1.65257 -1.69743,1.578848 -3.09233,3.542477 -3.61884,5.094305 -0.60991,1.797634 -1.41355,9.921874 -0.98147,9.921874 0.219,0 0.55878,-0.604256 0.69272,-1.231909 0.12432,-0.582607 0.52568,-1.09215 2.54613,-3.232424 1.56581,-1.658675 2.19321,-2.15025 2.74437,-2.15025 0.60512,0 0.66408,0.06076 0.38513,0.396875 -0.22757,0.274204 -0.23758,0.396875 -0.0324,0.396875 0.27414,0 0.40948,-0.362834 0.32474,-0.870614 -0.15573,-0.93316 1.40265,-1.698698 1.72864,-0.849177 0.188,0.489913 1.60127,0.528131 2.03281,0.05497 0.17151,-0.188047 0.44305,-0.575 0.60343,-0.859896 0.37122,-0.659409 1.24153,-0.797123 1.68218,-0.266178 0.18698,0.225304 0.74211,0.409643 1.23362,0.409643 0.4915,0 0.89364,0.133641 0.89364,0.29698 0,0.199907 0.15135,0.183022 0.46302,-0.05166 0.4173,-0.314205 0.42383,-0.307102 0.0661,0.07193 -0.52541,0.556776 -3.31993,1.338155 -4.05206,1.133002 -0.38926,-0.109074 -0.46519,-0.08338 -0.23241,0.07866 0.23387,0.16279 -0.25891,0.340517 -1.52291,0.549262 -2.81136,0.464287 -3.80127,0.968266 -5.52844,2.814607 -1.88743,2.017674 -3.1155,4.094357 -3.45504,5.842508 -0.34502,1.776394 -0.59633,9.130987 -0.28863,8.447 0.13092,-0.291042 0.60966,-1.446477 1.06385,-2.567635 1.66447,-4.108624 4.56506,-7.502667 7.76007,-9.080202 1.03947,-0.513237 2.36619,-0.989305 2.94828,-1.057927 l 1.05833,-0.124769 -1.19063,0.359959 c -3.02407,0.914263 -5.40399,2.55639 -7.57617,5.227504 -0.86851,1.068002 -1.94883,3.00598 -1.94883,3.496003 0,0.241877 -0.10526,0.439775 -0.23392,0.439775 -0.12866,0 -0.54538,0.840249 -0.92605,1.86722 -0.78181,2.109223 -0.78016,2.10153 -0.45078,2.10153 0.13273,0 0.32179,-0.47625 0.42013,-1.058333 0.0983,-0.582083 0.2874,-1.058333 0.42013,-1.058333 0.13273,0 0.24315,-0.20836 0.24538,-0.463021 0.003,-0.395697 0.0413,-0.405315 0.26053,-0.06615 0.22798,0.352778 0.26141,0.352778 0.30083,0 0.12791,-1.144596 0.4791,-1.891857 0.79682,-1.695494 0.13665,0.08445 0.4247,0.0073 0.64013,-0.171515 0.21542,-0.178785 0.47791,-0.238832 0.5833,-0.133437 0.1054,0.105396 -0.0165,0.343847 -0.27097,0.529893 -0.25444,0.186046 -0.46261,0.471174 -0.46261,0.633619 0,0.162444 0.98227,-0.728558 2.18281,-1.980006 2.3307,-2.42951 5.30408,-4.737595 5.74898,-4.462633 0.52008,0.321428 0.26215,0.908729 -0.72189,1.643712 -1.41448,1.056481 -6.36573,5.34023 -6.58796,5.699808 -0.10256,0.165934 -0.0456,0.34866 0.12661,0.406057 0.1722,0.0574 0.23793,0.225964 0.14607,0.374592 -0.10762,0.174133 -0.23941,0.153099 -0.37058,-0.05915 -0.13882,-0.224603 -0.44212,0.03995 -0.95346,0.831648 -0.41245,0.638566 -1.02033,1.423234 -1.35086,1.743708 -0.79088,0.766806 -0.79575,1.384044 -0.006,0.715099 0.32743,-0.277216 0.65485,-0.564488 0.72761,-0.638383 0.0728,-0.0739 1.08479,-0.53703 2.24896,-1.02919 4.60566,-1.947075 8.39384,-4.348203 10.58333,-6.708205 2.51098,-2.706539 3.30729,-3.617251 3.30729,-3.782441 0,-0.09675 0.30188,-0.413361 0.67085,-0.70359 0.46038,-0.362138 0.62097,-0.684841 0.51186,-1.028602 -0.12087,-0.380846 -0.0582,-0.46222 0.26168,-0.339489 0.37392,0.143485 0.36289,0.252671 -0.0993,0.982621 -0.93044,1.469527 -6.1059,6.762173 -7.78143,7.957627 -1.80425,1.287288 -5.57692,3.255033 -7.8901,4.115309 -0.82177,0.305618 -2.02538,1.023302 -2.6747,1.594853 -1.17784,1.036775 -1.59036,1.951291 -1.89168,4.193638 -0.0654,0.486664 -0.19049,0.956438 -0.278,1.043943 -0.2661,0.266101 -0.93753,0.289146 -0.93753,0.03218 z"
       id="path28824" />
    <path
       style="fill:#6d944d"
       d="m 190.81108,17.805211 c -0.91551,-1.181791 -0.94386,-1.273367 -0.46291,-1.494967 0.68252,-0.31447 1.31749,0.227182 1.32274,1.128353 0.002,0.382364 0.12909,0.873801 0.28191,1.092082 0.21752,0.310682 0.2415,0.267586 0.11042,-0.198438 -0.10309,-0.366477 -0.0518,-0.595312 0.13336,-0.595312 0.36631,0 0.24109,1.113253 -0.13928,1.238183 -0.14904,0.04895 -0.70985,-0.477502 -1.24624,-1.169901 z"
       id="path28721" />
    <path
       style="fill:#6d944d"
       d="m 193.78352,18.811919 c 0,-0.317379 -0.0986,-0.516098 -0.21917,-0.441597 -0.31123,0.192352 -0.0703,-2.760766 0.28411,-3.48301 0.22656,-0.461643 0.21353,-0.675965 -0.0563,-0.926042 -0.28196,-0.261312 -0.32317,-0.245052 -0.20929,0.08258 0.078,0.224378 -0.0236,0.634087 -0.22564,0.910466 -0.347,0.474541 -0.36745,0.462881 -0.36745,-0.209521 0,-0.391616 -0.12421,-0.712028 -0.27603,-0.712028 -0.15182,0 -0.24949,0.386953 -0.21704,0.859895 0.0324,0.472943 0.0207,1.276615 -0.0261,1.785938 -0.064,0.695993 -0.13301,0.498808 -0.27794,-0.79375 -0.10606,-0.945886 -0.28074,-2.327183 -0.38818,-3.06955 l -0.19536,-1.349758 1.02106,-0.168528 c 1.78185,-0.294098 1.84036,-0.02428 1.33912,6.175336 -0.0294,0.363802 0.0656,0.661458 0.21111,0.661458 0.14552,0 0.26514,-0.167326 0.26583,-0.371835 6.8e-4,-0.204509 0.2096,-0.402416 0.46428,-0.439794 0.29528,-0.04334 0.39322,0.04344 0.27033,0.239543 -0.10599,0.169126 -0.19585,0.471157 -0.1997,0.67118 -0.004,0.200022 -0.27488,0.541967 -0.6023,0.759876 -0.5565,0.370366 -0.59532,0.358574 -0.59532,-0.180855 z"
       id="path28720" />
    <path
       style="fill:#6d944d"
       d="m 188.73642,21.812789 c -0.35279,-0.377652 -1.44525,-1.131572 -2.42769,-1.675378 -0.98244,-0.543806 -1.70044,-1.074548 -1.59557,-1.179427 0.10488,-0.104879 -0.014,-0.112127 -0.26426,-0.01611 -0.26137,0.100297 -0.45496,0.04996 -0.45496,-0.118307 0,-0.430594 0.94062,-0.356659 1.32292,0.103984 0.35586,0.428788 0.92318,0.555762 0.67276,0.150574 -0.0837,-0.135466 -0.0315,-0.320935 0.11613,-0.412154 0.32253,-0.199338 1.88032,0.671165 1.70595,0.953299 -0.0672,0.108763 0.17856,0.522297 0.54618,0.918965 0.36762,0.396668 0.60743,0.782187 0.5329,0.85671 -0.0745,0.07452 0.0618,0.353518 0.30297,0.619989 0.24115,0.26647 0.38123,0.484492 0.31128,0.484492 -0.07,0 -0.41583,-0.308988 -0.76861,-0.68664 z"
       id="path28719" />
    <path
       style="fill:#6d944d"
       d="m 193.30251,21.1471 c 0.0355,-1.325864 0.11656,-2.248598 0.18015,-2.05052 0.0636,0.198077 0.21021,0.422602 0.32581,0.498944 0.1156,0.07634 0.11329,0.850248 -0.005,1.719791 -0.11842,0.869544 -0.15858,1.729817 -0.0892,1.911718 0.0693,0.181901 -0.009,0.330729 -0.17503,0.330729 -0.20775,0 -0.28108,-0.747304 -0.23655,-2.410662 z"
       id="path28718" />
    <path
       style="fill:#6d944d"
       d="m 192.3882,23.028595 c -0.29996,-1.648828 -0.38504,-3.704166 -0.15334,-3.704166 0.12416,0 0.23412,0.208359 0.24434,0.463021 0.0159,0.395932 0.0516,0.386348 0.24599,-0.06615 0.29145,-0.678234 0.30569,0.989174 0.0249,2.910416 l -0.19337,1.322917 z"
       id="path28717" />
    <path
       style="fill:#6d944d"
       d="m 203.44082,29.907762 c 0.0899,-0.145521 0.34782,-0.264584 0.57308,-0.264584 0.24604,0 0.35173,-0.150744 0.2647,-0.37753 -0.2259,-0.588696 0.50794,-1.031772 1.34159,-0.810019 0.40207,0.106953 0.58147,0.24948 0.39866,0.316727 -0.1828,0.06725 -0.27315,0.218094 -0.20077,0.335214 0.15346,0.248298 -1.45848,1.064775 -2.10214,1.064775 -0.24125,0 -0.36506,-0.119062 -0.27512,-0.264583 z"
       id="path28715" />
    <path
       style="fill:#6d944d"
       d="m 199.8028,30.053987 c 0.32742,-0.242448 0.59531,-0.653735 0.59531,-0.913971 0,-0.260236 0.21773,-0.670204 0.48385,-0.911039 0.52421,-0.474399 0.96489,-0.590934 0.71682,-0.18956 -0.0844,0.136577 0.0429,0.358226 0.28295,0.492553 0.29764,0.166567 0.34147,0.302908 0.13785,0.428751 -0.53084,0.328081 -0.31692,0.612587 0.3629,0.482631 0.48492,-0.0927 0.66146,-0.01229 0.66146,0.301274 0,0.305569 -0.24557,0.428551 -0.8599,0.430631 -0.47294,0.0016 -1.33614,0.07415 -1.91822,0.161228 -1.03728,0.155167 -1.04649,0.149546 -0.46302,-0.282498 z"
       id="path28714" />
    <path
       style="fill:#6d944d"
       d="m 186.81468,30.788218 c -0.0899,-0.08992 -0.96973,-0.25637 -1.95514,-0.36989 -2.61796,-0.301591 -3.94327,-0.64002 -4.43602,-1.132777 -0.24349,-0.243489 -0.30402,-0.436123 -0.13703,-0.436123 0.1645,0 0.23322,-0.106586 0.15271,-0.236859 -0.0805,-0.130272 0.0448,-0.310212 0.2784,-0.399865 0.34376,-0.131912 0.39278,-0.03548 0.257,0.505539 -0.16408,0.653734 -0.14332,0.664632 0.93712,0.491863 0.80254,-0.128331 1.05336,-0.09325 0.9165,0.128194 -0.12055,0.19505 0.0226,0.304878 0.39736,0.304878 0.56963,0 0.57254,-0.01464 0.10544,-0.530788 -0.2642,-0.291934 -0.40172,-0.609434 -0.3056,-0.705556 0.0961,-0.09612 0.17477,-0.04701 0.17477,0.109144 0,0.15615 0.23813,0.221639 0.52917,0.14553 0.29104,-0.07611 0.52917,-0.296061 0.52917,-0.488782 0,-0.523519 0.50228,-0.733316 0.9219,-0.385064 0.48698,0.40416 0.21654,1.061766 -0.43666,1.061766 -0.28406,0 -0.44289,0.119063 -0.35295,0.264584 0.0899,0.145521 0.48391,0.266406 0.87551,0.268635 0.54069,0.0031 0.61866,0.06308 0.32408,0.249392 -0.31056,0.196415 -0.24117,0.301132 0.34795,0.525115 0.40473,0.153876 0.84718,0.279774 0.98322,0.279774 0.36373,0 0.30128,-0.463314 -0.0834,-0.618521 -0.19757,-0.07972 -0.14431,-0.141862 0.13229,-0.15434 0.28912,-0.01304 0.46302,0.171998 0.46302,0.492663 0,0.547301 -0.34796,0.902372 -0.61884,0.631488 z"
       id="path28713" />
    <path
       style="fill:#6d944d"
       d="m 192.8943,35.332264 c -0.093,-0.242384 -0.15344,-0.877445 -0.13428,-1.411246 l 0.0348,-0.970548 0.19096,0.926041 0.19097,0.926042 0.23439,-0.926042 0.23439,-0.926041 0.13513,1.190625 0.13513,1.190625 0.84983,-1.499523 c 0.90102,-1.589822 1.44195,-2.160976 1.2113,-1.278967 -0.0762,0.291242 -0.2249,0.529532 -0.33054,0.529532 -0.10563,0 -0.41917,0.444668 -0.69674,0.988151 -0.68194,1.335209 -1.08161,1.75636 -1.25703,1.32459 -0.10355,-0.254864 -0.18891,-0.249369 -0.38132,0.02455 -0.19987,0.284537 -0.28067,0.267529 -0.41702,-0.08779 z"
       id="path28710" />
    <path
       style="fill:#6d944d"
       d="m 191.53844,37.057785 c -0.0878,-0.14207 0.008,-0.578917 0.21366,-0.970772 0.33442,-0.638277 0.31771,-0.81112 -0.16056,-1.65992 l -0.53386,-0.947456 0.823,0.926041 c 0.52535,0.591123 0.82543,1.213115 0.82971,1.719792 0.005,0.607724 -0.0534,0.700737 -0.24978,0.396875 -0.2074,-0.320929 -0.25726,-0.282956 -0.26053,0.198437 -0.004,0.609709 -0.37603,0.799125 -0.66164,0.337003 z"
       id="path28709" />
    <path
       style="fill:#6d944d"
       d="m 194.32632,37.365585 c -0.0325,-0.826994 1.56275,-3.441617 3.0451,-4.991092 0.88433,-0.924374 1.67627,-1.612292 1.75985,-1.528705 0.0836,0.08359 -0.44523,0.710397 -1.17515,1.392912 -1.50634,1.408507 -2.56337,2.872733 -3.18787,4.415936 -0.23556,0.582084 -0.43443,0.902011 -0.44193,0.710949 z"
       id="path28707" />
    <path
       style="fill:#6d944d"
       d="m 184.25853,40.765659 c -0.21829,-0.122916 -1.23032,-0.359295 -2.24896,-0.525288 -3.0263,-0.493147 -4.90897,-1.146211 -4.49571,-1.559476 0.081,-0.08101 0.6792,-0.114583 1.32931,-0.0746 1.0221,0.06285 1.18202,0.0026 1.18202,-0.445603 0,-0.295895 0.22722,-0.577711 0.52953,-0.656767 0.29125,-0.07616 0.46281,-0.03052 0.38126,0.101433 -0.0815,0.131949 -0.01,0.239908 0.15988,0.239908 0.16948,0 0.6619,0.297657 1.09425,0.661459 0.43235,0.363802 0.94996,0.661458 1.15022,0.661458 0.64529,0 1.71194,0.603445 1.71194,0.968511 0,0.194923 -0.12608,0.354405 -0.28019,0.354405 -0.15411,0 -0.20662,0.119063 -0.11668,0.264584 0.1914,0.309698 0.13777,0.311046 -0.39687,0.01 z"
       id="path28705" />
    <path
       style="fill:#6d944d"
       d="m 200.24935,40.866639 c 0.23001,-0.230013 0.35207,-0.525209 0.27125,-0.65599 -0.0808,-0.130782 -0.0182,-0.478371 0.13916,-0.77242 0.33455,-0.625103 1.2745,-0.711731 1.49475,-0.137759 0.0998,0.260138 0.51255,0.396875 1.19794,0.396875 0.5751,0 0.97976,-0.106587 0.89925,-0.236859 -0.0805,-0.130273 0.0486,-0.311669 0.28684,-0.403103 0.23827,-0.09144 0.35768,-0.241784 0.26536,-0.33411 -0.2468,-0.246797 0.35461,-0.878012 0.83655,-0.878012 0.33226,0 0.31261,0.07748 -0.0985,0.388461 -0.55261,0.417968 -0.22892,0.551959 0.38877,0.160936 0.20526,-0.129937 0.56245,-0.144073 0.79375,-0.03141 1.14929,0.55978 2.10675,0.733865 2.43658,0.443019 0.25869,-0.228105 0.25672,-0.189813 -0.008,0.160564 -0.19137,0.253059 -0.43905,0.403799 -0.55041,0.334976 -0.11136,-0.06882 -0.59384,0.07011 -1.07218,0.30874 -0.47835,0.238629 -1.40565,0.42577 -2.06068,0.415867 -0.70581,-0.01067 -1.0503,0.06892 -0.84568,0.195387 0.21353,0.131968 -0.29964,0.30559 -1.3449,0.455022 -1.03577,0.148076 -1.81823,0.146355 -2.02091,-0.0044 -0.2298,-0.170978 -0.33073,-0.115071 -0.33073,0.183198 0,0.257817 -0.2189,0.429271 -0.54806,0.429271 -0.49959,0 -0.51108,-0.03699 -0.12986,-0.418205 z"
       id="path28704" />
    <path
       style="fill:#6d944d"
       d="m 192.92343,48.535298 c -0.0844,-0.136593 -0.23173,-2.091714 -0.32736,-4.344714 -0.0956,-2.253001 -0.2776,-4.569386 -0.40438,-5.147524 -0.30923,-1.410199 -0.10629,-1.532885 0.26357,-0.159336 0.26978,1.001904 0.48059,3.407027 0.51909,5.922464 0.008,0.554292 0.12331,0.941126 0.25517,0.859633 0.13186,-0.08149 0.17263,-0.404795 0.0906,-0.718447 -0.10228,-0.39111 -0.0528,-0.510723 0.15758,-0.380722 0.20863,0.128943 0.25181,0.670936 0.13505,1.695019 -0.19804,1.736871 -0.46891,2.630277 -0.68933,2.273627 z"
       id="path28701" />
    <path
       style="fill:#6d944d"
       d="m 204.63144,55.493346 c 0,-0.0599 0.68461,-0.589946 1.52135,-1.177873 1.45332,-1.021153 2.80407,-2.349541 6.25629,-6.152732 0.85797,-0.945187 1.42407,-1.45951 1.25802,-1.142941 -0.78004,1.487126 -9.03566,9.229152 -9.03566,8.473546 z"
       id="path28695" />
    <path
       style="fill:#6d944d"
       d="m 196.42883,57.490573 c 0.54105,-1.12573 0.33531,-1.546922 -0.3152,-0.645264 -0.44365,0.614941 -1.00719,0.95347 -1.00719,0.60504 0,-0.487424 1.17784,-1.379305 1.6563,-1.254184 0.30155,0.07886 0.58469,-0.09886 0.79508,-0.499037 0.63489,-1.207639 4.26062,-4.946351 5.72356,-5.901913 0.81529,-0.532536 1.57165,-1.087647 1.68079,-1.23358 0.18855,-0.252107 0.71392,0.268503 0.72355,0.716996 0.002,0.103719 -0.68056,0.656762 -1.5173,1.228986 -1.5477,1.058422 -6.21351,5.498475 -7.54653,7.181393 l -0.73351,0.926042 z"
       id="path28693" />
    <path
       style="fill:#6d944d"
       d="m 194.04811,58.224217 c 0,-0.399145 1.19501,-3.48058 1.84045,-4.745738 0.87321,-1.71164 0.88992,-1.159367 0.0202,0.666707 -0.41818,0.877987 -0.96206,2.213117 -1.20863,2.966957 -0.4251,1.299655 -0.65198,1.686649 -0.65198,1.112074 z"
       id="path28692" />
    <path
       style="fill:#6d944d"
       d="m 193.09739,57.42378 c -0.0302,-0.436918 0.0522,-0.860663 0.18328,-0.941656 0.13105,-0.08099 0.22331,-1.122499 0.20502,-2.314458 l -0.0333,-2.167197 -0.34088,2.38125 c -0.41226,2.879885 -0.45534,3.836458 -0.17277,3.836458 0.11748,0 0.18885,-0.357479 0.1586,-0.794397 z"
       id="path28685" />
    <path
       style="fill:#6d944d"
       d="m 193.3662,63.311406 c 0.0871,-0.545703 0.0399,-1.170781 -0.10498,-1.389063 -0.17646,-0.265936 -0.26468,-0.287759 -0.26739,-0.06614 -0.007,0.593228 -0.51888,0.347704 -0.68916,-0.33073 -0.0913,-0.363802 -0.27217,-0.661458 -0.40191,-0.661458 -0.12975,0 -0.2359,-0.238125 -0.2359,-0.529167 0,-0.291041 -0.12609,-0.529166 -0.2802,-0.529166 -0.15411,0 -0.20478,-0.12203 -0.1126,-0.271178 0.0922,-0.149148 -0.19845,-0.592381 -0.64584,-0.984961 -0.4474,-0.39258 -0.81527,-0.895628 -0.8175,-1.117884 -0.004,-0.35747 -0.0336,-0.358304 -0.26053,-0.0072 -0.14106,0.218281 -0.2583,0.263745 -0.26053,0.10103 -0.002,-0.162715 -0.6068,-1.076624 -1.3435,-2.030908 -1.23565,-1.600604 -3.76061,-3.736072 -6.10529,-5.1635 -1.03329,-0.629062 -1.70534,-1.307238 -1.49946,-1.513121 0.34571,-0.345709 5.85838,3.181641 7.22441,4.622629 0.43656,0.460518 1.32953,1.743968 1.98437,2.852111 1.12859,1.909833 2.13866,2.913006 1.77461,1.762494 -0.89345,-2.823542 -2.16096,-5.486583 -3.57443,-7.509901 l -0.64693,-0.926042 0.82109,0.926042 c 0.9296,1.048427 2.7186,4.363425 3.21271,5.953124 0.18093,0.582084 0.43364,1.171443 0.56158,1.309688 0.12794,0.138245 0.23262,0.591756 0.23262,1.007802 0,0.416047 0.0893,0.701528 0.19844,0.634403 0.10914,-0.06712 0.13533,-2.485166 0.0582,-5.373427 l -0.14024,-5.251382 -1.11642,-1.94172 c -0.61403,-1.067946 -1.65682,-2.46693 -2.31731,-3.108854 -0.66049,-0.641924 -1.10638,-1.167134 -0.99087,-1.167134 0.11552,0 0.74517,0.505291 1.39922,1.122869 0.65405,0.617578 1.28734,1.090878 1.40729,1.051778 0.11996,-0.0391 0.1357,0.06224 0.035,0.225201 -0.10072,0.16296 0.069,0.637339 0.37721,1.054175 0.30818,0.416835 0.56032,0.87803 0.56032,1.024876 0,0.146846 0.18891,0.194503 0.4198,0.105904 0.30506,-0.117063 0.39725,-0.0244 0.33733,0.339033 -0.0454,0.275067 0.0246,0.671097 0.15541,0.880067 0.13082,0.20897 0.22774,1.994908 0.21537,3.96875 l -0.0225,3.588805 0.36346,-2.513542 c 0.54979,-3.802086 0.65324,-4.261186 0.9227,-4.094652 0.1365,0.08436 0.1767,-0.03291 0.0893,-0.2606 -0.0874,-0.227693 -0.0119,-0.591064 0.16771,-0.807492 0.22688,-0.273374 0.23592,-0.393506 0.0296,-0.393506 -0.16333,0 -0.29698,-0.178593 -0.29698,-0.396875 0,-0.218281 0.11907,-0.396875 0.26459,-0.396875 0.14552,0 0.26659,0.148829 0.26904,0.33073 0.002,0.181901 0.27034,-0.08477 0.59531,-0.592601 0.32497,-0.507831 0.59086,-1.007074 0.59086,-1.109429 0,-0.313445 3.67524,-4.184949 3.9728,-4.184949 0.15339,0 -0.65086,0.9525 -1.78722,2.116666 -1.13636,1.164167 -1.99868,2.116667 -1.91626,2.116667 0.0824,0 -0.14309,0.506015 -0.50113,1.124479 -0.96318,1.663733 -1.16521,2.79054 -1.36384,7.60677 -0.099,2.401094 -0.23403,4.454922 -0.3,4.564063 -0.066,0.10914 -0.0329,0.339362 0.0736,0.511604 0.13305,0.215284 0.25617,0.153261 0.39389,-0.198437 0.18408,-0.470064 0.20186,-0.463268 0.21894,0.08371 0.0102,0.327421 -0.10046,0.595312 -0.24598,0.595312 -0.14552,0 -0.26459,0.115326 -0.26459,0.25628 0,0.140953 0.16656,0.192368 0.37012,0.114254 0.63649,-0.244248 0.69536,0.309044 0.15243,1.432784 -0.2874,0.594845 -0.52255,1.384944 -0.52255,1.755776 0,0.370832 -0.12952,0.674239 -0.28784,0.674239 -0.18437,0 -0.23091,-0.356633 -0.12948,-0.992187 z"
       id="path28684" />
    <path
       style="fill:#4e763d"
       d="m 193.96618,14.098908 c -0.0622,-0.10914 -0.19372,-0.644921 -0.29219,-1.190625 -0.22003,-1.219422 -0.67069,-1.302023 -0.72176,-0.132291 -0.0353,0.808509 -0.0472,0.79665 -0.19844,-0.198438 -0.12164,-0.80014 -0.0641,-1.099747 0.23598,-1.228089 0.65928,-0.281991 1.17041,0.478398 1.18088,1.756741 0.0101,1.227065 -0.0114,1.331256 -0.20447,0.992702 z"
       id="path28571" />
    <path
       style="fill:#4e763d"
       d="m 204.26277,39.478398 c -0.15558,-0.251732 0.9448,-0.839387 1.57174,-0.839387 0.21144,0 0.38805,-0.148828 0.39248,-0.330729 0.004,-0.181901 0.13232,-0.117151 0.28422,0.143889 0.17559,0.301772 0.45362,0.418297 0.76343,0.319966 0.268,-0.08506 0.56385,-0.03075 0.65744,0.120695 0.0936,0.15144 0.0371,0.275346 -0.12564,0.275346 -0.1627,0 -0.23286,0.101863 -0.15591,0.226362 0.0769,0.1245 -0.15416,0.170151 -0.51355,0.101448 -0.37466,-0.07162 -0.65518,-0.309306 -0.65751,-0.557092 -0.003,-0.365249 -0.0417,-0.372672 -0.24712,-0.04793 -0.13369,0.211333 -0.19909,0.455407 -0.14534,0.542386 0.0538,0.08698 -0.30233,0.185087 -0.7913,0.218018 -0.48897,0.03293 -0.95379,-0.0449 -1.03294,-0.172968 z"
       id="path28568" />
    <path
       style="fill:#4e763d"
       d="m 182.07571,40.145716 c -0.82884,-0.325723 -0.92075,-0.582223 -0.29471,-0.822455 0.39448,-0.151376 0.39084,-0.21258 -0.041,-0.689766 -0.61263,-0.676953 -0.26931,-0.673766 0.59425,0.0055 0.37,0.291042 0.86503,0.531814 1.10007,0.53505 0.23504,0.0032 0.70974,0.223054 1.0549,0.488484 0.57622,0.443116 0.58839,0.497632 0.14882,0.666312 -0.30676,0.117713 -0.56069,0.03728 -0.70685,-0.223901 -0.26304,-0.470021 -0.76324,-0.552747 -0.66484,-0.109955 0.0945,0.425099 -0.34944,0.481291 -1.19063,0.150715 z"
       id="path28567" />
    <path
       style="fill:#4e763d"
       d="m 183.69629,51.471302 c -0.0182,-0.07276 -0.0628,-0.251354 -0.0992,-0.396875 -0.0364,-0.145521 -0.0829,-0.35388 -0.10327,-0.463021 -0.0204,-0.10914 -0.12583,-0.05899 -0.23424,0.111443 -0.13825,0.217338 -0.50669,0.07906 -1.23371,-0.463021 -0.78536,-0.585581 -0.91209,-0.772901 -0.5229,-0.772901 0.52261,0 3.28474,1.719061 3.28474,2.044321 0,0.098 -0.14287,0.0353 -0.3175,-0.139321 -0.38394,-0.383941 -0.8375,-0.423381 -0.60854,-0.05292 0.0899,0.14552 0.097,0.264583 0.0156,0.264583 -0.0813,0 -0.16278,-0.05953 -0.18097,-0.132292 z"
       id="path28560" />
    <path
       style="fill:#4e763d"
       d="m 199.91554,53.538885 c 0.44262,-1.045093 2.21278,-2.855034 3.87401,-3.961075 1.38825,-0.924291 1.8387,-1.001667 1.55695,-0.267444 -0.16566,0.4317 -2.56823,2.115749 -2.75377,1.930214 -0.0678,-0.0678 0.13524,-0.261635 0.45121,-0.430736 0.31597,-0.169101 0.50549,-0.376455 0.42116,-0.460787 -0.24163,-0.241631 -1.19299,0.739208 -1.05806,1.090842 0.0666,0.173665 -0.53764,0.884531 -1.34286,1.579703 -1.32923,1.147575 -1.43499,1.195387 -1.14864,0.519283 z"
       id="path28559" />
    <path
       style="fill:#4e763d"
       d="m 192.2538,53.014296 c -0.0318,-1.916249 -0.1263,-3.702187 -0.21004,-3.96875 -0.13968,-0.444568 -0.12809,-0.447157 0.14003,-0.03129 0.18741,0.290674 0.26279,1.714898 0.21005,3.968749 l -0.0823,3.515379 z"
       id="path28557" />
  </g>
</svg>
