<?xml version="1.0" encoding="UTF-8" standalone="no"?>
<!-- Created with Inkscape (http://www.inkscape.org/) -->

<svg
   width="185"
   height="185"
   viewBox="0 0 48.947914 48.947918"
   version="1.1"
   id="svg1"
   xmlns="http://www.w3.org/2000/svg"
   xmlns:svg="http://www.w3.org/2000/svg">
  <defs
     id="defs1" />
  <g
     id="g29030"
     transform="matrix(0.49484512,0,0,0.49484512,20.165097,15.844522)">
    <path
       style="fill:#dbdea7"
       d="M 7.36582,66.686506 C 6.6279001,66.578209 5.7449684,66.34019 5.4037496,66.157576 4.7645528,65.815488 3.4871686,65.87509 0.10853469,66.404648 -3.5508203,66.978205 -7.5365458,66.59416 -10.853113,65.348436 c -1.937142,-0.727603 -4.648768,-3.206318 -4.648768,-4.249469 0,-0.945419 1.12441,-1.907511 3.526307,-3.017256 1.48328,-0.685317 2.5877564,-0.999421 3.9015452,-1.109564 1.0079101,-0.0845 1.8325638,-0.201583 1.8325638,-0.260186 0,-0.0586 -0.2698696,-0.368757 -0.5997104,-0.68923 -2.1216368,-2.061383 -3.2268706,-4.205554 -3.6190746,-7.021063 -0.185452,-1.331296 -0.160462,-1.425039 0.440819,-1.653646 0.350578,-0.133289 1.6886848,-0.242345 2.9735704,-0.242345 3.3353319,0 6.0259795,0.88752 8.6757494,2.861726 0.4729427,0.352365 0.8598958,0.514497 0.8598958,0.360292 0,-0.154204 -0.1331668,-0.362673 -0.2959262,-0.463264 -0.1959989,-0.121134 -0.2543608,-0.908163 -0.1728339,-2.330719 0.094268,-1.644871 0.3008749,-2.51957 0.8822973,-3.735326 1.1268446,-2.356236 4.3746637,-5.4201 5.7485654,-5.422969 1.3431545,-0.0028 3.9930958,2.087191 5.3284428,4.202518 1.587104,2.514134 2.199257,6.352697 1.340761,8.407367 l -0.397859,0.952211 0.86088,-0.701542 c 1.669249,-1.360293 2.855809,-2.02091 4.805232,-2.675309 2.307766,-0.774692 5.037849,-0.887105 6.255245,-0.257565 0.683715,0.353563 0.780611,0.547156 0.780611,1.55963 0,2.235837 -2.011217,7.032533 -2.948687,7.032533 -0.79622,0 0.129289,0.308402 1.656878,0.552112 2.749416,0.438639 6.583475,2.555725 6.583475,3.635256 0,0.752935 -1.731141,2.58511 -3.248977,3.438597 -3.459987,1.945568 -6.406801,2.425235 -11.628534,1.892831 -3.08937,-0.31499 -3.676425,-0.30524 -5.597839,0.09296 -2.273557,0.471186 -2.9299332,0.494397 -5.075696,0.179485 z"
       id="path29025" />
    <path
       style="fill:#e8d749"
       d="m -7.8768107,66.155524 c -2.6995543,-0.562377 -5.1439803,-1.781297 -6.4325833,-3.207627 -1.844185,-2.041292 -1.484925,-2.940908 1.8282,-4.577954 1.915336,-0.946385 3.9404085,-1.474683 5.6527634,-1.474683 h 0.9283084 L -7.2283558,55.490849 C -7.9588843,54.718423 -8.7631443,53.687005 -9.0156004,53.198809 -10.21325,50.88281 -10.843089,47.89369 -10.215211,47.50564 c 0.142772,-0.08824 1.2441004,-0.22939 2.4473954,-0.31367 3.4476019,-0.241475 6.94574711,0.862395 9.405752,2.968068 1.2296081,1.052499 1.3234265,1.023812 0.6855877,-0.209633 -0.667474,-1.290752 -0.3418452,-4.083778 0.7309267,-6.269399 0.9640901,-1.964198 3.3815173,-4.471599 4.8087005,-4.987675 1.1901234,-0.430354 2.4275417,0.07839 4.1817697,1.719265 2.940473,2.750468 4.448622,7.50205 3.273682,10.314078 -0.220192,0.526993 -0.359807,0.998709 -0.310257,1.04826 0.04955,0.04955 0.735723,-0.399278 1.524827,-0.997397 2.641023,-2.00182 5.788253,-3.048669 8.442025,-2.808033 2.186599,0.198273 2.650002,0.513134 2.650002,1.800551 0,1.779192 -1.265412,5.133292 -2.440153,6.467868 l -1.044402,1.186504 1.279256,0.0056 c 2.327434,0.01015 6.814758,2.08895 7.358695,3.408987 0.21213,0.514802 -1.028257,2.226573 -2.198088,3.033427 -1.466672,1.011592 -3.669466,1.946264 -5.733433,2.432765 -1.480719,0.349022 -2.382603,0.392885 -4.497916,0.218754 C 17.330945,66.275484 14.20311,66.285683 10.082383,66.557416 7.682982,66.715639 7.0292888,66.671572 6.0118476,66.283007 4.7575462,65.803985 3.0588841,65.836873 -0.42063195,66.407545 -2.6534779,66.773752 -5.3460213,66.682743 -7.8768107,66.155524 Z"
       id="path29012" />
    <path
       style="fill:#85ae62"
       d="m -7.8768107,66.155524 c -2.6995543,-0.562377 -5.1439803,-1.781297 -6.4325833,-3.207627 -1.844185,-2.041292 -1.484925,-2.940908 1.8282,-4.577954 1.915336,-0.946385 3.9404085,-1.474683 5.6527634,-1.474683 h 0.9283084 L -7.2283558,55.490849 C -7.9588843,54.718423 -8.7631443,53.687005 -9.0156004,53.198809 -10.21325,50.88281 -10.843089,47.89369 -10.215211,47.50564 c 0.142772,-0.08824 1.2441004,-0.22939 2.4473954,-0.31367 3.4476019,-0.241475 6.94574711,0.862395 9.405752,2.968068 1.2296081,1.052499 1.3234265,1.023812 0.6855877,-0.209633 -0.667474,-1.290752 -0.3418452,-4.083778 0.7309267,-6.269399 0.9640901,-1.964198 3.3815173,-4.471599 4.8087005,-4.987675 1.1901234,-0.430354 2.4275417,0.07839 4.1817697,1.719265 2.940473,2.750468 4.448622,7.50205 3.273682,10.314078 -0.220192,0.526993 -0.359807,0.998709 -0.310257,1.04826 0.04955,0.04955 0.735723,-0.399278 1.524827,-0.997397 2.641023,-2.00182 5.788253,-3.048669 8.442025,-2.808033 2.186599,0.198273 2.650002,0.513134 2.650002,1.800551 0,1.779192 -1.265412,5.133292 -2.440153,6.467868 l -1.044402,1.186504 1.279256,0.0056 c 2.327434,0.01015 6.814758,2.08895 7.358695,3.408987 0.21213,0.514802 -1.028257,2.226573 -2.198088,3.033427 -1.466672,1.011592 -3.669466,1.946264 -5.733433,2.432765 -1.480719,0.349022 -2.382603,0.392885 -4.497916,0.218754 C 17.330945,66.275484 14.20311,66.285683 10.082383,66.557416 7.682982,66.715639 7.0292888,66.671572 6.0118476,66.283007 4.7575462,65.803985 3.0588841,65.836873 -0.42063195,66.407545 -2.6534779,66.773752 -5.3460213,66.682743 -7.8768107,66.155524 Z"
       id="path29000" />
    <path
       style="fill:#81aa5d"
       d="m -9.0099781,53.206646 c -0.4950539,-0.801014 -1.4648199,-3.868878 -1.4648199,-4.633971 0,-1.051128 0.128236,-1.111419 2.7781248,-1.306165 1.2292507,-0.09034 1.585155,-0.06182 1.0583332,0.08481 -0.4365624,0.121506 -1.3512734,0.235007 -2.032691,0.252224 -1.0011652,0.0253 -1.2719737,0.135381 -1.411059,0.573598 -0.175562,0.553148 0.913357,4.526434 1.1931275,4.353526 0.08407,-0.05196 0.1528548,0.134914 0.1528548,0.415272 0,0.572417 -0.051139,0.621098 -0.2738704,0.26071 z"
       id="path28989" />
    <path
       style="fill:#81aa5d"
       d="m -14.972715,60.108009 c 0,-0.366004 2.350955,-1.731829 4.101042,-2.382566 1.5562877,-0.578678 3.8351783,-0.981044 3.4395831,-0.607301 -0.1455208,0.137482 -0.8408102,0.317129 -1.5450874,0.399214 -1.5475347,0.180368 -5.2731247,1.948596 -5.0241127,2.384527 0.09446,0.165368 0.07432,0.212405 -0.04477,0.104527 -0.119082,-0.107878 -0.376296,-0.06353 -0.571586,0.09854 -0.256819,0.213141 -0.355074,0.213987 -0.355074,0.0031 z"
       id="path28987" />
    <path
       style="fill:#81aa5d"
       d="M 0.89283525,56.004585 C -0.2703157,54.919242 -2.6054104,53.191094 -2.908788,53.191094 c -0.1929937,0 -0.6943762,-0.26471 -1.1141832,-0.588244 -0.4935199,-0.380343 -0.6340256,-0.425989 -0.3975524,-0.129151 0.2011532,0.252502 1.0493005,0.823432 1.8847718,1.268733 0.8354713,0.445302 1.91463806,1.217795 2.39814838,1.716651 0.48351032,0.498856 1.00032945,0.907011 1.14848692,0.907011 0.1481575,0 0.095036,-0.162679 -0.11804825,-0.361509 z"
       id="path28963" />
    <path
       style="fill:#81aa5d"
       d="M 10.159974,56.676691 C 9.9659194,56.609816 9.7915215,49.646504 9.8589697,44.658282 c 0.0039,-0.288303 -0.192873,-0.463021 -0.5214653,-0.463021 -0.4924958,0 -0.5002297,0.03926 -0.1158481,0.588038 0.3413314,0.487319 0.4118779,1.548582 0.4118779,6.196068 0,5.583058 0.1149853,6.848706 0.5575078,6.136515 0.122817,-0.19766 0.109149,-0.390868 -0.03107,-0.439191 z"
       id="path28962" />
    <path
       style="fill:#81aa5d"
       d="m 8.0556023,51.19843 c 0.017287,-4.003267 0.1297754,-6.455389 0.3058675,-6.667567 0.1831414,-0.220672 0.1865153,-0.335602 0.00985,-0.335602 -0.14777,0 -0.3409423,0.188332 -0.4292718,0.418515 C 7.7560774,45.098407 7.7197369,57.838917 7.904853,57.6538 7.972725,57.58593 8.0405615,54.681012 8.0556001,51.19843 Z"
       id="path28961" />
    <path
       style="fill:#81aa5d"
       d="m 31.344858,62.640125 c 0.573563,-0.551106 1.042842,-1.183211 1.042842,-1.404678 0,-0.221467 -0.117699,-0.329925 -0.261553,-0.241018 -0.143854,0.08891 -0.202676,0.0066 -0.130715,-0.182823 0.144324,-0.379977 -2.141432,-2.064262 -2.801425,-2.064262 -0.222552,0 -0.521748,-0.117108 -0.66488,-0.26024 -0.143132,-0.143132 -0.702487,-0.29196 -1.243011,-0.330729 -0.540525,-0.03877 -0.983011,-0.159787 -0.983302,-0.268927 -2.92e-4,-0.109141 -0.298187,-0.198438 -0.661989,-0.198438 -0.691416,0 -0.879641,0.363092 -0.355995,0.686724 0.189257,0.116967 0.233644,0.07258 0.116677,-0.116677 -0.110652,-0.179039 -0.02453,-0.305463 0.208088,-0.305463 0.218281,0 0.47046,0.119062 0.560397,0.264583 0.08994,0.145521 0.551953,0.264583 1.026704,0.264583 0.982878,0 2.926949,0.852944 2.627223,1.15267 -0.109018,0.109018 0.01362,0.116927 0.272525,0.01758 0.342908,-0.131586 0.510758,-0.02761 0.618107,0.382891 0.08105,0.309942 0.32596,0.563531 0.544241,0.563531 0.266704,0 0.351457,0.173681 0.258399,0.529531 -0.07616,0.291243 -0.03052,0.46281 0.101433,0.381261 0.13195,-0.08155 0.239909,-0.03676 0.239909,0.09953 0,0.335496 -0.667295,0.869168 -0.88424,0.707175 -0.09575,-0.0715 -0.114302,-0.05036 -0.04122,0.04697 0.159036,0.211818 -0.642462,1.14595 -0.983241,1.14595 -0.131555,0 -0.165048,-0.119966 -0.07443,-0.266591 0.09807,-0.158689 -0.102096,-0.145002 -0.494561,0.03382 -0.378882,0.17263 -0.644013,0.503651 -0.623329,0.778236 0.03412,0.452932 0.07529,0.454616 0.790251,0.03233 0.414841,-0.245024 1.223536,-0.896404 1.797098,-1.447509 z"
       id="path28960" />
    <path
       style="fill:#81aa5d"
       d="m -5.5800067,66.508454 c -3.7181,-0.57448 -6.9384713,-1.680798 -6.5801743,-2.260534 0.122042,-0.197469 0.0316,-0.240091 -0.266621,-0.125652 -0.573605,0.220113 -2.810496,-1.946447 -2.810496,-2.722129 0,-0.294871 -0.02977,-0.614076 -0.06615,-0.709344 -0.108541,-0.284236 0.949488,-0.34639 1.276507,-0.07499 0.199844,0.165856 0.530965,0.07107 0.976781,-0.279608 0.794176,-0.624699 1.191787,-0.698169 0.723275,-0.133646 -0.465563,0.560969 -0.191037,0.492337 0.529166,-0.132292 0.335574,-0.291042 0.528197,-0.529167 0.42805,-0.529167 -0.100146,0 -0.06315,-0.222226 0.08221,-0.493836 0.181644,-0.339405 0.49483,-0.468109 1.001496,-0.411564 0.4054621,0.04525 1.1309623,-0.149242 1.612223,-0.432205 0.4812606,-0.282963 1.1190771,-0.514478 1.4173698,-0.514478 0.3733872,0 0.4949046,-0.123642 0.3900553,-0.396875 -0.179795,-0.468538 -0.1446179,-0.475139 0.7399143,-0.13884 0.9863776,0.37502 0.8438641,0.103605 -0.6515833,-1.240931 -1.5112531,-1.358746 -2.0231166,-2.103909 -1.4452066,-2.103909 0.2040199,0 0.3175525,0.08639 0.2522947,0.19198 -0.145622,0.235622 2.0162036,2.369105 2.3881655,2.356856 0.1470172,-0.0048 -0.030352,-0.25871 -0.3941544,-0.564152 -0.363802,-0.305443 -0.6316926,-0.658669 -0.5953124,-0.784948 0.03638,-0.126278 -0.070103,-0.199832 -0.23663,-0.163451 -0.1665267,0.03638 -0.4031235,-0.301773 -0.5257707,-0.751451 -0.1226472,-0.449678 -0.5453231,-1.164053 -0.9392798,-1.5875 -0.4663798,-0.501291 -0.7168033,-1.063951 -0.7177709,-1.61271 -8.173e-4,-0.463543 -0.096736,-0.783939 -0.2131527,-0.711989 -0.2934058,0.181335 -0.2650535,-0.364613 0.049454,-0.952275 0.1789437,-0.33436 0.4417637,-0.440669 0.8351233,-0.337803 0.3774386,0.0987 0.512627,0.0508 0.3947742,-0.139893 -0.098576,-0.159499 -0.41485,-0.244622 -0.7028316,-0.189162 -0.2879817,0.05546 -0.523603,-0.01132 -0.523603,-0.148396 0,-0.137078 0.4051159,-0.219539 0.9002576,-0.183246 0.4951417,0.03629 0.840381,0.163247 0.7671985,0.282121 -0.1902795,0.309078 0.8067683,0.101965 1.0404714,-0.216134 0.1170809,-0.159361 0.1959973,-0.120172 0.1984375,0.09854 0.00343,0.307779 0.072284,0.307779 0.4517155,0 0.3469738,-0.28145 0.4005128,-0.284757 0.2380318,-0.0147 -0.1475637,0.245262 -0.066436,0.323601 0.2740024,0.264583 0.5242838,-0.09089 0.7011871,0.576279 0.2397791,0.904295 -0.1783966,0.126822 -0.1630525,0.195794 0.044146,0.198437 0.1746701,0.0022 0.4256474,-0.18905 0.5577272,-0.425064 0.2108495,-0.376767 0.293146,-0.353447 0.6746055,0.191163 0.2807417,0.400815 0.4358937,0.482432 0.4385117,0.230678 0.00352,-0.33813 0.037404,-0.337169 0.2565103,0.0073 0.208746,0.328157 0.3454805,0.339221 0.7896984,0.0639 0.3174427,-0.196745 0.5372398,-0.223806 0.5372398,-0.06614 0,0.146754 0.089297,0.252725 0.1984374,0.235493 0.1091407,-0.01723 0.2579688,-0.0081 0.3307292,0.02024 0.07276,0.02837 0.3108854,0.09602 0.52916664,0.150346 0.21828123,0.05432 0.66476559,0.178163 0.99218744,0.275198 1.19757012,0.354916 0.60189109,-0.587571 -0.85216941,-1.348308 -0.79611507,-0.416512 -1.40326637,-0.80151 -1.34922517,-0.855551 0.2085838,-0.208584 2.70693766,1.254653 3.5307341,2.067881 1.002233,0.989376 1.4273647,0.845748 0.7734188,-0.261295 C 2.1627155,49.61514 1.9606148,48.81038 1.9606148,48.244943 c 0,-1.174996 0.6970563,-4.057765 1.0719779,-4.433307 0.3232738,-0.323809 0.3226975,0.01977 -0.00105,0.624692 -0.3388249,0.6331 -0.5635299,1.709182 -0.7271003,3.481987 -0.1069,1.1586 -0.040431,1.569651 0.3105786,1.920661 0.5294899,0.52949 0.9330915,0.358225 0.9330915,-0.39595 0,-0.385403 0.1208421,-0.495488 0.4185146,-0.38126 0.230183,0.08833 0.4753347,0.160599 0.5447816,0.160599 0.069447,0 0.051482,0.121005 -0.039922,0.268899 -0.091404,0.147895 -0.2954205,0.18903 -0.4533702,0.09141 -0.1755413,-0.10849 -0.2107048,-0.05375 -0.090454,0.140824 0.1506393,0.243739 0.2841862,0.245727 0.570047,0.0085 0.4873743,-0.404485 0.4761256,-0.774201 -0.023555,-0.774201 -0.2182813,0 -0.396875,-0.12609 -0.396875,-0.280199 0,-0.154109 0.1190625,-0.206613 0.2645833,-0.116676 0.1455208,0.08994 0.2645833,-0.0221 0.2645833,-0.248969 0,-0.226869 -0.089297,-0.39839 -0.1984375,-0.381157 -0.6003737,0.0948 -0.9004001,-0.07332 -0.7642154,-0.428208 0.083762,-0.218281 0.036969,-0.396875 -0.1039842,-0.396875 -0.1409537,0 -0.2562795,0.119063 -0.2562795,0.264584 0,0.145521 -0.1190625,0.264583 -0.2645833,0.264583 -0.413972,0 -0.3108926,-0.677937 0.1987821,-1.307359 0.4008695,-0.495053 0.8621492,-0.705318 1.7310454,-0.789064 0.1155198,-0.01113 0.1860382,-0.169072 0.1567076,-0.350973 -0.090527,-0.561424 0.3336625,-1.263163 0.6531682,-1.08054 0.1666527,0.09526 0.214741,0.07576 0.1068629,-0.04332 -0.1078781,-0.119082 -0.048347,-0.406061 0.1322917,-0.637732 0.2905933,-0.372688 0.2750869,-0.379382 -0.1345872,-0.05809 -0.4914715,0.385439 -0.6083594,0.143712 -0.2239673,-0.463169 0.1270228,-0.200544 0.3662745,-0.280991 0.5316706,-0.178771 0.1653961,0.10222 0.2699374,0.08771 0.232314,-0.03225 -0.037623,-0.119957 0.2677895,-0.55082 0.6786953,-0.957474 0.4409078,-0.436345 0.6843736,-0.902836 0.5940479,-1.138221 -0.084179,-0.219368 -0.045524,-0.332394 0.085901,-0.251169 0.131425,0.08123 0.2891412,0.05764 0.3504804,-0.0524 0.061339,-0.110047 0.064455,-0.02149 0.00692,0.196789 -0.0801,0.303909 -0.031401,0.324247 0.2078964,0.08682 0.1718747,-0.170529 0.5063505,-0.250836 0.7432795,-0.17846 0.3504748,0.107062 0.3444645,0.0761 -0.032241,-0.166115 -0.6197803,-0.398499 -0.5865594,-0.80058 0.066146,-0.80058 0.4409722,0 0.5291666,0.176389 0.5291666,1.058333 0,0.582084 0.1260892,1.058334 0.2801982,1.058334 0.1541085,0 0.1952445,-0.137459 0.091409,-0.305464 -0.1203792,-0.194785 -0.072192,-0.233406 0.132997,-0.10659 0.344442,0.212877 0.898789,1.369041 1.053872,2.197991 0.02042,0.109141 0.15254,0.01984 0.293604,-0.198437 0.221831,-0.343258 0.257028,-0.337301 0.260532,0.0441 0.0022,0.242535 -0.144776,0.492881 -0.326677,0.556325 -0.181901,0.06344 0.208075,0.09692 0.866613,0.07439 0.658539,-0.02253 1.343148,-0.131073 1.521354,-0.241211 0.391588,-0.242014 0.861101,0.0073 0.83229,0.441907 -0.01506,0.227212 -0.05812,0.222856 -0.15434,-0.01562 -0.0734,-0.181901 -0.237311,-0.330729 -0.36425,-0.330729 -0.126939,0 -0.07465,0.446485 0.116201,0.992188 0.190849,0.545703 0.315082,1.201114 0.276073,1.456468 -0.03901,0.255355 0.03768,0.397156 0.170431,0.315114 0.132746,-0.08204 0.241357,0.155517 0.241357,0.527907 0,0.673209 -0.439704,0.813207 -0.880039,0.280198 -0.129646,-0.156931 -0.170015,-0.103104 -0.09922,0.132292 0.06565,0.218281 0.253307,0.367109 0.417018,0.330729 0.439067,-0.09757 0.361712,0.225554 -0.142208,0.594029 -0.300601,0.219805 -0.374617,0.480345 -0.233779,0.822918 0.13501,0.328401 0.24869,0.38722 0.329621,0.170553 0.06794,-0.181901 0.283927,-0.330729 0.479961,-0.330729 0.51034,0 0.586016,-0.951937 0.220649,-2.775598 -0.37938,-1.893611 -0.262487,-2.230733 0.216556,-0.624547 0.517296,1.734448 0.455219,4.722719 -0.116222,5.594708 -0.708894,1.081735 -0.01932,0.910231 1.532303,-0.381099 1.584264,-1.318494 2.880276,-1.926209 5.312221,-2.490962 2.110784,-0.490173 4.281877,-0.330272 5.158973,0.379957 0.501562,0.40614 0.54582,0.620292 0.378946,1.833606 -0.103917,0.755568 -0.277196,1.428305 -0.385064,1.494971 -0.107868,0.06667 -0.112751,-0.428153 -0.01085,-1.099598 0.307783,-2.028061 0.193198,-2.194425 -1.785471,-2.592299 -1.122616,-0.225738 -4.91772,0.559436 -6.424646,1.329203 -1.607979,0.821386 -3.818616,2.834891 -3.641926,3.317159 0.09548,0.260612 0.23031,0.151364 0.42884,-0.347481 0.159265,-0.400182 0.47485,-0.727604 0.7013,-0.727604 0.22645,0 0.481427,-0.181632 0.566614,-0.403628 0.11405,-0.297208 0.245169,-0.3287 0.497308,-0.119444 0.246587,0.204649 0.397479,0.195098 0.539148,-0.03413 0.133007,-0.21521 0.08455,-0.24898 -0.149617,-0.104259 -0.230896,0.142702 -0.282526,0.110792 -0.15489,-0.09573 0.249098,-0.403049 0.679875,-0.130608 0.69899,0.442071 0.0082,0.246073 0.157042,0.03069 0.33073,-0.478636 0.295296,-0.86593 0.387867,-0.924877 1.426096,-0.908101 0.610666,0.0099 1.050124,-0.07943 0.976573,-0.198438 -0.07355,-0.119007 0.356574,-0.216377 0.955834,-0.216377 0.78461,0 1.042675,0.09257 0.922036,0.330729 -0.09214,0.181901 0.0033,0.12237 0.211991,-0.132292 0.490313,-0.598193 1.292696,-0.6248 1.066509,-0.03537 -0.143411,0.373721 -0.08397,0.38555 0.471324,0.09379 0.619584,-0.325536 0.623856,-0.320805 0.171311,0.189706 -0.375443,0.423532 -0.390305,0.523568 -0.07778,0.523568 0.212485,0 0.325015,-0.09922 0.250068,-0.220486 -0.07495,-0.121267 0.03943,-0.220486 0.254173,-0.220486 0.214743,0 0.44776,0.148828 0.517815,0.330729 0.07006,0.181901 0.114794,0.07109 0.09942,-0.246253 -0.01538,-0.317341 -0.15207,-0.508233 -0.303763,-0.424205 -0.151693,0.08403 -0.128962,-0.0056 0.05051,-0.199129 0.179476,-0.193548 0.385143,-0.293082 0.457038,-0.221187 0.279664,0.279664 0.32712,1.438581 0.072,1.75829 -0.20456,0.256348 -0.154049,0.292772 0.211485,0.152503 0.381032,-0.146216 0.443417,-0.08834 0.302007,0.280166 -0.09802,0.255447 -0.180049,0.544008 -0.182277,0.641247 -0.0022,0.09724 -0.12909,-0.0018 -0.281915,-0.220077 -0.217518,-0.310683 -0.241497,-0.267587 -0.110411,0.198437 0.09621,0.342034 0.05083,0.595312 -0.106655,0.595312 -0.15076,0 -0.205577,0.178594 -0.121814,0.396875 0.08376,0.218282 0.01347,0.396875 -0.156211,0.396875 -0.169678,0 -0.234921,0.119063 -0.144984,0.264584 0.08994,0.145521 0.03743,0.264583 -0.116677,0.264583 -0.154109,0 -0.280198,-0.127567 -0.280198,-0.283482 0,-0.155915 -0.178594,-0.104888 -0.396875,0.113393 -0.456986,0.456985 -0.530257,1.228422 -0.116677,1.228422 0.154109,0 0.205414,0.121005 0.11401,0.2689 -0.0914,0.147894 -0.268798,0.205483 -0.394208,0.127975 -0.12541,-0.07751 -0.314173,-0.0015 -0.419473,0.168857 -0.115258,0.186491 -0.0771,0.239106 0.09587,0.132202 0.187394,-0.115816 0.270629,0.123027 0.239318,0.686723 -0.04555,0.820025 -0.0051,0.860008 0.790192,0.780491 1.851046,-0.185085 5.980506,1.552727 7.341521,3.089551 0.502844,0.567799 0.500582,0.580004 -0.289394,1.561391 -1.757714,2.183606 -4.101575,3.419187 -8.022619,4.229176 -1.583362,0.327082 -2.412123,0.355909 -4.101042,0.142645 -2.232182,-0.281862 -5.703387,-0.261291 -9.985041,0.05917 C 8.0452469,66.7086 7.2573345,66.660864 6.2133612,66.319397 4.7451171,65.839159 2.9298703,65.773601 1.0045434,66.131279 c -1.6764532,0.311444 -5.5674462,0.534327 -6.5845501,0.377175 z"
       id="path28959" />
    <path
       style="fill:#7ca65b"
       d="m -10.314199,49.862163 c -0.08833,-0.230183 -0.160599,-0.817472 -0.160599,-1.305087 0,-1.034726 0.139462,-1.099209 2.7781248,-1.284528 l 1.8520832,-0.130075 -2.1166665,0.316974 -2.1166665,0.316975 0.04284,1.252128 c 0.045342,1.325332 -0.01792,1.514272 -0.279113,0.833613 z"
       id="path28838" />
    <path
       style="fill:#7ca65b"
       d="m 6.5738426,51.914176 c -0.3226897,-0.232361 -0.3905236,-1.104332 -0.08591,-1.104332 0.1293519,0 0.2351852,0.234388 0.2351852,0.520863 0,0.354287 0.1269235,0.472157 0.396875,0.368567 0.4600445,-0.176535 0.540112,-0.88943 0.099895,-0.88943 -0.2030933,0 -0.1911739,-0.127489 0.037703,-0.403269 0.1840759,-0.221798 0.2581857,-0.479767 0.1646885,-0.573264 -0.093497,-0.0935 -0.169995,-0.04224 -0.169995,0.113916 0,0.15615 -0.2182812,0.226828 -0.4850694,0.157061 -0.2667882,-0.06977 -0.4850694,-0.294854 -0.4850694,-0.500195 0,-0.274783 0.090075,-0.298592 0.3411877,-0.09019 0.3654543,0.3033 0.8935344,0.11253 0.8935344,-0.322792 0,-0.145521 -0.1190625,-0.190998 -0.2645833,-0.101062 -0.3345336,0.206753 -0.3472812,-0.207184 -0.016704,-0.542395 0.1363338,-0.138245 0.2941265,-0.787136 0.3506503,-1.44198 0.056524,-0.654843 0.1235718,0.183023 0.1489953,1.861925 0.042054,2.77712 0.00291,3.055812 -0.4337795,3.088707 -0.2640023,0.01989 -0.5914242,-0.04407 -0.7276042,-0.142133 z"
       id="path28836" />
    <path
       style="fill:#7ca65b"
       d="m 2.3659461,54.805227 c -0.097022,-0.30569 -0.3399478,-0.5558 -0.5398346,-0.5558 -0.1998867,0 -0.4495199,-0.139296 -0.5547405,-0.309546 -0.1291613,-0.208988 -0.046293,-0.253898 0.2550907,-0.138246 0.3827736,0.146884 0.4037625,0.09163 0.1472559,-0.387658 -0.2406705,-0.449696 -0.346287,-0.487321 -0.5403168,-0.192482 -0.19987273,0.303717 -0.30142631,0.287889 -0.59303439,-0.09243 -0.19352432,-0.2524 -0.41467793,-0.396093 -0.49145247,-0.319319 -0.07677453,0.07677 -0.20863019,-0.04033 -0.29301258,-0.260222 -0.0843824,-0.219897 -0.0386466,-0.470748 0.10163497,-0.557447 0.32491512,-0.200809 1.08201594,0.537545 0.83371163,0.813067 -0.10221106,0.113415 -0.0370102,0.120563 0.14489086,0.01588 0.18190108,-0.10468 0.33072918,-0.421425 0.33072918,-0.703878 0,-0.282454 0.1148734,-0.513552 0.2552743,-0.513552 0.39354,0 0.8621975,1.046621 0.6904919,1.542029 -0.1250938,0.360923 -0.083487,0.352383 0.226037,-0.04639 0.2086434,-0.268806 0.3119802,-0.685525 0.2296374,-0.926042 -0.107984,-0.315413 -0.035887,-0.290862 0.2586624,0.08808 0.263903,0.339517 0.3716116,0.894942 0.3044547,1.569994 -0.1253474,1.259975 -0.5166734,1.757881 -0.7654796,0.973962 z"
       id="path28835" />
    <path
       style="fill:#7ca65b"
       d="M 5.4141523,57.857997 C 5.2681619,57.474012 5.019679,57.159844 4.8619682,57.159844 c -0.1577108,0 -0.2017928,0.137458 -0.09796,0.305463 0.1091002,0.176528 0.073332,0.234109 -0.08474,0.136415 -0.1504398,-0.09298 -0.336326,-0.409193 -0.4130807,-0.702704 -0.076755,-0.29351 -0.031595,-0.466932 0.1003547,-0.385383 0.3365078,0.207973 0.3000111,-0.246189 -0.047728,-0.593928 -0.2071273,-0.207128 -0.2071273,-0.337395 0,-0.465407 0.1582003,-0.09777 0.287637,-0.0106 0.287637,0.193713 0,0.204316 0.2274169,0.577293 0.5053709,0.828837 0.5123794,0.463697 0.9577551,1.689312 0.7055334,1.941534 -0.075771,0.07577 -0.2572126,-0.176403 -0.4032032,-0.560387 z"
       id="path28834" />
    <path
       style="fill:#7ca65b"
       d="m 11.493979,60.665573 c -0.0046,-0.181901 0.117728,-0.33073 0.271837,-0.33073 0.154109,0 0.219733,-0.09783 0.145832,-0.217408 -0.0739,-0.119574 0.01056,-0.506527 0.18769,-0.859896 0.177131,-0.353368 0.361571,-1.059206 0.409866,-1.568529 0.120071,-1.266244 0.479018,-1.852083 1.134786,-1.852083 0.460894,0 0.497765,-0.06566 0.222877,-0.396875 -0.245451,-0.295751 -0.249728,-0.396875 -0.01678,-0.396875 0.179659,0 0.228096,-0.140649 0.1139,-0.330729 -0.131472,-0.218836 -0.04508,-0.20608 0.255362,0.0377 0.249732,0.202638 0.392683,0.429808 0.317668,0.504823 -0.213223,0.213223 0.410018,0.846536 0.833072,0.846536 0.209051,0 0.312794,-0.108893 0.230538,-0.241985 -0.08225,-0.133092 1.5e-5,-0.302286 0.182823,-0.375987 0.182808,-0.0737 0.03472,-0.152801 -0.329081,-0.175778 -0.422931,-0.02671 -0.520045,-0.09728 -0.269308,-0.195702 0.215683,-0.08466 0.538973,-0.283619 0.718422,-0.442132 0.942523,-0.832562 1.183393,-0.949666 1.953366,-0.949666 0.690799,0 0.783099,-0.06532 0.527486,-0.373319 -0.237244,-0.285861 -0.235256,-0.419408 0.0085,-0.570047 0.19457,-0.120251 0.249314,-0.08509 0.140824,0.09045 -0.09762,0.15795 -0.03845,0.373114 0.131493,0.478142 0.217298,0.134298 0.164319,0.29674 -0.178545,0.547449 -0.26814,0.196068 -0.375474,0.356582 -0.23852,0.356697 0.136954,1.14e-4 -0.24881,0.246625 -0.857252,0.547802 -0.608443,0.301176 -1.298283,0.840658 -1.532978,1.198847 -0.235752,0.359802 -0.558219,0.569982 -0.720558,0.469651 -0.161883,-0.100049 -0.220297,-0.06261 -0.130076,0.08337 0.219361,0.354934 -1.285117,1.77414 -1.644973,1.551737 -0.174024,-0.107553 -0.222359,-0.01677 -0.125484,0.235681 0.08666,0.225839 0.02577,0.410617 -0.135322,0.410617 -0.16109,0 -0.292891,0.171954 -0.292891,0.38212 0,0.472378 -1.302956,1.994932 -1.314555,1.536109 z"
       id="path28831" />
    <path
       style="fill:#7ca65b"
       d="m -14.714818,62.442119 c -0.314538,-0.441728 -0.504976,-0.977509 -0.423196,-1.190625 0.08178,-0.213116 0.03062,-0.387484 -0.113687,-0.387484 -0.144309,0 -0.07489,-0.286138 0.154254,-0.635862 0.437934,-0.668372 3.31127,-2.283657 4.887232,-2.747425 1.1834396,-0.348258 3.0250623,-0.611914 2.8163513,-0.403203 -0.087797,0.0878 -0.7871583,0.257816 -1.5541367,0.37782 -1.3213176,0.206739 -5.7394436,2.165326 -5.7783606,2.56159 -0.01003,0.102092 -0.06148,0.513503 -0.114351,0.914247 -0.06507,0.493214 0.119392,0.984748 0.570916,1.521354 0.366871,0.436001 0.545499,0.792729 0.396951,0.792729 -0.148547,0 -0.527435,-0.361414 -0.841973,-0.803141 z"
       id="path28828" />
    <path
       style="fill:#7ca65b"
       d="m 17.233161,57.672698 c 0.884308,-0.776433 1.517851,-0.900159 0.919878,-0.179645 -0.199583,0.240482 -0.20347,0.46432 -0.01274,0.733998 0.227302,0.321395 0.249397,0.309972 0.128712,-0.06655 -0.08013,-0.250001 -0.02371,-0.529935 0.125371,-0.622075 0.149086,-0.09214 0.207154,-0.334078 0.12904,-0.53764 -0.07811,-0.203562 -0.0267,-0.370112 0.114254,-0.370112 0.140954,0 0.256279,0.119062 0.256279,0.264583 0,0.145521 0.284918,0.264584 0.633151,0.264584 0.730726,0 1.1468,-0.736508 0.546261,-0.966956 -0.307562,-0.118023 -0.329463,-0.237164 -0.09543,-0.519152 0.202929,-0.244513 0.210353,-0.365976 0.02237,-0.365976 -0.15475,0 -0.353168,0.11618 -0.440927,0.258177 -0.08776,0.141997 -0.798094,0.68201 -1.578522,1.200029 -1.391979,0.923943 -2.253829,1.716794 -1.8662,1.716794 0.107747,0 0.611079,-0.364528 1.118515,-0.810062 z"
       id="path28822" />
    <path
       style="fill:#7ca65b"
       d="M 2.7272472,58.548906 C 2.4262612,58.003203 1.9578923,57.327748 1.6864273,57.047895 1.200586,56.547041 1.1933843,56.549114 1.2266713,57.180186 c 0.040961,0.776557 0.4366189,1.354041 0.7816215,1.140818 0.138765,-0.08576 0.2145713,0.06438 0.1684584,0.333642 -0.048394,0.282583 0.055989,0.461606 0.2468875,0.423427 0.1819011,-0.03638 0.3307292,0.05292 0.3307292,0.198437 0,0.145521 0.1170284,0.264583 0.2600632,0.264583 0.1430348,0 0.013802,-0.446484 -0.2871839,-0.992187 z"
       id="path28821" />
    <path
       style="fill:#7ca65b"
       d="m -1.2143819,62.819776 c -0.5093229,-0.222624 -2.1035418,-0.684347 -3.5427086,-1.026051 -1.4391669,-0.341703 -2.7025195,-0.760191 -2.8074504,-0.929973 -0.1346501,-0.217868 -0.2377387,-0.18633 -0.3503735,0.107192 -0.087775,0.228736 -0.074578,0.398411 0.029325,0.377054 0.1039036,-0.02136 0.3675094,0.0281 0.5857906,0.109908 0.2182813,0.08181 1.2760048,0.350581 2.3504968,0.597276 1.074492,0.246694 2.3841794,0.606993 2.9104165,0.800664 1.32344089,0.487064 1.95784266,0.459311 0.8245036,-0.03607 z"
       id="path28820" />
    <path
       style="fill:#7ca65b"
       d="m 23.897541,63.495324 c -0.200929,-0.124181 0.316841,-0.333201 1.308815,-0.52836 2.376733,-0.467594 1.768647,-0.644644 -0.812132,-0.23646 -1.62272,0.256655 -2.020977,0.391972 -1.531524,0.520371 0.363802,0.09544 0.633121,0.307525 0.598487,0.471306 -0.03603,0.170359 0.114991,0.229494 0.352913,0.138195 0.316972,-0.121634 0.336817,-0.208457 0.08344,-0.365052 z"
       id="path28819" />
    <path
       style="fill:#7ca65b"
       d="m -6.8116263,66.302567 c -2.3212934,-0.405533 -3.8319217,-0.858913 -4.5819387,-1.375163 -0.456674,-0.314336 -0.46494,-0.359227 -0.06615,-0.359227 0.25066,0 0.455746,0.100216 0.455746,0.222703 0,0.58408 6.3721733,1.754399 7.9024742,1.451375 0.528587,-0.104669 1.1883223,-0.156282 1.4660785,-0.114698 1.00235034,0.15007 2.7140858,-0.248242 2.7140858,-0.631552 0,-0.532212 -0.60978664,-0.700568 -0.96914251,-0.267571 -0.20260276,0.244122 -0.65297688,0.321949 -1.36583549,0.236025 -0.6536936,-0.07879 -1.2329097,0.0042 -1.5030059,0.215365 -0.3879439,0.303296 -0.3991797,0.292056 -0.09587,-0.09591 0.4551959,-0.582236 -0.070451,-0.929675 -0.6705393,-0.443208 -0.2398406,0.194429 -0.3577511,0.222623 -0.2620233,0.06265 0.096708,-0.161606 -0.1452623,-0.455351 -0.5445235,-0.661036 -0.3952157,-0.203601 -0.8060477,-0.489436 -0.91296,-0.635189 -0.1189312,-0.162138 -0.1959587,-0.130565 -0.1984375,0.08134 -0.00223,0.190489 -0.123114,0.272759 -0.2686348,0.182823 -0.1455209,-0.08994 -0.2645834,-0.02469 -0.2645834,0.144984 0,0.169678 0.1785938,0.239973 0.396875,0.15621 0.2182813,-0.08376 0.396875,-0.02949 0.396875,0.120616 0,0.150101 -0.2198341,0.235668 -0.4885203,0.190149 -0.2686862,-0.04552 -0.6655612,0.06417 -0.8819444,0.243751 -0.3181202,0.264017 -0.3934241,0.251353 -0.3934241,-0.06616 0,-0.215971 0.1825625,-0.392674 0.4056944,-0.392674 0.3155401,0 0.3351389,-0.07056 0.088195,-0.3175 -0.2469445,-0.246945 -0.3880556,-0.246945 -0.635,0 -0.174625,0.174625 -0.4904989,0.3175 -0.7019421,0.3175 -0.2649556,0 -0.2005294,-0.159507 0.2072881,-0.513205 0.4694732,-0.407172 0.5341652,-0.612168 0.3131128,-0.992188 -0.1791397,-0.307966 -0.2814901,-0.350792 -0.2866631,-0.119946 -0.00443,0.19747 -0.172131,0.296071 -0.3726798,0.219114 -0.2005488,-0.07696 -0.4982051,-0.0064 -0.6614583,0.1569 -0.2193767,0.219377 -0.3831182,0.203822 -0.6275533,-0.05962 -0.2685423,-0.28942 -0.2519592,-0.328988 0.088194,-0.210434 0.256497,0.0894 0.4189236,-0.0025 0.4189236,-0.237028 0,-0.225243 -0.1574534,-0.322615 -0.3822114,-0.236367 -0.2964576,0.113761 -0.343547,-0.0074 -0.2098811,-0.53995 0.1204045,-0.47973 0.081458,-0.630456 -0.1292551,-0.500229 -0.2254923,0.139362 -0.2258192,0.04482 -0.0013,-0.374705 0.1651592,-0.308603 0.4151628,-0.561096 0.5555637,-0.561096 0.1404008,0 0.2552743,-0.238125 0.2552743,-0.529167 0,-0.291042 0.1318008,-0.529167 0.2928907,-0.529167 0.1610899,0 0.2341484,0.153081 0.162352,0.340179 -0.077074,0.200852 0.067876,0.340179 0.3539105,0.340179 0.3460496,0 0.4093788,-0.09045 0.2216753,-0.316624 -0.1764647,-0.212627 -0.1640797,-0.377619 0.037707,-0.502331 0.1652646,-0.102139 0.2440534,-0.401487 0.1750862,-0.665218 -0.074997,-0.286789 -0.00451,-0.434286 0.1753875,-0.366988 0.6571894,0.245855 2.039618,0.295709 2.1739234,0.0784 0.078355,-0.126781 -0.013391,-0.242379 -0.2038804,-0.256885 -0.1904892,-0.0145 -0.048688,-0.1217 0.3151142,-0.238209 0.6498279,-0.208112 0.6475018,-0.212371 -0.1322916,-0.242262 -0.4365625,-0.01673 -0.9723437,-0.157992 -1.190625,-0.313908 -0.3188492,-0.227751 -0.2798364,-0.257833 0.1984375,-0.153011 0.3970133,0.08701 0.5953125,0.0065 0.5953125,-0.241631 0,-0.204658 -0.1099274,-0.372105 -0.2442831,-0.372105 -0.3803433,0 -1.8026943,-1.274905 -2.4585289,-2.203668 -0.3996176,-0.565921 -0.1542358,-0.402946 0.7538285,0.500667 1.1263344,1.120815 1.7521885,1.482995 3.830457,2.216675 1.3662832,0.482332 2.59726063,0.980792 2.73550541,1.107688 0.37640713,0.345509 1.00231048,0.282191 0.77919049,-0.07883 -0.12623946,-0.20426 -0.05035562,-0.255457 0.22310124,-0.150522 0.63676635,0.24435 0.78997924,-0.110068 0.22012742,-0.509208 -0.27897943,-0.195405 -0.64464304,-0.771631 -0.81258581,-1.280503 -0.16794277,-0.508871 -0.39533569,-0.925221 -0.5053176,-0.925221 -0.41189995,0 -0.53795615,0.360475 -0.24816275,0.709654 0.1649951,0.198807 0.22349339,0.437965 0.1299962,0.531462 -0.093497,0.0935 -0.169995,0.0269 -0.169995,-0.147994 0,-0.224477 -0.1403546,-0.242874 -0.4772771,-0.06256 -0.5364346,0.287091 -1.3667677,-0.04703 -0.8738871,-0.351646 0.161057,-0.09954 0.2928309,-0.05863 0.2928309,0.09092 0,0.149541 0.2023394,0.194249 0.4496431,0.09935 0.281244,-0.107924 0.3307895,-0.212162 0.1322916,-0.278328 -0.1745432,-0.05818 -0.3173514,-0.221952 -0.3173514,-0.363934 0,-0.141982 0.1108355,-0.189649 0.2463011,-0.105927 0.1354656,0.08372 0.321086,0.03122 0.4124899,-0.116677 0.091404,-0.147894 0.033073,-0.268899 -0.1296243,-0.268899 -0.1626973,0 -0.2229611,-0.117877 -0.1339197,-0.261949 0.1726905,-0.279419 0.4406466,-0.110956 1.74904181,1.099616 0.41930604,0.387956 0.81979727,0.612463 0.88998049,0.498904 C 1.0963119,56.266179 0.54930625,55.663606 -0.18943973,55.040686 -1.2727266,54.127245 -1.5834477,53.97952 -1.795336,54.277198 c -0.2055691,0.288801 -0.2301397,0.267898 -0.112947,-0.09609 0.1138854,-0.353712 -0.130507,-0.596928 -1.0199054,-1.014994 -1.4704532,-0.691195 -1.9632729,-1.223427 -1.3505449,-1.458553 0.2391604,-0.09177 0.7709877,-0.09963 1.1818383,-0.01746 0.4239896,0.0848 0.8848728,0.01259 1.065845,-0.166998 0.247809,-0.245907 0.2861779,-0.227978 0.1722212,0.08048 -0.099115,0.268283 0.3458771,0.738233 1.37338698,1.450414 0.8360053,0.579447 1.94879022,1.44051 2.47285532,1.913474 0.5240651,0.472964 1.0491694,0.772777 1.1668985,0.666252 0.1177291,-0.106525 0.1278417,-0.04394 0.022473,0.139077 -0.1055677,0.183362 0.00316,0.527499 0.2421747,0.766513 0.4878175,0.487818 2.4900818,3.508989 3.1291877,4.721561 0.2300975,0.436563 0.423126,0.611883 0.4289523,0.389601 C 6.982934,61.428203 6.825145,61.011485 6.6264654,60.724444 6.1348479,60.014184 5.797122,58.898965 6.1373209,59.109219 6.6097146,59.401175 6.0241472,57.490129 4.9885986,55.360272 3.8666044,53.05262 2.8239968,51.529331 2.5025181,51.728016 2.3829708,51.8019 2.1380278,51.685068 1.9582002,51.468389 1.7783726,51.25171 1.7041855,51.074427 1.7933398,51.074427 c 0.3808592,0 -0.84938843,-1.153427 -1.8832426,-1.765647 -1.3899298,-0.823078 -1.4791882,-1.075634 -0.13229166,-0.374319 1.24205026,0.646723 2.50790536,1.828007 2.30708176,2.152947 -0.083464,0.135047 0.033024,0.174635 0.2588637,0.08797 0.4960107,-0.190337 0.5278832,-0.655331 0.079888,-1.165496 -0.181901,-0.207144 -0.065646,-0.155513 0.2583441,0.114736 0.3239903,0.270248 0.5226566,0.598825 0.4414807,0.730171 -0.081176,0.131345 0.3383504,0.724753 0.9322808,1.318683 0.5939304,0.593931 1.0798735,0.970616 1.0798735,0.83708 0,-0.133537 -0.1488282,-0.409693 -0.3307292,-0.61368 -0.282515,-0.316817 -0.2614739,-0.318352 0.1443326,-0.01053 0.2612839,0.198198 0.4107383,0.527983 0.3321208,0.732857 -0.078618,0.204874 0.2383073,0.954861 0.7042774,1.666639 0.9479331,1.447984 1.2769884,1.567418 0.5944883,0.215775 -0.2738525,-0.542345 -0.3121033,-0.75655 -0.098884,-0.553754 0.1912502,0.181901 0.4727433,0.328906 0.6255402,0.326677 0.1527969,-0.0022 0.099219,-0.121291 -0.1190625,-0.264583 C 6.6601636,54.294944 6.6531556,54.209219 6.9475884,54.019285 7.3725895,53.745124 7.2520009,52.808299 6.78564,52.761146 6.0998578,52.691808 6.0836195,52.602854 6.7231177,52.418648 c 0.8228949,-0.237034 1.0646791,0.09235 0.7846109,1.068895 -0.1233111,0.429961 -0.112527,0.818982 0.025061,0.904016 0.1328357,0.0821 0.186717,0.530187 0.1197362,0.995755 -0.066981,0.465568 -0.01803,1.263207 0.1087797,1.77253 0.1535198,0.616602 0.2396128,-1.074261 0.257646,-5.060156 0.028815,-6.368999 0.147303,-7.639844 0.7123054,-7.639844 0.7529594,0 0.9022777,1.088191 0.9022777,6.57555 0,3.053602 0.069502,5.733122 0.1544484,5.95449 0.1196651,0.311842 0.336148,0.195541 0.961252,-0.516414 0.443742,-0.505394 0.747556,-0.978147 0.675142,-1.050561 -0.07241,-0.07241 -0.345714,0.19502 -0.607331,0.594299 -0.440411,0.672151 -0.489042,0.687837 -0.65609,0.211621 -0.3328262,-0.948817 -0.3223403,-3.634906 0.01338,-3.427419 0.228349,0.141127 0.232326,0.05178 0.01571,-0.35297 -0.3487641,-0.651672 -0.145133,-1.300761 0.458202,-1.46055 0.366944,-0.09718 0.357773,-0.121787 -0.05492,-0.147354 -0.424597,-0.02631 -0.444936,-0.09152 -0.142279,-0.456198 0.297045,-0.357918 0.28801,-0.473492 -0.05688,-0.727604 -0.415617,-0.30622 -0.593275,-1.319462 -0.187363,-1.068595 0.121267,0.07495 0.220486,0.314862 0.220486,0.533143 0,0.242618 0.128547,0.3229 0.330729,0.206549 0.181901,-0.104679 0.241173,-0.0916 0.131715,0.02906 -0.109458,0.120662 0.0029,0.442531 0.249749,0.715264 0.42511,0.469742 0.421655,0.486253 -0.06557,0.313259 -0.406414,-0.144301 -0.449276,-0.112168 -0.204279,0.153146 0.170529,0.184671 0.239156,0.520521 0.152504,0.746334 -0.115796,0.301759 -0.0402,0.365535 0.285259,0.240646 0.268985,-0.103219 0.442809,-0.03965 0.442809,0.161953 0,0.182531 -0.229384,0.331875 -0.509741,0.331875 -0.280358,0 -0.451925,-0.09355 -0.381261,-0.207887 0.07066,-0.114338 -0.0534,-0.207887 -0.275704,-0.207887 -0.257203,0 -0.346682,0.149854 -0.246056,0.412081 0.08697,0.226644 0.317547,0.350906 0.512389,0.276138 0.194843,-0.07477 0.428204,-0.0163 0.51858,0.129934 0.108159,0.175005 0.283862,0.166664 0.514084,-0.0244 0.253817,-0.21065 0.398979,-0.21065 0.529167,0 0.127661,0.206559 0.292831,0.196141 0.572692,-0.03612 0.219091,-0.181829 0.127162,0.124652 -0.207548,0.691943 -0.330461,0.56009 -0.64836,0.87578 -0.706443,0.701534 -0.05808,-0.174247 0.0305,-0.480803 0.196841,-0.681236 0.181812,-0.21907 0.202847,-0.425979 0.05274,-0.518752 -0.298953,-0.184763 -0.569738,0.438413 -0.569738,1.311178 0,0.9704 0.572874,0.562339 1.704698,-1.214263 0.552633,-0.867459 1.094646,-1.577198 1.204472,-1.577198 0.242467,0 0.590169,-1.381087 0.666113,-2.645833 0.03058,-0.509323 -0.101646,-1.575817 -0.293844,-2.369987 -0.192199,-0.79417 -0.302599,-1.490797 -0.245335,-1.548061 0.266045,-0.266045 0.778035,2.393865 0.788199,4.094875 0.0094,1.564985 -0.09312,2.037905 -0.586056,2.70463 -0.503544,0.68108 -0.524262,0.782841 -0.131881,0.647787 0.25603,-0.08812 0.941759,-0.522103 1.523842,-0.964398 0.699116,-0.531223 0.363584,-0.08181 -0.988552,1.324078 -1.944469,2.021765 -3.368334,4.320624 -3.374488,5.448179 -0.0014,0.260458 -0.23077,0.92084 -0.509662,1.467514 -0.278893,0.546675 -0.589052,1.464666 -0.689243,2.039981 l -0.182166,1.046026 0.623097,-0.665277 c 0.342704,-0.365902 1.205574,-1.377933 1.917489,-2.248958 1.68606,-2.062886 4.330677,-4.626389 4.772776,-4.626389 0.191251,0 0.858662,-0.554297 1.483135,-1.23177 1.131406,-1.227431 2.215036,-1.674454 2.467049,-1.017717 0.149968,0.39081 -0.04527,0.663943 -0.470303,0.657935 -0.157648,-0.0022 -0.108039,-0.119467 0.110243,-0.260532 0.326263,-0.210847 0.299111,-0.257201 -0.152614,-0.260531 -0.46497,-0.0034 -0.530908,0.122546 -0.428689,0.819011 0.07681,0.523355 -0.01213,0.907257 -0.244261,1.054281 -0.23427,0.14838 -0.253341,0.232671 -0.05323,0.235271 0.171507,0.0022 0.498929,-0.183046 0.727604,-0.411722 0.377976,-0.377976 0.415774,-0.36595 0.415774,0.132292 0,0.301436 0.119062,0.548065 0.264583,0.548065 0.145521,0 0.264584,0.260881 0.264584,0.579736 0,0.568238 -0.0082,0.56955 -0.411472,0.06615 -0.395126,-0.49319 -0.400011,-0.489943 -0.122982,0.08172 0.158668,0.327422 0.220579,0.595313 0.137579,0.595313 -0.083,0 -0.03226,0.221695 0.112752,0.492657 0.207629,0.387959 0.125265,0.622673 -0.387566,1.104453 -0.358175,0.336489 -0.651228,0.523007 -0.651228,0.414486 0,-0.108521 -0.178594,-0.01872 -0.396875,0.199564 -0.218281,0.218281 -0.396875,0.520253 -0.396875,0.671048 0,0.150796 -0.267574,0.417374 -0.594608,0.592398 -0.373894,0.200102 -0.470463,0.359606 -0.260158,0.429707 0.403588,0.13453 1.865031,-1.049712 3.778375,-3.061706 0.874441,-0.919527 1.037259,-0.939088 1.159031,-0.139247 0.05919,0.388791 0.2668,0.469973 1.027282,0.401705 0.524204,-0.04706 1.166497,0.04742 1.427317,0.209946 0.39047,0.243317 0.328355,0.267714 -0.351718,0.138141 -1.249184,-0.238004 -2.266401,0.09033 -2.081799,0.671959 0.08313,0.261904 0.01452,0.560623 -0.152457,0.66382 -0.225429,0.139322 -0.220918,0.238727 0.01752,0.38609 0.333038,0.205828 0.129856,1.87947 -0.21806,1.796194 -0.402624,-0.09637 -3.117783,0.39784 -3.486141,0.634544 -0.330356,0.212284 -0.321398,0.231716 0.05345,0.115936 0.247678,-0.0765 1.735959,-0.29385 3.307291,-0.482998 2.053068,-0.247137 2.54056,-0.366799 1.732489,-0.425265 -0.618463,-0.04475 -1.124479,-0.200602 -1.124479,-0.346344 0,-0.145742 0.119063,-0.1914 0.264583,-0.101464 0.145521,0.08994 0.264584,0.04797 0.264584,-0.09327 0,-0.141233 0.208359,-0.226084 0.463021,-0.188559 0.254661,0.03753 0.621568,-0.121837 0.815349,-0.35414 0.304354,-0.364857 0.335392,-0.366847 0.227948,-0.01461 -0.08548,0.280241 0.07324,0.424111 0.507568,0.460057 0.347571,0.02877 0.631947,-0.03991 0.631947,-0.152622 0,-0.332941 0.945823,-0.233818 1.290589,0.135256 0.174776,0.187098 0.219354,0.340178 0.09906,0.340178 -0.120291,0 -0.237416,0.248319 -0.260278,0.551819 -0.02872,0.381286 0.07653,0.506501 0.34057,0.405179 0.210176,-0.08065 0.382138,-0.03131 0.382138,0.109639 0,0.140954 -0.198437,0.25628 -0.440972,0.25628 -0.242535,0 -0.365786,0.07519 -0.273892,0.16708 0.249331,0.249331 -0.32971,1.19557 -0.621327,1.01534 -0.13822,-0.08542 -0.251309,0.03733 -0.251309,0.272788 0,0.235458 -0.110835,0.359605 -0.246301,0.275882 -0.135465,-0.08372 -0.328942,-0.01851 -0.429948,0.144925 -0.130179,0.210634 -0.251282,0.192633 -0.415958,-0.06183 -0.16186,-0.250114 -0.212008,-0.158383 -0.165364,0.302481 0.04192,0.414213 -0.05665,0.636744 -0.263705,0.595339 -0.522035,-0.104391 -2.622286,-0.108313 -5.43786,-0.01015 -2.664933,0.09291 -3.573168,-0.09357 -2.830447,-0.581133 0.239513,-0.15723 0.271931,-0.262139 0.08176,-0.264584 -0.173313,-0.0022 -0.383037,0.105851 -0.466055,0.240176 -0.08302,0.134325 -0.506763,0.322379 -0.941656,0.417898 -0.819889,0.180077 -1.089869,0.572597 -0.393841,0.572597 0.218281,0 0.396875,-0.09922 0.396875,-0.220486 0,-0.311747 0.993441,-0.274953 1.190625,0.0441 0.08994,0.145521 -0.0746,0.264583 -0.365645,0.264583 -0.291042,0 -0.593316,0.103795 -0.67172,0.230656 -0.275417,0.445634 4.467797,0.860036 6.391331,0.558393 2.475607,-0.388218 4.850935,-1.074321 4.679529,-1.351662 -0.07857,-0.127125 0.08569,-0.231136 0.365009,-0.231136 0.279323,0 0.911428,-0.273029 1.404678,-0.60673 1.524107,-1.031115 1.736599,-1.124334 1.221728,-0.535967 -0.697611,0.797192 -2.718033,1.812079 -4.955119,2.489028 -2.166913,0.655714 -4.722209,0.78983 -7.805208,0.409659 -2.278526,-0.280969 -4.790739,-0.237275 -5.980771,0.104022 -1.318196,0.378053 -4.9725638,0.290768 -6.1900612,-0.147851 -1.2154917,-0.437896 -3.1892026,-0.496071 -5.057116,-0.149059 -2.4768017,0.460129 -5.751986,0.531903 -7.8161697,0.171288 z"
       id="path28818" />
    <path
       style="fill:#6d944d"
       d="m 20.871311,59.488062 c 0.578225,-0.480156 1.399448,-1.208825 1.824941,-1.619266 0.592976,-0.571999 0.824043,-0.664672 0.989551,-0.396875 0.118761,0.19216 0.279803,0.319615 0.357872,0.283235 0.392629,-0.182967 0.115532,0.367626 -0.299603,0.595313 -0.265324,0.14552 -0.906677,0.584043 -1.425229,0.974494 -0.518552,0.390451 -1.292928,0.783306 -1.720836,0.87301 -0.771611,0.161756 -0.769361,0.155913 0.273304,-0.709911 z"
       id="path28689" />
    <path
       style="fill:#6d944d"
       d="M 6.2297201,66.292791 C 5.7400702,66.071857 4.5494453,65.870068 3.5838869,65.844371 L 1.8283263,65.797649 3.6804095,65.62651 c 1.0186458,-0.09413 1.6139583,-0.206264 1.3229166,-0.249194 -0.2910416,-0.04293 -0.6373181,-0.05767 -0.7695033,-0.03275 -0.1321852,0.02491 -0.310779,-0.06469 -0.396875,-0.199125 -0.5054006,-0.789149 -5.9940599,-2.929585 -9.0200795,-3.5176 -0.9458854,-0.183804 -1.8673088,-0.444348 -2.0476075,-0.578987 -0.5703657,-0.425922 -0.080156,-0.714221 1.2033266,-0.707694 1.3701132,0.007 2.1138119,0.172716 5.1474115,1.147197 1.1297948,0.362923 1.9915975,0.558612 1.915117,0.434864 C 0.9586354,61.799473 0.30214847,61.500959 -0.42374402,61.259856 -1.7849347,60.807741 -2.2551179,60.41367 -1.0820902,60.708081 c 1.06367789,0.266966 0.76879876,-0.211348 -0.79375,-1.287516 -0.8003645,-0.551232 -1.4552083,-1.153106 -1.4552083,-1.337497 0,-0.184391 -0.1488281,-0.329729 -0.3307291,-0.322974 -1.0513325,0.03905 -1.5213541,-0.112024 -1.5213541,-0.488976 0,-0.332123 0.1764958,-0.380838 0.8598958,-0.237339 1.6683079,0.350308 4.31499152,1.528086 5.6223955,2.501974 0.7276042,0.541994 1.5015104,1.060895 1.7197916,1.153114 0.2182812,0.09222 0.652654,0.354428 0.9652728,0.582686 0.4589996,0.335137 0.3608676,0.01896 -0.5098623,-1.64273 -1.2508744,-2.387159 -4.01357419,-5.292926 -5.9794765,-6.289124 -1.5301291,-0.775375 -2.0775423,-1.340735 -1.5093054,-1.558788 2.0323178,-0.779874 7.7296444,4.28214 10.223089,9.083104 0.4625911,0.890689 0.6448545,1.066903 0.7235122,0.6995 0.05783,-0.270118 -0.025083,-0.621353 -0.1842506,-0.780521 -0.3573636,-0.357363 -0.3833162,-0.802005 -0.034218,-0.58625 0.140348,0.08674 0.080817,-0.259597 -0.1322917,-0.769637 -0.2131084,-0.51004 -0.3874698,-1.124027 -0.3874698,-1.364416 0,-0.677551 -2.310609,-5.297272 -3.0468094,-6.091646 -0.7762112,-0.837546 -0.8256544,-1.006508 -0.1943362,-0.664108 0.7182397,0.389544 1.7701136,1.607437 2.8154632,3.259833 0.5246875,0.82938 1.1370033,1.61039 1.3607019,1.735578 0.2236986,0.125188 0.5113172,0.577698 0.6391525,1.005578 0.1790418,0.599275 0.2378373,0.261404 0.2559787,-1.470994 C 8.0370545,54.6 8.12556,51.534141 8.2207805,49.023907 c 0.1370104,-3.611914 0.2490143,-4.564063 0.5368836,-4.564063 0.6758754,0 0.8223028,1.173144 0.8580979,6.874894 0.019627,3.126348 0.1362664,5.78485 0.2591989,5.907782 0.1229325,0.122933 0.5653861,-0.271696 0.9832311,-0.876953 1.463806,-2.120355 2.791245,-3.744681 2.939273,-3.596654 0.08215,0.08216 0.306186,-0.05714 0.497847,-0.309536 0.235274,-0.309832 0.351209,-0.345736 0.356891,-0.110525 0.0046,0.19161 -0.279852,0.727391 -0.632178,1.190624 -0.901807,1.185684 -2.005241,3.458937 -2.005241,4.131122 0,0.311408 -0.177494,0.837087 -0.394431,1.168174 -0.401897,0.613373 -1.185012,2.946911 -1.190205,3.546592 -0.0062,0.713234 0.55538,0.258876 1.622868,-1.31307 1.450452,-2.135885 5.053156,-5.88196 6.056561,-6.297584 0.431405,-0.178694 0.784373,-0.419805 0.784373,-0.535803 0,-0.211437 1.635386,-1.312397 1.949459,-1.312397 0.09196,0 0.159972,0.327422 0.151129,0.727605 -0.01641,0.742402 -0.216913,0.937695 -3.588534,3.495226 -0.880558,0.667943 -1.570028,1.475867 -1.967354,2.305352 -0.806179,1.683034 -1.451253,2.611247 -2.831397,4.074168 -0.780441,0.827251 -1.087336,1.350002 -0.970817,1.653646 0.220806,0.575412 0.455744,0.560217 1.022588,-0.06614 0.253919,-0.280577 1.659513,-1.015593 3.123542,-1.63337 1.46403,-0.617776 3.180761,-1.519307 3.814959,-2.003401 1.328674,-1.014199 2.145789,-1.198894 1.626691,-0.367686 -0.176029,0.281866 -0.563991,0.641334 -0.862138,0.798817 -0.472723,0.249695 -0.440521,0.269062 0.251664,0.151359 0.436562,-0.07424 2.030348,-0.214436 3.541746,-0.311556 2.29966,-0.147772 2.72795,-0.115786 2.625127,0.196053 -0.07997,0.242538 -0.873754,0.480201 -2.273637,0.680741 -1.182923,0.169458 -2.264696,0.378517 -2.40394,0.464575 -0.139245,0.08606 -1.067081,0.323785 -2.061859,0.528283 -1.947907,0.400435 -3.912421,1.027471 -5.360528,1.71098 l -0.906008,0.427637 0.773716,0.152734 c 0.618604,0.122114 0.455458,0.187514 -0.813783,0.326223 -4.044719,0.442026 -6.6055557,0.460805 -7.5048559,0.05503 z"
       id="path28680" />
    <path
       style="fill:#4e763d"
       d="M 6.4520472,56.586543 C 6.0918131,55.958778 5.7087863,55.227996 5.6008766,54.962583 5.485943,54.679895 5.2755358,54.559828 5.0928928,54.672708 4.8870672,54.799915 4.8343976,54.726532 4.9379123,54.456777 5.0302017,54.216274 4.7809791,53.681339 4.3321698,53.156603 3.9127693,52.66625 3.5647848,52.171612 3.5588707,52.057408 c -0.020472,-0.395331 1.4966938,1.536176 2.2413587,2.853477 0.4113114,0.727605 0.9185059,1.524387 1.1270988,1.770628 0.208593,0.246241 0.3343567,0.582421 0.279475,0.747066 -0.054882,0.164645 -0.3945219,-0.214271 -0.754756,-0.842036 z"
       id="path28556" />
    <path
       style="fill:#4e763d"
       d="m 4.242404,58.501283 c -0.9314957,-1.509142 -4.23077043,-4.793329 -4.79165469,-4.769741 -0.14754093,0.0062 0.26752499,0.482132 0.9223687,1.057617 0.65484369,0.575485 1.04903819,1.046659 0.87598759,1.047052 -0.1730505,3.94e-4 -0.86848777,-0.478638 -1.54541614,-1.064515 -0.67692838,-0.585878 -1.67440026,-1.291551 -2.21660426,-1.568163 -0.5422039,-0.276611 -1.1564541,-0.708902 -1.3650003,-0.960645 -0.3518989,-0.424788 -0.3046004,-0.443749 0.6575154,-0.263583 2.1122957,0.39555 5.8334164,3.442503 7.7049332,6.309007 0.5477362,0.838938 0.9363419,1.584885 0.8635682,1.657659 -0.072774,0.07277 -0.5703378,-0.577336 -1.1056977,-1.444688 z"
       id="path28554" />
    <path
       style="fill:#4e763d"
       d="M 0.49782029,60.855624 C 0.23025706,60.55997 -0.6216336,59.955919 -1.3952701,59.513289 c -0.7736364,-0.44263 -1.4066117,-0.852598 -1.4066117,-0.91104 0,-0.05844 0.3869531,-0.04767 0.8598958,0.02395 0.8562322,0.129653 0.8553868,0.128018 -0.1984375,-0.383867 -0.5820833,-0.282742 -0.8797396,-0.522812 -0.6614583,-0.53349 0.6437099,-0.03149 3.49593788,1.466809 4.4979164,2.36279 0.6692519,0.598452 0.7331382,0.710442 0.2303884,0.403858 -0.6395682,-0.390017 -0.708964,-0.389531 -0.8607542,0.006 -0.0908055,0.236635 -0.0981567,0.538564 -0.016336,0.670953 0.2630384,0.425605 -0.0503595,0.256922 -0.55151251,-0.296846 z"
       id="path28552" />
    <path
       style="fill:#4e763d"
       d="M 5.3925387,63.784761 C 5.9077867,63.458908 5.5550753,63.140119 4.6626502,63.12507 4.0631477,63.114961 3.9531224,63.004066 3.9943707,62.45151 4.0215286,62.087708 3.9818411,61.93888 3.9061763,62.120781 3.8305115,62.302682 3.5701665,62.44211 3.3276317,62.430622 3.0637094,62.41812 3.0166962,62.35707 3.2105377,62.278565 3.4513923,62.181021 3.4209124,61.974169 3.0916343,61.471627 l -0.4427814,-0.67577 0.8579783,0.443678 c 0.4718881,0.244023 0.9866969,0.726184 1.1440195,1.07147 0.1573243,0.345289 0.4406841,0.56845 0.629696,0.495919 0.1890101,-0.07253 0.4718484,0.10766 0.6285295,0.400421 0.3982877,0.744207 0.3652771,0.832212 -0.3104376,0.827613 -0.4702471,-0.0032 -0.5135453,-0.05576 -0.2060999,-0.250197 z"
       id="path28550" />
    <path
       style="fill:#4e763d"
       d="m 7.7037245,64.034942 c -0.099352,-0.379922 -0.2741311,-0.478224 -0.625393,-0.351743 -0.268128,0.09655 -0.4032717,0.08226 -0.3003193,-0.03175 0.1029523,-0.114011 -0.075641,-0.430872 -0.396875,-0.704134 -0.4326026,-0.368001 -0.4639907,-0.45506 -0.1210403,-0.335722 0.2546614,0.08862 0.4630208,0.03305 0.4630208,-0.123468 0,-0.156522 0.1606036,-0.222957 0.356897,-0.147632 0.284835,0.109301 0.3173152,-0.119422 0.1608627,-1.132783 -0.2026435,-1.312546 -0.125304,-1.801571 0.165195,-1.044543 0.091434,0.238273 0.2805865,0.362557 0.4203385,0.276185 0.1443756,-0.08923 0.046718,-0.393831 -0.2261618,-0.705419 -0.2662441,-0.30401 -0.314304,-0.450724 -0.1078492,-0.329234 0.2865896,0.168645 0.3380257,0.08767 0.2232077,-0.351395 -0.1578379,-0.603573 0.1917277,-0.802628 0.4211385,-0.239811 0.074145,0.181901 0.1184655,-1.157552 0.09849,-2.976562 -0.084635,-7.707035 0.055304,-11.112499 0.4566417,-11.112499 0.209693,0 0.4387345,0.09299 0.508981,0.206656 0.070246,0.113662 0.1951376,2.989807 0.2775359,6.391435 0.082398,3.401628 0.2056509,6.240614 0.2738949,6.308858 0.1462046,0.146204 1.4035984,-1.300235 2.0608234,-2.370663 0.252883,-0.411873 0.595188,-0.718609 0.760677,-0.681636 0.165489,0.03697 0.360984,-0.09818 0.434433,-0.300334 0.09223,-0.253854 0.02062,-0.301171 -0.23151,-0.152957 -0.20078,0.11803 -0.140782,-0.04118 0.133328,-0.353807 0.64735,-0.738308 1.109706,-0.456744 0.579289,0.352775 -0.873342,1.332889 -1.474807,2.542431 -1.480357,2.97699 -0.0032,0.250236 -0.252405,0.990755 -0.553799,1.645599 -0.627639,1.363683 -1.275642,3.660715 -1.328505,4.709262 -0.03446,0.683579 -0.04127,0.686909 -0.1563139,0.07649 C 9.8784124,63.045263 9.7959889,62.982403 9.620529,63.266303 9.4377186,63.562096 9.3241027,63.570828 9.0624683,63.309194 8.4839965,62.730722 7.9715305,62.913639 8.1119985,63.64845 8.264637,64.446927 7.9013854,64.790799 7.7037245,64.034942 Z"
       id="path28549" />
    <path
       style="fill:#4e763d"
       d="m 16.85718,56.798767 c 0.101578,0.101578 0.194087,-0.04351 0.205575,-0.32243 0.01149,-0.278915 0.07715,-0.369659 0.14592,-0.201652 0.07972,0.19477 0.371855,0.07672 0.806148,-0.325772 0.374614,-0.347181 0.755435,-0.586205 0.846268,-0.531165 0.09083,0.05504 0.399882,-0.21508 0.686776,-0.600269 l 0.521624,-0.700344 -0.653916,0.467058 c -0.359654,0.256882 -0.951573,0.606765 -1.315375,0.777518 -0.969649,0.455111 -2.11808,1.570179 -2.107291,2.046071 0.0064,0.281018 0.116752,0.220108 0.34448,-0.190091 0.184307,-0.331986 0.418213,-0.520502 0.519791,-0.418924 z"
       id="path28548" />
    <path
       style="fill:#4e763d"
       d="m 11.0974,64.568177 c 0.13339,-0.218282 0.282202,-0.685835 0.330694,-1.039007 0.04849,-0.353172 0.342812,-0.999749 0.654046,-1.436836 0.311234,-0.437088 0.411524,-0.699308 0.222865,-0.582711 -0.279135,0.172515 -0.281271,0.09518 -0.01147,-0.415246 1.031343,-1.951175 4.867652,-6.0512 5.661983,-6.0512 0.179989,0 0.553784,-0.250314 0.830656,-0.556254 0.422582,-0.466949 1.716413,-1.295829 2.022709,-1.295829 0.04902,0 0.107063,0.238125 0.128987,0.529166 0.02192,0.291042 -0.07883,0.529167 -0.223894,0.529167 -0.145065,0 -0.19017,-0.119062 -0.100233,-0.264583 0.08994,-0.145521 0.03743,-0.264584 -0.116677,-0.264584 -0.154109,0 -0.281012,0.267891 -0.282006,0.595313 -0.0012,0.393276 -0.337922,0.818127 -0.992187,1.251848 -2.273598,1.507199 -3.455565,2.703589 -4.139212,4.189726 -0.642968,1.397703 -2.006251,3.354184 -2.009228,2.883492 -0.0016,-0.250862 0.787913,-1.508361 1.251628,-1.993568 0.18357,-0.192077 0.407637,-0.668327 0.497928,-1.058333 0.09029,-0.390007 0.33134,-0.976993 0.535664,-1.304415 0.611711,-0.980247 0.09599,-0.676825 -1.124263,0.661458 -0.769692,0.844139 -1.098017,1.412919 -0.999992,1.732358 0.08715,0.284011 -0.1352,0.844181 -0.551989,1.39062 -0.383861,0.503267 -0.613408,1.05179 -0.510105,1.218938 0.116028,0.187736 0.07106,0.231742 -0.117639,0.11512 -0.19073,-0.117878 -0.305463,0.0037 -0.305463,0.323598 0,0.281811 -0.201449,0.675791 -0.447664,0.875511 -0.386357,0.313395 -0.41445,0.308773 -0.205137,-0.03375 z"
       id="path28547" />
    <path
       style="fill:#4e763d"
       d="m 2.2252012,64.014251 c -1.59909758,-0.83211 -5.3556593,-2.110485 -7.7511386,-2.637749 -0.8433868,-0.185636 -1.607059,-0.456653 -1.6970493,-0.602261 -0.096097,-0.155489 0.011817,-0.197419 0.2614995,-0.101607 0.233815,0.08972 0.7641461,0.0659 1.1785136,-0.05294 0.8420025,-0.241483 5.74041677,1.103001 6.9709621,1.913343 0.3754184,0.247222 0.7623715,0.369701 0.8598958,0.272177 0.097524,-0.09753 0.1773169,-0.04215 0.1773169,0.12306 0,0.165207 0.176939,0.232478 0.3931977,0.149492 0.2620167,-0.100545 0.4882188,0.09904 0.678011,0.598232 0.1566472,0.412013 0.4261926,0.839012 0.5989897,0.948886 0.7591791,0.482728 -0.3444478,0.07923 -1.6701984,-0.610635 z"
       id="path28546" />
    <path
       style="fill:#4e763d"
       d="m 13.997835,64.830618 c -0.156775,-0.253668 1.194156,-0.946627 3.387571,-1.737652 0.552749,-0.199341 1.505249,-0.763941 2.116667,-1.254665 1.195322,-0.959367 1.773127,-1.336781 1.773127,-1.158181 0,0.06156 -0.47625,0.441964 -1.058333,0.845348 -1.187126,0.822679 -1.397353,1.306423 -0.403544,0.928578 1.205377,-0.458284 6.494603,-0.896476 6.825604,-0.565476 0.22142,0.22142 0.199426,0.303577 -0.08529,0.3186 -0.211005,0.01113 -0.62177,0.06994 -0.912812,0.130671 -0.291042,0.06074 -1.243542,0.225957 -2.116667,0.36716 -3.01309,0.487283 -5.502194,1.108489 -6.154706,1.536032 -0.374975,0.245693 -1.199602,0.428906 -1.930466,0.428906 -0.70173,0 -1.216439,0.09617 -1.143797,0.213702 0.07264,0.117536 0.07254,0.213702 -2.17e-4,0.213702 -0.07276,0 -0.206472,-0.120026 -0.297137,-0.266725 z"
       id="path28545" />
  </g>
</svg>
