<?xml version="1.0" encoding="UTF-8" standalone="no"?>
<!-- Created with Inkscape (http://www.inkscape.org/) -->

<svg
   width="185"
   height="185"
   viewBox="0 0 48.947914 48.947918"
   version="1.1"
   id="svg1"
   sodipodi:docname="galanthus-nivalis-4.svg"
   inkscape:version="1.4 (e7c3feb100, 2024-10-09)"
   xmlns:inkscape="http://www.inkscape.org/namespaces/inkscape"
   xmlns:sodipodi="http://sodipodi.sourceforge.net/DTD/sodipodi-0.dtd"
   xmlns="http://www.w3.org/2000/svg"
   xmlns:svg="http://www.w3.org/2000/svg">
  <sodipodi:namedview
     id="namedview1"
     pagecolor="#ffffff"
     bordercolor="#666666"
     borderopacity="1.0"
     inkscape:showpageshadow="2"
     inkscape:pageopacity="0.0"
     inkscape:pagecheckerboard="true"
     inkscape:deskcolor="#d1d1d1"
     showgrid="false"
     inkscape:zoom="1.211637"
     inkscape:cx="79.644316"
     inkscape:cy="150.21001"
     inkscape:current-layer="svg1" />
  <defs
     id="defs1" />
  <g
     id="g15415"
     transform="matrix(0.807525,0,0,0.807525,-136.43473,-29.659184)"
     style="stroke-width:1.23835">
    <path
       style="fill:#95a68c;stroke-width:1.23835"
       d="m 180.77813,97.169968 c -0.37903,-0.379033 -0.12795,-0.575385 1.08038,-0.844877 1.75932,-0.392377 7.33214,-1.047444 10.71563,-1.259587 1.56435,-0.09808 2.84427,-0.217937 2.84427,-0.26634 0,-0.451811 -2.33803,-5.742992 -3.31712,-7.506973 -1.87037,-3.369731 -4.70042,-7.232521 -6.57608,-8.975808 -0.70953,-0.659464 -0.84879,-1.212214 -0.45991,-1.825565 0.49221,-0.77635 3.93124,1.40441 6.2437,3.959267 2.77409,3.064871 4.92387,6.981431 6.50642,11.853627 0.55359,1.704373 0.86609,2.285432 1.31929,2.45308 0.32662,0.120825 0.6567,0.156842 0.7335,0.08004 0.40821,-0.408204 -1.79098,-10.378456 -3.25287,-14.747242 -0.94749,-2.831556 -1.11201,-3.767631 -0.70622,-4.018419 0.38019,-0.234971 1.25274,0.92964 2.36099,3.15123 2.02171,4.052739 3.76677,9.959938 4.1621,14.089062 0.10101,1.055026 0.27249,1.918229 0.38106,1.918229 0.27276,0 0.50601,-4.935461 0.7143,-15.114569 0.15904,-7.772006 0.13176,-8.744454 -0.27373,-9.757882 -0.75876,-1.896336 -1.21763,-5.940088 -1.21929,-10.744868 -0.001,-4.035034 -0.0637,-4.678429 -0.572,-5.901412 -0.48683,-1.171455 -0.53059,-1.54677 -0.29855,-2.560777 l 0.27188,-1.188146 -1.01382,-0.517213 c -1.3291,-0.678057 -3.28445,-0.676196 -4.40034,0.0042 -0.93527,0.570261 -2.38675,2.42026 -2.61622,3.334534 -0.083,0.330883 0.091,1.044722 0.40441,1.659155 0.30259,0.593127 0.55017,1.533991 0.55017,2.090809 0,0.902693 0.13911,1.116259 1.28383,1.970872 3.6302,2.710191 6.60638,9.377992 5.63421,12.622807 -0.28207,0.941457 -0.42441,1.083754 -1.08407,1.083754 -0.48166,0 -1.22768,-0.371252 -2.0399,-1.015152 -1.4479,-1.147834 -3.26491,-3.086512 -3.26491,-3.483526 0,-0.589 -0.44354,-0.206639 -0.75299,0.649127 -0.40995,1.133694 -1.71162,2.262052 -2.6095,2.262052 -0.83934,0 -2.42227,-1.605575 -2.63587,-2.67357 l -0.15117,-0.755866 -0.54149,0.72253 c -1.5782,2.105857 -4.16921,4.029822 -5.42697,4.029822 -2.62637,0 -1.30408,-5.956341 2.34795,-10.576516 0.56964,-0.720643 1.69836,-1.810571 2.50828,-2.422063 1.3779,-1.040326 2.3961,-2.362219 2.0704,-2.687923 -0.187,-0.186994 0.199,-0.900447 1.96289,-3.62808 2.07613,-3.210464 3.32268,-4.433164 5.02416,-4.92804 2.284,-0.6643 4.13442,-0.161335 6.16903,1.676814 1.07591,0.972016 2.8832,3.765263 2.8832,4.456103 0,0.210527 0.60802,0.710164 1.35115,1.110304 3.73377,2.010449 6.28569,4.615518 7.505,7.661295 0.93015,2.323479 1.09674,3.580746 0.54727,4.130219 -0.40089,0.400893 -0.52422,0.403759 -1.412,0.03282 -0.53501,-0.223541 -1.23915,-0.656715 -1.56476,-0.96261 -0.68973,-0.64797 -0.75053,-0.547706 -0.97121,1.601629 -0.08,0.779391 -0.28325,1.583063 -0.45162,1.785937 -0.56003,0.674803 -1.759,0.430569 -2.8864,-0.587967 -0.68608,-0.619831 -1.0591,-0.818051 -1.0591,-0.5628 0,0.618877 -1.09712,2.942957 -1.544,3.270723 -0.34329,0.251792 -0.43099,1.789516 -0.58849,10.31875 -0.10179,5.512575 -0.1477,10.064647 -0.10201,10.115717 0.0457,0.05107 0.21859,-0.425181 0.38423,-1.058334 0.3506,-1.340086 1.23677,-3.97781 1.7201,-5.119936 0.18474,-0.436562 0.42243,-1.079701 0.52818,-1.429197 1.09286,-3.61148 5.02043,-9.465291 5.96075,-8.884139 0.44705,0.276289 0.18905,1.267886 -1.0656,4.095628 -0.61339,1.382448 -1.52633,3.644635 -2.02877,5.027083 -0.98016,2.696868 -2.82026,9.980095 -2.64009,10.449604 0.0606,0.157855 2.03505,0.496902 4.43876,0.762202 4.3679,0.48209 6.04944,0.820049 6.04944,1.215822 0,0.118666 -0.18833,0.288026 -0.41851,0.376356 -0.5734,0.220033 -36.49097,0.204585 -36.71135,-0.01579 z M 200.1419,68.652921 c -0.50338,-3.177227 -2.46206,-6.744821 -4.80955,-8.760232 -1.04428,-0.896564 -1.10934,-0.917159 -1.19214,-0.377376 -0.10591,0.69055 0.59027,4.027541 1.29871,6.225033 0.40857,1.26732 0.83057,1.905609 2.03346,3.07567 2.62202,2.550454 3.09487,2.521565 2.66952,-0.163095 z m -16.00913,1.399369 c 2.63255,-1.801563 4.02682,-3.968998 5.17191,-8.039867 0.45214,-1.607361 0.82206,-3.014453 0.82206,-3.126871 0,-0.329573 -1.34608,0.723276 -2.85691,2.234558 -1.7684,1.768934 -3.665,4.793952 -4.31494,6.882218 -0.84316,2.70908 -0.54458,3.228719 1.17788,2.049962 z m 21.52464,-2.744116 c 0.0763,-0.469946 -0.32033,-2.625689 -0.95315,-5.181009 -0.59607,-2.406903 -1.09785,-4.605274 -1.11507,-4.885269 -0.019,-0.309458 -0.10795,-0.197832 -0.22676,0.284668 -0.34225,1.389928 -0.0505,8.57621 0.41313,10.17722 0.61049,2.107976 0.93421,2.411539 1.38738,1.300962 0.20013,-0.490464 0.42264,-1.253921 0.49447,-1.696572 z m -12.90498,1.00709 c 1.10485,-1.340372 1.23135,-2.341137 0.69151,-5.470898 -0.25348,-1.469583 -0.54177,-3.148219 -0.64063,-3.730302 -0.29599,-1.742621 -0.86339,-1.343587 -1.69301,1.190625 -1.25942,3.847122 -1.52021,5.447261 -1.10997,6.810386 0.3797,1.261647 1.05745,2.185447 1.60337,2.185447 0.18513,0 0.70206,-0.443366 1.14873,-0.985258 z M 191.309,66.588543 c -0.25862,-0.689516 0.27719,-2.705548 0.7429,-2.795237 0.37707,-0.07262 0.45609,0.118055 0.45609,1.100551 0,0.653612 -0.0723,1.376717 -0.1606,1.6069 -0.19136,0.498678 -0.86297,0.555456 -1.03839,0.08779 z m 18.80427,0.485295 c 0.28233,-1.882691 -0.28554,-3.721941 -2.1678,-7.021226 -3.2134,-5.632531 -3.99682,-5.676364 -2.58792,-0.144798 1.09004,4.279658 1.9191,6.346084 2.96617,7.393157 0.51767,0.51767 1.09267,0.941218 1.27778,0.941218 0.1951,0 0.41021,-0.491075 0.51177,-1.168351 z m 3.97469,-2.205087 c -0.69514,-2.919702 -3.35362,-6.275015 -6.40764,-8.08719 -0.16819,-0.0998 0.51864,1.277157 1.52629,3.059901 1.22192,2.161853 2.27717,3.659907 3.16852,4.498123 1.53622,1.444647 1.96212,1.576224 1.71283,0.529166 z"
       id="path15412" />
    <path
       style="fill:#879b7b;stroke-width:1.23835"
       d="m 180.87529,97.09291 c -0.77177,-0.488121 0.84562,-0.816258 8.4577,-1.715899 0.50933,-0.06019 2.0869,-0.193812 3.50573,-0.296926 1.41883,-0.103115 2.57969,-0.275268 2.57969,-0.382563 0,-0.107294 -0.42545,-1.251841 -0.94545,-2.543437 -1.95232,-4.84925 -4.83338,-9.407784 -8.37203,-13.24658 -3.25975,-3.53624 0.47486,-3.007494 4.14566,0.586941 3.55655,3.482572 6.09858,7.890053 7.70195,13.353991 0.51743,1.763286 0.65949,1.993703 1.27505,2.068095 0.60864,0.07356 0.69274,-0.01036 0.69274,-0.691219 0,-1.821463 -1.99377,-10.488563 -3.29583,-14.327299 -1.02689,-3.027484 -1.13068,-3.718326 -0.55865,-3.718326 0.52727,0 1.32267,1.192982 2.56982,3.854329 1.90566,4.066575 3.31895,9.145303 3.80522,13.674316 0.55238,5.144684 1.1276,-3.137915 1.20817,-17.396353 0.0246,-4.357837 -0.0464,-5.468683 -0.40231,-6.294755 -0.73541,-1.70674 -1.20655,-5.872478 -1.2082,-10.682788 -0.001,-3.893075 -0.0743,-4.711927 -0.51091,-5.730402 -0.28015,-0.653552 -0.47186,-1.22897 -0.42603,-1.278706 0.0458,-0.04974 0.15242,-0.596034 0.23686,-1.213993 0.13267,-0.970816 0.0712,-1.17751 -0.45211,-1.520396 -0.3331,-0.218259 -1.1518,-0.498868 -1.81933,-0.623576 -2.11741,-0.395575 -3.73826,0.475961 -5.24733,2.821505 l -0.73439,1.141472 0.65048,1.470861 c 0.35777,0.808973 0.63178,1.66453 0.60892,1.901236 -0.0965,0.999015 0.0785,1.309163 1.18811,2.106042 3.32578,2.388397 6.50077,9.060768 5.81925,12.229431 -0.34512,1.604657 -0.8866,1.853247 -2.34802,1.077965 -1.33823,-0.709929 -4.11081,-3.485674 -4.11081,-4.115504 0,-0.720894 -0.47931,-0.452091 -0.65988,0.370074 -0.21901,0.997119 -1.42857,2.30484 -2.34446,2.534714 -1.00087,0.251201 -1.94802,-0.461654 -2.66256,-2.003917 l -0.59675,-1.288025 -1.02269,1.341038 c -1.07163,1.405207 -3.18676,2.954191 -4.41744,3.235036 -0.53602,0.122322 -0.87048,0.01822 -1.29032,-0.401627 -0.48219,-0.482184 -0.5453,-0.774609 -0.42298,-1.959806 0.29857,-2.892809 2.3126,-6.697079 4.80488,-9.075832 3.22037,-3.073689 3.58512,-3.499363 3.58512,-4.183974 0,-0.689291 2.91785,-5.414773 4.19983,-6.801657 1.8228,-1.971971 4.69904,-2.423526 7.10298,-1.115135 1.7822,0.969994 2.72422,2.001732 3.90147,4.273032 0.7277,1.403965 1.2399,2.037313 2.03278,2.513541 4.38119,2.631497 5.6762,3.920897 7.27526,7.243766 0.99853,2.074971 1.22745,4.259313 0.47657,4.547452 -0.45958,0.17636 -2.34131,-0.591228 -2.79781,-1.141275 -0.5229,-0.630054 -0.68336,-0.388786 -0.83206,1.251042 -0.2492,2.74819 -1.64484,3.365706 -3.51346,1.554568 l -0.8221,-0.796815 -0.36421,1.103577 c -0.20032,0.606968 -0.68261,1.592934 -1.07175,2.191038 l -0.70753,1.08746 -0.15427,10.054166 -0.15427,10.054166 1.3226,-3.96875 c 1.69634,-5.090245 4.02257,-9.864172 5.72785,-11.75482 1.87866,-2.082872 2.60454,-1.340521 1.26808,1.296856 -0.82139,1.620938 -2.07769,4.741861 -3.09145,7.679839 -0.69945,2.027086 -2.33601,8.588211 -2.33601,9.365302 0,0.207304 1.4049,0.472472 4.16719,0.786537 4.47619,0.508931 6.15156,0.840986 6.15156,1.21923 0,0.386807 -2.33596,0.637563 -2.74865,0.295058 -0.41996,-0.348535 -16.9953,-0.576664 -19.60864,-0.269877 -1.13012,0.132666 -0.46269,0.182569 2.31651,0.173203 2.14721,-0.0072 3.98276,0.06558 4.079,0.16182 0.0962,0.09624 -3.20839,0.153516 -7.3436,0.127286 -4.13522,-0.02623 -6.92327,-0.0929 -6.19566,-0.148165 0.7276,-0.05526 1.44198,-0.227741 1.5875,-0.383289 0.18679,-0.199659 -0.16329,-0.234565 -1.19063,-0.118717 -0.80036,0.09025 -1.93146,0.180804 -2.51354,0.201225 l -1.05833,0.03713 0.92604,0.194923 c 0.63932,0.134572 0.0659,0.204453 -1.85208,0.225702 -1.52797,0.01693 -2.95269,-0.07962 -3.16604,-0.214562 z m 16.10176,-3.034039 c -0.18812,-0.520218 -0.43344,-0.94585 -0.54516,-0.94585 -0.11172,0 -0.15086,0.148828 -0.087,0.330729 0.5133,1.461721 0.69557,1.839568 0.82499,1.710149 0.082,-0.08205 -0.005,-0.574811 -0.19284,-1.095028 z m 10.47242,-3.985424 c 0.62935,-2.422236 0.81904,-3.54872 0.55272,-3.282405 -0.0639,0.06392 -0.29499,0.973651 -0.5135,2.021628 -0.21851,1.047977 -0.57347,2.295445 -0.78879,2.772152 -0.21532,0.476707 -0.47152,1.164397 -0.56933,1.528199 -0.1767,0.657282 -0.17521,0.657902 0.23607,0.09825 0.22764,-0.309767 0.71491,-1.721786 1.08283,-3.13782 z m -6.32921,1.826823 c -0.11138,-0.593689 -0.27758,-0.877767 -0.42645,-0.728896 -0.14887,0.148871 -0.12056,0.570837 0.0726,1.082698 0.17412,0.461314 0.36602,0.789317 0.42645,0.728896 0.0604,-0.06042 0.0277,-0.547635 -0.0727,-1.082698 z m -6.79038,-3.04172 c -1.15732,-2.391236 -4.48902,-7.343007 -5.68241,-8.445529 -0.99594,-0.920104 -0.99509,-0.917559 0.13269,0.396875 1.61667,1.884255 4.44311,6.258071 5.34939,8.277982 0.42445,0.946027 0.82814,1.663637 0.89709,1.594687 0.069,-0.06895 -0.24459,-0.889756 -0.69676,-1.824015 z m 0.39872,-1.802597 c -0.70104,-1.311992 -1.31432,-2.345743 -1.36284,-2.297225 -0.0485,0.04852 0.48277,1.163203 1.18065,2.477077 0.69788,1.313873 1.31116,2.347624 1.36285,2.297224 0.0517,-0.0504 -0.47961,-1.165085 -1.18066,-2.477076 z m 4.87723,-1.285119 c -0.39282,-1.455129 -0.73134,-1.63776 -0.40678,-0.219459 0.15249,0.666405 0.36667,1.211646 0.47594,1.211646 0.10927,0 0.0781,-0.446484 -0.0692,-0.992187 z m 10.71744,-5.072771 c 0,-0.435012 0.0818,-0.740371 0.1818,-0.678574 0.23216,0.143484 0.85955,-1.210952 0.65546,-1.415042 -0.084,-0.08398 -0.22104,0.10866 -0.30457,0.42809 -0.0835,0.319431 -0.24493,0.523274 -0.35866,0.452986 -0.25197,-0.155729 -0.58214,0.62392 -0.39348,0.929172 0.0743,0.120177 0.008,0.555917 -0.14808,0.968311 -0.22384,0.59282 -0.21501,0.682409 0.0422,0.427897 0.17893,-0.17705 0.32533,-0.677828 0.32533,-1.11284 z m -9.92437,-10.71082 c 0.11142,-0.946153 -0.84554,-4.075736 -1.86568,-6.101354 -0.70072,-1.391395 -4.28616,-5.40846 -4.57211,-5.122517 -0.18994,0.189946 0.68257,4.484637 1.32294,6.511758 0.69009,2.184515 1.34101,3.087738 3.43748,4.769859 1.21267,0.973004 1.55738,0.961137 1.67737,-0.05775 z M 184.46465,69.87305 c 1.35512,-0.985445 2.86755,-2.683035 3.50494,-3.934043 0.62047,-1.217813 2.23915,-6.578947 2.10651,-6.976872 -0.14042,-0.421261 -2.59598,1.630024 -4.01576,3.354614 -1.54199,1.873038 -3.29358,5.388452 -3.5127,7.049919 -0.14942,1.133045 -0.11401,1.256771 0.35969,1.256771 0.28899,0 0.98978,-0.337675 1.55732,-0.750389 z m 20.84691,-1.107049 c 0.6054,-1.513065 0.55168,-2.105219 -0.63273,-6.973909 -0.58209,-2.392731 -1.0703,-4.628976 -1.08492,-4.969432 -0.0175,-0.407496 -0.116,-0.25738 -0.28828,0.439321 -0.15033,0.607936 -0.20013,2.803622 -0.11702,5.159375 0.12842,3.640243 0.34768,5.067488 1.08733,7.077603 0.22437,0.609761 0.60661,0.339227 1.03562,-0.732958 z m -12.6072,-0.223548 c 0.30826,-0.416938 0.74895,-1.209171 0.97931,-1.760517 0.38802,-0.928645 0.38133,-1.189377 -0.0908,-3.541411 -0.28029,-1.396428 -0.60929,-3.134273 -0.73112,-3.861878 -0.22379,-1.336574 -0.7359,-1.742927 -1.16705,-0.926041 -0.33655,0.637641 -1.49573,4.504897 -1.81228,6.046126 -0.33491,1.630594 -0.0683,3.010162 0.79355,4.105791 0.70812,0.900227 1.33098,0.881167 2.02835,-0.06207 z m -1.35769,-2.039116 c -0.24145,-0.629186 0.37293,-2.759065 0.79586,-2.759065 0.38299,0 0.52571,1.920366 0.20486,2.756485 -0.20654,0.538246 -0.79459,0.539762 -1.00072,0.0026 z m 18.75611,-0.596366 c 0,-2.019791 -0.0202,-2.080392 -1.69262,-5.08 -2.75082,-4.933763 -3.73133,-6.048701 -3.73133,-4.242867 0,1.484276 1.6471,7.528979 2.56387,9.409126 0.53372,1.094579 2.25111,2.56689 2.5941,2.223904 0.14629,-0.146293 0.26598,-1.185866 0.26598,-2.310163 z m 3.15788,-3.139561 c -1.21762,-2.398901 -2.54939,-3.943271 -4.61816,-5.355406 -0.87034,-0.594082 -1.58242,-1.019975 -1.58242,-0.946428 0,0.07355 0.39868,0.699544 0.88595,1.391105 0.48728,0.691561 1.38377,2.171389 1.9922,3.288507 0.71084,1.305137 1.64723,2.526358 2.61977,3.41666 1.41636,1.296583 1.51931,1.346121 1.60352,0.771617 0.0498,-0.339682 -0.35262,-1.485935 -0.90086,-2.566055 z"
       id="path15401" />
    <path
       style="fill:#7a9483;stroke-width:1.23835"
       d="m 180.87529,97.092917 c -0.77177,-0.488121 0.84562,-0.816258 8.4577,-1.715899 0.50933,-0.06019 2.0869,-0.193812 3.50573,-0.296926 1.41883,-0.103115 2.57969,-0.275268 2.57969,-0.382563 0,-0.107294 -0.42545,-1.251841 -0.94545,-2.543437 -1.95232,-4.84925 -4.83338,-9.407784 -8.37203,-13.24658 -3.25975,-3.53624 0.47486,-3.007494 4.14566,0.586941 3.55655,3.482572 6.09858,7.890053 7.70195,13.353991 0.51743,1.763286 0.65949,1.993703 1.27505,2.068095 0.60864,0.07356 0.69274,-0.01036 0.69274,-0.691219 0,-1.821463 -1.99377,-10.488563 -3.29583,-14.327299 -1.02689,-3.027484 -1.13068,-3.718326 -0.55865,-3.718326 0.52727,0 1.32267,1.192982 2.56982,3.854329 1.90566,4.066575 3.31895,9.145303 3.80522,13.674316 0.55238,5.144684 1.1276,-3.137915 1.20817,-17.396353 0.0246,-4.357837 -0.0464,-5.468683 -0.40231,-6.294755 -0.73541,-1.70674 -1.20655,-5.872478 -1.2082,-10.682788 -0.001,-3.893075 -0.0743,-4.711927 -0.51091,-5.730402 -0.28015,-0.653552 -0.47186,-1.22897 -0.42603,-1.278706 0.0458,-0.04974 0.15242,-0.596034 0.23686,-1.213993 0.13267,-0.970816 0.0712,-1.17751 -0.45211,-1.520396 -0.3331,-0.218259 -1.1518,-0.498868 -1.81933,-0.623576 -2.11741,-0.395575 -3.73826,0.475961 -5.24733,2.821505 l -0.73439,1.141472 0.65048,1.470861 c 0.35777,0.808973 0.63178,1.66453 0.60892,1.901236 -0.0965,0.999015 0.0785,1.309163 1.18811,2.106042 3.32578,2.388397 6.50077,9.060768 5.81925,12.229431 -0.34512,1.604657 -0.8866,1.853247 -2.34802,1.077965 -1.33823,-0.709929 -4.11081,-3.485674 -4.11081,-4.115504 0,-0.720894 -0.47931,-0.452091 -0.65988,0.370074 -0.21901,0.997119 -1.42857,2.30484 -2.34446,2.534714 -1.00087,0.251201 -1.94802,-0.461654 -2.66256,-2.003917 l -0.59675,-1.288025 -1.02269,1.341038 c -1.07163,1.405207 -3.18676,2.954191 -4.41744,3.235036 -0.53602,0.122322 -0.87048,0.01822 -1.29032,-0.401627 -0.48219,-0.482184 -0.5453,-0.774609 -0.42298,-1.959806 0.29857,-2.892809 2.3126,-6.697079 4.80488,-9.075832 3.22037,-3.073689 3.58512,-3.499363 3.58512,-4.183974 0,-0.689291 2.91785,-5.414773 4.19983,-6.801657 1.8228,-1.971971 4.69904,-2.423526 7.10298,-1.115135 1.7822,0.969994 2.72422,2.001732 3.90147,4.273032 0.7277,1.403965 1.2399,2.037313 2.03278,2.513541 4.38119,2.631497 5.6762,3.920897 7.27526,7.243766 0.99853,2.074971 1.22745,4.259313 0.47657,4.547452 -0.45958,0.17636 -2.34131,-0.591228 -2.79781,-1.141275 -0.5229,-0.630054 -0.68336,-0.388786 -0.83206,1.251042 -0.2492,2.74819 -1.64484,3.365706 -3.51346,1.554568 l -0.8221,-0.796815 -0.36421,1.103577 c -0.20032,0.606968 -0.68243,1.592934 -1.07135,2.191038 l -0.70714,1.08746 -0.15671,10.054166 -0.15672,10.054166 1.32465,-3.96875 c 1.7005,-5.094806 4.02616,-9.865882 5.7299,-11.75482 1.87866,-2.082872 2.60454,-1.340521 1.26808,1.296856 -0.82139,1.620938 -2.07769,4.741861 -3.09145,7.679839 -0.69945,2.027086 -2.33601,8.588211 -2.33601,9.365302 0,0.207304 1.4049,0.472472 4.16719,0.786537 4.41537,0.502015 6.15156,0.841157 6.15156,1.201626 0,0.385555 -2.14124,0.597188 -2.55636,0.252664 -0.27532,-0.228489 -3.79762,-0.368452 -12.73658,-0.506106 -6.79581,-0.104651 -12.59414,-0.140192 -12.88519,-0.07898 -0.29104,0.06121 -1.83885,0.19611 -3.43958,0.299773 -2.73667,0.177227 -2.81564,0.197673 -1.32292,0.342478 1.4214,0.137885 1.3245,0.158229 -0.92604,0.194426 -1.38244,0.02223 -2.6881,-0.06998 -2.90145,-0.204914 z m 15.73278,-4.140195 c -0.37602,-0.99899 -0.57269,-1.853336 -0.43706,-1.898547 0.67218,-0.224062 -1.31387,-4.304052 -3.82755,-7.863022 -1.41815,-2.007867 -3.60645,-4.197451 -4.53244,-4.535098 -0.79887,-0.291295 -0.81666,-0.282229 -0.5127,0.2613 0.17318,0.309686 0.75447,1.079484 1.29174,1.710663 2.52799,2.969847 5.80018,8.534018 7.38863,12.563949 0.29808,0.756221 0.67655,1.537129 0.84106,1.73535 0.56196,0.677123 0.47258,-0.156699 -0.21168,-1.974595 z m 10.55218,-1.427194 c 0.90015,-3.819643 1.39109,-5.529402 2.16813,-7.550821 1.83046,-4.761802 2.19703,-5.913819 1.83795,-5.776026 -0.66239,0.254184 -3.25394,6.149796 -4.52061,10.284139 -0.26751,0.873125 -0.51246,2.301874 -0.54434,3.174999 -0.0319,0.873125 -0.13925,2.06375 -0.2386,2.645834 -0.15796,0.925382 -0.13285,1.008476 0.19989,0.661458 0.20929,-0.218281 0.7032,-1.766094 1.09758,-3.439583 z m -5.77508,1.785937 c -0.0926,-0.763984 -0.39859,-2.639218 -0.68004,-4.167187 -0.28146,-1.527969 -0.54431,-3.135312 -0.58412,-3.571875 -0.045,-0.493222 -0.20506,-0.766224 -0.42279,-0.721049 -0.19272,0.03999 -0.27355,-0.05164 -0.17962,-0.20361 0.0939,-0.151971 0.0293,-0.704948 -0.1436,-1.228836 -0.17558,-0.532036 -0.39384,-0.823917 -0.49441,-0.661193 -0.099,0.160233 -0.3257,-0.253226 -0.50371,-0.918798 -0.17802,-0.665572 -0.49978,-1.386243 -0.71503,-1.601492 -0.45117,-0.451175 -0.50782,-0.286403 -0.12983,0.377631 0.32874,0.57752 2.018,6.490813 2.25271,7.88566 0.22271,1.323523 1.53481,6.199812 1.66823,6.199812 0.0553,0 0.0248,-0.625079 -0.0678,-1.389063 z M 200.3989,69.987243 c 0.11142,-0.946153 -0.84554,-4.075736 -1.86568,-6.101354 -0.70072,-1.391395 -4.28616,-5.40846 -4.57211,-5.122517 -0.18994,0.189946 0.68257,4.484637 1.32294,6.511758 0.69009,2.184515 1.34101,3.087738 3.43748,4.769859 1.21267,0.973004 1.55738,0.961137 1.67737,-0.05775 z M 184.46465,69.87305 c 1.35512,-0.985445 2.86755,-2.683035 3.50494,-3.934043 0.62047,-1.217813 2.23915,-6.578947 2.10651,-6.976872 -0.14042,-0.421261 -2.59598,1.630024 -4.01576,3.354614 -1.54199,1.873038 -3.29358,5.388452 -3.5127,7.049919 -0.14942,1.133045 -0.11401,1.256771 0.35969,1.256771 0.28899,0 0.98978,-0.337675 1.55732,-0.750389 z m 20.84691,-1.107049 c 0.6054,-1.513065 0.55168,-2.105219 -0.63273,-6.973909 -0.58209,-2.392731 -1.0703,-4.628976 -1.08492,-4.969432 -0.0175,-0.407496 -0.116,-0.25738 -0.28828,0.439321 -0.15033,0.607936 -0.20013,2.803622 -0.11702,5.159375 0.12842,3.640243 0.34768,5.067488 1.08733,7.077603 0.22437,0.609761 0.60661,0.339227 1.03562,-0.732958 z m -12.6072,-0.223548 c 0.30826,-0.416938 0.74895,-1.209171 0.97931,-1.760517 0.38802,-0.928645 0.38133,-1.189377 -0.0908,-3.541411 -0.28029,-1.396428 -0.60929,-3.134273 -0.73112,-3.861878 -0.22379,-1.336574 -0.7359,-1.742927 -1.16705,-0.926041 -0.33655,0.637641 -1.49573,4.504897 -1.81228,6.046126 -0.33491,1.630594 -0.0683,3.010162 0.79355,4.105791 0.70812,0.900227 1.33098,0.881167 2.02835,-0.06207 z m -1.35769,-2.039116 c -0.24145,-0.629186 0.37293,-2.759065 0.79586,-2.759065 0.38299,0 0.52571,1.920366 0.20486,2.756485 -0.20654,0.538246 -0.79459,0.539762 -1.00072,0.0026 z m 18.75611,-0.596366 c 0,-2.019791 -0.0202,-2.080392 -1.69262,-5.08 -2.75082,-4.933763 -3.73133,-6.048701 -3.73133,-4.242867 0,1.484276 1.6471,7.528979 2.56387,9.409126 0.53372,1.094579 2.25111,2.56689 2.5941,2.223904 0.14629,-0.146293 0.26598,-1.185866 0.26598,-2.310163 z m 3.15788,-3.139561 c -1.21762,-2.398901 -2.54939,-3.943271 -4.61816,-5.355406 -0.87034,-0.594082 -1.58242,-1.019975 -1.58242,-0.946428 0,0.07355 0.39868,0.699544 0.88595,1.391105 0.48728,0.691561 1.38377,2.171389 1.9922,3.288507 0.71084,1.305137 1.64723,2.526358 2.61977,3.41666 1.41636,1.296583 1.51931,1.346121 1.60352,0.771617 0.0498,-0.339682 -0.35262,-1.485935 -0.90086,-2.566055 z"
       id="path15390" />
    <path
       style="fill:#6d8972;stroke-width:1.23835"
       d="m 180.87529,97.092919 c -0.31192,-0.197279 -0.24937,-0.298013 0.31931,-0.514224 0.88499,-0.336474 5.51861,-0.945516 10.4535,-1.374006 2.07367,-0.180055 3.77031,-0.411717 3.77031,-0.514805 0,-0.297313 -1.77705,-4.625496 -2.41036,-5.870699 -1.7815,-3.502691 -3.5998,-6.093069 -7.47945,-10.655341 -0.82113,-0.965595 -0.79054,-1.719563 0.0698,-1.719563 0.28341,0 1.39347,0.587351 2.46678,1.305226 4.54639,3.040812 8.23346,9.015585 10.41978,16.884877 0.0505,0.181901 0.43478,0.330729 0.85388,0.330729 h 0.762 l -0.23646,-1.521354 c -0.54739,-3.521857 -2.12994,-10.209739 -3.11475,-13.16302 -1.16365,-3.489553 -1.26292,-4.101042 -0.66583,-4.101042 1.61713,0 6.13564,12.261818 6.23997,16.933333 0.035,1.568371 0.32499,2.61876 0.60006,2.173694 0.2919,-0.472313 0.6786,-10.189485 0.68842,-17.299041 0.006,-4.103263 0.0998,-6.027722 0.29802,-6.093802 0.18271,-0.0609 0.088,-0.438581 -0.25649,-1.022374 -1.0089,-1.709958 -1.38679,-4.258701 -1.52748,-10.302226 -0.0978,-4.200685 -0.23928,-5.979452 -0.54099,-6.800785 -0.26831,-0.730408 -0.35906,-1.572857 -0.26433,-2.453958 0.13051,-1.213989 0.0821,-1.38244 -0.50869,-1.769527 -0.35911,-0.235297 -1.11026,-0.511442 -1.66923,-0.613656 -1.78845,-0.327043 -2.63726,-0.036 -4.09313,1.403477 -0.7432,0.734835 -1.47033,1.344476 -1.61586,1.354758 -0.44724,0.0316 -0.29481,1.268187 0.33972,2.755993 0.33922,0.795394 0.5327,1.642504 0.44108,1.931184 -0.0912,0.287323 0.0243,0.800432 0.2617,1.162761 0.2337,0.356677 0.30852,0.648503 0.16626,0.648503 -0.35223,0 1.08786,1.426432 1.50448,1.490219 0.1826,0.02796 0.26367,-0.05972 0.18016,-0.194844 -0.0835,-0.13512 -0.23291,-0.196467 -0.33199,-0.136326 -0.0991,0.06014 -0.39407,-0.176042 -0.65553,-0.524851 -0.58047,-0.774407 -0.37881,-0.807464 0.61385,-0.100626 1.08454,0.772259 3.12779,3.570404 4.00267,5.481498 1.04978,2.293123 1.67968,5.289531 1.37912,6.560408 -0.35097,1.484072 -0.90634,1.710542 -2.3355,0.952376 -2.03339,-1.078712 -4.96414,-4.532021 -3.84622,-4.532021 0.14552,0 0.26664,0.20836 0.26915,0.463021 0.003,0.254662 0.30017,0.743408 0.66146,1.086104 0.36129,0.342696 0.65689,0.498275 0.65689,0.345732 0,-0.152543 -0.21503,-0.43293 -0.47785,-0.623083 -0.26281,-0.190153 -0.69061,-1.030341 -0.95066,-1.867086 -0.26006,-0.836745 -0.51583,-1.521354 -0.56839,-1.521354 -0.0525,0 -0.0394,0.438208 0.0291,0.973796 0.0686,0.535587 0.0334,1.041603 -0.0782,1.124479 -0.11161,0.08288 -0.47003,0.717777 -0.79648,1.410891 -0.78661,1.670127 -2.09691,2.380128 -3.1881,1.727505 -0.74924,-0.448111 -1.64004,-1.727208 -1.75677,-2.522533 -0.0956,-0.651059 -0.1965,-0.602366 -1.22461,0.590717 -1.38776,1.610455 -1.61459,1.818124 -2.85543,2.614325 -0.81842,0.525148 -1.34175,0.691382 -1.80811,0.574334 -0.41824,-0.104972 -0.5953,-0.066 -0.48811,0.107433 0.10066,0.16287 3.6e-4,0.207752 -0.24976,0.111769 -1.45359,-0.557795 -1.09943,-3.541425 0.87534,-7.374174 0.88045,-1.70883 2.59215,-3.649739 5.81401,-6.592535 0.50089,-0.45751 0.84488,-1.030136 0.84488,-1.406456 0,-0.783386 0.1939,-1.155348 2.24866,-4.313687 1.92008,-2.951323 2.83416,-3.798103 4.69722,-4.351374 1.46303,-0.434472 2.70257,-0.333634 4.03433,0.328195 1.22556,0.609057 2.96632,2.107977 3.38108,2.911356 1.77273,3.433773 2.04478,3.754548 4.04558,4.770158 1.39057,0.705856 3.81813,2.624743 3.81813,3.018074 0,0.167503 -0.32742,0.01591 -0.72761,-0.336881 l -0.7276,-0.641433 0.63377,0.719449 c 0.34858,0.395697 0.72777,0.661358 0.84265,0.590356 0.32525,-0.201016 1.47514,1.458687 2.35492,3.399006 0.87243,1.924108 1.08694,4.060792 0.43288,4.311781 -0.43625,0.167403 -2.19858,-0.530658 -2.8671,-1.135659 -0.26088,-0.236092 -0.51845,-0.38038 -0.57238,-0.320638 -0.0539,0.05974 -0.17329,0.820723 -0.26526,1.69107 -0.28351,2.683196 -1.46559,3.184568 -3.43383,1.456436 -1.0785,-0.946941 -1.22493,-0.970062 -1.2325,-0.194615 -0.008,0.788746 -0.90169,2.731012 -1.38799,3.015507 -0.32287,0.18889 -0.41216,1.906206 -0.5482,10.544389 -0.0977,6.203894 -0.0673,10.107731 0.0762,9.789582 0.13128,-0.291041 0.59389,-1.66026 1.02802,-3.042708 1.1803,-3.758491 1.99478,-5.812372 3.33057,-8.398715 1.25798,-2.435678 3.6033,-5.283199 4.09907,-4.976798 0.39577,0.244602 0.36043,1.243616 -0.0663,1.873413 -0.4744,0.700187 -2.60375,5.858892 -3.43717,8.3271 -1.10336,3.26764 -2.53113,9.5553 -2.19378,9.66102 0.1628,0.05102 2.08194,0.292595 4.26475,0.536833 4.44954,0.497866 5.95313,0.804467 5.95313,1.213915 0,0.181301 -0.53229,0.223972 -1.52136,0.121961 -0.83674,-0.0863 -6.16479,-0.228947 -11.8401,-0.316989 -5.67531,-0.08804 -10.37828,-0.240925 -10.45104,-0.339741 -0.0728,-0.09882 -1.26339,-0.09826 -2.64583,0.0012 -7.38643,0.531585 -8.05123,0.602122 -7.40834,0.786043 0.46082,0.131831 0.17991,0.196003 -0.92604,0.211554 -0.87312,0.01228 -1.76206,-0.08808 -1.97541,-0.223019 z m 16.08736,-3.235926 c -0.28687,-0.754987 -0.46513,-1.588589 -0.39613,-1.852449 0.069,-0.263859 0.03,-0.420733 -0.0867,-0.348607 -0.1167,0.07212 -0.28283,-0.05296 -0.36917,-0.27796 -0.0899,-0.234262 -0.0452,-0.340014 0.10457,-0.247449 0.32766,0.202505 0.33325,0.253507 -0.14527,-1.32479 -0.37122,-1.224371 -2.42342,-4.832798 -3.9876,-7.011458 -2.0047,-2.792258 -5.13058,-5.214806 -5.13058,-3.976197 0,0.261665 0.28856,0.664822 0.64123,0.895904 1.82502,1.195798 6.33127,8.383596 8.11523,12.94438 0.29704,0.759387 0.71328,1.648595 0.92499,1.976017 0.68444,1.058555 0.8651,0.632291 0.32946,-0.777391 z m 10.341,-2.86063 c 0.47044,-1.964531 1.03052,-4.107656 1.24461,-4.7625 0.7582,-2.319139 2.83778,-7.809787 3.07708,-8.124347 0.13354,-0.175526 0.17107,-0.43519 0.0834,-0.57703 -0.0877,-0.14184 -0.0384,-0.332676 0.10951,-0.42408 0.14789,-0.0914 0.2689,-0.300981 0.2689,-0.465727 0,-0.411696 -0.77485,0.643458 -0.78534,1.069435 -0.005,0.187986 -0.23286,0.582715 -0.5072,0.877175 -1.31338,1.409751 -4.80959,11.075701 -4.7533,13.141426 0.0187,0.687513 -0.0565,1.785804 -0.1672,2.440648 -0.1772,1.048265 -0.15491,1.143171 0.18646,0.79375 0.21324,-0.218281 0.77263,-2.004219 1.24307,-3.96875 z m -6.33918,-0.302151 c -0.31193,-1.798348 -0.66126,-3.865036 -0.7763,-4.59264 -0.24056,-1.521545 -1.15186,-3.926583 -1.39551,-3.682929 -0.0905,0.09046 -0.29595,-0.323799 -0.45664,-0.920572 -0.1607,-0.596772 -0.40291,-1.085041 -0.53826,-1.085041 -0.13534,0 -0.17005,-0.198125 -0.0771,-0.440278 0.1136,-0.296039 0.0675,-0.377604 -0.14059,-0.248969 -0.17203,0.10632 -0.30955,0.04724 -0.30955,-0.132985 0,-0.178362 -0.0692,-0.255118 -0.15373,-0.170567 -0.0846,0.08455 -0.0185,0.406484 0.14688,0.715407 0.52157,0.974567 2.09009,6.387725 2.64868,9.140934 0.29525,1.455208 0.64537,2.943489 0.77807,3.307291 0.13269,0.363802 0.32952,1.018646 0.43739,1.455208 0.46993,1.9018 0.36148,-0.319322 -0.16331,-3.344859 z M 186.14521,68.363256 c 0.70249,-0.742786 1.52459,-1.835325 1.82688,-2.427866 0.64964,-1.273383 2.24448,-6.551856 2.10553,-6.968695 -0.1348,-0.4044 -2.49595,1.531036 -3.90022,3.197007 -2.17199,2.576766 -4.23491,7.418326 -3.59915,8.447003 0.27782,0.449521 2.10522,-0.701878 3.56696,-2.247449 z m 14.25614,1.59861 c 0.31708,-2.708986 -2.89063,-8.660455 -5.77465,-10.714059 l -0.74546,-0.530815 0.13601,1.124578 c 0.2359,1.950537 1.35138,6.207463 1.91725,7.316649 0.58047,1.137822 3.57263,3.821003 4.0767,3.655726 0.1661,-0.05446 0.34167,-0.437899 0.39015,-0.852079 z m -13.34618,-1.719677 c 0.15028,-0.218282 -0.10917,-0.04718 -0.57655,0.38023 -0.46739,0.427408 -0.84979,0.94948 -0.84979,1.16016 0,0.338142 0.5186,-0.221925 1.42634,-1.54039 z m 18.3129,0.513194 c 0.52634,-1.456694 0.43199,-2.418701 -0.68924,-7.027681 -0.58209,-2.392731 -1.0703,-4.674019 -1.08492,-5.069529 -0.0218,-0.590782 -0.0733,-0.530246 -0.28814,0.339225 -0.39642,1.603933 -0.0796,9.216096 0.45697,10.980207 0.24344,0.800365 0.50054,1.55079 0.57131,1.667612 0.24761,0.408704 0.70798,0.01253 1.03402,-0.889834 z m -12.99951,0.292111 c 0.086,-0.139165 0.3158,-0.191854 0.51064,-0.117086 0.19484,0.07477 0.43188,-0.06633 0.52675,-0.313562 0.14482,-0.377389 0.10785,-0.395855 -0.23044,-0.115101 -0.55131,0.457543 -0.50875,0.262955 0.23755,-1.086127 0.35227,-0.636792 0.70424,-1.753117 0.78215,-2.480721 0.0933,-0.871278 0.0729,-1.051934 -0.0597,-0.529166 -0.17276,0.680998 -0.26329,0.455494 -0.63727,-1.5875 -0.23974,-1.309688 -0.51341,-2.938785 -0.60815,-3.620217 -0.18204,-1.30934 -0.73903,-1.8262 -1.14683,-1.064212 -0.2589,0.483753 -0.81136,2.352916 -1.66557,5.635122 -0.58403,2.244081 -0.42422,3.535647 0.59832,4.835599 0.54781,0.696425 1.39833,0.919023 1.69255,0.442971 z m -0.91529,-3.120409 c 0.005,-1.345039 0.26609,-2.224926 0.62539,-2.106762 0.67708,0.222676 0.45051,3.098949 -0.24411,3.098949 -0.26902,0 -0.3838,-0.298712 -0.38128,-0.992187 z m 18.61504,1.984374 c 0.36568,-1.364527 0.15702,-3.515556 -0.47209,-4.866707 -0.9121,-1.958913 -3.44874,-6.198884 -4.16979,-6.969772 l -0.61531,-0.657834 -0.0781,1.190509 c -0.0826,1.25959 1.305,6.554258 2.36116,9.009349 0.48811,1.134647 2.09223,2.889768 2.64114,2.889768 0.0954,0 0.24524,-0.267891 0.33298,-0.595313 z m -26.05337,-3.245935 c 0.34879,-0.657478 0.58209,-1.247491 0.51844,-1.31114 -0.0636,-0.06365 -0.43221,0.474288 -0.81903,1.195415 -0.38681,0.721127 -0.62011,1.31114 -0.51844,1.31114 0.10168,0 0.47024,-0.537937 0.81903,-1.195415 z m 30.13774,0.203227 c -0.41684,-1.514527 -1.72185,-3.870549 -2.86031,-5.163901 -0.95631,-1.086433 -4.76146,-4.073353 -4.76146,-3.737598 0,0.08375 0.40637,0.627033 0.90305,1.20729 0.49668,0.580257 1.06312,1.37309 1.25876,1.761851 1.31104,2.605231 2.56293,4.432919 3.82884,5.589894 0.80318,0.734059 1.5602,1.334652 1.68226,1.334652 0.12206,0 0.0991,-0.446485 -0.0511,-0.992188 z m -14.74314,-0.878436 c -0.47604,-1.074771 -1.43868,-2.362709 -1.76594,-2.362709 -0.0745,0 0.15832,0.386953 0.51738,0.859895 0.35905,0.472943 0.86348,1.388869 1.12094,2.035391 0.25746,0.646522 0.5083,1.054897 0.55743,0.9075 0.0491,-0.147396 -0.14428,-0.795431 -0.42981,-1.440077 z m 3.42218,-0.04712 -0.1273,-1.654128 -0.087,1.289299 c -0.0764,1.132581 0.0407,2.017008 0.26712,2.018475 0.041,2.65e-4 0.0172,-0.743876 -0.0529,-1.653646 z m 3.31934,0.443335 c -0.20578,-0.571521 -0.44543,-1.26453 -0.53255,-1.54002 -0.0871,-0.275489 -0.21075,-0.448528 -0.27475,-0.384529 -0.12311,0.123106 0.52036,2.433072 0.80692,2.896731 0.35738,0.578255 0.3576,0.01991 3.8e-4,-0.972182 z"
       id="path15374" />
    <path
       style="fill:#587764;stroke-width:1.23835"
       d="m 191.44966,65.843545 c 0,-1.18855 0.41672,-2.199998 0.80702,-1.958777 0.28128,0.173839 0.32828,1.529721 0.0846,2.439192 -0.27934,1.042348 -0.89157,0.712453 -0.89157,-0.480415 z"
       id="path15360" />
    <path
       style="fill:#587764;stroke-width:1.23835"
       d="m 211.02883,66.55547 c 0,-0.345612 -0.0766,-1.030221 -0.1703,-1.521354 -0.0937,-0.491133 -0.0697,-0.799558 0.0532,-0.685389 0.25473,0.236546 0.50141,2.835128 0.26913,2.835128 -0.0836,0 -0.15207,-0.282773 -0.15207,-0.628385 z"
       id="path15359" />
    <path
       style="fill:#587764;stroke-width:1.23835"
       d="m 196.7751,68.80197 c -0.63627,-0.564843 -1.11252,-1.134025 -1.05834,-1.264849 0.0542,-0.130825 0.64222,0.331484 1.30674,1.027352 1.45902,1.52786 1.33678,1.64473 -0.2484,0.237497 z"
       id="path15358" />
    <path
       style="fill:#587764;stroke-width:1.23835"
       d="m 198.51167,71.395697 c -1.32634,-0.878535 -3.62776,-3.284015 -3.61401,-3.777436 0.005,-0.167292 0.15225,-0.115897 0.33073,0.115166 1.49756,1.938797 3.73173,3.815394 4.19876,3.526756 0.18931,-0.116999 0.0333,-0.325312 -0.42248,-0.564119 -0.39745,-0.208241 -0.65545,-0.445801 -0.57334,-0.52791 0.0821,-0.08211 0.33325,0.0034 0.5581,0.189989 0.22484,0.186603 0.68229,0.3693 1.01656,0.405993 0.58572,0.0643 0.60063,0.01738 0.41128,-1.293762 -0.58151,-4.026675 -2.94863,-8.198928 -5.80598,-10.233539 l -0.74938,-0.533602 0.13808,0.999165 c 0.23318,1.687439 0.94639,4.912365 1.32723,6.001375 0.19878,0.568403 0.30887,1.08601 0.24464,1.150238 -0.0642,0.06423 -0.26294,-0.371063 -0.44158,-0.967313 -0.17864,-0.596251 -0.42501,-1.084093 -0.5475,-1.084093 -0.12249,0 -0.22796,-0.446484 -0.23438,-0.992187 -0.0126,-1.072747 -0.73474,-3.993744 -0.76422,-3.091301 -0.01,0.300695 0.10863,1.230932 0.26322,2.067192 0.15459,0.83626 0.23127,1.661799 0.1704,1.834531 -0.14024,0.397977 -0.64557,-1.996749 -0.9654,-4.575005 -0.135,-1.088256 -0.37225,-2.020912 -0.52722,-2.07257 -0.15497,-0.05166 -0.28177,-0.262595 -0.28177,-0.468749 0,-0.206155 -0.12428,-0.374827 -0.27618,-0.374827 -0.1519,0 -0.24713,0.148828 -0.21163,0.330729 0.0355,0.181901 -0.30586,1.521354 -0.75861,2.976563 -1.29124,4.150292 -1.51954,5.448895 -1.15315,6.559078 0.42163,1.277553 1.26627,2.304463 1.89543,2.304463 0.58116,0 2.02937,-2.063757 2.27141,-3.236851 0.0821,-0.397821 0.26192,-0.653668 0.39965,-0.56855 0.13772,0.08512 0.19206,0.306802 0.12075,0.492631 -0.0713,0.18583 0.009,0.4764 0.17819,0.645713 0.23407,0.234067 0.21629,0.364426 -0.0742,0.54395 -0.21012,0.129859 -0.50678,0.166966 -0.65925,0.08246 -0.15247,-0.08451 -0.13208,0.003 0.0453,0.194465 0.25584,0.276131 0.20195,0.562667 -0.26063,1.38571 -0.32074,0.570678 -0.80691,1.157344 -1.08039,1.303703 -0.36963,0.197822 -0.28577,-0.04122 0.32678,-0.931544 0.45321,-0.658709 0.82401,-1.26964 0.82401,-1.357625 0,-0.124825 -1.46789,1.490899 -1.76316,1.940736 -0.0354,0.05386 -0.3709,0.02097 -0.74565,-0.07309 -0.42675,-0.107108 -0.84516,-0.514472 -1.11966,-1.090109 -0.4264,-0.89417 -0.86945,-1.214787 -0.86945,-0.629189 0,0.622392 0.93172,1.819709 1.64641,2.115743 0.41349,0.171276 0.69953,0.363695 0.63562,0.427599 -0.0639,0.0639 -0.48327,-0.07364 -0.93193,-0.305649 -0.84041,-0.434594 -1.89658,-2.140058 -1.6882,-2.726036 0.0647,-0.181902 -0.003,-0.33073 -0.14961,-0.33073 -0.14698,0 -0.31528,-0.208359 -0.37399,-0.46302 -0.0857,-0.371882 -0.17604,-0.319803 -0.45874,0.264583 -0.1936,0.400182 -0.4667,0.727604 -0.6069,0.727604 -0.1402,0 -0.70426,0.510495 -1.25347,1.134434 -0.54921,0.623938 -1.42743,1.365388 -1.95159,1.647667 -0.88313,0.475596 -1.24155,0.922065 -0.74023,0.922065 0.54465,0 2.73878,-1.657693 3.27318,-2.472933 0.61082,-0.931816 1.81769,-1.938347 1.36482,-1.138261 -0.49858,0.88084 -2.28271,2.576127 -3.40059,3.231246 -1.13366,0.664369 -1.22741,0.678001 -1.85133,0.269195 -0.49318,-0.323141 -0.6482,-0.643699 -0.62117,-1.284408 0.0304,-0.720784 0.0545,-0.750749 0.1547,-0.192338 0.19669,1.09641 0.50166,1.153494 1.71235,0.320521 2.81242,-1.934999 4.05807,-3.768791 5.11524,-7.530417 0.41187,-1.465501 0.90117,-2.018778 0.93595,-1.058333 0.012,0.331253 0.09,0.279697 0.27414,-0.181165 0.14155,-0.354301 0.20171,-0.789213 0.13369,-0.96647 -0.068,-0.177256 0.043,-0.542217 0.24662,-0.811023 0.20366,-0.268806 0.37334,-0.726863 0.37707,-1.017905 0.005,-0.415196 -0.0847,-0.358211 -0.41813,0.264584 -0.23371,0.436562 -0.41907,1.137485 -0.41191,1.557605 0.01,0.560675 -0.0653,0.68557 -0.28131,0.469544 -0.21368,-0.213683 -0.2159,-0.549797 -0.008,-1.226877 0.15742,-0.51291 0.18921,-0.932564 0.0707,-0.932564 -0.39663,0 -3.04337,2.298919 -3.99656,3.471364 -1.1565,1.422501 -2.22694,3.24136 -3.07106,5.218211 -0.35154,0.823286 -0.5632,1.143826 -0.47035,0.712312 0.46798,-2.174818 2.33775,-5.217281 4.51181,-7.341562 0.85084,-0.831352 1.46808,-1.590443 1.37166,-1.686869 -0.0964,-0.09643 -0.48846,0.196819 -0.87117,0.651654 -0.38272,0.454835 -0.81284,0.826973 -0.95582,0.826973 -0.14298,0 -0.43856,0.178594 -0.65684,0.396875 -0.21828,0.218282 -0.29907,0.397467 -0.17953,0.39819 0.11953,7.22e-4 -0.10104,0.268613 -0.49017,0.595312 -0.92757,0.77876 -2.98665,4.940296 -3.41565,6.903246 -0.2708,1.239074 -0.27226,1.652082 -0.007,2.076285 0.18188,0.291246 0.26737,0.592861 0.18998,0.670256 -0.0774,0.07739 -0.28659,-0.179438 -0.46488,-0.570739 -0.47316,-1.038473 0.0794,-3.49102 1.39514,-6.192812 0.82771,-1.699608 1.53997,-2.670903 3.10433,-4.233333 2.50611,-2.503017 3.51854,-3.346401 3.92087,-3.266198 0.17092,0.03407 0.38547,-0.0589 0.47676,-0.206617 0.0975,-0.157829 -0.003,-0.203598 -0.24463,-0.111001 -0.50403,0.193411 -0.57152,-0.949068 -0.1084,-1.83467 0.65185,-1.246472 3.68169,-5.659298 4.25633,-6.199141 1.56738,-1.472477 4.53022,-1.897683 6.42425,-0.921964 1.18712,0.611544 3.3047,2.356627 3.3047,2.723371 0,0.131995 0.36926,0.840113 0.82057,1.573596 0.70633,1.147927 0.7708,1.393918 0.46302,1.766793 -0.30439,0.368788 -0.29878,0.413757 0.0378,0.302482 0.21743,-0.07189 0.99134,0.23975 1.71979,0.692531 0.72846,0.452781 1.67829,0.998252 2.11075,1.212159 1.43848,0.711512 3.781,3.362808 4.80906,5.442952 0.97856,1.979981 1.49152,4.626487 0.96036,4.954765 -0.35931,0.222061 -1.80358,-0.228285 -1.73957,-0.54242 0.0295,-0.144767 -0.29792,-0.600028 -0.7276,-1.011691 -0.8988,-0.861099 -1.06861,-0.592591 -0.20596,0.325658 0.31641,0.336801 0.43822,0.612365 0.27068,0.612365 -0.37738,0 -1.20458,-1.221295 -1.02452,-1.512637 0.22154,-0.358465 -0.55199,-1.20349 -0.90305,-0.986519 -0.20663,0.127703 -0.25492,0.0894 -0.13399,-0.10628 0.22164,-0.358612 -1.6322,-3.481885 -2.06316,-3.475929 -0.20285,0.0028 -0.20681,0.06391 -0.0128,0.198438 0.48782,0.338332 1.70497,2.751012 1.68323,3.336565 -0.0149,0.402232 -0.18611,0.223531 -0.60214,-0.628638 -0.65634,-1.344385 -3.14244,-5.576236 -3.92475,-6.680729 -1.6574,-2.33998 -1.30098,1.329149 0.73672,7.583936 0.59107,1.814329 1.03632,2.656863 1.92996,3.652072 0.7018,0.78157 1.30946,1.236927 1.53509,1.150344 0.20617,-0.07911 0.30106,-0.02614 0.21182,0.118241 -0.0889,0.143854 -0.0356,0.261553 0.11855,0.261553 0.15411,0 0.2802,-0.178594 0.2802,-0.396875 0,-0.218282 -0.11906,-0.396875 -0.26458,-0.396875 -0.14553,0 -0.26459,-0.12609 -0.26459,-0.280199 0,-0.154109 0.0893,-0.224615 0.19844,-0.15668 0.10914,0.06793 0.18468,-0.72871 0.16787,-1.770323 -0.0182,-1.124871 0.011,-1.356687 0.0717,-0.570923 0.0563,0.727604 0.24398,1.600168 0.41714,1.939032 0.42463,0.830996 -0.20866,2.00449 -1.12861,2.091304 -0.59079,0.05575 -0.60248,0.03871 -0.12345,-0.179841 l 0.52916,-0.241428 -0.52916,-0.05777 c -0.29104,-0.03177 -0.71829,-0.06991 -0.94943,-0.08474 -0.51713,-0.03319 -1.29953,-0.654238 -1.29953,-1.031531 0,-0.153069 0.29765,0.0013 0.66146,0.343101 0.54753,0.514378 0.66146,0.545107 0.66146,0.178412 0,-0.243648 -0.16586,-0.442996 -0.36857,-0.442996 -0.20271,0 -0.44,-0.18614 -0.5273,-0.413645 -0.0889,-0.231535 -0.29404,-0.330021 -0.46606,-0.223702 -0.17644,0.109042 -0.2364,0.07517 -0.14079,-0.07954 0.0916,-0.148213 -0.0572,-0.732683 -0.33078,-1.298821 -0.27352,-0.566139 -0.6985,-1.743191 -0.9444,-2.615672 -0.24589,-0.872481 -0.58881,-2.086577 -0.76205,-2.697989 -0.39998,-1.411699 -0.62416,-1.644044 -0.52097,-0.539963 0.0709,0.758071 0.0316,0.71936 -0.33763,-0.332753 -0.2298,-0.654843 -0.42977,-1.964531 -0.44437,-2.910416 l -0.0266,-1.719792 -0.32305,1.058334 c -0.3228,1.057481 -0.32307,1.057654 -0.34339,0.214052 -0.0112,-0.464354 -0.14194,-0.919439 -0.29058,-1.0113 -0.16048,-0.09919 -0.26487,0.136252 -0.25703,0.579698 0.007,0.410694 0.0143,2.770779 0.0157,5.244633 0.001,2.473854 0.10451,4.9444 0.22917,5.490104 0.12466,0.545703 0.17548,0.992187 0.11292,0.992187 -0.0626,0 0.01,0.230899 0.16087,0.51311 0.15779,0.294827 0.17365,0.575506 0.0373,0.659783 -0.47657,0.294533 -0.88795,-3.287626 -0.99704,-8.681882 -0.0828,-4.094654 -0.21406,-5.769533 -0.50709,-6.470856 -0.41421,-0.991348 -0.44875,-3.293865 -0.0457,-3.04475 0.12848,0.0794 0.19586,-0.07526 0.14975,-0.343683 -0.0922,-0.536502 -1.42474,-1.23753 -2.86658,-1.508021 -1.32603,-0.248764 -2.59299,0.200977 -3.75063,1.331384 -0.55399,0.540958 -1.00726,0.864146 -1.00726,0.718196 0,-0.14595 0.12944,-0.3948 0.28764,-0.553001 0.20713,-0.207127 0.2066,-0.337718 -0.002,-0.466561 -0.35299,-0.218158 -0.66476,0.497757 -0.45491,1.044604 0.0836,0.217932 -0.0887,0.80435 -0.38304,1.303152 l -0.5351,0.906912 0.63783,1.276536 c 0.42902,0.858655 0.60226,1.579681 0.52919,2.202578 -0.0988,0.84238 -0.0114,0.987241 0.96796,1.603458 2.12336,1.336067 5.7182,6.505377 5.15627,7.414606 -0.12335,0.199579 -0.0904,0.256205 0.0856,0.147376 0.38001,-0.234855 0.97305,2.44989 0.94166,4.262963 -0.0406,2.344968 -0.78941,2.708529 -2.8151,1.366771 z m 2.54346,-2.56326 c -0.0826,-0.615678 -0.24239,-1.119415 -0.35512,-1.119415 -0.11274,0 -0.15415,-0.267891 -0.092,-0.595312 0.10429,-0.549628 0.0945,-0.554704 -0.12702,-0.06615 -0.13958,0.30779 -0.14185,0.63432 -0.005,0.78052 0.129,0.138245 0.23455,0.515461 0.23455,0.838257 0,0.613614 0.27008,1.506622 0.41257,1.364132 0.0454,-0.04544 0.0151,-0.586358 -0.0675,-1.202036 z m -11.98311,-3.169936 c 0.002,-0.254661 0.0628,-0.760677 0.13518,-1.124479 0.11613,-0.583894 0.0861,-0.568381 -0.25626,0.132292 -0.4597,0.940837 -0.5117,1.455208 -0.14711,1.455208 0.14552,0 0.26621,-0.208359 0.26819,-0.463021 z m 25.71033,-0.867753 c -0.0922,-1.020812 -1.2975,-3.799688 -2.0661,-4.763511 -1.22691,-1.538531 -2.43939,-2.636253 -2.90292,-2.628162 -0.45722,0.008 -0.44615,0.05725 0.11858,0.527748 0.34258,0.285421 0.74793,0.441657 0.90077,0.347193 0.15285,-0.09446 0.20279,-0.05021 0.11097,0.09835 -0.0918,0.148556 0.0806,0.494093 0.38309,0.76786 0.3025,0.273766 0.72149,0.829352 0.93107,1.234636 0.20958,0.405284 0.48107,0.675063 0.60332,0.599509 0.31262,-0.193206 1.38643,2.40714 1.52213,3.685995 0.10462,0.985896 0.0712,0.94736 -0.4531,-0.523218 -0.31132,-0.873125 -0.7343,-1.775469 -0.93994,-2.005208 -0.20564,-0.22974 -0.3739,-0.540399 -0.3739,-0.690354 0,-0.531146 -2.21972,-2.783779 -4.14911,-4.210632 -1.07587,-0.795645 -1.8902,-1.553312 -1.80961,-1.683705 0.0806,-0.130393 0.0255,-0.311862 -0.12238,-0.403266 -0.14981,-0.09259 -0.26889,0.08199 -0.26889,0.394207 0,0.308218 -0.1177,0.487655 -0.26156,0.398748 -0.15199,-0.09393 -0.1931,0.01673 -0.0982,0.264174 0.0899,0.234203 0.31396,0.36805 0.49797,0.297438 0.18402,-0.07061 0.55775,0.130905 0.83051,0.447815 0.61133,0.710254 1.67706,2.231793 1.67706,2.394328 0,0.605238 2.45837,4.129615 3.62301,5.194029 1.70839,1.561378 2.37191,1.636974 2.24718,0.256027 z m -15.35248,-0.810763 c -0.97582,-2.261409 -4.4512,-6.238168 -4.9851,-5.704272 -0.091,0.09101 0.17886,0.43504 0.59972,0.7645 1.36194,1.06617 3.42833,3.759543 4.20389,5.479418 0.28247,0.626413 0.55205,1.023547 0.59906,0.88252 0.047,-0.141026 -0.1409,-0.781001 -0.41757,-1.422166 z m 8.40226,-5.77799 c -0.32512,-0.578488 -0.74263,-1.109928 -0.92778,-1.180978 -0.18515,-0.07105 -0.0524,0.289625 0.29494,0.8015 0.34736,0.511874 0.71492,1.189569 0.81679,1.505989 0.10303,0.320016 0.23447,0.431085 0.29621,0.250296 0.061,-0.178756 -0.15503,-0.798319 -0.48016,-1.376807 z m 1.73328,-1.063031 c 0.0854,-0.138219 -0.0861,-0.380533 -0.38126,-0.538475 -0.29512,-0.157942 -0.53657,-0.209754 -0.53657,-0.115137 0,0.09462 -0.29766,-0.023 -0.66146,-0.261374 -0.36381,-0.238372 -0.6599,-0.341363 -0.65799,-0.228867 0.004,0.210422 1.57237,1.349325 1.89914,1.378717 0.10056,0.009 0.25272,-0.09664 0.33814,-0.234864 z m -6.39309,-2.300494 c -0.1,-0.260583 0.0156,-0.568661 0.28824,-0.767996 0.42235,-0.308826 0.41112,-0.365378 -0.15545,-0.78323 l -0.61066,-0.45037 0.7276,0.123342 c 0.62057,0.105199 0.72761,0.03281 0.72761,-0.492116 0,-0.352329 -0.23501,-0.741233 -0.54969,-0.909643 -0.30233,-0.161801 -0.494,-0.439295 -0.42594,-0.616653 0.0691,-0.180107 -0.10587,-0.339764 -0.39636,-0.361646 -0.42455,-0.03198 -0.46186,0.03099 -0.20311,0.34276 0.19162,0.23089 0.20976,0.381938 0.0459,0.381938 -0.1491,0 -0.39243,0.348049 -0.54072,0.773441 -0.21515,0.617175 -0.18997,0.804009 0.12465,0.924738 0.25665,0.09849 0.33551,0.33646 0.22591,0.681768 -0.0926,0.291758 -0.0552,0.53047 0.0832,0.53047 0.13836,0 0.31383,0.238125 0.38993,0.529166 0.0761,0.291042 0.20533,0.529167 0.28714,0.529167 0.0818,0 0.0736,-0.195811 -0.0182,-0.435136 z m -10.00966,-2.462141 c 0.5302,-1.025299 0.54035,-1.51429 0.0225,-1.084525 -0.20963,0.173978 -0.31596,0.486213 -0.23628,0.693855 0.0884,0.230466 -0.0208,0.37753 -0.28031,0.37753 -0.43741,0 -0.56056,0.305589 -0.24879,0.617362 0.26827,0.268269 0.30867,0.23541 0.74286,-0.604222 z m 3.2549,-3.915743 c 0.19886,-0.181902 0.25245,-0.33073 0.11909,-0.33073 -0.13336,0 -0.45864,0.238855 -0.72283,0.530789 -0.2642,0.291934 -0.53959,0.471561 -0.61198,0.399171 -0.21978,-0.219781 -0.84737,0.434416 -0.67865,0.707417 0.13901,0.224925 0.46825,-0.0022 1.89437,-1.306647 z m 3.75569,-0.341064 c -0.21407,-0.13538 -0.86547,-0.233066 -1.44755,-0.21708 l -1.05833,0.02907 1.11956,0.182455 c 0.61576,0.10035 1.20115,0.264042 1.30087,0.363758 0.0997,0.09972 0.24731,0.115298 0.32798,0.03462 0.0807,-0.08067 -0.0285,-0.257443 -0.24253,-0.392823 z"
       id="path15357" />
    <path
       style="fill:#587764;stroke-width:1.23835"
       d="m 180.99862,97.092314 c -0.50331,-0.206251 -0.49684,-0.229628 0.13229,-0.478347 0.83549,-0.3303 5.91623,-1.003931 10.64948,-1.411962 2.00091,-0.17249 3.63802,-0.412319 3.63802,-0.532955 0,-0.980502 -2.9287,-7.142189 -4.70099,-9.890404 -1.05068,-1.629255 -1.81002,-2.602317 -5.18219,-6.64083 -0.80911,-0.968986 -0.7821,-1.693544 0.0631,-1.693544 0.28341,0 1.4112,0.599213 2.50619,1.331585 4.46092,2.983647 8.21423,9.076798 10.36426,16.825404 0.0454,0.163688 0.45079,0.351657 0.90083,0.417709 0.80656,0.118379 0.81604,0.106576 0.66343,-0.826782 -0.79458,-4.859847 -2.01812,-10.012873 -3.3511,-14.113418 -0.82414,-2.535214 -1.0223,-3.452427 -0.795,-3.679724 0.48124,-0.481238 0.89951,0.04454 2.29252,2.881714 1.60045,3.25968 1.58632,3.225508 2.3823,5.762469 0.9676,3.083971 1.49411,5.530059 1.72443,8.011435 0.19376,2.0876 0.36863,2.699692 0.6818,2.386521 0.20601,-0.206009 0.62944,-10.321595 0.69552,-16.615664 0.044,-4.19494 0.0942,-4.884389 0.22154,-3.042708 l 0.16458,2.38125 0.05,-2.859885 c 0.0324,-1.851351 -0.0433,-2.80222 -0.21458,-2.696365 -0.39785,0.245881 -0.31795,-0.116726 0.12284,-0.557514 0.34018,-0.340179 0.32404,-0.450806 -0.13229,-0.907143 -0.32539,-0.325384 -0.5067,-0.841252 -0.48489,-1.379613 l 0.0348,-0.859896 0.16361,0.926042 c 0.12454,0.704909 0.30924,0.946686 0.77348,1.012497 0.65324,0.0926 1.37987,-0.357633 1.36608,-0.846457 -0.005,-0.164083 -0.15345,-0.109327 -0.33073,0.121679 -0.47451,0.618339 -1.32299,0.55724 -1.23984,-0.08928 0.005,-0.03638 -0.22454,-0.743487 -0.50936,-1.571348 -0.28483,-0.827861 -0.57976,-2.078017 -0.65541,-2.778125 -0.19523,-1.806862 -0.28314,-7.197758 -0.12004,-7.36086 0.0751,-0.07509 0.20818,1.799757 0.29575,4.166329 0.21985,5.941676 1.25133,8.898089 2.19358,6.287233 0.49115,-1.36091 0.44228,-2.767297 -0.17228,-4.957455 -0.30071,-1.071676 -0.50299,-2.079789 -0.4495,-2.240251 0.12448,-0.373451 1.22758,3.632484 1.28985,4.684165 0.0259,0.436562 -0.0308,1.27 -0.12596,1.852083 -0.16886,1.033273 -0.16331,1.028574 0.23458,-0.198438 0.48836,-1.506002 0.74404,-1.637737 0.51353,-0.264583 -0.2903,1.729298 -0.7043,2.786423 -1.31309,3.352888 -0.58579,0.545066 -0.59231,0.638128 -0.77122,11.000757 -0.12472,7.223945 -0.096,10.328493 0.0931,10.054166 0.15046,-0.218281 0.27539,-0.594497 0.27762,-0.836036 0.004,-0.40226 0.97579,-3.471905 1.97841,-6.247413 2.10118,-5.816654 6.4923,-11.905716 6.4923,-9.002727 0,0.271908 -0.17024,0.75808 -0.37832,1.080382 -0.42946,0.665224 -3.01734,7.031099 -3.69457,9.088224 -0.90094,2.73666 -2.20565,8.872613 -1.90647,8.965997 0.15995,0.04993 2.07676,0.290605 4.25957,0.534843 4.48194,0.501491 5.95313,0.804322 5.95313,1.225391 0,0.198047 -0.39953,0.226803 -1.25677,0.09046 -2.29633,-0.365236 -3.05166,-0.390208 -11.75395,-0.38859 -5.73642,0.0011 -8.70268,-0.09156 -8.81624,-0.275313 -0.29819,-0.482481 -11.0623,0.186382 -12.93908,0.804012 -0.89232,0.293652 -1.15881,0.293425 -1.87875,-0.0016 z m 16.12784,-2.954225 c -0.45701,-1.29533 -0.46481,-1.370121 -0.12055,-1.15736 0.40322,0.249202 0.3195,-0.292395 -0.27871,-1.803034 -2.2631,-5.714954 -5.79682,-10.680871 -9.24829,-12.996553 -1.99315,-1.337261 -2.50283,-1.5227 -1.6292,-0.592763 0.31774,0.338218 0.5199,0.672745 0.44925,0.743394 -0.0707,0.07065 0.58038,0.81891 1.44673,1.662802 2.91939,2.843722 5.33927,6.883225 8.6115,14.375216 0.20657,0.472943 0.55081,0.859896 0.76499,0.859896 0.34215,0 0.34267,-0.132516 0.004,-1.091598 z m 9.52935,-0.36361 c 0.76199,-2.742897 1.13931,-4.234194 1.30538,-5.159375 0.0914,-0.509323 0.39218,-1.521354 0.66836,-2.248958 0.27618,-0.727604 1.01227,-2.751667 1.63576,-4.497916 0.62349,-1.74625 1.2743,-3.413125 1.44625,-3.704167 0.17196,-0.291042 0.3878,-0.886354 0.47965,-1.322916 l 0.16701,-0.79375 -0.66827,0.79375 c -0.66038,0.784379 -2.77779,4.942496 -2.77779,5.45496 0,0.145646 -0.13746,0.179857 -0.30547,0.07602 -0.18001,-0.111254 -0.23399,-0.07314 -0.13143,0.0928 0.24675,0.399241 -0.0921,1.154456 -0.42546,0.948398 -0.1626,-0.100495 -0.19914,-0.04449 -0.0882,0.135112 0.10428,0.16872 -0.30312,1.739262 -0.90533,3.490094 -0.7941,2.308711 -1.1267,3.744065 -1.21056,5.224221 -0.0636,1.122489 -0.1816,2.249249 -0.26223,2.50391 -0.0962,0.303949 -0.007,0.463021 0.2607,0.463021 0.26832,0 0.54526,-0.496573 0.81158,-1.455208 z m -5.38916,-1.802167 c -0.16066,-1.337141 -0.34853,-2.728822 -0.4175,-3.092624 -0.069,-0.363803 -0.18431,-1.121541 -0.25629,-1.683863 -0.21685,-1.693905 -1.17637,-4.345006 -2.55327,-7.054563 -0.423,-0.832421 -0.7691,-1.654619 -0.7691,-1.827107 0,-0.172487 -0.11906,-0.240029 -0.26458,-0.150092 -0.14552,0.08994 -0.26458,0.03743 -0.26458,-0.116677 0,-0.154109 -0.12212,-0.280198 -0.27138,-0.280198 -0.15528,0 -0.0979,0.335453 0.13411,0.784122 0.79996,1.546969 2.22944,6.378847 3.18364,10.761249 0.53433,2.454056 1.09512,4.759576 1.24621,5.123378 0.45617,1.098392 0.5462,0.145396 0.23274,-2.463625 z"
       id="path15356" />
    <path
       style="fill:#496959;stroke-width:1.23835"
       d="m 193.91569,51.141931 c 0.23396,-0.455609 0.81661,-1.142013 1.29478,-1.525343 0.47817,-0.383329 0.99831,-0.800318 1.15586,-0.926642 0.15756,-0.126324 0.93147,-0.301594 1.7198,-0.389489 1.58926,-0.177196 1.5591,-0.153131 -0.61388,0.489767 -1.21971,0.360862 -1.76015,0.717475 -2.74999,1.814606 -0.97851,1.08457 -1.14444,1.195064 -0.80657,0.537101 z"
       id="path15325" />
    <path
       style="fill:#496959;stroke-width:1.23835"
       d="m 205.36572,53.511608 c -0.0854,-0.265628 -0.51266,-0.899679 -0.94958,-1.409002 -0.43692,-0.509323 -0.79469,-1.064286 -0.79503,-1.233251 -3.4e-4,-0.168965 -0.38757,-0.623709 -0.86051,-1.010541 -0.47295,-0.386833 -1.09273,-0.893453 -1.3773,-1.125823 -0.28457,-0.23237 -0.99894,-0.573333 -1.5875,-0.757696 -0.58855,-0.184364 -0.8398,-0.343171 -0.55832,-0.352906 1.09087,-0.03773 4.91218,2.431366 4.91218,3.173943 0,0.131995 0.37107,0.843055 0.8246,1.580133 0.45352,0.737077 0.76205,1.402682 0.68561,1.479122 -0.0764,0.07644 -0.20881,-0.07835 -0.29415,-0.343979 z"
       id="path15318" />
    <path
       style="fill:#496959;stroke-width:1.23835"
       d="m 201.68444,53.865289 c -0.53245,-1.689107 -0.55132,-2.526656 -0.0712,-3.159521 0.3209,-0.422991 0.37378,-0.42751 0.52075,-0.04451 0.26802,0.698432 0.18808,0.978193 -0.23329,0.816498 -0.29785,-0.114296 -0.39687,0.04368 -0.39687,0.633151 0,0.498547 0.13591,0.785446 0.3721,0.785446 0.22957,0 0.32387,0.184447 0.24619,0.481504 -0.0692,0.264827 0.0539,0.630719 0.27363,0.813094 0.37896,0.314511 0.32342,1.086652 -0.0782,1.086652 -0.10338,0 -0.3883,-0.635543 -0.63315,-1.412317 z"
       id="path15313" />
    <path
       style="fill:#496959;stroke-width:1.23835"
       d="m 189.86667,56.417692 c 0.002,-0.40877 0.3299,-1.281543 0.72761,-1.939495 1.47946,-2.447604 3.50184,-5.248104 4.16877,-5.772708 0.88104,-0.693024 2.32889,-1.171357 3.09816,-1.023551 0.50809,0.09762 0.48588,0.120779 -0.14509,0.151296 -0.40975,0.01982 -1.00506,0.179133 -1.32292,0.354036 -0.31785,0.174902 -0.73266,0.34383 -0.9218,0.375394 -0.59405,0.09914 -1.05703,0.620591 -2.52119,2.839548 -2.08484,3.159624 -2.84109,4.57992 -2.67253,5.019185 0.0823,0.214596 0.0225,0.468777 -0.1329,0.564845 -0.17513,0.108238 -0.2809,-0.107996 -0.27811,-0.56855 z"
       id="path15309" />
    <path
       style="fill:#496959;stroke-width:1.23835"
       d="m 195.09265,58.461268 c -0.36394,-0.286275 -0.72022,-0.461991 -0.79173,-0.390481 -0.0715,0.07151 -0.27475,-0.04437 -0.45165,-0.257522 -0.1769,-0.213148 -0.49152,-0.32235 -0.69916,-0.24267 -0.20765,0.07968 -0.37753,0.01307 -0.37753,-0.148019 0,-0.16109 0.17859,-0.292891 0.39687,-0.292891 0.21828,0 0.41368,-0.148828 0.43422,-0.330729 0.11308,-1.001444 -0.1115,-1.963054 -0.57323,-2.454551 -0.61197,-0.651411 -0.66022,-0.918886 -0.16576,-0.918886 0.30708,0 1.42069,1.987034 1.33153,2.375865 -0.30478,1.32919 -0.31273,1.857627 -0.028,1.858782 0.17827,7.23e-4 0.68131,0.294097 1.11787,0.651943 0.94013,0.770616 0.76663,0.904376 -0.19347,0.149159 z"
       id="path15296" />
    <path
       style="fill:#496959;stroke-width:1.23835"
       d="m 190.23336,59.08439 c 0.13321,-1.093534 0.61489,-1.954705 1.09332,-1.954705 0.4533,0 0.51475,1.000177 0.0975,1.5875 -0.2171,0.305603 -0.24543,0.229542 -0.1232,-0.330729 0.092,-0.421593 0.0453,-0.727604 -0.11089,-0.727604 -0.1483,0 -0.28451,0.119062 -0.3027,0.264583 -0.05,0.399862 -0.11854,0.601271 -0.45029,1.322917 -0.29885,0.65008 -0.30236,0.647294 -0.20377,-0.161962 z"
       id="path15294" />
    <path
       style="fill:#496959;stroke-width:1.23835"
       d="m 205.2105,60.794413 c -0.16327,-0.633152 -0.41006,-1.512695 -0.54842,-1.95454 -0.13835,-0.441844 -0.28048,-1.292913 -0.31584,-1.891264 -0.0354,-0.59835 -0.15359,-1.033486 -0.26273,-0.966968 -0.10914,0.06652 -0.19843,-0.0089 -0.19843,-0.167561 0,-0.158677 0.18163,-0.358201 0.40362,-0.443389 0.28493,-0.109336 0.32451,-0.250223 0.13459,-0.479061 -0.74888,-0.902346 1.18872,-0.663989 2.70293,0.332505 0.5457,0.359124 0.99219,0.774647 0.99219,0.923384 0,0.148737 -0.25832,0.04362 -0.57403,-0.233597 -0.56567,-0.496688 -0.57125,-0.49644 -0.38289,0.01707 0.23936,0.652581 -0.0797,0.352089 -0.47818,-0.450271 -0.16387,-0.329999 -0.55335,-0.636799 -0.86551,-0.681779 -0.58569,-0.08439 -0.66542,0.260748 -0.23282,1.007823 0.18702,0.322977 0.16346,0.335293 -0.12651,0.06614 -0.19597,-0.181901 -0.45156,-0.330729 -0.56798,-0.330729 -0.37708,0 -0.21566,2.198656 0.31007,4.223248 0.28197,1.085859 0.46635,2.020612 0.40973,2.077228 -0.0566,0.05662 -0.23652,-0.415095 -0.39979,-1.048248 z"
       id="path15290" />
    <path
       style="fill:#496959;stroke-width:1.23835"
       d="m 193.96863,61.315792 c -0.0975,-0.483348 -0.23589,-1.087175 -0.3076,-1.341836 -0.0717,-0.254662 -0.0188,-0.463021 0.11764,-0.463021 0.1364,0 0.3122,0.565547 0.39067,1.256771 0.1682,1.481749 0.0517,1.799835 -0.20071,0.548086 z"
       id="path15289" />
    <path
       style="fill:#496959;stroke-width:1.23835"
       d="m 193.34124,61.754084 c -0.17443,-1.160972 -0.37914,-2.49781 -0.4549,-2.970753 -0.0816,-0.509574 -0.0251,-0.859896 0.13883,-0.859896 0.15212,0 0.27657,0.513914 0.27657,1.142032 0,0.628117 0.12649,1.826244 0.28108,2.662505 0.15459,0.83626 0.23483,1.659184 0.17832,1.828721 -0.0565,0.169536 -0.24547,-0.641638 -0.4199,-1.802609 z"
       id="path15288" />
    <path
       style="fill:#496959;stroke-width:1.23835"
       d="m 209.49126,62.685935 c -0.30238,-0.727604 -0.43731,-1.322917 -0.29986,-1.322917 0.13746,0 0.24993,-0.114839 0.24993,-0.255198 0,-0.410456 -2.39787,-4.242718 -2.6547,-4.242718 -0.12859,0 0.24786,0.892969 0.83655,1.984375 0.5887,1.091406 1.01074,1.984375 0.93786,1.984375 -0.26492,0 -2.08375,-3.503598 -2.15479,-4.150745 l -0.073,-0.66511 0.66105,0.66105 c 0.97094,0.970946 2.97107,4.521132 2.65719,4.716469 -0.1725,0.107355 -0.15548,0.369038 0.0488,0.750811 0.32423,0.605837 0.62308,1.862525 0.44291,1.862525 -0.0562,0 -0.34959,-0.595313 -0.65197,-1.322917 z"
       id="path15287" />
    <path
       style="fill:#496959;stroke-width:1.23835"
       d="m 202.91143,62.950518 c 0,-0.945885 0.048,-1.332838 0.10671,-0.859896 0.0587,0.472943 0.0587,1.246849 0,1.719792 -0.0587,0.472943 -0.10671,0.08599 -0.10671,-0.859896 z"
       id="path15286" />
    <path
       style="fill:#496959;stroke-width:1.23835"
       d="m 202.20298,64.234623 c -0.23456,-2.244114 -0.2141,-8.369385 0.0284,-8.519153 0.10914,-0.06739 0.19895,2.18777 0.19957,5.011468 6.2e-4,2.823698 -0.0122,5.133997 -0.0285,5.133997 -0.0163,0 -0.10607,-0.731841 -0.19956,-1.626312 z"
       id="path15285" />
    <path
       style="fill:#496959;stroke-width:1.23835"
       d="m 213.07525,65.562915 c -0.40244,-0.300211 -0.86436,-0.802455 -1.02648,-1.116097 -0.29367,-0.568116 -0.21508,-0.510198 1.82903,1.347971 0.5875,0.534059 -0.005,0.362738 -0.80255,-0.231874 z"
       id="path15284" />
    <path
       style="fill:#496959;stroke-width:1.23835"
       d="m 214.89662,66.536135 c 0.0897,-0.233884 0.0176,-0.410617 -0.16772,-0.410617 -0.25527,0 -0.25427,-0.08557 0.005,-0.397531 0.18523,-0.223195 0.26511,-0.716333 0.18213,-1.124479 -0.18368,-0.903532 -1.48865,-3.874798 -1.63675,-3.7267 -0.0598,0.0598 0.18337,0.913457 0.54038,1.897007 0.35701,0.983551 0.63715,2.050749 0.62253,2.371551 -0.0174,0.381805 -0.10281,0.263409 -0.24726,-0.342765 -0.24479,-1.027162 -1.29522,-3.459786 -1.31388,-3.042708 -0.007,0.145521 -0.19904,-0.115049 -0.42785,-0.579044 -0.37897,-0.768495 -2.53803,-2.943605 -4.10211,-4.132597 -0.6069,-0.461355 -0.59811,-0.461355 0.24777,0 1.09855,0.599164 3.01186,2.35814 3.62888,3.336164 0.32318,0.512263 0.55244,0.656356 0.74227,0.466525 0.283,-0.283001 0.20042,-0.399667 -2.06705,-2.919974 -0.58542,-0.650701 -0.771,-0.948357 -0.41239,-0.661458 2.42445,1.939655 4.51005,5.436851 4.7148,7.905921 0.0717,0.865002 0.004,1.480736 -0.17447,1.591173 -0.18346,0.113382 -0.23309,0.02797 -0.13392,-0.230468 z"
       id="path15283" />
    <path
       style="fill:#496959;stroke-width:1.23835"
       d="m 191.45371,65.662497 c 0.003,-0.879331 0.078,-1.139806 0.25035,-0.86731 0.21198,0.335187 0.26999,0.327735 0.41627,-0.05348 0.0935,-0.243615 0.0815,-0.586096 -0.0266,-0.76107 -0.12461,-0.201628 -0.0848,-0.248997 0.10885,-0.129347 0.168,0.103833 0.29606,0.687776 0.28457,1.297652 -0.0115,0.609875 -0.0809,0.960036 -0.15434,0.778135 -0.21176,-0.524802 -0.61852,-0.384034 -0.61852,0.214052 0,0.344419 0.11235,0.475348 0.30547,0.355995 0.18925,-0.116967 0.23364,-0.07258 0.11667,0.116676 -0.40154,0.649717 -0.68655,0.252559 -0.68267,-0.951307 z"
       id="path15282" />
    <path
       style="fill:#496959;stroke-width:1.23835"
       d="m 182.99123,67.090251 c -0.0264,-0.723013 2.1681,-4.154949 3.62737,-5.672884 l 1.70558,-1.77414 -1.6159,1.852083 c -0.88875,1.018646 -2.08681,2.745052 -2.66236,3.836458 -0.57555,1.091406 -1.05016,1.882723 -1.05469,1.758483 z"
       id="path15281" />
    <path
       style="fill:#496959;stroke-width:1.23835"
       d="m 199.91612,67.161801 c -1.2e-4,-0.206155 -0.35731,-1.129658 -0.79375,-2.052229 -0.92009,-1.944905 -1.0081,-2.355821 -0.26409,-1.233014 0.63244,0.954426 1.44032,3.277799 1.21729,3.500821 -0.0876,0.08759 -0.15934,-0.0094 -0.15945,-0.215578 z"
       id="path15280" />
    <path
       style="fill:#496959;stroke-width:1.23835"
       d="m 207.50792,67.092211 c -0.51331,-0.783401 -1.24593,-2.523879 -1.22796,-2.917232 0.008,-0.164129 0.20392,0.177833 0.43649,0.759916 0.23257,0.582083 0.70874,1.445287 1.05816,1.918229 0.34942,0.472943 0.52388,0.859896 0.38769,0.859896 -0.13619,0 -0.43066,-0.279364 -0.65438,-0.620809 z"
       id="path15279" />
    <path
       style="fill:#496959;stroke-width:1.23835"
       d="m 205.68581,66.390103 c -0.101,-0.945885 -0.24857,-2.017447 -0.32792,-2.381249 -0.0794,-0.363803 0.0363,-0.125678 0.25705,0.529166 0.22073,0.654844 0.36829,1.726406 0.32792,2.38125 -0.0684,1.108753 -0.086,1.072365 -0.25705,-0.529167 z"
       id="path15278" />
    <path
       style="fill:#496959;stroke-width:1.23835"
       d="m 200.35273,68.445187 c -0.085,-0.324912 -0.0393,-0.705912 0.10143,-0.846666 0.37466,-0.374664 0.30177,-0.944015 -0.27325,-2.134459 -0.28117,-0.582084 -0.51525,-1.196851 -0.52019,-1.366151 -0.005,-0.1693 -0.73907,-1.300394 -1.6314,-2.513542 -1.10813,-1.506518 -1.35229,-1.954108 -0.77025,-1.411974 0.9942,0.926025 2.65795,3.678262 3.33545,5.517627 0.36209,0.983037 0.40403,1.394812 0.17881,1.75545 -0.16183,0.259136 -0.22838,0.723001 -0.14789,1.030811 0.0805,0.307809 0.0868,0.559654 0.0141,0.559654 -0.0728,0 -0.20181,-0.265838 -0.28677,-0.59075 z"
       id="path15277" />
    <path
       style="fill:#496959;stroke-width:1.23835"
       d="m 189.21805,68.540317 c -0.21622,-0.418113 -0.34869,-0.805066 -0.29439,-0.859896 0.0543,-0.05483 0.17177,-0.778135 0.26104,-1.607344 0.0893,-0.829209 0.33885,-1.900771 0.55461,-2.38125 l 0.39229,-0.873596 -0.20086,1.058333 c -0.11048,0.582083 -0.19792,1.557763 -0.1943,2.168178 0.004,0.687804 -0.0801,0.989643 -0.22139,0.79375 -0.1436,-0.19912 -0.17968,-0.09579 -0.0975,0.279218 0.0718,0.327421 0.0195,0.595312 -0.11613,0.595312 -0.13564,0 -0.0619,0.357187 0.16385,0.79375 0.22576,0.436562 0.35094,0.79375 0.27818,0.79375 -0.0728,0 -0.3092,-0.342092 -0.52541,-0.760205 z"
       id="path15276" />
    <path
       style="fill:#496959;stroke-width:1.23835"
       d="m 190.54714,69.015638 c -0.37674,-0.447727 -0.6842,-0.953743 -0.68324,-1.124479 9.6e-4,-0.170736 0.23117,0.03759 0.51157,0.462956 0.78579,1.191997 1.2786,1.359758 2.00095,0.681146 0.34001,-0.319417 0.76127,-0.926185 0.93615,-1.348374 0.17487,-0.422188 0.42257,-0.767615 0.55044,-0.767615 0.12786,0 0.21838,-0.0893 0.20115,-0.198437 -0.0817,-0.517373 0.0657,-0.598706 0.42821,-0.236236 0.53173,0.531729 0.50003,0.699256 -0.13229,0.699256 -0.54239,0 -0.73659,0.414947 -0.26829,0.573264 0.14348,0.04851 0.0119,0.445382 -0.29249,0.881945 -0.52701,0.755937 -0.53846,0.686672 -0.0874,-0.529167 0.10796,-0.291042 -0.24708,-0.02315 -0.78898,0.595312 -0.5419,0.618464 -1.14401,1.12448 -1.33802,1.12448 -0.194,0 -0.66097,-0.366323 -1.03771,-0.814051 z"
       id="path15275" />
    <path
       style="fill:#496959;stroke-width:1.23835"
       d="m 203.8011,68.946538 c -0.57978,-1.839292 -0.53838,-2.276263 0.0557,-0.588305 0.25295,0.718668 0.59705,1.35238 0.76466,1.408248 0.1676,0.05587 0.48225,-0.294007 0.69923,-0.777502 l 0.39449,-0.879082 -0.15781,0.79375 c -0.37639,1.89324 -1.16695,1.912546 -1.75631,0.04289 z"
       id="path15274" />
    <path
       style="fill:#496959;stroke-width:1.23835"
       d="m 186.29028,69.569384 c 0.58209,-0.638702 1.20717,-1.326175 1.38907,-1.527718 0.1819,-0.201543 0.3275,-0.26864 0.32357,-0.149105 -0.008,0.256995 -1.52395,1.903923 -2.25792,2.453759 -0.28218,0.211387 -0.0368,-0.138234 0.54528,-0.776936 z"
       id="path15273" />
    <path
       style="fill:#496959;stroke-width:1.23835"
       d="m 205.58884,70.389852 c 0.21694,-0.419515 0.46442,-1.160038 0.54997,-1.645608 0.1916,-1.087534 0.3941,-1.339163 0.38629,-0.480007 -0.006,0.665538 -0.91313,2.888368 -1.17867,2.888368 -0.0836,0 0.0255,-0.343239 0.24241,-0.762753 z"
       id="path15272" />
    <path
       style="fill:#496959;stroke-width:1.23835"
       d="m 181.60473,71.004506 c -0.7902,-1.734311 1.38341,-7.092268 4.06412,-10.018052 1.51131,-1.64947 3.38823,-3.123782 4.11208,-3.230021 0.21686,-0.03183 0.31394,0.02249 0.21572,0.120713 -0.0982,0.09822 -0.25796,0.17877 -0.35498,0.178995 -0.42606,9.92e-4 -2.1543,1.396523 -3.61597,2.919839 -2.69987,2.81375 -4.95952,8.265834 -4.15638,10.028526 0.16972,0.372496 0.24905,0.677266 0.17629,0.677266 -0.0728,0 -0.27116,-0.30477 -0.44088,-0.677266 z"
       id="path15271" />
    <path
       style="fill:#496959;stroke-width:1.23835"
       d="m 198.45384,71.319894 c -1.45975,-0.98306 -3.30454,-2.893538 -3.29197,-3.409197 0.004,-0.181482 0.14582,-0.09184 0.31421,0.1992 0.45151,0.780377 2.28801,2.468791 3.63215,3.33927 0.64695,0.418974 1.06208,0.761771 0.92251,0.761771 -0.13957,0 -0.84918,-0.40097 -1.5769,-0.891044 z"
       id="path15270" />
    <path
       style="fill:#496959;stroke-width:1.23835"
       d="m 204.32522,77.903157 c 0.0692,-3.199435 0.17703,-5.86842 0.23968,-5.931076 0.20171,-0.201704 0.069,8.787107 -0.15192,10.293024 -0.12645,0.861787 -0.16223,-0.916975 -0.0878,-4.361948 z"
       id="path15264" />
    <path
       style="fill:#496959;stroke-width:1.23835"
       d="m 203.66944,80.876042 c 0.0496,-4.090084 0.15101,-3.607401 0.27805,1.323493 0.0384,1.491906 -0.0194,2.712296 -0.12856,2.711979 -0.10914,-3.17e-4 -0.17641,-1.816279 -0.14949,-4.035472 z"
       id="path15262" />
    <path
       style="fill:#496959;stroke-width:1.23835"
       d="m 201.6556,94.369791 c -0.17669,-0.855962 -0.38685,-2.680544 -0.57003,-4.948909 -0.22726,-2.814262 -1.4343,-6.398795 -3.54796,-10.53636 -1.42483,-2.78915 -1.58027,-3.475203 -0.32525,-1.435538 2.45839,3.995398 5.08522,12.289451 5.08522,16.056296 0,1.452023 -0.40744,2.000696 -0.64198,0.864511 z"
       id="path15259" />
    <path
       style="fill:#496959;stroke-width:1.23835"
       d="m 203.29426,91.194792 c 0.0667,-2.219193 0.19711,-4.118794 0.28987,-4.221336 0.0928,-0.102542 0.12969,0.908765 0.0821,2.247348 -0.0476,1.338583 -0.0137,2.360892 0.0754,2.271797 0.0891,-0.08909 0.16661,-1.048071 0.17227,-2.131058 0.006,-1.082988 0.13015,-2.140461 0.27666,-2.349941 0.18416,-0.263313 0.22262,0.224246 0.1246,1.5796 -0.078,1.07826 -0.0144,2.554244 0.1412,3.279965 0.35146,1.638764 -0.0611,3.35852 -0.80562,3.35852 -0.44495,0 -0.46938,-0.27655 -0.35646,-4.034895 z m 0.51763,1.322916 c -0.0587,-0.472942 -0.10671,-0.08599 -0.10671,0.859896 0,0.945885 0.048,1.332838 0.10671,0.859896 0.0587,-0.472943 0.0587,-1.246849 0,-1.719792 z"
       id="path15258" />
    <path
       style="fill:#496959;stroke-width:1.23835"
       d="m 200.0493,94.105208 c -0.6457,-4.076401 -2.15841,-10.549881 -3.19359,-13.666619 -0.71615,-2.15619 -0.7092,-2.821594 0.0107,-1.028732 0.5874,1.462787 2.26099,6.787145 2.21063,7.032892 -0.0212,0.103389 0.0309,0.366574 0.11562,0.584855 0.24036,0.618867 1.01112,4.37566 1.26226,6.152425 0.1247,0.882205 0.38194,1.702457 0.57165,1.822782 0.24357,0.154489 0.17683,0.219964 -0.22713,0.222825 -0.46964,0.0033 -0.60395,-0.197261 -0.75018,-1.120428 z"
       id="path15257" />
    <path
       style="fill:#496959;stroke-width:1.23835"
       d="m 203.61782,95.73038 c -0.61294,-0.170601 -0.60026,-0.185198 0.18221,-0.209736 0.46255,-0.0145 1.0281,-0.213472 1.25677,-0.442147 0.31084,-0.310838 0.41525,-0.327533 0.41371,-0.06615 -0.003,0.509601 -1.08915,0.930546 -1.85269,0.718029 z"
       id="path15256" />
    <path
       style="fill:#496959;stroke-width:1.23835"
       d="m 216.05591,96.784544 c -0.50932,-0.133683 -2.38962,-0.290478 -4.17843,-0.348435 -3.81497,-0.123602 -5.41692,-0.349381 -5.18151,-0.730283 0.092,-0.148895 0.003,-0.374646 -0.19731,-0.501669 -0.2862,-0.181278 -0.29014,-0.231821 -0.0183,-0.235002 0.19049,-0.0022 0.27428,-0.120653 0.1862,-0.263166 -0.0881,-0.142514 -0.0412,-0.481282 0.10408,-0.752819 0.25394,-0.474496 0.56676,-1.670272 0.61778,-2.361503 0.0134,-0.181901 0.13066,-0.33073 0.26051,-0.33073 0.12986,0 0.18244,-0.0893 0.11685,-0.198437 -0.17235,-0.286783 0.44536,-3.092355 1.12139,-5.093229 2.07998,-6.156266 2.45923,-7.142219 2.69191,-6.99841 0.13058,0.0807 0.16651,-0.03805 0.0798,-0.263889 -0.0867,-0.22584 -0.0258,-0.410617 0.13532,-0.410617 0.16109,0 0.29289,-0.172992 0.29289,-0.384426 0,-0.693415 0.59883,-1.720266 0.89858,-1.540864 0.16063,0.09613 0.13206,-0.02254 -0.0635,-0.263716 -0.32456,-0.400313 -0.40695,-0.375934 -0.94604,0.27994 -1.27104,1.546359 -2.30378,3.274838 -2.71214,4.53927 -0.23504,0.727741 -0.51281,1.270339 -0.61728,1.205774 -0.25684,-0.158734 -1.10224,1.759487 -1.18604,2.691113 -0.10154,1.128902 -0.71709,2.997908 -0.98735,2.997908 -0.13107,0 -0.16535,0.118053 -0.0762,0.262339 0.0892,0.144286 -0.0192,0.888427 -0.24073,1.653646 -0.22158,0.765219 -0.47554,1.859319 -0.56436,2.431335 -0.11778,0.758529 -0.22634,0.937562 -0.40106,0.661458 -0.13176,-0.208213 -0.23996,-0.735757 -0.24043,-1.17232 -10e-4,-0.971921 1.47303,-5.573159 1.76611,-5.51276 0.11606,0.02392 0.22306,-0.273737 0.23778,-0.661458 0.0372,-0.980317 1.83907,-5.07545 3.0268,-6.87905 1.59743,-2.425747 2.47529,-3.336501 3.01599,-3.129015 0.57019,0.218802 0.55012,0.294428 -1.02219,3.852763 -2.07578,4.697731 -5.1918,15.131114 -4.68578,15.689428 0.0922,0.101699 0.7629,0.244378 1.49051,0.317064 4.22092,0.421662 8.21391,1.016019 8.29082,1.234093 0.0488,0.138384 0.19764,0.184307 0.33073,0.102052 0.13309,-0.08226 0.24199,-0.02347 0.24199,0.130643 0,0.323617 -0.30201,0.320377 -1.5875,-0.01703 z"
       id="path15255" />
    <path
       style="fill:#496959;stroke-width:1.23835"
       d="m 180.86633,96.800554 c 0,-0.390954 8.24989,-1.480466 12.17083,-1.607326 1.09141,-0.03531 2.11985,-0.108702 2.28544,-0.16309 0.59207,-0.194469 -2.16995,-6.409959 -4.49168,-10.107797 -0.59782,-0.952159 -1.80449,-2.597412 -2.6815,-3.656119 -2.89343,-3.492908 -3.33648,-4.094038 -3.23805,-4.393362 0.22251,-0.676599 1.26417,-0.387203 3.15262,0.875868 4.08369,2.731341 7.79696,8.392206 9.73115,14.835123 0.32765,1.091406 0.70183,2.192734 0.83153,2.447396 0.16602,0.325987 0.13265,0.463021 -0.11274,0.463021 -0.60848,0 -1.20908,-0.635013 -1.37634,-1.455209 l -0.16187,-0.79375 0.41412,0.661459 0.41412,0.661458 -0.1667,-0.79375 c -0.0917,-0.436563 -0.44985,-1.517467 -0.79591,-2.402009 -0.34605,-0.884543 -0.62919,-1.722977 -0.62919,-1.863187 0,-0.542402 -2.69579,-4.919215 -4.34912,-7.061122 -0.95497,-1.237159 -1.73721,-2.350004 -1.73834,-2.472989 -10e-4,-0.122985 -0.47737,-0.495055 -1.05833,-0.826822 -0.58096,-0.331767 -1.05629,-0.725747 -1.05629,-0.87551 0,-0.149764 -0.13746,-0.187344 -0.30547,-0.08351 -0.182,0.112485 -0.23392,0.07303 -0.12845,-0.09763 0.0996,-0.161114 -0.0851,-0.366314 -0.42214,-0.469051 -0.32953,-0.100449 -0.81032,-0.368145 -1.06842,-0.59488 -0.30532,-0.268208 -0.55955,-0.321975 -0.72764,-0.153887 -0.16808,0.168089 0.563,1.151784 2.09243,2.815414 1.29294,1.40638 3.01199,3.561013 3.82011,4.788074 2.28872,3.475187 5.19175,9.496024 4.33838,8.997737 -0.17752,-0.103656 -0.1325,0.04036 0.10004,0.320036 0.5534,0.665564 0.81871,1.434543 0.49494,1.434543 -0.14096,0 -0.22652,0.133025 -0.19014,0.295611 0.0708,0.316312 -0.10295,0.330938 -7.17606,0.604127 -2.38249,0.09202 -4.42517,0.225015 -4.53928,0.295544 -0.38445,0.237601 -3.43205,0.571117 -3.43205,0.375588 z"
       id="path15254" />
    <path
       style="fill:#35574a;stroke-width:1.23835"
       d="m 201.79299,54.176055 c -0.38678,-1.109519 -0.1701,-1.270246 0.35181,-0.260969 0.22848,0.441828 0.30839,0.86947 0.17758,0.950316 -0.13081,0.08085 -0.36904,-0.22936 -0.52939,-0.689347 z"
       id="path15100" />
    <path
       style="fill:#35574a;stroke-width:1.23835"
       d="m 213.8117,61.638145 c -0.2612,-0.579254 -0.69655,-1.253765 -0.96744,-1.498913 -0.27088,-0.245148 -0.49252,-0.555468 -0.49252,-0.6896 0,-0.362446 1.18034,1.119099 1.70208,2.136416 0.24948,0.486466 0.40393,0.934164 0.34321,0.994885 -0.0607,0.06072 -0.32412,-0.363534 -0.58533,-0.942788 z"
       id="path15091" />
    <path
       style="fill:#35574a;stroke-width:1.23835"
       d="m 202.13881,59.643231 c 3.7e-4,-2.182813 0.0413,-3.040574 0.0911,-1.906136 0.0497,1.134437 0.0494,2.920375 -6.8e-4,3.968749 -0.0501,1.048375 -0.0908,0.120199 -0.0904,-2.062613 z"
       id="path15090" />
    <path
       style="fill:#35574a;stroke-width:1.23835"
       d="m 202.90873,62.818231 c 0.001,-0.873125 0.0509,-1.198415 0.10976,-0.722866 0.0589,0.475549 0.0577,1.189924 -0.003,1.5875 -0.0604,0.397576 -0.10855,0.0085 -0.10706,-0.864634 z"
       id="path15089" />
    <path
       style="fill:#35574a;stroke-width:1.23835"
       d="m 184.31677,64.333307 c 0.34254,-0.621916 0.84858,-1.335085 1.12454,-1.584821 0.27595,-0.249735 0.0627,0.199574 -0.47382,0.998465 -1.23435,1.837856 -1.44413,2.026888 -0.65072,0.586356 z"
       id="path15087" />
    <path
       style="fill:#35574a;stroke-width:1.23835"
       d="m 182.33396,66.390105 c 0.19559,-0.722668 1.67141,-3.439583 1.86839,-3.439583 0.0672,0 -0.0229,0.267891 -0.2002,0.595313 -0.17731,0.327422 -0.66547,1.250156 -1.08479,2.05052 -0.41933,0.800365 -0.68185,1.157552 -0.5834,0.79375 z"
       id="path15084" />
    <path
       style="fill:#35574a;stroke-width:1.23835"
       d="m 204.51525,77.10573 c 5.2e-4,-1.74625 0.0433,-2.426194 0.0952,-1.510986 0.0518,0.915208 0.0514,2.343958 -9.5e-4,3.175 -0.0523,0.831042 -0.0947,0.08224 -0.0942,-1.664014 z"
       id="path13804" />
    <path
       style="fill:#35574a;stroke-width:1.23835"
       d="m 208.91216,80.547725 c 0,-0.348573 1.82252,-3.142542 2.74635,-4.210217 0.91968,-1.06288 1.75156,-1.180591 1.75156,-0.247846 0,0.405353 -0.0435,0.398957 -0.39356,-0.05784 -0.38517,-0.502635 -0.40531,-0.49948 -0.94426,0.147868 -0.30289,0.363802 -1.13781,1.539938 -1.8554,2.613635 -0.71758,1.073697 -1.30469,1.863178 -1.30469,1.754402 z"
       id="path13803" />
    <path
       style="fill:#35574a;stroke-width:1.23835"
       d="m 203.70945,80.413021 c 0,-1.091406 0.0467,-1.53789 0.10378,-0.992187 0.0571,0.545703 0.0571,1.438672 0,1.984375 -0.0571,0.545703 -0.10378,0.09922 -0.10378,-0.992188 z"
       id="path13801" />
    <path
       style="fill:#35574a;stroke-width:1.23835"
       d="m 188.21803,81.277643 c -0.81984,-1.014694 -1.6485,-2.014996 -1.84147,-2.222892 -0.19297,-0.207895 -0.58898,-0.659501 -0.88003,-1.003568 l -0.52916,-0.625577 0.59531,0.312392 c 0.32742,0.171815 0.59531,0.429934 0.59531,0.573597 0,0.143663 0.68416,0.91338 1.52036,1.710483 0.8362,0.797102 1.41329,1.449277 1.28243,1.449277 -0.13085,0 0.0302,0.232543 0.35791,0.516763 0.32771,0.28422 0.54951,0.655737 0.49289,0.825594 -0.0566,0.169857 -0.77372,-0.521374 -1.59355,-1.536069 z"
       id="path13800" />
    <path
       style="fill:#35574a;stroke-width:1.23835"
       d="m 197.99521,83.936352 c -0.26241,-0.464632 -1.27976,-4.114818 -1.17581,-4.218766 0.0607,-0.06067 0.3141,0.577004 0.56319,1.417045 0.24909,0.840041 0.56835,1.810624 0.70947,2.156851 0.24236,0.594615 0.16515,1.108751 -0.0969,0.64487 z"
       id="path13797" />
    <path
       style="fill:#35574a;stroke-width:1.23835"
       d="m 191.95153,86.76302 c -0.0195,-0.218281 -0.0133,-0.557651 0.0136,-0.754156 0.027,-0.196504 -0.065,-0.286823 -0.20429,-0.200709 -0.23589,0.145788 -0.61067,-0.316659 -1.58482,-1.955552 -0.21624,-0.363802 0.10176,-0.125677 0.70667,0.529167 1.43509,1.553557 1.64389,1.925087 1.34627,2.395506 -0.20913,0.330545 -0.24689,0.328605 -0.27747,-0.01426 z"
       id="path13792" />
    <path
       style="fill:#35574a;stroke-width:1.23835"
       d="m 208.03554,89.805728 c 0.14122,-1.438932 1.58374,-5.863362 1.83104,-5.616068 0.0565,0.05653 -0.20106,0.986079 -0.57241,2.065672 -0.37135,1.079593 -0.84151,2.677271 -1.04481,3.550396 l -0.36962,1.5875 z"
       id="path13790" />
    <path
       style="fill:#35574a;stroke-width:1.23835"
       d="m 194.76796,92.087699 c 0.11207,-0.395735 0.0791,-0.567306 -0.0892,-0.463335 -0.14694,0.09081 -0.39749,-0.162169 -0.55677,-0.562179 -0.15929,-0.40001 -0.40464,-0.993722 -0.54522,-1.319361 -0.18672,-0.432522 -0.16909,-0.57512 0.0654,-0.529167 0.35531,0.06963 1.861,3.109014 1.64646,3.323554 -0.0742,0.07416 -0.13666,-0.03383 -0.13889,-0.23999 -0.003,-0.309745 -0.0523,-0.305916 -0.28191,0.02205 -0.21426,0.306031 -0.23713,0.253025 -0.0999,-0.231571 z"
       id="path12797" />
    <path
       style="fill:#35574a;stroke-width:1.23835"
       d="m 203.44486,91.260937 c 0,-1.091406 0.0467,-1.53789 0.10379,-0.992187 0.0571,0.545703 0.0571,1.438672 0,1.984375 -0.0571,0.545703 -0.10379,0.09922 -0.10379,-0.992188 z"
       id="path12795" />
    <path
       style="fill:#35574a;stroke-width:1.23835"
       d="m 201.50845,92.980729 c -0.0338,-0.582083 -0.0941,-1.891771 -0.13395,-2.910417 -0.0839,-2.142098 -1.98478,-7.831651 -3.7775,-11.306579 -0.5806,-1.125389 -0.94772,-1.979474 -0.81584,-1.897965 0.51775,0.319986 2.72464,5.151055 3.67461,8.044022 1.28371,3.909345 1.61625,5.820938 1.33496,7.674064 -0.21262,1.400754 -0.22319,1.415605 -0.28228,0.396875 z"
       id="path12794" />
    <path
       style="fill:#35574a;stroke-width:1.23835"
       d="m 199.41713,90.731771 c -0.34731,-1.819011 -0.68765,-3.545417 -0.7563,-3.836458 -0.0686,-0.291042 -0.0484,-0.455769 0.0449,-0.366061 0.0934,0.08971 0.34919,0.923146 0.56849,1.852084 0.2193,0.928937 0.52211,2.105695 0.67289,2.615018 0.15079,0.509323 0.23531,1.402292 0.18782,1.984375 -0.0678,0.830509 -0.22229,0.346384 -0.71784,-2.248958 z"
       id="path12793" />
    <path
       style="fill:#35574a;stroke-width:1.23835"
       d="m 197.42582,92.667618 c -0.41743,-1.282997 -1.20594,-3.248131 -1.75224,-4.366964 -0.54631,-1.118833 -0.92643,-2.101099 -0.84471,-2.182813 0.0817,-0.08171 0.0214,-0.14857 -0.13398,-0.14857 -0.25403,0 -1.16985,-1.316184 -1.38076,-1.984375 -0.0459,-0.145521 -0.30763,-0.421558 -0.58155,-0.613416 -0.27391,-0.191858 -0.4296,-0.459539 -0.34598,-0.594848 0.0836,-0.135309 -0.0334,-0.510842 -0.26015,-0.834518 -0.22672,-0.323676 -0.41221,-0.481725 -0.41221,-0.351219 0,0.130506 -0.29398,-0.0389 -0.6533,-0.376463 -0.35932,-0.337561 -0.59149,-0.713762 -0.51594,-0.836002 0.0755,-0.12224 -0.40437,-0.604103 -1.06649,-1.070806 -0.66212,-0.466703 -1.20385,-0.942274 -1.20385,-1.056824 0,-0.114551 -0.47625,-0.451238 -1.05833,-0.748195 -1.07841,-0.55016 -1.43345,-0.913368 -0.59532,-0.608994 0.25467,0.09248 1.23693,0.740615 2.18282,1.440298 3.66902,2.714021 7.40943,8.695584 9.12257,14.588556 0.72117,2.480763 0.32362,2.278365 -0.50058,-0.254847 z"
       id="path12788" />
    <path
       style="fill:#35574a;stroke-width:1.23835"
       d="m 195.30377,94.138329 c -0.55854,-1.395932 -0.41192,-1.560448 0.256,-0.287259 0.28327,0.539958 0.63523,1.069216 0.78215,1.176128 0.15468,0.112566 0.0843,0.196092 -0.16718,0.198438 -0.26373,0.0025 -0.60579,-0.424563 -0.87097,-1.087307 z"
       id="path12786" />
  </g>
</svg>
