<?xml version="1.0" encoding="UTF-8" standalone="no"?>
<!-- Created with Inkscape (http://www.inkscape.org/) -->

<svg
   width="185"
   height="185"
   viewBox="0 0 48.947914 48.947918"
   version="1.1"
   id="svg1"
   xmlns="http://www.w3.org/2000/svg"
   xmlns:svg="http://www.w3.org/2000/svg">
  <defs
     id="defs1" />
  <g
     id="layer1">
    <g
       id="g23806"
       transform="matrix(0.81156586,0,0,0.81156586,-56.090189,-17.666065)"
       style="display:inline;stroke-width:1.23219">
      <path
         style="fill:#0372c4;stroke-width:1.23219"
         d="m 109.54808,81.830828 c -2.34147,-0.336619 -6.33057,-1.385607 -8.36636,-2.200052 l -1.753497,-0.701508 -2.724938,0.925618 c -4.472096,1.5191 -7.482506,2.011053 -12.291499,2.008646 -3.426098,-0.0017 -4.764671,-0.121299 -7.328179,-0.654676 -4.603097,-0.957747 -7.314634,-2.34219 -7.314634,-3.734671 0,-1.693013 4.177028,-4.456221 9.326935,-6.17 l 1.782126,-0.593053 -1.582223,-1.189378 c -2.011542,-1.512104 -3.943676,-3.669703 -5.468196,-6.106294 -1.405881,-2.246974 -1.71983,-3.679547 -0.957555,-4.369396 2.416818,-2.187191 13.652945,-0.03708 17.503131,3.349347 0.614759,0.540711 0.624924,0.54121 0.475897,0.02334 -0.08375,-0.291041 -0.583469,-2.076979 -1.110478,-3.968749 -1.559556,-5.598236 -2.748139,-9.0018 -3.584565,-10.264573 -1.184867,-1.788822 -4.163347,-5.024746 -5.801739,-6.30321 -3.287501,-2.56529 -5.027083,-4.250658 -5.027083,-4.870414 0,-2.27682 4.688124,-4.142442 9.349598,-3.720639 1.706394,0.154406 1.863929,0.120902 2.778124,-0.590839 1.106322,-0.861321 2.150088,-1.45654 3.482694,-1.986045 0.509323,-0.202377 1.929809,-1.114532 3.156636,-2.02701 2.253284,-1.675927 4.004439,-2.632263 4.839465,-2.642916 1.56663,-0.01999 6.78416,3.691175 9.12279,6.488927 0.83226,0.995658 1.02856,1.105851 1.58982,0.892461 0.88655,-0.337064 5.57381,-0.305527 7.27358,0.04894 2.28996,0.477543 4.54405,1.672024 5.09866,2.701872 0.66146,1.22825 0.38671,2.061895 -1.03206,3.13151 -3.64593,2.748683 -5.46739,4.30869 -6.78962,5.815026 -1.65951,1.890594 -4.23349,5.914184 -5.00909,7.830105 -0.48301,1.193171 -2.34018,8.060245 -2.48836,9.200974 -0.0378,0.291042 -0.1532,0.826823 -0.25644,1.190625 l -0.18771,0.661458 0.43978,-0.661458 c 0.48863,-0.734926 3.3403,-2.610183 5.2618,-3.460154 3.03994,-1.344709 9.05528,-2.367754 11.64158,-1.979914 2.21058,0.331496 2.827,1.737254 1.73973,3.96747 -1.01323,2.078348 -3.96671,5.670496 -5.907,7.184339 -1.04662,0.816582 -1.93432,1.566985 -1.97267,1.667562 -0.0384,0.100576 0.65276,0.343153 1.53583,0.53906 2.18317,0.484334 7.18435,2.986819 8.62738,4.316953 0.97453,0.898288 1.16425,1.2264 1.0985,1.899734 -0.0706,0.72313 -0.3008,0.924993 -2.06385,1.809898 -4.46032,2.238708 -11.71428,3.316257 -17.10631,2.541082 z"
         id="path23805" />
      <path
         style="fill:#447943;stroke-width:1.23219"
         d="m 109.54808,81.830828 c -2.34147,-0.336619 -6.33057,-1.385607 -8.36636,-2.200052 l -1.753497,-0.701508 -2.724938,0.925618 c -4.472096,1.5191 -7.482506,2.011053 -12.291499,2.008646 -3.426098,-0.0017 -4.764671,-0.121299 -7.328179,-0.654676 -4.603097,-0.957747 -7.314634,-2.34219 -7.314634,-3.734671 0,-1.693013 4.177028,-4.456221 9.326935,-6.17 l 1.782126,-0.593053 -1.582223,-1.189378 c -2.011542,-1.512104 -3.943676,-3.669703 -5.468196,-6.106294 -1.405881,-2.246974 -1.71983,-3.679547 -0.957555,-4.369396 2.416818,-2.187191 13.652945,-0.03708 17.503131,3.349347 0.614759,0.540711 0.624924,0.54121 0.475897,0.02334 -0.08375,-0.291041 -0.583469,-2.076979 -1.110478,-3.968749 -1.559556,-5.598236 -2.748139,-9.0018 -3.584565,-10.264573 -1.184867,-1.788822 -4.163347,-5.024746 -5.801739,-6.30321 -3.287501,-2.56529 -5.027083,-4.250658 -5.027083,-4.870414 0,-2.27682 4.688124,-4.142442 9.349598,-3.720639 1.748436,0.158211 1.845832,0.134949 2.910416,-0.695125 0.605794,-0.472347 0.935649,-0.649858 0.733011,-0.394469 -0.560039,0.705831 -0.109555,0.884582 0.584966,0.232113 0.336227,-0.315869 0.74545,-0.574307 0.909384,-0.574307 0.163933,0 0.384151,-0.139296 0.489371,-0.309546 0.134388,-0.217444 0.04063,-0.249253 -0.315114,-0.106909 -1.134463,0.453936 -1.272418,0.46085 -0.702085,0.03519 0.340704,-0.254281 0.815038,-0.377522 1.102213,-0.286376 0.277268,0.088 0.579963,0.03729 0.672657,-0.112691 0.09269,-0.149982 1.313951,-1.122375 2.713905,-2.160873 2.540066,-1.884244 4.29651,-2.862821 5.158195,-2.873814 1.023709,-0.01306 3.40868,1.355436 5.67272,3.255 2.99139,2.50983 4.33381,3.980396 3.73823,4.095094 -0.69976,0.134761 -2.70766,-0.960592 -4.076,-2.223549 -1.65651,-1.528935 -3.8595,-2.986857 -4.794792,-3.173158 -1.086736,-0.216467 -1.857155,0.17888 -4.458696,2.288018 -3.20197,2.595921 -5.999128,3.779552 -6.871129,2.907551 -0.139461,-0.139461 -0.410101,-0.156821 -0.601422,-0.03858 -0.23724,0.146623 0.118088,0.404101 1.1174,0.809692 3.150881,1.278849 3.913832,2.036284 5.154566,5.117298 0.338388,0.840293 0.399859,2.302655 0.09679,2.302655 -0.110676,0 -0.600818,-0.763308 -1.089203,-1.696239 -1.118093,-2.135819 -2.440427,-3.417017 -4.133526,-4.004937 -1.700123,-0.590359 -5.533923,-0.800144 -7.511703,-0.41104 -1.582678,0.311373 -3.740079,1.211797 -3.724144,1.554328 0.0049,0.105745 0.956414,0.828177 2.114433,1.605405 1.229914,0.825483 2.849105,2.252917 3.89366,3.432544 2.438153,2.753433 2.909883,3.224105 3.231352,3.224105 0.152136,0 0.27661,-0.132089 0.27661,-0.29353 0,-0.28535 0.451704,-0.254057 2.579687,0.178713 0.692645,0.140863 0.859896,0.09018 0.859896,-0.260554 0,-0.239487 -0.26789,-0.534597 -0.595312,-0.6558 -0.558037,-0.206571 -0.540892,-0.232331 0.273812,-0.411399 0.478019,-0.105066 1.430519,-0.150891 2.116667,-0.101834 1.228903,0.08786 1.248755,0.07668 1.328771,-0.748181 0.119418,-1.231047 0.767471,-1.33702 1.087537,-0.177839 0.302335,1.094968 0.98554,1.941257 1.567167,1.941257 0.222728,0 0.662578,0.242019 0.977443,0.537819 l 0.572482,0.53782 0.170182,-2.059174 c 0.518456,-6.273209 0.965815,-8.411371 1.366082,-6.529214 0.08958,0.421231 0.228185,1.004 0.30801,1.295041 0.07982,0.291042 0.221481,1.957917 0.314793,3.704167 l 0.169657,3.175 0.6499,-0.0727 c 0.35744,-0.03998 0.71462,-0.172765 0.79375,-0.295069 0.0791,-0.122304 0.40909,-0.30513 0.73326,-0.40628 0.62696,-0.195622 0.9357,-1.04379 1.25923,-3.459287 0.2055,-1.534293 1.12308,-3.276792 2.48486,-4.718774 1.07785,-1.14133 2.22496,-1.786337 4.06222,-2.284134 0.68858,-0.186568 1.18757,-0.443408 1.10886,-0.570757 -0.20497,-0.331649 4.09784,-0.286214 5.76209,0.06084 2.28996,0.477543 4.54405,1.672024 5.09866,2.701872 0.66146,1.22825 0.38671,2.061895 -1.03206,3.13151 -3.64593,2.748683 -5.46739,4.30869 -6.78962,5.815026 -1.65951,1.890594 -4.23349,5.914184 -5.00909,7.830105 -0.48301,1.193171 -2.34018,8.060245 -2.48836,9.200974 -0.0378,0.291042 -0.1532,0.826823 -0.25644,1.190625 l -0.18771,0.661458 0.43978,-0.661458 c 0.48863,-0.734926 3.3403,-2.610183 5.2618,-3.460154 3.03994,-1.344709 9.05528,-2.367754 11.64158,-1.979914 2.21058,0.331496 2.827,1.737254 1.73973,3.96747 -1.01323,2.078348 -3.96671,5.670496 -5.907,7.184339 -1.04662,0.816582 -1.93432,1.566985 -1.97267,1.667562 -0.0384,0.100576 0.65276,0.343153 1.53583,0.53906 2.18317,0.484334 7.18435,2.986819 8.62738,4.316953 0.97453,0.898288 1.16425,1.2264 1.0985,1.899734 -0.0706,0.72313 -0.3008,0.924993 -2.06385,1.809898 -4.46032,2.238708 -11.71428,3.316257 -17.10631,2.541082 z M 96.725691,65.949464 c 0.637915,-1.359806 1.262993,-2.679118 1.389063,-2.931805 0.12607,-0.252687 0.229218,-0.699171 0.229218,-0.992187 0,-0.293017 0.100005,-0.532757 0.222234,-0.532757 0.122229,0 0.381381,-0.482219 0.575893,-1.071597 0.194513,-0.589378 0.436584,-1.122848 0.537937,-1.185487 0.101354,-0.06264 0.452494,0.627938 0.780304,1.534617 0.98364,2.72059 2.39822,5.52348 2.73172,5.412699 0.33523,-0.11136 1.67196,-4.401269 2.57445,-8.262107 0.30615,-1.309687 0.85072,-3.318017 1.21017,-4.462955 0.35944,-1.144937 0.6109,-2.124341 0.55879,-2.176453 -0.0521,-0.05211 -0.72316,0.319109 -1.49122,0.824934 -0.76806,0.505826 -1.45214,0.919683 -1.52018,0.919683 -0.068,0 -0.83074,0.48013 -1.69488,1.066955 -0.86414,0.586825 -2.12487,1.304303 -2.80163,1.594396 l -1.230467,0.52744 -1.086456,-0.561247 c -1.005872,-0.519618 -3.386603,-2.214349 -4.448343,-3.166567 -0.675286,-0.605628 -3.674538,-2.170039 -3.841072,-2.003504 -0.07937,0.07937 -0.02041,0.475549 0.131025,0.880397 0.151435,0.404848 0.580378,1.748119 0.953207,2.985046 2.12588,7.052989 2.63005,8.62317 2.841751,8.850312 0.128847,0.138245 0.233828,0.435901 0.233292,0.661459 -0.0013,0.566008 1.658279,4.763885 1.839078,4.65179 0.08045,-0.04988 0.668202,-1.203256 1.306116,-2.563062 z M 100.9898,53.217975 c 1.05172,-0.618668 4.79261,-3.18407 5.61566,-3.851062 1.97783,-1.602825 2.32184,-1.992689 2.32184,-2.631293 0,-1.050982 -0.71142,-1.647655 -1.95923,-1.64322 -1.09664,0.0039 -2.92018,0.527959 -3.84347,1.104564 -0.39436,0.246282 -0.59351,0.240937 -0.91336,-0.02451 -0.33939,-0.281669 -0.54259,-0.244366 -1.19346,0.21909 -0.43143,0.307207 -1.040648,0.973146 -1.353818,1.479865 -0.313169,0.506719 -0.6299,0.921308 -0.703846,0.921308 -0.252518,0 -1.127685,-1.189795 -1.136508,-1.54509 -0.01516,-0.610654 -1.160264,-1.347343 -2.108565,-1.356524 -0.500026,-0.0048 -1.676587,-0.201272 -2.61458,-0.436511 -1.424981,-0.357372 -1.884626,-0.373742 -2.795029,-0.09955 -0.599273,0.180489 -1.482706,0.443758 -1.963184,0.585041 -1.132195,0.332919 -0.97784,0.712437 0.627617,1.543138 1.376212,0.712084 2.416195,1.306727 2.87834,1.645781 0.659415,0.483782 4.814259,3.681716 5.203399,4.004993 1.286548,1.0688 2.22984,1.088914 3.938194,0.08398 z m 12.96459,-10.482448 c 1.52797,-1.585779 3.55203,-3.411126 4.49791,-4.056324 1.93096,-1.317123 2.14315,-1.909308 0.92605,-2.584393 -2.4071,-1.335132 -6.81704,-1.43019 -9.92188,-0.213868 -2.09686,0.821446 -2.55356,1.198361 -3.8758,3.198684 -1.63626,2.475381 -1.97266,4.058838 -0.94528,4.449446 0.34221,0.130108 1.38294,0.23656 2.31274,0.23656 1.45046,0 1.78447,0.09394 2.352,0.661459 0.3638,0.363802 0.78593,0.661458 0.93806,0.661458 0.15214,0 0.27661,0.119063 0.27661,0.264583 0,0.704928 0.89299,0.02534 3.43959,-2.617605 z"
         id="path23797" />
      <path
         style="fill:#2b6330;stroke-width:1.23219"
         d="m 88.463775,33.268074 c -0.202533,-0.202532 0.844759,-1.408691 1.223148,-1.408691 0.135598,0 1.57336,-0.98754 3.195025,-2.194533 5.125273,-3.814702 5.617746,-3.990617 8.004362,-2.85921 1.54704,0.73339 6.41412,4.704754 7.32574,5.97754 0.41097,0.573786 0.41954,0.663703 0.0633,0.663703 -0.79923,0 -2.73113,-1.096877 -4.00862,-2.275977 -1.65651,-1.528935 -3.8595,-2.986857 -4.794792,-3.173158 -1.086736,-0.216467 -1.857155,0.17888 -4.458696,2.288018 -3.020607,2.448885 -5.811848,3.719888 -6.549427,2.982308 z"
         id="path23789" />
      <path
         style="fill:#2b6330;stroke-width:1.23219"
         d="m 111.04397,81.858401 c -2.96289,-0.199731 -7.35518,-1.22588 -9.75636,-2.27933 -1.774042,-0.778313 -1.947001,-0.776099 -4.150094,0.05314 -6.644328,2.500919 -14.456722,2.91654 -21.680001,1.153382 -3.981126,-0.971768 -5.913045,-2.298974 -5.535588,-3.802884 0.335058,-1.334977 5.086439,-4.309124 8.710587,-5.452429 1.018646,-0.321351 1.941894,-0.635016 2.051663,-0.697034 0.109768,-0.06202 -0.627699,-0.771871 -1.638815,-1.577453 -2.105656,-1.677628 -4.670638,-4.77988 -5.88303,-7.11531 -1.521085,-2.930065 -0.595099,-3.827079 3.94033,-3.817045 4.339324,0.0096 9.367041,1.451053 12.563136,3.601866 0.727659,0.489678 1.368031,0.890324 1.423048,0.890324 0.05502,0 -0.01458,-0.26789 -0.154666,-0.595312 -0.140083,-0.327422 -0.678859,-2.143125 -1.197279,-4.034896 -2.444821,-8.921424 -3.171505,-10.344231 -7.494175,-14.673193 -1.24127,-1.243076 -2.235367,-2.345151 -2.209103,-2.449055 0.02626,-0.103903 -0.106232,-0.129826 -0.294435,-0.05761 -0.188203,0.07222 -1.276595,-0.738799 -2.418648,-1.802266 l -2.07646,-1.933576 0.438655,-0.919235 c 0.971799,-2.036479 3.489935,-2.93697 8.055174,-2.88055 2.520854,0.03115 3.069662,-0.03631 3.505729,-0.430943 0.297244,-0.269002 0.517001,-0.337985 0.517001,-0.16229 0,0.168075 -0.119062,0.305591 -0.264583,0.305591 -0.682679,0 -0.147785,0.45119 0.859895,0.725335 1.823428,0.496072 3.902301,1.92108 4.538663,3.111123 1.04176,1.948165 1.603702,4.365625 1.014796,4.365625 -0.110676,0 -0.600818,-0.763308 -1.089203,-1.696239 -1.118093,-2.135819 -2.440427,-3.417017 -4.133526,-4.004937 -1.739088,-0.603889 -5.537005,-0.799538 -7.608687,-0.39196 -1.638948,0.322444 -3.644014,1.170676 -3.62716,1.534451 0.0049,0.106183 0.956414,0.828974 2.114433,1.606202 1.229914,0.825483 2.849105,2.252917 3.89366,3.432544 2.438153,2.753433 2.909883,3.224105 3.231352,3.224105 0.152136,0 0.27661,-0.132089 0.27661,-0.29353 0,-0.28535 0.451704,-0.254057 2.579687,0.178713 0.692645,0.140863 0.859896,0.09018 0.859896,-0.260554 0,-0.239487 -0.26789,-0.534597 -0.595312,-0.6558 -0.558037,-0.206571 -0.540892,-0.232331 0.273812,-0.411399 0.478019,-0.105066 1.430519,-0.150891 2.116667,-0.101834 1.228903,0.08786 1.248755,0.07668 1.328771,-0.748181 0.119418,-1.231047 0.767471,-1.33702 1.087537,-0.177839 0.302335,1.094968 0.98554,1.941257 1.567167,1.941257 0.222728,0 0.671403,0.25031 0.997054,0.556243 l 0.592093,0.556243 0.13751,-1.151555 c 0.07563,-0.633356 0.250507,-2.621043 0.388613,-4.417084 0.253096,-3.291449 0.653144,-4.550857 0.970919,-3.056596 0.08958,0.421231 0.228185,1.004 0.30801,1.295041 0.07982,0.291042 0.221481,1.957917 0.314793,3.704167 l 0.169654,3.175 0.6499,-0.0727 c 0.35744,-0.03998 0.71462,-0.172765 0.79375,-0.295069 0.0791,-0.122304 0.40909,-0.30513 0.73326,-0.40628 0.62696,-0.195622 0.9357,-1.04379 1.25923,-3.459287 0.20554,-1.534577 1.12341,-3.277393 2.48486,-4.718162 1.15001,-1.217007 1.66305,-1.500604 4.33718,-2.397465 2.34327,-0.785897 3.56186,-0.84605 6.34642,-0.313275 3.60829,0.690378 5.48811,1.974667 5.48811,3.749453 0,0.805803 -0.26236,1.088912 -3.13502,3.38294 -3.83101,3.059339 -5.92598,5.332488 -7.96978,8.647604 -1.83454,2.975686 -2.15729,3.741375 -3.05992,7.25932 -0.37338,1.455209 -0.97046,3.746628 -1.32686,5.092043 -0.81148,3.063347 -0.80929,3.387465 0.0136,2.014651 1.70722,-2.848102 8.82282,-5.626094 14.68422,-5.732849 2.91961,-0.05317 3.70958,0.161061 4.23856,1.149469 0.45761,0.855042 0.0171,2.269381 -1.36734,4.390129 -1.55471,2.381578 -3.1934,4.175132 -5.46915,5.986002 l -1.68767,1.342915 1.93688,0.503092 c 4.16033,1.080619 9.75705,4.486688 9.75705,5.937978 0,1.352922 -3.94874,3.142514 -9.12812,4.136911 -2.82316,0.542022 -5.24707,0.66609 -8.59896,0.440137 z m 9.78958,-7.375237 c 0,-0.494898 -6.12964,-1.7343 -8.59895,-1.738691 -2.36969,-0.0042 -5.33241,0.689636 -5.03051,1.178113 0.0731,0.118332 2.30647,0.237134 4.96299,0.264006 3.89698,0.03942 8.23543,0.290498 8.60033,0.497725 0.0364,0.02066 0.0661,-0.06986 0.0661,-0.201153 z M 87.959077,74.129522 c 1.055025,-0.02052 1.918229,-0.125211 1.918229,-0.232636 0,-0.385541 -2.956216,-1.291672 -4.214031,-1.291672 -1.380733,0 -5.169863,0.652605 -6.313328,1.087349 -1.413907,0.537567 -0.04643,0.792348 3.383609,0.630414 1.81901,-0.08588 4.170495,-0.172931 5.225521,-0.193455 z m 11.221612,-1.148587 c 0.286481,-2.127887 0.251887,-9.034058 -0.04297,-8.577804 -0.213847,0.330904 -0.262365,0.308914 -0.291881,-0.132291 -0.01947,-0.291042 -0.01607,-0.677995 0.0075,-0.859896 0.02362,-0.181901 -0.01125,-0.330729 -0.07748,-0.330729 -0.11229,0 -3.077764,5.981159 -3.077764,6.207639 0,0.444245 2.803048,5.161334 3.023734,5.088468 0.155956,-0.05149 0.362423,-0.679418 0.458816,-1.395387 z M 96.577561,66.32136 c 0.632123,-1.273307 1.544527,-3.327135 2.027563,-4.564062 0.483036,-1.236927 0.961016,-2.344014 1.062179,-2.460194 0.101163,-0.11618 0.455777,0.538664 0.788047,1.455208 0.82021,2.262569 2.2818,5.406938 2.60659,5.607673 0.14733,0.09105 0.44516,-0.395651 0.67002,-1.094906 0.67403,-2.096074 1.94779,-6.723855 2.27634,-8.270281 0.17004,-0.800364 0.63899,-2.479212 1.04212,-3.730773 l 0.73296,-2.275565 -2.14001,1.321902 c -1.17701,0.727045 -2.6403,1.663524 -3.25175,2.081062 -0.61145,0.417539 -1.6668,0.997097 -2.34523,1.287906 l -1.233514,0.528745 -1.124689,-0.561697 c -0.61858,-0.308934 -1.986171,-1.246633 -3.039092,-2.083777 -1.827546,-1.453023 -4.697919,-3.182386 -5.282081,-3.182386 -0.169994,0 -0.132514,0.328143 0.09822,0.859896 0.205212,0.472943 0.673131,1.871927 1.039821,3.108854 1.939325,6.541793 4.557107,14.2875 4.828681,14.2875 0.05198,0 0.611705,-1.041797 1.243829,-2.315105 z m -7.626297,-2.065453 c -1.178043,-0.979047 -1.225718,-1.010931 -2.492361,-1.666835 -1.320603,-0.683846 -5.170447,-2.149599 -5.974305,-2.2746 -0.291042,-0.04526 -0.712743,-0.159083 -0.937114,-0.252946 -0.761166,-0.318423 -3.387613,-0.357493 -3.268472,-0.04862 0.06135,0.159051 1.925674,0.811059 4.142941,1.448907 2.60212,0.748559 4.781829,1.566261 6.148061,2.306399 2.438438,1.320993 3.693115,1.577958 2.38125,0.487695 z m 22.414146,-0.91557 c 1.73306,-0.938667 3.63542,-1.622438 7.08072,-2.545044 1.37905,-0.369292 2.8078,-0.845777 3.175,-1.058857 0.61908,-0.35924 0.52331,-0.378526 -1.31674,-0.265161 -1.09141,0.06724 -2.46063,0.298787 -3.04271,0.514549 -1.91934,0.711441 -2.62991,0.952589 -4.07097,1.381575 -0.78382,0.233335 -1.596,0.595111 -1.80483,0.803947 -0.20884,0.208836 -0.52413,0.379702 -0.70064,0.379702 -0.17651,0 -0.53192,0.357188 -0.78981,0.79375 -0.58707,0.993842 -0.37199,0.99319 1.46998,-0.0045 z M 99.966813,53.717662 c 1.102007,-0.393738 5.516507,-3.375242 7.571427,-5.113663 1.50325,-1.271712 1.77114,-2.12555 0.95118,-3.031596 -0.73755,-0.814985 -3.59182,-0.482697 -5.36482,0.624561 -0.39436,0.246282 -0.59351,0.240937 -0.91336,-0.02451 -0.33939,-0.281669 -0.54259,-0.244366 -1.19346,0.21909 -0.43143,0.307207 -1.045196,0.980505 -1.363924,1.496218 l -0.579506,0.937661 -0.629773,-0.591641 c -0.346374,-0.325402 -0.629772,-0.76016 -0.629772,-0.966129 0,-0.623568 -1.134326,-1.367203 -2.099762,-1.37655 -0.500026,-0.0048 -1.676587,-0.201272 -2.61458,-0.436511 -1.424981,-0.357372 -1.884626,-0.373742 -2.795029,-0.09955 -0.599273,0.180489 -1.482706,0.443758 -1.963184,0.585041 -1.017247,0.299119 -0.984271,0.709978 0.101061,1.259167 2.140244,1.082985 5.697697,3.536621 8.608295,5.937287 1.217636,1.004309 1.547011,1.069967 2.915207,0.581123 z M 113.95439,42.735527 c 1.52797,-1.585779 3.55203,-3.411078 4.49791,-4.056218 0.94589,-0.645141 1.75684,-1.364466 1.80213,-1.598501 0.29958,-1.548391 -5.71889,-2.604562 -9.39121,-1.648046 -2.85895,0.744662 -3.78822,1.386196 -5.28255,3.646864 -1.63626,2.475381 -1.97266,4.058838 -0.94528,4.449446 0.34221,0.130108 1.37339,0.23656 2.29151,0.23656 1.53882,0 1.74834,0.07239 2.68031,0.926042 0.55605,0.509323 1.13656,0.926277 1.29003,0.926566 0.15346,2.88e-4 1.52918,-1.296933 3.05715,-2.882713 z"
         id="path23788" />
      <path
         style="fill:#275a2d;stroke-width:1.23219"
         d="m 88.463775,33.268074 c -0.202533,-0.202532 0.844759,-1.408691 1.223148,-1.408691 0.135598,0 1.57336,-0.98754 3.195025,-2.194533 5.131447,-3.819298 5.614683,-3.991123 8.022292,-2.852505 2.43519,1.151661 8.52757,6.634538 7.37207,6.634538 -0.79158,0 -2.91291,-1.284232 -4.68991,-2.839218 -2.24122,-1.961209 -3.916935,-2.826087 -5.059833,-2.611508 -0.491653,0.09231 -1.893483,0.997642 -3.357595,2.168412 -3.220801,2.575499 -5.963667,3.845036 -6.705197,3.103505 z"
         id="path23780" />
      <path
         style="fill:#275a2d;stroke-width:1.23219"
         d="m 111.17626,81.867028 c -2.89723,-0.192204 -7.62854,-1.283452 -9.87815,-2.278338 -1.783778,-0.788872 -1.953942,-0.787093 -4.160594,0.04349 -6.644328,2.500919 -14.456722,2.91654 -21.680001,1.153382 -3.981126,-0.971768 -5.913045,-2.298974 -5.535588,-3.802884 0.335058,-1.334977 5.086439,-4.309124 8.710587,-5.452429 1.018646,-0.321351 1.941894,-0.635016 2.051663,-0.697034 0.109768,-0.06202 -0.627699,-0.771871 -1.638815,-1.577453 -3.332159,-2.654813 -6.923643,-7.882226 -6.520109,-9.490032 0.258591,-1.030308 1.545958,-1.448676 4.445118,-1.444573 4.380395,0.0062 9.515053,1.463882 12.695427,3.604116 1.374378,0.924888 1.670559,1.060065 1.414348,0.645506 -0.08322,-0.13465 -0.793868,-2.486134 -1.579221,-5.22552 -2.468543,-8.610513 -2.936307,-9.501029 -7.272007,-13.844244 -1.234787,-1.236927 -2.251462,-2.358099 -2.259277,-2.491493 -0.0078,-0.133394 -0.192804,-0.291286 -0.411085,-0.350872 -0.352778,-0.0963 -0.352778,-0.07715 0,0.172337 0.218281,0.154372 0.270363,0.282498 0.115736,0.284727 -0.154626,0.0022 -1.18077,-0.824903 -2.280318,-1.838069 -2.2291,-2.053977 -2.362176,-2.547008 -1.046956,-3.878821 1.42569,-1.443678 2.73001,-1.804877 6.749075,-1.868991 3.027835,-0.0483 3.756836,-0.137282 4.167188,-0.508645 0.292652,-0.264847 0.497358,-0.324326 0.497358,-0.144513 0,0.168075 -0.119062,0.305591 -0.264583,0.305591 -0.145521,0 -0.264584,0.119062 -0.264584,0.264583 0,0.145521 0.222129,0.264583 0.493618,0.264583 0.847291,0 4.228584,1.84551 4.752868,2.594116 1.107318,1.581098 2.182385,5.60107 1.301952,4.868354 -0.181902,-0.151381 -0.672798,-0.930004 -1.090881,-1.730273 -0.994562,-1.903727 -2.365938,-3.192221 -4.002348,-3.760456 -1.739088,-0.603889 -5.537005,-0.799538 -7.608687,-0.39196 -1.637829,0.322224 -3.636104,1.167265 -3.636104,1.537656 0,0.107945 0.940185,0.8181 2.0893,1.578121 1.263504,0.835678 2.806009,2.19176 3.902604,3.430947 0.997317,1.127 2.07597,2.34234 2.397007,2.700757 0.531949,0.593886 0.64318,0.619835 1.25451,0.292661 0.526366,-0.281703 0.816403,-0.292668 1.346975,-0.05092 0.371893,0.169446 1.057519,0.316141 1.523615,0.32599 0.705082,0.0149 0.75855,0.05479 0.31828,0.237459 -0.291042,0.120753 -1.042755,0.357868 -1.670474,0.526922 -1.363316,0.367161 -1.334364,0.744871 0.112421,1.46667 1.605543,0.801003 4.24031,2.578696 6.452844,4.353773 2.835784,2.275098 3.237319,2.467962 4.455346,2.139982 1.084932,-0.292141 5.653132,-3.308048 7.913922,-5.224739 1.05744,-0.896493 1.38906,-1.352465 1.38906,-1.909925 0,-1.685646 -2.09578,-2.093523 -4.87873,-0.949488 -1.16061,0.477109 -1.66195,0.570893 -1.91761,0.358716 -0.44886,-0.372517 -2.02712,0.792338 -2.615715,1.930562 -0.397782,0.769225 -0.437333,0.784215 -0.919009,0.348304 -0.276836,-0.250533 -0.58127,-0.701057 -0.676521,-1.001164 -0.270317,-0.851696 -1.207332,-1.482488 -2.221576,-1.49555 -1.473699,-0.01898 -5.103809,-1.00231 -5.35461,-1.450465 -0.125364,-0.224014 -0.430378,-0.414844 -0.677808,-0.424068 -0.299823,-0.01118 -0.229251,-0.105489 0.211585,-0.282761 0.363802,-0.146294 1.316302,-0.228044 2.116666,-0.181666 l 1.455208,0.08432 0.08123,-0.837377 c 0.119418,-1.231047 0.767471,-1.33702 1.087537,-0.177839 0.302335,1.094968 0.98554,1.941257 1.567167,1.941257 0.222728,0 0.671403,0.25031 0.997054,0.556243 l 0.592093,0.556243 0.13751,-1.151555 c 0.07563,-0.633356 0.250507,-2.621043 0.388613,-4.417084 0.138107,-1.79604 0.36808,-3.382505 0.511053,-3.525478 0.427453,-0.427453 1.120035,3.291409 1.120035,6.014097 0,1.374463 0.118248,2.538553 0.267218,2.630622 0.34793,0.215032 2.57529,-0.898246 2.75996,-1.37948 0.0782,-0.203913 0.26685,-1.167941 0.4191,-2.142283 0.34665,-2.218259 1.31346,-4.177101 2.76457,-5.601262 0.8517,-0.835872 1.7223,-1.319926 3.60745,-2.005724 2.77421,-1.009228 3.96091,-1.101013 6.91859,-0.535115 3.60829,0.690378 5.48811,1.974667 5.48811,3.749453 0,0.805645 -0.26209,1.088694 -3.12507,3.374992 -3.88201,3.100066 -5.93934,5.326256 -7.95116,8.603763 -1.94775,3.173123 -2.24136,3.879186 -3.19621,7.686217 -0.42273,1.685462 -1.01578,3.985021 -1.31787,5.110132 -0.70184,2.613853 -0.69024,2.954185 0.0585,1.717363 1.78188,-2.943432 8.80418,-5.720683 14.73806,-5.828758 3.73163,-0.06796 4.73359,0.540456 4.34052,2.635697 -0.406,2.164144 -4.60174,7.333341 -7.59077,9.351916 -0.53871,0.363802 -0.97985,0.72099 -0.98032,0.79375 -4.7e-4,0.07276 0.83324,0.339528 1.8527,0.592818 2.52639,0.627697 7.26512,2.994115 8.65629,4.322765 1.71839,1.641153 1.51269,2.307153 -1.11904,3.623082 -3.93862,1.969407 -9.75791,2.945973 -15.34584,2.575268 z m 6.35,-1.70108 c 3.20276,-0.258073 9.65729,-2.286879 9.65729,-3.035505 0,-0.418961 -2.07588,-1.74146 -4.8007,-3.058416 -2.57509,-1.24459 -5.38803,-2.006523 -7.23784,-1.960491 -0.97482,0.02426 -0.94351,0.0442 0.39688,0.252776 2.63848,0.410564 4.51125,0.842145 4.65357,1.072413 0.18722,0.30294 0.32486,0.319172 -3.80178,-0.448351 -2.4362,-0.453115 -4.15198,-0.63312 -5.21742,-0.547367 -1.1573,0.09315 -1.33655,0.07044 -0.66146,-0.08378 l 0.92605,-0.211553 -1.05834,-0.03336 c -1.4461,-0.04557 -3.03674,0.431886 -3.23937,0.972357 -0.0921,0.2456 -0.35339,0.586871 -0.58069,0.758378 -0.36922,0.278593 -0.36186,0.331753 0.069,0.498704 0.26523,0.102779 1.21773,0.109722 2.11667,0.01543 2.20046,-0.230815 7.05838,0.09251 7.05838,0.469774 0,0.289806 0.667,0.407172 2.3151,0.407372 0.47295,5.7e-5 0.8599,0.119159 0.8599,0.264672 0,0.145512 -0.19812,0.18854 -0.44028,0.09562 -0.3072,-0.117884 -0.37908,-0.06994 -0.23782,0.158633 0.11135,0.180171 0.3545,0.26924 0.54033,0.19793 0.18583,-0.07131 0.49547,0.0099 0.68808,0.1804 0.2889,0.255769 0.29104,0.231602 0.0122,-0.13803 -0.29033,-0.384924 -0.26466,-0.442562 0.18213,-0.408906 0.35135,0.02647 0.47053,0.171853 0.36734,0.448083 -0.12863,0.344309 -0.086,0.35463 0.2701,0.06533 0.28923,-0.235008 0.47788,-0.254546 0.59698,-0.06183 0.0958,0.15496 0.26743,0.224087 0.38145,0.153614 0.11403,-0.07047 0.42281,0.02943 0.68617,0.222007 0.6149,0.449624 0.35171,1.287757 -0.32472,1.03412 -0.43023,-0.161317 -0.43712,-0.13237 -0.0762,0.319833 0.22987,0.287973 0.2579,0.413709 0.0666,0.298793 -0.18164,-0.109124 -0.58916,-0.01707 -0.90559,0.204564 -0.43543,0.304993 -0.4838,0.432286 -0.1989,0.523533 0.95502,0.305871 1.11155,0.421743 0.4518,0.334447 -0.3951,-0.05228 -0.76254,-0.02306 -0.81653,0.06493 -0.054,0.08799 -0.0633,0.01497 -0.0208,-0.162273 0.0426,-0.177241 -0.0384,-0.393827 -0.17997,-0.481303 -0.14154,-0.08748 -0.18884,-0.269883 -0.10512,-0.405348 0.0837,-0.135466 0.046,-0.246301 -0.0839,-0.246301 -0.4368,0 -0.572,0.330911 -0.32429,0.79375 0.35864,0.670122 -0.0194,0.883765 -0.4574,0.258473 -0.20491,-0.29255 -0.4775,-0.467052 -0.60576,-0.387781 -0.12827,0.07927 -0.36449,-0.101166 -0.52494,-0.40097 -0.26964,-0.503837 -0.2356,-0.531623 0.44975,-0.367065 0.40781,0.09792 0.65403,0.08376 0.54715,-0.03146 -0.10688,-0.115223 4.5e-4,-0.351924 0.23852,-0.526 0.34356,-0.251216 0.36156,-0.360556 0.0873,-0.530063 -0.21609,-0.133547 -0.28124,-0.109502 -0.1739,0.06418 0.0944,0.152756 -0.002,0.344546 -0.21523,0.4262 -0.21278,0.08165 -0.45725,0.0346 -0.54326,-0.104568 -0.086,-0.139165 -0.29818,-0.251204 -0.47149,-0.248976 -0.18934,0.0024 -0.15671,0.106423 0.0818,0.260532 0.21828,0.141064 0.31731,0.258303 0.22007,0.260532 -0.0972,0.0022 -0.38466,0.08382 -0.63871,0.181306 -0.35088,0.134645 -0.40748,0.08694 -0.23544,-0.198438 0.18901,-0.313528 0.15667,-0.31914 -0.19545,-0.03392 -0.34481,0.279308 -0.45036,0.279308 -0.57751,0 -0.0856,-0.187974 -0.08,-0.04505 0.0124,0.317611 0.1431,0.561619 0.10971,0.610996 -0.22523,0.333025 -0.21628,-0.179497 -0.4438,-0.297626 -0.50559,-0.262508 -0.0618,0.03512 -0.0211,-0.04926 0.0905,-0.187504 0.51827,-0.642205 0.0289,-0.725049 -3.30288,-0.55915 -3.43672,0.171124 -5.62555,0.402359 -9.32156,0.984761 l -1.84708,0.291054 1.84708,0.497436 c 5.9174,1.593616 8.78039,1.881999 14.28249,1.438648 z m -4.12128,-0.218583 c -0.16005,-0.522957 -0.15196,-0.966321 0.0157,-0.862675 0.1175,0.07262 0.28044,-0.04207 0.3621,-0.25485 0.0816,-0.212785 0.0346,-0.457253 -0.10457,-0.543262 -0.34047,-0.210421 -0.32204,-0.654317 0.0272,-0.654317 0.15411,0 0.21432,0.106587 0.13381,0.236859 -0.0805,0.130273 0.0413,0.308867 0.27061,0.396875 0.63847,0.245003 0.73167,0.19445 0.39326,-0.213303 -0.1704,-0.205326 -0.20906,-0.435595 -0.0859,-0.511709 0.34808,-0.215126 0.94975,0.261356 0.7461,0.590864 -0.11024,0.178377 0.0265,0.294164 0.34737,0.294164 0.29104,0 0.59589,0.107959 0.67744,0.239909 0.0815,0.13195 -0.11979,0.175283 -0.44741,0.0963 -0.48829,-0.117723 -0.53606,-0.07989 -0.26495,0.209883 0.49917,0.533529 0.40068,0.71682 -0.31196,0.580589 -0.35349,-0.06757 -0.61112,-0.259422 -0.57253,-0.426331 0.0386,-0.166909 0.02,-0.213433 -0.0414,-0.103386 -0.0613,0.110048 -0.23881,0.121417 -0.39439,0.02527 -0.16719,-0.10333 -0.20566,-0.0499 -0.0941,0.130643 0.11479,0.185724 0.001,0.315802 -0.28984,0.331837 -0.33907,0.01868 -0.28576,0.08814 0.18282,0.23821 0.63458,0.203227 0.63726,0.212908 0.0661,0.23821 -0.32742,0.0145 -0.60442,-0.0034 -0.61555,-0.03977 z m -3.94851,-0.514917 c 0,-0.116977 -0.20836,-0.21451 -0.46302,-0.216738 -0.38892,-0.0034 -0.40062,-0.04351 -0.0731,-0.250617 0.25369,-0.16043 0.45426,-0.142412 0.57416,0.05158 0.22828,0.369368 1.02032,0.508847 1.02032,0.17968 0,-0.132645 0.12609,-0.241172 0.2802,-0.241172 0.15411,0 0.19411,0.139296 0.0889,0.309546 -0.12863,0.208136 -0.0471,0.254196 0.24897,0.140596 0.24215,-0.09292 0.44028,-0.0665 0.44028,0.05871 0,0.125213 -0.47625,0.217185 -1.05834,0.204383 -0.58208,-0.0128 -1.05833,-0.118987 -1.05833,-0.235965 z m 7.40833,0.03628 c 0,-0.154109 -0.14882,-0.190786 -0.33073,-0.0815 -0.18985,0.114063 -0.16169,-0.0093 0.0661,-0.289615 0.21827,-0.26857 0.35741,-0.721159 0.30919,-1.005752 -0.0547,-0.323122 0.0214,-0.450034 0.20277,-0.337946 0.15974,0.09872 0.22141,0.291172 0.13706,0.427665 -0.0844,0.136493 0.0328,0.319598 0.26026,0.4069 0.22751,0.0873 0.41365,0.279633 0.41365,0.427403 0,0.14777 -0.19924,0.105266 -0.44276,-0.09445 -0.3944,-0.323468 -0.426,-0.29811 -0.28935,0.232186 0.0844,0.327422 0.0455,0.595313 -0.0864,0.595313 -0.1319,0 -0.23982,-0.126089 -0.23982,-0.280198 z m -10.24786,-0.710457 c -0.0788,-0.205312 0.0508,-0.567318 0.28792,-0.804459 0.36124,-0.361241 0.48511,-0.373073 0.76378,-0.07296 0.26916,0.28986 0.26388,0.319091 -0.0277,0.153201 -0.53596,-0.304944 -0.88458,0.426227 -0.37937,0.795651 0.36776,0.268909 0.36292,0.301861 -0.0443,0.301861 -0.25141,0 -0.52157,-0.167982 -0.60036,-0.373294 z m 3.89786,-0.853124 c 0,-0.140954 -0.20835,-0.181515 -0.46302,-0.09014 -0.25466,0.09138 -0.37746,0.07154 -0.2729,-0.04408 0.25412,-0.280994 2.90063,-0.430454 2.72988,-0.154168 -0.0735,0.118914 -0.37377,0.279006 -0.66728,0.355761 -0.29351,0.07675 -0.46693,0.03159 -0.38538,-0.100355 0.0815,-0.13195 0.0222,-0.239909 -0.13193,-0.239909 -0.15411,0 -0.2802,0.119063 -0.2802,0.264584 0,0.145521 -0.11906,0.264583 -0.26458,0.264583 -0.14552,0 -0.26459,-0.115326 -0.26459,-0.256279 z m -20.700792,1.964941 c 2.993861,-0.474034 5.920879,-1.150872 6.235815,-1.441959 0.472517,-0.436737 -5.776961,-1.157533 -12.167588,-1.403373 -2.055009,-0.07905 -2.658308,-0.0266 -2.5626,0.222815 0.07131,0.185824 0.363361,0.263925 0.678632,0.18148 0.40986,-0.107181 0.497789,-0.05467 0.338907,0.202411 -0.136002,0.220055 -0.11099,0.283141 0.06832,0.172321 0.155576,-0.09615 0.333052,-0.08478 0.394392,0.02527 0.06134,0.110048 0.07524,0.05126 0.0309,-0.130643 -0.04772,-0.195743 0.180935,-0.330729 0.560224,-0.330729 0.633056,0 0.635455,0.0094 0.197269,0.772894 -0.24397,0.425092 -0.527861,0.720806 -0.630871,0.657142 -0.103009,-0.06366 -0.273444,0.02365 -0.378744,0.194028 -0.119571,0.193471 -0.07676,0.238899 0.11401,0.120993 0.171118,-0.105757 0.307245,-0.03646 0.309515,0.157557 0.0029,0.251669 0.07416,0.237856 0.260532,-0.05053 0.224451,-0.347313 0.256986,-0.344294 0.260531,0.02418 0.0031,0.322983 -0.302568,0.43191 -1.312337,0.46765 -1.145149,0.04053 -1.293713,-0.0125 -1.142068,-0.40768 0.108386,-0.282451 0.214331,-0.334239 0.280104,-0.136921 0.05818,0.174543 0.304221,0.307952 0.546756,0.296463 0.274993,-0.01303 0.316487,-0.07112 0.110243,-0.15434 -0.181901,-0.0734 -0.330729,-0.249619 -0.330729,-0.391602 0,-0.141982 0.137458,-0.173195 0.305463,-0.06936 0.190274,0.117595 0.233602,0.07251 0.114899,-0.119554 -0.211494,-0.342204 -1.704685,-0.314501 -1.921085,0.03564 -0.07567,0.122433 -0.274976,0.06523 -0.442907,-0.127125 -0.167931,-0.192352 -0.276596,-0.299728 -0.241478,-0.238615 0.03512,0.06111 -0.07102,0.273624 -0.235861,0.472246 -0.231258,0.278649 -0.215626,0.330166 0.06844,0.225561 0.440594,-0.162245 1.224933,0.280911 0.962197,0.543647 -0.10141,0.10141 -0.336087,0.06364 -0.521504,-0.08393 -0.185418,-0.147569 -0.537239,-0.235812 -0.781825,-0.196095 -0.268472,0.0436 -0.393606,-0.06094 -0.315765,-0.263791 0.07091,-0.184801 -0.115922,-0.400035 -0.415194,-0.478296 -0.588892,-0.153999 -0.754118,0.194023 -0.213402,0.449495 0.181901,0.08594 -0.205052,0.08277 -0.859896,-0.007 -0.654843,-0.08982 -1.339453,-0.170055 -1.521354,-0.178308 -0.323835,-0.01469 -0.389952,-0.253323 -0.399301,-1.441158 -0.0028,-0.352742 -0.122403,-0.522599 -0.298758,-0.424205 -0.197504,0.110192 -0.20721,0.0742 -0.02954,-0.10956 0.145521,-0.150514 0.507138,-0.346557 0.803594,-0.435651 0.415349,-0.124825 0.548547,-0.0354 0.580576,0.389789 0.03138,0.416544 -0.06831,0.509962 -0.40672,0.38116 -0.341734,-0.130066 -0.375154,-0.09691 -0.140608,0.139503 0.38202,0.385057 0.968854,0.06214 0.780251,-0.429352 -0.07633,-0.198902 -0.02491,-0.43201 0.114254,-0.518019 0.139165,-0.08601 0.253028,-0.03403 0.253028,0.115514 0,0.149542 0.188577,0.199531 0.419059,0.111087 0.230483,-0.08844 0.31978,-0.233536 0.198438,-0.322426 -0.325334,-0.238324 -0.412903,-0.891381 -0.09302,-0.69368 0.150154,0.0928 0.343599,-0.01523 0.429878,-0.240071 0.123253,-0.321193 0.270693,-0.347884 0.687995,-0.124551 0.385318,0.206216 0.61412,0.200583 0.833448,-0.02052 0.227499,-0.229339 0.187727,-0.261142 -0.160697,-0.128495 -0.254661,0.09695 -0.463021,0.05439 -0.463021,-0.09457 0,-0.360077 0.504655,-0.510828 1.239682,-0.370318 0.569064,0.108783 0.575386,0.135465 0.129808,0.547886 -0.257613,0.238444 -0.326096,0.339741 -0.152184,0.225104 0.173912,-0.114637 0.582587,-0.259731 0.908166,-0.322432 0.325578,-0.0627 0.665148,-0.196236 0.754599,-0.296746 0.08945,-0.10051 -0.05191,-0.105607 -0.314125,-0.01133 -0.26222,0.09428 -0.410262,0.06382 -0.328984,-0.0677 0.08128,-0.131511 2.124289,-0.253465 4.540024,-0.271007 2.415734,-0.01754 4.522896,-0.05741 4.682581,-0.08859 0.159686,-0.03118 0.29575,0.08221 0.302364,0.251989 0.02428,0.623273 0.409033,0.684901 0.412953,0.06615 0.0032,-0.509932 0.05599,-0.559044 0.260532,-0.242534 0.175344,0.271325 0.257762,0.290896 0.260532,0.06187 0.0022,-0.184256 -0.412667,-0.533729 -0.92199,-0.776608 -0.509323,-0.24288 -0.926042,-0.53861 -0.926042,-0.657178 0,-0.118569 -0.238125,-0.215579 -0.529166,-0.215579 -0.291042,0 -0.529167,-0.116086 -0.529167,-0.257969 0,-0.141883 0.386953,-0.198237 0.859896,-0.125232 0.82957,0.128056 0.836569,0.12171 0.198437,-0.179936 -0.794834,-0.37572 -7.095009,-0.376599 -8.466666,-0.0012 -0.758168,0.207508 -0.566312,0.236883 1.058333,0.162039 1.091406,-0.05028 1.627188,-0.03376 1.190625,0.0367 -0.436562,0.07046 -1.6549,0.285914 -2.707416,0.478782 -1.052516,0.192867 -1.856024,0.257401 -1.785572,0.143407 0.07045,-0.113993 -0.108856,-0.145296 -0.398462,-0.06956 -0.289606,0.07573 -0.465791,0.236018 -0.391522,0.356188 0.07427,0.120169 -0.0759,0.204591 -0.333705,0.187604 -0.718148,-0.04732 -3.0431,1.073368 -2.85573,1.376538 0.09165,0.148299 0.0063,0.206706 -0.191318,0.130882 -0.350859,-0.134637 -3.378739,1.848862 -3.370702,2.208074 0.0064,0.287535 2.357069,1.323573 3.964636,1.747404 1.247625,0.328934 2.985369,0.641745 5.820833,1.047807 1.76011,0.252063 6.361227,0.124021 8.667952,-0.241215 z m -5.999741,-0.574584 c -0.37646,-0.826239 -0.367885,-0.868787 0.17606,-0.873546 0.344432,-0.003 0.375107,-0.05982 0.119767,-0.221793 -0.5205,-0.330177 0.250482,-0.868489 1.036195,-0.723488 0.346486,0.06394 0.689506,0.126931 0.762267,0.139973 0.07276,0.01304 -0.03105,0.127182 -0.230686,0.253644 -0.199638,0.126462 -0.310234,0.388165 -0.245768,0.581562 0.08125,0.243741 0.304175,0.136602 0.726558,-0.349181 l 0.609348,-0.700812 0.955418,0.512073 c 0.52548,0.28164 1.113036,0.512073 1.30568,0.512073 0.203407,0 0.271975,0.138667 0.163541,0.330729 -0.149378,0.264584 -0.115459,0.264584 0.169593,0 0.477695,-0.443392 0.92163,-0.423734 0.549758,0.02434 -0.162077,0.19529 -0.206421,0.448206 -0.09854,0.562035 0.107878,0.113829 -0.08666,0.119884 -0.432304,0.01346 -0.354595,-0.109184 -0.564672,-0.09032 -0.482095,0.04329 0.08049,0.13024 -0.136822,0.260236 -0.482921,0.28888 -0.793579,0.06568 -1.069956,-0.357209 -0.616688,-0.9436 0.266637,-0.344946 0.20982,-0.332738 -0.240871,0.05175 -0.379699,0.323927 -0.504146,0.606695 -0.34933,0.79375 0.165294,0.199714 -0.04182,0.3112 -0.662392,0.356555 -0.739453,0.05404 -0.902882,-0.02679 -0.902882,-0.446578 0,-0.340754 -0.168773,-0.499851 -0.503503,-0.474636 -0.312388,0.02353 -0.472021,0.201409 -0.42056,0.468626 0.128113,0.665233 -0.583061,0.508876 -0.905642,-0.199113 z m 5.382056,-1.11797 c -0.134783,-0.129736 -0.542715,-0.289282 -0.906517,-0.354548 -0.381199,-0.06839 -0.135582,-0.13393 0.579697,-0.154695 0.749373,-0.02175 1.316569,0.09501 1.431482,0.294698 0.104679,0.181901 0.09289,0.242465 -0.02619,0.134587 -0.119082,-0.107878 -0.355316,-0.08095 -0.524965,0.05985 -0.180929,0.150159 -0.409765,0.158472 -0.55351,0.02011 z m 7.689056,-1.342765 c -0.265251,-0.293099 -0.670657,-0.47441 -0.900903,-0.402915 -0.230246,0.0715 -0.597223,0.0058 -0.815504,-0.145883 -0.309461,-0.215112 -0.265754,-0.238993 0.198437,-0.108422 0.942349,0.26507 0.694812,-0.07127 -0.501699,-0.681688 -0.603356,-0.30781 -1.817056,-1.083592 -2.697111,-1.723961 -1.160518,-0.844447 -1.656369,-1.07378 -1.804926,-0.834786 -0.117159,0.188482 -0.0669,0.371592 0.117424,0.427816 1.416712,0.432135 2.040467,0.923826 2.01135,1.585497 -0.01972,0.448185 -0.07394,0.531973 -0.151692,0.234437 -0.138759,-0.530977 -0.493245,-0.603614 -0.768923,-0.157557 -0.116967,0.189256 -0.07258,0.233643 0.116676,0.116676 0.168005,-0.103833 0.305464,-0.0627 0.305464,0.09141 0,0.319538 -0.951705,0.35722 -2.760489,0.109299 -0.832552,-0.114114 -1.130543,-0.246412 -0.896824,-0.39816 0.228861,-0.148593 0.06242,-0.2081 -0.480823,-0.17191 -0.557186,0.03712 -0.787517,0.168262 -0.699297,0.398159 0.09474,0.246884 -0.176889,0.34281 -0.970707,0.34281 -0.606241,0 -1.035579,-0.107885 -0.954086,-0.239744 0.08149,-0.13186 0.372739,-0.181018 0.647213,-0.109242 0.274473,0.07178 0.570341,0.01514 0.657483,-0.125861 0.09136,-0.147825 -0.224239,-0.246165 -0.745437,-0.232277 -0.497133,0.01325 -0.882416,0.140933 -0.856185,0.283746 0.02623,0.142812 -0.160665,0.305226 -0.415327,0.360919 -0.265931,0.05816 -0.46302,-0.05391 -0.46302,-0.263288 0,-0.239805 -0.370042,-0.386381 -1.081415,-0.428355 -0.708966,-0.04183 -1.021606,0.03296 -0.907759,0.217171 0.09551,0.154539 0.285556,0.211821 0.422324,0.127293 0.319711,-0.197592 1.302266,0.110292 1.302266,0.408067 0,0.125044 -0.198663,0.265849 -0.441474,0.3129 -0.24281,0.04705 1.870549,0.09613 4.696354,0.109069 4.800164,0.02198 5.268243,0.06838 7.122203,0.706092 1.091406,0.375413 2.032594,0.692249 2.091528,0.704081 0.05893,0.01183 -0.109871,-0.218296 -0.375121,-0.511395 z m 8.602341,-0.829973 c 0.87314,-0.173164 2.93684,-0.231662 5.15938,-0.146249 3.93366,0.151173 4.34595,0.06244 1.32291,-0.284707 -1.01864,-0.116976 -1.83226,-0.326764 -1.80804,-0.466195 0.0242,-0.139431 -0.4818,-0.263695 -1.12448,-0.276144 -0.64269,-0.01245 -1.16852,0.08388 -1.16852,0.214053 0,0.130177 0.14883,0.151039 0.33073,0.04636 0.1819,-0.104679 0.23799,-0.08842 0.12463,0.03614 -0.39475,0.433774 -1.09153,0.352511 -1.4575,-0.169982 -0.28916,-0.412836 -0.4481,-0.459935 -0.73857,-0.218863 -0.20357,0.168946 -0.30488,0.412747 -0.22514,0.54178 0.0798,0.129032 0.006,0.234604 -0.16351,0.234604 -0.16968,0 -0.24725,-0.159625 -0.17238,-0.354723 0.0749,-0.195097 0.0388,-0.512143 -0.0801,-0.704547 -0.13903,-0.224956 -0.0122,-0.528933 0.35521,-0.851605 0.5644,-0.495626 0.56168,-0.49601 -0.22234,-0.03134 -1.03144,0.611317 -3.68206,2.735967 -3.41326,2.735967 0.11391,0 -0.024,0.176514 -0.30648,0.392254 -0.44851,0.342551 -0.34596,0.341541 0.80933,-0.008 0.7276,-0.220125 1.97776,-0.530097 2.77812,-0.688828 z m -0.94001,-0.466605 c 0.0823,-0.133092 -10e-6,-0.292324 -0.18282,-0.353848 -0.26038,-0.08763 -0.25372,-0.207152 0.0307,-0.551765 0.40494,-0.490563 0.8275,-0.580087 0.8275,-0.175318 0,0.14552 -0.20836,0.268369 -0.46302,0.272997 -0.44097,0.008 -0.44097,0.02515 0,0.359898 0.57313,0.435072 0.5918,0.690021 0.0505,0.690021 -0.22687,0 -0.34519,-0.108893 -0.26294,-0.241985 z m -4.814131,-0.816348 c 0.126017,0 0.163248,-0.106587 0.08274,-0.236859 -0.08051,-0.130273 0.03742,-0.307394 0.262081,-0.393603 0.43365,-0.166407 1.52688,-2.425278 2.12149,-4.383505 0.34507,-1.136409 0.33019,-1.22197 -0.42627,-2.45137 -0.4311,-0.700624 -0.78803,-1.420902 -0.79319,-1.600617 -0.005,-0.179715 -0.17953,-0.62441 -0.3875,-0.988212 l -0.37812,-0.661459 -0.0296,0.79375 c -0.0163,0.436563 -0.0739,1.031875 -0.12803,1.322917 -0.196872,1.058685 -0.185223,5.90732 0.015,6.23125 0.14112,0.228331 0.0986,0.266643 -0.13532,0.122046 -0.258253,-0.159608 -0.311897,-0.0124 -0.221047,0.606605 0.07112,0.484577 0.01626,0.753269 -0.134742,0.659944 -0.158749,-0.09811 -0.187656,-1.961811 -0.07673,-4.946964 0.146281,-3.936618 0.103658,-5.071494 -0.239345,-6.372795 -0.276632,-1.049497 -0.323821,-1.614413 -0.139978,-1.675694 0.152538,-0.05085 0.277342,-0.380182 0.277342,-0.731857 0,-1.021025 0.418249,-0.743255 0.92959,0.617361 0.25977,0.691224 1.01075,2.424734 1.66884,3.852244 l 1.19654,2.595473 0.48061,-1.53714 c 0.55989,-1.790723 2.38083,-8.54971 2.87334,-10.665264 0.18632,-0.800365 0.56203,-1.978075 0.83491,-2.617135 0.27288,-0.63906 0.46338,-1.188103 0.42334,-1.220096 -0.04,-0.03199 -1.44201,0.823889 -3.1155,1.901961 -1.67349,1.078072 -3.67148,2.252326 -4.43998,2.609454 l -1.397282,0.649324 -1.248558,-0.634614 c -0.686707,-0.349038 -2.066844,-1.287848 -3.066972,-2.086245 -1.642113,-1.31089 -5.457627,-3.5851 -5.457627,-3.252979 0,0.07395 0.164535,0.525453 0.365633,1.003333 0.483297,1.148484 1.019927,2.843923 2.119017,6.69486 1.754756,6.148235 4.090356,12.174484 5.887434,15.190593 0.482709,0.810151 1.023577,1.830189 1.201929,2.266751 l 0.324275,0.79375 0.261306,-0.727604 c 0.143718,-0.400182 0.364411,-0.727604 0.490429,-0.727604 z m -5.022182,-2.579688 c -0.09701,-0.254661 -0.629056,-1.26304 -1.182321,-2.240842 -0.553265,-0.977802 -1.005937,-1.826465 -1.005937,-1.885917 0,-0.05945 -0.200498,-0.56912 -0.445551,-1.132595 -0.245054,-0.563475 -0.422564,-1.155317 -0.394468,-1.315204 0.0684,-0.389252 -2.502882,-2.16576 -5.113106,-3.532663 -2.740461,-1.435104 -6.619034,-2.394957 -9.657291,-2.389946 -2.68581,0.0044 -3.127835,0.198445 -2.768533,1.215178 0.140245,0.396859 0.420392,0.776503 0.622549,0.843653 0.241802,0.08032 0.297095,0.0081 0.161609,-0.211142 -0.136412,-0.220719 -0.08185,-0.288143 0.161609,-0.19969 0.202157,0.07345 0.336068,0.297255 0.29758,0.497346 -0.04476,0.232707 0.06109,0.196954 0.293751,-0.09922 0.433453,-0.551776 0.816294,-0.612631 0.61896,-0.09839 -0.07696,0.200549 -0.01979,0.484766 0.127038,0.631595 0.179559,0.17956 0.159406,0.333434 -0.06156,0.469996 -0.226811,0.140177 -0.261467,0.09455 -0.111942,-0.147391 0.160329,-0.259418 0.09352,-0.303207 -0.257239,-0.168608 -0.260597,0.100001 -0.643893,0.04067 -0.851768,-0.131855 -0.323705,-0.268651 -0.331784,-0.21234 -0.05629,0.39231 0.176918,0.388292 0.428646,0.705985 0.559397,0.705985 0.130751,0 0.171006,-0.107959 0.08946,-0.239908 -0.08155,-0.13195 0.09002,-0.177595 0.38126,-0.101433 0.291242,0.07616 0.527708,0.332948 0.52548,0.570637 -0.0035,0.369215 -0.0399,0.375471 -0.250197,0.04295 -0.13538,-0.214067 -0.329117,-0.306241 -0.430527,-0.204832 -0.322698,0.322699 0.418973,0.941698 0.959087,0.800455 0.285691,-0.07471 0.519439,-0.0066 0.519439,0.151302 0,0.157926 -0.178594,0.218605 -0.396875,0.134843 -0.792155,-0.303979 -0.362882,0.349291 1.25677,1.912558 2.450873,2.365548 4.878594,4.220455 4.301352,3.286458 -0.09326,-0.150892 0.01494,-0.19379 0.255722,-0.101392 0.281873,0.108164 0.334718,0.259748 0.162779,0.466922 -0.19034,0.229347 0.479971,0.30999 2.656123,0.319551 l 2.910713,0.01279 -1.538397,-0.874398 c -0.942734,-0.535834 -1.743288,-0.818485 -2.067563,-0.729993 -0.429102,0.117098 -0.454118,0.09186 -0.132292,-0.133459 0.352778,-0.24699 0.352778,-0.281795 0,-0.313248 -0.218281,-0.01946 -0.486171,-0.02128 -0.595312,-0.0041 -0.109141,0.01723 -0.198437,-0.16 -0.198437,-0.39385 0,-0.275562 -0.144495,-0.369735 -0.410617,-0.267614 -0.22584,0.08666 -0.346054,0.0531 -0.267145,-0.07457 0.07891,-0.127679 -0.607512,-0.72143 -1.525382,-1.319446 -0.917871,-0.598016 -2.308286,-1.564381 -3.089812,-2.147478 -0.922726,-0.688446 -1.484717,-0.957008 -1.602802,-0.765942 -0.100223,0.162163 -0.194127,0.01434 -0.209206,-0.329327 -0.01505,-0.342958 -0.06652,-1.010514 -0.114381,-1.483456 -0.04786,-0.472943 -0.05819,-0.859896 -0.02294,-0.859896 0.03525,0 0.372601,0.117298 0.749677,0.260662 0.377076,0.143364 1.000784,0.317817 1.386019,0.387673 0.976614,0.177094 5.152119,1.442337 5.645978,1.71082 1.837704,0.999052 5.793913,2.932511 6.000451,2.932511 0.14152,0 0.482853,0.267891 0.758518,0.595313 0.275665,0.327422 0.394369,0.507048 0.263789,0.39917 -0.130581,-0.107878 -0.38719,-0.07184 -0.570242,0.08008 -0.245389,0.203655 -0.378426,0.132536 -0.506414,-0.27072 -0.09548,-0.300817 -0.284082,-0.478652 -0.419126,-0.395191 -0.135044,0.08346 -0.245534,0.03768 -0.245534,-0.101735 0,-0.401814 -2.112616,-1.420064 -2.137555,-1.03027 -0.01617,0.252652 -0.05119,0.251319 -0.15489,-0.0059 -0.0737,-0.182808 -0.272661,-0.253016 -0.442133,-0.156018 -0.169472,0.097 -0.218582,0.07764 -0.109134,-0.04301 0.246934,-0.272213 -1.815864,-1.479746 -2.702462,-1.581984 -0.35826,-0.04131 -0.69726,-0.212748 -0.753334,-0.380968 -0.07451,-0.223537 -0.215512,-0.21387 -0.523886,0.03592 -0.349971,0.283481 -0.384427,0.27951 -0.202025,-0.02328 0.140553,-0.23332 0.111142,-0.328798 -0.0815,-0.264584 -0.592112,0.197371 -0.390663,0.631917 0.353219,0.761929 0.416307,0.07276 0.805574,0.310886 0.865038,0.529167 0.06453,0.23689 0.02,0.290218 -0.110464,0.132292 -0.304543,-0.368638 -1.144622,-0.477943 -1.144622,-0.148931 0,0.149127 0.302842,0.347149 0.672982,0.440048 0.37014,0.0929 0.628109,0.303527 0.573264,0.468062 -0.05485,0.164535 -0.179093,0.269388 -0.276107,0.233008 -0.09701,-0.03638 -0.36201,-0.06615 -0.588879,-0.06615 -0.226869,0 -0.337082,-0.122012 -0.244917,-0.271138 0.09216,-0.149127 0.0099,-0.238424 -0.182822,-0.198438 -0.192718,0.03999 -0.321178,-0.110543 -0.285468,-0.334509 0.04537,-0.284545 -0.151695,-0.404097 -0.654192,-0.396875 -0.495601,0.0071 -0.749844,-0.143321 -0.817967,-0.48402 -0.06235,-0.311825 0.0098,-0.427189 0.195487,-0.312447 0.161884,0.10005 0.225834,0.292744 0.142112,0.42821 -0.08372,0.135465 0.05324,0.246301 0.304364,0.246301 0.251123,0 0.381401,-0.07519 0.289508,-0.16708 -0.09189,-0.09189 -0.04802,-0.38955 0.0975,-0.661458 0.213701,-0.399305 0.171206,-0.494379 -0.220976,-0.494379 -0.267057,0 -0.645901,-0.148828 -0.841874,-0.330729 -0.195974,-0.181901 -0.291814,-0.211667 -0.212979,-0.06615 0.07883,0.145521 -0.014,0.409924 -0.206303,0.587561 -0.275236,0.254249 -0.381414,0.254249 -0.498954,0 -0.08212,-0.177637 -0.08286,-0.05509 -0.0016,0.272335 0.192668,0.776667 -0.120225,0.75298 -1.015163,-0.07685 -0.425052,-0.394131 -0.726576,-0.530934 -0.728952,-0.330729 -0.0032,0.265666 -0.05453,0.261773 -0.23151,-0.01754 -0.125103,-0.197437 -0.292043,-0.254477 -0.370979,-0.126756 -0.159501,0.258078 6.86158,3.946518 7.402937,3.889043 0.187912,-0.01995 0.287425,0.05148 0.221139,0.158731 -0.06628,0.107252 0.699713,0.644623 1.702218,1.194157 1.002504,0.549534 2.65473,1.633034 3.671611,2.407778 1.751905,1.334745 3.641593,2.493315 4.066725,2.493315 0.106729,0 0.114679,-0.208359 0.01767,-0.463021 z m -3.562243,-2.116666 c -0.627142,-0.730211 -0.828829,-1.478735 -0.348807,-1.294534 0.219931,0.0844 0.399875,0.0311 0.399875,-0.118447 0,-0.149542 0.108458,-0.204864 0.241018,-0.122937 0.267812,0.165516 0.244161,0.643235 -0.05558,1.122782 -0.113843,0.18213 6.32e-4,0.429269 0.272023,0.587266 0.257722,0.15004 0.338211,0.27642 0.178864,0.280845 -0.159347,0.0044 -0.468672,-0.200314 -0.687388,-0.454975 z M 81.398007,68.59401 c -0.313265,-0.221825 -0.298713,-0.244571 0.07878,-0.123138 0.254662,0.08192 0.463021,0.04235 0.463021,-0.08793 0,-0.130284 0.208359,-0.292521 0.463021,-0.360526 0.392129,-0.104716 0.371874,-0.152921 -0.132292,-0.314843 -0.327422,-0.105157 -0.595312,-0.352166 -0.595312,-0.548908 0,-0.200624 0.165302,-0.294279 0.376417,-0.213267 0.378506,0.145246 0.6424,0.586403 0.582084,0.973077 -0.01785,0.114448 0.146134,0.328136 0.364415,0.474861 0.325873,0.219046 0.302205,0.254002 -0.132291,0.19539 -0.291042,-0.03926 -0.653914,0.0071 -0.806383,0.102994 -0.152469,0.09591 -0.450125,0.05194 -0.661458,-0.09771 z m 8.974716,-0.662069 c -0.311392,-0.377229 -0.306583,-0.421039 0.03375,-0.307506 0.218281,0.07282 0.52011,-0.03477 0.67073,-0.23909 0.22867,-0.310193 0.354167,-0.282741 0.760616,0.166381 0.47535,0.525255 0.473582,0.535327 -0.07542,0.4296 -0.309198,-0.05955 -0.562179,0.004 -0.562179,0.141126 0,0.391253 -0.428752,0.292544 -0.827499,-0.190511 z M 80.5255,67.721605 c -0.08612,-0.224431 -0.05118,-0.408057 0.07765,-0.408057 0.128827,0 0.294284,0.148828 0.367683,0.330729 0.0734,0.181901 0.142851,0.01006 0.15434,-0.381872 0.01328,-0.45292 -0.193401,-0.862695 -0.56715,-1.124479 -0.323421,-0.226533 -0.460937,-0.411878 -0.30559,-0.411878 0.509871,0 1.202541,1.002366 1.113327,1.611103 -0.105092,0.717078 -0.621879,0.953532 -0.840255,0.384454 z m 7.198305,-0.139757 c -0.574111,-0.482957 -0.58183,-0.519902 -0.09546,-0.456845 0.291042,0.03773 0.570302,0.184889 0.620578,0.327013 0.05028,0.142124 0.22887,0.345881 0.396875,0.452793 0.224934,0.143139 0.226,0.195454 0.004,0.198437 -0.165779,0.0022 -0.582498,-0.232401 -0.926041,-0.521398 z m -1.138541,-0.822141 c 0.08155,-0.13195 0.04203,-0.239909 -0.08783,-0.239909 -0.50144,0 -0.206353,-0.690025 0.311778,-0.729055 0.439263,-0.03309 0.46986,0.0081 0.15434,0.207549 -0.333145,0.210635 -0.322482,0.249441 0.06948,0.252871 0.632992,0.0055 0.585682,0.439424 -0.06651,0.609977 -0.291243,0.07616 -0.46281,0.03052 -0.38126,-0.101433 z m 18.257646,4.239474 c 0.42741,-0.446756 1.15309,-1.045002 1.61263,-1.329436 0.50016,-0.309577 0.80747,-0.700383 0.76564,-0.973654 -0.0408,-0.266551 0.16199,-0.537581 0.48738,-0.651359 0.35918,-0.125589 0.24169,-0.149469 -0.33052,-0.06718 -0.72222,0.103865 -0.85849,0.05129 -0.73064,-0.281905 0.0956,-0.249042 0.0476,-0.341855 -0.12241,-0.236789 -0.15378,0.09504 -0.21568,0.339347 -0.13757,0.542909 0.0781,0.203562 0.0267,0.370112 -0.11425,0.370112 -0.14096,0 -0.25628,0.185621 -0.25628,0.41249 0,0.244421 0.12446,0.335569 0.30546,0.223703 0.18497,-0.114318 0.23381,-0.07285 0.12382,0.105121 -0.25735,0.416407 -1.01895,0.06255 -0.84439,-0.392323 0.08,-0.208537 0.0278,-0.304367 -0.11709,-0.214826 -0.35466,0.219193 -0.33003,0.01273 0.12978,-1.087746 0.21523,-0.515122 0.48443,-0.879043 0.59823,-0.808714 0.28246,0.174568 0.9891,-0.384048 1.20134,-0.949684 0.0971,-0.258889 0.44569,-0.463021 0.79059,-0.463021 0.33926,0 0.75773,-0.14089 0.92993,-0.31309 0.53292,-0.53292 0.61876,-0.06967 0.0983,0.530443 -0.27036,0.311725 -0.55282,0.505508 -0.6277,0.430629 -0.0749,-0.07488 -0.10396,0.157048 -0.0646,0.515394 0.0834,0.760001 -0.54823,1.126668 -0.88971,0.516466 -0.20825,-0.372108 -0.24954,-0.36956 -0.40085,0.02473 -0.0928,0.241768 -0.0592,0.37192 0.0746,0.289228 0.1338,-0.08269 0.31826,-0.02902 0.4099,0.119266 0.11201,0.18123 0.32914,0.182645 0.66235,0.0043 0.27264,-0.145914 0.7119,-0.25724 0.97613,-0.247391 0.37723,0.01406 0.34016,0.0851 -0.17261,0.330729 -0.73328,0.351268 -2.05439,1.503447 -1.72388,1.503447 0.11765,0 0.76012,-0.34481 1.4277,-0.766244 0.66758,-0.421435 2.65246,-1.441921 4.41084,-2.267748 1.90067,-0.892658 3.19705,-1.655261 3.19705,-1.880689 0,-0.307447 -0.0918,-0.296133 -0.48507,0.0598 -0.31571,0.285712 -0.48507,0.326833 -0.48507,0.117776 0,-0.176663 -0.11309,-0.251312 -0.25131,-0.165888 -0.23823,0.147235 -0.96942,-0.866725 -0.87497,-1.213353 0.0245,-0.08977 -0.39673,0.0038 -0.93598,0.207931 -0.53925,0.204135 -1.19368,0.441574 -1.45429,0.527641 -0.57516,0.189946 -0.43686,0.765275 0.17159,0.713821 0.239,-0.02021 0.43454,0.06909 0.43454,0.198438 0,0.129351 -0.25131,0.235185 -0.55848,0.235185 -0.54683,0 -0.54545,0.01136 0.0661,0.54487 l 0.62462,0.544869 -0.71164,-0.432546 c -0.39332,-0.23907 -0.65153,-0.589164 -0.57727,-0.78269 0.23257,-0.606073 -0.37671,-0.702746 -0.78203,-0.124081 -0.21518,0.307215 -0.45916,0.43683 -0.54891,0.291608 -0.38526,-0.623364 3.42821,-2.363513 7.60613,-3.470797 1.66964,-0.442512 3.09547,-0.804566 3.1685,-0.804566 0.11109,0 0.0957,0.243558 -0.0647,1.024584 -0.0111,0.0542 -0.17307,-0.02829 -0.35985,-0.183303 -0.19004,-0.157718 -0.49379,-0.186552 -0.6897,-0.06547 -0.24526,0.151577 -0.26241,0.270575 -0.0573,0.397356 0.16106,0.09954 0.4119,0.107394 0.55742,0.01746 0.14552,-0.08994 0.27398,-0.0077 0.28547,0.182822 0.0161,0.266365 0.0517,0.269971 0.15434,0.01562 0.21884,-0.542347 0.76898,-0.376893 1.1569,0.347937 0.29444,0.550163 0.2987,0.718533 0.0225,0.889221 -0.26873,0.166084 -0.25742,0.242505 0.0535,0.361824 0.47552,0.182477 0.9874,-0.363902 1.736,-1.853025 0.71231,-1.416914 0.70514,-1.842797 -0.0353,-2.09947 -1.11196,-0.38545 -4.82051,-0.112291 -7.41672,0.54629 -3.46627,0.879292 -6.20379,2.359726 -8.72249,4.717061 -1.85335,1.734618 -2.13908,2.140671 -2.97656,4.230083 -1.25944,3.142143 -1.19871,3.582361 0.28086,2.035816 z m 8.22226,-6.463213 c -0.23935,-0.623734 -0.21242,-0.719996 0.14043,-0.501923 0.2076,0.128303 0.25438,0.04755 0.14204,-0.245198 -0.13036,-0.339717 -0.023,-0.424547 0.48421,-0.38257 0.35844,0.02966 0.6517,0.210299 0.6517,0.401408 0,0.191109 0.1977,0.423335 0.43934,0.516058 0.36785,0.141157 0.33893,0.205728 -0.17771,0.396846 -0.4251,0.157255 -0.68522,0.122806 -0.83621,-0.110745 -0.17696,-0.273714 -0.26303,-0.271036 -0.44693,0.01391 -0.18203,0.282055 -0.26172,0.264429 -0.39687,-0.08778 z m 3.78246,4.558339 c 1.53371,-1.118731 5.30884,-4.855846 5.30884,-5.255383 0,-0.126248 -0.18562,-0.229543 -0.41249,-0.229543 -0.22687,0 -0.3389,0.119063 -0.24897,0.264584 0.0899,0.145521 0.0513,0.264583 -0.0858,0.264583 -0.13713,0 -0.31474,0.250105 -0.39468,0.555788 -0.0925,0.353715 -0.26287,0.483147 -0.46861,0.355995 -0.18822,-0.116324 -0.25527,-0.08975 -0.16049,0.06359 0.20503,0.331746 -1.15679,1.359021 -1.60238,1.208738 -0.1819,-0.06135 -0.33073,-0.270296 -0.33073,-0.464323 0,-0.194028 0.14883,-0.418767 0.33073,-0.49942 0.1819,-0.08065 0.10496,-0.120341 -0.17099,-0.08819 -0.27594,0.03215 -0.55928,-0.106954 -0.62963,-0.309111 -0.0716,-0.205656 -0.008,-0.293733 0.14326,-0.199957 0.14915,0.09218 0.34183,-0.01649 0.42817,-0.241496 0.18239,-0.475297 0.30022,-0.532726 -2.74737,1.339013 -1.23693,0.759684 -3.40982,2.056436 -4.82864,2.881672 -1.41883,0.825235 -2.57974,1.526299 -2.5798,1.557919 -6e-5,0.03162 1.56979,0.0152 3.48855,-0.03649 l 3.48867,-0.09398 z m -1.9672,0.07132 c -0.15795,-0.255571 0.0297,-0.368053 0.48269,-0.28936 0.11995,0.02084 0.1429,-0.0838 0.051,-0.232519 -0.0919,-0.148724 -0.48772,-0.253932 -0.87956,-0.233795 -1.05444,0.05419 -1.3739,-0.01074 -1.3739,-0.279248 0,-0.274249 0.50106,-0.241025 0.99219,0.06579 0.20942,0.130828 0.33072,0.06104 0.33072,-0.190263 0,-0.606308 0.39641,-0.719732 0.95321,-0.272742 0.46953,0.376928 0.45922,0.383971 -0.15946,0.108878 l -0.66145,-0.294119 0.62385,0.543485 c 0.36212,0.315465 0.55987,0.710256 0.47133,0.940981 -0.17468,0.455194 -0.59031,0.521704 -0.8306,0.132912 z m 1.6109,-1.420785 c 0.13108,-0.341575 0.06,-0.39684 -0.32467,-0.252469 -0.42443,0.15929 -0.445,0.126398 -0.1489,-0.238027 0.23097,-0.284267 0.25265,-0.479055 0.0661,-0.59432 -0.4371,-0.270146 -0.32594,-0.512693 0.38642,-0.843096 0.36284,-0.168294 0.60106,-0.211083 0.52937,-0.09509 -0.0717,0.115996 0.17009,0.40775 0.53728,0.648342 0.36718,0.240592 0.59726,0.551271 0.51128,0.690399 -0.086,0.139128 -0.0302,0.25296 0.12386,0.25296 0.42872,0 0.33735,-0.301933 -0.29509,-0.975135 -0.72763,-0.774527 -0.1531,-0.811586 0.61858,-0.0399 l 0.57247,0.572465 -0.76547,0.610364 c -0.48161,0.384018 -0.85836,0.517472 -1.01596,0.359872 -0.1576,-0.1576 -0.38263,-0.140831 -0.60681,0.04522 -0.27971,0.232145 -0.32023,0.201709 -0.1885,-0.141588 z m -1.03937,-4.873073 c 0.0366,-0.39468 0.002,-0.56803 -0.0767,-0.385222 -0.0787,0.182808 -0.25205,0.265078 -0.38514,0.182822 -0.28017,-0.173153 -0.3142,0.179355 -0.077,0.797488 0.21663,0.564546 0.45593,0.300275 0.53884,-0.595088 z m 2.47118,0.737608 c 0,-0.14552 0.0893,-0.240994 0.19843,-0.212162 0.10915,0.02883 0.4812,-0.04344 0.82679,-0.160606 0.41323,-0.140097 0.69629,-0.103083 0.82682,0.108119 0.14183,0.229479 0.25014,0.237561 0.37946,0.02831 0.0995,-0.161057 0.0421,-0.292831 -0.12753,-0.292831 -0.17011,0 -0.23782,-0.184198 -0.15094,-0.410617 0.0904,-0.235459 0.046,-0.341662 -0.10398,-0.248968 -0.14385,0.08891 -0.26155,-0.02397 -0.26155,-0.250842 0,-0.226869 -0.12609,-0.41249 -0.2802,-0.41249 -0.15411,0 -0.21325,0.108318 -0.13143,0.240707 0.26438,0.427776 -0.14138,1.056452 -0.57457,0.890222 -0.24178,-0.09278 -0.57339,0.05137 -0.79922,0.347436 -0.36979,0.484783 -0.37853,0.481037 -0.20849,-0.0893 0.0976,-0.327422 0.0764,-0.595313 -0.0472,-0.595313 -0.12359,0 -0.24934,0.297656 -0.27945,0.661458 -0.0359,0.433876 0.0808,0.661459 0.33917,0.661459 0.21665,0 0.39391,-0.119063 0.39391,-0.264584 z m -3.85398,-20.97688 c 1.61036,-1.641868 3.64182,-3.463487 4.51434,-4.048043 1.79612,-1.203327 2.04371,-1.738853 1.09217,-2.362327 -2.4345,-1.595143 -7.618,-1.569396 -11.29268,0.05609 -1.7868,0.790388 -3.97484,3.870742 -4.31203,6.070546 -0.20505,1.337746 -0.0611,1.416863 2.57732,1.416863 1.81508,0 1.9618,0.0465 2.92203,0.926042 0.55606,0.509323 1.13699,0.926042 1.29096,0.926042 0.15397,0 1.59753,-1.343347 3.20789,-2.985215 z"
         id="path23779" />
      <path
         style="fill:#1b4523;stroke-width:1.23219"
         d="m 88.660198,33.13945 c -0.202116,-0.32703 0.78722,-1.280067 1.328821,-1.280067 0.17472,0 0.548483,-0.21479 0.830584,-0.477312 1.083259,-1.008074 5.272406,-4.096486 6.24203,-4.601882 1.31962,-0.687824 2.508319,-0.670517 3.952997,0.05756 1.91001,0.962587 6.18111,4.612586 5.91027,5.050806 -0.078,0.126145 0.0133,0.174388 0.20273,0.107207 0.33895,-0.120193 1.43734,1.107904 1.20167,1.343578 -0.31597,0.315969 -2.81919,-1.118018 -4.22718,-2.421569 -1.92409,-1.781365 -4.02547,-3.021331 -5.125914,-3.024651 -0.897116,-0.0027 -1.715228,0.488275 -4.336401,2.602447 -1.791654,1.445104 -4.505873,2.95132 -5.318311,2.95132 -0.259211,0 -0.556794,-0.138345 -0.661296,-0.307433 z"
         id="path23771" />
      <path
         style="fill:#1b4523;stroke-width:1.23219"
         d="m 87.695561,45.21916 c -0.107326,-0.561436 -0.05177,-0.655731 0.297271,-0.504528 0.236096,0.102277 0.905515,0.263763 1.487599,0.358859 1.113476,0.18191 0.950498,0.314123 -0.826438,0.670437 -0.737012,0.147787 -0.84072,0.091 -0.958432,-0.524768 z"
         id="path23770" />
      <path
         style="fill:#1b4523;stroke-width:1.23219"
         d="m 78.897098,81.493235 c -3.021519,-0.506805 -5.34043,-1.158068 -6.97775,-1.959692 -2.689055,-1.316548 -2.758077,-2.583116 -0.241718,-4.435554 2.025447,-1.49105 5.152799,-3.049275 7.417905,-3.696024 0.982266,-0.280464 1.784991,-0.570952 1.783833,-0.64553 -0.0012,-0.07458 -0.830928,-0.781778 -1.843935,-1.571556 -2.61517,-2.038884 -5.633078,-5.898432 -6.378651,-8.157543 -0.396989,-1.202887 0.05104,-2.061478 1.288881,-2.470004 1.391482,-0.45923 6.374625,-0.162474 9.052343,0.539085 2.701282,0.707733 5.833697,2.111438 7.257876,3.252414 0.809787,0.64876 0.996087,0.719443 0.841525,0.319282 -0.10918,-0.282667 -0.722158,-2.359408 -1.362173,-4.614981 C 88.461275,53.563389 87.212857,49.752274 86.692512,48.764446 86.239448,47.904345 83.318178,44.42933 81.841757,42.9942 81.1807,42.35163 80.706152,41.718589 80.787205,41.587441 c 0.08105,-0.131147 -0.07027,-0.200721 -0.336264,-0.154608 -0.273221,0.04736 -0.486218,-0.07479 -0.489572,-0.280762 -0.0033,-0.200532 -0.303594,-0.556322 -0.667396,-0.790645 -0.643462,-0.414451 -0.650879,-0.41173 -0.27259,0.10002 0.455421,0.616094 -0.498624,-0.143992 -2.307098,-1.838062 -1.808248,-1.693859 -1.360004,-3.038233 1.479393,-4.437002 1.088047,-0.536003 1.661433,-0.612177 4.889658,-0.649587 3.126385,-0.03623 3.740694,-0.113018 4.233333,-0.529167 l 0.576262,-0.486787 -0.504028,0.595313 c -0.501203,0.591975 -0.500461,0.595365 0.132291,0.604628 1.146733,0.01679 4.020421,1.683833 4.915124,2.851293 0.736376,0.960867 1.674321,3.364163 1.674321,4.290113 0,0.552476 -0.778047,-0.261671 -1.38043,-1.44448 -1.229067,-2.413334 -2.525631,-3.44375 -5.187232,-4.122438 -1.603857,-0.408972 -5.76624,-0.350996 -7.190671,0.100156 -2.300276,0.728553 -2.910416,1.016901 -2.910416,1.37544 0,0.19899 0.809763,0.8904 1.799473,1.536466 1.7215,1.123765 4.941609,4.281729 7.105594,6.968464 1.444839,1.793864 2.852034,3.201823 2.655584,2.657024 -0.09183,-0.254662 -0.112384,-0.463021 -0.04568,-0.463021 0.313839,0 3.979177,2.540596 6.476693,4.489262 2.608296,2.035101 2.841358,2.159422 3.812514,2.033689 1.051832,-0.136177 4.052242,-2.020895 7.961442,-5.001019 1.7255,-1.315406 1.8469,-1.474441 1.77614,-2.326816 -0.0418,-0.503199 -0.25445,-1.093501 -0.47263,-1.311783 -0.55078,-0.551044 -2.7259,-0.420899 -4.25264,0.25445 -1.45513,0.643675 -1.71387,0.668045 -1.51217,0.142425 0.40389,-1.052516 -1.8353,0.300557 -2.962324,1.79004 -0.414615,0.547959 -0.878445,0.957587 -1.030734,0.910285 -0.152289,-0.0473 -0.482993,-0.495632 -0.734898,-0.996289 -0.586823,-1.166302 -1.469845,-1.889926 -2.072735,-1.698576 -0.686739,0.217962 -4.670554,-0.834301 -5.434918,-1.43555 -0.642213,-0.505164 -0.643661,-0.515336 -0.09802,-0.688516 0.304602,-0.09668 1.130648,-0.09644 1.835657,5.21e-4 1.268048,0.174401 1.283759,0.167532 1.460847,-0.638746 0.221978,-1.010661 0.598088,-1.050021 0.835543,-0.08744 0.290376,1.177106 0.946194,1.902252 1.581739,1.748949 0.407392,-0.09827 0.739306,0.09324 1.214949,0.700998 l 0.654428,0.836203 0.18084,-3.788291 c 0.195994,-4.105746 0.394647,-5.781713 0.685309,-5.781713 0.38383,0 1.069577,4.205564 1.069577,6.559523 v 2.446391 l 0.72761,-0.178265 c 0.40018,-0.09805 0.76985,-0.286603 0.82149,-0.419015 0.0516,-0.132411 0.3812,-0.349981 0.73235,-0.483488 0.75155,-0.285736 1.13167,-1.158273 1.27946,-2.936854 0.15331,-1.844956 1.23658,-4.005268 2.74532,-5.47482 1.20059,-1.16942 2.67707,-1.845604 5.60002,-2.564662 1.48213,-0.364609 2.38613,-0.39124 4.01935,-0.118407 4.08126,0.681788 6.2994,2.011642 6.2994,3.77672 0,0.845297 -0.22112,1.089579 -3.00613,3.320977 -3.11453,2.495408 -5.77266,5.145036 -6.9571,6.934846 -0.37657,0.569043 -0.80761,0.958649 -0.95785,0.865791 -0.15596,-0.09638 -0.19362,-0.0401 -0.0878,0.131164 0.25442,0.411669 -0.32519,1.427096 -0.68697,1.203503 -0.16096,-0.09948 -0.21827,-0.06098 -0.1276,0.08573 0.0905,0.14647 -0.24131,1.0876 -0.73741,2.091401 -0.49609,1.003801 -1.26123,3.253843 -1.7003,5.000093 -0.43907,1.74625 -1.08962,4.216796 -1.44565,5.490104 -0.68491,2.449468 -0.61331,2.918135 0.21177,1.386062 0.89499,-1.661903 4.91476,-3.910341 8.74814,-4.893232 2.28251,-0.585245 6.69135,-1.129392 7.62654,-0.941281 0.31654,0.06367 0.90145,0.184661 1.2998,0.268863 1.04569,0.221039 1.59998,1.194146 1.3721,2.408854 -0.41042,2.187722 -4.58987,7.347671 -7.59557,9.377504 -1.07993,0.729302 -1.23545,1.058333 -0.50026,1.058333 0.90618,0 4.22779,1.273029 6.89095,2.640999 2.66419,1.368502 4.26789,2.750246 4.26789,3.6772 0,1.130283 -2.70082,2.465458 -7.36223,3.639581 -3.2311,0.813856 -3.87409,0.890136 -7.50315,0.890136 -5.15751,0 -8.79695,-0.713662 -13.62768,-2.67227 -0.765827,-0.310501 -1.109385,-0.253204 -3.704173,0.617763 -1.57303,0.528004 -3.753024,1.153753 -4.84443,1.390555 -2.721499,0.590481 -10.056545,0.757138 -12.832291,0.291557 z M 120.56897,79.76996 c 2.73048,-0.605914 5.3772,-1.478978 6.28321,-2.072621 l 0.67098,-0.439643 -1.0297,-0.895684 c -1.212,-1.054262 -6.32216,-3.581128 -8.06696,-3.988947 -0.66904,-0.156376 -2.6931,-0.362315 -4.49792,-0.457641 -3.78386,-0.199856 -5.54122,0.07431 -7.76452,1.211345 -1.59545,0.815947 -4.79088,3.285153 -5.0183,3.877804 -0.17433,0.454309 -0.26656,0.464766 1.58856,-0.180107 2.39103,-0.831162 5.325,-1.084648 8.97111,-0.775075 5.11625,0.434395 5.30154,0.6767 0.66146,0.864985 -4.78224,0.194054 -11.42281,1.024972 -11.06344,1.384341 0.24875,0.248752 6.68455,1.752866 8.4176,1.967282 2.77701,0.343575 8.17704,0.09665 10.84792,-0.496039 z M 90.975492,79.74557 c 4.005479,-0.710375 6.004725,-1.220118 5.516397,-1.406503 -1.746642,-0.666654 -5.693159,-1.159937 -11.244792,-1.40551 -4.654522,-0.205889 -4.543155,-0.402685 0.529167,-0.935089 3.490805,-0.366404 7.219371,0.02354 10.153678,1.061913 l 2.180852,0.771742 -0.608887,-0.648131 c -0.334888,-0.356472 -1.491521,-1.18399 -2.570296,-1.83893 -1.078775,-0.65494 -2.487048,-1.592155 -3.129496,-2.082701 -1.587364,-1.212042 -3.389635,-1.550395 -7.348767,-1.379634 -3.606576,0.155554 -5.790128,0.727609 -8.677389,2.273332 -2.035797,1.089884 -4.193325,2.649625 -4.356855,3.149699 -0.216187,0.661103 4.98618,2.365509 8.536327,2.796683 2.633723,0.319871 8.225215,0.138798 11.020061,-0.356871 z m 10.289448,-7.261614 c 0.39663,-0.879194 0.93889,-2.294079 1.20503,-3.144189 0.46764,-1.493801 0.46774,-1.554687 0.003,-1.814893 -0.2646,-0.148082 -0.88526,-1.156109 -1.37923,-2.240063 -0.49398,-1.083953 -1.01355,-1.89949 -1.154622,-1.812306 -0.250656,0.154914 -0.499347,-0.5237 -0.580089,-1.582916 -0.08123,-1.06568 0.04886,-2.248958 0.247255,-2.248958 0.112062,0 0.915736,1.666291 1.785936,3.70287 0.87021,2.036579 1.64757,3.703454 1.72748,3.704167 0.28512,0.0025 2.27728,-6.76611 3.03067,-10.297159 0.2042,-0.957048 0.67421,-2.62339 1.04448,-3.702983 0.37027,-1.079592 0.6233,-2.012811 0.56229,-2.073819 -0.061,-0.06101 -0.44771,0.124403 -0.85933,0.412024 -4.01254,2.80376 -7.120429,4.542942 -8.127471,4.548148 -0.628731,0.0033 -2.636017,-1.223737 -4.542951,-2.776956 -0.805732,-0.656278 -2.084301,-1.503556 -2.841264,-1.882841 -0.756963,-0.379285 -1.585386,-0.873744 -1.84094,-1.098797 -0.52967,-0.466453 -0.947908,-0.248987 -0.517816,0.269243 0.30495,0.367442 1.428837,3.815803 2.566023,7.873186 0.676504,2.413711 2.770698,8.479519 3.882215,11.244791 0.292464,0.727604 1.197709,2.532038 2.011655,4.009854 l 1.479902,2.686937 0.788435,-1.088403 c 0.433642,-0.598621 1.112952,-1.807743 1.509572,-2.686937 z m -6.496581,-0.738638 c -1.014653,-1.73604 -2.774387,-5.477493 -2.774387,-5.898755 0,-1.10098 -5.605043,-4.453386 -9.044781,-5.409733 -3.520543,-0.978812 -7.813868,-1.231859 -8.953222,-0.527699 -0.938647,0.580116 2.539324,5.332232 6.18274,8.44777 1.096516,0.937647 1.93431,1.80085 1.861766,1.918229 -0.07254,0.117379 1.274112,0.215043 2.99257,0.21703 1.718458,0.002 3.422125,0.07594 3.785927,0.164346 0.363802,0.0884 -1.236605,-0.991402 -3.55646,-2.399568 -7.662874,-4.651412 -9.164077,-6.08425 -3.143297,-3.000153 5.009993,2.566331 7.130701,3.823553 8.62573,5.113606 1.302971,1.124328 3.561768,2.451034 4.2216,2.47956 0.402381,0.0174 0.377922,-0.118931 -0.198186,-1.104633 z m 10.148581,-0.604345 c 1.00211,-1.152527 5.0364,-3.576694 8.90516,-5.351032 4.08059,-1.871493 4.89479,-2.215636 4.89479,-2.068924 0,0.142451 -4.61566,3.083892 -6.48229,4.130996 -2.44414,1.37106 -4.8388,2.992315 -4.10105,2.776522 0.36381,-0.106412 2.17984,-0.234268 4.03563,-0.284124 l 3.37417,-0.09065 1.54521,-1.18901 c 1.73768,-1.337113 5.00088,-4.738904 6.10605,-6.36538 0.97688,-1.437672 1.43727,-2.806071 1.068,-3.174332 -0.16504,-0.164582 -1.40143,-0.273327 -2.98004,-0.262104 -5.3919,0.03834 -10.45064,2.0308 -14.04291,5.531024 -1.96273,1.912436 -2.07383,2.115876 -4.03075,7.381157 -0.17453,0.469598 -0.14963,0.473215 0.46868,0.06808 0.35915,-0.235325 0.91686,-0.731327 1.23935,-1.102228 z m 6.84513,-25.907851 c 0.57853,-1.033771 5.34096,-5.581939 6.96575,-6.652353 1.01263,-0.667126 1.84115,-1.302807 1.84115,-1.412624 0,-0.301017 -0.81451,-0.954493 -1.85208,-1.485917 -1.38421,-0.708961 -6.02267,-0.857469 -8.08215,-0.258763 -2.02401,0.588396 -3.37106,1.286503 -4.22662,2.190443 -0.63359,0.669413 -0.8863,1.085627 -2.04833,3.373599 -0.57547,1.133071 -0.75132,3.504835 -0.27345,3.688209 0.22436,0.0861 0.29955,0.02734 0.1906,-0.148947 -0.19032,-0.307953 0.32383,-0.750272 0.88005,-0.757086 0.1819,-0.0022 0.33073,0.174542 0.33073,0.392823 0,0.218282 0.20836,0.395052 0.46302,0.392824 0.3957,-0.0035 0.40532,-0.04134 0.0662,-0.260532 -0.32469,-0.209833 -0.29462,-0.257217 0.16536,-0.260532 0.30923,-0.0022 0.92107,-0.07582 1.35963,-0.163529 0.66597,-0.133194 0.96394,-0.0024 1.80799,0.79375 1.05322,0.993433 2.04379,1.226943 2.4122,0.568635 z"
         id="path23769" />
      <path
         style="fill:#182e1f;stroke-width:1.23219"
         d="m 106.66369,32.677902 c -0.86506,-0.414806 -1.98956,-1.200262 -2.49889,-1.745459 -1.08811,-1.164756 -3.42777,-2.734898 -4.55846,-3.059175 -1.08806,-0.312051 -2.000312,0.135911 -4.56966,2.243936 -2.455758,2.014831 -4.37458,3.065096 -5.599895,3.065096 -1.154909,0 -0.932327,-0.571557 0.468598,-1.203287 0.580384,-0.261716 1.138917,-0.617144 1.241187,-0.789841 0.251296,-0.424349 4.339813,-3.472491 5.704374,-4.252823 2.471346,-1.413254 4.647026,-0.489678 9.487566,4.027478 0.86143,0.803881 1.20181,1.307002 1.09952,1.625247 -0.10765,0.334941 -0.0807,0.367108 0.0986,0.117681 0.19819,-0.275696 0.31467,-0.261419 0.59183,0.07254 0.58988,0.710771 0.16808,0.681573 -1.46478,-0.101393 z M 92.908715,31.047351 c -0.08372,-0.135466 0.118442,-0.246301 0.449255,-0.246301 0.554193,0 0.567817,-0.03366 0.173297,-0.428182 -0.430146,-0.430145 -1.149287,-0.278853 -0.864538,0.181881 0.08372,0.135465 0.02987,0.246301 -0.119671,0.246301 -0.149542,0 -0.203624,0.17791 -0.120183,0.395355 0.08344,0.217446 0.260241,0.328281 0.392887,0.246301 0.132646,-0.08198 0.172675,-0.25989 0.08895,-0.395355 z m 9.800885,-2.098384 c -0.0899,-0.145521 -0.0374,-0.264584 0.11667,-0.264584 0.15411,0 0.2802,0.119063 0.2802,0.264584 0,0.14552 0.14883,0.260301 0.33073,0.255068 0.52812,-0.01519 -1.13463,-1.301171 -2.5703,-1.987882 -0.992309,-0.474643 -1.369274,-0.549873 -1.541495,-0.307633 -0.177567,0.24976 -0.257639,0.247533 -0.362167,-0.01007 -0.07381,-0.181901 -0.332634,-0.32133 -0.575169,-0.309841 -0.296487,0.01404 -0.328014,0.06614 -0.09622,0.159015 0.259205,0.103852 0.226379,0.234844 -0.132292,0.527899 -0.262375,0.214375 -0.319449,0.308967 -0.126833,0.210205 0.646375,-0.331424 2.416646,-0.271401 2.553876,0.08659 0.0724,0.188727 0.28196,0.323449 0.46581,0.29938 0.7345,-0.09615 0.99573,0.04186 0.99573,0.526055 0,0.42234 0.22442,0.662368 0.74322,0.794911 0.045,0.01149 0.008,-0.09817 -0.0818,-0.243695 z"
         id="path23761" />
      <path
         style="fill:#182e1f;stroke-width:1.23219"
         d="m 85.908556,35.00478 c -0.800365,-0.125494 -2.169583,-0.185653 -3.042708,-0.133686 -0.873125,0.05197 -1.317591,0.04233 -0.987702,-0.02141 0.329889,-0.06374 0.54753,-0.200469 0.483646,-0.303835 -0.158487,-0.256437 4.902243,0.218554 5.398847,0.506727 0.495788,0.287699 0.24659,0.281268 -1.852083,-0.04779 z"
         id="path23760" />
      <path
         style="fill:#182e1f;stroke-width:1.23219"
         d="m 78.897098,35.549071 c 0.582083,-0.275446 1.296458,-0.500047 1.5875,-0.499112 0.291041,9.34e-4 -0.125677,0.23205 -0.926042,0.513591 -1.814729,0.638358 -2.031054,0.633623 -0.661458,-0.01448 z"
         id="path23759" />
      <path
         style="fill:#182e1f;stroke-width:1.23219"
         d="m 75.594264,36.583146 c -0.0025,-0.239587 0.433368,-0.820028 0.968487,-1.289869 1.677039,-1.47246 2.484908,-1.688089 6.498514,-1.734529 2.553865,-0.02955 3.773613,-0.146497 4.101042,-0.3932 0.436791,-0.329104 0.438569,-0.321022 0.02833,0.128774 -0.376368,0.412659 -0.935911,0.48681 -3.992668,0.529113 -3.282435,0.04543 -3.668235,0.104618 -5.032601,0.77214 -0.883788,0.432397 -1.696475,1.064601 -2.022145,1.573063 -0.342008,0.533971 -0.54616,0.688121 -0.548959,0.414508 z"
         id="path23758" />
      <path
         style="fill:#182e1f;stroke-width:1.23219"
         d="m 117.78818,40.05715 c -0.0914,-0.147894 -0.30679,-0.184571 -0.47864,-0.0815 -0.17184,0.103069 -0.14364,-0.02055 0.0627,-0.274712 0.50706,-0.624649 1.34468,-1.06512 1.34468,-0.707111 0,0.15064 -0.16745,0.273892 -0.37211,0.273892 -0.24184,0 -0.32366,0.185245 -0.23372,0.529167 0.14637,0.559718 -0.0433,0.712617 -0.32288,0.260267 z"
         id="path23757" />
      <path
         style="fill:#182e1f;stroke-width:1.23219"
         d="m 93.563435,40.358063 c -0.228186,-0.235888 -0.722871,-0.964668 -1.099301,-1.619512 -0.878004,-1.527393 -1.822038,-2.400198 -3.203259,-2.961567 -0.606864,-0.246647 -0.946734,-0.455102 -0.755266,-0.463233 0.191468,-0.0081 0.580882,0.109786 0.865364,0.262036 0.789873,0.422727 1.152462,0.033 0.589686,-0.633815 l -0.480256,-0.569045 0.604643,0.512472 c 0.332554,0.28186 0.548735,0.658168 0.480403,0.836239 -0.06833,0.178072 0.340047,0.631018 0.907511,1.006548 0.829129,0.548691 0.999299,0.592308 0.866504,0.222094 -0.09089,-0.253378 -0.07076,-0.375245 0.04473,-0.270816 0.115487,0.104429 0.258084,0.626412 0.316881,1.159963 0.0588,0.533551 0.285283,1.281547 0.503302,1.662213 l 0.396399,0.69212 -0.178266,-0.661459 c -0.09805,-0.363802 -0.238982,-0.840052 -0.31319,-1.058333 -0.09223,-0.271281 -0.04665,-0.313146 0.144012,-0.132292 0.253873,0.24081 0.922989,2.287848 0.783961,2.398385 -0.03244,0.02579 -0.245672,-0.146111 -0.473858,-0.381998 z"
         id="path23756" />
      <path
         style="fill:#182e1f;stroke-width:1.23219"
         d="m 103.34646,43.438515 c 0.15032,-0.398196 0.25828,-1.12363 0.23992,-1.612074 -0.0362,-0.964281 0.18611,-1.50039 0.62232,-1.50039 0.16126,0 0.19646,0.193724 0.0841,0.463021 -0.10624,0.254662 -0.29862,0.993897 -0.42751,1.642746 -0.1289,0.64885 -0.35987,1.303693 -0.51326,1.455209 -0.19545,0.193055 -0.19712,0.05886 -0.006,-0.448512 z"
         id="path23755" />
      <path
         style="fill:#182e1f;stroke-width:1.23219"
         d="m 99.66686,44.014603 c 0,-0.154109 -0.148828,-0.190785 -0.330729,-0.0815 -0.224725,0.135011 -0.214342,0.05521 0.0324,-0.248968 0.276937,-0.34141 0.284525,-0.447664 0.03197,-0.447664 -0.248939,0 -0.285793,-0.400952 -0.148443,-1.614964 0.144216,-1.274703 0.109607,-1.59036 -0.164263,-1.498191 -0.221789,0.07464 -0.329914,0.506516 -0.299689,1.197019 0.02822,0.644687 -0.08276,1.130148 -0.275239,1.20401 -0.239208,0.09179 -0.29821,-0.329935 -0.228404,-1.632576 0.05177,-0.965987 0.162944,-1.934933 0.247063,-2.153215 0.08412,-0.218281 0.128122,-0.712489 0.09779,-1.098241 -0.03034,-0.385751 0.05234,-0.767803 0.183723,-0.849003 0.341617,-0.211131 1.14385,4.22653 1.085709,6.005749 -0.02692,0.82376 -0.0901,1.497745 -0.140411,1.497745 -0.05031,0 -0.09147,-0.126089 -0.09147,-0.280198 z"
         id="path23754" />
      <path
         style="fill:#182e1f;stroke-width:1.23219"
         d="m 92.47883,44.162326 c -0.07286,-0.07286 -0.623569,-0.151719 -1.223795,-0.175238 -0.613885,-0.02405 -1.023218,-0.152953 -0.935653,-0.294636 0.08562,-0.138531 0.626314,-0.188747 1.201549,-0.111592 1.053823,0.141348 1.4666,0.337715 1.222666,0.581649 -0.07276,0.07276 -0.191906,0.07268 -0.264767,-1.83e-4 z"
         id="path23753" />
      <path
         style="fill:#182e1f;stroke-width:1.23219"
         d="m 98.07936,44.080786 c 0,-0.809303 0.107227,-1.108903 0.396875,-1.108903 0.510883,0 0.505825,1.02433 -0.0084,1.704215 -0.361462,0.477896 -0.388461,0.436521 -0.388461,-0.595312 z"
         id="path23752" />
      <path
         style="fill:#182e1f;stroke-width:1.23219"
         d="m 98.445919,45.570862 c 0.09247,-0.462331 0.223534,-0.896017 0.291262,-0.963745 0.21854,-0.218539 0.929437,0.532356 0.761402,0.804242 -0.09868,0.159667 -0.251743,0.121932 -0.389911,-0.09613 -0.159058,-0.251026 -0.228677,-0.140173 -0.23151,0.368628 -0.0022,0.400182 -0.137997,0.727604 -0.301708,0.727604 -0.193305,0 -0.238717,-0.294696 -0.129535,-0.840604 z"
         id="path23751" />
      <path
         style="fill:#182e1f;stroke-width:1.23219"
         d="m 98.436119,47.875138 c -1.209609,-1.704717 -1.522807,-2.05093 -2.04692,-2.262696 -0.53739,-0.21713 -0.538523,-0.226564 -0.0296,-0.24659 0.440033,-0.01731 0.462316,-0.06402 0.132292,-0.277303 -0.218282,-0.141064 -0.266501,-0.258303 -0.107153,-0.260532 0.159347,-0.0022 0.505222,0.234074 0.768611,0.525115 0.263389,0.291042 0.3924,0.529167 0.286691,0.529167 -0.428221,0 0.671761,0.829079 1.147532,0.864917 0.282421,0.02127 0.458396,0.127827 0.391057,0.236785 -0.06734,0.108957 -0.298566,0.130516 -0.513837,0.04791 -0.27695,-0.106276 -0.343734,-0.02597 -0.228386,0.274619 0.08966,0.233648 0.270444,0.35842 0.401744,0.277272 0.1313,-0.08115 0.312127,0.04373 0.401837,0.277514 0.279314,0.72788 -0.09118,0.736361 -0.603866,0.01382 z"
         id="path23750" />
      <path
         style="fill:#182e1f;stroke-width:1.23219"
         d="m 103.10647,69.725976 c 0,-0.717098 0.54598,-2.147845 0.81963,-2.147845 0.13129,0 0.2387,-0.297656 0.2387,-0.661458 0,-0.363802 0.10616,-0.661458 0.23591,-0.661458 0.12974,0 0.3106,-0.297657 0.40191,-0.661459 0.186,-0.741095 0.6851,-0.902061 0.6851,-0.220954 0,0.758818 -1.62147,4.543001 -2.0106,4.692323 -0.23411,0.08984 -0.37065,-0.03509 -0.37065,-0.339149 z"
         id="path23749" />
      <path
         style="fill:#182e1f;stroke-width:1.23219"
         d="m 79.690109,81.590692 c -2.748302,-0.359643 -6.29371,-1.302997 -7.804469,-2.076595 -2.801145,-1.434352 -2.716822,-2.691546 0.317797,-4.738102 2.445995,-1.649586 4.095163,-2.473788 6.429077,-3.213049 1.018646,-0.322653 2.015855,-0.638853 2.216019,-0.702667 0.226717,-0.07228 -0.06098,-0.401403 -0.76305,-0.872917 -2.672607,-1.794944 -6.340041,-6.145099 -7.300165,-8.659147 -0.38012,-0.995331 -0.396298,-1.277313 -0.10456,-1.822431 0.528917,-0.988291 1.804863,-1.268362 5.126546,-1.125279 4.434041,0.190998 8.650437,1.454042 11.781944,3.529345 2.419537,1.603468 2.669307,1.724856 2.669307,1.297281 0,-0.215325 -0.09309,-0.3915 -0.206875,-0.3915 -0.113782,0 -0.233422,-0.320752 -0.265868,-0.712782 -0.03245,-0.392031 -0.14771,-0.778984 -0.256145,-0.859896 -0.108434,-0.08091 -0.226206,-0.444769 -0.261715,-0.808571 -0.120229,-1.231795 -0.346781,-1.874372 -0.604653,-1.714998 -0.141255,0.0873 -0.256827,0.27779 -0.256827,0.423311 0,0.145521 0.131818,0.183115 0.292929,0.08354 0.192926,-0.119235 0.237344,-0.0059 0.13011,0.331959 -0.08955,0.28215 0.01239,1.095176 0.226535,1.806725 0.402598,1.337732 0.342345,2.008832 -0.08009,0.892092 -0.131491,-0.347604 -0.61888,-2.001226 -1.083086,-3.674716 -1.073008,-3.868258 -2.616772,-8.629715 -3.131096,-9.657291 -0.543147,-1.085161 -2.168947,-3.065645 -4.398282,-5.357812 -1.026106,-1.055026 -1.764752,-1.918229 -1.641435,-1.918229 0.123317,0 0.06081,-0.208359 -0.138914,-0.463021 -0.328604,-0.419002 -0.319384,-0.428729 0.09698,-0.102312 0.253059,0.198389 0.399895,0.458133 0.326303,0.577209 -0.159375,0.257873 0.935069,1.076644 1.211104,0.906045 0.105317,-0.06509 0.353804,0.08179 0.552194,0.326406 0.248082,0.305884 0.257443,0.382711 0.02998,0.246055 -0.639227,-0.384035 -0.318631,0.11686 0.90375,1.412008 0.678964,0.719381 1.336757,1.244755 1.461764,1.167496 0.125006,-0.07726 0.199855,-0.04232 0.16633,0.07764 -0.09074,0.324672 0.856247,2.011436 1.031097,1.836585 0.08277,-0.08277 -1.22e-4,-0.331956 -0.184197,-0.553754 -0.184076,-0.221798 -0.245995,-0.403269 -0.137599,-0.403269 0.108397,0 0.05927,-0.166061 -0.109178,-0.369025 -0.168445,-0.202964 -0.287986,-0.470854 -0.265648,-0.595312 0.10529,-0.586617 -0.105563,-0.953365 -1.189074,-2.068216 -0.641863,-0.660429 -1.083372,-1.20078 -0.98113,-1.20078 0.41839,0 2.390682,2.301653 2.558539,2.985799 0.106888,0.435649 0.496103,0.899898 0.952185,1.135747 0.42427,0.219399 0.699126,0.515848 0.610791,0.658777 -0.08834,0.142929 -0.0029,0.227155 0.189786,0.18717 0.192718,-0.03999 0.350396,0.105892 0.350396,0.324173 0,0.574392 2.748342,3.042708 3.387897,3.042708 0.173948,0 0.458182,0.178594 0.631631,0.396875 0.265417,0.334021 0.308398,0.296214 0.27139,-0.238725 -0.02538,-0.366865 -0.247191,-0.688743 -0.524618,-0.761292 -0.423853,-0.11084 -0.531142,-0.719774 -0.126818,-0.719774 0.205024,0 3.438294,2.344647 4.996195,3.623055 1.586603,1.30196 2.489546,1.317205 4.546677,0.07677 0.84738,-0.510965 1.654,-0.858996 1.79249,-0.773404 0.13849,0.08559 0.21909,0.04232 0.1791,-0.09616 -0.10853,-0.375907 3.21146,-2.74349 3.55199,-2.533027 0.1706,0.105433 0.21942,0.0615 0.11658,-0.1049 -0.0993,-0.160662 0.34722,-0.662741 1.01746,-1.144066 0.65692,-0.471765 1.1944,-0.976478 1.1944,-1.121583 0,-0.145106 0.0765,-0.187331 0.16999,-0.09383 0.0935,0.0935 0.0487,0.321701 -0.0996,0.507118 -0.14827,0.185418 -0.18514,0.569161 -0.0819,0.852763 0.1611,0.442665 0.2327,0.386498 0.50592,-0.396875 0.23821,-0.682984 0.37615,-0.818937 0.54839,-0.54049 0.2553,0.412734 0.10283,1.655861 -0.22952,1.871298 -0.34156,0.221412 -0.65632,1.426306 -0.31797,1.217193 0.52567,-0.324881 2.1601,-3.362918 1.97917,-3.678821 -0.0979,-0.170974 -0.0814,-0.223415 0.0366,-0.116536 0.11809,0.106878 0.36051,-0.0051 0.53872,-0.248793 0.26727,-0.365523 0.23084,-0.518567 -0.20808,-0.87398 -0.52093,-0.421822 -0.49726,-0.468095 1.1282,-2.205712 0.91315,-0.976169 1.72014,-1.714998 1.79329,-1.641844 0.0732,0.07315 -0.0133,0.309263 -0.19206,0.524687 -0.17878,0.215423 -0.24825,0.515956 -0.15438,0.667852 0.27768,0.449291 -0.14603,0.925158 -0.44774,0.502858 -0.19673,-0.275362 -0.22253,-0.253101 -0.11077,0.09557 0.0801,0.250001 0.0318,0.524918 -0.10734,0.610927 -0.13916,0.08601 -0.25303,0.295544 -0.25303,0.465632 0,0.170089 0.38696,-0.160261 0.8599,-0.73411 0.47294,-0.573849 0.8212,-1.212455 0.7739,-1.419124 -0.0543,-0.237427 0.0568,-0.320952 0.30199,-0.226881 0.24345,0.09342 0.70232,-0.242274 1.23182,-0.90117 0.60749,-0.755946 0.97984,-1.006889 1.32939,-0.895945 0.26706,0.08476 0.57619,0.0075 0.68696,-0.17177 0.11188,-0.181034 0.063,-0.372017 -0.11003,-0.429686 -0.53489,-0.178297 -0.33989,-0.563976 0.22969,-0.454285 0.68685,0.132274 1.35376,-0.115885 1.15887,-0.431217 -0.082,-0.132646 -0.25989,-0.172675 -0.39535,-0.08895 -0.13547,0.08372 -0.2463,0.01621 -0.2463,-0.150024 0,-0.166236 0.14776,-0.252992 0.32836,-0.192791 0.6444,0.214797 1.08011,-0.563123 0.82115,-1.466067 -0.92051,-3.209639 -10.8149,-3.203761 -14.027,0.0083 -0.5849,0.584898 -0.88085,0.74454 -0.88085,0.475152 0,-0.223132 -0.13751,-0.405694 -0.30559,-0.405694 -0.17685,0 -0.11065,-0.215407 0.15716,-0.511324 0.25694,-0.283923 0.6576,-0.449325 0.9009,-0.371916 0.36892,0.117378 0.37666,0.09593 0.049,-0.135749 -0.21407,-0.151335 -0.30624,-0.358127 -0.20483,-0.459537 0.10141,-0.101409 0.36063,-0.0381 0.57606,0.140684 0.40734,0.338066 1.0555,0.144764 0.81568,-0.243266 -0.0753,-0.121894 0.10132,-0.159312 0.39256,-0.08315 0.30987,0.08103 0.52953,0.0083 0.52953,-0.175369 0,-0.175991 -0.26148,-0.273948 -0.59531,-0.223014 -0.32742,0.04996 -0.56555,0.23683 -0.52917,0.415277 0.0761,0.373333 -0.36011,0.440423 -0.57742,0.08881 -0.0801,-0.129603 0.17123,-0.443262 0.55851,-0.697021 0.53457,-0.350261 0.8139,-0.392843 1.15983,-0.176805 0.25062,0.156516 0.53083,0.209425 0.62267,0.117577 0.0919,-0.09185 0.55117,-0.189309 1.02072,-0.21658 0.46954,-0.02727 1.50856,-0.125095 2.30892,-0.217388 3.34828,-0.386101 3.91286,-0.405315 4.76113,-0.162034 0.48961,0.14042 0.98605,0.406312 1.1032,0.590872 0.16789,0.264514 0.21384,0.265538 0.21704,0.0048 0.002,-0.181901 0.13014,-0.330729 0.28425,-0.330729 0.1541,0 0.20169,0.127025 0.10574,0.282279 -0.10473,0.169442 0.0212,0.248764 0.31511,0.198437 0.27548,-0.04718 0.46203,0.05662 0.4266,0.237366 -0.0356,0.181463 0.1028,0.257595 0.31806,0.174992 0.58813,-0.225687 1.02265,0.138362 0.67095,0.562134 -0.21239,0.255921 -0.20487,0.402547 0.028,0.546492 0.21521,0.133007 0.24898,0.08455 0.10426,-0.149617 -0.1483,-0.239945 -0.11126,-0.282811 0.12057,-0.139535 0.21647,0.133787 0.28249,0.528068 0.18697,1.116661 -0.10384,0.639882 -0.0536,0.879002 0.16928,0.805883 0.17431,-0.05718 0.35483,-0.489781 0.40117,-0.961329 0.0681,-0.693037 -0.0911,-1.022715 -0.83055,-1.72011 -1.34216,-1.265821 -3.47638,-1.869925 -6.60865,-1.870615 -1.42584,-3.13e-4 -2.43788,-0.04096 -2.24895,-0.09032 0.18892,-0.04936 0.59395,-0.210894 0.90007,-0.358962 0.71959,-0.348068 4.19092,0.161234 6.18557,0.907527 1.91541,0.716646 2.91514,1.720396 2.91514,2.926852 0,0.856251 -0.20328,1.081925 -2.87739,3.194313 -3.54733,2.802191 -6.01149,5.384853 -7.83556,8.212391 -1.93351,2.997187 -2.42492,4.029806 -3.05164,6.41256 -2.07046,7.871712 -2.48605,9.204124 -2.66747,8.551967 -0.10117,-0.363684 -0.19581,-0.512417 -0.21031,-0.330516 -0.0145,0.181901 -0.212,0.330729 -0.43887,0.330729 -0.22687,0 -0.34974,0.101522 -0.27306,0.225605 0.0767,0.124082 -0.0451,0.451504 -0.27056,0.727604 -0.30168,0.369372 -0.37595,0.39115 -0.28109,0.08243 0.0709,-0.230763 0.74811,-2.905108 1.50491,-5.942988 0.7568,-3.03788 1.65113,-6.14553 1.9874,-6.905888 0.44554,-1.007458 0.50969,-1.343443 0.23647,-1.2386 -0.2062,0.07913 -0.37491,0.02481 -0.37491,-0.120715 0,-0.295038 0.7442,-0.647068 1.01606,-0.480628 0.096,0.05878 0.1835,-0.298023 0.19441,-0.792892 0.0109,-0.494869 -0.0486,-0.8958 -0.13229,-0.890959 -0.39141,0.02265 -1.34277,1.050668 -1.34277,1.450979 0,0.277003 -0.14246,0.394248 -0.37201,0.306161 -0.453,-0.173831 -1.19418,0.615481 -1.02294,1.089372 0.0944,0.261164 0.21035,0.269694 0.49173,0.03617 0.20253,-0.168083 0.30298,-0.411177 0.22324,-0.540209 -0.0797,-0.129033 0.0336,-0.234605 0.25188,-0.234605 0.93375,0 0.61347,0.585857 -0.81602,1.49267 -0.8437,0.53521 -2.30791,1.463317 -3.25379,2.062459 -2.01102,1.273817 -3.538296,2.003503 -4.176164,1.995238 -0.249724,-0.0032 -0.7517,-0.238713 -1.115502,-0.523283 -0.363802,-0.284571 -0.761619,-0.520048 -0.884037,-0.523284 -0.122419,-0.0032 -1.002114,-0.652928 -1.954878,-1.443761 -0.952764,-0.790833 -2.459947,-1.822591 -3.349295,-2.292795 -0.889349,-0.470205 -1.972425,-1.19766 -2.406836,-1.616568 -0.43441,-0.418908 -0.831532,-0.636564 -0.882493,-0.483681 -0.05096,0.152883 -0.19635,0.213883 -0.323087,0.135556 -0.126736,-0.07833 -0.174688,-0.287674 -0.10656,-0.465214 0.06813,-0.17754 -0.108197,-0.467728 -0.391835,-0.644863 -0.485157,-0.302986 -0.499483,-0.275526 -0.241834,0.463565 0.150629,0.432095 0.388313,0.785628 0.528187,0.785628 0.139873,0 0.186783,0.109268 0.104245,0.242818 -0.172021,0.278336 1.13726,4.082264 1.446169,4.201639 0.112198,0.04336 0.15466,0.341014 0.09436,0.661458 -0.10207,0.542427 -0.09366,0.546116 0.121884,0.05346 0.155322,-0.35501 0.107126,-0.719644 -0.146441,-1.10792 -0.485634,-0.743632 -1.128368,-3.167456 -0.905958,-3.416473 0.09366,-0.104859 0.006,-0.09546 -0.194771,0.02089 -0.249687,0.144688 -0.326334,0.09538 -0.242534,-0.156018 0.06739,-0.202157 0.221425,-0.367558 0.342311,-0.367558 0.621502,0 2.291513,4.541877 1.785094,4.854861 -0.157981,0.09764 -0.353604,0.533517 -0.434719,0.968622 l -0.147482,0.7911 0.309872,-0.727604 c 0.566924,-1.331184 0.677956,-1.129773 2.151391,3.902604 0.511286,1.74625 1.294347,4.187031 1.740136,5.423958 0.445788,1.236927 0.811331,2.274987 0.812317,2.3068 9.86e-4,0.03181 -0.168481,-0.0075 -0.376594,-0.08736 -0.208113,-0.07986 -0.506306,-0.512149 -0.662651,-0.960642 -0.156346,-0.448493 -0.352038,-0.747667 -0.434873,-0.664833 -0.08283,0.08283 0.02243,0.489094 0.233911,0.9028 0.211485,0.413706 0.463491,1.119301 0.560013,1.56799 0.09848,0.457813 0.344675,0.815799 0.561033,0.815799 0.525729,0 0.485582,-0.35869 -0.07528,-0.672564 -0.25345,-0.141837 -0.370528,-0.348175 -0.260174,-0.458529 0.544814,-0.544814 1.186627,1.491928 0.827093,2.624717 -0.134406,0.423477 -0.215781,0.447113 -0.500693,0.145428 -0.284289,-0.301028 -2.341304,-4.877353 -2.857774,-6.357808 -0.08468,-0.24273 -0.991826,-0.939093 -2.015883,-1.547474 -2.885191,-1.71406 -5.632668,-2.734872 -8.88696,-3.301905 -1.633861,-0.284687 -6.094595,-0.178003 -6.844541,0.163696 -0.665306,0.303133 -0.73653,0.450131 -0.624132,1.288127 0.268826,2.004243 3.301207,6.039548 6.456169,8.59147 l 1.974893,1.597411 3.619847,0.0011 c 1.990916,6.14e-4 3.977034,0.109661 4.413597,0.242325 1.380823,0.419611 0.366726,-0.438492 -1.712982,-1.44948 -1.022391,-0.497005 -1.858893,-0.994514 -1.858893,-1.105575 0,-0.11106 -0.118834,-0.201928 -0.264074,-0.201928 -0.358498,0 -5.853656,-3.36776 -6.350509,-3.89197 -0.500751,-0.528322 7.656062,3.681241 9.260416,4.779109 0.654844,0.448114 1.547812,1.130573 1.984375,1.516577 0.882923,0.780671 4.169291,2.719657 5.091564,3.004067 0.494696,0.152554 0.565028,0.103007 0.421948,-0.297253 -0.09443,-0.264177 -0.265392,-0.603286 -0.379907,-0.753576 -0.440644,-0.578307 -0.711887,-1.63836 -0.504911,-1.973255 0.150558,-0.243607 0.484395,0.165926 1.0964,1.345002 0.483962,0.932391 0.88399,1.824733 0.888952,1.982981 0.005,0.158249 0.215293,0.493996 0.467403,0.746106 0.252109,0.25211 0.527769,0.777477 0.612576,1.167484 0.28592,1.314869 0.66592,2.076116 1.036359,2.076116 0.202588,0 0.354192,-0.06945 0.336898,-0.15434 -0.0173,-0.08489 0.182491,-0.868715 0.443964,-1.74184 0.31079,-1.037772 0.79251,-1.908175 1.39111,-2.513542 0.50364,-0.509323 0.87601,-0.806979 0.8275,-0.661458 -0.28985,0.869552 0.99805,0.259091 2.42535,-1.149611 0.65485,-0.646311 2.26219,-1.841527 3.57188,-2.656037 2.45727,-1.528205 8.29931,-4.387401 8.5179,-4.168809 0.1219,0.121903 -5.61859,3.603317 -5.96029,3.614715 -0.097,0.0032 -0.47402,0.238714 -0.83782,0.523284 -0.3638,0.28457 -0.88966,0.520047 -1.16858,0.523283 -0.27891,0.0032 -0.43089,0.08211 -0.33772,0.175277 0.25874,0.258739 -1.6501,1.194266 -2.01252,0.986339 -0.1747,-0.100231 -0.22938,-0.08481 -0.1215,0.03427 0.10788,0.119082 0.0483,0.398588 -0.13229,0.621124 -0.28026,0.345265 -0.25082,0.373277 0.20073,0.190978 2.02566,-0.817792 3.08582,-0.963747 6.66501,-0.91759 l 3.75459,0.04842 2.06624,-1.708769 c 2.30121,-1.903085 3.95407,-3.826681 5.44919,-6.341743 1.20007,-2.018749 1.26353,-3.313365 0.18893,-3.854212 -1.52082,-0.76543 -7.81503,-0.02105 -11.47702,1.357316 -2.43314,0.915833 -5.79416,3.021073 -5.606,3.511426 0.079,0.205853 0.0332,0.306059 -0.10166,0.22268 -0.13491,-0.08338 -0.36806,0.05926 -0.51809,0.316987 -0.22455,0.3857 -0.27423,0.395569 -0.28085,0.05579 -0.0191,-0.977205 2.96642,-3.13441 6.0763,-4.390548 3.55658,-1.436564 10.57265,-2.280804 12.09969,-1.455948 1.58313,0.85515 1.37231,2.424911 -0.75223,5.601131 -1.51991,2.272295 -3.66527,4.498962 -5.76905,5.98771 -1.16945,0.827569 -1.33774,1.152739 -0.5966,1.152739 0.88622,0 4.2147,1.264446 6.67941,2.53742 2.64638,1.366802 4.47943,2.893421 4.47943,3.730606 0,1.182531 -2.61867,2.494938 -7.36223,3.689754 -3.22038,0.811154 -3.88136,0.890136 -7.44934,0.890136 -2.45374,0 -4.73386,-0.155261 -6.10787,-0.415906 -2.50436,-0.475069 -6.02671,-1.539261 -7.39538,-2.234335 -0.84965,-0.431487 -1.021991,-0.438218 -1.98438,-0.0775 -2.698698,1.011513 -6.304103,1.99416 -8.594544,2.34243 -2.659654,0.40441 -7.536474,0.457248 -10.187197,0.110374 z m 40.217401,-0.625241 c 5.11043,-1.139505 8.69459,-2.778024 8.41505,-3.846984 -0.1871,-0.715457 -1.29149,-1.630868 -3.36965,-2.793043 -1.04751,-0.585797 -1.85748,-0.874777 -2.16817,-0.773551 -0.35271,0.114914 -0.39623,0.08995 -0.15066,-0.08643 0.43088,-0.309485 -1.87184,-1.255589 -2.48412,-1.020635 -0.22122,0.08489 -0.33719,0.04913 -0.25771,-0.07948 0.0795,-0.128606 -0.0609,-0.31265 -0.31194,-0.408987 -0.25105,-0.09634 -0.49841,-0.04928 -0.54969,0.104568 -0.0513,0.153849 -0.19865,0.279725 -0.32748,0.279725 -0.12882,0 -0.1657,-0.178594 -0.0819,-0.396875 0.0978,-0.254907 -0.005,-0.396875 -0.28851,-0.396875 -0.25544,0 -0.36452,0.123417 -0.2594,0.293497 0.12637,0.20447 -0.12973,0.248493 -0.84428,0.145132 -4.92658,-0.712633 -8.3074,-0.395278 -11.21213,1.052475 -2.22744,1.110182 -2.04225,1.026361 -2.84427,1.287326 -0.32742,0.106537 -0.59532,0.289285 -0.59532,0.406106 0,0.116822 -0.59531,0.86377 -1.32291,1.659885 -0.72761,0.796114 -1.322918,1.576871 -1.322918,1.735014 0,0.759998 4.002078,2.191606 8.334378,2.981337 3.159,0.575853 8.72633,0.507849 11.64166,-0.142202 z m -19.04932,-3.137455 c 1.74188,-1.310334 7.57999,-2.10619 11.64099,-1.586909 l 1.85208,0.236825 -2.11666,0.18518 c -1.16417,0.101848 -3.39026,0.31722 -4.94688,0.478604 -1.55661,0.161384 -3.02131,0.220091 -3.25489,0.130461 -0.23357,-0.08963 -0.36123,-0.0603 -0.28368,0.06517 0.0776,0.125474 -0.4535,0.306997 -1.18011,0.403384 -0.7266,0.09639 -1.52801,0.245138 -1.78089,0.330557 -0.36142,0.122074 -0.34643,0.07002 0.07,-0.243272 z m -7.803675,2.620992 c 1.383663,-0.365116 3.372921,-0.98157 4.420573,-1.369898 l 1.904821,-0.706051 -0.848698,-0.692033 c -0.466784,-0.380618 -1.166952,-1.012859 -1.55593,-1.404979 -0.388978,-0.39212 -0.751107,-0.669071 -0.804732,-0.615446 -0.05362,0.05363 -0.509276,-0.254428 -1.012559,-0.684563 -0.503283,-0.430134 -1.047516,-0.782342 -1.209407,-0.782683 -0.161892,-3.41e-4 -0.73488,-0.350711 -1.273307,-0.778599 -1.628971,-1.294544 -3.299179,-1.703195 -7.031304,-1.720356 -1.81901,-0.0084 -3.474515,-0.1229 -3.678901,-0.254525 -0.253352,-0.16316 -0.313057,-0.144579 -0.187616,0.05839 0.113395,0.183478 -0.09934,0.360879 -0.554432,0.462347 -0.406134,0.09055 -0.97655,0.217455 -1.267592,0.282006 -0.360542,0.07997 -0.297307,-0.01488 0.198438,-0.297625 1.081553,-0.616867 0.889459,-0.682218 -0.656147,-0.223222 -2.325601,0.690629 -3.779533,1.354434 -3.698658,1.688653 0.0458,0.189267 -0.08813,0.254712 -0.33073,0.161616 -0.224232,-0.08605 -0.407694,-0.05104 -0.407694,0.07778 0,0.128827 0.148828,0.294284 0.330729,0.367683 0.181901,0.0734 -0.0973,0.142852 -0.620438,0.15434 -1.270685,0.02791 -4.126832,1.853495 -4.361288,2.787645 -0.09271,0.369404 -0.101794,0.845663 -0.02018,1.058353 0.200263,0.521876 2.464036,1.642382 4.336,2.146202 3.760843,1.012191 5.155877,1.151323 10.521632,1.049363 4.601227,-0.08743 5.619914,-0.187169 7.807418,-0.764401 z m 2.511332,-2.581197 c -1.164167,-0.264714 -4.021667,-0.613363 -6.35,-0.774774 -2.328333,-0.161412 -4.650052,-0.361913 -5.159374,-0.445558 l -0.926042,-0.152081 1.058333,-0.246861 c 0.582084,-0.135774 2.78474,-0.193266 4.894792,-0.127762 3.263089,0.1013 4.15464,0.225732 5.965447,0.832587 3.590737,1.203363 3.856669,1.673875 0.516844,0.914449 z M 105.81845,62.640403 c -0.1819,-0.0734 -0.33073,-0.249619 -0.33073,-0.391602 0,-0.141982 0.1199,-0.184045 0.26645,-0.09347 0.40493,0.250258 0.64458,-0.653528 0.26811,-1.011127 -0.25974,-0.246732 -0.29151,-0.18734 -0.15012,0.280703 0.14167,0.468991 0.0924,0.560274 -0.23485,0.434714 -0.2577,-0.09889 -0.41417,-0.01496 -0.41417,0.222151 0,0.460597 0.25168,0.74123 0.63941,0.712974 0.16001,-0.01166 0.14053,-0.07984 -0.0441,-0.15434 z m 1.23837,-4.190396 c -0.006,-0.145521 -0.22242,0.271198 -0.48159,0.926041 -0.25917,0.654844 -0.41182,1.300054 -0.33922,1.433799 0.12725,0.234443 0.84196,-1.820352 0.82081,-2.35984 z M 90.461227,56.985638 c -0.11093,-0.649805 -0.317459,-1.121933 -0.458952,-1.049173 -0.265549,0.136554 -0.26242,0.31311 0.032,1.805895 0.260635,1.321485 0.660686,0.612442 0.426952,-0.756722 z m 17.267643,-1.776777 c -0.10208,-0.617311 -0.0742,-0.864721 0.0739,-0.654821 0.30044,0.425968 0.90197,-1.375267 0.66527,-1.992104 -0.10489,-0.273336 -0.0545,-0.351346 0.14671,-0.227007 0.20001,0.123616 0.25197,0.04729 0.14953,-0.21966 -0.27408,-0.71424 -0.63056,-0.156833 -0.63476,0.99254 -0.003,0.787977 -0.0753,0.996161 -0.25035,0.719405 -0.3763,-0.595023 -0.63917,0.303541 -0.42414,1.449785 0.23376,1.246044 0.48101,1.184526 0.27386,-0.06814 z"
         id="path23748" />
    </g>
  </g>
</svg>
