<?xml version="1.0" encoding="UTF-8" standalone="no"?>
<!-- Created with Inkscape (http://www.inkscape.org/) -->

<svg
   width="185"
   height="185"
   viewBox="0 0 48.947914 48.947918"
   version="1.1"
   id="svg1"
   xmlns="http://www.w3.org/2000/svg"
   xmlns:svg="http://www.w3.org/2000/svg">
  <defs
     id="defs1" />
  <g
     id="g27006"
     transform="matrix(0.67799487,0,0,0.67799487,13.46977,-123.85467)">
    <path
       style="fill:#9ab293"
       d="m 6.8288123,254.44488 c -0.3072338,-0.37019 -0.248933,-0.51427 0.430624,-1.06418 1.3271416,-1.07395 3.3435817,-1.93096 5.6860767,-2.41666 2.590946,-0.53722 2.518719,-0.41987 2.249291,-3.65432 -0.26661,-3.20061 -0.295497,-3.22285 -3.422354,-2.63427 -2.9743269,0.55986 -5.4473797,0.43493 -7.6230149,-0.38508 -1.5482442,-0.58355 -3.70778741,-2.12664 -4.52785592,-3.23535 -0.5101284,-0.68969 -0.51309812,-0.7436 -0.0680497,-1.23537 0.25594625,-0.28282 1.31374665,-0.96003 2.35066762,-1.50492 4.488279,-2.35852 9.0740609,-1.18952 12.2482459,3.1223 l 1.169001,1.58798 v -2.36234 c 0,-1.34154 -0.173484,-2.94652 -0.401483,-3.71427 -0.503582,-1.69575 -0.835185,-1.81426 -5.6839333,-2.03139 -1.9645312,-0.088 -4.0986604,-0.28256 -4.7425095,-0.43241 -2.116496,-0.49261 -4.51140356,-1.88967 -6.3406223,-3.69878 -1.7718584,-1.75238 -3.7208302,-4.87578 -3.2990326,-5.287 0.6684557,-0.65169 3.3265655,-1.37604 5.51862313,-1.50387 3.93236527,-0.22931 6.69631037,0.58472 9.33955397,2.75066 1.2786566,1.04776 3.4615936,4.00659 4.5010416,6.10087 0.379187,0.76399 0.763102,1.38907 0.853144,1.38907 0.315267,0 -0.06828,-8.01387 -0.424326,-8.86602 -0.605259,-1.44859 -1.034137,-1.61102 -6.3064616,-2.3885 -1.5867303,-0.23399 -3.6282184,-0.69522 -4.5366402,-1.02496 -3.13387486,-1.13753 -6.1180888,-3.78986 -7.7665647,-6.90281 -0.5291572,-0.99926 -0.5346877,-1.07725 -0.099068,-1.39709 1.6865526,-1.23832 6.5181029,-1.49229 9.3526289,-0.49162 3.6607603,1.29236 6.5575666,3.92326 8.4936336,7.71398 0.629828,1.23317 1.234438,2.24266 1.343579,2.24332 0.10914,6.6e-4 0.198437,-1.75761 0.198437,-3.90727 v -3.90847 l -0.782748,-0.9496 c -0.608912,-0.73872 -1.211198,-1.08467 -2.711979,-1.55777 -2.0800144,-0.65569 -3.6448614,-1.36226 -4.2167313,-1.90397 -1.6710546,-1.58292 -2.2658388,-1.81031 -5.4481112,-2.08288 -8.4816103,-0.72647 -8.4375023,-0.70844 -7.3807857,-3.01662 0.3786915,-0.82717 0.9943269,-1.86736 1.3680788,-2.31154 l 0.6795488,-0.8076 -0.6485587,-0.6906 c -0.9141391,-0.9734 -2.0253793,-2.68119 -2.0253793,-3.11267 0,-0.20011 0.3869531,-0.59977 0.8598957,-0.88813 0.9288585,-0.56633 3.1120622,-0.71314 4.23819457,-0.28498 0.34904237,0.1327 0.7455513,0.16247 0.88113095,0.0661 0.13557966,-0.0963 0.51159772,-1.00857 0.8355957,-2.02722 0.32399798,-1.01864 0.87739748,-2.20927 1.22977658,-2.64583 l 0.6406893,-0.79375 0.7504657,0.55763 c 0.7586551,0.56371 1.2777581,1.47593 3.9737267,6.98299 0.8192522,1.67349 1.6793781,3.42239 1.9113908,3.88644 0.288324,0.57668 0.8109026,1.00807 1.6510596,1.36295 1.045547,0.44164 1.373831,0.77781 2.197034,2.24984 0.532299,0.95184 1.229307,2.54116 1.548907,3.53184 l 0.581091,1.80123 0.07924,-3.04271 c 0.101951,-3.91483 0.01549,-4.31402 -1.420442,-6.5584 -1.432304,-2.23871 -1.813312,-3.34616 -1.32069,-3.83879 0.455031,-0.45503 -0.75163,-4.01942 -2.9912016,-8.8358 -0.8926209,-1.91965 -1.6229471,-3.75084 -1.6229471,-4.0693 0,-0.52483 0.1052509,-0.56709 1.1244791,-0.45146 0.6184635,0.0702 1.6528586,0.3833 2.2986546,0.69586 0.645797,0.31257 1.26727,0.56831 1.381051,0.56831 0.113781,0 0.610628,-0.87388 1.104105,-1.94194 0.994263,-2.15195 1.558421,-2.59769 2.135934,-1.68758 0.708407,1.11639 1.480776,2.69698 1.480776,3.03028 0,0.49852 0.564165,0.41048 2.216198,-0.34584 1.820009,-0.83323 4.398385,-1.18087 4.398385,-0.59303 0,0.21341 -0.536123,1.38244 -1.191384,2.59785 -2.211014,4.10107 -3.575448,8.50125 -3.486415,11.24338 0.03728,1.14828 -0.101589,1.53827 -1.05198,2.95428 l -1.094934,1.63137 -0.156417,6.96759 c -0.117738,5.24459 -0.08397,6.77131 0.13654,6.17384 0.161126,-0.43656 0.762988,-2.0439 1.33747,-3.57187 0.574481,-1.52797 1.275788,-3.94886 1.558459,-5.37976 0.505643,-2.55959 0.782646,-3.35911 1.43617,-4.14524 0.18146,-0.21828 0.776034,-1.94469 1.321275,-3.83646 0.990321,-3.43602 2.329869,-6.60611 3.195776,-7.56293 0.953112,-1.05318 1.689497,-0.63202 2.889088,1.65232 l 0.647566,1.23314 1.238117,-0.37262 c 1.679581,-0.50548 3.528079,-0.55574 3.807565,-0.10352 0.53392,0.8639 -1.939114,5.21923 -4.428667,7.79944 -0.702039,0.72761 -1.963607,2.17632 -2.803486,3.21936 -0.839879,1.04304 -2.442259,2.59579 -3.560845,3.45056 -2.394304,1.82961 -3.254222,3.11109 -4.046379,6.03008 -0.725508,2.6734 -1.22788,4.38917 -1.469485,5.01878 -0.477926,1.24545 0.517409,-0.0733 1.649269,-2.18514 3.33935,-6.23067 5.511166,-8.82389 8.729978,-10.42386 2.519257,-1.25225 4.803766,-1.67163 7.131681,-1.30921 0.983737,0.15316 1.886446,0.3763 2.00602,0.49587 0.725335,0.72534 -2.110775,5.48125 -4.301132,7.21263 -2.009047,1.58806 -3.49661,2.2646 -6.983711,3.1762 -1.699094,0.44417 -3.54142,1.03826 -4.094058,1.3202 -1.449599,0.73953 -3.313271,2.98708 -4.49907,5.42578 -0.94308,1.93953 -1.040862,2.34916 -1.168432,4.89479 -0.127247,2.53919 -0.106874,2.70986 0.236875,1.98438 0.206852,-0.43656 0.381466,-0.95343 0.388029,-1.1486 0.0066,-0.19516 0.572355,-1.44532 1.257315,-2.77812 2.04811,-3.98524 5.170526,-6.50578 9.104403,-7.34945 2.53195,-0.543 8.130762,0.2133 9.214724,1.24476 0.332691,0.31657 0.320779,0.49294 -0.09193,1.3611 -0.741693,1.56018 -2.690426,4.16638 -3.870785,5.17673 -2.330256,1.99461 -5.538149,3.20691 -10.643528,4.02231 -3.721749,0.59442 -4.703405,1.06156 -5.282903,2.51398 -0.287396,0.72031 -0.6209,6.87916 -0.37251,6.87916 0.08387,0 0.470038,-0.67125 0.858159,-1.49167 2.06885,-4.37319 7.637158,-7.29582 12.339966,-6.47686 2.166703,0.37731 3.63861,0.9771 3.63861,1.48269 0,1.19753 -2.558946,4.44592 -4.8046,6.09908 -2.417042,1.77932 -4.032112,2.28562 -7.892743,2.47426 -3.979903,0.19445 -3.83778,0.0384 -4.062165,4.46094 l -0.15102,2.97656 h 0.768689 c 2.599675,0 8.434291,2.95453 7.814628,3.95716 -0.1132,0.18316 -3.228752,0.27617 -9.250797,0.27617 -8.043322,0 -9.1206873,-0.0489 -9.4354558,-0.42816 z"
       id="path26465" />
    <path
       style="fill:#668e9b"
       d="m 6.9671531,254.41846 c -0.3963116,-0.39632 -0.3814595,-0.46713 0.1920705,-0.91576 1.3748966,-1.07547 3.9236104,-2.11834 5.9456764,-2.43282 l 2.084252,-0.32415 v -2.80359 c 0,-2.32788 -0.08076,-2.89279 -0.475947,-3.32927 -0.404003,-0.44622 -0.633281,-0.49033 -1.516797,-0.29182 -2.564201,0.57614 -4.8122355,0.75203 -6.5201665,0.51016 -2.2685442,-0.32127 -4.8846842,-1.60905 -6.36678819,-3.13402 l -1.15401692,-1.1874 0.73829774,-0.77062 c 0.40606375,-0.42383 1.51092417,-1.15093 2.45524537,-1.61576 1.5352339,-0.75571 1.9555345,-0.8437 3.9712688,-0.83136 3.3867271,0.0207 5.1961677,0.98193 7.7454897,4.1145 0.545118,0.66983 0.991123,1.35444 0.991123,1.52135 0,0.16691 0.0893,0.30369 0.198437,0.30394 0.239803,5.7e-4 -0.04993,-5.96729 -0.331297,-6.82408 -0.369644,-1.12557 -1.505325,-1.43311 -6.0728158,-1.64449 -4.6111541,-0.2134 -5.8668898,-0.53633 -8.41700362,-2.16457 -2.37386218,-1.51569 -5.80141128,-5.88992 -5.41146878,-6.90609 0.2231926,-0.58163 2.9347072,-1.47498 5.0121157,-1.65132 4.0593237,-0.34457 7.5851768,0.78575 10.1047045,3.23936 1.385023,1.34878 3.959375,5.08198 4.424465,6.41614 0.596176,1.71019 0.793298,0.77562 0.709507,-3.36385 -0.06878,-3.39797 -0.174277,-4.34799 -0.57151,-5.14671 -0.566107,-1.13826 -1.753626,-1.67358 -4.275342,-1.92725 -6.7051348,-0.67452 -10.91801093,-2.86908 -13.6725253,-7.12227 -1.417946,-2.18941 -1.3652793,-2.40824 0.7358122,-3.0572 5.411321,-1.67139 11.393713,0.57413 14.9246731,5.60203 0.689436,0.98172 1.52028,2.44221 1.846322,3.24552 0.326041,0.80331 0.680172,1.46057 0.786957,1.46057 0.274612,0 0.539568,-5.99854 0.321921,-7.28819 -0.198029,-1.1734 -0.917941,-2.24015 -1.847551,-2.73766 -0.329177,-0.17617 -1.51754,-0.61848 -2.640806,-0.9829 -1.3079518,-0.42434 -2.5758814,-1.07482 -3.5262358,-1.80904 -0.8161629,-0.63055 -1.7316036,-1.279 -2.0343127,-1.44101 -0.302709,-0.162 -2.671033,-0.45158 -5.2629421,-0.6435 -2.5919091,-0.19193 -4.980328,-0.49342 -5.3075976,-0.66999 -0.5753871,-0.31043 -0.5814807,-0.35349 -0.1845404,-1.30406 0.3809987,-0.91239 1.278265,-2.48041 2.0336822,-3.55397 0.2650776,-0.37671 0.214026,-0.55268 -0.2990044,-1.03064 -1.1395842,-1.06169 -2.1514741,-2.90475 -1.8766806,-3.41821 0.4052755,-0.75727 2.5981305,-1.15142 4.3650913,-0.7846 0.82128449,0.1705 1.51852618,0.26983 1.54942595,0.22074 0.0308998,-0.0491 0.33215003,-0.98223 0.66944505,-2.07364 0.6012911,-1.94563 1.387018,-3.175 2.0292446,-3.175 0.5092854,0 1.96678,1.80973 2.5351117,3.14777 0.2845059,0.66982 1.2754329,2.76567 2.20206,4.65744 0.9266272,1.89177 1.7485767,3.6444 1.8265545,3.89472 0.077978,0.25033 0.4742983,0.52748 0.8807113,0.6159 1.354685,0.29472 1.836379,0.68066 2.677691,2.14542 0.987155,1.71867 2.208254,5.09407 1.977768,5.467 -0.09064,0.14667 -0.02746,0.1788 0.143636,0.0731 0.410678,-0.25381 0.409537,-6.65273 -0.0014,-7.85714 -0.168776,-0.49465 -0.591186,-1.24269 -0.938689,-1.66231 -0.347502,-0.41961 -0.864257,-1.21854 -1.148343,-1.77539 -0.546912,-1.07204 -0.696332,-2.23424 -0.251937,-1.95959 0.426323,0.26348 0.310416,-0.46349 -0.427593,-2.68188 -0.715671,-2.15124 -1.063832,-2.98847 -2.7356681,-6.57854 -1.4158791,-3.04042 -1.6740524,-3.76593 -1.4621312,-4.10883 0.2398909,-0.38815 1.7064893,-0.1308 3.3024763,0.5795 1.35245,0.60192 2.126776,0.80351 2.060852,0.53654 -0.219007,-0.88692 1.34265,-4.01866 2.003923,-4.01866 0.306557,0 1.71198,2.49228 2.105165,3.73316 0.115728,0.36523 0.392451,0.30059 1.943438,-0.45399 1.720544,-0.83707 4.192451,-1.32165 4.467956,-0.87588 0.0686,0.11101 -0.53065,1.4401 -1.331672,2.95354 -2.179816,4.11853 -3.312163,7.842 -3.312163,10.89132 0,1.17871 -0.164104,1.65079 -1.050664,3.02247 -0.856928,1.32583 -1.075451,1.93104 -1.185091,3.28216 -0.172415,2.12471 -0.381811,14.30804 -0.230832,13.43055 0.159231,-0.92546 1.650378,-5.44703 2.268645,-6.87917 0.282701,-0.65484 0.79874,-2.55075 1.146752,-4.21312 0.404171,-1.93063 0.817432,-3.22095 1.143988,-3.57187 0.281182,-0.30216 0.92385,-1.97813 1.428151,-3.72438 2.017727,-6.98681 3.525584,-9.48729 4.945946,-8.20188 0.511828,0.4632 1.326122,2.00247 1.452316,2.74533 0.04013,0.2362 0.235734,0.38511 0.434685,0.3309 2.588043,-0.70521 3.31414,-0.84523 4.025108,-0.7762 0.759443,0.0737 0.830969,0.15892 0.794886,0.94678 -0.06384,1.39385 -2.144639,4.74038 -4.477143,7.20055 -1.17455,1.23884 -2.535945,2.82043 -3.025324,3.51465 -0.489378,0.69421 -1.552445,1.75883 -2.362372,2.3658 -2.258253,1.69238 -3.457618,2.89606 -3.898585,3.91261 -0.392735,0.90536 -0.669078,1.76988 -2.029762,6.35 l -0.668132,2.24896 0.754856,-0.89072 c 0.41517,-0.48989 1.142619,-1.68051 1.616552,-2.64583 3.774854,-7.68869 8.114561,-11.14783 13.985657,-11.14783 1.127123,0 2.414262,0.12722 2.860309,0.28272 l 0.810995,0.28271 -0.411446,1.20753 c -0.592929,1.74015 -2.639077,4.62678 -4.174287,5.88893 -1.844637,1.51655 -3.469941,2.24273 -7.14375,3.19182 -4.041533,1.04408 -5.032681,1.63129 -6.75851,4.00409 -2.22572,3.06009 -2.729016,4.3948 -2.852869,7.56564 -0.06663,1.7059 -0.0076,2.71198 0.159217,2.71198 0.14583,0 0.344131,-0.44649 0.440669,-0.99219 0.313493,-1.77211 2.427712,-5.67428 3.915128,-7.22608 1.668053,-1.74025 4.768011,-3.37063 6.979438,-3.67073 3.118536,-0.42319 8.624275,0.45504 9.000592,1.43571 0.309979,0.80779 -2.53131,4.81615 -4.654836,6.56682 -2.226026,1.83518 -4.88512,2.77949 -10.576155,3.75585 -3.376219,0.57922 -4.103315,0.91931 -4.773312,2.23261 -0.486767,0.95414 -0.543979,1.47006 -0.478608,4.31591 l 0.07425,3.23223 0.845413,-1.71621 c 1.135016,-2.30412 3.161095,-4.28795 5.620802,-5.5036 1.929526,-0.95363 2.040364,-0.97512 5.029437,-0.97512 2.463923,0 3.274417,0.0996 4.180909,0.51394 0.618464,0.28267 1.124479,0.61484 1.124479,0.73815 0,0.85559 -2.499554,4.24333 -4.101041,5.5583 -2.645232,2.17197 -5.735233,3.18104 -9.357382,3.05576 -2.112102,-0.073 -2.237346,-0.0452 -2.730679,0.60689 -0.438195,0.57923 -0.524283,1.1643 -0.564493,3.83641 l -0.04744,3.15294 1.455208,0.17094 c 2.270194,0.26668 4.866771,1.35574 6.482291,2.71882 0.660386,0.5572 0.727842,0.71313 0.401481,0.92806 -0.235385,0.15502 -3.910003,0.25833 -9.187904,0.25831 -7.7626891,-3e-5 -8.8460762,-0.0505 -9.2251589,-0.42956 z"
       id="path26464" />
    <path
       style="fill:#8b956c"
       d="m 25.904777,199.4666 c 0,-0.20522 0.474639,-0.97358 1.054754,-1.70748 0.692403,-0.87596 1.001961,-1.49766 0.901083,-1.8097 -0.115893,-0.35847 -0.09062,-0.38708 0.102798,-0.11635 0.179312,0.25098 0.310915,0.27088 0.437448,0.0661 0.09954,-0.16105 0.340785,-0.29283 0.536102,-0.29283 0.208817,0 0.03993,0.33742 -0.409944,0.81901 -0.420787,0.45045 -1.143451,1.40295 -1.605922,2.11666 -0.905352,1.3972 -1.016319,1.49815 -1.016319,0.92455 z"
       id="path26977" />
    <path
       style="fill:#8b956c"
       d="m 6.9671531,254.41846 c -0.3963116,-0.39632 -0.3814595,-0.46713 0.1920705,-0.91576 1.3748966,-1.07547 3.9236104,-2.11834 5.9456764,-2.43282 l 2.084252,-0.32415 v -2.80359 c 0,-2.32788 -0.08076,-2.89279 -0.475947,-3.32927 -0.404003,-0.44622 -0.633281,-0.49033 -1.516797,-0.29182 -2.564201,0.57614 -4.8122355,0.75203 -6.5201665,0.51016 -2.2685442,-0.32127 -4.8846842,-1.60905 -6.36678819,-3.13402 l -1.15401692,-1.1874 0.73829774,-0.77062 c 0.40606375,-0.42383 1.51092417,-1.15093 2.45524537,-1.61576 1.5352339,-0.75571 1.9555345,-0.8437 3.9712688,-0.83136 3.3867271,0.0207 5.1961677,0.98193 7.7454897,4.1145 0.545118,0.66983 0.991123,1.35444 0.991123,1.52135 0,0.16691 0.0893,0.30369 0.198437,0.30394 0.239803,5.7e-4 -0.04993,-5.96729 -0.331297,-6.82408 -0.369644,-1.12557 -1.505325,-1.43311 -6.0728158,-1.64449 -4.6111541,-0.2134 -5.8668898,-0.53633 -8.41700362,-2.16457 -2.37386218,-1.51569 -5.80141128,-5.88992 -5.41146878,-6.90609 0.2231926,-0.58163 2.9347072,-1.47498 5.0121157,-1.65132 4.0593237,-0.34457 7.5851768,0.78575 10.1047045,3.23936 1.385023,1.34878 3.959375,5.08198 4.424465,6.41614 0.596176,1.71019 0.793298,0.77562 0.709507,-3.36385 -0.06878,-3.39797 -0.174277,-4.34799 -0.57151,-5.14671 -0.566107,-1.13826 -1.753626,-1.67358 -4.275342,-1.92725 -6.7051348,-0.67452 -10.91801093,-2.86908 -13.6725253,-7.12227 -1.417946,-2.18941 -1.3652793,-2.40824 0.7358122,-3.0572 5.411321,-1.67139 11.393713,0.57413 14.9246731,5.60203 0.689436,0.98172 1.52028,2.44221 1.846322,3.24552 0.326041,0.80331 0.680172,1.46057 0.786957,1.46057 0.274612,0 0.539568,-5.99854 0.321921,-7.28819 -0.198029,-1.1734 -0.917941,-2.24015 -1.847551,-2.73766 -0.329177,-0.17617 -1.509704,-0.61776 -2.623395,-0.9813 -1.8723936,-0.61122 -4.5732559,-2.23719 -4.5732559,-2.7532 0,-0.26766 1.2891889,-0.68608 2.9104166,-0.94461 0.6548437,-0.10442 1.0492383,-0.23925 0.8764323,-0.29961 -0.2183037,-0.0763 -0.1779293,-0.25339 0.132292,-0.58041 0.245566,-0.25886 0.548512,-0.41512 0.673214,-0.34724 0.352612,0.19195 -0.113877,-1.58752 -0.523572,-1.99721 -0.5072273,-0.50723 -0.4664119,-0.54766 0.362988,-0.35955 1.146975,0.26014 1.53979,0.59871 2.406079,2.07382 0.956196,1.62821 2.204786,5.07746 1.973467,5.45174 -0.09064,0.14667 -0.02746,0.1788 0.143636,0.0731 0.410678,-0.25381 0.409537,-6.65273 -0.0014,-7.85714 -0.168776,-0.49465 -0.591186,-1.24269 -0.938689,-1.66231 -0.884104,-1.06756 -1.64525,-2.63272 -1.596303,-3.28251 0.02271,-0.30145 0.135634,-0.48979 0.250947,-0.41853 0.115313,0.0713 0.209659,-0.056 0.209659,-0.28291 0,-0.46206 0.410565,-0.55386 0.661459,-0.14791 0.08994,0.14553 0.401646,0.26459 0.692688,0.26459 0.291042,0 0.470465,-0.095 0.398718,-0.21107 -0.07175,-0.11609 -0.01682,-0.38398 0.122052,-0.59531 0.211343,-0.32162 0.334008,-0.28721 0.752557,0.21107 0.407179,0.48474 0.770651,0.59531 1.956951,0.59531 0.917952,0 1.506262,-0.12235 1.590347,-0.33073 0.0734,-0.1819 0.142851,0.15683 0.15434,0.75273 0.0161,0.83511 -0.219946,1.45607 -1.029776,2.70904 -0.856928,1.32583 -1.075451,1.93104 -1.185091,3.28216 -0.172415,2.12471 -0.381811,14.30804 -0.230832,13.43055 0.159231,-0.92546 1.650378,-5.44703 2.268645,-6.87917 0.282701,-0.65484 0.799658,-2.55517 1.148791,-4.22295 0.349134,-1.66778 0.813801,-3.21134 1.032595,-3.43014 0.26999,-0.26999 0.397806,-0.29457 0.397806,-0.0765 0,0.58961 0.06796,0.71593 0.577003,1.07248 0.278231,0.19488 0.674649,0.28956 0.880931,0.2104 0.206281,-0.0791 1.049553,-0.002 1.873937,0.17048 l 1.498879,0.31439 1.024208,-1.15414 c 0.563315,-0.63478 1.024208,-1.07747 1.024208,-0.98377 0,0.54146 -2.81684,3.89376 -4.01213,4.77481 -2.155639,1.58893 -3.39519,2.83375 -3.83782,3.85413 -0.392735,0.90536 -0.669078,1.76988 -2.029762,6.35 l -0.668132,2.24896 0.754856,-0.89072 c 0.41517,-0.48989 1.142619,-1.68051 1.616552,-2.64583 3.774854,-7.68869 8.114561,-11.14783 13.985657,-11.14783 1.127123,0 2.414262,0.12722 2.860309,0.28272 l 0.810995,0.28271 -0.411446,1.20753 c -0.592929,1.74015 -2.639077,4.62678 -4.174287,5.88893 -1.844637,1.51655 -3.469941,2.24273 -7.14375,3.19182 -4.041533,1.04408 -5.032681,1.63129 -6.75851,4.00409 -2.22572,3.06009 -2.729016,4.3948 -2.852869,7.56564 -0.06663,1.7059 -0.0076,2.71198 0.159217,2.71198 0.14583,0 0.344131,-0.44649 0.440669,-0.99219 0.313493,-1.77211 2.427712,-5.67428 3.915128,-7.22608 1.668053,-1.74025 4.768011,-3.37063 6.979438,-3.67073 3.118536,-0.42319 8.624275,0.45504 9.000592,1.43571 0.309979,0.80779 -2.53131,4.81615 -4.654836,6.56682 -2.226026,1.83518 -4.88512,2.77949 -10.576155,3.75585 -3.376219,0.57922 -4.103315,0.91931 -4.773312,2.23261 -0.486767,0.95414 -0.543979,1.47006 -0.478608,4.31591 l 0.07425,3.23223 0.845413,-1.71621 c 1.135016,-2.30412 3.161095,-4.28795 5.620802,-5.5036 1.929526,-0.95363 2.040364,-0.97512 5.029437,-0.97512 2.463923,0 3.274417,0.0996 4.180909,0.51394 0.618464,0.28267 1.124479,0.61484 1.124479,0.73815 0,0.85559 -2.499554,4.24333 -4.101041,5.5583 -2.645232,2.17197 -5.735233,3.18104 -9.357382,3.05576 -2.112102,-0.073 -2.237346,-0.0452 -2.730679,0.60689 -0.438195,0.57923 -0.524283,1.1643 -0.564493,3.83641 l -0.04744,3.15294 1.455208,0.17094 c 2.270194,0.26668 4.866771,1.35574 6.482291,2.71882 0.660386,0.5572 0.727842,0.71313 0.401481,0.92806 -0.235385,0.15502 -3.910003,0.25833 -9.187904,0.25831 -7.7626891,-3e-5 -8.8460762,-0.0505 -9.2251589,-0.42956 z"
       id="path26463" />
    <path
       style="fill:#6d9464"
       d="m 25.904777,199.46662 c 0,-0.20522 0.474639,-0.97358 1.054754,-1.70748 0.692403,-0.87596 1.001961,-1.49766 0.901083,-1.8097 -0.115893,-0.35847 -0.09062,-0.38708 0.102798,-0.11635 0.179312,0.25098 0.310915,0.27088 0.437448,0.0661 0.09954,-0.16105 0.340785,-0.29283 0.536102,-0.29283 0.208817,0 0.03993,0.33742 -0.409944,0.81901 -0.420787,0.45045 -1.143451,1.40295 -1.605922,2.11666 -0.905352,1.3972 -1.016319,1.49815 -1.016319,0.92455 z"
       id="path26962" />
    <path
       style="fill:#6d9464"
       d="m 15.193291,254.60846 c -5.6140206,-0.091 -8.1928309,-0.22355 -8.2597228,-0.42457 -0.2954353,-0.88786 4.0044278,-2.89682 6.8329738,-3.19246 1.824251,-0.19067 1.757589,-0.009 1.540087,-4.18818 -0.06813,-1.30897 -0.371597,-2.23576 -0.830584,-2.53659 -0.130357,-0.0854 -1.094799,0.0116 -2.143203,0.21572 -1.140953,0.2221 -2.9683542,0.33365 -4.5520226,0.27786 -2.1759057,-0.0767 -2.9145408,-0.21741 -4.1587379,-0.79253 -1.5317885,-0.70805 -4.17563666,-2.92699 -4.17563666,-3.50454 0,-0.51289 1.07770821,-1.35979 2.90393426,-2.28202 1.4760406,-0.74538 1.9890143,-0.86615 3.7041664,-0.87203 3.0373325,-0.0104 4.5272265,0.60501 6.6884455,2.76277 0.982945,0.98136 2.015969,2.29533 2.29561,2.91993 l 0.508438,1.13564 -0.106289,-3.35138 c -0.114951,-3.62449 -0.471458,-4.96266 -1.463582,-5.49363 -0.339766,-0.18184 -2.478989,-0.40779 -4.9833362,-0.52636 -3.6533867,-0.17297 -4.6316381,-0.30872 -5.8432205,-0.81081 -2.27318861,-0.94203 -3.99970524,-2.14191 -5.5221868,-3.83778 -1.282534,-1.42859 -2.6798961,-3.67981 -2.6798961,-4.31744 0,-0.14355 0.5594894,-0.50849 1.2433098,-0.81098 2.86294334,-1.26641 8.0762624,-1.21352 10.7801736,0.10939 2.7638644,1.35223 5.2316022,4.07874 7.3210342,8.08874 l 0.896106,1.71979 0.07268,-4.13001 c 0.112489,-6.39255 -0.357001,-7.07607 -5.23205,-7.61721 -5.179265,-0.57491 -8.1486967,-1.70143 -10.75604488,-4.08053 -1.39555752,-1.2734 -3.53145472,-4.2301 -3.53145472,-4.88856 0,-0.66216 2.3752519,-1.44249 4.814062,-1.58154 1.9385778,-0.11053 2.6216884,-0.0341 4.1131113,0.46033 4.3531818,1.44311 7.0524103,3.8842 9.3723843,8.47607 l 1.136253,2.24895 0.177709,-2.24895 c 0.548894,-6.94639 0.211227,-7.65667 -4.342633,-9.13472 -1.9049993,-0.6183 -4.6875539,-2.26605 -4.6875539,-2.77583 0,-0.2656 1.293963,-0.68456 2.9104166,-0.94233 0.6548437,-0.10442 1.0492383,-0.23925 0.8764323,-0.29961 -0.2183037,-0.0763 -0.1779293,-0.25339 0.132292,-0.58041 0.245566,-0.25886 0.548512,-0.41512 0.673214,-0.34724 0.352612,0.19195 -0.113877,-1.58752 -0.523572,-1.99721 -0.200539,-0.20054 -0.364616,-0.40733 -0.364616,-0.45954 0,-0.23882 1.715966,0.43144 2.182054,0.85231 1.0434,0.94218 3.31946,6.35735 2.879549,6.85098 -0.09175,0.10295 -0.01798,0.10154 0.163917,-0.003 0.436544,-0.25122 0.454446,-6.5987 0.02216,-7.85868 -0.169711,-0.49465 -0.57452,-1.25656 -0.899577,-1.69312 -0.978513,-1.31418 -1.674612,-2.70877 -1.632317,-3.27025 0.02194,-0.29125 0.134237,-0.47124 0.24955,-0.39998 0.115313,0.0713 0.209659,-0.056 0.209659,-0.28291 0,-0.46206 0.410565,-0.55386 0.661459,-0.14791 0.08994,0.14553 0.401646,0.26459 0.692688,0.26459 0.291042,0 0.470465,-0.095 0.398718,-0.21107 -0.07175,-0.11609 -0.01682,-0.38398 0.122052,-0.59531 0.211343,-0.32162 0.334008,-0.28721 0.752557,0.21107 0.407179,0.48474 0.770651,0.59531 1.956951,0.59531 0.917952,0 1.506262,-0.12235 1.590347,-0.33073 0.0734,-0.1819 0.142851,0.15922 0.15434,0.75804 0.01635,0.85219 -0.206285,1.42348 -1.02459,2.62918 -0.765055,1.12723 -1.081972,1.89971 -1.181531,2.87998 -0.242302,2.3857 -0.381319,14.61854 -0.153394,13.498 0.119787,-0.58891 0.868284,-2.85754 1.663326,-5.0414 0.795043,-2.18387 1.593522,-4.85719 1.774398,-5.94072 0.378947,-2.27008 0.987265,-3.70542 1.33319,-3.1457 0.121223,0.19614 0.169415,0.43913 0.107092,0.53997 -0.160828,0.26023 0.669567,0.5967 1.603439,0.6497 0.436562,0.0248 1.338595,0.13441 2.004517,0.24361 1.189412,0.19505 1.227913,0.17852 2.182813,-0.93707 1.348012,-1.57485 1.214857,-1.11732 -0.279294,0.95967 -0.796708,1.10749 -2.007425,2.3035 -3.332417,3.29195 -2.590756,1.93271 -3.096581,2.6152 -3.967719,5.35353 -1.343657,4.22363 -1.967493,6.5524 -1.755273,6.5524 0.258363,0 1.899554,-2.67508 2.434866,-3.96875 0.521391,-1.26002 2.12899,-3.76078 3.687311,-5.73593 1.343938,-1.70342 3.751653,-3.43896 5.828484,-4.2013 1.53415,-0.56314 5.675946,-0.80366 6.897422,-0.40053 l 0.94967,0.31342 -0.378422,1.07256 c -1.062653,3.01188 -4.04566,6.39252 -6.78515,7.6896 -0.798573,0.37811 -2.830896,1.04807 -4.516274,1.48879 -1.685378,0.44073 -3.549501,1.04885 -4.142495,1.35137 -1.337161,0.68217 -3.169262,2.96095 -4.455423,5.54168 -0.900449,1.80678 -0.984876,2.17451 -1.078227,4.69635 -0.0557,1.50484 0.004,2.73608 0.132568,2.73608 0.128617,0 0.50965,-0.88849 0.84674,-1.97442 1.256719,-4.04851 3.721506,-7.08521 7.12037,-8.77253 1.924572,-0.95543 2.215934,-1.02153 4.927791,-1.11796 2.103757,-0.0748 3.4047,0.0206 4.816422,0.353 2.953562,0.69555 3.006738,0.7727 1.930342,2.80056 -0.493784,0.93026 -1.662563,2.50355 -2.597287,3.4962 -2.439187,2.59036 -4.664076,3.61621 -10.207061,4.70627 -5.28555,1.03944 -5.773118,1.23605 -6.474496,2.61087 -0.486845,0.95429 -0.54399,1.47003 -0.478608,4.31949 l 0.07425,3.23581 0.752306,-1.53296 c 1.16429,-2.37244 3.317811,-4.52001 5.698622,-5.68288 1.953689,-0.95424 2.105326,-0.98457 4.926154,-0.9854 2.236952,-6.5e-4 3.202557,0.11512 4.172914,0.50031 1.073541,0.42614 1.237601,0.58454 1.096153,1.05833 -0.551833,1.84838 -3.613837,5.22803 -5.999312,6.62167 -2.034905,1.18882 -3.485837,1.51921 -6.608986,1.50492 -2.515203,-0.0115 -2.898191,0.0481 -3.336857,0.5189 -0.54089,0.58058 -0.833286,2.53736 -0.833286,5.57654 v 1.81328 h 1.03476 c 2.126131,0 5.749605,1.52114 7.120802,2.98932 l 0.614938,0.65844 -1.161843,0.0943 c -0.639014,0.0519 -4.834954,0.0348 -9.32431,-0.0379 z"
       id="path26462" />
    <path
       style="fill:#847b58"
       d="m 25.904777,199.4666 c 0,-0.20522 0.474639,-0.97358 1.054754,-1.70748 0.692403,-0.87596 1.001961,-1.49766 0.901083,-1.8097 -0.115893,-0.35847 -0.09062,-0.38708 0.102798,-0.11635 0.179312,0.25098 0.310915,0.27088 0.437448,0.0661 0.09954,-0.16105 0.340785,-0.29283 0.536102,-0.29283 0.208817,0 0.03993,0.33742 -0.409944,0.81901 -0.420787,0.45045 -1.143451,1.40295 -1.605922,2.11666 -0.905352,1.3972 -1.016319,1.49815 -1.016319,0.92455 z"
       id="path26939" />
    <path
       style="fill:#847b58"
       d="m 21.677489,210.94697 c 0.287717,-0.24953 0.523121,-0.55284 0.523121,-0.67402 0,-0.12118 -0.140042,-0.0803 -0.311204,0.0909 -0.208177,0.20817 -0.415539,0.22461 -0.626354,0.0496 -0.21558,-0.17892 -0.423984,-0.13041 -0.659624,0.15352 -0.189461,0.22828 -0.235023,0.39424 -0.10125,0.3688 0.588353,-0.1119 0.675116,0.0563 0.315508,0.61172 -0.211998,0.32742 -0.469611,0.93678 -0.572473,1.35413 -0.102863,0.41736 -0.252626,0.69323 -0.332807,0.61304 -0.08018,-0.0802 -0.003,-0.57845 0.171538,-1.10728 0.174527,-0.52882 0.257349,-1.02147 0.184048,-1.09477 -0.233619,-0.23362 -0.930174,2.54265 -0.781033,3.11297 0.110563,0.42279 0.31719,0.14011 0.905334,-1.23856 0.419141,-0.98251 0.997479,-1.99055 1.285196,-2.24009 z"
       id="path26928" />
    <path
       style="fill:#847b58"
       d="m 15.193291,254.60846 c -5.6140206,-0.091 -8.1928309,-0.22355 -8.2597228,-0.42457 -0.2941646,-0.88405 4.0021958,-2.89658 6.8101518,-3.19007 1.467679,-0.15341 1.537461,-0.1948 1.660114,-0.98473 0.07042,-0.45352 0.08671,-1.4199 0.03621,-2.1475 -0.0505,-0.72761 -0.100497,-1.62058 -0.111096,-1.98438 -0.0106,-0.3638 -0.228435,-0.93324 -0.48408,-1.26543 -0.462719,-0.60126 -0.473479,-0.60215 -2.392664,-0.19844 -3.7837284,0.79593 -7.4525199,0.40336 -9.9654575,-1.06633 -1.4486775,-0.84726 -2.88750295,-2.36654 -2.63229046,-2.77948 0.13076333,-0.21158 0.09429953,-0.2612 -0.10254751,-0.13954 -0.69911295,0.43207 -0.23729184,-0.39619 0.5544321,-0.99436 3.11779557,-2.35558 6.91667477,-2.80097 10.14378037,-1.18928 2.085007,1.04131 5.263481,4.9322 4.731833,5.79243 -0.08598,0.13911 -0.02085,0.25293 0.144722,0.25293 0.460945,0 0.169097,-6.48558 -0.347296,-7.71776 -0.621617,-1.48327 -1.139131,-1.64005 -6.0079357,-1.82018 l -4.3656247,-0.16151 -2.3419127,-1.0988 c -1.82084424,-0.85432 -2.71642931,-1.48076 -4.0251566,-2.81551 -1.5782826,-1.60966 -3.2821509,-4.11205 -3.287739,-4.82854 -0.003,-0.38514 1.8680665,-1.24494 3.3137678,-1.52275 1.19027098,-0.22873 4.8242067,-0.22869 6.3692741,6e-5 1.4218272,0.21051 3.6294233,1.35235 5.0754162,2.62517 1.5411786,1.3566 3.5609676,4.08709 3.3773126,4.56568 -0.07729,0.20142 -0.02474,0.29465 0.116776,0.20719 0.298118,-0.18425 1.920633,3.01403 1.751992,3.4535 -0.06205,0.1617 0.02465,0.29413 0.192682,0.29428 0.222152,1.9e-4 0.283713,-1.233 0.225634,-4.51997 -0.118677,-6.71658 -0.511396,-7.31649 -5.122427,-7.82494 -3.1852196,-0.35124 -5.0695304,-0.73643 -6.6588576,-1.36121 -1.5634708,-0.61462 -3.98987092,-2.24948 -5.1105833,-3.4434 -1.235982,-1.31672 -2.7570288,-3.84084 -2.5848678,-4.28948 0.2589111,-0.67471 2.2626989,-1.27135 4.73993948,-1.41135 2.12236532,-0.11994 2.59331352,-0.0571 4.33183622,0.57792 4.1627955,1.52054 6.771268,3.87419 8.704499,7.85414 0.68814,1.41668 1.380629,2.58122 1.538865,2.58787 0.197842,0.008 0.269972,-1.28946 0.23094,-4.15509 -0.05829,-4.27954 -0.118959,-5.18423 -0.33328,-4.96991 -0.06783,0.0678 -0.346918,-0.16094 -0.620206,-0.50837 -0.494039,-0.62807 -1.772329,-1.20487 -3.802556,-1.7158 -0.584321,-0.14705 -1.6510084,-0.64065 -2.3704162,-1.09689 -1.2183985,-0.77268 -1.2742512,-0.8542 -0.8152147,-1.18986 0.4484078,-0.32788 0.4530868,-0.37558 0.051942,-0.52951 -0.2424715,-0.0931 -0.6179347,-0.0222 -0.8343627,0.1574 -0.265989,0.22075 -0.3935056,0.23198 -0.3935056,0.0346 0,-0.31161 0.125101,-0.35007 3.1600906,-0.97143 1.0832066,-0.22176 2.0038706,-0.43761 2.0459196,-0.47966 0.04205,-0.0421 -0.06601,-0.45389 -0.24014,-0.91521 -0.211496,-0.56032 -0.228581,-0.92676 -0.05147,-1.10388 0.177115,-0.17712 0.279759,-0.0686 0.309203,0.32703 0.02424,0.32569 0.287872,0.79007 0.585847,1.03195 0.297975,0.24188 0.476547,0.60976 0.396827,0.8175 -0.07972,0.20775 0.03907,0.53044 0.26397,0.7171 0.334892,0.27793 0.41459,0.27363 0.440264,-0.0238 0.0612,-0.70887 -0.07518,-1.09376 -0.579279,-1.63484 -0.471336,-0.50592 -0.60993,-0.83938 -0.444257,-1.06887 0.03638,-0.0504 -0.110396,-0.31828 -0.32617,-0.59531 -0.355691,-0.45667 -0.334465,-0.45429 0.227368,0.0255 1.065348,0.90973 3.464509,6.40183 2.999641,6.86669 -0.07962,0.0796 -0.02144,0.14477 0.129299,0.14477 0.150734,0 0.330177,-0.38696 0.398763,-0.8599 0.206899,-1.42671 -0.04104,-6.55627 -0.344281,-7.12288 -0.155773,-0.29107 -0.226673,-0.58576 -0.157556,-0.65488 0.06912,-0.0691 -0.148786,-0.40011 -0.484227,-0.73556 -0.724992,-0.72499 -1.771875,-2.69488 -1.863881,-3.50722 -0.0487,-0.43001 0.04114,-0.53643 0.352148,-0.41708 0.309043,0.11859 0.373382,0.0452 0.247613,-0.28259 -0.224696,-0.58555 -0.03816,-0.55902 0.60722,0.0864 0.291042,0.29104 0.816358,0.52916 1.167369,0.52916 0.53824,0 0.666172,0.16555 0.816772,1.05695 0.09821,0.58132 0.270697,1.11389 0.383297,1.18348 0.1126,0.0696 0.114441,-0.36721 0.0041,-0.97067 -0.257899,-1.41034 0.08328,-1.75558 1.686269,-1.70634 0.91315,0.0281 1.277352,0.15677 1.382699,0.48869 0.161472,0.50876 -0.409675,1.75544 -1.424818,3.11006 -0.665888,0.88857 -0.68874,1.05312 -0.847067,6.09958 -0.08949,2.85251 -0.262126,5.34723 -0.383628,5.54382 -0.131132,0.21218 -0.119005,0.29446 0.02984,0.20247 0.154015,-0.0952 0.208647,0.80769 0.141613,2.34037 -0.06997,1.59973 -0.01174,2.49534 0.162235,2.49534 0.149255,0 0.209083,-0.23819 0.132951,-0.52932 -0.129761,-0.4962 1.21603,-4.73629 2.322804,-7.31829 0.272406,-0.63549 0.683205,-2.19562 0.912888,-3.46694 0.518987,-2.87265 0.854842,-3.77548 1.335824,-3.59091 0.30576,0.11733 0.301726,0.20381 -0.02473,0.53027 -0.660855,0.66085 -0.444114,0.79351 0.994884,0.6089 1.817314,-0.23314 2.661257,0.009 2.852366,0.81862 0.183873,0.7789 0.498443,0.82347 0.893213,0.12656 0.368742,-0.65097 0.86591,-1.2018 1.084711,-1.2018 0.309277,0 -1.570411,2.4256 -2.09885,2.70841 -1.318981,0.7059 -3.779853,2.89468 -4.288912,3.8147 -0.534691,0.96635 -0.967657,2.26793 -2.207222,6.63534 -0.548739,1.93339 -1.456713,3.77488 -1.861264,3.77488 -0.120988,0 -0.126527,-0.32742 -0.01231,-0.7276 0.11422,-0.40019 0.114277,-0.96573 1.27e-4,-1.25677 -0.158465,-0.40404 -0.216593,-0.2789 -0.245803,0.52916 -0.02104,0.58209 -0.08911,1.33224 -0.151267,1.66701 -0.320483,1.72613 2.083855,-1.39128 4.28291,-5.55313 1.408865,-2.66636 2.266439,-3.94421 4.641866,-6.9167 0.384124,-0.48067 0.493542,-0.50214 0.888527,-0.17433 0.393746,0.32678 0.496475,0.31091 0.815967,-0.12602 0.201031,-0.27493 0.297475,-0.5679 0.21432,-0.65106 -0.08315,-0.0832 -0.30862,0.0641 -0.501033,0.32725 -0.217633,0.29763 -0.414653,0.37357 -0.521339,0.20095 -0.216839,-0.35085 1.888879,-1.69751 3.811944,-2.43784 1.806443,-0.69543 5.353011,-0.95562 6.74843,-0.49509 0.878396,0.2899 0.963463,0.39684 0.814244,1.02363 -0.616711,2.59048 -3.588055,6.28357 -6.157361,7.653 -0.857142,0.45685 -2.681938,1.14117 -4.055104,1.5207 -4.106828,1.13512 -5.097349,1.47411 -5.828435,1.99469 -0.383191,0.27285 -0.78249,0.41032 -0.887331,0.30548 -0.104841,-0.10484 -0.151997,-0.0716 -0.104791,0.074 0.04721,0.14552 -0.464426,1.03849 -1.136961,1.98438 -2.354213,3.31107 -2.702991,4.25452 -2.824637,7.6407 -0.11432,3.18227 0.155865,3.71695 0.728696,1.44203 0.533619,-2.1192 2.172603,-5.12677 3.682713,-6.75787 1.076853,-1.16313 2.009198,-1.83415 3.705729,-2.66703 2.183523,-1.07197 2.374696,-1.11631 5.199853,-1.206 2.432311,-0.0772 3.269428,0.006 4.903868,0.48762 1.083985,0.3194 2.073011,0.67771 2.197838,0.79624 0.382572,0.36328 -1.461379,3.46274 -3.109442,5.22659 -2.623441,2.80776 -5.522086,4.03524 -12.284571,5.20211 -4.558005,0.78648 -5.081267,1.47863 -5.059328,6.69225 l 0.01424,3.38398 0.782773,-1.6201 c 2.233814,-4.62332 6.663288,-7.24238 11.68438,-6.90876 2.0319,0.13501 3.948341,0.67507 4.275822,1.20495 0.257344,0.41639 -0.909478,2.35333 -2.429507,4.03302 -3.013583,3.33012 -5.645964,4.42764 -10.902365,4.54555 -2.794757,0.0627 -3.035876,0.10815 -2.958867,0.55783 0.04697,0.27424 -0.03227,0.41781 -0.180155,0.32641 -0.145198,-0.0897 -0.350151,-0.0238 -0.455451,0.14662 -0.117703,0.19045 -0.07692,0.23899 0.105879,0.12602 0.217394,-0.13436 0.252964,0.74384 0.132302,3.26641 l -0.165031,3.45018 h 1.07563 c 2.164792,0 5.778599,1.50842 7.161672,2.98932 l 0.614938,0.65844 -1.161843,0.0943 c -0.639014,0.0519 -4.834954,0.0348 -9.32431,-0.0379 z"
       id="path26461" />
    <path
       style="fill:#517889"
       d="m 25.904777,199.4666 c 0,-0.20522 0.474639,-0.97358 1.054754,-1.70748 0.692403,-0.87596 1.001961,-1.49766 0.901083,-1.8097 -0.115893,-0.35847 -0.09062,-0.38708 0.102798,-0.11635 0.179312,0.25098 0.310915,0.27088 0.437448,0.0661 0.09954,-0.16105 0.340785,-0.29283 0.536102,-0.29283 0.208817,0 0.03993,0.33742 -0.409944,0.81901 -0.420787,0.45045 -1.143451,1.40295 -1.605922,2.11666 -0.905352,1.3972 -1.016319,1.49815 -1.016319,0.92455 z"
       id="path26912" />
    <path
       style="fill:#517889"
       d="m 21.677489,210.94702 c 0.287717,-0.24953 0.523121,-0.55284 0.523121,-0.67402 0,-0.12118 -0.140042,-0.0803 -0.311204,0.0909 -0.208177,0.20817 -0.415539,0.22461 -0.626354,0.0496 -0.21558,-0.17892 -0.423984,-0.13041 -0.659624,0.15352 -0.189461,0.22828 -0.235023,0.39424 -0.10125,0.3688 0.588353,-0.1119 0.675116,0.0563 0.315508,0.61172 -0.211998,0.32742 -0.469611,0.93678 -0.572473,1.35413 -0.102863,0.41736 -0.252626,0.69323 -0.332807,0.61304 -0.08018,-0.0802 -0.003,-0.57845 0.171538,-1.10728 0.174527,-0.52882 0.257349,-1.02147 0.184048,-1.09477 -0.233619,-0.23362 -0.930174,2.54265 -0.781033,3.11297 0.110563,0.42279 0.31719,0.14011 0.905334,-1.23856 0.419141,-0.98251 0.997479,-1.99055 1.285196,-2.24009 z"
       id="path26904" />
    <path
       style="fill:#517889"
       d="m 16.613669,249.42709 c -0.01688,-0.56996 -0.08542,-0.82647 -0.152316,-0.57003 -0.06689,0.25645 -0.231676,0.39825 -0.366183,0.31512 -0.134508,-0.0831 -0.244559,0.094 -0.244559,0.39363 0,0.29963 -0.0893,0.54458 -0.198438,0.54434 -0.10914,-2.5e-4 -0.22028,-0.80392 -0.246976,-1.78594 -0.0267,-0.98202 -0.05911,-2.08315 -0.07203,-2.44695 -0.01292,-0.3638 -0.232655,-0.93324 -0.4883,-1.26543 -0.462719,-0.60126 -0.473479,-0.60215 -2.392664,-0.19844 -3.7837284,0.79593 -7.4525199,0.40336 -9.9654575,-1.06633 -1.4486775,-0.84726 -2.88750295,-2.36654 -2.63229046,-2.77948 0.13076333,-0.21158 0.09429953,-0.2612 -0.10254751,-0.13954 -0.69911295,0.43207 -0.23729184,-0.39619 0.5544321,-0.99436 3.11779557,-2.35558 6.91667477,-2.80097 10.14378037,-1.18928 2.085007,1.04131 5.263481,4.9322 4.731833,5.79243 -0.08598,0.13911 -0.02085,0.25293 0.144722,0.25293 0.460945,0 0.169097,-6.48558 -0.347296,-7.71776 -0.621617,-1.48327 -1.139131,-1.64005 -6.0079357,-1.82018 l -4.3656247,-0.16151 -2.3419127,-1.0988 c -1.82084424,-0.85432 -2.71642931,-1.48076 -4.0251566,-2.81551 -1.5782826,-1.60966 -3.2821509,-4.11205 -3.287739,-4.82854 -0.003,-0.38514 1.8680665,-1.24494 3.3137678,-1.52275 1.19027098,-0.22873 4.8242067,-0.22869 6.3692741,6e-5 1.4218272,0.21051 3.6294233,1.35235 5.0754162,2.62517 1.5411786,1.3566 3.5609676,4.08709 3.3773126,4.56568 -0.07729,0.20142 -0.02474,0.29465 0.116776,0.20719 0.298118,-0.18425 1.920633,3.01403 1.751992,3.4535 -0.06205,0.1617 0.02465,0.29413 0.192682,0.29428 0.222152,1.9e-4 0.283713,-1.233 0.225634,-4.51997 -0.118677,-6.71658 -0.511396,-7.31649 -5.122427,-7.82494 -3.1852196,-0.35124 -5.0695304,-0.73643 -6.6588576,-1.36121 -1.5634708,-0.61462 -3.98987092,-2.24948 -5.1105833,-3.4434 -1.235982,-1.31672 -2.7570288,-3.84084 -2.5848678,-4.28948 0.2589111,-0.67471 2.2626989,-1.27135 4.73993948,-1.41135 2.12236532,-0.11994 2.59331352,-0.0571 4.33183622,0.57792 4.1627955,1.52054 6.771268,3.87419 8.704499,7.85414 0.68814,1.41668 1.380629,2.58122 1.538865,2.58787 0.197842,0.008 0.269972,-1.28946 0.23094,-4.15509 -0.05829,-4.27954 -0.118959,-5.18423 -0.33328,-4.96991 -0.06783,0.0678 -0.346918,-0.16094 -0.620206,-0.50837 -0.494039,-0.62807 -1.772329,-1.20487 -3.802556,-1.7158 -0.584321,-0.14705 -1.6510084,-0.64065 -2.3704162,-1.09689 -1.2183985,-0.77268 -1.2742512,-0.8542 -0.8152147,-1.18986 0.4484078,-0.32788 0.4530868,-0.37558 0.051942,-0.52951 -0.2424715,-0.0931 -0.6179347,-0.0222 -0.8343627,0.1574 -0.265989,0.22075 -0.3935056,0.23198 -0.3935056,0.0346 0,-0.31161 0.125101,-0.35007 3.1600906,-0.97143 1.0832066,-0.22176 2.0038706,-0.43761 2.0459196,-0.47966 0.04205,-0.0421 -0.06601,-0.45389 -0.24014,-0.91521 -0.211496,-0.56032 -0.228581,-0.92676 -0.05147,-1.10388 0.177115,-0.17712 0.279759,-0.0686 0.309203,0.32703 0.02424,0.32569 0.287872,0.79007 0.585847,1.03195 0.297975,0.24188 0.476547,0.60976 0.396827,0.8175 -0.07972,0.20775 0.03907,0.53044 0.26397,0.7171 0.334892,0.27793 0.41459,0.27363 0.440264,-0.0238 0.0612,-0.70887 -0.07518,-1.09376 -0.579279,-1.63484 -0.280722,-0.30132 -0.525286,-0.64447 -0.543476,-0.76255 -0.0791,-0.51347 -0.120219,-0.63291 -0.347188,-1.00844 -0.133473,-0.22084 0.02785,-0.16216 0.363711,0.13229 1.060607,0.92985 3.441252,6.40898 2.983535,6.86669 -0.07962,0.0796 -0.02144,0.14477 0.129299,0.14477 0.150734,0 0.330177,-0.38696 0.398763,-0.8599 0.206899,-1.42671 -0.04104,-6.55627 -0.344281,-7.12288 -0.155773,-0.29107 -0.226673,-0.58576 -0.157556,-0.65488 0.06912,-0.0691 -0.148786,-0.40011 -0.484227,-0.73556 -0.724992,-0.72499 -1.771875,-2.69488 -1.863881,-3.50722 -0.0487,-0.43001 0.04114,-0.53643 0.352148,-0.41708 0.309043,0.11859 0.373382,0.0452 0.247613,-0.28259 -0.224696,-0.58555 -0.03816,-0.55902 0.60722,0.0864 0.291042,0.29104 0.816358,0.52916 1.167369,0.52916 0.53824,0 0.666172,0.16555 0.816772,1.05695 0.09821,0.58132 0.270697,1.11389 0.383297,1.18348 0.1126,0.0696 0.114441,-0.36721 0.0041,-0.97067 -0.257899,-1.41034 0.08328,-1.75558 1.686269,-1.70634 0.91315,0.0281 1.277352,0.15677 1.382699,0.48869 0.161472,0.50876 -0.409675,1.75544 -1.424818,3.11006 -0.665888,0.88857 -0.68874,1.05312 -0.847067,6.09958 -0.08949,2.85251 -0.262126,5.34723 -0.383628,5.54382 -0.131132,0.21218 -0.119005,0.29446 0.02984,0.20247 0.154015,-0.0952 0.208647,0.80769 0.141613,2.34037 -0.06997,1.59973 -0.01174,2.49534 0.162235,2.49534 0.149255,0 0.209083,-0.23819 0.132951,-0.52932 -0.129761,-0.4962 1.21603,-4.73629 2.322804,-7.31829 0.272406,-0.63549 0.683205,-2.19562 0.912888,-3.46694 0.518987,-2.87265 0.854842,-3.77548 1.335824,-3.59091 0.30576,0.11733 0.301726,0.20381 -0.02473,0.53027 -0.660855,0.66085 -0.444114,0.79351 0.994884,0.6089 1.817314,-0.23314 2.661257,0.009 2.852366,0.81862 0.183873,0.7789 0.498443,0.82347 0.893213,0.12656 0.368742,-0.65097 0.86591,-1.2018 1.084711,-1.2018 0.309277,0 -1.570411,2.4256 -2.09885,2.70841 -1.318981,0.7059 -3.779853,2.89468 -4.288912,3.8147 -0.534691,0.96635 -0.967657,2.26793 -2.207222,6.63534 -0.548739,1.93339 -1.456713,3.77488 -1.861264,3.77488 -0.120988,0 -0.126527,-0.32742 -0.01231,-0.7276 0.11422,-0.40019 0.114277,-0.96573 1.27e-4,-1.25677 -0.158465,-0.40404 -0.216593,-0.2789 -0.245803,0.52916 -0.02104,0.58209 -0.08911,1.33224 -0.151267,1.66701 -0.320483,1.72613 2.083855,-1.39128 4.28291,-5.55313 1.408865,-2.66636 2.266439,-3.94421 4.641866,-6.9167 0.384124,-0.48067 0.493542,-0.50214 0.888527,-0.17433 0.393746,0.32678 0.496475,0.31091 0.815967,-0.12602 0.201031,-0.27493 0.297475,-0.5679 0.21432,-0.65106 -0.08315,-0.0832 -0.30862,0.0641 -0.501033,0.32725 -0.217633,0.29763 -0.414653,0.37357 -0.521339,0.20095 -0.216839,-0.35085 1.888879,-1.69751 3.811944,-2.43784 1.806443,-0.69543 5.353011,-0.95562 6.74843,-0.49509 0.878396,0.2899 0.963463,0.39684 0.814244,1.02363 -0.616711,2.59048 -3.588055,6.28357 -6.157361,7.653 -0.857142,0.45685 -2.681938,1.14117 -4.055104,1.5207 -4.106828,1.13512 -5.097349,1.47411 -5.828435,1.99469 -0.383191,0.27285 -0.78249,0.41032 -0.887331,0.30548 -0.104841,-0.10484 -0.151997,-0.0716 -0.104791,0.074 0.04721,0.14552 -0.464426,1.03849 -1.136961,1.98438 -2.354213,3.31107 -2.702991,4.25452 -2.824637,7.6407 -0.11432,3.18227 0.155865,3.71695 0.728696,1.44203 0.533619,-2.1192 2.172603,-5.12677 3.682713,-6.75787 1.076853,-1.16313 2.009198,-1.83415 3.705729,-2.66703 2.183523,-1.07197 2.374696,-1.11631 5.199853,-1.206 2.432311,-0.0772 3.269428,0.006 4.903868,0.48762 1.083985,0.3194 2.073011,0.67771 2.197838,0.79624 0.382572,0.36328 -1.461379,3.46274 -3.109442,5.22659 -2.623441,2.80776 -5.522086,4.03524 -12.284571,5.20211 -4.558005,0.78648 -5.081267,1.47863 -5.059328,6.69225 l 0.01424,3.38398 0.782773,-1.6201 c 2.233814,-4.62332 6.663288,-7.24238 11.68438,-6.90876 2.0319,0.13501 3.948341,0.67507 4.275822,1.20495 0.257344,0.41639 -0.909478,2.35333 -2.429507,4.03302 -3.013583,3.33012 -5.645964,4.42764 -10.902365,4.54555 -2.794757,0.0627 -3.035876,0.10815 -2.958867,0.55783 0.04697,0.27424 -0.03227,0.41781 -0.180155,0.32641 -0.145198,-0.0897 -0.350151,-0.0238 -0.455451,0.14662 -0.120045,0.19424 -0.07673,0.23888 0.116143,0.11968 0.230697,-0.14258 0.264807,0.59135 0.136438,2.93568 -0.175116,3.19802 -0.338261,4.15705 -0.392966,2.30999 z"
       id="path26903" />
    <path
       style="fill:#517889"
       d="m 11.948007,254.41059 c 2.146432,-0.0445 5.658775,-0.0445 7.805208,0 2.146432,0.0445 0.39026,0.0809 -3.902604,0.0809 -4.292865,0 -6.0490365,-0.0364 -3.902604,-0.0809 z"
       id="path26460" />
    <path
       style="fill:#628c59"
       d="m 21.677489,210.94702 c 0.287717,-0.24953 0.523121,-0.55284 0.523121,-0.67402 0,-0.12118 -0.140042,-0.0803 -0.311204,0.0909 -0.208177,0.20817 -0.415539,0.22461 -0.626354,0.0496 -0.21558,-0.17892 -0.423984,-0.13041 -0.659624,0.15352 -0.189461,0.22828 -0.235023,0.39424 -0.10125,0.3688 0.588353,-0.1119 0.675116,0.0563 0.315508,0.61172 -0.211998,0.32742 -0.469611,0.93678 -0.572473,1.35413 -0.102863,0.41736 -0.252626,0.69323 -0.332807,0.61304 -0.08018,-0.0802 -0.003,-0.57845 0.171538,-1.10728 0.174527,-0.52882 0.257349,-1.02147 0.184048,-1.09477 -0.233619,-0.23362 -0.930174,2.54265 -0.781033,3.11297 0.110563,0.42279 0.31719,0.14011 0.905334,-1.23856 0.419141,-0.98251 0.997479,-1.99055 1.285196,-2.24009 z"
       id="path26885" />
    <path
       style="fill:#628c59"
       d="m 16.613669,249.42709 c -0.01688,-0.56996 -0.08542,-0.82647 -0.152316,-0.57003 -0.06689,0.25645 -0.231676,0.39825 -0.366183,0.31512 -0.134508,-0.0831 -0.244559,0.094 -0.244559,0.39363 0,0.29963 -0.0893,0.54458 -0.198438,0.54434 -0.10914,-2.5e-4 -0.22028,-0.80392 -0.246976,-1.78594 -0.0267,-0.98202 -0.05911,-2.08315 -0.07203,-2.44695 -0.01292,-0.3638 -0.232655,-0.93324 -0.4883,-1.26543 -0.462719,-0.60126 -0.473479,-0.60215 -2.392664,-0.19844 -3.7837284,0.79593 -7.4525199,0.40336 -9.9654575,-1.06633 -1.4486775,-0.84726 -2.88750295,-2.36654 -2.63229046,-2.77948 0.13076333,-0.21158 0.09429953,-0.2612 -0.10254751,-0.13954 -0.69911295,0.43207 -0.23729184,-0.39619 0.5544321,-0.99436 3.11779557,-2.35558 6.91667477,-2.80097 10.14378037,-1.18928 2.085007,1.04131 5.263481,4.9322 4.731833,5.79243 -0.08598,0.13911 -0.02085,0.25293 0.144722,0.25293 0.460945,0 0.169097,-6.48558 -0.347296,-7.71776 -0.621617,-1.48327 -1.139131,-1.64005 -6.0079357,-1.82018 l -4.3656247,-0.16151 -2.3419127,-1.0988 c -1.82084424,-0.85432 -2.71642931,-1.48076 -4.0251566,-2.81551 -1.5782826,-1.60966 -3.2821509,-4.11205 -3.287739,-4.82854 -0.003,-0.38514 1.8680665,-1.24494 3.3137678,-1.52275 1.19027098,-0.22873 4.8242067,-0.22869 6.3692741,6e-5 1.4218272,0.21051 3.6294233,1.35235 5.0754162,2.62517 1.5411786,1.3566 3.5609676,4.08709 3.3773126,4.56568 -0.07729,0.20142 -0.02474,0.29465 0.116776,0.20719 0.298118,-0.18425 1.920633,3.01403 1.751992,3.4535 -0.06205,0.1617 0.02465,0.29413 0.192682,0.29428 0.222152,1.9e-4 0.283713,-1.233 0.225634,-4.51997 -0.118677,-6.71658 -0.511396,-7.31649 -5.122427,-7.82494 -3.1852196,-0.35124 -5.0695304,-0.73643 -6.6588576,-1.36121 -1.5634708,-0.61462 -3.98987092,-2.24948 -5.1105833,-3.4434 -1.235982,-1.31672 -2.7570288,-3.84084 -2.5848678,-4.28948 0.2589111,-0.67471 2.2626989,-1.27135 4.73993948,-1.41135 2.12236532,-0.11994 2.59331352,-0.0571 4.33183622,0.57792 4.1627955,1.52054 6.771268,3.87419 8.704499,7.85414 0.68814,1.41668 1.380629,2.58122 1.538865,2.58787 0.197842,0.008 0.269972,-1.28946 0.23094,-4.15509 -0.05829,-4.27954 -0.118959,-5.18423 -0.33328,-4.96991 -0.06783,0.0678 -0.346918,-0.16094 -0.620206,-0.50837 -0.494039,-0.62807 -1.772329,-1.20487 -3.802556,-1.7158 -0.584321,-0.14705 -1.6510084,-0.64065 -2.3704162,-1.09689 -1.1920251,-0.75596 -1.2662792,-0.86003 -0.8373665,-1.17366 0.4340738,-0.3174 0.436535,-0.36324 0.031671,-0.58981 -0.3272809,-0.18315 0.1164702,-0.35707 1.7439938,-0.6835 1.2006339,-0.24081 2.2212329,-0.4761 2.2679979,-0.52287 0.04677,-0.0468 -0.05744,-0.46246 -0.231567,-0.92378 -0.211496,-0.56032 -0.228581,-0.92676 -0.05147,-1.10388 0.177115,-0.17712 0.279759,-0.0686 0.309203,0.32703 0.02424,0.32569 0.287872,0.79007 0.585847,1.03195 0.297975,0.24188 0.476547,0.60976 0.396827,0.8175 -0.07972,0.20775 0.03907,0.53044 0.26397,0.7171 0.334892,0.27793 0.41459,0.27363 0.440264,-0.0238 0.0612,-0.70887 -0.07518,-1.09376 -0.579279,-1.63484 -0.280722,-0.30132 -0.525286,-0.64447 -0.543476,-0.76255 -0.0791,-0.51347 -0.120219,-0.63291 -0.347188,-1.00844 -0.133473,-0.22084 0.02785,-0.16216 0.363711,0.13229 1.060607,0.92985 3.441252,6.40898 2.983535,6.86669 -0.07962,0.0796 -0.02144,0.14477 0.129299,0.14477 0.150734,0 0.330177,-0.38696 0.398763,-0.8599 0.206899,-1.42671 -0.04104,-6.55627 -0.344281,-7.12288 -0.155773,-0.29107 -0.226673,-0.58576 -0.157556,-0.65488 0.06912,-0.0691 -0.148786,-0.40011 -0.484227,-0.73556 -0.724992,-0.72499 -1.771875,-2.69488 -1.863881,-3.50722 -0.0487,-0.43001 0.04114,-0.53643 0.352148,-0.41708 0.309043,0.11859 0.373382,0.0452 0.247613,-0.28259 -0.224696,-0.58555 -0.03816,-0.55902 0.60722,0.0864 0.291042,0.29104 0.816358,0.52916 1.167369,0.52916 0.53824,0 0.666172,0.16555 0.816772,1.05695 0.09821,0.58132 0.270697,1.11389 0.383297,1.18348 0.1126,0.0696 0.114441,-0.36721 0.0041,-0.97067 -0.257899,-1.41034 0.08328,-1.75558 1.686269,-1.70634 0.91315,0.0281 1.277352,0.15677 1.382699,0.48869 0.161472,0.50876 -0.409675,1.75544 -1.424818,3.11006 -0.665888,0.88857 -0.68874,1.05312 -0.847067,6.09958 -0.08949,2.85251 -0.262126,5.34723 -0.383628,5.54382 -0.131132,0.21218 -0.119005,0.29446 0.02984,0.20247 0.154015,-0.0952 0.208647,0.80769 0.141613,2.34037 -0.06997,1.59973 -0.01174,2.49534 0.162235,2.49534 0.149255,0 0.209083,-0.23819 0.132951,-0.52932 -0.129761,-0.4962 1.21603,-4.73629 2.322804,-7.31829 0.272406,-0.63549 0.683205,-2.19562 0.912888,-3.46694 0.475786,-2.63353 0.87696,-3.82516 1.217025,-3.61498 0.133264,0.0824 0.120001,0.3591 -0.03071,0.6407 -0.383041,0.71572 -0.384159,0.71511 0.991472,0.54278 1.893973,-0.23727 2.79175,-10e-4 2.976693,0.78203 0.187504,0.79427 0.499914,0.84404 0.897075,0.14291 0.368742,-0.65097 0.86591,-1.2018 1.084711,-1.2018 0.309277,0 -1.570411,2.4256 -2.09885,2.70841 -1.318981,0.7059 -3.779853,2.89468 -4.288912,3.8147 -0.534691,0.96635 -0.967657,2.26793 -2.207222,6.63534 -0.548739,1.93339 -1.456713,3.77488 -1.861264,3.77488 -0.120988,0 -0.126527,-0.32742 -0.01231,-0.7276 0.11422,-0.40019 0.114277,-0.96573 1.27e-4,-1.25677 -0.158465,-0.40404 -0.216593,-0.2789 -0.245803,0.52916 -0.02104,0.58209 -0.08911,1.33224 -0.151267,1.66701 -0.320483,1.72613 2.083855,-1.39128 4.28291,-5.55313 1.408865,-2.66636 2.266439,-3.94421 4.641866,-6.9167 0.384124,-0.48067 0.493542,-0.50214 0.888527,-0.17433 0.393746,0.32678 0.496475,0.31091 0.815967,-0.12602 0.201031,-0.27493 0.297475,-0.5679 0.21432,-0.65106 -0.08315,-0.0832 -0.30862,0.0641 -0.501033,0.32725 -0.217633,0.29763 -0.414653,0.37357 -0.521339,0.20095 -0.216839,-0.35085 1.888879,-1.69751 3.811944,-2.43784 1.806443,-0.69543 5.353011,-0.95562 6.74843,-0.49509 0.878396,0.2899 0.963463,0.39684 0.814244,1.02363 -0.616711,2.59048 -3.588055,6.28357 -6.157361,7.653 -0.857142,0.45685 -2.681938,1.14117 -4.055104,1.5207 -4.106828,1.13512 -5.097349,1.47411 -5.828435,1.99469 -0.383191,0.27285 -0.78249,0.41032 -0.887331,0.30548 -0.104841,-0.10484 -0.151997,-0.0716 -0.104791,0.074 0.04721,0.14552 -0.464426,1.03849 -1.136961,1.98438 -2.354213,3.31107 -2.702991,4.25452 -2.824637,7.6407 -0.11432,3.18227 0.155865,3.71695 0.728696,1.44203 0.533619,-2.1192 2.172603,-5.12677 3.682713,-6.75787 1.076853,-1.16313 2.009198,-1.83415 3.705729,-2.66703 2.183523,-1.07197 2.374696,-1.11631 5.199853,-1.206 2.432311,-0.0772 3.269428,0.006 4.903868,0.48762 1.083985,0.3194 2.073011,0.67771 2.197838,0.79624 0.382572,0.36328 -1.461379,3.46274 -3.109442,5.22659 -2.623441,2.80776 -5.522086,4.03524 -12.284571,5.20211 -4.558005,0.78648 -5.081267,1.47863 -5.059328,6.69225 l 0.01424,3.38398 0.782773,-1.6201 c 2.233814,-4.62332 6.663288,-7.24238 11.68438,-6.90876 2.0319,0.13501 3.948341,0.67507 4.275822,1.20495 0.257344,0.41639 -0.909478,2.35333 -2.429507,4.03302 -3.013583,3.33012 -5.645964,4.42764 -10.902365,4.54555 -2.794757,0.0627 -3.035876,0.10815 -2.958867,0.55783 0.04697,0.27424 -0.03227,0.41781 -0.180155,0.32641 -0.145198,-0.0897 -0.350151,-0.0238 -0.455451,0.14662 -0.120045,0.19424 -0.07673,0.23888 0.116143,0.11968 0.230697,-0.14258 0.264807,0.59135 0.136438,2.93568 -0.175116,3.19802 -0.338261,4.15705 -0.392966,2.30999 z"
       id="path26884" />
    <path
       style="fill:#628c59"
       d="m 11.948007,254.41059 c 2.146432,-0.0445 5.658775,-0.0445 7.805208,0 2.146432,0.0445 0.39026,0.0809 -3.902604,0.0809 -4.292865,0 -6.0490365,-0.0364 -3.902604,-0.0809 z"
       id="path26459" />
    <path
       style="fill:#5c8653"
       d="m 15.616719,206.23847 c -0.01688,-0.48251 -0.15526,-1.11005 -0.30751,-1.39453 -0.374802,-0.70033 -0.137702,-0.99076 0.681052,-0.83424 0.611414,0.11688 0.662343,0.2152 0.495557,0.9567 -0.102239,0.45454 -0.187768,0.97003 -0.190062,1.14553 -0.0023,0.1755 -0.09438,0.26334 -0.204635,0.1952 -0.110254,-0.0681 -0.255193,0.0859 -0.322086,0.34237 -0.06689,0.25644 -0.135435,0.0715 -0.152316,-0.41103 z"
       id="path26826" />
    <path
       style="fill:#5c8653"
       d="m 12.469356,210.03231 c 0.104841,-0.11604 -0.07329,-0.58162 -0.395846,-1.03461 -0.322556,-0.45298 -0.571427,-0.88314 -0.553046,-0.9559 0.01838,-0.0728 -0.07138,-0.40794 -0.199467,-0.74483 -0.43246,-1.13746 -0.213463,-1.24688 0.36268,-0.18121 0.314699,0.58208 0.577327,1.14167 0.583619,1.24354 0.0063,0.10186 0.160268,0.33403 0.342169,0.51593 0.181901,0.18191 0.330729,0.47849 0.330729,0.65908 0,0.18059 -0.148828,0.41399 -0.330729,0.51867 -0.181901,0.10468 -0.24495,0.0954 -0.140109,-0.0207 z"
       id="path26825" />
    <path
       style="fill:#5c8653"
       d="m 17.327554,218.49956 c 0.08626,-0.57839 0.751252,-2.64744 1.477767,-4.5979 0.726514,-1.95045 1.539765,-4.67618 1.807224,-6.05718 0.267459,-1.381 0.628508,-2.6457 0.802331,-2.81044 0.243124,-0.23042 0.264217,-0.14692 0.09142,0.36192 -0.123542,0.36381 -0.226221,1.10795 -0.228176,1.65365 -0.002,0.5457 -0.106737,0.99219 -0.23285,0.99219 -0.126112,0 -0.167056,0.238 -0.09098,0.5289 0.07607,0.2909 0.02473,0.5991 -0.114094,0.6849 -0.138822,0.0858 -0.222312,0.3538 -0.185532,0.59557 0.03678,0.24177 -0.07318,0.69329 -0.244358,1.00337 -0.171176,0.31008 -0.499224,1.14351 -0.728995,1.85208 -0.229772,0.70857 -0.531806,1.52643 -0.671186,1.81747 -0.139381,0.29104 -0.610266,1.5412 -1.046411,2.77812 -0.524372,1.48715 -0.739865,1.89274 -0.636158,1.19735 z"
       id="path26815" />
    <path
       style="fill:#5c8653"
       d="m 17.086706,222.33013 c 0.170529,-0.18144 0.247087,-0.49398 0.17013,-0.69453 -0.07696,-0.20055 0.02164,-0.36646 0.219113,-0.36869 0.298684,-0.003 0.299468,-0.0418 0.0047,-0.22866 -0.291248,-0.1846 -0.269156,-0.46453 0.124025,-1.57156 0.318987,-0.89813 0.554172,-1.2407 0.705811,-1.02811 0.143144,0.20069 0.188009,0.0685 0.121069,-0.35662 -0.05849,-0.37151 0.05629,-0.8274 0.255068,-1.01308 0.204321,-0.19087 0.29038,-0.56144 0.197987,-0.85254 -0.104549,-0.3294 -0.04901,-0.48869 0.154166,-0.44213 0.174678,0.04 0.371308,-0.1058 0.436957,-0.32408 0.1061,-0.35278 0.08614,-0.35278 -0.179587,0 -0.253498,0.33654 -0.286731,0.31928 -0.218581,-0.11348 0.0442,-0.28069 0.199432,-0.50042 0.344952,-0.48828 0.145521,0.0121 0.352057,-0.1154 0.45897,-0.2834 0.280416,-0.44065 0.246775,-1.02552 -0.04849,-0.84304 -0.138038,0.0853 -0.06512,-0.39036 0.162049,-1.05706 0.470125,-1.37974 0.740808,-1.47557 0.353514,-0.12516 -0.338177,1.17916 -0.135453,1.34442 0.242896,0.19801 0.1626,-0.49268 0.820539,-1.42179 1.462089,-2.06468 0.641549,-0.64289 1.050525,-1.24054 0.908835,-1.32811 -0.149424,-0.0924 -0.08314,-0.30403 0.157838,-0.50402 0.352335,-0.29241 0.390136,-0.27881 0.2488,0.0895 -0.09166,0.23886 -0.08644,0.43429 0.0116,0.43429 0.222118,0 1.872983,-1.19997 2.891339,-2.10164 l 0.764019,-0.67648 -0.435432,0.68443 c -0.239488,0.37644 -1.059546,1.07877 -1.822352,1.56074 -3.057022,1.93155 -4.04378,3.53055 -5.390473,8.73504 -0.697397,2.69519 -1.644903,4.80007 -2.242341,4.98135 -0.284646,0.0864 -0.298012,0.0367 -0.05863,-0.21802 z"
       id="path26814" />
    <path
       style="fill:#5c8653"
       d="m 11.380538,221.62367 c -1.4639859,-1.20256 -3.1355846,-2.20895 -2.819475,-1.69748 0.3049043,0.49335 -0.1632942,0.31285 -0.8012187,-0.30887 -1.2168135,-1.18592 -1.5846778,-1.46405 -2.6425581,-1.99795 -0.5918183,-0.29869 -1.2369333,-0.73694 -1.4335888,-0.97389 -0.3254074,-0.39209 -0.2881326,-0.40096 0.414575,-0.0986 0.4246717,0.18275 1.367443,0.70953 2.0950471,1.17064 0.7276041,0.4611 1.9182291,1.17202 2.6458332,1.57981 0.7276041,0.40779 1.8493223,1.1675 2.4927083,1.68824 0.643385,0.52075 1.282975,1.02234 1.421311,1.11465 0.138336,0.0923 0.207242,0.28665 0.153125,0.43186 -0.05412,0.14521 -0.740709,-0.26359 -1.525759,-0.90845 z"
       id="path26813" />
    <path
       style="fill:#5c8653"
       d="m 12.128192,233.94057 0.643205,-0.25257 -0.961356,-0.65326 c -1.174932,-0.79839 -4.538506,-2.50336 -4.9386337,-2.50336 -0.3366552,0 -5.5728792,-2.59521 -5.5728792,-2.76207 0,-0.17074 1.5984614,0.32612 1.9438719,0.60423 0.1677975,0.13511 1.8201827,0.86625 3.6719673,1.62475 1.8517846,0.75851 4.0151837,1.83324 4.8075537,2.3883 0.79237,0.55506 1.539461,0.93025 1.660202,0.83376 0.120741,-0.0965 0.132083,-0.0681 0.0252,0.063 -0.106879,0.13114 0.0041,0.38349 0.246541,0.56079 0.369093,0.26989 0.228431,0.32454 -0.864008,0.33569 -1.093861,0.0112 -1.200861,-0.0275 -0.661669,-0.23925 z"
       id="path26810" />
    <path
       style="fill:#5c8653"
       d="m 14.834155,236.20617 c -0.487958,-1.07095 -1.718685,-1.41163 -5.2653267,-1.45751 -4.0562661,-0.0525 -5.3061215,-0.28983 -7.6912117,-1.46058 -2.15615883,-1.05839 -4.529353,-3.19768 -5.8400919,-5.2645 -1.2544588,-1.97808 -0.9836518,-2.08898 0.3301526,-0.13521 2.5102269,3.73299 5.9039891,5.88192 10.028733,6.3502 3.2297237,0.36668 7.8678347,0.44292 7.8635257,0.12927 -0.002,-0.14552 -0.299024,-0.8599 -0.660057,-1.5875 -0.361032,-0.72761 -0.59194,-1.02526 -0.513128,-0.66146 0.125691,0.5802 0.106261,0.60214 -0.158176,0.17859 -0.165808,-0.26557 -0.237788,-0.54654 -0.159955,-0.62438 0.216809,-0.21681 -1.101418,-2.19714 -2.31492,-3.47763 -2.29956,-2.42651 -4.3879751,-3.41945 -7.6773859,-3.65021 -2.28735055,-0.16047 -5.8327057,0.24641 -6.4241448,0.73726 -0.2478935,0.20573 -0.3453076,0.20569 -0.3453076,-1.5e-4 0,-0.76995 5.1082556,-1.40195 8.0697912,-0.9984 2.0237666,0.27577 4.2519369,1.34173 5.7823108,2.76629 1.8462853,1.71862 4.6687303,6.02205 4.6687303,7.11849 0,0.30353 0.132697,0.59611 0.294882,0.65017 0.260548,0.0868 0.658339,2.06247 0.415278,2.06247 -0.05283,0 -0.234494,-0.30384 -0.403699,-0.67521 z"
       id="path26809" />
    <path
       style="fill:#5c8653"
       d="m 12.014153,242.28527 c -0.663287,-0.50152 -3.2207156,-1.2706 -4.1010419,-1.23328 -0.5887326,0.025 -0.6032777,0.005 -0.1322917,-0.18567 0.2910417,-0.11754 0.9458854,-0.16484 1.4552083,-0.1051 1.0048813,0.11785 3.9687493,1.41888 3.9687493,1.74213 0,0.32507 -0.623276,0.2109 -1.190624,-0.21808 z"
       id="path26801" />
    <path
       style="fill:#5c8653"
       d="m 23.080639,215.38398 c -0.06463,-0.10914 0.0086,-0.19843 0.16269,-0.19843 0.154109,0 0.287745,0.14883 0.296969,0.33073 0.0092,0.1819 0.122019,0.0694 0.250656,-0.24999 0.159362,-0.39568 0.55446,-0.63861 1.239999,-0.76243 1.252859,-0.22628 1.991696,-0.59542 1.80296,-0.90081 -0.07921,-0.12816 -0.0046,-0.31918 0.165762,-0.42448 0.19347,-0.11957 0.238898,-0.0768 0.120992,0.11401 -0.280438,0.45376 0.25322,0.37005 0.644197,-0.10105 0.441615,-0.53212 3.68191,-2.34176 3.865087,-2.15859 0.07786,0.0779 -0.196181,0.34689 -0.608989,0.59783 -1.611865,0.97981 -3.437959,2.2403 -3.988087,2.75282 -0.317243,0.29555 -0.673208,0.53737 -0.791033,0.53737 -0.389193,0 -2.189148,1.33639 -2.189148,1.62535 0,0.15584 0.178593,0.21482 0.396875,0.13106 0.355085,-0.13626 0.517455,0.12575 0.428207,0.69099 -0.04284,0.27129 -0.02522,0.2687 2.288635,-0.33746 2.587365,-0.67781 5.448802,-2.0866 6.784227,-3.34013 0.568922,-0.53403 1.553886,-1.74565 2.18881,-2.69249 1.759097,-2.62328 1.840162,-3.54454 0.338329,-3.8449 -3.47396,-0.6948 -8.58723,1.09964 -10.837584,3.80331 -0.509322,0.61192 -1.193786,1.42679 -1.52103,1.81082 -0.327245,0.38404 -0.595135,0.90069 -0.595313,1.14812 -1.78e-4,0.24743 -0.160175,0.54509 -0.355549,0.66146 -0.497832,0.29652 -1.227053,1.48191 -1.370793,2.22829 -0.06645,0.34506 -0.241805,0.66771 -0.389675,0.717 -0.147869,0.0493 -0.196015,0.20747 -0.106992,0.35151 0.184458,0.29846 1.960033,-2.18554 1.779798,-2.48991 z"
       id="path26800" />
    <path
       style="fill:#5c8653"
       d="m 16.613935,220.7418 c 0.01984,-0.35278 -0.0062,-0.35278 -0.234158,0 -0.226,0.34971 -0.256962,0.34813 -0.260532,-0.0132 -0.0022,-0.22556 0.144777,-0.57045 0.326678,-0.76642 0.256709,-0.27657 0.257517,-0.31503 0.0036,-0.17183 -0.241467,0.13619 -0.291049,-0.0442 -0.189359,-0.68878 0.354984,-2.25028 0.51708,-4.44516 0.328282,-4.44516 -0.114773,0 -0.297975,0.0298 -0.407115,0.0661 -0.248695,0.0829 -0.355495,4.94789 -0.143757,6.54843 0.137752,1.04128 0.18238,1.10765 0.35577,0.52917 0.109043,-0.3638 0.208305,-0.84005 0.220582,-1.05833 z"
       id="path26799" />
    <path
       style="fill:#5c8653"
       d="m 16.336866,231.39128 c -0.0419,-0.25467 0.02855,-0.63025 0.156541,-0.83463 0.159513,-0.25472 0.136629,-0.31223 -0.07275,-0.18283 -0.204483,0.12638 -0.299316,-0.0569 -0.286868,-0.55443 0.01599,-0.63915 0.04763,-0.66912 0.225978,-0.21405 0.137224,0.35015 0.249315,-0.19065 0.331335,-1.59857 0.104418,-1.79239 0.272494,-2.40747 1.066413,-3.90261 0.518353,-0.97617 0.830546,-1.77486 0.693764,-1.77486 -0.136782,0 -0.548492,0.65484 -0.914911,1.4552 -0.366419,0.80037 -0.789289,1.45521 -0.939712,1.45521 -0.150422,0 -0.206425,0.17478 -0.124451,0.3884 0.08197,0.21363 0.03223,0.4606 -0.11054,0.54884 -0.14277,0.0882 -0.242534,0.0623 -0.221695,-0.0577 0.02084,-0.11996 0.0079,-0.3967 -0.0288,-0.61498 -0.03668,-0.21828 -0.155407,0.19843 -0.263846,0.92604 -0.186283,1.24991 -0.100023,4.37363 0.140646,5.09323 0.166824,0.4988 0.435929,0.39676 0.348892,-0.13229 z"
       id="path26798" />
    <path
       style="fill:#5c8653"
       d="m 19.81936,231.70114 c 0.363802,-0.0371 1.316302,-0.18712 2.116667,-0.33333 6.862412,-1.25358 9.47423,-2.35904 11.98768,-5.0738 1.62038,-1.75016 3.361473,-4.57875 3.025299,-4.91493 -0.529662,-0.52966 -3.509081,-1.01554 -6.281729,-1.02442 -2.97599,-0.01 -3.087852,0.0119 -5.101471,0.97526 -3.024106,1.44687 -4.696785,3.15058 -6.298374,6.41524 -1.324651,2.70015 -1.505099,3.2087 -1.035571,2.91851 0.14552,-0.0899 0.264583,-0.0183 0.264583,0.15928 0,0.17755 0.327422,-0.0991 0.727604,-0.61476 0.400182,-0.51566 1.3674,-1.3857 2.149373,-1.93341 1.83585,-1.28588 7.917171,-4.35867 8.620333,-4.3557 0.297677,0.001 -0.589863,0.58004 -1.972311,1.28619 -5.907951,3.01776 -6.997384,3.71161 -8.200854,5.223 -0.904725,1.13621 -1.584693,1.49085 -1.59278,0.83071 -0.0028,-0.22695 -0.08032,-0.21016 -0.247125,0.0535 -0.349283,0.55213 -0.0615,0.85795 0.604172,0.64203 0.315175,-0.10224 0.870702,-0.21626 1.234504,-0.25339 z"
       id="path26797" />
    <path
       style="fill:#5c8653"
       d="m 15.579915,242.1069 c -0.0034,-1.20055 -0.07685,-5.27844 -0.163302,-9.06198 -0.209561,-9.17119 -0.348282,-9.44187 -5.090415,-9.93248 -2.8415066,-0.29398 -5.6478475,-0.8744 -7.0284749,-1.45365 -2.63471386,-1.10542 -5.1037477,-3.29532 -6.776301,-6.01022 -1.0736098,-1.74269 -0.7527529,-1.57563 0.508142,0.26458 3.01891894,4.40595 6.5069691,6.16858 13.7201159,6.93324 1.132022,0.12001 2.296347,0.31317 2.587389,0.42925 0.444933,0.17747 0.478499,0.1486 0.210869,-0.18133 -0.175064,-0.21582 -0.270018,-0.7739 -0.211008,-1.24017 0.05901,-0.46627 -0.0061,-0.84776 -0.144722,-0.84776 -0.138608,0 -0.225554,-0.0893 -0.193214,-0.19844 0.214106,-0.72257 -3.9539897,-5.62239 -4.7827589,-5.62239 -0.1459295,0 -0.4736858,-0.20836 -0.7283472,-0.46302 -0.2546615,-0.25467 -0.5310566,-0.46773 -0.6142113,-0.47349 -0.083155,-0.006 -0.8486891,-0.27679 -1.7011875,-0.60231 -1.8659312,-0.71249 -5.32537036,-0.8097 -7.5777713,-0.21294 -0.8001686,0.212 -1.4912308,0.34908 -1.5356938,0.30461 -0.2777696,-0.27777 2.8202251,-1.00356 4.66344161,-1.09254 1.83828899,-0.0888 2.53053759,0.004 4.19045099,0.56117 3.0394919,1.02032 5.7935834,3.07295 7.5516944,5.62827 0.92324,1.34189 2.632225,4.94249 2.571309,5.41741 -0.02297,0.17905 -0.01275,0.56367 0.02271,0.85471 0.162864,1.33687 0.490135,-2.21839 0.507787,-5.51626 0.02828,-5.28299 -0.388638,-5.96916 -4.363507,-7.18157 -1.2864913,-0.3924 -2.5248165,-0.96113 -2.9515283,-1.35555 l -0.7351446,-0.67951 0.8534003,0.56682 c 0.8473359,0.56279 4.9750056,1.89947 5.1928526,1.68162 0.06255,-0.0626 0.379481,0.25949 0.70429,0.71565 0.39754,0.55829 0.67789,0.74204 0.857746,0.56218 0.357164,-0.35716 0.02561,-1.18538 -0.375342,-0.93758 -0.202724,0.12529 -0.258789,0.0553 -0.160635,-0.20046 0.275118,-0.71694 -1.115612,-4.93986 -1.7145,-5.20603 -0.10914,-0.0485 -0.198437,-0.24081 -0.198437,-0.42734 0,-0.18653 -0.261936,-0.68262 -0.582081,-1.10243 l -0.58208,-0.76329 0.610678,0.52917 c 0.335873,0.29104 0.912622,1.12448 1.281665,1.85208 0.844791,1.66559 1.921599,4.80265 1.718309,5.00594 -0.08439,0.0844 -0.03011,0.15344 0.120626,0.15344 0.347956,0 0.61243,-1.58696 0.451965,-2.71198 -0.06746,-0.47294 0.03915,-1.45521 0.2369,-2.18281 l 0.359548,-1.32292 0.196458,1.28102 c 0.108052,0.70456 0.127995,1.34948 0.04432,1.43316 -0.08368,0.0837 -0.160508,-0.1356 -0.170736,-0.48727 -0.01712,-0.58878 -0.03551,-0.59751 -0.232228,-0.11024 -0.117497,0.29104 -0.158162,1.12447 -0.09037,1.85208 0.0678,0.7276 0.01175,1.80495 -0.124551,2.39411 -0.219766,0.94996 -0.19246,1.07537 0.241257,1.10804 0.5349,0.0403 0.524904,0.15204 0.620952,-6.94173 0.03201,-2.364 0.156814,-3.41155 0.488603,-4.10105 0.245087,-0.50932 0.385699,-0.71149 0.31247,-0.44927 -0.24268,0.86898 0.384177,0.17851 1.074239,-1.18326 0.370819,-0.73177 0.738522,-1.26619 0.817118,-1.1876 0.156093,0.1561 -1.394056,2.98715 -1.759176,3.2128 -0.400593,0.24758 -0.51522,1.97691 -0.666717,10.05838 -0.165445,8.8255 -0.251176,9.81317 -0.882468,10.16646 -0.240672,0.13469 -0.363159,0.31931 -0.272194,0.41028 0.207943,0.20794 1.536266,-1.03991 2.319867,-2.17934 0.345909,-0.50298 0.723038,-0.78882 0.904003,-0.68518 0.170774,0.0978 0.222779,0.0809 0.115567,-0.0375 -0.107212,-0.11841 0.03016,-0.58399 0.305269,-1.03461 0.275109,-0.45061 1.111128,-2.00993 1.857819,-3.46513 3.298282,-6.42795 7.28578,-9.54348 12.616974,-9.85795 2.232715,-0.13171 4.067992,0.24002 4.067992,0.82395 0,0.17472 -0.417935,1.18976 -0.928745,2.25564 -1.207483,2.51959 -3.663239,5.02376 -5.996648,6.11487 -0.920461,0.4304 -3.102314,1.15396 -4.848564,1.6079 -1.74625,0.45395 -3.591719,1.08034 -4.101042,1.39199 -0.509323,0.31165 -0.945885,0.50877 -0.970139,0.43803 -0.02425,-0.0707 -0.143315,-0.0202 -0.264583,0.11226 -0.130276,0.14231 -0.07038,0.15384 0.146404,0.0282 0.20179,-0.11697 -0.127808,0.41316 -0.732439,1.17808 -1.545377,1.95505 -2.895781,4.33812 -3.198231,5.64394 -0.141531,0.61106 -0.290549,2.19728 -0.33115,3.52494 -0.06272,2.05095 -0.01414,2.3932 0.323055,2.27616 0.321254,-0.1115 0.333857,-0.0698 0.06615,0.21869 -0.406788,0.43841 -0.456877,1.01175 -0.05312,0.60799 0.152687,-0.15268 0.324283,-0.85034 0.381324,-1.55036 0.147567,-1.81093 2.112136,-5.73428 3.789281,-7.56739 0.982479,-1.07385 1.989755,-1.80464 3.642369,-2.6426 2.206849,-1.11897 2.379856,-1.1614 5.100519,-1.2508 2.26136,-0.0743 3.233197,0.0196 4.932852,0.47679 1.164167,0.31312 2.218797,0.66975 2.343624,0.7925 0.425763,0.41868 -1.534224,3.56339 -3.401957,5.45828 -2.799188,2.8399 -4.538513,3.52807 -13.014523,5.14927 -3.438465,0.65767 -4.035249,1.59787 -4.082405,6.43163 -0.01722,1.76486 -0.119979,3.56602 -0.22836,4.00259 -0.226039,0.91049 -0.08867,-7.04369 0.14007,-8.11075 0.09006,-0.4201 0.01994,-0.78316 -0.174462,-0.9033 -0.227656,-0.1407 -0.272839,-0.0649 -0.150813,0.25314 0.103488,0.26968 0.06803,0.38839 -0.08733,0.29237 -0.143854,-0.0889 -0.261553,-0.50478 -0.261553,-0.92417 0,-0.41939 -0.09396,-0.82059 -0.208811,-0.89157 -0.114845,-0.071 -0.160985,2.66043 -0.102531,6.0698 0.05845,3.40937 0.03336,6.19885 -0.05577,6.19885 -0.08913,0 -0.164802,-0.98226 -0.168164,-2.18281 z"
       id="path26796" />
    <path
       style="fill:#5c8653"
       d="m 15.637523,248.65534 c -0.08195,-2.26959 -0.305076,-3.38493 -0.81148,-4.05628 l -0.442823,-0.58706 -2.108867,0.43612 c -2.4036297,0.49708 -6.8225016,0.40678 -7.354738,-0.1503 -0.2487892,-0.2604 -0.1219555,-0.28156 0.6122462,-0.10213 1.3727413,0.33548 5.4790078,0.23133 7.1437498,-0.1812 0.800364,-0.19833 1.604036,-0.33139 1.785937,-0.29568 0.499302,0.098 0.396854,-0.61402 -0.189635,-1.31802 -0.368268,-0.44205 -0.524121,-0.50862 -0.533218,-0.22774 -0.01143,0.35277 -0.04135,0.35277 -0.269334,0 -0.141064,-0.21829 -0.256481,-0.51594 -0.256481,-0.66146 0,-0.14552 0.115417,-0.086 0.256481,0.13229 0.141064,0.21828 0.258303,0.29553 0.260532,0.17167 0.0086,-0.48068 -2.465222,-2.7684 -3.646654,-3.37225 -1.0608256,-0.54221 -1.6143446,-0.63459 -3.7576279,-0.62715 -2.2125206,0.008 -2.6878167,0.0967 -3.9687497,0.74364 -1.98408544,1.00201 -2.73605415,1.64908 -2.46558371,2.12164 0.37585859,0.65669 2.82615221,2.54812 3.72235441,2.87336 0.4729427,0.17163 0.8598958,0.40101 0.8598958,0.50973 0,0.71465 -3.58884695,-1.65471 -4.60666681,-3.04133 l -0.55270791,-0.75297 0.85983165,-0.72145 c 2.79864007,-2.34821 7.13447277,-2.91756 10.20394417,-1.3399 2.084377,1.07134 4.601945,3.95097 4.796211,5.48597 0.05643,0.4459 0.236346,1.06062 0.399811,1.36606 0.177205,0.33111 0.261613,1.48938 0.20905,2.86864 -0.06783,1.77998 -0.101373,1.94731 -0.145478,0.7258 z"
       id="path26789" />
    <path
       style="fill:#5c8653"
       d="m 16.692051,247.99213 c -0.02623,-1.38341 0.06533,-2.90936 0.203463,-3.39101 0.187803,-0.65483 0.171118,-0.84626 -0.06615,-0.75893 -0.174514,0.0642 -0.284583,0.25959 -0.244598,0.43412 0.03999,0.17452 -0.0412,0.24692 -0.180422,0.16088 -0.152365,-0.0942 -0.102963,-0.44429 0.124106,-0.87956 0.207477,-0.39772 0.377963,-0.93117 0.37886,-1.18544 0.0032,-0.92086 1.6556,-3.93326 2.902538,-5.2916 3.040401,-3.31204 7.455315,-4.62003 11.794023,-3.49417 2.180879,0.56592 2.36096,0.79639 1.686845,2.1589 -0.804537,1.62612 -3.483507,4.41689 -5.298068,5.51917 -0.874357,0.53115 -1.647667,0.90779 -1.718467,0.83699 -0.0708,-0.0708 0.442197,-0.46228 1.139994,-0.86995 2.49785,-1.45932 5.999248,-5.39776 5.506945,-6.19432 -0.09263,-0.14987 -0.01256,-0.27672 0.177933,-0.28187 0.802186,-0.0217 -1.11189,-0.77625 -2.697673,-1.06343 -3.096761,-0.56082 -6.838521,0.42206 -9.071884,2.38298 -0.538591,0.47289 -0.911261,0.96982 -0.828156,1.10428 0.0831,0.13447 -0.0066,0.21177 -0.199296,0.17179 -0.192718,-0.04 -0.31768,0.085 -0.277695,0.27769 0.03999,0.19272 -0.03683,0.2827 -0.170713,0.19996 -0.260423,-0.16095 -0.676697,0.57794 -0.601683,1.06799 0.02487,0.16249 -0.134943,0.44496 -0.355145,0.62771 -0.220203,0.18276 -0.400368,0.23799 -0.400368,0.12275 0,-0.11524 -0.297158,0.3762 -0.660351,1.09208 -0.780934,1.53929 -0.761406,1.43391 -0.265691,1.43391 0.355069,0 0.511064,-0.30959 0.330729,-0.65637 -0.09596,-0.18453 1.217899,-1.07189 1.467493,-0.99113 0.115898,0.0375 0.592148,-0.21714 1.058334,-0.56586 1.173493,-0.87783 5.477819,-3.12473 5.477819,-2.85948 0,0.11918 -1.220391,0.90702 -2.711979,1.75077 -2.583389,1.46134 -4.431771,2.88035 -4.431771,3.40228 0,0.13254 0.184778,0.17008 0.410617,0.0834 0.25553,-0.0981 0.343546,-0.049 0.233036,0.12976 -0.181616,0.29386 4.145774,0.19905 5.838638,-0.12792 0.546594,-0.10557 0.464209,-0.038 -0.264583,0.21715 -0.634606,0.22214 -2.1971,0.3786 -3.902604,0.39079 -3.984745,0.0285 -3.865467,-0.14636 -4.255558,6.23804 -0.04446,0.72761 -0.102292,0.19104 -0.128522,-1.19237 z"
       id="path26788" />
    <path
       style="fill:#5c8653"
       d="m 11.948007,254.41059 c 2.146432,-0.0445 5.658775,-0.0445 7.805208,0 2.146432,0.0445 0.39026,0.0809 -3.902604,0.0809 -4.292865,0 -6.0490365,-0.0364 -3.902604,-0.0809 z"
       id="path26458" />
    <path
       style="fill:#557749"
       d="m 14.552642,211.47147 c -0.442761,-1.73657 -1.757826,-4.63222 -2.518017,-5.54445 l -0.549639,-0.65956 0.623115,0.52727 c 1.016619,0.86025 3.097787,5.64346 2.900712,6.66678 -0.04822,0.25039 -0.253497,-0.19513 -0.456171,-0.99004 z"
       id="path26631" />
    <path
       style="fill:#557749"
       d="m 25.963914,214.59719 c 1.434158,-1.19866 2.217938,-1.73324 3.777321,-2.57632 0.987602,-0.53395 1.337542,-0.6503 0.926042,-0.3079 -0.363803,0.30272 -0.768259,0.55304 -0.898792,0.55628 -0.130534,0.003 -0.725846,0.39904 -1.322917,0.87956 -0.597071,0.48053 -1.561833,1.1385 -2.143916,1.46217 l -1.058334,0.58849 z"
       id="path26627" />
    <path
       style="fill:#557749"
       d="m 30.13811,216.41743 c 0,-0.0741 0.631357,-0.49594 1.403017,-0.93744 2.606277,-1.49116 5.293868,-4.69293 5.996878,-7.14419 0.214397,-0.74756 0.17348,-0.87936 -0.336779,-1.08487 -0.334284,-0.13463 -0.412365,-0.23932 -0.18395,-0.24664 0.992532,-0.0318 1.171995,0.39897 0.690956,1.65855 -0.698879,1.82999 -2.347717,4.21643 -3.686277,5.33533 -1.201487,1.00432 -3.883845,2.67517 -3.883845,2.41926 z"
       id="path26626" />
    <path
       style="fill:#557749"
       d="m 17.317931,218.3054 c 0.102547,-0.46689 0.766456,-2.40166 1.475354,-4.29948 0.708898,-1.89782 1.473699,-4.40308 1.699557,-5.56725 0.617881,-3.18481 0.665444,-3.37948 0.794233,-3.25069 0.215494,0.2155 -0.717178,5.07757 -1.207237,6.2934 -0.651052,1.61525 -1.722994,4.59507 -2.260515,6.28385 -0.489527,1.53801 -0.792164,1.86405 -0.501392,0.54017 z"
       id="path26623" />
    <path
       style="fill:#557749"
       d="m 16.613028,219.926 c -0.01723,-0.64272 -0.01928,-1.25175 -0.0045,-1.3534 0.01474,-0.10165 0.08276,-3.39756 0.151167,-7.32424 l 0.124373,-7.13941 0.985351,-1.40701 c 1.642813,-2.34583 1.920808,-2.41193 0.3537,-0.0841 -0.391862,0.58208 -0.780148,1.29646 -0.862857,1.5875 -0.08271,0.29104 -0.229248,4.16057 -0.32564,8.59896 -0.09639,4.43838 -0.223625,8.1194 -0.282741,8.18003 -0.05912,0.0606 -0.121582,-0.41561 -0.138815,-1.05833 z"
       id="path26621" />
    <path
       style="fill:#557749"
       d="m 17.585129,221.73398 c 0.243654,-0.40018 0.367363,-0.7276 0.274909,-0.7276 -0.09245,0 0.07599,-0.47845 0.374313,-1.06321 0.298326,-0.58477 0.58841,-1.50751 0.644632,-2.05052 0.05622,-0.54302 0.359394,-1.64216 0.673717,-2.44252 0.314323,-0.80036 0.745158,-1.94048 0.957411,-2.53359 0.212253,-0.59312 0.93477,-1.60515 1.605594,-2.24896 0.670823,-0.64382 1.118783,-0.99198 0.995467,-0.7737 -0.123317,0.21828 -0.494569,0.61141 -0.825005,0.87362 -0.724027,0.57454 -2.012067,3.23708 -2.482888,5.13244 -0.187974,0.75672 -0.44462,1.3123 -0.570325,1.23461 -0.125704,-0.0777 -0.157196,0.14305 -0.06998,0.49055 0.188905,0.75265 -0.729994,3.35991 -1.490934,4.23033 l -0.529918,0.60616 z"
       id="path26618" />
    <path
       style="fill:#557749"
       d="m 11.352694,221.57051 c -0.654844,-0.56097 -1.9049997,-1.39808 -2.7781246,-1.86025 -1.8271107,-0.96714 -3.3965135,-2.0532 -3.5353,-2.44651 -0.052644,-0.14919 0.3640744,0.0355 0.9260416,0.41041 0.5619671,0.37492 1.6170709,0.99314 2.344675,1.37381 1.4836535,0.77624 4.613482,3.04222 4.623619,3.34747 0.0132,0.39739 -0.414701,0.17411 -1.580911,-0.82493 z"
       id="path26617" />
    <path
       style="fill:#557749"
       d="m 13.858982,221.94965 c -0.267487,-0.64864 -0.586591,-1.11739 -0.709119,-1.04166 -0.122529,0.0757 -0.19535,0.0395 -0.161825,-0.0804 0.08179,-0.29267 -0.764506,-1.86561 -1.583231,-2.94262 -0.364764,-0.47984 -1.4782113,-1.47847 -2.4743268,-2.21919 -0.9961155,-0.74072 -1.8111191,-1.39695 -1.8111191,-1.45829 0,-0.41412 2.9161509,1.83616 4.2002319,3.24115 1.245509,1.36278 3.457692,5.24841 3.158429,5.54767 -0.07298,0.073 -0.351552,-0.39801 -0.61904,-1.04664 z"
       id="path26613" />
    <path
       style="fill:#557749"
       d="m 15.584136,224.42391 c -0.112337,-6.54687 -0.08638,-9.69777 0.07854,-9.53253 0.235197,0.23565 0.303847,9.26228 0.07221,9.49393 -0.08187,0.0819 -0.149704,0.0992 -0.150744,0.0386 z"
       id="path26609" />
    <path
       style="fill:#557749"
       d="m 14.721834,224.99891 c -0.192739,-0.73703 -1.674731,-1.56961 -3.095938,-1.73928 -3.4511661,-0.41202 -6.4664522,-0.96359 -7.7673917,-1.42083 -2.90022442,-1.01935 -6.1401336,-3.86252 -7.5816527,-6.65325 -0.4611792,-0.89283 -0.1802378,-0.60453 0.7264008,0.74542 2.89201416,4.3061 6.4929751,6.16832 13.3783866,6.91855 3.031228,0.33028 3.962393,0.6796 4.390656,1.64711 0.188304,0.42541 0.284955,0.83089 0.21478,0.90106 -0.07018,0.0702 -0.189534,-0.10927 -0.265241,-0.39878 z"
       id="path26607" />
    <path
       style="fill:#557749"
       d="m 26.037068,230.54386 c 3.939894,-1.00524 5.459383,-1.7472 7.425159,-3.62568 1.747034,-1.66945 3.979182,-5.15439 3.66185,-5.71707 -0.143627,-0.25467 -0.108757,-0.25701 0.157604,-0.0106 0.509334,0.47123 -1.541316,3.78666 -3.594121,5.81087 -1.981179,1.95358 -4.184505,3.07788 -7.444364,3.79867 -3.428144,0.758 -3.556399,0.59858 -0.206128,-0.25622 z"
       id="path26597" />
    <path
       style="fill:#557749"
       d="m 18.496444,231.41956 c 0,-0.51364 1.864701,-2.43243 3.237893,-3.33181 2.091788,-1.37004 8.692507,-4.62969 8.006898,-3.95408 -0.145521,0.1434 -1.365711,0.83788 -2.711534,1.54328 -5.112282,2.67957 -5.779694,3.1092 -7.276486,4.68406 -0.691224,0.72727 -1.256771,1.20362 -1.256771,1.05855 z"
       id="path26596" />
    <path
       style="fill:#557749"
       d="m 16.746208,229.07617 c 0.04967,-3.04438 0.364008,-4.07387 2.039891,-6.68073 0.415759,-0.64672 0.461448,-0.85989 0.184297,-0.85989 -0.202679,0 -0.62881,0.53578 -0.946958,1.19062 -0.318147,0.65485 -0.69906,1.19063 -0.846472,1.19063 -0.400534,0 -0.344536,-0.14057 0.57666,-1.44748 0.487561,-0.6917 1.053476,-1.19836 1.338532,-1.19836 0.271617,0 0.422606,-0.11527 0.335532,-0.25616 -0.239829,-0.38805 2.866942,-6.24864 4.389071,-8.27951 1.68664,-2.25037 2.711785,-3.27861 3.769739,-3.78114 0.817272,-0.3882 0.820251,-0.38722 0.17036,0.0558 -1.913566,1.30432 -6.085416,6.7068 -6.085416,7.88051 0,0.20223 -0.138088,0.41373 -0.306861,0.46998 -0.2256,0.0752 -0.230527,0.23869 -0.01861,0.61736 0.274808,0.49105 0.30018,0.48371 0.543881,-0.15725 0.140594,-0.36979 0.46575,-0.84604 0.72257,-1.05834 0.438085,-0.36214 0.443877,-0.34512 0.09371,0.27546 -0.20528,0.3638 -0.55183,0.89001 -0.770111,1.16934 -0.366414,0.46891 -0.35626,0.49265 0.132292,0.30937 1.1899,-0.4464 7.108431,-1.9991 7.21477,-1.89276 0.06308,0.0631 -0.403348,0.24896 -1.036501,0.41307 -3.82869,0.99237 -5.219405,1.43787 -6.027795,1.93094 -0.744092,0.45385 -0.87818,0.47639 -0.743331,0.12498 0.09049,-0.23581 -0.0097,-0.57336 -0.222677,-0.7501 -0.321097,-0.26649 -0.355908,-0.23979 -0.203894,0.15635 0.123969,0.32306 0.08561,0.41732 -0.118478,0.29118 -0.184745,-0.11417 -0.366173,0.07 -0.467797,0.47491 -0.0913,0.36379 -0.332919,0.79996 -0.536923,0.96926 -0.204004,0.16931 -0.370916,0.43077 -0.370916,0.58103 0,0.15026 0.238125,0.0577 0.529167,-0.20569 0.291041,-0.26339 0.529166,-0.63201 0.529166,-0.81915 0,-0.18714 0.117699,-0.41299 0.261553,-0.5019 0.421637,-0.26058 -0.01731,0.70226 -0.783173,1.71792 -1.017026,1.34874 -2.306494,3.45219 -2.676244,4.36562 -0.176716,0.43657 -0.410226,2.10344 -0.51891,3.70417 l -0.197608,2.91042 z"
       id="path26595" />
    <path
       style="fill:#557749"
       d="m 16.908944,232.39847 c 0,-0.15378 0.113667,-0.27959 0.252594,-0.27959 0.138927,0 0.330716,-0.44648 0.426198,-0.99219 0.09548,-0.5457 0.675826,-2.06375 1.289652,-3.37344 1.548008,-3.3029 3.191017,-5.03934 6.169456,-6.52031 l 2.313141,-1.15017 3.175,-0.038 3.175,-0.038 -3.175,0.19456 c -2.453329,0.15033 -3.475696,0.33233 -4.497917,0.80068 -2.166636,0.9927 -3.908263,2.27164 -4.936771,3.62525 -1.390953,1.83062 -2.956607,5.0752 -3.017982,6.25433 -0.03591,0.68981 -0.230896,1.13642 -0.613013,1.40406 -0.322388,0.22581 -0.560358,0.27376 -0.560358,0.11291 z"
       id="path26590" />
    <path
       style="fill:#557749"
       d="m 10.734734,232.36792 c -1.1402424,-0.70394 -2.6880549,-1.48124 -3.439583,-1.72733 -1.6425184,-0.53786 -4.5139244,-1.94469 -4.3347963,-2.12381 0.07033,-0.0703 0.9455815,0.22261 1.9450025,0.65097 0.9994209,0.42837 2.4719726,1.03859 3.2723372,1.35604 1.5169291,0.60166 4.7624996,2.63388 4.7624996,2.98205 0,0.2478 0.238177,0.37069 -2.20546,-1.13792 z"
       id="path26587" />
    <path
       style="fill:#557749"
       d="m 14.138839,233.70638 c -0.287726,-0.91867 -2.798341,-4.71544 -3.799869,-5.7465 -1.2019182,-1.23736 -3.3865535,-2.67577 -4.5016248,-2.96396 -0.5318183,-0.13746 -1.383661,-0.36781 -1.8929839,-0.5119 -0.8928652,-0.2526 -0.8833863,-0.25716 0.2645833,-0.1274 1.5901001,0.17974 4.340794,1.52111 5.7129555,2.78593 1.7863019,1.64655 4.7733369,6.20356 4.5310199,6.91249 -0.0588,0.17204 -0.200139,0.0151 -0.314081,-0.34866 z"
       id="path26585" />
    <path
       style="fill:#557749"
       d="m 15.316489,230.2003 c -0.07004,-2.43767 -0.05155,-4.43197 0.04107,-4.43177 0.302651,6.3e-4 0.363026,1.39437 0.223512,5.15972 l -0.137246,3.70417 z"
       id="path26584" />
    <path
       style="fill:#557749"
       d="m 14.413468,235.57842 c -0.575605,-0.63603 -1.452662,-0.78173 -5.1104366,-0.84894 -1.6366374,-0.0301 -2.9164406,-0.11394 -2.844007,-0.18638 0.3152594,-0.31525 6.6416336,0.006 7.3892676,0.37518 0.620039,0.30621 0.824263,0.31597 1.017147,0.0486 0.1725,-0.23909 0.200725,-0.2073 0.09895,0.11143 -0.07831,0.24526 -0.0061,0.49135 0.160447,0.54687 0.209443,0.0698 0.215764,0.15476 0.0205,0.27544 -0.155285,0.096 -0.484625,-0.049 -0.731867,-0.32224 z"
       id="path26581" />
    <path
       style="fill:#557749"
       d="m 16.693833,241.247 c -0.150686,-0.61389 -0.09374,-5.89678 0.07272,-6.74687 0.336196,-1.71685 1.308264,-2.48554 3.449679,-2.72795 l 1.322917,-0.14976 -1.407442,0.35615 c -2.663661,0.67402 -3.181326,1.65286 -3.292515,6.22573 -0.04423,1.81901 -0.109642,3.18822 -0.145362,3.0427 z"
       id="path26578" />
    <path
       style="fill:#557749"
       d="m 18.968129,241.51162 c 0.150411,-0.29104 0.552299,-0.78753 0.893083,-1.1033 0.732602,-0.67883 4.692808,-2.8492 4.87196,-2.67004 0.06814,0.0681 -0.860772,0.69053 -2.064236,1.38311 -1.203465,0.69258 -2.590004,1.63278 -3.0812,2.08932 -0.600311,0.55796 -0.803431,0.6566 -0.619607,0.30091 z"
       id="path26575" />
    <path
       style="fill:#557749"
       d="m 16.91832,242.10133 c -0.0052,-0.1122 0.375636,-1.00517 0.846207,-1.98437 1.612546,-3.35553 4.866549,-5.94106 8.442182,-6.70789 2.241932,-0.48081 6.360561,0.0436 7.283067,0.92737 0.817148,0.78282 -2.355937,4.83666 -5.273907,6.73779 -0.927589,0.60435 -1.797288,1.09632 -1.932663,1.09326 -0.135376,-0.003 0.51021,-0.48995 1.434634,-1.082 2.462096,-1.57683 5.177017,-4.57132 5.455475,-6.01723 0.150901,-0.78357 -1.148457,-1.30248 -3.819119,-1.5252 -3.080723,-0.25692 -5.98338,0.68802 -8.235994,2.68119 -1.19065,1.05352 -2.534768,2.77813 -3.020024,3.87494 -0.502806,1.13647 -1.167783,2.2649 -1.179858,2.00214 z"
       id="path26571" />
    <path
       style="fill:#557749"
       d="m 14.190423,242.24457 c -1.780994,-2.61546 -4.018809,-4.21898 -6.2579327,-4.48417 -0.7467633,-0.0884 -1.4092507,-0.24414 -1.4721942,-0.34598 -0.1941374,-0.31412 2.8215809,0.25801 3.8185429,0.72444 1.486096,0.69527 5.14423,4.54992 4.720289,4.97386 -0.07118,0.0712 -0.435094,-0.31949 -0.808705,-0.86815 z"
       id="path26567" />
    <path
       style="fill:#557749"
       d="m 1.5421164,242.63607 c -0.61625587,-0.47295 -1.36965229,-1.19766 -1.67421423,-1.61049 l -0.55374899,-0.75058 0.79374996,-0.65341 c 0.91353816,-0.75201 3.30454536,-2.0374 3.47422646,-1.86772 0.062875,0.0629 -0.5145108,0.43511 -1.2830793,0.82719 -0.7685684,0.39209 -1.67880677,0.94423 -2.02275179,1.22698 -0.59121109,0.48604 -0.60234273,0.54923 -0.20388125,1.15736 0.23181033,0.35378 0.87040738,0.97203 1.41910454,1.37387 1.2961876,0.94927 1.5357059,1.15669 1.3356997,1.15669 -0.090552,0 -0.6688491,-0.38695 -1.2851051,-0.85989 z"
       id="path26566" />
    <path
       style="fill:#557749"
       d="m 17.70544,243.19825 c 0.63562,-0.60129 0.789333,-0.62295 3.571874,-0.50342 l 2.907671,0.12491 -3.069677,0.13967 c -1.984214,0.0903 -3.247259,0.2683 -3.571875,0.50342 -0.276209,0.20006 -0.203306,0.081 0.162007,-0.26458 z"
       id="path26565" />
    <path
       style="fill:#557749"
       d="m 15.535899,240.69072 c -0.04519,-1.68841 0.0053,-3.20645 0.112223,-3.37344 0.106912,-0.16698 0.196209,1.21444 0.198437,3.06983 0.0022,1.85539 -0.04827,3.37344 -0.112222,3.37344 -0.06395,0 -0.153247,-1.38143 -0.198438,-3.06983 z"
       id="path26564" />
    <path
       style="fill:#557749"
       d="m 11.948007,254.41059 c 2.146432,-0.0445 5.658775,-0.0445 7.805208,0 2.146432,0.0445 0.39026,0.0809 -3.902604,0.0809 -4.292865,0 -6.0490365,-0.0364 -3.902604,-0.0809 z"
       id="path26457" />
    <path
       style="fill:#497137"
       d="m 16.904214,208.70326 c -0.175661,-4.00785 -0.08556,-4.61447 0.845472,-5.69202 l 0.797114,-0.92257 -0.62049,0.92595 c -0.559246,0.83456 -0.634016,1.30464 -0.757513,4.7625 l -0.137022,3.83655 z"
       id="path26499" />
    <path
       style="fill:#497137"
       d="m 18.761027,214.22148 c 0,-0.14218 0.30048,-1.02523 0.667733,-1.96233 0.367253,-0.93709 0.904784,-2.88626 1.194513,-4.33148 0.289729,-1.44522 0.59518,-2.69538 0.67878,-2.77813 0.162877,-0.16122 -0.0071,0.93319 -0.572526,3.68601 -0.478454,2.32944 -1.9685,6.40629 -1.9685,5.38593 z"
       id="path26498" />
    <path
       style="fill:#497137"
       d="m 32.122485,215.26313 c 0.145521,-0.13847 0.819522,-0.69448 1.497782,-1.23557 0.678259,-0.54108 1.686244,-1.66275 2.239966,-2.49259 1.33976,-2.00784 1.635675,-2.29798 0.864198,-0.84734 -0.699056,1.31446 -3.171612,3.95178 -4.205652,4.48591 -0.363483,0.18775 -0.541815,0.22807 -0.396294,0.0896 z"
       id="path26496" />
    <path
       style="fill:#497137"
       d="m 15.640192,219.28657 c -0.03377,-1.89177 -0.122654,-3.73724 -0.197533,-4.10104 l -0.136142,-0.66146 0.279427,0.63831 c 0.164827,0.37652 0.24584,2.05847 0.197532,4.10104 l -0.08189,3.46273 z"
       id="path26494" />
    <path
       style="fill:#497137"
       d="m 14.006057,222.2198 c -0.589872,-1.78733 -2.83199,-4.85141 -4.4949774,-6.14283 -1.7199566,-1.33567 -2.1387013,-1.8275 -0.7380728,-0.86689 1.3623502,0.93435 2.2969952,1.85326 3.4290052,3.37128 1.090357,1.46216 2.480101,4.21086 2.246913,4.44405 -0.07319,0.0732 -0.272482,-0.28933 -0.442868,-0.80561 z"
       id="path26493" />
    <path
       style="fill:#497137"
       d="m 19.146792,230.67044 c 0.61891,-0.97809 1.080899,-1.45038 2.260068,-2.31047 1.049738,-0.76568 6.6239,-3.72832 6.75955,-3.59267 0.04876,0.0488 -1.524649,0.97866 -3.496461,2.06646 -2.584328,1.4257 -3.925117,2.3471 -4.803116,3.30072 -0.723793,0.78614 -1.015953,1.00361 -0.720041,0.53596 z"
       id="path26487" />
    <path
       style="fill:#497137"
       d="m 10.823528,232.30304 c -1.3479882,-0.79135 -2.2597728,-1.21799 -5.2282184,-2.44636 -0.6199471,-0.25654 -1.0811721,-0.51244 -1.0249445,-0.56867 0.056228,-0.0562 0.5039258,0.0691 0.9948849,0.27853 4.4339663,1.89127 5.494411,2.39905 6.184319,2.96124 1.054762,0.8595 0.82648,0.8041 -0.926041,-0.22474 z"
       id="path26484" />
    <path
       style="fill:#497137"
       d="m 16.754814,236.74909 c 0.01948,-2.35991 0.09022,-2.73697 0.654664,-3.48917 0.635434,-0.84681 2.016506,-1.62261 2.330172,-1.30895 0.09235,0.0923 -0.01448,0.16791 -0.237386,0.16791 -0.622266,0 -1.744442,0.99317 -2.184418,1.93329 -0.218278,0.46641 -0.437821,1.85221 -0.490126,3.09379 -0.08738,2.07405 -0.09305,2.04319 -0.07291,-0.39687 z"
       id="path26482" />
    <path
       style="fill:#497137"
       d="m 19.712207,240.55636 c 0.40828,-0.45229 3.355472,-2.15322 4.472778,-2.5814 0.738934,-0.28318 -0.441676,0.53819 -1.852083,1.28852 -0.873125,0.46451 -1.833299,1.07105 -2.133719,1.34789 -0.740747,0.6826 -1.114685,0.64035 -0.486976,-0.055 z"
       id="path26481" />
  </g>
</svg>
