<?xml version="1.0" encoding="UTF-8" standalone="no"?>
<!-- Created with Inkscape (http://www.inkscape.org/) -->

<svg
   width="185"
   height="185"
   viewBox="0 0 48.947914 48.947918"
   version="1.1"
   id="svg1"
   xmlns="http://www.w3.org/2000/svg"
   xmlns:svg="http://www.w3.org/2000/svg">
  <defs
     id="defs1" />
  <g
     id="g27008"
     transform="matrix(0.67079252,0,0,0.67079252,-105.86747,-122.00806)">
    <path
       style="fill:#9ab293"
       d="m 185.80825,254.47479 c -0.0883,-0.23008 -0.11605,-0.45576 -0.0617,-0.50153 1.82238,-1.53437 5.58305,-3.06896 7.52082,-3.06896 h 0.91239 l -0.0115,-2.18282 c -0.0151,-2.86423 -0.337,-4.43936 -1.02022,-4.9926 -0.47494,-0.38459 -0.99572,-0.42735 -3.69173,-0.30314 -4.00586,0.18457 -6.06105,-0.35859 -8.56351,-2.26321 -1.82699,-1.39052 -3.98619,-4.28828 -3.85754,-5.17702 0.18407,-1.27164 3.80805,-2.40919 7.13924,-2.24097 3.75257,0.18949 6.83573,2.41499 9.06819,6.54563 l 0.94613,1.75058 -0.0707,-3.62144 c -0.0701,-3.59403 -0.0765,-3.6275 -0.83763,-4.42118 -0.82662,-0.86196 -1.96664,-1.18024 -5.31845,-1.48487 -4.3166,-0.39231 -7.30772,-1.72828 -9.73194,-4.34674 -1.44234,-1.55789 -3.36493,-4.91049 -3.36493,-5.86773 0,-0.67612 0.97237,-0.89553 3.96875,-0.89553 3.61734,0 6.07589,0.81765 8.94995,2.97656 1.56088,1.17248 1.8221,1.08056 0.595,-0.20938 -0.55944,-0.5881 -2.03124,-2.5824 -3.27065,-4.43177 -2.1628,-3.2272 -2.3185,-3.39231 -3.86969,-4.10349 -0.88892,-0.40755 -1.80433,-1.02809 -2.03424,-1.37899 -0.63078,-0.96268 -0.74971,-2.51716 -0.27882,-3.64417 0.38367,-0.91824 0.48529,-0.98266 1.54859,-0.98173 2.26298,0.002 4.23032,2.10749 4.32542,4.62922 0.0274,0.7276 0.21115,1.6801 0.40825,2.11666 0.51489,1.14046 3.19217,5.15938 3.43701,5.15938 0.11352,0 0.0957,-0.38617 -0.0397,-0.85815 -0.30996,-1.08077 -0.31222,-3.1257 -0.004,-3.61249 0.39529,-0.62428 2.13925,0.24687 3.04648,1.52178 0.68209,0.95853 0.76945,1.29315 0.72822,2.7894 -0.0276,1.00055 -0.25922,2.19566 -0.56293,2.9042 l -0.5161,1.204 1.30923,2.77556 c 0.72007,1.52656 1.32141,3.04911 1.33631,3.38344 0.0195,0.43767 0.0867,0.35505 0.23997,-0.29505 0.26037,-1.10437 0.35063,-15.91285 0.10629,-17.44084 -0.21835,-1.36547 -1.17495,-2.36433 -2.45352,-2.56191 -6.76998,-1.04615 -9.47237,-3.11159 -11.01528,-8.41902 -0.67579,-2.32464 -0.62315,-2.36836 2.71345,-2.25374 2.42882,0.0834 3.05267,0.20106 4.29659,0.81008 0.80036,0.39186 1.89304,1.16473 2.42818,1.7175 1.11218,1.14883 2.92287,4.40535 3.42753,6.1644 l 0.34158,1.19063 0.18239,-2.24896 c 0.52178,-6.43403 0.34151,-6.96126 -2.97951,-8.71408 -1.25861,-0.66429 -2.51414,-1.38639 -2.79006,-1.60467 -1.50683,-1.19202 -2.67416,-3.71312 -3.11163,-6.7202 l -0.18858,-1.29625 1.28178,0.15181 c 3.76871,0.44635 6.73761,2.65717 7.57472,5.6406 0.2465,0.87851 0.45,1.82761 0.45223,2.10911 0.003,0.41281 0.0509,0.4377 0.24645,0.12867 0.46808,-0.73988 0.0672,-4.19351 -0.62548,-5.38874 -1.48774,-2.5671 -1.77944,-5.43136 -0.75909,-7.4538 0.50254,-0.99609 1.39547,-1.98786 1.78975,-1.98786 0.53345,0 1.94823,1.68652 2.55244,3.0427 0.8261,1.85422 0.75659,3.30919 -0.27178,5.68854 -0.68696,1.58943 -0.87846,2.43199 -0.96218,4.23334 l -0.10452,2.24896 0.33439,-1.7198 c 0.87167,-4.48311 4.47607,-7.96733 8.31917,-8.04178 1.9188,-0.0372 2.14164,0.29947 1.67969,2.53752 -0.83618,4.05104 -2.59268,6.05259 -6.80399,7.75322 -3.49715,1.41224 -3.6381,1.67677 -3.73579,7.01146 l -0.0703,3.83646 0.52738,-1.7926 c 1.35315,-4.59947 4.64754,-7.28187 9.24864,-7.53057 1.30354,-0.0705 2.56716,-9.3e-4 2.99088,0.16458 0.87333,0.34113 0.82139,0.8332 -0.35234,3.33776 -1.52306,3.24997 -3.77315,5.06797 -7.38515,5.96695 -1.21185,0.30161 -2.63058,0.74954 -3.15272,0.9954 -1.62444,0.76489 -1.73418,1.26461 -1.88204,8.56945 -0.0728,3.59478 -0.0634,6.45228 0.0207,6.35 0.5396,-0.65578 1.81626,-4.41824 1.94843,-5.74222 0.22162,-2.2201 1.122,-4.78089 2.0543,-5.84272 0.51688,-0.5887 1.25186,-1.03595 2.13186,-1.29728 0.73865,-0.21935 1.36415,-0.36947 1.38999,-0.33358 0.21391,0.29705 0.59363,3.15996 0.47785,3.60271 -0.2168,0.82904 0.10209,0.68588 0.59488,-0.26707 0.32247,-0.6236 0.38527,-1.185 0.25193,-2.25221 -0.24237,-1.93988 0.17445,-3.10435 1.30286,-3.63982 1.15884,-0.5499 1.52176,-0.53143 2.34936,0.11956 0.68136,0.53595 1.15145,1.95951 1.001,3.03124 -0.10203,0.72684 -1.56733,2.23402 -2.60459,2.67904 -0.5333,0.2288 -1.05457,0.75745 -1.38441,1.40398 -0.57028,1.11786 -2.61198,3.28504 -5.19587,5.51523 -0.88814,0.76656 -1.92138,1.95703 -2.29608,2.64549 -0.6831,1.25507 -1.77766,4.77019 -1.77766,5.70886 0,0.7894 0.7218,0.0452 0.9422,-0.9714 0.3394,-1.5655 2.19047,-4.85368 3.6046,-6.40308 1.85635,-2.03392 4.01025,-3.04708 6.96258,-3.27509 2.32611,-0.17965 4.71867,0.11067 5.58462,0.67765 0.55567,0.36383 0.55378,0.37277 -0.56598,2.67448 -1.28043,2.63198 -2.49586,4.15189 -4.24847,5.31277 -1.42783,0.94575 -4.4386,1.9901 -7.30033,2.53227 -2.39073,0.45294 -3.34771,0.90042 -4.27022,1.99676 -0.73702,0.87591 -0.90288,1.72714 -1.05151,5.3968 l -0.095,2.34583 0.60989,-1.20006 c 0.94208,-1.8537 3.35506,-4.29561 5.02571,-5.08595 1.95292,-0.92388 4.43713,-1.12091 6.69231,-0.53079 1.83252,0.47953 3.72004,1.33835 3.72004,1.69261 0,0.54566 -2.14673,3.45672 -3.29353,4.46617 -2.58625,2.27651 -5.64178,3.21492 -9.05866,2.78209 -1.13718,-0.14406 -2.25963,-0.1635 -2.49433,-0.0432 -0.69347,0.35541 -0.98944,1.52998 -1.09748,4.3555 l -0.10176,2.66136 2.09054,0.43228 c 2.18424,0.45165 4.88837,1.58499 6.01772,2.52211 1.37953,1.14471 0.72024,1.24156 -9.01321,1.32406 -7.99451,0.0678 -9.0051,0.03 -9.14789,-0.34214 z"
       id="path26994" />
    <path
       style="fill:#668e9b"
       d="m 186.27191,254.58671 c -0.59407,-0.23768 -0.60557,-0.28178 -0.19262,-0.73809 0.71772,-0.79308 2.80892,-1.81085 4.92634,-2.39761 1.09093,-0.30232 2.01328,-0.549 2.04966,-0.54819 1.25659,0.028 1.18702,0.22989 1.0862,-3.15227 -0.0875,-2.93404 -0.14007,-3.20276 -0.75515,-3.85743 -0.65596,-0.69817 -0.68188,-0.70228 -3.30729,-0.52405 -4.51204,0.30632 -7.25604,-0.52988 -10.00887,-3.05006 -1.44945,-1.32696 -3.08031,-3.67545 -3.08584,-4.44372 -0.001,-0.18955 0.79862,-0.71951 1.77775,-1.1777 1.63378,-0.76454 2.00926,-0.83414 4.56406,-0.846 2.74192,-0.0127 2.81302,0.003 4.72332,1.02321 2.16789,1.15816 3.78783,2.90231 5.08822,5.47837 1.27473,2.52522 1.40959,2.34084 1.19363,-1.63193 -0.11986,-2.20501 -0.33517,-3.80873 -0.57313,-4.26887 -0.56153,-1.08589 -1.71692,-1.5531 -4.56939,-1.84777 -6.54181,-0.67579 -9.64994,-2.26127 -12.32693,-6.28803 -1.31505,-1.97813 -2.22576,-4.1106 -1.89654,-4.44083 0.35904,-0.36013 5.76843,-0.41222 7.30819,-0.0704 2.04636,0.45432 4.2131,1.61127 6.2437,3.33388 1.9345,1.64109 1.76565,1.07354 -0.41304,-1.38831 -0.66025,-0.74606 -2.09342,-2.72577 -3.18483,-4.39935 -1.8634,-2.85738 -2.08061,-3.08922 -3.56289,-3.8029 -1.94543,-0.93668 -2.61072,-1.79669 -2.61072,-3.37486 0,-2.42493 1.44427,-3.19138 3.65468,-1.93947 1.41248,0.79998 2.2444,2.3084 2.25,4.07965 0.003,1.06083 0.19388,1.69935 0.82898,2.77812 0.92825,1.57669 2.84085,4.39496 3.34256,4.92534 0.1819,0.19229 0.33072,0.48003 0.33072,0.63941 0,0.15938 0.0598,0.22994 0.13298,0.1568 0.0731,-0.0731 -0.10287,-0.81849 -0.39114,-1.65634 -0.4088,-1.18821 -0.47962,-1.82353 -0.32189,-2.88768 0.22411,-1.51201 0.60347,-1.65746 1.90297,-0.72961 1.88069,1.34281 2.35459,3.69091 1.30895,6.48562 l -0.54312,1.45165 1.0394,2.1963 c 0.57167,1.20797 1.19757,2.67255 1.39089,3.25463 0.19332,0.58209 0.43763,1.16284 0.54292,1.29055 0.10529,0.12772 0.20403,-3.94446 0.21942,-9.0493 0.0356,-11.80893 0.16137,-11.41472 -3.86312,-12.1087 -3.06811,-0.52906 -5.59666,-1.6965 -7.05783,-3.25861 -1.43011,-1.5289 -2.56289,-3.89155 -2.7541,-5.74425 l -0.14702,-1.42448 h 2.28041 c 3.27188,0 5.3352,0.72387 7.13325,2.50252 1.33947,1.32501 2.84353,3.95276 3.64091,6.36103 l 0.35041,1.05833 0.22268,-1.19063 c 0.12248,-0.65484 0.18888,-2.63702 0.14755,-4.40484 -0.0899,-3.84532 -0.0767,-3.82402 -3.4424,-5.56233 -2.66305,-1.37541 -3.89854,-2.62906 -4.69875,-4.76782 -0.6069,-1.62208 -0.97342,-4.17507 -0.62988,-4.38739 0.12768,-0.0789 0.87933,-0.0258 1.67034,0.11793 2.50464,0.45523 5.16257,2.10261 5.99753,3.71725 0.5293,1.02355 1.1538,3.08912 1.15745,3.82836 0.002,0.31883 0.13641,0.66224 0.29964,0.76312 0.2148,0.13275 0.26185,-0.53901 0.17033,-2.43178 -0.11432,-2.36414 -0.21266,-2.7676 -1.02439,-4.2027 -0.83996,-1.48503 -0.89793,-1.74396 -0.89793,-4.01115 0,-2.26605 0.0516,-2.49696 0.79375,-3.55094 0.43657,-0.62001 0.94741,-1.17801 1.13522,-1.24 0.49522,-0.16346 2.15055,1.69821 2.75659,3.10021 0.71215,1.64746 0.53913,3.58218 -0.53753,6.01081 -0.75236,1.69707 -0.83723,2.14209 -0.80742,4.23333 l 0.0333,2.3369 0.31138,-1.85208 c 0.53606,-3.18852 2.70818,-6.39182 5.21535,-7.69128 0.81446,-0.42214 3.25308,-0.82635 4.16651,-0.69062 0.61548,0.0915 0.62769,0.1423 0.47412,1.97402 -0.29204,3.48349 -2.01333,6.0085 -5.07461,7.44409 -2.28082,1.0696 -3.24669,1.47733 -3.4996,1.47733 -0.51814,0 -1.36944,1.24268 -1.63129,2.38125 -0.15059,0.65484 -0.31196,2.84968 -0.3586,4.87742 l -0.0848,3.6868 0.70044,-2.27413 c 0.38525,-1.25077 0.95564,-2.68703 1.26754,-3.19169 0.74264,-1.20163 2.63144,-2.92885 3.91072,-3.57617 1.93862,-0.98096 5.35898,-1.40797 6.82209,-0.85169 0.93871,0.35689 0.87717,1.1262 -0.2742,3.42766 -1.63594,3.27005 -3.67612,4.89681 -7.26651,5.79403 -1.08305,0.27065 -2.5231,0.73712 -3.20013,1.0366 -1.16511,0.51538 -1.24631,0.62021 -1.51775,1.95941 -0.15773,0.77818 -0.3177,4.39145 -0.35548,8.02947 -0.0378,3.63802 -0.0291,6.33487 0.0193,5.99301 0.0484,-0.34187 0.45008,-1.47296 0.89265,-2.51354 0.44256,-1.04059 0.91685,-2.60635 1.05398,-3.47947 0.52908,-3.36884 0.77927,-4.27881 1.54422,-5.61668 0.80203,-1.40271 1.57285,-1.9808 3.07104,-2.3032 0.75814,-0.16315 0.85431,-0.10593 1.12448,0.66907 0.16249,0.46612 0.29939,1.39526 0.30423,2.06477 l 0.009,1.21729 0.52237,-0.62711 c 0.44346,-0.53237 0.51208,-0.96221 0.45422,-2.84515 -0.0663,-2.15727 -0.0471,-2.23613 0.7006,-2.87862 0.74542,-0.64052 1.77985,-0.83357 2.65897,-0.49623 0.60217,0.23108 1.20248,1.5 1.20248,2.54176 0,1.1678 -0.56497,1.91662 -2.26803,3.00605 -0.85106,0.54441 -1.57954,1.25695 -1.83459,1.79442 -0.3773,0.79511 -3.61697,4.12945 -5.86539,6.03679 -1.19157,1.01082 -2.075,2.66658 -2.72629,5.10975 -0.31034,1.16417 -0.66636,2.44409 -0.79116,2.84428 -0.23736,0.76112 -0.002,0.96227 0.46428,0.39687 0.15003,-0.1819 0.59742,-1.14296 0.99419,-2.13569 2.48299,-6.21243 5.5542,-8.83542 10.68599,-9.12643 1.94138,-0.1101 4.61254,0.29657 5.23107,0.79638 0.24386,0.19706 0.1949,0.56995 -0.20955,1.59606 -1.02664,2.6046 -2.53799,4.62519 -4.60638,6.15848 -1.14892,0.85169 -4.10397,1.89287 -7.13215,2.51295 -1.44873,0.29665 -2.87748,0.70318 -3.175,0.90339 -0.95751,0.64433 -1.75758,1.51162 -2.01215,2.1812 -0.28326,0.74503 -0.67416,6.70481 -0.43977,6.70481 0.0847,0 0.42154,-0.53558 0.74846,-1.19018 0.8613,-1.72458 2.87792,-3.871 4.43119,-4.7164 2.58829,-1.40872 5.9166,-1.43789 9.25364,-0.0811 1.7867,0.72645 1.81484,0.93404 0.40462,2.98501 -1.30024,1.89101 -2.69336,3.08057 -4.85203,4.14307 -1.6602,0.81716 -1.82794,0.8447 -5.28026,0.86694 -4.54622,0.0293 -4.48607,-0.0274 -4.70569,4.43207 l -0.15197,3.08559 h 0.90977 c 1.44837,0 3.86573,0.7304 5.8252,1.76007 1.86473,0.97989 2.18663,1.4595 1.29856,1.93478 -0.65604,0.3511 -16.56998,0.33976 -17.45025,-0.0124 z"
       id="path26986" />
    <path
       style="fill:#8b956c"
       d="m 186.27191,254.58671 c -0.59407,-0.23768 -0.60557,-0.28178 -0.19262,-0.73809 0.71772,-0.79308 2.80892,-1.81085 4.92634,-2.39761 1.09093,-0.30232 2.01328,-0.549 2.04966,-0.54819 1.25659,0.028 1.18702,0.22989 1.0862,-3.15227 -0.0875,-2.93404 -0.14007,-3.20276 -0.75515,-3.85743 -0.65596,-0.69817 -0.68188,-0.70228 -3.30729,-0.52405 -4.51204,0.30632 -7.25604,-0.52988 -10.00887,-3.05006 -1.44945,-1.32696 -3.08031,-3.67545 -3.08584,-4.44372 -0.001,-0.18955 0.79862,-0.71951 1.77775,-1.1777 1.63378,-0.76454 2.00926,-0.83414 4.56406,-0.846 2.74192,-0.0127 2.81302,0.003 4.72332,1.02321 2.16789,1.15816 3.78783,2.90231 5.08822,5.47837 1.27473,2.52522 1.40959,2.34084 1.19363,-1.63193 -0.11986,-2.20501 -0.33517,-3.80873 -0.57313,-4.26887 -0.56153,-1.08589 -1.71692,-1.5531 -4.56939,-1.84777 -6.54181,-0.67579 -9.64994,-2.26127 -12.32693,-6.28803 -1.31505,-1.97813 -2.22576,-4.1106 -1.89654,-4.44083 0.35904,-0.36013 5.76843,-0.41222 7.30819,-0.0704 2.04636,0.45432 4.2131,1.61127 6.2437,3.33388 1.9345,1.64109 1.76565,1.07354 -0.41304,-1.38831 -0.66025,-0.74606 -2.09342,-2.72577 -3.18483,-4.39935 -1.8634,-2.85738 -2.08061,-3.08922 -3.56289,-3.8029 -1.94543,-0.93668 -2.61072,-1.79669 -2.61072,-3.37486 0,-2.42493 1.44427,-3.19138 3.65468,-1.93947 1.41248,0.79998 2.2444,2.3084 2.25,4.07965 0.003,1.06083 0.19388,1.69935 0.82898,2.77812 0.92825,1.57669 2.84085,4.39496 3.34256,4.92534 0.1819,0.19229 0.33072,0.48003 0.33072,0.63941 0,0.15938 0.0598,0.22994 0.13298,0.1568 0.0731,-0.0731 -0.10287,-0.81849 -0.39114,-1.65634 -0.4088,-1.18821 -0.47962,-1.82353 -0.32189,-2.88768 0.22411,-1.51201 0.60347,-1.65746 1.90297,-0.72961 1.88069,1.34281 2.35459,3.69091 1.30895,6.48562 l -0.54312,1.45165 1.0394,2.1963 c 0.57167,1.20797 1.19757,2.67255 1.39089,3.25463 0.19332,0.58209 0.43763,1.16284 0.54292,1.29055 0.10529,0.12772 0.20403,-3.94446 0.21942,-9.0493 0.0356,-11.80893 0.16137,-11.41472 -3.86312,-12.1087 -3.06811,-0.52906 -5.59666,-1.6965 -7.05783,-3.25861 -1.43011,-1.5289 -2.56289,-3.89155 -2.7541,-5.74425 l -0.14702,-1.42448 h 2.28041 c 3.27188,0 5.3352,0.72387 7.13325,2.50252 1.33947,1.32501 2.84353,3.95276 3.64091,6.36103 l 0.35041,1.05833 0.22268,-1.19063 c 0.12248,-0.65484 0.18888,-2.63702 0.14755,-4.40484 -0.0899,-3.84532 -0.0767,-3.82402 -3.4424,-5.56233 -2.66305,-1.37541 -3.89854,-2.62906 -4.69875,-4.76782 -0.6069,-1.62208 -0.97342,-4.17507 -0.62988,-4.38739 0.12768,-0.0789 0.87933,-0.0258 1.67034,0.11793 2.50464,0.45523 5.16257,2.10261 5.99753,3.71725 0.5293,1.02355 1.1538,3.08912 1.15745,3.82836 0.002,0.31883 0.13641,0.66224 0.29964,0.76312 0.2148,0.13275 0.26185,-0.53901 0.17033,-2.43178 -0.11432,-2.36414 -0.21266,-2.7676 -1.02439,-4.2027 -0.83996,-1.48503 -0.89793,-1.74396 -0.89793,-4.01115 0,-2.26605 0.0516,-2.49696 0.79375,-3.55094 0.43657,-0.62001 0.94741,-1.17801 1.13522,-1.24 0.49522,-0.16346 2.15055,1.69821 2.75659,3.10021 0.71215,1.64746 0.53913,3.58218 -0.53753,6.01081 -0.75236,1.69707 -0.83723,2.14209 -0.80742,4.23333 l 0.0333,2.3369 0.31138,-1.85208 c 0.53606,-3.18852 2.70818,-6.39182 5.21535,-7.69128 0.81446,-0.42214 3.25308,-0.82635 4.16651,-0.69062 0.61548,0.0915 0.62769,0.1423 0.47412,1.97402 -0.29204,3.48349 -2.01333,6.0085 -5.07461,7.44409 -2.28082,1.0696 -3.24669,1.47733 -3.4996,1.47733 -0.51814,0 -1.36944,1.24268 -1.63129,2.38125 -0.15059,0.65484 -0.31196,2.84968 -0.3586,4.87742 l -0.0848,3.6868 0.70044,-2.27413 c 0.38525,-1.25077 0.95564,-2.68703 1.26754,-3.19169 0.74264,-1.20163 2.63144,-2.92885 3.91072,-3.57617 1.93862,-0.98096 5.35898,-1.40797 6.82209,-0.85169 0.93871,0.35689 0.87717,1.1262 -0.2742,3.42766 -1.63594,3.27005 -3.67612,4.89681 -7.26651,5.79403 -1.08305,0.27065 -2.5231,0.73712 -3.20013,1.0366 -1.16511,0.51538 -1.24631,0.62021 -1.51775,1.95941 -0.15773,0.77818 -0.3177,4.39145 -0.35548,8.02947 -0.0378,3.63802 -0.0291,6.33487 0.0193,5.99301 0.0484,-0.34187 0.45008,-1.47296 0.89265,-2.51354 0.44256,-1.04059 0.91685,-2.60635 1.05398,-3.47947 0.52908,-3.36884 0.77927,-4.27881 1.54422,-5.61668 0.80203,-1.40271 1.57285,-1.9808 3.07104,-2.3032 0.75814,-0.16315 0.85431,-0.10593 1.12448,0.66907 0.16249,0.46612 0.29939,1.39526 0.30423,2.06477 l 0.009,1.21729 0.52237,-0.62711 c 0.44346,-0.53237 0.51208,-0.96221 0.45422,-2.84515 -0.0663,-2.15727 -0.0471,-2.23613 0.7006,-2.87862 0.74542,-0.64052 1.77985,-0.83357 2.65897,-0.49623 0.60217,0.23108 1.20248,1.5 1.20248,2.54176 0,1.1678 -0.56497,1.91662 -2.26803,3.00605 -0.85106,0.54441 -1.57954,1.25695 -1.83459,1.79442 -0.3773,0.79511 -3.61697,4.12945 -5.86539,6.03679 -1.19157,1.01082 -2.075,2.66658 -2.72629,5.10975 -0.31034,1.16417 -0.66636,2.44409 -0.79116,2.84428 -0.23736,0.76112 -0.002,0.96227 0.46428,0.39687 0.15003,-0.1819 0.59742,-1.14296 0.99419,-2.13569 2.48299,-6.21243 5.5542,-8.83542 10.68599,-9.12643 1.94138,-0.1101 4.61254,0.29657 5.23107,0.79638 0.24386,0.19706 0.1949,0.56995 -0.20955,1.59606 -1.02664,2.6046 -2.53799,4.62519 -4.60638,6.15848 -1.14892,0.85169 -4.10397,1.89287 -7.13215,2.51295 -1.44873,0.29665 -2.87748,0.70318 -3.175,0.90339 -0.95751,0.64433 -1.75758,1.51162 -2.01215,2.1812 -0.28326,0.74503 -0.67416,6.70481 -0.43977,6.70481 0.0847,0 0.42154,-0.53558 0.74846,-1.19018 0.8613,-1.72458 2.87792,-3.871 4.43119,-4.7164 2.58829,-1.40872 5.9166,-1.43789 9.25364,-0.0811 1.7867,0.72645 1.81484,0.93404 0.40462,2.98501 -1.30024,1.89101 -2.69336,3.08057 -4.85203,4.14307 -1.6602,0.81716 -1.82794,0.8447 -5.28026,0.86694 -4.54622,0.0293 -4.48607,-0.0274 -4.70569,4.43207 l -0.15197,3.08559 h 0.90977 c 1.44837,0 3.86573,0.7304 5.8252,1.76007 1.86473,0.97989 2.18663,1.4595 1.29856,1.93478 -0.65604,0.3511 -16.56998,0.33976 -17.45025,-0.0124 z"
       id="path26971" />
    <path
       style="fill:#6d9464"
       d="m 185.97769,254.39687 c 0,-0.41905 1.46293,-1.61564 2.51354,-2.05591 1.36996,-0.5741 3.14574,-1.08101 4.5856,-1.30898 l 1.14603,-0.18146 -0.0877,-3.12758 c -0.0816,-2.90915 -0.13389,-3.17713 -0.74915,-3.83718 -0.64755,-0.69468 -0.71371,-0.70677 -3.14661,-0.57499 -3.15648,0.17097 -5.60537,-0.17124 -7.37051,-1.02998 -2.44858,-1.19123 -5.12259,-4.03709 -5.73904,-6.10787 -0.15039,-0.50518 0.0491,-0.68148 1.61899,-1.43072 1.64996,-0.78745 2.00918,-0.85646 4.57582,-0.87902 2.74573,-0.0241 2.81243,-0.01 4.69397,0.99545 2.20669,1.17918 3.76276,2.8887 5.3055,5.82867 l 0.98792,1.88264 0.0866,-1.5875 c 0.1585,-2.90524 -0.20924,-5.86041 -0.84727,-6.80859 -0.73053,-1.08565 -1.64852,-1.38724 -5.32476,-1.74936 -6.43096,-0.63347 -10.03089,-2.99463 -12.52153,-8.21273 -0.8955,-1.87616 -0.91299,-1.96841 -0.43885,-2.31511 0.80122,-0.58586 5.76583,-0.48214 7.85837,0.16418 1.86463,0.57592 4.27318,2.02264 5.85177,3.51492 0.55789,0.52738 1.20374,1.11401 1.43522,1.30362 0.58196,0.47667 -1.09286,-1.82824 -2.15267,-2.96255 -0.87544,-0.93698 -3.90271,-5.27236 -4.69815,-6.72825 -0.28667,-0.52469 -0.99476,-1.06279 -2.0999,-1.59575 -2.07339,-0.99992 -2.71735,-1.82433 -2.69282,-3.44735 0.0359,-2.37282 1.15093,-3.03311 3.3984,-2.01242 1.51686,0.68889 2.34362,2.09831 2.39957,4.09067 0.024,0.85343 0.17279,1.68092 0.33073,1.83885 0.15793,0.15794 0.28716,0.39183 0.28716,0.51975 0,0.12793 0.88155,1.52219 1.95901,3.09836 1.07746,1.57618 2.04083,3.12354 2.14083,3.4386 0.1,0.31506 0.23021,0.52443 0.28937,0.46527 0.0592,-0.0592 -0.18385,-0.96434 -0.54001,-2.0115 -0.49586,-1.45789 -0.61085,-2.214 -0.49083,-3.2274 0.0862,-0.7279 0.23485,-1.37172 0.3303,-1.43072 0.36075,-0.22295 2.27408,1.09405 2.87483,1.97883 0.53759,0.79176 0.61097,1.16497 0.51945,2.64181 -0.0603,0.9735 -0.33258,2.17904 -0.62739,2.77812 l -0.52081,1.05833 1.39825,2.9566 c 0.76903,1.62613 1.39824,3.13715 1.39824,3.35783 0,0.22067 0.11347,0.47134 0.25215,0.55705 0.15787,0.0976 0.2578,-3.33409 0.26727,-9.17865 0.0191,-11.79191 0.13369,-11.46411 -4.23778,-12.12495 -2.55955,-0.38693 -5.4176,-1.74187 -6.72369,-3.18756 -1.34458,-1.48829 -2.55755,-4.14753 -2.61162,-5.72553 l -0.0432,-1.26103 2.64583,0.0179 c 2.11413,0.0143 2.90262,0.13284 3.92364,0.58974 2.67572,1.19738 4.13858,2.96739 5.77039,6.98197 0.43267,1.06445 0.87431,2.02372 0.98141,2.13171 0.10711,0.10798 0.22895,-1.74689 0.27076,-4.12193 0.0757,-4.30245 0.0735,-4.32124 -0.60445,-5.12696 -0.37426,-0.44478 -1.56912,-1.2307 -2.65526,-1.74651 -3.52991,-1.67635 -5.34166,-4.24027 -5.50167,-7.78577 l -0.0681,-1.51006 1.04968,0.0846 c 2.33547,0.18833 5.49095,1.89302 6.46308,3.49156 0.26608,0.43754 0.68922,1.5948 0.9403,2.57168 0.6907,2.68731 0.75987,2.73 0.94857,0.58554 0.18558,-2.10892 0.13681,-2.31863 -1.16472,-5.0078 -1.16191,-2.4007 -1.29135,-4.94095 -0.34675,-6.80503 0.92289,-1.82123 1.29485,-2.09379 2.11978,-1.55328 0.72548,0.47536 1.74177,1.92735 2.27847,3.2553 0.49517,1.22521 0.21702,3.25664 -0.75751,5.53224 -0.72773,1.6993 -0.81218,2.1681 -0.78644,4.36563 l 0.0288,2.4619 0.38037,-2.10277 c 0.4716,-2.60702 1.63543,-4.85699 3.24685,-6.27696 1.73183,-1.52607 2.55022,-1.87603 4.71563,-2.01648 l 1.91823,-0.12442 -0.003,1.15927 c -0.008,2.79052 -1.42322,5.80577 -3.41142,7.26606 -0.6686,0.49107 -2.16814,1.26008 -3.33231,1.70891 -1.16417,0.44883 -2.37565,1.05919 -2.6922,1.35636 -0.79717,0.74838 -1.10491,2.38659 -1.25915,6.70294 -0.13471,3.76985 0.0531,4.2174 0.66694,1.58981 0.78751,-3.37065 3.09906,-6.19635 5.93776,-7.25844 1.6905,-0.6325 4.66235,-0.945 5.81332,-0.6113 1.14376,0.33162 1.14251,1.13567 -0.005,3.39699 -1.66815,3.28652 -4.22798,5.30403 -7.51599,5.92369 -0.78972,0.14882 -2.04978,0.55166 -2.80013,0.89518 -1.22546,0.56103 -1.39444,0.74255 -1.66072,1.78391 -0.16604,0.64939 -0.34011,4.18517 -0.39574,8.0385 -0.0546,3.78354 -0.0192,6.52197 0.0786,6.08541 0.0978,-0.43656 0.55753,-1.69896 1.02154,-2.80534 0.49729,-1.18574 0.93677,-2.81509 1.07046,-3.96875 0.43413,-3.74604 1.89275,-6.27396 3.94976,-6.84531 0.53121,-0.14755 1.04349,-0.26894 1.13839,-0.26975 0.31285,-0.003 0.75349,1.64422 0.75349,2.81613 0,0.63313 0.10462,1.15115 0.23248,1.15115 0.50147,0 0.8958,-1.62708 0.74603,-3.07821 -0.24419,-2.36595 0.64317,-3.80096 2.35037,-3.80096 1.33937,0 2.22737,1.18351 2.22737,2.96861 0,0.61098 -0.27017,1.0745 -1.06947,1.83486 -0.58821,0.55955 -1.2223,1.01736 -1.40909,1.01736 -0.40877,0 -1.24709,0.92037 -1.74274,1.91328 -0.33033,0.66175 -2.72374,3.08448 -5.49465,5.56196 -1.79009,1.60052 -2.72091,3.63866 -3.89333,8.52487 -0.18703,0.77949 -0.18384,0.78214 0.35473,0.29474 0.2989,-0.2705 0.78191,-1.12913 1.07334,-1.90805 1.01086,-2.70178 2.37546,-5.07451 3.70122,-6.43562 2.54539,-2.61325 6.5111,-3.73496 10.3354,-2.92339 2.54544,0.54018 2.56061,0.57556 1.33422,3.11159 -0.58731,1.21447 -1.61389,2.78033 -2.31227,3.52697 -2.07569,2.21908 -3.80507,3.03505 -8.63248,4.07307 -3.25881,0.70072 -4.78431,1.55653 -5.42545,3.04367 -0.25843,0.59943 -0.43481,2.05334 -0.49778,4.10337 l -0.0975,3.175 0.49019,-0.94125 c 1.53644,-2.95028 3.55727,-4.9484 5.90798,-5.8416 2.51491,-0.95559 6.62974,-0.57568 8.89903,0.82162 l 0.85985,0.52945 -0.85183,1.39297 c -1.22691,2.00631 -3.13181,3.75723 -5.17473,4.75642 -1.71358,0.83811 -1.90424,0.87133 -5.21815,0.90923 -1.89177,0.0216 -3.5693,0.0514 -3.72784,0.0661 -0.59155,0.055 -0.96987,1.56756 -1.1008,4.40094 l -0.13487,2.91893 2.05247,0.29569 c 2.50791,0.3613 6.5682,2.22381 6.42867,2.94891 -0.0773,0.40177 -0.91994,0.44897 -9.14358,0.51217 -4.98213,0.0383 -9.05842,-0.0287 -9.05842,-0.14894 z"
       id="path26956" />
    <path
       style="fill:#847b58"
       d="m 190.8563,225.03026 c -0.9687,-0.657 -2.51034,-4.89852 -2.30039,-6.32905 0.169,-1.15143 1.12892,-1.63126 2.05262,-1.02603 1.65741,1.08597 2.15225,3.33867 1.29639,5.90164 -0.4891,1.46467 -0.66749,1.71193 -1.04862,1.45344 z"
       id="path26932" />
    <path
       style="fill:#847b58"
       d="m 185.97769,254.39685 c 0,-0.41905 1.46293,-1.61564 2.51354,-2.05591 1.35419,-0.56749 3.1433,-1.08078 4.52953,-1.29951 1.23003,-0.19408 1.72348,-0.89304 1.40433,-1.98922 -0.10591,-0.3638 -0.20444,-1.41151 -0.21895,-2.32824 -0.0302,-1.907 -0.56251,-3.1622 -1.42025,-3.34882 -0.32477,-0.0707 -2.3169,-0.16678 -4.42696,-0.21359 -3.57103,-0.0792 -3.94013,-0.13606 -5.33503,-0.82158 -2.03749,-1.00133 -4.42907,-3.22574 -5.31181,-4.94051 -0.67355,-1.30843 -0.69445,-1.44201 -0.29474,-1.88369 0.6235,-0.68896 2.87173,-1.46019 4.88517,-1.67581 2.3296,-0.24948 4.30671,0.19195 6.27562,1.40117 2.02113,1.24128 3.49442,3.01609 4.90029,5.90319 l 1.10955,2.27857 -0.0766,-2.80774 c -0.11449,-4.19616 -0.30258,-5.4644 -0.95396,-6.43241 -0.73128,-1.08675 -1.63227,-1.39104 -5.2773,-1.78227 -3.5926,-0.38561 -5.6925,-1.03464 -7.78,-2.40463 -1.95677,-1.28419 -3.45002,-3.08288 -4.76024,-5.73393 -0.75661,-1.53089 -0.89446,-2.0188 -0.64184,-2.27184 0.19588,-0.19622 1.35674,-0.35797 2.96826,-0.4136 4.73229,-0.16336 7.91216,1.08695 11.33535,4.45698 0.9608,0.94589 1.65503,1.60669 1.54273,1.46844 -0.28467,-0.35043 -0.25633,-1.00273 0.0357,-0.82223 0.13303,0.0822 0.16727,-0.11711 0.0769,-0.4474 -0.13255,-0.4842 -0.18108,-0.50902 -0.25931,-0.13266 -0.0529,0.25466 -0.17969,0.46302 -0.28169,0.46302 -0.27911,0 -2.56495,-3.22822 -2.48118,-3.50409 0.04,-0.13168 -0.0334,-0.17384 -0.16308,-0.0937 -0.33384,0.20633 -1.18896,-0.80713 -0.97421,-1.1546 0.0978,-0.1583 0.0613,-0.2551 -0.0811,-0.21511 -0.14243,0.04 -1.10151,-1.18742 -2.13128,-2.72755 -1.62452,-2.42967 -2.01185,-2.84631 -2.92672,-3.14825 -0.57993,-0.19139 -1.43372,-0.66464 -1.89732,-1.05167 -0.72122,-0.6021 -0.8578,-0.91151 -0.94619,-2.14342 -0.12794,-1.78314 0.31266,-2.73023 1.32464,-2.84738 1.08772,-0.12592 2.86743,0.86248 3.60045,1.99958 0.68212,1.05812 1.14655,3.74535 0.58761,3.39991 -0.16791,-0.10378 -0.30197,-0.0318 -0.30197,0.16222 0,0.19186 0.23813,0.49756 0.52917,0.67931 0.29104,0.18176 0.52917,0.47294 0.52917,0.64706 0,0.34566 3.44808,5.57704 3.77031,5.72025 0.10914,0.0485 0.19661,0.34616 0.19438,0.66146 -0.003,0.47928 -0.0508,0.5082 -0.28954,0.17639 -0.23743,-0.33007 -0.25902,-0.3153 -0.12824,0.0878 0.0865,0.26657 0.15907,0.56422 0.1613,0.66146 0.002,0.0972 0.10507,0.0174 0.22853,-0.17735 0.167,-0.26347 0.37474,-0.11103 0.81128,0.59531 0.32274,0.5222 0.69466,0.94946 0.82648,0.94946 0.3171,0 2.0315,3.40316 2.77281,5.50416 0.32364,0.91723 0.65609,1.73536 0.73878,1.81805 0.0827,0.0827 0.15531,-4.18011 0.16136,-9.4729 0.008,-7.18506 -0.0726,-9.78439 -0.31875,-10.25922 -0.56473,-1.08915 -1.55561,-1.59093 -3.76933,-1.9088 -2.53105,-0.36344 -4.94661,-1.39099 -6.4386,-2.73891 -1.94553,-1.75767 -3.91405,-6.68116 -2.92239,-7.30924 0.20084,-0.12721 1.02991,-0.23311 1.84238,-0.23533 5.12836,-0.0141 8.36173,2.3841 10.30892,7.64606 0.30081,0.8129 0.76608,1.95426 1.03393,2.53634 0.26785,0.58209 0.54936,1.23693 0.62559,1.45521 0.10545,0.30195 0.1436,0.28197 0.15949,-0.0835 0.0115,-0.26423 -0.11756,-0.73911 -0.28678,-1.05529 -0.2058,-0.38455 -0.28795,-2.02122 -0.24813,-4.94354 l 0.0595,-4.36867 -0.87634,-0.84649 c -0.48199,-0.46556 -1.3526,-1.04181 -1.93468,-1.28054 -3.69887,-1.51703 -5.5983,-3.98707 -6.07538,-7.90048 l -0.19028,-1.56085 1.51549,0.15642 c 1.54222,0.15917 4.48558,1.41417 4.48558,1.91258 0,0.14862 0.27672,0.62487 0.61494,1.05833 0.33822,0.43346 0.52847,0.60952 0.42278,0.39124 -0.10569,-0.21828 -0.3711,-0.60524 -0.5898,-0.8599 -0.2205,-0.25675 -0.2717,-0.46302 -0.11494,-0.46302 0.61481,0 1.882,2.2119 2.32307,4.05495 0.24985,1.044 0.54197,1.99514 0.64916,2.11364 0.10719,0.11851 0.26269,-0.71493 0.34555,-1.85208 0.14706,-2.01807 0.12492,-2.11962 -0.92499,-4.24346 -1.45125,-2.93572 -1.65318,-5.14285 -0.6675,-7.29586 0.92439,-2.01915 1.48086,-2.27219 2.57906,-1.17279 0.46972,0.47024 1.15172,1.49419 1.51557,2.27545 0.83998,1.80366 0.71788,3.42291 -0.45283,6.00484 -0.72656,1.6024 -0.83687,2.15151 -0.88387,4.39975 -0.0519,2.4834 0.22558,3.17323 0.4793,1.19153 0.21322,-1.66541 0.65539,-3.38065 1.09463,-4.24621 0.72564,-1.42998 2.24018,-3.12643 2.65057,-2.96895 0.20872,0.0801 0.31659,0.0438 0.2397,-0.0806 -0.42618,-0.68958 2.52581,-1.88441 4.6557,-1.88441 h 1.34989 l -0.13994,1.74339 c -0.19758,2.46144 -1.66852,5.40391 -3.27377,6.54883 -1.638,1.1683 -3.84446,2.05088 -4.26418,1.70568 -0.23121,-0.19016 -0.52921,-0.14 -0.99966,0.16825 -0.36864,0.24154 -0.81572,0.35722 -0.99351,0.25707 -0.24439,-0.13768 -0.2495,-0.1021 -0.0209,0.1458 0.22544,0.24452 0.43971,0.25439 0.8425,0.0388 0.2971,-0.159 0.69684,-0.28444 0.88831,-0.27874 0.19146,0.006 -0.0142,0.1682 -0.45713,0.36112 -1.87254,0.81569 -2.14701,1.64607 -2.35819,7.13435 -0.0833,2.16367 -0.22667,4.06867 -0.31872,4.23333 -0.12331,0.2206 -0.083,0.22176 0.15325,0.004 0.17632,-0.16226 0.53537,-1.12999 0.79787,-2.15052 0.69087,-2.68587 1.54351,-4.20422 3.17995,-5.66275 1.69573,-1.51138 3.40843,-2.21528 5.96567,-2.45181 2.28617,-0.21146 3.40828,0.0628 3.52508,0.86171 0.13231,0.90486 -1.70058,4.33681 -3.0217,5.65794 -1.46721,1.46721 -3.44732,2.49189 -5.53046,2.86194 -2.36016,0.41926 -3.80521,1.16653 -4.21619,2.18027 -0.43773,1.07972 -0.81396,16.51622 -0.41732,17.12218 0.21601,0.33001 0.26107,0.30772 0.26745,-0.13229 0.004,-0.29104 0.0843,-0.81567 0.17802,-1.16585 0.11944,-0.4464 0.0788,-0.58012 -0.13591,-0.44741 -0.19975,0.12346 -0.30626,-0.0335 -0.30626,-0.4514 0,-0.55366 0.30483,-1.38579 1.90906,-5.21138 0.15256,-0.3638 0.25342,-1.15556 0.22414,-1.75946 -0.12422,-2.56182 1.98678,-6.50153 3.68362,-6.87464 0.36601,-0.0805 0.86665,-0.20054 1.11253,-0.2668 0.33307,-0.0897 0.51822,0.13579 0.72613,0.88449 0.34633,1.24716 0.35259,1.65586 0.0174,1.13724 -0.15411,-0.23846 -0.2581,-0.2711 -0.26053,-0.0818 -0.002,0.17332 0.12072,0.39223 0.27322,0.48648 0.16226,0.10029 0.22167,0.68296 0.14321,1.40468 -0.0737,0.67832 -0.0657,0.99519 0.0179,0.70415 0.0836,-0.29105 0.26516,-0.6006 0.40349,-0.68791 0.51944,-0.32785 0.93208,-2.12883 0.73487,-3.2073 -0.37372,-2.04373 0.61665,-3.64542 2.25407,-3.64542 1.16837,0 2.01516,0.96941 2.18826,2.50511 0.13092,1.16152 0.0868,1.26148 -1.00071,2.26543 -0.62572,0.57766 -1.2757,1.05029 -1.4444,1.05029 -0.38413,0 -1.45731,1.1218 -1.45731,1.52333 0,0.4936 -2.94307,3.51481 -3.2432,3.32931 -0.15298,-0.0945 -0.20282,-0.05 -0.11076,0.0989 0.0921,0.14895 -0.57416,0.9098 -1.48048,1.69077 -2.15351,1.85568 -2.10416,1.8034 -2.75218,2.9159 -0.68012,1.16758 -2.35222,6.78487 -2.09594,7.04114 0.22385,0.22386 1.23031,-1.34964 1.68175,-2.62927 1.26144,-3.57559 3.59798,-6.71837 5.84841,-7.86646 1.15863,-0.59109 2.36516,-0.78331 1.62323,-0.25862 -0.35277,0.24949 -0.35277,0.26864 0,0.17234 0.21829,-0.0596 0.39688,-0.27584 0.39688,-0.48057 0,-1.0705 7.00418,-0.8874 8.10342,0.21183 0.12073,0.12073 -0.30867,1.29999 -0.95423,2.62056 -2.11088,4.31812 -4.68448,6.07548 -10.80327,7.3769 -3.14131,0.66813 -4.66798,1.48365 -5.40951,2.88963 -0.45899,0.87029 -0.88081,6.66624 -0.54615,7.50446 0.20146,0.5046 0.25721,0.44192 0.34599,-0.38904 0.18416,-1.72377 3.16073,-5.18951 5.32586,-6.20111 2.36605,-1.10547 6.63589,-0.95151 9.16341,0.33042 0.5457,0.27677 0.99219,0.65899 0.99219,0.84936 0,0.4086 -1.42952,2.6222 -1.99815,3.09412 -0.3315,0.27512 -0.36889,0.24732 -0.23191,-0.17244 0.12569,-0.38515 0.10224,-0.41454 -0.10175,-0.12756 -0.14579,0.20508 -0.2078,0.52212 -0.1378,0.70453 0.17548,0.4573 -2.77023,2.41094 -4.62111,3.06479 -1.30574,0.46128 -1.90528,0.51075 -4.46552,0.36848 -2.77394,-0.15415 -2.98929,-0.12997 -3.47361,0.38989 -0.63466,0.68122 -0.83846,1.83551 -0.84224,4.77017 l -0.003,2.26242 2.01812,0.29074 c 2.47446,0.35648 6.53267,2.22489 6.3943,2.94396 -0.0773,0.40177 -0.91994,0.44897 -9.14358,0.51217 -4.98213,0.0383 -9.05842,-0.0287 -9.05842,-0.14894 z"
       id="path26931" />
    <path
       style="fill:#517889"
       d="m 190.8563,225.03026 c -0.9687,-0.657 -2.51034,-4.89852 -2.30039,-6.32905 0.169,-1.15143 1.12892,-1.63126 2.05262,-1.02603 1.65741,1.08597 2.15225,3.33867 1.29639,5.90164 -0.4891,1.46467 -0.66749,1.71193 -1.04862,1.45344 z"
       id="path26905" />
    <path
       style="fill:#517889"
       d="m 194.44911,250.13259 c 0.0182,-1.93017 -0.37988,-5.26799 -0.70425,-5.90514 -0.46403,-0.91149 -0.72103,-0.96235 -5.38593,-1.06584 -3.57103,-0.0792 -3.94013,-0.13606 -5.33503,-0.82158 -2.03749,-1.00133 -4.42907,-3.22574 -5.31181,-4.94051 -0.67355,-1.30843 -0.69445,-1.44201 -0.29474,-1.88369 0.6235,-0.68896 2.87173,-1.46019 4.88517,-1.67581 2.3296,-0.24948 4.30671,0.19195 6.27562,1.40117 2.02113,1.24128 3.49442,3.01609 4.90029,5.90319 l 1.10955,2.27857 -0.0766,-2.80774 c -0.11449,-4.19616 -0.30258,-5.4644 -0.95396,-6.43241 -0.73128,-1.08675 -1.63227,-1.39104 -5.2773,-1.78227 -3.5926,-0.38561 -5.6925,-1.03464 -7.78,-2.40463 -1.95677,-1.28419 -3.45002,-3.08288 -4.76024,-5.73393 -0.75661,-1.53089 -0.89446,-2.0188 -0.64184,-2.27184 0.19588,-0.19622 1.35674,-0.35797 2.96826,-0.4136 4.73229,-0.16336 7.91216,1.08695 11.33535,4.45698 0.9608,0.94589 1.65503,1.60669 1.54273,1.46844 -0.28467,-0.35043 -0.25633,-1.00273 0.0357,-0.82223 0.13303,0.0822 0.16727,-0.11711 0.0769,-0.4474 -0.13255,-0.4842 -0.18108,-0.50902 -0.25931,-0.13266 -0.0529,0.25466 -0.17969,0.46302 -0.28169,0.46302 -0.27911,0 -2.56495,-3.22822 -2.48118,-3.50409 0.04,-0.13168 -0.0334,-0.17384 -0.16308,-0.0937 -0.33384,0.20633 -1.18896,-0.80713 -0.97421,-1.1546 0.0978,-0.1583 0.0613,-0.2551 -0.0811,-0.21511 -0.14243,0.04 -1.10151,-1.18742 -2.13128,-2.72755 -1.62452,-2.42967 -2.01185,-2.84631 -2.92672,-3.14825 -0.57993,-0.19139 -1.43372,-0.66464 -1.89732,-1.05167 -0.72122,-0.6021 -0.8578,-0.91151 -0.94619,-2.14342 -0.12794,-1.78314 0.31266,-2.73023 1.32464,-2.84738 1.08772,-0.12592 2.86743,0.86248 3.60045,1.99958 0.68212,1.05812 1.14655,3.74535 0.58761,3.39991 -0.16791,-0.10378 -0.30197,-0.0318 -0.30197,0.16222 0,0.19186 0.23813,0.49756 0.52917,0.67931 0.29104,0.18176 0.52917,0.47294 0.52917,0.64706 0,0.34566 3.44808,5.57704 3.77031,5.72025 0.10914,0.0485 0.19661,0.34616 0.19438,0.66146 -0.003,0.47928 -0.0508,0.5082 -0.28954,0.17639 -0.23743,-0.33007 -0.25902,-0.3153 -0.12824,0.0878 0.0865,0.26657 0.15907,0.56422 0.1613,0.66146 0.002,0.0972 0.10507,0.0174 0.22853,-0.17735 0.167,-0.26347 0.37474,-0.11103 0.81128,0.59531 0.32274,0.5222 0.69466,0.94946 0.82648,0.94946 0.3171,0 2.0315,3.40316 2.77281,5.50416 0.32364,0.91723 0.65609,1.73536 0.73878,1.81805 0.0827,0.0827 0.15531,-4.18011 0.16136,-9.4729 0.008,-7.18506 -0.0726,-9.78439 -0.31875,-10.25922 -0.56473,-1.08915 -1.55561,-1.59093 -3.76933,-1.9088 -2.53105,-0.36344 -4.94661,-1.39099 -6.4386,-2.73891 -1.94553,-1.75767 -3.91405,-6.68116 -2.92239,-7.30924 0.20084,-0.12721 1.02991,-0.23311 1.84238,-0.23533 5.12836,-0.0141 8.36173,2.3841 10.30892,7.64606 0.30081,0.8129 0.76608,1.95426 1.03393,2.53634 0.26785,0.58209 0.54936,1.23693 0.62559,1.45521 0.10545,0.30195 0.1436,0.28197 0.15949,-0.0835 0.0115,-0.26423 -0.11756,-0.73911 -0.28678,-1.05529 -0.2058,-0.38455 -0.28795,-2.02122 -0.24813,-4.94354 l 0.0595,-4.36867 -0.87634,-0.84649 c -0.48199,-0.46556 -1.3526,-1.04181 -1.93468,-1.28054 -3.69887,-1.51703 -5.5983,-3.98707 -6.07538,-7.90048 l -0.19028,-1.56085 1.51549,0.15642 c 1.54222,0.15917 4.48558,1.41417 4.48558,1.91258 0,0.14862 0.27672,0.62487 0.61494,1.05833 0.33822,0.43346 0.52847,0.60952 0.42278,0.39124 -0.10569,-0.21828 -0.3711,-0.60524 -0.5898,-0.8599 -0.2205,-0.25675 -0.2717,-0.46302 -0.11494,-0.46302 0.61481,0 1.882,2.2119 2.32307,4.05495 0.24985,1.044 0.54197,1.99514 0.64916,2.11364 0.10719,0.11851 0.26269,-0.71493 0.34555,-1.85208 0.14706,-2.01807 0.12492,-2.11962 -0.92499,-4.24346 -1.45125,-2.93572 -1.65318,-5.14285 -0.6675,-7.29586 0.92439,-2.01915 1.48086,-2.27219 2.57906,-1.17279 0.46972,0.47024 1.15172,1.49419 1.51557,2.27545 0.83998,1.80366 0.71788,3.42291 -0.45283,6.00484 -0.72656,1.6024 -0.83687,2.15151 -0.88387,4.39975 -0.0519,2.4834 0.22558,3.17323 0.4793,1.19153 0.21322,-1.66541 0.65539,-3.38065 1.09463,-4.24621 0.72564,-1.42998 2.24018,-3.12643 2.65057,-2.96895 0.20872,0.0801 0.31659,0.0438 0.2397,-0.0806 -0.42618,-0.68958 2.52581,-1.88441 4.6557,-1.88441 h 1.34989 l -0.13994,1.74339 c -0.19758,2.46144 -1.66852,5.40391 -3.27377,6.54883 -1.638,1.1683 -3.84446,2.05088 -4.26418,1.70568 -0.23121,-0.19016 -0.52921,-0.14 -0.99966,0.16825 -0.36864,0.24154 -0.81572,0.35722 -0.99351,0.25707 -0.24439,-0.13768 -0.2495,-0.1021 -0.0209,0.1458 0.22544,0.24452 0.43971,0.25439 0.8425,0.0388 0.2971,-0.159 0.69684,-0.28444 0.88831,-0.27874 0.19146,0.006 -0.0142,0.1682 -0.45713,0.36112 -1.87254,0.81569 -2.14701,1.64607 -2.35819,7.13435 -0.0833,2.16367 -0.22667,4.06867 -0.31872,4.23333 -0.12331,0.2206 -0.083,0.22176 0.15325,0.004 0.17632,-0.16226 0.53537,-1.12999 0.79787,-2.15052 0.69087,-2.68587 1.54351,-4.20422 3.17995,-5.66275 1.69573,-1.51138 3.40843,-2.21528 5.96567,-2.45181 2.28617,-0.21146 3.40828,0.0628 3.52508,0.86171 0.13231,0.90486 -1.70058,4.33681 -3.0217,5.65794 -1.46721,1.46721 -3.44732,2.49189 -5.53046,2.86194 -2.36016,0.41926 -3.80521,1.16653 -4.21619,2.18027 -0.43773,1.07972 -0.81396,16.51622 -0.41732,17.12218 0.21601,0.33001 0.26107,0.30772 0.26745,-0.13229 0.004,-0.29104 0.0843,-0.81567 0.17802,-1.16585 0.11944,-0.4464 0.0788,-0.58012 -0.13591,-0.44741 -0.19975,0.12346 -0.30626,-0.0335 -0.30626,-0.4514 0,-0.55366 0.30483,-1.38579 1.90906,-5.21138 0.15256,-0.3638 0.25342,-1.15556 0.22414,-1.75946 -0.11335,-2.33761 1.92829,-6.42036 3.40691,-6.81295 1.81611,-0.48219 1.82791,-0.47903 2.1184,0.56697 0.34348,1.23682 0.34868,1.64353 0.0144,1.12627 -0.15411,-0.23846 -0.2581,-0.2711 -0.26053,-0.0818 -0.002,0.17332 0.12072,0.39223 0.27322,0.48648 0.16226,0.10029 0.22167,0.68296 0.14321,1.40468 -0.0737,0.67832 -0.0657,0.99519 0.0179,0.70415 0.0836,-0.29105 0.26516,-0.6006 0.40349,-0.68791 0.51944,-0.32785 0.93208,-2.12883 0.73487,-3.2073 -0.37372,-2.04373 0.61665,-3.64542 2.25407,-3.64542 1.16837,0 2.01516,0.96941 2.18826,2.50511 0.13092,1.16152 0.0868,1.26148 -1.00071,2.26543 -0.62572,0.57766 -1.2757,1.05029 -1.4444,1.05029 -0.38413,0 -1.45731,1.1218 -1.45731,1.52333 0,0.4936 -2.94307,3.51481 -3.2432,3.32931 -0.15298,-0.0945 -0.20282,-0.05 -0.11076,0.0989 0.0921,0.14895 -0.57416,0.9098 -1.48048,1.69077 -2.15351,1.85568 -2.10416,1.8034 -2.75218,2.9159 -0.68012,1.16758 -2.35222,6.78487 -2.09594,7.04114 0.22385,0.22386 1.23031,-1.34964 1.68175,-2.62927 1.26144,-3.57559 3.59798,-6.71837 5.84841,-7.86646 1.15863,-0.59109 2.36516,-0.78331 1.62323,-0.25862 -0.35277,0.24949 -0.35277,0.26864 0,0.17234 0.21829,-0.0596 0.39688,-0.27584 0.39688,-0.48057 0,-1.0705 7.00418,-0.8874 8.10342,0.21183 0.12073,0.12073 -0.30867,1.29999 -0.95423,2.62056 -2.11088,4.31812 -4.68448,6.07548 -10.80327,7.3769 -3.14131,0.66813 -4.66798,1.48365 -5.40951,2.88963 -0.45899,0.87029 -0.88081,6.66624 -0.54615,7.50446 0.20146,0.5046 0.25721,0.44192 0.34599,-0.38904 0.18416,-1.72377 3.16073,-5.18951 5.32586,-6.20111 2.36605,-1.10547 6.63589,-0.95151 9.16341,0.33042 0.5457,0.27677 0.99219,0.65899 0.99219,0.84936 0,0.4086 -1.42952,2.6222 -1.99815,3.09412 -0.3315,0.27512 -0.36889,0.24732 -0.23191,-0.17244 0.12569,-0.38515 0.10224,-0.41454 -0.10175,-0.12756 -0.14579,0.20508 -0.2078,0.52212 -0.1378,0.70453 0.17548,0.4573 -2.77023,2.41094 -4.62111,3.06479 -1.30574,0.46128 -1.90528,0.51075 -4.46552,0.36848 -2.82343,-0.1569 -2.9821,-0.13769 -3.50573,0.42436 -0.30165,0.32378 -0.5636,0.71507 -0.58211,0.86953 -0.0185,0.15446 -0.10781,1.58107 -0.19844,3.17025 -0.15712,2.75524 -0.19245,2.8914 -0.76092,2.9324 -0.47717,0.0344 -0.59487,-0.0934 -0.58972,-0.64044 z"
       id="path26902" />
    <path
       style="fill:#517889"
       d="m 185.97769,254.37587 c 0,-0.11236 0.32657,-0.49293 0.72571,-0.84572 0.52669,-0.46553 0.59925,-0.4906 0.26458,-0.0914 -0.25362,0.3025 -0.46113,0.62818 -0.46113,0.72372 0,0.0956 3.54211,0.20847 7.87136,0.25092 l 7.87135,0.0772 -8.13594,0.0448 c -4.47476,0.0246 -8.13593,-0.0471 -8.13593,-0.15948 z"
       id="path26899" />
    <path
       style="fill:#628c59"
       d="m 190.8563,225.03026 c -0.9687,-0.657 -2.51034,-4.89852 -2.30039,-6.32905 0.169,-1.15143 1.12892,-1.63126 2.05262,-1.02603 1.65741,1.08597 2.15225,3.33867 1.29639,5.90164 -0.4891,1.46467 -0.66749,1.71193 -1.04862,1.45344 z"
       id="path26886" />
    <path
       style="fill:#628c59"
       d="m 194.44911,250.13259 c 0.0182,-1.93017 -0.37988,-5.26799 -0.70425,-5.90514 -0.46403,-0.91149 -0.72103,-0.96235 -5.38593,-1.06584 -3.57103,-0.0792 -3.94013,-0.13606 -5.33503,-0.82158 -2.03749,-1.00133 -4.42907,-3.22574 -5.31181,-4.94051 -0.67355,-1.30843 -0.69445,-1.44201 -0.29474,-1.88369 0.6235,-0.68896 2.87173,-1.46019 4.88517,-1.67581 2.3296,-0.24948 4.30671,0.19195 6.27562,1.40117 2.02113,1.24128 3.49442,3.01609 4.90029,5.90319 l 1.10955,2.27857 -0.0766,-2.80774 c -0.11449,-4.19616 -0.30258,-5.4644 -0.95396,-6.43241 -0.73128,-1.08675 -1.63227,-1.39104 -5.2773,-1.78227 -3.5926,-0.38561 -5.6925,-1.03464 -7.78,-2.40463 -1.95677,-1.28419 -3.45002,-3.08288 -4.76024,-5.73393 -0.75661,-1.53089 -0.89446,-2.0188 -0.64184,-2.27184 0.19588,-0.19622 1.35674,-0.35797 2.96826,-0.4136 4.73229,-0.16336 7.91216,1.08695 11.33535,4.45698 0.9608,0.94589 1.65503,1.60669 1.54273,1.46844 -0.28467,-0.35043 -0.25633,-1.00273 0.0357,-0.82223 0.13303,0.0822 0.16727,-0.11711 0.0769,-0.4474 -0.13255,-0.4842 -0.18108,-0.50902 -0.25931,-0.13266 -0.0529,0.25466 -0.17969,0.46302 -0.28169,0.46302 -0.27911,0 -2.56495,-3.22822 -2.48118,-3.50409 0.04,-0.13168 -0.0334,-0.17384 -0.16308,-0.0937 -0.33384,0.20633 -1.18896,-0.80713 -0.97421,-1.1546 0.0978,-0.1583 0.0613,-0.2551 -0.0811,-0.21511 -0.14243,0.04 -1.10151,-1.18742 -2.13128,-2.72755 -1.62452,-2.42967 -2.01185,-2.84631 -2.92672,-3.14825 -0.57993,-0.19139 -1.43372,-0.66464 -1.89732,-1.05167 -0.72122,-0.6021 -0.8578,-0.91151 -0.94619,-2.14342 -0.12794,-1.78314 0.31266,-2.73023 1.32464,-2.84738 1.08772,-0.12592 2.86743,0.86248 3.60045,1.99958 0.68212,1.05812 1.14655,3.74535 0.58761,3.39991 -0.16791,-0.10378 -0.30197,-0.0318 -0.30197,0.16222 0,0.19186 0.23813,0.49756 0.52917,0.67931 0.29104,0.18176 0.52917,0.47294 0.52917,0.64706 0,0.34566 3.44808,5.57704 3.77031,5.72025 0.10914,0.0485 0.19661,0.34616 0.19438,0.66146 -0.003,0.47928 -0.0508,0.5082 -0.28954,0.17639 -0.23743,-0.33007 -0.25902,-0.3153 -0.12824,0.0878 0.0865,0.26657 0.15907,0.56422 0.1613,0.66146 0.002,0.0972 0.10507,0.0174 0.22853,-0.17735 0.167,-0.26347 0.37474,-0.11103 0.81128,0.59531 0.32274,0.5222 0.69466,0.94946 0.82648,0.94946 0.3171,0 2.0315,3.40316 2.77281,5.50416 0.32364,0.91723 0.65609,1.73536 0.73878,1.81805 0.0827,0.0827 0.15531,-4.18011 0.16136,-9.4729 0.008,-7.18506 -0.0726,-9.78439 -0.31875,-10.25922 -0.56473,-1.08915 -1.55561,-1.59093 -3.76933,-1.9088 -2.53105,-0.36344 -4.94661,-1.39099 -6.4386,-2.73891 -1.94553,-1.75767 -3.91405,-6.68116 -2.92239,-7.30924 0.20084,-0.12721 1.02991,-0.23311 1.84238,-0.23533 5.12836,-0.0141 8.36173,2.3841 10.30892,7.64606 0.30081,0.8129 0.76608,1.95426 1.03393,2.53634 0.26785,0.58209 0.54936,1.23693 0.62559,1.45521 0.10545,0.30195 0.1436,0.28197 0.15949,-0.0835 0.0115,-0.26423 -0.11756,-0.73911 -0.28678,-1.05529 -0.2058,-0.38455 -0.28795,-2.02122 -0.24813,-4.94354 l 0.0595,-4.36867 -0.87634,-0.84649 c -0.48199,-0.46556 -1.3526,-1.04181 -1.93468,-1.28054 -3.69887,-1.51703 -5.5983,-3.98707 -6.07538,-7.90048 l -0.19028,-1.56085 1.51549,0.15642 c 1.54222,0.15917 4.48558,1.41417 4.48558,1.91258 0,0.14862 0.27672,0.62487 0.61494,1.05833 0.33822,0.43346 0.52847,0.60952 0.42278,0.39124 -0.10569,-0.21828 -0.3711,-0.60524 -0.5898,-0.8599 -0.2205,-0.25675 -0.2717,-0.46302 -0.11494,-0.46302 0.61481,0 1.882,2.2119 2.32307,4.05495 0.24985,1.044 0.54197,1.99514 0.64916,2.11364 0.10719,0.11851 0.26269,-0.71493 0.34555,-1.85208 0.14706,-2.01807 0.12492,-2.11962 -0.92499,-4.24346 -1.45125,-2.93572 -1.65318,-5.14285 -0.6675,-7.29586 0.92439,-2.01915 1.48086,-2.27219 2.57906,-1.17279 0.46972,0.47024 1.15172,1.49419 1.51557,2.27545 0.83998,1.80366 0.71788,3.42291 -0.45283,6.00484 -0.72656,1.6024 -0.83687,2.15151 -0.88387,4.39975 -0.0519,2.4834 0.22558,3.17323 0.4793,1.19153 0.21322,-1.66541 0.65539,-3.38065 1.09463,-4.24621 0.72564,-1.42998 2.24018,-3.12643 2.65057,-2.96895 0.20872,0.0801 0.31659,0.0438 0.2397,-0.0806 -0.42618,-0.68958 2.52581,-1.88441 4.6557,-1.88441 h 1.34989 l -0.13994,1.74339 c -0.19758,2.46144 -1.66852,5.40391 -3.27377,6.54883 -1.638,1.1683 -3.84446,2.05088 -4.26418,1.70568 -0.23121,-0.19016 -0.52921,-0.14 -0.99966,0.16825 -0.36864,0.24154 -0.81572,0.35722 -0.99351,0.25707 -0.24439,-0.13768 -0.2495,-0.1021 -0.0209,0.1458 0.22544,0.24452 0.43971,0.25439 0.8425,0.0388 0.2971,-0.159 0.69684,-0.28444 0.88831,-0.27874 0.19146,0.006 -0.0142,0.1682 -0.45713,0.36112 -1.87254,0.81569 -2.14701,1.64607 -2.35819,7.13435 -0.0833,2.16367 -0.22667,4.06867 -0.31872,4.23333 -0.12331,0.2206 -0.083,0.22176 0.15325,0.004 0.17632,-0.16226 0.53537,-1.12999 0.79787,-2.15052 0.69087,-2.68587 1.54351,-4.20422 3.17995,-5.66275 1.69573,-1.51138 3.40843,-2.21528 5.96567,-2.45181 2.28617,-0.21146 3.40828,0.0628 3.52508,0.86171 0.13231,0.90486 -1.70058,4.33681 -3.0217,5.65794 -1.46721,1.46721 -3.44732,2.49189 -5.53046,2.86194 -2.36016,0.41926 -3.80521,1.16653 -4.21619,2.18027 -0.43773,1.07972 -0.81396,16.51622 -0.41732,17.12218 0.21601,0.33001 0.26107,0.30772 0.26745,-0.13229 0.004,-0.29104 0.0843,-0.81567 0.17802,-1.16585 0.11944,-0.4464 0.0788,-0.58012 -0.13591,-0.44741 -0.19975,0.12346 -0.30626,-0.0335 -0.30626,-0.4514 0,-0.55366 0.30483,-1.38579 1.90906,-5.21138 0.15256,-0.3638 0.25342,-1.15556 0.22414,-1.75946 -0.11335,-2.33761 1.92829,-6.42036 3.40691,-6.81295 1.81611,-0.48219 1.82791,-0.47903 2.1184,0.56697 0.34348,1.23682 0.34868,1.64353 0.0144,1.12627 -0.15411,-0.23846 -0.2581,-0.2711 -0.26053,-0.0818 -0.002,0.17332 0.12072,0.39223 0.27322,0.48648 0.16226,0.10029 0.22167,0.68296 0.14321,1.40468 -0.0737,0.67832 -0.0657,0.99519 0.0179,0.70415 0.0836,-0.29105 0.26516,-0.6006 0.40349,-0.68791 0.51944,-0.32785 0.93208,-2.12883 0.73487,-3.2073 -0.37372,-2.04373 0.61665,-3.64542 2.25407,-3.64542 1.16837,0 2.01516,0.96941 2.18826,2.50511 0.13092,1.16152 0.0868,1.26148 -1.00071,2.26543 -0.62572,0.57766 -1.2757,1.05029 -1.4444,1.05029 -0.38413,0 -1.45731,1.1218 -1.45731,1.52333 0,0.4936 -2.94307,3.51481 -3.2432,3.32931 -0.15298,-0.0945 -0.20282,-0.05 -0.11076,0.0989 0.0921,0.14895 -0.57416,0.9098 -1.48048,1.69077 -2.15351,1.85568 -2.10416,1.8034 -2.75218,2.9159 -0.68012,1.16758 -2.35222,6.78487 -2.09594,7.04114 0.22385,0.22386 1.23031,-1.34964 1.68175,-2.62927 1.26144,-3.57559 3.59798,-6.71837 5.84841,-7.86646 1.15863,-0.59109 2.36516,-0.78331 1.62323,-0.25862 -0.35277,0.24949 -0.35277,0.26864 0,0.17234 0.21829,-0.0596 0.39688,-0.27584 0.39688,-0.48057 0,-1.0705 7.00418,-0.8874 8.10342,0.21183 0.12073,0.12073 -0.30867,1.29999 -0.95423,2.62056 -2.11088,4.31812 -4.68448,6.07548 -10.80327,7.3769 -3.14131,0.66813 -4.66798,1.48365 -5.40951,2.88963 -0.45899,0.87029 -0.88081,6.66624 -0.54615,7.50446 0.20146,0.5046 0.25721,0.44192 0.34599,-0.38904 0.18416,-1.72377 3.16073,-5.18951 5.32586,-6.20111 2.36605,-1.10547 6.63589,-0.95151 9.16341,0.33042 0.5457,0.27677 0.99219,0.65899 0.99219,0.84936 0,0.4086 -1.42952,2.6222 -1.99815,3.09412 -0.3315,0.27512 -0.36889,0.24732 -0.23191,-0.17244 0.12569,-0.38515 0.10224,-0.41454 -0.10175,-0.12756 -0.14579,0.20508 -0.2078,0.52212 -0.1378,0.70453 0.17548,0.4573 -2.77023,2.41094 -4.62111,3.06479 -1.30574,0.46128 -1.90528,0.51075 -4.46552,0.36848 -2.82343,-0.1569 -2.9821,-0.13769 -3.50573,0.42436 -0.30165,0.32378 -0.5636,0.71507 -0.58211,0.86953 -0.0185,0.15446 -0.10781,1.58107 -0.19844,3.17025 -0.15712,2.75524 -0.19245,2.8914 -0.76092,2.9324 -0.47717,0.0344 -0.59487,-0.0934 -0.58972,-0.64044 z"
       id="path26883" />
    <path
       style="fill:#628c59"
       d="m 185.97769,254.37587 c 0,-0.11236 0.32657,-0.49293 0.72571,-0.84572 0.52669,-0.46553 0.59925,-0.4906 0.26458,-0.0914 -0.25362,0.3025 -0.46113,0.62818 -0.46113,0.72372 0,0.0956 3.54211,0.20847 7.87136,0.25092 l 7.87135,0.0772 -8.13594,0.0448 c -4.47476,0.0246 -8.13593,-0.0471 -8.13593,-0.15948 z"
       id="path26880" />
    <path
       style="fill:#5c8653"
       d="m 197.09018,191.47572 c 0,-0.0736 -0.14882,-0.0585 -0.33072,0.0336 -0.18191,0.0921 -0.12447,-0.002 0.12762,-0.20859 0.2521,-0.20685 0.59906,-0.98565 0.77103,-1.73064 0.29033,-1.2578 0.26111,-1.47584 -0.40914,-3.05288 -0.87467,-2.058 -1.82141,-3.0662 -2.48578,-2.64713 -0.24812,0.15651 -0.45113,0.45019 -0.45113,0.65261 0,0.20242 -0.20172,0.56976 -0.44826,0.8163 -0.57494,0.57494 -0.85135,2.05946 -0.65297,3.50687 0.17617,1.28526 0.67619,2.52716 1.01751,2.52716 0.12551,0 0.0332,-0.29766 -0.20519,-0.66146 -0.24056,-0.36713 -0.30908,-0.66146 -0.15401,-0.66146 0.15367,0 0.34078,0.0993 0.4158,0.22071 0.1438,0.23267 0.47409,1.79696 0.49807,2.35898 0.008,0.1819 0.11334,0.33073 0.23461,0.33073 0.12126,0 0.22048,-0.82641 0.22048,-1.83647 0,-1.01006 0.11104,-1.9051 0.24676,-1.98897 0.13571,-0.0839 0.23661,-0.5093 0.22421,-0.94539 -0.0247,-0.87001 0.30212,-1.44853 0.35655,-0.63108 0.0186,0.27891 0.0618,0.77501 0.0962,1.10243 0.0343,0.32742 -0.0404,0.59531 -0.16605,0.59531 -0.12566,0 -0.22846,1.0893 -0.22846,2.42066 v 2.42066 l 0.66146,-1.24404 c 0.3638,-0.68421 0.66145,-1.30429 0.66145,-1.37794 z"
       id="path26824" />
    <path
       style="fill:#5c8653"
       d="m 200.4883,197.36054 c 0.68988,-0.0803 0.78846,-0.0322 0.54222,0.26446 -0.55316,0.66651 0.18801,0.37293 1.63687,-0.64838 0.81822,-0.57676 1.41921,-1.19734 1.39923,-1.44483 -0.0193,-0.2386 0.0856,-0.40873 0.23299,-0.37805 0.47104,0.098 1.58293,-2.48864 1.78587,-4.15457 0.1079,-0.88577 0.15507,-1.6572 0.10481,-1.71429 -0.13584,-0.1543 -1.42809,-0.12241 -2.51927,0.0622 -1.51194,0.25577 -2.40201,0.66542 -2.19025,1.00804 0.11481,0.18577 0.0733,0.2344 -0.10566,0.12379 -0.16211,-0.10019 -0.77863,0.25501 -1.37006,0.78932 -0.81618,0.73737 -1.03774,1.10616 -0.91942,1.53035 0.11494,0.41208 0.0886,0.46149 -0.10023,0.18811 -0.36419,-0.52719 -1.37455,1.52727 -1.53249,3.11613 -0.0669,0.67286 -0.16863,1.36313 -0.22612,1.53393 -0.23561,0.70008 2.25009,-1.1797 2.7718,-2.09614 0.62527,-1.09834 1.85625,-1.97734 1.85316,-1.32327 -0.001,0.24798 -1.77936,2.36832 -2.57875,3.07493 -0.32743,0.28942 -0.59532,0.64227 -0.59532,0.7841 0,0.14183 0.21768,0.0609 0.48372,-0.17988 0.26604,-0.24077 0.86315,-0.48193 1.3269,-0.53593 z"
       id="path26823" />
    <path
       style="fill:#5c8653"
       d="m 195.26247,210.02617 c 0.13259,0.3224 0.21255,-0.55636 0.20463,-2.24896 -0.007,-1.52796 0.0725,-3.40064 0.17693,-4.16151 0.16939,-1.23396 0.10013,-1.55878 -0.64122,-3.00727 -0.45711,-0.89313 -1.01512,-2.51466 -1.24,-3.60339 -0.68631,-3.32265 -2.58684,-5.26477 -5.98406,-6.11499 -1.75778,-0.43993 -1.80106,-0.42309 -1.80106,0.70045 0,1.72225 1.32244,5.00467 1.87799,4.66133 0.12794,-0.0791 0.17093,0.017 0.0956,0.2134 -0.0754,0.19645 0.13434,0.60848 0.46605,0.91563 0.5892,0.54558 3.63567,2.19427 4.05459,2.19427 0.11606,0 0.40374,0.1744 0.63927,0.38756 0.38051,0.34436 0.43262,0.32961 0.46741,-0.13229 0.0345,-0.45753 -0.19937,-0.63119 -0.75634,-0.56169 -0.2651,0.0331 -1.05795,-0.93088 -1.12144,-1.36347 -0.0958,-0.65301 -0.75422,-1.30984 -0.96732,-0.96504 -0.11602,0.18772 -0.3979,-0.0428 -0.75096,-0.61402 -0.66894,-1.08237 -0.70069,-1.28434 -0.16987,-1.08065 0.21745,0.0834 0.33782,0.24481 0.2675,0.3586 -0.0703,0.11378 0.0494,0.35401 0.2661,0.53384 0.32487,0.26961 0.39544,0.24007 0.40238,-0.16846 0.008,-0.46579 0.0293,-0.46797 0.35689,-0.0365 0.19166,0.2524 0.426,0.40123 0.52075,0.33073 0.0948,-0.0705 0.1208,-0.0569 0.0579,0.0303 -0.14471,0.20049 0.93086,2.28823 1.09454,2.12455 0.0666,-0.0666 -0.007,-0.35977 -0.16285,-0.65154 -0.21044,-0.3932 -0.20051,-0.55828 0.0384,-0.6379 0.18586,-0.062 0.29816,-0.49098 0.26531,-1.01354 -0.0451,-0.71695 -0.001,-0.81213 0.21074,-0.45593 0.14724,0.2476 0.30238,0.97408 0.34475,1.61441 0.0424,0.64032 0.317,1.57091 0.61027,2.06798 0.64446,1.09228 0.76739,2.36904 0.71025,7.37681 -0.0241,2.11005 0.0222,3.59833 0.10278,3.30729 l 0.14657,-0.52916 z"
       id="path26822" />
    <path
       style="fill:#5c8653"
       d="m 194.57664,210.53472 c -0.1662,-0.0698 -0.23116,-1.69524 -0.17471,-4.37164 l 0.0899,-4.2605 -0.75134,-0.79906 c -0.41323,-0.43949 -1.4657,-1.1277 -2.33883,-1.52937 -2.45283,-1.12839 -3.62695,-2.12552 -4.5566,-3.86973 -0.6767,-1.26961 -1.38341,-3.91919 -1.39452,-5.22828 -0.004,-0.43738 2.76944,0.0468 4.31359,0.75307 2.74168,1.25407 4.03104,3.09753 4.58821,6.55998 0.0878,0.54571 0.24582,0.99219 0.35113,0.99219 0.25866,0 0.56837,-4.57233 0.3219,-4.7524 -0.39106,-0.28571 -0.82742,-1.60361 -0.68123,-2.05748 0.12458,-0.38678 0.10294,-0.39931 -0.12707,-0.0736 -0.41824,0.59225 -1.13859,-1.32355 -1.29541,-3.4452 -0.10316,-1.3957 -0.0143,-1.99362 0.45999,-3.0962 0.32331,-0.75156 0.86303,-1.54679 1.19938,-1.76717 0.57588,-0.37733 0.66114,-0.35106 1.46177,0.45037 0.46762,0.46809 1.14791,1.49029 1.51176,2.27155 0.84268,1.80946 0.71714,3.43387 -0.46426,6.00694 -0.73896,1.60944 -0.8474,2.13957 -0.8891,4.34654 -0.0261,1.38245 -0.14147,2.66237 -0.25632,2.84428 -0.11485,0.1819 -0.14645,0.33072 -0.0702,0.33072 0.32063,0 0.71781,-1.17071 1.05771,-3.11768 0.46093,-2.64026 1.18851,-4.05556 2.95988,-5.75756 1.59231,-1.52996 3.32057,-2.23725 5.46664,-2.23725 h 1.32876 l -0.13994,1.74339 c -0.20046,2.49731 -1.62302,5.30704 -3.31623,6.54998 -1.58784,1.16558 -3.31462,1.86354 -4.11405,1.6629 -0.36409,-0.0914 -0.82692,0.007 -1.12455,0.23994 -0.47418,0.37053 -0.45618,0.38558 0.28795,0.24087 0.69245,-0.13466 0.658,-0.0897 -0.26997,0.35268 -0.62842,0.29954 -1.20727,0.82123 -1.41449,1.27478 -0.40638,0.88946 -0.83791,4.96756 -0.79864,7.54738 0.0338,2.22045 -0.19262,2.62756 -1.22107,2.19558 z"
       id="path26821" />
    <path
       style="fill:#5c8653"
       d="m 206.3506,215.76915 c 0,-0.10645 0.26019,-0.31107 0.5782,-0.45472 0.318,-0.14364 0.63111,-0.42658 0.69578,-0.62873 0.0782,-0.24436 0.004,-0.29717 -0.2222,-0.15756 -0.21596,0.13347 -0.27465,0.1046 -0.16105,-0.0792 0.0983,-0.15906 0.41479,-0.24374 0.7033,-0.18818 0.71521,0.13774 1.36726,-1.13595 1.14653,-2.2396 -0.17756,-0.88778 -1.20286,-1.8627 -1.95897,-1.8627 -0.25848,0 -0.79244,0.38325 -1.18658,0.85166 -0.64707,0.76899 -0.70176,0.99387 -0.56347,2.31693 0.0892,0.85341 0.0376,1.63024 -0.1236,1.86032 -0.22016,0.31426 -0.25041,0.2746 -0.14795,-0.19391 0.0709,-0.32393 0.0323,-1.01679 -0.0856,-1.53969 -0.73481,-3.25806 2.98046,-5.00363 4.22985,-1.98734 0.51772,1.2499 0.14996,2.50472 -0.99518,3.39561 -1.04849,0.8157 -1.90905,1.22461 -1.90905,0.90711 z"
       id="path26819" />
    <path
       style="fill:#5c8653"
       d="m 196.098,226.69504 c 0,-0.35842 0.1624,-0.78646 0.36089,-0.95119 0.19848,-0.16473 0.30177,-0.39517 0.22951,-0.51208 -0.18728,-0.30302 1.2229,-3.45901 1.80623,-4.04233 0.2687,-0.26871 0.41982,-0.66768 0.3358,-0.88662 -0.084,-0.21893 -0.16842,-0.53714 -0.18758,-0.70714 -0.0191,-0.17 -0.12254,0.10763 -0.22975,0.61695 l -0.19492,0.92604 -0.0348,-1.11892 c -0.0502,-1.61086 0.93934,-4.37605 2.01601,-5.6339 0.50736,-0.59273 0.98666,-1.0135 1.06511,-0.93504 0.0785,0.0785 0.27267,0.041 0.43158,-0.0832 0.15891,-0.12419 0.6126,-0.30308 1.0082,-0.39753 0.64342,-0.15361 0.74386,-0.0807 0.95235,0.69112 0.25859,0.95728 0.21886,1.13186 -0.19881,0.87373 -0.15521,-0.0959 -0.28219,-0.46663 -0.28219,-0.8238 0,-0.64584 -0.005,-0.64718 -0.99219,-0.2454 -1.21701,0.49553 -2.81184,2.13623 -2.60372,2.67859 0.0827,0.21537 0.0563,0.33352 -0.0585,0.26254 -0.25482,-0.15749 -0.97561,2.17428 -0.74377,2.40612 0.0907,0.0907 0.16489,-0.0335 0.16489,-0.27608 0,-0.24254 0.1318,-0.44098 0.29289,-0.44098 0.16109,0 0.22436,0.1786 0.14059,0.39688 -0.0838,0.21828 -0.0328,0.39687 0.1133,0.39687 0.17486,0 0.17203,0.17482 -0.008,0.51178 -0.15064,0.28147 -0.27389,0.59988 -0.27389,0.70757 0,0.30486 1.31517,-0.99714 1.89982,-1.8808 l 0.52516,-0.79375 -0.62711,0.7276 c -0.81552,0.94619 -1.1805,0.91936 -1.32977,-0.0977 -0.11932,-0.81296 -0.11469,-0.81679 0.30866,-0.25553 l 0.4298,0.5698 0.76914,-0.80281 c 0.77479,-0.8087 1.54749,-1.14427 0.93472,-0.40593 -0.38423,0.46297 -0.17618,0.50978 0.54656,0.12298 0.28147,-0.15064 0.51177,-0.49809 0.51177,-0.77211 0,-0.27402 0.0761,-0.69653 0.16911,-0.93891 0.13205,-0.34411 0.21592,-0.36497 0.38267,-0.0952 0.13165,0.21302 -0.0784,0.85573 -0.54756,1.67583 -0.41861,0.73166 -0.75537,1.38982 -0.74835,1.46258 0.0204,0.21138 -0.80588,2.11667 -0.91794,2.11667 -0.0559,0 -0.0782,-0.26789 -0.0497,-0.59532 0.11043,-1.26819 -0.4266,-1.12502 -1.51536,0.404 l -0.55664,0.78172 0.55766,-0.29844 c 0.30671,-0.16415 0.6782,-0.50535 0.82552,-0.75823 0.14733,-0.25288 0.27149,-0.32732 0.27592,-0.16543 0.0104,0.38233 -1.55357,2.35149 -1.86769,2.35149 -0.13251,0 -0.24093,0.0893 -0.24093,0.19844 0,0.10914 0,0.28024 0,0.38023 0,0.1 0.365,-0.16791 0.81112,-0.59532 0.44612,-0.4274 0.8926,-0.7618 0.99219,-0.74309 0.28361,0.0533 1.65343,-1.17315 1.57457,-1.40973 -0.0388,-0.11648 0.0485,-0.27131 0.19399,-0.34407 0.43698,-0.21849 1.31095,-1.16168 1.34387,-1.45032 0.0169,-0.14821 0.0489,-0.60392 0.071,-1.01269 0.0222,-0.40877 0.15587,-0.6718 0.29713,-0.5845 0.14125,0.0873 0.33454,-0.15089 0.42952,-0.52933 0.11341,-0.45186 0.30244,-0.63827 0.55066,-0.54302 0.20789,0.0798 0.31507,0.0433 0.2382,-0.0811 -0.21028,-0.34023 1.69402,-2.66161 2.54395,-3.10113 0.88255,-0.45639 0.98926,-0.0835 0.21417,0.74848 -0.29104,0.31239 -0.52916,0.47143 -0.52916,0.35341 0,-0.11802 -0.1786,-0.0664 -0.39688,0.1148 -0.21828,0.18116 -0.39687,0.54919 -0.39687,0.81784 0,0.31926 -0.13365,0.43719 -0.3858,0.34043 -0.26478,-0.10161 -0.43679,0.0877 -0.54835,0.60361 -0.40753,1.88438 -1.10294,2.86912 -3.7758,5.34673 -1.51224,1.40177 -2.85709,2.51892 -2.98854,2.48254 -0.13146,-0.0364 -0.23901,0.0529 -0.23901,0.19843 0,0.14552 -0.10513,0.26459 -0.23362,0.26459 -0.19376,0 -0.21612,-0.72588 -0.06,-1.94654 0.0159,-0.12471 0.20153,-0.16054 0.4124,-0.0796 0.25045,0.0961 0.33461,0.02 0.24269,-0.21957 -0.22658,-0.59046 -0.72476,-0.20433 -1.20376,0.93304 -0.24497,0.58164 -0.33426,0.98886 -0.19844,0.90491 0.23566,-0.14564 0.29966,2.3e-4 0.324,0.73851 0.0165,0.50191 -0.60065,1.8797 -0.76735,1.713 -0.0805,-0.0805 -0.01,-0.40125 0.15685,-0.71282 0.16675,-0.31158 0.25851,-0.70052 0.20391,-0.86433 -0.0546,-0.1638 -0.37463,0.38061 -0.71118,1.2098 -0.69291,1.70723 -1.0098,2.05301 -1.0098,1.10186 z"
       id="path26811" />
    <path
       style="fill:#5c8653"
       d="m 197.02198,210.26664 c -0.19349,-0.19348 2.78494,-3.34538 4.99373,-5.2846 1.16497,-1.02278 1.59919,-1.28394 1.49923,-0.90171 -0.0774,0.29594 -0.36324,0.69394 -0.63521,0.88444 -0.27198,0.1905 -0.40597,0.43491 -0.29776,0.54312 0.10822,0.10822 0.0236,0.15707 -0.18809,0.10856 -0.21167,-0.0485 -0.40515,0.0606 -0.42995,0.24254 -0.0248,0.1819 -0.0741,0.42002 -0.10951,0.52916 -0.0354,0.10914 -0.0473,0.29659 -0.0265,0.41654 0.0208,0.11996 -0.0899,0.13913 -0.2461,0.0426 -0.19742,-0.122 -0.1833,-0.30948 0.0463,-0.61498 0.18165,-0.2417 -0.22929,0.0913 -0.9132,0.74011 -1.22888,1.16573 -1.49392,1.59855 -0.97888,1.59855 0.14552,0 0.26458,-0.17156 0.26458,-0.38126 0,-0.55526 0.44721,-0.74312 0.6307,-0.26493 0.0899,0.23426 0.0452,0.34001 -0.10456,0.24745 -0.14386,-0.0889 -0.26156,0.0112 -0.26156,0.22253 0,0.48636 -0.72031,0.78225 -0.87587,0.35979 -0.0888,-0.24126 -0.19912,-0.23775 -0.46689,0.0149 -0.29015,0.27373 -0.28445,0.33235 0.0331,0.34011 0.21786,0.005 0.0978,0.17853 -0.27782,0.40083 -0.64496,0.3817 -0.63506,0.3876 0.39688,0.23671 3.7485,-0.54813 5.74066,-1.48135 7.37336,-3.45404 0.75984,-0.91807 1.95382,-3.18562 2.2845,-4.33861 0.27063,-0.94365 0.0185,-1.05731 -2.33731,-1.05349 -2.91253,0.005 -4.63441,0.68299 -6.79888,2.67813 -1.22453,1.12873 -2.65869,3.95088 -2.37696,4.67738 0.15256,0.39337 0.21112,0.39935 0.48945,0.05 0.17388,-0.21828 0.61187,-0.63415 0.97329,-0.92415 l 0.65713,-0.52727 -0.66146,0.78888 c -0.3638,0.43389 -0.99289,1.12252 -1.39798,1.53029 -0.63999,0.64423 -0.76689,1.24892 -0.2621,1.24892 0.0884,0 0.0904,-0.0704 0.004,-0.15641 z"
       id="path26808" />
    <path
       style="fill:#5c8653"
       d="m 192.42034,210.54745 c -0.0949,-0.24716 -0.34048,-0.34599 -0.63089,-0.25382 -0.26156,0.083 -0.5513,0.0284 -0.64387,-0.12137 -0.10203,-0.1651 0.0194,-0.21367 0.30847,-0.12337 0.8372,0.26156 -2.08339,-2.23142 -4.60888,-3.93407 -1.3419,-0.9047 -2.28702,-1.67908 -2.10028,-1.72086 0.40223,-0.09 4.40473,2.5101 5.73377,3.72475 2.3972,2.19086 2.29398,2.12578 2.4465,1.54253 0.0803,-0.30724 -0.0699,-0.74699 -0.36242,-1.06102 -0.53697,-0.57637 -0.66666,-0.95746 -0.23506,-0.69071 0.14553,0.0899 0.26459,0.093 0.26459,0.007 0,-0.27968 -1.29227,-2.71562 -1.64327,-3.09756 -0.18761,-0.20415 -0.47355,-0.60428 -0.63543,-0.88918 -0.16188,-0.28489 -0.51907,-0.51815 -0.79375,-0.51834 -0.27469,-1.9e-4 -0.49943,-0.17211 -0.49943,-0.38204 0,-1.03462 -4.02481,-2.18791 -6.72877,-1.9281 l -1.35216,0.12993 0.16608,0.95799 c 0.19171,1.10579 1.55764,4.18205 2.15545,4.85435 0.22339,0.25123 0.52771,0.38166 0.67627,0.28985 0.15998,-0.0989 0.1887,-0.0352 0.0704,0.15613 -0.23474,0.37982 0.29862,0.82127 1.96999,1.63051 1.80663,0.87473 2.13108,0.98739 3.70416,1.28617 0.80037,0.15202 1.69333,0.32328 1.98438,0.3806 0.29104,0.0573 0.61472,0.11801 0.7193,0.13489 0.10457,0.0169 0.12024,-0.15145 0.0348,-0.37407 z"
       id="path26807" />
    <path
       style="fill:#5c8653"
       d="m 183.59644,216.12004 c 0,-0.0681 -0.32743,-0.30147 -0.72761,-0.51857 -0.40018,-0.21711 -0.5642,-0.3995 -0.36448,-0.40533 0.30778,-0.009 0.30778,-0.0778 0,-0.45136 -0.32822,-0.39839 -0.28997,-0.42253 0.39789,-0.25115 0.70807,0.17641 0.75204,0.14265 0.632,-0.48528 -0.071,-0.37119 -0.0265,-0.67489 0.0989,-0.67489 0.12534,0 0.22789,-0.17299 0.22789,-0.38442 0,-1.37958 -1.74606,-2.84993 -3.26301,-2.74777 -1.17536,0.0792 -1.6441,0.96409 -1.37,2.58648 0.17407,1.03031 0.64634,1.74066 0.68103,1.02435 0.009,-0.19049 0.12445,-0.0784 0.25606,0.24897 0.23619,0.58762 1.05009,0.84396 1.05009,0.33073 0,-0.14552 -0.11907,-0.26459 -0.26459,-0.26459 -0.14552,0 -0.26458,-0.12609 -0.26458,-0.28019 0,-0.15411 0.11906,-0.20662 0.26458,-0.11668 0.14552,0.0899 0.26459,0.0374 0.26459,-0.11668 0,-0.15411 0.13364,-0.2802 0.29698,-0.2802 0.20518,0 0.19517,0.12267 -0.0324,0.39688 -0.18116,0.21828 -0.22438,0.39687 -0.096,0.39687 0.12833,0 0.38854,0.24853 0.57824,0.5523 0.31819,0.5095 0.2975,0.53962 -0.26708,0.38875 -0.3366,-0.09 -0.0762,0.13239 0.57863,0.49408 1.32532,0.73202 1.32292,0.73101 1.32292,0.5577 z"
       id="path26806" />
    <path
       style="fill:#5c8653"
       d="m 195.99002,212.15772 c 0.42121,-1.5048 0.17132,-1.47133 -0.57567,0.0771 -0.63035,1.30665 -0.64131,1.43548 -0.42464,4.99027 0.12233,2.00694 0.24702,3.70852 0.27709,3.78128 0.0301,0.0728 0.13938,-1.65365 0.24291,-3.83646 0.10353,-2.18281 0.31967,-4.4383 0.48031,-5.0122 z"
       id="path26805" />
    <path
       style="fill:#5c8653"
       d="m 188.62191,222.63172 c -8.9e-4,-0.0936 -0.54467,-0.94404 -1.2084,-1.88992 -0.66374,-0.94589 -1.50504,-2.17753 -1.86957,-2.73698 -0.36453,-0.55945 -0.73069,-0.94928 -0.81368,-0.86629 -0.083,0.083 0.0149,0.35466 0.21753,0.6037 0.32734,0.4023 0.31262,0.43185 -0.13201,0.26492 -0.42348,-0.15899 -0.44938,-0.12636 -0.16846,0.21214 0.1826,0.22001 0.45596,0.3234 0.60747,0.22975 0.16152,-0.0998 0.19615,-0.0419 0.0837,0.14004 -0.10547,0.17065 0.0671,0.72914 0.38349,1.24108 0.4928,0.79737 0.63549,0.88201 0.99543,0.59048 0.26297,-0.21298 0.35101,-0.22495 0.23532,-0.032 -0.10167,0.16958 0.1136,0.66302 0.47837,1.09653 0.36478,0.43351 0.66264,0.94961 0.66192,1.14688 -7.3e-4,0.19728 -0.30822,0.001 -0.68333,-0.43506 l -0.68201,-0.79375 0.56054,0.84794 c 0.35188,0.5323 0.70474,0.79261 0.94791,0.6993 0.21305,-0.0818 0.38664,-0.22521 0.38576,-0.31878 z"
       id="path26804" />
    <path
       style="fill:#5c8653"
       d="m 195.29726,222.49105 c -0.19626,-1.13374 -0.23504,-0.8177 -0.23991,1.95491 -0.006,3.22638 6e-5,3.25947 0.2341,1.35238 0.14062,-1.14584 0.14303,-2.51463 0.006,-3.30729 z"
       id="path26803" />
    <path
       style="fill:#5c8653"
       d="m 194.60595,241.86935 c -0.0754,-0.48781 -0.18843,-2.23916 -0.25117,-3.89188 -0.0924,-2.43407 -0.2114,-3.13778 -0.62637,-3.70416 -0.65564,-0.89487 -2.08626,-1.62433 -3.18666,-1.62485 -0.47295,-2.3e-4 -0.8599,-0.11199 -0.8599,-0.24836 0,-0.30357 1.67824,-0.0695 2.82434,0.39385 0.70494,0.28501 0.8631,0.27932 0.98388,-0.0354 0.16778,-0.43722 -0.0652,-1.1688 -0.37217,-1.1688 -0.11633,0 -0.14924,0.23813 -0.0731,0.52917 0.0761,0.29104 0.0239,0.52917 -0.11605,0.52917 -0.13994,0 -0.46994,-0.23813 -0.73333,-0.52917 -0.33407,-0.36915 -0.37403,-0.52917 -0.13214,-0.52917 0.19071,0 8e-4,-0.29751 -0.42202,-0.66113 -0.92112,-0.79217 -1.71362,-0.93629 -1.13188,-0.20583 0.34124,0.42847 -0.0339,0.18545 -1.75354,-1.13588 -0.93511,-0.71852 -3.62514,-2.23049 -3.96841,-2.23049 -0.18283,0 -0.48064,-0.17859 -0.6618,-0.39688 -0.51643,-0.62225 0.044,-0.47263 1.9491,0.52037 0.96786,0.50448 2.36059,0.99694 3.09495,1.09436 1.18194,0.15679 1.46038,0.32556 2.42559,1.47025 0.77873,0.92353 1.1515,1.19681 1.30424,0.95616 0.11762,-0.18533 0.21385,-0.45603 0.21385,-0.60155 0,-0.14552 -0.11541,-0.086 -0.25648,0.13229 -0.1533,0.23721 -0.25811,0.27039 -0.26053,0.0825 -0.002,-0.17292 -0.36094,-0.70515 -0.79714,-1.18273 -0.53513,-0.58589 -0.74124,-1.03171 -0.63368,-1.37062 0.15583,-0.49096 0.14075,-0.49126 -0.66845,-0.0132 -1.12239,0.66301 -1.76346,0.2664 -1.68491,-1.0424 0.0499,-0.83101 -0.0955,-1.06566 -1.26863,-2.04788 -1.53872,-1.28828 -3.11619,-2.1527 -3.49792,-1.91677 -0.14648,0.0905 -0.18868,0.0389 -0.0938,-0.11462 0.2833,-0.45838 -2.38076,-0.95241 -5.25018,-0.97361 -3.63345,-0.0269 -3.67488,-0.001 -2.84336,1.74684 1.23511,2.59678 3.4652,5.50964 4.21818,5.50964 0.18974,0 0.34498,0.0942 0.34498,0.20931 0,0.64626 4.10867,2.10426 7.54062,2.67586 l 1.5875,0.26441 -2.06163,-0.13162 c -5.5612,-0.35504 -9.59643,-3.20204 -12.00968,-8.47328 -0.49561,-1.08256 -0.59504,-1.5477 -0.37736,-1.76538 0.16256,-0.16256 1.41773,-0.34464 2.78927,-0.40462 3.22285,-0.14096 5.8317,0.42307 8.07521,1.74583 2.03921,1.20231 4.71282,3.73868 4.24545,4.02753 -0.22933,0.14174 -0.23734,0.24995 -0.0281,0.3793 0.16106,0.0995 0.29283,0.0479 0.29283,-0.11484 0,-0.16269 0.13182,-0.21434 0.29293,-0.11477 0.1996,0.12336 0.23522,-0.0192 0.11181,-0.44741 -0.14052,-0.48758 -0.0594,-0.4367 0.36193,0.227 0.29868,0.4705 0.47838,1.024 0.39932,1.23001 -0.17193,0.44806 0.31171,0.81981 0.55481,0.42645 0.0934,-0.15117 -0.13647,-0.82295 -0.51088,-1.49285 -0.37441,-0.66989 -0.68075,-1.36527 -0.68075,-1.54527 0,-0.18786 -0.30987,-0.31455 -0.72742,-0.2974 -0.40008,0.0164 -0.72997,-0.0892 -0.7331,-0.23472 -0.003,-0.14552 -0.51154,-0.80036 -1.12979,-1.4552 -0.61826,-0.65485 -2.13352,-2.68951 -3.36724,-4.52148 -2.00799,-2.98172 -2.35757,-3.36863 -3.33499,-3.69121 -2.10513,-0.69475 -3.16873,-2.45933 -2.76845,-4.59302 0.2353,-1.25426 0.70707,-1.56909 2.01907,-1.34743 1.2682,0.21426 2.65055,1.32297 3.26566,2.61921 0.47124,0.99307 0.58878,2.93435 0.16168,2.67039 -0.14553,-0.0899 -0.26459,0.0887 -0.26459,0.39687 0,0.30822 0.11399,0.48995 0.25332,0.40384 0.13932,-0.0861 0.45237,0.22837 0.69566,0.69884 0.58682,1.1348 3.59838,5.59329 3.93944,5.83219 0.16428,0.11507 0.0636,0.35435 -0.2595,0.61691 -0.40637,0.33019 -0.42575,0.39712 -0.0842,0.29075 0.24402,-0.076 0.60121,0.0631 0.79375,0.30913 0.31459,0.40196 0.30314,0.41049 -0.11295,0.0842 -0.79953,-0.62703 -0.50346,-0.0631 0.39688,0.75598 1.16731,1.06192 1.43653,0.99815 0.57188,-0.13547 -0.3915,-0.51328 -0.64361,-1.00146 -0.56024,-1.08483 0.22339,-0.22338 0.71596,0.14427 0.71596,0.53438 0,0.18544 0.1786,0.33717 0.39688,0.33717 0.40706,0 0.55436,-0.57339 0.19843,-0.77244 -0.10914,-0.061 -0.0508,-0.0752 0.1296,-0.0314 0.18042,0.0438 0.39872,-0.24363 0.48512,-0.63867 0.0864,-0.39505 0.20147,-0.86328 0.25572,-1.04052 0.0542,-0.17724 -0.0152,-0.39263 -0.15439,-0.47864 -0.13916,-0.086 -0.2512,-0.29818 -0.24897,-0.47149 0.002,-0.19417 0.11226,-0.16279 0.28598,0.0818 0.21435,0.30174 0.24087,0.21048 0.11065,-0.38074 -0.22672,-1.02927 -1.16105,-2.31696 -1.52013,-2.09504 -0.15934,0.0985 -0.20947,0.0537 -0.11358,-0.10145 0.26328,-0.426 -0.45133,-0.58102 -0.96087,-0.20844 -0.52772,0.38588 -0.56156,0.80473 -0.15845,1.96109 0.22786,0.65367 0.40532,0.80639 0.79375,0.68311 0.35065,-0.11129 0.50026,-0.0301 0.50026,0.27154 0,0.26118 -0.12167,0.35513 -0.30954,0.23901 -0.21873,-0.13518 -0.24756,-0.0427 -0.0983,0.31512 0.1162,0.27853 0.27469,0.80408 0.35219,1.16788 0.12596,0.59121 0.0942,0.62289 -0.2986,0.29833 -0.37254,-0.30778 -0.44207,-0.30778 -0.45622,0 -0.009,0.19972 -0.28975,-0.47603 -0.62348,-1.50166 -0.7343,-2.25669 -0.6416,-3.37243 0.31649,-3.80896 0.57303,-0.26109 0.79365,-0.23093 1.36356,0.1864 1.53225,1.12202 1.99043,3.33867 1.18109,5.71396 -0.34619,1.016 -0.49319,1.19023 -0.79375,0.94078 -0.36854,-0.30586 -0.533,0.0355 -0.18484,0.38367 0.10123,0.10123 0.20919,0.32943 0.23991,0.50712 0.0307,0.17769 0.62928,1.51369 1.33013,2.9689 0.95685,1.98675 1.28613,2.98626 1.32187,4.01243 0.0457,1.31316 0.60077,2.99082 0.62017,1.87455 0.004,-0.25466 -0.1256,-0.46302 -0.28894,-0.46302 -0.21823,0 -0.21895,-0.094 -0.003,-0.35456 0.20711,-0.24955 0.27547,-3.33842 0.23083,-10.42985 l -0.0634,-10.07529 -0.64473,-0.68615 c -0.49745,-0.52942 -0.573,-0.75788 -0.33072,-1.00015 0.41214,-0.41214 0.4022,-0.81083 -0.0167,-0.67119 -0.1819,0.0606 -0.33614,0.27892 -0.34275,0.48507 -0.007,0.20616 -0.18521,0.33308 -0.39688,0.28204 -0.21167,-0.051 -1.19277,-0.20663 -2.18022,-0.34579 -5.32768,-0.7508 -8.54707,-3.57355 -9.50269,-8.33194 -0.3578,-1.78159 -0.20276,-1.93525 1.95848,-1.94105 4.5777,-0.0123 7.40268,1.74611 9.48318,5.90281 0.57586,1.15055 1.04703,2.24489 1.04703,2.43187 0,0.18699 0.29568,0.97687 0.65708,1.7553 0.36139,0.77844 0.59888,1.65346 0.52777,1.94451 -0.0865,0.35402 -0.0209,0.31023 0.19811,-0.1323 0.18008,-0.3638 0.4486,-0.80615 0.59671,-0.983 0.57015,-0.6808 0.79983,-1.03128 0.83638,-1.27629 0.0209,-0.13984 0.29193,-1.18993 0.60239,-2.33354 1.29575,-4.77303 4.59129,-7.28287 9.65336,-7.35186 1.21745,-0.0166 2.35319,0.0561 2.52386,0.16162 0.73261,0.45278 -0.89891,4.18471 -2.66898,6.10501 -0.58641,0.63618 -1.58235,1.45917 -2.2132,1.82887 -1.14031,0.66827 -4.56008,1.62412 -4.83326,1.35094 -0.0787,-0.0786 -0.30419,-0.009 -0.50121,0.15431 -0.19703,0.16351 -0.74211,0.4899 -1.21129,0.72531 -0.46919,0.2354 -0.98443,0.69523 -1.14498,1.02182 -0.42064,0.85566 -0.75063,16.94754 -0.35727,17.42152 0.31687,0.3818 0.13271,2.09104 -0.29734,2.75987 -0.1776,0.27621 -0.25026,0.002 -0.24679,-0.93145 0.003,-0.72761 -0.0935,-1.79917 -0.21382,-2.38125 -0.18469,-0.89356 -0.2485,-0.97039 -0.40985,-0.49346 -0.1051,0.31069 -0.076,1.077 0.0646,1.70291 0.17211,0.76598 0.16498,1.30754 -0.0218,1.65651 -0.15262,0.28517 -0.22233,1.09247 -0.15493,1.79401 0.0674,0.70153 0.0432,1.30925 -0.0539,1.35048 -0.097,0.0412 -0.10113,1.80137 -0.009,3.91142 0.17019,3.90241 0.14321,4.72643 -0.10266,3.13589 z"
       id="path26802" />
    <path
       style="fill:#5c8653"
       d="m 197.56459,232.31737 c 0.10288,0.0364 0.18875,-0.0231 0.19082,-0.13229 0.006,-0.32022 1.2728,-1.67793 1.84832,-1.98108 0.5181,-0.27291 0.51891,-0.26719 0.039,0.27362 -0.2696,0.3038 -0.44819,0.66135 -0.39688,0.79457 0.13691,0.35542 4.71739,-0.65465 7.10731,-1.56728 2.61803,-0.99973 4.57337,-2.93104 5.99209,-5.91845 0.95142,-2.00342 0.98162,-2.23069 0.31346,-2.35844 -0.19524,-0.0373 -0.8822,-0.21729 -1.5266,-0.39991 -0.64439,-0.18263 -1.65642,-0.27005 -2.24896,-0.19427 -2.25272,0.28809 -4.0217,0.66908 -4.95015,1.06614 -1.16367,0.49765 -3.476,2.74339 -3.23172,3.13864 0.0987,0.15969 0.051,0.20639 -0.1094,0.10723 -0.16541,-0.10223 -0.61426,0.43366 -1.07367,1.28187 -0.43419,0.80165 -0.69297,1.39792 -0.57507,1.32505 0.11791,-0.0729 0.14943,0.11587 0.0701,0.41941 -0.0885,0.33829 -0.21476,0.43793 -0.32631,0.25744 -0.11192,-0.18109 -0.29934,-0.0369 -0.48679,0.37451 -0.20106,0.44128 -0.21157,0.66897 -0.0309,0.66897 0.15066,0 0.0886,0.26461 -0.13796,0.58803 -0.66276,0.94622 -0.47794,0.98589 0.47607,0.10219 0.59847,-0.55437 0.79255,-0.89534 0.59531,-1.04591 -0.17675,-0.13493 -0.10263,-0.16187 0.18717,-0.068 0.55396,0.1794 2.4015,-0.96147 2.09848,-1.29582 -0.10837,-0.11957 -0.0625,-0.14058 0.10199,-0.0467 0.16447,0.0939 1.38249,-0.54185 2.70671,-1.41279 1.32422,-0.87094 2.62436,-1.58352 2.8892,-1.58352 0.26484,0 0.64842,-0.14883 0.85241,-0.33073 0.31552,-0.28136 0.31859,-0.26162 0.0205,0.13229 -0.1927,0.25466 -0.49616,0.46302 -0.67434,0.46302 -0.17819,0 -1.32447,0.66964 -2.54729,1.48809 -2.8173,1.88566 -3.41394,2.35766 -3.41394,2.70073 0,0.15192 -0.21559,0.25997 -0.47909,0.24012 -0.65328,-0.0492 -2.28103,0.99081 -2.80693,1.79343 -0.23669,0.36124 -0.58774,0.6568 -0.78012,0.6568 -0.19237,0 -0.55409,0.22577 -0.80382,0.50172 -0.35141,0.3883 -0.37563,0.53096 -0.10715,0.63103 0.19079,0.0711 0.50085,-0.0654 0.68902,-0.30329 0.18816,-0.23793 0.42629,-0.40282 0.52916,-0.36644 z"
       id="path26787" />
    <path
       style="fill:#5c8653"
       d="m 197.63359,241.49403 c 0.95223,-0.98549 4.15824,-2.66226 5.61924,-2.93891 0.46685,-0.0884 1.05717,-0.26721 1.31183,-0.39735 0.26049,-0.13312 0.46302,-0.1354 0.46302,-0.005 0,0.25077 -1.15972,0.84553 -1.6487,0.84553 -0.16549,0 -0.78497,0.22254 -1.37661,0.49454 -0.59165,0.272 -1.44899,0.63796 -1.90521,0.81325 -0.45622,0.17529 -1.27485,0.72665 -1.81919,1.22525 -1.30717,1.19732 -1.8092,1.16841 -0.64438,-0.0371 z"
       id="path26786" />
    <path
       style="fill:#5c8653"
       d="m 199.58408,243.07047 c 2.11159,0.20445 2.79449,0.16877 4.23558,-0.22132 1.69559,-0.45897 3.65889,-1.51504 4.87415,-2.62182 0.73561,-0.66995 2.09742,-2.58829 2.20891,-3.11163 0.043,-0.20161 0.18579,-0.4445 0.31743,-0.53975 0.28589,-0.20687 -1.58668,-1.06813 -3.35916,-1.54502 -1.67178,-0.44979 -4.54395,-0.19977 -6.15943,0.53616 -1.80227,0.82103 -4.73981,3.9904 -4.58271,4.94437 0.0187,0.11354 0.0115,0.38502 -0.0159,0.6033 -0.0359,0.28508 -0.11606,0.24782 -0.28469,-0.13229 -0.17423,-0.39273 -0.21183,-0.25629 -0.14584,0.52917 0.0489,0.58208 -0.0454,1.22824 -0.20966,1.43591 -0.24389,0.30841 -0.21593,0.33193 0.15264,0.12838 0.28059,-0.15497 1.40319,-0.15704 2.96871,-0.005 z"
       id="path26785" />
    <path
       style="fill:#5c8653"
       d="m 194.98335,250.26875 c -0.15093,-0.39697 -0.27442,-0.95214 -0.27442,-1.23371 0,-0.28157 -0.11906,-0.51194 -0.26458,-0.51194 -0.14898,0 -0.26458,-0.74392 -0.26458,-1.70257 0,-1.9949 -0.29239,-2.9146 -1.05665,-3.32362 -0.32403,-0.17341 -2.21807,-0.31694 -4.57673,-0.34681 -4.00952,-0.0508 -4.03001,-0.0541 -5.72799,-0.94013 -2.00243,-1.04483 -4.42943,-3.38362 -5.25017,-5.05935 -0.55076,-1.12452 -0.55702,-1.20814 -0.12061,-1.61259 1.47813,-1.36987 5.95155,-2.16027 8.44528,-1.49218 1.90694,0.51088 3.98362,1.85702 5.30272,3.43733 1.31534,1.57579 3.17811,5.1526 2.82881,5.43175 -0.13285,0.10616 -0.21744,0.1471 -0.18799,0.091 0.17209,-0.32798 -0.78585,-0.84598 -1.27649,-0.69025 -0.34623,0.10988 -0.50052,0.0774 -0.4006,-0.0842 0.21411,-0.34644 -0.52164,-0.94744 -0.88496,-0.72289 -0.1555,0.0961 -0.25002,0.0204 -0.21003,-0.16817 0.0426,-0.20092 -1.15976,-0.98792 -2.90386,-1.90071 -1.63711,-0.8568 -2.97656,-1.66484 -2.97656,-1.79565 0,-0.39755 5.89264,2.67198 6.81302,3.54896 0.47294,0.45065 0.85989,0.71237 0.85989,0.58161 0,-0.13076 -0.38695,-0.65268 -0.85989,-1.15983 -0.82256,-0.88206 -0.8283,-0.90245 -0.1323,-0.46952 1.00999,0.62822 0.96063,0.0719 -0.12649,-1.42573 -1.33949,-1.84526 -2.53821,-2.90267 -4.14446,-3.65586 -1.32259,-0.62018 -1.80224,-0.69574 -4.4164,-0.69574 -2.54986,0 -3.11108,0.0836 -4.29948,0.64054 -0.75175,0.35229 -1.36681,0.81808 -1.36681,1.03508 0,0.66728 1.22705,2.50203 2.42908,3.63208 1.62344,1.52623 2.50387,2.08219 4.3647,2.75616 1.43957,0.5214 2.00729,0.57811 4.7625,0.47571 1.72045,-0.0639 3.3378,-0.20905 3.59411,-0.32247 0.35327,-0.15633 0.42866,-0.10886 0.3116,0.1962 -0.0991,0.25831 0.0419,0.46476 0.39387,0.57646 0.30157,0.0957 0.55013,0.31483 0.55236,0.48692 0.003,0.22431 0.064,0.21852 0.21568,-0.0205 0.11738,-0.1849 0.23996,0.69468 0.27525,1.975 0.035,1.26959 0.16465,2.43164 0.28813,2.58232 0.12348,0.15068 0.27297,0.57161 0.33218,0.93542 0.0703,0.43184 0.18091,0.13823 0.31866,-0.84581 0.12129,-0.86646 0.0995,-2.15438 -0.0513,-3.02939 -0.23718,-1.37666 -0.22428,-1.47283 0.13498,-1.00628 0.37406,0.48576 0.38721,0.46955 0.22548,-0.2779 -0.12585,-0.58168 -0.1,-0.68771 0.0968,-0.39687 0.14771,0.21828 0.27039,0.30338 0.27262,0.18912 0.002,-0.11426 -0.1846,-0.49566 -0.41517,-0.84755 -0.34223,-0.52231 -0.40297,-1.28591 -0.33073,-4.15788 0.0487,-1.93494 0.20756,-3.60554 0.35308,-3.71245 0.16519,-0.12137 0.14354,-0.19591 -0.0576,-0.19844 -0.22276,-0.003 -0.25424,-0.18779 -0.10199,-0.59937 0.12112,-0.32742 0.37526,-0.59531 0.56474,-0.59531 0.18949,0 0.39965,-0.1654 0.46704,-0.36756 0.0744,-0.2231 0.005,-0.29495 -0.17639,-0.18282 -0.1644,0.1016 -0.29891,0.0587 -0.29891,-0.0955 0,-0.15411 -0.20836,-0.2896 -0.46302,-0.30109 -0.365,-0.0165 -0.37998,-0.0535 -0.0707,-0.17486 0.65895,-0.25863 1.43119,-1.40765 2.02582,-3.01418 1.26289,-3.41203 3.68926,-6.75547 5.63133,-7.75975 2.67899,-1.38536 5.96892,-1.79618 8.62549,-1.07708 0.94585,0.25603 1.76814,0.54384 1.82731,0.63958 0.0592,0.0957 -0.41165,1.25365 -1.04627,2.57313 -1.59309,3.31231 -3.40708,4.99995 -6.62639,6.16483 -1.2686,0.45903 -3.27172,1.02311 -4.45139,1.2535 -3.58909,0.70098 -5.26528,2.03927 -5.57331,4.44981 -0.24698,1.93283 -0.32697,6.77434 -0.11409,6.9059 0.3332,0.20594 0.75145,-0.80433 0.58946,-1.4238 -0.36551,-1.3977 2.73826,-4.95893 5.41267,-6.21043 1.5564,-0.72833 1.82933,-0.77223 4.1018,-0.65975 2.6137,0.12936 5.53831,1.06489 5.68334,1.81799 0.0991,0.51472 -1.28554,2.58019 -2.63318,3.92783 -0.59318,0.59318 -1.98194,1.52417 -3.08612,2.06886 l -2.00761,0.99035 h -3.54858 c -4.41925,0 -4.31989,-0.0928 -4.48498,4.18982 -0.11956,3.10144 -0.37692,3.9333 -0.84004,2.71521 z"
       id="path26784" />
    <path
       style="fill:#5c8653"
       d="m 185.97769,254.37587 c 0,-0.11236 0.32657,-0.49293 0.72571,-0.84572 0.52669,-0.46553 0.59925,-0.4906 0.26458,-0.0914 -0.25362,0.3025 -0.46113,0.62818 -0.46113,0.72372 0,0.0956 3.54211,0.20847 7.87136,0.25092 l 7.87135,0.0772 -8.13594,0.0448 c -4.47476,0.0246 -8.13593,-0.0471 -8.13593,-0.15948 z"
       id="path26782" />
    <path
       style="fill:#557749"
       d="m 196.05843,194.36473 c -0.0146,-0.46462 0.21093,-1.24731 0.50121,-1.7393 0.63972,-1.08425 1.31751,-3.24213 1.32143,-4.20701 0.002,-0.38812 -0.2336,-1.25732 -0.52262,-1.93156 -0.28901,-0.67425 -0.41745,-1.15914 -0.28542,-1.07754 0.13203,0.0816 0.44452,0.68373 0.69441,1.33807 0.57779,1.51292 0.3911,3.30758 -0.53397,5.13312 -0.37415,0.73836 -0.78562,1.78943 -0.91437,2.33573 l -0.23409,0.99327 z"
       id="path26639" />
    <path
       style="fill:#557749"
       d="m 199.11313,198.5792 c -0.0687,-0.1112 0.21217,-0.21595 0.62422,-0.23279 1.05397,-0.0431 3.53907,-1.52988 4.49579,-2.68977 1.0006,-1.21309 1.88669,-3.467 2.04809,-5.20963 l 0.12252,-1.32292 -1.01876,-0.0785 c -3.21121,-0.24749 -6.87802,2.74216 -8.04686,6.5608 -0.16474,0.53822 -0.20622,0.56287 -0.22262,0.13229 -0.0369,-0.96889 1.25433,-3.28499 2.51386,-4.5091 1.79565,-1.74517 3.06684,-2.32722 5.13373,-2.35061 l 1.71979,-0.0195 0.0812,0.97614 c 0.10799,1.29884 -0.55583,3.45244 -1.59029,5.15929 -0.92455,1.52551 -2.49412,2.79496 -4.1998,3.39676 -1.25982,0.44449 -1.48621,0.47005 -1.66083,0.1875 z"
       id="path26638" />
    <path
       style="fill:#557749"
       d="m 203.40481,208.69793 c 2.57846,-1.474 4.24996,-3.44343 5.21285,-6.14198 0.19555,-0.54804 0.36077,-0.78469 0.36716,-0.52588 0.0184,0.74759 -1.50028,3.54527 -2.56331,4.72191 -0.90756,1.00457 -3.3117,2.60865 -3.90737,2.60706 -0.14552,-3.8e-4 0.25528,-0.29788 0.89067,-0.66111 z"
       id="path26637" />
    <path
       style="fill:#557749"
       d="m 195.56343,207.77721 c -0.0778,-4.86476 0.6254,-8.1963 1.73199,-8.20613 0.33406,-0.003 0.36599,-0.0613 0.11924,-0.21792 -0.25741,-0.16336 -0.21055,-0.32828 0.19844,-0.69841 0.29448,-0.2665 0.53542,-0.63863 0.53542,-0.82695 0,-0.18832 0.41672,-0.66025 0.92604,-1.04873 0.50932,-0.38848 0.92604,-0.84803 0.92604,-1.02123 0,-0.1732 0.18671,-0.54602 0.4149,-0.82849 0.39449,-0.48833 0.40663,-0.47455 0.24673,0.28016 -0.0925,0.43656 -0.57686,1.21549 -1.07636,1.73094 -0.4995,0.51546 -0.90819,1.06649 -0.90819,1.2245 0,0.15802 -0.26789,0.47955 -0.59531,0.71452 -0.5939,0.42621 -0.59343,0.42687 0.19844,0.27885 0.70693,-0.13215 0.67799,-0.0921 -0.26458,0.36596 -0.58209,0.28289 -1.20945,0.76929 -1.39415,1.08089 -0.34278,0.57832 -0.79122,4.40089 -0.9345,7.96579 -0.0646,1.60834 -0.0882,1.45792 -0.12415,-0.79375 z"
       id="path26636" />
    <path
       style="fill:#557749"
       d="m 194.39675,206.16526 c 0.0732,-3.68245 0.025,-4.32448 -0.35664,-4.74619 -0.24274,-0.26822 -0.36821,-0.60602 -0.27882,-0.75065 0.0894,-0.14464 0.0231,-0.34913 -0.14725,-0.45443 -0.2001,-0.12367 -0.23868,-0.0764 -0.10895,0.1335 0.31373,0.50762 -3.63283,-1.48205 -5.0461,-2.54402 -1.14058,-0.85706 -2.39681,-3.33416 -2.72889,-5.38099 -0.15267,-0.94099 -0.27848,-1.80019 -0.27958,-1.90933 -0.003,-0.33049 1.92098,-0.1834 2.90841,0.22231 0.56011,0.23014 0.66466,0.32532 0.26459,0.24087 -0.3638,-0.0768 -1.16774,-0.21376 -1.78653,-0.30437 l -1.12508,-0.16475 0.149,0.89594 c 0.50497,3.03642 1.24894,4.78283 2.53899,5.96011 1.11956,1.02168 4.38646,2.59135 5.1881,2.49275 0.18385,-0.0226 0.40877,0.15304 0.49984,0.39035 0.35039,0.9131 0.53083,-0.19839 0.20806,-1.2816 -0.18182,-0.61018 -0.48295,-1.80657 -0.66918,-2.65864 -0.41682,-1.90716 -1.44006,-3.36541 -3.08735,-4.39987 -1.32477,-0.83192 -1.42308,-1.05982 -0.1787,-0.41423 1.9747,1.02449 3.26046,2.8944 3.82965,5.56957 0.18577,0.87312 0.41967,1.68229 0.51978,1.79815 0.20868,0.24151 0.5757,-4.19431 0.54283,-6.56065 -0.0121,-0.87313 0.0911,-1.94469 0.22934,-2.38125 0.17055,-0.53852 0.19677,0.22716 0.0815,2.38125 -0.0934,1.74625 -0.17516,4.09775 -0.18163,5.22556 -0.006,1.12781 -0.0883,2.05054 -0.18191,2.05052 -0.42836,-1e-4 -0.53701,1.27405 -0.50199,5.88694 0.0207,2.72852 -0.0577,4.9611 -0.17427,4.9613 -0.11657,1.9e-4 -0.17383,-1.91597 -0.12725,-4.25815 z"
       id="path26635" />
    <path
       style="fill:#557749"
       d="m 191.065,209.29857 c -0.68797,-0.61847 -1.31039,-1.19295 -1.38315,-1.27663 -0.0728,-0.0837 -0.86905,-0.64865 -1.76953,-1.25549 -1.75797,-1.1847 -2.62291,-2.09799 -1.12158,-1.18429 0.4987,0.30351 1.2976,0.78572 1.77531,1.07157 0.47772,0.28586 1.54928,1.17227 2.38125,1.96981 0.83197,0.79755 1.69127,1.5193 1.90955,1.60391 0.31437,0.12184 0.29939,0.15816 -0.0721,0.17471 -0.25791,0.0115 -1.03182,-0.48513 -1.71979,-1.10359 z"
       id="path26634" />
    <path
       style="fill:#557749"
       d="m 190.05293,210.83161 c -4.08832,-0.63511 -6.65162,-2.37073 -8.15591,-5.52237 -0.49816,-1.04371 -0.98679,-2.45548 -1.08585,-3.13728 l -0.18009,-1.23963 0.98488,-0.18476 c 1.3085,-0.24548 3.9273,0.0232 5.4956,0.56388 1.94943,0.67204 3.84911,2.5844 5.16059,5.19503 0.61263,1.21949 1.11387,2.38529 1.11387,2.59066 0,0.53528 -0.51477,-0.029 -0.64544,-0.70758 -0.23926,-1.24235 -1.86997,-3.94581 -3.07977,-5.10576 -1.532,-1.46887 -3.1665,-2.08383 -6.06437,-2.28165 -2.58148,-0.17622 -2.81867,-0.0127 -2.39967,1.65491 1.12736,4.48678 3.97627,7.09387 8.51285,7.79029 1.07613,0.1652 2.19473,0.39785 2.48577,0.517 0.69024,0.28257 0.42529,0.26616 -2.14246,-0.13274 z"
       id="path26633" />
    <path
       style="fill:#557749"
       d="m 196.03575,212.09231 c -0.002,-0.31884 0.10399,-0.64638 0.23585,-0.72787 0.13185,-0.0815 0.17805,-0.38408 0.10265,-0.67242 -0.21321,-0.81532 0.66753,-4.00045 1.51792,-5.48942 1.25448,-2.19652 4.05546,-4.1424 6.38363,-4.43482 1.09601,-0.13765 1.08224,-0.12537 -0.30003,0.26744 -4.27987,1.21626 -6.74069,4.32174 -7.28121,9.18869 -0.0444,0.39979 0.0265,0.66065 0.15745,0.57969 0.13099,-0.081 0.23817,-0.31615 0.23817,-0.52264 0,-0.46501 4.38524,-4.95526 5.29167,-5.41839 0.44108,-0.22536 0.2207,0.10932 -0.66146,1.00451 -4.02641,4.08593 -4.48738,4.6097 -3.9026,4.43429 0.89683,-0.26901 0.70364,0.19824 -0.2691,0.65084 -0.46913,0.21829 -1.00058,0.69454 -1.181,1.05834 -0.31319,0.63151 -0.32821,0.63522 -0.33194,0.0818 z"
       id="path26632" />
    <path
       style="fill:#557749"
       d="m 178.86506,212.22621 c -0.0403,-1.26145 0.34352,-2.24893 0.94591,-2.43381 0.76205,-0.23389 2.45522,0.26719 3.17387,0.93928 0.74639,0.69803 1.26578,1.54345 0.94823,1.54345 -0.11614,0 -0.32868,-0.26325 -0.47233,-0.58501 -0.49235,-1.1028 -2.86589,-2.04256 -3.67134,-1.45359 -0.24979,0.18264 -0.55176,0.92194 -0.67312,1.64795 -0.2034,1.21673 -0.22247,1.24268 -0.25122,0.34173 z"
       id="path26630" />
    <path
       style="fill:#557749"
       d="m 205.07796,212.53971 c -0.0469,-1.32465 0.0566,-1.55199 1.00078,-2.19814 0.80302,-0.54955 1.59359,-0.57122 2.27181,-0.0623 0.46105,0.34597 0.41168,0.35483 -0.48263,0.0867 -0.92775,-0.2782 -1.04959,-0.24761 -1.77252,0.445 -0.55391,0.53068 -0.80479,1.05536 -0.87578,1.83157 l -0.0995,1.08784 z"
       id="path26628" />
    <path
       style="fill:#557749"
       d="m 202.60461,220.29929 c 0.16668,-0.31613 0.59078,-0.80111 0.94244,-1.07772 1.01106,-0.7953 2.00881,-2.44715 2.02065,-3.34534 0.008,-0.57784 0.32286,-1.16805 1.05834,-1.98148 0.57611,-0.63718 1.04748,-0.98864 1.04748,-0.78102 0,0.20763 -0.41294,0.78849 -0.91764,1.2908 -0.52969,0.52719 -0.9212,1.18313 -0.92605,1.55152 -0.005,0.35102 -0.29866,1.12492 -0.65342,1.71979 -0.69528,1.16584 -3.09273,3.61144 -2.5718,2.62345 z"
       id="path26622" />
    <path
       style="fill:#557749"
       d="m 204.89539,221.24101 c 0.8344,-0.33704 2.10456,-0.56567 3.43959,-0.61914 2.10799,-0.0844 2.10961,-0.084 0.39687,0.10905 -0.94588,0.1066 -2.41021,0.39079 -3.25405,0.63152 -2.01717,0.57545 -2.20876,0.53551 -0.58241,-0.12143 z"
       id="path26620" />
    <path
       style="fill:#557749"
       d="m 188.0467,221.60169 c -0.21684,-0.25466 -0.66367,-0.91266 -0.99296,-1.46222 -0.3293,-0.54957 -0.73743,-1.14488 -0.90696,-1.32292 -0.51241,-0.53812 -1.22743,-1.74068 -1.22743,-2.06434 0,-0.16723 0.49857,0.45366 1.10792,1.37975 0.60936,0.92609 1.44852,2.18981 1.8648,2.80827 0.77733,1.15489 0.854,1.48283 0.15463,0.66146 z"
       id="path26619" />
    <path
       style="fill:#557749"
       d="m 195.74724,222.26309 c -0.011,-0.32742 -0.0636,-1.87254 -0.11691,-3.4336 -0.0533,-1.56105 -0.005,-3.58512 0.10716,-4.49791 0.15103,-1.22843 0.21215,-0.33633 0.23525,3.43359 0.0172,2.80128 -0.022,5.09323 -0.0871,5.09323 -0.0651,0 -0.12735,-0.26789 -0.13837,-0.59531 z"
       id="path26616" />
    <path
       style="fill:#557749"
       d="m 184.28067,222.89526 c -0.27387,-0.44313 -2.66366,-0.92455 -5.44673,-1.09723 l -2.77813,-0.17238 2.38125,-0.0405 c 1.60388,-0.0273 3.01525,0.12411 4.32333,0.46384 2.08097,0.54045 2.34227,0.66494 1.93026,0.91958 -0.14514,0.0897 -0.32963,0.0567 -0.40998,-0.0733 z"
       id="path26615" />
    <path
       style="fill:#557749"
       d="m 191.95284,221.96185 c 0.11886,-1.17578 0.0445,-1.80874 -0.30317,-2.57969 -0.25338,-0.56189 -0.54893,-1.02161 -0.65678,-1.02161 -0.10785,0 -0.27109,-0.19544 -0.36275,-0.4343 -0.31708,-0.82631 0.64166,0.19559 1.18772,1.26595 0.53655,1.05173 0.64598,2.89889 0.22505,3.79855 -0.16852,0.36018 -0.19729,0.0316 -0.0901,-1.0289 z"
       id="path26612" />
    <path
       style="fill:#557749"
       d="m 196.79425,225.57043 c -0.0705,-1.04129 0.7234,-3.11602 1.56996,-4.10285 0.41989,-0.48946 0.63886,-2.04871 0.2877,-2.04871 -0.1129,0 -0.25691,0.32742 -0.32,0.7276 -0.0631,0.40019 -0.0777,0.0728 -0.0325,-0.7276 0.0452,-0.80036 0.26321,-1.87193 0.48447,-2.38125 0.50418,-1.16055 0.54587,-0.67933 0.0604,0.69674 -0.30254,0.85749 -0.30404,1.08259 -0.009,1.35815 0.19448,0.18166 0.2854,0.50801 0.20205,0.7252 -0.27264,0.7105 0.26149,0.41686 1.54964,-0.85191 1.90084,-1.87226 1.52351,-0.97189 -0.44039,1.05084 -1.86302,1.91883 -2.52709,2.97721 -2.52709,4.0276 0,0.3756 -0.16544,0.74639 -0.36764,0.82398 -0.21255,0.0816 -0.31114,0.35709 -0.23372,0.65315 0.0737,0.28165 0.0605,0.51208 -0.0292,0.51208 -0.0897,0 -0.17726,-0.20836 -0.1945,-0.46302 z"
       id="path26606" />
    <path
       style="fill:#557749"
       d="m 190.21102,226.22783 c -0.3638,-0.45908 -0.66146,-0.92026 -0.66146,-1.02485 0,-0.19415 -0.57766,-0.84653 -1.6707,-1.8868 -0.3368,-0.32055 -1.57809,-2.04379 -2.75843,-3.82943 -1.95813,-2.96231 -2.26578,-3.30143 -3.51307,-3.87246 -1.33085,-0.60928 -2.50884,-1.59616 -2.50884,-2.10182 0,-0.13771 0.23445,0.0477 0.52101,0.41198 0.28655,0.36429 1.30386,1.05164 2.26068,1.52744 1.31784,0.65533 1.82532,1.07007 2.09288,1.71044 0.4609,1.10309 2.27786,3.4679 2.5927,3.37446 0.13474,-0.04 0.17728,0.0368 0.0945,0.17072 -0.0827,0.13387 0.0398,0.31642 0.27237,0.40566 0.24924,0.0956 0.35832,0.33028 0.26573,0.57158 -0.16185,0.42176 0.90124,1.70287 1.41306,1.70287 0.15214,0 0.27661,0.17554 0.27661,0.39008 0,0.21454 0.37453,0.58376 0.83228,0.82047 0.63256,0.32711 0.74452,0.48462 0.46657,0.65641 -0.29462,0.18209 -0.25068,0.3332 0.22605,0.77734 0.32547,0.30322 0.59177,0.66574 0.59177,0.80559 0,0.36365 -0.0573,0.31965 -0.79375,-0.60968 z"
       id="path26605" />
    <path
       style="fill:#557749"
       d="m 188.62352,225.86038 c -0.65485,-0.66511 -1.69664,-1.55882 -2.31511,-1.98603 -0.61846,-0.4272 -1.12447,-0.83204 -1.12447,-0.89963 0,-0.45847 4.03893,2.59035 4.63331,3.49749 0.64297,0.98129 0.10163,0.70383 -1.19373,-0.61183 z"
       id="path26604" />
    <path
       style="fill:#557749"
       d="m 208.33498,228.91054 c 1.39,-1.05084 2.90611,-2.82956 3.69177,-4.33126 0.41906,-0.80099 0.81345,-1.40484 0.87642,-1.34187 0.22124,0.22124 -1.40507,2.89863 -2.48895,4.09754 -0.60267,0.66662 -1.49564,1.42886 -1.98438,1.69385 l -0.88861,0.4818 z"
       id="path26602" />
    <path
       style="fill:#557749"
       d="m 198.05269,230.66403 c 0.17133,-0.44648 7.04016,-5.05678 8.4302,-5.65828 0.67646,-0.29272 -1.57292,1.35583 -3.83646,2.81171 -1.38244,0.88917 -3.01338,1.97626 -3.6243,2.41575 -0.61092,0.43949 -1.04717,0.63336 -0.96944,0.43082 z"
       id="path26600" />
    <path
       style="fill:#557749"
       d="m 197.22172,230.59753 c 0.10349,-0.25467 0.28654,-0.79056 0.40679,-1.19087 0.71344,-2.37517 3.71002,-6.50404 5.3553,-7.37886 0.32377,-0.17216 -0.19372,0.45034 -1.14997,1.38331 -0.95625,0.93297 -2.00835,2.2612 -2.338,2.95162 -0.32965,0.69041 -0.69943,1.31715 -0.82175,1.39274 -0.22341,0.13808 -0.60388,1.2232 -0.90373,2.57747 -0.0886,0.40018 -0.29062,0.72761 -0.44894,0.72761 -0.16943,0 -0.21045,-0.19048 -0.0997,-0.46302 z"
       id="path26599" />
    <path
       style="fill:#557749"
       d="m 192.12674,231.81632 c 0.17939,-0.4794 -0.45448,-1.12858 -1.85976,-1.90469 -0.47854,-0.26429 -1.19291,-0.65971 -1.5875,-0.87871 l -0.71742,-0.39817 0.79375,0.17578 c 0.43656,0.0967 1.05402,0.1793 1.37213,0.18361 0.35977,0.005 0.98226,0.48679 1.64685,1.27495 0.97231,1.15311 1.0289,1.29929 0.62884,1.6246 -0.37959,0.30868 -0.41739,0.29812 -0.27689,-0.0774 z"
       id="path26594" />
    <path
       style="fill:#557749"
       d="m 183.87388,231.5489 c -2.21363,-0.70064 -4.0558,-1.89696 -5.7014,-3.70254 -1.215,-1.33311 -3.04349,-4.39321 -3.04214,-5.09121 3.1e-4,-0.16146 0.37218,0.42081 0.82637,1.29394 2.24486,4.31542 4.69397,6.3669 8.96264,7.50747 1.09141,0.29162 1.68672,0.53075 1.32292,0.53141 -0.3638,6.5e-4 -1.42958,-0.24193 -2.36839,-0.53907 z"
       id="path26593" />
    <path
       style="fill:#557749"
       d="m 193.28957,231.73957 c -0.49122,-0.74969 -0.55445,-1.05007 -0.17117,-0.81319 0.14882,0.092 0.19502,-0.0117 0.1072,-0.2406 -0.0849,-0.22124 -0.27701,-0.37625 -0.42692,-0.34447 -0.14991,0.0318 -0.32627,-0.12082 -0.39192,-0.3391 -0.1061,-0.35277 -0.0882,-0.35277 0.16131,0 0.6141,0.86833 0.26008,-0.3349 -0.5666,-1.92577 -0.84241,-1.62115 -1.31766,-2.83673 -1.10906,-2.83673 0.0585,0 0.57464,0.93118 1.14686,2.06928 1.61083,3.20377 2.49167,6.32516 1.2503,4.43058 z"
       id="path26592" />
    <path
       style="fill:#557749"
       d="m 197.97213,232.24986 c 0,-0.20139 0.0695,-0.35868 0.15434,-0.34953 0.54518,0.0588 0.82082,-0.0884 0.65824,-0.3515 -0.11399,-0.18445 -0.0729,-0.23383 0.10377,-0.12465 0.3862,0.23869 5.26261,-0.76358 6.94878,-1.42821 1.44488,-0.56951 1.92906,-0.66327 1.30709,-0.25309 -0.59125,0.38992 -3.55997,1.28327 -5.8065,1.74731 -1.08851,0.22484 -2.2911,0.57013 -2.67242,0.76732 -0.58674,0.30341 -0.6933,0.30224 -0.6933,-0.008 z"
       id="path26591" />
    <path
       style="fill:#557749"
       d="m 194.47143,223.10902 -0.0271,-9.93589 -0.84278,-1.14601 c -0.71634,-0.97407 -0.75604,-1.09958 -0.26459,-0.83656 0.31801,0.17019 0.5782,0.22191 0.5782,0.11492 0,-0.5624 0.63058,0.54564 0.73375,1.28934 0.19882,1.43311 0.22547,18.79789 0.0302,19.65635 -0.0993,0.43656 -0.19277,-3.6774 -0.20767,-9.14215 z"
       id="path26589" />
    <path
       style="fill:#557749"
       d="m 196.45814,240.5194 c 3.41055,-5.84643 8.11303,-7.44588 14.22054,-4.83684 0.56143,0.23984 0.95945,0.4974 0.88448,0.57237 -0.075,0.075 -0.51675,-0.0604 -0.98175,-0.3009 -2.51846,-1.30235 -6.19554,-1.55232 -8.53564,-0.58026 -1.62792,0.67622 -3.47857,2.31476 -4.60728,4.07924 -0.49155,0.76841 -0.95663,1.39712 -1.03351,1.39712 -0.0769,0 -0.053,-0.14883 0.0532,-0.33073 z"
       id="path26580" />
    <path
       style="fill:#557749"
       d="m 195.394,239.13034 c 0.18289,-3.44234 0.51824,-4.90349 1.32509,-5.77364 0.89848,-0.96898 1.10643,-0.89777 0.27249,0.0933 -0.90675,1.07761 -1.21747,2.33379 -1.24143,5.01887 -0.011,1.23693 -0.12732,2.48708 -0.2584,2.77812 -0.15039,0.33393 -0.18646,-0.44703 -0.0977,-2.11666 z"
       id="path26577" />
    <path
       style="fill:#557749"
       d="m 194.44435,238.4569 c -0.17378,-4.36034 -0.75055,-5.28719 -3.62143,-5.81949 l -1.27336,-0.2361 1.41845,0.11438 c 2.96534,0.23913 3.85853,1.87065 3.69363,6.74694 l -0.085,2.51354 z"
       id="path26576" />
    <path
       style="fill:#557749"
       d="m 197.70452,241.45202 c 0.41064,-0.44157 1.30361,-1.06895 1.98437,-1.39417 0.68077,-0.32522 1.53541,-0.74471 1.89921,-0.9322 0.3638,-0.18748 1.13771,-0.40599 1.71979,-0.48557 1.17644,-0.16084 1.37278,-0.27291 -2.11666,1.20821 -1.01865,0.43237 -2.20927,1.05146 -2.64584,1.37575 -1.33455,0.99134 -1.62366,1.06972 -0.84087,0.22798 z"
       id="path26574" />
    <path
       style="fill:#557749"
       d="m 191.57564,241.37992 c -0.48638,-0.40781 -1.8556,-1.24337 -3.04271,-1.8568 -2.42085,-1.25097 -3.23204,-1.83571 -1.6292,-1.17439 2.00701,0.82808 4.57128,2.27224 5.17423,2.91405 0.86308,0.91871 0.54278,0.9934 -0.50232,0.11714 z"
       id="path26573" />
    <path
       style="fill:#557749"
       d="m 193.55114,242.49074 c -0.108,-0.17473 -0.1233,-0.31769 -0.034,-0.31769 0.0893,0 -0.28537,-0.85198 -0.83256,-1.89329 -1.86634,-3.55165 -4.48627,-5.54379 -8.16208,-6.2063 l -1.85209,-0.33381 1.7198,0.14226 c 2.4485,0.20253 4.61776,1.29424 6.3875,3.21461 1.4716,1.59685 3.28882,4.75483 3.08609,5.36302 -0.0882,0.26453 -0.16378,0.27208 -0.31264,0.0312 z"
       id="path26570" />
    <path
       style="fill:#557749"
       d="m 182.93498,242.19957 c -1.93657,-0.93541 -4.02249,-2.75393 -4.84558,-4.2244 -0.33673,-0.60158 -0.54815,-1.09379 -0.46981,-1.09379 0.0783,0 0.32336,0.34989 0.5445,0.77753 0.94084,1.81937 3.52035,3.80867 6.49068,5.00554 0.3638,0.14659 0.48286,0.2745 0.26458,0.28423 -0.21828,0.01 -1.11125,-0.32736 -1.98437,-0.74911 z"
       id="path26569" />
    <path
       style="fill:#557749"
       d="m 195.37657,248.64824 c 0.217,-3.42011 0.38548,-4.5886 0.68861,-4.77595 0.14703,-0.0909 0.21487,-0.302 0.15076,-0.46919 -0.0765,-0.19938 0.30421,-0.31471 1.10644,-0.33519 0.78861,-0.0201 0.91576,0.009 0.35798,0.0833 -1.40478,0.18598 -1.76058,1.02899 -1.86991,4.43046 -0.0517,1.60919 -0.20439,3.04165 -0.33927,3.18324 -0.15097,0.15848 -0.18733,-0.65518 -0.0946,-2.11666 z"
       id="path26559" />
    <path
       style="fill:#557749"
       d="m 185.97769,254.37587 c 0,-0.11236 0.32657,-0.49293 0.72571,-0.84572 0.52669,-0.46553 0.59925,-0.4906 0.26458,-0.0914 -0.25362,0.3025 -0.46113,0.62818 -0.46113,0.72372 0,0.0956 3.54211,0.20847 7.87136,0.25092 l 7.87135,0.0772 -8.13594,0.0448 c -4.47476,0.0246 -8.13593,-0.0471 -8.13593,-0.15948 z"
       id="path26558" />
    <path
       style="fill:#497137"
       d="m 194.10811,198.35695 c -0.10611,-0.10611 -0.19293,-0.44913 -0.19293,-0.76227 0,-1.30917 -0.83974,-3.28929 -1.917,-4.5203 -0.74881,-0.85569 -0.8914,-1.11224 -0.42588,-0.76625 1.06057,0.78825 1.79647,2.01099 2.37909,3.95301 0.50535,1.68444 0.56677,2.50585 0.15672,2.09581 z"
       id="path26504" />
    <path
       style="fill:#497137"
       d="m 192.80589,208.27391 c -1.2913,-3.70422 -3.60865,-6.15826 -6.56362,-6.95076 -0.80037,-0.21465 -1.20853,-0.39811 -0.90703,-0.40769 1.94441,-0.0618 5.01867,2.08365 6.33757,4.42276 0.80503,1.42775 1.77501,3.76191 1.56329,3.76191 -0.0782,0 -0.2718,-0.3718 -0.43021,-0.82622 z"
       id="path26503" />
    <path
       style="fill:#497137"
       d="m 198.08571,208.94975 c 0.59885,-0.86883 3.52295,-3.62142 3.68011,-3.46426 0.076,0.076 -3.43775,3.65438 -4.06905,4.14381 -0.0938,0.0728 0.0812,-0.23304 0.38894,-0.67955 z"
       id="path26502" />
    <path
       style="fill:#497137"
       d="m 190.87248,209.06059 c -0.58209,-0.57508 -1.57272,-1.40823 -2.20141,-1.85145 -0.62869,-0.44322 -1.08443,-0.8645 -1.01275,-0.93617 0.1813,-0.1813 2.75856,1.77432 3.86137,2.92999 1.23267,1.29175 0.68169,1.17055 -0.64721,-0.14237 z"
       id="path26501" />
    <path
       style="fill:#497137"
       d="m 194.38576,207.68619 c 0.11526,-4.20187 0.2345,-4.59113 0.28083,-0.91678 0.0233,1.8468 -0.047,3.41319 -0.15609,3.48086 -0.10914,0.0677 -0.16527,-1.08617 -0.12474,-2.56408 z"
       id="path26500" />
    <path
       style="fill:#497137"
       d="m 194.67013,218.22824 c -0.0941,-0.43657 -0.18357,-1.74625 -0.1988,-2.91042 -0.0251,-1.91692 -0.10568,-2.22903 -0.85407,-3.30729 -0.72513,-1.04476 -0.74479,-1.11532 -0.16043,-0.57597 0.48887,0.45123 0.69979,0.52158 0.79326,0.26459 0.07,-0.19255 0.1342,-0.0524 0.14262,0.31138 0.008,0.3638 0.14765,1.36811 0.30941,2.2318 0.31606,1.68757 0.28578,5.46008 -0.032,3.98591 z"
       id="path26495" />
    <path
       style="fill:#497137"
       d="m 198.2827,230.56493 c 0.55371,-0.65936 4.5273,-3.40593 6.01052,-4.1545 1.35728,-0.685 0.57611,-0.0857 -2.44054,1.87246 -1.52796,0.99182 -3.07493,2.05229 -3.43769,2.35662 l -0.65956,0.55331 z"
       id="path26490" />
    <path
       style="fill:#497137"
       d="m 197.09032,231.0473 c 7e-5,-0.0655 0.23158,-0.72801 0.51446,-1.47227 0.76734,-2.01888 2.29663,-4.68284 3.10662,-5.41162 0.69667,-0.62681 0.69454,-0.61605 -0.082,0.41482 -1.06804,1.41784 -2.32654,3.72817 -2.73839,5.02709 -0.28467,0.8978 -0.80111,1.82788 -0.80068,1.44198 z"
       id="path26489" />
    <path
       style="fill:#497137"
       d="m 181.06205,230.28482 c -1.45314,-0.83349 -3.65985,-3.10083 -4.42245,-4.54397 -0.45635,-0.86358 -0.45635,-0.8728 0,-0.24026 1.94671,2.69835 2.76681,3.47142 5.53079,5.21365 1.00211,0.63166 0.19936,0.32063 -1.10834,-0.42942 z"
       id="path26488" />
    <path
       style="fill:#497137"
       d="m 193.40151,231.74067 c -0.17264,-0.20801 -0.36304,-0.76658 -0.42311,-1.24127 -0.0601,-0.47468 -0.53981,-1.68246 -1.06608,-2.68395 -0.52626,-1.00149 -0.9095,-1.86823 -0.85164,-1.9261 0.18845,-0.18844 2.00196,3.45476 2.41937,4.86031 0.43198,1.45463 0.42102,1.59294 -0.0785,0.99101 z"
       id="path26485" />
    <path
       style="fill:#497137"
       d="m 197.61935,241.70802 c 0,-0.42631 1.28357,-1.27282 3.30557,-2.18003 2.62977,-1.1799 2.74156,-0.92831 0.13401,0.30162 -1.23692,0.58344 -2.51684,1.31061 -2.84427,1.61595 -0.32742,0.30533 -0.59531,0.42343 -0.59531,0.26246 z"
       id="path26480" />
    <path
       style="fill:#497137"
       d="m 191.8086,241.52232 c -0.33622,-0.35789 -1.5476,-1.13783 -2.69195,-1.73318 -3.03043,-1.57661 -2.67785,-1.71915 0.43291,-0.17502 1.10012,0.54609 3.46655,2.55893 3.00844,2.55893 -0.0759,0 -0.41317,-0.29283 -0.7494,-0.65073 z"
       id="path26479" />
  </g>
</svg>
