<?xml version="1.0" encoding="UTF-8" standalone="no"?>
<!-- Created with Inkscape (http://www.inkscape.org/) -->

<svg
   width="185"
   height="185"
   viewBox="0 0 48.947914 48.947918"
   version="1.1"
   id="svg1"
   xmlns="http://www.w3.org/2000/svg"
   xmlns:svg="http://www.w3.org/2000/svg">
  <defs
     id="defs1" />
  <g
     id="g27001"
     transform="matrix(0.87799835,0,0,0.87799835,-68.735256,-25.426542)">
    <path
       style="fill:#9ab293"
       d="m 98.532898,84.557305 c -0.900265,-0.216542 -0.994503,-0.52 -0.352788,-1.136018 0.964364,-0.925746 3.24065,-1.830501 5.42143,-2.154851 l 1.99224,-0.296309 -0.17161,-2.014682 c -0.28196,-3.310365 -0.17956,-3.220909 -2.88233,-2.517826 -1.1351,0.295277 -2.42606,0.393734 -4.277879,0.326258 -2.475899,-0.09022 -2.806294,-0.170584 -4.97067,-1.209125 -2.31577,-1.111184 -5.209434,-3.537497 -5.209434,-4.368066 0,-0.626162 1.379662,-1.719584 3.307291,-2.621123 1.654269,-0.77369 2.095162,-0.864782 4.127959,-0.852862 1.972565,0.01157 2.508053,0.121994 4.018001,0.828584 1.722952,0.806268 4.250442,2.963575 5.252312,4.483052 0.48861,0.741031 0.48887,0.739622 0.49061,-2.649406 9.6e-4,-1.864957 -0.11277,-3.604799 -0.25273,-3.866316 -0.42585,-0.795713 -1.7242,-1.167033 -3.44993,-0.986658 -2.339926,0.24457 -5.396592,-0.230673 -7.343523,-1.141751 -2.111033,-0.987872 -4.465349,-3.303547 -5.485117,-5.39509 -1.091255,-2.238164 -0.621256,-2.743796 3.305102,-3.555679 2.48287,-0.513402 4.761157,-0.238133 6.968866,0.841999 2.420222,1.184105 4.914342,4.103882 5.507962,6.447973 0.15662,0.618464 0.38969,1.124479 0.51794,1.124479 0.12824,0 0.23317,-1.719766 0.23317,-3.821704 0,-3.585261 -0.0368,-3.863799 -0.59531,-4.502098 -0.50077,-0.572335 -0.95029,-0.724103 -2.83042,-0.955601 -4.080795,-0.502464 -6.718984,-1.669622 -8.798088,-3.892353 -1.839399,-1.966466 -3.585479,-5.785192 -2.940253,-6.430418 0.474525,-0.474525 3.593461,-0.774497 5.249832,-0.504916 2.164835,0.352336 5.110409,1.817501 6.443909,3.205283 1.06773,1.111183 3.20575,4.896999 3.20575,5.676447 0,0.207594 0.0977,0.377444 0.21715,0.377444 0.2817,0 0.0816,-4.314452 -0.26386,-5.688541 -0.18575,-0.738906 -0.63077,-1.377761 -1.47442,-2.116667 -5.41066,-4.738859 -6.810346,-7.580167 -6.13304,-12.44982 0.339196,-2.438728 0.572034,-2.964233 1.463564,-3.303192 0.516746,-0.196466 1.016166,-0.08643 2.347546,0.517249 2.95486,1.339801 5.07191,4.030074 5.64745,7.17661 0.14859,0.812383 0.21961,4.165627 0.16228,7.662278 -0.0635,3.871477 -0.0146,5.86827 0.12965,5.291667 0.12737,-0.509323 0.43818,-1.878542 0.69068,-3.042708 0.65296,-3.010494 1.47398,-4.685674 3.16579,-6.459358 2.08636,-2.187328 5.88953,-3.918493 7.95475,-3.62092 1.17601,0.169449 0.61045,4.017731 -1.10652,7.529166 -1.36862,2.799012 -3.33683,4.672297 -6.57521,6.258104 -2.40017,1.175345 -2.60531,1.339113 -3.08803,2.465241 -0.50083,1.168411 -0.86358,3.403463 -1.11809,6.889097 -0.13202,1.808059 0.0979,1.869706 0.62605,0.167836 1.00411,-3.235748 3.48803,-6.190674 6.28325,-7.474676 2.03279,-0.933778 5.42844,-1.134167 7.89679,-0.466016 0.93564,0.253266 1.75908,0.554192 1.82986,0.668724 0.27785,0.449576 -1.92317,4.149553 -3.30981,5.563875 -2.3992,2.447101 -5.04431,3.696953 -9.26041,4.37568 -3.53611,0.569259 -3.85106,1.120556 -4.0309,7.055888 -0.0386,1.273328 0.0191,2.315125 0.12829,2.315104 0.10914,-2.1e-5 0.19844,-0.105533 0.19844,-0.234472 0,-0.128938 0.47898,-0.951719 1.06441,-1.828402 2.72251,-4.07699 7.90847,-5.209018 13.40334,-2.925773 2.2891,0.951178 2.62521,1.278518 2.18438,2.127425 -1.19841,2.307813 -4.43657,4.830067 -7.25167,5.648438 -1.53932,0.447492 -4.31884,0.432558 -7.74863,-0.04163 -1.09412,-0.151268 -1.13758,-0.128705 -1.52136,0.78979 -0.23686,0.566885 -0.39505,1.779805 -0.39505,3.028936 v 2.083428 l 2.05052,0.404981 c 2.20631,0.435751 4.1466,1.234609 5.05565,2.081526 0.72152,0.672191 0.71489,0.935129 -0.0286,1.134369 -0.69476,0.18619 -14.893905,0.166352 -15.676562,-0.0219 z"
       id="path26999" />
    <path
       style="fill:#668e9b"
       d="m 99.876552,84.493482 c -1.034138,-0.08154 -1.875263,-0.27785 -1.93223,-0.450975 -0.13335,-0.405251 1.349152,-1.482146 2.837538,-2.061194 0.65484,-0.254764 1.96453,-0.54061 2.91041,-0.635214 l 1.71979,-0.172006 -0.007,-2.312194 c -0.009,-3.015317 -0.27556,-3.353553 -2.14178,-2.712878 -0.7102,0.24381 -2.42236,0.505523 -3.80481,0.581585 -2.133133,0.117364 -2.773822,0.05011 -4.233334,-0.444358 -2.269953,-0.769042 -4.33157,-2.050262 -5.940596,-3.691867 l -1.310388,-1.336919 0.529297,-0.708936 c 0.291113,-0.389914 1.347628,-1.130622 2.34781,-1.646017 1.608319,-0.828768 2.096172,-0.948813 4.220675,-1.038575 3.649035,-0.154173 4.902395,0.400099 8.039636,3.555358 l 2.46248,2.476619 -0.049,-2.635775 c -0.10388,-5.591592 -0.29582,-5.828751 -4.71743,-5.828751 -4.864728,0 -7.047985,-0.765029 -9.736927,-3.411891 -1.670478,-1.644336 -3.227021,-4.581882 -2.73926,-5.169598 0.384001,-0.462693 2.237795,-1.10194 4.291913,-1.479987 2.846419,-0.523865 6.436287,0.518794 8.639554,2.509314 1.10171,0.995328 2.95803,3.56815 2.95803,4.09977 0,0.161914 0.18992,0.737049 0.42204,1.278078 0.37735,0.879528 0.44422,0.926787 0.6315,0.446309 0.1152,-0.29556 0.19318,-2.102549 0.17327,-4.015533 -0.0318,-3.060146 -0.10138,-3.565463 -0.57863,-4.204655 -0.32635,-0.437087 -0.85336,-0.763604 -1.32291,-0.819635 -4.763738,-0.568447 -7.043691,-1.255995 -9.096785,-2.743249 -1.517953,-1.099599 -3.141148,-3.392316 -3.863738,-5.457419 -0.833713,-2.382685 -0.68347,-2.53769 2.585993,-2.667975 2.778294,-0.110711 4.60382,0.373218 6.8534,1.816771 1.82832,1.173227 2.7861,2.385989 4.25794,5.391455 l 1.29985,2.654288 -0.16409,-2.778125 c -0.24012,-4.065405 -0.4082,-4.509678 -2.32397,-6.142882 -3.548201,-3.024852 -4.656827,-4.541206 -5.379082,-7.357391 -0.519785,-2.026723 -0.402245,-5.402238 0.241619,-6.938789 0.340059,-0.811535 0.550694,-0.992149 1.156863,-0.991978 1.25517,3.53e-4 3.82641,1.41352 5.13987,2.824893 2.29855,2.469893 2.93786,4.98846 2.5553,10.066622 -0.12908,1.713562 -0.17409,4.008535 -0.10001,5.099942 0.0741,1.091406 0.15053,2.460624 0.16988,3.042708 0.025,0.750868 0.22124,0.135937 0.67563,-2.116667 1.1257,-5.580573 3.05633,-8.442146 6.92572,-10.265257 1.37317,-0.646987 2.14094,-0.839181 3.36638,-0.842693 l 1.5875,-0.0045 -0.0381,1.411679 c -0.13189,4.887571 -3.34523,9.667755 -8.01785,11.927381 -1.19458,0.577685 -2.34811,1.196525 -2.5634,1.3752 -0.50719,0.420924 -1.12502,1.906644 -1.41791,3.409697 -0.23991,1.231158 -0.59037,6.879166 -0.42685,6.879166 0.0508,0 0.41881,-0.919573 0.81781,-2.043496 1.34842,-3.79827 3.18616,-5.932676 6.35864,-7.385083 2.06795,-0.94674 4.69494,-1.124841 7.27291,-0.493078 1.04152,0.255238 1.95375,0.620625 2.02718,0.811972 0.0734,0.191347 -0.30307,1.178702 -0.83666,2.194123 -1.2399,2.359524 -3.73888,4.797644 -6.00362,5.857384 -1.88607,0.882555 -5.41259,1.851928 -6.73718,1.851928 -1.21322,0 -2.32613,1.196707 -2.65372,2.853523 -0.37404,1.891715 -0.45039,6.93606 -0.10498,6.93606 0.15685,0 0.28518,-0.210486 0.28518,-0.467748 0,-0.582628 1.09913,-2.264223 2.31756,-3.545725 1.94757,-2.048374 5.69885,-3.012373 9.19181,-2.362099 1.47261,0.274151 5.42396,1.925475 5.42396,2.266747 0,0.462851 -1.45326,2.324895 -2.66427,3.413699 -1.8318,1.646948 -3.1932,2.415678 -5.17913,2.924464 -2.03553,0.521496 -3.45633,0.524955 -6.09009,0.01483 l -2.0738,-0.401669 -0.59531,0.681007 c -0.53059,0.60696 -0.59531,0.963089 -0.59531,3.275338 v 2.594331 l 1.52135,0.14267 c 2.81372,0.263865 6.65151,2.182393 5.88981,2.94434 -0.31379,0.313889 -11.24587,0.443274 -14.666468,0.173583 z"
       id="path26991" />
    <path
       style="fill:#8b956c"
       d="m 99.876552,84.493482 c -1.034138,-0.08154 -1.875263,-0.27785 -1.93223,-0.450975 -0.13335,-0.405251 1.349152,-1.482146 2.837538,-2.061194 0.65484,-0.254764 1.96453,-0.54061 2.91041,-0.635214 l 1.71979,-0.172006 -0.007,-2.312194 c -0.009,-3.015317 -0.27556,-3.353553 -2.14178,-2.712878 -0.7102,0.24381 -2.42236,0.505523 -3.80481,0.581585 -2.133133,0.117364 -2.773822,0.05011 -4.233334,-0.444358 -2.269953,-0.769042 -4.33157,-2.050262 -5.940596,-3.691867 l -1.310388,-1.336919 0.529297,-0.708936 c 0.291113,-0.389914 1.347628,-1.130622 2.34781,-1.646017 1.608319,-0.828768 2.096172,-0.948813 4.220675,-1.038575 3.649035,-0.154173 4.902395,0.400099 8.039636,3.555358 l 2.46248,2.476619 -0.049,-2.635775 c -0.10388,-5.591592 -0.29582,-5.828751 -4.71743,-5.828751 -4.864728,0 -7.047985,-0.765029 -9.736927,-3.411891 -1.670478,-1.644336 -3.227021,-4.581882 -2.73926,-5.169598 0.384001,-0.462693 2.237795,-1.10194 4.291913,-1.479987 2.846419,-0.523865 6.436287,0.518794 8.639554,2.509314 1.10171,0.995328 2.95803,3.56815 2.95803,4.09977 0,0.161914 0.18992,0.737049 0.42204,1.278078 0.37735,0.879528 0.44422,0.926787 0.6315,0.446309 0.1152,-0.29556 0.19318,-2.102549 0.17327,-4.015533 -0.0318,-3.060146 -0.10138,-3.565463 -0.57863,-4.204655 -0.32635,-0.437087 -0.85336,-0.763604 -1.32291,-0.819635 -4.763738,-0.568447 -7.043691,-1.255995 -9.096785,-2.743249 -1.517953,-1.099599 -3.141148,-3.392316 -3.863738,-5.457419 -0.833713,-2.382685 -0.68347,-2.53769 2.585993,-2.667975 2.778294,-0.110711 4.60382,0.373218 6.8534,1.816771 1.82832,1.173227 2.7861,2.385989 4.25794,5.391455 l 1.29985,2.654288 -0.16409,-2.778125 c -0.24012,-4.065405 -0.4082,-4.509678 -2.32397,-6.142882 -3.548201,-3.024852 -4.656827,-4.541206 -5.379082,-7.357391 -0.519785,-2.026723 -0.402245,-5.402238 0.241619,-6.938789 0.340059,-0.811535 0.550694,-0.992149 1.156863,-0.991978 1.25517,3.53e-4 3.82641,1.41352 5.13987,2.824893 2.29855,2.469893 2.93786,4.98846 2.5553,10.066622 -0.12908,1.713562 -0.17409,4.008535 -0.10001,5.099942 0.0741,1.091406 0.15053,2.460624 0.16988,3.042708 0.025,0.750868 0.22124,0.135937 0.67563,-2.116667 1.1257,-5.580573 3.05633,-8.442146 6.92572,-10.265257 1.37317,-0.646987 2.14094,-0.839181 3.36638,-0.842693 l 1.5875,-0.0045 -0.0381,1.411679 c -0.13189,4.887571 -3.34523,9.667755 -8.01785,11.927381 -1.19458,0.577685 -2.34811,1.196525 -2.5634,1.3752 -0.50719,0.420924 -1.12502,1.906644 -1.41791,3.409697 -0.23991,1.231158 -0.59037,6.879166 -0.42685,6.879166 0.0508,0 0.41881,-0.919573 0.81781,-2.043496 1.34842,-3.79827 3.18616,-5.932676 6.35864,-7.385083 2.06795,-0.94674 4.69494,-1.124841 7.27291,-0.493078 1.04152,0.255238 1.95375,0.620625 2.02718,0.811972 0.0734,0.191347 -0.30307,1.178702 -0.83666,2.194123 -1.2399,2.359524 -3.73888,4.797644 -6.00362,5.857384 -1.88607,0.882555 -5.41259,1.851928 -6.73718,1.851928 -1.21322,0 -2.32613,1.196707 -2.65372,2.853523 -0.37404,1.891715 -0.45039,6.93606 -0.10498,6.93606 0.15685,0 0.28518,-0.210486 0.28518,-0.467748 0,-0.582628 1.09913,-2.264223 2.31756,-3.545725 1.94757,-2.048374 5.69885,-3.012373 9.19181,-2.362099 1.47261,0.274151 5.42396,1.925475 5.42396,2.266747 0,0.462851 -1.45326,2.324895 -2.66427,3.413699 -1.8318,1.646948 -3.1932,2.415678 -5.17913,2.924464 -2.03553,0.521496 -3.45633,0.524955 -6.09009,0.01483 l -2.0738,-0.401669 -0.59531,0.681007 c -0.53059,0.60696 -0.59531,0.963089 -0.59531,3.275338 v 2.594331 l 1.52135,0.14267 c 2.81372,0.263865 6.65151,2.182393 5.88981,2.94434 -0.31379,0.313889 -11.24587,0.443274 -14.666468,0.173583 z"
       id="path26983" />
    <path
       style="fill:#6d9464"
       d="m 97.976948,84.173468 c -0.541834,-0.876706 3.217342,-2.617532 6.063812,-2.808067 l 1.80369,-0.120735 -0.16615,-1.755077 c -0.35919,-3.794182 -0.52851,-4.011703 -2.57176,-3.303702 -1.02529,0.355272 -2.17554,0.484937 -4.309059,0.485752 -2.868728,0.0011 -2.943376,-0.01463 -5.211465,-1.097904 -2.147253,-1.02556 -4.663944,-2.981352 -5.253222,-4.082428 -0.324973,-0.607219 0.750194,-1.650465 2.790792,-2.707935 1.477788,-0.765813 1.78207,-0.823707 4.366604,-0.830808 2.610241,-0.0072 2.874058,0.04268 4.365625,0.824954 1.448225,0.759542 4.433355,3.5406 5.360805,4.994325 0.27571,0.432158 0.32081,-0.129549 0.25946,-3.231359 -0.0702,-3.549793 -0.10894,-3.791366 -0.71057,-4.43177 -0.60918,-0.648444 -0.76255,-0.677326 -3.59679,-0.677326 -5.081868,0 -7.034709,-0.646707 -9.819674,-3.251904 -1.12272,-1.05025 -1.950029,-2.127088 -2.513433,-3.271524 -1.022509,-2.077011 -0.90099,-2.282535 1.790916,-3.028978 2.432596,-0.674539 5.471914,-0.663915 7.301131,0.02552 2.91489,1.098628 5.55229,3.866413 6.47571,6.795838 0.24413,0.774471 0.5358,1.40813 0.64815,1.40813 0.38007,0 0.55063,-1.83055 0.45405,-4.87311 -0.0806,-2.537426 -0.18347,-3.146083 -0.63401,-3.749533 -0.29582,-0.396214 -0.77147,-0.749657 -1.05701,-0.785428 -4.954169,-0.620642 -7.535357,-1.403056 -9.452337,-2.865208 -2.004868,-1.529187 -4.296658,-5.420539 -4.113246,-6.984098 0.101202,-0.862724 0.703987,-1.055449 3.38914,-1.083585 3.323519,-0.03483 6.827573,1.533208 8.694893,3.890887 0.44597,0.563083 1.34695,2.143218 2.00217,3.511411 l 1.19132,2.487623 0.009,-1.329858 c 0.015,-2.232896 -0.52027,-5.714405 -0.9703,-6.311016 -0.23394,-0.310148 -1.12156,-1.09908 -1.97248,-1.753182 -1.80387,-1.386641 -4.013279,-4.193987 -4.605087,-5.851377 -0.605328,-1.695254 -0.766954,-4.403314 -0.383951,-6.433153 0.52354,-2.774654 1.14671,-3.061532 3.839708,-1.767623 1.97947,0.951076 3.588,2.598538 4.55064,4.660793 l 0.74103,1.5875 0.003,6.085416 c 0.002,3.346979 0.0444,6.799791 0.0945,7.672916 l 0.0911,1.5875 0.23667,-1.190625 c 1.19939,-6.033955 1.87983,-7.913681 3.52308,-9.732559 1.9009,-2.104071 5.61699,-3.886806 7.73817,-3.712264 0.88525,0.07284 1.02373,0.175655 1.09719,0.81457 0.11865,1.032057 -0.83756,4.632959 -1.71527,6.459334 -1.15117,2.395397 -3.79763,4.904163 -6.48564,6.148179 -1.21105,0.560479 -2.3918,1.241367 -2.62389,1.513084 -0.78514,0.919206 -1.32642,2.816569 -1.56829,5.497336 -0.46822,5.189494 -0.29091,5.687243 0.81471,2.287108 1.58687,-4.880139 5.69335,-7.951871 10.63053,-7.951871 1.20638,0 4.42767,0.72277 4.81046,1.079333 0.41683,0.388276 -1.47593,3.704092 -3.11806,5.462338 -1.10058,1.178403 -2.10202,1.931477 -3.43958,2.586533 -1.95928,0.959535 -5.51406,1.973183 -6.9445,1.980233 -2.15906,0.01064 -3.01562,2.096734 -3.00597,7.320825 l 0.006,3.398862 0.62777,-1.526593 c 0.34528,-0.839626 0.9412,-1.937517 1.32428,-2.439757 2.13223,-2.795496 6.04302,-4.095419 9.99456,-3.322131 1.60463,0.314013 5.50333,1.916938 5.50333,2.262656 0,0.445634 -1.72698,2.593267 -2.93533,3.650298 -2.59596,2.270883 -5.67151,3.281068 -9.00968,2.959291 -1.02418,-0.09873 -2.23733,-0.2871 -2.69589,-0.418611 -1.3028,-0.373641 -1.61631,-0.294735 -2.10309,0.529316 -0.34392,0.582203 -0.45392,1.383706 -0.45392,3.307291 v 2.538864 l 1.12447,0.0056 c 1.19457,0.0059 4.58503,1.082762 5.06914,1.609994 0.21693,0.236256 0.17019,0.272588 -0.18809,0.146189 -0.30057,-0.106043 -0.4129,-0.06488 -0.30396,0.111388 0.095,0.153775 0.35656,0.209071 0.58117,0.122882 0.45694,-0.175345 1.45664,0.592802 1.23604,0.949744 -0.22749,0.368075 -16.444867,0.291532 -16.673682,-0.0787 z"
       id="path26969" />
    <path
       style="fill:#847b58"
       d="m 97.976948,84.173468 c -0.540419,-0.874417 3.215602,-2.617329 6.049742,-2.807272 l 1.78962,-0.11994 -0.17239,-2.152746 c -0.14345,-1.791472 -0.64277,-3.607956 -0.99175,-3.607956 -0.0467,0 -0.43954,0.176945 -0.87305,0.39321 -0.43352,0.216266 -1.67905,0.531706 -2.76786,0.700979 -4.12373,0.641102 -8.30726,-0.726295 -11.387953,-3.722178 l -1.64794,-1.602573 0.876872,-0.904703 c 0.48228,-0.497586 1.607568,-1.241707 2.500641,-1.653601 1.420428,-0.655117 1.938532,-0.749079 4.13731,-0.750329 2.184234,-0.0012 2.714776,0.09286 4.049529,0.718237 1.891671,0.886316 4.773921,3.594694 5.639831,5.299604 0.35107,0.691224 0.78513,1.254948 0.96458,1.25272 0.21054,-0.0026 0.1855,-0.09301 -0.0706,-0.254855 -0.31305,-0.19783 -0.42604,-1.087924 -0.53496,-4.214137 -0.12976,-3.724292 -0.17643,-4.004142 -0.77373,-4.639937 -0.61105,-0.650433 -0.7545,-0.676603 -3.70892,-0.676603 -4.970848,0 -7.62567,-0.973844 -10.181978,-3.734962 -1.468421,-1.586069 -2.852628,-4.00146 -2.628246,-4.586191 0.149442,-0.38944 1.571893,-1.048131 3.143462,-1.455637 1.529525,-0.396604 4.589269,-0.339584 6.116605,0.113986 1.432177,0.425311 4.083767,2.145278 4.291407,2.783638 0.11474,0.352778 0.0729,0.352778 -0.37696,0 -0.46399,-0.363884 -0.47695,-0.359693 -0.15598,0.05042 0.19254,0.246011 0.4902,0.396704 0.66146,0.334873 0.45319,-0.163617 1.74202,1.788186 2.41421,3.656086 0.97271,2.702978 1.18024,2.280707 1.12329,-2.285586 -0.0458,-3.673524 -0.10744,-4.17451 -0.59356,-4.825222 -0.32773,-0.438699 -0.85136,-0.761941 -1.32291,-0.816649 -2.85202,-0.330887 -4.555181,-0.70762 -6.375382,-1.41021 -2.118412,-0.8177 -3.772515,-1.94159 -3.894545,-2.646173 -0.147383,-0.850967 -0.480656,-1.582538 -0.720939,-1.582538 -0.139069,0 -0.04779,0.327422 0.202846,0.727605 l 0.455698,0.727604 -0.687497,-0.616364 c -0.867859,-0.778063 -2.138227,-3.576793 -2.171101,-4.783117 -0.02343,-0.859713 0.0406,-0.931188 1.033358,-1.153609 0.582084,-0.130411 2.000285,-0.177773 3.15156,-0.105249 1.766636,0.11129 2.434838,0.301138 4.282726,1.216803 2.699186,1.337499 3.653186,2.39796 5.429686,6.03558 0.72879,1.492286 1.38401,2.713247 1.45606,2.713247 0.072,0 0.0733,-0.09342 0.003,-0.207604 -0.0706,-0.114182 -0.15677,-1.08536 -0.19157,-2.158172 -0.0761,-2.345165 -0.40735,-4.416005 -0.845,-5.2819 -0.17686,-0.34992 -1.09321,-1.220507 -2.03634,-1.934637 -2.49911,-1.892313 -4.345771,-4.465289 -4.875092,-6.792537 -0.496538,-2.183113 -0.531094,-3.715051 -0.127192,-5.638688 0.531983,-2.533633 1.271523,-2.825533 3.869494,-1.52731 1.92693,0.962898 3.57071,2.673581 4.52492,4.709092 0.69765,1.488214 0.70395,1.55559 0.70892,7.586965 0.003,3.346979 0.0448,6.799791 0.0935,7.672916 0.10041,1.801628 0.10902,1.779065 0.95965,-2.513541 0.79286,-4.00109 2.22797,-6.57084 4.67115,-8.364298 2.36902,-1.739026 6.53976,-2.849728 6.92557,-1.844337 0.0791,0.206084 0.0341,1.149315 -0.1,2.096069 -0.70846,5.002612 -3.70133,9.053998 -8.21254,11.117155 -3.40626,1.557814 -3.58551,2.030845 -4.30053,11.349056 -0.0958,1.248263 0.24086,1.8009 0.40293,0.661458 0.0536,-0.376955 0.25446,-0.581833 0.54757,-0.558565 0.25459,0.02021 0.46289,-0.06908 0.46289,-0.198437 0,-0.129352 -0.17859,-0.235185 -0.39688,-0.235185 -0.49096,0 -0.50013,0.11839 0.13353,-1.723375 0.8213,-2.387146 2.7815,-5.420375 3.50288,-5.420375 0.15513,0 0.085,0.217735 -0.15582,0.483854 -0.24083,0.26612 -0.43788,0.590269 -0.43788,0.72033 0,0.130062 0.20744,-0.05791 0.46097,-0.417708 0.25353,-0.359801 0.4344,-0.736635 0.40194,-0.837407 -0.22463,-0.697365 3.22336,-2.197601 5.69287,-2.476995 1.575,-0.178191 4.9533,0.355733 5.86315,0.926644 1.06046,0.665414 -4.20264,7.709357 -5.46637,7.315992 -0.25865,-0.08051 -0.64886,-0.02224 -0.86714,0.129495 -0.30946,0.215112 -0.26576,0.238993 0.19844,0.108422 1.08577,-0.305412 0.6165,0.152562 -0.79375,0.774647 -1.66462,0.734291 -5.52752,1.739392 -6.68499,1.739392 -1.99575,0 -2.7837,2.213493 -2.73136,7.672917 0.0202,2.110052 0.0873,3.499679 0.14901,3.08806 0.0766,-0.510673 0.23084,-0.702881 0.48565,-0.605102 0.29672,0.113864 0.31339,0.04717 0.0811,-0.32473 -0.2279,-0.364916 -0.16623,-0.715122 0.27991,-1.589632 2.50215,-4.904624 8.60936,-6.411125 14.51498,-3.580496 l 1.92716,0.923707 -0.59792,1.063845 c -1.26969,2.259106 -4.29475,4.463881 -7.24841,5.282907 -1.66998,0.463072 -3.51889,0.417299 -7.42801,-0.183893 -1.03304,-0.158873 -1.12731,-0.119031 -1.52136,0.642969 -0.29768,0.575642 -0.42007,1.548545 -0.42007,3.339017 v 2.52668 l 1.12447,0.0056 c 1.19457,0.0059 4.58503,1.082762 5.06914,1.609994 0.21693,0.236256 0.17019,0.272588 -0.18809,0.146189 -0.30057,-0.106043 -0.4129,-0.06488 -0.30396,0.111388 0.095,0.153775 0.35656,0.209071 0.58117,0.122882 0.45694,-0.175345 1.45664,0.592802 1.23604,0.949744 -0.22749,0.368075 -16.444867,0.291532 -16.673682,-0.0787 z"
       id="path26951" />
    <path
       style="fill:#517889"
       d="m 105.73988,79.75196 c -0.10754,-0.491132 -0.19552,-1.300717 -0.19552,-1.799076 0,-0.764178 -0.61586,-2.46733 -0.89219,-2.46733 -0.0467,0 -0.43954,0.176945 -0.87305,0.39321 -0.43352,0.216266 -1.67905,0.531706 -2.76786,0.700979 -4.12373,0.641102 -8.30726,-0.726295 -11.387953,-3.722178 l -1.64794,-1.602573 0.876872,-0.904703 c 0.48228,-0.497586 1.607568,-1.241707 2.500641,-1.653601 1.420428,-0.655117 1.938532,-0.749079 4.13731,-0.750329 2.184234,-0.0012 2.714776,0.09286 4.049529,0.718237 1.891671,0.886316 4.773921,3.594694 5.639831,5.299604 0.35107,0.691224 0.78513,1.254948 0.96458,1.25272 0.21054,-0.0026 0.1855,-0.09301 -0.0706,-0.254855 -0.31305,-0.19783 -0.42604,-1.087924 -0.53496,-4.214137 -0.12976,-3.724292 -0.17643,-4.004142 -0.77373,-4.639937 -0.61105,-0.650433 -0.7545,-0.676603 -3.70892,-0.676603 -4.970848,0 -7.62567,-0.973844 -10.181978,-3.734962 -1.468421,-1.586069 -2.852628,-4.00146 -2.628246,-4.586191 0.149442,-0.38944 1.571893,-1.048131 3.143462,-1.455637 1.529525,-0.396604 4.589269,-0.339584 6.116605,0.113986 1.432177,0.425311 4.083767,2.145278 4.291407,2.783638 0.11474,0.352778 0.0729,0.352778 -0.37696,0 -0.46399,-0.363884 -0.47695,-0.359693 -0.15598,0.05042 0.19254,0.246011 0.4902,0.396704 0.66146,0.334873 0.45319,-0.163617 1.74202,1.788186 2.41421,3.656086 0.97271,2.702978 1.18024,2.280707 1.12329,-2.285586 -0.0458,-3.673524 -0.10744,-4.17451 -0.59356,-4.825222 -0.32773,-0.438699 -0.85136,-0.761941 -1.32291,-0.816649 -2.85202,-0.330887 -4.555181,-0.70762 -6.375382,-1.41021 -2.118412,-0.8177 -3.772515,-1.94159 -3.894545,-2.646173 -0.147383,-0.850967 -0.480656,-1.582538 -0.720939,-1.582538 -0.139069,0 -0.04779,0.327422 0.202846,0.727605 l 0.455698,0.727604 -0.687497,-0.616364 c -0.867859,-0.778063 -2.138227,-3.576793 -2.171101,-4.783117 -0.02343,-0.859713 0.0406,-0.931188 1.033358,-1.153609 0.582084,-0.130411 2.000285,-0.177773 3.15156,-0.105249 1.766636,0.11129 2.434838,0.301138 4.282726,1.216803 2.699186,1.337499 3.653186,2.39796 5.429686,6.03558 0.72879,1.492286 1.38401,2.713247 1.45606,2.713247 0.072,0 0.0733,-0.09342 0.003,-0.207604 -0.0706,-0.114182 -0.15677,-1.08536 -0.19157,-2.158172 -0.0761,-2.345165 -0.40735,-4.416005 -0.845,-5.2819 -0.17686,-0.34992 -1.09321,-1.220507 -2.03634,-1.934637 -2.49911,-1.892313 -4.345771,-4.465289 -4.875092,-6.792537 -0.496538,-2.183113 -0.531094,-3.715051 -0.127192,-5.638688 0.531983,-2.533633 1.271523,-2.825533 3.869494,-1.52731 1.92693,0.962898 3.57071,2.673581 4.52492,4.709092 0.69765,1.488214 0.70395,1.55559 0.70892,7.586965 0.003,3.346979 0.0448,6.799791 0.0935,7.672916 0.10041,1.801628 0.10902,1.779065 0.95965,-2.513541 0.79286,-4.00109 2.22797,-6.57084 4.67115,-8.364298 2.36902,-1.739026 6.53976,-2.849728 6.92557,-1.844337 0.0791,0.206084 0.0341,1.149315 -0.1,2.096069 -0.70846,5.002612 -3.70133,9.053998 -8.21254,11.117155 -3.40626,1.557814 -3.58551,2.030845 -4.30053,11.349056 -0.0958,1.248263 0.24086,1.8009 0.40293,0.661458 0.0536,-0.376955 0.25446,-0.581833 0.54757,-0.558565 0.25459,0.02021 0.46289,-0.06908 0.46289,-0.198437 0,-0.129352 -0.17859,-0.235185 -0.39688,-0.235185 -0.49096,0 -0.50013,0.11839 0.13353,-1.723375 0.8213,-2.387146 2.7815,-5.420375 3.50288,-5.420375 0.15513,0 0.085,0.217735 -0.15582,0.483854 -0.24083,0.26612 -0.43788,0.590269 -0.43788,0.72033 0,0.130062 0.20744,-0.05791 0.46097,-0.417708 0.25353,-0.359801 0.4344,-0.736635 0.40194,-0.837407 -0.22463,-0.697365 3.22336,-2.197601 5.69287,-2.476995 1.575,-0.178191 4.9533,0.355733 5.86315,0.926644 1.06046,0.665414 -4.20264,7.709357 -5.46637,7.315992 -0.25865,-0.08051 -0.64886,-0.02224 -0.86714,0.129495 -0.30946,0.215112 -0.26576,0.238993 0.19844,0.108422 1.08577,-0.305412 0.6165,0.152562 -0.79375,0.774647 -1.66462,0.734291 -5.52752,1.739392 -6.68499,1.739392 -1.99575,0 -2.7837,2.213493 -2.73136,7.672917 0.0202,2.110052 0.0873,3.499679 0.14901,3.08806 0.0766,-0.510673 0.23084,-0.702881 0.48565,-0.605102 0.29672,0.113864 0.31339,0.04717 0.0811,-0.32473 -0.2279,-0.364916 -0.16623,-0.715122 0.27991,-1.589632 2.50215,-4.904624 8.60936,-6.411125 14.51498,-3.580496 l 1.92716,0.923707 -0.59792,1.063845 c -1.26969,2.259106 -4.29475,4.463881 -7.24841,5.282907 -1.66998,0.463072 -3.51889,0.417299 -7.42801,-0.183893 -1.03304,-0.158873 -1.12731,-0.119031 -1.52136,0.642969 -0.23566,0.455726 -0.42007,1.45693 -0.42007,2.280683 0,1.275145 -0.0673,1.468348 -0.5116,1.468348 -0.36071,0 -0.53714,0.214592 -0.59823,0.727604 -0.0844,0.708623 -0.0917,0.704309 -0.28215,-0.165365 z"
       id="path26927" />
    <path
       style="fill:#517889"
       d="m 103.11297,84.283456 c 2.08247,-0.04476 5.41622,-0.04465 7.40833,2.42e-4 1.99211,0.04489 0.28826,0.08151 -3.78632,0.08138 -4.07458,-1.33e-4 -5.70449,-0.03686 -3.62201,-0.08162 z"
       id="path26923" />
    <path
       style="fill:#628c59"
       d="m 105.73988,79.75196 c -0.10754,-0.491132 -0.19552,-1.300717 -0.19552,-1.799076 0,-0.764178 -0.61586,-2.46733 -0.89219,-2.46733 -0.0467,0 -0.43954,0.176945 -0.87305,0.39321 -0.43352,0.216266 -1.67905,0.531706 -2.76786,0.700979 -4.12373,0.641102 -8.30726,-0.726295 -11.387953,-3.722178 l -1.64794,-1.602573 0.876872,-0.904703 c 0.48228,-0.497586 1.607568,-1.241707 2.500641,-1.653601 1.420428,-0.655117 1.938532,-0.749079 4.13731,-0.750329 2.184234,-0.0012 2.714776,0.09286 4.049529,0.718237 1.891671,0.886316 4.773921,3.594694 5.639831,5.299604 0.35107,0.691224 0.78513,1.254948 0.96458,1.25272 0.21054,-0.0026 0.1855,-0.09301 -0.0706,-0.254855 -0.31305,-0.19783 -0.42604,-1.087924 -0.53496,-4.214137 -0.12976,-3.724292 -0.17643,-4.004142 -0.77373,-4.639937 -0.61105,-0.650433 -0.7545,-0.676603 -3.70892,-0.676603 -4.970848,0 -7.62567,-0.973844 -10.181978,-3.734962 -1.468421,-1.586069 -2.852628,-4.00146 -2.628246,-4.586191 0.149442,-0.38944 1.571893,-1.048131 3.143462,-1.455637 1.529525,-0.396604 4.589269,-0.339584 6.116605,0.113986 1.432177,0.425311 4.083767,2.145278 4.291407,2.783638 0.11474,0.352778 0.0729,0.352778 -0.37696,0 -0.46399,-0.363884 -0.47695,-0.359693 -0.15598,0.05042 0.19254,0.246011 0.4902,0.396704 0.66146,0.334873 0.45319,-0.163617 1.74202,1.788186 2.41421,3.656086 0.97271,2.702978 1.18024,2.280707 1.12329,-2.285586 -0.0458,-3.673524 -0.10744,-4.17451 -0.59356,-4.825222 -0.32773,-0.438699 -0.85136,-0.761941 -1.32291,-0.816649 -2.85202,-0.330887 -4.555181,-0.70762 -6.375382,-1.41021 -2.118412,-0.8177 -3.772515,-1.94159 -3.894545,-2.646173 -0.147383,-0.850967 -0.480656,-1.582538 -0.720939,-1.582538 -0.139069,0 -0.04779,0.327422 0.202846,0.727605 l 0.455698,0.727604 -0.687497,-0.616364 c -0.867859,-0.778063 -2.138227,-3.576793 -2.171101,-4.783117 -0.02343,-0.859713 0.0406,-0.931188 1.033358,-1.153609 0.582084,-0.130411 2.000285,-0.177773 3.15156,-0.105249 1.766636,0.11129 2.434838,0.301138 4.282726,1.216803 2.699186,1.337499 3.653186,2.39796 5.429686,6.03558 0.72879,1.492286 1.38401,2.713247 1.45606,2.713247 0.072,0 0.0733,-0.09342 0.003,-0.207604 -0.0706,-0.114182 -0.15677,-1.08536 -0.19157,-2.158172 -0.0761,-2.345165 -0.40735,-4.416005 -0.845,-5.2819 -0.17686,-0.34992 -1.09321,-1.220507 -2.03634,-1.934637 -2.49911,-1.892313 -4.345771,-4.465289 -4.875092,-6.792537 -0.496538,-2.183113 -0.531094,-3.715051 -0.127192,-5.638688 0.531983,-2.533633 1.271523,-2.825533 3.869494,-1.52731 1.92693,0.962898 3.57071,2.673581 4.52492,4.709092 0.69765,1.488214 0.70395,1.55559 0.70892,7.586965 0.003,3.346979 0.0448,6.799791 0.0935,7.672916 0.10041,1.801628 0.10902,1.779065 0.95965,-2.513541 0.79286,-4.00109 2.22797,-6.57084 4.67115,-8.364298 2.36902,-1.739026 6.53976,-2.849728 6.92557,-1.844337 0.0791,0.206084 0.0341,1.149315 -0.1,2.096069 -0.70846,5.002612 -3.70133,9.053998 -8.21254,11.117155 -3.40626,1.557814 -3.58551,2.030845 -4.30053,11.349056 -0.0958,1.248263 0.24086,1.8009 0.40293,0.661458 0.0536,-0.376955 0.25446,-0.581833 0.54757,-0.558565 0.25459,0.02021 0.46289,-0.06908 0.46289,-0.198437 0,-0.129352 -0.17859,-0.235185 -0.39688,-0.235185 -0.49096,0 -0.50013,0.11839 0.13353,-1.723375 0.8213,-2.387146 2.7815,-5.420375 3.50288,-5.420375 0.15513,0 0.085,0.217735 -0.15582,0.483854 -0.24083,0.26612 -0.43788,0.590269 -0.43788,0.72033 0,0.130062 0.20744,-0.05791 0.46097,-0.417708 0.25353,-0.359801 0.4344,-0.736635 0.40194,-0.837407 -0.22463,-0.697365 3.22336,-2.197601 5.69287,-2.476995 1.575,-0.178191 4.9533,0.355733 5.86315,0.926644 1.06046,0.665414 -4.20264,7.709357 -5.46637,7.315992 -0.25865,-0.08051 -0.64886,-0.02224 -0.86714,0.129495 -0.30946,0.215112 -0.26576,0.238993 0.19844,0.108422 1.08577,-0.305412 0.6165,0.152562 -0.79375,0.774647 -1.66462,0.734291 -5.52752,1.739392 -6.68499,1.739392 -1.99575,0 -2.7837,2.213493 -2.73136,7.672917 0.0202,2.110052 0.0873,3.499679 0.14901,3.08806 0.0766,-0.510673 0.23084,-0.702881 0.48565,-0.605102 0.29672,0.113864 0.31339,0.04717 0.0811,-0.32473 -0.2279,-0.364916 -0.16623,-0.715122 0.27991,-1.589632 2.50215,-4.904624 8.60936,-6.411125 14.51498,-3.580496 l 1.92716,0.923707 -0.59792,1.063845 c -1.26969,2.259106 -4.29475,4.463881 -7.24841,5.282907 -1.66998,0.463072 -3.51889,0.417299 -7.42801,-0.183893 -1.03304,-0.158873 -1.12731,-0.119031 -1.52136,0.642969 -0.23566,0.455726 -0.42007,1.45693 -0.42007,2.280683 0,1.275145 -0.0673,1.468348 -0.5116,1.468348 -0.36071,0 -0.53714,0.214592 -0.59823,0.727604 -0.0844,0.708623 -0.0917,0.704309 -0.28215,-0.165365 z"
       id="path26897" />
    <path
       style="fill:#628c59"
       d="m 103.11297,84.283456 c 2.08247,-0.04476 5.41622,-0.04465 7.40833,2.42e-4 1.99211,0.04489 0.28826,0.08151 -3.78632,0.08138 -4.07458,-1.33e-4 -5.70449,-0.03686 -3.62201,-0.08162 z"
       id="path26893" />
    <path
       style="fill:#5c8653"
       d="m 109.24861,62.785555 c 0,-0.145521 0.43888,-0.264583 0.97529,-0.264583 1.50335,0 4.25097,-0.761378 6.34315,-1.757716 1.37596,-0.655264 2.31736,-1.355353 3.43958,-2.557906 1.81131,-1.940975 3.25882,-4.615827 2.69484,-4.979786 -1.43886,-0.928553 -5.65166,-1.058203 -7.87068,-0.242224 -2.36219,0.868624 -5.05423,3.072672 -4.61702,3.780082 0.0962,0.155683 0.0545,0.208626 -0.0927,0.117651 -0.34538,-0.213458 -1.56698,2.037106 -1.80628,3.327717 -0.10147,0.54731 -0.30865,1.071839 -0.46039,1.16562 -0.47181,0.291593 0.0135,-1.505635 0.8915,-3.301422 1.55969,-3.190103 4.47011,-5.318984 8.0325,-5.875523 1.9367,-0.302564 3.07386,-0.211504 5.38283,0.431037 1.59932,0.445062 1.5979,0.431576 0.2985,2.830656 -2.11599,3.90676 -5.08838,5.942846 -10.51556,7.203155 -1.95829,0.45476 -2.69556,0.488468 -2.69556,0.123242 z"
       id="path26873" />
    <path
       style="fill:#5c8653"
       d="m 109.24961,49.22566 c 1.32791,-2.212576 2.45864,-3.779874 3.31737,-4.598201 0.43841,-0.417786 1.13025,-1.17633 1.53742,-1.685653 0.64781,-0.810343 0.71654,-0.8434 0.55015,-0.264583 -0.2209,0.7684 -1.90718,2.910416 -2.29121,2.910416 -0.14356,0 -0.19011,0.184778 -0.10345,0.410617 0.0869,0.226568 0.0448,0.340932 -0.094,0.255148 -0.13836,-0.08551 -0.58236,0.354792 -0.98668,0.978445 -0.40432,0.623654 -0.79578,1.193446 -0.8699,1.266207 -0.21373,0.209801 -0.15637,2.116666 0.0637,2.116666 0.10914,0 0.19844,-0.1318 0.19844,-0.29289 0,-0.16109 0.17478,-0.225822 0.3884,-0.143847 0.21362,0.08197 0.47014,0.01678 0.57005,-0.144865 0.10999,-0.177973 0.0612,-0.219439 -0.12382,-0.105121 -0.18254,0.112818 -0.30546,0.01751 -0.30546,-0.236851 0,-0.321534 0.1091,-0.364579 0.44608,-0.175998 0.53185,0.297642 1.73939,-0.162546 1.48911,-0.567497 -0.0979,-0.158339 -0.0311,-0.184079 0.16431,-0.06333 0.45489,0.281132 3.12784,-2.532731 4.06114,-4.275226 0.89214,-1.665638 1.69168,-4.588812 1.65012,-6.032919 l -0.0305,-1.058333 -1.31047,0.08273 c -1.75062,0.110515 -4.87814,1.683172 -6.20072,3.118 -1.96911,2.13623 -3.6727,6.701797 -3.30743,8.863798 0.0959,0.567792 0.21474,1.032348 0.26403,1.032348 0.0493,0 0.46477,-0.625078 0.92329,-1.389062 z"
       id="path26872" />
    <path
       style="fill:#5c8653"
       d="m 105.10619,42.991297 c -0.31376,-1.118626 -0.52212,-2.083475 -0.46303,-2.144109 0.19449,-0.199554 0.45952,0.232187 0.51441,0.837977 0.0321,0.353784 0.20192,0.56069 0.4188,0.510138 0.27296,-0.06362 0.28927,-0.008 0.0647,0.220749 -0.16507,0.168187 -0.23437,0.557269 -0.15399,0.864626 0.14114,0.53971 0.15303,0.54121 0.34767,0.04383 0.17592,-0.449528 0.20154,-0.430909 0.20154,0.146461 0,1.681904 -0.37863,1.486646 -0.93014,-0.479676 z"
       id="path26871" />
    <path
       style="fill:#5c8653"
       d="m 106.26205,47.307431 c -0.0438,-3.56526 0.015,-6.482291 0.13053,-6.482291 0.59941,0 -0.12676,-4.645609 -0.99259,-6.35 -1.21063,-2.383127 -4.85179,-4.974988 -5.990264,-4.264001 -0.260025,0.162388 -0.563685,0.293428 -0.6748,0.2912 -0.111116,-0.0022 -0.02688,-0.114817 0.187185,-0.250198 0.214066,-0.13538 0.312877,-0.322481 0.219578,-0.415779 -0.0933,-0.0933 -0.385282,0.159485 -0.648851,0.561742 -0.713856,1.089482 -0.843815,5.646625 -0.215568,7.559076 0.396606,1.207309 1.84991,3.66171 2.16818,3.66171 0.0567,0 0.0181,-0.137459 -0.0857,-0.305464 -0.11432,-0.18497 -0.0729,-0.233812 0.10512,-0.123819 0.16165,0.0999 0.23275,0.341016 0.158,0.535803 -0.13188,0.343688 1.25615,1.607264 2.45673,2.236446 0.77829,0.407878 0.88662,0.383502 0.71173,-0.160154 -0.11794,-0.366651 -0.0938,-0.385412 0.11612,-0.09014 0.14578,0.205085 0.19631,0.552038 0.11229,0.771007 -0.0995,0.25924 -0.0448,0.331388 0.15677,0.206816 0.19692,-0.121708 0.30954,0.0012 0.30954,0.337857 0,0.291041 0.11907,0.602751 0.26459,0.692688 0.45744,0.282716 0.30403,-0.28612 -1.21753,-4.51455 -1.40696,-3.909945 -1.73031,-5.418367 -0.75875,-3.539583 0.35201,0.680716 2.76582,7.54186 2.76919,7.87131 4.6e-4,0.04497 0.11875,0.0089 0.26286,-0.08018 0.17007,-0.105109 0.22845,1.212552 0.16636,3.754697 -0.0875,3.581665 -0.0302,4.578095 0.26314,4.578095 0.0582,0 0.0699,-2.917031 0.0262,-6.482291 z"
       id="path26870" />
    <path
       style="fill:#5c8653"
       d="m 103.3364,53.835035 c -0.24083,-0.26612 -0.43788,-0.609742 -0.43788,-0.763603 0,-0.153862 -0.41672,-0.477495 -0.92604,-0.719185 -0.50932,-0.241689 -0.92604,-0.559938 -0.92604,-0.70722 0,-0.147281 0.11906,-0.1942 0.26458,-0.104263 0.14552,0.08994 0.26459,0.107636 0.26459,0.03933 0,-0.0683 -0.80368,-0.629169 -1.785941,-1.246366 -0.982266,-0.617196 -1.845469,-1.197994 -1.918229,-1.290661 -0.07276,-0.09267 -0.549011,-0.442912 -1.058334,-0.778323 -0.509323,-0.335411 -0.687916,-0.525685 -0.396875,-0.42283 0.291042,0.102854 0.75633,0.251835 1.033974,0.331068 0.277644,0.07923 0.733334,0.372587 1.012645,0.651897 0.27931,0.279311 0.683409,0.440465 0.897997,0.35812 0.214588,-0.08235 0.320552,-0.03709 0.235475,0.100566 -0.08508,0.137657 0.187375,0.427171 0.605448,0.643365 0.41807,0.216193 1.04704,0.695457 1.39771,1.06503 0.63691,0.671235 1.03513,0.857177 1.0337,0.482655 -4.2e-4,-0.10914 -0.34836,-0.431317 -0.7732,-0.715948 -0.69566,-0.466069 -1.09172,-1.647155 -0.42789,-1.275998 0.64627,0.361336 1.17901,0.954949 1.0477,1.167411 -0.0779,0.126073 0.0606,0.229223 0.3078,0.229223 0.55198,0 1.14748,0.742748 1.16673,1.455208 0.008,0.291042 0.24713,0.826823 0.5317,1.190625 0.63137,0.807151 0.65744,0.643053 0.11047,-0.695292 -0.98269,-2.404467 -1.73814,-3.809025 -1.97123,-3.664967 -0.13741,0.08493 -0.19119,-6.02e-4 -0.1195,-0.190062 0.13036,-0.344513 -1.16019,-2.064262 -1.54908,-2.064262 -0.11333,0 -0.1211,0.137459 -0.0173,0.305464 0.11791,0.190775 0.0725,0.23358 -0.12099,0.114009 -0.17038,-0.1053 -0.24586,-0.294884 -0.16773,-0.421299 0.21366,-0.34571 -1.938071,-1.715933 -3.440709,-2.191044 -1.834245,-0.579959 -4.089424,-0.782271 -5.410724,-0.485394 -0.612024,0.137512 -1.162626,0.299879 -1.223561,0.360814 -0.06094,0.06094 0.07904,0.750033 0.311062,1.531328 0.474577,1.598073 2.001566,3.983922 3.265268,5.101828 1.358446,1.20172 4.854339,2.491924 7.688164,2.837414 0.80036,0.09758 1.56296,0.194919 1.69465,0.216313 0.1317,0.02139 0.0424,-0.178835 -0.19844,-0.444954 z"
       id="path26869" />
    <path
       style="fill:#5c8653"
       d="m 106.13743,66.190566 c 0.2563,-0.433926 0.25986,-0.590297 0.0155,-0.679089 -0.21077,-0.07658 -0.24397,-0.309522 -0.0988,-0.693035 0.34819,-0.919718 0.61851,-7.546546 0.28585,-7.007665 -0.15251,0.247051 -0.35258,1.765098 -0.4446,3.373438 -0.092,1.608339 -0.23842,2.924422 -0.32532,2.924627 -0.0869,2.05e-4 -0.12,-1.696436 -0.0735,-3.770313 0.0804,-3.587118 0.0543,-3.815398 -0.53459,-4.689142 -0.59891,-0.888532 -0.70249,-0.929582 -3.17892,-1.259896 -3.8395,-0.512124 -6.508884,-1.624911 -8.300965,-3.460427 -2.05975,-2.109671 -3.84297,-5.946176 -3.106238,-6.682908 0.439872,-0.439872 4.151942,-0.603188 5.671339,-0.249516 1.937224,0.450931 4.379954,1.765438 5.660724,3.046205 0.59702,0.597019 1.5623,2.09629 2.21451,3.439583 1.55044,3.193265 1.59254,3.300803 1.70907,4.365624 0.0557,0.509323 0.0526,-0.324114 -0.007,-1.852083 -0.0595,-1.527968 -0.23906,-3.651995 -0.39894,-4.720059 -0.3195,-2.134316 -0.41742,-2.271123 -3.57318,-4.992113 -2.04822,-1.766038 -3.334695,-3.728096 -3.878423,-5.915148 -0.510178,-2.052103 -0.53987,-3.305288 -0.128633,-5.429072 0.306974,-1.585331 0.828579,-2.491523 1.434124,-2.491523 0.182778,0 1.007342,0.258314 1.832362,0.574031 2.07442,0.793836 3.89275,2.505158 4.95511,4.66349 l 0.86798,1.763447 0.0607,7.54587 c 0.0726,9.029899 0.0979,9.922922 0.2537,8.954294 0.0626,-0.389534 0.28541,-0.850597 0.49506,-1.024585 0.20964,-0.173988 0.36735,-0.629185 0.35047,-1.011549 -0.0242,-0.547553 -0.0577,-0.582818 -0.15797,-0.166041 -0.29324,1.219143 -0.6438,1.022387 -0.47141,-0.264583 0.78335,-5.847784 2.46916,-9.31732 5.50691,-11.333669 2.49558,-1.656471 6.26145,-2.580737 6.62758,-1.626622 0.0847,0.220642 -0.0166,1.378188 -0.2251,2.572325 -0.49338,2.826174 -1.90059,5.681925 -3.67773,7.463468 -1.67099,1.67514 -2.19498,2.040279 -4.52888,3.155903 -2.14089,1.023369 -2.60429,1.471778 -3.19232,3.089022 -0.4946,1.360275 -1.23209,9.163399 -0.92315,9.767525 0.11413,0.223188 0.17048,0.524859 0.12522,0.67038 -0.0452,0.145521 -0.21235,0.770599 -0.37132,1.389063 -0.15897,0.618463 -0.40451,1.124479 -0.54566,1.124479 -0.14189,0 -0.10776,-0.252037 0.0763,-0.563736 z"
       id="path26868" />
    <path
       style="fill:#5c8653"
       d="m 107.49337,72.710691 c -0.17248,-0.449488 0.89479,-2.38576 2.0238,-3.671632 0.41975,-0.478068 1.53869,-1.262845 2.48654,-1.743949 1.58324,-0.803611 1.93391,-0.876939 4.31274,-0.901848 2.54024,-0.0266 5.0657,0.510643 5.76436,1.226254 0.17846,0.182785 0.1354,0.227806 -0.13229,0.138307 -3.07171,-1.027022 -3.27471,-1.059556 -5.91067,-0.947285 -2.9487,0.125592 -4.18626,0.594289 -6.05197,2.292045 -1.04486,0.950796 -2.44272,3.332382 -2.19304,3.736362 0.0902,0.145946 0.0937,0.265357 0.008,0.265357 -0.0859,0 -0.22418,-0.177125 -0.30726,-0.393611 z"
       id="path26866" />
    <path
       style="fill:#5c8653"
       d="m 104.55994,64.891724 c -0.0776,-0.296813 -0.20062,-0.48016 -0.27335,-0.407437 -0.0727,0.07272 -0.86127,-0.381209 -1.75233,-1.008738 -0.89106,-0.62753 -2.51308,-1.536509 -3.604487,-2.019954 -1.091406,-0.483445 -2.207518,-1.084678 -2.480248,-1.336073 -0.480213,-0.442647 -0.473952,-0.455812 0.198251,-0.41688 0.381768,0.02211 0.694207,0.130463 0.69431,0.240782 1.03e-4,0.110319 0.503028,0.401777 1.117612,0.647684 1.665182,0.666275 3.373462,1.615248 4.467562,2.481791 0.5354,0.424042 1.13491,0.7672 1.33225,0.762572 0.23191,-0.0054 0.17298,-0.148857 -0.16663,-0.405533 -0.34698,-0.262245 -0.49952,-0.644132 -0.44914,-1.12442 0.0562,-0.535398 -0.27964,-1.197478 -1.27268,-2.50925 -1.32476,-1.74997 -2.606975,-2.769414 -4.481176,-3.562831 -1.080456,-0.457396 -4.655666,-0.644641 -5.916829,-0.309884 -0.46667,0.123871 -1.160857,0.288235 -1.542638,0.365253 -0.381781,0.07702 -0.962706,0.3575 -1.290944,0.623291 l -0.596797,0.483256 0.544627,1.231221 c 0.299545,0.677171 1.118595,1.845428 1.820111,2.596127 1.390903,1.488419 3.93498,3.254898 4.333221,3.008771 0.137255,-0.08483 0.249555,-0.0414 0.249555,0.09652 0,0.380441 1.659777,0.617867 5.02708,0.719108 2.75041,0.08269 2.96646,0.05648 2.24896,-0.272836 l -0.79375,-0.364319 0.92604,0.14754 c 0.50933,0.08115 1.10039,0.310972 1.31347,0.510721 0.50143,0.470046 0.5152,0.463062 0.34795,-0.176481 z"
       id="path26865" />
    <path
       style="fill:#5c8653"
       d="m 105.70496,74.273287 c -0.0883,-0.230183 -0.1606,-1.829776 -0.1606,-3.554651 0,-1.724874 -0.12375,-3.461605 -0.27499,-3.859402 -0.47776,-1.256603 -0.9363,-1.410347 -4.23349,-1.419434 -3.232887,-0.0089 -5.308892,-0.400644 -7.17884,-1.35462 -2.232764,-1.139071 -5.028482,-4.379141 -5.405609,-6.264777 -0.145897,-0.729487 -0.06334,-0.888794 0.701755,-1.354073 1.178612,-0.716757 4.045769,-1.191635 6.244754,-1.034298 4.17247,0.298539 7.58118,3.227736 9.24384,7.943492 0.24267,0.688287 0.54503,1.187276 0.6719,1.108864 0.12687,-0.07841 0.23068,0.05008 0.23068,0.285539 0,0.235458 -0.11548,0.356735 -0.25662,0.269505 -0.14114,-0.08723 -0.0883,0.318558 0.11749,0.90175 0.34295,0.972029 0.85551,8.750619 0.57661,8.750619 -0.064,0 -0.18856,-0.188331 -0.27688,-0.418514 z"
       id="path26864" />
    <path
       style="fill:#5c8653"
       d="m 106.48773,78.131385 c 0.0415,-0.582084 -0.031,-1.058334 -0.16111,-1.058334 -0.13007,0 -0.19046,-0.148828 -0.1342,-0.330729 0.25886,-0.836928 0.39043,-8.135937 0.14665,-8.135937 -0.26018,0 -0.22691,-0.560434 0.0785,-1.322917 0.44769,-1.117643 0.80705,-2.908803 0.79624,-3.968749 -0.009,-0.91062 0.0151,-0.982708 0.1038,-0.306527 0.11163,0.851178 0.13473,0.867103 0.62031,0.42766 0.27739,-0.251041 0.44385,-0.554335 0.3699,-0.673987 -0.16922,-0.273803 0.6332,-1.244451 2.66047,-3.21825 1.10483,-1.075685 2.26243,-1.863598 3.80732,-2.591428 1.2209,-0.575191 2.27875,-1.045801 2.35078,-1.045801 0.33386,0 -1.31184,1.068712 -3.0089,1.953975 -1.27233,0.663703 -2.49917,1.615759 -3.80453,2.952391 -1.05965,1.08504 -1.77984,1.9728 -1.60043,1.9728 0.17941,0 -0.0331,0.409227 -0.47225,0.909394 -0.50874,0.57942 -0.90254,1.419455 -1.0853,2.315104 -0.33194,1.626665 -0.51705,8.956416 -0.22158,8.773421 0.10914,-0.06759 0.20784,-0.443295 0.21932,-0.834889 0.0115,-0.391594 0.0772,-0.574561 0.1459,-0.406595 0.0804,0.196351 0.86386,-0.103293 2.19428,-0.839198 2.85637,-1.579972 5.90993,-2.645945 6.54549,-2.284978 0.4606,0.261601 0.45833,0.275672 -0.043,0.267658 -1.00512,-0.01607 -6.19582,2.183568 -7.8566,3.329347 -0.37719,0.260224 -0.28139,0.312929 0.60419,0.332407 0.57884,0.01273 1.40883,0.170766 1.84441,0.351188 0.53144,0.220133 1.63819,0.284661 3.36456,0.196166 2.97818,-0.152663 4.62416,-0.764262 6.87863,-2.555908 1.23343,-0.980221 2.97001,-2.995183 2.97001,-3.446116 0,-0.08998 -0.32742,-0.366606 -0.7276,-0.61472 -0.40018,-0.248115 -0.60854,-0.453501 -0.46302,-0.456414 0.14552,-0.0029 0.59248,0.21092 0.99323,0.475185 l 0.72865,0.480481 -0.8061,1.216994 c -1.57836,2.382885 -4.23862,4.265834 -7.0153,4.965472 -1.59465,0.401804 -4.19422,0.352511 -7.30437,-0.138506 -1.18847,-0.187631 -1.24827,-0.16526 -1.65365,0.618654 -0.23616,0.456695 -0.42058,1.45717 -0.42058,2.281671 0,1.061467 -0.0997,1.468348 -0.35976,1.468348 -0.25588,0 -0.33798,-0.305559 -0.28437,-1.058333 z"
       id="path26863" />
    <path
       style="fill:#5c8653"
       d="m 105.70933,79.311781 c -0.0907,-0.236459 -0.16497,-0.842819 -0.16497,-1.347467 0,-0.504648 -0.16626,-1.23905 -0.36947,-1.632006 -0.2032,-0.392956 -0.41156,-0.833527 -0.46302,-0.979048 -0.0515,-0.145521 -0.36416,-0.241797 -0.6949,-0.213947 -0.33074,0.02785 -0.5419,-0.04553 -0.46926,-0.163076 0.23693,-0.383359 -0.85019,-1.120458 -2.01931,-1.369146 -2.55224,-0.542898 -4.45071,-1.124769 -4.45071,-1.364116 0,-0.139492 0.157845,-0.193051 0.350767,-0.119019 0.192923,0.07403 1.143973,0.219547 2.113445,0.323368 1.130178,0.121032 1.700788,0.288905 1.590208,0.467835 -0.10602,0.171533 -0.009,0.216297 0.25203,0.116169 0.23953,-0.09192 0.82069,0.105954 1.33368,0.454081 l 0.90918,0.61698 -0.0345,-0.886861 c -0.0645,-1.655527 -2.6504,-3.763163 -5.897123,-4.806367 -1.087757,-0.349507 -4.518174,-0.241416 -4.914442,0.154852 -0.168825,0.168826 -0.514462,0.306955 -0.768081,0.306955 -0.880244,0 -3.401791,1.714186 -3.401791,2.312589 0,0.119927 0.548954,0.77485 1.219898,1.455385 1.067868,1.083134 1.904358,1.58302 5.721825,3.419357 0.921214,0.443137 5.620904,0.249287 7.388354,-0.304751 1.99641,-0.625809 2.08106,-0.636625 1.40536,-0.179552 -0.66902,0.452548 -2.49537,0.910495 -4.398912,1.103001 -3.575445,0.361587 -7.517851,-1.115347 -10.334751,-3.871684 l -1.611612,-1.576962 0.863963,-0.891383 c 0.47518,-0.490261 1.594659,-1.224622 2.487732,-1.631914 1.406457,-0.641423 1.96016,-0.741841 4.13731,-0.750328 2.194495,-0.0086 2.708506,0.08155 4.049529,0.709867 2.018611,0.945792 4.782331,3.608242 5.767991,5.556643 0.79954,1.580471 0.90812,1.912665 0.55359,1.693551 -0.11672,-0.07214 -0.12136,0.719222 -0.0103,1.758579 0.20413,1.910352 0.15973,2.423815 -0.14166,1.638415 z"
       id="path26862" />
    <path
       style="fill:#5c8653"
       d="m 103.11297,84.283456 c 2.08247,-0.04476 5.41622,-0.04465 7.40833,2.42e-4 1.99211,0.04489 0.28826,0.08151 -3.78632,0.08138 -4.07458,-1.33e-4 -5.70449,-0.03686 -3.62201,-0.08162 z"
       id="path26858" />
    <path
       style="fill:#557749"
       d="m 102.62061,44.151615 c -2.71597,-1.97098 -4.497442,-4.710606 -5.07195,-7.799866 -0.389905,-2.096609 0.118668,-5.84321 0.887637,-6.539117 0.493009,-0.446167 0.581306,-0.444304 2.013453,0.0425 0.82381,0.280021 2.06928,0.960833 2.76772,1.512915 1.27672,1.009186 2.79969,2.987069 2.51741,3.269352 -0.0833,0.08333 -0.32893,-0.186986 -0.54579,-0.600691 -0.60771,-1.159329 -2.53984,-2.969684 -3.73116,-3.495988 -1.879158,-0.830175 -2.401356,-0.877568 -2.953001,-0.268006 -0.743543,0.821605 -0.891409,6.094605 -0.220363,7.858314 0.954596,2.508966 2.922764,4.843075 5.313224,6.301102 0.27025,0.164834 0.4304,0.364699 0.35589,0.444145 -0.0745,0.07945 -0.67439,-0.246651 -1.33307,-0.72466 z"
       id="path26778" />
    <path
       style="fill:#557749"
       d="m 104.38204,45.698291 c -0.24773,-0.645578 -0.17517,-0.824752 0.12518,-0.309089 0.14832,0.254661 0.36991,0.463021 0.49242,0.463021 0.12251,0 -0.18762,-1.16086 -0.68919,-2.579688 -1.24553,-3.523392 -1.93655,-5.715136 -1.83416,-5.817528 0.27621,-0.27621 3.17255,8.0141 2.93444,8.399368 -0.24891,0.402757 -0.8492,0.311676 -1.02869,-0.156084 z"
       id="path26776" />
    <path
       style="fill:#557749"
       d="m 109.77769,51.051834 c 0,-0.05063 0.8632,-0.519339 1.91823,-1.041575 1.71906,-0.850933 4.96094,-3.594278 4.96094,-4.198053 0,-0.110587 0.29765,-0.639688 0.66145,-1.17578 1.08204,-1.594467 0.75031,-0.591211 -0.38564,1.166334 -1.15931,1.793671 -3.43652,3.716579 -5.57433,4.70704 -1.38351,0.64099 -1.58065,0.708594 -1.58065,0.542034 z"
       id="path26770" />
    <path
       style="fill:#557749"
       d="m 107.30168,50.482431 c 0.463,-3.874918 1.62947,-7.257379 3.22455,-9.350351 1.93845,-2.543518 8.30039,-5.104192 8.8865,-3.576808 0.13895,0.362101 0.10007,0.379039 -0.23387,0.101889 -0.60458,-0.501758 -2.61666,-0.110595 -4.80595,0.934311 -3.8546,1.83973 -5.7943,5.118191 -6.59843,11.152589 -0.0929,0.697145 -0.27285,1.44613 -0.39989,1.664411 -0.14037,0.241189 -0.16898,-0.122079 -0.0729,-0.926041 z"
       id="path26769" />
    <path
       style="fill:#557749"
       d="m 106.31007,48.035035 c -0.0154,-2.000911 -9.4e-4,-3.995208 0.0322,-4.431771 0.0331,-0.436562 0.14135,-1.984374 0.24052,-3.439583 0.12239,-1.795863 0.1758,-0.372221 0.16627,4.431593 -0.008,3.892585 -0.10335,7.077507 -0.21249,7.077604 -0.10914,9.8e-5 -0.21105,-1.636932 -0.22647,-3.637843 z"
       id="path26768" />
    <path
       style="fill:#557749"
       d="m 105.48093,50.482431 c -0.10765,-1.455209 -0.25449,-3.003021 -0.32631,-3.439583 -0.0789,-0.479476 0.0272,-0.322339 0.26785,0.396875 0.26172,0.782083 0.37369,1.962314 0.32631,3.439583 l -0.0721,2.248958 z"
       id="path26766" />
    <path
       style="fill:#557749"
       d="m 95.432105,52.397505 c -0.968449,-0.548281 -1.975165,-1.436832 -2.796134,-2.467931 -1.301773,-1.634969 -2.561314,-4.429391 -2.392225,-5.3074 0.108506,-0.563424 1.438532,-0.867062 3.658944,-0.835317 1.243487,0.01778 1.138129,0.05147 -0.724153,0.231588 -1.198649,0.11593 -2.311972,0.29274 -2.474051,0.39291 -0.732141,0.452488 0.784189,3.933633 2.586692,5.93845 0.669135,0.744239 1.884134,1.697893 2.699998,2.11923 0.815864,0.421337 1.364326,0.770375 1.218805,0.77564 -0.14552,0.0053 -0.945565,-0.375962 -1.777876,-0.84717 z"
       id="path26765" />
    <path
       style="fill:#557749"
       d="m 107.81665,52.562748 c 0.0427,-0.562091 0.0931,-1.379171 0.11194,-1.815734 0.0279,-0.646304 0.0713,-0.699046 0.23393,-0.283928 0.19719,0.503373 0.20217,0.503373 0.39372,0 0.37719,-0.991246 3.47509,-5.38994 3.80114,-5.397224 0.1819,-0.0041 0.33568,-0.09669 0.34174,-0.205827 0.006,-0.10914 0.44024,-0.674687 0.96484,-1.256771 0.94067,-1.043736 0.94691,-1.046082 0.45201,-0.170106 -0.276,0.488524 -0.92803,1.321962 -1.44895,1.852083 -0.86678,0.882083 -3.37345,4.530041 -4.20753,6.123231 -0.3382,0.645982 -0.33408,0.650625 0.17605,0.198438 0.82615,-0.732308 1.04665,-0.5385 0.30102,0.264583 -0.37155,0.400182 -0.79301,0.949372 -0.93659,1.220422 -0.20447,0.386016 -0.2442,0.271338 -0.18332,-0.529167 z"
       id="path26764" />
    <path
       style="fill:#557749"
       d="m 103.16457,53.263294 c -0.15495,-0.289535 -0.63928,-0.711325 -1.07629,-0.93731 -0.43701,-0.225984 -0.72737,-0.519593 -0.64525,-0.652462 0.12439,-0.201267 -2.567273,-2.135812 -3.439299,-2.471885 -0.145521,-0.05608 -0.182268,-0.190662 -0.08166,-0.299065 0.100607,-0.108403 0.880622,0.226733 1.733366,0.744748 1.581103,0.960473 2.396753,1.684684 2.430483,2.158027 0.0104,0.145521 0.15449,0.309795 0.32026,0.365054 0.16769,0.05589 0.21945,-0.03215 0.11668,-0.198437 -0.1016,-0.1644 -0.0657,-0.298908 0.0799,-0.298908 0.14552,0 0.33817,0.119062 0.4281,0.264583 0.0899,0.145521 0.0147,0.264583 -0.16724,0.264583 -0.22213,0 -0.19595,0.10863 0.0797,0.330729 0.39368,0.317195 0.85549,1.256771 0.61772,1.256771 -0.0631,0 -0.24146,-0.236892 -0.39642,-0.526428 z"
       id="path26763" />
    <path
       style="fill:#557749"
       d="m 105.08527,53.72997 c -0.14844,-0.185417 -0.36132,-0.634779 -0.47305,-0.998581 -0.58162,-1.893802 -2.38992,-4.851872 -3.66309,-5.992218 -1.140128,-1.021179 -1.213645,-1.136786 -0.45841,-0.72086 0.82614,0.454976 3.20155,3.29279 3.20155,3.824774 0,0.125665 0.41678,1.084857 0.92616,2.131538 0.87784,1.803756 1.063,2.499973 0.46684,1.755347 z"
       id="path26762" />
    <path
       style="fill:#557749"
       d="m 121.24338,56.898576 c 0.91585,-1.221552 1.82232,-3.103052 1.67719,-3.481249 -0.15099,-0.39348 -1.93117,-0.950521 -3.03765,-0.950521 -0.44747,0 -0.88281,-0.11201 -0.96742,-0.248911 -0.0914,-0.147833 0.25148,-0.189755 0.84428,-0.103235 1.24696,0.181995 3.77624,0.877895 3.77624,1.038983 0,0.226233 -1.83782,3.678244 -2.20506,4.141808 -0.66623,0.840963 -0.74568,0.480892 -0.0876,-0.396875 z"
       id="path26761" />
    <path
       style="fill:#557749"
       d="m 107.66507,61.002401 c -0.002,-0.18037 0.31113,-1.115241 0.69634,-2.077492 0.74536,-1.861876 2.83736,-4.39755 4.45076,-5.394685 1.16593,-0.720586 3.22698,-1.329462 4.37385,-1.292129 0.7299,0.02376 0.62759,0.07359 -0.48305,0.235259 -2.06296,0.300295 -4.5699,1.634567 -5.94518,3.164213 -1.08865,1.210842 -2.56235,3.832876 -2.57165,4.575533 -0.006,0.446418 -0.51575,1.219205 -0.52107,0.789301 z"
       id="path26754" />
    <path
       style="fill:#557749"
       d="m 106.63466,59.529165 c 0.2268,-3.660964 0.48835,-5.438161 0.83153,-5.650259 0.18452,-0.114042 0.22024,-0.0079 0.10148,0.301621 -0.24245,0.631825 -0.69002,4.932999 -0.69581,6.686799 -0.003,0.763984 -0.0949,1.389062 -0.20537,1.389062 -0.11044,0 -0.12476,-1.22725 -0.0318,-2.727223 z"
       id="path26752" />
    <path
       style="fill:#557749"
       d="m 112.29123,62.338005 c 1.20839,-0.277642 4.53023,-1.489819 5.01698,-1.830752 0.2886,-0.202142 0.64378,-0.367531 0.7893,-0.367531 0.14553,0 -0.005,0.188614 -0.33382,0.419142 -0.8412,0.589196 -4.70704,1.968333 -5.41393,1.931416 -0.53441,-0.02791 -0.53971,-0.04172 -0.0585,-0.152275 z"
       id="path26751" />
    <path
       style="fill:#557749"
       d="m 105.49146,60.198933 c 0.0751,-3.449554 0.0461,-3.695265 -0.53826,-4.56449 -0.36799,-0.547344 -0.88134,-0.954472 -1.27002,-1.007229 -0.3588,-0.0487 -0.7454,-0.177459 -0.85912,-0.286125 -0.29415,-0.281101 1.46638,-0.006 1.83467,0.286667 0.19453,0.154595 0.35945,0.118598 0.45532,-0.09939 0.10573,-0.240369 0.14002,-0.22402 0.11559,0.0551 -0.0191,0.218281 0.0933,0.705327 0.24971,1.082324 0.32006,0.771297 0.38958,1.8704 0.35413,5.598405 -0.0135,1.418828 -0.11384,2.57988 -0.22298,2.580116 -0.10914,2.35e-4 -0.16271,-1.640187 -0.11904,-3.645384 z"
       id="path26749" />
    <path
       style="fill:#557749"
       d="m 102.89189,63.642002 c -0.65119,-0.503233 -2.28532,-1.445712 -3.631388,-2.094398 -2.64377,-1.274064 -3.41294,-2.070355 -0.946,-0.979358 2.397428,1.060256 3.042818,1.42099 4.538118,2.536541 0.77512,0.578267 1.461,0.9997 1.52418,0.93652 0.138,-0.137999 -0.48492,-1.954991 -1.03247,-3.01161 -1.19412,-2.304343 -4.159099,-4.576145 -6.887767,-5.277496 l -1.363248,-0.350396 1.190625,0.152247 c 3.42412,0.437848 6.86385,3.530849 8.14414,7.323199 0.44426,1.315954 0.45113,1.469645 0.0702,1.569274 -0.23229,0.06075 -0.95514,-0.301291 -1.60634,-0.804523 z"
       id="path26748" />
    <path
       style="fill:#557749"
       d="m 105.59876,70.012677 c -0.0954,-4.261845 -0.47929,-4.66546 -4.37894,-4.604129 -3.11781,0.04903 -5.02095,-0.262424 -6.900898,-1.129367 -1.382392,-0.637494 -3.92171,-2.74466 -4.412359,-3.661444 -0.152493,-0.284937 0.419087,0.175554 1.270179,1.023314 2.646925,2.636561 5.134974,3.52103 9.913798,3.524223 1.59751,0.0011 2.32814,-0.09879 2.40874,-0.329196 0.0841,-0.240533 0.26305,-0.200044 0.65606,0.148466 0.29721,0.263557 0.59275,0.382619 0.65675,0.264583 0.064,-0.118036 0.0801,-0.06578 0.0358,0.116117 -0.0444,0.181901 0.0299,0.33073 0.16503,0.33073 0.48572,0 0.82716,2.029094 0.73462,4.365624 l -0.0943,2.38125 z"
       id="path26742" />
    <path
       style="fill:#557749"
       d="m 107.40698,72.550014 c -0.016,-0.639758 1.93967,-3.525133 2.80147,-4.133285 2.42971,-1.714603 5.63767,-2.485426 8.1682,-1.962687 0.8273,0.1709 0.47164,0.219604 -1.6293,0.223113 -2.45688,0.0041 -2.83171,0.07442 -4.36563,0.819014 -0.92289,0.447988 -1.86143,0.970353 -2.08563,1.16081 -0.63646,0.540669 -1.80666,2.16759 -2.36809,3.292366 -0.28076,0.562469 -0.51522,0.83277 -0.52102,0.600669 z"
       id="path26741" />
    <path
       style="fill:#557749"
       d="m 119.69923,73.227136 c 2.41463,-1.653117 4.38429,-3.948934 3.96708,-4.623989 -0.0878,-0.142077 0.0214,-0.18652 0.2463,-0.100222 0.35187,0.135026 0.35656,0.24572 0.0363,0.856865 -0.68024,1.297975 -2.36789,3.028842 -3.95066,4.051842 -2.19428,1.41823 -2.42871,1.273569 -0.29899,-0.184496 z"
       id="path26740" />
    <path
       style="fill:#557749"
       d="m 106.51391,70.830115 c 0.13403,-4.217651 0.56448,-6.403592 1.43177,-7.270879 0.29061,-0.290618 0.46018,-0.638774 0.3768,-0.773679 -0.16413,-0.265573 0.071,-0.544018 2.73148,-3.235038 0.9678,-0.978906 2.11836,-1.911502 2.55679,-2.072434 0.43843,-0.160933 1.21387,-0.471204 1.72319,-0.689492 1.36255,-0.583969 0.64424,-0.01798 -1.25168,0.986238 -1.64812,0.87297 -6.06524,5.010726 -5.34903,5.010726 0.2023,0 0.0437,0.31945 -0.37633,0.757824 -1.13255,1.18213 -1.4891,2.827043 -1.49368,6.890997 -0.002,1.977784 -0.10993,3.763209 -0.23934,3.967612 -0.14032,0.221651 -0.18471,-1.219918 -0.10997,-3.571875 z"
       id="path26739" />
    <path
       style="fill:#557749"
       d="m 103.21753,74.276811 c -0.32587,-0.228247 -1.72594,-0.68901 -3.11126,-1.023916 -1.385327,-0.334907 -2.593793,-0.68394 -2.685483,-0.77563 -0.287835,-0.287835 0.808596,-0.182348 2.392348,0.230167 0.838035,0.218281 1.754145,0.396875 2.035785,0.396875 0.28165,0 0.90092,0.353697 1.37616,0.785994 0.93949,0.854598 0.93572,1.047207 -0.008,0.38651 z"
       id="path26738" />
    <path
       style="fill:#557749"
       d="m 105.14748,74.852007 c -0.29104,-0.309488 -0.54648,-0.774461 -0.56764,-1.033275 -0.046,-0.562334 -1.90461,-2.635303 -3.45312,-3.85133 -0.61068,-0.479567 -1.741775,-1.114052 -2.513537,-1.409968 -2.705533,-1.037383 -7.227936,-0.21247 -9.284577,1.693561 -0.39467,0.365768 -0.717583,0.773081 -0.717583,0.905139 0,0.132058 0.367714,0.713717 0.817141,1.292576 0.799665,1.029964 0.793832,1.0275 -0.272711,-0.115193 l -1.08985,-1.167665 0.733212,-0.765308 c 0.403267,-0.42092 1.505709,-1.145608 2.449872,-1.610417 1.566536,-0.771204 1.937169,-0.845113 4.238178,-0.845152 2.302127,-3.9e-5 2.671647,0.07373 4.24698,0.847805 1.989755,0.977717 4.591545,3.517134 5.486965,5.355423 0.3151,0.646903 0.54657,1.19651 0.51437,1.221348 -0.0322,0.02484 -0.29666,-0.208056 -0.5877,-0.517544 z"
       id="path26736" />
    <path
       style="fill:#557749"
       d="m 106.60416,78.21315 c 8.2e-4,-0.554291 0.14085,-1.484052 0.31119,-2.066135 0.17035,-0.582084 0.28343,-1.253873 0.25131,-1.492865 -0.0561,-0.417078 1.10871,-1.549843 1.59363,-1.549843 0.12879,0 0.68205,-0.282737 1.22946,-0.628303 1.11798,-0.70575 4.81612,-2.104626 5.02135,-1.899398 0.14123,0.141233 -2.18203,1.204784 -2.63177,1.204784 -0.32931,0 -4.20164,2.071404 -4.64945,2.4871 -0.25147,0.233445 -0.0971,0.296062 0.66146,0.268367 0.62814,-0.02293 0.72306,0.0049 0.25992,0.07632 -0.95238,0.14679 -1.5194,1.251534 -1.5194,2.96029 0,0.726242 -0.11907,1.394025 -0.26459,1.483962 -0.15878,0.09813 -0.26399,-0.239472 -0.26311,-0.844281 z"
       id="path26735" />
    <path
       style="fill:#557749"
       d="m 103.11297,84.283456 c 2.08247,-0.04476 5.41622,-0.04465 7.40833,2.42e-4 1.99211,0.04489 0.28826,0.08151 -3.78632,0.08138 -4.07458,-1.33e-4 -5.70449,-0.03686 -3.62201,-0.08162 z"
       id="path26730" />
    <path
       style="fill:#497137"
       d="m 104.14109,42.72652 c -0.55351,-1.622182 -1.0533,-3.193043 -1.11065,-3.490802 -0.15486,-0.804165 0.30991,-0.386682 0.51482,0.462443 0.0969,0.401557 0.53523,1.714055 0.97404,2.916662 0.4388,1.202607 0.75966,2.383335 0.71301,2.623839 -0.0467,0.240505 -0.5377,-0.889959 -1.09122,-2.512142 z"
       id="path26556" />
    <path
       style="fill:#497137"
       d="m 106.3858,46.05066 c 0.048,-3.525439 0.14679,-3.102351 0.27827,1.191243 0.039,1.273647 -0.0184,2.315443 -0.12753,2.315104 -0.10914,-3.4e-4 -0.17697,-1.578196 -0.15074,-3.506347 z"
       id="path26554" />
    <path
       style="fill:#497137"
       d="m 109.03692,49.622535 c 1.55084,-2.474031 2.90119,-4.343918 3.03811,-4.206997 0.15465,0.154648 -3.69786,5.991581 -3.95508,5.992338 -0.1114,3.28e-4 0.30124,-0.803076 0.91697,-1.785341 z"
       id="path26553" />
    <path
       style="fill:#497137"
       d="m 108.98394,61.830154 c 0,-0.408273 3.43274,-3.655922 4.36562,-4.130238 0.43657,-0.221965 1.09141,-0.481665 1.45521,-0.57711 0.3638,-0.09545 0.0661,0.139333 -0.66146,0.52173 -0.7276,0.382397 -2.18612,1.543754 -3.24114,2.580792 -1.05503,1.037039 -1.91823,1.75921 -1.91823,1.604826 z"
       id="path26547" />
    <path
       style="fill:#497137"
       d="m 103.2807,63.846901 c -0.28296,-0.281301 -1.76463,-1.168407 -3.292594,-1.971347 -3.209527,-1.686591 -3.156516,-1.986069 0.07158,-0.404415 2.17144,1.063924 4.15635,2.466343 3.88078,2.741918 -0.0799,0.07991 -0.37681,-0.08486 -0.65977,-0.366156 z"
       id="path26546" />
    <path
       style="fill:#497137"
       d="m 107.39894,72.40685 c -0.004,-0.528738 2.12459,-3.507267 2.90322,-4.061702 1.19745,-0.852662 3.51745,-1.852402 4.23803,-1.826264 0.48224,0.01749 0.38316,0.08933 -0.36572,0.265135 -1.56044,0.366328 -4.04588,1.790048 -4.74173,2.716177 -0.34134,0.454291 -0.93802,1.361765 -1.32595,2.016609 -0.38794,0.654843 -0.70647,1.055364 -0.70785,0.890045 z"
       id="path26543" />
    <path
       style="fill:#497137"
       d="m 106.70633,69.929305 c 0,-1.964531 0.0417,-2.768203 0.0926,-1.785938 0.0509,0.982266 0.0509,2.58961 0,3.571875 -0.0509,0.982266 -0.0926,0.178594 -0.0926,-1.785937 z"
       id="path26542" />
    <path
       style="fill:#497137"
       d="m 108.19019,73.523566 c 0,-0.256331 4.97478,-2.550315 5.82083,-2.684117 0.64086,-0.101351 0.34474,0.09038 -0.96153,0.622571 -1.03816,0.422964 -2.45214,1.084571 -3.14218,1.470238 -1.18068,0.659894 -1.71712,0.844624 -1.71712,0.591308 z"
       id="path26541" />
    <path
       style="fill:#497137"
       d="m 102.63394,73.929367 c -0.21828,-0.119448 -1.28984,-0.426644 -2.38125,-0.682656 -1.091407,-0.256013 -2.162969,-0.573016 -2.38125,-0.704452 -0.409371,-0.246499 0.100266,-0.179091 2.24896,0.297462 0.58208,0.129099 1.35599,0.295804 1.71979,0.370455 0.6861,0.140788 1.92142,0.935351 1.45521,0.936002 -0.14552,2.02e-4 -0.44318,-0.09736 -0.66146,-0.216811 z"
       id="path26540" />
    <path
       style="fill:#375e2b"
       d="m 104.14068,42.638946 c -0.53767,-1.524701 -0.97463,-3.002948 -0.97103,-3.284993 0.004,-0.282044 0.48185,0.850373 1.0628,2.516483 0.58095,1.66611 1.01791,3.144356 0.97103,3.284992 -0.0469,0.140636 -0.52514,-0.991781 -1.0628,-2.516482 z"
       id="path26478" />
    <path
       style="fill:#375e2b"
       d="m 108.31194,51.011977 c 0.21175,-0.653855 3.40618,-5.4238 3.54162,-5.288363 0.054,0.05395 -0.7594,1.384969 -1.80744,2.957813 -1.04805,1.572845 -1.82843,2.621592 -1.73418,2.33055 z"
       id="path26477" />
    <path
       style="fill:#375e2b"
       d="m 110.70373,59.896632 c 1.35704,-1.411869 3.46971,-2.857307 3.75674,-2.570273 0.0885,0.08853 -0.24427,0.33239 -0.73955,0.541912 -0.49529,0.209521 -1.4363,0.934619 -2.09115,1.611328 -0.65484,0.676709 -1.42875,1.357059 -1.71979,1.51189 -0.29104,0.15483 0.0661,-0.337855 0.79375,-1.094857 z"
       id="path26474" />
    <path
       style="fill:#375e2b"
       d="m 102.76623,63.428588 c -0.43656,-0.363679 -1.77601,-1.132209 -2.976561,-1.707844 -1.200547,-0.575635 -2.182813,-1.104289 -2.182813,-1.174786 0,-0.415409 4.793494,2.089514 5.560094,2.905525 0.78488,0.835473 0.61824,0.825952 -0.40072,-0.0229 z"
       id="path26473" />
  </g>
</svg>
