<?xml version="1.0" encoding="UTF-8" standalone="no"?>
<!-- Created with Inkscape (http://www.inkscape.org/) -->

<svg
   width="185"
   height="185"
   viewBox="0 0 48.947914 48.947918"
   version="1.1"
   id="svg1"
   xmlns="http://www.w3.org/2000/svg"
   xmlns:svg="http://www.w3.org/2000/svg">
  <defs
     id="defs1" />
  <g
     id="g8136"
     transform="matrix(0.66180042,0,0,0.66180042,28.441502,-65.936384)"
     style="stroke-width:1.51103">
    <path
       style="fill:#c8bda3;stroke-width:1.51103"
       d="m -8.8349931,172.85045 c -0.093845,-0.40765 -0.2455263,-4.8786 -0.3370688,-9.93545 -0.1247741,-6.89258 -0.2460822,-9.19427 -0.4845729,-9.19427 -0.4631032,0 -2.5141942,1.53872 -2.5141942,1.88614 0,0.19154 0.162711,0.16771 0.463021,-0.0678 0.419002,-0.3286 0.428729,-0.31938 0.102313,0.097 -0.19839,0.25306 -0.459573,0.39901 -0.580407,0.32433 -0.358494,-0.22156 -1.601537,2.13025 -1.420106,2.68681 0.105747,0.32439 0.08095,0.38556 -0.07126,0.17579 -0.158082,-0.21786 -0.586646,0.42272 -1.327583,1.98437 -1.282722,2.70356 -3.188706,5.04415 -5.754445,7.06661 -2.07432,1.63508 -4.28318,2.55872 -4.667669,1.95178 -0.12623,-0.19926 -0.231333,-0.76199 -0.233562,-1.2505 -0.0034,-0.74596 -0.0782,-0.85579 -0.467072,-0.68577 -2.342898,1.0243 -7.002402,1.49861 -8.747102,0.8904 -1.059215,-0.36924 -1.176925,-0.80576 -0.846164,-3.13793 0.428365,-3.02037 0.778127,-4.22818 1.881491,-6.49725 1.187895,-2.4429 2.774174,-4.40497 4.389509,-5.42938 l 1.130129,-0.71671 -2.5165,-0.13163 c -2.224221,-0.11634 -2.746091,-0.2451 -4.493254,-1.10859 -1.087215,-0.53733 -1.976754,-1.13836 -1.976754,-1.33563 0,-0.67123 2.052169,-2.95775 3.542371,-3.94689 1.623541,-1.07764 3.600912,-1.84285 5.453462,-2.11038 3.884611,-0.561 10.870246,1.65105 17.021533,5.38998 0.994395,0.60442 1.8663776,1.04056 1.9377381,0.9692 0.2767762,-0.27678 -0.7435921,-1.7577 -1.9509211,-2.83148 -2.243647,-1.99548 -4.680237,-2.76332 -12.985247,-4.09204 -3.273263,-0.52368 -4.704835,-0.99589 -7.925707,-2.61429 -2.812491,-1.41321 -2.978166,-1.76194 -1.467282,-3.08851 2.224379,-1.95303 6.575356,-3.17441 9.626144,-2.7022 2.20738,0.34167 5.656431,1.94742 7.914574,3.68473 0.945886,0.72772 1.898386,1.27423 2.116667,1.21448 0.333134,-0.0912 0.337027,-0.0669 0.02424,0.15144 -0.298318,0.20823 -0.05658,0.62119 1.212109,2.07067 0.871609,0.99581 2.159888,2.58447 2.8628422,3.53036 0.7029544,0.94588 1.3644635,1.81947 1.4700201,1.9413 0.3786948,0.43706 -0.2697006,-2.21159 -0.7920512,-3.23548 -0.5715551,-1.12034 -3.3453591,-4.26207 -3.7629421,-4.26207 -0.138434,0 -0.166745,0.13746 -0.06291,0.30546 0.117906,0.19078 0.07248,0.23358 -0.120993,0.11401 -0.170378,-0.1053 -0.246458,-0.29391 -0.169066,-0.41913 0.07739,-0.12522 -0.566466,-0.77184 -1.430796,-1.43693 -1.57661,-1.21317 -2.070427,-1.47284 -1.718728,-0.90378 0.117905,0.19078 0.07248,0.23358 -0.120993,0.11401 -0.170378,-0.1053 -0.249184,-0.2895 -0.175123,-0.40933 0.07406,-0.11984 -0.668138,-0.87602 -1.64933,-1.6804 -0.981192,-0.80439 -2.129627,-1.82498 -2.552078,-2.26798 -0.422451,-0.44299 -0.887331,-0.73175 -1.033068,-0.64168 -0.153179,0.0947 -0.182302,0.03 -0.06903,-0.15329 0.222563,-0.36012 -0.324732,-1.15226 -0.655052,-0.94811 -0.118977,0.0735 -0.302477,-0.006 -0.407777,-0.17608 -0.126473,-0.20464 -0.07613,-0.23851 0.148335,-0.0998 0.186883,0.1155 0.288867,0.10413 0.226631,-0.0253 -0.06224,-0.12939 -0.434929,-0.90093 -0.828204,-1.71453 -0.893466,-1.84838 -1.318273,-3.93321 -0.903313,-4.43321 0.213251,-0.25695 0.824335,-0.33096 2.171159,-0.26295 2.577847,0.13018 4.958716,1.31589 7.27282,3.62199 0.948614,0.94534 1.8229,1.69528 1.942857,1.66654 0.119957,-0.0287 0.152544,0.0538 0.07242,0.18347 -0.08013,0.12966 0.228288,0.92621 0.68537,1.77012 0.457083,0.84391 1.530694,3.21133 2.3858031,5.26093 0.8551087,2.0496 1.4755123,3.30983 1.3786746,2.8005 -0.2629576,-1.38304 -2.2589727,-6.42613 -3.6135537,-9.12993 -1.515067,-3.02414 -2.464626,-5.68504 -2.690921,-7.54064 -0.189853,-1.55678 0.179937,-3.85889 0.821677,-5.11528 0.32053,-0.62754 0.49761,-0.72293 1.07361,-0.57837 1.751423,0.43958 3.8492342,2.73685 4.6877201,5.13343 0.2439194,0.69717 0.4226245,2.22338 0.449215,3.83645 0.037513,2.2757 0.069902,2.0418 0.2152744,-1.55462 0.1570075,-3.88425 0.2329695,-4.37027 0.9212136,-5.8941 0.4125528,-0.91342 1.1532597,-2.01475 1.6460153,-2.44739 0.8905619,-0.78193 2.0176733,-1.03179 2.335382,-0.51773 0.091404,0.14789 0.2954205,0.18903 0.4533703,0.0914 0.1606157,-0.0993 0.211904,-0.0557 0.1163748,0.0989 -0.093944,0.15201 0.1465737,0.84423 0.534483,1.53827 0.5435657,0.97255 0.73252455,1.73237 0.8240631,3.31365 0.15038518,2.59781 -0.4476194,4.69344 -2.6144651,9.16207 -0.8609984,1.77561 -1.5654517,3.37795 -1.5654517,3.56077 0,0.18281 0.6103616,-0.73209 1.356359,-2.03312 1.7041626,-2.97209 3.72858889,-5.98091 4.8864197,-7.26249 0.4903031,-0.54271 0.8043032,-1.08306 0.6977781,-1.20079 -0.1065252,-0.11773 -0.044042,-0.12791 0.1388527,-0.0226 0.183864,0.10585 0.6780072,-0.0546 1.1052599,-0.35879 1.6992759,-1.20999 2.9699955,-1.58805 5.3580015,-1.59409 1.2638338,-0.003 2.5942703,0.10688 2.9565253,0.24461 l 0.658646,0.25041 -0.516099,1.35827 c -1.713249,4.5089 -2.3758211,5.35941 -6.0590836,7.7777 -4.4135104,2.89774 -5.2810195,3.51578 -6.45881124,4.60143 -0.68939256,0.63546 -1.14957446,1.26146 -1.04806206,1.42571 0.099536,0.16105 0.061735,0.21913 -0.084002,0.12906 -0.3606685,-0.22291 -1.7723231,1.28805 -1.5458128,1.65455 0.099473,0.16096 0.035847,0.25993 -0.1413929,0.21994 -0.4997772,-0.11275 -1.8274338,1.93182 -2.0172182,3.10649 l -0.1703132,1.05414 1.4998094,-1.7664 c 1.5566389,-1.83334 1.9327389,-2.51861 0.904497,-1.64804 l -0.5953124,0.50403 0.4945244,-0.58481 c 0.2719885,-0.32165 0.580874,-0.55977 0.6864122,-0.52917 0.1055383,0.0306 1.2211036,-0.98767 2.47903411,-2.26284 2.50228469,-2.53657 5.49333249,-4.64696 7.65376489,-5.40024 1.0759408,-0.37516 2.1562335,-0.48097 4.8258474,-0.47268 2.968719,0.009 3.638795,0.0936 4.894791,0.61622 0.800365,0.33305 1.658783,0.78885 1.907596,1.01289 0.425728,0.38335 0.420049,0.47177 -0.09637,1.50045 -0.301815,0.6012 -0.839405,1.48075 -1.194644,1.95455 -0.361751,0.48248 -0.562585,1.00626 -0.456526,1.19062 0.10415,0.18105 0.100333,0.24931 -0.0085,0.1517 -0.108815,-0.0976 -1.038115,0.47175 -2.065111,1.26525 -3.957349,3.05761 -6.6700766,4.21481 -11.1723519,4.76595 -1.752293,0.2145 -3.95989361,0.56728 -4.905779,0.78396 -1.9053729,0.43648 -3.9687498,1.33899 -3.9687498,1.73591 0,0.14112 0.1488282,0.17095 0.3307292,0.0663 0.1921522,-0.11058 0.2383445,-0.0894 0.110243,0.0505 -0.1212673,0.13247 -0.357788,0.24085 -0.5256014,0.24085 -0.5000737,0 -1.0098271,1.38304 -0.9226994,2.50343 l 0.081287,1.04528 1.8520833,-1.2124 c 2.1526103,-1.40913 7.9610222,-4.27169 10.4510411,-5.15059 2.3495063,-0.8293 8.1348009,-0.9006 10.1864579,-0.12553 3.007994,1.13634 7.057182,4.53735 8.298118,6.96979 l 0.559116,1.09595 -0.68654,0.54004 c -1.911766,1.50379 -5.668942,2.65964 -8.936441,2.74918 l -1.880086,0.0515 1.011829,0.50039 c 3.052907,1.50978 5.939514,8.48878 5.333514,12.89493 l -0.186604,1.35677 -1.624161,-0.13395 c -1.896712,-0.15644 -6.448305,-1.60846 -7.695927,-2.45512 l -0.8642257,-0.58648 -0.4531326,1.4375 c -0.2492229,0.79062 -0.5344197,1.40059 -0.6337706,1.35548 -2.9842985,-1.35504 -6.2313524,-4.02561 -8.39946218,-6.90823 -0.67861238,-0.90225 -1.98043022,-3.12874 -2.89292862,-4.94775 -1.5695805,-3.12886 -2.5612947,-4.53561 -2.8566364,-4.05213 -0.6235948,1.02083 -0.8234147,3.29345 -0.9611332,10.9313 l -0.1502776,8.33437 -1.091039,0.0797 c -1.0046193,0.0734 -1.1045541,0.021 -1.2616667,-0.66146 z"
       id="path1045" />
    <path
       style="fill:#dfc67b;stroke-width:1.51103"
       d="m -8.8491088,172.32325 c -0.1063995,-0.69857 -0.2388222,-4.90154 -0.2942727,-9.33993 -0.05545,-4.43838 -0.1044667,-8.33768 -0.1089249,-8.6651 -0.010503,-0.77133 -0.4483651,-0.75205 -1.6628906,0.0732 -1.189673,0.80841 -2.601681,2.95373 -3.824369,5.81053 -1.771288,4.13859 -5.698126,8.2029 -9.227884,9.55093 -0.648867,0.2478 -1.246646,0.38366 -1.328398,0.30191 -0.08175,-0.0817 -0.214694,-0.64111 -0.295427,-1.24303 -0.118219,-0.88138 -0.229759,-1.05774 -0.573067,-0.90606 -2.277237,1.00608 -6.539107,1.44635 -8.562215,0.8845 l -0.992187,-0.27554 v -1.55777 c 0,-5.13459 2.767892,-10.96868 6.278286,-13.23321 l 1.118911,-0.7218 -2.309536,-0.13915 c -2.52219,-0.15197 -4.911075,-0.90243 -6.083899,-1.91126 l -0.705652,-0.60697 0.773515,-1.11618 c 1.544078,-2.22811 4.941898,-4.28606 7.844661,-4.75127 4.299669,-0.68907 10.787366,1.2663 17.359233,5.23202 1.200547,0.72446 2.1828127,1.20365 2.1828127,1.06486 0,-1.12117 -2.7928737,-3.92776 -4.7624997,-4.78588 -1.303332,-0.56784 -4.48025,-1.26327 -9.392708,-2.0561 -4.10776,-0.66295 -5.519042,-1.09893 -8.660769,-2.67552 -2.853326,-1.43186 -3.078749,-1.78796 -1.856418,-2.93256 1.987224,-1.86085 6.560197,-3.32303 9.326562,-2.98211 4.887247,0.6023 9.515657,3.88346 14.155208,10.03488 2.4165782,3.20405 2.262405,3.05624 2.0820644,1.99623 -0.4871353,-2.8633 -2.2806704,-5.14734 -6.7122724,-8.548 -6.731513,-5.16553 -8.911176,-7.82641 -9.509028,-11.6084 -0.269705,-1.70614 0.0093,-1.91117 2.37114,-1.74219 2.620997,0.18753 4.900748,1.35212 7.197638,3.67683 1.891653,1.91457 3.188182,4.27124 5.3668046,9.75509 1.1453208,2.88291 1.6490096,3.66781 1.0419793,1.62371 -0.6995815,-2.35574 -2.1106299,-5.83012 -3.7756399,-9.29663 -1.905703,-3.96762 -2.501508,-5.91003 -2.515859,-8.20208 -0.01151,-1.83857 0.703663,-4.44636 1.280052,-4.66754 0.561954,-0.21564 2.343298,0.84517 3.419418,2.03631 1.6591579,1.83649 2.0743778,3.10124 2.2536436,6.86456 l 0.1575427,3.30729 0.1446498,-4.49791 c 0.135336,-4.2083 0.192861,-4.60485 0.8933994,-6.15869 0.8225831,-1.82453 2.1984398,-3.23402 3.1568565,-3.23402 0.4145542,0 0.8435004,0.3279 1.3104981,1.00177 2.38931428,3.44779 1.92105903,7.46627 -1.6936268,14.53442 -1.50182,2.93665 -1.2888124,3.25483 0.3110565,0.46464 3.26326532,-5.69118 5.4343021,-8.25503 8.0977874,-9.56292 1.3859513,-0.68057 1.7851988,-0.74937 4.3485532,-0.74937 1.5523706,0 2.9152586,0.0929 3.0286406,0.20642 0.259218,0.25956 -0.550352,2.66822 -1.606196,4.77881 -0.9305371,1.86011 -2.5428395,3.2807 -6.4938946,5.72174 -1.3824479,0.85411 -3.3162302,2.24726 -4.29729409,3.09589 -2.07359851,1.7937 -4.56940941,4.84793 -4.98122671,6.09575 -0.5817087,1.76259 -0.126052,1.68188 1.423954,-0.25222 3.94841477,-4.92686 8.4617328,-8.71272 11.5122481,-9.65669 2.312131,-0.71549 7.3702243,-0.63994 9.3227283,0.13925 2.322712,0.92692 2.4952,1.11154 2.114944,2.26373 -0.741028,2.24534 -3.302221,4.80473 -6.96399,6.95909 -2.5605937,1.5065 -5.0325226,2.34906 -7.602197,2.59122 -3.2270004,0.30411 -7.0799008,1.13831 -8.2218797,1.78014 -1.449531,0.81468 -2.0968697,1.93737 -2.0968697,3.63664 0,1.34566 0.0085,1.36022 0.5173514,0.88615 1.7381549,-1.61934 10.655969,-5.96937 13.4526135,-6.56207 2.1344665,-0.45236 5.3331235,-0.49265 7.2498235,-0.0913 3.209413,0.67202 7.261923,3.6078 9.270998,6.71623 l 1.025107,1.58604 -0.610552,0.50305 c -1.880927,1.54975 -5.905475,2.80135 -9.06666,2.81966 l -2.127224,0.0123 1.226176,0.63866 c 3.086485,1.60761 5.874873,8.16139 5.374452,12.63201 l -0.170294,1.52136 h -0.990031 c -1.591832,0 -5.014185,-0.97482 -7.199645,-2.05074 l -2.0239242,-0.99639 -0.3700733,1.19167 c -0.2035402,0.65541 -0.5429303,1.22434 -0.7542001,1.26429 -0.6149523,0.11627 -3.611313,-1.78982 -5.4281085,-3.45302 -2.34913716,-2.15052 -3.88636202,-4.30268 -5.8046371,-8.12665 -3.2279548,-6.43473 -3.5446324,-5.87218 -3.7980312,6.74688 l -0.170016,8.46666 -1.0866839,0.0795 -1.0866838,0.0795 z m 1.3514249,-41.42066 c -0.073399,-0.1819 -0.1334521,-0.0331 -0.1334521,0.33073 0,0.36381 0.060053,0.51263 0.1334521,0.33073 0.073399,-0.1819 0.073399,-0.47956 0,-0.66146 z"
       id="path732" />
    <path
       style="fill:#b0a98f;stroke-width:1.51103"
       d="m -8.8491088,172.32325 c -0.1063995,-0.69857 -0.2388222,-4.90154 -0.2942727,-9.33993 -0.05545,-4.43838 -0.1044667,-8.33768 -0.1089249,-8.6651 -0.010503,-0.77133 -0.4483651,-0.75205 -1.6628906,0.0732 -1.189673,0.80841 -2.601681,2.95373 -3.824369,5.81053 -1.771288,4.13859 -5.698126,8.2029 -9.227884,9.55093 -0.648867,0.2478 -1.246646,0.38366 -1.328398,0.30191 -0.08175,-0.0817 -0.214694,-0.64111 -0.295427,-1.24303 -0.118219,-0.88138 -0.229759,-1.05774 -0.573067,-0.90606 -2.277237,1.00608 -6.539107,1.44635 -8.562215,0.8845 l -0.992187,-0.27554 v -1.55777 c 0,-5.13459 2.767892,-10.96868 6.278286,-13.23321 l 1.118911,-0.7218 -2.309536,-0.13915 c -2.52219,-0.15197 -4.911075,-0.90243 -6.083899,-1.91126 l -0.705652,-0.60697 0.773515,-1.11618 c 1.544078,-2.22811 4.941898,-4.28606 7.844661,-4.75127 4.299669,-0.68907 10.787366,1.2663 17.359233,5.23202 1.200547,0.72446 2.1828127,1.20365 2.1828127,1.06486 0,-1.12117 -2.7928737,-3.92776 -4.7624997,-4.78588 -1.303332,-0.56784 -4.48025,-1.26327 -9.392708,-2.0561 -4.10776,-0.66295 -5.519042,-1.09893 -8.660769,-2.67552 -2.853326,-1.43186 -3.078749,-1.78796 -1.856418,-2.93256 1.987224,-1.86085 6.560197,-3.32303 9.326562,-2.98211 4.887247,0.6023 9.515657,3.88346 14.155208,10.03488 2.4165782,3.20405 2.262405,3.05624 2.0820644,1.99623 -0.4871353,-2.8633 -2.2806704,-5.14734 -6.7122724,-8.548 -6.731513,-5.16553 -8.911176,-7.82641 -9.509028,-11.6084 -0.269705,-1.70614 0.0093,-1.91117 2.37114,-1.74219 2.620997,0.18753 4.900748,1.35212 7.197638,3.67683 1.891653,1.91457 3.188182,4.27124 5.3668046,9.75509 1.1453208,2.88291 1.6490096,3.66781 1.0419793,1.62371 -0.6995815,-2.35574 -2.1106299,-5.83012 -3.7756399,-9.29663 -1.905703,-3.96762 -2.501508,-5.91003 -2.515859,-8.20208 -0.01151,-1.83857 0.703663,-4.44636 1.280052,-4.66754 0.561954,-0.21564 2.343298,0.84517 3.419418,2.03631 1.6591579,1.83649 2.0743778,3.10124 2.2536436,6.86456 l 0.1575427,3.30729 0.1446498,-4.49791 c 0.135336,-4.2083 0.192861,-4.60485 0.8933994,-6.15869 0.8225831,-1.82453 2.1984398,-3.23402 3.1568565,-3.23402 0.4145542,0 0.8435004,0.3279 1.3104981,1.00177 2.38931428,3.44779 1.92105903,7.46627 -1.6936268,14.53442 -1.50182,2.93665 -1.2888124,3.25483 0.3110565,0.46464 3.26326532,-5.69118 5.4343021,-8.25503 8.0977874,-9.56292 1.3859513,-0.68057 1.7851988,-0.74937 4.3485532,-0.74937 1.5523706,0 2.9152586,0.0929 3.0286406,0.20642 0.259218,0.25956 -0.550352,2.66822 -1.606196,4.77881 -0.9305371,1.86011 -2.5428395,3.2807 -6.4938946,5.72174 -1.3824479,0.85411 -3.3162302,2.24726 -4.29729409,3.09589 -2.07359851,1.7937 -4.56940941,4.84793 -4.98122671,6.09575 -0.5817087,1.76259 -0.126052,1.68188 1.423954,-0.25222 3.94841477,-4.92686 8.4617328,-8.71272 11.5122481,-9.65669 2.312131,-0.71549 7.3702243,-0.63994 9.3227283,0.13925 2.322712,0.92692 2.4952,1.11154 2.114944,2.26373 -0.741028,2.24534 -3.302221,4.80473 -6.96399,6.95909 -2.5605937,1.5065 -5.0325226,2.34906 -7.602197,2.59122 -3.2270004,0.30411 -7.0799008,1.13831 -8.2218797,1.78014 -1.449531,0.81468 -2.0968697,1.93737 -2.0968697,3.63664 0,1.34566 0.0085,1.36022 0.5173514,0.88615 1.7381549,-1.61934 10.655969,-5.96937 13.4526135,-6.56207 2.1344665,-0.45236 5.3331235,-0.49265 7.2498235,-0.0913 3.209413,0.67202 7.261923,3.6078 9.270998,6.71623 l 1.025107,1.58604 -0.610552,0.50305 c -1.880927,1.54975 -5.905475,2.80135 -9.06666,2.81966 l -2.127224,0.0123 1.226176,0.63866 c 3.086485,1.60761 5.874873,8.16139 5.374452,12.63201 l -0.170294,1.52136 h -0.990031 c -1.591832,0 -5.014185,-0.97482 -7.199645,-2.05074 l -2.0239242,-0.99639 -0.3700733,1.19167 c -0.2035402,0.65541 -0.5429303,1.22434 -0.7542001,1.26429 -0.6149523,0.11627 -3.611313,-1.78982 -5.4281085,-3.45302 -2.34913716,-2.15052 -3.88636202,-4.30268 -5.8046371,-8.12665 -3.2279548,-6.43473 -3.5446324,-5.87218 -3.7980312,6.74688 l -0.170016,8.46666 -1.0866839,0.0795 -1.0866838,0.0795 z m 1.3514249,-41.42066 c -0.073399,-0.1819 -0.1334521,-0.0331 -0.1334521,0.33073 0,0.36381 0.060053,0.51263 0.1334521,0.33073 0.073399,-0.1819 0.073399,-0.47956 0,-0.66146 z"
       id="path637" />
    <path
       style="fill:#8d8a5b;stroke-width:1.51103"
       d="m -8.8656428,171.6619 c -0.1129849,-1.06243 -0.2205951,-5.46622 -0.2391338,-9.78619 -0.018539,-4.31997 -0.1168542,-7.93763 -0.2184791,-8.03926 -0.3497707,-0.34977 -1.8122523,0.49068 -2.7434833,1.5766 -0.513145,0.59839 -1.704794,2.66948 -2.648109,4.60243 -1.384031,2.83601 -2.05139,3.87091 -3.457097,5.36103 -0.958089,1.01563 -2.325169,2.27469 -3.037955,2.79793 -1.258789,0.92403 -3.866885,2.09945 -4.112786,1.85355 -0.06699,-0.067 -0.187856,-0.61427 -0.268589,-1.21619 -0.116829,-0.87102 -0.233794,-1.05969 -0.573067,-0.92439 -1.779724,0.70978 -4.803944,1.23317 -6.497439,1.12448 -2.659783,-0.17069 -3.056963,-0.44097 -3.056963,-2.08028 0,-3.39885 1.625875,-8.01071 3.851886,-10.92603 0.536728,-0.70293 1.647135,-1.71246 2.467571,-2.24339 l 1.491703,-0.96533 -2.516518,-0.026 c -2.600048,-0.0269 -4.371133,-0.53278 -6.152695,-1.75745 -0.682169,-0.46894 -0.703447,-0.5416 -0.354259,-1.2098 0.708267,-1.35533 2.913416,-3.25563 4.916478,-4.2368 1.979295,-0.96953 1.993181,-0.972 5.423958,-0.96588 3.282316,0.006 3.572656,0.0519 6.35,1.0066 3.169316,1.08946 6.461893,2.66341 9.233905,4.4141 0.974207,0.61527 1.833974,1.05598 1.9105946,0.97936 0.3011776,-0.30118 -0.7400871,-1.76216 -2.2565706,-3.16616 -2.281192,-2.11198 -4.152429,-2.71073 -12.592096,-4.02917 -1.455208,-0.22733 -3.538801,-0.71223 -4.630208,-1.07757 -2.347828,-0.7859 -5.537829,-2.44529 -5.925483,-3.08235 -0.728235,-1.19675 3.368877,-3.52613 7.338384,-4.17219 2.323999,-0.37824 4.400351,0.065 7.582932,1.61871 2.407232,1.1752 3.079074,1.66058 5.032342,3.63565 1.239819,1.25366 3.123409,3.44024 4.185756,4.85907 1.062346,1.41883 1.9752283,2.57969 2.0286272,2.57969 0.053399,0 0.030553,-0.44649 -0.050769,-0.99219 -0.4119664,-2.76447 -2.2844592,-5.03116 -7.3489402,-8.89604 -4.161945,-3.17613 -6.435568,-5.499 -7.656401,-7.82225 -1.099123,-2.09163 -1.546454,-4.40864 -0.926886,-4.80092 1.175976,-0.74455 5.067856,0.22074 7.382104,1.83096 2.800379,1.94848 4.463487,4.57792 7.2905902,11.52672 0.7047314,1.73218 1.3199808,3.03346 1.3672209,2.89174 0.1680888,-0.50427 -2.1113711,-6.60875 -3.6856371,-9.87029 -2.233269,-4.62685 -2.855507,-6.56335 -2.855507,-8.88682 0,-2.02508 0.657601,-4.57861 1.236299,-4.80068 0.443308,-0.17011 2.393508,0.97849 3.30879,1.94877 0.3897475,0.41316 1.0222139,1.37852 1.4054813,2.14523 0.6212658,1.24283 0.7203073,1.83964 0.9131166,5.50231 0.1189467,2.25955 0.2626631,4.15467 0.3193698,4.21137 0.056707,0.0567 0.1069412,-2.24073 0.1116324,-5.10542 0.00785,-4.79441 0.056727,-5.33066 0.6147167,-6.74447 0.6871513,-1.74107 2.3198628,-3.62344 3.1428638,-3.62344 0.7944095,0 2.123579,1.74004 2.6168475,3.42577 0.49309735,1.68514 0.36847039,4.18968 -0.3100824,6.23152 -0.2418008,0.72761 -1.0363251,2.57307 -1.7656097,4.10104 -1.2794386,2.68063 -2.3252243,5.31452 -1.7859017,4.49792 0.1441642,-0.21828 1.224834,-1.98474 2.4014886,-3.92547 4.32978,-7.14136 7.6272485,-9.3323 13.0296551,-8.65731 0.96446,0.1205 1.484248,0.3085 1.484248,0.53683 0,0.543 -1.836193,4.80148 -2.4740128,5.73769 -0.5685927,0.83461 -3.3338412,2.89246 -7.2305066,5.38082 -3.9174229,2.50162 -8.1869383,7.49223 -7.9738315,9.32057 0.076994,0.66056 0.2322923,0.53048 1.9762377,-1.6553 3.75499876,-4.70636 7.9119315,-8.14908 11.2041969,-9.27919 2.193057,-0.7528 7.2615463,-0.69534 9.2762433,0.10516 0.809069,0.32147 1.70185,0.75326 1.983957,0.95954 0.502371,0.36734 0.497847,0.40579 -0.219908,1.86927 -1.390788,2.83576 -4.184607,5.24258 -8.4723179,7.29874 -2.2510735,1.0795 -2.7347663,1.19638 -8.6148596,2.08183 -5.7673132,0.86846 -7.4437386,1.98711 -7.445875,4.96848 l -9.89e-4,1.3802 1.6814834,-1.17544 c 2.0696271,-1.44677 8.6885688,-4.71433 11.0169174,-5.4387 4.1155927,-1.28039 8.9524717,-0.87579 12.1573057,1.01695 3.217822,1.90042 6.733299,5.86134 6.271127,7.06574 -0.220013,0.57334 -3.911682,2.23283 -5.908189,2.65586 -0.991661,0.21012 -2.636458,0.38937 -3.655104,0.39833 l -1.852083,0.0163 0.96133,0.50796 c 2.027361,1.07125 4.267402,4.47888 5.129392,7.80302 0.46974,1.81149 0.574556,5.87598 0.162166,6.28837 -0.610111,0.61011 -6.02319,-0.74696 -8.689426,-2.17846 l -1.3782047,-0.73996 -0.4289965,1.29159 c -0.2359481,0.71037 -0.5613305,1.29159 -0.7230719,1.29159 -0.7387369,0 -4.0950957,-2.32986 -5.8367263,-4.05164 -2.3342497,-2.30764 -3.61270197,-4.15469 -5.5508142,-8.01957 -1.6436731,-3.27772 -2.1719689,-3.97382 -2.6897479,-3.5441 -0.6025657,0.50008 -0.7408092,2.14024 -0.9035989,10.72052 l -0.1606341,8.46666 -1.0889642,0.0796 -1.0889641,0.0796 z"
       id="path537" />
    <path
       style="fill:#817e4e;stroke-width:1.51103"
       d="m -8.577234,173.33722 c -0.2895339,-0.46848 -0.6509794,-11.26973 -0.4947055,-14.78353 0.2323993,-5.22547 -0.1099702,-5.76589 -2.3844545,-3.76381 -0.970286,0.85408 -1.594183,1.84395 -3.126787,4.96094 -1.807374,3.67581 -2.050239,4.02877 -4.335151,6.30029 -2.253498,2.24028 -3.854064,3.30993 -5.875336,3.92642 -0.535171,0.16323 -0.5991,0.0666 -0.760346,-1.1489 l -0.176048,-1.32712 -0.757973,0.39197 c -2.088453,1.07998 -7.18303,1.45878 -8.70008,0.64688 -0.654145,-0.35009 -0.701286,-1.7131 -0.157077,-4.54157 0.982733,-5.10768 3.341964,-8.70792 7.178722,-10.9549 0.366457,-0.21462 -0.115555,-0.28637 -2.013901,-0.29979 -2.590312,-0.0183 -4.348101,-0.48494 -6.272676,-1.66514 -0.835997,-0.51266 -0.853078,-0.55711 -0.483779,-1.25884 0.536651,-1.01974 2.712915,-3.04735 4.128498,-3.8465 3.715734,-2.09768 8.563369,-1.98547 14.400637,0.33334 2.584299,1.0266 3.650639,1.56326 6.711377,3.37768 1.352389,0.8017 2.5220277,1.3945 2.5991966,1.31733 0.2861062,-0.2861 -0.6840213,-1.69224 -2.0753916,-3.00814 -2.447584,-2.31482 -3.438949,-2.65921 -11.66451,-4.05214 -4.730379,-0.80104 -7.007852,-1.49276 -9.651979,-2.93152 -2.243942,-1.221 -2.392994,-1.41637 -1.743885,-2.28578 0.701382,-0.93942 3.269946,-2.33249 5.250456,-2.84759 3.63443,-0.94527 6.721546,-0.37853 10.871283,1.99577 2.30603,1.31941 4.259747,3.26657 7.536463,7.51118 1.1930522,1.54546 2.2189993,2.76012 2.2798825,2.69924 0.2342858,-0.23429 -0.4957384,-2.7443 -1.0914818,-3.75279 -0.9144757,-1.54806 -3.0402407,-3.58425 -6.5180297,-6.24337 -5.4766,-4.1874 -8.21626,-7.68665 -8.608045,-10.99465 -0.160569,-1.35576 -0.15928,-1.3587 0.677021,-1.54238 2.385662,-0.52398 6.275661,1.07098 8.755953,3.59008 1.697418,1.72398 2.84092,3.78482 5.1790186,9.33373 0.8501511,2.01763 1.5883352,3.5406 1.6404091,3.38438 0.1840776,-0.55224 -1.8751037,-6.04743 -3.7830267,-10.0955 -2.289674,-4.85804 -2.773682,-6.3818 -2.773682,-8.73214 0,-1.61191 0.566223,-4.03571 1.073748,-4.59634 0.332342,-0.36711 2.522811,0.83294 3.451934,1.89115 1.6989502,1.935 2.0910394,3.2833 2.3209581,7.98123 0.114368,2.33688 0.2732439,4.31418 0.3530575,4.39399 0.079814,0.0798 0.1373746,-2.27145 0.1279132,-5.22503 -0.014484,-4.52148 0.057453,-5.57625 0.4551979,-6.67426 0.6803269,-1.87811 1.6181404,-3.24836 2.5546611,-3.73266 0.7491729,-0.38741 0.8694227,-0.3862 1.4815477,0.0149 0.3664083,0.24008 0.9824142,1.11103 1.3689019,1.93545 0.5979626,1.27551 0.69894458,1.83416 0.67747738,3.7479 -0.0216545,1.93043 -0.16413148,2.60495 -1.00598038,4.7625 -0.5394141,1.38244 -1.3130453,3.10885 -1.7191805,3.83645 -0.8831818,1.58225 -1.7458748,3.79402 -1.5544926,3.9854 0.075427,0.0754 0.4661386,-0.49277 0.868247,-1.26267 1.4910667,-2.85486 4.01035016,-6.66002 5.4669468,-8.25733 0.9126865,-1.00086 2.1573084,-2.00193 3.1749998,-2.5537 1.5973958,-0.86607 1.7972705,-0.90738 4.3757563,-0.90438 1.5979138,0.002 2.8200948,0.12135 2.9911658,0.29242 0.209296,0.2093 0.01454,0.97645 -0.704487,2.77497 -1.4228995,3.55916 -2.1065075,4.23711 -8.2958729,8.22728 -4.8941328,3.15516 -9.0528235,8.11038 -8.4143069,10.02593 0.058258,0.17477 1.1358039,-0.9344 2.394547,-2.46483 4.03034446,-4.90025 7.6943644,-7.84239 11.046843,-8.87041 2.2636927,-0.69416 6.5511908,-0.62516 8.7312498,0.1405 0.945885,0.33221 1.952413,0.7798 2.236729,0.99464 0.508583,0.38431 0.505375,0.4142 -0.19849,1.84935 -0.943154,1.92305 -2.526317,3.60443 -4.907416,5.21185 -2.850255,1.92414 -5.4202525,3.05503 -7.7141561,3.3945 -8.0408484,1.18996 -9.9436299,1.71849 -11.2025149,3.11166 -0.5851268,0.64754 -1.0343383,2.47049 -0.8196066,3.32605 0.152966,0.60946 0.1767067,0.60233 1.9213134,-0.57762 1.9164669,-1.29619 8.3645067,-4.49842 10.4976831,-5.21338 0.7276041,-0.24386 2.3618499,-0.57592 3.6316572,-0.73791 4.3426009,-0.55397 7.9176169,0.51763 11.4515379,3.43257 1.59478,1.31545 3.834512,4.21393 3.834512,4.96231 0,0.49753 -2.649476,1.92263 -4.7625,2.56165 -1.419606,0.42932 -2.680486,0.60412 -4.430237,0.61418 -2.395034,0.0138 -3.063427,0.19934 -1.831568,0.50851 1.18854,0.29831 2.989351,2.20969 4.108426,4.3607 1.378841,2.65031 1.931923,5.00337 1.83303,7.79854 l -0.07653,2.16297 -1.322917,-0.0789 c -1.931323,-0.1152 -5.114929,-1.02647 -7.132677,-2.04166 -1.161968,-0.58462 -1.7942844,-0.77974 -1.8582686,-0.57342 -0.053342,0.172 -0.2343252,0.75922 -0.4021846,1.30492 -0.1678595,0.5457 -0.3498945,0.99219 -0.4045222,0.99219 -0.3257732,0 -1.7856997,-0.77767 -3.0922447,-1.64718 -3.2311351,-2.15031 -5.7225572,-5.15954 -7.9392988,-9.58936 -1.814228,-3.62546 -2.4669759,-4.63846 -2.9888831,-4.63846 -0.7785015,0 -0.9943341,1.95949 -1.156071,10.49569 -0.088696,4.68123 -0.2207967,8.56662 -0.2935571,8.6342 -0.31296,0.29069 -1.8148947,0.45892 -1.9626549,0.21984 z"
       id="path446" />
    <path
       style="fill:#777747;stroke-width:1.51103"
       d="m -8.5553071,173.35955 c -0.2752413,-0.47849 -0.4849424,-5.74593 -0.4750853,-11.93359 0.00594,-3.72736 -0.051411,-6.98537 -0.1274416,-7.24003 -0.2291241,-0.76744 -1.103675,-0.52668 -2.388377,0.65752 -0.926809,0.8543 -1.594689,1.90728 -2.810972,4.43177 -0.877431,1.82117 -2.112526,3.98531 -2.744656,4.80918 -2.154541,2.80809 -5.177656,5.12693 -7.676704,5.88833 -0.515822,0.15715 -0.586279,0.049 -0.751656,-1.1534 l -0.182483,-1.3268 -0.722486,0.37361 c -1.286936,0.6655 -5.015755,1.28159 -6.694636,1.10611 -2.233326,-0.23343 -2.590833,-0.48718 -2.579709,-1.83105 0.02758,-3.33243 1.264554,-7.18446 3.281196,-10.21793 1.248423,-1.87789 2.176526,-2.73301 3.985614,-3.67218 l 1.058333,-0.54942 -2.645833,0.003 c -2.761296,0.003 -4.474142,-0.43055 -6.422844,-1.62554 -0.836326,-0.51286 -0.853305,-0.55712 -0.486125,-1.26717 0.453218,-0.87643 2.568506,-2.89067 3.866261,-3.68158 3.691185,-2.24956 8.700024,-2.18502 14.707975,0.18954 2.261782,0.89393 5.920968,2.79815 7.696987,4.00547 0.608302,0.41352 1.2333805,0.75185 1.3890623,0.75185 0.7378036,0 0.1030046,-1.03579 -1.7674633,-2.88395 -2.548976,-2.51858 -3.390065,-2.8354 -10.942951,-4.12192 -2.999066,-0.51085 -5.918511,-1.09311 -6.487656,-1.29391 -1.478557,-0.52167 -5.845468,-2.74448 -6.053705,-3.08141 -0.319993,-0.51776 0.635278,-1.54143 2.315063,-2.48082 3.300387,-1.84568 7.074972,-2.25271 10.308042,-1.11157 4.167332,1.4709 7.091397,3.79183 10.66277,8.46339 0.873125,1.1421 1.9233072,2.44904 2.3337385,2.90431 l 0.7462387,0.82776 -0.164818,-1.05834 c -0.4353861,-2.79571 -2.4316252,-5.27725 -7.0162012,-8.72191 -5.791206,-4.35127 -8.722163,-8.01337 -9.15169,-11.43463 l -0.17214,-1.37112 0.914694,-0.1716 c 2.377695,-0.44606 6.187586,1.10526 8.578068,3.49283 1.709374,1.7073 2.820149,3.67742 4.952325,8.78368 0.9183674,2.19936 1.7630323,4.08813 1.8770333,4.19726 0.7558174,0.72351 -1.7616673,-6.3935 -3.4631263,-9.79038 -2.838371,-5.66666 -3.544344,-8.82937 -2.645687,-11.8525 0.641011,-2.1564 0.727707,-2.23979 1.799629,-1.73113 1.602021,0.7602 2.8242959,1.98916 3.6519788,3.67194 0.7643209,1.55396 0.82065,1.88753 1.0260235,6.07585 0.119517,2.43739 0.3067455,4.52098 0.4160634,4.63021 0.109318,0.10922 0.1451529,-1.64688 0.079633,-3.90245 -0.1661123,-5.71856 0.07899,-7.76707 1.1762436,-9.83076 0.5656352,-1.06384 1.1935399,-1.83982 1.7476238,-2.15975 0.8172704,-0.4719 0.9022486,-0.47481 1.5462533,-0.0528 0.3748007,0.24558 0.994739,1.12103 1.3776407,1.94545 0.5780841,1.24466 0.69265182,1.85801 0.67535831,3.6156 -0.0247122,2.51159 -0.56484141,4.25951 -2.61630741,8.46667 -0.7805361,1.60073 -1.4901461,3.26761 -1.576911,3.70417 -0.1986434,0.99948 -0.184716,0.97963 2.572101,-3.6673 2.70950936,-4.56719 4.6224364,-6.71811 7.0250518,-7.89904 1.6502599,-0.81114 1.941022,-0.86749 4.3612673,-0.84518 1.4262199,0.0131 2.7139599,0.14473 2.8616449,0.29242 0.455364,0.45536 -1.548483,5.04961 -2.7905111,6.39784 -0.5891706,0.63955 -2.7383688,2.25958 -4.7759961,3.60007 -2.0376272,1.34048 -4.38637959,3.06019 -5.2194497,3.82157 -1.7228566,1.5746 -4.0418011,4.39427 -4.3901851,5.33816 -0.4422738,1.19826 -0.5863444,2.08958 -0.3377554,2.08958 0.1366964,0 1.2525243,-1.22039 2.4796174,-2.71198 3.5852186,-4.358 6.78641,-7.08747 9.8550767,-8.40285 1.6947504,-0.72646 4.6751433,-1.15077 6.7414313,-0.95976 1.753788,0.16212 4.532828,1.00466 5.396264,1.63602 0.457927,0.33484 0.450332,0.41211 -0.172652,1.75639 -0.913898,1.97202 -2.518353,3.67049 -5.073084,5.37035 -2.94769,1.96133 -5.302832,2.98979 -7.6186508,3.32697 -8.2968544,1.20802 -9.3391677,1.48326 -10.7520451,2.83923 -0.7893278,0.75753 -1.0638249,1.25896 -1.2004799,2.19293 -0.3160332,2.15993 -0.09147,2.24334 2.0714087,0.76939 2.349332,-1.601 8.365641,-4.50382 11.022128,-5.31807 1.510842,-0.46309 2.5997497,-0.60094 4.7396111,-0.6 4.135038,0.002 6.293067,0.77899 9.614277,3.46241 1.649537,1.33276 3.879472,4.17813 3.879472,4.95015 0,0.46212 -2.260404,1.70534 -4.463014,2.45465 -1.588216,0.5403 -2.569562,0.69299 -4.597049,0.71525 -2.562835,0.0281 -3.205862,0.21113 -1.896594,0.53973 1.810091,0.45431 4.727506,4.74095 5.522793,8.11481 0.42025,1.78283 0.540044,5.43884 0.195951,5.98022 -0.445193,0.70044 -5.253954,-0.40392 -8.335427,-1.91427 l -1.799383,-0.88196 -0.2511381,0.66055 c -0.1381259,0.3633 -0.2529612,0.80162 -0.2551895,0.97405 -0.010188,0.78838 -0.4163751,1.01262 -1.2105557,0.6683 -1.50654,-0.65318 -3.7060222,-2.30306 -5.4575516,-4.09385 -2.43023125,-2.48469 -2.91940783,-3.18816 -4.7594062,-6.84428 -1.8247916,-3.62591 -2.474153,-4.63021 -2.9938061,-4.63021 -0.7717597,0 -0.988435,1.97233 -1.153002,10.49541 -0.090384,4.68108 -0.2238657,8.56327 -0.2966261,8.6271 -0.2648077,0.23232 -1.8345335,0.43416 -1.940728,0.24955 z M -23.716476,159.08357 c -0.01995,-0.18034 0.0654,-0.26505 0.189662,-0.18825 0.124265,0.0768 0.879278,-0.39252 1.677808,-1.04293 0.798529,-0.65041 1.993128,-1.49976 2.654664,-1.88745 0.672949,-0.39437 1.126484,-0.82835 1.029565,-0.98517 -0.0997,-0.16132 -0.04778,-0.20276 0.122315,-0.0976 0.162549,0.10047 0.865554,-0.1028 1.562234,-0.4517 0.69668,-0.34889 1.899482,-0.84154 2.672894,-1.09477 1.902881,-0.62304 1.565137,-0.8042 -0.501102,-0.26879 -4.651006,1.2052 -10.69683,5.63623 -12.808288,9.38729 -0.12287,0.21828 0.600083,-0.37704 1.606561,-1.32292 1.006478,-0.94589 1.813637,-1.86734 1.793687,-2.04767 z m 35.071972,2.06546 c -0.50414,-1.04345 -3.0093453,-3.38875 -3.4741275,-3.25238 -0.1362797,0.04 -0.180711,-0.0358 -0.098736,-0.16846 0.2318205,-0.37509 -0.4826686,-0.82998 -1.1129809,-0.7086 -0.3119513,0.0601 -0.7849905,-0.0915 -1.0511982,-0.33695 -0.2662077,-0.24541 -0.3593402,-0.37409 -0.206961,-0.28597 0.3395902,0.19639 1.4676781,0.48213 1.4676781,0.37176 0,-0.044 -0.5655468,-0.44097 -1.2567708,-0.88221 -1.8475246,-1.17939 -6.25524781,-2.74984 -7.9851644,-2.84509 -1.3770013,-0.0758 -1.4129322,-0.0632 -0.5476476,0.19166 1.0964818,0.323 2.63723326,0.94159 5.1229347,2.05679 2.1327659,0.95685 2.0495478,0.94093 1.8380635,0.35156 -0.091379,-0.25467 -0.078708,-0.38464 0.028157,-0.28883 0.1068654,0.0958 0.2220456,0.36323 0.2559561,0.59428 0.03391,0.23104 0.8881796,0.97245 1.898376,1.64757 1.0101963,0.67512 2.3854321,1.68461 3.0560795,2.24331 0.6706474,0.5587 1.2957255,0.95929 1.3890625,0.89021 0.09334,-0.0691 0.109083,-0.0451 0.03499,0.0532 -0.109153,0.14489 0.862338,1.40869 1.082863,1.40869 0.03419,0 -0.16407,-0.46824 -0.440574,-1.04054 z m -1.8505178,-1.53914 -0.6414331,-0.72761 0.7276041,0.64143 c 0.6800558,0.59952 0.8489388,0.81378 0.6414328,0.81378 -0.04739,0 -0.3748157,-0.32742 -0.7276038,-0.7276 z m -1.43331,-1.12145 c -0.092694,-0.14999 0.013509,-0.19434 0.2489684,-0.10399 0.4583687,0.1759 0.5422336,0.36554 0.1616484,0.36554 -0.1369326,0 -0.3217102,-0.1177 -0.4106168,-0.26155 z m -7.39495619,-4.21169 c -0.0815494,-0.13195 0.0900176,-0.1776 0.38126009,-0.10144 0.6177987,0.16156 0.6958929,0.34135 0.1482717,0.34135 -0.20969308,0 -0.44798237,-0.10796 -0.52953179,-0.23991 z M -13.493745,150.50526 c -2.150696,-0.58773 -3.95727,-0.79073 -5.832887,-0.65544 -4.643134,0.33493 -2.188751,0.74289 5.30372,0.88157 1.375577,0.0255 1.404534,0.0131 0.529167,-0.22613 z m 15.6674643,-0.11188 c 1.8866134,-0.26483 4.2374352,-0.38658 6.3862235,-0.33073 3.0503302,0.0793 3.2839412,0.0547 2.2682292,-0.23912 -1.5076845,-0.43607 -5.4234018,-0.8161 -7.0272117,-0.68202 -1.1616581,0.0971 -5.123873,1.30772 -5.123873,1.56553 0,0.16234 0.2927778,0.13608 3.496632,-0.31366 z m 11.7775427,0.25926 c -0.08792,-0.0879 -0.316122,-0.0973 -0.507118,-0.0209 -0.211067,0.0845 -0.148372,0.14716 0.159852,0.15985 0.278915,0.0115 0.435185,-0.051 0.347266,-0.13896 z m -14.16283477,-9.1022 c 0.18912758,-8.9e-4 0.6854061,-0.17975 1.10284116,-0.39746 0.41743501,-0.2177 2.32243491,-0.94616 4.23333311,-1.61879 4.2115004,-1.48243 4.8521295,-1.91632 1.4712231,-0.99643 -2.8917057,0.78679 -5.98065675,1.97116 -7.58800814,2.9094 -1.27542656,0.7445 -1.53098336,1.12246 -0.34386836,0.50858 0.42933594,-0.22202 0.93535154,-0.4044 1.12447913,-0.4053 z"
       id="path358" />
    <path
       style="fill:#626a34;stroke-width:1.51103"
       d="m -8.6671553,173.19172 c -0.092604,-0.14984 -0.2342039,-4.56185 -0.3146676,-9.80448 -0.14582,-9.50092 -0.1481559,-9.53231 -0.7153624,-9.61315 -1.2646947,-0.18026 -3.5350967,2.61736 -5.0903237,6.27237 -1.677713,3.94286 -4.871133,7.42912 -8.432257,9.20549 -1.056447,0.52698 -1.977467,0.9015 -2.046711,0.83225 -0.06924,-0.0692 -0.168058,-0.59394 -0.219585,-1.16599 -0.05153,-0.57205 -0.20207,-1.06545 -0.334539,-1.09644 -0.132469,-0.031 -0.969133,0.16859 -1.859254,0.44352 -2.279061,0.70393 -4.972653,0.90228 -6.583681,0.48481 -1.17979,-0.30573 -1.332755,-0.4287 -1.413849,-1.13657 -0.05001,-0.43656 0.05049,-1.68672 0.223337,-2.77812 0.841611,-5.31416 3.551282,-9.82307 6.933123,-11.53678 0.697866,-0.35363 1.268513,-0.67073 1.268104,-0.70466 -4.09e-4,-0.0339 -1.399393,-0.0617 -3.108854,-0.0617 -2.947356,0 -3.200482,-0.0437 -4.894048,-0.84599 -1.315072,-0.62295 -1.785938,-0.98356 -1.785938,-1.36774 0,-1.03916 2.5542,-3.40379 4.968666,-4.59991 l 2.268601,-1.12386 3.194387,0.0136 c 2.998572,0.0127 3.380904,0.0768 6.237095,1.04547 3.215846,1.09063 7.3266,3.0734 9.861958,4.75678 0.8377068,0.55621 1.5944204,0.93997 1.681586,0.8528 0.2944723,-0.29447 -0.9639474,-1.98122 -2.665944,-3.57336 -1.975799,-1.84826 -3.265388,-2.35453 -8.216141,-3.22554 -8.037174,-1.414 -8.637501,-1.56955 -11.671839,-3.02427 -1.617324,-0.77537 -3.026571,-1.54889 -3.13166,-1.71892 -0.369045,-0.59713 0.68052,-1.61908 2.705022,-2.63384 4.836939,-2.42448 8.721589,-2.15947 13.897048,0.94805 2.258462,1.35606 4.947794,4.11753 7.805106,8.01448 1.9912008,2.7157 2.0011605,2.72261 1.8129885,1.25841 -0.3624557,-2.82035 -2.1361905,-5.03625 -7.1833325,-8.97403 -1.600729,-1.24889 -2.882079,-2.40075 -2.847445,-2.55969 0.03464,-0.15894 -0.09678,-0.22768 -0.292027,-0.15275 -0.208167,0.0799 -1.13644,-0.70054 -2.244305,-1.88683 -2.100711,-2.24942 -3.343925,-4.52558 -3.62368,-6.63447 l -0.179563,-1.35362 0.899183,-0.16868 c 2.283873,-0.42846 6.008771,0.99863 8.275465,3.1705 1.849913,1.77253 3.036552,3.82155 5.191058,8.96365 1.0807849,2.57948 2.0021653,4.50586 2.047512,4.28086 0.1478432,-0.73358 -1.772367,-5.98748 -3.632364,-9.93855 -2.426408,-5.15425 -3.035049,-7.19581 -2.874941,-9.64339 0.06813,-1.04154 0.350972,-2.40435 0.628533,-3.02847 l 0.504657,-1.13478 1.411939,0.70682 c 1.600429,0.80118 2.9759273,2.45961 3.6002788,4.34085 0.2237785,0.67427 0.5014539,3.06233 0.6402698,5.50645 0.1348168,2.3737 0.3153794,4.38607 0.4012503,4.47194 0.085871,0.0859 0.1531739,-2.33249 0.1495623,-5.37415 -0.00709,-5.97212 0.157663,-7.01964 1.4512282,-9.22694 0.7648083,-1.30504 1.348592,-1.7273 2.3880708,-1.7273 0.8906818,0 2.118519,1.87793 2.5328934,3.87396 0.54224708,2.61199 -0.5521505,6.78176 -2.8910965,11.01537 -0.8039202,1.45513 -1.4845537,3.32059 -1.2845372,3.5206 0.065023,0.065 0.7437944,-0.98475 1.508381,-2.33283 3.39285986,-5.98212 5.5215254,-8.48556 8.4294493,-9.91356 1.358882,-0.6673 1.7599536,-0.73649 4.1041396,-0.70796 1.4289442,0.0174 2.7128352,0.14638 2.8530922,0.28664 0.163627,0.16362 -0.127385,1.19123 -0.812078,2.86757 -1.2621575,3.09015 -2.0689669,4.01524 -5.432844,6.22932 -1.3096875,0.86202 -3.2018298,2.13236 -4.2047609,2.82296 -2.0030055,1.37924 -5.4179833,4.88526 -6.3772956,6.54731 -0.7042955,1.22022 -1.1002503,2.77812 -0.7060858,2.77812 0.1448025,0 1.3518927,-1.30603 2.6824227,-2.9023 5.2677704,-6.31987 9.0038899,-8.74306 14.1492366,-9.177 2.194812,-0.1851 4.407823,0.20651 6.566738,1.16202 1.750699,0.77484 1.758324,0.84163 0.366323,3.20922 -2.064731,3.51179 -8.3045977,7.34356 -12.7456796,7.82685 -6.2005035,0.67475 -9.1658809,1.50577 -10.4036903,2.91556 -0.8094193,0.92188 -1.2749299,2.61594 -0.9768802,3.55501 0.1541031,0.48554 0.324665,0.42263 2.2041835,-0.81292 2.1511124,-1.41408 7.6878303,-4.16637 10.0616423,-5.00161 2.2775575,-0.80137 5.4634823,-1.12259 7.8771133,-0.79421 3.663867,0.49848 7.934066,3.14316 9.978847,6.18024 1.587457,2.35783 1.582997,2.37514 -0.931577,3.61591 -2.569131,1.26768 -5.912714,1.99541 -8.213975,1.78777 -1.57916,-0.14249 -2.093194,0.17407 -0.75863,0.46719 1.783121,0.39164 3.968456,3.17912 5.244659,6.68978 0.663527,1.82527 1.100692,5.73043 0.783135,6.99568 -0.159627,0.636 -0.19621,0.64411 -1.951765,0.43276 -2.152304,-0.25911 -4.624554,-1.02981 -6.757807,-2.10667 -0.865742,-0.43703 -1.6026161,-0.75703 -1.6374984,-0.71112 -0.034882,0.0459 -0.2169016,0.64901 -0.4044872,1.34024 -0.1875856,0.69122 -0.398222,1.25677 -0.4680809,1.25677 -0.6513555,0 -3.7365888,-2.09239 -5.4192188,-3.67529 -2.61810831,-2.46293 -3.94885986,-4.3282 -5.9666344,-8.36325 -0.8732329,-1.74625 -1.8380965,-3.40074 -2.1441413,-3.67664 -0.5527773,-0.49834 -0.5590276,-0.49547 -0.9482505,0.43608 -0.3609518,0.86388 -0.9421677,6.76943 -0.8787888,8.9291 0.014947,0.50932 0.0081,2.90731 -0.015209,5.32886 l -0.042385,4.40283 -0.9421031,0.10998 c -0.5181566,0.0605 -1.0178695,-0.0126 -1.1104731,-0.16244 z M 12.499695,161.99958 c -4.4710715,-4.95173 -6.4609589,-6.43465 -10.8581203,-8.09175 -2.6692076,-1.00591 -5.8756757,-1.58905 -5.8743306,-1.06832 3.153e-4,0.12207 1.0517489,0.55413 2.3365192,0.96013 4.545249,1.43637 8.6841107,3.87308 12.1163367,7.13336 1.955189,1.85724 3.856217,3.3707 4.036906,3.21389 0.05599,-0.0486 -0.734804,-1.01487 -1.757311,-2.14731 z m -33.068148,-4.91986 c 2.382171,-1.70514 4.201559,-2.67897 6.743978,-3.60971 0.909506,-0.33295 1.653646,-0.66697 1.653646,-0.74226 0,-0.38654 -2.895037,0.2905 -4.773205,1.11628 -2.471583,1.0867 -4.495308,2.41691 -6.71692,4.4151 -1.527948,1.37428 -3.855707,4.25786 -3.855707,4.77637 0,0.1422 1.072865,-0.78859 2.384146,-2.06842 1.31128,-1.27984 3.365108,-3.02915 4.564062,-3.88736 z m 27.7122065,-6.85755 c 3.1663985,-0.0193 4.2230505,0.0788 6.0499115,0.56151 1.217399,0.32169 2.266747,0.53159 2.331884,0.46646 0.159803,-0.1598 -3.665621,-1.38758 -5.444808,-1.74752 -3.7444265,-0.75752 -7.6066453,-0.60521 -9.93606688,0.39183 -0.44337068,0.18978 -1.19156842,0.48779 -1.66266162,0.66225 -1.6477099,0.6102 -0.5865357,0.71228 2.10781163,0.20275 1.84182257,-0.3483 3.95369017,-0.52143 6.55392937,-0.53728 z m -21.0343735,0.0134 c -1.353722,-0.44692 -2.09402,-0.50641 -5.027083,-0.404 -6.831763,0.23854 -4.266707,0.82165 3.968749,0.90221 l 2.645834,0.0259 z m 16.4041654,-9.62024 c 0.5820833,-0.2519 2.5466145,-0.97101 4.3656248,-1.59802 2.2660779,-0.78112 3.0474083,-1.14465 2.4818034,-1.15471 -0.9627391,-0.0171 -5.5653549,1.30909 -7.8868175,2.27254 -1.78031848,0.73887 -4.9018964,2.50882 -4.909113,2.78351 -0.00403,0.15356 2.61122431,-0.85909 5.9485023,-2.30332 z"
       id="path271" />
  </g>
</svg>
