<?xml version="1.0" encoding="UTF-8" standalone="no"?>
<!-- Created with Inkscape (http://www.inkscape.org/) -->

<svg
   width="185"
   height="185"
   viewBox="0 0 48.947914 48.947918"
   version="1.1"
   id="svg1"
   xmlns="http://www.w3.org/2000/svg"
   xmlns:svg="http://www.w3.org/2000/svg">
  <defs
     id="defs1" />
  <g
     id="g8135"
     transform="matrix(0.63913543,0,0,0.63913543,-26.245536,56.568191)"
     style="stroke-width:1.56461">
    <path
       style="fill:#c8bda3;stroke-width:1.56461"
       d="m 77.26074,-65.481482 c -0.210669,-0.253841 -0.263129,-0.734275 -0.147487,-1.350699 0.09871,-0.526198 0.08244,-0.908178 -0.03616,-0.848844 -1.437176,0.718994 -2.325004,1.002007 -2.735068,0.871857 -0.608072,-0.192994 -0.946231,-1.13622 -0.549562,-1.53289 0.460399,-0.460399 0.339121,-0.978783 -0.228991,-0.978783 -0.611217,0 -1.135558,-0.838068 -0.903194,-1.443599 0.114959,-0.29958 0.435741,-0.402022 1.095652,-0.349896 1.033744,0.08165 1.476102,-0.439438 0.607162,-0.715228 -0.665392,-0.211188 -0.988604,-1.321603 -0.541494,-1.860337 0.48613,-0.585751 1.215748,-0.47723 1.801961,0.268019 0.977696,1.242939 1.736688,0.606584 0.795261,-0.666764 -0.703959,-0.952156 -0.435502,-1.714486 0.603762,-1.714486 0.478358,0 0.699389,0.206556 0.906426,0.847067 0.150591,0.465887 0.365425,0.938689 0.477407,1.050671 0.270282,0.270282 0.694863,-0.428046 0.699946,-1.151235 0.0039,-0.555349 0.628068,-1.407961 1.030714,-1.407961 0.107313,0 0.42623,0.170176 0.708705,0.37817 0.506528,0.372969 0.506639,0.391183 0.0081,1.324498 -0.678745,1.270562 -0.327038,1.513027 0.647311,0.446252 0.928118,-1.01616 1.592727,-0.991819 1.966865,0.07204 0.231138,0.657237 0.186933,0.814096 -0.325262,1.154181 -0.914686,0.607329 -0.739372,1.055305 0.399435,1.020667 0.811979,-0.0247 1.006338,0.06875 1.070099,0.514494 0.126035,0.881094 -0.874331,1.900456 -2.06195,2.101103 -1.121531,0.189481 -1.712791,0.661515 -0.8286,0.661515 0.673867,0 1.35743,0.682132 1.35743,1.354588 0,0.337785 -0.299658,0.649037 -0.84604,0.878773 -0.909244,0.382309 -1.391623,0.304823 -2.146675,-0.344828 -0.417316,-0.35906 -0.510721,-0.362408 -0.723552,-0.02593 -0.134409,0.212495 -0.246203,0.570901 -0.248431,0.796459 -0.0094,0.95367 -1.243027,1.386979 -1.853728,0.651129 z"
       id="path1683" />
    <path
       style="fill:#c8bda3;stroke-width:1.56461"
       d="m 58.472917,-13.587096 c 0,-1.867286 0.536459,-4.18591 1.327034,-5.735565 l 0.535804,-1.050264 -0.600689,-0.0041 c -1.202061,-0.0081 -1.314821,-0.331591 -0.603992,-1.732711 0.760386,-1.4988 0.770489,-1.534811 0.359296,-1.28068 -0.195196,0.120637 -0.233387,0.07217 -0.105797,-0.13428 0.109816,-0.177687 0.264581,-0.258152 0.343921,-0.178812 0.07934,0.07934 0.897009,-0.559908 1.817041,-1.420553 2.434115,-2.276995 5.270565,-3.599773 8.905213,-4.152944 1.567339,-0.23854 2.787745,-0.49567 2.712014,-0.571401 -0.07573,-0.07573 -2.84638,-0.155629 -6.156998,-0.17755 -4.845327,-0.03208 -6.354725,-0.131294 -7.739097,-0.508676 -0.945885,-0.25785 -1.771586,-0.519927 -1.834891,-0.582395 -0.0633,-0.06247 0.322543,-0.561764 0.857441,-1.109549 l 0.97254,-0.995972 -0.725149,-0.05902 c -3.499222,-0.284828 -8.306572,-3.116859 -10.944408,-6.447399 l -0.86376,-1.090585 0.75965,-0.605724 c 0.417808,-0.333148 1.720862,-1.000166 2.895676,-1.482263 2.027197,-0.83188 2.29999,-0.875771 5.354155,-0.861465 l 3.218127,0.01508 -0.04313,-0.67879 c -0.03953,-0.622196 0.05509,-0.685793 1.134928,-0.762768 1.844563,-0.131488 4.438468,0.431554 6.609695,1.434722 1.650515,0.762585 2.418713,1.357328 4.505852,3.488454 1.383859,1.413024 2.595549,2.543175 2.692646,2.511447 0.0971,-0.03173 0.336787,0.146866 0.532645,0.396875 0.321296,0.410129 0.310845,0.419067 -0.106915,0.09144 -0.708851,-0.555919 -0.553324,-0.09536 0.377808,1.118802 1.303975,1.70033 1.318368,1.700916 0.654016,0.02662 -1.137302,-2.866229 -2.112058,-4.63635 -2.359015,-4.283883 -0.144862,0.206753 -0.171395,0.120793 -0.07231,-0.234263 0.115959,-0.415519 -0.417526,-1.409661 -2.058752,-3.836458 -1.218398,-1.801582 -2.338417,-3.250564 -2.488931,-3.21996 -0.150514,0.03061 -0.496198,-0.20752 -0.768186,-0.529166 l -0.494525,-0.584812 0.595313,0.504028 c 1.164338,0.9858 0.572378,-0.01522 -0.79375,-1.342246 -1.654787,-1.607428 -3.613422,-3.104539 -4.961038,-3.792041 -0.912539,-0.465543 -1.102121,-0.473475 -2.804307,-0.117331 -2.838256,0.59384 -5.397675,0.458546 -5.397675,-0.285329 0,-0.293369 4.068117,-1.978539 4.776329,-1.978539 0.306072,0 0.317984,0.143852 -0.12629,-1.525056 -0.431597,-1.621285 -1.400047,-3.36414 -2.375903,-4.275752 -0.37765,-0.352788 -0.686636,-0.739741 -0.686636,-0.859896 0,-0.711268 2.38839,0.369629 3.965913,1.794826 1.131109,1.02189 1.534295,1.966614 1.647968,3.861441 0.06475,1.079262 0.162494,1.266117 0.736118,1.407162 0.99586,0.244866 2.723896,1.316997 4.485196,2.782766 1.55837,1.296889 2.074617,1.60138 1.707247,1.006962 -0.120638,-0.195196 -0.07216,-0.233387 0.13428,-0.105797 0.177686,0.109816 0.262985,0.259747 0.189553,0.33318 -0.07343,0.07343 0.699565,1.162838 1.717773,2.420901 4.842777,5.983574 7.924903,11.938516 9.245081,17.862318 0.564489,2.532934 0.762906,1.114957 1.044777,-7.466431 0.246239,-7.496612 0.02422,-15.854937 -0.496505,-18.691832 -0.152468,-0.830646 -0.06392,-1.342943 0.411583,-2.38125 0.333215,-0.727604 0.616082,-1.561042 0.628594,-1.852083 0.04381,-1.019178 1.270591,5.319714 1.587362,8.202083 0.17592,1.600729 0.33326,5.298057 0.349644,8.216285 0.02977,5.30245 0.03007,5.305006 0.463465,3.96875 1.689961,-5.210527 6.121271,-13.558065 10.406323,-19.603046 3.750308,-5.290611 4.324561,-5.847892 5.711977,-5.543164 1.079624,0.237126 0.978844,0.763801 -0.412393,2.155035 -0.654844,0.654843 -1.190625,1.30906 -1.190625,1.453815 0,0.144755 0.301462,1.161233 0.669917,2.258839 0.742154,2.210838 1.776505,3.87817 3.092155,4.984411 0.47747,0.40148 0.88221,0.96271 0.89941,1.24718 0.0266,0.439462 -0.0903,0.492909 -0.77718,0.355526 -1.784204,-0.356841 -3.568671,-1.412214 -4.32804,-2.559697 -0.643194,-0.971931 -0.746887,-1.389188 -0.746887,-3.005428 v -1.876805 l -1.070647,1.460608 c -2.463158,3.360313 -3.157466,4.512018 -2.460348,4.081175 0.190775,-0.117905 0.233581,-0.07248 0.11401,0.120993 -0.1053,0.170379 -0.294727,0.245954 -0.420948,0.167945 -0.66756,-0.412575 -6.121431,10.142728 -7.929583,15.346744 -1.035521,2.980318 -2.460814,8.349447 -2.267711,8.54255 0.04798,0.04798 0.874334,-1.497281 1.836348,-3.433909 1.932798,-3.890911 3.969004,-6.593103 6.452811,-8.563345 1.92995,-1.530904 5.10978,-3.090217 6.075261,-2.979164 0.630635,0.07254 0.718127,0.186788 0.647617,0.845681 -0.06891,0.643943 -0.0075,0.731787 0.396875,0.567756 2.01458,-0.817188 5.590902,-0.946603 8.342972,-0.301904 1.98716,0.46551 5.76147,1.972684 5.76147,2.300696 0,0.116756 -0.11906,0.285869 -0.26459,0.375806 -0.14552,0.08994 -0.26458,0.282584 -0.26458,0.428105 0,0.145521 0.13746,0.179629 0.30547,0.0758 0.19077,-0.117905 0.23358,-0.07248 0.114,0.120993 -0.1053,0.170379 -0.28256,0.253469 -0.39392,0.184645 -0.11136,-0.06883 -0.72821,0.413806 -1.37078,1.072513 -1.71678,1.759886 -4.53036,3.77423 -7.20161,5.155882 l -2.35311,1.217101 0.72316,0.568837 c 0.39773,0.31286 0.84461,0.568836 0.99306,0.568836 0.14845,0 0.0814,0.20836 -0.14912,0.463021 -0.23046,0.254662 -0.43743,0.582083 -0.45993,0.727604 -0.0225,0.145521 -0.1096,0.324115 -0.19356,0.396875 -0.084,0.07276 -0.067,-0.01654 0.0377,-0.198437 0.28351,-0.492647 0.0385,-0.410375 -1.29341,0.434286 -1.51141,0.958506 -3.350828,1.296967 -8.73395,1.607087 -5.757029,0.331661 -6.777564,0.657124 -2.778125,0.885984 4.551076,0.260426 6.863904,1.023144 9.523259,3.140554 0.740449,0.589554 1.881256,1.728662 2.535116,2.53135 1.11262,1.365853 1.16121,1.489975 0.75778,1.935754 -0.40025,0.442278 -0.3823,0.598203 0.25116,2.181615 0.85522,2.137695 1.47576,4.736238 1.48086,6.201078 0.005,1.349379 -0.0327,1.355652 -3.643607,0.610541 -1.720007,-0.354929 -3.060781,-0.838422 -4.470366,-1.612047 l -2.013478,-1.105061 0.147089,1.096633 c 0.135865,1.012944 0.105819,1.083533 -0.393715,0.924987 -1.056289,-0.335253 -3.529026,-1.940561 -4.627944,-3.004476 -1.428311,-1.382815 -3.05798,-3.766557 -4.598134,-6.725761 l -1.218248,-2.340704 -0.15166,1.282371 c -0.08341,0.705304 -0.288587,3.008777 -0.455942,5.118829 -0.512841,6.466007 -0.399693,6.017361 -1.545119,6.126595 -1.989786,0.189756 -1.982095,0.200634 -1.777844,-2.514161 0.100215,-1.331995 0.290906,-3.195715 0.42376,-4.1416 0.324821,-2.312652 0.319402,-6.085417 -0.0087,-6.085417 -0.143426,0 -0.635535,0.744141 -1.093575,1.653646 -2.0615,4.093409 -4.817573,7.518966 -7.44164,9.249306 -0.544929,0.359333 -0.902117,0.757915 -0.79375,0.885739 0.108368,0.127823 -0.01133,0.07292 -0.265989,-0.121998 -0.254662,-0.194922 -0.463021,-0.617637 -0.463021,-0.939368 0,-0.32173 -0.07144,-0.656408 -0.158764,-0.743728 -0.08732,-0.08732 -1.248179,0.420222 -2.579687,1.12787 -2.266162,1.204384 -4.241827,1.865743 -6.588111,2.205387 l -0.992188,0.143627 z"
       id="path1516" />
    <path
       style="fill:#dfc67b;stroke-width:1.56461"
       d="m 77.26074,-65.481482 c -0.210669,-0.253841 -0.263129,-0.734275 -0.147487,-1.350699 0.09871,-0.526198 0.08244,-0.908178 -0.03616,-0.848844 -1.437176,0.718994 -2.325004,1.002007 -2.735068,0.871857 -0.608072,-0.192994 -0.946231,-1.13622 -0.549562,-1.53289 0.460399,-0.460399 0.339121,-0.978783 -0.228991,-0.978783 -0.611217,0 -1.135558,-0.838068 -0.903194,-1.443599 0.114959,-0.29958 0.435741,-0.402022 1.095652,-0.349896 1.033744,0.08165 1.476102,-0.439438 0.607162,-0.715228 -0.665392,-0.211188 -0.988604,-1.321603 -0.541494,-1.860337 0.48613,-0.585751 1.215748,-0.47723 1.801961,0.268019 0.977696,1.242939 1.736688,0.606584 0.795261,-0.666764 -0.703959,-0.952156 -0.435502,-1.714486 0.603762,-1.714486 0.478358,0 0.699389,0.206556 0.906426,0.847067 0.150591,0.465887 0.365425,0.938689 0.477407,1.050671 0.270282,0.270282 0.694863,-0.428046 0.699946,-1.151235 0.0039,-0.555349 0.628068,-1.407961 1.030714,-1.407961 0.107313,0 0.42623,0.170176 0.708705,0.37817 0.506528,0.372969 0.506639,0.391183 0.0081,1.324498 -0.678745,1.270562 -0.327038,1.513027 0.647311,0.446252 0.928118,-1.01616 1.592727,-0.991819 1.966865,0.07204 0.231138,0.657237 0.186933,0.814096 -0.325262,1.154181 -0.914686,0.607329 -0.739372,1.055305 0.399435,1.020667 0.811979,-0.0247 1.006338,0.06875 1.070099,0.514494 0.126035,0.881094 -0.874331,1.900456 -2.06195,2.101103 -1.121531,0.189481 -1.712791,0.661515 -0.8286,0.661515 0.673867,0 1.35743,0.682132 1.35743,1.354588 0,0.337785 -0.299658,0.649037 -0.84604,0.878773 -0.909244,0.382309 -1.391623,0.304823 -2.146675,-0.344828 -0.417316,-0.35906 -0.510721,-0.362408 -0.723552,-0.02593 -0.134409,0.212495 -0.246203,0.570901 -0.248431,0.796459 -0.0094,0.95367 -1.243027,1.386979 -1.853728,0.651129 z"
       id="path776" />
    <path
       style="fill:#dfc67b;stroke-width:1.56461"
       d="m 99.880207,-12.322662 c -1.487083,-0.259187 -2.811515,-0.726773 -4.452755,-1.57203 l -2.336089,-1.203113 0.04779,0.868169 c 0.02629,0.477493 0.03573,0.964448 0.02098,1.082123 -0.05178,0.413274 -3.308407,-1.54098 -4.724165,-2.834902 -1.661548,-1.518562 -3.091492,-3.542608 -4.871879,-6.896009 -0.697688,-1.314111 -1.270808,-2.241551 -1.273601,-2.060978 -0.0028,0.180573 -0.177531,2.085573 -0.388307,4.233333 -0.210776,2.147761 -0.45906,4.827754 -0.551741,5.95554 l -0.168511,2.050521 H 79.71513 78.248332 l 0.183799,-2.182813 c 0.101089,-1.200546 0.335534,-3.552031 0.520988,-5.22552 0.362714,-3.273045 0.284799,-5.378266 -0.193157,-5.218948 -0.160877,0.05363 -0.832448,1.110479 -1.492381,2.348563 -1.818013,3.410727 -2.765235,4.754878 -4.576249,6.493903 -2.437339,2.340454 -3.899671,2.96599 -3.899671,1.668148 0,-0.874847 -0.413414,-0.808311 -2.544877,0.409578 -2.337962,1.335879 -4.013228,1.911921 -6.252518,2.149935 l -1.521355,0.161704 v -1.569603 c 0,-1.78381 0.545954,-4.126557 1.311226,-5.626613 l 0.519996,-1.019277 -0.783319,-0.156664 c -1.022357,-0.204471 -1.013213,-0.790427 0.03708,-2.376077 1.170499,-1.767132 3.510463,-3.762137 5.665354,-4.830165 1.669339,-0.827374 2.572924,-1.063761 7.14029,-1.867978 1.025638,-0.180593 1.001116,-0.19332 -0.79375,-0.411958 -1.018646,-0.124084 -3.399896,-0.156658 -5.291667,-0.07239 -3.424858,0.152565 -7.109434,-0.274511 -8.420122,-0.97597 -0.466539,-0.249684 -0.430712,-0.341686 0.507023,-1.302013 l 1.009035,-1.033346 h -0.780399 c -1.415889,0 -4.890035,-1.357109 -6.878067,-2.686786 -1.718104,-1.149138 -4.879879,-4.246954 -4.883154,-4.784374 -0.0018,-0.292067 1.791077,-1.342966 3.435767,-2.013905 2.235164,-0.911819 4.673073,-1.245253 6.877235,-0.940604 1.806454,0.24968 1.878279,0.238758 1.838972,-0.279647 -0.08526,-1.124466 -0.0037,-1.201012 1.27444,-1.196339 1.908411,0.007 4.775785,0.694832 6.570991,1.57632 2.046619,1.004937 4.464673,3.233238 6.988028,6.439652 1.090924,1.386232 2.011788,2.492133 2.046363,2.457557 0.121954,-0.121954 -1.82896,-4.543683 -2.638531,-5.980207 -1.305659,-2.316794 -4.379091,-6.76082 -5.664277,-8.190257 -1.444556,-1.606693 -4.070792,-3.714104 -5.583324,-4.480311 -1.083324,-0.548784 -1.189347,-0.554987 -2.860689,-0.167377 -2.626096,0.609032 -5.406998,0.489366 -5.406998,-0.232672 0,-0.291096 2.756947,-1.498231 4.314714,-1.889205 0.391803,-0.09834 0.710956,-0.195652 0.709229,-0.216257 -0.0017,-0.0206 -0.169984,-0.664207 -0.373904,-1.430227 -0.431597,-1.621285 -1.400047,-3.36414 -2.375903,-4.275752 -1.999655,-1.868012 0.548388,-1.25462 2.983169,0.71814 1.363648,1.104884 1.886444,2.206199 1.886444,3.973957 0,1.272253 0.01399,1.293725 1.043924,1.602301 0.966332,0.28952 4.045648,2.434915 6.008125,4.18593 1.148385,1.024643 3.895194,4.511538 5.743424,7.290901 1.926788,2.897497 3.921454,7.364212 5.042089,11.290898 0.474141,1.661382 0.938077,2.89772 1.030969,2.747418 0.09289,-0.150302 0.302219,-3.593209 0.465172,-7.650903 0.298993,-7.445249 0.184718,-13.850439 -0.325164,-18.225542 -0.349159,-2.99601 -0.377429,-2.652244 0.361683,-4.398147 l 0.629817,-1.487731 0.329859,1.620022 c 0.902803,4.433909 1.118303,6.166239 1.332629,10.712528 0.127839,2.711726 0.185431,6.001974 0.127982,7.311661 l -0.104453,2.38125 0.499776,-1.455208 c 2.157399,-6.281739 7.081772,-15.197842 12.217515,-22.121111 2.125137,-2.864805 2.737394,-3.351678 3.917919,-3.115573 1.040921,0.208183 1.121091,0.961304 0.168763,1.585291 -0.367567,0.240839 -0.913902,0.7828 -1.214078,1.204358 l -0.545774,0.766469 0.574724,1.910595 c 0.671972,2.233887 1.742666,4.023458 3.189006,5.330132 1.18881,1.074019 1.19777,1.895157 0.0176,1.614973 -1.656484,-0.393274 -3.510941,-1.53606 -4.210968,-2.594956 -0.614032,-0.928813 -0.714112,-1.35446 -0.714112,-3.037158 0,-1.418231 -0.07284,-1.837216 -0.264583,-1.521986 -0.145521,0.239234 -0.846511,1.23073 -1.557756,2.203323 -5.886042,8.048881 -10.623943,18.362158 -12.164535,26.479277 l -0.170517,0.898426 0.650065,-0.957924 c 0.357536,-0.526859 1.029962,-1.824119 1.494281,-2.882801 1.012578,-2.308755 1.281312,-2.752528 2.991012,-4.939187 1.731644,-2.214728 4.180034,-4.209073 6.64167,-5.41 2.730935,-1.332306 3.468117,-1.297652 3.320241,0.156081 -0.05625,0.552963 -0.178865,0.547488 1.417276,0.06328 2.953366,-0.895934 7.729676,-0.298873 11.418586,1.427375 l 1.7509,0.819344 -0.8015,1.011972 c -1.86231,2.351356 -5.37539,5.025949 -8.63464,6.573761 l -2.06462,0.980484 0.84032,0.750829 0.84032,0.750828 -0.69801,0.646899 c -1.764974,1.635718 -3.764499,2.134003 -10.035593,2.500883 -2.328333,0.136216 -4.748761,0.404488 -5.378727,0.59616 -1.106266,0.33659 -1.042996,0.349092 1.852083,0.365957 1.648612,0.0096 3.711852,0.170592 4.584977,0.357751 2.506611,0.537305 5.024926,2.008882 7.204899,4.210181 1.976001,1.995326 2.148331,2.337389 1.611011,3.197771 -0.25524,0.408696 -0.18457,0.784396 0.38721,2.058476 0.83891,1.869347 1.50323,4.555282 1.5086,6.099505 0.005,1.308213 0.0653,1.295201 -3.303387,0.708075 z"
       id="path771" />
    <path
       style="fill:#b0a98f;stroke-width:1.56461"
       d="m 99.880207,-12.322662 c -1.487083,-0.259187 -2.811515,-0.726773 -4.452755,-1.57203 l -2.336089,-1.203113 0.04779,0.868169 c 0.02629,0.477493 0.03573,0.964448 0.02098,1.082123 -0.05178,0.413274 -3.308407,-1.54098 -4.724165,-2.834902 -1.661548,-1.518562 -3.091492,-3.542608 -4.871879,-6.896009 -0.697688,-1.314111 -1.270808,-2.241551 -1.273601,-2.060978 -0.0028,0.180573 -0.177531,2.085573 -0.388307,4.233333 -0.210776,2.147761 -0.45906,4.827754 -0.551741,5.95554 l -0.168511,2.050521 H 79.71513 78.248332 l 0.183799,-2.182813 c 0.101089,-1.200546 0.335534,-3.552031 0.520988,-5.22552 0.362714,-3.273045 0.284799,-5.378266 -0.193157,-5.218948 -0.160877,0.05363 -0.832448,1.110479 -1.492381,2.348563 -1.818013,3.410727 -2.765235,4.754878 -4.576249,6.493903 -2.437339,2.340454 -3.899671,2.96599 -3.899671,1.668148 0,-0.874847 -0.413414,-0.808311 -2.544877,0.409578 -2.337962,1.335879 -4.013228,1.911921 -6.252518,2.149935 l -1.521355,0.161704 v -1.569603 c 0,-1.78381 0.545954,-4.126557 1.311226,-5.626613 l 0.519996,-1.019277 -0.783319,-0.156664 c -1.022357,-0.204471 -1.013213,-0.790427 0.03708,-2.376077 1.170499,-1.767132 3.510463,-3.762137 5.665354,-4.830165 1.669339,-0.827374 2.572924,-1.063761 7.14029,-1.867978 1.025638,-0.180593 1.001116,-0.19332 -0.79375,-0.411958 -1.018646,-0.124084 -3.399896,-0.156658 -5.291667,-0.07239 -3.424858,0.152565 -7.109434,-0.274511 -8.420122,-0.97597 -0.466539,-0.249684 -0.430712,-0.341686 0.507023,-1.302013 l 1.009035,-1.033346 h -0.780399 c -1.415889,0 -4.890035,-1.357109 -6.878067,-2.686786 -1.718104,-1.149138 -4.879879,-4.246954 -4.883154,-4.784374 -0.0018,-0.292067 1.791077,-1.342966 3.435767,-2.013905 2.235164,-0.911819 4.673073,-1.245253 6.877235,-0.940604 1.806454,0.24968 1.878279,0.238758 1.838972,-0.279647 -0.08526,-1.124466 -0.0037,-1.201012 1.27444,-1.196339 1.908411,0.007 4.775785,0.694832 6.570991,1.57632 2.046619,1.004937 4.464673,3.233238 6.988028,6.439652 1.090924,1.386232 2.011788,2.492133 2.046363,2.457557 0.121954,-0.121954 -1.82896,-4.543683 -2.638531,-5.980207 -1.305659,-2.316794 -4.379091,-6.76082 -5.664277,-8.190257 -1.444556,-1.606693 -4.070792,-3.714104 -5.583324,-4.480311 -1.083324,-0.548784 -1.189347,-0.554987 -2.860689,-0.167377 -2.626096,0.609032 -5.406998,0.489366 -5.406998,-0.232672 0,-0.291096 2.756947,-1.498231 4.314714,-1.889205 0.391803,-0.09834 0.710956,-0.195652 0.709229,-0.216257 -0.0017,-0.0206 -0.169984,-0.664207 -0.373904,-1.430227 -0.431597,-1.621285 -1.400047,-3.36414 -2.375903,-4.275752 -1.999655,-1.868012 0.548388,-1.25462 2.983169,0.71814 1.363648,1.104884 1.886444,2.206199 1.886444,3.973957 0,1.272253 0.01399,1.293725 1.043924,1.602301 0.966332,0.28952 4.045648,2.434915 6.008125,4.18593 1.148385,1.024643 3.895194,4.511538 5.743424,7.290901 1.926788,2.897497 3.921454,7.364212 5.042089,11.290898 0.474141,1.661382 0.938077,2.89772 1.030969,2.747418 0.09289,-0.150302 0.302219,-3.593209 0.465172,-7.650903 0.298993,-7.445249 0.184718,-13.850439 -0.325164,-18.225542 -0.349159,-2.99601 -0.377429,-2.652244 0.361683,-4.398147 l 0.629817,-1.487731 0.329859,1.620022 c 0.902803,4.433909 1.118303,6.166239 1.332629,10.712528 0.127839,2.711726 0.185431,6.001974 0.127982,7.311661 l -0.104453,2.38125 0.499776,-1.455208 c 2.157399,-6.281739 7.081772,-15.197842 12.217515,-22.121111 2.125137,-2.864805 2.737394,-3.351678 3.917919,-3.115573 1.040921,0.208183 1.121091,0.961304 0.168763,1.585291 -0.367567,0.240839 -0.913902,0.7828 -1.214078,1.204358 l -0.545774,0.766469 0.574724,1.910595 c 0.671972,2.233887 1.742666,4.023458 3.189006,5.330132 1.18881,1.074019 1.19777,1.895157 0.0176,1.614973 -1.656484,-0.393274 -3.510941,-1.53606 -4.210968,-2.594956 -0.614032,-0.928813 -0.714112,-1.35446 -0.714112,-3.037158 0,-1.418231 -0.07284,-1.837216 -0.264583,-1.521986 -0.145521,0.239234 -0.846511,1.23073 -1.557756,2.203323 -5.886042,8.048881 -10.623943,18.362158 -12.164535,26.479277 l -0.170517,0.898426 0.650065,-0.957924 c 0.357536,-0.526859 1.029962,-1.824119 1.494281,-2.882801 1.012578,-2.308755 1.281312,-2.752528 2.991012,-4.939187 1.731644,-2.214728 4.180034,-4.209073 6.64167,-5.41 2.730935,-1.332306 3.468117,-1.297652 3.320241,0.156081 -0.05625,0.552963 -0.178865,0.547488 1.417276,0.06328 2.953366,-0.895934 7.729676,-0.298873 11.418586,1.427375 l 1.7509,0.819344 -0.8015,1.011972 c -1.86231,2.351356 -5.37539,5.025949 -8.63464,6.573761 l -2.06462,0.980484 0.84032,0.750829 0.84032,0.750828 -0.69801,0.646899 c -1.764974,1.635718 -3.764499,2.134003 -10.035593,2.500883 -2.328333,0.136216 -4.748761,0.404488 -5.378727,0.59616 -1.106266,0.33659 -1.042996,0.349092 1.852083,0.365957 1.648612,0.0096 3.711852,0.170592 4.584977,0.357751 2.506611,0.537305 5.024926,2.008882 7.204899,4.210181 1.976001,1.995326 2.148331,2.337389 1.611011,3.197771 -0.25524,0.408696 -0.18457,0.784396 0.38721,2.058476 0.83891,1.869347 1.50323,4.555282 1.5086,6.099505 0.005,1.308213 0.0653,1.295201 -3.303387,0.708075 z"
       id="path677" />
    <path
       style="fill:#8d8a5b;stroke-width:1.56461"
       d="m 101.12186,-12.190012 c -2.506174,-0.325373 -4.512187,-0.968956 -6.176324,-1.981532 -0.822299,-0.500343 -1.566439,-0.909714 -1.653646,-0.909714 -0.08721,0 -0.158558,0.48431 -0.158558,1.076244 v 1.076243 l -1.620245,-0.877806 c -3.169449,-1.717125 -5.47034,-4.386314 -7.930429,-9.199836 -0.604545,-1.18288 -1.140281,-2.109584 -1.190524,-2.059341 -0.125626,0.125626 -0.819794,6.633134 -1.045252,9.798761 l -0.184632,2.592391 -1.356646,-0.07885 -1.356646,-0.07885 0.08255,-1.852083 c 0.0454,-1.018646 0.258787,-3.399896 0.474187,-5.291667 0.398909,-3.503459 0.303572,-5.53193 -0.251553,-5.35224 -0.167852,0.05433 -0.96003,1.292327 -1.760394,2.7511 -1.904522,3.471247 -2.828005,4.74445 -4.647227,6.407117 -2.411656,2.204118 -3.554856,2.596811 -3.554856,1.221107 0,-0.68016 -0.394394,-1.093578 -0.649492,-0.680821 -0.08629,0.139619 -1.035307,0.73875 -2.108929,1.331402 -1.92114,1.060493 -5.336085,2.127544 -6.808902,2.127544 -0.730814,0 -0.751427,-0.03839 -0.751427,-1.39962 0,-1.5542 0.55127,-3.929026 1.310434,-5.645241 l 0.497578,-1.124857 -0.771714,-0.169497 c -0.917143,-0.201439 -0.937314,-0.353096 -0.231088,-1.737415 1.100157,-2.156484 3.934153,-4.597609 6.72773,-5.795076 1.596496,-0.684338 4.799669,-1.324399 6.67726,-1.334256 1.259239,-0.0066 1.441633,-0.06079 1.022874,-0.303817 -0.310966,-0.180472 -3.095775,-0.372112 -7.14375,-0.491604 -6.056874,-0.178794 -8.337257,-0.441839 -8.962802,-1.033871 -0.116611,-0.110363 0.210811,-0.571911 0.727604,-1.025662 0.516794,-0.45375 0.939624,-0.888169 0.939624,-0.965376 0,-0.07721 -0.327421,-0.141968 -0.727604,-0.143914 -1.20162,-0.0058 -4.884429,-1.418074 -6.563354,-2.516816 -1.714269,-1.121872 -5.201743,-4.572277 -5.065475,-5.011633 0.158153,-0.509921 3.323309,-2.00506 5.39714,-2.549471 1.992185,-0.522978 4.999651,-0.566548 6.240454,-0.09041 0.320617,0.123033 0.437173,-0.04434 0.502052,-0.72093 0.07047,-0.734916 0.2031,-0.894849 0.799112,-0.963629 1.414181,-0.163196 5.156981,0.680899 6.982893,1.574817 2.130575,1.043074 5.169246,3.949539 7.641604,7.309134 0.86943,1.181436 1.614948,2.113898 1.656708,2.072139 0.133807,-0.133807 -2.191325,-5.316324 -3.170308,-7.066342 -1.474802,-2.636337 -4.891706,-7.323015 -6.385811,-8.758878 -1.535575,-1.475715 -5.037829,-3.911944 -5.6237,-3.911944 -0.213744,0 -1.233125,0.192077 -2.265291,0.426838 -1.962967,0.446467 -4.264479,0.389185 -4.772446,-0.118782 -0.218004,-0.218004 0.08878,-0.465872 1.166531,-0.942504 0.804278,-0.35569 1.95273,-0.778762 2.552115,-0.940159 1.042153,-0.280623 1.083058,-0.330689 0.935781,-1.145359 -0.266014,-1.471467 -1.406577,-3.723142 -2.40589,-4.749657 -1.616298,-1.660292 -0.43273,-1.654238 2.047156,0.01047 1.740318,1.168249 2.645833,2.727541 2.645833,4.556109 v 1.218168 l 1.389063,0.579436 c 4.457576,1.859441 10.088375,8.200305 13.551723,15.260646 1.46839,2.993443 3.580047,8.793509 3.580047,9.833278 0,0.194249 0.107317,0.35318 0.238482,0.35318 0.701029,0 0.974265,-21.13188 0.338696,-26.194483 -0.343088,-2.732857 -0.338408,-2.801425 0.282729,-4.142084 l 0.631592,-1.363227 0.579066,2.95146 c 0.86705,4.419296 1.137163,7.944379 1.050414,13.708357 -0.04305,2.860356 0.01103,5.145283 0.120166,5.077614 0.109141,-0.06767 0.198438,-0.296542 0.198438,-0.508608 0,-0.768616 2.736337,-6.953179 4.849129,-10.959813 2.239492,-4.246906 4.933204,-8.459506 8.036611,-12.568174 1.72433,-2.282878 1.845188,-2.384616 2.925534,-2.462727 1.625525,-0.117529 1.763725,0.501701 0.376888,1.688777 -1.377736,1.17929 -1.504724,1.635453 -0.968639,3.47952 0.633172,2.178034 1.33359,3.421546 2.801366,4.973498 1.24477,1.316168 1.73337,2.468141 0.91337,2.153477 -0.20918,-0.08027 -0.89174,-0.283655 -1.51681,-0.451967 -2.455357,-0.661159 -4.179161,-3.413036 -3.792585,-6.054474 0.201737,-1.378457 0.207916,-1.382868 -1.641317,1.171813 -4.914319,6.789041 -8.59637,13.928103 -10.916942,21.166666 -0.792521,2.472108 -1.659593,6.242082 -1.477519,6.424155 0.128963,0.128963 1.019935,-1.474446 2.474132,-4.452494 1.443869,-2.956896 3.320135,-5.379229 5.672688,-7.323662 1.608271,-1.32927 5.261408,-3.246957 6.185356,-3.246957 0.529769,0 0.63082,0.132095 0.63082,0.824608 0,0.732395 0.06657,0.804367 0.595313,0.643597 3.868834,-1.17637 7.934964,-0.792228 12.230494,1.155458 l 1.79617,0.814424 -1.17864,1.389811 c -1.57929,1.862232 -5.40009,4.720118 -8.10098,6.059381 l -2.19827,1.090034 0.72205,0.753659 c 0.71578,0.747113 0.71763,0.758543 0.21389,1.315983 -1.4136,1.564293 -3.923051,2.212106 -9.636276,2.487597 -3.331449,0.160642 -5.797687,0.497807 -6.528211,0.892485 -0.170776,0.09227 1.07938,0.181297 2.778125,0.197849 5.349554,0.05212 8.279437,1.232231 11.621439,4.680918 1.954333,2.016721 2.208623,2.523816 1.542713,3.076472 -0.32019,0.265734 -0.28121,0.517653 0.26456,1.709768 1.17007,2.555768 2.18432,7.650519 1.50002,7.534821 -0.10914,-0.01845 -0.94938,-0.131044 -1.8672,-0.250203 z"
       id="path581" />
    <path
       style="fill:#817e4e;stroke-width:1.56461"
       d="m 58.476828,-13.427612 c 0.005,-1.619211 0.635681,-4.282967 1.341566,-5.666617 0.585949,-1.148554 0.432816,-1.530034 -0.617872,-1.539227 -0.59858,-0.0052 -0.583632,-0.317882 0.07712,-1.61307 0.825832,-1.618764 3.342701,-3.964755 5.413777,-5.046219 2.493582,-1.302085 4.288842,-1.796871 7.234243,-1.993807 4.364357,-0.291811 2.018514,-0.698335 -5.118373,-0.886992 -5.227666,-0.138189 -6.919705,-0.272612 -8.069791,-0.641101 l -1.455208,-0.466251 1.158506,-1.028306 1.158507,-1.028306 h -0.78408 c -1.068491,0 -3.842308,-0.93107 -5.766267,-1.935526 -0.965694,-0.504168 -2.520207,-1.743982 -3.968749,-3.165307 -2.736101,-2.684691 -2.754711,-2.499632 0.396875,-3.946505 3.057219,-1.403549 5.579859,-1.720147 8.797395,-1.104095 0.661378,0.126632 0.727604,0.06796 0.727604,-0.644602 0,-1.008441 0.554043,-1.161163 3.059864,-0.843456 3.354281,0.425281 5.960425,1.683471 8.342076,4.027372 1.47052,1.447212 4.274883,4.783489 5.126634,6.099022 0.740127,1.143129 0.733932,0.704953 -0.01613,-1.140963 -1.627089,-4.004291 -4.111444,-8.241486 -7.131186,-12.162606 -1.279221,-1.661063 -4.009001,-4.006533 -5.971461,-5.130774 l -1.335633,-0.765148 -2.460222,0.463093 c -2.415765,0.454725 -4.455108,0.39145 -4.788868,-0.148585 -0.1641,-0.26552 1.654416,-1.126573 3.663108,-1.734451 l 1.266306,-0.383215 -0.175289,-0.979106 c -0.268829,-1.501589 -1.327684,-3.569386 -2.385537,-4.658622 -0.524811,-0.540381 -0.894856,-1.041858 -0.822321,-1.114393 0.20572,-0.20572 1.912841,0.57916 3.228517,1.484369 1.459249,1.00399 2.028098,2.040343 2.230045,4.062788 0.150297,1.505177 0.181378,1.556219 1.149682,1.88809 2.604901,0.892789 6.260862,4.123293 9.428631,8.33139 3.661208,4.863587 5.894275,9.346591 7.351232,14.758001 0.401593,1.491589 0.811516,2.711979 0.910941,2.711979 0.655968,0 0.90269,-22.584175 0.292186,-26.745837 -0.319671,-2.179123 -0.308193,-2.32872 0.28114,-3.664083 l 0.614419,-1.392204 0.590644,2.993591 c 0.794876,4.028706 1.170098,9.179744 1.058879,14.536256 -0.05062,2.437841 -0.0027,4.377188 0.106405,4.30966 0.109141,-0.06753 0.198438,-0.306182 0.198438,-0.530341 0,-1.23599 4.715562,-11.335743 7.152277,-15.318691 2.424231,-3.962541 6.415333,-9.579619 7.46228,-10.502413 0.639177,-0.56338 2.275451,-0.619201 2.480587,-0.08462 0.08696,0.226623 -0.283268,0.765495 -0.923048,1.343498 -1.371354,1.238936 -1.486345,1.661106 -0.952573,3.497218 0.633172,2.178034 1.33359,3.421546 2.801366,4.973498 0.71153,0.752342 1.2937,1.56475 1.2937,1.805351 0,0.530689 0.10962,0.530325 -1.47423,0.0049 -3.17424,-1.05301 -4.665021,-3.333777 -4.112427,-6.291664 0.207948,-1.113092 0.0034,-1.684883 -0.310295,-0.867402 -0.073,0.190235 -0.991616,1.529688 -2.041368,2.976563 -5.706238,7.864913 -10.631147,18.724373 -11.752349,25.914013 -0.157714,1.011332 -0.145717,1.034833 0.270149,0.529167 0.239356,-0.291042 0.96944,-1.660261 1.622409,-3.042709 1.525263,-3.229246 2.958982,-5.229572 5.431916,-7.578618 2.003398,-1.903032 4.908142,-3.610294 6.743793,-3.963662 0.826974,-0.159195 0.859895,-0.132779 0.859895,0.689974 0,0.804354 0.0435,0.843799 0.727605,0.659716 2.805012,-0.754798 5.220732,-0.835782 7.674362,-0.257274 2.45996,0.579999 5.88553,1.966153 5.88553,2.381575 0,0.533485 -3.05344,3.523175 -5.04202,4.93674 -0.9541,0.678218 -2.68051,1.689246 -3.83646,2.246729 -1.15595,0.557484 -2.15257,1.045403 -2.21473,1.084265 -0.0622,0.03886 0.22605,0.424552 0.64045,0.857089 0.73481,0.766973 0.74147,0.799663 0.26945,1.321239 -0.26619,0.294145 -1.10312,0.837721 -1.859841,1.207948 -1.437263,0.703187 -2.990491,0.937345 -9.388095,1.415306 -1.81901,0.135897 -3.825154,0.405762 -4.458097,0.599698 -1.115706,0.341858 -1.055183,0.353871 1.984375,0.39388 3.565604,0.04693 6.545927,0.695794 8.536339,1.858486 1.305476,0.76259 3.982499,3.193341 4.838049,4.392967 0.47921,0.671937 0.49014,0.790461 0.12445,1.348582 -0.36774,0.561241 -0.34844,0.719299 0.23308,1.909151 0.7261,1.485656 1.37556,3.843224 1.61467,5.861313 l 0.16457,1.389063 h -1.10867 c -1.91688,0 -4.84524,-0.805866 -6.823074,-1.877669 -1.048172,-0.568011 -1.970906,-1.032748 -2.050521,-1.032748 -0.07962,0 -0.144755,0.416719 -0.144755,0.926042 0,0.528894 -0.132314,0.926041 -0.308522,0.926041 -0.589087,0 -4.131306,-2.385109 -5.04622,-3.39781 -1.360187,-1.505564 -2.897676,-3.858486 -4.151296,-6.353006 -0.610903,-1.215605 -1.174995,-2.145927 -1.25354,-2.067382 -0.18752,0.18752 -0.778698,5.607098 -1.022186,9.370802 l -0.192564,2.976563 H 79.870127 78.58125 l -0.004,-1.653646 c -0.0022,-0.909505 0.192074,-3.337447 0.431674,-5.395427 0.437493,-3.757738 0.349744,-5.777787 -0.242408,-5.580403 -0.172431,0.05748 -0.981299,1.304925 -1.797484,2.772108 -2.38865,4.29386 -3.934595,6.147199 -6.597659,7.909532 -1.181639,0.781971 -1.567122,0.627393 -1.575692,-0.631852 -0.0022,-0.327421 -0.05141,-0.595312 -0.109301,-0.595312 -0.05789,0 -0.916462,0.492828 -1.907943,1.095174 -2.303111,1.399189 -3.119656,1.733455 -5.412861,2.215845 -2.883865,0.60664 -2.893351,0.603804 -2.888785,-0.863623 z"
       id="path485" />
    <path
       style="fill:#777747;stroke-width:1.56461"
       d="m 58.477512,-13.295321 c 0.0066,-1.621522 0.658087,-4.460518 1.322322,-5.762527 0.604414,-1.18475 0.459267,-1.566346 -0.599312,-1.575608 -0.715434,-0.0063 -0.559167,-0.593522 0.632976,-2.378771 2.558035,-3.830688 7.788931,-6.337474 13.280923,-6.364576 1.360788,-0.0067 1.543404,-0.05846 1.104419,-0.312949 -0.334463,-0.193894 -2.983517,-0.370697 -7.276041,-0.485618 -5.314261,-0.142275 -7.059631,-0.279075 -8.205298,-0.643121 l -1.455208,-0.462405 1.158506,-1.028306 c 1.106039,-0.981735 1.127628,-1.028306 0.47668,-1.028306 -1.168498,0 -4.733739,-1.264004 -6.46728,-2.292879 -0.911401,-0.540927 -2.572601,-1.924275 -3.691554,-3.074106 l -2.034461,-2.090602 0.648846,-0.501775 c 1.677811,-1.297509 6.975436,-2.795787 8.851868,-2.503492 0.508807,0.07926 1.341822,0.209031 1.851145,0.288385 0.887193,0.138228 0.926041,0.11048 0.926041,-0.661458 v -0.805739 h 1.796495 c 5.051698,0 8.827754,2.383437 13.498248,8.520061 0.963757,1.266294 1.783411,2.271229 1.821451,2.233188 0.137683,-0.137683 -1.048695,-2.99468 -2.211769,-5.326308 -1.195649,-2.396933 -3.420953,-5.862746 -5.550316,-8.644373 -1.251191,-1.634453 -4.534619,-4.410279 -6.25484,-5.28787 -1.069282,-0.545507 -1.121289,-0.54701 -3.636944,-0.105123 -2.438517,0.428338 -4.316768,0.372565 -4.632032,-0.137544 -0.181908,-0.294332 0.462164,-0.618681 2.81376,-1.416984 l 1.959072,-0.665051 -0.07757,-1.001144 c -0.102171,-1.318699 -1.122147,-3.396926 -2.296337,-4.678842 -0.519064,-0.566686 -0.894758,-1.079333 -0.834876,-1.139216 0.196279,-0.196279 2.013082,0.679349 3.244655,1.563798 1.47937,1.062403 1.990217,1.996557 2.190902,4.006364 0.148063,1.482799 0.19301,1.560203 1.083078,1.865193 1.198437,0.410655 3.686731,2.121211 5.634295,3.873247 1.700543,1.529816 5.794501,6.85911 7.191551,9.361576 1.410329,2.526251 3.191281,6.913166 4.009945,9.877465 0.411938,1.491589 0.828497,2.711979 0.925684,2.711979 0.639802,0 0.88687,-23.164752 0.28832,-27.032433 -0.294941,-1.905831 -0.277548,-2.112017 0.285841,-3.388595 l 0.599891,-1.359286 0.588362,2.99172 c 0.78711,4.002322 1.183607,9.426346 1.071161,14.653313 -0.08741,4.06309 0.03601,5.092668 0.395198,3.296738 0.511706,-2.558527 5.653322,-12.904064 8.734742,-17.575328 2.433265,-3.688695 5.027393,-7.228824 5.789086,-7.900191 0.574985,-0.506801 2.185536,-0.628075 2.459259,-0.185182 0.09444,0.152811 -0.37478,0.862086 -1.042718,1.576165 -0.667938,0.71408 -1.214432,1.522913 -1.214432,1.797407 0,0.756943 0.980276,3.446211 1.699299,4.661822 0.351175,0.593712 1.124525,1.550123 1.718565,2.12536 0.59403,0.575236 1.08006,1.259845 1.08006,1.521354 0,0.587579 0.0621,0.590269 -1.714,-0.07425 -3.124988,-1.169208 -4.404705,-3.253656 -3.852267,-6.274708 0.337527,-1.845792 0.388593,-1.905334 -4.151111,4.840054 -4.730076,7.028254 -8.995849,16.986339 -9.973947,23.283333 -0.157044,1.011045 -0.144967,1.034689 0.270282,0.529167 0.239069,-0.291042 0.972933,-1.660261 1.63081,-3.042709 1.566333,-3.291461 3.027407,-5.324666 5.456502,-7.593173 1.986081,-1.854781 4.940286,-3.588451 6.721995,-3.944793 0.81584,-0.163168 0.849228,-0.136211 0.849228,0.68566 0,0.804354 0.0435,0.843799 0.727605,0.659716 2.772953,-0.74617 4.909863,-0.825227 7.494763,-0.277273 1.84664,0.391457 6.06513,1.958521 6.06513,2.253046 0,0.09629 -0.37465,0.684515 -0.83255,1.30717 -1.16818,1.588475 -5.05982,4.518489 -7.81926,5.887106 -1.28061,0.635158 -2.37847,1.185068 -2.43968,1.222022 -0.0612,0.03695 0.14715,0.342284 0.46302,0.678511 0.82485,0.878008 0.71442,1.403032 -0.45835,2.179129 -1.653403,1.094171 -3.307263,1.446809 -8.083226,1.723519 -3.521629,0.204036 -7.350318,0.763936 -7.729725,1.13038 -0.02451,0.02367 1.344707,0.06145 3.042708,0.08395 5.560892,0.07368 8.750777,1.359436 12.05037,4.857178 0.963893,1.021775 1.752533,1.948112 1.752533,2.058525 0,0.110414 -0.17101,0.444904 -0.38002,0.743312 -0.33864,0.483465 -0.31232,0.684396 0.24159,1.844809 0.70354,1.473844 1.34723,3.813819 1.61374,5.866312 l 0.18036,1.389063 h -1.18239 c -1.79161,0 -5.116201,-0.945916 -6.971788,-1.983619 -0.911498,-0.509739 -1.72722,-0.926798 -1.812716,-0.926798 -0.0855,0 -0.155447,0.416719 -0.155447,0.926042 0,0.509323 -0.112683,0.926041 -0.250408,0.926041 -0.462136,0 -3.518648,-1.912084 -4.559099,-2.85207 -1.222305,-1.104278 -3.479893,-4.44818 -4.836043,-7.163066 -0.53446,-1.06994 -1.035891,-1.8812 -1.114291,-1.8028 -0.186761,0.186761 -0.811778,5.89173 -1.041099,9.502832 l -0.180624,2.844271 H 79.866509 78.58125 l -0.0049,-1.389063 c -0.0027,-0.763984 0.196317,-3.294062 0.442297,-5.622395 0.443238,-4.19547 0.371131,-5.825016 -0.248678,-5.619927 -0.176534,0.05841 -1.037412,1.387551 -1.913062,2.953639 -0.87565,1.566089 -2.125806,3.512743 -2.778125,4.325899 -1.112203,1.386431 -4.234772,4.02893 -4.760876,4.02893 -0.130701,0 -0.315814,-0.416718 -0.411364,-0.926041 -0.202151,-1.077555 -0.210813,-1.080846 -1.132324,-0.430082 -1.473333,1.040455 -4.481529,2.364631 -6.310783,2.777939 -2.899324,0.655084 -2.991309,0.633698 -2.985883,-0.694212 z m 11.162697,-10.287622 c -0.01872,-0.09202 0.155672,-0.151552 0.387543,-0.132292 0.231871,0.01926 0.454792,-0.173341 0.49538,-0.428002 0.04059,-0.254662 -0.03346,-0.463021 -0.16454,-0.463021 -0.400302,0 -5.091707,4.809302 -6.065286,6.217708 -0.696592,1.00771 -0.164488,0.56642 2.23323,-1.852083 1.731242,-1.74625 3.132395,-3.250289 3.113673,-3.34231 z m 25.547234,3.553157 c -0.654611,-0.654611 -0.940573,-0.815198 -0.894666,-0.502414 0.06905,0.470469 1.522797,1.793883 1.737743,1.581948 0.06548,-0.06457 -0.313901,-0.550358 -0.843077,-1.079534 z m -1.532606,-0.88264 c -0.214067,-0.13538 -0.276785,-0.247969 -0.139372,-0.250197 0.137412,-0.0022 -0.148248,-0.297752 -0.634801,-0.65672 -0.486553,-0.358967 -0.988885,-0.588242 -1.116292,-0.5095 -0.127408,0.07874 -0.198935,0.0092 -0.158949,-0.154588 0.03999,-0.163766 -0.456147,-0.614908 -1.102516,-1.002539 -0.646369,-0.38763 -1.076281,-0.544699 -0.955358,-0.349043 0.151669,0.245406 0.10586,0.31432 -0.1477,0.222195 -0.202157,-0.07345 -0.338121,-0.266503 -0.302143,-0.429008 0.07712,-0.348337 -4.129499,-2.425005 -4.857362,-2.397919 -0.467795,0.01741 -0.465914,0.03179 0.02945,0.225103 0.291042,0.113578 0.469636,0.290819 0.396875,0.393869 -0.1887,0.267254 3.457302,1.761078 3.809067,1.560634 0.160586,-0.09151 0.200741,-0.06597 0.08923,0.05674 -0.207098,0.227907 5.128045,3.870041 5.354454,3.655317 0.06855,-0.06501 -0.05052,-0.228962 -0.264583,-0.364342 z m -3.29963,-2.106332 c -0.436562,-0.289124 -0.674687,-0.523817 -0.529166,-0.52154 0.265284,0.0042 1.703846,1.035299 1.455208,1.04308 -0.07276,0.0023 -0.489479,-0.232416 -0.926042,-0.52154 z m -4.365624,-2.38125 c -0.238467,-0.154109 -0.271101,-0.258097 -0.08176,-0.260532 0.173313,-0.0022 0.388699,0.115011 0.478636,0.260532 0.203016,0.328487 0.111422,0.328487 -0.396876,0 z m -1.107943,-0.445324 c 0.190996,-0.07643 0.419199,-0.06703 0.507118,0.02089 0.08792,0.08792 -0.06835,0.150453 -0.347266,0.138965 -0.308224,-0.0127 -0.370919,-0.07539 -0.159852,-0.159853 z m -13.296272,1.349766 c 0.458783,-0.373816 0.462713,-0.402375 0.03683,-0.267613 -0.29634,0.09377 -0.411371,0.04505 -0.303967,-0.12873 0.09504,-0.153775 0.336464,-0.216786 0.536502,-0.140024 0.200037,0.07676 0.992978,-0.191451 1.762091,-0.596027 0.769112,-0.404577 1.69473,-0.829073 2.056928,-0.943324 0.537609,-0.169584 0.572862,-0.230562 0.19197,-0.332061 -1.064572,-0.283685 -4.988835,1.556827 -5.112247,2.397685 -0.07935,0.540634 0.176951,0.543744 0.831895,0.01009 z m 5.055935,-6.04369 c -0.166463,-0.352732 -0.376817,-0.521343 -0.467453,-0.374691 -0.09457,0.153024 -0.236056,0.08093 -0.332036,-0.169188 -0.09198,-0.239706 -0.27892,-0.366809 -0.415413,-0.282452 -0.136493,0.08436 -0.322955,0.03237 -0.414359,-0.115522 -0.0914,-0.147894 0.04495,-0.268899 0.302998,-0.268899 0.408307,0 0.418916,-0.04577 0.08176,-0.352735 -1.096445,-0.99827 -4.844732,-3.093409 -5.284514,-2.953828 -0.265285,0.0842 -0.558072,0.03055 -0.650637,-0.119227 -0.100132,-0.162017 -0.002,-0.208494 0.242317,-0.114747 0.225839,0.08666 0.410617,0.07717 0.410617,-0.02109 0,-0.370859 -5.027694,-2.500171 -8.334375,-3.529747 -3.854511,-1.20015 -5.572787,-1.565571 -5.302096,-1.127583 0.09567,0.154802 0.323448,0.281458 0.506167,0.281458 0.182719,0 1.991395,0.537831 4.019281,1.195181 5.205444,1.68737 9.634334,4.01612 14.005814,7.364383 1.821444,1.395105 2.051693,1.478164 1.631928,0.588688 z m 8.883926,-1.221432 c 0.910238,-0.733479 1.654979,-1.437932 1.654979,-1.565452 0,-0.127519 0.108385,-0.331073 0.240857,-0.45234 0.139936,-0.128101 0.161109,-0.08191 0.05053,0.110243 -0.290205,0.50429 0.230772,0.394028 0.726516,-0.153763 0.241153,-0.266471 0.352532,-0.57042 0.247509,-0.675442 -0.105022,-0.105023 0.03331,-0.104893 0.30741,2.88e-4 0.373506,0.143328 0.444101,0.103447 0.281784,-0.159188 -0.137358,-0.22225 -0.11381,-0.286914 0.06438,-0.176788 0.154524,0.0955 1.095654,-0.287858 2.091401,-0.851908 2.31142,-1.309327 5.916124,-2.824969 8.954195,-3.764903 2.56953,-0.794973 2.42392,-1.024778 -0.226389,-0.357314 -3.397792,0.85571 -6.477101,2.020706 -8.943823,3.383719 -2.827308,1.562258 -6.48329,4.085795 -6.694869,4.621124 -0.07488,0.189459 -0.01845,0.271729 0.125407,0.182823 0.541723,-0.334803 0.235796,0.352172 -0.333759,0.749473 -0.327422,0.228398 -0.506616,0.421514 -0.398208,0.429147 0.108408,0.0076 0.941845,-0.586241 1.852083,-1.319719 z m -0.06481,-0.798685 c 0,-0.154109 0.119063,-0.206613 0.264583,-0.116676 0.145521,0.08994 0.264584,0.05017 0.264584,-0.08837 0,-0.13854 0.201684,-0.329284 0.448186,-0.423876 0.392826,-0.150741 0.387761,-0.105215 -0.04101,0.368568 -0.533401,0.589401 -0.936346,0.701441 -0.936346,0.260354 z m 3.990798,-2.726671 c 0.06063,-0.05305 0.4079,-0.238211 0.771702,-0.411471 0.623694,-0.297033 0.632136,-0.291526 0.147868,0.09645 -0.421481,0.337676 -1.282664,0.632693 -0.91957,0.315018 z"
       id="path395" />
    <path
       style="fill:#626a34;stroke-width:1.56461"
       d="m 58.545874,-13.956529 c 0.08515,-1.015631 0.465017,-2.725978 0.844155,-3.80077 0.379138,-1.074792 0.758495,-2.162527 0.843015,-2.417188 0.124859,-0.376202 -0.0043,-0.463021 -0.688764,-0.463021 -0.749354,0 -0.823008,-0.06578 -0.666592,-0.595312 0.278231,-0.94193 1.399843,-2.547855 2.609196,-3.735852 2.79599,-2.746616 7.153019,-4.358319 11.934991,-4.414858 1.370335,-0.0162 1.497015,-0.05737 0.926042,-0.300934 -0.363802,-0.15519 -3.638021,-0.372413 -7.276042,-0.482717 -6.02243,-0.182598 -8.26653,-0.428679 -9.32838,-1.022919 -0.291602,-0.163189 -0.119073,-0.433703 0.752315,-1.179579 1.091817,-0.934555 1.106781,-0.967829 0.435265,-0.967829 -1.068138,0 -4.6627,-1.224927 -6.20268,-2.113701 -1.453315,-0.838757 -4.500995,-3.547902 -5.380078,-4.78246 l -0.519797,-0.729988 1.258136,-0.706287 c 3.066021,-1.721189 6.710554,-2.418781 9.790949,-1.874063 l 1.124479,0.198845 v -0.853057 -0.853058 l 2.447396,0.13038 c 3.506784,0.186818 5.87023,1.210498 8.530344,3.694752 2.006737,1.874071 4.820371,5.178888 5.768444,6.775455 0.934366,1.573484 0.748071,0.709113 -0.478879,-2.221906 -3.115084,-7.441515 -8.452304,-14.316433 -12.937277,-16.664618 -1.40701,-0.736664 -1.445465,-0.74133 -3.213523,-0.389896 -2.220452,0.441356 -4.318377,0.481798 -4.998429,0.09636 -0.473406,-0.268319 -0.429444,-0.330423 0.529167,-0.747541 0.575006,-0.250201 1.700309,-0.667763 2.500674,-0.927914 1.381639,-0.44909 1.453058,-0.515972 1.412687,-1.322955 -0.0684,-1.367148 -0.865314,-3.123732 -2.110988,-4.653084 -0.637929,-0.783205 -1.095146,-1.424009 -1.016037,-1.424009 0.418651,0 2.142989,0.878694 3.165888,1.613285 1.366769,0.981539 2.010015,2.187433 2.227827,4.176508 0.151037,1.379277 0.196241,1.448003 1.174785,1.786074 1.392724,0.481163 4.208892,2.519507 6.146666,4.44896 1.710061,1.702718 4.67969,5.59199 6.273122,8.215797 1.379326,2.271254 3.436053,7.224209 4.312354,10.384896 0.413543,1.491589 0.834377,2.711979 0.935187,2.711979 0.650955,0 0.901431,-23.857412 0.286116,-27.252083 -0.286024,-1.57798 -0.263612,-1.836085 0.271793,-3.130123 l 0.583521,-1.410332 0.594962,2.997832 c 0.785743,3.959112 1.233772,10.24662 1.08479,15.223599 -0.06625,2.213027 -0.02092,3.962172 0.100731,3.88699 0.121648,-0.07518 0.221178,-0.372635 0.221178,-0.661006 0,-1.373819 4.464114,-10.937729 7.288369,-15.614589 1.642834,-2.720472 6.008213,-8.934986 7.087547,-10.089766 0.714133,-0.764053 2.340987,-1.027263 2.705355,-0.437703 0.09854,0.159446 -0.387304,0.865022 -1.07966,1.567948 -1.205606,1.224012 -1.251293,1.32518 -1.080574,2.392801 0.293575,1.835912 1.824654,4.762542 3.16877,6.057042 1.34082,1.291325 1.65945,2.295113 0.62946,1.982973 -1.683137,-0.510077 -3.19439,-1.338022 -3.891477,-2.131961 -0.910456,-1.036952 -1.175298,-2.166421 -1.017977,-4.341362 0.06257,-0.86508 0.08791,-1.545613 0.0563,-1.512295 -0.03161,0.03332 -0.745183,1.013077 -1.585719,2.177244 -4.772663,6.610275 -8.696924,13.963132 -10.802536,20.240625 -1.105283,3.295199 -2.007026,6.833068 -2.007026,7.874306 0,0.632085 1.343845,-1.61129 2.363221,-3.945091 1.741194,-3.986359 5.502806,-8.042396 9.110109,-9.823167 1.113198,-0.549537 2.380379,-1.070436 2.815958,-1.157552 0.759156,-0.151831 0.791961,-0.119945 0.791961,0.769775 v 0.928168 l 1.12448,-0.409516 c 0.724819,-0.263966 2.064856,-0.412876 3.770316,-0.418972 2.92319,-0.01045 4.96329,0.436304 7.73839,1.694593 1.98317,0.899214 1.98054,0.922044 -0.37689,3.267487 -1.742,1.733138 -5.32093,4.206205 -7.49379,5.178267 -0.80037,0.358054 -1.50529,0.685946 -1.5665,0.728648 -0.0612,0.0427 0.14715,0.352735 0.46302,0.688962 0.81174,0.864059 0.71864,1.333182 -0.41788,2.105707 -1.699032,1.154877 -3.22597,1.486555 -8.204744,1.782218 -4.592998,0.272754 -7.249971,0.72157 -7.841895,1.324654 -0.214943,0.218995 -0.08316,0.239907 0.502369,0.07971 1.180858,-0.323068 5.031416,-0.177402 7.174709,0.271418 1.035673,0.216877 2.602399,0.757452 3.481612,1.201277 1.608355,0.811896 4.376889,3.159875 5.369459,4.553822 0.49881,0.700503 0.50606,0.793442 0.10927,1.399027 -0.39499,0.602832 -0.38858,0.720319 0.0907,1.662362 0.72476,1.424612 1.53216,4.179708 1.75091,5.974621 l 0.18541,1.521355 h -0.92779 c -2.29605,0 -6.127562,-1.160789 -7.827878,-2.371521 -1.061911,-0.756147 -1.336581,-0.676588 -1.336581,0.387146 0,0.509323 -0.07263,0.926041 -0.161401,0.926041 -0.08877,0 -0.852418,-0.368307 -1.696993,-0.818461 -2.965428,-1.580557 -5.314389,-4.347652 -7.59785,-8.950327 -0.547138,-1.102843 -1.024562,-2.054779 -1.060943,-2.115413 -0.353785,-0.589643 -0.934329,3.672349 -1.285426,9.436805 l -0.181294,2.976563 H 79.865337 78.58125 l 0.0023,-1.521354 c 0.0013,-0.836745 0.178824,-3.009636 0.394576,-4.828646 0.453143,-3.820458 0.491759,-5.525677 0.137808,-6.085417 -0.223078,-0.352777 -0.293542,-0.352777 -0.634175,0 -0.210767,0.218282 -0.826642,1.230313 -1.368612,2.248959 -2.19536,4.126239 -4.774147,7.199562 -6.989302,8.329651 l -1.043869,0.532541 -0.1736,-0.925367 c -0.09548,-0.508952 -0.199557,-0.925367 -0.231284,-0.925367 -0.03173,0 -1.000741,0.538939 -2.153366,1.197642 -2.266674,1.295359 -4.443909,2.066452 -6.700673,2.37312 l -1.42999,0.194318 z m 6.690705,-4.841871 c 1.009413,-1.171303 2.475285,-2.6606 3.257494,-3.309547 1.846992,-1.532329 5.57345,-3.778378 6.614076,-3.986503 0.44847,-0.08969 0.951711,-0.327325 1.118314,-0.528069 0.247792,-0.298571 0.132497,-0.364989 -0.633589,-0.364989 -2.030354,0 -5.121252,1.894571 -8.419854,5.160963 -1.292556,1.279935 -2.350103,2.417001 -2.350103,2.526813 0,0.109812 -0.416719,0.698438 -0.926041,1.308057 -0.509323,0.60962 -0.926042,1.156666 -0.926042,1.215659 0,0.424527 0.680443,-0.18283 2.265745,-2.022384 z m 31.294116,0.135284 c -2.540014,-3.181998 -9.82738,-7.70263 -12.891429,-7.997046 -1.181357,-0.113514 -1.341344,-0.07345 -1.198041,0.299989 0.09096,0.237049 0.380905,0.430998 0.644313,0.430998 0.445257,0 1.718661,0.489371 3.961857,1.522547 2.101251,0.967798 7.904937,4.898031 9.245434,6.26097 0.791838,0.805094 1.487214,1.4163 1.54528,1.358234 0.05806,-0.05806 -0.530271,-0.902127 -1.307414,-1.875692 z m -11.911361,-12.14497 c 0.756937,-0.64611 1.761852,-1.442191 2.233145,-1.76907 0.471292,-0.32688 1.222206,-0.906699 1.668697,-1.288487 1.930269,-1.650547 7.899706,-4.386121 12.218924,-5.599488 2.03816,-0.572564 2.79087,-1.017003 1.71979,-1.015459 -0.67301,9.7e-4 -5.186984,1.237582 -7.342183,2.011406 -4.916179,1.765155 -11.659316,6.353269 -12.11108,8.24053 -0.201974,0.843753 0.05253,0.752312 1.612707,-0.579432 z m -7.361001,0.639667 c 0,-0.342462 -2.104188,-2.639922 -2.417841,-2.639922 -0.128578,0 -1.178087,-0.591811 -2.332242,-1.315135 -4.42699,-2.774454 -11.620975,-5.602585 -15.503643,-6.09486 -1.133589,-0.143725 -2.117439,-0.20495 -2.186333,-0.136056 -0.155451,0.155451 -0.195314,0.142117 4.383157,1.466172 2.074172,0.599834 4.490587,1.38291 5.36981,1.740171 3.047842,1.238449 8.38875,4.439951 10.967301,6.574133 0.814096,0.673801 1.719791,0.887348 1.719791,0.405497 z M 59.988759,-44.60986 c -0.08792,-0.08792 -0.316122,-0.09732 -0.507118,-0.02089 -0.211066,0.08446 -0.148372,0.147156 0.159853,0.159852 0.278915,0.01149 0.435184,-0.05104 0.347265,-0.138964 z"
       id="path307" />
    <path
       style="vector-effect:non-scaling-stroke;fill:#f8f1e4;fill-opacity:1;stroke-width:1.56461;-inkscape-stroke:hairline"
       d="m 281.69307,-333.22158 c -13.86788,0.66734 -18.18781,17.16849 -17.44785,28.68659 2.59274,9.24122 -2.85442,8.49727 -9.6308,6.79942 -14.17158,-2.2777 -31.23737,12.21592 -25.16127,26.95964 5.9875,13.4325 20.95197,22.94881 35.73726,22.12256 -6.9733,7.85012 -14.00498,19.03649 -7.98687,29.56463 4.78159,11.63301 19.71086,11.25169 29.49323,6.9819 13.20384,-3.59651 19.08699,-17.79755 17.86201,-30.47439 -0.15719,-2.08642 1.01812,-7.0298 1.55771,-1.92796 -0.19873,9.56137 6.12926,18.63666 15.83885,20.45908 11.12006,2.95797 24.59639,-0.37956 32.21193,-9.11349 4.23766,-12.6003 -5.0589,-28.41257 -18.94377,-28.95539 -2.7941,-1.03431 7.2791,-3.20167 9.09507,-6.15245 9.99401,-8.91621 18.78247,-22.55135 16.4101,-36.42487 -4.09366,-8.26418 -15.67348,-7.34851 -23.42373,-6.51908 -8.19154,1.41517 -14.69137,7.0579 -21.45611,11.30062 -4.22504,-16.33412 -15.04028,-33.96005 -34.15576,-33.30681 z m 21.70471,44.69207 c 3.54737,-0.0943 3.51761,2.95943 4.16005,5.05923 2.42011,1.48392 7.98215,-1.3965 7.32305,3.1921 -0.95358,3.94521 0.65431,7.33559 4.21559,8.75117 3.17587,5.65091 -5.77399,7.47027 -7.07446,11.59947 1.42042,2.99175 3.69312,6.55198 -0.76166,8.33067 -3.98506,3.98506 -11.53292,-3.97196 -13.22594,3.89029 -4.24884,5.14619 -8.22225,-2.19089 -7.50289,-6.2837 -3.40726,-0.8981 -8.14918,3.73793 -11.44343,-0.11108 -1.95087,-2.80134 0.90807,-7.01874 -3.32698,-8.76704 -3.22509,-4.17544 0.54402,-7.19974 4.72335,-6.46354 0.68111,-2.7861 -4.95333,-7.14558 -0.50777,-9.63978 2.50385,-1.69881 8.14686,2.20518 7.88637,-2.64995 -2.09415,-5.71776 6.3788,-6.19829 7.80703,-1.64497 4.84366,3.23101 2.44103,-6.72336 7.72769,-5.26287 z"
       id="path8132"
       transform="scale(0.26458333)" />
    <path
       style="vector-effect:non-scaling-stroke;fill:#f8f1e4;fill-opacity:1;stroke-width:1.56461;-inkscape-stroke:hairline"
       d="m 196.40022,-237.44266 c -5.54672,-0.89248 -11.74,2.5515 -10.695,8.8596 -1.38503,10.94471 6.777,24.02415 18.77972,22.83662 5.25309,-2.27148 13.89224,-2.68883 16.05042,-8.79613 -2.08627,-10.82574 -11.29991,-25.07646 -24.13514,-22.90009 z"
       id="path8134"
       transform="scale(0.26458333)" />
    <path
       style="vector-effect:non-scaling-stroke;fill:#f8f1e4;fill-opacity:1;stroke-width:1.56461;-inkscape-stroke:hairline"
       d="m 389.63742,-247.88377 c -7.72865,0.30431 -18.46847,4.19154 -19.3774,12.94296 2.17204,11.51296 8.89882,23.85016 19.84022,28.95635 10.94931,2.36501 26.90743,-3.69624 27.77948,-16.2858 -0.21256,-14.41584 -13.71077,-27.05122 -28.2423,-25.61351 z"
       id="path8135"
       transform="scale(0.26458333)" />
  </g>
</svg>
