<?xml version="1.0" encoding="UTF-8" standalone="no"?>
<!-- Created with Inkscape (http://www.inkscape.org/) -->

<svg
   width="64.41539mm"
   height="58.992348mm"
   viewBox="0 0 64.41539 58.992348"
   version="1.1"
   id="svg1"
   xmlns="http://www.w3.org/2000/svg"
   xmlns:svg="http://www.w3.org/2000/svg">
  <defs
     id="defs1" />
  <g
     id="layer1"
     transform="translate(-55.297918,-112.44792)">
    <g
       id="g5829"
       transform="matrix(0.98477923,0,0,0.98477923,302.57791,0.36301984)"
       style="stroke-width:1.01546">
      <path
         style="fill:#c6b5a6;stroke-width:1.01546"
         d="m -228.9485,173.5588 c -7.53663,-0.35324 -20.13549,-1.32904 -20.39027,-1.57925 -1.06172,-1.04268 4.63624,-3.51902 9.09712,-3.9536 0.94588,-0.0921 2.10083,-0.37146 2.56654,-0.62069 0.48186,-0.25787 1.42819,-0.45316 2.19596,-0.45316 0.74205,0 1.7166,-0.18999 2.16565,-0.4222 0.44905,-0.23222 1.604,-0.50011 2.56655,-0.59532 1.12392,-0.11117 1.75009,-0.29058 1.75009,-0.50145 0,-0.18059 -0.80368,-1.27389 -1.78594,-2.42954 -0.98227,-1.15566 -1.78594,-2.2808 -1.78594,-2.50031 0,-0.7725 0.58022,-0.74246 1.60767,0.0832 0.57099,0.45887 1.03817,0.68769 1.03817,0.50851 0,-0.17919 -0.72245,-2.51869 -1.60544,-5.19889 -1.56889,-4.76219 -1.78657,-6.07723 -0.88163,-5.3262 0.62861,0.5217 2.52892,4.45196 4.48966,9.28564 0.96346,2.37514 1.89066,4.46438 2.06044,4.64276 0.19851,0.20857 0.66876,0.26591 1.31746,0.16064 l 1.00876,-0.1637 -0.1666,-1.35126 c -0.30837,-2.50121 -0.72756,-4.25257 -1.36027,-5.68324 -0.72385,-1.63676 -0.79866,-2.4149 -0.23218,-2.4149 0.50718,0 0.49933,-0.29479 -0.10577,-3.96875 -0.75935,-4.61049 -1.14947,-7.91663 -0.9848,-8.34577 0.0814,-0.21201 0.32567,-0.38548 0.5429,-0.38548 0.4753,0 0.57634,0.39393 1.86621,7.27605 1.74232,9.29608 2.90255,14.5582 3.17938,14.41979 0.16725,-0.0836 0.23007,-1.93304 0.17077,-5.02709 -0.10049,-5.2432 -0.11924,-5.35968 -3.08675,-19.18229 -0.5311,-2.47385 -1.07428,-5.02181 -1.20707,-5.66212 -0.16954,-0.8175 -0.14988,-1.27451 0.066,-1.53463 0.60883,-0.7336 1.00879,0.32089 2.23099,5.88192 1.94432,8.84674 1.89863,8.77865 1.9308,2.87761 0.0242,-4.43732 -0.0379,-5.2419 -0.51075,-6.61459 -0.29606,-0.85952 -0.84537,-2.68893 -1.22067,-4.06534 -0.37531,-1.37641 -0.84239,-2.74678 -1.03797,-3.04527 -0.20466,-0.31235 -0.26449,-0.6901 -0.14096,-0.88998 0.11921,-0.19288 0.001,-1.36811 -0.26539,-2.64328 -0.59227,-2.83292 -0.60483,-3.22203 -0.104,-3.22203 0.21828,0 0.39687,0.0702 0.39687,0.15596 0,0.29304 1.60217,7.11585 2.15303,9.16864 0.30234,1.1267 0.66353,1.97821 0.80264,1.89223 0.1505,-0.093 0.23494,-2.47616 0.20852,-5.88501 -0.0244,-3.15078 0.0255,-5.90728 0.11085,-6.12557 0.0854,-0.21828 0.1871,-1.46709 0.22604,-2.77514 0.0591,-1.98587 0.14441,-2.39234 0.51693,-2.46355 0.53386,-0.10204 1.00534,1.33022 1.0076,3.06092 0.001,1.07245 0.0349,1.12113 0.66294,0.96351 0.82352,-0.20669 0.82521,-0.003 0.0148,1.7776 -0.55217,1.21348 -0.63266,1.73021 -0.55109,3.53771 0.0525,1.16416 0.11029,2.11666 0.12832,2.11666 0.018,0 0.0607,3.21469 0.0948,7.14375 0.0601,6.93536 0.0818,7.19778 0.74124,8.99584 0.37361,1.01864 0.78732,1.85208 0.91936,1.85208 0.13204,0 0.27745,-0.53578 0.32314,-1.19063 0.21256,-3.04635 1.60031,-13.034 1.84503,-13.27873 0.66585,-0.66585 0.88562,0.10229 0.70175,2.45277 -0.15919,2.03496 -0.12611,2.37215 0.2468,2.51524 0.56244,0.21583 0.54362,0.70201 -0.074,1.91271 -0.37623,0.73748 -0.61191,2.22258 -0.92604,5.83522 -0.52388,6.02495 -0.52745,6.90724 -0.0294,7.2805 0.34124,0.25577 0.30895,0.52095 -0.24968,2.05068 -0.58653,1.60613 -0.64559,2.18866 -0.68811,6.78715 -0.0256,2.76662 0.0343,5.16093 0.13301,5.32068 0.29629,0.47941 1.68136,0.34994 1.84612,-0.17257 0.0803,-0.25466 0.49901,-2.18943 0.93047,-4.29948 1.45918,-7.13604 1.89915,-9.11752 2.96676,-13.36146 0.58573,-2.32833 1.17875,-4.3514 1.31783,-4.4957 0.79984,-0.82985 0.70039,1.45227 -0.32273,7.40612 -0.30008,1.74625 -0.88664,5.51818 -1.30348,8.38207 -0.41683,2.86388 -0.8388,5.66185 -0.9377,6.2177 -0.46137,2.5928 1.37194,-1.62903 3.29519,-7.58831 0.65461,-2.02833 1.10976,-3.04271 1.36526,-3.04271 0.2692,0 0.36995,0.27158 0.33853,0.91253 -0.0284,0.57936 0.11277,1.02769 0.38667,1.22797 0.38907,0.2845 0.3549,0.42585 -0.3483,1.44056 -0.52645,0.75966 -1.0586,2.20849 -1.63835,4.46057 -0.47226,1.8345 -0.86095,3.46881 -0.86374,3.6318 -0.006,0.32216 1.53499,0.77828 3.45624,1.02333 0.6668,0.085 1.64864,0.38846 2.18186,0.67425 0.53321,0.28579 1.39046,0.51961 1.90498,0.51961 0.51453,0 1.36293,0.1786 1.88536,0.39688 0.52242,0.21828 1.35986,0.39687 1.86097,0.39687 0.50112,0 1.14791,0.12673 1.43731,0.28161 0.28941,0.15488 1.26384,0.39493 2.16542,0.53344 2.14125,0.32897 6.00486,2.18464 6.00486,2.88411 0,0.65453 -0.29016,0.72226 -4.49792,1.04988 -13.78992,1.07372 -28.14171,1.485 -37.12559,1.06391 z m 11.80636,-22.61399 c 0.0242,-2.66334 -0.0726,-4.22014 -0.29431,-4.73305 -0.18173,-0.42036 -0.41639,-0.67828 -0.52146,-0.57316 -0.23495,0.23507 -0.0961,10.9856 0.14687,11.37581 0.33747,0.54188 0.63314,-2.14095 0.6689,-6.0696 z"
         id="path5818" />
      <path
         style="fill:#aca792;stroke-width:1.01546"
         d="m -230.18749,173.30543 c -4.0645,-0.20636 -13.33582,-0.86408 -17.13177,-1.21535 -1.34518,-0.12449 -1.65364,-0.24003 -1.65364,-0.61942 0,-0.96182 7.23841,-3.66174 9.08891,-3.39014 0.50978,0.0748 1.30641,-0.11168 2.14489,-0.50212 0.78966,-0.36771 1.8335,-0.6222 2.55836,-0.62373 0.67345,-0.001 1.66488,-0.18661 2.20318,-0.41152 0.53829,-0.22491 1.64434,-0.4928 2.45788,-0.59531 0.81354,-0.10251 1.52463,-0.32308 1.58019,-0.49015 0.0556,-0.16707 -0.73546,-1.29816 -1.75786,-2.51354 -1.02239,-1.21537 -1.86171,-2.3586 -1.86514,-2.5405 -0.0114,-0.6022 0.88158,-0.34335 1.76313,0.51108 0.47769,0.46299 0.95144,0.7589 1.05277,0.65756 0.10134,-0.10133 -0.55172,-2.36657 -1.45124,-5.03386 -0.89952,-2.66729 -1.63549,-5.1209 -1.63549,-5.45246 0,-1.77178 1.99149,1.8958 4.87988,8.98695 l 1.886,4.63021 1.1174,0.0815 c 0.86513,0.0631 1.15715,-0.0221 1.29351,-0.37747 0.3071,-0.80029 -0.44959,-4.9211 -1.25615,-6.84075 -0.89064,-2.11979 -0.91452,-2.25596 -0.39563,-2.25596 0.61296,0 0.63717,-0.2683 0.25064,-2.77813 -1.05309,-6.83806 -1.40035,-9.48418 -1.27193,-9.69197 0.0781,-0.12645 0.31139,-0.2299 0.51831,-0.2299 0.40326,0 0.48391,0.25421 0.92331,2.91041 0.26349,1.5928 2.77689,14.29377 3.44615,17.41445 0.20009,0.93295 0.4246,1.37097 0.7027,1.37097 0.36138,0 0.38649,-0.62014 0.2169,-5.35781 -0.20114,-5.6193 -0.22701,-5.78785 -2.62874,-17.13177 -0.50836,-2.4011 -1.10716,-5.13953 -1.33066,-6.08542 -0.52118,-2.20567 -0.52958,-3.175 -0.0275,-3.175 0.49268,0 0.69075,0.76371 3.17913,12.25829 0.24668,1.13951 0.52243,1.99792 0.61276,1.90758 0.0903,-0.0903 0.13034,-2.57047 0.0889,-5.51141 -0.0632,-4.48718 -0.15941,-5.59718 -0.5979,-6.9017 -0.2874,-0.855 -0.80816,-2.62182 -1.15726,-3.92628 -0.3491,-1.30446 -0.76465,-2.5283 -0.92345,-2.71964 -0.15879,-0.19134 -0.21904,-0.62717 -0.13387,-0.96851 0.0852,-0.34134 -0.0288,-1.49161 -0.25319,-2.55615 -0.22442,-1.06454 -0.40804,-2.18968 -0.40804,-2.50031 0,-1.36529 0.54801,0.28184 1.6959,5.0973 1.15967,4.86484 1.55162,6.10585 1.83601,5.81317 0.0666,-0.0685 0.18896,-3.04166 0.2719,-6.60692 0.18394,-7.90696 0.41448,-11.16161 0.78194,-11.03913 0.43478,0.14493 0.92848,1.79979 0.95037,3.1856 0.0182,1.15024 0.0718,1.25822 0.54929,1.10665 0.67681,-0.21481 0.67266,0.1367 -0.0176,1.4897 -0.47448,0.93005 -0.52997,1.4096 -0.41976,3.62748 0.0699,1.40566 0.11387,2.73433 0.0978,2.95261 -0.0161,0.21829 -0.003,3.21594 0.0295,6.66146 0.0565,6.02815 0.0859,6.34711 0.77969,8.45153 0.74868,2.27108 1.38241,3.01238 1.38241,1.61708 0,-0.93797 1.53683,-13.28489 1.71191,-13.7535 0.068,-0.1819 0.26288,-0.33073 0.43315,-0.33073 0.22342,0 0.27195,0.66 0.17437,2.3714 -0.12178,2.13593 -0.0844,2.40523 0.37634,2.71198 0.50143,0.33384 0.49875,0.36935 -0.13565,1.79578 -0.5565,1.25129 -0.70639,2.24878 -1.0696,7.11816 -0.39302,5.269 -0.3918,5.68534 0.0176,5.98471 0.40758,0.29804 0.39922,0.43652 -0.11344,1.87768 -0.47794,1.34358 -0.56574,2.29613 -0.64336,6.97987 l -0.0899,5.42396 1.12448,0.0814 c 0.61846,0.0447 1.12447,-0.0183 1.12447,-0.14022 0,-0.49249 2.97711,-14.394 3.72148,-17.37734 1.0406,-4.17054 1.28878,-4.92109 1.62725,-4.92109 0.38218,0 0.12142,2.36146 -0.97872,8.86354 -0.49244,2.91042 -1.14768,7.12632 -1.45608,9.36867 -0.30841,2.24235 -0.5842,4.14735 -0.61286,4.23333 -0.0287,0.086 0.0637,0.21586 0.20532,0.28862 0.28593,0.14695 1.65135,-3.19836 3.32077,-8.13593 0.60271,-1.78263 1.20504,-3.24115 1.33851,-3.24115 0.13347,0 0.24267,0.47625 0.24267,1.05833 0,0.58209 0.11906,1.05834 0.26458,1.05834 0.44251,0 0.29824,0.56739 -0.36556,1.43767 -0.66468,0.87144 -2.37353,6.92586 -2.22817,7.89436 0.0908,0.60504 1.8219,1.24052 3.39768,1.24728 0.51494,0.002 1.4079,0.25063 1.98438,0.55205 0.57647,0.30141 1.64344,0.61144 2.37105,0.68894 0.7276,0.0775 1.52344,0.24762 1.76854,0.37802 0.24509,0.1304 0.81446,0.23709 1.26527,0.23709 0.4508,0 1.24707,0.1786 1.7695,0.39688 0.52242,0.21828 1.22042,0.39687 1.55113,0.39687 1.82744,0 6.65503,2.24658 6.40962,2.9828 -0.14982,0.44945 -1.54787,0.61026 -10.77969,1.23992 -9.08963,0.61996 -24.90716,0.89054 -31.75,0.54313 z m 12.95711,-17.74436 c 0.41239,-3.17766 0.33656,-7.90458 -0.14969,-9.33165 -0.23196,-0.68076 -0.52962,-1.23775 -0.66146,-1.23775 -0.27549,0 -0.32117,7.51174 -0.0656,10.79449 0.094,1.20754 0.27219,2.09424 0.39598,1.97045 0.1238,-0.1238 0.34016,-1.11179 0.4808,-2.19554 z"
         id="path5613" />
      <path
         style="fill:#9b916e;stroke-width:1.01546"
         d="m -230.84895,173.13976 c -0.87312,-0.0552 -4.80218,-0.33896 -8.73125,-0.63058 -3.92906,-0.29162 -7.56046,-0.55994 -8.06979,-0.59626 -1.25552,-0.0895 -1.20035,-0.6889 0.13229,-1.43734 1.66056,-0.9326 5.87737,-2.20058 7.31827,-2.20058 0.77963,0 1.71781,-0.21225 2.33903,-0.52917 0.6221,-0.31737 1.55939,-0.52916 2.34181,-0.52916 0.73462,0 1.80846,-0.22865 2.45794,-0.52336 0.6587,-0.29889 1.73523,-0.52585 2.51004,-0.52917 0.87725,-0.004 1.47306,-0.14605 1.68604,-0.40268 0.37652,-0.45369 0.44427,-0.34305 -1.91295,-3.12393 -1.33802,-1.57849 -1.86585,-2.56461 -1.37273,-2.56461 0.0847,0 0.68299,0.43354 1.32964,0.96342 0.64665,0.52988 1.24285,0.8963 1.32488,0.81426 0.082,-0.082 -0.62913,-2.50618 -1.58036,-5.387 -0.95123,-2.88082 -1.68414,-5.28322 -1.62868,-5.33868 0.45623,-0.45623 1.998,2.53217 4.62755,8.96957 1.03048,2.52271 2.0088,4.67031 2.17406,4.77244 0.33921,0.20965 2.08672,-4.2e-4 2.40825,-0.28948 0.3621,-0.32555 -0.54991,-5.41833 -1.25639,-7.01579 -0.78308,-1.7707 -0.81318,-1.98666 -0.27681,-1.98666 0.53018,0 0.51899,-0.17795 -0.39688,-6.3067 -0.43656,-2.92138 -0.79375,-5.62443 -0.79375,-6.00679 0,-1.06019 0.62964,-0.647 0.85463,0.56084 1.44715,7.76916 4.01802,20.16489 4.23696,20.42897 0.63492,0.76584 0.79476,-0.29265 0.74748,-4.95002 -0.0571,-5.62234 -0.28707,-7.00231 -3.737,-22.42239 -0.89635,-4.00638 -0.90162,-4.05808 -0.41369,-4.05808 0.20951,0 0.48534,0.47987 0.64638,1.12448 0.24397,0.97665 2.31792,10.41278 2.82038,12.83229 0.44088,2.12301 0.66569,0.50632 0.66569,-4.78722 0,-4.99058 -0.0626,-5.82881 -0.53829,-7.2099 -0.29607,-0.85952 -0.84487,-2.69386 -1.21957,-4.07631 -0.3747,-1.38245 -0.80136,-2.66174 -0.94814,-2.84286 -0.14678,-0.18113 -0.199,-0.58886 -0.11604,-0.90607 0.083,-0.31722 0.0258,-1.1595 -0.12691,-1.87175 -0.15275,-0.71225 -0.22067,-1.35205 -0.15095,-1.42178 0.0697,-0.0697 0.572,1.69466 1.11615,3.92086 0.54415,2.2262 1.17161,4.40404 1.39436,4.83964 0.37494,0.73321 0.42074,0.75285 0.61709,0.26458 0.11666,-0.29008 0.23101,-3.14679 0.25413,-6.34825 0.0457,-6.32894 0.19256,-10.36906 0.39833,-10.9583 0.27828,-0.7969 0.69617,0.23165 0.86648,2.13266 0.1461,1.63078 0.24938,1.94052 0.63679,1.90973 0.56259,-0.0447 0.58083,0.23089 0.0795,1.20041 -0.43705,0.84517 -0.4778,2.3353 -0.35166,12.85925 l 0.0856,7.14375 0.78751,2.09762 c 0.43313,1.15369 0.92797,2.14309 1.09965,2.19866 0.19424,0.0629 0.36533,-0.32968 0.45295,-1.03928 0.0774,-0.62718 0.44527,-3.70017 0.8174,-6.82887 0.7695,-6.4697 0.84129,-6.87917 1.20602,-6.87917 0.17059,0 0.20199,0.89469 0.0882,2.51354 -0.15671,2.22944 -0.12741,2.51354 0.25925,2.51354 0.56741,0 0.5498,0.32703 -0.0846,1.57048 -0.41678,0.81694 -0.61281,2.21652 -0.98384,7.0242 -0.4321,5.5989 -0.43362,6.02062 -0.0226,6.25065 0.40362,0.22588 0.38618,0.39176 -0.20679,1.96713 -0.6076,1.61424 -0.64758,2.04503 -0.64758,6.97778 0,4.54991 0.0563,5.27893 0.41852,5.41791 0.7858,0.30154 1.67921,0.16121 1.92526,-0.30242 0.13515,-0.25466 0.60936,-2.24896 1.05381,-4.43177 1.4551,-7.14648 1.9111,-9.21122 2.86321,-12.96458 0.5168,-2.03729 1.05312,-3.88276 1.19183,-4.10104 0.36191,-0.56953 0.0448,2.94868 -0.58417,6.48229 -0.28495,1.60073 -0.93085,5.76601 -1.43533,9.25617 -0.82871,5.73327 -0.89373,7.47109 -0.24109,6.44344 0.38375,-0.60425 2.22097,-5.50669 3.18158,-8.48972 0.50375,-1.56434 1.03382,-2.84427 1.17793,-2.84427 0.15615,0 0.19182,0.37417 0.0883,0.92605 -0.11388,0.60701 -0.0724,0.92604 0.1203,0.92604 0.46171,0 0.34532,0.65719 -0.25055,1.41471 -0.46207,0.58742 -2.34721,7.0148 -2.36126,8.05069 -0.006,0.45765 1.0164,0.81243 3.25808,1.13036 1.03223,0.1464 2.27503,0.50115 2.76177,0.78833 0.48674,0.28719 1.28715,0.52216 1.77868,0.52216 0.49153,0 1.22887,0.13057 1.63852,0.29016 0.40966,0.1596 1.34014,0.39195 2.06775,0.51635 3.37168,0.57645 5.29711,1.09889 6.81792,1.84994 1.75543,0.86691 2.51805,1.45723 2.24079,1.73449 -0.22764,0.22763 -3.31271,0.52754 -10.64621,1.03495 -5.69355,0.39393 -28.38408,0.74344 -32.27917,0.4972 z m 13.46791,-15.38195 c 0.40536,-1.98628 0.69025,-6.72253 0.52677,-8.75749 -0.16905,-2.1042 -0.97301,-4.81539 -1.32389,-4.46451 -0.19646,0.19646 -0.14022,11.98644 0.0624,13.08971 0.19304,1.0509 0.53465,1.11241 0.73468,0.13229 z"
         id="path5612" />
      <path
         style="fill:#a2518e;stroke-width:1.01546"
         d="m -229.61325,173.01678 c -3.99774,-0.18945 -13.28144,-0.8342 -17.19135,-1.19394 -1.09086,-0.10037 -1.63553,-0.26011 -1.57388,-0.4616 0.26258,-0.8581 6.46912,-3.08624 8.5968,-3.08624 0.63173,0 1.61537,-0.23812 2.18586,-0.52917 0.5739,-0.29278 1.55939,-0.52916 2.2061,-0.52916 0.64287,0 1.59668,-0.17876 2.11957,-0.39723 0.52289,-0.21848 1.75782,-0.48637 2.74429,-0.59532 2.45055,-0.27063 2.45922,-0.64731 0.0787,-3.41675 -1.02134,-1.18819 -1.85697,-2.22999 -1.85697,-2.31511 0,-0.38353 0.6096,-0.0807 1.55265,0.77128 0.98309,0.88816 1.62235,1.16815 1.62235,0.71056 0,-0.11851 -0.78021,-2.51331 -1.73379,-5.32177 -1.46885,-4.32598 -1.85471,-5.84897 -1.33994,-5.28861 0.34319,0.37358 2.22761,4.46194 3.60395,7.81899 2.60637,6.35725 2.36868,5.91729 3.1969,5.91729 0.40499,0 1.04175,-0.11612 1.41503,-0.25803 0.54681,-0.2079 0.67868,-0.43472 0.67868,-1.16735 0,-1.4633 -0.71171,-4.7681 -1.34274,-6.23496 -0.54771,-1.2732 -0.55542,-1.37576 -0.12692,-1.68909 0.4297,-0.3142 0.41602,-0.60181 -0.2355,-4.95093 -0.38044,-2.53954 -0.80517,-5.32389 -0.94385,-6.18744 -0.13867,-0.86354 -0.18822,-1.634 -0.11009,-1.71213 0.26117,-0.26117 0.58994,0.57223 0.76287,1.93381 0.33992,2.67646 3.78782,19.25313 4.06153,19.52684 0.15421,0.15421 0.47117,0.20716 0.70436,0.11768 0.37591,-0.14425 0.40629,-0.72573 0.26793,-5.12836 -0.18677,-5.94305 -0.94729,-10.52598 -3.83706,-23.12237 -0.56988,-2.48412 -0.67138,-3.66551 -0.28017,-3.26132 0.21091,0.21793 1.5932,6.15582 3.09194,13.28209 0.4566,2.17107 0.8808,2.84413 0.91716,1.45521 0.0105,-0.40019 0.002,-3.21345 -0.0179,-6.25171 -0.031,-4.63673 -0.11854,-5.78428 -0.5448,-7.14375 -0.63723,-2.03233 -0.63834,-2.22771 -0.008,-1.45052 0.27852,0.34354 0.56378,0.56509 0.63391,0.49233 0.0701,-0.0728 0.19636,-3.34698 0.28049,-7.27604 0.0841,-3.92906 0.23603,-7.97719 0.33756,-8.99583 0.17966,-1.80268 0.19364,-1.83091 0.5241,-1.05834 0.18673,0.43657 0.34489,1.47836 0.35145,2.31511 0.009,1.16692 0.1039,1.52135 0.40667,1.52135 0.3457,0 0.34259,0.13032 -0.0251,1.04921 -0.36441,0.91076 -0.40206,2.23127 -0.28526,10.00724 0.1305,8.68867 0.15516,9.02558 0.81983,11.20472 1.19081,3.90405 1.82753,4.11522 2.10983,0.69976 0.0996,-1.20513 0.29291,-2.96504 0.42957,-3.91093 0.13666,-0.94588 0.43995,-3.14854 0.67398,-4.89479 0.23404,-1.74625 0.49124,-3.23453 0.57156,-3.30729 0.0803,-0.0728 0.0662,0.86373 -0.0313,2.0811 -0.15261,1.90413 -0.11491,2.25909 0.26981,2.5404 0.41698,0.30491 0.4094,0.42351 -0.11214,1.75535 -0.43803,1.11857 -0.64874,2.66211 -0.97156,7.1169 -0.22673,3.1287 -0.41046,5.77784 -0.40829,5.88698 0.002,0.10914 0.18253,0.19843 0.40081,0.19843 0.49607,0 0.49849,-0.0369 -0.10792,1.64372 -0.66613,1.84613 -1.08327,12.04822 -0.50755,12.41322 0.47779,0.30292 2.26752,0.28964 2.4578,-0.0182 0.0846,-0.13683 0.56376,-2.25019 1.06488,-4.69635 1.63605,-7.98631 2.19226,-10.49144 2.95544,-13.31111 0.93728,-3.46292 1.11896,-2.60627 0.37042,1.74663 -1.12126,6.52029 -1.31644,7.75013 -1.86431,11.74712 -0.75472,5.50594 -0.74292,5.15938 -0.1756,5.15938 0.51945,0 1.33609,-1.87455 3.26177,-7.48718 0.83706,-2.43971 0.97256,-2.67492 1.2956,-2.24896 0.47836,0.63078 0.46607,0.79818 -0.11938,1.6255 -0.27334,0.38627 -0.82364,1.95246 -1.22289,3.48043 -1.07531,4.11536 -1.13768,4.42113 -0.95819,4.69729 0.22964,0.35331 1.74954,0.79014 3.47181,0.99782 0.80036,0.0965 1.84896,0.4024 2.33022,0.67976 0.48127,0.27736 1.25517,0.50952 1.7198,0.51591 0.46462,0.006 1.32102,0.18319 1.9031,0.39289 0.58209,0.2097 1.45312,0.38307 1.93562,0.38526 0.48251,0.002 1.11408,0.13071 1.40348,0.28559 0.2894,0.15489 1.24604,0.39754 2.12585,0.53923 2.20161,0.35456 5.95715,2.26506 5.44981,2.7724 -0.21314,0.21314 -14.21332,1.16033 -21.10768,1.42805 -7.55432,0.29336 -13.91456,0.28869 -20.32138,-0.0149 z m 12.54379,-16.68428 c 0.58365,-3.88698 0.48429,-8.45719 -0.22896,-10.53078 -0.32227,-0.93692 -0.75145,-1.75607 -0.95374,-1.82034 -0.31017,-0.0985 -0.34607,1.0181 -0.22916,7.12745 0.0763,3.98436 0.2278,7.46066 0.33678,7.7251 0.35128,0.85237 0.68973,0.0649 1.07508,-2.50143 z"
         id="path5611" />
      <path
         style="fill:#8c6c60;stroke-width:1.01546"
         d="m -229.61325,173.01678 c -3.99774,-0.18945 -13.28144,-0.8342 -17.19135,-1.19394 -1.09086,-0.10037 -1.63553,-0.26011 -1.57388,-0.4616 0.26258,-0.8581 6.46912,-3.08624 8.5968,-3.08624 0.63173,0 1.61537,-0.23812 2.18586,-0.52917 0.5739,-0.29278 1.55939,-0.52916 2.2061,-0.52916 0.64287,0 1.59668,-0.17876 2.11957,-0.39723 0.52289,-0.21848 1.75782,-0.48637 2.74429,-0.59532 2.45055,-0.27063 2.45922,-0.64731 0.0787,-3.41675 -1.02134,-1.18819 -1.85697,-2.22999 -1.85697,-2.31511 0,-0.38353 0.6096,-0.0807 1.55265,0.77128 0.98309,0.88816 1.62235,1.16815 1.62235,0.71056 0,-0.11851 -0.78021,-2.51331 -1.73379,-5.32177 -1.46885,-4.32598 -1.85471,-5.84897 -1.33994,-5.28861 0.34319,0.37358 2.22761,4.46194 3.60395,7.81899 2.60637,6.35725 2.36868,5.91729 3.1969,5.91729 0.40499,0 1.04175,-0.11612 1.41503,-0.25803 0.54681,-0.2079 0.67868,-0.43472 0.67868,-1.16735 0,-1.4633 -0.71171,-4.7681 -1.34274,-6.23496 -0.54771,-1.2732 -0.55542,-1.37576 -0.12692,-1.68909 0.4297,-0.3142 0.41602,-0.60181 -0.2355,-4.95093 -0.38044,-2.53954 -0.80517,-5.32389 -0.94385,-6.18744 -0.13867,-0.86354 -0.18822,-1.634 -0.11009,-1.71213 0.26117,-0.26117 0.58994,0.57223 0.76287,1.93381 0.33992,2.67646 3.78782,19.25313 4.06153,19.52684 0.15421,0.15421 0.47117,0.20716 0.70436,0.11768 0.37591,-0.14425 0.40629,-0.72573 0.26793,-5.12836 -0.18677,-5.94305 -0.94729,-10.52598 -3.83706,-23.12237 -0.56988,-2.48412 -0.67138,-3.66551 -0.28017,-3.26132 0.21091,0.21793 1.5932,6.15582 3.09194,13.28209 0.4566,2.17107 0.8808,2.84413 0.91716,1.45521 0.0105,-0.40019 0.002,-3.21345 -0.0179,-6.25171 -0.031,-4.63673 -0.11854,-5.78428 -0.5448,-7.14375 -0.63723,-2.03233 -0.63834,-2.22771 -0.008,-1.45052 0.27852,0.34354 0.56378,0.56509 0.63391,0.49233 0.0701,-0.0728 0.19636,-3.34698 0.28049,-7.27604 0.0841,-3.92906 0.23603,-7.97719 0.33756,-8.99583 0.17966,-1.80268 0.19364,-1.83091 0.5241,-1.05834 0.18673,0.43657 0.34489,1.47836 0.35145,2.31511 0.009,1.16692 0.1039,1.52135 0.40667,1.52135 0.3457,0 0.34259,0.13032 -0.0251,1.04921 -0.36441,0.91076 -0.40206,2.23127 -0.28526,10.00724 0.1305,8.68867 0.15516,9.02558 0.81983,11.20472 1.19081,3.90405 1.82753,4.11522 2.10983,0.69976 0.0996,-1.20513 0.29291,-2.96504 0.42957,-3.91093 0.13666,-0.94588 0.43995,-3.14854 0.67398,-4.89479 0.23404,-1.74625 0.49124,-3.23453 0.57156,-3.30729 0.0803,-0.0728 0.0662,0.86373 -0.0313,2.0811 -0.15261,1.90413 -0.11491,2.25909 0.26981,2.5404 0.41698,0.30491 0.4094,0.42351 -0.11214,1.75535 -0.43803,1.11857 -0.64874,2.66211 -0.97156,7.1169 -0.22673,3.1287 -0.41046,5.77784 -0.40829,5.88698 0.002,0.10914 0.18253,0.19843 0.40081,0.19843 0.49607,0 0.49849,-0.0369 -0.10792,1.64372 -0.66613,1.84613 -1.08327,12.04822 -0.50755,12.41322 0.47779,0.30292 2.26752,0.28964 2.4578,-0.0182 0.0846,-0.13683 0.56376,-2.25019 1.06488,-4.69635 1.63605,-7.98631 2.19226,-10.49144 2.95544,-13.31111 0.93728,-3.46292 1.11896,-2.60627 0.37042,1.74663 -1.12126,6.52029 -1.31644,7.75013 -1.86431,11.74712 -0.75472,5.50594 -0.74292,5.15938 -0.1756,5.15938 0.51945,0 1.33609,-1.87455 3.26177,-7.48718 0.83706,-2.43971 0.97256,-2.67492 1.2956,-2.24896 0.47836,0.63078 0.46607,0.79818 -0.11938,1.6255 -0.27334,0.38627 -0.82364,1.95246 -1.22289,3.48043 -1.07531,4.11536 -1.13768,4.42113 -0.95819,4.69729 0.22964,0.35331 1.74954,0.79014 3.47181,0.99782 0.80036,0.0965 1.84896,0.4024 2.33022,0.67976 0.48127,0.27736 1.25517,0.50952 1.7198,0.51591 0.46462,0.006 1.32102,0.18319 1.9031,0.39289 0.58209,0.2097 1.45312,0.38307 1.93562,0.38526 0.48251,0.002 1.11408,0.13071 1.40348,0.28559 0.2894,0.15489 1.24604,0.39754 2.12585,0.53923 2.20161,0.35456 5.95715,2.26506 5.44981,2.7724 -0.21314,0.21314 -14.21332,1.16033 -21.10768,1.42805 -7.55432,0.29336 -13.91456,0.28869 -20.32138,-0.0149 z m 12.54379,-16.68428 c 0.58365,-3.88698 0.48429,-8.45719 -0.22896,-10.53078 -0.32227,-0.93692 -0.75145,-1.75607 -0.95374,-1.82034 -0.31017,-0.0985 -0.34607,1.0181 -0.22916,7.12745 0.0763,3.98436 0.2278,7.46066 0.33678,7.7251 0.35128,0.85237 0.68973,0.0649 1.07508,-2.50143 z"
         id="path5610" />
      <path
         style="fill:#6b8842;stroke-width:1.01546"
         d="m -222.20103,144.39086 c -0.8005,-3.68463 -0.99332,-4.92966 -0.72135,-4.65769 0.21413,0.21413 1.77265,7.91083 1.66642,8.22953 -0.0563,0.16889 -0.48158,-1.43844 -0.94507,-3.57184 z"
         id="path5753" />
      <path
         style="fill:#6b8842;stroke-width:1.01546"
         d="m -230.18749,172.88547 c -0.65484,-0.0538 -4.94109,-0.35793 -9.525,-0.67577 -4.5839,-0.31785 -8.43399,-0.66485 -8.55574,-0.77111 -0.60376,-0.52694 6.18231,-3.00117 8.15887,-2.97476 0.83296,0.0111 1.70962,-0.17936 2.36707,-0.51434 0.57428,-0.29261 1.64584,-0.56043 2.38124,-0.59516 0.73541,-0.0347 1.85809,-0.2585 2.49485,-0.49728 0.63676,-0.23877 1.65206,-0.43413 2.25623,-0.43413 1.06513,0 2.27457,-0.56882 2.27457,-1.06978 0,-0.20924 -0.70513,-1.10261 -3.41492,-4.32653 -0.39594,-0.47106 -0.3894,-0.48459 0.10762,-0.22274 0.29105,0.15334 0.81782,0.58738 1.1706,0.96454 0.56131,0.60009 1.60753,0.9509 1.60753,0.53901 0,-0.0807 -0.71609,-2.30149 -1.59131,-4.93508 -0.87521,-2.63359 -1.53162,-4.84803 -1.45867,-4.92097 0.20138,-0.20138 3.61948,7.56041 5.01669,11.39186 l 0.4583,1.25677 h 1.25047 c 0.68775,0 1.46699,-0.15833 1.73163,-0.35184 0.44696,-0.32683 0.45797,-0.51958 0.15488,-2.71198 -0.17946,-1.29807 -0.62268,-3.11216 -0.98493,-4.03129 -0.58678,-1.48885 -0.61578,-1.71976 -0.26583,-2.11667 0.34849,-0.39526 0.32148,-0.92304 -0.23952,-4.67884 -0.34778,-2.32834 -0.60251,-4.39931 -0.56608,-4.60217 0.0364,-0.20286 0.87976,3.66668 1.87406,8.59896 0.9943,4.93228 1.95543,9.12099 2.13584,9.30824 0.18041,0.18725 0.52775,0.26381 0.77187,0.17013 0.68899,-0.26439 0.62943,-8.70583 -0.0893,-12.66009 -0.58969,-3.2442 -0.6483,-3.93273 -0.28609,-3.36086 0.12702,0.20054 0.36332,0.28281 0.52511,0.18282 0.48638,-0.3006 0.39658,-12.22919 -0.10271,-13.64433 -0.48912,-1.38633 -0.49331,-1.5875 -0.0331,-1.5875 0.55996,0 0.69443,-1.24651 0.69573,-6.44921 10e-4,-5.80205 0.26304,-10.7487 0.56839,-10.7487 0.12329,0 0.22416,0.77764 0.22416,1.72809 0,1.27796 0.10152,1.76706 0.38974,1.87766 0.34203,0.13124 0.34047,0.26749 -0.0128,1.11285 -0.34473,0.82508 -0.37918,2.23556 -0.24008,9.83016 l 0.1624,8.86686 0.80127,2.51354 c 0.4407,1.38245 0.92372,2.66237 1.07337,2.84427 0.59468,0.72283 0.96288,0.3316 1.12053,-1.19062 0.0867,-0.83674 0.33403,-2.77151 0.54973,-4.29948 0.21569,-1.52797 0.39148,-3.14523 0.39064,-3.59392 -0.002,-1.03175 0.21669,-1.25275 0.73072,-0.73872 0.36316,0.36316 0.36066,0.49694 -0.0244,1.30442 -0.26314,0.55181 -0.53749,2.25775 -0.70944,4.41139 -0.15421,1.93139 -0.39013,4.76178 -0.52426,6.28975 -0.21207,2.4157 -0.18908,2.81981 0.17626,3.09766 0.38093,0.28972 0.36941,0.45024 -0.12345,1.7198 -0.46132,1.18832 -0.56324,2.18913 -0.67344,6.6127 -0.0942,3.78111 -0.0454,5.27861 0.1776,5.45339 0.52683,0.41288 2.21995,0.55957 2.6303,0.22789 0.21526,-0.17399 0.64139,-1.64754 0.96968,-3.35311 0.32212,-1.67349 0.86622,-4.23333 1.20911,-5.68854 0.34288,-1.45521 0.80799,-3.59833 1.03357,-4.7625 0.22557,-1.16417 0.57871,-2.65245 0.78473,-3.30729 0.61933,-1.96848 0.50934,-0.21557 -0.2094,3.33705 -0.34997,1.72988 -0.88978,5.1693 -1.19957,7.64316 -0.30979,2.47385 -0.66441,4.93844 -0.78804,5.47685 -0.2552,1.11139 -0.17293,1.27002 0.65863,1.27002 0.6486,0 0.73624,-0.20418 3.96529,-9.23851 0.0986,-0.27594 0.212,-0.297 0.42927,-0.0797 0.21726,0.21726 0.17008,0.48625 -0.17865,1.01847 -0.49514,0.75569 -2.2478,6.94977 -2.24958,7.95027 -8.4e-4,0.4702 0.26267,0.65319 1.42875,0.99218 0.78639,0.22861 1.82818,0.41682 2.31511,0.41824 0.48692,10e-4 1.52222,0.29908 2.30065,0.66146 0.77844,0.36238 1.78202,0.65887 2.23018,0.65887 0.44816,0 1.18048,0.1094 1.62737,0.24311 1.22535,0.36663 5.5802,1.34439 5.98779,1.34439 0.66441,0 4.49688,1.93982 4.40151,2.22784 -0.10675,0.32237 -1.73616,0.4954 -10.23822,1.08723 -5.48082,0.38152 -28.48758,0.74808 -31.48542,0.50165 z m 13.19618,-15.46052 c 0.23468,-1.22629 0.37565,-3.59668 0.36962,-6.21557 -0.009,-3.78055 -0.0768,-4.41691 -0.637,-5.94966 -0.43146,-1.18054 -0.78472,-1.74664 -1.13167,-1.81346 -0.48938,-0.0942 -0.49939,0.11445 -0.33605,7.00799 0.18901,7.97671 0.31114,9.15411 0.93708,9.03357 0.2939,-0.0566 0.53171,-0.67134 0.79802,-2.06287 z"
         id="path5609" />
      <path
         style="fill:#6b654c;stroke-width:1.01546"
         d="m -222.20103,144.39086 c -0.8005,-3.68463 -0.99332,-4.92966 -0.72135,-4.65769 0.21413,0.21413 1.77265,7.91083 1.66642,8.22953 -0.0563,0.16889 -0.48158,-1.43844 -0.94507,-3.57184 z"
         id="path5734" />
      <path
         style="fill:#6b654c;stroke-width:1.01546"
         d="m -230.18749,172.88547 c -0.65484,-0.0538 -4.94109,-0.35793 -9.525,-0.67577 -4.5839,-0.31785 -8.43399,-0.66485 -8.55574,-0.77111 -0.60376,-0.52694 6.18231,-3.00117 8.15887,-2.97476 0.83296,0.0111 1.70962,-0.17936 2.36707,-0.51434 0.57428,-0.29261 1.64584,-0.56043 2.38124,-0.59516 0.73541,-0.0347 1.85809,-0.2585 2.49485,-0.49728 0.63676,-0.23877 1.65206,-0.43413 2.25623,-0.43413 1.06513,0 2.27457,-0.56882 2.27457,-1.06978 0,-0.20924 -0.70513,-1.10261 -3.41492,-4.32653 -0.39594,-0.47106 -0.3894,-0.48459 0.10762,-0.22274 0.29105,0.15334 0.81782,0.58738 1.1706,0.96454 0.56131,0.60009 1.60753,0.9509 1.60753,0.53901 0,-0.0807 -0.71609,-2.30149 -1.59131,-4.93508 -0.87521,-2.63359 -1.53162,-4.84803 -1.45867,-4.92097 0.20138,-0.20138 3.61948,7.56041 5.01669,11.39186 l 0.4583,1.25677 h 1.25047 c 0.68775,0 1.46699,-0.15833 1.73163,-0.35184 0.44696,-0.32683 0.45797,-0.51958 0.15488,-2.71198 -0.17946,-1.29807 -0.62268,-3.11216 -0.98493,-4.03129 -0.58678,-1.48885 -0.61578,-1.71976 -0.26583,-2.11667 0.34849,-0.39526 0.32148,-0.92304 -0.23952,-4.67884 -0.34778,-2.32834 -0.60251,-4.39931 -0.56608,-4.60217 0.0364,-0.20286 0.87976,3.66668 1.87406,8.59896 0.9943,4.93228 1.95543,9.12099 2.13584,9.30824 0.18041,0.18725 0.52775,0.26381 0.77187,0.17013 0.68899,-0.26439 0.62943,-8.70583 -0.0893,-12.66009 -0.58969,-3.2442 -0.6483,-3.93273 -0.28609,-3.36086 0.12702,0.20054 0.36332,0.28281 0.52511,0.18282 0.48638,-0.3006 0.39658,-12.22919 -0.10271,-13.64433 -0.48912,-1.38633 -0.49331,-1.5875 -0.0331,-1.5875 0.55996,0 0.69443,-1.24651 0.69573,-6.44921 10e-4,-5.80205 0.26304,-10.7487 0.56839,-10.7487 0.12329,0 0.22416,0.77764 0.22416,1.72809 0,1.27796 0.10152,1.76706 0.38974,1.87766 0.34203,0.13124 0.34047,0.26749 -0.0128,1.11285 -0.34473,0.82508 -0.37918,2.23556 -0.24008,9.83016 l 0.1624,8.86686 0.80127,2.51354 c 0.4407,1.38245 0.92372,2.66237 1.07337,2.84427 0.59468,0.72283 0.96288,0.3316 1.12053,-1.19062 0.0867,-0.83674 0.33403,-2.77151 0.54973,-4.29948 0.21569,-1.52797 0.39148,-3.14523 0.39064,-3.59392 -0.002,-1.03175 0.21669,-1.25275 0.73072,-0.73872 0.36316,0.36316 0.36066,0.49694 -0.0244,1.30442 -0.26314,0.55181 -0.53749,2.25775 -0.70944,4.41139 -0.15421,1.93139 -0.39013,4.76178 -0.52426,6.28975 -0.21207,2.4157 -0.18908,2.81981 0.17626,3.09766 0.38093,0.28972 0.36941,0.45024 -0.12345,1.7198 -0.46132,1.18832 -0.56324,2.18913 -0.67344,6.6127 -0.0942,3.78111 -0.0454,5.27861 0.1776,5.45339 0.52683,0.41288 2.21995,0.55957 2.6303,0.22789 0.21526,-0.17399 0.64139,-1.64754 0.96968,-3.35311 0.32212,-1.67349 0.86622,-4.23333 1.20911,-5.68854 0.34288,-1.45521 0.80799,-3.59833 1.03357,-4.7625 0.22557,-1.16417 0.57871,-2.65245 0.78473,-3.30729 0.61933,-1.96848 0.50934,-0.21557 -0.2094,3.33705 -0.34997,1.72988 -0.88978,5.1693 -1.19957,7.64316 -0.30979,2.47385 -0.66441,4.93844 -0.78804,5.47685 -0.2552,1.11139 -0.17293,1.27002 0.65863,1.27002 0.6486,0 0.73624,-0.20418 3.96529,-9.23851 0.0986,-0.27594 0.212,-0.297 0.42927,-0.0797 0.21726,0.21726 0.17008,0.48625 -0.17865,1.01847 -0.49514,0.75569 -2.2478,6.94977 -2.24958,7.95027 -8.4e-4,0.4702 0.26267,0.65319 1.42875,0.99218 0.78639,0.22861 1.82818,0.41682 2.31511,0.41824 0.48692,10e-4 1.52222,0.29908 2.30065,0.66146 0.77844,0.36238 1.78202,0.65887 2.23018,0.65887 0.44816,0 1.18048,0.1094 1.62737,0.24311 1.22535,0.36663 5.5802,1.34439 5.98779,1.34439 0.66441,0 4.49688,1.93982 4.40151,2.22784 -0.10675,0.32237 -1.73616,0.4954 -10.23822,1.08723 -5.48082,0.38152 -28.48758,0.74808 -31.48542,0.50165 z m 13.19618,-15.46052 c 0.23468,-1.22629 0.37565,-3.59668 0.36962,-6.21557 -0.009,-3.78055 -0.0768,-4.41691 -0.637,-5.94966 -0.43146,-1.18054 -0.78472,-1.74664 -1.13167,-1.81346 -0.48938,-0.0942 -0.49939,0.11445 -0.33605,7.00799 0.18901,7.97671 0.31114,9.15411 0.93708,9.03357 0.2939,-0.0566 0.53171,-0.67134 0.79802,-2.06287 z"
         id="path5608" />
      <path
         style="fill:#89572b;stroke-width:1.01546"
         d="m -219.81552,138.60879 c -0.0293,-1.25501 -0.2192,-2.7523 -0.42208,-3.32729 -0.33618,-0.95286 -0.32686,-1.07168 0.10527,-1.34155 0.64683,-0.40395 0.69146,-0.0769 0.51525,3.77568 -0.13774,3.01148 -0.14796,3.05748 -0.19844,0.89316 z"
         id="path5713" />
      <path
         style="fill:#89572b;stroke-width:1.01546"
         d="m -216.15518,150.54792 c -0.0283,-0.0728 -0.13316,-1.11456 -0.23301,-2.31511 -0.16455,-1.9784 -0.1378,-2.18281 0.28562,-2.18281 0.38307,0 0.46442,0.22623 0.45192,1.25677 -0.0141,1.1582 -0.3858,3.54634 -0.50453,3.24115 z"
         id="path5712" />
      <path
         style="fill:#89572b;stroke-width:1.01546"
         d="m -228.99686,163.77708 c -0.72906,-0.76097 -0.73657,-0.79375 -0.1818,-0.79375 0.6521,0 0.75138,-0.56962 0.30426,-1.74565 -0.44725,-1.17635 0.13634,-1.29272 0.65994,-0.13159 0.32959,0.73089 0.41076,1.27719 0.26667,1.79471 -0.11393,0.4092 -0.18073,0.95235 -0.14846,1.20701 0.0794,0.62655 -0.0176,0.59091 -0.90061,-0.33073 z"
         id="path5711" />
      <path
         style="fill:#89572b;stroke-width:1.01546"
         d="m -229.12915,172.73318 c -5.02101,-0.21061 -15.78934,-0.98135 -17.5948,-1.25934 l -1.32291,-0.20369 1.75152,-0.84495 c 2.20454,-1.06349 5.05004,-1.88562 6.5264,-1.88562 0.62473,0 1.60263,-0.23812 2.17312,-0.52916 0.63506,-0.32399 1.55939,-0.52917 2.38385,-0.52917 0.74063,0 1.69488,-0.18011 2.12057,-0.40024 0.42569,-0.22013 1.5211,-0.47695 2.43426,-0.57072 0.91315,-0.0938 1.93265,-0.34701 2.26555,-0.56276 0.54869,-0.35561 0.64066,-0.34554 0.984,0.1077 0.2083,0.27499 0.50883,0.88124 0.66785,1.34723 0.26765,0.78435 1.15132,1.38875 1.50838,1.03169 0.0846,-0.0846 -0.0405,-0.60145 -0.27803,-1.14864 -0.73067,-1.68356 -0.71518,-1.71542 1.00835,-2.07311 0.87198,-0.18097 1.65902,-0.28354 1.74899,-0.22794 0.09,0.0556 0.23989,0.65788 0.33316,1.33839 0.18526,1.35157 0.54342,1.95215 1.16419,1.95215 0.32365,0 0.37234,-0.24485 0.25153,-1.26491 -0.0824,-0.6957 -0.18828,-1.43277 -0.2353,-1.63793 -0.047,-0.20516 0.15265,-0.42363 0.44369,-0.48549 0.29104,-0.0619 0.61082,-0.24219 0.71063,-0.40074 0.0998,-0.15854 0.17907,-2.31766 0.17615,-4.79803 -0.004,-3.34027 -0.13986,-5.23022 -0.52414,-7.2879 l -0.51883,-2.77812 0.54112,-0.36301 c 0.48353,-0.32437 0.54544,-0.66225 0.58175,-3.175 l 0.0406,-2.81199 0.25131,3.0427 c 0.13822,1.67349 0.22782,3.63802 0.19911,4.36563 -0.14778,3.74511 -0.009,10.05231 0.26486,12.03854 0.17055,1.23693 0.3708,3.22702 0.44499,4.42244 0.14459,2.32964 0.42877,2.71803 1.69475,2.31622 0.50756,-0.16109 0.54981,-0.34941 0.49371,-2.20064 -0.0337,-1.11346 -0.0454,-2.1647 -0.0259,-2.33609 0.0369,-0.32392 2.88249,-0.19276 3.26723,0.15059 0.10398,0.0928 0.0311,0.84817 -0.16194,1.67863 -0.3858,1.65965 -0.34764,1.78968 0.52512,1.78968 0.45214,0 0.63341,-0.19193 0.74966,-0.79375 0.0843,-0.43656 0.2223,-1.15093 0.30663,-1.5875 0.13035,-0.67489 0.27412,-0.79375 0.96012,-0.79375 h 0.80682 l -0.16863,1.38907 c -0.15452,1.27282 -0.13523,1.34608 0.23049,0.87547 0.21952,-0.28248 0.39913,-0.60215 0.39913,-0.71038 0,-0.10824 0.11422,-0.49722 0.25383,-0.86441 0.25103,-0.66027 0.26776,-0.66366 1.52135,-0.30849 0.69714,0.19751 1.92237,0.43774 2.72274,0.53384 0.80036,0.0961 1.84896,0.40576 2.33022,0.68814 0.48127,0.28239 1.25517,0.51866 1.7198,0.52504 0.46462,0.006 1.32102,0.18319 1.9031,0.39289 0.58209,0.20971 1.45312,0.38308 1.93562,0.38527 0.48251,0.002 1.1131,0.13018 1.40132,0.28443 0.28821,0.15424 1.17487,0.38637 1.97035,0.51584 1.52428,0.24808 4.41616,1.42394 4.88176,1.98496 0.34437,0.41493 -0.49604,0.51903 -8.46926,1.0491 -13.06706,0.8687 -21.86187,1.04261 -31.74999,0.62783 z"
         id="path5607" />
      <path
         style="fill:#565d30;stroke-width:1.01546"
         d="m -219.81552,138.60879 c -0.0293,-1.25501 -0.2192,-2.7523 -0.42208,-3.32729 -0.33618,-0.95286 -0.32686,-1.07168 0.10527,-1.34155 0.64683,-0.40395 0.69146,-0.0769 0.51525,3.77568 -0.13774,3.01148 -0.14796,3.05748 -0.19844,0.89316 z"
         id="path5688" />
      <path
         style="fill:#565d30;stroke-width:1.01546"
         d="m -216.15518,150.54792 c -0.0283,-0.0728 -0.13316,-1.11456 -0.23301,-2.31511 -0.16455,-1.9784 -0.1378,-2.18281 0.28562,-2.18281 0.38307,0 0.46442,0.22623 0.45192,1.25677 -0.0141,1.1582 -0.3858,3.54634 -0.50453,3.24115 z"
         id="path5687" />
      <path
         style="fill:#565d30;stroke-width:1.01546"
         d="m -228.99686,163.77708 c -0.72906,-0.76097 -0.73657,-0.79375 -0.1818,-0.79375 0.6521,0 0.75138,-0.56962 0.30426,-1.74565 -0.44725,-1.17635 0.13634,-1.29272 0.65994,-0.13159 0.32959,0.73089 0.41076,1.27719 0.26667,1.79471 -0.11393,0.4092 -0.18073,0.95235 -0.14846,1.20701 0.0794,0.62655 -0.0176,0.59091 -0.90061,-0.33073 z"
         id="path5686" />
      <path
         style="fill:#565d30;stroke-width:1.01546"
         d="m -229.12915,172.73318 c -5.02101,-0.21061 -15.78934,-0.98135 -17.5948,-1.25934 l -1.32291,-0.20369 1.75152,-0.84495 c 2.20454,-1.06349 5.05004,-1.88562 6.5264,-1.88562 0.62473,0 1.60263,-0.23812 2.17312,-0.52916 0.63506,-0.32399 1.55939,-0.52917 2.38385,-0.52917 0.74063,0 1.69488,-0.18011 2.12057,-0.40024 0.42569,-0.22013 1.5211,-0.47695 2.43426,-0.57072 0.91315,-0.0938 1.93265,-0.34701 2.26555,-0.56276 0.54869,-0.35561 0.64066,-0.34554 0.984,0.1077 0.2083,0.27499 0.50883,0.88124 0.66785,1.34723 0.26765,0.78435 1.15132,1.38875 1.50838,1.03169 0.0846,-0.0846 -0.0405,-0.60145 -0.27803,-1.14864 -0.73067,-1.68356 -0.71518,-1.71542 1.00835,-2.07311 0.87198,-0.18097 1.65902,-0.28354 1.74899,-0.22794 0.09,0.0556 0.23989,0.65788 0.33316,1.33839 0.18526,1.35157 0.54342,1.95215 1.16419,1.95215 0.32365,0 0.37234,-0.24485 0.25153,-1.26491 -0.0824,-0.6957 -0.18828,-1.43277 -0.2353,-1.63793 -0.047,-0.20516 0.15265,-0.42363 0.44369,-0.48549 0.29104,-0.0619 0.61082,-0.24219 0.71063,-0.40074 0.0998,-0.15854 0.17907,-2.31766 0.17615,-4.79803 -0.004,-3.34027 -0.13986,-5.23022 -0.52414,-7.2879 l -0.51883,-2.77812 0.54112,-0.36301 c 0.48353,-0.32437 0.54544,-0.66225 0.58175,-3.175 l 0.0406,-2.81199 0.25131,3.0427 c 0.13822,1.67349 0.22782,3.63802 0.19911,4.36563 -0.14778,3.74511 -0.009,10.05231 0.26486,12.03854 0.17055,1.23693 0.3708,3.22702 0.44499,4.42244 0.14459,2.32964 0.42877,2.71803 1.69475,2.31622 0.50756,-0.16109 0.54981,-0.34941 0.49371,-2.20064 -0.0337,-1.11346 -0.0454,-2.1647 -0.0259,-2.33609 0.0369,-0.32392 2.88249,-0.19276 3.26723,0.15059 0.10398,0.0928 0.0311,0.84817 -0.16194,1.67863 -0.3858,1.65965 -0.34764,1.78968 0.52512,1.78968 0.45214,0 0.63341,-0.19193 0.74966,-0.79375 0.0843,-0.43656 0.2223,-1.15093 0.30663,-1.5875 0.13035,-0.67489 0.27412,-0.79375 0.96012,-0.79375 h 0.80682 l -0.16863,1.38907 c -0.15452,1.27282 -0.13523,1.34608 0.23049,0.87547 0.21952,-0.28248 0.39913,-0.60215 0.39913,-0.71038 0,-0.10824 0.11422,-0.49722 0.25383,-0.86441 0.25103,-0.66027 0.26776,-0.66366 1.52135,-0.30849 0.69714,0.19751 1.92237,0.43774 2.72274,0.53384 0.80036,0.0961 1.84896,0.40576 2.33022,0.68814 0.48127,0.28239 1.25517,0.51866 1.7198,0.52504 0.46462,0.006 1.32102,0.18319 1.9031,0.39289 0.58209,0.20971 1.45312,0.38308 1.93562,0.38527 0.48251,0.002 1.1131,0.13018 1.40132,0.28443 0.28821,0.15424 1.17487,0.38637 1.97035,0.51584 1.52428,0.24808 4.41616,1.42394 4.88176,1.98496 0.34437,0.41493 -0.49604,0.51903 -8.46926,1.0491 -13.06706,0.8687 -21.86187,1.04261 -31.74999,0.62783 z"
         id="path5606" />
      <path
         style="fill:#4a3726;stroke-width:1.01546"
         d="m -220.50568,150.68369 c -0.22106,-0.88078 0.24708,-1.55498 0.64391,-0.92731 0.32832,0.51931 0.32117,0.60347 -0.1001,1.1796 -0.33596,0.45945 -0.36903,0.44411 -0.54381,-0.25229 z"
         id="path5658" />
      <path
         style="fill:#4a3726;stroke-width:1.01546"
         d="m -230.0552,172.61367 c -0.7276,-0.0565 -4.00182,-0.29654 -7.27604,-0.53351 -3.27422,-0.23696 -6.96515,-0.50809 -8.20208,-0.60251 l -2.24896,-0.17167 1.32292,-0.68497 c 2.05976,-1.06649 4.89665,-1.91201 6.35,-1.8926 0.8464,0.0113 1.70413,-0.17865 2.38125,-0.52738 0.67533,-0.3478 1.53708,-0.53915 2.38125,-0.52874 0.7276,0.009 1.6801,-0.16786 2.11666,-0.39296 0.43657,-0.22509 1.50813,-0.50171 2.38125,-0.6147 0.87313,-0.113 1.90668,-0.28544 2.29679,-0.38322 0.64675,-0.16209 0.76816,-0.0616 1.37679,1.13948 0.66619,1.31466 1.07799,1.64786 2.0366,1.64786 0.63752,0 0.63413,-0.18839 -0.0338,-1.88301 -0.29774,-0.75539 -0.44657,-1.46463 -0.33073,-1.57608 0.11585,-0.11146 0.74158,-0.24196 1.39051,-0.29001 l 1.17987,-0.0874 0.21757,1.32292 c 0.22892,1.3919 0.98842,2.33623 1.66895,2.07509 0.43698,-0.16768 0.50487,-1.39235 0.14647,-2.64203 -0.20986,-0.73173 -0.1637,-0.86165 0.39687,-1.11706 0.58031,-0.26441 0.6368,-0.45294 0.66313,-2.21293 0.0249,-1.66262 0.0936,-1.35599 0.50642,2.25777 0.2627,2.29992 0.53763,4.338 0.61094,4.52907 0.17121,0.44615 1.25106,0.65333 1.98677,0.38117 0.52753,-0.19514 0.57126,-0.39427 0.57126,-2.6011 v -2.38977 h 1.03669 c 1.81521,0 1.87128,0.0739 1.44454,1.90316 -0.40353,1.72979 -0.2203,2.33017 0.71116,2.33017 0.58922,0 1.30552,-0.96646 1.30552,-1.76144 0,-1.04692 0.47413,-1.94724 0.93278,-1.77124 0.23411,0.0898 0.35491,0.33244 0.27248,0.54724 -0.0814,0.21223 -0.22256,0.85171 -0.3136,1.42107 -0.14628,0.91477 -0.10381,1.0352 0.36505,1.0352 0.70055,0 1.03662,-0.44439 1.26657,-1.67477 0.23279,-1.24559 0.49709,-1.36008 1.95354,-0.84621 0.63028,0.22237 1.58707,0.40432 2.12619,0.40432 0.53913,0 1.56595,0.29715 2.28184,0.66035 0.71589,0.36319 1.62733,0.66085 2.02542,0.66146 0.72833,0.001 1.10562,0.0771 5.23789,1.05458 1.24164,0.29371 2.43226,0.53412 2.64583,0.53423 0.21357,1.2e-4 1.13245,0.35225 2.04195,0.78252 1.61469,0.76387 2.11984,1.33105 1.19063,1.33681 -0.25467,0.002 -3.85631,0.24542 -8.00365,0.54187 -7.07552,0.50575 -28.57854,0.91637 -32.41146,0.61893 z"
         id="path5605" />
    </g>
  </g>
</svg>
