<?xml version="1.0" encoding="UTF-8" standalone="no"?>
<!-- Created with Inkscape (http://www.inkscape.org/) -->

<svg
   width="64.41539mm"
   height="58.992348mm"
   viewBox="0 0 64.41539 58.992348"
   version="1.1"
   id="svg1"
   xmlns="http://www.w3.org/2000/svg"
   xmlns:svg="http://www.w3.org/2000/svg">
  <defs
     id="defs1" />
  <g
     id="layer1"
     transform="translate(-55.297918,-112.44792)">
    <g
       id="g5832"
       transform="translate(222.11519,169.12055)">
      <path
         style="fill:#c6b5a6"
         d="m -145.52083,2.0947212 c -2.83765,-0.1106424 -6.82625,-0.3826986 -8.86354,-0.6045692 -2.03729,-0.2218707 -5.05263,-0.4868366 -6.70075,-0.58881311 -2.10036,-0.12995848 -3.11439,-0.30320799 -3.39045,-0.57927025 -0.21662,-0.21662208 -0.29691,-0.47902286 -0.17841,-0.58311283 0.40086,-0.35212483 3.67823,-1.54670141 4.72839,-1.72346091 0.57382,-0.096583 2.1744,-0.4495715 3.55685,-0.7844178 1.38245,-0.3348463 3.55534,-0.76675 4.82864,-0.959786 1.27331,-0.193036 2.31511,-0.4365612 2.31511,-0.5411672 0,-0.104606 -0.59531,-0.575942 -1.32292,-1.0474134 -1.30467,-0.8453984 -1.53357,-1.1358486 -1.10424,-1.4011885 0.37129,-0.2294698 3.42462,0.5933281 4.81348,1.297114 0.94473,0.4787336 1.31784,0.5675165 1.31784,0.3135843 0,-0.4467342 -2.28925,-3.7831209 -3.84635,-5.6057253 -1.13094,-1.323783 -1.44735,-1.986469 -0.94846,-1.986469 1.22982,0 5.5297,2.8548889 7.43318,4.9352323 1.69021,1.8472472 1.68574,1.7800155 -0.23134,-3.4800243 -0.74252,-2.037291 -1.88776,-4.584961 -2.54499,-5.661488 -0.65723,-1.076526 -1.13872,-2.01356 -1.06999,-2.082296 0.39466,-0.39466 1.75922,0.469904 3.57222,2.263298 1.68835,1.670096 2.28576,2.497583 3.28814,4.554445 1.12055,2.299357 1.22501,2.4320953 1.22584,1.557739 0.001,-1.14613 -1.09563,-6.562308 -1.81556,-8.966073 -0.72914,-2.434547 -1.20112,-3.675722 -1.98892,-5.230383 -1.37158,-2.706675 0.51538,-1.691848 2.50418,1.346773 0.55449,0.847191 1.28185,2.246175 1.61637,3.108854 0.33451,0.862678 0.6981,1.568506 0.80798,1.568506 0.10988,0 0.19979,-1.528767 0.19979,-3.397259 0,-3.846437 -0.50198,-6.333709 -1.88288,-9.32962 -1.05691,-2.292987 -0.916,-2.730292 0.47487,-1.473727 0.5914,0.534292 1.15013,0.97144 1.24164,0.97144 0.0915,0 0.16637,-1.017132 0.16637,-2.260293 v -2.260294 l -1.21888,-1.303082 c -1.20677,-1.290128 -2.021,-2.959817 -1.76663,-3.622694 0.21597,-0.562818 1.29795,-0.390154 1.96555,0.313667 0.34269,0.361288 0.71238,0.658944 0.82152,0.661458 0.10914,0.0025 0.19844,-0.53121 0.19844,-1.186054 0,-0.885361 -0.15263,-1.340299 -0.59532,-1.774404 -1.00529,-0.985818 -1.78593,-2.140925 -1.78593,-2.642624 0,-0.523251 0.90099,-0.652883 1.57486,-0.226586 0.65072,0.411649 0.79466,0.04669 0.41073,-1.041471 -0.3315,-0.939571 -0.32093,-1.098455 0.1083,-1.628537 0.43914,-0.542315 0.54154,-0.560092 1.33444,-0.231662 0.80816,0.334749 0.84923,0.415589 0.69648,1.370818 -0.14049,0.878607 -0.0945,1.015091 0.34167,1.015091 0.83472,0 0.84127,0.687732 0.0219,2.303279 -0.42765,0.843249 -0.77906,1.576639 -0.7809,1.629755 -0.002,0.05312 0.28806,-0.09437 0.64424,-0.327745 1.92946,-1.264232 1.96974,1.701682 0.054,3.973531 -0.56324,0.667925 -0.70156,1.104338 -0.70156,2.2136 v 1.381655 l 1.0591,-0.956829 c 1.16375,-1.051379 1.10468,-1.023672 1.69739,-0.79623 0.99605,0.382222 0.37893,1.941048 -1.64526,4.155804 -0.87754,0.960162 -1.12591,1.416071 -1.00898,1.852083 0.0853,0.318114 0.15674,1.79878 0.15872,3.290368 0.002,1.491589 0.0929,2.704534 0.20205,2.695435 0.10914,-0.0091 0.67469,-0.745673 1.25678,-1.636832 1.07136,-1.640246 1.80584,-2.317513 2.14522,-1.978131 0.10243,0.102428 -0.001,0.633998 -0.23018,1.181266 -0.22902,0.547268 -0.73198,1.747616 -1.11768,2.667439 -1.17443,2.800833 -1.98287,6.940657 -1.98559,10.167698 -0.001,1.564349 0.10071,2.844271 0.22674,2.844271 0.12603,0 0.5592,-0.922735 0.9626,-2.050521 1.41463,-3.954858 3.15235,-6.667681 5.08048,-7.931316 0.98572,-0.646015 1.22883,-0.146436 0.52313,1.075019 -1.02796,1.779234 -1.92831,4.292407 -2.95393,8.245359 -0.52859,2.037292 -1.02659,3.9274364 -1.10667,4.2003214 -0.25447,0.8670931 0.35336,0.2297636 1.1832,-1.2406386 1.5126,-2.6801848 5.08399,-6.0023908 6.4526,-6.0023908 0.64798,0 0.62499,0.07599 -0.54476,1.800455 -1.56165,2.302223 -4.22076,7.8615227 -3.90928,8.1729975 0.0696,0.069588 0.7511,-0.3671807 1.51448,-0.9705963 1.68997,-1.3358401 2.27493,-1.6459411 4.45281,-2.3605251 1.79631,-0.5893847 3.46203,-0.7316343 3.46203,-0.2956503 0,0.1436954 -0.50601,0.5765328 -1.12448,0.9618609 -1.37154,0.8545281 -3.9026,2.9713135 -3.9026,3.2638399 0,0.3341951 2.20722,0.8047016 3.77499,0.8047016 0.82393,0 2.2435,0.2787336 3.36876,0.6614583 1.06962,0.3638021 2.38969,0.6614583 2.93348,0.6614583 1.67885,0 5.00953,0.7436111 7.84829,1.7522142 2.11419,0.75116595 2.71198,1.07138128 2.71198,1.4527148 0,0.61262075 -0.23772,0.65936515 -5.15938,1.0145122 -10.0045,0.7219262 -12.16015,0.8417585 -19.33899,1.0750537 -8.34996,0.2713536 -8.93928,0.2704685 -16.51205,-0.024799 z"
         id="path5824" />
      <path
         style="fill:#aca792"
         d="m -147.90208,1.8448869 c -1.67349,-0.1294718 -4.82864,-0.4116633 -7.01145,-0.6270923 -2.18282,-0.215429 -5.05134,-0.46965635 -6.3745,-0.56494968 -3.58927,-0.25849647 -3.91127,-0.70909751 -1.22725,-1.71737012 0.83398,-0.31329 2.34977,-0.7317065 3.36841,-0.9298144 1.01865,-0.1981078 2.20927,-0.4819776 2.64584,-0.6308217 0.70051,-0.2388359 6.71134,-1.3435859 7.31031,-1.3435859 0.52954,0 0.14967,-0.4511431 -1.09312,-1.2981798 -0.72732,-0.4957177 -1.3224,-1.0179167 -1.3224,-1.1604424 0,-0.4638649 2.41302,0.050495 4.28518,0.9134289 0.99384,0.4580897 1.88365,0.7562174 1.97737,0.662506 0.23226,-0.2322671 -2.45716,-4.2212608 -3.99434,-5.9244645 -0.6866,-0.760756 -1.17783,-1.497324 -1.09162,-1.636816 0.47568,-0.769664 5.99034,2.7646433 7.67453,4.9185554 1.0963,1.4020474 1.63581,1.76851 1.39232,0.945725 -0.84111,-2.8422208 -3.30325,-8.9517384 -4.15505,-10.3102734 -0.5959,-0.950397 -1.0487,-1.826843 -1.00623,-1.947659 0.15803,-0.449586 1.9809,0.728882 3.5482,2.293891 1.16313,1.161426 1.96389,2.305668 2.84427,4.064318 0.67395,1.346281 1.22537,2.6072484 1.22537,2.8021493 0,0.1949008 0.13253,0.4362761 0.29452,0.5363896 0.60447,0.3735832 -0.46704,-6.0197619 -1.77685,-10.6018359 -0.37438,-1.309688 -1.08698,-3.261221 -1.58356,-4.336741 -1.04524,-2.263863 -1.017,-2.145551 -0.51214,-2.145551 0.84913,0 3.51723,4.092084 4.35594,6.680729 0.65986,2.036652 0.86548,1.087512 0.74514,-3.439583 -0.12441,-4.680138 -0.45715,-6.199964 -2.03414,-9.29113 -0.32129,-0.629775 -0.52652,-1.202685 -0.45607,-1.273134 0.21192,-0.211922 1.1562,0.39675 1.71232,1.103738 0.28689,0.364721 0.59378,0.66313 0.68198,0.66313 0.0882,0 0.16036,-1.083058 0.16036,-2.406795 v -2.406796 l -1.08492,-1.231225 c -1.3278,-1.506848 -1.88378,-2.539312 -1.77541,-3.296951 0.12455,-0.870744 0.85033,-0.834883 1.90861,0.0943 l 0.95172,0.835615 v -1.386882 c 0,-1.250282 -0.10424,-1.499971 -1.05834,-2.535039 -0.65153,-0.706835 -1.05833,-1.404676 -1.05833,-1.815526 0,-0.772263 0.2552,-0.822633 1.33606,-0.263701 0.88103,0.455601 0.91257,0.36189 0.45453,-1.350646 -0.29503,-1.103093 -0.2791,-1.253502 0.16736,-1.579959 0.70504,-0.515538 2.13771,0.206375 1.90413,0.959478 -0.0868,0.280018 -0.22627,0.727885 -0.30981,0.99526 -0.11854,0.379389 -0.0169,0.48106 0.46302,0.463021 0.53061,-0.01995 0.60947,0.09568 0.5752,0.84331 -0.0219,0.476533 -0.34927,1.272261 -0.72761,1.768284 -0.70172,0.920009 -0.87151,1.466333 -0.45569,1.466333 0.1277,0 0.3804,-0.178594 0.56156,-0.396875 0.43139,-0.519787 1.29676,-0.508324 1.49944,0.01986 0.25709,0.669973 -0.39827,2.426481 -1.28004,3.430761 -0.83181,0.947376 -1.27381,2.764512 -0.90575,3.723662 0.14645,0.381652 0.31156,0.301212 1.06089,-0.516874 1.51458,-1.653533 2.85555,-1.045016 1.84984,0.839433 -0.27753,0.520005 -1.0106,1.467887 -1.62907,2.106404 l -1.12448,1.160942 v 3.261369 c 0,4.329093 0.0946,4.515463 1.31809,2.596284 1.98231,-3.109506 3.08043,-3.331699 1.72962,-0.349968 -1.77439,3.916731 -2.31055,6.30223 -2.45303,10.914062 -0.0708,2.291953 -0.0252,4.166878 0.10132,4.1665 0.12652,-3.78e-4 0.57221,-0.982644 0.9904,-2.182813 1.13796,-3.265809 2.69868,-6.111757 4.0192,-7.328971 0.97225,-0.896186 1.96732,-1.383769 1.96732,-0.96398 0,0.05879 -0.47351,1.100582 -1.05224,2.315104 -1.12531,2.361538 -3.51052,10.5157216 -3.38747,11.5804974 0.06,0.5195363 0.27466,0.2719887 1.13242,-1.3061641 1.16077,-2.1356583 3.90204,-5.1061373 5.47966,-5.9378403 1.0561,-0.556766 1.57141,-0.397409 1.07299,0.331816 -1.76158,2.577302 -4.83286,8.6742176 -4.83286,9.5938944 0,0.1530193 0.68461,-0.2822747 1.52135,-0.9673201 2.07423,-1.6981762 5.67976,-3.2656916 7.54063,-3.2783124 0.7864,-0.00533 0.50867,0.6299372 -0.53611,1.2262864 -1.14845,0.6555244 -4.02795,3.0239792 -4.02795,3.3130827 0,0.3363474 1.91929,0.7461428 3.50179,0.7476816 0.95803,9.316e-4 2.37232,0.2832548 3.83646,0.7658399 1.27547,0.4204004 2.86995,0.7729486 3.54329,0.7834405 2.81874,0.043921 9.62366,2.1297173 9.62366,2.94977712698 0,0.51839744302 -1.04902,0.63555807302 -11.90625,1.32975367302 -9.67879,0.6188483 -26.20952,0.8929368 -31.08854,0.5154651 z"
         id="path5810" />
      <path
         style="fill:#9b916e"
         d="m -147.63749,1.6921205 c -3.6567,-0.3128638 -13.56159,-1.20128228 -14.74635,-1.32267314 -3.65098,-0.37407892 -1.18926,-1.37377966 8.39635,-3.40974336 1.67349,-0.3554459 3.42263,-0.6502258 3.88699,-0.6550665 1.60772,-0.01676 1.39481,-0.6673935 -0.72065,-2.2022178 l -0.6528,-0.4736249 1.23548,0.1079957 c 0.67952,0.059398 2.00701,0.4690358 2.94999,0.9103072 2.41925,1.1321068 2.60852,0.7661235 0.91074,-1.7611092 -0.74418,-1.1077608 -1.94616,-2.6997833 -2.67106,-3.5378275 -0.7249,-0.838045 -1.25255,-1.58916 -1.17257,-1.669146 0.54406,-0.544057 5.44359,2.7216339 7.43155,4.953357 0.81292,0.9126045 1.54043,1.5968926 1.61668,1.5206404 0.13348,-0.1334811 -1.98381,-6.3973924 -2.89772,-8.5728014 -0.24454,-0.582083 -0.84942,-1.728751 -1.34417,-2.548152 -0.49475,-0.8194 -0.89955,-1.552394 -0.89955,-1.628875 0,-0.518667 1.44702,0.451538 3.03977,2.038127 1.95061,1.943069 3.33802,4.234609 4.23285,6.991307 1.07947,3.3254881 1.00178,-0.415716 -0.12206,-5.877649 -0.61272,-2.977896 -1.96546,-7.268283 -2.8342,-8.989087 -0.35627,-0.705694 -0.58096,-1.349885 -0.49931,-1.431537 0.50584,-0.505837 2.95348,3.049671 4.01742,5.835799 0.40029,1.048246 0.81591,2.009561 0.92359,2.136257 0.36449,0.428863 0.57568,-2.281994 0.4386,-5.630046 -0.13713,-3.349193 -0.66388,-5.515805 -2.14473,-8.821664 -0.55721,-1.243936 -0.2079,-1.271117 0.85008,-0.06615 0.44719,0.509323 0.93578,0.926042 1.08574,0.926042 0.16797,0 0.27267,-0.96179 0.27267,-2.50471 v -2.50471 l -1.22309,-1.377132 c -1.26323,-1.422331 -2.08587,-2.972224 -1.81242,-3.414678 0.29541,-0.477987 1.02728,-0.251643 1.88997,0.584511 0.74822,0.725199 0.88732,0.776748 1.03781,0.384583 0.0956,-0.249075 0.11394,-0.98378 0.0408,-1.632677 -0.10282,-0.91221 -0.38037,-1.44819 -1.22365,-2.363046 -0.59987,-0.650779 -1.09067,-1.364489 -1.09067,-1.586021 0,-0.52128 0.77905,-0.515938 1.53064,0.0105 0.80713,0.56534 0.98777,0.04199 0.48113,-1.393966 -0.32046,-0.908287 -0.32612,-1.169073 -0.034,-1.568518 0.31546,-0.431414 0.42083,-0.441371 1.05861,-0.100041 0.51757,0.276993 0.67062,0.524405 0.56841,0.918839 -0.54212,2.09203 -0.54286,2.070109 0.0573,1.695302 1.27935,-0.798966 1.14497,0.358048 -0.33881,2.917277 -0.20192,0.348269 -0.30231,0.802118 -0.22309,1.008552 0.11065,0.288349 0.31498,0.211549 0.88169,-0.331392 1.82633,-1.749742 1.73407,1.309099 -0.10529,3.490316 -0.59157,0.701525 -0.70155,1.085189 -0.70155,2.447395 0,0.888499 0.0643,1.615452 0.14289,1.615452 0.0786,0 0.60754,-0.488449 1.17545,-1.085442 0.5679,-0.596993 1.18821,-1.034151 1.37846,-0.971463 0.96659,0.318495 0.14743,2.36814 -1.60848,4.024635 l -0.82374,0.777106 v 3.919248 c 0,2.160705 0.10739,3.919249 0.23933,3.919249 0.13163,0 0.59581,-0.625078 1.03151,-1.389062 0.85448,-1.498292 1.76942,-2.579688 2.1826,-2.579688 0.25173,0 0.10674,0.40984 -1.03828,2.934948 -1.00786,2.222627 -1.91189,6.093323 -2.0699,8.862472 -0.16322,2.860535 0.0856,5.871645 0.45426,5.496758 0.12361,-0.125704 0.63614,-1.367751 1.13897,-2.760104 0.50283,-1.392353 1.23489,-3.164335 1.6268,-3.937738 0.78363,-1.546426 2.91353,-3.981753 3.48238,-3.981753 0.46811,0 0.48458,-0.06861 -0.41846,1.743678 -0.42852,0.859988 -1.07937,2.516849 -1.44634,3.681914 -0.92835,2.947381 -2.57542,9.4408818 -2.43124,9.5850669 0.12898,0.1289771 0.97001,-1.136317 2.15141,-3.2366999 1.24384,-2.211406 5.28946,-5.902987 5.8523,-5.340152 0.095,0.09504 -0.25196,0.812521 -0.7711,1.594403 -1.65011,2.485259 -4.40557,8.4865696 -4.05671,8.8354269 0.0791,0.079148 0.63419,-0.2990379 1.23343,-0.8404141 1.63428,-1.4764746 3.3623,-2.4890044 5.23618,-3.0681308 2.79523,-0.8638702 3.86538,-0.6055477 1.95651,0.4722795 -1.43597,0.8108065 -3.8943,3.0912975 -3.68953,3.4226239 0.26373,0.426713 2.23606,0.8417894 4.02026,0.8460601 1.04948,0.00251 2.19481,0.232587 3.37948,0.6788723 0.98558,0.3712898 2.3548,0.6776491 3.0427,0.6807985 2.29654,0.010514 8.84757,1.7967367 9.69404,2.64320128 0.50168,0.5016865 -1.25406,0.73826409 -9.76622,1.31595052 -6.3966,0.4341116 -11.77337,0.612204 -20.10833,0.66604 -6.2574,0.040417 -11.91287,0.027644 -12.56771,-0.028384 z"
         id="path5800" />
      <path
         style="fill:#a2518e"
         d="m -137.31677,-47.355661 c -0.54839,-1.323911 0.0941,-2.041135 1.13013,-1.261523 0.405,0.304773 0.40637,0.398216 0.0175,1.190625 -0.52193,1.063606 -0.73111,1.076528 -1.14765,0.0709 z"
         id="path5790" />
      <path
         style="fill:#a2518e"
         d="m -145.65312,1.667557 c -0.87312,-0.046459 -4.20687,-0.3184257 -7.40833,-0.6043692 -3.20146,-0.28594351 -6.86589,-0.59924337 -8.14317,-0.6962219 -1.27729,-0.0969785 -2.38624,-0.27971335 -2.46434,-0.40607737 -0.21012,-0.33997967 2.13934,-1.27581983 4.25751,-1.69585673 1.01865,-0.2019995 2.31829,-0.5006215 2.8881,-0.6636045 0.5698,-0.1629829 2.52631,-0.5588821 4.3478,-0.8797761 1.82148,-0.320894 3.35724,-0.7198075 3.41279,-0.8864746 0.0556,-0.166667 -0.38291,-0.6232724 -0.97436,-1.0146785 -2.16349,-1.4317308 -0.64839,-1.4915451 2.20803,-0.087171 1.75559,0.8631426 2.22434,0.938433 2.43441,0.3910088 0.16847,-0.439018 -2.01908,-3.777393 -3.75878,-5.7362029 -0.65915,-0.742169 -1.14798,-1.399883 -1.08627,-1.461584 0.5025,-0.502509 4.9975,2.5927467 7.02077,4.8345025 0.88772,0.9835813 1.70087,1.7014887 1.80701,1.5953497 0.41013,-0.4101237 -2.58989,-8.6928232 -4.02417,-11.1102572 -0.50263,-0.847174 -0.91387,-1.594372 -0.91387,-1.660441 0,-0.372076 1.6596,0.857188 2.95464,2.188498 1.66858,1.715312 3.22751,4.365054 3.89909,6.6273271 0.24351,0.8202676 0.60578,1.5457425 0.80505,1.6121665 0.29654,0.098847 0.33091,-0.2877521 0.18933,-2.1296506 -0.30587,-3.979362 -1.7249,-9.867364 -3.25999,-13.526777 -0.35762,-0.852515 -0.59543,-1.604815 -0.52847,-1.671778 0.21186,-0.211864 1.99095,2.303397 2.72148,3.847625 0.38616,0.816272 0.90498,2.080955 1.15292,2.810406 0.24795,0.729451 0.55852,1.266743 0.69015,1.193983 0.13164,-0.07276 0.23934,-2.334948 0.23934,-5.027083 0,-4.820711 -0.0125,-4.928829 -0.82396,-7.14375 -0.45318,-1.236927 -0.91062,-2.487083 -1.01652,-2.778126 -0.13481,-0.370499 0.0516,-0.271332 0.6218,0.330729 0.44789,0.472943 0.93509,0.859896 1.08266,0.859896 0.1645,0 0.26831,-1.0861 0.26831,-2.807174 v -2.807174 l -1.29075,-1.412288 c -1.3068,-1.429849 -1.85357,-2.634878 -1.40092,-3.087524 0.32498,-0.32498 1.23705,0.245562 1.66205,1.039692 0.62426,1.166437 1.02962,0.734983 1.02962,-1.095898 0,-1.60746 -0.0598,-1.772776 -1.05833,-2.926509 -1.49889,-1.731831 -1.41783,-2.627265 0.12777,-1.411492 0.66781,0.525303 0.74904,0.535828 0.97798,0.126727 0.13733,-0.245386 0.36893,-0.372457 0.51468,-0.282381 0.14575,0.09008 0.49313,-0.04269 0.77197,-0.295033 0.44617,-0.403773 0.52573,-0.409959 0.66325,-0.05157 0.16089,0.419272 -0.72197,2.409854 -1.19979,2.705163 -0.29886,0.184704 -0.37421,1.722129 -0.0844,1.722129 0.10117,0 0.51868,-0.320684 0.92778,-0.712631 1.68796,-1.617165 1.51638,0.807255 -0.21735,3.071156 -0.77814,1.016098 -0.89439,1.366566 -0.89439,2.696365 0,0.858409 0.13218,1.610157 0.30152,1.714815 0.17642,0.109035 0.67951,-0.268697 1.21257,-0.910426 0.83913,-1.010205 1.92549,-1.47378 1.92549,-0.821655 0,0.611139 -1.07655,2.299439 -2.09425,3.284301 l -1.08075,1.045884 0.004,3.848909 c 0.002,2.116899 0.10906,4.014741 0.23741,4.217427 0.17707,0.279633 0.40634,0.08818 0.95056,-0.79375 1.33819,-2.168634 1.85015,-2.878441 2.07743,-2.880253 0.12471,-9.95e-4 0.16148,0.14702 0.0817,0.328921 -2.25684,5.146279 -2.85491,7.916647 -2.76299,12.798857 0.0478,2.538743 0.17467,3.926272 0.36479,3.989432 0.16451,0.05465 0.72724,-1.146137 1.29175,-2.756402 1.48405,-4.233279 2.87312,-6.697384 4.30398,-7.634915 0.86989,-0.569973 0.98097,-0.352194 0.3639,0.713432 -0.81204,1.402312 -2.07212,5.237149 -3.21644,9.788678 -1.17578,4.6766398 -1.13757,4.4660214 -0.81012,4.4660214 0.1321,0 0.81671,-1.0376718 1.52135,-2.3059372 1.71215,-3.0816702 5.68613,-7.2679082 6.30855,-6.6454962 0.0734,0.07336 -0.45169,1.106869 -1.16678,2.296675 -1.08793,1.810143 -3.72832,7.5317178 -3.72832,8.079057 0,0.4406448 0.72567,0.05181 1.82852,-0.9797742 0.67206,-0.6286365 1.75597,-1.4524481 2.40869,-1.8306923 1.25336,-0.7263178 4.95444,-1.9458004 5.19012,-1.7101165 0.0763,0.076338 -0.55507,0.6424005 -1.40312,1.2579168 -1.91851,1.3924523 -3.26171,2.6424762 -3.26171,3.0354533 0,0.3912949 2.32054,0.9195809 4.03933,0.9195809 0.74422,0 2.31271,0.2907409 3.48554,0.6460909 1.17283,0.35535 3.26352,0.7856404 4.64597,0.9562008 3.64292,0.4494486 8.59836,2.07601019 8.03649,2.63788087 -0.28868,0.28868021 -12.76413,1.17344303 -22.1917,1.57384303 -5.8647,0.2490804 -14.18797,0.2892689 -17.99167,0.086872 z"
         id="path5787" />
      <path
         style="fill:#8c6c60"
         d="m -137.31677,-47.355661 c -0.54839,-1.323911 0.0941,-2.041135 1.13013,-1.261523 0.405,0.304773 0.40637,0.398216 0.0175,1.190625 -0.52193,1.063606 -0.73111,1.076528 -1.14765,0.0709 z"
         id="path5778" />
      <path
         style="fill:#8c6c60"
         d="m -145.65312,1.667557 c -0.87312,-0.046459 -4.20687,-0.3184257 -7.40833,-0.6043692 -3.20146,-0.28594351 -6.86589,-0.59924337 -8.14317,-0.6962219 -1.27729,-0.0969785 -2.38624,-0.27971335 -2.46434,-0.40607737 -0.21012,-0.33997967 2.13934,-1.27581983 4.25751,-1.69585673 1.01865,-0.2019995 2.31829,-0.5006215 2.8881,-0.6636045 0.5698,-0.1629829 2.52631,-0.5588821 4.3478,-0.8797761 1.82148,-0.320894 3.35724,-0.7198075 3.41279,-0.8864746 0.0556,-0.166667 -0.38291,-0.6232724 -0.97436,-1.0146785 -2.16349,-1.4317308 -0.64839,-1.4915451 2.20803,-0.087171 1.75559,0.8631426 2.22434,0.938433 2.43441,0.3910088 0.16847,-0.439018 -2.01908,-3.777393 -3.75878,-5.7362029 -0.65915,-0.74217 -1.14798,-1.399883 -1.08627,-1.461584 0.5025,-0.502509 4.9975,2.5927467 7.02077,4.8345025 0.88772,0.9835813 1.70087,1.7014887 1.80701,1.5953497 0.41013,-0.4101237 -2.58989,-8.6928232 -4.02417,-11.1102582 -0.50263,-0.847174 -0.91387,-1.594372 -0.91387,-1.66044 0,-0.372076 1.6596,0.857188 2.95464,2.188497 1.66858,1.715313 3.22751,4.365055 3.89909,6.6273281 0.24351,0.8202676 0.60578,1.5457425 0.80505,1.6121665 0.29654,0.098847 0.33091,-0.2877521 0.18933,-2.1296516 -0.30587,-3.979361 -1.7249,-9.867364 -3.25999,-13.526777 -0.35762,-0.852515 -0.59543,-1.604815 -0.52847,-1.671778 0.21186,-0.211864 1.99095,2.303397 2.72148,3.847625 0.38616,0.816272 0.90498,2.080955 1.15292,2.810406 0.24795,0.729451 0.55852,1.266743 0.69015,1.193983 0.13164,-0.07276 0.23934,-2.334948 0.23934,-5.027083 0,-4.820711 -0.0125,-4.928829 -0.82396,-7.14375 -0.45318,-1.236927 -0.91062,-2.487083 -1.01652,-2.778125 -0.13481,-0.370499 0.0516,-0.271332 0.6218,0.330729 0.44789,0.472943 0.93509,0.859896 1.08266,0.859896 0.1645,0 0.26831,-1.0861 0.26831,-2.807174 v -2.807174 l -1.29075,-1.412288 c -1.3068,-1.429849 -1.85357,-2.634878 -1.40092,-3.087524 0.32498,-0.32498 1.23705,0.245562 1.66205,1.039692 0.62426,1.166437 1.02962,0.734983 1.02962,-1.095898 0,-1.60746 -0.0598,-1.772776 -1.05833,-2.926509 -1.49889,-1.731831 -1.41783,-2.627265 0.12777,-1.411492 0.66781,0.525303 0.74904,0.535828 0.97798,0.126727 0.13733,-0.245386 0.36893,-0.372457 0.51468,-0.282381 0.14575,0.09008 0.49313,-0.04269 0.77197,-0.295033 0.44617,-0.403773 0.52573,-0.409959 0.66325,-0.05157 0.16089,0.419272 -0.72197,2.409854 -1.19979,2.705163 -0.29886,0.184704 -0.37421,1.722129 -0.0844,1.722129 0.10117,0 0.51868,-0.320684 0.92778,-0.712631 1.68796,-1.617165 1.51638,0.807255 -0.21735,3.071156 -0.77814,1.016098 -0.89439,1.366566 -0.89439,2.696364 0,0.858409 0.13218,1.610158 0.30152,1.714816 0.17642,0.109035 0.67951,-0.268697 1.21257,-0.910427 0.83913,-1.010204 1.92549,-1.47378 1.92549,-0.821655 0,0.61114 -1.07655,2.29944 -2.09425,3.284302 l -1.08075,1.045884 0.004,3.848908 c 0.002,2.116899 0.10906,4.014741 0.23741,4.217427 0.17707,0.279633 0.40634,0.08818 0.95056,-0.79375 1.33819,-2.168634 1.85015,-2.878441 2.07743,-2.880253 0.12471,-9.95e-4 0.16148,0.14702 0.0817,0.328921 -2.25684,5.146279 -2.85491,7.916647 -2.76299,12.798857 0.0478,2.538743 0.17467,3.926272 0.36479,3.989432 0.16451,0.05465 0.72724,-1.146137 1.29175,-2.756401 1.48405,-4.23328 2.87312,-6.697385 4.30398,-7.634916 0.86989,-0.569973 0.98097,-0.352194 0.3639,0.713432 -0.81204,1.402312 -2.07212,5.23715 -3.21644,9.788678 -1.17578,4.6766408 -1.13757,4.4660224 -0.81012,4.4660224 0.1321,0 0.81671,-1.0376718 1.52135,-2.3059372 1.71215,-3.0816712 5.68613,-7.2679092 6.30855,-6.6454972 0.0734,0.07336 -0.45169,1.106869 -1.16678,2.296675 -1.08793,1.810143 -3.72832,7.5317188 -3.72832,8.079058 0,0.4406448 0.72567,0.05181 1.82852,-0.9797742 0.67206,-0.6286365 1.75597,-1.4524481 2.40869,-1.8306923 1.25336,-0.7263178 4.95444,-1.9458004 5.19012,-1.7101165 0.0763,0.076338 -0.55507,0.6424005 -1.40312,1.2579168 -1.91851,1.3924523 -3.26171,2.6424762 -3.26171,3.0354533 0,0.3912949 2.32054,0.9195809 4.03933,0.9195809 0.74422,0 2.31271,0.2907409 3.48554,0.6460909 1.17283,0.35535 3.26352,0.7856404 4.64597,0.9562008 3.64292,0.4494486 8.59836,2.07601019 8.03649,2.63788087 -0.28868,0.28868021 -12.76413,1.17344303 -22.1917,1.57384303 -5.8647,0.2490804 -14.18797,0.2892689 -17.99167,0.086872 z"
         id="path5775" />
      <path
         style="fill:#6b8842"
         d="m -137.31677,-47.355661 c -0.54839,-1.323911 0.0941,-2.041135 1.13013,-1.261523 0.405,0.304773 0.40637,0.398216 0.0175,1.190625 -0.52193,1.063606 -0.73111,1.076528 -1.14765,0.0709 z"
         id="path5764" />
      <path
         style="fill:#6b8842"
         d="m -147.37291,1.4347104 c -0.50932,-0.055556 -3.9026,-0.3490234 -7.54062,-0.6521492 -3.63802,-0.30312582 -7.09084,-0.64321138 -7.67292,-0.75574568 l -1.05833,-0.20460783 1.24771,-0.55927569 c 0.68624,-0.3076016 1.99593,-0.6923631 2.91042,-0.8550255 0.91448,-0.1626625 2.25801,-0.4643098 2.98562,-0.6703274 1.63725,-0.4635818 5.35539,-1.1770532 6.13433,-1.1771143 0.31795,-2.49e-5 0.91327,-0.1282471 1.32292,-0.2849383 l 0.74483,-0.2848929 -0.71313,-0.6160082 c -0.39222,-0.3388045 -0.98035,-0.8031766 -1.30696,-1.031938 -0.3266,-0.2287614 -0.51942,-0.4903302 -0.42848,-0.581264 0.21736,-0.2173636 2.75294,0.6121563 3.80272,1.2440678 1.00833,0.6069678 1.95314,0.6494259 1.95314,0.087771 0,-0.5133212 -2.1904,-3.7769168 -3.80248,-5.6655142 -0.67037,-0.785362 -1.17601,-1.470785 -1.12363,-1.523161 0.46378,-0.463786 5.1044,2.7574758 7.00299,4.8611003 1.00814,1.1170072 1.70839,1.6964942 1.85739,1.5370778 0.29745,-0.3182489 -2.21063,-7.4090531 -3.59997,-10.1777621 -0.54767,-1.091406 -1.03545,-2.073672 -1.08395,-2.182812 -0.27341,-0.615166 0.68117,0.0031 2.2036,1.427276 1.91748,1.793712 3.38337,4.143308 4.25978,6.8277664 0.84536,2.5894067 1.28923,2.4602171 1.07605,-0.3131894 -0.30587,-3.979361 -1.7249,-9.867364 -3.25999,-13.526777 -0.35762,-0.852515 -0.59543,-1.604815 -0.52847,-1.671778 0.21186,-0.211864 1.99095,2.303397 2.72148,3.847625 0.38616,0.816272 0.90498,2.080955 1.15292,2.810406 0.24795,0.729451 0.55852,1.266743 0.69015,1.193983 0.13164,-0.07276 0.23934,-2.334948 0.23934,-5.027083 0,-4.820711 -0.0125,-4.928829 -0.82396,-7.14375 -0.45318,-1.236927 -0.91062,-2.487083 -1.01652,-2.778125 -0.13481,-0.370499 0.0516,-0.271332 0.6218,0.330729 0.44789,0.472943 0.93509,0.859896 1.08266,0.859896 0.1645,0 0.26831,-1.0861 0.26831,-2.807174 v -2.807174 l -1.29075,-1.412288 c -1.3068,-1.429849 -1.85357,-2.634878 -1.40092,-3.087524 0.32498,-0.32498 1.23705,0.245562 1.66205,1.039692 0.62426,1.166437 1.02962,0.734983 1.02962,-1.095898 0,-1.60746 -0.0598,-1.772776 -1.05833,-2.926509 -1.49889,-1.731831 -1.41783,-2.627265 0.12777,-1.411492 0.66781,0.525303 0.74904,0.535828 0.97798,0.126727 0.13733,-0.245386 0.36893,-0.372457 0.51468,-0.282381 0.14575,0.09008 0.49313,-0.04269 0.77197,-0.295033 0.44617,-0.403773 0.52573,-0.409959 0.66325,-0.05157 0.16089,0.419272 -0.72197,2.409854 -1.19979,2.705163 -0.29886,0.184704 -0.37421,1.722129 -0.0844,1.722129 0.10117,0 0.51868,-0.320684 0.92778,-0.712631 1.68796,-1.617165 1.51638,0.807255 -0.21735,3.071156 -0.77814,1.016098 -0.89439,1.366566 -0.89439,2.696364 0,0.858409 0.13218,1.610158 0.30152,1.714816 0.17642,0.109035 0.67951,-0.268697 1.21257,-0.910427 0.83913,-1.010204 1.92549,-1.47378 1.92549,-0.821655 0,0.61114 -1.07655,2.29944 -2.09425,3.284302 l -1.08075,1.045884 0.004,3.848908 c 0.002,2.116899 0.10906,4.014741 0.23741,4.217427 0.17707,0.279633 0.40634,0.08818 0.95056,-0.79375 1.30437,-2.113827 1.84834,-2.878424 2.04913,-2.880253 0.28115,-0.0026 0.27203,0.03051 -0.47273,1.714544 -1.07541,2.431708 -1.98174,5.902706 -2.21167,8.470106 -0.25079,2.800394 -0.0225,6.795336 0.39621,6.933331 0.1644,0.05419 0.72586,-1.147901 1.28778,-2.757172 1.25806,-3.602929 2.32519,-5.637123 3.65463,-6.966566 1.31362,-1.313618 1.66944,-1.332429 1.01884,-0.05386 -1.27159,2.498911 -4.55395,13.8916857 -4.1257,14.3199298 0.21735,0.2173547 0.71506,-0.4835261 1.98239,-2.7916621 1.14412,-2.0837217 3.48044,-4.7723597 4.92022,-5.6621987 0.50603,-0.312739 0.97069,-0.517973 1.03259,-0.456075 0.0619,0.0619 -0.43765,0.996643 -1.11011,2.077211 -1.07459,1.726761 -3.13481,6.1648914 -3.64804,7.8586281 -0.27492,0.9072818 0.39739,0.7478463 1.45702,-0.3455248 1.78474,-1.8415876 5.53458,-3.6866867 7.11486,-3.5008514 0.61042,0.071783 0.58808,0.1151301 -0.39687,0.7701764 -1.58217,1.0522288 -3.55724,2.8772092 -3.55724,3.2869252 0,0.4931838 1.92386,0.9940466 3.67947,0.9579239 0.91391,-0.018804 2.15604,0.2182804 3.43958,0.6565094 1.10499,0.3772685 3.02111,0.785924 4.25804,0.9081232 2.58863,0.2557382 5.63204,0.9968722 7.54062,1.83630227 1.14713,0.50452989 1.2526,0.61174506 0.79375,0.80687521 -1.30472,0.55483964 -17.6167,1.36624912 -28.97187,1.44115192 -6.33016,0.041756 -11.9261,0.030465 -12.43542,-0.025091 z"
         id="path5762" />
      <path
         style="fill:#6b654c"
         d="m -137.96604,-44.582288 c -0.5366,-0.654844 -0.86318,-1.190625 -0.72573,-1.190625 0.13744,0 0.39812,0.178594 0.57928,0.396875 0.37474,0.451539 1.21092,0.527555 1.45521,0.132291 0.0899,-0.14552 0.39078,-0.264583 0.66854,-0.264583 0.37694,0 0.45686,0.117437 0.31512,0.463021 -0.28043,0.683696 -0.95363,1.653646 -1.14773,1.653646 -0.093,0 -0.6081,-0.535781 -1.14469,-1.190625 z"
         id="path5747" />
      <path
         style="fill:#6b654c"
         d="m -137.49687,-37.634144 c -0.8885,-0.983662 -1.9393,-2.677452 -1.92753,-3.106959 0.007,-0.247022 0.34855,-0.0197 0.88794,0.590586 1.18137,1.336649 1.74688,1.315236 1.74688,-0.06615 0,-0.822704 0.10088,-1.058334 0.45309,-1.058334 0.24919,0 0.72116,-0.327421 1.04881,-0.727604 0.48192,-0.588591 0.59756,-0.637127 0.60525,-0.254043 0.0121,0.601701 -0.88024,2.364447 -1.42635,2.817682 -0.22892,0.189984 -0.41804,0.658269 -0.42026,1.040633 -0.007,1.172919 -0.35228,1.445672 -0.96783,0.764185 z"
         id="path5746" />
      <path
         style="fill:#6b654c"
         d="m -137.1949,-29.924547 c -0.097,-0.30569 -0.0455,-0.68669 0.11446,-0.846667 0.15997,-0.159976 0.29086,-1.108514 0.29086,-2.107862 0,-1.635576 0.048,-1.801762 0.48074,-1.664417 0.3103,0.09848 0.70186,-0.0828 1.10445,-0.511337 0.34305,-0.365154 0.72203,-0.663917 0.84218,-0.663917 0.46887,0 0.1691,0.567083 -0.98916,1.871231 -0.85277,0.960167 -1.1944,1.565315 -1.16259,2.059353 0.13814,2.145729 -0.25228,3.214228 -0.68094,1.863616 z"
         id="path5745" />
      <path
         style="fill:#6b654c"
         d="m -147.37291,1.4347104 c -0.50932,-0.055556 -3.9026,-0.3490234 -7.54062,-0.6521492 -3.63802,-0.30312582 -7.09084,-0.64321138 -7.67292,-0.75574568 l -1.05833,-0.20460783 1.24771,-0.55927569 c 0.68624,-0.3076016 1.99593,-0.6939213 2.91042,-0.8584881 0.91448,-0.1645669 2.49614,-0.520745 3.51478,-0.7915069 1.01865,-0.270762 2.80459,-0.6330007 3.96875,-0.804975 3.89057,-0.5747258 4.19365,-0.8194338 2.45586,-1.9828138 -1.62721,-1.0893517 -0.66509,-1.1748506 1.55098,-0.1378271 1.86636,0.8733731 2.86729,1.025095 3.08142,0.4670818 0.17742,-0.4623387 -1.70688,-3.4010606 -3.50765,-5.4704839 -1.2025,-1.381897 -1.33638,-1.628072 -0.79375,-1.459523 0.89262,0.27726 4.64734,2.9390632 5.5648,3.945008 0.4109,0.4505273 1.03259,1.1665005 1.38154,1.5910515 0.41822,0.5088301 0.78128,0.7155677 1.06527,0.6065929 0.3939,-0.1511526 0.39577,-0.262637 0.0219,-1.3010776 -0.22492,-0.6246678 -0.68889,-2.0882595 -1.03106,-3.2524258 -0.70433,-2.39636 -1.85842,-5.080897 -2.88001,-6.699193 -0.88359,-1.399702 -0.86942,-1.504694 0.1245,-0.922537 2.05773,1.205235 4.30269,4.550777 5.64479,8.4121099 0.37702,1.0846953 0.70919,1.6145899 1.0536,1.6807432 0.47496,0.091229 0.49441,-0.04864 0.34904,-2.5101721 -0.21292,-3.605583 -1.52021,-9.435795 -2.85754,-12.743953 -0.1361,-0.336692 -0.14292,-0.547558 -0.0152,-0.46859 0.3998,0.247092 2.09464,3.918416 2.55838,5.54191 0.38352,1.342672 0.49357,1.500112 0.82025,1.173436 0.28122,-0.281221 0.42243,-1.518309 0.55452,-4.858027 0.0994,-2.513604 0.24788,-4.070232 0.33819,-3.545699 0.1998,1.160506 0.4487,1.578513 0.93993,1.578513 0.50867,0 0.48281,0.465423 -0.0558,1.004014 -0.3889,0.388909 -0.4188,1.023649 -0.27138,5.762584 0.23216,7.4627994 0.47242,7.7926749 2.18641,3.001996 1.34083,-3.747677 2.46055,-5.964369 3.52135,-6.97118 1.01094,-0.959493 1.2771,-0.773047 0.58584,0.410386 -0.28697,0.491283 -0.83614,1.72668 -1.22038,2.745325 -0.71569,1.897343 -3.04187,10.394057 -3.04187,11.1108802 0,1.0121192 0.82025,0.1906169 2.0077,-2.0107732 1.37313,-2.545608 3.73552,-5.374645 5.29071,-6.335808 0.51233,-0.316635 0.97628,-0.530924 1.03101,-0.476197 0.0547,0.05473 -0.44759,0.991043 -1.11625,2.080701 -1.64528,2.68115 -4.14032,8.4671696 -3.79857,8.8089209 0.17296,0.172964 0.78072,-0.2120498 1.7882,-1.1328301 1.92217,-1.7567557 2.97856,-2.4232602 5.02139,-3.1681136 2.30145,-0.8391478 2.88721,-0.6313051 1.23485,0.4381518 -1.94953,1.2617957 -3.64261,2.8428303 -3.42366,3.1970927 0.29039,0.4698718 2.25509,0.9263413 3.84617,0.893604 0.91391,-0.018804 2.15604,0.2182804 3.43958,0.6565094 1.10499,0.3772685 3.02111,0.785924 4.25804,0.9081232 2.58863,0.2557382 5.63204,0.9968722 7.54062,1.83630227 1.14713,0.50452989 1.2526,0.61174506 0.79375,0.80687521 -1.30472,0.55483964 -17.6167,1.36624912 -28.97187,1.44115192 -6.33016,0.041756 -11.9261,0.030465 -12.43542,-0.025091 z"
         id="path5743" />
      <path
         style="fill:#89572b"
         d="m -137.96604,-44.582288 c -0.5366,-0.654844 -0.86318,-1.190625 -0.72573,-1.190625 0.13744,0 0.39812,0.178594 0.57928,0.396875 0.37474,0.451539 1.21092,0.527555 1.45521,0.132291 0.0899,-0.14552 0.39078,-0.264583 0.66854,-0.264583 0.37694,0 0.45686,0.117437 0.31512,0.463021 -0.28043,0.683696 -0.95363,1.653646 -1.14773,1.653646 -0.093,0 -0.6081,-0.535781 -1.14469,-1.190625 z"
         id="path5728" />
      <path
         style="fill:#89572b"
         d="m -137.49687,-37.634144 c -0.8885,-0.983662 -1.9393,-2.677452 -1.92753,-3.106959 0.007,-0.247022 0.34855,-0.0197 0.88794,0.590586 1.18137,1.336649 1.74688,1.315236 1.74688,-0.06615 0,-0.822704 0.10088,-1.058334 0.45309,-1.058334 0.24919,0 0.72116,-0.327421 1.04881,-0.727604 0.48192,-0.588591 0.59756,-0.637127 0.60525,-0.254043 0.0121,0.601701 -0.88024,2.364447 -1.42635,2.817682 -0.22892,0.189984 -0.41804,0.658269 -0.42026,1.040633 -0.007,1.172919 -0.35228,1.445672 -0.96783,0.764185 z"
         id="path5727" />
      <path
         style="fill:#89572b"
         d="m -137.1949,-29.924547 c -0.097,-0.30569 -0.0455,-0.68669 0.11446,-0.846667 0.15997,-0.159976 0.29086,-1.108514 0.29086,-2.107862 0,-1.635576 0.048,-1.801762 0.48074,-1.664417 0.3103,0.09848 0.70186,-0.0828 1.10445,-0.511337 0.34305,-0.365154 0.72203,-0.663917 0.84218,-0.663917 0.46742,0 0.17069,0.565292 -0.97216,1.852084 -1.12829,1.270397 -1.19062,1.423227 -1.19062,2.919248 0,1.571599 -0.33393,2.081462 -0.66991,1.022868 z"
         id="path5726" />
      <path
         style="fill:#89572b"
         d="m -146.18228,1.3221864 c -5.73056,-0.36236944 -16.80105,-1.42736261 -16.80105,-1.61627969 0,-0.23755508 2.14173,-0.94229981 3.57188,-1.17534071 0.58208,-0.09485 1.698,-0.3515003 2.47982,-0.5703342 0.78182,-0.218834 2.97805,-0.6635623 4.88051,-0.9882852 2.24331,-0.3829008 3.50088,-0.7160027 3.57814,-0.9477629 0.0655,-0.1965467 -0.34478,-0.7603481 -0.91176,-1.2528921 -0.89746,-0.7796355 -0.94527,-0.8735845 -0.36942,-0.7259308 0.3638,0.093282 1.39373,0.5305271 2.28873,0.9716559 1.64533,0.8109483 2.73835,0.8467872 2.73835,0.089787 0,-0.5107235 -2.53002,-4.3108267 -3.65301,-5.4868397 -0.51854,-0.543032 -0.86417,-1.065974 -0.76805,-1.162093 0.32638,-0.326376 4.45351,2.6312195 5.89595,4.2251643 0.78954,0.8724713 1.43553,1.6850842 1.43553,1.8058064 0,0.3658628 0.8004,0.2454336 0.9494,-0.1428475 0.2091,-0.5449021 -2.18093,-7.3821872 -3.5086,-10.0372282 -1.33947,-2.678642 -1.08223,-2.730591 1.27644,-0.257777 1.59851,1.675868 3.06065,4.296011 3.76941,6.7547434 0.35601,1.2350273 0.54399,1.5213541 0.9988,1.5213541 0.54273,0 0.55548,-0.080685 0.4078,-2.5796875 -0.21156,-3.580029 -1.52297,-9.419201 -2.85605,-12.716856 -0.1361,-0.336692 -0.14292,-0.547558 -0.0152,-0.46859 0.39503,0.244141 2.09219,3.909813 2.54578,5.498577 0.29632,1.037915 0.54013,1.465277 0.78282,1.372148 0.52801,-0.202616 0.67332,-1.358837 0.70686,-5.624602 0.0177,-2.245459 0.10732,-3.477093 0.21364,-2.934503 0.22985,1.172993 0.47703,1.578513 0.96217,1.578513 0.49461,0 0.48714,0.461084 -0.0156,0.96384 -0.32467,0.324672 -0.39635,1.295973 -0.39396,5.338913 0.003,5.369969 0.15171,6.926414 0.66106,6.926414 0.36331,0 0.48222,-0.26245 1.84079,-4.062809 1.15099,-3.219707 2.04367,-4.887109 3.23039,-6.033913 l 0.91423,-0.883486 -0.57481,1.322916 c -0.31614,0.727605 -0.80774,1.977761 -1.09245,2.778125 -0.68957,1.938482 -2.86546,10.1746385 -2.86546,10.8462972 0,1.1506796 0.76853,0.4170244 2.0077,-1.9166092 0.98428,-1.853589 1.83887,-2.993056 3.52223,-4.696354 1.22245,-1.236927 2.26824,-2.1179 2.32399,-1.957716 0.0557,0.160183 -0.42542,1.145642 -1.06925,2.189908 -0.64384,1.044266 -1.73831,3.2695939 -2.43216,4.945172 -1.59639,3.8550787 -1.40042,4.2788777 0.98173,2.1231497 1.81466,-1.6421691 4.26727,-2.9875097 5.91704,-3.2457048 l 1.05184,-0.164616 -1.5875,1.2051385 c -2.02591,1.5379584 -2.88109,2.4567798 -2.70755,2.9090368 0.17697,0.4611522 2.47666,0.9914649 4.29947,0.9914649 0.84849,0 2.1567,0.26601 3.25297,0.6614584 1.00855,0.363802 2.29556,0.6614787 2.86004,0.6615036 2.27163,1.004e-4 9.3607,1.8184486 9.3607,2.40102024 0,0.2614184 -1.91515,0.44663848 -9.39271,0.90839871 -13.90094,0.85842185 -24.07768,1.07678485 -30.69166,0.65855265 z"
         id="path5723" />
      <path
         style="fill:#565d30"
         d="m -137.96604,-44.582288 c -0.5366,-0.654844 -0.86318,-1.190625 -0.72573,-1.190625 0.13744,0 0.39812,0.178594 0.57928,0.396875 0.37474,0.451539 1.21092,0.527555 1.45521,0.132291 0.0899,-0.14552 0.39078,-0.264583 0.66854,-0.264583 0.37694,0 0.45686,0.117437 0.31512,0.463021 -0.28043,0.683696 -0.95363,1.653646 -1.14773,1.653646 -0.093,0 -0.6081,-0.535781 -1.14469,-1.190625 z"
         id="path5705" />
      <path
         style="fill:#565d30"
         d="m -137.49687,-37.634144 c -0.8885,-0.983662 -1.9393,-2.677452 -1.92753,-3.106959 0.007,-0.247022 0.34855,-0.0197 0.88794,0.590586 1.18137,1.336649 1.74688,1.315236 1.74688,-0.06615 0,-0.822704 0.10088,-1.058334 0.45309,-1.058334 0.24919,0 0.72116,-0.327421 1.04881,-0.727604 0.48192,-0.588591 0.59756,-0.637127 0.60525,-0.254043 0.0121,0.601701 -0.88024,2.364447 -1.42635,2.817682 -0.22892,0.189984 -0.41804,0.658269 -0.42026,1.040633 -0.007,1.172919 -0.35228,1.445672 -0.96783,0.764185 z"
         id="path5704" />
      <path
         style="fill:#565d30"
         d="m -137.1949,-29.924547 c -0.097,-0.30569 -0.0455,-0.68669 0.11446,-0.846667 0.15997,-0.159976 0.29086,-1.108514 0.29086,-2.107862 0,-1.635576 0.048,-1.801762 0.48074,-1.664417 0.3103,0.09848 0.70186,-0.0828 1.10445,-0.511337 0.34305,-0.365154 0.72203,-0.663917 0.84218,-0.663917 0.46742,0 0.17069,0.565292 -0.97216,1.852084 -1.12829,1.270397 -1.19062,1.423227 -1.19062,2.919248 0,1.571599 -0.33393,2.081462 -0.66991,1.022868 z"
         id="path5703" />
      <path
         style="fill:#565d30"
         d="m -146.18228,1.3221864 c -5.73056,-0.36236944 -16.80105,-1.42736261 -16.80105,-1.61627969 0,-0.23755508 2.14173,-0.94229981 3.57188,-1.17534071 0.58208,-0.09485 1.698,-0.3515003 2.47982,-0.5703342 0.78182,-0.218834 2.97805,-0.6635623 4.88051,-0.9882852 2.24331,-0.3829008 3.50088,-0.7160027 3.57814,-0.9477629 0.0655,-0.1965467 -0.34478,-0.7603481 -0.91176,-1.2528921 -0.89746,-0.7796355 -0.94527,-0.8735845 -0.36942,-0.7259308 0.3638,0.093282 1.39373,0.5305271 2.28873,0.9716559 1.64533,0.8109483 2.73835,0.8467872 2.73835,0.089787 0,-0.5107235 -2.53002,-4.3108267 -3.65301,-5.4868397 -0.51854,-0.543032 -0.86417,-1.065974 -0.76805,-1.162093 0.32638,-0.326376 4.45351,2.6312195 5.89595,4.2251643 0.78954,0.8724713 1.43553,1.6850842 1.43553,1.8058064 0,0.3658628 0.8004,0.2454336 0.9494,-0.1428475 0.2091,-0.5449021 -2.18093,-7.3821872 -3.5086,-10.0372282 -1.33947,-2.678642 -1.08223,-2.730591 1.27644,-0.257777 1.59851,1.675868 3.06065,4.296011 3.76941,6.7547434 0.35601,1.2350273 0.54399,1.5213541 0.9988,1.5213541 0.54273,0 0.55548,-0.080685 0.4078,-2.5796875 -0.21156,-3.580029 -1.52297,-9.419201 -2.85605,-12.716856 -0.1361,-0.336692 -0.14292,-0.547558 -0.0152,-0.46859 0.39503,0.244141 2.09219,3.909813 2.54578,5.498577 0.29632,1.037915 0.54013,1.465277 0.78282,1.372148 0.52801,-0.202616 0.67332,-1.358837 0.70686,-5.624602 0.0177,-2.245459 0.10732,-3.477093 0.21364,-2.934503 0.22985,1.172993 0.47703,1.578513 0.96217,1.578513 0.49461,0 0.48714,0.461084 -0.0156,0.96384 -0.32467,0.324672 -0.39635,1.295973 -0.39396,5.338913 0.003,5.369969 0.15171,6.926414 0.66106,6.926414 0.36331,0 0.48222,-0.26245 1.84079,-4.062809 1.15099,-3.219707 2.04367,-4.887109 3.23039,-6.033913 l 0.91423,-0.883486 -0.57481,1.322916 c -0.31614,0.727605 -0.80774,1.977761 -1.09245,2.778125 -0.68957,1.938482 -2.86546,10.1746385 -2.86546,10.8462972 0,1.1506796 0.76853,0.4170244 2.0077,-1.9166092 0.98428,-1.853589 1.83887,-2.993056 3.52223,-4.696354 1.22245,-1.236927 2.26824,-2.1179 2.32399,-1.957716 0.0557,0.160183 -0.42542,1.145642 -1.06925,2.189908 -0.64384,1.044266 -1.73831,3.2695939 -2.43216,4.945172 -1.59639,3.8550787 -1.40042,4.2788777 0.98173,2.1231497 1.81466,-1.6421691 4.26727,-2.9875097 5.91704,-3.2457048 l 1.05184,-0.164616 -1.5875,1.2051385 c -2.02591,1.5379584 -2.88109,2.4567798 -2.70755,2.9090368 0.17697,0.4611522 2.47666,0.9914649 4.29947,0.9914649 0.84849,0 2.1567,0.26601 3.25297,0.6614584 1.00855,0.363802 2.29556,0.6614787 2.86004,0.6615036 2.27163,1.004e-4 9.3607,1.8184486 9.3607,2.40102024 0,0.2614184 -1.91515,0.44663848 -9.39271,0.90839871 -13.90094,0.85842185 -24.07768,1.07678485 -30.69166,0.65855265 z"
         id="path5700" />
      <path
         style="fill:#4a3726"
         d="m -143.79771,-15.074642 c -0.51115,-1.015013 -0.92937,-1.932771 -0.92937,-2.039463 0,-0.337457 2.40705,2.133507 2.7928,2.866958 0.323,0.614129 0.31765,0.721559 -0.0429,0.859896 -0.75524,0.289813 -0.88581,0.16879 -1.82057,-1.687391 z"
         id="path5679" />
      <path
         style="fill:#4a3726"
         d="m -125.76527,-6.7909693 c -0.35214,-0.3521423 -0.1555,-0.5799713 0.94809,-1.0984346 2.16925,-1.0191124 2.52026,-0.9537867 1.01055,0.1880736 -1.48804,1.1254652 -1.66247,1.2065374 -1.95864,0.910361 z"
         id="path5676" />
      <path
         style="fill:#4a3726"
         d="m -143.7569,1.2707795 c -2.74062,-0.1014373 -7.51405,-0.42885917 -10.60762,-0.72760411 -3.09357,-0.29874493 -6.17226,-0.5431726084499 -6.84154,-0.5431726084499 -2.48026,0 -1.42419,-0.7257655315501 2.10261,-1.4449925815501 12.39055,-2.5268236 11.34567,-2.3710794 12.12282,-1.8069513 0.35901,0.2606004 0.71831,0.6664759 0.79845,0.9019455 0.26112,0.7672935 1.11577,1.35105022 1.70445,1.1642084 0.53855,-0.1709266 0.5406,-0.1944321 0.0851,-0.9743357 -0.25671,-0.4395511 -0.80606,-0.9759839 -1.22078,-1.192073 l -0.75403,-0.3928893 0.88555,-0.4425601 c 1.17088,-0.585159 1.21779,-1.0992939 0.22533,-2.4693507 -0.82172,-1.1343544 -0.82286,-1.1405806 -0.25444,-1.3942167 0.46483,-0.2074135 0.66347,-0.1344525 1.06856,0.3924917 0.27368,0.355996 0.57011,1.0639843 0.65874,1.5733072 0.25765,1.4805691 0.33994,1.6775874 1.03939,2.4885489 0.36468,0.4228164 0.66306,0.9330211 0.66306,1.133788 0,0.7266371 0.84903,1.66932969 1.50346,1.66932969 0.70438,0 0.69826,-0.18092095 -0.0696,-2.05815009 -0.30507,-0.7458007 -0.44912,-0.8438679 -1.02663,-0.6989212 -0.99841,0.2505849 -0.85131,-0.1388602 0.59282,-1.5694026 l 0.60313,-0.5974631 -0.58745,-1.6327043 c -0.3231,-0.8979874 -0.51373,-1.7064316 -0.42362,-1.7965427 0.0901,-0.090111 0.51207,-0.087353 0.93769,0.00613 1.33135,0.2924136 2.1314,1.8335556 3.40606,6.5611183 0.27163,1.007452 0.62712,1.78593749 0.81554,1.78593749 0.36659,0 0.35983,-0.25208339 -0.23412,-8.73124989 -0.35779,-5.1076827 -0.35411,-9.5022947 0.008,-9.8646567 0.11646,-0.116458 0.29124,1.810617 0.38842,4.282388 0.0972,2.471772 0.25118,4.688288 0.34224,4.925591 0.11559,0.3012231 0.3544,0.3840645 0.79117,0.2744445 0.61213,-0.1536365 0.6265,-0.1156295 0.66752,1.7662549 0.0231,1.0577984 0.0245,2.1316293 0.003,2.3862908 -0.0453,0.5403089 0.47326,0.6055057 1.05218,0.1322916 0.22253,-0.181901 1.04896,-1.5178807 1.8365,-2.9688437 0.93216,-1.7173861 1.99812,-3.2179471 3.05423,-4.2994791 1.76128,-1.803659 2.64154,-2.221242 1.68948,-0.801469 -0.69129,1.030902 -3.15764,6.1648952 -3.82394,7.9599573 -0.33419,0.9003621 -0.39184,1.3622153 -0.19462,1.5594323 0.19722,0.1972169 0.0887,0.6581268 -0.36641,1.5562471 -0.83732,1.65235504 -0.81741,1.82280089 0.2129,1.82280089 0.7245,0 1.14034,-0.29921889 2.64717,-1.90474369 l 1.78765,-1.9047438 1.65231,0.3688585 c 0.90877,0.2028722 2.21981,0.3417431 2.91342,0.3086021 0.84934,-0.040582 2.01234,0.2017337 3.56188,0.7421353 1.36585,0.4763425 2.84238,0.8042584 3.63367,0.8069857 2.23058,0.00769 8.34438,1.56320663 8.34438,2.12303996 0,0.0977302 -1.0418,0.25278742097 -2.31511,0.34457153 -14.85708,1.07094661 -26.99303,1.47911461 -35.0793,1.17982111 z"
         id="path5673" />
      <path
         style="fill:#354e23"
         d="m -143.79771,-15.074642 c -0.51115,-1.015013 -0.92937,-1.932771 -0.92937,-2.039463 0,-0.337457 2.40705,2.133507 2.7928,2.866958 0.323,0.614129 0.31765,0.721559 -0.0429,0.859896 -0.75524,0.289813 -0.88581,0.16879 -1.82057,-1.687391 z"
         id="path5649" />
      <path
         style="fill:#354e23"
         d="m -125.76529,-6.7909693 c -0.35214,-0.3521423 -0.1555,-0.5799713 0.94809,-1.0984346 2.16925,-1.0191124 2.52026,-0.9537867 1.01055,0.1880736 -1.48804,1.1254652 -1.66247,1.2065374 -1.95864,0.910361 z"
         id="path5646" />
      <path
         style="fill:#354e23"
         d="m -146.79607,-2.3913336 c -0.77414,-0.7220566 -1.25039,-1.3088691 -1.05833,-1.3040277 0.45549,0.011482 1.2573,0.7238045 2.01075,1.7863353 0.33177,0.4678825 0.5699,0.8461566 0.52916,0.840609 -0.0407,-0.00555 -0.70745,-0.60086 -1.48158,-1.3229166 z"
         id="path5643" />
      <path
         style="fill:#354e23"
         d="m -137.16529,-0.46301804 c -0.10964,-0.10914063 -1.17128,-0.22401392 -2.35921,-0.255274 -2.89009,-0.0760522 -4.65683,-0.2352653 -4.85949,-0.43792326 -0.0917,-0.091684 -0.0211,-0.1666986 0.15694,-0.1666986 0.54078,0 -0.54667,-1.5917639 -1.38635,-2.029282 l -0.75403,-0.3928893 0.88555,-0.4425601 c 1.17088,-0.585159 1.21779,-1.0992939 0.22533,-2.4693507 -0.82172,-1.1343544 -0.82286,-1.1405806 -0.25444,-1.3942167 0.46483,-0.2074135 0.66347,-0.1344525 1.06856,0.3924917 0.27368,0.355996 0.57011,1.0639843 0.65874,1.5733072 0.25765,1.4805691 0.33994,1.6775874 1.03939,2.4885489 0.36468,0.4228164 0.66306,0.9330211 0.66306,1.133788 0,0.7266371 0.84903,1.66932969 1.50346,1.66932969 0.70438,0 0.69826,-0.18092095 -0.0696,-2.05815009 -0.30507,-0.7458007 -0.44912,-0.8438679 -1.02663,-0.6989212 -0.99841,0.2505849 -0.85131,-0.1388602 0.59282,-1.5694026 l 0.60313,-0.5974631 -0.58745,-1.6327043 c -0.3231,-0.8979874 -0.51373,-1.7064316 -0.42362,-1.7965427 0.0901,-0.090111 0.51207,-0.087353 0.93769,0.00613 1.33135,0.2924136 2.1314,1.8335556 3.40606,6.5611183 0.27163,1.007452 0.62712,1.78593749 0.81554,1.78593749 0.36659,0 0.35983,-0.25208339 -0.23412,-8.73124989 -0.35779,-5.1076827 -0.35411,-9.5022947 0.008,-9.8646567 0.11646,-0.116458 0.29124,1.810617 0.38842,4.282388 0.0972,2.471772 0.25118,4.688288 0.34224,4.925591 0.11559,0.3012231 0.3544,0.3840645 0.79117,0.2744445 0.61213,-0.1536365 0.6265,-0.1156295 0.66752,1.7662549 0.0231,1.0577984 0.0245,2.1316293 0.003,2.3862908 -0.0453,0.5403089 0.47326,0.6055057 1.05218,0.1322916 0.22253,-0.181901 1.04896,-1.5178807 1.8365,-2.9688437 0.93216,-1.7173861 1.99812,-3.2179471 3.05423,-4.2994791 1.76128,-1.803659 2.64154,-2.221242 1.68948,-0.801469 -0.69129,1.030902 -3.15764,6.1648952 -3.82394,7.9599573 -0.32082,0.8643413 -0.38784,1.3662144 -0.20662,1.5474351 0.18123,0.1812206 0.0409,0.7610762 -0.43256,1.7878797 l -0.70077,1.51967261 -2.27894,0.30632977 c -2.69379,0.36209178 -2.73474,0.36356872 -2.99156,0.10789228 z"
         id="path5635" />
    </g>
  </g>
</svg>
