<?xml version="1.0" encoding="UTF-8" standalone="no"?>
<!-- Created with Inkscape (http://www.inkscape.org/) -->

<svg
   width="64.41539mm"
   height="58.992348mm"
   viewBox="0 0 64.41539 58.992348"
   version="1.1"
   id="svg1"
   xmlns="http://www.w3.org/2000/svg"
   xmlns:svg="http://www.w3.org/2000/svg">
  <defs
     id="defs1" />
  <g
     id="layer1"
     transform="translate(-55.297918,-112.44792)">
    <g
       id="g5829"
       transform="matrix(0.92579483,0,0,0.92579483,289.72135,87.699682)"
       style="stroke-width:1.08015">
      <path
         style="fill:#c6b5a6;stroke-width:1.08015"
         d="m -229.9229,90.206515 c -5.52591,-0.40912 -16.55606,-1.338046 -17.39636,-1.46507 -0.67451,-0.101962 -0.85989,-0.257316 -0.85989,-0.720611 0,-0.501499 0.34935,-0.718596 2.3151,-1.438664 1.27331,-0.466422 3.53549,-1.175023 5.02708,-1.574669 1.49159,-0.399646 2.70891,-0.788648 2.70516,-0.86445 -0.004,-0.0758 -0.59906,-0.539562 -1.32292,-1.030578 -0.72385,-0.491016 -1.31609,-1.056563 -1.31609,-1.256771 0,-0.564823 3.50107,-0.462503 5.28884,0.154569 0.79881,0.275718 1.49777,0.455916 1.55325,0.400438 0.10911,-0.109115 -0.99258,-1.576615 -2.79698,-3.725671 -1.24105,-1.47811 -1.39708,-1.95585 -0.63879,-1.95585 1.24321,0 3.73404,1.286455 6.23587,3.220678 0.47981,0.37095 0.71398,0.452319 0.61015,0.212011 -0.0927,-0.214489 -0.83002,-1.915778 -1.63854,-3.780643 -1.4953,-3.448901 -1.65551,-4.00411 -1.23113,-4.266393 0.30981,-0.191477 4.62684,3.14789 5.91195,4.573094 0.54533,0.604772 1.05937,1.099587 1.14231,1.099587 0.34624,0 -1.31853,-4.269559 -2.86032,-7.335746 -0.6019,-1.197004 -1.00738,-2.263345 -0.90108,-2.369646 0.71864,-0.718643 5.46911,3.640305 6.75652,6.199662 0.78407,1.558738 1.43806,2.211727 1.19245,1.190625 -1.31675,-5.474138 -2.10709,-8.146527 -2.84935,-9.634518 -0.49698,-0.996272 -0.80038,-1.875195 -0.67423,-1.953162 0.40371,-0.249505 1.74934,0.625034 2.75601,1.791159 0.53718,0.62228 1.43615,2.024386 1.9977,3.115792 l 1.021,1.984375 0.0132,-1.220658 c 0.0298,-2.746272 -1.04443,-5.956167 -2.67587,-7.996039 -1.28185,-1.602766 -0.54658,-1.789685 1.9615,-0.498643 0.10914,0.05618 0.19843,-0.384026 0.19843,-0.978236 0,-0.999129 -0.0547,-1.081338 -0.7276,-1.09309 -1.11719,-0.01951 -2.56766,-0.831935 -2.66172,-1.490858 -0.0451,-0.31607 -0.25347,-0.71696 -0.46302,-0.890866 -0.49845,-0.41368 -0.48885,-1.684587 0.0159,-2.103484 0.21828,-0.181158 0.39687,-0.480654 0.39687,-0.665548 0,-0.184894 0.1985,-0.412344 0.44112,-0.505444 0.33621,-0.129015 0.36767,-0.242719 0.13229,-0.478099 -0.16985,-0.169854 -0.30883,-0.474593 -0.30883,-0.677198 0,-0.202604 -0.23812,-0.671098 -0.52916,-1.041098 -0.62327,-0.792359 -0.66795,-1.329401 -0.15836,-1.903446 0.20394,-0.22974 0.43575,-1.132084 0.51512,-2.005209 0.0794,-0.873125 0.15063,-1.617266 0.15836,-1.653646 0.008,-0.03638 0.29186,-0.06615 0.63141,-0.06615 0.90997,0 1.01586,-0.255278 0.42008,-1.012692 -0.293,-0.372487 -0.50776,-0.92209 -0.47725,-1.22134 0.0305,-0.299251 -0.0953,-0.856454 -0.27958,-1.238229 -0.38371,-0.794932 -0.015,-1.819405 0.65474,-1.819405 0.46864,0 0.48724,-0.285496 0.0772,-1.185353 -0.231,-0.506982 -0.23377,-0.757642 -0.0108,-0.980577 0.18227,-0.182268 0.23957,-0.736667 0.1464,-1.416403 -0.12531,-0.914262 -0.0506,-1.219395 0.41176,-1.681755 0.55377,-0.553778 0.55609,-0.591612 0.11799,-1.931012 -0.44116,-1.34876 -0.43952,-1.371031 0.12824,-1.748013 0.3163,-0.210016 0.57509,-0.65823 0.57509,-0.996031 0,-0.337801 0.2162,-0.769763 0.48045,-0.959916 0.26424,-0.190152 0.55885,-0.555878 0.65468,-0.812723 0.29709,-0.796277 1.47135,-1.076019 2.27403,-0.541738 0.38054,0.253295 0.87048,0.440052 1.08876,0.415015 0.21828,-0.02504 0.67741,0.311003 1.0203,0.746756 0.56457,0.717496 0.59127,0.869891 0.28282,1.614539 -0.30972,0.747728 -0.28796,0.864877 0.24002,1.292409 0.31933,0.258581 0.72251,0.517449 0.89595,0.575261 0.23025,0.07675 0.1851,0.446138 -0.16734,1.368977 -0.42814,1.121069 -0.43802,1.308518 -0.0875,1.659075 0.29845,0.298455 0.34142,0.632355 0.17551,1.36387 -0.13514,0.595823 -0.12056,1.003213 0.0379,1.05843 0.62502,0.217815 1.0747,0.942268 0.91308,1.471028 -0.0934,0.305728 -0.20103,1.054476 -0.23907,1.663885 -0.038,0.609409 -0.22078,1.290699 -0.40608,1.513978 -0.27618,0.332781 -0.2606,0.482284 0.0865,0.82935 0.26271,0.262714 0.36542,0.654335 0.27065,1.031954 -0.12483,0.497333 -0.0229,0.641145 0.55744,0.78681 0.57059,0.14321 0.68106,0.292859 0.56202,0.76136 -0.0815,0.320713 -0.22544,0.940303 -0.31989,1.376865 -0.0944,0.436563 -0.46924,1.045843 -0.83286,1.353956 l -0.66112,0.560205 0.82021,0.285927 c 0.48931,0.170573 0.82021,0.469875 0.82021,0.741878 0,0.250773 0.19749,0.674169 0.43886,0.94088 0.36019,0.39801 0.3839,0.605529 0.13229,1.157762 -0.16861,0.370058 -0.30657,0.866215 -0.30657,1.102571 0,0.236356 -0.19959,0.650285 -0.44354,0.919844 -0.34002,0.375724 -0.3709,0.562745 -0.13229,0.801354 0.41663,0.416629 0.39783,2.241441 -0.0258,2.507372 -0.18539,0.116371 -0.55065,0.547133 -0.81168,0.957248 -0.35768,0.561962 -0.64948,0.727321 -1.18443,0.671208 -0.96823,-0.101561 -1.34154,0.182037 -1.92188,1.460041 -0.48862,1.076013 -0.7012,3.605379 -0.30301,3.605379 0.11243,0 0.4356,-0.429279 0.71815,-0.953954 0.28256,-0.524675 0.98591,-1.358112 1.563,-1.852083 1.60487,-1.373705 2.31616,-1.116591 1.2097,0.437277 -1.61018,2.261289 -2.63857,6.203098 -2.63414,10.096668 l 0.003,2.45855 1.44435,-2.910416 c 0.79439,-1.600729 1.89446,-3.464075 2.4446,-4.140768 1.14798,-1.412058 2.97731,-2.71926 3.32243,-2.374141 0.13285,0.132854 -0.10226,0.895777 -0.55037,1.78592 -1.09761,2.180301 -3.01206,8.300864 -2.59644,8.300864 0.0789,0 0.61217,-0.68461 1.18503,-1.521354 1.46203,-2.135494 4.52971,-4.828646 5.50014,-4.828646 0.62412,0 0.40311,0.651619 -1.6272,4.797494 -1.09141,2.228644 -1.98438,4.156467 -1.98438,4.28405 0,0.127584 0.68461,-0.395638 1.52136,-1.162714 1.45608,-1.334846 5.19064,-3.95008 5.64073,-3.95008 0.58856,0 0.42489,0.710853 -0.66191,2.874809 -0.65432,1.302829 -1.54975,2.936567 -1.98985,3.63053 -0.4401,0.693963 -0.74696,1.314968 -0.68192,1.380012 0.065,0.06504 0.80684,-0.338794 1.64844,-0.897416 2.48658,-1.650498 6.4294,-3.031569 6.4294,-2.252057 0,0.16896 -0.83342,1.285866 -1.85205,2.482015 -1.94939,2.289109 -2.18013,2.711459 -1.33478,2.443154 2.10367,-0.667679 5.82234,-0.653805 6.38472,0.02382 0.22892,0.275832 -0.0251,0.505909 -1.18879,1.076624 -0.81396,0.399203 -1.47993,0.808209 -1.47993,0.908901 0,0.100692 0.62508,0.330597 1.38906,0.5109 1.3811,0.325944 4.69538,1.481001 6.08542,2.12082 0.83051,0.382274 0.94215,0.915041 0.26458,1.262624 -1.26347,0.648143 -25.82993,1.957197 -34.85885,1.857497 -1.74625,-0.01928 -4.42516,-0.127617 -5.95312,-0.240742 z"
         id="path5821" />
      <path
         style="fill:#aca792;stroke-width:1.08015"
         d="m -230.18749,90.056523 c -0.80036,-0.05848 -3.95552,-0.337848 -7.01146,-0.620811 -3.05593,-0.282962 -6.58185,-0.59152 -7.83538,-0.685683 -2.45737,-0.184595 -3.03712,-0.382484 -2.81516,-0.960905 0.22675,-0.590907 5.30312,-2.365089 9.26148,-3.236874 0.40018,-0.08814 0.72112,-0.247275 0.71319,-0.353643 -0.008,-0.106369 -0.57348,-0.561147 -1.25677,-1.010618 -0.6833,-0.449472 -1.24236,-0.985253 -1.24236,-1.190625 0,-0.577049 3.35678,-0.424112 5.22552,0.238078 0.83675,0.296501 1.52136,0.439955 1.52136,0.318788 0,-0.230232 -1.83479,-2.580613 -3.38161,-4.33187 -0.53633,-0.607213 -0.80449,-1.117094 -0.6623,-1.259284 0.5672,-0.567197 4.43637,1.270387 6.35797,3.019587 0.82464,0.750658 1.04831,0.370017 0.47563,-0.809421 -0.76704,-1.579705 -2.78969,-6.438986 -2.78969,-6.702037 0,-0.811953 2.34907,0.806635 5.39555,3.717721 2.03023,1.939992 2.08366,1.971244 1.92263,1.124465 -0.23261,-1.223149 -1.60817,-4.584967 -2.83053,-6.917706 -0.56824,-1.084432 -0.98253,-2.022328 -0.92065,-2.084214 0.2908,-0.290802 1.4649,0.312459 2.84887,1.463779 1.63086,1.35669 3.03497,3.127371 4.2848,5.403388 0.50859,0.926195 0.8122,1.265152 0.8751,0.976991 0.17026,-0.780059 -1.96852,-8.539036 -2.8173,-10.220445 -0.9671,-1.915828 -0.96548,-1.906016 -0.31609,-1.906016 0.87922,0 2.76155,2.148727 4.05616,4.630209 l 1.24232,2.38125 0.009,-1.89036 c 0.0111,-2.414702 -0.73222,-4.850094 -2.11039,-6.913923 -0.58073,-0.869655 -1.05588,-1.655476 -1.05588,-1.746267 0,-0.343159 0.95948,-0.142712 1.81578,0.379338 0.48935,0.29834 0.95018,0.481988 1.02406,0.408109 0.0739,-0.07388 0.0532,-0.675608 -0.0461,-1.337175 -0.1433,-0.955593 -0.28668,-1.202847 -0.6975,-1.202847 -0.28442,0 -0.9915,-0.148052 -1.57129,-0.329004 -0.77588,-0.24215 -1.05417,-0.471092 -1.05417,-0.86724 0,-0.29603 -0.23812,-0.742126 -0.52916,-0.991324 -0.29104,-0.249197 -0.52917,-0.605207 -0.52917,-0.791132 0,-0.557437 1.31255,-2.312967 1.72933,-2.312967 0.55882,0 0.47608,-0.463055 -0.14183,-0.79375 -0.29104,-0.15576 -0.53295,-0.487371 -0.53758,-0.736913 -0.005,-0.249541 -0.18322,-0.684827 -0.39687,-0.967302 -0.50303,-0.665063 -0.49353,-1.318793 0.0254,-1.749484 0.23451,-0.194631 0.35845,-0.581331 0.28598,-0.892293 -0.0704,-0.301839 -0.0457,-1.025049 0.0547,-1.607133 0.15488,-0.897566 0.28185,-1.059107 0.83586,-1.063431 0.76811,-0.006 1.00097,-0.681729 0.40528,-1.176109 -0.22453,-0.186337 -0.40823,-0.733908 -0.40823,-1.216825 0,-0.482916 -0.11906,-0.951614 -0.26458,-1.041551 -0.41112,-0.254087 -0.31138,-1.457195 0.13229,-1.595804 1.31105,-0.409584 1.25715,-0.326598 0.75937,-1.169274 -0.39564,-0.669768 -0.41312,-0.879274 -0.1192,-1.428469 0.23235,-0.434152 0.26232,-0.790328 0.0921,-1.094515 -0.36539,-0.652928 -0.0767,-1.771384 0.49583,-1.921111 0.5142,-0.134466 0.65804,-0.839553 0.25922,-1.270723 -0.12787,-0.138245 -0.3136,-0.707119 -0.41273,-1.264165 -0.15666,-0.880327 -0.10895,-1.031454 0.36478,-1.155338 0.39306,-0.102785 0.54503,-0.357563 0.54503,-0.913722 0,-0.458085 0.16936,-0.836186 0.41714,-0.931268 0.22943,-0.08804 0.5184,-0.426404 0.64216,-0.75192 0.32259,-0.848456 1.50814,-1.084724 2.21635,-0.441694 0.30844,0.280055 0.71172,0.454199 0.89617,0.386984 0.39354,-0.14341 1.36287,0.931675 1.37563,1.525706 0.005,0.225558 -0.12209,0.540994 -0.28207,0.700971 -0.44259,0.442593 -0.019,1.381009 0.70538,1.562827 0.73711,0.185004 0.76204,0.368521 0.24664,1.815674 -0.32381,0.909199 -0.32281,1.106505 0.007,1.471449 0.2946,0.325524 0.32214,0.628147 0.12099,1.32951 -0.35258,1.229383 -0.33742,1.308424 0.25091,1.308424 0.6086,0 0.94109,0.846912 0.59333,1.51136 -0.13616,0.260158 -0.19159,0.840768 -0.12318,1.290244 0.0809,0.531305 -0.0228,0.964399 -0.29626,1.237872 -0.52591,0.525907 -0.53063,0.831533 -0.0194,1.255815 0.22068,0.183151 0.36951,0.644214 0.33073,1.024584 -0.0553,0.542152 0.0581,0.709851 0.5248,0.776131 0.42623,0.06054 0.59531,0.262749 0.59531,0.711989 0,0.345093 -0.12943,0.707436 -0.28763,0.805208 -0.1582,0.09777 -0.22616,0.412833 -0.15103,0.700135 0.0991,0.378997 -0.0756,0.643119 -0.63674,0.962326 -0.97916,0.557055 -0.9756,0.795019 0.0171,1.141065 0.48096,0.167665 0.79375,0.46226 0.79375,0.74759 0,0.258988 0.18561,0.624931 0.41247,0.813207 0.55091,0.457217 0.26268,2.28111 -0.48981,3.099415 -0.42487,0.462034 -0.47893,0.67054 -0.23666,0.912812 0.1727,0.172698 0.314,0.743167 0.314,1.267709 0,1.338299 -1.42707,2.917071 -2.45853,2.719894 -0.66171,-0.126494 -0.77585,-0.0078 -1.51842,1.579027 -0.65718,1.404377 -0.77119,1.9142 -0.62813,2.808876 0.0961,0.601191 0.24908,1.093073 0.33987,1.093073 0.0908,0 0.44796,-0.533241 0.79371,-1.184982 0.60143,-1.133715 2.0644,-2.519184 2.66009,-2.519184 0.33686,0 0.37924,0.70257 0.0545,0.903274 -0.44427,0.274573 -1.91987,3.695772 -2.28028,5.286872 -0.45144,1.992994 -0.8225,7.572344 -0.50258,7.557135 0.12786,-0.0061 0.84844,-1.29355 1.60129,-2.861047 0.75285,-1.567498 1.84459,-3.451884 2.42608,-4.187525 1.04874,-1.326755 2.8333,-2.672254 3.13891,-2.366638 0.0875,0.0875 -0.20064,0.964288 -0.64033,1.948409 -0.43969,0.984121 -0.92998,2.146499 -1.08954,2.583061 -0.54166,1.482076 -1.65831,5.750481 -1.5363,5.8725 0.0668,0.06677 0.6216,-0.615158 1.23295,-1.515405 1.76708,-2.602138 5.30099,-5.638439 5.88397,-5.055452 0.13522,0.135217 -0.44776,1.593153 -1.38338,3.459596 -1.79022,3.571269 -2.74517,5.83772 -2.45967,5.83772 0.10279,0 0.8452,-0.642146 1.64978,-1.42699 1.63744,-1.597266 4.85083,-3.864677 5.47704,-3.864677 0.7418,0 -0.12064,1.969174 -2.9764,6.79594 -0.27426,0.463548 -0.4298,0.91167 -0.34565,0.995825 0.0842,0.08415 0.93735,-0.372943 1.89598,-1.015774 1.60042,-1.073201 3.65425,-2.00855 5.33863,-2.431303 1.16781,-0.293102 0.79847,0.572232 -1.22375,2.867113 -1.10946,1.259051 -1.76138,2.196505 -1.5715,2.259798 0.17847,0.05949 0.84626,-0.02322 1.48398,-0.183801 1.25794,-0.316751 3.86667,-0.382728 4.8386,-0.122372 0.8901,0.238434 0.5922,0.67461 -0.95441,1.397441 -1.54958,0.724212 -1.69419,0.999357 -0.64391,1.22512 0.40018,0.08602 1.88901,0.524497 3.3085,0.974389 3.57721,1.133754 4.96853,2.04358 3.70296,2.421469 -0.64304,0.192006 -5.66011,0.6121 -13.16302,1.102177 -5.98585,0.390986 -24.47788,0.71263 -27.64896,0.480916 z"
         id="path5807" />
      <path
         style="fill:#9b916e;stroke-width:1.08015"
         d="m -228.73228,89.934892 c -2.32833,-0.115781 -6.61458,-0.449175 -9.525,-0.740877 -2.91042,-0.291701 -6.22105,-0.607031 -7.35697,-0.700733 -1.66674,-0.137489 -2.04969,-0.249376 -1.98438,-0.579778 0.10723,-0.542435 3.15079,-1.736364 6.8637,-2.692491 1.6448,-0.423561 3.01697,-0.870392 3.04927,-0.992957 0.0323,-0.122565 -0.49293,-0.580034 -1.16718,-1.016596 -1.80261,-1.16717 -1.7542,-1.456278 0.24278,-1.449628 1.07668,0.0036 2.31412,0.230903 3.46163,0.635898 1.06065,0.37434 1.78594,0.514696 1.78594,0.345613 0,-0.156588 -0.96425,-1.46287 -2.14277,-2.902848 -1.17852,-1.439979 -2.07226,-2.688654 -1.98608,-2.774835 0.48677,-0.486767 3.93199,1.20054 6.13762,3.005913 0.5955,0.487434 1.15594,0.813024 1.24543,0.723533 0.0895,-0.08949 -0.0718,-0.62246 -0.3585,-1.184377 -0.76661,-1.502682 -2.8957,-6.537645 -2.8957,-6.847882 0,-0.146857 0.11773,-0.267012 0.26163,-0.267012 0.4355,0 3.34609,2.321155 5.19492,4.142878 0.95668,0.94266 1.80423,1.649125 1.88343,1.569922 0.24979,-0.249795 -0.98328,-3.613083 -2.47302,-6.745329 -0.78919,-1.659297 -1.3737,-3.078094 -1.29891,-3.152881 0.24899,-0.248991 3.05302,1.865919 4.2731,3.222938 0.66176,0.736031 1.53984,1.997832 1.95129,2.804001 0.91287,1.7886 1.48629,2.578352 1.7098,2.35484 0.19781,-0.197808 -1.20795,-6.326013 -1.93766,-8.446948 -0.27692,-0.804879 -0.75629,-1.958962 -1.06528,-2.564629 -0.76147,-1.492603 -0.72027,-1.746998 0.2054,-1.268316 1.20654,0.623926 2.52736,2.36323 3.63616,4.788229 0.56133,1.227649 1.12739,2.233185 1.25791,2.234525 0.13365,0.0014 0.17269,-1.066654 0.0894,-2.444959 -0.16794,-2.778173 -0.81179,-4.781705 -2.19917,-6.84335 -0.4981,-0.740169 -0.90564,-1.446667 -0.90564,-1.569995 0,-0.31492 1.49116,0.23939 1.86913,0.694811 0.58995,0.710856 0.80298,0.373839 0.72377,-1.145008 -0.0698,-1.338833 -0.14284,-1.51528 -0.60852,-1.470725 -0.87153,0.08339 -2.64553,-0.625787 -2.64939,-1.059119 -0.002,-0.219465 -0.21032,-0.627492 -0.46302,-0.906727 -0.25271,-0.279235 -0.45947,-0.697035 -0.45947,-0.928445 0,-0.651241 0.87321,-2.035438 1.38907,-2.201932 0.56767,-0.183218 0.58885,-0.473724 0.0661,-0.907531 -0.21828,-0.181157 -0.39687,-0.504378 -0.39687,-0.718268 0,-0.21389 -0.23813,-0.691618 -0.52917,-1.061618 -0.65361,-0.830931 -0.65386,-0.905791 -0.005,-1.653365 0.28802,-0.332091 0.45937,-0.707846 0.38078,-0.835011 -0.0786,-0.127165 -0.0626,-0.76664 0.0355,-1.421056 0.15488,-1.032803 0.26287,-1.189848 0.81815,-1.189848 0.89472,0 1.07145,-0.696341 0.36703,-1.446161 -0.4021,-0.428015 -0.53261,-0.798779 -0.4134,-1.174386 0.10278,-0.323827 0.01,-0.783792 -0.22703,-1.121749 -0.4904,-0.700147 -0.13893,-1.549371 0.64124,-1.549371 0.63664,0 0.65746,-0.337776 0.0755,-1.225888 -0.34148,-0.52116 -0.3768,-0.786206 -0.15262,-1.145174 0.16043,-0.256889 0.2278,-0.943375 0.14972,-1.525525 -0.11974,-0.892688 -0.0473,-1.124781 0.46265,-1.481951 0.5546,-0.388456 0.57974,-0.506367 0.30385,-1.425083 -0.62611,-2.084977 -0.62704,-2.119206 -0.0621,-2.266935 0.31475,-0.08231 0.53659,-0.360382 0.53659,-0.672617 0,-0.811874 0.2808,-1.369327 0.68976,-1.369327 0.20272,0 0.36857,-0.225386 0.36857,-0.500859 0,-0.836833 1.5214,-1.142441 2.11667,-0.425182 0.18116,0.218281 0.58269,0.400616 0.89229,0.405189 0.7239,0.01069 1.53285,1.083411 1.20621,1.59951 -0.47912,0.757029 -0.2661,1.543408 0.52955,1.954856 0.72385,0.374319 0.75768,0.459183 0.50372,1.263565 -0.49531,1.568801 -0.55478,2.052921 -0.2522,2.052921 0.37213,0 0.38497,1.190392 0.0202,1.871978 -0.2307,0.431061 -0.16694,0.555448 0.39407,0.76874 0.6415,0.243899 0.6645,0.32782 0.55395,2.020648 -0.0634,0.971399 -0.24077,1.891607 -0.39407,2.044907 -0.35395,0.353951 -0.36402,1.231227 -0.0141,1.231227 0.14552,0 0.26458,0.416719 0.26458,0.926042 0,0.754422 0.0996,0.926041 0.53747,0.926041 0.63629,0 0.98234,0.702697 0.556,1.129035 -0.16484,0.164843 -0.29972,0.613979 -0.29972,0.998079 0,0.488164 -0.19909,0.789076 -0.66145,0.999744 -0.36381,0.16576 -0.66146,0.480259 -0.66146,0.698888 0,0.218628 0.29765,0.472213 0.66146,0.563521 0.3638,0.09131 0.66145,0.327064 0.66145,0.523901 0,0.196837 0.24955,0.590374 0.55455,0.874526 0.50933,0.474514 0.52649,0.599407 0.21043,1.531661 -0.18927,0.558261 -0.57747,1.281663 -0.86265,1.60756 -0.48514,0.554395 -0.49017,0.623867 -0.0781,1.079167 0.62031,0.68544 0.54858,1.453463 -0.24435,2.616023 -0.58041,0.850981 -0.83055,1.003937 -1.64184,1.003937 -0.89465,0 -1.00506,0.09496 -1.69208,1.455208 -0.54395,1.076991 -0.73613,1.846559 -0.73941,2.960948 -0.002,0.828156 0.0993,1.56988 0.2262,1.648275 0.12684,0.0784 0.63286,-0.530832 1.12448,-1.353838 0.86688,-1.451228 2.18094,-2.717947 2.49437,-2.404513 0.0847,0.08469 -0.20092,0.791089 -0.63468,1.569781 -1.13188,2.031945 -1.87242,4.703364 -2.03285,7.333234 -0.0767,1.25656 -0.1964,2.909733 -0.2661,3.673717 -0.0697,0.763985 -0.0184,1.389063 0.11397,1.389063 0.13239,0 0.98565,-1.51198 1.89615,-3.359955 1.25805,-2.553373 2.01375,-3.728404 3.14803,-4.894792 2.12592,-2.186099 2.6783,-2.073893 1.4755,0.29972 -0.61097,1.205706 -2.22619,6.190348 -2.65276,8.186565 -0.26758,1.25219 0.13836,0.918526 1.7024,-1.399285 1.54141,-2.284265 4.99564,-5.317336 5.49125,-4.821725 0.0922,0.09219 -0.73294,2.043087 -1.83362,4.335319 -2.76452,5.757269 -2.77853,5.84786 -0.58718,3.798371 1.93947,-1.813922 5.59432,-4.342743 5.95463,-4.120058 0.3502,0.216432 -0.22999,1.413705 -3.2885,6.786121 -0.30492,0.535603 -0.478,1.050215 -0.38464,1.143582 0.0934,0.09337 0.89788,-0.327248 1.7878,-0.934701 2.42527,-1.655475 6.36945,-3.202638 6.36945,-2.49851 0,0.07667 -0.91056,1.210014 -2.02347,2.518539 -1.11291,1.308526 -1.95278,2.449837 -1.86637,2.536247 0.0864,0.08641 0.78862,0.0028 1.56045,-0.185836 1.68997,-0.412989 4.89288,-0.434025 5.29215,-0.03476 0.20642,0.206416 -0.13328,0.493278 -1.2087,1.020713 -0.82269,0.403485 -1.45968,0.841957 -1.41554,0.974383 0.0441,0.132426 0.90877,0.454587 1.92139,0.715914 2.08426,0.537883 5.38044,1.74876 5.87311,2.15753 0.86079,0.714193 0.0527,0.869536 -7.20698,1.385376 -12.68331,0.901225 -25.17295,1.260091 -32.01458,0.919879 z"
         id="path5796" />
      <path
         style="fill:#a2518e;stroke-width:1.08015"
         d="m -229.9229,89.794352 c -0.80037,-0.05859 -4.61037,-0.40027 -8.46667,-0.759294 -3.8563,-0.359024 -7.41901,-0.685113 -7.91712,-0.724643 -2.48027,-0.19683 0.15876,-1.596414 5.50573,-2.919917 1.90231,-0.470867 3.45476,-0.975184 3.44987,-1.120705 -0.005,-0.145521 -0.56107,-0.621771 -1.23597,-1.058333 -0.6749,-0.436563 -1.27969,-0.960654 -1.34399,-1.164648 -0.17579,-0.557749 3.01372,-0.164403 5.13195,0.632898 1.17746,0.443193 1.7012,0.539984 1.7012,0.314396 0,-0.179263 -0.80368,-1.322283 -1.78594,-2.540044 -2.72801,-3.382041 -2.61853,-3.196714 -1.88436,-3.189916 0.97577,0.009 2.56436,0.836919 4.70948,2.454315 1.08088,0.814968 2.06226,1.421794 2.18085,1.348502 0.11858,-0.07329 -0.0231,-0.601272 -0.31497,-1.173288 -0.77393,-1.51702 -2.90506,-6.554057 -2.90506,-6.866245 0,-0.146856 0.0747,-0.267012 0.16607,-0.267012 0.44358,0 3.94276,2.860438 5.38427,4.401426 0.89467,0.956404 1.69224,1.673352 1.77237,1.593219 0.27835,-0.278349 -1.03092,-4.027591 -2.45466,-7.029188 -0.78757,-1.660406 -1.38001,-3.070867 -1.31651,-3.134358 0.38819,-0.388194 5.44429,4.245496 5.44429,4.989453 0,0.400222 1.93652,3.677365 2.17302,3.677365 0.41816,0 0.18612,-1.588034 -0.81635,-5.586911 -0.56353,-2.247881 -1.33743,-4.704424 -1.7198,-5.458985 -0.83449,-1.646787 -0.88412,-2.038408 -0.2128,-1.679129 1.39291,0.745464 3.4442,3.886007 4.50956,6.904192 0.28314,0.802154 0.36236,0.863825 0.59216,0.460983 0.40529,-0.710496 -0.13478,-5.614163 -0.80445,-7.304121 -0.3093,-0.780548 -0.91595,-1.933094 -1.3481,-2.561213 -0.43216,-0.628118 -0.78574,-1.206142 -0.78574,-1.284496 0,-0.254689 0.91147,0.171274 1.50177,0.701826 1.00673,0.904847 1.41018,0.0067 0.97482,-2.170147 -0.13998,-0.699888 -0.26672,-0.821768 -0.73286,-0.704775 -0.78305,0.196534 -2.66898,-0.495482 -2.67333,-0.980943 -0.002,-0.218308 -0.21032,-0.625388 -0.46302,-0.904623 -0.25271,-0.279235 -0.45947,-0.697035 -0.45947,-0.928445 0,-0.651241 0.87321,-2.035438 1.38907,-2.201932 0.56767,-0.183218 0.58885,-0.473724 0.0661,-0.907531 -0.21828,-0.181157 -0.39687,-0.504378 -0.39687,-0.718268 0,-0.21389 -0.23813,-0.691618 -0.52917,-1.061618 -0.65361,-0.830931 -0.65386,-0.905791 -0.005,-1.653365 0.28802,-0.332091 0.45937,-0.707846 0.38078,-0.835011 -0.0786,-0.127165 -0.0626,-0.76664 0.0355,-1.421056 0.15488,-1.032803 0.26287,-1.189848 0.81815,-1.189848 0.89472,0 1.07145,-0.696341 0.36703,-1.446161 -0.4021,-0.428015 -0.53261,-0.798779 -0.4134,-1.174386 0.10278,-0.323827 0.01,-0.783792 -0.22703,-1.121749 -0.4904,-0.700147 -0.13893,-1.549371 0.64124,-1.549371 0.63664,0 0.65746,-0.337776 0.0755,-1.225888 -0.34148,-0.52116 -0.3768,-0.786206 -0.15262,-1.145174 0.16043,-0.256889 0.2278,-0.943375 0.14972,-1.525525 -0.11974,-0.892688 -0.0473,-1.124781 0.46265,-1.481951 0.5546,-0.388456 0.57974,-0.506367 0.30385,-1.425083 -0.62611,-2.084977 -0.62704,-2.119206 -0.0621,-2.266935 0.31475,-0.08231 0.53659,-0.360382 0.53659,-0.672617 0,-0.811874 0.2808,-1.369327 0.68976,-1.369327 0.20272,0 0.36857,-0.225386 0.36857,-0.500859 0,-0.836833 1.5214,-1.142441 2.11667,-0.425182 0.18116,0.218281 0.58269,0.400616 0.89229,0.405189 0.7239,0.01069 1.53285,1.083411 1.20621,1.59951 -0.47912,0.757029 -0.2661,1.543408 0.52955,1.954856 0.72385,0.374319 0.75768,0.459183 0.50372,1.263565 -0.49531,1.568801 -0.55478,2.052921 -0.2522,2.052921 0.37213,0 0.38497,1.190392 0.0202,1.871978 -0.2307,0.431061 -0.16694,0.555448 0.39407,0.76874 0.6415,0.243899 0.6645,0.32782 0.55395,2.020648 -0.0634,0.971399 -0.24077,1.891607 -0.39407,2.044907 -0.35395,0.353951 -0.36402,1.231227 -0.0141,1.231227 0.14552,0 0.26458,0.416719 0.26458,0.926042 0,0.754422 0.0996,0.926041 0.53747,0.926041 0.63629,0 0.98234,0.702697 0.556,1.129035 -0.16484,0.164843 -0.29972,0.613979 -0.29972,0.998079 0,0.488164 -0.19909,0.789076 -0.66145,0.999744 -0.36381,0.16576 -0.66146,0.480259 -0.66146,0.698888 0,0.218628 0.29765,0.472213 0.66146,0.563521 0.3638,0.09131 0.66145,0.327064 0.66145,0.523901 0,0.196837 0.24955,0.590374 0.55455,0.874526 0.50933,0.474514 0.52649,0.599407 0.21043,1.531661 -0.18927,0.558261 -0.57747,1.281663 -0.86265,1.60756 -0.48514,0.554395 -0.49017,0.623867 -0.0781,1.079167 0.62405,0.689571 0.5483,1.42327 -0.2771,2.683964 -0.6788,1.036784 -0.77059,1.086896 -1.70248,0.929454 -0.90993,-0.153731 -1.01827,-0.102077 -1.42153,0.677748 -0.94318,1.8239 -1.2034,2.975506 -1.02622,4.541553 0.0955,0.843764 0.26281,1.534116 0.37188,1.534116 0.10907,0 0.34827,-0.362037 0.53155,-0.804526 0.46696,-1.127343 1.73096,-2.818588 2.35693,-3.153595 0.45315,-0.242518 0.40054,-0.01563 -0.38022,1.639893 -0.49837,1.056744 -1.09371,2.635728 -1.32299,3.508853 -0.42144,1.604904 -0.88683,9.128125 -0.56467,9.128125 0.0959,0 0.82451,-1.378296 1.61911,-3.062879 2.01767,-4.277562 4.23609,-7.255871 5.4046,-7.255871 0.14117,0 -0.1396,0.863203 -0.62393,1.918229 -0.95528,2.080878 -2.84537,8.360046 -2.62419,8.71793 0.22306,0.360909 0.61965,-0.02823 1.61574,-1.585359 0.51865,-0.810791 1.42878,-2.001168 2.02251,-2.645281 1.20159,-1.303575 3.29198,-2.83813 3.53504,-2.595071 0.0865,0.08651 -0.74327,2.03275 -1.84395,4.324982 -2.88553,6.009262 -2.93243,6.40686 -0.45815,3.883412 1.44957,-1.478377 5.71527,-4.530642 5.97242,-4.273489 0.13259,0.132593 -1.30167,3.038897 -3.21396,6.51257 -0.51176,0.929619 -0.87772,1.742975 -0.81323,1.807459 0.0645,0.06448 1.02742,-0.503019 2.13986,-1.261116 1.99313,-1.358268 5.60606,-2.984489 6.03778,-2.717673 0.12172,0.07523 0.055,0.333313 -0.14816,0.573528 -0.20321,0.240214 -1.10394,1.303014 -2.00161,2.361776 -2.21473,2.612149 -2.19425,2.718118 0.39491,2.043728 1.64019,-0.427216 3.8646,-0.493998 4.71982,-0.141701 0.45174,0.186087 0.30458,0.322609 -1.00571,0.933031 -0.84418,0.393277 -1.49231,0.842721 -1.4403,0.998764 0.052,0.156043 1.04037,0.534636 2.19633,0.841319 2.20101,0.583934 5.03548,1.635128 5.61871,2.083757 0.18807,0.144665 0.2476,0.354071 0.13229,0.465345 -0.23607,0.227808 -4.22912,0.583708 -13.17423,1.174216 -5.82131,0.384291 -24.07153,0.715882 -27.11979,0.492744 z"
         id="path5784" />
      <path
         style="fill:#8c6c60;stroke-width:1.08015"
         d="m -219.27343,34.48519 c -0.45331,-0.182916 -0.41526,-0.74815 0.0779,-1.15745 0.27337,-0.226877 0.35633,-0.577312 0.25061,-1.058649 -0.14335,-0.652657 -0.0768,-0.732145 0.71584,-0.855504 1.25261,-0.194935 1.56314,0.24708 0.67544,0.961415 -0.52125,0.419446 -0.72761,0.826563 -0.72761,1.43546 0,0.825219 -0.2306,0.982036 -0.99219,0.674728 z"
         id="path5774" />
      <path
         style="fill:#8c6c60;stroke-width:1.08015"
         d="m -229.9229,89.794352 c -0.80037,-0.05859 -4.61037,-0.40027 -8.46667,-0.759294 -3.8563,-0.359024 -7.41901,-0.685113 -7.91712,-0.724643 -2.48027,-0.19683 0.15876,-1.596414 5.50573,-2.919917 1.90231,-0.470867 3.45476,-0.975184 3.44987,-1.120705 -0.005,-0.145521 -0.56107,-0.621771 -1.23597,-1.058333 -0.6749,-0.436563 -1.27969,-0.960654 -1.34399,-1.164648 -0.17579,-0.557749 3.01372,-0.164403 5.13195,0.632898 1.17746,0.443193 1.7012,0.539984 1.7012,0.314396 0,-0.179263 -0.80368,-1.322283 -1.78594,-2.540044 -2.72801,-3.382041 -2.61853,-3.196714 -1.88436,-3.189916 0.97577,0.009 2.56436,0.836919 4.70948,2.454315 1.08088,0.814968 2.06226,1.421794 2.18085,1.348502 0.11858,-0.07329 -0.0231,-0.601272 -0.31497,-1.173288 -0.77393,-1.51702 -2.90506,-6.554057 -2.90506,-6.866245 0,-0.146856 0.0747,-0.267012 0.16607,-0.267012 0.44358,0 3.94276,2.860438 5.38427,4.401426 0.89467,0.956404 1.69224,1.673352 1.77237,1.593219 0.27835,-0.278349 -1.03092,-4.027591 -2.45466,-7.029188 -0.78757,-1.660406 -1.38001,-3.070867 -1.31651,-3.134358 0.38819,-0.388194 5.44429,4.245496 5.44429,4.989453 0,0.400222 1.93652,3.677365 2.17302,3.677365 0.41816,0 0.18612,-1.588034 -0.81635,-5.586911 -0.56353,-2.247881 -1.33743,-4.704424 -1.7198,-5.458985 -0.83449,-1.646787 -0.88412,-2.038408 -0.2128,-1.679129 1.39291,0.745464 3.4442,3.886007 4.50956,6.904192 0.28314,0.802154 0.36236,0.863825 0.59216,0.460983 0.40529,-0.710496 -0.13478,-5.614163 -0.80445,-7.304121 -0.3093,-0.780548 -0.91595,-1.933094 -1.3481,-2.561213 -0.43216,-0.628118 -0.78574,-1.206142 -0.78574,-1.284496 0,-0.254689 0.91147,0.171274 1.50177,0.701826 0.32276,0.290099 0.7152,0.431257 0.89317,0.321265 0.45138,-0.278965 0.13692,-3.061211 -0.37859,-3.349705 -0.9919,-0.555095 -2.03257,-4.711622 -1.17966,-4.711622 0.20922,0 0.51519,0.134803 0.67995,0.299562 0.22303,0.223028 0.50005,0.13853 1.08426,-0.330729 0.88995,-0.714826 1.31822,-2.169148 0.81673,-2.773408 -0.17492,-0.210767 -0.24257,-0.458678 -0.15034,-0.550913 0.28902,-0.289021 -0.39404,-0.877846 -1.01833,-0.877846 -0.69635,0 -1.39106,-0.703619 -1.03389,-1.047143 0.13207,-0.127031 0.53779,-0.270813 0.90159,-0.319515 0.74015,-0.09908 1.14937,-1.279175 0.44359,-1.279175 -0.21283,0 -0.45632,-0.180726 -0.54108,-0.401612 -0.10963,-0.285672 0.15177,-0.524003 0.90545,-0.825567 1.49569,-0.598459 1.71132,-1.13641 1.15916,-2.891888 -0.35524,-1.129374 -0.56896,-1.437183 -0.99792,-1.437183 -0.42456,0 -0.47531,-0.07055 -0.22836,-0.3175 0.44504,-0.445041 0.3961,-1.933722 -0.0765,-2.325915 -0.54529,-0.452546 -0.23625,-0.824496 0.61227,-0.73692 0.69032,0.07125 0.70773,0.03724 0.70773,-1.382165 0,-1.487428 0.0634,-1.553371 1.14581,-1.191575 0.46548,0.155587 0.57987,0.343121 0.46663,0.764991 -0.0825,0.307382 -0.15163,0.948776 -0.15362,1.42532 -0.003,0.668196 -0.14821,0.921422 -0.63559,1.106721 -0.49922,0.189805 -0.65724,0.48021 -0.75225,1.382514 -0.14575,1.384051 0.0814,1.717455 1.41442,2.07641 l 1.02689,0.276512 -0.69002,1.379033 c -0.37951,0.758468 -0.93007,1.640865 -1.22347,1.960883 -0.29924,0.326382 -0.46379,0.76339 -0.37479,0.995322 0.0873,0.22741 0.0239,0.709234 -0.1408,1.070721 -0.2385,0.523458 -0.21831,0.751721 0.0992,1.121344 0.21925,0.255253 0.47253,0.672455 0.56284,0.927117 0.0952,0.268496 0.43369,0.46302 0.80566,0.46302 0.65283,0 0.96265,0.432736 0.96265,1.344557 0,0.382776 -0.18721,0.507527 -0.76165,0.507527 -0.61752,0 -0.82197,0.162717 -1.0804,0.859895 -0.17532,0.472943 -0.42326,1.059234 -0.55099,1.30287 -0.15168,0.289318 -0.084,0.748199 0.19508,1.322916 0.55957,1.152297 0.53937,1.136033 0.96876,0.779668 0.26174,-0.217227 0.57547,-0.230266 1.06473,-0.04425 0.59349,0.225645 0.69364,0.421048 0.69364,1.353374 0,0.874267 -0.10669,1.117553 -0.53976,1.230803 -0.56997,0.14905 -1.10863,1.017514 -1.73865,2.80319 -0.38557,1.092814 -0.26489,4.149869 0.16382,4.149869 0.10907,0 0.34827,-0.362037 0.53155,-0.804526 0.46696,-1.127343 1.73096,-2.818588 2.35693,-3.153595 0.45315,-0.242518 0.40054,-0.01563 -0.38022,1.639893 -0.49837,1.056744 -1.09371,2.635728 -1.32299,3.508853 -0.42144,1.604904 -0.88683,9.128125 -0.56467,9.128125 0.0959,0 0.82451,-1.378296 1.61911,-3.062879 2.01767,-4.277562 4.23609,-7.255871 5.4046,-7.255871 0.14117,0 -0.1396,0.863203 -0.62393,1.918229 -0.95528,2.080878 -2.84537,8.360046 -2.62419,8.71793 0.22306,0.360909 0.61965,-0.02823 1.61574,-1.585359 0.51865,-0.810791 1.42878,-2.001168 2.02251,-2.645281 1.20159,-1.303575 3.29198,-2.83813 3.53504,-2.595071 0.0865,0.08651 -0.74327,2.03275 -1.84395,4.324982 -2.88553,6.009262 -2.93243,6.40686 -0.45815,3.883412 1.44957,-1.478377 5.71527,-4.530642 5.97242,-4.273489 0.13259,0.132593 -1.30167,3.038897 -3.21396,6.51257 -0.51176,0.929619 -0.87772,1.742975 -0.81323,1.807459 0.0645,0.06448 1.02742,-0.503019 2.13986,-1.261116 1.99313,-1.358268 5.60606,-2.984489 6.03778,-2.717673 0.12172,0.07523 0.055,0.333313 -0.14816,0.573528 -0.20321,0.240214 -1.10394,1.303014 -2.00161,2.361776 -2.21473,2.612149 -2.19425,2.718118 0.39491,2.043728 1.64019,-0.427216 3.8646,-0.493998 4.71982,-0.141701 0.45174,0.186087 0.30458,0.322609 -1.00571,0.933031 -0.84418,0.393277 -1.49231,0.842721 -1.4403,0.998764 0.052,0.156043 1.04037,0.534636 2.19633,0.841319 2.20101,0.583934 5.03548,1.635128 5.61871,2.083757 0.18807,0.144665 0.2476,0.354071 0.13229,0.465345 -0.23607,0.227808 -4.22912,0.583708 -13.17423,1.174216 -5.82131,0.384291 -24.07153,0.715882 -27.11979,0.492744 z"
         id="path5771" />
      <path
         style="fill:#6b8842;stroke-width:1.08015"
         d="m -218.64336,32.622642 c -0.34587,-0.345874 -0.13978,-0.751102 0.54332,-1.068299 0.78907,-0.366406 1.01512,-0.281046 0.79244,0.299236 -0.18113,0.472019 -1.10239,1.002433 -1.33576,0.769063 z"
         id="path5760" />
      <path
         style="fill:#6b8842;stroke-width:1.08015"
         d="m -219.25075,33.98118 c -0.19095,-0.497612 0.27727,-1.040252 0.68184,-0.790213 0.43612,0.269533 0.34487,1.204873 -0.11754,1.204873 -0.22285,0 -0.47678,-0.186597 -0.5643,-0.41466 z"
         id="path5759" />
      <path
         style="fill:#6b8842;stroke-width:1.08015"
         d="m -219.18315,40.347037 c 0.10474,-0.417332 0.004,-0.910781 -0.27054,-1.33039 -0.53237,-0.812499 -0.32955,-1.295687 0.38365,-0.913993 0.69591,0.372439 1.11272,-0.464421 0.89852,-1.803994 l -0.16397,-1.025385 0.83677,0.122811 c 0.65452,0.09606 0.79516,0.216605 0.64576,0.55347 -0.10505,0.236862 -0.24453,0.885134 -0.30996,1.440605 -0.0908,0.770891 -0.27275,1.068418 -0.76869,1.256976 -0.49204,0.187072 -0.60899,0.375416 -0.48186,0.775991 0.22597,0.711948 -0.0785,1.587295 -0.5521,1.587295 -0.27787,0 -0.33804,-0.183452 -0.21758,-0.663386 z"
         id="path5758" />
      <path
         style="fill:#6b8842;stroke-width:1.08015"
         d="m -229.39374,89.6846 c -2.97899,-0.190866 -8.10725,-0.654646 -16.33802,-1.477549 -0.76398,-0.07638 -1.38906,-0.238261 -1.38906,-0.359731 0,-0.510322 5.10888,-2.224488 9.06198,-3.040533 1.03676,-0.214021 0.88129,-0.683576 -0.52822,-1.595327 -0.6749,-0.436563 -1.27969,-0.960654 -1.34399,-1.164648 -0.17579,-0.557749 3.01372,-0.164403 5.13195,0.632898 1.35047,0.508316 1.7012,0.562507 1.7012,0.262858 0,-0.207609 -0.93992,-1.541726 -2.0887,-2.964706 -1.35668,-1.680506 -1.9594,-2.617216 -1.71979,-2.67278 0.61553,-0.142739 3.04131,1.110875 4.94698,2.55654 2.40313,1.823046 2.68317,1.828732 1.76854,0.03591 -0.77547,-1.520033 -2.90703,-6.557507 -2.90703,-6.870103 0,-0.146856 0.0811,-0.267012 0.18017,-0.267012 0.44672,0 4.23495,3.155707 5.68393,4.734882 l 1.60335,1.74741 -0.15517,-1.058333 c -0.19888,-1.356506 -2.08532,-6.200636 -3.11684,-8.003646 -0.98957,-1.729684 -0.57697,-1.837523 1.31339,-0.343276 1.6789,1.327096 2.9724,2.888991 4.07419,4.919578 1.4053,2.589937 1.48304,2.689537 1.76474,2.260712 0.13472,-0.205085 0.20491,-0.502741 0.15597,-0.661458 -0.0489,-0.158717 -0.40147,-1.657796 -0.78341,-3.331285 -0.79984,-3.504475 -1.58349,-6.056185 -2.29549,-7.474479 -0.7128,-1.419879 -0.0592,-1.315753 1.35216,0.215427 0.96643,1.048453 1.98289,2.906533 3.17184,5.798077 0.28403,0.690762 0.35572,0.731316 0.58104,0.328691 0.3965,-0.708505 -0.1515,-5.629768 -0.8127,-7.298354 -0.3093,-0.780548 -0.91595,-1.933094 -1.3481,-2.561213 -0.43216,-0.628118 -0.78574,-1.206142 -0.78574,-1.284496 0,-0.254689 0.91147,0.171274 1.50177,0.701826 1.46136,1.313468 1.59966,-1.382367 0.21383,-4.168187 -0.51367,-1.032577 -0.92145,-2.254472 -0.9216,-2.761481 l -2.5e-4,-0.909397 0.81417,0.777106 c 0.4478,0.427408 0.79089,0.658042 0.76242,0.512522 -0.14409,-0.736612 0.072,-1.226961 0.63515,-1.441061 0.67779,-0.257692 1.15077,-1.715709 0.72499,-2.234838 -0.13211,-0.161068 -0.28137,-0.590508 -0.33169,-0.95431 -0.0654,-0.472534 -0.28042,-0.687591 -0.75296,-0.752956 -1.4288,-0.197642 -1.87417,-1.36371 -0.52086,-1.36371 1.04212,0 1.37097,-0.736241 0.56721,-1.269915 -0.79557,-0.528237 -0.71961,-1.01637 0.18634,-1.197561 1.49497,-0.298993 2.03548,-1.621498 1.31183,-3.209735 -0.40395,-0.886574 -0.2052,-1.035209 0.73122,-0.54686 0.42183,0.219988 0.9158,0.400711 1.0977,0.401607 0.1819,8.97e-4 0.33073,0.06456 0.33073,0.141467 0,0.430804 -1.64235,3.299747 -1.88897,3.299747 -0.18453,0 -0.23555,0.291472 -0.13715,0.783491 0.0862,0.43092 0.0415,0.854666 -0.0992,0.941656 -0.75975,0.469554 0.29227,2.706295 1.32991,2.827562 0.54321,0.06348 0.66314,0.221049 0.66314,0.871249 0,0.589318 -0.12356,0.794294 -0.47973,0.795862 -0.53782,0.0024 -1.48974,1.101728 -1.49877,1.730909 -0.003,0.225557 -0.14594,0.550166 -0.31713,0.721352 -0.23861,0.238609 -0.21712,0.420768 0.0921,0.780521 0.22183,0.2581 0.48085,0.687114 0.57561,0.953364 0.13214,0.371282 0.3431,0.446576 0.90526,0.323104 0.4339,-0.0953 0.92778,-0.01854 1.21041,0.188123 0.41943,0.306697 0.43616,0.444238 0.13768,1.132105 -0.18687,0.430646 -0.548,1.060765 -0.80252,1.400264 -0.99416,1.326093 -1.5721,3.456019 -1.38544,5.105854 0.0966,0.854104 0.26493,1.552917 0.374,1.552917 0.10907,0 0.34827,-0.362037 0.53155,-0.804526 0.46696,-1.127343 1.73096,-2.818588 2.35693,-3.153595 0.45315,-0.242518 0.40054,-0.01563 -0.38022,1.639893 -1.33596,2.832783 -1.72238,4.656827 -1.8924,8.932811 -0.17812,4.479716 -0.0242,4.554529 1.63319,0.79375 0.54511,-1.236927 1.39136,-2.917166 1.88055,-3.733864 0.96065,-1.603803 3.31312,-3.961961 3.47322,-3.481635 0.054,0.161948 -0.21025,0.90305 -0.58718,1.646893 -0.37693,0.743843 -1.15209,2.976238 -1.72257,4.960878 -1.37973,4.799901 -1.19185,5.127824 1.04158,1.818017 1.31138,-1.943385 3.23369,-3.854618 4.57733,-4.550963 0.43912,-0.227571 0.72761,-0.267869 0.72761,-0.101635 0,0.151495 -0.69929,1.672599 -1.55397,3.380232 -2.0032,4.002322 -2.79312,5.857354 -2.58347,6.067 0.0924,0.09239 0.97403,-0.610187 1.9592,-1.561288 1.74199,-1.681749 5.52404,-4.361028 5.78609,-4.098981 0.15196,0.151966 -1.19648,2.856367 -2.92517,5.866647 -1.46759,2.555602 -1.55295,3.107507 -0.33718,2.180199 2.74462,-2.09343 6.02706,-3.751988 7.07978,-3.57729 0.38803,0.06439 0.0896,0.543713 -1.48548,2.38609 -2.59333,3.033372 -2.59075,3.146383 0.056,2.456992 1.64019,-0.427216 3.8646,-0.493998 4.71982,-0.141701 0.45225,0.186296 0.30876,0.320686 -0.98713,0.924525 -0.83396,0.388599 -1.58481,0.817413 -1.66856,0.952921 -0.18233,0.295007 0.56069,0.603407 2.5234,1.047376 1.7618,0.398522 4.75899,1.533548 5.25477,1.989965 0.50547,0.465337 -0.12545,0.564214 -6.57769,1.030844 -12.81226,0.92659 -26.73559,1.322877 -32.80833,0.933793 z"
         id="path5755" />
      <path
         style="fill:#6b654c;stroke-width:1.08015"
         d="m -218.64336,32.622638 c -0.34587,-0.345874 -0.13978,-0.751102 0.54332,-1.068299 0.78907,-0.366406 1.01512,-0.281046 0.79244,0.299236 -0.18113,0.472019 -1.10239,1.002433 -1.33576,0.769063 z"
         id="path5741" />
      <path
         style="fill:#6b654c;stroke-width:1.08015"
         d="m -219.25075,33.981176 c -0.19095,-0.497612 0.27727,-1.040252 0.68184,-0.790213 0.43612,0.269533 0.34487,1.204873 -0.11754,1.204873 -0.22285,0 -0.47678,-0.186597 -0.5643,-0.41466 z"
         id="path5740" />
      <path
         style="fill:#6b654c;stroke-width:1.08015"
         d="m -219.18315,40.347033 c 0.10474,-0.417332 0.004,-0.910781 -0.27054,-1.33039 -0.53237,-0.812499 -0.32955,-1.295687 0.38365,-0.913993 0.69591,0.372439 1.11272,-0.464421 0.89852,-1.803994 l -0.16397,-1.025385 0.83677,0.122811 c 0.65452,0.09606 0.79516,0.216605 0.64576,0.55347 -0.10505,0.236862 -0.24453,0.885134 -0.30996,1.440605 -0.0908,0.770891 -0.27275,1.068418 -0.76869,1.256976 -0.49204,0.187072 -0.60899,0.375416 -0.48186,0.775991 0.22597,0.711948 -0.0785,1.587295 -0.5521,1.587295 -0.27787,0 -0.33804,-0.183452 -0.21758,-0.663386 z"
         id="path5739" />
      <path
         style="fill:#6b654c;stroke-width:1.08015"
         d="m -229.39374,89.6846 c -2.97899,-0.190866 -8.10725,-0.654646 -16.33802,-1.477549 -0.76398,-0.07638 -1.38906,-0.233809 -1.38906,-0.349837 0,-0.347468 2.90665,-1.499901 5.70766,-2.262981 l 2.62514,-0.715167 3.199,0.446996 c 1.75945,0.245847 3.48621,0.402389 3.83725,0.34787 0.61579,-0.09564 0.60567,-0.119713 -0.2878,-0.684497 -0.74726,-0.472356 -1.31767,-0.585563 -2.95452,-0.586361 -1.11565,-5.44e-4 -2.06815,-0.09722 -2.11666,-0.214829 -0.0485,-0.117611 -0.68351,-0.623627 -1.41111,-1.124479 l -1.32292,-0.910639 1.03315,-0.08456 c 0.82987,-0.06792 2.8615,0.421275 5.69168,1.370501 0.0606,0.02034 0.15311,-0.09165 0.20552,-0.248855 0.0813,-0.243948 -1.05857,-1.781651 -3.84067,-5.181045 -0.55455,-0.677588 -0.56745,-0.750581 -0.13229,-0.748248 0.83335,0.0045 3.05912,1.185468 4.90437,2.602269 1.6814,1.290996 2.58928,1.679642 2.58928,1.10842 0,-0.140511 -0.41672,-1.013602 -0.92604,-1.940201 -1.06204,-1.93214 -1.13967,-2.44924 -0.39687,-2.643486 0.29104,-0.07611 0.52916,-0.263951 0.52916,-0.417427 0,-0.422198 -1.09906,-1.357993 -1.59492,-1.357993 -0.37419,0 -1.21612,-1.245899 -0.99283,-1.469195 0.1835,-0.183498 4.68271,3.433715 5.85408,4.70648 l 1.28196,1.392923 -0.15487,-1.058333 c -0.21711,-1.483781 -1.84418,-5.734168 -2.95639,-7.722988 -1.11568,-1.995016 -0.7993,-2.173773 1.13758,-0.642755 1.80943,1.430272 3.24622,3.177609 3.24622,3.947847 0,0.544428 -0.0625,0.594343 -0.39687,0.316854 -0.21828,-0.181157 -0.39688,-0.273749 -0.39688,-0.205759 0,0.331798 1.10818,3.227419 2.00264,5.232842 0.5517,1.236927 1.42857,3.380052 1.9486,4.7625 0.84378,2.243123 1.02154,2.522343 1.65232,2.59535 l 0.70682,0.08181 -0.38777,-1.662231 c -0.21327,-0.914226 -0.85733,-2.761251 -1.43122,-4.104498 -0.72645,-1.700292 -0.999,-2.667027 -0.89714,-3.182078 0.19891,-1.005694 -1.81305,-9.187777 -2.78797,-11.337919 -0.92783,-2.046298 -0.58093,-2.248547 0.97028,-0.565683 0.96962,1.051911 2.11317,3.102337 3.09053,5.541396 0.21867,0.545703 0.50653,0.992188 0.6397,0.992188 0.25575,0 0.5543,-1.720685 0.61466,-3.542658 0.0198,-0.598153 0.0871,-0.823508 0.14958,-0.500789 0.0983,0.507961 0.18228,0.54383 0.62542,0.267085 0.59903,-0.374099 0.66804,-0.721555 0.14332,-0.721555 -0.20271,0 -0.44,-0.18614 -0.5273,-0.413645 -0.0873,-0.227504 -0.26558,-0.347609 -0.39617,-0.266898 -0.13059,0.08071 -0.31489,-0.266114 -0.40956,-0.770722 -0.0947,-0.504607 -0.62231,-1.813253 -1.17254,-2.908101 -0.94459,-1.879528 -1.08419,-2.674704 -0.24865,-1.416306 0.60328,0.908584 1.00612,0.362261 1.00612,-1.364467 0,-1.259674 -0.17474,-1.887908 -0.92604,-3.329288 -0.55007,-1.05531 -0.92604,-2.157432 -0.92604,-2.71456 v -0.937932 l 0.81417,0.777106 c 0.4478,0.427408 0.79089,0.658042 0.76242,0.512522 -0.14409,-0.736612 0.072,-1.226961 0.63515,-1.441061 0.67779,-0.257692 1.15077,-1.715709 0.72499,-2.234838 -0.13211,-0.161068 -0.28137,-0.590508 -0.33169,-0.95431 -0.0654,-0.472534 -0.28042,-0.687591 -0.75296,-0.752956 -1.4288,-0.197642 -1.87417,-1.36371 -0.52086,-1.36371 1.04212,0 1.37097,-0.736241 0.56721,-1.269915 -0.79557,-0.528237 -0.71961,-1.01637 0.18634,-1.197561 1.49497,-0.298993 2.03548,-1.621498 1.31183,-3.209735 -0.40395,-0.886574 -0.2052,-1.035209 0.73122,-0.54686 0.42183,0.219988 0.9158,0.400711 1.0977,0.401607 0.1819,8.97e-4 0.33073,0.06456 0.33073,0.141467 0,0.430804 -1.64235,3.299747 -1.88897,3.299747 -0.18453,0 -0.23555,0.291472 -0.13715,0.783491 0.0862,0.43092 0.0415,0.854666 -0.0992,0.941656 -0.75975,0.469554 0.29227,2.706295 1.32991,2.827562 0.54321,0.06348 0.66314,0.221049 0.66314,0.871249 0,0.589318 -0.12356,0.794294 -0.47973,0.795862 -0.53782,0.0024 -1.48974,1.101728 -1.49877,1.730909 -0.003,0.225557 -0.14594,0.550166 -0.31713,0.721352 -0.23861,0.238609 -0.21712,0.420768 0.0921,0.780521 0.22183,0.2581 0.48085,0.687114 0.57561,0.953364 0.13214,0.371282 0.3431,0.446576 0.90526,0.323104 0.4339,-0.0953 0.92778,-0.01854 1.21041,0.188123 0.42152,0.308226 0.43689,0.44081 0.13122,1.132105 -0.19042,0.430646 -0.53712,0.925058 -0.77044,1.098693 -0.23332,0.173635 -0.75073,1.043256 -1.14979,1.932492 -0.66169,1.47445 -0.70932,1.790241 -0.54096,3.586904 0.15037,1.60469 0.26797,1.970112 0.63401,1.970112 0.29456,0 0.65472,-0.495376 1.04534,-1.437826 0.32777,-0.790805 0.78925,-1.594477 1.02552,-1.785938 0.23626,-0.191461 0.3672,-0.229048 0.29098,-0.08353 -1.48824,2.841225 -2.09835,5.453346 -2.27109,9.723437 -0.19756,4.883997 0.0712,4.862208 2.54989,-0.206745 1.46414,-2.994155 2.20051,-4.175583 3.32839,-5.340061 0.79657,-0.822412 1.5203,-1.423302 1.60829,-1.335311 0.088,0.08799 -0.19825,0.913441 -0.6361,1.834332 -0.43785,0.920891 -1.23235,3.162629 -1.76556,4.981639 -0.53321,1.819011 -1.03282,3.515651 -1.11025,3.770313 -0.10011,0.329259 0.002,0.457597 0.3531,0.444248 0.32121,-0.01221 1.04892,-0.867892 2.08138,-2.447396 1.17746,-1.801316 2.02282,-2.756448 3.27284,-3.697801 0.92693,-0.698047 1.74593,-1.208581 1.81999,-1.13452 0.0741,0.07406 -0.69945,1.835817 -1.71891,3.915011 -3.17897,6.483482 -3.20577,6.982219 -0.22678,4.220063 1.13098,-1.048661 2.50086,-2.133438 3.04417,-2.410616 0.54331,-0.277178 1.14328,-0.691255 1.33327,-0.920172 0.41473,-0.499723 0.81168,-0.541883 0.80485,-0.08548 -0.005,0.353663 -1.14542,2.651538 -2.75556,5.553722 -0.54419,0.980876 -0.94938,1.900832 -0.9004,2.044348 0.049,0.143516 0.86294,-0.286588 1.80882,-0.955786 1.93596,-1.36966 5.23945,-3.004263 6.07153,-3.004263 0.44356,0 0.11047,0.518414 -1.72163,2.679567 -2.51409,2.96561 -2.60767,3.4989 -0.48722,2.77639 0.73978,-0.252071 2.03003,-0.418001 3.12977,-0.4025 l 1.87109,0.02637 -1.2618,0.553844 c -0.69399,0.304615 -1.22022,0.6797 -1.16941,0.833523 0.13374,0.404835 1.16304,0.847817 2.82809,1.217123 1.74725,0.387539 4.75394,1.522498 5.25477,1.983558 0.50547,0.465337 -0.12545,0.564214 -6.57769,1.030844 -12.81226,0.92659 -26.73559,1.322877 -32.80833,0.933793 z m 19.36915,-4.158036 c 0.4714,-0.54409 1.79752,-2.809717 1.79752,-3.070995 0,-0.09913 -0.28467,-0.108786 -0.6326,-0.02146 -0.35503,0.08911 -0.71388,0.02723 -0.81787,-0.141015 -0.2119,-0.342871 -1.4597,1.493988 -1.92693,2.836597 -0.29104,0.836315 -0.27898,0.859896 0.43974,0.859896 0.40644,0 0.9195,-0.20836 1.14014,-0.463021 z m 4.05943,-7.946589 c -0.2111,-0.211107 -1.42606,0.692819 -1.75346,1.304571 -0.27236,0.508899 -0.24585,0.55269 0.25527,0.421645 0.40185,-0.105085 0.56083,-0.02291 0.565,0.292018 0.003,0.241038 0.24344,-0.08549 0.53387,-0.725624 0.29043,-0.640131 0.47013,-1.221806 0.39932,-1.29261 z"
         id="path5736" />
      <path
         style="fill:#89572b;stroke-width:1.08015"
         d="m -218.38026,51.890424 c 0.0866,-0.433099 0.0267,-0.839307 -0.13891,-0.941657 -0.16018,-0.099 -0.29124,-0.470283 -0.29124,-0.825079 0,-0.478588 -0.22194,-0.7367 -0.85989,-1.000042 -0.81929,-0.338194 -0.83181,-0.364054 -0.2652,-0.54756 0.8274,-0.267967 1.09525,-1.447999 0.43779,-1.92874 -0.43173,-0.315691 -0.44622,-0.400622 -0.10516,-0.61624 0.94127,-0.595057 1.13316,-0.326792 0.94649,1.323192 -0.15562,1.375493 -0.10405,1.682638 0.3961,2.359126 0.31625,0.42776 0.7981,0.836086 1.07077,0.907392 0.58275,0.152392 0.67401,0.972936 0.10821,0.972936 -0.21317,0 -0.51501,0.238125 -0.67077,0.529167 -0.41934,0.783549 -0.803,0.641556 -0.62819,-0.232495 z"
         id="path5721" />
      <path
         style="fill:#89572b;stroke-width:1.08015"
         d="m -229.26145,89.520251 c -2.59097,-0.152998 -16.94031,-1.475875 -17.3302,-1.597685 -0.68257,-0.213243 1.31516,-1.061766 4.83446,-2.053413 l 3.30478,-0.9312 2.9508,0.410234 c 1.62294,0.225628 3.27419,0.370758 3.66944,0.32251 l 0.71864,-0.08772 -0.92604,-0.589455 c -0.75231,-0.478869 -1.31074,-0.589642 -2.97656,-0.590445 -1.12779,-5.44e-4 -2.05052,-0.108738 -2.05052,-0.240431 0,-0.131693 -0.53579,-0.553431 -1.19063,-0.937195 -0.65484,-0.383764 -1.19062,-0.828189 -1.19062,-0.987611 0,-0.452057 2.65081,-0.04559 4.67741,0.717224 1.02548,0.385991 1.865,0.566692 2.00099,0.430703 0.23823,-0.238235 -1.78253,-3.124988 -3.31414,-4.734403 -1.85797,-1.952356 0.7581,-1.115795 3.91178,1.250899 3.05604,2.293424 3.48144,2.093402 1.85208,-0.870852 -1.06204,-1.93214 -1.13967,-2.44924 -0.39687,-2.643486 0.29104,-0.07611 0.52916,-0.263951 0.52916,-0.417427 0,-0.422198 -1.09906,-1.357993 -1.59492,-1.357993 -0.37219,0 -1.21701,-1.245903 -0.99467,-1.466886 0.21613,-0.214808 3.50791,2.540471 5.30157,4.43751 1.84189,1.948045 2.05052,2.097834 2.05052,1.472202 0,-0.908284 -1.36304,-4.780366 -2.67302,-7.593393 -0.56975,-1.223489 -0.98216,-2.278275 -0.91647,-2.343968 0.42603,-0.426031 4.64782,3.886995 4.64782,4.748263 0,0.455763 -0.0659,0.491803 -0.39687,0.217105 -0.21828,-0.181157 -0.39688,-0.273749 -0.39688,-0.205759 0,0.331798 1.10818,3.227419 2.00264,5.232842 0.5517,1.236927 1.42857,3.380052 1.9486,4.7625 0.84378,2.243123 1.02154,2.522343 1.65232,2.59535 l 0.70682,0.08181 -0.38777,-1.662231 c -0.21327,-0.914226 -0.85391,-2.753251 -1.42363,-4.086721 -0.81443,-1.906224 -1.00247,-2.63022 -0.87967,-3.386913 0.24504,-1.510022 -1.64916,-9.172406 -2.86739,-11.599106 -0.27395,-0.545703 -0.40077,-0.992188 -0.28182,-0.992188 0.42977,0 2.13707,2.016299 2.91247,3.439584 0.43603,0.800364 0.99353,2.078886 1.23888,2.841158 0.83628,2.598196 1.43626,2.095391 1.49595,-1.253658 0.0221,-1.236927 0.0912,-1.984916 0.15363,-1.662197 0.0983,0.507961 0.18228,0.54383 0.62542,0.267085 0.59903,-0.374099 0.66804,-0.721555 0.14332,-0.721555 -0.20271,0 -0.44,-0.18614 -0.5273,-0.413645 -0.0873,-0.227504 -0.26558,-0.347609 -0.39617,-0.266898 -0.13059,0.08071 -0.31489,-0.266114 -0.40956,-0.770722 -0.0947,-0.504607 -0.62231,-1.813253 -1.17254,-2.908101 -0.95035,-1.890978 -1.08285,-2.672675 -0.23713,-1.398955 0.34554,0.520405 0.44699,0.546754 0.84223,0.218737 0.36103,-0.299628 0.43818,-0.767024 0.39246,-2.377616 -0.0313,-1.102571 -0.23601,-2.402727 -0.45493,-2.889236 -0.34066,-0.757063 -0.34433,-0.917862 -0.0254,-1.115601 0.20492,-0.127071 0.37258,-0.621988 0.37258,-1.099813 0,-0.699511 0.11599,-0.885247 0.59532,-0.953323 0.60242,-0.08556 0.81722,0.313041 0.33072,0.613715 -0.42277,0.261291 -0.30906,0.887306 0.31434,1.730505 0.43513,0.588535 0.79271,0.783037 1.4396,0.783037 0.47337,0 0.91592,0.0894 0.98346,0.198679 0.0675,0.109274 -0.41149,1.363278 -1.06449,2.786676 -1.17043,2.551264 -1.18466,2.616039 -1.00213,4.56382 0.15085,1.609854 0.26838,1.975824 0.63454,1.975824 0.29456,0 0.65472,-0.495376 1.04534,-1.437826 0.32777,-0.790805 0.78925,-1.594477 1.02552,-1.785938 0.23626,-0.191461 0.3672,-0.229048 0.29098,-0.08353 -1.48824,2.841225 -2.09835,5.453346 -2.27109,9.723437 -0.14613,3.612555 -0.1431,3.638021 0.43277,3.638021 0.4169,0 0.66355,-0.241746 0.87733,-0.859896 0.74782,-2.162342 3.28657,-6.754884 4.38071,-7.924609 0.65319,-0.698314 1.28384,-1.269662 1.40144,-1.269662 0.1176,0 -0.0879,0.682316 -0.45675,1.516256 -0.3688,0.833941 -1.09082,2.947301 -1.60447,4.696355 -1.30203,4.433554 -1.29221,4.370723 -0.68329,4.370723 0.35087,0 0.90869,-0.623309 1.75879,-1.965272 0.68472,-1.080899 1.90822,-2.571463 2.71888,-3.312364 1.4425,-1.318367 2.47852,-2.040644 2.47852,-1.727941 0,0.08624 -0.82035,1.846596 -1.823,3.911913 -2.01381,4.148152 -2.60185,5.636173 -2.33338,5.904638 0.0981,0.09814 1.12477,-0.725682 2.2814,-1.83072 1.15663,-1.105039 2.55769,-2.254209 3.11345,-2.553713 0.55577,-0.299504 1.27838,-0.737366 1.6058,-0.973027 1.01905,-0.733454 0.72438,0.06908 -1.38952,3.784396 -1.75555,3.085503 -2.28438,4.31834 -1.85236,4.31834 0.0724,0 0.87602,-0.548324 1.78593,-1.218498 2.32306,-1.710987 6.2846,-3.614306 6.2846,-3.019428 0,0.138748 -0.75479,1.119276 -1.67731,2.178951 -2.7239,3.12888 -2.83164,3.829062 -0.46046,2.992461 0.65832,-0.232269 1.94808,-0.393097 3.03093,-0.377946 l 1.88496,0.02637 -1.25677,0.551759 c -1.95011,0.856157 -1.65175,1.465346 0.99219,2.02587 1.89099,0.400894 5.68854,1.816519 5.68854,2.120532 0,0.255484 -1.48956,0.413518 -8.86354,0.940369 -10.93805,0.781495 -24.08944,1.108424 -30.1625,0.749806 z m 19.23686,-3.993687 c 0.4714,-0.54409 1.79752,-2.809717 1.79752,-3.070995 0,-0.09913 -0.28467,-0.108786 -0.6326,-0.02146 -0.35503,0.08911 -0.71388,0.02723 -0.81787,-0.141015 -0.2119,-0.342871 -1.4597,1.493988 -1.92693,2.836597 -0.29104,0.836315 -0.27898,0.859896 0.43974,0.859896 0.40644,0 0.9195,-0.20836 1.14014,-0.463021 z m 4.05943,-7.946589 c -0.2111,-0.211107 -1.42606,0.692819 -1.75346,1.304571 -0.27236,0.508899 -0.24585,0.55269 0.25527,0.421645 0.40185,-0.105085 0.56083,-0.02291 0.565,0.292018 0.003,0.241038 0.24344,-0.08549 0.53387,-0.725624 0.29043,-0.640131 0.47013,-1.221806 0.39932,-1.29261 z"
         id="path5717" />
      <path
         style="fill:#565d30;stroke-width:1.08015"
         d="m -218.38026,51.890424 c 0.0866,-0.433099 0.0267,-0.839307 -0.13891,-0.941657 -0.16018,-0.099 -0.29124,-0.470283 -0.29124,-0.825079 0,-0.478588 -0.22194,-0.7367 -0.85989,-1.000042 -0.81929,-0.338194 -0.83181,-0.364054 -0.2652,-0.54756 0.8274,-0.267967 1.09525,-1.447999 0.43779,-1.92874 -0.43173,-0.315691 -0.44622,-0.400622 -0.10516,-0.61624 0.94127,-0.595057 1.13316,-0.326792 0.94649,1.323192 -0.15562,1.375493 -0.10405,1.682638 0.3961,2.359126 0.31625,0.42776 0.7981,0.836086 1.07077,0.907392 0.58275,0.152392 0.67401,0.972936 0.10821,0.972936 -0.21317,0 -0.51501,0.238125 -0.67077,0.529167 -0.41934,0.783549 -0.803,0.641556 -0.62819,-0.232495 z"
         id="path5698" />
      <path
         style="fill:#565d30;stroke-width:1.08015"
         d="m -229.26145,89.520251 c -2.59097,-0.152998 -16.94031,-1.475875 -17.3302,-1.597685 -0.68257,-0.213243 1.31516,-1.061766 4.83446,-2.053413 l 3.30478,-0.9312 2.9508,0.410234 c 1.62294,0.225628 3.27419,0.370758 3.66944,0.32251 l 0.71864,-0.08772 -0.92604,-0.589455 c -0.75231,-0.478869 -1.31074,-0.589642 -2.97656,-0.590445 -1.12779,-5.44e-4 -2.05052,-0.108738 -2.05052,-0.240431 0,-0.131693 -0.53579,-0.553431 -1.19063,-0.937195 -0.65484,-0.383764 -1.19062,-0.828189 -1.19062,-0.987611 0,-0.452057 2.65081,-0.04559 4.67741,0.717224 1.02548,0.385991 1.865,0.566692 2.00099,0.430703 0.23823,-0.238235 -1.78253,-3.124988 -3.31414,-4.734403 -1.85797,-1.952356 0.7581,-1.115795 3.91178,1.250899 3.05604,2.293424 3.48144,2.093402 1.85208,-0.870852 -1.06204,-1.93214 -1.13967,-2.44924 -0.39687,-2.643486 0.29104,-0.07611 0.52916,-0.263951 0.52916,-0.417427 0,-0.422198 -1.09906,-1.357993 -1.59492,-1.357993 -0.37219,0 -1.21701,-1.245903 -0.99467,-1.466886 0.21613,-0.214808 3.50791,2.540471 5.30157,4.43751 1.84189,1.948045 2.05052,2.097834 2.05052,1.472202 0,-0.908284 -1.36304,-4.780366 -2.67302,-7.593393 -0.56975,-1.223489 -0.98216,-2.278275 -0.91647,-2.343968 0.42603,-0.426031 4.64782,3.886995 4.64782,4.748263 0,0.455763 -0.0659,0.491803 -0.39687,0.217105 -0.21828,-0.181157 -0.39688,-0.273749 -0.39688,-0.205759 0,0.331798 1.10818,3.227419 2.00264,5.232842 0.5517,1.236927 1.42857,3.380052 1.9486,4.7625 0.84378,2.243123 1.02154,2.522343 1.65232,2.59535 l 0.70682,0.08181 -0.38777,-1.662231 c -0.21327,-0.914226 -0.85391,-2.753251 -1.42363,-4.086721 -0.81443,-1.906224 -1.00247,-2.63022 -0.87967,-3.386913 0.24504,-1.510022 -1.64916,-9.172406 -2.86739,-11.599106 -0.27395,-0.545703 -0.40077,-0.992188 -0.28182,-0.992188 0.42977,0 2.13707,2.016299 2.91247,3.439584 0.43603,0.800364 0.99353,2.078886 1.23888,2.841158 0.83628,2.598196 1.43626,2.095391 1.49595,-1.253658 0.0221,-1.236927 0.0912,-1.984916 0.15363,-1.662197 0.0983,0.507961 0.18228,0.54383 0.62542,0.267085 0.59903,-0.374099 0.66804,-0.721555 0.14332,-0.721555 -0.20271,0 -0.44,-0.18614 -0.5273,-0.413645 -0.0873,-0.227504 -0.26558,-0.347609 -0.39617,-0.266898 -0.13059,0.08071 -0.31489,-0.266114 -0.40956,-0.770722 -0.0947,-0.504607 -0.62231,-1.813253 -1.17254,-2.908101 -0.95035,-1.890978 -1.08285,-2.672675 -0.23713,-1.398955 0.34554,0.520405 0.44699,0.546754 0.84223,0.218737 0.36103,-0.299628 0.43818,-0.767024 0.39246,-2.377616 -0.0313,-1.102571 -0.23601,-2.402727 -0.45493,-2.889236 -0.34066,-0.757063 -0.34433,-0.917862 -0.0254,-1.115601 0.20492,-0.127071 0.37258,-0.621988 0.37258,-1.099813 0,-0.699511 0.11599,-0.885247 0.59532,-0.953323 0.60242,-0.08556 0.81722,0.313041 0.33072,0.613715 -0.42277,0.261291 -0.30906,0.887306 0.31434,1.730505 0.43513,0.588535 0.79271,0.783037 1.4396,0.783037 0.47337,0 0.91592,0.0894 0.98346,0.198679 0.0675,0.109274 -0.41149,1.363278 -1.06449,2.786676 -1.17043,2.551264 -1.18466,2.616039 -1.00213,4.56382 0.15085,1.609854 0.26838,1.975824 0.63454,1.975824 0.29456,0 0.65472,-0.495376 1.04534,-1.437826 0.32777,-0.790805 0.78925,-1.594477 1.02552,-1.785938 0.23626,-0.191461 0.3672,-0.229048 0.29098,-0.08353 -1.48824,2.841225 -2.09835,5.453346 -2.27109,9.723437 -0.14613,3.612555 -0.1431,3.638021 0.43277,3.638021 0.4169,0 0.66355,-0.241746 0.87733,-0.859896 0.74782,-2.162342 3.28657,-6.754884 4.38071,-7.924609 0.65319,-0.698314 1.28384,-1.269662 1.40144,-1.269662 0.1176,0 -0.0879,0.682316 -0.45675,1.516256 -0.3688,0.833941 -1.09082,2.947301 -1.60447,4.696355 -1.30203,4.433554 -1.29221,4.370723 -0.68329,4.370723 0.35087,0 0.90869,-0.623309 1.75879,-1.965272 0.68472,-1.080899 1.90822,-2.571463 2.71888,-3.312364 1.4425,-1.318367 2.47852,-2.040644 2.47852,-1.727941 0,0.08624 -0.82035,1.846596 -1.823,3.911913 -2.01381,4.148152 -2.60185,5.636173 -2.33338,5.904638 0.0981,0.09814 1.12477,-0.725682 2.2814,-1.83072 1.15663,-1.105039 2.55769,-2.254209 3.11345,-2.553713 0.55577,-0.299504 1.27838,-0.737366 1.6058,-0.973027 1.01905,-0.733454 0.72438,0.06908 -1.38952,3.784396 -1.75555,3.085503 -2.28438,4.31834 -1.85236,4.31834 0.0724,0 0.87602,-0.548324 1.78593,-1.218498 2.32306,-1.710987 6.2846,-3.614306 6.2846,-3.019428 0,0.138748 -0.75479,1.119276 -1.67731,2.178951 -2.7239,3.12888 -2.83164,3.829062 -0.46046,2.992461 0.65832,-0.232269 1.94808,-0.393097 3.03093,-0.377946 l 1.88496,0.02637 -1.25677,0.551759 c -1.95011,0.856157 -1.65175,1.465346 0.99219,2.02587 1.89099,0.400894 5.68854,1.816519 5.68854,2.120532 0,0.255484 -1.48956,0.413518 -8.86354,0.940369 -10.93805,0.781495 -24.08944,1.108424 -30.1625,0.749806 z m 19.23686,-3.993687 c 0.4714,-0.54409 1.79752,-2.809717 1.79752,-3.070995 0,-0.09913 -0.28467,-0.108786 -0.6326,-0.02146 -0.35503,0.08911 -0.71388,0.02723 -0.81787,-0.141015 -0.2119,-0.342871 -1.4597,1.493988 -1.92693,2.836597 -0.29104,0.836315 -0.27898,0.859896 0.43974,0.859896 0.40644,0 0.9195,-0.20836 1.14014,-0.463021 z m 4.05943,-7.946589 c -0.2111,-0.211107 -1.42606,0.692819 -1.75346,1.304571 -0.27236,0.508899 -0.24585,0.55269 0.25527,0.421645 0.40185,-0.105085 0.56083,-0.02291 0.565,0.292018 0.003,0.241038 0.24344,-0.08549 0.53387,-0.725624 0.29043,-0.640131 0.47013,-1.221806 0.39932,-1.29261 z"
         id="path5692" />
      <path
         style="fill:#4a3726;stroke-width:1.08015"
         d="m -218.38026,51.890419 c 0.0866,-0.433099 0.0267,-0.839307 -0.13891,-0.941657 -0.16018,-0.099 -0.29124,-0.470283 -0.29124,-0.825079 0,-0.478588 -0.22194,-0.7367 -0.85989,-1.000042 -0.81929,-0.338194 -0.83181,-0.364054 -0.2652,-0.54756 0.8274,-0.267967 1.09525,-1.447999 0.43779,-1.92874 -0.43173,-0.315691 -0.44622,-0.400622 -0.10516,-0.61624 0.94127,-0.595057 1.13316,-0.326792 0.94649,1.323192 -0.15562,1.375493 -0.10405,1.682638 0.3961,2.359126 0.31625,0.42776 0.7981,0.836086 1.07077,0.907392 0.58275,0.152392 0.67401,0.972936 0.10821,0.972936 -0.21317,0 -0.51501,0.238125 -0.67077,0.529167 -0.41934,0.783549 -0.803,0.641556 -0.62819,-0.232495 z"
         id="path5672" />
      <path
         style="fill:#4a3726;stroke-width:1.08015"
         d="m -218.58863,58.435206 c 0.0937,-1.657673 0.0538,-1.875193 -0.31788,-1.732583 -0.55912,0.214554 -0.87879,-0.461799 -0.85149,-1.801584 0.0181,-0.888191 0.11726,-1.071926 0.61687,-1.142882 0.60242,-0.08556 0.81722,0.313041 0.33072,0.613715 -0.8322,0.514331 0.44479,2.513542 1.60552,2.513542 0.42665,0 0.77524,0.0893 0.77464,0.198437 -0.002,0.351048 -1.71742,3.064331 -1.99619,3.157253 -0.17243,0.05748 -0.23077,-0.592131 -0.16219,-1.805898 z"
         id="path5671" />
      <path
         style="fill:#4a3726;stroke-width:1.08015"
         d="m -205.83741,79.590658 c -0.0307,-0.661696 2.03455,-4.346314 2.29191,-4.088953 0.0636,0.06357 -0.23978,0.812236 -0.6741,1.663706 -0.79024,1.549223 -1.60198,2.766106 -1.61781,2.425247 z"
         id="path5668" />
      <path
         style="fill:#4a3726;stroke-width:1.08015"
         d="m -228.62591,79.522768 c -0.37382,-0.633572 -0.74942,-0.941525 -1.14837,-0.941525 -0.3807,0 -0.70428,-0.244564 -0.90425,-0.683435 -0.30688,-0.673526 -0.29886,-0.680746 0.55285,-0.498052 1.15007,0.246695 1.26111,0.329531 1.26111,0.940822 0,0.287021 0.1819,0.591658 0.40422,0.676971 0.55672,0.213632 0.9953,1.072617 0.65504,1.282912 -0.1458,0.09011 -0.51507,-0.259854 -0.8206,-0.777693 z"
         id="path5666" />
      <path
         style="fill:#4a3726;stroke-width:1.08015"
         d="m -229.65832,89.419589 c -3.20918,-0.226498 -13.4663,-1.195403 -15.875,-1.499579 l -1.19063,-0.150355 1.3296,-0.594232 c 2.2858,-1.021585 6.48725,-2.058499 7.11602,-1.756229 0.30262,0.145478 1.38861,0.331855 2.41331,0.414171 1.0247,0.08232 2.81064,0.404634 3.96875,0.716263 3.06484,0.824698 3.82545,0.906806 3.82545,0.412962 0,-0.515834 -1.14509,-1.335637 -3.0299,-2.169188 -1.23569,-0.54648 -1.46802,-0.75762 -1.46802,-1.334119 0,-0.673043 -1.59514,-3.021154 -3.26885,-4.811886 -0.44204,-0.472942 -0.65733,-0.859895 -0.47842,-0.859895 0.63467,0 2.91197,1.317698 4.55191,2.633833 0.91483,0.734204 1.87198,1.334917 2.12699,1.334917 0.30134,0 0.99566,0.871794 1.98332,2.490264 l 1.51965,2.490264 1.18031,0.09387 c 0.77066,0.06129 1.22404,-0.02011 1.30633,-0.234547 0.34087,-0.888314 -2.44479,-6.401469 -4.11657,-8.147146 -0.82901,-0.865657 -1.48025,-1.957409 -1.28442,-2.153234 0.0679,-0.06795 0.88126,0.715002 1.80737,1.739886 0.92611,1.024883 1.77314,1.864579 1.88228,1.86599 0.10914,0.0014 0.19843,-0.228732 0.19843,-0.511429 0,-0.888792 -1.75921,-5.929376 -2.76975,-7.936044 -0.5326,-1.057618 -0.90561,-1.985705 -0.8289,-2.062415 0.16511,-0.165116 3.86324,3.354437 3.86324,3.676696 0,0.121646 -0.1786,0.221175 -0.39688,0.221175 -0.60055,0 -0.47936,0.705799 0.5452,3.175 0.51325,1.236927 1.64256,4.022954 2.50957,6.19117 0.86701,2.168217 1.70982,4.102982 1.8729,4.299479 0.38179,0.460034 1.40445,0.46015 1.78617,2.03e-4 0.39379,-0.474494 -0.38508,-3.508235 -1.6635,-6.479402 -0.52211,-1.213442 -0.9493,-2.545498 -0.9493,-2.960125 0,-1.192015 -1.79576,-8.636879 -2.50952,-10.403974 -0.35587,-0.881046 -0.59238,-1.656554 -0.52559,-1.723351 0.45621,-0.456204 3.10511,4.058057 3.86033,6.578786 0.21601,0.72095 0.47637,1.054668 0.86628,1.110335 0.51217,0.07312 0.58971,0.369799 0.95434,3.651462 0.21828,1.964532 0.5152,3.571875 0.65983,3.571875 0.14462,0 0.36027,-0.714375 0.47922,-1.5875 0.14197,-1.042104 0.38697,-1.723849 0.71314,-1.984375 0.27327,-0.218281 0.75062,-1.051718 1.06077,-1.852083 0.31014,-0.800365 1.08253,-2.407708 1.7164,-3.571875 1.59246,-2.924677 4.14429,-5.858457 2.86472,-3.293495 -0.24514,0.491395 -0.88999,2.428002 -1.43299,4.30357 -0.66922,2.311503 -1.1989,3.635742 -1.64414,4.110442 -1.56098,1.664292 -2.85975,5.55586 -3.1477,9.431566 -0.0717,0.965461 -0.0186,1.065312 0.60548,1.137856 0.37626,0.04374 0.80256,-0.07532 0.94733,-0.264583 0.14478,-0.189258 0.57737,-1.567054 0.96132,-3.061768 0.92062,-3.583962 1.68289,-5.414349 3.39685,-8.15657 1.29161,-2.066497 4.1256,-5.13306 4.74375,-5.13306 0.13869,0 -0.30153,1.101328 -0.97827,2.447396 -1.52109,3.025558 -3.00821,6.470582 -3.00821,6.968759 0,0.205386 0.17859,0.373429 0.39687,0.373429 0.53052,0 0.50985,0.09614 -0.29468,1.370598 -0.83959,1.329995 -2.21886,4.358349 -2.21886,4.871774 0,0.561575 2.18504,0.492055 2.8542,-0.09081 0.29237,-0.254661 0.99467,-1.247061 1.56068,-2.205332 0.86723,-1.468241 1.0985,-1.698542 1.47022,-1.464062 0.33923,0.213981 0.58137,0.149316 1.04832,-0.279967 1.52984,-1.406415 7.0895,-4.47034 7.0895,-3.907019 0,0.07675 -0.77869,1.032396 -1.73041,2.12366 -0.95173,1.091264 -1.86111,2.270961 -2.02085,2.62155 -0.15974,0.350589 -0.61458,0.750434 -1.01076,0.888544 -1.00827,0.351484 -2.9109,1.583298 -2.9109,1.884595 0,0.137854 0.45969,0.38837 1.02153,0.556702 0.91719,0.274798 1.25266,0.22093 3.28436,-0.527398 1.24455,-0.458401 2.60057,-0.844053 3.01336,-0.857005 1.81011,-0.0568 9.23059,2.435216 8.29117,2.784411 -0.50368,0.187224 -9.66818,0.86438 -16.40417,1.212089 -7.75109,0.400107 -18.76229,0.531572 -22.48958,0.268507 z"
         id="path5662" />
      <path
         style="fill:#354e23;stroke-width:1.08015"
         d="m -218.70642,59.906487 c 0.0883,-0.230183 0.16242,-0.855261 0.16465,-1.389062 0.003,-0.677974 0.0758,-0.857216 0.242,-0.594594 0.20167,0.318629 0.3485,0.303523 0.96293,-0.09907 0.86067,-0.563927 0.80762,-0.284656 -0.27023,1.422772 -0.66082,1.046805 -1.42349,1.504648 -1.09935,0.659956 z"
         id="path5634" />
      <path
         style="fill:#354e23;stroke-width:1.08015"
         d="m -205.83741,79.590663 c -0.0307,-0.661696 2.03455,-4.346314 2.29191,-4.088953 0.0636,0.06357 -0.23978,0.812236 -0.6741,1.663706 -0.79024,1.549223 -1.60198,2.766106 -1.61781,2.425247 z"
         id="path5632" />
      <path
         style="fill:#354e23;stroke-width:1.08015"
         d="m -228.62591,79.522773 c -0.37382,-0.633572 -0.74942,-0.941525 -1.14837,-0.941525 -0.3807,0 -0.70428,-0.244564 -0.90425,-0.683435 -0.30688,-0.673526 -0.29886,-0.680746 0.55285,-0.498052 1.15007,0.246695 1.26111,0.329531 1.26111,0.940822 0,0.287021 0.1819,0.591658 0.40422,0.676971 0.55672,0.213632 0.9953,1.072617 0.65504,1.282912 -0.1458,0.09011 -0.51507,-0.259854 -0.8206,-0.777693 z"
         id="path5631" />
      <path
         style="fill:#354e23;stroke-width:1.08015"
         d="m -208.50457,84.380263 c 1.02512,-1.708778 1.27052,-1.965143 1.65535,-1.729291 0.34827,0.213439 0.59083,0.149112 1.05834,-0.280668 1.52932,-1.405908 7.08881,-4.469529 7.08881,-3.906374 0,0.07675 -0.77869,1.032396 -1.73041,2.12366 -0.95173,1.091264 -1.85103,2.247122 -1.99846,2.568574 -0.14743,0.321452 -0.97232,0.924899 -1.83308,1.340994 -1.72755,0.835096 -2.38724,1.422781 -1.92068,1.711026 0.15871,0.09805 -0.56913,0.178272 -1.61742,0.178272 h -1.90598 z"
         id="path5627" />
      <path
         style="fill:#354e23;stroke-width:1.08015"
         d="m -215.66915,86.622476 c 0.15524,-0.275332 0.58439,-1.675315 0.95367,-3.111073 0.89353,-3.474085 1.64874,-5.277445 3.34989,-7.999179 1.29161,-2.066497 4.1256,-5.13306 4.74375,-5.13306 0.13869,0 -0.30153,1.101328 -0.97827,2.447396 -1.52109,3.025558 -3.00821,6.470582 -3.00821,6.968759 0,0.205386 0.17859,0.373429 0.39687,0.373429 0.53052,0 0.50985,0.09614 -0.29468,1.370598 -0.83959,1.329995 -2.21886,4.358349 -2.21886,4.871774 0,0.253079 -0.31756,0.373367 -0.99219,0.375824 -0.5457,0.002 -1.27165,0.07843 -1.61321,0.169874 -0.5487,0.146898 -0.58815,0.107958 -0.33876,-0.334342 z"
         id="path5625" />
      <path
         style="fill:#354e23;stroke-width:1.08015"
         d="m -228.26413,86.534556 c -0.17849,-0.285797 -1.22004,-0.950358 -2.31456,-1.476804 -1.69302,-0.814309 -1.99005,-1.056144 -1.99005,-1.620267 0,-0.649534 -1.62636,-3.032764 -3.26885,-4.790088 -0.44204,-0.472942 -0.65733,-0.859895 -0.47842,-0.859895 0.63467,0 2.91197,1.317698 4.55191,2.633833 0.91483,0.734204 1.87022,1.334917 2.12307,1.334917 0.29444,0 0.99235,0.865947 1.94102,2.408344 0.8147,1.32459 1.48127,2.448284 1.48127,2.497098 0,0.04882 -0.20836,0.08026 -0.46302,0.06987 -0.25466,-0.01038 -0.64186,0.05796 -0.86044,0.151869 -0.2433,0.104535 -0.52326,-0.03076 -0.72193,-0.348877 z"
         id="path5624" />
      <path
         style="fill:#354e23;stroke-width:1.08015"
         d="m -218.61261,87.004975 c 0.43022,-0.52995 -0.29001,-3.415262 -1.62975,-6.52894 -0.52211,-1.213442 -0.9493,-2.545498 -0.9493,-2.960125 0,-1.192015 -1.79576,-8.636879 -2.50952,-10.403974 -0.35587,-0.881046 -0.59238,-1.656554 -0.52559,-1.723351 0.45621,-0.456204 3.10511,4.058057 3.86033,6.578786 0.21601,0.72095 0.47637,1.054668 0.86628,1.110335 0.51217,0.07312 0.58971,0.369799 0.95434,3.651462 0.21828,1.964532 0.5152,3.571875 0.65983,3.571875 0.14462,0 0.36027,-0.714375 0.47922,-1.5875 0.14197,-1.042104 0.38697,-1.723849 0.71314,-1.984375 0.27327,-0.218281 0.75062,-1.051718 1.06077,-1.852083 0.31014,-0.800365 1.08253,-2.407708 1.7164,-3.571875 1.59246,-2.924677 4.14429,-5.858457 2.86472,-3.293495 -0.24514,0.491395 -0.88999,2.428002 -1.43299,4.30357 -0.66922,2.311503 -1.1989,3.635742 -1.64414,4.110442 -1.5717,1.675729 -2.92194,5.738653 -3.15625,9.497324 -0.0399,0.640634 -0.20301,1.124259 -0.37917,1.124479 -0.17,2.14e-4 -0.52718,0.08221 -0.79375,0.182218 -0.40957,0.153661 -0.43352,0.118839 -0.15457,-0.224773 z"
         id="path5620" />
      <path
         style="fill:#354e23;stroke-width:1.08015"
         d="m -222.15596,87.117328 c -1.37545,-0.07886 -1.60814,-0.16267 -1.5113,-0.544332 0.26346,-1.038396 -2.58529,-6.707563 -4.05083,-8.061346 -0.69784,-0.644628 -1.52342,-2.022906 -1.32847,-2.217852 0.0669,-0.06689 0.87933,0.71693 1.80544,1.741814 0.92611,1.024883 1.77314,1.864579 1.88228,1.86599 0.10914,0.0014 0.19843,-0.228732 0.19843,-0.511429 0,-0.888792 -1.75921,-5.929376 -2.76975,-7.936044 -0.5326,-1.057618 -0.90561,-1.985705 -0.8289,-2.062415 0.16511,-0.165116 3.86324,3.354437 3.86324,3.676696 0,0.121646 -0.1786,0.221175 -0.39688,0.221175 -0.60055,0 -0.47936,0.705799 0.5452,3.175 0.51325,1.236927 1.64256,4.022954 2.50957,6.19117 0.86701,2.168217 1.70982,4.102982 1.8729,4.299479 0.16307,0.196497 0.19263,0.334327 0.0657,0.306288 -0.12696,-0.02804 -0.96243,-0.09293 -1.8566,-0.144194 z"
         id="path5619" />
    </g>
  </g>
</svg>
