<?xml version="1.0" encoding="UTF-8" standalone="no"?>
<!-- Created with Inkscape (http://www.inkscape.org/) -->

<svg
   width="185"
   height="185"
   viewBox="0 0 48.947914 48.947918"
   version="1.1"
   id="svg1"
   xmlns="http://www.w3.org/2000/svg"
   xmlns:svg="http://www.w3.org/2000/svg">
  <defs
     id="defs1" />
  <g
     id="layer1">
    <g
       id="g23183"
       transform="matrix(0.80547771,0,0,0.80547771,-28.739625,-22.046884)"
       style="display:inline;stroke-width:1.2415">
      <path
         style="fill:#cfd0b2;stroke-width:1.2415"
         d="m 65.50424,87.630773 c 0.08849,-0.278795 0.03698,-0.583478 -0.114462,-0.677073 -0.181046,-0.111893 -0.275346,-2.946691 -0.275346,-8.277288 v -8.107115 l -1.157898,1.591292 c -2.812919,3.865777 -6.410311,5.898229 -12.600434,7.118987 -1.091407,0.215237 -2.014141,0.391361 -2.050521,0.391385 -0.188034,1.29e-4 -0.02764,-1.165026 0.225485,-1.637993 0.346716,-0.647845 1.745294,-2.501154 3.21431,-4.259405 1.250906,-1.497196 3.886761,-3.425461 5.309182,-3.883941 1.467186,-0.47291 1.052258,-0.588618 -0.468999,-0.130787 -1.673638,0.503691 -4.651004,0.493479 -6.63689,-0.02276 -2.618843,-0.680784 -7.79465,-3.835053 -7.79465,-4.750259 0,-0.209304 0.625078,-0.676194 1.389062,-1.037533 4.028738,-1.905459 9.740097,-1.978612 13.596158,-0.174142 2.098745,0.982121 2.212389,0.828876 0.162175,-0.218685 -0.865086,-0.442018 -2.317143,-1.576043 -3.366143,-2.628885 -1.014634,-1.01835 -1.928264,-1.799955 -2.030289,-1.7369 -0.230424,0.14241 -0.908775,-0.830346 -2.1503,-3.083533 -1.335358,-2.423482 -2.502418,-6.783465 -1.845976,-6.896327 0.831004,-0.142876 1.60946,-0.08038 1.569465,0.126008 -0.02646,0.136546 0.541567,0.403675 1.262285,0.593621 1.953316,0.514796 4.914282,2.062869 6.600049,3.450685 2.068128,1.702597 3.702503,3.957191 5.344879,7.373177 1.66272,3.458299 1.850496,3.511701 0.373452,0.106206 -1.322929,-3.050166 -1.854818,-5.812047 -1.854818,-9.631308 0,-5.446049 2.092913,-12.714056 3.755543,-13.041782 0.963806,-0.189978 3.65559,6.783391 4.1917,10.859073 0.478755,3.639645 0.01886,6.357845 -2.091321,12.360643 -0.586618,1.668745 -1.03154,3.069121 -0.988715,3.111945 0.04282,0.04283 0.417602,-0.727199 0.832839,-1.711165 1.690129,-4.005018 2.77576,-5.683098 5.265528,-8.139028 1.813165,-1.788523 2.905735,-2.624258 4.389346,-3.357522 1.976674,-0.976958 5.739184,-2.142511 6.132174,-1.89963 0.59547,0.368021 -0.356926,3.528546 -1.863251,6.183194 -1.458801,2.570895 -4.517988,6.016393 -6.08775,6.856504 -0.322817,0.172767 -0.505173,0.445114 -0.405749,0.605984 0.104874,0.16969 0.06015,0.217755 -0.106689,0.114645 -0.158,-0.09765 -0.741943,0.139537 -1.297651,0.527081 -0.555709,0.387544 -0.772255,0.61318 -0.481213,0.501415 2.399095,-0.921297 3.162423,-1.144486 4.968143,-1.452632 3.475005,-0.59301 8.968664,0.241934 10.34109,1.571673 0.479898,0.464971 0.47676,0.498627 -0.122019,1.308518 -1.401227,1.89526 -6.826964,4.404989 -10.219172,4.72698 -1.979595,0.187904 -4.121594,0.04988 -5.232626,-0.337185 -0.291041,-0.101393 0.162746,0.179052 1.008417,0.623211 2.17818,1.144014 3.924514,2.482335 5.081445,3.894217 1.387189,1.692881 3.302846,4.524043 3.302846,4.881296 0,0.498872 -4.147348,0.08008 -6.217708,-0.627858 -2.992111,-1.023117 -4.343111,-1.768212 -5.241251,-2.890621 -0.464291,-0.580226 -1.284289,-1.552467 -1.822218,-2.160534 -0.537929,-0.608068 -1.291276,-1.634945 -1.674105,-2.281949 l -0.696053,-1.176371 0.164593,6.085416 c 0.144695,5.34975 0.103724,6.392993 -0.338908,8.629681 -0.276925,1.399345 -0.586937,2.679267 -0.688914,2.844271 -0.306246,0.495515 -0.73108,0.338032 -0.558127,-0.206894 z"
         id="path21564" />
      <path
         style="fill:#9bab95;stroke-width:1.2415"
         d="m 65.379016,87.888705 c 0,-0.136933 0.119975,-0.323118 0.266612,-0.413745 0.165286,-0.102152 0.115008,-0.316381 -0.132291,-0.56368 -0.33782,-0.33782 -0.398905,-1.618856 -0.398905,-8.365603 v -7.966698 l -0.859896,1.172577 c -2.850421,3.886909 -6.490176,6.126172 -11.757805,7.233679 -2.536082,0.533205 -2.981688,0.566972 -3.108854,0.235581 -0.243872,-0.635519 -0.202146,-0.727366 1.191394,-2.622499 2.732732,-3.716357 5.08036,-5.753283 7.910672,-6.863717 1.025908,-0.402502 1.828679,-0.768431 1.783933,-0.813177 -0.04474,-0.04475 -0.968222,0.223673 -2.05217,0.596484 -1.73747,0.597584 -2.268419,0.6622 -4.484357,0.545747 -1.631716,-0.08575 -3.033523,-0.328059 -3.995691,-0.69067 -1.813619,-0.683497 -6.426597,-3.700795 -6.531669,-4.272292 -0.05047,-0.274494 0.413347,-0.654873 1.369231,-1.122924 4.012969,-1.964958 9.599252,-2.001329 13.774835,-0.08968 2.109809,0.965903 2.192144,0.67592 0.106422,-0.374818 -2.281224,-1.149228 -6.135887,-4.808533 -7.447193,-7.069762 -1.754077,-3.024747 -2.798512,-6.952825 -1.936623,-7.283563 0.235046,-0.0902 0.427355,-0.07504 0.427355,0.03369 0,0.108722 0.840571,0.414213 1.867935,0.678868 3.713309,0.956572 7.180871,3.217331 9.563243,6.234985 0.625091,0.791778 1.816247,2.81584 2.647012,4.497916 1.704604,3.451367 2.005858,3.692112 0.589746,0.471292 -0.518364,-1.178973 -1.117015,-2.805605 -1.330335,-3.614738 -0.569829,-2.161386 -0.783231,-7.755356 -0.390897,-10.246697 0.452616,-2.874131 2.04523,-7.587268 2.861393,-8.467921 l 0.666686,-0.719367 0.590205,0.686155 c 0.827971,0.962574 2.186713,4.342642 2.948687,7.335287 0.465555,1.828463 0.652221,3.305824 0.671072,5.311185 0.02924,3.110084 -0.360569,4.925856 -2.157145,10.048312 -0.585806,1.67027 -1.064193,3.09902 -1.06308,3.175 0.0011,0.07598 0.843587,-1.577187 1.872167,-3.673704 1.738592,-3.543708 2.031587,-3.97231 4.165165,-6.092927 1.631174,-1.621264 2.86901,-2.580371 4.279395,-3.315786 2.033587,-1.060371 6.001678,-2.340545 6.431487,-2.074908 0.779515,0.481767 -1.314479,5.576445 -3.498301,8.511351 -1.497355,2.012341 -2.781273,3.282069 -4.614437,4.563435 -0.706406,0.493772 -1.599375,1.118581 -1.984375,1.388464 -0.478083,0.335135 -0.532241,0.43137 -0.170832,0.303559 0.291041,-0.102926 1.146561,-0.40398 1.901154,-0.669009 2.602963,-0.914215 5.139852,-1.188301 7.828869,-0.845833 2.786119,0.354835 5.160214,1.111112 5.668012,1.805567 0.302506,0.413701 0.236398,0.590858 -0.513981,1.377387 -0.473626,0.496442 -1.277857,1.163566 -1.78718,1.482498 -1.32381,0.828953 -4.667371,2.281902 -6.217708,2.701913 -1.756157,0.475771 -5.287701,0.460766 -6.903262,-0.02933 -1.841839,-0.558742 -1.803176,-0.49329 0.288679,0.488699 3.472452,1.630087 4.832281,2.858472 7.619721,6.883178 1.530829,2.21032 1.412613,2.538187 -0.751508,2.084258 -0.804841,-0.168818 -1.657177,-0.232561 -1.894079,-0.141653 -0.259774,0.09968 -0.364177,0.0576 -0.263045,-0.106038 0.104522,-0.169119 -0.103379,-0.228087 -0.551909,-0.156541 -0.583158,0.09302 -0.644347,0.05741 -0.322722,-0.187844 0.323593,-0.246749 0.286637,-0.271609 -0.200144,-0.134634 C 76.090327,79.100389 71.90929,77.083371 70.90115,75.635099 70.572326,75.162718 69.806428,74.215362 69.199155,73.529862 68.591881,72.844363 67.895053,71.862098 67.650647,71.34705 67.40624,70.832002 67.137764,70.4106 67.054033,70.4106 c -0.08373,0 -0.08614,2.708671 -0.0054,6.01927 0.147746,6.054374 -0.141933,9.483551 -0.938725,11.1125 -0.293568,0.600164 -0.730942,0.807407 -0.730942,0.346344 z"
         id="path21644" />
      <path
         style="fill:#a3a66c;stroke-width:1.2415"
         d="m 65.752297,87.761951 c 0.102143,-0.298547 0.03374,-0.594452 -0.165883,-0.717651 -0.259837,-0.160357 -0.370789,-2.124552 -0.471982,-8.355528 l -0.132291,-8.14589 -1.114657,1.624663 c -1.501609,2.188666 -3.181021,3.574795 -6.029093,4.976206 -2.708575,1.332771 -7.809922,2.645406 -8.005121,2.05981 -0.06043,-0.181281 -0.21876,-0.262301 -0.351852,-0.180046 -0.391197,0.241773 -0.278047,-0.372336 0.211475,-1.147754 1.279475,-2.026733 3.950552,-5.050498 5.697581,-6.44989 0.545416,-0.436885 1.974166,-1.199058 3.175,-1.693717 2.585446,-1.065023 2.439073,-1.152979 -0.406433,-0.244227 -4.429487,1.414616 -8.489975,0.517886 -13.34614,-2.947401 -0.912386,-0.651065 -1.658884,-1.340073 -1.658884,-1.531129 0,-0.453706 2.609376,-1.615645 4.774045,-2.125854 3.164724,-0.74592 7.093724,-0.381814 10.09518,0.935533 2.346561,1.029912 2.659586,0.812895 0.437235,-0.303131 -2.279987,-1.144969 -6.128181,-4.828577 -7.432045,-7.114178 -1.059749,-1.857684 -1.935416,-4.237029 -2.206133,-5.994466 -0.131962,-0.856665 -0.07772,-1.119929 0.257246,-1.248467 0.233459,-0.08959 0.424471,-0.07246 0.424471,0.03806 0,0.110522 0.803672,0.414632 1.785938,0.6758 3.692569,0.981794 7.425646,3.357319 9.463623,6.022129 0.57946,0.757688 1.852722,2.934714 2.82947,4.837835 0.976749,1.903121 1.780421,3.382609 1.785938,3.287751 0.0055,-0.09486 -0.521125,-1.415919 -1.170314,-2.935691 -1.472977,-3.44828 -1.703011,-4.475213 -1.90787,-8.517209 -0.127276,-2.511236 -0.05887,-3.830367 0.303974,-5.861721 0.651543,-3.647628 1.974173,-7.204946 3.036179,-8.166048 0.482392,-0.436559 0.530745,-0.413419 1.170901,0.560347 0.925036,1.407107 2.435572,5.479969 2.942364,7.933506 1.011498,4.896976 0.329503,9.401557 -2.492971,16.466081 -0.312791,0.782904 -0.509799,1.482374 -0.437794,1.554379 0.07201,0.07201 0.335802,-0.389959 0.586215,-1.026586 0.250413,-0.636628 1.112951,-2.467192 1.91675,-4.067921 1.261923,-2.513063 1.772697,-3.217972 3.741166,-5.163105 2.594275,-2.563521 4.473295,-3.683633 8.038694,-4.791985 3.040813,-0.945278 3.235812,-0.776796 2.288319,1.977141 -1.795424,5.21849 -6.360809,10.358483 -11.082627,12.477509 -2.543894,1.141632 -1.776845,1.029866 1.121078,-0.163351 4.918336,-2.025119 8.920835,-2.270082 13.261874,-0.81166 2.610433,0.877005 2.798316,1.335242 1.155869,2.819095 -1.288723,1.164284 -5.225115,3.103534 -7.505239,3.697431 -2.178803,0.567506 -5.185947,0.520825 -7.269942,-0.112853 -0.938362,-0.285326 -1.745911,-0.478977 -1.794553,-0.430335 -0.04864,0.04864 0.639306,0.3606 1.528775,0.693239 2.061952,0.771119 4.53693,2.3693 5.861186,3.784776 1.50997,1.613983 3.953306,5.274828 3.693768,5.534366 -0.122719,0.122719 -1.164737,0.02181 -2.315595,-0.224239 -1.150858,-0.24605 -2.514994,-0.475495 -3.031413,-0.509876 -0.51642,-0.03438 -1.587982,-0.337446 -2.38125,-0.673478 -1.41406,-0.599002 -3.42668,-1.785327 -3.42668,-2.019832 0,-0.06529 0.446484,0.140883 0.992187,0.458166 l 0.992187,0.576876 -0.661458,-0.568079 C 72.158963,76.196908 71.670674,75.857727 71.437678,75.755617 70.702202,75.433294 68.245849,72.44809 67.619506,71.115395 l -0.601373,-1.279566 -0.101557,1.54415 c -0.05586,0.849282 -0.006,3.389618 0.110786,5.645191 0.139528,2.69475 0.113177,4.781505 -0.07685,6.085416 -0.159053,1.091406 -0.356992,2.460625 -0.439863,3.042708 -0.08287,0.582083 -0.326509,1.296458 -0.541419,1.5875 -0.366954,0.496947 -0.380163,0.498235 -0.216937,0.02115 z"
         id="path21728" />
      <path
         style="fill:#789197;stroke-width:1.2415"
         d="m 65.752297,87.761951 c 0.102143,-0.298547 0.03374,-0.594452 -0.165883,-0.717651 -0.259837,-0.160357 -0.370789,-2.124552 -0.471982,-8.355528 l -0.132291,-8.14589 -1.114657,1.624663 c -1.501609,2.188666 -3.181021,3.574795 -6.029093,4.976206 -2.708575,1.332771 -7.809922,2.645406 -8.005121,2.05981 -0.06043,-0.181281 -0.21876,-0.262301 -0.351852,-0.180046 -0.391197,0.241773 -0.278047,-0.372336 0.211475,-1.147754 1.279475,-2.026733 3.950552,-5.050498 5.697581,-6.44989 0.545416,-0.436885 1.974166,-1.199058 3.175,-1.693717 2.585446,-1.065023 2.439073,-1.152979 -0.406433,-0.244227 -4.429487,1.414616 -8.489975,0.517886 -13.34614,-2.947401 -0.912386,-0.651065 -1.658884,-1.340073 -1.658884,-1.531129 0,-0.453706 2.609376,-1.615645 4.774045,-2.125854 3.164724,-0.74592 7.093724,-0.381814 10.09518,0.935533 2.346561,1.029912 2.659586,0.812895 0.437235,-0.303131 -2.279987,-1.144969 -6.128181,-4.828577 -7.432045,-7.114178 -1.420922,-2.4908 -2.836076,-7.157842 -2.170421,-7.157842 0.118457,0 1.11594,0.250411 2.216629,0.556469 3.993437,1.110418 7.607757,3.386208 9.678937,6.094433 0.57946,0.757688 1.852722,2.934714 2.82947,4.837835 0.976749,1.903121 1.780421,3.382609 1.785938,3.287751 0.0055,-0.09486 -0.521125,-1.415919 -1.170314,-2.935691 -1.472977,-3.44828 -1.703011,-4.475213 -1.90787,-8.517209 -0.127276,-2.511236 -0.05887,-3.830367 0.303974,-5.861721 0.651543,-3.647628 1.974173,-7.204946 3.036179,-8.166048 0.482392,-0.436559 0.530745,-0.413419 1.170901,0.560347 0.925036,1.407107 2.435572,5.479969 2.942364,7.933506 1.012871,4.903626 0.349968,9.273182 -2.498063,16.466081 -0.309991,0.782904 -0.504707,1.482374 -0.432702,1.554379 0.07201,0.07201 0.335802,-0.389959 0.586215,-1.026586 0.250413,-0.636628 1.112951,-2.467192 1.91675,-4.067921 1.261923,-2.513063 1.772697,-3.217972 3.741166,-5.163105 2.594275,-2.563521 4.473295,-3.683633 8.038694,-4.791985 3.040813,-0.945278 3.235812,-0.776796 2.288319,1.977141 -1.795424,5.21849 -6.360809,10.358483 -11.082627,12.477509 -2.543894,1.141632 -1.776845,1.029866 1.121078,-0.163351 4.918336,-2.025119 8.920835,-2.270082 13.261874,-0.81166 2.610433,0.877005 2.798316,1.335242 1.155869,2.819095 -1.288723,1.164284 -5.225115,3.103534 -7.505239,3.697431 -2.178803,0.567506 -5.185947,0.520825 -7.269942,-0.112853 -0.938362,-0.285326 -1.745911,-0.478977 -1.794553,-0.430335 -0.04864,0.04864 0.639306,0.3606 1.528775,0.693239 2.061952,0.771119 4.53693,2.3693 5.861186,3.784776 1.50997,1.613983 3.953306,5.274828 3.693768,5.534366 -0.122719,0.122719 -1.164737,0.01706 -2.315595,-0.234789 -1.150858,-0.251853 -2.42985,-0.451966 -2.842204,-0.444696 -0.507012,0.0089 -0.635499,-0.0592 -0.396875,-0.210461 0.231012,-0.146439 0.246127,-0.225078 0.04377,-0.22773 -0.17,-0.0022 -0.527187,-0.07481 -0.79375,-0.161302 -0.411094,-0.133381 -0.424419,-0.11067 -0.08779,0.149623 0.320208,0.247593 0.269096,0.270844 -0.264583,0.120359 -1.059869,-0.298857 -3.250389,-1.401293 -3.96875,-1.997377 -0.626693,-0.520019 -0.605834,-0.518307 0.396875,0.03256 1.057601,0.581026 1.057876,0.581035 0.396875,0.01335 -0.363802,-0.312444 -0.852091,-0.651625 -1.085087,-0.753735 -0.735476,-0.322323 -3.191829,-3.307527 -3.818172,-4.640222 l -0.601373,-1.279566 -0.101557,1.54415 c -0.05586,0.849282 -0.006,3.389618 0.110786,5.645191 0.139528,2.69475 0.113177,4.781505 -0.07685,6.085416 -0.159053,1.091406 -0.356992,2.460625 -0.439863,3.042708 -0.08287,0.582083 -0.326509,1.296458 -0.541419,1.5875 -0.366954,0.496947 -0.380163,0.498235 -0.216937,0.02115 z"
         id="path21813" />
      <path
         style="fill:#4d5c9a;stroke-width:1.2415"
         d="m 65.764874,87.761951 c 0.09148,-0.288245 0.01428,-0.598703 -0.17846,-0.717651 -0.259797,-0.160332 -0.370804,-2.120975 -0.471982,-8.336242 l -0.132291,-8.126603 -1.377796,1.889121 c -1.443542,1.979269 -2.598243,2.954674 -5.236787,4.42365 -2.491051,1.386861 -8.598958,2.993607 -8.598958,2.262041 0,-0.170632 -0.119063,-0.236655 -0.264584,-0.146718 -1.299066,0.802867 2.259684,-4.234989 4.411745,-6.245377 1.734012,-1.61986 3.004826,-2.40695 5.313342,-3.290867 1.055933,-0.40431 1.870381,-0.784607 1.809883,-0.845105 -0.0605,-0.0605 -1.176698,0.256261 -2.480448,0.703906 -4.34875,1.493155 -8.314576,0.841194 -12.639901,-2.077932 -2.090771,-1.411045 -2.76462,-1.967057 -2.76462,-2.281166 0,-0.447886 2.864345,-1.667998 4.956687,-2.111378 3.37127,-0.714391 6.904293,-0.333329 10.153097,1.095087 2.833482,1.245809 3.194085,1.100303 0.595138,-0.240143 -4.123046,-2.126524 -7.907003,-6.42774 -9.353528,-10.632137 -0.617662,-1.795265 -0.941039,-3.840512 -0.607229,-3.840512 0.136399,0 1.199259,0.284725 2.36191,0.632722 4.095946,1.225971 7.485893,3.382003 9.488742,6.034911 0.582069,0.770988 1.869756,2.949691 2.861528,4.841561 1.977889,3.772952 2.047704,3.805364 0.570294,0.264764 -1.427005,-3.419807 -1.690786,-4.608831 -1.8783,-8.466666 -0.141009,-2.901089 -0.08004,-3.874521 0.389421,-6.217708 0.867277,-4.328756 2.796398,-8.615452 3.583279,-7.962399 0.892791,0.740951 3.060456,6.29299 3.582415,9.175642 0.827436,4.569714 0.214615,8.421273 -2.477247,15.569424 -0.971337,2.579354 -0.699883,2.777974 0.349784,0.255932 2.096401,-5.037039 3.925262,-7.684089 6.983691,-10.108029 2.065199,-1.636762 3.420488,-2.330187 6.333775,-3.240635 2.75169,-0.859947 3.068415,-0.722635 2.579975,1.118515 -0.894399,3.371389 -4.34221,8.599134 -6.862382,10.40509 -0.609214,0.436563 -1.426002,1.046051 -1.815086,1.354418 -0.389083,0.308367 -1.659924,1.058712 -2.824091,1.667432 -2.416799,1.263698 -2.310446,1.244228 1.295398,-0.237148 4.905154,-2.015168 9.080374,-2.277151 13.301115,-0.834606 2.547399,0.870637 2.744211,1.337216 1.165638,2.763362 -2.330053,2.105063 -6.975668,3.914561 -10.470484,4.078324 -2.103162,0.09855 -2.687345,0.01624 -5.002315,-0.704799 -1.441585,-0.44901 -2.664591,-0.772855 -2.71779,-0.719655 -0.0532,0.0532 0.970163,0.478362 2.274139,0.944805 2.763896,0.988671 4.948364,2.34774 6.681183,4.156704 1.640989,1.713099 3.987351,5.168594 3.702808,5.453137 -0.125058,0.125058 -1.101518,0.02668 -2.18518,-0.220154 -1.077503,-0.245431 -2.275148,-0.459213 -2.661434,-0.475071 -0.386286,-0.01586 -0.635559,-0.136885 -0.553939,-0.268948 0.08162,-0.132064 -0.108508,-0.172933 -0.422506,-0.09082 -0.365831,0.09567 -0.508392,0.04815 -0.396875,-0.132292 0.112577,-0.182152 -0.03668,-0.226484 -0.42268,-0.125543 -0.328191,0.08582 -0.523943,0.08328 -0.435004,-0.0057 0.08894,-0.08894 -0.575502,-0.555592 -1.476535,-1.037006 -0.901034,-0.481415 -1.688312,-0.82523 -1.749507,-0.764035 -0.0612,0.0612 0.585257,0.470657 1.43656,0.909915 0.851304,0.439258 1.428762,0.801596 1.283241,0.805196 -0.450397,0.01114 -2.909942,-1.423107 -2.918582,-1.701932 -0.0045,-0.144945 -0.785272,-1.037442 -1.735067,-1.983328 -0.949795,-0.945885 -2.033146,-2.339546 -2.407447,-3.097024 l -0.680547,-1.377233 -0.132591,1.509525 c -0.07293,0.830238 -0.03237,3.339065 0.09012,5.575171 0.260195,4.750008 -0.196212,9.406542 -1.054712,10.760804 -0.314265,0.495745 -0.321912,0.496262 -0.168019,0.01137 z"
         id="path21899" />
      <path
         style="fill:#4f8a58;stroke-width:1.2415"
         d="m 65.764874,87.761951 c 0.09148,-0.288245 0.01428,-0.598703 -0.17846,-0.717651 -0.259797,-0.160332 -0.370804,-2.120975 -0.471982,-8.336242 l -0.132291,-8.126603 -1.377796,1.889121 c -1.443542,1.979269 -2.598243,2.954674 -5.236787,4.42365 -2.491051,1.386861 -8.598958,2.993607 -8.598958,2.262041 0,-0.170632 -0.119063,-0.236655 -0.264584,-0.146718 -1.299066,0.802867 2.259684,-4.234989 4.411745,-6.245377 1.734012,-1.61986 3.004826,-2.40695 5.313342,-3.290867 1.055933,-0.40431 1.870381,-0.784607 1.809883,-0.845105 -0.0605,-0.0605 -1.176698,0.256261 -2.480448,0.703906 -4.34875,1.493155 -8.314576,0.841194 -12.639901,-2.077932 -2.090771,-1.411045 -2.76462,-1.967057 -2.76462,-2.281166 0,-0.447886 2.864345,-1.667998 4.956687,-2.111378 3.37127,-0.714391 6.904293,-0.333329 10.153097,1.095087 2.833482,1.245809 3.194085,1.100303 0.595138,-0.240143 -4.123046,-2.126524 -7.907003,-6.42774 -9.353528,-10.632137 -0.617662,-1.795265 -0.941039,-3.840512 -0.607229,-3.840512 0.136399,0 1.199259,0.284725 2.36191,0.632722 4.095946,1.225971 7.485893,3.382003 9.488742,6.034911 0.582069,0.770988 1.869756,2.949691 2.861528,4.841561 1.977889,3.772952 2.047704,3.805364 0.570294,0.264764 -1.427005,-3.419807 -1.690786,-4.608831 -1.8783,-8.466666 -0.141009,-2.901089 -0.08004,-3.874521 0.389421,-6.217708 0.867277,-4.328756 2.796398,-8.615452 3.583279,-7.962399 0.892791,0.740951 3.060456,6.29299 3.582415,9.175642 0.827436,4.569714 0.214615,8.421273 -2.477247,15.569424 -0.971337,2.579354 -0.699883,2.777974 0.349784,0.255932 2.096401,-5.037039 3.925262,-7.684089 6.983691,-10.108029 2.065199,-1.636762 3.420488,-2.330187 6.333775,-3.240635 2.75169,-0.859947 3.068415,-0.722635 2.579975,1.118515 -0.894399,3.371389 -4.34221,8.599134 -6.862382,10.40509 -0.609214,0.436563 -1.426002,1.046051 -1.815086,1.354418 -0.389083,0.308367 -1.659924,1.058712 -2.824091,1.667432 -2.416799,1.263698 -2.310446,1.244228 1.295398,-0.237148 4.905154,-2.015168 9.080374,-2.277151 13.301115,-0.834606 2.547399,0.870637 2.744211,1.337216 1.165638,2.763362 -2.330053,2.105063 -6.975668,3.914561 -10.470484,4.078324 -2.103162,0.09855 -2.687345,0.01624 -5.002315,-0.704799 -1.441585,-0.44901 -2.664591,-0.772855 -2.71779,-0.719655 -0.0532,0.0532 0.970163,0.478362 2.274139,0.944805 2.763896,0.988671 4.948364,2.34774 6.681183,4.156704 1.640989,1.713099 3.987351,5.168594 3.702808,5.453137 -0.125058,0.125058 -1.101518,0.02668 -2.18518,-0.220154 -1.077503,-0.245431 -2.275148,-0.459213 -2.661434,-0.475071 -0.386286,-0.01586 -0.635559,-0.136885 -0.553939,-0.268948 0.08162,-0.132064 -0.108508,-0.172933 -0.422506,-0.09082 -0.365831,0.09567 -0.508392,0.04815 -0.396875,-0.132292 0.112577,-0.182152 -0.03668,-0.226484 -0.42268,-0.125543 -0.328191,0.08582 -0.523943,0.08328 -0.435004,-0.0057 0.08894,-0.08894 -0.575502,-0.555592 -1.476535,-1.037006 -0.901034,-0.481415 -1.688312,-0.82523 -1.749507,-0.764035 -0.0612,0.0612 0.585257,0.470657 1.43656,0.909915 0.851304,0.439258 1.428762,0.801596 1.283241,0.805196 -0.450397,0.01114 -2.909942,-1.423107 -2.918582,-1.701932 -0.0045,-0.144945 -0.785272,-1.037442 -1.735067,-1.983328 -0.949795,-0.945885 -2.033146,-2.339546 -2.407447,-3.097024 l -0.680547,-1.377233 -0.132591,1.509525 c -0.07293,0.830238 -0.03237,3.339065 0.09012,5.575171 0.260195,4.750008 -0.196212,9.406542 -1.054712,10.760804 -0.314265,0.495745 -0.321912,0.496262 -0.168019,0.01137 z"
         id="path21993" />
      <path
         style="fill:#4e7359;stroke-width:1.2415"
         d="m 65.344851,87.07934 c -0.03925,-0.07276 -0.136912,-3.81181 -0.217034,-8.309 l -0.145676,-8.176707 -1.425245,1.917404 c -1.617201,2.175648 -2.72027,3.060973 -5.671604,4.552043 -2.384525,1.204707 -7.880169,2.656039 -8.056323,2.127576 -0.05806,-0.174183 -0.214459,-0.249396 -0.347551,-0.167141 -1.194151,0.738026 2.301252,-4.246916 4.295327,-6.125746 0.633176,-0.596583 1.567948,-1.389334 2.077271,-1.761668 0.876057,-0.640432 4.870155,-2.328907 6.442624,-2.723571 0.399173,-0.100186 0.666144,-0.241782 0.593269,-0.314657 -0.07287,-0.07287 -1.694175,0.378018 -3.602889,1.001983 l -3.47039,1.134481 -2.64881,-0.268319 c -2.354271,-0.238484 -2.919632,-0.40546 -5.084349,-1.501634 -1.339548,-0.678323 -3.025396,-1.75236 -3.74633,-2.386749 L 43.026353,64.9242 43.95008,64.356409 c 1.19351,-0.73362 3.928813,-1.541593 5.979056,-1.766136 2.197324,-0.240651 5.904219,0.290818 7.731898,1.108545 4.431183,1.982571 5.221265,2.013852 1.321742,0.05233 -3.056362,-1.537398 -6.55859,-4.866839 -8.147845,-7.74586 -1.023166,-1.853521 -2.406004,-6.303636 -2.064823,-6.644816 0.26633,-0.266331 4.553975,1.124564 6.429938,2.085845 3.938316,2.018072 5.925171,4.292776 8.649225,9.902294 1.007002,2.073672 1.873365,3.770312 1.925251,3.770312 0.05189,0 -0.209818,-0.74414 -0.581564,-1.653645 -2.560591,-6.264676 -2.982146,-8.03427 -2.986934,-12.53848 -0.004,-3.721218 1.237596,-8.634029 2.849335,-11.274803 1.072058,-1.756525 1.199812,-1.72845 2.292877,0.503879 3.039828,6.208139 3.574834,12.12358 1.647512,18.216175 -0.506373,1.600729 -1.23239,3.735586 -1.613371,4.744126 -0.773966,2.048854 -0.801003,2.980432 -0.03413,1.175956 1.254077,-2.950882 3.141912,-6.56882 4.050674,-7.762908 1.307459,-1.717965 4.308769,-4.230932 6.196269,-5.188074 0.825302,-0.418507 2.34171,-0.994019 3.369796,-1.278916 1.028085,-0.284897 1.976457,-0.584255 2.107492,-0.665239 0.131035,-0.08098 0.377834,0.02095 0.548444,0.226523 0.401588,0.483884 0.01731,1.971611 -1.181881,4.575646 -1.373426,2.982381 -4.480653,6.720185 -6.788107,8.165676 -0.629087,0.394088 -1.204192,0.80782 -1.278012,0.919405 -0.07382,0.111586 -1.421867,0.819411 -2.995661,1.572946 -1.573794,0.753535 -2.805156,1.426351 -2.736361,1.495145 0.06879,0.0688 0.73885,-0.185938 1.48901,-0.566073 4.548295,-2.304795 9.030974,-3.470298 12.182438,-3.167449 3.286248,0.3158 6.614583,1.440647 6.614583,2.235469 0,0.758719 -2.040144,2.380342 -4.340534,3.450106 -3.283888,1.527125 -4.532676,1.862344 -7.285986,1.955816 -2.311763,0.07848 -2.369806,0.06926 -0.676604,-0.107536 l 1.852083,-0.193383 -2.513542,0.0065 c -2.018515,0.0053 -2.950678,-0.134118 -4.733144,-0.707696 -1.220781,-0.392834 -2.265606,-0.66824 -2.321833,-0.612013 -0.05623,0.05623 1.154475,0.549973 2.69045,1.097212 3.106921,1.106938 5.271271,2.402556 6.915508,4.139745 1.511929,1.597401 4.097102,5.331093 3.857261,5.570934 -0.236165,0.236165 -3.246995,-0.366316 -5.561223,-1.112827 -0.916587,-0.295667 -1.809556,-0.455512 -1.984375,-0.35521 -0.174819,0.100302 -0.227655,0.083 -0.117414,-0.03844 0.110241,-0.121445 -0.398132,-0.548138 -1.129716,-0.948208 -2.752845,-1.505403 -5.452992,-4.336667 -6.24165,-6.54474 l -0.34647,-0.97004 -0.04875,1.455208 c -0.02681,0.800365 -0.01828,3.809242 0.01895,6.686393 0.06554,5.064078 -0.322086,9.45319 -0.834853,9.45319 -0.119302,0 -0.22528,-0.20836 -0.235508,-0.463021 -0.0159,-0.395933 -0.05154,-0.386349 -0.245987,0.06615 -0.125065,0.291041 -0.259502,0.469635 -0.298748,0.396875 z m 0.760744,-12.090944 c -0.04766,-1.426387 -0.08687,-0.331243 -0.08713,2.433653 -2.54e-4,2.764895 0.03874,3.931939 0.08666,2.59343 0.04792,-1.338509 0.04813,-3.600697 4.62e-4,-5.027083 z m 12.028021,0.964103 c -0.479292,-0.435919 -0.804521,-0.900858 -0.72273,-1.033199 0.08179,-0.132341 -0.478561,-0.650153 -1.245226,-1.150695 -3.72261,-2.430423 -6.611583,-4.181687 -6.7198,-4.07347 -0.113278,0.113278 2.802337,2.354934 4.052103,3.115438 0.318077,0.193556 0.633391,0.562505 0.700698,0.819886 0.119624,0.457443 4.018254,3.137617 4.541812,3.12234 0.145521,-0.0042 -0.127565,-0.364381 -0.606857,-0.8003 z M 61.639741,70.614233 c 2.509845,-1.813843 2.84941,-2.240157 0.990915,-1.244063 -1.457696,0.781279 -7.834973,5.540669 -7.834973,5.847276 0,0.250783 1.839017,-0.986113 6.844058,-4.603213 z m -12.5326,-4.443999 c -2.957381,-0.608597 -3.178216,-0.606033 -1.852083,0.0215 0.691514,0.327229 1.608562,0.495217 2.645833,0.484672 l 1.5875,-0.01614 z m 12.832291,-2.871521 c 0,-0.127991 -0.565546,-0.687605 -1.25677,-1.243587 -0.691224,-0.555982 -1.056896,-0.778684 -0.812604,-0.494893 0.244291,0.283791 0.452651,0.60528 0.46302,0.714421 0.01037,0.10914 0.05141,0.168671 0.09121,0.132291 0.0398,-0.03638 0.359902,0.201745 0.711349,0.529167 0.707523,0.659158 0.803795,0.702588 0.803795,0.362601 z m 4.754397,-0.957914 c 0,-0.383624 -0.06059,-0.433619 -0.220299,-0.181774 -0.361673,0.570326 -0.563981,-3.207548 -0.583944,-10.904499 -0.01023,-3.943487 -0.110893,-7.406302 -0.2237,-7.695144 -0.259793,-0.665201 -0.164066,14.926994 0.107998,17.590792 0.111469,1.091407 0.261702,2.086384 0.333849,2.21106 0.183708,0.31746 0.586096,-0.383127 0.586096,-1.020435 z M 62.95481,62.055965 c -0.478272,-0.665982 -0.913047,-1.080492 -0.966166,-0.921134 -0.05312,0.159359 -2.231166,-1.754254 -4.840103,-4.252472 -2.608938,-2.498217 -4.800719,-4.485018 -4.870625,-4.415111 -0.255965,0.255965 10.889794,10.749766 11.463894,10.793327 0.04542,0.0034 -0.308728,-0.538628 -0.787,-1.20461 z M 58.618912,60.400232 C 58.480667,60.278806 57.761601,59.653728 57.020987,59.01117 l -1.346571,-1.168287 1.425053,1.389062 c 0.783779,0.763985 1.502845,1.389063 1.597925,1.389063 0.09508,0 0.05976,-0.09935 -0.07848,-0.220776 z m 14.808281,-2.160474 c 0.838668,-0.873125 1.379623,-1.5875 1.202121,-1.5875 -0.395111,0 -3.155314,2.83179 -2.95523,3.031874 0.07872,0.07872 0.16228,0.143126 0.185692,0.143126 0.02341,0 0.728749,-0.714375 1.567417,-1.5875 z m 3.954482,-2.451108 c 1.693224,-1.639151 3.07859,-3.186964 3.07859,-3.439583 0,-0.630091 -0.228745,-0.576233 -0.837031,0.197078 -0.283973,0.361013 -0.598765,0.64457 -0.699538,0.630126 -0.515496,-0.07388 -0.667839,0.07386 -0.315514,0.30599 0.320887,0.211419 -0.109706,0.740221 -2.248959,2.761891 -1.455208,1.375225 -2.513151,2.50589 -2.350985,2.512591 0.162166,0.0067 1.680213,-1.328942 3.373437,-2.968093 z m -2.883904,-0.621369 c 0.867972,-0.929513 1.724148,-1.690023 1.902614,-1.690023 0.178466,0 0.398068,-0.119062 0.488005,-0.264583 0.383997,-0.621321 -0.455309,-0.178438 -1.764333,0.930999 -1.40948,1.194575 -2.848401,2.93509 -2.839481,3.434626 0.0026,0.14552 0.146551,0.04283 0.319894,-0.228207 0.173344,-0.271034 1.025329,-1.2533 1.893301,-2.182812 z m 7.230812,-3.699719 c 0.60365,-0.578968 0.632988,-0.665138 0.18689,-0.548919 -0.291042,0.07582 -0.914754,0.21544 -1.386028,0.31026 -0.471274,0.09482 -0.924563,0.281943 -1.007308,0.415828 -0.08482,0.137236 0.152216,0.128355 0.543356,-0.02036 0.919086,-0.349435 1.007942,-0.335157 0.828258,0.133092 -0.220369,0.574273 0.02132,0.490343 0.834832,-0.289905 z"
         id="path22094" />
      <path
         style="fill:#3b814e;stroke-width:1.2415"
         d="m 75.896202,70.219192 c 0.472943,-0.05869 1.246849,-0.05869 1.719792,0 0.472943,0.05869 0.08599,0.106712 -0.859896,0.106712 -0.945885,0 -1.332838,-0.04802 -0.859896,-0.106712 z"
         id="path22191" />
      <path
         style="fill:#3b814e;stroke-width:1.2415"
         d="m 65.344851,87.07934 c -0.03925,-0.07276 -0.136912,-3.823229 -0.217034,-8.334375 l -0.145676,-8.202083 -0.872853,1.257129 c -2.445956,3.522794 -6.049396,5.775011 -11.199209,6.999712 -2.17562,0.517395 -3.003924,0.622491 -3.08111,0.390933 -0.05806,-0.174183 -0.214459,-0.249396 -0.347551,-0.167141 -1.218348,0.75298 2.524642,-4.529339 4.427733,-6.248667 1.349169,-1.218893 3.192984,-2.467766 4.193823,-2.840604 0.436563,-0.162631 1.74625,-0.651103 2.910417,-1.085493 3.007607,-1.122241 2.034083,-1.007628 -1.373892,0.161748 -2.609087,0.895254 -3.094054,0.978397 -5.539088,0.949618 -2.192047,-0.0258 -2.975784,-0.151155 -4.307096,-0.688896 -2.046703,-0.8267 -4.268426,-2.153224 -5.665329,-3.382598 l -1.079563,-0.950093 1.177276,-0.683933 c 0.647502,-0.376163 1.891651,-0.864426 2.764776,-1.085028 4.246507,-1.072918 7.432899,-0.792785 11.696013,1.028257 1.540616,0.658094 2.849868,1.147786 2.90945,1.088204 0.05958,-0.05958 -1.08682,-0.750619 -2.54756,-1.535639 -3.680778,-1.978095 -6.870754,-5.090804 -8.417666,-8.213777 -1.023963,-2.067221 -2.164136,-5.87261 -1.852828,-6.183918 0.255722,-0.255722 4.78238,1.248954 6.679257,2.220207 1.285761,0.658345 2.518932,1.616274 4.032926,3.132782 2.034963,2.038341 2.314251,2.459682 4.175225,6.298851 1.09691,2.262914 2.047349,4.114388 2.112087,4.114388 0.146825,0 -0.09362,-0.633902 -1.443005,-3.804289 -1.459044,-3.428032 -1.846342,-5.067893 -2.03848,-8.631127 -0.181146,-3.359383 0.09755,-5.613555 1.142411,-9.240243 0.655574,-2.275478 2.347859,-5.418481 2.775247,-5.15434 0.457451,0.28272 2.020839,3.705469 2.888936,6.324792 0.839503,2.533047 0.877147,2.820653 0.883084,6.746875 l 0.0062,4.101041 -1.64492,4.818181 c -0.904706,2.65 -1.640189,4.912188 -1.634406,5.027084 0.0058,0.114895 0.840994,-1.509036 1.856026,-3.608738 1.015033,-2.099701 2.324972,-4.452677 2.910978,-5.228836 2.154287,-2.853332 6.359235,-5.668497 9.642273,-6.455392 0.727604,-0.174395 1.526277,-0.420504 1.774828,-0.546908 0.688423,-0.350107 1.047335,0.521257 0.713183,1.731457 -0.415145,1.503531 -1.720397,4.276987 -2.663296,5.659087 -1.171238,1.716797 -3.812312,4.44875 -5.248673,5.429279 -0.654844,0.447028 -1.250156,0.895225 -1.322917,0.995992 -0.07276,0.100768 -1.424555,0.800737 -3.003989,1.555487 -1.579434,0.754749 -2.818595,1.425374 -2.753692,1.490277 0.0649,0.0649 1.119042,-0.350609 2.342531,-0.923362 4.917777,-2.302161 8.647691,-3.127241 12.114695,-2.679847 3.254242,0.419939 5.852538,1.368709 5.852538,2.137058 0,1.072645 -4.125326,3.66431 -7.672916,4.820377 -1.963529,0.639864 -7.529845,0.368206 -10.137093,-0.494729 -3.033163,-1.003902 -2.736099,-0.61844 0.41529,0.538869 3.266488,1.199578 4.433426,1.849768 6.248034,3.481258 1.289134,1.159042 4.456212,5.287823 4.600128,5.996987 0.158182,0.779457 -5.267155,-0.546045 -8.436603,-2.061205 -2.502456,-1.196304 -5.117802,-3.729805 -6.19005,-5.996338 l -0.786788,-1.663122 -0.03865,1.190625 c -0.02126,0.654844 -0.05112,3.988594 -0.06635,7.408333 -0.027,6.059415 -0.263984,8.995833 -0.726016,8.995833 -0.125251,0 -0.236097,-0.20836 -0.246325,-0.463021 -0.0159,-0.395933 -0.05154,-0.386349 -0.245987,0.06615 -0.125065,0.291041 -0.259502,0.469635 -0.298748,0.396875 z m 0.760744,-12.090944 c -0.04766,-1.426387 -0.08687,-0.331243 -0.08713,2.433653 -2.54e-4,2.764895 0.03874,3.931939 0.08666,2.59343 0.04792,-1.338509 0.04813,-3.600697 4.62e-4,-5.027083 z m 12.028021,0.964103 c -0.479292,-0.435919 -0.804521,-0.900858 -0.72273,-1.033199 0.08179,-0.132341 -0.478561,-0.650153 -1.245226,-1.150695 -3.72261,-2.430423 -6.611583,-4.181687 -6.7198,-4.07347 -0.113278,0.113278 2.802337,2.354934 4.052103,3.115438 0.318077,0.193556 0.633391,0.562505 0.700698,0.819886 0.119624,0.457443 4.018254,3.137617 4.541812,3.12234 0.145521,-0.0042 -0.127565,-0.364381 -0.606857,-0.8003 z M 61.639741,70.614233 c 2.509845,-1.813843 2.84941,-2.240157 0.990915,-1.244063 -1.457696,0.781279 -7.834973,5.540669 -7.834973,5.847276 0,0.250783 1.839017,-0.986113 6.844058,-4.603213 z m -12.5326,-4.443999 c -2.957381,-0.608597 -3.178216,-0.606033 -1.852083,0.0215 0.691514,0.327229 1.608562,0.495217 2.645833,0.484672 l 1.5875,-0.01614 z m 12.832291,-2.871521 c 0,-0.127991 -0.565546,-0.687605 -1.25677,-1.243587 -0.691224,-0.555982 -1.056896,-0.778684 -0.812604,-0.494893 0.244291,0.283791 0.452651,0.60528 0.46302,0.714421 0.01037,0.10914 0.05141,0.168671 0.09121,0.132291 0.0398,-0.03638 0.359902,0.201745 0.711349,0.529167 0.707523,0.659158 0.803795,0.702588 0.803795,0.362601 z m 4.754397,-0.957914 c 0,-0.383624 -0.06059,-0.433619 -0.220299,-0.181774 -0.361673,0.570326 -0.563981,-3.207548 -0.583944,-10.904499 -0.01023,-3.943487 -0.110893,-7.406302 -0.2237,-7.695144 -0.259793,-0.665201 -0.164066,14.926994 0.107998,17.590792 0.111469,1.091407 0.261702,2.086384 0.333849,2.21106 0.183708,0.31746 0.586096,-0.383127 0.586096,-1.020435 z M 62.95481,62.055965 c -0.478272,-0.665982 -0.913047,-1.080492 -0.966166,-0.921134 -0.05312,0.159359 -2.231166,-1.754254 -4.840103,-4.252472 -2.608938,-2.498217 -4.800719,-4.485018 -4.870625,-4.415111 -0.255965,0.255965 10.889794,10.749766 11.463894,10.793327 0.04542,0.0034 -0.308728,-0.538628 -0.787,-1.20461 z M 58.618912,60.400232 C 58.480667,60.278806 57.761601,59.653728 57.020987,59.01117 l -1.346571,-1.168287 1.425053,1.389062 c 0.783779,0.763985 1.502845,1.389063 1.597925,1.389063 0.09508,0 0.05976,-0.09935 -0.07848,-0.220776 z m 14.808281,-2.160474 c 0.838668,-0.873125 1.379623,-1.5875 1.202121,-1.5875 -0.395111,0 -3.155314,2.83179 -2.95523,3.031874 0.07872,0.07872 0.16228,0.143126 0.185692,0.143126 0.02341,0 0.728749,-0.714375 1.567417,-1.5875 z m 3.954482,-2.451108 c 1.693224,-1.639151 3.07859,-3.186964 3.07859,-3.439583 0,-0.630091 -0.228745,-0.576233 -0.837031,0.197078 -0.283973,0.361013 -0.598765,0.64457 -0.699538,0.630126 -0.515496,-0.07388 -0.667839,0.07386 -0.315514,0.30599 0.320887,0.211419 -0.109706,0.740221 -2.248959,2.761891 -1.455208,1.375225 -2.513151,2.50589 -2.350985,2.512591 0.162166,0.0067 1.680213,-1.328942 3.373437,-2.968093 z m -2.883904,-0.621369 c 0.867972,-0.929513 1.724148,-1.690023 1.902614,-1.690023 0.178466,0 0.398068,-0.119062 0.488005,-0.264583 0.383997,-0.621321 -0.455309,-0.178438 -1.764333,0.930999 -1.40948,1.194575 -2.848401,2.93509 -2.839481,3.434626 0.0026,0.14552 0.146551,0.04283 0.319894,-0.228207 0.173344,-0.271034 1.025329,-1.2533 1.893301,-2.182812 z m 7.230812,-3.699719 c 0.60365,-0.578968 0.632988,-0.665138 0.18689,-0.548919 -0.291042,0.07582 -0.914754,0.21544 -1.386028,0.31026 -0.471274,0.09482 -0.924563,0.281943 -1.007308,0.415828 -0.08482,0.137236 0.152216,0.128355 0.543356,-0.02036 0.919086,-0.349435 1.007942,-0.335157 0.828258,0.133092 -0.220369,0.574273 0.02132,0.490343 0.834832,-0.289905 z"
         id="path22190" />
      <path
         style="fill:#307648;stroke-width:1.2415"
         d="m 76.165524,70.218839 c 0.475549,-0.05889 1.189924,-0.05767 1.5875,0.0027 0.397576,0.06037 0.0085,0.10855 -0.864634,0.107065 -0.873125,-0.0015 -1.198415,-0.05088 -0.722866,-0.109765 z"
         id="path22288" />
      <path
         style="fill:#307648;stroke-width:1.2415"
         d="m 65.356327,87.07934 c -0.04149,-0.07276 -0.142655,-3.823229 -0.224811,-8.334375 l -0.149375,-8.202083 -0.872853,1.257129 c -2.427147,3.495705 -5.89951,5.667674 -11.146175,6.971953 -2.246288,0.55841 -3.051014,0.668082 -3.131452,0.426769 -0.05954,-0.178625 -0.217151,-0.257473 -0.350243,-0.175218 -1.245236,0.769598 2.538651,-4.541995 4.494256,-6.308767 0.608313,-0.549574 1.212037,-0.933705 1.341609,-0.853626 0.129572,0.08008 0.32174,0.0062 0.427039,-0.164179 0.126963,-0.20543 0.06628,-0.244837 -0.180155,-0.116987 -0.204385,0.106036 -0.145709,0.0092 0.13039,-0.215228 0.2761,-0.224411 0.621918,-0.333906 0.768485,-0.243323 0.146567,0.09058 0.192621,0.04518 0.102343,-0.100891 -0.231616,-0.374762 1.491849,-1.188578 4.977172,-2.350212 1.018646,-0.339507 1.650551,-0.622613 1.404234,-0.629124 -0.246318,-0.0065 -1.734599,0.429684 -3.307292,0.969321 -2.609087,0.895254 -3.094054,0.978397 -5.539088,0.949618 -2.192047,-0.0258 -2.975784,-0.151155 -4.307096,-0.688896 -2.046703,-0.8267 -4.268426,-2.153224 -5.665329,-3.382598 l -1.079563,-0.950093 1.177276,-0.683933 c 0.647502,-0.376163 1.891651,-0.864426 2.764776,-1.085028 4.349618,-1.09897 7.444443,-0.800765 11.981076,1.154447 1.683516,0.725567 3.106019,1.274132 3.161118,1.219032 0.0551,-0.0551 -1.24576,-0.822321 -2.890799,-1.704937 -5.440273,-2.918883 -8.909952,-7.16322 -10.151579,-12.41807 -0.250154,-1.058709 -0.390737,-1.989014 -0.312407,-2.067345 0.255722,-0.255722 4.78238,1.248954 6.679257,2.220207 1.285918,0.658426 2.518962,1.616307 4.033628,3.133493 2.045532,2.048936 2.312783,2.45402 4.286538,6.497289 1.157747,2.371663 2.110818,4.210352 2.117935,4.085976 0.0071,-0.124376 -0.585678,-1.649307 -1.317324,-3.388735 -1.730508,-4.114149 -2.083789,-5.541099 -2.282024,-9.217418 -0.179975,-3.337678 0.09795,-5.614624 1.11729,-9.153556 0.646967,-2.246134 2.381537,-5.499879 2.79557,-5.243993 0.461714,0.285355 2.021743,3.696689 2.893734,6.327758 0.840115,2.534894 0.877053,2.81779 0.880946,6.746875 l 0.0041,4.101041 -1.642783,4.810045 c -0.903531,2.645524 -1.638052,4.907712 -1.632269,5.027083 0.0058,0.119371 0.840994,-1.500899 1.856026,-3.600601 1.015033,-2.099701 2.324972,-4.452677 2.910978,-5.228836 2.154287,-2.853332 6.359235,-5.668497 9.642273,-6.455392 0.727604,-0.174395 1.524919,-0.419778 1.771811,-0.545294 0.65185,-0.33139 0.983466,0.420379 0.714158,1.618984 -0.310147,1.380361 -1.653295,4.292482 -2.661254,5.769946 -1.171238,1.716797 -3.812312,4.44875 -5.248673,5.429279 -0.654844,0.447028 -1.250156,0.895225 -1.322917,0.995992 -0.07276,0.100768 -1.424555,0.800737 -3.003989,1.555487 -1.579434,0.754749 -2.818595,1.425374 -2.753692,1.490277 0.0649,0.0649 1.119042,-0.350609 2.342531,-0.923362 4.917777,-2.302161 8.647691,-3.127241 12.114695,-2.679847 3.254242,0.419939 5.852538,1.368709 5.852538,2.137058 0,1.081356 -3.734059,3.444738 -7.477386,4.732631 -1.293607,0.445067 -1.871725,0.476976 -5.25627,0.290119 -2.789457,-0.154003 -4.222481,-0.359856 -5.377743,-0.772508 -0.866218,-0.309407 -1.682558,-0.526687 -1.814089,-0.482843 -0.13153,0.04384 0.993912,0.532583 2.500984,1.086087 3.296677,1.210777 4.460025,1.857935 6.277819,3.492289 1.289134,1.159042 4.456212,5.287823 4.600128,5.996987 0.15856,0.781318 -5.269173,-0.546981 -8.451153,-2.068204 -2.459653,-1.175897 -5.128326,-3.775848 -6.199296,-6.039656 l -0.762992,-1.612805 -0.03865,1.190625 c -0.02126,0.654844 -0.05112,3.988594 -0.06635,7.408333 -0.027,6.059415 -0.263984,8.995833 -0.726016,8.995833 -0.125251,0 -0.239597,-0.267891 -0.254102,-0.595313 -0.0253,-0.57112 -0.03498,-0.568432 -0.23821,0.06615 -0.11651,0.363802 -0.245782,0.601927 -0.287272,0.529167 z m 0.841192,-10.544142 -0.208483,-4.933982 -0.01769,5.688541 c -0.01098,3.532075 0.06805,5.402496 0.208483,4.933982 0.124393,-0.415007 0.132351,-2.974851 0.01769,-5.688541 z m 14.148431,0.820705 c -0.827418,-1.533893 -2.237369,-2.761607 -5.04506,-4.392983 -1.600729,-0.930086 -3.617787,-2.122974 -4.482351,-2.650864 -2.836552,-1.731954 -2.513544,-1.11876 0.645893,1.226156 0.654844,0.486022 1.131094,0.957991 1.058333,1.04882 -0.130945,0.163464 0.18137,0.396147 3.890258,2.898338 1.758508,1.186373 2.465901,1.804387 2.065343,1.804387 -0.347274,0 -1.923064,-0.925911 -3.274661,-1.924143 -0.781056,-0.576854 -2.328868,-1.574071 -3.439583,-2.216038 l -2.019482,-1.167212 1.411417,1.334365 c 2.62099,2.477906 3.248033,2.835431 7.452125,4.24902 2.052805,0.690238 2.212869,0.670909 1.737768,-0.209846 z M 53.083522,76.703754 c 0.115225,0.10402 0.11597,0.02754 0.0017,-0.169947 -0.158227,-0.273354 -0.07313,-0.316317 0.356476,-0.179967 0.360401,0.114387 1.089435,-0.0613 2.017508,-0.486183 1.477908,-0.676608 2.053639,-0.50805 0.725584,0.212432 -1.118916,0.607022 -0.508731,0.487966 1.064126,-0.207626 2.716654,-1.201433 5.661466,-3.856483 7.315483,-6.595658 l 0.60474,-1.001494 -1.284101,0.514283 c -4.857081,1.945264 -5.738935,2.47304 -9.353894,5.59817 -2.479835,2.143817 -3.224844,2.965905 -2.182067,2.407828 0.288745,-0.154532 0.619266,-0.195859 0.73449,-0.09184 z m 3.027147,-1.917982 c 0.30794,-0.371046 4.409886,-3.342793 7.495674,-5.43041 0.529007,-0.357887 0.551515,-0.354941 0.24699,0.03233 -0.184282,0.234352 -1.017719,0.897222 -1.852083,1.473044 -0.834364,0.575821 -2.587323,1.798439 -3.895463,2.716929 -1.308141,0.91849 -2.205944,1.46214 -1.995118,1.208111 z m 6.144276,-7.521668 c 0.246292,-0.08844 -1.658707,-0.14732 -4.233333,-0.130839 -2.574626,0.01648 -4.502544,-0.0364 -4.284263,-0.117511 0.347865,-0.129264 -3.121436,-0.779361 -6.614583,-1.239477 -1.144976,-0.150817 -1.165,-0.141931 -0.522281,0.231767 1.492195,0.867612 4.095428,1.311521 8.724364,1.487699 4.440233,0.168997 5.955462,0.11835 6.930096,-0.231639 z m 8.349591,0.318269 c -0.812437,-0.212312 -0.496575,-0.509026 0.427084,-0.401194 0.489557,0.05715 1.82901,-0.08692 2.976562,-0.320163 1.147552,-0.233243 3.588647,-0.538095 5.424656,-0.677448 5.408559,-0.410511 6.999244,-0.705764 5.789926,-1.074689 -1.032641,-0.315027 -4.116088,-0.268401 -6.948011,0.105063 -1.420313,0.187305 -2.651739,0.272317 -2.736502,0.188915 -0.08476,-0.0834 0.660592,-0.350285 1.656345,-0.593072 0.995753,-0.242787 1.496358,-0.451146 1.112454,-0.463021 -0.77226,-0.02389 -4.935311,1.11295 -6.18116,1.687937 -0.436562,0.201483 -1.150937,0.453379 -1.5875,0.559767 -0.436562,0.106388 -0.878686,0.3239 -0.982498,0.48336 -0.19644,0.301744 0.427436,0.65859 1.11479,0.637641 0.269056,-0.0082 0.247753,-0.05106 -0.06615,-0.133096 z m 7.45243,-0.251017 c 0.225433,-0.195827 -2.246747,-0.05029 -2.756076,0.162245 -0.319495,0.133323 0.09985,0.1639 1.058333,0.07717 0.873125,-0.07901 1.63711,-0.186743 1.697743,-0.239415 z m 5.972143,-0.505854 c 1.311144,-0.321517 1.314991,-0.325473 0.344567,-0.354404 -1.362911,-0.04063 -4.971745,0.519424 -4.971745,0.771566 0,0.266578 2.908032,0.0044 4.627178,-0.417162 z m -21.47131,-3.294319 c -0.121821,-0.112804 -1.173992,-1.004185 -2.338158,-1.980847 -2.519111,-2.113375 -6.711173,-6.168523 -8.003753,-7.742349 -1.562876,-1.902933 -1.985485,-1.164305 -0.540408,0.944516 1.084052,1.581974 3.93948,5.074373 4.150182,5.075979 0.08835,6.74e-4 0.528789,0.346316 0.978741,0.768095 0.449953,0.421779 1.342922,1.013379 1.984375,1.314667 0.641454,0.301288 1.702061,0.893344 2.356904,1.31568 0.654844,0.422335 1.290296,0.709714 1.412117,0.63862 0.12182,-0.07109 0.12182,-0.221556 0,-0.334361 z m 6.791774,-0.362885 c 9.95e-4,-0.164082 0.395117,-0.566086 0.875827,-0.893342 1.061004,-0.722305 1.180477,-0.829443 6.074665,-5.447494 3.802041,-3.587526 5.195645,-4.529492 3.30282,-2.232444 -1.138764,1.381952 -1.408052,1.658418 -5.446559,5.59171 -2.472137,2.407731 -3.052216,3.095341 -2.493688,2.955949 0.400309,-0.09991 0.906429,-0.336882 1.12471,-0.526613 0.218282,-0.189731 0.639217,-0.418495 0.935413,-0.508363 0.296196,-0.08987 1.070102,-0.636353 1.719792,-1.214411 0.649689,-0.578057 1.278302,-1.054393 1.396917,-1.058523 0.118615,-0.0041 0.871562,-0.684709 1.673215,-1.512398 1.025346,-1.058646 1.850615,-2.309636 2.783101,-4.218782 0.729053,-1.492641 1.285794,-2.884226 1.237202,-3.092411 -0.205846,-0.88192 -4.855344,0.963497 -7.31884,2.904896 -1.925061,1.517077 -2.836324,2.824089 -5.840657,8.377177 -0.919008,1.698657 -0.998274,1.980525 -0.422601,1.502759 0.218282,-0.181158 0.397689,-0.463627 0.398683,-0.62771 z M 67.119209,61.7868 c 0.325455,-0.870261 0.657453,-2.173189 0.737771,-2.895396 0.08032,-0.722207 0.07936,-1.087463 -0.0021,-0.81168 -0.11938,0.403995 -0.193586,0.4297 -0.381906,0.132292 -0.185014,-0.292188 -0.23458,-0.268678 -0.237787,0.112787 -0.0022,0.265055 -0.171081,0.648949 -0.375228,0.853096 -0.318513,0.318513 -0.401917,0.306447 -0.587839,-0.08504 -0.249053,-0.524425 -0.307697,-9.461251 -0.07765,-11.833304 0.09489,-0.978483 0.18371,0.315678 0.23151,3.373438 0.107006,6.845129 0.115117,7.005323 0.367289,7.253992 0.122975,0.121268 0.188418,0.04189 0.145429,-0.176389 -0.142363,-0.722867 0.317092,-2.50488 0.54906,-2.129548 0.158542,0.256527 0.264425,0.190696 0.404836,-0.251702 0.144454,-0.455132 0.243311,-0.513055 0.411414,-0.241058 0.380024,0.614892 0.502072,0.149648 0.575669,-2.19444 0.03919,-1.248125 0.160547,-2.215739 0.269688,-2.150253 0.532223,0.31934 -0.227844,-4.055307 -1.110996,-6.394456 -0.829869,-2.198022 -1.613531,-3.836458 -1.834973,-3.836458 -0.115076,0 -0.431137,0.652842 -0.702357,1.45076 -0.271221,0.797919 -0.569001,1.327998 -0.661733,1.177954 -0.09273,-0.150044 -0.396178,0.536567 -0.674325,1.525801 -0.391958,1.394013 -0.50572,2.661619 -0.50572,5.635067 0,4.250815 0.353993,6.648434 1.491896,10.104718 0.416384,1.264731 0.757062,2.495043 0.757062,2.734028 0,0.890568 0.638589,0.17648 1.211027,-1.354204 z m -2.038544,-5.465271 c -0.01857,-0.472943 -0.0591,-1.098021 -0.09006,-1.389063 -0.03096,-0.291041 0.0243,-2.374635 0.12281,-4.630208 l 0.179106,-4.101041 0.04325,5.490104 c 0.02379,3.019557 -0.01628,5.490104 -0.08904,5.490104 -0.07276,0 -0.147487,-0.386953 -0.166059,-0.859896 z m -1.44607,6.614583 c -0.103483,-0.181901 -0.328458,-0.509323 -0.499943,-0.727604 -0.171486,-0.218281 -0.513914,-0.945409 -0.76095,-1.615838 -0.767284,-2.08232 -4.285217,-6.382258 -6.248711,-7.637742 -0.658359,-0.420963 -2.342489,-1.173812 -3.742511,-1.672998 -2.336414,-0.833061 -2.534422,-0.865266 -2.410682,-0.392082 0.07415,0.283541 0.296886,0.577722 0.494974,0.653735 0.198089,0.07601 0.360161,0.316801 0.360161,0.535082 0,0.227329 0.154845,0.337455 0.362462,0.257785 0.218946,-0.08402 2.179374,1.586728 4.951205,4.219588 2.523808,2.397272 5.158669,4.793308 5.855246,5.324525 0.696576,0.531216 1.266503,1.060445 1.266503,1.176063 0,0.115618 0.126089,0.210215 0.280198,0.210215 0.154109,0 0.195531,-0.148828 0.09205,-0.330729 z m -5.241689,-5.011544 c -2.788487,-2.814855 -2.657757,-2.705014 2.48218,2.085547 0.360495,0.335991 0.550495,0.610893 0.422223,0.610893 -0.128272,0 -1.435254,-1.213398 -2.904403,-2.69644 z"
         id="path22287" />
      <path
         style="fill:#105032;stroke-width:1.2415"
         d="m 65.570919,84.597075 c -0.353669,-1.718177 -0.456487,-3.569522 -0.456487,-8.21953 v -6.001848 l -1.444489,1.920135 c -0.794469,1.056074 -1.955328,2.32608 -2.579687,2.822234 -1.470477,1.168531 -4.115637,2.505989 -4.493885,2.272219 -0.164964,-0.101954 -0.221532,-0.0635 -0.128358,0.08726 0.203138,0.328684 -4.963015,1.764949 -5.676909,1.578262 -0.271336,-0.07096 -0.493338,-0.01407 -0.493338,0.126417 0,0.140486 -0.127179,0.176827 -0.282621,0.08076 -0.155441,-0.09607 -0.212247,-0.35806 -0.126234,-0.582205 0.13557,-0.353291 0.09599,-0.358533 -0.297335,-0.03938 -0.620444,0.503433 -0.393371,0.12301 1.517467,-2.542264 1.697537,-2.367756 2.365003,-3.045401 3.629145,-3.684485 0.50936,-0.257506 0.793354,-0.560757 0.686724,-0.733288 -0.109693,-0.177486 -0.06152,-0.219846 0.121423,-0.10678 0.168642,0.104228 0.620685,-0.130023 1.018402,-0.52774 0.782129,-0.782129 2.57364,-1.57898 5.636509,-2.50708 1.089882,-0.330253 1.825303,-0.65256 1.634268,-0.716238 -0.191035,-0.06368 -2.138745,0.452933 -4.328244,1.148024 l -3.980908,1.263804 -2.499474,-0.29249 C 51.265811,69.73678 50.030167,69.417683 48.844236,68.862719 46.541228,67.785011 43.891487,65.953208 44.114232,65.5928 c 0.101282,-0.163879 0.05951,-0.216657 -0.09561,-0.120791 -0.151516,0.09364 -0.412347,0.0054 -0.579623,-0.196206 -0.242075,-0.291682 -0.126712,-0.474781 0.565334,-0.897267 1.779131,-1.086139 4.396937,-1.690769 7.351763,-1.698021 3.351882,-0.0082 4.73367,0.292717 7.526459,1.639213 5.111659,2.4645 5.528858,2.148595 0.540811,-0.409504 -2.532926,-1.299001 -3.382331,-1.899944 -4.92963,-3.487651 -1.028176,-1.055026 -1.946403,-1.919493 -2.040505,-1.921039 -0.0941,-0.0015 -0.667494,-0.873897 -1.274205,-1.93856 -1.153883,-2.024846 -2.005266,-4.300324 -2.331524,-6.231425 -0.179468,-1.062265 -0.156034,-1.129245 0.34,-0.97181 0.293015,0.093 1.404889,0.41077 2.470831,0.706158 3.17572,0.880037 5.384999,2.188996 7.832613,4.640686 2.065474,2.068913 2.300824,2.429215 4.416857,6.761872 1.229322,2.517083 2.241842,4.477661 2.250044,4.356842 0.0082,-0.12082 -0.632215,-1.74074 -1.423152,-3.599823 -1.831566,-4.305065 -2.250717,-5.957616 -2.440025,-9.620074 -0.232319,-4.494586 0.889681,-9.972069 2.558351,-12.489596 0.385817,-0.582084 0.780221,-1.274239 0.876453,-1.538124 0.258702,-0.709409 0.62114,-0.342303 1.603305,1.623956 2.476483,4.957829 3.370774,10.594898 2.412194,15.205009 -0.392716,1.888695 -1.677803,5.907319 -2.746232,8.587803 -1.069057,2.682059 -0.146853,1.351658 1.554254,-2.242216 2.040304,-4.310486 3.336117,-6.153169 5.695728,-8.099486 2.462978,-2.031579 4.733049,-3.101175 8.857371,-4.173353 1.137745,-0.295773 0.130054,3.598528 -1.718636,6.6418 -1.162491,1.913666 -4.056851,5.05789 -5.65938,6.147941 -0.671518,0.456772 -1.28129,0.917601 -1.355049,1.024065 -0.07376,0.106464 -1.47419,0.817328 -3.11207,1.579697 -1.63788,0.762369 -2.922577,1.441513 -2.854881,1.509209 0.0677,0.0677 1.514956,-0.495717 3.216134,-1.252028 1.701179,-0.756311 3.998723,-1.612211 5.105655,-1.902001 3.505913,-0.917831 8.088669,-0.647332 10.833771,0.639469 1.471416,0.689744 1.608721,1.10063 0.688698,2.060927 -0.801799,0.836898 -1.47649,1.079138 -0.87716,0.314934 0.328604,-0.419002 0.319384,-0.428729 -0.09698,-0.102312 -0.253059,0.198389 -0.401145,0.456111 -0.32908,0.572714 0.07206,0.116604 -0.256668,0.449959 -0.730518,0.740791 -1.085985,0.666538 -5.345986,2.433058 -5.807504,2.408232 -0.190138,-0.01023 -0.107581,-0.131121 0.18346,-0.26865 0.404676,-0.191226 0.342431,-0.208331 -0.264583,-0.07271 -0.436562,0.09754 -2.212175,0.210349 -3.945805,0.250688 -2.755306,0.06411 -3.416159,-0.01009 -5.250284,-0.589487 -1.154026,-0.364557 -2.149867,-0.611192 -2.212981,-0.548078 -0.06311,0.06311 0.811233,0.443016 1.942992,0.844226 4.986194,1.767614 7.377268,3.551853 10.113379,7.546682 l 1.630726,2.380924 -0.87443,-6.68e-4 c -1.538928,-0.0012 -5.767465,-1.294547 -7.957562,-2.433961 -2.5324,-1.317499 -4.890486,-3.605605 -5.997507,-5.819521 -0.707818,-1.415557 -0.76256,-1.463857 -0.899626,-0.79375 -0.08027,0.392439 -0.07394,3.244814 0.01406,6.338612 0.115495,4.060185 0.0628,6.249999 -0.189424,7.871353 -0.19219,1.235447 -0.422486,2.246267 -0.511771,2.246267 -0.08929,0 -0.367756,-0.997956 -0.618824,-2.217681 z m 0.655622,-8.788335 -0.235965,-6.853358 -0.0412,7.130521 c -0.02871,4.969428 0.04281,7.046519 0.235966,6.853358 0.191111,-0.191111 0.203901,-2.404944 0.0412,-7.130521 z m 14.610171,2.30782 c 0.379553,-0.614129 -2.198587,-3.285414 -4.833356,-5.007979 -0.822919,-0.538009 -1.536151,-1.068237 -1.58496,-1.178285 -0.04881,-0.110047 -0.197637,-0.132786 -0.330729,-0.05053 -0.133092,0.08226 -0.241985,0.02347 -0.241985,-0.130643 0,-0.154109 -0.0893,-0.251661 -0.198438,-0.216783 -0.10914,0.03488 -1.103221,-0.434598 -2.209069,-1.043281 -2.979819,-1.640159 -4.194305,-1.81028 -2.88416,-0.404004 0.291042,0.312397 0.529167,0.75951 0.529167,0.993585 0,1.014618 2.947447,3.813614 5.291666,5.025146 0.884511,0.457131 5.753911,2.236061 6.135948,2.241637 0.100552,0.0015 0.247214,-0.10152 0.325916,-0.228863 z M 54.140013,77.176489 c 2.167579,-0.281643 6.762503,-3.001516 8.593215,-5.086582 1.094558,-1.246633 2.381204,-3.256159 2.381204,-3.719042 0,-0.272852 -0.215651,-0.253788 -0.992187,0.08771 -0.545703,0.239985 -1.706563,0.731244 -2.579688,1.091687 -2.093948,0.864423 -6.202155,3.623202 -8.268228,5.552352 -1.811442,1.691394 -2.139038,2.513998 -0.926042,2.325318 0.400182,-0.06225 1.206459,-0.175398 1.791726,-0.251444 z m 2.904628,-8.759665 c 1.788715,-0.208284 5.199141,-0.93175 5.688541,-1.206731 0.233956,-0.131454 -1.069395,-0.246822 -3.174999,-0.281038 -3.445621,-0.05599 -3.487706,-0.06329 -1.190625,-0.206483 l 2.381249,-0.148439 -1.058333,-0.488019 c -1.982109,-0.913991 -5.843091,-1.536038 -9.830439,-1.583794 -3.631458,-0.04349 -4.595698,0.116097 -3.787939,0.626939 0.28723,0.18165 0.298462,0.247207 0.04287,0.250197 -0.591175,0.0069 -0.06883,0.513091 1.224436,1.186533 0.681216,0.35473 1.059981,0.65233 0.8417,0.661334 -0.748296,0.03087 0.300498,0.503261 1.82442,0.82175 1.007283,0.210514 1.318851,0.367947 1.058333,0.534766 -0.374012,0.239495 3.393168,0.134295 5.980788,-0.167015 z m 25.99857,-0.494745 c 0.895547,-0.300117 1.88677,-0.929858 2.778125,-1.764989 l 1.385803,-1.298393 -1.190625,-0.02077 c -0.835149,-0.01457 -1.036866,-0.08095 -0.675627,-0.222311 0.476969,-0.186653 0.4672,-0.21432 -0.132291,-0.374666 -0.35601,-0.09522 -2.135571,-0.17467 -3.954581,-0.176553 -3.55386,-0.0037 -6.162741,0.527184 -9.744619,1.982865 -0.921156,0.374359 -2.171312,0.748468 -2.778125,0.831352 -0.606814,0.08289 -1.129812,0.174019 -1.162219,0.202519 -0.18875,0.165997 5.858992,1.484354 7.07038,1.541283 2.710686,0.127388 7.000667,-0.230119 8.403779,-0.700333 z M 69.876932,64.257311 c 0.654844,-0.366942 1.666875,-0.814495 2.248958,-0.994561 0.582083,-0.180066 1.236927,-0.476577 1.455208,-0.658912 0.218282,-0.182335 0.755536,-0.512897 1.1939,-0.734582 1.0932,-0.552842 4.56483,-4.140956 5.609348,-5.797561 0.937811,-1.487365 2.568626,-5.217008 2.368627,-5.417006 -0.204967,-0.204967 -3.663502,0.731714 -4.80625,1.301685 -2.055457,1.025206 -4.672216,3.418621 -6.001906,5.489634 -0.700735,1.091406 -1.27408,2.076038 -1.274099,2.18807 -2e-5,0.112033 -0.320638,0.707345 -0.712486,1.322917 -1.107493,1.739814 -2.727133,4.734144 -2.727133,5.041822 0,0.152594 0.327422,-0.02671 0.727604,-0.398448 0.400182,-0.37174 1.263385,-0.976116 1.918229,-1.343058 z m -0.529167,-0.438736 c 0,-0.147693 0.20836,-0.381356 0.463021,-0.519252 0.254662,-0.137895 2.248958,-2.05596 4.431771,-4.262366 4.735399,-4.786582 6.153485,-5.80252 2.26976,-1.626089 -2.769207,2.977915 -7.164552,6.908947 -7.164552,6.407707 z M 64.278291,64.9024 c -0.198522,-0.283429 -1.014338,-1.024462 -1.812925,-1.646738 -1.864528,-1.452881 -6.455874,-6.053324 -6.248409,-6.260789 0.08714,-0.08714 1.144577,0.782388 2.349858,1.932286 2.674691,2.551787 5.615195,5.093641 5.466408,4.725316 -0.832503,-2.060882 -2.954651,-5.726974 -4.287529,-7.406869 -2.191923,-2.762594 -3.85752,-3.93657 -7.165688,-5.050649 -2.507701,-0.844509 -3.849652,-1.13567 -3.18115,-0.69021 0.160443,0.106913 0.4917,0.802201 0.736126,1.545085 0.244426,0.742885 0.809454,1.926313 1.255619,2.629842 2.057886,3.24495 6.164356,7.303767 7.922436,7.8305 0.535297,0.160379 1.663037,0.807525 2.506089,1.438101 0.843052,0.630577 1.618234,1.093716 1.722627,1.029198 0.104392,-0.06452 0.339324,0.06285 0.52207,0.28305 0.469471,0.565678 0.650175,0.263936 0.214468,-0.358123 z M 52.811308,64.060591 c -0.291042,-0.125065 -1.005417,-0.217877 -1.5875,-0.206248 l -1.058333,0.02114 1.190625,0.185106 c 1.694305,0.263413 2.068202,0.263413 1.455208,0 z m 14.175016,-1.494953 c 0.624289,-1.615536 1.531464,-5.105151 1.967522,-7.568439 0.833153,-4.706468 0.27038,-8.52647 -2.002429,-13.592133 -0.650223,-1.449224 -0.84828,-1.693148 -1.162816,-1.432106 -0.464217,0.385266 -1.868558,4.595173 -2.248286,6.739871 -0.512407,2.894068 -0.175476,10.272915 0.508218,11.130052 0.116075,0.145521 0.295101,0.657531 0.397837,1.1378 0.102736,0.480269 0.473672,1.579231 0.824302,2.442138 0.350631,0.862907 0.63751,1.895436 0.63751,2.294509 0,0.717548 0.0044,0.719364 0.393386,0.16395 0.216363,-0.308901 0.524502,-0.90094 0.684756,-1.315642 z"
         id="path22386" />
      <path
         style="fill:#063925;stroke-width:1.2415"
         d="m 69.274584,66.304569 c 1.045905,-0.73258 5.997542,-2.724276 7.828662,-3.148921 3.553266,-0.824017 8.790565,-0.371147 10.556201,0.912797 0.394289,0.286722 0.840774,0.521313 0.992187,0.521313 0.151413,0 0.275297,0.09922 0.275297,0.220486 0,0.39929 -0.900453,0.229885 -1.437489,-0.27044 -0.28982,-0.270009 -0.977917,-0.563039 -1.529104,-0.651177 -0.551186,-0.08814 -1.002157,-0.25107 -1.002157,-0.362072 0,-0.111001 -0.408367,-0.249495 -0.907482,-0.307763 -0.499115,-0.05827 -0.849276,-0.01176 -0.778135,0.103344 0.07114,0.115109 0.0033,0.209288 -0.150851,0.209288 -0.154109,0 -0.280198,-0.119062 -0.280198,-0.264583 0,-0.29864 -1.957674,-0.348783 -3.793435,-0.09716 -0.671802,0.09208 -1.164505,0.259571 -1.094896,0.3722 0.06961,0.11263 -0.107828,0.143487 -0.394304,0.06857 -0.599313,-0.156724 -4.717055,1.231525 -6.946799,2.342033 -1.661705,0.827601 -2.229954,0.977189 -1.337497,0.352087 z"
         id="path22598" />
      <path
         style="fill:#063925;stroke-width:1.2415"
         d="m 65.47242,65.97882 c -0.224819,-0.545703 -0.814056,-1.852003 -1.309416,-2.902889 -0.49536,-1.050885 -0.900655,-2.040178 -0.900655,-2.198427 0,-0.158249 -0.117699,-0.214984 -0.261553,-0.126078 -0.155971,0.0964 -0.192356,-0.03081 -0.09014,-0.315114 0.09428,-0.262219 0.0769,-0.391296 -0.03862,-0.286838 -0.224164,0.202703 -2.087916,-2.694691 -1.872154,-2.910454 0.07032,-0.07031 -0.165773,-0.358805 -0.52464,-0.64109 -0.358868,-0.282285 -0.652486,-0.609659 -0.652486,-0.727498 0,-0.117839 -0.47625,-0.690502 -1.058333,-1.272586 -0.582084,-0.582083 -1.058334,-0.995423 -1.058334,-0.918534 0,0.07689 -0.283988,-0.166629 -0.631085,-0.541153 -0.911055,-0.983045 -3.432975,-2.172194 -5.686116,-2.681148 -1.073367,-0.24246 -1.999928,-0.392484 -2.059025,-0.333387 -0.170341,0.170341 0.511898,2.650452 0.849749,3.089051 0.168141,0.218281 0.650461,1.050026 1.071823,1.848322 0.421362,0.798297 1.063769,1.730636 1.427571,2.071866 0.363802,0.34123 0.51263,0.544255 0.330729,0.451167 -0.470591,-0.240827 -0.40903,0.04433 0.132292,0.612799 0.254661,0.267431 0.608502,0.713915 0.786312,0.992187 0.313036,0.489899 0.318208,0.489163 0.163039,-0.02322 -0.10891,-0.359627 0.101953,-0.232473 0.658143,0.396875 0.450118,0.509322 0.823235,1.060738 0.829149,1.225367 0.0059,0.16463 0.419527,0.611114 0.919141,0.992188 0.970779,0.740449 1.356904,0.882812 1.050721,0.387397 -0.117905,-0.190775 -0.07248,-0.23358 0.120993,-0.114009 0.170379,0.1053 0.24899,0.289814 0.174691,0.410031 -0.178921,0.289501 0.625299,0.58858 0.984963,0.366295 0.171445,-0.105959 0.203466,-0.04763 0.08186,0.149129 -0.124109,0.200813 -0.06446,0.294436 0.157557,0.247292 0.410311,-0.08713 3.9367,1.925501 4.44334,2.535965 0.185762,0.223829 -1.246436,-0.394918 -3.18266,-1.374993 -2.9317,-1.483963 -3.833733,-2.091673 -5.394052,-3.634038 -2.540885,-2.511647 -3.580825,-3.800163 -4.445864,-5.508555 -0.678617,-1.340224 -1.949398,-5.654139 -1.730162,-5.873376 0.05325,-0.05324 1.093348,0.1844 2.311341,0.5281 4.507869,1.272053 7.471779,3.232726 10.064791,6.658016 1.571641,2.07609 5.473264,10.413523 4.87316,10.413523 -0.07003,0 -0.311266,-0.446484 -0.536084,-0.992187 z"
         id="path22595" />
      <path
         style="fill:#063925;stroke-width:1.2415"
         d="m 73.448807,69.627691 c -1.938984,-0.256609 -5.492641,-1.407525 -5.631411,-1.823836 -0.05568,-0.167026 0.02776,-0.303683 0.185404,-0.303683 0.157648,0 0.286632,0.13197 0.286632,0.293266 0,0.183236 0.256491,0.228892 0.683627,0.121687 0.457707,-0.114877 0.625256,-0.07713 0.506998,0.114214 -0.117719,0.190474 0.07344,0.236777 0.573143,0.13883 0.609511,-0.11947 0.650781,-0.100184 0.220607,0.103091 -0.495136,0.233972 -0.486629,0.253211 0.132292,0.299169 0.659223,0.04895 1.071784,0.120505 1.322916,0.22945 1.178047,0.511053 8.227599,0.550995 8.831216,0.05004 0.239878,-0.199081 1.06474,-0.383994 1.833026,-0.410919 0.961012,-0.03368 1.929992,-0.311607 3.105384,-0.890707 0.939674,-0.462965 1.427513,-0.623031 1.084087,-0.355703 -0.343426,0.267328 -1.534051,0.877494 -2.645833,1.355924 -2.572229,1.106899 -3.050125,1.243291 -1.88913,0.539161 0.509323,-0.308899 0.687916,-0.480486 0.396875,-0.381305 -2.033089,0.692834 -2.987853,0.881216 -5.060868,0.998549 -1.291106,0.07308 -3.06184,0.03833 -3.934965,-0.07723 z"
         id="path22593" />
      <path
         style="fill:#063925;stroke-width:1.2415"
         d="m 52.274208,69.885207 c -0.877488,-0.122952 -2.288117,-0.529888 -3.134731,-0.904301 -1.71617,-0.758972 -4.821166,-2.74941 -5.556531,-3.561979 -0.468034,-0.517172 -0.454083,-0.540999 0.645096,-1.101758 1.81736,-0.927148 3.173685,-1.33726 5.143683,-1.555296 1.968715,-0.217893 6.294382,0.09949 6.991194,0.512964 0.284675,0.168919 0.123071,0.194881 -0.508903,0.08176 -0.509323,-0.09117 -0.846177,-0.07872 -0.748565,0.02767 0.182732,0.199161 1.795478,0.669799 2.73294,0.797537 1.134645,0.154607 1.974033,0.475221 1.83464,0.700764 -0.08034,0.129998 -1.45e-4,0.236359 0.178217,0.236359 0.178363,0 0.245651,0.07864 0.149529,0.174767 -0.09612,0.09612 -0.383856,-0.0048 -0.63941,-0.224339 -0.255553,-0.219508 -0.643237,-0.485576 -0.861518,-0.591263 -0.218281,-0.105686 -0.167441,-0.006 0.112977,0.221606 0.741942,0.602111 0.336262,0.794002 -0.686802,0.324864 -1.77534,-0.814104 -4.308814,-1.493135 -5.570904,-1.493135 -0.795848,0 -1.231818,-0.101961 -1.131312,-0.264583 0.205697,-0.332825 -0.613852,-0.334306 -2.626338,-0.0047 -0.862403,0.141225 -1.652763,0.393914 -1.756356,0.561531 -0.103593,0.167618 -0.320481,0.223099 -0.481973,0.123291 -0.234675,-0.145037 -1.258714,0.267124 -2.146791,0.864053 -0.07276,0.04891 0.148789,0.316798 0.492332,0.595313 0.343544,0.278515 0.476315,0.506391 0.295048,0.506391 -0.509323,0 0.743761,0.892333 2.740323,1.95141 0.994352,0.527454 2.162238,0.959007 2.595303,0.959007 0.433064,0 0.732405,0.0893 0.6652,0.198437 -0.11326,0.183935 0.801671,0.286012 2.946119,0.328693 0.478932,0.0095 0.813826,0.109493 0.744209,0.222135 -0.06962,0.112642 0.231717,0.179998 0.669631,0.149681 0.858523,-0.05944 1.407633,-0.36978 0.654275,-0.36978 -0.251123,0 -0.390546,-0.106857 -0.309829,-0.23746 0.08072,-0.130603 0.59376,-0.209696 1.140095,-0.175762 0.546334,0.03393 2.064897,-0.266193 3.374585,-0.66695 2.399967,-0.734376 5.438354,-1.344915 3.704166,-0.744322 -6.931054,2.400398 -8.736125,2.765677 -11.649599,2.357444 z"
         id="path22590" />
      <path
         style="fill:#063925;stroke-width:1.2415"
         d="m 49.653551,78.215799 c 0.981327,-1.657506 2.533474,-3.58013 2.771501,-3.433021 0.136346,0.08427 0.185536,-0.0093 0.109311,-0.207952 -0.07623,-0.198641 0.103732,-0.580466 0.399905,-0.848499 0.296174,-0.268034 0.538498,-0.408963 0.538498,-0.313177 0,0.09579 0.85403,-0.481073 1.897845,-1.281909 1.043814,-0.800837 2.003341,-1.456067 2.132281,-1.456067 0.12894,0 0.167824,-0.107782 0.08641,-0.239516 -0.198048,-0.320448 6.103669,-2.593058 6.391675,-2.305053 0.103521,0.103521 -1.879214,0.86111 -2.875292,1.098628 -0.385802,0.092 -0.951348,0.400074 -1.256771,0.684618 -0.305422,0.284545 -0.555313,0.39739 -0.555313,0.250767 0,-0.146622 -0.178594,-0.198053 -0.396875,-0.114291 -0.218281,0.08376 -0.396875,0.310127 -0.396875,0.503033 0,0.192906 -0.238125,0.426316 -0.529166,0.518689 -0.291042,0.09237 -0.529167,0.286017 -0.529167,0.430319 0,0.144303 -0.137125,0.177621 -0.304722,0.07404 -0.167597,-0.103581 -0.435487,-0.02131 -0.595312,0.182822 -0.159825,0.204133 -1.004966,0.966219 -1.878091,1.693523 -0.873125,0.727305 -1.805006,1.59115 -2.070847,1.919657 -0.265841,0.328507 -0.627901,0.745471 -0.804578,0.926586 -0.176677,0.181116 -0.52701,0.626958 -0.778519,0.99076 -0.251508,0.363802 -0.568932,0.661458 -0.705386,0.661458 -0.136455,0 -0.444378,0.238125 -0.684274,0.529167 -0.346235,0.420051 -0.339273,0.365493 0.03376,-0.264583 z"
         id="path22582" />
      <path
         style="fill:#063925;stroke-width:1.2415"
         d="m 79.949271,79.118458 c -3.753328,-0.736248 -7.010299,-2.297244 -9.359872,-4.485985 -1.910245,-1.779486 -2.93729,-3.306949 -3.194538,-4.751049 -0.149691,-0.840309 -0.137768,-0.864804 0.128793,-0.264583 0.642995,1.447848 1.165193,2.282584 1.874825,2.996915 0.40867,0.411376 0.743036,0.837741 0.743036,0.947478 0,0.109737 0.293593,0.356647 0.652428,0.54869 0.358836,0.192043 0.593626,0.444314 0.521757,0.560601 -0.07187,0.116288 0.110787,0.340657 0.405905,0.498599 0.295117,0.157942 0.536577,0.218629 0.536577,0.13486 0,-0.08377 0.327422,0.157003 0.727604,0.53505 0.400182,0.378048 1.322917,0.97262 2.050521,1.321272 1.222807,0.585944 5.921889,1.979335 6.680289,1.980867 0.931415,0.0019 -5.181541,-6.798589 -6.305906,-7.015122 -0.29279,-0.05639 -0.892892,-0.405901 -1.33356,-0.776699 -0.440668,-0.370798 -1.006393,-0.674178 -1.257165,-0.674178 -0.250772,0 -0.569059,-0.100564 -0.707304,-0.223476 -0.138245,-0.122911 -0.999372,-0.496066 -1.913616,-0.829231 -2.46826,-0.899475 -1.829513,-0.917617 0.816547,-0.02319 2.941072,0.994146 5.209191,2.210456 6.816164,3.655263 1.157038,1.040277 4.017004,4.796259 4.387756,5.762423 0.170699,0.444833 -0.391753,0.469979 -2.270241,0.101497 z"
         id="path22581" />
      <path
         style="fill:#063925;stroke-width:1.2415"
         d="m 66.061851,86.153298 c -0.10094,-0.436562 -0.325637,-1.329531 -0.499327,-1.984375 -0.203173,-0.766001 -0.3158,-3.473873 -0.3158,-7.592746 0,-3.521166 -0.07406,-6.319135 -0.164585,-6.217708 -0.09052,0.101428 -0.542782,0.720195 -1.005022,1.375038 -1.030136,1.459367 -3.167157,3.704167 -3.526319,3.704167 -0.145013,0 -0.105995,-0.20836 0.08671,-0.463021 0.302461,-0.399713 0.297847,-0.415992 -0.03375,-0.119063 -0.211263,0.189177 -0.386986,0.486834 -0.390497,0.661459 -0.0035,0.174625 -0.210588,0.301177 -0.460173,0.281227 -0.249585,-0.01995 -0.392206,0.06337 -0.316936,0.185162 0.150252,0.243113 -0.806992,0.831575 -1.45436,0.894064 -0.22439,0.02166 -1.396393,0.361403 -2.604452,0.754985 -1.208059,0.393582 -2.398684,0.70731 -2.645833,0.697175 -0.24715,-0.01014 0.14595,-0.193991 0.873554,-0.408568 2.023672,-0.596796 5.682718,-2.4194 7.011458,-3.492469 0.654844,-0.528841 1.027218,-0.756274 0.827499,-0.505407 -0.19972,0.250867 -0.253298,0.456122 -0.119063,0.456122 0.409586,0 0.845502,-0.573347 0.708117,-0.931366 -0.07128,-0.185745 0.354746,-0.726944 0.946718,-1.202666 0.591972,-0.475721 1.076312,-1.064693 1.076312,-1.308825 0,-0.244133 0.238125,-0.659378 0.529167,-0.922767 0.291041,-0.263389 0.529166,-0.705588 0.529166,-0.982664 0,-0.277076 0.0998,-0.442095 0.221776,-0.366709 0.121977,0.07539 0.298343,3.459299 0.391924,7.519806 0.09478,4.112726 0.291922,7.662559 0.445079,8.014487 0.194835,0.447698 0.236889,-1.526534 0.144351,-6.776587 -0.09861,-5.594825 -0.04849,-7.635022 0.204773,-8.334375 0.458989,-1.267451 0.191545,-2.330541 -1.664755,-6.617387 -2.167484,-5.005477 -2.46117,-6.26972 -2.488605,-10.71282 -0.02335,-3.781928 0.212488,-5.46016 1.208405,-8.598958 0.549301,-1.731214 2.189969,-4.7625 2.577679,-4.7625 0.357145,0 1.801816,2.950939 2.527776,5.163326 1.426137,4.346204 1.772705,7.562823 1.196868,11.108548 -0.256781,1.581129 -1.504127,5.62923 -2.774531,9.004384 -0.756061,2.008668 -0.74876,1.975824 -0.439186,1.975824 0.125751,0 0.439558,-0.565547 0.697349,-1.256771 0.257791,-0.691224 1.16362,-2.630713 2.012954,-4.309976 2.146376,-4.243718 4.621496,-6.804007 8.429302,-8.719356 1.499293,-0.754154 4.798043,-1.85348 5.561741,-1.85348 0.624401,0 0.249738,1.876415 -0.92036,4.609416 -0.347079,0.810676 -0.500932,0.955308 -0.703623,0.661459 -0.195636,-0.28362 -0.222058,-0.241735 -0.107471,0.170364 0.31251,1.123901 -2.909305,5.045223 -6.056805,7.371835 -1.85901,1.374169 -6.907376,3.959637 -7.280855,3.728814 -0.108047,-0.06678 -0.465994,0.165504 -0.795436,0.516179 -0.520488,0.554034 -0.561592,0.744862 -0.313648,1.456115 0.156936,0.450187 0.183749,0.755736 0.05958,0.678998 -0.460935,-0.284873 -0.541979,1.299439 -0.400938,7.837889 0.111958,5.190141 0.06029,7.121383 -0.228902,8.555388 -0.330768,1.640186 -0.394498,1.76127 -0.557026,1.058333 z m 1.567591,-19.977663 c 0.264196,-0.291933 0.538713,-0.472432 0.610037,-0.401108 0.155195,0.155195 6.069402,-2.89841 6.653503,-3.435316 0.224349,-0.206222 1.122283,-0.997895 1.995408,-1.759272 0.873125,-0.761378 1.786209,-1.705463 2.029076,-2.097967 0.242866,-0.392504 0.558875,-0.786138 0.702241,-0.874744 0.388881,-0.240341 2.164003,-3.754022 2.888483,-5.71747 0.544575,-1.475877 0.686717,-1.214319 0.215679,0.396875 -0.08509,0.291042 0.03168,0.128247 0.259478,-0.361766 0.227799,-0.490013 0.377158,-1.085325 0.331909,-1.322916 -0.08966,-0.47075 -1.267491,-0.77406 -1.267491,-0.326399 0,0.151075 -0.178594,0.206149 -0.396875,0.122387 -0.218282,-0.08376 -0.397112,-0.05026 -0.397401,0.07445 -2.89e-4,0.12471 -0.350969,0.251207 -0.779287,0.281105 -0.952492,0.06649 -3.27871,1.21734 -4.214483,2.085038 -0.378861,0.3513 -0.823732,0.638727 -0.988602,0.638727 -0.16487,0 -0.654123,0.414854 -1.087229,0.921898 -0.433106,0.507044 -0.862173,0.847191 -0.953483,0.755881 -0.09131,-0.09131 -0.248716,0.04949 -0.349792,0.312892 -0.101076,0.2634 -0.550363,0.826354 -0.998416,1.251009 -0.448052,0.424655 -0.667176,0.696253 -0.486942,0.603551 0.216005,-0.111099 0.274191,-0.02911 0.170714,0.240549 -0.08634,0.225004 -0.251919,0.350425 -0.367949,0.278715 -0.116029,-0.07171 -0.833884,1.149364 -1.595233,2.713499 -0.761349,1.564134 -1.725503,3.51539 -2.142563,4.336125 -0.417061,0.820734 -0.758292,1.564874 -0.758292,1.653645 0,0.32918 0.461732,0.145292 0.92751,-0.369388 z m 0.602909,-6.877544 c 1.165066,-3.445705 1.210725,-3.6993 1.292629,-7.179289 0.07134,-3.031145 8.76e-4,-3.870436 -0.441093,-5.253921 -0.289298,-0.90558 -0.44894,-1.771186 -0.354762,-1.923571 0.107165,-0.173395 0.04135,-0.196787 -0.175907,-0.06252 -0.253018,0.156374 -0.310824,0.07567 -0.213197,-0.297661 0.07367,-0.281714 -0.03469,-0.669734 -0.240796,-0.862268 -0.206108,-0.192533 -0.310896,-0.51644 -0.232863,-0.719791 0.07803,-0.203352 0.01382,-0.369731 -0.142708,-0.369731 -0.156523,0 -0.213681,-0.184777 -0.127018,-0.410617 0.102153,-0.266207 0.05092,-0.344708 -0.145663,-0.22321 -0.20625,0.12747 -0.255482,0.0048 -0.153935,-0.383498 0.08211,-0.313998 0.05381,-0.511893 -0.06289,-0.439768 -0.26625,0.164552 -0.586151,-0.622836 -0.385168,-0.948033 0.08182,-0.132389 0.02268,-0.240707 -0.131433,-0.240707 -0.154109,0 -0.280198,-0.178594 -0.280198,-0.396875 0,-1.005439 -1.050774,0.04264 -1.458954,1.455208 -0.105125,0.363802 -0.341145,0.840052 -0.524489,1.058333 -0.312608,0.372179 -0.401163,0.71859 -0.828547,3.241146 -0.09246,0.545703 -0.271416,0.992188 -0.397689,0.992188 -0.126273,0 -0.223472,0.386953 -0.215999,0.859895 0.0075,0.472943 -0.05296,1.633802 -0.134299,2.579688 -0.169128,1.966797 0.08924,6.929651 0.352293,6.767074 0.0963,-0.05952 0.187774,0.328307 0.20327,0.861834 0.0155,0.533527 0.526347,2.101143 1.135226,3.483591 0.608879,1.382448 1.229561,2.810211 1.379294,3.172806 l 0.272243,0.659264 0.402463,-0.923847 c 0.221355,-0.508117 0.945941,-2.531192 1.61019,-4.495723 z"
         id="path22574" />
      <path
         style="fill:#022c14;stroke-width:1.2415"
         d="m 51.292478,56.586112 c -1.284479,-1.965401 -2.854736,-6.647513 -2.385932,-7.114248 0.110328,-0.109841 0.227342,0.173741 0.260033,0.630182 0.0908,1.267756 1.083442,4.140392 1.966297,5.690316 0.789362,1.38579 0.897275,1.922475 0.159602,0.79375 z"
         id="path22933" />
      <path
         style="fill:#022c14;stroke-width:1.2415"
         d="m 45.838627,63.679855 c 0.09409,-0.100038 0.808462,-0.351541 1.5875,-0.558895 1.478272,-0.393466 6.979529,-0.534758 7.197169,-0.184849 0.06788,0.10914 -1.139555,0.16054 -2.683198,0.114222 -2.466209,-0.074 -3.704279,0.06789 -5.743373,0.658214 -0.291042,0.08426 -0.452186,0.07135 -0.358098,-0.02869 z"
         id="path22924" />
      <path
         style="fill:#022c14;stroke-width:1.2415"
         d="m 58.489608,63.410655 c -1.854439,-0.952385 -4.12757,-2.84172 -5.055387,-4.201835 -0.321471,-0.471253 0.28462,-0.01073 1.387512,1.054264 1.127331,1.088595 2.744236,2.312257 3.810408,2.88369 2.042486,1.094705 2.183238,1.184338 1.830035,1.165387 -0.133395,-0.0072 -1.02105,-0.412835 -1.972568,-0.901506 z"
         id="path22920" />
      <path
         style="fill:#022c14;stroke-width:1.2415"
         d="m 73.051932,64.548493 c 3.002778,-1.389491 5.53597,-1.884173 8.863541,-1.730873 1.600729,0.07374 3.368066,0.273198 3.927414,0.44323 1.580771,0.480525 0.963846,0.596428 -0.77035,0.144728 -3.240758,-0.844111 -7.701224,-0.351812 -11.761775,1.298137 -2.243986,0.911813 -2.383696,0.828028 -0.25883,-0.155222 z"
         id="path22918" />
      <path
         style="fill:#022c14;stroke-width:1.2415"
         d="m 71.899953,64.24158 c 2.94991,-1.515158 5.502951,-3.513209 7.335739,-5.741065 1.764232,-2.144524 2.575528,-3.514165 3.659718,-6.178393 0.422475,-1.038165 0.6966,-1.530384 0.609167,-1.093822 -0.254473,1.270618 -1.902396,4.578391 -3.151852,6.326517 -2.03344,2.845004 -5.116696,5.383704 -8.460872,6.966538 -2.567593,1.215268 -2.562534,1.040577 0.0081,-0.279775 z"
         id="path22917" />
      <path
         style="fill:#022c14;stroke-width:1.2415"
         d="m 67.095359,65.118927 c 0.468908,-1.594008 3.334005,-7.150348 4.434007,-8.598958 1.459865,-1.92252 3.987848,-4.009632 6.205907,-5.12362 1.596332,-0.801735 5.564533,-2.046907 5.793509,-1.817931 0.06274,0.06274 -0.6913,0.323158 -1.675656,0.578697 -3.229715,0.838435 -5.813228,2.278235 -8.18349,4.560684 -2.325853,2.239685 -3.412295,3.912006 -5.286989,8.138069 -1.179466,2.658833 -1.64389,3.475293 -1.287288,2.263059 z"
         id="path22915" />
      <path
         style="fill:#022c14;stroke-width:1.2415"
         d="m 64.649746,61.897462 c -1.84684,-4.401656 -2.083625,-5.285846 -2.328689,-8.695687 -0.190326,-2.648209 0.117252,-5.872567 0.822079,-8.617894 0.411585,-1.603138 1.671956,-4.458737 1.87731,-4.253383 0.06352,0.06352 -0.12008,0.517448 -0.407998,1.00873 -0.867948,1.481008 -1.613673,4.677347 -1.875077,8.036992 -0.347824,4.470341 0.114216,7.363746 1.876373,11.750282 0.735963,1.832032 1.429092,3.425818 1.540286,3.541747 0.184627,0.192489 2.44183,-5.972756 3.225397,-8.809738 0.542698,-1.964888 0.407727,-7.449228 -0.242139,-9.838991 -0.688997,-2.533658 -1.790201,-5.321246 -2.63107,-6.660289 -0.352686,-0.561635 -0.513875,-0.942435 -0.358198,-0.846221 0.51495,0.318257 1.607773,2.423252 2.288924,4.408925 1.597559,4.657161 2.029363,8.156425 1.446038,11.718443 -0.266057,1.62465 -2.302851,8.053673 -3.153303,9.95322 l -0.489734,1.093856 z"
         id="path22914" />
      <path
         style="fill:#022c14;stroke-width:1.2415"
         d="m 63.711529,61.854552 c -2.000583,-4.190769 -3.326587,-6.122464 -5.476263,-7.977706 -1.614384,-1.393268 -4.91032,-3.092912 -7.14375,-3.68388 -0.800364,-0.211777 -1.206981,-0.392885 -0.903593,-0.402462 0.83787,-0.02645 3.753367,0.98775 5.533801,1.925014 2.08327,1.096684 5.070348,4.074312 6.412235,6.391948 1.1021,1.90349 3.6009,7.272976 3.453311,7.420565 -0.04546,0.04546 -0.889539,-1.60761 -1.875741,-3.673479 z"
         id="path22913" />
      <path
         style="fill:#022c14;stroke-width:1.2415"
         d="m 83.346088,68.543819 c 0.932359,-0.431284 1.738505,-0.740847 1.791435,-0.687916 0.11558,0.115579 -2.924142,1.501571 -3.255135,1.484211 -0.127324,-0.0067 0.531341,-0.365011 1.4637,-0.796295 z"
         id="path22902" />
      <path
         style="fill:#022c14;stroke-width:1.2415"
         d="m 71.067557,69.087672 c -0.727604,-0.268485 -1.189058,-0.497382 -1.025453,-0.50866 0.163606,-0.01128 0.777919,0.149008 1.365142,0.356192 0.587223,0.207184 1.157062,0.296481 1.266309,0.198437 0.109248,-0.09804 0.112986,-0.02943 0.0083,0.152469 -0.104679,0.181901 -0.213065,0.321501 -0.240857,0.310222 -0.02779,-0.01128 -0.645843,-0.240175 -1.373447,-0.50866 z"
         id="path22900" />
      <path
         style="fill:#022c14;stroke-width:1.2415"
         d="m 56.405231,69.776794 c 0.200059,-0.189869 4.776059,-1.747748 5.092262,-1.733638 0.363619,0.01623 -4.519329,1.838266 -4.926431,1.838266 -0.15184,0 -0.226464,-0.04708 -0.165831,-0.104628 z"
         id="path22899" />
      <path
         style="fill:#022c14;stroke-width:1.2415"
         d="m 52.14985,69.839154 c -1.822318,-0.255933 -5.311886,-1.804751 -6.746875,-2.994547 -0.480058,-0.398031 0.04219,-0.188293 1.321465,0.530709 2.825827,1.588226 3.783822,1.921131 6.748326,2.345055 1.382448,0.19769 2.037292,0.359635 1.455208,0.359877 -0.582083,2.42e-4 -1.832239,-0.10825 -2.778124,-0.241094 z"
         id="path22896" />
      <path
         style="fill:#022c14;stroke-width:1.2415"
         d="m 58.896724,69.731668 c 0.727604,-0.350452 1.501511,-0.633685 1.719792,-0.629406 0.218281,0.0043 -0.30796,0.300403 -1.169425,0.658054 -1.979887,0.821982 -2.28361,0.806173 -0.550367,-0.02865 z"
         id="path22894" />
      <path
         style="fill:#022c14;stroke-width:1.2415"
         d="m 59.690474,75.746614 c 1.642802,-1.044097 2.56399,-1.96553 4.091599,-4.092686 0.490746,-0.683352 0.942347,-1.192378 1.003557,-1.131168 0.17302,0.17302 -1.879203,2.821203 -3.016058,3.891912 -1.013856,0.954867 -3.072843,2.348218 -3.462902,2.343405 -0.112033,-0.0014 0.510679,-0.456541 1.383804,-1.011463 z"
         id="path22883" />
      <path
         style="fill:#022c14;stroke-width:1.2415"
         d="m 73.448807,76.788795 c -0.727604,-0.418318 -1.56019,-1.042279 -1.850191,-1.386579 l -0.527273,-0.626001 0.667117,0.586387 c 0.366914,0.322513 1.318562,0.945434 2.114773,1.38427 0.796212,0.438835 1.328595,0.798922 1.183074,0.800192 -0.145521,0.0013 -0.859896,-0.33995 -1.5875,-0.758269 z"
         id="path22877" />
      <path
         style="fill:#022c14;stroke-width:1.2415"
         d="m 51.088546,76.165278 c 0.625617,-0.836745 1.185596,-1.521354 1.244397,-1.521354 0.190411,0 -1.447018,2.267507 -1.921618,2.661051 -0.253145,0.209911 0.0516,-0.302952 0.677221,-1.139697 z"
         id="path22876" />
      <path
         style="fill:#022c14;stroke-width:1.2415"
         d="m 79.79037,75.974886 c -1.877654,-2.478729 -3.686267,-3.97435 -6.268021,-5.183297 -0.768052,-0.359653 -1.098803,-0.579001 -0.735001,-0.487441 1.208309,0.304102 3.748106,1.784903 5.01497,2.923923 1.06475,0.957302 4.234868,5.120019 3.899151,5.120019 -0.06236,0 -0.922355,-1.067942 -1.911099,-2.373204 z"
         id="path22873" />
      <path
         style="fill:#022c14;stroke-width:1.2415"
         d="m 77.06043,78.315529 c -0.924023,-0.292603 -1.634415,-0.577634 -1.578647,-0.633401 0.05577,-0.05577 0.990381,0.180642 2.076918,0.525354 1.086537,0.344713 1.796928,0.629743 1.578647,0.633402 -0.218281,0.0037 -1.152894,-0.232752 -2.076918,-0.525355 z"
         id="path22872" />
      <path
         style="fill:#022c14;stroke-width:1.2415"
         d="m 65.286865,80.266317 c -0.22866,-2.421117 -0.183325,-8.806757 0.06707,-9.446884 0.111269,-0.284458 0.224921,2.126557 0.252561,5.357812 0.02764,3.231256 0.005,5.87501 -0.05035,5.87501 -0.05533,0 -0.176506,-0.803672 -0.269275,-1.785938 z"
         id="path22864" />
      <path
         style="fill:#022c14;stroke-width:1.2415"
         d="m 66.130776,85.964091 c -0.08013,-0.395106 -0.0252,-0.758536 0.122065,-0.807623 0.283664,-0.09455 0.352497,-4.1165 0.194696,-11.3763 -0.04986,-2.294076 -0.02665,-4.235063 0.05159,-4.313304 0.07824,-0.07824 0.229997,2.899618 0.337234,6.617464 0.155799,5.401459 0.119136,7.145357 -0.182464,8.678929 -0.294854,1.499271 -0.409317,1.762022 -0.523125,1.200834 z"
         id="path22858" />
      <path
         style="fill:#001403;stroke-width:1.2415"
         d="m 69.961618,50.831425 c 0,-0.945885 0.04802,-1.332838 0.106712,-0.859896 0.05869,0.472943 0.05869,1.246849 0,1.719792 -0.05869,0.472942 -0.106712,0.08599 -0.106712,-0.859896 z"
         id="path23178" />
      <path
         style="fill:#001403;stroke-width:1.2415"
         d="m 62.29297,51.360592 c 0,-1.091407 0.0467,-1.537891 0.103786,-0.992188 0.05708,0.545703 0.05708,1.438672 0,1.984375 -0.05708,0.545703 -0.103786,0.09922 -0.103786,-0.992187 z"
         id="path23177" />
      <path
         style="fill:#001403;stroke-width:1.2415"
         d="m 57.792545,53.384275 c -0.411347,-0.342182 -1.025992,-0.768547 -1.365877,-0.947478 -0.339885,-0.178931 -0.55384,-0.389461 -0.475456,-0.467846 0.135845,-0.135845 2.813221,1.698786 2.813221,1.927716 0,0.222463 -0.241647,0.09506 -0.971888,-0.512392 z"
         id="path23176" />
      <path
         style="fill:#001403;stroke-width:1.2415"
         d="m 74.791622,53.316675 c 1.43918,-1.11906 4.31057,-2.759453 4.801202,-2.742872 0.11329,0.0038 -0.655338,0.464193 -1.708064,1.023033 -1.052726,0.55884 -2.441982,1.448677 -3.087237,1.977414 -0.645254,0.528738 -1.26326,0.961341 -1.373346,0.961341 -0.110085,0 0.505265,-0.548512 1.367445,-1.218916 z"
         id="path23175" />
      <path
         style="fill:#001403;stroke-width:1.2415"
         d="M 61.532084,57.512154 C 61.27457,57.111972 60.593962,56.189237 60.019621,55.461633 l -1.044255,-1.322916 1.193088,1.3121 c 1.121295,1.233147 2.208343,2.788941 1.948658,2.788941 -0.06425,0 -0.327514,-0.327422 -0.585028,-0.727604 z"
         id="path23170" />
      <path
         style="fill:#001403;stroke-width:1.2415"
         d="m 68.818599,61.317768 c 0,-0.286664 1.314941,-2.813427 1.464122,-2.813427 0.07276,0 -0.181693,0.625078 -0.565453,1.389063 -0.738062,1.469324 -0.898669,1.723882 -0.898669,1.424364 z"
         id="path23168" />
      <path
         style="fill:#001403;stroke-width:1.2415"
         d="m 54.586188,60.544847 c -0.612382,-0.623972 -1.113422,-1.219975 -1.113422,-1.324453 0,-0.104477 0.535781,0.353517 1.190625,1.017764 1.072291,1.08769 1.345391,1.441183 1.113422,1.441183 -0.04246,0 -0.578243,-0.510522 -1.190625,-1.134494 z"
         id="path23167" />
      <path
         style="fill:#001403;stroke-width:1.2415"
         d="m 75.558464,62.154005 c 0.432707,-0.333826 1.504269,-1.2585 2.38125,-2.054833 l 1.594509,-1.447877 -1.190625,1.273204 c -0.654844,0.700263 -1.726406,1.624937 -2.38125,2.054833 -0.654843,0.429895 -0.836591,0.508498 -0.403884,0.174673 z"
         id="path23166" />
      <path
         style="fill:#001403;stroke-width:1.2415"
         d="m 67.018113,63.266841 c 0.07475,-0.218281 0.346481,-1.051719 0.603845,-1.852083 0.257365,-0.800365 0.573888,-1.569843 0.703385,-1.709951 0.129497,-0.140109 -0.06321,0.623355 -0.42824,1.696586 -0.365029,1.07323 -0.742712,2.021302 -0.839295,2.106825 -0.09658,0.08552 -0.114445,-0.0231 -0.03969,-0.241377 z"
         id="path23164" />
      <path
         style="fill:#001403;stroke-width:1.2415"
         d="m 64.746955,62.17911 c -0.388841,-0.896593 -0.663423,-1.67373 -0.610181,-1.726971 0.05324,-0.05324 0.413812,0.637906 0.801269,1.535883 0.387457,0.897977 0.662039,1.675113 0.610182,1.72697 -0.05186,0.05186 -0.412428,-0.63929 -0.80127,-1.535882 z"
         id="path23163" />
      <path
         style="fill:#001403;stroke-width:1.2415"
         d="m 64.585266,63.740845 c 0,-0.07885 -0.413713,-1.051191 -0.919362,-2.160764 -0.505649,-1.109574 -0.859831,-2.017406 -0.78707,-2.017406 0.214197,0 1.990924,4.037034 1.842187,4.185771 -0.07466,0.07467 -0.135755,0.07124 -0.135755,-0.0076 z"
         id="path23162" />
      <path
         style="fill:#001403;stroke-width:1.2415"
         d="m 66.524169,73.982465 c 0.0012,-1.018645 0.049,-1.402943 0.106272,-0.853994 0.05728,0.548949 0.05632,1.382386 -0.0021,1.852083 -0.05845,0.469697 -0.105312,0.02056 -0.104138,-0.998089 z"
         id="path23156" />
      <path
         style="fill:#001403;stroke-width:1.2415"
         d="m 78.794923,74.568572 -1.53305,-1.909023 1.355715,1.455208 c 1.169534,1.255364 2.032946,2.402193 1.78584,2.372044 -0.0415,-0.0051 -0.765327,-0.868267 -1.608505,-1.918229 z"
         id="path23152" />
      <path
         style="fill:#001403;stroke-width:1.2415"
         d="m 65.214489,74.908507 c 0,-1.673489 0.04296,-2.358099 0.09547,-1.521354 0.05251,0.836745 0.05251,2.205963 0,3.042708 -0.05251,0.836745 -0.09547,0.152136 -0.09547,-1.521354 z"
         id="path23149" />
      <path
         style="fill:#001403;stroke-width:1.2415"
         d="m 66.700804,80.014034 c -0.07214,-1.921387 -0.03804,-3.39989 0.07577,-3.285562 0.113816,0.114327 0.172839,1.686371 0.131164,3.493431 l -0.07577,3.285562 z"
         id="path23146" />
    </g>
  </g>
</svg>
