<?xml version="1.0" encoding="UTF-8" standalone="no"?>
<!-- Created with Inkscape (http://www.inkscape.org/) -->

<svg
   width="185"
   height="185"
   viewBox="0 0 48.947914 48.947918"
   version="1.1"
   id="svg1"
   xmlns="http://www.w3.org/2000/svg"
   xmlns:svg="http://www.w3.org/2000/svg">
  <defs
     id="defs1" />
  <g
     id="g14934"
     transform="matrix(0.66252385,0,0,0.66252385,-25.151417,-110.76659)">
    <path
       style="fill:#c89639"
       d="m 67.66719,240.74963 c -0.685659,-0.39936 -0.583976,-0.9551 0.727604,-3.97669 0.654844,-1.50862 1.190625,-2.75638 1.190625,-2.77281 0,-0.0164 -0.982265,-0.10042 -2.182812,-0.18665 -3.765971,-0.2705 -7.01558,-1.62844 -10.097015,-4.21933 -2.279074,-1.91626 -5.103843,-6.88184 -5.970874,-10.49603 -0.31717,-1.32211 -0.305203,-1.4602 0.156214,-1.8025 1.038637,-0.77053 6.65245,0.27237 9.74142,1.8097 4.803002,2.39037 8.497435,6.80987 9.085837,10.86901 l 0.203489,1.40379 1.255866,-4.87658 c 1.353135,-5.25428 1.351498,-5.29608 -0.20775,-5.30768 -0.436562,-0.003 -1.805396,-0.24841 -3.041853,-0.54481 -4.928779,-1.1815 -9.011049,-4.56556 -11.395711,-9.44665 -1.06016,-2.17 -2.449088,-6.85179 -2.168316,-7.30893 0.07856,-0.12791 1.22765,-0.17073 2.553528,-0.0952 6.341949,0.36152 11.97581,3.86972 14.402902,8.96867 0.57778,1.21383 1.197457,2.86181 1.377059,3.66217 0.427483,1.90501 0.594475,2.14958 0.811957,1.18917 0.09868,-0.43576 0.60944,-2.63099 1.135028,-4.87827 0.525588,-2.24729 0.955614,-4.17159 0.955614,-4.27623 0,-0.10463 -0.506015,-0.26862 -1.124479,-0.36441 -2.128519,-0.32969 -4.831374,-1.1594 -6.151562,-1.88839 -0.727604,-0.40177 -2.162047,-1.57103 -3.18765,-2.59837 -2.953602,-2.95858 -4.433079,-6.56925 -4.80376,-11.7236 -0.15619,-2.17183 -0.153787,-2.18279 0.477632,-2.17828 1.258741,0.009 4.643958,1.0537 6.587736,2.03303 2.587834,1.30382 5.331032,4.00624 6.66041,6.56139 1.153979,2.21803 2.060079,4.89167 2.099583,6.19526 0.03003,0.99098 1.641432,-5.05067 1.971391,-7.39136 l 0.16861,-1.19611 -1.944268,-0.57269 c -5.9566,-1.75456 -9.518169,-6.94022 -9.473369,-13.79327 0.01155,-1.76667 0.318345,-3.90051 0.601513,-4.18368 0.335997,-0.336 3.330912,0.89126 5.159365,2.1142 3.852831,2.57693 6.331111,6.93886 6.412852,11.28703 0.03115,1.65711 0.237841,1.24895 0.744971,-1.47114 0.413605,-2.21844 0.379459,-2.69789 -0.239456,-3.36222 -0.841701,-0.90346 -2.041992,-3.49886 -2.3876,-5.16274 -0.625375,-3.01076 0.159794,-6.73164 2.007826,-9.51498 1.183386,-1.7823 2.735022,-3.50767 3.154482,-3.50767 0.177458,0 0.995752,0.90117 1.818431,2.0026 2.059394,2.75719 2.954877,5.56866 2.761407,8.66975 -0.190842,3.05897 -0.880911,4.51645 -3.153367,6.66017 -1.828558,1.72497 -1.830791,1.72884 -2.48191,4.29562 -0.75322,2.96928 -0.840046,4.05246 -0.152654,1.90441 1.033398,-3.22929 3.970976,-6.44581 7.370226,-8.07005 3.219068,-1.53816 7.294533,-2.22179 7.654405,-1.28398 0.262291,0.68352 -0.889019,4.85155 -1.916776,6.9392 -2.221267,4.512 -6.797677,7.1927 -12.279183,7.1927 -1.506995,0 -1.844383,0.0799 -1.955422,0.46302 -0.0738,0.25466 -0.437273,1.83224 -0.807706,3.50573 -0.370434,1.67349 -0.794321,3.45864 -0.941972,3.967 -0.439277,1.51243 -0.31068,1.51329 0.441949,0.003 0.851246,-1.70823 3.846885,-4.93626 5.661491,-6.10069 0.718696,-0.46119 2.228172,-1.19868 3.354391,-1.63887 1.730796,-0.6765 2.518526,-0.82004 5.090379,-0.92753 3.413559,-0.14268 5.291637,0.18987 5.291712,0.937 2.5e-5,0.24905 -0.56398,1.57427 -1.253344,2.94494 -1.777787,3.53477 -4.386204,6.27758 -7.316918,7.69391 -2.999291,1.44947 -4.920015,1.83873 -8.873281,1.79826 l -3.306876,-0.0339 -0.976619,4.18283 c -0.537141,2.30055 -1.104504,4.4635 -1.260807,4.80655 -0.482193,1.0583 -0.06735,0.69083 0.786267,-0.69647 2.042904,-3.32014 6.820666,-6.58758 11.221325,-7.67408 3.506833,-0.86583 9.946064,-0.65755 10.135833,0.32784 0.124776,0.64792 -1.337251,3.27142 -2.942067,5.27934 -3.019853,3.77837 -5.913135,5.64059 -10.214228,6.57421 -2.476304,0.53752 -7.202687,0.73269 -9.104295,0.37595 l -0.85067,-0.15959 -1.157088,4.58212 c -0.636399,2.52016 -1.216994,4.76071 -1.290213,4.97899 -0.07322,0.21828 0.223881,-0.0837 0.66022,-0.67111 2.106227,-2.83534 6.371506,-5.85064 10.18356,-7.19916 3.399844,-1.2027 10.859822,-1.10915 12.385493,0.15532 0.523222,0.43364 0.516452,0.45954 -0.564309,2.1587 -1.408575,2.21454 -4.671523,5.44971 -6.76743,6.7098 -2.107666,1.26716 -4.897763,2.23716 -7.544615,2.62294 -1.75284,0.25548 -2.576798,0.23175 -5.0529,-0.14551 -1.627197,-0.24793 -3.193913,-0.48171 -3.481591,-0.51952 -0.432852,-0.0569 -0.666904,0.31907 -1.357239,2.1802 -1.787409,4.81883 -1.862576,4.92161 -3.080648,4.21214 z"
       id="path14908" />
    <path
       style="fill:#b17b34"
       d="m 67.66719,240.74963 c -0.685659,-0.39936 -0.583976,-0.9551 0.727604,-3.97669 0.654844,-1.50862 1.190625,-2.75638 1.190625,-2.77281 0,-0.0164 -0.982265,-0.10042 -2.182812,-0.18665 -3.765971,-0.2705 -7.01558,-1.62844 -10.097015,-4.21933 -2.279074,-1.91626 -5.103843,-6.88184 -5.970874,-10.49603 -0.31717,-1.32211 -0.305203,-1.4602 0.156214,-1.8025 1.038637,-0.77053 6.65245,0.27237 9.74142,1.8097 4.803002,2.39037 8.497435,6.80987 9.085837,10.86901 l 0.203489,1.40379 1.255866,-4.87658 c 1.353135,-5.25428 1.351498,-5.29608 -0.20775,-5.30768 -0.436562,-0.003 -1.805396,-0.24841 -3.041853,-0.54481 -4.928779,-1.1815 -9.011049,-4.56556 -11.395711,-9.44665 -1.06016,-2.17 -2.449088,-6.85179 -2.168316,-7.30893 0.07856,-0.12791 1.22765,-0.17073 2.553528,-0.0952 6.341949,0.36152 11.97581,3.86972 14.402902,8.96867 0.57778,1.21383 1.197457,2.86181 1.377059,3.66217 0.427483,1.90501 0.594475,2.14958 0.811957,1.18917 0.09868,-0.43576 0.60944,-2.63099 1.135028,-4.87827 0.525588,-2.24729 0.955614,-4.17159 0.955614,-4.27623 0,-0.10463 -0.506015,-0.26862 -1.124479,-0.36441 -2.128519,-0.32969 -4.831374,-1.1594 -6.151562,-1.88839 -0.727604,-0.40177 -2.162047,-1.57103 -3.18765,-2.59837 -2.953602,-2.95858 -4.433079,-6.56925 -4.80376,-11.7236 -0.15619,-2.17183 -0.153787,-2.18279 0.477632,-2.17828 1.258741,0.009 4.643958,1.0537 6.587736,2.03303 2.587834,1.30382 5.331032,4.00624 6.66041,6.56139 1.153979,2.21803 2.060079,4.89167 2.099583,6.19526 0.03003,0.99098 1.641432,-5.05067 1.971391,-7.39136 l 0.16861,-1.19611 -1.944268,-0.57269 c -5.9566,-1.75456 -9.518169,-6.94022 -9.473369,-13.79327 0.01155,-1.76667 0.318345,-3.90051 0.601513,-4.18368 0.335997,-0.336 3.330912,0.89126 5.159365,2.1142 3.852831,2.57693 6.331111,6.93886 6.412852,11.28703 0.03115,1.65711 0.237841,1.24895 0.744971,-1.47114 0.413605,-2.21844 0.379459,-2.69789 -0.239456,-3.36222 -0.841701,-0.90346 -2.041992,-3.49886 -2.3876,-5.16274 -0.625375,-3.01076 0.159794,-6.73164 2.007826,-9.51498 1.183386,-1.7823 2.735022,-3.50767 3.154482,-3.50767 0.177458,0 0.995752,0.90117 1.818431,2.0026 2.059394,2.75719 2.954877,5.56866 2.761407,8.66975 -0.190842,3.05897 -0.880911,4.51645 -3.153367,6.66017 -1.828558,1.72497 -1.830791,1.72884 -2.48191,4.29562 -0.75322,2.96928 -0.840046,4.05246 -0.152654,1.90441 1.033398,-3.22929 3.970976,-6.44581 7.370226,-8.07005 3.219068,-1.53816 7.294533,-2.22179 7.654405,-1.28398 0.262291,0.68352 -0.889019,4.85155 -1.916776,6.9392 -2.221267,4.512 -6.797677,7.1927 -12.279183,7.1927 -1.506995,0 -1.844383,0.0799 -1.955422,0.46302 -0.0738,0.25466 -0.437273,1.83224 -0.807706,3.50573 -0.370434,1.67349 -0.794321,3.45864 -0.941972,3.967 -0.439277,1.51243 -0.31068,1.51329 0.441949,0.003 0.851246,-1.70823 3.846885,-4.93626 5.661491,-6.10069 0.718696,-0.46119 2.228172,-1.19868 3.354391,-1.63887 1.730796,-0.6765 2.518526,-0.82004 5.090379,-0.92753 3.413559,-0.14268 5.291637,0.18987 5.291712,0.937 2.5e-5,0.24905 -0.56398,1.57427 -1.253344,2.94494 -1.777787,3.53477 -4.386204,6.27758 -7.316918,7.69391 -2.999291,1.44947 -4.920015,1.83873 -8.873281,1.79826 l -3.306876,-0.0339 -0.976619,4.18283 c -0.537141,2.30055 -1.104504,4.4635 -1.260807,4.80655 -0.482193,1.0583 -0.06735,0.69083 0.786267,-0.69647 2.042904,-3.32014 6.820666,-6.58758 11.221325,-7.67408 3.506833,-0.86583 9.946064,-0.65755 10.135833,0.32784 0.124776,0.64792 -1.337251,3.27142 -2.942067,5.27934 -3.019853,3.77837 -5.913135,5.64059 -10.214228,6.57421 -2.476304,0.53752 -7.202687,0.73269 -9.104295,0.37595 l -0.85067,-0.15959 -1.157088,4.58212 c -0.636399,2.52016 -1.216994,4.76071 -1.290213,4.97899 -0.07322,0.21828 0.223881,-0.0837 0.66022,-0.67111 2.106227,-2.83534 6.371506,-5.85064 10.18356,-7.19916 3.399844,-1.2027 10.859822,-1.10915 12.385493,0.15532 0.523222,0.43364 0.516452,0.45954 -0.564309,2.1587 -1.408575,2.21454 -4.671523,5.44971 -6.76743,6.7098 -2.107666,1.26716 -4.897763,2.23716 -7.544615,2.62294 -1.75284,0.25548 -2.576798,0.23175 -5.0529,-0.14551 -1.627197,-0.24793 -3.193913,-0.48171 -3.481591,-0.51952 -0.432852,-0.0569 -0.666904,0.31907 -1.357239,2.1802 -1.787409,4.81883 -1.862576,4.92161 -3.080648,4.21214 z"
       id="path14877" />
    <path
       style="fill:#5c895f"
       d="m 67.66719,240.74963 c -0.685659,-0.39936 -0.583976,-0.9551 0.727604,-3.97669 0.654844,-1.50862 1.190625,-2.75638 1.190625,-2.77281 0,-0.0164 -0.982265,-0.10042 -2.182812,-0.18665 -3.765971,-0.2705 -7.01558,-1.62844 -10.097015,-4.21933 -2.279074,-1.91626 -5.103843,-6.88184 -5.970874,-10.49603 -0.31717,-1.32211 -0.305203,-1.4602 0.156214,-1.8025 1.038637,-0.77053 6.65245,0.27237 9.74142,1.8097 4.803002,2.39037 8.497435,6.80987 9.085837,10.86901 l 0.203489,1.40379 1.255866,-4.87658 c 1.353135,-5.25428 1.351498,-5.29608 -0.20775,-5.30768 -0.436562,-0.003 -1.805396,-0.24841 -3.041853,-0.54481 -4.928779,-1.1815 -9.011049,-4.56556 -11.395711,-9.44665 -1.06016,-2.17 -2.449088,-6.85179 -2.168316,-7.30893 0.07856,-0.12791 1.22765,-0.17073 2.553528,-0.0952 6.341949,0.36152 11.97581,3.86972 14.402902,8.96867 0.57778,1.21383 1.197457,2.86181 1.377059,3.66217 0.427483,1.90501 0.594475,2.14958 0.811957,1.18917 0.09868,-0.43576 0.60944,-2.63099 1.135028,-4.87827 0.525588,-2.24729 0.955614,-4.17159 0.955614,-4.27623 0,-0.10463 -0.506015,-0.26862 -1.124479,-0.36441 -2.128519,-0.32969 -4.831374,-1.1594 -6.151562,-1.88839 -0.727604,-0.40177 -2.162047,-1.57103 -3.18765,-2.59837 -2.953602,-2.95858 -4.433079,-6.56925 -4.80376,-11.7236 -0.15619,-2.17183 -0.153787,-2.18279 0.477632,-2.17828 1.258741,0.009 4.643958,1.0537 6.587736,2.03303 2.587834,1.30382 5.331032,4.00624 6.66041,6.56139 1.153979,2.21803 2.060079,4.89167 2.099583,6.19526 0.03003,0.99098 1.641432,-5.05067 1.971391,-7.39136 l 0.16861,-1.19611 -1.944268,-0.57269 c -5.9566,-1.75456 -9.518169,-6.94022 -9.473369,-13.79327 0.01155,-1.76667 0.318345,-3.90051 0.601513,-4.18368 0.335997,-0.336 3.330912,0.89126 5.159365,2.1142 3.852831,2.57693 6.331111,6.93886 6.412852,11.28703 0.03115,1.65711 0.237841,1.24895 0.744971,-1.47114 0.413605,-2.21844 0.379459,-2.69789 -0.239456,-3.36222 -0.841701,-0.90346 -2.041992,-3.49886 -2.3876,-5.16274 -0.625375,-3.01076 0.159794,-6.73164 2.007826,-9.51498 1.183386,-1.7823 2.735022,-3.50767 3.154482,-3.50767 0.177458,0 0.995752,0.90117 1.818431,2.0026 2.059394,2.75719 2.954877,5.56866 2.761407,8.66975 -0.190842,3.05897 -0.880911,4.51645 -3.153367,6.66017 -1.828558,1.72497 -1.830791,1.72884 -2.48191,4.29562 -0.75322,2.96928 -0.840046,4.05246 -0.152654,1.90441 1.033398,-3.22929 3.970976,-6.44581 7.370226,-8.07005 3.219068,-1.53816 7.294533,-2.22179 7.654405,-1.28398 0.262291,0.68352 -0.889019,4.85155 -1.916776,6.9392 -2.221267,4.512 -6.797677,7.1927 -12.279183,7.1927 -1.506995,0 -1.844383,0.0799 -1.955422,0.46302 -0.0738,0.25466 -0.437273,1.83224 -0.807706,3.50573 -0.370434,1.67349 -0.794321,3.45864 -0.941972,3.967 -0.439277,1.51243 -0.31068,1.51329 0.441949,0.003 0.851246,-1.70823 3.846885,-4.93626 5.661491,-6.10069 0.718696,-0.46119 2.228172,-1.19868 3.354391,-1.63887 1.730796,-0.6765 2.518526,-0.82004 5.090379,-0.92753 3.413559,-0.14268 5.291637,0.18987 5.291712,0.937 2.5e-5,0.24905 -0.56398,1.57427 -1.253344,2.94494 -1.777787,3.53477 -4.386204,6.27758 -7.316918,7.69391 -2.999291,1.44947 -4.920015,1.83873 -8.873281,1.79826 l -3.306876,-0.0339 -0.976619,4.18283 c -0.537141,2.30055 -1.104504,4.4635 -1.260807,4.80655 -0.482193,1.0583 -0.06735,0.69083 0.786267,-0.69647 2.042904,-3.32014 6.820666,-6.58758 11.221325,-7.67408 3.506833,-0.86583 9.946064,-0.65755 10.135833,0.32784 0.124776,0.64792 -1.337251,3.27142 -2.942067,5.27934 -3.019853,3.77837 -5.913135,5.64059 -10.214228,6.57421 -2.476304,0.53752 -7.202687,0.73269 -9.104295,0.37595 l -0.85067,-0.15959 -1.157088,4.58212 c -0.636399,2.52016 -1.216994,4.76071 -1.290213,4.97899 -0.07322,0.21828 0.223881,-0.0837 0.66022,-0.67111 2.106227,-2.83534 6.371506,-5.85064 10.18356,-7.19916 3.399844,-1.2027 10.859822,-1.10915 12.385493,0.15532 0.523222,0.43364 0.516452,0.45954 -0.564309,2.1587 -1.408575,2.21454 -4.671523,5.44971 -6.76743,6.7098 -2.107666,1.26716 -4.897763,2.23716 -7.544615,2.62294 -1.75284,0.25548 -2.576798,0.23175 -5.0529,-0.14551 -1.627197,-0.24793 -3.193913,-0.48171 -3.481591,-0.51952 -0.432852,-0.0569 -0.666904,0.31907 -1.357239,2.1802 -1.787409,4.81883 -1.862576,4.92161 -3.080648,4.21214 z"
       id="path14859" />
    <path
       style="fill:#225942"
       d="m 67.619943,240.61964 c -0.563146,-0.56315 -0.562829,-0.56475 0.664042,-3.35028 1.592865,-3.61651 1.671804,-3.27706 -0.812497,-3.49377 -4.45981,-0.38904 -7.617554,-1.86351 -10.72814,-5.00939 -1.721827,-1.74137 -2.360325,-2.62886 -3.355573,-4.66412 -1.475173,-3.01671 -2.058605,-4.71784 -2.058605,-6.00234 v -0.95676 l 2.585501,0.15751 c 6.040596,0.36801 11.251015,3.28511 14.359812,8.03946 1.298602,1.98599 2.291738,4.89743 2.022189,5.92819 -0.09015,0.34473 -0.05532,0.48592 0.08521,0.3454 0.130727,-0.13073 0.408861,-0.95155 0.618075,-1.82405 0.624561,-2.60465 2.041614,-7.88141 2.174079,-8.09574 0.152742,-0.24715 -0.424728,-0.42161 -2.133404,-0.64456 -6.295019,-0.82136 -11.078796,-4.21058 -13.754839,-9.74504 -1.162827,-2.40491 -2.252451,-5.79679 -2.252451,-7.01165 0,-0.63484 0.01058,-0.6372 2.182812,-0.48689 7.949644,0.55006 14.130632,5.31202 15.919705,12.26487 0.230073,0.89413 0.418315,1.95577 0.418315,2.3592 0,1.33773 0.290769,0.47749 1.450126,-4.2902 1.528692,-6.28653 1.506149,-6.02841 0.534249,-6.11725 -0.436563,-0.0399 -1.686719,-0.25929 -2.778125,-0.48754 -5.325094,-1.11364 -9.661772,-5.55953 -11.099859,-11.37938 -0.728442,-2.94797 -0.994534,-6.17569 -0.512156,-6.21252 2.891595,-0.22076 8.010378,1.98483 10.589922,4.56299 2.584682,2.58331 4.575874,6.62991 4.929084,10.01713 0.150942,1.44751 0.157023,1.43212 1.149947,-2.91041 1.412411,-6.17716 1.413825,-5.88662 -0.02985,-6.13532 -2.135579,-0.3679 -4.815738,-1.90454 -6.517162,-3.73656 -1.981494,-2.13358 -2.923202,-4.04511 -3.436055,-6.97468 -0.446313,-2.54948 -0.296169,-6.74738 0.257099,-7.18828 0.41752,-0.33273 2.686525,0.44948 4.5495,1.56837 1.865453,1.12038 4.272361,3.70109 5.366625,5.75413 1.000454,1.87705 1.705793,4.74804 1.587015,6.45975 -0.139971,2.01713 0.206596,1.45252 0.672903,-1.09627 0.533667,-2.91698 0.549811,-4.15916 0.05652,-4.34845 -0.609558,-0.23391 -2.257169,-3.88097 -2.574412,-5.69858 -0.562695,-3.22389 0.519259,-6.89143 3.030359,-10.27212 1.778627,-2.39456 2.029733,-2.46539 3.335117,-0.94072 2.367114,2.76477 3.646841,6.41521 3.360632,9.58625 -0.26586,2.94561 -0.843404,4.13163 -3.133903,6.4357 -1.129799,1.13649 -2.112127,2.32711 -2.18295,2.64583 -0.07082,0.31872 -0.309429,1.39055 -0.530236,2.38184 -0.524087,2.35286 -0.509423,3.75579 0.01873,1.79141 0.912395,-3.39353 4.100884,-7.00646 7.617086,-8.63105 2.814326,-1.3003 7.019273,-2.12713 7.430871,-1.46115 0.08445,0.13665 -0.0376,1.17844 -0.271224,2.31511 -1.516031,7.37606 -6.024552,11.41744 -13.320747,11.94053 l -2.514786,0.1803 -0.332648,1.45521 c -0.182957,0.80036 -0.677132,2.91372 -1.098167,4.69635 -0.421036,1.78263 -0.663438,3.24115 -0.538672,3.24115 0.124765,0 0.226846,-0.18432 0.226846,-0.40959 0,-0.22527 0.398536,-1.02894 0.885635,-1.78594 3.041194,-4.72627 7.738131,-7.62358 13.016647,-8.02932 2.493075,-0.19163 4.876971,0.0467 5.575316,0.5573 0.461531,0.33748 0.41613,0.49792 -0.875398,3.09351 -2.850573,5.72882 -6.907603,8.69937 -12.988037,9.50984 -1.268779,0.16911 -3.272923,0.23952 -4.453653,0.15647 l -2.146782,-0.15101 -0.870188,3.88718 c -0.478603,2.13795 -1.025317,4.33366 -1.214919,4.87937 -0.189602,0.5457 -0.238973,0.99218 -0.109713,0.99218 0.129259,0 0.310307,-0.23722 0.40233,-0.52715 0.553581,-1.74418 4.523128,-5.3738 7.520636,-6.87662 2.474364,-1.24053 6.216918,-2.12122 9.014272,-2.12122 2.09222,0 4.941807,0.3535 5.238119,0.64982 0.258275,0.25827 -0.546786,1.91354 -1.934985,3.97847 -4.248054,6.31895 -9.521778,8.84466 -17.787399,8.5188 l -3.506245,-0.13823 -0.166476,0.70546 c -0.503007,2.13156 -2.259331,8.91007 -2.371433,9.15251 -0.07228,0.15631 0.141995,-0.0667 0.47616,-0.49555 3.254245,-4.17649 8.069646,-7.28435 12.778405,-8.24718 3.217884,-0.65798 8.672637,-0.29069 10.186458,0.68591 0.344396,0.22217 0.317495,0.40572 -0.203438,1.38811 -0.813007,1.53319 -3.313467,4.43654 -5.088229,5.90808 -1.720731,1.42674 -5.003429,3.07521 -7.408333,3.72024 -2.173349,0.58292 -6.28499,0.58315 -8.995833,5e-4 -1.091406,-0.23458 -2.057495,-0.42661 -2.146865,-0.42673 -0.08937,-1.2e-4 -0.669073,1.39877 -1.288231,3.10864 -0.619158,1.70987 -1.245226,3.25768 -1.391261,3.43958 -0.359449,0.44773 -0.871404,0.416 -1.372452,-0.085 z"
       id="path12518" />
    <path
       style="fill:#483a30"
       d="m 79.219819,190.80496 c -0.0641,-5.66985 -3.800039,-10.54269 -9.896156,-12.9077 l -0.928869,-0.36036 0.926042,0.16 c 2.946507,0.50906 7.156993,4.11031 8.808648,7.53407 1.235164,2.5604 1.913376,6.34343 1.307612,7.29378 -0.106912,0.16773 -0.204687,-0.60618 -0.217277,-1.71979 z"
       id="path14690" />
    <path
       style="fill:#483a30"
       d="m 81.592454,192.24255 c 0.234817,-1.68156 1.49646,-3.85321 3.41848,-5.88418 1.418885,-1.49931 2.258277,-2.12304 3.96875,-2.9491 1.892832,-0.91412 2.820246,-1.20714 5.675005,-1.79301 0.327422,-0.0672 0.595312,-0.0272 0.595312,0.0889 0,0.11608 -0.80627,0.33802 -1.791711,0.49319 -2.66582,0.41976 -5.931688,2.05471 -7.90267,3.95621 -1.696267,1.63647 -3.531853,4.58803 -3.538836,5.69034 -0.0022,0.35171 -0.131152,0.81808 -0.286496,1.03636 -0.212037,0.29794 -0.246396,0.13873 -0.137834,-0.6387 z"
       id="path14689" />
    <path
       style="fill:#483a30"
       d="m 76.366648,204.23005 c -0.06072,-0.20273 -0.308286,-1.14796 -0.550154,-2.10052 -0.81032,-3.1913 -3.425043,-6.97107 -6.363366,-9.1987 l -0.79375,-0.60176 0.898526,0.47452 c 1.953558,1.03171 4.608492,4.297 5.798662,7.13174 0.663871,1.5812 1.425093,4.3587 1.244164,4.53963 -0.06803,0.068 -0.173366,-0.0422 -0.234082,-0.24491 z"
       id="path14685" />
    <path
       style="fill:#483a30"
       d="m 72.887668,207.57367 c -2.188892,-0.47661 -3.359343,-1.003 -5.253355,-2.36261 -2.179936,-1.56485 -2.848512,-2.31534 -4.243813,-4.76378 -1.282591,-2.25065 -2.122757,-5.20455 -2.434187,-8.55822 l -0.178131,-1.91823 1.030181,0.003 c 0.5666,0.002 1.644701,0.16676 2.395781,0.36674 1.422606,0.37877 4.322942,1.61989 4.322942,1.84988 0,0.0728 -0.645242,-0.15299 -1.433871,-0.50176 -1.56142,-0.69053 -4.266054,-1.45342 -5.152757,-1.45342 -0.505075,0 -0.557122,0.14961 -0.557122,1.60142 0,2.33051 0.69152,5.0959 1.915232,7.659 2.077165,4.35069 5.903286,7.2008 10.784768,8.03367 1.236927,0.21105 1.832239,0.38534 1.322916,0.38732 -0.509323,0.002 -1.642686,-0.15243 -2.518584,-0.34315 z"
       id="path14682" />
    <path
       style="fill:#483a30"
       d="m 65.89156,214.79177 c -0.296711,-0.31848 -0.539474,-0.83581 -0.539474,-1.14962 0,-1.28958 1.903342,-1.92423 2.870457,-0.95711 0.695849,0.69584 0.459899,2.11065 -0.406962,2.44023 -0.966131,0.36733 -1.329839,0.30428 -1.924021,-0.3335 z"
       id="path14681" />
    <path
       style="fill:#483a30"
       d="m 83.298282,217.47787 c -0.516417,-0.30133 -0.860367,-1.60166 -0.622171,-2.35215 0.376135,-1.18509 2.187903,-0.77264 2.833887,0.64514 0.591073,1.29726 -0.917955,2.46194 -2.211716,1.70701 z"
       id="path14679" />
    <path
       style="fill:#483a30"
       d="m 79.278392,219.05579 c -0.701577,-0.55186 -0.919031,-1.60281 -0.476048,-2.30073 0.36515,-0.5753 1.841843,-0.871 2.260235,-0.45261 0.635602,0.63561 0.790662,2.22683 0.272762,2.7991 -0.587645,0.64935 -1.190313,0.63594 -2.056949,-0.0458 z"
       id="path14678" />
    <path
       style="fill:#483a30"
       d="m 87.577085,207.57129 c 3.833563,-1.16922 7.421891,-4.37469 9.476512,-8.4654 0.628176,-1.25069 1.102865,-2.47827 1.054864,-2.72796 -0.113932,-0.59264 -1.751232,-0.82752 -4.710543,-0.67577 -4.544359,0.23304 -8.163708,1.89536 -11.259493,5.17134 -1.904345,2.01519 -3.821756,5.35958 -3.821756,6.66598 0,0.60958 0.10601,0.66605 1.389062,0.73992 2.272187,0.13081 6.31244,-0.23265 7.871354,-0.70811 z"
       id="path14663" />
    <path
       style="fill:#483a30"
       d="m 67.619943,240.61964 c -0.563146,-0.56315 -0.562829,-0.56475 0.664042,-3.35028 1.592922,-3.61663 1.662205,-3.2838 -0.7269,-3.49195 -4.465657,-0.38907 -7.706795,-1.8719 -10.671665,-4.88234 -1.091406,-1.10818 -2.390726,-2.7075 -2.887376,-3.55406 -1.220151,-2.07978 -2.649324,-5.90827 -2.660096,-7.12591 l -0.0088,-0.99219 h 1.564225 c 5.91099,0 12.016754,3.12597 15.16715,7.76514 1.690888,2.48994 2.47543,5.00514 2.034455,6.52236 -0.14171,0.48757 -0.200834,0.2789 -0.224904,-0.79375 -0.06698,-2.98487 -2.493311,-7.01983 -5.602265,-9.31649 -3.1492,-2.3264 -7.7224,-3.9119 -11.285015,-3.91246 -1.709179,-2.6e-4 -1.730874,0.13209 -0.573939,3.50162 1.956575,5.69844 6.13094,10.13972 10.958834,11.65956 1.340362,0.42196 4.620887,0.9799 5.739223,0.97612 0.742847,-0.003 1.112374,-0.70902 1.797925,-3.43752 0.274223,-1.0914 0.853104,-3.35359 1.286404,-5.02708 0.4333,-1.67349 0.827916,-3.2138 0.876924,-3.42292 0.06752,-0.28808 -0.429098,-0.45672 -2.049433,-0.69596 -4.638916,-0.68492 -7.26263,-1.97681 -10.438907,-5.14001 -1.595617,-1.58904 -2.241159,-2.4882 -3.230347,-4.49944 -1.214806,-2.46998 -2.316163,-5.8516 -2.316163,-7.11159 0,-0.63816 0.006,-0.63948 2.182812,-0.47871 5.823601,0.43012 10.835579,3.11917 13.714079,7.35795 1.04838,1.54381 2.63745,5.73964 2.607891,6.88596 -0.0088,0.34234 -0.247284,-0.23813 -0.529903,-1.28992 -1.283878,-4.77807 -3.420881,-7.71209 -7.424603,-10.19371 -2.058219,-1.27575 -6.740723,-2.57831 -9.268577,-2.57831 H 55.27392 l 0.179073,0.99218 c 0.343874,1.9053 1.757431,5.76647 2.655948,7.2548 1.765415,2.92429 4.185272,5.25752 6.918712,6.67104 1.093272,0.56535 1.129928,0.55279 0.953996,-0.32687 -0.121312,-0.60656 -0.0092,-0.8662 0.571463,-1.32292 0.998553,-0.78546 1.98919,-0.72516 2.850151,0.17349 0.640647,0.66869 0.678086,0.81123 0.38023,1.44761 -0.206738,0.4417 -0.627453,0.77309 -1.124137,0.88547 l -0.79375,0.17959 0.701071,0.23809 c 0.385589,0.13095 1.576214,0.38485 2.645833,0.56423 l 1.944762,0.32614 0.339263,-1.19924 c 0.881789,-3.11698 2.752325,-10.82432 2.827471,-11.65028 0.04634,-0.50932 0.215983,-1.26122 0.376988,-1.67087 0.161005,-0.40966 0.292736,-0.89704 0.292736,-1.08307 0,-0.18603 0.475028,-2.39428 1.055618,-4.90722 0.580589,-2.51295 1.000211,-4.65864 0.932492,-4.76821 -0.06772,-0.10958 -0.621098,-0.26602 -1.229731,-0.34765 -0.608632,-0.0816 -1.968212,-0.57426 -3.021287,-1.09472 -4.809448,-2.37695 -7.610684,-7.91241 -7.105904,-14.0418 0.29221,-3.54823 0.505035,-2.9602 0.509709,1.40832 0.0041,3.80285 0.05763,4.26899 0.643762,5.60314 1.786586,4.06657 4.528171,6.56585 8.364219,7.62497 l 1.868669,0.51593 0.432889,-1.49076 c 0.565596,-1.94778 1.253731,-5.67901 1.253731,-6.79803 0,-0.56965 -0.229275,-1.13057 -0.645833,-1.58005 -0.355209,-0.38327 -1.029756,-1.6098 -1.498994,-2.72561 -0.713411,-1.69643 -0.85538,-2.37546 -0.866715,-4.14541 -0.02312,-3.61013 1.464424,-7.18334 4.18559,-10.05417 l 1.003161,-1.05833 1.134161,1.28591 c 0.623788,0.70724 1.446205,1.85923 1.827593,2.55997 0.814135,1.49583 1.740203,4.91603 1.740203,6.427 0,1.41971 -0.180922,1.15759 -0.367774,-0.53283 -0.241941,-2.1888 -0.652241,-3.7289 -1.371634,-5.14855 -0.901371,-1.77877 -2.468945,-3.93004 -2.863717,-3.93004 -0.808984,0 -3.392397,3.5669 -4.215875,5.82083 -0.813828,2.22752 -1.025068,4.5774 -0.582878,6.48409 0.427495,1.84332 1.685294,4.57237 2.36883,5.13966 0.233548,0.19383 0.418465,0.75054 0.418465,1.25984 0,0.5019 0.183322,1.09586 0.407382,1.31992 0.366786,0.36679 0.394919,0.33866 0.282315,-0.28231 -0.074,-0.40808 0.03663,-0.8514 0.270946,-1.08571 0.217807,-0.21781 0.310493,-0.53439 0.205971,-0.70351 -0.111549,-0.18049 -0.07513,-0.23647 0.08817,-0.13555 0.312979,0.19344 2.681769,-1.84066 3.528791,-3.0302 0.304339,-0.4274 0.782312,-1.51832 1.062161,-2.42427 0.457271,-1.4803 0.494475,-1.53079 0.367239,-0.49841 -0.215192,1.74606 -1.071389,3.17222 -3.064281,5.10414 l -1.810366,1.75499 -0.529598,2.47835 c -0.291279,1.36309 -0.562637,3.22176 -0.603019,4.13038 -0.04038,0.90862 -0.162717,1.65276 -0.271858,1.65365 -0.109141,8.8e-4 -0.198437,0.12067 -0.198437,0.26619 0,0.61548 5.039635,0.0346 7.248722,-0.8355 4.073934,-1.60462 6.573461,-4.71016 7.984535,-9.92041 0.492437,-1.81827 0.599611,-2.0464 0.479997,-1.02172 -0.206812,1.77167 -1.456871,5.12778 -2.433827,6.53424 -2.387116,3.43659 -6.075467,5.345 -11.069002,5.72726 l -2.319925,0.17759 -0.33262,1.45521 c -0.182941,0.80036 -0.677103,2.91372 -1.098138,4.69635 -0.733036,3.10361 -0.778948,4.23897 -0.09492,2.34733 0.459357,-1.27033 2.678239,-4.11565 4.188156,-5.37057 1.970471,-1.6377 3.228776,-2.34034 5.663103,-3.16231 1.967333,-0.66428 2.615159,-0.75447 5.409963,-0.75315 2.041005,9.7e-4 3.383111,0.11909 3.757677,0.33072 0.556542,0.31445 0.565723,0.37727 0.204676,1.40059 -1.508772,4.27632 -4.657057,7.94642 -8.347207,9.73072 -2.951231,1.42702 -4.461494,1.73325 -8.621264,1.7481 l -3.481119,0.0124 -0.858768,3.83646 c -0.472322,2.11005 -1.013897,4.28294 -1.203499,4.82865 -0.196881,0.56665 -0.236289,0.99218 -0.09188,0.99218 0.139066,0 0.252847,-0.11906 0.252847,-0.26458 0,-0.14552 0.11651,-0.26458 0.258911,-0.26458 0.158377,0 0.143354,0.25362 -0.03869,0.65316 -0.16368,0.35924 -0.397888,0.59118 -0.520463,0.51542 -0.122575,-0.0757 -0.147347,0.0591 -0.05505,0.29959 0.0923,0.24052 0.04974,0.5146 -0.09458,0.60905 -0.14432,0.0945 -0.338496,0.48308 -0.431504,0.86362 l -0.169104,0.69188 2.992099,0.18425 c 5.016239,0.3089 9.833555,-0.78831 12.610465,-2.87223 2.581958,-1.93761 5.736681,-5.76224 6.746534,-8.17916 0.363081,-0.86897 0.353693,-0.91791 -0.206519,-1.07672 -1.510768,-0.42826 -4.93955,-0.4531 -7.373006,-0.0534 -4.950133,0.81306 -8.331447,2.62874 -11.74827,6.3085 -0.982459,1.05806 -1.502604,1.50703 -1.155878,0.99771 0.836288,-1.22847 3.203071,-3.53061 4.660974,-4.53367 2.920976,-2.00968 7.536864,-3.40383 11.269745,-3.40383 2.04265,0 4.867399,0.3582 5.164041,0.65484 0.52892,0.52892 -2.898882,5.69799 -5.248225,7.91425 -3.557438,3.3559 -7.137716,4.52469 -13.81618,4.51033 -3.542264,-0.008 -4.183324,0.0524 -4.280781,0.40112 -0.06304,0.22554 -0.369773,1.48164 -0.681623,2.79133 -0.311851,1.30969 -0.842741,3.33375 -1.179755,4.49792 -0.337015,1.16416 -0.624416,2.60261 -0.638669,3.19654 l -0.02592,1.07988 1.385411,0.34083 c 0.761975,0.18746 2.695097,0.39785 4.295826,0.46754 3.605187,0.15695 5.667199,-0.27741 9.004876,-1.89687 1.920463,-0.93182 2.831982,-1.59314 4.637427,-3.36448 2.326774,-2.28283 4.246156,-4.86375 4.03204,-5.42172 -0.155473,-0.40516 -2.271908,-0.86843 -4.856892,-1.06313 -6.264336,-0.47184 -13.528346,2.91792 -17.250639,8.05003 -0.448393,0.61822 -0.871437,1.06786 -0.940098,0.9992 -0.290595,-0.2906 2.180921,-3.09879 4.052063,-4.60404 4.264938,-3.43097 8.975545,-5.0004 14.148746,-4.71394 2.832006,0.15682 5.296435,0.77792 5.296435,1.33484 0,0.63382 -2.195911,3.63584 -3.970684,5.4283 -1.75558,1.77308 -4.227311,3.44814 -6.455747,4.37499 -3.149815,1.31006 -7.862698,1.66045 -11.351965,0.84398 -0.991296,-0.23196 -1.957385,-0.42175 -2.146865,-0.42175 -0.199539,0 -0.818226,1.30822 -1.470251,3.10886 -0.619158,1.70987 -1.245226,3.25768 -1.391261,3.43958 -0.359449,0.44773 -0.871404,0.416 -1.372452,-0.085 z"
       id="path12517" />
    <path
       style="fill:#284c34"
       d="m 79.219819,190.80496 c -0.0641,-5.66985 -3.800039,-10.54269 -9.896156,-12.9077 l -0.928869,-0.36036 0.926042,0.16 c 2.946507,0.50906 7.156993,4.11031 8.808648,7.53407 1.235164,2.5604 1.913376,6.34343 1.307612,7.29378 -0.106912,0.16773 -0.204687,-0.60618 -0.217277,-1.71979 z"
       id="path14419" />
    <path
       style="fill:#284c34"
       d="m 81.592454,192.24255 c 0.234817,-1.68156 1.49646,-3.85321 3.41848,-5.88418 1.418885,-1.49931 2.258277,-2.12304 3.96875,-2.9491 1.892832,-0.91412 2.820246,-1.20714 5.675005,-1.79301 0.327422,-0.0672 0.595312,-0.0272 0.595312,0.0889 0,0.11608 -0.80627,0.33802 -1.791711,0.49319 -2.66582,0.41976 -5.931688,2.05471 -7.90267,3.95621 -1.696267,1.63647 -3.531853,4.58803 -3.538836,5.69034 -0.0022,0.35171 -0.131152,0.81808 -0.286496,1.03636 -0.212037,0.29794 -0.246396,0.13873 -0.137834,-0.6387 z"
       id="path14415" />
    <path
       style="fill:#284c34"
       d="m 76.366648,204.23005 c -0.06072,-0.20273 -0.308286,-1.14796 -0.550154,-2.10052 -0.81032,-3.1913 -3.425043,-6.97107 -6.363366,-9.1987 l -0.79375,-0.60176 0.898526,0.47452 c 1.953558,1.03171 4.608492,4.297 5.798662,7.13174 0.663871,1.5812 1.425093,4.3587 1.244164,4.53963 -0.06803,0.068 -0.173366,-0.0422 -0.234082,-0.24491 z"
       id="path14386" />
    <path
       style="fill:#284c34"
       d="m 77.355235,205.40233 c -0.269783,-0.0983 0.379431,-3.73104 1.221045,-6.83254 0.203569,-0.75019 0.217896,-0.75745 0.261069,-0.13229 0.04183,0.6057 0.06366,0.61685 0.258968,0.13229 0.117308,-0.29104 0.106503,-0.66337 -0.02401,-0.82739 -0.130515,-0.16402 -0.205098,-0.69357 -0.165739,-1.17678 0.06918,-0.8493 0.03191,-0.88547 -1.119063,-1.08606 -0.654844,-0.11412 -2.041286,-0.62667 -3.080983,-1.139 -4.781166,-2.356 -7.585309,-7.91038 -7.081579,-14.02702 0.29221,-3.54823 0.505035,-2.9602 0.509709,1.40832 0.0041,3.80285 0.05763,4.26899 0.643762,5.60314 1.790201,4.0748 4.527353,6.5656 8.385637,7.6309 l 1.890087,0.52187 0.18517,-0.83524 c 0.101843,-0.45938 0.243491,-0.68641 0.314774,-0.50451 0.07128,0.1819 0.245771,0.33073 0.387753,0.33073 0.141982,0 0.184565,-0.11907 0.09463,-0.26459 -0.08994,-0.14552 -0.0077,-0.26837 0.182823,-0.273 0.230044,-0.006 0.190865,-0.12644 -0.116677,-0.35989 -0.469543,-0.35644 -0.661272,-0.84378 -0.226162,-0.57487 0.130273,0.0805 0.302178,-0.0238 0.382012,-0.23187 0.07983,-0.20804 0.0443,-0.41572 -0.07896,-0.4615 -0.12326,-0.0458 -0.0633,-0.97621 0.133236,-2.06762 0.537375,-2.98409 0.489926,-3.82846 -0.260649,-4.63835 -0.355209,-0.38327 -1.029756,-1.6098 -1.498994,-2.72561 -0.713411,-1.69643 -0.85538,-2.37546 -0.866715,-4.14541 -0.02312,-3.61013 1.464424,-7.18334 4.18559,-10.05417 l 1.003161,-1.05833 1.134161,1.28591 c 0.623788,0.70724 1.446205,1.85923 1.827593,2.55997 0.814135,1.49583 1.740203,4.91603 1.740203,6.427 0,1.41971 -0.180922,1.15759 -0.367774,-0.53283 -0.241941,-2.1888 -0.652241,-3.7289 -1.371634,-5.14855 -0.901371,-1.77877 -2.468945,-3.93004 -2.863717,-3.93004 -0.808984,0 -3.392397,3.5669 -4.215875,5.82083 -0.813828,2.22752 -1.025068,4.5774 -0.582878,6.48409 0.427495,1.84332 1.685294,4.57237 2.36883,5.13966 0.233548,0.19383 0.418465,0.75054 0.418465,1.25984 0,0.5019 0.183322,1.09586 0.407382,1.31992 0.366786,0.36679 0.394919,0.33866 0.282315,-0.28231 -0.074,-0.40808 0.03663,-0.8514 0.270946,-1.08571 0.217807,-0.21781 0.310493,-0.53439 0.205971,-0.70351 -0.111549,-0.18049 -0.07513,-0.23647 0.08817,-0.13555 0.312979,0.19344 2.681769,-1.84066 3.528791,-3.0302 0.304339,-0.4274 0.782312,-1.51832 1.062161,-2.42427 0.457271,-1.4803 0.494475,-1.53079 0.367239,-0.49841 -0.215549,1.74895 -1.072081,3.17289 -3.078527,5.11789 -1.803916,1.74867 -1.829503,1.79311 -2.255758,3.91833 -0.277997,1.38603 -0.510503,2.02653 -0.654549,1.80314 -0.130904,-0.203 -0.155142,0.009 -0.05854,0.51279 0.101352,0.52823 0.03777,1.01238 -0.165058,1.25677 -0.227704,0.27436 -0.23791,0.39753 -0.03294,0.39753 0.163339,0 0.29698,0.18562 0.29698,0.41249 0,0.22687 -0.119062,0.3389 -0.264583,0.24897 -0.330162,-0.20405 -0.331229,-0.0774 -0.0065,0.77652 0.167658,0.44098 0.167658,0.67869 0,0.67869 -0.141919,0 -0.258034,0.11906 -0.258034,0.26458 0,0.61548 5.039635,0.0346 7.248722,-0.8355 4.073934,-1.60462 6.573461,-4.71016 7.984535,-9.92041 0.492437,-1.81827 0.599611,-2.0464 0.479997,-1.02172 -0.206812,1.77167 -1.456871,5.12778 -2.433827,6.53424 -2.386833,3.43619 -6.07526,5.34486 -11.067653,5.72726 l -2.318576,0.17759 -0.411669,1.67364 c -0.226418,0.92051 -0.501284,1.58403 -0.610814,1.4745 -0.109529,-0.10953 -0.133297,0.14937 -0.05282,0.57532 0.08048,0.42595 -0.03342,1.31024 -0.253099,1.96508 -0.339528,1.01208 -0.376261,1.05176 -0.244955,0.26458 0.08496,-0.50932 0.06059,-0.83614 -0.05416,-0.72627 -0.114746,0.10987 -0.24752,0.70519 -0.295053,1.32292 -0.04753,0.61773 -0.125036,1.40425 -0.172227,1.74782 -0.09059,0.65956 -0.638313,1.09933 -1.14109,0.9162 z"
       id="path14377" />
    <path
       style="fill:#284c34"
       d="m 72.887668,207.57367 c -2.188892,-0.47661 -3.359343,-1.003 -5.253355,-2.36261 -2.179936,-1.56485 -2.848512,-2.31534 -4.243813,-4.76378 -1.282591,-2.25065 -2.122757,-5.20455 -2.434187,-8.55822 l -0.178131,-1.91823 1.030181,0.003 c 0.5666,0.002 1.644701,0.16676 2.395781,0.36674 1.422606,0.37877 4.322942,1.61989 4.322942,1.84988 0,0.0728 -0.645242,-0.15299 -1.433871,-0.50176 -1.56142,-0.69053 -4.266054,-1.45342 -5.152757,-1.45342 -0.505075,0 -0.557122,0.14961 -0.557122,1.60142 0,2.33051 0.69152,5.0959 1.915232,7.659 2.077165,4.35069 5.903286,7.2008 10.784768,8.03367 1.236927,0.21105 1.832239,0.38534 1.322916,0.38732 -0.509323,0.002 -1.642686,-0.15243 -2.518584,-0.34315 z"
       id="path14374" />
    <path
       style="fill:#284c34"
       d="m 65.89156,214.79177 c -0.296711,-0.31848 -0.539474,-0.83581 -0.539474,-1.14962 0,-1.28958 1.903342,-1.92423 2.870457,-0.95711 0.695849,0.69584 0.459899,2.11065 -0.406962,2.44023 -0.966131,0.36733 -1.329839,0.30428 -1.924021,-0.3335 z"
       id="path14364" />
    <path
       style="fill:#284c34"
       d="m 83.298282,217.47787 c -0.516417,-0.30133 -0.860367,-1.60166 -0.622171,-2.35215 0.376135,-1.18509 2.187903,-0.77264 2.833887,0.64514 0.591073,1.29726 -0.917955,2.46194 -2.211716,1.70701 z"
       id="path14362" />
    <path
       style="fill:#284c34"
       d="m 79.278392,219.05579 c -0.701577,-0.55186 -0.919031,-1.60281 -0.476048,-2.30073 0.36515,-0.5753 1.841843,-0.871 2.260235,-0.45261 0.635602,0.63561 0.790662,2.22683 0.272762,2.7991 -0.587645,0.64935 -1.190313,0.63594 -2.056949,-0.0458 z"
       id="path14361" />
    <path
       style="fill:#284c34"
       d="m 72.158299,225.32674 c 0.08842,-0.44209 0.305984,-1.28545 0.483479,-1.87413 l 0.322717,-1.07032 -0.03589,1.62782 c -0.02015,0.91405 -0.14262,1.56211 -0.279293,1.47796 -0.13387,-0.0824 -0.174987,0.0284 -0.09137,0.2463 0.08863,0.23095 0.0035,0.39618 -0.204186,0.39618 -0.255675,0 -0.310841,-0.22687 -0.195454,-0.80381 z"
       id="path14358" />
    <path
       style="fill:#284c34"
       d="m 87.577085,207.57129 c 3.833563,-1.16922 7.421891,-4.37469 9.476512,-8.4654 0.628176,-1.25069 1.102865,-2.47827 1.054864,-2.72796 -0.113932,-0.59264 -1.751232,-0.82752 -4.710543,-0.67577 -4.544359,0.23304 -8.163708,1.89536 -11.259493,5.17134 -1.904345,2.01519 -3.821756,5.35958 -3.821756,6.66598 0,0.60958 0.10601,0.66605 1.389062,0.73992 2.272187,0.13081 6.31244,-0.23265 7.871354,-0.70811 z"
       id="path14351" />
    <path
       style="fill:#284c34"
       d="m 76.200002,234.94886 c -3.853861,-0.49843 -5.819413,-1.21104 -5.365619,-1.94529 0.08564,-0.13858 0.02345,-0.17021 -0.138195,-0.0703 -0.161649,0.0999 -0.229288,0.35005 -0.150307,0.55587 0.119289,0.31086 -0.288369,0.35666 -2.407819,0.27052 -4.679929,-0.19021 -8.10905,-1.67262 -11.252642,-4.86453 -1.091406,-1.10818 -2.390726,-2.7075 -2.887376,-3.55406 -1.220151,-2.07978 -2.649324,-5.90827 -2.660096,-7.12591 l -0.0088,-0.99219 h 1.564225 c 5.91099,0 12.016754,3.12597 15.16715,7.76514 1.690888,2.48994 2.47543,5.00514 2.034455,6.52236 -0.14171,0.48757 -0.200834,0.2789 -0.224904,-0.79375 -0.06698,-2.98487 -2.493311,-7.01983 -5.602265,-9.31649 -3.1492,-2.3264 -7.7224,-3.9119 -11.285015,-3.91246 -1.241269,-1.9e-4 -1.389063,0.0598 -1.389063,0.56369 0,1.11633 1.654977,5.35201 2.843871,7.27851 2.846771,4.61293 6.811357,7.22743 12.155769,8.01631 2.899238,0.42794 3.075421,0.39885 3.506486,-0.57904 0.458271,-1.03961 0.986017,-1.61163 1.186943,-1.28652 0.0812,0.13139 -0.03027,0.30716 -0.247714,0.3906 -0.451246,0.17316 -0.537814,0.69748 -0.115157,0.69748 0.154109,0 0.214324,-0.10658 0.133811,-0.23685 -0.163732,-0.26493 0.636085,-0.65333 0.867932,-0.42148 0.08133,0.0813 0.121502,0.5394 0.08928,1.01793 -0.05677,0.84291 -0.01508,0.88076 1.335615,1.21292 0.766815,0.18858 2.703897,0.39988 4.304626,0.46957 3.605187,0.15695 5.667199,-0.27741 9.004876,-1.89687 1.920463,-0.93182 2.831982,-1.59314 4.637427,-3.36448 2.326774,-2.28283 4.246156,-4.86375 4.03204,-5.42172 -0.155473,-0.40516 -2.271908,-0.86843 -4.856892,-1.06313 -6.264336,-0.47184 -13.528346,2.91792 -17.250639,8.05003 -0.448393,0.61822 -0.871437,1.06786 -0.940098,0.9992 -0.290595,-0.2906 2.180921,-3.09879 4.052063,-4.60404 4.264938,-3.43097 8.975545,-5.0004 14.148746,-4.71394 2.832006,0.15682 5.296435,0.77792 5.296435,1.33484 0,0.63382 -2.195911,3.63584 -3.970684,5.4283 -1.75558,1.77308 -4.227311,3.44814 -6.455747,4.37499 -2.565857,1.06718 -6.379955,1.57341 -9.152735,1.2148 z"
       id="path14326" />
    <path
       style="fill:#50a37e;fill-opacity:1"
       d="m 65.916132,214.69362 c -0.672882,-0.85543 -0.695124,-1.13458 -0.152168,-1.90975 0.790673,-1.12885 2.763122,-0.4278 2.763122,0.98206 0,0.84083 -0.347826,1.21831 -1.355663,1.47126 -0.552119,0.13858 -0.804769,0.0292 -1.255291,-0.54357 z"
       id="path12776" />
    <path
       style="fill:#50a37e;fill-opacity:1"
       d="m 83.25561,217.2718 c -0.239107,-0.26421 -0.508359,-0.84848 -0.598337,-1.29837 -0.136195,-0.68097 -0.05079,-0.89189 0.509884,-1.25926 0.641713,-0.42047 0.711682,-0.41304 1.483371,0.15749 0.85056,0.62885 1.033792,1.43861 0.535998,2.36875 -0.345084,0.64479 -1.360848,0.6613 -1.930916,0.0314 z"
       id="path12755" />
    <path
       style="fill:#50a37e;fill-opacity:1"
       d="m 79.278392,219.05577 c -0.837784,-0.659 -0.906383,-1.62364 -0.167973,-2.36204 0.595535,-0.59554 1.651621,-0.69758 2.053717,-0.19844 0.146536,0.1819 0.347465,0.70992 0.446509,1.17339 0.14033,0.65665 0.05947,0.96327 -0.366323,1.38906 -0.687747,0.68775 -1.089612,0.68734 -1.96593,-0.002 z"
       id="path12729" />
    <path
       style="fill:#50a37e;fill-opacity:1"
       d="m 66.278128,219.8358 c -0.727604,-0.29328 -1.441979,-0.65019 -1.5875,-0.79312 -0.145521,-0.14293 0.170126,-0.0784 0.701437,0.14342 l 0.96602,0.4033 -0.133562,-0.99579 c -0.162567,-1.21202 0.345434,-1.74111 1.671709,-1.74111 1.123814,0 2.087418,0.85543 1.84038,1.63378 -0.190771,0.60106 -1.601109,1.28114 -2.400151,1.15737 l -0.529167,-0.082 0.529167,0.4097 c 0.682321,0.52827 0.544924,0.51067 -1.058333,-0.13559 z"
       id="path12715" />
  </g>
</svg>
