<?xml version="1.0" encoding="UTF-8" standalone="no"?>
<!-- Created with Inkscape (http://www.inkscape.org/) -->

<svg
   width="185"
   height="185"
   viewBox="0 0 48.947914 48.947918"
   version="1.1"
   id="svg1"
   xmlns="http://www.w3.org/2000/svg"
   xmlns:svg="http://www.w3.org/2000/svg">
  <defs
     id="defs1" />
  <g
     id="g14927"
     transform="matrix(0.66084638,0,0,0.66084638,-63.971479,-2.0917688)">
    <path
       style="fill:#c89639"
       d="m 127.05887,76.846458 c -0.32342,-0.226533 -0.58804,-0.566133 -0.58804,-0.754667 0,-0.188533 0.53837,-1.627789 1.19638,-3.198346 0.658,-1.570557 1.15067,-2.901255 1.09482,-2.957106 -0.0559,-0.05585 -1.27883,-0.277626 -2.71773,-0.49283 -4.56346,-0.682523 -7.22865,-1.846789 -9.97647,-4.358142 -2.39348,-2.187502 -4.46999,-5.697746 -5.63333,-9.522864 -0.64174,-2.110081 -0.63631,-2.116909 1.68269,-2.114812 3.57408,0.0032 8.44654,1.56911 11.04164,3.548488 1.53266,1.169018 3.5962,3.434303 4.54182,4.985863 0.94496,1.550465 1.94518,4.050916 1.94518,4.86274 0,0.24617 0.0601,0.387498 0.13352,0.314061 0.2057,-0.205701 2.49134,-9.56414 2.37991,-9.744435 -0.054,-0.08742 -0.61188,-0.184918 -1.23968,-0.216662 -2.60469,-0.131705 -6.78891,-1.366179 -8.68266,-2.561651 -3.67596,-2.320532 -6.42454,-6.769728 -7.76404,-12.567866 -0.50423,-2.182633 -0.31532,-2.319253 2.62012,-1.894833 4.68961,0.678048 7.61121,2.083355 10.81615,5.20265 2.09642,2.04039 3.7868,4.920574 4.50406,7.674351 0.21974,0.84363 0.44315,1.577498 0.49647,1.630818 0.0533,0.05332 0.60064,-2.018531 1.21627,-4.604112 0.61563,-2.585582 1.17217,-4.893695 1.23676,-5.12914 0.0951,-0.346764 -0.18321,-0.462098 -1.46524,-0.607143 -2.05323,-0.232296 -5.05979,-1.262614 -6.63608,-2.274112 -3.93417,-2.524552 -6.65357,-7.467525 -7.4153,-13.47859 -0.27425,-2.164146 -0.0304,-2.698167 1.13985,-2.495915 5.71924,0.98847 10.90061,4.688384 13.14964,9.389899 0.58436,1.221565 1.27736,3.072239 1.54001,4.112609 l 0.47754,1.891581 0.88458,-4.008248 c 1.34897,-6.112563 1.38364,-5.554018 -0.36763,-5.92135 -1.85338,-0.388751 -4.55111,-1.699763 -5.93473,-2.884088 -1.51847,-1.29975 -3.1236,-3.848154 -3.7911,-6.018966 -0.44098,-1.434137 -0.58242,-2.57861 -0.59248,-4.79426 -0.007,-1.600729 0.0812,-3.249445 0.19672,-3.663813 0.18238,-0.654458 0.304,-0.731561 0.92604,-0.587118 1.59715,0.370865 4.64158,2.112086 6.1866,3.538342 2.86545,2.645173 4.02239,4.966316 4.83904,9.708422 l 0.31896,1.852084 0.30814,-1.741465 c 0.5119,-2.892992 0.41687,-3.73234 -0.59241,-5.232121 -1.19351,-1.773552 -2.27568,-5.071738 -2.26985,-6.917941 0.007,-2.090126 0.62594,-4.718657 1.53476,-6.5136679 1.09513,-2.1629944 2.95475,-4.5979292 3.51155,-4.5979292 1.29603,0 4.20622,5.0453358 4.74184,8.2207981 0.64369,3.816239 -0.40992,6.944068 -3.29761,9.789521 -1.4446,1.42347 -1.46295,1.461454 -2.01453,4.170235 -0.59175,2.906053 -0.53696,3.857878 0.0992,1.724188 1.61103,-5.403048 7.65495,-9.881826 13.33512,-9.881826 h 1.39962 l -0.004,0.859896 c -0.002,0.472942 -0.18577,1.633802 -0.40804,2.579687 -1.55205,6.604848 -6.79216,10.847916 -13.39698,10.847916 h -1.95859 l -0.30322,1.653646 c -0.30184,1.646079 -1.23375,6.08197 -1.54248,7.342187 -0.0981,0.400481 0.15368,0.139505 0.63818,-0.661458 3.58062,-5.919376 8.63587,-9.00412 15.25525,-9.308847 3.61859,-0.166583 4.08938,0.05181 3.57422,1.658017 -0.1828,0.569936 -0.88016,2.107809 -1.5497,3.417497 -2.24844,4.398202 -5.64216,7.026532 -10.76419,8.336526 -2.17963,0.557455 -5.73422,0.702206 -7.16527,0.291786 l -0.82019,-0.235229 -0.69837,3.0795 c -1.21492,5.357236 -1.45536,6.513832 -1.3716,6.597594 0.0449,0.04489 0.33226,-0.323942 0.63861,-0.819621 0.30634,-0.49568 1.54031,-1.843545 2.74215,-2.995258 3.94027,-3.775919 8.07984,-5.404051 13.67072,-5.376824 3.69166,0.01798 4.95291,0.36049 4.84414,1.315504 -0.1501,1.317849 -2.30073,4.593843 -4.42344,6.738088 -1.6072,1.623504 -2.59429,2.369079 -4.10104,3.097603 -3.15153,1.523787 -5.18629,1.896415 -9.32202,1.707152 -1.93065,-0.08835 -3.86746,-0.229313 -4.30402,-0.313246 l -0.79375,-0.152604 -1.08965,4.313472 c -0.59931,2.372409 -1.18475,4.604334 -1.30098,4.959832 -0.14002,0.428265 0.58475,-0.157589 2.14798,-1.736271 2.69059,-2.717179 4.72252,-4.013589 8.17669,-5.216862 2.32112,-0.808574 2.50817,-0.830746 7.01492,-0.831517 3.78073,-6.47e-4 4.81223,0.08125 5.62239,0.446394 0.5457,0.245952 0.99219,0.613183 0.99219,0.816067 0,0.720595 -2.60445,4.062136 -4.70971,6.042614 -2.30838,2.171554 -5.26422,3.837887 -7.99029,4.504469 -1.9416,0.474761 -7.02641,0.399675 -9.525,-0.140653 -2.48368,-0.537103 -2.91042,-0.53711 -2.91042,-4.8e-5 0,0.606007 -1.81137,5.949505 -2.15864,6.367944 -0.36764,0.442979 -0.50664,0.43552 -1.22207,-0.06558 z"
       id="path14921" />
    <path
       style="fill:#b17b34"
       d="m 141.02292,26.971888 c 0,-0.154109 0.11906,-0.206613 0.26458,-0.116677 0.14552,0.08994 0.26458,0.216026 0.26458,0.280199 0,0.06417 -0.11906,0.116676 -0.26458,0.116676 -0.14552,0 -0.26458,-0.126089 -0.26458,-0.280198 z"
       id="path14907" />
    <path
       style="fill:#b17b34"
       d="m 154.99473,18.910711 c -0.0815,-0.08146 -0.2294,0.06538 -0.32876,0.326319 -0.14359,0.377084 -0.1132,0.407475 0.14811,0.148112 0.18082,-0.179475 0.26211,-0.39297 0.18065,-0.474431 z"
       id="path14906" />
    <path
       style="fill:#b17b34"
       d="m 154.69189,20.835941 c -0.0734,-0.181901 -0.13345,-0.03307 -0.13345,0.330729 0,0.363802 0.0601,0.51263 0.13345,0.330729 0.0734,-0.181901 0.0734,-0.479557 0,-0.661458 z"
       id="path14905" />
    <path
       style="fill:#b17b34"
       d="m 153.72291,24.077086 c 0.29696,-0.582083 0.44821,-1.057122 0.33611,-1.055642 -0.1121,0.0015 -0.40333,0.47773 -0.64719,1.058334 -0.57232,1.362665 -0.38464,1.361041 0.31108,-0.0027 z"
       id="path14904" />
    <path
       style="fill:#b17b34"
       d="m 141.02292,31.750003 c 0.87035,-0.183202 0.88061,-0.197018 0.17064,-0.229754 -0.71806,-0.03311 -0.74822,-0.08386 -0.61029,-1.027017 0.30279,-2.070499 0.53167,-2.853226 0.91666,-3.134737 0.21867,-0.159894 0.31283,-0.42784 0.20925,-0.595437 -0.10523,-0.170272 -0.0355,-0.306509 0.15802,-0.308773 0.26574,-0.0031 0.25942,-0.05907 -0.0272,-0.240486 -0.30031,-0.190104 -0.22254,-0.377237 0.39688,-0.955003 0.4237,-0.395213 0.54361,-0.554886 0.26646,-0.354827 -1.04662,0.755498 0.27462,-1.170307 1.98472,-2.892863 2.14078,-2.156389 5.07077,-3.630594 8.09061,-4.070741 2.82059,-0.411105 3.07624,-0.294205 2.85633,1.306106 -0.28552,2.077786 -0.64981,3.278191 -1.59875,5.268246 -2.15788,4.52534 -7.07296,7.568288 -12.05782,7.465039 -1.43038,-0.02963 -1.54326,-0.06395 -0.75555,-0.229753 z"
       id="path14903" />
    <path
       style="fill:#b17b34"
       d="m 145.12388,9.8715974 c -0.23677,-0.4089066 -0.34986,-0.5053415 -0.25133,-0.2142998 0.0985,0.2910416 0.24604,0.7642214 0.3278,1.0515094 0.0818,0.287289 0.19485,0.383724 0.25132,0.2143 0.0565,-0.169424 -0.091,-0.642603 -0.32779,-1.0515096 z"
       id="path14898" />
    <path
       style="fill:#b17b34"
       d="m 134.67292,18.520839 c 0,-0.145521 -0.12609,-0.264584 -0.2802,-0.264584 -0.15411,0 -0.20662,0.119063 -0.11668,0.264584 0.0899,0.145521 0.21603,0.264583 0.2802,0.264583 0.0642,0 0.11668,-0.119062 0.11668,-0.264583 z"
       id="path14897" />
    <path
       style="fill:#b17b34"
       d="m 138.00777,26.529996 c -0.26896,-0.268953 -0.49087,0.135967 -0.2702,0.49302 0.1667,0.269721 0.22902,0.269929 0.31864,0.0011 0.0613,-0.183829 0.0395,-0.406168 -0.0484,-0.494087 z"
       id="path14896" />
    <path
       style="fill:#b17b34"
       d="m 138.3039,28.244276 c -0.0587,-0.472943 -0.10671,-0.08599 -0.10671,0.859896 0,0.945885 0.048,1.332838 0.10671,0.859895 0.0587,-0.472942 0.0587,-1.246849 0,-1.719791 z"
       id="path14895" />
    <path
       style="fill:#b17b34"
       d="m 154.97417,31.325569 c -0.0879,-0.08792 -0.31612,-0.09732 -0.50711,-0.02089 -0.21107,0.08446 -0.14838,0.147157 0.15985,0.159852 0.27891,0.01149 0.43518,-0.05104 0.34726,-0.138964 z"
       id="path14894" />
    <path
       style="fill:#b17b34"
       d="m 148.465,32.609901 c 0.3291,-0.419644 0.31975,-0.429003 -0.0999,-0.0999 -0.44073,0.345643 -0.58088,0.562915 -0.36312,0.562915 0.0549,0 0.2633,-0.208359 0.46302,-0.46302 z"
       id="path14893" />
    <path
       style="fill:#b17b34"
       d="m 135.64741,43.342061 c -0.0845,-0.211066 -0.14716,-0.148372 -0.15986,0.159853 -0.0115,0.278915 0.0511,0.435184 0.13897,0.347265 0.0879,-0.08792 0.0973,-0.316121 0.0209,-0.507118 z"
       id="path14892" />
    <path
       style="fill:#b17b34"
       d="m 140.82951,44.541037 c -0.17913,-0.07248 -0.53632,-0.07689 -0.79375,-0.0098 -0.25743,0.06708 -0.11087,0.126381 0.3257,0.131773 0.43656,0.0054 0.64718,-0.04949 0.46805,-0.12197 z"
       id="path14891" />
    <path
       style="fill:#b17b34"
       d="m 127.05887,76.846458 c -0.32342,-0.226533 -0.58804,-0.566133 -0.58804,-0.754667 0,-0.188533 0.53837,-1.627789 1.19638,-3.198346 0.658,-1.570557 1.15067,-2.901255 1.09482,-2.957106 -0.0559,-0.05585 -1.27883,-0.277626 -2.71773,-0.49283 -4.56346,-0.682523 -7.22865,-1.846789 -9.97647,-4.358142 -2.39348,-2.187502 -4.46999,-5.697746 -5.63333,-9.522864 -0.64174,-2.110081 -0.63631,-2.116909 1.68269,-2.114812 3.57408,0.0032 8.44654,1.56911 11.04164,3.548488 1.53266,1.169018 3.5962,3.434303 4.54182,4.985863 0.94496,1.550465 1.94518,4.050916 1.94518,4.86274 0,0.24617 0.0601,0.387498 0.13352,0.314061 0.2057,-0.205701 2.49134,-9.56414 2.37991,-9.744435 -0.054,-0.08742 -0.61188,-0.184918 -1.23968,-0.216662 -2.60469,-0.131705 -6.78891,-1.366179 -8.68266,-2.561651 -3.67596,-2.320532 -6.42454,-6.769728 -7.76404,-12.567866 -0.50423,-2.182633 -0.31532,-2.319253 2.62012,-1.894833 4.68961,0.678048 7.61121,2.083355 10.81615,5.20265 2.09642,2.04039 3.7868,4.920574 4.50406,7.674351 0.21974,0.84363 0.44315,1.577498 0.49647,1.630818 0.0533,0.05332 0.59425,-1.959 1.20207,-4.471821 0.60782,-2.512821 1.17191,-4.824027 1.25354,-5.136015 0.13405,-0.512351 0.0117,-0.585824 -1.26417,-0.759174 -2.07547,-0.281991 -4.65278,-1.12481 -6.30737,-2.062606 -1.62721,-0.922276 -3.87562,-3.066295 -4.87378,-4.647482 -1.54587,-2.448813 -3.05837,-7.399124 -3.06187,-10.0213 -0.002,-1.314043 0.0347,-1.389062 0.67474,-1.389062 1.12786,0 3.10697,0.58116 2.74369,0.805678 -0.18838,0.116429 0.0555,0.1928 0.57333,0.179536 2.17077,-0.05561 6.70829,3.026955 8.82777,5.997139 1.92463,2.697127 3.32212,6.463903 2.94928,7.949426 -0.0876,0.349215 -0.048,0.91266 0.088,1.252099 0.13605,0.33944 0.25492,0.486407 0.26414,0.326595 0.018,-0.31254 0.68268,-3.47279 1.57781,-7.502252 0.60963,-2.744231 0.69827,-3.835944 0.29105,-3.584263 -0.14553,0.08994 -0.26459,0.02797 -0.26459,-0.137699 0,-0.195393 -0.27216,-0.241444 -0.77466,-0.131076 -1.48052,0.325176 -7.26517,-3.024533 -6.72696,-3.895372 0.10292,-0.166522 0.0505,-0.20623 -0.12732,-0.09636 -0.45963,0.284065 -2.36538,-2.857067 -2.94655,-4.856631 -0.27668,-0.951928 -0.56977,-2.429224 -0.65131,-3.28288 -0.20724,-2.169579 0.10586,-5.208142 0.5544,-5.380261 0.57823,-0.221889 3.01124,0.673223 4.58699,1.68757 1.97131,1.268983 4.20885,3.650155 5.22963,5.565334 0.55846,1.047778 1.0597,2.6428 1.48677,4.731111 0.35435,1.732737 0.655,3.045576 0.6681,2.91742 0.0131,-0.128156 0.20912,-1.39848 0.43559,-2.822943 l 0.41175,-2.589931 -0.8985,-1.278099 c -0.93056,-1.323708 -1.795,-3.325456 -2.31923,-5.370538 -0.4063,-1.585025 -0.11184,-4.478442 0.68903,-6.770388 0.6261,-1.7917728 2.50104,-4.8500408 3.56216,-5.8103478 0.51985,-0.4704534 0.55406,-0.4630861 1.34676,0.2900216 1.29618,1.2314265 1.93278,2.2690102 1.87305,3.0528425 -0.0305,0.400299 0.0837,0.8137927 0.25369,0.9188748 0.21329,0.1318242 0.26285,0.01406 0.15984,-0.3798468 -0.29572,-1.1308214 0.27451,-0.2828409 0.85676,1.2740823 0.32723,0.8750044 0.53239,1.8301984 0.45591,2.1226534 -0.0765,0.292455 -0.0311,0.465014 0.10086,0.383464 0.13672,-0.0845 0.23721,0.854166 0.23363,2.182448 -0.007,2.660575 -0.6297,4.562233 -2.10205,6.421233 -0.73236,0.924674 -0.92427,1.037284 -1.29401,0.759306 -0.36555,-0.274828 -0.38183,-0.267749 -0.10308,0.04481 0.27093,0.303794 0.18197,0.525001 -0.48992,1.218215 -0.91035,0.939246 -1.32724,2.472785 -1.8405,6.770364 -0.16176,1.354441 -0.75018,4.665275 -1.30759,7.35741 -1.14979,5.553179 -1.43663,7.289289 -1.07101,6.482292 0.13186,-0.291042 0.24811,-0.810811 0.25834,-1.155043 0.026,-0.875454 2.23506,-4.107457 3.99903,-5.850886 2.77526,-2.742936 6.38165,-4.350341 10.88073,-4.849648 3.26569,-0.362426 4.62197,-0.09901 4.50933,0.875792 -0.042,0.363569 -0.27414,1.120149 -0.51586,1.681288 -0.37387,0.867945 -0.47099,0.946941 -0.65055,0.529166 -0.12802,-0.297857 -0.14815,-0.139716 -0.0512,0.401911 0.10982,0.613257 0.0691,0.836881 -0.12993,0.713862 -0.17234,-0.106509 -0.23425,-0.03424 -0.1527,0.178263 0.17735,0.462172 -1.59444,3.182782 -3.0255,4.645693 -1.26104,1.289114 -3.43091,2.751284 -3.771,2.541098 -0.12423,-0.07678 -0.22587,-0.03542 -0.22587,0.09191 0,0.574233 -4.68801,2.011569 -5.71788,1.753091 -0.54557,-0.13693 -0.6615,-0.09829 -0.49814,0.166036 0.28731,0.464875 -4.82549,0.186008 -5.26094,-0.286947 -0.22234,-0.2415 -0.21463,-0.276125 0.0307,-0.137743 0.22821,0.128734 0.27416,0.04535 0.15136,-0.274671 -0.16224,-0.422779 -0.1943,-0.418589 -0.40105,0.0524 -0.26946,0.613844 -2.3113,10.002336 -2.20028,10.116986 0.0426,0.04403 0.32818,-0.325493 0.63453,-0.821172 1.08356,-1.753237 4.8185,-5.032796 7.05186,-6.192059 3.30386,-1.714925 5.84166,-2.266861 9.87905,-2.148558 3.66051,0.10726 4.65829,0.4278 4.37375,1.405073 -0.0853,0.293097 -0.64999,1.420755 -1.25479,2.505907 -1.58854,2.85021 -4.75531,5.969987 -7.31734,7.20875 -3.15153,1.523787 -5.18629,1.896415 -9.32202,1.707152 -1.93065,-0.08835 -3.86746,-0.229313 -4.30402,-0.313246 l -0.79375,-0.152604 -1.08965,4.313472 c -0.59931,2.372409 -1.18475,4.604334 -1.30098,4.959832 -0.14002,0.428265 0.58475,-0.157589 2.14798,-1.736271 2.69059,-2.717179 4.72252,-4.013589 8.17669,-5.216862 2.32112,-0.808574 2.50817,-0.830746 7.01492,-0.831517 3.78073,-6.47e-4 4.81223,0.08125 5.62239,0.446394 0.5457,0.245952 0.99219,0.613183 0.99219,0.816067 0,0.720595 -2.60445,4.062136 -4.70971,6.042614 -2.30838,2.171554 -5.26422,3.837887 -7.99029,4.504469 -1.9416,0.474761 -7.02641,0.399675 -9.525,-0.140653 -2.48368,-0.537103 -2.91042,-0.53711 -2.91042,-4.8e-5 0,0.606007 -1.81137,5.949505 -2.15864,6.367944 -0.36764,0.442979 -0.50664,0.43552 -1.22207,-0.06558 z"
       id="path14890" />
    <path
       style="fill:#5c895f"
       d="m 127.05887,76.846458 c -0.32342,-0.226533 -0.58804,-0.566133 -0.58804,-0.754667 0,-0.188533 0.53837,-1.627789 1.19638,-3.198346 0.658,-1.570557 1.15067,-2.901255 1.09482,-2.957106 -0.0559,-0.05585 -1.27883,-0.277626 -2.71773,-0.49283 -4.56346,-0.682523 -7.22865,-1.846789 -9.97647,-4.358142 -2.39348,-2.187502 -4.46999,-5.697746 -5.63333,-9.522864 -0.64174,-2.110081 -0.63631,-2.116909 1.68269,-2.114812 3.57408,0.0032 8.44654,1.56911 11.04164,3.548488 1.53266,1.169018 3.5962,3.434303 4.54182,4.985863 0.94496,1.550465 1.94518,4.050916 1.94518,4.86274 0,0.24617 0.0601,0.387498 0.13352,0.314061 0.2057,-0.205701 2.49134,-9.56414 2.37991,-9.744435 -0.054,-0.08742 -0.61188,-0.184918 -1.23968,-0.216662 -2.60469,-0.131705 -6.78891,-1.366179 -8.68266,-2.561651 -3.67596,-2.320532 -6.42454,-6.769728 -7.76404,-12.567866 -0.50423,-2.182633 -0.31532,-2.319253 2.62012,-1.894833 4.68961,0.678048 7.61121,2.083355 10.81615,5.20265 2.09642,2.04039 3.7868,4.920574 4.50406,7.674351 0.21974,0.84363 0.43974,1.574082 0.48888,1.623227 0.10513,0.105126 2.86694,-11.077455 3.63585,-14.721536 0.29169,-1.382448 0.8267,-4.001823 1.1889,-5.820833 0.36219,-1.819011 0.82731,-4.140729 1.03358,-5.159375 0.20628,-1.018646 0.45022,-2.310734 0.54209,-2.871307 0.20387,-1.244022 0.48784,-1.068938 0.47106,0.290437 l -0.0123,0.99337 0.30008,-0.970532 c 0.38095,-1.232108 0.8107,-1.672872 0.60154,-0.616968 -0.0865,0.436563 -0.33309,2.162969 -0.54803,3.836458 -0.21494,1.67349 -0.81917,5.00724 -1.34272,7.408333 -0.52356,2.401094 -1.01512,4.782344 -1.09236,5.291667 -0.0772,0.509322 -0.25155,1.223697 -0.38736,1.587499 -0.3089,0.827502 -2.33388,10.157444 -2.22826,10.266521 0.0426,0.04403 0.32818,-0.325493 0.63453,-0.821172 1.08356,-1.753237 4.8185,-5.032796 7.05186,-6.192059 3.30386,-1.714925 5.84166,-2.266861 9.87905,-2.148558 3.66051,0.10726 4.65829,0.4278 4.37375,1.405073 -0.0853,0.293097 -0.64999,1.420755 -1.25479,2.505907 -1.58854,2.85021 -4.75531,5.969987 -7.31734,7.20875 -3.15153,1.523787 -5.18629,1.896415 -9.32202,1.707152 -1.93065,-0.08835 -3.86746,-0.229313 -4.30402,-0.313246 l -0.79375,-0.152604 -1.08965,4.313472 c -0.59931,2.372409 -1.18475,4.604334 -1.30098,4.959832 -0.14002,0.428265 0.58475,-0.157589 2.14798,-1.736271 2.69059,-2.717179 4.72252,-4.013589 8.17669,-5.216862 2.32112,-0.808574 2.50817,-0.830746 7.01492,-0.831517 3.78073,-6.47e-4 4.81223,0.08125 5.62239,0.446394 0.5457,0.245952 0.99219,0.613183 0.99219,0.816067 0,0.720595 -2.60445,4.062136 -4.70971,6.042614 -2.30838,2.171554 -5.26422,3.837887 -7.99029,4.504469 -1.9416,0.474761 -7.02641,0.399675 -9.525,-0.140653 -2.48368,-0.537103 -2.91042,-0.53711 -2.91042,-4.8e-5 0,0.606007 -1.81137,5.949505 -2.15864,6.367944 -0.36764,0.442979 -0.50664,0.43552 -1.22207,-0.06558 z"
       id="path14872" />
    <path
       style="fill:#225942"
       d="m 126.74595,76.609574 c -0.38012,-0.458025 -0.30639,-0.714883 1.18226,-4.118701 0.63324,-1.447914 1.0704,-2.681853 0.97147,-2.742086 -0.0989,-0.06023 -1.01333,-0.19041 -2.03197,-0.289282 -7.12462,-0.691536 -11.88977,-3.98256 -14.94998,-10.325127 -1.0716,-2.22098 -1.93536,-5.073505 -1.66752,-5.506881 0.22126,-0.358016 4.61971,-0.03054 6.56333,0.488651 0.87313,0.233236 2.58656,0.903738 3.80764,1.490006 3.08113,1.479322 6.11298,4.473442 7.63422,7.539228 0.5892,1.187406 1.1549,2.653945 1.25712,3.258974 0.10222,0.60503 0.23418,1.051726 0.29325,0.992657 0.12146,-0.121465 2.4859,-9.57005 2.4859,-9.933974 0,-0.129463 -0.8846,-0.310163 -1.96577,-0.401556 -4.34377,-0.367183 -9.37106,-2.729617 -11.45281,-5.381929 -1.86944,-2.381804 -3.96793,-7.255493 -4.46649,-10.373268 -0.20555,-1.285496 0.037,-1.386199 2.57304,-1.06814 3.8545,0.483417 6.63341,1.635604 9.5229,3.948352 2.74773,2.199294 4.75541,5.153912 5.66251,8.333297 0.81535,2.857791 0.79056,2.864095 1.56092,-0.396875 0.39534,-1.673489 1.05797,-4.471458 1.47251,-6.217708 0.41454,-1.74625 0.94873,-4.067968 1.18709,-5.159374 0.74023,-3.389425 0.88725,-4.047192 1.31173,-5.868681 0.22655,-0.972202 0.53804,-2.579546 0.69219,-3.571875 0.42888,-2.760877 1.25053,-6.366935 1.31539,-5.772985 0.0804,0.736172 0.0826,0.704171 -0.11129,1.5875 -0.24979,1.137832 0.28884,0.297446 0.65303,-1.018895 0.46569,-1.683153 0.49946,-0.978873 0.0808,1.684217 -0.21702,1.380323 -0.43962,2.985927 -0.49467,3.568011 -0.10946,1.157359 -1.25599,6.789182 -1.8661,9.166315 -0.21081,0.82137 -0.38329,1.839354 -0.38329,2.262188 0,0.422833 -0.11219,0.881897 -0.24931,1.020142 -0.13712,0.138245 -0.62208,2.037291 -1.07768,4.220104 -0.45561,2.182812 -1.03725,4.653359 -1.29252,5.490104 -0.25528,0.836745 -0.43562,1.521354 -0.40075,1.521354 0.0349,0 0.60526,-0.759358 1.26754,-1.687462 1.44537,-2.025494 4.05722,-4.463482 6.09607,-5.690254 0.81848,-0.492483 2.52755,-1.259603 3.79792,-1.70471 2.15587,-0.755362 2.56615,-0.810291 6.15749,-0.824367 3.2551,-0.01276 3.95808,0.05719 4.56426,0.454164 l 0.71653,0.469246 -0.91399,1.814944 c -0.5027,0.99822 -1.62236,2.692059 -2.48814,3.764088 -4.50673,5.580315 -10.41676,7.310093 -19.46381,5.696764 -0.13402,-0.0239 -0.73473,1.861545 -1.33491,4.189878 -0.60019,2.328333 -1.23521,4.639593 -1.41116,5.136133 -0.17596,0.49654 -0.28919,0.933536 -0.25162,0.971101 0.0376,0.03757 0.69673,-0.699506 1.46482,-1.637937 1.40794,-1.720198 3.94074,-3.769432 6.14799,-4.974218 4.1338,-2.256359 12.06364,-2.972375 15.93533,-1.438863 0.40019,0.158505 0.72761,0.407455 0.72761,0.553222 0,0.575249 -2.57908,3.878677 -4.5158,5.784075 -1.61285,1.586769 -2.56849,2.267863 -4.51945,3.221053 -1.36077,0.664835 -3.10506,1.336894 -3.87621,1.493466 -2.22558,0.451877 -7.02216,0.339781 -9.57812,-0.223839 -1.23693,-0.272757 -2.32362,-0.450542 -2.41486,-0.395076 -0.0912,0.05546 -0.30008,0.633765 -0.46409,1.285111 -0.16401,0.651346 -0.66617,2.201182 -1.1159,3.444081 -0.70126,1.938016 -0.90371,2.259815 -1.42174,2.259815 -0.33222,0 -0.74751,-0.17288 -0.92288,-0.384178 z"
       id="path14855" />
    <path
       style="fill:#483a30"
       d="m 132.05116,53.116811 c -0.17892,-0.619402 -0.81347,-2.138217 -1.41012,-3.375144 -1.46448,-3.036049 -4.2291,-5.791202 -7.39531,-7.37001 -1.20937,-0.603041 -2.03767,-1.096488 -1.84067,-1.096547 0.197,-6e-5 1.20903,0.442996 2.24896,0.984569 2.70463,1.408518 6.07023,4.825622 7.36922,7.481988 0.93253,1.906963 1.68467,4.169865 1.4605,4.394039 -0.059,0.05901 -0.25367,-0.399494 -0.43258,-1.018895 z"
       id="path14774" />
    <path
       style="fill:#483a30"
       d="m 135.28157,54.17899 c 0.32009,-0.615412 1.60801,-2.150688 2.86207,-3.411725 1.96244,-1.973374 2.66279,-2.480062 5.02708,-3.636996 3.19057,-1.561263 5.79315,-2.170225 9.01969,-2.11046 l 2.19396,0.04064 -2.91041,0.200777 c -5.31506,0.366664 -9.16779,1.946843 -12.53628,5.141707 -1.07412,1.018754 -2.41801,2.536889 -2.98642,3.373634 -0.56841,0.836745 -1.08257,1.521354 -1.14257,1.521354 -0.06,0 0.1528,-0.503519 0.47288,-1.11893 z"
       id="path14772" />
    <path
       style="fill:#483a30"
       d="m 129.00862,65.679606 c -1.46395,-4.756611 -5.63494,-8.906021 -10.85808,-10.801921 -1.877,-0.681312 -5.75416,-1.211505 -7.17422,-0.98106 -0.71508,0.116042 -0.93916,0.0756 -0.80288,-0.144911 0.43677,-0.706717 5.43158,-0.112204 8.3876,0.998343 5.21465,1.959101 9.07793,5.871225 10.68254,10.817607 0.25089,0.773412 0.40579,1.456577 0.34422,1.518145 -0.0616,0.06157 -0.3222,-0.571224 -0.57918,-1.406203 z"
       id="path14765" />
    <path
       style="fill:#483a30"
       d="m 138.55782,35.933728 c -0.0845,-0.211066 -0.14715,-0.148372 -0.15985,0.159853 -0.0115,0.278915 0.0511,0.435184 0.13896,0.347266 0.0879,-0.08792 0.0973,-0.316122 0.0209,-0.507119 z"
       id="path14752" />
    <path
       style="fill:#483a30"
       d="m 126.74595,76.609574 c -0.38087,-0.458923 -0.30808,-0.711025 1.20259,-4.165174 0.64442,-1.473474 1.14111,-2.702822 1.10375,-2.731883 -0.0374,-0.02906 -1.19901,-0.180481 -2.58146,-0.33649 -5.89425,-0.665164 -9.93636,-3.004273 -13.00809,-7.527592 -1.18317,-1.742305 -2.78052,-5.385638 -3.00125,-6.845457 l -0.13543,-0.895683 0.28621,0.79375 c 1.85871,5.154658 3.46234,7.898213 5.89498,10.085365 1.9664,1.767964 5.57779,3.409062 8.62114,3.917644 3.2174,0.537667 3.51147,0.527295 4.08636,-0.144128 0.39803,-0.464868 3.06191,-10.208891 3.07359,-11.242699 0.002,-0.17486 -0.81945,-0.368793 -2.02467,-0.478007 -1.1154,-0.101074 -3.10969,-0.531511 -4.43177,-0.956525 -3.92603,-1.262122 -6.67188,-3.470673 -8.55396,-6.880159 -1.14959,-2.082549 -2.56199,-5.95666 -2.86606,-7.861386 -0.19883,-1.245519 -0.2413,-1.219859 1.8725,-1.131523 1.23743,0.05171 4.72288,0.796316 4.54766,0.971527 -0.0659,0.06591 -0.91512,-0.06461 -1.88715,-0.290032 -0.97202,-0.225427 -2.34485,-0.409868 -3.05073,-0.409868 h -1.28341 l 0.1221,0.859896 c 0.17921,1.262168 1.08694,4.030576 1.92399,5.867862 2.1993,4.827356 4.81162,7.160191 9.76604,8.721207 2.26229,0.712792 5.65708,1.013932 6.11623,0.542549 0.13329,-0.136843 0.61651,-1.85615 1.07381,-3.820681 0.4573,-1.964531 1.29089,-5.476875 1.85241,-7.805208 0.56152,-2.328333 1.14645,-4.888177 1.29985,-5.688541 0.1534,-0.800365 0.45555,-2.229115 0.67145,-3.175 0.21589,-0.945886 0.52911,-2.553229 0.69603,-3.571875 0.16692,-1.018646 0.4562,-2.387864 0.64284,-3.042708 0.18664,-0.654844 0.42637,-1.905 0.53272,-2.778125 0.13728,-1.127046 0.24936,-1.434015 0.38642,-1.058333 0.10618,0.291041 0.0913,0.885568 -0.0331,1.32117 -0.28938,1.013483 -0.28031,1.154906 0.0426,0.663205 0.14333,-0.218282 0.38746,-0.855378 0.5425,-1.41577 0.15505,-0.560393 0.33153,-0.969276 0.39217,-0.90863 0.12357,0.123565 -0.36427,3.295173 -0.6017,3.9119 -0.084,0.218281 -0.18202,1.051718 -0.21775,1.852083 -0.0357,0.800364 -0.44882,3.181614 -0.918,5.291666 -0.46918,2.110052 -0.96927,4.550833 -1.1113,5.423958 -0.14203,0.873125 -0.3638,1.791199 -0.49283,2.040165 -0.12903,0.248966 -0.60235,2.213497 -1.05183,4.365625 -0.44948,2.152128 -1.04669,4.6596 -1.32714,5.572161 -0.28045,0.912561 -0.50991,2.002014 -0.50991,2.421006 0,0.700125 0.11247,0.788895 1.38906,1.096398 0.76399,0.184026 2.87735,0.34101 4.69636,0.348854 2.97983,0.01285 3.51686,-0.06008 5.42396,-0.736563 2.16871,-0.769286 4.60553,-2.227498 6.17731,-3.69655 1.59364,-1.489481 4.53831,-6.02588 4.53831,-6.991466 0,-0.146312 -0.44648,-0.394855 -0.99219,-0.552319 -0.98757,-0.284967 -0.988,-0.285696 -0.0914,-0.157004 1.68184,0.241391 1.73178,0.501354 0.52975,2.757321 -1.93609,3.633655 -4.97179,6.68961 -8.06888,8.122731 -0.74066,0.342723 -2.28847,0.870708 -3.43959,1.173299 -1.79217,0.471105 -2.5492,0.526562 -5.26794,0.385908 -1.74625,-0.09034 -3.62211,-0.265979 -4.16859,-0.390304 -0.54648,-0.124326 -1.03943,-0.149145 -1.09543,-0.05515 -0.056,0.09399 -0.53949,1.897298 -1.0744,4.00735 -0.53491,2.110051 -1.14329,4.346634 -1.35197,4.970183 -0.20867,0.623549 -0.3794,1.601226 -0.3794,2.172614 0,0.977068 0.059,1.054634 0.99219,1.303475 4.00777,1.068748 9.06783,1.032363 12.13898,-0.08729 2.75954,-1.006044 4.0809,-1.825174 6.32511,-3.921018 2.07641,-1.939139 4.35622,-4.858476 4.35622,-5.578217 0,-0.462486 -0.26562,-0.564826 -2.49599,-0.961666 -4.46836,-0.795038 -10.56963,0.288404 -14.40599,2.558166 -2.07261,1.226249 -3.66726,2.606564 -5.35692,4.636896 -0.70896,0.8519 -1.28901,1.447525 -1.28901,1.32361 0,-0.558927 2.70106,-3.503483 4.35949,-4.75248 4.01534,-3.024041 7.57619,-4.143609 13.2353,-4.161312 3.46807,-0.01085 5.18321,0.234066 6.19256,0.884274 0.4619,0.297548 -0.0623,1.254561 -2.12482,3.879038 -2.62062,3.334672 -6.02644,5.67818 -9.75285,6.71082 -2.56052,0.709557 -6.83701,0.726137 -10.18989,0.03951 -1.30969,-0.268208 -2.45591,-0.444158 -2.54715,-0.391 -0.0912,0.05316 -0.30008,0.629569 -0.46409,1.280915 -0.16401,0.651346 -0.66617,2.201182 -1.1159,3.444081 -0.70126,1.938016 -0.90371,2.259815 -1.42174,2.259815 -0.33222,0 -0.74751,-0.17288 -0.92288,-0.384178 z"
       id="path14751" />
    <path
       style="fill:#284c34"
       d="m 139.17083,27.560773 c 0,-0.460816 0.12133,-0.837847 0.26963,-0.837847 0.16006,0 0.19869,0.295661 0.0951,0.727604 -0.2492,1.03875 -0.3647,1.073664 -0.3647,0.110243 z"
       id="path14643" />
    <path
       style="fill:#284c34"
       d="m 139.79419,28.456319 c 0.0996,-1.264459 0.43498,-1.525003 0.43498,-0.337901 0,0.524988 -0.11437,1.025203 -0.25414,1.111589 -0.1487,0.0919 -0.22373,-0.229087 -0.18084,-0.773688 z"
       id="path14639" />
    <path
       style="fill:#284c34"
       d="m 135.59896,45.243754 c -0.0899,-0.145521 -0.0374,-0.264583 0.11667,-0.264583 0.15411,0 0.2802,0.119062 0.2802,0.264583 0,0.145521 -0.0525,0.264583 -0.11667,0.264583 -0.0642,0 -0.19027,-0.119062 -0.2802,-0.264583 z"
       id="path14609" />
    <path
       style="fill:#284c34"
       d="m 132.05116,53.116811 c -0.17892,-0.619402 -0.81347,-2.138217 -1.41012,-3.375144 -1.46448,-3.036049 -4.2291,-5.791202 -7.39531,-7.37001 -1.20937,-0.603041 -2.03767,-1.096488 -1.84067,-1.096547 0.197,-6e-5 1.20903,0.442996 2.24896,0.984569 2.70463,1.408518 6.07023,4.825622 7.36922,7.481988 0.93253,1.906963 1.68467,4.169865 1.4605,4.394039 -0.059,0.05901 -0.25367,-0.399494 -0.43258,-1.018895 z"
       id="path14604" />
    <path
       style="fill:#284c34"
       d="m 135.28157,54.17899 c 0.32009,-0.615412 1.60801,-2.150688 2.86207,-3.411725 1.96244,-1.973374 2.66279,-2.480062 5.02708,-3.636996 3.19057,-1.561263 5.79315,-2.170225 9.01969,-2.11046 l 2.19396,0.04064 -2.91041,0.200777 c -5.31506,0.366664 -9.16779,1.946843 -12.53628,5.141707 -1.07412,1.018754 -2.41801,2.536889 -2.98642,3.373634 -0.56841,0.836745 -1.08257,1.521354 -1.14257,1.521354 -0.06,0 0.1528,-0.503519 0.47288,-1.11893 z"
       id="path14602" />
    <path
       style="fill:#284c34"
       d="m 129.00862,65.679606 c -1.46395,-4.756611 -5.63494,-8.906021 -10.85808,-10.801921 -1.877,-0.681312 -5.75416,-1.211505 -7.17422,-0.98106 -0.71508,0.116042 -0.93916,0.0756 -0.80288,-0.144911 0.43677,-0.706717 5.43158,-0.112204 8.3876,0.998343 5.21465,1.959101 9.07793,5.871225 10.68254,10.817607 0.25089,0.773412 0.40579,1.456577 0.34422,1.518145 -0.0616,0.06157 -0.3222,-0.571224 -0.57918,-1.406203 z"
       id="path14585" />
    <path
       style="fill:#284c34"
       d="m 138.75627,35.123442 c 0.12862,-0.88622 0.0913,-1.256771 -0.1267,-1.256771 -0.17001,0 -0.24017,0.179628 -0.15593,0.399173 0.0842,0.219545 0.0546,0.666029 -0.066,0.992187 -0.12055,0.326159 -0.16433,0.749285 -0.0973,0.940281 0.17465,0.497674 0.24086,0.338082 0.44593,-1.07487 z"
       id="path14560" />
    <path
       style="fill:#284c34"
       d="m 137.76407,36.198312 c -0.0845,-0.211067 -0.14715,-0.148372 -0.15985,0.159852 -0.0115,0.278915 0.0511,0.435185 0.13896,0.347266 0.0879,-0.08792 0.0973,-0.316122 0.0209,-0.507118 z"
       id="path14559" />
    <path
       style="fill:#284c34"
       d="m 135.20208,51.726045 c 0,-0.218281 -0.11532,-0.396875 -0.25628,-0.396875 -0.14095,0 -0.18774,0.178594 -0.10398,0.396875 0.0838,0.218282 0.19909,0.396875 0.25628,0.396875 0.0572,0 0.10398,-0.178593 0.10398,-0.396875 z"
       id="path14558" />
    <path
       style="fill:#284c34"
       d="m 128.00542,76.676252 c 0.75103,-0.751031 0.0253,-1.037312 -0.78063,-0.307943 -0.99792,0.9031 -0.79711,-0.383458 0.54641,-3.500789 0.73733,-1.710815 1.31193,-3.132459 1.27689,-3.159207 -0.035,-0.02675 -1.19481,-0.176277 -2.57726,-0.332286 -5.89425,-0.665164 -9.93636,-3.004273 -13.00809,-7.527592 -1.18317,-1.742305 -2.78052,-5.385638 -3.00125,-6.845457 l -0.13543,-0.895683 0.28621,0.79375 c 1.85871,5.154658 3.46234,7.898213 5.89498,10.085365 1.9664,1.767964 5.57779,3.409062 8.62114,3.917644 1.37171,0.22923 2.74424,0.416782 3.05006,0.416782 0.81859,0 1.39529,-0.833233 1.90772,-2.756297 0.25056,-0.940341 0.55028,-1.651175 0.66605,-1.579632 0.11576,0.07154 0.1446,-0.04156 0.0641,-0.251344 -0.0805,-0.209783 0.21852,-1.864689 0.66449,-3.67757 0.44597,-1.81288 0.81086,-3.416938 0.81086,-3.564573 0,-0.147635 -0.9126,-0.351125 -2.028,-0.4522 -1.1154,-0.101074 -3.10969,-0.531511 -4.43177,-0.956525 -3.92603,-1.262122 -6.67188,-3.470673 -8.55396,-6.880159 -1.14959,-2.082549 -2.56199,-5.95666 -2.86606,-7.861386 -0.19883,-1.245519 -0.2413,-1.219859 1.8725,-1.131523 1.23743,0.05171 4.72288,0.796316 4.54766,0.971527 -0.0659,0.06591 -0.91512,-0.06461 -1.88715,-0.290032 -0.97202,-0.225427 -2.34485,-0.409868 -3.05073,-0.409868 h -1.28341 l 0.1221,0.859896 c 0.17921,1.262168 1.08694,4.030576 1.92399,5.867862 2.1993,4.827356 4.81162,7.160191 9.76604,8.721207 2.262,0.712702 5.65847,1.014075 6.11452,0.542549 0.13235,-0.136843 0.78883,-2.570525 1.45884,-5.408181 1.37571,-5.826448 1.46179,-6.103788 1.43697,-4.630208 -0.0514,3.049576 0.15446,3.224933 0.71544,0.609592 0.4757,-2.217765 0.46702,-2.329384 -0.18113,-2.329384 -0.42812,0 -0.51265,-0.107436 -0.36431,-0.46302 0.10623,-0.254662 0.28962,-0.939271 0.40752,-1.521355 0.11791,-0.582083 0.68628,-3.260989 1.26306,-5.953124 0.57677,-2.692135 1.13062,-5.512248 1.23078,-6.266917 0.14079,-1.060873 0.27105,-1.337988 0.57425,-1.221638 0.27791,0.106643 0.3099,0.232752 0.1098,0.432854 -0.43827,0.438271 -0.35222,1.764034 0.1145,1.764034 0.65863,0 0.59264,0.435274 -1.34361,8.863542 -0.65893,2.868225 -0.9381,4.090346 -1.85851,8.135937 -0.25658,1.127786 -0.57083,2.05052 -0.69833,2.05052 -0.1275,0 -0.14686,-0.137458 -0.043,-0.305463 0.11575,-0.187288 0.0727,-0.233723 -0.11126,-0.120026 -0.22199,0.137201 -0.21743,0.31772 0.0175,0.693965 0.25438,0.407332 0.2208,0.839263 -0.16873,2.170547 -0.26747,0.91411 -0.54272,2.153559 -0.61166,2.754331 l -0.12536,1.092312 1.41314,0.34037 c 0.77723,0.187204 2.90143,0.346788 4.72044,0.354632 2.97983,0.01285 3.51686,-0.06008 5.42396,-0.736563 2.16871,-0.769286 4.60553,-2.227498 6.17731,-3.69655 1.59364,-1.489481 4.53831,-6.02588 4.53831,-6.991466 0,-0.146312 -0.44648,-0.394855 -0.99219,-0.552319 -0.98757,-0.284967 -0.988,-0.285696 -0.0914,-0.157004 1.68184,0.241391 1.73178,0.501354 0.52975,2.757321 -1.93609,3.633655 -4.97179,6.68961 -8.06888,8.122731 -0.74066,0.342723 -2.28847,0.870708 -3.43959,1.173299 -1.79217,0.471105 -2.5492,0.526562 -5.26794,0.385908 -1.74625,-0.09034 -3.62211,-0.265979 -4.16859,-0.390304 -0.54648,-0.124326 -1.03943,-0.149145 -1.09543,-0.05515 -0.056,0.09399 -0.53647,1.897298 -1.0677,4.00735 -0.53122,2.110051 -1.1396,4.285351 -1.35196,4.833999 -0.21236,0.548648 -0.38611,1.526325 -0.38611,2.172615 0,1.134435 0.0343,1.184222 0.99219,1.439658 4.00777,1.068748 9.06783,1.032363 12.13898,-0.08729 2.75954,-1.006044 4.0809,-1.825174 6.32511,-3.921018 2.07641,-1.939139 4.35622,-4.858476 4.35622,-5.578217 0,-0.462486 -0.26562,-0.564826 -2.49599,-0.961666 -4.46836,-0.795038 -10.56963,0.288404 -14.40599,2.558166 -2.07261,1.226249 -3.66726,2.606564 -5.35692,4.636896 -0.70896,0.8519 -1.28901,1.447525 -1.28901,1.32361 0,-0.558927 2.70106,-3.503483 4.35949,-4.75248 4.01534,-3.024041 7.57619,-4.143609 13.2353,-4.161312 3.46807,-0.01085 5.18321,0.234066 6.19256,0.884274 0.4619,0.297548 -0.0623,1.254561 -2.12482,3.879038 -2.62062,3.334672 -6.02644,5.67818 -9.75285,6.71082 -2.56052,0.709557 -6.83701,0.726137 -10.18989,0.03951 -1.30969,-0.268208 -2.45395,-0.445364 -2.54281,-0.393681 -0.0889,0.05168 -0.36368,0.814319 -0.61071,1.694745 -0.28882,1.029347 -0.55416,1.535881 -0.7433,1.418983 -0.19709,-0.121808 -0.23162,-0.01885 -0.10466,0.31202 0.22342,0.582217 -0.81646,3.561744 -1.24307,3.561744 -0.18601,0 -0.17479,-0.110453 0.0323,-0.3175 z"
       id="path14557" />
    <path
       style="fill:#183226"
       d="m 138.68344,29.897922 c 0,-0.363803 0.0601,-0.512631 0.13345,-0.33073 0.0734,0.181901 0.0734,0.479558 0,0.661459 -0.0734,0.181901 -0.13345,0.03307 -0.13345,-0.330729 z"
       id="path14200" />
    <path
       style="fill:#183226"
       d="m 139.47719,32.279166 c 0,-0.363802 0.0601,-0.51263 0.13345,-0.330729 0.0734,0.181901 0.0734,0.479557 0,0.661459 -0.0734,0.181901 -0.13345,0.03307 -0.13345,-0.33073 z"
       id="path14174" />
    <path
       style="fill:#183226"
       d="m 137.88856,34.395838 c -0.004,-0.218281 0.1543,-1.11125 0.35104,-1.984375 0.19675,-0.873125 0.3654,-1.289844 0.37479,-0.926042 0.009,0.363802 -0.14858,1.256771 -0.35104,1.984375 -0.20247,0.727604 -0.37112,1.144323 -0.37479,0.926042 z"
       id="path14165" />
    <path
       style="fill:#183226"
       d="m 138.96393,34.925005 c -0.003,-0.363802 0.0904,-0.959115 0.2069,-1.322917 0.166,-0.518317 0.21077,-0.546945 0.20691,-0.132292 -0.003,0.291042 -0.0958,0.886354 -0.20691,1.322917 -0.18142,0.712977 -0.20247,0.726439 -0.2069,0.132292 z"
       id="path14160" />
    <path
       style="fill:#183226"
       d="m 137.60422,35.299834 c 0.0127,-0.308225 0.0754,-0.370919 0.15985,-0.159852 0.0764,0.190996 0.067,0.419199 -0.0209,0.507118 -0.0879,0.08792 -0.15045,-0.06835 -0.13896,-0.347266 z"
       id="path14156" />
    <path
       style="fill:#183226"
       d="m 138.66255,36.093581 c 0.0127,-0.308225 0.0754,-0.370919 0.15986,-0.159853 0.0764,0.190997 0.067,0.4192 -0.0209,0.507119 -0.0879,0.08792 -0.15045,-0.06835 -0.13897,-0.347266 z"
       id="path14153" />
    <path
       style="fill:#183226"
       d="m 138.41886,37.306254 c 0,-0.363802 0.0601,-0.51263 0.13345,-0.330729 0.0734,0.181901 0.0734,0.479558 0,0.661459 -0.0734,0.181901 -0.13345,0.03307 -0.13345,-0.33073 z"
       id="path14145" />
    <path
       style="fill:#183226"
       d="m 138.15428,38.629171 c 0,-0.363802 0.06,-0.51263 0.13345,-0.330729 0.0734,0.181901 0.0734,0.479557 0,0.661458 -0.0734,0.181901 -0.13345,0.03307 -0.13345,-0.330729 z"
       id="path14137" />
    <path
       style="fill:#183226"
       d="m 136.67746,39.952092 c 0.2928,-1.853696 0.86194,-4.084178 0.87766,-3.439584 0.009,0.363803 -0.21788,1.494896 -0.5039,2.513542 -0.28601,1.018646 -0.4542,1.435365 -0.37376,0.926042 z"
       id="path14128" />
    <path
       style="fill:#183226"
       d="m 116.81354,40.481258 -1.05833,-0.189491 0.92604,-0.0062 c 0.50932,-0.0034 1.28323,0.08465 1.71979,0.195733 0.70133,0.178458 0.71673,0.201249 0.13229,0.195734 -0.3638,-0.0034 -1.1377,-0.09151 -1.71979,-0.195734 z"
       id="path14127" />
    <path
       style="fill:#183226"
       d="m 119.54206,40.82968 c 0.19099,-0.07643 0.4192,-0.06703 0.50712,0.02089 0.0879,0.08792 -0.0684,0.150453 -0.34727,0.138965 -0.30822,-0.0127 -0.37092,-0.07539 -0.15985,-0.159853 z"
       id="path14122" />
    <path
       style="fill:#183226"
       d="m 137.62511,41.010417 c 0,-0.363802 0.06,-0.51263 0.13345,-0.330729 0.0734,0.181901 0.0734,0.479557 0,0.661458 -0.0734,0.181901 -0.13345,0.03307 -0.13345,-0.330729 z"
       id="path14115" />
    <path
       style="fill:#183226"
       d="m 122.2375,41.804171 c -0.23847,-0.154109 -0.2711,-0.258098 -0.0818,-0.260532 0.17331,-0.0022 0.3887,0.115011 0.47863,0.260532 0.20302,0.328487 0.11143,0.328487 -0.39687,0 z"
       id="path14108" />
    <path
       style="fill:#183226"
       d="m 114.71577,42.711314 c -0.0973,-0.387751 -0.12591,-0.756028 -0.0636,-0.818394 0.0624,-0.06237 0.19302,0.203858 0.29034,0.591608 0.0973,0.38775 0.12592,0.756027 0.0636,0.818393 -0.0624,0.06237 -0.19302,-0.203857 -0.29034,-0.591607 z"
       id="path14095" />
    <path
       style="fill:#183226"
       d="m 136.16716,42.465629 c 0.0886,-0.727604 0.20533,-1.372526 0.25945,-1.433159 0.2071,-0.232052 0.0493,1.723854 -0.17965,2.226909 -0.16213,0.356214 -0.18821,0.09679 -0.0798,-0.79375 z"
       id="path14090" />
    <path
       style="fill:#183226"
       d="m 125.64333,43.7224 c -0.3291,-0.419644 -0.31975,-0.429002 0.0999,-0.0999 0.44073,0.345644 0.58089,0.562916 0.36312,0.562916 -0.0549,0 -0.2633,-0.20836 -0.46302,-0.463021 z"
       id="path14082" />
    <path
       style="fill:#183226"
       d="m 115.25873,44.572071 c -0.0907,-0.236459 -0.15743,-0.569016 -0.14821,-0.739015 0.009,-0.169999 0.13085,-0.02391 0.27027,0.324636 0.13942,0.348549 0.20611,0.681106 0.14821,0.739015 -0.0579,0.05791 -0.17953,-0.08818 -0.27027,-0.324636 z"
       id="path14075" />
    <path
       style="fill:#183226"
       d="m 150.34948,45.054245 c 0.40018,-0.06062 1.05502,-0.06062 1.45521,0 0.40018,0.06062 0.0728,0.110223 -0.72761,0.110223 -0.80036,0 -1.12778,-0.0496 -0.7276,-0.110223 z"
       id="path14071" />
    <path
       style="fill:#183226"
       d="m 126.96625,44.780733 c -0.32911,-0.419644 -0.31975,-0.429002 0.0999,-0.09989 0.25466,0.19972 0.46302,0.408079 0.46302,0.463021 0,0.217761 -0.21728,0.0776 -0.56292,-0.363126 z"
       id="path14070" />
    <path
       style="fill:#183226"
       d="m 155.26081,45.327596 c 0.19099,-0.07643 0.41919,-0.06703 0.50711,0.02089 0.0879,0.08792 -0.0684,0.150453 -0.34726,0.138964 -0.30823,-0.0127 -0.37092,-0.07539 -0.15985,-0.159852 z"
       id="path14067" />
    <path
       style="fill:#183226"
       d="m 136.525,45.111462 c 0,-0.363802 0.10255,-0.661458 0.22789,-0.661458 0.12534,0 0.17099,0.297656 0.10145,0.661458 -0.0696,0.363802 -0.1721,0.661459 -0.22789,0.661459 -0.0558,0 -0.10145,-0.297657 -0.10145,-0.661459 z"
       id="path14064" />
    <path
       style="fill:#183226"
       d="m 145.31707,46.153059 c 0.22732,-0.22732 2.91154,-0.905204 3.51105,-0.886695 0.29105,0.009 -0.3638,0.240698 -1.4552,0.514917 -2.28667,0.574531 -2.2524,0.568333 -2.05585,0.371778 z"
       id="path14059" />
    <path
       style="fill:#183226"
       d="m 136.2813,46.676915 c 0.0127,-0.308225 0.0754,-0.37092 0.15986,-0.159853 0.0764,0.190996 0.067,0.419199 -0.0209,0.507118 -0.0879,0.08792 -0.15045,-0.06835 -0.13897,-0.347265 z"
       id="path14050" />
    <path
       style="fill:#183226"
       d="m 116.05248,46.688735 c -0.25532,-0.665346 -0.18,-0.837024 0.1319,-0.300656 0.15444,0.265576 0.22506,0.538601 0.15693,0.606723 -0.0681,0.06812 -0.19809,-0.06961 -0.28883,-0.306067 z"
       id="path14049" />
    <path
       style="fill:#183226"
       d="m 128.96777,46.918263 c -0.40747,-0.534229 -0.60574,-0.887816 -0.44059,-0.785749 0.33872,0.209343 1.48416,1.757073 1.30036,1.757073 -0.0654,0 -0.45229,-0.437096 -0.85977,-0.971324 z"
       id="path14045" />
    <path
       style="fill:#183226"
       d="m 141.55208,48.040497 c 0,-0.07276 0.23813,-0.259732 0.52917,-0.415493 0.29104,-0.155761 0.52917,-0.22367 0.52917,-0.15091 0,0.07276 -0.23813,0.259732 -0.52917,0.415493 -0.29104,0.155761 -0.52917,0.22367 -0.52917,0.15091 z"
       id="path14043" />
    <path
       style="fill:#183226"
       d="m 156.20458,47.255384 c 0.30857,-0.785375 0.63945,-1.380392 0.73528,-1.322261 0.16437,0.09971 -0.99109,2.750214 -1.19893,2.750214 -0.0536,0 0.15508,-0.642579 0.46365,-1.427953 z"
       id="path14038" />
    <path
       style="fill:#183226"
       d="m 130.175,48.683337 c -0.15576,-0.291041 -0.22367,-0.529166 -0.15091,-0.529166 0.0728,0 0.25973,0.238125 0.41549,0.529166 0.15576,0.291042 0.22367,0.529167 0.15091,0.529167 -0.0728,0 -0.25973,-0.238125 -0.41549,-0.529167 z"
       id="path14031" />
    <path
       style="fill:#183226"
       d="m 139.30312,49.602128 c 1.63725,-1.431631 2.28089,-1.682385 0.79375,-0.309234 -0.7276,0.671833 -1.44198,1.224472 -1.5875,1.228085 -0.14552,0.0036 0.21167,-0.40987 0.79375,-0.918851 z"
       id="path14019" />
    <path
       style="fill:#183226"
       d="m 135.49543,50.270837 c -0.0102,-0.218281 0.14709,-0.992187 0.34956,-1.719791 0.20246,-0.727605 0.37646,-1.144323 0.38666,-0.926042 0.0102,0.218281 -0.14709,0.992187 -0.34955,1.719791 -0.20247,0.727605 -0.37647,1.144323 -0.38667,0.926042 z"
       id="path14018" />
    <path
       style="fill:#183226"
       d="m 131.27631,50.920961 c -0.4433,-0.972951 -0.35873,-1.180516 0.12061,-0.296007 0.22385,0.413048 0.35748,0.800504 0.29697,0.861014 -0.0605,0.06051 -0.24842,-0.193743 -0.41758,-0.565007 z"
       id="path14011" />
    <path
       style="fill:#183226"
       d="m 133.975,51.263025 c 0.0866,-0.327422 0.41384,-1.700838 0.72708,-3.052035 0.31325,-1.351197 0.62139,-2.404878 0.68475,-2.341515 0.14917,0.149165 -1.24455,5.988862 -1.42931,5.988862 -0.077,0 -0.0692,-0.267891 0.0175,-0.595312 z"
       id="path14008" />
    <path
       style="fill:#183226"
       d="m 154.13226,50.800004 c 1.42361,-1.993504 1.71585,-2.316181 1.05165,-1.161183 -0.26037,0.452755 -0.87983,1.286193 -1.37659,1.852083 -0.6456,0.735445 -0.55292,0.538396 0.32494,-0.6909 z"
       id="path14005" />
    <path
       style="fill:#183226"
       d="m 134.99518,52.78438 c 0.003,-0.291042 0.0958,-0.886354 0.2069,-1.322917 0.18142,-0.712977 0.20248,-0.726439 0.20691,-0.132292 0.003,0.363802 -0.0904,0.959115 -0.20691,1.322917 -0.16599,0.518317 -0.21077,0.546945 -0.2069,0.132292 z"
       id="path14000" />
    <path
       style="fill:#183226"
       d="m 132.04797,52.76233 c 0.0127,-0.308224 0.0754,-0.370919 0.15985,-0.159852 0.0764,0.190996 0.067,0.419199 -0.0209,0.507118 -0.0879,0.08792 -0.15046,-0.06835 -0.13897,-0.347266 z"
       id="path13999" />
    <path
       style="fill:#183226"
       d="m 111.85569,53.523293 c 0.32912,-0.06329 0.80537,-0.06088 1.05833,0.0053 0.25297,0.06622 -0.0163,0.118003 -0.59839,0.115067 -0.58209,-0.0029 -0.78906,-0.05712 -0.45994,-0.120406 z"
       id="path13996" />
    <path
       style="fill:#183226"
       d="m 114.51497,53.794263 c 0.191,-0.07643 0.4192,-0.06703 0.50712,0.02089 0.0879,0.08792 -0.0684,0.150453 -0.34726,0.138964 -0.30823,-0.0127 -0.37092,-0.07539 -0.15986,-0.159852 z"
       id="path13992" />
    <path
       style="fill:#183226"
       d="m 115.82135,54.064362 c 0.18191,-0.0734 0.47956,-0.0734 0.66146,0 0.1819,0.0734 0.0331,0.133453 -0.33073,0.133453 -0.3638,0 -0.51263,-0.06005 -0.33073,-0.133453 z"
       id="path13987" />
    <path
       style="fill:#183226"
       d="m 120.93023,53.479127 c -0.8838,-0.709294 -1.82222,-1.572497 -2.08538,-1.918229 -0.71443,-0.938596 -1.69797,-2.612977 -1.53487,-2.612977 0.0785,0 0.4493,0.523143 0.82401,1.16254 0.66669,1.137621 2.38857,2.897579 3.97122,4.059024 0.43656,0.320377 0.71234,0.586276 0.61283,0.590886 -0.0995,0.0046 -0.90402,-0.571949 -1.78781,-1.281244 z"
       id="path13983" />
    <path
       style="fill:#183226"
       d="m 117.21042,54.50417 c -0.48365,-0.312558 -0.0659,-0.312558 0.66146,0 0.34891,0.149935 0.39397,0.232345 0.13229,0.241936 -0.21828,0.008 -0.57547,-0.100872 -0.79375,-0.241936 z"
       id="path13982" />
    <path
       style="fill:#183226"
       d="m 135.12327,54.636462 c 0.19116,-0.591888 2.31001,-3.447906 2.76793,-3.730919 0.1621,-0.100181 -0.28735,0.590648 -0.99876,1.535174 -0.71142,0.944527 -1.43896,1.944029 -1.61677,2.221116 -0.31177,0.485832 -0.3172,0.484928 -0.1524,-0.02537 z"
       id="path13977" />
    <path
       style="fill:#183226"
       d="m 133.1063,54.878997 c 0.0127,-0.308225 0.0754,-0.37092 0.15986,-0.159853 0.0764,0.190996 0.067,0.419199 -0.0209,0.507118 -0.0879,0.08792 -0.15045,-0.06835 -0.13897,-0.347265 z"
       id="path13970" />
    <path
       style="fill:#183226"
       d="m 149.46437,55.231774 c 0.49136,-0.327422 1.44218,-1.068065 2.11294,-1.645873 1.08472,-0.934405 1.1318,-0.953424 0.42581,-0.172018 -0.80944,0.895916 -2.83334,2.413204 -3.21894,2.413204 -0.11725,0 0.18883,-0.267891 0.68019,-0.595313 z"
       id="path13966" />
    <path
       style="fill:#183226"
       d="m 147.6375,56.252269 c 0,-0.05719 0.18478,-0.17489 0.41062,-0.261552 0.23545,-0.09035 0.34166,-0.046 0.24896,0.103984 -0.15537,0.251408 -0.65958,0.371858 -0.65958,0.157568 z"
       id="path13957" />
    <path
       style="fill:#183226"
       d="m 125.19753,55.91093 c -0.62756,-0.221952 -1.09427,-0.4503 -1.03713,-0.507441 0.0571,-0.05714 0.74919,0.125156 1.53789,0.405104 0.7887,0.279948 1.25541,0.508296 1.03713,0.50744 -0.21829,-8.56e-4 -0.91034,-0.183152 -1.53789,-0.405103 z"
       id="path13956" />
    <path
       style="fill:#183226"
       d="m 127.47956,56.440096 c 0.19099,-0.07643 0.4192,-0.06703 0.50711,0.02089 0.0879,0.08792 -0.0684,0.150453 -0.34726,0.138965 -0.30823,-0.0127 -0.37092,-0.07539 -0.15985,-0.159853 z"
       id="path13951" />
    <path
       style="fill:#183226"
       d="m 128.52135,56.710192 c 0.1819,-0.0734 0.47956,-0.0734 0.66146,0 0.1819,0.0734 0.0331,0.133452 -0.33073,0.133452 -0.3638,0 -0.51263,-0.06005 -0.33073,-0.133452 z"
       id="path13949" />
    <path
       style="fill:#183226"
       d="m 110.61989,55.803034 c -0.17893,-0.597189 -0.27661,-1.134506 -0.21708,-1.194037 0.0595,-0.05953 0.25463,0.380371 0.43355,0.97756 0.17893,0.597188 0.27661,1.134505 0.21708,1.194036 -0.0595,0.05953 -0.25463,-0.38037 -0.43355,-0.977559 z"
       id="path13948" />
    <path
       style="fill:#183226"
       d="m 145.52083,57.046019 c 0,-0.05719 0.18478,-0.17489 0.41062,-0.261552 0.23546,-0.09036 0.34166,-0.046 0.24897,0.103984 -0.15538,0.251408 -0.65959,0.371858 -0.65959,0.157568 z"
       id="path13941" />
    <path
       style="fill:#183226"
       d="m 134.87135,57.239358 c 0.1819,-0.0734 0.47956,-0.0734 0.66146,0 0.1819,0.0734 0.0331,0.133452 -0.33073,0.133452 -0.3638,0 -0.51263,-0.06005 -0.33073,-0.133452 z"
       id="path13939" />
    <path
       style="fill:#183226"
       d="m 143.33802,57.503988 c 0.1819,-0.0734 0.47956,-0.0734 0.66146,0 0.1819,0.0734 0.0331,0.133452 -0.33073,0.133452 -0.3638,0 -0.51263,-0.06005 -0.33073,-0.133452 z"
       id="path13937" />
    <path
       style="fill:#183226"
       d="m 136.32656,57.496788 c 0.25466,-0.06655 0.67138,-0.06655 0.92604,0 0.25466,0.06655 0.0463,0.121 -0.46302,0.121 -0.50932,0 -0.71768,-0.05445 -0.46302,-0.121 z"
       id="path13936" />
    <path
       style="fill:#183226"
       d="m 142.03164,57.763024 c 0.191,-0.07643 0.4192,-0.06703 0.50712,0.02089 0.0879,0.08792 -0.0684,0.150453 -0.34727,0.138964 -0.30822,-0.0127 -0.37092,-0.07539 -0.15985,-0.159852 z"
       id="path13932" />
    <path
       style="fill:#183226"
       d="m 140.1661,57.756624 c 0.32912,-0.06329 0.80537,-0.06088 1.05834,0.0053 0.25296,0.06622 -0.0163,0.118004 -0.5984,0.115067 -0.58208,-0.0029 -0.78905,-0.05712 -0.45994,-0.120406 z"
       id="path13931" />
    <path
       style="fill:#183226"
       d="m 132.33344,57.414587 c 0,-0.363802 0.0601,-0.51263 0.13345,-0.330729 0.0734,0.181901 0.0734,0.479557 0,0.661458 -0.0734,0.181901 -0.13345,0.03307 -0.13345,-0.330729 z"
       id="path13930" />
    <path
       style="fill:#183226"
       d="m 111.55456,58.3304 c -0.25532,-0.665346 -0.18,-0.837024 0.13191,-0.300656 0.15443,0.265576 0.22505,0.538601 0.15693,0.606723 -0.0681,0.06812 -0.1981,-0.06961 -0.28884,-0.306067 z"
       id="path13920" />
    <path
       style="fill:#183226"
       d="m 148.10751,58.808057 c 0.62231,-0.05589 1.57481,-0.05511 2.11667,0.0017 0.54186,0.05685 0.0327,0.102583 -1.13147,0.101622 -1.16417,-9.61e-4 -1.60751,-0.04748 -0.9852,-0.103369 z"
       id="path13917" />
    <path
       style="fill:#183226"
       d="m 152.61497,59.085946 c 0.191,-0.07643 0.4192,-0.06703 0.50712,0.02089 0.0879,0.08792 -0.0683,0.150452 -0.34727,0.138964 -0.30822,-0.0127 -0.37091,-0.07539 -0.15985,-0.159853 z"
       id="path13914" />
    <path
       style="fill:#183226"
       d="m 145.1901,59.091446 c 0.1819,-0.0734 0.47956,-0.0734 0.66146,0 0.1819,0.0734 0.0331,0.133452 -0.33073,0.133452 -0.3638,0 -0.51263,-0.06005 -0.33073,-0.133452 z"
       id="path13913" />
    <path
       style="fill:#183226"
       d="m 143.86719,59.356013 c 0.1819,-0.0734 0.47955,-0.0734 0.66145,0 0.18191,0.0734 0.0331,0.133452 -0.33072,0.133452 -0.36381,0 -0.51263,-0.06005 -0.33073,-0.133452 z"
       id="path13911" />
    <path
       style="fill:#183226"
       d="m 124.88333,58.929776 c -0.65484,-0.615091 -1.60734,-1.453451 -2.11666,-1.863024 -0.78851,-0.634079 -0.74431,-0.621128 0.29759,0.0872 1.08943,0.740642 3.43675,2.916024 3.12954,2.900302 -0.0659,-0.0034 -0.65562,-0.509389 -1.31047,-1.124478 z"
       id="path13905" />
    <path
       style="fill:#183226"
       d="m 141.02292,60.221018 c 0,-0.05719 0.18477,-0.17489 0.41061,-0.261553 0.23546,-0.09035 0.34166,-0.046 0.24897,0.103985 -0.15538,0.251408 -0.65958,0.371858 -0.65958,0.157568 z"
       id="path13900" />
    <path
       style="fill:#183226"
       d="m 131.78339,59.906079 c 0.0127,-0.308225 0.0754,-0.37092 0.15985,-0.159853 0.0764,0.190996 0.067,0.419199 -0.0209,0.507118 -0.0879,0.08792 -0.15045,-0.06835 -0.13896,-0.347265 z"
       id="path13899" />
    <path
       style="fill:#183226"
       d="m 112.30475,60.042816 c -0.0959,-0.155203 -0.11766,-0.338931 -0.0483,-0.408286 0.0694,-0.06936 0.19661,0.05763 0.28278,0.282186 0.17891,0.466225 0.0264,0.548232 -0.23447,0.1261 z"
       id="path13898" />
    <path
       style="fill:#183226"
       d="m 139.96458,60.589591 c 0.21828,-0.141065 0.51594,-0.256481 0.66146,-0.256481 0.14552,0 0.086,0.115416 -0.13229,0.256481 -0.21828,0.141064 -0.51594,0.25648 -0.66146,0.25648 -0.14552,0 -0.086,-0.115416 0.13229,-0.25648 z"
       id="path13891" />
    <path
       style="fill:#183226"
       d="m 155.03195,60.67179 c 0.30992,-0.641383 0.18022,-0.790187 -0.99903,-1.146221 -0.59904,-0.180856 -0.62053,-0.216885 -0.14088,-0.236157 0.3113,-0.01251 0.82277,0.185617 1.1366,0.440279 0.5306,0.430562 0.54091,0.500116 0.14701,0.992187 -0.41592,0.519576 -0.41852,0.518669 -0.1437,-0.05009 z"
       id="path13888" />
    <path
       style="fill:#183226"
       d="m 131.53969,61.118753 c 0,-0.363802 0.0601,-0.51263 0.13345,-0.330729 0.0734,0.181901 0.0734,0.479557 0,0.661458 -0.0734,0.181901 -0.13345,0.03307 -0.13345,-0.330729 z"
       id="path13885" />
    <path
       style="fill:#183226"
       d="m 126.73542,61.118753 c -0.31086,-0.436562 -0.50567,-0.79375 -0.43291,-0.79375 0.0728,0 0.38663,0.357188 0.69749,0.79375 0.31086,0.436563 0.50567,0.79375 0.43291,0.79375 -0.0728,0 -0.38663,-0.357187 -0.69749,-0.79375 z"
       id="path13883" />
    <path
       style="fill:#183226"
       d="m 132.59408,61.780211 c 0.003,-0.55198 0.70357,-2.579746 0.73177,-2.116666 0.009,0.145521 -0.15271,0.800364 -0.35904,1.455208 -0.20634,0.654844 -0.37407,0.9525 -0.37273,0.661458 z"
       id="path13880" />
    <path
       style="fill:#183226"
       d="m 136.46175,62.65018 c 0.31186,-0.375777 2.4445,-1.64568 2.4445,-1.455608 0,0.06032 -0.617,0.493218 -1.3711,0.961997 -0.75411,0.468779 -1.23714,0.690904 -1.0734,0.493611 z"
       id="path13874" />
    <path
       style="fill:#183226"
       d="m 130.9728,63.345663 c 0.002,-0.278915 0.12491,-0.685712 0.27262,-0.903993 0.19614,-0.28984 0.22069,-0.182805 0.091,0.396875 -0.21761,0.972854 -0.36905,1.18404 -0.36364,0.507118 z"
       id="path13866" />
    <path
       style="fill:#183226"
       d="m 153.35671,63.036982 c 0.68468,-0.909505 1.28948,-1.653645 1.34401,-1.653645 0.22348,0 -0.48629,0.998517 -1.50458,2.116666 -1.06206,1.166214 -1.05876,1.15672 0.16057,-0.463021 z"
       id="path13863" />
    <path
       style="fill:#183226"
       d="m 130.72505,64.403996 c 0.0127,-0.308224 0.0754,-0.370919 0.15986,-0.159852 0.0764,0.190996 0.067,0.419199 -0.0209,0.507118 -0.0879,0.08792 -0.15045,-0.06835 -0.13897,-0.347266 z"
       id="path13861" />
    <path
       style="fill:#183226"
       d="m 131.78422,65.087503 c -0.008,-0.218281 0.15513,-0.932656 0.36147,-1.5875 0.20634,-0.654844 0.38132,-1.012031 0.38884,-0.79375 0.008,0.218281 -0.15514,0.932656 -0.36147,1.5875 -0.20634,0.654844 -0.38132,1.012031 -0.38884,0.79375 z"
       id="path13857" />
    <path
       style="fill:#183226"
       d="m 133.08542,65.53875 c 0,-0.06731 0.68461,-0.697573 1.52135,-1.40058 0.83674,-0.703008 1.28323,-1.002009 0.99219,-0.664448 -0.57987,0.672551 -2.51354,2.261183 -2.51354,2.065028 z"
       id="path13853" />
    <path
       style="fill:#183226"
       d="m 131.25422,66.256079 c 0.0127,-0.308224 0.0754,-0.370919 0.15985,-0.159852 0.0764,0.190996 0.067,0.419199 -0.0209,0.507118 -0.0879,0.08792 -0.15046,-0.06835 -0.13897,-0.347266 z"
       id="path13846" />
    <path
       style="fill:#183226"
       d="m 130.21219,66.41042 c 0,-0.218282 0.10233,-0.635 0.22739,-0.926042 0.14333,-0.333544 0.22739,-0.38245 0.22739,-0.132292 0,0.218282 -0.10232,0.635 -0.22739,0.926042 -0.14333,0.333544 -0.22739,0.38245 -0.22739,0.132292 z"
       id="path13845" />
    <path
       style="fill:#183226"
       d="m 149.48958,67.118748 c 0,-0.07144 0.62508,-0.645978 1.38906,-1.276757 0.76399,-0.630778 1.22193,-0.935022 1.01764,-0.676098 -0.42718,0.541445 -2.4067,2.147675 -2.4067,1.952855 z"
       id="path13841" />
    <path
       style="fill:#183226"
       d="m 132.29167,66.675003 c 0.31086,-0.436563 0.62473,-0.79375 0.69749,-0.79375 0.0728,0 -0.12205,0.357187 -0.43291,0.79375 -0.31086,0.436562 -0.62473,0.79375 -0.69749,0.79375 -0.0728,0 0.12205,-0.357188 0.43291,-0.79375 z"
       id="path13836" />
    <path
       style="fill:#183226"
       d="m 118.37592,66.719447 c -1.64151,-1.06524 -4.40398,-3.867962 -5.21536,-5.291351 -0.73173,-1.283662 -0.34036,-0.996562 0.57017,0.418261 1.1125,1.728651 3.30425,3.81957 5.18391,4.945435 0.86457,0.517849 1.44857,0.941544 1.29779,0.941544 -0.15078,0 -0.97721,-0.45625 -1.83651,-1.013889 z"
       id="path13833" />
    <path
       style="fill:#183226"
       d="m 121.84062,68.40435 c -1.02183,-0.467891 -0.54654,-0.474757 0.66146,-0.0096 0.50933,0.19614 0.74745,0.360305 0.52917,0.364813 -0.21828,0.0045 -0.75406,-0.155358 -1.19063,-0.355257 z"
       id="path13828" />
    <path
       style="fill:#183226"
       d="m 123.75885,68.881024 c 0.1819,-0.0734 0.47956,-0.0734 0.66146,0 0.1819,0.0734 0.0331,0.133452 -0.33073,0.133452 -0.3638,0 -0.51263,-0.06005 -0.33073,-0.133452 z"
       id="path13825" />
    <path
       style="fill:#183226"
       d="m 125.61402,69.133707 c 0.32912,-0.06329 0.80537,-0.06088 1.05834,0.0053 0.25296,0.06622 -0.0163,0.118003 -0.5984,0.115067 -0.58209,-0.0029 -0.78906,-0.05712 -0.45994,-0.120406 z"
       id="path13821" />
    <path
       style="fill:#183226"
       d="m 145.54288,69.496346 c 0.38667,-0.31243 3.15295,-1.777231 3.15295,-1.669551 0,0.165281 -2.76595,1.758627 -3.05286,1.758627 -0.11569,0 -0.16072,-0.04008 -0.10009,-0.08908 z"
       id="path13816" />
    <path
       style="fill:#183226"
       d="m 127.60035,69.402066 c 0.25743,-0.06708 0.61462,-0.06267 0.79375,0.0098 0.17913,0.07248 -0.0315,0.127362 -0.46806,0.12197 -0.43656,-0.0054 -0.58312,-0.06469 -0.32569,-0.131773 z"
       id="path13815" />
    <path
       style="fill:#183226"
       d="m 142.03164,70.463009 c 0.191,-0.07643 0.4192,-0.06703 0.50712,0.02089 0.0879,0.08792 -0.0684,0.150453 -0.34727,0.138965 -0.30822,-0.0127 -0.37092,-0.07539 -0.15985,-0.159853 z"
       id="path13804" />
    <path
       style="fill:#183226"
       d="m 133.21771,70.379169 c -1.1003,-0.279977 -0.0174,-0.292403 1.32291,-0.01518 0.88983,0.184055 0.93196,0.218769 0.26459,0.218032 -0.43657,-4.83e-4 -1.15094,-0.09177 -1.5875,-0.202853 z"
       id="path13803" />
    <path
       style="fill:#183226"
       d="m 137.39456,70.712482 c 0.84205,-0.05267 2.15174,-0.05218 2.91041,0.0011 0.75867,0.05326 0.0697,0.09635 -1.53101,0.09575 -1.60073,-5.97e-4 -2.22146,-0.04417 -1.3794,-0.09684 z"
       id="path13801" />
    <path
       style="fill:#183226"
       d="m 129.4039,73.157294 c 0.0276,-0.50118 0.46851,-1.345101 0.48387,-0.926041 0.008,0.218281 -0.10087,0.575468 -0.24194,0.79375 -0.14106,0.218281 -0.24993,0.277812 -0.24193,0.132291 z"
       id="path13789" />
    <path
       style="fill:#183226"
       d="m 129.13755,73.928996 c 0.0127,-0.308225 0.0754,-0.37092 0.15986,-0.159853 0.0764,0.190996 0.067,0.419199 -0.0209,0.507118 -0.0879,0.08792 -0.15045,-0.06835 -0.13897,-0.347265 z"
       id="path13787" />
    <path
       style="fill:#183226"
       d="m 127.29251,74.215628 c 0.003,-0.145521 0.29355,-0.859896 0.64677,-1.5875 0.35322,-0.727605 0.56892,-1.025261 0.47932,-0.661459 -0.18674,0.758302 -1.13294,2.647994 -1.12609,2.248959 z"
       id="path13786" />
    <path
       style="fill:#183226"
       d="m 126.57268,76.348365 c -0.0804,-0.209443 -0.0207,-0.596396 0.13255,-0.859896 0.23681,-0.407113 0.27989,-0.349901 0.28672,0.380804 0.008,0.907075 -0.17471,1.116411 -0.41927,0.479092 z"
       id="path13779" />
    <path
       style="fill:#183226"
       d="m 128.40362,75.807634 c 0.30012,-0.652365 0.58205,-1.149739 0.62651,-1.105275 0.14087,0.140865 -0.77873,2.291393 -0.97983,2.291393 -0.10579,0 0.0532,-0.533753 0.35332,-1.186118 z"
       id="path13778" />
  </g>
</svg>
