<?xml version="1.0" encoding="UTF-8" standalone="no"?>
<!-- Created with Inkscape (http://www.inkscape.org/) -->

<svg
   width="185"
   height="185"
   viewBox="0 0 48.947914 48.947918"
   version="1.1"
   id="svg1"
   xmlns="http://www.w3.org/2000/svg"
   xmlns:svg="http://www.w3.org/2000/svg">
  <defs
     id="defs1" />
  <g
     id="g14930"
     transform="matrix(0.66504943,0,0,0.66504943,-25.411669,-56.970316)">
    <path
       style="fill:#c89639"
       d="m 68.030992,159.04062 c -0.5752,-0.36435 -0.417879,-1.32832 0.565588,-3.46562 1.520813,-3.30508 1.573172,-3.07033 -0.72819,-3.26486 -2.802126,-0.23687 -4.172581,-0.60843 -6.740336,-1.82745 -3.847776,-1.8267 -7.10083,-5.65676 -9.045904,-10.6504 -0.453455,-1.16417 -0.838146,-2.53338 -0.854868,-3.04271 l -0.0304,-0.92604 1.455208,-0.0894 c 3.304929,-0.20298 7.922874,1.20879 11.264254,3.44365 3.042921,2.03523 5.531529,5.28728 6.596419,8.62004 l 0.517955,1.62103 1.080647,-4.15184 c 0.594355,-2.28351 1.170156,-4.41973 1.279556,-4.74716 0.18368,-0.54972 0.119748,-0.59531 -0.834929,-0.59531 -1.273223,0 -4.76272,-0.8663 -6.542445,-1.62423 -2.818524,-1.20031 -5.493707,-3.39503 -7.326145,-6.01037 -1.630426,-2.32702 -4.019787,-9.02209 -3.51267,-9.84262 0.08493,-0.13742 1.027044,-0.24986 2.093583,-0.24986 2.149096,0 5.655359,0.88788 7.802036,1.97568 2.226029,1.12802 5.10469,3.62791 6.43595,5.58912 1.248728,1.83963 2.570148,4.90723 2.585083,6.00114 0.0069,0.50865 0.04326,0.52893 0.265407,0.14827 0.259457,-0.44459 2.183985,-8.72105 2.048411,-8.80922 -0.0401,-0.0261 -1.012292,-0.24526 -2.16043,-0.48707 -1.148139,-0.24182 -3.100665,-0.93005 -4.338947,-1.52942 -5.295902,-2.56336 -8.407451,-7.58873 -8.955668,-14.46402 l -0.174051,-2.18281 1.031221,0.006 c 1.723031,0.0108 3.292834,0.48221 5.921789,1.77829 3.59817,1.77391 5.927863,4.10472 7.530362,7.53398 0.645432,1.38118 1.349509,3.33208 1.564616,4.33531 0.215107,1.00324 0.400811,1.70493 0.412674,1.55931 0.01186,-0.14562 0.441091,-2.22534 0.953839,-4.6216 0.512747,-2.39627 0.880295,-4.49229 0.816772,-4.65782 -0.06352,-0.16554 -0.551115,-0.37167 -1.083536,-0.45807 -1.35094,-0.21923 -4.627656,-1.8857 -5.974379,-3.03844 -1.53657,-1.31525 -3.061913,-3.75942 -3.740597,-5.99384 -0.597993,-1.96876 -0.784906,-5.692283 -0.384213,-7.653946 0.205504,-1.006077 0.226098,-1.021145 1.183393,-0.865846 1.692147,0.274511 4.329492,1.814174 6.291421,3.672882 2.879156,2.72768 4.363822,5.99784 4.382225,9.65239 0.01059,2.10313 0.216724,1.72874 0.86599,-1.57285 l 0.453904,-2.30815 -1.071812,-1.49677 c -2.8832,-4.02634 -3.10511,-8.626689 -0.644493,-13.360855 0.871571,-1.676882 3.325677,-4.735446 3.799588,-4.735446 0.125376,0 0.776699,0.713131 1.447383,1.584736 2.207317,2.868573 3.185794,5.886013 2.992341,9.227811 -0.156071,2.696023 -1.009137,4.523484 -3.200997,6.857254 -1.64921,1.75598 -1.722655,1.89403 -2.268163,4.26329 -0.740673,3.2169 -0.703798,3.43187 0.218016,1.27092 1.645145,-3.8566 3.684291,-6.03451 7.261106,-7.75524 1.985047,-0.95496 5.211735,-1.78219 6.414884,-1.64459 1.00617,0.11508 1.085917,0.90282 0.377414,3.72806 -1.737297,6.92769 -6.548133,10.76059 -13.523223,10.77426 l -1.995332,0.004 -0.929989,4.49792 c -0.511495,2.47385 -0.904883,4.49792 -0.874196,4.49792 0.03069,0 0.410414,-0.62508 0.843839,-1.38907 2.20683,-3.88991 6.398518,-6.97724 10.824073,-7.97233 3.03126,-0.68158 7.629366,-0.4766 8.14842,0.36325 0.198979,0.32195 -1.134565,3.23289 -2.355164,5.141 -3.507239,5.48269 -9.024725,8.16306 -15.98645,7.76612 l -2.332103,-0.13297 -0.869342,3.86668 c -0.478139,2.12668 -0.935704,4.16426 -1.016813,4.52795 -0.111151,0.4984 0.178524,0.26954 1.176164,-0.92925 2.118114,-2.54517 3.979656,-4.04922 6.573332,-5.31096 3.301359,-1.60602 5.50547,-2.03805 9.652434,-1.89196 3.703013,0.13044 4.233333,0.26681 4.233333,1.0886 0,0.94373 -2.283271,4.54874 -4.10222,6.47692 -2.624393,2.78199 -5.216217,4.18661 -9.606385,5.20611 -1.913379,0.44433 -5.983836,0.50127 -7.691416,0.10759 -0.637669,-0.14701 -1.208377,-0.21831 -1.268239,-0.15845 -0.05986,0.0599 -0.583917,1.93923 -1.164566,4.17637 -0.580648,2.23713 -1.126726,4.2993 -1.213506,4.58259 -0.08678,0.28329 0.370582,-0.13343 1.01636,-0.92604 2.789832,-3.42417 6.632684,-5.72568 11.290487,-6.76194 3.321207,-0.7389 10.345814,-0.13516 11.014408,0.94665 0.264837,0.42851 -2.133159,3.66529 -4.328441,5.84247 -2.610959,2.58941 -4.796879,3.86785 -8.085374,4.72874 -2.511432,0.65746 -6.544193,0.72492 -9.14444,0.15297 -2.80405,-0.61678 -2.724264,-0.65225 -3.422159,1.52135 -1.369611,4.26567 -2.018111,5.1807 -3.159351,4.45781 z"
       id="path14911" />
    <path
       style="fill:#b17b34"
       d="m 68.064065,159.10394 c -0.573547,-0.23144 -0.364318,-1.36034 0.727604,-3.92582 0.582084,-1.3676 1.058334,-2.53469 1.058334,-2.59352 0,-0.0588 -0.89414,-0.18254 -1.986976,-0.27491 -2.796601,-0.2364 -4.168367,-0.60852 -6.734973,-1.827 -3.847776,-1.8267 -7.10083,-5.65676 -9.045904,-10.6504 -0.453455,-1.16417 -0.838146,-2.53338 -0.854868,-3.04271 l -0.0304,-0.92604 1.455208,-0.0894 c 3.304929,-0.20298 7.922874,1.20879 11.264254,3.44365 3.042921,2.03523 5.531529,5.28728 6.596419,8.62004 l 0.517955,1.62103 1.080647,-4.15184 c 0.594355,-2.28351 1.170156,-4.41973 1.279556,-4.74716 0.18368,-0.54972 0.119748,-0.59531 -0.834929,-0.59531 -1.273223,0 -4.76272,-0.8663 -6.542445,-1.62423 -2.818524,-1.20031 -5.493707,-3.39503 -7.326145,-6.01037 -1.630426,-2.32702 -4.019787,-9.02209 -3.51267,-9.84262 0.08493,-0.13742 1.027044,-0.24986 2.093583,-0.24986 2.149096,0 5.655359,0.88788 7.802036,1.97568 2.226029,1.12802 5.10469,3.62791 6.43595,5.58912 1.248728,1.83963 2.570148,4.90723 2.585083,6.00114 0.0069,0.50865 0.04326,0.52893 0.265407,0.14827 0.259457,-0.44459 2.183985,-8.72105 2.048411,-8.80922 -0.0401,-0.0261 -1.012292,-0.24526 -2.16043,-0.48707 -1.148139,-0.24182 -3.100665,-0.93005 -4.338947,-1.52942 -5.295902,-2.56336 -8.407451,-7.58873 -8.955668,-14.46402 l -0.174051,-2.18281 1.031221,0.006 c 1.723031,0.0108 3.292834,0.48221 5.921789,1.77829 3.59817,1.77391 5.927863,4.10472 7.530362,7.53398 0.645432,1.38118 1.349509,3.33208 1.564616,4.33531 0.215107,1.00324 0.400811,1.70493 0.412674,1.55931 0.01186,-0.14562 0.441091,-2.22534 0.953839,-4.6216 0.512747,-2.39627 0.880295,-4.49229 0.816772,-4.65782 -0.06352,-0.16554 -0.551115,-0.37167 -1.083536,-0.45807 -1.35094,-0.21923 -4.627656,-1.8857 -5.974379,-3.03844 -1.53657,-1.31525 -3.061913,-3.75942 -3.740597,-5.99384 -0.597993,-1.96876 -0.784906,-5.692283 -0.384213,-7.653946 0.205504,-1.006077 0.226098,-1.021145 1.183393,-0.865846 1.692147,0.274511 4.329492,1.814174 6.291421,3.672882 2.879156,2.72768 4.363822,5.99784 4.382225,9.65239 0.01059,2.10313 0.216724,1.72874 0.86599,-1.57285 l 0.453904,-2.30815 -1.071812,-1.49677 c -2.8832,-4.02634 -3.10511,-8.626689 -0.644493,-13.360855 0.871571,-1.676882 3.325677,-4.735446 3.799588,-4.735446 0.125376,0 0.776699,0.713131 1.447383,1.584736 2.207317,2.868573 3.185794,5.886013 2.992341,9.227811 -0.156071,2.696023 -1.009137,4.523484 -3.200997,6.857254 -1.64921,1.75598 -1.722655,1.89403 -2.268163,4.26329 -0.740673,3.2169 -0.703798,3.43187 0.218016,1.27092 1.645145,-3.8566 3.684291,-6.03451 7.261106,-7.75524 1.985047,-0.95496 5.211735,-1.78219 6.414884,-1.64459 1.00617,0.11508 1.085917,0.90282 0.377414,3.72806 -1.737297,6.92769 -6.548133,10.76059 -13.523223,10.77426 l -1.995332,0.004 -0.929989,4.49792 c -0.511495,2.47385 -0.904883,4.49792 -0.874196,4.49792 0.03069,0 0.410414,-0.62508 0.843839,-1.38907 2.20683,-3.88991 6.398518,-6.97724 10.824073,-7.97233 3.03126,-0.68158 7.629366,-0.4766 8.14842,0.36325 0.198979,0.32195 -1.134565,3.23289 -2.355164,5.141 -3.507239,5.48269 -9.024725,8.16306 -15.98645,7.76612 l -2.332103,-0.13297 -0.869342,3.86668 c -0.478139,2.12668 -0.935704,4.16426 -1.016813,4.52795 -0.111151,0.4984 0.178524,0.26954 1.176164,-0.92925 2.118114,-2.54517 3.979656,-4.04922 6.573332,-5.31096 3.301359,-1.60602 5.50547,-2.03805 9.652434,-1.89196 3.703013,0.13044 4.233333,0.26681 4.233333,1.0886 0,0.94373 -2.283271,4.54874 -4.10222,6.47692 -2.624393,2.78199 -5.216217,4.18661 -9.606385,5.20611 -1.913379,0.44433 -5.983836,0.50127 -7.691416,0.10759 -0.637669,-0.14701 -1.208377,-0.21831 -1.268239,-0.15845 -0.05986,0.0599 -0.583917,1.93923 -1.164566,4.17637 -0.580648,2.23713 -1.126726,4.2993 -1.213506,4.58259 -0.08678,0.28329 0.370582,-0.13343 1.01636,-0.92604 2.789832,-3.42417 6.632684,-5.72568 11.290487,-6.76194 3.321207,-0.7389 10.345814,-0.13516 11.014408,0.94665 0.264837,0.42851 -2.133159,3.66529 -4.328441,5.84247 -2.610959,2.58941 -4.796879,3.86785 -8.085374,4.72874 -2.511432,0.65746 -6.544193,0.72492 -9.14444,0.15297 -2.80405,-0.61678 -2.724264,-0.65225 -3.422159,1.52135 -1.356737,4.22558 -1.902548,5.01491 -3.126278,4.52113 z"
       id="path14880" />
    <path
       style="fill:#5c895f"
       d="m 68.064065,159.10394 c -0.573547,-0.23144 -0.364318,-1.36034 0.727604,-3.92582 0.582084,-1.3676 1.058334,-2.53469 1.058334,-2.59352 0,-0.0588 -0.89414,-0.18254 -1.986976,-0.27491 -2.796601,-0.2364 -4.168367,-0.60852 -6.734973,-1.827 -3.847776,-1.8267 -7.10083,-5.65676 -9.045904,-10.6504 -0.453455,-1.16417 -0.838146,-2.53338 -0.854868,-3.04271 l -0.0304,-0.92604 1.455208,-0.0894 c 3.304929,-0.20298 7.922874,1.20879 11.264254,3.44365 3.042921,2.03523 5.531529,5.28728 6.596419,8.62004 l 0.517955,1.62103 1.080647,-4.15184 c 0.594355,-2.28351 1.170156,-4.41973 1.279556,-4.74716 0.18368,-0.54972 0.119748,-0.59531 -0.834929,-0.59531 -1.273223,0 -4.76272,-0.8663 -6.542445,-1.62423 -2.818524,-1.20031 -5.493707,-3.39503 -7.326145,-6.01037 -1.630426,-2.32702 -4.019787,-9.02209 -3.51267,-9.84262 0.08493,-0.13742 1.027044,-0.24986 2.093583,-0.24986 2.149096,0 5.655359,0.88788 7.802036,1.97568 2.226029,1.12802 5.10469,3.62791 6.43595,5.58912 1.248728,1.83963 2.570148,4.90723 2.585083,6.00114 0.0069,0.50865 0.04326,0.52893 0.265407,0.14827 0.259457,-0.44459 2.183985,-8.72105 2.048411,-8.80922 -0.0401,-0.0261 -1.012292,-0.24526 -2.16043,-0.48707 -1.148139,-0.24182 -3.100665,-0.93005 -4.338947,-1.52942 -5.295902,-2.56336 -8.407451,-7.58873 -8.955668,-14.46402 l -0.174051,-2.18281 1.031221,0.006 c 1.723031,0.0108 3.292834,0.48221 5.921789,1.77829 3.59817,1.77391 5.927863,4.10472 7.530362,7.53398 0.645432,1.38118 1.349509,3.33208 1.564616,4.33531 0.215107,1.00324 0.400811,1.70493 0.412674,1.55931 0.01186,-0.14562 0.441091,-2.22534 0.953839,-4.6216 0.512747,-2.39627 0.880295,-4.49229 0.816772,-4.65782 -0.06352,-0.16554 -0.551115,-0.37167 -1.083536,-0.45807 -1.35094,-0.21923 -4.627656,-1.8857 -5.974379,-3.03844 -1.53657,-1.31525 -3.061913,-3.75942 -3.740597,-5.99384 -0.597993,-1.96876 -0.784906,-5.692283 -0.384213,-7.653946 0.205504,-1.006077 0.226098,-1.021145 1.183393,-0.865846 1.692147,0.274511 4.329492,1.814174 6.291421,3.672882 2.879156,2.72768 4.363822,5.99784 4.382225,9.65239 0.01059,2.10313 0.216724,1.72874 0.86599,-1.57285 l 0.453904,-2.30815 -1.071812,-1.49677 c -2.8832,-4.02634 -3.10511,-8.626689 -0.644493,-13.360855 0.871571,-1.676882 3.325677,-4.735446 3.799588,-4.735446 0.125376,0 0.776699,0.713131 1.447383,1.584736 2.207317,2.868573 3.185794,5.886013 2.992341,9.227811 -0.156071,2.696023 -1.009137,4.523484 -3.200997,6.857254 -1.64921,1.75598 -1.722655,1.89403 -2.268163,4.26329 -0.740673,3.2169 -0.703798,3.43187 0.218016,1.27092 1.645145,-3.8566 3.684291,-6.03451 7.261106,-7.75524 1.985047,-0.95496 5.211735,-1.78219 6.414884,-1.64459 1.00617,0.11508 1.085917,0.90282 0.377414,3.72806 -1.737297,6.92769 -6.548133,10.76059 -13.523223,10.77426 l -1.995332,0.004 -0.929989,4.49792 c -0.511495,2.47385 -0.904883,4.49792 -0.874196,4.49792 0.03069,0 0.410414,-0.62508 0.843839,-1.38907 2.20683,-3.88991 6.398518,-6.97724 10.824073,-7.97233 3.03126,-0.68158 7.629366,-0.4766 8.14842,0.36325 0.198979,0.32195 -1.134565,3.23289 -2.355164,5.141 -3.507239,5.48269 -9.024725,8.16306 -15.98645,7.76612 l -2.332103,-0.13297 -0.869342,3.86668 c -0.478139,2.12668 -0.935704,4.16426 -1.016813,4.52795 -0.111151,0.4984 0.178524,0.26954 1.176164,-0.92925 2.118114,-2.54517 3.979656,-4.04922 6.573332,-5.31096 3.301359,-1.60602 5.50547,-2.03805 9.652434,-1.89196 3.703013,0.13044 4.233333,0.26681 4.233333,1.0886 0,0.94373 -2.283271,4.54874 -4.10222,6.47692 -2.624393,2.78199 -5.216217,4.18661 -9.606385,5.20611 -1.913379,0.44433 -5.983836,0.50127 -7.691416,0.10759 -0.637669,-0.14701 -1.208377,-0.21831 -1.268239,-0.15845 -0.05986,0.0599 -0.583917,1.93923 -1.164566,4.17637 -0.580648,2.23713 -1.126726,4.2993 -1.213506,4.58259 -0.08678,0.28329 0.370582,-0.13343 1.01636,-0.92604 2.789832,-3.42417 6.632684,-5.72568 11.290487,-6.76194 3.321207,-0.7389 10.345814,-0.13516 11.014408,0.94665 0.264837,0.42851 -2.133159,3.66529 -4.328441,5.84247 -2.610959,2.58941 -4.796879,3.86785 -8.085374,4.72874 -2.511432,0.65746 -6.544193,0.72492 -9.14444,0.15297 -2.80405,-0.61678 -2.724264,-0.65225 -3.422159,1.52135 -1.356737,4.22558 -1.902548,5.01491 -3.126278,4.52113 z"
       id="path14862" />
    <path
       style="fill:#225942"
       d="m 70.788071,136.66932 c 1.209688,-1.20969 0.486976,-3.05474 -1.196552,-3.05474 -1.508842,0 -2.032926,1.95129 -0.87052,3.24115 0.579735,0.6433 1.302542,0.57812 2.067072,-0.18641 z"
       id="path14836" />
    <path
       style="fill:#225942"
       d="m 82.684043,139.01998 c 1.731562,-0.82168 1.761272,-2.94933 0.05262,-3.76827 -1.049393,-0.50296 -2.054226,-0.0966 -2.700203,1.09209 -0.486791,0.89573 -0.496744,1.03171 -0.124294,1.6981 0.326435,0.58406 1.347199,1.37031 1.8041,1.38962 0.05077,0.002 0.486267,-0.18305 0.967777,-0.41154 z"
       id="path14835" />
    <path
       style="fill:#225942"
       d="m 67.909725,158.83819 c -0.371143,-0.37114 -0.109261,-1.36486 0.999425,-3.79236 l 1.147986,-2.51354 -1.492629,-0.19414 c -3.798156,-0.494 -5.187544,-0.84184 -7.146388,-1.78912 -3.621811,-1.75146 -7.157058,-5.62562 -8.873891,-9.72459 -0.812726,-1.9404 -1.540983,-4.59175 -1.320889,-4.80893 0.319203,-0.31498 4.539567,-0.0775 6.191248,0.34843 2.298212,0.59261 6.175811,2.51693 7.787692,3.86476 2.495664,2.08684 4.968553,5.88045 5.337593,8.1883 0.09536,0.59637 0.25326,1.13367 0.350883,1.19401 0.09762,0.0603 0.671957,-1.81754 1.2763,-4.17305 0.604344,-2.35552 1.177562,-4.55064 1.273819,-4.87807 0.152547,-0.51889 0.07765,-0.59604 -0.58345,-0.60103 -1.515084,-0.0114 -5.404919,-1.04458 -7.29247,-1.93687 -5.18538,-2.45127 -8.583642,-7.03986 -10.115359,-13.65852 -0.307461,-1.32856 -0.32428,-1.76044 -0.07532,-1.93421 0.529258,-0.36944 4.424946,0.004 6.405939,0.61329 3.116282,0.9592 5.32476,2.28754 7.670357,4.61349 2.369078,2.34923 3.400589,4.04457 4.256742,6.99615 l 0.569589,1.96366 0.293947,-0.90532 c 0.391605,-1.20609 1.89374,-7.92565 1.89374,-8.47134 0,-0.33188 -0.351049,-0.46211 -1.535029,-0.56947 -1.81295,-0.16439 -5.13662,-1.43696 -6.881854,-2.63492 -2.874148,-1.97287 -5.038618,-4.98302 -6.108468,-8.49511 -0.71564,-2.34929 -1.231584,-6.49067 -0.855482,-6.86677 0.86518,-0.86518 6.855566,1.3231 9.7656,3.56736 3.02111,2.32993 5.565097,6.93858 5.879499,10.65122 l 0.157474,1.85954 0.305087,-1.05833 c 0.281695,-0.97719 1.886152,-8.26863 2.000921,-9.09317 0.03214,-0.23088 -0.46463,-0.49544 -1.37209,-0.73073 -2.076321,-0.53834 -4.864449,-2.09303 -6.315997,-3.52186 -1.483936,-1.46072 -2.795767,-3.79138 -3.365783,-5.97982 -0.46044,-1.76775 -0.544631,-6.33451 -0.136568,-7.407798 0.330078,-0.868169 0.851531,-0.789899 3.585216,0.538143 5.068795,2.462455 8.333738,7.797215 7.998089,13.068495 -0.100092,1.57191 -0.07981,1.66014 0.217796,0.94772 0.18049,-0.43206 0.530387,-1.89307 0.777549,-3.24669 l 0.449386,-2.46112 -1.219139,-1.77221 c -2.656206,-3.86121 -2.883845,-8.061232 -0.681706,-12.577691 0.83434,-1.711183 3.46758,-5.20181 3.924112,-5.20181 0.124837,0 0.703559,0.631229 1.286049,1.402731 2.827992,3.745649 3.864629,8.008918 2.815735,11.579975 -0.556584,1.894935 -1.222437,2.958555 -3.059173,4.886625 -1.495635,1.57002 -1.53381,1.64875 -2.221588,4.58183 -0.384892,1.6414 -0.634216,3.04995 -0.554055,3.13011 0.08016,0.0802 0.226611,-0.19572 0.325443,-0.61307 0.09883,-0.41736 0.709619,-1.79603 1.357305,-3.06372 2.066203,-4.0441 5.281896,-6.44735 10.276956,-7.68048 1.809995,-0.44683 2.361697,-0.49275 2.911376,-0.2423 0.632874,0.28836 0.66597,0.39289 0.495246,1.56417 -0.27805,1.90761 -1.131937,4.52147 -2.034295,6.22722 -0.990053,1.87153 -3.371491,4.13215 -5.328068,5.05776 -1.859499,0.87968 -4.897384,1.5224 -6.838374,1.44677 -0.8357,-0.0326 -1.579519,8.6e-4 -1.65293,0.0743 -0.07341,0.0734 -0.48122,1.85028 -0.906241,3.9486 -0.425021,2.09832 -0.852317,4.17231 -0.949547,4.60887 -0.154905,0.69552 -0.08714,0.6464 0.547526,-0.39687 1.730984,-2.84541 3.434057,-4.6406 6.0474,-6.37449 3.023713,-2.00617 8.234633,-3.07187 11.596266,-2.37159 1.871015,0.38977 1.912512,0.64084 0.554132,3.35263 -2.12369,4.23961 -5.44215,7.49611 -8.992274,8.82438 -2.503722,0.93676 -6.09197,1.42124 -8.514734,1.14964 l -2.110155,-0.23656 -0.417446,1.99518 c -0.229595,1.09735 -0.705351,3.2379 -1.057236,4.75678 l -0.63979,2.76161 0.946621,-1.17411 c 4.237266,-5.25552 9.547342,-7.93357 15.66682,-7.90129 2.659515,0.014 4.665603,0.30675 5.103557,0.74471 0.663129,0.66313 -2.756261,6.02697 -5.150562,8.07946 -4.001616,3.43033 -11.284598,5.25941 -16.03514,4.02714 l -1.3808,-0.35818 -0.244848,0.95349 c -0.134666,0.52442 -0.674356,2.60643 -1.199311,4.6267 -0.524954,2.02026 -0.914992,3.71268 -0.86675,3.76092 0.04824,0.0482 0.558266,-0.50869 1.133387,-1.23761 3.646119,-4.6212 10.084096,-7.38241 16.391509,-7.03022 2.849033,0.15909 5.365796,0.77114 5.591707,1.35986 0.177279,0.46198 -1.514472,2.94882 -3.45947,5.08536 -4.27247,4.69321 -10.369225,6.66465 -17.081195,5.52334 -1.382448,-0.23507 -2.745407,-0.45533 -3.028798,-0.48947 -0.427671,-0.0515 -0.678666,0.3877 -1.476564,2.58377 -1.25776,3.46177 -1.47328,3.83646 -2.206724,3.83646 -0.334429,0 -0.687427,-0.0794 -0.784441,-0.17639 z"
       id="path14834" />
    <path
       style="fill:#483a30"
       d="m 82.025785,110.2585 c -0.0027,-0.11277 0.425968,-1.06073 0.952646,-2.10657 1.105626,-2.19548 3.502796,-4.73681 5.524696,-5.85694 3.524318,-1.95247 8.346547,-2.779763 8.330323,-1.42914 -0.003,0.24613 -0.0682,0.23593 -0.24142,-0.0377 -0.520128,-0.82174 -3.972678,-0.12809 -7.304631,1.46756 -2.44291,1.1699 -4.669837,3.38215 -6.137135,6.0967 -0.61574,1.13914 -1.121756,1.97889 -1.124479,1.86612 z"
       id="path14743" />
    <path
       style="fill:#483a30"
       d="m 81.807832,111.25729 c 0.0054,-0.43656 0.06469,-0.58312 0.131774,-0.32569 0.06708,0.25743 0.06267,0.61462 -0.0098,0.79375 -0.07248,0.17913 -0.127362,-0.0315 -0.12197,-0.46806 z"
       id="path14742" />
    <path
       style="fill:#483a30"
       d="m 76.694977,113.53157 c -4.553234,-1.78101 -7.438201,-4.87095 -8.556513,-9.16444 -0.478059,-1.83539 -0.540335,-6.414232 -0.100372,-7.379846 0.381466,-0.837228 0.915858,-0.75013 3.663922,0.597164 4.773934,2.340517 8.008667,7.407012 7.884879,12.349932 -0.03293,1.31497 -0.05434,1.3831 -0.124696,0.39687 -0.112984,-1.58375 -0.617539,-4.29945 -0.860255,-4.63021 -0.106784,-0.14552 -0.409488,-0.84686 -0.672675,-1.55854 -0.77109,-2.08509 -3.711989,-4.980312 -6.361619,-6.262806 -2.326479,-1.12608 -3.157968,-1.278196 -3.40913,-0.623678 -0.08833,0.230183 -0.160599,1.58686 -0.160599,3.014834 0,6.66199 3.098449,10.91441 9.657291,13.25401 0.727605,0.25954 1.084792,0.47502 0.79375,0.47885 -0.291041,0.004 -1.080334,-0.20864 -1.753983,-0.47214 z"
       id="path14738" />
    <path
       style="fill:#483a30"
       d="m 76.388186,122.3111 c -0.436473,-2.94981 -2.566068,-6.96507 -4.773059,-8.9994 -1.278464,-1.17845 -3.75326,-2.68947 -5.959975,-3.63895 -0.82153,-0.35348 -1.320588,-0.64757 -1.109018,-0.65355 0.21157,-0.006 1.492694,0.52815 2.846943,1.18696 2.911338,1.41628 5.695127,3.87121 7.091492,6.25374 1.21418,2.07169 2.305153,5.21727 2.196134,6.33207 -0.07816,0.79922 -0.111126,0.74502 -0.292517,-0.48087 z"
       id="path14732" />
    <path
       style="fill:#483a30"
       d="m 73.416256,134.62391 c -2.241006,-6.90455 -8.528343,-11.65345 -15.776518,-11.91618 -1.113094,-0.0403 -1.959554,-0.17837 -1.881022,-0.30673 0.225394,-0.36839 4.099722,0.056 6.07692,0.66568 4.34766,1.3406 8.238572,4.29755 10.318514,7.84168 0.72638,1.23772 2.039482,4.80079 1.842015,4.99825 -0.06792,0.0679 -0.328884,-0.50929 -0.579909,-1.2827 z"
       id="path14725" />
    <path
       style="fill:#483a30"
       d="m 68.228754,136.85573 c -0.329108,-0.41965 -0.319749,-0.429 0.09989,-0.0999 0.44073,0.34565 0.580888,0.56292 0.363126,0.56292 -0.05494,0 -0.263301,-0.20836 -0.46302,-0.46302 z"
       id="path14722" />
    <path
       style="fill:#483a30"
       d="m 81.56285,139.51665 c 0.257431,-0.0671 0.614618,-0.0627 0.79375,0.01 0.179131,0.0725 -0.03149,0.12736 -0.468056,0.12197 -0.436563,-0.005 -0.583125,-0.0647 -0.325694,-0.13177 z"
       id="path14718" />
    <path
       style="fill:#483a30"
       d="m 73.118873,149.34778 c 0.974687,-2.00592 5.487437,-5.61039 8.615431,-6.88141 1.91603,-0.77855 5.557748,-1.44345 7.905911,-1.44345 2.500043,0 1.866378,0.25901 -0.899879,0.36782 -2.859018,0.11247 -5.411374,0.72144 -8.012226,1.91167 -2.078988,0.95141 -5.052552,3.21015 -6.291421,4.779 -0.412626,0.52253 -0.965754,1.20196 -1.229175,1.50984 -0.46981,0.54911 -0.471501,0.54447 -0.08864,-0.24347 z"
       id="path14713" />
    <path
       style="fill:#483a30"
       d="m 81.766401,105.56875 c 0.132663,0 0.183379,0.38695 0.112702,0.8599 -0.126938,0.84942 -0.12444,0.84805 0.205052,-0.11212 0.183455,-0.53461 1.007613,-1.68602 1.831462,-2.55871 2.037705,-2.15849 2.763051,-3.50925 3.152155,-5.870023 0.282482,-1.713881 0.26744,-2.262308 -0.107602,-3.923047 -0.537988,-2.382282 -1.001043,-3.412625 -2.48498,-5.529328 -0.995696,-1.42027 -1.230903,-1.617473 -1.657122,-1.389367 -1.403281,0.751012 -3.981171,5.119283 -4.526131,7.669591 -0.418084,1.956548 -0.149365,5.488424 0.535351,7.036344 0.295113,0.66715 0.907863,1.6818 1.361668,2.25477 0.48408,0.6112 0.895758,1.50468 0.996057,2.16178 0.163625,1.07197 0.174586,1.08312 0.25557,0.26011 0.04654,-0.47295 0.193155,-0.8599 0.325818,-0.8599 z"
       id="path14697" />
    <path
       style="fill:#483a30"
       d="m 86.103626,126.61491 c 5.139663,-0.98338 9.712586,-5.13893 12.050109,-10.95028 0.441611,-1.0979 0.267404,-1.23434 -1.859864,-1.45668 -1.752679,-0.1832 -4.941461,0.15786 -6.892086,0.73713 -3.579478,1.06299 -7.219642,4.05542 -9.277397,7.62657 -0.650934,1.12967 -1.26443,1.97303 -1.363326,1.87413 -0.09889,-0.0989 -0.197438,0.10793 -0.218984,0.4596 -0.02155,0.35168 -0.05369,0.87754 -0.07142,1.16858 -0.01774,0.29104 0.0069,0.61846 0.05479,0.7276 0.151577,0.3456 5.482661,0.21429 7.578178,-0.18665 z"
       id="path14696" />
    <path
       style="fill:#483a30"
       d="m 70.25506,151.41802 c 0.773109,-1.05729 -0.118431,-4.43416 -1.878253,-7.11422 -3.403404,-5.18311 -10.076106,-8.48422 -16.320033,-8.07382 -0.637173,0.0419 -0.586535,0.71077 0.22645,2.99123 2.019533,5.66489 5.863599,9.8595 10.687612,11.66224 1.838702,0.68712 3.145512,0.93187 5.130207,0.9608 1.436038,0.0209 1.893184,-0.0695 2.154017,-0.42623 z"
       id="path14695" />
    <path
       style="fill:#483a30"
       d="m 67.909725,158.83819 c -0.368509,-0.36851 -0.139182,-1.22599 1.014236,-3.79236 0.654844,-1.45703 1.190088,-2.67817 1.189431,-2.71364 -6.57e-4,-0.0355 -0.86386,-0.0993 -1.918229,-0.14194 -4.484405,-0.18119 -8.009914,-1.73144 -11.199916,-4.92487 -1.176523,-1.17778 -2.557396,-2.86104 -3.068607,-3.74057 -0.987765,-1.69944 -2.425026,-5.25764 -2.682852,-6.6419 -0.14385,-0.77232 -0.09331,-0.8443 0.696869,-0.99254 1.186929,-0.22267 4.997991,0.29366 6.915287,0.93689 3.026622,1.0154 5.193492,2.35132 7.438531,4.58602 2.259017,2.2486 3.928298,5.02069 4.255499,7.0669 0.08981,0.56162 0.243932,1.07097 0.342499,1.13189 0.09857,0.0609 0.674215,-1.81696 1.279217,-4.17305 0.605001,-2.3561 1.173485,-4.53655 1.263296,-4.84546 0.152308,-0.52386 0.01734,-0.58299 -2.006149,-0.87887 -7.03962,-1.02932 -11.911482,-4.71362 -14.52063,-10.98108 -0.819356,-1.96818 -1.953459,-5.97655 -1.748857,-6.18115 0.05708,-0.0571 0.231655,0.41424 0.387935,1.04739 1.475465,5.97773 3.704141,9.74602 7.362443,12.44857 2.786107,2.05822 7.058942,3.52794 9.692271,3.33384 l 1.073707,-0.0791 0.457769,-1.71979 c 0.706037,-2.65251 2.332451,-9.87044 2.331743,-10.34815 -4.85e-4,-0.32685 -0.358379,-0.45871 -1.534596,-0.56536 -0.84368,-0.0765 -2.480789,-0.52811 -3.638021,-1.00358 -6.194874,-2.54524 -9.67169,-7.66666 -10.274167,-15.13407 -0.135339,-1.67746 -0.109117,-1.7921 0.441235,-1.92906 0.321819,-0.0801 1.061376,-0.0235 1.643459,0.12576 l 1.058333,0.27137 -1.231454,-0.11972 c -0.783539,-0.0762 -1.323982,-0.003 -1.48584,0.20249 -0.351756,0.44553 0.08059,4.09334 0.737065,6.21874 0.677961,2.19498 1.841805,4.36381 3.181218,5.9282 2.03697,2.37912 6.489091,4.77157 9.548577,5.13115 1.325118,0.15574 1.45533,0.12147 1.733368,-0.45625 0.382595,-0.79497 2.486821,-10.51215 2.591224,-11.9661 0.0432,-0.60168 0.317777,-1.80833 0.610163,-2.68146 0.292385,-0.87312 0.681989,-2.4488 0.865786,-3.50151 l 0.334175,-1.91402 -1.217475,-1.83091 c -1.175251,-1.76742 -1.82411,-3.48169 -2.169591,-5.732024 -0.244598,-1.593221 0.502289,-4.72085 1.702632,-7.129866 1.10522,-2.218107 3.201442,-4.754734 3.77754,-4.57118 0.625304,0.199233 2.793454,3.329227 3.381953,4.88227 0.930099,2.454521 1.210674,4.574422 0.869249,6.56765 -0.407688,2.38006 -1.184942,3.84079 -3.141599,5.90413 l -1.677734,1.76921 -0.656695,2.91042 c -0.361182,1.60073 -0.732678,3.49165 -0.825548,4.20206 l -0.168855,1.29164 2.865712,-0.12736 c 2.250054,-0.1 3.209575,-0.26939 4.466298,-0.78852 1.931816,-0.798 3.597784,-1.97007 4.805146,-3.3806 1.170703,-1.3677 2.589248,-4.47227 2.998081,-6.56148 0.178673,-0.91305 0.412851,-1.71447 0.520396,-1.78093 0.107545,-0.0665 0.03663,0.63721 -0.157581,1.56373 -1.040388,4.96327 -3.375661,8.20338 -7.251075,10.06062 -2.031817,0.97372 -5.386143,1.62183 -7.285749,1.40772 -0.650611,-0.0733 -1.182929,-0.0535 -1.182929,0.0441 0,0.0976 -0.414453,2.18865 -0.921006,4.64684 -0.506554,2.45819 -0.872047,4.5184 -0.812208,4.57824 0.05984,0.0598 0.371594,-0.40875 0.692789,-1.04132 0.728671,-1.43505 1.243277,-2.10947 2.949118,-3.865 1.873201,-1.92776 3.890943,-3.20071 6.546286,-4.12991 1.98358,-0.69412 2.63356,-0.79335 5.303353,-0.8096 3.107823,-0.0189 4.233333,0.25713 4.233333,1.0383 0,0.6347 -2.192809,4.67448 -3.413567,6.28876 -1.175055,1.55384 -3.566923,3.5352 -5.391049,4.4658 -2.345441,1.19656 -7.160397,1.96963 -10.019439,1.6087 l -1.758431,-0.22199 -0.418396,1.99991 c -0.230117,1.09995 -0.7063,3.24263 -1.058185,4.76151 l -0.63979,2.76161 0.943231,-1.17411 c 2.24949,-2.80009 4.258405,-4.45551 7.02341,-5.78757 1.481522,-0.71373 3.550616,-1.48573 4.597989,-1.71555 2.023149,-0.44393 5.256594,-0.51786 7.223811,-0.16517 0.855483,0.15338 0.110724,0.21389 -2.645833,0.215 -3.215122,10e-4 -4.136414,0.096 -5.688542,0.5846 -3.376134,1.06286 -6.866039,3.13749 -8.681138,5.16063 -1.750476,1.95111 -2.494886,3.05065 -2.96235,4.37558 -0.345646,0.97967 -0.342843,1.14318 0.02592,1.51194 0.566439,0.56644 1.989551,0.78749 4.627699,0.71882 4.521766,-0.1177 9.294034,-1.88392 12.093637,-4.47586 2.123319,-1.96582 4.639928,-5.67928 4.66586,-6.88485 0.02044,-0.95021 0.317953,-1.23033 0.58038,-0.54646 0.19333,0.50381 -1.1611,3.00977 -2.825568,5.22785 -2.491188,3.31977 -5.552435,5.26084 -10.170271,6.44875 -2.237004,0.57545 -3.075104,0.66436 -5.423958,0.57543 -1.527969,-0.0578 -3.056213,-0.25512 -3.396098,-0.43838 -0.339885,-0.18325 -0.674013,-0.27715 -0.742506,-0.20866 -0.243021,0.24302 -2.706187,10.07866 -2.576555,10.28841 0.07249,0.1173 0.01923,0.21327 -0.118362,0.21327 -0.137593,0 -0.302374,0.3557 -0.366182,0.79044 -0.107179,0.73026 -0.04399,0.80247 0.829866,0.94833 0.520233,0.0868 1.303066,0.25874 1.739629,0.38202 3.949112,1.1152 9.739553,0.19484 13.704217,-2.1782 2.939362,-1.75936 7.817796,-7.41599 6.984613,-8.09878 -0.173753,-0.1424 -1.149352,-0.4443 -2.167998,-0.6709 -1.797625,-0.39989 -1.809295,-0.40757 -0.396875,-0.26102 1.575384,0.16345 3.175,0.71568 3.175,1.09608 0,0.56162 -2.16754,3.51001 -3.855937,5.24503 -2.851923,2.93067 -5.578566,4.44542 -9.42822,5.2377 -2.534954,0.52171 -4.144801,0.52616 -7.353342,0.0203 -1.382448,-0.21794 -2.745407,-0.4256 -3.028798,-0.46146 -0.428419,-0.0542 -0.67727,0.38071 -1.476564,2.58063 -1.25776,3.46177 -1.47328,3.83646 -2.206724,3.83646 -0.334429,0 -0.687427,-0.0794 -0.784441,-0.17639 z"
       id="path14694" />
    <path
       style="fill:#284c34"
       d="m 82.025785,110.2585 c -0.0027,-0.11277 0.425968,-1.06073 0.952646,-2.10657 1.105626,-2.19548 3.502796,-4.73681 5.524696,-5.85694 3.524318,-1.95247 8.346547,-2.779763 8.330323,-1.42914 -0.003,0.24613 -0.0682,0.23593 -0.24142,-0.0377 -0.520128,-0.82174 -3.972678,-0.12809 -7.304631,1.46756 -2.44291,1.1699 -4.669837,3.38215 -6.137135,6.0967 -0.61574,1.13914 -1.121756,1.97889 -1.124479,1.86612 z"
       id="path14554" />
    <path
       style="fill:#284c34"
       d="m 81.807832,111.25729 c 0.0054,-0.43656 0.06469,-0.58312 0.131774,-0.32569 0.06708,0.25743 0.06267,0.61462 -0.0098,0.79375 -0.07248,0.17913 -0.127362,-0.0315 -0.12197,-0.46806 z"
       id="path14553" />
    <path
       style="fill:#284c34"
       d="m 76.694977,113.53157 c -4.553234,-1.78101 -7.438201,-4.87095 -8.556513,-9.16444 -0.478059,-1.83539 -0.540335,-6.414232 -0.100372,-7.379846 0.381466,-0.837228 0.915858,-0.75013 3.663922,0.597164 4.773934,2.340517 8.008667,7.407012 7.884879,12.349932 -0.03293,1.31497 -0.05434,1.3831 -0.124696,0.39687 -0.112984,-1.58375 -0.617539,-4.29945 -0.860255,-4.63021 -0.106784,-0.14552 -0.409488,-0.84686 -0.672675,-1.55854 -0.77109,-2.08509 -3.711989,-4.980312 -6.361619,-6.262806 -2.326479,-1.12608 -3.157968,-1.278196 -3.40913,-0.623678 -0.08833,0.230183 -0.160599,1.58686 -0.160599,3.014834 0,6.66199 3.098449,10.91441 9.657291,13.25401 0.727605,0.25954 1.084792,0.47502 0.79375,0.47885 -0.291041,0.004 -1.080334,-0.20864 -1.753983,-0.47214 z"
       id="path14548" />
    <path
       style="fill:#284c34"
       d="m 76.388186,122.3111 c -0.436473,-2.94981 -2.566068,-6.96507 -4.773059,-8.9994 -1.278464,-1.17845 -3.75326,-2.68947 -5.959975,-3.63895 -0.82153,-0.35348 -1.320588,-0.64757 -1.109018,-0.65355 0.21157,-0.006 1.492694,0.52815 2.846943,1.18696 2.911338,1.41628 5.695127,3.87121 7.091492,6.25374 1.21418,2.07169 2.305153,5.21727 2.196134,6.33207 -0.07816,0.79922 -0.111126,0.74502 -0.292517,-0.48087 z"
       id="path14537" />
    <path
       style="fill:#284c34"
       d="m 76.506357,128.05833 c 0,-0.3638 0.06005,-0.51263 0.133452,-0.33073 0.0734,0.1819 0.0734,0.47956 0,0.66146 -0.0734,0.1819 -0.133452,0.0331 -0.133452,-0.33073 z"
       id="path14534" />
    <path
       style="fill:#284c34"
       d="m 81.766396,105.56875 c 0.132663,0 0.183379,0.38695 0.112702,0.8599 -0.126938,0.84942 -0.12444,0.84805 0.205052,-0.11212 0.183455,-0.53461 1.007613,-1.68602 1.831462,-2.55871 2.037705,-2.15849 2.763051,-3.50925 3.152155,-5.870023 0.282482,-1.713881 0.26744,-2.262308 -0.107602,-3.923047 -0.537988,-2.382282 -1.001043,-3.412625 -2.48498,-5.529328 -0.995696,-1.42027 -1.230903,-1.617473 -1.657122,-1.389367 -1.403281,0.751012 -3.981171,5.119283 -4.526131,7.669591 -0.418084,1.956548 -0.149365,5.488424 0.535351,7.036344 0.295113,0.66715 0.907863,1.6818 1.361668,2.25477 0.48408,0.6112 0.895758,1.50468 0.996057,2.16178 0.163625,1.07197 0.174586,1.08312 0.25557,0.26011 0.04654,-0.47295 0.193155,-0.8599 0.325818,-0.8599 z"
       id="path14531" />
    <path
       style="fill:#284c34"
       d="m 80.077447,114.64967 c -0.07594,-0.0759 -0.263876,-0.0603 -0.417629,0.0347 -0.190504,0.11774 -0.175041,0.28644 0.04854,0.52963 0.274279,0.29832 0.342781,0.29263 0.41763,-0.0347 0.04924,-0.21535 0.0274,-0.45369 -0.04854,-0.52963 z"
       id="path14530" />
    <path
       style="fill:#284c34"
       d="m 79.980927,116.94547 c 0.07616,-0.29124 0.03052,-0.46281 -0.101433,-0.38126 -0.13195,0.0815 -0.239909,0.31984 -0.239909,0.52953 0,0.54762 0.179784,0.46953 0.341342,-0.14827 z"
       id="path14529" />
    <path
       style="fill:#284c34"
       d="m 78.866724,119.17274 c 0.01269,-0.30822 0.07539,-0.37092 0.159852,-0.15985 0.07643,0.191 0.06703,0.4192 -0.02089,0.50712 -0.08792,0.0879 -0.150453,-0.0683 -0.138964,-0.34727 z"
       id="path14528" />
    <path
       style="fill:#284c34"
       d="m 79.045662,120.78229 c -0.06954,-0.3638 -0.03777,-0.66146 0.0706,-0.66146 0.388702,0 0.451991,-1.29367 0.07045,-1.44008 -0.205931,-0.079 -0.299116,-0.26552 -0.207077,-0.41445 0.09204,-0.14892 0.307945,-0.18644 0.479791,-0.0834 0.186834,0.11206 0.169728,0.0114 -0.04255,-0.25047 -0.29836,-0.36801 -0.29123,-0.56569 0.04469,-1.23906 0.219827,-0.44065 0.299967,-0.86282 0.178087,-0.93814 -0.192018,-0.11868 -0.618408,1.07601 -0.660999,1.85203 -0.008,0.14552 -0.09632,0.395 -0.196297,0.55441 -0.400551,0.63863 -0.530325,2.4885 -0.202303,2.88374 0.473699,0.57077 0.61026,0.49359 0.4656,-0.26315 z"
       id="path14527" />
    <path
       style="fill:#284c34"
       d="m 77.679937,127.99219 c 0.127891,-1.14817 0.09151,-1.25677 -0.421005,-1.25677 -0.308546,0 -0.487408,0.11906 -0.397472,0.26458 0.08994,0.14552 0.03743,0.26458 -0.116676,0.26458 -0.154109,0 -0.280198,-0.10252 -0.280198,-0.22783 0,-0.12531 -0.690284,-0.29043 -1.533964,-0.36693 -0.84368,-0.0765 -2.480789,-0.52811 -3.638021,-1.00358 -6.194874,-2.54524 -9.67169,-7.66666 -10.274167,-15.13407 -0.135339,-1.67746 -0.109117,-1.7921 0.441235,-1.92906 0.321819,-0.0801 1.061376,-0.0235 1.643459,0.12576 l 1.058333,0.27137 -1.231454,-0.11972 c -0.783539,-0.0762 -1.323982,-0.003 -1.48584,0.20249 -0.351756,0.44553 0.08059,4.09334 0.737065,6.21874 0.677961,2.19498 1.841805,4.36381 3.181218,5.9282 1.997838,2.33341 6.384522,4.71834 9.419015,5.12088 1.171604,0.15542 1.435236,0.1033 1.91761,-0.37907 0.307593,-0.30759 0.55926,-0.6713 0.55926,-0.80823 0,-0.13693 0.137818,-0.33414 0.306262,-0.43825 0.21095,-0.13037 0.258599,-0.007 0.153111,0.39637 -0.100425,0.38403 -0.04646,0.54787 0.156759,0.47592 0.170451,-0.0603 0.292051,-0.31321 0.270223,-0.56191 -0.02183,-0.24871 0.0377,-0.37477 0.132291,-0.28015 0.09459,0.0946 0.172998,0.60858 0.174244,1.14212 l 0.0023,0.97008 2.378986,0.088 c 5.705977,0.21117 9.566661,-1.15069 12.95469,-4.56977 1.731049,-1.74692 3.397408,-4.3119 4.36657,-6.72135 0.441611,-1.0979 0.267404,-1.23434 -1.859864,-1.45668 -1.752679,-0.1832 -4.941461,0.15786 -6.892086,0.73713 -3.586512,1.06508 -7.2191,4.05455 -9.286643,7.64252 -1.084906,1.88273 -1.230401,2.03226 -1.60901,1.65365 -0.490312,-0.49031 -0.983213,-0.54424 -0.983213,-0.10757 0,0.16977 -0.06721,0.24147 -0.149353,0.15933 -0.246597,-0.2466 0.18735,-2.06326 0.453552,-1.89873 0.140403,0.0868 0.178883,-0.11598 0.08956,-0.47188 -0.08614,-0.3432 0.197128,-2.21397 0.629484,-4.15726 0.432356,-1.94328 0.733012,-3.67159 0.668125,-3.84068 -0.06489,-0.16909 0.169238,-1.19557 0.520279,-2.28105 0.351041,-1.08549 0.789663,-2.83492 0.974717,-3.88763 l 0.336461,-1.91402 -1.217475,-1.83091 c -1.175251,-1.76742 -1.82411,-3.48169 -2.169591,-5.732024 -0.244598,-1.593221 0.502289,-4.72085 1.702632,-7.129866 1.10522,-2.218107 3.201442,-4.754734 3.77754,-4.57118 0.625304,0.199233 2.793454,3.329227 3.381953,4.88227 0.930099,2.454521 1.210674,4.574422 0.869249,6.56765 -0.407559,2.37931 -1.184664,3.84029 -3.140444,5.90413 -1.660857,1.75262 -1.682891,1.79593 -2.349551,4.61844 -0.370134,1.56708 -0.672971,3.03262 -0.672971,3.25676 0,0.22414 -0.119062,0.33395 -0.264583,0.24401 -0.147539,-0.0912 -0.262791,0.10674 -0.260532,0.44741 0.0033,0.49355 0.05403,0.53468 0.264214,0.21405 0.183386,-0.27975 0.209367,-0.13259 0.08804,0.49866 l -0.172123,0.89554 2.884472,-0.12812 c 2.269319,-0.1008 3.22582,-0.26913 4.485059,-0.7893 1.931816,-0.798 3.597784,-1.97007 4.805146,-3.3806 1.170703,-1.3677 2.589248,-4.47227 2.998081,-6.56148 0.178673,-0.91305 0.412851,-1.71447 0.520396,-1.78093 0.107545,-0.0665 0.03663,0.63721 -0.157581,1.56373 -1.040388,4.96327 -3.375661,8.20338 -7.251075,10.06062 -2.018059,0.96713 -5.383242,1.62216 -7.25178,1.41154 l -1.148961,-0.1295 -0.723312,3.4694 c -0.397822,1.90817 -0.829381,3.58206 -0.959019,3.71976 -0.145271,0.1543 -0.385132,0.0528 -0.625159,-0.26458 -0.38017,-0.50268 -0.389652,-0.50076 -0.397866,0.0804 -0.0046,0.32743 0.125226,0.59532 0.288566,0.59532 0.196868,0 0.17848,0.14278 -0.05455,0.42356 -0.42716,0.5147 -0.549328,1.16394 -0.21902,1.16394 0.132644,0 0.241172,-0.0963 0.241172,-0.21402 0,-0.1177 0.176491,-0.44513 0.392202,-0.7276 0.366008,-0.47929 0.38147,-0.45616 0.231511,0.3463 -0.219707,1.1757 0.04824,1.07861 0.730193,-0.26458 0.715247,-1.40877 1.236247,-2.09006 2.936037,-3.83936 1.873201,-1.92776 3.890943,-3.20071 6.546286,-4.12991 1.98358,-0.69412 2.63356,-0.79335 5.303353,-0.8096 3.107823,-0.0189 4.233333,0.25713 4.233333,1.0383 0,0.6347 -2.192809,4.67448 -3.413567,6.28876 -1.175055,1.55384 -3.566923,3.5352 -5.391049,4.4658 -2.353228,1.20053 -7.160686,1.96952 -10.040873,1.60612 l -1.779865,-0.22457 -0.262141,1.07645 -0.262141,1.07645 z"
       id="path14526" />
    <path
       style="fill:#284c34"
       d="m 75.977195,130.175 c 0,-0.3638 0.06005,-0.51263 0.133452,-0.33073 0.0734,0.1819 0.0734,0.47956 0,0.66146 -0.0734,0.1819 -0.133452,0.0331 -0.133452,-0.33073 z"
       id="path14523" />
    <path
       style="fill:#284c34"
       d="m 75.846083,132.22552 c -0.0734,-0.1819 -0.133452,-0.0331 -0.133452,0.33073 0,0.3638 0.06005,0.51263 0.133452,0.33073 0.0734,-0.1819 0.0734,-0.47956 0,-0.66146 z"
       id="path14518" />
    <path
       style="fill:#284c34"
       d="m 75.844383,134.0776 -0.451625,-0.85989 0.142674,0.79375 c 0.108545,0.60388 0.07924,0.68991 -0.122495,0.35967 -0.301467,-0.4935 0.17646,-3.40238 0.559008,-3.40238 0.125432,0 0.231678,0.50602 0.236103,1.12448 0.01005,1.40433 0.331049,0.92521 0.798797,-1.19226 0.185034,-0.83764 0.388849,-1.47056 0.452923,-1.40648 0.224784,0.22478 -0.82419,4.09348 -1.068913,3.94223 -0.147322,-0.091 -0.173958,0.18163 -0.06583,0.67393 0.232291,1.05762 0.08693,1.04762 -0.480641,-0.0331 z"
       id="path14517" />
    <path
       style="fill:#284c34"
       d="m 73.416256,134.62391 c -2.241006,-6.90455 -8.528343,-11.65345 -15.776518,-11.91618 -1.113094,-0.0403 -1.959554,-0.17837 -1.881022,-0.30673 0.225394,-0.36839 4.099722,0.056 6.07692,0.66568 4.34766,1.3406 8.238572,4.29755 10.318514,7.84168 0.72638,1.23772 2.039482,4.80079 1.842015,4.99825 -0.06792,0.0679 -0.328884,-0.50929 -0.579909,-1.2827 z"
       id="path14515" />
    <path
       style="fill:#284c34"
       d="m 68.228754,136.85573 c -0.329108,-0.41965 -0.319749,-0.429 0.09989,-0.0999 0.44073,0.34565 0.580888,0.56292 0.363126,0.56292 -0.05494,0 -0.263301,-0.20836 -0.46302,-0.46302 z"
       id="path14512" />
    <path
       style="fill:#284c34"
       d="m 74.101864,137.84792 c -0.0062,-0.21829 0.224867,-1.11125 0.513564,-1.98438 0.288697,-0.87312 0.481951,-1.33923 0.429454,-1.03579 -0.07871,0.45495 0.01421,0.53074 0.529835,0.43217 0.684245,-0.1308 0.757424,0.0893 0.369172,1.11051 -0.178146,0.46856 -0.386265,0.62368 -0.683643,0.50957 -0.34614,-0.13283 -0.360345,-0.21125 -0.07461,-0.41196 0.280796,-0.19725 0.271813,-0.22622 -0.04396,-0.14175 -0.218281,0.0584 -0.538983,0.51394 -0.712671,1.01233 -0.173687,0.49839 -0.320898,0.72758 -0.327134,0.5093 z"
       id="path14509" />
    <path
       style="fill:#284c34"
       d="m 81.56285,139.51665 c 0.257431,-0.0671 0.614618,-0.0627 0.79375,0.01 0.179131,0.0725 -0.03149,0.12736 -0.468056,0.12197 -0.436563,-0.005 -0.583125,-0.0647 -0.325694,-0.13177 z"
       id="path14507" />
    <path
       style="fill:#284c34"
       d="m 73.83964,144.04357 c 0.0127,-0.30823 0.07539,-0.37092 0.159853,-0.15986 0.07643,0.191 0.06703,0.4192 -0.02089,0.50712 -0.08792,0.0879 -0.150453,-0.0684 -0.138965,-0.34726 z"
       id="path14500" />
    <path
       style="fill:#284c34"
       d="m 73.37778,144.871 c 0,-0.21188 0.09922,-0.32391 0.220486,-0.24897 0.121268,0.075 0.220486,0.24831 0.220486,0.38524 0,0.13693 -0.09922,0.24897 -0.220486,0.24897 -0.121267,0 -0.220486,-0.17336 -0.220486,-0.38524 z"
       id="path14499" />
    <path
       style="fill:#284c34"
       d="m 75.398149,138.50936 c 0,-0.14552 -0.115416,-0.086 -0.25648,0.1323 -0.141064,0.21828 -0.25648,0.51593 -0.25648,0.66145 0,0.14552 0.115416,0.086 0.25648,-0.13229 0.141064,-0.21828 0.25648,-0.51594 0.25648,-0.66146 z"
       id="path14497" />
    <path
       style="fill:#284c34"
       d="m 72.795067,143.06661 c 0.41569,-1.48784 0.756543,-2.78076 0.757451,-2.87316 9.08e-4,-0.0924 -0.964674,-0.3093 -2.145737,-0.48199 -7.016217,-1.02591 -11.892674,-4.7182 -14.498574,-10.97786 -0.819356,-1.96818 -1.953459,-5.97655 -1.748857,-6.18115 0.05708,-0.0571 0.231655,0.41424 0.387935,1.04739 1.475465,5.97773 3.704141,9.74602 7.362443,12.44857 2.716132,2.00652 6.565082,3.37049 9.544732,3.3824 0.944353,0.004 1.174964,-0.0937 1.293479,-0.54694 0.109204,-0.4176 0.197643,-0.46578 0.364186,-0.19843 0.153648,0.24664 0.272528,0.0922 0.394341,-0.51231 0.222957,-1.10645 0.572675,-1.32004 0.885253,-0.54066 0.194913,0.48599 0.249034,0.51298 0.262346,0.13082 0.02607,-0.74844 1.531666,-2.77291 3.610591,-4.85492 3.255052,-3.25988 8.560135,-5.40424 13.259451,-5.3596 1.13544,0.0108 2.600217,0.11567 3.255061,0.23307 0.855483,0.15338 0.110724,0.21389 -2.645833,0.215 -3.215122,10e-4 -4.136414,0.096 -5.688542,0.5846 -3.376134,1.06286 -6.866039,3.13749 -8.681138,5.16063 -1.750476,1.95111 -2.494886,3.05065 -2.96235,4.37558 -0.345646,0.97967 -0.342843,1.14318 0.02592,1.51194 0.566439,0.56644 1.989551,0.78749 4.627699,0.71882 4.521766,-0.1177 9.294034,-1.88392 12.093637,-4.47586 2.123319,-1.96582 4.639928,-5.67928 4.66586,-6.88485 0.02044,-0.95021 0.317953,-1.23033 0.58038,-0.54646 0.19333,0.50381 -1.1611,3.00977 -2.825568,5.22785 -2.491188,3.31977 -5.552435,5.26084 -10.170271,6.44875 -2.237004,0.57545 -3.075104,0.66436 -5.423958,0.57543 -1.527969,-0.0578 -3.056213,-0.25512 -3.396098,-0.43838 -0.339885,-0.18325 -0.682997,-0.26817 -0.762471,-0.18869 -0.07947,0.0795 -0.358451,0.89279 -0.619949,1.80737 -0.261497,0.91458 -0.483932,1.47613 -0.494299,1.24788 -0.01037,-0.22825 0.169143,-1.04804 0.398911,-1.82175 0.380624,-1.2817 0.380624,-1.44389 0,-1.82451 -0.380625,-0.38062 -0.420546,-0.33628 -0.449093,0.49883 -0.01723,0.50413 -0.01723,1.00589 0,1.11503 0.01723,0.10914 -0.08773,0.19844 -0.233251,0.19844 -0.145521,0 -0.239288,0.0893 -0.208372,0.19844 0.03092,0.10914 -0.07241,0.43656 -0.229619,0.7276 -0.157207,0.29104 -0.432591,1.15461 -0.611964,1.91905 -0.179373,0.76443 -0.416897,1.44597 -0.527831,1.51453 -0.110935,0.0686 0.138411,-1.09266 0.554101,-2.5805 z"
       id="path14496" />
    <path
       style="fill:#284c34"
       d="m 73.062195,147.10832 c 0,-0.21828 0.102326,-0.635 0.227391,-0.92604 0.143328,-0.33354 0.22739,-0.38245 0.22739,-0.13229 0,0.21828 -0.102325,0.635 -0.22739,0.92604 -0.143329,0.33354 -0.227391,0.38245 -0.227391,0.13229 z"
       id="path14495" />
    <path
       style="fill:#284c34"
       d="m 71.474695,148.29895 c 0,-0.29104 0.102326,-0.76729 0.227391,-1.05834 l 0.22739,-0.52916 v 0.52916 c 0,0.29105 -0.102325,0.7673 -0.22739,1.05834 l -0.227391,0.52916 z"
       id="path14493" />
    <path
       style="fill:#284c34"
       d="m 72.424719,149.20378 c 0.09356,-0.35777 0.213493,-0.4777 0.279546,-0.27955 0.06363,0.19089 -0.01011,0.47286 -0.16386,0.62661 -0.196339,0.19633 -0.230773,0.093 -0.115686,-0.34706 z"
       id="path14491" />
    <path
       style="fill:#284c34"
       d="m 73.118873,149.34778 c 0.974687,-2.00592 5.487437,-5.61039 8.615431,-6.88141 1.91603,-0.77855 5.557748,-1.44345 7.905911,-1.44345 2.500043,0 1.866378,0.25901 -0.899879,0.36782 -2.859018,0.11247 -5.411374,0.72144 -8.012226,1.91167 -2.078988,0.95141 -5.052552,3.21015 -6.291421,4.779 -0.412626,0.52253 -0.965754,1.20196 -1.229175,1.50984 -0.46981,0.54911 -0.471501,0.54447 -0.08864,-0.24347 z"
       id="path14489" />
    <path
       style="fill:#284c34"
       d="m 70.216701,151.45719 c 0.0873,-0.22751 0.290513,-0.3322 0.45158,-0.23266 0.204993,0.1267 0.218846,0.0325 0.04618,-0.31396 -0.13567,-0.27222 -0.27104,-0.95181 -0.300822,-1.5102 -0.184148,-3.45263 -3.825792,-8.3 -8.036196,-10.69692 -2.993062,-1.7039 -7.090101,-2.6858 -10.320665,-2.47347 -0.637173,0.0419 -0.586535,0.71077 0.22645,2.99123 2.019533,5.66489 5.863599,9.8595 10.687612,11.66224 1.852786,0.69239 3.148905,0.932 5.197213,0.9608 1.486817,0.0209 1.923778,-0.0616 2.048652,-0.38706 z"
       id="path14476" />
    <path
       style="fill:#284c34"
       d="m 75.273961,153.07552 c -1.164167,-0.18175 -2.375721,-0.41332 -2.692342,-0.51459 -0.406796,-0.13011 -0.664395,-0.0449 -0.8781,0.29049 -0.271432,0.42598 -0.28954,0.41361 -0.176699,-0.12069 0.102907,-0.48727 0.01017,-0.59531 -0.510963,-0.59531 -0.350178,0 -0.638511,0.14882 -0.640739,0.33072 -0.0025,0.20483 -0.07805,0.23001 -0.198438,0.0661 -0.106912,-0.14552 -1.027823,-0.30209 -2.046469,-0.34794 -4.472132,-0.20128 -7.96265,-1.74325 -11.134964,-4.91897 -1.176523,-1.17778 -2.557396,-2.86104 -3.068607,-3.74057 -0.987765,-1.69944 -2.425026,-5.25764 -2.682852,-6.6419 -0.14385,-0.77232 -0.09331,-0.8443 0.696869,-0.99254 1.186929,-0.22267 4.997991,0.29366 6.915287,0.93689 6.093969,2.04447 10.700087,6.84566 11.894015,12.39774 0.203405,0.94588 0.381782,1.55112 0.396393,1.34496 0.01461,-0.20615 0.104909,-0.29648 0.20066,-0.20073 0.09575,0.0958 0.338923,0.0373 0.540381,-0.1299 0.278281,-0.23095 0.443054,-0.22107 0.685802,0.0411 0.208829,0.22556 0.214886,0.28657 0.01749,0.17612 -0.193909,-0.10849 -0.34056,0.16105 -0.409661,0.75296 -0.102421,0.87731 -0.06218,0.92952 0.831196,1.07849 0.516355,0.0861 1.296015,0.25742 1.732578,0.3807 3.949112,1.1152 9.739553,0.19484 13.704217,-2.1782 2.939362,-1.75936 7.817796,-7.41599 6.984613,-8.09878 -0.173753,-0.1424 -1.149352,-0.4443 -2.167998,-0.6709 -1.797625,-0.39989 -1.809295,-0.40757 -0.396875,-0.26102 1.575384,0.16345 3.175,0.71568 3.175,1.09608 0,0.56162 -2.16754,3.51001 -3.855937,5.24503 -4.555038,4.68082 -9.94693,6.36228 -16.913853,5.2746 z"
       id="path14475" />
    <path
       style="fill:#284c34"
       d="m 69.585419,153.45833 c 0,-0.14552 0.126089,-0.26458 0.280198,-0.26458 0.154109,0 0.206614,0.11906 0.116677,0.26458 -0.08994,0.14552 -0.216026,0.26458 -0.280198,0.26458 -0.06417,0 -0.116677,-0.11906 -0.116677,-0.26458 z"
       id="path14474" />
    <path
       style="fill:#284c34"
       d="m 70.146649,156.63333 c -0.0045,-0.21828 0.155358,-0.75406 0.355256,-1.19062 0.467892,-1.02184 0.474758,-0.54655 0.0096,0.66145 -0.19614,0.50933 -0.360305,0.74745 -0.364812,0.52917 z"
       id="path14461" />
    <path
       style="fill:#284c34"
       d="m 68.040891,157.29479 c -0.0033,-0.35242 1.501941,-3.51473 1.511234,-3.175 0.004,0.14552 -0.333869,0.97896 -0.750778,1.85208 -0.416908,0.87313 -0.759113,1.46844 -0.760456,1.32292 z"
       id="path14458" />
    <path
       style="fill:#284c34"
       d="m 67.754224,158.06644 c 0.0127,-0.30822 0.07539,-0.37092 0.159853,-0.15985 0.07643,0.19099 0.06703,0.4192 -0.02089,0.50712 -0.08792,0.0879 -0.150452,-0.0684 -0.138963,-0.34727 z"
       id="path14454" />
    <path
       style="fill:#284c34"
       d="m 69.342079,158.48541 c 0.385712,-0.80989 0.507924,-0.95999 0.507924,-0.62383 0,0.14196 -0.185162,0.48923 -0.411472,0.7717 -0.387979,0.48427 -0.393485,0.47583 -0.09645,-0.14787 z"
       id="path14451" />
    <path
       style="fill:#183226"
       d="m 84.42581,88.172398 c -0.650714,-0.951228 -0.6906,-1.063797 -0.164063,-0.463021 0.700168,0.798888 1.300189,1.719791 1.120541,1.719791 -0.05321,0 -0.483627,-0.565546 -0.956478,-1.25677 z"
       id="path13770" />
    <path
       style="fill:#183226"
       d="m 79.639585,90.657105 c 0,-0.121114 0.260052,-0.595775 0.577892,-1.054801 0.811791,-1.172392 2.332525,-2.865004 2.332525,-2.596155 0,0.123386 -0.253274,0.451151 -0.562831,0.728367 -0.309557,0.277215 -0.9644,1.097751 -1.455208,1.823412 -0.490808,0.725662 -0.892378,1.220292 -0.892378,1.099177 z"
       id="path13768" />
    <path
       style="fill:#183226"
       d="M 86.138888,91.094225 C 85.995302,90.717141 86.025693,90.68675 86.287,90.946113 c 0.180821,0.179475 0.262115,0.39297 0.180653,0.474432 -0.08146,0.08146 -0.229406,-0.06538 -0.328765,-0.32632 z"
       id="path13765" />
    <path
       style="fill:#183226"
       d="m 78.845835,92.169669 c 0,-0.141961 0.185162,-0.489227 0.411471,-0.771702 0.387979,-0.484268 0.393486,-0.475826 0.09645,0.147868 -0.385713,0.809898 -0.507924,0.959998 -0.507924,0.623834 z"
       id="path13762" />
    <path
       style="fill:#183226"
       d="m 87.068806,94.037328 c 0.0127,-0.308225 0.07539,-0.370919 0.159853,-0.159853 0.07643,0.190997 0.06703,0.4192 -0.02089,0.507118 -0.08792,0.08792 -0.150453,-0.06835 -0.138965,-0.347265 z"
       id="path13754" />
    <path
       style="fill:#183226"
       d="m 78.093862,94.456251 c 0,-0.363802 0.06005,-0.51263 0.133452,-0.330729 0.0734,0.181901 0.0734,0.479558 0,0.661459 -0.0734,0.181901 -0.133452,0.03307 -0.133452,-0.33073 z"
       id="path13752" />
    <path
       style="fill:#183226"
       d="m 77.80839,95.624828 c 0.0127,-0.308225 0.07539,-0.370919 0.159853,-0.159853 0.07643,0.190996 0.06703,0.4192 -0.02089,0.507118 -0.08792,0.08792 -0.150453,-0.06835 -0.138965,-0.347265 z"
       id="path13749" />
    <path
       style="fill:#183226"
       d="m 87.391788,96.308335 c 0,-0.800365 0.0496,-1.127787 0.110223,-0.727604 0.06062,0.400182 0.06062,1.055026 0,1.455208 -0.06062,0.400182 -0.110223,0.07276 -0.110223,-0.727604 z"
       id="path13740" />
    <path
       style="fill:#183226"
       d="m 70.839829,97.47455 c -0.08619,-0.08619 -0.612045,-0.319085 -1.168576,-0.517553 -0.562376,-0.200553 -0.776807,-0.361085 -0.482709,-0.361376 0.547746,-5.41e-4 2.603238,1.004861 2.094618,1.02454 -0.157647,0.0061 -0.357147,-0.05942 -0.443333,-0.145611 z"
       id="path13739" />
    <path
       style="fill:#183226"
       d="m 71.966669,97.895835 c -0.238467,-0.154109 -0.271101,-0.258098 -0.08176,-0.260532 0.173313,-0.0022 0.388699,0.115011 0.478636,0.260532 0.203016,0.328486 0.111422,0.328486 -0.396876,0 z"
       id="path13738" />
    <path
       style="fill:#183226"
       d="m 67.784916,98.29271 c 0.0054,-0.436563 0.06469,-0.583125 0.131774,-0.325694 0.06708,0.257431 0.06267,0.614618 -0.0098,0.79375 -0.07248,0.179131 -0.127362,-0.03149 -0.12197,-0.468056 z"
       id="path13734" />
    <path
       style="fill:#183226"
       d="m 93.662501,100.43941 c 0,-0.0562 0.3509,-0.15377 0.779777,-0.21671 0.428877,-0.063 0.719507,-0.0169 0.645843,0.10226 -0.131105,0.21213 -1.42562,0.31605 -1.42562,0.11445 z"
       id="path13723" />
    <path
       style="fill:#183226"
       d="m 77.907767,99.627653 c -0.101208,-0.674903 -0.124483,-1.286628 -0.05172,-1.359389 0.07276,-0.07276 0.215099,0.419902 0.316307,1.094805 0.101208,0.674901 0.124483,1.286631 0.05172,1.359391 -0.07276,0.0728 -0.215098,-0.4199 -0.316307,-1.094807 z"
       id="path13720" />
    <path
       style="fill:#183226"
       d="m 67.79472,100.0125 c 0,-0.509322 0.05445,-0.717681 0.121,-0.46302 0.06655,0.254662 0.06655,0.67138 0,0.92604 -0.06655,0.25466 -0.121,0.0463 -0.121,-0.46302 z"
       id="path13719" />
    <path
       style="fill:#183226"
       d="m 92.207293,100.80625 c 0.291042,-0.12506 0.70776,-0.22739 0.926042,-0.22739 0.250158,0 0.201252,0.0841 -0.132292,0.22739 -0.291042,0.12507 -0.70776,0.22739 -0.926042,0.22739 -0.250158,0 -0.201252,-0.0841 0.132292,-0.22739 z"
       id="path13715" />
    <path
       style="fill:#183226"
       d="m 86.400807,100.67396 c 0.09918,-0.29104 0.343595,-1.064948 0.543153,-1.719792 l 0.362831,-1.190625 -0.152826,1.052955 c -0.08405,0.579125 -0.328472,1.353032 -0.543152,1.719792 -0.243074,0.41527 -0.3223,0.4672 -0.210006,0.13767 z"
       id="path13714" />
    <path
       style="fill:#183226"
       d="m 74.744794,99.948097 c -1.047514,-1.068928 -1.12898,-1.205824 -0.391325,-0.657593 0.994518,0.739136 2.237637,2.057266 1.910929,2.026236 -0.108178,-0.0103 -0.792,-0.62616 -1.519604,-1.368643 z"
       id="path13713" />
    <path
       style="fill:#183226"
       d="m 96.329223,102.23941 c 0.0127,-0.30822 0.07539,-0.37092 0.159852,-0.15985 0.07643,0.19099 0.06703,0.4192 -0.02089,0.50712 -0.08792,0.0879 -0.150453,-0.0683 -0.138964,-0.34727 z"
       id="path13705" />
    <path
       style="fill:#183226"
       d="m 67.784916,101.99688 c 0.0054,-0.43657 0.06469,-0.58313 0.131774,-0.3257 0.06708,0.25743 0.06267,0.61462 -0.0098,0.79375 -0.07248,0.17913 -0.127362,-0.0315 -0.12197,-0.46805 z"
       id="path13704" />
    <path
       style="fill:#183226"
       d="m 87.841668,102.79221 c 0,-0.17809 2.678177,-1.51264 2.79704,-1.39378 0.05422,0.0542 -0.552928,0.41812 -1.349225,0.80866 -0.796298,0.39054 -1.447815,0.65385 -1.447815,0.58512 z"
       id="path13703" />
    <path
       style="fill:#183226"
       d="m 96.064639,103.56237 c 0.0127,-0.30823 0.07539,-0.37092 0.159853,-0.15986 0.07643,0.191 0.06703,0.4192 -0.02089,0.50712 -0.08792,0.0879 -0.150453,-0.0683 -0.138965,-0.34726 z"
       id="path13693" />
    <path
       style="fill:#183226"
       d="m 86.783335,103.58438 c 0.341774,-0.36381 0.680939,-0.66146 0.753699,-0.66146 0.07276,0 -0.147341,0.29765 -0.489116,0.66146 -0.341774,0.3638 -0.680939,0.66145 -0.753699,0.66145 -0.07276,0 0.147342,-0.29765 0.489116,-0.66145 z"
       id="path13691" />
    <path
       style="fill:#183226"
       d="m 68.018807,103.82691 c 0.0127,-0.30822 0.07539,-0.37092 0.159853,-0.15985 0.07643,0.19099 0.06703,0.4192 -0.02089,0.50712 -0.08792,0.0879 -0.150453,-0.0684 -0.138965,-0.34727 z"
       id="path13690" />
    <path
       style="fill:#183226"
       d="m 79.639585,103.71667 c -0.31086,-0.43656 -0.505668,-0.79375 -0.432908,-0.79375 0.07276,0 0.386632,0.35719 0.697492,0.79375 0.31086,0.43656 0.505668,0.79375 0.432908,0.79375 -0.07276,0 -0.386632,-0.35719 -0.697492,-0.79375 z"
       id="path13687" />
    <path
       style="fill:#183226"
       d="m 77.840843,103.84315 c -0.316597,-0.65165 -0.520066,-1.18482 -0.452154,-1.18482 0.179236,0 1.248325,2.1491 1.128631,2.2688 -0.05547,0.0555 -0.359881,-0.43232 -0.676477,-1.08398 z"
       id="path13682" />
    <path
       style="fill:#183226"
       d="m 80.582638,105.11714 c -0.143585,-0.37708 -0.113195,-0.40747 0.148112,-0.14811 0.180821,0.17947 0.262115,0.39297 0.180653,0.47443 -0.08146,0.0815 -0.229406,-0.0654 -0.328765,-0.32632 z"
       id="path13680" />
    <path
       style="fill:#183226"
       d="m 82.285419,105.87027 c 0,-0.14291 0.790743,-1.13241 1.757207,-2.1989 2.296917,-2.53464 2.409198,-2.63746 1.684169,-1.5422 -0.337158,0.50932 -0.754235,1.0451 -0.92684,1.19062 -0.172604,0.14552 -0.808985,0.83737 -1.414181,1.53745 -0.605196,0.70007 -1.100355,1.15594 -1.100355,1.01303 z"
       id="path13677" />
    <path
       style="fill:#183226"
       d="m 95.291619,106.23021 c -7.48e-4,-0.14552 0.159118,-0.6813 0.355257,-1.19063 0.19614,-0.50932 0.360305,-0.74744 0.364812,-0.52916 0.0045,0.21828 -0.155358,0.75406 -0.355256,1.19062 -0.199899,0.43656 -0.364065,0.67469 -0.364813,0.52917 z"
       id="path13676" />
    <path
       style="fill:#183226"
       d="m 80.98339,106.20816 c 0.0127,-0.30822 0.07539,-0.37092 0.159853,-0.15985 0.07643,0.19099 0.06703,0.4192 -0.02089,0.50712 -0.08792,0.0879 -0.150452,-0.0683 -0.138963,-0.34727 z"
       id="path13673" />
    <path
       style="fill:#183226"
       d="m 78.866724,106.20816 c 0.01269,-0.30822 0.07539,-0.37092 0.159852,-0.15985 0.07643,0.19099 0.06703,0.4192 -0.02089,0.50712 -0.08792,0.0879 -0.150453,-0.0683 -0.138964,-0.34727 z"
       id="path13672" />
    <path
       style="fill:#183226"
       d="m 82.062612,106.89169 c 0,-0.3638 0.06005,-0.51263 0.133452,-0.33073 0.0734,0.1819 0.0734,0.47956 0,0.66146 -0.0734,0.1819 -0.133452,0.0331 -0.133452,-0.33073 z"
       id="path13663" />
    <path
       style="fill:#183226"
       d="m 79.131307,107.2665 c 0.0127,-0.30822 0.07539,-0.37092 0.159852,-0.15985 0.07643,0.191 0.06703,0.4192 -0.02089,0.50712 -0.08792,0.0879 -0.150453,-0.0683 -0.138964,-0.34727 z"
       id="path13660" />
    <path
       style="fill:#183226"
       d="m 69.175829,107.13166 c -0.232748,-0.45008 -0.376207,-0.86531 -0.318797,-0.92272 0.05741,-0.0574 0.302388,0.31085 0.544395,0.81834 0.544138,1.14107 0.355604,1.2283 -0.225598,0.10438 z"
       id="path13657" />
    <path
       style="fill:#183226"
       d="m 63.042018,108.82455 c 0.257431,-0.0671 0.614618,-0.0627 0.79375,0.01 0.179131,0.0725 -0.03149,0.12737 -0.468057,0.12197 -0.436562,-0.005 -0.583124,-0.0647 -0.325693,-0.13177 z"
       id="path13650" />
    <path
       style="fill:#183226"
       d="m 82.557053,109.12508 c -0.01239,-0.49217 1.843938,-3.39544 2.696799,-4.21777 0.753503,-0.72652 0.744078,-0.69797 -0.111276,0.33713 -0.513974,0.62198 -1.304393,1.81261 -1.756486,2.64583 -0.452093,0.83323 -0.82516,1.38889 -0.829037,1.23481 z"
       id="path13647" />
    <path
       style="fill:#183226"
       d="m 60.85417,109.06628 c 0,-0.34491 1.250711,-0.74752 1.511627,-0.48661 0.09024,0.0902 -0.07009,0.16407 -0.35628,0.16407 -0.286191,0 -0.663222,0.14288 -0.837847,0.3175 -0.241253,0.24125 -0.3175,0.24246 -0.3175,0.005 z"
       id="path13646" />
    <path
       style="fill:#183226"
       d="m 81.512557,109.11858 c 0.01269,-0.30823 0.07539,-0.37092 0.159852,-0.15986 0.07643,0.191 0.06703,0.4192 -0.02089,0.50712 -0.08792,0.0879 -0.150453,-0.0683 -0.138964,-0.34726 z"
       id="path13644" />
    <path
       style="fill:#183226"
       d="m 70.379169,109.00833 c -0.31086,-0.43656 -0.505668,-0.79375 -0.432908,-0.79375 0.07276,0 0.386632,0.35719 0.697491,0.79375 0.31086,0.43657 0.505669,0.79375 0.432909,0.79375 -0.07276,0 -0.386632,-0.35718 -0.697492,-0.79375 z"
       id="path13641" />
    <path
       style="fill:#183226"
       d="m 81.247973,110.17691 c 0.0127,-0.30822 0.07539,-0.37092 0.159853,-0.15985 0.07643,0.19099 0.06703,0.4192 -0.02089,0.50712 -0.08792,0.0879 -0.150453,-0.0683 -0.138965,-0.34727 z"
       id="path13636" />
    <path
       style="fill:#183226"
       d="m 80.18964,110.44149 c 0.0127,-0.30822 0.07539,-0.37092 0.159853,-0.15985 0.07643,0.191 0.06703,0.4192 -0.02089,0.50712 -0.08792,0.0879 -0.150452,-0.0683 -0.138963,-0.34727 z"
       id="path13629" />
    <path
       style="fill:#183226"
       d="m 67.931773,110.70908 c -0.989129,-0.53661 -0.928921,-0.76011 0.06615,-0.24554 0.436563,0.22576 0.79375,0.46694 0.79375,0.53596 0,0.17026 -0.02843,0.16066 -0.859896,-0.29042 z"
       id="path13627" />
    <path
       style="fill:#183226"
       d="m 80.98339,111.23524 c 0.0127,-0.30822 0.07539,-0.37092 0.159853,-0.15985 0.07643,0.191 0.06703,0.4192 -0.02089,0.50712 -0.08792,0.0879 -0.150452,-0.0683 -0.138963,-0.34727 z"
       id="path13623" />
    <path
       style="fill:#183226"
       d="m 79.925057,111.49986 c 0.0127,-0.30823 0.07539,-0.37092 0.159852,-0.15986 0.07643,0.191 0.06703,0.4192 -0.02089,0.50712 -0.08792,0.0879 -0.150453,-0.0683 -0.138964,-0.34726 z"
       id="path13619" />
    <path
       style="fill:#183226"
       d="m 72.34148,110.97362 -1.036269,-0.94516 1.124479,0.85715 c 1.027494,0.78322 1.278192,1.03317 1.03627,1.03317 -0.04852,0 -0.554531,-0.42532 -1.12448,-0.94516 z"
       id="path13618" />
    <path
       style="fill:#183226"
       d="m 61.198039,111.12503 c 0,-0.80036 0.0496,-1.12779 0.110223,-0.7276 0.06062,0.40018 0.06062,1.05502 0,1.4552 -0.06062,0.40019 -0.110223,0.0728 -0.110223,-0.7276 z"
       id="path13614" />
    <path
       style="fill:#183226"
       d="m 90.106192,112.30916 c 1.530346,-0.90783 2.522545,-1.80987 3.776258,-3.43312 0.337178,-0.43656 0.526224,-0.61515 0.420103,-0.39687 -0.524932,1.07973 -2.223647,2.82586 -3.639198,3.74077 -0.869446,0.56195 -1.704175,1.02173 -1.854954,1.02173 -0.15078,0 0.433226,-0.41963 1.297791,-0.93251 z"
       id="path13605" />
    <path
       style="fill:#183226"
       d="m 75.340106,112.95917 c -0.545703,-0.28809 -0.992187,-0.5829 -0.992187,-0.65514 0,-0.0722 0.446484,0.0927 0.992187,0.36647 0.545704,0.2738 1.170782,0.56447 1.389063,0.64594 0.352778,0.13168 0.352778,0.14916 0,0.15733 -0.218281,0.005 -0.843359,-0.22651 -1.389063,-0.5146 z"
       id="path13599" />
    <path
       style="fill:#183226"
       d="m 61.425113,113.2413 c 0,-0.3638 0.06005,-0.51263 0.133452,-0.33073 0.0734,0.1819 0.0734,0.47956 0,0.66146 -0.0734,0.1819 -0.133452,0.0331 -0.133452,-0.33073 z"
       id="path13594" />
    <path
       style="fill:#183226"
       d="m 93.865677,113.84368 c 0.475549,-0.0589 1.189924,-0.0577 1.5875,0.003 0.397576,0.0604 0.0085,0.10855 -0.864634,0.10706 -0.873125,-10e-4 -1.198415,-0.0509 -0.722866,-0.10976 z"
       id="path13585" />
    <path
       style="fill:#183226"
       d="m 91.760809,114.11926 c 0.190996,-0.0764 0.419199,-0.067 0.507118,0.0209 0.08792,0.0879 -0.06835,0.15045 -0.347266,0.13896 -0.308224,-0.0127 -0.370919,-0.0754 -0.159852,-0.15985 z"
       id="path13580" />
    <path
       style="fill:#183226"
       d="m 84.881642,114.11926 c 0.190996,-0.0764 0.4192,-0.067 0.507118,0.0209 0.08792,0.0879 -0.06835,0.15045 -0.347265,0.13896 -0.308225,-0.0127 -0.370919,-0.0754 -0.159853,-0.15985 z"
       id="path13579" />
    <path
       style="fill:#183226"
       d="m 90.421356,114.38936 c 0.181901,-0.0734 0.479557,-0.0734 0.661458,0 0.181901,0.0734 0.03307,0.13345 -0.330729,0.13345 -0.363802,0 -0.51263,-0.0601 -0.330729,-0.13345 z"
       id="path13577" />
    <path
       style="fill:#183226"
       d="m 71.824431,113.4401 -1.31297,-1.38906 1.389062,1.31297 c 1.290742,1.22004 1.510401,1.46516 1.312971,1.46516 -0.04185,0 -0.666929,-0.62508 -1.389063,-1.38907 z"
       id="path13575" />
    <path
       style="fill:#183226"
       d="m 88.238543,115.07927 c 0.582084,-0.27544 1.236927,-0.49836 1.455208,-0.49537 0.218282,0.003 -0.198437,0.23789 -0.926041,0.52201 -1.656038,0.64665 -1.923538,0.63319 -0.529167,-0.0266 z"
       id="path13570" />
    <path
       style="fill:#183226"
       d="m 80.168752,115.35835 c 0,-0.29104 0.107916,-0.52916 0.239813,-0.52916 0.131897,0 0.177542,0.23812 0.101433,0.52916 -0.07611,0.29105 -0.184025,0.52917 -0.239813,0.52917 -0.05579,0 -0.101433,-0.23812 -0.101433,-0.52917 z"
       id="path13565" />
    <path
       style="fill:#183226"
       d="m 74.25337,116.54269 c -0.367927,-0.65829 -0.554998,-1.12646 -0.415715,-1.04038 0.277713,0.17163 1.385395,2.23727 1.19972,2.23727 -0.06328,0 -0.416079,-0.5386 -0.784005,-1.19689 z"
       id="path13555" />
    <path
       style="fill:#183226"
       d="m 97.648311,116.81354 c 0.31577,-0.7276 0.686806,-1.44198 0.824524,-1.5875 0.137718,-0.14552 -0.0029,0.33073 -0.312417,1.05834 -0.309548,0.7276 -0.680584,1.44197 -0.824524,1.5875 -0.143941,0.14552 -0.0034,-0.33073 0.312417,-1.05834 z"
       id="path13554" />
    <path
       style="fill:#183226"
       d="m 62.471744,116.9571 c -0.314151,-0.73026 -0.632183,-1.71615 -0.706739,-2.19086 -0.08081,-0.51456 0.06286,-0.27546 0.355767,0.59209 0.270227,0.80037 0.641217,1.7333 0.824422,2.07319 0.183204,0.33988 0.280142,0.67093 0.215416,0.73565 -0.06472,0.0647 -0.374715,-0.4798 -0.688866,-1.21007 z"
       id="path13552" />
    <path
       style="fill:#183226"
       d="m 75.306647,118.6554 c -0.255317,-0.66535 -0.179999,-0.83703 0.131904,-0.30066 0.154434,0.26558 0.225054,0.5386 0.156932,0.60672 -0.06812,0.0681 -0.198098,-0.0696 -0.288836,-0.30606 z"
       id="path13548" />
    <path
       style="fill:#183226"
       d="m 78.340552,119.14541 c -0.03295,-0.43318 0.976161,-4.61073 1.15757,-4.79214 0.186764,-0.18676 -0.08573,1.18134 -0.674485,3.38631 -0.252561,0.94589 -0.46995,1.57851 -0.483085,1.40583 z"
       id="path13547" />
    <path
       style="fill:#183226"
       d="m 75.835813,119.97831 c -0.255317,-0.66534 -0.179998,-0.83702 0.131904,-0.30065 0.154435,0.26557 0.225054,0.5386 0.156933,0.60672 -0.06812,0.0681 -0.198099,-0.0696 -0.288837,-0.30607 z"
       id="path13542" />
    <path
       style="fill:#183226"
       d="m 79.134639,121.17917 c -0.02908,-0.48512 0.755946,-4.30795 0.917897,-4.4699 0.222162,-0.22216 0.0968,0.64579 -0.397204,2.75011 -0.273298,1.16416 -0.50761,1.93807 -0.520693,1.71979 z"
       id="path13533" />
    <path
       style="fill:#183226"
       d="m 76.22089,121.02483 c 0.0127,-0.30823 0.07539,-0.37092 0.159853,-0.15986 0.07643,0.191 0.06703,0.4192 -0.02089,0.50712 -0.08792,0.0879 -0.150453,-0.0683 -0.138965,-0.34726 z"
       id="path13532" />
    <path
       style="fill:#183226"
       d="m 77.84518,121.57604 c 0.0027,-0.29104 0.09582,-0.88635 0.206905,-1.32291 0.181422,-0.71298 0.202477,-0.72644 0.206906,-0.1323 0.0027,0.36381 -0.0904,0.95912 -0.206906,1.32292 -0.165994,0.51832 -0.210769,0.54695 -0.206905,0.13229 z"
       id="path13528" />
    <path
       style="fill:#183226"
       d="m 76.485474,122.08314 c 0.0127,-0.30822 0.07539,-0.37092 0.159852,-0.15985 0.07643,0.19099 0.06703,0.4192 -0.02089,0.50712 -0.08792,0.0879 -0.150453,-0.0684 -0.138964,-0.34727 z"
       id="path13522" />
    <path
       style="fill:#183226"
       d="m 57.845636,122.55746 c -0.07114,-0.11511 0.308785,-0.16601 0.844281,-0.11312 1.46425,0.14464 1.638583,0.27807 0.39393,0.30152 -0.609875,0.0115 -1.16707,-0.0733 -1.238211,-0.1884 z"
       id="path13516" />
    <path
       style="fill:#183226"
       d="m 60.539977,122.85059 c 0.190996,-0.0764 0.419199,-0.067 0.507118,0.0209 0.08792,0.0879 -0.06835,0.15045 -0.347266,0.13896 -0.308224,-0.0127 -0.370919,-0.0754 -0.159852,-0.15985 z"
       id="path13515" />
    <path
       style="fill:#183226"
       d="m 65.515811,121.69646 c -0.814426,-0.87968 -1.60773,-1.86194 -1.762897,-2.18281 -0.169894,-0.35132 -0.04189,-0.26765 0.321769,0.21035 0.332141,0.43656 1.189422,1.41883 1.905069,2.18281 0.715647,0.76399 1.237199,1.38906 1.159005,1.38906 -0.07819,0 -0.808521,-0.71973 -1.622946,-1.59941 z"
       id="path13511" />
    <path
       style="fill:#183226"
       d="m 61.780211,123.29583 c -0.333544,-0.14333 -0.382449,-0.22739 -0.132291,-0.22739 0.218281,0 0.635,0.10233 0.926041,0.22739 0.333544,0.14333 0.38245,0.22739 0.132292,0.22739 -0.218281,0 -0.635,-0.10232 -0.926042,-0.22739 z"
       id="path13507" />
    <path
       style="fill:#183226"
       d="m 79.713025,122.57934 c 1.042759,-1.87425 4.677754,-5.618 6.210414,-6.39622 1.478501,-0.75071 1.442019,-0.53199 -0.05788,0.34701 -1.905313,1.11658 -4.314005,3.52968 -5.476583,5.48658 -1.328971,2.23699 -1.847736,2.66878 -0.675953,0.56263 z"
       id="path13504" />
    <path
       style="fill:#183226"
       d="m 55.339696,123.56042 c 0,-0.36381 0.06005,-0.51263 0.133452,-0.33073 0.0734,0.1819 0.0734,0.47955 0,0.66146 -0.0734,0.1819 -0.133452,0.0331 -0.133452,-0.33073 z"
       id="path13503" />
    <path
       style="fill:#183226"
       d="m 77.311083,123.95729 c 0,-0.29104 0.09533,-0.82682 0.211836,-1.19062 0.167739,-0.52377 0.211836,-0.55131 0.211836,-0.1323 0,0.29105 -0.09533,0.82683 -0.211836,1.19063 -0.167739,0.52376 -0.211836,0.5513 -0.211836,0.13229 z"
       id="path13499" />
    <path
       style="fill:#183226"
       d="m 92.396538,123.81818 c 0.534198,-0.44033 1.591724,-1.48213 2.350057,-2.31511 0.758333,-0.83297 1.135014,-1.15731 0.837069,-0.72075 -0.623908,0.91418 -3.629764,3.83646 -3.946179,3.83646 -0.11672,0 0.224854,-0.36027 0.759053,-0.8006 z"
       id="path13495" />
    <path
       style="fill:#183226"
       d="m 55.583391,124.72899 c 0.0127,-0.30822 0.07539,-0.37092 0.159853,-0.15985 0.07643,0.191 0.06703,0.4192 -0.02089,0.50712 -0.08792,0.0879 -0.150453,-0.0684 -0.138965,-0.34727 z"
       id="path13492" />
    <path
       style="fill:#183226"
       d="m 90.222918,125.29883 c 0,-0.0728 0.238125,-0.25974 0.529167,-0.4155 0.291041,-0.15576 0.529166,-0.22367 0.529166,-0.15091 0,0.0728 -0.238125,0.25974 -0.529166,0.4155 -0.291042,0.15576 -0.529167,0.22367 -0.529167,0.15091 z"
       id="path13490" />
    <path
       style="fill:#183226"
       d="m 69.914975,125.01204 c -1.022014,-0.51129 -2.020276,-1.13172 -2.218361,-1.37872 -0.239425,-0.29856 -0.07636,-0.25015 0.486453,0.14442 0.465634,0.32645 1.50743,0.89607 2.315104,1.26583 0.807674,0.36977 1.468498,0.72311 1.468498,0.7852 0,0.19467 -0.146946,0.13618 -2.051694,-0.81673 z"
       id="path13483" />
    <path
       style="fill:#183226"
       d="m 72.446226,126.0259 c 0.190996,-0.0764 0.4192,-0.067 0.507118,0.0209 0.08792,0.0879 -0.06835,0.15045 -0.347265,0.13896 -0.308225,-0.0127 -0.370919,-0.0754 -0.159853,-0.15985 z"
       id="path13477" />
    <path
       style="fill:#183226"
       d="m 55.847975,125.78772 c 0.0127,-0.30823 0.07539,-0.37092 0.159852,-0.15986 0.07643,0.191 0.06703,0.4192 -0.02089,0.50712 -0.08792,0.0879 -0.150453,-0.0684 -0.138964,-0.34726 z"
       id="path13476" />
    <path
       style="fill:#183226"
       d="m 73.50456,126.2896 c 0.190996,-0.0764 0.419199,-0.067 0.507118,0.0209 0.08792,0.0879 -0.06835,0.15045 -0.347266,0.13896 -0.308224,-0.0127 -0.370919,-0.0754 -0.159852,-0.15985 z"
       id="path13472" />
    <path
       style="fill:#183226"
       d="m 86.717189,126.5599 c 0.181901,-0.0734 0.479557,-0.0734 0.661458,0 0.181901,0.0734 0.03307,0.13345 -0.330729,0.13345 -0.363802,0 -0.51263,-0.0601 -0.330729,-0.13345 z"
       id="path13468" />
    <path
       style="fill:#183226"
       d="m 74.678648,126.5529 c 0.254662,-0.0666 0.67138,-0.0666 0.926042,0 0.254661,0.0665 0.0463,0.121 -0.463021,0.121 -0.509323,0 -0.717682,-0.0545 -0.463021,-0.121 z"
       id="path13467" />
    <path
       style="fill:#183226"
       d="m 67.318425,126.0646 c -0.446482,-0.35522 -1.458513,-1.00231 -2.248958,-1.43799 -0.790445,-0.43569 -1.311106,-0.79431 -1.157024,-0.79695 0.387491,-0.007 3.30841,1.7638 3.945835,2.39165 0.71437,0.70364 0.442279,0.62465 -0.539853,-0.15671 z"
       id="path13466" />
    <path
       style="fill:#183226"
       d="m 85.675392,126.81926 c 0.190996,-0.0764 0.4192,-0.067 0.507118,0.0209 0.08792,0.0879 -0.06835,0.15045 -0.347265,0.13896 -0.308225,-0.0127 -0.370919,-0.0754 -0.159853,-0.15985 z"
       id="path13461" />
    <path
       style="fill:#183226"
       d="m 83.409898,127.0822 c 0.254661,-0.0666 0.67138,-0.0666 0.926041,0 0.254662,0.0666 0.0463,0.121 -0.463021,0.121 -0.509322,0 -0.717682,-0.0544 -0.46302,-0.121 z"
       id="path13456" />
    <path
       style="fill:#183226"
       d="m 93.469099,127.61001 c 0.257431,-0.0671 0.614619,-0.0627 0.79375,0.01 0.179132,0.0725 -0.03149,0.12736 -0.468056,0.12197 -0.436563,-0.005 -0.583125,-0.0647 -0.325694,-0.13177 z"
       id="path13449" />
    <path
       style="fill:#183226"
       d="m 90.437892,127.61301 c 0.190996,-0.0764 0.419199,-0.067 0.507118,0.0209 0.08792,0.0879 -0.06835,0.15045 -0.347266,0.13896 -0.308224,-0.0127 -0.370919,-0.0754 -0.159852,-0.15985 z"
       id="path13448" />
    <path
       style="fill:#183226"
       d="m 95.183855,127.87139 c 0.327422,-0.0631 0.863203,-0.0631 1.190625,0 0.327422,0.0631 0.05953,0.11466 -0.595312,0.11466 -0.654844,0 -0.922734,-0.0516 -0.595313,-0.11466 z"
       id="path13445" />
    <path
       style="fill:#183226"
       d="m 89.098439,127.88289 c 0.181901,-0.0734 0.479557,-0.0734 0.661458,0 0.181901,0.0734 0.03307,0.13346 -0.330729,0.13346 -0.363802,0 -0.51263,-0.0601 -0.330729,-0.13346 z"
       id="path13444" />
    <path
       style="fill:#183226"
       d="m 69.036227,127.33052 -0.641433,-0.72761 0.727604,0.64144 c 0.680056,0.59951 0.848939,0.81377 0.641433,0.81377 -0.04739,0 -0.374815,-0.32742 -0.727604,-0.7276 z"
       id="path13443" />
    <path
       style="fill:#183226"
       d="m 88.056642,128.14197 c 0.190996,-0.0764 0.419199,-0.067 0.507118,0.0209 0.08792,0.0879 -0.06835,0.15046 -0.347265,0.13897 -0.308225,-0.0127 -0.37092,-0.0754 -0.159853,-0.15985 z"
       id="path13442" />
    <path
       style="fill:#183226"
       d="m 76.485474,127.90378 c 0.0127,-0.30822 0.07539,-0.37092 0.159852,-0.15985 0.07643,0.191 0.06703,0.4192 -0.02089,0.50712 -0.08792,0.0879 -0.150453,-0.0684 -0.138964,-0.34727 z"
       id="path13441" />
    <path
       style="fill:#183226"
       d="m 56.385651,127.49956 c -0.163002,-0.46759 -0.250065,-0.89646 -0.193474,-0.95306 0.05659,-0.0566 0.236259,0.27968 0.399261,0.74727 0.163003,0.46759 0.250066,0.89646 0.193474,0.95305 -0.05659,0.0566 -0.236259,-0.27967 -0.399261,-0.74726 z"
       id="path13440" />
    <path
       style="fill:#183226"
       d="m 85.725002,128.85208 c 0.218281,-0.14106 0.515937,-0.25648 0.661458,-0.25648 0.145521,0 0.08599,0.11542 -0.132292,0.25648 -0.218281,0.14107 -0.515937,0.25648 -0.661458,0.25648 -0.145521,0 -0.08599,-0.11541 0.132292,-0.25648 z"
       id="path13429" />
    <path
       style="fill:#183226"
       d="m 77.564695,128.5875 c 0,-0.3638 0.06005,-0.51263 0.133452,-0.33073 0.0734,0.1819 0.0734,0.47956 0,0.66146 -0.0734,0.1819 -0.133452,0.0331 -0.133452,-0.33073 z"
       id="path13428" />
    <path
       style="fill:#183226"
       d="m 70.857296,129.4474 c -0.466168,-0.54282 -0.815735,-1.12448 -0.675791,-1.12448 0.05398,0 0.36223,0.35718 0.684995,0.79375 0.637733,0.86258 0.631763,1.07709 -0.0092,0.33073 z"
       id="path13425" />
    <path
       style="fill:#183226"
       d="m 82.285419,130.57346 c 0,-0.1781 2.678176,-1.51265 2.797039,-1.39378 0.05422,0.0542 -0.552927,0.41812 -1.349225,0.80866 -0.796298,0.39054 -1.447814,0.65384 -1.447814,0.58512 z"
       id="path13418" />
    <path
       style="fill:#183226"
       d="m 75.977195,130.175 c 0,-0.3638 0.06005,-0.51263 0.133452,-0.33073 0.0734,0.1819 0.0734,0.47956 0,0.66146 -0.0734,0.1819 -0.133452,0.0331 -0.133452,-0.33073 z"
       id="path13417" />
    <path
       style="fill:#183226"
       d="m 97.021493,130.04603 c 0.242008,-0.5075 0.486986,-0.87575 0.544396,-0.81834 0.121036,0.12104 -0.682149,1.74106 -0.863193,1.74106 -0.06667,0 0.07679,-0.41522 0.318797,-0.92272 z"
       id="path13414" />
    <path
       style="fill:#183226"
       d="m 80.697919,131.66995 c 0,-0.0611 0.312315,-0.31581 0.694034,-0.56592 0.381719,-0.25012 0.613213,-0.32398 0.514431,-0.16415 -0.188768,0.30544 -1.208465,0.92146 -1.208465,0.73007 z"
       id="path13412" />
    <path
       style="fill:#183226"
       d="m 72.115972,131.31089 c -0.143586,-0.37708 -0.113195,-0.40748 0.148112,-0.14811 0.180821,0.17947 0.262115,0.39297 0.180653,0.47443 -0.08146,0.0815 -0.229406,-0.0654 -0.328765,-0.32632 z"
       id="path13411" />
    <path
       style="fill:#183226"
       d="m 79.56609,132.54292 c 0.32338,-0.3403 0.63914,-0.56581 0.701691,-0.50114 0.06255,0.0647 -0.202033,0.3431 -0.587963,0.61873 l -0.701691,0.50113 z"
       id="path13407" />
    <path
       style="fill:#183226"
       d="m 76.494511,133.35 c -0.0098,-0.21828 0.206818,-1.23031 0.481401,-2.24896 0.274582,-1.01864 0.507269,-1.67349 0.517081,-1.45521 0.0098,0.21828 -0.206818,1.23032 -0.4814,2.24896 -0.274583,1.01865 -0.50727,1.67349 -0.517082,1.45521 z"
       id="path13403" />
    <path
       style="fill:#183226"
       d="m 75.319495,133.21771 c 0.256651,-1.60528 0.638083,-2.62725 0.444378,-1.19063 -0.0883,0.65485 -0.262472,1.42875 -0.38706,1.71979 -0.146015,0.3411 -0.166386,0.15303 -0.05732,-0.52916 z"
       id="path13398" />
    <path
       style="fill:#183226"
       d="m 77.522919,134.8376 c 0,-0.0549 0.208359,-0.2633 0.463021,-0.46302 0.419643,-0.3291 0.429002,-0.31975 0.09989,0.0999 -0.345643,0.44073 -0.562915,0.58089 -0.562915,0.36312 z"
       id="path13392" />
    <path
       style="fill:#183226"
       d="m 73.454564,134.5304 c -0.255318,-0.66535 -0.179999,-0.83703 0.131903,-0.30066 0.154435,0.26558 0.225055,0.5386 0.156933,0.60672 -0.06812,0.0681 -0.198099,-0.0696 -0.288836,-0.30606 z"
       id="path13391" />
    <path
       style="fill:#183226"
       d="m 60.139734,134.00627 c -1.127556,-1.34116 -2.993483,-4.3059 -2.98268,-4.73913 0.0039,-0.15552 0.368123,0.38252 0.809433,1.19566 0.441311,0.81313 1.396044,2.21211 2.121628,3.10885 1.516993,1.87483 1.558868,2.2274 0.05162,0.43462 z"
       id="path13390" />
    <path
       style="fill:#183226"
       d="m 74.657472,135.86353 c -0.0043,-0.29104 0.09455,-0.76729 0.219614,-1.05833 0.289721,-0.67422 0.289721,0.0214 0,0.92604 -0.170294,0.53174 -0.213362,0.55768 -0.219614,0.13229 z"
       id="path13377" />
    <path
       style="fill:#183226"
       d="m 54.438024,136.07368 c 0.327422,-0.0631 0.863203,-0.0631 1.190625,0 0.327422,0.0631 0.05953,0.11466 -0.595312,0.11466 -0.654844,0 -0.922735,-0.0516 -0.595313,-0.11466 z"
       id="path13376" />
    <path
       style="fill:#183226"
       d="m 56.88542,136.525 c -0.531742,-0.17029 -0.557685,-0.21336 -0.132292,-0.21961 0.291042,-0.004 0.767292,0.0945 1.058333,0.21961 0.674218,0.28972 -0.02139,0.28972 -0.926041,0 z"
       id="path13370" />
    <path
       style="fill:#183226"
       d="m 93.156522,135.35656 c 0.958638,-1.03085 2.075788,-2.38028 2.482555,-2.99875 0.864289,-1.31409 1.17859,-1.50044 0.485778,-0.28801 -0.262888,0.46006 -1.430479,1.8095 -2.594645,2.99875 -1.577019,1.61099 -1.672291,1.68442 -0.373688,0.28801 z"
       id="path13361" />
    <path
       style="fill:#183226"
       d="m 62.876592,136.38059 c -0.67577,-0.51599 -1.228672,-1.00225 -1.228672,-1.08057 0,-0.12009 1.671708,1.08421 2.500312,1.80123 0.705205,0.61023 -0.201825,0.0962 -1.27164,-0.72066 z"
       id="path13360" />
    <path
       style="fill:#183226"
       d="m 64.692501,137.58636 c -0.09269,-0.14998 0.01351,-0.19434 0.248968,-0.10398 0.458369,0.17589 0.542234,0.36554 0.161649,0.36554 -0.136933,0 -0.321711,-0.1177 -0.410617,-0.26156 z"
       id="path13357" />
    <path
       style="fill:#183226"
       d="m 66.145836,138.24475 c -0.363802,-0.20797 -0.542396,-0.37812 -0.396875,-0.37812 0.145521,0 0.56224,0.17015 0.926042,0.37812 0.363802,0.20797 0.542395,0.37812 0.396875,0.37812 -0.145521,0 -0.56224,-0.17015 -0.926042,-0.37812 z"
       id="path13354" />
    <path
       style="fill:#183226"
       d="m 88.370835,138.80226 c 0,-0.0572 0.184777,-0.17489 0.410617,-0.26155 0.235459,-0.0904 0.341662,-0.046 0.248968,0.10399 -0.155379,0.2514 -0.659585,0.37185 -0.659585,0.15756 z"
       id="path13350" />
    <path
       style="fill:#183226"
       d="m 61.383336,138.1125 c -0.800364,-0.42283 -1.361953,-0.7744 -1.247975,-0.78127 0.281186,-0.0169 2.835475,1.28673 2.835475,1.44718 0,0.17676 0.0367,0.19215 -1.5875,-0.66591 z"
       id="path13349" />
    <path
       style="fill:#183226"
       d="m 68.477477,138.99013 c 0.190996,-0.0764 0.419199,-0.067 0.507118,0.0209 0.08792,0.0879 -0.06835,0.15045 -0.347266,0.13896 -0.308225,-0.0127 -0.370919,-0.0754 -0.159852,-0.15985 z"
       id="path13347" />
    <path
       style="fill:#183226"
       d="m 51.617807,138.08849 c -0.178923,-0.59719 -0.276606,-1.13451 -0.217075,-1.19404 0.05953,-0.0595 0.25463,0.38037 0.433552,0.97756 0.178922,0.59719 0.276605,1.1345 0.217074,1.19404 -0.05953,0.0595 -0.254629,-0.38037 -0.433551,-0.97756 z"
       id="path13346" />
    <path
       style="fill:#183226"
       d="m 69.519273,139.26108 c 0.181901,-0.0734 0.479558,-0.0734 0.661459,0 0.181901,0.0734 0.03307,0.13345 -0.330729,0.13345 -0.363803,0 -0.512631,-0.0601 -0.33073,-0.13345 z"
       id="path13341" />
    <path
       style="fill:#183226"
       d="m 71.239065,139.51726 c 0.254661,-0.0666 0.67138,-0.0666 0.926042,0 0.254661,0.0666 0.0463,0.121 -0.463021,0.121 -0.509323,0 -0.717682,-0.0545 -0.463021,-0.121 z"
       id="path13336" />
    <path
       style="fill:#183226"
       d="m 83.630384,140.13197 c 0.06063,-0.0534 0.586493,-0.16971 1.168576,-0.25834 0.737605,-0.11231 0.897969,-0.0885 0.529167,0.0786 -0.507923,0.23012 -1.925068,0.38016 -1.697743,0.17974 z"
       id="path13328" />
    <path
       style="fill:#183226"
       d="m 63.896878,139.55241 c -0.493246,-0.41892 -0.585176,-0.57414 -0.242823,-0.41001 0.491792,0.23577 1.383814,1.08877 1.135115,1.08545 -0.0542,-7.2e-4 -0.45573,-0.30467 -0.892292,-0.67544 z"
       id="path13327" />
    <path
       style="fill:#183226"
       d="m 82.764976,140.31301 c 0.190996,-0.0764 0.419199,-0.067 0.507118,0.0209 0.08792,0.0879 -0.06835,0.15045 -0.347266,0.13896 -0.308224,-0.0127 -0.370919,-0.0754 -0.159852,-0.15985 z"
       id="path13326" />
    <path
       style="fill:#183226"
       d="m 76.679559,140.31301 c 0.190997,-0.0764 0.4192,-0.067 0.507118,0.0209 0.08792,0.0879 -0.06835,0.15045 -0.347265,0.13896 -0.308225,-0.0127 -0.370919,-0.0754 -0.159853,-0.15985 z"
       id="path13325" />
    <path
       style="fill:#183226"
       d="m 79.57344,140.56645 c 0.472942,-0.0587 1.246848,-0.0587 1.719791,0 0.472943,0.0587 0.08599,0.10672 -0.859896,0.10672 -0.945885,0 -1.332838,-0.048 -0.859895,-0.10672 z"
       id="path13323" />
    <path
       style="fill:#183226"
       d="m 73.575057,140.33893 c 0.0127,-0.30823 0.07539,-0.37092 0.159853,-0.15985 0.07643,0.19099 0.06703,0.4192 -0.02089,0.50711 -0.08792,0.0879 -0.150452,-0.0683 -0.138963,-0.34726 z"
       id="path13322" />
    <path
       style="fill:#183226"
       d="m 88.574011,141.09626 c 0.475549,-0.0589 1.189924,-0.0577 1.5875,0.003 0.397576,0.0604 0.0085,0.10855 -0.864634,0.10706 -0.873125,-0.001 -1.198415,-0.0509 -0.722866,-0.10976 z"
       id="path13312" />
    <path
       style="fill:#183226"
       d="m 92.008856,141.37685 c 0.181901,-0.0734 0.479557,-0.0734 0.661458,0 0.181901,0.0734 0.03307,0.13346 -0.330729,0.13346 -0.363802,0 -0.512631,-0.0601 -0.330729,-0.13346 z"
       id="path13308" />
    <path
       style="fill:#183226"
       d="m 85.923439,141.37685 c 0.181901,-0.0734 0.479557,-0.0734 0.661458,0 0.181902,0.0734 0.03307,0.13346 -0.330729,0.13346 -0.363802,0 -0.51263,-0.0601 -0.330729,-0.13346 z"
       id="path13307" />
    <path
       style="fill:#183226"
       d="m 93.348309,141.63544 c 0.190996,-0.0764 0.419199,-0.067 0.507118,0.0209 0.08792,0.0879 -0.06835,0.15046 -0.347266,0.13897 -0.308224,-0.0127 -0.370919,-0.0754 -0.159852,-0.15985 z"
       id="path13305" />
    <path
       style="fill:#183226"
       d="m 84.600523,141.64144 c 0.181901,-0.0734 0.479557,-0.0734 0.661458,0 0.181901,0.0734 0.03307,0.13345 -0.330729,0.13345 -0.363802,0 -0.51263,-0.06 -0.330729,-0.13345 z"
       id="path13304" />
    <path
       style="fill:#183226"
       d="m 52.541844,140.73628 c -0.242587,-0.60628 -0.391458,-1.15194 -0.330824,-1.21257 0.06063,-0.0606 0.308723,0.3858 0.55131,0.99209 0.242587,0.60628 0.391458,1.15194 0.330824,1.21258 -0.06063,0.0606 -0.308723,-0.38581 -0.55131,-0.9921 z"
       id="path13303" />
    <path
       style="fill:#183226"
       d="m 83.558726,141.90054 c 0.190996,-0.0764 0.419199,-0.067 0.507118,0.0209 0.08792,0.0879 -0.06835,0.15045 -0.347266,0.13896 -0.308224,-0.0127 -0.370919,-0.0754 -0.159852,-0.15985 z"
       id="path13294" />
    <path
       style="fill:#183226"
       d="m 81.227085,142.76509 c 0.363802,-0.19432 0.959115,-0.42741 1.322917,-0.51798 0.363802,-0.0906 0.185208,0.0644 -0.396875,0.34427 -1.197351,0.57581 -1.939481,0.71502 -0.926042,0.17371 z"
       id="path13287" />
    <path
       style="fill:#183226"
       d="m 74.102185,143.12146 c -0.03114,-0.68558 0.76657,-3.1205 1.087239,-3.31868 0.200825,-0.12412 0.223976,-0.0638 0.07071,0.18418 -0.125335,0.20279 -0.432905,1.08439 -0.68349,1.95911 -0.250584,0.87471 -0.46409,1.40364 -0.474457,1.17539 z"
       id="path13286" />
    <path
       style="fill:#183226"
       d="m 95.527305,143.17208 c 0.30474,-0.62535 0.03474,-1.07531 -0.65213,-1.08678 -0.133394,-0.002 -0.173357,-0.0732 -0.08881,-0.15778 0.18833,-0.18833 1.257383,0.3572 1.257383,0.64163 0,0.11259 -0.185162,0.43583 -0.411471,0.7183 -0.390889,0.4879 -0.39614,0.48213 -0.104975,-0.11537 z"
       id="path13281" />
    <path
       style="fill:#183226"
       d="m 73.83964,144.04358 c 0.0127,-0.30823 0.07539,-0.37092 0.159853,-0.15986 0.07643,0.191 0.06703,0.4192 -0.02089,0.50712 -0.08792,0.0879 -0.150453,-0.0684 -0.138965,-0.34726 z"
       id="path13278" />
    <path
       style="fill:#183226"
       d="m 77.306731,145.10671 c 0.244899,-0.28155 0.840211,-0.73719 1.322917,-1.01253 1.035742,-0.59079 0.762873,-0.29767 -0.709854,0.76254 -0.615568,0.44315 -0.87205,0.54773 -0.613063,0.24999 z"
       id="path13270" />
    <path
       style="fill:#183226"
       d="m 72.231252,145.38452 c 0,-0.46581 1.127518,-4.3806 1.23168,-4.27644 0.05992,0.0599 -0.146635,1.04754 -0.45902,2.19471 -0.533517,1.95923 -0.77266,2.60354 -0.77266,2.08173 z"
       id="path13269" />
    <path
       style="fill:#183226"
       d="m 67.94643,143.66875 c -0.826815,-1.16417 -1.450883,-2.11667 -1.386817,-2.11667 0.1389,0 2.434178,3.09308 2.793492,3.76446 0.500196,0.93463 0.06708,0.42727 -1.406675,-1.64779 z"
       id="path13266" />
    <path
       style="fill:#183226"
       d="m 93.39501,146.05372 c 0.459419,-0.58006 0.97349,-1.14006 1.142379,-1.24444 0.16889,-0.10438 -0.151805,0.37022 -0.712655,1.05466 -0.56085,0.68444 -1.074921,1.24444 -1.142379,1.24444 -0.06746,0 0.253236,-0.4746 0.712655,-1.05466 z"
       id="path13259" />
    <path
       style="fill:#183226"
       d="m 69.734722,146.65677 c -0.143586,-0.37708 -0.113195,-0.40747 0.148112,-0.14811 0.180821,0.17948 0.262115,0.39297 0.180653,0.47443 -0.08146,0.0815 -0.229406,-0.0654 -0.328765,-0.32632 z"
       id="path13258" />
    <path
       style="fill:#183226"
       d="m 73.062195,147.10838 c 0,-0.21828 0.102326,-0.635 0.227391,-0.92604 0.143328,-0.33354 0.22739,-0.38245 0.22739,-0.13229 0,0.21828 -0.102325,0.635 -0.22739,0.92604 -0.143329,0.33354 -0.227391,0.38245 -0.227391,0.13229 z"
       id="path13257" />
    <path
       style="fill:#183226"
       d="m 71.743862,147.37292 c 0,-0.36381 0.06005,-0.51263 0.133452,-0.33073 0.0734,0.1819 0.0734,0.47955 0,0.66145 -0.0734,0.18191 -0.133452,0.0331 -0.133452,-0.33072 z"
       id="path13249" />
    <path
       style="fill:#183226"
       d="m 70.400057,148.80607 c 0.0127,-0.30822 0.07539,-0.37091 0.159853,-0.15985 0.07643,0.191 0.06703,0.4192 -0.02089,0.50712 -0.08792,0.0879 -0.150453,-0.0683 -0.138965,-0.34727 z"
       id="path13241" />
    <path
       style="fill:#183226"
       d="m 72.424719,149.2038 c 0.09356,-0.35777 0.213493,-0.4777 0.279546,-0.27955 0.06363,0.19089 -0.01011,0.47286 -0.16386,0.62661 -0.196339,0.19633 -0.230773,0.093 -0.115686,-0.34706 z"
       id="path13236" />
    <path
       style="fill:#183226"
       d="m 90.222918,149.35727 c 0.341774,-0.3638 0.680939,-0.66146 0.7537,-0.66146 0.07276,0 -0.147342,0.29766 -0.489117,0.66146 -0.341774,0.3638 -0.680939,0.66146 -0.753699,0.66146 -0.07276,0 0.147342,-0.29766 0.489116,-0.66146 z"
       id="path13234" />
    <path
       style="fill:#183226"
       d="m 73.202797,149.29117 c 0.255988,-0.47293 1.060774,-1.42543 1.788414,-2.11667 l 1.322981,-1.25679 -1.316181,1.45521 c -0.723899,0.80036 -1.528686,1.75286 -1.788413,2.11666 -0.455567,0.63812 -0.455807,0.63111 -0.0068,-0.19841 z"
       id="path13233" />
    <path
       style="fill:#183226"
       d="m 87.97396,150.94 c 0.291042,-0.23697 0.767292,-0.54777 1.058333,-0.69065 l 0.529167,-0.25979 -0.529167,0.43085 c -0.291041,0.23698 -0.767291,0.54777 -1.058333,0.69066 l -0.529167,0.25979 z"
       id="path13222" />
    <path
       style="fill:#183226"
       d="m 62.324365,150.94725 c -2.806458,-1.15368 -5.597556,-3.44712 -7.408922,-6.08788 l -0.725939,-1.05833 0.736085,0.92604 c 1.817636,2.2867 4.321232,4.44179 6.229819,5.36262 1.071246,0.51683 2.304907,1.06009 2.74147,1.20724 0.436562,0.14714 0.615156,0.27411 0.396875,0.28214 -0.218281,0.008 -1.104506,-0.27629 -1.969388,-0.63183 z"
       id="path13217" />
    <path
       style="fill:#183226"
       d="m 86.254168,151.73854 c 0.363802,-0.20797 0.780521,-0.37812 0.926042,-0.37812 0.145521,0 -0.03307,0.17015 -0.396875,0.37812 -0.363802,0.20797 -0.780521,0.37812 -0.926042,0.37812 -0.14552,0 0.03307,-0.17015 0.396875,-0.37812 z"
       id="path13214" />
    <path
       style="fill:#183226"
       d="m 67.94831,151.95467 c 0.190996,-0.0764 0.419199,-0.067 0.507118,0.0209 0.08792,0.0879 -0.06835,0.15046 -0.347266,0.13897 -0.308224,-0.0127 -0.370919,-0.0754 -0.159852,-0.15986 z"
       id="path13213" />
    <path
       style="fill:#183226"
       d="m 65.352086,151.87087 c -0.518317,-0.16599 -0.546945,-0.21077 -0.132292,-0.2069 0.291042,0.003 0.886355,0.0958 1.322917,0.2069 0.712977,0.18142 0.726439,0.20248 0.132292,0.20691 -0.363802,0.003 -0.959115,-0.0904 -1.322917,-0.20691 z"
       id="path13212" />
    <path
       style="fill:#183226"
       d="m 72.975393,152.4842 c 0.190996,-0.0764 0.419199,-0.067 0.507118,0.0209 0.08792,0.0879 -0.06835,0.15045 -0.347266,0.13896 -0.308224,-0.0127 -0.370919,-0.0754 -0.159852,-0.15985 z"
       id="path13202" />
    <path
       style="fill:#183226"
       d="m 74.01719,152.7544 c 0.181901,-0.0734 0.479557,-0.0734 0.661458,0 0.181901,0.0734 0.03307,0.13345 -0.330729,0.13345 -0.363802,0 -0.51263,-0.0601 -0.330729,-0.13345 z"
       id="path13199" />
    <path
       style="fill:#183226"
       d="m 82.814585,152.78558 c 0.800365,-0.19974 1.574271,-0.35572 1.719792,-0.34663 0.531583,0.0332 -1.872116,0.71407 -2.513542,0.71196 -0.363802,-0.001 -0.0066,-0.16559 0.79375,-0.36533 z"
       id="path13196" />
    <path
       style="fill:#183226"
       d="m 75.736981,153.01136 c 0.254662,-0.0666 0.671381,-0.0666 0.926042,0 0.254661,0.0666 0.0463,0.121 -0.463021,0.121 -0.509323,0 -0.717682,-0.0545 -0.463021,-0.121 z"
       id="path13195" />
    <path
       style="fill:#183226"
       d="m 79.047358,153.2712 c 0.329118,-0.0633 0.805368,-0.0609 1.058333,0.005 0.252965,0.0662 -0.01631,0.118 -0.598397,0.11507 -0.582084,-0.003 -0.789055,-0.0571 -0.459936,-0.12041 z"
       id="path13192" />
    <path
       style="fill:#183226"
       d="m 69.585419,153.45833 c 0,-0.14552 0.126089,-0.26458 0.280198,-0.26458 0.154109,0 0.206614,0.11906 0.116677,0.26458 -0.08994,0.14552 -0.216026,0.26458 -0.280198,0.26458 -0.06417,0 -0.116677,-0.11906 -0.116677,-0.26458 z"
       id="path13191" />
    <path
       style="fill:#183226"
       d="m 70.146649,156.63333 c -0.0045,-0.21828 0.155358,-0.75406 0.355256,-1.19062 0.467892,-1.02184 0.474758,-0.54655 0.0096,0.66145 -0.19614,0.50933 -0.360305,0.74745 -0.364812,0.52917 z"
       id="path13182" />
    <path
       style="fill:#183226"
       d="m 68.040891,157.29479 c -0.0033,-0.35242 1.501941,-3.51473 1.511234,-3.175 0.004,0.14552 -0.333869,0.97896 -0.750778,1.85208 -0.416908,0.87313 -0.759113,1.46844 -0.760456,1.32292 z"
       id="path13179" />
    <path
       style="fill:#183226"
       d="m 67.754224,158.06644 c 0.0127,-0.30822 0.07539,-0.37092 0.159853,-0.15985 0.07643,0.19099 0.06703,0.4192 -0.02089,0.50712 -0.08792,0.0879 -0.150452,-0.0684 -0.138963,-0.34727 z"
       id="path13175" />
    <path
       style="fill:#183226"
       d="m 69.342079,158.48541 c 0.385712,-0.80989 0.507924,-0.95999 0.507924,-0.62383 0,0.14196 -0.185162,0.48923 -0.411472,0.7717 -0.387979,0.48427 -0.393485,0.47583 -0.09645,-0.14787 z"
       id="path13172" />
  </g>
</svg>
