<?xml version="1.0" encoding="UTF-8" standalone="no"?>
<!-- Created with Inkscape (http://www.inkscape.org/) -->

<svg
   width="185"
   height="185"
   viewBox="0 0 48.947914 48.947918"
   version="1.1"
   id="svg1"
   sodipodi:docname="narcissus-6.svg"
   inkscape:version="1.4 (e7c3feb100, 2024-10-09)"
   xmlns:inkscape="http://www.inkscape.org/namespaces/inkscape"
   xmlns:sodipodi="http://sodipodi.sourceforge.net/DTD/sodipodi-0.dtd"
   xmlns="http://www.w3.org/2000/svg"
   xmlns:svg="http://www.w3.org/2000/svg">
  <sodipodi:namedview
     id="namedview1"
     pagecolor="#ffffff"
     bordercolor="#666666"
     borderopacity="1.0"
     inkscape:showpageshadow="2"
     inkscape:pageopacity="0.0"
     inkscape:pagecheckerboard="0"
     inkscape:deskcolor="#d1d1d1"
     inkscape:document-units="mm"
     inkscape:zoom="1.8041143"
     inkscape:cx="93.674774"
     inkscape:cy="88.686177"
     inkscape:current-layer="layer1" />
  <defs
     id="defs1" />
  <g
     inkscape:label="Ebene 1"
     inkscape:groupmode="layer"
     id="layer1">
    <g
       id="g20386"
       transform="matrix(0.78081879,0,0,0.78081879,-135.54326,-142.12978)"
       style="display:inline;stroke-width:1.28071">
      <path
         style="fill:#e1c760;stroke-width:1.28071"
         d="m 208.5356,244.56441 c -0.40018,-0.0606 -0.7276,-0.13871 -0.7276,-0.17353 0,-0.0348 0.43066,-1.12823 0.95703,-2.42982 0.52637,-1.30159 2.0437,-5.52168 3.37184,-9.37798 l 2.41481,-7.01146 -0.0799,-3.30729 c -0.0439,-1.81901 -0.10273,-3.83212 -0.13069,-4.47358 -0.0563,-1.29074 0.39329,-1.71854 0.86996,-0.82786 0.16235,0.30334 0.43045,1.56252 0.59578,2.79816 0.27714,2.07138 0.32456,2.18956 0.60793,1.51506 0.72957,-1.73661 3.18381,-8.33986 3.95837,-10.6502 0.6727,-2.00651 0.94625,-2.51678 1.3492,-2.51678 0.32187,0 0.53597,0.21502 0.58954,0.59207 0.10254,0.72171 -1.44159,5.26486 -3.94457,11.60567 -1.02813,2.60457 -2.56287,6.64059 -3.41053,8.96892 -0.84767,2.32833 -1.67925,4.58802 -1.84796,5.02152 -0.39686,1.01976 -0.19109,0.7986 0.88607,-0.95234 0.48159,-0.78284 1.66101,-2.69241 2.62093,-4.24349 0.95992,-1.55107 2.23232,-3.78876 2.82756,-4.97263 1.09913,-2.18606 1.64384,-2.71628 2.20685,-2.14816 0.2413,0.24348 -0.0285,0.97777 -1.17866,3.20736 -0.82038,1.59036 -1.35617,2.81227 -1.19063,2.71534 0.78521,-0.45975 3.38745,-2.56421 4.97176,-4.02071 1.79342,-1.64875 2.60527,-2.00209 2.60527,-1.1339 0,0.94774 -5.64921,5.88428 -8.25874,7.21687 -1.4149,0.72255 -4.72149,5.76309 -7.66168,11.67941 -0.84974,1.70987 -1.5741,3.09102 -1.60968,3.06921 -0.0356,-0.0218 -0.39212,-0.0892 -0.7923,-0.14986 z"
         id="path20336" />
      <path
         style="fill:#e1c760;stroke-width:1.28071"
         d="m 201.70522,244.54441 c -0.64331,-0.0766 -0.69653,-0.20594 -1.01735,-2.47263 -0.51287,-3.62369 -1.51418,-7.77399 -2.27905,-9.44645 -1.62391,-3.5508 -6.46162,-8.57523 -12.16861,-12.63829 -3.16807,-2.25548 -3.81235,-3.01586 -2.73174,-3.22397 1.39684,-0.269 12.15851,8.24446 13.43379,10.62735 0.66658,1.2455 0.74673,0.73603 0.22848,-1.45222 -1.30363,-5.50441 -4.14688,-11.25125 -7.4938,-15.14665 -1.23302,-1.43509 -2.24186,-2.7618 -2.24186,-2.94826 0,-0.84533 0.87627,-0.60423 2.1566,0.59337 2.04345,1.91142 4.27833,5.05227 5.90008,8.29189 l 1.46832,2.93311 v -2.64577 c 0,-1.45518 0.0723,-2.83411 0.1606,-3.06429 0.19211,-0.50062 0.78511,-0.54916 1.07255,-0.0878 0.11332,0.1819 0.28609,3.00964 0.38392,6.28386 l 0.17787,5.95312 1.46278,5.82083 c 1.64047,6.52791 2.29853,9.75561 2.29853,11.27402 0,1.24862 0.41114,1.36013 0.6239,0.16921 0.65657,-3.67513 1.36206,-14.30525 1.12331,-16.92589 -0.40672,-4.46451 -2.07956,-10.94609 -3.60403,-13.96421 -1.13372,-2.24452 -4.17665,-5.57125 -6.53735,-7.14705 -2.29333,-1.53084 -2.62235,-1.90864 -2.06503,-2.37118 0.485,-0.40251 2.33822,0.56254 4.63619,2.41427 0.87432,0.70454 1.58968,1.22831 1.58968,1.16394 0,-0.3016 -1.95988,-3.41122 -2.94937,-4.67958 -0.60883,-0.78042 -1.99005,-2.27643 -3.06939,-3.32448 -1.85577,-1.80197 -2.28877,-2.64588 -1.4934,-2.91067 0.48135,-0.16025 2.87582,2.01056 5.02059,4.55163 1.36614,1.61856 2.50634,3.35579 3.55992,5.42395 1.71642,3.36932 1.83592,3.29989 1.27157,-0.73885 -0.23307,-1.66791 -0.2327,-2.26795 0.002,-2.5022 0.81285,-0.81285 1.54796,2.03139 2.13695,8.26814 0.1443,1.52797 0.4875,3.43297 0.76268,4.23333 0.27517,0.80036 0.66452,2.11005 0.86521,2.91042 l 0.36488,1.4552 0.17527,-1.5875 c 0.3255,-2.94824 0.23524,-9.66021 -0.17896,-13.30796 -0.51414,-4.52787 -1.12802,-7.18159 -2.52116,-10.89858 -1.14124,-3.0449 -1.20674,-3.95863 -0.24697,-3.44498 0.901,0.4822 2.35356,3.93234 3.4291,8.14483 1.30151,5.09751 1.69347,14.27136 0.95849,22.43368 -0.20883,2.31922 -0.35008,4.63348 -0.31389,5.14281 0.0362,0.50932 0.0988,2.41432 0.13915,4.23333 l 0.0734,3.30729 0.3845,-1.45521 c 0.21148,-0.80036 0.90874,-3.06255 1.54947,-5.02708 1.7174,-5.26567 3.54555,-12.13255 3.59241,-13.49375 0.0225,-0.65484 -0.0465,-3.69094 -0.15351,-6.74687 -0.20968,-5.99062 -0.054,-7.40834 0.81357,-7.40834 0.48425,0 0.52127,0.29027 0.67495,5.29167 0.0894,2.91042 0.18242,5.41073 0.20665,5.55625 0.0242,0.14552 0.51252,-0.98557 1.08509,-2.51354 1.19694,-3.19415 4.33641,-9.56062 5.01938,-10.1787 0.41062,-0.37161 0.49857,-0.37376 0.7927,-0.0194 0.27318,0.32917 0.0886,0.89511 -1.05914,3.24782 -2.79214,5.72341 -4.66071,10.74975 -6.85774,18.44699 -0.7366,2.58067 -1.8683,6.31814 -2.51488,8.3055 -1.41924,4.36224 -3.60594,12.05837 -4.27804,15.0566 -0.47799,2.1323 -0.50773,2.18332 -1.28546,2.20486 -0.43789,0.0121 -1.03428,0.0427 -1.32533,0.0679 -0.29104,0.0252 -0.83463,0.01 -1.20798,-0.0349 z"
         id="path20335" />
      <path
         style="fill:#e1c760;stroke-width:1.28071"
         d="m 199.697,244.54041 c -0.60197,-0.0584 -0.87563,-0.24311 -0.98073,-0.66186 -0.14098,-0.56173 -2.76591,-5.0718 -4.76405,-8.18544 -1.20647,-1.88002 -1.75128,-2.24216 -4.89714,-3.25516 -2.53238,-0.81545 -3.34787,-1.40799 -2.75446,-2.0014 0.23541,-0.23541 0.81594,-0.15018 2.44145,0.35844 1.17292,0.367 2.13259,0.58871 2.13259,0.49267 0,-0.096 -0.71415,-1.06428 -1.58701,-2.15165 -1.5858,-1.97554 -1.83871,-2.68979 -1.00901,-2.84957 0.47368,-0.0912 3.6891,3.49964 5.72326,6.39152 2.99592,4.25917 6.88095,11.14527 6.62127,11.736 -0.0502,0.11413 -0.46694,0.17103 -0.92617,0.12645 z"
         id="path20334" />
      <path
         style="fill:#558d65;stroke-width:1.28071"
         d="m 207.808,244.41503 c 0,-0.0408 0.42567,-1.08259 0.94593,-2.3151 0.81453,-1.92965 3.50629,-9.55073 5.18365,-14.67634 0.71381,-2.18123 0.86841,-4.52794 0.51303,-7.78781 -0.21602,-1.98155 -0.22008,-2.84031 -0.0144,-3.04271 0.46177,-0.45438 0.99303,0.52546 1.1901,2.195 0.0968,0.82047 0.25668,1.9026 0.35519,2.40472 l 0.17911,0.91295 0.6155,-1.57441 c 1.28755,-3.29348 3.96421,-10.74716 4.12933,-11.49893 0.0948,-0.43177 0.27158,-0.84632 0.39278,-0.92122 0.39173,-0.24211 1.06185,0.17326 1.06185,0.65818 0,0.71836 -1.88265,6.04 -4.66409,13.18389 -2.66889,6.85479 -5.02043,13.45833 -4.5088,12.66145 0.17014,-0.265 0.98403,-1.53058 1.80865,-2.8124 1.66332,-2.58554 3.41189,-5.60429 4.75797,-8.21416 0.87893,-1.70414 1.66177,-2.28923 1.97406,-1.4754 0.0942,0.24556 -0.49176,1.61243 -1.42626,3.32685 -0.87242,1.60052 -1.53371,2.91004 -1.46954,2.91004 0.228,0 3.85138,-2.98352 5.52694,-4.55093 1.6372,-1.53152 2.49899,-1.84493 2.49899,-0.90882 0,0.63122 -4.13224,4.30997 -6.86614,6.11262 -2.30621,1.52064 -2.72838,1.92914 -4.05666,3.92531 -1.91223,2.87374 -4.93361,8.14975 -5.76102,10.06002 -0.59442,1.37236 -0.71553,1.49271 -1.50629,1.49687 -0.47294,0.002 -0.85989,-0.0289 -0.85989,-0.0697 z"
         id="path20258" />
      <path
         style="fill:#558d65;stroke-width:1.28071"
         d="m 200.92883,243.74173 c 0,-2.12886 -1.60876,-9.27738 -2.5796,-11.46241 -1.30002,-2.92593 -6.86029,-8.63351 -11.80657,-12.11935 -3.45074,-2.43189 -3.83276,-2.80141 -3.37227,-3.2619 0.24578,-0.24578 0.64486,-0.13968 1.78362,0.47424 3.30209,1.78017 10.05182,7.39432 11.77526,9.79415 0.46698,0.65026 0.88896,1.14238 0.93773,1.09361 0.19805,-0.19805 -1.32839,-5.72644 -2.0929,-7.57997 -1.89062,-4.58373 -3.87442,-7.79539 -6.74147,-10.91403 -1.47789,-1.60757 -1.64333,-1.97623 -0.99797,-2.22388 1.37905,-0.52919 7.45413,7.46803 8.6615,11.40198 0.15847,0.51634 0.35744,0.93904 0.44217,0.93933 0.0847,3e-4 0.11722,-1.28896 0.0722,-2.86501 -0.0678,-2.37354 -0.009,-2.92593 0.34194,-3.21724 0.28766,-0.23874 0.51032,-0.26514 0.69326,-0.0822 0.15391,0.1539 0.36458,2.92388 0.49116,6.45785 0.22142,6.18171 0.22297,6.19344 1.44583,10.92559 1.44339,5.58556 2.53359,10.81938 2.53359,12.16319 0,1.06637 0.3792,1.28589 0.62813,0.36364 0.43043,-1.59466 1.01483,-9.35486 1.05105,-13.95677 0.0372,-4.72096 -0.0204,-5.43596 -0.67677,-8.41427 -0.92689,-4.20544 -2.34011,-8.25736 -3.47143,-9.95312 -1.48375,-2.22403 -4.22743,-4.97529 -6.22167,-6.23886 -1.77387,-1.12395 -2.28896,-1.84051 -1.62015,-2.25385 0.42195,-0.26078 5.14497,2.71005 5.677,3.57089 0.0919,0.14875 0.2718,0.27046 0.39969,0.27046 0.37124,0 -1.78988,-3.39757 -3.47804,-5.46797 -0.85032,-1.04285 -2.21231,-2.48993 -3.02664,-3.21573 -1.42248,-1.26784 -1.77045,-2.09593 -0.98992,-2.3558 0.42692,-0.14214 3.75044,3.04149 5.70617,5.466 0.96499,1.1963 2.12174,3.08212 2.87507,4.68718 1.311,2.79324 1.90864,3.59919 1.69703,2.28853 -0.55003,-3.40671 -0.70381,-5.43917 -0.43211,-5.71087 0.21707,-0.21707 0.37475,-0.21544 0.59635,0.006 0.401,0.40099 1.18682,4.6424 1.40989,7.60978 0.0985,1.30969 0.46348,3.39328 0.81115,4.63021 0.34768,1.23692 0.78364,2.84427 0.96881,3.57187 l 0.33666,1.32292 0.17662,-1.45521 c 0.0971,-0.80037 0.18839,-3.56401 0.20278,-6.14144 0.0433,-7.74783 -0.98184,-14.04059 -3.13238,-19.2288 -0.95016,-2.29227 -0.9913,-2.67559 -0.28714,-2.67559 0.66835,0 1.1595,0.76272 2.15492,3.34648 2.59164,6.72692 3.48259,16.39399 2.46146,26.70737 -0.3038,3.06843 -0.36934,5.42909 -0.24175,8.7076 0.0963,2.47386 0.20519,4.52842 0.24204,4.5657 0.0369,0.0373 0.21623,-0.61757 0.39863,-1.45521 0.18241,-0.83764 0.90929,-3.30892 1.6153,-5.49174 2.15667,-6.66793 3.526,-12.00857 3.5276,-13.75833 8e-4,-0.87312 -0.0916,-3.79015 -0.20531,-6.48229 -0.22625,-5.3561 -0.0476,-7.01146 0.75663,-7.01146 0.45695,0 0.49865,0.302 0.56636,4.10104 0.0748,4.19676 0.35513,7.5886 0.56855,6.87917 0.93075,-3.09384 3.78309,-9.48772 5.39867,-12.10179 0.52055,-0.84227 1.10424,-1.10284 1.39966,-0.62485 0.0809,0.13087 -0.67793,1.94657 -1.68625,4.0349 -2.30786,4.7798 -4.14153,9.7417 -6.09644,16.49695 -0.84225,2.91041 -2.13567,7.19666 -2.87427,9.525 -1.71712,5.41302 -3.84151,12.98061 -4.28933,15.27968 l -0.34787,1.78594 h -2.06812 -2.06813 z"
         id="path20257" />
      <path
         style="fill:#558d65;stroke-width:1.28071"
         d="m 198.38693,243.10015 c -1.03234,-2.0523 -4.58424,-7.90787 -5.2316,-8.62471 -0.72456,-0.80231 -1.97626,-1.4337 -4.20199,-2.1196 -2.21653,-0.68307 -2.84118,-1.00985 -2.84118,-1.48636 0,-0.81876 0.22154,-0.79183 4.59764,0.55885 0.32982,0.10179 -0.0317,-0.54496 -1.0764,-1.92574 -2.04465,-2.70239 -2.07279,-2.75449 -1.6369,-3.03057 0.20054,-0.12703 0.44336,-0.23278 0.53959,-0.23501 0.18433,-0.004 3.83883,4.23622 5.01297,5.81679 2.10269,2.83052 6.47874,10.26826 6.96622,11.8401 0.16363,0.52761 0.0928,0.59531 -0.6225,0.59531 -0.70855,0 -0.89245,-0.16963 -1.50585,-1.38906 z"
         id="path20256" />
      <path
         style="fill:#225133;stroke-width:1.28071"
         d="m 208.78784,242.17456 c 0.95938,-2.36691 4.45052,-12.31591 5.40812,-15.41198 0.45901,-1.48404 0.51336,-2.20942 0.3965,-5.29167 -0.0745,-1.96453 -0.20146,-3.75047 -0.28217,-3.96875 -0.0807,-0.21828 -0.0339,-0.57447 0.10405,-0.79154 0.45617,-0.71788 0.83364,0.10622 1.21357,2.64951 0.20104,1.3458 0.41674,2.49813 0.47932,2.56071 0.15198,0.15198 2.0409,-4.67218 3.75034,-9.57805 1.14898,-3.29743 1.4776,-3.98305 1.94271,-4.0533 0.37083,-0.056 0.5598,0.0575 0.5598,0.33632 0,0.66833 -1.93412,6.20712 -3.97729,11.38989 -2.39323,6.07074 -5.62606,14.95881 -5.49029,15.09458 0.0573,0.0573 0.4673,-0.51759 0.91113,-1.2775 0.44382,-0.75991 1.53756,-2.53404 2.43051,-3.9425 0.89296,-1.40846 2.28971,-3.81948 3.10391,-5.35781 0.81419,-1.53834 1.57453,-2.79697 1.68963,-2.79697 0.1151,0 0.3334,0.14956 0.48511,0.33236 0.27417,0.33035 -0.59472,2.34257 -2.22714,5.15774 -0.35862,0.61846 -0.57845,1.12448 -0.4885,1.12448 0.32292,0 3.46781,-2.54673 5.34487,-4.32827 1.23902,-1.17597 2.05563,-1.76257 2.3151,-1.663 0.22048,0.0846 0.40088,0.27628 0.40088,0.42595 0,0.82072 -4.99687,5.2072 -7.62292,6.69175 -0.77286,0.43691 -1.72536,1.19493 -2.11666,1.68448 -1.30966,1.6385 -4.27794,6.54825 -6.01862,9.95523 -1.60623,3.14385 -1.77549,3.37344 -2.48694,3.37344 h -0.7634 z"
         id="path20171" />
      <path
         style="fill:#225133;stroke-width:1.28071"
         d="m 203.15099,243.89435 c 0.50451,-1.79613 1.01916,-8.64162 1.04929,-13.95677 0.0317,-5.59823 -0.009,-6.13645 -0.68093,-9.02817 -0.84923,-3.65404 -2.02246,-7.1377 -3.04209,-9.03283 -0.96333,-1.79049 -5.38029,-6.25688 -7.15493,-7.235 -1.36741,-0.75367 -1.78198,-1.48421 -1.01031,-1.78033 0.39342,-0.15097 4.23393,2.26879 5.50796,3.47036 0.9597,0.90512 0.91871,0.68036 -0.24014,-1.31683 -1.2678,-2.18495 -3.05287,-4.41117 -5.36257,-6.68781 -1.95291,-1.92496 -2.26042,-2.52064 -1.30124,-2.52064 0.64297,0 4.18982,3.45902 5.96864,5.82083 0.6028,0.80037 1.78104,2.82443 2.61831,4.49792 0.83727,1.67349 1.56356,2.86193 1.61397,2.64098 0.0504,-0.22095 -0.0821,-1.64471 -0.29441,-3.1639 -0.39953,-2.85848 -0.37564,-3.18125 0.23544,-3.18125 0.49028,0 1.26669,3.9212 1.59785,8.06979 0.0929,1.16417 0.5099,3.33183 0.9266,4.81702 0.4167,1.48519 0.84905,3.15207 0.96076,3.70417 l 0.20313,1.00381 0.18474,-1.32291 c 0.34882,-2.49781 0.24371,-11.7154 -0.17299,-15.17037 -0.49565,-4.10964 -1.0736,-6.49208 -2.4807,-10.22609 -0.59618,-1.58206 -1.08396,-2.9742 -1.08396,-3.09365 0,-0.11945 0.24588,-0.21718 0.54639,-0.21718 0.42085,0 0.7488,0.44069 1.42748,1.91823 3.10076,6.75056 4.19549,16.14475 3.18346,27.31822 -0.40529,4.47475 -0.53661,14.4198 -0.19041,14.4198 0.11244,0 0.36189,-0.68461 0.55435,-1.52136 0.19246,-0.83674 0.92405,-3.30729 1.62575,-5.4901 0.7017,-2.18282 1.79126,-5.81422 2.42125,-8.06979 1.25335,-4.48748 1.19151,-3.64799 0.98435,-13.36146 -0.10565,-4.95344 0.0361,-6.21771 0.69722,-6.21771 0.31773,0 0.39203,0.4628 0.3929,2.4474 0.002,3.46196 0.31534,9.19578 0.50278,9.18627 0.0867,-0.004 0.49169,-1.04619 0.90001,-2.3151 0.87629,-2.72317 4.84339,-10.88325 5.39366,-11.09441 1.00328,-0.38499 0.77512,0.54212 -1.09086,4.43263 -2.37952,4.96123 -4.16688,9.8398 -6.24907,17.05681 -0.86346,2.99278 -2.09955,7.07412 -2.74687,9.06964 -1.26267,3.89247 -3.3758,11.25367 -3.85175,13.4178 -0.72691,3.30519 -0.72803,3.30729 -1.76357,3.30729 -0.85492,0 -0.93049,-0.0577 -0.77949,-0.59531 z"
         id="path20170" />
      <path
         style="fill:#225133;stroke-width:1.28071"
         d="m 200.92883,243.4527 c 0,-1.31205 -1.12556,-7.0014 -1.84705,-9.33628 -0.30154,-0.97586 -1.12965,-2.64273 -1.84023,-3.70417 -1.81124,-2.70553 -7.17888,-7.86199 -10.9246,-10.49479 -1.70638,-1.19939 -3.16358,-2.27952 -3.23823,-2.40031 -0.0746,-0.12079 0.0374,-0.3633 0.24902,-0.53893 0.31078,-0.25792 0.70447,-0.12755 2.04761,0.67803 3.58484,2.15009 9.58109,7.1822 11.31364,9.49451 0.49184,0.65644 0.93552,1.15225 0.98595,1.10182 0.16703,-0.16703 -0.9333,-4.50525 -1.65368,-6.51991 -1.60706,-4.4944 -3.93321,-8.37815 -7.35196,-12.27488 -1.20273,-1.37088 -1.39126,-2.00979 -0.59306,-2.00979 0.4874,0 2.83604,2.36961 4.41555,4.455 0.73431,0.96949 2.05034,3.19145 2.92451,4.9377 0.87417,1.74625 1.64718,3.23313 1.7178,3.30416 0.0706,0.071 0.0449,-0.89961 -0.0571,-2.15699 -0.23421,-2.88644 -0.0199,-4.18987 0.68882,-4.18987 0.43861,0 0.51933,0.19093 0.53135,1.25677 0.008,0.69122 0.11565,3.57849 0.23968,6.41614 0.22051,5.04522 0.25766,5.28524 1.67896,10.84792 1.42146,5.56326 2.30052,9.92843 2.30052,11.42371 0,0.65375 -0.0992,0.74712 -0.79375,0.74712 -0.74693,0 -0.79375,-0.0612 -0.79375,-1.03696 z"
         id="path20169" />
      <path
         style="fill:#225133;stroke-width:1.28071"
         d="m 198.13722,242.6108 c -1.56913,-3.11588 -4.58129,-7.8248 -5.54855,-8.67406 -0.60486,-0.53107 -1.78635,-1.0687 -3.53317,-1.60775 -2.49094,-0.76868 -3.31184,-1.33499 -2.74982,-1.89701 0.11598,-0.11598 1.16168,0.0825 2.32378,0.44108 1.1621,0.35857 2.19945,0.62219 2.30521,0.58584 0.10576,-0.0364 -0.57597,-1.06941 -1.51496,-2.29567 -1.26544,-1.65257 -1.63543,-2.31609 -1.42972,-2.56396 0.15264,-0.18392 0.42585,-0.27749 0.60713,-0.20792 0.50446,0.19357 4.67317,5.28176 6.15697,7.51498 2.80465,4.22119 5.91016,9.73001 5.91016,10.48396 0,0.0547 -0.35569,0.0994 -0.79043,0.0994 -0.71447,0 -0.88133,-0.18053 -1.7366,-1.87886 z"
         id="path20168" />
      <path
         style="fill:#082811;stroke-width:1.28071"
         d="m 205.59458,201.02236 c -0.37977,-2.79204 -2.21976,-8.63632 -3.18081,-10.10307 -0.81966,-1.25096 -0.95381,-0.67637 -0.26059,1.11624 1.21835,3.15056 2.16339,6.24731 2.32138,7.60677 0.1126,0.96896 0.0203,0.75658 -0.34491,-0.79377 -0.27425,-1.16417 -1.03566,-3.54542 -1.692,-5.29166 -1.15156,-3.0638 -1.24742,-4.07847 -0.31196,-3.30211 0.61826,0.51311 1.15747,1.65537 2.12086,4.49275 1.0253,3.01972 1.78887,6.33715 1.6542,7.18682 -0.0551,0.3478 -0.1891,-0.0513 -0.30617,-0.91197 z"
         id="path19737" />
      <path
         style="fill:#082811;stroke-width:1.28071"
         d="m 200.62456,204.14022 c -0.0218,-0.50933 -0.0516,-1.07324 -0.0661,-1.25315 -0.0146,-0.17991 0.1819,-0.36723 0.43657,-0.41628 0.30934,-0.0596 0.45608,0.0709 0.44213,0.39325 -0.012,0.27794 -0.0775,0.34224 -0.15434,0.1517 -0.30214,-0.74878 -0.5446,-0.25157 -0.41932,0.85989 0.0738,0.65485 0.0592,1.19063 -0.0325,1.19063 -0.0917,0 -0.18456,-0.41672 -0.20639,-0.92604 z"
         id="path19730" />
      <path
         style="fill:#082811;stroke-width:1.28071"
         d="m 206.10143,205.31729 c -0.10382,-1.32713 -0.13267,-2.46906 -0.0641,-2.53762 0.0686,-0.0686 0.21052,0.96026 0.31547,2.28627 0.10495,1.326 0.1338,2.46793 0.0641,2.53762 -0.0697,0.0697 -0.21165,-0.95913 -0.31547,-2.28627 z"
         id="path19722" />
      <path
         style="fill:#082811;stroke-width:1.28071"
         d="m 198.7315,205.26439 c -1.20956,-2.48454 -4.03568,-6.12579 -6.35721,-8.1908 -0.99389,-0.88407 -1.76421,-1.25625 -1.76421,-0.85236 0,0.0831 0.98227,1.1249 2.18281,2.3151 1.20055,1.1902 2.69848,2.88448 3.32874,3.76505 1.2725,1.77791 2.80922,4.35208 2.59808,4.35208 -0.0749,0 -0.70978,-0.97212 -1.4109,-2.16026 -0.8214,-1.39197 -2.29387,-3.22368 -4.14025,-5.15034 -2.60118,-2.71429 -3.11814,-3.54052 -2.21214,-3.53561 0.55375,0.003 2.74043,2.06004 4.80258,4.51786 1.74916,2.08478 3.33466,4.682 4.12143,6.75134 0.51565,1.35626 -0.0104,0.52666 -1.14893,-1.81206 z"
         id="path19721" />
      <path
         style="fill:#082811;stroke-width:1.28071"
         d="m 201.08002,207.16403 c -0.10107,-0.89332 -0.12944,-1.67854 -0.0631,-1.74493 0.0664,-0.0664 0.20533,0.60827 0.30874,1.49925 0.1034,0.89098 0.13178,1.67621 0.063,1.74494 -0.0687,0.0687 -0.20766,-0.60593 -0.30873,-1.49926 z"
         id="path19718" />
      <path
         style="fill:#082811;stroke-width:1.28071"
         d="m 205.25287,207.5798 c 9.6e-4,-1.16417 0.0475,-1.60751 0.10336,-0.9852 0.0559,0.62231 0.0551,1.57481 -0.002,2.11667 -0.0569,0.54186 -0.10259,0.0327 -0.10162,-1.13147 z"
         id="path19716" />
      <path
         style="fill:#082811;stroke-width:1.28071"
         d="m 212.74241,207.93603 c -0.0945,-1.33205 -0.17191,-3.8522 -0.17191,-5.60035 0,-3.17759 -0.20147,-3.80459 -0.54506,-1.69628 l -0.18246,1.11957 -0.0291,-1.05834 c -0.0327,-1.19017 0.33048,-1.999 0.71179,-1.58529 0.21794,0.23647 0.68365,11.24258 0.47572,11.24258 -0.0479,0 -0.16446,-1.08985 -0.25901,-2.42189 z"
         id="path19713" />
      <path
         style="fill:#082811;stroke-width:1.28071"
         d="m 202.29139,209.94153 c -0.0218,-0.59282 -0.2276,-2.17207 -0.45733,-3.50944 -0.22973,-1.33737 -0.36738,-2.57874 -0.30588,-2.7586 0.17872,-0.52272 1.04868,5.67538 0.91966,6.55214 -0.0981,0.66637 -0.12317,0.62078 -0.15645,-0.2841 z"
         id="path19712" />
      <path
         style="fill:#082811;stroke-width:1.28071"
         d="m 205.51745,211.81313 c 9.6e-4,-1.16417 0.0475,-1.6075 0.10337,-0.98519 0.0559,0.62231 0.0551,1.57481 -0.002,2.11666 -0.0568,0.54186 -0.10258,0.0327 -0.10162,-1.13147 z"
         id="path19708" />
      <path
         style="fill:#082811;stroke-width:1.28071"
         d="m 211.71933,215.38501 c 0.25495,-1.24452 0.23535,-5.16948 -0.0477,-9.55297 -0.13523,-2.09419 -0.1342,-3.66058 0.002,-3.74505 0.12942,-0.08 0.23656,0.82381 0.23855,2.01234 0.002,1.18666 0.1,3.88396 0.21779,5.99401 0.17712,3.17252 0.14367,4.04251 -0.19332,5.02708 -0.31446,0.91879 -0.36419,0.9792 -0.21779,0.26459 z"
         id="path19696" />
      <path
         style="fill:#082811;stroke-width:1.28071"
         d="m 204.98951,218.42771 c 0.0918,-0.58208 0.16814,-1.74294 0.16974,-2.57968 0.002,-0.83675 0.0943,-1.52136 0.20591,-1.52136 0.25712,0 -0.0644,4.7175 -0.33885,4.97115 -0.112,0.10353 -0.12856,-0.28802 -0.0368,-0.87011 z"
         id="path19682" />
      <path
         style="fill:#082811;stroke-width:1.28071"
         d="m 204.25672,219.02303 c -1.15246,-4.00851 -1.75854,-6.64134 -1.66817,-7.2465 0.10356,-0.6934 0.1167,-0.67918 0.15613,0.16889 0.0237,0.50933 0.28682,1.69995 0.58474,2.64584 0.6625,2.10337 1.29874,4.7625 1.13952,4.7625 -0.0644,0 -0.15992,-0.14883 -0.21222,-0.33073 z"
         id="path19681" />
      <path
         style="fill:#082811;stroke-width:1.28071"
         d="m 197.13611,217.96469 c -0.21001,-2.75138 5.3e-4,-4.22267 0.5882,-4.11046 0.34811,0.0665 0.42934,0.46952 0.44243,2.19516 l 0.016,2.11374 -0.0929,-2.05052 c -0.0511,-1.12779 -0.19155,-2.05052 -0.31214,-2.05052 -0.37087,0 -0.53915,1.81799 -0.37061,4.00364 0.0883,1.14498 0.10093,2.08178 0.0281,2.08178 -0.0729,0 -0.20745,-0.98227 -0.29909,-2.18282 z"
         id="path19679" />
      <path
         style="fill:#082811;stroke-width:1.28071"
         d="m 206.01378,219.68449 c 0.12191,-1.12779 0.32919,-4.25318 0.46063,-6.94532 l 0.23897,-4.89479 -0.1152,4.89479 c -0.13076,5.55607 -0.37168,8.99584 -0.63006,8.99584 -0.0968,0 -0.0762,-0.92274 0.0457,-2.05052 z"
         id="path19675" />
      <path
         style="fill:#082811;stroke-width:1.28071"
         d="m 214.81647,222.19803 c -0.28158,-1.88812 -0.2797,-5.34876 0.003,-5.49011 0.31337,-0.15668 0.87707,2.3285 0.8702,3.83646 -0.003,0.66668 -0.13223,0.24246 -0.34912,-1.14633 -0.18936,-1.21256 -0.42911,-2.28413 -0.53277,-2.38125 -0.17702,-0.16585 0.0209,3.11821 0.32031,5.31352 0.0744,0.5457 0.0725,0.99219 -0.004,0.99219 -0.0768,0 -0.21506,-0.50602 -0.3073,-1.12448 z"
         id="path19670" />
      <path
         style="fill:#082811;stroke-width:1.28071"
         d="m 214.589,225.30688 c 0.088,-0.7276 0.26082,-1.4317 0.38406,-1.56466 0.2598,-0.28032 0.006,1.57484 -0.32217,2.35841 -0.13552,0.32319 -0.15961,0.0142 -0.0619,-0.79375 z"
         id="path19662" />
      <path
         style="fill:#082811;stroke-width:1.28071"
         d="m 197.37284,226.18542 c -0.6986,-3.13297 -1.4453,-5.17945 -3.12018,-8.55146 -1.74572,-3.51464 -2.6553,-4.88211 -5.15021,-7.74281 -1.58307,-1.81518 -1.84641,-2.44364 -1.02393,-2.44364 0.54072,0 4.0246,3.80622 5.32778,5.82073 1.34585,2.08047 3.29219,5.99382 3.28292,6.60069 -0.003,0.22598 -0.28287,-0.26155 -0.62091,-1.08339 -0.66671,-1.62088 -1.75717,-3.6273 -3.17087,-5.83433 -0.97533,-1.52267 -4.30466,-5.23912 -4.69338,-5.23912 -0.53187,0 -0.16544,0.65943 1.29895,2.33762 0.84632,0.96988 1.91835,2.25739 2.38228,2.86113 1.08903,1.4172 4.05713,7.39858 4.77265,9.61792 0.69396,2.15249 1.42569,5.31464 1.26662,5.47371 -0.0659,0.0659 -0.31418,-0.75176 -0.55172,-1.81705 z"
         id="path19654" />
      <path
         style="fill:#082811;stroke-width:1.28071"
         d="m 206.63789,232.71521 c 0.0865,-0.58208 0.81492,-3.14192 1.6188,-5.68854 0.80389,-2.54661 1.85528,-5.99942 2.33642,-7.67291 0.48114,-1.67349 0.88476,-2.88744 0.89693,-2.69765 0.0311,0.4853 -1.09848,4.49035 -2.62645,9.31223 -0.71475,2.25557 -1.5433,4.93448 -1.84122,5.95312 -0.32322,1.10516 -0.47828,1.42527 -0.38448,0.79375 z"
         id="path19641" />
      <path
         style="fill:#082811;stroke-width:1.28071"
         d="m 205.80444,227.82042 c 0,-3.27422 0.038,-4.61367 0.0844,-2.97656 0.0464,1.63711 0.0464,4.31602 0,5.95312 -0.0464,1.63711 -0.0844,0.29766 -0.0844,-2.97656 z"
         id="path19640" />
      <path
         style="fill:#082811;stroke-width:1.28071"
         d="m 212.57854,234.94838 c -0.0182,-0.33594 2.94219,-8.53812 4.09489,-11.34528 1.53464,-3.73728 4.47267,-11.68457 4.88296,-13.20825 0.16711,-0.6206 0.36951,-1.2995 0.44978,-1.50868 0.0864,-0.22528 -0.0139,-0.38033 -0.24617,-0.38033 -0.21932,0 -0.45849,0.33192 -0.54276,0.75325 -0.2653,1.3265 -4.67895,13.09232 -4.84788,12.92339 -0.0445,-0.0445 0.93444,-2.79989 2.1754,-6.12313 1.24096,-3.32323 2.32635,-6.39251 2.41197,-6.82061 0.1634,-0.81699 0.74275,-1.23475 1.14898,-0.82852 0.40718,0.40718 -2.0216,7.53463 -5.21681,15.30916 -0.65788,1.60073 -1.79252,4.63682 -2.52144,6.74688 -1.19909,3.47111 -1.76659,4.893 -1.78892,4.48212 z"
         id="path19638" />
      <path
         style="fill:#082811;stroke-width:1.28071"
         d="m 213.676,234.17042 c 0.36618,-0.65484 1.38386,-2.32172 2.26152,-3.70416 0.87766,-1.38245 2.34517,-3.91559 3.26113,-5.62921 1.56945,-2.9362 2.11951,-3.52345 2.32204,-2.47905 0.0821,0.42347 -2.34577,5.29691 -2.91904,5.8593 -0.14833,0.14552 0.3985,-0.99563 1.2152,-2.53588 1.37049,-2.58471 1.84001,-3.93254 1.24094,-3.56229 -0.13418,0.0829 -0.95055,1.48894 -1.81416,3.12447 -1.38334,2.61982 -5.62638,9.59415 -6.06905,9.97577 -0.0904,0.0779 0.13525,-0.3941 0.50142,-1.04895 z"
         id="path19637" />
      <path
         style="fill:#082811;stroke-width:1.28071"
         d="m 209.126,241.38078 c 0.68006,-1.70987 2.11272,-5.69606 3.18369,-8.85819 1.07097,-3.16213 1.99554,-5.701 2.05461,-5.64194 0.13727,0.13728 -4.14429,12.61041 -5.2169,15.19798 -0.44563,1.07504 -0.81024,1.99777 -0.81024,2.05052 0,0.0527 0.20836,0.0927 0.46302,0.0888 0.31356,-0.005 0.71925,-0.5813 1.25677,-1.78583 0.84681,-1.89762 4.31935,-7.84892 6.16453,-10.56488 0.8394,-1.23553 1.52465,-1.88181 2.76724,-2.60987 2.96133,-1.7351 7.99228,-6.19279 7.40136,-6.558 -0.14031,-0.0867 -0.47938,0.0928 -0.75349,0.39889 -0.62733,0.70056 -4.7098,4.15318 -5.8562,4.95271 -1.46755,1.0235 -0.94367,0.37767 0.64662,-0.79715 0.82859,-0.61211 2.43365,-1.9987 3.5668,-3.08131 1.34568,-1.28565 2.1997,-1.91488 2.46223,-1.81414 0.22108,0.0848 0.40196,0.295 0.40196,0.46702 0,0.58101 -4.08454,4.23503 -6.4823,5.79905 -1.30968,0.85429 -2.6601,1.82664 -3.00092,2.16079 -0.94394,0.92544 -4.71787,7.10358 -6.47233,10.59556 -1.42343,2.83311 -1.62632,3.10885 -2.28745,3.10885 h -0.72548 z"
         id="path19619" />
      <path
         style="fill:#082811;stroke-width:1.28071"
         d="m 203.15661,244.05253 c 0.39596,-1.03184 0.98604,-7.78925 1.12861,-12.92436 0.14767,-5.31889 0.12357,-5.70831 -0.56409,-9.11594 -1.47758,-7.32189 -2.78303,-10.24016 -6.17559,-13.80516 -1.21581,-1.2776 -2.976,-2.80633 -3.91155,-3.39719 -0.93555,-0.59085 -1.70099,-1.19523 -1.70099,-1.34306 0,-0.59795 0.85654,-0.53062 2.04725,0.16092 1.59381,0.92565 4.3749,3.04252 4.21165,3.20577 -0.0679,0.0679 -0.85866,-0.46897 -1.75723,-1.19306 -1.91494,-1.54307 -3.85554,-2.63098 -4.15642,-2.3301 -0.23216,0.23217 -0.0415,0.38511 2.18967,1.75637 1.62727,1.0001 5.16452,4.78435 6.3283,6.77019 0.93502,1.59549 2.03203,4.83221 2.95137,8.70793 0.71243,3.00349 0.75287,3.49658 0.74865,9.12813 -0.004,5.44982 -0.38412,11.06493 -0.91771,13.55989 -0.19799,0.92574 -0.17047,0.99219 0.41093,0.99219 0.68831,0 0.55501,0.35362 1.94486,-5.15938 0.83861,-3.32642 1.87957,-6.88198 4.33787,-14.81666 0.81153,-2.61938 1.90909,-6.25078 2.43903,-8.06979 1.47983,-5.07949 3.44998,-10.32975 5.4508,-14.5258 0.99924,-2.0956 1.81681,-3.91833 1.81681,-4.05052 0,-1.49771 -3.45566,5.3314 -5.45038,10.77111 -0.48026,1.30969 -0.87829,2.20265 -0.88452,1.98437 -0.0126,-0.4432 1.41241,-4.3131 2.485,-6.74829 1.18185,-2.6833 3.38464,-6.48087 3.75923,-6.48087 0.6039,0 0.41249,0.61347 -1.33207,4.26931 -2.09933,4.39927 -4.04779,9.60274 -5.61629,14.99863 -0.66312,2.28123 -2.02432,6.76706 -3.0249,9.96851 -1.94629,6.22734 -3.51675,11.7225 -4.4802,15.67657 l -0.59634,2.44739 h -0.92474 c -0.75111,0 -0.89325,-0.0821 -0.75701,-0.4371 z"
         id="path19618" />
      <path
         style="fill:#082811;stroke-width:1.28071"
         d="m 201.08943,244.07113 c -0.0883,-0.23019 -0.1606,-0.75635 -0.1606,-1.16926 0,-1.2329 -1.30441,-7.40691 -1.96822,-9.31599 -1.38016,-3.96921 -6.0852,-9.02621 -12.96044,-13.92993 -2.5255,-1.80129 -3.0313,-2.27008 -2.77827,-2.57496 0.71046,-0.85605 6.36682,3.11853 11.15849,7.84079 1.70987,1.6851 3.10509,3.23512 3.10047,3.44448 -0.005,0.20937 -0.26064,0.0235 -0.56896,-0.41308 -1.82701,-2.58695 -8.41913,-8.20661 -11.96174,-10.19716 -2.54346,-1.42913 -1.60546,-0.33103 1.81719,2.12737 3.60637,2.59036 8.7535,7.51699 10.58268,10.12931 0.69126,0.98721 1.53614,2.59809 1.87753,3.57974 0.6092,1.75176 1.87826,7.75331 2.02408,9.57212 0.0525,0.65491 0.21708,0.95099 0.56533,1.01703 0.44596,0.0846 0.47506,-0.0372 0.31552,-1.32075 -0.30783,-2.47664 -0.94732,-5.50402 -2.30941,-10.9329 -0.72938,-2.90712 -1.37961,-5.88368 -1.44496,-6.61459 -0.21392,-2.39269 -0.23176,-6.22443 -0.029,-6.22406 0.10914,1.9e-4 0.19844,1.46543 0.19844,3.25607 0,3.08868 0.0818,3.58755 1.59413,9.72344 1.49009,6.04558 2.37107,10.43481 2.37356,11.82553 8e-4,0.45181 -0.15156,0.59531 -0.63209,0.59531 -0.34823,0 -0.70542,-0.18833 -0.79375,-0.41851 z"
         id="path19617" />
      <path
         style="fill:#082811;stroke-width:1.28071"
         d="m 198.71078,243.51668 c -0.51266,-1.07507 -3.26294,-5.74999 -4.71988,-8.02287 -1.06595,-1.66291 -1.99097,-2.2541 -5.14691,-3.28942 -2.2299,-0.73153 -2.83954,-1.13527 -2.51273,-1.66406 0.13678,-0.22132 0.73167,-0.12772 2.15839,0.3396 1.95569,0.64059 2.6496,0.77307 2.6496,0.50589 0,-0.0766 -0.71438,-1.04525 -1.5875,-2.15259 -1.59298,-2.02029 -1.91,-2.73525 -1.21283,-2.73525 1.50906,0 10.24965,12.56667 12.0691,17.35219 0.2211,0.58153 0.17625,0.63947 -0.49507,0.63947 -0.58993,0 -0.83138,-0.19542 -1.20217,-0.97296 z m 1.4243,0.43625 c 0,-0.70828 -3.16305,-6.24025 -5.81581,-10.17147 -1.53608,-2.27637 -5.48052,-7.0189 -5.83774,-7.0189 -0.4901,0 -0.23679,0.45828 1.32774,2.40207 0.86924,1.07995 1.58362,2.05659 1.5875,2.1703 0.0172,0.50445 -0.90971,0.45526 -2.76629,-0.1468 -1.10134,-0.35715 -2.06232,-0.55248 -2.1355,-0.43407 -0.17509,0.2833 0.41867,0.57374 2.65989,1.30114 2.6042,0.8452 3.70621,1.4496 4.45621,2.44398 0.82162,1.08935 4.21438,6.71686 5.08331,8.43161 0.58187,1.14826 1.44069,1.75758 1.44069,1.02214 z"
         id="path19616" />
    </g>
  </g>
</svg>
