<?xml version="1.0" encoding="UTF-8" standalone="no"?>
<!-- Created with Inkscape (http://www.inkscape.org/) -->

<svg
   width="185"
   height="185"
   viewBox="0 0 48.947914 48.947918"
   version="1.1"
   id="svg1"
   sodipodi:docname="narcissus-4.svg"
   inkscape:version="1.4 (e7c3feb100, 2024-10-09)"
   xmlns:inkscape="http://www.inkscape.org/namespaces/inkscape"
   xmlns:sodipodi="http://sodipodi.sourceforge.net/DTD/sodipodi-0.dtd"
   xmlns="http://www.w3.org/2000/svg"
   xmlns:svg="http://www.w3.org/2000/svg">
  <sodipodi:namedview
     id="namedview1"
     pagecolor="#ffffff"
     bordercolor="#666666"
     borderopacity="1.0"
     inkscape:showpageshadow="2"
     inkscape:pageopacity="0.0"
     inkscape:pagecheckerboard="0"
     inkscape:deskcolor="#d1d1d1"
     inkscape:document-units="mm"
     inkscape:zoom="1.8041143"
     inkscape:cx="93.674774"
     inkscape:cy="88.686177"
     inkscape:current-layer="layer1" />
  <defs
     id="defs1" />
  <g
     inkscape:label="Ebene 1"
     inkscape:groupmode="layer"
     id="layer1">
    <g
       id="g20384"
       transform="matrix(0.86143785,0,0,0.86143785,-98.623321,-95.570641)"
       style="display:inline;stroke-width:1.16085">
      <path
         style="fill:#e1c760;stroke-width:1.16085"
         d="m 141.04385,163.59282 c -0.23947,-2.29195 -0.55943,-5.65547 -0.71103,-7.47448 -0.3022,-3.62602 -0.40303,-4.48587 -1.45332,-12.39323 -0.51421,-3.87139 -0.6342,-5.4624 -0.42754,-5.66906 0.74304,-0.74304 2.60231,2.43633 4.29629,7.34667 0.89525,2.59506 0.99138,2.76707 0.88723,1.5875 -0.0642,-0.72761 -0.24568,-3.10886 -0.40318,-5.29167 -0.15751,-2.18281 -0.42639,-4.86172 -0.59753,-5.95312 l -0.31115,-1.98438 -1.93682,-0.17293 c -1.06526,-0.0951 -2.00668,-0.24279 -2.09205,-0.32816 -0.0854,-0.0854 -0.42868,0.52823 -0.7629,1.36356 -0.43864,1.09629 -1.02781,1.90519 -2.11798,2.90784 -0.83066,0.76399 -1.66686,1.38907 -1.85823,1.38907 -0.77627,0 -1.87029,-2.62188 -2.12972,-5.104 -0.1265,-1.2103 -0.244,-1.50523 -0.55253,-1.38684 -1.24083,0.47615 -2.80559,0.68824 -4.55706,0.61767 -1.95138,-0.0786 -1.98578,-0.0922 -2.06892,-0.81617 -0.13435,-1.1698 1.37077,-5.1823 2.11689,-5.64343 0.14175,-0.0876 -0.31875,-0.54752 -1.02333,-1.02202 -1.3084,-0.88112 -3.25797,-2.85388 -3.25797,-3.29671 0,-0.76557 4.01378,-2.74417 5.62511,-2.77291 1.0096,-0.018 1.22752,-0.10121 1.09841,-0.41934 -0.49111,-1.21006 -0.41311,-2.49853 0.28029,-4.63013 0.39921,-1.22723 0.89612,-2.37265 1.10423,-2.54537 0.94586,-0.78499 4.88013,2.19668 5.79843,4.39447 0.20956,0.50157 0.38103,1.38276 0.38103,1.95819 v 1.04623 l 1.65365,-0.90574 c 3.61167,-1.97822 4.42773,-2.2886 6.1104,-2.32404 2.25545,-0.0475 3.24529,0.55741 4.27449,2.61226 l 0.79375,1.58475 -0.002,8.13681 -0.002,8.1368 0.42631,-2.84514 c 0.80929,-5.40097 2.81397,-13.46562 3.84772,-15.47899 0.47476,-0.92464 1.09189,-0.9339 1.32131,-0.0198 0.41968,1.67214 -0.3344,14.80226 -1.35733,23.63389 -0.68025,5.87311 -0.6733,6.01412 0.0979,1.98438 1.75651,-9.17829 4.66312,-17.72779 7.66821,-22.55526 0.69072,-1.1096 1.17043,-1.38301 1.49763,-0.85358 0.39826,0.64439 -1.23469,9.31229 -3.82384,20.29748 -0.59133,2.50886 -1.07305,4.65198 -1.07049,4.7625 0.003,0.11052 0.46251,-0.93015 1.02211,-2.3126 2.83618,-7.00643 6.19602,-12.19764 7.22716,-11.16649 0.43756,0.43756 -0.44544,3.98178 -3.1188,12.51828 -2.52333,8.05743 -5.29906,18.12117 -5.92136,21.46852 l -0.33201,1.78594 h -7.60213 -7.60213 z m 6.07236,-29.56718 c 0.17852,-9.17304 -0.0958,-12.43424 -1.16692,-13.87466 -0.6758,-0.90878 -1.49611,-1.02742 -1.54822,-0.22391 -0.0697,1.0743 -1.1724,3.6345 -2.07446,4.81627 l -0.87823,1.15054 0.79566,0.58827 c 0.43762,0.32354 1.01067,1.08162 1.27344,1.68462 1.04974,2.40889 1.79937,9.38585 1.89453,17.63282 0.11436,9.91115 0.22705,10.28136 0.92615,3.04271 0.41083,-4.25377 0.66768,-9.14497 0.77805,-14.81666 z"
         id="path20350" />
      <path
         style="fill:#e1c760;stroke-width:1.16085"
         d="m 131.77035,167.42928 c -0.0471,-0.1819 -0.3478,-1.69995 -0.66825,-3.37344 -0.97409,-5.08706 -3.39645,-12.90253 -5.54597,-17.89344 -0.44679,-1.03739 -2.02246,-4.17216 -3.50149,-6.96618 -2.45548,-4.63861 -2.65267,-5.11649 -2.26939,-5.49977 0.38327,-0.38327 0.50741,-0.36173 1.42865,0.24792 3.58579,2.37296 8.17448,8.27846 10.31435,13.27427 0.38251,0.89301 1.39333,3.70726 2.24626,6.25387 0.85294,2.54661 1.47642,4.27302 1.38552,3.83646 -0.0909,-0.43656 -0.92729,-4.28812 -1.85865,-8.55902 -0.93136,-4.27089 -1.69338,-8.03839 -1.69338,-8.37221 0,-1.03917 0.72604,-0.99585 1.83114,0.10925 1.34671,1.34671 2.13824,2.73658 3.47753,6.10635 1.35533,3.41014 1.92399,6.10483 2.62425,12.43542 0.29779,2.69213 0.65877,5.54174 0.80217,6.33245 0.4742,2.61463 0.84428,2.3988 -4.11319,2.3988 -3.27708,0 -4.3954,-0.0829 -4.45955,-0.33073 z"
         id="path20349" />
      <path
         style="fill:#558d65;stroke-width:1.16085"
         d="m 141.57125,167.55669 c -0.0639,-0.10646 -0.37557,-2.93199 -0.69269,-6.27897 -0.74198,-7.83105 -1.1551,-11.51433 -1.99994,-17.83104 -0.72667,-5.43315 -0.66833,-6.15661 0.41725,-5.17418 0.77,0.69684 2.55055,4.4885 3.59682,7.65938 l 0.87302,2.64584 -0.1184,-1.5875 c -0.0651,-0.87313 -0.18564,-2.77813 -0.26782,-4.23333 -0.0822,-1.45521 -0.33984,-4.10435 -0.57259,-5.88698 l -0.42318,-3.24115 -1.22067,-0.006 c -0.67137,-0.003 -1.66602,-0.10974 -2.21032,-0.23615 -0.97753,-0.22702 -0.99288,-0.21803 -1.25353,0.73392 -0.14514,0.53006 -0.49686,1.34271 -0.7816,1.80588 -0.60171,0.97875 -3.128,3.05532 -3.55999,2.92624 -0.57145,-0.17074 -1.55414,-2.62164 -1.83621,-4.57962 -0.23271,-1.6153 -0.36132,-1.95274 -0.6948,-1.823 -0.98267,0.38231 -3.30915,0.66917 -4.83728,0.59645 l -1.65736,-0.0789 0.0159,-1.24484 c 0.0115,-0.89909 0.31019,-1.83703 1.07552,-3.37699 l 1.05964,-2.13214 -1.09074,-0.63922 c -0.5999,-0.35157 -1.59346,-1.1846 -2.20789,-1.85118 -0.93701,-1.01653 -1.07235,-1.29568 -0.83931,-1.73112 0.45212,-0.84479 3.95075,-2.38597 5.41641,-2.38597 0.98114,0 1.22544,-0.083 1.11223,-0.37808 -0.42923,-1.11855 -0.44279,-2.3156 -0.0437,-3.85583 0.49606,-1.91435 1.33452,-3.70358 1.73555,-3.70358 0.57305,0 2.46901,1.14299 3.5523,2.14153 1.33662,1.23206 2.34694,3.36727 2.1978,4.64482 -0.0569,0.48761 -0.0381,0.88386 0.0418,0.88055 0.0799,-0.003 0.91922,-0.43736 1.8651,-0.96456 3.77036,-2.10147 4.00365,-2.1875 5.95313,-2.19517 2.28252,-0.009 3.26607,0.51487 4.06487,2.16499 1.01572,2.09819 1.17151,3.84093 1.00009,11.18721 -0.0883,3.78354 -0.2398,7.17682 -0.3367,7.54062 -0.0969,0.36381 -0.0943,0.58719 0.006,0.49642 0.10013,-0.0908 0.41481,-1.68131 0.69929,-3.53453 1.15465,-7.5218 3.57689,-16.54105 4.44233,-16.54105 0.63683,0 0.8398,0.79722 0.83864,3.29406 -0.002,5.25152 -1.11352,19.21043 -1.99954,25.12061 -0.41498,2.7681 -0.34295,3.83014 0.0975,1.43808 1.90447,-10.34241 2.65343,-13.22417 4.96798,-19.11513 2.19651,-5.59053 3.94645,-8.59477 4.61624,-7.92498 0.5947,0.5947 -1.13725,9.6882 -4.62817,24.29983 -0.20763,0.86909 -0.34121,1.61649 -0.29683,1.66087 0.0444,0.0444 0.40402,-0.8453 0.79919,-1.97706 1.37404,-3.93518 4.2301,-9.41015 5.77434,-11.0692 2.84984,-3.06172 2.65668,-1.45822 -1.38832,11.525 -2.75506,8.84287 -4.22628,14.07059 -5.39842,19.18229 l -0.84939,3.70417 -7.44868,0.0613 c -4.09677,0.0337 -7.50092,-0.0258 -7.56478,-0.13229 z m 5.38519,-26.3873 c 0.43528,-6.43294 0.23817,-17.77523 -0.33955,-19.53804 -0.48643,-1.48426 -1.12711,-2.29009 -1.82073,-2.29009 -0.34534,0 -0.48816,0.19506 -0.48816,0.66672 0,0.97488 -1.21759,3.81034 -2.11661,4.92905 l -0.7781,0.96824 0.6502,0.42603 c 0.8788,0.57582 1.67873,2.22285 2.12944,4.38446 0.67014,3.21399 1.1734,10.02536 1.1734,15.88127 0,3.15674 0.0856,6.50113 0.19023,7.43198 0.17711,1.57575 0.22082,1.35494 0.63392,-3.20233 0.24404,-2.69214 0.58871,-7.03792 0.76596,-9.65729 z m -12.124,-4.56407 c 1.84718,-1.92802 2.25446,-3.51819 1.16357,-4.54303 -0.35149,-0.33021 -0.71094,-0.88674 -0.79879,-1.23674 -0.2028,-0.80801 -0.55412,-0.80804 -1.0835,-1e-4 -0.2293,0.34995 -0.70829,0.7094 -1.06444,0.79879 -0.55484,0.13925 -0.64753,0.3173 -0.64753,1.24377 0,0.96972 0.64983,4.01799 0.9654,4.52861 0.22463,0.36345 0.50298,0.21313 1.46529,-0.7913 z m 7.8,-5.40074 c -0.19692,-1.66274 -1.1259,-3.5911 -2.05424,-4.26421 -0.40515,-0.29376 -1.33814,-0.55723 -2.27361,-0.64205 -1.5334,-0.13905 -1.6056,-0.11704 -2.15717,0.65757 -0.77233,1.08464 -0.71755,2.10433 0.18991,3.53525 0.64655,1.01951 0.97381,1.26208 2.18281,1.61796 0.78223,0.23025 2.0639,0.42825 2.84815,0.43998 l 1.42592,0.0213 z m -13.82191,0.59977 c 0.45618,-0.17871 0.46314,-0.21764 0.0661,-0.36998 -0.24403,-0.0936 -0.44368,-0.41831 -0.44368,-0.72149 0,-0.37124 -0.25225,-0.63917 -0.77254,-0.82054 -0.42489,-0.14812 -0.83787,-0.43958 -0.91773,-0.64769 -0.26554,-0.69198 -0.6366,-0.392 -1.06298,0.85937 -0.64629,1.89674 -0.62167,1.93968 1.0996,1.91864 0.83675,-0.0102 1.75078,-0.10847 2.03118,-0.21831 z m 3.14623,-1.08692 c 1.47519,-0.2909 2.56166,-1.43367 2.56166,-2.69442 0,-0.72035 0.11349,-1.00883 0.39687,-1.00883 0.24966,0 0.39688,-0.25182 0.39688,-0.67885 0,-0.37337 0.12267,-0.90808 0.27261,-1.18824 0.34408,-0.64292 -0.33633,-2.08579 -1.00701,-2.13544 -2.18986,-0.16211 -4.55727,-0.007 -4.55727,0.29836 0,0.14552 0.211,0.26458 0.46888,0.26458 0.7019,0 2.45679,1.55939 2.87128,2.5514 0.51232,1.22617 0.45833,1.60794 -0.29745,2.10314 -0.61483,0.40285 -0.71029,0.40141 -1.35404,-0.0204 -0.62798,-0.41147 -0.68085,-0.57576 -0.5669,-1.76165 0.10644,-1.10775 0.0415,-1.36683 -0.42463,-1.6933 -0.85476,-0.5987 -2.46863,-0.50125 -2.82828,0.17077 -0.16372,0.30592 -0.23862,0.78205 -0.16644,1.05807 0.0722,0.27602 0.0233,0.56853 -0.10851,0.65002 -0.13186,0.0815 -0.23974,0.32677 -0.23974,0.54505 0,0.21828 0.1135,0.32672 0.25223,0.24098 0.41873,-0.25878 1.28232,0.66684 1.1378,1.21951 -0.0844,0.32258 0.11812,0.73593 0.56197,1.14728 0.38161,0.35366 0.69383,0.84004 0.69383,1.08084 0,0.31439 0.13054,0.38319 0.46302,0.24407 0.25466,-0.10656 0.91762,-0.28339 1.47324,-0.39295 z m -3.4515,-7.60586 c 0.75895,-0.47294 1.6584,-0.85989 1.99879,-0.85989 0.89813,0 0.5871,-0.57417 -0.62449,-1.15279 -1.3567,-0.64793 -3.081,-0.4772 -5.00329,0.49539 -1.38341,0.69994 -1.4531,0.78059 -1.11473,1.29021 0.19852,0.29897 0.94072,0.94314 1.64934,1.43148 l 1.28841,0.88788 0.21303,-0.61619 c 0.11717,-0.3389 0.83399,-1.00314 1.59294,-1.47609 z m 12.33066,1.62017 c 0.57497,-0.40272 2.41375,-3.82087 2.41375,-4.48696 0,-0.42345 -2.95272,-1.00411 -4.0547,-0.79738 -1.09804,0.206 -2.44805,1.08518 -3.17662,2.06876 l -0.5331,0.71968 0.6825,0.53685 c 0.46246,0.36378 0.6382,0.70626 0.54509,1.0623 -0.28075,1.0736 0.0706,1.3271 1.83944,1.3271 1.11325,0 1.87387,-0.14334 2.28364,-0.43035 z m -5.67649,-5.78735 c 0.0165,-1.27856 -0.1211,-1.82829 -0.7069,-2.8248 -0.7598,-1.2925 -2.28955,-2.72609 -3.14871,-2.95076 -1.00101,-0.26177 -1.92685,3.56105 -1.31295,5.4212 0.16562,0.50183 0.82972,1.4312 1.47577,2.06525 0.94662,0.92904 1.2476,1.09227 1.55051,0.84088 0.42219,-0.35039 1.23105,-0.14235 1.24728,0.3208 0.006,0.16634 0.20498,-0.0548 0.44257,-0.49132 0.25349,-0.46578 0.44043,-1.44971 0.45243,-2.38125 z"
         id="path20271" />
      <path
         style="fill:#558d65;stroke-width:1.16085"
         d="m 131.75904,167.1437 c -0.0622,-0.31587 -0.31106,-1.63999 -0.55303,-2.94248 -0.52911,-2.84813 -2.43822,-9.59322 -3.74719,-13.23922 -1.54547,-4.30472 -2.56401,-6.54446 -5.23072,-11.5021 -1.38949,-2.58319 -2.52635,-4.95196 -2.52635,-5.26393 0,-1.02986 1.08364,-0.65532 3.17159,1.09621 2.37873,1.99546 5.87767,6.51089 7.5198,9.70443 1.13892,2.21489 3.38214,8.2802 4.29833,11.62199 0.8318,3.03395 0.66644,1.24281 -0.26937,-2.91779 -2.2394,-9.95639 -2.90918,-13.46822 -2.6232,-13.7542 0.95944,-0.95944 3.05553,1.67924 4.85518,6.112 1.55775,3.83693 2.18512,6.75899 2.90731,13.5412 0.29971,2.81462 0.65396,5.59374 0.78722,6.17582 0.46761,2.04255 0.74714,1.91146 -4.11063,1.92775 -4.27465,0.0143 -4.36822,0.003 -4.47894,-0.55968 z"
         id="path20270" />
      <path
         style="fill:#225133;stroke-width:1.16085"
         d="m 143.6138,167.0324 c -0.008,-0.25466 -0.0931,-1.35598 -0.18987,-2.44739 -0.0968,-1.09141 -0.23797,-2.99641 -0.31368,-4.23333 -0.23018,-3.76036 -0.52084,-5.83351 -1.31689,-9.39271 -0.75552,-3.37803 -1.11,-5.42396 -0.93975,-5.42396 0.0925,0 0.54501,1.63711 1.00561,3.63802 1.09673,4.76432 1.17482,5.19041 1.26961,6.92776 0.0442,0.81002 0.0895,1.62862 0.1006,1.81911 0.0111,0.19048 0.10953,0.29143 0.21867,0.22432 0.10914,-0.0671 0.20771,0.37235 0.21904,0.97658 0.0113,0.60422 0.094,1.6939 0.18363,2.4215 0.0897,0.7276 0.18717,2.27542 0.21668,3.43958 0.0301,1.18927 0.18154,2.20184 0.34554,2.31106 0.17272,0.11502 0.072,0.19604 -0.24673,0.19843 -0.33294,0.003 -0.5439,-0.17276 -0.55246,-0.45897 z"
         id="path20188" />
      <path
         style="fill:#225133;stroke-width:1.16085"
         d="m 141.30971,165.5772 c -0.71125,-8.24279 -1.30423,-14.15005 -1.75957,-17.52865 -0.29418,-2.18281 -0.70153,-5.2189 -0.90522,-6.74687 -0.37125,-2.78486 -0.2793,-3.37979 0.47747,-3.08939 0.8553,0.32821 4.39186,8.66497 4.39186,10.35298 0,0.20795 0.13782,0.46327 0.30626,0.56737 0.21487,0.1328 0.25502,-7e-4 0.13455,-0.4474 -0.0944,-0.35018 -0.29702,-2.60122 -0.45018,-5.00231 -0.15316,-2.4011 -0.45184,-5.60674 -0.66372,-7.12366 -0.21188,-1.51692 -0.38524,-2.77937 -0.38524,-2.80545 0,-0.0261 -0.87541,-0.12141 -1.94535,-0.21185 -1.06994,-0.0905 -2.12489,-0.23334 -2.34433,-0.31755 -0.29719,-0.11405 -0.43943,0.0961 -0.55748,0.82353 -0.0872,0.53715 -0.47943,1.43977 -0.8717,2.00581 -0.80682,1.16424 -2.62839,2.60208 -3.29652,2.60208 -0.61876,0 -1.5812,-2.33862 -1.91896,-4.66285 l -0.27389,-1.88473 -0.81203,0.33677 c -1.00222,0.41564 -4.66001,0.77545 -5.56756,0.54766 -0.47502,-0.11922 -0.66843,-0.34571 -0.66843,-0.78276 0,-0.8524 0.87312,-3.30696 1.70874,-4.80371 0.38356,-0.68701 0.66202,-1.26858 0.6188,-1.29236 -0.0432,-0.0238 -0.43309,-0.2179 -0.86638,-0.43136 -1.16983,-0.57633 -3.31325,-2.72743 -3.31325,-3.32514 0,-0.91249 3.62709,-2.72329 5.49011,-2.74089 1.24288,-0.0117 1.23503,10e-4 0.84712,-1.39558 -0.1921,-0.69169 -0.18842,-1.32663 0.0122,-2.11667 0.50994,-2.00754 1.36518,-4.13069 1.71853,-4.26629 0.18946,-0.0727 0.83971,0.1327 1.445,0.45645 2.84213,1.52017 4.25364,3.42536 4.28175,5.77934 l 0.0171,1.43109 1.75917,-0.92557 c 4.67669,-2.4606 4.55457,-2.41298 6.18825,-2.41298 2.13686,0 3.14851,0.53004 4.00094,2.09623 1.05192,1.93273 1.31595,4.54153 1.12676,11.13294 -0.0898,3.1287 -0.2391,6.46245 -0.33177,7.40833 -0.23403,2.38873 0.0982,1.87705 0.4412,-0.67948 1.00949,-7.52448 3.68353,-18.10634 4.67125,-18.48537 0.22373,-0.0858 0.47469,0.13865 0.65161,0.58293 0.53841,1.35198 -0.60261,18.93471 -1.77117,27.29308 -0.65492,4.6844 -0.38738,4.88458 0.41524,0.31069 0.93669,-5.33791 1.6861,-8.68068 2.65459,-11.84082 1.94164,-6.33552 5.58034,-14.18337 6.35439,-13.70498 0.77497,0.47895 -0.19174,5.90626 -3.9766,22.32559 -0.92603,4.01729 -0.93944,4.96421 -0.0318,2.24736 0.6701,-2.00587 3.13572,-7.41129 4.33524,-9.50421 0.86419,-1.50783 2.50403,-3.30729 3.01393,-3.30729 0.88008,0 0.28524,2.56775 -3.09528,13.36146 -2.33786,7.46459 -4.72722,16.10021 -5.47218,19.7776 l -0.469,2.31511 -3.44612,5.7e-4 -3.44611,5.8e-4 0.0409,-2.71256 c 0.0396,-2.62655 0.0339,-2.65515 -0.17896,-0.902 -0.12092,0.99581 -0.30432,1.88878 -0.40755,1.98438 -0.1767,0.16364 0.0361,-6.68344 0.2701,-8.68972 0.0594,-0.50933 0.18289,-2.11667 0.27444,-3.57188 0.0915,-1.45521 0.22464,-3.12208 0.29576,-3.70417 0.29632,-2.42513 0.37712,-3.27875 0.50091,-5.29166 0.0716,-1.16417 0.18436,-2.47386 0.25061,-2.91042 0.0662,-0.43656 0.1919,-1.62719 0.27923,-2.64583 0.0873,-1.01865 0.26476,-2.4474 0.39427,-3.175 0.2922,-1.64158 0.64219,-4.60574 0.617,-5.22552 -0.0103,-0.25466 0.0871,-0.46302 0.21647,-0.46302 0.12941,0 0.17462,0.32742 0.10047,0.7276 -0.0742,0.40018 -0.20329,1.8587 -0.28697,3.24115 -0.0837,1.38245 -0.20835,2.8112 -0.27705,3.175 -0.0687,0.3638 -0.17927,1.49489 -0.24571,2.51354 -0.0664,1.01864 -0.17717,2.32833 -0.24609,2.91042 -0.20172,1.70385 -0.64157,6.43995 -0.81087,8.73124 -0.086,1.16417 -0.26852,3.06605 -0.40554,4.2264 -0.22935,1.94219 -0.3009,5.61371 -0.08,4.10798 0.17494,-1.1928 1.60681,-13.52682 1.82759,-15.74271 0.087,-0.87312 0.26143,-2.30187 0.38764,-3.175 0.12621,-0.87312 0.3013,-2.65906 0.3891,-3.96875 0.0878,-1.30969 0.21012,-2.79797 0.27184,-3.30729 0.0617,-0.50932 0.18883,-2.29526 0.28246,-3.96875 0.0936,-1.67349 0.20367,-3.2213 0.24454,-3.43958 0.18325,-0.97872 0.44488,-5.55625 0.31757,-5.55625 -0.49495,0 -2.76422,12.06158 -3.88275,20.6375 -0.75957,5.82367 -0.77468,5.96145 -0.94337,8.59895 -0.0838,1.30969 -0.37648,4.46485 -0.65048,7.01146 -0.274,2.54662 -0.5619,5.90312 -0.63978,7.4589 l -0.14161,2.82869 0.98565,0.10339 c 0.5421,0.0569 -0.0438,0.12342 -1.30197,0.14788 l -2.28762,0.0445 -0.0396,-3.48427 c -0.0409,-3.59898 -0.53599,-7.15148 -1.75246,-12.5753 -0.83519,-3.72387 -2.88181,-9.8696 -3.28671,-9.8696 -0.11637,0 -0.11416,0.44648 0.005,0.99219 0.2294,1.05139 1.0294,6.17976 1.20724,7.73906 0.0581,0.50932 0.21935,1.69995 0.35835,2.64583 0.24605,1.67432 0.38179,3.06004 0.69974,7.14375 0.085,1.09141 0.26014,2.46063 0.38924,3.04271 0.1291,0.58208 0.23764,1.73302 0.2412,2.55764 0.004,0.9466 0.12839,1.5485 0.3372,1.63276 0.1819,0.0734 -0.0983,0.14285 -0.62264,0.15434 l -0.95336,0.0209 z m 11.79044,1.32291 c 0.0646,-0.1819 0.14707,-0.98557 0.18319,-1.78593 0.0744,-1.64975 0.12086,-2.04899 0.53828,-4.63021 0.16473,-1.01865 0.35343,-2.20927 0.41934,-2.64584 0.13519,-0.8954 1.41764,-7.78305 2.41395,-12.96458 0.36375,-1.89177 1.19883,-5.64224 1.85574,-8.33437 1.25653,-5.14945 2.7486,-12.49315 2.57517,-12.67448 -0.0562,-0.0587 -0.28529,0.35799 -0.50915,0.92604 -0.22386,0.56805 -0.53837,1.26405 -0.69892,1.54667 -0.45449,0.80008 -2.20847,5.83264 -3.09897,8.89161 -0.79596,2.73423 -1.63564,6.75018 -2.65888,12.71681 -0.28978,1.68975 -0.82441,4.60678 -1.18805,6.48229 -0.93463,4.82031 -1.45677,8.9592 -1.47327,11.67824 -0.006,1.06537 0.0334,1.12448 0.75861,1.12448 0.421,0 0.81833,-0.14883 0.88296,-0.33073 z m 2.22376,-20.64378 c 0.27151,-2.38656 0.34544,-2.8555 0.59902,-3.7998 0.15103,-0.56241 0.34445,-1.49881 0.42982,-2.08089 0.0854,-0.58209 0.26557,-1.41553 0.40043,-1.85209 0.55255,-1.78865 1.27893,-5.0007 1.17053,-5.17608 -0.0639,-0.10336 0.0611,-0.33505 0.27783,-0.51488 0.23914,-0.19847 0.39396,-0.21892 0.39396,-0.052 0,0.15121 -0.14883,0.33498 -0.33073,0.40838 -0.22376,0.0903 -0.23147,0.14021 -0.0239,0.15434 0.3233,0.022 0.33434,-0.0333 -1.07645,5.39508 -0.37109,1.42783 -0.65511,2.67799 -0.63118,2.77812 0.0239,0.10014 -0.178,1.13456 -0.44874,2.29873 -0.27074,1.16417 -0.47895,2.32268 -0.46269,2.57448 0.0163,0.25179 -0.066,0.51685 -0.18274,0.58902 -0.11677,0.0722 -0.16861,-0.25291 -0.11519,-0.72239 z m 0.48815,19.45316 c 0.4911,-3.97532 2.74389,-12.14728 6.21995,-22.56278 1.17682,-3.52617 2.08473,-6.46615 2.01759,-6.53329 -0.0671,-0.0671 0.0464,-0.61734 0.25229,-1.22264 0.63495,-1.86658 -0.22633,-0.48042 -2.27531,3.66194 -2.27373,4.5967 -4.18492,9.80047 -5.1502,14.02291 -0.73962,3.2353 -1.73071,8.4125 -1.97537,10.31875 -0.16809,1.30969 -0.3477,2.70868 -0.39915,3.10886 -0.0784,0.60976 0.005,0.7276 0.51436,0.7276 0.54186,0 0.6283,-0.16525 0.79584,-1.52135 z m 0.95837,-9.02379 c -0.0423,-0.56207 0.7802,-3.5817 1.05182,-3.86142 0.35767,-0.36833 0.30555,0.20647 -0.12427,1.37048 -0.20259,0.54865 -0.48809,1.41426 -0.63445,1.92358 -0.14635,0.50933 -0.27825,0.76464 -0.2931,0.56736 z m 1.16361,-4.90772 c 0,-0.3499 0.10953,-0.5685 0.2434,-0.48576 0.13387,0.0827 0.16737,-0.0477 0.0745,-0.28985 -0.0929,-0.24215 -0.0536,-0.44028 0.0873,-0.44028 0.29203,0 0.32023,0.39587 0.0895,1.25677 -0.21019,0.78431 -0.4947,0.76079 -0.4947,-0.0409 z m 0.39803,-1.4937 c 0.001,-0.11278 0.88953,-2.57071 1.76446,-4.88156 0.22039,-0.58208 0.44438,-1.23693 0.49774,-1.45521 0.22816,-0.93318 0.82225,-2.3516 1.15072,-2.74739 0.19519,-0.23518 0.2662,-0.42761 0.1578,-0.42761 -0.1084,0 -0.084,-0.14883 0.0543,-0.33073 0.13828,-0.1819 0.46312,-0.90351 0.72187,-1.60357 0.25875,-0.70007 0.52364,-1.21967 0.58863,-1.15468 0.065,0.065 -0.31087,1.17356 -0.83525,2.46347 -0.52437,1.28992 -0.9889,2.46436 -1.03227,2.60989 -0.0434,0.14552 -0.15192,0.44317 -0.24123,0.66145 -0.33334,0.81477 -1.55796,4.14276 -1.9472,5.29167 -0.34051,1.00507 -0.88351,1.9769 -0.87961,1.57427 z m -11.91146,7.97278 c 0.005,-1.2066 -0.17733,-0.96228 -0.37929,0.50712 -0.11671,0.84914 -0.0864,1.07679 0.1058,0.79375 0.14819,-0.21829 0.27127,-0.80368 0.27349,-1.30087 z m -0.43922,-4.45382 c 0.0904,-1.12779 0.39659,-4.72943 0.68047,-8.00365 1.26928,-14.63972 0.85766,-25.183 -1.02245,-26.1892 -0.91083,-0.48746 -1.25676,-0.31206 -1.42604,0.72306 -0.21724,1.32828 -1.54922,4.08437 -2.32397,4.80868 l -0.62411,0.58347 0.83549,0.71043 c 0.45953,0.39074 1.02121,1.08401 1.24819,1.54059 0.60563,1.21827 1.43894,6.20969 1.6359,9.7989 0.0944,1.72111 0.21006,3.36741 0.25693,3.65845 0.0469,0.29104 0.0941,3.65456 0.10487,7.47448 0.0192,6.78631 0.30594,8.99749 0.63472,4.89479 z m 1.91001,-7.47448 c 0.10292,-1.52797 0.12181,-2.71782 0.042,-2.64412 -0.0798,0.0737 -0.21973,1.14527 -0.31091,2.38125 -0.0912,1.23599 -0.22781,2.5449 -0.30363,2.9087 -0.0911,0.43721 -0.0492,0.57176 0.12378,0.39688 0.1439,-0.14552 0.34585,-1.51474 0.44878,-3.04271 z m -12.89039,-9.83639 c 0.70946,-0.70244 1.24583,-1.54604 1.47195,-2.31511 0.346,-1.17679 0.3356,-1.23306 -0.37917,-2.05247 -0.40421,-0.46338 -0.81299,-1.08846 -0.9084,-1.38906 -0.22877,-0.7208 -0.5606,-0.69028 -1.07785,0.0991 -0.23269,0.35513 -0.68192,0.68255 -0.99828,0.7276 -0.46243,0.0659 -0.5928,0.28944 -0.66489,1.14025 -0.14129,1.6676 0.67453,4.89479 1.23739,4.89479 0.11168,0 0.70535,-0.49731 1.31925,-1.10514 z m 7.74878,-4.38496 c 0.10627,-1.68009 -0.72407,-3.85218 -1.90516,-4.98373 -0.64933,-0.62209 -1.05803,-0.76422 -2.45297,-0.85305 -1.56871,-0.0999 -1.70965,-0.061 -2.24437,0.61875 -0.96164,1.22253 -0.64447,3.22629 0.70381,4.44647 0.76037,0.68813 2.576,1.19626 4.34805,1.21688 1.26866,0.0148 1.52621,-0.0592 1.55064,-0.44532 z m -13.83158,-0.29796 c 0.28191,-0.17871 0.26494,-0.25747 -0.0844,-0.39152 -0.28886,-0.11085 -0.38245,-0.34064 -0.27571,-0.67694 0.11991,-0.37783 0.005,-0.55464 -0.44478,-0.68557 -0.3335,-0.097 -0.86889,-0.48882 -1.18976,-0.87062 l -0.58338,-0.69419 -0.53529,1.18001 c -0.2944,0.64901 -0.53789,1.44791 -0.54109,1.77533 -0.005,0.55491 0.10643,0.59504 1.64784,0.59126 0.9095,-0.002 1.81245,-0.10472 2.00656,-0.22776 z m 2.02833,-0.82652 c 0.0899,-0.14552 0.56718,-0.26459 1.06054,-0.26459 1.26768,0 2.50842,-1.34051 2.51011,-2.71197 8.7e-4,-0.70502 0.1161,-0.99219 0.3981,-0.99219 0.24966,0 0.39688,-0.25182 0.39688,-0.67885 0,-0.37337 0.12649,-0.9152 0.28108,-1.20407 0.21684,-0.40517 0.16813,-0.71869 -0.21311,-1.37167 -0.41377,-0.70871 -0.66403,-0.85327 -1.53786,-0.88835 -1.57112,-0.0631 -3.82178,0.21677 -3.82178,0.4752 0,0.12548 0.16073,0.22815 0.35718,0.22815 0.19645,0 0.83351,0.34506 1.41569,0.76679 1.10352,0.79938 2.04998,2.58482 1.76453,3.32868 -0.21653,0.56428 -1.254,0.77489 -1.95888,0.39765 -0.5225,-0.27964 -0.57033,-0.45878 -0.43271,-1.6207 0.14611,-1.23368 0.11144,-1.33263 -0.62353,-1.77959 -0.90793,-0.55215 -2.27512,-0.45034 -2.61952,0.19505 -0.12676,0.23755 -0.31562,1.14629 -0.41969,2.01942 -0.15576,1.3068 -0.12774,1.52902 0.15844,1.25677 0.65008,-0.61843 1.07731,-0.39396 0.93759,0.4926 -0.10238,0.64961 -0.024,0.85099 0.37135,0.95439 0.27562,0.0721 0.65358,0.47547 0.83992,0.89645 0.34165,0.77183 0.83399,0.98896 1.13567,0.50083 z m 1.50813,-3.75709 c -0.46241,-0.4624 -0.38937,-0.86527 0.0854,-0.47122 0.33793,0.28046 0.37535,0.26254 0.23198,-0.11108 -0.22736,-0.5925 -0.74584,-0.39454 -0.85175,0.32522 -0.0596,0.40511 0.0536,0.57458 0.38364,0.57458 0.36415,0 0.39764,-0.0705 0.1507,-0.3175 z m 8.63425,-2.66313 c 0.69175,-0.63624 2.1602,-3.48938 2.16054,-4.19785 1.4e-4,-0.28998 -0.38553,-0.52874 -1.17529,-0.72761 -2.54279,-0.64028 -4.21956,-0.22608 -5.64166,1.3936 -0.99445,1.13261 -1.04071,1.36781 -0.34252,1.74147 0.3378,0.18078 0.5413,0.61358 0.59531,1.26608 0.0772,0.93308 0.14434,1.0014 1.14041,1.16134 1.50711,0.24199 2.52316,0.0436 3.26321,-0.63703 z m -12.60812,-1.36798 c 0.80133,-0.53965 1.72696,-0.94305 2.16388,-0.94305 0.68035,0 0.72397,-0.0477 0.4004,-0.43786 -0.5422,-0.6538 -1.92223,-1.14967 -3.19889,-1.14943 -1.13828,2.1e-4 -4.44027,1.33218 -4.44027,1.79113 0,0.32685 1.30414,1.50396 2.37719,2.14562 0.90087,0.53871 0.92628,0.53971 1.10966,0.044 0.10322,-0.27904 0.81784,-0.93172 1.58803,-1.45039 z m 6.72465,-3.64852 c 0.20146,-1.7141 -0.46113,-3.50172 -1.82507,-4.92388 -0.95152,-0.99214 -2.19702,-1.7269 -2.55367,-1.50648 -0.41467,0.25629 -1.15342,2.86437 -1.13608,4.01088 0.0224,1.47942 0.6448,2.69036 1.93249,3.7596 0.88306,0.73326 1.13214,0.82717 1.46382,0.5519 0.32496,-0.26969 0.48034,-0.25108 0.8309,0.0995 0.39855,0.39854 0.45721,0.39406 0.77467,-0.0592 0.18891,-0.2697 0.41973,-1.13925 0.51294,-1.93233 z m 7.96667,-0.93497 c 0.0193,-0.25598 0.0744,-0.64011 0.12245,-0.85361 0.12636,-0.56129 -0.91851,-0.64215 -1.87908,-0.14542 -1.00745,0.52097 -1.04441,0.93401 -0.0841,0.93935 0.40018,0.002 0.9062,0.11947 1.12448,0.26053 0.55962,0.36166 0.67629,0.32894 0.7162,-0.20085 z"
         id="path20187" />
      <path
         style="fill:#225133;stroke-width:1.16085"
         d="m 131.4887,165.24647 c -0.7989,-4.46578 -2.98296,-11.91077 -4.96757,-16.93334 -1.14011,-2.88536 -3.56179,-7.8226 -5.41054,-11.03084 -2.14609,-3.72423 -1.50657,-4.63593 1.51074,-2.15369 2.88323,2.37194 6.64,7.35134 8.33285,11.04474 0.83044,1.81184 3.47148,9.40377 4.09018,11.75765 0.16642,0.63315 0.36038,1.09339 0.43102,1.02275 0.0706,-0.0706 -0.40397,-2.55321 -1.0547,-5.51681 -1.10665,-5.04 -2.39867,-11.10162 -2.70812,-12.70538 -0.16577,-0.85909 0.2799,-1.18655 1.04515,-0.76793 1.57792,0.8632 4.21513,6.05229 5.35611,10.53893 0.34324,1.3497 0.93333,5.1597 1.31131,8.46667 0.37798,3.30696 0.79491,6.48891 0.9265,7.071 0.1316,0.58208 0.24218,1.14763 0.24574,1.25677 0.0112,0.34512 -1.22717,0.21417 -1.25116,-0.13229 -0.0126,-0.1819 -0.26871,-2.11667 -0.56914,-4.29948 -0.30043,-2.18281 -0.67233,-5.04031 -0.82645,-6.35 -0.39646,-3.36915 -0.72294,-4.98678 -1.49521,-7.40834 -0.6638,-2.08139 -2.96092,-7.13405 -3.15512,-6.93985 -0.10495,0.10494 0.95891,5.4095 1.44489,7.20444 0.25151,0.92897 2.06043,9.813 2.24704,11.03572 0.0386,0.25301 0.15264,0.54246 0.25341,0.64322 0.25314,0.25315 0.22588,-0.7978 -0.0696,-2.68311 -0.13685,-0.87312 -0.31679,-2.06375 -0.39986,-2.64583 -0.0831,-0.58209 -0.39156,-2.18943 -0.6855,-3.57188 -0.29395,-1.38244 -0.60456,-2.89813 -0.69024,-3.36818 -0.0857,-0.47005 -0.2299,-0.80885 -0.32047,-0.75287 -0.0906,0.056 -0.16467,-0.17315 -0.16467,-0.50916 0,-0.84446 0.3179,-0.56977 0.53936,0.46606 0.10076,0.47127 0.2658,0.97592 0.36676,1.12144 0.60481,0.87181 1.91697,8.78662 1.90068,11.4647 -0.005,0.82494 0.10256,2.15473 0.23905,2.9551 0.1365,0.80036 0.27604,1.90969 0.31009,2.46518 0.0356,0.58048 0.2353,1.10784 0.46965,1.24012 0.25121,0.14179 -0.98086,0.26193 -3.20922,0.31294 l -3.61697,0.0828 z m 2.50986,1.4726 c -0.15064,-0.28148 -0.27558,-0.78749 -0.27765,-1.12448 -0.007,-1.10733 -2.29368,-9.79899 -3.74639,-14.23875 -0.45234,-1.38244 -1.23,-3.32941 -1.72813,-4.32659 -0.89033,-1.78232 -1.05718,-2.62094 -0.28577,-1.43635 2.02423,3.10843 6.54921,16.60407 6.56141,19.56922 0.005,1.28078 0.27042,2.06872 0.69613,2.06872 0.29177,0 0.33817,-0.27489 0.21216,-1.25677 -0.6407,-4.99232 -3.82772,-15.43294 -6.08245,-19.926 -1.65077,-3.28951 -6.28056,-9.54062 -7.68115,-10.37102 -0.18615,-0.11036 0.56379,1.43745 1.66653,3.43959 3.11153,5.64931 4.64276,9.07803 6.23658,13.96489 1.731,5.30747 2.68588,8.95782 3.13025,11.9665 0.29938,2.02699 0.36701,2.18281 0.94738,2.18281 0.53592,0 0.58596,-0.0729 0.3511,-0.51177 z m -7.73572,-23.63146 c -0.355,-0.47294 -0.74917,-1.03849 -0.87594,-1.25677 -0.19642,-0.33823 -0.16636,-0.3449 0.20343,-0.0452 0.41215,0.33407 1.60421,2.16183 1.40994,2.16183 -0.0506,0 -0.38242,-0.38695 -0.73743,-0.8599 z m 11.59895,23.74497 c -0.0841,-0.21904 -0.34937,-1.3799 -0.5896,-2.57968 -0.24022,-1.19979 -0.4975,-2.24096 -0.57173,-2.31372 -0.0742,-0.0728 -0.0624,0.93927 0.0262,2.24895 0.0886,1.30969 0.16383,2.53008 0.16709,2.71198 0.003,0.1819 0.25679,0.33073 0.5634,0.33073 0.38769,0 0.51093,-0.12129 0.40465,-0.39826 z"
         id="path20182" />
      <path
         style="fill:#082811;stroke-width:1.16085"
         d="m 133.1955,114.38798 c -1.03937,-1.08115 -1.07552,-1.15375 -0.28458,-0.57151 0.77759,0.57242 1.86883,1.83126 1.57362,1.81531 -0.0541,-0.003 -0.6342,-0.56263 -1.28904,-1.2438 z"
         id="path19967" />
      <path
         style="fill:#082811;stroke-width:1.16085"
         d="m 129.242,117.07418 c -0.0166,-0.59573 0.76048,-3.39925 0.90059,-3.24912 0.0473,0.0507 -0.13248,0.92568 -0.39962,1.94433 -0.26714,1.01864 -0.49258,1.6058 -0.50097,1.30479 z"
         id="path19966" />
      <path
         style="fill:#082811;stroke-width:1.16085"
         d="m 136.01772,119.69404 c -0.097,-0.097 -0.17639,-0.7566 -0.17639,-1.46575 0,-0.74831 -0.21269,-1.70627 -0.50686,-2.2829 -0.92994,-1.82283 -3.87531,-4.05197 -4.85643,-3.67548 -0.19014,0.073 -0.62672,1.0287 -0.97018,2.12385 -0.48807,1.55628 -0.58977,2.32736 -0.4656,3.53036 0.10322,1.0002 0.0721,1.402 -0.0889,1.14743 -0.69782,-1.10357 0.34932,-6.31476 1.40236,-6.979 0.82346,-0.51942 3.57083,1.22184 4.86972,3.0864 0.51836,0.74411 0.73753,1.4657 0.86389,2.84427 0.0931,1.01596 0.15479,1.84721 0.13703,1.84721 -0.0178,0 -0.11166,-0.0794 -0.20868,-0.17639 z"
         id="path19963" />
      <path
         style="fill:#082811;stroke-width:1.16085"
         d="m 135.35451,119.02776 c -0.0233,-0.68175 -0.16105,-1.55176 -0.30613,-1.93335 -0.16246,-0.4273 -0.16639,-0.63362 -0.0102,-0.53711 0.35137,0.21716 0.60149,1.71122 0.46903,2.80174 -0.0933,0.7685 -0.11683,0.71752 -0.15266,-0.33128 z"
         id="path19962" />
      <path
         style="fill:#082811;stroke-width:1.16085"
         d="m 131.02678,120.72544 c -1.07321,-1.12282 -1.54066,-1.92762 -1.52383,-2.62359 0.006,-0.26422 0.17965,-0.009 0.38503,0.56801 0.20557,0.57718 0.8247,1.4283 1.37745,1.89358 0.55221,0.46483 0.93676,0.91359 0.85455,0.99724 -0.0822,0.0837 -0.57416,-0.29221 -1.0932,-0.83524 z"
         id="path19954" />
      <path
         style="fill:#082811;stroke-width:1.16085"
         d="m 130.15279,121.20249 c -0.58208,-0.26795 -1.35599,-0.61458 -1.71979,-0.77031 -0.63013,-0.26973 -0.62387,-0.27542 0.13229,-0.12033 0.83821,0.17192 2.77813,1.06832 2.77813,1.28372 0,0.16174 0.0519,0.17889 -1.19063,-0.39308 z"
         id="path19953" />
      <path
         style="fill:#082811;stroke-width:1.16085"
         d="m 154.66909,121.02795 c -0.053,-1.69576 -0.30793,-3.00964 -0.58406,-3.00964 -0.11605,0 -0.35116,0.4247 -0.52246,0.94377 -0.17131,0.51908 -0.36612,0.88913 -0.4329,0.82235 -0.24735,-0.24735 0.69026,-2.0307 1.06766,-2.0307 0.44646,0 0.81215,2.16384 0.62601,3.70417 -0.0888,0.735 -0.12064,0.6463 -0.15425,-0.42995 z"
         id="path19952" />
      <path
         style="fill:#082811;stroke-width:1.16085"
         d="m 148.72194,121.29762 c -0.26455,-2.15575 -1.12628,-3.81389 -2.29727,-4.42041 -1.51608,-0.78525 -4.11155,-0.49353 -6.02345,0.677 -1.45021,0.88787 -4.32836,2.35394 -3.50155,1.78361 1.22476,-0.84482 4.22972,-2.52729 5.02708,-2.81464 2.30464,-0.83054 4.89554,-0.20629 5.99863,1.44531 0.63093,0.94466 1.2406,3.38014 1.0885,4.34825 -0.0515,0.328 -0.1829,-0.1306 -0.29194,-1.01912 z"
         id="path19949" />
      <path
         style="fill:#082811;stroke-width:1.16085"
         d="m 152.01565,123.17772 c 0.007,-0.55773 0.97062,-3.36563 0.9992,-2.91042 0.009,0.14552 -0.21336,0.97896 -0.49444,1.85209 -0.28107,0.87312 -0.50821,1.34937 -0.50476,1.05833 z"
         id="path19945" />
      <path
         style="fill:#082811;stroke-width:1.16085"
         d="m 128.433,123.38518 c 0,-0.40189 1.77336,-1.18116 2.41265,-1.0602 0.55778,0.10554 0.539,0.12735 -0.16369,0.19008 l -0.79375,0.0709 0.79375,0.19874 c 0.74263,0.18593 0.7311,0.194 -0.1792,0.12521 -0.53793,-0.0406 -1.21814,0.0982 -1.52135,0.31061 -0.30163,0.21127 -0.54841,0.28538 -0.54841,0.1647 z"
         id="path19944" />
      <path
         style="fill:#082811;stroke-width:1.16085"
         d="m 136.41284,124.21091 c -0.0233,-0.45038 -0.28046,-1.03438 -0.57151,-1.29777 -0.29104,-0.26339 -0.52432,-0.60927 -0.51841,-0.76862 0.0274,-0.73944 2.70331,-3.0878 3.08431,-2.70681 0.0925,0.0925 0.0266,0.16813 -0.14646,0.16813 -0.44492,0 -2.68402,2.11248 -2.68402,2.53224 0,0.1915 0.24661,0.52091 0.54802,0.73202 0.41767,0.29255 0.52214,0.59506 0.43922,1.27178 l -0.1088,0.88792 z"
         id="path19939" />
      <path
         style="fill:#082811;stroke-width:1.16085"
         d="m 140.72723,124.90583 c 0.43335,-0.28565 1.16821,-1.26248 1.64081,-2.18107 0.47077,-0.91504 0.86173,-1.57102 0.86879,-1.45773 0.007,0.11329 -0.33658,0.89817 -0.76365,1.74419 -0.68513,1.35723 -1.7069,2.41888 -2.32306,2.4137 -0.11426,-9.5e-4 0.14544,-0.23455 0.57711,-0.51909 z"
         id="path19935" />
      <path
         style="fill:#082811;stroke-width:1.16085"
         d="m 141.86913,124.76521 c 0.45368,-0.58208 1.0864,-1.74534 1.40604,-2.58502 0.31965,-0.83968 0.62859,-1.47929 0.68653,-1.42135 0.27051,0.27051 -1.36033,3.62173 -2.09281,4.30053 l -0.82462,0.76417 z"
         id="path19933" />
      <path
         style="fill:#082811;stroke-width:1.16085"
         d="m 147.25393,124.8975 c -0.0972,-2.64292 -1.15128,-5.55625 -2.01037,-5.55625 -0.20634,0 -0.44776,-0.11746 -0.53648,-0.26102 -0.42741,-0.69156 1.12284,0.2794 1.62826,1.01981 0.63573,0.93135 1.26784,3.96523 1.08223,5.19434 -0.093,0.61611 -0.12966,0.5273 -0.16364,-0.39688 z"
         id="path19932" />
      <path
         style="fill:#082811;stroke-width:1.16085"
         d="m 125.39029,125.4661 c -1.04416,-0.64164 -3.04271,-2.6596 -3.04271,-3.07226 0,-0.93446 3.7745,-2.80471 5.55625,-2.75311 l 1.19063,0.0345 -1.47594,0.19017 c -1.5445,0.19901 -4.69012,1.67924 -4.93728,2.32333 -0.17545,0.45721 1.28803,2.01427 2.827,3.00776 1.28002,0.82632 1.17577,1.06461 -0.11795,0.26962 z"
         id="path19931" />
      <path
         style="fill:#082811;stroke-width:1.16085"
         d="m 140.59656,126.81574 c -0.3951,-0.27965 -1.38768,-0.52467 -2.50627,-0.61868 l -1.85208,-0.15565 1.68856,-0.0428 c 1.30147,-0.033 1.89285,0.0835 2.57969,0.50796 0.49012,0.30291 0.89112,0.60057 0.89112,0.66146 0,0.18321 -0.1173,0.13162 -0.80102,-0.35231 z"
         id="path19925" />
      <path
         style="fill:#082811;stroke-width:1.16085"
         d="m 150.95167,127.90653 c -0.0469,-0.48139 0.84418,-4.22546 0.93658,-3.93506 0.0463,0.14552 -0.13894,1.15755 -0.41165,2.24896 -0.27271,1.0914 -0.50893,1.85015 -0.52493,1.6861 z"
         id="path19922" />
      <path
         style="fill:#082811;stroke-width:1.16085"
         d="m 143.24301,128.5815 c -0.20713,-0.62759 -0.74984,-1.40511 -1.29369,-1.8534 -0.51529,-0.42474 -0.79986,-0.77226 -0.63237,-0.77226 0.8111,0 2.88501,3.10465 2.39874,3.59092 -0.0637,0.0637 -0.27644,-0.37063 -0.47268,-0.96526 z"
         id="path19915" />
      <path
         style="fill:#082811;stroke-width:1.16085"
         d="m 154.00273,131.08111 c 0.0704,-0.56332 0.23154,-2.57204 0.35813,-4.46381 l 0.23017,-3.43958 -0.13229,4.23333 c -0.0728,2.32834 -0.23393,4.33705 -0.35814,4.46381 -0.12513,0.1277 -0.16878,-0.22627 -0.0979,-0.79375 z"
         id="path19909" />
      <path
         style="fill:#082811;stroke-width:1.16085"
         d="m 137.48351,132.12893 c -0.84874,-0.4183 -2.17719,-2.27175 -2.16553,-3.02133 0.003,-0.2055 0.22561,0.10262 0.49426,0.6847 0.57151,1.23829 1.43265,2.0711 2.54264,2.45898 0.43656,0.15255 0.61515,0.28406 0.39687,0.29223 -0.21828,0.008 -0.78899,-0.17839 -1.26824,-0.41458 z"
         id="path19907" />
      <path
         style="fill:#082811;stroke-width:1.16085"
         d="m 128.433,132.56671 c 0.80037,-0.10941 1.8124,-0.33941 2.24896,-0.51112 0.43656,-0.17171 0.67469,-0.2019 0.52917,-0.0671 -0.47871,0.44348 -2.04406,0.84712 -3.14834,0.81181 -1.01273,-0.0324 -0.98808,-0.0479 0.37021,-0.23361 z"
         id="path19905" />
      <path
         style="fill:#082811;stroke-width:1.16085"
         d="m 124.30599,132.46587 c -0.19558,-0.50967 0.34073,-2.41133 1.1271,-3.99648 1.05972,-2.13618 1.26434,-2.03279 0.26183,0.13229 -1.17463,2.53678 -1.43169,3.87874 -0.77571,4.04939 0.45151,0.11747 0.4515,0.12383 -2.4e-4,0.15325 -0.25923,0.0169 -0.53507,-0.13542 -0.61298,-0.33845 z"
         id="path19904" />
      <path
         style="fill:#082811;stroke-width:1.16085"
         d="m 139.41321,133.35071 c -0.52195,-0.1417 -0.25015,-0.16493 0.79375,-0.0679 0.87312,0.0812 1.63711,0.19224 1.69774,0.24678 0.19686,0.17709 -1.67536,0.0426 -2.49149,-0.17891 z"
         id="path19898" />
      <path
         style="fill:#082811;stroke-width:1.16085"
         d="m 149.01847,129.26311 c 0.069,-3.34698 0.1684,-6.13503 0.22099,-6.19566 0.16915,-0.19502 0.0497,7.7067 -0.15163,10.03211 -0.11109,1.28293 -0.14088,-0.36502 -0.0694,-3.83645 z"
         id="path19892" />
      <path
         style="fill:#082811;stroke-width:1.16085"
         d="m 147.59329,131.11522 c 2.5e-4,-2.7649 0.0395,-3.86004 0.0871,-2.43365 0.0477,1.42638 0.0475,3.68857 -4.6e-4,5.02708 -0.0479,1.33851 -0.0869,0.17146 -0.0867,-2.59343 z"
         id="path19885" />
      <path
         style="fill:#082811;stroke-width:1.16085"
         d="m 149.48226,135.74543 c 0.16789,-1.87141 1.20243,-7.46984 1.35261,-7.31966 0.10048,0.10048 -0.44227,3.39645 -1.22714,7.45195 l -0.25602,1.32292 z"
         id="path19879" />
      <path
         style="fill:#082811;stroke-width:1.16085"
         d="m 132.45719,137.39907 c -0.29639,-0.69122 -0.61556,-1.73302 -0.70928,-2.3151 -0.0937,-0.58208 -0.2247,-1.35599 -0.29108,-1.71979 -0.0852,-0.46713 -0.0524,-0.54486 0.11175,-0.26459 0.12784,0.21829 0.30727,0.97321 0.39873,1.67763 0.31515,2.42705 1.54373,4.33728 2.15423,3.34946 0.0899,-0.14552 0.0593,-0.26459 -0.068,-0.26459 -0.12736,0 0.32259,-0.57492 0.9999,-1.27761 0.87064,-0.90328 1.32502,-1.64918 1.55077,-2.54573 0.17562,-0.69746 0.3674,-1.22002 0.42618,-1.16124 0.35802,0.35802 -0.61166,2.52219 -1.64514,3.67167 -0.64923,0.7221 -1.06549,1.31291 -0.92502,1.31291 0.38367,0 2.35218,-2.2186 2.56586,-2.89184 0.10258,-0.32319 0.24395,-0.53018 0.31415,-0.45997 0.49432,0.49432 -2.88445,4.14556 -3.83621,4.14556 -0.35392,0 -0.67131,-0.38105 -1.04681,-1.25677 z"
         id="path19867" />
      <path
         style="fill:#082811;stroke-width:1.16085"
         d="m 160.19232,140.42054 c -0.024,-0.56515 3.01272,-6.00568 3.9755,-7.1225 1.29294,-1.4998 1.85292,-1.62351 1.79637,-0.39687 -0.0369,0.80034 -0.0473,0.8095 -0.14987,0.13229 -0.0606,-0.40018 -0.20703,-0.72761 -0.32536,-0.72761 -0.49197,0 -2.36291,2.68199 -3.77529,5.41187 -0.83162,1.60738 -1.51623,2.82365 -1.52135,2.70282 z"
         id="path19860" />
      <path
         style="fill:#082811;stroke-width:1.16085"
         d="m 147.31505,138.78814 c 6.9e-4,-1.45521 0.0451,-2.01677 0.0987,-1.24791 0.0536,0.76887 0.053,1.95949 -0.001,2.64584 -0.0543,0.68634 -0.0982,0.0573 -0.0975,-1.39793 z"
         id="path19856" />
      <path
         style="fill:#082811;stroke-width:1.16085"
         d="m 140.87335,141.57816 c -0.18199,-0.43935 -0.67025,-1.33394 -1.08503,-1.98798 -0.56986,-0.89858 -0.86946,-1.14851 -1.22609,-1.02281 -0.37334,0.1316 -0.40656,0.0956 -0.15899,-0.1723 0.17212,-0.18626 0.4786,-0.27509 0.68108,-0.19739 0.39644,0.15213 2.44249,3.85671 2.24123,4.05797 -0.0667,0.0667 -0.27022,-0.23814 -0.4522,-0.67749 z"
         id="path19849" />
      <path
         style="fill:#082811;stroke-width:1.16085"
         d="m 144.75196,139.25116 c -0.0916,-2.00092 -0.22401,-4.29287 -0.29428,-5.09323 -0.1265,-1.44094 -0.12543,-1.44353 0.1086,-0.26459 0.27285,1.37452 0.68387,8.99584 0.48514,8.99584 -0.0731,0 -0.20788,-1.63711 -0.29946,-3.63802 z"
         id="path19845" />
      <path
         style="fill:#082811;stroke-width:1.16085"
         d="m 162.56425,144.62413 c 0,-0.11294 0.53028,-1.94848 1.17839,-4.079 0.64812,-2.13051 1.35168,-4.5285 1.56346,-5.32887 0.21179,-0.80036 0.39588,-1.215 0.40911,-0.92142 0.0132,0.29358 -0.64098,2.73436 -1.45379,5.42396 -1.35468,4.48269 -1.69717,5.47257 -1.69717,4.90533 z"
         id="path19838" />
      <path
         style="fill:#082811;stroke-width:1.16085"
         d="m 157.69091,144.34439 c 0.13108,-0.98843 2.08941,-9.55078 2.72313,-11.90625 l 0.28473,-1.05834 -0.14516,1.05834 c -0.13937,1.01601 -2.12449,9.71551 -2.71687,11.90625 l -0.28618,1.05833 z"
         id="path19835" />
      <path
         style="fill:#082811;stroke-width:1.16085"
         d="m 153.59183,144.90391 c -0.0368,-0.78472 1.24192,-6.74415 2.12028,-9.88121 0.96842,-3.45869 3.5753,-10.10738 4.95551,-12.63873 1.14691,-2.10347 1.89663,-2.55299 1.89663,-1.13719 0,0.97603 -1.26411,8.44262 -1.46303,8.64154 -0.18982,0.18982 -0.17181,0.0562 0.53699,-3.98462 0.3638,-2.07402 0.65749,-4.13114 0.65265,-4.57138 l -0.009,-0.80043 -0.54954,0.66065 c -0.81178,0.97593 -1.83853,3.12234 -3.48091,7.27685 -1.76205,4.45721 -2.62529,7.39414 -3.77177,12.83229 -0.47552,2.25557 -0.87513,3.87657 -0.88801,3.60223 z"
         id="path19834" />
      <path
         style="fill:#082811;stroke-width:1.16085"
         d="m 143.50955,143.61678 c -0.003,-0.9095 -0.11242,-2.66568 -0.24408,-3.9026 -0.52918,-4.97158 -0.54482,-5.29039 -0.15574,-3.175 0.41136,2.2366 0.8401,8.73125 0.57638,8.73125 -0.0945,0 -0.17398,-0.74414 -0.17656,-1.65365 z"
         id="path19833" />
      <path
         style="fill:#082811;stroke-width:1.16085"
         d="m 158.22688,145.27043 c 0.2355,-0.95365 1.73439,-4.54326 1.84918,-4.42847 0.0871,0.0871 -1.12639,3.23108 -1.76026,4.56076 -0.21396,0.44882 -0.22746,0.42874 -0.0889,-0.13229 z"
         id="path19831" />
      <path
         style="fill:#082811;stroke-width:1.16085"
         d="m 142.26832,145.18859 c -0.9519,-2.72694 -0.95763,-2.74769 -0.63517,-2.29941 0.35092,0.48783 1.4445,3.69979 1.30663,3.83766 -0.0548,0.0548 -0.35699,-0.63738 -0.67146,-1.53825 z"
         id="path19827" />
      <path
         style="fill:#082811;stroke-width:1.16085"
         d="m 153.10098,147.78399 c 4.8e-4,-0.43656 0.0918,-1.15094 0.20285,-1.5875 0.27998,-1.1003 0.29241,-0.0173 0.0152,1.32291 -0.18405,0.88983 -0.21877,0.93196 -0.21803,0.26459 z"
         id="path19821" />
      <path
         style="fill:#082811;stroke-width:1.16085"
         d="m 152.38347,147.46897 c 0.0703,-0.60983 0.30616,-2.63316 0.5241,-4.4963 0.21795,-1.86314 0.41248,-3.80497 0.43229,-4.31519 0.027,-0.69456 0.0663,-0.76734 0.15629,-0.28964 0.13772,0.73066 -0.63149,7.89154 -0.99725,9.28386 -0.23983,0.91292 -0.24147,0.91033 -0.11543,-0.18273 z"
         id="path19820" />
      <path
         style="fill:#082811;stroke-width:1.16085"
         d="m 139.40894,146.7299 c -0.25712,-1.9742 -0.41296,-3.64398 -0.34631,-3.71063 0.0667,-0.0667 0.33003,1.49559 0.58529,3.47165 0.25525,1.97607 0.41109,3.64585 0.34631,3.71064 -0.0648,0.0648 -0.32817,-1.49746 -0.58529,-3.47166 z"
         id="path19812" />
      <path
         style="fill:#082811;stroke-width:1.16085"
         d="m 137.0816,148.13784 c -1.15408,-3.34739 -2.42039,-5.80358 -3.66209,-7.10317 l -1.13529,-1.1882 -0.0938,0.75577 c -0.0516,0.41568 0.10416,1.64566 0.34614,2.73329 0.24197,1.08763 0.38786,2.02961 0.32418,2.09329 -0.12484,0.12483 -0.91886,-3.499 -1.04417,-4.76552 -0.0455,-0.45986 0.0645,-0.81801 0.27283,-0.88806 0.5911,-0.19879 2.60598,2.18581 3.56799,4.2227 1.05595,2.2358 2.35263,5.747 2.24321,6.07426 -0.0412,0.12316 -0.40972,-0.7473 -0.81898,-1.93436 z"
         id="path19811" />
      <path
         style="fill:#082811;stroke-width:1.16085"
         d="m 160.183,152.30447 c 0,-0.31804 1.77703,-6.04391 2.10091,-6.76946 0.44476,-0.99635 0.19577,-0.0181 -0.90911,3.57187 -0.90229,2.93173 -1.1918,3.70847 -1.1918,3.19759 z"
         id="path19806" />
      <path
         style="fill:#082811;stroke-width:1.16085"
         d="m 146.07828,153.86938 c 0.37427,-5.09871 1.07667,-12.34762 1.10696,-11.42406 0.0408,1.24262 -0.71397,10.08743 -1.03126,12.08552 -0.19387,1.22088 -0.20606,1.11437 -0.0757,-0.66146 z"
         id="path19795" />
      <path
         style="fill:#082811;stroke-width:1.16085"
         d="m 145.21585,149.63605 c 1.8e-4,-3.4925 0.0378,-4.88465 0.0837,-3.09368 0.0458,1.79098 0.0457,4.64848 -3.2e-4,6.35 -0.046,1.70152 -0.0835,0.23618 -0.0834,-3.25632 z"
         id="path19794" />
      <path
         style="fill:#082811;stroke-width:1.16085"
         d="m 132.96125,152.38212 c -1.75462,-5.29855 -3.39516,-8.61658 -5.96216,-12.0586 -2.63435,-3.53234 -6.35463,-6.93191 -6.94252,-6.34402 -0.18431,0.18431 0.37081,1.33577 3.65764,7.58676 1.85715,3.53199 4.71696,10.41715 5.11021,12.30312 0.091,0.43657 -0.41808,-0.75406 -1.13136,-2.64583 -1.94365,-5.15503 -2.50524,-6.38638 -5.39304,-11.82473 -1.4644,-2.7578 -2.5827,-5.16441 -2.49998,-5.37999 0.2574,-0.67078 0.87746,-0.43593 2.5717,0.97403 3.05451,2.54199 5.87425,6.12413 7.90284,10.0396 1.21499,2.3451 4.34906,10.90251 4.17938,11.41156 -0.0407,0.12216 -0.71244,-1.70569 -1.49271,-4.0619 z"
         id="path19792" />
      <path
         style="fill:#082811;stroke-width:1.16085"
         d="m 135.57675,158.64542 c 0,-0.11382 -0.54071,-2.64894 -1.20159,-5.6336 -0.66087,-2.98466 -1.1639,-5.53971 -1.11784,-5.67789 0.0461,-0.13818 0.65113,2.33259 1.3446,5.49059 0.69346,3.15801 1.19649,5.80619 1.11784,5.88484 -0.0787,0.0787 -0.14301,0.0499 -0.14301,-0.0639 z"
         id="path19784" />
      <path
         style="fill:#082811;stroke-width:1.16085"
         d="m 129.92128,158.46653 c -0.24798,-0.89193 -0.40323,-1.66934 -0.345,-1.72756 0.0582,-0.0582 0.31021,0.62244 0.55998,1.51259 0.24976,0.89015 0.40501,1.66755 0.345,1.72756 -0.06,0.06 -0.312,-0.62066 -0.55998,-1.51259 z"
         id="path19779" />
      <path
         style="fill:#082811;stroke-width:1.16085"
         d="m 140.49915,156.29994 c -0.26345,-3.02882 -0.4072,-5.57874 -0.31945,-5.66649 0.0877,-0.0877 0.15955,0.0277 0.15955,0.2565 0,0.22882 0.18732,2.57038 0.41628,5.20346 0.22895,2.63308 0.3727,4.99578 0.31945,5.25045 -0.0533,0.25466 -0.31237,-2.0151 -0.57583,-5.04392 z"
         id="path19773" />
      <path
         style="fill:#082811;stroke-width:1.16085"
         d="m 130.99528,162.5519 c -0.24218,-1.11602 -0.39224,-2.0772 -0.33347,-2.13598 0.0588,-0.0588 0.3091,0.80215 0.55628,1.91317 0.24718,1.11101 0.39724,2.0722 0.33347,2.13597 -0.0638,0.0638 -0.3141,-0.79715 -0.55628,-1.91316 z"
         id="path19764" />
      <path
         style="fill:#082811;stroke-width:1.16085"
         d="m 155.98787,167.33372 c 0.2773,-0.0836 0.49803,-0.55087 0.60866,-1.28858 0.32374,-2.15888 3.30183,-13.47483 3.49533,-13.28133 0.0565,0.0565 -0.44425,2.11421 -1.11269,4.57277 -0.66845,2.45856 -1.48381,5.72026 -1.81191,7.24823 -0.49617,2.31059 -0.68221,2.7867 -1.10552,2.82908 -0.3683,0.0369 -0.38871,0.0147 -0.0739,-0.0802 z"
         id="path19754" />
      <path
         style="fill:#082811;stroke-width:1.16085"
         d="m 139.84509,167.31882 c 0.35812,-0.0954 0.3925,-0.29029 0.20131,-1.14125 -0.12682,-0.56443 -0.47012,-3.14801 -0.76288,-5.74128 -0.29277,-2.59327 -0.60784,-5.31035 -0.70017,-6.03796 -0.0923,-0.7276 -0.0924,-1.2537 -2.6e-4,-1.1691 0.0922,0.0846 0.46826,2.82304 0.83572,6.08542 0.36746,3.26238 0.71381,6.11019 0.76968,6.32847 0.45175,1.76506 0.4433,1.853 -0.17493,1.82139 -0.39622,-0.0203 -0.45351,-0.0698 -0.16847,-0.14569 z"
         id="path19753" />
    </g>
  </g>
</svg>
