<?xml version="1.0" encoding="UTF-8" standalone="no"?>
<!-- Created with Inkscape (http://www.inkscape.org/) -->

<svg
   width="185"
   height="185"
   viewBox="0 0 48.947914 48.947918"
   version="1.1"
   id="svg1"
   xmlns="http://www.w3.org/2000/svg"
   xmlns:svg="http://www.w3.org/2000/svg">
  <defs
     id="defs1" />
  <g
     id="layer1">
    <g
       id="g6218"
       style="display:inline;stroke-width:1.5449"
       transform="matrix(0.64729176,0,0,0.64729176,-41.31153,-48.596263)">
      <path
         style="fill:#fa9293;stroke-width:1.5449"
         d="m 108.93037,150.51551 c -2.65947,-5.97311 -9.153289,3.26574 -11.149535,-2.53703 -6.962696,5.05635 -8.754237,-2.56123 -15.437384,1.93286 -2.493425,-4.56552 -10.271493,2.44386 -11.812561,-4.07214 -8.425675,-0.96188 2.951056,-6.91255 -5.919741,-5.97537 0.415061,-4.31621 7.601461,-6.78528 0.785932,-8.84714 1.637923,-4.15834 4.521411,-7.08268 0.195497,-10.0331 1.312465,-5.93573 9.249082,-2.94878 9.196826,-9.98932 6.453044,3.19319 5.439439,-5.35963 11.874812,-3.50309 5.322245,-8.906801 10.533821,7.20679 16.917544,-2.53657 3.71417,-0.16651 3.53216,5.25493 7.13269,-1.20506 5.39342,-0.27049 6.22387,5.31282 12.19705,5.49727 1.9735,4.79579 8.4228,-1.8322 9.43391,6.55363 9.79871,0.19831 0.13551,12.07599 6.21493,13.59028 -7.75633,3.39031 6.63417,10.82658 -4.40894,10.61305 7.23828,5.30391 -1.24398,7.40381 -4.29578,7.1001 -1.25695,5.71073 -8.1336,-2.2235 -10.79246,2.83882 -5.62044,-1.14149 -5.50127,-4.73476 -10.13279,0.57281 z m 26.28505,-26.30953 c -0.84772,-1.04192 0.28945,1.31183 0,0 z m -11.66372,-9.60929 c -0.52219,-0.98385 -3.09559,1.33055 0,0 z"
         id="path3830" />
      <path
         style="fill:#ab5a62;stroke-width:1.5449"
         d="m 138.21093,128.93579 c -0.81491,-1.19824 1.16412,0.22634 0,0 z"
         id="path3849" />
      <path
         style="fill:#ab5a62;stroke-width:1.5449"
         d="m 107.81893,150.04473 c -2.21884,-4.17128 -8.570572,2.39634 -10.927076,-1.66136 -7.188605,3.74466 -8.778286,-2.38878 -16.651179,1.33123 0.17939,-5.7829 -9.62426,3.89509 -9.578476,-3.87945 -7.896677,-0.91548 2.778999,-7.13784 -6.051045,-5.97131 0.107326,-4.13241 8.082265,-6.97873 0.789176,-8.88033 1.77959,-4.22809 4.537404,-7.24031 0.136743,-10.26849 1.547378,-5.74923 9.478198,-2.62408 9.261483,-9.7264 6.074244,2.81563 5.715696,-5.02272 11.918308,-3.50297 5.611646,-9.391869 10.266886,7.64253 16.861136,-2.54438 3.44043,-0.22912 2.90587,5.92366 6.7493,-0.69135 5.13714,-1.74016 6.42501,5.40625 12.66752,5.01574 1.15616,5.50736 8.73124,-1.93719 8.77321,6.55098 12.6098,1.55533 -1.92036,9.20963 6.50229,13.73533 -8.01417,3.25229 7.13665,10.89914 -4.10706,10.43353 7.55094,6.00976 -3.25634,5.88586 -4.4225,7.30698 -2.47554,5.00625 -8.01862,-2.78137 -10.97507,2.57634 -7.09618,-4.29707 -4.83062,-0.85825 -10.94676,0.17591 z m -30.05681,-6.31751 c 10.215549,-5.01404 -4.310531,-8.12477 -2.28077,0.51952 0.644646,0.6888 1.85263,0.13658 2.28077,-0.51952 z m 38.87705,-0.093 c 7.18758,-7.61529 -5.62032,-8.26764 -1.40872,1.08872 l 1.40874,-1.08837 z m 9.48912,0.30454 c 0.73054,-7.25245 -10.38686,-8.43006 -3.81604,-1.35238 0.40879,-0.29063 3.60965,3.88637 3.81604,1.35238 z M 87.214951,143.1528 c 1.182369,-9.63519 -9.853722,-4.18877 -0.578971,0.20144 z m -7.771488,-6.03697 c 4.047967,-7.14889 -13.650056,-4.17149 -2.943861,0.23727 0.878076,0.626 2.192778,0.56464 2.943861,-0.23727 z m 47.091407,-0.80258 c 6.84885,-7.69564 -13.40672,-1.84647 -2.25026,1.2656 z m -38.985587,0.37751 c 11.423153,-4.50388 -9.224082,-5.47602 -1.455264,0.31375 z m 29.384737,-0.48062 c 1.62757,-7.30515 -13.22954,-0.20061 -1.64436,0.74992 z m -11.99432,-0.76098 c 2.01999,-6.74801 -8.432732,-7.37679 -2.56378,-0.40396 0.60868,0.12801 2.46244,3.60996 2.56378,0.40396 z m -22.203074,0.80677 c -0.652537,-0.94251 -0.31998,0.96735 0,0 z m 37.156494,-0.0283 c 1.88683,0.0448 -2.18588,-0.22374 0,0 z m -23.126948,-0.63739 c 7.854158,-4.60221 -2.937896,-11.82045 -1.693347,-1.30056 -0.307197,0.71973 0.543654,3.2682 1.693347,1.30056 z m -15.246248,-0.23295 c 4.254111,2.32574 2.639268,-12.77242 -1.337533,-4.14529 -1.56121,0.66373 1.144767,5.52607 1.337533,4.14529 z m 37.791286,-0.97612 c 6.68467,-2.6504 -4.6466,-11.85212 -2.30142,-1.66598 0.66465,2.36415 0.80296,1.68085 2.30142,1.66598 z m -12.73523,-5.2549 c 8.07768,-7.83987 -13.400218,-0.27463 0,0 z m -27.665111,-0.6604 c 2.055663,-13.21732 -8.398794,0.0292 0,0 z m -8.001207,0.21129 c 12.126772,-10.45211 -6.835947,-4.73368 0,0 z M 134.1339,127.1939 c -2.0439,-8.2119 -10.10015,-3.23152 -2.34369,1.22064 1.14026,0.6146 5.01935,1.59155 2.34369,-1.22064 z m -7.65542,-0.26218 c 3.13317,-14.9437 -8.80729,7.49183 0,0 z m -29.277619,0.92825 c 4.088859,-7.95602 -11.965777,-2.78462 -1.370141,0.42772 z m 1.993709,-1.14721 c 6.82995,-0.45737 -0.663231,-13.80277 -0.932044,-2.07666 -1.155553,-0.81251 1.277915,4.95825 0.932044,2.07666 z m 35.39167,-5.16205 c 5.03429,-6.23732 -11.21038,-2.96909 -2.25375,0.80624 z m -61.988711,0.36452 c 5.097085,-6.68668 -11.183897,-2.60258 -0.979781,0.2755 l 0.979781,-0.27554 z m 8.42875,-0.0331 c 8.445642,-8.29839 -11.149085,-0.21996 0,3e-5 z m 45.895761,0.0863 c -0.31998,-0.96734 -0.65253,0.94251 0,0 z m -0.82455,-1.5875 c 6.8771,1.02083 -12.82431,-6.22091 -3.54107,0.77809 1.55732,1.01783 2.15814,-0.0692 3.54107,-0.77809 z m -59.673728,0.65005 c -0.847731,-1.04192 0.289444,1.31183 0,0 z m 8.980971,-0.31429 c 0.20579,-1.83616 -1.22064,2.35654 0,0 z M 87.0192,119.91791 c 6.134591,-7.40167 -4.411193,-5.86922 -1.795389,1.25672 l 1.795389,-1.25677 z m 22.2282,0.7276 c 9.59533,-7.07639 -5.02641,-9.23637 0,0 z m -14.911758,-1.1881 c -1.777261,-12.86259 -8.281027,0.89228 0,0 z m 24.038908,-0.3813 c -3.35611,-11.97388 -9.11179,0.4394 0,0 z m -43.31084,0.53552 c 7.017682,-0.69233 -0.10137,-12.26618 -0.684424,-2.7312 -0.696497,-2.45538 -0.226882,4.25574 0.684424,2.7312 z m 54.32497,-1.02258 c 2.59926,-7.5157 -7.36004,-7.53927 -3.23707,-0.0886 1.20885,0.2021 2.71325,2.29885 3.23707,0.0886 z m -5.69344,-3.88895 c -0.81337,-1.29722 -3.73942,1.47166 0,0 z m -37.05601,-0.60583 c 8.490934,-3.11645 -11.574204,-7.00159 -2.193566,0.0195 l 1.135233,0.42363 1.058333,-0.44317 z m 24.67239,-1.5781 c -9.93526,-10.66429 -8.56044,6.93668 0,0 z m 9.61169,-0.63338 c 1.82795,-6.95472 -11.87832,2.73262 -2.66226,1.77704 L 119.69,112.8 l 1.23331,-0.91688 z m -31.087794,1.61897 c 3.390419,-4.38838 -3.225958,2.32514 0,4e-5 z m 5.274049,-0.22481 c 7.159205,-8.64815 -9.867404,0.65448 0,0 z m 18.054145,-0.70123 c 0.11565,-2.48427 -1.45994,1.41069 0,0 z m -23.40005,-1.84367 c 6.325635,-1.56712 -2.324347,-9.20369 -1.275418,0.009 l 0.470507,0.34129 0.804915,-0.35055 z m 23.79692,-0.1407 c 4.37085,-1.49361 -5.38378,-9.90982 -2.9656,-0.62847 0.66105,-0.23793 2.6936,1.16602 2.9656,0.62847 z"
         id="path3845" />
      <path
         style="fill:#46845a;stroke-width:1.5449"
         d="m 135.521,124.34968 c 0.31998,-0.96734 0.65253,0.94251 0,0 z"
         id="path3868" />
      <path
         style="fill:#46845a;stroke-width:1.5449"
         d="m 66.428141,121.04239 c -0.627987,-1.38828 -0.228989,1.39755 0,0 z"
         id="path3863" />
      <path
         style="fill:#46845a;stroke-width:1.5449"
         d="m 107.81893,150.03733 c -2.2182,-3.72658 -9.329657,1.97641 -10.693566,-1.8101 -7.057324,3.55455 -9.266554,-1.30145 -16.802536,1.77374 -0.334351,-5.44367 -9.365675,1.84129 -10.649033,-4.33962 -3.752485,-2.90015 0.87608,-6.32916 -5.246634,-6.09477 1.738055,-4.3498 7.980504,-6.99054 1.050049,-8.11356 3.07161,-5.70069 2.38416,-7.60436 0.383989,-11.826 4.245558,-3.12188 7.817447,-3.87173 9.49192,-8.59963 6.110078,3.09588 5.171396,-5.14262 11.33389,-3.42803 5.646113,-9.058797 10.03585,7.28707 16.985971,-2.61795 3.08337,-0.36278 3.24464,6.18024 6.57554,-0.70182 6.19519,-1.53755 5.01637,4.68573 12.37046,4.70387 1.23274,6.05158 8.88019,-1.88299 8.93844,6.70291 9.8186,-0.22555 3.27689,7.73728 3.85754,9.76825 7.12756,5.8781 -5.69521,7.20953 3.42167,11.87618 -0.10084,4.60484 -7.77806,0.72969 -2.298,5.96581 -0.92984,5.62932 -7.86515,0.9011 -8.67214,6.04392 -6.23075,-4.41302 -8.43259,4.15848 -14.88464,-1.94513 -1.44401,1.12437 -2.95021,4.00808 -5.16292,2.64193 z m -29.673465,-6.37186 c 7.666903,-5.33401 1.191242,-10.32649 -2.707646,-1.721 -2.122492,3.41604 0.48461,3.86975 2.707646,1.721 z m 48.702985,1.28947 c -1.21638,-4.83683 -6.30478,-7.9932 1.58698,-9.58015 2.36591,-7.14331 -9.23406,1.00316 -7.6247,-6.28905 -5.09967,-6.82131 -5.1446,9.54308 0.11363,5.23946 -3.36445,6.82695 -6.58356,-7.3418 -10.24872,0.86389 8.42797,0.39485 1.60135,5.94121 4.34074,9.74179 5.49731,-3.02321 2.92146,-13.94901 5.73036,-3.64367 1.87466,1.14047 3.60525,4.80491 6.10171,3.66773 z m -4.8212,-7.90526 c -3.83613,-2.3853 1.40685,-1.04309 0,0 z m -34.039304,6.21396 c -3.20337,-5.6917 0.300056,-6.45694 3.489496,-9.87633 -5.829475,-5.39909 -9.409841,7.20564 -7.165228,-3.7883 -7.08388,-4.1007 -3.168369,7.16301 -2.18784,6.77179 0.0325,2.78766 2.034448,8.07834 5.863572,6.89284 z m -5.369889,-5.92717 c 1.202695,-3.17033 4.710588,1.08931 0,0 z m 5.013361,-4.78471 c -1.834893,-0.86088 4.532439,0.83521 0,0 z m -8.379826,4.80795 c 5.187731,-7.68326 -14.117252,-4.91341 -2.997618,0.40838 0.965653,0.24859 2.211601,0.36744 2.997618,-0.40838 z m 26.290018,-1.43451 c 0.36256,-5.38347 -5.873176,-7.01878 2.30753,-7.16474 5.32664,-6.58108 -11.180988,1.40578 -5.14531,-5.33675 -1.01304,-9.56478 -5.708958,0.0585 -4.881903,1.16549 -4.531037,-6.02848 -10.516016,3.88013 -1.326964,3.98949 -4.023706,3.05012 0.0055,13.1049 3.338943,3.37398 -0.214552,-3.98017 -5.008872,-4.06348 0.244404,-4.07208 -0.473421,-3.55445 3.15228,2.09275 1.12346,5.50456 0.11541,0.91473 4.22499,5.92591 4.33984,2.54005 z m -36.261479,-6.28385 c 8.435021,-3.25213 1.686614,-13.91384 10.388229,-6.8792 6.415065,-1.83431 3.410951,-7.18676 -1.500074,-4.29951 1.702679,-9.07044 -5.651867,-4.34899 -4.427494,0.49542 -6.234471,-3.92491 -6.119558,3.5146 -1.852083,3.97926 -1.861765,1.11977 -5.128446,6.8454 -2.608578,6.70403 z m 6.24219,-9.02867 c 1.420507,-0.78829 -0.644712,0.81316 0,0 z m 0.729347,-0.50065 c -2.747149,-1.47402 4.321851,-0.90795 0,0 z m 2.677359,9.59141 c 4.854017,-6.81617 -7.365907,-10.2049 -2.559159,-1.49153 0.196877,1.05893 1.473458,2.14638 2.559159,1.49153 z m 56.132463,-1.38501 c -4.63691,-5.25732 -3.36022,-5.44395 1.34555,-8.88577 -6.25149,-5.71995 -5.96341,2.51106 -8.23985,3.90544 -1.7695,2.0502 9.00569,9.93601 6.8943,4.98033 z m -9.11852,-0.39221 c 1.66567,-5.31652 2.08854,-6.10274 2.61067,-8.07446 6.10057,-6.16574 -7.2583,-11.47922 -2.505,-1.02456 6.7229,3.56792 -12.54457,-5.47468 -3.77579,2.4509 10.39769,-3.70216 -5.72716,6.64099 2.5035,7.87849 l 1.16665,-1.23045 z m -2.88606,-2.33284 c 1.13187,-4.65436 -0.47052,4.22091 0,0 z m -36.549972,-4.73623 c 1.826963,-3.71752 9.251367,-13.31559 3.240418,-14.86679 0.672098,7.70964 -14.395975,0.60898 -5.417507,8.40592 4.370679,-0.42924 -3.13873,8.74952 2.177089,6.46087 z m 0.369435,-6.7615 c 4.315217,-8.64127 1.336164,2.09578 0,0 z m 2.210253,-1.49829 c 0.03332,-3.86431 3.616187,-0.63509 0,0 z m -0.909031,-1.39929 c -0.331028,-1.15801 0.91877,1.23697 0,0 z m 21.125985,9.53774 c 3.49056,-8.85308 4.78885,-0.67744 9.51019,0.0384 -1.16416,-5.66681 -4.71351,-7.03663 1.05608,-7.32291 7.10584,-7.89458 -8.92703,0.87829 -5.35598,-5.35498 -4.01679,-9.530022 -2.60531,6.25094 -6.53269,1.05425 -9.988442,-0.60125 1.3276,7.0521 1.78915,5.11833 -2.07036,0.30605 -3.97797,8.7802 -0.46675,6.46694 z m 3.21787,-5.14566 c -5.40977,-7.11705 6.88589,-4.08851 0,-4e-5 z m 0.83018,-2.88214 c 2.3503,-0.9483 -4.96607,-2.10495 0,0 z m 7.41444,-0.56199 c 1.4205,-0.78831 -0.6447,0.81314 0,0 z m -26.515243,8.32458 c -0.523354,-6.74007 -3.287739,-5.98926 2.918189,-9.00358 -2.758894,-7.04656 -12.300742,8.74112 -2.918182,9.00361 z m 29.466423,-5.79251 c -0.86176,-1.61828 -3.6329,1.78096 0,0 z m -16.04365,-6.64322 c -1.457,-0.42943 -0.26443,0.46307 0,0 z"
         id="path3862" />
      <path
         style="fill:#33724d;stroke-width:1.5449"
         d="m 75.278684,110.93977 c 1.159779,-0.379 0.114706,0.50937 0,0 z"
         id="path3896" />
      <path
         style="fill:#33724d;stroke-width:1.5449"
         d="m 65.692949,121.21019 c -0.223478,-1.55092 0.804697,0.67538 10e-7,7e-5 z"
         id="path3893" />
      <path
         style="fill:#33724d;stroke-width:1.5449"
         d="m 107.85118,150.05658 c -1.4355,-7.0067 -7.875479,4.12635 -10.223293,-2.01017 -3.628861,3.59718 -8.687198,1.86068 -9.09326,-0.3972 -7.33515,5.12471 -8.247801,-2.83667 -15.34817,1.38023 -2.434502,-2.74079 -7.91768,-5.03774 -4.335734,-8.80876 -10.110509,0.44735 6.63557,-8.69461 -2.547793,-8.69014 -1.180397,-4.88729 5.269722,-7.44916 0.161776,-10.46299 -0.369699,-5.68396 8.307619,-3.30016 8.454557,-9.39829 5.796723,1.4935 5.774199,-5.54581 11.853422,-4.19378 5.015255,-9.014282 10.338581,7.48771 16.163605,-2.13119 4.20307,-3.35323 3.33634,7.71818 6.49865,0.13798 6.22034,-4.83316 5.34443,3.46211 13.65652,3.97981 1.43703,4.56604 8.501,-0.6084 9.2143,6.44358 7.82461,-0.0423 4.477,6.909 2.31986,8.45578 5.01722,3.11329 1.98156,8.51805 -0.38833,8.56781 7.37147,2.81279 1.88088,7.45346 0.99362,8.23774 5.22112,7.77236 -7.44778,2.38375 -6.83205,8.05347 -4.45942,0.0934 -6.41583,-3.78752 -9.28766,0.53825 -7.30623,-4.04668 -4.85241,-1.43999 -11.26002,0.29787 z M 93.185794,147.3714 c -0.669588,-0.48386 -1.053385,0.85232 0,0 z m 9.526876,-1.35085 c 2.35522,-2.5083 -5.489754,4.52431 0,0 z m 15.47812,0.97925 c -0.12059,-0.71041 -1.56457,0.23711 0,0 z m -43.656247,-0.38849 c -1.746715,-0.4477 -1.750094,0.77911 0,0 z m 17.462499,-0.83044 c -0.187565,-1.8416 -0.603731,1.84247 0,0 z m 16.321968,-0.7276 c -0.42558,0.39346 0.41175,2.04931 0,0 z m -21.084467,0.38737 c 0.711795,-0.76343 -2.975635,1.41174 0,0 z m -9.089078,-1.77523 c 5.791334,-3.47034 1.639608,-11.01529 6.333855,-1.41337 7.658544,4.15614 -2.403246,-7.84845 6.72135,-7.60026 -0.493319,-8.13186 -11.318596,4.70921 -6.587099,-3.0509 -3.604005,-8.98118 -5.277737,3.21346 -4.331304,6.23686 -3.906618,-1.20693 -9.229802,11.34046 -2.136802,5.82767 z m 4.451706,-6.3628 c 0.963599,-3.24486 4.618084,1.1952 0,2e-5 z M 81.7661,135.57396 c 0.497747,-2.81978 1.326393,1.42017 0,0 z m 5.865318,-3.0222 c -1.834893,-0.86088 4.532439,0.83521 0,0 z m 0.791877,12.43845 c -0.669589,-0.48386 -1.053385,0.85232 0,0 z m 17.059455,-1.91737 c -1.51005,0.84319 -1.20128,2.51522 0,0 z m 21.3657,1.8821 c -1.21638,-4.83683 -6.30478,-7.9932 1.58698,-9.58015 2.36591,-7.14331 -9.23406,1.00316 -7.6247,-6.28905 -9.13825,-4.19758 1.40728,8.06421 -1.59079,6.63447 -2.07233,2.94858 -3.32911,-7.33365 -8.96665,-1.47836 4.09221,3.367 7.1085,2.41619 3.74844,8.90618 3.65513,5.76053 4.51365,-6.91521 5.31354,-6.21318 1.04613,1.42858 2.15735,9.03313 7.53318,8.02009 z m -4.8212,-7.90526 c -3.83613,-2.3853 1.40685,-1.04309 0,0 z m -28.967911,6.74877 c 1.71136,-2.14949 -2.730368,2.74195 0,0 z m -22.036037,-0.29404 c -1.047657,-0.55603 -0.247279,0.5962 0,0 z m 2.62619,-0.7776 c 0.278012,-1.65636 -1.703893,1.63959 0,0 z m 54.396458,-0.86727 c -2.02967,-4.01793 1.24283,4.08385 0,0 z m -29.068788,0.33577 c -0.26228,-0.97313 -0.544545,1.34698 0,0 z m -25.055628,-1.22649 c -0.509331,0.11474 0.37901,1.15977 0,0 z m 56.770816,0.13897 c -1.45702,-0.42943 -0.26443,0.46307 0,0 z m -1.32291,-0.26459 c -1.45702,-0.42943 -0.26443,0.46307 0,0 z m -36.365163,-1.28698 c -0.748794,0.51148 -0.314273,1.15084 0,0 z m 18.836513,0.0394 c -0.89412,-1.07336 -1.25105,-0.73073 0,0 z m -42.404988,-1.38288 c -1.047683,-0.55601 -0.247246,0.59618 0,0 z m 9.81579,-0.85303 c 5.187731,-7.68326 -14.117252,-4.91341 -2.997618,0.40838 0.965653,0.24859 2.211601,0.36744 2.997618,-0.40838 z m -10.50009,-0.37618 c 1.237823,-2.16045 -2.216781,2.91835 0,0 z m 3.434623,-0.004 c -0.879374,-0.6848 0.836657,1.44318 0,0 z m 64.525495,0.49983 c -0.70552,-1.33848 -0.98218,0.15671 0,0 z m -31.17001,-1.55375 c 0.36256,-5.38347 -5.873176,-7.01878 2.30753,-7.16474 5.32664,-6.58108 -11.180988,1.40578 -5.14531,-5.33675 -1.01304,-9.56478 -5.708958,0.0585 -4.881903,1.16549 -4.531037,-6.02848 -10.516016,3.88013 -1.326964,3.98949 -4.023706,3.05012 0.0055,13.1049 3.338943,3.37398 -1.184699,-4.8156 -4.175685,-3.26957 0.545744,-4.34828 2.35162,-3.70948 -1.716951,9.28664 5.01548,9.24986 l 0.14648,-0.92902 z m 2.58697,-0.92604 c -0.32342,-1.77099 -0.39408,2.2548 0,0 z m 0.53721,-1.77184 c -0.89767,-0.41803 -1.84411,1.66868 0,0 z m 4.30452,-2.17202 c -1.76353,-0.48273 -0.31776,0.48053 0,0 z m -24.211328,-0.80199 c -2.371497,-0.44222 -0.426867,0.43991 0,0 z m -19.478851,-0.61196 c 7.433134,-0.68606 3.522616,-13.31966 6.681312,-8.20208 3.049622,3.87674 13.218239,-5.12519 2.909805,-3.04812 0.190292,-2.10145 -3.827278,-9.92238 -4.6003,-1.25141 1.783478,2.85309 -11.376287,-0.4123 -3.838764,4.8139 4.728478,-1.19005 -5.335824,7.74526 -1.152053,7.68771 z m 7.106496,-9.525 c -2.437736,-1.64026 3.558484,-0.87732 0,0 z m -2.608999,9.24471 c 2.19784,-1.57734 -3.636077,1.6868 0,0 z m 5.151399,0.34238 c 4.854017,-6.81617 -7.365907,-10.2049 -2.559159,-1.49153 0.196877,1.05893 1.473458,2.14638 2.559159,1.49153 z m 56.132463,-1.38501 c -4.63691,-5.25732 -3.36022,-5.44395 1.34555,-8.88577 -6.25268,-5.72859 -6.01661,2.57046 -8.22467,3.91584 -1.58102,2.10725 8.34454,9.7119 6.87912,4.96993 z m -9.11852,-0.39221 c 2.53134,-6.94124 1.47849,-5.35071 4.15053,-11.29337 -1.43836,-9.61014 -8.18525,0.85731 -2.49697,3.29343 -2.9537,-3.62955 -12.98622,-2.0005 -3.59189,1.73773 6.04769,-5.40344 -7.66545,11.9191 1.93833,6.26221 z m -2.88606,-2.33284 c 1.13187,-4.65436 -0.47052,4.22091 0,0 z m -48.257783,3.12193 c -0.627987,-1.38828 -0.228989,1.39755 0,0 z m 11.834591,-0.0276 c -1.047664,-0.55602 -0.247275,0.59617 0,0 z m -4.772071,-2.94397 c -0.438741,0.33863 0.391571,1.74383 0,0 z m 30.839043,0.0182 c -1.45702,-0.42943 -0.26443,0.46307 0,0 z m 8.89179,-2.177 c 0.55844,-1.35673 -3.5546,1.1007 0,0 z m -1.6114,-1.33007 c -3.40493,-2.19292 2.29664,2.47178 0,0 z m -30.828308,0.33207 c -1.457016,-0.42943 -0.264432,0.46307 0,0 z m -2.645834,-1.7298 c 4.022756,-3.61844 2.119289,-10.67415 4.429114,-2.46059 7.995022,7.10017 -2.297173,-7.51962 4.265808,-4.99407 6.82837,-9.004 -7.75991,2.44736 -4.070735,-0.95889 3.760768,-5.15767 -2.174495,-10.32459 -3.3757,-2.16085 -8.099884,-4.10923 -7.158673,3.22457 -1.995767,5.18086 0.150528,1.06648 -3.196414,7.61453 0.74728,5.39354 z m 0.369435,-6.7615 c 4.315217,-8.64127 1.336164,2.09578 0,0 z m 2.210253,-1.50659 c -0.661143,-3.11964 4.966904,-2.68561 0,0 z m -0.909031,-1.39099 c -0.331028,-1.15801 0.91877,1.23697 0,0 z m 21.125985,9.53774 c 3.49056,-8.85308 4.78885,-0.67744 9.51019,0.0384 -1.16416,-5.66681 -4.71351,-7.03663 1.05608,-7.32291 7.10584,-7.89458 -8.92703,0.87829 -5.35598,-5.35498 -4.01679,-9.530022 -2.60531,6.25094 -6.53269,1.05425 -9.988442,-0.60125 1.3276,7.0521 1.78915,5.11833 -2.07036,0.30605 -3.97797,8.7802 -0.46675,6.46694 z m 3.20334,-5.18352 c -2.01251,-4.51355 -0.61608,-6.6458 0.23636,-2.29557 2.77219,-0.79781 0.4262,2.68324 -0.23636,2.29557 z m 1.77316,-2.53072 c -1.34634,-3.43568 2.55933,1.99942 0,0 z m 6.48599,-0.87555 c 1.4205,-0.78831 -0.6447,0.81314 0,0 z m -17.09506,8.05632 c -0.96395,-1.21089 0.71817,1.95212 0,0 z m 2.26772,-0.54398 c -0.43876,0.33873 0.39167,1.74389 0,0 z m -1.24169,-0.33576 c 0.65602,-1.04207 -1.93897,1.10937 0,0 z m -2.63767,-1.83684 c -1.72718,-1.52274 0.8051,2.12998 0,0 z m -6.09483,-1.52663 c -0.755116,-1.40768 0.669176,2.63211 0,0 z m -15.691363,-1.0683 c -0.425576,0.39346 0.411748,2.04931 0,0 z m 26.253903,0.65361 c -3.64983,-1.8889 -3.62342,0.20878 0,0 z m 16.81165,-0.61217 c 1.84198,-0.96401 -5.43312,0.26213 0,-3e-5 z m -21.22845,-6.193 c 3.92911,-2.72236 -5.957491,4.79269 1.5e-4,0 z m -0.4075,1.53789 c -0.50932,0.11474 0.379,1.15975 0,0 z m 13.7465,-4.84559 c 0.16627,-1.45761 0.92188,1.43491 0,0 z"
         id="path3888" />
      <path
         style="fill:#194d36;stroke-width:1.5449"
         d="m 115.51121,105.36583 c -0.80155,-1.23067 1.46,1.60345 0,0 z"
         id="path3918" />
      <path
         style="fill:#194d36;stroke-width:1.5449"
         d="m 66.33246,127.28614 c 1.112995,-1.53878 0.610192,0.22864 0,0 z"
         id="path3915" />
      <path
         style="fill:#194d36;stroke-width:1.5449"
         d="m 89.651684,149.92522 c 0.7509,-6.97281 -10.024492,5.0903 -10.305535,-2.63625 -5.643871,4.95624 -14.227944,-3.20152 -10.536287,-7.05461 -9.282559,0.5223 6.038408,-8.56682 -2.483197,-9.0149 1.961805,-6.63379 2.537986,-7.66161 -0.327321,-11.93666 5.145883,-3.381 7.294298,-2.8138 10.163228,-8.01342 4.674899,1.77707 5.003782,-5.51082 10.581793,-3.68495 4.679639,-9.701103 10.198231,7.80461 15.703715,-1.97853 5.05607,-3.99865 2.5034,7.75916 7.04702,-0.17282 5.51519,-4.77578 6.66083,4.35711 13.62614,4.06835 1.50954,4.21753 8.44417,-0.32845 9.18455,6.40427 8.55337,0.26086 3.60975,6.1342 2.53679,8.85133 6.39375,3.56481 -0.31091,8.10415 0.0146,8.63804 7.18816,3.3244 1.78576,8.6383 0.3676,7.76577 5.59761,7.71809 -7.59425,2.29419 -6.4442,7.94306 -5.11877,0.2601 -6.46072,-3.99136 -9.06278,0.59657 -5.40608,-4.0013 -7.91171,0.31564 -12.38833,-0.42038 -1.62709,-4.72345 -7.930992,4.36924 -9.683921,-1.24296 -2.425467,0.93444 -5.312005,3.09159 -7.993835,1.88809 z m 4.201916,-2.79199 c 4.329672,-2.91144 9.35642,-10.51771 6.69356,0.0919 12.95512,-4.4948 -3.482431,-16.08986 -7.118125,-4.17294 -1.712856,0.90612 -3.969137,8.01246 0.424565,4.08107 z m -8.712766,-0.69598 c 8.419474,-0.82687 13.327299,-15.52324 3.845919,-7.8293 5.063856,7.79743 -10.25439,5.36226 -5.595441,8.49888 z m 24.889006,-0.0741 c 5.58367,-4.69314 -0.27259,-11.25811 -2.42771,-4.82077 1.15662,0.83964 -0.42143,8.09175 2.42771,4.82077 z m 9.60347,0.14542 c -1.7686,-5.04222 -3.95211,3.87839 0,0 z m -45.164789,0.1323 c -2.091552,-1.69024 -1.482343,1.80705 0,0 z m 52.359709,-1.70416 c -3.10321,-6.51996 -4.38307,-7.324 2.74919,-11.19429 -5.65852,-3.76406 -8.58771,2.01461 -10.18115,-6.31664 -6.23956,0.0987 2.31519,12.0274 -5.08055,5.23141 -10.69024,2.65666 6.73284,3.10126 -0.1912,9.14769 0.0137,8.64291 6.97136,-4.288 4.35287,-4.6419 2.91669,-1.24438 2.1755,9.52687 8.35084,7.77373 z m -5.41247,-8.07583 c -3.18764,-3.72692 3.07807,0.73131 0,0 z m -4.2833,-0.60491 c 2.92727,-2.09179 -0.0824,2.11847 0,0 z m 1.32291,-1.38139 c 3.32665,-2.25336 3.73428,0.59469 0,0 z m -42.162315,9.98122 c 6.820875,-2.00783 3.937405,-12.38838 8.110441,-2.68794 8.317005,4.99828 -2.38427,-6.95446 5.593,-6.61423 5.524314,-6.41364 -9.603189,-1.02469 -6.052964,-1.66189 0.765892,-11.6022 -6.292452,-1.18413 -3.612097,3.82535 0.312586,0.3414 -2.220168,-11.02126 -7.75498,-3.78902 1.714073,4.95662 8.545173,2.80779 2.774263,8.15786 -0.770935,0.80238 -1.467197,4.44745 0.942337,2.76987 z m 6.384145,-7.42453 c 0.302116,-3.75148 2.6063,-0.26832 0,0 z m 2.300172,-0.13025 c -0.224927,-1.42273 1.315049,0.60941 0,0 z m -3.139063,-1.72967 c -0.479013,-1.83221 1.536389,0.86196 0,0 z m 5.793109,-3.01955 c -1.834893,-0.86088 4.532439,0.83521 0,0 z m 47.082122,11.39927 c -3.41987,-6.78025 -12.0359,-1.04187 -2.95427,0.17716 l 1.96113,0.0256 z m -62.170246,-0.57722 c 10.036373,-10.8561 -9.850314,2.39136 0,0 z m 47.565726,-0.37463 c -1.64848,0.15061 -0.0982,-0.15844 0,0 z m -49.01406,-4.98216 c 3.599854,-7.37681 -10.470716,4.30927 0,0 z m 65.7128,-0.37967 c -3.73368,-7.48101 -11.28521,0.85812 -1.25577,0.1708 z m -31.26615,-1.71215 c 1.40984,-4.83609 -6.66501,-7.31555 2.09617,-7.03391 6.0489,-6.73542 -11.084387,1.25664 -4.90893,-5.48224 -1.48551,-10.4173 -4.884617,1.70358 -5.440151,0.27877 -10.597106,-3.87685 -2.50437,5.23629 -1.852083,5.68856 -2.149174,4.29151 1.226387,11.36175 4.486002,2.47499 -0.812127,-4.96036 -4.397214,-3.08648 1.192572,-4.04065 1.47776,-0.93739 -1.679082,12.24331 4.42642,8.11448 z m -5.24983,-8.80528 c -3.348014,-1.11956 2.539,-0.0812 0,0 z m 8.10943,8.45894 c -1.71827,-5.01823 12.4962,-4.64353 1.47455,-5.82571 -1.24888,-0.18897 -3.42576,6.5694 -1.47455,5.82571 z m 25.13541,-3.0271 c -0.67601,-0.94918 -0.67596,0.94919 0,0 z m -40.481244,-1.18232 c -1.106742,-0.93657 -0.949342,1.30893 0,0 z m 38.862564,-0.64489 c -2.3819,-0.73257 -0.26701,-0.21326 0,0 z m -56.396721,-0.18472 c -1.047664,-0.55602 -0.247275,0.59617 0,0 z m 14.245448,-0.1348 c 8.361073,-3.57794 -12.388932,-6.26791 0.315461,-7.4537 6.895068,-4.05522 -16.89768,3.79852 -5.825515,3.29306 7.634764,0.24579 -2.519468,4.54323 5.510054,4.16058 z m 39.536623,-0.21562 c -0.84488,-5.76012 -3.3229,1.39554 0,0 z M 74.071522,129.4161 c 3.125175,-3.30477 -6.483468,2.99192 0,0 z m 61.648648,0.42372 c -3.7183,-5.94878 -5.44916,-7.02157 0.66923,-10.45391 -6.05999,-7.85941 -7.31554,7.05009 -7.27719,1.40111 0.81834,-0.77682 0.17469,-14.07033 -3.94275,-5.62045 4.0007,8.00105 0.99971,1.946 -5.12659,2.61038 -0.3384,6.90545 10.94154,0.84955 3.6075,5.59434 -3.94132,4.65373 2.57878,9.08957 4.33004,1.24305 1.64737,2.1675 5.05603,5.87319 7.73976,5.22548 z m -12.74322,-3.68694 c 0.44092,-3.75035 0.90258,-0.33702 0,0 z m 4.73884,-2.4301 c -2.15764,-4.49643 2.10167,-0.0224 0,-1.4e-4 z M 70.916634,128.77 c 6.398133,-4.23591 0.497369,-8.71588 5.866863,-7.85987 4.708582,6.39136 11.153747,-8.11077 1.058337,-2.04431 3.012819,-8.35307 -5.668073,-5.77699 -4.03584,-0.16089 -5.201833,-4.05784 -8.201317,4.02076 -1.512321,3.48884 -1.802942,1.41009 -7.422759,10.27337 -1.377039,6.57623 z m 5.469993,-8.60753 c -2.287708,-1.28781 3.391785,-1.4528 0,0 z m 3.069007,8.75127 c 2.360128,-11.45004 -9.394851,-3.85303 -1.179468,0.99219 l 0.687564,-0.19173 z m 36.393876,-1.15356 c 4.39914,-5.19262 -12.17048,-1.00594 -1.29644,0.82348 l 0.7777,0.31012 0.51874,-1.13356 z m -0.83372,0.17699 c 0.50207,-1.33229 0.82183,0.95955 0,0 z m 6.35,-2.03085 c -2.12581,-3.05118 -2.60036,2.18983 0,0 z m -7.86128,-2.21724 c 7.58515,-1.27353 -3.74429,-7.13191 -3.5158,0.64939 l 1.39881,-0.0321 z m 8.33842,0.0313 c -2.83274,-3.37552 -8.13613,-10.52613 -3.12302,-9.97829 5.64244,-0.17357 1.05808,-8.2394 -3.80515,-2.73998 1.01749,-1.91769 -5.25993,-11.479751 -4.69946,-1.2045 -0.97409,-0.52027 -11.961293,-0.84853 -3.17645,4.27046 6.92709,-4.46757 -4.80634,11.94072 4.00435,5.04751 2.31528,-8.99158 7.7298,8.15608 10.79973,4.6048 z m -9.52235,-8.96184 c -2.25021,-3.99715 0.0914,-5.64415 0.44192,-1.40464 1.89592,-1.39231 0.0947,4.21508 -0.44192,1.40464 z m 2.23796,-1.1523 c -2.97552,-5.76316 1.95891,0.2521 0,0 z m -6.88494,10.03905 c -1.457,-0.42943 -0.26443,0.46307 0,0 z m -23.782109,-0.25777 c 3.652178,-1.57775 -6.123667,0.6402 0,0 z m 21.272309,-2.27275 c 3.27726,-6.22557 -4.81068,2.14944 0,0 z m -18.992945,-0.10111 c 3.557663,-5.55503 3.637062,-3.26623 7.690879,-0.23986 1.941401,-5.89796 -5.001361,-7.26995 3.032695,-8.46666 2.573269,-5.82834 -7.230822,0.74999 -5.296877,-6.74501 -3.927383,2.00755 -3.312556,7.00122 -9.588533,3.95576 -2.42836,3.62644 7.942938,5.78582 2.838904,11.92135 l 1.322916,-0.4256 z m 3.077828,-5.974 c 0.285392,-3.79982 1.203345,2.77756 0,0 z m -2.37231,-0.94401 c 4.315217,-8.64127 1.336164,2.09578 0,0 z m 3.689296,0.23843 c 0.442625,-2.42634 2.405515,-0.24766 0,0 z m 0.494452,-1.64367 c -0.263982,-1.44112 1.866463,1.25731 0,0 z m -1.960414,-0.48712 c 2.68059,-6.39508 1.813262,1.96731 0,0 z m 2.103585,-0.63629 c 0.727081,-2.33253 1.91116,-0.88193 0,0 z m 6.705111,6.81185 c 4.002287,-2.36688 5.364737,-9.23772 5.230647,-10.61549 -2.45378,0.25034 -11.670378,14.95846 -5.230647,10.61549 z m 0.451493,-2.62813 c 1.13339,-3.52236 0.946941,1.32968 0,0 z m 4.316164,2.64584 c 9.55838,-1.53413 -3.503911,-6.55434 0,2.1e-4 z m -18.677855,-2.46182 c -1.530966,-0.34875 -2.055483,1.66769 0,0 z m -2.62743,0.0544 c 1.301956,-2.6565 -3.939231,0.2314 0,0 z m 40.852105,-0.89988 c 7.1034,-2.1797 -8.07393,1.37551 0,0 z"
         id="path3909" />
      <path
         style="fill:#002319;stroke-width:1.5449"
         d="m 107.37571,148.88537 c -0.87939,-0.6848 0.83665,1.44318 0,0 z"
         id="path3937" />
      <path
         style="fill:#002319;stroke-width:1.5449"
         d="m 89.602256,149.72439 c 0.569305,-6.2275 -10.29636,4.96131 -10.305208,-2.54892 -6.551324,5.54824 -13.099344,-4.14883 -10.583333,-6.98044 -10.903291,0.34689 10.673391,-11.76832 -1.462248,-7.64583 -1.135049,-5.00511 2.758353,-10.21345 -0.631868,-14.01677 6.295739,-1.49369 6.065552,-3.54617 10.14232,-7.37326 4.940189,2.84665 4.08812,-5.81785 10.056656,-3.70007 4.912206,-9.097685 10.023054,7.79855 15.549945,-1.79543 4.81132,-3.58201 2.53358,7.36863 6.86929,0.29041 3.85352,-6.792484 6.97413,4.08393 13.61246,3.25631 0.93803,5.87345 9.02997,-2.26939 8.48759,6.68154 6.83973,-1.08008 7.53091,6.1436 3.04905,8.11701 4.66835,3.31811 2.93011,8.81959 -0.0565,9.06428 5.65377,1.95364 4.54267,8.12272 -0.25787,7.12441 8.70028,7.21889 -5.28574,4.27574 -4.5188,7.03893 -1.64896,4.95761 -8.34002,-2.95754 -10.11093,2.26919 -5.48651,-1.37097 -6.64402,-3.71958 -10.51242,0.62806 -1.87031,-5.85097 -10.676287,3.42318 -10.875718,-2.68697 -2.101027,1.48536 -6.034937,3.81782 -8.452416,2.27755 z m 4.672638,-2.62373 c 3.259442,-1.27399 9.213436,-10.54457 5.684059,-1.07096 1.602417,4.65509 9.503087,-10.55125 8.291287,1.33873 5.3223,-2.269 7.13757,-12.45509 -1.88592,-8.55166 -3.42311,3.90196 -7.419695,-8.27632 -10.398172,0.87878 -3.685998,-4.4354 -3.578666,-14.06592 -3.86834,-3.42519 -6.264737,1.09316 -0.35827,11.68112 -8.706607,8.12568 -3.458193,8.33524 9.997786,-3.88261 11.891094,-4.58616 -0.790186,1.5727 -8.418322,11.63225 -1.007401,7.29078 z m 11.745066,-5.98233 c 0.43801,-1.82649 0.74446,2.20345 0,0 z m 13.92147,5.85322 c -1.74438,-5.46141 4.90883,-0.72905 -0.26554,-4.83691 -1.65425,2.68155 -5.08089,6.63018 0.26554,4.83691 z m -45.252955,0.1323 c 2.415593,-2.58273 -4.506939,0.43364 0,0 z m 2.811392,-1.15322 c 4.17398,-2.77124 -4.418851,2.14693 0,0 z m 49.241183,-0.81535 c -2.80998,-6.32874 -3.35527,-7.33761 2.71566,-11.48674 -4.76893,-4.02534 -8.56677,1.1398 -10.35363,-6.55413 -4.63826,1.42431 0.50085,8.49166 -7.581,5.82072 -4.83907,3.96108 9.24823,3.68554 2.25891,10.17996 3.0229,7.60477 7.03309,-9.02912 5.89374,-4.14064 0.84628,2.55762 4.04315,7.07092 7.06632,6.18083 z m -8.91111,-7.6872 c 1.02685,-0.96393 0.53747,1.33958 0,0 z m 3.03582,-1.02475 c -0.66554,-2.40786 2.37796,1.50908 0,0 z m -3.46872,-0.32174 c 0.92442,-1.17757 0.93817,1.41261 0,0 z m 1.05833,-1.15296 c 1.78492,-0.4893 -0.009,-0.13612 0,0 z m -41.509237,9.59963 c 4.940565,-1.78582 4.657753,-9.42375 8.287851,-1.53563 5.705767,2.35285 -0.927872,-8.80616 6.609367,-9.33925 -3.939094,-5.14109 -9.553893,4.11192 -7.160873,-3.70228 -4.940439,-7.93686 -4.551466,9.41102 -6.56706,1.52234 -7.698143,-0.24223 -5.17869,5.18696 -1.260403,7.5365 -1.032781,1.1807 -5.102768,8.5534 0.09112,5.51832 z m 2.020181,-6.61547 c 1.457014,-0.42943 0.264432,0.46307 0,0 z m 3.956801,-0.53083 c -0.28588,-2.98123 2.070162,-1.31167 0,0 z m -2.380596,-1.40764 c 1.023555,-1.40755 0.460349,1.75424 0,0 z m 54.037721,8.23043 c -0.12088,-5.38475 -14.14185,-4.11373 -3.53218,0.0514 l 1.45121,0.1084 z m -62.030072,-0.65362 c 9.743844,-11.08729 -10.653806,1.91205 0,0 z m -1.5875,-5.34158 c 6.228922,-7.34117 -11.57748,2.96861 0,3e-5 z m 57.282292,0.0108 c -1.24025,-1.50508 -0.20446,1.29595 0,0 z m 8.41586,-0.35988 c -0.74863,-7.86956 -12.97217,0.0977 -2.59373,-0.0133 l 1.85078,0.19519 z m -30.8687,-2.42123 c -3.12548,-7.0456 -2.15768,-4.92956 3.932,-8.07258 -3.38904,-4.58831 -9.47677,1.989 -7.38667,-5.64487 -4.0163,-8.02578 -2.81731,5.86614 -9.690566,1.24889 -3.760049,3.31046 6.697692,7.03024 2.119608,13.25585 4.852606,0.36153 5.179228,-8.94586 8.203178,-0.14474 0.68165,1.1335 3.50914,2.03399 2.82245,-0.64255 z m -5.59299,-4.69981 c 0.60175,-3.35817 0.19405,2.57144 0,0 z m -1.188757,-1.64418 c 0.669589,-0.48386 1.053387,0.85232 0,0 z m 1.244467,-2.26205 c 0.16122,-4.75354 3.35494,22.1104 0,0 z m 8.42747,8.84274 c -2.59441,-4.99365 12.00883,-4.13549 2.40105,-6.30029 -3.49534,-1.96162 -4.96536,8.02882 -2.40105,6.30029 z m 24.85431,-3.14414 c -0.67818,-0.97999 -1.01709,0.9486 0,0 z m -26.54217,-1.37252 c -0.50932,0.11475 0.37901,1.15977 0,0 z m 22.68215,0.27606 c -0.86054,-7.66667 -6.62526,-0.29707 0,0 z m -53.821352,-0.74865 c 1.282288,-1.95826 -5.292079,1.67588 0,0 z m 56.358462,-0.1084 c -1.74339,-2.25451 -2.66976,1.71187 0,0 z m -40.941338,-0.78294 c 5.47126,-2.48041 -11.238034,-5.796 -1.18692,-6.64678 8.917077,-4.25652 -17.42085,0.74401 -6.552446,3.70031 7.757583,-0.48175 -2.879695,4.13108 5.950994,3.68357 l 1.788372,-0.73696 z m -17.33949,-0.20291 c 4.023147,-3.79368 -5.255815,1.33665 -2.05052,0.69775 z m 62.194928,0.0289 c -2.01551,-3.39626 -7.44729,-7.91241 0.66387,-9.61659 -3.11272,-5.38049 -8.76031,2.11175 -7.62898,-6.49422 -9.00216,-5.43606 2.35164,12.93611 -5.31642,3.8287 -4.56476,-1.68014 -5.04342,3.83194 -0.0228,5.13431 -4.67057,8.73663 2.8211,6.71179 4.68405,2.87815 0.70746,1.31551 6.35226,6.74335 7.62027,4.26965 z m -8.37024,-6.35 c 0.23154,-1.19259 0.23154,1.19259 0,0 z m 1.22896,-1.02049 c 0.64591,-2.18209 2.39435,0.3219 0,0 z m -4.10997,-0.75037 c 1.74418,-0.39138 0.33812,0.43918 0,0 z m 3.3684,-1.2939 c 0.92441,-1.17756 0.93815,1.4126 0,0 z m 0.79375,-0.78732 c 0.81178,-0.93796 0.15591,1.30388 0,0 z m -49.554741,9.53837 c -1.59006,-6.25682 8.58246,-12.88351 -0.480237,-11.37842 -0.465766,-10.01108 -5.228318,-1.41873 -5.333032,0.83538 -5.262289,-3.20989 -7.852508,3.32949 -2.059272,4.61588 -7.9737,5.85147 0.182254,9.41358 3.332448,1.55711 0.13166,1.29214 2.548994,8.16951 4.540093,4.37005 z m -4.450427,-4.95869 c -0.643318,-2.94154 0.965383,-0.20984 0,0 z m -1.344091,-1.13172 c -0.1076,-4.00944 2.362764,-2.80454 0,0 z m 3.138148,-0.56602 c 3.055267,0.62602 1.012313,0.38751 0,0 z m -0.52176,-2.40592 c -1.086121,-1.7443 2.444983,-0.092 0,0 z m 39.239121,9.45851 c 1.11222,-5.25732 10.90168,-3.91053 1.86586,-4.17284 -9.18121,2.20792 -4.79547,-3.26039 0.6911,-1.04657 12.42944,1.73244 -9.07188,-9.79928 1.84964,-10.60606 6.13235,-8.47225 -7.75419,0.35178 -6.26382,-7.8283 -4.60361,-3.04266 -3.46254,6.95803 -9.98907,4.03786 -0.76652,4.28165 8.49867,4.5594 3.42241,10.45897 4.51033,3.68111 5.24156,-9.3287 9.41608,0.0528 6.75579,5.76181 -7.69525,-4.77017 -6.73902,2.85099 -9.0572,5.11945 1.24735,-15.43563 -8.85076,-5.85133 3.35907,6.20341 9.95659,9.17013 14.59758,12.1045 z M 103.10954,118.828 c 3.038,-1.90042 3.33731,0.95375 0,0 z m 9.4444,-3.7538 c 0.71347,-5.29258 0.89019,1.51108 0,0 z m -0.647,-1.49841 c -4.52172,-2.98215 2.51712,0.31118 0,0 z m 2.77592,-0.3716 c -1.55785,-1.72364 1.96591,0.39704 0,0 z m -2.72573,-2.37407 c 1.20744,-1.08014 1.15548,0.97037 0,0 z m -27.500712,16.69456 c -0.949402,-1.00731 -0.328577,1.04307 0,0 z m 1.805955,-6.48007 c 3.584822,-7.67759 3.764613,-0.74143 8.547074,0.0252 -0.509078,-6.6346 -4.169122,-6.61767 2.628903,-9.44891 0.966201,-5.42724 -7.503432,1.49042 -5.66897,-5.94347 -3.995923,1.57054 -3.457877,6.28677 -9.250668,3.53424 -3.87715,3.7056 6.394576,6.46282 2.247699,12.1466 l 0.507886,0.0501 z m 3.374308,-5.73486 c -0.92407,-2.31928 0.607671,-0.26392 0,0 z m -1.872972,-1.5434 c 0.652522,-0.94254 0.32,0.96736 0,0 z m 0.160419,-0.90393 c 0.856912,-1.46351 0.506136,1.24056 0,0 z m 1.554018,-0.98117 c 2.381316,-3.6104 0.784377,0.65397 0,0 z m 1.98973,-0.6596 c 0.507259,-1.71788 1.211944,-0.6058 0,0 z m -0.926042,9.95303 c -0.927507,-1.28043 -1.975275,1.00807 0,0 z m 6.309211,-1.58199 c 5.496595,-2.7895 6.709195,-9.17528 5.968395,-11.80362 -2.841454,3.39181 -10.095782,9.67141 -5.968395,11.80362 z m 29.806415,-0.006 c -0.65254,-0.94251 -0.31999,0.96735 0,0 z m -42.360815,-3.69625 c -2.483584,-2.40049 -7.876137,0.228 -0.999614,0.76103 l 0.999612,-0.76108 z m 39.411635,-0.0741 c 0.0726,-4.062 -7.52768,1.76091 -0.91429,-0.10151 l 0.73053,0.65934 z"
         id="path3936" />
      <path
         style="fill:#001811;stroke-width:1.5449"
         d="m 102.84496,107.41599 c 1.93898,-1.10936 -0.65602,1.04208 0,0 z"
         id="path5675" />
      <path
         style="fill:#001811;stroke-width:1.5449"
         d="m 108.99652,108.54837 c 2.62764,-6.65031 2.70455,-4.84184 -0.043,-0.94257 -0.46182,0.28624 1.31415,1.25577 0.043,0.94257 z"
         id="path5670" />
      <path
         style="fill:#001811;stroke-width:1.5449"
         d="m 103.50642,108.20977 c 1.98979,-1.92535 -1.3714,1.88486 0,0 z"
         id="path5669" />
      <path
         style="fill:#001811;stroke-width:1.5449"
         d="m 92.550262,107.92113 c -0.947375,-4.11453 1.410043,3.59597 0,0 z"
         id="path5668" />
      <path
         style="fill:#001811;stroke-width:1.5449"
         d="m 118.67179,108.94585 c 1.40538,-0.61171 0.82651,0.46627 0,0 z"
         id="path5666" />
      <path
         style="fill:#001811;stroke-width:1.5449"
         d="m 105.42465,108.96445 c -0.76376,-2.92562 4.55302,1.08563 4e-5,-8e-5 z"
         id="path5665" />
      <path
         style="fill:#001811;stroke-width:1.5449"
         d="m 115.80954,109.69772 c 0.89409,-1.07333 1.25108,-0.73076 0,0 z"
         id="path5662" />
      <path
         style="fill:#001811;stroke-width:1.5449"
         d="m 102.31579,109.69772 c 0.89409,-1.07333 1.25108,-0.73076 0,0 z"
         id="path5661" />
      <path
         style="fill:#001811;stroke-width:1.5449"
         d="m 94.510584,109.35342 c 5.663966,-1.31444 -6.126741,-3.76196 4.053876,-0.34036 4.01472,-4.99547 12.09829,-4.34964 2.47034,-2.03722 -0.28422,2.59179 -8.068035,3.08056 -6.524216,2.37758 z"
         id="path5660" />
      <path
         style="fill:#001811;stroke-width:1.5449"
         d="m 122.95329,109.94794 c -4.83339,-4.03014 -8.66757,-0.61849 -10.07625,-5.57338 1.33185,3.37621 9.48294,3.41105 10.07625,5.57338 z"
         id="path5656" />
      <path
         style="fill:#001811;stroke-width:1.5449"
         d="m 99.878011,109.92694 c 2.802619,-3.51752 1.158079,-0.26768 0,0 z"
         id="path5655" />
      <path
         style="fill:#001811;stroke-width:1.5449"
         d="m 122.44501,110.53837 c -1.59272,-1.8316 0.73681,-0.53027 0,0 z"
         id="path5650" />
      <path
         style="fill:#001811;stroke-width:1.5449"
         d="m 102.87152,111.30651 c -0.9164,-1.59002 1.51344,1.71586 0,0 z"
         id="path5635" />
      <path
         style="fill:#001811;stroke-width:1.5449"
         d="m 98.917985,111.38471 c 0.231539,-1.19259 0.231539,1.19259 0,0 z"
         id="path5634" />
      <path
         style="fill:#001811;stroke-width:1.5449"
         d="m 102.33668,111.75992 c 0.38189,-0.70465 0.11796,1.14074 0,0 z"
         id="path5627" />
      <path
         style="fill:#001811;stroke-width:1.5449"
         d="m 80.20262,111.88115 c -0.110018,-6.18708 7.973576,-2.26965 10.573512,-7.67061 4.977357,4.1878 0.523655,-0.95087 -0.867505,1.46856 -3.351867,0.56826 -2.401939,4.04089 -0.902944,1.25538 -2.172692,5.36431 -8.538767,-1.76429 -8.443942,3.98769 l -0.02383,1.15998 -0.335288,-0.20091 z m 4.386089,-2.76703 c -1.648603,-1.42701 2.461768,1.1927 0,0 z"
         id="path5626" />
      <path
         style="fill:#001811;stroke-width:1.5449"
         d="m 104.41243,112.50911 c -2.09874,-2.18555 2.57894,2.19621 0,0 z"
         id="path5617" />
      <path
         style="fill:#001811;stroke-width:1.5449"
         d="m 81.046756,112.92372 c 1.015487,-0.34858 0.587618,0.75286 0,0 z"
         id="path5616" />
      <path
         style="fill:#001811;stroke-width:1.5449"
         d="m 120.45491,113.39074 c 1.96681,-1.11516 -1.18484,1.2432 0,0 z"
         id="path5608" />
      <path
         style="fill:#001811;stroke-width:1.5449"
         d="m 121.50075,114.02625 c 2.12137,-1.2217 1.44991,0.54387 0,0 z"
         id="path5606" />
      <path
         style="fill:#001811;stroke-width:1.5449"
         d="m 95.647136,114.07815 c -0.5206,-1.24079 1.761861,0.0648 0,0 z"
         id="path5605" />
      <path
         style="fill:#001811;stroke-width:1.5449"
         d="m 82.702877,113.83216 c -0.801542,-1.23066 1.459997,1.60342 0,0 z"
         id="path5604" />
      <path
         style="fill:#001811;stroke-width:1.5449"
         d="m 94.113709,114.45578 c 0.120595,-0.71042 1.564567,0.23715 0,0 z"
         id="path5602" />
      <path
         style="fill:#001811;stroke-width:1.5449"
         d="m 105.49079,114.5671 c 0.55406,-1.23846 1.11793,0.47218 0,0 z"
         id="path5599" />
      <path
         style="fill:#001811;stroke-width:1.5449"
         d="m 81.149126,114.5601 c -0.436574,-0.98083 1.337538,0.99634 0,0 z"
         id="path5598" />
      <path
         style="fill:#001811;stroke-width:1.5449"
         d="m 79.053348,114.40576 c 0.381878,-0.70464 0.118,1.1407 0,0 z"
         id="path5597" />
      <path
         style="fill:#001811;stroke-width:1.5449"
         d="m 120.30746,114.98528 c 1.03294,-0.86269 1.06047,0.46966 0,0 z"
         id="path5592" />
      <path
         style="fill:#001811;stroke-width:1.5449"
         d="m 106.83987,114.75854 c -0.93413,-1.63375 1.92521,1.9482 0,0 z"
         id="path5589" />
      <path
         style="fill:#001811;stroke-width:1.5449"
         d="m 84.059543,114.95697 c -1.524211,-1.41329 2.406537,1.27935 0,0 z"
         id="path5588" />
      <path
         style="fill:#001811;stroke-width:1.5449"
         d="m 101.12517,115.61844 c 1.98979,-1.92535 -1.371403,1.88486 0,0 z"
         id="path5581" />
      <path
         style="fill:#001811;stroke-width:1.5449"
         d="m 117.42064,115.92712 c -0.32287,-1.61559 1.15847,1.58662 0,0 z"
         id="path5579" />
      <path
         style="fill:#001811;stroke-width:1.5449"
         d="m 124.07711,116.26428 c -1.22265,-5.95225 1.14263,0.26188 0,0 z"
         id="path5576" />
      <path
         style="fill:#001811;stroke-width:1.5449"
         d="m 123.96201,117.02519 c 1.15977,-0.37898 0.11473,0.50934 0,0 z"
         id="path5572" />
      <path
         style="fill:#001811;stroke-width:1.5449"
         d="m 101.25746,116.56888 c 3.56934,-3.59024 3.47497,-2.52187 0,0 z"
         id="path5571" />
      <path
         style="fill:#001811;stroke-width:1.5449"
         d="m 95.304334,116.94135 c 0.652522,-0.94254 0.32,0.96736 0,0 z"
         id="path5570" />
      <path
         style="fill:#001811;stroke-width:1.5449"
         d="m 83.794959,117.04249 c 0.507259,-1.71788 1.211938,-0.60581 0,0 z"
         id="path5569" />
      <path
         style="fill:#001811;stroke-width:1.5449"
         d="m 131.08033,117.37854 c 3.47568,-0.89817 3.94487,0.78441 0,0 z"
         id="path5563" />
      <path
         style="fill:#001811;stroke-width:1.5449"
         d="m 121.17239,117.55134 c 1.74418,-0.39138 0.33812,0.43918 0,0 z"
         id="path5562" />
      <path
         style="fill:#001811;stroke-width:1.5449"
         d="m 107.09918,117.31577 c 0.38189,-0.70465 0.11796,1.14074 0,0 z"
         id="path5561" />
      <path
         style="fill:#001811;stroke-width:1.5449"
         d="m 81.253629,117.69014 c 2.355366,-0.26041 -0.375575,-0.28839 0,0 z"
         id="path5555" />
      <path
         style="fill:#001811;stroke-width:1.5449"
         d="m 125.12154,117.86738 c 0.28855,-1.25655 0.1546,1.59389 0,0 z"
         id="path5553" />
      <path
         style="fill:#001811;stroke-width:1.5449"
         d="m 99.0085,117.99967 c 1.98979,-1.92535 -1.371394,1.88486 0,0 z"
         id="path5552" />
      <path
         style="fill:#001811;stroke-width:1.5449"
         d="m 73.347047,117.94997 c 0.756446,-2.83974 1.059487,-3.00569 0,0 z"
         id="path5551" />
      <path
         style="fill:#001811;stroke-width:1.5449"
         d="m 119.00719,118.52885 c 0.51265,-2.1824 0.50306,0.37512 0,0 z"
         id="path5548" />
      <path
         style="fill:#001811;stroke-width:1.5449"
         d="m 100.46371,118.35607 c -1.251045,-1.21896 2.39526,1.16466 0,0 z"
         id="path5547" />
      <path
         style="fill:#001811;stroke-width:1.5449"
         d="m 106.32632,118.79343 c 0.23154,-1.19259 0.23154,1.19259 0,0 z"
         id="path5542" />
      <path
         style="fill:#001811;stroke-width:1.5449"
         d="m 97.288709,119.05801 c 1.017151,-0.94858 0.67814,0.98 0,0 z"
         id="path5541" />
      <path
         style="fill:#001811;stroke-width:1.5449"
         d="m 127.18662,119.3226 c -0.43668,-0.98083 1.33753,0.99635 0,0 z"
         id="path5539" />
      <path
         style="fill:#001811;stroke-width:1.5449"
         d="m 113.69287,119.10858 c -2.88015,-2.78703 0.58455,-2.39812 0,0 z"
         id="path5538" />
      <path
         style="fill:#001811;stroke-width:1.5449"
         d="m 95.870716,119.00236 c -0.756784,-3.66971 0.977411,2.02927 0,0 z"
         id="path5537" />
      <path
         style="fill:#001811;stroke-width:1.5449"
         d="m 110.93176,120.03876 c 0.9272,-1.20744 -0.33501,1.10102 0,0 z"
         id="path5530" />
      <path
         style="fill:#001811;stroke-width:1.5449"
         d="m 101.57018,119.71944 c 0.16566,-2.50773 1.12536,1.94451 0,0 z"
         id="path5529" />
      <path
         style="fill:#001811;stroke-width:1.5449"
         d="m 119.15143,120.70147 c 1.36017,-0.78745 0.22356,-0.21652 0,0 z"
         id="path5521" />
      <path
         style="fill:#001811;stroke-width:1.5449"
         d="m 103.00994,120.76757 c -0.69384,-1.93661 0.97473,1.2395 0,0 z"
         id="path5520" />
      <path
         style="fill:#001811;stroke-width:1.5449"
         d="m 83.795021,120.70167 c 1.294933,-7.83771 0.987279,2.08351 0,0 z"
         id="path5519" />
      <path
         style="fill:#001811;stroke-width:1.5449"
         d="m 115.9304,120.9705 c -3.31549,-4.07073 2.4326,1.6251 0,0 z"
         id="path5514" />
      <path
         style="fill:#001811;stroke-width:1.5449"
         d="m 110.51787,121.33754 c 1.70209,-1.74573 1.59494,-0.41486 0,0 z"
         id="path5513" />
      <path
         style="fill:#001811;stroke-width:1.5449"
         d="m 108.93037,121.17039 c 0.49851,-1.44449 2.1236,0.76412 0,0 z"
         id="path5512" />
      <path
         style="fill:#001811;stroke-width:1.5449"
         d="m 94.907459,121.17439 c 0.675997,-0.94917 0.675997,0.94917 0,0 z"
         id="path5511" />
      <path
         style="fill:#001811;stroke-width:1.5449"
         d="m 92.023208,120.84366 c -1.52748,-1.97388 2.627687,2.09634 0,0 z"
         id="path5510" />
      <path
         style="fill:#001811;stroke-width:1.5449"
         d="m 105.49079,121.42366 c 0.76207,-0.5042 0.61746,0.9088 0,0 z"
         id="path5505" />
      <path
         style="fill:#001811;stroke-width:1.5449"
         d="m 85.382459,121.43926 c 1.938974,-1.10936 -0.656021,1.04207 0,0 z"
         id="path5504" />
      <path
         style="fill:#001811;stroke-width:1.5449"
         d="m 135.29183,122.10379 c -1.3749,-1.0234 1.95544,0.12634 0,0 z"
         id="path5500" />
      <path
         style="fill:#001811;stroke-width:1.5449"
         d="m 117.92621,122.3047 c 1.6811,-1.26117 0.11573,0.87503 0,0 z"
         id="path5499" />
      <path
         style="fill:#001811;stroke-width:1.5449"
         d="m 93.584542,122.233 c 0.984407,-0.99355 1.446073,0.96863 0,0 z"
         id="path5498" />
      <path
         style="fill:#001811;stroke-width:1.5449"
         d="m 85.580897,122.3224 c 1.457014,-0.42943 0.264432,0.46307 0,0 z"
         id="path5497" />
      <path
         style="fill:#001811;stroke-width:1.5449"
         d="m 83.822759,122.19262 c -4.694539,-0.41204 3.714258,-0.36824 0,0 z"
         id="path5496" />
      <path
         style="fill:#001811;stroke-width:1.5449"
         d="m 120.36503,122.03459 c -1.12972,-1.32372 3.81507,2.48531 0,0 z"
         id="path5493" />
      <path
         style="fill:#001811;stroke-width:1.5449"
         d="m 69.098513,122.51714 c -8.238796,-4.62612 6.2562,-5.95519 7.023528,-11.13203 7.561452,0.87815 -2.836129,-0.32722 -1.567338,2.72554 0.634144,-1.10745 -3.633784,3.84528 -5.678678,3.80637 -4.829028,1.49225 -0.95835,3.76163 0.222488,4.60012 z m -0.697929,-4.42199 c -1.605458,-0.54325 -1.513665,1.79927 0,0 z m 1.43629,-0.51348 c 2.329903,-0.797 2.106639,0.60597 0,0 z"
         id="path5492" />
      <path
         style="fill:#001811;stroke-width:1.5449"
         d="m 135.90999,122.51229 c 4.98322,-6.81926 -7.71804,-4.33006 -7.03337,-10.88752 0.67909,-0.35971 -6.42618,2.77141 -3.78533,0.93776 -5.44507,-1.55688 7.86856,-3.09269 6.51012,3.42576 4.95187,-0.84572 8.15344,4.77103 4.30858,6.524 z m 1.2797,-1.74153 c -0.74878,0.51146 -0.31429,1.15089 0,0 z m -0.51309,-2.83656 c -1.18205,-1.29441 0.72863,1.82738 0,0 z m -8.69623,-6.38599 c -0.73269,-0.7451 -3.16704,0.64635 0,0 z m 2.11667,3.52544 c 0.76207,-0.5042 0.61746,0.9088 0,0 z"
         id="path5487" />
      <path
         style="fill:#001811;stroke-width:1.5449"
         d="m 103.52343,122.68458 c 0.92719,-1.20743 -0.33502,1.10105 0,0 z"
         id="path5486" />
      <path
         style="fill:#001811;stroke-width:1.5449"
         d="m 91.350834,122.78682 c 0.951887,-0.43617 1.025579,0.75273 0,0 z"
         id="path5485" />
      <path
         style="fill:#001811;stroke-width:1.5449"
         d="m 132.47829,123.57276 c -1.81295,-0.36272 2.05952,-0.55195 0,0 z"
         id="path5476" />
      <path
         style="fill:#001811;stroke-width:1.5449"
         d="m 102.63411,122.69609 c -1.58116,-5.76649 1.63204,3.88173 0,0 z"
         id="path5475" />
      <path
         style="fill:#001811;stroke-width:1.5449"
         d="m 97.63899,123.09988 c -0.478005,-4.2148 1.269608,3.24231 0,0 z"
         id="path5471" />
      <path
         style="fill:#001811;stroke-width:1.5449"
         d="m 112.84952,124.43352 c 1.15976,-0.37899 0.1147,0.50937 0,0 z"
         id="path5466" />
      <path
         style="fill:#001811;stroke-width:1.5449"
         d="m 106.68142,124.61402 c -1.22667,-0.86555 1.96545,0.71349 0,0 z"
         id="path5462" />
      <path
         style="fill:#001811;stroke-width:1.5449"
         d="m 113.8944,125.22063 c 2.32068,-0.38427 0.47896,0.4075 0,0 z"
         id="path5455" />
      <path
         style="fill:#001811;stroke-width:1.5449"
         d="m 103.97447,125.22463 c 1.74419,-0.39138 0.3381,0.43917 0,0 z"
         id="path5454" />
      <path
         style="fill:#001811;stroke-width:1.5449"
         d="m 106.64354,125.30728 c -4.11752,-2.0253 4.47245,1.20875 0,0 z"
         id="path5449" />
      <path
         style="fill:#001811;stroke-width:1.5449"
         d="m 89.351209,125.24328 c 0.442255,-0.91446 1.140522,1.43408 0,0 z"
         id="path5448" />
      <path
         style="fill:#001811;stroke-width:1.5449"
         d="m 128.40994,125.79471 c -0.69383,-1.9366 0.97473,1.23949 0,0 z"
         id="path5442" />
      <path
         style="fill:#001811;stroke-width:1.5449"
         d="m 108.79996,125.94026 c 0.66959,-0.48387 1.05338,0.85232 0,0 z"
         id="path5441" />
      <path
         style="fill:#001811;stroke-width:1.5449"
         d="m 67.655377,126.21335 c 2.544812,-6.85601 2.539019,-0.56857 0,0 z"
         id="path5438" />
      <path
         style="fill:#001811;stroke-width:1.5449"
         d="m 81.102693,126.11547 c 0.147671,-1.72739 0.392425,1.6394 0,0 z"
         id="path5434" />
      <path
         style="fill:#001811;stroke-width:1.5449"
         d="m 74.005377,126.51755 c 0.59481,-1.37631 1.157098,-0.26048 0,0 z"
         id="path5433" />
      <path
         style="fill:#001811;stroke-width:1.5449"
         d="m 91.60204,126.73397 c 0.669589,-0.48386 1.053385,0.85232 0,0 z"
         id="path5428" />
      <path
         style="fill:#001811;stroke-width:1.5449"
         d="m 135.44894,126.52539 c -2.76837,-0.74124 -0.54107,-7.44038 0,0 z"
         id="path5426" />
      <path
         style="fill:#001811;stroke-width:1.5449"
         d="m 119.68374,127.13074 c -3.30273,-1.45677 2.21719,-0.19631 0,0 z"
         id="path5420" />
      <path
         style="fill:#001811;stroke-width:1.5449"
         d="m 67.540096,127.18254 c 0.927196,-1.20743 -0.335016,1.10103 0,0 z"
         id="path5419" />
      <path
         style="fill:#001811;stroke-width:1.5449"
         d="m 136.25151,127.21103 c 0.12651,-1.48117 1.1652,1.74777 0,0 z"
         id="path5417" />
      <path
         style="fill:#001811;stroke-width:1.5449"
         d="m 109.80732,127.32624 c -0.22635,-2.29172 1.7077,0.84326 0,0 z"
         id="path5416" />
      <path
         style="fill:#001811;stroke-width:1.5449"
         d="m 92.393917,127.52468 c 0.701852,-1.02041 1.319838,0.96045 0,0 z"
         id="path5415" />
      <path
         style="fill:#001811;stroke-width:1.5449"
         d="m 120.31151,127.69831 c 0.26564,-2.45757 1.87043,1.07346 0,0 z"
         id="path5409" />
      <path
         style="fill:#001811;stroke-width:1.5449"
         d="m 91.50471,127.51584 c -1.500813,-1.85842 2.289659,1.87261 0,0 z"
         id="path5408" />
      <path
         style="fill:#001811;stroke-width:1.5449"
         d="m 75.504682,128.142 c -0.814904,-1.19824 1.164118,0.22634 0,0 z"
         id="path5407" />
      <path
         style="fill:#001811;stroke-width:1.5449"
         d="m 126.40347,128.4367 c 2.24647,-4.64044 2.16035,-1.27382 0,0 z"
         id="path5405" />
      <path
         style="fill:#001811;stroke-width:1.5449"
         d="m 121.78471,129.17833 c -2.37322,-1.73101 0.70686,-0.072 0,0 z"
         id="path5397" />
      <path
         style="fill:#001811;stroke-width:1.5449"
         d="m 76.177757,128.9532 c -0.545967,-1.25352 1.217317,1.1759 0,0 z"
         id="path5396" />
      <path
         style="fill:#001811;stroke-width:1.5449"
         d="m 108.27755,129.39104 c 0.53248,-1.92665 1.62769,0.74103 0,0 z"
         id="path5391" />
      <path
         style="fill:#001811;stroke-width:1.5449"
         d="m 70.830377,129.53767 c 0.120588,-0.7104 1.564578,0.23711 0,0 z"
         id="path5390" />
      <path
         style="fill:#001811;stroke-width:1.5449"
         d="m 131.2075,129.72634 c -4.83018,-5.1571 3.6124,0.0284 0,0 z"
         id="path5388" />
      <path
         style="fill:#001811;stroke-width:1.5449"
         d="m 107.07829,129.64164 c -0.60494,-1.04439 1.93345,0.88583 0,0 z"
         id="path5387" />
      <path
         style="fill:#001811;stroke-width:1.5449"
         d="m 104.16788,130.06937 c 0.26337,-0.65844 2.11414,0.26238 0,0 z"
         id="path5384" />
      <path
         style="fill:#001811;stroke-width:1.5449"
         d="m 66.597044,130.06237 c 0.676753,-1.07929 1.071004,-0.002 0,0 z"
         id="path5383" />
      <path
         style="fill:#001811;stroke-width:1.5449"
         d="m 123.48246,130.31211 c 1.14211,-1.34105 1.22906,0.11337 0,0 z"
         id="path5380" />
      <path
         style="fill:#001811;stroke-width:1.5449"
         d="m 94.113709,130.17051 c 0.676022,-0.94918 0.675971,0.9492 0,0 z"
         id="path5379" />
      <path
         style="fill:#001811;stroke-width:1.5449"
         d="m 134.41336,130.50124 c -1.10508,-1.28474 2.89327,1.76768 0,0 z"
         id="path5378" />
      <path
         style="fill:#001811;stroke-width:1.5449"
         d="m 126.12829,130.69968 c -0.86895,-0.87373 3.80888,0.91113 0,0 z"
         id="path5377" />
      <path
         style="fill:#001811;stroke-width:1.5449"
         d="m 95.19293,130.54534 c 0.381886,-0.70465 0.117996,1.14073 0,0 z"
         id="path5376" />
      <path
         style="fill:#001811;stroke-width:1.5449"
         d="m 87.570307,130.78091 c 1.744189,-0.39138 0.3381,0.43917 0,0 z"
         id="path5375" />
      <path
         style="fill:#001811;stroke-width:1.5449"
         d="m 75.134891,131.04562 c 1.744178,-0.39138 0.338117,0.43918 0,0 z"
         id="path5371" />
      <path
         style="fill:#001811;stroke-width:1.5449"
         d="m 131.37035,131.31267 c 1.15978,-0.37898 0.11472,0.50934 0,0 z"
         id="path5365" />
      <path
         style="fill:#001811;stroke-width:1.5449"
         d="m 100.2409,130.96424 c 0.23154,-1.19259 0.23154,1.19259 0,0 z"
         id="path5364" />
      <path
         style="fill:#001811;stroke-width:1.5449"
         d="m 66.604427,131.37003 c -0.99829,-2.11301 1.301438,1.41618 0,0 z"
         id="path5360" />
      <path
         style="fill:#001811;stroke-width:1.5449"
         d="m 105.34762,131.74041 c -0.32321,-1.32699 0.86115,1.00766 0,0 z"
         id="path5358" />
      <path
         style="fill:#001811;stroke-width:1.5449"
         d="m 94.420069,131.49343 c 0.231539,-1.19259 0.231539,1.19259 0,0 z"
         id="path5357" />
      <path
         style="fill:#001811;stroke-width:1.5449"
         d="m 134.46267,132.27711 c 2.80664,-2.29708 4.61676,-5.5826 1.69193,-0.13417 z"
         id="path5352" />
      <path
         style="fill:#001811;stroke-width:1.5449"
         d="m 133.40433,132.28721 c 0.31999,-0.96735 0.65254,0.94251 0,0 z"
         id="path5351" />
      <path
         style="fill:#001811;stroke-width:1.5449"
         d="m 116.40543,131.8903 c 0.25208,-1.72747 0.16394,2.05624 0,0 z"
         id="path5348" />
      <path
         style="fill:#001811;stroke-width:1.5449"
         d="m 112.32035,132.6356 c 1.15979,-0.37899 0.1147,0.50937 0,0 z"
         id="path5347" />
      <path
         style="fill:#001811;stroke-width:1.5449"
         d="m 92.462259,132.6642 c -2.895652,-0.94087 1.107358,-0.70469 0,0 z"
         id="path5346" />
      <path
         style="fill:#001811;stroke-width:1.5449"
         d="m 67.163342,132.51551 c -2.397393,-0.83147 6.507343,-0.0476 0,0 z"
         id="path5345" />
      <path
         style="fill:#001811;stroke-width:1.5449"
         d="m 109.96211,132.61791 c 4.41024,-2.0055 7.52973,-0.87784 0.60629,0.33724 2.17098,-3.0498 -1.97183,1.70462 -0.60629,-0.33724 z"
         id="path5341" />
      <path
         style="fill:#001811;stroke-width:1.5449"
         d="m 99.95543,132.66201 c 0.38188,-0.70467 0.11797,1.14072 0,0 z"
         id="path5340" />
      <path
         style="fill:#001811;stroke-width:1.5449"
         d="m 128.94742,132.86159 c -1.31252,-2.39117 1.87314,1.41493 0,0 z"
         id="path5338" />
      <path
         style="fill:#001811;stroke-width:1.5449"
         d="m 84.328178,133.14701 c 0.893242,-1.8283 1.486906,-0.20528 0,0 z"
         id="path5337" />
      <path
         style="fill:#001811;stroke-width:1.5449"
         d="m 108.82217,133.91359 c 0.97566,-4.34715 0.49133,1.33177 0,0 z"
         id="path5333" />
      <path
         style="fill:#001811;stroke-width:1.5449"
         d="m 94.566213,133.61003 c 0.187554,-1.8416 0.603739,1.84244 0,0 z"
         id="path5332" />
      <path
         style="fill:#001811;stroke-width:1.5449"
         d="m 92.455092,133.58883 c 0.800325,-1.09769 -0.305613,1.38274 0,0 z"
         id="path5331" />
      <path
         style="fill:#001811;stroke-width:1.5449"
         d="m 101.38062,134.33765 c -1.36631,-2.65233 1.96535,2.73263 0,0 z"
         id="path5317" />
      <path
         style="fill:#001811;stroke-width:1.5449"
         d="m 98.611625,135.00946 c 0.997128,-1.79137 0.720492,0.0301 0,0 z"
         id="path5316" />
      <path
         style="fill:#001811;stroke-width:1.5449"
         d="m 92.017931,135.04326 c 0.381873,-0.70467 0.118007,1.14071 0,0 z"
         id="path5310" />
      <path
         style="fill:#001811;stroke-width:1.5449"
         d="m 90.674126,135.3582 c 0.120585,-0.71044 1.564574,0.23714 0,0 z"
         id="path5309" />
      <path
         style="fill:#001811;stroke-width:1.5449"
         d="m 128.64183,135.72676 c 1.98979,-1.92532 -1.37141,1.88485 0,0 z"
         id="path5300" />
      <path
         style="fill:#001811;stroke-width:1.5449"
         d="m 111.00539,135.99135 c -2.21106,-2.69823 3.57268,2.95368 0,0 z"
         id="path5295" />
      <path
         style="fill:#001811;stroke-width:1.5449"
         d="m 137.60545,136.10496 c -11.49618,-8.34117 2.47211,1.17662 0,0 z"
         id="path5292" />
      <path
         style="fill:#001811;stroke-width:1.5449"
         d="m 105.79715,136.52055 c 0.23154,-1.19259 0.23154,1.19259 0,0 z"
         id="path5291" />
      <path
         style="fill:#001811;stroke-width:1.5449"
         d="m 72.384128,136.58665 c -0.918205,-1.12766 1.728935,1.36441 0,0 z"
         id="path5290" />
      <path
         style="fill:#001811;stroke-width:1.5449"
         d="m 66.075923,137.01199 c 4.87236,-5.60265 3.91029,-2.86749 0,0 z"
         id="path5285" />
      <path
         style="fill:#001811;stroke-width:1.5449"
         d="m 130.89079,137.57889 c -0.65602,-1.04208 1.93898,1.10936 0,0 z"
         id="path5282" />
      <path
         style="fill:#001811;stroke-width:1.5449"
         d="m 105.49079,137.84347 c 1.93898,-1.10936 -0.65602,1.04208 0,0 z"
         id="path5281" />
      <path
         style="fill:#001811;stroke-width:1.5449"
         d="m 88.385987,137.92967 c -1.685438,-0.73162 1.358074,-0.76691 0,0 z"
         id="path5280" />
      <path
         style="fill:#001811;stroke-width:1.5449"
         d="m 65.53871,137.84347 c 0.652538,-0.94251 0.319979,0.96734 0,0 z"
         id="path5279" />
      <path
         style="fill:#001811;stroke-width:1.5449"
         d="m 138.07632,137.84339 c 0.23154,-1.19259 0.23154,1.19259 0,0 z"
         id="path5275" />
      <path
         style="fill:#001811;stroke-width:1.5449"
         d="m 114.63593,138.295 c 0.92719,-1.20743 -0.33502,1.10102 0,0 z"
         id="path5273" />
      <path
         style="fill:#001811;stroke-width:1.5449"
         d="m 73.955767,138.4564 c 1.159774,-0.37898 0.114721,0.50934 0,0 z"
         id="path5272" />
      <path
         style="fill:#001811;stroke-width:1.5449"
         d="m 76.535929,138.7147 c -0.331029,-1.15803 0.918769,1.23697 0,0 z"
         id="path5269" />
      <path
         style="fill:#001811;stroke-width:1.5449"
         d="m 135.68015,139.4533 c 8.62256,-1.39632 -6.34088,0.9995 0,0 z"
         id="path5264" />
      <path
         style="fill:#001811;stroke-width:1.5449"
         d="m 124.44864,139.27227 c -1.49399,-2.69618 2.22003,2.48491 0,0 z"
         id="path5260" />
      <path
         style="fill:#001811;stroke-width:1.5449"
         d="m 128.19535,140.04398 c 1.15978,-0.37898 0.11472,0.50934 0,0 z"
         id="path5257" />
      <path
         style="fill:#001811;stroke-width:1.5449"
         d="m 93.206195,140.2547 c 0.750248,-2.2285 2.177136,0.9645 0,0 z"
         id="path5256" />
      <path
         style="fill:#001811;stroke-width:1.5449"
         d="m 130.16822,140.57046 c 1.74418,-0.39138 0.33812,0.43918 0,0 z"
         id="path5253" />
      <path
         style="fill:#001811;stroke-width:1.5449"
         d="m 113.95746,140.50486 c 0.46367,-1.3916 0.41128,0.97228 0,0 z"
         id="path5252" />
      <path
         style="fill:#001811;stroke-width:1.5449"
         d="m 81.942876,140.48926 c 0.652555,-0.94251 0.319957,0.96737 0,0 z"
         id="path5251" />
      <path
         style="fill:#001811;stroke-width:1.5449"
         d="m 66.29179,140.13332 c -4.24032,-3.14002 7.941429,1.55349 0,5e-5 z m 0.520228,-0.88313 c 1.159774,-0.37898 0.11472,0.50934 0,0 z"
         id="path5250" />
      <path
         style="fill:#001811;stroke-width:1.5449"
         d="m 131.63493,140.83746 c 1.15978,-0.37898 0.11472,0.50934 0,0 z"
         id="path5247" />
      <path
         style="fill:#001811;stroke-width:1.5449"
         d="m 120.05332,141.99346 c -0.96496,-1.48407 1.97486,1.51157 0,0 z"
         id="path5234" />
      <path
         style="fill:#001811;stroke-width:1.5449"
         d="m 74.005377,142.4619 c 0.734388,-1.26221 1.145489,0.24443 0,0 z"
         id="path5233" />
      <path
         style="fill:#001811;stroke-width:1.5449"
         d="m 126.3351,141.69278 c -1.38055,-4.11299 1.69131,3.62439 0,0 z"
         id="path5228" />
      <path
         style="fill:#001811;stroke-width:1.5449"
         d="m 100.72829,142.87051 c 1.27956,-1.91392 -0.68025,1.8807 0,0 z"
         id="path5223" />
      <path
         style="fill:#001811;stroke-width:1.5449"
         d="m 127.76349,143.32481 c -2.68361,-4.98065 1.39072,1.06785 0,0 z"
         id="path5221" />
      <path
         style="fill:#001811;stroke-width:1.5449"
         d="m 90.674126,143.59407 c 2.520234,-2.65247 2.424887,-1.41207 0,0 z"
         id="path5220" />
      <path
         style="fill:#001811;stroke-width:1.5449"
         d="m 122.821,143.66421 c 0.32,-0.96735 0.65251,0.94254 0,0 z"
         id="path5217" />
      <path
         style="fill:#001811;stroke-width:1.5449"
         d="m 84.588709,143.64861 c 0.925382,-0.72285 1.727673,-0.3325 0,0 z"
         id="path5216" />
      <path
         style="fill:#001811;stroke-width:1.5449"
         d="m 67.411682,143.63051 c 2.934464,-5.85083 2.10685,-1.85742 0,0 z"
         id="path5215" />
      <path
         style="fill:#001811;stroke-width:1.5449"
         d="m 83.001209,144.20279 c 1.354115,-2.35084 0.810786,0.75326 0,0 z"
         id="path5209" />
      <path
         style="fill:#001811;stroke-width:1.5449"
         d="m 122.40488,144.12597 c -3.64316,-3.92528 2.91347,2.39087 0,0 z"
         id="path5205" />
      <path
         style="fill:#001811;stroke-width:1.5449"
         d="m 116.49729,144.41547 c 1.27761,-1.85454 3.5222,-0.32384 0,0 z"
         id="path5204" />
      <path
         style="fill:#001811;stroke-width:1.5449"
         d="m 136.18246,144.45801 c -4.86853,-8.0296 0.85013,-2.03282 0,0 z"
         id="path5202" />
      <path
         style="fill:#001811;stroke-width:1.5449"
         d="m 85.839915,144.69829 c 1.688153,0.27615 4.774505,-6.07198 1.988736,0.0494 l -1.003192,0.19617 -0.985541,-0.2456 z"
         id="path5201" />
      <path
         style="fill:#001811;stroke-width:1.5449"
         d="m 113.8237,144.98542 c -1.43273,-2.15649 1.87504,1.88119 0,0 z"
         id="path5194" />
      <path
         style="fill:#001811;stroke-width:1.5449"
         d="m 75.592877,145.32727 c 3.615457,-1.93155 -0.737846,0.85873 0,0 z"
         id="path5193" />
      <path
         style="fill:#001811;stroke-width:1.5449"
         d="m 104.16788,145.21565 c 3.68764,-3.77223 -1.40046,1.86441 0,0 z"
         id="path5187" />
      <path
         style="fill:#001811;stroke-width:1.5449"
         d="m 91.360861,145.25175 c 1.079238,-2.89097 2.949782,-3.14978 0,0 z"
         id="path5186" />
      <path
         style="fill:#001811;stroke-width:1.5449"
         d="m 70.30121,145.68368 c 3.148839,-0.92552 0.675727,0.44097 0,0 z"
         id="path5185" />
      <path
         style="fill:#001811;stroke-width:1.5449"
         d="m 68.819454,145.40311 c -3.776655,-2.86539 3.65441,1.4351 0,0 z"
         id="path5184" />
      <path
         style="fill:#001811;stroke-width:1.5449"
         d="m 74.605725,145.86215 c 1.744189,-0.39138 0.3381,0.43917 0,0 z"
         id="path5181" />
      <path
         style="fill:#001811;stroke-width:1.5449"
         d="m 116.36076,146.23522 c 1.13227,-1.24118 1.25785,-0.2105 0,0 z"
         id="path5180" />
      <path
         style="fill:#001811;stroke-width:1.5449"
         d="m 86.705376,146.0455 c 2.322191,-0.9364 -0.460919,0.9001 0,0 z"
         id="path5179" />
      <path
         style="fill:#001811;stroke-width:1.5449"
         d="m 131.45568,146.38397 c -6.36108,-1.15044 12.2215,-1.21303 0.77558,0.15468 z"
         id="path5172" />
      <path
         style="fill:#001811;stroke-width:1.5449"
         d="m 81.563012,146.49712 c 0.927195,-1.20744 -0.335015,1.10104 0,0 z"
         id="path5166" />
      <path
         style="fill:#001811;stroke-width:1.5449"
         d="m 122.15954,146.82363 c 0.76207,-0.5042 0.61746,0.9088 0,0 z"
         id="path5162" />
      <path
         style="fill:#001811;stroke-width:1.5449"
         d="m 85.047321,146.80643 c 1.420509,-0.78829 -0.64472,0.81315 0,0 z"
         id="path5161" />
      <path
         style="fill:#001811;stroke-width:1.5449"
         d="m 116.73746,147.10688 c 0.66958,-0.4839 1.05338,0.85233 0,0 z"
         id="path5160" />
      <path
         style="fill:#001811;stroke-width:1.5449"
         d="m 88.557459,147.10388 c 1.938974,-1.10936 -0.656021,1.04207 0,0 z"
         id="path5159" />
      <path
         style="fill:#001811;stroke-width:1.5449"
         d="m 78.900168,147.36843 c 0.652537,-0.94251 0.31998,0.96735 0,0 z"
         id="path5153" />
      <path
         style="fill:#001811;stroke-width:1.5449"
         d="m 93.055376,148.04851 c 1.447692,-1.27141 1.385617,-0.2351 0,0 z"
         id="path5145" />
      <path
         style="fill:#001811;stroke-width:1.5449"
         d="m 124.06734,148.01982 c -0.52671,-1.34081 2.15518,1.45424 0,0 z"
         id="path5140" />
      <path
         style="fill:#001811;stroke-width:1.5449"
         d="m 97.051144,147.80678 c 3.308816,-1.99802 -2.126633,2.15533 0,0 z"
         id="path5139" />
      <path
         style="fill:#001811;stroke-width:1.5449"
         d="m 114.96185,148.31486 c -6.25738,-4.07266 3.091,0.97461 0,0 z"
         id="path5137" />
      <path
         style="fill:#001811;stroke-width:1.5449"
         d="m 126.92204,148.67248 c -2.15048,-0.56528 7.39721,0.50195 0,0 z"
         id="path5135" />
      <path
         style="fill:#001811;stroke-width:1.5449"
         d="m 97.999875,148.77178 c 0.482067,-2.56594 0.942291,-0.80304 0,0 z"
         id="path5134" />
      <path
         style="fill:#001811;stroke-width:1.5449"
         d="m 117.3309,149.04528 c 1.45699,-0.42945 0.26442,0.4631 0,0 z"
         id="path5132" />
      <path
         style="fill:#001811;stroke-width:1.5449"
         d="m 72.419733,148.8233 c -5.331946,-3.7701 5.741251,1.00093 5.23796,-0.63787 -1.59245,0.80762 -3.497179,1.11467 -5.23796,0.63787 z"
         id="path5131" />
      <path
         style="fill:#001811;stroke-width:1.5449"
         d="m 120.56732,149.2894 c 1.5436,-3.54069 1.26784,0.51513 0,0 z"
         id="path5128" />
      <path
         style="fill:#001811;stroke-width:1.5449"
         d="m 94.113709,149.3998 c 2.440619,-1.28084 1.602286,-0.27964 -0.244781,0.29801 z"
         id="path5124" />
      <path
         style="fill:#001811;stroke-width:1.5449"
         d="m 107.30604,149.49394 c 1.31844,0.30416 8.34554,-2.69468 1.59565,0.52307 z"
         id="path5115" />
      <path
         style="fill:#001811;stroke-width:1.5449"
         d="m 98.96762,149.81181 c 4.38453,-0.10641 10.16852,-5.40875 3.13251,-0.0735 l -1.65909,0.26366 z"
         id="path5114" />
      <path
         style="fill:#001811;stroke-width:1.5449"
         d="m 82.387853,149.84191 c 4.121684,-2.30461 9.226409,-2.61467 0,0 z"
         id="path5113" />
      <path
         style="fill:#001811;stroke-width:1.5449"
         d="m 80.421448,149.79611 c -2.437052,-4.43704 3.135103,1.4947 0,0 z"
         id="path5112" />
      <path
         style="fill:#001811;stroke-width:1.5449"
         d="m 89.963074,150.07098 c -4.18643,-4.59287 8.081307,2.71812 0,-1e-5 z"
         id="path5109" />
    </g>
  </g>
</svg>
