<?xml version="1.0" encoding="UTF-8" standalone="no"?>
<!-- Created with Inkscape (http://www.inkscape.org/) -->

<svg
   width="185"
   height="185"
   viewBox="0 0 48.947914 48.947918"
   version="1.1"
   id="svg1"
   xmlns="http://www.w3.org/2000/svg"
   xmlns:svg="http://www.w3.org/2000/svg">
  <defs
     id="defs1" />
  <g
     id="g10102"
     transform="matrix(0.70883319,0,0,0.70883319,17.986648,-53.148994)"
     style="stroke-width:1.41077">
    <path
       style="fill:#c2bb5f;stroke-width:1.41077"
       d="m 8.0257446,143.57784 c -0.4940366,-0.67711 -1.896601,-1.61456 -2.9137177,-1.94747 -2.6231173,-0.85859 -6.09197185,-2.3522 -9.7351387,-4.19174 -7.0520812,-3.56079 -7.4542582,-3.78209 -7.6097942,-4.18741 -0.213528,-0.55645 0.941855,-1.47189 2.7681469,-2.19327 2.0883665,-0.8249 7.1274865,-0.89574 9.32443718,-0.13107 3.50570972,1.22018 6.30128362,3.70084 7.33669542,6.51022 0.8049667,2.18412 0.94446,1.8715 0.8190438,-1.83558 L 7.8951334,132.04614 7.0135353,131.31015 C 6.5286564,130.90536 5.706348,130.378 5.1861834,130.13823 4.6660187,129.89847 3.5183733,129.3635 2.6358602,128.9494 c -1.82112998,-0.85451 -4.6156541,-3.2964 -6.2948469,-5.5005 -1.1274511,-1.47989 -2.2870417,-3.61918 -2.2870417,-4.21929 0,-0.21688 0.6939538,-0.31334 2.2542156,-0.31334 2.6195318,0 4.38069531,0.59248 6.9082422,2.32402 1.9777641,1.3549 3.2944506,2.74989 4.1746022,4.42286 l 0.6959878,1.32291 -0.071212,-3.53821 -0.071212,-3.53821 -1.8520832,-1.04538 c -1.0186453,-0.57496 -2.249,-1.42355 -2.7341211,-1.88575 -1.2735893,-1.21341 -3.28067961,-4.58834 -4.01975143,-6.75922 l -0.63732877,-1.87202 0.57568374,-0.53633 c 0.31662605,-0.29499 0.84954593,-0.53633 1.1842664,-0.53633 1.43552766,0 5.89940326,3.73665 7.02434106,5.87998 0.2843954,0.54185 0.5933094,0.90896 0.6864756,0.8158 0.2615147,-0.26152 0.2002019,-3.66989 -0.079239,-4.40487 -0.1367475,-0.35967 -0.9139767,-1.09558 -1.7271758,-1.63535 -2.9820449,-1.97937 -4.9033585,-5.46086 -4.9033585,-8.885062 0,-2.135198 0.5167796,-2.946162 1.7364752,-2.724989 L 3.9065847,96.448468 3.791935,94.193593 c -0.1064407,-2.093424 -0.07131,-2.292559 0.4906417,-2.78117 0.6507769,-0.565843 0.773018,-0.955147 0.9907112,-3.155136 0.077419,-0.78239 0.3220705,-1.69924 0.5436701,-2.037444 0.2215996,-0.338203 0.6551829,-1.383397 0.9635185,-2.322651 0.5883644,-1.792282 1.856502,-3.610085 2.5184708,-3.610085 0.4050133,0 1.6812447,2.441923 1.6857717,3.225531 0.0014,0.246073 0.121648,0.52099 0.267168,0.610927 0.145521,0.08994 0.264584,0.431701 0.264584,0.759475 0,0.327774 0.259721,0.874731 0.577158,1.21546 0.490246,0.526217 0.574422,0.915713 0.558985,2.586493 -0.01642,1.777558 0.02827,1.95484 0.464087,1.840872 0.416437,-0.108901 0.656401,0.120838 0.912631,0.873741 0.02476,0.07276 0.193344,0.48948 0.374626,0.926042 0.302988,0.72965 0.260056,1.785055 -0.130327,3.203852 -0.126804,0.460851 -0.01089,0.586548 0.665683,0.721862 1.108001,0.221601 1.41488,1.119869 1.280172,3.747202 -0.181495,3.539856 -1.56012,5.805856 -5.243097,8.617916 -0.88138,0.67296 -0.892886,0.70918 -1.0503858,3.30729 -0.087584,1.44478 -0.1364357,2.6628 -0.1085585,2.7067 0.027877,0.0439 0.4713663,-0.67242 0.9855323,-1.59184 1.327966,-2.37462 2.813663,-3.95298 4.634367,-4.92341 2.716105,-1.44767 3.566969,-1.06474 3.175869,1.42928 -0.628934,4.01066 -3.250199,7.62329 -6.892984,9.49992 -2.1070443,1.08547 -2.0444692,0.93714 -1.8690372,4.43016 l 0.1558492,3.1031 0.607619,-1.31148 c 0.345229,-0.74514 1.394392,-2.09826 2.429554,-3.13342 1.958652,-1.95865 3.53873,-2.75831 6.409756,-3.24392 2.027035,-0.34285 4.497917,0.10529 4.497917,0.81579 0,0.32158 -3.062725,3.93496 -5.215277,6.15294 -1.791471,1.84593 -3.00604,2.72908 -6.491508,4.72018 -1.127222,0.64394 -2.099567,1.34939 -2.160768,1.56767 -0.2437612,0.8694 -0.4457273,5.29121 -0.2413721,5.28455 0.1200653,-0.004 0.5159571,-0.49299 0.8797591,-1.08684 1.614031,-2.63463 5.400968,-5.1771 8.581405,-5.76138 4.576014,-0.84066 11.219896,0.42333 11.258292,2.14188 0.0085,0.3798 -12.786822,6.92868 -15.870947,8.12305 -3.799401,1.47137 -4.170842,1.6556 -4.9249207,2.44268 -0.8450012,0.882 -1.2578338,0.9504 -1.7408057,0.28846 z"
       id="path8669" />
    <path
       style="fill:#8f6d9f;stroke-width:1.41077"
       d="m 8.0257446,143.57784 c -0.4940366,-0.67711 -1.896601,-1.61456 -2.9137177,-1.94747 -2.5152404,-0.82328 -5.97941186,-2.29305 -8.8090971,-3.73751 -1.7462499,-0.8914 -4.3450325,-2.20621 -5.7750724,-2.92181 -1.4300394,-0.71559 -2.6703684,-1.48427 -2.7562854,-1.70816 -0.218436,-0.56924 0.917956,-1.47588 2.7636689,-2.20494 2.0883665,-0.8249 7.1274865,-0.89574 9.32443718,-0.13107 3.50570972,1.22018 6.30128362,3.70084 7.33669542,6.51022 0.8049667,2.18412 0.94446,1.8715 0.8190438,-1.83558 L 7.8951334,132.04614 6.993823,131.29365 c -0.4957207,-0.41387 -1.4370916,-0.99967 -2.0919353,-1.30179 -0.6548437,-0.30212 -1.7859374,-0.8285 -2.5135415,-1.16975 -1.64945279,-0.7736 -3.9783077,-2.83097 -5.790722,-5.11569 -1.3276694,-1.67364 -2.5436526,-3.81377 -2.5436526,-4.47681 0,-0.54075 4.0156095,-0.39451 5.73198533,0.20875 3.05344397,1.0732 6.28182487,3.69938 7.56282547,6.15211 0.3591336,0.68763 0.6996411,1.20406 0.7566835,1.14763 0.057042,-0.0564 0.044182,-1.61617 -0.028578,-3.46607 l -0.1322916,-3.36345 -1.8520832,-1.0455 c -1.0186458,-0.57502 -2.1955662,-1.36384 -2.6153786,-1.75292 -1.5789925,-1.46342 -3.93791795,-5.69472 -4.5064969,-8.08348 -0.2143302,-0.90046 0.51020022,-1.75207 1.49062384,-1.75207 1.46672456,0 6.22738366,4.04881 7.11289916,6.04933 0.1927345,0.43542 0.4442253,0.7337 0.5588685,0.66284 0.3041753,-0.18799 0.255246,-4.01368 -0.05884,-4.60055 -0.147005,-0.27468 -0.9242341,-0.93548 -1.7271759,-1.46844 -2.963093,-1.96679 -4.8847086,-5.45725 -4.8847086,-8.872682 0,-2.135198 0.5167796,-2.946162 1.7364752,-2.724989 L 3.9065847,96.448468 3.791935,94.193593 c -0.1064407,-2.093424 -0.07131,-2.292559 0.4906417,-2.78117 0.6483647,-0.563745 0.7740186,-0.960467 0.9855647,-3.111682 0.074588,-0.758491 0.37215,-1.830054 0.6612479,-2.38125 0.2890979,-0.551197 0.7191663,-1.560811 0.9557077,-2.243587 0.4977466,-1.436745 1.3800783,-2.816117 2.0671827,-3.23168 0.5907243,-0.357272 1.0329194,0.159784 1.6562263,1.936615 0.234142,0.667458 0.53422,1.420303 0.666839,1.67299 0.132619,0.252687 0.241126,0.676721 0.241126,0.942298 0,0.265576 0.246704,0.747672 0.548231,1.071323 0.449145,0.482101 0.551967,0.949105 0.568903,2.583899 0.01844,1.779827 0.07171,1.982095 0.493015,1.871922 0.405457,-0.106029 0.648781,0.130185 0.902712,0.876335 0.02476,0.07276 0.193344,0.48948 0.374626,0.926042 0.353796,0.852005 0.196208,2.647408 -0.283057,3.224888 -0.21076,0.25395 -0.157267,0.380696 0.210042,0.497673 1.440966,0.458903 1.660361,0.647835 1.835328,1.58049 0.349413,1.862528 -0.02119,4.401611 -0.916156,6.276851 -0.806377,1.68961 -1.367204,2.30086 -4.383917,4.77805 -0.745248,0.61197 -0.79012,0.76718 -0.9410021,3.25483 -0.08714,1.43672 -0.1356284,2.64814 -0.1077512,2.69204 0.027877,0.0439 0.4713663,-0.67242 0.9855323,-1.59184 1.327966,-2.37462 2.813663,-3.95298 4.634367,-4.92341 1.731941,-0.92311 2.805737,-1.06623 3.166266,-0.422 0.413678,0.7392 -0.179632,3.34775 -1.266869,5.56992 -1.204284,2.4614 -3.228849,4.55065 -5.587666,5.76619 -2.163789,1.11504 -2.0933481,0.95073 -1.9060215,4.44619 l 0.1660145,3.09779 0.606606,-1.3093 c 0.344145,-0.7428 1.394904,-2.09759 2.42854,-3.13123 1.958652,-1.95865 3.53873,-2.75831 6.409756,-3.24392 2.041009,-0.34521 4.497917,0.10565 4.497917,0.82541 0,0.38996 -4.489869,5.51605 -6.274599,7.16372 -0.881373,0.81369 -2.925874,2.24244 -4.543337,3.175 -1.617462,0.93257 -2.991758,1.87417 -3.05399,2.09245 -0.2514991,0.88214 -0.4560961,5.29117 -0.2452247,5.28455 0.1245894,-0.004 0.5241827,-0.49299 0.8879847,-1.08684 1.614031,-2.63463 5.400968,-5.1771 8.581405,-5.76138 4.576014,-0.84066 11.219896,0.42333 11.258292,2.14188 0.0087,0.38928 -12.986729,7.03123 -15.921498,8.13747 -3.48141,1.31229 -4.121513,1.62905 -4.9032586,2.42644 -0.8593107,0.8765 -1.2374162,0.94061 -1.7119168,0.29028 z"
       id="path10089" />
    <path
       style="fill:#776487;stroke-width:1.41077"
       d="m 7.9980923,143.43474 c -0.4829278,-0.73704 -2.3067949,-1.66007 -5.8136004,-2.94216 -3.2347662,-1.18264 -14.3202429,-6.847 -14.4283839,-7.37249 -0.211346,-1.027 3.5023121,-2.55446 6.6947386,-2.75361 5.46813875,-0.34111 10.501449,2.24597 12.3783827,6.36239 0.3434918,0.75333 0.7646632,1.66735 0.9359366,2.03115 0.2521729,0.53564 0.2972102,-0.0374 0.2367741,-3.01278 l -0.074632,-3.67423 -0.9173976,-0.76852 c -0.5045687,-0.42268 -1.5722414,-1.07044 -2.3726059,-1.43947 -3.97356872,-1.83213 -5.51244053,-3.00167 -7.8826237,-5.99076 -1.2438401,-1.56864 -2.7007091,-4.0957 -2.7007091,-4.68461 0,-0.50345 4.0146089,-0.32013 5.70184625,0.26037 3.11861405,1.07296 6.46049615,3.81279 7.66096385,6.28082 0.2876798,0.59144 0.6232084,1.01344 0.745619,0.93779 0.2375679,-0.14683 0.022563,-6.3051 -0.2346615,-6.7213 -0.084086,-0.13605 -0.7695359,-0.55832 -1.5232218,-0.93837 -1.878106,-0.94703 -3.153487,-1.99663 -4.2633787,-3.5086 -1.17922687,-1.60643 -2.71018413,-4.6829 -3.022838,-6.07442 -0.2078846,-0.92523 -0.1642295,-1.13003 0.342315,-1.6059 0.78810374,-0.74039 1.12058573,-0.69564 2.9432955,0.39611 1.9826163,1.18753 4.1233831,3.2774 4.8959783,4.77957 0.3275849,0.63693 0.6959528,1.15805 0.8185952,1.15805 0.2535201,0 0.2990055,-3.79042 0.056351,-4.69586 -0.094159,-0.35135 -0.7904444,-0.97816 -1.7010404,-1.53132 C 4.2832019,106.59588 3.1884189,105.16292 1.9328405,101.98294 1.4119203,100.66362 1.2985818,97.756154 1.7361969,96.938462 1.9260825,96.583658 2.2912646,96.42669 2.9268219,96.42669 h 0.9167325 v -2.322449 c 0,-1.984279 0.075996,-2.387518 0.5219182,-2.769329 0.5713331,-0.489191 0.6902525,-0.893309 0.9411329,-3.198208 0.1082099,-0.99415 0.3484733,-1.723622 0.6753723,-2.050521 0.2790754,-0.279075 0.5074098,-0.735664 0.5074098,-1.014641 0,-1.325579 2.0249475,-4.784435 2.8009925,-4.784435 0.4295929,0 1.1943889,1.595269 1.9936409,4.158485 0.282106,0.90472 0.697339,1.74815 0.922739,1.874291 0.317792,0.177845 0.40982,0.713921 0.40982,2.387246 0,1.186845 0.109663,2.225676 0.243695,2.308512 0.134033,0.08284 0.243696,0.02452 0.243696,-0.129586 0,-0.625368 0.456798,-0.212118 0.998884,0.903658 0.572778,1.178952 0.550928,2.424283 -0.0686,3.909372 -0.154357,0.370018 -0.0584,0.463021 0.477713,0.463021 1.404146,0 1.923375,1.21169 1.684734,3.931554 -0.295554,3.3685 -1.39609,5.39462 -4.1273,7.59848 -0.922351,0.74426 -1.766541,1.52033 -1.87598,1.7246 -0.109438,0.20428 -0.2571424,1.54166 -0.328232,2.97197 l -0.1292537,2.60056 0.7331547,-1.34068 c 1.318811,-2.41163 2.705219,-4.04974 4.299708,-5.08031 1.871698,-1.20974 2.392317,-1.39526 3.285977,-1.17096 0.665193,0.16695 0.67592,0.20655 0.516989,1.9085 -0.117331,1.25647 -0.456749,2.34635 -1.225041,3.93364 -1.207392,2.49447 -2.900526,4.20615 -5.830258,5.89412 l -1.7197919,0.99086 v 3.48705 3.48706 l 0.6322059,-1.37916 c 1.8846,-4.11126 6.105023,-6.86952 10.459924,-6.83609 1.548246,0.0119 3.063078,0.41628 3.063078,0.81771 0,0.34553 -3.090203,3.91516 -5.413082,6.2529 -1.94624,1.95869 -2.959279,2.72567 -5.434834,4.11474 l -3.042709,1.70732 -0.2038978,2.36755 c -0.3225087,3.74478 -0.2486196,3.90599 0.9739988,2.12507 1.945426,-2.83378 4.840518,-4.79813 8.252992,-5.59971 4.190582,-0.98437 11.96104,0.4498 11.331121,2.09134 -0.07068,0.18419 -1.047887,0.78529 -2.17157,1.33577 -1.123684,0.55049 -3.531342,1.82009 -5.350353,2.82133 -3.458955,1.90393 -8.057867,4.01178 -9.900129,4.53759 -1.176504,0.33579 -3.3346354,1.64682 -3.6729129,2.23124 -0.3165754,0.54692 -0.8680244,0.44209 -1.3224188,-0.25141 z"
       id="path10072" />
    <path
       style="fill:#628b6c;stroke-width:1.41077"
       d="m 7.9980923,143.43474 c -0.4734728,-0.72261 -2.3816548,-1.70122 -5.3451628,-2.74125 -2.84820331,-0.99958 -14.7951325,-7.08594 -14.8995395,-7.59057 -0.202329,-0.97793 3.4275064,-2.48281 6.5738656,-2.72544 2.7525499,-0.21226 5.07658327,0.2686 7.7306593,1.59954 1.8947768,0.95017 2.3584551,1.32908 3.5170384,2.87408 0.7339881,0.97879 1.5674255,2.40754 1.8520832,3.175 l 0.5175594,1.39538 0.081545,-3.04271 c 0.04485,-1.67349 -0.044874,-3.45943 -0.1993868,-3.96875 -0.3097892,-1.02116 -1.4145988,-1.78943 -5.0699253,-3.52552 -2.26308671,-1.07485 -4.0954289,-2.60553 -6.0110853,-5.02147 -1.2364301,-1.55933 -2.6917718,-4.08606 -2.6917718,-4.67338 0,-0.49748 3.8539729,-0.31767 5.56813764,0.25979 3.24650416,1.09367 6.60325506,3.81102 7.80482386,6.31814 0.2847145,0.59406 0.6069597,1.08149 0.7161003,1.08316 0.235289,0.004 0.2618602,-4.73768 0.034263,-6.11373 -0.1427312,-0.86295 -0.3178184,-1.03259 -1.7750181,-1.71979 -2.3713407,-1.1183 -4.2876197,-3.15823 -5.81494492,-6.19014 -1.51582476,-3.00909 -1.78892518,-4.27244 -1.09042352,-5.04428 0.35195697,-0.38891 0.67369949,-0.4923 1.16006918,-0.37279 1.98058116,0.48667 5.56598826,3.49183 6.62676256,5.55431 0.3364665,0.6542 0.712101,1.18945 0.8347434,1.18945 0.2505039,0 0.300325,-3.78576 0.061537,-4.67603 -0.086724,-0.32333 -0.8953428,-1.05428 -1.8475432,-1.67008 -1.9734453,-1.27626 -2.6711522,-2.11581 -3.8567806,-4.64087 -0.6281905,-1.33787 -0.8928755,-2.31823 -0.962532,-3.565101 -0.133596,-2.391405 0.1900954,-3.119354 1.4337714,-3.224404 l 0.981294,-0.08289 -0.060506,-2.234117 c -0.054506,-2.012587 -0.00431,-2.276503 0.5062071,-2.661589 0.4436177,-0.334621 0.6226808,-0.878278 0.8243809,-2.50292 0.2628513,-2.117199 0.5802056,-3.052415 1.0357995,-3.052415 0.1404009,0 0.2552743,-0.233659 0.2552743,-0.519242 0,-1.703363 2.1235542,-5.220817 2.958481,-4.900426 0.4505322,0.172885 1.8040185,3.465408 1.8040185,4.388498 0,0.289331 0.305057,0.831113 0.677903,1.203959 0.619408,0.619408 0.672945,0.847703 0.620446,2.645711 -0.03532,1.20961 0.06029,2.085553 0.248138,2.273403 0.231073,0.231073 0.305597,0.22817 0.305597,-0.0119 0,-0.640579 0.439231,-0.290525 0.875123,0.697446 0.508222,1.151913 0.586871,2.993306 0.161773,3.787608 -0.335159,0.626251 -0.214513,0.802339 0.608376,0.887943 0.332027,0.03454 0.678538,0.078 0.770024,0.09657 0.495211,0.100528 0.82326,1.790304 0.689565,3.551929 -0.255225,3.362927 -1.540659,5.713677 -4.317746,7.896097 -0.935041,0.73482 -1.752088,1.59261 -1.81566,1.9062 -0.06357,0.31359 -0.1699247,1.6286 -0.2363396,2.92224 l -0.1207544,2.35208 0.74196,-1.35678 c 1.327577,-2.42766 2.710651,-4.06366 4.308512,-5.09641 1.855775,-1.19944 2.393806,-1.39489 3.249053,-1.18023 0.539095,0.1353 0.642363,0.32283 0.642363,1.16649 0,3.81887 -3.078016,8.44673 -6.894877,10.36659 -0.937244,0.47143 -1.79111,0.99062 -1.8974792,1.15375 -0.1063692,0.16313 -0.1659005,1.86766 -0.1322917,3.78784 0.047067,2.68907 0.1222578,3.32739 0.3272499,2.77813 1.313867,-3.52045 4.22293,-6.27069 7.772291,-7.34796 1.690387,-0.51306 4.77606,-0.49194 5.532456,0.0379 l 0.591759,0.41448 -1.260491,1.61912 c -0.693271,0.89052 -2.451117,2.82711 -3.906325,4.30353 -2.2438,2.27651 -3.108172,2.94316 -5.688541,4.38729 l -3.042709,1.70288 -0.2038979,2.3765 c -0.3235556,3.77115 -0.256649,3.89581 1.0745899,2.00222 2.87639,-4.09147 7.487624,-6.13263 13.019145,-5.76292 3.605785,0.241 7.008457,1.54786 6.403548,2.45939 -0.168694,0.25421 -5.232693,2.96951 -10.900677,5.84492 -1.236927,0.6275 -3.380052,1.57299 -4.762499,2.10108 -3.391661,1.29561 -4.175633,1.69132 -5.0417639,2.54483 -0.9002331,0.88712 -1.1326586,0.90269 -1.6516149,0.11066 z"
       id="path10056" />
    <path
       style="fill:#566960;stroke-width:1.41077"
       d="m 7.9980923,143.43474 c -0.4734728,-0.72261 -2.3816548,-1.70122 -5.3451628,-2.74125 -2.84820331,-0.99958 -14.7951325,-7.08594 -14.8995395,-7.59057 -0.202329,-0.97793 3.4275064,-2.48281 6.5738656,-2.72544 2.7525499,-0.21226 5.07658327,0.2686 7.7306593,1.59954 1.8947768,0.95017 2.3584551,1.32908 3.5170384,2.87408 0.7339881,0.97879 1.5674255,2.40754 1.8520832,3.175 l 0.5175594,1.39538 0.081545,-3.04271 c 0.04485,-1.67349 -0.044874,-3.45943 -0.1993868,-3.96875 -0.3097892,-1.02116 -1.4145988,-1.78943 -5.0699253,-3.52552 -2.26308671,-1.07485 -4.0954289,-2.60553 -6.0110853,-5.02147 -1.2364301,-1.55933 -2.6917718,-4.08606 -2.6917718,-4.67338 0,-0.49748 3.8539729,-0.31767 5.56813764,0.25979 3.24650416,1.09367 6.60325506,3.81102 7.80482386,6.31814 0.2847145,0.59406 0.6069597,1.08149 0.7161003,1.08316 0.2346915,0.004 0.2621187,-4.73617 0.035339,-6.10709 -0.13878,-0.83895 -0.3326633,-1.03677 -1.6487789,-1.68226 -2.9015002,-1.42303 -4.6667593,-3.39066 -6.43833907,-7.17644 -1.07189668,-2.29059 -1.22830173,-3.5372 -0.52378448,-4.17478 0.46676294,-0.42241 0.66437651,-0.44609 1.47913415,-0.17719 1.1850471,0.3911 3.6895724,2.23014 4.9543767,3.63793 0.9527905,1.06051 1.5203994,2.0862 2.0167429,3.64432 0.1997804,0.62715 0.261419,0.22482 0.2936739,-1.9169 0.022453,-1.49085 -0.031568,-2.99907 -0.1200459,-3.3516 -0.1024747,-0.40829 -0.7763844,-1.03901 -1.8565313,-1.73756 -1.9757997,-1.27778 -2.6732324,-2.11676 -3.8591226,-4.64238 -0.6281905,-1.33787 -0.8928755,-2.31823 -0.962532,-3.565101 -0.133596,-2.391405 0.1900954,-3.119354 1.4337714,-3.224404 l 0.981294,-0.08289 -0.060506,-2.234117 c -0.054506,-2.012587 -0.00431,-2.276503 0.5062071,-2.661589 0.4436177,-0.334621 0.6226808,-0.878278 0.8243809,-2.50292 0.2628513,-2.117199 0.5802056,-3.052415 1.0357995,-3.052415 0.1404009,0 0.2552743,-0.233659 0.2552743,-0.519242 0,-1.703363 2.1235542,-5.220817 2.958481,-4.900426 0.4505322,0.172885 1.8040179,3.465408 1.8040179,4.388498 0,0.289331 0.305057,0.831113 0.677903,1.203959 0.619408,0.619408 0.672945,0.847703 0.620446,2.645711 -0.03532,1.20961 0.06029,2.085553 0.248138,2.273403 0.231073,0.231073 0.305597,0.22817 0.305597,-0.0119 0,-0.652934 0.442978,-0.282032 0.899811,0.753403 0.440576,0.99859 0.47305,2.102709 0.120246,4.088471 -0.06717,0.378091 0.05706,0.536867 0.435151,0.556139 1.031842,0.05259 1.129951,0.113828 1.460358,0.911502 0.2183,0.527022 0.283848,1.466114 0.189295,2.71198 -0.255225,3.362928 -1.540659,5.713678 -4.317746,7.896098 -0.935041,0.73482 -1.752088,1.59261 -1.815659,1.9062 -0.06357,0.31359 -0.1699251,1.6286 -0.23634,2.92224 l -0.1207544,2.35208 0.7419604,-1.35678 c 1.327577,-2.42766 2.710651,-4.06366 4.308512,-5.09641 1.855775,-1.19944 2.393806,-1.39489 3.249052,-1.18023 0.539095,0.1353 0.642363,0.32283 0.642363,1.16649 0,3.81887 -3.078015,8.44673 -6.894877,10.36659 -0.937244,0.47143 -1.7911094,0.99062 -1.8974786,1.15375 -0.1063692,0.16313 -0.1659005,1.86766 -0.1322917,3.78784 0.047067,2.68907 0.1222578,3.32739 0.3272503,2.77813 1.313867,-3.52045 4.22293,-6.27069 7.77229,-7.34796 1.690388,-0.51306 4.776061,-0.49194 5.532456,0.0379 l 0.591759,0.41448 -1.260491,1.61912 c -0.693271,0.89052 -2.451117,2.82711 -3.906325,4.30353 -2.2438,2.27651 -3.108171,2.94316 -5.688541,4.38729 l -3.042709,1.70288 -0.2038973,2.3765 c -0.3235556,3.77115 -0.256649,3.89581 1.0745893,2.00222 2.87639,-4.09147 7.487624,-6.13263 13.019145,-5.76292 3.605786,0.241 7.008457,1.54786 6.403548,2.45939 -0.168693,0.25421 -5.232693,2.96951 -10.900677,5.84492 -1.236927,0.6275 -3.380052,1.57299 -4.762499,2.10108 -3.391661,1.29561 -4.175632,1.69132 -5.0417633,2.54483 -0.9002331,0.88712 -1.1326586,0.90269 -1.6516149,0.11066 z m 6.4287947,-4.09585 c 1.091406,-0.40817 4.067969,-1.85242 6.614583,-3.20945 2.546615,-1.35703 5.095299,-2.71116 5.663742,-3.00919 l 1.033534,-0.54186 -1.017488,-0.35226 c -2.669518,-0.92421 -7.196114,-0.50418 -10.236705,0.94988 -2.366906,1.13189 -3.470783,2.25375 -5.103988,5.18714 l -0.736553,1.32291 0.80718,-0.92604 0.80718,-0.92604 -0.137959,0.73151 c -0.07588,0.40234 -0.242805,0.79632 -0.370951,0.87551 -0.398114,0.24605 -0.256024,0.64199 0.23003,0.64098 0.254661,-5.3e-4 1.355989,-0.33492 2.447395,-0.74309 z m -1.928058,0.0507 c -0.0935,-0.0935 -0.05931,-0.3768 0.07597,-0.62958 0.135281,-0.25277 0.160857,-0.55386 0.05684,-0.66909 -0.104021,-0.11522 -0.05278,-0.13156 0.113876,-0.0363 0.166653,0.0953 0.392995,-0.0345 0.502984,-0.28831 0.302492,-0.69807 0.359079,-1.12296 0.149558,-1.12296 -0.10354,0 -0.348049,0.14883 -0.543352,0.33073 -0.195303,0.1819 -0.129818,-0.0705 0.145521,-0.56087 0.498021,-0.88698 2.715861,-2.80218 2.961049,-2.55699 0.07068,0.0707 -0.0047,0.289 -0.167474,0.48516 -0.162796,0.19616 -0.207543,0.46692 -0.09944,0.60171 0.108104,0.13478 0.145991,0.21632 0.0842,0.18121 -0.0618,-0.0351 -0.294996,0.0839 -0.51822,0.26458 -0.28397,0.22979 -0.349581,0.2346 -0.218466,0.016 0.333122,-0.55542 -0.264842,-0.61752 -0.752923,-0.0782 -0.260283,0.28761 -0.38068,0.52292 -0.267547,0.52292 0.113133,0 0.05748,0.1786 -0.123681,0.39688 -0.265543,0.31996 -0.259003,0.39766 0.03375,0.40093 0.286694,0.003 0.27959,0.0619 -0.03375,0.2788 -0.327418,0.22667 -0.304348,0.26007 0.131816,0.19086 0.313427,-0.0497 0.528885,-0.28865 0.529167,-0.58676 2.61e-4,-0.27657 0.179069,-0.54287 0.39735,-0.59178 0.218281,-0.0489 0.260686,-0.0237 0.09423,0.0561 -0.166452,0.0797 -0.242213,0.37606 -0.168357,0.65848 0.07386,0.28243 0.239811,0.44829 0.368788,0.36858 0.128976,-0.0797 0.234502,-0.0118 0.234502,0.15088 0,0.1627 0.119063,0.22223 0.264584,0.13229 0.145521,-0.0899 0.264583,0.0122 0.264583,0.22692 0,0.21474 0.148828,0.44013 0.330729,0.50085 0.181901,0.0607 -0.324114,0.35313 -1.124479,0.64978 -2.139307,0.79292 -2.533662,0.89539 -2.721808,0.70724 z m 1.49811,-1.10523 c 0.07175,-0.11609 0.03204,-0.3703 -0.08824,-0.56491 -0.169076,-0.27358 -0.287272,-0.22569 -0.521018,0.21107 -0.245243,0.45824 -0.228581,0.56491 0.08824,0.56491 0.214813,0 0.449271,-0.095 0.521018,-0.21107 z m -8.0452229,0.32099 c -0.2987614,-0.7858 -1.5792259,-3.02034 -1.7307555,-3.02034 -0.165613,0 0.4900078,1.42059 0.864379,1.87292 0.1901431,0.22974 0.3457148,0.6663 0.3457148,0.97014 0,0.4622 0.1537748,0.64139 0.7210554,0.84022 0.032779,0.0115 -0.057399,-0.28684 -0.2003937,-0.66294 z m -4.2248282,-0.42558 c -0.5093229,-0.31805 -1.08577962,-0.60632 -1.28101494,-0.64062 -0.77460125,-0.13606 -0.60682478,-0.36664 0.26677886,-0.36664 0.50932288,0 0.99549478,-0.0694 1.08038188,-0.15434 0.2528561,-0.25286 -0.81868438,-1.16858 -1.36742282,-1.16858 -1.13366796,0 -1.80493058,-0.74257 -1.07760523,-1.19208 0.35844442,-0.22153 1.36462478,0.11297 1.18995279,0.39559 -0.15058508,0.24365 1.63787886,0.17116 1.88546256,-0.0764 0.083395,-0.0834 0.447278,-0.0392 0.8086291,0.0982 0.9140723,0.34753 0.6872274,-0.052 -0.6700908,-1.18008 -1.67609607,-1.39307 -3.54921918,-1.88648 -7.0527794,-1.85781 -2.1539012,0.0176 -3.185513,0.14441 -3.9687498,0.48774 -0.9620596,0.42172 -1.0132261,0.49176 -0.5624717,0.76993 0.2727238,0.16831 0.8760455,0.55555 1.3407149,0.86055 1.6163439,1.0609 9.292051,4.56147 10.0696729,4.59235 0.1455208,0.006 -0.1521354,-0.24971 -0.6614583,-0.56775 z m -3.8287114,-1.81354 c 0.1374633,-0.22242 0.099455,-0.26778 -0.1139027,-0.13591 -0.4422284,0.27331 -6.3761354,-2.72856 -6.3761354,-3.22559 0,-0.28615 0.2382551,-0.36021 0.9074822,-0.28209 0.4991152,0.0583 0.849276,0.0118 0.7781351,-0.10334 -0.3516712,-0.56902 1.0962672,-0.10867 1.834461,0.58324 0.4650506,0.43589 0.9575997,0.79307 1.0945537,0.79375 0.136954,6.7e-4 0.017891,-0.16984 -0.2645833,-0.3789 -0.8526935,-0.63111 0.1638212,-0.35074 1.3493712,0.37217 0.5761001,0.35129 1.1665173,0.64562 1.3120381,0.65406 0.1455208,0.008 0.2748663,0.13441 0.2874344,0.27993 0.012568,0.14552 0.1165739,0.47808 0.2311238,0.73902 0.24218097,0.55167 0.21621023,0.58715 -0.6178377,0.84396 -0.4708761,0.14499 -0.5767191,0.10981 -0.4221404,-0.1403 z m 2.10891981,-3.16247 c -0.58208331,-0.26946 -0.90359253,-0.49875 -0.71446494,-0.50954 0.37636791,-0.0215 1.90508983,0.71132 1.90508983,0.91321 0,0.15624 0.07059,0.18017 -1.19062489,-0.40367 z M 6.9767348,128.38624 C 6.5779231,126.61126 6.0249746,125.68 4.3508199,123.96376 c -1.4398029,-1.476 -2.3726827,-2.0854 -1.9551289,-1.27719 0.093976,0.18191 -0.047825,0.0757 -0.3151143,-0.23601 -0.7209099,-0.84073 -2.01687344,-1.40812 -4.1404443,-1.81274 -1.0423658,-0.19862 -1.9189434,-0.33739 -1.9479502,-0.30838 -0.1612761,0.16128 2.9718157,3.96536 4.05764474,4.92664 0.9329947,0.82598 5.38962216,3.4647 7.13904036,4.22695 0.020912,0.009 -0.074548,-0.48444 -0.2121325,-1.09679 z m -3.5710455,-4.32201 c -0.2425397,-0.63205 0.021547,-0.68992 0.5155485,-0.11296 0.3831309,0.44746 0.3893186,0.52124 0.043715,0.52124 -0.2214241,0 -0.4730926,-0.18373 -0.5592635,-0.40828 z m 10.3870447,3.83395 c 0.858107,-0.47082 1.857851,-1.18272 2.221653,-1.582 0.363802,-0.39928 1.375833,-1.36088 2.248958,-2.13689 0.873125,-0.77601 1.603532,-1.53351 1.623126,-1.68333 0.01959,-0.14982 0.04936,-0.42123 0.06615,-0.60314 0.01679,-0.1819 0.19066,-0.33073 0.386388,-0.33073 0.542213,0 1.330581,-0.96594 0.970167,-1.18869 -0.67551,-0.41749 -3.433633,0.18571 -4.954841,1.08361 -2.431509,1.43522 -3.795389,3.1539 -5.269816,6.64072 -0.357613,0.84571 -0.356965,0.84695 0.394911,0.75179 0.414212,-0.0524 1.4552,-0.48053 2.313308,-0.95134 z m 1.621571,-13.8278 c 1.208131,-1.69806 1.426335,-2.22626 1.550432,-3.75308 l 0.114747,-1.41179 -0.814749,0.30753 c -1.513909,0.57144 -5.053956,4.76122 -4.618368,5.46601 0.08334,0.13484 -0.01668,0.64773 -0.222262,1.13976 -0.244136,0.5843 -0.2898,1.04466 -0.131652,1.32725 0.209079,0.37361 0.453167,0.26878 1.788103,-0.76789 0.850284,-0.6603 1.900471,-1.69881 2.333749,-2.30779 z m -8.9980036,1.83294 c -0.080915,-0.78399 -0.3484337,-1.81474 -0.5944861,-2.29055 -0.6505267,-1.25798 -2.7361175,-3.39869 -3.8794364,-3.98197 -1.2522988,-0.63887 -1.52295014,-0.63445 -1.35126526,0.0221 0.0756811,0.2894 0.24176446,0.46181 0.36907415,0.38313 0.12730971,-0.0787 0.16532751,0.0293 0.0844841,0.23999 -0.27288483,0.71113 1.4624293,3.60945 3.2035437,5.35057 0.9362133,0.93621 1.8401305,1.7022 2.008705,1.7022 0.212554,0 0.2614058,-0.43691 0.1593808,-1.42544 z m -1.0155823,-0.13771 c 0.2433392,-0.15411 0.3124014,-0.48624 0.2054702,-0.98814 -0.146273,-0.68655 -0.1342944,-0.70265 0.1303945,-0.1753 0.3323751,0.66222 0.1393688,1.40563 -0.3633714,1.39962 -0.2553861,-0.003 -0.2485996,-0.0613 0.027507,-0.23618 z m 5.7168639,-9.06789 c 0.756501,-0.65777 0.850175,-0.9912 0.25388,-0.90369 -0.225275,0.0331 -0.575402,0.37972 -0.778059,0.77034 -0.446681,0.86098 -0.343007,0.88735 0.524179,0.13335 z m -3.9765257,-1.40285 c -0.4818352,-2.07279 -1.4004838,-4.53915 -2.1205477,-5.693191 -0.6168439,-0.98861 -1.9875009,-2.452648 -2.146941,-2.293208 -0.3304578,0.330458 -0.057575,2.918969 0.4509463,4.277579 0.7602875,2.03127 2.2806939,4.34435 3.0471052,4.63573 0.3275422,0.12454 0.6785506,0.36075 0.7800186,0.52493 0.3562934,0.5765 0.3529068,0.11184 -0.010581,-1.45184 z m 1.9377258,-0.13694 c -0.064074,-0.43656 -0.029653,-0.79375 0.076491,-0.79375 0.1962808,0 1.3028629,-3.38247 1.3028629,-3.98244 0,-0.25582 -1.5001941,-2.767411 -2.0417356,-3.418231 -0.057037,-0.06855 -0.2212562,0.05052 -0.3649325,0.264583 -0.2284751,0.340411 -0.253743,0.33945 -0.2015209,-0.0077 C 7.882788,97.00211 7.7091588,96.362492 7.4641056,95.799017 7.2190523,95.23559 7.0185543,94.685009 7.0185543,94.57555 c 0,-0.257623 -1.7013629,-2.11761 -1.9370158,-2.11761 -0.098808,0 -0.1796508,0.580772 -0.1796508,1.290604 0,1.354023 0.5450438,2.988622 1.2831195,3.848105 0.2401696,0.279676 0.287844,0.421477 0.1059429,0.315114 -0.4856722,-0.283986 -0.4149583,-0.04164 0.4363683,1.495497 0.4219035,0.76178 0.827405,1.62318 0.9011142,1.91422 0.3592327,1.41843 1.3756266,4.63021 1.4652693,4.63021 0.055868,0 0.049155,-0.35719 -0.014919,-0.79375 z m 4.4673469,-1.41228 c 0.366005,-0.72228 0.831679,-1.86085 1.03483,-2.53016 0.416235,-1.371352 0.500995,-3.730477 0.13403,-3.730477 -0.507284,0 -1.741967,1.816628 -2.843812,4.184197 -1.635549,3.51435 -1.663071,3.6958 -0.577171,3.80541 1.129815,0.11405 1.438144,-0.12266 2.252123,-1.72897 z m -1.973056,-7.134049 c 0.540455,-0.246747 1.095741,-0.659955 1.23397,-0.918238 0.305953,-0.571678 0.468765,-3.151789 0.214906,-3.405648 -0.100409,-0.10041 -0.182563,-0.02381 -0.182563,0.170215 0,0.194028 -0.07519,0.277592 -0.16708,0.185698 -0.324884,-0.324884 -1.160945,0.374563 -1.692006,1.415529 -0.503458,0.986859 -0.916595,3.292114 -0.554102,3.091821 0.09033,-0.04991 0.60642,-0.292629 1.146875,-0.539377 z m -1.6510416,-4.07191 c 0.00382,-0.464355 -0.1301864,-0.929029 -0.2977833,-1.03261 -0.34097,-0.210731 -1.0795367,0.637543 -0.861813,0.989828 0.076687,0.124082 -0.059097,0.225604 -0.3017416,0.225604 -0.3355098,0 -0.4023861,-0.154539 -0.2792271,-0.645243 0.08907,-0.354884 0.042446,-0.719098 -0.1036087,-0.809365 -0.1480723,-0.09151 -0.2673469,0.106155 -0.269606,0.446806 -0.00326,0.4915 -0.05419,0.533344 -0.2605318,0.214052 -0.1410642,-0.218281 -0.2583035,-0.271859 -0.2605318,-0.119062 -0.00223,0.152797 0.090705,0.390921 0.2065194,0.529166 0.115814,0.138245 0.3690622,0.727604 0.5627738,1.309688 0.5949047,1.787627 0.8693638,1.937303 1.3973714,0.762054 0.2536822,-0.564651 0.4643626,-1.406564 0.4681787,-1.870918 z M 8.1698671,88.954748 C 8.0761212,88.803064 7.9172862,88.84477 7.7832828,89.056255 7.6171523,89.318443 7.5547315,89.254721 7.5517724,88.819919 7.5471628,88.1426 7.4099221,88.085309 6.910218,88.552103 c -0.2904988,0.271366 -0.2824201,0.431529 0.047137,0.934496 0.3737073,0.57035 0.4271253,0.580392 0.88468,0.16631 0.2678267,-0.24238 0.4153513,-0.556552 0.3278321,-0.698161 z m 2.6726959,0.550306 c 0.546944,-0.249205 0.673908,-0.493108 0.673908,-1.294609 0,-1.260792 -0.583506,-1.52721 -1.313183,-0.599576 -0.5488186,0.697709 -0.7446908,2.201238 -0.2867667,2.201238 0.1386737,0 0.5553927,-0.138174 0.9260417,-0.307053 z M 9.4451165,86.728391 C 10.081388,86.152574 10.072456,84.169935 9.4281415,82.960557 8.885239,81.941529 8.8028444,82.013536 8.0680891,84.149139 c -0.5118502,1.487719 -0.5117883,1.492287 0.030554,2.253937 0.6332945,0.889381 0.7042462,0.906523 1.3464734,0.325315 z"
       id="path10040" />
    <path
       style="fill:#323844;stroke-width:1.41077"
       d="m 8.0769148,143.52257 c -0.296094,-0.55326 -2.7906176,-2.10994 -3.3879807,-2.11423 -0.1898849,-0.001 -0.8447286,-0.22534 -1.4552082,-0.49772 -0.6104797,-0.27238 -1.824338,-0.75733 -2.69746296,-1.07767 -0.87312495,-0.32034 -2.36140614,-1.0019 -3.30729144,-1.51459 -0.9458854,-0.51268 -3.4842743,-1.81584 -5.6408643,-2.89591 -4.4374462,-2.22238 -4.5756222,-2.42743 -2.4256232,-3.59955 5.205367,-2.83783 13.1797003,-1.3789 16.4041288,3.00117 0.6284347,0.85367 1.3509501,2.11825 1.6055898,2.81018 0.2546397,0.69194 0.5623646,1.37117 0.6838331,1.50942 0.3500095,0.39835 0.2663129,-6.4185 -0.086949,-7.08177 -0.4565507,-0.85721 -0.9006727,-1.15738 -3.6609486,-2.47434 -3.83354916,-1.82902 -4.82259524,-2.66234 -8.3660409,-7.04875 -0.3725911,-0.46123 -1.6881253,-3.16792 -1.6881253,-3.47329 0,-0.36063 4.1882698,-0.10183 5.4588471,0.33732 3.3232895,1.14861 6.4423201,3.70108 7.9731942,6.52489 l 0.8606312,1.5875 -0.068733,-3.82622 -0.068732,-3.82622 -1.5918021,-0.8095 c -0.8754912,-0.44522 -2.0205678,-1.13653 -2.5446147,-1.53624 -1.8377002,-1.40169 -4.6132565,-6.10766 -4.9108502,-8.32639 -0.182057,-1.35734 0.50334401,-2.01509 1.73246184,-1.66259 0.98219646,0.28169 3.80960476,2.24496 4.83549316,3.35763 0.979865,1.06275 2.082437,2.9036 2.082437,3.47683 0,0.26612 0.1488281,0.68783 0.3307292,0.93714 0.2698403,0.36983 0.3140752,-0.11954 0.2402704,-2.65809 C 8.333552,110.93033 8.1807427,109.32074 8.0437283,109.06473 7.9067138,108.80872 7.3473538,108.37108 6.8007059,108.0922 4.1711302,106.75069 1.7180941,102.8441 1.5091727,99.665164 1.4454419,98.69544 1.53615,97.680922 1.7279943,97.217768 2.0067145,96.544878 2.1991089,96.42671 3.015758,96.426823 l 0.9600881,1.34e-4 -0.093132,-2.399097 c -0.086563,-2.229872 -0.055194,-2.409017 0.4447183,-2.539747 0.6921851,-0.181011 0.8210409,-0.551572 0.986404,-2.83668 0.074907,-1.035119 0.2509873,-1.921722 0.3912897,-1.970229 0.1403025,-0.04851 0.2550954,-0.256866 0.2550954,-0.463021 0,-0.206154 0.090886,-0.374826 0.2019695,-0.374826 0.1110832,0 0.3495264,-0.62118 0.5298737,-1.3804 0.3086427,-1.299313 1.9522379,-4.180647 2.3797134,-4.171798 0.6453527,0.01336 1.7096349,2.133118 2.0570029,4.09699 0.102959,0.582083 0.483911,1.376571 0.84656,1.765529 0.605942,0.6499 0.65118,0.869233 0.558369,2.707174 -0.07313,1.448165 -0.0084,2.035513 0.234633,2.128771 0.184596,0.07084 0.335629,0.01347 0.335629,-0.127487 0,-0.622164 0.437108,-0.156469 0.892549,0.95092 0.487136,1.184456 0.490051,2.45428 0.0093,4.057308 -0.17466,0.582407 -0.132691,0.61986 0.513004,0.457801 0.598243,-0.15015 0.781971,-0.04735 1.23069,0.688617 0.588019,0.964435 0.658999,2.094111 0.262834,4.183078 -0.556244,2.93307 -1.368161,4.12642 -5.06982,7.45163 l -0.9708036,0.87207 -0.1130518,2.70441 -0.1130518,2.70441 1.0255492,-1.75498 c 1.393857,-2.38524 2.645082,-3.73311 4.557769,-4.90981 2.72777,-1.67814 3.618888,-1.25089 3.146229,1.50847 -0.671362,3.91939 -3.315869,7.438 -6.975264,9.28084 l -1.8548649,0.93409 0.075812,3.66434 0.075812,3.66434 0.8128789,-1.75454 c 1.387451,-2.99472 4.262102,-5.45795 7.319356,-6.27181 2.596671,-0.69126 5.758389,-0.40684 5.758389,0.51799 0,0.47066 -4.990928,6.23557 -6.465493,7.46815 -0.650692,0.54392 -2.349415,1.67366 -3.774938,2.51054 -3.8721435,2.27322 -3.5318373,1.79783 -3.6748306,5.13356 -0.1135829,2.64965 -0.088571,2.86301 0.2791576,2.38125 2.838442,-3.71858 4.685216,-5.20759 7.767414,-6.26265 2.271988,-0.77772 7.270882,-0.85013 9.572857,-0.13867 1.840402,0.56881 3.203303,1.3915 3.031672,1.83001 -0.07275,0.18589 -0.81441,0.65604 -1.648123,1.04479 -0.833712,0.38875 -3.172045,1.61455 -5.196296,2.72401 -3.752497,2.05668 -9.527921,4.73349 -10.903147,5.05341 -1.107881,0.25774 -2.9569695,1.37112 -3.2802146,1.97511 -0.3584676,0.6698 -0.9575699,0.66606 -1.3184466,-0.008 z m -1.5886191,-3.97261 c -0.5267627,-1.83671 -2.3988056,-4.72733 -3.647174,-5.63159 -2.18244804,-1.58086 -3.44900774,-1.90726 -7.3319418,-1.88945 -2.8951783,0.0133 -3.622864,0.10176 -4.5975626,0.559 -0.7316005,0.3432 -1.0417403,0.61505 -0.8422928,0.73832 0.1736277,0.10731 0.3778365,0.13295 0.4537973,0.057 0.075961,-0.076 0.744561,0.21947 1.4857782,0.6565 3.547733,2.09182 10.6781189,5.24946 11.8540092,5.24946 0.2958374,0 0.9681776,0.29239 1.4940894,0.64975 1.141866,0.77592 1.4363467,0.67467 1.1312971,-0.38898 z m 8.1500683,-0.22603 c 1.120615,-0.40917 4.180606,-1.87059 6.799981,-3.24761 2.619375,-1.37702 5.23474,-2.72354 5.811922,-2.99227 l 1.049422,-0.48859 -1.181714,-0.37065 c -1.814258,-0.56904 -5.289765,-0.73391 -7.196827,-0.3414 -3.883007,0.79919 -6.289301,2.51474 -8.347337,5.95115 -1.136911,1.89836 -1.270316,2.51923 -0.306393,1.42596 0.563175,-0.63874 0.576228,-0.4965 0.06818,0.74296 -0.178754,0.43609 0.7972,0.23529 3.302766,-0.67955 z m -3.088991,-10.27444 c 1.131975,-0.17275 4.195768,-2.26582 6.317097,-4.31561 1.236927,-1.19521 2.222949,-2.26748 2.191159,-2.38282 -0.03179,-0.11534 0.355163,-0.5247 0.859895,-0.90967 1.382375,-1.05439 1.193206,-1.29302 -0.905967,-1.14282 -3.671252,0.26267 -6.387298,2.38271 -8.493861,6.62996 -0.728278,1.46835 -1.324142,2.72165 -1.324142,2.78509 0,0.0635 0.190206,-0.0425 0.42268,-0.23543 0.232474,-0.19294 0.652386,-0.38585 0.933139,-0.4287 z m -3.7370688,0.18553 c 0,-0.14552 -0.1167941,-0.26458 -0.2595424,-0.26458 -0.1427484,0 -0.3382371,-0.32742 -0.4344194,-0.72761 -0.9209151,-3.83162 -5.236986,-7.18949 -10.0998187,-7.85759 -1.0658097,-0.14644 -1.1192815,-0.12399 -0.8597963,0.36086 1.332621,2.49002 5.3797499,6.30389 7.1870027,6.77276 0.3465638,0.0899 1.2849597,0.56325 2.0853243,1.05186 1.4683193,0.89639 2.3812498,1.15107 2.3812498,0.6643 z m 4.7034048,-12.23395 c 2.16565,-1.88368 3.556164,-3.4667 4.043233,-4.60299 0.558661,-1.3033 0.852273,-3.53597 0.465007,-3.53597 -1.147426,0 -4.065272,2.69963 -5.078082,4.69832 -0.633868,1.25088 -0.815682,1.81722 -1.146056,3.5699 -0.190296,1.00955 0.463212,0.96032 1.715898,-0.12926 z m -5.5065796,0.34975 c -0.00518,-0.0849 -0.1734153,-0.84057 -0.3738481,-1.6793 -0.6704572,-2.80559 -2.6124547,-5.23338 -5.0479586,-6.31072 -1.34135415,-0.59335 -1.63078825,-0.54471 -1.20878151,0.20314 0.15169994,0.26884 0.62435071,1.2828 1.05033501,2.25325 0.5708408,1.30046 1.2858815,2.28162 2.7190767,3.73103 1.0695079,1.08162 2.1529191,1.96441 2.4075806,1.96176 0.2546614,-0.003 0.4587796,-0.0743 0.4535959,-0.15916 z m 5.9777126,-12.60531 c 1.027952,-1.31649 1.969212,-4.15747 1.969212,-5.943611 0,-0.869803 -0.0946,-1.581459 -0.210215,-1.581459 -0.402122,0 -2.166023,2.568976 -2.83147,4.1238 -0.36833,0.86061 -0.803279,1.79734 -0.966554,2.08163 -0.163274,0.28429 -0.317335,1.00273 -0.342356,1.59653 -0.02502,0.5938 -0.146327,1.24279 -0.269568,1.4422 -0.123242,0.19941 -0.255879,0.65229 -0.29475,1.00639 -0.061872,0.56365 0.07781,0.48441 1.121551,-0.63617 0.655725,-0.704 1.476592,-1.64419 1.82415,-2.08931 z M 9.9231156,102.6444 c 0.4181224,-1.30969 0.8398464,-2.61938 0.9371644,-2.910419 0.116208,-0.347534 0.09494,-0.415702 -0.06197,-0.1986 -0.173762,0.240424 -0.451126,0.03031 -1.017146,-0.770537 C 9.3531353,98.159237 8.6755073,97.337635 8.275325,96.939062 7.8751428,96.540488 7.5477209,96.051935 7.5477209,95.853387 c 0,-0.772185 -1.73995,-3.299168 -2.374743,-3.448913 -0.2370174,-0.05591 -0.3283997,0.305753 -0.3143468,1.244091 0.024892,1.662122 0.9321378,4.472902 1.9215112,5.953124 0.5285481,0.790771 2.0712166,5.838521 2.1367198,6.991541 0.030347,0.53418 0.08054,0.40471 0.1461275,-0.37696 0.054947,-0.65484 0.4420033,-2.26218 0.860126,-3.57187 z m -2.5159079,3.25863 C 6.9418544,103.14862 4.9550173,98.862619 3.5570573,97.597483 2.8656374,96.971756 2.6700286,97.259851 2.6817223,98.886684 c 0.014766,2.054256 1.4154703,5.176776 3.0598284,6.821136 0.7162111,0.71621 1.4260602,1.3022 1.5774424,1.3022 0.1765422,0 0.208175,-0.39695 0.088215,-1.10699 z m 5.4522053,-7.527874 c 0.590047,-0.641501 0.596236,-0.673883 0.07725,-0.404225 -0.310301,0.161228 -0.633986,0.475043 -0.7193,0.697367 -0.216478,0.564131 -0.09577,0.50902 0.642052,-0.293142 z M 11.58963,96.690171 c 1.325542,-0.58635 1.778924,-1.407438 1.778924,-3.221684 0,-1.941197 -1.503366,-1.547003 -2.532877,0.664139 -0.536995,1.153335 -0.8774689,3.087814 -0.543465,3.087814 0.05426,0 0.6381,-0.238621 1.297418,-0.530269 z m -1.492874,-4.262208 c 0.14864,-1.062684 -0.4068339,-1.564439 -0.9745875,-0.880338 -0.1739786,0.209632 -0.4353871,0.381148 -0.580908,0.381148 -0.1575198,0 -0.1416779,-0.148092 0.03915,-0.365976 0.2351762,-0.28337 0.2072392,-0.403004 -0.1237714,-0.530025 -0.5852549,-0.224583 -0.9136441,0.02723 -0.7482295,0.573745 0.075668,0.250001 -0.052397,0.127126 -0.2845887,-0.273056 -0.2321917,-0.400183 -0.5969579,-0.727604 -0.8105916,-0.727604 -0.5348524,0 -0.4868048,0.340438 0.099746,0.706745 0.2684942,0.167677 0.7641369,1.05952 1.1014283,1.981874 0.9085161,2.484417 1.0779709,2.611472 1.6588346,1.243771 0.2692749,-0.634034 0.5498578,-1.583662 0.6235178,-2.110284 z m 0.860507,-2.205752 c -0.146945,-0.157479 -0.353122,-0.132775 -0.552042,0.06615 -0.246945,0.246944 -0.246945,0.3175 0,0.3175 0.174625,0 0.3034,0.0893 0.286168,0.198437 -0.08538,0.540719 0.09379,0.665699 0.284471,0.198438 0.11877,-0.291042 0.110402,-0.642276 -0.0186,-0.780521 z m -2.6157921,-0.9574 c 0,-0.145251 -0.4141092,-0.678202 -0.9202427,-1.184336 L 6.5009855,87.160232 6.3394739,87.803746 c -0.2357835,0.939436 0.8375293,2.348363 1.5134125,1.986642 0.2687214,-0.143816 0.4885845,-0.380325 0.4885845,-0.525577 z m 3.1750001,-1.150983 c 0,-1.444487 -0.518216,-1.714801 -1.288939,-0.672342 -0.5341062,0.722417 -0.7559742,2.089596 -0.3973079,2.448263 0.09121,0.09121 0.5079289,-0.01107 0.9260419,-0.227281 0.661165,-0.341901 0.760205,-0.54366 0.760205,-1.54864 z M 9.9582578,85.747899 C 10.013536,84.679593 9.8764847,83.857685 9.48887,82.93294 9.1161826,82.043808 9.0854113,82.027601 8.7168366,82.526308 8.5057054,82.811983 8.1399812,83.657921 7.9041162,84.406171 l -0.4288454,1.360454 0.7588132,0.851639 0.7588133,0.851638 0.4680367,-0.578001 c 0.2574202,-0.3179 0.4812159,-0.832701 0.4973238,-1.144002 z"
       id="path10023" />
    <path
       style="fill:#262c36;stroke-width:1.41077"
       d="m 8.0539436,143.44553 c -0.1519005,-0.33338 -0.4864439,-0.72034 -0.7434298,-0.85989 -1.2629603,-0.68586 -2.4947625,-1.21473 -4.8403702,-2.07819 -3.8834253,-1.42956 -14.8132236,-6.99908 -14.7142446,-7.49797 0.130781,-0.65919 2.6484204,-1.90654 4.7450072,-2.3509 2.237777,-0.47428 5.1309616,-0.33645 7.24160679,0.34499 1.82604311,0.58956 4.13928371,1.92427 3.92787341,2.26634 -0.095247,0.15411 -0.052021,0.20533 0.096057,0.11381 0.5846351,-0.36132 2.7445078,2.55805 3.8108757,5.15094 0.3418587,0.83123 0.369593,0.67952 0.44247,-2.42047 0.042763,-1.81901 0.012566,-3.57016 -0.067104,-3.89143 -0.1783804,-0.71934 -1.8313831,-1.8571 -4.1035869,-2.8245 -1.7473389,-0.74393 -3.78759625,-2.06645 -5.1038658,-3.30838 -1.9328149,-1.82366 -4.9583944,-6.5537 -4.4910328,-7.02106 0.083902,-0.0839 0.894071,-0.15255 1.8003744,-0.15255 4.84183114,0 10.6746225,4.02482 11.8142533,8.15222 0.442656,1.60317 0.6069122,0.54022 0.52381,-3.38972 l -0.081125,-3.83646 -1.8628054,-0.92604 c -3.004004,-1.49335 -5.1271217,-3.97445 -6.72383262,-7.85753 -1.02346598,-2.48899 -0.74491578,-3.51955 0.95130231,-3.51955 0.75033151,0 3.98195061,2.17959 5.15225811,3.47498 1.2269377,1.35807 2.5076771,4.31136 2.5170883,5.80422 0.00278,0.44131 0.072598,0.5346 0.2228253,0.29775 0.1203256,-0.18971 0.1304041,-0.90408 0.022397,-1.5875 -0.1080074,-0.68342 -0.230457,-2.6118 -0.2721101,-4.28528 C 8.276981,109.56987 8.161609,108.08158 8.062252,107.93606 7.9628949,107.79054 7.7365952,107.01664 7.5593637,106.21627 6.7997475,102.7859 5.148251,99.120724 3.7630944,97.791188 L 2.8416338,96.906729 2.6638644,98.199266 c -0.2859265,2.078934 1.4814925,6.438644 3.1569292,7.787224 1.3433993,1.08132 1.6923805,1.45978 1.8516103,2.00801 0.1577357,0.54308 0.1243986,0.5631 -0.4400296,0.26424 -0.3358822,-0.17785 -1.1464762,-0.69743 -1.8013199,-1.15463 -2.7098389,-1.89193 -4.79651302,-7.583334 -3.6237117,-9.88367 0.2793421,-0.547903 0.5290639,-0.661459 1.45462,-0.661459 0.9015452,0 1.0805684,-0.07666 0.9267963,-0.396875 C 4.0839365,95.943825 3.9544588,94.847005 3.9010308,93.724729 3.8055595,91.719316 3.8156048,91.681286 4.48518,91.513234 c 0.4563244,-0.11453 0.6879806,-0.358098 0.7015499,-0.737623 0.094569,-2.645034 0.2800419,-3.710102 0.7645859,-4.390581 0.2959395,-0.415609 0.5380718,-0.88194 0.5380718,-1.036291 0,-1.370322 1.996568,-4.797049 2.7949803,-4.797049 0.5037577,0 1.3025921,1.653064 1.7260901,3.571875 0.231735,1.049963 0.555903,1.750784 0.95736,2.069724 0.508239,0.403774 0.605097,0.726601 0.595373,1.984375 -0.0064,0.826183 -0.178739,1.978401 -0.383004,2.560484 -0.290501,0.827828 -0.295294,0.956486 -0.022,0.590717 0.226146,-0.302673 0.516546,-0.403472 0.823282,-0.285767 0.325386,0.124863 0.413942,0.08485 0.282585,-0.127695 -0.105221,-0.170251 -0.12781,-0.309546 -0.0502,-0.309546 0.144702,0 1.036301,1.613971 1.023137,1.852083 -0.004,0.07276 0.05179,0.286321 0.124035,0.474579 0.123081,0.320744 0.02651,1.065128 -0.356475,2.74777 -0.147808,0.649391 -0.08696,0.715929 0.725815,0.79375 0.745173,0.07135 0.938838,0.233141 1.210148,1.010984 0.414516,1.188417 0.174674,3.912947 -0.506224,5.750557 -0.594339,1.60401 -1.92105,3.28944 -3.483613,4.42553 -2.0518596,1.49184 -1.9827769,1.34197 -2.1426331,4.64822 l -0.1467448,3.03507 0.7291489,-1.40549 c 0.93001,-1.79265 2.548812,-3.90495 2.929997,-3.82321 0.161507,0.0346 0.237648,-0.0844 0.169203,-0.26458 -0.222182,-0.5848 3.614846,-2.75693 4.205721,-2.38085 0.166867,0.10621 0.422457,0.19752 0.567977,0.2029 0.492546,0.0182 0.138402,2.88199 -0.572381,4.62852 -0.66533,1.63484 -2.536544,4.49653 -2.941919,4.49914 -0.104426,6.7e-4 -0.568068,0.35572 -1.030314,0.78898 -0.462247,0.43327 -1.533809,1.12001 -2.38125,1.52609 l -1.5408019,0.73832 -0.057746,3.9628 -0.057746,3.96279 0.4888419,-1.24003 c 0.760141,-1.92822 1.486233,-2.94818 3.319791,-4.66339 2.01459,-1.88455 3.899983,-2.70104 6.68612,-2.8955 1.869148,-0.13045 3.511363,0.22678 3.511363,0.76384 0,0.39156 -3.167237,4.20964 -5.149507,6.20769 -2.086314,2.10293 -3.321236,2.95451 -7.306062,5.03811 -1.4509112,0.75866 -1.5718469,1.11261 -1.5585437,4.56142 l 0.0088,2.28203 0.5248297,-0.66146 c 0.288656,-0.3638 0.969304,-1.22611 1.512551,-1.91625 1.245058,-1.58171 4.146121,-3.56683 6.101954,-4.17541 3.289252,-1.02348 7.754378,-0.8876 10.821312,0.32932 2.316192,0.91903 2.183816,1.25614 -1.16772,2.97373 -1.573866,0.80657 -4.171261,2.17954 -5.771991,3.05105 -2.680271,1.45926 -6.622183,3.22309 -9.73077,4.35409 -0.695257,0.25296 -1.694177,0.86553 -2.2198223,1.36128 -1.1285391,1.06435 -1.3318451,1.09969 -1.6983923,0.2952 z M 6.8753162,140.5304 c -0.084326,-0.33598 -0.1818737,-0.78247 -0.216773,-0.99219 -0.034899,-0.20972 -0.4433065,-1.03616 -0.9075715,-1.83652 -0.8722712,-1.50374 -1.0417427,-2.00239 -0.5845007,-1.71979 0.1455209,0.0899 0.2645834,0.33508 0.2645834,0.54478 0,0.20969 0.1190624,0.38126 0.2645833,0.38126 0.1455208,0 0.2645833,0.2311 0.2645833,0.51355 0,0.28245 0.1318181,0.59502 0.2929292,0.69459 0.1995515,0.12333 0.2326865,-0.009 0.1039458,-0.41439 -0.1277305,-0.40245 -0.095022,-0.53737 0.1009151,-0.41627 0.1803824,0.11148 0.231586,0.0272 0.1355403,-0.22308 -0.084897,-0.22124 -0.2323613,-0.37951 -0.3276985,-0.35172 -0.095337,0.0278 -0.7907914,-0.54152 -1.545454,-1.26514 -2.5852389,-2.47889 -3.85242961,-3.12357 -7.0238245,-3.57336 -2.1070946,-0.29884 -5.7170836,0.0803 -6.7421479,0.70816 -0.3223019,0.1974 -0.775813,0.35891 -1.0078025,0.35891 -0.231989,0 -0.354499,0.10889 -0.272244,0.24198 0.08226,0.13309 -1.4e-5,0.29964 -0.182822,0.37011 -0.182808,0.0705 0.02481,0.0955 0.461372,0.0556 0.5493191,-0.0502 1.7307356,0.41124 3.8364583,1.49833 3.3649414,1.73717 8.6603103,4.02179 9.9743005,4.30327 0.4653967,0.0997 1.2854402,0.53035 1.8223188,0.95701 1.1766793,0.93511 1.4927714,0.97553 1.2893086,0.16487 z m 6.5103788,-0.70362 c 1.310688,-0.43193 3.480131,-1.35033 4.820985,-2.04089 1.340853,-0.69055 3.271353,-1.6617 4.289998,-2.15809 1.018646,-0.4964 2.16812,-1.12581 2.554386,-1.3987 0.386266,-0.27289 1.070875,-0.49616 1.521354,-0.49616 0.577264,0 0.819052,-0.12603 0.819052,-0.42691 0,-0.32533 0.191878,-0.39874 0.806493,-0.30853 1.357793,0.19928 0.333121,-0.45357 -1.485309,-0.94634 -2.018663,-0.54702 -5.605049,-0.56099 -7.644564,-0.0298 -2.206324,0.57467 -4.510861,1.87914 -5.693622,3.22282 -1.061538,1.20597 -3.180914,4.59294 -3.180914,5.08341 0,0.44349 0.623292,0.3457 3.192141,-0.50085 z m -4.0978695,-3.65481 c 0.037065,-1.99893 3.03e-4,-2.30628 -0.1651431,-1.3807 -0.2672596,1.49518 -0.3142456,4.38373 -0.06729,4.13677 0.1016152,-0.10161 0.2062101,-1.34185 0.2324331,-2.75607 z m -0.7549562,-3.56351 c -0.058692,-0.47294 -0.1067122,-0.086 -0.1067122,0.85989 0,0.94589 0.048021,1.33284 0.1067122,0.8599 0.058692,-0.47294 0.058692,-1.24685 0,-1.71979 z m -19.5059803,0.0661 c 0.15576,-0.29104 0.237934,-0.52916 0.182607,-0.52916 -0.05533,0 -0.316093,0.23812 -0.579482,0.52916 -0.26339,0.29105 -0.345563,0.52917 -0.182608,0.52917 0.162955,0 0.423722,-0.23812 0.579483,-0.52917 z m 21.036246,-2.6428 c -0.093797,-0.15177 0.01636,-0.19324 0.262431,-0.0988 0.241738,0.0928 0.674257,-0.0604 1.00593,-0.35627 0.320017,-0.28545 1.236693,-0.84955 2.037058,-1.25355 1.780739,-0.89887 3.68492,-2.28881 3.695985,-2.69785 0.0074,-0.27342 0.627762,-0.67492 1.132661,-0.73306 0.10914,-0.0126 0.168671,-0.0931 0.132291,-0.17901 -0.03638,-0.0859 0.801066,-1.11814 1.86099,-2.29389 l 1.927136,-2.13773 -1.972517,-0.0874 c -1.084884,-0.0481 -1.929225,-0.0447 -1.876313,0.008 0.05291,0.0522 -0.633321,0.45947 -1.524964,0.90502 -2.595453,1.29697 -4.47713,3.57251 -5.773337,6.98179 -0.222822,0.58607 -0.326949,0.65443 -0.523488,0.34368 -0.17328,-0.27398 -0.256245,-0.29077 -0.282465,-0.0572 -0.08138,0.72494 -0.110574,0.8231 -0.301708,1.01423 -0.2950857,0.29509 -0.2400137,0.90399 0.081761,0.90399 0.154109,0 0.207456,-0.11769 0.118549,-0.26155 z m -2.2508308,-0.79678 c 0,-0.29104 -0.091358,-0.52917 -0.203017,-0.52917 -0.1116594,0 -0.4912463,-0.72565 -0.8435264,-1.61256 -1.2129281,-3.0537 -4.9282188,-5.8924 -8.5931951,-6.56569 -2.6032498,-0.47824 -2.6768805,-0.44989 -1.8277112,0.70378 2.3473463,3.18905 5.8615963,6.40322 7.0211616,6.42162 0.1898857,0.003 1.1786841,0.4768 2.1973299,1.05285 2.1434982,1.21218 2.2489582,1.23699 2.2489582,0.52917 z m 1.0533925,-8.13594 c -0.1429342,-0.76154 -0.1854851,-0.5309 -0.1830469,0.99219 0.00243,1.52006 0.046008,1.75222 0.1862236,0.99219 0.1006758,-0.5457 0.099246,-1.43867 -0.00318,-1.98438 z m -5.8158922,0.59532 c -0.1811574,-0.21828 -0.4484395,-0.39688 -0.5939603,-0.39688 -0.1475917,0 -0.1189417,0.17549 0.064794,0.39688 0.1811574,0.21828 0.4484395,0.39687 0.5939603,0.39687 0.1475917,0 0.1189417,-0.17549 -0.064794,-0.39687 z m 4.3862705,-3.50573 c -0.1209525,-0.52071 -0.095582,-0.61693 0.089222,-0.33839 0.3927503,0.59195 0.5532324,0.22279 0.3765246,-0.86613 -0.1681828,-1.03639 -0.5061219,-1.28672 -0.6956136,-0.51527 -0.062553,0.25466 -0.065439,0.0761 -0.00641,-0.39688 0.080558,-0.64547 0.00536,-0.85989 -0.3015439,-0.85989 -0.2248752,0 -0.4138546,-0.20836 -0.4199542,-0.46303 -0.029647,-1.23779 -2.9349904,-4.71502 -4.4712484,-5.35136 -0.4451303,-0.18437 -0.8093279,-0.49938 -0.8093279,-0.70001 0,-0.20062 -0.1260892,-0.36477 -0.28019819,-0.36477 -0.15410903,0 -0.21347598,0.10796 -0.13192656,0.23991 0.0815494,0.13195 -0.0900176,0.17759 -0.38126006,0.10143 -0.29124246,-0.0762 -0.52953174,-0.0891 -0.52953174,-0.0288 0,0.0603 0.49028815,1.11603 1.08952922,2.34596 1.12754383,2.31426 2.43747113,4.13485 3.79824213,5.27895 0.4327014,0.3638 0.9982482,0.86982 1.2567707,1.12448 0.2585225,0.25466 0.4700409,0.39646 0.4700409,0.31511 0,-0.0814 0.124844,-0.0708 0.2774311,0.0236 0.1921043,0.11872 0.1887079,0.27836 -0.011043,0.51905 -0.2117529,0.25515 -0.197578,0.38406 0.053298,0.48472 0.6753656,0.27099 0.7934061,0.16769 0.6270013,-0.54869 z m 2.991662,-0.10262 c -0.246128,-0.164 -0.131485,-0.18968 0.349101,-0.0782 0.633564,0.14697 0.985698,-0.10229 3.072443,-2.17478 2.400351,-2.38395 3.26637,-3.88463 3.679301,-6.37566 0.173852,-1.04877 -0.175597,-1.10747 -1.567215,-0.26323 -2.508439,1.52177 -4.331541,3.9698 -4.999377,6.71309 -0.172616,0.70906 -0.47592,1.47746 -0.67401,1.70755 -0.19809,0.23009 -0.280529,0.49798 -0.183198,0.59531 0.09733,0.0973 0.03806,0.17697 -0.131714,0.17697 -0.1697743,0 -0.3086805,0.12325 -0.3086805,0.27389 0,0.17992 0.1938188,0.17016 0.5649115,-0.0284 0.454789,-0.2434 0.493472,-0.34993 0.198438,-0.54651 z m -0.767401,-0.69113 c -0.00295,-0.52954 -0.06831,-0.6261 -0.2401041,-0.35472 -0.1298289,0.20508 -0.1747986,0.5325 -0.099933,0.7276 0.2146985,0.55949 0.3444363,0.41722 0.3400371,-0.37288 z M 9.3998041,113.4394 c 0,-0.49137 -0.085303,-0.62907 -0.273257,-0.44112 -0.1502914,0.15029 -0.1970843,0.47176 -0.1039842,0.71437 0.245082,0.63868 0.3772412,0.54295 0.3772412,-0.27325 z m 6.6586799,-4.70553 c 0.306088,-0.007 0.587291,-0.40093 0.286223,-0.40093 -0.508355,0 -1.12407,0.31391 -1.12407,0.57309 0,0.13854 0.148828,0.15739 0.330729,0.0419 0.181901,-0.1155 0.410104,-0.21183 0.507118,-0.21405 z m -5.5033,-0.97879 c 0.15101,-0.0995 0.369545,-0.12227 0.485633,-0.0505 0.192369,0.11889 0.302164,-0.28601 0.144925,-0.53446 -0.13549,-0.21408 0.93947,-1.20045 1.159839,-1.06426 0.126073,0.0779 0.229223,-0.0965 0.229223,-0.38749 0,-0.29105 0.121327,-0.60415 0.269615,-0.6958 0.404975,-0.25029 1.486252,-2.49344 1.846097,-3.82981 0.27361,-1.01611 0.527584,-4.502292 0.327954,-4.501674 -0.03843,1.19e-4 -0.424289,0.38717 -0.857462,0.860113 -1.249093,1.363774 -3.86476,6.955311 -4.090299,8.743871 -0.04041,0.32048 -0.155208,1.05894 -0.2551004,1.64102 -0.1548227,0.90217 -0.1339144,0.98025 0.1416952,0.52917 0.1778252,-0.29104 0.4468712,-0.61061 0.5978802,-0.71015 z M 9.2180086,106.4992 c -0.051473,-0.88162 0.026249,-1.642 0.1773824,-1.73541 0.147948,-0.0914 0.2689965,-0.38176 0.2689965,-0.64517 0,-0.4397 0.9298285,-3.39705 1.4617755,-4.649222 0.202325,-0.47626 0.178995,-0.491888 -0.233339,-0.156309 -0.498281,0.405528 -0.802008,0.13094 -1.8058972,-1.632644 C 8.8420838,97.250317 8.4113366,96.737 8.1297106,96.539742 7.8480847,96.342483 7.5489387,95.837466 7.4649418,95.417482 7.2806958,94.496252 5.7024297,92.35968 5.1238655,92.248259 c -0.3218713,-0.06199 -0.4189518,0.174056 -0.4347782,1.057124 -0.023863,1.331503 0.6796278,3.568419 1.9385295,6.164015 1.1421321,2.354842 2.2374289,6.062862 2.1619535,7.319082 -0.032023,0.533 0.032648,0.91293 0.1437133,0.84428 0.1110655,-0.0686 0.2019372,10e-4 0.2019372,0.1554 0,0.15411 0.03924,0.2802 0.087201,0.2802 0.047961,0 0.045975,-0.70613 -0.00441,-1.56916 z m 4.9274664,-2.53189 c 0,-0.14552 -0.174808,-0.0335 -0.388461,0.24901 -0.213653,0.28248 -0.38846,0.63265 -0.38846,0.77818 0,0.14552 0.174807,0.0335 0.38846,-0.24901 0.213653,-0.28248 0.388461,-0.63266 0.388461,-0.77818 z m -0.975359,-5.671064 c 0.858546,-0.799086 0.914201,-1.056975 0.216768,-1.004439 -0.28096,0.02116 -0.460865,0.119336 -0.399788,0.21816 0.06108,0.09882 -0.07273,0.332207 -0.297359,0.518629 -0.224624,0.186421 -0.532848,0.571467 -0.684942,0.855658 -0.340734,0.636668 0.07479,0.427 1.165321,-0.588008 z m -2.43843,-0.800083 c -0.309403,-0.195688 -0.229083,-0.310609 0.396875,-0.567841 0.431632,-0.177375 0.871829,-0.304024 0.978216,-0.281443 0.453448,0.09625 1.079876,-1.417179 1.244358,-3.00632 0.162855,-1.573431 0.138256,-1.701822 -0.29945,-1.562899 -0.293576,0.09318 -0.479142,0.01738 -0.482764,-0.197203 -0.0032,-0.191707 -0.245597,-0.0509 -0.538581,0.312899 -1.776676,2.206125 -2.5022614,5.570643 -1.197376,5.552199 0.157647,-0.0022 0.112072,-0.114455 -0.101278,-0.249392 z M 9.6213294,94.340886 c 0.3147236,-0.78339 0.5722246,-1.811673 0.5722246,-2.285074 0,-0.758816 -0.101814,-0.881435 -0.8598957,-1.035612 C 8.5582164,90.862492 7.4780356,90.684289 6.9524084,90.627352 6.8432678,90.615529 6.753971,90.43429 6.753971,90.224596 c 0,-0.209693 -0.1176988,-0.454001 -0.2615527,-0.542908 -0.1460594,-0.09027 -0.1965103,0.0078 -0.1142541,0.222206 0.081014,0.211119 0.025319,0.459241 -0.1237669,0.551381 -0.3533998,0.218414 -0.072191,0.944331 0.3658189,0.944331 0.1863384,0 0.6719737,0.803672 1.0791895,1.785938 0.4072159,0.982265 0.8519099,1.934765 0.988209,2.116666 0.154919,0.206751 0.1530198,0.33073 -0.00507,0.33073 -0.1390856,0 -0.2528829,0.184263 -0.2528829,0.409474 0,0.681704 0.5493215,-0.10265 1.1916641,-1.701528 z M 14.08485,93.188629 c -0.06329,-0.329119 -0.117469,-0.122148 -0.120406,0.459936 -0.0029,0.582083 0.04884,0.851362 0.115067,0.598397 0.06622,-0.252965 0.06863,-0.729215 0.0053,-1.058333 z m -2.965254,-2.764191 c 0,-0.436525 0.152363,-0.977696 0.338584,-1.202602 0.427762,-0.516624 0.145161,-2.584729 -0.353197,-2.584729 -0.831903,0 -2.0477013,2.409144 -1.4948163,2.962029 0.1525988,0.152599 0.2144869,0.441538 0.1375291,0.642086 -0.083105,0.216568 0.03273,0.364635 0.2852592,0.364635 0.23385,0 0.425182,0.188515 0.425182,0.418923 0,0.230408 0.148829,0.368167 0.33073,0.306132 0.181901,-0.06204 0.330729,-0.469949 0.330729,-0.906474 z M 8.3414709,88.995719 c 0,-0.39097 -0.2575533,-0.904121 -0.5953125,-1.186106 C 7.4187365,87.536259 7.299674,87.482087 7.4815751,87.689231 7.9452784,88.217284 7.895181,88.622765 7.4154292,88.224607 7.197148,88.043449 7.0185543,87.721293 7.0185543,87.508703 c 0,-0.576037 -0.6488344,-0.253824 -0.7410402,0.368003 -0.04377,0.295181 0.1736183,0.965834 0.4830851,1.490341 0.4951587,0.839232 0.6237483,0.915504 1.0717693,0.63571 0.2907158,-0.181555 0.5091024,-0.613538 0.5091024,-1.007038 z M 9.6703764,86.703253 C 10.327934,85.869096 10.285938,84.81138 9.5151263,82.793037 8.9867324,81.409457 8.9019579,81.469394 8.0358773,83.83889 c -0.6176509,1.68982 -0.6122132,1.858098 0.090767,2.80893 0.7118531,0.962833 0.8252283,0.966904 1.5437317,0.05543 z"
       id="path9986" />
    <path
       style="fill:#141728;stroke-width:1.41077"
       d="m 8.6442772,80.971447 c 0.3544402,-0.388822 0.5261082,-0.419218 0.9260416,-0.163969 0.4759652,0.303774 0.4757942,0.308549 -0.00561,0.1565 -0.273106,-0.08626 -0.6898247,-0.01247 -0.9260416,0.163969 -0.3849031,0.287503 -0.3843205,0.271257 0.00561,-0.1565 z"
       id="path9643" />
    <path
       style="fill:#141728;stroke-width:1.41077"
       d="m 7.3950787,84.487512 c -0.1167637,-0.188927 -0.071041,-0.37758 0.1057975,-0.436526 0.3853276,-0.128443 0.4158577,-1.118046 0.034493,-1.118046 -0.1523144,0 -0.063018,-0.285819 0.1984375,-0.635154 0.6881458,-0.919445 0.9352161,-0.256429 0.4400363,1.180841 -0.4805861,1.394911 -0.5136853,1.437791 -0.7787643,1.008885 z"
       id="path9640" />
    <path
       style="fill:#141728;stroke-width:1.41077"
       d="m 10.133046,85.857228 c 0.09432,-0.656119 -0.2110146,-2.316296 -0.5986547,-3.255017 -0.1069431,-0.258977 -0.075107,-0.463021 0.072243,-0.463021 0.1448948,0 0.3470359,0.445578 0.4492027,0.990173 0.245984,1.311208 0.450302,1.598767 0.693929,0.97664 0.166211,-0.424438 0.203514,-0.435376 0.218942,-0.0642 0.01023,0.246074 -0.100466,0.520991 -0.245987,0.610928 -0.436312,0.269655 -0.315813,1.455208 0.147906,1.455208 0.22687,0 0.343588,0.111486 0.259374,0.247747 -0.08421,0.136261 -0.364824,0.2318 -0.623577,0.212309 -0.347147,-0.02615 -0.445014,-0.212451 -0.373378,-0.710767 z"
       id="path9636" />
    <path
       style="fill:#141728;stroke-width:1.41077"
       d="m 5.4623585,87.679184 c -0.017217,-0.372742 0.2240068,-0.951758 0.5360534,-1.2867 0.3120467,-0.334943 0.6096862,-0.972533 0.6614212,-1.416867 0.051735,-0.444334 0.1678998,-0.87735 0.258144,-0.962258 0.1596854,-0.150242 0.029776,1.298573 -0.1878122,2.094581 -0.059667,0.218281 -0.2870793,0.468239 -0.5053606,0.555462 -0.2182812,0.08722 -0.472085,0.503942 -0.5640083,0.926042 -0.1609651,0.73913 -0.1682887,0.742442 -0.1984375,0.08974 z"
       id="path9632" />
    <path
       style="fill:#141728;stroke-width:1.41077"
       d="m 12.310696,88.753773 c -0.05358,-0.509323 -0.08169,-1.223698 -0.06248,-1.5875 l 0.03493,-0.661458 -0.394377,0.661458 -0.394377,0.661459 0.176198,-0.661459 c 0.228441,-0.857584 0.325976,-0.94865 0.659174,-0.615453 0.151421,0.151421 0.230992,0.91739 0.176825,1.702153 -0.07874,1.140726 -0.118019,1.241148 -0.195897,0.5008 z"
       id="path9630" />
    <path
       style="fill:#141728;stroke-width:1.41077"
       d="m 11.308647,89.349086 c 0.221846,-0.254662 0.469025,-0.641615 0.549286,-0.859896 0.112107,-0.304894 0.150769,-0.285184 0.166816,0.08505 0.01149,0.265055 -0.149201,0.652009 -0.357088,0.859895 -0.540018,0.540018 -0.84135,0.468638 -0.359014,-0.08504 z"
       id="path9629" />
    <path
       style="fill:#141728;stroke-width:1.41077"
       d="M 9.3116097,89.900305 C 9.037414,89.626105 9.1036831,88.513331 9.4305841,87.90251 9.6785399,87.439201 9.65862,87.376455 9.3064768,87.511585 9.075768,87.600116 8.5559014,87.499841 8.1512177,87.288751 7.7465341,87.07766 7.5999761,86.904217 7.8255334,86.90332 c 0.2255573,-8.96e-4 0.5479331,0.136199 0.7163906,0.304657 0.2319932,0.231993 0.4052732,0.224134 0.714375,-0.0324 0.3205935,-0.266069 0.4080885,-0.268065 0.4080885,-0.0093 0,0.24963 0.1096012,0.241459 0.4526835,-0.03375 0.312085,-0.250343 0.270997,-0.10391 -0.1322916,0.471468 -0.651949,0.930147 -0.7447529,1.67792 -0.2674753,2.155198 0.1900448,0.190045 0.2077469,0.3175 0.044097,0.3175 -0.1503715,0 -0.3527777,-0.07937 -0.4497916,-0.176389 z"
       id="path9626" />
    <path
       style="fill:#141728;stroke-width:1.41077"
       d="m 6.753971,89.985405 c 0,-0.195727 -0.2539485,-0.58268 -0.56433,-0.859895 C 5.6289729,88.624752 5.6265778,88.625548 5.8205311,89.248098 5.9661444,89.715487 5.9246554,89.84438 5.6572569,89.755339 5.127299,89.578869 5.0474906,88.709102 5.5361624,88.435627 5.7693946,88.305104 5.960221,87.962367 5.960221,87.673989 c 0,-0.615385 0.7041062,-0.967776 1.1142312,-0.557651 0.2034939,0.203494 0.1328028,0.245135 -0.2473739,0.145716 -0.415017,-0.108529 -0.5616867,0.0146 -0.6657366,0.558906 -0.073398,0.383956 0.011113,0.842666 0.1878021,1.019355 0.5493911,0.549391 0.979681,1.500958 0.6787195,1.500958 -0.1506408,0 -0.2738923,-0.16014 -0.2738923,-0.355868 z"
       id="path9625" />
    <path
       style="fill:#141728;stroke-width:1.41077"
       d="m 14.223688,93.516273 c 0,-0.509323 0.05445,-0.717682 0.121,-0.463021 0.06655,0.254662 0.06655,0.67138 0,0.926042 -0.06655,0.254661 -0.121,0.0463 -0.121,-0.463021 z"
       id="path9616" />
    <path
       style="fill:#141728;stroke-width:1.41077"
       d="M 7.4662307,95.079693 C 7.3721592,94.704882 6.8162294,93.854089 6.2308313,93.189041 4.9769944,91.764607 4.7602546,90.481816 5.7617835,90.412945 c 0.5400172,-0.03713 0.553363,-0.0097 0.1436819,0.295264 -0.4257853,0.316962 -0.4257853,0.362325 0,0.792681 0.4258588,0.43043 0.4252088,0.446498 -0.01139,0.281582 -0.6994598,-0.264207 -0.5569037,0.101467 0.3307291,0.848361 0.4365625,0.367343 0.79375,0.835906 0.79375,1.041251 0,0.205346 0.1213308,0.373356 0.2696241,0.373356 0.2878275,0 0.1011221,-1.105943 -0.3276612,-1.94089 -0.1371807,-0.267125 -0.1970997,-0.538001 -0.1331532,-0.601948 0.1169483,-0.116948 1.5214063,2.949875 1.5056922,3.287882 -0.00463,0.09955 -0.1832218,-0.05012 -0.396875,-0.332593 -0.2136531,-0.282475 -0.3884603,-0.381702 -0.3884603,-0.220506 0,0.161197 0.3274219,0.547714 0.7276041,0.858926 0.5091769,0.395975 0.5552984,0.482662 0.1536357,0.288765 -0.4245781,-0.204959 -0.6023025,-0.192073 -0.6828296,0.04951 -0.059874,0.179621 -0.1858288,0.01992 -0.2799004,-0.354891 z"
       id="path9613" />
    <path
       style="fill:#141728;stroke-width:1.41077"
       d="M 4.9154246,96.1874 C 4.7537687,95.885343 4.4762316,95.666787 4.2986755,95.701719 4.1211193,95.736651 4.0207556,95.586638 4.0756451,95.368356 4.2094713,94.836163 4.1989871,94.630484 3.9711226,93.317836 3.80292,92.348879 3.8399705,92.193356 4.2390103,92.193356 c 0.3848977,0 0.4065781,0.06809 0.1284043,0.403269 -0.1840759,0.221798 -0.2581857,0.479767 -0.1646885,0.573264 0.093497,0.0935 0.169995,0.01125 0.169995,-0.182783 0,-0.194027 0.085761,-0.267016 0.1905803,-0.162197 0.1048192,0.104819 0.1560943,0.59086 0.1139446,1.08009 -0.04215,0.489231 0.1189934,1.267815 0.3580957,1.730188 0.2391023,0.462373 0.3760675,0.899342 0.304367,0.971043 -0.0717,0.0717 -0.2626283,-0.116773 -0.4242841,-0.41883 z"
       id="path9610" />
    <path
       style="fill:#141728;stroke-width:1.41077"
       d="m 9.8073816,96.029815 c 0.098104,-0.943457 0.06054,-1.209079 -0.1309568,-0.926042 -0.376644,0.556688 -0.3417764,0.285487 0.1481613,-1.152401 0.2336299,-0.685667 0.3766129,-1.659268 0.3177399,-2.16356 -0.06362,-0.544958 -0.01022,-0.820068 0.13165,-0.6782 0.257332,0.257332 0.137076,2.467612 -0.181324,3.332703 -0.1071192,0.291041 0.0551,0.07898 0.360481,-0.471238 0.305384,-0.550223 0.494785,-1.098229 0.420891,-1.217792 -0.07389,-0.119563 0.03664,-0.443287 0.245632,-0.719387 0.208992,-0.2761 0.383772,-0.710359 0.3884,-0.965021 0.0047,-0.256095 0.209428,-0.46302 0.458206,-0.46302 0.349838,0 0.379236,0.07055 0.132292,0.3175 -0.461257,0.461257 -0.388925,0.747201 0.145521,0.575279 0.377491,-0.121433 0.392043,-0.09869 0.07878,0.123137 -0.211333,0.149646 -0.47325,0.217074 -0.582037,0.14984 -0.108787,-0.06723 -0.327021,0.119216 -0.484963,0.414333 -0.169857,0.317382 -0.18384,0.536577 -0.03423,0.536577 0.139116,0 -0.03529,0.542081 -0.387566,1.204625 -0.352278,0.662544 -0.642329,1.525747 -0.644557,1.918229 -0.0022,0.392483 -0.120069,0.892198 -0.2618671,1.110479 C 9.7499747,97.229344 9.712588,96.94144 9.8073816,96.029815 Z"
       id="path9607" />
    <path
       style="fill:#141728;stroke-width:1.41077"
       d="m 12.281031,97.418877 c 0.318333,-0.411067 0.288133,-0.465365 -0.269143,-0.483909 -0.612671,-0.02039 -0.610772,-0.02709 0.07931,-0.279769 0.803924,-0.294365 1.27736,-1.368547 1.27736,-2.89821 0,-1.51231 0.464778,-1.491421 0.569787,0.02561 0.10368,1.497826 0.02237,1.920504 -0.327802,1.704085 -0.133092,-0.08226 -0.241985,-0.03339 -0.241985,0.108594 0,0.141982 0.0893,0.308089 0.198437,0.369126 0.109141,0.06104 0.04961,0.0747 -0.132291,0.03035 -0.291288,-0.07101 -0.436983,0.214919 -0.372563,0.73116 0.01146,0.09181 -0.240282,0.38947 -0.55942,0.661458 -0.489989,0.417597 -0.524474,0.422498 -0.221686,0.0315 z"
       id="path9604" />
    <path
       style="fill:#141728;stroke-width:1.41077"
       d="m 15.07296,97.418877 c 0.191008,-0.880952 -0.189754,-0.944239 -0.795917,-0.132292 -0.247618,0.331682 -0.380587,0.404544 -0.300262,0.164533 0.07929,-0.236929 0.0106,-0.564351 -0.152653,-0.727604 -0.219377,-0.219377 -0.04547,-0.296824 0.666519,-0.296824 1.153803,0 1.293728,0.185291 0.799218,1.058333 L 14.9152,98.146481 Z"
       id="path9602" />
    <path
       style="fill:#141728;stroke-width:1.41077"
       d="m 2.260106,98.09595 c -0.00223,-0.318833 0.115011,-0.653282 0.2605318,-0.743219 0.336864,-0.208193 0.336864,0.404782 0,0.926042 -0.2085143,0.322653 -0.257238,0.288462 -0.2605318,-0.182823 z"
       id="path9599" />
    <path
       style="fill:#141728;stroke-width:1.41077"
       d="M 9.3033525,98.164047 C 9.0653593,97.800824 8.8758996,97.291092 8.882331,97.031311 c 0.00709,-0.286555 0.2227477,-0.07227 0.5482965,0.544825 0.6130565,1.162075 0.5226271,1.579787 -0.127275,0.587911 z"
       id="path9595" />
    <path
       style="fill:#141728;stroke-width:1.41077"
       d="m 15.749804,98.675648 c 0,-0.703351 0.06252,-1.216296 0.138941,-1.139879 0.208215,0.208216 0.237857,2.0419 0.03627,2.243492 -0.09636,0.09636 -0.175206,-0.400263 -0.175206,-1.103613 z"
       id="path9587" />
    <path
       style="fill:#141728;stroke-width:1.41077"
       d="m 2.2556069,102.61495 c -0.4912851,-1.34182 -0.5143448,-1.42576 -0.3916742,-1.42576 0.1950058,0 0.9403697,1.9212 0.7998725,2.06169 -0.070599,0.0706 -0.2542884,-0.21557 -0.4081983,-0.63593 z"
       id="path9573" />
    <path
       style="fill:#141728;stroke-width:1.41077"
       d="m 9.6643875,104.03928 c 0,-0.51398 1.1663125,-3.83976 1.4501145,-4.135051 0.189725,-0.197405 0.01633,0.610371 -0.385319,1.795061 -0.637919,1.88159 -1.0647955,2.81969 -1.0647955,2.33999 z"
       id="path9571" />
    <path
       style="fill:#141728;stroke-width:1.41077"
       d="m 12.890428,105.29023 c 0.04636,-0.14552 0.413906,-0.89139 0.816779,-1.65749 0.402873,-0.76611 0.910357,-2.01626 1.127743,-2.77813 l 0.395248,-1.385212 -0.157593,1.190622 c -0.08668,0.65485 -0.173872,1.39332 -0.193769,1.64105 -0.0199,0.24773 -0.09356,0.39303 -0.163709,0.32289 -0.218494,-0.2185 -1.079558,1.79341 -0.901296,2.1059 0.0928,0.16268 0.07212,0.20834 -0.04597,0.10146 -0.118083,-0.10688 -0.382776,0.0122 -0.588208,0.26459 -0.205431,0.2524 -0.335584,0.33984 -0.289228,0.19432 z"
       id="path9567" />
    <path
       style="fill:#141728;stroke-width:1.41077"
       d="m 13.903604,105.59566 c -0.0032,-0.12306 0.227553,-0.55157 0.512865,-0.95226 0.57178,-0.80299 1.235545,-2.61884 1.407723,-3.85109 l 0.110909,-0.793746 0.03964,0.849966 c 0.04654,0.9978 -0.802096,3.36484 -1.54501,4.30941 -0.286136,0.3638 -0.522894,0.56077 -0.52613,0.43772 z"
       id="path9566" />
    <path
       style="fill:#141728;stroke-width:1.41077"
       d="m 9.4941915,106.34519 c -0.084473,-0.22013 -0.019151,-0.56223 0.1451604,-0.76021 0.1643117,-0.19798 0.2259318,-0.58342 0.1369334,-0.85653 -0.1335381,-0.40978 -0.1119259,-0.4272 0.1236752,-0.0997 0.2493145,0.34659 0.2860035,0.34154 0.2895425,-0.0398 0.0022,-0.24017 0.470317,-1.4507 1.040197,-2.69007 0.56988,-1.23936 1.001533,-2.293017 0.959229,-2.341447 -0.0423,-0.04843 0.278442,-0.445243 0.712769,-0.881805 l 0.789687,-0.79375 -0.925124,1.719791 c -0.508819,0.945881 -1.248379,2.493701 -1.643467,3.439581 -0.395089,0.94589 -0.845925,2.01745 -1.001857,2.38125 -0.1559333,0.3638 -0.257697,0.81029 -0.226142,0.99219 0.080569,0.46445 -0.2154114,0.41309 -0.4006035,-0.0695 z"
       id="path9563" />
    <path
       style="fill:#141728;stroke-width:1.41077"
       d="M 7.5311147,105.9113 C 6.9175508,103.69104 5.6093821,100.25395 5.0289549,99.337106 3.7613846,97.334846 2.023546,96.244864 1.970583,97.418877 c -0.01313,0.29106 -0.071552,0.336888 -0.1573055,0.123396 -0.07503,-0.186794 0.00848,-0.514216 0.1855766,-0.727604 0.3930766,-0.473629 1.312381,-0.513384 1.3238482,-0.05725 0.00983,0.390848 1.3146021,1.40277 1.3146021,1.019542 0,-0.144063 -0.2468694,-0.434846 -0.5485986,-0.646186 -0.638816,-0.447444 -0.3563346,-0.735818 0.4163069,-0.424991 0.2910417,0.117084 0.3733118,0.221248 0.1828226,0.231476 -0.1904892,0.01023 -0.2715591,0.139601 -0.1801552,0.287495 0.091404,0.147895 0.2770243,0.200399 0.4124899,0.116677 0.1354656,-0.08372 0.246301,-0.03316 0.246301,0.112361 0,0.145521 -0.1190625,0.338168 -0.2645833,0.428105 -0.3998794,0.247139 -0.3170155,0.661458 0.1322917,0.661458 0.2182812,0 0.396875,0.119063 0.396875,0.264583 0,0.145521 0.1218072,0.264584 0.2706827,0.264584 0.153558,0 0.10834,-0.257593 -0.1045017,-0.595313 -0.242032,-0.384037 -0.2977467,-0.783113 -0.1569874,-1.124479 0.2076875,-0.503679 0.2190928,-0.504799 0.2367934,-0.02325 0.010228,0.278256 0.3265844,1.031462 0.7030143,1.673792 0.8398138,1.433037 2.2246155,5.733747 2.194747,6.816127 -0.01977,0.71641 -0.04577,0.69063 -0.2668596,-0.26459 -0.5453879,-2.35635 -1.5863767,-5.41856 -1.9736891,-5.805878 -0.698594,-0.698594 -0.9148419,-0.45667 -0.4345801,0.486188 0.2515821,0.4939 0.5651151,0.8327 0.6967399,0.75287 0.1316249,-0.0798 0.1487091,0.001 0.037965,0.18065 -0.1107441,0.17919 -0.019603,0.82266 0.202536,1.42994 0.6402404,1.75029 1.283435,4.19159 1.1416779,4.33335 -0.071287,0.0713 -0.2726516,-0.388 -0.447478,-1.02063 z"
       id="path9562" />
    <path
       style="fill:#141728;stroke-width:1.41077"
       d="m 12.2233,107.08343 c -0.07851,-0.12703 -0.03336,-0.40387 0.100327,-0.61521 0.181575,-0.28702 0.244099,-0.29661 0.247125,-0.0379 0.0022,0.19049 0.125057,0.27156 0.272951,0.18016 0.147895,-0.0914 0.205484,-0.2688 0.127976,-0.39421 -0.07751,-0.12541 -0.02815,-0.29772 0.109694,-0.38291 0.561465,-0.347 0.491591,0.3472 -0.08994,0.89352 -0.343965,0.32314 -0.689627,0.48359 -0.768137,0.35655 z"
       id="path9560" />
    <path
       style="fill:#141728;stroke-width:1.41077"
       d="m 6.0700817,107.45139 c -1.0235133,-0.57434 -1.8439516,-1.36287 -2.4550867,-2.3596 -0.334592,-0.5457 -0.4934623,-0.99218 -0.3530452,-0.99218 0.1404171,0 0.3239992,0.26269 0.4079601,0.58375 0.083961,0.32107 0.2355397,0.50088 0.3368418,0.39958 0.1013021,-0.10131 -0.01102,-0.63189 -0.2496045,-1.17907 -0.9574579,-2.19591 -1.1206629,-2.68058 -1.3595728,-4.037597 -0.089669,-0.509323 0.1768792,0.02646 0.5923297,1.190627 0.987076,2.76596 1.4195043,3.55564 2.5856367,4.72178 0.6884299,0.68843 0.8403892,0.96676 0.5278153,0.96676 -0.2414216,0 -0.3641633,0.121 -0.2727594,0.2689 0.091404,0.14789 0.2687973,0.20548 0.3942076,0.12797 0.1254104,-0.0775 0.3076995,-0.012 0.4050869,0.14558 0.2717785,0.43975 0.048626,0.50492 -0.5598095,0.1635 z m -0.8798563,-1.19073 c -0.3086167,-0.57666 -1.0820876,-1.25838 -1.0820876,-0.95373 0,0.21188 1.0625164,1.43851 1.2460545,1.43851 0.052514,0 -0.021271,-0.21815 -0.1639669,-0.48478 z"
       id="path9557" />
    <path
       style="fill:#141728;stroke-width:1.41077"
       d="m 15.601936,108.18749 c 0.568801,-0.42497 1.052853,-0.51317 0.829064,-0.15107 -0.07908,0.12795 -0.413529,0.30063 -0.743219,0.38371 -0.578317,0.14575 -0.581341,0.13755 -0.08584,-0.23264 z"
       id="path9555" />
    <path
       style="fill:#141728;stroke-width:1.41077"
       d="m 10.277595,108.46523 c 0.03296,-0.32502 0.282279,-0.56178 0.646266,-0.61371 0.325935,-0.0465 0.59261,-0.19533 0.59261,-0.33073 0,-0.1354 0.119062,-0.24618 0.264583,-0.24618 0.611142,0 0.201393,0.55503 -0.515614,0.69843 -0.429108,0.0858 -0.83899,0.35074 -0.910849,0.5887 -0.08713,0.28854 -0.11278,0.25639 -0.077,-0.0965 z"
       id="path9554" />
    <path
       style="fill:#141728;stroke-width:1.41077"
       d="m 2.8712651,108.84232 c -0.1564049,-0.15641 -0.7457643,-0.44884 -1.3096874,-0.64985 -0.59490056,-0.21205 -0.80317728,-0.36993 -0.4961481,-0.3761 0.5112544,-0.0103 2.2489582,0.89696 2.2489582,1.17414 0,0.20802 -0.1305787,0.16435 -0.4431227,-0.14819 z"
       id="path9553" />
    <path
       style="fill:#141728;stroke-width:1.41077"
       d="m 1.9253254,109.23994 c -0.4001823,-0.21711 -0.7276042,-0.45046 -0.7276042,-0.51858 0,-0.27703 0.5070097,-0.0935 1.0951676,0.39653 0.7444863,0.62022 0.6242796,0.66013 -0.3675634,0.12205 z"
       id="path9549" />
    <path
       style="fill:#141728;stroke-width:1.41077"
       d="m -0.74255643,109.47947 c -0.24900586,-0.24901 -0.21942027,-1.08871 0.0440972,-1.25157 0.12126735,-0.075 0.2204861,0.21568 0.2204861,0.64584 0,0.85187 -0.005605,0.8647 -0.2645833,0.60573 z"
       id="path9548" />
    <path
       style="fill:#141728;stroke-width:1.41077"
       d="m 4.5573248,110.36604 c -0.9826461,-1.02144 -0.7764373,-1.15421 0.3422021,-0.22033 0.489804,0.4089 0.7800064,0.79917 0.6448943,0.86725 -0.1351122,0.0681 -0.5793056,-0.22303 -0.9870964,-0.64692 z"
       id="path9540" />
    <path
       style="fill:#141728;stroke-width:1.41077"
       d="m -0.12519535,111.37565 c -0.1536637,-0.40417 -0.21985729,-0.79438 -0.14709688,-0.86714 0.0727604,-0.0728 0.2580165,0.19839 0.4116802,0.60255 0.15366369,0.40417 0.21985728,0.79438 0.14709687,0.86714 -0.0727604,0.0728 -0.2580165,-0.19839 -0.41168019,-0.60255 z"
       id="path9533" />
    <path
       style="fill:#141728;stroke-width:1.41077"
       d="m 4.7529514,111.70638 -0.7771053,-0.8599 0.8598958,0.77711 c 0.4729427,0.4274 0.8598958,0.81436 0.8598958,0.85989 0,0.20441 -0.2183152,0.0244 -0.9426863,-0.7771 z"
       id="path9530" />
    <path
       style="fill:#141728;stroke-width:1.41077"
       d="m 17.426634,112.45053 c 0.08027,-0.20918 0.279427,-0.87604 0.442572,-1.48192 0.163145,-0.60587 0.360464,-1.03775 0.438486,-0.95973 0.161853,0.16186 -0.674903,2.82198 -0.887668,2.82198 -0.07663,0 -0.07366,-0.17115 0.0066,-0.38033 z"
       id="path9527" />
    <path
       style="fill:#141728;stroke-width:1.41077"
       d="m 8.475328,113.09797 c -0.2227157,-0.36036 -0.099304,-3.96141 0.140848,-4.10983 0.1066735,-0.0659 0.2498983,0.1728 0.3182774,0.5305 0.075488,0.39489 0.019916,0.58584 -0.1414707,0.4861 -0.1729893,-0.10692 -0.2164738,0.45018 -0.1245383,1.5955 0.1411653,1.75863 0.1112959,1.99028 -0.1931164,1.49773 z"
       id="path9525" />
    <path
       style="fill:#141728;stroke-width:1.41077"
       d="m 7.0394424,113.41353 c -0.011489,-0.18885 -0.324426,-0.62467 -0.6954167,-0.96849 -0.3709907,-0.34382 -0.5586887,-0.69673 -0.4171068,-0.78423 0.3330208,-0.20582 1.4390064,1.34029 1.2655782,1.76921 -0.1005153,0.2486 -0.1371688,0.24465 -0.1530547,-0.0165 z"
       id="path9524" />
    <path
       style="fill:#141728;stroke-width:1.41077"
       d="m 8.5178597,114.77113 c -0.2410998,-0.2411 -0.2236877,-1.14652 0.022049,-1.14652 0.1091406,0 0.1984374,0.29765 0.1984374,0.66145 0,0.36381 -0.00992,0.66146 -0.022049,0.66146 -0.012127,0 -0.1014236,-0.0794 -0.1984374,-0.17639 z"
       id="path9510" />
    <path
       style="fill:#141728;stroke-width:1.41077"
       d="m 10.47115,115.83939 c -0.0072,-0.16432 0.296863,-0.97561 0.675599,-1.80288 0.724284,-1.58205 0.712482,-2.37137 -0.01444,-0.96566 -0.232749,0.45009 -0.487271,0.81834 -0.565606,0.81834 -0.07833,0 0.121063,-0.46882 0.443105,-1.04181 0.719517,-1.28021 2.895164,-3.80163 3.101905,-3.59489 0.08302,0.083 -0.109753,0.33356 -0.428395,0.55675 -0.318642,0.22318 -0.579349,0.53268 -0.579349,0.68777 0,0.17851 0.145621,0.16112 0.396875,-0.0474 0.218281,-0.18116 0.396875,-0.23682 0.396875,-0.12369 0,0.11314 0.26789,-0.0211 0.595312,-0.29833 l 0.595313,-0.50403 -0.498382,0.58908 c -0.27411,0.32399 -0.601436,0.52538 -0.727392,0.44753 -0.125955,-0.0778 -0.478991,0.28215 -0.784523,0.79999 -0.305533,0.51784 -0.59275,0.94153 -0.63826,0.94153 -0.148106,0 0.0116,-0.6516 0.25939,-1.05833 0.205436,-0.33721 0.177262,-0.34459 -0.1874,-0.0491 -0.236053,0.19129 -0.382463,0.59041 -0.325357,0.88694 0.05711,0.29653 -0.30254,1.33065 -0.799214,2.29804 -0.496675,0.96739 -0.9089,1.62446 -0.916058,1.46014 z"
       id="path9503" />
    <path
       style="fill:#141728;stroke-width:1.41077"
       d="m 9.5026054,112.69856 c 4.628e-4,-1.89177 0.042606,-2.63096 0.093651,-1.64264 0.051045,0.98832 0.050667,2.53613 -8.416e-4,3.43958 -0.051508,0.90346 -0.093273,0.0948 -0.092809,-1.79694 z"
       id="path9502" />
    <path
       style="fill:#141728;stroke-width:1.41077"
       d="m 14.579075,115.17686 c 1.628498,-1.72206 2.011697,-2.33069 2.61228,-4.14908 0.255445,-0.77341 0.510133,-1.36052 0.565973,-1.30468 0.05584,0.0558 -0.148635,0.88499 -0.454391,1.84256 -0.568746,1.7812 -2.299391,4.12801 -3.49463,4.73882 -0.314624,0.16078 0.03222,-0.34665 0.770768,-1.12762 z"
       id="path9499" />
    <path
       style="fill:#141728;stroke-width:1.41077"
       d="m 3.9648682,116.06777 c -0.4426003,-0.39785 -1.0767827,-1.11173 -1.4092942,-1.58638 -0.3325115,-0.47465 -0.7222806,-0.79026 -0.8661536,-0.70134 -0.157992,0.0977 -0.097589,0.34289 0.1525235,0.61926 0.2277608,0.25167 0.4114632,0.56727 0.4082274,0.70134 -0.00324,0.13406 -0.2329771,-0.0518 -0.5105363,-0.41305 -0.3743001,-0.48714 -0.4303509,-0.74632 -0.2169969,-1.0034 0.2081498,-0.25081 0.2030005,-0.43126 -0.01863,-0.65289 -0.1684576,-0.16846 -0.3062866,-0.52763 -0.3062866,-0.79815 0,-0.27053 -0.1190625,-0.41828 -0.26458328,-0.32835 -0.14930459,0.0923 -0.26458332,-0.12324 -0.26458332,-0.49465 0,-0.362 -0.14882811,-0.81834 -0.33072915,-1.0141 -0.18190103,-0.19576 -0.36839177,-0.53169 -0.41442387,-0.7465 -0.1609543,-0.75112 0.62088402,0.33227 1.15017522,1.5938 0.7046971,1.67959 1.5861934,3.05072 2.8260482,4.3958 1.2174673,1.3208 1.2427843,1.48712 0.065243,0.42861 z"
       id="path9495" />
    <path
       style="fill:#141728;stroke-width:1.41077"
       d="m 8.0266714,116.9319 c -0.059461,-0.50933 -0.012956,-0.92604 0.1033447,-0.92604 0.1163001,0 0.2114548,0.41671 0.2114548,0.92604 0,0.50932 -0.046505,0.92604 -0.1033447,0.92604 -0.05684,0 -0.1519942,-0.41672 -0.2114548,-0.92604 z"
       id="path9487" />
    <path
       style="fill:#141728;stroke-width:1.41077"
       d="m 12.452614,118.13887 c -0.08764,-0.1418 -0.334121,-0.19075 -0.547742,-0.10878 -0.213621,0.082 -0.388401,0.0798 -0.388401,-0.005 0,-0.25595 1.525369,-0.96114 2.079008,-0.96114 0.520434,0 2.948075,-2.45651 2.948075,-2.98313 0,-0.15404 0.07252,-0.20755 0.161155,-0.11891 0.220815,0.22081 -0.851558,1.75228 -1.852295,2.64528 -1.465271,1.30752 -2.234719,1.79854 -2.3998,1.53144 z"
       id="path9482" />
    <path
       style="fill:#141728;stroke-width:1.41077"
       d="m 3.6475351,116.93748 c -1.0822126,-1.01643 -1.3512622,-1.38817 -0.9284598,-1.28282 0.3274219,0.0816 0.5953125,0.29228 0.5953125,0.46822 0,0.4715 1.1477982,1.46713 1.8464718,1.60169 0.7927147,0.15266 0.9155557,0.29675 0.4163156,0.48833 -0.2607165,0.10004 -0.9508174,-0.35609 -1.9296401,-1.27542 z"
       id="path9481" />
    <path
       style="fill:#141728;stroke-width:1.41077"
       d="m -5.1842707,119.10701 c 0.1276612,-0.12766 0.5740376,-0.18946 0.9919476,-0.13734 0.6994572,0.0872 0.6810129,0.10568 -0.2321113,0.23211 -0.5687838,0.0787 -0.8929292,0.0383 -0.7598363,-0.0948 z"
       id="path9478" />
    <path
       style="fill:#141728;stroke-width:1.41077"
       d="m 18.946852,120.13454 c 0.260303,-0.24708 2.184653,-0.35265 2.837635,-0.15567 0.533639,0.16097 0.253386,0.22054 -1.117843,0.23758 -1.006519,0.0125 -1.780425,-0.0243 -1.719792,-0.0819 z"
       id="path9473" />
    <path
       style="fill:#141728;stroke-width:1.41077"
       d="m 8.3414709,120.14451 c 0,-0.21474 -0.1488281,-0.45049 -0.3307292,-0.52389 -0.2078098,-0.0839 -0.2198505,-0.14122 -0.032397,-0.15434 0.4589014,-0.0321 0.9748808,0.69059 0.640557,0.89721 -0.1525871,0.0943 -0.277431,-0.004 -0.2774308,-0.21898 z"
       id="path9470" />
    <path
       style="fill:#141728;stroke-width:1.41077"
       d="m 23.092937,120.10921 c 0.06979,-0.36507 0.232071,-0.66377 0.360627,-0.66377 0.3616,0 0.275971,0.69391 -0.126888,1.02825 -0.291891,0.24225 -0.336442,0.17278 -0.233739,-0.36448 z"
       id="path9469" />
    <path
       style="fill:#141728;stroke-width:1.41077"
       d="m -2.5729397,120.38556 c -2.0098521,-0.36394 -2.8060829,-0.79287 -0.9819057,-0.52895 1.5068973,0.21802 3.16506673,0.63171 3.16506673,0.78965 0,0.14181 0.11649818,0.15572 -2.18316103,-0.2607 z"
       id="path9468" />
    <path
       style="fill:#141728;stroke-width:1.41077"
       d="m 1.7268879,120.76835 c -0.6548437,-0.43531 -1.07156246,-0.79148 -0.92604164,-0.79148 0.14552083,0 0.80036454,0.35617 1.45520824,0.79148 0.6548437,0.43532 1.0715625,0.79149 0.9260416,0.79149 -0.1455208,0 -0.8003645,-0.35617 -1.4552082,-0.79149 z"
       id="path9460" />
    <path
       style="fill:#141728;stroke-width:1.41077"
       d="m 20.755126,121.73053 c 0.352346,-0.43386 1.344677,-1.08988 1.344677,-0.88895 0,0.0505 -0.386953,0.37512 -0.859895,0.72134 -0.532105,0.38954 -0.716903,0.45343 -0.484782,0.16761 z"
       id="path9453" />
    <path
       style="fill:#141728;stroke-width:1.41077"
       d="m 4.0920888,123.26256 c -0.1899843,-0.22892 -0.7998754,-0.64806 -1.3553135,-0.93142 -0.5554381,-0.28336 -1.0098874,-0.57474 -1.0098874,-0.6475 0,-0.26071 1.9945727,0.89177 2.4884028,1.43781 0.2772154,0.30653 0.4406221,0.55732 0.363126,0.55732 -0.077496,0 -0.2963437,-0.18729 -0.4863279,-0.41621 z"
       id="path9443" />
    <path
       style="fill:#141728;stroke-width:1.41077"
       d="m -3.9714845,122.81888 c -0.4194443,-0.636 -0.5420777,-0.96045 -0.2822971,-0.74688 0.4361873,0.3586 1.3479009,1.87135 1.1278321,1.87135 -0.05716,0 -0.4376505,-0.50601 -0.845535,-1.12447 z"
       id="path9439" />
    <path
       style="fill:#141728;stroke-width:1.41077"
       d="m 5.2987627,123.46948 c -1.469027,-1.36215 -2.0856851,-2.24036 -0.79375,-1.13042 0.9378928,0.80578 2.1664188,2.15172 1.9374326,2.12261 -0.046942,-0.006 -0.5615993,-0.45245 -1.1436826,-0.99219 z"
       id="path9434" />
    <path
       style="fill:#141728;stroke-width:1.41077"
       d="m 18.924804,123.88026 c 0.800364,-0.81018 1.500368,-1.34913 1.555563,-1.19766 0.0552,0.15146 -0.109939,0.39307 -0.366965,0.53691 -0.257027,0.14384 -0.957031,0.68279 -1.555564,1.19767 -0.730358,0.62828 -0.609677,0.4517 0.366966,-0.53692 z"
       id="path9430" />
    <path
       style="fill:#141728;stroke-width:1.41077"
       d="m 6.3045769,125.44586 c -0.097752,-0.15817 -0.023167,-0.17585 0.1888933,-0.0448 0.2544422,0.15725 0.3041498,0.096 0.1814759,-0.22371 -0.2272138,-0.59211 -0.00414,-0.56088 0.3200081,0.0448 0.197744,0.36949 0.1656667,0.48507 -0.1346213,0.48507 -0.2168225,0 -0.4669126,-0.11761 -0.555756,-0.26136 z"
       id="path9428" />
    <path
       style="fill:#141728;stroke-width:1.41077"
       d="m -1.7815447,125.38786 c -0.3986953,-0.3697 -0.7249005,-0.74916 -0.7249005,-0.84326 0,-0.0941 0.3571875,0.17113 0.7937499,0.58938 0.72936637,0.69878 0.90726769,0.92604 0.72490057,0.92604 -0.0378672,0 -0.39505467,-0.30247 -0.79374997,-0.67216 z"
       id="path9427" />
    <path
       style="fill:#141728;stroke-width:1.41077"
       d="m 9.3998041,124.7371 c -0.1893023,-2.83953 0.03892,-5.09303 0.5291667,-5.22506 0.2852952,-0.0768 0.3062312,-0.0425 0.074466,0.12217 -0.2180259,0.15489 -0.3465203,1.33928 -0.3968771,3.65816 -0.063219,2.91119 -0.094447,3.1294 -0.2067558,1.44473 z"
       id="path9420" />
    <path
       style="fill:#141728;stroke-width:1.41077"
       d="m 8.4381048,124.07565 c 6.889e-4,-1.45521 0.04512,-2.01677 0.098736,-1.24791 0.053616,0.76887 0.053052,1.95949 -0.00125,2.64584 -0.054305,0.68634 -0.098172,0.0573 -0.097483,-1.39793 z"
       id="path9419" />
    <path
       style="fill:#141728;stroke-width:1.41077"
       d="m 16.788112,127.30879 c 0.592781,-0.66502 0.602815,-0.71991 0.132292,-0.72365 -0.412246,-0.003 -0.436016,-0.0503 -0.1249,-0.24713 0.211334,-0.13369 0.491218,-0.17696 0.621965,-0.0961 0.130748,0.0808 1.019887,-0.61166 1.975865,-1.53881 l 1.738141,-1.68574 -1.232786,1.45521 c -1.268092,1.49689 -2.296461,2.51022 -3.222844,3.17572 -0.397681,0.28569 -0.369786,0.20134 0.112267,-0.33945 z"
       id="path9414" />
    <path
       style="fill:#141728;stroke-width:1.41077"
       d="m 10.618179,128.17669 c 0.09629,-0.3638 0.45736,-1.25032 0.802373,-1.97004 0.690673,-1.44079 0.441292,-2.37573 -0.267888,-1.00432 -0.224862,0.43483 -0.348921,0.85052 -0.275688,0.92375 0.07323,0.0732 -0.05058,0.20366 -0.275136,0.28983 -0.6230524,0.23908 -0.500411,-0.13205 0.606779,-1.83622 1.802937,-2.77506 4.103592,-4.54203 6.828334,-5.24437 1.782296,-0.45942 4.592017,-0.5641 4.592017,-0.1711 0,0.13637 -0.410744,0.18129 -0.912765,0.0998 -1.195598,-0.19402 -4.232276,0.37815 -5.569526,1.04941 -1.309896,0.65752 -2.839914,1.80422 -2.654603,1.98953 0.07586,0.0759 -0.12926,0.27113 -0.455819,0.43394 -0.32656,0.1628 -0.58193,0.41156 -0.567489,0.55278 0.01444,0.14122 -0.152577,0.38754 -0.371151,0.54736 -0.218574,0.15983 -0.316463,0.42156 -0.217533,0.58163 0.110304,0.17848 0.60968,-0.17524 1.291136,-0.91453 0.611194,-0.66307 1.611689,-1.54988 2.223323,-1.9707 1.766173,-1.21516 1.686969,-0.88699 -0.09969,0.41307 -1.75815,1.27931 -2.863508,2.70473 -4.07379,5.25337 -0.427876,0.90103 -0.699172,1.34058 -0.60288,0.97678 z"
       id="path9405" />
    <path
       style="fill:#141728;stroke-width:1.41077"
       d="m 14.412631,128.66243 c -0.318569,-0.2257 -0.310195,-0.24809 0.05003,-0.13379 0.237956,0.0755 0.704188,-0.0529 1.036072,-0.28536 0.331884,-0.23246 0.517515,-0.28365 0.412514,-0.11376 -0.343172,0.55527 -1.091475,0.82137 -1.498613,0.53291 z"
       id="path9402" />
    <path
       style="fill:#141728;stroke-width:1.41077"
       d="m 1.7734136,128.39841 c -0.4837337,-0.30971 -0.7629938,-0.63513 -0.6205779,-0.72315 0.5286034,-0.32669 0.4127682,-0.53613 -0.81501025,-1.47361 -0.69122392,-0.52779 -1.25971332,-1.04346 -1.26330978,-1.14594 -0.003596,-0.10247 -0.57061047,-0.80694 -1.26003117,-1.56549 -0.6894207,-0.75855 -1.4773029,-1.77058 -1.7508492,-2.24896 -0.5871081,-1.02674 -0.3623157,-0.81099 1.0234975,0.9823 2.16175885,2.7974 4.3072964,4.65619 6.4918383,5.62421 0.6080716,0.26945 0.6162902,0.29455 0.1018272,0.31101 -0.3077971,0.01 -0.862358,-0.22022 -1.2323575,-0.51126 C 1.641396,127.0127 1.550499,126.9997 1.550499,127.51909 c 0,0.22362 0.3526117,0.49211 0.7978018,0.60747 0.438791,0.1137 0.8455878,0.35009 0.903993,0.5253 0.1621288,0.48639 -0.5007864,0.37278 -1.4788802,-0.25345 z"
       id="path9401" />
    <path
       style="fill:#141728;stroke-width:1.41077"
       d="m 5.8920701,129.25782 c -1.057714,-0.67807 -1.2528861,-0.95294 -0.3287241,-0.46295 1.1085291,0.58773 1.634715,0.96399 1.3229166,0.94598 -0.1455208,-0.008 -0.5929075,-0.22577 -0.9941925,-0.48303 z"
       id="path9395" />
    <path
       style="fill:#141728;stroke-width:1.41077"
       d="m 12.034214,130.05012 c 0.197993,-0.36996 0.182562,-0.53796 -0.05684,-0.61881 -0.180739,-0.061 0.0881,-0.31594 0.597426,-0.56644 0.908263,-0.44671 0.914384,-0.44606 0.31881,0.0336 -0.333978,0.26899 -0.535443,0.56086 -0.447701,0.6486 0.210842,0.21084 1.213076,-0.0562 1.071382,-0.28546 -0.06044,-0.0978 0.119493,-0.17781 0.399851,-0.17781 0.280358,0 0.509741,0.0238 0.509741,0.053 0,0.0739 -2.423263,1.42113 -2.556175,1.42113 -0.05955,0 0.01402,-0.22852 0.163502,-0.50782 z"
       id="path9387" />
    <path
       style="fill:#141728;stroke-width:1.41077"
       d="m 19.45397,130.78512 c 0,-0.12498 0.674688,-0.22723 1.499306,-0.22723 0.824618,0 1.446059,0.0532 1.380981,0.11832 -0.231845,0.23185 -2.880287,0.33199 -2.880287,0.10891 z"
       id="path9384" />
    <path
       style="fill:#141728;stroke-width:1.41077"
       d="m -2.5064452,130.82252 c -0.6450103,-0.20657 -0.6417207,-0.21203 0.1322916,-0.21961 0.4365625,-0.004 1.031875,0.0945 1.3229166,0.21961 0.48103156,0.20671 0.46899779,0.22668 -0.1322916,0.21961 -0.3638021,-0.004 -0.9591146,-0.1031 -1.3229166,-0.21961 z"
       id="path9383" />
    <path
       style="fill:#141728;stroke-width:1.41077"
       d="m 19.586262,131.60014 c 0.779344,-0.18235 6.338928,-0.29323 5.820833,-0.11609 -0.145521,0.0498 -1.693333,0.13801 -3.439583,0.19613 -1.74625,0.0581 -2.817813,0.0221 -2.38125,-0.08 z"
       id="path9376" />
    <path
       style="fill:#141728;stroke-width:1.41077"
       d="m 30.037303,132.4359 c 0,-0.13128 -0.376494,-0.36994 -0.836654,-0.53036 -0.46016,-0.16041 -0.768881,-0.35943 -0.686046,-0.44226 0.207705,-0.20771 1.787283,0.63502 1.787283,0.95354 0,0.14178 -0.05953,0.25778 -0.132291,0.25778 -0.07276,0 -0.132292,-0.10741 -0.132292,-0.2387 z"
       id="path9367" />
    <path
       style="fill:#141728;stroke-width:1.41077"
       d="m -11.581755,132.32456 c 0.505738,-0.8183 4.8863575,-2.05936 7.0733823,-2.00394 0.6397645,0.0162 0.033549,0.16939 -1.4954982,0.37789 -1.71748,0.23419 -3.0950269,0.60194 -4.1482431,1.10744 -0.867273,0.41625 -1.510611,0.64963 -1.429641,0.51861 z"
       id="path9366" />
    <path
       style="fill:#141728;stroke-width:1.41077"
       d="m 0.63613453,132.51597 c -1.41638493,-0.7493 -4.39513013,-0.99404 -7.17606323,-0.58959 -1.4180513,0.20624 -2.4896138,0.28884 -2.3812499,0.18355 0.3783466,-0.36761 4.7078387,-0.80523 6.2824417,-0.63502 1.97568334,0.21356 3.48762038,0.64708 3.8719969,1.11022 0.3454752,0.41628 0.3134594,0.41257 -0.59712547,-0.0692 z"
       id="path9363" />
    <path
       style="fill:#141728;stroke-width:1.41077"
       d="m 1.4623046,132.10726 c -1.09140623,-0.55635 -1.87480844,-1.01349 -1.74089383,-1.01586 0.44980792,-0.008 3.85756033,1.65899 3.85756033,1.88696 0,0.12397 -0.029766,0.2063 -0.066146,0.18294 -0.03638,-0.0234 -0.9591145,-0.49768 -2.0505205,-1.05404 z"
       id="path9359" />
    <path
       style="fill:#141728;stroke-width:1.41077"
       d="m 25.403346,135.04984 c -0.09519,-0.15403 -0.430946,-0.2095 -0.746122,-0.12329 -0.567958,0.15536 -0.568348,0.15294 -0.04388,-0.27321 0.291042,-0.23648 0.767292,-0.54687 1.058333,-0.68975 0.488811,-0.23998 0.493856,-0.23123 0.06615,0.1147 -1.233187,0.99741 0.03422,0.9398 1.895535,-0.0862 0.787883,-0.43428 1.475833,-0.74628 1.528778,-0.69334 0.05294,0.0529 -0.732183,0.5316 -1.744727,1.06368 -1.170246,0.61495 -1.904046,0.86538 -2.014064,0.68737 z"
       id="path9343" />
    <path
       style="fill:#141728;stroke-width:1.41077"
       d="m -7.8642574,135.56701 c -0.5457031,-0.28809 -0.9921875,-0.57793 -0.9921875,-0.6441 0,-0.18934 1.4130275,0.45729 1.8426338,0.84323 0.5214648,0.46846 0.3285838,0.4233 -0.8504463,-0.19913 z"
       id="path9335" />
    <path
       style="fill:#141728;stroke-width:1.41077"
       d="m 9.4866246,134.65898 c 0.00117,-1.01865 0.048996,-1.40294 0.1062719,-0.854 0.057276,0.54895 0.056316,1.38239 -0.00213,1.85209 -0.05845,0.46969 -0.1053116,0.0206 -0.1041378,-0.99809 z"
       id="path9330" />
    <path
       style="fill:#141728;stroke-width:1.41077"
       d="m 22.076129,136.8587 c -0.303893,-0.216 -0.2932,-0.2399 0.05758,-0.12869 0.236929,0.0751 0.562367,0.005 0.723195,-0.15584 0.160828,-0.16083 0.348515,-0.23631 0.417083,-0.16774 0.287722,0.28772 -0.833671,0.71112 -1.197857,0.45227 z"
       id="path9321" />
    <path
       style="fill:#141728;stroke-width:1.41077"
       d="m -0.91894531,137.99523 c -2.67061389,-1.10951 -8.46666619,-4.1187 -8.46666619,-4.39572 0,-0.0483 1.9374988,0.88465 4.3055529,2.0733 2.3680541,1.18864 4.77906965,2.35809 5.35781224,2.59878 0.5787426,0.24068 0.93319676,0.43772 0.78767596,0.43787 -0.14552084,1.4e-4 -1.03848955,-0.32126 -1.98437491,-0.71423 z"
       id="path9307" />
    <path
       style="fill:#141728;stroke-width:1.41077"
       d="m 8.1769447,136.11419 c 0,-1.67349 0.04296,-2.3581 0.095467,-1.52136 0.052507,0.83675 0.052507,2.20597 0,3.04271 -0.052507,0.83675 -0.095467,0.15214 -0.095467,-1.52135 z"
       id="path9305" />
    <path
       style="fill:#141728;stroke-width:1.41077"
       d="m 18.21718,139.0993 c 0.07559,-0.12231 0.856021,-0.56583 1.734291,-0.9856 0.878269,-0.41978 1.536159,-0.86144 1.461976,-0.98147 -0.07418,-0.12002 0.05504,-0.14536 0.287151,-0.0563 0.232115,0.0891 0.387127,0.19281 0.344471,0.23053 -0.300485,0.26574 -3.936622,1.96876 -3.827889,1.79282 z"
       id="path9301" />
    <path
       style="fill:#141728;stroke-width:1.41077"
       d="m 10.73406,138.4573 c 0.318715,-0.63368 0.772388,-1.37125 1.008163,-1.63906 0.395734,-0.44949 0.394265,-0.51208 -0.01911,-0.81435 -0.401887,-0.29387 -0.306585,-0.46468 0.929554,-1.6661 1.480976,-1.43937 3.092684,-2.53463 4.155475,-2.8239 0.516389,-0.14055 0.470663,-0.0739 -0.208492,0.30407 -1.149585,0.63972 -0.81731,0.91539 0.530261,0.43994 1.779718,-0.62792 1.774416,-0.39665 -0.0076,0.33229 -2.123235,0.86851 -4.123088,2.68748 -5.45083,4.95782 -1.182926,2.02271 -1.7970036,2.61838 -0.937399,0.90929 z m 2.717963,-4.27384 c -0.0748,-0.12103 -0.3595,-0.0178 -0.632664,0.22941 -0.273163,0.24721 -0.437994,0.5444 -0.366292,0.66041 0.0717,0.11602 0.0094,0.28573 -0.13853,0.37713 -0.147895,0.0914 -0.265697,0.30799 -0.261782,0.4813 0.0039,0.17332 0.350952,-0.0996 0.771195,-0.60654 0.420242,-0.50691 0.702875,-1.02068 0.628073,-1.14171 z m 2.033197,-1.31658 c 0,-0.12274 0.148829,-0.13913 0.33073,-0.0364 0.241979,0.13661 0.253851,0.10298 0.04424,-0.12535 -0.305175,-0.33243 -1.254397,-0.11824 -1.03674,0.23394 0.07092,0.11475 -0.172759,0.28436 -0.541507,0.37691 -0.368748,0.0926 -0.597855,0.28573 -0.509127,0.4293 0.177051,0.28647 1.712401,-0.50108 1.712401,-0.87837 z"
       id="path9296" />
    <path
       style="fill:#141728;stroke-width:1.41077"
       d="m 16.014387,140.02646 c 0.332264,-0.35363 1.852083,-0.98953 1.852083,-0.77492 0,0.13229 -0.208359,0.30043 -0.46302,0.37366 -0.254662,0.0732 -0.701146,0.22514 -0.992188,0.33759 -0.291042,0.11246 -0.469635,0.14111 -0.396875,0.0637 z"
       id="path9291" />
    <path
       style="fill:#141728;stroke-width:1.41077"
       d="m 14.691471,140.47981 c 0.363802,-0.20797 0.78052,-0.37812 0.926041,-0.37812 0.145521,0 -0.03307,0.17015 -0.396875,0.37812 -0.363802,0.20797 -0.780521,0.37813 -0.926041,0.37813 -0.145521,0 0.03307,-0.17016 0.396875,-0.37813 z"
       id="path9283" />
    <path
       style="fill:#141728;stroke-width:1.41077"
       d="m 11.397408,140.65784 c 0.138245,-0.12037 1.144323,-0.50732 2.235729,-0.8599 1.091406,-0.35257 3.793601,-1.56378 6.004878,-2.69157 4.040645,-2.06079 5.702806,-2.74311 2.990955,-1.22779 -3.018517,1.68667 -5.733012,3.04328 -7.011458,3.50406 -0.727604,0.26225 -1.561041,0.57681 -1.852083,0.69904 -0.649393,0.27271 -2.274507,0.79501 -2.473649,0.79501 -0.08015,0 -0.03262,-0.0985 0.105628,-0.21885 z"
       id="path9282" />
    <path
       style="fill:#141728;stroke-width:1.41077"
       d="m 2.1227458,140.38621 c -2.96678956,-1.20144 -6.2327008,-2.75671 -6.0895069,-2.8999 0.059253,-0.0592 0.9180797,0.27375 1.9085035,0.74002 0.9904238,0.46626 2.15795807,1.01492 2.59452054,1.21924 0.43656248,0.20432 1.68671866,0.72281 2.77812486,1.15219 1.0914062,0.42939 1.8057812,0.77451 1.5874999,0.76694 -0.2182812,-0.008 -1.4688951,-0.44789 -2.7791419,-0.97849 z"
       id="path9277" />
    <path
       style="fill:#141728;stroke-width:1.41077"
       d="m 6.357096,142.06041 c -0.5820833,-0.35851 -0.9392708,-0.65185 -0.79375,-0.65185 0.1455208,0 0.7408333,0.29334 1.3229166,0.65185 0.5820833,0.35852 0.9392708,0.65185 0.79375,0.65185 -0.1455209,0 -0.7408333,-0.29333 -1.3229166,-0.65185 z"
       id="path9261" />
    <path
       style="fill:#141728;stroke-width:1.41077"
       d="M 9.3979507,143.09464 C 9.5817,142.80041 10.2526,142.28352 10.888839,141.946 c 0.636239,-0.33752 1.157149,-0.68643 1.157577,-0.77535 4.28e-4,-0.0889 0.442287,-0.17165 0.981907,-0.18385 0.890507,-0.0201 0.920983,9.6e-4 0.329951,0.2283 -2.022506,0.77798 -2.830144,1.18274 -3.5230797,1.76565 -0.6455934,0.54308 -0.7168711,0.56165 -0.4372436,0.11389 z"
       id="path9253" />
  </g>
</svg>
