<?xml version="1.0" encoding="UTF-8" standalone="no"?>
<!-- Created with Inkscape (http://www.inkscape.org/) -->

<svg
   width="64.41539mm"
   height="58.992348mm"
   viewBox="0 0 64.41539 58.992348"
   version="1.1"
   id="svg1"
   xmlns="http://www.w3.org/2000/svg"
   xmlns:svg="http://www.w3.org/2000/svg">
  <defs
     id="defs1" />
  <g
     id="layer1"
     transform="translate(-55.297918,-112.44792)">
    <g
       id="g3106"
       transform="translate(30.272321,119.02197)">
      <path
         style="fill:#d7e4f1"
         d="m 25.664588,51.700456 c 2.924416,-1.387673 10.961148,-3.54597 14.409163,-3.86964 0.749753,-0.07038 0.676473,-0.162742 -1.719792,-2.167612 -1.376602,-1.151755 -3.66009,-2.848256 -5.074416,-3.770003 -3.468583,-2.260548 -3.306743,-2.668827 0.984002,-2.482375 3.588275,0.155927 8.449454,2.450912 11.872556,5.605089 1.083567,0.998441 2.089736,1.815347 2.23593,1.815347 0.280671,0 -2.558443,-4.966401 -5.733544,-10.029567 -1.040958,-1.65996 -1.89265,-3.237538 -1.89265,-3.505729 0,-1.103343 2.211063,-0.347703 5.020974,1.715937 3.210276,2.357675 6.28279,6.215152 7.807042,9.80158 0.670149,1.5768 0.820986,1.753195 1.499175,1.753195 0.885666,0 0.865518,0.223051 0.353459,-3.913052 -0.859746,-6.944512 -2.416398,-13.814031 -3.130296,-13.814031 -0.184049,0 -0.953171,-0.652584 -1.709161,-1.450187 -1.277683,-1.348012 -1.656736,-1.989231 -1.176089,-1.989512 0.10914,-6.4e-5 0.203138,-0.875678 0.208883,-1.945808 0.01001,-1.864992 0.517716,-3.345743 1.147151,-3.345743 0.655538,0 2.079665,1.363884 2.669134,2.556225 0.369152,0.746697 0.897189,1.422981 1.173415,1.502853 0.447285,0.129334 0.483869,0.320892 0.334398,1.750948 -0.09231,0.883149 -0.337032,1.871948 -0.543832,2.197329 -0.332659,0.523409 -0.302961,0.866092 0.257632,2.972853 0.831662,3.125468 1.878771,8.547703 2.341831,12.126692 0.203966,1.576452 0.446721,2.942149 0.539455,3.034883 0.09273,0.09273 0.132441,-5.612443 0.08824,-12.678172 l -0.08037,-12.846779 -0.848539,-0.966145 c -0.822254,-0.936218 -1.665003,-3.11058 -1.665003,-4.295844 0,-1.940481 0.782396,-3.066588 1.473723,-2.121141 0.297597,0.406988 0.361451,0.307495 0.524282,-0.816907 0.213341,-1.473187 0.50678,-1.941795 1.21594,-1.941795 0.577608,0 1.019388,0.947715 1.019388,2.186808 0,0.645122 0.07056,0.758887 0.3175,0.511942 0.174625,-0.174625 0.525871,-0.3175 0.780546,-0.3175 0.37812,0 0.4776,0.27903 0.542396,1.521355 0.09146,1.75348 -0.745485,4.259548 -1.793167,5.369307 l -0.63531,0.672954 0.256276,3.957255 c 0.140952,2.17649 0.274377,7.648192 0.296499,12.159337 0.02791,5.691974 0.105414,7.635285 0.253243,6.35 0.685926,-5.963707 2.062267,-11.78349 3.801265,-16.073437 l 1.15297,-2.844271 h -0.848039 c -1.839604,0 -2.209504,-1.457198 -0.58482,-2.303865 l 0.826266,-0.43059 -0.793443,-0.214998 c -2.019949,-0.547344 -1.807307,-2.606797 0.269156,-2.606797 0.868669,0 0.891999,-0.02823 0.852013,-1.030941 -0.04707,-1.18051 0.411047,-1.88129 1.226025,-1.875424 0.731386,0.0053 0.998978,0.209678 1.64975,1.260245 0.535637,0.864701 0.538845,0.865738 1.023022,0.330729 0.675902,-0.746864 1.075702,-0.676064 2.128741,0.376975 1.116165,1.116165 1.008239,1.528565 -0.633325,2.420012 -0.673212,0.365586 -1.005255,0.598247 -0.737872,0.517023 1.07259,-0.325823 2.556558,-0.464709 2.556558,-0.23927 0,0.131714 -0.35462,0.550654 -0.788045,0.930978 -0.633087,0.555524 -0.822033,0.980692 -0.960898,2.16221 -0.125507,1.067874 -0.34839,1.635622 -0.813714,2.072771 -0.592262,0.556401 -0.692974,0.572464 -1.32807,0.211812 -0.694794,-0.394552 -0.958946,-0.751313 -1.268455,-1.713161 -0.168238,-0.522827 -0.174813,-0.523005 -0.548828,-0.0148 -0.615635,0.836523 -1.93354,4.477625 -2.909203,8.037536 -0.839998,3.064907 -1.723326,8.236677 -2.064196,12.085592 l -0.140593,1.5875 0.372726,-1.63768 c 1.261602,-5.543199 4.505003,-11.2786 8.041094,-14.219302 2.016376,-1.676867 2.600037,-0.884779 1.600195,2.171628 -0.729676,2.230538 -4.248369,11.667239 -4.983396,13.364854 -0.47695,1.101561 -0.495925,1.287206 -0.145313,1.421748 0.221797,0.08511 0.436475,0.110275 0.477062,0.05592 0.04059,-0.05436 0.38185,-0.634613 0.758362,-1.289457 0.996569,-1.733267 3.447375,-4.331629 5.399637,-5.724734 3.103182,-2.214385 7.078984,-3.426598 9.206269,-2.80697 0.84792,0.24698 1.246627,0.858787 0.55966,0.858787 -0.747345,0 -3.133364,1.348948 -4.775753,2.699997 -1.537645,1.264885 -3.580925,3.431602 -5.362568,5.686528 l -0.864651,1.094341 0.73236,0.137337 c 0.402797,0.07553 1.327672,0.214853 2.055276,0.309595 2.227837,0.29009 8.8572,1.657504 11.434473,2.358547 2.054568,0.558862 5.797919,1.94897 5.366568,1.992896 -0.07276,0.0074 -14.955573,0.07261 -33.072915,0.144887 L 24.209379,52.390971 Z M 68.798965,22.370938 C 68.608512,22.015073 68.267743,21.652941 68.0417,21.5662 c -0.317494,-0.121834 -0.299704,-0.03474 0.07821,0.382842 0.269056,0.297304 0.396631,0.540553 0.283498,0.540553 -0.113133,0 -0.05509,0.181471 0.128988,0.403269 0.488256,0.588313 0.670155,0.232172 0.266573,-0.521926 z M 63.806347,20.21365 c -0.623251,-0.436542 -1.022502,-0.357332 -0.714099,0.141676 0.09592,0.155202 0.431991,0.282186 0.746824,0.282186 h 0.572423 z"
         id="path3102" />
      <path
         style="fill:#b5cadf"
         d="m 65.140419,17.409595 c -0.552914,-0.552914 -0.381438,-1.27 0.303694,-1.27 0.508811,0 0.625277,0.1436 0.643762,0.79375 0.0236,0.830187 -0.387083,1.036624 -0.947456,0.47625 z"
         id="path3073" />
      <path
         style="fill:#b5cadf"
         d="m 69.318734,18.51692 c -0.226776,-0.423737 -0.19734,-0.566847 0.143499,-0.697639 0.508276,-0.195044 1.322394,0.524154 1.064919,0.940758 -0.284763,0.460757 -0.897712,0.337439 -1.208418,-0.243119 z"
         id="path3072" />
      <path
         style="fill:#b5cadf"
         d="m 63.500002,19.050012 c -0.238467,-0.154109 -0.2711,-0.258097 -0.08176,-0.260532 0.173312,-0.0022 0.388698,0.115011 0.478635,0.260532 0.203016,0.328487 0.111422,0.328487 -0.396875,0 z"
         id="path3071" />
      <path
         style="fill:#b5cadf"
         d="m 66.813613,18.747143 c 0.1017,-0.562303 0.04661,-1.224126 -0.132149,-1.5875 l -0.30656,-0.623173 0.509868,0.632369 0.509868,0.632369 0.566222,-0.566223 c 0.311423,-0.311423 0.715051,-0.562602 0.896952,-0.558177 0.181902,0.0044 0.112489,0.134933 -0.154249,0.290018 -0.266738,0.155086 -0.84034,0.836074 -1.274671,1.513309 l -0.789691,1.231335 z"
         id="path3070" />
      <path
         style="fill:#b5cadf"
         d="m 61.878753,20.454431 c -0.246738,-0.304181 -0.257122,-0.383979 -0.0324,-0.248968 0.421794,0.253406 0.431226,-0.155371 0.01323,-0.573368 -0.246945,-0.246944 -0.243461,-0.390995 0.01568,-0.648229 0.26714,-0.265178 0.298238,-0.238958 0.156901,0.132292 -0.101465,0.266518 -0.05323,0.463021 0.113652,0.463021 0.15946,0 0.265293,0.297656 0.235184,0.661458 -0.06503,0.78569 -0.04519,0.777248 -0.502245,0.213794 z"
         id="path3068" />
      <path
         style="fill:#b5cadf"
         d="m 68.968058,22.313206 c -0.09701,-0.09701 -0.176389,-0.29942 -0.176389,-0.449791 0,-0.165789 0.123235,-0.150168 0.31309,0.03969 0.1722,0.1722 0.251575,0.374606 0.176389,0.449792 -0.07519,0.07519 -0.216077,0.05733 -0.31309,-0.03969 z"
         id="path3064" />
      <path
         style="fill:#b5cadf"
         d="m 62.346752,23.741968 c -0.679463,-0.499185 -0.459898,-1.25715 0.564058,-1.947194 0.541695,-0.365048 0.737779,-0.631294 0.527335,-0.716021 -0.18426,-0.07418 0.10444,-0.144281 0.641555,-0.15577 1.063228,-0.02274 1.584455,-0.486668 0.947354,-0.843207 -0.470117,-0.263091 -1.144223,-1.765371 -0.901207,-2.008387 0.09235,-0.09235 0.167905,0.01448 0.167905,0.237386 0,0.22291 0.246832,0.719087 0.548516,1.102615 0.408787,0.519689 0.704482,0.658179 1.160778,0.543656 0.445879,-0.111908 0.725758,0.0084 1.029902,0.442594 0.416357,0.594434 0.422524,0.594905 2.010226,0.153484 2.175594,-0.604869 2.345734,-0.564887 1.472922,0.346133 -0.445487,0.464988 -0.8732,0.702683 -1.041689,0.578904 -0.440267,-0.323439 -2.451921,-0.178494 -2.92055,0.210433 -0.348492,0.289223 -0.49753,0.274844 -0.896839,-0.08652 -0.26339,-0.238365 -0.655485,-0.43339 -0.871321,-0.43339 -0.474567,0 -1.631273,1.48388 -1.814861,2.328194 -0.117806,0.541783 -0.186144,0.56884 -0.624084,0.247095 z"
         id="path3062" />
      <path
         style="fill:#b5cadf"
         d="m 66.31799,24.21786 c -0.08197,-0.213621 -0.03518,-0.458773 0.103984,-0.544781 0.139166,-0.08601 0.253028,0.08877 0.253028,0.388401 0,0.638854 -0.147138,0.703304 -0.357012,0.15638 z"
         id="path3061" />
      <path
         style="fill:#b5cadf"
         d="m 67.521669,24.817929 c -0.174625,-0.174625 -0.314853,-0.62111 -0.311617,-0.992188 l 0.0059,-0.674687 0.5174,0.661458 c 0.786245,1.005156 0.61265,1.829733 -0.211666,1.005417 z"
         id="path3058" />
      <path
         style="fill:#b5cadf"
         d="m 25.664588,51.700456 c 2.924416,-1.387673 10.961148,-3.54597 14.409163,-3.86964 0.749753,-0.07038 0.676473,-0.162742 -1.719792,-2.167612 -1.376602,-1.151755 -3.66009,-2.848256 -5.074416,-3.770003 -3.468583,-2.260548 -3.306743,-2.668827 0.984002,-2.482375 3.588275,0.155927 8.449454,2.450912 11.872556,5.605089 1.083567,0.998441 2.089736,1.815347 2.23593,1.815347 0.280671,0 -2.558443,-4.966401 -5.733544,-10.029567 -1.040958,-1.65996 -1.89265,-3.237538 -1.89265,-3.505729 0,-1.103343 2.211063,-0.347703 5.020974,1.715937 3.210276,2.357675 6.28279,6.215152 7.807042,9.80158 0.670149,1.5768 0.820986,1.753195 1.499175,1.753195 0.885666,0 0.865518,0.223051 0.353459,-3.913052 -0.873052,-7.051989 -2.415542,-13.814031 -3.151119,-13.814031 -0.195501,0 -0.791042,-0.506015 -1.323425,-1.124479 -0.532383,-0.618464 -1.149685,-1.320784 -1.371782,-1.560712 -0.30009,-0.324183 -0.3232,-0.486056 -0.08997,-0.630199 0.209991,-0.129781 0.258879,-0.594971 0.147741,-1.40581 -0.216412,-1.578901 0.456345,-3.745466 1.163035,-3.745466 1.048092,0 3.174037,2.557007 3.174037,3.817613 0,0.234696 0.153647,0.340152 0.372972,0.255989 0.806276,-0.309397 0.817415,2.459135 0.01499,3.725828 -0.284342,0.448858 -0.236908,0.918151 0.294756,2.916194 0.831662,3.125468 1.878771,8.547703 2.341831,12.126692 0.203966,1.576452 0.446721,2.942149 0.539455,3.034883 0.09273,0.09273 0.132441,-5.612443 0.08824,-12.678172 l -0.08037,-12.846779 -0.845463,-0.962642 c -0.465004,-0.529453 -0.970356,-1.412381 -1.123003,-1.962062 -0.361021,-1.300029 -0.368595,-3.334058 -0.01159,-3.113419 0.147894,0.0914 0.19974,0.27809 0.115213,0.414858 -0.08453,0.136768 -0.07345,0.50146 0.02461,0.810426 0.14063,0.443085 0.228079,0.484505 0.413953,0.19607 0.198101,-0.307406 0.277181,-0.302436 0.49619,0.03119 0.143293,0.218282 0.262355,0.301262 0.264584,0.184401 0.0022,-0.116861 -0.293605,-0.650516 -0.657407,-1.185898 -0.738461,-1.086743 -0.874978,-2.173503 -0.273033,-2.173503 0.213633,0 0.566054,0.327422 0.783156,0.727605 0.386156,0.711795 0.394962,0.691877 0.405325,-0.916733 0.009,-1.397681 0.0946,-1.689296 0.570628,-1.944058 0.800876,-0.428616 1.260851,0.133625 1.351045,1.651424 0.06804,1.145058 0.105764,1.204204 0.526462,0.825507 0.565775,-0.509289 1.351326,-0.252947 1.17233,0.382556 -0.395754,1.405071 -0.475948,2.240732 -0.198581,2.06931 0.77829,-0.48101 -0.475423,3.073649 -1.444307,4.095051 l -0.638352,0.672954 0.256276,3.957255 c 0.140952,2.17649 0.274377,7.648192 0.296499,12.159337 0.02791,5.691974 0.105414,7.635285 0.253243,6.35 0.685473,-5.959771 2.062217,-11.783356 3.797982,-16.065356 1.069573,-2.638553 1.114953,-2.847214 0.651236,-2.994392 -0.274148,-0.08701 -0.498451,-0.273431 -0.498451,-0.414265 0,-0.151647 0.227325,-0.134402 0.557479,0.04229 0.478575,0.256125 0.68454,0.1752 1.455208,-0.57176 1.095072,-1.061386 1.114113,-0.915657 0.134215,1.027173 -1.935614,3.837713 -3.724459,10.477318 -4.527238,16.803616 -0.603393,4.755049 -0.631925,5.525274 -0.11783,3.180847 1.194321,-5.446455 4.482828,-11.271477 8.027484,-14.219302 2.016376,-1.676867 2.600037,-0.884779 1.600195,2.171628 -0.729676,2.230538 -4.248369,11.667239 -4.983396,13.364854 -0.47695,1.101561 -0.495925,1.287206 -0.145313,1.421748 0.221797,0.08511 0.436475,0.110275 0.477062,0.05592 0.04059,-0.05436 0.38185,-0.634613 0.758362,-1.289457 0.996569,-1.733267 3.447375,-4.331629 5.399637,-5.724734 3.103182,-2.214385 7.078984,-3.426598 9.206269,-2.80697 0.84792,0.24698 1.246627,0.858787 0.55966,0.858787 -0.747345,0 -3.133364,1.348948 -4.775753,2.699997 -1.537645,1.264885 -3.580925,3.431602 -5.362568,5.686528 l -0.864651,1.094341 0.73236,0.137337 c 0.402797,0.07553 1.327672,0.214853 2.055276,0.309595 2.227837,0.29009 8.8572,1.657504 11.434473,2.358547 2.054568,0.558862 5.797919,1.94897 5.366568,1.992896 -0.07276,0.0074 -14.955573,0.07261 -33.072915,0.144887 l -32.940628,0.13141 z M 59.976576,15.825403 c -0.08446,-0.211067 -0.147156,-0.148372 -0.159852,0.159852 -0.01149,0.278915 0.05105,0.435184 0.138964,0.347266 0.08792,-0.08792 0.09732,-0.316122 0.02089,-0.507118 z m -1.242895,-0.601798 c 0.167446,-0.440416 0.139068,-0.965078 -0.08761,-1.619829 -0.315059,-0.910026 -0.362298,-0.941402 -0.78338,-0.52032 -0.246457,0.246457 -0.449729,0.647959 -0.451716,0.892226 -0.002,0.244267 -0.08027,0.73063 -0.17397,1.080808 -0.101212,0.378267 -0.06777,0.573284 0.08239,0.480478 0.139011,-0.08591 0.425657,-0.04682 0.63699,0.08687 0.517448,0.32734 0.496591,0.338079 0.777296,-0.40023 z"
         id="path3057" />
      <path
         style="fill:#cfc3ad"
         d="m 59.266669,14.318461 c 0,-0.551332 0.340647,-1.089282 0.689766,-1.089282 0.554392,0 0.442797,0.735405 -0.160599,1.058333 -0.313893,0.16799 -0.529167,0.180581 -0.529167,0.03095 z"
         id="path3020" />
      <path
         style="fill:#cfc3ad"
         d="m 56.396151,14.891229 c -0.155135,-0.289871 -0.17178,-0.654911 -0.03962,-0.868757 0.171332,-0.27722 0.273205,-0.18848 0.410189,0.357307 0.222177,0.885221 -0.0037,1.196963 -0.370573,0.51145 z"
         id="path3019" />
      <path
         style="fill:#cfc3ad"
         d="m 68.659377,21.208176 -1.058333,-0.0908 1.5875,-0.500405 c 1.897339,-0.598072 2.276888,-0.550951 1.272049,0.157922 -0.519843,0.366729 -1.060632,0.496814 -1.801216,0.433279 z"
         id="path3009" />
      <path
         style="fill:#cfc3ad"
         d="m 65.483327,21.260123 c -0.404574,-0.404575 -0.398043,-0.473402 0.09136,-0.962805 0.857041,-0.85704 2.128742,0.08128 1.362103,1.005022 -0.425412,0.51259 -0.912812,0.498433 -1.453462,-0.04222 z"
         id="path3006" />
      <path
         style="fill:#cfc3ad"
         d="m 67.364768,24.452331 c -0.248371,-0.647245 -0.194521,-0.732766 0.236276,-0.375236 0.439837,0.365033 0.526579,0.79375 0.160599,0.79375 -0.129952,0 -0.308546,-0.188331 -0.396875,-0.418514 z"
         id="path3005" />
      <path
         style="fill:#cfc3ad"
         d="m 25.664588,51.700456 c 2.924416,-1.387673 10.961148,-3.54597 14.409163,-3.86964 0.749753,-0.07038 0.676473,-0.162742 -1.719792,-2.167612 -1.376602,-1.151755 -3.66009,-2.848256 -5.074416,-3.770003 -3.468583,-2.260548 -3.306743,-2.668827 0.984002,-2.482375 3.588275,0.155927 8.449454,2.450912 11.872556,5.605089 1.083567,0.998441 2.089736,1.815347 2.23593,1.815347 0.280671,0 -2.558443,-4.966401 -5.733544,-10.029567 -1.040958,-1.65996 -1.89265,-3.237538 -1.89265,-3.505729 0,-1.103343 2.211063,-0.347703 5.020974,1.715937 3.210276,2.357675 6.28279,6.215152 7.807042,9.80158 0.670149,1.5768 0.820986,1.753195 1.499175,1.753195 0.885666,0 0.865518,0.223051 0.353459,-3.913052 -0.859583,-6.943193 -2.416388,-13.814031 -3.130004,-13.814031 -0.183888,0 -0.718833,-0.396694 -1.188766,-0.881542 -1.079057,-1.113304 -0.927874,-1.699546 0.398358,-1.544716 0.932378,0.10885 0.950963,0.0935 0.768203,-0.634679 l -0.187291,-0.746227 0.543519,0.646811 0.543519,0.646811 0.498925,-0.636611 c 0.333854,-0.425987 0.649095,-0.578986 0.952813,-0.462438 0.374474,0.143699 0.420837,0.369804 0.264984,1.292292 -0.103898,0.614966 -0.341399,1.358844 -0.527781,1.653063 -0.284342,0.448858 -0.236908,0.918151 0.294756,2.916194 0.831662,3.125468 1.878771,8.547703 2.341831,12.126692 0.203966,1.576452 0.446721,2.942149 0.539455,3.034883 0.09273,0.09273 0.132441,-5.624467 0.08824,-12.704891 l -0.08037,-12.873498 -0.695276,-0.744718 c -0.813237,-0.871067 -1.289099,-1.729005 -1.289099,-2.324132 0,-0.336791 0.104857,-0.36746 0.511772,-0.149686 0.754757,0.403933 0.811144,0.359684 0.811144,-0.636534 0,-1.082226 0.274645,-1.304188 1.327582,-1.072924 0.689158,0.151364 0.77761,0.275465 0.721148,1.011792 -0.05976,0.779299 -0.0099,0.833442 0.697457,0.757744 0.613994,-0.0657 0.729506,0.0027 0.595313,0.352369 -0.09157,0.23864 -0.1665,0.539073 -0.1665,0.667628 0,0.128556 -0.355365,0.638476 -0.7897,1.133156 l -0.7897,0.899419 0.255084,3.938433 c 0.140296,2.166139 0.273184,7.629372 0.295306,12.140517 0.02791,5.691974 0.105414,7.635285 0.253243,6.35 0.674194,-5.861703 2.038851,-11.677236 3.745738,-15.962595 0.94553,-2.373873 2.171596,-4.25174 2.537245,-3.886091 0.05981,0.05981 -0.312057,1.097415 -0.826365,2.305796 -1.854193,4.356488 -3.102073,9.299067 -3.880596,15.370197 -0.608746,4.74716 -0.639243,5.533149 -0.123421,3.180847 1.194321,-5.446455 4.482828,-11.271477 8.027484,-14.219302 2.016376,-1.676867 2.600037,-0.884779 1.600195,2.171628 -0.729676,2.230538 -4.248369,11.667239 -4.983396,13.364854 -0.47695,1.101561 -0.495925,1.287206 -0.145313,1.421748 0.221797,0.08511 0.436475,0.110275 0.477062,0.05592 0.04059,-0.05436 0.38185,-0.634613 0.758362,-1.289457 0.996569,-1.733267 3.447375,-4.331629 5.399637,-5.724734 3.103182,-2.214385 7.078984,-3.426598 9.206269,-2.80697 0.84792,0.24698 1.246627,0.858787 0.55966,0.858787 -0.747345,0 -3.133364,1.348948 -4.775753,2.699997 -1.537645,1.264885 -3.580925,3.431602 -5.362568,5.686528 l -0.864651,1.094341 0.73236,0.137337 c 0.402797,0.07553 1.327672,0.214853 2.055276,0.309595 2.227837,0.29009 8.8572,1.657504 11.434473,2.358547 2.054568,0.558862 5.797919,1.94897 5.366568,1.992896 -0.07276,0.0074 -14.955573,0.07261 -33.072915,0.144887 l -32.940624,0.131415 z m 12.699999,-0.635861 c 0,-0.145521 -0.208359,-0.26276 -0.463021,-0.260532 -0.395697,0.0035 -0.405314,0.04134 -0.06615,0.260532 0.499325,0.322688 0.529167,0.322688 0.529167,0 z"
         id="path3004" />
      <path
         style="fill:#cabca5"
         d="m 59.266669,14.318461 c 0,-0.551332 0.340647,-1.089282 0.689766,-1.089282 0.554392,0 0.442797,0.735405 -0.160599,1.058333 -0.313893,0.16799 -0.529167,0.180581 -0.529167,0.03095 z"
         id="path2902" />
      <path
         style="fill:#cabca5"
         d="m 56.396151,14.891229 c -0.155135,-0.289871 -0.17178,-0.654911 -0.03962,-0.868757 0.171332,-0.27722 0.273205,-0.18848 0.410189,0.357307 0.222177,0.885221 -0.0037,1.196963 -0.370573,0.51145 z"
         id="path2901" />
      <path
         style="fill:#cabca5"
         d="m 68.659377,21.208175 -1.058333,-0.0908 1.5875,-0.500405 c 1.897339,-0.598072 2.276888,-0.550951 1.272049,0.157922 -0.519843,0.366729 -1.060632,0.496814 -1.801216,0.433279 z"
         id="path2894" />
      <path
         style="fill:#cabca5"
         d="m 65.471205,21.248001 c -0.420736,-0.420737 -0.412386,-0.476557 0.137963,-0.922202 0.969401,-0.784973 2.145785,0.184262 1.277501,1.052546 -0.438624,0.438624 -0.887864,0.397255 -1.415464,-0.130344 z"
         id="path2892" />
      <path
         style="fill:#cabca5"
         d="m 67.364768,24.452331 c -0.248371,-0.647245 -0.194521,-0.732766 0.236276,-0.375236 0.439837,0.365033 0.526579,0.79375 0.160599,0.79375 -0.129952,0 -0.308546,-0.188331 -0.396875,-0.418514 z"
         id="path2891" />
      <path
         style="fill:#cabca5"
         d="m 71.381046,48.977861 c -0.286698,-0.102675 -0.376402,-0.286825 -0.244043,-0.500987 0.167406,-0.270869 0.364019,-0.257946 0.982498,0.06458 0.425265,0.221768 0.713678,0.413058 0.640917,0.425089 -0.07276,0.01203 -0.310885,0.05603 -0.529166,0.09777 -0.218281,0.04174 -0.600874,0.0028 -0.850206,-0.08645 z"
         id="path2889" />
      <path
         style="fill:#cabca5"
         d="m 78.713543,49.212511 c -0.08994,-0.14552 0.02913,-0.264583 0.264583,-0.264583 0.235458,0 0.354521,0.119063 0.264584,0.264583 -0.08994,0.145521 -0.209,0.264584 -0.264584,0.264584 -0.05558,0 -0.174646,-0.119063 -0.264583,-0.264584 z"
         id="path2887" />
      <path
         style="fill:#cabca5"
         d="m 37.908168,48.947928 c 0.02192,-0.291042 0.06432,-0.529167 0.09421,-0.529167 0.02989,0 0.239619,0.0711 0.466063,0.15799 0.3533,0.135574 0.359051,0.210654 0.04054,0.529167 -0.504605,0.504605 -0.647883,0.466929 -0.60081,-0.15799 z"
         id="path2886" />
      <path
         style="fill:#cabca5"
         d="m 35.4447,50.049747 c 0.17431,-0.339886 0.38949,-0.54541 0.478179,-0.456722 0.08869,0.08869 -0.05393,0.366777 -0.316927,0.617974 -0.457135,0.436621 -0.464232,0.429524 -0.161252,-0.161252 z"
         id="path2874" />
      <path
         style="fill:#cabca5"
         d="m 34.260878,50.266528 c -0.0914,-0.147895 -0.277024,-0.200399 -0.41249,-0.116677 -0.3774,0.233246 -0.292534,-0.04043 0.118257,-0.381353 0.286438,-0.237723 0.394524,-0.187968 0.504397,0.232186 0.151011,0.57747 0.0564,0.69715 -0.210164,0.265844 z"
         id="path2873" />
      <path
         style="fill:#cabca5"
         d="m 79.896444,50.393825 c -0.459458,-0.553612 -0.07629,-0.849561 0.436288,-0.336979 0.247436,0.247435 0.310628,0.481067 0.155972,0.57665 -0.142997,0.08838 -0.409514,-0.01947 -0.59226,-0.239671 z"
         id="path2867" />
      <path
         style="fill:#cabca5"
         d="m 83.953271,50.64031 c 0.01892,-0.39861 0.160614,-0.521489 0.499225,-0.43294 0.260042,0.068 0.406384,0.231109 0.325205,0.362459 -0.08118,0.131351 -0.248264,0.176604 -0.371301,0.100563 -0.123036,-0.07604 -0.281268,0.01131 -0.351626,0.194122 -0.07036,0.182807 -0.116034,0.08192 -0.101503,-0.224204 z"
         id="path2861" />
      <path
         style="fill:#cabca5"
         d="m 82.285418,50.771534 c 0,-0.384657 0.473376,-0.498536 0.608508,-0.146387 0.07414,0.193192 -0.03245,0.351258 -0.236859,0.351258 -0.204407,0 -0.371649,-0.09219 -0.371649,-0.204871 z"
         id="path2860" />
      <path
         style="fill:#cabca5"
         d="m 77.522918,50.828694 c 0,-0.129745 0.302526,-0.311829 0.672279,-0.404631 0.923488,-0.231781 0.598809,-0.621963 -0.396046,-0.475949 -0.522113,0.07663 -0.805399,0.0046 -0.805399,-0.204713 0,-0.177607 -0.174781,-0.255851 -0.388402,-0.173877 -0.213621,0.08197 -0.461483,0.03079 -0.550805,-0.11373 -0.204147,-0.330318 1.635899,-0.246574 2.460561,0.111985 0.760891,0.330831 0.74972,0.541034 -0.05684,1.069511 -0.7432,0.486963 -0.935351,0.526284 -0.935351,0.191404 z"
         id="path2859" />
      <path
         style="fill:#cabca5"
         d="m 69.585419,50.652105 c 0,-0.22687 0.121004,-0.337705 0.268899,-0.246301 0.147894,0.0914 0.200399,0.277024 0.116677,0.41249 -0.226812,0.366988 -0.385576,0.298558 -0.385576,-0.166189 z"
         id="path2858" />
      <path
         style="fill:#cabca5"
         d="m 85.460418,50.888199 c 0,-0.194028 0.15875,-0.352778 0.352778,-0.352778 0.194027,0 0.352777,0.15875 0.352777,0.352778 0,0.194028 -0.15875,0.352778 -0.352777,0.352778 -0.194028,0 -0.352778,-0.15875 -0.352778,-0.352778 z"
         id="path2852" />
      <path
         style="fill:#cabca5"
         d="m 38.893754,51.196879 c 0,-0.218281 0.178593,-0.396875 0.396875,-0.396875 0.218281,0 0.396875,0.178594 0.396875,0.396875 0,0.218282 -0.178594,0.396875 -0.396875,0.396875 -0.218282,0 -0.396875,-0.178593 -0.396875,-0.396875 z"
         id="path2851" />
      <path
         style="fill:#cabca5"
         d="m 32.367365,51.208519 c 0,-0.21188 0.09922,-0.323916 0.220486,-0.248968 0.121267,0.07495 0.220486,0.248303 0.220486,0.385236 0,0.136933 -0.09922,0.248968 -0.220486,0.248968 -0.121267,0 -0.220486,-0.173356 -0.220486,-0.385236 z"
         id="path2850" />
      <path
         style="fill:#cabca5"
         d="m 86.778893,51.582131 c 0.8055,-0.116703 1.629263,-0.1056 1.852083,0.02496 0.258769,0.151627 -0.256542,0.226287 -1.450767,0.210191 l -1.852083,-0.02496 z"
         id="path2847" />
      <path
         style="fill:#cabca5"
         d="m 84.617058,51.677601 c 0.190997,-0.07643 0.4192,-0.06703 0.507118,0.02089 0.08792,0.08792 -0.06835,0.150453 -0.347265,0.138965 -0.308225,-0.0127 -0.370919,-0.07539 -0.159853,-0.159853 z"
         id="path2846" />
      <path
         style="fill:#cabca5"
         d="m 40.379088,51.72383 c 0.274472,-0.207802 0.618103,-0.379785 0.763624,-0.382185 0.145521,-0.0024 0.08599,0.111053 -0.132292,0.252117 -0.302682,0.195609 -0.199509,0.257442 0.434713,0.260532 0.517038,0.0025 0.892336,-0.154252 0.992188,-0.414463 0.233178,-0.607653 0.196898,-0.958066 -0.08139,-0.786077 -0.133092,0.08226 -0.292172,0.05952 -0.353511,-0.05053 -0.06134,-0.110047 -0.07671,-0.05507 -0.03415,0.12217 0.04256,0.177241 -0.03649,0.392627 -0.175655,0.478636 -0.139166,0.08601 -0.253028,0.02326 -0.253028,-0.139433 0,-0.162697 -0.105572,-0.230566 -0.234604,-0.15082 -0.129033,0.07975 -0.380648,-0.03098 -0.559146,-0.246055 -0.178498,-0.215077 -0.44851,-0.314432 -0.600026,-0.22079 -0.163577,0.101096 -0.195886,0.04146 -0.07953,-0.146795 0.107773,-0.174379 0.03687,-0.520197 -0.157557,-0.768484 -0.325731,-0.415961 -0.311929,-0.420247 0.175659,-0.05456 0.291042,0.218281 0.64823,0.538485 0.79375,0.711564 0.202113,0.240388 0.345135,0.224771 0.605745,-0.06615 0.187638,-0.209459 0.3067,-0.389944 0.264583,-0.401078 -0.04212,-0.01113 -0.282557,-0.05978 -0.53431,-0.108105 -0.251752,-0.04832 -0.634343,-0.264471 -0.850201,-0.48033 -0.346904,-0.346904 -0.309121,-0.388109 0.32544,-0.354916 0.823036,0.04305 1.970834,0.913323 1.726339,1.308925 -0.09028,0.146078 -0.04604,0.1926 0.09832,0.103383 0.144358,-0.08922 0.716307,0.30256 1.271,0.870616 l 1.008532,1.032831 -2.456764,0.0039 c -2.18485,0.0035 -2.40153,-0.03791 -1.957723,-0.373915 z"
         id="path2839" />
      <path
         style="fill:#cabca5"
         d="m 37.22082,51.69935 c 0.0894,-0.232968 -0.0026,-0.525666 -0.204529,-0.650441 -0.31301,-0.19345 -0.312971,-0.277195 2.61e-4,-0.568609 0.228806,-0.212869 0.301137,-0.223851 0.191799,-0.02912 -0.09686,0.17251 0.09326,0.501958 0.424205,0.735063 0.508759,0.358354 0.539533,0.460829 0.202864,0.67551 -0.584286,0.372578 -0.7982,0.316053 -0.6146,-0.162403 z"
         id="path2838" />
      <path
         style="fill:#cabca5"
         d="m 34.875394,51.942184 c 0.190996,-0.07643 0.4192,-0.06703 0.507118,0.02089 0.08792,0.08792 -0.06835,0.150452 -0.347265,0.138964 -0.308225,-0.0127 -0.370919,-0.07539 -0.159853,-0.159852 z"
         id="path2837" />
      <path
         style="fill:#cabca5"
         d="m 26.722921,52.018944 c 0,-0.256908 0.745424,-0.353448 1.082327,-0.140171 0.271374,0.171793 0.174811,0.237155 -0.354723,0.240104 -0.400182,0.0022 -0.727604,-0.04274 -0.727604,-0.09993 z"
         id="path2836" />
      <path
         style="fill:#cabca5"
         d="m 43.386988,50.398423 c -1.412371,-1.421861 -2.097124,-1.936062 -2.435289,-1.828732 -0.258745,0.08212 -0.470446,0.01804 -0.470446,-0.142409 0,-0.210799 -0.154104,-0.209248 -0.555533,0.0056 -0.381512,0.204179 -0.519968,0.483366 -0.441995,0.891253 0.07031,0.367791 -0.0167,0.593941 -0.228502,0.593941 -0.214932,0 -0.330229,-0.314172 -0.310257,-0.845418 0.02776,-0.738514 0.150661,-0.87513 0.971898,-1.080382 L 40.85698,47.757312 38.486304,45.71618 c -1.303871,-1.122623 -3.528683,-2.789498 -4.944025,-3.704167 -3.35112,-2.16567 -3.326433,-2.467288 0.19852,-2.425476 2.099315,0.0249 3.039649,0.171023 4.595335,0.714078 2.895522,1.010761 5.904877,2.93735 8.337109,5.337415 1.178312,1.162728 1.988588,1.918447 1.800613,1.679375 -0.187975,-0.239071 -0.230437,-0.476019 -0.09436,-0.526551 0.249852,-0.09278 -2.838947,-5.52002 -5.726888,-10.062549 -1.830872,-2.879833 -2.117899,-3.590958 -1.539051,-3.813083 1.68403,-0.646223 7.754039,4.202795 10.567711,8.442001 0.557456,0.839889 1.382905,2.411943 1.834332,3.493453 0.768724,1.84168 0.86385,1.956084 1.499985,1.803977 0.373565,-0.08932 0.73437,-0.210741 0.801789,-0.269815 0.19103,-0.167385 -0.741043,-7.157338 -1.438751,-10.789728 -1.019,-5.305088 -1.39443,-6.406032 -2.395474,-7.024711 -0.938617,-0.580098 -1.686595,-1.551061 -1.534746,-1.992283 0.05294,-0.153834 0.521954,-0.227312 1.054268,-0.165167 0.936184,0.109294 0.954462,0.09427 0.771607,-0.634282 l -0.187291,-0.746227 0.543519,0.646811 0.543519,0.646811 0.498925,-0.636611 c 0.791114,-1.009435 1.3225,-0.592573 1.101439,0.864057 -0.10013,0.659781 -0.325711,1.372698 -0.501292,1.58426 -0.253717,0.30571 -0.129504,1.163885 0.6052,4.181268 0.991377,4.071529 1.846257,8.740754 2.148374,11.73411 0.41377,4.099593 0.637478,2.310797 0.661779,-5.291667 0.01395,-4.365625 0.06303,-8.713453 0.109047,-9.66184 0.04602,-0.948386 0.0033,-3.237873 -0.09486,-5.087747 -0.167533,-3.156037 -0.221661,-3.408607 -0.877919,-4.096494 -1.132512,-1.187093 -1.671358,-2.955048 -0.750438,-2.462186 0.754757,0.403933 0.811144,0.359684 0.811144,-0.636534 0,-1.080462 0.128286,-1.184098 1.253765,-1.012856 0.774075,0.117776 0.850788,0.210623 0.79375,0.960684 -0.05799,0.762608 -0.0031,0.823991 0.672741,0.752849 l 0.735882,-0.07746 -0.41057,1.0035 c -0.225813,0.551924 -0.660813,1.212965 -0.966667,1.468979 -0.550191,0.460536 -0.552927,0.522369 -0.257481,5.820834 0.164239,2.945444 0.313077,8.510509 0.330749,12.366811 0.02473,5.396574 0.08595,6.584885 0.265782,5.159375 0.855842,-6.784034 2.135688,-12.124355 3.988629,-16.643067 0.909052,-2.216876 1.941827,-3.800154 2.268077,-3.477035 0.04163,0.04124 -0.334528,1.013252 -0.835916,2.160037 -2.079927,4.757245 -3.678889,11.640629 -4.26419,18.35694 -0.09511,1.091406 -0.229605,2.2225 -0.298874,2.513541 -0.0977,0.410502 -0.07116,0.440168 0.118356,0.132292 0.134365,-0.218281 0.325737,-0.96107 0.42527,-1.650641 0.219332,-1.519541 1.402759,-5.084288 2.3586,-7.104631 1.070683,-2.26308 2.703561,-4.657839 4.360765,-6.395443 2.1306,-2.233967 3.484248,-2.831394 3.484248,-1.537758 0,0.681073 -2.295451,7.312375 -4.342446,12.54484 -0.958634,2.45043 -1.74297,4.504258 -1.74297,4.564063 0,0.05981 0.235705,0.108737 0.523789,0.108737 0.34287,0 0.706427,-0.358001 1.052554,-1.036464 2.590629,-5.078054 10.495516,-9.848444 14.522665,-8.764045 1.326379,0.357157 1.406179,0.68814 0.21958,0.910747 -1.092749,0.205001 -3.015148,1.406503 -5.010896,3.131817 -1.768123,1.528533 -5.560005,5.954706 -5.367799,6.265703 0.07185,0.116262 0.813627,0.291658 1.648383,0.389767 2.010825,0.236333 2.730473,0.429859 2.730473,0.734272 0,0.138334 -0.119062,0.177931 -0.264583,0.08799 -0.392111,-0.242338 -0.320649,0.03843 0.122598,0.481675 0.339852,0.339852 0.311635,0.382591 -0.230832,0.349628 -0.339906,-0.02065 -0.568545,-0.166537 -0.508086,-0.324185 0.06046,-0.157647 -0.08388,-0.286632 -0.320751,-0.286632 -0.293747,0 -0.397173,0.175252 -0.325303,0.551216 0.08658,0.452922 -0.02737,0.551215 -0.639044,0.551215 -0.409428,0 -0.744415,-0.0893 -0.744415,-0.198438 0,-0.10914 0.164707,-0.198437 0.366016,-0.198437 0.201309,0 0.427223,-0.234055 0.502031,-0.520122 0.07481,-0.286066 0.05893,-0.510092 -0.03529,-0.497834 -0.488543,0.06356 -0.848133,-0.06603 -0.727011,-0.262015 0.25227,-0.408181 -1.883119,-0.319482 -2.224967,0.09242 -0.268666,0.323722 -0.242588,0.393801 0.146543,0.393801 0.260353,0 0.399664,0.0737 0.30958,0.16379 -0.304616,0.304615 0.557108,0.896023 1.048123,0.719335 0.265474,-0.09553 0.394525,-0.07648 0.286779,0.04232 -0.107746,0.118805 -0.738659,0.298379 -1.402029,0.399053 -1.036068,0.157236 -1.185573,0.123397 -1.060349,-0.239998 0.08018,-0.232674 -0.09556,-0.138286 -0.390525,0.209751 -0.294966,0.348037 -0.46732,0.701776 -0.383008,0.786088 0.08431,0.08431 0.250999,-0.0048 0.370417,-0.198021 0.145994,-0.236223 0.217124,-0.115508 0.217124,0.368482 0,0.395888 0.144389,0.809034 0.320863,0.918101 0.590834,0.365156 -3.747134,0.527857 -14.025156,0.526032 l -10.198564,-0.0018 z m 25.585421,0.881146 c -0.08446,-0.211067 -0.147156,-0.148372 -0.159852,0.159852 -0.01149,0.278915 0.05105,0.435185 0.138964,0.347266 0.08792,-0.08792 0.09732,-0.316122 0.02089,-0.507118 z"
         id="path2833" />
      <path
         style="fill:#a8aa96"
         d="m 59.266669,14.318461 c 0,-0.551332 0.340647,-1.089282 0.689766,-1.089282 0.554392,0 0.442797,0.735405 -0.160599,1.058333 -0.313893,0.16799 -0.529167,0.180581 -0.529167,0.03095 z"
         id="path2675" />
      <path
         style="fill:#a8aa96"
         d="m 56.396151,14.891229 c -0.155135,-0.289871 -0.17178,-0.654911 -0.03962,-0.868757 0.171332,-0.27722 0.273205,-0.18848 0.410189,0.357307 0.222177,0.885221 -0.0037,1.196963 -0.370573,0.51145 z"
         id="path2674" />
      <path
         style="fill:#a8aa96"
         d="m 68.671405,21.172193 -1.046304,-0.137802 1.641617,-0.435324 c 1.719464,-0.455967 2.022046,-0.366025 1.03799,0.308543 -0.391143,0.268128 -0.936102,0.356407 -1.633303,0.264583 z"
         id="path2668" />
      <path
         style="fill:#a8aa96"
         d="m 65.669585,21.378345 c -0.463382,-0.463382 -0.388963,-0.948552 0.193293,-1.260166 0.385567,-0.206349 0.612594,-0.171566 0.926042,0.141881 0.547297,0.547298 0.52382,0.829895 -0.09652,1.161893 -0.637805,0.341343 -0.637863,0.34134 -1.022811,-0.04361 z"
         id="path2666" />
      <path
         style="fill:#a8aa96"
         d="m 67.364768,24.452331 c -0.248371,-0.647245 -0.194521,-0.732766 0.236276,-0.375236 0.439837,0.365033 0.526579,0.79375 0.160599,0.79375 -0.129952,0 -0.308546,-0.188331 -0.396875,-0.418514 z"
         id="path2665" />
      <path
         style="fill:#a8aa96"
         d="m 45.050718,52.038483 c -0.112112,-0.176742 -1.702525,-1.757769 -3.534252,-3.513393 -3.466397,-3.322378 -6.44557,-5.718501 -9.036318,-7.267832 -2.23482,-1.336477 -1.989455,-1.704537 1.127802,-1.691758 2.86517,0.01175 5.080599,0.624058 7.901277,2.183798 3.428638,1.895921 6.80681,5.186642 8.252895,8.039252 0.635277,1.253175 1.302464,2.141626 1.302464,1.734411 0,-0.05612 -0.535781,-1.095819 -1.190625,-2.31045 -0.654843,-1.21463 -1.190625,-2.31515 -1.190625,-2.4456 0,-0.13045 -0.336524,-0.734884 -0.747833,-1.343186 -0.411308,-0.608303 -1.384931,-2.237099 -2.163608,-3.619547 -0.778676,-1.382448 -1.854052,-3.168385 -2.389724,-3.96875 -1.889973,-2.823868 -2.729769,-4.510315 -2.406814,-4.83327 0.446461,-0.446461 1.932946,0.166223 4.218423,1.738707 3.478635,2.393416 6.865019,6.555773 8.32962,10.238313 0.627618,1.57806 0.750728,1.721972 1.493836,1.74625 0.766045,0.02503 0.80985,-0.02795 0.80985,-0.979479 0,-1.44236 -0.982164,-8.048736 -1.726746,-11.614687 -0.928379,-4.446196 -1.221394,-5.250002 -2.075299,-5.693013 -0.881551,-0.457354 -1.735732,-1.455598 -1.583961,-1.851106 0.06201,-0.161589 0.523921,-0.236973 1.064995,-0.173806 0.932378,0.10885 0.950963,0.0935 0.768203,-0.634679 l -0.187291,-0.746227 0.554368,0.646811 0.554367,0.646811 0.421912,-0.595312 c 0.232052,-0.327422 0.585984,-0.595312 0.786516,-0.595312 0.505934,0 0.474579,1.672643 -0.05216,2.782669 -0.38714,0.815836 -0.378354,1.016161 0.123593,2.818111 0.76643,2.751422 2.055803,9.405285 2.426716,12.523178 0.509699,4.284515 0.759091,3.820718 0.782491,-1.455209 0.01194,-2.692135 0.0645,-7.514166 0.116808,-10.715625 0.119254,-7.299251 -0.105044,-10.669084 -0.733549,-11.020813 -0.453397,-0.253734 -1.505544,-2.073533 -1.505544,-2.603997 0,-0.199222 0.153317,-0.202379 0.511772,-0.01054 0.755914,0.404553 0.811144,0.360149 0.811144,-0.652149 0,-0.66234 0.117462,-0.926042 0.41249,-0.926042 0.244421,0 0.335569,0.124461 0.223703,0.305464 -0.128257,0.207524 -0.07113,0.232748 0.178171,0.07867 0.8395,-0.51884 1.294586,-0.326491 1.231117,0.520349 -0.05589,0.745782 0.0016,0.808702 0.674775,0.73785 l 0.735882,-0.07746 -0.41057,1.0035 c -0.225813,0.551924 -0.660716,1.212887 -0.966453,1.468806 -0.544527,0.4558 -0.55063,0.558504 -0.298717,5.027083 0.141442,2.508977 0.245199,8.391697 0.230572,13.07271 -0.01463,4.681013 -0.0031,8.487329 0.02569,8.45848 0.02876,-0.02885 0.244639,-1.656113 0.479741,-3.616142 0.77731,-6.480393 2.154443,-12.161872 3.986232,-16.445536 0.824331,-1.92771 1.882672,-3.559584 2.141004,-3.301252 0.04768,0.04768 -0.377868,1.157778 -0.94566,2.466887 -1.32103,3.045788 -2.736547,8.126092 -3.453124,12.393296 -0.368401,2.193823 -1.068199,8.688805 -0.949012,8.807993 0.05363,0.05363 0.232158,-0.596537 0.396722,-1.444823 0.801723,-4.132683 2.892269,-9.194112 4.89904,-11.861087 2.161633,-2.872783 4.515299,-4.900523 5.198262,-4.478429 0.171029,0.105702 0.210205,0.548958 0.100339,1.135292 -0.22373,1.194003 -2.61405,7.942408 -4.547426,12.838395 -1.148895,2.909403 -1.377376,3.721615 -1.097406,3.901081 0.392677,0.251715 0.745894,-0.120387 1.808795,-1.905498 0.951153,-1.597434 4.154975,-4.727884 5.898925,-5.763832 2.445234,-1.452527 4.540982,-2.185894 6.354649,-2.223687 1.726114,-0.03597 2.827676,0.203827 2.827676,0.61555 0,0.135714 -0.242083,0.246753 -0.537963,0.246753 -0.862912,0 -2.894635,1.16367 -4.813617,2.757001 -2.373615,1.970812 -5.019571,5.121784 -7.34458,8.746389 l -1.907808,2.974203 -11.081155,0.02341 c -8.425491,0.0178 -11.130006,-0.05361 -11.284994,-0.297943 z M 63.41616,51.279569 c -0.08446,-0.211067 -0.147157,-0.148372 -0.159853,0.159852 -0.01149,0.278915 0.05105,0.435185 0.138964,0.347266 0.08792,-0.08792 0.09732,-0.316122 0.02089,-0.507118 z m -7.544908,-1.77922 c 0.219394,0.314419 0.243537,0.310734 0.152366,-0.02325 -0.157762,-0.577934 -0.589036,-0.485824 -0.619411,0.132291 -0.0239,0.486453 -0.01663,0.48833 0.09017,0.02325 0.09538,-0.415352 0.162839,-0.439032 0.376876,-0.132292 z m 8.546096,0.268729 c 0.08759,-0.275972 0.131555,-0.603394 0.0977,-0.727604 -0.103617,-0.380166 0.328239,-1.416462 0.590284,-1.416462 0.135714,0 0.246754,-0.119063 0.246754,-0.264584 0,-0.145521 -0.156851,-0.264583 -0.348557,-0.264583 -0.281552,0 -1.238943,2.318103 -1.238943,2.999817 0,0.392518 0.504664,0.140029 0.652762,-0.326584 z m -9.189205,-2.183511 c 0.03022,-0.401187 -0.0399,-0.48588 -0.238142,-0.287637 -0.154536,0.154536 -0.200978,0.410411 -0.103205,0.568611 0.248726,0.402446 0.292586,0.366343 0.341347,-0.280974 z"
         id="path2662" />
      <path
         style="fill:#889076"
         d="m 59.266669,14.077374 c 0,-0.139829 0.192327,-0.413852 0.427392,-0.608939 0.369765,-0.306877 0.414358,-0.287446 0.330729,0.144116 -0.09965,0.51425 -0.758121,0.917974 -0.758121,0.464823 z"
         id="path2602" />
      <path
         style="fill:#889076"
         d="m 66.281295,20.968241 c 0.04875,-0.254661 0.09775,-0.57613 0.10888,-0.714375 0.01113,-0.138245 0.155116,-0.116482 0.319959,0.04836 0.325932,0.325932 0.135299,1.129035 -0.268,1.129035 -0.137212,0 -0.209589,-0.208359 -0.160839,-0.463021 z"
         id="path2599" />
      <path
         style="fill:#889076"
         d="m 67.468752,24.47397 c -0.186994,-0.225314 -0.280459,-0.469194 -0.207698,-0.541954 0.07276,-0.07276 0.285287,0.05206 0.472281,0.277371 0.186995,0.225314 0.280459,0.469194 0.207699,0.541954 -0.07276,0.07276 -0.285287,-0.05206 -0.472282,-0.277371 z"
         id="path2598" />
      <path
         style="fill:#889076"
         d="m 51.171739,27.715116 -0.504028,-0.595313 0.595313,0.504028 c 0.327422,0.277216 0.595312,0.545106 0.595312,0.595313 0,0.211734 -0.212935,0.05542 -0.686597,-0.504028 z"
         id="path2597" />
      <path
         style="fill:#889076"
         d="m 64.205186,50.469282 c 1.557254,-3.854364 2.792817,-5.809119 5.24156,-8.29255 2.050888,-2.07994 2.752663,-2.601187 4.975844,-3.695841 2.718201,-1.338392 4.610315,-1.71119 6.697606,-1.319612 1.095681,0.205551 0.972107,0.410208 -0.55457,0.918454 -2.889419,0.961916 -7.585239,5.550777 -11.028155,10.776962 l -2.151736,3.266233 h -1.924331 -1.924331 z"
         id="path2595" />
      <path
         style="fill:#889076"
         d="M 56.141667,50.866157 C 55.972622,46.520031 55.73234,43.62955 55.282228,40.527486 54.320046,33.896359 53.060945,28.576052 52.453649,28.575379 c -0.300085,-3.33e-4 -0.464238,-0.55054 -0.348095,-1.166746 0.02491,-0.132185 -0.109815,-0.350872 -0.299397,-0.485972 -0.239958,-0.170998 -0.163807,-0.205991 0.250617,-0.115163 0.391983,0.08591 0.595312,0.0062 0.595312,-0.233327 0,-0.207854 0.163237,-0.301162 0.380806,-0.217673 0.216021,0.0829 0.529792,-0.09244 0.725103,-0.405178 0.608918,-0.975033 1.101157,-0.693689 0.907307,0.518581 -0.09409,0.588439 -0.312483,1.296308 -0.485306,1.573042 -0.254514,0.407542 -0.149538,1.17207 0.552439,4.02334 0.897998,3.647464 1.973257,9.606242 2.294981,12.718136 0.101762,0.984289 0.276525,1.846168 0.388363,1.915288 0.293952,0.181672 0.615757,-13.506742 0.476927,-20.28673 -0.117953,-5.760427 -0.120568,-5.781827 -0.795069,-6.505057 -1.017867,-1.091402 -1.345255,-1.83096 -0.888175,-2.006358 0.204977,-0.07866 0.515031,0.0285 0.68901,0.238135 0.420138,0.506236 1.190548,0.481547 2.120796,-0.06796 0.418158,-0.247012 0.833128,-0.376272 0.922156,-0.287244 0.204063,0.204063 -0.311628,1.216938 -1.010338,1.984416 -0.527335,0.579236 -0.529893,0.695724 -0.203752,9.277172 0.181658,4.779813 0.261391,10.766624 0.177183,13.304023 -0.151059,4.551771 0.114657,5.438632 0.470617,1.570745 0.352859,-3.834198 1.207859,-8.528393 2.192698,-12.038542 0.859863,-3.064714 2.648761,-7.524052 3.287381,-8.194733 0.685693,-0.720117 0.630985,-0.125355 -0.127901,1.390508 -1.207337,2.411635 -2.758499,7.69136 -3.47599,11.831309 -0.373329,2.154119 -1.18208,8.711503 -1.188356,9.635243 -0.0063,0.92162 0.406314,-0.181775 0.81136,-2.169905 1.025327,-5.032716 3.516054,-9.945637 6.750789,-13.315828 1.773337,-1.847595 2.732048,-2.367898 3.141715,-1.705044 0.211103,0.341573 -1.316729,4.981318 -3.577045,10.862825 -1.034611,2.692136 -2.417914,6.47237 -3.074007,8.400521 l -1.192895,3.505729 H 59.556717 56.19055 Z m 1.448147,-3.571875 c -0.0734,-0.181901 -0.133452,-0.03307 -0.133452,0.33073 0,0.363802 0.06005,0.51263 0.133452,0.330729 0.0734,-0.181901 0.0734,-0.479558 0,-0.661459 z m 2.651346,0.28112 c -0.08446,-0.211067 -0.147157,-0.148372 -0.159853,0.159853 -0.01149,0.278914 0.05105,0.435184 0.138965,0.347265 0.08792,-0.08792 0.09732,-0.316122 0.02089,-0.507118 z"
         id="path2594" />
      <path
         style="fill:#889076"
         d="m 50.258304,49.801314 c -0.720712,-1.349651 -1.310384,-2.511841 -1.310384,-2.582645 0,-0.207242 -4.42783,-7.704594 -6.128452,-10.376903 -1.936836,-3.043488 -2.222229,-3.728419 -1.64572,-3.949646 1.04229,-0.399964 5.690515,2.78144 8.088449,5.536011 1.945434,2.234772 3.022193,3.860541 3.955492,5.972289 0.430095,0.973163 0.895899,2.007512 1.03512,2.298554 0.287618,0.601264 1.309694,4.541083 1.309694,5.048503 0,0.231315 -0.612472,0.360348 -1.996908,0.420698 l -1.996907,0.08705 z"
         id="path2589" />
      <path
         style="fill:#889076"
         d="M 42.934174,49.780674 C 39.176376,46.118449 35.9942,43.45356 33.25781,41.677279 c -1.280758,-0.831383 -2.281101,-1.648957 -2.222984,-1.816832 0.205775,-0.594394 4.856338,-0.301476 7.014317,0.441801 4.932145,1.698788 9.499014,5.477056 11.649485,9.637868 0.62049,1.200546 1.09237,2.192267 1.048623,2.203823 -0.04375,0.01156 -1.210633,0.07801 -2.593081,0.147684 l -2.513542,0.126671 z"
         id="path2588" />
      <path
         style="fill:#75846a"
         d="m 67.468752,24.47397 c -0.189851,-0.228757 -0.215566,-0.396875 -0.0607,-0.396875 0.14777,0 0.337205,0.178594 0.420968,0.396875 0.08376,0.218281 0.111079,0.396875 0.0607,0.396875 -0.05038,0 -0.239811,-0.178594 -0.420968,-0.396875 z"
         id="path2541" />
      <path
         style="fill:#75846a"
         d="m 63.630906,26.181422 c 0.309575,-1.001163 0.850138,-1.975387 1.305995,-2.353714 0.527519,-0.437802 -0.517915,2.014034 -1.112124,2.608243 -0.349729,0.34973 -0.37177,0.320793 -0.193871,-0.254529 z"
         id="path2540" />
      <path
         style="fill:#75846a"
         d="m 62.974887,27.863023 c 0.0022,-0.117729 0.119468,-0.392647 0.260532,-0.610928 0.221033,-0.342023 0.25704,-0.33504 0.260532,0.05053 0.0022,0.246073 -0.115011,0.520991 -0.260532,0.610927 -0.145521,0.08994 -0.26276,0.0672 -0.260532,-0.05053 z"
         id="path2539" />
      <path
         style="fill:#75846a"
         d="m 53.731308,29.479005 c 0.0127,-0.308225 0.07539,-0.370919 0.159852,-0.159853 0.07643,0.190996 0.06703,0.4192 -0.02089,0.507118 -0.08792,0.08792 -0.150453,-0.06835 -0.138964,-0.347265 z"
         id="path2538" />
      <path
         style="fill:#75846a"
         d="m 53.887338,32.303874 c -0.08929,-0.446456 -0.0615,-1.081138 0.06175,-1.410404 0.205349,-0.548575 0.248892,-0.510114 0.520406,0.459667 0.308355,1.101372 0.391541,2.189187 0.114049,1.491416 -0.107403,-0.270072 -0.192467,-0.281326 -0.338646,-0.0448 -0.120176,0.194449 -0.257618,0.0038 -0.357561,-0.495874 z"
         id="path2537" />
      <path
         style="fill:#75846a"
         d="m 63.764586,52.040805 c 0,-0.264675 1.369086,-3.499692 2.137899,-5.051649 2.522697,-5.092412 8.416837,-9.544867 13.075641,-9.877386 1.752879,-0.125111 3.353071,0.262837 2.38125,0.577306 -3.677348,1.189942 -8.22746,5.497328 -12.093657,11.448519 l -1.929259,2.969685 -1.785937,0.0078 c -0.982266,0.0043 -1.785937,-0.02913 -1.785937,-0.0743 z"
         id="path2528" />
      <path
         style="fill:#75846a"
         d="m 56.125788,47.691157 c -0.178553,-2.437474 -0.681451,-6.619047 -1.117551,-9.292385 -0.4361,-2.673337 -0.727919,-4.925603 -0.648488,-5.005034 0.07943,-0.07943 0.146244,0.02425 0.148472,0.230406 0.0033,0.301876 0.04697,0.307141 0.224587,0.02705 0.535085,-0.843804 2.461643,10.922049 2.515196,15.36077 0.03079,2.552274 0.08311,2.842376 0.512926,2.84427 0.319473,0.0014 0.408351,-0.107869 0.267274,-0.328619 -0.248499,-0.388841 -0.296243,-31.153942 -0.04835,-31.154386 0.412244,-7.38e-4 0.579936,3.307571 0.737605,14.551782 0.09284,6.621198 0.242795,11.859947 0.333223,11.641666 0.09043,-0.218281 0.310092,-1.629771 0.48814,-3.136643 0.184832,-1.564292 0.412993,-2.595327 0.53179,-2.403109 0.114437,0.185163 0.190636,-0.42741 0.169331,-1.361273 -0.04544,-1.991758 1.100833,-7.613968 1.442492,-7.075098 0.155431,0.245148 0.229437,0.151817 0.246901,-0.311377 0.01372,-0.363802 0.08125,-0.523875 0.150062,-0.355718 0.06882,0.168158 -0.0506,1.001595 -0.265376,1.852084 -0.214775,0.850488 -0.541349,2.498843 -0.72572,3.663009 -0.269267,1.700219 -0.376474,1.986527 -0.544899,1.455209 -0.146364,-0.461725 -0.174661,-0.301938 -0.09371,0.529166 0.09709,0.996873 -0.198153,5.275068 -0.771461,11.178646 -0.06713,0.691224 -0.01875,1.256771 0.107496,1.256771 0.126249,0 0.302941,-0.922735 0.392649,-2.050521 0.678326,-8.527749 3.8501,-15.79807 8.636817,-19.797258 1.973327,-1.648668 2.281639,-1.038991 1.180472,2.334345 -0.832982,2.551771 -3.960138,10.944298 -4.740474,12.722284 -0.330025,0.751955 -0.998958,2.647113 -1.486518,4.211462 L 62.8822,52.122927 H 59.666315 56.45043 Z m 4.639026,-10.451041 c -0.0734,-0.181901 -0.133452,-0.03307 -0.133452,0.330729 0,0.363802 0.06005,0.51263 0.133452,0.330729 0.0734,-0.181901 0.0734,-0.479557 0,-0.661458 z"
         id="path2527" />
      <path
         style="fill:#75846a"
         d="m 50.138545,49.428935 c -1.503873,-3.029419 -3.508951,-6.52842 -6.498684,-11.340657 -2.510902,-4.041515 -2.815551,-4.670489 -2.442759,-5.043281 0.673615,-0.673616 5.621483,2.692377 8.078204,5.495533 2.858896,3.262043 5.106754,7.771235 5.860091,11.755309 l 0.345479,1.827089 -2.009707,-0.01455 -2.009708,-0.01455 z"
         id="path2526" />
      <path
         style="fill:#75846a"
         d="m 43.253171,49.986482 c -2.898295,-2.933983 -7.812119,-7.029323 -10.279049,-8.566893 -2.51294,-1.566247 -2.386184,-1.888873 0.710042,-1.807234 6.686159,0.176295 14.200698,5.521979 16.563564,11.782969 l 0.274594,0.727604 h -2.579346 -2.579345 z"
         id="path2525" />
      <path
         style="fill:#6c7b62"
         d="m 64.20794,25.069283 c 0.1155,-0.181901 0.211824,-0.43987 0.214052,-0.573264 0.0022,-0.133394 0.155201,-0.292918 0.339938,-0.354497 0.266668,-0.08889 0.271547,0.02925 0.02368,0.573264 -0.171715,0.376874 -0.419188,0.685226 -0.549938,0.685226 -0.130751,0 -0.143229,-0.148828 -0.02773,-0.330729 z"
         id="path2444" />
      <path
         style="fill:#6c7b62"
         d="m 58.259916,26.85522 c 0.0054,-0.436562 0.06469,-0.583124 0.131774,-0.325693 0.06708,0.25743 0.06267,0.614618 -0.0098,0.793749 -0.07248,0.179132 -0.127362,-0.03149 -0.12197,-0.468056 z"
         id="path2439" />
      <path
         style="fill:#6c7b62"
         d="m 58.563621,32.146887 c 9.61e-4,-1.164167 0.04748,-1.607504 0.103369,-0.985194 0.05589,0.62231 0.05511,1.57481 -0.0017,2.116667 -0.05685,0.541856 -0.102583,0.03269 -0.101622,-1.131473 z"
         id="path2430" />
      <path
         style="fill:#6c7b62"
         d="m 57.995333,37.17397 c 0.0054,-0.436562 0.06469,-0.583125 0.131773,-0.325694 0.06708,0.257431 0.06267,0.614619 -0.0098,0.79375 -0.07248,0.179132 -0.127361,-0.03149 -0.121969,-0.468056 z"
         id="path2427" />
      <path
         style="fill:#6c7b62"
         d="m 58.015816,39.158345 c 0,-0.654844 0.0516,-0.922734 0.114662,-0.595313 0.06306,0.327422 0.06306,0.863204 0,1.190625 -0.06306,0.327422 -0.114662,0.05953 -0.114662,-0.595312 z"
         id="path2420" />
      <path
         style="fill:#6c7b62"
         d="m 71.172919,40.64595 c 0,-0.05494 0.208359,-0.263301 0.46302,-0.463021 0.419644,-0.329107 0.429003,-0.319749 0.0999,0.09989 -0.345643,0.440729 -0.562915,0.580887 -0.562915,0.363126 z"
         id="path2418" />
      <path
         style="fill:#6c7b62"
         d="m 56.407833,42.201053 c 0.0054,-0.436562 0.06469,-0.583124 0.131773,-0.325693 0.06708,0.257431 0.06267,0.614618 -0.0098,0.79375 -0.07248,0.179131 -0.127362,-0.03149 -0.12197,-0.468057 z"
         id="path2415" />
      <path
         style="fill:#6c7b62"
         d="m 59.316973,45.90522 c -0.01248,-0.894147 0.392171,-3.393442 0.449797,-2.778125 0.03304,0.352778 0.06859,0.352778 0.319976,0 0.214184,-0.300572 0.245302,-0.180193 0.128241,0.496094 -0.08501,0.491132 -0.162936,1.384101 -0.173164,1.984375 -0.01396,0.818972 -0.0711,0.959317 -0.22892,0.562239 l -0.210323,-0.529166 -0.137263,0.529166 c -0.09594,0.369869 -0.140599,0.29022 -0.148344,-0.264583 z"
         id="path2408" />
      <path
         style="fill:#6c7b62"
         d="m 58.561874,44.714595 c 0,-1.091406 0.0467,-1.537891 0.103786,-0.992188 0.05708,0.545704 0.05708,1.438672 0,1.984375 -0.05708,0.545703 -0.103786,0.09922 -0.103786,-0.992187 z"
         id="path2407" />
      <path
         style="fill:#6c7b62"
         d="m 56.288361,47.889595 c -0.08984,-0.363802 -0.211876,-1.554427 -0.271199,-2.645833 -0.05932,-1.091407 -0.05855,-1.716485 0.0017,-1.389063 0.140098,0.761062 0.601949,0.777979 0.601949,0.02205 0,-0.315295 0.05854,-0.514728 0.13008,-0.443184 0.07154,0.07154 0.191567,1.133184 0.266719,2.359201 0.08569,1.397979 0.04615,2.089815 -0.106057,1.855501 -0.188711,-0.290511 -0.266852,-0.231657 -0.351287,0.264583 l -0.10859,0.638204 z"
         id="path2400" />
      <path
         style="fill:#6c7b62"
         d="m 64.098911,51.939852 c 0.256639,-0.06693 0.653307,-0.499604 0.881484,-0.961496 l 0.414868,-0.839803 -0.668618,0.79375 c -0.652788,0.774958 -0.66494,0.77809 -0.513271,0.132292 0.314638,-1.339714 2.687655,-5.981384 3.516919,-6.879167 0.470451,-0.509323 0.706284,-0.714956 0.524072,-0.456964 -0.282193,0.399557 -0.266927,0.444378 0.103005,0.302422 0.261066,-0.10018 0.434299,-0.03368 0.434299,0.166719 0,0.183356 0.234559,0.06292 0.521243,-0.267624 0.300248,-0.346189 0.689798,-0.536318 0.918801,-0.448441 0.227722,0.08738 0.552076,-0.06805 0.759259,-0.363844 0.198936,-0.284021 0.429448,-0.448655 0.512249,-0.365854 0.0828,0.0828 0.230963,-0.102818 0.329249,-0.412488 0.152168,-0.479441 0.241862,-0.511864 0.604113,-0.218377 0.233978,0.189563 0.353585,0.224284 0.265795,0.07716 -0.156651,-0.262528 0.321229,-1.133222 0.593675,-1.081671 0.26046,0.04928 1.596046,-1.119238 1.532233,-1.34057 -0.03499,-0.121371 0.08492,-0.488565 0.26648,-0.815987 0.181557,-0.327421 0.236618,-0.598933 0.122357,-0.603358 -0.11426,-0.0044 0.0095,-0.134401 0.275119,-0.288836 0.265576,-0.154434 0.55331,-0.210345 0.63941,-0.124246 0.0861,0.0861 0.01764,0.156545 -0.152137,0.156545 -0.169774,0 -0.30868,0.102806 -0.30868,0.228458 0,0.125652 0.267891,0.205462 0.595312,0.177356 0.327422,-0.02811 0.856995,0.105889 1.176828,0.297767 0.378117,0.226845 0.639492,0.255062 0.747271,0.08067 0.09117,-0.147509 0.01515,-0.235482 -0.168927,-0.195496 -0.184075,0.03999 -0.38436,-0.157004 -0.445077,-0.437754 -0.103366,-0.477958 -0.08211,-0.482169 0.333915,-0.06615 0.630379,0.63038 1.11676,0.553779 0.538803,-0.08486 -0.263389,-0.291042 -0.728327,-0.541035 -1.033195,-0.555541 -0.488699,-0.02325 -0.476017,-0.05145 0.107153,-0.238209 0.84047,-0.269166 3.152484,-0.288167 3.806805,-0.03129 0.403676,0.15848 0.251384,0.28852 -0.79375,0.677775 -3.307007,1.231679 -7.851375,5.763109 -11.479721,11.44704 l -1.719792,2.694113 -1.852083,-0.01618 c -1.018646,-0.0089 -1.642106,-0.07094 -1.385466,-0.137872 z M 78.978126,37.570845 c 0.08994,-0.145521 -0.02913,-0.264583 -0.264583,-0.264583 -0.235458,0 -0.35452,0.119062 -0.264583,0.264583 0.08994,0.145521 0.208999,0.264583 0.264583,0.264583 0.05558,0 0.174647,-0.119062 0.264583,-0.264583 z"
         id="path2396" />
      <path
         style="fill:#6c7b62"
         d="m 60.372427,49.146366 c 0.105141,-1.63711 0.329034,-3.631407 0.49754,-4.431771 0.470211,-2.233393 1.351402,-4.766361 1.603879,-4.610322 0.12449,0.07694 0.156122,-0.04311 0.07029,-0.266772 -0.417202,-1.087213 2.933067,-6.57833 5.542259,-9.083805 2.058015,-1.976207 2.703133,-2.138233 2.460014,-0.617849 -0.192977,1.206814 -2.244038,6.961802 -2.272625,6.376665 -0.01723,-0.352778 -0.04789,-0.352778 -0.275869,0 -0.141064,0.218281 -0.256481,0.575468 -0.256481,0.79375 0,0.352777 0.03172,0.352777 0.285491,0 0.237436,-0.330072 0.259021,-0.315295 0.12824,0.08779 -0.08649,0.266563 -0.15725,0.541481 -0.15725,0.610927 0,0.06945 -0.117699,0.05353 -0.261553,-0.03538 -0.143854,-0.08891 -0.197612,0.005 -0.119463,0.208633 0.203381,0.530001 -2.802938,8.149565 -3.134565,7.944608 -0.157439,-0.0973 -0.189427,-0.03615 -0.07659,0.146417 0.106565,0.172425 -0.199884,1.56004 -0.680997,3.083589 l -0.874752,2.770088 h -1.334367 -1.334367 z m 3.119472,-6.945313 c 0,-0.145521 -0.115416,-0.08599 -0.25648,0.132292 -0.141064,0.218281 -0.25648,0.515937 -0.25648,0.661458 0,0.145521 0.115416,0.08599 0.25648,-0.132291 0.141064,-0.218282 0.25648,-0.515938 0.25648,-0.661459 z"
         id="path2395" />
      <path
         style="fill:#6c7b62"
         d="m 50.427134,49.876483 c -0.668047,-1.235545 -1.214631,-2.323705 -1.214631,-2.418134 0,-0.09443 -0.378288,-0.780169 -0.84064,-1.523868 -1.75896,-2.829306 -3.912106,-6.84245 -3.783115,-7.051162 0.07396,-0.119667 -0.0049,-0.303732 -0.175309,-0.409031 -0.193471,-0.119572 -0.238898,-0.07677 -0.120993,0.114009 0.103833,0.168005 0.133694,0.305464 0.06636,0.305464 -0.13014,0 -2.515063,-3.671899 -3.071052,-4.728284 -0.210099,-0.399191 -0.224331,-0.561857 -0.03914,-0.447406 0.165791,0.102465 0.290981,-0.0043 0.290981,-0.248269 0,-0.256224 -0.122641,-0.352308 -0.305464,-0.239317 -0.183309,0.113291 -0.233873,0.07295 -0.126443,-0.100875 0.126917,-0.205357 0.408336,-0.209722 0.966922,-0.015 0.433346,0.151065 0.787901,0.335286 0.787901,0.40938 0,0.07409 -0.19884,0.05841 -0.441867,-0.03485 -0.243588,-0.09347 -0.538587,-0.01713 -0.657407,0.170131 -0.346861,0.546653 -0.255464,0.880652 0.107087,0.391336 0.299333,-0.403995 0.402671,-0.408795 1.088577,-0.05057 0.979817,0.511726 1.195995,0.503584 0.549493,-0.0207 -0.637859,-0.517271 0.0257,-0.202116 1.010874,0.480111 0.401893,0.278308 0.651388,0.63437 0.554432,0.791247 -0.107003,0.173135 -0.05179,0.208291 0.140491,0.08946 0.730812,-0.451667 5.918324,4.895231 5.724708,5.900599 -0.06463,0.335605 0.245,0.821234 0.896529,1.406123 0.749504,0.672844 1.233998,1.512098 1.962108,3.398816 0.857865,2.222946 1.500391,4.67096 1.500391,5.716466 0,0.269818 -0.460839,0.360762 -1.828077,0.360762 h -1.828077 z m 4.602151,1.651132 c -0.0022,-0.181901 -0.119468,-0.509323 -0.260532,-0.727605 -0.212744,-0.329198 -0.257862,-0.306639 -0.264584,0.132292 -0.0067,0.438931 -0.05184,0.46149 -0.264583,0.132292 -0.29017,-0.449007 -0.344727,-0.252132 -0.103984,0.375235 0.190046,0.495253 0.899528,0.564945 0.893683,0.08779 z M 47.09053,36.638409 c -0.184076,-0.221797 -0.403566,-0.334386 -0.487755,-0.250197 -0.08419,0.08419 0.02207,0.263838 0.236141,0.399218 0.560115,0.354228 0.6333,0.310883 0.251614,-0.149021 z"
         id="path2394" />
      <path
         style="fill:#6c7b62"
         d="m 43.047037,49.794163 c -1.274887,-1.280821 -2.224904,-2.421836 -2.11115,-2.53559 0.113753,-0.113754 0.02823,-0.167138 -0.19005,-0.118631 -0.219718,0.04883 -0.364423,-0.06821 -0.324174,-0.262201 0.03999,-0.192718 -0.03195,-0.285718 -0.159854,-0.206668 -0.127906,0.07905 -1.232184,-0.689005 -2.453952,-1.706788 -1.221767,-1.017783 -2.876239,-2.289955 -3.676603,-2.827048 -1.477226,-0.991309 -2.334519,-1.664792 -1.5875,-1.247127 0.336853,0.188337 0.34414,0.156824 0.04819,-0.208372 -0.306406,-0.378094 -0.226197,-0.464283 0.661458,-0.710772 1.380749,-0.383414 2.126496,-0.355458 3.806396,0.142692 2.334246,0.692187 3.430648,1.197017 3.246572,1.494859 -0.09486,0.15348 -0.04565,0.199671 0.110131,0.103392 0.39924,-0.246745 1.154455,0.09205 0.948398,0.425457 -0.100005,0.161811 -0.04463,0.199236 0.132663,0.08966 0.766792,-0.473903 7.048134,4.847712 6.439899,5.455946 -0.272668,0.272668 0.06136,1.186558 0.569808,1.558976 0.121443,0.08895 -0.04063,0.230096 -0.360161,0.313655 -0.580012,0.151677 -0.579724,0.153666 0.176071,1.212849 0.534059,0.748438 0.990827,1.091682 1.550786,1.165355 0.436563,0.05744 -0.399357,0.123487 -1.857599,0.146776 l -2.65135,0.04234 z"
         id="path2393" />
      <path
         style="fill:#66765b"
         d="m 70.430749,29.765637 c 0.0054,-0.436563 0.06469,-0.583125 0.131773,-0.325694 0.06708,0.257431 0.06267,0.614619 -0.0098,0.79375 -0.07247,0.179132 -0.127361,-0.03149 -0.121969,-0.468056 z"
         id="path2250" />
      <path
         style="fill:#66765b"
         d="m 70.135473,31.066505 c 0.0127,-0.308225 0.07539,-0.370919 0.159853,-0.159853 0.07643,0.190996 0.06703,0.4192 -0.02089,0.507118 -0.08792,0.08792 -0.150453,-0.06835 -0.138965,-0.347265 z"
         id="path2249" />
      <path
         style="fill:#66765b"
         d="m 67.33646,31.485428 c 0.56839,-0.582083 1.092966,-1.058333 1.165727,-1.058333 0.07276,0 -0.332754,0.47625 -0.901143,1.058333 -0.568389,0.582084 -1.092966,1.058334 -1.165727,1.058334 -0.07276,0 0.332754,-0.47625 0.901143,-1.058334 z"
         id="path2248" />
      <path
         style="fill:#66765b"
         d="m 69.328938,33.4698 c 0,-0.14552 0.115416,-0.443177 0.256481,-0.661458 0.141064,-0.218281 0.25648,-0.277812 0.25648,-0.132292 0,0.145521 -0.115416,0.443177 -0.25648,0.661459 -0.141065,0.218281 -0.256481,0.277812 -0.256481,0.132291 z"
         id="path2247" />
      <path
         style="fill:#66765b"
         d="m 65.616669,33.5022 c 0,-0.05494 0.208359,-0.263301 0.463021,-0.463021 0.419643,-0.329107 0.429002,-0.319749 0.09989,0.0999 -0.345643,0.440729 -0.562915,0.580887 -0.562915,0.363126 z"
         id="path2246" />
      <path
         style="fill:#66765b"
         d="m 42.923903,36.843241 c -0.684985,-0.989275 -0.907644,-1.389063 -0.773632,-1.389063 0.06201,0 0.427914,0.47625 0.813119,1.058334 0.782878,1.183009 0.748723,1.469086 -0.03949,0.330729 z"
         id="path2245" />
      <path
         style="fill:#66765b"
         d="m 80.066432,37.720438 c 0.123407,-0.321592 -0.03961,-0.422231 -0.729269,-0.450208 -0.680463,-0.0276 -0.74086,-0.06391 -0.258232,-0.155235 0.848808,-0.160613 2.540219,0.173769 2.248762,0.444567 -0.128095,0.119015 -0.500041,0.29709 -0.826548,0.395722 -0.46899,0.141673 -0.560274,0.09236 -0.434713,-0.234846 z"
         id="path2244" />
      <path
         style="fill:#66765b"
         d="m 76.464585,40.381367 c 0,-0.05494 0.208359,-0.263302 0.463021,-0.463021 0.419644,-0.329107 0.429002,-0.319749 0.0999,0.0999 -0.345644,0.440729 -0.562916,0.580887 -0.562916,0.363126 z"
         id="path2243" />
      <path
         style="fill:#66765b"
         d="m 39.158337,41.010428 c -0.218281,-0.141064 -0.277813,-0.25648 -0.132292,-0.25648 0.145521,0 0.443177,0.115416 0.661459,0.25648 0.218281,0.141064 0.277812,0.256481 0.132291,0.256481 -0.145521,0 -0.443177,-0.115417 -0.661458,-0.256481 z"
         id="path2242" />
      <path
         style="fill:#66765b"
         d="m 74.347918,42.250554 c 0,-0.04553 0.386953,-0.432487 0.859896,-0.859895 l 0.859896,-0.777106 -0.777105,0.859896 c -0.724371,0.801544 -0.942687,0.981512 -0.942687,0.777105 z"
         id="path2241" />
      <path
         style="fill:#66765b"
         d="m 61.139641,43.501921 c 0.0127,-0.308224 0.07539,-0.370919 0.159852,-0.159852 0.07643,0.190996 0.06703,0.419199 -0.02089,0.507118 -0.08792,0.08792 -0.150453,-0.06835 -0.138964,-0.347266 z"
         id="path2239" />
      <path
         style="fill:#66765b"
         d="m 58.493807,44.031083 c 0.0127,-0.308225 0.07539,-0.370919 0.159853,-0.159852 0.07643,0.190996 0.06703,0.419199 -0.02089,0.507118 -0.08792,0.08792 -0.150453,-0.06835 -0.138965,-0.347266 z"
         id="path2237" />
      <path
         style="fill:#66765b"
         d="m 72.760418,44.053133 c 0.341775,-0.363803 0.680939,-0.661459 0.7537,-0.661459 0.07276,0 -0.147342,0.297656 -0.489116,0.661459 -0.341775,0.363802 -0.680939,0.661458 -0.7537,0.661458 -0.07276,0 0.147342,-0.297656 0.489116,-0.661458 z"
         id="path2236" />
      <path
         style="fill:#66765b"
         d="m 56.641724,44.295667 c 0.0127,-0.308224 0.07539,-0.370919 0.159853,-0.159852 0.07643,0.190996 0.06703,0.419199 -0.02089,0.507118 -0.08792,0.08792 -0.150452,-0.06835 -0.138964,-0.347266 z"
         id="path2235" />
      <path
         style="fill:#66765b"
         d="m 36.88424,44.119278 -0.504028,-0.595312 0.595312,0.504028 c 0.559447,0.473662 0.715762,0.686597 0.504028,0.686597 -0.05021,0 -0.318097,-0.267891 -0.595312,-0.595313 z"
         id="path2234" />
      <path
         style="fill:#66765b"
         d="m 65.095605,44.846887 c 0,-0.145521 0.115416,-0.443178 0.256481,-0.661459 0.141064,-0.218281 0.25648,-0.277812 0.25648,-0.132291 0,0.14552 -0.115416,0.443177 -0.25648,0.661458 -0.141065,0.218281 -0.256481,0.277812 -0.256481,0.132292 z"
         id="path2232" />
      <path
         style="fill:#66765b"
         d="m 60.895945,44.714595 c 0,-0.363802 0.06005,-0.51263 0.133452,-0.330729 0.0734,0.181901 0.0734,0.479557 0,0.661458 -0.0734,0.181901 -0.133452,0.03307 -0.133452,-0.330729 z"
         id="path2231" />
      <path
         style="fill:#66765b"
         d="m 59.287557,45.354006 c 0.0127,-0.308225 0.07539,-0.37092 0.159853,-0.159853 0.07643,0.190996 0.06703,0.419199 -0.02089,0.507118 -0.08792,0.08792 -0.150453,-0.06835 -0.138965,-0.347265 z"
         id="path2229" />
      <path
         style="fill:#66765b"
         d="m 38.344562,45.309906 -0.641433,-0.727604 0.727604,0.641433 c 0.680055,0.599516 0.848939,0.813776 0.641433,0.813776 -0.04739,0 -0.374816,-0.327422 -0.727604,-0.727605 z"
         id="path2228" />
      <path
         style="fill:#66765b"
         d="m 59.862559,45.376052 c 0.0029,-0.582083 0.05712,-0.789054 0.120406,-0.459936 0.06329,0.329119 0.06088,0.805369 -0.0053,1.058334 -0.06622,0.252964 -0.118003,-0.01631 -0.115067,-0.598398 z"
         id="path2226" />
      <path
         style="fill:#66765b"
         d="m 56.936999,45.90522 c 0.0054,-0.436563 0.06469,-0.583125 0.131774,-0.325694 0.06708,0.257431 0.06267,0.614619 -0.0098,0.79375 -0.07247,0.179132 -0.127362,-0.03149 -0.12197,-0.468056 z"
         id="path2223" />
      <path
         style="fill:#66765b"
         d="m 53.356524,45.725982 c -0.23879,-0.607902 -0.379245,-1.160195 -0.31212,-1.22732 0.117912,-0.117912 0.394787,0.498131 0.780807,1.737283 0.314851,1.010697 -0.01035,0.65686 -0.468687,-0.509963 z"
         id="path2221" />
      <path
         style="fill:#66765b"
         d="m 56.153053,46.566674 c 0,-0.509323 0.05445,-0.717682 0.121,-0.463021 0.06655,0.254662 0.06655,0.671381 0,0.926042 -0.06655,0.254661 -0.121,0.0463 -0.121,-0.463021 z"
         id="path2220" />
      <path
         style="fill:#66765b"
         d="m 39.932062,46.632824 -0.641433,-0.727604 0.727604,0.641433 c 0.680055,0.599516 0.848939,0.813775 0.641433,0.813775 -0.04739,0 -0.374816,-0.327422 -0.727604,-0.727604 z"
         id="path2219" />
      <path
         style="fill:#66765b"
         d="m 54.299962,48.418995 c -0.163866,-0.64558 -0.256353,-1.215368 -0.205526,-1.266194 0.161245,-0.161246 0.721604,1.785556 0.61017,2.119858 -0.05869,0.176066 -0.240778,-0.208083 -0.404644,-0.853664 z"
         id="path2217" />
      <path
         style="fill:#66765b"
         d="m 64.569426,50.256102 c 0.0061,-0.210173 0.225535,-0.784592 0.487635,-1.276488 0.351426,-0.659538 0.517343,-0.788041 0.63193,-0.489432 0.08546,0.222708 -0.133975,0.797128 -0.487636,1.276488 -0.353661,0.479361 -0.638029,0.699605 -0.631929,0.489432 z"
         id="path2216" />
      <path
         style="fill:#66765b"
         d="m 60.4618,48.28647 c 0.105057,-1.455208 0.252108,-2.705365 0.32678,-2.778125 0.07467,-0.07276 0.0578,1.051055 -0.03749,2.497369 -0.09529,1.446313 -0.242342,2.696469 -0.32678,2.778125 -0.08444,0.08165 -0.06757,-1.042161 0.03749,-2.497369 z"
         id="path2215" />
      <path
         style="fill:#66765b"
         d="m 64.213753,51.855227 c 0.319802,-0.128789 0.783495,-0.627258 1.030428,-1.107709 1.264526,-2.460351 5.309592,-7.384712 6.025219,-7.33495 0.192312,0.01337 0.181397,0.06891 -0.03034,0.154341 -0.46508,0.187664 -0.41105,0.626298 0.132292,1.073973 0.375443,0.309339 0.383784,0.35716 0.0441,0.252831 -0.424479,-0.130371 -0.454535,-0.07065 -0.597665,1.1876 -0.04412,0.387891 -0.759337,1.725843 -1.589363,2.973226 -0.830025,1.247382 -1.578246,2.448063 -1.662712,2.66818 -0.118143,0.307874 -0.589619,0.396342 -2.043497,0.38344 -1.370563,-0.01216 -1.730134,-0.08112 -1.308463,-0.250932 z"
         id="path2214" />
      <path
         style="fill:#66765b"
         d="m 60.329081,51.952497 c 0.260346,-0.07081 0.57198,-0.869965 0.88865,-2.278866 0.55638,-2.475404 2.352343,-7.528941 2.832751,-7.970887 0.247145,-0.227359 0.272736,-0.173498 0.111053,0.233726 -0.115554,0.291042 -0.372968,1.277836 -0.57203,2.192877 -0.385558,1.772317 -0.141049,2.87984 0.575114,2.605022 0.298594,-0.114581 0.295336,0.07232 -0.01925,1.103958 -0.208283,0.683041 -0.584149,1.926502 -0.835257,2.763247 l -0.456561,1.521354 -1.462713,-0.03069 c -0.804493,-0.01688 -1.282284,-0.07976 -1.06176,-0.139739 z"
         id="path2213" />
      <path
         style="fill:#66765b"
         d="m 50.137861,49.146366 c -0.845078,-1.63711 -1.735262,-3.274219 -1.978188,-3.638021 -0.242925,-0.363802 -0.725301,-1.137708 -1.071946,-1.719792 -0.508479,-0.853834 -0.535651,-0.982047 -0.140621,-0.663533 0.450597,0.363317 0.475574,0.350472 0.313213,-0.161083 -0.112111,-0.353232 -0.03063,-0.676886 0.223505,-0.8878 0.219965,-0.182554 0.334689,-0.437489 0.254943,-0.566521 -0.07975,-0.129032 -0.01891,-0.234604 0.135205,-0.234604 0.154109,0 0.295081,0.119062 0.313271,0.264583 0.01819,0.145521 0.06284,0.383646 0.09922,0.529167 0.03638,0.14552 0.08285,0.413411 0.103271,0.595312 0.02584,0.230176 0.115103,0.210065 0.293604,-0.06615 0.211183,-0.326781 0.257196,-0.330675 0.260532,-0.02205 0.0022,0.206154 0.07971,0.299167 0.172183,0.206694 0.09247,-0.09247 -0.02659,-0.465314 -0.264583,-0.828538 -0.237993,-0.363224 -0.432715,-0.783658 -0.432715,-0.934299 0,-0.567326 0.427049,-0.239439 0.93202,0.715602 0.287754,0.544222 0.89471,1.407425 1.348791,1.918229 0.775131,0.871959 2.129401,3.253283 2.183343,3.839152 0.04857,0.527521 0.632362,1.719791 0.842091,1.719791 0.11823,0 0.162691,0.288262 0.0988,0.640582 -0.173066,0.954403 0.303132,1.948626 0.996842,2.081242 0.335263,0.06409 -0.235497,0.132744 -1.268354,0.152562 l -1.877923,0.03603 z m 2.442567,2.552126 c -0.08792,-0.08792 -0.316122,-0.09732 -0.507118,-0.02089 -0.211067,0.08446 -0.148372,0.147157 0.159853,0.159853 0.278914,0.01149 0.435184,-0.05105 0.347265,-0.138965 z"
         id="path2212" />
      <path
         style="fill:#66765b"
         d="M 43.127087,49.826429 C 41.89016,48.585818 41.021716,47.646295 41.197211,47.7386 c 0.175495,0.09231 0.739417,-0.0078 1.253158,-0.222453 0.864888,-0.361373 0.921317,-0.454076 0.761826,-1.251531 l -0.17225,-0.861249 1.300342,1.098891 c 1.38202,1.167916 1.512533,1.307802 3.4442,3.691534 0.68292,0.842744 1.372898,1.619735 1.533282,1.726647 0.160385,0.106912 -0.660891,0.18702 -1.825058,0.178017 l -2.116666,-0.01637 z"
         id="path2211" />
      <path
         style="fill:#5a6b50"
         d="m 49.550679,42.796366 c -0.396659,-0.51288 -0.646177,-0.992188 -0.516512,-0.992188 0.06461,0 0.312508,0.297657 0.550881,0.661459 0.446043,0.680748 0.421203,0.919783 -0.03437,0.330729 z"
         id="path2077" />
      <path
         style="fill:#5a6b50"
         d="m 56.906307,45.883171 c 0.0127,-0.308224 0.07539,-0.370919 0.159853,-0.159852 0.07643,0.190996 0.06703,0.419199 -0.02089,0.507118 -0.08792,0.08792 -0.150453,-0.06835 -0.138965,-0.347266 z"
         id="path2076" />
      <path
         style="fill:#5a6b50"
         d="m 60.610474,46.147755 c 0.0127,-0.308225 0.07539,-0.37092 0.159852,-0.159853 0.07643,0.190996 0.06703,0.419199 -0.02089,0.507118 -0.08792,0.08792 -0.150453,-0.06835 -0.138964,-0.347265 z"
         id="path2075" />
      <path
         style="fill:#5a6b50"
         d="m 49.994125,48.925268 c -0.162431,-0.303505 -0.245491,-0.601665 -0.184579,-0.662577 0.06091,-0.06091 0.246599,0.18741 0.412639,0.551827 0.364614,0.800242 0.187085,0.886454 -0.22806,0.11075 z"
         id="path2074" />
      <path
         style="fill:#5a6b50"
         d="M 42.994795,49.573866 C 41.976149,48.61099 41.421333,48.044883 41.76187,48.31585 c 0.340536,0.270968 0.816786,0.49427 1.058333,0.496228 0.241546,0.002 0.402692,0.172541 0.358101,0.379074 -0.06168,0.285669 0.0038,0.305117 0.273457,0.08128 0.474944,-0.394169 0.943438,-0.06574 1.053842,0.738785 0.04955,0.361076 0.1834,0.80533 0.297444,0.987231 0.367899,0.586801 0.07807,0.358471 -1.808252,-1.424582 z"
         id="path2071" />
      <path
         style="fill:#5a6b50"
         d="m 64.677896,51.700994 c 0.232068,-0.232068 0.598174,-0.762737 0.813569,-1.179264 0.909011,-1.757834 5.114223,-7.160485 4.357805,-5.598696 -0.161242,0.332919 -0.219016,0.838935 -0.128388,1.12448 0.119347,0.376027 0.04151,0.519172 -0.282322,0.519172 -0.373276,0 -0.391065,0.06752 -0.107732,0.408916 0.186654,0.224904 0.50376,0.345834 0.70468,0.268734 0.242041,-0.09288 0.294469,-0.02998 0.155372,0.186396 -0.115466,0.179619 -0.846629,1.308845 -1.624806,2.509392 l -1.414867,2.182812 h -1.447626 c -1.325002,0 -1.411885,-0.03574 -1.025685,-0.421942 z"
         id="path2070" />
      <path
         style="fill:#5a6b50"
         d="m 60.494784,51.939966 c 0.467051,-0.09141 0.598276,-0.363988 0.746545,-1.550687 0.20151,-1.612838 2.206958,-7.719581 2.238491,-6.81638 0.0111,0.317949 -0.101615,0.898439 -0.250478,1.289978 -0.148862,0.391539 -0.312797,1.857806 -0.364297,3.25837 -0.0515,1.400564 -0.185179,2.766857 -0.297062,3.036205 -0.131512,0.316604 -0.07288,0.572383 0.165861,0.723552 0.235001,0.148802 -0.207978,0.2222 -1.218217,0.201849 -0.873125,-0.01759 -1.332504,-0.08189 -1.020843,-0.142887 z"
         id="path2069" />
      <path
         style="fill:#5a6b50"
         d="m 52.453649,51.930166 c 1.13019,-0.118222 1.122382,-0.102645 0.612782,-1.222482 -0.992982,-2.182058 -2.775955,-6.630112 -2.691493,-6.714574 0.247095,-0.247095 3.600065,6.822338 3.600065,7.590411 0,0.126888 0.148828,0.290758 0.330729,0.364157 0.181901,0.0734 -0.383646,0.122837 -1.256771,0.109863 -1.041201,-0.01547 -1.246063,-0.05931 -0.595312,-0.127375 z"
         id="path2068" />
      <path
         style="fill:#5a6b50"
         d="m 46.767625,51.926966 c 1.609862,-0.09137 1.647808,-0.11029 1.357314,-0.676624 -0.402374,-0.784449 -1.858083,-2.302414 -2.207985,-2.302414 -0.154731,0 -0.43004,-0.238125 -0.611798,-0.529167 -0.254548,-0.407595 -0.617016,-0.529166 -1.577725,-0.529166 -1.195367,0 -1.223194,-0.01685 -0.668892,-0.405101 0.480821,-0.33678 0.535302,-0.518357 0.323042,-1.076644 l -0.25532,-0.671543 0.728814,0.518961 c 0.899709,0.640649 3.125002,2.992527 4.174961,4.412452 0.43042,0.582083 0.902321,1.145807 1.04867,1.252719 0.146349,0.106912 -0.686411,0.173268 -1.850578,0.147458 -2.010674,-0.04458 -2.033734,-0.05164 -0.460503,-0.140931 z"
         id="path2067" />
    </g>
  </g>
</svg>
