<?xml version="1.0" encoding="UTF-8" standalone="no"?>
<!-- Created with Inkscape (http://www.inkscape.org/) -->

<svg
   width="64.41539mm"
   height="58.992348mm"
   viewBox="0 0 64.41539 58.992348"
   version="1.1"
   id="svg1"
   xmlns="http://www.w3.org/2000/svg"
   xmlns:svg="http://www.w3.org/2000/svg">
  <defs
     id="defs1" />
  <g
     id="layer1"
     transform="translate(-55.297918,-112.44792)">
    <g
       id="g3110"
       transform="translate(29.522336,49.920065)">
      <path
         style="fill:#d7e4f1"
         d="m 36.115629,121.44376 -11.377083,-0.13229 1.614599,-0.844 c 2.070227,-1.08216 7.316712,-2.59249 10.919994,-3.14358 1.546182,-0.23648 3.258024,-0.50757 3.804095,-0.60244 l 0.992855,-0.17248 -4.498584,-3.54986 c -2.474221,-1.95242 -4.498584,-3.69585 -4.498584,-3.87429 0,-0.47849 0.641961,-0.64564 2.479592,-0.64564 4.095205,0 9.0752,2.54082 12.23948,6.24465 0.671114,0.78554 1.384337,1.42826 1.584942,1.42826 0.200604,0 0.364735,-0.0335 0.364735,-0.0745 0,-0.041 -0.643081,-1.6781 -1.429068,-3.63802 -2.20773,-5.50517 -3.966316,-9.33302 -5.609326,-12.20963 -1.152561,-2.017914 -1.429843,-2.702932 -1.190842,-2.941933 0.471139,-0.47114 2.711442,0.816166 4.943676,2.840693 3.331542,3.02156 6.294127,8.30572 7.582438,13.52429 0.303638,1.22995 0.59278,2.19557 0.642539,2.14581 0.04976,-0.0498 -0.08242,-1.09195 -0.29373,-2.31598 -0.211309,-1.22403 -0.688153,-4.78535 -1.059654,-7.91405 -0.371502,-3.1287 -0.85118,-7.056414 -1.065953,-8.728259 -0.34313,-2.671004 -0.343435,-3.086779 -0.0025,-3.427699 1.012866,-1.012866 3.769644,3.500078 5.00124,8.187208 0.767799,2.92204 1.165052,5.74966 1.431097,10.18646 l 0.190384,3.175 0.201257,-3.26692 c 0.244472,-3.9684 1.018603,-8.65479 1.929722,-11.68204 1.475071,-4.901006 5.052676,-10.710739 6.300709,-10.231824 0.330919,0.126985 0.414494,0.321615 0.276069,0.642909 -0.961421,2.231525 -2.836953,11.459195 -4.745347,23.347245 -0.08176,0.50933 0.131008,0.0331 0.472822,-1.05833 1.856832,-5.92884 4.812036,-10.41537 8.558087,-12.992721 2.172946,-1.495026 5.060551,-2.295244 5.531676,-1.532948 0.09891,0.160048 -0.07554,0.606533 -0.387683,0.992188 -1.891642,2.337151 -3.314416,4.389361 -4.334569,6.252191 -1.26628,2.31226 -5.271981,10.75495 -5.155604,10.86631 0.380687,0.36425 1.118583,-0.0407 2.477201,-1.35939 2.961432,-2.87445 7.080457,-4.85192 10.960644,-5.262 1.70867,-0.18058 3.170561,0.11226 3.170561,0.63512 0,0.14172 -1.69664,1.3773 -3.770312,2.74574 -2.073672,1.36844 -4.208024,2.8428 -4.743004,3.27635 l -0.972691,0.78827 2.018896,0.31387 c 3.451371,0.53657 8.800061,1.81716 11.671598,2.79443 1.512103,0.51461 2.810505,0.99689 2.885337,1.07172 0.192993,0.19299 -41.492022,0.30049 -55.111696,0.14212 z m 26.501268,-6.41615 c -0.0734,-0.1819 -0.133452,-0.0331 -0.133452,0.33073 0,0.36381 0.06005,0.51263 0.133452,0.33073 0.0734,-0.1819 0.0734,-0.47955 0,-0.66146 z"
         id="path3098" />
      <path
         style="fill:#b5cadf"
         d="m 36.115629,121.44376 -11.377083,-0.13229 1.614599,-0.844 c 2.070227,-1.08216 7.316712,-2.59249 10.919994,-3.14358 1.546182,-0.23648 3.258024,-0.50757 3.804095,-0.60244 l 0.992855,-0.17248 -4.498584,-3.54986 c -2.474221,-1.95242 -4.498584,-3.69585 -4.498584,-3.87429 0,-0.47849 0.641961,-0.64564 2.479592,-0.64564 4.095205,0 9.0752,2.54082 12.23948,6.24465 0.671114,0.78554 1.384337,1.42826 1.584942,1.42826 0.200604,0 0.364735,-0.0335 0.364735,-0.0745 0,-0.041 -0.643081,-1.6781 -1.429068,-3.63802 -2.20773,-5.50517 -3.966316,-9.33302 -5.609326,-12.20963 -1.152561,-2.017914 -1.429843,-2.702932 -1.190842,-2.941933 0.471139,-0.47114 2.711442,0.816166 4.943676,2.840693 3.331542,3.02156 6.294127,8.30572 7.582438,13.52429 0.303638,1.22995 0.59278,2.19557 0.642539,2.14581 0.04976,-0.0498 -0.08242,-1.09195 -0.29373,-2.31598 -0.211309,-1.22403 -0.688153,-4.78535 -1.059654,-7.91405 -0.371502,-3.1287 -0.85118,-7.056414 -1.065953,-8.728259 -0.34313,-2.671004 -0.343435,-3.086779 -0.0025,-3.427699 1.012866,-1.012866 3.769644,3.500078 5.00124,8.187208 0.767799,2.92204 1.165052,5.74966 1.431097,10.18646 l 0.190384,3.175 0.201257,-3.26692 c 0.244472,-3.9684 1.018603,-8.65479 1.929722,-11.68204 1.475071,-4.901006 5.052676,-10.710739 6.300709,-10.231824 0.330919,0.126985 0.414494,0.321615 0.276069,0.642909 -0.961421,2.231525 -2.836953,11.459195 -4.745347,23.347245 -0.08176,0.50933 0.131008,0.0331 0.472822,-1.05833 1.856832,-5.92884 4.812036,-10.41537 8.558087,-12.992721 2.172946,-1.495026 5.060551,-2.295244 5.531676,-1.532948 0.09891,0.160048 -0.07554,0.606533 -0.387683,0.992188 -1.891642,2.337151 -3.314416,4.389361 -4.334569,6.252191 -1.26628,2.31226 -5.271981,10.75495 -5.155604,10.86631 0.380687,0.36425 1.118583,-0.0407 2.477201,-1.35939 2.961432,-2.87445 7.080457,-4.85192 10.960644,-5.262 1.70867,-0.18058 3.170561,0.11226 3.170561,0.63512 0,0.14172 -1.69664,1.3773 -3.770312,2.74574 -2.073672,1.36844 -4.208024,2.8428 -4.743004,3.27635 l -0.972691,0.78827 2.018896,0.31387 c 3.451371,0.53657 8.800061,1.81716 11.671598,2.79443 1.512103,0.51461 2.810505,0.99689 2.885337,1.07172 0.192993,0.19299 -41.492022,0.30049 -55.111696,0.14212 z m 26.501268,-6.41615 c -0.0734,-0.1819 -0.133452,-0.0331 -0.133452,0.33073 0,0.36381 0.06005,0.51263 0.133452,0.33073 0.0734,-0.1819 0.0734,-0.47955 0,-0.66146 z"
         id="path3035" />
      <path
         style="fill:#cfc3ad"
         d="m 36.115629,121.44376 -11.377083,-0.13229 1.614599,-0.844 c 2.070227,-1.08216 7.316712,-2.59249 10.919994,-3.14358 1.546182,-0.23648 3.258024,-0.50757 3.804095,-0.60244 l 0.992855,-0.17248 -4.498584,-3.54986 c -2.474221,-1.95242 -4.498584,-3.69585 -4.498584,-3.87429 0,-0.47849 0.641961,-0.64564 2.479592,-0.64564 4.095205,0 9.0752,2.54082 12.23948,6.24465 0.671114,0.78554 1.384337,1.42826 1.584942,1.42826 0.200604,0 0.364735,-0.0335 0.364735,-0.0745 0,-0.041 -0.643081,-1.6781 -1.429068,-3.63802 -2.20773,-5.50517 -3.966316,-9.33302 -5.609326,-12.20963 -1.152561,-2.017914 -1.429843,-2.702932 -1.190842,-2.941933 0.471139,-0.47114 2.711442,0.816166 4.943676,2.840693 3.331542,3.02156 6.294127,8.30572 7.582438,13.52429 0.303638,1.22995 0.59278,2.19557 0.642539,2.14581 0.04976,-0.0498 -0.08242,-1.09195 -0.29373,-2.31598 -0.211309,-1.22403 -0.688153,-4.78535 -1.059654,-7.91405 -0.371502,-3.1287 -0.85118,-7.056414 -1.065953,-8.728259 -0.34313,-2.671004 -0.343435,-3.086779 -0.0025,-3.427699 1.012866,-1.012866 3.769644,3.500078 5.00124,8.187208 0.767799,2.92204 1.165052,5.74966 1.431097,10.18646 l 0.190384,3.175 0.201257,-3.26692 c 0.244472,-3.9684 1.018603,-8.65479 1.929722,-11.68204 1.475071,-4.901006 5.052676,-10.710739 6.300709,-10.231824 0.330919,0.126985 0.414494,0.321615 0.276069,0.642909 -0.961421,2.231525 -2.836953,11.459195 -4.745347,23.347245 -0.08176,0.50933 0.131008,0.0331 0.472822,-1.05833 1.856832,-5.92884 4.812036,-10.41537 8.558087,-12.992721 2.172946,-1.495026 5.060551,-2.295244 5.531676,-1.532948 0.09891,0.160048 -0.07554,0.606533 -0.387683,0.992188 -1.891642,2.337151 -3.314416,4.389361 -4.334569,6.252191 -1.26628,2.31226 -5.271981,10.75495 -5.155604,10.86631 0.380687,0.36425 1.118583,-0.0407 2.477201,-1.35939 2.961432,-2.87445 7.080457,-4.85192 10.960644,-5.262 1.70867,-0.18058 3.170561,0.11226 3.170561,0.63512 0,0.14172 -1.69664,1.3773 -3.770312,2.74574 -2.073672,1.36844 -4.208024,2.8428 -4.743004,3.27635 l -0.972691,0.78827 2.018896,0.31387 c 3.451371,0.53657 8.800061,1.81716 11.671598,2.79443 1.512103,0.51461 2.810505,0.99689 2.885337,1.07172 0.192993,0.19299 -41.492022,0.30049 -55.111696,0.14212 z m 26.501268,-6.41615 c -0.0734,-0.1819 -0.133452,-0.0331 -0.133452,0.33073 0,0.36381 0.06005,0.51263 0.133452,0.33073 0.0734,-0.1819 0.0734,-0.47955 0,-0.66146 z"
         id="path2991" />
      <path
         style="fill:#cabca5"
         d="m 73.953711,117.99987 c 0.0914,-0.14789 0.277024,-0.2004 0.41249,-0.11668 0.366988,0.22682 0.298558,0.38558 -0.166189,0.38558 -0.22687,0 -0.337705,-0.121 -0.246301,-0.2689 z"
         id="path2818" />
      <path
         style="fill:#cabca5"
         d="m 37.094587,118.48044 c -0.364335,-0.36434 -0.435138,-1.10935 -0.08485,-0.89287 0.199768,0.12347 0.610114,1.21037 0.456959,1.21037 -0.03003,0 -0.19748,-0.14288 -0.372105,-0.3175 z"
         id="path2816" />
      <path
         style="fill:#cabca5"
         d="m 77.390627,118.7983 c -0.08994,-0.14552 -0.04446,-0.26459 0.101061,-0.26459 0.145521,0 0.338168,0.11907 0.428105,0.26459 0.08994,0.14552 0.04446,0.26458 -0.101062,0.26458 -0.14552,0 -0.338168,-0.11906 -0.428104,-0.26458 z"
         id="path2812" />
      <path
         style="fill:#cabca5"
         d="m 34.512553,118.93859 c -0.472515,-0.35739 -0.475896,-0.38913 -0.04227,-0.39687 0.259228,-0.005 0.539857,-0.18701 0.62362,-0.40529 0.179828,-0.46863 1.04133,-0.52867 1.31157,-0.0914 0.111254,0.18001 0.07314,0.23399 -0.0928,0.13143 -0.399241,-0.24674 -1.154456,0.0921 -0.948398,0.42546 0.108096,0.1749 0.0419,0.19755 -0.178774,0.0612 -0.254443,-0.15725 -0.30415,-0.096 -0.181476,0.22371 0.206729,0.53872 0.158938,0.54376 -0.491476,0.0518 z"
         id="path2810" />
      <path
         style="fill:#cabca5"
         d="m 76.127807,119.0796 c -0.07365,-0.28165 0.01294,-0.56843 0.192417,-0.63731 0.221074,-0.0848 0.287034,0.0803 0.2045,0.51208 -0.147416,0.77116 -0.22186,0.79465 -0.396917,0.12523 z"
         id="path2807" />
      <path
         style="fill:#cabca5"
         d="m 36.674972,119.44253 c -0.08885,-0.23154 -0.294036,-0.33003 -0.466063,-0.22371 -0.191081,0.1181 -0.235922,0.0744 -0.118546,-0.11552 0.103833,-0.168 0.0627,-0.30546 -0.09141,-0.30546 -0.154109,0 -0.280198,-0.13752 -0.280198,-0.30559 0,-0.18269 0.194847,-0.12926 0.484492,0.13287 0.266471,0.24115 0.564127,0.35882 0.661458,0.26149 0.09733,-0.0973 0.176966,0.081 0.176966,0.3963 0,0.67485 -0.144799,0.73788 -0.366698,0.15962 z"
         id="path2803" />
      <path
         style="fill:#cabca5"
         d="m 81.361249,119.85917 c -0.09269,-0.14998 0.01351,-0.19434 0.248969,-0.10398 0.458368,0.17589 0.542233,0.36553 0.161648,0.36553 -0.136932,0 -0.32171,-0.11769 -0.410617,-0.26155 z"
         id="path2799" />
      <path
         style="fill:#cabca5"
         d="m 75.272599,119.86325 c 0.09239,-0.47977 -0.138665,-0.66034 -0.726243,-0.56757 -0.109141,0.0172 -0.198438,-0.14726 -0.198438,-0.36554 0,-0.53485 0.353749,-0.50009 0.885035,0.087 0.491659,0.54328 0.560755,0.99647 0.187129,1.22739 -0.137914,0.0852 -0.204281,-0.0863 -0.147483,-0.38126 z"
         id="path2795" />
      <path
         style="fill:#cabca5"
         d="m 73.710232,119.88245 c -0.342009,-0.37792 -0.374919,-0.55247 -0.132419,-0.70234 0.206086,-0.12737 0.254478,-0.0891 0.133913,0.10602 -0.103833,0.16801 -0.07544,0.30547 0.0631,0.30547 0.13854,0 0.320424,0.17859 0.404186,0.39687 0.202632,0.52805 0.07993,0.5003 -0.468783,-0.10602 z"
         id="path2794" />
      <path
         style="fill:#cabca5"
         d="m 32.988893,120.01884 c -0.20426,-0.5323 0.161383,-0.95711 0.504869,-0.58657 0.209227,0.2257 0.197582,0.39625 -0.04236,0.62039 -0.253293,0.23661 -0.361779,0.22868 -0.462508,-0.0338 z"
         id="path2793" />
      <path
         style="fill:#cabca5"
         d="m 82.387556,120.57837 c -0.102837,-0.17892 -0.08955,-0.23705 0.02954,-0.12917 0.119082,0.10788 0.379173,0.0611 0.57798,-0.10385 0.198807,-0.165 0.412706,-0.24875 0.475332,-0.18613 0.06263,0.0626 -0.113326,0.25575 -0.391003,0.42916 -0.393116,0.24551 -0.546254,0.24329 -0.691845,-0.01 z"
         id="path2787" />
      <path
         style="fill:#cabca5"
         d="m 39.605609,120.53027 c -0.211352,-0.21135 -0.457981,-0.31057 -0.548066,-0.22049 -0.09008,0.0901 -0.163789,0.0319 -0.163789,-0.12927 0,-0.16119 0.121004,-0.36785 0.268899,-0.45926 0.147894,-0.0914 0.205483,-0.2688 0.127976,-0.39421 -0.07751,-0.12541 -0.01992,-0.3028 0.127975,-0.3942 0.155989,-0.0964 0.2689,0.12467 0.2689,0.5265 0,0.39441 0.113929,0.62227 0.264583,0.52916 0.145521,-0.0899 0.264583,-0.0304 0.264583,0.13229 0,0.1627 0.117699,0.22308 0.261553,0.13417 0.149982,-0.0927 0.194338,0.0135 0.103984,0.24897 -0.196753,0.51273 -0.482502,0.52043 -0.976598,0.0263 z"
         id="path2786" />
      <path
         style="fill:#cabca5"
         d="m 37.570837,120.64913 c 0,-0.41718 0.462559,-0.53052 0.750282,-0.18384 0.211222,0.25451 0.152918,0.34833 -0.234604,0.37752 -0.283623,0.0214 -0.515678,-0.0658 -0.515678,-0.19368 z"
         id="path2785" />
      <path
         style="fill:#cabca5"
         d="m 35.718754,120.64996 c 0,-0.14552 0.18562,-0.26458 0.41249,-0.26458 0.226869,0 0.338905,0.11906 0.248968,0.26458 -0.08994,0.14552 -0.275557,0.26458 -0.41249,0.26458 -0.136932,0 -0.248968,-0.11906 -0.248968,-0.26458 z"
         id="path2784" />
      <path
         style="fill:#cabca5"
         d="m 34.131254,120.66996 c 0,-0.12538 0.178594,-0.2965 0.396875,-0.38026 0.218281,-0.0838 0.396875,-0.0497 0.396875,0.0757 0,0.12539 -0.178594,0.29651 -0.396875,0.38027 -0.218281,0.0838 -0.396875,0.0497 -0.396875,-0.0757 z"
         id="path2783" />
      <path
         style="fill:#cabca5"
         d="m 27.783539,120.51492 c 0.141739,-0.17079 0.169444,-0.40795 0.06156,-0.52704 -0.107878,-0.11908 -0.05748,-0.13715 0.11199,-0.0402 0.169472,0.097 0.368431,0.0268 0.442132,-0.15602 0.08084,-0.20052 0.142288,-0.14869 0.15489,0.13065 0.031,0.68723 -0.06391,0.83203 -0.569844,0.8693 -0.322362,0.0238 -0.381946,-0.0584 -0.200733,-0.27674 z"
         id="path2782" />
      <path
         style="fill:#cabca5"
         d="m 42.068548,121.11299 c 1.13e-4,-0.10914 0.149034,-0.20026 0.330935,-0.20249 0.252433,-0.003 0.25574,-0.0517 0.01397,-0.20542 -0.208911,-0.1328 -0.232811,-0.33412 -0.0702,-0.59126 0.378075,-0.59785 0.300589,-0.88967 -0.139294,-0.5246 -0.216679,0.17983 -0.332407,0.42656 -0.257173,0.54829 0.07523,0.12173 -0.08483,0.33993 -0.355691,0.48489 -0.351614,0.18818 -0.499611,0.17306 -0.517412,-0.0529 -0.01371,-0.17404 -0.106974,-0.58433 -0.207247,-0.91175 -0.139117,-0.45425 -0.07649,-0.59531 0.264317,-0.59531 0.410102,0 0.411879,-0.0348 0.02173,-0.42491 -0.335084,-0.33508 -0.358084,-0.50542 -0.108801,-0.80579 0.173859,-0.20948 0.481808,-0.3173 0.684333,-0.23958 0.202525,0.0777 0.304683,0.0385 0.227019,-0.0872 -0.07767,-0.12566 -0.453747,-0.22848 -0.83574,-0.22848 -0.417694,0 -0.566551,0.0791 -0.373452,0.19844 0.176593,0.10914 0.213385,0.265 0.08176,0.34634 -0.131625,0.0814 -0.412227,0.0385 -0.623561,-0.0952 -0.675643,-0.42742 -0.879064,-0.26879 -0.372755,0.29068 0.51321,0.56709 0.779061,1.42124 0.362162,1.16358 -0.132747,-0.082 -0.241357,-0.32776 -0.241357,-0.54604 0,-0.21829 -0.110491,-0.32859 -0.245534,-0.24513 -0.135044,0.0835 -0.319232,-0.0804 -0.409308,-0.36425 -0.09007,-0.28381 -0.366537,-0.56417 -0.614361,-0.62304 -0.247824,-0.0589 0.412614,-0.20097 1.46764,-0.31578 1.055026,-0.11481 1.918229,-0.29321 1.918229,-0.39645 0,-0.10324 -1.934765,-1.71811 -4.299479,-3.58859 -2.364713,-1.87049 -4.381965,-3.52281 -4.482781,-3.67184 -0.390721,-0.57754 0.39837,-0.95015 2.012194,-0.95015 3.943577,0 7.820966,1.84653 11.511501,5.48212 3.342191,3.29244 3.459831,3.26942 2.038031,-0.39887 -2.167021,-5.59098 -4.640575,-10.93923 -6.405179,-13.849113 -1.396412,-2.30272 -1.183313,-2.978145 0.6327,-2.005362 1.862437,0.997651 4.742587,3.646635 6.267302,5.764275 2.156818,2.99556 3.716702,6.60982 5.129948,11.88611 0.39712,1.48264 0.34259,0.0484 -0.08691,-2.28587 -0.447119,-2.43002 -1.027925,-7.03273 -1.614621,-12.79538 -0.229641,-2.255569 -0.519675,-4.562182 -0.644522,-5.125802 -0.46742,-2.110175 0.548792,-2.383677 1.965042,-0.52887 2.596898,3.401054 3.935036,8.339732 4.394076,16.217272 0.308348,5.29153 0.441133,6.26892 0.485337,3.57242 0.08238,-5.0256 1.063807,-11.1887 2.436457,-15.300348 1.437457,-4.305778 4.539446,-9.418001 5.714642,-9.418001 0.476921,0 0.436524,0.295213 -0.543086,3.96875 -0.368652,1.382448 -1.149203,5.132916 -1.734556,8.334379 -2.586754,14.14767 -2.912857,16.36023 -1.745661,11.84405 1.319994,-5.10739 3.833998,-9.65034 6.921979,-12.50843 2.641328,-2.444683 6.385128,-4.066434 7.179035,-3.109835 0.252582,0.304343 0.07523,0.654929 -0.916235,1.811215 -1.947961,2.27179 -3.426442,4.73049 -5.69093,9.46394 -1.159126,2.42292 -2.388096,4.96528 -2.731045,5.64969 -0.616152,1.22963 -0.617226,1.24638 -0.09063,1.41352 0.413948,0.13138 0.956469,-0.23981 2.430254,-1.66277 2.9447,-2.84315 6.516562,-4.61217 10.262122,-5.08248 1.852489,-0.2326 3.673759,0.028 3.673759,0.52566 0,0.13745 -0.259906,0.39975 -0.577569,0.58288 -1.177927,0.67908 -7.519082,4.97538 -8.268632,5.60222 l -0.77641,0.6493 0.644118,0.13928 c 1.582969,0.34229 1.622789,0.38473 0.334003,0.35598 -1.381115,-0.0308 -2.348025,0.41422 -2.027341,0.93309 0.09501,0.15373 0.04333,0.19704 -0.116922,0.098 -0.15795,-0.0976 -0.379069,-0.0288 -0.491376,0.15291 -0.248496,0.40207 -0.329598,1.24174 -0.117769,1.21929 0.08421,-0.009 0.331701,-3e-4 0.549982,0.0192 0.344027,0.0307 0.345709,0.0678 0.01263,0.27846 -0.211333,0.13369 -0.48641,0.17993 -0.611282,0.10276 -0.285842,-0.17666 -1.782601,0.42872 -1.782601,0.721 0,0.11934 -5.31804,0.2273 -11.817868,0.23991 l -11.817868,0.0229 -0.74984,-0.7184 c -0.419791,-0.40218 -0.749839,-0.56768 -0.749839,-0.376 0,0.1903 -0.17031,0.27704 -0.383401,0.19527 -0.256254,-0.0983 -0.33461,-0.02 -0.236275,0.23628 0.0828,0.21577 -0.0099,0.39078 -0.211912,0.40028 -2.215988,0.10421 -2.872958,0.0852 -2.872784,-0.083 z m 2.209179,-0.85578 c 0.09475,0.0705 0.109299,0.0454 0.03233,-0.0559 -0.318232,-0.4185 -0.87964,-0.26738 -0.842417,0.22676 0.03413,0.45313 0.07747,0.46725 0.338479,0.11029 0.164635,-0.22515 0.37686,-0.35168 0.471612,-0.28118 z m -1.564415,-2.28042 c -0.07885,-0.12758 -0.303169,-0.0843 -0.498483,0.0961 -0.464622,0.42926 -0.21091,0.84357 0.271441,0.44325 0.203724,-0.16907 0.305893,-0.41179 0.227042,-0.53938 z m 7.572762,-0.59403 c -0.146698,-0.38585 -0.386807,-0.70154 -0.533575,-0.70154 -0.146768,0 -0.06359,0.42624 0.184836,0.9472 0.500445,1.04944 0.769167,0.86015 0.348739,-0.24566 z m -6.629821,0.78607 c 0,-0.055 -0.208359,-0.26331 -0.463021,-0.46303 -0.419643,-0.3291 -0.429002,-0.31974 -0.09989,0.0999 0.345643,0.44073 0.562915,0.58089 0.562915,0.36313 z"
         id="path2777" />
      <path
         style="fill:#cabca5"
         d="m 39.42292,121.17919 c 0,-0.14552 0.126089,-0.26459 0.280198,-0.26459 0.154109,0 0.206614,0.11907 0.116677,0.26459 -0.08994,0.14552 -0.216026,0.26458 -0.280198,0.26458 -0.06417,0 -0.116677,-0.11906 -0.116677,-0.26458 z"
         id="path2776" />
      <path
         style="fill:#cabca5"
         d="m 34.346228,121.26299 c 0.190996,-0.0764 0.419199,-0.067 0.507118,0.0209 0.08792,0.0879 -0.06835,0.15045 -0.347266,0.13896 -0.308224,-0.0127 -0.370919,-0.0754 -0.159852,-0.15985 z"
         id="path2775" />
      <path
         style="fill:#a8aa96"
         d="m 44.714587,119.0402 c -1.382448,-1.30959 -4.061354,-3.62547 -5.953125,-5.1464 -5.69737,-4.58051 -5.747768,-4.62758 -5.401478,-5.04483 0.409033,-0.49286 2.803721,-0.47538 4.974429,0.0363 3.030278,0.71432 5.68649,2.31835 8.49684,5.13107 1.382448,1.38361 2.611688,2.48676 2.731646,2.45144 0.119957,-0.0353 0.140495,0.0614 0.04564,0.21483 -0.152843,0.2473 1.046589,2.64447 1.323171,2.64447 0.109126,0 -0.352768,-1.39186 -0.878027,-2.64583 -0.152388,-0.3638 -0.753584,-1.91161 -1.335991,-3.43958 -0.582407,-1.52797 -1.351842,-3.43297 -1.709857,-4.23334 -0.358015,-0.80036 -1.126854,-2.52677 -1.70853,-3.83645 -0.581677,-1.30969 -1.665572,-3.43244 -2.408657,-4.71723 -0.743084,-1.284779 -1.351062,-2.50517 -1.351062,-2.711974 0,-0.992344 2.089044,0.02008 4.572023,2.215753 3.712786,3.283181 6.365564,7.944001 7.885908,13.855211 0.312078,1.21338 0.630047,2.26568 0.706599,2.33844 0.151093,0.14362 0.08457,-0.39906 -0.723797,-5.90421 -0.295201,-2.0104 -0.779977,-5.93946 -1.077279,-8.73125 -0.960941,-9.023666 -0.926394,-8.118703 -0.309935,-8.118703 1.251672,0 3.595869,4.258984 4.661398,8.468923 0.784935,3.1013 1.211944,6.49105 1.232918,9.78733 0.0088,1.38245 0.114502,2.98979 0.234902,3.57187 0.204016,0.98634 0.220978,0.93875 0.249335,-0.69957 0.07441,-4.299 0.949084,-10.39868 2.033291,-14.17948 0.787992,-2.747841 2.852903,-7.106716 4.19841,-8.862528 0.947076,-1.235882 1.906444,-1.97327 2.193641,-1.686074 0.08113,0.08113 -0.161313,1.251637 -0.538763,2.601124 -0.765581,2.737158 -1.797934,7.904638 -3.238802,16.211948 -1.236938,7.13155 -1.350038,8.2308 -0.544446,5.29167 0.780731,-2.84844 2.204895,-6.25325 3.53503,-8.45136 2.074072,-3.42749 6.508394,-7.003876 9.222053,-7.437808 1.756108,-0.280813 1.879553,0.281059 0.440037,2.002868 -0.667151,0.79798 -1.741609,2.26326 -2.387685,3.25617 -1.362212,2.09349 -6.708197,13.02753 -6.480758,13.25497 0.404064,0.40406 1.078202,0.002 2.960951,-1.76495 2.257805,-2.11921 5.381165,-3.88456 8.073785,-4.56338 1.798613,-0.45344 4.844491,-0.52064 5.434515,-0.1199 0.482394,0.32764 0.373187,0.42 -3.051049,2.58037 -3.508851,2.21375 -4.967519,3.32923 -8.097925,6.19271 l -2.814598,2.57459 -11.340609,-0.003 -11.340609,-0.003 z m 22.586714,-0.76577 c 0.810568,-1.22485 0.833461,-1.32859 0.293194,-1.32859 -0.376368,0 -0.842992,0.84436 -1.060088,1.91823 -0.137477,0.68004 -0.0069,0.57965 0.766894,-0.58964 z"
         id="path2651" />
      <path
         style="fill:#889076"
         d="m 65.616669,121.31459 c 0,-0.0711 0.666808,-1.20209 1.481795,-2.51338 0.920708,-1.4814 2.158499,-3.0104 3.268923,-4.03798 2.103246,-1.94634 5.76205,-3.97001 8.229157,-4.55152 1.750446,-0.41258 4.115608,-0.53381 4.857859,-0.24898 0.428694,0.16451 0.592847,0.89774 0.200982,0.89774 -0.369493,0 -6.43207,4.06223 -8.249133,5.52734 -0.945886,0.76267 -2.577069,2.21227 -3.624851,3.22133 l -1.90506,1.83466 h -2.129836 c -1.17141,0 -2.129836,-0.0581 -2.129836,-0.12921 z"
         id="path2579" />
      <path
         style="fill:#889076"
         d="m 58.904903,121.23599 c -0.186112,-0.30114 0.31189,-10.62148 0.64077,-13.27896 0.380637,-3.07571 1.228258,-6.89311 2.027141,-9.129562 1.000606,-2.801174 3.115921,-6.744828 4.296026,-8.009228 1.673193,-1.792709 1.940464,-1.519859 1.067435,1.089718 -0.693337,2.072458 -1.815907,7.658752 -3.409751,16.968092 -1.548481,9.04439 -1.856683,11.42887 -0.957551,7.40834 1.233018,-5.51353 3.221485,-10.01328 5.813691,-13.15593 1.505228,-1.82486 4.047859,-3.816794 5.799129,-4.543126 1.137732,-0.47187 3.076542,-0.572379 3.076542,-0.159491 0,0.145979 -0.748043,1.211423 -1.662318,2.367657 -0.914274,1.15623 -2.211069,3.09062 -2.881766,4.29864 -1.545829,2.78427 -4.888549,9.93936 -6.338443,13.56744 l -1.112648,2.78418 h -3.114922 c -1.713207,0 -3.172708,-0.0935 -3.243335,-0.20777 z"
         id="path2578" />
      <path
         style="fill:#889076"
         d="m 49.896824,116.08595 c -2.769287,-7.14051 -5.093425,-12.37774 -6.884461,-15.51351 -0.810027,-1.41821 -1.472776,-2.719681 -1.472776,-2.892162 0,-0.971255 2.422021,0.359742 5.0032,2.749462 3.219047,2.98027 5.633602,7.27169 7.208601,12.81194 0.475744,1.67349 0.899274,3.09231 0.941177,3.15295 0.267701,0.38736 0.243324,-0.38086 -0.06879,-2.16788 -0.3983,-2.28047 -1.20395,-8.53218 -1.882916,-14.611114 -0.723713,-6.479567 -0.625583,-7.030467 0.956758,-5.371216 1.99617,2.093195 3.955057,7.89898 4.490396,13.30872 0.255302,2.57989 0.383485,7.3054 0.317584,11.70781 l -0.03268,2.18281 h -1.317876 c -1.149269,0 -1.33559,-0.0762 -1.456342,-0.59531 -0.650418,-2.79635 -0.637975,-2.76907 -0.482611,-1.05834 l 0.15018,1.65365 h -1.695769 -1.695768 z m 5.052669,1.07487 c -0.08446,-0.21107 -0.147156,-0.14837 -0.159852,0.15985 -0.01149,0.27892 0.05104,0.43518 0.138964,0.34727 0.08792,-0.0879 0.09732,-0.31613 0.02089,-0.50712 z"
         id="path2577" />
      <path
         style="fill:#889076"
         d="m 44.404952,118.65374 c -1.648711,-1.53451 -4.81336,-4.225 -7.032553,-5.97886 -2.219192,-1.75387 -4.034895,-3.35047 -4.034895,-3.548 0,-0.56474 1.801669,-0.76337 3.807538,-0.41976 3.732472,0.63937 7.511859,2.79342 10.292578,5.86622 1.390316,1.53634 3.606594,5.00918 4.004618,6.27511 0.183396,0.58329 0.144518,0.59531 -1.926227,0.59531 H 47.40261 Z"
         id="path2576" />
      <path
         style="fill:#75846a"
         d="m 65.881252,121.16356 c 0,-0.15411 0.137459,-0.19524 0.305464,-0.0914 0.193397,0.11953 0.233468,0.0723 0.109223,-0.12874 -0.253378,-0.40997 1.69144,-3.63433 3.212564,-5.32619 2.372727,-2.63904 6.839473,-5.02806 10.450644,-5.58948 2.046856,-0.31821 4.015988,-0.13542 3.851665,0.35755 -0.05285,0.15854 -1.221352,0.99484 -2.596677,1.85844 -3.477015,2.1833 -6.04188,4.13558 -9.017465,6.86377 l -2.548122,2.33626 H 67.7649 c -1.149358,0 -1.883648,-0.10923 -1.883648,-0.2802 z"
         id="path2508" />
      <path
         style="fill:#75846a"
         d="m 61.912502,120.98422 c 0,-0.99373 1.190075,-6.80934 1.767422,-8.63697 2.103506,-6.65878 5.691148,-11.43397 10.149654,-13.509322 1.575524,-0.733375 3.428757,-0.909981 3.428757,-0.326746 0,0.192915 -0.301031,0.633558 -0.668957,0.979206 -0.937001,0.880272 -3.564045,4.795202 -4.700187,7.004412 -1.489045,2.89544 -3.856452,8.00321 -5.702391,12.30313 l -1.079053,2.51354 -1.597622,0.0159 c -1.176717,0.0117 -1.597623,-0.0787 -1.597623,-0.34315 z"
         id="path2507" />
      <path
         style="fill:#75846a"
         d="m 59.004816,117.93803 c 0.0075,-9.64883 1.588416,-17.86366 4.523454,-23.505178 1.154313,-2.218735 2.952119,-4.474508 3.566093,-4.474508 0.460876,0 0.462222,-0.04895 -0.03729,1.355798 -0.913702,2.569541 -2.308807,9.680318 -4.354004,22.192118 -0.60657,3.71078 -1.15392,7.01477 -1.216334,7.34219 -0.09758,0.51191 -0.279581,0.59531 -1.299063,0.59531 h -1.185584 z"
         id="path2506" />
      <path
         style="fill:#75846a"
         d="m 55.464487,118.99636 c -0.892604,-5.13909 -1.482758,-9.23156 -2.012639,-13.95677 -0.301894,-2.69213 -0.735997,-6.305992 -0.964674,-8.030798 -0.30025,-2.264652 -0.335586,-3.216199 -0.127176,-3.42461 0.497749,-0.497748 1.838221,1.089347 3.082989,3.650204 2.126915,4.375694 2.763123,8.005804 2.956119,16.867184 0.104012,4.77572 0.06168,6.54844 -0.156367,6.54844 -0.164442,0 -0.298986,0.17859 -0.298986,0.39688 0,0.28462 -0.29051,0.39687 -1.027091,0.39687 h -1.02709 z"
         id="path2505" />
      <path
         style="fill:#75846a"
         d="m 52.037003,121.24532 c -0.106475,-0.18036 -1.560845,-3.85169 -3.275394,-8.26823 -0.66923,-1.72388 -1.534172,-3.74294 -3.399204,-7.93486 -0.549677,-1.23548 -1.569348,-3.23678 -2.265936,-4.44734 -1.961083,-3.408053 -1.956578,-3.712838 0.03982,-2.694352 2.741984,1.398856 6.333481,5.346382 8.19608,9.008572 1.744121,3.42924 3.199582,8.64246 3.559268,12.74871 l 0.156438,1.78594 h -1.446962 c -0.795829,0 -1.499678,-0.0893 -1.564108,-0.19844 z"
         id="path2504" />
      <path
         style="fill:#75846a"
         d="m 46.025072,120.04937 c -3.302567,-3.11375 -4.23221,-3.92257 -7.395902,-6.43467 -1.81901,-1.44437 -3.753776,-2.95867 -4.299479,-3.36512 -0.545703,-0.40645 -0.992187,-0.89632 -0.992187,-1.08859 0,-0.78009 3.461111,-0.69974 6.059013,0.14065 2.873636,0.9296 6.750361,3.61973 8.64486,5.99882 1.129573,1.41851 3.287793,5.27365 3.287793,5.87284 0,0.15984 -0.784551,0.26828 -1.918229,0.26513 l -1.91823,-0.005 z"
         id="path2503" />
      <path
         style="fill:#6c7b62"
         d="m 36.446358,108.8331 c 0.181901,-0.0734 0.479557,-0.0734 0.661458,0 0.181901,0.0734 0.03307,0.13345 -0.330729,0.13345 -0.363802,0 -0.51263,-0.0601 -0.330729,-0.13345 z"
         id="path2373" />
      <path
         style="fill:#6c7b62"
         d="m 62.483453,118.00368 c 0,-0.3638 0.06005,-0.51263 0.133452,-0.33073 0.0734,0.1819 0.0734,0.47956 0,0.66146 -0.0734,0.1819 -0.133452,0.0331 -0.133452,-0.33073 z"
         id="path2358" />
      <path
         style="fill:#6c7b62"
         d="m 66.622093,121.12624 c 0.398017,-0.39802 0.41974,-1.09983 0.02652,-0.85681 -0.353202,0.21829 0.0269,-0.51925 1.265303,-2.45519 0.491712,-0.76867 0.956921,-1.39758 1.033798,-1.39758 0.07688,0 0.06161,0.12647 -0.03393,0.28105 -0.114929,0.18596 0.208546,0.25311 0.956009,0.19844 0.720499,-0.0527 1.1731,-0.22638 1.249494,-0.47949 0.09667,-0.32029 0.05213,-0.33306 -0.230791,-0.0661 -0.192815,0.1819 -0.46404,0.33073 -0.602723,0.33073 -0.138683,0 0.02241,-0.23812 0.357984,-0.52917 0.335574,-0.29104 0.472854,-0.52916 0.305067,-0.52916 -0.545582,0 -0.322048,-0.95015 0.378189,-1.60753 0.416815,-0.3913 0.648962,-0.49085 0.595312,-0.25528 -0.05435,0.23867 0.130536,0.40129 0.484087,0.42578 0.314616,0.0218 0.742132,0.1049 0.950035,0.18468 0.207903,0.0798 0.545802,0.0388 0.750886,-0.091 0.308774,-0.19547 0.310452,-0.23675 0.0098,-0.2401 -0.273716,-0.003 -0.290568,-0.0915 -0.06844,-0.35913 0.162076,-0.19529 0.216342,-0.43341 0.120591,-0.52916 -0.09575,-0.0957 -0.04202,-0.1741 0.119395,-0.1741 0.161419,0 0.248953,-0.23125 0.19452,-0.5139 -0.0733,-0.38062 0.01052,-0.47189 0.323179,-0.35191 0.258548,0.0992 0.355443,0.0541 0.250024,-0.11651 -0.344559,-0.55751 4.227267,-2.10841 5.498767,-1.86534 0.359428,0.0687 0.693133,0.006 0.741567,-0.13927 0.103032,-0.30909 2.576232,-0.005 2.576232,0.31716 0,0.11453 -1.279922,1.02295 -2.844271,2.01872 -3.721412,2.36883 -5.449848,3.6905 -8.714163,6.66341 l -2.694892,2.45431 h -1.657503 c -1.28917,0 -1.586948,-0.0706 -1.340004,-0.3175 z m 2.430231,-2.95604 c 0.0022,-0.12696 -0.177535,-0.0802 -0.399333,0.10385 -0.221798,0.18407 -0.479009,0.25894 -0.571581,0.16637 -0.09257,-0.0926 -0.339963,0.0768 -0.54976,0.37628 -0.209796,0.29953 -0.309772,0.61627 -0.222169,0.70387 0.0876,0.0876 0.159279,0.0204 0.159279,-0.1494 0,-0.16977 0.132756,-0.30868 0.295013,-0.30868 0.181342,0 0.124729,0.28035 -0.14693,0.7276 -0.288339,0.47472 -0.116362,0.35977 0.4948,-0.33072 0.51521,-0.58209 0.938516,-1.16221 0.940681,-1.28917 z"
         id="path2348" />
      <path
         style="fill:#6c7b62"
         d="m 63.243601,119.6578 c 0.498793,-1.76807 0.498626,-1.78957 -0.01675,-2.14894 -0.338939,-0.23633 -0.514098,-0.65178 -0.50199,-1.19062 0.01621,-0.72162 0.05062,-0.75985 0.268649,-0.29846 0.203472,0.43059 0.222733,0.38972 0.103395,-0.21939 -0.334199,-1.70579 2.119959,-8.15649 4.249692,-11.17021 2.352608,-3.3291 5.985497,-6.048315 8.537996,-6.390676 1.418885,-0.190313 1.567747,0.228789 0.508476,1.431542 -2.844489,3.229784 -5.849649,8.864004 -10.519334,19.722174 l -0.881851,2.05052 H 63.865816 62.73976 Z"
         id="path2347" />
      <path
         style="fill:#6c7b62"
         d="m 59.493715,120.05468 -0.03755,-1.38906 -0.211653,1.05833 c -0.36624,1.83131 -0.0056,-8.28267 0.416402,-11.67892 0.219544,-1.76674 0.742451,-4.5647 1.162016,-6.21771 0.856947,-3.376196 2.935081,-8.33701 3.445292,-8.22442 0.181198,0.03999 0.249722,-0.0563 0.152275,-0.213973 -0.207979,-0.336518 0.909853,-2.029653 1.935306,-2.931328 l 0.716078,-0.629644 -0.67469,0.792789 c -1.169908,1.374688 -1.490163,1.849426 -1.081666,1.60343 0.221495,-0.133383 0.450849,-0.0765 0.595312,0.147649 0.197129,0.305863 0.27699,0.300666 0.495534,-0.03225 0.363803,-0.55419 0.360018,-0.529571 -0.515623,3.353912 -0.431342,1.913008 -1.440192,7.328555 -2.241887,12.034535 -0.801696,4.70599 -1.574842,9.15166 -1.718103,9.87926 -0.14326,0.72761 -0.338554,1.88847 -0.433987,2.57969 -0.168126,1.21774 -0.201344,1.25677 -1.069515,1.25677 h -0.896 z m 6.568286,-26.970965 c -0.08446,-0.211067 -0.147157,-0.148372 -0.159853,0.159852 -0.01149,0.278915 0.05105,0.435185 0.138965,0.347266 0.08792,-0.08792 0.09732,-0.316122 0.02089,-0.507118 z"
         id="path2346" />
      <path
         style="fill:#6c7b62"
         d="m 55.592385,119.52551 c -0.963304,-5.3964 -1.72013,-10.77172 -2.393464,-16.99948 -0.298936,-2.764893 -0.673284,-5.826011 -0.831885,-6.80248 -0.1586,-0.97647 -0.21165,-1.899526 -0.117888,-2.051236 0.560652,-0.907153 2.852501,2.294412 4.08931,5.712501 1.388301,3.836755 1.90726,7.565335 2.020715,14.518305 0.05461,3.34697 0.0051,5.78776 -0.110082,5.42395 -0.200274,-0.63269 -0.217452,-0.61985 -0.394973,0.29521 -0.102076,0.52617 -0.110926,1.15125 -0.01967,1.38907 0.136082,0.35462 -0.01983,0.43239 -0.866861,0.43239 h -1.032784 z"
         id="path2345" />
      <path
         style="fill:#6c7b62"
         d="m 51.783341,120.45155 c -1.077448,-2.54559 -1.819165,-4.38204 -2.805123,-6.94531 -1.817241,-4.72443 -4.183112,-9.94387 -5.884563,-12.98218 -0.895386,-1.598903 -1.545464,-2.98961 -1.444617,-3.090457 0.320201,-0.320201 2.474681,1.009252 4.443832,2.742127 1.046946,0.92133 2.543578,2.60096 3.325849,3.73251 1.600759,2.3155 3.053908,5.29039 2.847257,5.82892 -0.07534,0.19634 -0.02928,0.29041 0.102364,0.20905 0.249361,-0.15411 1.020248,1.98633 1.730384,4.80456 0.227479,0.90278 0.441532,2.77804 0.475672,4.16724 l 0.06207,2.52583 -1.216587,-5e-5 c -1.15477,-5e-5 -1.237927,-0.0505 -1.636541,-0.99224 z"
         id="path2344" />
      <path
         style="fill:#6c7b62"
         d="m 44.846886,118.92334 c -1.455208,-1.37281 -2.541958,-2.49843 -2.414999,-2.50136 0.126959,-0.003 0.0837,-0.18261 -0.09613,-0.39928 -0.179827,-0.21668 -0.42802,-0.33151 -0.55154,-0.25517 -0.123519,0.0763 -1.691684,-1.0263 -3.48481,-2.45031 -1.793127,-1.42401 -3.663544,-2.89483 -4.156483,-3.26849 -0.893838,-0.67755 -0.939969,-1.30499 -0.09595,-1.30499 0.326096,0 0.348074,0.079 0.103829,0.37332 -0.237243,0.28586 -0.235256,0.41941 0.0085,0.57005 0.194665,0.12031 0.249313,0.0851 0.140684,-0.0907 -0.226262,-0.3661 1.484602,0.4635 1.745461,0.84638 0.11643,0.17088 0.196487,0.1792 0.199624,0.0207 0.0029,-0.14552 0.391657,-0.29209 0.863948,-0.32572 0.47229,-0.0336 1.096834,-0.11381 1.387876,-0.17819 0.291041,-0.0644 0.648229,-0.12799 0.79375,-0.14135 0.14552,-0.0134 0.08599,-0.13972 -0.132292,-0.28078 -0.967005,-0.62493 0.410617,-0.18014 2.432008,0.7852 2.332707,1.11402 5.005546,3.26208 6.595084,5.30022 1.079613,1.3843 2.706879,4.22922 2.523795,4.4123 -0.06902,0.069 -0.199838,-0.10876 -0.290711,-0.39508 -0.107697,-0.33932 -0.380113,-0.50747 -0.782425,-0.48296 l -0.617203,0.0376 0.625976,0.92132 c 0.344286,0.50672 0.625975,1.01274 0.625975,1.12448 0,0.11174 -0.625078,0.19768 -1.389062,0.19098 -1.385358,-0.0121 -1.396119,-0.0188 -4.034896,-2.50822 z m -9.657291,-8.42741 c 0,-0.0549 -0.208359,-0.2633 -0.463021,-0.46302 -0.419644,-0.32911 -0.429002,-0.31975 -0.09989,0.0999 0.345644,0.44073 0.562916,0.58089 0.562916,0.36313 z"
         id="path2343" />
      <path
         style="fill:#66765b"
         d="m 52.143808,94.301921 c 0.0127,-0.308225 0.07539,-0.37092 0.159852,-0.159853 0.07643,0.190996 0.06703,0.419199 -0.02089,0.507118 -0.08792,0.08792 -0.150453,-0.06835 -0.138964,-0.347265 z"
         id="path2202" />
      <path
         style="fill:#66765b"
         d="m 65.637557,95.624839 c 0.0127,-0.308224 0.07539,-0.370919 0.159852,-0.159852 0.07643,0.190996 0.06703,0.419199 -0.02089,0.507118 -0.08792,0.08792 -0.150453,-0.06835 -0.138964,-0.347266 z"
         id="path2201" />
      <path
         style="fill:#66765b"
         d="m 62.449772,96.969804 c 0,-0.14552 0.115416,-0.443177 0.25648,-0.661458 0.141064,-0.218281 0.256481,-0.277812 0.256481,-0.132292 0,0.145521 -0.115417,0.443178 -0.256481,0.661459 -0.141064,0.218281 -0.25648,0.277812 -0.25648,0.132291 z"
         id="path2200" />
      <path
         style="fill:#66765b"
         d="m 65.372974,96.947754 c 0.01269,-0.308225 0.07539,-0.370919 0.159852,-0.159853 0.07643,0.190996 0.06703,0.4192 -0.02089,0.507118 -0.08792,0.08792 -0.150453,-0.06835 -0.138964,-0.347265 z"
         id="path2199" />
      <path
         style="fill:#66765b"
         d="m 65.10839,98.006087 c 0.0127,-0.308224 0.07539,-0.370919 0.159853,-0.159852 0.07643,0.190996 0.06703,0.419199 -0.02089,0.507118 -0.08792,0.08792 -0.150453,-0.06835 -0.138965,-0.347266 z"
         id="path2196" />
      <path
         style="fill:#66765b"
         d="m 64.600112,100.80626 c 0,-0.3638 0.06005,-0.51263 0.133452,-0.33073 0.0734,0.1819 0.0734,0.47956 0,0.66146 -0.0734,0.1819 -0.133452,0.0331 -0.133452,-0.33073 z"
         id="path2194" />
      <path
         style="fill:#66765b"
         d="m 64.31464,102.504 c 0.0127,-0.30822 0.07539,-0.37092 0.159853,-0.15985 0.07643,0.191 0.06703,0.4192 -0.02089,0.50712 -0.08792,0.0879 -0.150453,-0.0683 -0.138965,-0.34727 z"
         id="path2192" />
      <path
         style="fill:#66765b"
         d="m 44.044999,102.18798 c -0.424913,-0.83268 -0.759183,-1.66151 -0.742822,-1.84184 0.01636,-0.18034 -0.05667,-0.27448 -0.162289,-0.2092 -0.105621,0.0653 -0.46281,-0.36309 -0.793755,-0.951927 -0.787592,-1.401329 -0.446699,-1.785817 0.951089,-1.072719 0.955389,0.487403 1.030695,0.610337 1.082173,1.766604 0.04449,0.999392 -0.02095,1.213472 -0.334216,1.093262 -0.277479,-0.10648 -0.194047,0.23632 0.290012,1.19156 0.373756,0.73757 0.635191,1.38541 0.580967,1.43963 -0.05422,0.0542 -0.446245,-0.58269 -0.871159,-1.41537 z m 0.140421,-3.366044 c 0,-0.04162 -0.15875,-0.136595 -0.352778,-0.211051 -0.194028,-0.07446 -0.352778,0.02052 -0.352778,0.211051 0,0.190533 0.15875,0.285505 0.352778,0.21105 0.194028,-0.07446 0.352778,-0.169428 0.352778,-0.21105 z"
         id="path2190" />
      <path
         style="fill:#66765b"
         d="m 71.891073,105.6696 c -0.09008,-0.0901 0.0091,-0.33671 0.220486,-0.54806 0.600907,-0.60091 0.455192,-0.90274 -0.343328,-0.71117 -0.400182,0.096 -0.64844,0.0886 -0.551684,-0.0165 0.09676,-0.1051 0.02903,-0.56834 -0.150503,-1.02941 -0.179533,-0.46108 -0.312745,-1.16222 -0.296027,-1.55809 0.02617,-0.61982 -0.02845,-0.67494 -0.393336,-0.39688 -0.233052,0.1776 -0.08395,-0.008 0.331343,-0.41241 0.415291,-0.40442 0.86015,-0.67037 0.988577,-0.59099 0.128427,0.0794 0.319657,0.005 0.424957,-0.16547 0.119572,-0.19347 0.07677,-0.2389 -0.114009,-0.12099 -0.168005,0.10383 -0.305464,0.12641 -0.305464,0.0502 0,-0.0762 0.252493,-0.273731 0.561096,-0.438891 0.308603,-0.165159 0.49736,-0.197162 0.419461,-0.07112 -0.0779,0.126044 0.145857,0.364851 0.497237,0.530671 0.461345,0.21772 0.638873,0.22019 0.638873,0.009 0,-0.199922 0.100568,-0.19203 0.3175,0.0249 0.444885,0.44488 1.009479,0.39547 1.662568,-0.14552 0.30743,-0.254667 0.255573,-0.163878 -0.115239,0.20175 -0.370813,0.36562 -0.733736,0.78234 -0.806496,0.92604 -0.07276,0.1437 -0.217304,0.23293 -0.321207,0.1983 -0.103904,-0.0346 -0.113436,0.13372 -0.02118,0.37413 0.121545,0.31674 0.07124,0.37747 -0.182694,0.22053 -0.208894,-0.1291 -0.286569,-0.11325 -0.192319,0.0392 0.155257,0.25121 -0.669958,1.74771 -0.890013,1.614 -0.06181,-0.0375 -0.08771,-0.0238 -0.05757,0.0306 0.06423,0.1159 -0.952279,2.15005 -1.074423,2.15005 -0.04555,0 -0.156522,-0.0737 -0.246607,-0.16379 z"
         id="path2187" />
      <path
         style="fill:#66765b"
         d="m 53.096868,101.39174 c -0.631777,-6.004483 -0.663611,-6.356714 -0.524835,-5.807026 0.06484,0.25682 0.206892,0.411936 0.315678,0.344702 0.108786,-0.06723 0.175539,0.198892 0.148342,0.591389 -0.0272,0.392497 -5.42e-4,0.529444 0.05924,0.304328 0.05978,-0.225117 0.462679,-0.54292 0.895334,-0.706229 0.734275,-0.277158 0.814084,-0.243868 1.198772,0.500036 0.226669,0.43833 0.343815,0.865274 0.260324,0.948764 -0.08349,0.08349 -0.151801,0.0129 -0.151801,-0.156879 0,-0.169775 -0.148397,-0.278915 -0.329772,-0.242535 -0.455412,0.09135 -0.977724,0.803085 -0.800172,1.09037 0.08033,0.129971 0.193436,0.948773 0.251356,1.81956 0.05792,0.87079 0.114802,1.65873 0.126406,1.75098 0.0116,0.0923 0.007,0.55095 -0.01024,1.01933 -0.02302,0.62568 -0.132525,0.81276 -0.412796,0.70521 -0.293822,-0.11275 -0.400202,0.14751 -0.463021,1.13278 -0.05261,0.82517 -0.252365,-0.34421 -0.562817,-3.29478 z m 0.874083,1.20051 c -0.0022,-0.1819 -0.119467,-0.50932 -0.260532,-0.72761 -0.199862,-0.30926 -0.257374,-0.23625 -0.260531,0.33073 -0.0022,0.40019 0.115011,0.72761 0.260531,0.72761 0.145521,0 0.262761,-0.14883 0.260532,-0.33073 z m 0.143345,-5.968174 c -0.08146,-0.08146 -0.294956,-1.68e-4 -0.474432,0.180653 -0.259362,0.261307 -0.228971,0.291698 0.148112,0.148113 0.260938,-0.09936 0.407781,-0.247304 0.32632,-0.328766 z"
         id="path2186" />
      <path
         style="fill:#66765b"
         d="m 66.690716,105.53945 c 0.138443,-0.25868 0.382016,-0.55087 0.541273,-0.64929 0.208179,-0.12866 0.210395,-0.031 0.0079,0.34735 -0.154919,0.28947 -0.226329,0.58165 -0.158689,0.64929 0.06764,0.0676 -0.04918,0.12298 -0.259601,0.12298 -0.284644,0 -0.318146,-0.1204 -0.130869,-0.47033 z"
         id="path2185" />
      <path
         style="fill:#66765b"
         d="m 57.571851,105.56881 c -0.09652,-0.7276 -0.298476,-1.32292 -0.448791,-1.32292 -0.150315,0 -0.200345,-0.22986 -0.111177,-0.5108 0.08917,-0.28094 -0.02854,-1.24661 -0.261582,-2.14594 -0.233037,-0.89932 -0.369308,-1.689525 -0.302822,-1.75601 0.144004,-0.144004 1.163199,4.10378 1.401109,5.83953 0.0919,0.67048 0.106715,1.21906 0.03292,1.21906 -0.07379,0 -0.21314,-0.59532 -0.30966,-1.32292 z"
         id="path2182" />
      <path
         style="fill:#66765b"
         d="m 63.541779,106.89173 c 0,-0.3638 0.06005,-0.51263 0.133452,-0.33073 0.0734,0.1819 0.0734,0.47956 0,0.66146 -0.0734,0.1819 -0.133452,0.0331 -0.133452,-0.33073 z"
         id="path2181" />
      <path
         style="fill:#66765b"
         d="m 59.847416,107.02402 c 0.0054,-0.43656 0.06469,-0.58313 0.131774,-0.32569 0.06708,0.25743 0.06267,0.61461 -0.0098,0.79375 -0.07248,0.17913 -0.127362,-0.0315 -0.12197,-0.46806 z"
         id="path2180" />
      <path
         style="fill:#66765b"
         d="m 53.771803,107.15631 c 0,-0.50932 0.05445,-0.71768 0.121,-0.46302 0.06655,0.25466 0.06655,0.67138 0,0.92604 -0.06655,0.25466 -0.121,0.0463 -0.121,-0.46302 z"
         id="path2178" />
      <path
         style="fill:#66765b"
         d="m 46.321537,107.07194 c -0.713813,-1.75872 -0.966642,-4.14896 -0.438858,-4.14896 0.199536,0 0.434476,0.1868 0.522088,0.41512 0.105871,0.27589 0.337207,0.35865 0.689766,0.24675 0.690144,-0.21904 0.691065,0.29168 0.0013,0.72245 -0.291041,0.18176 -0.529166,0.53995 -0.529166,0.79599 0,0.25604 -0.119063,0.46552 -0.264583,0.46552 -0.37222,0 -0.32897,0.34185 0.119132,0.94162 0.366808,0.49096 0.37663,0.48554 0.222905,-0.1231 -0.110515,-0.43755 -0.06697,-0.57869 0.139215,-0.45126 0.227636,0.14069 0.372543,2.54316 0.153393,2.54316 -0.02421,0 -0.301048,-0.63328 -0.615195,-1.40729 z"
         id="path2175" />
      <path
         style="fill:#66765b"
         d="m 57.985529,108.74381 c 0,-0.3638 0.06005,-0.51263 0.133452,-0.33073 0.0734,0.1819 0.0734,0.47956 0,0.66146 -0.0734,0.1819 -0.133452,0.0331 -0.133452,-0.33073 z"
         id="path2172" />
      <path
         style="fill:#66765b"
         d="m 54.036387,109.00835 c 0,-0.50932 0.05445,-0.71768 0.121,-0.46302 0.06655,0.25466 0.06655,0.67138 0,0.92604 -0.06655,0.25467 -0.121,0.0463 -0.121,-0.46302 z"
         id="path2169" />
      <path
         style="fill:#66765b"
         d="m 64.566439,109.9344 c 0,-0.14553 0.115416,-0.44318 0.25648,-0.66146 0.141064,-0.21828 0.25648,-0.27782 0.25648,-0.13229 0,0.14552 -0.115416,0.44317 -0.25648,0.66145 -0.141064,0.21829 -0.25648,0.27782 -0.25648,0.1323 z"
         id="path2168" />
      <path
         style="fill:#66765b"
         d="m 79.325392,110.15058 c 0.190996,-0.0764 0.419199,-0.067 0.507118,0.0209 0.08792,0.0879 -0.06835,0.15045 -0.347266,0.13896 -0.308224,-0.0127 -0.370919,-0.0754 -0.159852,-0.15985 z"
         id="path2166" />
      <path
         style="fill:#66765b"
         d="m 47.540131,109.92215 c -0.621551,-1.30341 -0.534111,-1.5252 0.115695,-0.29347 0.295132,0.55944 0.489803,1.06396 0.432602,1.12116 -0.0572,0.0572 -0.303935,-0.31526 -0.548297,-0.82769 z"
         id="path2164" />
      <path
         style="fill:#66765b"
         d="m 48.319148,111.7763 c -0.255318,-0.66535 -0.179999,-0.83702 0.131903,-0.30066 0.154435,0.26558 0.225055,0.53861 0.156933,0.60673 -0.06812,0.0681 -0.198098,-0.0696 -0.288836,-0.30607 z"
         id="path2160" />
      <path
         style="fill:#66765b"
         d="m 80.1055,112.65649 c 0.311867,-0.37577 2.444501,-1.64568 2.444501,-1.45561 0,0.0603 -0.616996,0.49322 -1.371104,0.962 -0.754107,0.46878 -1.237136,0.69091 -1.073397,0.49361 z"
         id="path2159" />
      <path
         style="fill:#66765b"
         d="m 40.481253,112.73479 c 0,-0.11262 0.258592,-0.43158 0.574647,-0.7088 0.316056,-0.27721 0.487623,-0.3552 0.381261,-0.1733 -0.128708,0.22012 -0.01118,0.33073 0.351394,0.33073 0.953489,0 0.598123,0.65861 -0.382446,0.7088 -0.508671,0.026 -0.924856,-0.0448 -0.924856,-0.15743 z"
         id="path2158" />
      <path
         style="fill:#66765b"
         d="m 52.624688,112.91094 c -0.351225,-0.84793 -0.313867,-1.19414 0.113483,-1.05169 0.120107,0.04 0.144188,-0.19809 0.05351,-0.52917 -0.118812,-0.43381 -0.09637,-0.49109 0.08035,-0.20508 0.134867,0.21828 0.326945,0.69453 0.426841,1.05833 0.146117,0.53214 0.122154,0.58387 -0.122563,0.26459 -0.241791,-0.31546 -0.273841,-0.22048 -0.156238,0.46302 0.08137,0.47294 0.105843,0.85989 0.05438,0.85989 -0.05147,0 -0.253859,-0.38695 -0.449758,-0.85989 z"
         id="path2154" />
      <path
         style="fill:#66765b"
         d="m 45.880073,113.4401 -0.504028,-0.59531 0.595312,0.50403 c 0.327422,0.27722 0.595313,0.54511 0.595313,0.59531 0,0.21174 -0.212935,0.0554 -0.686597,-0.50403 z"
         id="path2151" />
      <path
         style="fill:#66765b"
         d="m 63.256307,114.19623 c -0.03643,-0.41168 1.06954,-3.92108 1.195891,-3.79473 0.06652,0.0665 -0.0045,0.45084 -0.157781,0.85404 -0.153298,0.40321 -0.208137,0.9555 -0.121865,1.22732 0.08627,0.27182 0.0397,0.49422 -0.103505,0.49422 -0.1432,0 -0.379949,0.32743 -0.526108,0.72761 -0.146159,0.40018 -0.275143,0.62138 -0.286632,0.49154 z"
         id="path2148" />
      <path
         style="fill:#66765b"
         d="m 39.457613,114.20951 c -0.162077,-0.19529 -0.21005,-0.43971 -0.106608,-0.54315 0.103443,-0.10344 0.01311,-0.12533 -0.200733,-0.0486 -0.223027,0.08 -0.896476,-0.31874 -1.579435,-0.93513 -1.040207,-0.93881 -1.065277,-0.98411 -0.198438,-0.35863 0.545704,0.39376 0.992188,0.57571 0.992188,0.40433 0,-0.17138 0.121005,-0.23682 0.268899,-0.14541 0.147895,0.0914 0.184571,0.30679 0.0815,0.47863 -0.103418,0.17243 0.01608,0.14734 0.266661,-0.056 0.553729,-0.44931 0.62031,-0.3904 0.790197,0.69916 0.149353,0.95787 0.111812,1.01818 -0.314234,0.50482 z"
         id="path2144" />
      <path
         style="fill:#66765b"
         d="m 47.467573,115.0276 -0.504028,-0.59531 0.595312,0.50403 c 0.559447,0.47366 0.715762,0.6866 0.504028,0.6866 -0.05021,0 -0.318097,-0.26789 -0.595312,-0.59532 z"
         id="path2135" />
      <path
         style="fill:#66765b"
         d="m 75.141668,116.31671 c 0,-0.0549 0.20836,-0.2633 0.463021,-0.46302 0.419644,-0.32911 0.429002,-0.31975 0.0999,0.0999 -0.345644,0.44073 -0.562916,0.58088 -0.562916,0.36312 z"
         id="path2133" />
      <path
         style="fill:#66765b"
         d="m 62.72714,116.26231 c 0.0127,-0.30823 0.07539,-0.37092 0.159853,-0.15986 0.07643,0.191 0.06703,0.4192 -0.02089,0.50712 -0.08792,0.0879 -0.150453,-0.0683 -0.138965,-0.34726 z"
         id="path2132" />
      <path
         style="fill:#66765b"
         d="m 59.200553,114.29998 c 0.07353,-1.67349 0.226154,-3.75708 0.339161,-4.63021 0.128957,-0.99636 0.151891,-0.30669 0.06159,1.85209 -0.07913,1.89177 -0.231755,3.97536 -0.339161,4.6302 -0.108846,0.66363 -0.136108,-0.15615 -0.06159,-1.85208 z"
         id="path2130" />
      <path
         style="fill:#66765b"
         d="m 66.99743,120.81646 c 0.02993,-0.36161 0.124825,-0.61395 0.210883,-0.56076 0.08606,0.0532 1.042203,-0.803 2.124768,-1.90264 1.704887,-1.73178 3.900072,-3.52388 4.316473,-3.52388 0.07278,0 0.125598,0.32742 0.117364,0.7276 -0.03599,1.74909 -0.01502,1.78973 0.647146,1.25423 0.327422,-0.26479 -0.581925,0.64108 -2.02077,2.01304 -2.573235,2.45361 -2.639294,2.49574 -4.03318,2.57217 -1.365955,0.0749 -1.415134,0.054 -1.362684,-0.57976 z"
         id="path2118" />
      <path
         style="fill:#66765b"
         d="m 63.105949,120.58386 c 0.73101,-3.54819 3.859077,-11.33675 4.045275,-10.07231 0.06627,0.45005 0.257093,0.57226 0.866445,0.55494 0.429799,-0.0122 0.857301,0.0536 0.950003,0.14633 0.0927,0.0927 0.332217,-0.038 0.532256,-0.29036 0.200038,-0.2524 0.0413,0.21933 -0.352742,1.04829 -0.394046,0.82896 -0.834066,1.4345 -0.977821,1.34566 -0.153567,-0.0949 -0.191687,0.0201 -0.09242,0.27874 0.09292,0.24215 0.06685,0.44028 -0.05793,0.44028 -0.124785,0 -0.210345,0.14883 -0.190134,0.33073 0.02021,0.1819 -0.615686,1.84877 -1.413105,3.70416 l -1.449853,3.37344 h -1.018565 c -1.009102,0 -1.016919,-0.008 -0.841407,-0.8599 z"
         id="path2117" />
      <path
         style="fill:#66765b"
         d="m 59.631697,120.98074 c 0.07486,-0.25466 0.208181,-1.47505 0.296275,-2.71198 0.274348,-3.85209 1.354186,-10.31875 1.723082,-10.31875 0.107416,0 0.269904,0.37301 0.361083,0.8289 l 0.165781,0.82891 0.48924,-0.63047 c 0.269083,-0.34676 0.557152,-0.80906 0.640155,-1.02734 0.353677,-0.93011 0.157339,0.67777 -0.6188,5.06756 -0.446318,2.52435 -0.940775,5.45294 -1.098791,6.50796 l -0.287304,1.91823 h -0.903412 c -0.735853,0 -0.878169,-0.0859 -0.767309,-0.46302 z m 3.206847,-10.3849 c 0.08994,-0.14552 0.03743,-0.26458 -0.116677,-0.26458 -0.154109,0 -0.280198,0.11906 -0.280198,0.26458 0,0.14552 0.05251,0.26459 0.116677,0.26459 0.06417,0 0.190261,-0.11907 0.280198,-0.26459 z m -0.89321,-0.59972 c -0.261307,-0.25936 -0.291698,-0.22897 -0.148112,0.14811 0.09936,0.26094 0.247303,0.40779 0.328765,0.32632 0.08146,-0.0815 1.68e-4,-0.29495 -0.180653,-0.47443 z"
         id="path2116" />
      <path
         style="fill:#66765b"
         d="m 55.750475,120.31928 c -0.07999,-0.61846 -0.452192,-2.91042 -0.827123,-5.09323 -0.632727,-3.68368 -0.828154,-5.48844 -0.508537,-4.69635 0.0734,0.1819 0.262983,0.33073 0.421299,0.33073 0.158316,0 0.505581,0.19704 0.771701,0.43788 0.462249,0.41833 0.483854,0.38219 0.483854,-0.80937 0,-0.76412 0.102487,-1.1839 0.264584,-1.08372 0.14552,0.0899 0.264583,0.56619 0.264583,1.05833 0,0.49215 0.121005,0.9696 0.268899,1.061 0.147895,0.0914 0.219923,0.24726 0.160063,0.34635 -0.05986,0.0991 0.07992,0.35485 0.310631,0.56836 0.371548,0.34386 0.399922,0.33727 0.248368,-0.0577 -0.09411,-0.24524 -0.05724,-0.51625 0.08193,-0.60226 0.139165,-0.086 0.27091,0.11853 0.292766,0.45454 0.02186,0.33601 0.123037,0.0752 0.224845,-0.57969 0.11367,-0.73115 0.188361,0.44309 0.19354,3.04271 0.0046,2.32833 -0.07673,3.87614 -0.180822,3.43958 l -0.189257,-0.79375 -0.204663,0.98634 c -0.112564,0.54248 -0.158993,1.46522 -0.103176,2.05052 l 0.101487,1.06418 h -0.96477 c -0.935822,0 -0.969133,-0.0337 -1.1102,-1.12448 z m 1.871405,-6.35 c 0.01797,-0.6651 -0.03294,-0.76015 -0.22474,-0.41961 -0.13639,0.24215 -0.175522,0.62911 -0.08696,0.85989 0.231609,0.60357 0.285548,0.52738 0.3117,-0.44028 z m -0.55572,-1.30638 c -0.08446,-0.21107 -0.147157,-0.14837 -0.159853,0.15985 -0.01149,0.27892 0.05105,0.43519 0.138965,0.34727 0.08792,-0.0879 0.09732,-0.31612 0.02089,-0.50712 z"
         id="path2115" />
      <path
         style="fill:#66765b"
         d="m 51.190324,118.96323 c -1.682196,-4.16941 -2.259005,-5.76304 -2.036031,-5.62524 0.358015,0.22127 0.748702,-0.18014 1.059441,-1.0885 0.19119,-0.55889 0.200894,-0.8599 0.02772,-0.8599 -0.146539,0 -0.201303,-0.10538 -0.121697,-0.23419 0.07961,-0.1288 0.01334,-0.61113 -0.147268,-1.07184 -0.485705,-1.39329 -0.08478,-1.18482 0.698433,0.36318 0.405031,0.80053 0.857909,1.37985 1.006767,1.28785 0.165628,-0.10236 0.202996,0.009 0.09634,0.2868 -0.09582,0.24971 -0.07614,0.39341 0.04373,0.31932 0.232068,-0.14343 1.098903,1.47876 1.098903,2.05647 0,0.18909 0.176704,0.3438 0.392675,0.3438 0.276216,0 0.314237,-0.0945 0.128201,-0.31867 -0.17663,-0.21282 -0.173214,-0.52773 0.01029,-0.94809 0.260063,-0.59575 0.266791,-0.58931 0.125777,0.12036 -0.08498,0.42765 -0.04418,0.685 0.09496,0.599 0.134169,-0.0829 0.364166,0.32288 0.511105,0.90177 0.146939,0.5789 0.160999,0.98693 0.03124,0.90674 -0.129754,-0.0802 -0.235916,-0.33722 -0.235916,-0.57117 0,-0.23394 -0.07288,-0.35247 -0.161965,-0.26339 -0.153798,0.1538 0.271809,3.09935 0.591078,4.09075 0.128962,0.40045 0.105913,0.41009 -0.16453,0.0688 -0.262473,-0.33122 -0.282296,-0.30933 -0.11983,0.1323 0.107068,0.29104 0.250276,0.8525 0.318239,1.24769 0.11982,0.69672 0.08721,0.71779 -1.075021,0.69446 l -1.19859,-0.0241 z"
         id="path2114" />
      <path
         style="fill:#66765b"
         d="m 45.201374,119.21862 -2.291338,-2.20494 0.702263,-0.52432 c 0.611194,-0.45632 0.655378,-0.58081 0.340712,-0.95996 -0.198853,-0.2396 -0.273748,-0.43564 -0.166433,-0.43564 0.107315,0 8.6e-5,-0.29766 -0.238286,-0.66146 -0.851736,-1.29991 0.07026,-0.61984 2.779977,2.05052 1.513568,1.49159 3.027451,3.218 3.364184,3.83646 l 0.612242,1.12448 -1.405992,-0.0101 c -1.398126,-0.01 -1.41881,-0.0224 -3.697329,-2.21504 z"
         id="path2113" />
      <path
         style="fill:#5a6b50"
         d="m 52.958446,99.747927 c 0,-0.363802 0.06005,-0.51263 0.133452,-0.330729 0.0734,0.181901 0.0734,0.479558 0,0.661462 -0.0734,0.1819 -0.133452,0.0331 -0.133452,-0.330733 z"
         id="path2058" />
      <path
         style="fill:#5a6b50"
         d="m 53.202141,102.504 c 0.0127,-0.30822 0.07539,-0.37092 0.159852,-0.15985 0.07643,0.191 0.06703,0.4192 -0.02089,0.50712 -0.08792,0.0879 -0.150453,-0.0683 -0.138964,-0.34727 z"
         id="path2057" />
      <path
         style="fill:#5a6b50"
         d="m 54.55575,112.58027 c 0.0054,-0.43656 0.06469,-0.58313 0.131773,-0.32569 0.06708,0.25743 0.06267,0.61461 -0.0098,0.79375 -0.07248,0.17913 -0.127362,-0.0315 -0.121969,-0.46806 z"
         id="path2050" />
      <path
         style="fill:#5a6b50"
         d="m 62.195682,114.4103 c 0.01023,-0.42443 0.124034,-1.00982 0.252901,-1.30086 0.156453,-0.35335 0.181997,-0.13356 0.07688,0.66145 -0.185407,1.40222 -0.356137,1.73326 -0.329778,0.63941 z"
         id="path2048" />
      <path
         style="fill:#5a6b50"
         d="m 54.820333,114.4323 c 0.0054,-0.43656 0.06469,-0.58312 0.131774,-0.32569 0.06708,0.25743 0.06267,0.61462 -0.0098,0.79375 -0.07248,0.17913 -0.127362,-0.0315 -0.12197,-0.46806 z"
         id="path2047" />
      <path
         style="fill:#5a6b50"
         d="m 61.964083,116.0198 c 0.0054,-0.43656 0.06469,-0.58312 0.131773,-0.32569 0.06708,0.25743 0.06267,0.61462 -0.0098,0.79375 -0.07248,0.17913 -0.127362,-0.0315 -0.121969,-0.46806 z"
         id="path2045" />
      <path
         style="fill:#5a6b50"
         d="m 58.306222,114.82918 c 0,-1.52797 0.04373,-2.15305 0.09718,-1.38907 0.05345,0.76399 0.05345,2.01415 0,2.77813 -0.05345,0.76398 -0.09718,0.13891 -0.09718,-1.38906 z"
         id="path2044" />
      <path
         style="fill:#5a6b50"
         d="m 50.856336,118.08406 c -0.148189,-0.40761 -0.470655,-1.21736 -0.716593,-1.79944 -0.245938,-0.58209 -0.336515,-0.93928 -0.201283,-0.79375 0.355673,0.38273 1.44958,3.07203 1.307416,3.21419 -0.06606,0.0661 -0.241352,-0.21339 -0.38954,-0.621 z"
         id="path2039" />
      <path
         style="fill:#5a6b50"
         d="m 71.834377,119.06274 c 0.263389,-0.29104 0.53842,-0.52917 0.611181,-0.52917 0.07276,0 -0.08321,0.23813 -0.346598,0.52917 -0.263389,0.29104 -0.53842,0.52917 -0.611181,0.52917 -0.07276,0 0.08321,-0.23813 0.346598,-0.52917 z"
         id="path2038" />
      <path
         style="fill:#5a6b50"
         d="m 63.52089,119.57775 c -0.03455,-0.67992 1.695455,-5.5618 2.57342,-7.26188 0.883985,-1.71175 1.092802,-1.84767 0.440638,-0.28682 -0.505734,1.21039 -1.114558,4.3706 -1.050253,5.45153 0.03695,0.62104 -0.04429,0.77739 -0.344131,0.66233 -0.314294,-0.12061 -0.329762,-0.075 -0.07764,0.22876 0.214638,0.25862 0.22655,0.43395 0.03742,0.55084 -0.152587,0.0943 -0.277431,0.0454 -0.277431,-0.10874 0,-0.58418 -0.761114,-0.24882 -1.015397,0.44741 -0.146159,0.40018 -0.275143,0.54264 -0.286632,0.31657 z"
         id="path2037" />
      <path
         style="fill:#5a6b50"
         d="m 45.499298,119.39347 -1.44617,-1.52135 1.521354,1.44617 c 0.836745,0.79539 1.521354,1.48 1.521354,1.52135 0,0.19639 -0.253,-0.0328 -1.596538,-1.44617 z"
         id="path2034" />
      <path
         style="fill:#5a6b50"
         d="m 66.940775,121.24531 c 0.0022,-0.36825 2.957791,-3.51621 4.418524,-4.70612 1.47533,-1.20179 2.552002,-1.69025 1.242064,-0.56349 -0.515327,0.44326 -0.711013,0.85364 -0.693909,1.45521 0.0131,0.46081 -0.0943,0.83784 -0.23868,0.83784 -0.144376,0 -0.183485,-0.12785 -0.08691,-0.28412 0.09658,-0.15626 -0.07499,-0.12762 -0.38126,0.0636 -0.306269,0.19127 -0.556853,0.45276 -0.556853,0.5811 0,0.12833 0.178594,0.0851 0.396875,-0.0961 0.504112,-0.41837 0.52118,-0.0865 0.02126,0.41342 -0.270389,0.27038 -0.40474,0.28823 -0.479583,0.0637 -0.06199,-0.18597 -0.458094,0.0265 -0.981055,0.52629 -0.482398,0.461 -0.979597,0.77483 -1.104887,0.6974 -0.12529,-0.0774 -0.156894,0.044 -0.07023,0.26983 0.08666,0.22584 0.353189,0.42248 0.592282,0.43699 0.569214,0.0345 -0.698469,0.44164 -1.483516,0.47642 -0.327422,0.0145 -0.594777,-0.0629 -0.594123,-0.17207 z"
         id="path2028" />
      <path
         style="fill:#5a6b50"
         d="m 63.181893,120.72354 c 0.122285,-0.63969 0.15885,-0.66188 0.327077,-0.19844 0.200385,0.55204 0.09963,0.91865 -0.252476,0.91865 -0.116753,0 -0.150323,-0.32409 -0.0746,-0.72021 z"
         id="path2027" />
      <path
         style="fill:#5a6b50"
         d="m 59.619647,121.24531 c 0.06579,-0.10914 0.254863,-1.50812 0.420155,-3.10885 0.165293,-1.60073 0.497893,-4.22011 0.739112,-5.82083 l 0.43858,-2.91042 0.29287,1.45521 c 0.16717,0.83063 0.194879,1.5899 0.06456,1.76902 -0.131012,0.18008 -0.114285,0.52688 0.03925,0.81376 0.188147,0.35155 0.151462,1.00444 -0.123599,2.19972 -0.215137,0.93488 -0.42221,1.88048 -0.460162,2.10132 -0.03795,0.22084 -0.138929,0.51849 -0.224395,0.66145 -0.08546,0.14297 -0.241611,0.78068 -0.346991,1.41715 -0.141295,0.85339 -0.09721,1.21703 0.167917,1.38501 0.250757,0.15889 0.13468,0.22902 -0.383702,0.23185 -0.408771,0.002 -0.689389,-0.0853 -0.623595,-0.19439 z"
         id="path2026" />
      <path
         style="fill:#5a6b50"
         d="m 56.370367,121.0601 c 0.4221,-0.42359 0.305979,-2.71343 -0.146406,-2.88703 -0.253593,-0.0973 -0.406891,0.0119 -0.424617,0.30242 -0.04498,0.73732 -0.725908,-1.58736 -0.719301,-2.4557 0.0059,-0.77353 0.01144,-0.7769 0.217876,-0.13229 0.11651,0.3638 0.223704,0.49989 0.23821,0.30242 0.01516,-0.20639 0.195101,-0.29429 0.423249,-0.20674 0.337446,0.12949 0.396875,-0.26906 0.396875,-2.66162 0,-1.54766 0.04796,-2.76431 0.106578,-2.70368 0.106172,0.10983 0.841425,6.80705 1.034503,9.42301 0.100636,1.36348 0.09517,1.37481 -0.637965,1.32291 -0.466333,-0.033 -0.646955,-0.14518 -0.489002,-0.3037 z"
         id="path2025" />
      <path
         style="fill:#5a6b50"
         d="m 53.181253,121.17917 c -0.363802,-0.11651 -0.508441,-0.22371 -0.32142,-0.23821 0.253054,-0.0196 0.270178,-0.15691 0.06694,-0.53666 -0.150203,-0.28066 -0.327141,-0.93241 -0.393196,-1.44833 -0.06606,-0.51593 -0.249196,-1.17927 -0.40698,-1.4741 -0.157785,-0.29482 -0.208582,-0.53604 -0.112883,-0.53604 0.0957,0 0.03052,-0.17288 -0.144842,-0.38417 -0.175362,-0.2113 -0.243917,-0.62025 -0.152344,-0.90877 0.09184,-0.28935 -0.12639,-1.39247 -0.486677,-2.46009 -1.02705,-3.04339 -1.031449,-3.07565 -0.20985,-1.53863 0.720744,1.34834 2.516718,6.23705 2.964614,8.06979 0.10669,0.43656 0.279973,1.00211 0.385074,1.25677 0.209698,0.5081 -0.07374,0.55543 -1.188438,0.19844 z"
         id="path2024" />
      <path
         style="fill:#5a6b50"
         d="m 49.02917,121.25847 c 0.863008,-0.22366 0.344529,-0.98832 -1.241931,-1.83163 -1.011404,-0.53763 -1.426809,-0.88528 -1.189075,-0.99512 0.20096,-0.0929 0.09749,-0.11912 -0.229932,-0.0584 -0.591679,0.10978 -0.716196,-0.12871 -0.617125,-1.18199 0.02152,-0.22876 -0.470788,-0.99943 -1.094011,-1.7126 -0.956536,-1.09458 -1.009429,-1.20805 -0.339384,-0.72803 1.257179,0.90064 4.504835,4.3349 5.265978,5.56855 l 0.693784,1.12448 -0.863214,-0.0307 c -0.475371,-0.0169 -0.648393,-0.0864 -0.38509,-0.1546 z"
         id="path2023" />
    </g>
  </g>
</svg>
