<?xml version="1.0" encoding="UTF-8" standalone="no"?>
<!-- Created with Inkscape (http://www.inkscape.org/) -->

<svg
   width="64.41539mm"
   height="58.992348mm"
   viewBox="0 0 64.41539 58.992348"
   version="1.1"
   id="svg1"
   xmlns="http://www.w3.org/2000/svg"
   xmlns:svg="http://www.w3.org/2000/svg">
  <defs
     id="defs1" />
  <g
     id="layer1"
     transform="translate(-55.297918,-112.44792)">
    <g
       id="g3109"
       transform="translate(109.72376,49.846148)">
      <path
         style="fill:#d7e4f1"
         d="m -53.033541,121.44376 -2.365841,-0.13229 3.159591,-1.1213 c 3.832841,-1.36022 7.785304,-2.31032 11.863675,-2.85182 l 1.295751,-0.17204 -0.766584,-0.5202 c -1.364805,-0.92616 -2.834547,-1.62221 -5.264501,-2.4932 -1.376926,-0.49355 -2.414579,-1.0188 -2.460272,-1.24538 -0.134376,-0.66633 1.949523,-1.30428 4.312355,-1.32016 3.445327,-0.0232 7.499782,1.64365 9.772938,4.01771 0.554132,0.57873 1.022983,0.8116 1.634039,0.8116 h 0.856934 l -2.471172,-5.11841 c -1.359145,-2.81512 -2.838603,-5.71556 -3.287685,-6.44541 -0.449082,-0.72985 -0.816513,-1.46266 -0.816513,-1.62847 0,-1.23882 4.435972,1.24065 6.908164,3.86131 2.399246,2.54332 3.88106,5.122 5.0959,8.86796 0.09064,0.27948 0.415648,0.46302 0.819923,0.46302 h 0.669763 l -3.21e-4,-2.57969 c -9.01e-4,-7.23989 -2.250793,-17.454553 -4.241341,-19.255975 -0.444229,-0.402021 -0.516464,-0.393712 -1.028479,0.118303 -0.816561,0.816561 -2.229617,0.826129 -2.986392,0.02022 -0.356021,-0.379136 -0.400271,-0.65864 -0.209553,-1.323637 0.132975,-0.463656 0.380415,-1.010065 0.549868,-1.214242 0.250134,-0.301394 0.18624,-0.371232 -0.33964,-0.371232 -0.785674,0 -1.798309,-1.011445 -1.798309,-1.796196 0,-0.646272 1.171888,-1.378804 2.205778,-1.378804 0.558569,0 0.667764,-0.154769 0.818531,-1.160155 0.334753,-2.23229 1.982316,-2.516868 2.936001,-0.507125 0.339664,0.715787 0.504829,0.842766 0.789217,0.606745 0.488364,-0.405306 2.016614,-0.22386 2.247024,0.266785 0.102506,0.218281 0.388436,0.819744 0.635399,1.336585 0.494688,1.035278 0.257598,2.244299 -0.496885,2.533821 -0.270528,0.103811 -0.384976,0.481924 -0.35757,1.181338 0.02573,0.656546 -0.128018,1.214655 -0.425006,1.542823 -0.44558,0.49236 -0.437024,0.585037 0.201737,2.18532 1.317452,3.300601 2.448877,8.605096 2.811346,13.180526 l 0.199124,2.51355 0.03849,-3.07007 c 0.04682,-3.73464 0.475475,-12.596515 0.840258,-17.371075 0.232688,-3.045603 0.212431,-3.615267 -0.153736,-4.323357 -0.353693,-0.683967 -0.530527,-0.788248 -1.096001,-0.646323 -0.62059,0.155759 -0.664167,0.110272 -0.547444,-0.571434 0.06975,-0.407364 0.215927,-0.949022 0.324838,-1.203684 0.157776,-0.368921 0.06617,-0.46302 -0.45074,-0.46302 -0.700063,0 -1.524523,-0.730633 -1.524523,-1.351025 0,-0.693514 0.786441,-1.523294 1.524243,-1.608242 0.661511,-0.07616 0.728625,-0.186714 0.769543,-1.267597 0.0327,-0.863847 0.20166,-1.31115 0.624624,-1.653646 0.318888,-0.25822 0.673077,-0.46949 0.787087,-0.46949 0.307168,0 1.74107,1.393115 1.906307,1.852083 0.114843,0.318991 0.211681,0.331971 0.493456,0.06615 0.51415,-0.485047 1.684703,-0.403131 2.188108,0.153125 0.647229,0.715181 0.545556,1.822874 -0.233598,2.54497 l -0.671481,0.622306 0.671481,0.989482 c 0.793691,1.16957 0.853176,1.992107 0.187626,2.594422 -0.606062,0.548478 -1.324703,0.559288 -1.910947,0.02874 -0.4146,-0.375207 -0.467439,-0.347998 -0.637124,0.328079 -0.101766,0.40547 -0.30115,0.808985 -0.443075,0.896699 -0.407575,0.251895 -0.929138,9.720585 -0.989196,17.958317 -0.03019,4.14104 -0.0065,7.47479 0.05263,7.40833 0.05914,-0.0664 0.371035,-1.66864 0.693106,-3.56041 0.946647,-5.56039 2.198041,-9.95857 3.858124,-13.559897 l 0.884237,-1.918229 h -0.92622 c -0.50942,0 -1.156517,-0.123251 -1.437992,-0.273892 -1.118236,-0.598462 -0.178658,-2.699778 1.358095,-3.037306 0.793887,-0.174366 0.79899,-0.186128 0.366886,-0.845604 -0.462147,-0.705325 -0.376918,-1.961807 0.178464,-2.631002 0.476492,-0.574137 1.527559,-0.411235 2.22882,0.345438 0.609319,0.657466 0.680242,0.674033 1.132679,0.264583 0.546594,-0.494661 1.681456,-0.570345 2.442761,-0.162908 0.6276709,0.33592 0.6661775,1.361157 0.084467,2.248958 -0.408406,0.623308 -0.402188,0.65215 0.1405956,0.65215 0.3123451,0 0.6393466,0.186186 0.72667,0.413747 0.2104447,0.54841 -0.3310159,1.702919 -0.7986628,1.702919 -0.2785568,0 -0.3391588,0.278015 -0.2451158,1.12448 0.105824,0.952511 0.02217,1.220469 -0.54702,1.752151 -0.886196,0.827801 -1.800205,0.599877 -2.658276,-0.662887 l -0.648854,-0.954875 -0.783489,1.553378 c -2.106886,4.177206 -3.675836,10.563116 -4.655743,18.949736 -0.129083,1.10477 -0.08683,1.25677 0.349389,1.25677 0.357231,0 0.801002,-0.61143 1.584268,-2.18282 2.268332,-4.55071 5.477554,-7.85694 9.7266266,-10.02062 2.0818132,-1.06009 2.9994159,-1.19025 2.9994159,-0.42545 0,0.19377 -1.814555,3.08477 -4.0323444,6.42445 -2.2177891,3.33968 -4.0731791,6.16144 -4.1230901,6.27058 -0.04991,0.10914 0.159407,0.19844 0.465149,0.19844 0.345217,0 1.21497,-0.69866 2.29494,-1.84348 2.7024297,-2.86472 6.3231343,-4.86999 10.00800095,-5.54279 2.09397315,-0.38232 2.51857475,-0.36255 2.70605825,0.12602 0.2225959,0.58008 -0.8107126,1.59604 -4.7231653,4.64387 -1.8466669,1.43857 -3.4265493,2.72718 -3.5108498,2.86359 -0.0843,0.1364 0.4145776,0.31615 1.108618,0.39946 3.1341913,0.37618 6.5308117,1.05948 9.3734552,1.88565 3.4866055,1.01332 5.9734357,1.90253 6.1585757,2.20209 0.13546,0.21918 -60.106162,0.24562 -63.996394,0.0281 z m 30.783442,-36.289626 c 0.28754,-0.82484 0.284506,-0.829364 -0.238701,-0.355868 -0.544741,0.492985 -0.715465,1.191328 -0.291243,1.191328 0.131285,0 0.36976,-0.375957 0.529944,-0.83546 z"
         id="path3097" />
      <path
         style="fill:#b5cadf"
         d="m -19.229812,80.510244 c 0.23867,-0.386175 1.206192,-0.607247 1.385795,-0.316644 0.08149,0.131859 -0.02771,0.239744 -0.24268,0.239744 -0.214968,0 -0.598714,0.07976 -0.852769,0.177255 -0.290467,0.111463 -0.398235,0.07421 -0.290346,-0.100355 z"
         id="path3054" />
      <path
         style="fill:#b5cadf"
         d="m -19.835698,81.275846 c -0.0044,-0.336989 -0.1417,-0.862442 -0.305055,-1.167674 l -0.297009,-0.554967 -0.460436,0.610414 c -0.256291,0.339772 -0.593842,0.527964 -0.761324,0.424455 -0.424979,-0.262652 -0.374876,-1.657223 0.06561,-1.826254 0.905066,-0.347306 2.53967,1.799536 2.032641,2.669612 -0.234111,0.401741 -0.267358,0.382892 -0.274429,-0.155586 z"
         id="path3053" />
      <path
         style="fill:#b5cadf"
         d="m -17.065619,81.756261 c -0.08994,-0.145521 -0.03743,-0.264583 0.116677,-0.264583 0.154109,0 0.280198,0.119062 0.280198,0.264583 0,0.145521 -0.0525,0.264583 -0.116676,0.264583 -0.06417,0 -0.190262,-0.119062 -0.280199,-0.264583 z"
         id="path3052" />
      <path
         style="fill:#b5cadf"
         d="m -24.167354,81.954698 c 0.06683,-0.10914 0.412137,-0.198437 0.767351,-0.198437 0.56451,0 0.649675,-0.12495 0.67627,-0.992187 l 0.03043,-0.992188 0.183215,0.935028 c 0.100768,0.514266 0.256073,1.052914 0.34512,1.196997 0.09752,0.157782 -0.29263,0.259434 -0.980992,0.255596 -0.628594,-0.0035 -1.08822,-0.09567 -1.021391,-0.204809 z"
         id="path3051" />
      <path
         style="fill:#b5cadf"
         d="m -17.289395,84.773437 c -0.757266,-1.039482 -1.64762,-1.349351 -2.266871,-0.788936 -0.279633,0.253064 -0.786132,0.420783 -1.125554,0.372709 -0.489171,-0.06928 -0.617132,-0.251238 -0.617132,-0.877534 0,-0.925823 0.635996,-1.174311 1.635923,-0.639167 0.538376,0.288131 0.838259,0.271748 1.883453,-0.102895 l 1.243124,-0.44559 -0.708909,0.592014 -0.708909,0.592015 0.642763,0.742358 c 0.35352,0.408297 0.642763,0.854781 0.642763,0.992187 0,0.362865 -0.0777,0.308136 -0.620651,-0.437161 z"
         id="path3050" />
      <path
         style="fill:#b5cadf"
         d="m -28.21547,88.822344 c 0.09466,-0.377168 0.03763,-0.980915 -0.126732,-1.341659 -0.262674,-0.576505 -0.3761,-0.6207 -0.937051,-0.365114 -0.513723,0.234068 -0.724766,0.204223 -1.082002,-0.153012 -0.399746,-0.399747 -0.403325,-0.484271 -0.03605,-0.851546 0.578523,-0.578523 1.679745,-0.106249 2.229029,0.955949 0.317728,0.614417 0.510124,0.757457 0.727048,0.540533 0.579492,-0.579492 0.799288,-0.282988 0.235271,0.317381 -0.316408,0.336801 -0.575287,0.746493 -0.575287,0.910427 0,0.163934 -0.136427,0.382378 -0.303171,0.485431 -0.212599,0.131394 -0.251752,-0.0175 -0.131055,-0.49839 z"
         id="path3049" />
      <path
         style="fill:#b5cadf"
         d="m -11.079359,89.20806 c -0.385257,-0.699014 -0.314415,-0.910013 0.198998,-0.592707 0.192005,0.118666 0.302411,0.439614 0.245347,0.713218 -0.09408,0.45106 -0.135523,0.439819 -0.444345,-0.120511 z"
         id="path3048" />
      <path
         style="fill:#b5cadf"
         d="m -30.427076,89.56145 c -0.181157,-0.218281 -0.523158,-0.398698 -0.760001,-0.400926 -0.33019,-0.0031 -0.34991,-0.05524 -0.08455,-0.223535 0.219703,-0.139338 0.284335,-0.465468 0.176999,-0.893126 -0.09581,-0.381731 -0.04513,-0.750243 0.116949,-0.850413 0.181434,-0.112133 0.286022,0.122586 0.286022,0.641903 0,0.45027 0.192287,1.112141 0.427304,1.470823 0.468947,0.715703 0.360541,0.885767 -0.162721,0.255274 z"
         id="path3047" />
      <path
         style="fill:#b5cadf"
         d="m -13.534824,89.348052 c -0.435417,-1.36199 -0.435002,-1.366283 0.07161,-0.740643 0.502185,0.620172 0.518111,0.622086 1.099414,0.132099 l 0.589847,-0.497189 -0.572119,0.659566 c -0.314665,0.362761 -0.612321,0.919785 -0.661458,1.237832 -0.06379,0.412881 -0.214596,0.186463 -0.527295,-0.791665 z"
         id="path3046" />
      <path
         style="fill:#b5cadf"
         d="m -11.755197,91.751282 c 0.280726,-0.146022 0.845466,-0.63894 1.254977,-1.095372 0.515256,-0.574293 0.6578562,-0.65189 0.463021,-0.251958 -0.381134,0.782342 -0.366683,0.827958 0.2930433,0.925034 0.3160236,0.0465 0.6227302,0.230761 0.6815703,0.409467 0.077433,0.235174 -0.3501418,0.318484 -1.5480206,0.301622 -1.279457,-0.01801 -1.539183,-0.08354 -1.144591,-0.288793 z"
         id="path3045" />
      <path
         style="fill:#b5cadf"
         d="m -17.025122,91.744282 c 0.06766,-0.109141 0.486879,-0.198438 0.93159,-0.198438 h 0.808564 l -0.448445,-0.684414 c -0.246645,-0.376428 -0.379401,-0.75346 -0.295013,-0.837848 0.08439,-0.08439 0.153432,-0.03076 0.153432,0.119169 0,0.14993 0.302102,0.574702 0.671336,0.943937 l 0.671336,0.671336 -1.307913,0.09235 c -0.719352,0.05079 -1.252551,0.0031 -1.184887,-0.106089 z"
         id="path3044" />
      <path
         style="fill:#b5cadf"
         d="m -26.547863,91.91142 c -0.413048,-0.223843 -0.692003,-0.465981 -0.619901,-0.538083 0.141152,-0.141152 1.767771,0.632476 1.767771,0.84076 0,0.216389 -0.37018,0.118777 -1.14787,-0.302677 z"
         id="path3043" />
      <path
         style="fill:#b5cadf"
         d="m -14.111105,92.95695 c -0.415073,-0.415073 -0.156534,-1.435686 0.418924,-1.653749 1.023706,-0.387922 1.719422,0.732486 0.939271,1.512638 -0.345926,0.345926 -1.077385,0.421921 -1.358195,0.141111 z"
         id="path3042" />
      <path
         style="fill:#b5cadf"
         d="m -32.533386,93.587051 c -0.0057,-0.259781 0.18193,-0.765797 0.416948,-1.124479 0.235018,-0.358682 0.324314,-0.660518 0.198437,-0.670746 -0.405753,-0.03297 0.81125,-0.472771 1.358633,-0.490985 0.404226,-0.01345 0.322604,0.108331 -0.345692,0.515781 -0.481173,0.293364 -1.04206,0.917997 -1.246415,1.388074 -0.2237,0.514574 -0.375676,0.666727 -0.381911,0.382355 z"
         id="path3041" />
      <path
         style="fill:#b5cadf"
         d="m -16.261214,94.174433 c 0.09634,-0.15588 0.327205,-0.225075 0.513034,-0.153766 0.185829,0.07131 0.501208,-0.0099 0.700841,-0.1804 0.298413,-0.254908 0.304786,-0.242457 0.03583,0.07 -0.388264,0.451068 -1.512028,0.688609 -1.249706,0.264163 z"
         id="path3040" />
      <path
         style="fill:#b5cadf"
         d="m -17.767377,94.257823 c -0.127412,-0.627379 -0.08138,-1.012308 0.139464,-1.166145 0.445028,-0.310007 0.959169,0.08206 0.959169,0.731432 0,0.456762 -0.14742,0.633151 -0.529166,0.633151 -0.291042,0 -0.547302,-0.0893 -0.569467,-0.198438 z"
         id="path3039" />
      <path
         style="fill:#b5cadf"
         d="m -31.966004,93.99324 c 0.06976,-0.606281 0.227102,-0.741429 0.943615,-0.810514 0.989352,-0.09539 1.156571,0.393867 0.376042,1.100236 -0.780864,0.706672 -1.418205,0.566748 -1.319657,-0.289722 z"
         id="path3038" />
      <path
         style="fill:#b5cadf"
         d="m -11.97239,96.022568 c -0.291953,-0.170047 -0.459931,-0.582524 -0.454659,-1.116434 l 0.0084,-0.846748 0.653097,0.742358 c 0.985158,1.119803 0.862542,1.843658 -0.206799,1.220824 z"
         id="path3037" />
      <path
         style="fill:#b5cadf"
         d="m -53.033541,121.44376 -2.365841,-0.13229 3.159591,-1.1213 c 3.832841,-1.36022 7.785304,-2.31032 11.863675,-2.85182 l 1.295751,-0.17204 -0.766584,-0.5202 c -1.364805,-0.92616 -2.834547,-1.62221 -5.264501,-2.4932 -1.376926,-0.49355 -2.414579,-1.0188 -2.460272,-1.24538 -0.134376,-0.66633 1.949523,-1.30428 4.312355,-1.32016 3.445327,-0.0232 7.499782,1.64365 9.772938,4.01771 0.554132,0.57873 1.022983,0.8116 1.634039,0.8116 h 0.856934 l -2.471172,-5.11841 c -1.359145,-2.81512 -2.838603,-5.71556 -3.287685,-6.44541 -0.449082,-0.72985 -0.816513,-1.46266 -0.816513,-1.62847 0,-1.23882 4.435972,1.24065 6.908164,3.86131 2.399246,2.54332 3.88106,5.122 5.0959,8.86796 0.09064,0.27948 0.415648,0.46302 0.819923,0.46302 h 0.669763 l -3.21e-4,-2.57969 c -9.39e-4,-7.54934 -2.208138,-17.223646 -4.464474,-19.568104 -0.361056,-0.375158 -0.562289,-0.925209 -0.562289,-1.536969 0,-0.523995 -0.105526,-0.8875 -0.234502,-0.807789 -0.295852,0.182847 -0.573652,-0.826633 -0.372056,-1.351986 0.244286,-0.636597 1.214228,-0.872161 1.572681,-0.381948 0.282075,0.385761 0.43785,0.379348 1.768002,-0.07279 1.30938,-0.445072 2.648089,-0.426001 2.190878,0.03121 -0.188816,0.188816 -0.237462,0.203178 -1.882294,0.555698 -0.582084,0.124752 -1.419776,0.454427 -1.861539,0.732612 -0.731838,0.46085 -0.788138,0.595767 -0.633634,1.518452 0.09326,0.556963 0.400045,1.243136 0.681737,1.524828 0.452522,0.452522 0.572046,0.468384 1.026333,0.136201 0.46851,-0.342583 0.483012,-0.462118 0.163324,-1.3462 -0.192962,-0.533628 -0.281942,-1.039131 -0.197733,-1.12334 0.264671,-0.264672 0.985128,1.793881 0.815202,2.329269 -0.09013,0.283983 0.130647,1.243214 0.497931,2.163391 1.310282,3.282717 2.442491,8.597245 2.804159,13.162565 l 0.199124,2.51355 0.03849,-3.07007 c 0.04673,-3.7278 0.475234,-12.59305 0.838681,-17.351335 0.23493,-3.075718 0.213985,-3.598032 -0.177171,-4.418294 -0.364099,-0.763524 -0.52768,-0.885229 -0.912791,-0.679124 -0.657614,0.351944 -0.675483,0.337558 -0.591852,-0.476499 0.165188,-1.60793 0.245326,-1.797216 0.881618,-2.082383 0.90971,-0.407705 1.073947,-0.153128 0.729049,1.130065 -0.247979,0.922605 -0.224015,1.206807 0.149872,1.777431 0.274515,0.418962 0.596922,0.620951 0.841397,0.527137 0.23025,-0.08835 0.400788,-0.0016 0.406942,0.206943 0.0058,0.19747 0.19518,0.01834 0.420785,-0.398074 0.273153,-0.504171 0.352907,-1.062471 0.238722,-1.671127 -0.166378,-0.88687 -0.153337,-0.904628 0.439111,-0.597952 1.044218,0.540531 1.536622,1.099479 1.536622,1.74428 0,0.762485 -0.194943,0.778116 -0.942745,0.07559 l -0.579976,-0.544858 -0.173057,0.922477 c -0.09518,0.507363 -0.294291,0.962888 -0.442465,1.01228 -0.416574,0.138858 -0.941779,9.526702 -1.003036,17.928913 -0.03019,4.14104 -0.0065,7.47479 0.05263,7.40833 0.05914,-0.0664 0.371035,-1.66864 0.693106,-3.56041 0.69628,-4.08978 1.098918,-5.78479 2.160219,-9.09396 1.25736,-3.920491 2.250082,-5.899948 3.295146,-6.570419 0.499911,-0.320722 0.908928,-0.490693 0.908928,-0.377714 0,0.112979 -0.364212,0.877862 -0.80936,1.699739 -1.801012,3.325215 -3.248874,8.358384 -4.178504,14.525654 -0.891466,5.91408 -0.897979,6.03441 -0.326614,6.03441 0.357231,0 0.801002,-0.61143 1.584268,-2.18282 2.268332,-4.55071 5.477554,-7.85694 9.726627,-10.02062 2.0818132,-1.06009 2.9994159,-1.19025 2.9994159,-0.42545 0,0.19377 -1.814555,3.08477 -4.0323444,6.42445 -2.2177895,3.33968 -4.0731795,6.16144 -4.1230905,6.27058 -0.04991,0.10914 0.159407,0.19844 0.465149,0.19844 0.345217,0 1.21497,-0.69866 2.29494,-1.84348 2.7024301,-2.86472 6.3231347,-4.86999 10.00800135,-5.54279 2.09397315,-0.38232 2.51857475,-0.36255 2.70605825,0.12602 0.2225959,0.58008 -0.8107126,1.59604 -4.7231653,4.64387 -1.8466669,1.43857 -3.4265493,2.72718 -3.5108498,2.86359 -0.0843,0.1364 0.4145776,0.31615 1.108618,0.39946 3.1341913,0.37618 6.5308117,1.05948 9.3734552,1.88565 3.4866055,1.01332 5.9734353,1.90253 6.1585753,2.20209 0.13546,0.21918 -60.106162,0.24562 -63.996394,0.0281 z m 30.955627,-36.458284 c 0.337109,-0.801747 0.329266,-0.838314 -0.127382,-0.593923 -0.267634,0.143233 -0.560147,0.452063 -0.650028,0.686289 -0.480708,1.252706 0.248267,1.166094 0.77741,-0.09237 z"
         id="path3034" />
      <path
         style="fill:#cfc3ad"
         d="m -21.166659,83.50436 c 0,-0.7729 0.744901,-1.116591 1.27378,-0.587712 0.53732,0.53732 0.19914,1.220863 -0.604018,1.220863 -0.530039,0 -0.669762,-0.132086 -0.669762,-0.633151 z"
         id="path3001" />
      <path
         style="fill:#cfc3ad"
         d="m -23.283326,85.460428 c 0.155761,-0.291042 0.342733,-0.529167 0.415494,-0.529167 0.07276,0 0.0049,0.238125 -0.15091,0.529167 -0.155761,0.291041 -0.342733,0.529166 -0.415493,0.529166 -0.07276,0 -0.0049,-0.238125 0.150909,-0.529166 z"
         id="path3000" />
      <path
         style="fill:#cfc3ad"
         d="m -23.211616,86.759037 c 0.257722,-0.150039 0.411788,-0.3647 0.342368,-0.477024 -0.06942,-0.112323 0.04714,-0.204224 0.259018,-0.204224 0.21188,0 0.385237,0.03118 0.385237,0.0693 0,0.213124 -0.879167,0.899615 -1.143378,0.892798 -0.171507,-0.0044 -0.100967,-0.130805 0.156755,-0.280845 z"
         id="path2999" />
      <path
         style="fill:#cfc3ad"
         d="m -28.045826,88.455949 c 0,-0.147221 0.26789,-0.494486 0.595312,-0.771702 l 0.595313,-0.504028 -0.526347,0.661459 c -0.289491,0.363802 -0.557382,0.711067 -0.595313,0.771701 -0.03793,0.06063 -0.06897,-0.01021 -0.06897,-0.15743 z"
         id="path2998" />
      <path
         style="fill:#cfc3ad"
         d="m -26.055412,90.24884 c 0.142199,-0.139178 0.615731,-0.337756 1.052294,-0.441285 1.023876,-0.242809 0.793897,-0.01727 -0.390836,0.383283 -0.506001,0.171079 -0.803657,0.19718 -0.661458,0.058 z"
         id="path2997" />
      <path
         style="fill:#cfc3ad"
         d="m -29.552328,91.110708 c -0.102516,-0.267151 0.02424,-0.574955 0.328334,-0.797316 0.669638,-0.489651 1.029245,-0.322437 1.129596,0.525252 0.0718,0.606543 -0.01411,0.7072 -0.603616,0.7072 -0.393751,0 -0.758659,-0.185862 -0.854314,-0.435136 z"
         id="path2996" />
      <path
         style="fill:#cfc3ad"
         d="m -31.555965,91.777596 c 0.179476,-0.180821 0.39297,-0.262115 0.474432,-0.180653 0.08146,0.08146 -0.06538,0.229406 -0.32632,0.328765 -0.377083,0.143586 -0.407474,0.113195 -0.148112,-0.148112 z"
         id="path2995" />
      <path
         style="fill:#cfc3ad"
         d="m -13.969994,92.815844 c -0.81361,-0.81361 0.264903,-1.994364 1.150405,-1.259462 0.532444,0.441888 0.479957,0.977918 -0.127594,1.30307 -0.637805,0.341343 -0.637863,0.34134 -1.022811,-0.04361 z"
         id="path2994" />
      <path
         style="fill:#cfc3ad"
         d="m -12.049415,95.496991 c -0.284763,-0.460757 0.03956,-0.558335 0.402448,-0.121082 0.20869,0.251455 0.228762,0.403268 0.05332,0.403268 -0.154751,0 -0.359845,-0.126983 -0.455766,-0.282186 z"
         id="path2993" />
      <path
         style="fill:#cfc3ad"
         d="m -53.033541,121.44376 -2.365841,-0.13229 3.159591,-1.1213 c 3.832841,-1.36022 7.785304,-2.31032 11.863675,-2.85182 l 1.295751,-0.17204 -0.766584,-0.5202 c -1.364805,-0.92616 -2.834547,-1.62221 -5.264501,-2.4932 -1.376926,-0.49355 -2.414579,-1.0188 -2.460272,-1.24538 -0.134376,-0.66633 1.949523,-1.30428 4.312355,-1.32016 3.445327,-0.0232 7.499782,1.64365 9.772938,4.01771 0.554132,0.57873 1.022983,0.8116 1.634039,0.8116 h 0.856934 l -2.471172,-5.11841 c -1.359145,-2.81512 -2.838603,-5.71556 -3.287685,-6.44541 -0.449082,-0.72985 -0.816513,-1.46266 -0.816513,-1.62847 0,-1.23882 4.435972,1.24065 6.908164,3.86131 2.399246,2.54332 3.88106,5.122 5.0959,8.86796 0.09064,0.27948 0.415648,0.46302 0.819923,0.46302 h 0.669763 l -3.21e-4,-2.57969 c -7.03e-4,-5.64723 -1.417633,-13.65718 -3.04452,-17.210768 -0.362629,-0.792087 -0.659326,-1.471421 -0.659326,-1.509632 0,-0.03821 0.303126,-0.12742 0.673614,-0.198243 0.564042,-0.107824 0.75307,0.02703 1.162089,0.829051 1.385055,2.715864 3.13061,10.736742 3.231416,14.848442 0.02319,0.94589 0.13373,-0.84005 0.245644,-3.96875 0.225512,-6.30446 0.694436,-14.72381 0.939433,-16.867183 0.138007,-1.207366 0.235032,-1.389063 0.741746,-1.389063 0.388679,0 0.733485,-0.286583 1.034594,-0.859896 l 0.451625,-0.859895 -0.160016,0.791099 c -0.08801,0.435105 -0.276137,0.862867 -0.418062,0.950581 -0.407575,0.251895 -0.929138,9.720585 -0.989196,17.958317 -0.03019,4.14104 -0.0065,7.47479 0.05263,7.40833 0.05914,-0.0664 0.371035,-1.66864 0.693106,-3.56041 0.92134,-5.41174 2.139894,-9.74951 3.750975,-13.352625 0.629214,-1.40721 0.985967,-1.870076 1.705992,-2.213433 l 0.910407,-0.434143 -0.897157,1.782392 c -2.229102,4.428579 -3.770528,10.626469 -4.769791,19.178749 -0.129083,1.10477 -0.08683,1.25677 0.349389,1.25677 0.357231,0 0.801002,-0.61143 1.584268,-2.18282 2.268332,-4.55071 5.477554,-7.85694 9.726627,-10.02062 2.0818132,-1.06009 2.9994159,-1.19025 2.9994159,-0.42545 0,0.19377 -1.814555,3.08477 -4.0323444,6.42445 -2.2177895,3.33968 -4.0731795,6.16144 -4.1230905,6.27058 -0.04991,0.10914 0.159407,0.19844 0.465149,0.19844 0.345217,0 1.21497,-0.69866 2.29494,-1.84348 2.7024301,-2.86472 6.3231347,-4.86999 10.00800135,-5.54279 2.09397315,-0.38232 2.51857475,-0.36255 2.70605825,0.12602 0.2225959,0.58008 -0.8107126,1.59604 -4.7231653,4.64387 -1.8466669,1.43857 -3.4265493,2.72718 -3.5108498,2.86359 -0.0843,0.1364 0.4145776,0.31615 1.108618,0.39946 3.1341913,0.37618 6.5308117,1.05948 9.3734552,1.88565 3.4866055,1.01332 5.9734353,1.90253 6.1585753,2.20209 0.13546,0.21918 -60.106162,0.24562 -63.996394,0.0281 z"
         id="path2990" />
      <path
         style="fill:#cabca5"
         d="m -21.16666,83.50436 c 0,-0.7729 0.744901,-1.116591 1.27378,-0.587712 0.53732,0.53732 0.19914,1.220863 -0.604018,1.220863 -0.530039,0 -0.669762,-0.132086 -0.669762,-0.633151 z"
         id="path2825" />
      <path
         style="fill:#cabca5"
         d="m -28.045826,88.447338 c 0,-0.151956 0.208359,-0.43969 0.463021,-0.639409 0.428295,-0.335893 0.43391,-0.323441 0.07487,0.16604 -0.213484,0.291042 -0.421843,0.578776 -0.463021,0.63941 -0.04118,0.06063 -0.07487,-0.01408 -0.07487,-0.166041 z"
         id="path2824" />
      <path
         style="fill:#cabca5"
         d="m -26.055412,90.24884 c 0.142199,-0.139178 0.615731,-0.337756 1.052294,-0.441285 1.023876,-0.242809 0.793897,-0.01727 -0.390836,0.383283 -0.506001,0.171079 -0.803657,0.19718 -0.661458,0.058 z"
         id="path2823" />
      <path
         style="fill:#cabca5"
         d="m -29.552328,91.110708 c -0.102516,-0.267151 0.02424,-0.574955 0.328334,-0.797316 0.669638,-0.489651 1.029245,-0.322437 1.129596,0.525252 0.0718,0.606543 -0.01411,0.7072 -0.603616,0.7072 -0.393751,0 -0.758659,-0.185862 -0.854314,-0.435136 z"
         id="path2822" />
      <path
         style="fill:#cabca5"
         d="m -31.555965,91.777596 c 0.179476,-0.180821 0.39297,-0.262115 0.474432,-0.180653 0.08146,0.08146 -0.06538,0.229406 -0.32632,0.328765 -0.377083,0.143586 -0.407474,0.113195 -0.148112,-0.148112 z"
         id="path2821" />
      <path
         style="fill:#cabca5"
         d="m -14.03943,92.57331 c -0.236846,-0.442551 -0.215351,-0.644405 0.102466,-0.962222 0.46242,-0.46242 1.170925,-0.280634 1.418252,0.363891 0.104904,0.273373 -0.01723,0.577517 -0.321154,0.799751 -0.66353,0.485186 -0.848748,0.454085 -1.199564,-0.20142 z"
         id="path2820" />
      <path
         style="fill:#cabca5"
         d="m -12.049415,95.496991 c -0.284763,-0.460757 0.03956,-0.558335 0.402448,-0.121082 0.20869,0.251455 0.228762,0.403268 0.05332,0.403268 -0.154751,0 -0.359845,-0.126983 -0.455766,-0.282186 z"
         id="path2819" />
      <path
         style="fill:#cabca5"
         d="m -3.4395775,118.53334 c 0,-0.14552 0.1190624,-0.26458 0.2645833,-0.26458 0.1455208,0 0.2645833,0.11906 0.2645833,0.26458 0,0.14552 -0.1190625,0.26459 -0.2645833,0.26459 -0.1455209,0 -0.2645833,-0.11907 -0.2645833,-0.26459 z"
         id="path2815" />
      <path
         style="fill:#cabca5"
         d="m -40.044504,118.93865 c -0.235925,-0.61481 0.299187,-0.74319 0.617629,-0.14817 0.226182,0.42262 0.206919,0.53657 -0.09071,0.53657 -0.207832,0 -0.444946,-0.17478 -0.526919,-0.3884 z"
         id="path2809" />
      <path
         style="fill:#cabca5"
         d="m -41.405411,119.0655 c -0.09269,-0.14998 0.01351,-0.19434 0.248969,-0.10398 0.458368,0.17589 0.542233,0.36553 0.161648,0.36553 -0.136933,0 -0.32171,-0.11769 -0.410617,-0.26155 z"
         id="path2808" />
      <path
         style="fill:#cabca5"
         d="m -2.7508657,119.37119 c -0.074947,-0.12127 0.031851,-0.22049 0.2373298,-0.22049 0.2054787,0 0.3122771,0.0992 0.2373297,0.22049 -0.074947,0.12127 -0.1817457,0.22049 -0.2373297,0.22049 -0.055584,0 -0.1623824,-0.0992 -0.2373298,-0.22049 z"
         id="path2806" />
      <path
         style="fill:#cabca5"
         d="m 1.1906305,119.59159 c 0.089937,-0.14552 0.2160261,-0.26459 0.2801983,-0.26459 0.064172,0 0.1166767,0.11907 0.1166767,0.26459 0,0.14552 -0.1260892,0.26458 -0.2801982,0.26458 -0.154109,0 -0.2066136,-0.11906 -0.1166768,-0.26458 z"
         id="path2802" />
      <path
         style="fill:#cabca5"
         d="m -42.597909,119.61989 c 0,-0.12995 0.195435,-0.31127 0.434299,-0.40293 0.363133,-0.13934 0.379502,-0.10063 0.09989,0.23628 -0.381034,0.45912 -0.534194,0.5069 -0.534194,0.16665 z"
         id="path2801" />
      <path
         style="fill:#cabca5"
         d="m -44.976947,119.86317 c -0.288696,-0.18252 -0.31597,-0.32821 -0.101577,-0.5426 0.214393,-0.2144 0.331469,-0.14631 0.436039,0.25356 0.07862,0.30066 0.124334,0.54483 0.101577,0.5426 -0.02276,-0.002 -0.218974,-0.11633 -0.436039,-0.25356 z"
         id="path2798" />
      <path
         style="fill:#cabca5"
         d="m 4.497922,120.12076 c 0,-0.14552 0.1260892,-0.26458 0.2801983,-0.26458 0.154109,0 0.2066135,0.11906 0.1166767,0.26458 -0.089937,0.14552 -0.216026,0.26459 -0.2801982,0.26459 -0.064172,0 -0.1166768,-0.11907 -0.1166768,-0.26459 z"
         id="path2792" />
      <path
         style="fill:#cabca5"
         d="m -1.322911,120.12076 c -0.2182812,-0.14106 -0.2778125,-0.25648 -0.1322917,-0.25648 0.1455209,0 0.4431771,0.11542 0.66145834,0.25648 0.21828124,0.14107 0.27781249,0.25648 0.13229166,0.25648 -0.14552082,0 -0.4431771,-0.11541 -0.6614583,-0.25648 z"
         id="path2791" />
      <path
         style="fill:#cabca5"
         d="m -3.8805497,119.9989 c 0,-0.16403 0.1587499,-0.44654 0.3527777,-0.62779 0.2874535,-0.26852 0.3527778,-0.21329 0.3527778,0.29825 0,0.34677 -0.1579151,0.62779 -0.3527778,0.62779 -0.1940278,0 -0.3527777,-0.13421 -0.3527777,-0.29825 z"
         id="path2790" />
      <path
         style="fill:#cabca5"
         d="m -46.70983,120.10316 c -0.09592,-0.1552 -0.117655,-0.33893 -0.0483,-0.40829 0.06936,-0.0694 0.196603,0.0576 0.282774,0.28219 0.178907,0.46623 0.02642,0.54823 -0.234473,0.1261 z"
         id="path2789" />
      <path
         style="fill:#cabca5"
         d="m -2.5576332,120.52932 c 0,-0.21188 0.099219,-0.32392 0.2204861,-0.24897 0.1212674,0.075 0.2204861,0.2483 0.2204861,0.38524 0,0.13693 -0.099219,0.24896 -0.2204861,0.24896 -0.1212673,0 -0.2204861,-0.17335 -0.2204861,-0.38523 z"
         id="path2781" />
      <path
         style="fill:#cabca5"
         d="m -43.986971,120.73933 c 0.181901,-0.0734 0.479557,-0.0734 0.661458,0 0.181901,0.0734 0.03307,0.13345 -0.330729,0.13345 -0.363802,0 -0.51263,-0.0601 -0.330729,-0.13345 z"
         id="path2780" />
      <path
         style="fill:#cabca5"
         d="m -9.0454366,121.26299 c 0.1909961,-0.0764 0.4191992,-0.067 0.507118,0.0209 0.087919,0.0879 -0.068351,0.15045 -0.3472656,0.13896 -0.3082245,-0.0127 -0.3709192,-0.0754 -0.1598524,-0.15985 z"
         id="path2774" />
      <path
         style="fill:#cabca5"
         d="m -41.240397,120.99756 c -0.199254,-0.21604 -0.577299,-0.33657 -0.8401,-0.26784 -0.327717,0.0857 -0.433588,0.01 -0.337017,-0.24198 0.07744,-0.20181 0.252106,-0.36693 0.388142,-0.36693 0.311665,0 1.416757,1.01494 1.264292,1.16115 -0.06217,0.0596 -0.276063,-0.0684 -0.475317,-0.2844 z"
         id="path2773" />
      <path
         style="fill:#cabca5"
         d="m -34.574975,121.17918 c -0.252745,-0.23627 -0.346925,-0.25867 -0.232721,-0.0554 0.150899,0.26863 -0.27874,0.33067 -2.01325,0.29074 -1.212798,-0.0279 -2.05626,-0.10223 -1.874359,-0.16512 0.181901,-0.0629 0.330729,-0.23052 0.330729,-0.3725 0,-0.14198 -0.114219,-0.18756 -0.253821,-0.10128 -0.318191,0.19665 -1.333679,-0.41754 -1.333679,-0.80665 0,-0.15902 0.178594,-0.30897 0.396875,-0.33323 0.218282,-0.0242 0.551627,-0.0639 0.740768,-0.0882 0.468224,-0.06 0.505768,-0.99612 0.05791,-1.44398 -0.200204,-0.2002 -0.818997,-0.38189 -1.375094,-0.40374 l -1.011087,-0.0397 1.190625,-0.1587 1.190625,-0.1587 -0.79375,-0.5618 c -1.263455,-0.89425 -3.907548,-2.15358 -6.003772,-2.85947 -1.066632,-0.35919 -1.933727,-0.80429 -1.933727,-0.99264 0,-0.98375 4.272462,-1.62218 6.975902,-1.04239 2.029561,0.43526 4.70126,1.80835 6.518949,3.35035 1.313653,1.1144 1.773345,1.36066 2.33835,1.25265 0.386791,-0.0739 0.703256,-0.16826 0.703256,-0.20961 0,-0.2061 -5.270694,-10.74847 -5.91666,-11.83443 -1.019779,-1.71439 -0.503503,-1.86121 1.99879,-0.56844 1.352831,0.69892 2.52944,1.60693 3.91787,3.02347 2.240301,2.28567 3.400005,4.08162 4.662744,7.22088 0.758609,1.88596 0.961383,2.17431 1.582683,2.25062 l 0.712599,0.0875 -0.156814,-4.45315 c -0.218365,-6.20111 -1.263397,-11.74396 -2.920698,-15.491415 l -0.653509,-1.4777 0.658682,-0.125915 c 0.573932,-0.109714 0.726893,0.03164 1.188813,1.098605 1.591527,3.676187 2.890423,10.035875 3.195178,15.644315 0.03558,0.65484 0.159507,-1.60735 0.275387,-5.02709 0.207609,-6.1268 0.534831,-12.189015 0.874741,-16.205725 0.160661,-1.898532 0.21764,-2.050521 0.768717,-2.050521 0.419053,0 0.698077,-0.24838 0.942842,-0.839294 0.191206,-0.461612 0.394092,-0.699959 0.450858,-0.52966 0.05677,0.170299 -0.128575,0.696809 -0.411871,1.170023 -0.427476,0.714053 -0.566748,1.737907 -0.818851,6.019764 -0.375095,6.370813 -0.361941,20.978503 0.01692,18.785413 1.128535,-6.53274 2.432427,-11.70368 3.769493,-14.948954 1.036078,-2.514727 1.362809,-3.01802 2.226956,-3.43037 l 0.886741,-0.423131 -0.533032,0.868417 c -0.880318,1.434216 -2.401717,5.341158 -3.096703,7.952308 -0.65319,2.45412 -1.774383,8.68784 -2.109953,11.73113 -0.162541,1.47408 -0.131473,1.62935 0.351292,1.7556 0.448211,0.1172 0.71031,-0.23298 1.705428,-2.27857 1.412446,-2.90345 3.076382,-5.1035 5.292277,-6.99742 2.8413517,-2.4285 6.2729163,-4.24555 7.0780899,-3.74792 0.4277901,0.26438 -0.2550813,1.43532 -4.813365,8.25357 -1.7236859,2.57828 -3.1339749,4.75117 -3.1339749,4.82864 0,0.0775 0.253903,0.14087 0.56423,0.14087 0.356089,0 1.142261,-0.63082 2.131162,-1.71003 2.630357,-2.87057 6.4658957,-4.92796 10.6192332,-5.69618 3.7162628,-0.68738 2.9236874,0.65754 -2.9958758,5.0837 -1.0914062,0.81606 -2.3340723,1.85107 -2.7614802,2.30001 l -0.7771054,0.81625 h 0.8087856 c 0.6717383,0 0.8034173,0.10088 0.7771053,0.59531 -0.018481,0.34729 0.1061139,0.56776 0.299049,0.52917 0.4785276,-0.0957 0.4096774,0.10111 -0.2645834,0.75632 -0.4570072,0.4441 -0.4877417,0.54063 -0.1322916,0.41549 0.5478951,-0.1929 0.6130668,0.16022 0.1070748,0.58016 -0.5684837,0.4718 -2.0253039,0.68704 -2.0253039,0.29923 0,-0.25689 -0.092446,-0.25333 -0.4170403,0.0161 -0.3455133,0.28675 -0.457071,0.28134 -0.6504408,-0.0315 -0.1344252,-0.21751 -0.1346417,-0.47641 -5.106e-4,-0.61054 0.1280895,-0.12809 0.1624296,-0.41651 0.076311,-0.64093 -0.1139534,-0.29696 -0.054304,-0.34866 0.2191133,-0.18992 0.2066307,0.11996 0.2853063,0.11856 0.1748347,-0.003 -0.1104716,-0.12167 0.066492,-0.52771 0.3932533,-0.90231 0.3267609,-0.3746 0.087204,-0.20798 -0.5323494,0.37027 -0.6195531,0.57824 -1.0714849,1.19462 -1.0042929,1.36972 0.067192,0.17509 -0.072204,0.47589 -0.3097696,0.66843 -0.3673035,0.29769 -0.3981573,0.29069 -0.206192,-0.0468 0.1241596,-0.21828 -0.071086,-0.12704 -0.43388,0.20276 l -0.6596248,0.59962 -12.0926255,0.0618 c -10.44247,0.0534 -12.15056,0.008 -12.517184,-0.33504 z m -2.210694,-0.51311 c 0.151034,-0.28221 0.184989,-0.56737 0.07545,-0.63369 -0.227456,-0.13771 -0.696052,0.34972 -0.794466,0.82641 -0.105449,0.51076 0.41754,0.37058 0.719011,-0.19272 z m 30.544766,-0.34679 c -0.143795,-0.25469 -0.109559,-0.25945 0.1489175,-0.0207 0.1846018,0.17052 0.4997251,0.24708 0.7002739,0.17013 0.6386683,-0.24508 0.3923408,-0.61248 -0.4106464,-0.61248 -0.7367226,0 -0.763886,-0.0397 -0.546172,-0.79885 0.1260098,-0.43937 0.1319149,-0.73879 0.013122,-0.66537 -0.5727417,0.35397 -0.4330036,2.25797 0.1657169,2.25797 0.06353,0 0.031485,-0.14883 -0.071212,-0.33073 z m -32.123673,-0.19844 c 0,-0.14552 -0.178593,-0.26458 -0.396875,-0.26458 -0.218281,0 -0.396875,0.11906 -0.396875,0.26458 0,0.14552 0.178594,0.26459 0.396875,0.26459 0.218282,0 0.396875,-0.11907 0.396875,-0.26459 z m 0.661459,0 c 0.08994,-0.14552 0.03743,-0.26458 -0.116677,-0.26458 -0.154109,0 -0.280198,0.11906 -0.280198,0.26458 0,0.14552 0.0525,0.26459 0.116676,0.26459 0.06417,0 0.190262,-0.11907 0.280199,-0.26459 z m 1.719791,-0.0804 c 0,-0.0442 -0.446484,-0.49069 -0.992187,-0.99218 l -0.992188,-0.9118 0.911799,0.99219 c 0.848682,0.9235 1.072576,1.11384 1.072576,0.91179 z m 11.391076,-1.38811 c -0.128201,-0.42925 -0.243327,-0.58183 -0.255835,-0.33907 -0.02539,0.49273 0.257022,1.35142 0.398071,1.21037 0.04997,-0.05 -0.01403,-0.44206 -0.142236,-0.8713 z m 19.8421457,0.52753 c 0.282585,-0.34049 0.2767409,-0.39776 -0.033749,-0.33073 -0.233582,0.0504 -0.3693661,-0.12726 -0.3592455,-0.47014 0.00895,-0.30316 -0.1160372,-0.55121 -0.2777464,-0.55121 -0.4042477,0 -0.4416116,0.94309 -0.054815,1.38357 0.3944029,0.44914 0.324139,0.45219 0.7255559,-0.0315 z m -26.3271307,-1.42199 c -0.08372,-0.13547 -0.01851,-0.32895 0.144924,-0.42995 0.403519,-0.24939 -0.241133,-0.64824 -0.738965,-0.45721 -0.29829,0.11447 -0.282879,0.23251 0.08316,0.63698 0.473163,0.52284 0.768901,0.66766 0.510881,0.25018 z m 12.291825,-0.69536 c 0,-0.43658 -0.418159,-0.51034 -0.661458,-0.11668 -0.215769,0.34913 0.100596,0.84457 0.415157,0.65016 0.135465,-0.0837 0.246301,-0.32379 0.246301,-0.53348 z m -5.989736,0.0156 c 0.08376,-0.21829 0.03697,-0.39688 -0.103984,-0.39688 -0.140954,0 -0.25628,0.17859 -0.25628,0.39688 0,0.21828 0.04679,0.39687 0.103984,0.39687 0.05719,0 0.172518,-0.17859 0.25628,-0.39687 z m 0.614227,-0.18191 c -0.08446,-0.21106 -0.147157,-0.14837 -0.159853,0.15986 -0.01149,0.27891 0.05105,0.43518 0.138965,0.34726 0.08792,-0.0879 0.09732,-0.31612 0.02089,-0.50712 z"
         id="path2772" />
      <path
         style="fill:#a8aa96"
         d="m -21.16666,83.476053 c 0,-0.603842 0.09689,-0.685458 0.727604,-0.612887 0.523309,0.06021 0.727604,0.232299 0.727604,0.612887 0,0.380588 -0.204295,0.552673 -0.727604,0.612886 -0.630711,0.07257 -0.727604,-0.009 -0.727604,-0.612886 z"
         id="path2660" />
      <path
         style="fill:#a8aa96"
         d="m -28.045826,88.386459 c 0,-0.136932 0.117698,-0.32171 0.261552,-0.410617 0.149982,-0.09269 0.194339,0.01351 0.103985,0.248969 -0.175893,0.458368 -0.365537,0.542233 -0.365537,0.161648 z"
         id="path2659" />
      <path
         style="fill:#a8aa96"
         d="m -26.055412,90.24884 c 0.142199,-0.139178 0.615731,-0.337756 1.052294,-0.441285 1.023876,-0.242809 0.793897,-0.01727 -0.390836,0.383283 -0.506001,0.171079 -0.803657,0.19718 -0.661458,0.058 z"
         id="path2658" />
      <path
         style="fill:#a8aa96"
         d="m -29.545207,91.129265 c -0.11079,-0.288714 0.006,-0.585394 0.321213,-0.815873 0.663204,-0.484947 1.045876,-0.316364 1.045876,0.460751 0,0.789948 -1.091435,1.073465 -1.367089,0.355122 z"
         id="path2657" />
      <path
         style="fill:#a8aa96"
         d="m -31.555965,91.777596 c 0.179476,-0.180821 0.39297,-0.262115 0.474432,-0.180653 0.08146,0.08146 -0.06538,0.229406 -0.32632,0.328765 -0.377083,0.143586 -0.407474,0.113195 -0.148112,-0.148112 z"
         id="path2656" />
      <path
         style="fill:#a8aa96"
         d="m -14.097401,92.538032 c -0.169466,-0.472625 0.28972,-1.256771 0.735949,-1.256771 0.554859,0 0.974932,0.90361 0.596158,1.282383 -0.404268,0.404268 -1.183338,0.389289 -1.332107,-0.02561 z"
         id="path2655" />
      <path
         style="fill:#a8aa96"
         d="m -12.049415,95.496991 c -0.284763,-0.460757 0.03956,-0.558335 0.402448,-0.121082 0.20869,0.251455 0.228762,0.403268 0.05332,0.403268 -0.154751,0 -0.359845,-0.126983 -0.455766,-0.282186 z"
         id="path2654" />
      <path
         style="fill:#a8aa96"
         d="m -32.80243,121.49399 c -1.354384,-0.0767 -1.554093,-0.18067 -3.049043,-1.5875 -3.588562,-3.37704 -5.85906,-4.76796 -10.000956,-6.12663 -1.041545,-0.34166 -1.757594,-0.71855 -1.700254,-0.89493 0.354485,-1.09042 4.523785,-1.57511 7.340891,-0.8534 0.922183,0.23625 2.413873,0.79246 3.314866,1.23601 1.922886,0.94664 5.079621,3.73551 6.330226,5.59255 0.739719,1.09842 0.87396,1.20136 0.840683,0.64465 -0.02178,-0.36437 -0.158663,-0.6427 -0.304184,-0.61851 -0.145521,0.0242 -0.276341,-0.26469 -0.290711,-0.64197 -0.02871,-0.75373 -4.786933,-10.84113 -6.293361,-13.34187 -1.287563,-2.13742 -0.951555,-2.38882 1.501803,-1.12367 4.445959,2.29269 7.464362,6.21292 9.526958,12.37337 0.365416,1.09141 0.748979,2.55139 0.852361,3.2444 0.103382,0.69302 0.307654,1.334 0.453939,1.42441 0.448373,0.27711 0.07609,-13.09745 -0.442964,-15.9136 -0.638309,-3.46321 -1.445338,-6.387435 -2.27484,-8.242762 l -0.727947,-1.62818 0.644226,-0.123152 c 0.537193,-0.102691 0.712648,0.03594 1.056047,0.834431 1.695323,3.942046 2.947283,9.956233 3.338769,16.038833 0.03746,0.58208 0.163732,-1.68011 0.280596,-5.02708 0.200125,-5.73155 0.471835,-10.755487 0.869303,-16.073442 0.163709,-2.190353 0.205876,-2.315104 0.782534,-2.315104 0.384507,0 0.673837,-0.2027 0.783781,-0.549106 0.09585,-0.302008 0.242072,-0.481313 0.324929,-0.398456 0.08286,0.08286 -0.04153,0.538314 -0.276412,1.012127 -0.605775,1.221984 -0.991893,8.601992 -0.951777,18.191681 0.03584,8.56746 -0.03903,8.46708 1.184005,1.5875 0.558994,-3.14435 1.967258,-7.89181 3.231392,-10.893466 0.782963,-1.85913 1.12253,-2.369003 1.789556,-2.687086 l 0.823235,-0.392573 -0.991751,1.97414 c -2.480697,4.937975 -4.749051,15.147205 -4.723554,21.259405 l 0.0094,2.24896 0.468383,-1.45521 c 0.809711,-2.51567 2.537663,-5.88167 4.024108,-7.83885 2.785166,-3.66717 8.2995594,-7.49584 9.9075039,-6.87881 0.5584384,0.21429 0.4040625,0.48681 -4.1406199,7.30933 -2.084118,3.1287 -4.057328,6.18249 -4.384912,6.7862 l -0.595606,1.09766 0.587488,-0.15135 c 0.528667,-0.13621 0.550131,-0.10582 0.21437,0.30344 -0.205215,0.25014 -0.530821,0.39428 -0.723568,0.32032 -0.192747,-0.074 -0.475517,0.0992 -0.628377,0.38483 -0.227147,0.42443 -0.191627,0.52313 0.194401,0.5402 0.280031,0.0124 0.33701,0.0755 0.139952,0.15489 -0.182807,0.0737 -0.265078,0.2429 -0.182822,0.37599 0.08225,0.13309 -0.04309,0.24198 -0.27855,0.24198 -0.256224,0 -0.352308,-0.12264 -0.239318,-0.30546 0.116967,-0.18926 0.07258,-0.23364 -0.116677,-0.11668 -0.504349,0.31171 -0.345481,0.68688 0.289849,0.68448 0.469976,-0.002 0.818134,-0.42132 1.653646,-1.99273 0.905196,-1.70248 1.000907,-2.03008 0.661458,-2.26405 -0.319195,-0.22001 -0.292936,-0.24477 0.134163,-0.1265 0.408185,0.11303 0.881579,-0.24486 2.046269,-1.54702 2.6907447,-3.00834 6.4764316,-5.11029 10.60689123,-5.88933 3.38962187,-0.63931 3.33370087,0.11929 -0.21961529,2.97922 -5.04924174,4.06394 -5.92576684,4.83828 -7.80520794,6.89526 l -1.9843749,2.17182 -8.8635411,0.0297 c -4.874948,0.0163 -9.696979,0.0551 -10.715625,0.0862 -1.018645,0.0311 -2.504273,0.0196 -3.301395,-0.0255 z"
         id="path2650" />
      <path
         style="fill:#889076"
         d="m -14.287494,121.2779 c 0,-0.0912 0.469633,-1.01396 1.043627,-2.05053 2.655323,-4.79517 6.8835173,-8.17075 11.8140672,-9.43177 2.17490612,-0.55625 3.6892034,-0.6693 3.921896,-0.2928 0.1908327,0.30878 -2.42534854,2.76207 -4.8733405,4.56992 -2.419963,1.78715 -5.6729172,4.81353 -6.7468746,6.27694 l -0.79375,1.08159 -2.1828121,0.006 c -1.200547,0.003 -2.182813,-0.0684 -2.182813,-0.15961 z"
         id="path2575" />
      <path
         style="fill:#889076"
         d="m -19.442877,120.31928 c 0.473075,-2.91014 2.472251,-7.3607 4.476292,-9.9651 0.661749,-0.86 1.939963,-2.21993 2.840477,-3.02208 2.745378,-2.44551 7.0990305,-4.63387 7.0990305,-3.56833 0,0.44227 -1.6016767,3.02344 -5.9688485,9.61908 -1.737602,2.62426 -3.575995,5.50798 -4.085318,6.40827 l -0.926041,1.6369 -1.809194,0.008 -1.809194,0.008 z"
         id="path2574" />
      <path
         style="fill:#889076"
         d="m -23.871865,118.29906 c 0.07123,-1.72959 -0.01174,-5.09311 -0.184379,-7.47448 -0.448924,-6.19237 -1.448272,-10.81167 -3.326502,-15.376132 -0.146881,-0.356948 -0.05948,-0.463021 0.381505,-0.463021 0.436793,0 0.719538,0.333532 1.195937,1.410756 1.345897,3.043312 3.020788,11.656127 3.067915,15.776167 0.01151,1.00672 0.08275,1.30037 0.227311,0.93704 0.115798,-0.29105 0.281127,-3.98198 0.367398,-8.20209 0.145074,-7.096509 0.543512,-14.523281 0.855224,-15.941143 0.07628,-0.346971 0.3285,-0.595313 0.604607,-0.595313 0.430091,0 0.455294,0.1767 0.273602,1.918229 -0.447462,4.288946 -0.74881,14.371077 -0.578691,19.361147 l 0.181068,5.31125 0.350327,-1.98438 c 1.093918,-6.19633 1.513202,-8.14154 2.324342,-10.7835 1.412062,-4.599212 2.450561,-6.893156 3.325437,-7.345572 l 0.747928,-0.386768 -1.155196,2.444901 c -2.265403,4.794589 -3.865509,12.056159 -4.430369,20.105839 l -0.310985,4.43177 h -2.022997 -2.022996 z"
         id="path2573" />
      <path
         style="fill:#889076"
         d="m -32.180493,113.61054 c -2.107361,-4.30828 -4.122757,-8.2945 -4.478657,-8.85829 -0.636735,-1.00865 -0.838207,-1.82987 -0.448655,-1.82876 0.415064,0.001 3.427274,1.69536 4.644719,2.61235 3.438237,2.58971 6.416053,7.92732 7.575053,13.57796 l 0.477897,2.32996 h -1.969395 -1.969396 z"
         id="path2572" />
      <path
         style="fill:#889076"
         d="m -36.376609,119.33042 c -2.699268,-2.50072 -5.085481,-3.97833 -8.515481,-5.27301 -1.381373,-0.52142 -2.531618,-1.06709 -2.556099,-1.21261 -0.02448,-0.14552 0.550801,-0.46773 1.278405,-0.71602 3.868058,-1.31996 9.227086,0.30244 12.994423,3.93395 1.809752,1.7445 3.029831,3.37237 3.546925,4.73244 l 0.246596,0.64859 h -2.356822 -2.356821 z"
         id="path2571" />
      <path
         style="fill:#75846a"
         d="m -13.731796,120.31928 c 2.109566,-4.18775 5.0404547,-7.21502 8.7652617,-9.05351 3.2104697,-1.58462 7.3477898,-2.49707 7.3477898,-1.62049 0,0.46073 -2.13179693,2.40039 -4.7624998,4.33325 -1.0914062,0.80189 -3.3428273,2.80961 -5.003158,4.46161 l -3.0187827,3.00362 h -1.947532 -1.947531 z"
         id="path2502" />
      <path
         style="fill:#75846a"
         d="m -19.16336,119.79011 c 0.77346,-3.64204 2.070779,-6.4953 4.271938,-9.39549 2.25798,-2.97506 6.5484604,-6.15267 9.1578517,-6.78249 0.6823033,-0.16469 0.7322565,-0.12886 0.5631614,0.40391 -0.2312956,0.72875 -1.2205272,2.30194 -5.1356411,8.1673 -1.699859,2.54662 -3.723886,5.67201 -4.497837,6.94532 l -1.407184,2.3151 h -1.651737 -1.651736 z"
         id="path2501" />
      <path
         style="fill:#75846a"
         d="m -23.890448,115.02761 c -0.192993,-8.394 -1.12168,-14.20975 -2.912143,-18.236821 -0.57849,-1.301126 -0.61274,-1.523047 -0.256174,-1.659874 0.48972,-0.187923 0.409909,-0.266664 1.059343,1.045137 1.557997,3.147021 3.245262,11.919438 3.245262,16.872748 0,0.99638 0.09986,1.74989 0.221912,1.67446 0.122052,-0.0754 0.296409,-3.63499 0.387459,-7.91014 0.154901,-7.273149 0.559616,-15.353596 0.867375,-17.317797 0.08588,-0.54811 0.285462,-0.859895 0.550441,-0.859895 0.351508,0 0.389705,0.255384 0.24733,1.653645 -0.564278,5.54173 -0.839561,19.825427 -0.457654,23.746357 l 0.167512,1.71979 0.356886,-2.51354 c 0.872037,-6.14174 2.291859,-11.69314 4.009751,-15.677825 0.560502,-1.300097 1.057461,-2.382335 1.104354,-2.404974 0.04689,-0.02264 0.360252,-0.195435 0.696356,-0.383991 0.574383,-0.322232 0.593455,-0.309864 0.317454,0.205848 -0.161504,0.301773 -0.425128,0.467415 -0.585832,0.368095 -0.173101,-0.106983 -0.21753,-0.05978 -0.10901,0.115806 0.100749,0.163015 -0.04861,0.75073 -0.331903,1.306035 -2.078459,4.074116 -4.038382,13.370236 -4.685897,22.225686 -0.171471,2.34504 -0.205074,2.4474 -0.80349,2.4474 -0.595344,0 -0.619929,-0.0711 -0.52597,-1.52135 0.05421,-0.83675 0.01088,-2.41433 -0.09629,-3.50573 -0.157162,-1.60054 -0.202357,-1.74128 -0.233653,-0.72761 -0.02134,0.69123 -0.160193,1.25677 -0.308559,1.25677 -0.148367,0 -0.216134,-0.29572 -0.150593,-0.65715 0.06554,-0.36144 -0.0016,-0.73179 -0.149187,-0.82301 -0.281108,-0.17373 -0.10469,5.26473 0.186041,5.73514 0.08258,0.13362 -0.257951,0.24294 -0.756732,0.24294 h -0.906874 z m 2.105267,-1.5875 c -0.0734,-0.1819 -0.133453,-0.0331 -0.133453,0.33073 0,0.36381 0.06005,0.51263 0.133453,0.33073 0.0734,-0.1819 0.0734,-0.47955 0,-0.66146 z"
         id="path2500" />
      <path
         style="fill:#75846a"
         d="m -30.563195,116.74741 c -1.28287,-2.583 -2.918756,-5.94651 -3.635303,-7.47448 -0.716547,-1.52797 -1.708923,-3.44855 -2.205279,-4.26795 -0.496356,-0.8194 -0.902465,-1.56354 -0.902465,-1.65364 0,-0.82491 3.615799,1.13374 5.742229,3.11053 3.56069,3.3101 5.752116,7.81086 6.811616,13.9897 l 0.170132,0.99219 h -1.82422 -1.82422 z"
         id="path2499" />
      <path
         style="fill:#75846a"
         d="m -34.271332,121.16656 c -0.09423,-0.15246 -1.262111,-1.22816 -2.595302,-2.39044 -2.549775,-2.22291 -6.095129,-4.26069 -8.97242,-5.1571 -0.836745,-0.26069 -1.521355,-0.56711 -1.521355,-0.68094 0,-0.31731 1.035677,-0.79997 1.328385,-0.61907 0.142513,0.0881 0.259115,0.0426 0.259115,-0.10101 0,-0.51711 2.927701,-0.65314 4.890379,-0.22722 2.802406,0.60814 5.029909,1.77938 7.262155,3.81847 1.868493,1.70682 3.987049,4.51168 3.987049,5.27866 0,0.44193 -4.367708,0.516 -4.638006,0.0787 z"
         id="path2498" />
      <path
         style="fill:#6c7b62"
         d="m -21.39949,91.281241 c -0.04956,-1.264285 0.29733,-2.645833 0.664327,-2.645833 0.208378,0 0.349219,0.252874 0.331564,0.595312 -0.0283,0.548987 -0.04253,0.554134 -0.182847,0.06615 -0.102742,-0.357319 -0.255258,-0.01362 -0.469636,1.058333 -0.174615,0.873125 -0.329148,1.289844 -0.343408,0.926042 z"
         id="path2384" />
      <path
         style="fill:#6c7b62"
         d="m -21.6291,94.588532 c 0.0029,-0.582083 0.05712,-0.789054 0.120406,-0.459936 0.06329,0.329119 0.06088,0.805369 -0.0053,1.058334 -0.06622,0.252965 -0.118003,-0.01631 -0.115066,-0.598398 z"
         id="path2383" />
      <path
         style="fill:#6c7b62"
         d="m -21.65405,96.308324 c 0,-0.363802 0.06005,-0.51263 0.133452,-0.330729 0.0734,0.181901 0.0734,0.479557 0,0.661458 -0.0734,0.181901 -0.133452,0.03307 -0.133452,-0.330729 z"
         id="path2382" />
      <path
         style="fill:#6c7b62"
         d="m -21.07984,95.911449 c 0.0012,-1.018646 0.049,-1.402943 0.106272,-0.853994 0.05728,0.548949 0.05632,1.382386 -0.0021,1.852083 -0.05845,0.469697 -0.105311,0.02056 -0.104138,-0.998089 z"
         id="path2381" />
      <path
         style="fill:#6c7b62"
         d="m -25.664576,97.647031 c 0,-0.195856 -0.17197,-0.270998 -0.410617,-0.17942 -0.23546,0.09035 -0.341662,0.046 -0.248969,-0.103984 0.08891,-0.143854 0.02282,-0.261553 -0.146857,-0.261553 -0.170114,0 -0.237822,-0.184198 -0.150937,-0.410617 0.09035,-0.235459 0.046,-0.341662 -0.103984,-0.248968 -0.143854,0.08891 -0.261553,0.03556 -0.261553,-0.11855 0,-0.154109 0.133641,-0.280198 0.29698,-0.280198 0.205186,0 0.195173,-0.122671 -0.0324,-0.396875 -0.244647,-0.294783 -0.249154,-0.396875 -0.01752,-0.396875 0.352301,0 1.468791,2.341089 1.230252,2.579628 -0.08492,0.08492 -0.154399,0.0028 -0.154399,-0.182588 z"
         id="path2380" />
      <path
         style="fill:#6c7b62"
         d="m -17.177022,100.91648 c 0.0127,-0.30822 0.07539,-0.37092 0.159852,-0.15985 0.07643,0.191 0.06703,0.4192 -0.02089,0.50712 -0.08792,0.0879 -0.150452,-0.0683 -0.138964,-0.34727 z"
         id="path2379" />
      <path
         style="fill:#6c7b62"
         d="m -25.272239,101.57933 c -0.09796,-0.44601 -0.107249,-0.88179 -0.02064,-0.9684 0.08661,-0.0866 0.157469,-0.006 0.157469,0.17952 0,0.19084 0.172117,0.27094 0.396875,0.18469 0.512923,-0.19682 0.527405,0.53212 0.02064,1.03888 -0.325257,0.32526 -0.400367,0.26636 -0.554344,-0.43469 z"
         id="path2378" />
      <path
         style="fill:#6c7b62"
         d="m -36.635495,104.61974 c -0.246645,-0.37643 -0.402908,-0.72995 -0.347251,-0.78561 0.05566,-0.0556 0.310027,0.25233 0.565266,0.68442 0.570231,0.96532 0.399966,1.04435 -0.218015,0.10119 z"
         id="path2377" />
      <path
         style="fill:#6c7b62"
         d="m -24.484831,105.28655 c -0.09592,-0.1552 -0.117656,-0.33893 -0.0483,-0.40828 0.06935,-0.0694 0.196603,0.0576 0.282774,0.28218 0.178907,0.46623 0.02642,0.54824 -0.234474,0.1261 z"
         id="path2376" />
      <path
         style="fill:#6c7b62"
         d="m -10.439736,106.38077 c -0.08372,-0.13546 -0.05106,-0.30882 0.07258,-0.38523 0.123641,-0.0764 0.224802,0.0344 0.224802,0.2463 0,0.44613 -0.08343,0.48511 -0.297381,0.13893 z"
         id="path2375" />
      <path
         style="fill:#6c7b62"
         d="m -22.204105,106.20815 c 0.0127,-0.30822 0.07539,-0.37092 0.159852,-0.15985 0.07643,0.19099 0.06703,0.4192 -0.02089,0.50712 -0.08792,0.0879 -0.150453,-0.0684 -0.138964,-0.34727 z"
         id="path2374" />
      <path
         style="fill:#6c7b62"
         d="m -19.029105,108.854 c 0.0127,-0.30822 0.07539,-0.37092 0.159852,-0.15985 0.07643,0.191 0.06703,0.4192 -0.02089,0.50712 -0.08792,0.0879 -0.150453,-0.0683 -0.138964,-0.34727 z"
         id="path2372" />
      <path
         style="fill:#6c7b62"
         d="m 1.5875055,109.53751 c -0.3209287,-0.2074 -0.2829555,-0.25726 0.1984375,-0.26053 0.3274219,-0.002 0.5953125,0.11501 0.5953125,0.26053 0,0.3315 -0.2807866,0.3315 -0.79375,0 z"
         id="path2371" />
      <path
         style="fill:#6c7b62"
         d="m -21.42568,106.23022 c -0.03657,-2.18281 -0.04746,-4.20688 -0.02419,-4.49792 0.03518,-0.43995 -0.0036,-0.46225 -0.230064,-0.13229 -0.196937,0.28696 -0.264824,-0.15271 -0.245119,-1.5875 0.02018,-1.469345 0.07967,-1.778362 0.229227,-1.190624 0.192165,0.755195 0.205018,0.761621 0.264612,0.132291 0.03445,-0.363802 0.04854,-0.750755 0.0313,-0.859895 -0.01723,-0.109141 0.06028,-0.198438 0.17225,-0.198438 0.187995,0 0.146515,10.579446 -0.04616,11.773956 -0.04695,0.29104 -0.115281,-1.25677 -0.151856,-3.43958 z"
         id="path2370" />
      <path
         style="fill:#6c7b62"
         d="m -8.7312439,109.40522 c 0.3526901,-0.57067 0.4516444,-0.92604 0.2578551,-0.92604 -0.1729585,0 -0.2459372,-0.1786 -0.1621748,-0.39688 0.083762,-0.21828 0.036969,-0.39687 -0.1039842,-0.39687 -0.1409537,0 -0.2562795,0.17156 -0.2562795,0.38126 0,0.20969 -0.1176987,0.454 -0.2615526,0.54291 -0.3202354,0.19791 -0.063194,-0.55307 0.4793472,-1.40048 0.2143055,-0.33473 0.5468153,-0.54829 0.7389109,-0.47458 0.1920955,0.0737 0.4208358,0.0182 0.5083118,-0.12332 0.087476,-0.14154 0.2597135,-0.19513 0.3827501,-0.11909 0.1230366,0.076 0.4817078,-0.2792 0.797047,-0.78943 0.3153392,-0.51023 0.636858,-0.92769 0.7144861,-0.92769 0.077628,0 -0.046082,0.28574 -0.2749117,0.63498 -0.2288297,0.34924 -1.0283456,1.59939 -1.7767022,2.77812 -0.7483566,1.17873 -1.4179739,2.14315 -1.4880384,2.14315 -0.070064,0 0.1301563,-0.41672 0.4449352,-0.92604 z m 0.8894302,-1.32292 c 0.083762,-0.21828 0.03697,-0.39687 -0.1039842,-0.39687 -0.1409537,0 -0.2562794,0.17859 -0.2562794,0.39687 0,0.21828 0.046793,0.39688 0.1039842,0.39688 0.057191,0 0.1725171,-0.1786 0.2562794,-0.39688 z"
         id="path2369" />
      <path
         style="fill:#6c7b62"
         d="m -2.9104109,110.33126 c 0.2182812,-0.14106 0.5754687,-0.24993 0.7937499,-0.24193 0.2616876,0.01 0.2166251,0.092 -0.1322916,0.24193 -0.7273621,0.31256 -1.1451077,0.31256 -0.6614583,0 z"
         id="path2368" />
      <path
         style="fill:#6c7b62"
         d="m -22.131078,109.14064 c -8.06e-4,-1.30969 0.04393,-1.87883 0.09942,-1.26476 0.05549,0.61407 0.05615,1.68564 0.0015,2.38125 -0.05468,0.69562 -0.100084,0.19319 -0.10089,-1.11649 z"
         id="path2367" />
      <path
         style="fill:#6c7b62"
         d="m 0.52917224,111.57139 c 0,-0.0455 0.38695311,-0.43249 0.85989576,-0.8599 l 0.8598958,-0.7771 -0.7771053,0.85989 c -0.72437111,0.80154 -0.94268626,0.98151 -0.94268626,0.77711 z"
         id="path2366" />
      <path
         style="fill:#6c7b62"
         d="m -0.39686938,112.18334 c 0.26338908,-0.29104 0.53842048,-0.52916 0.61118089,-0.52916 0.0727604,0 -0.0832085,0.23812 -0.34659757,0.52916 -0.26338907,0.29105 -0.53842047,0.52917 -0.61118088,0.52917 -0.0727604,0 0.0832085,-0.23812 0.34659756,-0.52917 z"
         id="path2365" />
      <path
         style="fill:#6c7b62"
         d="m -9.6069656,114.50899 c 0.5239415,-0.57895 0.4904131,-0.58131 0.5370508,0.0378 0.02642,0.35074 -0.1191999,0.4995 -0.4635494,0.47356 -0.465478,-0.0351 -0.4708348,-0.0723 -0.073501,-0.51138 z"
         id="path2364" />
      <path
         style="fill:#6c7b62"
         d="m -19.842039,113.90314 c -0.0574,-1.18064 -0.08603,-1.23755 -0.266288,-0.52917 -0.149143,0.58612 -0.210163,0.64699 -0.233279,0.23271 -0.03336,-0.59797 0.99323,-6.7694 1.152568,-6.92874 0.168137,-0.16813 -0.124281,5.59182 -0.360088,7.0929 l -0.228601,1.45521 z"
         id="path2363" />
      <path
         style="fill:#6c7b62"
         d="m -8.8223367,115.2141 c 0.080598,-0.21004 0.2531279,-0.31601 0.3834004,-0.2355 0.3281107,0.20279 0.2979098,0.2997 -0.1465414,0.47025 -0.2557474,0.0981 -0.3346095,0.02 -0.236859,-0.23475 z"
         id="path2362" />
      <path
         style="fill:#6c7b62"
         d="m -23.098926,119.75175 c -0.108267,-0.27549 -0.134515,-0.56323 -0.05833,-0.63941 0.241316,-0.24132 0.453644,0.15413 0.352529,0.65657 -0.09267,0.46046 -0.10682,0.45963 -0.2942,-0.0172 z"
         id="path2357" />
      <path
         style="fill:#6c7b62"
         d="m -13.55608,121.25652 c 0.329512,-0.0633 0.924825,-0.54744 1.322916,-1.07577 1.405927,-1.86591 4.3913394,-4.82243 4.8695591,-4.82243 0.4264571,0 0.5978026,0.27188 0.5248296,0.83276 -0.042884,0.32962 0.9878166,-0.0963 1.4387023,-0.59455 0.2502598,-0.27653 0.6985021,-0.50279 0.996094,-0.50279 0.3881467,0 0.46014,-0.0809 0.2547179,-0.28636 -0.436247,-0.43624 0.3402509,-1.85394 0.8981748,-1.63984 0.2512948,0.0964 0.3601332,0.0551 0.2640666,-0.10038 -0.1363698,-0.22065 0.6496775,-0.27661 1.1349501,-0.0808 0.07276,0.0294 0.2513541,0.0405 0.3968749,0.0248 0.1455209,-0.0157 -0.083951,0.23809 -0.509938,0.56398 -1.7832547,1.36424 -4.6217261,3.85222 -6.092196,5.33994 -0.866278,0.87644 -1.4729599,1.42835 -1.348182,1.22645 0.154152,-0.24942 0.1289605,-0.30657 -0.078595,-0.17829 -0.1680051,0.10383 -0.3054637,0.36738 -0.3054637,0.58566 0,0.21828 -0.1176987,0.32413 -0.2615526,0.23523 -0.149982,-0.0927 -0.194338,0.0135 -0.103984,0.24896 0.134838,0.35139 -0.14232,0.40542 -1.92126,0.37459 -1.143355,-0.0198 -1.809227,-0.0879 -1.479714,-0.15119 z m 8.0335929,-5.0383 c 0.3291074,-0.41964 0.319749,-0.429 -0.099895,-0.0999 -0.2546615,0.19972 -0.4630208,0.40808 -0.4630208,0.46303 0,0.21776 0.2172719,0.0776 0.5629158,-0.36313 z"
         id="path2342" />
      <path
         style="fill:#6c7b62"
         d="m -18.520819,121.36162 c 0,-0.0452 0.295146,-0.84884 0.655881,-1.78594 0.360734,-0.9371 0.481416,-1.46569 0.268181,-1.17465 -0.83848,1.14444 -1.453228,1.74889 -1.453228,1.4289 0,-0.74215 0.875099,-3.39423 1.078505,-3.26851 0.27282,0.16861 0.781354,-0.75754 0.927575,-1.68932 l 0.110539,-0.7044 -0.387476,0.66146 c -0.581681,0.99298 -0.484037,0.39602 0.133085,-0.81364 0.296621,-0.58142 0.652445,-0.98722 0.790719,-0.90176 0.138274,0.0855 0.188203,-0.009 0.110953,-0.21064 -0.104488,-0.27229 0.09955,-0.35805 0.796781,-0.33492 0.515479,0.0171 0.937235,-0.0752 0.937235,-0.2052 0,-0.12996 0.19185,-0.16267 0.426334,-0.0727 0.30958,0.1188 0.382867,0.0503 0.267614,-0.25002 -0.09126,-0.23782 -0.04756,-0.34491 0.102833,-0.25197 0.143854,0.0889 0.261552,0.0285 0.261552,-0.13416 0,-0.1627 0.119063,-0.22223 0.264584,-0.13229 0.14552,0.0899 0.264583,0.0374 0.264583,-0.11668 0,-0.15411 0.245152,-0.2802 0.544782,-0.2802 0.299629,0 0.471196,0.11906 0.38126,0.26458 -0.08994,0.14552 -0.03584,0.26459 0.120227,0.26459 0.181724,0 0.143154,0.33649 -0.107272,0.93584 -0.215061,0.51472 -0.27619,0.86488 -0.135842,0.77814 0.140348,-0.0867 0.255178,0.0279 0.255178,0.25478 0,0.22687 -0.119062,0.41249 -0.264583,0.41249 -0.145521,0 -0.264583,0.12609 -0.264583,0.2802 0,0.1541 0.142634,0.19204 0.316965,0.0843 0.174331,-0.10774 0.08503,0.17773 -0.198437,0.63438 -0.283472,0.45665 -1.278242,2.08559 -2.2106,3.61986 l -1.695196,2.78959 h -1.149074 c -0.631991,0 -1.149075,-0.037 -1.149075,-0.0821 z"
         id="path2341" />
      <path
         style="fill:#6c7b62"
         d="m -20.687095,121.26302 c 0.190996,-0.0764 0.4192,-0.067 0.507118,0.0209 0.08792,0.0879 -0.06835,0.15045 -0.347265,0.13896 -0.308225,-0.0127 -0.370919,-0.0754 -0.159853,-0.15985 z"
         id="path2340" />
      <path
         style="fill:#6c7b62"
         d="m -23.812493,116.1347 c 0,-3.17874 0.110713,-5.51593 0.275913,-5.82461 0.207947,-0.38855 0.193201,-0.49833 -0.05986,-0.44563 -0.437827,0.0912 -0.607577,-1.04581 -0.224967,-1.50683 0.169328,-0.20403 0.219723,-0.66206 0.117609,-1.06891 -0.13134,-0.5233 -0.238429,-0.61763 -0.404216,-0.35604 -0.153292,0.24188 -0.225539,0.10161 -0.225539,-0.43788 0,-0.6339 0.05684,-0.71382 0.282223,-0.39687 0.207923,0.29239 0.243848,0.0217 0.136456,-1.02807 -0.230387,-2.25216 0.113907,-1.3755 0.525976,1.33927 0.426586,2.81041 0.760111,10.38775 0.39623,9.00193 -0.417322,-1.58934 -0.555345,-1.22914 -0.545862,1.42454 0.0063,1.77433 0.131794,2.83793 0.387499,3.28524 0.526552,0.92111 0.486371,1.32292 -0.132292,1.32292 -0.511585,0 -0.529166,-0.17639 -0.529166,-5.30906 z m 0.445324,-4.00097 c -0.08446,-0.21106 -0.147157,-0.14837 -0.159853,0.15986 -0.01149,0.27891 0.05105,0.43518 0.138965,0.34726 0.08792,-0.0879 0.09732,-0.31612 0.02089,-0.50712 z m -0.0055,-1.33945 c -0.0734,-0.1819 -0.133453,-0.0331 -0.133453,0.33073 0,0.3638 0.06005,0.51263 0.133453,0.33073 0.0734,-0.1819 0.0734,-0.47956 0,-0.66146 z m 0.08935,-1.65364 c 0,-0.21829 -0.119062,-0.39688 -0.264583,-0.39688 -0.145521,0 -0.264583,0.17859 -0.264583,0.39688 0,0.21828 0.119062,0.39687 0.264583,0.39687 0.145521,0 0.264583,-0.17859 0.264583,-0.39687 z"
         id="path2339" />
      <path
         style="fill:#6c7b62"
         d="m -32.080407,113.57241 c -2.464801,-5.03178 -3.769648,-7.97559 -3.617053,-8.16029 0.13129,-0.15891 0.179708,-0.34792 0.107595,-0.42004 -0.07211,-0.0721 0.161097,-0.26425 0.518243,-0.42698 0.575308,-0.26213 0.824352,-0.16604 2.183931,0.84262 1.566171,1.16192 2.709358,2.27771 2.333649,2.27771 -0.114939,0 0.104733,0.24676 0.488159,0.54837 0.383427,0.3016 0.69714,0.77082 0.69714,1.04272 0,0.27189 0.137459,0.5793 0.305464,0.68313 0.189256,0.11697 0.233643,0.0726 0.116677,-0.11668 -0.103833,-0.168 -0.127933,-0.30546 -0.05356,-0.30546 0.07438,0 0.543026,0.6958 1.041441,1.54621 1.1435,1.95109 2.43489,5.47929 2.823548,7.71421 0.164492,0.94588 0.339646,1.92815 0.389231,2.18281 0.07868,0.40411 -0.136864,0.46302 -1.694277,0.46302 h -1.78443 z m 6.905354,6.61458 c -0.03189,-0.7981 -0.0612,-0.84986 -0.149866,-0.26458 -0.06062,0.40018 -0.228403,0.7276 -0.372847,0.7276 -0.144443,0 -0.189039,0.11906 -0.0991,0.26458 0.353966,0.57273 0.659486,0.21523 0.621815,-0.7276 z m -10.246275,-14.4242 c -0.261306,-0.25936 -0.291697,-0.22897 -0.148112,0.14811 0.09936,0.26094 0.247304,0.40778 0.328766,0.32632 0.08146,-0.0815 1.67e-4,-0.29496 -0.180654,-0.47443 z"
         id="path2338" />
      <path
         style="fill:#6c7b62"
         d="m -35.594733,119.8369 c -1.700439,-1.73021 -5.100017,-4.1346 -7.091416,-5.0155 l -1.231938,-0.54494 0.425825,-0.98041 c 0.234204,-0.53923 0.432026,-1.12748 0.439603,-1.30722 0.01841,-0.43679 1.602889,-0.1963 4.098549,0.62207 1.66886,0.54725 4.029117,1.79896 4.029117,2.13676 0,0.062 -0.121363,0.0377 -0.269697,-0.0539 -0.148333,-0.0917 -0.05509,0.21746 0.207198,0.68697 0.27386,0.49021 0.733473,0.89279 1.079555,0.94561 0.424799,0.0648 0.545441,-0.006 0.408781,-0.23955 -0.106635,-0.18234 0.0619,-0.10726 0.374527,0.16685 0.312624,0.27411 0.502834,0.60448 0.422689,0.73416 -0.08015,0.12968 0.0029,0.20306 0.184606,0.16308 0.358468,-0.0789 2.884008,3.37578 2.884008,3.94502 0,0.25947 -0.55693,0.3479 -2.191095,0.3479 h -2.191095 z"
         id="path2337" />
      <path
         style="fill:#66765b"
         d="m -21.379663,101.7323 c 0.0054,-0.43656 0.06469,-0.58312 0.131774,-0.32569 0.06708,0.25743 0.06267,0.61462 -0.0098,0.79375 -0.07248,0.17913 -0.127362,-0.0315 -0.12197,-0.46806 z"
         id="path2193" />
      <path
         style="fill:#66765b"
         d="m -23.649673,106.46432 c -0.09693,-0.8247 -0.123503,-1.55219 -0.05906,-1.61663 0.06445,-0.0644 0.200926,0.55313 0.303287,1.3724 0.102361,0.81927 0.128937,1.54676 0.05906,1.61664 -0.06988,0.0699 -0.206359,-0.5477 -0.303287,-1.37241 z"
         id="path2177" />
      <path
         style="fill:#66765b"
         d="m -34.760015,108.07212 c -0.255317,-0.66534 -0.179998,-0.83702 0.131904,-0.30065 0.154435,0.26557 0.225054,0.5386 0.156932,0.60672 -0.06812,0.0681 -0.198098,-0.0696 -0.288836,-0.30607 z"
         id="path2174" />
      <path
         style="fill:#66765b"
         d="m -19.558272,108.32489 c 0.0127,-0.30823 0.07539,-0.37092 0.159853,-0.15986 0.07643,0.191 0.06703,0.4192 -0.02089,0.50712 -0.08792,0.0879 -0.150452,-0.0683 -0.138964,-0.34726 z"
         id="path2173" />
      <path
         style="fill:#66765b"
         d="m -34.246523,109.08595 c -0.143586,-0.37708 -0.113195,-0.40747 0.148112,-0.14811 0.180821,0.17947 0.262115,0.39297 0.180653,0.47443 -0.08146,0.0815 -0.229406,-0.0654 -0.328765,-0.32632 z"
         id="path2170" />
      <path
         style="fill:#66765b"
         d="m -19.801967,109.80215 c 0,-0.3638 0.06005,-0.51263 0.133452,-0.33073 0.0734,0.18191 0.0734,0.47956 0,0.66146 -0.0734,0.1819 -0.133452,0.0331 -0.133452,-0.33073 z"
         id="path2165" />
      <path
         style="fill:#66765b"
         d="m -33.172515,111.51172 c -0.255317,-0.66535 -0.179999,-0.83703 0.131904,-0.30066 0.154435,0.26558 0.225054,0.5386 0.156932,0.60672 -0.06812,0.0681 -0.198098,-0.0696 -0.288836,-0.30606 z"
         id="path2161" />
      <path
         style="fill:#66765b"
         d="m -22.943069,112.84479 c 0.002,-0.7276 0.05337,-0.99386 0.114186,-0.59167 0.06082,0.40218 0.05919,0.99749 -0.0036,1.32291 -0.0628,0.32543 -0.11256,-0.004 -0.110574,-0.73124 z"
         id="path2150" />
      <path
         style="fill:#66765b"
         d="m -23.791605,113.61649 c 0.0127,-0.30822 0.07539,-0.37092 0.159852,-0.15985 0.07643,0.191 0.06703,0.4192 -0.02089,0.50712 -0.08792,0.0879 -0.150452,-0.0683 -0.138964,-0.34727 z"
         id="path2149" />
      <path
         style="fill:#66765b"
         d="m -36.395777,113.88853 c -0.49319,-0.39513 -0.489944,-0.40001 0.08172,-0.12298 0.327422,0.15867 0.595312,0.34383 0.595312,0.41147 0,0.20246 -0.137215,0.14399 -0.677034,-0.28849 z"
         id="path2147" />
      <path
         style="fill:#66765b"
         d="m -26.958095,113.74144 c -0.163002,-0.46759 -0.250065,-0.89647 -0.193474,-0.95306 0.05659,-0.0566 0.236259,0.27968 0.399261,0.74727 0.163002,0.46759 0.250066,0.89646 0.193474,0.95305 -0.05659,0.0566 -0.236259,-0.27968 -0.399261,-0.74726 z"
         id="path2143" />
      <path
         style="fill:#66765b"
         d="m -23.791605,114.67483 c 0.0127,-0.30823 0.07539,-0.37092 0.159852,-0.15986 0.07643,0.191 0.06703,0.4192 -0.02089,0.50712 -0.08792,0.0879 -0.150452,-0.0683 -0.138964,-0.34726 z"
         id="path2139" />
      <path
         style="fill:#66765b"
         d="m -42.037057,115.1242 c -0.633184,-0.33738 -0.780706,-0.52016 -0.505173,-0.62589 0.214051,-0.0821 0.55698,-0.0431 0.762065,0.0867 0.205084,0.12983 0.260828,0.23788 0.123874,0.24011 -0.136954,0.002 -0.01789,0.17885 0.264583,0.39251 0.68956,0.52155 0.44141,0.48563 -0.645349,-0.0934 z"
         id="path2134" />
      <path
         style="fill:#66765b"
         d="m -25.796868,117.2104 c -0.09933,-0.31298 -0.121077,-0.62858 -0.04832,-0.70134 0.07276,-0.0728 0.213565,0.12378 0.312899,0.43675 0.09933,0.31298 0.121077,0.62858 0.04832,0.70134 -0.07276,0.0728 -0.213565,-0.12378 -0.312899,-0.43675 z"
         id="path2129" />
      <path
         style="fill:#66765b"
         d="m -38.534149,117.2648 c -0.748108,-0.53923 -1.560974,-1.09948 -1.806368,-1.245 -0.350327,-0.20774 -0.228646,-0.26371 0.566448,-0.26053 1.230728,0.005 1.725183,0.28414 1.620591,0.91513 -0.04334,0.26148 0.21885,0.72323 0.582652,1.02609 1.049266,0.87352 0.52248,0.63526 -0.963323,-0.43569 z"
         id="path2128" />
      <path
         style="fill:#66765b"
         d="m -9.789492,117.53879 c 0.7734649,-0.9108 1.4712082,-1.5911 1.5505408,-1.51176 0.079333,0.0793 -0.5535023,0.82453 -1.4062998,1.656 l -1.550541,1.51177 z"
         id="path2127" />
      <path
         style="fill:#66765b"
         d="m -12.498471,121.25663 c 0.329118,-0.0633 0.805368,-0.0609 1.058333,0.005 0.252965,0.0662 -0.01631,0.118 -0.598397,0.11507 -0.582084,-0.003 -0.789055,-0.0571 -0.459936,-0.12041 z"
         id="path2112" />
      <path
         style="fill:#66765b"
         d="m -17.943686,120.0547 c 0.871963,-2.30136 2.577776,-5.50883 3.580579,-6.73262 0.519266,-0.6337 0.988569,-1.10773 1.042895,-1.0534 0.05433,0.0543 -0.188857,0.6229 -0.540409,1.26349 -0.351551,0.64059 -0.717673,1.54136 -0.813603,2.00171 -0.145798,0.69964 -0.08375,0.86577 0.378135,1.01236 0.393321,0.12484 0.707673,-0.002 1.090827,-0.44011 0.296049,-0.33852 0.09364,0.0989 -0.449801,0.97201 -0.54344,0.87312 -1.34986,2.21257 -1.792045,2.97656 -0.768069,1.32703 -0.853519,1.38906 -1.913426,1.38906 h -1.109454 z"
         id="path2111" />
      <path
         style="fill:#66765b"
         d="m -28.383729,120.83517 c -0.657047,-1.00278 -3.683852,-7.23878 -3.243781,-6.68303 0.223676,0.28248 0.406684,0.63266 0.406684,0.77818 0,0.14552 0.168036,0.0348 0.373413,-0.24609 0.205377,-0.28087 0.31559,-0.60424 0.244917,-0.71859 -0.07067,-0.11435 0.02918,-0.17519 0.221899,-0.13521 0.192718,0.04 0.313912,-0.0963 0.269321,-0.30281 -0.07002,-0.3243 -0.019,-0.3243 0.374047,0 0.419231,0.3459 0.42915,0.32678 0.125784,-0.24246 -0.43873,-0.82324 -0.193975,-1.00933 0.463188,-0.35216 0.291042,0.29104 0.459714,0.59862 0.374827,0.6835 -0.08489,0.0849 -0.0084,0.15434 0.169955,0.15434 0.178362,0 0.273432,0.0893 0.211266,0.19844 -0.06217,0.10914 0.168933,0.47053 0.513552,0.80308 0.574688,0.55457 0.751365,0.54671 0.651357,-0.029 -0.02084,-0.11995 0.08607,-0.14149 0.237567,-0.0479 0.1515,0.0936 0.206955,0.28108 0.123233,0.41654 -0.08372,0.13547 -0.02613,0.2463 0.127975,0.2463 0.154109,0 0.288567,-0.14882 0.298795,-0.33073 0.01023,-0.1819 0.120922,-0.0926 0.245987,0.19844 0.319533,0.7436 0.309265,1.13484 -0.01736,0.66146 -0.19698,-0.28548 -0.23339,0.0116 -0.129724,1.05833 0.07926,0.80037 0.196572,2.03871 0.260687,2.75188 0.06412,0.71317 0.273142,1.39596 0.464505,1.5173 0.212168,0.13454 -0.182213,0.22222 -1.010699,0.22469 -1.12828,0.003 -1.426242,-0.0991 -1.757395,-0.60454 z"
         id="path2110" />
      <path
         style="fill:#66765b"
         d="m -34.939236,120.47798 c -0.501489,-0.53117 -0.755468,-0.8767 -0.564397,-0.76783 0.417052,0.23763 1.37239,-0.55398 1.37239,-1.13719 0,-0.22414 -0.319931,-0.74147 -0.710959,-1.14962 -0.391028,-0.40814 -0.584758,-0.74208 -0.430512,-0.74208 0.3378,0 4.051888,3.86577 4.051888,4.21737 0,0.13586 0.386953,0.29504 0.859896,0.35373 0.472942,0.0587 -0.158545,0.12577 -1.403306,0.14906 l -2.263202,0.0423 z"
         id="path2109" />
      <path
         style="fill:#5a6b50"
         d="m -23.527022,106.73739 c 0.0127,-0.30823 0.07539,-0.37092 0.159853,-0.15986 0.07643,0.191 0.06703,0.4192 -0.02089,0.50712 -0.08792,0.0879 -0.150453,-0.0683 -0.138965,-0.34726 z"
         id="path2053" />
      <path
         style="fill:#5a6b50"
         d="m -9.1281189,116.94584 c 0.2633891,-0.29104 0.5384205,-0.52916 0.6111809,-0.52916 0.07276,0 -0.083208,0.23812 -0.3465976,0.52916 -0.2633891,0.29105 -0.5384205,0.52917 -0.6111809,0.52917 -0.07276,0 0.083208,-0.23812 0.3465976,-0.52917 z"
         id="path2043" />
      <path
         style="fill:#5a6b50"
         d="m -17.57385,119.39324 c 1.638998,-3.59977 2.338972,-4.8631 3.24116,-5.84973 0.761784,-0.83309 0.810185,-0.85567 0.358085,-0.16712 -0.530758,0.80836 -1.243003,2.90007 -1.192903,3.50331 0.01511,0.1819 -0.07034,0.33073 -0.189887,0.33073 -0.119546,0 -0.292934,0.23812 -0.385307,0.52916 -0.09237,0.29105 -0.345548,0.52917 -0.562611,0.52917 -0.217063,0 -0.321076,0.11906 -0.231139,0.26458 0.08994,0.14552 0.0077,0.26641 -0.182822,0.26864 -0.282371,0.003 -0.281644,0.0451 0.0039,0.22613 0.29065,0.18428 0.29065,0.28493 0,0.59126 -0.596273,0.62845 -0.55376,1.28449 0.100247,1.54694 0.503185,0.20192 0.392628,0.2468 -0.642283,0.26068 l -1.250091,0.0168 z"
         id="path2022" />
      <path
         style="fill:#5a6b50"
         d="m -27.781243,121.17918 c 0.343137,-0.22176 0.337082,-0.25703 -0.04472,-0.26053 -0.279354,-0.003 -0.886898,-0.82098 -1.653646,-2.22759 -1.202278,-2.20561 -1.553497,-3.14494 -0.806762,-2.15767 0.213653,0.28248 0.388461,0.40481 0.388461,0.27186 0,-0.13295 0.185491,0.0231 0.412203,0.34677 0.226711,0.32368 0.340492,0.70453 0.252845,0.84635 -0.08765,0.14181 0.0321,0.58809 0.266097,0.99172 0.234,0.40363 0.363544,0.52933 0.287876,0.27933 -0.07567,-0.25 -0.02371,-0.52492 0.115451,-0.61093 0.139165,-0.086 0.253027,-0.27544 0.253027,-0.42096 0,-0.14552 -0.137458,-0.17963 -0.305463,-0.0758 -0.205463,0.12699 -0.232868,0.0713 -0.08371,-0.17001 0.311255,-0.50362 0.174695,-2.16025 -0.285623,-3.46493 -0.214052,-0.60669 -0.34816,-1.1441 -0.298016,-1.19424 0.140202,-0.14021 2.204082,4.31911 2.927495,6.32527 l 0.643999,1.78594 -1.233194,-0.004 c -0.893739,-0.003 -1.123949,-0.0747 -0.83632,-0.26053 z"
         id="path2021" />
      <path
         style="fill:#5a6b50"
         d="m -32.940618,121.17918 c 0.727604,-0.0998 1.154245,-0.20016 0.948091,-0.22302 -0.206155,-0.0229 -0.300008,-0.11639 -0.208562,-0.20783 0.09145,-0.0914 -0.227434,-0.65699 -0.708621,-1.25677 -0.481187,-0.59978 -0.971296,-1.2691 -1.08913,-1.48738 -0.386952,-0.71681 1.376504,1.0738 2.235467,2.26989 l 0.84001,1.16969 -1.670085,-0.0416 -1.670086,-0.0416 z"
         id="path2020" />
    </g>
  </g>
</svg>
