<?xml version="1.0" encoding="UTF-8" standalone="no"?>
<!-- Created with Inkscape (http://www.inkscape.org/) -->

<svg
   width="64.41539mm"
   height="58.992348mm"
   viewBox="0 0 64.41539 58.992348"
   version="1.1"
   id="svg1"
   xmlns="http://www.w3.org/2000/svg"
   xmlns:svg="http://www.w3.org/2000/svg">
  <defs
     id="defs1" />
  <g
     id="layer1"
     transform="translate(-55.297918,-112.44792)">
    <g
       id="g3105"
       transform="translate(-53.123085,118.95938)">
      <path
         style="fill:#d7e4f1"
         d="m 112.27078,52.387511 c -2.20748,-0.07276 -4.08474,-0.20377 -4.17169,-0.291132 -0.26695,-0.268217 4.04064,-1.798358 7.39153,-2.625622 1.74625,-0.431112 4.51558,-0.985316 6.15406,-1.231566 l 2.97906,-0.447727 -0.7301,-0.780873 c -2.10964,-2.256351 -7.72642,-5.648166 -10.85041,-6.552249 -0.77815,-0.225195 -1.12448,-0.470015 -1.12448,-0.794881 0,-0.831153 2.5607,-1.179523 5.60986,-0.763192 4.10956,0.561119 7.65266,2.580533 11.14419,6.351707 1.07545,1.161579 1.91398,1.843869 2.26613,1.843869 0.30744,0 0.55899,-0.04366 0.55899,-0.09703 0,-0.05336 -0.59532,-1.307738 -1.32292,-2.787495 -0.72761,-1.479757 -1.32292,-2.740229 -1.32292,-2.801049 0,-0.06082 -1.30969,-2.898371 -2.91041,-6.305667 -1.60073,-3.407297 -2.91042,-6.382385 -2.91042,-6.611307 0,-1.395586 2.36649,-0.178434 5.30313,2.727547 3.85331,3.813072 6.08554,7.773252 7.8035,13.844098 0.23984,0.847536 0.47479,1.502254 0.52212,1.454931 0.10722,-0.107222 -1.0215,-7.766993 -1.59162,-10.801112 -0.60382,-3.213473 -2.3806,-9.975338 -2.9895,-11.377083 -0.28445,-0.654844 -0.82248,-1.472962 -1.19561,-1.81804 l -0.67843,-0.627415 -0.69772,0.759707 c -0.38375,0.417838 -0.60884,0.590294 -0.50021,0.383236 0.14747,-0.281065 0.0374,-0.264302 -0.4344,0.06615 -0.34756,0.243439 -0.90082,0.442616 -1.22947,0.442616 -0.94733,0 -1.0911,-1.116107 -0.43992,-3.415224 0.15423,-0.544505 0.10349,-0.616973 -0.34909,-0.49862 -0.58063,0.151838 -1.14153,-0.502464 -1.14153,-1.331627 0,-0.269584 0.32742,-0.925387 0.7276,-1.457342 0.56033,-0.744833 0.86447,-0.935952 1.32292,-0.831315 0.52647,0.120163 0.59531,0.03277 0.59531,-0.755725 0,-1.374499 0.50165,-2.558064 1.08422,-2.558064 0.61617,0 1.49181,0.840288 1.84576,1.771241 l 0.26301,0.691776 0.78155,-0.748769 c 0.72906,-0.698482 0.82858,-0.723595 1.48193,-0.373931 0.38522,0.20616 0.87066,0.634698 1.07876,0.952307 0.33006,0.503724 0.32628,0.678212 -0.0296,1.366315 -0.22436,0.433864 -0.5978,0.978718 -0.82987,1.210786 -0.47647,0.476475 -0.19946,0.539817 0.76205,0.17425 0.35832,-0.13623 0.71505,-0.184121 0.79275,-0.106424 0.31495,0.314949 -0.17893,0.861459 -0.92697,1.025756 l -0.7959,0.17481 0.71221,0.743386 c 1.11127,1.159917 0.94288,2.901273 -0.31546,3.262159 l -0.79275,0.22736 0.64132,1.759801 c 1.30473,3.580222 2.3218,8.0736 4.29107,18.957718 l 0.52658,2.910417 -0.12405,-8.466667 c -0.0682,-4.656666 -0.20289,-9.519335 -0.29927,-10.80593 l -0.17523,-2.339265 -0.86857,0.101402 c -0.69828,0.08152 -0.89704,-0.0045 -1.01372,-0.438861 -0.27462,-1.022234 -0.15148,-2.087074 0.29891,-2.58475 0.36841,-0.407091 0.3927,-0.592444 0.13229,-1.009431 -0.47804,-0.765456 -0.38501,-2.227887 0.20536,-3.228498 0.48642,-0.82442 0.50205,-1.055398 0.21603,-3.193102 l -0.30833,-2.304397 -0.69352,0.664437 c -0.85934,0.823298 -2.3657,0.914152 -2.83,0.170687 -0.335,-0.536409 -0.13959,-1.852316 0.43429,-2.924622 0.31159,-0.5822106 0.29396,-0.6168074 -0.24284,-0.4764321 -0.37482,0.098018 -0.75841,-0.028217 -1.08836,-0.3581642 -0.71534,-0.7153388 -0.63386,-1.2634817 0.21807,-1.4671129 1.09692,-0.2621875 1.16415,-0.3515368 0.73044,-0.9707417 -0.50673,-0.7234715 -0.5089,-1.3558417 -0.006,-1.77315 0.32511,-0.26982 0.55539,-0.1649287 1.32292,0.6026032 l 0.92929,0.9292868 0.004,-1.0980208 c 0.003,-0.8321016 0.0697,-1.0019054 0.27508,-0.7011458 0.19974,0.2924936 0.25087,0.083731 0.19438,-0.79375 -0.0665,-1.0326853 -0.008,-1.190625 0.4426,-1.190625 0.38831,0 0.58141,0.2668787 0.76577,1.0583333 0.31222,1.3403581 0.67394,1.5713388 1.39699,0.8920684 0.33244,-0.3123177 0.83462,-0.5018196 1.19471,-0.4508427 0.55408,0.078438 0.6195,0.222376 0.60538,1.3319928 -0.0145,1.1427017 0.0393,1.2504768 0.66145,1.3229167 1.19328,0.1389468 0.96202,2.0632397 -0.24795,2.0632397 -0.4316,0 -0.42741,0.073088 0.0607,1.0597193 1.00497,2.031213 -0.20099,3.503448 -2.00022,2.441877 l -0.9116,-0.537858 0.35739,1.494693 c 0.19656,0.822082 0.36345,1.79235 0.37086,2.156152 0.007,0.363802 0.13978,0.840052 0.29415,1.058333 0.24949,0.352778 0.29786,0.352778 0.43535,0 0.31974,-0.820438 1.87589,-2.116666 2.54109,-2.116666 0.36977,0 0.73792,0.106168 0.81812,0.235929 0.23478,0.379893 0.27451,1.964774 0.0645,2.574613 -0.17622,0.511787 -0.10208,0.55919 0.83616,0.534589 0.82696,-0.02168 1.14177,-0.18423 1.60009,-0.826168 l 0.57058,-0.799172 -0.79922,-0.331488 c -0.50031,-0.207507 -0.79923,-0.523279 -0.79923,-0.844281 0,-0.712761 0.4416,-0.914291 0.76945,-0.35115 0.15004,0.257722 0.27824,0.349523 0.28489,0.204003 0.007,-0.145521 0.12752,-0.08599 0.26858,0.132291 0.18637,0.288387 0.25759,0.3022 0.26053,0.05053 0.002,-0.200462 0.14336,-0.26721 0.33478,-0.158469 0.1819,0.103331 -0.13368,-0.222981 -0.70129,-0.725137 -1.00211,-0.886543 -1.02123,-0.935642 -0.65962,-1.693614 0.28368,-0.594631 0.58095,-0.800662 1.24775,-0.864801 0.48143,-0.04631 1.04044,0.05283 1.24224,0.220305 0.29446,0.244383 0.44144,0.126122 0.7444,-0.598982 0.39326,-0.941189 1.57828,-2.0506659 2.19031,-2.0506659 0.5856,0 1.23483,1.5637469 1.07026,2.5778759 -0.12685,0.781659 -0.0846,0.881989 0.30275,0.718771 1.39196,-0.586542 1.90068,-0.391681 2.28979,0.87709 0.14516,0.473297 -0.0186,0.805089 -0.76679,1.553235 -0.90447,0.904474 -0.91858,0.945105 -0.28617,0.824212 0.76375,-0.145999 1.28275,0.327709 1.04315,0.952103 -0.14617,0.380926 -0.2238,0.384517 -0.72489,0.03354 -0.58981,-0.41312 -1.50839,-0.532918 -1.49241,-0.194636 0.005,0.109141 0.17953,0.496094 0.3875,0.859896 0.20797,0.363802 0.38235,1.056239 0.3875,1.538749 0.0196,1.836756 -0.97132,2.416549 -2.31875,1.356664 l -0.6918,-0.54417 -0.2013,0.54417 c -0.29037,0.784951 -0.79302,0.685296 -0.59159,-0.117288 0.30036,-1.196735 -0.10695,-0.690522 -0.69189,0.859896 -1.80294,4.77878 -3.26053,10.689176 -4.61372,18.708233 -1.12155,6.646352 -1.12063,6.627195 -0.32282,6.693224 0.53505,0.04428 0.7215,-0.225428 1.46748,-2.122771 1.7395,-4.424326 4.75238,-8.568613 8.18099,-11.253159 2.02855,-1.588316 5.79789,-3.414265 6.2059,-3.006262 0.22463,0.224631 0.10401,0.56236 -0.47649,1.334188 -3.62323,4.817368 -5.34759,7.323178 -7.45799,10.837784 -1.34606,2.241709 -2.44739,4.180158 -2.44739,4.307663 0,0.127506 0.27553,0.231829 0.61228,0.231829 0.42107,0 0.89618,-0.38281 1.52136,-1.225795 2.12839,-2.869942 6.50885,-5.771434 10.56267,-6.996416 2.54721,-0.769715 6.42217,-0.888247 6.56008,-0.200669 0.0632,0.315039 -0.4622,0.729887 -1.84293,1.455208 -3.79452,1.993323 -10.70113,7.012843 -10.37512,7.540337 0.0751,0.121597 0.46574,0.221085 0.86798,0.221085 2.28235,0 12.69521,2.522167 15.15917,3.6718 l 1.67305,0.780608 -10.98021,0.05021 c -26.22862,0.119929 -46.19475,0.11805 -49.9188,-0.0047 z m 30.06233,-16.139583 c 0.96446,-4.527057 1.82371,-7.797984 3.07067,-11.689228 0.64646,-2.017329 1.17538,-3.784398 1.17538,-3.926821 0,-0.407635 -1.21272,-0.302937 -2.25651,0.19481 -0.79803,0.380555 -0.87417,0.484269 -0.47199,0.642862 0.37128,0.146407 0.3104,0.1933 -0.26964,0.207698 l -0.74918,0.0186 0.55075,0.891126 c 0.76376,1.235792 0.69086,1.850512 -0.30915,2.606846 -0.73005,0.552153 -0.96395,0.606837 -1.54898,0.362132 -0.379,-0.158526 -0.90421,-0.466823 -1.16713,-0.685104 -0.44712,-0.3712 -0.46647,-0.345526 -0.29912,0.396875 0.0984,0.436563 0.25773,5.377656 0.35404,10.980208 l 0.17511,10.186459 0.57694,-3.704167 c 0.31733,-2.037292 0.84329,-4.954323 1.16881,-6.482292 z m 4.15156,-19.182291 c 0.21828,-0.218281 0.28389,-0.396875 0.14579,-0.396875 -0.1381,0 -0.3993,0.178594 -0.58046,0.396875 -0.18116,0.218281 -0.24676,0.396875 -0.14579,0.396875 0.10097,0 0.36218,-0.178594 0.58046,-0.396875 z m -11.76181,-5.688542 c 0.14919,0 0.20272,-0.178593 0.11896,-0.396875 -0.0838,-0.218281 -0.0623,-0.396875 0.0477,-0.396875 0.10998,0 0.2185,-0.26789 0.24114,-0.5953121 0.0378,-0.5468545 -0.0222,-0.5249779 -0.73744,0.2687571 -0.85184,0.945327 -1.01705,1.532999 -0.3601,1.280905 0.23018,-0.08833 0.54057,-0.1606 0.68976,-0.1606 z m 0.21464,-2.6458329 c -0.53212,-0.343883 -2.46149,-0.343883 -2.24896,0 0.0899,0.1455208 0.72204,0.2627601 1.40468,0.2605318 0.89888,-0.00293 1.13171,-0.074781 0.84428,-0.2605318 z m 4.23333,-0.2645833 c 0.35278,-0.2279825 0.35278,-0.2564804 0,-0.2564804 -0.21828,0 -0.57547,0.1154162 -0.79375,0.2564804 -0.35278,0.2279825 -0.35278,0.2564803 0,0.2564803 0.21828,0 0.57547,-0.1154162 0.79375,-0.2564803 z m -4.56957,-0.6890191 c -0.0879,-0.087919 -0.31612,-0.097319 -0.50712,-0.020888 -0.21107,0.084462 -0.14837,0.1471567 0.15985,0.1598524 0.27892,0.011488 0.43519,-0.051045 0.34727,-0.1389644 z m 4.52411,-1.2614422 c 0.14922,-1.3058278 -0.38326,-1.4003427 -1.00652,-0.178655 l -0.56569,1.1088428 0.74269,-0.085176 c 0.59636,-0.068394 0.7598,-0.2348799 0.82952,-0.8450118 z"
         id="path3101" />
      <path
         style="fill:#b5cadf"
         d="m 136.44864,4.597955 c -0.2721,-0.272094 -0.23179,-1.6875262 0.048,-1.6875262 0.12995,0 0.30476,0.1784612 0.38846,0.3965803 0.18611,0.4850017 -0.17488,1.5525851 -0.43651,1.2909459 z"
         id="path3088" />
      <path
         style="fill:#b5cadf"
         d="m 137.84792,5.8364604 c 0,-0.1369327 0.11769,-0.3217102 0.26155,-0.4106169 0.14998,-0.092694 0.19434,0.013509 0.10398,0.2489684 -0.17589,0.4583687 -0.36553,0.5422336 -0.36553,0.1616485 z"
         id="path3087" />
      <path
         style="fill:#b5cadf"
         d="m 137.46805,6.801622 c 0.0994,-0.2609375 0.2473,-0.4077813 0.32877,-0.3263195 0.0815,0.081462 1.6e-4,0.2949561 -0.18066,0.4744318 -0.2613,0.2593624 -0.29169,0.2289714 -0.14811,-0.1481123 z"
         id="path3086" />
      <path
         style="fill:#b5cadf"
         d="m 138.82972,7.6067829 c 0.51527,-0.5629698 1.02725,-1.713097 0.93106,-2.0915694 -0.0242,-0.095337 0.13078,-0.2404285 0.34446,-0.3224252 0.75129,-0.2882988 0.46268,1.3883432 -0.38489,2.2359097 -0.9131,0.9130998 -1.70904,1.0722517 -0.89063,0.1780849 z"
         id="path3085" />
      <path
         style="fill:#b5cadf"
         d="m 140.73395,8.7768147 c 0.15362,-0.2870462 0.15752,-0.6203461 0.01,-0.8535589 -0.38888,-0.6146711 -0.29104,-0.8221024 0.34514,-0.7317499 0.85159,0.1209445 0.84708,1.5182963 -0.006,1.8338395 -0.5225,0.1932865 -0.56822,0.1607431 -0.34919,-0.2485307 z"
         id="path3084" />
      <path
         style="fill:#b5cadf"
         d="m 139.03854,9.4022758 c -0.61552,-0.2818404 -0.67493,-0.3663879 -0.26458,-0.3765266 0.29104,-0.00719 0.76028,0.1617327 1.04275,0.3753859 0.63732,0.482039 0.27324,0.4825727 -0.77817,0.00114 z"
         id="path3083" />
      <path
         style="fill:#b5cadf"
         d="m 132.20347,9.6132065 c -0.3709,-0.370904 -0.15414,-0.6240724 0.31799,-0.3713958 0.27191,0.1455208 0.56956,0.1893974 0.66146,0.097504 0.0919,-0.091894 0.16708,-0.028174 0.16708,0.1416007 0,0.3291203 -0.85146,0.427365 -1.14653,0.1322911 z"
         id="path3082" />
      <path
         style="fill:#b5cadf"
         d="m 133.08542,12.715627 c 0,-0.338956 0.48537,-0.612742 1.23148,-0.694644 0.75165,-0.08251 0.81267,0.293034 0.10883,0.66972 -0.6385,0.341711 -1.34031,0.354762 -1.34031,0.02492 z"
         id="path3081" />
      <path
         style="fill:#b5cadf"
         d="m 133.61458,13.502066 c 0,-0.140954 0.1786,-0.187747 0.39688,-0.103984 0.21828,0.08376 0.39687,0.199088 0.39687,0.256279 0,0.05719 -0.17859,0.103984 -0.39687,0.103984 -0.21828,0 -0.39688,-0.115325 -0.39688,-0.256279 z"
         id="path3080" />
      <path
         style="fill:#b5cadf"
         d="m 150.02755,14.518261 c -0.005,-0.09137 0.16979,-0.59356 0.38807,-1.115981 0.21828,-0.52242 0.39688,-1.189252 0.39688,-1.481848 0,-0.469737 -0.0765,-0.497141 -0.65363,-0.234181 -0.50303,0.229199 -0.74944,0.218285 -1.06954,-0.04738 -0.62188,-0.516112 -1.05127,0.06633 -1.01684,1.379282 0.0274,1.043836 0.0127,1.06501 -0.31395,0.454495 -0.36417,-0.680552 -1.84775,-0.987864 -1.59549,-0.330494 0.0706,0.184062 0.0146,0.405028 -0.12461,0.491037 -0.24015,0.148425 -0.29762,0.03077 -0.35886,-0.734745 -0.0145,-0.181902 -0.14218,-0.413622 -0.28363,-0.514934 -0.47411,-0.339597 0.72068,-0.568115 1.47726,-0.282541 0.7077,0.26713 0.77995,0.221931 1.43681,-0.898916 0.6721,-1.146857 1.51673,-1.7308349 2.15326,-1.4887758 0.49856,0.1895908 0.86001,1.5661888 0.69591,2.6503798 -0.12461,0.823264 -0.0895,0.939954 0.20093,0.667078 0.19358,-0.181901 0.53651,-0.325962 0.76207,-0.320136 0.22657,0.0059 0.0607,0.199698 -0.37062,0.433153 -0.42939,0.232408 -0.99097,0.674125 -1.24796,0.981594 -0.25699,0.307469 -0.47122,0.484279 -0.47606,0.392909 z"
         id="path3079" />
      <path
         style="fill:#b5cadf"
         d="m 140.72698,16.867199 c -0.0172,-0.181901 -0.012,-0.479557 0.0116,-0.661458 0.0236,-0.181901 -0.1111,-0.334516 -0.29938,-0.339144 -0.68592,-0.01686 0.69617,-0.785335 1.41242,-0.785335 1.01695,0 1.09137,0.290414 0.32524,1.269337 -0.67379,0.860945 -1.39295,1.117187 -1.44988,0.5166 z"
         id="path3078" />
      <path
         style="fill:#b5cadf"
         d="m 130.86956,16.227592 c 0.16184,-1.357381 -0.16395,-1.84612 -0.91708,-1.375779 -0.43847,0.273829 -0.62704,0.279477 -0.88015,0.02636 -0.40078,-0.400775 -0.53274,-1.852738 -0.18777,-2.065942 0.41694,-0.257688 1.54436,0.641218 1.99841,1.593362 l 0.42247,0.885931 0.62159,-0.700444 c 0.53062,-0.597934 0.49976,-0.468112 -0.21083,0.887055 -0.45783,0.873125 -0.86282,1.627099 -0.89998,1.675497 -0.0372,0.0484 -0.0132,-0.36832 0.0533,-0.926042 z"
         id="path3077" />
      <path
         style="fill:#b5cadf"
         d="m 133.74687,16.933345 c 0.26339,-0.291041 0.52416,-0.529166 0.57949,-0.529166 0.0553,0 -0.0268,0.238125 -0.18261,0.529166 -0.15576,0.291042 -0.41653,0.529167 -0.57948,0.529167 -0.16296,0 -0.0808,-0.238125 0.1826,-0.529167 z"
         id="path3076" />
      <path
         style="fill:#b5cadf"
         d="m 128.25204,17.056098 c -1.00877,-0.685478 -1.30279,-1.094122 -0.59058,-0.820822 0.21828,0.08376 0.40066,0.0072 0.40529,-0.17013 0.008,-0.324706 0.60652,0.340052 1.07861,1.198928 0.33017,0.600676 0.27929,0.588829 -0.89332,-0.207976 z"
         id="path3075" />
      <path
         style="fill:#b5cadf"
         d="m 125.9492,17.183857 c 0.16018,-0.29931 0.42765,-0.433022 0.67574,-0.337819 0.46865,0.179838 0.1187,0.677697 -0.54481,0.77508 -0.30852,0.04528 -0.33746,-0.05136 -0.13093,-0.437261 z"
         id="path3074" />
      <path
         style="fill:#b5cadf"
         d="m 150.68021,19.579179 c -0.0899,-0.145521 -0.0374,-0.264584 0.11667,-0.264584 0.15411,0 0.2802,0.119063 0.2802,0.264584 0,0.14552 -0.0525,0.264583 -0.11668,0.264583 -0.0642,0 -0.19026,-0.119063 -0.28019,-0.264583 z"
         id="path3069" />
      <path
         style="fill:#b5cadf"
         d="m 148.75856,20.098843 c 0.14907,-0.587309 0.31134,-1.027541 0.36059,-0.978294 0.16757,0.167575 -0.22703,2.04613 -0.4298,2.04613 -0.11101,0 -0.0799,-0.480526 0.0692,-1.067836 z"
         id="path3067" />
      <path
         style="fill:#b5cadf"
         d="m 136.57723,21.151995 c -0.17425,-0.279017 -0.31681,-0.733117 -0.31681,-1.009112 0,-0.474282 0.0617,-0.48072 1.12447,-0.117357 0.9915,0.338984 1.89565,0.876569 1.4743,0.876569 -0.0841,0 -0.56066,0.170371 -1.05902,0.378602 -0.83545,0.349074 -0.93083,0.339036 -1.22294,-0.128702 z"
         id="path3066" />
      <path
         style="fill:#b5cadf"
         d="m 127.26458,22.09272 c 0,-0.218281 0.11533,-0.396875 0.25628,-0.396875 0.14096,0 0.18775,0.178594 0.10399,0.396875 -0.0838,0.218281 -0.19909,0.396875 -0.25628,0.396875 -0.0572,0 -0.10399,-0.178594 -0.10399,-0.396875 z"
         id="path3065" />
      <path
         style="fill:#b5cadf"
         d="m 127.81464,22.599838 c 0.0127,-0.308224 0.0754,-0.370919 0.15985,-0.159852 0.0764,0.190996 0.067,0.419199 -0.0209,0.507118 -0.0879,0.08792 -0.15045,-0.06835 -0.13896,-0.347266 z"
         id="path3063" />
      <path
         style="fill:#b5cadf"
         d="m 141.81012,24.456744 c -0.35231,-0.926642 -0.33471,-0.968468 0.27113,-0.644234 0.29104,0.155761 0.52916,0.517137 0.52916,0.803059 0,0.74126 -0.49547,0.64293 -0.80029,-0.158825 z"
         id="path3060" />
      <path
         style="fill:#b5cadf"
         d="m 136.10347,24.528574 c -0.0858,-0.270247 -0.11532,-0.51215 -0.0656,-0.537564 0.0497,-0.02541 0.35658,-0.195035 0.68203,-0.376936 0.89581,-0.500692 1.03143,-0.413174 0.91432,0.590005 -0.0915,0.783906 -0.20165,0.91294 -0.74112,0.868292 -0.35327,-0.02924 -0.70264,-0.269852 -0.78958,-0.543797 z"
         id="path3059" />
      <path
         style="fill:#b5cadf"
         d="m 112.27078,52.387511 c -2.20748,-0.07276 -4.08474,-0.20377 -4.17169,-0.291132 -0.26695,-0.268217 4.04064,-1.798358 7.39153,-2.625622 1.74625,-0.431112 4.51558,-0.985316 6.15406,-1.231566 l 2.97906,-0.447727 -0.7301,-0.780873 c -2.10964,-2.256351 -7.72642,-5.648166 -10.85041,-6.552249 -0.77815,-0.225195 -1.12448,-0.470015 -1.12448,-0.794881 0,-0.831153 2.5607,-1.179523 5.60986,-0.763192 4.10956,0.561119 7.65266,2.580533 11.14419,6.351707 1.07545,1.161579 1.91398,1.843869 2.26613,1.843869 0.30744,0 0.55899,-0.04366 0.55899,-0.09703 0,-0.05336 -0.59532,-1.307738 -1.32292,-2.787495 -0.72761,-1.479757 -1.32292,-2.740229 -1.32292,-2.801049 0,-0.06082 -1.30969,-2.898371 -2.91041,-6.305667 -1.60073,-3.407297 -2.91042,-6.382385 -2.91042,-6.611307 0,-1.395586 2.36649,-0.178434 5.30313,2.727547 3.85331,3.813072 6.08554,7.773252 7.8035,13.844098 0.23984,0.847536 0.47479,1.502254 0.52212,1.454931 0.10722,-0.107222 -1.0215,-7.766993 -1.59162,-10.801112 -0.61465,-3.271092 -2.38731,-9.994531 -2.99961,-11.377083 -0.29002,-0.654844 -0.89429,-1.571121 -1.34283,-2.036172 -0.63784,-0.661316 -0.81552,-1.079266 -0.81552,-1.918229 0,-0.907673 -0.0841,-1.072683 -0.54657,-1.072683 -0.72242,0 -1.58999,0.459164 -2.18317,1.155446 l -0.48078,0.564346 0.28234,-0.577918 c 0.38255,-0.783029 0.36043,-0.87729 -0.20582,-0.87729 -0.26849,0 -0.70366,-0.238125 -0.96705,-0.529167 -0.57632,-0.636834 -0.2693,-0.669961 1.06034,-0.114405 1.15284,0.481688 2.37918,0.154492 2.65286,-0.7078 0.14701,-0.463168 0.67429,-0.661482 1.31389,-0.49416 0.14552,0.03807 0.56224,0.06546 0.92604,0.06086 0.40843,-0.0052 0.48434,0.03837 0.19844,0.113808 -0.25467,0.06719 -0.46302,0.292031 -0.46302,0.499642 0,0.549677 1.15935,0.469399 2.17641,-0.150703 1.01657,-0.619799 1.52775,-0.674248 1.52775,-0.162726 0,0.209857 -0.39385,0.441317 -0.9184,0.539722 l -0.9184,0.172293 0.76541,0.717049 c 0.42098,0.394376 0.83861,1.014704 0.92807,1.378506 0.15906,0.646846 0.15353,0.645459 -0.25059,-0.06282 -0.35006,-0.613521 -1.98734,-1.781464 -1.98734,-1.417652 0,0.06634 -0.33454,0.02467 -0.74343,-0.0926 -1.11903,-0.320935 -1.74739,0.244601 -1.53423,1.380849 0.17814,0.949548 1.53209,2.47386 1.9616,2.20841 0.40324,-0.249215 0.80201,0.409889 1.51335,2.50131 1.27579,3.750982 2.17437,7.791467 4.08516,18.368957 l 0.52576,2.910417 -0.12857,-8.466667 c -0.0707,-4.656666 -0.20334,-9.609348 -0.29473,-11.00596 -0.15497,-2.368115 -0.13144,-2.548375 0.34902,-2.674017 0.31588,-0.08261 0.7029,-0.626251 1.00042,-1.405284 0.46758,-1.22436 0.46786,-1.283261 0.008,-1.619872 -0.37963,-0.277597 -0.42285,-0.472265 -0.21049,-0.948179 0.27657,-0.61981 -0.20725,-2.267616 -0.76956,-2.621029 -0.7769,-0.488279 -1.81147,0.56455 -1.23606,1.257877 0.40082,0.482961 -0.0589,0.46437 -0.70487,-0.02851 -0.34584,-0.263862 -0.4185,-0.458304 -0.22247,-0.595313 0.78722,-0.550192 0.91409,-1.356922 0.59283,-3.769825 l -0.3181,-2.389185 -0.56456,0.530377 c -0.89364,0.839535 -0.97247,0.616227 -0.093,-0.2633 0.64805,-0.648043 0.77866,-0.975746 0.71185,-1.785937 -0.0491,-0.596034 -0.29497,-1.1687037 -0.61559,-1.4341194 -0.50392,-0.4171529 -0.58036,-0.4064372 -1.36712,0.1916569 -0.75032,0.5703945 -0.82017,0.5831255 -0.70109,0.1277709 0.0727,-0.2781588 0.47751,-0.6261014 0.8995,-0.7732058 0.93053,-0.3243856 0.9761,-0.9426003 0.14437,-1.9587922 -0.63242,-0.7726865 -1.67306,-0.7724883 -1.37653,2.621e-4 0.0895,0.2332181 0.0173,0.3415518 -0.18323,0.2749665 -0.182,-0.060431 -0.44385,-0.4294387 -0.58189,-0.820017 -0.19416,-0.5493826 -0.15196,-0.809158 0.18642,-1.1475355 0.4068,-0.406802 0.52862,-0.3417441 1.74174,0.9302 0.71739,0.7521763 1.53778,1.3675933 1.82309,1.3675933 0.74868,0 1.581,0.9776826 1.1766,1.3820851 -0.43244,0.4324371 -0.38852,1.1644301 0.11606,1.9345151 0.23501,0.358682 0.30447,0.65215 0.15434,0.65215 -0.15013,0 -0.34374,-0.148828 -0.43024,-0.330729 -0.0865,-0.181901 -0.0864,-0.03307 1.7e-4,0.330729 0.0866,0.363802 0.33827,1.554427 0.55927,2.645833 0.221,1.091406 0.55824,2.341562 0.74943,2.778125 0.19118,0.436562 0.42037,1.125221 0.5093,1.530352 0.0964,0.43909 0.43756,0.8623 0.84472,1.047814 0.61767,0.281428 0.73724,0.237486 1.24947,-0.459157 0.31154,-0.423703 0.71059,-1.192875 0.88678,-1.709272 l 0.32034,-0.938904 -0.15149,0.898886 c -0.15135,0.898077 -0.15069,0.898732 0.73799,0.727974 0.6279,-0.120648 0.77277,-0.0944 0.49261,0.08925 -0.21828,0.143089 -0.58296,0.261985 -0.81039,0.264214 -0.22744,0.0022 -0.74413,0.349127 -1.1482,0.770885 -0.60326,0.629672 -0.68442,0.860732 -0.45372,1.291789 0.33193,0.620228 0.82925,0.841991 1.97093,0.878877 l 0.83826,0.02708 -0.92352,0.217096 c -0.54834,0.128901 -1.04862,0.11327 -1.23146,-0.03848 -0.16937,-0.140565 -0.61699,-0.178006 -0.99472,-0.0832 -0.6236,0.156515 -0.68676,0.292832 -0.68676,1.482216 0,0.903118 -0.0925,1.252708 -0.29775,1.125831 -0.21052,-0.13011 -0.2513,0.117216 -0.13922,0.844281 0.0872,0.565564 0.24224,5.612204 0.34455,11.214756 l 0.18603,10.186459 0.57694,-3.704167 c 0.58426,-3.751087 1.33841,-7.524743 2.27367,-11.377083 0.9484,-3.906487 3.22248,-10.843276 3.71056,-11.318611 1.25957,-1.226674 1.6715,-3.593935 0.55242,-3.174595 -0.41723,0.15634 -0.42317,0.126054 -0.0635,-0.323461 0.3619,-0.452243 0.35416,-0.479926 -0.0878,-0.314121 -0.26656,0.100006 -0.57986,0.18183 -0.69621,0.18183 -0.11635,0 -0.58853,0.385586 -1.04928,0.856859 -0.72369,0.7402 -0.81589,0.986184 -0.67726,1.806743 0.18598,1.10082 -0.10936,1.444375 -1.39563,1.623481 -0.85685,0.119311 -0.85972,0.116022 -0.37469,-0.42978 0.26882,-0.302507 0.79934,-1.095285 1.17894,-1.76173 0.37959,-0.666445 0.87563,-1.365633 1.10229,-1.553751 0.63099,-0.523675 0.49428,-0.806406 -0.38993,-0.806406 -0.86282,0 -1.22436,-0.490078 -0.92714,-1.256771 0.17019,-0.439021 0.19701,-0.439234 0.51748,-0.0041 0.1859,0.252399 0.41552,0.381384 0.51027,0.286632 0.0948,-0.09475 0.17228,-0.05321 0.17228,0.09231 0,0.145521 0.14883,0.272851 0.33073,0.282957 0.1819,0.01011 0.72458,0.105742 1.20595,0.212526 0.74669,0.165642 0.89598,0.114734 1.01664,-0.34669 0.28126,-1.075521 1.84443,-0.75797 2.24941,0.456957 0.0794,0.238147 0.38128,0.209122 1.18981,-0.11439 0.99703,-0.398931 1.09659,-0.529446 1.24831,-1.636344 0.0907,-0.66156 0.0997,-1.308213 0.0201,-1.437007 -0.0796,-0.128793 0.0411,-0.16287 0.26818,-0.07573 1.08777,0.417419 0.64682,2.472912 -0.69224,3.226841 -0.59965,0.337617 -0.59188,0.345315 0.2457,0.243524 0.95309,-0.11583 1.48306,0.297124 1.22946,0.957999 -0.14617,0.380926 -0.2238,0.384517 -0.72489,0.03354 -0.30866,-0.21619 -0.83655,-0.393073 -1.17309,-0.393073 -0.54996,0 -0.58054,0.06025 -0.30209,0.595312 0.30859,0.59299 0.30713,0.592864 -0.37292,-0.03236 -0.47822,-0.439661 -0.86542,-0.5802 -1.29268,-0.469188 -0.50493,0.131195 -0.78318,0.672064 -1.61597,3.141213 -2.72894,8.091034 -3.64953,11.75356 -5.06971,20.169609 -1.12155,6.646352 -1.12063,6.627195 -0.32282,6.693224 0.53505,0.04428 0.7215,-0.225428 1.46748,-2.122771 1.7395,-4.424326 4.75238,-8.568613 8.18099,-11.253159 2.02855,-1.588316 5.79789,-3.414265 6.2059,-3.006262 0.22463,0.224631 0.10401,0.56236 -0.47649,1.334188 -3.62323,4.817368 -5.34759,7.323178 -7.45799,10.837784 -1.34606,2.241709 -2.44739,4.180158 -2.44739,4.307663 0,0.127506 0.27553,0.231829 0.61228,0.231829 0.42107,0 0.89618,-0.38281 1.52136,-1.225795 2.12839,-2.869942 6.50885,-5.771434 10.56267,-6.996416 2.54721,-0.769715 6.42217,-0.888247 6.56008,-0.200669 0.0632,0.315039 -0.4622,0.729887 -1.84293,1.455208 -3.79452,1.993323 -10.70113,7.012843 -10.37512,7.540337 0.0751,0.121597 0.46574,0.221085 0.86798,0.221085 2.28235,0 12.69521,2.522167 15.15917,3.6718 l 1.67305,0.780608 -10.98021,0.05021 c -26.22862,0.119929 -46.19475,0.11805 -49.9188,-0.0047 z"
         id="path3056" />
      <path
         style="fill:#cfc3ad"
         d="m 139.99501,6.6145953 c 0.0123,-0.2182813 0.11765,-0.6945313 0.23415,-1.0583334 l 0.21184,-0.6614583 0.0223,0.6614583 c 0.0123,0.3638021 -0.0931,0.8400521 -0.23416,1.0583334 -0.22798,0.3527777 -0.254,0.3527777 -0.23415,0 z"
         id="path3025" />
      <path
         style="fill:#cfc3ad"
         d="m 134.82222,6.6921523 c -0.14359,-0.3770838 -0.1132,-0.4074748 0.14811,-0.1481124 0.18082,0.1794757 0.26212,0.39297 0.18065,0.4744318 -0.0815,0.081462 -0.2294,-0.065382 -0.32876,-0.3263194 z"
         id="path3024" />
      <path
         style="fill:#cfc3ad"
         d="m 132.92386,6.4599106 c -0.1112,-0.4430524 -0.0355,-0.8200292 0.2151,-1.0705863 0.33926,-0.3392576 0.46527,-0.3213484 1.02649,0.1458823 0.53173,0.4426813 0.56157,0.5341036 0.17674,0.5414197 -0.25467,0.00484 -0.46302,0.1348917 -0.46302,0.2890007 0,0.1541091 -0.1393,0.1941087 -0.30955,0.088888 -0.20814,-0.128635 -0.2542,-0.04707 -0.1406,0.2489684 0.0929,0.2421532 0.0559,0.4402785 -0.0823,0.4402785 -0.13819,0 -0.32848,-0.3077332 -0.42288,-0.6838515 z"
         id="path3023" />
      <path
         style="fill:#cfc3ad"
         d="m 141.17682,8.4080266 c 0.0366,-0.3315434 0.0765,-0.692103 0.0886,-0.8012437 0.0121,-0.1091406 0.14902,-0.1984375 0.30421,-0.1984375 0.3643,0 0.20612,1.3844546 -0.17235,1.5084435 -0.16136,0.05286 -0.25791,-0.1699351 -0.22049,-0.5087623 z"
         id="path3022" />
      <path
         style="fill:#cfc3ad"
         d="m 135.8928,9.1089701 c -0.0878,-0.2288231 -0.0368,-0.6455418 0.11329,-0.9260417 0.5479,-1.023769 2.06728,-0.3142342 1.71356,0.8002203 -0.21149,0.6663431 -1.58318,0.7608163 -1.82685,0.1258214 z"
         id="path3021" />
      <path
         style="fill:#cfc3ad"
         d="m 145.43991,16.210561 c -1.05343,-0.109497 -1.42191,-0.546661 -1.11911,-1.327733 0.17019,-0.439021 0.19701,-0.439234 0.51748,-0.0041 0.1859,0.252399 0.41552,0.381384 0.51027,0.286632 0.0948,-0.09475 0.17228,-0.03337 0.17228,0.136404 0,0.169774 0.0893,0.28915 0.19844,0.265279 0.10914,-0.02387 0.53717,0.05141 0.95118,0.167285 0.55171,0.154417 0.6577,0.270921 0.39688,0.436225 -0.19573,0.124046 -0.41541,0.207347 -0.48817,0.185113 -0.0728,-0.02223 -0.58542,-0.08753 -1.13925,-0.145093 z"
         id="path3018" />
      <path
         style="fill:#cfc3ad"
         d="m 148.33313,16.441939 c -0.41772,-0.461573 -0.41319,-0.529849 0.0747,-1.124479 0.42338,-0.515999 0.60812,-0.578897 0.99903,-0.340127 0.66686,0.407326 0.76121,1.192467 0.19321,1.607799 -0.62179,0.454664 -0.73775,0.441557 -1.26694,-0.143193 z"
         id="path3017" />
      <path
         style="fill:#cfc3ad"
         d="m 153.34963,17.236099 c -0.10006,-0.161904 -0.56303,-0.398661 -1.0288,-0.526127 L 151.47396,16.478211 152.4,16.212064 c 1.12059,-0.32206 1.81053,0.105147 1.3883,0.859627 -0.1706,0.304847 -0.31778,0.360007 -0.43867,0.164404 z"
         id="path3016" />
      <path
         style="fill:#cfc3ad"
         d="m 138.77396,17.462516 c -0.0899,-0.145521 -0.4409,-0.264583 -0.77992,-0.264583 -0.48775,0 -0.64823,-0.179468 -0.76891,-0.859896 -0.38204,-2.154079 -0.48507,-3.687602 -0.31009,-4.615718 l 0.18978,-1.006678 0.46841,0.926042 c 0.25762,0.509323 0.61721,1.759479 0.79908,2.778125 0.18186,1.018645 0.42974,2.179505 0.55083,2.579687 0.22214,0.734142 0.15232,0.950859 -0.14918,0.463021 z"
         id="path3015" />
      <path
         style="fill:#cfc3ad"
         d="m 129.80936,19.175745 c -0.53945,-0.539444 -0.13285,-1.448646 0.64784,-1.448646 0.63178,0 0.96275,0.703338 0.6009,1.276986 -0.37933,0.601364 -0.7659,0.654504 -1.24874,0.17166 z"
         id="path3014" />
      <path
         style="fill:#cfc3ad"
         d="m 126.31923,19.187985 c -0.28042,-0.212149 -0.39079,-0.38769 -0.24527,-0.390089 0.39315,-0.0065 1.06514,0.465795 0.89906,0.631872 -0.0792,0.07917 -0.37338,-0.02963 -0.65379,-0.241783 z"
         id="path3013" />
      <path
         style="fill:#cfc3ad"
         d="m 134.00881,19.841003 c -0.4168,-0.435045 -0.63723,-0.79099 -0.48985,-0.79099 0.34047,0 1.55288,1.276771 1.37824,1.451405 -0.0718,0.07182 -0.47159,-0.22537 -0.88839,-0.660415 z"
         id="path3012" />
      <path
         style="fill:#cfc3ad"
         d="m 148.56354,20.902096 c 0.0899,-0.145521 0.21603,-0.264583 0.2802,-0.264583 0.0642,0 0.11667,0.119062 0.11667,0.264583 0,0.145521 -0.12608,0.264584 -0.28019,0.264584 -0.15411,0 -0.20662,-0.119063 -0.11668,-0.264584 z"
         id="path3011" />
      <path
         style="fill:#cfc3ad"
         d="m 137.43546,21.030753 c 0.28248,-0.216282 0.66943,-0.39324 0.8599,-0.39324 0.59001,0 0.38427,0.200154 -0.51359,0.499649 -0.7867,0.262416 -0.81618,0.253359 -0.34631,-0.106409 z"
         id="path3010" />
      <path
         style="fill:#cfc3ad"
         d="m 143.33802,21.520618 c 0.1819,-0.0734 0.47956,-0.0734 0.66146,0 0.1819,0.0734 0.0331,0.133452 -0.33073,0.133452 -0.3638,0 -0.51263,-0.06005 -0.33073,-0.133452 z"
         id="path3008" />
      <path
         style="fill:#cfc3ad"
         d="m 139.68159,21.276793 c -0.47086,-0.567352 0.003,-1.300738 0.84099,-1.300738 0.46548,0 0.65622,0.16686 0.72192,0.631536 0.14133,0.999534 -0.91381,1.451319 -1.56291,0.669202 z"
         id="path3007" />
      <path
         style="fill:#cfc3ad"
         d="m 112.27078,52.387511 c -2.20748,-0.07276 -4.08474,-0.20377 -4.17169,-0.291132 -0.26695,-0.268217 4.04064,-1.798358 7.39153,-2.625622 1.74625,-0.431112 4.51558,-0.985316 6.15406,-1.231566 l 2.97906,-0.447727 -0.7301,-0.780873 c -2.10964,-2.256351 -7.72642,-5.648166 -10.85041,-6.552249 -0.77815,-0.225195 -1.12448,-0.470015 -1.12448,-0.794881 0,-0.831153 2.5607,-1.179523 5.60986,-0.763192 4.10956,0.561119 7.65266,2.580533 11.14419,6.351707 1.07545,1.161579 1.91398,1.843869 2.26613,1.843869 0.30744,0 0.55899,-0.04366 0.55899,-0.09703 0,-0.05336 -0.59532,-1.307738 -1.32292,-2.787495 -0.72761,-1.479757 -1.32292,-2.740229 -1.32292,-2.801049 0,-0.06082 -1.30969,-2.898371 -2.91041,-6.305667 -1.60073,-3.407297 -2.91042,-6.382385 -2.91042,-6.611307 0,-1.395586 2.36649,-0.178434 5.30313,2.727547 3.85331,3.813072 6.08554,7.773252 7.8035,13.844098 0.23984,0.847536 0.47479,1.502254 0.52212,1.454931 0.10722,-0.107222 -1.0215,-7.766993 -1.59162,-10.801112 -0.61299,-3.262233 -2.38274,-9.977854 -3.02139,-11.465165 -0.30199,-0.703288 -0.54907,-1.313329 -0.54907,-1.355645 0,-0.04232 0.38695,0.002 0.85989,0.09839 0.77234,0.157474 0.92258,0.349398 1.47545,1.884813 1.30717,3.630247 2.58545,9.320937 4.24708,18.907401 l 0.50447,2.910417 0.0284,-4.807035 c 0.0156,-2.643869 -0.099,-7.518575 -0.25485,-10.832679 -0.27505,-5.850634 -0.26818,-6.037615 0.2365,-6.437757 0.28588,-0.226662 0.74462,-0.861061 1.01944,-1.409777 l 0.49966,-0.997664 0.0169,1.791414 c 0.009,0.985278 0.11582,6.434852 0.23669,12.110165 l 0.21976,10.31875 0.57694,-3.704167 c 1.02011,-6.549345 2.16848,-11.499756 4.14292,-17.859375 0.97868,-3.152276 1.52722,-4.512697 1.97366,-4.894791 0.34006,-0.291042 0.85233,-1.005417 1.13837,-1.5875 0.78963,-1.606864 0.6413,-0.416325 -0.27202,2.183309 -2.30423,6.558605 -3.47012,11.23148 -4.86566,19.501486 -1.12155,6.646352 -1.12063,6.627195 -0.32282,6.693224 0.53505,0.04428 0.7215,-0.225428 1.46748,-2.122771 1.7395,-4.424326 4.75238,-8.568613 8.18099,-11.253159 2.02855,-1.588316 5.79789,-3.414265 6.2059,-3.006262 0.22463,0.224631 0.10401,0.56236 -0.47649,1.334188 -3.62323,4.817368 -5.34759,7.323178 -7.45799,10.837784 -1.34606,2.241709 -2.44739,4.180158 -2.44739,4.307663 0,0.127506 0.27553,0.231829 0.61228,0.231829 0.42107,0 0.89618,-0.38281 1.52136,-1.225795 2.12839,-2.869942 6.50885,-5.771434 10.56267,-6.996416 2.54721,-0.769715 6.42217,-0.888247 6.56008,-0.200669 0.0632,0.315039 -0.4622,0.729887 -1.84293,1.455208 -3.79452,1.993323 -10.70113,7.012843 -10.37512,7.540337 0.0751,0.121597 0.46574,0.221085 0.86798,0.221085 2.28235,0 12.69521,2.522167 15.15917,3.6718 l 1.67305,0.780608 -10.98021,0.05021 c -26.22862,0.119929 -46.19475,0.11805 -49.9188,-0.0047 z"
         id="path3003" />
      <path
         style="fill:#cabca5"
         d="m 136.00987,9.1450499 c -0.37075,-0.446726 0.0515,-1.4721211 0.60616,-1.4721211 0.70482,0 1.30218,0.6846163 1.11419,1.2769309 -0.21228,0.6688336 -1.23131,0.784452 -1.72035,0.1951902 z"
         id="path2903" />
      <path
         style="fill:#cabca5"
         d="m 146.77319,16.106764 c 0.17948,-0.180821 0.39297,-0.262115 0.47443,-0.180654 0.0815,0.08146 -0.0654,0.229407 -0.32632,0.328766 -0.37708,0.143585 -0.40747,0.113194 -0.14811,-0.148112 z"
         id="path2900" />
      <path
         style="fill:#cabca5"
         d="m 148.33313,16.441935 c -0.41772,-0.461573 -0.41319,-0.529849 0.0747,-1.124479 0.42338,-0.515999 0.60812,-0.578897 0.99903,-0.340127 0.66686,0.407326 0.76121,1.192467 0.19321,1.607799 -0.62179,0.454664 -0.73775,0.441557 -1.26694,-0.143193 z"
         id="path2899" />
      <path
         style="fill:#cabca5"
         d="m 138.77396,17.462512 c -0.0899,-0.145521 -0.42858,-0.264583 -0.75253,-0.264583 -0.54348,0 -0.61479,-0.192109 -0.92255,-2.485314 -0.18345,-1.366923 -0.25344,-2.804508 -0.15552,-3.194633 0.17633,-0.702552 0.18271,-0.698854 0.66914,0.387623 0.27012,0.603319 0.61902,1.892075 0.77534,2.863904 0.15632,0.971829 0.39389,2.034852 0.52793,2.362274 0.24729,0.604043 0.1571,0.814381 -0.14181,0.330729 z"
         id="path2898" />
      <path
         style="fill:#cabca5"
         d="m 126.07396,19.050012 c -0.20696,-0.334856 0.1433,-0.334856 0.66146,0 0.34202,0.221033 0.33504,0.25704 -0.0505,0.260532 -0.24607,0.0022 -0.52099,-0.115011 -0.61092,-0.260532 z"
         id="path2897" />
      <path
         style="fill:#cabca5"
         d="m 129.95341,19.346768 c -0.19463,-0.123369 -0.31369,-0.508499 -0.26458,-0.855844 0.0668,-0.47238 0.25508,-0.631537 0.74713,-0.631537 0.74811,0 1.03077,0.722888 0.52224,1.335627 -0.36589,0.440867 -0.5135,0.463161 -1.00479,0.151754 z"
         id="path2896" />
      <path
         style="fill:#cabca5"
         d="m 137.43546,21.030752 c 0.28248,-0.216282 0.66943,-0.39324 0.8599,-0.39324 0.59001,0 0.38427,0.200154 -0.51359,0.499649 -0.7867,0.262416 -0.81618,0.253359 -0.34631,-0.106409 z"
         id="path2895" />
      <path
         style="fill:#cabca5"
         d="m 139.7587,21.384128 c -0.69846,-0.69846 0.0157,-1.720347 0.98693,-1.412104 0.54304,0.172354 0.80666,1.459238 0.29892,1.459238 -0.13361,0 -0.40486,0.06213 -0.60275,0.138074 -0.1979,0.07594 -0.5053,-0.0074 -0.6831,-0.185208 z"
         id="path2893" />
      <path
         style="fill:#cabca5"
         d="m 125.42016,49.487429 c -0.21407,-0.13538 -0.32033,-0.315027 -0.23614,-0.399217 0.0842,-0.08419 0.30368,0.0284 0.48776,0.250197 0.38168,0.459904 0.3085,0.503248 -0.25162,0.14902 z"
         id="path2884" />
      <path
         style="fill:#cabca5"
         d="m 123.46081,49.334575 c -0.25532,-0.665347 -0.18,-0.837024 0.1319,-0.300657 0.15444,0.265576 0.22506,0.538602 0.15694,0.606724 -0.0681,0.06812 -0.1981,-0.06961 -0.28884,-0.306067 z"
         id="path2883" />
      <path
         style="fill:#cabca5"
         d="m 157.95625,49.726072 c 0,-0.154109 -0.11907,-0.206613 -0.26459,-0.116677 -0.14552,0.08994 -0.26458,-0.01507 -0.26458,-0.233353 0,-0.218281 0.0906,-0.452875 0.20136,-0.52132 0.32155,-0.198732 1.19242,0.558254 1.00015,0.869361 -0.22494,0.363953 -0.67234,0.365276 -0.67234,0.002 z"
         id="path2881" />
      <path
         style="fill:#cabca5"
         d="m 156.5275,49.582937 c -0.0942,-0.245385 -0.11168,-0.505686 -0.0389,-0.578447 0.0728,-0.07276 0.20934,0.06848 0.3035,0.313864 0.0942,0.245385 0.11168,0.505686 0.0389,0.578447 -0.0728,0.07276 -0.20933,-0.06848 -0.30349,-0.313864 z"
         id="path2880" />
      <path
         style="fill:#cabca5"
         d="m 120.4063,49.587337 c 0.0127,-0.308225 0.0754,-0.370919 0.15986,-0.159853 0.0764,0.190997 0.067,0.4192 -0.0209,0.507118 -0.0879,0.08792 -0.15045,-0.06835 -0.13897,-0.347265 z"
         id="path2879" />
      <path
         style="fill:#cabca5"
         d="m 167.16705,50.354688 c 0.191,-0.07643 0.4192,-0.06703 0.50712,0.02089 0.0879,0.08792 -0.0684,0.150452 -0.34726,0.138964 -0.30823,-0.0127 -0.37092,-0.07539 -0.15986,-0.159852 z"
         id="path2877" />
      <path
         style="fill:#cabca5"
         d="m 155.38231,50.017614 c 0.0428,-0.568137 0.26282,-0.488056 0.35332,0.128597 0.0314,0.21407 -0.044,0.389217 -0.1676,0.389217 -0.1236,0 -0.20718,-0.233016 -0.18572,-0.517814 z"
         id="path2876" />
      <path
         style="fill:#cabca5"
         d="m 117.21042,50.25523 c 0,-0.154109 0.11906,-0.206614 0.26458,-0.116677 0.14552,0.08994 0.26458,0.216026 0.26458,0.280198 0,0.06417 -0.11906,0.116677 -0.26458,0.116677 -0.14552,0 -0.26458,-0.126089 -0.26458,-0.280198 z"
         id="path2875" />
      <path
         style="fill:#cabca5"
         d="m 116.01979,50.535424 c 0.0899,-0.145521 0.28259,-0.264583 0.42811,-0.264583 0.14552,0 0.19099,0.119062 0.10106,0.264583 -0.0899,0.145521 -0.28259,0.264583 -0.42811,0.264583 -0.14552,0 -0.191,-0.119062 -0.10106,-0.264583 z"
         id="path2868" />
      <path
         style="fill:#cabca5"
         d="m 164.29753,50.678254 c 0.26361,-0.317638 0.16348,-0.487374 -0.56292,-0.954193 -0.48596,-0.312304 -0.66547,-0.495627 -0.39891,-0.407383 0.26656,0.08824 0.63963,0.160442 0.82904,0.160442 0.37576,0 0.65058,0.729777 0.47327,1.256771 -0.0612,0.181901 -0.235,0.330729 -0.38621,0.330729 -0.16931,0 -0.15174,-0.148429 0.0457,-0.386366 z"
         id="path2865" />
      <path
         style="fill:#cabca5"
         d="m 156.63436,50.668954 c -0.16713,-0.201377 0.0408,-0.310598 0.67225,-0.353124 0.56341,-0.03794 0.91422,0.05887 0.91422,0.252309 0,0.195193 0.18575,0.145779 0.49123,-0.130678 0.40986,-0.370922 0.54064,-0.385018 0.78955,-0.0851 0.33507,0.403738 0.32269,0.408151 -1.49001,0.531132 -0.6244,0.04236 -1.24416,-0.05418 -1.37724,-0.214534 z"
         id="path2864" />
      <path
         style="fill:#cabca5"
         d="m 154.24484,50.676454 c 0.32911,-0.39656 0.0862,-0.683865 -0.4155,-0.491358 -0.49884,0.191421 -0.47231,-0.29455 0.0393,-0.71911 0.34719,-0.288145 0.43419,-0.24901 0.56587,0.254553 0.12056,0.46103 0.21255,0.515521 0.40844,0.241948 0.18269,-0.255129 0.20672,-0.212147 0.0866,0.154918 -0.0914,0.279407 -0.0304,0.591946 0.13558,0.694531 0.16598,0.102585 -0.0108,0.186518 -0.39287,0.186518 -0.51568,0 -0.6258,-0.08296 -0.42741,-0.322 z"
         id="path2863" />
      <path
         style="fill:#cabca5"
         d="m 123.33595,50.830406 c -0.19622,-0.124349 -0.31529,-0.409297 -0.26459,-0.633217 0.0715,-0.315769 0.19885,-0.264126 0.56755,0.230142 0.48072,0.644426 0.35074,0.817347 -0.30296,0.403075 z"
         id="path2862" />
      <path
         style="fill:#cabca5"
         d="m 160.07291,51.064588 c 0,-0.145521 0.1786,-0.264584 0.39688,-0.264584 0.21828,0 0.39687,0.119063 0.39687,0.264584 0,0.145521 -0.17859,0.264583 -0.39687,0.264583 -0.21828,0 -0.39688,-0.119062 -0.39688,-0.264583 z"
         id="path2853" />
      <path
         style="fill:#cabca5"
         d="m 169.29647,51.886726 c 0.32836,-0.20804 1.35978,-0.105811 1.35978,0.134772 0,0.05579 -0.38696,0.09961 -0.8599,0.09738 -0.58463,-0.0028 -0.74465,-0.07707 -0.49988,-0.232154 z"
         id="path2843" />
      <path
         style="fill:#cabca5"
         d="m 162.05729,51.858346 c -0.20695,-0.334856 0.1433,-0.334856 0.66146,0 0.34202,0.221032 0.33504,0.25704 -0.0505,0.260532 -0.24608,0.0022 -0.52099,-0.115011 -0.61093,-0.260532 z"
         id="path2842" />
      <path
         style="fill:#cabca5"
         d="m 155.69304,51.835296 c -0.0978,-0.1582 -0.0612,-0.404194 0.0813,-0.546652 0.16896,-0.168964 0.30871,-0.06896 0.40196,0.287637 0.15024,0.574487 -0.17912,0.751033 -0.48321,0.259015 z"
         id="path2841" />
      <path
         style="fill:#cabca5"
         d="m 113.24167,51.858346 c -0.23847,-0.154109 -0.2711,-0.258098 -0.0818,-0.260532 0.17331,-0.0022 0.38869,0.115011 0.47863,0.260532 0.20302,0.328487 0.11142,0.328487 -0.39687,0 z"
         id="path2840" />
      <path
         style="fill:#cabca5"
         d="m 156.89791,52.167025 c 0,-0.121267 0.1786,-0.220486 0.39688,-0.220486 0.21828,0 0.39687,0.09922 0.39687,0.220486 0,0.121268 -0.17859,0.220486 -0.39687,0.220486 -0.21828,0 -0.39688,-0.09922 -0.39688,-0.220486 z"
         id="path2835" />
      <path
         style="fill:#cabca5"
         d="m 122.05369,52.194774 c -0.35605,-0.06427 -0.52765,-0.243016 -0.44359,-0.462064 0.0754,-0.196487 -0.0205,-0.410105 -0.21307,-0.474708 -0.19259,-0.0646 -0.14191,-0.08619 0.1126,-0.04798 0.25452,0.03821 0.53301,-0.04419 0.61887,-0.183113 0.0937,-0.151562 0.3161,-0.119809 0.55612,0.07939 0.22001,0.182589 0.53683,0.35546 0.70405,0.384159 0.16722,0.0287 0.53193,0.143447 0.81046,0.254997 0.38261,0.153231 0.45347,0.117141 0.28985,-0.147608 -0.13975,-0.226128 -0.11399,-0.287028 0.0726,-0.17169 0.15906,0.09831 0.41196,-0.03213 0.562,-0.289849 0.24724,-0.424692 0.27355,-0.414284 0.28084,0.111112 0.004,0.318834 0.12575,0.65244 0.2696,0.741346 0.15039,0.09295 0.1941,-0.01414 0.10283,-0.251969 -0.11525,-0.300346 -0.042,-0.368814 0.26762,-0.250017 0.58097,0.222941 0.5355,-0.03528 -0.11253,-0.639011 -0.30322,-0.282492 -0.83036,-0.470027 -1.20545,-0.428852 -0.68449,0.07514 -0.77747,-0.409907 -0.12055,-0.628878 0.20925,-0.06975 0.27641,0.0037 0.16628,0.181901 -0.1016,0.164399 -0.0586,0.298908 0.0955,0.298908 0.15411,0 0.2802,-0.126089 0.2802,-0.280198 0,-0.154109 0.11906,-0.206614 0.26458,-0.116677 0.62123,0.383942 0.77658,-0.207007 0.24914,-0.947728 -0.3048,-0.428057 -0.68254,-0.698958 -0.83942,-0.602003 -0.15688,0.09696 -0.21227,0.05823 -0.12309,-0.08606 0.66858,-1.081798 -6.82081,-6.223533 -11.26598,-7.734493 -2.58228,-0.877746 -1.60385,-1.609922 2.1514,-1.609922 2.68942,0 4.6812,0.460824 6.98551,1.61619 2.01057,1.00809 4.83747,3.271294 6.46369,5.174803 0.83011,0.971663 1.4015,1.41109 1.83485,1.41109 0.34612,0 0.62932,-0.05444 0.62932,-0.12097 0,-0.111524 -1.34861,-3.006355 -6.29155,-13.505072 -2.72149,-5.780393 -2.75051,-6.318534 -0.26838,-4.97703 1.67329,0.904354 4.68931,3.834836 6.34769,6.167655 2.04251,2.873186 4.02215,7.272234 4.98306,11.073062 0.49319,1.950791 0.53724,1.071005 0.11166,-2.230287 -0.9342,-7.246747 -2.93863,-16.161338 -4.44387,-19.763888 l -0.37856,-0.90602 0.80747,0.165144 c 0.72196,0.147657 0.87445,0.360594 1.44014,2.010963 1.39478,4.069174 2.91267,10.809675 4.04724,17.972615 0.29853,1.884738 0.59815,3.48216 0.66582,3.549826 0.21752,0.217521 0.11622,-11.578019 -0.14285,-16.633915 -0.2373,-4.631067 -0.22415,-4.916174 0.24403,-5.291666 0.27217,-0.218281 0.71653,-0.839656 0.98747,-1.380833 l 0.49263,-0.983958 0.0173,2.042291 c 0.01,1.12326 0.12269,6.626198 0.25148,12.22875 0.22892,9.958636 0.24207,10.133201 0.58802,7.805208 1.39188,-9.3665 4.85701,-22.672466 6.30718,-24.21929 0.34618,-0.369256 0.86477,-1.143162 1.15241,-1.719792 0.91079,-1.825806 0.58901,-0.383309 -0.799,3.581791 -1.56218,4.462631 -2.83979,9.412985 -3.82395,14.816666 -0.67469,3.704501 -1.67672,9.8915 -1.6116,9.9508 0.0175,0.01591 0.32998,0.100145 0.69447,0.187191 0.62135,0.148389 0.71621,0.02274 1.51985,-2.0133 1.59348,-4.037072 3.14407,-6.437693 6.01952,-9.319357 2.82443,-2.830533 6.38673,-5.155291 7.89966,-5.15532 0.9867,-1.8e-5 0.89622,0.205086 -1.36246,3.088565 -2.35999,3.012826 -4.56618,6.305311 -6.88352,10.272879 -1.78155,3.050227 -1.83198,3.183444 -1.28322,3.389871 0.47803,0.179819 0.74348,0.0072 1.6273,-1.058334 2.04547,-2.466004 4.58189,-4.537323 7.14599,-5.835646 2.655,-1.34435 8.17258,-2.52337 9.6357,-2.058995 0.84116,0.266973 0.65902,0.821238 -0.44143,1.343335 -3.06699,1.455105 -8.02922,4.830305 -10.78177,7.333531 -2.06339,1.876491 -4.12064,4.496207 -3.8609,4.916486 0.37416,0.60539 1.04593,0.05288 0.94126,-0.774152 -0.11066,-0.874434 0.28189,-1.052805 0.53839,-0.244638 0.15462,0.487165 0.45371,0.650902 1.01186,0.553944 0.11995,-0.02084 0.14149,0.08607 0.0479,0.237567 -0.0936,0.1515 -0.31084,0.191126 -0.48269,0.08806 -0.17184,-0.103068 -0.14346,0.02077 0.0631,0.275196 0.3243,0.3995 0.3243,0.451535 0,0.381519 -0.20653,-0.04459 -0.46299,-0.200138 -0.5699,-0.345659 -0.11991,-0.163207 -0.19594,-0.136202 -0.19844,0.07048 -0.003,0.266209 -2.84488,0.332275 -13.82853,0.321496 -7.65039,-0.0075 -13.99536,-0.119362 -14.20709,-0.250455 -0.22892,-0.141725 -0.57436,-0.134276 -0.8599,0.01854 -0.34466,0.184456 -0.4784,0.160947 -0.48133,-0.08461 -0.002,-0.208816 -0.0791,-0.237934 -0.19844,-0.07545 -0.21215,0.288774 -0.92487,0.36813 -1.8334,0.204138 z m 6.00464,-0.683803 c 0,-0.04554 -0.38695,-0.432488 -0.85989,-0.859896 l -0.8599,-0.777105 0.77711,0.859896 c 0.72437,0.801543 0.94268,0.981512 0.94268,0.777105 z"
         id="path2834" />
      <path
         style="fill:#a8aa96"
         d="m 136.17222,9.3486232 c -0.38346,-0.3834601 -0.16279,-1.35295 0.33775,-1.4838427 0.74505,-0.1948364 1.52631,0.7175914 1.07748,1.2583936 -0.34414,0.4146642 -1.10483,0.5358443 -1.41523,0.2254491 z"
         id="path2676" />
      <path
         style="fill:#a8aa96"
         d="m 148.33313,16.441939 c -0.41772,-0.461573 -0.41319,-0.529849 0.0747,-1.124479 0.42338,-0.515999 0.60812,-0.578897 0.99903,-0.340127 0.66686,0.407326 0.76121,1.192467 0.19321,1.607799 -0.62179,0.454664 -0.73775,0.441557 -1.26694,-0.143193 z"
         id="path2673" />
      <path
         style="fill:#a8aa96"
         d="m 138.77396,17.462516 c -0.0899,-0.145521 -0.43464,-0.264583 -0.76599,-0.264583 -0.56795,0 -0.61911,-0.153057 -0.89273,-2.670634 -0.38106,-3.506067 -0.10073,-4.380893 0.65971,-2.058778 0.3038,0.927687 0.63831,2.282016 0.74336,3.00962 0.10504,0.727604 0.29903,1.531276 0.43107,1.785937 0.25253,0.487045 0.10564,0.653206 -0.17542,0.198438 z"
         id="path2672" />
      <path
         style="fill:#a8aa96"
         d="m 126.07396,19.050016 c -0.20696,-0.334856 0.1433,-0.334856 0.66146,0 0.34202,0.221033 0.33504,0.25704 -0.0505,0.260532 -0.24607,0.0022 -0.52099,-0.115011 -0.61092,-0.260532 z"
         id="path2671" />
      <path
         style="fill:#a8aa96"
         d="m 129.91635,19.189458 c -0.5045,-0.60788 -0.21843,-1.330067 0.52686,-1.330067 0.47465,0 0.68072,0.160784 0.74003,0.57741 0.10811,0.759359 -0.8091,1.304266 -1.26689,0.752657 z"
         id="path2670" />
      <path
         style="fill:#a8aa96"
         d="m 137.43546,21.030756 c 0.28248,-0.216282 0.66943,-0.39324 0.8599,-0.39324 0.59001,0 0.38427,0.200154 -0.51359,0.499649 -0.7867,0.262416 -0.81618,0.253359 -0.34631,-0.106409 z"
         id="path2669" />
      <path
         style="fill:#a8aa96"
         d="m 139.71279,21.314385 c -0.66167,-0.797258 0.38531,-1.863769 1.1812,-1.203239 0.43038,0.357177 0.5402,1.32012 0.15056,1.32012 -0.13361,0 -0.4122,0.06495 -0.61906,0.144332 -0.20687,0.07938 -0.52759,-0.03816 -0.7127,-0.261213 z"
         id="path2667" />
      <path
         style="fill:#a8aa96"
         d="m 142.67048,50.204699 c 0.68168,-2.891408 2.47389,-7.314064 4.06718,-10.036623 1.72747,-2.951853 5.57161,-6.806185 8.34207,-8.364195 1.93077,-1.085797 3.94125,-1.706458 3.92912,-1.212967 -0.003,0.128181 -0.66371,1.066494 -1.46792,2.085139 -3.04729,3.859829 -5.37791,7.394963 -8.67355,13.156186 l -0.71501,1.249936 0.68659,0.172323 c 0.53857,0.135173 0.77963,0.03683 1.11816,-0.456186 0.23737,-0.34568 1.15015,-1.382059 2.02841,-2.303065 3.2926,-3.452852 7.53194,-5.562524 12.35657,-6.149142 3.49248,-0.424645 4.51874,0.165083 2.22584,1.27906 -3.35275,1.628892 -9.42478,5.915362 -11.67823,8.244104 -0.59519,0.615075 -1.66676,1.876455 -2.38125,2.803066 l -1.29909,1.684748 -4.52675,0.01521 -4.52676,0.01521 z m 4.61859,-0.51263 c -0.0845,-0.211067 -0.14715,-0.148372 -0.15985,0.159852 -0.0115,0.278915 0.051,0.435185 0.13896,0.347266 0.0879,-0.08792 0.0973,-0.316122 0.0209,-0.507118 z m 1.66729,-1.86862 c 0.006,-0.292211 -0.73179,-0.241605 -0.92011,0.06312 -0.093,0.15039 0.0141,0.194095 0.25196,0.102833 0.3112,-0.119418 0.37394,-0.03677 0.25337,0.33376 -0.13259,0.407489 -0.11098,0.423988 0.12524,0.0956 0.15702,-0.218281 0.28731,-0.486171 0.28954,-0.595313 z"
         id="path2664" />
      <path
         style="fill:#a8aa96"
         d="m 128.40221,52.018276 c -0.11637,-0.203079 -1.16314,-1.459267 -2.32615,-2.79153 -3.4546,-3.957335 -7.28963,-6.688362 -11.77606,-8.386043 -3.28446,-1.242851 -2.92247,-1.868352 1.11146,-1.920568 2.71612,-0.03516 4.41676,0.347043 6.95833,1.563813 2.20029,1.053382 4.72471,3.066415 6.88141,5.487418 1.30684,1.466994 1.38034,1.510849 1.93881,1.15685 0.27379,-0.173548 -0.52389,-2.094445 -3.53565,-8.514163 -4.55546,-9.710213 -4.77641,-10.261408 -4.20161,-10.481979 0.99086,-0.380226 4.23321,2.107183 6.70739,5.14565 2.59469,3.186456 4.69392,7.417244 6.00295,12.098329 0.68074,2.434312 0.71834,1.355916 0.1033,-2.962403 -0.99267,-6.969647 -2.92455,-15.401643 -4.22245,-18.42951 l -0.48403,-1.129215 0.75452,0.110741 c 0.6406,0.09402 0.83956,0.336102 1.31768,1.603273 1.2627,3.346586 3.1503,11.693735 4.22184,18.669396 0.28882,1.880193 0.58421,3.477615 0.65642,3.549827 0.23152,0.231515 0.12649,-13.43721 -0.13588,-17.683984 -0.2387,-3.863728 -0.22462,-4.124007 0.24341,-4.497916 0.27322,-0.218281 0.71776,-0.838387 0.98787,-1.378013 l 0.4911,-0.981138 0.0135,2.171763 c 0.0241,3.861311 0.46621,22.153198 0.53379,22.083279 0.036,-0.03727 0.26384,-1.436985 0.50626,-3.110475 1.22595,-8.46315 4.77751,-21.877548 6.19042,-23.381524 0.30661,-0.326371 0.79169,-1.062872 1.07796,-1.636668 0.83414,-1.671953 0.62104,-0.342905 -0.37264,2.323961 -1.95895,5.25751 -3.2657,10.25 -4.48574,17.137981 -1.00371,5.666567 -1.23975,7.327009 -1.35407,9.525 -0.0568,1.091406 -0.17936,2.668985 -0.27244,3.505729 l -0.16924,1.521354 h -6.57546 c -5.34862,0 -6.61493,-0.06889 -6.78704,-0.369235 z m 3.92175,-2.984358 c -0.3119,-0.536367 -0.38722,-0.36469 -0.1319,0.300657 0.0907,0.236459 0.22071,0.374189 0.28884,0.306067 0.0681,-0.06812 -0.002,-0.341148 -0.15694,-0.606724 z"
         id="path2663" />
      <path
         style="fill:#889076"
         d="m 149.29114,16.213616 c -0.1819,-0.06496 -0.33073,-0.295294 -0.33073,-0.511843 0,-0.334311 0.0647,-0.329083 0.42838,0.03465 0.46561,0.465609 0.42504,0.663868 -0.0976,0.477195 z"
         id="path2601" />
      <path
         style="fill:#889076"
         d="m 138.08771,17.153442 c -0.64767,-0.223322 -0.6999,-0.37755 -0.92897,-2.743441 -0.30041,-3.102772 -0.096,-3.949572 0.50716,-2.101369 0.38115,1.167826 1.24454,4.973716 1.14597,5.051511 -0.0208,0.01646 -0.34673,-0.07656 -0.72416,-0.206701 z"
         id="path2600" />
      <path
         style="fill:#889076"
         d="m 146.84375,52.258849 c 0,-0.07077 0.52506,-1.077918 1.16681,-2.238113 3.36351,-6.080764 7.72661,-9.593771 13.83325,-11.138011 2.22551,-0.562784 5.76973,-0.638365 5.76973,-0.123041 0,0.144536 -0.91484,0.753382 -2.03298,1.352991 -5.07369,2.720804 -9.96116,6.534163 -12.68058,9.893796 l -1.92731,2.381044 h -2.06446 c -1.13545,0 -2.06446,-0.0579 -2.06446,-0.128666 z"
         id="path2593" />
      <path
         style="fill:#889076"
         d="m 142.49658,51.659911 c 0.87597,-3.963076 1.70615,-6.393429 3.23102,-9.458854 2.41502,-4.854863 5.62189,-8.237366 10.14937,-10.705236 3.27487,-1.785092 3.64646,-1.401437 1.39938,1.44482 -2.34612,2.971697 -5.17989,7.159668 -7.21703,10.66588 -1.04096,1.791651 -1.89266,3.336808 -1.89266,3.433681 0,0.09687 -0.50601,1.335833 -1.12447,2.753243 l -1.12448,2.577109 -1.79098,0.0085 -1.79098,0.0085 z"
         id="path2592" />
      <path
         style="fill:#889076"
         d="m 133.69504,51.924495 c -0.0921,-0.254662 -0.62417,-1.461937 -1.18232,-2.682835 -0.55814,-1.220898 -1.0148,-2.312768 -1.0148,-2.426379 0,-0.11361 -1.84547,-4.131749 -4.10105,-8.929196 -2.25557,-4.797447 -4.10104,-8.974092 -4.10104,-9.281433 0,-0.332979 0.169,-0.558803 0.41818,-0.558803 0.75643,0 3.20366,1.836235 5.0805,3.812056 3.77602,3.975174 5.47911,7.315985 7.83545,15.370236 l 0.38703,1.322916 -0.13236,-1.455208 c -0.65702,-7.223758 -2.50195,-16.489813 -4.36751,-21.935691 -0.6197,-1.808993 -0.61418,-1.931957 0.0821,-1.829065 0.44847,0.06627 0.70781,0.484967 1.19958,1.936631 1.30215,3.843917 2.847,10.805504 3.90447,17.594792 0.61072,3.920992 0.65544,4.092927 0.98005,3.768315 0.28563,-0.285633 -0.13673,-18.719165 -0.47585,-20.767794 -0.13293,-0.803043 -0.0832,-0.992188 0.26093,-0.992188 0.23385,0 0.63957,-0.417891 0.9016,-0.928647 l 0.47643,-0.928647 0.0106,1.127084 c 0.006,0.619897 0.16576,4.401304 0.35536,8.403127 0.1896,4.001823 0.28601,8.853619 0.21424,10.78177 -0.0718,1.928151 -0.0419,3.50573 0.0663,3.50573 0.10822,0 0.45344,-1.63711 0.76716,-3.638021 1.21728,-7.76374 4.59848,-21.118956 5.74403,-22.688021 0.21248,-0.291041 0.68003,-0.933727 1.03901,-1.42819 0.83273,-1.14705 0.8235,-0.803303 -0.0393,1.462835 -1.66371,4.36979 -3.15981,9.883651 -4.08261,15.046472 -0.31211,1.746177 -0.60504,3.235657 -0.65096,3.309955 -0.15501,0.250811 -1.15501,7.785757 -1.31644,9.919344 -0.0881,1.164167 -0.22399,2.444089 -0.302,2.844271 l -0.14183,0.727604 h -3.82374 c -3.40146,0 -3.84224,-0.05114 -3.99126,-0.46302 z"
         id="path2591" />
      <path
         style="fill:#889076"
         d="m 126.22796,49.343571 c -3.94962,-4.398835 -7.37277,-6.847588 -12.06268,-8.629068 -1.24232,-0.4719 -2.21736,-0.985319 -2.16676,-1.140931 0.0506,-0.155612 0.90689,-0.393542 1.90285,-0.528733 2.87254,-0.389915 5.57224,0.113009 8.60071,1.602214 2.21376,1.08858 2.84489,1.571693 5.29167,4.050605 2.13636,2.164416 3.09297,3.377716 4.14104,5.252233 l 1.36292,2.437624 h -2.16832 -2.16833 z"
         id="path2590" />
      <path
         style="fill:#75846a"
         d="m 138.07138,17.002354 c -0.54998,-0.123269 -0.69288,-0.696267 -0.875,-3.508592 -0.13511,-2.086301 -0.11844,-2.190881 0.23049,-1.445958 0.35906,0.766545 1.31608,4.90149 1.15811,5.00377 -0.0416,0.02692 -0.27271,0.0048 -0.5136,-0.04922 z"
         id="path2542" />
      <path
         style="fill:#75846a"
         d="m 134.74334,33.024899 c -0.44394,-2.240455 -1.93088,-7.547359 -2.61208,-9.322544 -0.11408,-0.297274 -0.005,-0.41901 0.37495,-0.41901 0.43411,0 0.66309,0.388999 1.207,2.050521 1.18196,3.610598 2.00524,7.201996 1.85361,8.086036 -0.11054,0.644433 -0.0779,0.749934 0.1381,0.446776 0.37059,-0.520063 0.35682,-0.344473 -0.0688,0.878012 l -0.35178,1.010304 z"
         id="path2536" />
      <path
         style="fill:#75846a"
         d="m 142.64172,36.314074 c 0.0172,-0.254661 0.12559,-0.820208 0.24082,-1.256771 0.17797,-0.674246 0.20314,-0.604568 0.16713,0.462808 -0.0233,0.691107 -0.13168,1.256654 -0.24082,1.256771 -0.10914,1.17e-4 -0.18435,-0.208146 -0.16713,-0.462808 z"
         id="path2535" />
      <path
         style="fill:#75846a"
         d="m 142.36672,37.416505 c 0.0127,-0.308225 0.0754,-0.370919 0.15985,-0.159853 0.0764,0.190996 0.067,0.419199 -0.0209,0.507118 -0.0879,0.08792 -0.15045,-0.06835 -0.13896,-0.347265 z"
         id="path2534" />
      <path
         style="fill:#75846a"
         d="m 143.27722,36.975532 c 0.2419,-2.107746 0.32011,-2.63279 0.53822,-3.613015 0.14572,-0.654881 0.11693,-0.84939 -0.10539,-0.711989 -0.16824,0.103976 -0.30589,0.06296 -0.30589,-0.09115 0,-0.154109 0.11533,-0.280199 0.25628,-0.280199 0.14096,0 0.189,-0.175339 0.10676,-0.389643 -0.14937,-0.389261 0.85612,-4.20455 2.3145,-8.782282 0.5077,-1.593624 1.04291,-2.714442 1.56106,-3.269127 0.43367,-0.464242 0.78849,-0.776361 0.78849,-0.693598 0,0.570379 -1.18144,2.966332 -1.66172,3.369962 -0.45001,0.378195 -0.50768,0.546205 -0.24677,0.718972 0.27011,0.178858 0.20459,0.658419 -0.31706,2.320479 -0.78866,2.512774 -2.12574,8.232838 -2.54613,10.892425 -0.34995,2.213901 -0.61833,2.585333 -0.38235,0.529165 z"
         id="path2533" />
      <path
         style="fill:#75846a"
         d="m 142.10214,38.474838 c 0.0127,-0.308224 0.0754,-0.370919 0.15985,-0.159852 0.0764,0.190996 0.067,0.419199 -0.0209,0.507118 -0.0879,0.08792 -0.15045,-0.06835 -0.13896,-0.347266 z"
         id="path2532" />
      <path
         style="fill:#75846a"
         d="m 140.0233,46.484917 c -0.0323,-0.263249 -0.17778,-0.405051 -0.3233,-0.315114 -0.14552,0.08994 -0.27295,0.0077 -0.28318,-0.182822 -0.0102,-0.19049 -0.12092,-0.108219 -0.24599,0.182822 -0.13835,0.321957 -0.23653,-1.439323 -0.25074,-4.497916 -0.0259,-5.574926 -0.43771,-15.098765 -0.69767,-16.134535 -0.12579,-0.501172 -0.0638,-0.666507 0.24982,-0.666507 0.22941,0 0.58688,-0.324014 0.79437,-0.72003 0.36442,-0.695518 0.38379,-0.650335 0.56911,1.327224 0.10551,1.12599 0.11817,2.789457 0.0281,3.696593 -0.24487,2.467155 -0.20663,2.340086 -0.60482,2.009616 -0.27838,-0.231033 -0.35278,-0.149741 -0.35278,0.38546 0,0.373032 0.1177,0.750982 0.26155,0.839889 0.15043,0.09297 0.20494,-0.04091 0.1283,-0.315114 -0.0733,-0.26222 0.0373,-0.119575 0.24574,0.316987 l 0.379,0.79375 0.10794,-1.190625 c 0.0594,-0.654844 0.12495,0.178594 0.14575,1.852083 0.0277,2.227284 -0.0601,3.171894 -0.32759,3.524756 -0.35349,0.466342 -0.36946,0.466342 -0.49006,0 -0.0686,-0.265126 -0.12466,-0.0058 -0.12466,0.576286 0,0.582083 0.0544,0.850163 0.12091,0.595733 0.10576,-0.404589 0.16914,-0.414382 0.50543,-0.07809 0.31032,0.310311 0.36898,1.165449 0.30399,4.43135 -0.0443,2.225762 -0.10695,3.831453 -0.13925,3.568203 z"
         id="path2530" />
      <path
         style="fill:#75846a"
         d="m 141.1758,47.664836 c -0.38006,-0.734963 -0.37457,-1.056938 0.0647,-3.794901 0.42285,-2.63538 0.50512,-2.881477 0.69061,-2.065757 0.20432,0.8985 0.21677,0.906369 0.41855,0.264584 0.11439,-0.363802 0.21985,-0.518729 0.23435,-0.344281 0.0392,0.471538 -0.77279,6.523302 -0.89114,6.64166 -0.056,0.05599 -0.28868,-0.259599 -0.5171,-0.701305 z"
         id="path2529" />
      <path
         style="fill:#75846a"
         d="m 147.93463,50.336991 c 1.54896,-2.875516 3.67815,-5.612746 5.60248,-7.2024 2.14022,-1.768 6.19841,-3.806401 7.67615,-3.855673 1.98426,-0.06616 2.19991,-0.107774 1.81692,-0.3506 -0.39717,-0.251818 1.42725,-0.563723 3.29737,-0.563723 1.654,0 1.46378,0.500102 -0.59519,1.564805 -4.78641,2.475071 -10.39416,6.89035 -13.10271,10.316449 l -1.68486,2.131221 -2.05736,0.0052 -2.05736,0.0052 z"
         id="path2524" />
      <path
         style="fill:#75846a"
         d="m 142.88554,50.469282 c 0.65888,-2.678689 0.99214,-3.741314 1.88775,-6.01927 0.95809,-2.436873 2.34066,-4.790257 2.68806,-4.575553 0.14336,0.0886 0.17357,0.02293 0.068,-0.147873 -0.35466,-0.573838 3.08314,-4.691826 3.6331,-4.351935 0.14353,0.08871 0.18219,0.03382 0.0859,-0.121972 -0.2724,-0.440751 2.06019,-2.271593 4.60077,-3.611129 3.65905,-1.929261 3.71928,-1.74176 0.69323,2.15812 -3.91197,5.04161 -7.11407,10.314122 -9.56139,15.743571 l -1.28205,2.84427 h -1.64261 -1.6426 z"
         id="path2523" />
      <path
         style="fill:#75846a"
         d="m 132.2983,48.484907 c -0.92325,-2.146432 -2.38745,-5.390885 -3.25377,-7.209895 -0.86632,-1.819011 -1.90325,-4.021667 -2.30428,-4.894792 -0.40103,-0.873125 -1.20421,-2.599531 -1.78485,-3.836458 -1.35125,-2.878578 -1.81024,-4.170856 -1.56758,-4.413518 0.60816,-0.608158 4.56592,2.565093 6.92781,5.554578 2.80768,3.553718 4.71862,7.707386 6.08325,13.222691 0.69007,2.789012 1.08793,3.707399 0.82662,1.908123 -0.53678,-3.696044 -0.98782,-8.15809 -0.85866,-8.494656 0.086,-0.224224 0.0385,-0.326164 -0.10946,-0.23472 -0.42135,0.260413 -0.4635,-1.960631 -0.0678,-3.573748 0.19746,-0.804987 0.32343,-0.355357 0.96364,3.439583 0.96515,5.721062 1.14618,7.060501 1.34988,9.988021 l 0.17029,2.447395 h -2.34821 -2.34821 z"
         id="path2522" />
      <path
         style="fill:#75846a"
         d="m 128.49618,51.836547 c -0.21225,-0.303031 -1.49517,-1.750166 -2.85093,-3.215855 -3.68451,-3.983258 -7.31533,-6.487649 -11.77829,-8.124191 -2.0234,-0.741966 -2.06006,-0.7708 -1.33567,-1.050531 1.05238,-0.406391 1.32954,-0.363365 1.72356,0.267564 0.22525,0.360678 0.52576,0.508369 0.85776,0.42155 0.29768,-0.07785 0.4435,-0.02436 0.34926,0.128123 -0.21884,0.354089 1.56758,-0.573871 1.79984,-0.934931 0.28282,-0.439664 2.93392,0.208926 5.10004,1.247725 1.99945,0.958869 5.42859,3.770338 7.12388,5.8407 0.96376,1.176985 3.3352,5.266927 3.3352,5.752103 0,0.120289 -0.88622,0.218707 -1.96937,0.218707 -1.69541,0 -2.02306,-0.07665 -2.35528,-0.550964 z"
         id="path2521" />
      <path
         style="fill:#6c7b62"
         d="m 137.12089,12.56772 c 0.003,-0.582083 0.0571,-0.789054 0.1204,-0.459936 0.0633,0.329119 0.0609,0.805369 -0.005,1.058334 -0.0662,0.252964 -0.11801,-0.01631 -0.11507,-0.598398 z"
         id="path2448" />
      <path
         style="fill:#6c7b62"
         d="m 146.33616,22.414951 c -0.0493,-0.473097 0.74215,-1.947007 1.30969,-2.438897 0.55948,-0.48491 0.59573,-0.488632 0.43339,-0.04451 -0.0974,0.266564 -0.17716,0.541481 -0.17716,0.610928 0,0.06945 -0.13182,0.0448 -0.29293,-0.05477 -0.19924,-0.12314 -0.23601,0.01995 -0.11496,0.447405 0.12939,0.45689 0.10662,0.524921 -0.0834,0.24921 -0.20736,-0.30087 -0.34316,-0.191522 -0.65721,0.529167 -0.21771,0.499622 -0.40555,0.815282 -0.41743,0.701467 z"
         id="path2446" />
      <path
         style="fill:#6c7b62"
         d="m 139.7,26.124466 c 0,-0.377661 -0.1649,-0.851555 -0.36644,-1.053097 -0.29709,-0.297085 -0.30468,-0.48185 -0.0401,-0.976208 0.3004,-0.561285 0.34058,-0.488606 0.50544,0.9141 0.0985,0.838127 0.11655,1.586416 0.0401,1.662864 -0.0764,0.07645 -0.139,-0.169998 -0.139,-0.547659 z"
         id="path2442" />
      <path
         style="fill:#6c7b62"
         d="m 138.39797,26.304003 c 0.0127,-0.308225 0.0754,-0.370919 0.15985,-0.159853 0.0764,0.190997 0.067,0.4192 -0.0209,0.507118 -0.0879,0.08792 -0.15045,-0.06835 -0.13896,-0.347265 z"
         id="path2441" />
      <path
         style="fill:#6c7b62"
         d="m 132.86452,25.893525 c -0.66545,-2.130092 -0.62648,-2.608447 0.0841,-1.032588 0.26136,0.579602 0.5904,0.982624 0.7312,0.895606 0.15551,-0.09611 0.18181,0.07552 0.067,0.437219 -0.13726,0.432489 -0.10106,0.541097 0.1323,0.396875 0.23335,-0.144222 0.26955,-0.03561 0.13229,0.396875 -0.14058,0.442913 -0.10348,0.542589 0.14482,0.389128 0.21694,-0.134073 0.26771,-0.09935 0.14503,0.09916 -0.42982,0.695458 -0.88014,0.199542 -1.43679,-1.582273 z"
         id="path2438" />
      <path
         style="fill:#6c7b62"
         d="m 157.90477,31.705224 c 0.29124,-0.372407 0.2705,-0.489634 -0.13229,-0.747582 -0.3985,-0.255204 -0.40377,-0.28314 -0.0318,-0.168513 0.24526,0.07557 0.49685,-0.0047 0.55909,-0.17846 0.0658,-0.183725 0.21133,-0.217697 0.34782,-0.08121 0.13649,0.136491 0.0956,0.284304 -0.0977,0.353327 -0.18281,0.06527 -0.27341,0.21407 -0.20135,0.330673 0.0721,0.116603 -0.076,0.374325 -0.32908,0.572714 -0.41151,0.322609 -0.42362,0.314058 -0.11471,-0.08095 z"
         id="path2434" />
      <path
         style="fill:#6c7b62"
         d="m 124.50347,31.562985 c -0.14359,-0.377084 -0.1132,-0.407475 0.14811,-0.148112 0.18082,0.179476 0.26212,0.39297 0.18065,0.474432 -0.0815,0.08146 -0.2294,-0.06538 -0.32876,-0.32632 z"
         id="path2433" />
      <path
         style="fill:#6c7b62"
         d="m 128.17398,31.419283 -0.77711,-0.859896 0.8599,0.777105 c 0.80154,0.724371 0.98151,0.942686 0.77711,0.942686 -0.0455,0 -0.43249,-0.386953 -0.8599,-0.859895 z"
         id="path2432" />
      <path
         style="fill:#6c7b62"
         d="m 125.45067,33.403658 c -0.28871,-0.6747 -0.28218,-0.690261 0.0898,-0.214014 0.22065,0.282475 0.40118,0.609897 0.40118,0.727604 0,0.402142 -0.17948,0.214408 -0.491,-0.51359 z"
         id="path2431" />
      <path
         style="fill:#6c7b62"
         d="m 155.83958,34.29595 c 0,-0.05494 0.20836,-0.263301 0.46302,-0.463021 0.41965,-0.329107 0.429,-0.319749 0.0999,0.09989 -0.34565,0.440729 -0.56292,0.580887 -0.56292,0.363126 z"
         id="path2429" />
      <path
         style="fill:#6c7b62"
         d="m 133.0978,38.463253 c -0.57407,-1.297765 -0.70665,-1.86501 -0.25438,-1.088352 0.42861,0.736034 1.05538,2.312611 0.91939,2.312611 -0.0679,0 -0.36716,-0.550917 -0.66501,-1.224259 z"
         id="path2422" />
      <path
         style="fill:#6c7b62"
         d="m 120.25312,39.952095 c -0.34891,-0.149935 -0.39397,-0.232345 -0.13229,-0.241936 0.21828,-0.008 0.57547,0.100872 0.79375,0.241936 0.48365,0.312558 0.0659,0.312558 -0.66146,0 z"
         id="path2421" />
      <path
         style="fill:#6c7b62"
         d="m 132.7284,40.357443 c -0.082,-0.213621 -0.0599,-0.443497 0.0491,-0.510837 0.10896,-0.06734 0.21542,0.107442 0.23659,0.388402 0.0458,0.607633 -0.0789,0.661089 -0.28565,0.122435 z"
         id="path2419" />
      <path
         style="fill:#6c7b62"
         d="m 160.07291,43.274131 c 0,-0.180405 2.40302,-1.800967 2.51076,-1.693223 0.0508,0.05078 -0.49337,0.479886 -1.20922,0.953579 -0.71584,0.473692 -1.30154,0.806532 -1.30154,0.739644 z"
         id="path2414" />
      <path
         style="fill:#6c7b62"
         d="m 121.77448,43.481033 c -0.37848,-0.152718 -0.44961,-0.618521 -0.0944,-0.618521 0.12995,0 0.3048,0.178593 0.38857,0.396875 0.0838,0.218281 0.12626,0.387475 0.0944,0.375986 -0.0318,-0.01149 -0.20667,-0.08094 -0.38857,-0.15434 z"
         id="path2413" />
      <path
         style="fill:#6c7b62"
         d="m 138.98553,44.185428 c 0,-0.800364 0.0496,-1.127786 0.11023,-0.727604 0.0606,0.400182 0.0606,1.055026 0,1.455208 -0.0606,0.400183 -0.11023,0.07276 -0.11023,-0.727604 z"
         id="path2411" />
      <path
         style="fill:#6c7b62"
         d="m 136.81047,45.354005 c 0.0127,-0.308225 0.0754,-0.37092 0.15985,-0.159853 0.0764,0.190996 0.067,0.419199 -0.0209,0.507118 -0.0879,0.08792 -0.15045,-0.06835 -0.13896,-0.347265 z"
         id="path2410" />
      <path
         style="fill:#6c7b62"
         d="m 141.86824,46.169803 c 0.005,-0.436562 0.0647,-0.583124 0.13178,-0.325693 0.0671,0.257431 0.0627,0.614618 -0.01,0.79375 -0.0725,0.179131 -0.12736,-0.03149 -0.12197,-0.468057 z"
         id="path2404" />
      <path
         style="fill:#6c7b62"
         d="m 137.74967,45.951687 c -0.11835,-1.13861 -0.15448,-2.1309 -0.0803,-2.205088 0.19606,-0.196058 0.50662,2.564943 0.39249,3.489374 -0.0555,0.449697 -0.18908,-0.09972 -0.3122,-1.284286 z"
         id="path2402" />
      <path
         style="fill:#6c7b62"
         d="m 137.07505,47.470671 c 0.0127,-0.308224 0.0754,-0.370919 0.15986,-0.159852 0.0764,0.190996 0.067,0.419199 -0.0209,0.507118 -0.0879,0.08792 -0.15046,-0.06835 -0.13897,-0.347266 z"
         id="path2401" />
      <path
         style="fill:#6c7b62"
         d="m 143.16047,49.587338 c 0.0127,-0.308225 0.0754,-0.370919 0.15985,-0.159853 0.0764,0.190997 0.067,0.4192 -0.0209,0.507118 -0.0879,0.08792 -0.15045,-0.06835 -0.13896,-0.347265 z"
         id="path2399" />
      <path
         style="fill:#6c7b62"
         d="m 148.49242,49.424814 c 0.30916,-0.550073 0.61743,-0.944811 0.68505,-0.877195 0.0676,0.06762 -0.0352,0.313483 -0.22848,0.546372 -0.28984,0.349229 -0.29051,0.461084 -0.004,0.638271 0.46796,0.289215 0.12969,0.778901 -0.50502,0.731089 -0.49522,-0.0373 -0.49372,-0.06708 0.0523,-1.038537 z m 0.46799,0.729354 c 0,-0.06417 -0.11906,-0.190261 -0.26458,-0.280198 -0.14552,-0.08994 -0.26458,-0.03743 -0.26458,0.116677 0,0.154109 0.11906,0.280198 0.26458,0.280198 0.14552,0 0.26458,-0.05251 0.26458,-0.116677 z"
         id="path2398" />
      <path
         style="fill:#6c7b62"
         d="m 142.89589,50.645671 c 0.0127,-0.308224 0.0754,-0.370919 0.15985,-0.159852 0.0764,0.190996 0.067,0.419199 -0.0209,0.507118 -0.0879,0.08792 -0.15045,-0.06835 -0.13896,-0.347266 z"
         id="path2397" />
      <path
         style="fill:#6c7b62"
         d="m 146.97604,52.12293 c 0.0899,-0.145521 0.44394,-0.264583 0.78667,-0.264583 0.45973,0 0.82887,-0.334341 1.40759,-1.274876 0.81006,-1.316526 4.45432,-5.121465 5.87209,-6.131005 l 0.80406,-0.572546 -0.66477,1.250269 c -0.50589,0.951443 -0.59382,1.335762 -0.36792,1.607964 0.23096,0.278283 0.18981,0.357694 -0.18532,0.357694 -0.35911,0 -0.4057,0.0765 -0.18251,0.29968 0.22318,0.223184 -0.10286,0.767376 -1.27729,2.131931 -0.86734,1.007739 -1.7214,2.063508 -1.89791,2.346154 -0.2733,0.437628 -0.62797,0.513901 -2.38958,0.513901 -1.31171,0 -2.0088,-0.09681 -1.90511,-0.264583 z"
         id="path2392" />
      <path
         style="fill:#6c7b62"
         d="m 142.61041,52.13812 c 0,-0.137166 0.22256,-0.206531 0.49457,-0.154146 0.41095,0.07914 0.66819,-0.379503 1.52136,-2.712502 0.56473,-1.544261 1.65329,-3.94262 2.41903,-5.329688 1.48212,-2.684764 2.69332,-4.25937 1.50976,-1.962768 -0.45794,0.888608 -0.64199,1.559846 -0.52703,1.922072 0.0972,0.306134 0.28715,0.488321 0.4222,0.404859 0.13504,-0.08346 0.24553,0.0409 0.24553,0.276356 0,0.235458 -0.1177,0.355363 -0.26155,0.266457 -0.14977,-0.09257 -0.19446,0.01319 -0.10457,0.247448 0.0863,0.225004 0.25052,0.351289 0.36485,0.280633 0.11432,-0.07066 -0.51542,1.477841 -1.39943,3.441103 l -1.60728,3.569567 h -1.53872 c -0.84629,0 -1.53872,-0.112226 -1.53872,-0.249391 z"
         id="path2391" />
      <path
         style="fill:#6c7b62"
         d="m 132.04476,47.823433 c -1.07955,-2.510234 -2.42594,-5.499667 -2.99196,-6.643183 -0.56602,-1.143516 -0.96317,-2.251028 -0.88254,-2.461138 0.0806,-0.210109 0.0515,-0.323278 -0.0646,-0.251485 -0.11616,0.07179 -0.65058,-0.757432 -1.18759,-1.842719 -1.03319,-2.088025 -1.12457,-2.351886 -0.73009,-2.108086 0.13546,0.08372 0.32108,0.03122 0.41249,-0.116677 0.0914,-0.147895 0.0401,-0.268899 -0.11401,-0.268899 -0.15411,0 -0.26236,-0.386953 -0.24056,-0.859896 0.0345,-0.749314 0.0534,-0.770695 0.14659,-0.166257 0.0739,0.479517 0.40882,0.847057 1.08484,1.190625 0.53784,0.273343 1.16857,0.70318 1.40162,0.955195 0.23306,0.252014 0.51524,0.371077 0.62707,0.264583 0.11183,-0.106494 0.15439,0.244507 0.0946,0.780003 -0.0598,0.535495 -0.0219,0.919955 0.0842,0.854356 0.10614,-0.0656 0.23008,0.319021 0.27543,0.854712 0.0622,0.734624 0.21131,0.992534 0.60681,1.049465 0.2884,0.04151 0.56646,0.201769 0.61791,0.356121 0.0515,0.154352 0.20244,0.21334 0.33553,0.131085 0.1331,-0.08226 0.25139,0.06583 0.26288,0.32908 0.0151,0.345303 0.0621,0.374287 0.16896,0.104045 0.1011,-0.255765 0.30078,-0.0879 0.62948,0.529166 0.26477,0.497067 0.4864,0.742192 0.4925,0.544722 0.007,-0.222722 0.17597,-0.295763 0.44538,-0.192381 0.37967,0.145691 0.38799,0.109578 0.0661,-0.287065 -0.24394,-0.300637 -0.25657,-0.386682 -0.0374,-0.255025 0.19577,0.117615 0.33835,0.05737 0.34941,-0.147649 0.0529,-0.980762 1.91205,4.219035 2.50747,7.013141 0.54408,2.553217 0.50963,2.854631 -0.22181,1.940582 -0.53444,-0.667859 -0.60345,-0.692774 -0.60345,-0.217863 0,0.294931 0.0983,0.475471 0.21849,0.401202 0.12017,-0.07427 0.14476,0.158726 0.0546,0.517769 -0.0901,0.359043 -0.045,1.083394 0.10036,1.609669 l 0.2642,0.956864 h -1.10509 -1.10509 z M 130.0964,41.87503 c -0.0295,-0.397594 -0.26205,-0.933375 -0.51671,-1.190625 -0.56747,-0.573232 -0.60432,-1.034505 -0.0661,-0.82799 0.2775,0.106486 0.39688,-0.02008 0.39688,-0.420794 0,-0.315199 -0.11907,-0.499505 -0.26459,-0.409568 -0.14552,0.08994 -0.2664,0.0077 -0.26863,-0.182822 -0.003,-0.271854 -0.0537,-0.267922 -0.235,0.01828 -0.12703,0.200544 -0.36944,0.279037 -0.5387,0.174428 -0.204,-0.126075 -0.18095,0.107802 0.0684,0.693707 0.54055,1.270378 1.3246,2.86828 1.4074,2.86828 0.039,0 0.0467,-0.325304 0.0171,-0.722898 z"
         id="path2390" />
      <path
         style="fill:#6c7b62"
         d="m 126.60312,49.616393 c -1.30968,-1.512634 -2.99824,-3.245685 -3.75234,-3.851225 -0.84819,-0.681096 -1.31669,-1.242729 -1.22846,-1.47266 0.16655,-0.434013 0.61518,-0.500728 0.61518,-0.09148 0,0.154109 0.11083,0.211698 0.2463,0.127976 0.13547,-0.08372 0.32229,-0.02928 0.41516,0.120993 0.0929,0.150268 0.27833,0.205557 0.41212,0.122865 0.13495,-0.0834 0.16685,0.06194 0.0716,0.326414 -0.13708,0.380771 -0.0327,0.350198 0.51854,-0.151846 l 0.69018,-0.628608 1.66205,1.480515 c 1.07354,0.956277 1.75292,1.389656 1.91865,1.22392 0.14113,-0.141127 0.37461,-0.256594 0.51884,-0.256594 0.14423,0 0.0555,0.151165 -0.19717,0.335921 -0.42383,0.309916 -0.39605,0.396606 0.35883,1.119832 0.66368,0.635842 0.86235,0.712518 1.05183,0.40594 0.27631,-0.447086 0.0135,-1.003244 -1.25502,-2.655443 l -0.91411,-1.190625 0.97046,1.053874 c 1.43134,1.554369 3.58884,4.987882 2.85522,4.543889 -0.10747,-0.06504 -0.34351,0.04204 -0.52453,0.237955 -0.26598,0.287882 -0.19621,0.498269 0.36374,1.096708 0.38108,0.40727 0.54437,0.532131 0.36288,0.27747 -0.22037,-0.309197 -0.23409,-0.463021 -0.0413,-0.463021 0.15877,0 0.22032,-0.208359 0.13678,-0.463021 -0.0835,-0.254661 0.098,-0.105833 0.40343,0.330729 0.30544,0.436563 0.55612,0.883047 0.55708,0.992188 9.6e-4,0.109141 -0.86146,0.193744 -1.91649,0.188008 l -1.91823,-0.01043 z m -2.09479,-3.939333 c 0.0279,-0.189816 -0.0982,-0.34512 -0.28004,-0.34512 -0.19295,0 -0.27671,0.206409 -0.20109,0.495564 0.13582,0.519394 0.3947,0.438446 0.48113,-0.150444 z m -1.56528,-0.553967 c 0,-0.21188 -0.10116,-0.322716 -0.2248,-0.246302 -0.12364,0.07641 -0.1563,0.249771 -0.0726,0.385237 0.21395,0.346176 0.29738,0.307196 0.29738,-0.138935 z"
         id="path2389" />
      <path
         style="fill:#66765b"
         d="m 147.24062,20.372929 c 0.26339,-0.291042 0.53842,-0.529167 0.61118,-0.529167 0.0728,0 -0.0832,0.238125 -0.34659,0.529167 -0.26339,0.291041 -0.53842,0.529166 -0.61118,0.529166 -0.0728,0 0.0832,-0.238125 0.34659,-0.529166 z"
         id="path2253" />
      <path
         style="fill:#66765b"
         d="m 139.35591,24.780706 c -0.0749,-0.195097 -0.0299,-0.522519 0.0999,-0.727604 0.1718,-0.271375 0.23716,-0.174811 0.24011,0.354722 0.004,0.790108 -0.12534,0.932377 -0.34004,0.372882 z"
         id="path2252" />
      <path
         style="fill:#66765b"
         d="m 133.1063,26.568588 c 0.0127,-0.308224 0.0754,-0.370919 0.15986,-0.159852 0.0764,0.190996 0.067,0.419199 -0.0209,0.507118 -0.0879,0.08792 -0.15046,-0.06835 -0.13897,-0.347266 z"
         id="path2251" />
      <path
         style="fill:#66765b"
         d="m 134.83789,42.719991 c -0.25531,-0.665346 -0.18,-0.837024 0.13191,-0.300656 0.15443,0.265576 0.22505,0.538602 0.15693,0.606724 -0.0681,0.06812 -0.1981,-0.06961 -0.28884,-0.306068 z"
         id="path2240" />
      <path
         style="fill:#66765b"
         d="m 135.22297,43.7665 c 0.0127,-0.308225 0.0754,-0.37092 0.15985,-0.159853 0.0764,0.190996 0.067,0.419199 -0.0209,0.507118 -0.0879,0.08792 -0.15045,-0.06835 -0.13896,-0.347265 z"
         id="path2238" />
      <path
         style="fill:#66765b"
         d="m 122.87382,45.706781 -0.50403,-0.595312 0.59531,0.504028 c 0.55945,0.473662 0.71576,0.686597 0.50403,0.686597 -0.0502,0 -0.3181,-0.267891 -0.59531,-0.595313 z"
         id="path2227" />
      <path
         style="fill:#66765b"
         d="m 137.8995,45.90522 c 0.005,-0.436563 0.0647,-0.583125 0.13177,-0.325694 0.0671,0.257431 0.0627,0.614619 -0.01,0.79375 -0.0725,0.179132 -0.12736,-0.03149 -0.12196,-0.468056 z"
         id="path2224" />
      <path
         style="fill:#66765b"
         d="m 136.01672,46.412334 c 0.0127,-0.308225 0.0754,-0.370919 0.15985,-0.159853 0.0764,0.190997 0.067,0.4192 -0.0209,0.507119 -0.0879,0.08792 -0.15045,-0.06835 -0.13896,-0.347266 z"
         id="path2222" />
      <path
         style="fill:#66765b"
         d="m 136.2813,47.735255 c 0.0127,-0.308225 0.0754,-0.37092 0.15986,-0.159853 0.0764,0.190996 0.067,0.419199 -0.0209,0.507118 -0.0879,0.08792 -0.15046,-0.06835 -0.13897,-0.347265 z"
         id="path2218" />
      <path
         style="fill:#66765b"
         d="m 147.76979,52.018992 c 0.43656,-0.191297 1.17188,-0.930777 1.63404,-1.64329 0.93326,-1.438818 2.81883,-3.432811 4.87053,-5.150594 l 1.35041,-1.130623 -0.55405,1.033743 c -0.30473,0.568558 -0.55406,1.233943 -0.55406,1.478633 0,0.24469 -0.14882,0.500482 -0.33073,0.568427 -0.22502,0.08405 -0.18354,0.184401 0.12976,0.313966 0.39068,0.161561 0.23693,0.436977 -1.01415,1.816741 -0.81105,0.894472 -1.66901,1.953734 -1.90659,2.353916 -0.41137,0.69292 -0.52699,0.727111 -2.42544,0.717248 -1.87715,-0.0098 -1.94715,-0.03065 -1.19972,-0.358167 z"
         id="path2210" />
      <path
         style="fill:#66765b"
         d="m 143.43679,52.056782 c 0.2191,-0.181901 0.79177,-1.402291 1.27261,-2.711979 0.48084,-1.309687 1.39692,-3.40169 2.03574,-4.648895 1.3699,-2.674539 2.20129,-3.884071 1.44208,-2.09798 -0.48776,1.147492 -0.6379,2.15364 -0.57248,3.836459 0.0247,0.636335 0.0865,0.715042 0.31154,0.396875 0.40973,-0.57937 0.24172,-0.132108 -1.07584,2.864007 l -1.18393,2.692242 h -1.31404 c -1.08729,0 -1.24529,-0.05707 -0.91568,-0.330729 z"
         id="path2209" />
      <path
         style="fill:#66765b"
         d="m 132.97422,49.936098 c -0.57047,-1.343858 -1.37414,-3.182554 -1.78593,-4.085991 -0.81561,-1.789394 -0.88428,-2.04428 -0.48412,-1.79697 0.14552,0.08994 0.26458,0.04858 0.26458,-0.09191 0,-0.140485 0.21668,-0.198766 0.4815,-0.129512 0.8694,0.227352 1.15754,-0.492016 0.70773,-1.766914 -0.22062,-0.625306 -0.35108,-1.186967 -0.28992,-1.248136 0.22049,-0.220483 2.41497,4.324094 2.71242,5.617179 0.16744,0.727901 0.55235,2.216425 0.85536,3.307831 0.73408,2.64409 0.73368,2.646537 -0.4322,2.641815 l -0.99218,-0.004 z"
         id="path2208" />
      <path
         style="fill:#66765b"
         d="m 126.68399,49.700342 c -2.06737,-2.379282 -2.27508,-2.714031 -2.05053,-3.304661 0.13743,-0.361461 0.24987,-0.957655 0.24987,-1.324875 0,-0.618295 0.13209,-0.546746 1.78594,0.96743 1.53642,1.406661 5.09323,5.731804 5.09323,6.193459 0,0.0857 -0.62508,0.146882 -1.38906,0.135962 l -1.38907,-0.01985 z"
         id="path2207" />
      <path
         style="fill:#5a6b50"
         d="m 139.33973,24.209387 c 0.0838,-0.218281 0.19909,-0.396875 0.25628,-0.396875 0.0572,0 0.10399,0.178594 0.10399,0.396875 0,0.218281 -0.11533,0.396875 -0.25628,0.396875 -0.14095,0 -0.18775,-0.178594 -0.10399,-0.396875 z"
         id="path2079" />
      <path
         style="fill:#5a6b50"
         d="m 148.85624,51.142069 c 1.72984,-2.266211 3.29596,-3.996282 4.715,-5.208613 l 1.40117,-1.197053 -0.42058,1.169597 c -0.37277,1.036611 -0.49342,1.151319 -1.06109,1.008842 -0.42011,-0.105441 -0.58036,-0.06344 -0.46571,0.122059 0.0961,0.155548 0.54359,0.363819 0.99436,0.462823 l 0.81957,0.180009 -0.62417,0.311182 c -0.34329,0.171151 -0.62417,0.433698 -0.62417,0.58344 0,0.458291 -1.33292,1.886603 -1.9406,2.079471 -0.31512,0.100015 -0.57294,0.292884 -0.57294,0.428598 0,0.135715 -0.17758,0.246754 -0.39463,0.246754 -0.21705,0 -0.54335,0.238125 -0.7251,0.529167 -0.22045,0.352985 -0.61702,0.529166 -1.19112,0.529166 h -0.86065 z m 4.0467,-1.769353 c 0.4377,-0.465913 0.5091,-0.686752 0.26983,-0.834631 -0.18694,-0.115531 -0.25772,-0.09163 -0.16637,0.05618 0.0874,0.141498 -0.0727,0.424303 -0.35599,0.628457 -0.28325,0.204153 -0.515,0.463966 -0.515,0.577361 0,0.323788 0.1297,0.251573 0.76753,-0.427371 z"
         id="path2066" />
      <path
         style="fill:#5a6b50"
         d="m 144.36876,50.47844 c 0.98612,-2.733751 2.29265,-5.746877 2.95819,-6.822178 0.67919,-1.097361 0.73059,-0.965863 0.15807,0.404365 -0.48771,1.167258 -0.81492,4.761266 -0.41073,4.511468 0.14484,-0.08952 0.0629,0.310109 -0.18203,0.888067 -0.24496,0.577958 -0.48532,0.936526 -0.53413,0.796817 -0.0488,-0.139708 -0.20342,-0.183142 -0.34358,-0.09652 -0.15421,0.09531 -0.11917,0.331013 0.0887,0.596961 0.3047,0.389747 0.29297,0.399861 -0.10372,0.08939 -0.25269,-0.19777 -0.38242,-0.543101 -0.29817,-0.79375 0.10776,-0.320623 0.0407,-0.296912 -0.24181,0.08549 -0.61003,0.825732 -0.73381,1.939381 -0.23053,2.074078 0.23323,0.06242 -0.0199,0.127308 -0.56245,0.144188 l -0.9865,0.03069 z"
         id="path2065" />
      <path
         style="fill:#5a6b50"
         d="m 134.60677,52.200786 c 0.74159,-0.142837 0.75474,-0.683475 0.0446,-1.832566 -0.81287,-1.315239 -1.56376,-1.08661 -1.03125,0.313992 0.15064,0.396195 0.23012,0.764116 0.17663,0.817602 -0.0535,0.05349 -0.44377,-0.764967 -0.86729,-1.818784 -0.9559,-2.378434 -1.01099,-2.549543 -0.66196,-2.056018 0.23685,0.334908 0.28194,0.314252 0.28878,-0.132292 0.006,-0.390584 0.0666,-0.436926 0.23138,-0.176951 0.1509,0.238035 0.28009,-0.003 0.39851,-0.743613 0.12313,-0.76999 0.0151,-1.614411 -0.36345,-2.839879 -0.29628,-0.959228 -0.49214,-1.790591 -0.43526,-1.847473 0.30994,-0.309946 3.6084,9.144145 3.6084,10.342461 0,0.08814 -0.44648,0.144032 -0.99219,0.124215 -0.61419,-0.02231 -0.76539,-0.07971 -0.39687,-0.150694 z"
         id="path2064" />
      <path
         style="fill:#5a6b50"
         d="m 127.04315,49.990275 c -2.14329,-2.366322 -2.45142,-3.044106 -1.24643,-2.741671 0.35963,0.09026 0.70075,0.0182 0.81891,-0.172999 0.1465,-0.237033 0.0389,-0.284907 -0.38891,-0.173035 -0.46133,0.120642 -0.55642,0.06341 -0.43224,-0.260186 0.0876,-0.228168 -0.0414,-0.721048 -0.28665,-1.095288 -0.42364,-0.646557 -0.39396,-0.639351 0.596,0.144712 1.50651,1.193185 3.27016,3.144577 4.55695,5.042058 l 1.12144,1.653645 h -1.2839 c -1.28123,0 -1.28838,-0.005 -3.45517,-2.397236 z"
         id="path2063" />
    </g>
  </g>
</svg>
