<?xml version="1.0" encoding="UTF-8" standalone="no"?>
<!-- Created with Inkscape (http://www.inkscape.org/) -->

<svg
   width="64.41539mm"
   height="58.992348mm"
   viewBox="0 0 64.41539 58.992348"
   version="1.1"
   id="svg1"
   xmlns="http://www.w3.org/2000/svg"
   xmlns:svg="http://www.w3.org/2000/svg">
  <defs
     id="defs1" />
  <g
     id="layer1"
     transform="translate(-55.297918,-112.44792)">
    <g
       id="g3115"
       transform="translate(-53.827602,-87.057622)">
      <path
         style="fill:#d7e4f1"
         d="m 109.12863,257.93748 c 3.44338,-1.39632 10.21891,-2.91214 15.35783,-3.43586 2.62956,-0.26798 3.28863,-0.42489 3.83646,-0.91338 1.92357,-1.71525 5.19611,-3.35757 8.20806,-4.11923 1.8982,-0.48002 2.73161,-0.54147 5.80167,-0.42784 4.86954,0.18023 7.92366,1.18208 11.98258,3.93065 1.02266,0.69252 1.81048,1.02819 2.41313,1.02819 3.10519,0 17.13365,3.38215 18.12011,4.36862 0.0711,0.0711 -14.98171,0.1228 -33.45073,0.11487 l -33.58003,-0.0144 z"
         id="path3093" />
      <path
         style="fill:#b5cadf"
         d="m 109.12863,257.93748 c 3.44338,-1.39632 10.21891,-2.91214 15.35783,-3.43586 2.62956,-0.26798 3.28863,-0.42489 3.83646,-0.91338 1.92357,-1.71525 5.19611,-3.35757 8.20806,-4.11923 1.8982,-0.48002 2.73161,-0.54147 5.80167,-0.42784 4.86954,0.18023 7.92366,1.18208 11.98258,3.93065 1.02266,0.69252 1.81048,1.02819 2.41313,1.02819 3.10519,0 17.13365,3.38215 18.12011,4.36862 0.0711,0.0711 -14.98171,0.1228 -33.45073,0.11487 l -33.58003,-0.0144 z"
         id="path3030" />
      <path
         style="fill:#cfc3ad"
         d="m 109.12863,257.93748 c 3.44338,-1.39632 10.21891,-2.91214 15.35783,-3.43586 2.62956,-0.26798 3.28863,-0.42489 3.83646,-0.91338 1.92357,-1.71525 5.19611,-3.35757 8.20806,-4.11923 1.8982,-0.48002 2.73161,-0.54147 5.80167,-0.42784 4.86954,0.18023 7.92366,1.18208 11.98258,3.93065 1.02266,0.69252 1.81048,1.02819 2.41313,1.02819 3.10519,0 17.13365,3.38215 18.12011,4.36862 0.0711,0.0711 -14.98171,0.1228 -33.45073,0.11487 l -33.58003,-0.0144 z"
         id="path2986" />
      <path
         style="fill:#cabca5"
         d="m 141.52075,250.2297 c -0.0172,-0.18191 -0.0172,-0.42003 0,-0.52917 0.0172,-0.10914 -0.0877,-0.19844 -0.23325,-0.19844 -0.14552,0 -0.26459,-0.0992 -0.26459,-0.22048 0,-0.12127 0.15479,-0.22049 0.34396,-0.22049 0.18918,0 0.36966,0.33734 0.40108,0.74965 0.0543,0.71283 -0.1815,1.11245 -0.2472,0.41893 z"
         id="path2745" />
      <path
         style="fill:#cabca5"
         d="m 145.97215,251.26609 c 0.0848,-0.13713 -0.25985,-0.19497 -0.79168,-0.13288 -0.87135,0.10173 -0.92066,0.0705 -0.65963,-0.41721 0.20447,-0.38206 0.19885,-0.55491 -0.0204,-0.628 -0.16639,-0.0555 -0.3007,-0.29928 -0.29847,-0.54181 0.003,-0.35778 0.0482,-0.3713 0.23788,-0.0717 0.14523,0.22937 0.41937,0.29861 0.72355,0.18276 0.37565,-0.14307 0.4175,-0.11373 0.17967,0.12598 -0.33616,0.33882 -0.18658,1.04177 0.22168,1.04177 0.13854,0 0.16248,-0.14883 0.0532,-0.33073 -0.13501,-0.22473 -0.0552,-0.21434 0.24897,0.0324 0.29171,0.23662 0.44766,0.25966 0.44766,0.0661 0,-0.16334 0.20836,-0.29516 0.46302,-0.29293 0.37062,0.003 0.38932,0.0507 0.0937,0.23788 -0.20311,0.12861 -0.29918,0.41653 -0.21349,0.63983 0.10811,0.28171 0.004,0.39457 -0.33999,0.36866 -0.27268,-0.0205 -0.42825,-0.14662 -0.34571,-0.28017 z"
         id="path2742" />
      <path
         style="fill:#cabca5"
         d="m 150.18096,251.57035 c 0.0764,-0.12365 0.24977,-0.15631 0.38524,-0.0726 0.34617,0.21394 0.30719,0.29738 -0.13894,0.29738 -0.21188,0 -0.32271,-0.10116 -0.2463,-0.2248 z"
         id="path2741" />
      <path
         style="fill:#cabca5"
         d="m 147.52484,251.70681 c -0.0931,-0.24262 -0.0463,-0.56409 0.10398,-0.71438 0.18796,-0.18795 0.27326,-0.0503 0.27326,0.44112 0,0.8162 -0.13216,0.91193 -0.37724,0.27326 z"
         id="path2740" />
      <path
         style="fill:#cabca5"
         d="m 148.5438,252.44445 c 0.0791,-0.12796 0.39057,-0.29719 0.6922,-0.37606 0.45028,-0.11776 0.49256,-0.0761 0.23631,0.23264 -0.33455,0.4031 -1.16862,0.53193 -0.92851,0.14342 z"
         id="path2738" />
      <path
         style="fill:#cabca5"
         d="m 154.21525,253.19052 -0.62463,-0.54487 0.72761,0.443 c 0.40018,0.24366 0.7276,0.48885 0.7276,0.54487 0,0.2066 -0.22106,0.0887 -0.83058,-0.443 z"
         id="path2734" />
      <path
         style="fill:#cabca5"
         d="m 148.22166,253.72512 c -0.18529,-0.29669 -0.4675,-0.45871 -0.62714,-0.36005 -0.16874,0.10429 -0.24127,0.0324 -0.17325,-0.17163 0.17291,-0.51872 0.74539,-0.62745 0.74539,-0.14156 0,0.55075 0.46611,0.52892 1.65566,-0.0776 0.89801,-0.45783 0.95458,-0.46055 0.7268,-0.0349 -0.13585,0.25383 -0.6163,0.53538 -1.06768,0.62565 -0.45674,0.0914 -0.74731,0.28285 -0.65524,0.43183 0.091,0.14723 0.068,0.26769 -0.0511,0.26769 -0.1191,0 -0.36815,-0.24274 -0.55343,-0.53943 z"
         id="path2733" />
      <path
         style="fill:#cabca5"
         d="m 128.47374,254.02995 c -0.0797,-0.12903 0.0184,-0.3702 0.21806,-0.53592 0.27954,-0.232 0.40061,-0.20348 0.52626,0.12395 0.0897,0.2339 0.16319,0.47506 0.16319,0.53592 0,0.21284 -0.76385,0.10851 -0.90751,-0.12395 z"
         id="path2732" />
      <path
         style="fill:#cabca5"
         d="m 150.01875,254.26459 c 0,-0.14552 0.21431,-0.26458 0.47625,-0.26458 0.66429,0 1.10792,-0.51425 1.12984,-1.30969 0.0169,-0.61419 0.039,-0.62724 0.24599,-0.14552 0.34573,0.80457 0.32887,0.84315 -0.62654,1.43363 -0.99868,0.61721 -1.22554,0.67019 -1.22554,0.28616 z"
         id="path2729" />
      <path
         style="fill:#cabca5"
         d="m 151.69444,254.40852 c 0,-0.21188 0.10116,-0.32271 0.2248,-0.2463 0.12365,0.0764 0.15631,0.24977 0.0726,0.38524 -0.21394,0.34617 -0.29738,0.30719 -0.29738,-0.13894 z"
         id="path2728" />
      <path
         style="fill:#cabca5"
         d="m 124.87836,255.31985 c -0.51141,-0.31606 -0.24833,-0.5036 0.38429,-0.27394 0.28138,0.10215 0.39476,0.25795 0.25195,0.34621 -0.14281,0.0883 -0.42912,0.0557 -0.63624,-0.0723 z"
         id="path2725" />
      <path
         style="fill:#cabca5"
         d="m 150.19914,255.4253 c 0.0774,-0.20181 0.37322,-0.36693 0.65728,-0.36693 0.62563,0 0.4297,0.41278 -0.28459,0.59958 -0.3612,0.0945 -0.47173,0.0255 -0.37269,-0.23265 z"
         id="path2722" />
      <path
         style="fill:#cabca5"
         d="m 160.60208,256.11671 c 0,-0.14553 0.11906,-0.26459 0.26458,-0.26459 0.14552,0 0.26459,0.11906 0.26459,0.26459 0,0.14552 -0.11907,0.26458 -0.26459,0.26458 -0.14552,0 -0.26458,-0.11906 -0.26458,-0.26458 z"
         id="path2721" />
      <path
         style="fill:#cabca5"
         d="m 159.01458,256.01861 c 0,-0.19036 0.29684,-0.48135 0.65964,-0.64665 0.61589,-0.28062 0.63821,-0.26623 0.33642,0.217 -0.39924,0.63928 -0.99606,0.89672 -0.99606,0.42965 z"
         id="path2720" />
      <path
         style="fill:#cabca5"
         d="m 163.04948,256.72159 c -0.1819,-0.0659 -0.33073,-0.24169 -0.33073,-0.39066 0,-0.14896 0.16408,-0.20787 0.36463,-0.13092 0.20055,0.077 0.49821,0.006 0.66146,-0.1569 0.18406,-0.18406 0.37389,-0.20133 0.49967,-0.0455 0.11157,0.13825 0.15099,0.22133 0.0876,0.18463 -0.0634,-0.0367 -0.30349,0.0966 -0.53358,0.29621 -0.23009,0.19961 -0.56717,0.30901 -0.74907,0.24311 z"
         id="path2717" />
      <path
         style="fill:#cabca5"
         d="m 161.34622,256.9943 c 0.191,-0.0764 0.4192,-0.067 0.50712,0.0209 0.0879,0.0879 -0.0684,0.15045 -0.34727,0.13896 -0.30822,-0.0127 -0.37092,-0.0754 -0.15985,-0.15985 z"
         id="path2716" />
      <path
         style="fill:#cabca5"
         d="m 170.52395,257.17504 c -0.34891,-0.14994 -0.39397,-0.23235 -0.13229,-0.24194 0.21828,-0.008 0.57547,0.10087 0.79375,0.24194 0.48365,0.31256 0.0659,0.31256 -0.66146,0 z"
         id="path2715" />
      <path
         style="fill:#cabca5"
         d="m 125.31936,257.0441 c -0.20517,-0.20516 -0.44674,-0.29932 -0.53682,-0.20924 -0.0901,0.0901 -0.16379,-0.0872 -0.16379,-0.39386 0,-0.76476 0.28644,-0.87676 1.06165,-0.4151 0.36198,0.21557 0.43983,0.3241 0.17301,0.24119 -0.31843,-0.099 -0.44502,-0.037 -0.3684,0.18016 0.0642,0.182 0.31228,0.31438 0.55128,0.29417 0.53996,-0.0457 0.57182,0.32433 0.0453,0.52636 -0.21407,0.0822 -0.55708,-0.0185 -0.76225,-0.22368 z"
         id="path2714" />
      <path
         style="fill:#cabca5"
         d="m 121.82035,256.9825 c 0.88585,-0.36681 0.96344,-0.45907 0.52916,-0.62923 -0.44405,-0.17399 -0.42461,-0.20228 0.15257,-0.22204 0.52999,-0.0181 0.58258,-0.0746 0.26459,-0.28398 -0.30954,-0.20382 -0.25132,-0.2466 0.26458,-0.19439 0.43812,0.0444 0.63633,-0.0531 0.58704,-0.28858 -0.0409,-0.19555 0.0781,-0.30543 0.26459,-0.24418 0.18645,0.0612 0.37789,0.44226 0.42543,0.84671 0.0523,0.44483 -0.0189,0.67026 -0.18015,0.57059 -0.14663,-0.0906 -0.3464,-0.0356 -0.44393,0.12217 -0.0975,0.15782 -0.34044,0.22435 -0.5398,0.14785 -0.19935,-0.0765 -0.53599,0.0344 -0.74808,0.24655 -0.2121,0.2121 -0.66203,0.3795 -0.99985,0.372 -0.48114,-0.0107 -0.38931,-0.10676 0.42385,-0.44347 z"
         id="path2713" />
      <path
         style="fill:#cabca5"
         d="m 118.59948,257.24629 c -0.1819,-0.0634 -0.33073,-0.23154 -0.33073,-0.37352 0,-0.14198 0.11906,-0.18456 0.26458,-0.0946 0.14552,0.0899 0.26459,0.0374 0.26459,-0.11667 0,-0.15411 -0.12609,-0.2802 -0.2802,-0.2802 -0.15411,0 -0.20662,-0.11906 -0.11668,-0.26458 0.0899,-0.14553 -0.0519,-0.27533 -0.31511,-0.28845 -0.26325,-0.0131 -0.0716,-0.14081 0.426,-0.28374 0.49755,-0.14294 1.12263,-0.20288 1.38906,-0.1332 0.26643,0.0697 0.48443,0.0188 0.48443,-0.11314 0,-0.13189 0.32742,-0.22359 0.7276,-0.20378 0.59437,0.0294 0.62211,0.0566 0.15151,0.14818 -0.60318,0.11742 -1.41676,0.87413 -0.93982,0.87413 0.14777,0 0.33667,0.17719 0.41978,0.39376 0.11089,0.28899 -0.005,0.36938 -0.43472,0.30213 -0.4041,-0.0632 -0.56312,-0.24978 -0.51266,-0.60151 0.0502,-0.35006 -0.0949,-0.52255 -0.46302,-0.55028 -0.63862,-0.0481 -0.66974,0.14746 -0.1431,0.89934 0.41251,0.58895 0.11597,0.93294 -0.59151,0.68616 z"
         id="path2712" />
      <path
         style="fill:#cabca5"
         d="m 160.07291,257.30726 c 0,-0.21828 0.15875,-0.39687 0.35278,-0.39687 0.19403,0 0.35278,0.17859 0.35278,0.39687 0,0.21828 -0.15875,0.39688 -0.35278,0.39688 -0.19403,0 -0.35278,-0.1786 -0.35278,-0.39688 z"
         id="path2709" />
      <path
         style="fill:#cabca5"
         d="m 115.00352,257.58604 c -0.0786,-0.20481 0.0192,-0.50695 0.21743,-0.67143 0.29026,-0.24089 0.33085,-0.18631 0.20874,0.28066 -0.11003,0.42073 -0.0499,0.54617 0.21925,0.45742 0.20397,-0.0673 0.4089,-0.38086 0.4554,-0.69688 0.0654,-0.4445 -0.0544,-0.57932 -0.52917,-0.59548 -0.33754,-0.0115 -0.46096,-0.0822 -0.27425,-0.15725 0.1867,-0.075 0.54388,-0.0451 0.79375,0.0665 0.72409,0.32338 1.64491,0.36825 1.64491,0.0801 0,-0.14539 0.12101,-0.18956 0.2689,-0.0982 0.1479,0.0914 0.20192,0.27457 0.12006,0.40703 -0.0819,0.13245 -0.0307,0.46157 0.11368,0.73137 0.19938,0.37253 0.1705,0.49053 -0.12005,0.49053 -0.21042,0 -0.38259,-0.23673 -0.38259,-0.52607 0,-0.49315 -0.0303,-0.49863 -0.48449,-0.0876 -0.26647,0.24115 -0.56413,0.35882 -0.66146,0.26149 -0.0973,-0.0973 -0.17696,-0.064 -0.17696,0.074 0,0.40569 -1.25678,0.39121 -1.41315,-0.0163 z"
         id="path2708" />
      <path
         style="fill:#cabca5"
         d="m 172.77291,257.96869 c 0,-0.3315 0.28079,-0.3315 0.79375,0 0.32093,0.2074 0.28296,0.25725 -0.19843,0.26053 -0.32743,0.002 -0.59532,-0.11501 -0.59532,-0.26053 z"
         id="path2704" />
      <path
         style="fill:#cabca5"
         d="m 164.30625,258.21766 c 0,-0.15411 0.11906,-0.20662 0.26458,-0.11668 0.38493,0.2379 0.32476,-0.0591 -0.16272,-0.80306 -0.41661,-0.63582 -0.40998,-0.65215 0.26458,-0.65215 0.38054,0 0.69189,-0.11906 0.69189,-0.26458 0,-0.14552 -0.11906,-0.26458 -0.26458,-0.26458 -0.14552,0 -0.26459,-0.11907 -0.26459,-0.26459 0,-0.14552 0.18562,-0.26458 0.41249,-0.26458 0.22687,0 0.34484,0.10946 0.26215,0.24325 -0.22599,0.36567 0.65898,1.13218 1.10815,0.95981 0.23654,-0.0908 0.69811,0.19135 1.16552,0.71239 0.42563,0.47447 0.75572,0.74361 0.73354,0.59809 -0.15706,-1.03008 0.0475,-1.4472 0.68378,-1.39454 0.61973,0.0513 0.97315,0.4685 0.39687,0.4685 -0.14552,0 -0.26458,0.18562 -0.26458,0.41249 0,0.22687 -0.11906,0.3389 -0.26458,0.24897 -0.14552,-0.0899 -0.26459,-0.0374 -0.26459,0.11667 0,0.41471 0.6795,0.3398 1.05834,-0.11667 0.18115,-0.21828 0.46362,-0.39309 0.62771,-0.38846 0.16408,0.005 0.0814,0.17284 -0.18372,0.37381 -0.46634,0.35349 -0.46634,0.36945 0,0.49006 0.26513,0.0686 -0.97647,0.13847 -2.7591,0.15535 -2.12411,0.0201 -3.24114,-0.0659 -3.24114,-0.2495 z m 2.75931,-0.40649 c -0.0328,-0.41695 -0.90723,-0.43391 -0.90723,-0.0176 0,0.22366 0.19943,0.3636 0.46302,0.32491 0.25466,-0.0374 0.45455,-0.17567 0.44421,-0.30732 z m -1.47142,-0.43709 c -0.22163,-0.41413 -0.35471,-0.48515 -0.43843,-0.23398 -0.0661,0.19834 0.0431,0.46409 0.24277,0.59055 0.52874,0.33494 0.54747,0.3008 0.19566,-0.35657 z"
         id="path2702" />
      <path
         style="fill:#cabca5"
         d="m 133.61458,258.09196 c 0,-0.31959 -0.1091,-0.34779 -0.51177,-0.13229 -0.72845,0.38985 -1.87625,0.33609 -2.76946,-0.12972 -0.42223,-0.22019 -0.96974,-0.33622 -1.21668,-0.25785 -0.24695,0.0784 -0.78826,-0.0335 -1.20291,-0.24863 -0.69477,-0.36045 -0.71349,-0.40755 -0.23853,-0.60042 0.28347,-0.1151 0.54686,-0.36321 0.58532,-0.55134 0.0486,-0.23799 -0.0721,-0.27619 -0.39688,-0.12557 -0.25674,0.11907 -0.64539,0.20906 -0.86367,0.19998 -0.51219,-0.0213 -1.5666,-0.63971 -1.10887,-0.65035 0.20305,-0.005 0.26634,-0.14488 0.15296,-0.33877 -0.10636,-0.1819 0.0604,-0.10826 0.3706,0.16365 0.75319,0.66023 2.16412,0.40332 1.60085,-0.29149 -0.29685,-0.36616 -0.29584,-0.40169 0.006,-0.21978 0.22149,0.13338 0.45085,0.0765 0.59531,-0.14765 0.19715,-0.30589 0.27762,-0.3007 0.49959,0.0323 0.22961,0.34441 0.29711,0.3463 0.5107,0.0143 0.15282,-0.23756 0.14929,-0.56355 -0.009,-0.85989 -0.16971,-0.31711 -0.16351,-0.47728 0.0185,-0.47728 0.15064,0 0.2739,-0.12609 0.2739,-0.2802 0,-0.15411 -0.14883,-0.20457 -0.33073,-0.11213 -0.1819,0.0924 -0.0331,-0.093 0.33073,-0.41207 0.56591,-0.49633 0.6738,-0.51841 0.74692,-0.15287 0.074,0.37007 0.136,0.37673 0.46302,0.0497 0.46583,-0.46583 0.49195,-0.76911 0.0468,-0.54364 -0.1819,0.0921 -0.096,-0.0225 0.19084,-0.25481 0.28687,-0.23228 0.68,-0.36154 0.87364,-0.28723 0.21742,0.0834 0.27962,0.0179 0.16263,-0.17142 -0.12624,-0.20425 -0.0436,-0.25056 0.24766,-0.13878 0.24987,0.0959 0.41013,0.0461 0.37414,-0.11621 -0.0798,-0.35982 1.80619,-1.04753 2.32587,-0.84811 0.2141,0.0822 0.38928,0.33904 0.38928,0.57086 0,0.34777 0.0578,0.36017 0.33073,0.0709 0.26458,-0.28046 0.26458,-0.37482 0,-0.47184 -0.5027,-0.18432 -0.39572,-0.55005 0.21787,-0.74479 0.37334,-0.1185 0.66292,-0.0185 0.90648,0.3129 0.34333,0.4672 0.35599,0.46549 0.3113,-0.0422 -0.0345,-0.39245 0.0901,-0.507 0.48258,-0.44335 0.29104,0.0472 0.72878,0.10248 0.97276,0.12284 0.24398,0.0204 0.39195,0.12058 0.32884,0.22271 -0.25825,0.41786 0.42527,1.55301 0.93513,1.55301 0.47088,0 0.49604,-0.0746 0.2254,-0.66864 -0.23102,-0.50703 -0.22965,-0.74364 0.006,-0.97896 0.23737,-0.23737 0.31032,-0.14239 0.31032,0.40405 0,0.53799 0.13066,0.71438 0.52917,0.71438 0.29104,0 0.52916,0.12609 0.52916,0.2802 0,0.15411 -0.14882,0.19078 -0.33072,0.0815 -0.19001,-0.11415 -0.16186,0.009 0.0661,0.29017 0.3561,0.43864 0.40567,0.44386 0.48242,0.0508 0.10754,-0.5507 0.27778,-0.55046 0.88743,0.001 0.63493,0.5746 0.92672,0.25889 0.49914,-0.54005 -0.22829,-0.42657 -0.49813,-0.58685 -0.83825,-0.49791 -0.73453,0.19208 -0.61243,-0.32427 0.15989,-0.67616 0.5335,-0.24308 0.66145,-0.22997 0.66145,0.0678 0,0.20304 0.12555,0.411 0.279,0.46215 0.23883,0.0796 0.41448,0.55562 0.49451,1.34016 0.0111,0.10914 0.14633,0.19844 0.30044,0.19844 0.15411,0 0.20662,-0.11906 0.11668,-0.26458 -0.25393,-0.41086 0.12295,-0.31173 0.58983,0.15515 0.23917,0.23918 0.68618,0.3688 1.03913,0.30133 0.53058,-0.10142 0.65879,0.0279 0.89419,0.90211 0.28261,1.04955 1.29844,2.25707 1.56204,1.85681 0.0815,-0.12372 0.35131,-0.22311 0.59963,-0.22087 0.32488,0.003 0.3887,0.11629 0.22758,0.40419 -0.15415,0.27545 -0.0502,0.54078 0.33368,0.85162 0.47632,0.3857 0.50592,0.51377 0.20305,0.87871 -0.20916,0.25202 -0.24008,0.4272 -0.0754,0.4272 0.15353,0 0.35464,-0.23785 0.44691,-0.52855 0.16089,-0.50693 0.92254,-0.83822 2.06546,-0.8984 0.2952,-0.0155 0.59181,-0.19366 0.65912,-0.39582 0.0741,-0.22259 0.005,-0.29489 -0.17572,-0.18331 -0.21896,0.13532 -0.22369,-0.0115 -0.0178,-0.55299 0.19761,-0.51975 0.19737,-0.76486 -8e-4,-0.83092 -0.1546,-0.0515 -0.28109,-0.2785 -0.28109,-0.50437 0,-0.26444 0.27072,-0.10061 0.76026,0.46008 0.47762,0.54704 0.91069,0.81304 1.16491,0.71548 0.22255,-0.0854 0.62458,0.0114 0.89338,0.21501 0.26881,0.20366 0.6078,0.37226 0.75333,0.37466 0.14552,0.002 0.11012,-0.0936 -0.0787,-0.21338 -0.26995,-0.17124 -0.24498,-0.29751 0.11693,-0.59126 0.2531,-0.20544 0.3855,-0.24853 0.29422,-0.0958 -0.0913,0.15277 0.0942,0.43979 0.41223,0.63782 0.52743,0.32843 0.54632,0.32146 0.21508,-0.0793 -0.31914,-0.38615 -0.2932,-0.43938 0.21405,-0.43938 0.31745,0 0.50359,0.11906 0.41366,0.26459 -0.0899,0.14552 0.0746,0.26458 0.36564,0.26458 0.29104,0 0.60275,0.11906 0.69269,0.26458 0.0922,0.14918 -0.1222,0.26459 -0.4915,0.26459 -0.36027,0 -0.69806,0.12909 -0.75065,0.28687 -0.0526,0.15778 -0.47591,0.3132 -0.9407,0.34538 -0.96872,0.0671 -1.25542,0.26469 -0.99509,0.68591 0.13157,0.21287 0.29373,0.20258 0.58235,-0.037 0.5065,-0.42036 1.09437,-0.51138 1.28724,-0.19932 0.0819,0.13256 0.4257,0.24102 0.76394,0.24102 0.39247,0 0.66505,0.19147 0.75336,0.52917 0.16633,0.63602 -0.38552,0.71168 -0.9649,0.13229 -0.49834,-0.49834 -0.87565,-0.50921 -0.87565,-0.0252 0,0.22549 0.16475,0.31297 0.41893,0.22243 0.2304,-0.0821 0.33066,-0.0519 0.22278,0.067 -0.10788,0.11894 -0.0635,0.37603 0.0985,0.57132 0.2419,0.29148 -0.031,0.35133 -1.52365,0.33419 -1.00008,-0.0115 -1.66951,-0.0809 -1.48761,-0.15434 0.46879,-0.18916 0.4102,-0.796 -0.0956,-0.99009 -0.30212,-0.11594 -0.38257,-0.0496 -0.27614,0.2278 0.0826,0.21527 0.01,0.47812 -0.16161,0.58411 -0.48693,0.30094 -9.46248,0.36784 -10.01038,0.0746 -0.29632,-0.15859 -0.42726,-0.4358 -0.33888,-0.71744 0.12849,-0.40942 0.106,-0.41464 -0.20829,-0.0483 -0.45848,0.53441 -1.53936,0.5493 -1.33563,0.0184 0.0993,-0.25878 0.039,-0.3167 -0.18541,-0.17802 -0.18292,0.11305 -0.28207,0.40047 -0.22033,0.63871 0.0971,0.37461 -0.17998,0.43404 -2.04952,0.43967 -1.57867,0.005 -2.16178,-0.0845 -2.16178,-0.33073 0,-0.18548 0.0794,-0.33723 0.17639,-0.33723 0.097,0 0.18761,-0.14883 0.20132,-0.33073 0.0137,-0.18191 0.10697,-0.59862 0.20725,-0.92605 0.13493,-0.44059 0.0752,-0.59531 -0.22981,-0.59531 -0.53152,0 -0.86413,0.53369 -0.48041,0.77084 0.2158,0.13338 0.20931,0.41035 -0.0241,1.02875 -0.31903,0.8452 -0.3218,0.84625 -2.24579,0.84625 -1.55556,0 -1.92637,-0.0782 -1.92637,-0.40619 z m 23.28333,-0.11468 c 0,-0.14095 -0.17859,-0.18774 -0.39687,-0.10398 -0.21828,0.0838 -0.39688,0.19909 -0.39688,0.25628 0,0.0572 0.1786,0.10398 0.39688,0.10398 0.21828,0 0.39687,-0.11532 0.39687,-0.25628 z M 141.2875,257.6711 c 0,-0.12733 -0.14883,-0.24062 -0.33073,-0.25175 -0.1819,-0.0111 -0.53909,-0.0601 -0.79375,-0.10888 -0.44648,-0.0855 -0.61601,0.15253 -0.31971,0.44883 0.23572,0.23571 1.44419,0.16191 1.44419,-0.0882 z m 3.43958,0.0331 c 0,-0.14553 -0.0525,-0.26459 -0.11668,-0.26459 -0.0642,0 -0.19026,0.11906 -0.28019,0.26459 -0.0899,0.14552 -0.0374,0.26458 0.11667,0.26458 0.15411,0 0.2802,-0.11906 0.2802,-0.26458 z m 1.05833,-0.0156 c 0,-0.15411 -0.11906,-0.20661 -0.26458,-0.11668 -0.14552,0.0899 -0.26458,0.0176 -0.26458,-0.16077 0,-0.17836 -0.0715,-0.25284 -0.15879,-0.16551 -0.20327,0.20327 0.11233,0.72316 0.43899,0.72316 0.13693,0 0.24896,-0.12609 0.24896,-0.2802 z m 1.85209,0.0156 c 0,-0.14553 -0.12609,-0.26459 -0.2802,-0.26459 -0.15411,0 -0.20661,0.11906 -0.11668,0.26459 0.0899,0.14552 0.21603,0.26458 0.2802,0.26458 0.0642,0 0.11668,-0.11906 0.11668,-0.26458 z m 3.90106,-0.41223 c -0.0986,-0.51585 -0.0373,-0.6415 0.25761,-0.52831 0.21285,0.0817 0.52501,0.0632 0.69369,-0.041 0.16868,-0.10425 0.63419,-0.15519 1.03446,-0.1132 0.40027,0.042 0.72776,-0.0262 0.72776,-0.1516 0,-0.12537 -0.62508,-0.22618 -1.38906,-0.22402 -1.46321,0.004 -2.25606,0.55314 -1.95013,1.35039 0.25721,0.67027 0.76438,0.4334 0.62567,-0.29221 z m 2.47223,0.32968 c -0.38217,-0.38216 -1.82456,-0.43151 -1.96436,-0.0672 -0.0823,0.21444 0.25393,0.31692 1.0506,0.32022 0.7607,0.003 1.08118,-0.0856 0.91376,-0.25302 z m -23.45589,-1.00291 c 0.0689,-0.0689 -0.11997,-0.27831 -0.41962,-0.46545 -0.29965,-0.18713 -0.4658,-0.21239 -0.36923,-0.0561 0.0966,0.15627 -0.006,0.28412 -0.22759,0.28412 -0.22175,0 -0.52236,0.22269 -0.66803,0.49488 -0.24804,0.46348 -0.20697,0.47498 0.64721,0.18133 0.50163,-0.17246 0.9684,-0.36989 1.03726,-0.43875 z m 1.86906,0.55629 c 0.095,-0.15374 -0.14784,-0.25679 -0.5797,-0.24599 -0.65374,0.0164 -0.67951,0.046 -0.21405,0.24599 0.29104,0.12506 0.5519,0.23576 0.57969,0.24599 0.0278,0.0102 0.12412,-0.10047 0.21406,-0.24599 z m 4.89479,-0.42292 c 0,-0.32172 -0.0659,-0.33075 -0.36911,-0.0505 -0.203,0.18763 -0.31384,0.4324 -0.2463,0.54391 0.18324,0.30253 0.61541,-0.0439 0.61541,-0.49338 z m 9.06222,-0.41028 c -0.22898,-0.22898 -0.29351,-0.16445 -0.26143,0.26144 0.0281,0.37243 0.13184,0.47621 0.30403,0.30402 0.17218,-0.17218 0.15764,-0.36521 -0.0426,-0.56546 z m 3.10861,0.2966 c 0,-0.11568 -0.20836,-0.17044 -0.46302,-0.12169 -0.25466,0.0487 -0.55232,0.0977 -0.66146,0.10888 -0.10914,0.0111 -0.19844,0.12279 -0.19844,0.24813 0,0.12535 0.29766,0.171 0.66146,0.10145 0.3638,-0.0695 0.66146,-0.22109 0.66146,-0.33677 z m -9.03093,-0.094 c 0.54584,-0.30264 0.56828,-0.36957 0.17456,-0.52065 -0.54969,-0.21094 -1.00496,0.0274 -0.7721,0.40414 0.10954,0.17724 -0.0531,0.21153 -0.45871,0.0967 -0.48459,-0.13723 -0.5376,-0.11436 -0.23157,0.0999 0.49401,0.34587 0.52282,0.34408 1.28782,-0.0801 z m 3.17703,-0.0308 c 0.0182,-0.0728 -0.0265,-0.13229 -0.0992,-0.13229 -1.05328,0 -1.06416,0.004 -0.66146,0.26433 0.36817,0.2377 0.68185,0.18325 0.76068,-0.13204 z m 1.48828,0.13229 c 0.0899,-0.14552 -0.0151,-0.26458 -0.23336,-0.26458 -0.21828,0 -0.47046,0.11906 -0.56039,0.26458 -0.0899,0.14552 0.0151,0.26459 0.23335,0.26459 0.21828,0 0.47046,-0.11907 0.5604,-0.26459 z m -11.45624,-0.29302 c 0.42344,-0.22662 0.4677,-0.34236 0.1953,-0.51071 -0.42282,-0.26131 -1.38695,0.19536 -1.16628,0.55242 0.1979,0.3202 0.30319,0.31568 0.97098,-0.0417 z m 8.41353,0.0367 c 0,-0.14095 -0.1786,-0.18774 -0.39688,-0.10398 -0.21828,0.0838 -0.39687,0.19909 -0.39687,0.25628 0,0.0572 0.17859,0.10398 0.39687,0.10398 0.21828,0 0.39688,-0.11532 0.39688,-0.25628 z m -9.54589,-1.17379 c -0.0119,-0.16571 -0.0782,-0.14745 -0.15489,0.0427 -0.0737,0.18281 -0.26129,0.25371 -0.41687,0.15755 -0.16719,-0.10332 -0.20566,-0.0499 -0.0941,0.13065 0.113,0.18282 0.0169,0.30546 -0.23931,0.30546 -0.23549,0 -0.34974,0.1268 -0.25393,0.28182 0.20258,0.32779 1.19238,-0.45626 1.15908,-0.91814 z m 15.19047,0.66257 c -0.12134,-0.0906 -0.30353,-0.26607 -0.40487,-0.38996 -0.10134,-0.1239 -0.16628,0.0132 -0.14432,0.30474 0.0251,0.33329 0.17537,0.47802 0.40487,0.38996 0.20071,-0.077 0.26566,-0.21416 0.14432,-0.30474 z m -18.34458,-0.27504 c 0,-0.1057 -0.15875,-0.19218 -0.35278,-0.19218 -0.19403,0 -0.35278,0.1474 -0.35278,0.32755 0,0.18016 0.15875,0.26664 0.35278,0.19218 0.19403,-0.0745 0.35278,-0.22185 0.35278,-0.32755 z m 5.82083,0.24879 c 0,-0.14552 -0.0525,-0.26458 -0.11667,-0.26458 -0.0642,0 -0.19027,0.11906 -0.2802,0.26458 -0.0899,0.14552 -0.0374,0.26459 0.11667,0.26459 0.15411,0 0.2802,-0.11907 0.2802,-0.26459 z m 1.60612,-0.22979 c -0.14552,-0.27191 -0.17948,-0.59541 -0.0755,-0.71888 0.10403,-0.12348 0.0105,-0.0956 -0.20774,0.062 -0.21828,0.15757 -0.57547,0.36332 -0.79375,0.45723 -0.21828,0.0939 -0.12899,0.12105 0.19844,0.0603 0.62797,-0.11651 0.82849,0.23098 0.26458,0.45853 -0.1819,0.0734 -0.0587,0.14285 0.27389,0.15434 0.51044,0.0176 0.56341,-0.0561 0.34004,-0.47349 z m 6.33138,-0.0787 c 0,-0.13854 -0.11906,-0.17831 -0.26458,-0.0884 -0.14552,0.0899 -0.26459,0.0374 -0.26459,-0.11668 0,-0.15411 0.11773,-0.2802 0.26162,-0.2802 0.34073,0 0.24073,-1.39668 -0.11811,-1.64959 -0.49864,-0.35145 -1.62174,-0.21119 -2.14414,0.26777 -0.2821,0.25864 -0.80034,0.467 -1.15165,0.46302 -0.35131,-0.004 -0.69417,0.15816 -0.76193,0.36032 -0.0748,0.22322 -0.006,0.29501 0.17572,0.18282 0.1644,-0.1016 0.30831,-0.0289 0.3198,0.16161 0.0161,0.26636 0.0517,0.26997 0.15434,0.0156 0.23224,-0.57555 0.66347,-0.35999 0.47401,0.23694 -0.15735,0.49577 -0.12961,0.5209 0.21898,0.19844 0.21954,-0.20308 0.34594,-0.45716 0.28089,-0.56464 -0.065,-0.10747 0.0665,-0.1245 0.29236,-0.0378 0.22584,0.0867 0.41061,0.0357 0.41061,-0.11327 0,-0.14896 -0.14882,-0.32575 -0.33072,-0.39286 -0.18191,-0.0671 0.20505,-0.0945 0.85989,-0.0609 0.87272,0.0448 1.16331,0.15979 1.08832,0.43071 -0.36541,1.32004 -0.35301,1.56604 0.0707,1.40344 0.23565,-0.0904 0.42845,-0.27776 0.42845,-0.4163 z m 1.05109,-0.38506 c -0.11885,-0.52698 -0.15612,-1.15206 -0.0828,-1.38906 0.10321,-0.33373 0.0408,-0.3177 -0.27674,0.0711 -0.22549,0.2761 -0.35234,0.59529 -0.28186,0.70932 0.0705,0.11403 0.0123,0.2789 -0.12921,0.36637 -0.14154,0.0875 -0.19054,0.33315 -0.10889,0.54593 0.0817,0.21279 0.25505,0.32101 0.38532,0.2405 0.13027,-0.0805 0.23686,-0.0203 0.23686,0.13381 0,0.15411 0.10653,0.2802 0.23672,0.2802 0.13544,0 0.14427,-0.40994 0.0206,-0.95815 z m 1.56213,0.54111 c 0.18283,0.113 0.23274,0.0278 0.13415,-0.22916 -0.0863,-0.22501 -0.29334,-0.3274 -0.45999,-0.22754 -0.16665,0.0999 -0.1385,-0.0212 0.0626,-0.26904 0.33761,-0.41614 0.38979,-0.41746 0.6824,-0.0173 0.264,0.36104 0.41737,0.3795 0.91962,0.11071 0.67668,-0.36215 0.47078,-0.71375 -0.49572,-0.84648 -0.60459,-0.083 -0.61697,-0.11625 -0.19844,-0.53267 0.2455,-0.24427 0.44637,-0.57169 0.44637,-0.72761 0,-0.26967 -0.0864,-0.30794 -0.8599,-0.38076 -0.1819,-0.0171 -0.62511,0.17634 -0.98491,0.42994 -0.51009,0.35953 -0.5538,0.46109 -0.19844,0.46109 0.25066,0 0.45583,-0.0893 0.45593,-0.19844 1.1e-4,-0.10914 0.30312,-0.21594 0.67336,-0.23733 0.64117,-0.037 0.62336,0.006 -0.37489,0.89612 -0.93608,0.83512 -1.01725,1.00261 -0.75975,1.56776 0.18767,0.4119 0.3543,0.52594 0.47741,0.32675 0.10401,-0.16829 0.32012,-0.22502 0.48024,-0.12606 z m 9.55761,-0.002 c 0,-0.46723 -0.56958,-0.38586 -0.73311,0.10473 -0.0576,0.17281 0.0838,0.3142 0.31419,0.3142 0.23041,0 0.41892,-0.18852 0.41892,-0.41893 z m -13.33447,-1.09749 c -0.0876,-0.0876 -0.1611,0.009 -0.16333,0.21555 -0.003,0.31116 -0.0427,0.31385 -0.23151,0.0159 -0.15996,-0.25246 -0.22746,-0.15087 -0.22746,0.34238 0,0.69402 0.004,0.69552 0.39079,0.14343 0.21494,-0.30686 0.31912,-0.62961 0.23151,-0.71721 z m 6.19072,0.72267 c -0.20985,-0.1297 -0.44108,-0.17628 -0.51384,-0.10352 -0.0728,0.0728 0.0394,0.2384 0.24926,0.3681 0.20985,0.12969 0.44108,0.17628 0.51384,0.10352 0.0728,-0.0728 -0.0394,-0.23841 -0.24926,-0.3681 z m 5.74352,-0.39223 c -0.17576,-0.19029 -0.43276,-0.27715 -0.57111,-0.19302 -0.14658,0.0891 -0.12518,0.19509 0.0513,0.25391 0.16656,0.0555 0.2277,0.30161 0.13587,0.54687 -0.14401,0.38462 -0.10713,0.39728 0.26828,0.0921 0.34286,-0.27875 0.36741,-0.42729 0.11568,-0.69983 z m -22.84575,-0.26923 c -0.18172,-0.47357 -0.52168,-0.51328 -0.78241,-0.0914 -0.11696,0.18925 -0.0726,0.23364 0.11668,0.11667 0.16801,-0.10383 0.30547,-0.0627 0.30547,0.0914 0,0.15411 0.11532,0.2802 0.25627,0.2802 0.14096,0 0.18775,-0.17859 0.10399,-0.39687 z m 1.05833,0 c 0.0928,-0.24176 4.2e-4,-0.39688 -0.23627,-0.39688 -0.21372,0 -0.38857,0.1786 -0.38857,0.39688 0,0.21828 0.10632,0.39687 0.23627,0.39687 0.12995,0 0.30481,-0.17859 0.38857,-0.39687 z m 2.92176,0.0914 c -0.11965,-0.1936 -0.0723,-0.23346 0.12935,-0.10885 0.17498,0.10814 0.52079,0.11015 0.76849,0.004 0.37826,-0.1614 0.34447,-0.22157 -0.21111,-0.37594 -0.3638,-0.10108 -0.80277,-0.13437 -0.97548,-0.074 -0.35502,0.12415 -0.16195,0.85977 0.22565,0.85977 0.13854,0 0.16694,-0.13746 0.0631,-0.30546 z m -1.52004,-0.55443 c 0.0738,0.1819 0.24334,0.33073 0.37673,0.33073 0.36579,0 0.29108,-0.73273 -0.0882,-0.86502 -0.52049,-0.18156 -0.99257,0.0872 -0.98814,0.56259 0.004,0.37954 0.0397,0.38435 0.28473,0.0378 0.21122,-0.29866 0.31388,-0.31503 0.41487,-0.0661 z m 6.12719,-0.60462 c 0.29209,0.0563 0.73067,-0.11828 0.97462,-0.38785 0.42396,-0.46846 0.40744,-0.48443 -0.37366,-0.36133 -0.48028,0.0757 -0.81722,0.0132 -0.81722,-0.15167 0,-0.15426 0.11907,-0.28047 0.26459,-0.28047 0.58328,0 0.21463,-0.68669 -0.55048,-1.02536 -0.58387,-0.25844 -0.73396,-0.44187 -0.52916,-0.64667 0.34579,-0.34579 0.37252,-0.70922 0.0522,-0.70922 -0.35464,0 -0.57946,1.14738 -0.26312,1.34289 0.15235,0.0942 0.004,0.24252 -0.32913,0.3297 -0.73475,0.19214 -0.96946,0.017 -0.54545,-0.407 0.38041,-0.3804 0.40629,-0.73642 0.0536,-0.73642 -0.14275,0 -0.33404,0.29683 -0.4251,0.65962 -0.0985,0.39261 -0.28801,0.58965 -0.46806,0.48675 -0.16638,-0.0951 -0.24297,-0.10418 -0.17021,-0.0202 0.0728,0.084 0.25135,0.17107 0.39687,0.19357 0.14552,0.0225 0.45879,0.21666 0.69616,0.43147 0.38092,0.34473 0.47935,0.34279 0.83864,-0.0165 0.4564,-0.45641 0.71824,-0.0982 0.51138,0.69957 -0.10815,0.41711 -0.19262,0.41952 -1.15854,0.033 -1.12444,-0.44991 -1.44634,-0.36024 -1.18178,0.32921 0.12931,0.33697 0.25153,0.36885 0.52954,0.13812 0.28356,-0.23533 0.3938,-0.17617 0.51168,0.27462 0.1429,0.54644 0.18212,0.5537 0.80096,0.14823 0.35788,-0.2345 0.88968,-0.38033 1.18176,-0.32408 z m -2.86209,-0.38757 c 0,-0.14552 0.12609,-0.26458 0.2802,-0.26458 0.15411,0 0.20661,0.11906 0.11668,0.26458 -0.0899,0.14552 -0.21603,0.26458 -0.2802,0.26458 -0.0642,0 -0.11668,-0.11906 -0.11668,-0.26458 z m -5.82083,0.26458 c 0,-0.14552 -0.0525,-0.26458 -0.11668,-0.26458 -0.0642,0 -0.19026,0.11906 -0.2802,0.26458 -0.0899,0.14552 -0.0374,0.26459 0.11668,0.26459 0.15411,0 0.2802,-0.11907 0.2802,-0.26459 z m 4.89567,-0.53059 c 0.0894,-0.14474 -0.0587,-0.26316 -0.32922,-0.26316 -0.27053,0 -0.61887,-0.127 -0.77409,-0.28222 -0.25726,-0.25726 -0.29422,0.0916 -0.12196,1.15143 0.0398,0.24487 0.98977,-0.225 1.22527,-0.60605 z m -3.06682,0.28597 c 0.31458,-0.19914 0.30143,-0.30872 -0.0832,-0.69332 -0.52915,-0.52915 -1.06583,-0.19587 -0.80002,0.49682 0.19151,0.49907 0.34962,0.53425 0.88318,0.1965 z m 0.92597,-0.81056 c -0.17219,-0.17219 -0.27598,-0.0684 -0.30403,0.30403 -0.0321,0.42588 0.0324,0.49041 0.26143,0.26143 0.20024,-0.20024 0.21478,-0.39327 0.0426,-0.56546 z m 10.55182,0.45987 c 0.78157,-0.36297 0.94163,-0.7276 0.3194,-0.7276 -0.21828,0 -0.39688,0.12428 -0.39688,0.27618 0,0.1519 -0.14882,0.25685 -0.33072,0.23323 -0.67277,-0.0874 -1.01889,0.0271 -0.8599,0.28434 0.21251,0.34385 0.40714,0.33369 1.2681,-0.0661 z m -1.82452,-0.41892 c 0.075,-0.12127 -0.0319,-0.22049 -0.23733,-0.22049 -0.20548,0 -0.31228,0.0992 -0.23733,0.22049 0.075,0.12126 0.18175,0.22048 0.23733,0.22048 0.0556,0 0.16238,-0.0992 0.23733,-0.22048 z m -6.85191,-0.57327 c 0.0899,-0.14552 -0.0291,-0.26458 -0.26459,-0.26458 -0.23545,0 -0.35452,0.11906 -0.26458,0.26458 0.0899,0.14552 0.209,0.26459 0.26458,0.26459 0.0556,0 0.17465,-0.11907 0.26459,-0.26459 z m 1.28192,-1.7312 c -0.0862,-0.22456 -0.21342,-0.35154 -0.28277,-0.28219 -0.0694,0.0694 -0.0476,0.25309 0.0483,0.40829 0.26089,0.42213 0.41338,0.34012 0.23447,-0.1261 z"
         id="path2701" />
      <path
         style="fill:#cabca5"
         d="m 123.03125,257.98272 c 0,-0.27434 -0.14883,-0.56354 -0.33073,-0.64265 -0.1819,-0.0791 -0.014,-0.0788 0.3731,6.7e-4 0.53432,0.1097 0.73466,0.0275 0.83185,-0.34123 0.11165,-0.42363 0.15322,-0.40676 0.32507,0.13194 0.14578,0.45699 0.25328,0.52669 0.4132,0.26792 0.1494,-0.24173 0.20286,-0.1731 0.17308,0.2222 -0.035,0.46396 -0.13265,0.52402 -0.51745,0.31808 -0.28583,-0.15297 -0.47437,-0.15626 -0.47437,-0.008 0,0.13507 -0.17859,0.31412 -0.39688,0.39788 -0.26629,0.10219 -0.39687,-0.0118 -0.39687,-0.34652 z"
         id="path2700" />
      <path
         style="fill:#cabca5"
         d="m 118.48372,258.3174 c 0.191,-0.0764 0.4192,-0.067 0.50712,0.0209 0.0879,0.0879 -0.0684,0.15046 -0.34726,0.13897 -0.30823,-0.0127 -0.37092,-0.0754 -0.15986,-0.15986 z"
         id="path2699" />
      <path
         style="fill:#cabca5"
         d="m 112.97708,258.2336 c 0,-0.14552 0.23813,-0.26458 0.52917,-0.26458 0.29104,0 0.52917,-0.12609 0.52917,-0.2802 0,-0.15411 -0.11907,-0.20661 -0.26459,-0.11668 -0.14552,0.0899 -0.26458,0.0502 -0.26458,-0.0884 0,-0.20111 0.58642,-0.57308 0.90346,-0.57308 0.0365,0 0.0448,0.26789 0.0185,0.59531 -0.0264,0.32742 0.0828,0.68278 0.24265,0.7897 0.15985,0.10691 -0.15585,0.19621 -0.70155,0.19843 -0.5457,0.002 -0.99219,-0.11501 -0.99219,-0.26053 z"
         id="path2698" />
      <path
         style="fill:#cabca5"
         d="m 111.91875,258.2336 c 0,-0.14552 0.14883,-0.2688 0.33073,-0.27396 0.1819,-0.005 0.0548,-0.16249 -0.2825,-0.34962 -0.6035,-0.33486 -0.59672,-0.3452 0.42757,-0.65209 1.34523,-0.40304 1.50843,-0.39298 1.12475,0.0693 -0.17398,0.20963 -0.51598,0.31117 -0.76,0.22564 -0.34777,-0.12189 -0.37665,-0.0829 -0.13362,0.18026 0.17053,0.18467 0.24709,0.49985 0.17013,0.7004 -0.1602,0.41746 -0.87706,0.49924 -0.87706,0.10005 z"
         id="path2697" />
      <path
         style="fill:#cabca5"
         d="m 110.71828,258.2495 c 0.22424,-0.36283 1.17489,-0.5217 1.04148,-0.17406 -0.0657,0.17113 -0.35699,0.32904 -0.64738,0.35092 -0.29039,0.0219 -0.46773,-0.0577 -0.3941,-0.17686 z"
         id="path2696" />
    </g>
  </g>
</svg>
