<?xml version="1.0" encoding="UTF-8" standalone="no"?>
<!-- Created with Inkscape (http://www.inkscape.org/) -->

<svg
   width="185"
   height="185"
   viewBox="0 0 48.947914 48.947918"
   version="1.1"
   id="svg1"
   sodipodi:docname="ranunculus-3.svg"
   inkscape:version="1.4 (e7c3feb100, 2024-10-09)"
   xmlns:inkscape="http://www.inkscape.org/namespaces/inkscape"
   xmlns:sodipodi="http://sodipodi.sourceforge.net/DTD/sodipodi-0.dtd"
   xmlns="http://www.w3.org/2000/svg"
   xmlns:svg="http://www.w3.org/2000/svg">
  <sodipodi:namedview
     id="namedview1"
     pagecolor="#ffffff"
     bordercolor="#666666"
     borderopacity="1.0"
     inkscape:showpageshadow="2"
     inkscape:pageopacity="0.0"
     inkscape:pagecheckerboard="0"
     inkscape:deskcolor="#d1d1d1"
     inkscape:document-units="mm"
     inkscape:zoom="1.8041143"
     inkscape:cx="93.674774"
     inkscape:cy="88.686177"
     inkscape:current-layer="layer1" />
  <defs
     id="defs1" />
  <g
     inkscape:label="Ebene 1"
     inkscape:groupmode="layer"
     id="layer1">
    <g
       id="g24437"
       style="display:inline;stroke-width:1.45642"
       transform="matrix(0.68661705,0,0,0.68661705,-27.982078,-16.581175)">
      <path
         style="fill:#fde3b6;stroke-width:1.45642"
         d="m 65.12913,94.932499 c -0.706192,-0.370011 -1.078403,-1.039873 -0.814804,-1.466385 0.277127,-0.448402 1.877208,-1.006476 2.936623,-1.024231 0.937162,-0.01571 0.958696,-0.03357 0.339227,-0.281353 -1.073386,-0.429352 -2.56364,-0.337533 -3.261612,0.200958 -0.352197,0.271722 -1.066734,0.8315 -1.58786,1.243949 -0.521126,0.412449 -1.47473,0.90858 -2.11912,1.102513 -1.01865,0.306569 -1.270655,0.297771 -1.930159,-0.06739 -0.515346,-0.285339 -1.483026,-0.426745 -3.01826,-0.441055 -2.705157,-0.02521 -3.693405,-0.490187 -3.693405,-1.737748 0,-0.842672 1.263734,-2.510522 2.104394,-2.777337 0.266368,-0.08454 0.53925,-0.363822 0.606405,-0.620623 0.239901,-0.917385 3.136332,-1.356445 5.689721,-0.862484 0.618464,0.119644 1.124479,0.128903 1.124479,0.02058 0,-0.345395 -1.388875,-0.742762 -3.704166,-1.059786 -3.101749,-0.424712 -3.96875,-0.816338 -3.96875,-1.792695 0,-1.289409 1.50646,-2.146381 2.328333,-1.324508 0.515342,0.515342 0.365394,-0.0093 -0.353066,-1.235214 -0.654197,-1.116303 -0.967601,-3.354852 -0.530468,-3.788974 0.104174,-0.103457 1.25046,0.380879 2.547304,1.076302 1.296843,0.695423 2.357897,1.135995 2.357897,0.979049 0,-0.156947 -0.164254,-0.606867 -0.365009,-0.999822 -0.73536,-1.439385 -0.775043,-2.337511 -0.12984,-2.938609 0.870994,-0.811454 1.837305,-0.705187 2.781758,0.305915 0.743595,0.796069 1.681841,2.482964 1.681841,3.023823 0,0.127529 0.176839,0.484345 0.392977,0.792925 0.335873,0.479526 0.533221,0.529423 1.358105,0.343382 1.184733,-0.267201 1.979439,0.01269 3.44433,1.213054 0.611244,0.500868 1.237735,0.910669 1.392201,0.910669 0.154467,0 0.639328,0.625078 1.077468,1.389063 0.727833,1.26912 0.796834,1.32405 0.799102,0.636156 0.0046,-1.405253 -1.585274,-2.951212 -5.331846,-5.184462 -0.823829,-0.491066 -1.627501,-1.177355 -1.785938,-1.525085 -0.465911,-1.022564 -0.353888,-2.658183 0.221465,-3.233536 0.30205,-0.30205 0.454169,-0.721238 0.373572,-1.02944 -0.104097,-0.398067 0.130354,-0.678719 1.000413,-1.19756 1.180652,-0.704056 1.182316,-0.695969 -0.22987,-1.117005 -0.594138,-0.17714 -0.347765,-1.125383 0.437719,-1.684697 0.916686,-0.652738 1.429242,-0.690287 1.887378,-0.138267 0.186653,0.224904 0.491916,0.350379 0.67836,0.278833 0.192629,-0.07392 0.667725,0.366216 1.100378,1.019403 l 0.761388,1.149486 0.289457,-0.766861 c 0.537784,-1.424751 2.546482,-0.752497 2.867699,0.959737 0.09468,0.504701 0.06004,1.697321 -0.07699,2.650267 -0.137024,0.952947 -0.156181,1.790078 -0.04257,1.860293 0.419107,0.259022 0.706397,-0.876279 0.821767,-3.247422 0.117948,-2.424145 0.451018,-3.346402 1.11634,-3.091094 0.188864,0.07247 0.414547,-0.05367 0.501519,-0.280311 0.357896,-0.932663 2.384329,-0.275748 2.911743,0.943909 0.16709,0.386398 0.200163,0.35136 1.372547,-1.454039 0.782076,-1.20435 2.212721,-1.293299 3.300795,-0.205224 0.663972,0.663972 0.761603,0.9259 0.622425,1.669864 -0.09079,0.485302 -0.469298,1.20979 -0.841131,1.609972 -0.757293,0.815029 -0.728587,0.845135 0.42304,0.443675 1.25096,-0.436087 1.910318,0.03495 1.910318,1.364711 0,1.959056 -0.889735,3.113748 -4.101041,5.322303 -1.604228,1.103297 -3.635902,2.794517 -3.785422,3.151086 -0.191691,0.45714 1.183957,-0.182395 1.640335,-0.762587 0.275687,-0.350479 1.095225,-1.106745 1.821196,-1.680592 1.295277,-1.023858 1.326991,-1.033302 1.696818,-0.5053 0.270603,0.386341 0.67106,0.538058 1.4202,0.538058 0.913664,0 1.043331,-0.07597 1.043331,-0.61129 0,-0.826126 1.172299,-3.765287 2.001681,-5.018568 0.835547,-1.262598 1.793886,-1.281657 2.61998,-0.05211 1.527986,2.274238 1.847615,2.549113 2.621851,2.254749 1.716612,-0.652654 3.879101,-0.05151 3.487329,0.969429 -0.08113,0.21142 -0.147508,0.540664 -0.147508,0.731654 0,0.19099 -0.369422,0.742721 -0.820936,1.226069 -0.451515,0.483348 -0.719406,0.912854 -0.595313,0.954458 0.124093,0.0416 0.642342,0.283806 1.151665,0.538229 1.806834,0.902567 1.048068,2.744511 -1.283612,3.116036 -1.5768,0.251244 -6.124721,1.712073 -6.124721,1.96731 0,0.504712 5.739143,0.840948 7.495271,0.439122 1.004266,-0.22979 1.012232,-0.225239 0.926042,0.529166 -0.05518,0.482952 -0.304424,0.856367 -0.682251,1.022128 -0.835385,0.366504 -0.740439,0.664864 0.211577,0.664864 1.418244,0 2.891624,1.038194 3.279294,2.310699 0.13276,0.435794 0.001,0.769436 -0.50009,1.271015 -0.374064,0.37406 -0.78995,0.612225 -0.924195,0.529256 -0.134246,-0.08297 -0.318869,-0.02985 -0.410272,0.118048 -0.259,0.41907 -2.066622,0.31601 -2.740897,-0.15627 -0.569695,-0.39903 -0.645748,-0.38878 -1.23706,0.166729 -0.487801,0.458265 -1.046963,0.621728 -2.476695,0.724025 l -1.846649,0.132127 -0.384811,-0.920982 c -0.211646,-0.506541 -0.725703,-1.153479 -1.14235,-1.437641 -1.141834,-0.778757 -2.914989,-1.491657 -3.314103,-1.332442 -0.194619,0.07764 -0.08055,0.15056 0.253487,0.162048 0.816268,0.02807 1.906202,1.16245 1.906202,1.983928 0,0.413522 -0.219682,0.781746 -0.58211,0.975712 -0.879581,0.470737 -21.363163,0.52989 -22.251851,0.06426 z"
         id="path24436" />
      <path
         style="fill:#fcc9b0;stroke-width:1.45642"
         d="m 65.57834,95.089719 c -0.734036,-0.274121 -1.509488,-1.226421 -1.289075,-1.583057 0.299223,-0.484152 1.863022,-1.046367 2.961684,-1.06478 0.937162,-0.01571 0.958696,-0.03357 0.339227,-0.281353 -1.24503,-0.498009 -2.592704,-0.342497 -3.509193,0.404936 -2.651384,2.162311 -4.533309,2.786862 -5.77559,1.916734 -0.467795,-0.327657 -1.016371,-0.389449 -2.471262,-0.278364 -2.310222,0.176391 -3.671203,-0.376924 -3.805852,-1.547292 -0.100316,-0.87194 0.714074,-2.109941 1.816277,-2.761029 0.42957,-0.253753 0.781037,-0.595182 0.781037,-0.758729 0,-0.826512 3.204057,-1.395362 5.490104,-0.974716 0.763984,0.140577 1.389062,0.165525 1.389062,0.05544 0,-0.337402 -0.809625,-0.567465 -3.759243,-1.068226 -1.558261,-0.264548 -3.076308,-0.611103 -3.373437,-0.770122 -0.712035,-0.381069 -0.710838,-1.621599 0.0022,-2.266878 0.466207,-0.421911 0.658933,-0.446907 1.371615,-0.1779 0.456056,0.172142 0.859647,0.282532 0.896868,0.245311 0.03722,-0.03722 -0.282349,-0.588849 -0.710157,-1.225839 -0.591298,-0.880422 -0.777831,-1.462121 -0.777831,-2.42565 0,-0.697118 0.101802,-1.330404 0.226226,-1.407303 0.124425,-0.0769 1.255518,0.38982 2.513542,1.037153 2.291698,1.179224 2.627907,1.155247 1.89044,-0.134817 -0.541079,-0.946518 -0.50465,-2.637976 0.06615,-3.071271 1.388274,-1.053851 3.320574,0.475039 4.272895,3.380835 0.435368,1.328427 0.805663,1.585669 1.85099,1.285874 1.067666,-0.306203 1.893383,-0.01274 3.371006,1.198059 0.611244,0.500868 1.210377,0.911483 1.331408,0.912477 0.209512,0.0017 1.015082,1.108607 1.635432,2.247151 0.257258,0.472152 0.289189,0.43516 0.296368,-0.343329 0.01051,-1.139403 -1.782142,-2.970064 -4.412984,-4.506559 -1.040538,-0.607707 -2.138356,-1.418255 -2.439595,-1.801219 -0.738061,-0.938292 -0.747856,-2.806037 -0.01854,-3.535351 0.291041,-0.291042 0.529166,-0.803421 0.529166,-1.13862 0,-0.426725 0.296558,-0.778934 0.989112,-1.174726 1.016562,-0.580962 1.022225,-0.563926 -0.327653,-0.985642 -0.59374,-0.18549 -0.479554,-0.882989 0.256176,-1.56484 0.693074,-0.642319 1.532698,-0.729173 2.049829,-0.212041 0.172353,0.172353 0.424732,0.313369 0.560842,0.313369 0.327671,0 1.369874,1.136377 1.611462,1.757074 0.164538,0.422738 0.242666,0.371004 0.555777,-0.368012 0.43193,-1.019456 1.406147,-1.166537 2.235225,-0.337459 0.752804,0.752804 0.902244,1.657226 0.619256,3.747783 -0.246807,1.823275 -0.07263,2.536945 0.396405,1.62417 0.132952,-0.258737 0.309722,-1.482462 0.392822,-2.719389 0.177314,-2.6393 0.341889,-3.175 0.975407,-3.175 0.257655,0 0.616682,-0.178594 0.79784,-0.396875 0.663655,-0.799656 1.952263,-0.423934 2.55703,0.745557 l 0.420793,0.813723 0.526948,-1.044223 c 0.785686,-1.556952 1.244905,-1.970266 2.189096,-1.970266 2.100134,0 2.988158,2.249581 1.558654,3.94845 -0.770094,0.915205 -0.764786,0.922977 0.36216,0.530121 1.190423,-0.414984 1.910318,0.04248 1.910318,1.213926 0,2.084628 -1.048123,3.448065 -4.365625,5.678963 -1.449927,0.975023 -3.383297,2.611456 -3.537032,2.993796 -0.260302,0.647372 1.16607,-0.272341 2.603051,-1.678426 1.697106,-1.660618 2.200767,-1.868862 2.676732,-1.106721 0.218876,0.350477 0.55082,0.44293 1.325159,0.369085 0.859026,-0.08192 1.033132,-0.196858 1.033132,-0.682025 0,-0.832836 1.20199,-3.788188 2.021942,-4.971378 0.838092,-1.209367 1.665619,-1.31277 2.456771,-0.306985 0.301603,0.383427 0.54837,0.809305 0.54837,0.946395 0,0.13709 0.336902,0.586156 0.748671,0.997925 0.697228,0.697228 0.820677,0.729452 1.796606,0.468961 1.247443,-0.332961 2.898825,-0.08014 3.112431,0.476512 0.216003,0.562895 -0.586909,2.433622 -1.257512,2.929912 -0.310056,0.229462 -0.444675,0.464582 -0.299155,0.52249 0.145521,0.05791 0.681302,0.313449 1.190625,0.567872 1.806834,0.902567 1.048068,2.744511 -1.283612,3.116036 -1.5768,0.251244 -6.124721,1.712073 -6.124721,1.96731 0,0.504712 5.739143,0.840948 7.495271,0.439122 1.004266,-0.22979 1.012232,-0.225239 0.926042,0.529166 -0.05518,0.482952 -0.304424,0.856367 -0.682251,1.022128 -0.864059,0.379084 -0.737234,0.574538 0.501314,0.77259 2.164591,0.346132 3.556914,1.989673 2.740764,3.235279 -0.2255,0.34416 -0.638359,0.625745 -0.917458,0.625745 -0.279099,0 -0.581037,0.119063 -0.670974,0.264583 -0.252908,0.409215 -1.929806,0.312537 -2.639002,-0.152145 -0.592563,-0.388263 -0.689451,-0.377218 -1.41836,0.161688 -1.407814,1.040842 -4.541596,1.038562 -4.541596,-0.0033 0,-0.659538 -1.384297,-1.759403 -3.201016,-2.543303 -1.447691,-0.624666 -3.165474,-0.89697 -2.355233,-0.373352 0.218281,0.141064 0.729708,0.258303 1.136505,0.260532 1.527886,0.0084 2.725754,2.263456 1.539534,2.898302 -0.577227,0.308922 -21.102832,0.558374 -21.885791,0.265982 z"
         id="path24423" />
      <path
         style="fill:#f7ae9a;stroke-width:1.45642"
         d="m 65.537879,95.074752 c -0.253684,-0.09482 -0.686036,-0.422336 -0.960781,-0.727824 -0.406862,-0.452388 -0.438364,-0.629142 -0.1698,-0.952741 0.381194,-0.459311 1.89981,-0.9283 3.050586,-0.942104 1.312537,-0.01574 0.101375,-0.53722 -1.313698,-0.565624 -0.939285,-0.01885 -1.398962,0.138566 -2.152485,0.737131 -2.715745,2.157267 -3.802244,2.561811 -5.249466,1.954575 -0.445142,-0.186776 -1.826224,-0.353122 -3.06907,-0.369657 -1.678963,-0.02234 -2.443952,-0.150629 -2.976563,-0.499184 -1.076097,-0.704226 -0.962393,-1.72759 0.341197,-3.07085 0.581922,-0.599631 1.177234,-1.090238 1.322917,-1.090238 0.145682,0 0.264877,-0.159482 0.264877,-0.354405 0,-0.880138 3.123742,-1.467186 5.490104,-1.031762 0.763984,0.140577 1.389062,0.165525 1.389062,0.05544 0,-0.337402 -0.809625,-0.567465 -3.759243,-1.068226 -1.558261,-0.264548 -3.076308,-0.611103 -3.373437,-0.770122 -0.68645,-0.367376 -0.718221,-1.614918 -0.05638,-2.213875 0.603895,-0.546517 1.08566,-0.553331 1.838525,-0.026 0.778771,0.545473 0.742196,0.23589 -0.118939,-1.006728 -0.739136,-1.066573 -1.18733,-3.682219 -0.684231,-3.993151 0.140888,-0.08707 1.285452,0.371319 2.543476,1.018652 2.291698,1.179224 2.627907,1.155247 1.89044,-0.134817 -0.541079,-0.946518 -0.50465,-2.637976 0.06615,-3.071271 1.362916,-1.034601 2.655791,-0.06098 4.1662,3.137417 0.974593,2.063769 1.141074,2.251776 1.601716,1.808813 0.256081,-0.246254 0.954182,-0.37272 1.754979,-0.317927 0.706208,0.04832 3.944052,2.783505 4.623243,3.905507 l 0.617296,1.019752 0.0014,-0.865807 c 0.0019,-1.199796 -1.509486,-2.774763 -4.195517,-4.372074 -1.173791,-0.698022 -2.376557,-1.577282 -2.672813,-1.95391 -0.729092,-0.926891 -0.73413,-2.799184 -0.0095,-3.523833 0.291041,-0.291042 0.529166,-0.803421 0.529166,-1.13862 0,-0.426725 0.296558,-0.778934 0.989112,-1.174726 0.785576,-0.448955 0.894465,-0.595768 0.529166,-0.713464 -0.252969,-0.0815 -0.646748,-0.207135 -0.875063,-0.279178 -0.293563,-0.09263 -0.361043,-0.301365 -0.230447,-0.712835 0.241842,-0.761978 1.182313,-1.510461 1.69526,-1.34919 1.124459,0.35353 2.092948,1.030874 2.662533,1.862129 l 0.632426,0.922965 0.226934,-0.680802 c 0.453695,-1.361087 2.228827,-1.114341 2.854769,0.396816 0.299465,0.722973 0.210831,2.788992 -0.187784,4.377204 -0.11003,0.438392 -0.03762,0.606367 0.26138,0.606367 0.454734,0 0.586519,-0.580929 0.820256,-3.615817 0.176738,-2.294802 0.327171,-2.734182 0.936118,-2.734182 0.257655,0 0.616682,-0.178594 0.79784,-0.396875 0.692254,-0.834116 1.954446,-0.365827 2.68296,0.995413 0.283652,0.530009 0.323945,0.506344 0.823501,-0.483652 0.288892,-0.57251 0.708136,-1.249287 0.931655,-1.503949 0.546802,-0.622988 1.791714,-0.584622 2.730935,0.08416 1.056112,0.752018 1.073516,2.223802 0.04084,3.453979 -0.558739,0.665602 -0.61444,0.823565 -0.240003,0.68063 1.707814,-0.651928 2.555107,-0.278661 2.555107,1.125627 0,1.909941 -1.003562,3.222516 -4.101041,5.363818 -2.050766,1.417704 -3.836458,2.902556 -3.836458,3.19012 0,0.513059 1.122053,-0.193307 2.658628,-1.673685 1.753572,-1.689439 2.144444,-1.848013 2.684181,-1.088951 0.479047,0.67371 2.330107,0.484203 2.330107,-0.23855 0,-0.76695 1.195141,-3.863438 1.886817,-4.888548 0.344698,-0.510866 0.899413,-0.999459 1.232698,-1.085761 0.686407,-0.177742 1.526432,0.440994 1.805347,1.329761 0.09673,0.30823 0.495491,0.888966 0.886136,1.290524 0.64609,0.664141 0.78695,0.703374 1.559016,0.43423 0.488401,-0.170257 1.35071,-0.220603 2.031035,-0.118582 1.033157,0.154931 1.182284,0.259754 1.182284,0.831039 0,0.921812 -0.654484,2.378355 -1.23198,2.741751 -0.268297,0.168828 -0.368749,0.359777 -0.223229,0.424331 1.796228,0.796814 2.116667,1.070485 2.116667,1.807737 0,0.988904 -0.985795,1.739672 -2.536448,1.931726 -1.390175,0.172178 -5.797927,1.647141 -5.797927,1.940157 0,0.583575 5.65011,0.877776 7.627945,0.397186 0.855855,-0.207962 0.878571,-0.192199 0.79375,0.550823 -0.05558,0.486901 -0.303689,0.859838 -0.682633,1.026089 -0.860988,0.377737 -0.737859,0.574438 0.481648,0.769445 1.321191,0.211267 2.276652,0.811014 2.741172,1.720647 0.41558,0.813791 0.13432,1.817525 -0.57063,2.036409 -0.258157,0.08016 -0.676121,0.256112 -0.928808,0.39101 -0.702118,0.37483 -2.000419,0.292649 -2.708738,-0.171459 -0.592563,-0.388263 -0.689451,-0.377218 -1.41836,0.161688 -1.274855,0.942541 -4.803692,1.055101 -4.453321,0.142048 0.318115,-0.828994 -3.73062,-3.347978 -5.31801,-3.308683 -0.642399,0.0159 -0.664144,0.04341 -0.194223,0.245708 0.291042,0.125291 0.859617,0.298855 1.263501,0.385698 1.511679,0.325041 2.397966,2.1787 1.316187,2.752789 -0.526796,0.279565 -21.255134,0.536595 -21.962192,0.27233 z"
         id="path24391" />
      <path
         style="fill:#d9a276;stroke-width:1.45642"
         d="m 65.537879,95.074752 c -0.253684,-0.09482 -0.686036,-0.422336 -0.960781,-0.727824 -0.406862,-0.452388 -0.438364,-0.629142 -0.1698,-0.952741 0.381194,-0.459311 1.89981,-0.9283 3.050586,-0.942104 1.312537,-0.01574 0.101375,-0.53722 -1.313698,-0.565624 -0.939285,-0.01885 -1.398962,0.138566 -2.152485,0.737131 -2.715745,2.157267 -3.802244,2.561811 -5.249466,1.954575 -0.445142,-0.186776 -1.826224,-0.353122 -3.06907,-0.369657 -1.678963,-0.02234 -2.443952,-0.150629 -2.976563,-0.499184 -1.076097,-0.704226 -0.962393,-1.72759 0.341197,-3.07085 0.581922,-0.599631 1.177234,-1.090238 1.322917,-1.090238 0.145682,0 0.264877,-0.159482 0.264877,-0.354405 0,-0.880138 3.123742,-1.467186 5.490104,-1.031762 0.763984,0.140577 1.389062,0.165525 1.389062,0.05544 0,-0.337402 -0.809625,-0.567465 -3.759243,-1.068226 -1.558261,-0.264548 -3.076308,-0.611103 -3.373437,-0.770122 -0.68645,-0.367376 -0.718221,-1.614918 -0.05638,-2.213875 0.603895,-0.546517 1.08566,-0.553331 1.838525,-0.026 0.778771,0.545473 0.742196,0.23589 -0.118939,-1.006728 -0.739136,-1.066573 -1.18733,-3.682219 -0.684231,-3.993151 0.140888,-0.08707 1.285452,0.371319 2.543476,1.018652 2.291698,1.179224 2.627907,1.155247 1.89044,-0.134817 -0.541079,-0.946518 -0.50465,-2.637976 0.06615,-3.071271 1.362916,-1.034601 2.655791,-0.06098 4.1662,3.137417 0.974593,2.063769 1.141074,2.251776 1.601716,1.808813 0.256081,-0.246254 0.954182,-0.37272 1.754979,-0.317927 0.706208,0.04832 3.944052,2.783505 4.623243,3.905507 l 0.617296,1.019752 0.0014,-0.865807 c 0.0019,-1.199796 -1.509486,-2.774763 -4.195517,-4.372074 -1.173791,-0.698022 -2.376557,-1.577282 -2.672813,-1.95391 -0.729092,-0.926891 -0.73413,-2.799184 -0.0095,-3.523833 0.291041,-0.291042 0.529166,-0.803421 0.529166,-1.13862 0,-0.426725 0.296558,-0.778934 0.989112,-1.174726 0.785576,-0.448955 0.894465,-0.595768 0.529166,-0.713464 -0.252969,-0.0815 -0.646748,-0.207135 -0.875063,-0.279178 -0.293563,-0.09263 -0.361043,-0.301365 -0.230447,-0.712835 0.241842,-0.761978 1.182313,-1.510461 1.69526,-1.34919 1.124459,0.35353 2.092948,1.030874 2.662533,1.862129 l 0.632426,0.922965 0.226934,-0.680802 c 0.453695,-1.361087 2.228827,-1.114341 2.854769,0.396816 0.299465,0.722973 0.210831,2.788992 -0.187784,4.377204 -0.11003,0.438392 -0.03762,0.606367 0.26138,0.606367 0.454734,0 0.586519,-0.580929 0.820256,-3.615817 0.183439,-2.381812 0.321658,-2.734182 1.072499,-2.734182 0.332664,0 0.673377,-0.178594 0.757139,-0.396875 0.351864,-0.916945 1.878067,-0.329763 2.58728,0.995413 0.283652,0.530009 0.323945,0.506344 0.823501,-0.483652 0.288892,-0.57251 0.708136,-1.249287 0.931655,-1.503949 0.546802,-0.622988 1.791714,-0.584622 2.730935,0.08416 1.056112,0.752018 1.073516,2.223802 0.04084,3.453979 -0.558739,0.665602 -0.61444,0.823565 -0.240003,0.68063 1.707814,-0.651928 2.555107,-0.278661 2.555107,1.125627 0,1.909941 -1.003562,3.222516 -4.101041,5.363818 -2.050766,1.417704 -3.836458,2.902556 -3.836458,3.19012 0,0.513059 1.122053,-0.193307 2.658628,-1.673685 1.753572,-1.689439 2.144444,-1.848013 2.684181,-1.088951 0.479047,0.67371 2.330107,0.484203 2.330107,-0.23855 0,-0.76695 1.195141,-3.863438 1.886817,-4.888548 0.344698,-0.510866 0.899413,-0.999459 1.232698,-1.085761 0.686407,-0.177742 1.526432,0.440994 1.805347,1.329761 0.09673,0.30823 0.495491,0.888966 0.886136,1.290524 0.64609,0.664141 0.78695,0.703374 1.559016,0.43423 0.488401,-0.170257 1.35071,-0.220603 2.031035,-0.118582 1.033157,0.154931 1.182284,0.259754 1.182284,0.831039 0,0.921812 -0.654484,2.378355 -1.23198,2.741751 -0.268297,0.168828 -0.368749,0.359777 -0.223229,0.424331 1.796228,0.796814 2.116667,1.070485 2.116667,1.807737 0,0.988904 -0.985795,1.739672 -2.536448,1.931726 -1.390175,0.172178 -5.797927,1.647141 -5.797927,1.940157 0,0.583575 5.65011,0.877776 7.627945,0.397186 0.855855,-0.207962 0.878571,-0.192199 0.79375,0.550823 -0.05558,0.486901 -0.303689,0.859838 -0.682633,1.026089 -0.860988,0.377737 -0.737859,0.574438 0.481648,0.769445 1.321191,0.211267 2.276652,0.811014 2.741172,1.720647 0.41558,0.813791 0.13432,1.817525 -0.57063,2.036409 -0.258157,0.08016 -0.676121,0.256112 -0.928808,0.39101 -0.702118,0.37483 -2.000419,0.292649 -2.708738,-0.171459 -0.592563,-0.388263 -0.689451,-0.377218 -1.41836,0.161688 -1.274855,0.942541 -4.803692,1.055101 -4.453321,0.142048 0.318115,-0.828994 -3.73062,-3.347978 -5.31801,-3.308683 -0.642399,0.0159 -0.664144,0.04341 -0.194223,0.245708 0.291042,0.125291 0.859617,0.298855 1.263501,0.385698 1.511679,0.325041 2.397966,2.1787 1.316187,2.752789 -0.526796,0.279565 -21.255134,0.536595 -21.962192,0.27233 z"
         id="path24357" />
      <path
         style="fill:#9fab92;stroke-width:1.45642"
         d="m 65.537879,95.074752 c -0.253684,-0.09482 -0.686036,-0.422336 -0.960781,-0.727824 -0.406862,-0.452388 -0.438364,-0.629142 -0.1698,-0.952741 0.381194,-0.459311 1.89981,-0.9283 3.050586,-0.942104 1.312537,-0.01574 0.101375,-0.53722 -1.313698,-0.565624 -0.939285,-0.01885 -1.398962,0.138566 -2.152485,0.737131 -2.715745,2.157267 -3.802244,2.561811 -5.249466,1.954575 -0.445142,-0.186776 -1.826224,-0.353122 -3.06907,-0.369657 -1.678963,-0.02234 -2.443952,-0.150629 -2.976563,-0.499184 -1.076097,-0.704226 -0.962393,-1.72759 0.341197,-3.07085 0.581922,-0.599631 1.177234,-1.090238 1.322917,-1.090238 0.145682,0 0.264877,-0.159482 0.264877,-0.354405 0,-0.880138 3.123742,-1.467186 5.490104,-1.031762 0.763984,0.140577 1.389062,0.165525 1.389062,0.05544 0,-0.337402 -0.809625,-0.567465 -3.759243,-1.068226 -1.558261,-0.264548 -3.076308,-0.611103 -3.373437,-0.770122 -0.68645,-0.367376 -0.718221,-1.614918 -0.05638,-2.213875 0.603895,-0.546517 1.08566,-0.553331 1.838525,-0.026 0.778771,0.545473 0.742196,0.23589 -0.118939,-1.006728 -0.739136,-1.066573 -1.18733,-3.682219 -0.684231,-3.993151 0.140888,-0.08707 1.285452,0.371319 2.543476,1.018652 2.291698,1.179224 2.627907,1.155247 1.89044,-0.134817 -0.541079,-0.946518 -0.50465,-2.637976 0.06615,-3.071271 1.362916,-1.034601 2.655791,-0.06098 4.1662,3.137417 0.974593,2.063769 1.141074,2.251776 1.601716,1.808813 0.256081,-0.246254 0.954182,-0.37272 1.754979,-0.317927 0.706208,0.04832 3.944052,2.783505 4.623243,3.905507 l 0.617296,1.019752 0.0014,-0.865807 c 0.0019,-1.199796 -1.509486,-2.774763 -4.195517,-4.372074 -1.173791,-0.698022 -2.376557,-1.577282 -2.672813,-1.95391 -0.729092,-0.926891 -0.73413,-2.799184 -0.0095,-3.523833 0.291041,-0.291042 0.529166,-0.803421 0.529166,-1.13862 0,-0.426725 0.296558,-0.778934 0.989112,-1.174726 0.785576,-0.448955 0.894465,-0.595768 0.529166,-0.713464 -0.252969,-0.0815 -0.646748,-0.207135 -0.875063,-0.279178 -0.293563,-0.09263 -0.361043,-0.301365 -0.230447,-0.712835 0.241842,-0.761978 1.182313,-1.510461 1.69526,-1.34919 1.124459,0.35353 2.092948,1.030874 2.662533,1.862129 l 0.632426,0.922965 0.226934,-0.680802 c 0.453695,-1.361087 2.228827,-1.114341 2.854769,0.396816 0.299465,0.722973 0.210831,2.788992 -0.187784,4.377204 -0.11003,0.438392 -0.03762,0.606367 0.26138,0.606367 0.454734,0 0.586519,-0.580929 0.820256,-3.615817 0.183439,-2.381812 0.321658,-2.734182 1.072499,-2.734182 0.332664,0 0.673377,-0.178594 0.757139,-0.396875 0.351864,-0.916945 1.878067,-0.329763 2.58728,0.995413 0.283652,0.530009 0.323945,0.506344 0.823501,-0.483652 0.288892,-0.57251 0.708136,-1.249287 0.931655,-1.503949 0.546802,-0.622988 1.791714,-0.584622 2.730935,0.08416 1.056112,0.752018 1.073516,2.223802 0.04084,3.453979 -0.558739,0.665602 -0.61444,0.823565 -0.240003,0.68063 1.707814,-0.651928 2.555107,-0.278661 2.555107,1.125627 0,1.909941 -1.003562,3.222516 -4.101041,5.363818 -2.050766,1.417704 -3.836458,2.902556 -3.836458,3.19012 0,0.513059 1.122053,-0.193307 2.658628,-1.673685 1.753572,-1.689439 2.144444,-1.848013 2.684181,-1.088951 0.479047,0.67371 2.330107,0.484203 2.330107,-0.23855 0,-0.76695 1.195141,-3.863438 1.886817,-4.888548 0.344698,-0.510866 0.899413,-0.999459 1.232698,-1.085761 0.686407,-0.177742 1.526432,0.440994 1.805347,1.329761 0.09673,0.30823 0.495491,0.888966 0.886136,1.290524 0.64609,0.664141 0.78695,0.703374 1.559016,0.43423 0.488401,-0.170257 1.35071,-0.220603 2.031035,-0.118582 1.033157,0.154931 1.182284,0.259754 1.182284,0.831039 0,0.921812 -0.654484,2.378355 -1.23198,2.741751 -0.268297,0.168828 -0.368749,0.359777 -0.223229,0.424331 1.796228,0.796814 2.116667,1.070485 2.116667,1.807737 0,0.988904 -0.985795,1.739672 -2.536448,1.931726 -1.390175,0.172178 -5.797927,1.647141 -5.797927,1.940157 0,0.583575 5.65011,0.877776 7.627945,0.397186 0.855855,-0.207962 0.878571,-0.192199 0.79375,0.550823 -0.05558,0.486901 -0.303689,0.859838 -0.682633,1.026089 -0.860988,0.377737 -0.737859,0.574438 0.481648,0.769445 1.321191,0.211267 2.276652,0.811014 2.741172,1.720647 0.41558,0.813791 0.13432,1.817525 -0.57063,2.036409 -0.258157,0.08016 -0.676121,0.256112 -0.928808,0.39101 -0.702118,0.37483 -2.000419,0.292649 -2.708738,-0.171459 -0.592563,-0.388263 -0.689451,-0.377218 -1.41836,0.161688 -1.274855,0.942541 -4.803692,1.055101 -4.453321,0.142048 0.318115,-0.828994 -3.73062,-3.347978 -5.31801,-3.308683 -0.642399,0.0159 -0.664144,0.04341 -0.194223,0.245708 0.291042,0.125291 0.859617,0.298855 1.263501,0.385698 1.511679,0.325041 2.397966,2.1787 1.316187,2.752789 -0.526796,0.279565 -21.255134,0.536595 -21.962192,0.27233 z"
         id="path24342" />
      <path
         style="fill:#6c896d;stroke-width:1.45642"
         d="m 90.332774,94.196485 c -0.6327,-0.675042 -1.84499,-1.580333 -2.693978,-2.011757 -1.502778,-0.763657 -3.379871,-1.052354 -3.379871,-0.519825 0,0.145521 0.411116,0.264583 0.913592,0.264583 1.791131,0 3.26173,1.310495 2.617271,2.332329 -0.454329,0.72037 -1.811496,0.811369 -12.340285,0.827423 l -10.000047,0.01525 -0.67259,-0.67259 c -0.891694,-0.891694 -0.527739,-1.322456 1.444579,-1.709747 2.270517,-0.445846 2.429743,-0.596069 0.861185,-0.812492 -1.676028,-0.231251 -2.379377,-0.01442 -3.849588,1.186772 -2.222083,1.815485 -3.429312,2.109078 -5.065789,1.231979 -0.739834,-0.396528 -1.107822,-0.453141 -1.637194,-0.251874 -0.969951,0.368775 -3.457325,0.0043 -4.055971,-0.594387 -0.827677,-0.827677 -0.591224,-1.508184 1.13908,-3.278243 2.066601,-2.114082 3.102918,-2.466668 6.016366,-2.046943 1.103958,0.159041 2.048099,0.248263 2.09809,0.198272 0.190981,-0.190981 -1.670338,-0.984998 -2.449036,-1.044732 -1.955912,-0.150037 -4.549246,-0.73622 -4.979417,-1.125519 -0.538288,-0.487145 -0.612257,-1.413066 -0.149828,-1.875495 0.408098,-0.408098 1.864491,-0.410926 2.271007,-0.0044 0.685166,0.685166 0.532165,-0.01814 -0.229159,-1.053375 -1.037923,-1.411355 -1.43489,-4.02463 -0.610426,-4.018494 0.27502,0.002 1.379159,0.482913 2.453642,1.06859 1.074483,0.585678 2.047305,1.030487 2.161828,0.988466 0.114522,-0.04202 -0.02046,-0.544146 -0.29996,-1.115834 -0.695794,-1.423172 -0.664791,-2.657327 0.07986,-3.178898 1.353707,-0.948173 2.456422,-0.13226 3.88494,2.874517 1.028906,2.165667 1.747772,2.914537 2.047636,2.133102 0.224381,-0.584726 1.583918,-0.477963 2.583737,0.202898 1.434612,0.976949 2.927901,2.425291 3.567403,3.460027 0.330314,0.534459 0.634404,0.971744 0.675756,0.971744 0.04135,0 -0.01706,-0.506016 -0.1298,-1.124479 -0.161819,-0.887685 -0.49502,-1.391428 -1.582286,-2.392154 -0.757516,-0.697221 -1.936145,-1.550862 -2.619177,-1.89698 -2.504833,-1.269295 -3.433208,-2.62859 -3.080253,-4.510001 0.16773,-0.894075 0.394159,-1.04564 1.472339,-0.985542 0.313615,0.01748 0.299739,-0.04928 -0.06615,-0.318217 -0.733061,-0.538828 -0.573764,-1.362556 0.336406,-1.739561 1.128537,-0.467456 1.212857,-0.763079 0.307656,-1.078634 -0.630543,-0.219809 -0.755362,-0.387386 -0.63539,-0.853051 0.185913,-0.721609 0.810848,-1.221527 1.54078,-1.232549 0.689542,-0.01041 3.01461,1.726992 3.01461,2.252663 0,0.211616 0.119063,0.384756 0.264584,0.384756 0.14552,0 0.264583,-0.160141 0.264583,-0.355868 0,-0.195728 0.238609,-0.571806 0.530241,-0.83573 0.433833,-0.392613 0.647769,-0.426313 1.176632,-0.185347 1.162865,0.529837 1.561442,1.469964 1.375882,3.245306 -0.0911,0.871564 -0.239578,1.879293 -0.329959,2.2394 -0.123205,0.49089 -0.05909,0.654738 0.256188,0.654738 0.498513,0 0.61641,-0.490323 0.798126,-3.319345 0.167874,-2.613527 0.317578,-3.030654 1.087681,-3.030654 0.332664,0 0.673377,-0.178594 0.757139,-0.396875 0.265743,-0.692515 1.255268,-0.432784 2.174475,0.570757 l 0.886317,0.967631 0.280436,-0.737604 c 0.154241,-0.405683 0.523704,-1.079242 0.821031,-1.496799 0.693457,-0.973871 1.913517,-1.016055 2.951956,-0.102065 1.018996,0.896876 0.987564,2.115321 -0.08486,3.289471 l -0.812461,0.88953 0.762851,-0.15257 c 0.419568,-0.08391 0.874473,-0.174111 1.010898,-0.200439 1.260051,-0.243168 1.689103,0.688886 1.170225,2.542139 -0.377623,1.348735 -1.295071,2.351154 -3.568011,3.898464 -1.844672,1.255765 -4.100724,3.142682 -4.100912,3.429922 -4.12e-4,0.629892 1.101834,-0.01969 2.581505,-1.521355 1.793747,-1.820404 2.260596,-2.030404 2.697775,-1.213527 0.19698,0.36806 0.50649,0.486688 1.133788,0.434553 1.264696,-0.105109 1.259719,-0.102477 1.259719,-0.666309 0,-0.740061 1.028675,-3.402925 1.770846,-4.584073 0.346376,-0.55125 0.937059,-1.142281 1.312629,-1.313401 0.601432,-0.274031 0.743821,-0.235838 1.194162,0.320309 0.281219,0.347291 0.648142,1.143046 0.815384,1.768344 0.365533,1.366687 0.715043,1.541638 1.999372,1.000806 1.398833,-0.58905 3.119715,-0.308657 3.333504,0.543147 0.204694,0.815567 -0.243101,1.997772 -0.98063,2.588917 -0.576717,0.462252 -0.57717,0.468998 -0.05256,0.783492 0.291041,0.174474 0.695549,0.343649 0.898906,0.375944 0.70776,0.112399 1.161141,0.814899 0.983279,1.523558 -0.221973,0.884412 -1.182736,1.496695 -2.599709,1.656765 -1.592133,0.179857 -6.090918,1.720533 -5.818737,1.992714 0.633072,0.633072 5.084245,1.018855 6.796666,0.589067 0.725307,-0.182039 1.409916,-0.27463 1.521355,-0.205757 0.450621,0.278499 0.168528,1.179202 -0.458844,1.465051 -0.780947,0.355824 -0.866998,0.745608 -0.164603,0.745608 0.731546,0 2.348612,0.7288 2.948829,1.329016 0.29128,0.291282 0.52307,0.878967 0.52307,1.32622 0,0.702039 -0.15266,0.868589 -1.212565,1.322917 -1.490844,0.63905 -2.216122,0.653258 -3.243647,0.06354 -0.760828,-0.436655 -0.819035,-0.434404 -1.357051,0.05249 -0.30917,0.279795 -0.705244,0.534084 -0.880163,0.565085 -2.619323,0.46423 -2.402525,0.512203 -3.636895,-0.804773 z"
         id="path24331" />
      <path
         style="fill:#467055;stroke-width:1.45642"
         d="m 90.419742,94.169184 c -1.657722,-1.844823 -5.72805,-3.590386 -6.076674,-2.605986 -0.06313,0.178261 0.377606,0.349515 1.112761,0.432377 1.303569,0.146931 2.507262,1.010945 2.507262,1.799718 0,1.137497 -0.337673,1.173652 -11.598131,1.241809 -9.219514,0.0558 -10.809525,0.0086 -11.336658,-0.336829 -1.3688,-0.896872 -0.511401,-1.766018 2.098853,-2.127608 0.691224,-0.09575 1.256771,-0.263247 1.256771,-0.372209 0,-0.108962 -0.669446,-0.276794 -1.487657,-0.372958 -1.290233,-0.151642 -1.635378,-0.08828 -2.600781,0.477489 -0.612218,0.358783 -1.27426,0.846492 -1.471205,1.083796 -0.499658,0.602051 -2.235422,1.45112 -2.966547,1.45112 -0.335374,0 -1.037723,-0.229369 -1.560775,-0.509708 -0.767733,-0.41148 -1.149394,-0.463225 -1.980457,-0.268509 -1.421258,0.332997 -3.716648,-0.145002 -4.09548,-0.852856 -0.157443,-0.294184 -0.218168,-0.806181 -0.134944,-1.137769 0.192993,-0.768948 2.120419,-2.522825 2.772462,-2.522825 0.272804,0 0.659414,-0.198086 0.859133,-0.440192 0.330918,-0.401149 0.307609,-0.410604 -0.262799,-0.106599 -0.473473,0.252342 -0.600103,0.256126 -0.519905,0.01553 0.139905,-0.419717 1.976195,-1.047237 3.079188,-1.052259 0.481264,-0.0022 1.396799,0.127401 2.034522,0.287981 0.637724,0.160581 1.302018,0.244458 1.476209,0.186395 0.531916,-0.177305 -1.05215,-1.040283 -2.091247,-1.139283 -4.733569,-0.450994 -6.177423,-1.208719 -5.327907,-2.796054 0.335652,-0.627172 1.884523,-0.702199 2.37194,-0.114897 0.181158,0.218281 0.44503,0.396875 0.586383,0.396875 0.141353,0 -0.177637,-0.604992 -0.708868,-1.344427 -0.675054,-0.939625 -1.012084,-1.734593 -1.119346,-2.640249 -0.214159,-1.808241 0.207858,-1.880253 2.803374,-0.478362 1.16215,0.6277 2.179712,1.07456 2.261251,0.993022 0.08154,-0.08154 -0.04315,-0.53192 -0.277081,-1.000848 -0.233932,-0.468928 -0.486076,-1.305484 -0.56032,-1.859013 -0.112716,-0.840364 -0.03301,-1.077841 0.483056,-1.439311 1.390535,-0.973969 2.44246,-0.199079 3.914037,2.88324 1.100558,2.305193 1.746118,2.939038 2.188414,2.148699 0.35491,-0.634189 1.266993,-0.538263 2.472368,0.260023 1.54217,1.021336 2.731931,2.187782 3.606231,3.535559 l 0.772355,1.190625 -0.167899,-1.058333 c -0.09234,-0.582084 -0.423747,-1.430318 -0.736449,-1.884965 -0.666396,-0.968896 -2.597067,-2.487632 -3.779281,-2.972919 -1.163585,-0.477641 -2.676007,-1.929243 -2.88733,-2.771222 -0.09784,-0.389811 -0.09718,-1.138952 0.0015,-1.664758 0.17208,-0.917266 0.216151,-0.950038 1.087452,-0.808645 1.000639,0.162381 1.206276,-0.170338 0.378938,-0.613116 -0.291042,-0.155761 -0.529167,-0.450855 -0.529167,-0.655764 0,-0.51122 1.039026,-1.196319 1.814345,-1.196319 h 0.638268 L 68.04718,72.879483 c -0.369999,-0.291041 -0.802774,-0.529166 -0.961723,-0.529166 -0.455133,0 -0.337224,-0.93437 0.174025,-1.379059 0.254661,-0.221507 0.701145,-0.401041 0.992187,-0.398966 0.781465,0.0056 2.711224,1.475452 2.8942,2.204486 0.213462,0.850498 0.467797,0.787404 0.942258,-0.23375 0.49216,-1.059246 1.416759,-1.063637 2.343832,-0.01113 0.56359,0.639845 0.606482,0.863994 0.442783,2.313967 -0.09969,0.883022 -0.246564,1.932916 -0.326384,2.333098 -0.11909,0.597067 -0.05141,0.727604 0.377248,0.727604 0.476101,0 0.536041,-0.240237 0.676652,-2.711979 0.190087,-3.341455 0.29416,-3.63802 1.276676,-3.63802 0.504005,0 0.765443,-0.135554 0.765443,-0.396875 0,-0.617132 1.009323,-0.469939 1.731818,0.252557 0.357188,0.357187 0.649432,0.773906 0.649432,0.926041 0,0.648014 0.535922,0.188752 1.1017,-0.944109 0.88371,-1.769458 2.207258,-2.068917 3.594654,-0.813306 0.832709,0.753613 0.761874,1.825909 -0.192416,2.912785 -0.83082,0.946251 -0.810609,1.403925 0.04185,0.947703 0.279105,-0.149373 0.821131,-0.234481 1.204503,-0.189129 0.940903,0.111306 1.226565,1.194251 0.70498,2.672581 -0.493335,1.39826 -1.092273,2.036965 -3.544856,3.780221 -1.091406,0.775754 -2.520156,1.887126 -3.174999,2.469715 -1.125412,1.001235 -1.153927,1.059871 -0.520606,1.070534 0.473549,0.008 1.089991,-0.420817 2.10225,-1.462303 0.787727,-0.810471 1.649539,-1.589883 1.915136,-1.732027 0.559712,-0.299548 1.001136,-0.104175 1.001136,0.443101 0,0.254582 0.285711,0.379914 0.859896,0.377209 1.150289,-0.0054 1.413646,-0.221972 1.617092,-1.329691 0.266877,-1.45309 1.909927,-4.666744 2.625783,-5.135791 0.353925,-0.231901 0.839431,-0.346452 1.078902,-0.254558 0.612818,0.23516 1.289875,1.785566 1.322462,3.02833 0.02806,1.07021 0.133152,1.220719 0.578885,0.829076 0.620886,-0.54554 2.711554,-1.099504 3.531014,-0.935612 0.606589,0.121318 0.759154,0.23932 0.511994,0.396004 -0.272797,0.172936 -0.25278,0.224103 0.0889,0.227242 0.901671,0.0083 0.776069,1.525686 -0.203111,2.453795 -0.344077,0.32613 -0.627651,0.686493 -0.630165,0.800805 -0.0025,0.114312 0.53121,0.437502 1.186054,0.718201 0.866783,0.371547 1.190625,0.660285 1.190625,1.061564 0,0.904153 -1.175427,1.761114 -2.69142,1.962218 -1.232441,0.163489 -5.675025,1.550301 -5.996662,1.871939 -0.199429,0.199428 0.165057,0.479343 0.684565,0.525728 0.254591,0.02273 0.701017,0.117771 0.992059,0.2112 1.199462,0.385047 4.154271,0.411437 5.362241,0.04789 0.704238,-0.211944 1.340835,-0.273922 1.471495,-0.143261 0.383378,0.383378 -0.05245,1.240028 -0.819552,1.610888 l -0.722518,0.349306 0.926042,0.173572 c 1.241782,0.232753 3.0705,1.199997 3.27466,1.732032 0.4469,1.164619 0.18907,1.717877 -1.047638,2.247992 -1.259097,0.539712 -2.756189,0.693899 -2.756189,0.283863 0,-0.442112 -1.365219,-0.60073 -1.817051,-0.211113 -0.375131,0.323478 -2.47949,0.97618 -3.147273,0.97618 -0.127644,0 -0.717268,-0.539948 -1.310275,-1.199885 z"
         id="path24320" />
      <path
         style="fill:#356348;stroke-width:1.45642"
         d="m 68.119342,72.928624 c 0,-0.167001 -0.297656,-0.378346 -0.661458,-0.469655 -0.783532,-0.196654 -0.848277,-0.715581 -0.173474,-1.390383 0.637667,-0.637668 2.422432,-0.428349 2.422432,0.284105 0,0.180513 -0.108522,0.179695 -0.330729,-0.0025 -0.535944,-0.439419 -1.407479,-0.482099 -1.877583,-0.09195 -0.532445,0.44189 -0.566482,0.827483 -0.07304,0.827483 0.44454,0 1.099729,0.740654 0.86385,0.976533 -0.0935,0.0935 -0.169995,0.03336 -0.169995,-0.133645 z"
         id="path24309" />
      <path
         style="fill:#356348;stroke-width:1.45642"
         d="m 83.465175,74.593094 c 0,-0.103698 0.357187,-0.595356 0.79375,-1.092573 0.436562,-0.497217 0.79375,-1.179327 0.79375,-1.515799 0,-0.974528 -0.852844,-1.751069 -1.923129,-1.751069 -0.790994,0 -1.020554,0.144972 -1.49032,0.941165 -0.305415,0.517641 -0.555301,1.112954 -0.555301,1.322917 0,0.717067 -1.164993,0.423451 -1.64134,-0.413672 -0.405595,-0.712785 -0.897602,-0.950381 -1.665951,-0.80451 -0.156113,0.02964 -0.146659,-0.07002 0.02306,-0.243083 0.423102,-0.431442 1.503377,0.06131 1.945492,0.887412 0.531453,0.993029 0.865259,0.852919 1.520313,-0.638131 0.567322,-1.291353 0.60079,-1.316681 1.739817,-1.316681 0.871865,0 1.304772,0.152648 1.736654,0.612365 0.82617,0.879418 0.720667,1.809393 -0.350754,3.091801 -0.509323,0.60962 -0.926042,1.023556 -0.926041,0.919858 z"
         id="path24308" />
      <path
         style="fill:#356348;stroke-width:1.45642"
         d="m 74.334957,76.31907 c 0.09622,-1.091406 0.222157,-2.134613 0.279857,-2.318239 0.332749,-1.058937 -1.28741,-2.349671 -2.101396,-1.674122 -0.501955,0.416585 -0.740541,1.815876 -0.413734,2.426521 0.182979,0.3419 0.183879,0.507507 0.0028,0.507507 -0.768492,0 -0.478949,-2.724623 0.363876,-3.424106 0.484179,-0.401832 1.596917,0.05173 2.132584,0.869263 0.364983,0.557034 0.382685,0.958704 0.131375,2.981078 -0.35919,2.890523 -0.63303,3.328381 -0.39532,0.632098 z"
         id="path24305" />
      <path
         style="fill:#356348;stroke-width:1.45642"
         d="m 93.45478,78.550814 c 1.138708,-0.520218 1.57011,-0.593006 2.381249,-0.401774 l 0.990604,0.233542 -1.265269,0.02658 c -0.695898,0.01462 -1.692704,0.205172 -2.215125,0.423453 -1.505919,0.629213 -1.424847,0.41873 0.108541,-0.281798 z"
         id="path24303" />
      <path
         style="fill:#356348;stroke-width:1.45642"
         d="m 84.432086,82.073758 c 0.06746,-0.109141 0.403544,-0.198438 0.746856,-0.198438 0.973691,0 1.461233,-0.276034 1.461233,-0.827315 0,-0.704435 1.205128,-3.59887 1.996038,-4.794016 1.26002,-1.904018 3.086326,-0.912814 2.997928,1.627086 l -0.03312,0.951537 -0.179813,-1.058333 c -0.354083,-2.084045 -1.424365,-2.912355 -2.307658,-1.785938 -0.615759,0.785246 -1.634333,3.125563 -1.828914,4.202191 -0.296118,1.638433 -0.52104,1.886262 -1.804666,1.988464 -0.643796,0.05126 -1.115346,0.0039 -1.047887,-0.105238 z"
         id="path24296" />
      <path
         style="fill:#356348;stroke-width:1.45642"
         d="m 65.076784,82.569606 c -0.273825,-0.200226 -0.981191,-1.357074 -1.571923,-2.570772 -0.59685,-1.226267 -1.390609,-2.434338 -1.786519,-2.719014 -0.682644,-0.49085 -0.741953,-0.492964 -1.417225,-0.05051 -0.78635,0.515237 -0.77545,1.227275 0.04526,2.956801 0.238646,0.502909 0.375004,0.973277 0.303019,1.045262 -0.208652,0.208652 -1.261307,-2.42895 -1.261307,-3.160412 0,-0.725092 0.861621,-1.487308 1.681276,-1.487308 0.502043,0 2.287474,1.666264 2.287474,2.134799 0,0.61865 1.667257,3.686034 2.003521,3.686034 0.207751,0 0.377729,0.119062 0.377729,0.264583 0,0.345093 -0.06715,0.334992 -0.661309,-0.09946 z"
         id="path24293" />
      <path
         style="fill:#356348;stroke-width:1.45642"
         d="m 56.248185,83.252923 c -0.992287,-1.546346 -1.393937,-3.660143 -0.742943,-3.909953 0.379467,-0.145615 4.780067,1.987912 4.558095,2.209884 -0.106011,0.106011 -1.412682,-0.48844 -3.056494,-1.390505 -0.654844,-0.359355 -1.296105,-0.656726 -1.425026,-0.660826 -0.519508,-0.01652 0.127357,2.454739 0.938018,3.583564 0.462366,0.643833 0.776409,1.23486 0.697873,1.313395 -0.07854,0.07854 -0.51482,-0.436966 -0.969523,-1.145559 z"
         id="path24287" />
      <path
         style="fill:#356348;stroke-width:1.45642"
         d="m 71.793861,85.910216 c -0.547269,-0.944968 -2.6843,-2.914472 -4.083728,-3.763595 -0.531761,-0.322653 -0.750828,-0.335075 -1.180209,-0.06692 -0.330261,0.206251 -0.527248,0.22648 -0.527248,0.05414 0,-0.392013 0.693116,-0.606037 1.389654,-0.429105 0.931433,0.236599 4.000861,2.959489 4.661813,4.135493 0.328336,0.584195 0.53338,1.062173 0.455654,1.062173 -0.07773,0 -0.399898,-0.446484 -0.715936,-0.992186 z"
         id="path24281" />
      <path
         style="fill:#356348;stroke-width:1.45642"
         d="m 54.987969,88.810307 c 0.07817,-0.126485 0.797153,-0.38711 1.597737,-0.579167 1.232661,-0.295711 1.730972,-0.289613 3.253475,0.03981 l 1.79787,0.389008 -2.645833,-0.01888 c -1.455208,-0.01039 -2.983231,0.07519 -3.395607,0.190159 -0.417213,0.116322 -0.686731,0.107039 -0.607642,-0.02093 z"
         id="path24278" />
      <path
         style="fill:#356348;stroke-width:1.45642"
         d="m 96.429758,89.849617 c 0,-0.119043 0.297656,-0.352063 0.661458,-0.517822 0.914869,-0.416842 0.866065,-0.953236 -0.06615,-0.726999 -1.339919,0.325183 -3.661887,0.46698 -3.278003,0.200179 0.19801,-0.137617 0.58049,-0.192559 0.849955,-0.122092 0.269464,0.07047 1.053342,-0.06385 1.741949,-0.298483 1.350162,-0.460046 1.837407,-0.28349 1.567192,0.567884 -0.162667,0.512519 -1.476405,1.310986 -1.476405,0.897333 z"
         id="path24277" />
      <path
         style="fill:#356348;stroke-width:1.45642"
         d="m 90.174139,93.808644 c -0.415712,-0.439119 -1.589277,-1.217936 -2.607923,-1.730704 -1.018645,-0.512768 -1.714689,-0.934533 -1.546763,-0.937255 0.966306,-0.01566 5.436445,2.940439 5.042367,3.334517 -0.07251,0.07251 -0.47197,-0.227438 -0.887681,-0.666558 z"
         id="path24272" />
      <path
         style="fill:#356348;stroke-width:1.45642"
         d="m 58.462051,94.417725 c -0.537227,-0.283533 -1.591659,-0.432644 -3.262692,-0.461391 -2.109234,-0.03628 -2.523624,-0.117299 -2.84427,-0.556063 -0.206431,-0.282475 -0.375329,-0.724817 -0.375329,-0.982981 0,-0.554755 1.420935,-2.24231 2.219098,-2.635484 0.307465,-0.151456 0.122651,0.120984 -0.410698,0.605423 -1.275515,1.158549 -1.647399,1.912667 -1.280905,2.597466 0.377248,0.704896 1.301657,0.900243 3.353409,0.708648 1.382895,-0.129137 1.886693,-0.06411 2.642751,0.341114 0.841444,0.450986 1.05101,0.465493 2.111962,0.146194 0.647804,-0.194961 1.601008,-0.691932 2.118231,-1.104382 2.168523,-1.729246 2.965744,-1.952106 4.988859,-1.394615 0.531103,0.146351 0.248551,0.171402 -0.853902,0.0757 -1.761613,-0.152914 -2.78856,0.245693 -3.926005,1.523869 -0.591145,0.664284 -2.384124,1.545123 -3.157592,1.551234 -0.291042,0.0023 -0.886354,-0.184332 -1.322917,-0.414737 z"
         id="path24268" />
      <path
         style="fill:#356348;stroke-width:1.45642"
         d="m 92.990174,94.843585 c 0.218282,-0.14309 0.625625,-0.261986 0.905209,-0.264214 0.279583,-0.0022 0.730382,-0.205003 1.001775,-0.450611 0.418394,-0.378641 0.625625,-0.398762 1.362535,-0.132292 1.152985,0.416925 2.107019,0.396458 3.221271,-0.06911 1.734206,-0.724596 0.947346,-2.234401 -1.595998,-3.062347 -1.271342,-0.413866 -1.379179,-0.486663 -0.541473,-0.365527 1.42426,0.205955 2.979087,1.038538 3.191957,1.70924 0.29915,0.94253 -0.0787,1.813519 -0.868576,2.002268 -0.397966,0.0951 -0.828772,0.232825 -0.957346,0.306065 -0.384976,0.219294 -2.015187,0.256651 -2.015187,0.04618 0,-0.411137 -1.387786,-0.540502 -1.817051,-0.16938 -0.237549,0.205375 -0.848626,0.449116 -1.357949,0.541647 -0.652176,0.118485 -0.808671,0.0913 -0.529167,-0.09192 z"
         id="path24263" />
      <path
         style="fill:#356348;stroke-width:1.45642"
         d="m 64.941035,94.572012 c -0.75518,-0.75518 -0.65038,-1.239964 0.334037,-1.545179 1.144273,-0.354779 3.283467,-0.673085 3.07881,-0.458119 -0.08929,0.09378 -0.854411,0.283151 -1.700282,0.42082 -1.964597,0.319746 -2.319925,0.654984 -1.448563,1.366661 0.612842,0.500532 0.914242,0.52734 4.431102,0.394122 2.075442,-0.07862 3.892895,-0.216711 4.038784,-0.306876 0.505032,-0.312127 0.261489,-1.401349 -0.594643,-2.659481 -0.674176,-0.990736 -1.30687,-1.495688 -2.929408,-2.337951 -2.1586,-1.120534 -2.420538,-1.156626 -6.794029,-0.936157 -0.88694,0.04471 -1.322518,-0.08481 -2.163274,-0.643238 -0.424703,-0.282089 -1.77305,-0.608796 -3.369255,-0.816376 -3.557499,-0.46264 -4.491508,-1.102248 -3.718578,-2.546479 0.366532,-0.684872 1.610313,-0.664944 2.408775,0.0386 l 0.624624,0.550368 -0.654184,-0.418076 c -0.778749,-0.497683 -1.632459,-0.539142 -2.071024,-0.100576 -0.931738,0.931737 0.187626,1.699869 3.094569,2.12356 1.693237,0.246792 2.282158,0.245894 2.682444,-0.0041 0.671225,-0.419187 1.337679,-0.405428 1.982552,0.04093 0.919002,0.636101 1.712517,0.783475 1.712517,0.318053 0,-0.324045 0.303669,-0.414439 1.389063,-0.413487 1.463248,0.0013 3.988136,0.868365 6.930756,2.380121 1.823923,0.937031 2.168764,0.742034 1.681838,-0.951026 -0.282593,-0.982588 -0.306844,-1.000891 -0.492855,-0.37198 -0.202596,0.684983 -0.218086,0.65956 -0.403017,-0.661458 -0.277463,-1.981996 -0.433611,-2.432388 -1.109152,-3.199229 -0.72459,-0.822517 -2.779286,-2.489313 -3.068633,-2.489313 -0.5041,0 -3.018449,-1.912376 -3.285788,-2.499122 -0.3917,-0.859688 -0.409629,-1.864792 -0.0454,-2.545355 0.286825,-0.535937 0.912679,-0.681853 1.166066,-0.271864 0.08155,0.13195 -0.08239,0.179589 -0.364313,0.105865 -0.416473,-0.10891 -0.545857,0.04331 -0.690031,0.811828 -0.21256,1.133042 0.543165,2.65627 1.348868,2.718758 0.282962,0.02195 1.020492,0.225023 1.638955,0.451284 0.618464,0.226261 1.124479,0.297602 1.124479,0.158537 0,-0.139066 0.711956,-0.252847 1.582123,-0.252847 1.559392,0 1.589594,0.01426 2.102151,0.992187 0.633536,1.208755 1.77397,2.629647 1.961732,2.444167 0.07545,-0.07454 0.187748,-2.57485 0.249541,-5.55625 0.06179,-2.981401 0.202064,-5.629088 0.31171,-5.88375 0.225976,-0.524842 1.072639,-0.620306 1.361157,-0.153474 0.128279,0.207561 0.04758,0.254393 -0.244933,0.142144 -0.506643,-0.194417 -0.977919,0.513252 -0.965066,1.449145 0.0079,0.575802 0.03028,0.583864 0.371474,0.133853 0.485155,-0.63989 0.775277,-0.164125 0.803116,1.317012 0.01496,0.795931 0.203797,1.312405 0.655748,1.793485 0.797385,0.848778 1.253535,0.852162 1.912684,0.01419 0.668998,-0.850493 1.011063,-0.839533 1.011063,0.0324 0,0.591035 0.05964,0.64436 0.402452,0.35985 0.25148,-0.20871 1.08031,-0.316899 2.209443,-0.288404 1.365094,0.03445 1.891823,-0.05661 2.153881,-0.372373 0.276303,-0.332925 0.391195,-0.34813 0.564629,-0.07472 0.133874,0.211043 0.219302,-0.08986 0.221793,-0.781226 0.0045,-1.238517 -0.294148,-1.383765 -1.764662,-0.858353 -0.70609,0.252285 -0.717306,0.244799 -0.215661,-0.143947 0.291041,-0.225541 0.885833,-0.375063 1.321759,-0.332272 0.646577,0.06347 0.819862,0.22403 0.940614,0.871551 0.25915,1.389664 -0.459782,2.932173 -1.956895,4.198629 -0.750097,0.63453 -1.840062,1.456529 -2.422145,1.826664 -0.582083,0.370135 -1.653646,1.214355 -2.38125,1.876046 -1.200526,1.09177 -1.263681,1.20417 -0.682641,1.21493 0.438949,0.0081 1.207827,-0.536069 2.445249,-1.7307 1.746983,-1.686569 2.324959,-1.948503 2.540478,-1.151324 0.08589,0.317717 0.05824,0.316136 -0.167966,-0.0096 -0.230168,-0.331445 -0.379577,-0.291754 -0.995972,0.264583 -1.642643,1.482594 -3.904597,3.842478 -3.856013,4.022956 0.02864,0.106388 -0.232622,0.379969 -0.580578,0.607959 -0.658455,0.431435 -1.745265,2.621091 -1.745265,3.516279 0,0.495564 1.110275,1.057415 1.25782,0.636517 0.207949,-0.593208 1.174424,-1.948678 1.299944,-1.823158 0.0814,0.0814 0.581,-0.01497 1.110222,-0.214147 0.529222,-0.199181 1.914722,-0.561787 3.078889,-0.805792 1.367637,-0.286651 2.816846,-0.832304 4.095289,-1.54195 1.088243,-0.604068 2.070509,-1.137993 2.182813,-1.1865 0.361945,-0.156333 0.217233,0.748363 -0.228526,1.428677 -0.237993,0.363224 -0.380268,0.712854 -0.316166,0.776955 0.0641,0.0641 1.053943,-0.233156 2.199648,-0.660573 1.145705,-0.427417 2.627433,-0.856228 3.292729,-0.952913 1.46349,-0.212684 2.541535,-0.727043 2.769631,-1.321451 0.194969,-0.508083 -0.261187,-1.166876 -0.807958,-1.166876 -0.205583,0 -0.67288,-0.195972 -1.038437,-0.435495 l -0.66465,-0.435495 0.70301,-0.733785 c 0.386655,-0.403581 0.796812,-1.130342 0.911459,-1.615025 0.190045,-0.803435 0.21084,-0.818792 0.235532,-0.173937 0.01551,0.405196 -0.263542,1.052692 -0.653337,1.515938 -0.791226,0.940318 -0.704318,1.199871 0.539172,1.61026 2.227435,0.73512 1.12371,2.609481 -1.78412,3.029818 -0.69515,0.100486 -2.222726,0.528937 -3.394612,0.952112 -1.171886,0.423175 -2.255118,0.74282 -2.407183,0.710322 -0.152065,-0.0325 -0.331052,0.08974 -0.39775,0.271641 -0.0667,0.181901 0.03748,0.338374 0.231511,0.347717 0.194028,0.0093 1.067153,0.186701 1.940278,0.394129 l 1.587499,0.377143 -1.587499,-0.165312 c -2.039213,-0.212349 -1.76681,-0.229103 -4.303297,0.264666 -1.202647,0.234114 -2.536187,0.606426 -2.963423,0.827358 -0.427237,0.220932 -0.950373,0.401695 -1.162525,0.401695 -0.212152,0 -0.946192,0.544705 -1.631199,1.210456 -1.382837,1.343964 -2.259592,1.797166 -2.584442,1.335922 -0.13791,-0.195813 -0.186737,-0.161836 -0.142927,0.09946 0.0366,0.218281 -0.08169,0.664766 -0.26286,0.992188 -0.181172,0.327422 -0.235917,0.60718 -0.121657,0.621686 0.114261,0.0145 -0.08991,0.11921 -0.453711,0.232677 -0.363802,0.113466 1.69839,0.184388 4.58265,0.157603 4.246716,-0.03944 5.290124,-0.121433 5.486052,-0.431115 0.311614,-0.492534 0.304431,-0.553028 -0.134428,-1.132122 -0.202205,-0.266818 -0.942559,-0.653163 -1.645231,-0.858545 l -1.277585,-0.373421 1.187653,0.14417 c 1.266491,0.15374 2.384221,0.959582 2.384221,1.718936 0,1.138549 -0.331753,1.173745 -11.685491,1.23974 -10.479215,0.06091 -10.82683,0.04671 -11.336565,-0.463021 z"
         id="path24262" />
      <path
         style="fill:#225336;stroke-width:1.45642"
         d="m 79.550265,72.08741 c -0.422154,-0.741884 -0.722794,-0.903471 -1.603416,-0.861798 -0.204775,0.0097 -0.259637,-0.08233 -0.127729,-0.214236 0.423963,-0.423963 1.387739,0.06227 1.923592,0.970477 0.291289,0.493699 0.468563,0.897634 0.393942,0.897634 -0.07462,0 -0.338496,-0.356434 -0.586389,-0.792077 z"
         id="path24162" />
      <path
         style="fill:#225336;stroke-width:1.45642"
         d="m 84.36118,73.4545 c 1.320509,-1.680861 0.62925,-3.333977 -1.326478,-3.172219 -0.867753,0.07177 -1.096493,0.234111 -1.609102,1.141998 -0.328654,0.582083 -0.599512,0.955482 -0.601906,0.829774 -0.0024,-0.125707 0.255697,-0.691254 0.573535,-1.256771 0.526076,-0.936025 0.676132,-1.028211 1.673671,-1.028211 2.158988,0 2.936445,1.913652 1.422572,3.501555 l -0.823786,0.86407 z"
         id="path24159" />
      <path
         style="fill:#225336;stroke-width:1.45642"
         d="m 74.769957,74.123095 c -0.05953,-0.786697 -0.791033,-1.988966 -1.289206,-2.118888 -0.413014,-0.107713 -0.415497,-0.125219 -0.02161,-0.152385 0.612405,-0.04224 1.603157,1.417044 1.461453,2.152578 -0.08117,0.421316 -0.125114,0.455943 -0.150634,0.118695 z"
         id="path24158" />
      <path
         style="fill:#225336;stroke-width:1.45642"
         d="m 74.395215,76.451362 c 0.0812,-0.873125 0.190621,-1.637109 0.243169,-1.697743 0.18497,-0.213432 0.04014,1.970409 -0.174001,2.623785 -0.134678,0.410914 -0.160877,0.06015 -0.06917,-0.926042 z"
         id="path24153" />
      <path
         style="fill:#225336;stroke-width:1.45642"
         d="m 86.918544,80.229216 c -0.01766,-0.58347 1.124378,-3.172125 1.84742,-4.187544 0.72839,-1.022929 1.631203,-1.027719 2.354111,-0.01249 0.30095,0.422647 0.547183,0.926805 0.547183,1.120351 0,0.193547 -0.221587,-0.06296 -0.492416,-0.57001 -0.330262,-0.618327 -0.712254,-0.94851 -1.16001,-1.00268 -0.791964,-0.09581 -1.539134,0.956664 -2.484732,3.500031 -0.328774,0.8843 -0.603974,1.402854 -0.611556,1.152342 z"
         id="path24144" />
      <path
         style="fill:#225336;stroke-width:1.45642"
         d="m 57.932885,80.552404 c -1.018646,-0.576057 -1.993368,-1.049841 -2.166049,-1.052855 -0.172681,-0.003 -0.361986,0.381474 -0.420678,0.854417 l -0.106712,0.859896 -0.04234,-0.8682 c -0.02672,-0.547964 0.100191,-0.922895 0.344086,-1.016486 0.3384,-0.129857 4.376071,1.870311 4.376071,2.167802 0,0.176012 -0.01789,0.167499 -1.984375,-0.944574 z"
         id="path24138" />
      <path
         style="fill:#225336;stroke-width:1.45642"
         d="m 64.594122,81.966071 c -0.09561,-0.09561 -0.657184,-1.172434 -1.247946,-2.392947 -1.191776,-2.462206 -1.881378,-3.032723 -3.032041,-2.508446 -0.82436,0.375604 -0.862705,1.298758 -0.12178,2.931808 0.290432,0.640131 0.482632,1.209302 0.42711,1.264823 -0.05552,0.05552 -0.362359,-0.506719 -0.681862,-1.249424 -0.732982,-1.703864 -0.642403,-2.624671 0.310386,-3.155302 1.193305,-0.664581 1.967712,-0.02091 3.42069,2.843209 1.183535,2.33299 1.315627,2.656464 0.925443,2.266279 z"
         id="path24136" />
      <path
         style="fill:#225336;stroke-width:1.45642"
         d="M 69.126906,83.154567 C 68.444139,82.563203 67.491639,81.986107 67.010239,81.872131 66.21264,81.683293 66.197428,81.6625 66.838813,81.63782 c 0.643826,-0.02477 3.046793,1.573151 3.522008,2.342064 0.273711,0.442874 0.08307,0.315364 -1.233915,-0.825317 z"
         id="path24130" />
      <path
         style="fill:#225336;stroke-width:1.45642"
         d="m 95.86635,85.314712 c 1.795217,-0.423961 2.403145,-1.820057 1.032293,-2.370644 -0.426206,-0.171181 -0.471917,-0.246337 -0.157055,-0.258227 0.526159,-0.01987 1.27567,0.667105 1.27567,1.169233 0,0.586629 -1.568643,1.726689 -2.335405,1.697329 -0.638812,-0.02446 -0.620947,-0.04748 0.184497,-0.237691 z"
         id="path24128" />
      <path
         style="fill:#225336;stroke-width:1.45642"
         d="m 90.608925,86.805607 c 0,-0.123568 2.506516,-0.966668 2.827839,-0.951181 0.311702,0.01502 -1.245508,0.66577 -2.100235,0.877672 -0.400183,0.09921 -0.727604,0.132292 -0.727604,0.07351 z"
         id="path24125" />
      <path
         style="fill:#225336;stroke-width:1.45642"
         d="m 56.394942,86.890844 c -2.151421,-0.361403 -3.02201,-1.26039 -2.294834,-2.369691 0.186179,-0.284013 0.21463,-0.15928 0.100047,0.438623 -0.211595,1.104126 0.360409,1.40556 3.468146,1.82764 1.495222,0.203074 1.938236,0.322279 1.190625,0.32037 -0.654843,-0.0017 -1.763636,-0.0993 -2.463984,-0.216942 z"
         id="path24123" />
      <path
         style="fill:#225336;stroke-width:1.45642"
         d="m 62.453471,87.934422 c -0.424094,-0.118668 -0.900344,-0.142204 -1.058333,-0.0523 -0.15799,0.0899 -0.19126,0.0583 -0.07393,-0.07023 0.287544,-0.315003 1.987258,-0.408066 2.166157,-0.118602 0.229855,0.371915 -0.204485,0.473217 -1.03389,0.241139 z"
         id="path24118" />
      <path
         style="fill:#225336;stroke-width:1.45642"
         d="m 54.994523,88.799702 c 0.201977,-0.326805 2.886023,-0.918193 3.480822,-0.766945 0.341756,0.0869 0.23687,0.141538 -0.310758,0.161871 -0.454647,0.01688 -1.332819,0.209286 -1.951494,0.427567 -1.301674,0.459257 -1.401707,0.473829 -1.21857,0.177507 z"
         id="path24116" />
      <path
         style="fill:#225336;stroke-width:1.45642"
         d="m 66.002676,91.664885 c -0.892765,-0.187919 -0.897518,-0.19505 -0.132292,-0.198449 0.436563,-0.0019 1.150938,0.08736 1.5875,0.198449 0.704306,0.179215 0.719213,0.201578 0.132292,0.198449 -0.363802,-0.0019 -1.078177,-0.09124 -1.5875,-0.198449 z"
         id="path24111" />
      <path
         style="fill:#225336;stroke-width:1.45642"
         d="m 73.27814,91.663085 c -0.09965,-0.313975 -0.902086,-1.036804 -1.783188,-1.606288 -1.478671,-0.955711 -2.326131,-1.281808 -5.442958,-2.094413 -1.340051,-0.349372 -1.355134,-0.922296 -0.02472,-0.939022 1.78948,-0.0225 6.589986,2.11399 6.589986,2.932903 0,0.212147 0.107415,0.385721 0.2387,0.385721 0.255747,0 0.895395,1.599933 0.712693,1.782635 -0.06013,0.06013 -0.19086,-0.147561 -0.290513,-0.461536 z"
         id="path24110" />
      <path
         style="fill:#225336;stroke-width:1.45642"
         d="m 100.08101,93.728653 c 0.48986,-0.489866 0.37792,-1.302388 -0.277815,-2.01646 l -0.595313,-0.648274 0.592189,0.308129 c 0.325699,0.169471 0.663879,0.593756 0.751499,0.942855 0.19339,0.77055 -0.0776,1.73125 -0.48839,1.73125 -0.213268,0 -0.208128,-0.09155 0.0178,-0.3175 z"
         id="path24103" />
      <path
         style="fill:#225336;stroke-width:1.45642"
         d="m 61.769343,93.99421 c 0.377646,-0.453832 2.802325,-2.329307 3.01141,-2.329307 0.133642,0 -0.26862,0.386953 -0.893915,0.859896 -1.413627,1.069199 -2.291242,1.678209 -2.117495,1.469411 z"
         id="path24102" />
      <path
         style="fill:#225336;stroke-width:1.45642"
         d="m 90.09522,93.665737 c -0.33327,-0.35475 -1.246993,-0.948522 -2.030495,-1.319493 -1.674372,-0.792777 -1.902475,-1.102265 -0.341435,-0.463255 0.947465,0.387843 3.537746,2.387861 3.130193,2.416896 -0.08378,0.006 -0.424993,-0.279399 -0.758263,-0.634148 z"
         id="path24100" />
      <path
         style="fill:#225336;stroke-width:1.45642"
         d="m 58.095871,94.206933 c -0.426649,-0.236494 -1.216329,-0.307739 -2.44029,-0.220165 -2.030308,0.145268 -3.298856,-0.228052 -3.558889,-1.047342 -0.09089,-0.286358 -0.09485,-0.591054 -0.0088,-0.677101 0.08605,-0.08605 0.156449,0.03924 0.156449,0.278423 0,0.88818 1.191988,1.318813 3.279617,1.184837 1.538242,-0.09872 2.131293,-0.0253 2.838203,0.35138 0.491501,0.261896 0.774576,0.476946 0.629055,0.477889 -0.145521,9.43e-4 -0.548427,-0.155622 -0.895347,-0.347921 z"
         id="path24094" />
      <path
         style="fill:#225336;stroke-width:1.45642"
         d="m 82.612273,94.91041 c 0.62231,-0.05589 1.57481,-0.05511 2.116666,0.0017 0.541857,0.05685 0.03269,0.102583 -1.131472,0.101622 -1.164167,-9.61e-4 -1.607504,-0.04748 -0.985194,-0.103369 z"
         id="path24086" />
      <path
         style="fill:#225336;stroke-width:1.45642"
         d="m 71.823509,94.83494 c -0.419191,-0.137391 -0.112758,-0.163844 0.836647,-0.07222 l 1.498106,0.144572 0.189351,-1.515516 c 0.235665,-1.886202 -0.02061,-4.618178 -0.596335,-6.357083 -0.399677,-1.207177 -0.454562,-1.265047 -0.627343,-0.661458 -0.172201,0.601567 -0.191733,0.580439 -0.215719,-0.233354 -0.05249,-1.780927 -1.67686,-3.454969 -5.402807,-5.568024 -1.882949,-1.067856 -2.520312,-2.147448 -2.145502,-3.634136 0.135242,-0.536436 0.424488,-1.023211 0.642769,-1.081722 0.313779,-0.08411 0.323428,-0.05475 0.04608,0.140211 -0.192935,0.135627 -0.413759,0.716056 -0.49072,1.289841 -0.116384,0.867711 -0.01844,1.187623 0.582086,1.901311 0.397108,0.471936 0.856057,0.81089 1.019887,0.753232 0.16383,-0.05766 0.937765,0.175472 1.719857,0.51807 1.648864,0.72229 2.082809,0.782808 1.620723,0.226029 -0.271595,-0.327252 -0.247551,-0.396875 0.137061,-0.396875 0.9461,0 2.758282,1.162255 3.566126,2.287157 1.491671,2.077115 1.599217,1.737361 1.519621,-4.800698 -0.06264,-5.144955 0.0697,-6.217708 0.767045,-6.217708 0.34664,0 0.344341,0.0536 -0.01783,0.415773 -0.23342,0.233421 -0.415774,0.860794 -0.415774,1.430439 0,0.85849 0.07565,0.99488 0.491511,0.886131 0.408083,-0.106716 0.517585,0.0659 0.645122,1.016957 0.112113,0.83604 0.379173,1.347048 0.988572,1.891591 0.735012,0.656788 0.887409,0.701196 1.273107,0.370974 1.065584,-0.912319 1.180914,-0.861742 0.986792,0.432753 -0.16803,1.120503 -0.136774,1.228298 0.356143,1.228298 0.35133,0 0.5967,-0.224564 0.701466,-0.641986 0.08862,-0.353092 0.395814,-0.854374 0.682652,-1.113958 0.44813,-0.405552 0.555915,-0.417601 0.765903,-0.08562 0.136618,0.21599 0.246165,0.252772 0.24843,0.08342 0.0035,-0.260985 0.765258,-0.452258 2.716031,-0.681973 0.359198,-0.0423 0.46302,-0.304842 0.46302,-1.170877 0,-1.011872 -0.0681,-1.127774 -0.727604,-1.238371 -0.69305,-0.116222 -0.689968,-0.120198 0.06489,-0.08372 0.659149,0.03185 0.817417,0.171853 0.940614,0.832046 0.227377,1.218466 -0.465576,2.94079 -1.539261,3.825812 -0.520224,0.428813 -1.047499,0.716844 -1.171722,0.64007 -0.124223,-0.07677 -0.193145,0.0032 -0.153159,0.177733 0.03999,0.174528 -0.0927,0.377417 -0.294857,0.450866 -0.246536,0.08957 -0.298413,0.02166 -0.157557,-0.206245 0.138725,-0.224462 0.10486,-0.274807 -0.09978,-0.148334 -0.170379,0.1053 -0.243915,0.298025 -0.163415,0.428277 0.0805,0.130253 -0.30451,0.527807 -0.85558,0.883455 -0.551069,0.355647 -1.597257,1.188014 -2.324861,1.849705 -1.200526,1.09177 -1.263681,1.20417 -0.682641,1.21493 0.438122,0.0081 1.202712,-0.53113 2.42167,-1.707936 0.979767,-0.945885 1.929898,-1.719791 2.111401,-1.719791 0.181504,0 -0.134341,0.340218 -0.701878,0.756041 -0.567537,0.415822 -1.483169,1.249259 -2.034737,1.852083 -0.551568,0.602823 -1.15672,1.096042 -1.344781,1.096042 -0.403083,0 -1.759705,1.664211 -2.226762,2.731639 -0.493499,1.127862 -0.865003,3.005679 -0.68661,3.470564 0.25738,0.670723 0.978403,0.474112 1.733964,-0.472824 0.524508,-0.65736 1.10781,-0.997848 2.266316,-1.322909 0.858013,-0.240746 1.842195,-0.43772 2.187071,-0.43772 0.344877,0 0.895972,-0.252641 1.224657,-0.561425 0.455224,-0.42766 0.963601,-0.569498 2.13372,-0.595312 0.84486,-0.01864 1.576,0.08517 1.624755,0.230696 0.04875,0.14552 0.202345,0.401583 0.341312,0.569028 0.182697,0.220136 -0.134935,0.354699 -1.146978,0.485911 -2.06574,0.267824 -6.02663,1.66499 -7.088187,2.500289 -0.509323,0.400767 -1.322374,0.933558 -1.806781,1.18398 -0.516864,0.267201 -1.034049,0.822234 -1.251817,1.343426 -0.204093,0.488463 -0.581666,0.952947 -0.839052,1.032186 -0.257386,0.07924 0.841712,0.104636 2.442442,0.05644 1.957332,-0.05894 2.56384,-0.0178 1.852083,0.125618 -1.367478,0.275544 -7.737854,0.256435 -8.598958,-0.02579 z"
         id="path24085" />
      <path
         style="fill:#225336;stroke-width:1.45642"
         d="m 64.994233,94.565009 c -0.318481,-0.296711 -0.579057,-0.701782 -0.579057,-0.900159 0,-0.399042 1.354002,-0.956558 2.222294,-0.91504 0.305707,0.01462 0.08164,0.137577 -0.497932,0.273242 -1.412731,0.330692 -1.66222,0.625443 -1.076875,1.272242 0.399932,0.44192 0.884307,0.540027 3.023227,0.612335 l 2.546994,0.0861 -2.529797,0.05537 c -2.225261,0.04871 -2.599504,-0.0096 -3.108854,-0.484099 z"
         id="path24084" />
      <path
         style="fill:#033214;stroke-width:1.45642"
         d="m 75.836736,73.263133 c -0.04267,-1.02793 0.296442,-1.706562 0.852759,-1.706562 0.14423,0 0.06696,0.148828 -0.17171,0.330729 -0.238671,0.181901 -0.479537,0.806979 -0.535259,1.389062 l -0.101313,1.058334 z"
         id="path23898" />
      <path
         style="fill:#033214;stroke-width:1.45642"
         d="m 83.729758,79.861499 c 0.654844,-0.565888 1.458516,-1.291366 1.785938,-1.612173 0.327422,-0.320807 0.595312,-0.488273 0.595312,-0.372146 0,0.116127 -0.565547,0.677311 -1.256771,1.247076 -1.767922,1.457271 -2.554353,1.972879 -1.124479,0.737243 z"
         id="path23891" />
      <path
         style="fill:#033214;stroke-width:1.45642"
         d="m 79.735649,82.76763 c 1.511527,-1.329064 2.335702,-1.763937 0.951401,-0.502003 -0.582083,0.53063 -1.296458,1.091191 -1.5875,1.245692 -0.291041,0.154502 -0.0048,-0.180158 0.636099,-0.743689 z"
         id="path23887" />
      <path
         style="fill:#033214;stroke-width:1.45642"
         d="m 72.036413,83.97955 c -0.392225,-0.556776 -1.422249,-1.466359 -2.288942,-2.021296 -2.436826,-1.56028 -2.634743,-1.714867 -1.495837,-1.168353 1.550189,0.743873 3.152026,1.975496 3.978384,3.058906 0.399089,0.523233 0.679247,0.994472 0.622574,1.047198 -0.05667,0.05272 -0.423953,-0.359679 -0.816179,-0.916455 z"
         id="path23886" />
      <path
         style="fill:#033214;stroke-width:1.45642"
         d="m 82.737571,94.911757 c 0.545703,-0.05708 1.438672,-0.05708 1.984375,0 0.545703,0.05708 0.09922,0.103786 -0.992188,0.103786 -1.091406,0 -1.53789,-0.0467 -0.992187,-0.103786 z"
         id="path23882" />
      <path
         style="fill:#033214;stroke-width:1.45642"
         d="m 74.535488,94.908257 c 0.982266,-0.05091 2.589609,-0.05091 3.571875,0 0.982265,0.05091 0.178593,0.09256 -1.785938,0.09256 -1.964531,0 -2.768203,-0.04165 -1.785937,-0.09256 z"
         id="path23881" />
      <path
         style="fill:#033214;stroke-width:1.45642"
         d="m 66.870555,94.909657 c 0.695615,-0.05468 1.767177,-0.05402 2.38125,0.0015 0.614073,0.05549 0.04493,0.10023 -1.264754,0.09942 -1.309688,-8.07e-4 -1.812111,-0.04621 -1.116496,-0.10089 z"
         id="path23880" />
    </g>
  </g>
</svg>
