<?xml version="1.0" encoding="UTF-8" standalone="no"?>
<!-- Created with Inkscape (http://www.inkscape.org/) -->

<svg
   width="185"
   height="185"
   viewBox="0 0 48.947914 48.947918"
   version="1.1"
   id="svg1"
   xmlns="http://www.w3.org/2000/svg"
   xmlns:svg="http://www.w3.org/2000/svg">
  <defs
     id="defs1" />
  <g
     id="g8650"
     transform="matrix(0.84378342,0,0,0.84378342,-90.425902,-99.223124)"
     style="stroke-width:1.18514">
    <path
       style="fill:#c4af59;stroke-width:1.18514"
       d="m 152.36385,149.33854 c -0.54223,-0.6988 -0.61972,-1.35389 -0.23043,-1.94803 0.31767,-0.48483 0.53572,-0.56577 1.11024,-0.41212 0.98382,0.26312 1.32778,0.88042 1.00497,1.80365 -0.28763,0.8226 -1.41907,1.15667 -1.88478,0.5565 z"
       id="path8640" />
    <path
       style="fill:#c4af59;stroke-width:1.18514"
       d="m 118.8505,161.07829 c -0.6153,-0.6799 -0.54473,-1.44019 0.19848,-2.1384 0.6115,-0.57448 0.66318,-0.58026 1.32291,-0.14799 0.78142,0.51201 0.88243,1.31452 0.27468,2.1822 -0.50016,0.71408 -1.20702,0.75509 -1.79607,0.10419 z"
       id="path8639" />
    <path
       style="fill:#c4af59;stroke-width:1.18514"
       d="m 115.0217,175.13085 c 0.2218,-1.15171 3.89902,-2.79419 9.09656,-4.06309 1.88236,-0.45956 3.64373,-0.9156 3.91415,-1.01344 0.40657,-0.14709 -0.017,-0.65065 -2.44739,-2.90931 -1.61649,-1.50229 -2.93907,-2.83722 -2.93907,-2.96653 0,-0.34235 1.2538,-0.28244 2.82081,0.13478 3.20857,0.8543 5.7964,2.55925 6.8478,4.51157 0.68362,1.26941 1.06022,1.20351 0.40966,-0.0717 -0.28369,-0.55609 -0.75503,-1.71695 -1.04741,-2.57969 -0.29238,-0.86273 -0.84173,-2.38864 -1.22077,-3.39089 -0.80258,-2.12221 -1.37629,-4.91618 -1.59874,-7.78589 l -0.15762,-2.0335 0.8154,0.92301 c 1.05554,1.19483 2.96167,4.89492 3.81985,7.41491 l 0.67457,1.98083 0.003,-2.64583 c 0.002,-1.45521 -0.11154,-4.61848 -0.25157,-7.02949 -0.31402,-5.40699 -0.84971,-7.42811 -2.32111,-8.75743 -2.19063,-1.9791 -4.1472,-1.94542 -5.62661,0.0968 -0.88516,1.22193 -0.95975,1.69829 -0.3927,2.50788 0.21634,0.30887 0.57662,1.25809 0.80062,2.10939 0.43501,1.65327 0.36014,3.19913 -0.29283,6.04573 -0.20028,0.87312 -0.3659,2.2196 -0.36805,2.99218 -0.003,0.94002 -0.0987,1.34609 -0.29045,1.22758 -0.50715,-0.31343 -2.17482,-3.11137 -2.48929,-4.1764 l -0.30483,-1.03239 -0.86315,1.08983 c -0.47474,0.5994 -0.98984,1.08982 -1.14467,1.08982 -0.2831,0 -0.13438,-3.86791 0.20346,-5.29166 0.0863,-0.36381 -0.13587,-0.0872 -0.49376,0.61463 -0.35789,0.70186 -0.93118,1.58077 -1.27399,1.95314 -0.76129,0.82695 -2.48387,1.65189 -3.4658,1.65975 l -0.72586,0.006 0.96283,-1.25677 c 0.52956,-0.69122 1.13643,-1.67349 1.34861,-2.18281 1.81482,-4.35631 3.49182,-6.35 5.3413,-6.35 0.36184,0 0.66128,-0.29327 0.91191,-0.89311 0.3982,-0.95302 2.49114,-2.72122 3.52946,-2.98182 0.34476,-0.0865 1.28036,-0.10313 2.0791,-0.0369 1.67017,0.1385 3.29489,1.1187 4.28184,2.58325 1.3676,2.02937 2.15412,6.86288 2.19665,13.4994 0.0107,1.67349 0.12183,3.28083 0.24689,3.57187 0.1748,0.40679 0.2348,0.2538 0.25943,-0.66145 0.0176,-0.65485 0.0851,-1.66688 0.15005,-2.24896 0.76839,-6.8911 2.04113,-23.65441 2.0691,-27.25208 l 0.035,-4.49792 -0.79375,-1.57568 c -0.96102,-1.90774 -1.79862,-2.55977 -3.49804,-2.72306 -1.1022,-0.10591 -1.40613,-0.0248 -2.10205,0.56075 -0.44746,0.37651 -0.96251,1.04417 -1.14456,1.48367 -0.21329,0.51492 -0.52047,0.79911 -0.86375,0.79911 -0.48745,0 -0.4756,0.045 0.13935,0.52868 1.67302,1.316 1.99205,5.13294 0.70743,8.46406 -0.44467,1.15308 -0.87697,2.51846 -0.96066,3.03418 -0.0837,0.51571 -0.24754,0.93766 -0.36411,0.93766 -0.34507,0 -1.28775,-1.46834 -1.70876,-2.66161 -0.52775,-1.4958 -0.49237,-2.615 0.12846,-4.06333 0.28587,-0.6669 0.48028,-1.21256 0.43203,-1.21256 -0.0482,0 -0.42046,0.50602 -0.82714,1.12448 -0.89155,1.35587 -2.80786,3.24236 -3.8311,3.7715 -0.40961,0.21181 -0.96362,0.65702 -1.23113,0.98935 -0.71145,0.88383 -1.96783,1.8026 -2.23727,1.63608 -0.52993,-0.32751 -0.16332,-1.26909 0.96292,-2.47313 0.93324,-0.99771 1.37026,-1.79339 1.98679,-3.61732 0.43471,-1.28605 1.09351,-2.81873 1.464,-3.40597 0.47537,-0.75347 0.51017,-0.87303 0.11824,-0.40624 -1.30502,1.55431 -2.3091,2.46717 -3.23105,2.93752 -1.09159,0.55689 -2.95418,0.65499 -4.09685,0.21578 l -0.74483,-0.28629 0.82909,-0.44132 c 0.45601,-0.24272 1.79439,-1.33193 2.97418,-2.42046 2.76378,-2.54998 3.9362,-3.18023 5.91608,-3.18023 0.83899,0 1.52544,-0.11871 1.52544,-0.26382 0,-0.55543 2.00909,-2.45265 3.27841,-3.09587 1.10612,-0.56051 1.57672,-0.65016 2.82079,-0.53735 4.11363,0.37301 5.99724,3.68968 5.75024,10.12503 l -0.12226,3.18528 1.10252,-1.11833 c 0.60638,-0.61509 1.42703,-1.19979 1.82367,-1.29934 2.06851,-0.51916 5.05468,0.66697 5.77478,2.29379 0.27125,0.6128 0.5063,0.76478 1.18276,0.76478 2.0394,0 3.53666,1.36238 5.25298,4.77979 0.6557,1.30557 1.62045,2.84781 2.14389,3.4272 l 0.95171,1.05343 h -1.23195 c -1.34205,0 -3.10415,-0.75629 -3.92229,-1.68344 -0.27446,-0.31104 -1.03441,-1.66685 -1.68876,-3.01292 -1.19105,-2.45009 -1.79573,-3.32132 -1.00999,-1.45521 1.89118,4.49155 2.86864,8.00902 2.31986,8.34818 -0.39354,0.24322 -0.73573,-0.11283 -1.92037,-1.99818 -0.6172,-0.98226 -1.14127,-1.78532 -1.1646,-1.78456 -0.0233,7.5e-4 -0.0709,0.50677 -0.10579,1.12448 -0.0348,0.61771 -0.19777,1.48029 -0.36205,1.91686 -1.21032,3.21635 -1.80145,3.7255 -2.12615,1.83129 -0.0978,-0.57065 -0.55721,-1.99004 -1.02088,-3.15421 -0.71652,-1.79902 -0.82745,-2.37476 -0.7392,-3.83646 0.10759,-1.78217 0.64136,-3.21476 1.56861,-4.21005 l 0.53788,-0.57735 -0.69704,-0.91387 c -0.38337,-0.50263 -1.06266,-1.10294 -1.50954,-1.33403 -1.73544,-0.89743 -3.86559,0.76469 -4.9473,3.8603 -0.58883,1.68508 -1.23223,8.31663 -2.41303,24.87083 -0.1505,2.11005 -0.34769,4.43177 -0.4382,5.15938 -0.26476,2.12852 0.17743,1.18158 0.70097,-1.5011 0.96358,-4.93758 3.51792,-10.38134 5.92821,-12.63408 l 0.68629,-0.64144 v 0.69028 c 0,2.04558 -1.73042,8.2403 -3.47171,12.42838 -0.70994,1.70749 -1.29079,3.17716 -1.29079,3.26592 0,0.0888 0.6085,-0.73933 1.35222,-1.8402 1.88125,-2.78467 5.21126,-6.26414 7.36599,-7.69659 1.83821,-1.22204 4.743,-2.64294 4.95982,-2.42613 0.3687,0.3687 -4.25314,6.26843 -7.80116,9.95808 -1.32937,1.38245 -2.42101,2.63261 -2.42585,2.77813 -0.005,0.14552 0.97288,0.55852 2.1727,0.91778 3.78845,1.13437 8.13461,3.47845 8.13461,4.38735 0,0.33128 -2.59285,0.38341 -19.0694,0.38341 -17.87777,0 -19.06393,-0.0284 -18.98193,-0.4542 z m 6.31528,-25.37937 c 0.14599,-0.38398 0.21634,-0.74725 0.15634,-0.80726 -0.06,-0.06 -0.23574,0.25417 -0.39052,0.69816 -0.34406,0.98698 -0.13637,1.08374 0.23418,0.1091 z"
       id="path8637" />
    <path
       style="fill:#8fa38f;stroke-width:1.18514"
       d="m 152.36385,149.33852 c -0.54223,-0.6988 -0.61972,-1.35389 -0.23043,-1.94803 0.31767,-0.48483 0.53572,-0.56577 1.11024,-0.41212 0.98382,0.26312 1.32778,0.88042 1.00497,1.80365 -0.28763,0.8226 -1.41907,1.15667 -1.88478,0.5565 z"
       id="path8626" />
    <path
       style="fill:#8fa38f;stroke-width:1.18514"
       d="m 126.18714,150.59737 c -0.0805,-0.20978 -0.0997,-0.59673 -0.0427,-0.8599 0.0647,-0.29877 0.15527,-0.15551 0.24114,0.38142 0.14409,0.90105 0.0504,1.12692 -0.1984,0.47848 z"
       id="path8625" />
    <path
       style="fill:#8fa38f;stroke-width:1.18514"
       d="m 126.14692,153.36004 c 0,-0.50932 0.0545,-0.71768 0.121,-0.46302 0.0665,0.25466 0.0665,0.67138 0,0.92604 -0.0666,0.25466 -0.121,0.0463 -0.121,-0.46302 z"
       id="path8623" />
    <path
       style="fill:#8fa38f;stroke-width:1.18514"
       d="m 128.7674,153.91435 c -0.0352,-0.88113 -0.0246,-0.89052 0.48689,-0.42766 0.28761,0.26028 0.44567,0.59825 0.35124,0.75104 -0.10053,0.16266 -0.24879,0.0657 -0.35767,-0.23379 -0.1673,-0.46024 -0.19895,-0.4452 -0.3152,0.14985 -0.10654,0.54528 -0.13556,0.50323 -0.16526,-0.23944 z"
       id="path8621" />
    <path
       style="fill:#8fa38f;stroke-width:1.18514"
       d="m 122.53256,154.53177 c -0.0973,-0.38775 -0.12592,-0.75603 -0.0636,-0.8184 0.0624,-0.0624 0.19302,0.20386 0.29034,0.59161 0.0973,0.38775 0.12592,0.75603 0.0636,0.81839 -0.0624,0.0624 -0.19302,-0.20385 -0.29033,-0.5916 z"
       id="path8620" />
    <path
       style="fill:#8fa38f;stroke-width:1.18514"
       d="m 130.60913,155.85773 c -0.30567,-0.51806 -0.43565,-0.8677 -0.28884,-0.77697 0.28671,0.1772 1.14554,1.71891 0.95755,1.71891 -0.0621,0 -0.36305,-0.42387 -0.66871,-0.94194 z"
       id="path8618" />
    <path
       style="fill:#8fa38f;stroke-width:1.18514"
       d="m 118.41262,160.00707 c 0,-0.27322 0.17703,-0.64369 0.3934,-0.82326 0.34268,-0.28441 0.3564,-0.22037 0.1064,0.49677 -0.32651,0.93664 -0.4998,1.04984 -0.4998,0.32649 z"
       id="path8613" />
    <path
       style="fill:#8fa38f;stroke-width:1.18514"
       d="m 146.72303,160.62582 c 0,-0.19174 3.70083,-2.5949 3.81608,-2.47801 0.0581,0.0589 -0.7768,0.66703 -1.85526,1.35142 -1.07845,0.68439 -1.96082,1.19135 -1.96082,1.12659 z"
       id="path8612" />
    <path
       style="fill:#8fa38f;stroke-width:1.18514"
       d="m 132.96906,161.17917 c -0.35032,-1.11703 -0.73274,-2.09017 -0.84982,-2.16253 -0.11708,-0.0724 -0.21288,-0.27009 -0.21288,-0.4394 0,-0.55405 0.68954,0.70198 1.30391,2.37515 0.33104,0.90157 0.55551,1.77838 0.49881,1.94847 -0.0567,0.1701 -0.38971,-0.60467 -0.74002,-1.72169 z"
       id="path8609" />
    <path
       style="fill:#8fa38f;stroke-width:1.18514"
       d="m 126.01939,164.81222 c -0.40019,-0.0606 -0.72761,-0.20487 -0.72761,-0.32054 0,-0.27115 1.28515,-0.0297 1.47473,0.27705 0.0792,0.12815 0.10721,0.21516 0.0622,0.19335 -0.045,-0.0218 -0.40918,-0.0892 -0.80936,-0.14986 z"
       id="path8608" />
    <path
       style="fill:#8fa38f;stroke-width:1.18514"
       d="m 146.31371,165.57167 c 0.57523,-0.60451 1.08681,-1.09911 1.13683,-1.09911 0.22218,0 -0.8947,1.26754 -1.50625,1.70943 -0.39869,0.28809 -0.247,0.0375 0.36942,-0.61032 z"
       id="path8605" />
    <path
       style="fill:#8fa38f;stroke-width:1.18514"
       d="m 130.45116,166.9466 c -0.79679,-0.71197 -0.85637,-0.81065 -0.24109,-0.39929 0.73142,0.489 1.65118,1.38043 1.39796,1.3549 -0.0542,-0.005 -0.57479,-0.43549 -1.15687,-0.95561 z"
       id="path8604" />
    <path
       style="fill:#8fa38f;stroke-width:1.18514"
       d="m 115.0217,175.13085 c 0.21173,-1.09943 3.75376,-2.72748 8.68258,-3.99084 5.20568,-1.33433 4.73655,-1.36495 6.72709,0.43896 1.41252,1.28008 1.93154,1.58755 2.82336,1.6726 0.73367,0.07 1.13618,-0.009 1.22502,-0.24061 0.0728,-0.18965 0.0603,-1.80143 -0.0277,-3.58172 -0.088,-1.78029 -0.22746,-4.90377 -0.30985,-6.94107 -0.58135,-14.3753 -0.82096,-15.9393 -2.70233,-17.639 -2.19063,-1.9791 -4.1472,-1.94542 -5.62661,0.0968 -0.87338,1.20567 -0.95807,1.69776 -0.42481,2.46819 0.19868,0.28704 0.44105,0.81955 0.53861,1.18335 0.10023,0.3738 -0.0592,0.20462 -0.36661,-0.38902 -0.90685,-1.75123 -1.0624,-1.72194 -1.0624,0.20001 0,1.68311 -0.33616,3.66807 -0.81615,4.81922 -0.13689,0.3283 -0.16075,0.0772 -0.0629,-0.66146 0.0868,-0.65484 0.2667,-1.40266 0.39979,-1.66181 0.13309,-0.25916 0.2187,-1.35108 0.19024,-2.4265 -0.0439,-1.65709 -0.12665,-1.97489 -0.54285,-2.08373 -0.88699,-0.23195 -0.61325,-1.46661 0.576,-2.59791 1.63721,-1.55744 2.45699,-1.8865 4.39279,-1.76323 1.90552,0.12133 3.47142,1.01624 4.53199,2.59003 1.3676,2.02937 2.15412,6.86288 2.19665,13.4994 0.0107,1.67349 0.12183,3.28083 0.24689,3.57187 0.1748,0.40679 0.2348,0.2538 0.25943,-0.66145 0.0176,-0.65485 0.0851,-1.66688 0.15005,-2.24896 0.76839,-6.8911 2.04113,-23.65441 2.0691,-27.25208 l 0.035,-4.49792 -0.79375,-1.57568 c -0.96102,-1.90774 -1.79862,-2.55977 -3.49804,-2.72306 -1.1022,-0.10591 -1.40613,-0.0248 -2.10205,0.56075 -0.44746,0.37651 -0.96251,1.04417 -1.14456,1.48367 -0.21329,0.51492 -0.52047,0.79911 -0.86375,0.79911 -0.48745,0 -0.4756,0.045 0.13935,0.52868 1.67302,1.316 1.99205,5.13294 0.70743,8.46406 -0.44467,1.15308 -0.87697,2.51846 -0.96066,3.03418 -0.0837,0.51571 -0.24754,0.93766 -0.36411,0.93766 -0.34507,0 -1.28775,-1.46834 -1.70876,-2.66161 -0.52775,-1.4958 -0.49237,-2.615 0.12846,-4.06333 0.28587,-0.6669 0.48028,-1.21256 0.43203,-1.21256 -0.0482,0 -0.42046,0.50602 -0.82714,1.12448 -0.89155,1.35587 -2.80786,3.24236 -3.8311,3.7715 -0.40961,0.21181 -0.96362,0.65702 -1.23113,0.98935 -0.71145,0.88383 -1.96783,1.8026 -2.23727,1.63608 -0.52993,-0.32751 -0.16332,-1.26909 0.96292,-2.47313 0.93324,-0.99771 1.37026,-1.79339 1.98679,-3.61732 0.43471,-1.28605 1.09351,-2.81873 1.464,-3.40597 0.47537,-0.75347 0.51017,-0.87303 0.11824,-0.40624 -1.30502,1.55431 -2.3091,2.46717 -3.23105,2.93752 -1.09159,0.55689 -2.95418,0.65499 -4.09685,0.21578 l -0.74483,-0.28629 0.82909,-0.44132 c 0.45601,-0.24272 1.79439,-1.33193 2.97418,-2.42046 2.76378,-2.54998 3.9362,-3.18023 5.91608,-3.18023 0.83899,0 1.52544,-0.11871 1.52544,-0.26382 0,-0.55543 2.00909,-2.45265 3.27841,-3.09587 1.10612,-0.56051 1.57672,-0.65016 2.82079,-0.53735 4.11363,0.37301 5.99724,3.68968 5.75024,10.12503 l -0.12226,3.18528 1.10252,-1.11833 c 0.60638,-0.61509 1.42703,-1.19979 1.82367,-1.29934 2.06851,-0.51916 5.05468,0.66697 5.77478,2.29379 0.27125,0.6128 0.5063,0.76478 1.18276,0.76478 2.0394,0 3.53666,1.36238 5.25298,4.77979 0.6557,1.30557 1.62045,2.84781 2.14389,3.4272 l 0.95171,1.05343 h -1.23195 c -1.34205,0 -3.10415,-0.75629 -3.92229,-1.68344 -0.27446,-0.31104 -1.03441,-1.66685 -1.68876,-3.01292 -1.19105,-2.45009 -1.79573,-3.32132 -1.00999,-1.45521 1.89118,4.49155 2.86864,8.00902 2.31986,8.34818 -0.39354,0.24322 -0.73573,-0.11283 -1.92037,-1.99818 -0.6172,-0.98226 -1.14127,-1.78532 -1.1646,-1.78456 -0.0233,7.5e-4 -0.0709,0.50677 -0.10579,1.12448 -0.0348,0.61771 -0.19777,1.48029 -0.36205,1.91686 -1.21032,3.21635 -1.80145,3.7255 -2.12615,1.83129 -0.0978,-0.57065 -0.55721,-1.99004 -1.02088,-3.15421 -0.71652,-1.79902 -0.82745,-2.37476 -0.7392,-3.83646 0.10759,-1.78217 0.64136,-3.21476 1.56861,-4.21005 l 0.53788,-0.57735 -0.69704,-0.91387 c -0.38337,-0.50263 -1.06266,-1.10294 -1.50954,-1.33403 -1.7355,-0.89746 -3.86704,0.76589 -4.94686,3.8603 -0.53062,1.52056 -1.10246,7.06181 -2.00687,19.44687 -0.22316,3.05594 -0.52746,7.10407 -0.67622,8.99584 -0.14876,1.89177 -0.29821,4.30305 -0.3321,5.35841 l -0.0616,1.91882 1.48905,-6e-4 1.48904,-5.9e-4 1.52642,-1.73861 c 0.83953,-0.95624 1.59821,-1.63997 1.68595,-1.51939 0.0877,0.12057 1.23111,0.56116 2.54079,0.97908 3.88933,1.24108 7.80521,3.38674 7.80521,4.27676 0,0.33128 -2.59285,0.38341 -19.0694,0.38341 -17.87777,0 -19.06393,-0.0284 -18.98193,-0.4542 z"
       id="path8601" />
    <path
       style="fill:#9d9c66;stroke-width:1.18514"
       d="m 146.77854,147.47313 c -0.15062,-0.1819 -0.66485,-1.28323 -1.14273,-2.44739 -0.71162,-1.73359 -0.87032,-2.47581 -0.87688,-4.10105 -0.009,-2.16078 0.46094,-3.39009 1.85898,-4.86572 0.39845,-0.42057 0.57454,-0.71471 0.39129,-0.65362 -0.18324,0.0611 -0.85601,-0.41179 -1.49504,-1.05082 -1.00081,-1.00081 -1.2818,-1.14503 -2.02702,-1.04034 -0.47583,0.0668 -1.05367,0.20433 -1.28407,0.30553 -0.2777,0.12197 -0.41893,0.0503 -0.41893,-0.21263 0,-0.21814 0.0992,-0.3353 0.22049,-0.26035 0.12127,0.075 0.22048,0.009 0.22048,-0.14706 0,-0.17985 0.36701,-0.22464 1.00496,-0.12262 0.74355,0.1189 1.09609,0.0509 1.35531,-0.26146 0.3074,-0.37039 0.25389,-0.42216 -0.4363,-0.42216 -0.98629,0 -2.44128,0.47945 -3.04844,1.00452 -0.28645,0.24771 -0.46303,0.28592 -0.46303,0.1002 0,-0.49744 2.02158,-1.3693 3.175,-1.3693 1.77644,0 4.59836,1.84116 4.08789,2.66713 -0.12879,0.20838 -0.0913,0.25729 0.10457,0.13626 0.168,-0.10383 0.30546,-0.0714 0.30546,0.072 0,0.14344 -0.20836,0.32023 -0.46302,0.39286 -0.25466,0.0726 0.0503,0.0745 0.67761,0.004 0.62735,-0.0703 1.52773,-9e-5 2.00086,0.15605 1.00744,0.33249 2.95023,2.21858 2.70087,2.62206 -0.16193,0.26202 1.55503,4.00359 1.83721,4.00359 0.0728,0 -0.29357,-0.84564 -0.81406,-1.8792 -0.52049,-1.03356 -0.89123,-1.93432 -0.82386,-2.00169 0.16569,-0.16569 2.16748,3.92737 2.12308,4.34106 -0.0194,0.18034 0.0531,0.2733 0.16106,0.20659 0.18477,-0.11419 1.06813,0.72114 1.40734,1.33083 0.0935,0.16804 -0.23071,0.30003 -0.82054,0.33405 -0.75559,0.0436 -0.88575,-0.008 -0.57822,-0.22771 0.30372,-0.21731 0.20742,-0.24692 -0.41029,-0.12617 -0.62918,0.12299 -1.04309,-0.0131 -1.87709,-0.61726 -1.15974,-0.84012 -2.86754,-3.55615 -2.6282,-4.17984 0.0938,-0.24442 0.036,-0.31456 -0.15949,-0.19371 -0.20657,0.12766 -0.24971,0.0414 -0.13229,-0.26458 0.10348,-0.26969 0.068,-0.38839 -0.0873,-0.29237 -0.14386,0.0889 -0.26156,-0.035 -0.26156,-0.27526 0,-0.2403 -0.25288,-0.75334 -0.56197,-1.14009 l -0.56198,-0.70319 0.19615,0.66145 c 0.10788,0.36381 0.48595,1.30345 0.84016,2.0881 0.3542,0.78465 0.66765,1.75531 0.69656,2.15703 0.0289,0.40172 0.12179,0.68784 0.20642,0.63581 0.25296,-0.15549 1.03675,2.62995 1.03675,3.68444 0,0.87587 -0.0521,0.95035 -0.49804,0.7117 -0.27392,-0.1466 -0.57022,-0.45463 -0.65843,-0.68451 -0.0926,-0.24125 -0.0498,-0.34962 0.10116,-0.25632 0.44471,0.27484 0.28787,-0.31261 -0.18611,-0.69708 -0.30418,-0.24674 -0.38398,-0.25712 -0.24897,-0.0324 0.10929,0.18191 0.14185,0.33073 0.0724,0.33073 -0.22774,0 -1.29175,-1.87634 -1.14641,-2.02168 0.078,-0.078 0.32491,0.19618 0.54875,0.60923 0.22385,0.41305 0.41097,0.63193 0.41584,0.48641 0.005,-0.14552 -0.22771,-0.62177 -0.51683,-1.05833 -0.28912,-0.43656 -0.52646,-0.63034 -0.52742,-0.43063 -10e-4,0.26047 -0.0952,0.28553 -0.33248,0.0887 -0.24665,-0.20471 -0.33653,-0.12887 -0.35358,0.29833 -0.0126,0.31505 -0.11309,0.81094 -0.22339,1.10198 -0.15989,0.42189 -0.14267,0.44871 0.0849,0.13229 0.44382,-0.61697 0.37255,0.43285 -0.11675,1.7198 -0.22132,0.58208 -0.47154,1.26669 -0.55605,1.52135 -0.17947,0.54082 -0.70399,0.6042 -1.09476,0.13229 z m -0.71705,-2.76226 c -0.23676,-0.40891 -0.34986,-0.50534 -0.25132,-0.2143 0.0985,0.29104 0.24604,0.76422 0.32779,1.05151 0.0818,0.28729 0.19485,0.38372 0.25133,0.2143 0.0565,-0.16943 -0.091,-0.6426 -0.3278,-1.05151 z m 5.92308,-3.78322 c -0.32623,-0.58045 -0.63635,-1.01218 -0.68914,-0.95938 -0.11369,0.11368 0.98011,2.01476 1.15921,2.01476 0.0677,0 -0.14384,-0.47492 -0.47007,-1.05538 z m -2.4707,-2.35962 c -0.5812,-1.12392 -0.76973,-1.03668 -0.2256,0.10438 0.24201,0.5075 0.48699,0.87575 0.5444,0.81834 0.0574,-0.0574 -0.0861,-0.47263 -0.3188,-0.92272 z m -3.1681,-1.16341 c 0.0889,-0.60581 -0.0712,-0.56472 -0.43287,0.1111 -0.23316,0.43565 -0.22568,0.53515 0.0337,0.44868 0.18331,-0.0611 0.36293,-0.313 0.39915,-0.55978 z m 6.32528,-0.19236 c -0.63945,-1.03465 -3.83135,-2.33546 -3.83135,-1.5614 0,0.16755 0.22869,0.20983 0.5623,0.10394 0.37538,-0.11914 0.50274,-0.0821 0.38313,0.11143 -0.11164,0.18065 -0.0269,0.23149 0.22473,0.13491 0.48415,-0.18578 2.14937,0.7895 2.38169,1.3949 0.0906,0.23617 0.23342,0.36074 0.31733,0.27683 0.0839,-0.0839 0.0669,-0.29118 -0.0378,-0.46061 z m -5.55114,-3.6959 c -0.0899,-0.14552 -0.32051,-0.26458 -0.51239,-0.26458 -0.19187,0 -0.49708,-0.1786 -0.67824,-0.39688 -0.18116,-0.21828 -0.45699,-0.39687 -0.61297,-0.39687 -0.15597,0 0.11986,0.29765 0.61297,0.66146 0.92066,0.67924 1.48046,0.86584 1.19063,0.39687 z"
       id="path8589" />
    <path
       style="fill:#9d9c66;stroke-width:1.18514"
       d="m 152.57611,149.41689 c -0.21241,-0.13454 -0.27818,-0.37082 -0.15755,-0.566 0.13031,-0.21084 0.10034,-0.26908 -0.0808,-0.15711 -0.18543,0.1146 -0.27958,-0.11483 -0.26451,-0.64459 0.026,-0.91302 0.41524,-1.17676 1.37965,-0.93471 0.84629,0.21241 1.10103,1.07037 0.56205,1.89296 -0.44688,0.68203 -0.83436,0.7923 -1.4388,0.40945 z"
       id="path8587" />
    <path
       style="fill:#9d9c66;stroke-width:1.18514"
       d="m 126.14692,153.36011 c 0,-0.50932 0.0545,-0.71768 0.121,-0.46302 0.0665,0.25466 0.0665,0.67138 0,0.92604 -0.0666,0.25466 -0.121,0.0463 -0.121,-0.46302 z"
       id="path8584" />
    <path
       style="fill:#9d9c66;stroke-width:1.18514"
       d="m 128.7674,153.91441 c -0.0352,-0.88113 -0.0246,-0.89052 0.48689,-0.42766 0.28761,0.26028 0.44567,0.59825 0.35124,0.75104 -0.10053,0.16266 -0.24879,0.0657 -0.35767,-0.23379 -0.1673,-0.46024 -0.19895,-0.4452 -0.3152,0.14985 -0.10654,0.54528 -0.13556,0.50323 -0.16526,-0.23944 z"
       id="path8581" />
    <path
       style="fill:#9d9c66;stroke-width:1.18514"
       d="m 122.53256,154.53183 c -0.0973,-0.38775 -0.12592,-0.75603 -0.0636,-0.8184 0.0624,-0.0624 0.19302,0.20386 0.29034,0.59161 0.0973,0.38775 0.12592,0.75603 0.0636,0.81839 -0.0624,0.0624 -0.19302,-0.20385 -0.29033,-0.5916 z"
       id="path8580" />
    <path
       style="fill:#9d9c66;stroke-width:1.18514"
       d="m 134.62787,158.51947 c 0.002,-0.7276 0.0534,-0.99385 0.11419,-0.59167 0.0608,0.40218 0.0592,0.9975 -0.004,1.32292 -0.0628,0.32542 -0.11256,-0.004 -0.11058,-0.73125 z"
       id="path8572" />
    <path
       style="fill:#9d9c66;stroke-width:1.18514"
       d="m 118.41262,160.15754 c 0,-0.19046 0.17695,-0.57742 0.39324,-0.85989 0.35976,-0.46988 0.36882,-0.4404 0.1064,0.3463 -0.29949,0.89786 -0.49964,1.1036 -0.49964,0.51359 z"
       id="path8571" />
    <path
       style="fill:#9d9c66;stroke-width:1.18514"
       d="m 146.72303,160.61838 c 0,-0.17899 3.7239,-2.56455 3.8319,-2.45474 0.0494,0.0502 -0.79262,0.65121 -1.87108,1.3356 -1.07845,0.68439 -1.96082,1.188 -1.96082,1.11914 z"
       id="path8570" />
    <path
       style="fill:#9d9c66;stroke-width:1.18514"
       d="m 133.02349,161.37109 c -0.31538,-0.97004 -0.5294,-1.80774 -0.4756,-1.86155 0.0538,-0.0538 0.36043,0.69129 0.68139,1.65577 0.32096,0.96447 0.53498,1.80217 0.4756,1.86155 -0.0594,0.0594 -0.366,-0.68572 -0.68139,-1.65577 z"
       id="path8568" />
    <path
       style="fill:#9d9c66;stroke-width:1.18514"
       d="m 146.32616,165.53089 c 0.56838,-0.58208 1.09296,-1.05833 1.16572,-1.05833 0.0728,0 -0.33275,0.47625 -0.90114,1.05833 -0.56839,0.58209 -1.09297,1.05834 -1.16573,1.05834 -0.0728,0 0.33276,-0.47625 0.90115,-1.05834 z"
       id="path8565" />
    <path
       style="fill:#9d9c66;stroke-width:1.18514"
       d="m 130.45116,166.9466 c -0.79679,-0.71197 -0.85637,-0.81065 -0.24109,-0.39929 0.73142,0.489 1.65118,1.38043 1.39796,1.3549 -0.0542,-0.005 -0.57479,-0.43549 -1.15687,-0.95561 z"
       id="path8563" />
    <path
       style="fill:#9d9c66;stroke-width:1.18514"
       d="m 114.97303,175.32053 c 0,-1.07902 3.72469,-2.85654 8.60866,-4.10828 4.91193,-1.25891 5.12511,-1.2435 7.01589,0.50702 1.24534,1.15297 1.74957,1.44581 2.63483,1.53023 0.60212,0.0574 1.15859,10e-4 1.2366,-0.1251 0.078,-0.12622 0.0689,-1.91616 -0.0202,-3.97762 -0.0891,-2.06147 -0.28136,-6.78422 -0.42716,-10.495 -0.3052,-7.76742 -0.42318,-9.13285 -0.95545,-11.0573 -0.41531,-1.50157 -1.78163,-3.25546 -3.04503,-3.90879 -1.64709,-0.85174 -3.54987,-0.17455 -4.49023,1.59805 -0.53074,1.00046 -0.56784,1.24784 -0.2851,1.90126 l 0.32504,0.75115 -0.53054,-0.66146 -0.53053,-0.66145 -0.006,1.78214 c -0.006,1.69754 -0.34376,3.68539 -0.82204,4.83244 -0.13689,0.3283 -0.16075,0.0772 -0.0629,-0.66146 0.0868,-0.65484 0.2667,-1.40266 0.39979,-1.66181 0.13309,-0.25916 0.2187,-1.35108 0.19024,-2.4265 -0.0439,-1.65709 -0.12665,-1.97489 -0.54285,-2.08373 -0.81693,-0.21363 -0.60565,-1.36868 0.44197,-2.41631 2.079,-2.079 4.28199,-2.50877 6.6953,-1.30617 2.23965,1.11606 3.58378,3.47131 3.85372,6.75265 0.13341,1.62165 0.12953,1.63567 -0.10068,0.36375 -0.57047,-3.15201 -0.56937,-3.14818 -0.80292,-2.77028 -0.15388,0.24897 -0.21958,0.0892 -0.20301,-0.49363 0.0283,-0.99669 -0.42311,-1.64296 -0.68002,-0.97347 -0.0904,0.23562 -0.0592,0.36337 0.0694,0.28389 0.12861,-0.0795 0.3021,0.0334 0.38554,0.25084 0.0834,0.21744 0.0475,0.39535 -0.0798,0.39535 -0.12733,0 -0.10362,0.41672 0.0527,0.92605 0.15631,0.50932 0.35939,0.92604 0.45127,0.92604 0.0919,0 0.11822,0.41836 0.0585,0.92968 -0.0597,0.51133 0.0381,1.10633 0.21725,1.32223 0.2256,0.27184 0.34713,1.87764 0.39521,5.22188 0.0382,2.65613 0.0907,5.24605 0.11668,5.75537 l 0.0472,0.92604 0.25894,-0.79375 c 0.1491,-0.45703 0.20902,-2.81404 0.14125,-5.55625 -0.0848,-3.42945 -0.058,-4.133 0.0955,-2.51354 0.11723,1.23693 0.23333,3.73724 0.258,5.55625 0.0247,1.81901 0.12994,3.52305 0.23393,3.78676 0.10399,0.2637 0.4646,-2.95098 0.80136,-7.14375 0.33675,-4.19277 0.84303,-10.00446 1.12506,-12.91488 0.28204,-2.91042 0.58216,-7.49432 0.66695,-10.18646 0.14261,-4.52799 0.11247,-5.01212 -0.40226,-6.46053 -0.59538,-1.67532 -1.3238,-2.62533 -2.47038,-3.2219 -0.95661,-0.49772 -2.42984,-0.46961 -3.46586,0.0661 -0.46572,0.24083 -0.89961,0.38966 -0.96422,0.33073 -0.0646,-0.0589 -0.34345,0.27981 -0.61967,0.75275 -0.27621,0.47294 -0.43477,0.85989 -0.35235,0.85989 0.0824,0 0.34028,-0.36825 0.57303,-0.81833 0.23275,-0.45009 0.47877,-0.76275 0.54671,-0.69481 0.0679,0.0679 -0.12392,0.54294 -0.42636,1.05554 -0.40927,0.69366 -0.68267,0.89729 -1.06908,0.79624 -0.28556,-0.0747 -0.51919,-0.0167 -0.51919,0.12881 0,0.14552 0.24012,0.32738 0.5336,0.40413 1.33392,0.34882 2.25776,4.78728 1.47075,7.06592 -0.22618,0.65485 -0.34531,0.89297 -0.26473,0.52917 0.0806,-0.3638 0.19124,-1.49489 0.24592,-2.51354 l 0.0994,-1.85208 -0.2315,1.85208 c -0.20951,1.67614 -0.34814,2.2754 -0.91814,3.96875 -0.12831,0.38119 -0.0569,0.34419 0.2553,-0.13229 0.30771,-0.46961 0.38034,-0.50798 0.25039,-0.13229 -1.27141,3.67558 -1.20919,3.56271 -1.70328,3.08998 -1.07293,-1.02654 -1.75335,-3.20381 -1.4411,-4.61134 0.16369,-0.73784 0.21766,-0.78479 0.38022,-0.33073 0.13305,0.37163 0.18993,0.21396 0.19105,-0.52959 9.3e-4,-0.61248 0.23945,-1.44891 0.56586,-1.98437 0.31034,-0.50909 0.56164,-1.16375 0.55844,-1.45479 -0.004,-0.33326 -0.25063,-0.0524 -0.66712,0.75852 -0.83342,1.62285 -1.31862,2.31912 -1.49392,2.14382 -0.0754,-0.0754 -0.3028,0.0742 -0.50544,0.33241 -0.33501,0.42685 -0.32644,0.43649 0.0946,0.10629 0.27584,-0.21632 0.46302,-0.24938 0.46302,-0.0818 0,0.30704 -0.50567,0.69549 -0.92604,0.71136 -0.14552,0.005 -0.24167,0.18591 -0.21367,0.40093 0.028,0.21501 -0.42665,0.74812 -1.01034,1.18468 -0.58368,0.43657 -1.51162,1.17857 -2.06209,1.64889 -0.55046,0.47033 -1.09716,0.76799 -1.21489,0.66146 -0.11773,-0.10652 -0.13824,-0.0608 -0.0456,0.10169 0.23446,0.41107 -0.76853,1.25822 -1.26441,1.06794 -0.68884,-0.26433 -0.46,-0.86551 0.89297,-2.34586 0.95654,-1.04662 1.41946,-1.83812 1.75333,-2.99789 0.57137,-1.98475 1.24027,-3.33553 2.48359,-5.01539 0.53853,-0.72761 1.07768,-1.50151 1.19811,-1.7198 0.43949,-0.79652 -0.78572,0.54902 -2.10452,2.31122 -1.68278,2.24856 -3.10535,3.26434 -4.79878,3.42654 -0.9724,0.0931 -1.18971,0.0528 -0.88976,-0.16518 0.2986,-0.217 0.11842,-0.24636 -0.72761,-0.11856 -1.12895,0.17054 -1.624,-0.23247 -0.66145,-0.53847 0.25466,-0.081 0.79187,-0.45232 1.1938,-0.82524 0.40193,-0.37291 0.83492,-0.61366 0.96221,-0.535 0.25904,0.1601 0.89194,-0.4853 0.68188,-0.69536 -0.2617,-0.26171 2.55635,-2.64123 3.75695,-3.17231 0.90941,-0.40228 1.60416,-0.51172 2.73107,-0.4302 1.31333,0.095 1.49621,0.0513 1.39556,-0.33363 -0.1775,-0.67876 1.38498,-2.26321 2.97235,-3.01416 3.80969,-1.80227 7.42498,0.49162 8.30865,5.27182 0.27121,1.46711 0.36778,6.10302 0.10629,5.10239 -0.0665,-0.25466 -0.23134,-0.46302 -0.36619,-0.46302 -0.13485,0 -0.24518,-0.12609 -0.24518,-0.2802 0,-0.15411 0.11906,-0.20661 0.26458,-0.11668 0.1667,0.10303 0.24694,-0.40511 0.2169,-1.37344 -0.047,-1.51367 -0.0492,-1.51782 -0.14706,-0.27371 -0.0553,0.7026 -0.21023,1.19474 -0.34918,1.10886 -0.15035,-0.0929 -0.24982,0.89915 -0.24982,2.49144 0,1.45521 0.0893,2.70083 0.19844,2.76805 0.10914,0.0672 0.19374,-0.64013 0.18801,-1.57189 -0.006,-0.93175 0.10015,-1.6941 0.23529,-1.6941 0.13983,0 0.17853,0.59862 0.0898,1.38906 l -0.15589,1.38907 0.42207,-0.79375 c 0.45744,-0.86025 0.87005,-1.22451 1.17415,-1.03656 0.10603,0.0655 0.26757,-0.002 0.35897,-0.14975 0.23412,-0.37881 0.62906,-0.33509 0.55856,0.0618 -0.0323,0.1819 -0.43466,0.91354 -0.89411,1.62586 -0.45945,0.71232 -1.01371,1.84342 -1.23168,2.51354 -0.42052,1.29279 -1.20785,9.14587 -1.85965,18.54862 -0.21688,3.12869 -0.51954,7.17682 -0.67257,8.99583 -0.15302,1.81901 -0.30468,4.34937 -0.33701,5.62301 l -0.0588,2.31572 1.48905,-6.1e-4 1.48904,-6.2e-4 1.52642,-1.73861 c 0.83953,-0.95624 1.59821,-1.62733 1.68595,-1.49132 0.0877,0.13602 1.05251,0.52232 2.14392,0.85844 2.48067,0.76397 6.16483,2.43203 7.32362,3.31588 1.95023,1.48752 2.59089,1.43686 -18.17154,1.43686 -12.52361,0 -19.05,-0.0907 -19.05,-0.26458 z m 22.58486,-23.41563 c 0.0716,-1.74625 0.19587,-3.46474 0.27618,-3.81886 0.0803,-0.35413 0.21806,-1.72335 0.3061,-3.04271 0.088,-1.31937 0.27467,-3.08437 0.41473,-3.92223 0.16905,-1.01132 0.16438,-1.67834 -0.0139,-1.98437 -0.20882,-0.35847 -0.27033,-0.17761 -0.27659,0.81317 -0.004,0.70079 -0.11565,1.47523 -0.24717,1.72098 -0.239,0.44657 -0.8678,7.90522 -0.94152,11.16795 -0.0215,0.95023 -0.12898,1.87322 -0.23891,2.05109 -0.10993,0.17787 -0.13971,1.18635 -0.0662,2.24107 0.0985,1.41296 0.0724,1.67394 -0.0991,0.99162 -0.16173,-0.64351 -0.1996,-0.0784 -0.12413,1.85208 0.0597,1.52797 0.12666,2.95672 0.14873,3.175 0.0681,0.67348 0.72403,-7.88609 0.86171,-11.24479 z m -4.99007,-7.54062 c -0.3268,-0.36112 -0.5784,-0.45348 -0.75478,-0.27709 -0.17639,0.17639 -0.10119,0.44514 0.22562,0.80625 0.3268,0.36112 0.5784,0.45348 0.75478,0.27709 0.17639,-0.17639 0.10119,-0.44514 -0.22562,-0.80625 z m -7.22312,-0.52917 c 0.26194,0 0.47625,-0.11906 0.47625,-0.26458 0,-0.14552 0.12609,-0.26459 0.2802,-0.26459 0.15411,0 0.19927,0.13094 0.10036,0.29098 -0.12639,0.20451 -0.0131,0.20175 0.38126,-0.009 0.66602,-0.35645 0.74807,-0.6014 0.12082,-0.3607 -0.3057,0.11731 -0.37888,0.0696 -0.2394,-0.15609 0.12845,-0.20783 0.50186,-0.26596 1.03559,-0.1612 0.62415,0.12251 0.7346,0.0941 0.43784,-0.11275 -0.31267,-0.2179 -0.21901,-0.27744 0.44138,-0.28063 1.19405,-0.006 1.82443,0.2614 1.36674,0.57926 -0.23853,0.16565 -0.15381,0.18887 0.26136,0.0716 0.41108,-0.11609 0.80341,-0.0124 1.18606,0.31339 0.55834,0.47541 0.56256,0.47501 0.17948,-0.0171 -1.27654,-1.63997 -4.46365,-1.55932 -6.351,0.1607 -0.36687,0.33434 -0.55141,0.51859 -0.41011,0.40945 0.14131,-0.10914 0.47123,-0.19844 0.73317,-0.19844 z m 13.5068,-6.47598 c -0.17356,-0.9079 -0.33055,-0.84065 -0.33055,0.1416 0,0.44515 0.10309,0.74564 0.2291,0.66777 0.126,-0.0779 0.17165,-0.44209 0.10145,-0.80937 z m -18.23143,-0.006 c -0.0963,0.29104 -0.0806,0.44377 0.0348,0.33939 0.11543,-0.10437 0.245,-0.52109 0.28792,-0.92604 l 0.078,-0.73627 -0.51035,0.62463 c -0.28069,0.34354 -0.51034,0.75325 -0.51034,0.91046 0,0.15721 0.17888,0.0547 0.39752,-0.22775 0.39146,-0.50575 0.39485,-0.50551 0.22243,0.0156 z m 3.7928,-2.95148 c -0.14811,-0.14811 -1.76317,0.78906 -1.76525,1.02433 -9.2e-4,0.10423 0.42013,-0.0594 0.93567,-0.36353 0.51553,-0.30418 0.88885,-0.60153 0.82958,-0.6608 z m 15.69994,0.83481 c 0.0158,0.33582 0.78939,-0.67077 0.78939,-1.02718 0,-0.14552 -0.17481,-0.0335 -0.38846,0.24901 -0.21366,0.28247 -0.39407,0.39453 -0.40093,0.24901 -0.0157,-0.33423 -0.52543,0.43573 -0.52543,0.79375 0,0.14552 0.11542,0.086 0.25648,-0.1323 0.14107,-0.21828 0.26209,-0.27781 0.26895,-0.13229 z m -1.08907,-7.70579 c 0.0323,-1.01279 -0.55585,-2.74368 -1.20862,-3.55682 -1.14448,-1.42565 -1.65317,-1.82619 -2.10101,-1.65434 -0.28984,0.11122 -0.39132,0.0716 -0.27959,-0.10919 0.21626,-0.34991 -1.18379,-0.86799 -2.31087,-0.85511 -0.45122,0.005 -1.11807,0.19122 -1.48187,0.41346 l -0.66146,0.40408 0.66146,-0.17646 c 1.5224,-0.40614 2.40196,-0.44885 2.32515,-0.11291 -0.0469,0.2049 0.48304,0.47916 1.37621,0.7123 1.47694,0.38551 1.90103,0.7033 1.68608,1.26346 -0.0659,0.17179 0.0642,0.46505 0.28906,0.65171 0.22491,0.18665 0.41074,0.53315 0.41297,0.76999 0.003,0.35525 0.0454,0.36527 0.24038,0.0573 0.3675,-0.58053 0.80439,1.35898 0.67025,2.97548 -0.0838,1.01052 -0.0523,1.19425 0.12105,0.70514 0.12894,-0.3638 0.24631,-1.03344 0.26081,-1.48808 z M 129.5168,123.396 c 0.0137,-0.32583 -0.13142,-0.23434 -0.80546,0.50792 l -0.64143,0.70636 0.71929,-0.50792 c 0.39561,-0.27936 0.72303,-0.59722 0.7276,-0.70636 z m 0.98075,-0.37253 c -0.0957,-0.0958 -0.0263,-0.35337 0.15434,-0.57249 0.28802,-0.34936 0.25078,-0.357 -0.30262,-0.062 -0.49764,0.26523 -0.55358,0.38541 -0.26459,0.56844 0.43485,0.27539 0.65787,0.31109 0.41287,0.0661 z"
       id="path8561" />
    <path
       style="fill:#78948a;stroke-width:1.18514"
       d="m 146.77854,147.47308 c -0.15062,-0.1819 -0.66485,-1.28323 -1.14273,-2.44739 -0.71162,-1.73359 -0.87032,-2.47581 -0.87688,-4.10105 -0.009,-2.16078 0.46094,-3.39009 1.85898,-4.86572 0.39845,-0.42057 0.57454,-0.71471 0.39129,-0.65362 -0.18324,0.0611 -0.85601,-0.41179 -1.49504,-1.05082 -1.00081,-1.00081 -1.2818,-1.14503 -2.02702,-1.04034 -0.47583,0.0668 -1.05367,0.20433 -1.28407,0.30553 -0.2777,0.12197 -0.41893,0.0503 -0.41893,-0.21263 0,-0.21814 0.0992,-0.3353 0.22049,-0.26035 0.12127,0.075 0.22048,0.009 0.22048,-0.14706 0,-0.17985 0.36701,-0.22464 1.00496,-0.12262 0.74355,0.1189 1.09609,0.0509 1.35531,-0.26146 0.3074,-0.37039 0.25389,-0.42216 -0.4363,-0.42216 -0.98629,0 -2.44128,0.47945 -3.04844,1.00452 -0.28645,0.24771 -0.46303,0.28592 -0.46303,0.1002 0,-0.49744 2.02158,-1.3693 3.175,-1.3693 1.77644,0 4.59836,1.84116 4.08789,2.66713 -0.12879,0.20838 -0.0913,0.25729 0.10457,0.13626 0.168,-0.10383 0.30546,-0.0714 0.30546,0.072 0,0.14344 -0.20836,0.32023 -0.46302,0.39286 -0.25466,0.0726 0.0503,0.0745 0.67761,0.004 0.62735,-0.0703 1.52773,-9e-5 2.00086,0.15605 1.00744,0.33249 2.95023,2.21858 2.70087,2.62206 -0.16193,0.26202 1.55503,4.00359 1.83721,4.00359 0.0728,0 -0.29357,-0.84564 -0.81406,-1.8792 -0.52049,-1.03356 -0.89123,-1.93432 -0.82386,-2.00169 0.16569,-0.16569 2.16748,3.92737 2.12308,4.34106 -0.0194,0.18034 0.0531,0.2733 0.16106,0.20659 0.18477,-0.11419 1.06813,0.72114 1.40734,1.33083 0.0935,0.16804 -0.23071,0.30003 -0.82054,0.33405 -0.75559,0.0436 -0.88575,-0.008 -0.57822,-0.22771 0.30372,-0.21731 0.20742,-0.24692 -0.41029,-0.12617 -0.62918,0.12299 -1.04309,-0.0131 -1.87709,-0.61726 -1.15974,-0.84012 -2.86754,-3.55615 -2.6282,-4.17984 0.0938,-0.24442 0.036,-0.31456 -0.15949,-0.19371 -0.20657,0.12766 -0.24971,0.0414 -0.13229,-0.26458 0.10348,-0.26969 0.068,-0.38839 -0.0873,-0.29237 -0.14386,0.0889 -0.26156,-0.035 -0.26156,-0.27526 0,-0.2403 -0.25288,-0.75334 -0.56197,-1.14009 l -0.56198,-0.70319 0.19615,0.66145 c 0.10788,0.36381 0.48595,1.30345 0.84016,2.0881 0.3542,0.78465 0.66765,1.75531 0.69656,2.15703 0.0289,0.40172 0.12179,0.68784 0.20642,0.63581 0.25296,-0.15549 1.03675,2.62995 1.03675,3.68444 0,0.87587 -0.0521,0.95035 -0.49804,0.7117 -0.27392,-0.1466 -0.57022,-0.45463 -0.65843,-0.68451 -0.0926,-0.24125 -0.0498,-0.34962 0.10116,-0.25632 0.44471,0.27484 0.28787,-0.31261 -0.18611,-0.69708 -0.30418,-0.24674 -0.38398,-0.25712 -0.24897,-0.0324 0.10929,0.18191 0.14185,0.33073 0.0724,0.33073 -0.22774,0 -1.29175,-1.87634 -1.14641,-2.02168 0.078,-0.078 0.32491,0.19618 0.54875,0.60923 0.22385,0.41305 0.41097,0.63193 0.41584,0.48641 0.005,-0.14552 -0.22771,-0.62177 -0.51683,-1.05833 -0.28912,-0.43656 -0.52646,-0.63034 -0.52742,-0.43063 -10e-4,0.26047 -0.0952,0.28553 -0.33248,0.0887 -0.24665,-0.20471 -0.33653,-0.12887 -0.35358,0.29833 -0.0126,0.31505 -0.11309,0.81094 -0.22339,1.10198 -0.15989,0.42189 -0.14267,0.44871 0.0849,0.13229 0.44382,-0.61697 0.37255,0.43285 -0.11675,1.7198 -0.22132,0.58208 -0.47154,1.26669 -0.55605,1.52135 -0.17947,0.54082 -0.70399,0.6042 -1.09476,0.13229 z m -0.71705,-2.76226 c -0.23676,-0.40891 -0.34986,-0.50534 -0.25132,-0.2143 0.0985,0.29104 0.24604,0.76422 0.32779,1.05151 0.0818,0.28729 0.19485,0.38372 0.25133,0.2143 0.0565,-0.16943 -0.091,-0.6426 -0.3278,-1.05151 z m 5.92308,-3.78322 c -0.32623,-0.58045 -0.63635,-1.01218 -0.68914,-0.95938 -0.11369,0.11368 0.98011,2.01476 1.15921,2.01476 0.0677,0 -0.14384,-0.47492 -0.47007,-1.05538 z m -2.4707,-2.35962 c -0.5812,-1.12392 -0.76973,-1.03668 -0.2256,0.10438 0.24201,0.5075 0.48699,0.87575 0.5444,0.81834 0.0574,-0.0574 -0.0861,-0.47263 -0.3188,-0.92272 z m -3.1681,-1.16341 c 0.0889,-0.60581 -0.0712,-0.56472 -0.43287,0.1111 -0.23316,0.43565 -0.22568,0.53515 0.0337,0.44868 0.18331,-0.0611 0.36293,-0.313 0.39915,-0.55978 z m 6.32528,-0.19236 c -0.63945,-1.03465 -3.83135,-2.33546 -3.83135,-1.5614 0,0.16755 0.22869,0.20983 0.5623,0.10394 0.37538,-0.11914 0.50274,-0.0821 0.38313,0.11143 -0.11164,0.18065 -0.0269,0.23149 0.22473,0.13491 0.48415,-0.18578 2.14937,0.7895 2.38169,1.3949 0.0906,0.23617 0.23342,0.36074 0.31733,0.27683 0.0839,-0.0839 0.0669,-0.29118 -0.0378,-0.46061 z m -5.55114,-3.6959 c -0.0899,-0.14552 -0.32051,-0.26458 -0.51239,-0.26458 -0.19187,0 -0.49708,-0.1786 -0.67824,-0.39688 -0.18116,-0.21828 -0.45699,-0.39687 -0.61297,-0.39687 -0.15597,0 0.11986,0.29765 0.61297,0.66146 0.92066,0.67924 1.48046,0.86584 1.19063,0.39687 z"
       id="path8549" />
    <path
       style="fill:#78948a;stroke-width:1.18514"
       d="m 152.57611,149.41684 c -0.21241,-0.13454 -0.27818,-0.37082 -0.15755,-0.566 0.13031,-0.21084 0.10034,-0.26908 -0.0808,-0.15711 -0.18543,0.1146 -0.27958,-0.11483 -0.26451,-0.64459 0.026,-0.91302 0.41524,-1.17676 1.37965,-0.93471 0.84629,0.21241 1.10103,1.07037 0.56205,1.89296 -0.44688,0.68203 -0.83436,0.7923 -1.4388,0.40945 z"
       id="path8547" />
    <path
       style="fill:#78948a;stroke-width:1.18514"
       d="m 124.30017,149.5236 c 0.003,-0.58208 0.0571,-0.78905 0.12041,-0.45993 0.0633,0.32911 0.0609,0.80536 -0.005,1.05833 -0.0662,0.25296 -0.118,-0.0163 -0.11507,-0.5984 z"
       id="path8545" />
    <path
       style="fill:#78948a;stroke-width:1.18514"
       d="m 135.1299,159.97464 c -0.0332,-0.80036 -0.10957,-3.06255 -0.16981,-5.02708 l -0.10952,-3.57187 0.25235,2.77812 c 0.13879,1.52797 0.2152,3.79016 0.1698,5.02708 -0.0567,1.54553 -0.10139,1.7938 -0.14282,0.79375 z"
       id="path8541" />
    <path
       style="fill:#78948a;stroke-width:1.18514"
       d="m 136.92247,161.78501 c -0.0667,-1.25989 -0.0462,-2.24392 0.0455,-2.18672 0.15605,0.0973 0.41246,-3.42053 0.62824,-8.61943 0.0514,-1.23693 0.15872,-2.5387 0.23861,-2.89282 0.0799,-0.35413 0.21728,-1.72335 0.30532,-3.04271 0.088,-1.31937 0.27467,-3.08437 0.41473,-3.92223 0.16905,-1.01132 0.16438,-1.67834 -0.0139,-1.98437 -0.20882,-0.35847 -0.27033,-0.17761 -0.27659,0.81317 -0.004,0.70079 -0.11565,1.47523 -0.24717,1.72098 -0.239,0.44657 -0.8678,7.90522 -0.94152,11.16795 -0.0215,0.95023 -0.12898,1.87322 -0.23891,2.05109 -0.10993,0.17787 -0.13971,1.18635 -0.0662,2.24107 0.0921,1.32129 0.0658,1.62967 -0.0845,0.99162 -0.18041,-0.76572 -0.218,-0.59879 -0.21712,0.96421 5.9e-4,1.03964 -0.0917,2.0403 -0.20501,2.2237 -0.13385,0.21657 -0.099,0.26727 0.0994,0.14465 0.21442,-0.13252 0.29613,0.15104 0.27416,0.9513 -0.0288,1.04699 -0.0468,1.07528 -0.22103,0.34635 l -0.18973,-0.79375 -0.15668,0.79375 c -0.39967,2.02464 0.95547,-16.2357 1.669,-22.48958 0.14943,-1.30969 0.34146,-4.64344 0.42674,-7.40834 0.14388,-4.6645 0.11489,-5.14001 -0.40196,-6.59282 -0.59607,-1.6755 -1.32462,-2.62546 -2.47096,-3.2219 -0.95661,-0.49772 -2.42984,-0.46961 -3.46586,0.0661 -0.46572,0.24083 -0.89961,0.38966 -0.96422,0.33073 -0.0646,-0.0589 -0.34345,0.27981 -0.61967,0.75275 -0.27621,0.47294 -0.43477,0.85989 -0.35235,0.85989 0.0824,0 0.34028,-0.36825 0.57303,-0.81833 0.23275,-0.45009 0.47877,-0.76275 0.54671,-0.69481 0.0679,0.0679 -0.12392,0.54294 -0.42636,1.05554 -0.40927,0.69366 -0.68267,0.89729 -1.06908,0.79624 -0.28556,-0.0747 -0.51919,-0.0167 -0.51919,0.12881 0,0.14552 0.24012,0.32738 0.5336,0.40413 1.33392,0.34882 2.25776,4.78728 1.47075,7.06592 -0.22618,0.65485 -0.34531,0.89297 -0.26473,0.52917 0.0806,-0.3638 0.19124,-1.49489 0.24592,-2.51354 l 0.0994,-1.85208 -0.2315,1.85208 c -0.20951,1.67614 -0.34814,2.2754 -0.91814,3.96875 -0.12831,0.38119 -0.0569,0.34419 0.2553,-0.13229 0.30771,-0.46961 0.38034,-0.50798 0.25039,-0.13229 -1.23874,3.58113 -1.22715,3.55895 -1.64217,3.14393 -0.2984,-0.2984 -0.3236,-0.47605 -0.0993,-0.70032 0.43473,-0.43473 0.36932,-0.72442 -0.16253,-0.71977 -0.36069,0.003 -0.38369,0.0543 -0.10405,0.23151 0.23895,0.15141 0.26484,0.28564 0.0774,0.40147 -0.62738,0.38774 -1.47631,-2.2745 -1.19813,-3.75732 0.14821,-0.79005 0.21712,-0.87374 0.36821,-0.44718 0.12814,0.36178 0.18637,0.19593 0.18747,-0.534 9.3e-4,-0.61248 0.23945,-1.44891 0.56586,-1.98437 0.31034,-0.50909 0.56164,-1.16375 0.55844,-1.45479 -0.004,-0.33326 -0.25063,-0.0524 -0.66712,0.75852 -0.83342,1.62285 -1.31862,2.31912 -1.49392,2.14382 -0.0754,-0.0754 -0.3028,0.0742 -0.50544,0.33241 -0.33501,0.42685 -0.32644,0.43649 0.0946,0.10629 0.25466,-0.19972 0.46302,-0.24406 0.46302,-0.0985 0,0.27547 -0.75775,0.99665 -1.03285,0.98302 -0.0868,-0.004 -0.13486,0.11476 -0.10686,0.26458 0.028,0.14982 -0.42665,0.62959 -1.01034,1.06615 -0.58368,0.43657 -1.51162,1.17857 -2.06209,1.64889 -0.55046,0.47033 -1.09716,0.76799 -1.21489,0.66146 -0.11773,-0.10652 -0.13824,-0.0608 -0.0456,0.10169 0.23446,0.41107 -0.76853,1.25822 -1.26441,1.06794 -1.03278,-0.39632 0.12095,-2.04464 1.45871,-2.08403 0.50198,-0.0148 0.76312,-0.0772 0.58031,-0.1387 -0.18281,-0.0615 -0.25464,-0.25048 -0.15962,-0.41995 0.11104,-0.19805 0.0455,-0.18998 -0.18356,0.0226 -0.57913,0.53754 -0.90355,0.37701 -0.38842,-0.1922 0.26028,-0.28761 0.55655,-0.47144 0.65837,-0.40851 0.10181,0.0629 0.18889,-0.0292 0.19351,-0.20468 0.0162,-0.61714 0.94649,-3.50586 1.46605,-4.55242 0.28898,-0.58209 0.96602,-1.65365 1.50454,-2.38125 0.53853,-0.72761 1.07768,-1.50151 1.19811,-1.7198 0.43949,-0.79652 -0.78572,0.54902 -2.10452,2.31122 -1.68278,2.24856 -3.10535,3.26434 -4.79878,3.42654 -0.9724,0.0931 -1.18971,0.0528 -0.88976,-0.16518 0.2986,-0.217 0.11842,-0.24636 -0.72761,-0.11856 -1.12895,0.17054 -1.624,-0.23247 -0.66145,-0.53847 0.25466,-0.081 0.79187,-0.45232 1.1938,-0.82524 0.40193,-0.37291 0.83492,-0.61366 0.96221,-0.535 0.25904,0.1601 0.89194,-0.4853 0.68188,-0.69536 -0.2617,-0.26171 2.55635,-2.64123 3.75695,-3.17231 0.90941,-0.40228 1.60416,-0.51172 2.73107,-0.4302 1.31333,0.095 1.49621,0.0513 1.39556,-0.33363 -0.1775,-0.67876 1.38498,-2.26321 2.97235,-3.01416 3.80969,-1.80227 7.42498,0.49162 8.30865,5.27182 0.27121,1.46711 0.36778,6.10302 0.10629,5.10239 -0.0665,-0.25466 -0.23134,-0.46302 -0.36619,-0.46302 -0.13485,0 -0.24518,-0.12609 -0.24518,-0.2802 0,-0.15411 0.11906,-0.20661 0.26458,-0.11668 0.1667,0.10303 0.24694,-0.40511 0.2169,-1.37344 -0.047,-1.51367 -0.0492,-1.51782 -0.14706,-0.27371 -0.0553,0.7026 -0.21023,1.19474 -0.34918,1.10886 -0.15035,-0.0929 -0.24982,0.89915 -0.24982,2.49144 0,1.45521 0.0893,2.70083 0.19844,2.76805 0.10914,0.0672 0.19374,-0.64013 0.18801,-1.57189 -0.006,-0.93175 0.10015,-1.6941 0.23529,-1.6941 0.13983,0 0.17853,0.59862 0.0898,1.38906 l -0.15589,1.38907 0.42207,-0.79375 c 0.45744,-0.86025 0.87005,-1.22451 1.17415,-1.03656 0.10603,0.0655 0.26757,-0.002 0.35897,-0.14975 0.23412,-0.37881 0.62906,-0.33509 0.55856,0.0618 -0.0323,0.1819 -0.43466,0.91354 -0.89411,1.62586 -0.45945,0.71232 -1.01354,1.84342 -1.23131,2.51354 -0.42135,1.29657 -1.18407,8.85929 -1.85734,18.41632 -0.22553,3.20146 -0.44466,6.29709 -0.48695,6.87917 -0.0423,0.58208 -0.13148,0.0275 -0.1982,-1.23239 z m 1.92903,-24.42588 c -0.17356,-0.9079 -0.33055,-0.84065 -0.33055,0.1416 0,0.44515 0.10309,0.74564 0.2291,0.66777 0.126,-0.0779 0.17165,-0.44209 0.10145,-0.80937 z m -18.23143,-0.006 c -0.0963,0.29104 -0.0806,0.44377 0.0348,0.33939 0.11543,-0.10437 0.245,-0.52109 0.28792,-0.92604 l 0.078,-0.73627 -0.51035,0.62463 c -0.28069,0.34354 -0.51034,0.75325 -0.51034,0.91046 0,0.15721 0.17888,0.0547 0.39752,-0.22775 0.39146,-0.50575 0.39485,-0.50551 0.22243,0.0156 z m 3.7928,-2.95148 c -0.14811,-0.14811 -1.76317,0.78906 -1.76525,1.02433 -9.2e-4,0.10423 0.42013,-0.0594 0.93567,-0.36353 0.51553,-0.30418 0.88885,-0.60153 0.82958,-0.6608 z m 15.69994,0.83481 c 0.0158,0.33582 0.78939,-0.67077 0.78939,-1.02718 0,-0.14552 -0.17481,-0.0335 -0.38846,0.24901 -0.21366,0.28247 -0.39407,0.39453 -0.40093,0.24901 -0.0157,-0.33423 -0.52543,0.43573 -0.52543,0.79375 0,0.14552 0.11542,0.086 0.25648,-0.1323 0.14107,-0.21828 0.26209,-0.27781 0.26895,-0.13229 z m -1.08907,-7.70579 c 0.0323,-1.01279 -0.55585,-2.74368 -1.20862,-3.55682 -1.14448,-1.42565 -1.65317,-1.82619 -2.10101,-1.65434 -0.28984,0.11122 -0.39132,0.0716 -0.27959,-0.10919 0.21626,-0.34991 -1.18379,-0.86799 -2.31087,-0.85511 -0.45122,0.005 -1.11807,0.19122 -1.48187,0.41346 l -0.66146,0.40408 0.66146,-0.17646 c 1.5224,-0.40614 2.40196,-0.44885 2.32515,-0.11291 -0.0469,0.2049 0.48304,0.47916 1.37621,0.7123 1.47694,0.38551 1.90103,0.7033 1.68608,1.26346 -0.0659,0.17179 0.0642,0.46505 0.28906,0.65171 0.22491,0.18665 0.41074,0.53315 0.41297,0.76999 0.003,0.35525 0.0454,0.36527 0.24038,0.0573 0.3675,-0.58053 0.80439,1.35898 0.67025,2.97548 -0.0838,1.01052 -0.0523,1.19425 0.12105,0.70514 0.12894,-0.3638 0.24631,-1.03344 0.26081,-1.48808 z M 129.5168,123.396 c 0.0137,-0.32583 -0.13142,-0.23434 -0.80546,0.50792 l -0.64143,0.70636 0.71929,-0.50792 c 0.39561,-0.27936 0.72303,-0.59722 0.7276,-0.70636 z m 0.98075,-0.37253 c -0.0957,-0.0958 -0.0263,-0.35337 0.15434,-0.57249 0.28802,-0.34936 0.25078,-0.357 -0.30262,-0.062 -0.49764,0.26523 -0.55358,0.38541 -0.26459,0.56844 0.43485,0.27539 0.65787,0.31109 0.41287,0.0661 z"
       id="path8540" />
    <path
       style="fill:#78948a;stroke-width:1.18514"
       d="m 134.46974,164.47261 c -0.0914,-0.50932 -0.28564,-3.48589 -0.43174,-6.61458 -0.44175,-9.46047 -0.71309,-10.94857 -2.32076,-12.72807 -1.7153,-1.89864 -3.33355,-2.30639 -5.01908,-1.26467 -0.49778,0.30764 -0.97816,0.48624 -1.06752,0.39688 -0.0894,-0.0894 -0.0165,-0.16248 0.16183,-0.16248 0.17836,0 0.24581,-0.12698 0.14989,-0.28218 -0.29316,-0.47434 0.73289,-1.04411 1.59838,-0.88759 0.60196,0.10886 0.69785,0.0767 0.39688,-0.13304 -0.31267,-0.2179 -0.21901,-0.27744 0.44138,-0.28063 1.19405,-0.006 1.82443,0.2614 1.36674,0.57926 -0.23853,0.16565 -0.15381,0.18887 0.26136,0.0716 0.41108,-0.11609 0.80341,-0.0124 1.18606,0.31339 0.55834,0.47541 0.56256,0.47501 0.17948,-0.0171 -1.30979,-1.68269 -4.425,-1.55856 -6.58926,0.26255 -0.46027,0.38729 -0.89461,0.64643 -0.96518,0.57585 -0.16083,-0.16082 1.32727,-1.30311 2.45263,-1.88268 1.86013,-0.95799 5.14766,-0.0673 6.5481,1.77407 0.9473,1.24556 1.6825,3.33778 1.83827,5.2313 0.13341,1.62165 0.12953,1.63567 -0.10068,0.36375 -0.57047,-3.15201 -0.56937,-3.14818 -0.80292,-2.77028 -0.15388,0.24897 -0.21958,0.0892 -0.20301,-0.49363 0.0283,-0.99669 -0.42311,-1.64296 -0.68002,-0.97347 -0.0904,0.23562 -0.0592,0.36337 0.0694,0.28389 0.12861,-0.0795 0.3021,0.0334 0.38554,0.25084 0.0834,0.21744 0.0475,0.39535 -0.0798,0.39535 -0.12733,0 -0.10362,0.41672 0.0527,0.92605 0.15631,0.50932 0.35939,0.92604 0.45127,0.92604 0.0919,0 0.11822,0.41836 0.0585,0.92968 -0.0597,0.51133 0.0384,1.10671 0.21794,1.32307 0.23367,0.28155 0.32535,1.80375 0.32248,5.35417 -0.002,2.72843 0.10632,5.84149 0.24115,6.9179 0.25587,2.04277 0.1682,3.22183 -0.12007,1.61476 z m -1.90192,-20.10833 c -0.3268,-0.36112 -0.5784,-0.45348 -0.75478,-0.27709 -0.17639,0.17639 -0.10119,0.44514 0.22562,0.80625 0.3268,0.36112 0.5784,0.45348 0.75478,0.27709 0.17639,-0.17639 0.10119,-0.44514 -0.22562,-0.80625 z"
       id="path8539" />
    <path
       style="fill:#78948a;stroke-width:1.18514"
       d="m 136.73559,165.39865 c 0.003,-0.58208 0.0571,-0.78905 0.1204,-0.45994 0.0633,0.32912 0.0609,0.80537 -0.005,1.05834 -0.0662,0.25296 -0.118,-0.0163 -0.11506,-0.5984 z"
       id="path8538" />
    <path
       style="fill:#78948a;stroke-width:1.18514"
       d="m 114.97303,175.32053 c 0,-1.08976 3.73882,-2.86202 8.6559,-4.10306 4.94186,-1.24728 5.02708,-1.24077 6.95452,0.53118 0.93437,0.85899 1.82775,1.45669 2.18051,1.45882 0.32869,0.002 0.88075,0.0794 1.2268,0.17201 l 0.62918,0.16839 -0.11339,-3.99146 c -0.0624,-2.19531 -0.0306,-3.94027 0.0707,-3.8777 0.25677,0.1587 0.50411,-0.57352 0.50411,-1.49232 0,-0.42466 0.11104,-0.77211 0.24676,-0.77211 0.32748,0 0.61724,0.94464 0.68984,2.24895 0.11519,2.06941 0.14885,2.19181 0.40016,1.45521 0.14007,-0.41057 0.19436,0.61808 0.14312,2.71198 l -0.0825,3.37344 h 1.48982 c 1.47293,0 1.50707,-0.0179 3.01101,-1.57546 l 1.52118,-1.57546 3.10335,1.06819 c 4.45851,1.53466 7.81345,3.42796 7.36374,4.1556 -0.25032,0.40503 -37.99477,0.44853 -37.99477,0.0438 z m 20.92641,-6.63726 c -0.16913,-0.42308 -0.26103,-0.48974 -0.27214,-0.1974 -0.0223,0.58649 0.32022,1.45807 0.43622,1.11007 0.0502,-0.15064 -0.0236,-0.56133 -0.16408,-0.91267 z m -0.90027,-0.70493 c -0.0666,-0.25466 -0.121,-0.0463 -0.121,0.46302 0,0.50932 0.0544,0.71768 0.121,0.46302 0.0666,-0.25466 0.0666,-0.67138 0,-0.92604 z"
       id="path8536" />
    <path
       style="fill:#769076;stroke-width:1.18514"
       d="m 156.42982,143.62215 c -0.83699,-0.87364 -0.96098,-1.41828 -0.15728,-0.69095 0.51871,0.46942 1.16447,1.43303 0.96034,1.43303 -0.0506,0 -0.41203,-0.33394 -0.80306,-0.74208 z"
       id="path8456" />
    <path
       style="fill:#769076;stroke-width:1.18514"
       d="m 152.57611,149.41687 c -0.21241,-0.13454 -0.27818,-0.37082 -0.15755,-0.566 0.13031,-0.21084 0.10034,-0.26908 -0.0808,-0.15711 -0.18543,0.1146 -0.27958,-0.11483 -0.26451,-0.64459 0.026,-0.91302 0.41524,-1.17676 1.37965,-0.93471 0.84629,0.21241 1.10103,1.07037 0.56205,1.89296 -0.44688,0.68203 -0.83436,0.7923 -1.4388,0.40945 z"
       id="path8454" />
    <path
       style="fill:#769076;stroke-width:1.18514"
       d="m 124.30017,149.52363 c 0.003,-0.58208 0.0571,-0.78905 0.12041,-0.45993 0.0633,0.32911 0.0609,0.80536 -0.005,1.05833 -0.0662,0.25296 -0.118,-0.0163 -0.11507,-0.5984 z"
       id="path8453" />
    <path
       style="fill:#769076;stroke-width:1.18514"
       d="m 135.1299,159.97467 c -0.0332,-0.80036 -0.10957,-3.06255 -0.16981,-5.02708 l -0.10952,-3.57187 0.25235,2.77812 c 0.13879,1.52797 0.2152,3.79016 0.1698,5.02708 -0.0567,1.54553 -0.10139,1.7938 -0.14282,0.79375 z"
       id="path8446" />
    <path
       style="fill:#769076;stroke-width:1.18514"
       d="m 136.92247,161.78496 c -0.0667,-1.25989 -0.0431,-2.24199 0.0525,-2.18243 0.16535,0.10303 0.66807,-6.85051 0.57565,-7.96226 -0.0242,-0.29104 0.11676,-1.89839 0.31324,-3.57188 0.19648,-1.67349 0.41749,-3.87614 0.49112,-4.89479 0.0736,-1.01864 0.19923,-2.20927 0.2791,-2.64583 0.31318,-1.71188 0.34085,-4.07327 0.049,-4.18251 -0.19741,-0.0739 -0.31901,0.5969 -0.36911,2.03615 -0.0411,1.1805 -0.18364,2.56308 -0.31678,3.0724 -0.25064,0.95879 -0.82232,7.98354 -0.91638,11.26037 -0.0295,1.02722 -0.14142,2.00974 -0.24873,2.18338 -0.10732,0.17365 -0.13496,1.17866 -0.0614,2.23338 0.0921,1.32129 0.0658,1.62967 -0.0845,0.99162 -0.18041,-0.76572 -0.218,-0.59879 -0.21712,0.96421 5.9e-4,1.03964 -0.0917,2.0403 -0.20501,2.2237 -0.13385,0.21657 -0.099,0.26727 0.0994,0.14465 0.21442,-0.13252 0.29613,0.15104 0.27416,0.9513 -0.0288,1.04699 -0.0468,1.07528 -0.22103,0.34635 l -0.18973,-0.79375 -0.15668,0.79375 c -0.39967,2.02464 0.95547,-16.2357 1.669,-22.48958 0.14943,-1.30969 0.34146,-4.64344 0.42674,-7.40834 0.14388,-4.6645 0.11489,-5.14001 -0.40196,-6.59282 -0.85184,-2.39445 -2.23259,-3.59364 -4.13774,-3.59364 -1.34351,0 -2.29183,0.57264 -2.98204,1.80069 -0.45813,0.81514 -0.71626,1.02713 -1.12163,0.92113 -0.2896,-0.0757 -0.52654,-0.0186 -0.52654,0.12688 0,0.14552 0.24012,0.32738 0.5336,0.40413 1.33392,0.34882 2.25776,4.78728 1.47075,7.06592 -0.22618,0.65485 -0.34531,0.89297 -0.26473,0.52917 0.0806,-0.3638 0.19124,-1.49489 0.24592,-2.51354 l 0.0994,-1.85208 -0.22129,1.85208 c -0.12171,1.01865 -0.42012,2.38786 -0.66314,3.04271 -0.69506,1.87295 -0.75662,2.34254 -0.15607,1.19062 0.57998,-1.11245 0.5438,-0.93997 -0.31615,1.5073 -0.47253,1.34476 -0.57276,1.46418 -0.92947,1.10747 -0.2984,-0.2984 -0.3236,-0.47605 -0.0993,-0.70032 0.43473,-0.43473 0.36932,-0.72442 -0.16253,-0.71977 -0.36069,0.003 -0.38369,0.0543 -0.10405,0.23151 0.23895,0.15141 0.26484,0.28564 0.0774,0.40147 -0.62738,0.38774 -1.47631,-2.2745 -1.19813,-3.75732 0.14821,-0.79005 0.21712,-0.87374 0.36821,-0.44718 0.12814,0.36178 0.18637,0.19593 0.18747,-0.534 9.3e-4,-0.61248 0.23945,-1.44891 0.56586,-1.98437 0.31034,-0.50909 0.56164,-1.16375 0.55844,-1.45479 -0.004,-0.33326 -0.25063,-0.0524 -0.66712,0.75852 -0.83342,1.62285 -1.31862,2.31912 -1.49392,2.14382 -0.0754,-0.0754 -0.3028,0.0742 -0.50544,0.33241 -0.33501,0.42685 -0.32644,0.43649 0.0946,0.10629 0.25466,-0.19972 0.46302,-0.24406 0.46302,-0.0985 0,0.27547 -0.75775,0.99665 -1.03285,0.98302 -0.0868,-0.004 -0.13486,0.11476 -0.10686,0.26458 0.028,0.14982 -0.42665,0.62959 -1.01034,1.06615 -0.58368,0.43657 -1.51162,1.17857 -2.06209,1.64889 -0.55046,0.47033 -1.09716,0.76799 -1.21489,0.66146 -0.11773,-0.10652 -0.13824,-0.0608 -0.0456,0.10169 0.23446,0.41107 -0.76853,1.25822 -1.26441,1.06794 -1.03278,-0.39632 0.12095,-2.04464 1.45871,-2.08403 0.50198,-0.0148 0.76312,-0.0772 0.58031,-0.1387 -0.18281,-0.0615 -0.25464,-0.25048 -0.15962,-0.41995 0.11104,-0.19805 0.0455,-0.18998 -0.18356,0.0226 -0.57913,0.53754 -0.90355,0.37701 -0.38842,-0.1922 0.26028,-0.28761 0.55655,-0.47144 0.65837,-0.40851 0.10181,0.0629 0.18889,-0.0292 0.19351,-0.20468 0.0162,-0.61714 0.94649,-3.50586 1.46605,-4.55242 0.28898,-0.58209 0.96602,-1.65365 1.50454,-2.38125 0.53853,-0.72761 1.07768,-1.50151 1.19811,-1.7198 0.43949,-0.79652 -0.78572,0.54902 -2.10452,2.31122 -1.49118,1.99254 -2.99844,3.16544 -4.36562,3.3972 -0.69868,0.11843 -0.82861,0.0875 -0.52917,-0.12584 0.24473,-0.17439 0.27608,-0.28436 0.0818,-0.28686 -0.17331,-0.002 -0.3887,0.11501 -0.47864,0.26053 -0.0899,0.14553 -0.30532,0.26276 -0.47863,0.26054 -0.19092,-0.002 -0.15869,-0.10822 0.0818,-0.26834 0.27872,-0.18561 0.0621,-0.21372 -0.72761,-0.0944 -1.12895,0.17054 -1.624,-0.23247 -0.66145,-0.53847 0.25466,-0.081 0.79187,-0.45232 1.1938,-0.82524 0.40193,-0.37291 0.83492,-0.61366 0.96221,-0.535 0.25904,0.1601 0.89194,-0.4853 0.68188,-0.69536 -0.2617,-0.26171 2.55635,-2.64123 3.75695,-3.17231 0.90941,-0.40228 1.60416,-0.51172 2.73107,-0.4302 1.31333,0.095 1.49621,0.0513 1.39556,-0.33363 -0.31412,-1.20117 3.34212,-3.69236 5.40172,-3.68049 1.19162,0.007 2.84466,0.71664 3.83042,1.6447 1.55703,1.46588 2.36771,4.23493 2.30024,7.85693 -0.036,1.93407 -0.0448,1.90391 -0.259,-0.88956 -0.28854,-3.76301 -1.06702,-6.18321 -1.67333,-5.20218 -0.19969,0.3231 0.1181,1.11309 0.38212,0.94992 0.44484,-0.27493 0.56442,0.96505 0.54029,5.60248 -0.0138,2.64481 0.0723,4.86888 0.19121,4.94238 0.11894,0.0735 0.17156,-0.24912 0.11694,-0.71695 -0.0546,-0.46783 0.0293,-1.26315 0.18647,-1.76738 0.26534,-0.85125 0.27734,-0.81277 0.16785,0.53843 -0.11342,1.39974 -0.10318,1.42787 0.26871,0.73799 1.79295,-3.32602 5.78107,-3.81221 8.15254,-0.99388 0.81628,0.97009 0.85884,1.22862 0.23172,1.40748 -0.25466,0.0726 0.0503,0.0745 0.67761,0.004 2.46313,-0.27608 4.06196,0.99753 5.9808,4.76422 0.96726,1.89874 1.14306,2.44743 0.91855,2.86693 -0.15271,0.28533 -0.20847,0.58796 -0.12392,0.67251 0.0846,0.0846 0.15373,0.008 0.15373,-0.17056 0,-0.42601 0.45403,-0.13409 0.80164,0.51542 0.23551,0.44006 0.1879,0.51384 -0.32931,0.51038 -0.49767,-0.003 -0.53442,-0.053 -0.20775,-0.28064 0.29327,-0.20438 0.16375,-0.23047 -0.49612,-0.1 -0.68258,0.13502 -0.84439,0.098 -0.68672,-0.15712 0.1367,-0.22118 0.0994,-0.26769 -0.11063,-0.1379 -0.81109,0.50128 -4.01485,-3.49747 -3.62211,-4.52093 0.0938,-0.24442 0.036,-0.31456 -0.15949,-0.19371 -0.20657,0.12766 -0.24971,0.0414 -0.13229,-0.26458 0.10348,-0.26969 0.068,-0.38839 -0.0873,-0.29237 -0.14386,0.0889 -0.26156,0.0455 -0.26156,-0.0965 0,-0.14198 0.0893,-0.29783 0.19844,-0.34634 0.10914,-0.0485 -0.13726,-0.41642 -0.54756,-0.81759 -0.70173,-0.68611 -0.73522,-0.69397 -0.56427,-0.1323 0.0999,0.32841 0.47154,1.2391 0.82575,2.02375 0.3542,0.78465 0.66765,1.75531 0.69656,2.15703 0.0289,0.40172 0.12179,0.68784 0.20642,0.63581 0.25078,-0.15415 1.03675,2.62569 1.03675,3.66683 0,0.75295 -0.0874,0.92709 -0.40423,0.80551 -0.22232,-0.0853 -0.53186,-0.3936 -0.68785,-0.68508 -0.20488,-0.38282 -0.20284,-0.48004 0.007,-0.35014 0.46627,0.28817 0.33515,-0.27993 -0.15669,-0.67889 -0.30418,-0.24674 -0.38398,-0.25712 -0.24897,-0.0324 0.10929,0.18191 0.14185,0.33073 0.0724,0.33073 -0.22774,0 -1.29175,-1.87634 -1.14641,-2.02168 0.078,-0.078 0.32491,0.19618 0.54875,0.60923 0.22385,0.41305 0.41097,0.63193 0.41584,0.48641 0.005,-0.14552 -0.22771,-0.62177 -0.51683,-1.05833 -0.28912,-0.43656 -0.52646,-0.63034 -0.52742,-0.43063 -0.001,0.26047 -0.0952,0.28553 -0.33248,0.0887 -0.24665,-0.20471 -0.33653,-0.12887 -0.35358,0.29833 -0.0126,0.31505 -0.11309,0.81094 -0.22339,1.10198 -0.15989,0.42189 -0.14267,0.44871 0.0849,0.13229 0.44382,-0.61697 0.37255,0.43285 -0.11675,1.7198 -0.22132,0.58208 -0.47304,1.27245 -0.5594,1.53416 -0.43639,1.32254 -1.59955,-0.30777 -2.75275,-3.8583 -0.92912,-2.86062 -0.41343,-5.41599 1.50071,-7.43638 0.39845,-0.42057 0.56544,-0.71168 0.37109,-0.64689 -0.31965,0.10655 -2.19683,-1.64055 -1.98757,-1.84982 0.0485,-0.0485 0.42021,0.12937 0.82602,0.39526 0.7098,0.46508 0.73084,0.46523 0.55379,0.004 -0.1496,-0.38983 -0.0853,-0.44826 0.34346,-0.31218 0.71944,0.22834 0.66877,-0.082 -0.0678,-0.41531 -0.32742,-0.14817 -0.89296,-0.44832 -1.25677,-0.667 -1.21081,-0.72781 -4.51922,0.0561 -4.5657,1.08178 -0.007,0.14552 -0.18839,0.39357 -0.40398,0.55122 -0.34028,0.24882 -0.33502,0.28663 0.0399,0.28663 0.23753,0 0.44676,-0.0992 0.46495,-0.22049 0.0182,-0.12126 0.048,-0.34389 0.0661,-0.49472 0.0433,-0.35874 0.74224,-0.78584 1.01262,-0.61873 0.11609,0.0717 0.21107,0.0181 0.21107,-0.11928 0,-0.27437 3.44497,-0.0966 3.76703,0.19435 0.10733,0.097 -0.60704,0.17498 -1.5875,0.17335 -0.98046,-0.002 -2.01054,0.10342 -2.28908,0.23346 -0.39984,0.18667 -0.46052,0.15736 -0.2883,-0.13926 0.12934,-0.22278 0.12008,-0.28595 -0.0228,-0.15521 -0.13247,0.12127 -0.24648,0.29986 -0.25335,0.39688 -0.007,0.097 -0.39,0.7592 -0.85138,1.47152 -0.46138,0.71232 -1.01705,1.84342 -1.23482,2.51354 -0.42135,1.29657 -1.18407,8.85929 -1.85734,18.41632 -0.22553,3.20146 -0.44466,6.29709 -0.48695,6.87917 -0.0423,0.58208 -0.13148,0.0275 -0.1982,-1.23239 z m 9.13902,-17.07414 c -0.23676,-0.40891 -0.34986,-0.50534 -0.25132,-0.2143 0.0985,0.29104 0.24604,0.76422 0.32779,1.05151 0.0818,0.28729 0.19485,0.38372 0.25133,0.2143 0.0565,-0.16943 -0.091,-0.6426 -0.3278,-1.05151 z m 6.33994,-3.19086 c -0.8865,-1.37861 -1.18048,-1.77083 -1.18048,-1.57497 0,0.28868 1.30228,2.30257 1.48895,2.30257 0.0877,0 -0.0511,-0.32742 -0.30847,-0.7276 z m 1.54455,-1.98438 c -1.05598,-2.01648 -1.50714,-2.5988 -2.5624,-3.30729 -1.19582,-0.80286 -2.54388,-1.1417 -2.54388,-0.63941 0,0.44551 0.35903,0.5599 0.75405,0.24024 0.25892,-0.20953 0.34013,-0.21874 0.2243,-0.0254 -0.0999,0.16665 0.003,0.37365 0.22753,0.45999 0.23426,0.0899 0.34002,0.0452 0.24745,-0.10457 -0.34641,-0.56051 0.35575,-0.21683 1.42247,0.69625 0.71817,0.61473 1.49445,1.70459 2.16725,3.04271 0.57655,1.1467 1.115,2.08491 1.19657,2.08491 0.0816,0 -0.42844,-1.10133 -1.13334,-2.4474 z m -4.43211,-0.9676 c -0.5812,-1.12392 -0.76973,-1.03668 -0.2256,0.10438 0.24201,0.5075 0.48699,0.87575 0.5444,0.81834 0.0574,-0.0574 -0.0861,-0.47263 -0.3188,-0.92272 z m -3.14672,-0.96204 c 0.24613,-0.64142 -0.0973,-0.75721 -0.42574,-0.14354 -0.20478,0.38264 -0.20881,0.55183 -0.0131,0.55183 0.1552,0 0.3527,-0.18373 0.43887,-0.40829 z m -25.53952,-0.0547 c 0.0186,-0.10914 0.063,-0.49044 0.0987,-0.84733 l 0.065,-0.64889 -0.49561,0.61206 c -0.27259,0.33663 -0.49561,0.71792 -0.49561,0.84732 0,0.28413 0.77953,0.31883 0.82751,0.0368 z m 18.85949,-1.6316 c -0.17135,-0.17517 -0.2865,0.0528 -0.45662,0.90399 l -0.15864,0.79375 0.36154,-0.79375 c 0.19886,-0.43656 0.31303,-0.84336 0.25372,-0.90399 z m -15.27425,-1.51832 c -0.14811,-0.14811 -1.76317,0.78906 -1.76525,1.02433 -9.2e-4,0.10423 0.42013,-0.0594 0.93567,-0.36353 0.51553,-0.30418 0.88885,-0.60153 0.82958,-0.6608 z m 16.22474,0.42863 c 0,-0.31573 -0.59178,-0.21782 -0.85584,0.1416 -0.36146,0.49199 -0.20537,0.68162 0.32668,0.39687 0.29104,-0.15576 0.52916,-0.39807 0.52916,-0.53847 z m -10.44467,-7.82268 c -0.2767,-0.53057 -0.40048,-0.62081 -0.40161,-0.29278 -10e-4,0.42774 0.557,1.28833 0.7307,1.12599 0.039,-0.0364 -0.10911,-0.41138 -0.32909,-0.83321 z m -6.75324,-0.82604 c 0,-0.20092 -0.99233,0.45509 -1.34468,0.88895 -0.23212,0.28582 -0.0473,0.22193 0.48478,-0.16761 0.47295,-0.34622 0.8599,-0.67082 0.8599,-0.72134 z m 7.11433,-2.06716 c 0.46635,-0.7904 0.49117,-0.95895 0.15995,-1.08606 -0.68036,-0.26108 -0.14706,-0.61207 0.73962,-0.48679 0.70639,0.0998 0.73812,0.0851 0.18818,-0.0874 -0.6064,-0.19017 -0.55423,-0.23751 0.62677,-0.56878 1.13514,-0.3184 1.31549,-0.31263 1.51763,0.0486 0.12617,0.22546 0.67537,0.49359 1.22045,0.59584 1.12761,0.21154 2.0425,0.64063 1.8265,0.85664 -0.0801,0.0801 -0.0197,0.38089 0.13414,0.66843 0.18661,0.34868 0.36794,0.43462 0.54449,0.25807 0.78305,-0.78305 -2.31796,-2.95884 -4.22513,-2.96452 -1.1762,-0.004 -3.16414,1.05437 -4.29068,2.28326 -0.56557,0.61695 -0.66857,0.80638 -0.26458,0.48664 0.3638,-0.28794 0.72098,-0.58877 0.79375,-0.66851 0.0728,-0.0797 0.39141,-0.16098 0.70811,-0.18052 l 0.57582,-0.0355 -0.53581,0.90812 c -0.2947,0.49948 -0.47628,0.90813 -0.40352,0.90813 0.0728,0 0.3807,-0.42102 0.68431,-0.9356 z"
       id="path8445" />
    <path
       style="fill:#769076;stroke-width:1.18514"
       d="m 134.46974,164.47256 c -0.0914,-0.50932 -0.28564,-3.48589 -0.43174,-6.61458 -0.44175,-9.46047 -0.71309,-10.94857 -2.32076,-12.72807 -1.7153,-1.89864 -3.33355,-2.30639 -5.01908,-1.26467 -0.49778,0.30764 -0.97816,0.48624 -1.06752,0.39688 -0.0894,-0.0894 -0.0165,-0.16248 0.16183,-0.16248 0.17836,0 0.24581,-0.12698 0.14989,-0.28218 -0.29316,-0.47434 0.73289,-1.04411 1.59838,-0.88759 0.60196,0.10886 0.69785,0.0767 0.39688,-0.13304 -0.30895,-0.2153 -0.1917,-0.27658 0.52916,-0.27658 0.50932,0 1.10464,0.11541 1.32292,0.25648 0.32678,0.21118 0.33067,0.25719 0.022,0.26053 -0.20616,0.002 -0.31274,0.0661 -0.23685,0.14203 0.0759,0.0759 0.41494,0.0355 0.75346,-0.0897 0.59763,-0.22108 0.58992,-0.2366 -0.26565,-0.53485 -1.79969,-0.62738 -3.62243,-0.22302 -5.27933,1.17117 -0.46027,0.38729 -0.89461,0.64643 -0.96518,0.57585 -0.16083,-0.16082 1.32727,-1.30311 2.45263,-1.88268 1.86013,-0.95799 5.14766,-0.0673 6.5481,1.77407 0.9473,1.24556 1.6825,3.33778 1.83827,5.2313 0.13341,1.62165 0.12953,1.63567 -0.10068,0.36375 -0.57047,-3.15201 -0.56937,-3.14818 -0.80292,-2.77028 -0.15388,0.24897 -0.21958,0.0892 -0.20301,-0.49363 0.0283,-0.99669 -0.42311,-1.64296 -0.68002,-0.97347 -0.0904,0.23562 -0.0592,0.36337 0.0694,0.28389 0.12861,-0.0795 0.3021,0.0334 0.38554,0.25084 0.0834,0.21744 0.0475,0.39535 -0.0798,0.39535 -0.12733,0 -0.10362,0.41672 0.0527,0.92605 0.15631,0.50932 0.35939,0.92604 0.45127,0.92604 0.0919,0 0.11822,0.41836 0.0585,0.92968 -0.0597,0.51133 0.0384,1.10671 0.21794,1.32307 0.23367,0.28155 0.32535,1.80375 0.32248,5.35417 -0.002,2.72843 0.10632,5.84149 0.24115,6.9179 0.25587,2.04277 0.1682,3.22183 -0.12007,1.61476 z m -2.35067,-20.51504 c -0.53412,-0.50392 -1.06838,-0.91225 -1.18723,-0.90741 -0.11886,0.005 0.0467,0.22819 0.36796,0.49632 0.32123,0.26814 0.51048,0.5611 0.42055,0.65104 -0.0899,0.0899 0.0552,0.40518 0.3225,0.70055 0.34258,0.37855 0.56884,0.45421 0.76668,0.25637 0.19784,-0.19783 -0.006,-0.55106 -0.69046,-1.19687 z"
       id="path8444" />
    <path
       style="fill:#769076;stroke-width:1.18514"
       d="m 136.73559,165.3986 c 0.003,-0.58208 0.0571,-0.78905 0.1204,-0.45994 0.0633,0.32912 0.0609,0.80537 -0.005,1.05834 -0.0662,0.25296 -0.118,-0.0163 -0.11506,-0.5984 z"
       id="path8443" />
    <path
       style="fill:#769076;stroke-width:1.18514"
       d="m 114.97303,175.32048 c 0,-1.08976 3.73882,-2.86202 8.6559,-4.10306 4.94186,-1.24728 5.02708,-1.24077 6.95452,0.53118 0.93437,0.85899 1.82775,1.45669 2.18051,1.45882 0.32869,0.002 0.88075,0.0794 1.2268,0.17201 l 0.62918,0.16839 -0.11339,-3.99146 c -0.0624,-2.19531 -0.0306,-3.94027 0.0707,-3.8777 0.25677,0.1587 0.50411,-0.57352 0.50411,-1.49232 0,-0.42466 0.11104,-0.77211 0.24676,-0.77211 0.32748,0 0.61724,0.94464 0.68984,2.24895 0.11519,2.06941 0.14885,2.19181 0.40016,1.45521 0.14007,-0.41057 0.19436,0.61808 0.14312,2.71198 l -0.0825,3.37344 h 1.48982 c 1.47293,0 1.50707,-0.0179 3.01101,-1.57546 l 1.52118,-1.57546 3.10335,1.06819 c 4.45851,1.53466 7.81345,3.42796 7.36374,4.1556 -0.25032,0.40503 -37.99477,0.44853 -37.99477,0.0438 z m 20.92641,-6.63726 c -0.16913,-0.42308 -0.26103,-0.48974 -0.27214,-0.1974 -0.0223,0.58649 0.32022,1.45807 0.43622,1.11007 0.0502,-0.15064 -0.0236,-0.56133 -0.16408,-0.91267 z m -0.90027,-0.70493 c -0.0666,-0.25466 -0.121,-0.0463 -0.121,0.46302 0,0.50932 0.0544,0.71768 0.121,0.46302 0.0666,-0.25466 0.0666,-0.67138 0,-0.92604 z"
       id="path8441" />
    <path
       style="fill:#83745a;stroke-width:1.18514"
       d="m 132.90164,121.15836 c 0.32912,-0.0633 0.80537,-0.0609 1.05833,0.005 0.25297,0.0662 -0.0163,0.118 -0.5984,0.11506 -0.58208,-0.003 -0.78905,-0.0571 -0.45993,-0.1204 z"
       id="path8325" />
    <path
       style="fill:#83745a;stroke-width:1.18514"
       d="m 135.47824,121.86018 c -0.58208,-0.27545 -0.90359,-0.50394 -0.71447,-0.50775 0.38519,-0.008 1.90509,0.73092 1.90509,0.92589 0,0.15482 0.0783,0.18232 -1.19062,-0.41814 z"
       id="path8324" />
    <path
       style="fill:#83745a;stroke-width:1.18514"
       d="m 134.98393,122.89429 c -0.27187,-0.15796 -1.08562,-0.23038 -1.80834,-0.16094 -0.76894,0.0739 -1.16754,0.0334 -0.9609,-0.0976 0.55262,-0.3503 2.18801,-0.27048 3.16703,0.15457 0.48965,0.21259 0.71168,0.38756 0.49339,0.38883 -0.21828,10e-4 -0.61931,-0.12693 -0.89118,-0.28488 z"
       id="path8322" />
    <path
       style="fill:#83745a;stroke-width:1.18514"
       d="m 128.98215,123.07996 c 0.34936,-0.37188 0.67499,-0.67615 0.72362,-0.67615 0.23846,0 -0.61802,1.06802 -0.96249,1.20021 -0.21799,0.0836 -0.1105,-0.15218 0.23887,-0.52406 z"
       id="path8320" />
    <path
       style="fill:#83745a;stroke-width:1.18514"
       d="m 123.55641,125.7257 c 0.28248,-0.22631 0.6992,-0.40207 0.92605,-0.39058 0.35628,0.018 0.3584,0.0409 0.0156,0.16804 -0.21828,0.0809 -0.635,0.2567 -0.92604,0.39058 -0.5207,0.23953 -0.52095,0.23685 -0.0156,-0.16804 z"
       id="path8316" />
    <path
       style="fill:#83745a;stroke-width:1.18514"
       d="m 118.96418,129.61371 c 0.0123,-0.10914 0.51833,-0.60966 1.12448,-1.11227 l 1.10208,-0.91382 -1.04588,1.11226 c -1.07566,1.14393 -1.21919,1.25502 -1.18068,0.91383 z"
       id="path8312" />
    <path
       style="fill:#83745a;stroke-width:1.18514"
       d="m 139.39668,130.20902 c 0.001,-0.87313 0.0509,-1.19842 0.10977,-0.72287 0.0589,0.47555 0.0577,1.18993 -0.003,1.5875 -0.0604,0.39758 -0.10855,0.008 -0.10707,-0.86463 z"
       id="path8311" />
    <path
       style="fill:#83745a;stroke-width:1.18514"
       d="m 131.18468,131.13506 c 0,-0.65484 0.0516,-0.92273 0.11466,-0.59531 0.0631,0.32742 0.0631,0.8632 0,1.19062 -0.0631,0.32743 -0.11466,0.0595 -0.11466,-0.59531 z"
       id="path8309" />
    <path
       style="fill:#83745a;stroke-width:1.18514"
       d="m 138.35425,130.34131 c 0,-1.52797 0.0437,-2.15305 0.0972,-1.38906 0.0534,0.76398 0.0534,2.01414 0,2.77812 -0.0534,0.76399 -0.0972,0.13891 -0.0972,-1.38906 z"
       id="path8306" />
    <path
       style="fill:#83745a;stroke-width:1.18514"
       d="m 146.81875,135.81561 c -0.0993,-0.17321 -0.0868,-0.23038 0.0277,-0.12704 0.11454,0.10334 0.55035,0.011 0.96846,-0.20523 0.41811,-0.21622 0.7602,-0.28265 0.7602,-0.14762 0,0.42056 -1.54789,0.84349 -1.75636,0.47989 z"
       id="path8301" />
    <path
       style="fill:#83745a;stroke-width:1.18514"
       d="m 152.39493,136.88979 -0.77711,-0.8599 0.8599,0.77711 c 0.47294,0.42741 0.85989,0.81436 0.85989,0.85989 0,0.20441 -0.21831,0.0244 -0.94268,-0.7771 z"
       id="path8296" />
    <path
       style="fill:#83745a;stroke-width:1.18514"
       d="m 150.3713,140.52095 c -0.0818,-0.28729 -0.22927,-0.76047 -0.3278,-1.05151 -0.0985,-0.29105 0.0146,-0.19461 0.25133,0.2143 0.23676,0.4089 0.38427,0.88208 0.32779,1.05151 -0.0565,0.16942 -0.16957,0.073 -0.25132,-0.2143 z"
       id="path8291" />
    <path
       style="fill:#83745a;stroke-width:1.18514"
       d="m 137.79926,139.86631 c 0,-0.65484 0.0516,-0.92273 0.11466,-0.59531 0.0631,0.32742 0.0631,0.8632 0,1.19062 -0.0631,0.32742 -0.11466,0.0595 -0.11466,-0.59531 z"
       id="path8290" />
    <path
       style="fill:#83745a;stroke-width:1.18514"
       d="m 144.67843,140.66 c 0,-0.65484 0.0516,-0.92273 0.11466,-0.59531 0.0631,0.32742 0.0631,0.8632 0,1.19062 -0.0631,0.32742 -0.11466,0.0595 -0.11466,-0.59531 z"
       id="path8286" />
    <path
       style="fill:#83745a;stroke-width:1.18514"
       d="m 127.73918,142.06512 c 0.25466,-0.0666 0.67138,-0.0666 0.92604,0 0.25466,0.0666 0.0463,0.121 -0.46302,0.121 -0.50932,0 -0.71768,-0.0545 -0.46302,-0.121 z"
       id="path8285" />
    <path
       style="fill:#83745a;stroke-width:1.18514"
       d="m 137.52934,142.64443 c 0.003,-0.58209 0.0571,-0.78906 0.1204,-0.45994 0.0633,0.32912 0.0609,0.80537 -0.005,1.05833 -0.0662,0.25297 -0.118,-0.0163 -0.11506,-0.59839 z"
       id="path8282" />
    <path
       style="fill:#83745a;stroke-width:1.18514"
       d="m 156.09909,142.97515 -0.7771,-0.85989 0.85989,0.7771 c 0.47295,0.42741 0.8599,0.81437 0.8599,0.8599 0,0.20441 -0.21831,0.0244 -0.94269,-0.77711 z"
       id="path8281" />
    <path
       style="fill:#83745a;stroke-width:1.18514"
       d="m 124.67617,143.47748 c 0.89624,-0.74554 1.93854,-1.31811 2.10196,-1.15469 0.065,0.065 -0.23428,0.26408 -0.66499,0.44249 -0.4307,0.17841 -0.98876,0.55162 -1.24011,0.82936 -0.25136,0.27775 -0.56676,0.50499 -0.70089,0.50499 -0.13413,0 0.0927,-0.27996 0.50403,-0.62215 z"
       id="path8279" />
    <path
       style="fill:#83745a;stroke-width:1.18514"
       d="m 138.32843,144.89338 c 0,-0.65484 0.0516,-0.92273 0.11466,-0.59531 0.0631,0.32742 0.0631,0.8632 0,1.19063 -0.0631,0.32742 -0.11466,0.0595 -0.11466,-0.59532 z"
       id="path8276" />
    <path
       style="fill:#83745a;stroke-width:1.18514"
       d="m 137.27009,145.95173 c 0,-0.65485 0.0516,-0.92274 0.11467,-0.59532 0.0631,0.32743 0.0631,0.86321 0,1.19063 -0.0631,0.32742 -0.11467,0.0595 -0.11467,-0.59531 z"
       id="path8274" />
    <path
       style="fill:#83745a;stroke-width:1.18514"
       d="m 138.05317,147.80381 c 0,-0.50932 0.0545,-0.71768 0.121,-0.46302 0.0666,0.25466 0.0666,0.67138 0,0.92604 -0.0666,0.25466 -0.121,0.0463 -0.121,-0.46302 z"
       id="path8268" />
    <path
       style="fill:#83745a;stroke-width:1.18514"
       d="m 133.55525,149.65589 c 0,-0.50932 0.0545,-0.71768 0.121,-0.46302 0.0665,0.25466 0.0665,0.67138 0,0.92604 -0.0666,0.25467 -0.121,0.0463 -0.121,-0.46302 z"
       id="path8262" />
    <path
       style="fill:#83745a;stroke-width:1.18514"
       d="m 124.30017,149.5236 c 0.003,-0.58208 0.0571,-0.78905 0.12041,-0.45993 0.0633,0.32911 0.0609,0.80536 -0.005,1.05833 -0.0662,0.25296 -0.118,-0.0163 -0.11507,-0.5984 z"
       id="path8261" />
    <path
       style="fill:#83745a;stroke-width:1.18514"
       d="m 133.84527,152.6986 c 0.001,-1.01864 0.049,-1.40294 0.10627,-0.85399 0.0573,0.54895 0.0563,1.38238 -0.002,1.85208 -0.0584,0.4697 -0.10532,0.0206 -0.10414,-0.99809 z"
       id="path8250" />
    <path
       style="fill:#83745a;stroke-width:1.18514"
       d="m 137.53468,154.68298 c 0,-0.65485 0.0516,-0.92274 0.11466,-0.59532 0.0631,0.32743 0.0631,0.86321 0,1.19063 -0.0631,0.32742 -0.11466,0.0595 -0.11466,-0.59531 z"
       id="path8245" />
    <path
       style="fill:#83745a;stroke-width:1.18514"
       d="m 135.16819,157.4611 c 10e-4,-1.01864 0.049,-1.40294 0.10627,-0.85399 0.0573,0.54895 0.0563,1.38238 -0.002,1.85208 -0.0585,0.4697 -0.10531,0.0206 -0.10413,-0.99809 z"
       id="path8237" />
    <path
       style="fill:#83745a;stroke-width:1.18514"
       d="m 137.27732,158.12256 c 0,-0.80036 0.0496,-1.12779 0.11022,-0.7276 0.0606,0.40018 0.0606,1.05502 0,1.4552 -0.0606,0.40019 -0.11022,0.0728 -0.11022,-0.7276 z"
       id="path8235" />
    <path
       style="fill:#83745a;stroke-width:1.18514"
       d="m 134.11841,159.44548 c 0,-1.38245 0.0446,-1.948 0.0991,-1.25677 0.0545,0.69122 0.0545,1.82231 0,2.51354 -0.0545,0.69122 -0.0991,0.12567 -0.0991,-1.25677 z"
       id="path8230" />
    <path
       style="fill:#83745a;stroke-width:1.18514"
       d="m 137.00017,162.2236 c 0.003,-0.58208 0.0571,-0.78905 0.12041,-0.45993 0.0633,0.32911 0.0609,0.80536 -0.005,1.05833 -0.0662,0.25296 -0.11801,-0.0163 -0.11507,-0.5984 z"
       id="path8226" />
    <path
       style="fill:#83745a;stroke-width:1.18514"
       d="m 136.471,170.69027 c 0.003,-0.58209 0.0571,-0.78906 0.12041,-0.45994 0.0633,0.32912 0.0609,0.80537 -0.005,1.05833 -0.0662,0.25297 -0.118,-0.0163 -0.11507,-0.59839 z"
       id="path8217" />
    <path
       style="fill:#83745a;stroke-width:1.18514"
       d="m 114.97303,175.32055 c 0,-1.08976 3.73882,-2.86202 8.6559,-4.10306 4.94186,-1.24728 5.02708,-1.24077 6.95452,0.53118 0.93437,0.85899 1.82775,1.45669 2.18051,1.45882 0.32869,0.002 0.84775,0.0708 1.15348,0.15284 0.33344,0.0895 0.73046,-0.0254 0.99219,-0.2871 0.23997,-0.23997 0.43632,-0.30875 0.43632,-0.15283 0,0.33816 0.58061,0.26123 0.85584,-0.1134 0.12039,-0.16385 0.19593,-0.13867 0.19844,0.0661 0.003,0.22591 0.48801,0.33073 1.53108,0.33073 1.51838,0 1.53566,-0.009 3.04822,-1.57546 l 1.52118,-1.57546 3.10335,1.06819 c 4.45851,1.53466 7.81345,3.42796 7.36374,4.1556 -0.25032,0.40503 -37.99477,0.44853 -37.99477,0.0438 z"
       id="path8215" />
    <path
       style="fill:#726a50;stroke-width:1.18514"
       d="m 132.20141,122.64398 c 0.20153,-0.12763 0.90219,-0.22448 1.55704,-0.21522 1.41078,0.02 1.16097,0.14725 -0.631,0.32156 -0.79613,0.0774 -1.15174,0.0366 -0.92604,-0.10634 z"
       id="path8080" />
    <path
       style="fill:#726a50;stroke-width:1.18514"
       d="m 118.96088,129.61371 c 0.0105,-0.10914 0.45699,-0.54926 0.99219,-0.97803 l 0.97309,-0.7796 -0.9118,0.97803 c -0.94225,1.0107 -1.08596,1.11705 -1.05348,0.7796 z"
       id="path8073" />
    <path
       style="fill:#726a50;stroke-width:1.18514"
       d="m 139.39668,130.20902 c 0.001,-0.87313 0.0509,-1.19842 0.10977,-0.72287 0.0589,0.47555 0.0577,1.18993 -0.003,1.5875 -0.0604,0.39758 -0.10855,0.008 -0.10707,-0.86463 z"
       id="path8072" />
    <path
       style="fill:#726a50;stroke-width:1.18514"
       d="m 138.34707,129.67985 c 9.6e-4,-1.16416 0.0475,-1.6075 0.10337,-0.98519 0.0559,0.62231 0.0551,1.57481 -0.002,2.11667 -0.0568,0.54185 -0.10258,0.0327 -0.10162,-1.13148 z"
       id="path8071" />
    <path
       style="fill:#726a50;stroke-width:1.18514"
       d="m 150.3713,140.52095 c -0.0818,-0.28729 -0.22927,-0.76047 -0.3278,-1.05151 -0.0985,-0.29105 0.0146,-0.19461 0.25133,0.2143 0.23676,0.4089 0.38427,0.88208 0.32779,1.05151 -0.0565,0.16942 -0.16957,0.073 -0.25132,-0.2143 z"
       id="path8055" />
    <path
       style="fill:#726a50;stroke-width:1.18514"
       d="m 137.79926,139.86631 c 0,-0.65484 0.0516,-0.92273 0.11466,-0.59531 0.0631,0.32742 0.0631,0.8632 0,1.19062 -0.0631,0.32742 -0.11466,0.0595 -0.11466,-0.59531 z"
       id="path8054" />
    <path
       style="fill:#726a50;stroke-width:1.18514"
       d="m 144.67843,140.66006 c 0,-0.65484 0.0516,-0.92273 0.11466,-0.59531 0.0631,0.32742 0.0631,0.8632 0,1.19062 -0.0631,0.32742 -0.11466,0.0595 -0.11466,-0.59531 z"
       id="path8050" />
    <path
       style="fill:#726a50;stroke-width:1.18514"
       d="m 137.524,142.77673 c 0,-0.50933 0.0545,-0.71769 0.121,-0.46302 0.0665,0.25466 0.0665,0.67138 0,0.92604 -0.0666,0.25466 -0.121,0.0463 -0.121,-0.46302 z"
       id="path8047" />
    <path
       style="fill:#726a50;stroke-width:1.18514"
       d="m 156.09909,142.97516 -0.7771,-0.85989 0.85989,0.7771 c 0.47295,0.42741 0.8599,0.81437 0.8599,0.8599 0,0.20441 -0.21831,0.0244 -0.94269,-0.77711 z"
       id="path8046" />
    <path
       style="fill:#726a50;stroke-width:1.18514"
       d="m 138.32843,144.89339 c 0,-0.65484 0.0516,-0.92273 0.11466,-0.59531 0.0631,0.32742 0.0631,0.8632 0,1.19063 -0.0631,0.32742 -0.11466,0.0595 -0.11466,-0.59532 z"
       id="path8042" />
    <path
       style="fill:#726a50;stroke-width:1.18514"
       d="m 137.26475,146.08402 c 0.003,-0.58208 0.0571,-0.78906 0.12041,-0.45994 0.0633,0.32912 0.0609,0.80537 -0.005,1.05834 -0.0662,0.25296 -0.118,-0.0163 -0.11507,-0.5984 z"
       id="path8040" />
    <path
       style="fill:#726a50;stroke-width:1.18514"
       d="m 138.05317,147.80381 c 0,-0.50932 0.0545,-0.71768 0.121,-0.46302 0.0666,0.25466 0.0666,0.67138 0,0.92604 -0.0666,0.25466 -0.121,0.0463 -0.121,-0.46302 z"
       id="path8034" />
    <path
       style="fill:#726a50;stroke-width:1.18514"
       d="m 133.55525,149.65589 c 0,-0.50932 0.0545,-0.71768 0.121,-0.46302 0.0665,0.25466 0.0665,0.67138 0,0.92604 -0.0666,0.25467 -0.121,0.0463 -0.121,-0.46302 z"
       id="path8028" />
    <path
       style="fill:#726a50;stroke-width:1.18514"
       d="m 137.53468,154.68298 c 0,-0.65485 0.0516,-0.92274 0.11466,-0.59532 0.0631,0.32743 0.0631,0.86321 0,1.19063 -0.0631,0.32742 -0.11466,0.0595 -0.11466,-0.59531 z"
       id="path8013" />
    <path
       style="fill:#726a50;stroke-width:1.18514"
       d="m 137.26475,157.99027 c 0.003,-0.58209 0.0571,-0.78906 0.12041,-0.45994 0.0633,0.32912 0.0609,0.80537 -0.005,1.05834 -0.0662,0.25296 -0.118,-0.0163 -0.11507,-0.5984 z"
       id="path8005" />
    <path
       style="fill:#726a50;stroke-width:1.18514"
       d="m 135.16335,157.72568 c 0.001,-0.87312 0.0509,-1.19841 0.10977,-0.72286 0.0589,0.47555 0.0577,1.18992 -0.003,1.5875 -0.0604,0.39758 -0.10855,0.008 -0.10707,-0.86464 z"
       id="path8004" />
    <path
       style="fill:#726a50;stroke-width:1.18514"
       d="m 134.11373,159.0486 c 9.6e-4,-1.16417 0.0475,-1.6075 0.10337,-0.98519 0.0559,0.62231 0.0551,1.57481 -0.002,2.11666 -0.0569,0.54186 -0.10259,0.0327 -0.10163,-1.13147 z"
       id="path7999" />
    <path
       style="fill:#726a50;stroke-width:1.18514"
       d="m 137.00017,162.2236 c 0.003,-0.58208 0.0571,-0.78905 0.12041,-0.45993 0.0633,0.32911 0.0609,0.80536 -0.005,1.05833 -0.0662,0.25296 -0.11801,-0.0163 -0.11507,-0.5984 z"
       id="path7994" />
    <path
       style="fill:#726a50;stroke-width:1.18514"
       d="m 151.50709,174.10351 c -0.5761,-0.40921 -1.10443,-0.58682 -1.45521,-0.48917 -0.41424,0.11531 -0.45752,0.089 -0.17464,-0.10612 0.41608,-0.287 -0.0904,-0.54567 -3.68338,-1.88125 -3.55759,-1.32243 -3.45622,-1.3318 -5.21425,0.48166 l -1.53807,1.58655 -1.58478,-0.0172 c -1.0927,-0.0119 -1.37939,-0.0755 -0.92331,-0.20508 0.3638,-0.10335 1.0338,-0.13344 1.48888,-0.0669 0.73575,0.10763 1.00946,-0.068 2.47055,-1.58553 l 1.64312,-1.70657 2.59677,0.85255 c 2.78519,0.9144 6.07158,2.42465 7.14651,3.28415 0.93161,0.7449 0.3194,0.62825 -0.77219,-0.14714 z"
       id="path7975" />
    <path
       style="fill:#726a50;stroke-width:1.18514"
       d="m 115.16765,175.42693 c -0.54376,-0.54377 1.26547,-1.80049 4.16118,-2.89043 2.08193,-0.78364 7.78312,-2.24308 8.7624,-2.24308 0.49144,0 1.2524,0.47292 2.44321,1.51839 1.46931,1.28998 1.93144,1.5446 3.07205,1.6926 1.28469,0.1667 1.26648,0.17283 -0.42242,0.14226 -0.97075,-0.0176 -1.71719,-0.1093 -1.65876,-0.20385 0.0584,-0.0945 -0.54759,-0.79026 -1.34672,-1.54605 -1.41626,-1.33944 -1.48463,-1.37045 -2.70686,-1.22793 -2.88571,0.33651 -10.00497,2.60399 -9.70413,3.09077 0.0788,0.12755 -0.061,0.15352 -0.31069,0.0577 -0.26295,-0.1009 -0.38779,-0.0671 -0.29665,0.0804 0.0866,0.14004 -0.0931,0.27349 -0.39928,0.29656 -0.30615,0.0231 -0.80006,0.28535 -1.09758,0.58286 l -0.54093,0.54094 18.95005,-0.0649 c 10.42252,-0.0357 18.89484,0.0244 18.82737,0.13351 -0.14422,0.23329 -37.49936,0.27316 -37.73224,0.0403 z"
       id="path7971" />
  </g>
</svg>
