<?xml version="1.0" encoding="UTF-8" standalone="no"?>
<!-- Created with Inkscape (http://www.inkscape.org/) -->

<svg
   width="185"
   height="185"
   viewBox="0 0 48.947914 48.947918"
   version="1.1"
   id="svg1"
   xmlns="http://www.w3.org/2000/svg"
   xmlns:svg="http://www.w3.org/2000/svg">
  <defs
     id="defs1" />
  <g
     id="g8651"
     transform="matrix(0.72457666,0,0,0.72457666,-114.90826,-134.44821)"
     style="stroke-width:1.38012">
    <path
       style="fill:#c4af59;stroke-width:1.38012"
       d="m 171.59386,252.72881 c 0,-0.97586 4.54928,-3.68 8.20209,-4.87541 3.53789,-1.15781 6.33453,-1.6129 9.94832,-1.61887 3.45106,-0.006 3.47091,-0.009 4.59657,-0.82468 1.11699,-0.80915 1.12844,-0.83372 0.95564,-2.05052 -0.415,-2.92224 -0.482,-4.46887 -0.20112,-4.64246 0.4702,-0.2906 1.04893,0.91939 1.25175,2.61714 0.31649,2.64916 0.39344,2.72578 1.5036,1.49696 0.92186,-1.02039 1.73068,-3.15172 3.42968,-9.03758 0.45281,-1.56868 1.17703,-1.66009 1.04815,-0.13229 -0.14553,1.72531 -1.06162,5.36717 -1.63064,6.48254 -0.29097,0.57035 -0.52904,1.10286 -0.52904,1.18334 0,0.0805 1.48938,-0.86726 3.30973,-2.10612 3.28342,-2.23457 4.0986,-2.60649 4.0986,-1.86996 0,0.42791 -3.16757,2.95298 -6.68354,5.32787 l -2.31791,1.56566 0.995,0.18319 c 0.54725,0.10075 2.38695,0.19005 4.08824,0.19844 3.1107,0.0153 4.06197,0.30167 2.70995,0.8157 -1.27946,0.48645 -4.53239,0.61069 -6.94299,0.26516 -2.19505,-0.31462 -2.39659,-0.30242 -3.37544,0.20439 -1.24459,0.64439 -1.36397,0.59198 3.4569,1.51745 6.67159,1.28075 13.62604,3.91914 13.62604,5.16946 0,0.49895 -0.44011,0.50975 -20.76979,0.50975 -17.85439,0 -20.76979,-0.0532 -20.76979,-0.37916 z"
       id="path8634" />
    <path
       style="fill:#8fa38f;stroke-width:1.38012"
       d="m 171.59386,252.72881 c 0,-0.97586 4.54928,-3.68 8.20209,-4.87541 3.53789,-1.15781 6.33453,-1.6129 9.94832,-1.61887 3.45106,-0.006 3.47091,-0.009 4.59657,-0.82468 1.11699,-0.80915 1.12844,-0.83372 0.95564,-2.05052 -0.415,-2.92224 -0.482,-4.46887 -0.20112,-4.64246 0.4702,-0.2906 1.04893,0.91939 1.25175,2.61714 0.31649,2.64916 0.39344,2.72578 1.5036,1.49696 0.92186,-1.02039 1.73068,-3.15172 3.42968,-9.03758 0.45281,-1.56868 1.17703,-1.66009 1.04815,-0.13229 -0.14553,1.72531 -1.06162,5.36717 -1.63064,6.48254 -0.29097,0.57035 -0.52904,1.10286 -0.52904,1.18334 0,0.0805 1.48938,-0.86726 3.30973,-2.10612 3.28342,-2.23457 4.0986,-2.60649 4.0986,-1.86996 0,0.42791 -3.16757,2.95298 -6.68354,5.32787 l -2.31791,1.56566 0.995,0.18319 c 0.54725,0.10075 2.38695,0.19005 4.08824,0.19844 3.1107,0.0153 4.06197,0.30167 2.70995,0.8157 -1.27946,0.48645 -4.53239,0.61069 -6.94299,0.26516 -2.19505,-0.31462 -2.39659,-0.30242 -3.37544,0.20439 -1.24459,0.64439 -1.36397,0.59198 3.4569,1.51745 6.67159,1.28075 13.62604,3.91914 13.62604,5.16946 0,0.49895 -0.44011,0.50975 -20.76979,0.50975 -17.85439,0 -20.76979,-0.0532 -20.76979,-0.37916 z"
       id="path8598" />
    <path
       style="fill:#9d9c66;stroke-width:1.38012"
       d="m 176.42251,252.90355 c -2.80465,-0.0419 -4.82865,-0.17693 -4.82865,-0.32216 0,-0.38464 2.59303,-2.2345 4.36563,-3.11442 4.28264,-2.1259 9.30169,-3.27465 14.07242,-3.22086 3.29634,0.0372 3.30712,0.0353 4.27342,-0.75019 1.08267,-0.88006 1.13142,-1.19652 0.73287,-4.75724 -0.18837,-1.6829 -0.16193,-1.91823 0.21557,-1.91823 0.52647,0 0.82315,0.73713 1.0649,2.64584 0.31008,2.44829 0.32042,2.46376 1.20826,1.80736 0.9482,-0.70103 1.86125,-2.80518 3.14724,-7.2529 1.0036,-3.47103 1.61292,-4.44782 1.6095,-2.58016 -0.002,1.31007 -0.86169,4.88397 -1.57289,6.54179 -0.30537,0.71182 -0.52246,1.32685 -0.48242,1.36673 0.04,0.0399 1.55499,-0.92947 3.36657,-2.15412 3.28208,-2.21871 3.98226,-2.5474 3.98226,-1.86941 0,0.41201 -4.24725,3.74321 -7.10553,5.573 -1.07039,0.68523 -1.88457,1.30746 -1.8093,1.38273 0.24825,0.24825 1.59635,0.35038 4.89677,0.37097 3.64647,0.0228 4.21154,0.39947 1.48414,0.98946 -1.48652,0.32156 -3.19888,0.29203 -6.70211,-0.11558 -1.10827,-0.12895 -1.63017,-0.0591 -2.3151,0.30974 -0.48636,0.26192 -0.88428,0.56019 -0.88428,0.66283 0,0.10264 0.92273,0.33026 2.05052,0.50582 2.82089,0.43913 8.21897,1.76888 10.48796,2.58358 3.38408,1.21509 5.86075,2.67129 5.37292,3.15911 -0.16224,0.16224 -28.2175,0.28195 -36.63067,0.15631 z"
       id="path8557" />
    <path
       style="fill:#78948a;stroke-width:1.38012"
       d="m 171.59386,252.58738 c 0,-0.46071 2.76845,-2.3589 4.77891,-3.27667 4.86023,-2.21869 9.02771,-3.15075 13.6268,-3.04767 2.95072,0.0661 3.25555,0.0264 4.03014,-0.52514 1.28353,-0.91395 1.62179,-1.53091 1.37398,-2.50604 -0.4177,-1.6437 -0.56035,-4.09465 -0.24949,-4.28678 0.49939,-0.30863 0.78388,0.23372 1.0557,2.01265 0.14281,0.93456 0.32076,1.96868 0.39544,2.29805 l 0.1358,0.59885 0.77524,-0.57316 c 0.96285,-0.71187 1.93558,-2.94939 3.18956,-7.33682 0.95581,-3.3442 1.57959,-4.3632 1.57959,-2.58043 0,1.35215 -0.96609,5.29651 -1.60309,6.54514 -0.29947,0.58702 -0.50778,1.1744 -0.46289,1.30529 0.0449,0.13089 1.56107,-0.77097 3.36931,-2.00414 3.06142,-2.0878 3.98833,-2.55914 3.98833,-2.02811 0,0.58077 -2.56186,2.66061 -6.54843,5.31632 -2.49662,1.66315 -2.90886,2.13828 -1.85209,2.13457 3.76771,-0.0132 7.47448,0.18758 7.47448,0.40489 0,0.14552 -0.83343,0.42894 -1.85208,0.62981 -1.53491,0.30269 -2.33632,0.30839 -4.6797,0.0333 -3.02152,-0.35471 -3.69016,-0.28492 -4.68276,0.48881 l -0.63121,0.49202 2.21871,0.33094 c 7.19472,1.07315 16.10933,4.17583 16.10933,5.60676 0,0.12297 -9.3464,0.22358 -20.76979,0.22358 -13.20656,0 -20.76979,-0.0932 -20.76979,-0.25601 z m 32.34531,-7.34372 c -0.47294,-0.0587 -1.24685,-0.0587 -1.71979,0 -0.47294,0.0587 -0.086,0.10671 0.8599,0.10671 0.94588,0 1.33284,-0.048 0.85989,-0.10671 z m -4.89479,-0.25557 c -0.25466,-0.0666 -0.67138,-0.0666 -0.92604,0 -0.25466,0.0666 -0.0463,0.121 0.46302,0.121 0.50932,0 0.71768,-0.0545 0.46302,-0.121 z"
       id="path8533" />
    <path
       style="fill:#769076;stroke-width:1.38012"
       d="m 171.59386,252.58738 c 0,-0.46071 2.76845,-2.3589 4.77891,-3.27667 4.86023,-2.21869 9.02771,-3.15075 13.6268,-3.04767 2.95072,0.0661 3.25555,0.0264 4.03014,-0.52514 1.28353,-0.91395 1.62179,-1.53091 1.37398,-2.50604 -0.4177,-1.6437 -0.56035,-4.09465 -0.24949,-4.28678 0.49939,-0.30863 0.78388,0.23372 1.0557,2.01265 0.14281,0.93456 0.32076,1.96868 0.39544,2.29805 l 0.1358,0.59885 0.77524,-0.57316 c 0.96285,-0.71187 1.93558,-2.94939 3.18956,-7.33682 0.95581,-3.3442 1.57959,-4.3632 1.57959,-2.58043 0,1.35215 -0.96609,5.29651 -1.60309,6.54514 -0.29947,0.58702 -0.50778,1.1744 -0.46289,1.30529 0.0449,0.13089 1.56107,-0.77097 3.36931,-2.00414 3.06142,-2.0878 3.98833,-2.55914 3.98833,-2.02811 0,0.58077 -2.56186,2.66061 -6.54843,5.31632 -2.49662,1.66315 -2.90886,2.13828 -1.85209,2.13457 3.76771,-0.0132 7.47448,0.18758 7.47448,0.40489 0,0.14552 -0.83343,0.42894 -1.85208,0.62981 -1.53491,0.30269 -2.33632,0.30839 -4.6797,0.0333 -3.02152,-0.35471 -3.69016,-0.28492 -4.68276,0.48881 l -0.63121,0.49202 2.21871,0.33094 c 7.19472,1.07315 16.10933,4.17583 16.10933,5.60676 0,0.12297 -9.3464,0.22358 -20.76979,0.22358 -13.20656,0 -20.76979,-0.0932 -20.76979,-0.25601 z m 32.34531,-7.34372 c -0.47294,-0.0587 -1.24685,-0.0587 -1.71979,0 -0.47294,0.0587 -0.086,0.10671 0.8599,0.10671 0.94588,0 1.33284,-0.048 0.85989,-0.10671 z m -4.89479,-0.25557 c -0.25466,-0.0666 -0.67138,-0.0666 -0.92604,0 -0.25466,0.0666 -0.0463,0.121 0.46302,0.121 0.50932,0 0.71768,-0.0545 0.46302,-0.121 z"
       id="path8438" />
    <path
       style="fill:#83745a;stroke-width:1.38012"
       d="m 171.59386,252.58738 c 0,-0.46071 2.76845,-2.3589 4.77891,-3.27667 4.85994,-2.21855 9.02776,-3.15075 13.62609,-3.04769 3.15934,0.0708 3.20255,0.0637 4.29383,-0.70894 0.94888,-0.67181 1.21432,-1.0606 1.16641,-1.70845 -0.005,-0.0738 -0.14648,-1.13156 -0.31338,-2.35055 -0.21484,-1.56907 -0.22109,-2.29871 -0.0214,-2.49839 0.47107,-0.47107 0.80657,0.13499 1.08559,1.96104 0.14281,0.93456 0.32076,1.96868 0.39544,2.29805 l 0.1358,0.59885 0.77524,-0.57316 c 0.96285,-0.71187 1.93558,-2.94939 3.18956,-7.33682 0.95581,-3.3442 1.57959,-4.3632 1.57959,-2.58043 0,1.35215 -0.96609,5.29651 -1.60309,6.54514 -0.29947,0.58702 -0.50778,1.1744 -0.46289,1.30529 0.0449,0.13089 1.56107,-0.77097 3.36931,-2.00414 3.06142,-2.0878 3.98833,-2.55914 3.98833,-2.02811 0,0.58077 -2.56186,2.66061 -6.54843,5.31632 -2.49662,1.66315 -2.90886,2.13828 -1.85209,2.13457 3.76771,-0.0132 7.47448,0.18758 7.47448,0.40489 0,0.14552 -0.83343,0.42894 -1.85208,0.62981 -1.53491,0.30269 -2.33632,0.30839 -4.6797,0.0333 -3.02152,-0.35471 -3.69016,-0.28492 -4.68276,0.48881 l -0.63121,0.49202 2.21871,0.33094 c 7.19472,1.07315 16.10933,4.17583 16.10933,5.60676 0,0.12297 -9.3464,0.22358 -20.76979,0.22358 -13.20656,0 -20.76979,-0.0932 -20.76979,-0.25601 z m 32.34531,-7.34372 c -0.47294,-0.0587 -1.24685,-0.0587 -1.71979,0 -0.47294,0.0587 -0.086,0.10671 0.8599,0.10671 0.94588,0 1.33284,-0.048 0.85989,-0.10671 z m -4.89479,-0.25557 c -0.25466,-0.0666 -0.67138,-0.0666 -0.92604,0 -0.25466,0.0666 -0.0463,0.121 0.46302,0.121 0.50932,0 0.71768,-0.0545 0.46302,-0.121 z"
       id="path8212" />
    <path
       style="fill:#726a50;stroke-width:1.38012"
       d="m 204.34946,238.75432 c 0.15215,-0.1819 0.67274,-0.55059 1.15687,-0.8193 l 0.88024,-0.48856 -0.89575,0.81929 c -0.8823,0.80699 -1.70075,1.15733 -1.14136,0.48857 z"
       id="path7968" />
    <path
       style="fill:#726a50;stroke-width:1.38012"
       d="m 200.73965,239.48192 c -7.5e-4,-0.14552 0.15911,-0.6813 0.35525,-1.19062 0.19614,-0.50933 0.36031,-0.74745 0.36482,-0.52917 0.005,0.21828 -0.15536,0.75406 -0.35526,1.19062 -0.1999,0.43657 -0.36407,0.67469 -0.36481,0.52917 z"
       id="path7967" />
    <path
       style="fill:#726a50;stroke-width:1.38012"
       d="m 194.95616,239.61421 c 0.0639,-0.79316 0.80404,-0.89965 0.91934,-0.13229 l 0.0795,0.52917 -0.32674,-0.52917 c -0.31767,-0.51448 -0.33227,-0.51081 -0.5261,0.13229 l -0.19935,0.66146 z"
       id="path7966" />
    <path
       style="fill:#726a50;stroke-width:1.38012"
       d="m 199.478,241.79702 c 0.24193,-0.47294 0.50337,-0.85989 0.58098,-0.85989 0.0776,0 0.0675,0.11906 -0.0224,0.26458 -0.35947,0.58164 0.5548,0.20937 1.82804,-0.74433 1.65922,-1.24282 2.41773,-1.65035 1.34696,-0.72369 -0.43656,0.3778 -0.76103,0.81198 -0.72105,0.96484 0.04,0.15286 -0.0501,0.20202 -0.20024,0.10924 -0.15012,-0.0928 -0.61794,0.077 -1.03959,0.37721 -0.42165,0.30024 -0.85795,0.5459 -0.96955,0.5459 -0.1116,0 -0.43693,0.20836 -0.72295,0.46302 -0.5137,0.45737 -0.51468,0.45252 -0.0802,-0.39688 z"
       id="path7965" />
    <path
       style="fill:#726a50;stroke-width:1.38012"
       d="m 201.44139,241.87652 c 1.64578,-1.08152 3.232,-2.2711 3.52493,-2.64351 0.29294,-0.3724 0.68411,-0.6771 0.86928,-0.6771 0.49509,0 1.4087,-1.05586 0.92271,-1.06638 -0.25342,-0.005 -0.21804,-0.0974 0.11112,-0.28884 0.26558,-0.15443 0.55331,-0.21034 0.63941,-0.12424 0.0861,0.0861 0.0214,0.15654 -0.14383,0.15654 -0.16521,0 -0.24971,0.14883 -0.18778,0.33073 0.17235,0.50627 -7.64725,6.28988 -8.4928,6.28153 -0.12945,-0.001 1.11118,-0.88721 2.75696,-1.96873 z"
       id="path7964" />
    <path
       style="fill:#726a50;stroke-width:1.38012"
       d="m 196.27779,242.97805 c -0.003,-0.75869 0.0428,-1.02225 0.10204,-0.58568 0.19774,1.45848 0.2784,1.52357 1.11844,0.90251 1.00575,-0.74359 1.8903,-2.74899 3.14292,-7.12548 1.02383,-3.5771 1.66735,-4.66177 1.61894,-2.72877 -0.014,0.55783 -0.18853,1.60955 -0.38791,2.33715 -0.32819,1.19768 -0.34949,1.22273 -0.22503,0.26459 0.39769,-3.06145 0.40382,-3.17037 0.15635,-2.77813 -0.13772,0.21828 -0.38103,1.0174 -0.5407,1.77583 -0.48239,2.29137 -2.19874,6.9704 -2.82941,7.71342 -0.32549,0.38346 -0.94241,0.90124 -1.37094,1.1506 l -0.77913,0.45339 z"
       id="path7963" />
    <path
       style="fill:#726a50;stroke-width:1.38012"
       d="m 200.69803,244.93205 c -0.50932,-0.0928 0.41866,-0.16645 2.06219,-0.16361 1.64353,0.003 2.7151,0.0826 2.38125,0.17724 -0.76317,0.21634 -3.22309,0.20879 -4.44344,-0.0136 z"
       id="path7962" />
    <path
       style="fill:#726a50;stroke-width:1.38012"
       d="m 196.83166,245.24449 c 0.18993,-0.18992 2.04725,-0.12166 2.25682,0.0829 0.0606,0.0592 -0.46523,0.10764 -1.16858,0.10764 -0.70335,0 -1.19306,-0.0858 -1.08824,-0.19059 z"
       id="path7961" />
    <path
       style="fill:#726a50;stroke-width:1.38012"
       d="m 204.93136,245.37884 c 0.65484,-0.14528 1.26504,-0.38336 1.35599,-0.52908 0.10876,-0.17425 0.22428,-0.1696 0.3375,0.0136 0.18327,0.29654 -1.44121,0.85288 -2.35495,0.8065 -0.29104,-0.0148 0.007,-0.14573 0.66146,-0.29101 z"
       id="path7960" />
    <path
       style="fill:#726a50;stroke-width:1.38012"
       d="m 201.64326,245.7307 c -0.1622,-0.26243 1.35138,-0.20388 1.61784,0.0626 0.094,0.094 -0.19905,0.17095 -0.65128,0.17095 -0.45222,0 -0.88718,-0.10509 -0.96656,-0.23354 z"
       id="path7959" />
    <path
       style="fill:#726a50;stroke-width:1.38012"
       d="m 190.90845,247.81632 c -0.21829,-0.14106 -0.33735,-0.26822 -0.26459,-0.28258 0.70474,-0.13904 1.27553,-0.11938 1.17671,0.0405 -0.0669,0.10828 0.0279,0.25717 0.21071,0.33087 0.1828,0.0737 0.0942,0.14158 -0.19679,0.15084 -0.29104,0.009 -0.70776,-0.0986 -0.92604,-0.23965 z"
       id="path7958" />
    <path
       style="fill:#726a50;stroke-width:1.38012"
       d="m 183.09001,248.37117 c -0.13825,-0.13139 -0.48948,-0.29617 -0.78052,-0.36618 -0.40789,-0.0981 -0.36599,-0.13432 0.18282,-0.15797 0.39159,-0.0169 0.78915,0.0941 0.88345,0.24674 0.11538,0.18668 0.31521,0.16504 0.61093,-0.0661 0.39316,-0.30738 0.4012,-0.29479 0.0763,0.11944 -0.40966,0.52236 -0.61056,0.56863 -0.97302,0.22412 z"
       id="path7957" />
    <path
       style="fill:#726a50;stroke-width:1.38012"
       d="m 190.48183,248.99867 c -0.24135,-0.36834 -0.36316,-0.74537 -0.27068,-0.83784 0.0925,-0.0925 0.16813,-0.0222 0.16813,0.15616 0,0.17836 0.10545,0.25912 0.23433,0.17947 0.12888,-0.0797 0.29096,0.15145 0.36018,0.51355 0.15881,0.83075 0.0583,0.82843 -0.49196,-0.0113 z"
       id="path7953" />
    <path
       style="fill:#726a50;stroke-width:1.38012"
       d="m 189.22384,249.46122 c 0.0509,-0.0776 -0.0401,-0.3008 -0.20217,-0.49609 -0.20124,-0.24249 -0.20547,-0.35508 -0.0133,-0.35508 0.41447,0 0.67742,0.54241 0.37994,0.78374 -0.14133,0.11465 -0.21533,0.14499 -0.16445,0.0674 z"
       id="path7952" />
    <path
       style="fill:#726a50;stroke-width:1.38012"
       d="m 180.74553,249.36572 c 0.0655,-0.10606 0.3467,-0.17569 0.6248,-0.15474 0.27809,0.0209 0.452,0.12486 0.38645,0.23091 -0.0655,0.10606 -0.3467,0.17569 -0.6248,0.15474 -0.27809,-0.0209 -0.452,-0.12486 -0.38645,-0.23091 z"
       id="path7951" />
    <path
       style="fill:#726a50;stroke-width:1.38012"
       d="m 203.48312,249.50526 c -0.21637,-0.21637 -0.67105,-0.32793 -1.05368,-0.25855 -0.44694,0.0811 -0.67308,0.003 -0.67308,-0.23253 0,-0.34018 0.56663,-0.32126 1.5875,0.053 0.21828,0.08 0.60518,0.1686 0.85977,0.19683 0.708,0.0785 0.81128,0.3208 0.2044,0.4795 -0.29937,0.0783 -0.71558,-0.0289 -0.92491,-0.23826 z"
       id="path7949" />
    <path
       style="fill:#726a50;stroke-width:1.38012"
       d="m 193.98369,249.8541 c 0.10566,-0.30259 -0.0145,-0.61075 -0.33008,-0.84673 -0.46976,-0.35123 -0.46425,-0.36295 0.10323,-0.21994 0.8079,0.20361 0.91188,0.44413 0.44977,1.04041 -0.35056,0.45234 -0.37261,0.45494 -0.22292,0.0263 z"
       id="path7944" />
    <path
       style="fill:#726a50;stroke-width:1.38012"
       d="m 182.70636,250.21333 c 0,-0.18557 -0.17226,-0.27088 -0.3834,-0.18986 -0.26273,0.10082 -0.33461,0.02 -0.2284,-0.25679 0.13845,-0.3608 0.19888,-0.36003 0.56609,0.007 0.2261,0.2261 0.32888,0.49331 0.2284,0.59378 -0.10048,0.10048 -0.18269,0.031 -0.18269,-0.1543 z"
       id="path7943" />
    <path
       style="fill:#726a50;stroke-width:1.38012"
       d="m 188.93465,250.39406 c 0.28522,-0.15597 0.58126,-0.37677 0.65786,-0.49067 0.0766,-0.11389 0.31473,-0.0961 0.52917,0.0395 0.32471,0.20534 0.30987,0.24724 -0.0888,0.25061 -0.26325,0.002 -0.4235,0.0933 -0.35611,0.20249 0.0674,0.10914 -0.18872,0.21717 -0.56913,0.24006 -0.63213,0.038 -0.64702,0.0172 -0.17304,-0.24198 z"
       id="path7942" />
    <path
       style="fill:#726a50;stroke-width:1.38012"
       d="m 192.2274,250.45476 c -0.15795,-0.29512 -0.40026,-0.46669 -0.53848,-0.38126 -0.13822,0.0854 -0.25131,0.0292 -0.25131,-0.12488 0,-0.15411 0.1786,-0.2802 0.39688,-0.2802 0.21828,0 0.39869,0.14883 0.40092,0.33073 0.003,0.22964 0.0775,0.21463 0.24442,-0.0491 0.19921,-0.31481 0.31178,-0.32059 0.65741,-0.0337 0.22937,0.19036 0.41704,0.51012 0.41704,0.71059 0,0.56155 -1.00393,0.43134 -1.32688,-0.1721 z"
       id="path7939" />
    <path
       style="fill:#726a50;stroke-width:1.38012"
       d="m 205.36168,251.31 c -0.37815,-0.61186 -0.38548,-1.28883 -0.014,-1.28883 0.26298,0 0.29101,0.094 0.0976,0.32704 -0.18878,0.22747 -0.17542,0.35905 0.0439,0.43216 0.17342,0.0578 0.25972,0.27188 0.19178,0.47572 -0.0919,0.27568 -0.17368,0.28949 -0.31927,0.0539 z"
       id="path7929" />
    <path
       style="fill:#726a50;stroke-width:1.38012"
       d="m 201.25789,251.18974 c -0.0172,-0.40657 0.10939,-0.7276 0.2868,-0.7276 0.2464,0 0.24662,-0.0709 0.001,-0.31651 -0.24563,-0.24562 -0.39657,-0.20702 -0.67399,0.17237 -0.27901,0.38158 -0.40436,0.41304 -0.57104,0.14334 -0.14116,-0.22839 -0.11,-0.28154 0.0919,-0.15676 0.16801,0.10383 0.30547,0.0627 0.30547,-0.0914 0,-0.15411 -0.20135,-0.2802 -0.44745,-0.2802 -0.40021,0 -0.39595,-0.0377 0.0404,-0.35674 0.26832,-0.1962 0.40311,-0.49386 0.29953,-0.66145 -0.11012,-0.17818 -0.0235,-0.30473 0.20855,-0.30473 0.21828,0 0.48183,0.13746 0.58566,0.30547 0.11024,0.17837 0.0732,0.23405 -0.0889,0.13381 -0.15276,-0.0944 -0.34975,0.016 -0.43776,0.24534 -0.22488,0.58605 -0.23344,0.57896 0.52403,0.43416 0.55769,-0.10661 0.66888,-0.0387 0.60192,0.36742 -0.0452,0.274 0.006,0.63878 0.11402,0.81063 0.10788,0.17184 0.0568,0.3986 -0.11363,0.5039 -0.19347,0.11957 -0.2389,0.0768 -0.12099,-0.11401 0.10383,-0.16801 0.0714,-0.30547 -0.072,-0.30547 -0.14344,0 -0.31525,0.20836 -0.3818,0.46303 -0.0744,0.28486 -0.13281,0.18306 -0.15169,-0.26459 z"
       id="path7926" />
    <path
       style="fill:#726a50;stroke-width:1.38012"
       d="m 197.61966,251.3857 c 0.12087,-0.31499 -0.006,-0.37124 -0.60215,-0.26627 -0.46527,0.082 -0.87267,-0.008 -1.06071,-0.23479 -0.16792,-0.20233 -0.56882,-0.31728 -0.8909,-0.25543 -0.55477,0.10652 -0.55732,0.0997 -0.0483,-0.1296 1.08473,-0.48869 3.14755,0.15417 2.86418,0.89261 -0.0829,0.21606 -0.21027,0.39283 -0.28304,0.39283 -0.0728,0 -0.0633,-0.1797 0.021,-0.39935 z"
       id="path7925" />
    <path
       style="fill:#726a50;stroke-width:1.38012"
       d="m 191.98767,251.4626 c -0.0142,-0.30984 -0.16841,-0.40726 -0.48391,-0.30577 -0.38701,0.12449 -0.39823,0.10322 -0.0684,-0.12958 0.46196,-0.32602 0.92086,0.0184 0.71432,0.53619 -0.0968,0.2426 -0.14773,0.21089 -0.16205,-0.10084 z"
       id="path7924" />
    <path
       style="fill:#726a50;stroke-width:1.38012"
       d="m 190.26966,251.509 c -0.4241,-0.12682 -0.87058,-0.16909 -0.99219,-0.0939 -0.12161,0.0752 -0.22111,0.0244 -0.22111,-0.1127 0,-0.13715 0.29406,-0.30557 0.65345,-0.37427 0.42055,-0.0804 0.60216,-0.0207 0.50955,0.16759 -0.0791,0.16088 0.0269,0.0841 0.23561,-0.17051 0.47437,-0.57874 0.7537,-0.59918 0.53891,-0.0394 -0.0894,0.23296 0.004,0.5288 0.20674,0.6574 0.45172,0.28603 0.0961,0.27299 -0.93096,-0.0341 z"
       id="path7923" />
    <path
       style="fill:#726a50;stroke-width:1.38012"
       d="m 174.12454,251.5482 c -0.15967,-0.25836 0.6332,-0.65621 0.85858,-0.43083 0.0762,0.0762 -0.007,0.13852 -0.18578,0.13852 -0.17836,0 -0.25071,0.11906 -0.16077,0.26458 0.0899,0.14552 0.0445,0.26458 -0.10106,0.26458 -0.14552,0 -0.33046,-0.10658 -0.41097,-0.23685 z"
       id="path7922" />
    <path
       style="fill:#726a50;stroke-width:1.38012"
       d="m 202.4259,251.4302 c 0.62022,-0.96877 2.24088,-1.64842 2.24088,-0.93975 0,0.16109 -0.18317,0.2226 -0.40703,0.13669 -0.26358,-0.10114 -0.49079,0.0521 -0.64469,0.43472 -0.13071,0.325 -0.2452,0.42132 -0.25443,0.21405 -0.0118,-0.26483 -0.22472,-0.18619 -0.71638,0.26459 l -0.69962,0.64143 z"
       id="path7917" />
    <path
       style="fill:#726a50;stroke-width:1.38012"
       d="m 186.60994,251.86744 c -0.35433,-0.0926 -0.40276,-0.23158 -0.20775,-0.59598 0.13987,-0.26134 0.1692,-0.56944 0.0652,-0.68466 -0.10403,-0.11523 -0.0403,-0.12385 0.1416,-0.0192 0.33424,0.19234 0.41474,-0.0348 0.36554,-1.03153 l -0.0261,-0.52917 0.23244,0.52917 c 0.15512,0.35311 0.10966,0.72413 -0.13663,1.11517 -0.49588,0.78731 -0.4654,1.01234 0.0773,0.57087 0.39224,-0.31907 0.42471,-0.30528 0.26761,0.11364 -0.11374,0.30328 -0.0771,0.41388 0.10079,0.30396 0.15377,-0.095 0.21714,-0.33553 0.14082,-0.53443 -0.0763,-0.1989 -0.017,-0.43691 0.13185,-0.5289 0.43783,-0.27059 0.53368,0.0273 0.24938,0.77508 -0.25992,0.68363 -0.46796,0.76019 -1.40204,0.51595 z"
       id="path7916" />
    <path
       style="fill:#726a50;stroke-width:1.38012"
       d="m 184.95532,251.69284 c -0.38219,-0.44008 -0.32086,-1.21522 0.11759,-1.4862 0.27468,-0.16976 0.3009,-0.32894 0.0962,-0.58423 -0.64432,-0.80363 -0.65501,-1.49937 -0.0281,-1.82849 0.60556,-0.3179 0.60599,-0.31689 0.104,0.24847 -0.27721,0.31222 -0.37354,0.56766 -0.21405,0.56766 0.15949,0 0.36356,-0.11906 0.4535,-0.26458 0.0899,-0.14552 0.38188,-0.26458 0.64876,-0.26458 0.26689,0 0.55575,-0.18373 0.64192,-0.40829 0.12571,-0.3276 0.2665,-0.3495 0.71243,-0.11085 0.30566,0.16358 0.48705,0.36612 0.40309,0.45008 -0.084,0.084 -0.005,0.33194 0.17578,0.55105 0.28537,0.34615 0.25265,0.35802 -0.24948,0.0905 -0.69324,-0.36934 -2.20021,-0.40941 -2.20021,-0.0585 0,0.13717 0.2413,0.20292 0.53623,0.14613 0.29493,-0.0568 0.47102,0.002 0.39131,0.13122 -0.0797,0.12896 -0.37804,0.18959 -0.66296,0.13472 -0.28492,-0.0549 -0.5871,0.012 -0.67151,0.14855 -0.0844,0.13658 0.0363,0.24832 0.26833,0.24832 0.33981,0 0.36675,0.10286 0.1386,0.52917 -0.31058,0.58033 -0.0239,0.71181 0.47163,0.21629 0.24079,-0.24079 0.25298,-0.10402 0.0529,0.59356 -0.14298,0.49855 -0.25997,0.94403 -0.25997,0.98996 0,0.0459 -0.10889,0.0162 -0.24198,-0.066 -0.1331,-0.0823 -0.28192,-0.0415 -0.33073,0.0906 -0.0488,0.13209 -0.20781,0.10307 -0.35333,-0.0645 z m 0.92604,-0.56515 c 0,-0.0394 -0.17187,-0.21423 -0.38194,-0.38857 -0.31177,-0.25875 -0.37474,-0.22144 -0.34276,0.20311 0.0232,0.3081 0.1789,0.46649 0.38194,0.38857 0.18852,-0.0723 0.34276,-0.16374 0.34276,-0.20311 z"
       id="path7915" />
    <path
       style="fill:#726a50;stroke-width:1.38012"
       d="m 181.38345,251.78284 c 0,-0.18229 -0.23119,-0.233 -0.59532,-0.13057 -0.33437,0.0941 -0.46142,0.0729 -0.28985,-0.0483 0.51132,-0.36118 0.50888,-0.53434 -0.0157,-1.11403 -0.29211,-0.32279 -0.37205,-0.55695 -0.19013,-0.55695 0.17264,0 0.38216,0.17791 0.46561,0.39536 0.0834,0.21744 0.27669,0.31811 0.42945,0.2237 0.17369,-0.10735 0.19772,-0.0422 0.0641,0.17395 -0.13293,0.21509 -0.0425,0.47073 0.23954,0.67694 0.28839,0.21087 0.35118,0.39434 0.17271,0.50464 -0.15423,0.0953 -0.28041,0.0392 -0.28041,-0.12472 z"
       id="path7914" />
    <path
       style="fill:#726a50;stroke-width:1.38012"
       d="m 175.9164,251.71894 c -0.32414,-0.51886 -0.33684,-1.01294 -0.021,-0.81775 0.18182,0.11237 0.22466,0.0163 0.11736,-0.26333 -0.0929,-0.24215 -0.0536,-0.44028 0.0873,-0.44028 0.14096,0 0.25628,0.11907 0.25628,0.26459 0,0.40146 0.56218,0.31672 1.09444,-0.16496 0.4426,-0.40056 0.49513,-0.38458 0.77824,0.23679 0.31941,0.70102 0.73148,0.7763 1.36612,0.2496 0.38304,-0.3179 0.72995,-0.18476 0.72995,0.28014 0,0.13684 -0.16874,0.18404 -0.37498,0.1049 -0.20623,-0.0791 -0.44352,0.0347 -0.52729,0.25305 -0.0838,0.21831 -0.27744,0.31961 -0.43037,0.22509 -0.15292,-0.0945 -0.43888,-0.0383 -0.63547,0.12481 -0.26913,0.22336 -0.34797,0.21264 -0.31914,-0.0434 0.0211,-0.187 -0.0554,-0.34001 -0.16979,-0.34001 -0.11445,0 -0.32099,-0.17859 -0.45897,-0.39688 -0.20791,-0.32889 -0.25516,-0.30623 -0.27582,0.1323 -0.0137,0.29104 -0.085,0.38033 -0.1584,0.19843 -0.23409,-0.58013 -0.9388,-0.39388 -0.75081,0.19844 0.18764,0.59121 0.009,0.70611 -0.30767,0.19844 z"
       id="path7913" />
    <path
       style="fill:#726a50;stroke-width:1.38012"
       d="m 199.43896,252.18252 c 0.10788,-0.11908 0.0648,-0.37478 -0.0957,-0.56822 -0.16054,-0.19344 -0.22424,-0.528 -0.14156,-0.74347 0.0827,-0.21548 0.0365,-0.46215 -0.10269,-0.54816 -0.13916,-0.086 -0.2494,-0.29818 -0.24498,-0.47149 0.004,-0.17331 0.13081,-0.10425 0.28085,0.15347 0.15003,0.25772 0.38418,0.39975 0.52032,0.31561 0.15322,-0.0947 0.15438,0.092 0.003,0.49001 -0.15661,0.41189 -0.14803,0.73941 0.0239,0.9113 0.18137,0.18136 0.15367,0.33461 -0.0855,0.47289 -0.19458,0.11251 -0.26552,0.10714 -0.15764,-0.0119 z"
       id="path7906" />
    <path
       style="fill:#726a50;stroke-width:1.38012"
       d="m 195.49456,251.9262 c 0,-0.16489 0.21151,-0.31573 0.47002,-0.3352 0.27924,-0.021 0.41781,0.10065 0.34139,0.2998 -0.15966,0.41607 -0.81141,0.44451 -0.81141,0.0354 z"
       id="path7905" />
    <path
       style="fill:#726a50;stroke-width:1.38012"
       d="m 183.23553,251.9017 c 0,-0.22687 -0.0936,-0.35467 -0.20789,-0.28401 -0.11434,0.0707 -0.20788,-0.1089 -0.20788,-0.39903 0,-0.49467 0.0212,-0.49855 0.34017,-0.0623 0.33724,0.4612 0.46232,1.15783 0.20789,1.15783 -0.0728,0 -0.13229,-0.18562 -0.13229,-0.41249 z"
       id="path7904" />
    <path
       style="fill:#726a50;stroke-width:1.38012"
       d="m 171.77915,252.47936 c 0.7434,-1.27898 4.24124,-3.24464 8.0168,-4.50514 3.82314,-1.27639 6.93155,-1.78373 10.45104,-1.7058 2.78913,0.0618 2.95618,0.034 4.00869,-0.66686 0.60406,-0.40223 1.16488,-0.98599 1.24628,-1.29725 0.0814,-0.31127 0.20753,-0.50641 0.28029,-0.43365 0.29173,0.29174 -0.19391,1.2546 -0.79505,1.57632 -0.80406,0.43032 -0.82888,0.77281 -0.0439,0.60513 0.5804,-0.12398 0.58245,-0.11673 0.0817,0.28933 -0.36349,0.29478 -0.56747,0.32928 -0.69802,0.11803 -0.11016,-0.17824 -0.32959,-0.20869 -0.54477,-0.0756 -0.19817,0.12258 -2.02719,0.23907 -4.06448,0.25887 -2.82058,0.0274 -4.31952,0.17945 -6.28385,0.63739 -1.41883,0.33077 -2.57969,0.69011 -2.57969,0.79853 0,0.10842 -0.50168,0.26442 -1.11483,0.34666 -1.32869,0.17821 -5.51739,2.23401 -6.82267,3.34853 l -0.92604,0.79071 20.50521,0.006 20.5052,0.006 -0.92604,-0.56687 c -3.07377,-1.88155 -9.94164,-3.96047 -16.09126,-4.87084 -0.62827,-0.093 -1.0899,-0.22152 -1.02584,-0.28558 0.15628,-0.15627 3.18121,0.31899 6.26918,0.98498 5.75601,1.2414 11.90625,3.71121 11.90625,4.78129 0,0.12297 -9.35232,0.22358 -20.78293,0.22358 -17.5663,0 -20.75019,-0.0563 -20.57136,-0.36403 z"
       id="path7897" />
  </g>
</svg>
