<?xml version="1.0" encoding="UTF-8" standalone="no"?>
<!-- Created with Inkscape (http://www.inkscape.org/) -->

<svg
   width="185"
   height="185"
   viewBox="0 0 48.947914 48.947918"
   version="1.1"
   id="svg1"
   xmlns="http://www.w3.org/2000/svg"
   xmlns:svg="http://www.w3.org/2000/svg">
  <defs
     id="defs1" />
  <g
     id="g8645"
     transform="matrix(0.89957965,0,0,0.89957965,-43.720131,-34.744534)"
     style="stroke-width:1.11163">
    <path
       style="fill:#c4af59;stroke-width:1.11163"
       d="m 57.558452,92.781187 c 0,-1.355139 7.107776,-4.614317 12.170833,-5.580776 0.945885,-0.180555 1.749842,-0.350812 1.786569,-0.37835 0.03673,-0.02754 -0.413506,-1.528142 -1.000521,-3.334678 -0.587015,-1.806536 -1.474357,-4.951486 -1.971871,-6.988777 -0.993426,-4.068024 -2.032655,-10.451041 -1.701549,-10.451041 0.380283,0 3.229691,4.847908 4.386108,7.462409 1.042934,2.357933 2.500332,6.824996 3.737338,11.455298 0.403357,1.509824 0.601113,1.867736 1.070125,1.936786 0.699281,0.102951 0.592123,0.473351 1.631945,-5.640953 1.744896,-10.260246 4.652315,-19.409806 7.104386,-22.35729 l 0.550281,-0.661458 0.0088,2.912037 c 0.0159,5.261038 -1.145721,12.955507 -3.135344,20.76817 -0.574419,2.255572 -1.124318,4.303077 -1.221999,4.550009 -0.145722,0.368381 0.09959,0.52324 1.366668,0.86275 6.801228,1.822365 11.730727,4.070122 11.730727,5.348986 0,0.287894 -3.271753,0.350754 -18.256249,0.350754 -11.481129,0 -18.256249,-0.09422 -18.256249,-0.253876 z"
       id="path8642" />
    <path
       style="fill:#8fa38f;stroke-width:1.11163"
       d="m 57.558452,92.781187 c 0,-1.355139 7.107776,-4.614317 12.170833,-5.580776 0.945885,-0.180555 1.749842,-0.350812 1.786569,-0.37835 0.03673,-0.02754 -0.413506,-1.528142 -1.000521,-3.334678 -0.587015,-1.806536 -1.474357,-4.951486 -1.971871,-6.988777 -0.993426,-4.068024 -2.032655,-10.451041 -1.701549,-10.451041 0.380283,0 3.229691,4.847908 4.386108,7.462409 1.042934,2.357933 2.500332,6.824996 3.737338,11.455298 0.403357,1.509824 0.601113,1.867736 1.070125,1.936786 0.699281,0.102951 0.592123,0.473351 1.631945,-5.640953 1.744896,-10.260246 4.652315,-19.409806 7.104386,-22.35729 l 0.550281,-0.661458 0.0088,2.912037 c 0.0159,5.261038 -1.145721,12.955507 -3.135344,20.76817 -0.574419,2.255572 -1.124318,4.303077 -1.221999,4.550009 -0.145722,0.368381 0.09959,0.52324 1.366668,0.86275 6.801228,1.822365 11.730727,4.070122 11.730727,5.348986 0,0.287894 -3.271753,0.350754 -18.256249,0.350754 -11.481129,0 -18.256249,-0.09422 -18.256249,-0.253876 z"
       id="path8629" />
    <path
       style="fill:#9d9c66;stroke-width:1.11163"
       d="m 57.714513,92.808938 c -0.07686,-0.124368 0.124469,-0.470555 0.447406,-0.769304 1.774574,-1.641661 6.868008,-3.772273 11.289219,-4.722344 2.122041,-0.456004 2.159521,-0.477767 1.96985,-1.143851 -0.106343,-0.373451 -0.203058,-0.935524 -0.214923,-1.24905 -0.01186,-0.313525 -0.09318,-0.525793 -0.180692,-0.471705 -0.08752,0.05409 -0.528452,-1.11814 -0.979856,-2.604952 -1.946367,-6.410841 -3.24217,-12.90964 -2.735754,-13.720541 0.161851,-0.259165 0.21239,-0.684275 0.112309,-0.94469 -0.15704,-0.408622 -0.207546,-0.382873 -0.36871,0.187978 -0.149545,0.5297 -0.178323,0.463926 -0.144473,-0.330199 0.02325,-0.545411 0.05126,-0.991895 0.06224,-0.992187 0.136356,-0.0036 2.704395,4.346274 3.514221,5.952594 1.058933,2.100435 3.178603,8.250173 4.331794,12.567708 0.550834,2.062317 0.65558,2.248958 1.262143,2.248958 0.651113,0 0.674512,-0.07581 1.496036,-4.847001 1.071445,-6.222665 2.277953,-11.32128 3.560101,-15.044726 1.276315,-3.706507 2.548496,-6.507745 2.86629,-6.311337 0.1337,0.08263 0.325733,0.01652 0.426739,-0.146908 0.134586,-0.217765 0.234617,-0.214675 0.374441,0.01157 0.104937,0.169792 0.200361,-0.08539 0.212053,-0.567065 l 0.02126,-0.875776 -0.398124,0.750995 c -0.218968,0.413047 -0.454753,0.694366 -0.523967,0.625152 -0.06921,-0.06921 0.111496,-0.516116 0.401577,-0.993116 l 0.527419,-0.867272 0.17831,0.710444 c 0.264563,1.054103 -0.09737,6.668443 -0.701803,10.886296 -0.576876,4.025579 -2.008065,10.782441 -3.03302,14.319347 -0.354646,1.223809 -0.644811,2.326879 -0.644811,2.451268 0,0.124389 0.739959,0.37174 1.644352,0.549668 3.695003,0.726948 10.34017,3.459232 11.338361,4.661978 0.285055,0.343471 0.278973,0.456962 -0.03514,0.655727 -0.485293,0.30708 -35.885313,0.329008 -36.074841,0.02235 z M 81.855148,81.65798 c 0.0048,-0.243147 -0.0803,-0.191905 -0.219614,0.132292 -0.125065,0.291042 -0.223891,0.767292 -0.219613,1.058333 0.0063,0.425393 0.04932,0.39945 0.219613,-0.132291 0.11651,-0.363802 0.215336,-0.840052 0.219614,-1.058334 z m -8.333502,-0.352777 c -0.236345,-0.830809 -0.478984,-1.461295 -0.539198,-1.401081 -0.06021,0.06021 0.08718,0.785951 0.327531,1.612747 0.240356,0.826797 0.482995,1.457283 0.539198,1.40108 0.0562,-0.0562 -0.09119,-0.781938 -0.327531,-1.612746 z m -4.60501,-5.846032 c -0.181841,-0.812551 -0.381647,-1.426339 -0.444013,-1.363973 -0.06237,0.06237 0.03539,0.778208 0.217227,1.590759 0.181841,0.812551 0.381647,1.426339 0.444013,1.363973 0.06237,-0.06237 -0.03539,-0.778208 -0.217227,-1.590759 z m 14.790595,-2.135565 c -0.0063,-0.425393 -0.04932,-0.39945 -0.219614,0.132291 -0.289721,0.904656 -0.289721,1.60026 0,0.926042 0.125065,-0.291042 0.223891,-0.767292 0.219614,-1.058333 z m 0.791574,-5.423958 c -0.0077,-0.509323 -0.168374,0.08599 -0.357132,1.322916 -0.445662,2.920414 -0.426745,4.166078 0.02411,1.5875 0.190828,-1.091406 0.340688,-2.401093 0.333024,-2.910416 z m -3.78628,2.116666 c 0.24987,-1.210994 -3.58e-4,-0.952899 -0.362956,0.374368 -0.155638,0.569704 -0.180635,0.926892 -0.05555,0.79375 0.125087,-0.133142 0.313414,-0.658795 0.418504,-1.168118 z M 68.765964,69.495288 c -0.255239,-0.432085 -0.509609,-0.740072 -0.565266,-0.684415 -0.113118,0.113118 0.729181,1.470025 0.912517,1.470025 0.06425,0 -0.09201,-0.353525 -0.347251,-0.78561 z m 15.973079,-5.492343 c -0.05728,-0.548949 -0.105098,-0.164651 -0.106272,0.853995 -0.0012,1.018645 0.04569,1.467785 0.104138,0.998088 0.05845,-0.469697 0.05941,-1.303134 0.0021,-1.852083 z M 82.9397,63.534023 c 0,-0.145521 -0.170156,0.03307 -0.378124,0.396875 -0.207968,0.363802 -0.378124,0.780521 -0.378124,0.926042 0,0.14552 0.170156,-0.03307 0.378124,-0.396875 0.207968,-0.363802 0.378124,-0.780521 0.378124,-0.926042 z"
       id="path8593" />
    <path
       style="fill:#78948a;stroke-width:1.11163"
       d="m 57.702308,92.789188 c -0.636035,-1.029126 7.319682,-4.667832 12.1362,-5.550734 0.860438,-0.157724 1.616445,-0.338784 1.680016,-0.402355 0.06357,-0.06357 -0.02381,-0.537952 -0.194181,-1.05418 -0.170371,-0.516228 -0.223373,-1.078383 -0.117781,-1.249233 0.109966,-0.17793 0.07828,-0.240366 -0.07416,-0.146148 -0.470578,0.290833 -2.816445,-8.118324 -3.671455,-13.160954 -0.3342,-1.971025 -0.371958,-2.744873 -0.151181,-3.098394 0.161851,-0.259165 0.21239,-0.684275 0.112309,-0.94469 -0.15704,-0.408622 -0.207546,-0.382873 -0.36871,0.187978 -0.149545,0.5297 -0.178323,0.463926 -0.144473,-0.330199 0.02325,-0.545411 0.05126,-0.991895 0.06224,-0.992187 0.136356,-0.0036 2.704395,4.346274 3.514221,5.952594 1.058933,2.100435 3.178603,8.250173 4.331794,12.567708 0.550834,2.062317 0.65558,2.248958 1.262143,2.248958 0.651113,0 0.674512,-0.07581 1.496036,-4.847001 1.071445,-6.222665 2.277953,-11.32128 3.560101,-15.044726 1.276315,-3.706507 2.548496,-6.507745 2.86629,-6.311337 0.1337,0.08263 0.325733,0.01652 0.426739,-0.146908 0.134586,-0.217765 0.234617,-0.214675 0.374441,0.01157 0.104937,0.169792 0.200361,-0.08539 0.212053,-0.567065 l 0.02126,-0.875776 -0.398124,0.750995 c -0.218968,0.413047 -0.454753,0.694366 -0.523967,0.625152 -0.06921,-0.06921 0.111496,-0.516116 0.401577,-0.993116 l 0.527419,-0.867272 0.17831,0.710444 c 0.264563,1.054103 -0.09737,6.668443 -0.701803,10.886296 -0.576876,4.025579 -2.008065,10.782441 -3.03302,14.319347 -0.354646,1.223809 -0.644811,2.326879 -0.644811,2.451268 0,0.124389 0.727463,0.369281 1.616584,0.544205 1.661798,0.326939 5.734989,1.672522 7.9915,2.640001 0.820084,0.351611 1.206003,0.655655 1.083599,0.853708 -0.116489,0.188482 -0.07483,0.236356 0.107583,0.123621 0.347529,-0.214785 1.646401,0.403011 2.167574,1.030985 0.305393,0.367976 0.302443,0.471803 -0.01927,0.678261 -0.463358,0.297358 -35.90326,0.296562 -36.087046,-8.11e-4 z M 81.855148,81.65798 c 0.0048,-0.243147 -0.0803,-0.191905 -0.219614,0.132292 -0.125065,0.291042 -0.223891,0.767292 -0.219613,1.058333 0.0063,0.425393 0.04932,0.39945 0.219613,-0.132291 0.11651,-0.363802 0.215336,-0.840052 0.219614,-1.058334 z m -8.333502,-0.352777 c -0.236345,-0.830809 -0.478984,-1.461295 -0.539198,-1.401081 -0.06021,0.06021 0.08718,0.785951 0.327531,1.612747 0.240356,0.826797 0.482995,1.457283 0.539198,1.40108 0.0562,-0.0562 -0.09119,-0.781938 -0.327531,-1.612746 z m -4.60501,-5.846032 c -0.181841,-0.812551 -0.381647,-1.426339 -0.444013,-1.363973 -0.06237,0.06237 0.03539,0.778208 0.217227,1.590759 0.181841,0.812551 0.381647,1.426339 0.444013,1.363973 0.06237,-0.06237 -0.03539,-0.778208 -0.217227,-1.590759 z m 14.790595,-2.135565 c -0.0063,-0.425393 -0.04932,-0.39945 -0.219614,0.132291 -0.289721,0.904656 -0.289721,1.60026 0,0.926042 0.125065,-0.291042 0.223891,-0.767292 0.219614,-1.058333 z m 0.791574,-5.423958 c -0.0077,-0.509323 -0.168374,0.08599 -0.357132,1.322916 -0.445662,2.920414 -0.426745,4.166078 0.02411,1.5875 0.190828,-1.091406 0.340688,-2.401093 0.333024,-2.910416 z m -3.78628,2.116666 c 0.24987,-1.210994 -3.58e-4,-0.952899 -0.362956,0.374368 -0.155638,0.569704 -0.180635,0.926892 -0.05555,0.79375 0.125087,-0.133142 0.313414,-0.658795 0.418504,-1.168118 z M 68.765964,69.495288 c -0.255239,-0.432085 -0.509609,-0.740072 -0.565266,-0.684415 -0.113118,0.113118 0.729181,1.470025 0.912517,1.470025 0.06425,0 -0.09201,-0.353525 -0.347251,-0.78561 z m 15.973079,-5.492343 c -0.05728,-0.548949 -0.105098,-0.164651 -0.106272,0.853995 -0.0012,1.018645 0.04569,1.467785 0.104138,0.998088 0.05845,-0.469697 0.05941,-1.303134 0.0021,-1.852083 z M 82.9397,63.534023 c 0,-0.145521 -0.170156,0.03307 -0.378124,0.396875 -0.207968,0.363802 -0.378124,0.780521 -0.378124,0.926042 0,0.14552 0.170156,-0.03307 0.378124,-0.396875 0.207968,-0.363802 0.378124,-0.780521 0.378124,-0.926042 z"
       id="path8553" />
    <path
       style="fill:#769076;stroke-width:1.11163"
       d="m 73.201764,80.056318 c -1.450673,-4.880226 -2.710697,-7.703658 -5.518647,-12.36605 -0.556129,-0.923411 -0.593026,-0.942259 -0.626005,-0.319787 -0.02639,0.49801 -0.06628,0.5401 -0.161457,0.170334 -0.06953,-0.270119 -0.01582,-0.601721 0.119357,-0.736894 0.562482,-0.562482 3.907317,5.573888 5.441773,9.983372 1.100231,3.161673 2.118019,6.727945 1.964049,6.881915 -0.06153,0.06153 -0.610108,-1.564274 -1.21907,-3.61289 z"
       id="path8486" />
    <path
       style="fill:#769076;stroke-width:1.11163"
       d="m 80.864782,86.023605 c -0.0058,-0.145521 0.229555,-1.157552 0.523008,-2.248958 1.077514,-4.007475 2.365122,-10.143021 2.872803,-13.689118 0.663478,-4.634321 1.015304,-11.072449 0.59074,-10.810054 -0.196458,0.121417 -0.241353,0.03393 -0.130639,-0.254587 0.155263,-0.404611 0.189157,-0.40299 0.426083,0.02037 0.626757,1.119951 -0.410315,11.300307 -1.81413,17.808315 -1.142138,5.294882 -2.431452,10.087773 -2.467865,9.174029 z"
       id="path8485" />
    <path
       style="fill:#769076;stroke-width:1.11163"
       d="m 76.900102,86.413547 c -0.05349,-0.798064 1.605077,-9.726175 2.480865,-13.354525 1.313815,-5.443076 3.513599,-11.440788 4.755026,-12.964582 0.23711,-0.291042 0.007,0.336234 -0.511294,1.393947 -1.152186,2.351206 -1.905524,4.239822 -2.394206,6.002267 -0.203594,0.734269 -0.66734,2.347067 -1.030546,3.583994 -0.363206,1.236927 -0.967479,3.856301 -1.342828,5.820833 -1.404808,7.352586 -1.93072,9.910388 -1.957017,9.518066 z"
       id="path8484" />
    <path
       style="fill:#769076;stroke-width:1.11163"
       d="m 73.751748,90.20924 c 0.247824,-0.06523 0.524287,-0.350807 0.614362,-0.634608 0.160792,-0.506612 0.654841,-0.467322 0.654841,0.05208 0,0.145521 -0.119062,0.190998 -0.264583,0.101062 -0.145521,-0.08994 -0.264583,0.0221 -0.264583,0.248968 0,0.260472 -0.219395,0.401179 -0.595313,0.381798 -0.428102,-0.02207 -0.468752,-0.06401 -0.144724,-0.149298 z"
       id="path8483" />
    <path
       style="fill:#769076;stroke-width:1.11163"
       d="m 57.702308,92.789188 c -0.636035,-1.029126 7.319682,-4.667832 12.1362,-5.550734 0.860438,-0.157724 1.614196,-0.336535 1.675018,-0.397357 0.06082,-0.06082 -0.366615,-1.579329 -0.949862,-3.374457 -1.787778,-5.502459 -3.737454,-14.138359 -3.411296,-15.110002 0.05995,-0.178586 0.261757,0.68733 0.448467,1.924257 0.524565,3.475178 2.032203,9.518078 3.432553,13.758332 0.408497,1.236927 0.893476,2.903802 1.07773,3.704167 0.515903,2.240973 0.938363,2.910416 1.836655,2.910416 0.420924,0 0.971231,0.07902 1.222905,0.175594 0.414187,0.158938 0.440366,0.02337 0.276008,-1.429361 -0.214944,-1.899858 -0.291168,-2.319554 -0.667298,-3.674185 -0.459845,-1.656129 -0.297137,-1.952902 0.199409,-0.363714 0.409685,1.31119 0.534835,1.463102 1.264562,1.534971 l 0.809879,0.07976 -0.230629,1.470703 c -0.297516,1.897236 -0.02583,2.259451 1.614751,2.152825 l 1.213799,-0.07889 0.579134,-1.984375 c 0.318523,-1.091407 0.586414,-1.851038 0.595312,-1.68807 0.0089,0.162968 0.743642,0.439425 1.632763,0.614349 1.661798,0.326939 5.734989,1.672522 7.9915,2.640001 0.820084,0.351611 1.206003,0.655655 1.083599,0.853708 -0.116489,0.188482 -0.07483,0.236356 0.107583,0.123621 0.347529,-0.214785 1.646401,0.403011 2.167574,1.030985 0.305393,0.367976 0.302443,0.471803 -0.01927,0.678261 -0.463358,0.297358 -35.90326,0.296562 -36.087046,-8.11e-4 z"
       id="path8480" />
    <path
       style="fill:#83745a;stroke-width:1.11163"
       d="m 81.912259,64.890025 c -0.01736,-0.330994 1.368632,-3.370715 1.484211,-3.255135 0.05293,0.05293 -0.256632,0.859076 -0.687916,1.791435 -0.431285,0.932359 -0.789617,1.591024 -0.796295,1.4637 z"
       id="path8398" />
    <path
       style="fill:#83745a;stroke-width:1.11163"
       d="m 84.882597,65.782981 c 0,-0.654844 0.0516,-0.922734 0.114662,-0.595312 0.06306,0.327422 0.06306,0.863203 0,1.190625 -0.06306,0.327422 -0.114662,0.05953 -0.114662,-0.595313 z"
       id="path8394" />
    <path
       style="fill:#83745a;stroke-width:1.11163"
       d="m 80.34981,69.487148 c 0,-0.218282 0.102326,-0.635 0.227391,-0.926042 0.143329,-0.333544 0.227391,-0.38245 0.227391,-0.132292 0,0.218282 -0.102326,0.635 -0.227391,0.926042 -0.143329,0.333544 -0.227391,0.38245 -0.227391,0.132292 z"
       id="path8387" />
    <path
       style="fill:#83745a;stroke-width:1.11163"
       d="m 69.094892,69.951495 c -0.678665,-1.199817 -1.061908,-2.003489 -0.851653,-1.785937 0.435816,0.450939 2.391943,3.967423 2.206973,3.967423 -0.06676,0 -0.676656,-0.981669 -1.35532,-2.181486 z"
       id="path8377" />
    <path
       style="fill:#83745a;stroke-width:1.11163"
       d="m 70.830597,73.312275 c -0.443306,-0.972952 -0.358731,-1.180517 0.120612,-0.296007 0.223843,0.413047 0.357479,0.800504 0.296969,0.861014 -0.06051,0.06051 -0.248422,-0.193743 -0.417581,-0.565007 z"
       id="path8371" />
    <path
       style="fill:#83745a;stroke-width:1.11163"
       d="m 68.425267,75.95054 c -0.181841,-0.812551 -0.279593,-1.528393 -0.217227,-1.590759 0.06237,-0.06237 0.262172,0.551422 0.444013,1.363973 0.181841,0.812552 0.279593,1.528393 0.217227,1.590759 -0.06237,0.06237 -0.262172,-0.551422 -0.444013,-1.363973 z"
       id="path8362" />
    <path
       style="fill:#83745a;stroke-width:1.11163"
       d="m 77.692906,81.828196 c -0.03664,-0.68901 0.838838,-5.380911 0.944509,-5.061867 0.04763,0.143794 -0.139528,1.452068 -0.415898,2.907276 -0.276369,1.455209 -0.514244,2.424774 -0.528611,2.154591 z"
       id="path8346" />
    <path
       style="fill:#83745a;stroke-width:1.11163"
       d="m 57.702308,92.789188 c -0.404581,-0.654626 3.389757,-2.84713 7.151837,-4.132588 2.421216,-0.8273 5.77588,-1.689158 6.626212,-1.702362 0.162725,-0.0025 0.495392,0.706522 0.739261,1.575664 0.564618,2.012283 0.949127,2.388492 2.441187,2.388492 1.007134,0 1.169181,-0.07101 1.056698,-0.463021 -0.07307,-0.254662 -0.170392,-1.117865 -0.216268,-1.918229 -0.08089,-1.41129 -0.06166,-1.457715 0.637242,-1.538258 l 0.720651,-0.08305 -0.05919,1.802841 -0.05919,1.802841 1.485072,0.07827 1.485073,0.07827 0.499302,-1.751418 0.499303,-1.751418 1.190625,0.170108 c 1.287929,0.184011 6.486654,1.857323 8.54975,2.751906 0.819365,0.355286 1.205895,0.662022 1.083599,0.859901 -0.116489,0.188482 -0.07483,0.236356 0.107583,0.123621 0.347529,-0.214785 1.646401,0.403011 2.167574,1.030985 0.305393,0.367976 0.302443,0.471803 -0.01927,0.678261 -0.463358,0.297358 -35.90326,0.296562 -36.087046,-8.11e-4 z"
       id="path8327" />
    <path
       style="fill:#726a50;stroke-width:1.11163"
       d="m 81.912259,64.890025 c -0.01736,-0.330994 1.368632,-3.370715 1.484211,-3.255135 0.05293,0.05293 -0.256632,0.859076 -0.687916,1.791435 -0.431285,0.932359 -0.789617,1.591024 -0.796295,1.4637 z"
       id="path8171" />
    <path
       style="fill:#726a50;stroke-width:1.11163"
       d="m 84.882597,65.782981 c 0,-0.654844 0.0516,-0.922734 0.114662,-0.595312 0.06306,0.327422 0.06306,0.863203 0,1.190625 -0.06306,0.327422 -0.114662,0.05953 -0.114662,-0.595313 z"
       id="path8166" />
    <path
       style="fill:#726a50;stroke-width:1.11163"
       d="m 80.34981,69.487148 c 0,-0.218282 0.102326,-0.635 0.227391,-0.926042 0.143329,-0.333544 0.227391,-0.38245 0.227391,-0.132292 0,0.218282 -0.102326,0.635 -0.227391,0.926042 -0.143329,0.333544 -0.227391,0.38245 -0.227391,0.132292 z"
       id="path8159" />
    <path
       style="fill:#726a50;stroke-width:1.11163"
       d="m 69.094892,69.951495 c -0.678665,-1.199817 -1.061908,-2.003489 -0.851653,-1.785937 0.435816,0.450939 2.391943,3.967423 2.206973,3.967423 -0.06676,0 -0.676656,-0.981669 -1.35532,-2.181486 z"
       id="path8146" />
    <path
       style="fill:#726a50;stroke-width:1.11163"
       d="m 70.830597,73.312275 c -0.443306,-0.972952 -0.358731,-1.180517 0.120612,-0.296007 0.223843,0.413047 0.357479,0.800504 0.296969,0.861014 -0.06051,0.06051 -0.248422,-0.193743 -0.417581,-0.565007 z"
       id="path8140" />
    <path
       style="fill:#726a50;stroke-width:1.11163"
       d="m 68.425267,75.95054 c -0.181841,-0.812551 -0.279593,-1.528393 -0.217227,-1.590759 0.06237,-0.06237 0.262172,0.551422 0.444013,1.363973 0.181841,0.812552 0.279593,1.528393 0.217227,1.590759 -0.06237,0.06237 -0.262172,-0.551422 -0.444013,-1.363973 z"
       id="path8130" />
    <path
       style="fill:#726a50;stroke-width:1.11163"
       d="m 77.692906,81.828196 c -0.03664,-0.68901 0.838838,-5.380911 0.944509,-5.061867 0.04763,0.143794 -0.139528,1.452068 -0.415898,2.907276 -0.276369,1.455209 -0.514244,2.424774 -0.528611,2.154591 z"
       id="path8110" />
    <path
       style="fill:#726a50;stroke-width:1.11163"
       d="m 70.390743,90.653813 c 0.531564,-0.587371 0.896853,-0.734728 0.431567,-0.174093 -0.162076,0.19529 -0.216342,0.433415 -0.120591,0.529166 0.09575,0.09575 -0.0428,0.174094 -0.307886,0.174094 -0.46522,0 -0.465327,-0.0184 -0.0031,-0.529167 z"
       id="path8092" />
    <path
       style="fill:#726a50;stroke-width:1.11163"
       d="m 71.218755,91.044566 c -0.123287,-0.321282 -0.05561,-0.349994 0.333779,-0.141601 0.268634,0.143768 0.56361,0.186211 0.655504,0.09432 0.09189,-0.09189 0.16708,-0.02817 0.16708,0.141601 0,0.455253 -0.976021,0.375646 -1.156363,-0.09432 z"
       id="path8091" />
    <path
       style="fill:#726a50;stroke-width:1.11163"
       d="m 93.437195,92.271925 c -1.208136,-1.334976 -8.647767,-4.257729 -11.652892,-4.577986 -0.692378,-0.07379 -0.802843,0.01831 -1.011376,0.843208 -0.128757,0.509323 -0.250982,1.109883 -0.271611,1.334579 -0.02063,0.224695 -0.26838,0.641414 -0.550557,0.926041 -0.509138,0.51356 -0.511427,0.513471 -0.30036,-0.01166 0.116979,-0.291042 0.400577,-1.213776 0.630218,-2.050521 0.229641,-0.836745 0.539144,-1.52052 0.687786,-1.5195 0.148641,10e-4 1.253597,0.2376 2.455458,0.525734 4.009488,0.961235 9.46625,3.263182 10.398698,4.386714 0.488848,0.589025 0.136559,0.720111 -0.385364,0.143393 z"
       id="path8086" />
    <path
       style="fill:#726a50;stroke-width:1.11163"
       d="m 58.115574,92.079264 c 1.35463,-1.441937 8.222553,-4.267665 11.545292,-4.750178 0.692474,-0.100558 1.450679,-0.217012 1.6849,-0.258787 0.316861,-0.05651 0.541549,0.340172 0.877886,1.54991 0.248616,0.894224 0.577575,1.777136 0.73102,1.962025 0.157132,0.189334 0.853494,0.336163 1.594307,0.336163 h 1.315317 l -0.168811,-1.389063 c -0.09285,-0.763984 -0.193301,-1.625233 -0.223235,-1.913886 -0.04177,-0.402808 0.110165,-0.528628 0.653521,-0.541185 0.554835,-0.01282 0.662707,0.07207 0.498774,0.392532 -0.115045,0.224891 -0.159553,0.587487 -0.09891,0.805768 0.06065,0.218282 -0.08171,0.09922 -0.316356,-0.264583 l -0.426621,-0.661458 0.154303,0.926041 c 0.08487,0.509323 0.27067,0.965729 0.412895,1.014236 0.340717,0.116204 0.335357,1.102431 -0.006,1.102431 -0.145521,0 -0.264584,0.09489 -0.264584,0.210876 0,0.115982 0.58567,0.192293 1.301488,0.169579 0.715819,-0.02271 1.429238,0.03766 1.585377,0.134156 0.156139,0.0965 -1.146414,0.198879 -2.894561,0.227512 -3.155821,0.05169 -3.180597,0.04735 -3.47993,-0.609615 -0.165814,-0.363921 -0.40143,-0.661675 -0.523593,-0.661675 -0.122162,0 -0.223937,-0.386953 -0.226165,-0.859896 -0.0022,-0.472942 -0.09197,-0.998081 -0.199437,-1.166975 -0.641474,-1.008185 -8.441194,1.299303 -11.923448,3.527461 -1.299895,0.831753 -1.428786,0.985575 -0.969938,1.157556 0.409337,0.153423 0.332615,0.195273 -0.338808,0.18481 l -0.867974,-0.01353 z"
       id="path8085" />
    <path
       style="fill:#726a50;stroke-width:1.11163"
       d="m 75.417826,92.767402 -16.139582,-0.135369 16.470311,-0.06307 c 9.058672,-0.03469 16.470312,-0.01627 16.470312,0.04092 0,0.268407 -1.690652,0.284258 -16.801041,0.157521 z"
       id="path8082" />
  </g>
</svg>
