<?xml version="1.0" encoding="UTF-8" standalone="no"?>
<!-- Created with Inkscape (http://www.inkscape.org/) -->

<svg
   width="185"
   height="185"
   viewBox="0 0 48.947914 48.947918"
   version="1.1"
   id="svg1"
   xmlns="http://www.w3.org/2000/svg"
   xmlns:svg="http://www.w3.org/2000/svg">
  <defs
     id="defs1" />
  <g
     id="g8649"
     transform="matrix(0.81210621,0,0,0.81210621,-39.549405,-93.646115)"
     style="stroke-width:1.23137">
    <path
       style="fill:#c4af59;stroke-width:1.23137"
       d="m 59.145952,175.21955 c 0,-1.01246 4.189471,-3.14673 8.713036,-4.43875 l 2.929769,-0.83679 -2.730875,-2.80189 c -2.922198,-2.99819 -6.015909,-7.24133 -5.3797,-7.37846 0.627249,-0.1352 3.34053,1.21438 5.167931,2.57051 2.040079,1.51396 5.442384,4.95051 6.509977,6.5755 0.408264,0.62142 0.790571,1.08158 0.84957,1.02258 0.059,-0.059 -0.485581,-1.51993 -1.210179,-3.24652 -1.640267,-3.90846 -3.472446,-10.17425 -3.472446,-11.87526 v -1.27811 l 0.690104,0.64144 c 2.682188,2.49302 5.054424,7.52054 6.669682,14.13518 0.405249,1.65953 0.367949,0.20758 -0.09147,-3.56061 -1.590775,-13.04766 -1.996743,-15.22326 -3.172075,-16.99931 -0.730284,-1.10353 -2.35604,-2.06196 -3.497663,-2.06196 -1.319321,0 -3.464959,1.9283 -2.901543,2.60763 0.163607,0.19727 0.300887,1.2093 0.305066,2.24896 0.0065,1.62599 -0.09535,2.04936 -0.728713,3.028 -0.793776,1.2265 -2.639497,2.54735 -4.143421,2.96516 -1.486875,0.41307 -1.623686,0.3593 -1.182644,-0.46485 0.832291,-1.55525 3.28978,-7.02711 3.282625,-7.30911 -0.0042,-0.16372 -0.87205,1.36921 -1.92866,3.4065 -1.056609,2.0373 -2.08859,3.96359 -2.293292,4.28066 -0.351521,0.54447 -1.549176,1.27365 -1.754578,1.06825 -0.229523,-0.22952 1.267988,-5.32306 1.97536,-6.71886 0.925641,-1.8265 1.634811,-2.53402 3.138847,-3.13154 0.612976,-0.24352 1.179892,-0.6488 1.259815,-0.90061 0.392427,-1.23643 3.04388,-2.6737 4.910572,-2.66188 1.119937,0.007 2.78293,0.75777 3.761628,1.698 1.664438,1.59901 2.447485,4.19705 3.473741,11.52536 0.377007,2.69213 0.730768,5.34513 0.786137,5.89555 0.158855,1.57916 0.436315,1.4857 0.436315,-0.14696 0,-1.88741 0.642604,-9.70455 1.331683,-16.19963 0.946926,-8.9255 1.262319,-13.16487 1.211205,-16.28051 -0.04346,-2.64893 -0.135926,-3.22462 -0.701161,-4.36524 -0.841267,-1.69765 -2.03813,-2.50529 -3.712638,-2.50529 -1.569329,0 -2.532773,0.73408 -3.48275,2.65364 l -0.666776,1.34731 0.767911,0.56774 c 0.422351,0.31226 1.08711,1.22775 1.477243,2.03442 0.635985,1.31502 0.709892,1.76762 0.714753,4.3771 0.003,1.60072 -0.07739,3.68432 -0.178595,4.6302 -0.101209,0.94589 -0.187717,1.76668 -0.192238,1.82399 -0.03077,0.38999 -2.06851,-2.72009 -2.53624,-3.87091 l -0.57722,-1.42022 -0.297901,1.18307 c -0.163846,0.65069 -0.420694,1.50604 -0.570774,1.90078 -0.264486,0.69565 -0.288933,0.70318 -0.795313,0.24491 -0.55576,-0.50295 -0.686909,-1.68448 -0.271381,-2.44489 1.034302,-1.89276 2.419473,-6.47606 2.064487,-6.83104 -0.06156,-0.0616 -0.318828,0.74526 -0.5717,1.79294 -0.252872,1.04768 -0.768674,2.43199 -1.146227,3.07623 -0.732349,1.24966 -3.415285,4.28056 -3.789128,4.28056 -0.431701,0 -0.571952,-1.88591 -0.284153,-3.82093 0.377452,-2.53781 1.172356,-4.62426 2.353026,-6.17619 0.522061,-0.68622 0.735987,-1.07255 0.475391,-0.85852 -0.963086,0.79101 -2.996185,4.15746 -3.440144,5.69627 -0.756383,2.62169 -2.03572,4.471 -2.412948,3.48796 -0.07167,-0.18677 0.170963,-1.13998 0.539182,-2.11825 0.368219,-0.97827 0.66949,-1.82636 0.66949,-1.88464 0,-0.0583 -0.331592,0.0594 -0.736872,0.26163 -1.006917,0.50231 -3.578233,0.77877 -4.168892,0.44822 -0.429039,-0.2401 -0.395077,-0.30888 0.340272,-0.68915 0.449284,-0.23233 1.799894,-1.48834 3.001355,-2.79113 2.565902,-2.7823 4.085568,-3.7261 5.999614,-3.7261 1.214721,0 1.347308,-0.0631 1.645759,-0.78366 0.41589,-1.00405 2.65588,-3.10399 3.83774,-3.59781 2.108191,-0.88086 4.86875,-0.24451 6.295625,1.45124 1.281086,1.52248 1.644773,3.19422 1.644773,7.56044 0,2.18281 -0.09236,4.86171 -0.205246,5.95312 l -0.205245,1.98438 0.846914,-1.02506 c 1.923404,-2.32798 4.89817,-2.35396 7.189334,-0.0628 0.525559,0.52556 1.189905,0.95556 1.476324,0.95556 2.41292,0 4.580508,3.14693 5.626461,8.16856 0.308378,1.48053 0.489019,2.76353 0.401425,2.85113 -0.143599,0.1436 -1.168872,-0.91903 -1.931325,-2.00169 -0.528174,-0.74999 -2.678239,-4.89965 -2.880914,-5.56021 -0.108551,-0.3538 -0.433287,-1.00864 -0.721635,-1.45521 -0.288348,-0.44657 -0.435167,-0.57383 -0.326264,-0.28278 0.108903,0.29104 0.405513,1.12447 0.659132,1.85208 0.25362,0.7276 1.076046,2.51354 1.827614,3.96875 0.962209,1.86306 1.261024,2.66809 1.010013,2.72108 -0.694278,0.14654 -3.521998,-1.32092 -4.639274,-2.40758 -1.635974,-1.59116 -2.346364,-4.28967 -1.627211,-6.18118 0.259461,-0.68244 0.19583,-0.82351 -0.783505,-1.73702 -1.787139,-1.66702 -3.536734,-1.23761 -4.995042,1.22597 -0.897252,1.51577 -1.227058,2.48219 -1.635078,4.79123 -0.39549,2.23813 -1.285975,12.54495 -1.45157,16.80104 l -0.138975,3.57187 0.392371,-2.06589 c 0.66805,-3.5174 1.947786,-8.66517 2.80808,-11.29556 1.088129,-3.32702 2.839555,-6.83301 3.160318,-6.32631 0.373738,0.59039 0.280894,4.89686 -0.16491,7.64922 -0.390911,2.41346 -0.730494,3.78029 -2.882958,11.60402 -0.534785,1.94382 -0.928165,3.57839 -0.874179,3.63237 0.05399,0.054 0.495186,-0.88157 0.980442,-2.07901 1.651296,-4.07481 4.076515,-8.1033 6.505197,-10.80566 1.081789,-1.2037 3.052266,-2.94756 3.182937,-2.81689 0.05782,0.0578 -0.134141,0.96858 -0.426587,2.02391 -0.757606,2.73391 -3.351636,8.20447 -6.483302,13.67266 l -0.61634,1.07619 3.091707,0.86668 c 4.665816,1.30794 8.780248,3.37107 8.780248,4.40274 0,0.33137 -2.657452,0.38341 -19.579165,0.38341 -16.47961,0 -19.579166,-0.0579 -19.579166,-0.36547 z"
       id="path8636" />
    <path
       style="fill:#8fa38f;stroke-width:1.23137"
       d="m 85.361881,148.99442 c 0,-0.14553 0.228144,-0.68131 0.506986,-1.19063 0.278843,-0.50932 0.506987,-0.80698 0.506987,-0.66146 0,0.14552 -0.228144,0.6813 -0.506987,1.19063 -0.278842,0.50932 -0.506986,0.80698 -0.506986,0.66146 z"
       id="path8627" />
    <path
       style="fill:#8fa38f;stroke-width:1.23137"
       d="m 87.190187,148.91617 0.130695,-2.83217 0.07784,2.62251 c 0.04281,1.44237 -0.016,2.71685 -0.130695,2.83216 -0.114694,0.11532 -0.149722,-1.06481 -0.07784,-2.6225 z"
       id="path8624" />
    <path
       style="fill:#8fa38f;stroke-width:1.23137"
       d="m 83.52481,154.15379 c 0,-0.21828 0.102326,-0.635 0.227391,-0.92604 0.143329,-0.33355 0.22739,-0.38245 0.22739,-0.13229 0,0.21828 -0.102325,0.635 -0.22739,0.92604 -0.143329,0.33354 -0.227391,0.38245 -0.227391,0.13229 z"
       id="path8622" />
    <path
       style="fill:#8fa38f;stroke-width:1.23137"
       d="m 71.302541,154.48457 -0.911798,-0.99219 0.992188,0.9118 c 0.545703,0.50149 0.992187,0.94797 0.992187,0.99219 0,0.20204 -0.223895,0.0117 -1.072577,-0.9118 z"
       id="path8619" />
    <path
       style="fill:#8fa38f;stroke-width:1.23137"
       d="m 90.366784,156.63539 c 0,-0.13887 0.625078,-0.84332 1.389062,-1.56545 l 1.389063,-1.31298 -1.322917,1.44962 c -0.727604,0.79729 -1.352682,1.50174 -1.389062,1.56545 -0.03638,0.0637 -0.06615,0.002 -0.06615,-0.13664 z"
       id="path8617" />
    <path
       style="fill:#8fa38f;stroke-width:1.23137"
       d="m 86.178421,156.79967 c 0.0043,-0.21828 0.103103,-0.69453 0.219613,-1.05833 0.170293,-0.53174 0.213361,-0.55768 0.219613,-0.13229 0.0043,0.29104 -0.09455,0.76729 -0.219613,1.05833 -0.139312,0.3242 -0.224378,0.37544 -0.219613,0.13229 z"
       id="path8616" />
    <path
       style="fill:#8fa38f;stroke-width:1.23137"
       d="m 70.688013,156.65715 c -0.09074,-0.23646 -0.153018,-0.74761 -0.138401,-1.13589 0.02138,-0.56788 0.07394,-0.50409 0.268746,0.32616 0.248394,1.05866 0.164697,1.5786 -0.130345,0.80973 z"
       id="path8615" />
    <path
       style="fill:#8fa38f;stroke-width:1.23137"
       d="m 73.654618,157.79186 c -1.296274,-2.04022 -1.405881,-2.27024 -0.661904,-1.38906 0.721738,0.85483 1.878557,2.77812 1.670986,2.77812 -0.06959,0 -0.523676,-0.62508 -1.009082,-1.38906 z"
       id="path8614" />
    <path
       style="fill:#8fa38f;stroke-width:1.23137"
       d="m 64.554334,160.64452 c -0.282475,-0.21366 -0.394528,-0.38846 -0.249007,-0.38846 0.145521,0 0.495699,0.1748 0.778174,0.38846 0.282474,0.21365 0.394528,0.38846 0.249007,0.38846 -0.145521,0 -0.495699,-0.17481 -0.778174,-0.38846 z"
       id="path8611" />
    <path
       style="fill:#8fa38f;stroke-width:1.23137"
       d="m 66.872658,161.97778 c -1.080434,-0.76394 -1.26718,-0.94677 -0.957783,-0.93769 0.133394,0.004 0.659254,0.3579 1.168577,0.78664 1.106886,0.93174 1.00082,1.00775 -0.210794,0.15105 z"
       id="path8610" />
    <path
       style="fill:#8fa38f;stroke-width:1.23137"
       d="m 88.254169,166.27362 c -0.0053,-0.23963 1.072735,-2.06564 1.219502,-2.06564 0.06212,0 -0.06434,0.32742 -0.281036,0.7276 -0.539177,0.99573 -0.933603,1.5581 -0.938466,1.33804 z"
       id="path8607" />
    <path
       style="fill:#8fa38f;stroke-width:1.23137"
       d="m 71.167848,165.46475 -0.777105,-0.8599 0.859896,0.77711 c 0.801543,0.72437 0.981512,0.94268 0.777105,0.94268 -0.04553,0 -0.432488,-0.38695 -0.859896,-0.85989 z"
       id="path8606" />
    <path
       style="fill:#8fa38f;stroke-width:1.23137"
       d="m 77.205762,166.8356 c -0.180802,-0.76829 -0.277925,-1.4477 -0.215828,-1.5098 0.169057,-0.16906 0.720621,2.03438 0.626268,2.50186 -0.04494,0.22266 -0.229638,-0.22376 -0.41044,-0.99206 z"
       id="path8603" />
    <path
       style="fill:#8fa38f;stroke-width:1.23137"
       d="m 59.145952,175.21955 c 0,-0.53716 1.609948,-1.67376 3.811846,-2.6911 1.818329,-0.84012 7.041713,-2.49968 7.867611,-2.49968 0.206607,0 1.08257,0.71437 1.946584,1.5875 l 1.570935,1.5875 h 2.455678 c 2.662829,0 2.690941,-0.0194 2.275323,-1.57333 -0.15817,-0.59136 -0.188658,-0.60303 -0.352826,-0.13502 -0.110639,0.31541 -0.250699,-0.24927 -0.364456,-1.46937 -0.21466,-2.30235 -0.741784,-6.79199 -1.521841,-12.96186 -0.934942,-7.39495 -1.788244,-9.75501 -3.920276,-10.84269 -1.780739,-0.90847 -2.979331,-0.62437 -4.417559,1.04706 -0.439507,0.51077 -0.504523,0.75172 -0.276901,1.02617 0.163607,0.19727 0.300887,1.2093 0.305066,2.24896 0.0065,1.62599 -0.09535,2.04936 -0.728713,3.028 -0.793776,1.2265 -2.639497,2.54735 -4.143421,2.96516 -1.486875,0.41307 -1.623686,0.3593 -1.182644,-0.46485 0.832291,-1.55525 3.28978,-7.02711 3.282625,-7.30911 -0.0042,-0.16372 -0.87205,1.36921 -1.92866,3.4065 -1.056609,2.0373 -2.08859,3.96359 -2.293292,4.28066 -0.351521,0.54447 -1.549176,1.27365 -1.754578,1.06825 -0.229523,-0.22952 1.267988,-5.32306 1.97536,-6.71886 0.925641,-1.8265 1.634811,-2.53402 3.138847,-3.13154 0.612976,-0.24352 1.179892,-0.6488 1.259815,-0.90061 0.392427,-1.23643 3.04388,-2.6737 4.910572,-2.66188 1.119937,0.007 2.78293,0.75777 3.761628,1.698 1.664438,1.59901 2.447485,4.19705 3.473741,11.52536 0.377007,2.69213 0.730768,5.34513 0.786137,5.89555 0.158855,1.57916 0.436315,1.4857 0.436315,-0.14696 0,-1.88741 0.642604,-9.70455 1.331683,-16.19963 0.946926,-8.9255 1.262319,-13.16487 1.211205,-16.28051 -0.04346,-2.64893 -0.135926,-3.22462 -0.701161,-4.36524 -0.841267,-1.69765 -2.03813,-2.50529 -3.712638,-2.50529 -1.569329,0 -2.532773,0.73408 -3.48275,2.65364 l -0.666776,1.34731 0.767911,0.56774 c 0.422351,0.31226 1.08711,1.22775 1.477243,2.03442 0.635985,1.31502 0.709892,1.76762 0.714753,4.3771 0.003,1.60072 -0.07739,3.68432 -0.178595,4.6302 -0.101209,0.94589 -0.187717,1.76668 -0.192238,1.82399 -0.03077,0.38999 -2.06851,-2.72009 -2.53624,-3.87091 l -0.57722,-1.42022 -0.297901,1.18307 c -0.163846,0.65069 -0.420694,1.50604 -0.570774,1.90078 -0.264486,0.69565 -0.288933,0.70318 -0.795313,0.24491 -0.55576,-0.50295 -0.686909,-1.68448 -0.271381,-2.44489 1.034302,-1.89276 2.419473,-6.47606 2.064487,-6.83104 -0.06156,-0.0616 -0.318828,0.74526 -0.5717,1.79294 -0.252872,1.04768 -0.768674,2.43199 -1.146227,3.07623 -0.732349,1.24966 -3.415285,4.28056 -3.789128,4.28056 -0.431701,0 -0.571952,-1.88591 -0.284153,-3.82093 0.377452,-2.53781 1.172356,-4.62426 2.353026,-6.17619 0.522061,-0.68622 0.735987,-1.07255 0.475391,-0.85852 -0.963086,0.79101 -2.996185,4.15746 -3.440144,5.69627 -0.756383,2.62169 -2.03572,4.471 -2.412948,3.48796 -0.07167,-0.18677 0.170963,-1.13998 0.539182,-2.11825 0.368219,-0.97827 0.66949,-1.82636 0.66949,-1.88464 0,-0.0583 -0.331592,0.0594 -0.736872,0.26163 -1.006917,0.50231 -3.578233,0.77877 -4.168892,0.44822 -0.429039,-0.2401 -0.395077,-0.30888 0.340272,-0.68915 0.449284,-0.23233 1.799894,-1.48834 3.001355,-2.79113 2.565902,-2.7823 4.085568,-3.7261 5.999614,-3.7261 1.214721,0 1.347308,-0.0631 1.645759,-0.78366 0.41589,-1.00405 2.65588,-3.10399 3.83774,-3.59781 2.108191,-0.88086 4.86875,-0.24451 6.295625,1.45124 1.281086,1.52248 1.644773,3.19422 1.644773,7.56044 0,2.18281 -0.09236,4.86171 -0.205246,5.95312 l -0.205245,1.98438 0.846914,-1.02506 c 1.923404,-2.32798 4.89817,-2.35396 7.189334,-0.0628 0.525559,0.52556 1.189905,0.95556 1.476324,0.95556 2.41292,0 4.580508,3.14693 5.626461,8.16856 0.308378,1.48053 0.489019,2.76353 0.401425,2.85113 -0.143599,0.1436 -1.168872,-0.91903 -1.931325,-2.00169 -0.528174,-0.74999 -2.678239,-4.89965 -2.880914,-5.56021 -0.108551,-0.3538 -0.433287,-1.00864 -0.721635,-1.45521 -0.288348,-0.44657 -0.435167,-0.57383 -0.326264,-0.28278 0.108903,0.29104 0.405513,1.12447 0.659132,1.85208 0.25362,0.7276 1.076046,2.51354 1.827614,3.96875 0.962209,1.86306 1.261024,2.66809 1.010013,2.72108 -0.694278,0.14654 -3.521998,-1.32092 -4.639274,-2.40758 -1.635974,-1.59116 -2.346364,-4.28967 -1.627211,-6.18118 0.259461,-0.68244 0.19583,-0.82351 -0.783505,-1.73702 -1.787139,-1.66702 -3.536734,-1.23761 -4.995042,1.22597 -0.897328,1.5159 -1.227168,2.48249 -1.634952,4.79123 -0.641619,3.63263 -1.851356,20.19134 -1.860491,25.46614 l -0.0042,2.4474 h 1.788871 1.78887 l 1.0554,-1.67909 1.0554,-1.67908 3.311633,0.96377 c 4.849013,1.41118 8.726908,3.36292 8.726908,4.39224 0,0.33137 -2.657452,0.38341 -19.579165,0.38341 -16.47961,0 -19.579166,-0.0579 -19.579166,-0.36547 z"
       id="path8600" />
    <path
       style="fill:#9d9c66;stroke-width:1.23137"
       d="m 91.026774,138.80641 c -0.264196,-0.29194 -0.41784,-0.59331 -0.34143,-0.66972 0.07641,-0.0764 0.336393,0.16244 0.577741,0.53079 0.527313,0.80478 0.422203,0.86657 -0.236311,0.13893 z"
       id="path8590" />
    <path
       style="fill:#9d9c66;stroke-width:1.23137"
       d="m 85.361881,148.99449 c 0,-0.14553 0.228144,-0.68131 0.506986,-1.19063 0.278843,-0.50932 0.506987,-0.80698 0.506987,-0.66146 0,0.14552 -0.228144,0.6813 -0.506987,1.19063 -0.278842,0.50932 -0.506986,0.80698 -0.506986,0.66146 z"
       id="path8588" />
    <path
       style="fill:#9d9c66;stroke-width:1.23137"
       d="m 87.189913,149.18089 0.130421,-2.56765 0.07893,2.3571 c 0.04341,1.29641 -0.01528,2.45186 -0.130421,2.56766 -0.115143,0.1158 -0.150661,-0.94489 -0.07893,-2.35711 z"
       id="path8585" />
    <path
       style="fill:#9d9c66;stroke-width:1.23137"
       d="m 77.296525,153.44841 c 0.243527,-1.01372 0.370259,-1.10967 0.370259,-0.28031 0,0.37946 -0.123834,0.76647 -0.275188,0.86001 -0.180496,0.11156 -0.21321,-0.0879 -0.09507,-0.5797 z"
       id="path8583" />
    <path
       style="fill:#9d9c66;stroke-width:1.23137"
       d="m 83.52481,154.15385 c 0,-0.21828 0.102326,-0.635 0.227391,-0.92604 0.143329,-0.33355 0.22739,-0.38245 0.22739,-0.13229 0,0.21828 -0.102325,0.635 -0.22739,0.92604 -0.143329,0.33354 -0.227391,0.38245 -0.227391,0.13229 z"
       id="path8582" />
    <path
       style="fill:#9d9c66;stroke-width:1.23137"
       d="m 71.432432,154.61683 -0.777106,-0.8599 0.859896,0.77711 c 0.472943,0.42741 0.859896,0.81436 0.859896,0.8599 0,0.2044 -0.218315,0.0244 -0.942686,-0.77711 z"
       id="path8579" />
    <path
       style="fill:#9d9c66;stroke-width:1.23137"
       d="m 90.366784,156.63536 c 0,-0.13887 0.625078,-0.84332 1.389062,-1.56545 l 1.389063,-1.31298 -1.322917,1.44962 c -0.727604,0.79729 -1.352682,1.50174 -1.389062,1.56545 -0.03638,0.0637 -0.06615,0.002 -0.06615,-0.13664 z"
       id="path8578" />
    <path
       style="fill:#9d9c66;stroke-width:1.23137"
       d="m 62.320952,156.70078 c 0,-0.14702 1.188816,-2.73703 2.972189,-6.47535 0.56888,-1.1925 0.86668,-1.57607 1.027107,-1.32292 0.124264,0.19608 0.227757,0.22679 0.229985,0.0683 0.0054,-0.381 1.267535,-0.948 1.45067,-0.65168 0.07843,0.1269 0.06245,0.4396 -0.03551,0.69488 -0.112718,0.29374 -0.07557,0.40078 0.101178,0.29155 0.158605,-0.098 0.333015,0.10842 0.403617,0.47775 0.06838,0.3577 0.03379,0.59441 -0.07687,0.52603 -0.110656,-0.0684 -0.138864,0.34035 -0.06268,0.90832 0.201582,1.5029 -0.716194,2.9791 -2.658543,4.27615 -0.857644,0.57272 -1.774174,1.0413 -2.036731,1.0413 -0.262557,0 -0.665709,0.0723 -0.895892,0.1606 -0.230183,0.0883 -0.418514,0.0906 -0.418514,0.005 z m 3.439583,-1.63168 c 0,-0.0728 -0.47625,0.11067 -1.058333,0.40763 -0.582084,0.29695 -1.058334,0.59945 -1.058334,0.67221 0,0.0728 0.47625,-0.11067 1.058334,-0.40763 0.582083,-0.29696 1.058333,-0.59945 1.058333,-0.67221 z"
       id="path8577" />
    <path
       style="fill:#9d9c66;stroke-width:1.23137"
       d="m 86.178421,156.79968 c 0.0043,-0.21828 0.103103,-0.69453 0.219613,-1.05833 0.170293,-0.53174 0.213361,-0.55768 0.219613,-0.13229 0.0043,0.29104 -0.09455,0.76729 -0.219613,1.05833 -0.139312,0.3242 -0.224378,0.37544 -0.219613,0.13229 z"
       id="path8576" />
    <path
       style="fill:#9d9c66;stroke-width:1.23137"
       d="m 77.587837,155.74135 c 0.08285,-0.80036 0.194035,-1.50482 0.247082,-1.56545 0.185455,-0.21198 0.04173,1.70365 -0.177007,2.3592 -0.142479,0.42701 -0.167317,0.14567 -0.07008,-0.79375 z"
       id="path8575" />
    <path
       style="fill:#9d9c66;stroke-width:1.23137"
       d="m 70.692542,156.47945 c -0.08926,-0.3332 -0.151947,-0.84393 -0.139317,-1.13498 0.01263,-0.29104 0.131941,-0.0647 0.265133,0.50296 0.257953,1.0994 0.147719,1.65314 -0.125816,0.63202 z"
       id="path8574" />
    <path
       style="fill:#9d9c66;stroke-width:1.23137"
       d="m 73.654618,157.79187 c -1.223867,-1.92626 -1.417358,-2.31405 -0.701393,-1.40573 0.754944,0.95776 1.877974,2.79479 1.708542,2.79479 -0.06853,0 -0.521743,-0.62508 -1.007149,-1.38906 z"
       id="path8573" />
    <path
       style="fill:#9d9c66;stroke-width:1.23137"
       d="m 66.872658,161.97782 c -1.228962,-0.86896 -1.401921,-1.11732 -0.364177,-0.52293 0.484131,0.27729 1.004726,0.653 1.156876,0.8349 0.391017,0.46747 0.207509,0.39525 -0.792699,-0.31197 z"
       id="path8569" />
    <path
       style="fill:#9d9c66;stroke-width:1.23137"
       d="m 88.254169,166.27366 c -0.0053,-0.23963 1.072735,-2.06564 1.219502,-2.06564 0.06212,0 -0.06434,0.32742 -0.281036,0.7276 -0.539177,0.99573 -0.933603,1.5581 -0.938466,1.33804 z"
       id="path8567" />
    <path
       style="fill:#9d9c66;stroke-width:1.23137"
       d="m 71.167848,165.46479 -0.777105,-0.8599 0.859896,0.77711 c 0.801543,0.72437 0.981512,0.94268 0.777105,0.94268 -0.04553,0 -0.432488,-0.38695 -0.859896,-0.85989 z"
       id="path8566" />
    <path
       style="fill:#9d9c66;stroke-width:1.23137"
       d="m 77.024225,166.17345 c -0.09732,-0.38775 -0.125917,-0.75603 -0.06355,-0.81839 0.06237,-0.0624 0.193017,0.20386 0.290337,0.59161 0.09732,0.38775 0.125917,0.75602 0.06355,0.81839 -0.06237,0.0624 -0.193018,-0.20386 -0.290337,-0.59161 z"
       id="path8564" />
    <path
       style="fill:#9d9c66;stroke-width:1.23137"
       d="m 59.145952,175.34788 c 0,-0.3976 1.797605,-1.84323 3.118621,-2.50798 1.519375,-0.76457 4.82406,-1.88426 7.160449,-2.42611 l 1.729074,-0.401 1.609817,1.59551 1.609817,1.59551 h 2.440277 c 2.645847,0 2.675262,-0.0205 2.259922,-1.57333 -0.156559,-0.58534 -0.190106,-0.5989 -0.350488,-0.14168 -0.102594,0.29247 -0.25394,-0.43847 -0.359029,-1.73396 -0.369153,-4.5508 -1.899111,-16.34437 -2.403159,-18.52457 -0.838882,-3.62851 -2.255755,-5.26564 -4.799521,-5.54563 -0.777826,-0.0856 -1.35983,-0.10127 -1.293342,-0.0348 0.169948,0.16995 -0.413204,0.83103 -0.733065,0.83103 -0.145521,0 -0.101177,-0.20836 0.09854,-0.46302 0.328604,-0.419 0.319385,-0.42873 -0.09698,-0.10231 -0.25306,0.19839 -0.4112,0.43984 -0.351423,0.53656 0.221617,0.35859 -0.805919,1.35928 -1.641941,1.59905 -0.536143,0.15376 -0.805965,0.15384 -0.711019,2.2e-4 0.08416,-0.13617 0.07011,-0.38172 -0.03121,-0.54566 -0.108499,-0.17556 -0.389974,0.15072 -0.684762,0.79375 -0.275295,0.60051 -0.612402,1.09183 -0.749127,1.09183 -0.136725,0 -0.18359,0.16939 -0.104145,0.37642 0.07944,0.20703 -0.09296,0.61382 -0.383131,0.90399 -0.290166,0.29017 -0.474602,0.58055 -0.409857,0.64529 0.141084,0.14109 -1.184225,2.8368 -1.394671,2.8368 -0.08067,0 -0.06726,-0.20695 0.0298,-0.45989 0.146865,-0.38273 0.09251,-0.37163 -0.323945,0.0661 -0.593294,0.62367 -0.711389,1.35331 -0.142639,0.88129 0.278865,-0.23143 0.325136,-0.20999 0.207623,0.0962 -0.08317,0.21673 -0.504853,0.65551 -0.937081,0.97507 l -0.785869,0.58102 0.132702,-1.13609 c 0.129217,-1.10624 0.12498,-1.11389 -0.161321,-0.29105 -0.161712,0.46477 -0.216704,1.04652 -0.122203,1.29278 0.158568,0.41323 0.215187,0.40927 0.734125,-0.0513 0.376314,-0.33397 0.522857,-0.37529 0.443041,-0.12491 -0.0656,0.20576 -0.479865,0.6522 -0.9206,0.99209 -0.981547,0.75694 -1.021141,0.55792 -0.429722,-2.15996 0.809885,-3.72185 2.150831,-5.98058 4.081559,-6.8751 0.780888,-0.36179 1.585208,-1.00819 2.045996,-1.64429 0.86066,-1.18811 2.207534,-1.89863 2.748313,-1.44982 0.215102,0.17852 0.481434,0.19179 0.727365,0.0362 0.315707,-0.19967 0.289404,-0.2506 -0.141166,-0.27331 -0.339152,-0.0179 -0.218603,-0.11753 0.335713,-0.27749 1.589317,-0.45863 3.906892,0.53588 5.200192,2.23148 0.782786,1.02629 1.616455,3.20159 1.844426,4.8127 l 0.149754,1.05833 -0.327001,-1.14499 c -0.179851,-0.62974 -0.415605,-1.05638 -0.523897,-0.94809 -0.18005,0.18005 -0.298048,-0.32333 -0.268449,-1.14522 0.0065,-0.18033 -0.114045,-0.2501 -0.267865,-0.15503 -0.176355,0.10899 -0.214883,0.004 -0.104292,-0.28419 0.225942,-0.5888 -0.536027,-2.09083 -0.935437,-1.84398 -0.194198,0.12002 -0.240459,0.0337 -0.132579,-0.24746 0.09114,-0.23749 0.06431,-0.49446 -0.0596,-0.57105 -0.406008,-0.25093 -0.495016,0.52965 -0.119028,1.04385 0.266596,0.36459 0.36965,0.39786 0.375488,0.12121 0.0059,-0.28045 0.07969,-0.25828 0.278903,0.0838 0.148972,0.25582 0.186486,0.60164 0.08337,0.76849 -0.115032,0.18612 -0.07061,0.23113 0.114941,0.11645 0.190405,-0.11767 0.248456,-0.0463 0.156716,0.19282 -0.08014,0.20885 0.04028,0.82489 0.267614,1.36897 0.227332,0.54408 0.415154,1.30212 0.417382,1.68453 0.0032,0.54609 0.05909,0.61013 0.260532,0.29842 0.287779,-0.44531 0.313354,-0.23248 0.301068,2.50537 -0.0043,0.95386 0.0806,1.43746 0.214318,1.22109 0.12711,-0.20566 0.160634,0.18093 0.07872,0.90771 -0.08817,0.78227 -0.04504,1.2056 0.112896,1.10799 0.147731,-0.0913 0.216186,0.14318 0.162219,0.55567 -0.20853,1.59384 0.557346,3.84227 0.928998,2.72732 0.06739,-0.20216 0.01778,-0.30288 -0.110243,-0.22382 -0.12802,0.0791 -0.247131,-0.86132 -0.264693,-2.08972 -0.01756,-1.2284 6.3e-4,-2.19925 0.04043,-2.15743 0.08851,0.093 0.614837,4.39906 0.791606,6.4764 0.250062,2.93867 0.570315,1.89605 0.886454,-2.88595 0.301486,-4.56038 0.843337,-10.37615 1.757194,-18.86025 0.604234,-5.60963 0.785241,-11.37157 0.412993,-13.14671 -0.582495,-2.77772 -2.007383,-4.20665 -4.211794,-4.22373 -1.781022,-0.0138 -2.447308,0.44126 -3.478268,2.37554 -0.730036,1.36968 -0.91276,1.54419 -1.5402,1.47096 -0.391543,-0.0457 -0.503538,-0.0191 -0.248876,0.0591 0.254661,0.0782 0.463021,0.26526 0.463021,0.41568 0,0.15042 0.195812,0.19835 0.435138,0.10651 0.506959,-0.19454 1.484874,0.58015 1.237534,0.98036 -0.09674,0.15653 -0.03604,0.1892 0.144368,0.0777 0.203656,-0.12586 0.547001,0.32245 0.992931,1.29649 0.848744,1.8539 1.107403,4.88091 0.632255,7.3991 -0.183355,0.97174 -0.333372,2.05199 -0.333372,2.40054 0,0.56833 -0.101945,0.51038 -0.987652,-0.56145 -0.543208,-0.65736 -1.205518,-1.83615 -1.4718,-2.61954 -0.489415,-1.43983 -0.913986,-1.68532 -0.913986,-0.52846 0,0.34662 -0.121004,0.70501 -0.268899,0.79642 -0.147894,0.0914 -0.195958,0.28421 -0.106807,0.42846 0.08915,0.14424 0.02126,0.60228 -0.150879,1.01785 -0.295704,0.71389 -0.340904,0.73166 -0.819235,0.3221 -0.278445,-0.23841 -0.506263,-0.54453 -0.506263,-0.68026 0,-0.13574 0.238125,-0.0313 0.529167,0.2321 0.291041,0.26338 0.529166,0.34812 0.529166,0.1883 0,-0.15983 -0.256831,-0.47048 -0.570737,-0.69035 l -0.570737,-0.39976 0.735807,-1.66576 c 0.805969,-1.8246 1.258203,-2.49651 1.013257,-1.50544 -0.08611,0.34838 -0.06128,0.5458 0.05517,0.43871 0.11645,-0.10709 0.199389,-0.58334 0.184308,-1.05833 -0.01508,-0.47499 0.128981,-1.51847 0.320137,-2.31883 0.446823,-1.87084 0.518876,-3.26716 0.157052,-3.04354 -0.151007,0.0933 -0.219433,0.25888 -0.152059,0.36789 0.229154,0.37078 -1.085611,4.73036 -1.788081,5.92904 -0.784249,1.33821 -3.267407,4.15494 -3.6629,4.15494 -0.141314,0 -0.06983,-0.1871 0.15884,-0.41577 0.508115,-0.50812 0.553025,-0.82126 0.05898,-0.41124 -0.553178,0.4591 -0.575408,-3.05922 -0.03116,-4.93138 0.790449,-2.71904 2.429998,-5.3304 3.09044,-4.92222 0.161784,0.1 0.215051,0.0583 0.120642,-0.0945 -0.09298,-0.15044 -0.420806,-0.33936 -0.728509,-0.41983 -0.307704,-0.0805 -0.493982,-0.0808 -0.413951,-7.9e-4 0.08003,0.08 -0.47374,1.05423 -1.2306,2.16489 -0.855935,1.25604 -1.633841,2.81948 -2.057932,4.13604 -0.375003,1.16417 -0.817202,2.08833 -0.982666,2.05369 -0.165464,-0.0346 -0.241398,0.0919 -0.168742,0.28128 0.07265,0.18934 -0.130689,0.57486 -0.451877,0.85672 -0.321188,0.28186 -0.496954,0.36365 -0.390591,0.18175 0.106362,-0.1819 0.07289,-0.33073 -0.07439,-0.33073 -0.147276,0 0.04868,-0.87988 0.435458,-1.95528 0.443586,-1.23335 0.822262,-1.90959 1.025618,-1.83156 0.343604,0.13186 1.040305,-0.91569 0.78128,-1.17471 -0.08455,-0.0845 -0.153728,-0.002 -0.153728,0.18326 0,0.20375 -0.171714,0.27109 -0.434299,0.17033 -0.378007,-0.14506 -0.38685,-0.10948 -0.06822,0.27444 0.32731,0.39439 0.303253,0.42116 -0.22716,0.25281 -0.361671,-0.11479 -0.593238,-0.078 -0.593238,0.0941 0,0.15533 -0.126089,0.28241 -0.280198,0.28241 -0.154109,0 -0.190785,-0.14883 -0.0815,-0.33073 0.114064,-0.18986 -0.0093,-0.16169 -0.289614,0.0661 -0.268571,0.21827 -0.73791,0.36177 -1.042977,0.31889 -0.407682,-0.0573 -0.459921,-0.0137 -0.197131,0.16449 0.263192,0.17848 0.152651,0.27253 -0.418924,0.35642 -0.507903,0.0745 -0.776458,-0.001 -0.776458,-0.21898 0,-0.18312 0.117615,-0.26025 0.261366,-0.17141 0.144305,0.0892 0.178494,0.0274 0.07634,-0.13785 -0.162418,-0.2628 2.336759,-3.27167 3.500279,-4.21415 0.224564,-0.1819 0.296245,-0.33066 0.159291,-0.33058 -0.136954,7e-5 -1.096869,0.92281 -2.133145,2.05052 -1.036275,1.12771 -2.256666,2.26547 -2.711979,2.52836 -1.216949,0.70264 -1.007696,0.33264 0.333901,-0.5904 0.638958,-0.43962 1.784883,-1.54667 2.546501,-2.46011 1.706772,-2.04701 3.601185,-3.45703 4.434009,-3.30024 0.330895,0.0623 0.665343,0.0102 0.743219,-0.11584 0.07788,-0.12601 0.549686,-0.2291 1.048467,-0.2291 0.771087,0 0.962109,-0.12876 1.275753,-0.8599 0.46043,-1.07332 2.137931,-2.70123 2.532335,-2.45747 0.163806,0.10124 0.261806,0.0343 0.221299,-0.15103 -0.132517,-0.6065 1.432704,-1.16181 3.274699,-1.16181 1.553911,0 1.894562,0.0975 2.910416,0.83307 2.45861,1.78024 3.1188,4.66692 2.633248,11.5139 -0.219685,3.09786 -0.231826,4.60149 -0.04005,4.95983 0.151366,0.28283 0.197136,0.73122 0.101712,0.99643 -0.213325,0.59287 -0.07603,0.45318 0.566267,-0.57615 0.41492,-0.66494 0.423393,-0.73482 0.05221,-0.43062 -0.243696,0.19972 -0.443084,0.24406 -0.443084,0.0985 0,-0.14552 0.178594,-0.4128 0.396875,-0.59396 0.317552,-0.26354 0.396875,-0.26182 0.396875,0.009 0,0.22598 0.177439,0.17741 0.53542,-0.14656 0.399133,-0.36121 0.451663,-0.53631 0.206371,-0.68791 -0.206303,-0.1275 0.136806,-0.32796 0.919789,-0.53738 0.68686,-0.18371 1.248837,-0.42007 1.248837,-0.52525 0,-0.22294 -1.260763,0.10751 -2.077154,0.54443 -0.309877,0.16584 -0.534832,0.44139 -0.4999,0.61233 0.03493,0.17094 -0.05555,0.31804 -0.201071,0.32688 -0.145521,0.009 -0.413411,0.11058 -0.595312,0.22608 -0.666647,0.4233 -0.30693,-0.32338 0.471237,-0.97817 0.817742,-0.68808 2.286655,-1.22018 3.375761,-1.22283 0.565408,-0.001 2.701439,0.93137 2.701439,1.17965 0,0.0616 -0.54139,-0.12745 -1.203089,-0.42015 -0.661698,-0.2927 -1.346307,-0.47928 -1.521354,-0.41462 -0.175046,0.0647 0.03892,0.20848 0.475485,0.31961 1.315391,0.33482 2.255804,0.91166 2.554287,1.56676 0.243363,0.53412 0.511125,0.63433 1.937548,0.72516 1.96183,0.12492 2.512868,0.60329 3.987808,3.46187 0.952524,1.84608 1.831273,5.47129 1.544929,6.37348 -0.114396,0.36043 -0.06516,0.44396 0.17442,0.29589 0.221743,-0.13705 0.267764,-0.0994 0.137082,0.112 -0.264808,0.42847 -0.706541,0.0457 -1.7294,-1.49853 -0.782792,-1.1818 -1.152007,-2.22897 -0.444978,-1.26205 0.278339,0.38066 0.403303,0.41178 0.570047,0.14199 0.150934,-0.24422 0.110799,-0.28204 -0.136868,-0.12897 -0.248125,0.15334 -0.305171,0.0986 -0.195408,-0.1874 0.110742,-0.28859 -0.006,-0.39545 -0.408611,-0.37413 -0.460142,0.0244 -0.572039,-0.1323 -0.609425,-0.85318 -0.02519,-0.48566 -0.195789,-1.02144 -0.379116,-1.19062 -0.262692,-0.24243 -0.29166,-0.19548 -0.136708,0.22155 0.442417,1.19071 0.413559,1.27255 -0.113729,0.32251 -0.305384,-0.55022 -0.472575,-1.13416 -0.371535,-1.29765 0.1025,-0.16585 0.06578,-0.22436 -0.08307,-0.13237 -0.310824,0.1921 -0.952644,-1.06363 -0.728774,-1.42586 0.0832,-0.13461 0.04429,-0.24475 -0.08646,-0.24475 -0.130751,0 -0.38036,-0.31305 -0.554688,-0.69565 -0.174327,-0.38261 -0.369696,-0.64291 -0.434152,-0.57846 -0.214752,0.21475 1.373992,4.28766 2.533018,6.49366 0.62904,1.19726 1.079663,2.24088 1.001385,2.31916 -0.07828,0.0783 -0.547295,-0.0334 -1.042257,-0.24825 -0.494963,-0.21482 -0.743277,-0.39524 -0.551809,-0.40094 0.191468,-0.006 0.608187,0.11527 0.926042,0.26882 0.558266,0.26969 0.560453,0.26519 0.06433,-0.13229 -0.282475,-0.22631 -0.788491,-0.42635 -1.12448,-0.44454 -0.335988,-0.0182 -0.729951,-0.0628 -0.875471,-0.0992 -0.145521,-0.0364 -0.379503,-0.081 -0.519961,-0.0992 -0.51674,-0.0669 -2.171251,-1.7308 -2.63892,-2.65386 -0.721015,-1.42309 -0.916508,-3.0648 -0.529538,-4.44692 0.296732,-1.05982 0.284694,-1.22556 -0.104847,-1.44356 -0.242037,-0.13545 -0.440068,-0.374 -0.440068,-0.53011 0,-0.17671 0.174753,-0.1516 0.463021,0.0665 0.399713,0.30246 0.415992,0.29785 0.119063,-0.0337 -0.189177,-0.21126 -0.427302,-0.39468 -0.529167,-0.40759 -0.101864,-0.0129 -0.601927,-0.2278 -1.11125,-0.47753 -0.863971,-0.42362 -0.561801,-0.44586 0.661458,-0.0487 0.291042,0.0945 0.143683,-0.032 -0.327464,-0.28102 -0.729458,-0.38561 -0.952664,-0.40144 -1.503505,-0.10664 -0.355781,0.19041 -0.839684,0.27221 -1.07534,0.18178 -0.238677,-0.0916 -0.360046,-0.0537 -0.274001,0.0855 0.08496,0.13746 -0.154753,0.45253 -0.532686,0.70017 -0.748696,0.49056 -2.018453,2.79426 -2.475319,4.49093 -0.268641,0.99766 -0.414835,2.17725 -1.112042,8.9727 -0.465358,4.53568 -0.759703,9.31167 -0.933539,15.14739 l -0.167481,5.6224 h 1.827798 1.827797 l 1.032891,-1.68893 c 0.951368,-1.55562 1.086447,-1.67223 1.711433,-1.47748 0.373198,0.11629 1.928698,0.59253 3.456667,1.05829 3.274387,0.99813 5.703209,2.05425 7.001344,3.04438 1.967233,1.50049 2.683267,1.44499 -18.64301,1.44499 -11.367961,0 -19.579166,-0.0995 -19.579166,-0.23718 z m 19.239101,-12.62806 c -0.01916,-0.81849 -0.08396,-1.3408 -0.144001,-1.16069 -0.08323,0.24969 -0.168508,0.24181 -0.359044,-0.0332 -0.183605,-0.26501 -0.213942,-0.22031 -0.114371,0.16849 0.07453,0.29105 0.214647,0.97566 0.311361,1.52136 0.09672,0.5457 0.212981,0.99219 0.258371,0.99219 0.04539,0 0.06685,-0.66968 0.04768,-1.48816 z m 2.022679,0.23085 c 0.05227,-0.44895 -0.0055,-0.97479 -0.128278,-1.16854 -0.244054,-0.38499 -0.284336,-0.24748 -0.284336,0.97064 0,1.51782 0.245237,1.63544 0.412614,0.1979 z m 0.01472,-4.84788 c 0.08945,-2.36388 0.06785,-2.64799 -0.09909,-1.30315 -0.248019,1.99806 -0.334341,4.64513 -0.145315,4.4561 0.07151,-0.0715 0.181488,-1.49033 0.244402,-3.15295 z m 0.801327,-5.13961 c 0.09752,-1.16416 0.288687,-2.83104 0.424823,-3.70416 0.320012,-2.05244 0.319511,-3.83646 -0.0011,-3.83646 -0.336653,0 -0.631149,1.64814 -0.479329,2.68255 0.06676,0.45483 0.01098,1.37678 -0.12394,2.04877 -0.134923,0.67199 -0.239743,1.99571 -0.232934,2.9416 0.0085,1.1849 -0.06584,1.59635 -0.23911,1.32291 -0.217177,-0.34272 -0.252042,-0.33671 -0.255541,0.0441 -0.0031,0.34277 0.497164,0.80967 0.693606,0.64728 0.01991,-0.0164 0.115985,-0.98242 0.213502,-2.14659 z m 0.208558,-5.68854 c 0,-0.50932 0.05445,-0.71768 0.121,-0.46302 0.06655,0.25466 0.06655,0.67138 0,0.92604 -0.06655,0.25467 -0.121,0.0463 -0.121,-0.46302 z m -16.50079,1.02171 c 0.528705,-0.24734 0.806541,-0.45934 0.617413,-0.47112 -0.503945,-0.0314 -1.753509,0.66386 -2.188943,1.21791 -0.350402,0.44585 -0.342022,0.45245 0.116322,0.0917 0.27166,-0.21383 0.926503,-0.59115 1.455208,-0.83848 z m 33.108155,0.68247 c 0,-0.22687 -0.119062,-0.3389 -0.264583,-0.24897 -0.228288,0.14109 -0.366666,-0.16341 -0.310615,-0.68351 0.0091,-0.0849 -0.150355,-0.15434 -0.354452,-0.15434 -0.301511,0 -0.288059,0.14056 0.07174,0.74966 0.489022,0.82785 0.857905,0.97282 0.857905,0.33716 z m -30.33495,-2.89244 c 0.299014,-0.29901 0.426626,-0.31502 0.527177,-0.0661 0.08016,0.19839 0.140932,0.1503 0.153553,-0.12151 0.01149,-0.24743 0.229248,-0.57123 0.483909,-0.71956 0.254661,-0.14833 0.321219,-0.27331 0.147907,-0.27773 -0.173313,-0.004 -0.3899,0.11296 -0.481303,0.26085 -0.0914,0.1479 -0.259718,0.2111 -0.374031,0.14045 -0.114312,-0.0707 -0.484027,0.16553 -0.821588,0.52485 -0.649341,0.69119 -0.309436,0.9326 0.364376,0.25879 z m 6.404126,0.15253 c -0.08225,-0.13309 -0.0088,-0.28889 0.163164,-0.34623 0.171996,-0.0573 -0.208934,-0.36233 -0.84651,-0.67778 -0.637577,-0.31545 -1.22443,-0.46804 -1.304119,-0.33911 -0.07969,0.12894 -0.442157,0.28951 -0.805486,0.35681 -0.363329,0.0673 -0.119061,0.0771 0.542819,0.0218 0.828551,-0.0692 1.364269,0.0305 1.719791,0.31998 0.510446,0.41568 0.510299,0.41845 -0.01279,0.24123 -1.22283,-0.41427 -1.277431,-0.39931 -0.396875,0.10875 1.070131,0.61745 1.142123,0.64154 0.940008,0.31451 z m 22.856561,-1.72423 c -0.758116,-2.02625 -0.894352,-1.76439 -0.165085,0.31731 0.317776,0.90709 0.612025,1.5465 0.653888,1.42091 0.04186,-0.12559 -0.178098,-0.90779 -0.488803,-1.73822 z m -15.005332,-1.27493 c 0.05409,-0.54571 0.0032,-0.99219 -0.113116,-0.99219 -0.1163,0 -0.202055,0.56555 -0.190567,1.25677 0.02299,1.38336 0.151442,1.27144 0.303683,-0.26458 z m 11.052512,-0.0661 c -0.413705,-1.25353 -0.603194,-1.06404 -0.211667,0.21167 0.165172,0.53818 0.351765,0.92705 0.414651,0.86417 0.06289,-0.0629 -0.02846,-0.54701 -0.202984,-1.07584 z m -10.604542,-3.04271 c 0.115416,0 0.197169,-0.35691 0.181674,-0.79314 -0.0155,-0.43623 -0.101287,-0.79342 -0.190647,-0.79375 -0.177219,-6.6e-4 -0.524969,2.19302 -0.456641,2.88059 0.02329,0.23435 0.09036,0.0391 0.149055,-0.4338 0.05869,-0.47294 0.201143,-0.8599 0.316559,-0.8599 z m 11.398292,0 c 0,-0.14552 -0.327422,-0.25271 -0.727604,-0.23821 l -0.727604,0.0264 0.661458,0.21183 c 0.363802,0.11651 0.691224,0.22371 0.727604,0.23821 0.03638,0.0145 0.06615,-0.0927 0.06615,-0.23821 z m -11.1125,-4.02846 c 0,-1.03431 -0.04959,-1.83095 -0.110193,-1.77032 -0.250937,0.25105 -0.394642,3.96289 -0.147511,3.81016 0.141738,-0.0876 0.257704,-1.00553 0.257704,-2.03984 z M 67.885794,134.8829 c -0.187478,-0.32123 -0.252065,-0.0465 -0.23855,1.01471 0.01848,1.45098 0.01922,1.45226 0.257082,0.4405 0.14861,-0.63214 0.141623,-1.18079 -0.01853,-1.45521 z m -2.16245,-0.30821 c 0,-0.25015 -0.08406,-0.20125 -0.22739,0.1323 -0.125065,0.29104 -0.227391,0.70776 -0.227391,0.92604 0,0.25016 0.08406,0.20125 0.227391,-0.13229 0.125065,-0.29105 0.22739,-0.70776 0.22739,-0.92605 z m 10.455161,-1.81901 c -0.09297,-0.46485 -0.224191,-0.79004 -0.291598,-0.72263 -0.06741,0.0674 -0.04037,0.49677 0.06009,0.95414 0.238326,1.0851 0.45208,0.87134 0.23151,-0.23151 z m 6.798864,0.11091 c 0.144722,0.0895 0.230232,-0.75151 0.208103,-2.04659 l -0.03756,-2.19843 -0.198198,1.71979 c -0.109009,0.94589 -0.254635,2.07698 -0.323614,2.51354 -0.06898,0.43657 -0.07344,0.58363 -0.0099,0.32681 0.06353,-0.25682 0.226061,-0.39862 0.361178,-0.31512 z m -7.550266,-2.50729 c -0.596076,-1.15269 -0.713777,-1.00597 -0.188064,0.23443 0.243855,0.57536 0.48037,0.94062 0.525588,0.81168 0.04522,-0.12893 -0.106667,-0.59968 -0.337524,-1.04611 z m 7.188908,-1.67158 c -0.06306,-0.32743 -0.114662,-0.0595 -0.114662,0.59531 0,0.65484 0.0516,0.92273 0.114662,0.59531 0.06306,-0.32742 0.06306,-0.8632 0,-1.19062 z m -0.170412,-2.62958 c -0.486079,-1.62239 -1.910237,-3.0189 -3.4571,-3.38998 -1.334078,-0.32004 -3.006584,-0.18691 -3.708375,0.2952 -0.312959,0.21499 -0.285344,0.24279 0.137704,0.13862 0.291042,-0.0717 1.005417,-0.18086 1.5875,-0.24266 0.582083,-0.0618 0.849974,-0.0622 0.595313,-9.3e-4 -0.254662,0.0613 -0.463021,0.21928 -0.463021,0.35107 0,0.13834 0.286883,0.13056 0.678682,-0.0184 0.793863,-0.30182 1.977693,-0.34449 1.541235,-0.0555 -0.18317,0.12126 0.06566,0.42095 0.661458,0.79668 l 0.955083,0.60229 -0.742358,-0.66844 c -0.491601,-0.44265 -0.607865,-0.66844 -0.344195,-0.66844 0.418424,0 1.803465,1.63135 1.716599,2.02187 -0.02778,0.1249 0.111787,0.79305 0.310152,1.48477 0.282921,0.98658 0.412685,1.16473 0.601991,0.82646 0.151513,-0.27074 0.125213,-0.81878 -0.07067,-1.47257 z m -6.515376,-2.5558 c -0.123351,-0.14328 -1.420773,0.85869 -1.430122,1.10446 -0.0046,0.12021 0.333183,-0.0584 0.750568,-0.39688 0.417385,-0.33849 0.723184,-0.6569 0.679554,-0.70758 z"
       id="path8560" />
    <path
       style="fill:#78948a;stroke-width:1.23137"
       d="m 91.026774,138.80636 c -0.264196,-0.29194 -0.41784,-0.59331 -0.34143,-0.66972 0.07641,-0.0764 0.336393,0.16244 0.577741,0.53079 0.527313,0.80478 0.422203,0.86657 -0.236311,0.13893 z"
       id="path8550" />
    <path
       style="fill:#78948a;stroke-width:1.23137"
       d="m 81.432335,147.27464 c 0,-0.50932 0.05445,-0.71768 0.121,-0.46302 0.06655,0.25466 0.06655,0.67138 0,0.92604 -0.06655,0.25467 -0.121,0.0463 -0.121,-0.46302 z"
       id="path8548" />
    <path
       style="fill:#78948a;stroke-width:1.23137"
       d="m 77.296525,153.44837 c 0.243527,-1.01372 0.370259,-1.10967 0.370259,-0.28031 0,0.37946 -0.123834,0.76647 -0.275188,0.86001 -0.180496,0.11156 -0.21321,-0.0879 -0.09507,-0.5797 z"
       id="path8544" />
    <path
       style="fill:#78948a;stroke-width:1.23137"
       d="m 62.320952,156.70078 c 0,-0.14702 1.188816,-2.73703 2.972189,-6.47535 0.56888,-1.1925 0.86668,-1.57607 1.027107,-1.32292 0.124264,0.19608 0.227757,0.22679 0.229985,0.0683 0.0054,-0.381 1.267535,-0.948 1.45067,-0.65168 0.07843,0.1269 0.06245,0.4396 -0.03551,0.69488 -0.112718,0.29374 -0.07557,0.40078 0.101178,0.29155 0.158605,-0.098 0.333015,0.10842 0.403617,0.47775 0.06838,0.3577 0.03379,0.59441 -0.07687,0.52603 -0.110656,-0.0684 -0.138864,0.34035 -0.06268,0.90832 0.201582,1.5029 -0.716194,2.9791 -2.658543,4.27615 -0.857644,0.57272 -1.774174,1.0413 -2.036731,1.0413 -0.262557,0 -0.665709,0.0723 -0.895892,0.1606 -0.230183,0.0883 -0.418514,0.0906 -0.418514,0.005 z m 3.439583,-1.63168 c 0,-0.0728 -0.47625,0.11067 -1.058333,0.40763 -0.582084,0.29695 -1.058334,0.59945 -1.058334,0.67221 0,0.0728 0.47625,-0.11067 1.058334,-0.40763 0.582083,-0.29696 1.058333,-0.59945 1.058333,-0.67221 z"
       id="path8543" />
    <path
       style="fill:#78948a;stroke-width:1.23137"
       d="m 77.587837,155.74131 c 0.08285,-0.80036 0.194035,-1.50482 0.247082,-1.56545 0.185455,-0.21198 0.04173,1.70365 -0.177007,2.3592 -0.142479,0.42701 -0.167317,0.14567 -0.07008,-0.79375 z"
       id="path8542" />
    <path
       style="fill:#78948a;stroke-width:1.23137"
       d="m 59.145952,175.36998 c 0,-0.35728 1.38069,-1.52489 2.645833,-2.23752 1.520998,-0.85675 4.572382,-1.94293 7.273405,-2.58906 l 2.114031,-0.50571 1.594626,1.58046 1.594626,1.58045 2.442906,0.11519 2.442905,0.1152 v -1.15531 c 0,-1.24666 -0.418201,-1.83946 -0.60651,-0.85973 -0.07807,0.40618 -0.127154,0.30089 -0.152353,-0.32681 -0.104209,-2.59579 -1.914452,-16.97952 -2.464109,-19.57916 -0.792446,-3.74795 -2.290546,-5.53947 -4.86958,-5.82334 -0.777826,-0.0856 -1.35983,-0.10127 -1.293342,-0.0348 0.169948,0.16995 -0.413204,0.83103 -0.733065,0.83103 -0.145521,0 -0.101177,-0.20836 0.09854,-0.46302 0.328604,-0.419 0.319385,-0.42873 -0.09698,-0.10231 -0.25306,0.19839 -0.4112,0.43984 -0.351423,0.53656 0.221617,0.35859 -0.805919,1.35928 -1.641941,1.59905 -0.536143,0.15376 -0.805965,0.15384 -0.711019,2.2e-4 0.08416,-0.13617 0.07011,-0.38172 -0.03121,-0.54566 -0.108499,-0.17556 -0.389974,0.15072 -0.684762,0.79375 -0.275295,0.60051 -0.612402,1.09183 -0.749127,1.09183 -0.136725,0 -0.18359,0.16939 -0.104145,0.37642 0.07944,0.20703 -0.09296,0.61382 -0.383131,0.90399 -0.290166,0.29017 -0.474602,0.58055 -0.409857,0.64529 0.141084,0.14109 -1.184225,2.8368 -1.394671,2.8368 -0.08067,0 -0.06726,-0.20695 0.0298,-0.45989 0.146865,-0.38273 0.09251,-0.37163 -0.323945,0.0661 -0.593294,0.62367 -0.711389,1.35331 -0.142639,0.88129 0.278865,-0.23143 0.325136,-0.20999 0.207623,0.0962 -0.08317,0.21673 -0.504853,0.65551 -0.937081,0.97507 l -0.785869,0.58102 0.132702,-1.13609 c 0.129217,-1.10624 0.12498,-1.11389 -0.161321,-0.29105 -0.161712,0.46477 -0.216704,1.04652 -0.122203,1.29278 0.15986,0.41659 0.208268,0.41477 0.69547,-0.0261 0.288008,-0.26064 0.52365,-0.34502 0.52365,-0.18751 0,0.4476 -1.383326,1.42855 -1.645212,1.16667 -0.306662,-0.30666 0.487521,-3.76711 1.273981,-5.55104 0.937052,-2.12552 1.648018,-2.96672 3.060514,-3.62114 0.780888,-0.36179 1.585208,-1.00819 2.045996,-1.64429 0.86066,-1.18811 2.207534,-1.89863 2.748313,-1.44982 0.215102,0.17852 0.481434,0.19179 0.727365,0.0362 0.315707,-0.19967 0.289404,-0.2506 -0.141166,-0.27331 -0.339152,-0.0179 -0.218603,-0.11753 0.335713,-0.27749 1.589317,-0.45863 3.906892,0.53588 5.200192,2.23148 0.782786,1.02629 1.616455,3.20159 1.844426,4.8127 l 0.149754,1.05833 -0.327001,-1.14499 c -0.179851,-0.62974 -0.415605,-1.05638 -0.523897,-0.94809 -0.18005,0.18005 -0.298048,-0.32333 -0.268449,-1.14522 0.0065,-0.18033 -0.114045,-0.2501 -0.267865,-0.15503 -0.176355,0.10899 -0.214883,0.004 -0.104292,-0.28419 0.225942,-0.5888 -0.536027,-2.09083 -0.935437,-1.84398 -0.194198,0.12002 -0.240459,0.0337 -0.132579,-0.24746 0.09114,-0.23749 0.06431,-0.49446 -0.0596,-0.57105 -0.406008,-0.25093 -0.495016,0.52965 -0.119028,1.04385 0.266596,0.36459 0.36965,0.39786 0.375488,0.12121 0.0059,-0.28045 0.07969,-0.25828 0.278903,0.0838 0.148972,0.25582 0.186486,0.60164 0.08337,0.76849 -0.115032,0.18612 -0.07061,0.23113 0.114941,0.11645 0.190405,-0.11767 0.248456,-0.0463 0.156716,0.19282 -0.08014,0.20885 0.04028,0.82489 0.267614,1.36897 0.227332,0.54408 0.415154,1.30212 0.417382,1.68453 0.0032,0.54609 0.05909,0.61013 0.260532,0.29842 0.287779,-0.44531 0.313354,-0.23248 0.301068,2.50537 -0.0043,0.95386 0.0806,1.43746 0.214318,1.22109 0.12711,-0.20566 0.160634,0.18093 0.07872,0.90771 -0.08817,0.78227 -0.04504,1.2056 0.112896,1.10799 0.147731,-0.0913 0.216186,0.14318 0.162219,0.55567 -0.20853,1.59384 0.557346,3.84227 0.928998,2.72732 0.06739,-0.20216 0.01778,-0.30288 -0.110243,-0.22382 -0.12802,0.0791 -0.247131,-0.86132 -0.264693,-2.08972 -0.01756,-1.2284 0.0012,-2.19925 0.0417,-2.15743 0.07154,0.0739 0.587242,4.18989 0.800898,6.39228 0.368552,3.79907 0.535874,3.7763 0.723983,-0.0985 0.346981,-7.14744 0.47295,-8.21666 0.915859,-7.77375 0.214836,0.21484 0.422492,0.35518 0.461458,0.31187 0.03896,-0.0433 0.150633,-1.03125 0.24815,-2.19542 0.09752,-1.16416 0.288687,-2.83104 0.424823,-3.70416 0.320012,-2.05244 0.319511,-3.83646 -0.0011,-3.83646 -0.336653,0 -0.631149,1.64814 -0.479329,2.68255 0.06676,0.45483 0.01098,1.37678 -0.12394,2.04877 -0.134923,0.67199 -0.245844,1.99571 -0.246492,2.9416 -9.81e-4,1.43367 -0.04898,1.61891 -0.288517,1.11344 -0.284979,-0.60137 -0.09262,-3.12951 1.000684,-13.15198 0.589442,-5.40349 0.776662,-11.4002 0.410447,-13.14671 -0.582442,-2.7777 -2.007346,-4.20665 -4.211768,-4.22373 -1.781022,-0.0138 -2.447308,0.44126 -3.478268,2.37554 -0.730036,1.36968 -0.91276,1.54419 -1.5402,1.47096 -0.391543,-0.0457 -0.503538,-0.0191 -0.248876,0.0591 0.254661,0.0782 0.463021,0.26526 0.463021,0.41568 0,0.15042 0.195812,0.19835 0.435138,0.10651 0.506959,-0.19454 1.484874,0.58015 1.237534,0.98036 -0.09674,0.15653 -0.03604,0.1892 0.144368,0.0777 0.203656,-0.12586 0.547001,0.32245 0.992931,1.29649 0.848744,1.8539 1.107403,4.88091 0.632255,7.3991 -0.183355,0.97174 -0.333372,2.05199 -0.333372,2.40054 0,0.56833 -0.101945,0.51038 -0.987652,-0.56145 -0.543208,-0.65736 -1.205518,-1.83615 -1.4718,-2.61954 -0.489415,-1.43983 -0.913986,-1.68532 -0.913986,-0.52846 0,0.34662 -0.121004,0.70501 -0.268899,0.79642 -0.147894,0.0914 -0.195958,0.28421 -0.106807,0.42846 0.08915,0.14424 0.02126,0.60228 -0.150879,1.01785 -0.295704,0.71389 -0.340904,0.73166 -0.819235,0.3221 -0.278445,-0.23841 -0.506263,-0.54453 -0.506263,-0.68026 0,-0.13574 0.238125,-0.0313 0.529167,0.2321 0.291041,0.26338 0.529166,0.34812 0.529166,0.1883 0,-0.15983 -0.256831,-0.47048 -0.570737,-0.69035 l -0.570737,-0.39976 0.735807,-1.66576 c 0.805969,-1.8246 1.258203,-2.49651 1.013257,-1.50544 -0.08611,0.34838 -0.06128,0.5458 0.05517,0.43871 0.11645,-0.10709 0.199389,-0.58334 0.184308,-1.05833 -0.01508,-0.47499 0.128981,-1.51847 0.320137,-2.31883 0.446823,-1.87084 0.518876,-3.26716 0.157052,-3.04354 -0.151007,0.0933 -0.219433,0.25888 -0.152059,0.36789 0.229154,0.37078 -1.085611,4.73036 -1.788081,5.92904 -0.784249,1.33821 -3.267407,4.15494 -3.6629,4.15494 -0.141314,0 -0.06983,-0.1871 0.15884,-0.41577 0.508115,-0.50812 0.553025,-0.82126 0.05898,-0.41124 -0.553178,0.4591 -0.575408,-3.05922 -0.03116,-4.93138 0.790449,-2.71904 2.429998,-5.3304 3.09044,-4.92222 0.161784,0.1 0.215051,0.0583 0.120642,-0.0945 -0.09298,-0.15044 -0.420806,-0.33936 -0.728509,-0.41983 -0.307704,-0.0805 -0.493982,-0.0808 -0.413951,-7.9e-4 0.08003,0.08 -0.47374,1.05423 -1.2306,2.16489 -0.855935,1.25604 -1.633841,2.81948 -2.057932,4.13604 -0.375003,1.16417 -0.817202,2.08833 -0.982666,2.05369 -0.165464,-0.0346 -0.241398,0.0919 -0.168742,0.28128 0.07265,0.18934 -0.130689,0.57486 -0.451877,0.85672 -0.321188,0.28186 -0.496954,0.36365 -0.390591,0.18175 0.106362,-0.1819 0.07289,-0.33073 -0.07439,-0.33073 -0.147276,0 0.04868,-0.87988 0.435458,-1.95528 0.443586,-1.23335 0.822262,-1.90959 1.025618,-1.83156 0.343604,0.13186 1.040305,-0.91569 0.78128,-1.17471 -0.08455,-0.0845 -0.153728,-0.002 -0.153728,0.18326 0,0.20375 -0.171714,0.27109 -0.434299,0.17033 -0.378007,-0.14506 -0.38685,-0.10948 -0.06822,0.27444 0.32731,0.39439 0.303253,0.42116 -0.22716,0.25281 -0.361671,-0.11479 -0.593238,-0.078 -0.593238,0.0941 0,0.15533 -0.126089,0.28241 -0.280198,0.28241 -0.154109,0 -0.190785,-0.14883 -0.0815,-0.33073 0.114064,-0.18986 -0.0093,-0.16169 -0.289614,0.0661 -0.268571,0.21827 -0.73791,0.36177 -1.042977,0.31889 -0.407682,-0.0573 -0.459921,-0.0137 -0.197131,0.16449 0.263192,0.17848 0.152651,0.27253 -0.418924,0.35642 -0.507903,0.0745 -0.776458,-0.001 -0.776458,-0.21898 0,-0.18312 0.117615,-0.26025 0.261366,-0.17141 0.144305,0.0892 0.178494,0.0274 0.07634,-0.13785 -0.162418,-0.2628 2.336759,-3.27167 3.500279,-4.21415 0.224564,-0.1819 0.296245,-0.33066 0.159291,-0.33058 -0.136954,7e-5 -1.096869,0.92281 -2.133145,2.05052 -1.036275,1.12771 -2.256666,2.26547 -2.711979,2.52836 -1.216949,0.70264 -1.007696,0.33264 0.333901,-0.5904 0.638958,-0.43962 1.784883,-1.54667 2.546501,-2.46011 1.706772,-2.04701 3.601185,-3.45703 4.434009,-3.30024 0.330895,0.0623 0.665343,0.0102 0.743219,-0.11584 0.07788,-0.12601 0.549686,-0.2291 1.048467,-0.2291 0.771087,0 0.962109,-0.12876 1.275753,-0.8599 0.46043,-1.07332 2.137931,-2.70123 2.532335,-2.45747 0.163806,0.10124 0.261806,0.0343 0.221299,-0.15103 -0.132517,-0.6065 1.432704,-1.16181 3.274699,-1.16181 1.553911,0 1.894562,0.0975 2.910416,0.83307 2.45861,1.78024 3.1188,4.66692 2.633248,11.5139 -0.219685,3.09786 -0.231826,4.60149 -0.04005,4.95983 0.151366,0.28283 0.197136,0.73122 0.101712,0.99643 -0.213325,0.59287 -0.07603,0.45318 0.566267,-0.57615 0.41492,-0.66494 0.423393,-0.73482 0.05221,-0.43062 -0.243696,0.19972 -0.443084,0.24406 -0.443084,0.0985 0,-0.14552 0.178594,-0.4128 0.396875,-0.59396 0.317552,-0.26354 0.396875,-0.26182 0.396875,0.009 0,0.22598 0.177439,0.17741 0.53542,-0.14656 0.399133,-0.36121 0.451663,-0.53631 0.206371,-0.68791 -0.206303,-0.1275 0.136806,-0.32796 0.919789,-0.53738 0.68686,-0.18371 1.248837,-0.42007 1.248837,-0.52525 0,-0.22294 -1.260763,0.10751 -2.077154,0.54443 -0.309877,0.16584 -0.534832,0.44139 -0.4999,0.61233 0.03493,0.17094 -0.05555,0.31804 -0.201071,0.32688 -0.145521,0.009 -0.413411,0.11058 -0.595312,0.22608 -0.666647,0.4233 -0.30693,-0.32338 0.471237,-0.97817 0.817742,-0.68808 2.286655,-1.22018 3.375761,-1.22283 0.565408,-0.001 2.701439,0.93137 2.701439,1.17965 0,0.0616 -0.54139,-0.12745 -1.203089,-0.42015 -0.661698,-0.2927 -1.346307,-0.47928 -1.521354,-0.41462 -0.175046,0.0647 0.03892,0.20848 0.475485,0.31961 1.315391,0.33482 2.255804,0.91166 2.554287,1.56676 0.243363,0.53412 0.511125,0.63433 1.937548,0.72516 1.96183,0.12492 2.512868,0.60329 3.987808,3.46187 0.952524,1.84608 1.831273,5.47129 1.544929,6.37348 -0.114396,0.36043 -0.06516,0.44396 0.17442,0.29589 0.221743,-0.13705 0.267764,-0.0994 0.137082,0.112 -0.264808,0.42847 -0.706541,0.0457 -1.7294,-1.49853 -0.782792,-1.1818 -1.152007,-2.22897 -0.444978,-1.26205 0.278339,0.38066 0.403303,0.41178 0.570047,0.14199 0.150934,-0.24422 0.110799,-0.28204 -0.136868,-0.12897 -0.248125,0.15334 -0.305171,0.0986 -0.195408,-0.1874 0.110742,-0.28859 -0.006,-0.39545 -0.408611,-0.37413 -0.460142,0.0244 -0.572039,-0.1323 -0.609425,-0.85318 -0.02519,-0.48566 -0.195789,-1.02144 -0.379116,-1.19062 -0.262692,-0.24243 -0.29166,-0.19548 -0.136708,0.22155 0.442417,1.19071 0.413559,1.27255 -0.113729,0.32251 -0.305384,-0.55022 -0.472575,-1.13416 -0.371535,-1.29765 0.1025,-0.16585 0.06578,-0.22436 -0.08307,-0.13237 -0.310824,0.1921 -0.952644,-1.06363 -0.728774,-1.42586 0.0832,-0.13461 0.04429,-0.24475 -0.08646,-0.24475 -0.130751,0 -0.38036,-0.31305 -0.554688,-0.69565 -0.174327,-0.38261 -0.369696,-0.64291 -0.434152,-0.57846 -0.220211,0.22021 1.379622,4.35183 2.372761,6.12773 0.545245,0.97498 0.923835,1.94865 0.841311,2.16371 -0.08252,0.21505 -0.01487,0.391 0.150335,0.391 0.165207,0 0.239017,0.0614 0.164023,0.13635 -0.07499,0.075 -0.541322,-0.05 -1.036284,-0.27767 -0.897012,-0.41269 -0.897356,-0.41355 -0.106182,-0.26501 0.53962,0.10131 0.666685,0.072 0.396875,-0.0916 -0.218281,-0.13234 -0.821139,-0.29648 -1.339684,-0.36477 -1.179747,-0.15536 -1.779935,-0.47733 -2.665007,-1.42963 -1.499773,-1.6137 -2.089822,-3.85497 -1.535811,-5.83371 0.296732,-1.05982 0.284694,-1.22556 -0.104847,-1.44356 -0.242037,-0.13545 -0.440068,-0.374 -0.440068,-0.53011 0,-0.17671 0.174753,-0.1516 0.463021,0.0665 0.399713,0.30246 0.415992,0.29785 0.119063,-0.0337 -0.189177,-0.21126 -0.427302,-0.39468 -0.529167,-0.40759 -0.101864,-0.0129 -0.601927,-0.2278 -1.11125,-0.47753 -0.863971,-0.42362 -0.561801,-0.44586 0.661458,-0.0487 0.291042,0.0945 0.143683,-0.032 -0.327464,-0.28102 -0.729458,-0.38561 -0.952664,-0.40144 -1.503505,-0.10664 -0.355781,0.19041 -0.839684,0.27221 -1.07534,0.18178 -0.238677,-0.0916 -0.360046,-0.0537 -0.274001,0.0855 0.08496,0.13746 -0.154753,0.45253 -0.532686,0.70017 -0.748912,0.4907 -2.018489,2.79439 -2.475644,4.49214 -0.794621,2.951 -2.600093,25.36983 -2.282192,28.33834 l 0.177837,1.66062 1.71342,-0.0257 1.713419,-0.0257 1.067733,-1.69063 c 0.587254,-0.92985 1.159112,-1.69064 1.270796,-1.69064 0.459218,0 5.837648,1.62789 7.395384,2.23836 2.631343,1.03122 4.524951,2.37339 4.524951,3.20724 0,0.0609 -8.810624,0.11065 -19.579165,0.11065 -10.768541,0 -19.579166,-0.0968 -19.579166,-0.21508 z m 20.819883,-3.15836 c -0.06655,-0.25466 -0.121,-0.0463 -0.121,0.46302 0,0.50933 0.05445,0.71768 0.121,0.46302 0.06655,-0.25466 0.06655,-0.67138 0,-0.92604 z m -1.580782,-9.4918 c -0.01916,-0.81849 -0.08396,-1.3408 -0.144001,-1.16069 -0.08323,0.24969 -0.168508,0.24181 -0.359044,-0.0332 -0.183605,-0.26501 -0.213942,-0.22031 -0.114371,0.16849 0.07453,0.29105 0.214647,0.97566 0.311361,1.52136 0.09672,0.5457 0.212981,0.99219 0.258371,0.99219 0.04539,0 0.06685,-0.66968 0.04768,-1.48816 z m 2.050006,-3.32311 c 0.04822,-3.01627 0.0077,-3.79872 -0.13435,-2.59707 -0.177376,1.50006 -0.350917,5.78004 -0.278037,6.85712 0.01395,0.20616 0.09692,0.30327 0.184371,0.21582 0.08746,-0.0875 0.190062,-2.1016 0.228016,-4.47587 z M 64.931545,148.29635 c 0.528705,-0.24734 0.806541,-0.45934 0.617413,-0.47112 -0.503945,-0.0314 -1.753509,0.66386 -2.188943,1.21791 -0.350402,0.44585 -0.342022,0.45245 0.116322,0.0917 0.27166,-0.21383 0.926503,-0.59115 1.455208,-0.83848 z m 33.108155,0.68247 c 0,-0.22687 -0.119062,-0.3389 -0.264583,-0.24897 -0.228288,0.14109 -0.366666,-0.16341 -0.310615,-0.68351 0.0091,-0.0849 -0.150355,-0.15434 -0.354452,-0.15434 -0.301511,0 -0.288059,0.14056 0.07174,0.74966 0.489022,0.82785 0.857905,0.97282 0.857905,0.33716 z m -30.33495,-2.89244 c 0.299014,-0.29901 0.426626,-0.31502 0.527177,-0.0661 0.08016,0.19839 0.140932,0.1503 0.153553,-0.12151 0.01149,-0.24743 0.229248,-0.57123 0.483909,-0.71956 0.254661,-0.14833 0.321219,-0.27331 0.147907,-0.27773 -0.173313,-0.004 -0.3899,0.11296 -0.481303,0.26085 -0.0914,0.1479 -0.259718,0.2111 -0.374031,0.14045 -0.114312,-0.0707 -0.484027,0.16553 -0.821588,0.52485 -0.649341,0.69119 -0.309436,0.9326 0.364376,0.25879 z m 6.404126,0.15253 c -0.08225,-0.13309 -0.0088,-0.28889 0.163164,-0.34623 0.171996,-0.0573 -0.208934,-0.36233 -0.84651,-0.67778 -0.637577,-0.31545 -1.22443,-0.46804 -1.304119,-0.33911 -0.07969,0.12894 -0.442157,0.28951 -0.805486,0.35681 -0.363329,0.0673 -0.119061,0.0771 0.542819,0.0218 0.828551,-0.0692 1.364269,0.0305 1.719791,0.31998 0.510446,0.41568 0.510299,0.41845 -0.01279,0.24123 -1.22283,-0.41427 -1.277431,-0.39931 -0.396875,0.10875 1.070131,0.61745 1.142123,0.64154 0.940008,0.31451 z m 22.856561,-1.72423 c -0.758116,-2.02625 -0.894352,-1.76439 -0.165085,0.31731 0.317776,0.90709 0.612025,1.5465 0.653888,1.42091 0.04186,-0.12559 -0.178098,-0.90779 -0.488803,-1.73822 z m -15.005332,-1.27493 c 0.05409,-0.54571 0.0032,-0.99219 -0.113116,-0.99219 -0.1163,0 -0.202055,0.56555 -0.190567,1.25677 0.02299,1.38336 0.151442,1.27144 0.303683,-0.26458 z m 11.052512,-0.0661 c -0.413705,-1.25353 -0.603194,-1.06404 -0.211667,0.21167 0.165172,0.53818 0.351765,0.92705 0.414651,0.86417 0.06289,-0.0629 -0.02846,-0.54701 -0.202984,-1.07584 z m -10.604542,-3.04271 c 0.115416,0 0.197169,-0.35691 0.181674,-0.79314 -0.0155,-0.43623 -0.101287,-0.79342 -0.190647,-0.79375 -0.177219,-6.6e-4 -0.524969,2.19302 -0.456641,2.88059 0.02329,0.23435 0.09036,0.0391 0.149055,-0.4338 0.05869,-0.47294 0.201143,-0.8599 0.316559,-0.8599 z m 11.398292,0 c 0,-0.14552 -0.327422,-0.25271 -0.727604,-0.23821 l -0.727604,0.0264 0.661458,0.21183 c 0.363802,0.11651 0.691224,0.22371 0.727604,0.23821 0.03638,0.0145 0.06615,-0.0927 0.06615,-0.23821 z m -11.1125,-4.02846 c 0,-1.03431 -0.04959,-1.83095 -0.110193,-1.77032 -0.250937,0.25105 -0.394642,3.96289 -0.147511,3.81016 0.141738,-0.0876 0.257704,-1.00553 0.257704,-2.03984 z M 67.885792,134.8829 c -0.187478,-0.32123 -0.252065,-0.0465 -0.23855,1.01471 0.01848,1.45098 0.01922,1.45226 0.257082,0.4405 0.14861,-0.63214 0.141623,-1.18079 -0.01853,-1.45521 z m -2.16245,-0.30821 c 0,-0.25015 -0.08406,-0.20125 -0.22739,0.1323 -0.125065,0.29104 -0.227391,0.70776 -0.227391,0.92604 0,0.25016 0.08406,0.20125 0.227391,-0.13229 0.125065,-0.29105 0.22739,-0.70776 0.22739,-0.92605 z m 10.455161,-1.81901 c -0.09297,-0.46485 -0.224191,-0.79004 -0.291598,-0.72263 -0.06741,0.0674 -0.04037,0.49677 0.06009,0.95414 0.238326,1.0851 0.45208,0.87134 0.23151,-0.23151 z m 6.798864,0.11091 c 0.144722,0.0895 0.230232,-0.75151 0.208103,-2.04659 l -0.03756,-2.19843 -0.198198,1.71979 c -0.109009,0.94589 -0.254635,2.07698 -0.323614,2.51354 -0.06898,0.43657 -0.07344,0.58363 -0.0099,0.32681 0.06353,-0.25682 0.226061,-0.39862 0.361178,-0.31512 z m -7.550266,-2.50729 c -0.596076,-1.15269 -0.713777,-1.00597 -0.188064,0.23443 0.243855,0.57536 0.48037,0.94062 0.525588,0.81168 0.04522,-0.12893 -0.106667,-0.59968 -0.337524,-1.04611 z m 7.188908,-1.67158 c -0.06306,-0.32743 -0.114662,-0.0595 -0.114662,0.59531 0,0.65484 0.0516,0.92273 0.114662,0.59531 0.06306,-0.32742 0.06306,-0.8632 0,-1.19062 z m -0.170412,-2.62958 c -0.486079,-1.62239 -1.910237,-3.0189 -3.4571,-3.38998 -1.334078,-0.32004 -3.006584,-0.18691 -3.708375,0.2952 -0.312959,0.21499 -0.285344,0.24279 0.137704,0.13862 0.291042,-0.0717 1.005417,-0.18086 1.5875,-0.24266 0.582083,-0.0618 0.849974,-0.0622 0.595313,-9.3e-4 -0.254662,0.0613 -0.463021,0.21928 -0.463021,0.35107 0,0.13834 0.286883,0.13056 0.678682,-0.0184 0.793863,-0.30182 1.977693,-0.34449 1.541235,-0.0555 -0.18317,0.12126 0.06566,0.42095 0.661458,0.79668 l 0.955083,0.60229 -0.742358,-0.66844 c -0.491601,-0.44265 -0.607865,-0.66844 -0.344195,-0.66844 0.418424,0 1.803465,1.63135 1.716599,2.02187 -0.02778,0.1249 0.111787,0.79305 0.310152,1.48477 0.282921,0.98658 0.412685,1.16473 0.601991,0.82646 0.151513,-0.27074 0.125213,-0.81878 -0.07067,-1.47257 z m -6.515376,-2.5558 c -0.123351,-0.14328 -1.420773,0.85869 -1.430122,1.10446 -0.0046,0.12021 0.333183,-0.0584 0.750568,-0.39688 0.417385,-0.33849 0.723184,-0.6569 0.679554,-0.70758 z"
       id="path8535" />
    <path
       style="fill:#769076;stroke-width:1.23137"
       d="m 82.755252,130.07673 c 0,-0.50933 0.05445,-0.71768 0.121,-0.46302 0.06655,0.25466 0.06655,0.67138 0,0.92604 -0.06655,0.25466 -0.121,0.0463 -0.121,-0.46302 z"
       id="path8476" />
    <path
       style="fill:#769076;stroke-width:1.23137"
       d="m 72.684671,133.38402 c 0.0043,-0.29104 0.103104,-0.82682 0.219614,-1.19063 l 0.211836,-0.66145 0.0078,0.66145 c 0.0043,0.36381 -0.09455,0.89959 -0.219613,1.19063 l -0.227391,0.52917 z"
       id="path8474" />
    <path
       style="fill:#769076;stroke-width:1.23137"
       d="m 60.733452,133.66219 c 0,-0.0728 0.351885,-0.31426 0.781967,-0.53666 0.430082,-0.22241 1.522089,-1.26726 2.426681,-2.3219 0.904592,-1.05464 1.89216,-2.09028 2.194595,-2.30141 0.302435,-0.21114 -0.451502,0.71842 -1.675415,2.06569 -1.870877,2.05944 -3.727828,3.6008 -3.727828,3.09428 z"
       id="path8473" />
    <path
       style="fill:#769076;stroke-width:1.23137"
       d="m 67.366631,135.21405 c 0.01023,-0.42443 0.124034,-1.00982 0.252902,-1.30086 0.156452,-0.35334 0.181996,-0.13356 0.07688,0.66145 -0.185407,1.40223 -0.356137,1.73326 -0.329778,0.63941 z"
       id="path8471" />
    <path
       style="fill:#769076;stroke-width:1.23137"
       d="m 64.998875,135.09777 c 0.400557,-1.18473 0.626091,-1.41471 0.383283,-0.39083 -0.103529,0.43656 -0.302108,0.91009 -0.441285,1.05229 -0.139178,0.1422 -0.113077,-0.15546 0.058,-0.66146 z"
       id="path8470" />
    <path
       style="fill:#769076;stroke-width:1.23137"
       d="m 69.238376,137.31785 c 0.197239,-0.31025 0.764199,-1.13269 1.259911,-1.82764 0.495711,-0.69494 1.125602,-1.81032 1.399756,-2.47861 0.334886,-0.81634 0.446427,-0.9546 0.339893,-0.42133 -0.190411,0.95313 -1.556713,3.29046 -2.602685,4.45241 -0.415521,0.46159 -0.594114,0.58542 -0.396875,0.27517 z"
       id="path8468" />
    <path
       style="fill:#769076;stroke-width:1.23137"
       d="m 64.555944,137.50766 c 0.08226,-0.13309 0.04572,-0.28192 -0.08118,-0.33073 -0.126906,-0.0488 -0.136016,-0.32687 -0.02025,-0.61791 0.194972,-0.49015 0.211863,-0.48289 0.229088,0.0985 0.01651,0.55736 0.07049,0.58752 0.481618,0.26914 0.376936,-0.2919 0.369312,-0.24873 -0.04101,0.23219 -0.505019,0.59192 -0.849031,0.80305 -0.568271,0.34877 z"
       id="path8467" />
    <path
       style="fill:#769076;stroke-width:1.23137"
       d="m 70.804519,137.74964 c 0.0052,-0.38849 1.008496,-2.41338 1.030342,-2.07941 0.0061,0.0932 -0.22442,0.68856 -0.512265,1.32292 -0.287846,0.63435 -0.520981,0.97478 -0.518077,0.75649 z"
       id="path8466" />
    <path
       style="fill:#769076;stroke-width:1.23137"
       d="m 76.204026,135.36586 c 0.0055,-2.92255 -0.06669,-3.46627 -0.62422,-4.70129 -0.346746,-0.7681 -0.978382,-1.64429 -1.403635,-1.9471 -0.425253,-0.3028 -0.705558,-0.61818 -0.622902,-0.70084 0.299095,-0.29909 1.707152,1.35945 2.27523,2.67998 0.65671,1.52656 0.947135,4.86589 0.590179,6.78591 -0.1688,0.90796 -0.219412,0.40888 -0.214652,-2.11666 z"
       id="path8464" />
    <path
       style="fill:#769076;stroke-width:1.23137"
       d="m 74.399637,138.89619 c -0.268962,-0.3595 -0.433918,-0.70874 -0.366569,-0.77609 0.06735,-0.0674 0.326688,0.18925 0.576309,0.57021 0.5881,0.89756 0.426451,1.05623 -0.20974,0.20588 z"
       id="path8462" />
    <path
       style="fill:#769076;stroke-width:1.23137"
       d="m 71.691234,138.95289 c 0.04328,-0.42959 0.214852,-0.82647 0.381283,-0.88194 0.397353,-0.13245 0.369144,0.1884 -0.08806,1.00156 l -0.371907,0.66146 z"
       id="path8461" />
    <path
       style="fill:#769076;stroke-width:1.23137"
       d="m 63.912503,150.51582 c 0.0032,-0.36722 0.05197,-0.38736 0.235658,-0.0973 0.180986,0.28576 0.272124,0.23803 0.416982,-0.21838 0.101956,-0.32124 0.243682,-0.52576 0.314945,-0.45449 0.189536,0.18953 -0.416727,1.23322 -0.716362,1.23322 -0.140401,0 -0.253451,-0.20836 -0.251223,-0.46302 z"
       id="path8452" />
    <path
       style="fill:#769076;stroke-width:1.23137"
       d="m 63.396114,152.43405 c 0,-0.14552 0.174808,-0.4957 0.388461,-0.77818 0.213653,-0.28247 0.38846,-0.39452 0.38846,-0.249 0,0.14552 -0.174807,0.4957 -0.38846,0.77817 -0.213653,0.28248 -0.388461,0.39453 -0.388461,0.24901 z"
       id="path8451" />
    <path
       style="fill:#769076;stroke-width:1.23137"
       d="m 77.337444,153.2278 c 0.06954,-0.3638 0.172097,-0.66146 0.227893,-0.66146 0.0558,0 0.101447,0.29766 0.101447,0.66146 0,0.3638 -0.102551,0.66146 -0.227893,0.66146 -0.125341,0 -0.170992,-0.29766 -0.101447,-0.66146 z"
       id="path8450" />
    <path
       style="fill:#769076;stroke-width:1.23137"
       d="m 61.129712,154.28613 c 0.197409,-0.93421 0.760166,-1.58933 1.155413,-1.34506 0.186373,0.11519 0.152419,0.32403 -0.101878,0.62662 -0.209778,0.24962 -0.57038,0.69198 -0.801339,0.98302 -0.403381,0.50832 -0.413317,0.4979 -0.252196,-0.26458 z"
       id="path8449" />
    <path
       style="fill:#769076;stroke-width:1.23137"
       d="m 62.320952,156.70025 c 0,-0.0858 0.51911,-1.25942 1.153578,-2.60799 0.634467,-1.34858 1.408983,-3.01751 1.721147,-3.70873 0.312163,-0.69123 0.697407,-1.25677 0.856099,-1.25677 0.158691,0 0.634331,-0.24624 1.056978,-0.54719 0.677968,-0.48275 0.84802,-0.47904 0.82498,0.018 -0.108318,2.33679 -0.38423,4.09747 -0.734033,4.68411 l -0.441168,0.73985 0.715597,-0.77023 c 0.552173,-0.59432 0.692044,-0.97197 0.612463,-1.65364 -0.05672,-0.48588 -0.008,-0.88342 0.10832,-0.88342 0.42834,0 0.193918,1.67894 -0.376007,2.69299 -0.618241,1.10001 -3.330503,3.12784 -4.183548,3.12784 -0.262557,0 -0.665709,0.0723 -0.895892,0.1606 -0.230183,0.0883 -0.418514,0.0904 -0.418514,0.005 z m 2.645833,-1.07773 1.190625,-0.62407 -1.124479,0.0562 c -0.742591,0.0371 -1.124479,-0.0541 -1.124479,-0.26858 0,-0.40269 0.854271,-2.05549 1.124479,-2.17558 0.109141,-0.0485 0.198437,-0.24836 0.198437,-0.44412 0,-0.19576 0.157333,-0.51326 0.349628,-0.70556 0.192296,-0.1923 0.385153,-0.46869 0.428573,-0.61421 0.287461,-0.96344 0.573646,-1.45521 0.846848,-1.45521 0.173376,0 0.252895,-0.0623 0.176709,-0.13852 -0.07618,-0.0762 -0.344184,-0.0596 -0.595551,0.0369 -0.397838,0.15267 -1.088673,1.45332 -2.724097,5.12874 -0.226629,0.50933 -0.514606,1.1344 -0.639948,1.38907 -0.325391,0.6611 0.417578,0.58852 1.893255,-0.18497 z"
       id="path8448" />
    <path
       style="fill:#769076;stroke-width:1.23137"
       d="m 77.587837,155.74134 c 0.08285,-0.80036 0.194035,-1.50482 0.247082,-1.56545 0.185455,-0.21198 0.04173,1.70365 -0.177007,2.3592 -0.142479,0.42701 -0.167317,0.14567 -0.07008,-0.79375 z"
       id="path8447" />
    <path
       style="fill:#769076;stroke-width:1.23137"
       d="m 59.145952,175.36998 c 0,-0.35728 1.38069,-1.52489 2.645833,-2.23752 1.520998,-0.85675 4.572382,-1.94293 7.273405,-2.58906 l 2.114031,-0.50571 1.594626,1.58046 1.594626,1.58045 2.442906,0.11519 2.442905,0.1152 v -1.15531 c 0,-1.24666 -0.418201,-1.83946 -0.60651,-0.85973 -0.07192,0.37421 -0.128707,0.22535 -0.151208,-0.39641 -0.08853,-2.44619 -1.917047,-16.91677 -2.465254,-19.50956 -0.786923,-3.72182 -2.537512,-5.82084 -4.854613,-5.82084 -0.944498,0 -1.286516,0.16255 -2.192962,1.04223 -0.870333,0.84463 -1.096292,0.95749 -1.191837,0.59531 -0.08358,-0.31684 -0.12683,-0.27365 -0.14859,0.1484 -0.02107,0.40869 -0.196576,0.59531 -0.559858,0.59531 -0.291042,0 -0.529167,-0.12609 -0.529167,-0.28019 0,-0.15411 0.148828,-0.19456 0.330729,-0.0899 0.192152,0.11058 0.238345,0.0894 0.110243,-0.0505 -0.397499,-0.43422 -0.831666,-0.26079 -1.199831,0.47929 -0.199091,0.40022 -0.487215,0.65026 -0.640275,0.55567 -0.169215,-0.10458 -0.215997,-0.01 -0.119357,0.24218 0.101354,0.26413 0.02456,0.39446 -0.211962,0.35974 -0.743067,-0.10906 -0.680783,-0.39347 0.184511,-0.84254 0.486466,-0.25247 0.743727,-0.50661 0.571691,-0.56475 -0.491359,-0.16606 -1.977535,0.70377 -1.771644,1.03691 0.105564,0.17081 0.06219,0.22026 -0.103409,0.11791 -0.55549,-0.34331 -2.17383,2.47415 -2.865847,4.98932 -0.578356,2.10205 -0.430493,2.55263 0.621922,1.89517 0.634259,-0.39623 0.325291,0.31966 -0.376057,0.87134 -1.04536,0.82228 -1.228661,0.3513 -0.726268,-1.86608 0.88117,-3.88918 2.180922,-6.08231 4.14355,-6.99161 0.791829,-0.36686 1.56214,-0.98007 1.952142,-1.55401 0.625256,-0.92014 1.833941,-1.75172 2.534119,-1.74347 0.268236,0.003 0.264144,0.0546 -0.0186,0.23367 -0.295341,0.1871 -0.277119,0.27739 0.09839,0.48753 0.422247,0.2363 0.408891,0.29431 -0.159419,0.69237 -0.341153,0.23896 -0.522869,0.43446 -0.403814,0.43446 0.119056,0 0.56829,-0.25052 0.998298,-0.55671 0.840541,-0.59852 3.165829,-0.85906 3.996209,-0.44776 0.254662,0.12614 0.463021,0.16868 0.463021,0.0945 0,-0.38638 -1.71197,-0.96056 -2.466707,-0.82731 -0.615474,0.10866 -0.698872,0.0865 -0.311418,-0.0825 l 0.529167,-0.23095 -0.529167,-0.1283 c -0.291042,-0.0706 -0.112448,-0.076 0.396875,-0.012 1.27663,0.16034 2.850254,1.08433 3.746542,2.19986 0.81756,1.01754 1.677091,3.21171 1.913997,4.88596 l 0.149754,1.05833 -0.325459,-1.11401 c -0.179003,-0.6127 -0.464983,-1.25229 -0.635513,-1.4213 -0.170529,-0.16902 -0.251321,-0.46035 -0.179538,-0.64741 0.07178,-0.18707 -0.123108,-0.79764 -0.433091,-1.35683 -0.309983,-0.55918 -0.486224,-0.77858 -0.391645,-0.48753 0.09458,0.29104 0.209754,0.88635 0.255945,1.32291 0.09445,0.89267 0.711441,3.10474 0.92247,3.30729 0.0758,0.0728 0.161039,0.42995 0.189409,0.79375 0.29082,3.72932 0.414498,4.7502 0.564538,4.65992 0.09664,-0.0582 0.192185,0.59454 0.212315,1.45041 0.04578,1.94625 0.250983,2.57147 0.697467,2.12498 0.204993,-0.20499 0.22563,-0.38714 0.05747,-0.50726 -0.144304,-0.10308 -0.282986,-1.13992 -0.308181,-2.30409 -0.02519,-1.16417 7.32e-4,-1.9976 0.05761,-1.85208 0.255383,0.65334 0.872995,6.81956 0.786233,7.84974 -0.06472,0.76842 -0.02554,0.97171 0.118883,0.61692 0.172636,-0.42409 0.234452,-0.31902 0.311326,0.52917 0.05276,0.58208 0.196488,-0.84667 0.319405,-3.175 0.122918,-2.32833 0.320393,-5.06677 0.438834,-6.08542 0.182933,-1.57331 0.09633,3.24992 -0.117599,6.5491 -0.02597,0.40054 0.0471,0.87679 0.162373,1.05833 0.247212,0.38931 0.275383,0.15191 0.337596,-2.84493 0.107816,-5.19352 0.158518,-5.9758 0.378502,-5.83984 0.128599,0.0795 0.312632,-0.7767 0.408963,-1.90262 0.09633,-1.12591 0.302093,-2.9673 0.45725,-4.09197 0.155158,-1.12467 0.233157,-2.46412 0.173332,-2.97656 -0.05982,-0.51244 -0.0425,-0.93171 0.0385,-0.93171 0.081,0 0.159431,-0.56555 0.174288,-1.25677 0.05862,-2.72741 0.153957,-3.77032 0.344652,-3.77032 0.109564,0 0.223507,-1.10132 0.253206,-2.44739 0.0297,-1.34607 0.125939,-2.92365 0.213866,-3.50573 0.353503,-2.3402 0.398324,-5.48632 0.07532,-5.28669 -0.229364,0.14176 -0.265867,-0.0453 -0.136475,-0.69948 0.131804,-0.66634 0.105502,-0.79226 -0.103629,-0.49612 -0.209281,0.29635 -0.236393,0.16866 -0.107044,-0.50416 0.123783,-0.64387 0.08679,-0.84762 -0.129631,-0.71387 -0.192144,0.11876 -0.248604,0.0458 -0.154449,-0.19956 0.169609,-0.44199 -0.447713,-1.76141 -1.063062,-2.2721 -0.333139,-0.27648 -0.414321,-0.27763 -0.414321,-0.006 0,0.22695 -0.174378,0.18018 -0.530789,-0.14237 -0.291933,-0.26419 -0.571068,-0.43148 -0.620298,-0.37173 -0.04923,0.0597 0.332325,0.4658 0.847899,0.90237 0.515575,0.43656 0.845411,0.61515 0.732969,0.39687 -0.112441,-0.21828 -0.02519,-0.17694 0.193884,0.0919 0.219078,0.26881 0.326737,0.6753 0.239241,0.9033 -0.113528,0.29585 -0.05874,0.35255 0.191345,0.19799 0.225693,-0.13949 0.287015,-0.11397 0.172277,0.0717 -0.09798,0.15854 -0.05388,0.84278 0.09801,1.52055 0.529159,2.36121 0.339834,8.66361 -0.444878,14.80941 -0.222965,1.74625 -0.446991,3.94891 -0.497834,4.89479 -0.05084,0.94589 -0.167463,2.25558 -0.259154,2.91042 -0.09169,0.65484 -0.166973,1.96453 -0.167293,2.91042 -4.86e-4,1.43556 -0.04816,1.61937 -0.288495,1.11216 -0.290149,-0.61236 -0.07707,-3.37322 1.025144,-13.283 0.234691,-2.11005 0.442884,-5.92005 0.462652,-8.46666 0.03026,-3.89828 -0.03997,-4.82693 -0.444254,-5.87465 -0.594946,-1.54182 -2.022159,-2.8566 -3.100886,-2.8566 -0.431499,0 -0.784544,-0.10767 -0.784544,-0.23927 0,-0.1316 0.654844,-0.19975 1.455209,-0.15145 0.800364,0.0483 1.455208,0.0411 1.455208,-0.016 0,-0.60222 -3.420901,-1.1263 -4.497917,-0.68909 -0.642083,0.26066 -0.64402,0.26902 -0.06615,0.2853 0.327422,0.009 0.595312,0.1271 0.595312,0.26195 0,0.13485 0.208359,0.29963 0.463021,0.36618 0.310513,0.0811 0.242756,0.13111 -0.205712,0.1517 -1.003439,0.0461 -1.780436,0.715 -2.5156,2.16577 -0.363572,0.71748 -0.785123,1.3045 -0.936781,1.3045 -0.151657,0 -0.194815,0.13094 -0.09591,0.29098 0.130767,0.21159 0.03148,0.21159 -0.363866,0 -0.299036,-0.16004 -0.838381,-0.29098 -1.198543,-0.29098 h -0.654842 l 0.498681,-1.03215 c 0.675487,-1.3981 2.948778,-3.33857 4.380938,-3.73955 2.625412,-0.73507 5.212351,0.38986 6.408872,2.7869 1.005033,2.01342 1.220766,4.37565 0.861843,9.43698 -0.22655,3.19468 -0.234933,4.59569 -0.02979,4.979 0.205605,0.38418 0.202846,0.68779 -0.0099,1.08523 -0.162431,0.30351 -0.247491,0.59967 -0.189021,0.65814 0.05847,0.0585 0.308261,-0.31719 0.555092,-0.8348 0.246831,-0.51761 0.342584,-0.87548 0.212784,-0.79526 -0.129799,0.0802 -0.235999,-0.15156 -0.235999,-0.51508 0,-1.16782 2.185486,-2.49824 4.111582,-2.50293 0.567853,-0.001 2.701439,0.93183 2.701439,1.18159 0,0.0627 -0.506016,-0.11571 -1.124479,-0.39644 -0.618464,-0.28074 -1.422136,-0.51042 -1.785938,-0.51042 -0.575275,0 -2.910743,0.88269 -2.910229,1.09992 1.02e-4,0.0435 0.296971,0.0962 0.659707,0.11713 0.362736,0.0209 0.601461,-0.0559 0.530499,-0.17072 -0.392117,-0.63446 2.653903,-0.71881 3.540182,-0.098 0.479964,0.33618 0.536457,0.47931 0.257309,0.65189 -0.290019,0.17931 -0.267387,0.31053 0.119642,0.69373 0.385792,0.38197 0.447027,0.39226 0.319344,0.0537 -0.0988,-0.26201 -0.0145,-0.41893 0.22506,-0.41893 0.210669,0 0.327258,0.14535 0.259086,0.32301 -0.08877,0.23132 0.432279,0.35109 1.835719,0.42196 1.780918,0.0899 2.024512,0.17109 2.670551,0.88967 1.735809,1.93073 3.674875,7.39188 3.179161,8.95374 -0.114396,0.36043 -0.06516,0.44396 0.17442,0.29589 0.232474,-0.14368 0.267902,-0.0997 0.116703,0.14498 -0.337717,0.54644 -1.684581,-1.23742 -3.403472,-4.50773 -0.99086,-1.88518 -1.434154,-3.00328 -1.31442,-3.3153 0.115645,-0.30137 0.07924,-0.40812 -0.101158,-0.29663 -0.155002,0.0958 -0.356632,-0.0208 -0.448066,-0.25905 -0.263042,-0.68547 0.103428,-0.80123 0.591912,-0.18696 0.244709,0.30772 0.623519,0.62397 0.8418,0.70277 0.25792,0.0931 0.188443,0.15058 -0.198438,0.16415 -0.327421,0.0115 -0.595312,0.12881 -0.595312,0.2607 0,0.30693 1.011776,0.0496 1.236846,-0.3146 0.09365,-0.15152 -0.09999,-0.49434 -0.43031,-0.76181 -0.330317,-0.26747 -0.492136,-0.48632 -0.359598,-0.48632 0.132538,0 0.383854,0.14288 0.558479,0.3175 0.236288,0.23629 0.317499,0.23867 0.317499,0.009 0,-0.38259 -0.897959,-0.88476 -1.369895,-0.7661 -0.192443,0.0484 -0.260599,0.038 -0.151459,-0.023 0.44933,-0.25129 0.150908,-0.59605 -0.515937,-0.59605 -0.555625,0 -0.643819,0.0706 -0.396875,0.3175 0.407521,0.40752 0.413324,0.83129 0.008,0.58075 -0.21642,-0.13375 -0.250716,-0.0389 -0.113999,0.31512 0.107551,0.27853 0.435259,1.2208 0.72824,2.09392 0.292981,0.87313 1.010059,2.45541 1.593506,3.51618 0.583447,1.06077 0.994085,2.10256 0.912527,2.3151 -0.08156,0.21254 -0.01312,0.38643 0.15209,0.38643 0.165207,0 0.239017,0.0614 0.164023,0.13635 -0.07499,0.075 -0.541322,-0.05 -1.036284,-0.27767 -0.818861,-0.37674 -0.832388,-0.39998 -0.150159,-0.25804 0.485622,0.10103 0.689854,0.059 0.579698,-0.1192 -0.09354,-0.15136 -0.394148,-0.27519 -0.668013,-0.27519 -0.273865,0 -0.571521,-0.11906 -0.661458,-0.26458 -0.08994,-0.14552 -0.342115,-0.26459 -0.560397,-0.26459 -0.218281,0 -0.317212,0.1289 -0.219847,0.28644 0.325068,0.52597 -1.326646,-0.49325 -2.033822,-1.255 -1.483397,-1.59789 -2.089225,-3.85796 -1.55021,-5.78313 0.316946,-1.13202 0.309394,-1.15729 -0.625195,-2.09187 -0.520308,-0.52031 -1.158343,-0.95542 -1.417855,-0.96691 -0.259512,-0.0115 -0.329613,-0.0787 -0.155779,-0.14945 0.173833,-0.0707 0.570983,0.008 0.882556,0.17462 0.646284,0.34588 1.106364,0.0957 0.513512,-0.2792 -0.51845,-0.32787 -1.771736,-0.32132 -1.976713,0.0103 -0.08994,0.14552 -0.339909,0.26458 -0.555495,0.26458 -1.207054,0 -3.074698,2.56048 -3.781062,5.18372 -0.794621,2.951 -2.600093,25.36983 -2.282192,28.33834 l 0.177837,1.66062 1.71342,-0.0257 1.713419,-0.0257 1.067733,-1.69063 c 0.587254,-0.92985 1.159112,-1.69064 1.270796,-1.69064 0.459218,0 5.837648,1.62789 7.395384,2.23836 2.631343,1.03122 4.524951,2.37339 4.524951,3.20724 0,0.0609 -8.810624,0.11065 -19.579165,0.11065 -10.768541,0 -19.579166,-0.0968 -19.579166,-0.21508 z m 20.819883,-3.15836 c -0.06655,-0.25466 -0.121,-0.0463 -0.121,0.46302 0,0.50933 0.05445,0.71768 0.121,0.46302 0.06655,-0.25466 0.06655,-0.67138 0,-0.92604 z m -1.580782,-9.4918 c -0.01916,-0.81849 -0.08396,-1.3408 -0.144001,-1.16069 -0.08323,0.24969 -0.168508,0.24181 -0.359044,-0.0332 -0.183605,-0.26501 -0.213942,-0.22031 -0.114371,0.16849 0.07453,0.29105 0.214647,0.97566 0.311361,1.52136 0.09672,0.5457 0.212981,0.99219 0.258371,0.99219 0.04539,0 0.06685,-0.66968 0.04768,-1.48816 z M 98.0397,149.01005 c 0,-0.20969 -0.119062,-0.45484 -0.264583,-0.54478 -0.145521,-0.0899 -0.266407,-0.54345 -0.268635,-1.0078 -0.0031,-0.64243 -0.06537,-0.7494 -0.260532,-0.44741 -0.141064,0.21828 -0.258303,0.30596 -0.260532,0.19485 -0.0022,-0.11112 0.124741,-0.40877 0.282153,-0.66146 0.217672,-0.34942 0.149482,-0.82448 -0.284768,-1.98393 -0.314035,-0.83847 -0.679588,-1.45736 -0.81234,-1.37532 -0.132753,0.0821 -0.177992,-0.016 -0.100533,-0.21783 0.07746,-0.20186 -0.07698,-0.63601 -0.343209,-0.96479 -0.477443,-0.58961 -0.484045,-0.59021 -0.484045,-0.0436 0,0.30479 0.09355,0.55416 0.207887,0.55416 0.114338,0 0.207887,0.30469 0.207887,0.67708 0,0.37239 0.113992,0.60662 0.253315,0.52051 0.272254,-0.16826 1.083249,1.1973 1.048714,1.76584 -0.01149,0.18912 -0.140721,0.0157 -0.287182,-0.38539 -0.146461,-0.40109 -0.373823,-0.66279 -0.505248,-0.58157 -0.131425,0.0812 -0.160553,-0.0566 -0.06473,-0.30634 0.118332,-0.30837 0.07476,-0.39255 -0.135818,-0.2624 -0.191288,0.11822 -0.408686,-0.0678 -0.567581,-0.48576 -0.159286,-0.41896 -0.461919,-0.67738 -0.793254,-0.67738 -0.675148,0 -0.674711,0.005 0.155605,1.66244 1.202132,2.40013 2.516581,4.43387 2.766056,4.27968 0.132401,-0.0818 0.169823,0.036 0.08316,0.26184 -0.08666,0.22584 -0.02577,0.41062 0.135322,0.41062 0.16109,0 0.292891,-0.17157 0.292891,-0.38126 z m -22.757092,-1.21171 c -0.15737,-0.29405 -0.224904,-0.63369 -0.150076,-0.75477 0.237922,-0.38497 -0.574469,-1.22303 -1.214673,-1.25306 -0.339185,-0.0159 -0.854824,-0.11787 -1.145866,-0.22659 -0.291042,-0.10871 -0.139336,0.0531 0.337124,0.35966 0.99386,0.63938 1.228439,0.69481 0.958988,0.22658 -0.110578,-0.19215 -0.08941,-0.23834 0.05053,-0.11024 0.132471,0.12127 0.245847,0.29986 0.251947,0.39688 0.01834,0.29162 0.918144,1.89618 1.063347,1.89618 0.07414,0 0.006,-0.24059 -0.151321,-0.53464 z m 19.376045,-0.97666 c -0.441809,-0.69675 -1.127409,-2.18956 -1.523555,-3.31735 -0.396146,-1.12779 -0.823889,-2.05052 -0.95054,-2.05052 -0.297276,0 -0.295446,0.35326 0.0035,0.67469 0.311438,0.33486 1.353731,3.34301 1.353731,3.90699 0,0.24497 0.165027,0.4454 0.366728,0.4454 0.2017,0 0.569062,0.42639 0.816359,0.94753 0.247298,0.52114 0.514306,0.88286 0.593351,0.80381 0.07905,-0.079 -0.217761,-0.71379 -0.659569,-1.41055 z m -1.712182,0.92859 c -0.03638,-0.17497 -0.423333,-0.57061 -0.859896,-0.87921 -0.436562,-0.30859 -0.777427,-0.75947 -0.757477,-1.00194 0.0204,-0.24799 -0.08608,-0.36525 -0.2434,-0.26802 -0.175996,0.10877 -0.215087,0.005 -0.10545,-0.28117 0.100587,-0.26212 0.06695,-0.38772 -0.07957,-0.29717 -0.139587,0.0863 -0.327232,-0.17543 -0.416987,-0.58157 -0.268916,-1.21681 -0.338667,-1.30755 -0.3606,-0.46911 -0.02248,0.8594 0.94557,2.48272 2.073344,3.47678 0.800814,0.70587 0.837174,0.72048 0.750038,0.30141 z m -25.863019,-0.8725 c -0.277363,-0.3342 -0.228163,-0.39688 0.311561,-0.39688 0.701911,0 1.275939,-0.44042 1.275939,-0.97895 0,-0.57245 -0.652763,-0.38779 -1.405097,0.39748 -0.551732,0.57589 -0.639589,0.8122 -0.393459,1.05833 0.450858,0.45086 0.603581,0.39298 0.211056,-0.08 z m 23.58937,-5.42396 c 0.153859,0 0.21121,0.17859 0.127448,0.39688 -0.09277,0.24175 -4.18e-4,0.39687 0.236276,0.39687 0.213714,0 0.388571,-0.17859 0.388571,-0.39687 0,-0.62866 -0.108277,-0.79568 -0.463021,-0.71421 -0.181901,0.0418 -0.330729,-0.10413 -0.330729,-0.32423 0,-0.247 0.151904,-0.34187 0.396875,-0.24787 0.218281,0.0838 0.396875,0.0292 0.396875,-0.12119 0,-0.15042 0.208359,-0.33189 0.463021,-0.40326 0.375416,-0.10521 -0.154472,-0.0769 -1.294234,0.0692 -0.09336,0.012 -0.241685,0.30835 -0.329601,0.65863 -0.08791,0.35029 -0.228875,0.8563 -0.313243,1.12448 -0.14289,0.4542 -0.133005,0.45589 0.14431,0.0246 0.16374,-0.25466 0.423593,-0.46302 0.577452,-0.46302 z m -5.85639,-2.51982 c 0.572695,-0.60961 0.582469,-0.66076 0.112267,-0.58766 -0.799685,0.12434 -1.16749,0.44184 -1.004344,0.867 0.189858,0.49476 0.15443,0.50585 0.892077,-0.27934 z M 73.137536,126.96787 c -0.08612,-0.54541 0.06668,-0.82972 0.381079,-0.70907 0.200483,0.0769 0.48278,-0.15777 0.661459,-0.54992 0.412992,-0.90642 0.381776,-1.17072 -0.06818,-0.57726 -0.214941,0.2835 -0.430417,0.36987 -0.528162,0.21172 -0.149671,-0.24218 0.58183,-0.8268 0.914182,-0.73062 0.07613,0.022 0.552382,-0.29903 1.058333,-0.71346 0.756602,-0.61975 0.814162,-0.72981 0.324234,-0.61999 -0.327623,0.0734 -0.528955,0.0256 -0.447406,-0.10638 0.280519,-0.45389 -0.435019,-0.2392 -1.0185,0.3056 -0.545662,0.50948 -0.5493,0.53466 -0.05508,0.38133 0.291042,-0.0903 0.112323,0.0686 -0.397152,0.35306 -0.509475,0.28448 -1.12047,0.73796 -1.357767,1.00773 -0.578334,0.65748 -0.880504,1.68112 -0.496254,1.68112 0.163915,0 0.224443,-0.11906 0.134506,-0.26459 -0.08994,-0.14552 0.0221,-0.26458 0.248969,-0.26458 0.226869,0 0.39839,0.0893 0.381157,0.19844 -0.05146,0.32589 0.02259,0.59531 0.163624,0.59531 0.07276,0 0.118192,-0.0893 0.10096,-0.19844 z"
       id="path8440" />
    <path
       style="fill:#83745a;stroke-width:1.23137"
       d="m 76.806889,122.2171 c 0.327421,-0.0631 0.863203,-0.0631 1.190625,0 0.327421,0.0631 0.05953,0.11466 -0.595313,0.11466 -0.654844,0 -0.922734,-0.0516 -0.595312,-0.11466 z"
       id="path8323" />
    <path
       style="fill:#83745a;stroke-width:1.23137"
       d="m 81.501775,124.25427 c -0.264197,-0.29193 -0.417841,-0.5933 -0.341431,-0.66971 0.07641,-0.0764 0.336393,0.16244 0.577741,0.53079 0.527314,0.80478 0.422203,0.86657 -0.23631,0.13892 z"
       id="path8319" />
    <path
       style="fill:#83745a;stroke-width:1.23137"
       d="m 80.557176,124.88362 c -0.352789,-0.38236 -0.998621,-0.85395 -1.435183,-1.04798 -0.597198,-0.26542 -0.662715,-0.35317 -0.264584,-0.35434 0.540814,-0.002 1.195721,0.47192 2.091528,1.5122 0.708543,0.82281 0.385103,0.73209 -0.391761,-0.10988 z"
       id="path8317" />
    <path
       style="fill:#83745a;stroke-width:1.23137"
       d="m 83.309855,130.73819 c 0.0012,-1.01865 0.049,-1.40295 0.106272,-0.854 0.05727,0.54895 0.05631,1.38239 -0.0021,1.85208 -0.05845,0.4697 -0.105311,0.0206 -0.104137,-0.99808 z"
       id="path8308" />
    <path
       style="fill:#83745a;stroke-width:1.23137"
       d="m 82.26666,131.66423 c 0,-1.81901 0.04227,-2.56315 0.09394,-1.65365 0.05166,0.90951 0.05166,2.39779 0,3.30729 -0.05167,0.90951 -0.09394,0.16537 -0.09394,-1.65364 z"
       id="path8305" />
    <path
       style="fill:#83745a;stroke-width:1.23137"
       d="m 83.025174,134.97152 c 0.0029,-0.58208 0.05712,-0.78906 0.120406,-0.45994 0.06329,0.32912 0.06088,0.80537 -0.0053,1.05834 -0.06622,0.25296 -0.118003,-0.0163 -0.115067,-0.5984 z"
       id="path8302" />
    <path
       style="fill:#83745a;stroke-width:1.23137"
       d="m 76.430688,134.97152 c 0.0012,-1.01865 0.049,-1.40294 0.106272,-0.854 0.05728,0.54895 0.05632,1.38239 -0.0021,1.85209 -0.05845,0.46969 -0.105312,0.0206 -0.104138,-0.99809 z"
       id="path8300" />
    <path
       style="fill:#83745a;stroke-width:1.23137"
       d="m 86.993346,136.77351 c 0.254662,-0.0665 0.671381,-0.0665 0.926042,0 0.254661,0.0666 0.0463,0.121 -0.463021,0.121 -0.509323,0 -0.717682,-0.0545 -0.463021,-0.121 z"
       id="path8299" />
    <path
       style="fill:#83745a;stroke-width:1.23137"
       d="m 81.966841,136.29444 c 0.0029,-0.58209 0.05712,-0.78906 0.120406,-0.45994 0.06329,0.32912 0.06088,0.80537 -0.0053,1.05833 -0.06622,0.25297 -0.118003,-0.0163 -0.115066,-0.59839 z"
       id="path8298" />
    <path
       style="fill:#83745a;stroke-width:1.23137"
       d="m 83.752201,138.45291 c 0,-0.27191 1.959059,-1.49742 2.376523,-1.48666 0.220881,0.006 0.04441,0.18109 -0.392148,0.38976 -0.436563,0.20868 -1.061641,0.57573 -1.389063,0.81567 -0.327422,0.23994 -0.595312,0.3665 -0.595312,0.28123 z"
       id="path8294" />
    <path
       style="fill:#83745a;stroke-width:1.23137"
       d="m 82.755252,139.33714 c 0,-0.50932 0.05445,-0.71768 0.121,-0.46302 0.06655,0.25466 0.06655,0.67138 0,0.92604 -0.06655,0.25467 -0.121,0.0463 -0.121,-0.46302 z"
       id="path8292" />
    <path
       style="fill:#83745a;stroke-width:1.23137"
       d="m 83.833398,140.24392 c 0.227193,-0.44717 0.613957,-0.97974 0.859476,-1.1835 0.245519,-0.20377 0.127489,0.0995 -0.262289,0.67383 -0.92097,1.35712 -1.109522,1.51804 -0.597187,0.50967 z"
       id="path8289" />
    <path
       style="fill:#83745a;stroke-width:1.23137"
       d="m 81.702258,139.9986 c 0.0029,-0.58208 0.05712,-0.78905 0.120406,-0.45993 0.06329,0.32911 0.06088,0.80536 -0.0053,1.05833 -0.06622,0.25296 -0.118003,-0.0163 -0.115066,-0.5984 z"
       id="path8288" />
    <path
       style="fill:#83745a;stroke-width:1.23137"
       d="m 95.007469,140.99073 c -0.944632,-1.15528 -0.958002,-1.19267 -0.165551,-0.46302 0.758722,0.69859 1.518031,1.71979 1.278745,1.71979 -0.04706,0 -0.548002,-0.56555 -1.113194,-1.25677 z"
       id="path8284" />
    <path
       style="fill:#83745a;stroke-width:1.23137"
       d="m 81.446625,142.64443 c 0.002,-0.72761 0.05337,-0.99386 0.114186,-0.59168 0.06082,0.40218 0.05919,0.9975 -0.0036,1.32292 -0.0628,0.32542 -0.11256,-0.004 -0.110574,-0.73124 z"
       id="path8280" />
    <path
       style="fill:#83745a;stroke-width:1.23137"
       d="m 75.680683,147.36937 c -0.279227,-0.51849 -0.928849,-1.30003 -1.443604,-1.73676 -0.514756,-0.43672 -0.697794,-0.67358 -0.406753,-0.52634 0.874163,0.44223 2.761013,2.80285 2.471632,3.09223 -0.06247,0.0625 -0.342047,-0.31063 -0.621275,-0.82913 z"
       id="path8269" />
    <path
       style="fill:#83745a;stroke-width:1.23137"
       d="m 95.129283,147.53923 c -0.296956,-0.58209 -0.48039,-1.05834 -0.407629,-1.05834 0.07276,0 0.375256,0.47625 0.672213,1.05834 0.296957,0.58208 0.48039,1.05833 0.407629,1.05833 -0.07276,0 -0.375256,-0.47625 -0.672213,-1.05833 z"
       id="path8267" />
    <path
       style="fill:#83745a;stroke-width:1.23137"
       d="m 62.561781,149.4357 c 0.142696,-0.26663 0.467299,-0.65359 0.721341,-0.8599 0.285821,-0.23212 0.221931,-0.0473 -0.167603,0.48478 -0.694917,0.94926 -0.955474,1.12577 -0.553738,0.37512 z"
       id="path8266" />
    <path
       style="fill:#83745a;stroke-width:1.23137"
       d="m 81.696918,149.39131 c 0,-0.50932 0.05445,-0.71768 0.121,-0.46302 0.06655,0.25466 0.06655,0.67138 0,0.92604 -0.06655,0.25466 -0.121,0.0463 -0.121,-0.46302 z"
       id="path8264" />
    <path
       style="fill:#83745a;stroke-width:1.23137"
       d="m 80.649264,149.92048 c 0,-0.65485 0.0516,-0.92274 0.114662,-0.59532 0.06306,0.32743 0.06306,0.86321 0,1.19063 -0.06306,0.32742 -0.114662,0.0595 -0.114662,-0.59531 z"
       id="path8259" />
    <path
       style="fill:#83745a;stroke-width:1.23137"
       d="m 81.446625,152.16943 c 0.002,-0.7276 0.05337,-0.99385 0.114186,-0.59167 0.06082,0.40218 0.05919,0.9975 -0.0036,1.32292 -0.0628,0.32542 -0.11256,-0.004 -0.110574,-0.73125 z"
       id="path8253" />
    <path
       style="fill:#83745a;stroke-width:1.23137"
       d="m 80.379341,152.43402 c 0.0029,-0.58209 0.05712,-0.78906 0.120406,-0.45994 0.06329,0.32912 0.06088,0.80537 -0.0053,1.05834 -0.06622,0.25296 -0.118004,-0.0163 -0.115067,-0.5984 z"
       id="path8252" />
    <path
       style="fill:#83745a;stroke-width:1.23137"
       d="m 80.120097,155.74131 c 0,-0.65484 0.0516,-0.92273 0.114662,-0.59531 0.06307,0.32742 0.06307,0.8632 0,1.19062 -0.06306,0.32742 -0.114662,0.0595 -0.114662,-0.59531 z"
       id="path8241" />
    <path
       style="fill:#83745a;stroke-width:1.23137"
       d="m 76.934418,156.79964 c 0,-0.50932 0.05445,-0.71768 0.121,-0.46302 0.06655,0.25466 0.06655,0.67138 0,0.92604 -0.06655,0.25467 -0.121,0.0463 -0.121,-0.46302 z"
       id="path8239" />
    <path
       style="fill:#83745a;stroke-width:1.23137"
       d="m 79.862737,158.91631 c 0,-0.80036 0.0496,-1.12779 0.110223,-0.7276 0.06062,0.40018 0.06062,1.05502 0,1.4552 -0.06062,0.40019 -0.110223,0.0728 -0.110223,-0.7276 z"
       id="path8233" />
    <path
       style="fill:#83745a;stroke-width:1.23137"
       d="m 77.733508,163.28193 c 0.0029,-0.58208 0.05712,-0.78905 0.120406,-0.45993 0.06329,0.32912 0.06088,0.80537 -0.0053,1.05833 -0.06622,0.25297 -0.118003,-0.0163 -0.115066,-0.5984 z"
       id="path8224" />
    <path
       style="fill:#83745a;stroke-width:1.23137"
       d="m 59.145952,175.37005 c 0,-0.35728 1.38069,-1.52489 2.645833,-2.23752 1.520998,-0.85675 4.572382,-1.94293 7.273405,-2.58906 l 2.114031,-0.50571 1.594626,1.58046 1.594626,1.58045 2.442906,0.11519 2.442905,0.1152 0.0313,-0.84019 0.0313,-0.8402 0.169696,0.79375 0.169697,0.79375 2.179129,0.0614 2.179128,0.0614 1.083172,-1.71508 c 0.595744,-0.94329 1.174549,-1.71508 1.286233,-1.71508 0.459218,0 5.837648,1.62789 7.395384,2.23836 2.631343,1.03122 4.524951,2.37339 4.524951,3.20724 0,0.0609 -8.810624,0.11065 -19.579165,0.11065 -10.768541,0 -19.579166,-0.0968 -19.579166,-0.21508 z"
       id="path8214" />
    <path
       style="fill:#726a50;stroke-width:1.23137"
       d="m 76.806889,122.2171 c 0.327421,-0.0631 0.863203,-0.0631 1.190625,0 0.327421,0.0631 0.05953,0.11466 -0.595313,0.11466 -0.654844,0 -0.922734,-0.0516 -0.595312,-0.11466 z"
       id="path8081" />
    <path
       style="fill:#726a50;stroke-width:1.23137"
       d="m 80.557176,124.88361 c -0.352789,-0.38236 -0.998621,-0.85395 -1.435183,-1.04798 -0.597198,-0.26542 -0.662715,-0.35317 -0.264584,-0.35434 0.540814,-0.002 1.195721,0.47192 2.091528,1.5122 0.708543,0.82281 0.385103,0.73209 -0.391761,-0.10988 z"
       id="path8077" />
    <path
       style="fill:#726a50;stroke-width:1.23137"
       d="m 83.309855,130.73819 c 0.0012,-1.01865 0.049,-1.40295 0.106272,-0.854 0.05727,0.54895 0.05631,1.38239 -0.0021,1.85208 -0.05845,0.4697 -0.105311,0.0206 -0.104137,-0.99808 z"
       id="path8069" />
    <path
       style="fill:#726a50;stroke-width:1.23137"
       d="m 82.26666,131.66423 c 0,-1.81901 0.04227,-2.56315 0.09394,-1.65365 0.05166,0.90951 0.05166,2.39779 0,3.30729 -0.05167,0.90951 -0.09394,0.16537 -0.09394,-1.65364 z"
       id="path8067" />
    <path
       style="fill:#726a50;stroke-width:1.23137"
       d="m 83.025174,134.97152 c 0.0029,-0.58208 0.05712,-0.78906 0.120406,-0.45994 0.06329,0.32912 0.06088,0.80537 -0.0053,1.05834 -0.06622,0.25296 -0.118003,-0.0163 -0.115067,-0.5984 z"
       id="path8064" />
    <path
       style="fill:#726a50;stroke-width:1.23137"
       d="m 76.430688,134.97152 c 0.0012,-1.01865 0.049,-1.40294 0.106272,-0.854 0.05728,0.54895 0.05632,1.38239 -0.0021,1.85209 -0.05845,0.46969 -0.105312,0.0206 -0.104138,-0.99809 z"
       id="path8063" />
    <path
       style="fill:#726a50;stroke-width:1.23137"
       d="m 86.993346,136.77351 c 0.254662,-0.0665 0.671381,-0.0665 0.926042,0 0.254661,0.0666 0.0463,0.121 -0.463021,0.121 -0.509323,0 -0.717682,-0.0545 -0.463021,-0.121 z"
       id="path8062" />
    <path
       style="fill:#726a50;stroke-width:1.23137"
       d="m 81.966841,136.29444 c 0.0029,-0.58209 0.05712,-0.78906 0.120406,-0.45994 0.06329,0.32912 0.06088,0.80537 -0.0053,1.05833 -0.06622,0.25297 -0.118003,-0.0163 -0.115066,-0.59839 z"
       id="path8061" />
    <path
       style="fill:#726a50;stroke-width:1.23137"
       d="m 83.752201,138.45291 c 0,-0.27191 1.959059,-1.49742 2.376523,-1.48666 0.220881,0.006 0.04441,0.18109 -0.392148,0.38976 -0.436563,0.20868 -1.061641,0.57573 -1.389063,0.81567 -0.327422,0.23994 -0.595312,0.3665 -0.595312,0.28123 z"
       id="path8058" />
    <path
       style="fill:#726a50;stroke-width:1.23137"
       d="m 82.755252,139.33714 c 0,-0.50932 0.05445,-0.71768 0.121,-0.46302 0.06655,0.25466 0.06655,0.67138 0,0.92604 -0.06655,0.25467 -0.121,0.0463 -0.121,-0.46302 z"
       id="path8056" />
    <path
       style="fill:#726a50;stroke-width:1.23137"
       d="m 83.833398,140.24392 c 0.227193,-0.44717 0.613957,-0.97974 0.859476,-1.1835 0.245519,-0.20377 0.127489,0.0995 -0.262289,0.67383 -0.92097,1.35712 -1.109522,1.51804 -0.597187,0.50967 z"
       id="path8053" />
    <path
       style="fill:#726a50;stroke-width:1.23137"
       d="m 81.702258,139.9986 c 0.0029,-0.58208 0.05712,-0.78905 0.120406,-0.45993 0.06329,0.32911 0.06088,0.80536 -0.0053,1.05833 -0.06622,0.25296 -0.118003,-0.0163 -0.115066,-0.5984 z"
       id="path8052" />
    <path
       style="fill:#726a50;stroke-width:1.23137"
       d="m 95.244093,141.25537 c -0.607487,-0.81259 -0.632681,-0.89694 -0.139188,-0.46598 0.574227,0.50147 1.224508,1.45817 0.991132,1.45817 -0.06061,0 -0.443983,-0.44648 -0.851944,-0.99219 z"
       id="path8049" />
    <path
       style="fill:#726a50;stroke-width:1.23137"
       d="m 81.443014,142.77673 c 0,-0.65485 0.0516,-0.92274 0.114662,-0.59532 0.06306,0.32743 0.06306,0.86321 0,1.19063 -0.06306,0.32742 -0.114662,0.0595 -0.114662,-0.59531 z"
       id="path8045" />
    <path
       style="fill:#726a50;stroke-width:1.23137"
       d="m 75.680683,147.36937 c -0.279227,-0.51849 -0.928849,-1.30003 -1.443604,-1.73676 -0.514756,-0.43672 -0.697794,-0.67358 -0.406753,-0.52634 0.874163,0.44223 2.761013,2.80285 2.471632,3.09223 -0.06247,0.0625 -0.342047,-0.31063 -0.621275,-0.82913 z"
       id="path8035" />
    <path
       style="fill:#726a50;stroke-width:1.23137"
       d="m 95.129283,147.53923 c -0.296956,-0.58209 -0.48039,-1.05834 -0.407629,-1.05834 0.07276,0 0.375256,0.47625 0.672213,1.05834 0.296957,0.58208 0.48039,1.05833 0.407629,1.05833 -0.07276,0 -0.375256,-0.47625 -0.672213,-1.05833 z"
       id="path8033" />
    <path
       style="fill:#726a50;stroke-width:1.23137"
       d="m 62.561781,149.4357 c 0.142696,-0.26663 0.467299,-0.65359 0.721341,-0.8599 0.285821,-0.23212 0.221931,-0.0473 -0.167603,0.48478 -0.694917,0.94926 -0.955474,1.12577 -0.553738,0.37512 z"
       id="path8032" />
    <path
       style="fill:#726a50;stroke-width:1.23137"
       d="m 81.696918,149.39131 c 0,-0.50932 0.05445,-0.71768 0.121,-0.46302 0.06655,0.25466 0.06655,0.67138 0,0.92604 -0.06655,0.25466 -0.121,0.0463 -0.121,-0.46302 z"
       id="path8030" />
    <path
       style="fill:#726a50;stroke-width:1.23137"
       d="m 80.649264,149.92048 c 0,-0.65485 0.0516,-0.92274 0.114662,-0.59532 0.06306,0.32743 0.06306,0.86321 0,1.19063 -0.06306,0.32742 -0.114662,0.0595 -0.114662,-0.59531 z"
       id="path8026" />
    <path
       style="fill:#726a50;stroke-width:1.23137"
       d="m 81.443014,152.03714 c 0,-0.65484 0.0516,-0.92273 0.114662,-0.59531 0.06306,0.32742 0.06306,0.8632 0,1.19063 -0.06306,0.32742 -0.114662,0.0595 -0.114662,-0.59532 z"
       id="path8020" />
    <path
       style="fill:#726a50;stroke-width:1.23137"
       d="m 80.379341,152.43402 c 0.0029,-0.58209 0.05712,-0.78906 0.120406,-0.45994 0.06329,0.32912 0.06088,0.80537 -0.0053,1.05834 -0.06622,0.25296 -0.118004,-0.0163 -0.115067,-0.5984 z"
       id="path8019" />
    <path
       style="fill:#726a50;stroke-width:1.23137"
       d="m 80.120097,155.74131 c 0,-0.65484 0.0516,-0.92273 0.114662,-0.59531 0.06307,0.32742 0.06307,0.8632 0,1.19062 -0.06306,0.32742 -0.114662,0.0595 -0.114662,-0.59531 z"
       id="path8009" />
    <path
       style="fill:#726a50;stroke-width:1.23137"
       d="m 76.934418,156.79964 c 0,-0.50932 0.05445,-0.71768 0.121,-0.46302 0.06655,0.25466 0.06655,0.67138 0,0.92604 -0.06655,0.25467 -0.121,0.0463 -0.121,-0.46302 z"
       id="path8007" />
    <path
       style="fill:#726a50;stroke-width:1.23137"
       d="m 79.859126,159.0486 c 0.002,-0.7276 0.05337,-0.99386 0.114185,-0.59167 0.06082,0.40218 0.05919,0.99749 -0.0036,1.32291 -0.0628,0.32542 -0.11256,-0.004 -0.110573,-0.73124 z"
       id="path8001" />
    <path
       style="fill:#726a50;stroke-width:1.23137"
       d="m 77.728168,163.41423 c 0,-0.50933 0.05445,-0.71769 0.121,-0.46302 0.06655,0.25466 0.06655,0.67138 0,0.92604 -0.06655,0.25466 -0.121,0.0463 -0.121,-0.46302 z"
       id="path7992" />
    <path
       style="fill:#726a50;stroke-width:1.23137"
       d="m 67.083452,173.733 c 0,-0.14553 0.133012,-0.23482 0.295582,-0.19844 0.162571,0.0364 0.332231,-0.15313 0.377022,-0.42112 0.124139,-0.74275 0.362558,-0.84615 0.318086,-0.13796 -0.03735,0.59473 -0.359908,1.00922 -0.792253,1.01805 -0.109141,0.002 -0.198437,-0.11501 -0.198437,-0.26053 z"
       id="path7982" />
    <path
       style="fill:#726a50;stroke-width:1.23137"
       d="m 97.113658,174.38497 c -0.436562,-0.35873 -0.948762,-0.59394 -1.138221,-0.52268 -0.189459,0.0712 -0.283855,0.0315 -0.209769,-0.0884 0.285928,-0.46265 -5.938704,-2.79379 -8.294408,-3.10628 -1.211642,-0.16073 -1.231754,-0.15091 -1.744811,0.8522 -0.285472,0.55815 -0.667868,1.17396 -0.849769,1.36847 -0.181901,0.19452 -0.330729,0.46422 -0.330729,0.59935 0,0.13513 -0.922735,0.22203 -2.050521,0.19311 l -2.050521,-0.0526 1.86946,-0.0903 1.86946,-0.0903 0.999831,-1.70919 c 0.549907,-0.94005 1.090622,-1.70918 1.20159,-1.70918 0.497362,0 5.913622,1.65708 7.429353,2.27298 1.759019,0.71475 4.225097,2.20395 4.225097,2.55142 0,0.28193 -0.03302,0.26522 -0.926042,-0.46858 z"
       id="path7973" />
    <path
       style="fill:#726a50;stroke-width:1.23137"
       d="m 59.145952,175.34793 c 0,-0.46111 1.819049,-1.82558 3.47845,-2.60918 2.113496,-0.99804 5.793537,-2.17157 7.421833,-2.36675 1.230687,-0.14753 1.259594,-0.13306 2.920241,1.46158 l 1.677251,1.61058 2.106841,0.0912 2.106841,0.0912 -2.25318,0.0533 -2.253181,0.0532 -1.557217,-1.5875 c -1.147511,-1.16983 -1.746638,-1.5875 -2.277175,-1.5875 -1.187567,0 -7.16317,2.03402 -8.724871,2.96983 -2.860361,1.71402 -3.525759,1.64561 17.462466,1.79529 l 18.917741,0.13493 -19.51302,0.0635 c -11.376198,0.037 -19.51302,-0.0354 -19.51302,-0.17366 z"
       id="path7970" />
  </g>
</svg>
