<?xml version="1.0" encoding="UTF-8" standalone="no"?>
<!-- Created with Inkscape (http://www.inkscape.org/) -->

<svg
   width="185"
   height="185"
   viewBox="0 0 48.947914 48.947918"
   version="1.1"
   id="svg1"
   xmlns="http://www.w3.org/2000/svg"
   xmlns:svg="http://www.w3.org/2000/svg">
  <defs
     id="defs1" />
  <g
     id="g26455"
     transform="matrix(0.82591147,0,0,0.82591147,-160.94659,-143.26146)">
    <path
       style="fill:#e8cab6"
       d="m 220.14534,186.60874 0.13747,-1.27872 -0.45866,0.74955 c -0.34898,0.57032 -0.39479,0.89219 -0.19158,1.34599 0.3354,0.74899 0.34631,0.73162 0.51277,-0.81682 z"
       id="path23976" />
    <path
       style="fill:#8f422d"
       d="m 198.12081,232.43497 c -1.78258,-0.36457 -2.93466,-2.48534 -2.24332,-4.12954 0.18371,-0.43692 0.75997,-1.11929 1.28057,-1.51637 l 0.94655,-0.72197 -0.63423,-0.83355 c -1.62756,-2.13906 -0.85764,-4.43466 1.9704,-5.87498 1.32971,-0.67722 4.46841,-0.64181 6.27032,0.0707 0.75654,0.29917 1.44115,0.47832 1.52136,0.39812 0.0802,-0.0802 0.14582,-0.47903 0.14582,-0.88628 0,-0.45735 0.32718,-1.11308 0.85576,-1.7151 2.74441,-3.12571 7.90309,-1.85055 11.41529,2.82171 l 1.23248,1.63955 -0.16926,-1.95094 c -0.58304,-6.7206 -3.35865,-13.8069 -6.7955,-17.34934 -0.73396,-0.7565 -1.84495,-1.64627 -2.46886,-1.97726 l -1.13439,-0.60179 -0.79559,0.5882 c -0.89753,0.66357 -1.38792,0.72541 -2.22347,0.2804 -2.00803,-1.06949 -1.45976,-3.66095 0.77455,-3.66095 0.58799,0 1.61107,0.35402 2.65953,0.92029 l 1.70394,0.9203 -0.60669,-1.07946 c -0.69899,-1.2437 -2.40617,-2.8778 -3.00648,-2.8778 -1.27053,0 -2.67865,-1.56327 -2.32082,-2.57655 0.88681,-2.51123 4.2502,-2.06367 4.73128,0.62958 0.19177,1.07359 1.02448,2.21156 1.61831,2.21156 0.46309,0 0.43297,-0.79509 -0.0545,-1.43964 -0.21366,-0.28247 -0.38846,-0.85585 -0.38846,-1.27416 0,-1.72542 1.22515,-2.58234 2.76948,-1.93708 1.61829,0.67617 1.86146,2.34904 0.52408,3.60544 -0.53073,0.49859 -0.64773,0.86423 -0.64773,2.02421 0,0.77863 0.23223,2.07644 0.51607,2.88402 0.51374,1.46168 3.29327,6.63848 4.10561,7.64658 l 0.42641,0.52917 -0.13269,-0.52917 c -0.073,-0.29104 -0.31605,-3.98352 -0.54016,-8.20552 -0.2241,-4.22199 -0.5165,-8.05656 -0.64978,-8.52126 -0.40864,-1.42487 -1.1525,-2.43842 -1.99533,-2.71878 -1.03701,-0.34495 -1.80127,-1.63185 -1.47646,-2.48614 0.40925,-1.07641 1.60262,-1.81677 2.65666,-1.64816 0.84817,0.13567 1.66268,0.78639 1.90889,1.52504 0.0542,0.16246 0.47111,-0.0773 0.92656,-0.53271 0.88128,-0.88127 1.71077,-1.03589 2.82756,-0.52704 1.47965,0.67417 1.26395,2.98629 -0.34504,3.6985 -0.93267,0.41284 -1.22515,1.0978 -1.56853,3.67336 -0.24721,1.85426 -0.20566,3.85802 0.21674,10.45104 0.14917,2.32834 0.28567,5.03701 0.30334,6.01927 0.0177,0.98227 0.11392,1.78594 0.2139,1.78594 0.1,0 0.46067,-0.68461 0.80153,-1.52135 0.94381,-2.31692 2.61333,-5.59481 3.64141,-7.14947 1.71715,-2.59667 2.49011,-6.50617 1.43446,-7.25532 -1.3572,-0.96316 -1.35074,-2.84395 0.0122,-3.54875 0.94691,-0.48966 2.32202,-0.31834 2.92091,0.36392 0.77739,0.88559 0.76446,1.50768 -0.0636,3.05937 -0.4401,0.82474 -0.73354,1.49952 -0.65209,1.49952 0.58231,0 1.70083,-0.93882 2.35373,-1.97559 0.88015,-1.39763 1.35935,-1.72858 2.50289,-1.72858 1.74742,0 2.5312,2.28306 1.23036,3.5839 -0.48552,0.48552 -0.93289,0.64944 -1.77246,0.64944 -1.00974,0 -1.25184,0.1372 -2.40007,1.36022 -0.70237,0.74812 -1.22091,1.41636 -1.1523,1.48496 0.0686,0.0686 0.68819,-0.0672 1.37684,-0.30189 1.91776,-0.65344 3.49918,-0.47239 4.13035,0.47288 0.3683,0.55158 0.20481,1.92679 -0.28137,2.36678 -0.69552,0.62943 -2.45615,0.56659 -3.32744,-0.11876 -1.86304,-1.46547 -4.34753,0.6075 -6.77709,5.65456 -2.30772,4.79398 -2.90814,7.1281 -3.09554,12.03385 -0.0891,2.33362 -0.0536,4.03032 0.0842,4.02405 0.13106,-0.006 0.5042,-0.57879 0.8292,-1.27295 0.88456,-1.88935 3.20382,-4.30005 5.11901,-5.32083 3.13473,-1.67079 6.70778,-1.29707 7.80043,0.81588 0.43332,0.83795 0.56108,2.68562 0.25285,3.65675 -0.17064,0.53765 -0.16568,0.53793 0.97014,0.0534 2.8902,-1.23286 5.97161,-1.38179 7.701,-0.37219 l 0.849,0.49564 0.0713,5.73436 0.0713,5.73436 -0.99733,0.44111 c -0.90417,0.39991 -3.15042,0.44414 -24.0457,0.47351 -12.6766,0.0178 -23.4371,-0.0471 -23.91223,-0.14428 z"
       id="path25954" />
    <path
       style="fill:#537115"
       d="m 231.37152,191.40977 c -0.0845,-0.21107 -0.14715,-0.14837 -0.15985,0.15985 -0.0115,0.27892 0.0511,0.43519 0.13896,0.34727 0.0879,-0.0879 0.0973,-0.31612 0.0209,-0.50712 z"
       id="path25296" />
    <path
       style="fill:#6e2b1a"
       d="m 228.46546,193.42909 c -1.59037,-1.38306 -1.49639,-3.25805 0.19122,-3.81501 1.08869,-0.3593 1.8133,-0.19035 2.54305,0.59294 0.61914,0.66457 0.6858,2.10731 0.12334,2.66977 -0.21828,0.21828 -0.39687,0.52444 -0.39687,0.68036 0,0.15591 -0.14883,0.29233 -0.33073,0.30314 -0.1819,0.0108 -0.56886,0.0632 -0.8599,0.11641 -0.2944,0.0538 -0.85788,-0.18913 -1.27011,-0.54761 z"
       id="path24899" />
    <path
       style="fill:#6e2b1a"
       d="m 231.87582,196.67741 c 0.094,-0.2587 0.39508,-0.59032 0.66901,-0.73691 0.27392,-0.1466 0.49803,-0.43503 0.49803,-0.64097 0,-0.20593 0.20836,-0.49577 0.46303,-0.6441 0.25696,-0.14967 0.31583,-0.27326 0.13229,-0.27773 -0.1819,-0.004 -0.33073,-0.13413 -0.33073,-0.28824 0,-0.15411 0.11906,-0.20662 0.26458,-0.11668 0.28139,0.17391 0.35548,-0.14159 0.27104,-1.1542 -0.0378,-0.45337 0.045,-0.56988 0.30144,-0.42421 0.28983,0.16463 0.29196,0.13462 0.0118,-0.1665 -0.29128,-0.31308 -0.37662,-0.31091 -0.57786,0.0147 -0.12986,0.21011 -0.16534,0.50678 -0.0789,0.65924 0.0865,0.15247 0.0684,0.19752 -0.0402,0.1001 -0.10862,-0.0974 -0.55423,0.20024 -0.99026,0.66146 -0.69323,0.73329 -0.66546,0.65012 0.22122,-0.66247 1.04527,-1.54736 1.76805,-2.07083 2.85931,-2.07083 1.32993,0 2.28389,2.39353 1.27888,3.20875 -0.38126,0.30927 -0.41444,0.30801 -0.2237,-0.008 0.14881,-0.24691 0.12533,-0.31066 -0.07,-0.18997 -0.16165,0.0999 -0.22875,0.35144 -0.14911,0.55897 0.17682,0.46079 -0.93526,0.79446 -1.86777,0.56042 -0.51562,-0.12942 -0.85462,0.0597 -1.72733,0.9635 -0.5972,0.61849 -1.00888,0.91285 -0.91485,0.65415 z"
       id="path24893" />
    <path
       style="fill:#6e2b1a"
       d="m 236.48775,200.05185 c 0.18408,-0.2218 0.2816,-0.45636 0.21671,-0.52124 -0.0649,-0.0649 -0.31881,0.11658 -0.56428,0.40327 -0.24547,0.28668 -0.34298,0.52124 -0.21671,0.52124 0.12628,0 0.38021,-0.18147 0.56428,-0.40327 z"
       id="path24885" />
    <path
       style="fill:#6e2b1a"
       d="m 233.3672,200.45413 c -0.97065,-0.5918 -1.67176,-0.66096 -2.52454,-0.249 -0.55827,0.26969 -0.56046,0.26519 -0.0643,-0.13229 0.28248,-0.22631 0.89297,-0.41147 1.35667,-0.41147 0.46369,0 0.99129,-0.17859 1.17245,-0.39687 0.27057,-0.32602 0.24994,-0.39688 -0.11551,-0.39688 -0.24469,0 -0.3713,0.11906 -0.28137,0.26458 0.24301,0.3932 -0.11455,0.32013 -0.54632,-0.11165 -0.32526,-0.32525 -0.26636,-0.40036 0.43469,-0.55434 1.04279,-0.22903 1.21666,-0.03 0.84167,0.96347 -0.25924,0.68679 -0.24561,0.78388 0.0918,0.65439 0.21793,-0.0836 0.33575,-0.0542 0.26184,0.0654 -0.0739,0.1196 0.0407,0.21746 0.25467,0.21746 0.25688,0 0.33676,-0.16482 0.23512,-0.48507 -0.10957,-0.34521 -0.0153,-0.49143 0.32689,-0.50712 0.95057,-0.0436 1.6735,-0.15636 1.79755,-0.28042 0.0695,-0.0695 -0.0618,-0.39495 -0.29176,-0.72325 -0.37323,-0.53287 -0.58149,-0.5829 -1.9408,-0.46627 -0.83749,0.0719 -1.98606,0.32346 -2.55238,0.55914 -0.807,0.33582 -0.94385,0.34672 -0.6328,0.0504 0.21828,-0.20795 1.02904,-0.58264 1.80168,-0.83264 2.32276,-0.75156 4.01915,-0.13135 4.01915,1.46942 0,1.68141 -1.90606,2.36291 -3.64441,1.30303 z"
       id="path24884" />
    <path
       style="fill:#6e2b1a"
       d="m 220.65903,205.08542 c 0.005,-0.43656 0.0647,-0.58312 0.13177,-0.32569 0.0671,0.25743 0.0627,0.61461 -0.01,0.79375 -0.0725,0.17913 -0.12736,-0.0315 -0.12197,-0.46806 z"
       id="path24855" />
    <path
       style="fill:#6e2b1a"
       d="m 220.60745,206.82517 c 0,-0.12538 0.17859,-0.2965 0.39687,-0.38026 0.21828,-0.0838 0.39688,-0.0497 0.39688,0.0757 0,0.12539 -0.1786,0.29651 -0.39688,0.38027 -0.21828,0.0838 -0.39687,0.0497 -0.39687,-0.0757 z"
       id="path24843" />
    <path
       style="fill:#6e2b1a"
       d="m 210.90917,195.54897 c -0.0862,-0.22456 -0.21342,-0.35154 -0.28278,-0.28219 -0.0693,0.0694 -0.0476,0.25309 0.0483,0.40829 0.2609,0.42213 0.41338,0.34012 0.23448,-0.1261 z"
       id="path24838" />
    <path
       style="fill:#6e2b1a"
       d="m 219.28453,207.48807 c 0,-0.20649 -0.16826,-0.7125 -0.37391,-1.12448 -0.20565,-0.41197 -0.5906,-1.1968 -0.85544,-1.74406 -0.40215,-0.83098 -0.51587,-0.91822 -0.68985,-0.52917 -0.16526,0.36956 -0.18569,0.34552 -0.0988,-0.1163 0.064,-0.34023 -0.15363,-0.93882 -0.52373,-1.44046 -0.34829,-0.47208 -0.63325,-0.94281 -0.63325,-1.04608 0,-0.10327 -0.41672,-0.92501 -0.92604,-1.8261 -0.50932,-0.90108 -0.92604,-1.80549 -0.92604,-2.00979 0,-0.2043 -0.17859,-0.37146 -0.39688,-0.37146 -0.21828,0 -0.39687,-0.10583 -0.39687,-0.23518 0,-0.31309 -0.87445,-0.23264 -1.11844,0.10289 -0.10582,0.14552 -0.12283,0.48785 -0.0378,0.76074 0.10076,0.32337 0.0526,0.43311 -0.13833,0.31511 -0.16111,-0.0996 -0.29293,-0.2941 -0.29293,-0.4323 0,-0.2337 -0.83085,-1.27766 -1.91823,-2.41024 -0.25466,-0.26525 -0.70706,-0.48227 -1.00533,-0.48227 -0.74928,0 -2.00531,-0.68535 -2.20375,-1.20248 -0.30509,-0.79504 -0.16721,-1.63295 0.38401,-2.33371 1.23385,-1.56859 3.73783,-0.39453 4.109,1.92661 0.0961,0.60068 0.29993,1.16957 0.45305,1.26421 0.16391,0.10131 0.068,0.25102 -0.23319,0.36405 -0.39033,0.14647 -0.31681,0.18908 0.31016,0.17976 1.13265,-0.0168 1.45908,0.24386 1.26644,1.01139 -0.13094,0.52172 -0.0795,0.61631 0.26361,0.48465 0.53919,-0.20691 0.53811,-0.22256 -0.13562,-1.9628 -0.85313,-2.20361 -0.91052,-3.02173 -0.25774,-3.67451 0.60137,-0.60137 1.84854,-0.73107 2.69153,-0.27992 0.38068,0.20374 0.47814,0.46131 0.37542,0.99219 -0.10526,0.544 -0.0849,0.59357 0.0843,0.20542 0.15687,-0.35986 0.28137,-0.41718 0.41976,-0.19327 0.27164,0.43954 -0.28006,1.99663 -0.90917,2.56597 -0.40877,0.36992 -0.51921,0.81631 -0.51921,2.09849 0,1.94044 0.70161,3.88939 2.43213,6.75603 1.90235,3.15128 2.59499,4.7625 2.04732,4.7625 -0.13537,0 -0.24612,-0.16894 -0.24612,-0.37543 z"
       id="path24837" />
    <path
       style="fill:#6e2b1a"
       d="m 223.1025,208.83682 c -0.24853,-0.64766 1.8629,-5.16712 4.21366,-9.01921 0.53836,-0.8822 1.08725,-2.23985 1.25948,-3.11529 0.36319,-1.84602 0.64279,-2.16072 0.64279,-0.72348 0,0.57024 -0.0828,1.03679 -0.18393,1.03679 -0.10116,0 -0.32467,0.44648 -0.49669,0.99219 -0.17202,0.5457 -0.57981,1.4089 -0.9062,1.91822 -1.25279,1.95495 -3.31999,6.03996 -3.31999,6.56066 0,0.29992 -0.17293,0.71822 -0.38428,0.92957 -0.21135,0.21135 -0.31057,0.45798 -0.22049,0.54807 0.0901,0.0901 0.036,0.16379 -0.12012,0.16379 -0.15615,0 -0.22164,0.23812 -0.14553,0.52916 0.15312,0.58551 -0.12611,0.73351 -0.3387,0.17953 z"
       id="path24830" />
    <path
       style="fill:#6e2b1a"
       d="m 220.87203,209.98021 c -0.32185,-0.97522 -0.79375,-1.43784 -0.79375,-0.77813 0,0.15411 -0.14296,0.19184 -0.3177,0.0839 -0.2472,-0.15279 -0.2472,-0.21985 0,-0.30225 0.17474,-0.0582 0.3177,-0.22207 0.3177,-0.36405 0,-0.14198 -0.11906,-0.18456 -0.26458,-0.0946 -0.33413,0.2065 -0.34743,-0.20678 -0.0175,-0.54239 0.1532,-0.15582 0.0502,-3.55694 -0.271,-8.94848 -0.45294,-7.60277 -0.5898,-8.86372 -1.08768,-10.02108 -0.41825,-0.97224 -0.79114,-1.41654 -1.4037,-1.67248 -1.04146,-0.43515 -1.40551,-0.8668 -1.61517,-1.91508 -0.13686,-0.68431 -0.0284,-0.9605 0.63954,-1.62843 0.44239,-0.44239 1.05754,-0.80435 1.36701,-0.80435 0.84043,0 2.0635,0.71587 2.25525,1.32002 0.22523,0.70963 0.3974,0.67446 1.28097,-0.26168 0.89535,-0.94862 1.9146,-1.03434 2.9176,-0.24538 1.01205,0.79608 0.96153,2.09253 -0.11691,2.99998 -0.44773,0.37674 -0.90487,0.68498 -1.01587,0.68498 -0.36788,0 -0.82243,1.3451 -1.11164,3.28962 -0.21816,1.46678 -0.18572,3.59761 0.13757,9.03826 0.23266,3.91544 0.41917,7.95243 0.41447,8.97108 -0.008,1.70571 -0.04,1.8105 -0.40618,1.32597 -0.21869,-0.28937 -0.30272,-0.55775 -0.18674,-0.59641 0.40688,-0.13563 -0.0414,-8.00561 -0.456,-8.00561 -0.1146,0 -0.28307,-0.29765 -0.37438,-0.66145 -0.0913,-0.36381 -0.28281,-0.66146 -0.42556,-0.66146 -0.14274,0 -0.25771,-0.20836 -0.25549,-0.46302 0.004,-0.40024 0.0428,-0.40921 0.28955,-0.0661 0.22466,0.31232 0.23887,0.28413 0.0667,-0.13229 -0.3627,-0.87719 -0.37378,-5.2513 -0.0139,-5.48012 0.23144,-0.14715 0.21967,-0.20139 -0.0444,-0.20437 -0.24978,-0.003 -0.30931,-0.20367 -0.19517,-0.65846 0.1169,-0.46577 0.068,-0.61751 -0.16975,-0.52641 -0.37936,0.14538 -0.36163,2.48567 0.0731,9.64748 0.28638,4.71815 0.44361,5.82084 0.83,5.82084 0.13715,0 0.1644,-0.13746 0.0606,-0.30547 -0.11403,-0.1845 -0.0729,-0.23383 0.10392,-0.12456 0.21835,0.13495 0.38315,3.34044 0.17173,3.34044 -0.0184,0 -0.19057,-0.47625 -0.38268,-1.05833 z"
       id="path24819" />
    <path
       style="fill:#6e2b1a"
       d="m 202.7088,232.12488 c 0.0263,-0.43283 0.16021,-0.59932 0.40611,-0.50501 0.23444,0.0899 0.31778,0.006 0.23092,-0.23218 -0.0748,-0.20509 0.21667,-0.74608 0.64761,-1.2022 0.63417,-0.67123 0.79181,-1.08254 0.82701,-2.1578 0.0239,-0.73067 0.12473,-1.27827 0.22404,-1.2169 0.0993,0.0614 0.24687,0.004 0.32791,-0.12683 0.17044,-0.27577 -2.27016,-0.53368 -5.13787,-0.54294 -1.84613,-0.006 -2.02599,-0.0576 -2.58182,-0.74132 -1.79706,-2.21049 -0.97137,-4.81438 1.92036,-6.05606 1.46902,-0.63079 4.37169,-0.56404 6.2328,0.14332 0.79207,0.30105 1.46989,0.54742 1.50627,0.54749 0.0364,8e-5 0.0661,-0.41624 0.0661,-0.92514 0,-1.26423 1.49976,-2.92808 3.00507,-3.33388 1.48982,-0.40161 3.70199,-0.10087 5.1816,0.70443 1.53574,0.83585 3.27408,2.41156 3.05375,2.76805 -0.092,0.14884 -0.0169,0.23791 0.16687,0.19792 0.18377,-0.04 0.74346,0.52261 1.24377,1.25022 l 0.90965,1.32291 -0.18452,-2.24896 c -0.25881,-3.15456 -1.10508,-6.88517 -2.1607,-9.525 -0.49463,-1.23692 -0.92185,-2.36802 -0.94939,-2.51354 -0.0275,-0.14552 -0.14959,-0.38364 -0.27124,-0.52916 -0.12165,-0.14552 -0.66408,-1.0085 -1.20541,-1.91774 -1.30518,-2.1922 -3.21435,-4.14743 -4.86796,-4.98538 -1.20492,-0.61058 -1.30301,-0.72355 -0.9418,-1.08476 0.36121,-0.36121 0.34866,-0.45774 -0.12055,-0.92694 -0.35319,-0.3532 -0.72454,-0.47335 -1.14038,-0.36898 -0.37326,0.0937 -0.66954,0.0244 -0.75068,-0.17551 -0.0932,-0.22951 -0.20073,-0.24367 -0.35262,-0.0464 -0.3512,0.45612 -1.14365,0.66452 -1.15267,0.30312 -0.004,-0.17733 -0.1315,-0.11032 -0.28238,0.14891 -0.57605,0.9897 -0.20934,1.32488 1.48105,1.35369 1.20387,0.0205 1.5875,0.12052 1.5875,0.41379 0,0.65807 -1.21432,1.15878 -2.03668,0.83979 -2.13862,-0.82954 -1.80502,-3.74006 0.42867,-3.74006 0.88242,0 3.13575,1.03336 3.85697,1.76877 0.3542,0.36118 0.33624,0.38656 -0.16711,0.23611 -0.37985,-0.11353 -0.61516,-0.0352 -0.72075,0.23997 -0.10925,0.28471 0.22209,0.64637 1.09315,1.19317 0.68745,0.43155 1.32058,0.8168 1.40695,0.85612 0.0864,0.0393 0.82479,0.96445 1.64095,2.05586 0.81615,1.0914 1.6459,2.17041 1.84388,2.39778 0.19798,0.22738 0.30645,0.58457 0.24106,0.79375 -0.0654,0.20919 -0.0212,0.28906 0.0981,0.1775 0.20735,-0.19381 1.04108,1.31129 0.95509,1.7242 -0.0227,0.10914 0.0905,0.19843 0.25156,0.19843 0.16109,0 0.22882,0.16696 0.15052,0.37101 -0.0783,0.20406 -0.0681,0.44525 0.0226,0.53599 0.0907,0.0907 0.20397,0.42045 0.25162,0.7327 0.0477,0.31225 0.18782,0.69614 0.31148,0.85308 0.25779,0.32717 0.74962,1.82516 0.91894,2.79889 0.40124,2.3073 0.82347,4.13498 1.00394,4.34567 0.11525,0.13455 0.1399,-0.16311 0.0548,-0.66146 -0.0851,-0.49834 -0.182,-1.23418 -0.21526,-1.63518 -0.0333,-0.40101 -0.13917,-0.8078 -0.23537,-0.904 -0.36735,-0.36735 -0.1518,-0.88045 0.36989,-0.88045 0.34442,0 0.47535,-0.11234 0.35599,-0.30546 -0.10919,-0.17668 -0.0733,-0.2341 0.0851,-0.1362 0.15063,0.0931 0.33042,0.46507 0.39953,0.82662 0.0691,0.36155 0.0252,0.59525 -0.0977,0.51934 -0.12284,-0.0759 -0.15243,0.0468 -0.0658,0.27259 0.0867,0.22584 0.27092,0.41061 0.40946,0.41061 0.13854,0 0.17831,0.11907 0.0884,0.26459 -0.0899,0.14552 -0.0228,0.26458 0.14907,0.26458 0.23295,0 0.22867,0.10112 -0.0168,0.39688 -0.22757,0.2742 -0.23758,0.39687 -0.0324,0.39687 0.16333,0 0.31262,0.20836 0.33175,0.46302 0.0191,0.25466 0.1309,-0.367 0.24839,-1.38147 0.13337,-1.15168 0.11549,-1.96271 -0.0476,-2.15925 -0.1748,-0.21063 -0.1601,-0.37727 0.0444,-0.50369 0.1972,-0.12188 0.21114,-0.24761 0.0393,-0.35429 -0.14651,-0.0909 -0.30805,-0.40349 -0.35898,-0.69453 -0.0744,-0.42533 0.0315,-0.51169 0.53983,-0.4401 0.48695,0.0686 0.59536,-0.007 0.47132,-0.33073 -0.0886,-0.23089 -0.0328,-0.41979 0.12388,-0.41979 0.17545,0 0.22001,-0.27962 0.11595,-0.72761 -0.10253,-0.44139 -0.0794,-0.5938 0.0589,-0.38744 0.15775,0.23544 0.33073,-0.003 0.56191,-0.77463 0.1837,-0.61312 0.51173,-1.38604 0.72897,-1.71758 0.21724,-0.33154 0.31815,-0.7271 0.22426,-0.87902 -0.0939,-0.15192 -0.0376,-0.27622 0.1251,-0.27622 0.1627,0 0.22852,-0.1089 0.14626,-0.24199 -0.0823,-0.13309 -0.0446,-0.28192 0.0836,-0.33073 0.12825,-0.0488 0.59329,-0.8058 1.03341,-1.6822 0.75592,-1.50523 3.22574,-4.53302 3.23181,-3.96193 0.002,0.14599 -0.35591,0.60403 -0.79437,1.01786 -1.7187,1.62218 -4.5791,7.52629 -5.46702,11.2844 -0.41468,1.75514 -0.88705,9.79027 -0.57553,9.78983 0.0944,-1.3e-4 0.43462,-0.50626 0.75593,-1.12472 2.11766,-4.07605 5.87604,-6.81302 9.35559,-6.81302 1.40345,0 3.26008,0.92464 3.74689,1.86604 0.45733,0.88437 0.51545,3.22537 0.0994,4.0028 -0.15966,0.29831 -0.18942,0.49276 -0.0661,0.43212 3.39269,-1.66908 5.04412,-2.03897 7.14025,-1.5993 2.86079,0.60006 10.48171,6.35137 5.435,10.01273 l -2.69383,1.95436 h -1.07395 c -0.74441,0 -1.01602,0.0937 -0.88516,0.30546 0.1042,0.1686 0.0737,0.23435 -0.068,0.14674 -0.14124,-0.0873 -0.72519,0.0182 -1.29765,0.23443 l -1.04083,0.39314 1.45024,-0.16024 c 0.79763,-0.0881 1.512,-0.24178 1.5875,-0.34145 0.15322,-0.20229 1.0633,-0.32067 1.0633,-0.13831 0,0.064 -0.40525,0.28572 -0.90056,0.49267 -0.66669,0.27856 -2.2536,0.38299 -6.11075,0.40213 -2.86561,0.0142 -5.26866,-0.0326 -5.34011,-0.10405 -0.0714,-0.0714 0.20784,-0.34773 0.62065,-0.61396 3.45963,-2.23119 2.41634,-6.11964 -1.74601,-6.50757 -3.61226,-0.33666 -7.35466,1.48865 -9.03477,4.40662 -0.42818,0.74365 -0.94767,1.57238 -1.15442,1.84161 -0.40381,0.52586 -0.94028,0.38582 -0.94028,-0.24545 0,-0.71246 -3.27917,-3.69448 -5.01827,-4.56352 -1.43351,-0.71633 -1.96883,-0.83992 -3.63808,-0.83992 -1.07648,0 -2.4747,0.1303 -3.10716,0.28955 -2.75872,0.69466 -3.52772,3.50505 -1.53162,5.59743 l 0.69413,0.7276 h -3.07057 c -1.68881,0 -3.24681,0.0676 -3.46221,0.15029 -0.28507,0.10939 -0.38096,-0.0254 -0.35237,-0.49541 z"
       id="path24743" />
  </g>
</svg>
