<?xml version="1.0" encoding="UTF-8" standalone="no"?>
<!-- Created with Inkscape (http://www.inkscape.org/) -->

<svg
   width="185"
   height="185"
   viewBox="0 0 48.947914 48.947918"
   version="1.1"
   id="svg1"
   xmlns="http://www.w3.org/2000/svg"
   xmlns:svg="http://www.w3.org/2000/svg">
  <defs
     id="defs1" />
  <g
     id="g26450"
     transform="matrix(0.81038169,0,0,0.81038169,-33.82333,-77.686155)">
    <path
       style="fill:#6b8a25"
       d="m 45.585583,156.08066 c -3.163668,-0.29947 -4.064964,-4.50361 -1.05939,-5.89568 1.406922,-0.34798 0.470376,-1.18949 -0.04577,-1.95295 -1.901374,-2.30423 0.535984,-5.40242 2.985929,-5.90785 2.546605,-0.65372 5.349488,-0.20836 7.611927,1.1137 1.224611,-1.59188 2.914614,-4.73658 5.895933,-4.06497 3.626481,0.10646 6.236999,3.13879 8.286981,5.79141 0.345577,1.77692 2.378502,1.4415 0.886103,-0.21453 -2.848396,-4.48923 -5.985113,-8.8682 -9.739992,-12.64515 -2.139059,-1.22501 -4.872341,-1.20652 -6.809913,-2.90493 -2.244734,-1.3343 -3.954721,-6.01407 -0.949775,-7.21412 2.019225,-0.12217 4.831834,1.29475 5.347094,-1.53784 2.151033,-2.4542 4.700658,1.16145 4.749007,3.37823 0.282644,2.14124 -0.364785,4.2434 -0.709471,6.33959 3.392911,3.37424 6.106172,7.33451 8.869863,11.2198 -0.150874,-5.37956 0.0553,-10.79059 -0.507703,-16.14202 -2.185129,-2.05509 -5.705562,-2.82952 -6.774823,-5.94917 -1.303991,-1.92308 -1.094732,-5.6952 1.902768,-5.46131 0.993747,-0.32705 3.109031,1.94304 3.344561,0.94901 -0.263205,-1.98673 0.791815,-4.51506 3.130962,-4.35025 2.662775,-0.10996 2.423274,4.35486 3.615913,4.65131 1.849419,-2.399 6.062416,-1.13417 5.201174,2.15931 -0.35165,4.05247 -4.227283,6.17494 -7.529072,7.69391 -0.10926,3.9039 0.0085,7.9696 0.02435,11.92509 0.0339,1.46611 -0.28873,6.4828 1.572347,3.03482 1.145401,-2.13656 3.649271,-3.68511 4.22358,-5.96237 -0.869198,-2.67293 -0.528086,-5.96892 1.169309,-8.25559 1.603311,-2.18669 5.102987,-0.82791 5.040676,1.83869 -0.0045,2.54828 4.117826,-1.49535 5.667008,0.74626 2.039235,2.16877 -0.628087,5.03327 -2.595486,6.134 -2.095055,1.21971 -4.522936,1.79264 -6.931706,1.8853 -2.397647,1.41969 -3.936496,3.93498 -5.637551,6.0935 -0.506205,0.76462 -2.735779,3.60728 -1.525513,3.67034 2.533912,-3.38768 6.199799,-6.92974 10.777776,-6.51505 2.112647,0.003 2.71223,2.54986 3.742101,3.42059 3.02814,-1.56436 7.316446,-1.62569 9.589082,1.25874 1.942559,1.96964 -1.723371,4.72933 1.537085,5.67958 2.696104,1.97235 0.838454,6.48429 -2.455325,5.98742 -16.172597,0.31338 -32.351876,0.12904 -48.52665,0.0676 -1.124294,-0.0192 -2.250197,-0.009 -3.373388,-0.0644 z"
       id="path26220" />
    <path
       style="fill:#537115"
       d="m 71.644723,119.8835 c -0.885342,-2.26253 -3.43859,-4.1778 -2.648121,-6.83855 1.237841,-1.25982 2.851644,0.009 2.811332,1.55433 1.626728,-1.07069 1.645881,2.38202 2.402719,0.9971 -0.674333,1.27731 -0.959006,4.3771 -2.326468,4.7554 z"
       id="path25420" />
    <path
       style="fill:#537115"
       d="m 78.977046,133.69243 c -0.352043,-2.68329 -0.375643,-5.88618 1.523023,-8.03768 2.10313,-2.4001 5.553427,0.392 4.490128,3.05518 -1.33711,2.02776 -3.753389,3.14018 -5.076598,5.23531 -0.51417,-1.18143 -0.367553,-1.0453 -0.833481,-0.0206 z"
       id="path25370" />
    <path
       style="fill:#537115"
       d="m 45.623464,155.9769 c -3.429616,-0.22335 -3.903553,-4.73344 -0.825847,-5.94583 1.473907,-1.3213 -2.458605,-3.32579 -0.545064,-5.30039 1.724454,-2.89478 5.592717,-2.99959 8.503273,-2.2586 1.29084,0.23022 3.419285,2.56374 3.217903,-0.12304 1.372136,-3.57188 6.21097,-3.7158 8.870491,-1.59662 2.561863,1.19104 3.705003,4.52857 5.872924,5.66244 -0.347063,-2.01348 -2.230052,-3.90836 -3.34337,-5.76147 -2.320999,-2.9281 -4.358618,-6.18778 -7.279372,-8.56307 -2.023998,-1.03719 -4.513151,-1.05658 -6.32341,-2.59339 -1.747753,-0.95392 -2.880858,-3.92627 -2.644577,-5.15204 0.36159,3.14439 2.763713,5.65636 5.816988,6.35163 1.239817,0.008 4.838833,2.07279 4.881803,0.24916 -0.03645,-3.29366 -2.378822,-6.13304 -5.014928,-7.86667 0.460192,-1.9611 2.582059,-4.70305 4.594535,-2.17509 1.773789,2.39562 1.420546,5.67547 0.746674,8.40763 0.458159,2.31555 2.612026,4.13088 3.902982,5.83274 1.780057,1.91015 3.053806,4.22395 4.722623,6.20861 0.115027,-4.97884 0.113244,-9.96912 -0.06541,-14.9463 -0.723429,-3.03647 -4.942971,-2.9238 -6.303183,-5.62079 -0.513739,-0.64465 -1.851103,-3.43911 -1.210126,-3.34579 0.716358,2.62404 2.506607,4.95295 5.072225,5.97682 2.328502,1.50928 5.318509,1.00452 7.781599,0.18258 -0.572454,1.06707 -2.88871,0.79272 -2.817653,2.13482 0.07091,5.32649 -0.194022,10.67643 0.251872,15.98343 1.631955,-1.74372 2.863933,-3.86124 4.609296,-5.53137 0.743284,-0.75061 2.044461,-2.66385 1.756756,-0.41968 0.36798,1.04019 3.394453,-0.11476 4.981411,-0.15416 2.593011,-0.69315 5.401739,-1.98865 6.544513,-4.58458 -0.689097,2.85692 -3.841699,4.11267 -6.390591,4.87656 -2.66564,0.16236 -4.949302,1.04041 -6.752389,3.0189 -0.0021,0.54259 -2.047486,2.95285 -3.054453,4.52969 -0.751611,0.65789 -2.162011,4.33494 -0.286406,2.1011 2.430557,-3.14108 5.992207,-6.26305 10.260931,-5.68108 2.348872,-0.14874 3.553485,3.16328 2.42057,4.22345 2.897891,-2.36156 7.758157,-2.82969 10.526731,-0.0551 2.355145,1.74064 -1.331594,4.76934 1.239882,5.71211 1.846223,1.00207 2.841863,4.14957 0.721713,5.39584 -0.959576,0.95368 -3.167703,0.89644 -0.766441,0.2129 2.275181,-0.0437 1.506791,-4.71263 0.879831,-4.04068 1.61085,2.63159 -1.715602,3.96767 -3.516339,4.00324 -1.035834,0.0478 -2.895122,0.92173 -0.616904,0.57694 2.57239,0.20817 -1.963537,0.24758 -2.891425,0.24758 -15.755593,0.0833 -31.516258,0.17346 -47.269278,-0.14559 l -0.260349,-0.0269 z"
       id="path25315" />
    <path
       style="fill:#225500"
       d="m 80.076406,150.36158 c 0.822493,-0.84106 4.323244,-2.42609 1.580384,-0.77683 -0.469915,0.22436 -1.152952,0.82083 -1.580384,0.77683 z"
       id="path24960" />
    <path
       style="fill:#415b0d"
       d="m 80.000727,140.89272 c 0.869814,-0.68505 4.645972,-1.39254 1.897734,-0.44094 -0.609326,0.15306 -1.277137,0.52545 -1.897734,0.44094 z"
       id="path24569" />
    <path
       style="fill:#415b0d"
       d="m 65.184632,141.22071 c -1.096473,-1.06984 -3.269417,-1.21156 -4.235093,-1.86684 1.099033,-0.22393 5.018302,1.65637 4.235093,1.86684 z"
       id="path24567" />
    <path
       style="fill:#415b0d"
       d="m 87.48829,141.51928 c -0.740446,-1.16441 1.38174,1.34882 0,0 z"
       id="path24563" />
    <path
       style="fill:#415b0d"
       d="m 66.076044,138.87685 c -1.822494,-2.54071 -3.988293,-4.82145 -5.972731,-7.2133 3.335622,3.03377 6.015885,6.74447 8.681559,10.36973 0.194546,0.87486 -2.371313,-2.81509 -2.708828,-3.15643 z"
       id="path24559" />
    <path
       style="fill:#415b0d"
       d="m 55.790684,143.22853 c -0.314081,-1.41845 2.603756,-4.04093 2.810572,-3.17515 -1.562615,0.19207 -2.146243,2.46783 -2.810572,3.17515 z"
       id="path24558" />
    <path
       style="fill:#415b0d"
       d="m 77.129216,143.00644 c 0.5505,-0.78415 3.358567,-2.48907 1.292128,-0.7351 -0.350367,0.39685 -2.770403,2.30777 -1.292128,0.7351 z"
       id="path24557" />
    <path
       style="fill:#415b0d"
       d="m 75.601989,144.77511 c 1.32652,-1.61395 0.35561,0.58365 -0.33219,0.43287 z"
       id="path24553" />
    <path
       style="fill:#415b0d"
       d="m 68.736623,144.90897 c -0.933648,-0.87032 -3.649101,-4.4762 -1.203305,-1.82925 0.263165,0.22066 2.570061,2.99208 1.203305,1.82925 z"
       id="path24552" />
    <path
       style="fill:#415b0d"
       d="m 72.092364,135.31811 c -0.519308,-0.2423 0.208315,1.17163 0,0 z"
       id="path24547" />
    <path
       style="fill:#415b0d"
       d="m 71.640054,129.41459 c -0.929869,-1.17459 0.834636,-2.58887 0.470007,-1.61068 -0.264831,-0.31498 0.916914,2.13815 -0.123915,1.04541 -0.127363,-0.0513 -0.186977,0.85455 -0.346092,0.56527 z"
       id="path24546" />
    <path
       style="fill:#415b0d"
       d="m 72.944112,133.58178 c -0.07787,-2.52749 0.105691,-5.12783 -0.39673,-7.60126 -0.258144,2.14717 -0.54808,-0.4501 -1.462874,-0.77864 -0.128299,2.24365 0.115262,4.6939 0.105403,7.01856 0.03982,1.29054 0.323285,4.39969 0.646277,1.62913 0.843818,1.41913 0.742027,6.38871 1.079417,1.86113 0.02044,-0.70944 0.0284,-1.4192 0.02851,-2.12892 z"
       id="path24545" />
    <path
       style="fill:#415b0d"
       d="m 67.41959,149.4803 c 1.091889,-0.95246 2.076906,-2.75337 1.956851,-3.6117 2.028633,2.1925 1.34388,-0.80851 0.353367,-1.83638 -0.989316,-1.39578 -0.419058,-2.3378 0.0921,-2.72804 -1.711766,-0.65281 0.777471,-0.0979 -0.445897,-1.22055 -1.47188,-2.2536 -3.179218,-4.39155 -4.872718,-6.43574 -0.797982,-0.78924 -2.8079,-2.95487 -2.454364,-3.30724 2.966405,3.43479 5.985129,6.91177 8.295697,10.85083 0.763336,1.87083 0.596592,-2.31606 0.610004,-3.09537 -0.0996,-4.09536 0.07886,-8.23512 -0.363793,-12.30039 -0.536894,-1.01771 -2.333015,-2.44363 -0.271568,-1.15494 1.788131,-0.37391 3.680866,0.093 5.341017,-0.84548 -0.59019,0.91653 -2.734971,0.70264 -2.425743,2.08536 0.0311,5.45509 -0.08845,10.91611 0.126668,16.36624 1.919774,-2.61607 3.793319,-5.34529 6.223331,-7.51525 -1.978873,2.87664 -5.168752,5.22231 -5.73987,8.84445 0.04112,0.42825 2.800579,-2.48475 3.383397,-3.43115 1.523002,-1.46787 2.676601,-4.30475 5.173865,-3.89463 -2.652682,0.49298 -4.047036,3.17952 -5.718694,5.04815 -1.428292,1.37189 -2.144121,2.49474 -2.840761,4.26127 0.327661,-3.14911 -1.071896,2.36608 1.002163,0.80217 0.08238,1.08939 3.081118,2.3685 0.425715,1.18499 -2.334236,-0.98435 -4.961287,-0.43052 -6.860535,1.19345 -0.298044,0.0428 -0.762343,1.02551 -0.990233,0.73995 z"
       id="path24544" />
    <path
       style="fill:#415b0d"
       d="m 62.254332,149.10185 c -1.278745,-0.5821 -2.214352,-1.50115 -0.225354,-0.48589 1.123842,0.28444 3.280678,2.30398 0.954144,0.88629 l -0.33878,-0.18606 z"
       id="path24541" />
    <path
       style="fill:#415b0d"
       d="m 91.358497,149.26353 c -1.337577,-1.63606 -3.57253,-1.86108 -5.523088,-1.57698 1.139014,-1.6962 1.805618,-4.16592 4.007564,-4.91248 2.577544,-1.02081 5.886674,-0.82724 8.034412,1.02493 1.553311,1.25673 1.48092,5.41394 -1.158595,4.75343 -1.464902,-0.0969 -5.44163,-0.37149 -4.295394,1.80498 -0.384168,-0.33544 -0.71379,-0.72576 -1.064899,-1.09388 z"
       id="path24540" />
    <path
       style="fill:#415b0d"
       d="m 99.535441,150.14686 c -0.951246,-1.50716 1.792359,1.65194 0,0 z"
       id="path24537" />
    <path
       style="fill:#415b0d"
       d="m 51.539697,150.42508 c -1.832796,-2.02499 -5.470803,0.23642 -7.032199,-2.20676 -1.646174,-2.11107 0.113569,-4.97859 2.400514,-5.64702 2.949446,-1.17157 6.33484,-0.22993 8.848629,1.51026 -0.243669,1.37752 2.557517,3.16307 1.923104,3.46212 -2.316703,0.11163 -4.87288,1.29309 -6.140048,2.8814 z"
       id="path24535" />
    <path
       style="fill:#3a5609"
       d="m 61.014098,139.42035 c 1.17662,-0.19424 -0.149497,0.48231 0,10e-6 z"
       id="path24203" />
  </g>
</svg>
