<?xml version="1.0" encoding="UTF-8" standalone="no"?>
<!-- Created with Inkscape (http://www.inkscape.org/) -->

<svg
   width="185"
   height="185"
   viewBox="0 0 48.947914 48.947918"
   version="1.1"
   id="svg1"
   xmlns="http://www.w3.org/2000/svg"
   xmlns:svg="http://www.w3.org/2000/svg">
  <defs
     id="defs1" />
  <g
     id="g26444"
     transform="matrix(0.7904181,0,0,0.7904181,25.577217,-16.218774)">
    <g
       id="g26445"
       transform="matrix(1.023245,0,0,1.023245,-75.086456,-1.3803441)">
      <path
         style="fill:#6b8a25"
         d="m 46.11475,81.486623 c -2.443135,-0.750469 -3.836459,-2.322776 -3.836459,-4.329281 0,-0.924745 0.759653,-2.556903 1.502867,-3.228997 0.728094,-0.658421 2.970633,-1.597445 3.411204,-1.428382 0.524228,0.201166 0.479854,0.0401 -0.323326,-1.173588 -1.597641,-2.414198 -0.908308,-4.937994 1.759255,-6.441014 1.267186,-0.713987 1.711603,-0.820116 3.439583,-0.821389 1.091406,-8.04e-4 2.371328,0.09729 2.844271,0.217998 0.818522,0.208901 0.860175,0.18344 0.865706,-0.529166 0.0085,-1.098146 0.858408,-2.787209 1.801902,-3.581106 1.768719,-1.48828 4.100522,-1.608408 6.843638,-0.352568 1.74901,0.800723 1.667399,0.791449 1.667399,0.189471 0,-1.83089 1.953202,-4.777714 3.631552,-5.478973 2.132334,-0.890946 4.881538,-0.307944 6.473163,1.372714 0.826849,0.873102 1.787319,2.867291 1.795724,3.728398 0.0072,0.73647 0.265883,0.743349 1.637613,0.04354 2.230494,-1.137913 5.677278,-0.82977 7.048817,0.630166 0.672791,0.716154 1.373547,2.327969 1.373547,3.15931 0,0.598246 0.04997,0.608782 2.863635,0.60381 2.72361,-0.0048 2.927377,0.0339 4.167188,0.791767 2.4117,1.474208 3.092206,4.133011 1.727798,6.750683 l -0.518346,0.99447 1.562388,0.569676 c 2.788541,1.016751 4.163371,2.76658 3.811241,4.850793 -0.22905,1.355742 -1.14935,2.376367 -2.826028,3.134112 l -1.395168,0.630522 -25.003124,0.0517 c -21.83381,0.04515 -25.170812,1.89e-4 -26.32604,-0.354668 z"
         id="path26230" />
      <path
         style="fill:#537115"
         d="m 72.655764,54.224479 c 0.190996,-0.07643 0.419199,-0.06703 0.507118,0.02089 0.08792,0.08792 -0.06835,0.150453 -0.347266,0.138964 -0.308224,-0.0127 -0.370919,-0.07539 -0.159852,-0.159852 z"
         id="path25531" />
      <path
         style="fill:#537115"
         d="m 69.927248,54.527955 c 0.436563,-0.199898 0.972344,-0.359764 1.190625,-0.355256 0.218281,0.0045 -0.01984,0.168672 -0.529166,0.364812 -1.208008,0.465202 -1.683295,0.458336 -0.661459,-0.0096 z"
         id="path25528" />
      <path
         style="fill:#537115"
         d="m 67.624801,56.386634 c 0.280345,-0.554448 1.376406,-1.651215 1.376406,-1.377293 0,0.08633 -0.37023,0.55127 -0.822733,1.033194 -0.452502,0.481924 -0.701655,0.636769 -0.553673,0.344099 z"
         id="path25522" />
      <path
         style="fill:#537115"
         d="m 76.568835,56.937891 c -0.421711,-0.619173 -1.099806,-1.349617 -1.50688,-1.623209 -0.407073,-0.273592 -0.69397,-0.543603 -0.637549,-0.600023 0.232271,-0.232272 1.795864,1.143297 2.415739,2.125243 0.901114,1.427456 0.686873,1.504834 -0.27131,0.09799 z"
         id="path25519" />
      <path
         style="fill:#537115"
         d="m 48.515239,67.665515 c -0.08809,-0.142532 -0.03916,-0.333934 0.108736,-0.425337 0.147895,-0.0914 0.277268,-0.06987 0.287496,0.04786 0.01023,0.117729 0.120922,-0.02407 0.245987,-0.315114 0.174951,-0.407134 0.231679,-0.429859 0.245987,-0.09854 0.02336,0.540986 -0.664271,1.153465 -0.888206,0.791131 z"
         id="path25498" />
      <path
         style="fill:#537115"
         d="m 71.605664,71.404697 c -0.02276,-0.400182 -0.05252,-1.174108 -0.06615,-1.719835 -0.01362,-0.545728 -0.106667,-0.992212 -0.206764,-0.992188 -0.100096,2.4e-5 -0.164513,-0.232011 -0.143149,-0.515634 0.02786,-0.369879 0.128763,-0.441053 0.356876,-0.251735 0.213016,0.176787 0.37553,0.170908 0.492161,-0.0178 0.09577,-0.15496 0.274795,-0.219531 0.397832,-0.143491 0.123037,0.07604 0.353647,-0.189907 0.512467,-0.590996 l 0.288764,-0.729253 -0.153437,0.79375 c -0.08439,0.436563 -0.264438,0.833685 -0.400106,0.882494 -0.135668,0.04881 -0.179369,0.197637 -0.09711,0.330729 0.08226,0.133092 -0.0063,0.243809 -0.196789,0.246037 -0.251669,0.0029 -0.237856,0.07416 0.05053,0.260532 0.352778,0.227982 0.352778,0.260412 0,0.291864 -0.218281,0.01946 -0.495022,0.01833 -0.614979,-0.0025 -0.119957,-0.02084 -0.141496,0.08607 -0.04786,0.237567 0.09363,0.1515 0.281076,0.206954 0.416542,0.123232 0.275649,-0.17036 0.324526,1.015358 0.07954,1.929528 -0.221008,0.824686 -0.618417,0.746026 -0.668363,-0.132292 z"
         id="path25490" />
      <path
         style="fill:#537115"
         d="m 46.021642,81.420902 c -1.800854,-0.628623 -2.694145,-1.286979 -3.294763,-2.428242 -0.626374,-1.190203 -0.456659,-2.850442 0.428041,-4.187314 0.759896,-1.14828 2.706163,-2.23538 3.939297,-2.200319 0.755578,0.02148 0.768035,0.0026 0.36656,-0.555973 -0.859512,-1.195816 -0.952995,-1.602565 -0.163296,-0.710502 0.450879,0.509323 0.801593,0.747448 0.779363,0.529166 -0.02223,-0.218281 -0.02631,-1.202875 -0.0091,-2.187987 0.03092,-1.766798 0.04046,-1.789459 0.702571,-1.669396 0.570481,0.103448 0.694577,0.0049 0.826823,-0.656283 0.08558,-0.4279 0.289545,-0.786368 0.453256,-0.796596 0.163711,-0.01023 0.05953,-0.120923 -0.23151,-0.245987 -0.439618,-0.188911 -0.372456,-0.235494 0.396875,-0.275274 0.509323,-0.02634 1.184466,-0.02742 1.500317,-0.0024 0.58718,0.04649 0.672884,-0.321887 0.2373,-1.01996 -0.158789,-0.254476 -0.135594,-0.312102 0.07359,-0.182822 0.182412,0.112737 0.305464,0.01779 0.305464,-0.235692 0,-0.345151 -0.185425,-0.391859 -0.992188,-0.249933 -2.085013,0.366795 -4.564062,1.810568 -4.564062,2.658063 0,0.184326 -0.119063,0.408724 -0.264583,0.498661 -0.563051,0.347984 -0.224585,-0.424019 0.595312,-1.357842 1.804132,-2.054817 4.432133,-2.568684 8.381559,-1.638888 0.262152,0.06172 0.377386,-0.220148 0.404384,-0.989131 0.04956,-1.411485 0.82901,-2.698956 2.229982,-3.683393 0.998488,-0.701618 1.349449,-0.795689 2.921471,-0.783061 1.377763,0.01107 2.11612,0.175544 3.226246,0.718678 1.72727,0.845075 4.375021,3.310355 5.322299,4.955512 0.638216,1.108403 1.316391,3.921023 1.671331,6.931577 0.237209,2.01198 1.226345,1.069291 1.581902,-1.507619 0.217961,-1.579676 1.152019,-4.589616 1.845329,-5.946451 1.330721,-2.604273 5.29561,-5.29834 7.797625,-5.29834 1.569042,0 3.223889,0.589803 4.092799,1.458713 0.892738,0.892738 1.654659,2.968394 1.365871,3.720963 -0.125367,0.326701 -0.05747,0.393417 0.271793,0.267067 0.95369,-0.365965 4.233535,-0.471224 5.337681,-0.1713 1.209073,0.328425 3.757833,2.50909 3.750361,3.208728 -0.0034,0.317721 -0.04573,0.314876 -0.260531,-0.0175 -0.177809,-0.275138 -0.248082,0.171229 -0.229101,1.455208 l 0.02738,1.852083 0.359954,-1.322916 0.359955,-1.322917 -0.147223,1.322917 c -0.08097,0.727604 -0.376159,1.716675 -0.655969,2.197936 -0.27981,0.48126 -0.508745,0.911792 -0.508745,0.956736 0,0.04494 0.711668,0.341203 1.581484,0.658354 1.979756,0.721855 3.001414,1.570261 3.553994,2.951298 0.80888,2.021583 -0.1742,3.967223 -2.546079,5.03902 l -1.398774,0.632072 -25.003124,0.0628 c -23.824233,0.05984 -25.069889,0.03949 -26.419148,-0.431491 z"
         id="path25442" />
      <path
         style="fill:#415b0d"
         d="m 46.705952,81.634004 c -3.755186,-0.884711 -5.254119,-3.390441 -3.774661,-6.31001 0.476169,-0.939675 0.822767,-1.33757 1.079359,-1.239107 0.208773,0.08011 0.349772,0.0052 0.314988,-0.167378 -0.08769,-0.435048 1.618515,-1.255133 2.612364,-1.25563 0.553504,-2.76e-4 1.463788,0.435632 2.778125,1.330361 1.327159,0.903458 2.677017,1.547465 4.20383,2.005613 3.696388,1.10917 4.349018,1.38791 7.054481,3.012988 1.424884,0.855878 2.612857,1.533573 2.63994,1.505989 0.136113,-0.138633 -0.407196,-2.386334 -0.611488,-2.529765 -0.130216,-0.09142 -0.632214,-0.7913 -1.115551,-1.555284 -0.483337,-0.763985 -0.97156,-1.389063 -1.084938,-1.389063 -0.113379,0 -0.265368,-0.226476 -0.337754,-0.503279 -0.07238,-0.276804 -0.979241,-1.119794 -2.015233,-1.873312 -1.88778,-1.373055 -2.359412,-2.121325 -1.337063,-2.121325 0.716521,0 1.403155,0.367695 3.102678,1.661498 1.278018,0.97292 3.661799,3.565206 4.27118,4.64477 0.199173,0.352851 0.315227,0.374735 0.582687,0.109877 0.208477,-0.206449 0.226756,-0.330729 0.04864,-0.330729 -0.156934,0 -0.481073,-0.77924 -0.720309,-1.731645 -1.004516,-3.998997 -3.001702,-7.004438 -5.962711,-8.972913 -2.554365,-1.698139 -2.724654,-1.893314 -2.519828,-2.888069 0.517042,-2.511052 3.164915,-4.35608 5.769207,-4.019962 1.876194,0.242148 3.72586,1.248374 5.551298,3.019928 2.513531,2.439336 3.024352,3.582532 3.744549,8.380147 0.213124,1.419731 0.447475,2.641306 0.52078,2.714612 0.307087,0.307086 1.191574,-1.221548 1.344078,-2.322931 0.277532,-2.004337 1.223206,-5.079317 2.054213,-6.679541 0.901529,-1.736023 2.942923,-3.622148 4.870614,-4.500155 1.87349,-0.853319 4.358976,-0.795435 5.952846,0.138634 2.215054,1.298108 3.122755,4.955646 1.229857,4.955646 -0.964558,0 -3.588905,2.382138 -4.955254,4.497916 -1.777861,2.753003 -2.904243,5.818669 -2.423616,6.59634 0.178918,0.289495 0.544276,0.03178 1.613522,-1.138146 1.614296,-1.766297 4.682525,-3.597303 6.036921,-3.602613 0.796018,-0.0031 0.853558,0.04317 0.533293,0.42907 -0.19745,0.237912 -1.562087,1.239752 -3.032528,2.226309 -3.359506,2.253983 -4.155663,3.135116 -3.78737,4.191603 0.256128,0.73473 0.300928,0.751374 1.374327,0.510615 0.610263,-0.13688 2.916327,-0.767299 5.124586,-1.400931 3.823107,-1.096993 5.673476,-1.905038 6.837301,-2.985811 0.288621,-0.268024 0.88886,-0.70188 1.333865,-0.964125 0.792107,-0.466795 0.842121,-0.463422 2.38125,0.160568 0.864682,0.350558 1.543812,0.77516 1.509177,0.943561 -0.03463,0.1684 0.09194,0.246737 0.281278,0.174082 0.852698,-0.327211 2.162098,2.474467 1.779668,3.807905 -0.38469,1.341353 -0.78775,1.865698 -1.963997,2.555024 -1.664044,0.975194 -3.930743,1.179077 -13.212,1.188379 l -8.15094,0.0082 0.411878,-0.588038 c 0.618833,-0.883508 0.547035,-3.552657 -0.125225,-4.6553 -0.726884,-1.19224 -2.965262,-2.205831 -4.966912,-2.249137 -2.926044,-0.0633 -6.761129,2.407788 -7.484635,4.822638 -0.368497,1.229933 -0.155041,2.319618 0.487268,2.487488 0.888534,0.232222 -18.860122,0.12722 -19.848039,-0.105531 z"
         id="path24649" />
    </g>
  </g>
</svg>
