<?xml version="1.0" encoding="UTF-8" standalone="no"?>
<!-- Created with Inkscape (http://www.inkscape.org/) -->

<svg
   width="185"
   height="185"
   viewBox="0 0 48.947914 48.947918"
   version="1.1"
   id="svg1"
   xmlns="http://www.w3.org/2000/svg"
   xmlns:svg="http://www.w3.org/2000/svg">
  <defs
     id="defs1" />
  <g
     id="g28441"
     transform="matrix(0.73334146,0,0,0.73334146,18.852049,-11.751846)">
    <path
       style="fill:#d3c699"
       d="M 18.507062,82.233706 C 18.230184,81.900778 18.112514,80.279981 18.011644,75.4098 l -0.132292,-6.387269 -1.38251,-2.841874 c -0.76038,-1.56303 -2.060874,-4.058444 -2.889985,-5.545364 -2.954427,-5.298437 -3.283482,-6.275365 -2.11371,-6.275365 1.102868,0 4.02628,3.613292 6.132469,7.579637 l 0.681772,1.283905 -0.169108,-5.953125 c -0.168708,-5.939039 -0.170954,-5.956596 -0.9495,-7.420098 -0.429216,-0.806835 -1.450594,-2.354647 -2.269729,-3.439583 -2.461718,-3.260518 -3.800914,-5.307228 -3.641441,-5.565261 0.508312,-0.822466 2.902243,0.444703 4.69759,2.486555 0.279003,0.317311 0.910872,1.044845 1.404153,1.616741 l 0.896874,1.039812 v -6.957635 -6.957635 l -0.595312,0.144727 c -0.327422,0.0796 -1.050401,0.261476 -1.606619,0.404168 -2.498374,0.640933 -5.26699,-2.599332 -4.5754,-5.354845 0.09344,-0.372284 0.66928,-1.011693 1.305058,-1.44912 1.024881,-0.705136 1.127393,-0.872305 1.032639,-1.683942 -0.141067,-1.208341 0.802219,-3.162682 1.948505,-4.036997 0.496996,-0.379077 0.903629,-0.873152 0.903629,-1.097944 0,-0.224791 0.25212,-0.762781 0.560266,-1.195532 1.492887,-2.096567 4.064098,-1.248621 4.51682,1.489578 0.04727,0.285924 0.501847,0.800043 1.010162,1.142487 1.161673,0.782602 1.564389,1.499642 1.576293,2.806609 0.0081,0.890389 0.192484,1.202188 1.365538,2.309293 l 1.356162,1.279918 -0.122069,1.471992 c -0.149286,1.800191 -0.737894,2.661095 -2.479592,3.626679 -1.474379,0.817384 -2.631646,0.924084 -3.491375,0.321906 l -0.588038,-0.411878 -0.0093,5.240524 c -0.0051,2.882288 -0.06298,7.145523 -0.128568,9.473856 l -0.119246,4.233334 0.635573,-1.771775 c 1.118641,-3.118414 3.433379,-6.996577 4.925288,-8.251935 2.442069,-2.054866 2.029504,0.21703 -1.339785,7.377876 -3.853614,8.190195 -3.863942,8.23363 -4.089404,17.197916 -0.106141,4.220104 -0.105524,7.587655 0.0014,7.483447 0.106895,-0.104208 0.700716,-1.313681 1.319604,-2.687719 1.355662,-3.009805 2.595419,-4.922114 4.223395,-6.514532 2.439404,-2.386124 2.017859,0.226274 -1.012024,6.271711 -1.654,3.300176 -3.677477,8.040816 -4.522113,10.594488 -0.728952,2.203916 -1.092088,2.562043 -1.770598,1.746175 z"
       id="path28434" />
    <path
       style="fill:#d3c699"
       d="m -3.1268558,82.303446 c -0.536602,-0.571187 -0.5573323,-0.843889 -0.5573323,-7.331561 0,-4.960093 -0.097414,-7.085181 -0.3691372,-8.052739 -0.3653887,-1.301082 -2.8393767,-7.066114 -5.9162367,-13.78636 -1.983784,-4.33283 -2.330388,-5.344183 -1.958852,-5.715718 1.093258,-1.093259 5.2351889,5.004101 7.0495043,10.377617 l 0.5790426,1.714969 0.04632,-10.678342 0.04632,-10.678342 -0.8629596,0.214014 c -1.0520136,0.260898 -2.4821213,0.279379 -3.3922516,0.04384 -1.1354812,-0.293865 -2.3846817,-2.114475 -2.5426427,-3.7057 -0.183294,-1.846423 0.20942,-2.764715 1.3940195,-3.259673 0.8331805,-0.348125 0.9377235,-0.4906 0.8157141,-1.111681 -0.2336426,-1.189345 0.5506255,-3.114807 1.5467083,-3.797334 0.4966357,-0.3403 1.148045,-1.169884 1.4871848,-1.893961 0.7028263,-1.500563 1.3503876,-2.032545 2.4741411,-2.032545 1.0776121,0 1.9449367,0.647875 2.48641427,1.857304 0.24462687,0.546392 0.83133148,1.318704 1.30378802,1.71625 1.17559311,0.989197 1.63375571,1.981816 1.63375571,3.539568 0,1.254743 0.053997,1.354833 1.1155235,2.067762 1.9581772,1.315128 2.0559653,3.80194 0.2149071,5.465226 -1.3898007,1.255601 -2.93557413,1.670742 -4.2696838,1.146689 -0.5482063,-0.215341 -1.0636405,-0.324628 -1.1454093,-0.242859 -0.081769,0.08177 -0.1432069,4.028123 -0.1365291,8.769677 l 0.012142,8.621006 0.7483255,-1.616271 c 1.63693476,-3.535534 5.2176086,-7.943727 6.2745969,-7.724701 0.9997361,0.207163 0.9125409,0.421488 -4.01553807,9.870139 l -2.62194703,5.027083 -0.00642,2.116667 c -0.00353,1.164166 0.025898,4.021666 0.065402,6.349999 l 0.071824,4.233333 1.39357305,-2.645833 C 1.7030346,67.618894 3.0967213,65.620733 4.8661992,63.95107 c 1.5433441,-1.456286 1.9523335,-1.642413 2.1986286,-1.000579 0.2382479,0.620864 -0.6272683,2.559645 -3.0584665,6.851051 -3.10669148,5.483747 -4.66027824,8.686755 -5.2975251,10.921834 -0.2962942,1.039222 -0.7051364,1.953356 -0.9085382,2.031409 -0.2034018,0.07805 -0.620621,-0.12505 -0.9271538,-0.451339 z"
       id="path28433" />
    <path
       style="fill:#cfbe90"
       d="m 21.198932,32.015714 c -0.820407,-0.873283 -2.17732,-1.12336 -3.27026,-0.602704 -2.030036,0.96707 -3.356611,1.234694 -3.356611,0.677164 0,-0.152045 -0.178594,-0.207914 -0.396875,-0.124151 -0.218281,0.08376 -0.396875,0.04003 -0.396875,-0.09719 0,-0.137217 -0.370868,-0.441268 -0.824151,-0.67567 -0.606059,-0.313405 -0.74609,-0.504246 -0.529167,-0.72117 0.415773,-0.415772 0.366281,-0.718317 -0.117505,-0.718317 -0.244421,0 -0.335569,0.124461 -0.223703,0.305463 0.114628,0.185472 0.07282,0.233793 -0.106429,0.123011 -0.508191,-0.31408 -0.686716,-1.984882 -0.266011,-2.489577 0.20743,-0.248841 0.510337,-0.765945 0.673127,-1.149119 0.162789,-0.383173 0.655747,-0.855927 1.095462,-1.050564 0.772816,-0.342082 1.276129,-1.312857 0.952315,-1.836799 -0.0858,-0.138828 0.08212,-0.252415 0.373165,-0.252415 0.636209,0 0.955666,-0.417169 0.523832,-0.684056 -0.187354,-0.115792 -0.239082,-0.07706 -0.130889,0.098 0.107692,0.174248 -0.02152,0.274355 -0.324647,0.251521 -0.342948,-0.02583 -0.492439,-0.223583 -0.468739,-0.620057 0.01914,-0.320169 0.124095,-0.526993 0.233236,-0.459608 0.175786,0.108532 0.298729,-0.268634 0.240271,-0.737105 -0.01146,-0.09181 0.240282,-0.38947 0.55942,-0.661458 0.326621,-0.278365 0.444088,-0.316918 0.268739,-0.0882 -0.253867,0.331135 -0.221135,0.406324 0.176887,0.406324 0.326444,0 0.458227,-0.156673 0.39741,-0.47247 -0.05046,-0.262003 0.06548,-0.47247 0.260264,-0.47247 0.456564,0 1.205863,-1.150222 1.205863,-1.851078 0,-0.300729 0.17791,-0.61505 0.395355,-0.698492 0.217446,-0.08344 0.345092,-0.23304 0.283658,-0.332442 -0.06143,-0.0994 0.193488,-0.205988 0.566493,-0.236859 0.432777,-0.03582 0.897513,0.180526 1.284283,0.597858 0.412645,0.445251 0.653781,0.550811 0.755502,0.330729 0.08217,-0.177792 0.08693,-0.06791 0.01058,0.244175 -0.08061,0.329458 0.03845,0.744718 0.283895,0.990158 0.232499,0.232499 0.348056,0.543542 0.256794,0.691207 -0.09126,0.147665 0.0071,0.334861 0.218476,0.415992 0.227646,0.08736 0.329797,0.356335 0.250494,0.659589 -0.108277,0.414053 0.01128,0.518077 0.624551,0.543412 0.417155,0.01723 0.836466,0.021 0.931803,0.0084 0.09534,-0.01263 0.238102,0.145799 0.317255,0.352069 0.09512,0.247881 0.01393,0.325153 -0.239486,0.22791 -0.21087,-0.08092 -0.383401,-0.01532 -0.383401,0.145766 0,0.16109 0.119063,0.292891 0.264584,0.292891 0.145521,0 0.264583,0.304683 0.264583,0.677073 0,0.464855 0.103662,0.618548 0.330729,0.490351 0.242876,-0.137122 0.254213,-0.103409 0.04268,0.126912 -0.444864,0.48438 0.151766,2.05849 0.911411,2.404607 0.349604,0.15929 0.688761,0.236501 0.753683,0.171579 0.06492,-0.06492 -0.129058,-0.196465 -0.431066,-0.292319 -0.302008,-0.09585 -0.549106,-0.299841 -0.549106,-0.453305 0,-0.161201 0.251383,-0.112114 0.595313,0.116247 0.327422,0.2174 0.597136,0.499813 0.599364,0.627585 0.0022,0.127771 0.0744,0.351374 0.160373,0.496894 0.08598,0.145521 0.124114,0.970756 0.08475,1.833856 -0.05869,1.286862 -0.182782,1.653159 -0.689539,2.035407 -0.339883,0.256374 -0.617969,0.621764 -0.617969,0.811978 0,0.190213 -0.119062,0.350062 -0.264583,0.355218 -0.145521,0.0052 -0.502709,0.139898 -0.79375,0.299426 -1.234551,0.67669 -2.110128,0.666832 -2.765837,-0.03114 z"
       id="path28417" />
    <path
       style="fill:#cfbe90"
       d="m -7.8169995,38.272954 c -0.9568252,-0.06994 -1.1509158,-0.198837 -1.5874999,-1.054297 -0.2735682,-0.536039 -0.6462246,-1.133766 -0.8281256,-1.328282 -0.181901,-0.194515 -0.337757,-0.61305 -0.346346,-0.930078 -0.0086,-0.317027 -0.04951,-1.01842 -0.09093,-1.55865 -0.04142,-0.54023 0.01657,-0.925454 0.12886,-0.856054 0.112292,0.0694 0.283027,-0.122282 0.379411,-0.425961 0.09951,-0.313511 0.3269759,-0.493918 0.5263195,-0.417423 0.1930915,0.0741 0.4196193,-0.0439 0.503395,-0.262218 0.083776,-0.218316 0.263996,-0.327919 0.4004894,-0.243561 0.3638174,0.224851 0.5116967,-0.17386 0.289777,-0.781296 -0.2179507,-0.596572 0.1957903,-2.055005 0.5252226,-1.851404 0.1177744,0.07279 0.1535361,-0.09939 0.079471,-0.382615 -0.1059142,-0.405017 0.054694,-0.569463 0.7522789,-0.770253 0.4878188,-0.140412 0.6704765,-0.266033 0.405906,-0.279157 -0.4478258,-0.02221 -0.4420151,-0.07866 0.084162,-0.817613 0.3108599,-0.436562 0.7356861,-0.793749 0.9440582,-0.793749 0.2083721,0 0.3788584,-0.245152 0.3788584,-0.544782 0,-0.29963 0.1176987,-0.47204 0.2615527,-0.383133 0.1448841,0.08954 0.1971069,-0.0063 0.1170754,-0.214853 -0.2319555,-0.604467 0.6656806,-1.300601 1.5161218,-1.175783 0.4130958,0.06063 0.7510833,0.01179 0.7510833,-0.108523 0,-0.120318 0.1260892,-0.21876 0.2801982,-0.21876 0.154109,0 0.1941087,0.139296 0.088888,0.309547 -0.1266264,0.204885 -0.049851,0.255263 0.2270718,0.148998 0.4378397,-0.168015 0.8584274,0.442236 0.7507926,1.089361 -0.035191,0.211574 0.066459,0.279479 0.2492504,0.166508 0.23244641,-0.14366 0.23152258,-0.04661 -0.00374,0.392984 -0.1718293,0.321066 -0.2432392,0.652934 -0.1586887,0.737485 0.084551,0.08455 0.1555515,-0.01494 0.1577798,-0.221098 0.00247,-0.228624 0.0798724,-0.269524 0.19843749,-0.104858 0.10691229,0.148483 0.53348419,0.419141 0.94793755,0.601463 0.48335575,0.212632 0.7009562,0.468555 0.60686787,0.713745 -0.080676,0.210239 -0.0247042,0.457639 0.12438183,0.54978 0.14908605,0.09214 0.20478116,0.340262 0.12376691,0.551381 -0.0810142,0.21112 -0.038172,0.31641 0.0952049,0.233979 0.316357,-0.195519 0.5337497,0.551359 0.4936451,1.695975 -0.017577,0.501669 0.105891,0.958075 0.2743739,1.014236 0.168483,0.05616 0.3063326,0.343053 0.3063326,0.637537 0,0.359218 0.1263557,0.486938 0.3839455,0.388091 0.21117,-0.08103 0.6576544,0.09189 0.9921875,0.384271 L 4.1210198,32.695498 3.3272699,32.234383 C 2.8907074,31.98077 2.6730439,31.928681 2.8435732,32.118629 c 0.1705293,0.189949 0.2485948,0.539212 0.1734788,0.776141 -0.1019403,0.321538 -0.074,0.343734 0.1101767,0.08753 0.1990461,-0.27689 0.3105807,-0.266343 0.5769034,0.05456 0.1815836,0.218795 0.2533439,0.522087 0.1594674,0.673982 -0.093876,0.151896 -0.1002898,0.276174 -0.014252,0.276174 0.086038,0 0.2461428,-0.24251 0.3557887,-0.538911 0.126324,-0.341487 0.1958961,0.03682 0.1899115,1.032659 -0.00519,0.864363 -0.098742,1.516565 -0.2078821,1.449337 -0.1091407,-0.06723 -0.1984375,0.06339 -0.1984375,0.290258 0,0.226869 -0.1260892,0.41249 -0.2801983,0.41249 -0.154109,0 -0.1952441,0.137459 -0.091411,0.305464 0.1164741,0.188459 0.072632,0.233675 -0.114459,0.118047 -0.1667852,-0.103079 -0.5865663,0.08688 -0.9328468,0.42214 -0.3462805,0.335257 -0.7342316,0.626275 -0.8621136,0.646707 -0.1278819,0.02043 -0.634361,0.122461 -1.12550911,0.22673 -0.62549051,0.13279 -0.83877399,0.101847 -0.71198921,-0.103295 0.15786347,-0.255429 -0.64331406,-0.43081 -1.03575228,-0.226731 -0.069958,0.03638 -0.3148343,-0.201744 -0.5441695,-0.529166 -0.5255519,-0.750331 -1.4289672,-0.760148 -2.3626978,-0.02567 -0.8148782,0.640983 -2.129614,0.923934 -3.7445808,0.805891 z"
       id="path28414" />
    <path
       style="fill:#cfbe90"
       d="m 18.423522,82.082301 c -0.343353,-0.490205 -0.411878,-1.585151 -0.411878,-6.581317 0,-4.71939 -0.08662,-6.239362 -0.407514,-7.151024 -0.224132,-0.63676 -1.841023,-3.80264 -3.593091,-7.03529 -1.752068,-3.23265 -3.144898,-6.088783 -3.095177,-6.346961 0.155382,-0.806838 1.012732,-0.708798 1.987915,0.227323 1.060144,1.017679 4.012815,5.346262 4.844998,7.102713 l 0.563949,1.190304 -0.147415,-6.150033 -0.147415,-6.150034 -0.852631,-1.510778 c -0.468947,-0.830929 -1.958634,-2.987 -3.310416,-4.79127 -1.351782,-1.804271 -2.457786,-3.506358 -2.457786,-3.782417 0,-0.610717 0.776695,-0.664526 1.799077,-0.124639 0.945924,0.499512 4.148469,3.777323 4.67228,4.782088 0.382949,0.734565 0.408648,0.236173 0.344661,-6.684075 -0.06506,-7.036159 -0.04067,-7.486852 0.412973,-7.63066 0.265164,-0.08406 0.789743,-0.07563 1.165732,0.01874 l 0.683616,0.171576 -0.167253,9.575751 c -0.15399,8.816345 -0.134777,9.491819 0.242268,8.517417 1.956962,-5.057406 4.986522,-9.657291 6.360452,-9.657291 0.835555,0 0.157346,2.115681 -2.548218,7.94919 -0.908162,1.958102 -2.163775,4.869872 -2.790251,6.470601 l -1.139049,2.910417 -0.191151,7.739062 c -0.111806,4.526671 -0.09275,7.738294 0.04592,7.737212 0.130388,-0.001 0.653635,-1.040408 1.162773,-2.309757 1.046573,-2.60925 2.384143,-4.801828 3.996261,-6.550769 2.372993,-2.574393 2.41702,-0.913747 0.10886,4.106018 -3.292838,7.161231 -4.844299,10.792103 -5.395788,12.627711 -0.613377,2.041604 -1.020172,2.35318 -1.736701,1.330191 z"
       id="path28409" />
    <path
       style="fill:#cfbe90"
       d="m -3.1887705,82.233602 c -0.2811504,-0.338145 -0.3955524,-2.144964 -0.506765,-8.003646 l -0.1436391,-7.566907 -2.6716798,-5.953125 c -1.4694238,-3.274219 -3.2626174,-7.262812 -3.9848746,-8.863541 -1.433761,-3.177626 -1.675654,-3.908442 -1.424258,-4.303027 0.847809,-1.330703 5.2600176,5.060689 6.9192172,10.022969 0.3104937,0.928615 0.6444479,1.771814 0.7421204,1.873776 0.097673,0.101961 0.1452298,-4.685862 0.105683,-10.639607 l -0.071903,-10.824992 0.6542609,-0.428688 c 0.3598435,-0.235778 0.86845,-0.360783 1.1302366,-0.277787 0.448101,0.142064 0.4716815,0.689543 0.4026496,9.348504 l -0.073326,9.197602 0.9163128,-1.904506 c 1.27268641,-2.645209 2.6118423,-4.672755 4.1846621,-6.33578 1.4361361,-1.518502 2.3141799,-1.827801 2.3326431,-0.821693 0.00601,0.327422 -1.6145706,3.81 -3.6012869,7.739062 l -3.6122114,7.14375 0.2411915,6.085416 c 0.2097506,5.292143 0.2849087,5.981946 0.5765576,5.291666 1.79750775,-4.25437 6.2277371,-10.186457 7.6074979,-10.186457 0.391542,0 0.6294099,0.154662 0.6294099,0.409244 0,0.494224 -2.2090028,4.927812 -3.5531573,7.13138 -1.7742425,2.908642 -4.321633,8.180683 -4.794137,9.921875 -0.6569274,2.420797 -1.1841252,2.932038 -2.0052045,1.944512 z"
       id="path28408" />
    <path
       style="fill:#e6c938"
       d="M 18.438949,82.01819 C 18.07675,81.465405 18.011644,80.434779 18.011644,75.253975 v -6.112067 l -0.93767,-2.033179 c -0.515718,-1.118249 -2.132641,-4.20166 -3.593162,-6.852024 -1.460522,-2.650364 -2.614781,-5.030246 -2.565021,-5.288628 0.183373,-0.952182 1.039662,-0.689209 2.370087,0.727871 1.222604,1.302237 3.811053,5.198216 4.642656,6.98785 0.33032,0.71086 0.358582,0.08959 0.243379,-5.350156 -0.153388,-7.242761 0.08738,-6.531487 -4.135113,-12.215995 -1.451856,-1.954554 -2.639739,-3.714463 -2.639739,-3.910908 0,-0.548811 0.717939,-0.700748 1.594856,-0.337517 1.000792,0.414542 4.943877,4.555121 5.097302,5.352607 0.06322,0.328609 0.13116,-2.823308 0.150977,-7.004259 l 0.03603,-7.601729 0.664895,-0.166878 c 1.420051,-0.35641 1.419251,-0.362588 1.298605,10.027504 l -0.111195,9.576166 0.622825,-1.719792 c 1.716376,-4.73939 4.845748,-9.260416 6.409891,-9.260416 0.423337,0 -0.218153,2.049169 -1.630595,5.208758 -5.724742,12.806067 -5.192374,10.800556 -5.342257,20.125095 -0.08249,5.131704 -0.03409,7.739062 0.143658,7.739062 0.147432,0 0.349773,-0.327422 0.449648,-0.727604 0.812278,-3.254667 4.873469,-9.591145 6.14718,-9.591145 0.895061,0 0.31348,1.813749 -2.412321,7.523188 -0.958329,2.007309 -1.742417,3.692995 -1.742417,3.74597 0,0.05298 -0.404544,0.962132 -0.898987,2.02035 -0.494443,1.058218 -1.216023,2.965829 -1.603511,4.239136 -0.745471,2.449657 -1.104044,2.77502 -1.832696,1.662955 z"
       id="path28382" />
    <path
       style="fill:#e6c938"
       d="M -3.1550215,82.208572 C -3.4808418,81.839041 -3.575679,80.407148 -3.6847334,74.210751 l -0.132837,-7.547702 -2.2878979,-5.159375 c -1.2583439,-2.837656 -3.0738015,-6.860126 -4.0343507,-8.938822 -0.960548,-2.078696 -1.746452,-4.072993 -1.746452,-4.431771 0,-2.212686 3.3028947,1.530431 5.545372,6.284481 0.7335869,1.555203 1.3369166,2.982126 1.3407327,3.17094 0.00382,0.188813 0.2121754,0.800346 0.4630208,1.358961 0.4394529,0.978631 0.4533626,0.620273 0.3814881,-9.828381 -0.06744,-9.803951 -0.032555,-10.886085 0.3637083,-11.282348 0.2410664,-0.241067 0.6913526,-0.402201 1.0006359,-0.358077 0.5581257,0.07963 0.5633618,0.149517 0.6997854,9.340643 0.075599,5.093229 0.1649895,9.081822 0.1986463,8.863541 0.1289096,-0.836045 1.70262964,-3.828603 3.0012485,-5.707121 1.4764806,-2.135805 3.2639026,-3.914105 3.7586413,-3.73946 0.725189,0.255994 0.056875,1.996971 -3.1184575,8.123664 -3.8907452,7.507058 -3.7391093,6.850946 -3.3937495,14.684375 l 0.2099688,4.762499 1.29045258,-2.513541 C 1.6199888,67.855848 2.7823393,66.13851 4.5560382,64.347945 6.0258842,62.864121 7.163728,62.375771 7.163728,63.228752 c 0,0.500494 -1.9233293,4.344791 -3.5351227,7.065904 -1.9276781,3.254406 -4.29811587,8.136396 -4.7885373,9.862142 -0.7184137,2.528028 -1.1677387,2.99012 -1.9950895,2.051774 z"
       id="path28381" />
    <path
       style="fill:#879964"
       d="M 18.438949,82.01819 C 18.07675,81.465405 18.011644,80.434779 18.011644,75.253975 v -6.112067 l -0.93767,-2.033179 c -0.515718,-1.118249 -2.132641,-4.20166 -3.593162,-6.852024 -1.460522,-2.650364 -2.614781,-5.030246 -2.565021,-5.288628 0.183373,-0.952182 1.039662,-0.689209 2.370087,0.727871 1.222604,1.302237 3.811053,5.198216 4.642656,6.98785 0.33032,0.71086 0.358582,0.08959 0.243379,-5.350156 -0.153388,-7.242761 0.08738,-6.531487 -4.135113,-12.215995 -1.451856,-1.954554 -2.639739,-3.714463 -2.639739,-3.910908 0,-0.548811 0.717939,-0.700748 1.594856,-0.337517 1.000792,0.414542 4.943877,4.555121 5.097302,5.352607 0.06322,0.328609 0.13116,-2.823308 0.150977,-7.004259 l 0.03603,-7.601729 0.664895,-0.166878 c 1.420051,-0.35641 1.419251,-0.362588 1.298605,10.027504 l -0.111195,9.576166 0.622825,-1.719792 c 1.716376,-4.73939 4.845748,-9.260416 6.409891,-9.260416 0.423337,0 -0.218153,2.049169 -1.630595,5.208758 -5.724742,12.806067 -5.192374,10.800556 -5.342257,20.125095 -0.08249,5.131704 -0.03409,7.739062 0.143658,7.739062 0.147432,0 0.349773,-0.327422 0.449648,-0.727604 0.812278,-3.254667 4.873469,-9.591145 6.14718,-9.591145 0.895061,0 0.31348,1.813749 -2.412321,7.523188 -0.958329,2.007309 -1.742417,3.692995 -1.742417,3.74597 0,0.05298 -0.404544,0.962132 -0.898987,2.02035 -0.494443,1.058218 -1.216023,2.965829 -1.603511,4.239136 -0.745471,2.449657 -1.104044,2.77502 -1.832696,1.662955 z"
       id="path28362" />
    <path
       style="fill:#879964"
       d="M -3.1550215,82.208572 C -3.4808418,81.839041 -3.575679,80.407148 -3.6847334,74.210751 l -0.132837,-7.547702 -2.2878979,-5.159375 c -1.2583439,-2.837656 -3.0738015,-6.860126 -4.0343507,-8.938822 -0.960548,-2.078696 -1.746452,-4.072993 -1.746452,-4.431771 0,-2.212686 3.3028947,1.530431 5.545372,6.284481 0.7335869,1.555203 1.3369166,2.982126 1.3407327,3.17094 0.00382,0.188813 0.2121754,0.800346 0.4630208,1.358961 0.4394529,0.978631 0.4533626,0.620273 0.3814881,-9.828381 -0.06744,-9.803951 -0.032555,-10.886085 0.3637083,-11.282348 0.2410664,-0.241067 0.6913526,-0.402201 1.0006359,-0.358077 0.5581257,0.07963 0.5633618,0.149517 0.6997854,9.340643 0.075599,5.093229 0.1649895,9.081822 0.1986463,8.863541 0.1289096,-0.836045 1.70262964,-3.828603 3.0012485,-5.707121 1.4764806,-2.135805 3.2639026,-3.914105 3.7586413,-3.73946 0.725189,0.255994 0.056875,1.996971 -3.1184575,8.123664 -3.8907452,7.507058 -3.7391093,6.850946 -3.3937495,14.684375 l 0.2099688,4.762499 1.29045258,-2.513541 C 1.6199888,67.855848 2.7823393,66.13851 4.5560382,64.347945 6.0258842,62.864121 7.163728,62.375771 7.163728,63.228752 c 0,0.500494 -1.9233293,4.344791 -3.5351227,7.065904 -1.9276781,3.254406 -4.29811587,8.136396 -4.7885373,9.862142 -0.7184137,2.528028 -1.1677387,2.99012 -1.9950895,2.051774 z"
       id="path28361" />
    <path
       style="fill:#779459"
       d="m 18.567847,81.983158 c -0.528958,-0.672461 -0.556203,-1.008146 -0.556203,-6.85297 v -6.145871 l -1.558661,-3.145009 c -0.857264,-1.729755 -2.409413,-4.692822 -3.449222,-6.584592 -1.039808,-1.891771 -1.958383,-3.706365 -2.041277,-4.032431 -0.21674,-0.852546 0.514382,-1.029968 1.462441,-0.35489 1.295144,0.922224 5.442245,7.099256 5.38451,8.020132 -0.01579,0.251796 0.100627,0.537741 0.258697,0.635433 0.20521,0.126827 0.247557,-1.630869 0.14808,-6.146352 l -0.13932,-6.323975 -0.854276,-1.455208 C 16.752763,48.79706 15.388015,46.832529 14.18984,45.2318 c -2.556823,-3.415848 -2.936969,-4.062685 -2.590977,-4.408677 0.44577,-0.44577 1.62684,0.07343 3.023481,1.329133 1.925071,1.730803 3.3893,3.662049 3.3893,4.470317 0,0.374988 0.07277,0.609028 0.161706,0.52009 0.08894,-0.08894 0.142503,-3.621125 0.119033,-7.849305 l -0.04267,-7.687599 h 0.908442 c 0.646417,0 0.940528,0.133551 1.019683,0.463021 0.06118,0.254661 0.0453,4.612311 -0.03529,9.683665 -0.08059,5.071355 -0.05905,9.357605 0.04786,9.525 0.123553,0.19345 0.195862,0.129647 0.198437,-0.175098 0.01169,-1.383212 1.925315,-5.618214 3.799772,-8.409189 0.896316,-1.33457 2.688872,-2.780532 2.941095,-2.372427 0.281767,0.455909 -0.152498,1.630886 -2.84188,7.689194 -4.452433,10.029891 -4.003403,8.127395 -4.105914,17.396353 -0.05692,5.146298 0.0047,8.003645 0.1725,8.003645 0.143559,0 0.345428,-0.386953 0.448596,-0.859895 0.692182,-3.173087 4.895958,-9.723437 6.240147,-9.723437 0.702687,0 -0.176362,2.565876 -2.628679,7.672916 -2.241033,4.667034 -3.904341,8.628485 -4.309656,10.264182 -0.455821,1.83952 -0.821205,2.129424 -1.536976,1.219469 z"
       id="path28296" />
    <path
       style="fill:#779459"
       d="m -3.1208243,82.099668 c -0.2759708,-0.443466 -0.3912262,-2.326754 -0.48209,-7.877417 l -0.1194122,-7.294619 -1.7366512,-3.96875 C -6.4141359,60.77607 -8.2510234,56.655075 -9.54095,53.801117 c -2.341608,-5.180801 -2.577379,-5.881126 -2.082833,-6.186772 0.459738,-0.284134 1.052045,0.248857 2.6543528,2.388533 1.4254357,1.903487 3.1044225,5.250136 4.3429083,8.656525 0.2513133,0.691224 0.5703375,1.256771 0.7089426,1.256771 0.1520812,0 0.143404,-0.202931 -0.021883,-0.511773 -0.1752155,-0.327393 -0.2738923,-4.186886 -0.2738923,-10.7126 0,-9.270042 0.041579,-10.249387 0.4556762,-10.733018 0.2506219,-0.292705 0.6971062,-0.51838 0.9921874,-0.501499 0.4460402,0.02552 0.4584328,0.0511 0.073491,0.151692 -0.2546615,0.06655 -0.4630209,0.236552 -0.4630209,0.377781 0,0.14123 0.2083594,0.221797 0.4630209,0.179037 0.4321647,-0.07256 0.4681908,0.521746 0.5406021,8.918089 l 0.077581,8.995833 0.7875295,-1.824346 C 0.15731888,50.911195 3.948614,45.925973 4.8278957,46.215753 5.5023772,46.438039 5.321777,47.364442 4.1686463,49.597425 3.5298869,50.834352 1.9137035,53.97644 0.57712743,56.579843 l -2.43013823,4.733461 0.076599,6.815449 c 0.042129,3.748496 0.1583197,6.765548 0.2582005,6.704558 0.099881,-0.06099 0.1660568,-0.317252 0.1470577,-0.569471 -0.101456,-1.346861 4.3564026,-8.619545 6.3402967,-10.34375 1.1855979,-1.030404 2.1945853,-1.413715 2.1945853,-0.833715 0,0.486455 -2.0270176,4.628954 -3.1742785,6.48709 -1.6217554,2.626642 -5.0276003,9.300327 -5.0288716,9.853974 -0.00197,0.85785 -0.9450887,3.107242 -1.3339404,3.181523 -0.2116312,0.04043 -0.547989,-0.188755 -0.7474622,-0.509294 z"
       id="path28295" />
    <path
       style="fill:#8d7954"
       d="m 18.567847,81.983158 c -0.528958,-0.672461 -0.556203,-1.008146 -0.556203,-6.85297 v -6.145871 l -1.558661,-3.145009 c -0.857264,-1.729755 -2.409413,-4.692822 -3.449222,-6.584592 -1.039808,-1.891771 -1.958383,-3.706365 -2.041277,-4.032431 -0.21674,-0.852546 0.514382,-1.029968 1.462441,-0.35489 1.295144,0.922224 5.442245,7.099256 5.38451,8.020132 -0.01579,0.251796 0.100627,0.537741 0.258697,0.635433 0.20521,0.126827 0.247557,-1.630869 0.14808,-6.146352 l -0.13932,-6.323975 -0.854276,-1.455208 C 16.752763,48.79706 15.388015,46.832529 14.18984,45.2318 c -2.556823,-3.415848 -2.936969,-4.062685 -2.590977,-4.408677 0.44577,-0.44577 1.62684,0.07343 3.023481,1.329133 1.925071,1.730803 3.3893,3.662049 3.3893,4.470317 0,0.374988 0.07277,0.609028 0.161706,0.52009 0.08894,-0.08894 0.142503,-3.621125 0.119033,-7.849305 l -0.04267,-7.687599 h 0.908442 c 0.646417,0 0.940528,0.133551 1.019683,0.463021 0.06118,0.254661 0.0453,4.612311 -0.03529,9.683665 -0.08059,5.071355 -0.05905,9.357605 0.04786,9.525 0.123553,0.19345 0.195862,0.129647 0.198437,-0.175098 0.01169,-1.383212 1.925315,-5.618214 3.799772,-8.409189 0.896316,-1.33457 2.688872,-2.780532 2.941095,-2.372427 0.281767,0.455909 -0.152498,1.630886 -2.84188,7.689194 -4.452433,10.029891 -4.003403,8.127395 -4.105914,17.396353 -0.05692,5.146298 0.0047,8.003645 0.1725,8.003645 0.143559,0 0.345428,-0.386953 0.448596,-0.859895 0.692182,-3.173087 4.895958,-9.723437 6.240147,-9.723437 0.702687,0 -0.176362,2.565876 -2.628679,7.672916 -2.241033,4.667034 -3.904341,8.628485 -4.309656,10.264182 -0.455821,1.83952 -0.821205,2.129424 -1.536976,1.219469 z"
       id="path28175" />
    <path
       style="fill:#8d7954"
       d="m -3.1208243,82.099668 c -0.2759708,-0.443466 -0.3912262,-2.326754 -0.48209,-7.877417 l -0.1194122,-7.294619 -1.7366512,-3.96875 C -6.4141359,60.77607 -8.2510234,56.655075 -9.54095,53.801117 c -2.341608,-5.180801 -2.577379,-5.881126 -2.082833,-6.186772 0.459738,-0.284134 1.052045,0.248857 2.6543528,2.388533 1.4254357,1.903487 3.1044225,5.250136 4.3429083,8.656525 0.2513133,0.691224 0.5703375,1.256771 0.7089426,1.256771 0.1520812,0 0.143404,-0.202931 -0.021883,-0.511773 -0.1752155,-0.327393 -0.2738923,-4.186886 -0.2738923,-10.7126 0,-9.270042 0.041579,-10.249387 0.4556762,-10.733018 0.2506219,-0.292705 0.6971062,-0.51838 0.9921874,-0.501499 0.4460402,0.02552 0.4584328,0.0511 0.073491,0.151692 -0.2546615,0.06655 -0.4630209,0.236552 -0.4630209,0.377781 0,0.14123 0.2083594,0.221797 0.4630209,0.179037 0.4321647,-0.07256 0.4681908,0.521746 0.5406021,8.918089 l 0.077581,8.995833 0.7875295,-1.824346 C 0.15731888,50.911195 3.948614,45.925973 4.8278957,46.215753 5.5023772,46.438039 5.321777,47.364442 4.1686463,49.597425 3.5298869,50.834352 1.9137035,53.97644 0.57712743,56.579843 l -2.43013823,4.733461 0.076599,6.815449 c 0.042129,3.748496 0.1583197,6.765548 0.2582005,6.704558 0.099881,-0.06099 0.1660568,-0.317252 0.1470577,-0.569471 -0.101456,-1.346861 4.3564026,-8.619545 6.3402967,-10.34375 1.1855979,-1.030404 2.1945853,-1.413715 2.1945853,-0.833715 0,0.486455 -2.0270176,4.628954 -3.1742785,6.48709 -1.6217554,2.626642 -5.0276003,9.300327 -5.0288716,9.853974 -0.00197,0.85785 -0.9450887,3.107242 -1.3339404,3.181523 -0.2116312,0.04043 -0.547989,-0.188755 -0.7474622,-0.509294 z"
       id="path28174" />
    <path
       style="fill:#627339"
       d="m 19.974477,40.337008 c 0,-2.837656 0.03892,-3.998515 0.0865,-2.579687 0.04757,1.418828 0.04757,3.740547 0,5.159375 -0.04757,1.418828 -0.0865,0.257969 -0.0865,-2.579688 z"
       id="path28146" />
    <path
       style="fill:#627339"
       d="m -4.0939232,47.877633 c -8.62e-5,-5.23875 0.035253,-7.419375 0.078533,-4.845834 0.043279,2.573541 0.04335,6.85979 1.567e-4,9.524999 -0.043193,2.665209 -0.078603,0.559585 -0.07869,-4.679165 z"
       id="path28144" />
  </g>
</svg>
