<?xml version="1.0" encoding="UTF-8" standalone="no"?>
<!-- Created with Inkscape (http://www.inkscape.org/) -->

<svg
   width="185"
   height="185"
   viewBox="0 0 48.947914 48.947918"
   version="1.1"
   id="svg1"
   xmlns="http://www.w3.org/2000/svg"
   xmlns:svg="http://www.w3.org/2000/svg">
  <defs
     id="defs1" />
  <g
     id="g28446"
     transform="matrix(0.70967031,0,0,0.70967031,-26.56657,-70.557245)">
    <path
       style="fill:#d3c699"
       d="m 77.066641,167.81325 c -0.20528,-0.20528 -0.3175,-1.26767 -0.3175,-3.00578 0,-2.38822 -0.06922,-2.7884 -0.620107,-3.58511 -0.341058,-0.49325 -1.543992,-2.2065 -2.673186,-3.80723 -2.667333,-3.78118 -4.508367,-7.36899 -3.998447,-7.79218 0.199077,-0.16522 0.652673,-0.22743 1.007993,-0.13826 0.894137,0.22442 3.934367,3.37885 5.031034,5.22002 l 0.907101,1.52291 0.171603,-2.97812 c 0.09438,-1.63797 0.172144,-4.3012 0.172806,-5.9183 0.0014,-3.3843 0.151575,-3.08957 -3.596847,-7.0582 -2.232962,-2.36414 -4.6705,-5.86105 -4.545557,-6.5211 0.290793,-1.5362 4.013576,0.48401 6.391069,3.46819 0.889498,1.11648 1.637816,2.00941 1.662928,1.9843 0.02511,-0.0251 0.07951,-2.60547 0.120878,-5.73413 l 0.07522,-5.68846 -1.564006,-1.53531 c -0.860203,-0.84441 -1.941169,-1.71428 -2.402147,-1.93302 -1.445151,-0.68577 -3.81325,-3.07769 -3.81325,-3.8516 0,-1.00939 0.590859,-1.36954 1.919888,-1.17024 1.537807,0.23061 3.061244,1.28991 4.872003,3.38769 l 0.838767,0.97172 0.08727,-1.83304 c 0.123796,-2.60011 0.0021,-2.88939 -1.615625,-3.8392 -1.756333,-1.03121 -3.405381,-2.62162 -3.886609,-3.7484 -0.449615,-1.05276 -0.451173,-1.00762 0.05216,-1.51095 1.052619,-1.05262 3.030487,-0.13623 4.507613,2.08848 0.534801,0.80547 1.028759,1.46449 1.097684,1.46449 0.06893,0 0.04027,-0.68461 -0.06367,-1.52135 -0.167195,-1.34591 -0.340526,-1.68183 -1.503028,-2.91291 -1.516584,-1.60605 -1.618067,-2.43932 -0.406745,-3.3398 0.636053,-0.47283 0.775238,-0.49515 0.988136,-0.15846 0.213569,0.33776 0.248362,0.33286 0.251854,-0.0354 0.0022,-0.23504 -0.234074,-0.73007 -0.525115,-1.10007 -0.291042,-0.37 -0.529167,-0.85812 -0.529167,-1.0847 0,-0.22659 0.238125,-0.53942 0.529167,-0.69519 0.291041,-0.15576 0.529611,-0.48737 0.530155,-0.73691 0.0018,-0.84762 1.013178,-2.1735 1.657868,-2.1735 1.030131,0 2.288725,3.0824 1.950042,4.77582 -0.13742,0.6871 -0.08762,0.79985 0.322608,0.73035 0.741819,-0.12567 1.36016,0.55013 1.36016,1.48656 0,0.67497 -0.289406,1.12126 -1.455208,2.24408 -1.309646,1.26135 -1.454493,1.51128 -1.44805,2.49851 l 0.0072,1.09697 0.970252,-1.05833 c 1.717559,-1.87349 3.174339,-2.48214 3.989597,-1.66688 0.889304,0.88931 -0.232746,2.68575 -3.122084,4.99858 l -1.719791,1.37665 -0.0119,2.51018 c -0.0065,1.3806 0.03339,2.3743 0.08874,2.20823 0.05536,-0.16606 0.20954,-0.23464 0.342632,-0.15238 0.133092,0.0822 0.241985,0.0363 0.241985,-0.10203 0,-0.58659 2.57125,-3.05556 3.691669,-3.54482 2.242689,-0.97933 2.626219,-1.02779 3.046886,-0.38499 0.208147,0.31806 0.350739,0.76608 0.316872,0.99559 -0.122342,0.82909 -3.23109,3.96661 -4.939342,4.98505 -2.715919,1.6192 -2.563993,1.18186 -2.708694,7.79747 l -0.126674,5.79149 0.589421,-0.97663 c 0.324181,-0.53715 1.283194,-1.76197 2.131138,-2.72183 3.230077,-3.65637 8.349971,-5.81571 6.938263,-2.92623 -0.572699,1.1722 -5.488356,7.28437 -7.822112,9.72609 l -1.896636,1.98437 -0.0073,5.10885 c -0.0048,3.34031 0.08432,5.05223 0.257313,4.94532 0.14552,-0.0899 0.264583,-0.28451 0.264583,-0.43238 0,-0.6199 2.256598,-3.99843 3.524694,-5.2771 1.656367,-1.67017 3.253152,-2.72542 5.004096,-3.30699 1.530344,-0.5083 2.063305,-0.26058 1.604735,0.74587 -0.29555,0.64866 -2.862566,4.09273 -5.474229,7.34456 -4.043056,5.03408 -4.579532,5.71328 -4.806646,6.08541 -0.133218,0.21828 -0.2527,2.10958 -0.265516,4.20288 -0.02078,3.39433 -0.07673,3.84508 -0.517246,4.16719 -0.604565,0.44207 -0.730401,0.44692 -1.133638,0.0437 z"
       id="path28431" />
    <path
       style="fill:#d3c699"
       d="m 64.918251,168.07736 c -0.151366,-0.18892 -0.32839,-1.01669 -0.393388,-1.83949 -0.110622,-1.40036 -0.228129,-1.62024 -1.838149,-3.43958 -0.945985,-1.06898 -2.425417,-2.83033 -3.287627,-3.91412 -0.862209,-1.08379 -2.190415,-2.74461 -2.951567,-3.6907 -1.762384,-2.1906 -2.38938,-3.44121 -1.885371,-3.76057 1.872954,-1.18677 6.697402,2.70582 9.062175,7.31179 l 0.675789,1.31626 0.0053,-3.57187 c 0.0029,-1.96454 -0.113412,-3.99934 -0.25854,-4.52179 -0.145129,-0.52245 -1.410665,-2.54651 -2.812303,-4.49791 -2.635661,-3.66945 -5.038363,-8.1213 -4.766086,-8.83084 0.628432,-1.63767 5.131947,2.34926 6.797148,6.01746 0.657337,1.44802 0.656648,1.16131 -0.01224,-5.09176 l -0.522682,-4.88629 -1.830451,-1.86058 c -2.157657,-2.19318 -3.201153,-3.6769 -3.201153,-4.55164 0,-1.44469 1.831675,-0.94455 3.448482,0.94161 1.099882,1.28312 1.207165,1.17601 0.765378,-0.7641 -0.190306,-0.83572 -0.571844,-1.46733 -1.28,-2.11893 -0.858045,-0.78951 -0.990248,-1.05525 -0.884256,-1.77742 0.06854,-0.46702 0.290267,-0.9866 0.492718,-1.15462 0.210707,-0.17487 0.368095,-0.79539 0.368095,-1.45126 0,-1.32691 0.417081,-2.39397 1.027249,-2.62812 0.526684,-0.2021 1.552686,0.92173 1.764745,1.93302 0.213221,1.01682 0.518262,1.50772 0.941912,1.51579 1.619591,0.0309 1.81897,2.37559 0.303376,3.56776 -0.618555,0.48656 -0.65252,0.61871 -0.424573,1.65205 l 0.247768,1.12319 0.441508,-0.82838 c 0.242829,-0.45561 0.821001,-1.1477 1.284826,-1.53798 0.743329,-0.62547 0.889598,-0.66333 1.233646,-0.31928 0.718325,0.71832 0.18271,2.59881 -1.423878,4.99907 l -1.447346,2.16236 0.263874,1.86315 c 0.23392,1.65165 0.760094,7.83218 0.896212,10.52706 0.02753,0.54505 0.109586,0.9848 0.182347,0.97721 0.07276,-0.008 0.657621,-0.73492 1.299689,-1.6163 1.707564,-2.34401 3.727394,-3.40871 3.727394,-1.96481 0,0.75103 -1.962678,4.57964 -3.634376,7.08961 -1.060667,1.59253 -1.165823,1.88809 -1.035493,2.91041 0.07978,0.62584 0.151112,2.65355 0.158507,4.50603 l 0.01345,3.36815 1.918229,-1.91859 c 2.14179,-2.1422 3.214122,-2.8339 3.67652,-2.3715 0.596295,0.59629 -0.0854,2.23876 -2.236043,5.38751 -1.192445,1.74585 -2.32103,3.49544 -2.507968,3.88798 -0.855841,1.79715 -1.034193,2.04149 -1.544191,2.11555 -0.298913,0.0434 -0.667322,-0.0757 -0.818688,-0.26459 z"
       id="path28428" />
    <path
       style="fill:#cfbe90"
       d="m 77.212162,167.84499 c -0.394695,-0.22989 -0.463021,-0.6818 -0.463021,-3.06242 v -2.79274 l -2.759862,-3.89971 c -2.964048,-4.18822 -4.837889,-7.60494 -4.563274,-8.32058 0.487422,-1.2702 3.88803,1.49472 5.8216,4.73335 l 1.104661,1.85025 0.169721,-1.58567 c 0.303605,-2.8365 0.250775,-10.17464 -0.07773,-10.79733 -0.167688,-0.31786 -1.260749,-1.58995 -2.429024,-2.82688 -2.309674,-2.44539 -4.17296,-4.85092 -4.976885,-6.42522 -0.873491,-1.71052 -0.250766,-1.93277 2.095946,-0.74803 1.42315,0.71849 3.227069,2.39385 4.874822,4.52742 l 0.71518,0.92604 0.0143,-3.96875 c 0.0079,-2.18281 0.08991,-4.76919 0.182305,-5.7475 l 0.168,-1.77875 -1.677272,-1.61593 c -0.922499,-0.88876 -2.100273,-1.8393 -2.617276,-2.11232 -0.517003,-0.27301 -1.565083,-1.08524 -2.329068,-1.80496 -1.448924,-1.36498 -1.768551,-2.3035 -1.001338,-2.94023 0.533476,-0.44275 2.39086,-0.10021 3.572362,0.65881 1.247461,0.8014 2.952468,2.59684 3.323108,3.49937 0.266467,0.64887 0.317196,0.47843 0.461436,-1.55028 0.08913,-1.25362 0.102311,-2.50777 0.02929,-2.78701 -0.07302,-0.27924 -0.691168,-0.80093 -1.373656,-1.15931 -1.659283,-0.87131 -3.412954,-2.50829 -4.072895,-3.80188 l -0.538448,-1.05545 0.59006,-0.4778 c 0.724681,-0.58681 1.12646,-0.59693 2.26421,-0.057 0.90853,0.43113 1.981004,1.64056 2.537141,2.86115 0.493679,1.08351 0.757169,0.80982 0.757169,-0.78648 0,-1.3921 -0.06335,-1.5343 -1.149268,-2.57969 -1.382276,-1.33068 -1.846447,-2.1406 -1.625595,-2.83644 0.204147,-0.64321 1.009829,-1.09958 1.565071,-0.88651 0.599045,0.22987 0.531136,-0.55647 -0.124659,-1.44348 -0.568808,-0.76935 -0.477996,-1.62849 0.172134,-1.62849 0.202712,0 0.368567,-0.23131 0.368567,-0.51404 0,-0.78989 1.054256,-2.39637 1.572628,-2.39637 1.240244,0 2.432122,3.39898 1.855562,5.29166 -0.08617,0.28289 0.06425,0.38661 0.5237,0.36112 0.830395,-0.0461 1.339777,0.47425 1.339777,1.36854 0,0.50675 -0.41527,1.12438 -1.455208,2.16432 -1.26527,1.26527 -1.455209,1.58959 -1.455209,2.48478 0,0.56627 0.04141,1.02958 0.09203,1.02958 0.05062,0 0.75515,-0.66312 1.565632,-1.47361 1.266896,-1.26689 1.593548,-1.46174 2.328684,-1.38906 1.147688,0.11347 1.494751,0.70825 1.04577,1.79219 -0.411639,0.99378 -2.225147,2.86882 -3.867701,3.99893 l -1.164414,0.80114 0.02089,2.69926 c 0.01149,1.4846 0.08119,2.5497 0.15489,2.36689 0.0737,-0.1828 0.242895,-0.26507 0.375987,-0.18282 0.133092,0.0823 0.241985,-0.0123 0.241985,-0.21012 0,-0.45599 2.583225,-3.37268 2.997726,-3.3847 0.170261,-0.005 0.785816,-0.23902 1.367899,-0.52019 1.327624,-0.64128 1.790909,-0.65231 2.331022,-0.0555 0.384369,0.42473 0.387956,0.55213 0.03471,1.233 -0.21667,0.41763 -0.704184,1.06769 -1.083363,1.44456 -0.379179,0.37688 -0.860461,0.94423 -1.069516,1.26078 -0.209054,0.31654 -1.193456,1.05874 -2.187558,1.64933 -3.175045,1.88626 -3.085122,1.64597 -3.13992,8.39036 l -0.04704,5.78893 0.708914,-1.19062 c 1.751921,-2.94237 5.434091,-6.2121 7.740625,-6.8736 0.930166,-0.26677 1.606908,-0.11585 1.606908,0.35836 0,0.70433 -3.813047,5.63901 -7.385462,9.55794 l -2.653072,2.91042 -0.0072,5.29167 -0.0072,5.29166 1.333151,-2.38125 c 2.269642,-4.05399 6.126391,-7.27604 8.709317,-7.27604 0.747266,0 0.820301,0.0657 0.66221,0.59532 -0.224295,0.75145 -3.382791,4.9385 -8.205766,10.87794 -2.728866,3.36057 -2.500121,2.72528 -2.500121,6.94352 0,3.07488 -0.0767,3.84712 -0.415774,4.1862 -0.228675,0.22867 -0.437034,0.41215 -0.46302,0.40773 -0.02599,-0.004 -0.255607,-0.12941 -0.510268,-0.27773 z"
       id="path28405" />
    <path
       style="fill:#cfbe90"
       d="m 64.852201,167.88357 c -0.150641,-0.28147 -0.282261,-0.96608 -0.292489,-1.52135 -0.02542,-1.38027 -0.165443,-1.65133 -1.833487,-3.54936 -2.585898,-2.94243 -7.442071,-9.07801 -7.865493,-9.93774 -1.470713,-2.98616 2.738117,-1.65142 5.955087,1.88853 1.057043,1.16318 2.980397,4.06657 3.324795,5.01895 0.303227,0.83852 0.364045,-0.42404 0.196884,-4.08725 -0.212074,-4.64748 0.117077,-3.81702 -3.565467,-8.99584 -2.112723,-2.97115 -3.78422,-5.9561 -4.26034,-7.60807 -0.413805,-1.43576 1.597228,-0.87557 3.468442,0.96617 0.967777,0.95253 3.275259,4.27746 3.275259,4.71943 0,0.12861 0.156004,0.44718 0.346676,0.70794 0.264177,0.36129 0.204514,-0.8702 -0.250719,-5.17495 -0.328567,-3.10698 -0.603634,-5.66725 -0.611259,-5.68949 -0.0076,-0.0222 -0.770445,-0.79614 -1.695154,-1.71979 -0.924709,-0.92365 -2.055803,-2.20324 -2.513542,-2.84354 -2.066661,-2.8909 0.05595,-3.62126 2.560904,-0.88117 l 1.144197,1.2516 -0.178123,-1.32292 c -0.220325,-1.63634 -0.441751,-2.06103 -1.448275,-2.77774 -0.90015,-0.64096 -1.082868,-1.89896 -0.405828,-2.79408 0.213653,-0.28248 0.394002,-0.98984 0.400775,-1.57193 0.03205,-2.7547 1.899513,-3.4372 2.65691,-0.97102 0.164018,0.53406 0.367604,1.14962 0.452414,1.3679 0.08481,0.21828 0.134473,0.48864 0.110362,0.60081 -0.02411,0.11217 0.24486,0.13148 0.597713,0.0429 0.47701,-0.11972 0.714988,-0.0238 0.927876,0.37398 0.487578,0.91105 0.319422,1.80131 -0.507427,2.68645 -0.800431,0.85687 -1.046188,2.10266 -0.564611,2.86213 0.160373,0.25292 0.314543,0.12284 0.561741,-0.47395 0.187387,-0.45239 0.767184,-1.17407 1.288437,-1.60373 0.799348,-0.65889 1.004106,-0.72483 1.307783,-0.42116 0.687755,0.68776 0.12047,2.62914 -1.456847,4.98567 l -1.447553,2.16267 0.285551,2.52804 c 0.484128,4.28608 0.820735,8.28359 0.819975,9.73794 -4e-4,0.76398 0.118336,1.38906 0.263857,1.38906 0.145521,0 0.264583,-0.10727 0.264583,-0.23837 0,-0.1311 0.529058,-0.94217 1.175684,-1.80237 2.013425,-2.67845 4.068776,-3.27447 3.311143,-0.96018 -0.408908,1.24906 -2.747849,5.44488 -3.737726,6.70509 l -0.727392,0.92604 0.162876,4.70497 0.162876,4.70498 1.612207,-1.71791 c 1.548258,-1.64977 3.437459,-2.92682 3.903598,-2.63873 0.745829,0.46094 -0.323468,2.79866 -2.953475,6.45693 -0.995015,1.38404 -1.88813,2.83125 -1.9847,3.21602 -0.210311,0.83794 -1.062979,1.8102 -1.587547,1.8102 -0.207492,0 -0.500511,-0.2303 -0.651151,-0.51178 z"
       id="path28403" />
    <path
       style="fill:#e6c938"
       d="m 76.92553,167.68978 c -0.09701,-0.097 -0.176389,-1.41958 -0.176389,-2.93904 v -2.76266 l -2.518635,-3.55575 c -2.438855,-3.44312 -4.889698,-7.66408 -4.889698,-8.42126 0,-1.93595 4.093863,1.24736 6.06782,4.71822 0.636512,1.1192 0.942689,1.44872 1.106253,1.19062 0.124386,-0.19627 0.22798,-2.94936 0.230209,-6.11796 l 0.0041,-5.7611 -2.419024,-2.56956 c -2.560015,-2.71933 -3.907188,-4.42999 -5.096558,-6.47169 -1.11539,-1.9147 -0.563332,-2.27664 1.713044,-1.12312 1.669528,0.84602 3.20216,2.21793 4.617383,4.13318 l 1.105885,1.49662 0.150359,-5.72109 c 0.108198,-4.1169 0.06367,-5.88242 -0.158802,-6.29642 -0.346669,-0.64512 -2.798303,-2.70289 -4.013328,-3.36857 -1.459101,-0.79941 -3.289936,-2.66777 -3.463224,-3.53421 -0.134408,-0.67204 -0.05871,-0.88209 0.40784,-1.13179 0.634453,-0.33954 1.830353,-0.16354 3.019495,0.4444 1.190702,0.60874 3.120549,2.50547 3.522537,3.46209 0.583,1.38738 0.878976,0.74276 0.878976,-1.91436 v -2.46777 l -1.785937,-1.06607 c -2.099255,-1.25309 -3.320712,-2.4514 -3.889981,-3.81627 -0.397584,-0.95323 -0.391223,-0.99857 0.193855,-1.38193 0.685438,-0.44912 1.772567,-0.33509 2.719288,0.28523 0.549936,0.36033 0.947088,0.88256 2.416487,3.17753 0.263147,0.41099 0.317738,0.21608 0.330729,-1.18086 0.01544,-1.66014 0.0055,-1.68306 -1.283959,-2.95902 -1.460638,-1.44534 -1.772018,-2.11307 -1.351664,-2.8985 0.268005,-0.50078 0.714805,-0.66434 1.526703,-0.55892 0.501486,0.0651 0.396133,-0.73275 -0.208961,-1.58252 l -0.53969,-0.75793 0.53969,-0.53969 c 0.29683,-0.29683 0.53969,-0.65471 0.53969,-0.7953 0,-0.62421 0.937996,-2.13576 1.420364,-2.28886 0.72014,-0.22856 1.344728,0.58899 1.900678,2.48788 0.31396,1.07236 0.370406,1.70564 0.194192,2.17868 -0.360448,0.96759 -0.1608,1.38168 0.496545,1.02988 0.421591,-0.22563 0.604258,-0.18475 0.896283,0.20055 0.677532,0.89396 0.435479,1.60883 -1.071603,3.16484 -1.317291,1.36006 -1.455209,1.61317 -1.455209,2.67062 v 1.16816 l 1.528403,-1.60619 c 1.228755,-1.2913 1.689254,-1.6062 2.348853,-1.6062 2.495856,0 1.448266,2.6009 -2.165151,5.37553 l -1.712105,1.31467 0.02089,2.67417 c 0.01149,1.47079 0.08119,2.5246 0.15489,2.34179 0.0737,-0.1828 0.242895,-0.26507 0.375987,-0.18282 0.133092,0.0823 0.241985,-0.0168 0.241985,-0.2201 0,-0.20331 0.625078,-1.02614 1.389063,-1.82851 1.562,-1.64047 4.146631,-2.90501 4.928987,-2.41151 0.68183,0.43009 0.597388,1.51012 -0.18529,2.3699 -0.389841,0.42825 -1.020963,1.15089 -1.402493,1.60588 -0.38153,0.45498 -1.512624,1.35778 -2.513542,2.00621 -3.2607,2.11241 -3.010854,1.43148 -3.007972,8.19791 l 0.0025,5.87667 0.693977,-1.19062 c 0.830841,-1.42544 3.754906,-4.49883 5.317382,-5.58893 2.183246,-1.5232 4.247629,-1.87584 3.884744,-0.66359 -0.350944,1.17235 -4.653957,6.56549 -7.896035,9.89641 l -1.872782,1.92411 -0.132292,5.52565 c -0.07276,3.03911 -0.06609,5.4845 0.01482,5.43419 0.08091,-0.0503 0.616515,-1.02145 1.190227,-2.15809 1.886639,-3.73783 6.323638,-7.49059 8.856348,-7.49059 0.432584,0 0.786517,0.0654 0.786517,0.14543 0,0.61652 -0.911094,1.88483 -6.167653,8.58582 -1.656048,2.11111 -1.808299,2.29979 -3.555784,4.4064 l -1.124479,1.35558 v 3.81297 c 0,2.61286 -0.09993,3.9129 -0.3175,4.13047 -0.345925,0.34592 -1.077384,0.42192 -1.358194,0.14111 z"
       id="path28379" />
    <path
       style="fill:#e6c938"
       d="m 64.994082,167.97958 c -0.264645,-0.26464 -0.415774,-0.88621 -0.415774,-1.71 0,-1.24989 -0.08907,-1.40106 -2.600193,-4.41287 -4.219228,-5.0605 -6.614243,-8.09071 -7.090556,-8.97108 -1.345938,-2.48771 1.63283,-2.05795 4.703092,0.67853 1.421507,1.26696 3.662418,4.30515 4.180523,5.66787 0.145679,0.38316 0.394046,0.69666 0.551927,0.69666 0.201282,0 0.234809,-1.16613 0.112203,-3.90261 -0.185855,-4.14813 -0.323231,-4.65095 -1.868798,-6.84012 -0.421477,-0.59699 -1.570891,-2.22264 -2.554253,-3.61257 -1.613633,-2.28078 -3.049857,-4.93608 -3.488365,-6.4493 -0.329815,-1.13815 1.385949,-0.91619 2.897059,0.37477 1.043482,0.89145 2.598454,3.00655 3.594827,4.88974 0.876382,1.6564 0.996618,1.78939 0.893226,0.98801 -0.06571,-0.50933 -0.299914,-2.77151 -0.520451,-5.02709 -0.589988,-6.03418 -0.420366,-5.54713 -2.773839,-7.96471 -2.009269,-2.064 -2.915568,-3.40704 -2.915568,-4.32056 0,-1.18745 2.301241,-0.3915 3.380615,1.16928 0.824522,1.19227 1.117929,1.31494 1.115826,0.46651 -0.003,-1.22521 -0.551272,-2.49873 -1.451146,-3.37093 -1.011715,-0.98059 -1.219942,-2.05464 -0.531753,-2.74283 0.228699,-0.2287 0.398527,-0.88138 0.400775,-1.54025 0.0053,-1.54555 0.500619,-2.4663 1.32683,-2.4663 0.769496,0 1.529331,1.30708 1.641729,2.82414 0.06597,0.89045 0.110029,0.93305 0.723842,0.70005 0.744131,-0.28248 1.330782,0.25975 1.330782,1.23001 0,0.59537 -0.67891,1.72906 -1.240802,2.07197 -0.39287,0.23976 -0.481825,2.4518 -0.107891,2.6829 0.131345,0.0812 0.466936,-0.292 0.74576,-0.82928 0.625504,-1.20532 1.723707,-2.0671 2.335176,-1.83245 0.93069,0.35713 0.035,3.0412 -1.925529,5.77011 l -0.952092,1.32524 0.300083,2.42137 c 0.250262,2.01936 0.535209,5.41348 0.925192,11.02032 l 0.06441,0.92604 0.418651,-0.92604 c 0.8962,-1.98237 3.697692,-4.57473 4.444796,-4.11299 0.225135,0.13914 0.02228,1.35539 -0.399152,2.39319 -0.405416,0.99836 -2.782633,4.98173 -3.43743,5.75992 l -0.654822,0.77821 0.175052,4.66844 c 0.09628,2.56764 0.227154,4.72697 0.290836,4.79852 0.06368,0.0716 0.242421,-0.10704 0.3972,-0.39687 0.46436,-0.86953 2.920619,-3.14814 3.912228,-3.62927 0.885518,-0.42966 0.93604,-0.42763 1.154528,0.0464 0.327643,0.71092 -0.694903,2.79003 -2.934331,5.96627 -1.026004,1.45521 -2.061927,3.11791 -2.30205,3.69489 -0.615886,1.47989 -1.130083,1.771 -1.852373,1.04871 z"
       id="path28375" />
    <path
       style="fill:#879964"
       d="m 76.92553,167.68978 c -0.09701,-0.097 -0.176389,-1.41958 -0.176389,-2.93904 v -2.76266 l -2.518635,-3.55575 c -2.438855,-3.44312 -4.889698,-7.66408 -4.889698,-8.42126 0,-1.93595 4.093863,1.24736 6.06782,4.71822 0.636512,1.1192 0.942689,1.44872 1.106253,1.19062 0.124386,-0.19627 0.22798,-2.94936 0.230209,-6.11796 l 0.0041,-5.7611 -2.419024,-2.56956 c -2.560015,-2.71933 -3.907188,-4.42999 -5.096558,-6.47169 -1.11539,-1.9147 -0.563332,-2.27664 1.713044,-1.12312 1.669528,0.84602 3.20216,2.21793 4.617383,4.13318 l 1.105885,1.49662 0.150359,-5.72109 c 0.108198,-4.1169 0.06367,-5.88242 -0.158802,-6.29642 -0.346669,-0.64512 -2.798303,-2.70289 -4.013328,-3.36857 -1.459101,-0.79941 -3.289936,-2.66777 -3.463224,-3.53421 -0.134408,-0.67204 -0.05871,-0.88209 0.40784,-1.13179 0.634453,-0.33954 1.830353,-0.16354 3.019495,0.4444 1.190702,0.60874 3.120549,2.50547 3.522537,3.46209 0.583,1.38738 0.878976,0.74276 0.878976,-1.91436 v -2.46777 l -1.785937,-1.06607 c -2.099255,-1.25309 -3.320712,-2.4514 -3.889981,-3.81627 -0.397584,-0.95323 -0.391223,-0.99857 0.193855,-1.38193 0.685438,-0.44912 1.772567,-0.33509 2.719288,0.28523 0.549936,0.36033 0.947088,0.88256 2.416487,3.17753 0.263147,0.41099 0.317738,0.21608 0.330729,-1.18086 0.01544,-1.66014 0.0055,-1.68306 -1.283959,-2.95902 -1.460638,-1.44534 -1.772018,-2.11307 -1.351664,-2.8985 0.268005,-0.50078 0.714805,-0.66434 1.526703,-0.55892 0.501486,0.0651 0.396133,-0.73275 -0.208961,-1.58252 l -0.53969,-0.75793 0.53969,-0.53969 c 0.29683,-0.29683 0.53969,-0.65471 0.53969,-0.7953 0,-0.62421 0.937996,-2.13576 1.420364,-2.28886 0.72014,-0.22856 1.344728,0.58899 1.900678,2.48788 0.31396,1.07236 0.370406,1.70564 0.194192,2.17868 -0.360448,0.96759 -0.1608,1.38168 0.496545,1.02988 0.421591,-0.22563 0.604258,-0.18475 0.896283,0.20055 0.677532,0.89396 0.435479,1.60883 -1.071603,3.16484 -1.317291,1.36006 -1.455209,1.61317 -1.455209,2.67062 v 1.16816 l 1.528403,-1.60619 c 1.228755,-1.2913 1.689254,-1.6062 2.348853,-1.6062 2.495856,0 1.448266,2.6009 -2.165151,5.37553 l -1.712105,1.31467 0.02089,2.67417 c 0.01149,1.47079 0.08119,2.5246 0.15489,2.34179 0.0737,-0.1828 0.242895,-0.26507 0.375987,-0.18282 0.133092,0.0823 0.241985,-0.0168 0.241985,-0.2201 0,-0.20331 0.625078,-1.02614 1.389063,-1.82851 1.562,-1.64047 4.146631,-2.90501 4.928987,-2.41151 0.68183,0.43009 0.597388,1.51012 -0.18529,2.3699 -0.389841,0.42825 -1.020963,1.15089 -1.402493,1.60588 -0.38153,0.45498 -1.512624,1.35778 -2.513542,2.00621 -3.2607,2.11241 -3.010854,1.43148 -3.007972,8.19791 l 0.0025,5.87667 0.693977,-1.19062 c 0.830841,-1.42544 3.754906,-4.49883 5.317382,-5.58893 2.183246,-1.5232 4.247629,-1.87584 3.884744,-0.66359 -0.350944,1.17235 -4.653957,6.56549 -7.896035,9.89641 l -1.872782,1.92411 -0.132292,5.52565 c -0.07276,3.03911 -0.06609,5.4845 0.01482,5.43419 0.08091,-0.0503 0.616515,-1.02145 1.190227,-2.15809 1.886639,-3.73783 6.323638,-7.49059 8.856348,-7.49059 0.432584,0 0.786517,0.0654 0.786517,0.14543 0,0.61652 -0.911094,1.88483 -6.167653,8.58582 -1.656048,2.11111 -1.808299,2.29979 -3.555784,4.4064 l -1.124479,1.35558 v 3.81297 c 0,2.61286 -0.09993,3.9129 -0.3175,4.13047 -0.345925,0.34592 -1.077384,0.42192 -1.358194,0.14111 z"
       id="path28359" />
    <path
       style="fill:#879964"
       d="m 64.994082,167.97958 c -0.264645,-0.26464 -0.415774,-0.88621 -0.415774,-1.71 0,-1.24989 -0.08907,-1.40106 -2.600193,-4.41287 -4.219228,-5.0605 -6.614243,-8.09071 -7.090556,-8.97108 -1.345938,-2.48771 1.63283,-2.05795 4.703092,0.67853 1.421507,1.26696 3.662418,4.30515 4.180523,5.66787 0.145679,0.38316 0.394046,0.69666 0.551927,0.69666 0.201282,0 0.234809,-1.16613 0.112203,-3.90261 -0.185855,-4.14813 -0.323231,-4.65095 -1.868798,-6.84012 -0.421477,-0.59699 -1.570891,-2.22264 -2.554253,-3.61257 -1.613633,-2.28078 -3.049857,-4.93608 -3.488365,-6.4493 -0.329815,-1.13815 1.385949,-0.91619 2.897059,0.37477 1.043482,0.89145 2.598454,3.00655 3.594827,4.88974 0.876382,1.6564 0.996618,1.78939 0.893226,0.98801 -0.06571,-0.50933 -0.299914,-2.77151 -0.520451,-5.02709 -0.589988,-6.03418 -0.420366,-5.54713 -2.773839,-7.96471 -2.009269,-2.064 -2.915568,-3.40704 -2.915568,-4.32056 0,-1.18745 2.301241,-0.3915 3.380615,1.16928 0.824522,1.19227 1.117929,1.31494 1.115826,0.46651 -0.003,-1.22521 -0.551272,-2.49873 -1.451146,-3.37093 -1.011715,-0.98059 -1.219942,-2.05464 -0.531753,-2.74283 0.228699,-0.2287 0.398527,-0.88138 0.400775,-1.54025 0.0053,-1.54555 0.500619,-2.4663 1.32683,-2.4663 0.769496,0 1.529331,1.30708 1.641729,2.82414 0.06597,0.89045 0.110029,0.93305 0.723842,0.70005 0.744131,-0.28248 1.330782,0.25975 1.330782,1.23001 0,0.59537 -0.67891,1.72906 -1.240802,2.07197 -0.39287,0.23976 -0.481825,2.4518 -0.107891,2.6829 0.131345,0.0812 0.466936,-0.292 0.74576,-0.82928 0.625504,-1.20532 1.723707,-2.0671 2.335176,-1.83245 0.93069,0.35713 0.035,3.0412 -1.925529,5.77011 l -0.952092,1.32524 0.300083,2.42137 c 0.250262,2.01936 0.535209,5.41348 0.925192,11.02032 l 0.06441,0.92604 0.418651,-0.92604 c 0.8962,-1.98237 3.697692,-4.57473 4.444796,-4.11299 0.225135,0.13914 0.02228,1.35539 -0.399152,2.39319 -0.405416,0.99836 -2.782633,4.98173 -3.43743,5.75992 l -0.654822,0.77821 0.175052,4.66844 c 0.09628,2.56764 0.227154,4.72697 0.290836,4.79852 0.06368,0.0716 0.242421,-0.10704 0.3972,-0.39687 0.46436,-0.86953 2.920619,-3.14814 3.912228,-3.62927 0.885518,-0.42966 0.93604,-0.42763 1.154528,0.0464 0.327643,0.71092 -0.694903,2.79003 -2.934331,5.96627 -1.026004,1.45521 -2.061927,3.11791 -2.30205,3.69489 -0.615886,1.47989 -1.130083,1.771 -1.852373,1.04871 z"
       id="path28355" />
    <path
       style="fill:#779459"
       d="m 79.483169,126.20813 c 0,-0.21067 0.337343,-0.52277 0.749652,-0.69356 0.412309,-0.17078 0.749653,-0.41513 0.749653,-0.543 0,-0.12786 0.185621,-0.23248 0.41249,-0.23248 0.226869,0 0.342138,-0.11383 0.256152,-0.25296 -0.08599,-0.13913 0.145113,-0.45048 0.513552,-0.69189 0.756293,-0.49554 0.873098,-0.90724 0.257399,-0.90724 -0.244421,0 -0.335568,0.12447 -0.223702,0.30547 0.116966,0.18925 0.07258,0.23364 -0.116677,0.11667 -0.168005,-0.10383 -0.305464,-0.0627 -0.305464,0.0914 0,0.1541 -0.132756,0.28019 -0.295013,0.28019 -0.183082,0 -0.136664,-0.24167 0.122344,-0.63696 0.375069,-0.57243 0.375959,-0.65286 0.0088,-0.79375 -0.574222,-0.22035 -0.629731,-0.20061 -0.488985,0.17394 0.06835,0.1819 -0.169227,0.68792 -0.527955,1.12448 -0.358729,0.43656 -0.656517,0.66338 -0.66175,0.50403 -0.0052,-0.15935 0.22861,-0.50522 0.519651,-0.76861 0.291042,-0.26339 0.529167,-0.60025 0.529167,-0.74859 0,-0.14833 -0.297656,0.01 -0.661458,0.35171 -0.823275,0.77343 -0.864171,0.50688 -0.06615,-0.43112 1.252988,-1.47276 2.117892,-2.11834 3.657115,-2.72971 1.487143,-0.5907 1.621787,-0.60334 2.034055,-0.19108 0.28027,0.28027 0.324169,0.4415 0.120214,0.4415 -0.176704,0 -0.32128,0.18562 -0.32128,0.41249 0,0.25281 0.122565,0.33674 0.316618,0.21681 0.421143,-0.26028 -0.568054,1.08119 -1.822661,2.47175 -0.754461,0.83621 -4.341048,3.51353 -4.706797,3.51353 -0.02693,0 -0.04896,-0.17237 -0.04896,-0.38304 z"
       id="path28294" />
    <path
       style="fill:#779459"
       d="m 59.088204,141.9495 c -0.444583,-0.71848 -0.41719,-0.9428 0.06615,-0.54166 0.720723,0.59814 0.449685,-0.24091 -0.303218,-0.93868 -0.464458,-0.43044 -0.569034,-0.64882 -0.310704,-0.64882 0.456004,0 1.539964,1.08286 1.539964,1.5384 0,0.17253 0.119062,0.31368 0.264583,0.31368 0.145521,0 0.260963,0.20836 0.256538,0.46302 -0.0077,0.44097 -0.02089,0.44097 -0.277731,0 -0.332749,-0.5713 -0.70544,-0.59733 -0.819302,-0.0572 -0.06836,0.32424 -0.152001,0.29838 -0.416276,-0.1287 z"
       id="path28293" />
    <path
       style="fill:#779459"
       d="m 76.431641,117.54242 c 0.432119,-0.43212 0.399042,-0.74083 -0.07937,-0.74083 -0.218281,0 -0.396875,0.12898 -0.396875,0.28663 0,0.15765 -0.148828,0.23206 -0.330729,0.16536 -0.181901,-0.0667 -0.296095,-0.26982 -0.253764,-0.45138 0.04791,-0.20547 -0.08363,-0.26849 -0.348362,-0.1669 -0.368343,0.14135 -0.402911,-0.0134 -0.258016,-1.15469 0.152346,-1.20002 0.103139,-1.37737 -0.550169,-1.98283 -0.394614,-0.36572 -0.967985,-0.65307 -1.274157,-0.63857 -0.504277,0.0239 -0.497132,0.043 0.0759,0.20355 0.347919,0.0975 0.808926,0.44277 1.024459,0.76738 0.350195,0.52742 0.347114,0.5902 -0.02896,0.5902 -0.272282,0 -0.365022,0.14547 -0.262713,0.41208 0.08697,0.22664 0.301516,0.35706 0.476766,0.28981 0.175249,-0.0673 0.318635,0.045 0.318635,0.24938 0,0.59615 -0.607066,0.42908 -1.083624,-0.29824 -0.241411,-0.36844 -0.552761,-0.59954 -0.691888,-0.51356 -0.139128,0.086 -0.25296,0.0232 -0.25296,-0.13947 0,-0.1627 -0.137099,-0.21108 -0.304665,-0.10752 -0.218587,0.13509 -0.19342,0.27032 0.08907,0.47863 0.216556,0.15969 0.54138,0.56747 0.721831,0.90618 0.180451,0.33871 0.482523,0.55657 0.671272,0.48414 0.188748,-0.0724 0.495217,0.1524 0.681043,0.49962 0.185825,0.34722 0.425492,0.57715 0.532592,0.51096 0.1071,-0.0662 0.34186,0.0569 0.521687,0.27361 0.395831,0.47695 0.587873,0.49159 1.002999,0.0765 z"
       id="path28282" />
    <path
       style="fill:#779459"
       d="m 75.06606,124.37353 c -0.400583,-0.32383 -0.761943,-1.48653 -0.462004,-1.48653 0.102643,0 0.47845,0.47305 0.835125,1.05122 0.356676,0.57817 0.736698,1.05442 0.844494,1.05833 0.107795,0.004 -0.162084,-0.57483 -0.599731,-1.28609 -0.68184,-1.10813 -1.491607,-1.73103 -2.150572,-1.65428 -0.09518,0.0111 -0.333309,-0.17749 -0.529167,-0.41905 -0.195858,-0.24156 -0.219753,-0.3575 -0.0531,-0.25764 0.166653,0.0999 0.374263,-0.004 0.461356,-0.2311 0.121249,-0.31597 0.03515,-0.37355 -0.367485,-0.24576 -0.388929,0.12344 -0.487607,0.0673 -0.379003,-0.21575 0.09869,-0.25719 -0.131662,-0.47973 -0.702606,-0.67876 -1.049929,-0.36601 -1.379569,-0.37491 -1.16735,-0.0315 0.08994,0.14552 0.387593,0.26458 0.661459,0.26458 0.273865,0 0.560891,0.10186 0.637836,0.22636 0.204715,0.33124 -1.251942,0.0304 -1.564835,-0.32317 -0.290405,-0.32816 -0.925085,-0.5221 -0.925085,-0.28267 0,0.0823 0.130942,0.39435 0.290981,0.69339 0.211585,0.39535 0.211585,0.49463 0,0.36386 -0.160039,-0.0989 -0.290981,-0.0579 -0.290981,0.0911 0,0.14899 0.238125,0.39833 0.529167,0.55409 0.451765,0.24177 0.529167,0.20121 0.529167,-0.27733 0,-0.3337 0.13383,-0.51372 0.330729,-0.44488 0.181901,0.0636 0.300382,0.29146 0.263292,0.50633 -0.102669,0.59481 1.287139,1.68569 2.016182,1.58254 0.788107,-0.11151 1.222569,0.3052 0.970303,0.93066 -0.17309,0.42915 -0.222745,0.40974 -0.462188,-0.18066 -0.158642,-0.39116 -0.319225,-0.52563 -0.392973,-0.32908 -0.06859,0.18281 -0.263367,0.26304 -0.432839,0.17828 -0.169472,-0.0847 -0.01047,0.09 0.353327,0.38825 0.363802,0.2983 0.832785,0.71999 1.042184,0.93711 0.282098,0.29249 0.471347,0.31954 0.730539,0.10443 0.289215,-0.24003 0.286406,-0.34157 -0.01622,-0.58621 z"
       id="path28281" />
    <path
       style="fill:#779459"
       d="m 83.164352,138.28472 c 0.354761,-0.30463 0.392159,-0.48105 0.161014,-0.75956 -0.241317,-0.29077 -0.20626,-0.32639 0.17663,-0.17946 0.280163,0.10751 0.412897,0.0785 0.320988,-0.0703 -0.08619,-0.13946 0.251463,-0.65266 0.750346,-1.14045 0.561155,-0.54868 0.907061,-1.14262 0.907061,-1.55748 0,-0.6603 -0.0076,-0.66278 -0.495333,-0.16128 -0.272432,0.28012 -0.443999,0.59861 -0.38126,0.70775 0.103948,0.18083 -0.298248,0.30289 -0.767531,0.23295 -0.103904,-0.0155 -0.120931,0.149 -0.03784,0.36554 0.08309,0.21653 0.01928,0.3937 -0.141813,0.3937 -0.16109,0 -0.292891,-0.29766 -0.292891,-0.66146 0,-0.3777 0.152664,-0.66146 0.355868,-0.66146 0.195727,0 0.58268,-0.26584 0.859896,-0.59075 0.41032,-0.48092 0.417944,-0.52409 0.04101,-0.23219 -0.254662,0.19722 -0.463021,0.24732 -0.463021,0.11135 0,-0.23495 1.416387,-1.40507 1.700774,-1.40507 0.07409,0 0.06138,0.20836 -0.02823,0.46302 -0.130089,0.36969 -0.09358,0.39885 0.181128,0.14467 0.240132,-0.22218 0.492794,-0.23874 0.836468,-0.0548 0.270826,0.14494 0.476611,0.16913 0.457301,0.0538 -0.08676,-0.51838 0.04867,-0.8894 0.273857,-0.75023 0.359879,0.22241 0.654337,-0.38452 0.339362,-0.6995 -0.375928,-0.37593 -1.114068,-0.0876 -3.000387,1.17205 -1.378521,0.92054 -1.555435,1.12209 -1.131054,1.28858 0.445252,0.17467 0.449855,0.19948 0.04005,0.21594 -0.254662,0.0102 -0.504253,-0.0112 -0.554648,-0.0476 -0.188453,-0.13604 -0.955623,0.66378 -0.830643,0.866 0.20636,0.3339 -0.164024,1.06618 -0.449902,0.8895 -0.142114,-0.0878 -0.221907,0.0617 -0.177317,0.33225 0.04459,0.27057 -0.01228,0.64077 -0.126375,0.82267 -0.337011,0.53729 0.04865,0.89977 0.627633,0.58991 0.409566,-0.2192 0.477398,-0.19388 0.352511,0.13157 -0.08505,0.22165 -0.327527,0.403 -0.538827,0.403 -0.211301,0 -0.309398,0.121 -0.217994,0.2689 0.176872,0.28618 0.506624,0.15946 1.253169,-0.4816 z"
       id="path28280" />
    <path
       style="fill:#779459"
       d="m 73.706433,139.44873 c 0,-0.34991 -0.08107,-0.58609 -0.180155,-0.52485 -0.09909,0.0612 -0.256764,-0.0126 -0.350396,-0.16412 -0.09363,-0.1515 -0.07209,-0.2584 0.04786,-0.23756 0.489247,0.085 0.879562,-0.0397 0.879562,-0.28106 0,-0.14095 -0.166551,-0.19237 -0.370112,-0.11425 -0.203562,0.0781 -0.461219,-0.005 -0.572571,-0.18556 -0.141262,-0.22857 -0.06938,-0.27652 0.237821,-0.15864 0.260877,0.10011 0.443707,0.0376 0.448693,-0.15347 0.0046,-0.17733 0.183245,-0.0913 0.396926,0.19123 0.384295,0.50809 1.325834,0.85891 1.032846,0.38484 -0.08351,-0.13512 -0.26267,-0.17717 -0.398135,-0.0934 -0.135466,0.0837 -0.246302,0.0322 -0.246302,-0.11456 0,-0.14673 -0.386953,-0.64992 -0.859895,-1.11819 -0.472943,-0.46827 -0.621771,-0.68472 -0.330729,-0.48099 l 0.529166,0.37041 -0.529166,-0.62184 -0.529167,-0.62183 -0.08586,1.01983 c -0.04722,0.56091 -0.225815,1.10886 -0.396875,1.21766 -0.232401,0.14782 -0.227419,0.19884 0.01971,0.20187 0.181901,0.002 0.330729,0.20816 0.330729,0.45762 0,0.42673 -0.0271,0.42648 -0.457848,-0.004 -0.380271,-0.38027 -0.402307,-0.54679 -0.13005,-0.98274 0.195197,-0.31256 0.219862,-0.52489 0.06097,-0.52489 -0.146754,0 -0.266826,0.11906 -0.266826,0.26458 0,0.14552 -0.131801,0.26459 -0.292891,0.26459 -0.161089,0 -0.231972,-0.15875 -0.157517,-0.35278 0.07446,-0.19403 -0.03187,-0.35278 -0.236276,-0.35278 -0.204407,0 -0.371649,0.0538 -0.371649,0.11963 0,0.18296 2.495075,3.22965 2.645833,3.23077 0.07276,5.5e-4 0.132292,-0.2853 0.132292,-0.6352 z"
       id="path28279" />
    <path
       style="fill:#779459"
       d="m 78.266121,134.46029 c 0.04518,-4.49723 -0.01304,-5.97162 -0.216687,-5.48787 -0.153152,0.3638 -0.230787,0.99262 -0.172521,1.39738 0.05826,0.40475 0.01611,0.64287 -0.09368,0.52916 -0.109791,-0.11371 -0.250474,-0.56394 -0.312628,-1.0005 -0.06215,-0.43656 -0.15069,1.49821 -0.196748,4.29948 -0.04606,2.80128 -0.09366,5.30159 -0.105788,5.55625 -0.01213,0.25466 0.126779,0.43326 0.30868,0.39688 0.181901,-0.0364 0.330729,0.0529 0.330729,0.19843 0,0.14552 -0.119062,0.26459 -0.264583,0.26459 -0.145521,0 -0.264583,0.17742 -0.264583,0.39428 0,0.34848 0.0538,0.34822 0.46302,-0.002 0.412786,-0.3535 0.469723,-1.06369 0.524793,-6.54585 z"
       id="path28278" />
    <path
       style="fill:#779459"
       d="m 80.645604,141.06136 c 0.254442,-0.26332 0.475724,-0.6205 0.491738,-0.79375 0.07828,-0.84684 0.130031,-0.97644 0.389914,-0.97644 0.154109,0 0.206613,0.11906 0.116676,0.26458 -0.08994,0.14552 -0.03743,0.26459 0.116677,0.26459 0.372767,0 0.35523,-0.34831 -0.0373,-0.74084 -0.469199,-0.4692 -0.664783,-0.39194 -0.847139,0.33462 -0.109406,0.43591 -0.293795,0.60219 -0.556145,0.50152 -0.249644,-0.0958 -0.473526,0.0685 -0.61519,0.45145 -0.147504,0.39874 -0.287801,0.49674 -0.415448,0.2902 -0.143347,-0.23194 -0.290105,-0.21447 -0.572738,0.0682 -0.497768,0.49777 -0.487494,0.97161 0.01687,0.77807 0.368608,-0.14145 0.53246,0.28129 0.424401,1.09494 -0.01933,0.14552 0.203407,-0.0331 0.494963,-0.39687 0.291556,-0.36381 0.738281,-0.87691 0.992724,-1.14023 z"
       id="path28277" />
    <path
       style="fill:#779459"
       d="m 79.828461,156.35679 c -0.08376,-0.21828 -0.05651,-0.39687 0.06056,-0.39687 0.117072,0 0.760597,-0.42674 1.430056,-0.94831 0.835775,-0.65115 1.166932,-1.0793 1.056791,-1.36632 -0.09457,-0.24646 -0.05057,-0.35013 0.107216,-0.25261 0.147193,0.091 0.673442,-0.26457 1.169442,-0.79008 0.496001,-0.52552 0.752992,-0.87104 0.571091,-0.76784 -0.59219,0.33598 -0.353593,-0.002 0.994904,-1.40818 0.729099,-0.76044 1.506063,-1.73153 1.726587,-2.15797 0.220523,-0.42645 0.491286,-0.77536 0.601694,-0.77536 0.177283,0 1.108585,-1.37619 1.108585,-1.63816 0,-0.0557 -0.238125,-0.11925 -0.529166,-0.14117 -0.291042,-0.0219 -0.529167,0.0788 -0.529167,0.22389 0,0.14507 -0.09738,0.20357 -0.21641,0.13001 -0.119025,-0.0736 -0.541723,0.1679 -0.939327,0.53658 -0.575454,0.53359 -0.659629,0.74658 -0.412652,1.04417 0.222859,0.26853 0.226602,0.37385 0.01329,0.37385 -0.163339,0 -0.29698,-0.11906 -0.29698,-0.26458 0,-0.42254 -0.695392,-0.30597 -1.092082,0.18308 -0.246739,0.30418 -0.257123,0.38398 -0.0324,0.24897 0.563449,-0.33851 0.364,0.2382 -0.297205,0.85937 -0.569403,0.53492 -0.666479,0.55137 -1.041464,0.17638 -0.445363,-0.44536 -0.884253,-0.10872 -0.554295,0.42516 0.116967,0.18926 0.07258,0.23364 -0.116677,0.11668 -0.194171,-0.12001 -0.305463,0.0154 -0.305463,0.37161 0,0.30821 0.119062,0.48681 0.264583,0.39687 0.145521,-0.0899 0.264583,-0.0235 0.264583,0.14754 0,0.18568 -0.223836,0.25252 -0.555337,0.16583 -0.305436,-0.0799 -0.48588,-0.0758 -0.400988,0.009 0.08489,0.0849 -0.04174,0.29773 -0.281402,0.47297 -0.697179,0.5098 -0.253328,1.23609 0.636605,1.04171 0.411424,-0.0899 0.605386,-0.0637 0.441798,0.0597 -0.16039,0.12091 -0.501378,0.66632 -0.757752,1.21202 -0.502649,1.06992 -0.925737,1.30572 -0.86364,0.48136 0.02116,-0.28096 0.145583,-0.44465 0.276486,-0.36375 0.37637,0.23261 -0.105064,-1.03757 -0.566393,-1.49433 -0.373306,-0.36961 -0.395968,-0.36343 -0.234137,0.0638 0.114327,0.30184 0.0377,0.52733 -0.211722,0.62304 -0.214992,0.0825 -0.325021,0.25659 -0.244508,0.38686 0.08051,0.13027 0.03418,0.23686 -0.102953,0.23686 -0.137136,0 -0.31161,0.23812 -0.387719,0.52917 -0.08994,0.34392 -0.0081,0.52916 0.233724,0.52916 0.204658,0 0.372105,0.18562 0.372105,0.41249 0,0.22687 -0.119062,0.33891 -0.264583,0.24897 -0.145521,-0.0899 -0.264583,-0.0304 -0.264583,0.13229 0,0.1627 -0.119063,0.22223 -0.264584,0.13229 -0.29141,-0.1801 -0.3707,0.73173 -0.08819,1.01424 0.326902,0.3269 0.675239,0.17968 0.521681,-0.22049 z"
       id="path28276" />
    <path
       style="fill:#779459"
       d="m 75.402423,157.9937 c 0.518802,0.13567 0.972057,-0.58414 0.537097,-0.85297 -0.141539,-0.0875 -0.182864,-0.27955 -0.09183,-0.42684 0.09103,-0.14729 -0.167628,-0.61553 -0.574796,-1.04052 -0.407169,-0.42499 -0.78077,-1.03785 -0.830224,-1.3619 -0.04945,-0.32406 -0.223039,-0.7108 -0.385745,-0.85943 -0.21086,-0.19263 -0.234941,-0.16351 -0.08384,0.10136 0.138879,0.24346 0.110627,0.30897 -0.08192,0.18997 -0.161649,-0.0999 -0.232339,-0.34209 -0.157088,-0.53819 0.164623,-0.429 -1.165331,-1.54254 -1.554826,-1.30182 -0.150901,0.0933 -0.197749,0.0456 -0.104107,-0.10591 0.09364,-0.15152 -0.007,-0.42262 -0.223703,-0.60245 -0.294875,-0.24472 -0.393961,-0.24834 -0.393961,-0.0144 0,0.17192 -0.121005,0.23781 -0.2689,0.1464 -0.147894,-0.0914 -0.200399,-0.27702 -0.116676,-0.41249 0.08372,-0.13546 0.03464,-0.2463 -0.109077,-0.2463 -0.143715,0 -0.448398,-0.1871 -0.677074,-0.41577 -0.258571,-0.25857 -0.415773,-0.29833 -0.415773,-0.10514 0,0.44165 1.378245,2.9574 1.852083,3.38065 0.352778,0.31511 0.352778,0.33141 0,0.14668 -0.294948,-0.15445 -0.266356,-0.007 0.11133,0.57569 0.279513,0.43093 0.755763,1.169 1.058333,1.64014 0.313784,0.4886 0.777467,0.85977 1.079295,0.86395 0.35834,0.005 0.423716,0.0743 0.202515,0.2148 -0.250983,0.15942 -0.224158,0.35382 0.1158,0.83917 0.24335,0.34743 0.485349,0.50301 0.537776,0.34573 0.05243,-0.15729 0.31132,-0.22949 0.575316,-0.16045 z"
       id="path28275" />
    <path
       style="fill:#779459"
       d="m 78.319864,162.12286 c 0.02359,-1.70361 0.166405,-3.2463 0.317377,-3.42821 0.194357,-0.23419 0.151925,-0.50574 -0.145344,-0.93015 -0.230912,-0.32968 -0.419839,-0.46088 -0.419839,-0.29157 0,0.16931 0.131774,0.38928 0.292831,0.48882 0.208291,0.12873 0.210349,0.23196 0.0071,0.35756 -0.38695,0.23914 -0.744236,6.90103 -0.370112,6.90103 0.172274,0 0.291103,-1.15761 0.317959,-3.09748 z"
       id="path28274" />
    <path
       style="fill:#779459"
       d="m 76.874945,167.53544 c -0.06719,-0.1819 -0.08507,-1.40229 -0.03972,-2.71198 0.04535,-1.30969 -0.0313,-2.61937 -0.170333,-2.91042 -0.139033,-0.29104 -1.35233,-2.07698 -2.696215,-3.96875 -2.201949,-3.09965 -4.627872,-7.33553 -4.627872,-8.08068 0,-0.16466 0.366923,-0.25184 0.859896,-0.20431 0.49922,0.0481 0.833483,0.21764 0.796924,0.40412 -0.03464,0.17666 0.09603,0.26019 0.290363,0.18562 0.533603,-0.20476 3.053578,2.69319 4.360556,5.01461 0.987902,1.75469 1.098813,2.09973 0.793749,2.46934 -0.278232,0.33711 -0.283376,0.45363 -0.02388,0.54096 0.181901,0.0612 0.330729,0.33952 0.330729,0.61843 0,0.5547 0.420686,0.71131 0.47383,0.17639 0.06357,-0.63983 0.289217,-1.92982 0.529668,-3.028 0.133643,-0.61038 0.144283,-1.20849 0.02364,-1.32913 -0.12064,-0.12064 -0.255521,-2.12155 -0.299735,-4.44647 l -0.08039,-4.22713 -0.05893,5.20991 c -0.03531,3.12185 -0.164966,5.27544 -0.323508,5.37343 -0.173517,0.10724 -0.265977,-2.00468 -0.268634,-6.13595 -0.0022,-3.46471 -0.09153,-6.43451 -0.198438,-6.59957 -0.106912,-0.16505 -1.186724,-1.37228 -2.399581,-2.68274 -2.691176,-2.90773 -4.133611,-4.80101 -4.841311,-6.35451 -0.775846,-1.70309 -0.38641,-1.8835 1.772021,-0.82091 1.437853,0.70786 2.138332,1.2932 3.596197,3.00513 1.702175,1.99882 2.339949,3.02705 1.387013,2.23619 -0.648594,-0.53829 -1.163933,-0.51811 -1.163933,0.0456 0,0.5261 -0.387744,0.68405 -0.647492,0.26377 -0.08226,-0.13309 1.5e-5,-0.29538 0.182822,-0.36065 0.182808,-0.0653 0.241097,-0.21633 0.129531,-0.33569 -0.111566,-0.11936 -0.338692,-0.0812 -0.504724,0.0849 -0.226114,0.22611 -0.222235,0.39784 0.01545,0.68423 0.24717,0.29782 0.245791,0.40621 -0.0062,0.49022 -0.190316,0.0634 0.192331,0.63116 0.929165,1.37857 0.689002,0.6989 1.330531,1.19293 1.42562,1.09784 0.09509,-0.0951 -0.123713,-0.43598 -0.486226,-0.75754 -0.446625,-0.39616 -0.6562,-0.85476 -0.650075,-1.42249 0.0106,-0.98216 0.337586,-1.42061 0.664718,-0.8913 0.175197,0.28348 0.316771,0.30021 0.5939,0.0702 0.284156,-0.23583 0.380273,-1.57613 0.438756,-6.1182 l 0.07489,-5.8162 -1.278487,-1.24091 c -0.703167,-0.68249 -1.916024,-1.65398 -2.695238,-2.15886 -2.224743,-1.44149 -4.067928,-3.33906 -3.963058,-4.07999 0.08048,-0.56861 0.21466,-0.62225 1.543352,-0.61707 1.292584,0.005 1.624329,0.13097 2.968553,1.12691 0.83234,0.61667 1.653836,1.38803 1.825547,1.71411 0.171711,0.32609 0.386097,0.65242 0.476415,0.72518 0.285101,0.22968 0.910239,1.70819 0.839025,1.98437 -0.03752,0.14552 0.031,0.16531 0.152265,0.044 0.223163,-0.22329 0.142943,-6.48717 -0.08787,-6.86131 -0.0688,-0.11152 -0.228073,-0.13911 -0.35395,-0.0613 -0.403562,0.24942 -2.474368,-1.00483 -3.738978,-2.26462 -1.203117,-1.19853 -1.853218,-2.69973 -1.375853,-3.1771 0.805657,-0.80566 3.090238,-0.002 3.902403,1.37306 0.24527,0.41521 0.850056,1.28434 1.343969,1.9314 0.583671,0.76465 0.787435,1.22146 0.582102,1.30499 -0.173756,0.0707 -0.06077,0.13791 0.251086,0.1494 0.84193,0.031 1.01957,-0.72981 0.217406,-0.93114 -0.623996,-0.15661 -0.653021,-0.25657 -0.673008,-2.3178 -0.01149,-1.18477 -0.08472,-1.99396 -0.162741,-1.7982 -0.237414,0.59571 -2.462204,-1.77851 -2.462204,-2.62758 0,-1.02071 0.590543,-1.42283 1.581973,-1.07722 0.830864,0.28965 1.028122,0.11167 0.481777,-0.43467 -0.174625,-0.17463 -0.220025,-0.3175 -0.100889,-0.3175 0.119137,0 -0.101235,-0.41672 -0.489715,-0.92604 -0.388479,-0.50933 -0.574177,-0.92605 -0.412663,-0.92605 0.161515,0 0.210193,-0.13505 0.108173,-0.30012 -0.128494,-0.20791 0.06995,-0.26264 0.645844,-0.17812 0.804206,0.11803 0.830312,0.0911 0.800029,-0.82435 l -0.0313,-0.94636 -0.191715,0.79375 c -0.150299,0.62228 -0.233408,0.69888 -0.384714,0.35461 -0.229676,-0.5226 0.443697,-1.93879 1.09522,-2.3034 0.284688,-0.15932 0.62949,-0.16256 0.917147,-0.009 0.507937,0.27184 1.362895,2.78771 1.094767,3.22155 -0.09726,0.15738 -0.03935,0.19293 0.136856,0.084 0.437419,-0.27034 0.382986,0.51256 -0.100664,1.44783 -0.44936,0.86897 -0.365228,0.95528 1.067586,1.09521 1.349245,0.13178 1.194035,1.02587 -0.484298,2.78981 -1.359979,1.42935 -1.452805,1.61231 -1.539796,3.03484 l -0.09257,1.5138 0.647805,-0.85234 c 1.110688,-1.46136 2.722271,-2.83671 3.323961,-2.83671 0.317035,0 0.792113,0.23833 1.055729,0.52962 0.462985,0.5116 0.462129,0.56243 -0.02514,1.49333 -0.471268,0.90034 -4.150455,4.32705 -4.645857,4.32705 -0.123314,0 -0.246707,1.10133 -0.274206,2.4474 l -0.05,2.44739 -0.148439,-2.38125 c -0.157008,-2.51872 -0.464618,-2.37769 -0.432178,0.19814 0.01054,0.83659 -0.07014,1.5212 -0.179282,1.52136 -0.10914,1.6e-4 -0.190069,0.26818 -0.179841,0.59561 0.01774,0.56803 0.02902,0.57106 0.245987,0.0661 0.183261,-0.42647 0.231,-0.33964 0.245987,0.44741 0.01023,0.53711 0.116115,1.03684 0.235305,1.1105 0.11919,0.0737 0.173863,-0.24673 0.121495,-0.71199 l -0.09521,-0.84592 0.389918,0.84805 c 0.581492,1.26471 0.672571,2.29246 0.253898,2.86503 -0.555163,0.75923 -0.501741,12.73519 0.05681,12.73519 0.208616,0 0.379301,-0.0992 0.379301,-0.22049 0,-0.12127 -0.119062,-0.22049 -0.264583,-0.22049 -0.364708,0 -0.333778,-0.71975 0.04088,-0.9513 0.202124,-0.12492 0.233049,-0.0716 0.09141,0.15755 -0.142702,0.2309 -0.110793,0.28253 0.09573,0.15489 0.170378,-0.1053 0.236958,-0.30928 0.147955,-0.45329 -0.429399,-0.69478 3.327252,-4.67225 5.826169,-6.16863 1.735553,-1.03928 3.058273,-1.24409 3.058273,-0.47355 0,0.64829 -0.969326,2.01718 -4.258966,6.01454 -2.422767,2.94399 -6.379026,7.1257 -5.256692,5.55625 0.374492,-0.52368 0.372291,-0.52394 -0.212339,-0.0251 -0.618067,0.52734 -0.796575,0.84503 -0.30362,0.54037 0.204239,-0.12622 0.261527,1.58068 0.198438,5.91251 -0.08311,5.70678 0.03076,7.15827 0.388589,4.95322 0.257961,-1.58963 2.641811,-5.19798 4.528122,-6.85407 2.480835,-2.17806 5.710218,-3.49962 5.710218,-2.3368 0,0.5953 -0.213695,0.90016 -4.160671,5.93549 -2.479628,3.16338 -3.367736,4.12173 -3.716029,4.00994 -0.386387,-0.12401 -0.395857,-0.10315 -0.0608,0.13394 0.342724,0.24251 0.315648,0.36224 -0.198437,0.8775 -0.327422,0.32817 -0.595313,0.45818 -0.595313,0.28891 0,-0.16927 0.119063,-0.38135 0.264584,-0.47129 0.145521,-0.0899 0.260797,-0.30532 0.256168,-0.47863 -0.0046,-0.17331 -0.18378,-0.0832 -0.398115,0.20017 -0.214336,0.28341 -0.333429,0.70013 -0.264651,0.92604 0.06949,0.22826 -0.282619,0.86456 -0.792509,1.43216 l -0.91756,1.0214 v 3.78835 c 0,3.09117 -0.07652,3.86486 -0.415774,4.20411 -0.499385,0.49939 -1.142041,0.5411 -1.310505,0.085 z"
       id="path28273" />
    <path
       style="fill:#779459"
       d="m 62.804361,121.58928 c -0.02978,-0.64098 -0.178613,-1.28987 -0.330729,-1.44198 -0.299798,-0.2998 -0.366971,0.0834 -0.283109,1.61519 0.02589,0.47295 -0.06996,0.8599 -0.213006,0.8599 -0.143047,0 -0.192945,-0.25674 -0.110885,-0.57054 0.09724,-0.37185 0.04913,-0.5087 -0.138146,-0.39295 -0.166266,0.10276 -0.336011,-0.0749 -0.40284,-0.42165 -0.06352,-0.32958 -0.111809,-0.0871 -0.107305,0.53873 0.008,1.11065 0.02778,1.13606 0.824183,1.05834 0.785612,-0.0767 0.813976,-0.12303 0.761837,-1.24504 z"
       id="path28251" />
    <path
       style="fill:#779459"
       d="m 64.874224,132.34583 c 0.01723,-0.1819 0.01965,-0.41277 0.0054,-0.51305 -0.01428,-0.10027 0.188273,-0.2503 0.45011,-0.33341 0.532284,-0.16894 1.458394,-1.89766 1.221745,-2.28057 -0.08376,-0.13552 -0.03785,-0.24641 0.102024,-0.24641 0.315577,0 0.882349,-1.56182 0.68352,-1.88353 -0.225329,-0.36459 -1.89427,1.03678 -2.070376,1.73844 -0.08629,0.3438 -0.223771,0.79939 -0.305515,1.01241 -0.08346,0.21749 0.03808,0.45896 0.277197,0.55072 0.234202,0.0899 0.358165,0.0539 0.275473,-0.0799 -0.08269,-0.1338 -0.02934,-0.31806 0.11855,-0.40946 0.596537,-0.36868 0.21725,0.51857 -0.524851,1.22776 -0.436563,0.4172 -0.79375,0.93611 -0.79375,1.15312 0,0.47557 0.515926,0.53434 0.560499,0.0638 z"
       id="path28250" />
    <path
       style="fill:#779459"
       d="m 68.355983,147.65493 c 0.225969,0.22596 2.091845,-3.57304 1.904095,-3.87683 -0.28002,-0.45308 -0.641984,-0.27372 -1.884371,0.93377 -1.024465,0.99569 -1.168104,1.252 -0.889661,1.5875 0.307316,0.37029 0.186671,0.51771 -0.347717,0.42488 -0.119957,-0.0208 -0.141495,0.0861 -0.04786,0.23757 0.09363,0.1515 0.269972,0.21381 0.391866,0.13848 0.121895,-0.0753 0.152552,0.13108 0.06813,0.4587 -0.130707,0.50723 -0.09396,0.54691 0.247456,0.26725 0.220526,-0.18064 0.471657,-0.25774 0.558068,-0.17132 z"
       id="path28249" />
    <path
       style="fill:#779459"
       d="m 65.671509,158.08384 c 0.199328,0.2864 0.226138,0.17936 0.101224,-0.40416 -0.09346,-0.43656 -0.32527,-1.74625 -0.515142,-2.91042 -0.189871,-1.16416 -0.374953,-1.93807 -0.411292,-1.71979 -0.03634,0.21828 -0.04082,0.51594 -0.01,0.66146 0.03086,0.14552 0.04784,1.6338 0.03773,3.30729 -0.02048,3.38951 0.314853,5.18538 0.445995,2.38854 0.05922,-1.26287 0.151492,-1.61022 0.351444,-1.32292 z"
       id="path28248" />
    <path
       style="fill:#779459"
       d="m 63.019603,160.7378 c 0.936521,0.50121 1.03448,0.14955 0.362176,-1.30018 -0.426031,-0.91868 -0.781507,-1.36935 -1.010724,-1.28139 -0.201953,0.0775 -0.548395,-0.19414 -0.807908,-0.63346 -0.249886,-0.42302 -0.332282,-0.76913 -0.183101,-0.76913 0.149181,0 0.202968,-0.17791 0.119526,-0.39536 -0.08344,-0.21744 -0.228533,-0.35859 -0.322425,-0.31366 -0.26404,0.12636 -1.329884,-1.08492 -1.136014,-1.29101 0.09435,-0.10031 -0.09532,-0.10035 -0.421493,-1.1e-4 -1.086,0.33378 -1.920498,0.42544 -1.920498,0.21094 0,-0.11663 0.317836,-0.23836 0.706303,-0.27051 0.914177,-0.0757 0.990765,-0.17418 0.50952,-0.65542 -0.218281,-0.21828 -0.323169,-0.47058 -0.233085,-0.56066 0.09008,-0.0901 0.03138,-0.16379 -0.130454,-0.16379 -0.161833,0 -0.449568,0.31863 -0.639409,0.70806 -0.376369,0.77208 -1.118708,1.2148 -0.846206,0.50467 0.09004,-0.23463 0.02503,-0.41898 -0.147726,-0.41898 -0.169679,0 -0.223552,-0.13746 -0.119719,-0.30547 0.114297,-0.18494 0.07285,-0.23381 -0.105036,-0.12387 -0.16334,0.10095 -0.210869,0.39102 -0.107026,0.65317 0.282106,0.7122 1.283604,1.89283 1.605634,1.89283 0.15639,0 0.225043,0.15455 0.15256,0.34343 -0.122176,0.31839 1.027529,1.64095 1.426481,1.64095 0.09742,0 0.177941,0.16001 0.178943,0.35558 10e-4,0.19557 0.282083,0.58252 0.624624,0.85989 0.342541,0.27738 0.529327,0.50432 0.415079,0.50432 -0.114249,0 0.07459,0.30051 0.419642,0.6678 0.531635,0.5659 0.661947,0.60601 0.853996,0.26283 0.176294,-0.31502 0.344285,-0.342 0.75634,-0.12147 z"
       id="path28247" />
    <path
       style="fill:#779459"
       d="m 67.493402,164.36041 c -0.390933,0.80842 -0.168145,0.75191 0.389212,-0.0987 0.250112,-0.38172 0.307891,-0.60327 0.128397,-0.49234 -0.212407,0.13127 -0.28169,0.0734 -0.198433,-0.16586 0.07036,-0.20216 0.29578,-0.33904 0.500943,-0.30418 0.356576,0.0606 1.967872,-2.2537 1.732788,-2.48878 -0.184187,-0.18419 -0.970084,0.71163 -0.970084,1.10577 0,0.1993 -0.09472,0.4209 -0.210482,0.49244 -0.115765,0.0716 -0.205062,-0.17941 -0.198437,-0.55768 0.0066,-0.37828 0.160872,-0.73737 0.342773,-0.79798 0.181901,-0.0606 0.330729,-0.29276 0.330729,-0.51589 0,-0.27542 0.169911,-0.36125 0.529167,-0.26731 0.343922,0.0899 0.529166,0.008 0.529166,-0.23372 0,-0.20466 0.229115,-0.60122 0.509144,-0.88125 0.570138,-0.57014 0.810818,-1.45405 0.412562,-1.51517 -0.143136,-0.022 -0.557904,0.13444 -0.921706,0.34757 -0.363802,0.21313 -0.446915,0.32177 -0.184695,0.24141 0.277471,-0.085 0.409192,-0.0368 0.315114,0.11545 -0.08891,0.14385 -0.422512,0.26338 -0.741346,0.2656 -0.424181,0.003 -0.483801,0.0648 -0.222236,0.23058 0.266544,0.16891 0.150318,0.31821 -0.456969,0.58702 -0.635101,0.28112 -0.790277,0.49371 -0.704734,0.96544 0.06181,0.34086 -4.68e-4,0.53686 -0.142659,0.44898 -0.138796,-0.0858 -0.168028,-0.29657 -0.06496,-0.46841 0.103068,-0.17185 -0.01969,-0.14437 -0.272791,0.0611 -0.32386,0.26287 -0.369729,0.42943 -0.154833,0.56224 0.229411,0.14178 0.229849,0.23538 0.0018,0.37635 -0.166976,0.1032 -0.235177,0.40319 -0.151558,0.66665 0.08501,0.26784 -0.03523,0.66628 -0.27272,0.90378 -0.233615,0.23361 -0.326953,0.42837 -0.207418,0.4328 0.119535,0.004 0.009,0.1294 -0.245685,0.27773 -0.260784,0.15189 -0.462446,0.58174 -0.461706,0.98414 l 0.0013,0.71446 0.674131,-0.79375 c 0.496531,-0.58464 0.598289,-0.63692 0.386251,-0.19844 z"
       id="path28246" />
    <path
       style="fill:#779459"
       d="m 65.030441,167.96549 c -0.366294,-0.36629 -0.178828,-0.55347 0.436509,-0.43584 0.423567,0.081 0.680521,-0.0278 0.799807,-0.3387 0.152487,-0.39737 0.118628,-0.41059 -0.255815,-0.0998 -0.368126,0.30552 -0.481764,0.28952 -0.773083,-0.10889 -0.256397,-0.35064 -0.375949,-0.38113 -0.479648,-0.1223 -0.136377,0.34038 -0.303858,-1.80424 -0.221024,-2.83025 0.0286,-0.35428 -0.0277,-0.4208 -0.170369,-0.20129 -0.27722,0.42656 -1.499624,-0.84957 -5.256259,-5.48725 -4.767572,-5.88572 -5.043155,-6.35153 -4.066823,-6.87404 0.425931,-0.22796 0.790048,-0.18281 1.666361,0.20662 1.420513,0.63126 2.895986,1.86669 2.668666,2.2345 -0.09564,0.15474 -0.05467,0.20767 0.09102,0.11763 0.778307,-0.48102 4.374202,4.56548 4.741778,6.65464 0.03435,0.19523 0.145981,0.43336 0.248068,0.52916 0.102086,0.0958 0.100323,-2.018 -0.0039,-4.69736 -0.215589,-5.54136 0.08523,-4.70439 -3.431819,-9.54823 -1.109438,-1.52797 -2.6079,-3.96563 -3.329916,-5.41701 -1.145554,-2.30278 -1.26399,-2.68765 -0.929884,-3.02176 0.895247,-0.89524 4.568617,2.52511 6.126464,5.70449 0.598427,1.22131 0.757963,1.6865 0.892353,2.60198 0.02136,0.14553 0.151978,0.0265 0.290258,-0.26458 0.222626,-0.46857 0.236914,-0.45499 0.124768,0.11852 -0.06966,0.35623 0.002,0.80272 0.159258,0.99219 0.216701,0.26111 0.171324,0.3445 -0.187462,0.3445 -0.260353,0 -0.394564,-0.0788 -0.298246,-0.17512 0.09632,-0.0963 -0.143566,-0.59295 -0.533074,-1.10362 -0.389508,-0.51067 -0.567532,-0.84156 -0.395609,-0.7353 0.361117,0.22318 0.383141,-0.24876 0.048,-1.02867 -0.185369,-0.43138 -0.230827,-0.44649 -0.245987,-0.0818 -0.01023,0.24607 -0.136295,0.52015 -0.280149,0.60905 -0.149981,0.0927 -0.194338,-0.0135 -0.103984,-0.24896 0.08666,-0.22584 0.0271,-0.41062 -0.132358,-0.41062 -0.15946,0 -0.267213,-0.27446 -0.23945,-0.60991 0.05893,-0.71198 -0.851337,-2.32589 -2.016185,-3.57473 -0.938265,-1.00592 -2.491414,-2.03569 -2.722214,-1.80489 -0.08593,0.0859 0.03939,0.23131 0.2785,0.32307 0.239109,0.0917 0.434744,0.28018 0.434744,0.41872 0,0.13854 -0.119062,0.1783 -0.264583,0.0884 -0.356775,-0.22049 -0.335175,-0.0905 0.144851,0.87173 0.225189,0.4514 0.451219,1.0377 0.502289,1.30289 0.131705,0.68388 1.210822,2.45559 1.495661,2.45559 0.131147,0 0.238449,0.1786 0.238449,0.39688 0,0.21828 0.09693,0.36711 0.215398,0.33073 0.296404,-0.091 1.901268,1.53832 1.901268,1.93027 0,0.22834 -0.123223,0.2155 -0.439381,-0.0458 -0.4008,-0.33124 -0.407766,-0.31236 -0.07934,0.21507 0.198026,0.31801 0.441788,0.52768 0.541694,0.46593 0.09991,-0.0617 0.328779,0.065 0.508607,0.2817 0.179827,0.21668 0.543479,0.39396 0.808114,0.39396 0.264635,0 0.562596,0.13178 0.662134,0.29283 0.245262,0.39685 0.634627,-0.23352 0.639949,-1.03605 0.0028,-0.41774 0.108632,-0.54809 0.334781,-0.41223 0.235831,0.14168 0.229296,0.0736 -0.02278,-0.23738 -0.194429,-0.23984 -0.276699,-0.56035 -0.182823,-0.71224 0.09388,-0.1519 0.0446,-0.27618 -0.109513,-0.27618 -0.154109,0 -0.288567,-0.26789 -0.298795,-0.59531 -0.01768,-0.56597 -0.02932,-0.56923 -0.236184,-0.0661 -0.328088,0.7979 -0.448645,0.21878 -0.798651,-3.83645 -0.613225,-7.10494 -0.477339,-6.67406 -2.87275,-9.10928 -1.155336,-1.17453 -2.252357,-2.43317 -2.437824,-2.79697 -0.308137,-0.60443 -0.299258,-0.63015 0.10298,-0.29834 0.242106,0.19972 0.440192,0.27444 0.440192,0.16605 0,-0.1084 0.159783,-0.0645 0.355074,0.0976 0.19529,0.16208 0.452504,0.20643 0.571586,0.0985 0.119082,-0.10788 0.129665,-0.0454 0.02352,0.1389 -0.106146,0.18428 -0.303829,0.26655 -0.439294,0.18282 -0.273386,-0.16896 -0.340682,0.2256 -0.08251,0.48377 0.260952,0.26095 0.894544,-0.51542 0.894544,-1.09613 0,-0.29104 -0.187098,-0.71626 -0.415774,-0.94494 -0.458354,-0.45835 -1.034122,-0.5707 -0.774851,-0.15119 0.08994,0.14552 0.03743,0.26458 -0.116677,0.26458 -0.154109,0 -0.280198,-0.11906 -0.280198,-0.26458 0,-0.14552 -0.126089,-0.26458 -0.280198,-0.26458 -0.154109,0 -0.211698,0.11083 -0.127976,0.2463 0.08372,0.13546 0.03122,0.32108 -0.116677,0.41249 -0.397392,0.2456 -0.327016,-0.54577 0.07846,-0.88228 0.521314,-0.43265 2.628831,0.65777 2.437349,1.26108 -0.07775,0.24495 0.03401,0.67725 0.248344,0.96066 0.214335,0.28341 0.393487,0.37349 0.398116,0.20017 0.0046,-0.17331 -0.110648,-0.38869 -0.256169,-0.47863 -0.145521,-0.0899 -0.260302,-0.30532 -0.255068,-0.47864 0.01125,-0.37257 1.247669,1.03788 1.579259,1.80156 0.226041,0.52058 0.230039,0.52022 0.246538,-0.022 0.0092,-0.30315 -0.120101,-1.23272 -0.28739,-2.06571 -0.242238,-1.2062 -0.511563,-1.71106 -1.322916,-2.4799 -1.032218,-0.97813 -1.245997,-1.58159 -0.739657,-2.08793 0.153505,-0.15351 0.392479,-1.0797 0.531053,-2.05821 0.138574,-0.97851 0.374356,-2.00782 0.523959,-2.28736 0.594868,-1.11152 1.787266,-0.31453 2.208474,1.47613 0.10269,0.43656 0.248611,1.00211 0.324267,1.25677 0.08827,0.29712 -0.0054,0.46302 -0.261533,0.46302 -0.219499,0 -0.457628,0.0947 -0.529175,0.21048 -0.222674,0.36029 1.051849,0.20653 1.521792,-0.1836 0.387541,-0.32172 0.496804,-0.30446 0.837504,0.13229 0.677676,0.86873 -0.09956,3.01583 -1.091706,3.01583 -0.239818,0 -0.314157,0.39984 -0.258259,1.38906 0.04317,0.76398 0.02772,0.94258 -0.03433,0.39687 -0.06205,-0.5457 -0.206163,-0.99218 -0.320246,-0.99218 -0.114084,0 -0.114335,0.56554 -5.59e-4,1.25677 0.113776,0.69122 0.213963,1.4056 0.222637,1.5875 0.01053,0.22076 0.177052,0.17678 0.500842,-0.13229 0.266788,-0.25467 0.45013,-0.50789 0.407427,-0.56272 -0.314556,-0.40388 1.799159,-2.94301 2.44993,-2.94301 0.778465,0 0.662619,1.76004 -0.233674,3.55018 -0.624976,1.24824 -2.345389,3.59357 -2.636063,3.59357 -0.114458,0 -0.208106,0.35718 -0.208106,0.79375 0,0.43656 -0.107977,0.79375 -0.239948,0.79375 -0.131971,0 -0.196495,0.68461 -0.143386,1.52135 0.05311,0.83675 0.09752,2.13691 0.09869,2.88926 0.0012,0.75235 0.116455,1.43856 0.256192,1.52493 0.143101,0.0884 0.188631,0.79103 0.104245,1.60865 -0.124742,1.20864 -0.07999,1.45164 0.267305,1.45164 0.272327,0 0.454171,0.2985 0.52384,0.8599 l 0.106712,0.85989 0.04234,-0.8275 c 0.02348,-0.45896 -0.134411,-0.97419 -0.354532,-1.15687 -0.428164,-0.35535 -0.540782,-1.05834 -0.169544,-1.05834 0.125033,0 0.250555,-0.96352 0.278938,-2.14115 0.03896,-1.61661 -0.02674,-2.09273 -0.268212,-1.94349 -0.216945,0.13408 -0.250828,0.086 -0.105338,-0.14938 0.308951,-0.4999 0.198901,-2.15929 -0.165355,-2.49332 -0.22986,-0.21078 -0.267776,-0.16461 -0.146901,0.17891 0.08961,0.25466 0.0476,0.46302 -0.09335,0.46302 -0.140954,0 -0.25628,-0.23813 -0.25628,-0.52917 0,-0.29104 0.119063,-0.52917 0.264584,-0.52917 0.145521,0 0.277557,-0.38695 0.293415,-0.85989 0.09065,-2.70373 1.301187,8.83034 1.296003,12.34843 -0.0013,0.86424 0.153779,1.48008 0.461102,1.83142 0.254662,0.29114 0.314193,0.44231 0.132292,0.33595 -0.181901,-0.10636 -0.330729,-0.0772 -0.330729,0.0648 0,0.61483 0.71642,0.40596 1.516188,-0.44204 0.876441,-0.9293 1.159937,-1.41731 0.509989,-0.8779 -0.195291,0.16207 -0.423218,0.22654 -0.506507,0.14325 -0.08329,-0.0833 -0.392529,-0.0224 -0.687202,0.1353 -0.582601,0.3118 -1.00291,-0.0186 -0.682718,-0.53669 0.126161,-0.20414 0.249875,-0.1841 0.408438,0.0661 0.179669,0.28356 0.22831,0.26633 0.23151,-0.082 0.0022,-0.24254 -0.138692,-0.48855 -0.313157,-0.54671 -0.607127,-0.20238 1.944878,-3.36219 3.280632,-4.06198 0.969241,-0.50777 1.005327,-0.4918 1.005327,0.44487 0,0.89231 -1.867957,4.56897 -3.414884,6.72146 l -0.950741,1.32291 v 5.09207 c 0,2.80064 0.05953,5.09238 0.132292,5.09276 0.07276,3.8e-4 0.471943,-0.53693 0.887073,-1.19402 1.154632,-1.82761 4.099934,-3.97734 4.669259,-3.40801 0.572333,0.57233 -0.784214,3.27093 -3.290452,6.54575 -0.427255,0.55828 -1.14208,1.74868 -1.5885,2.64534 -0.76943,1.54543 -1.538145,2.13653 -2.077331,1.59734 z"
       id="path28245" />
    <path
       style="fill:#8d7954"
       d="m 63.705129,142.46617 c -0.09092,-0.50932 -0.223081,-1.9976 -0.2937,-3.30729 l -0.128397,-2.38125 0.375992,3.04271 c 0.361079,2.92202 0.38982,4.57136 0.0461,2.64583 z"
       id="path28167" />
    <path
       style="fill:#8d7954"
       d="m 78.440284,163.63284 c 0,-1.96454 0.04165,-2.76821 0.09256,-1.78594 0.05091,0.98226 0.05091,2.58961 0,3.57187 -0.05091,0.98227 -0.09256,0.1786 -0.09256,-1.78593 z"
       id="path28159" />
    <path
       style="fill:#627339"
       d="m 63.705129,142.46617 c -0.09092,-0.50932 -0.223081,-1.9976 -0.2937,-3.30729 l -0.128397,-2.38125 0.375992,3.04271 c 0.361079,2.92202 0.38982,4.57136 0.0461,2.64583 z"
       id="path28130" />
    <path
       style="fill:#627339"
       d="m 78.440284,163.63284 c 0,-1.96454 0.04165,-2.76821 0.09256,-1.78594 0.05091,0.98226 0.05091,2.58961 0,3.57187 -0.05091,0.98227 -0.09256,0.1786 -0.09256,-1.78593 z"
       id="path28122" />
  </g>
</svg>
