<?xml version="1.0" encoding="UTF-8" standalone="no"?>
<!-- Created with Inkscape (http://www.inkscape.org/) -->

<svg
   width="185"
   height="185"
   viewBox="0 0 48.947914 48.947918"
   version="1.1"
   id="svg1"
   xmlns="http://www.w3.org/2000/svg"
   xmlns:svg="http://www.w3.org/2000/svg">
  <defs
     id="defs1" />
  <g
     id="g28443"
     transform="matrix(0.70029306,0,0,0.70029306,-64.750525,-8.7602628)">
    <path
       style="fill:#d3c699"
       d="m 126.74951,81.325598 c -0.15997,-0.594087 -0.27044,-1.338228 -0.24549,-1.653646 0.025,-0.315418 0.0322,-1.310109 0.0161,-2.210425 l -0.0293,-1.636938 -2.31511,-2.710253 c -1.27331,-1.49064 -3.21346,-3.73058 -4.31146,-4.977646 -4.72935,-5.371441 -5.43428,-6.454187 -4.81884,-7.401571 0.38504,-0.592707 2.1208,-0.467373 3.54807,0.256193 1.44,0.73002 4.57079,3.906189 5.73285,5.815945 0.48302,0.79381 1.16391,1.919542 1.51309,2.501625 l 0.63488,1.058333 0.009,-1.984375 c 0.005,-1.091406 0.0848,-3.294062 0.17688,-4.894791 l 0.16742,-2.910417 -1.66094,-1.852083 c -0.91351,-1.018646 -2.08235,-2.316507 -2.59742,-2.884137 -1.36256,-1.501612 -4.25267,-5.424056 -4.83656,-6.564176 -0.27651,-0.539906 -0.50274,-1.284046 -0.50274,-1.653646 0,-0.55985 0.12382,-0.671999 0.74195,-0.671999 0.40807,0 1.27127,0.336235 1.91823,0.747189 1.53018,0.971994 4.52183,4.216787 5.55873,6.029096 0.44867,0.784189 0.86655,1.425798 0.92863,1.425798 0.0621,0 0.11288,-2.071423 0.11288,-4.603163 v -4.603164 l -1.02486,-1.151524 c -3.06425,-3.442983 -5.85431,-7.973853 -5.85431,-9.506994 0,-0.846217 0.73267,-1.337443 1.64066,-1.099999 1.05421,0.275684 2.82397,2.227804 3.94892,4.355846 l 1.15729,2.189207 0.076,-2.441486 c 0.0594,-1.90994 -0.0234,-2.629984 -0.38056,-3.307291 -0.92933,-1.76237 -0.71591,-8.250307 0.33936,-10.316816 0.20216,-0.395868 0.5811,-0.834045 0.84209,-0.973726 0.98122,-0.525131 1.49297,0.406258 2.18516,3.977019 0.54472,2.810031 0.46794,4.249849 -0.38615,7.241467 -0.20773,0.727604 -0.43443,2.374927 -0.50378,3.660718 l -0.12609,2.337801 0.65773,-1.544051 c 0.36176,-0.849228 0.91343,-2.13175 1.22595,-2.850049 1.26046,-2.897083 3.02526,-4.469744 4.34239,-3.869619 0.5872,0.267549 0.64432,0.422315 0.53002,1.436309 -0.26643,2.363795 -2.67871,7.08467 -5.1641,10.106253 l -1.38906,1.688736 0.003,4.306534 0.003,4.306534 0.67933,-1.188561 c 1.74184,-3.047543 4.43626,-5.923155 6.6687,-7.117163 0.93608,-0.500653 2.28614,-0.278118 2.38196,0.392622 0.12208,0.854606 -3.48683,6.017442 -7.84325,11.220393 l -1.88305,2.248959 -0.005,5.025656 -0.005,5.025657 1.59759,-2.817821 c 2.53396,-4.469388 5.54717,-7.101201 8.13028,-7.101201 1.98062,0 2.15151,1.059224 0.5373,3.330366 -1.49102,2.097818 -4.04569,5.247229 -7.06706,8.712314 -2.76457,3.170565 -2.90202,3.504097 -2.922,7.090859 -0.0132,2.376146 -0.29119,3.09146 -1.20126,3.09146 -0.52722,0 -0.69393,-0.19305 -0.93281,-1.080158 z"
       id="path28438" />
    <path
       style="fill:#cfbe90"
       d="m 127.07289,82.088256 c -0.19144,-0.191433 -0.32356,-1.163196 -0.33275,-2.447395 -0.0282,-3.946735 0.25441,-3.469471 -6.73604,-11.373333 -3.00619,-3.399 -4.50717,-5.219138 -4.85434,-5.886564 -0.71332,-1.37131 0.0209,-2.383753 1.47989,-2.040603 1.53878,0.361923 3.84281,1.826489 5.22921,3.323965 1.4678,1.585399 4.10278,5.599965 4.10278,6.250856 0,0.200111 0.14883,0.314373 0.33073,0.253915 0.24466,-0.08132 0.35028,-1.362483 0.40586,-4.923171 l 0.0751,-4.813249 -1.28094,-1.38273 c -4.51364,-4.872316 -8.34275,-10.128337 -8.21042,-11.270019 0.27417,-2.365518 4.98993,1.039221 7.9691,5.753631 l 1.1074,1.752407 0.0724,-4.728395 0.0724,-4.728395 -1.13311,-1.22473 c -2.88982,-3.123513 -5.55195,-7.531947 -5.60007,-9.273636 -0.025,-0.903116 0.0182,-0.950637 0.93395,-1.027132 0.83869,-0.07006 1.12551,0.08089 2.26793,1.193651 0.82526,0.80382 1.69133,2.053761 2.34718,3.387497 l 1.03935,2.113641 0.0767,-2.492877 c 0.0562,-1.826669 -0.0378,-2.778956 -0.35164,-3.563353 -0.65457,-1.635933 -0.78902,-5.197784 -0.2945,-7.802278 0.46631,-2.45596 0.98127,-3.4717 1.76009,-3.4717 0.74613,0 1.21627,0.906705 1.69524,3.269447 0.59155,2.918014 0.52939,4.942924 -0.23675,7.712621 -0.50222,1.815597 -0.65265,2.97497 -0.63488,4.892931 0.0198,2.134384 0.0594,2.353897 0.26244,1.455209 0.13153,-0.582084 0.35141,-1.296459 0.48862,-1.5875 0.13721,-0.291042 0.61258,-1.424326 1.05638,-2.518409 1.2991,-3.202683 2.94465,-4.756746 4.44792,-4.200648 0.79678,0.294746 0.77622,1.276989 -0.074,3.53576 -1.16514,3.095469 -2.6717,5.660911 -4.90417,8.35103 l -0.99501,1.198984 -0.0899,4.401349 c -0.0699,3.424249 -0.0187,4.342205 0.23059,4.134935 0.17627,-0.146527 0.40152,-0.521742 0.50057,-0.833809 0.23379,-0.736604 2.01375,-3.146066 3.50563,-4.745421 1.34349,-1.44028 3.62043,-2.84148 4.61738,-2.84148 1.2839,0 1.16805,0.893691 -0.42301,3.263413 -1.58525,2.361051 -4.4805,6.197413 -6.87335,9.107558 l -1.5273,1.857477 0.0721,4.990463 0.0721,4.990463 0.62395,-1.190625 c 2.37885,-4.539322 4.34149,-6.886182 6.74026,-8.05979 1.86934,-0.914583 3.38096,-0.863654 3.62966,0.12229 0.18311,0.725901 -0.22823,1.722094 -1.30964,3.171763 -1.15334,1.546082 -4.26431,5.323435 -6.70792,8.144788 -1.27345,1.470304 -2.43431,2.986131 -2.57969,3.368505 -0.14538,0.382374 -0.26433,1.826396 -0.26433,3.208937 0,1.382541 -0.12325,2.744009 -0.27389,3.025484 -0.30868,0.576781 -1.04853,0.671015 -1.52527,0.194272 z"
       id="path28412" />
    <path
       style="fill:#e6c938"
       d="m 127.37987,82.125722 c -0.52499,-0.195197 -0.57314,-0.430975 -0.66242,-3.243194 l -0.0963,-3.032694 -1.45425,-1.682819 c -0.79984,-0.925551 -1.75191,-2.034336 -2.11571,-2.463967 -0.3638,-0.429631 -1.61972,-1.858451 -2.79092,-3.175157 -5.09876,-5.732178 -6.04074,-7.232415 -5.01298,-7.983929 0.92497,-0.676356 3.59282,0.372059 5.71935,2.247602 1.31032,1.155668 4.22696,5.219595 4.89706,6.823385 0.67886,1.624739 0.88323,0.595362 0.88761,-4.470641 l 0.004,-4.693741 -3.17073,-3.615789 c -3.87175,-4.415219 -6.41661,-8.073692 -6.30216,-9.05994 0.26722,-2.302673 4.63602,0.783889 7.76066,5.482919 0.6957,1.046242 1.30211,1.865062 1.34757,1.819601 0.0455,-0.04546 0.11182,-2.121985 0.14747,-4.614497 l 0.0648,-4.531838 -1.3593,-1.562819 c -3.18902,-3.666499 -5.77846,-8.023644 -5.58352,-9.395157 0.11577,-0.814529 1.29678,-0.914285 2.44233,-0.206296 1.12626,0.696069 1.92898,1.752116 3.19509,4.203387 0.6552,1.268526 1.07329,1.825468 1.20742,1.608438 0.34839,-0.563707 0.055,-4.802799 -0.39403,-5.693125 -0.63148,-1.252078 -0.79208,-5.128114 -0.3203,-7.730153 0.46381,-2.558084 0.99836,-3.557251 1.83883,-3.437104 0.73403,0.104932 1.13379,0.955328 1.67189,3.556581 0.51729,2.500649 0.37956,5.276183 -0.38562,7.770567 -0.53698,1.750491 -0.92391,6.879166 -0.51899,6.879166 0.11586,0 0.21066,-0.227911 0.21066,-0.50647 0,-0.810856 1.8104,-5.332271 2.67555,-6.682102 0.9784,-1.526534 1.85963,-2.128024 2.96146,-2.021372 1.10542,0.107 1.19504,0.738596 0.43494,3.065216 -0.84019,2.571776 -2.13436,4.92958 -4.19706,7.64646 l -1.81088,2.385188 -0.12161,4.40654 c -0.0669,2.423597 -0.0515,4.406257 0.0341,4.405911 0.0857,-3.46e-4 0.49653,-0.652818 0.91303,-1.449939 1.65737,-3.171922 6.00332,-7.280682 7.70099,-7.280682 0.98705,0 1.3055,0.614125 0.81266,1.567184 -0.97071,1.877142 -4.93149,7.25285 -7.86643,10.676588 l -1.53679,1.792731 v 5.035905 c 0,3.289895 0.0917,4.979209 0.26458,4.872383 0.14553,-0.08994 0.26459,-0.25998 0.26459,-0.377874 0,-0.628728 2.62726,-4.708861 3.98909,-6.195066 2.1738,-2.372317 5.02165,-3.691666 6.22057,-2.881863 1.33688,0.90298 0.0514,2.945288 -7.03232,11.172567 l -3.30495,3.838485 -0.16998,3.307292 c -0.0935,1.81901 -0.18384,3.324318 -0.20078,3.34513 -0.17034,0.209274 -0.80147,0.248896 -1.2584,0.079 z"
       id="path28384" />
    <path
       style="fill:#879964"
       d="m 127.37987,82.125722 c -0.52499,-0.195197 -0.57314,-0.430975 -0.66242,-3.243194 l -0.0963,-3.032694 -1.45425,-1.682819 c -0.79984,-0.925551 -1.75191,-2.034336 -2.11571,-2.463967 -0.3638,-0.429631 -1.61972,-1.858451 -2.79092,-3.175157 -5.09876,-5.732178 -6.04074,-7.232415 -5.01298,-7.983929 0.92497,-0.676356 3.59282,0.372059 5.71935,2.247602 1.31032,1.155668 4.22696,5.219595 4.89706,6.823385 0.67886,1.624739 0.88323,0.595362 0.88761,-4.470641 l 0.004,-4.693741 -3.17073,-3.615789 c -3.87175,-4.415219 -6.41661,-8.073692 -6.30216,-9.05994 0.26722,-2.302673 4.63602,0.783889 7.76066,5.482919 0.6957,1.046242 1.30211,1.865062 1.34757,1.819601 0.0455,-0.04546 0.11182,-2.121985 0.14747,-4.614497 l 0.0648,-4.531838 -1.3593,-1.562819 c -3.18902,-3.666499 -5.77846,-8.023644 -5.58352,-9.395157 0.11577,-0.814529 1.29678,-0.914285 2.44233,-0.206296 1.12626,0.696069 1.92898,1.752116 3.19509,4.203387 0.6552,1.268526 1.07329,1.825468 1.20742,1.608438 0.34839,-0.563707 0.055,-4.802799 -0.39403,-5.693125 -0.63148,-1.252078 -0.79208,-5.128114 -0.3203,-7.730153 0.46381,-2.558084 0.99836,-3.557251 1.83883,-3.437104 0.73403,0.104932 1.13379,0.955328 1.67189,3.556581 0.51729,2.500649 0.37956,5.276183 -0.38562,7.770567 -0.53698,1.750491 -0.92391,6.879166 -0.51899,6.879166 0.11586,0 0.21066,-0.227911 0.21066,-0.50647 0,-0.810856 1.8104,-5.332271 2.67555,-6.682102 0.9784,-1.526534 1.85963,-2.128024 2.96146,-2.021372 1.10542,0.107 1.19504,0.738596 0.43494,3.065216 -0.84019,2.571776 -2.13436,4.92958 -4.19706,7.64646 l -1.81088,2.385188 -0.12161,4.40654 c -0.0669,2.423597 -0.0515,4.406257 0.0341,4.405911 0.0857,-3.46e-4 0.49653,-0.652818 0.91303,-1.449939 1.65737,-3.171922 6.00332,-7.280682 7.70099,-7.280682 0.98705,0 1.3055,0.614125 0.81266,1.567184 -0.97071,1.877142 -4.93149,7.25285 -7.86643,10.676588 l -1.53679,1.792731 v 5.035905 c 0,3.289895 0.0917,4.979209 0.26458,4.872383 0.14553,-0.08994 0.26459,-0.25998 0.26459,-0.377874 0,-0.628728 2.62726,-4.708861 3.98909,-6.195066 2.1738,-2.372317 5.02165,-3.691666 6.22057,-2.881863 1.33688,0.90298 0.0514,2.945288 -7.03232,11.172567 l -3.30495,3.838485 -0.16998,3.307292 c -0.0935,1.81901 -0.18384,3.324318 -0.20078,3.34513 -0.17034,0.209274 -0.80147,0.248896 -1.2584,0.079 z"
       id="path28364" />
    <path
       style="fill:#779459"
       d="m 126.73682,29.422951 c 0.0267,0.474165 0.81235,0.41019 0.81235,-0.06614 0,-0.218282 0.14883,-0.398699 0.33073,-0.400927 0.23461,-0.0029 0.24427,-0.06054 0.0332,-0.198437 -0.16362,-0.106913 -0.3831,-0.58889 -0.48773,-1.071062 -0.17555,-0.80898 -0.21805,-0.839626 -0.55032,-0.396875 -0.31772,0.423349 -0.34154,0.35528 -0.20243,-0.578533 0.0867,-0.582083 0.0772,-0.984803 -0.0211,-0.894934 -0.28919,0.264277 -0.73052,3.452731 -0.5416,3.912852 0.14786,0.36013 0.20488,0.344442 0.39072,-0.107501 0.11967,-0.291042 0.22595,-0.380339 0.23618,-0.198438 z"
       id="path28344" />
    <path
       style="fill:#779459"
       d="m 126.64022,33.833572 c -0.20787,-0.715972 -0.46447,-1.897079 -0.57021,-2.624683 -0.10574,-0.727604 -0.24232,-1.175628 -0.30351,-0.995608 -0.15738,0.462998 0.41819,3.995508 0.75292,4.620953 0.46324,0.865566 0.5218,0.380475 0.1208,-1.000662 z"
       id="path28343" />
    <path
       style="fill:#779459"
       d="m 128.43949,34.47787 c 0.0378,-0.355043 0.13421,-0.759559 0.21411,-0.898924 0.0799,-0.139365 0.22606,-0.590789 0.32477,-1.003164 0.13691,-0.571944 0.0985,-0.702352 -0.16186,-0.549832 -0.18773,0.109968 -0.13297,-0.03826 0.12169,-0.329393 0.25697,-0.293774 0.45661,-0.932165 0.44861,-1.434543 -0.0172,-1.080156 -0.98704,-4.879625 -1.02063,-3.998447 -0.0128,0.33601 -0.14235,0.537342 -0.28788,0.447405 -0.14552,-0.08994 -0.26458,0.08163 -0.26458,0.381261 0,0.299629 0.14883,0.515015 0.33073,0.478635 0.18866,-0.03773 0.32231,0.183936 0.31114,0.516012 -0.0108,0.320186 0.066,0.529229 0.17071,0.46454 0.10467,-0.06469 0.26231,0.07003 0.35032,0.299378 0.26294,0.685203 0.18119,2.446066 -0.12226,2.633611 -0.15525,0.09595 -0.26021,0.01368 -0.23324,-0.182823 0.027,-0.196504 0.0235,-0.83353 -0.008,-1.415614 l -0.0569,-1.058333 -0.30628,1.455208 c -0.24073,1.143835 -0.23527,1.530019 0.0255,1.804836 0.40551,0.427323 0.41118,0.284831 -0.0651,1.634747 -0.21828,0.618675 -0.39688,1.312301 -0.39688,1.54139 0,0.65648 0.54496,-0.02797 0.62577,-0.78595 z"
       id="path28342" />
    <path
       style="fill:#779459"
       d="m 124.24185,40.337013 c -0.0899,-0.14552 -0.0821,-0.396357 0.0174,-0.557414 0.12669,-0.204978 0.24612,-0.187433 0.39811,0.05848 0.11942,0.193222 0.299,0.269434 0.39908,0.169358 0.10007,-0.100075 -0.25043,-0.614344 -0.77891,-1.142819 -0.87618,-0.87618 -1.1024,-1.699785 -0.34818,-1.26763 0.17972,0.102979 0.21879,0.07672 0.092,-0.06183 -0.12127,-0.132471 -0.2605,-0.181326 -0.30941,-0.108565 -0.12376,0.184105 -1.45448,-1.094344 -1.45448,-1.397345 0,-0.135723 0.19544,-0.171775 0.4343,-0.08011 0.35007,0.134333 0.37402,0.09403 0.12352,-0.20781 -0.4414,-0.53185 -1.79769,-1.049046 -2.27286,-0.866708 -0.45603,0.174996 -0.5471,0.699894 -0.12143,0.699894 0.15411,0 0.20662,-0.119063 0.11668,-0.264584 -0.0899,-0.14552 -0.0374,-0.264583 0.11668,-0.264583 0.15411,0 0.2802,0.126089 0.2802,0.280198 0,0.154109 0.11811,0.207197 0.26248,0.117972 0.14437,-0.08922 0.45732,-0.0532 0.69544,0.08006 0.29462,0.164879 0.33787,0.301051 0.13536,0.42621 -0.36664,0.226596 0.17068,1.366578 0.99629,2.113751 0.30594,0.276872 0.55444,0.752841 0.55221,1.057709 -0.003,0.454844 -0.0501,0.483092 -0.26053,0.15743 -0.22315,-0.345294 -0.25701,-0.340891 -0.26054,0.03387 -0.002,0.236912 0.26384,0.61762 0.59126,0.846018 0.71324,0.497528 0.81055,0.526696 0.59532,0.178441 z"
       id="path28341" />
    <path
       style="fill:#779459"
       d="m 129.75381,41.974562 c -0.10274,-0.409341 -0.065,-0.596239 0.0998,-0.494394 0.1605,0.0992 0.21571,-0.09385 0.14003,-0.489703 -0.12904,-0.675076 0.14911,-0.786659 1.67147,-0.670519 0.59272,0.04522 0.75326,-0.204545 1.85979,-2.893349 1.13778,-2.764747 1.20534,-3.127495 0.61724,-3.314152 -0.57767,-0.183345 -0.66747,-0.553387 -0.17683,-0.728618 0.1819,-0.06497 0.26721,-0.188015 0.18958,-0.273444 -0.34313,-0.377585 -1.50179,0.598603 -2.0989,1.768351 -0.35891,0.703101 -0.70016,1.135558 -0.75834,0.961015 -0.12504,-0.375112 -1.10265,1.708954 -1.10265,2.35062 0,0.242771 -0.18949,0.711941 -0.42109,1.042601 -0.23161,0.33066 -0.47776,1.094346 -0.547,1.697082 -0.0692,0.602735 -0.24923,1.326329 -0.39997,1.607986 -0.20341,0.380079 -0.18176,0.57037 0.084,0.738104 0.51451,0.324758 1.04538,-0.494963 0.84293,-1.30158 z"
       id="path28340" />
    <path
       style="fill:#779459"
       d="m 125.61843,43.115138 c 0.0144,-0.509323 -0.0773,-0.926041 -0.20384,-0.926041 -0.12655,0 -0.17289,-0.149073 -0.10297,-0.331274 0.0699,-0.1822 -0.11242,-0.480865 -0.40518,-0.6637 -0.44834,-0.279991 -0.5323,-0.267009 -0.5323,0.0823 0,0.228102 0.11906,0.341147 0.26458,0.25121 0.14552,-0.08994 0.26459,0.08163 0.26459,0.38126 0,0.763345 -0.48496,0.680754 -0.68511,-0.116676 -0.0913,-0.363802 -0.27217,-0.661459 -0.40191,-0.661459 -0.52388,0 0.0624,1.186743 1.08702,2.200281 0.3638,0.359874 0.66762,0.666875 0.67516,0.682226 0.008,0.01535 0.0255,-0.388809 0.04,-0.898132 z"
       id="path28339" />
    <path
       style="fill:#779459"
       d="m 128.05013,50.986492 c -0.0339,-1.127786 0.0286,-2.556536 0.13882,-3.175 0.16556,-0.928766 0.12848,-1.124479 -0.21307,-1.124479 -0.3127,0 -0.37705,0.182307 -0.26395,0.747826 0.0823,0.411304 -0.0313,1.356722 -0.25226,2.100929 -0.27955,0.941356 -0.31345,1.382565 -0.11138,1.449919 0.15974,0.05325 0.27391,0.53658 0.2537,1.07407 -0.0202,0.537491 0.0862,0.977256 0.23652,0.977256 0.16976,0 0.24992,-0.776691 0.21162,-2.050521 z"
       id="path28338" />
    <path
       style="fill:#779459"
       d="m 129.7812,56.008419 c 0.0635,-0.06347 0.003,-0.410805 -0.13418,-0.771856 -0.13727,-0.361051 -0.16866,-0.78739 -0.0698,-0.94742 0.11297,-0.182784 0.25432,-0.10075 0.38017,0.22064 0.15892,0.405799 0.20419,0.421701 0.21895,0.07689 0.0102,-0.239092 0.20954,-0.507986 0.44292,-0.597542 0.23338,-0.08956 0.36519,-0.316944 0.2929,-0.505305 -0.0907,-0.236333 0.16731,-0.359671 0.83245,-0.397961 0.53012,-0.03052 0.8448,0.03539 0.69928,0.146467 -0.44415,0.339018 -1.1838,1.921346 -0.89812,1.921346 0.14734,0 0.19374,0.119976 0.10312,0.266613 -0.10167,0.164499 -0.32201,0.109386 -0.57529,-0.143897 -0.37096,-0.370958 -0.36296,-0.46675 0.083,-0.994217 l 0.49353,-0.583707 -0.59531,0.504028 c -0.32742,0.277215 -0.59532,0.671195 -0.59532,0.875511 0,0.204315 -0.11906,0.297898 -0.26458,0.207961 -0.34806,-0.215113 -0.34135,0.214274 0.009,0.564444 0.18815,0.188149 0.1469,0.273403 -0.13229,0.273403 -0.22313,0 -0.35377,-0.05193 -0.2903,-0.115399 z"
       id="path28337" />
    <path
       style="fill:#779459"
       d="m 129.93287,56.741179 c 0.01,0.266345 0.22904,0.152717 0.66734,-0.345483 0.3592,-0.408297 0.65309,-0.652375 0.65309,-0.542396 0,0.336387 0.62587,-0.403971 0.68562,-0.81103 0.0765,-0.521034 0.9732,-1.720883 1.29876,-1.737768 0.14552,-0.0075 0.84852,-0.803111 1.56222,-1.767919 1.24716,-1.685954 1.27803,-1.769472 0.79375,-2.146853 -0.3773,-0.294011 -0.39519,-0.355494 -0.0712,-0.24473 0.57101,0.195237 1.45611,-0.447275 1.96093,-1.423485 0.47353,-0.915707 0.32038,-1.31135 -0.49096,-1.268393 -0.44762,0.0237 -0.47421,0.05826 -0.11668,0.151692 0.57006,0.148972 0.60455,0.958284 0.0601,1.410142 -0.33342,0.276716 -0.37644,0.265373 -0.24938,-0.06575 0.18182,-0.473813 -0.5686,-0.847543 -0.8353,-0.416005 -0.11,0.177973 -0.0612,0.219439 0.12381,0.105121 0.61184,-0.378136 0.28589,0.45916 -0.41229,1.059088 -0.51096,0.439052 -0.77363,0.526363 -0.91166,0.30303 -0.10664,-0.172549 -0.27871,-0.228909 -0.38237,-0.125246 -0.10367,0.103664 -0.32341,0.0765 -0.48831,-0.06036 -0.20088,-0.166713 -0.41941,-0.0568 -0.66216,0.333024 -0.33239,0.533775 -0.3255,0.551413 0.0834,0.213429 0.51784,-0.427993 0.66927,-0.333167 0.83401,0.522255 0.16464,0.85494 -0.84836,2.903679 -1.34206,2.714228 -0.20836,-0.07996 -0.30511,-0.264673 -0.215,-0.410481 0.10128,-0.163865 0.26179,-0.128017 0.42032,0.09387 0.20277,0.283823 0.22871,0.270979 0.1239,-0.06135 -0.0729,-0.231182 -0.0368,-0.826494 0.0803,-1.322917 0.11705,-0.496422 0.225,-0.694226 0.2399,-0.439565 0.0149,0.254662 0.13561,0.463021 0.26825,0.463021 0.13265,0 0.20129,-0.208359 0.15254,-0.463021 -0.0487,-0.254661 -0.0977,-0.556506 -0.10888,-0.670767 -0.0111,-0.114261 -0.24272,-0.08868 -0.51462,0.05684 -0.27191,0.145521 -0.58866,0.179475 -0.70388,0.07545 -0.11523,-0.104021 -0.1209,-0.03552 -0.0126,0.152221 0.12258,0.212514 -0.0591,0.54275 -0.48148,0.874957 -0.61662,0.485032 -1.09838,1.306093 -1.61502,2.752443 -0.17691,0.495286 -0.2005,0.498463 -0.36832,0.04962 -0.14927,-0.399242 -0.25457,-0.321702 -0.62877,0.463021 -0.24722,0.518413 -0.33235,0.942569 -0.18918,0.942569 0.14317,0 0.2603,0.357188 0.2603,0.79375 0,0.529167 -0.13229,0.79375 -0.39687,0.79375 -0.41964,0 -0.52375,0.314103 -0.20857,0.629281 0.10357,0.10357 0.39858,-0.08495 0.65558,-0.418924 0.32922,-0.427846 0.47147,-0.489988 0.48151,-0.210357 z"
       id="path28336" />
    <path
       style="fill:#779459"
       d="m 122.62656,66.221216 c -0.13224,-0.213969 -0.0349,-0.254616 0.31511,-0.131643 0.49098,0.172477 0.49076,0.165778 -0.007,-0.21962 -0.28248,-0.218638 -0.62264,-0.397524 -0.75592,-0.397524 -0.13327,0 -0.17141,-0.184778 -0.0847,-0.410617 0.0867,-0.225839 0.0581,-0.349135 -0.0635,-0.273991 -0.12159,0.07514 -0.55922,-0.216329 -0.97252,-0.647717 -0.41329,-0.431388 -0.99706,-0.77053 -1.29725,-0.75365 -0.48155,0.02708 -0.48832,0.04551 -0.0575,0.156571 0.75619,0.194917 1.4899,0.908427 2.05205,1.99555 0.28218,0.545703 0.63673,0.992187 0.78788,0.992187 0.15115,0 0.18873,-0.139296 0.0835,-0.309546 z"
       id="path28335" />
    <path
       style="fill:#779459"
       d="m 128.20021,66.498048 c -0.31298,-0.986138 -0.3456,-1.366105 -0.36624,-4.266765 -0.0139,-1.959667 -0.11513,-2.844271 -0.32531,-2.844271 -0.38627,0 -0.12628,5.542914 0.31956,6.813021 0.33048,0.941444 0.66,1.205434 0.37199,0.298015 z"
       id="path28334" />
    <path
       style="fill:#779459"
       d="m 124.63872,69.714066 c 0,-0.140954 0.17962,-0.187355 0.39914,-0.103114 0.59416,0.227997 0.0902,-0.991362 -0.55705,-1.347723 -0.67153,-0.369754 -0.92068,-0.735969 -0.77365,-1.137154 0.1435,-0.391569 -0.55108,-0.449856 -0.78823,-0.06615 -0.0899,0.14552 -0.063,0.264583 0.06,0.264583 0.12293,0 0.23917,0.208359 0.25833,0.463021 0.0865,1.150186 0.60773,2.25249 0.60773,1.285253 0,-0.251123 0.1089,-0.389287 0.24199,-0.307032 0.13309,0.08226 0.30228,-1.5e-5 0.37598,-0.182823 0.0808,-0.200518 0.14229,-0.14869 0.15489,0.130643 0.0115,0.254662 -0.0854,0.463021 -0.21538,0.463021 -0.12996,0 -0.30481,0.178594 -0.38858,0.396875 -0.0928,0.241753 -4.1e-4,0.396875 0.23628,0.396875 0.21371,0 0.38857,-0.115326 0.38857,-0.256279 z"
       id="path28333" />
    <path
       style="fill:#779459"
       d="m 133.06349,69.799196 c 0.50732,-0.07679 0.63846,-0.260952 0.67293,-0.944961 0.0175,-0.34748 0.27575,-0.711375 0.60847,-0.857427 0.31792,-0.139558 0.70538,-0.533225 0.86102,-0.874816 0.15564,-0.34159 0.39296,-0.5531 0.52739,-0.470021 0.13442,0.08308 0.32787,-0.11192 0.42988,-0.433332 0.10202,-0.321412 0.43801,-0.793221 0.74666,-1.048465 l 0.56117,-0.46408 -0.56253,0.140868 c -0.30939,0.07748 -0.71886,0.432983 -0.90994,0.790013 -0.28998,0.541836 -0.38505,0.58189 -0.5751,0.242297 -0.12522,-0.223767 -0.43012,-0.39848 -0.67755,-0.388252 -0.37256,0.0154 -0.35894,0.06012 0.0793,0.260237 0.47639,0.217542 0.4632,0.235478 -0.13229,0.179842 -0.43732,-0.04086 -0.66318,0.07268 -0.66653,0.335075 -0.005,0.402454 -0.16605,0.529166 -0.672,0.529166 -0.15411,0 -0.19525,-0.137458 -0.0914,-0.305463 0.11696,-0.189257 0.0726,-0.233644 -0.11668,-0.116677 -0.16969,0.104875 -0.31475,0.03485 -0.32635,-0.157557 -0.0161,-0.266365 -0.0517,-0.269971 -0.15434,-0.01561 -0.19748,0.489391 -0.61695,0.40115 -0.62888,-0.132292 -0.006,-0.271173 -0.16215,-0.114021 -0.37671,0.379283 -0.39079,0.89851 -0.25903,2.280825 0.15514,1.627459 0.1699,-0.268037 0.2248,-0.237795 0.22787,0.12554 0.003,0.305533 0.12367,0.411106 0.33478,0.291913 0.26459,-0.149377 0.26459,-0.115459 0,0.169594 -0.1819,0.195973 -0.33073,0.637186 -0.33073,0.980472 0,0.433129 0.10123,0.560921 0.33073,0.417544 0.1819,-0.113637 0.49047,-0.230792 0.68571,-0.260345 z"
       id="path28332" />
    <path
       style="fill:#779459"
       d="m 131.91681,71.303362 c 0.43544,-0.503765 0.58062,-0.754815 0.32263,-0.557889 -0.40702,0.310676 -0.44734,0.301401 -0.30479,-0.0701 0.11302,-0.294516 -0.0496,-0.52561 -0.52104,-0.740409 -0.48479,-0.220886 -0.60919,-0.404012 -0.42512,-0.625807 0.14312,-0.17245 0.17559,-0.39818 0.0721,-0.501623 -0.10345,-0.103442 0.0425,-0.09959 0.32435,0.0086 0.45927,0.176239 0.47216,0.151744 0.12423,-0.236097 -0.35296,-0.393451 -0.42424,-0.350106 -0.78508,0.477454 -0.39463,0.905042 -1.02374,1.334014 -0.65975,0.449867 0.50405,-1.224365 0.32512,-1.36783 -0.24749,-0.198437 -0.79913,1.63199 -0.84137,2.4087 -0.1511,2.778125 0.29105,0.155761 0.52917,0.195668 0.52917,0.08868 0,-0.106985 0.14288,-0.05164 0.3175,0.122982 0.17463,0.174625 0.38391,0.228204 0.46507,0.119063 0.0812,-0.109141 0.50384,-0.610609 0.93927,-1.114374 z"
       id="path28331" />
    <path
       style="fill:#779459"
       d="m 127.49399,77.775548 c -0.0664,-0.800364 -0.0216,-1.470091 0.0995,-1.488281 0.12111,-0.01819 0.32934,-0.04796 0.46274,-0.06615 0.48227,-0.06576 0.59358,-0.399848 0.2909,-0.873124 -0.2965,-0.463614 -0.30262,-0.463231 -0.15355,0.0096 0.12792,0.40575 0.0494,0.465876 -0.44621,0.341496 -0.53921,-0.135335 -0.60641,-0.04939 -0.64926,0.830462 -0.057,1.170749 0.14892,2.701212 0.36346,2.701212 0.0842,0 0.0988,-0.654843 0.0324,-1.455208 z"
       id="path28330" />
    <path
       style="fill:#779459"
       d="m 128.29901,79.506481 c -0.0112,-1.798188 -0.41128,-1.589261 -0.48529,0.253442 -0.0314,0.781425 -0.0749,0.843403 -0.2789,0.396875 -0.20319,-0.444854 -0.23185,-0.402698 -0.17984,0.264583 0.0733,0.940689 0.49687,1.546935 0.77293,1.106341 0.10005,-0.159669 0.17704,-1.069227 0.1711,-2.021241 z"
       id="path28329" />
    <path
       style="fill:#779459"
       d="m 126.9007,81.54586 c -0.0712,-0.327421 -0.16272,-1.788908 -0.20348,-3.247748 l -0.0741,-2.652437 -2.31511,-2.626977 c -1.2733,-1.444837 -2.3151,-2.833823 -2.3151,-3.086636 0,-0.252812 -0.1393,-0.545748 -0.30955,-0.650969 -0.21554,-0.133214 -0.25204,-0.03752 -0.12018,0.315114 0.10415,0.278534 -0.20303,0.03017 -0.68262,-0.551908 -0.47959,-0.582084 -1.1809,-1.35599 -1.55847,-1.719792 -1.31859,-1.270519 -4.1267,-4.90009 -4.28808,-5.542482 -0.3658,-1.456142 1.22868,-1.767142 3.43169,-0.66934 1.36876,0.682082 2.87202,1.99919 1.85982,1.629509 -0.29549,-0.107921 -0.41277,-0.07059 -0.30846,0.09819 0.0926,0.149773 0.41441,0.194201 0.71522,0.09873 0.4287,-0.136064 0.51174,-0.08188 0.38413,0.250647 -0.0895,0.233328 -0.0778,0.411562 0.0261,0.396075 0.10391,-0.01549 0.31479,-0.01406 0.46862,0.0032 0.39339,0.04407 2.51725,2.998499 3.68325,5.12364 0.53867,0.981758 1.07412,1.84356 1.18989,1.915114 0.37109,0.229343 0.34258,-10.174392 -0.0291,-10.622244 -0.2625,-0.316296 -0.25209,-0.447525 0.0527,-0.663635 0.30161,-0.213888 0.28035,-0.237111 -0.10321,-0.112737 -0.35336,0.11458 -0.8427,-0.236857 -1.82245,-1.30886 -3.69498,-4.042896 -7.35177,-9.031702 -7.35177,-10.029704 0,-0.215751 1.58296,1.489808 1.62057,1.746084 0.0182,0.123938 0.048,0.334483 0.0661,0.467877 0.0662,0.485733 0.36221,0.554758 0.68922,0.160734 0.22888,-0.27578 0.2408,-0.403269 0.0377,-0.403269 -0.16334,0 -0.29698,-0.178594 -0.29698,-0.396875 0,-0.218281 0.068,-0.396875 0.15119,-0.396875 0.2947,0 0.87939,0.733308 0.71542,0.897277 -0.0916,0.09159 0.0629,0.351699 0.34333,0.578024 0.48767,0.3936 0.4781,0.406567 -0.22007,0.298097 -0.54721,-0.08502 -0.66369,-0.0336 -0.46532,0.205423 0.14553,0.175354 0.18626,0.397167 0.0905,0.492919 -0.0957,0.09575 -0.0282,0.174093 0.1502,0.174093 0.17837,0 0.2558,0.110836 0.17208,0.246301 -0.0837,0.135466 -0.0312,0.321086 0.11667,0.41249 0.15648,0.09671 0.27668,-0.144535 0.2875,-0.57703 0.0161,-0.643726 0.0472,-0.672381 0.23188,-0.214053 0.11731,0.291042 0.10394,0.66646 -0.0297,0.834263 -0.15948,0.200228 -0.0264,0.538807 0.38716,0.985048 0.34658,0.373974 0.8576,1.001285 1.1356,1.394024 0.27799,0.392739 0.97273,1.235505 1.54385,1.872813 l 1.03841,1.158742 0.62595,-0.675049 c 0.66779,-0.720189 1.13369,-0.87075 1.13369,-0.366369 0,0.169775 0.0875,0.221163 0.19448,0.114196 0.27125,-0.271248 -1.01044,-1.191497 -1.43341,-1.029186 -0.19004,0.07293 -0.26829,0.257575 -0.17388,0.410331 0.0982,0.158838 0.0452,0.199559 -0.12383,0.09512 -0.2141,-0.132318 -0.21681,-0.355302 -0.01,-0.809533 0.23255,-0.510394 0.17278,-0.82773 -0.32162,-1.707383 -0.76053,-1.35318 -0.95089,-1.27335 -0.24856,0.104234 0.28664,0.562231 0.46344,1.079968 0.39288,1.150528 -0.17188,0.171873 -0.41848,-0.09356 -0.49331,-0.530971 -0.0334,-0.195235 -0.27243,-0.755031 -0.53117,-1.24399 -0.25874,-0.48896 -0.34154,-0.809355 -0.184,-0.71199 0.55512,0.343082 0.25629,-0.263005 -0.6456,-1.30941 -1.00138,-1.161827 -1.2403,-0.793094 -0.38989,0.601708 0.64064,1.050744 0.64589,1.118084 0.0872,1.118084 -0.24253,0 -0.36632,-0.07465 -0.27507,-0.165898 0.0912,-0.09124 -0.0117,-0.590965 -0.22878,-1.110492 -0.21707,-0.519526 -0.34633,-1.070577 -0.28724,-1.224557 0.0591,-0.15398 -0.0563,-0.432859 -0.2563,-0.619732 -0.20004,-0.186872 -0.36692,-0.245777 -0.37084,-0.130899 -0.004,0.114878 -0.37112,-0.207849 -0.81602,-0.717172 -0.4449,-0.509323 -0.73233,-0.777214 -0.63873,-0.595313 0.10309,0.20034 -0.004,0.33073 -0.27061,0.33073 -0.27623,0 -0.38587,-0.143137 -0.29367,-0.383401 0.0981,-0.255747 0.02,-0.334609 -0.23476,-0.236859 -0.21004,0.0806 -0.30867,0.265007 -0.21918,0.409798 0.0919,0.148658 -0.0789,0.133949 -0.39233,-0.03379 -0.70216,-0.375783 -1.19762,-1.249416 -0.83551,-1.473215 0.57031,-0.352472 2.66375,0.948917 4.46582,2.776188 1.61574,1.638327 3.53681,4.269797 3.76625,5.158985 0.0861,0.333737 0.67028,0.926041 0.91332,0.926041 0.10097,0 0.0478,-0.163674 -0.11828,-0.36372 -0.21385,-0.257677 -0.25302,-1.54976 -0.13436,-4.43177 0.13487,-3.275838 0.0897,-4.288863 -0.232,-5.201931 -0.32857,-0.932602 -0.33395,-1.079493 -0.0303,-0.827499 0.47016,0.390194 0.46424,-0.0077 -0.009,-0.632332 -0.27075,-0.357059 -0.39655,-0.390333 -0.50016,-0.132292 -0.0918,0.228561 -0.47977,-0.02543 -1.15121,-0.753612 -2.2431,-2.43267 -4.13551,-5.392368 -4.74701,-7.424251 -0.3205,-1.064915 -0.32086,-1.294009 -0.003,-1.612305 0.58133,-0.581338 1.93488,-0.133669 3.09079,1.022248 1.37831,1.37831 3.65499,6.01605 3.13248,6.381072 -0.30819,0.215303 -0.30368,0.240389 0.0271,0.150569 0.31392,-0.08525 0.41278,-0.682657 0.47294,-2.858015 0.0642,-2.322421 -0.0161,-2.99674 -0.51656,-4.334889 -1.31533,-3.517155 -0.3428,-11.260438 1.41428,-11.260438 0.62855,0 1.0081,0.795772 1.57545,3.30314 0.64217,2.83801 0.61363,4.368631 -0.13643,7.317373 -0.66477,2.613436 -1.17539,8.488536 -0.69611,8.009249 0.14466,-0.144661 0.37402,-0.793896 0.50969,-1.442745 0.90439,-4.325322 3.39929,-8.191184 5.28632,-8.191184 1.07707,0 1.23803,0.886012 0.54006,2.972771 -1.01514,3.034985 -2.63517,5.86114 -4.91186,8.568791 l -1.13942,1.355104 -0.16335,4.593553 c -0.0898,2.526454 -0.22098,4.686803 -0.29142,4.800774 -0.0704,0.113972 -0.23754,0.139564 -0.37134,0.05687 -0.1338,-0.08269 -0.1828,0.0072 -0.1089,0.199813 0.0739,0.19259 0.38618,0.507419 0.69394,0.69962 0.52844,0.330017 0.55128,0.307622 0.41054,-0.402567 -0.18337,-0.925341 0.8492,-2.866913 2.8749,-5.405754 1.53414,-1.92276 3.39361,-3.413654 4.94477,-3.964639 0.86586,-0.307561 1.04883,-0.299315 1.41178,0.06363 0.37959,0.379592 0.36705,0.509009 -0.13983,1.443156 -0.94741,1.746025 -5.21866,7.489007 -7.84725,10.551169 l -1.36273,1.5875 -0.11515,5.027083 c -0.0633,2.764896 -0.0332,5.384271 0.0669,5.820833 0.12616,0.550119 0.19785,0.631329 0.23357,0.264584 0.11022,-1.13138 0.27045,-1.515617 1.6034,-3.844916 2.30285,-4.024155 4.89426,-6.361008 7.52783,-6.788379 1.86718,-0.303001 2.25595,1.024025 0.89208,3.044999 -1.32794,1.967732 -8.11664,10.231529 -8.95071,10.895587 -0.82028,0.653073 -1.06154,1.564516 -1.06154,4.010397 0,3.085628 -0.25263,3.927103 -1.17903,3.927103 -0.4728,0 -0.70007,-0.170758 -0.79232,-0.595313 z"
       id="path28328" />
    <path
       style="fill:#8d7954"
       d="m 130.98872,66.296744 c 0,-0.925716 4.22689,-5.324077 5.1138,-5.321249 0.17059,5.44e-4 -0.0494,0.220229 -0.48875,0.488188 -0.99078,0.604211 -4.09588,3.961292 -4.09588,4.428265 0,0.188647 -0.11906,0.41658 -0.26459,0.506516 -0.14552,0.08994 -0.26458,0.04416 -0.26458,-0.10172 z"
       id="path28182" />
    <path
       style="fill:#8d7954"
       d="m 136.31856,66.311964 c 1.93088,-2.489714 3.13683,-4.363864 3.13683,-4.874915 0,-0.295072 -0.20836,-0.705017 -0.46302,-0.910988 -0.41786,-0.337964 -0.40495,-0.346354 0.13229,-0.086 0.36213,0.17549 0.59531,0.527733 0.59531,0.899287 0,0.695945 -1.60732,3.164532 -3.20791,4.926833 l -1.08137,1.190625 z"
       id="path28181" />
    <path
       style="fill:#8d7954"
       d="m 126.86188,65.207842 c 0,-2.255572 0.0406,-3.178307 0.0902,-2.05052 0.0496,1.127786 0.0496,2.973255 0,4.101041 -0.0496,1.127787 -0.0902,0.205052 -0.0902,-2.050521 z"
       id="path28179" />
    <path
       style="fill:#8d7954"
       d="m 119.45927,67.390655 c -2.13234,-2.375141 -3.90259,-4.524343 -4.19519,-5.093229 -0.11227,-0.218281 0.13516,0.01984 0.54984,0.529167 0.89775,1.102635 4.13982,4.857998 5.08234,5.886978 0.36656,0.400183 0.60739,0.727605 0.53519,0.727605 -0.0722,0 -0.95969,-0.922735 -1.97218,-2.050521 z"
       id="path28178" />
    <path
       style="fill:#627339"
       d="m 130.98872,66.296744 c 0,-0.925716 4.22689,-5.324077 5.1138,-5.321249 0.17059,5.44e-4 -0.0494,0.220229 -0.48875,0.488188 -0.99078,0.604211 -4.09588,3.961292 -4.09588,4.428265 0,0.188647 -0.11906,0.41658 -0.26459,0.506516 -0.14552,0.08994 -0.26458,0.04416 -0.26458,-0.10172 z"
       id="path28143" />
    <path
       style="fill:#627339"
       d="m 136.31856,66.311964 c 1.93088,-2.489714 3.13683,-4.363864 3.13683,-4.874915 0,-0.295072 -0.20836,-0.705017 -0.46302,-0.910988 -0.41786,-0.337964 -0.40495,-0.346354 0.13229,-0.086 0.36213,0.17549 0.59531,0.527733 0.59531,0.899287 0,0.695945 -1.60732,3.164532 -3.20791,4.926833 l -1.08137,1.190625 z"
       id="path28142" />
    <path
       style="fill:#627339"
       d="m 126.86188,65.207842 c 0,-2.255572 0.0406,-3.178307 0.0902,-2.05052 0.0496,1.127786 0.0496,2.973255 0,4.101041 -0.0496,1.127787 -0.0902,0.205052 -0.0902,-2.050521 z"
       id="path28140" />
    <path
       style="fill:#627339"
       d="m 119.45927,67.390655 c -2.13234,-2.375141 -3.90259,-4.524343 -4.19519,-5.093229 -0.11227,-0.218281 0.13516,0.01984 0.54984,0.529167 0.89775,1.102635 4.13982,4.857998 5.08234,5.886978 0.36656,0.400183 0.60739,0.727605 0.53519,0.727605 -0.0722,0 -0.95969,-0.922735 -1.97218,-2.050521 z"
       id="path28139" />
  </g>
</svg>
