<?xml version="1.0" encoding="UTF-8" standalone="no"?>
<!-- Created with Inkscape (http://www.inkscape.org/) -->

<svg
   width="185"
   height="185"
   viewBox="0 0 48.947914 48.947918"
   version="1.1"
   id="svg1"
   xmlns="http://www.w3.org/2000/svg"
   xmlns:svg="http://www.w3.org/2000/svg">
  <defs
     id="defs1" />
  <g
     id="g28448"
     transform="matrix(0.66813814,0,0,0.66813814,-104.72415,-63.460717)">
    <path
       style="fill:#d3c699"
       d="m 180.28968,167.0573 c -0.55798,-0.5904 -2.08746,-2.16797 -3.39886,-3.50573 -2.70626,-2.76065 -6.78092,-7.43643 -7.23458,-8.30186 -1.12462,-2.14544 1.11075,-1.99178 4.31791,0.2968 1.84719,1.31812 3.88608,3.44951 5.52539,5.77603 l 1.09855,1.55909 0.0818,-2.99784 c 0.045,-1.6488 0.004,-3.64536 -0.0914,-4.43679 -0.17115,-1.42137 -0.21784,-1.48478 -3.81745,-5.18443 -3.65235,-3.75385 -5.56568,-6.18555 -5.56568,-7.07357 0,-2.1909 5.67627,1.47745 8.29786,5.36259 l 0.98194,1.4552 -0.14985,-3.175 c -0.0824,-1.74625 -0.21805,-4.40645 -0.30141,-5.91155 l -0.15157,-2.73656 -1.22845,-0.83532 c -0.67565,-0.45942 -1.93797,-1.50812 -2.80516,-2.33043 -1.36888,-1.29803 -1.53043,-1.55089 -1.22556,-1.91823 0.49249,-0.59341 1.30233,-0.52048 2.53532,0.22832 0.58208,0.3535 1.38576,0.83085 1.78594,1.06077 l 0.7276,0.41805 v -3.03389 c 0,-1.66863 -0.11088,-3.10241 -0.24641,-3.18617 -0.13553,-0.0838 -0.64154,0.018 -1.12448,0.22613 -1.44121,0.62114 -5.0817,1.74708 -5.64533,1.74602 -0.28842,-5.4e-4 -0.91136,-0.23692 -1.3843,-0.52528 -0.68984,-0.4206 -0.85989,-0.69655 -0.85989,-1.39534 0,-1.13482 0.51301,-1.83234 1.97995,-2.69202 1.08578,-0.63631 1.6068,-1.47179 0.91783,-1.47179 -0.53484,0 -1.57487,-1.40487 -1.57487,-2.12732 0,-0.72415 0.97937,-2.01233 1.93027,-2.53891 0.4009,-0.222 0.43017,-0.38114 0.18751,-1.01938 -0.41396,-1.0888 -0.0955,-2.11416 0.93848,-3.02204 0.49633,-0.43579 0.79449,-0.85904 0.66258,-0.94057 -0.44916,-0.2776 -0.0389,-1.85352 0.63539,-2.44061 0.36603,-0.31871 0.96964,-1.27121 1.34135,-2.11667 0.79284,-1.80333 1.5108,-2.44926 2.7314,-2.45736 1.09007,-0.007 2.60607,1.38278 2.85262,2.61556 0.0901,0.45043 0.62513,1.34307 1.18897,1.98363 1.07942,1.22628 1.22975,1.6991 0.70659,2.22227 -0.24841,0.24841 -0.075,0.56685 0.78729,1.44541 1.00813,1.02722 1.09161,1.21479 0.94439,2.122 -0.0888,0.54735 -0.25048,1.05018 -0.35925,1.1174 -0.10877,0.0672 0.324,0.64397 0.9617,1.28168 1.3029,1.3029 1.38666,1.7299 0.6303,3.21346 -0.71848,1.40924 -0.67511,1.63058 0.38821,1.98151 2.0246,0.66818 2.87625,2.84787 1.60819,4.11593 -0.86572,0.86572 -1.5138,0.82529 -5.07615,-0.31666 -1.65757,-0.53135 -3.06991,-0.90995 -3.13854,-0.84132 -0.0686,0.0686 -0.0491,1.4464 0.0433,3.06172 l 0.16804,2.93694 1.37388,-1.03729 c 1.6927,-1.278 2.78101,-1.39959 2.78101,-0.3107 0,0.55999 -0.47699,1.18845 -2.0804,2.741 l -2.0804,2.01442 0.21354,4.69664 c 0.11744,2.58316 0.25627,4.73938 0.30851,4.79162 0.0522,0.0522 0.72432,-1.0172 1.49353,-2.37651 1.49965,-2.65012 3.67149,-5.07422 5.52192,-6.1633 2.24674,-1.32233 2.53477,-0.0418 0.68219,3.03289 -1.43353,2.3792 -4.0822,6.27027 -6.09146,8.94874 -1.58712,2.11573 -1.56405,1.97203 -1.23456,7.68979 l 0.17004,2.95084 1.3001,-1.99155 c 2.27058,-3.47818 5.93819,-6.87489 8.05398,-7.45909 0.9914,-0.27374 1.68051,-0.14347 1.68051,0.31767 0,0.90755 -4.4635,6.84027 -8.58597,11.41216 -1.38959,1.54108 -2.52653,2.97578 -2.52653,3.18822 0,0.37712 -0.7651,0.93403 -1.28321,0.93403 -0.14281,0 -0.71619,-0.48305 -1.27416,-1.07345 z"
       id="path28432" />
    <path
       style="fill:#d3c699"
       d="m 202.18362,167.67216 c -1.38799,-1.28611 -5.0504,-5.43194 -6.51454,-7.37445 -1.66145,-2.20429 -2.37728,-3.59502 -2.15224,-4.18145 0.57738,-1.50465 4.26079,1.24563 7.64246,5.70639 l 0.93437,1.23251 0.16397,-1.36481 c 0.0902,-0.75064 0.16501,-2.8798 0.16628,-4.73145 l 0.002,-3.36664 -1.53591,-1.79273 c -3.4267,-3.99968 -7.20305,-9.1483 -8.36365,-11.40289 -0.3641,-0.7073 -0.38845,-0.95599 -0.12472,-1.27378 1.07981,-1.30109 5.65956,2.58519 8.47401,7.19087 0.75213,1.23082 1.40863,2.23786 1.45889,2.23786 0.0503,0 0.0914,-2.3857 0.0914,-5.30156 v -5.30155 l -3.65103,-3.62814 c -3.68623,-3.6631 -4.48781,-4.7062 -4.19764,-5.46236 0.46566,-1.21349 3.19547,0.095 6.03611,2.8933 l 1.87935,1.85135 -0.15004,-4.36563 -0.15004,-4.36562 -0.87554,-0.65514 c -0.48155,-0.36032 -1.44975,-1.21517 -2.15156,-1.89967 -1.11415,-1.08667 -1.23883,-1.31401 -0.98288,-1.79226 0.41263,-0.771 1.32887,-0.68476 2.61378,0.24603 0.60266,0.43656 1.1563,0.79375 1.23032,0.79375 0.074,0 0.13458,-1.01203 0.13458,-2.24896 0,-1.23693 -0.0399,-2.24896 -0.0887,-2.24896 -0.0488,0 -1.8478,0.53578 -3.99785,1.19063 -2.15004,0.65484 -4.33605,1.19062 -4.85779,1.19062 -1.20502,0 -2.43278,-1.08856 -2.43278,-2.15696 0,-0.92056 1.20901,-2.33344 2.78912,-3.25945 1.33542,-0.78261 1.46342,-1.21595 0.53824,-1.82215 -1.4611,-0.95735 -1.06194,-2.61113 0.94034,-3.89599 0.9643,-0.61879 1.23064,-0.91955 1.02921,-1.16226 -0.32925,-0.39672 -0.0703,-1.89094 0.47341,-2.73182 0.21652,-0.33486 0.7103,-0.77256 1.09729,-0.97268 0.60753,-0.31417 0.68819,-0.49585 0.59075,-1.33053 -0.0934,-0.80023 0.0254,-1.11111 0.68993,-1.80544 0.44153,-0.461319 0.93481,-1.338496 1.09619,-1.949285 0.37461,-1.417882 1.87234,-2.725933 3.12122,-2.725933 1.23219,0 2.36452,1.079825 2.59481,2.474488 0.13593,0.823217 0.47566,1.381564 1.35977,2.23483 0.98031,0.9461 1.15331,1.25766 1.02843,1.85208 -0.12292,0.58505 0.0417,0.903 0.90786,1.75333 0.89537,0.87902 1.05801,1.20644 1.05801,2.1299 0,0.60016 -0.1286,1.2198 -0.28577,1.37698 -0.20465,0.20465 0.0367,0.50239 0.85029,1.04878 0.74101,0.49766 1.26943,1.11338 1.51957,1.7706 l 0.3835,1.0076 -1.08127,1.08127 -1.08127,1.08127 1.76571,1.04126 c 0.97114,0.5727 2.03359,1.33434 2.36101,1.69253 0.83131,0.90942 0.79646,2.29674 -0.0797,3.17288 -0.89719,0.89719 -1.88447,0.77091 -6.30315,-0.8062 -1.87346,-0.66867 -3.55799,-1.21577 -3.74342,-1.21577 -0.25149,0 -0.31422,0.51146 -0.24695,2.01326 0.0496,1.1073 0.15779,2.08088 0.24044,2.16353 0.0827,0.0826 0.47644,-0.16091 0.87511,-0.54122 0.82319,-0.78531 2.10095,-1.34129 2.62255,-1.14113 0.95164,0.36518 -0.14175,2.14295 -2.28612,3.71706 l -1.33138,0.97732 v 4.64737 4.64738 l 0.75555,-1.03189 c 1.01138,-1.3813 3.69138,-3.89782 4.71445,-4.42687 1.32424,-0.68479 3.00606,-0.98945 3.16568,-0.57347 0.25162,0.6557 -0.65484,1.85375 -4.64973,6.1455 l -3.99672,4.29372 0.0715,5.49587 0.0715,5.49586 0.89645,-1.5875 c 1.13893,-2.01689 1.52663,-2.51486 3.65119,-4.68964 1.79253,-1.83491 3.89608,-3.11556 5.11751,-3.11556 0.91844,0 1.095,0.21484 0.73524,0.89468 -0.41687,0.78778 -8.26864,11.1102 -9.15891,12.04088 -0.95607,0.99946 -1.10142,1.58516 -1.27385,5.13309 -0.10148,2.08826 -0.0759,3.62495 0.0603,3.62193 0.13014,-0.003 0.5938,-0.6068 1.03037,-1.34203 0.99044,-1.66803 3.44696,-4.16412 5.64294,-5.73384 2.59898,-1.85779 5.77246,-2.9735 6.25178,-2.19795 0.23765,0.38453 -2.18103,3.13547 -7.81127,8.88432 -3.1541,3.22054 -5.25514,5.57493 -5.36474,6.01164 -0.0991,0.39481 -0.41278,0.84232 -0.69709,0.99448 -0.42004,0.2248 -0.66496,0.13946 -1.30693,-0.45538 z"
       id="path28430" />
    <path
       style="fill:#cfbe90"
       d="m 199.84824,165.14475 c -3.02709,-3.31395 -5.6727,-6.7017 -6.16869,-7.89912 -0.27908,-0.67377 -0.26264,-0.85645 0.11066,-1.22975 0.40819,-0.4082 0.50427,-0.40299 1.3928,0.0755 1.38084,0.74363 4.28726,3.51571 5.65428,5.39292 0.64859,0.89065 1.27143,1.61936 1.38409,1.61936 0.11266,0 0.20484,-2.16066 0.20484,-4.80146 v -4.80145 l -1.93201,-2.27615 c -4.46531,-5.2607 -8.50344,-11.05687 -8.21922,-11.79754 0.0759,-0.19776 0.31425,-0.42721 0.5297,-0.50989 1.28181,-0.49187 5.88175,3.69495 7.90722,7.19708 0.69755,1.20609 1.36863,2.25491 1.49129,2.33072 0.12266,0.0758 0.22302,-2.27845 0.22302,-5.23168 v -5.36951 l -3.53783,-3.45694 c -3.47322,-3.39381 -4.57951,-4.82873 -4.29483,-5.5706 0.43757,-1.1403 3.19325,0.20686 5.78214,2.82669 l 2.05052,2.07503 -0.0196,-3.36496 c -0.0307,-5.26207 -0.0468,-5.31238 -2.31061,-7.21507 -1.6209,-1.36233 -1.9202,-1.73838 -1.85208,-2.32699 0.07,-0.60442 0.19795,-0.69696 0.92025,-0.66533 0.46145,0.0202 1.24659,0.34763 1.74477,0.7276 0.49817,0.37998 0.98383,0.69087 1.07923,0.69087 0.0954,0 0.17346,-1.01203 0.17346,-2.24896 0,-1.62487 -0.0918,-2.24787 -0.33072,-2.24504 -0.18191,0.002 -1.75948,0.48511 -3.50573,1.07322 -4.13326,1.39202 -5.5717,1.55179 -6.53741,0.72614 -1.48446,-1.26918 -1.04059,-2.89421 1.18461,-4.3369 2.43774,-1.58049 2.279,-1.32925 1.36179,-2.15537 -0.44881,-0.40423 -0.89572,-0.95419 -0.99315,-1.22213 -0.29752,-0.81824 0.53271,-2.12284 1.787,-2.80803 l 1.16474,-0.63626 -0.13348,-1.34157 c -0.12324,-1.23873 -0.0683,-1.40747 0.71688,-2.20146 0.46769,-0.47294 1.00348,-0.85989 1.19065,-0.85989 0.24398,0 0.30034,-0.29794 0.19912,-1.05264 -0.12346,-0.92045 -0.0415,-1.14581 0.65296,-1.79449 0.43678,-0.40802 0.88364,-1.154723 0.99301,-1.659341 0.40054,-1.847946 2.25357,-3.422068 3.62363,-3.078207 1.01853,0.255636 2.00432,1.411357 2.20204,2.581614 0.13053,0.77259 0.4835,1.338164 1.33074,2.132264 0.95076,0.89112 1.12821,1.20522 1.01126,1.78999 -0.1149,0.57448 0.0635,0.91455 0.93886,1.78993 0.85964,0.85964 1.0807,1.27331 1.0807,2.02226 0,0.51786 -0.11906,1.01514 -0.26458,1.10508 -0.53235,0.32901 -0.23921,0.84286 0.82064,1.43853 0.6874,0.38634 1.22354,0.94097 1.46254,1.51298 0.3653,0.87428 0.34969,0.93635 -0.48991,1.94757 -0.47697,0.57447 -0.95652,1.04665 -1.06567,1.04927 -0.47933,0.0115 -0.13407,0.58817 0.52917,0.8838 2.82221,1.25794 4.28688,2.84349 3.93218,4.25671 -0.39637,1.57927 -1.75344,2.04794 -3.69766,1.277 -0.74745,-0.29638 -2.66869,-0.96049 -4.26941,-1.47579 l -2.91042,-0.93691 -0.0848,1.24112 c -0.0466,0.68262 -0.009,1.74892 0.083,2.36956 l 0.16774,1.12842 1.10888,-0.90865 c 1.33014,-1.08994 2.48431,-1.4608 2.71065,-0.87098 0.26338,0.68637 -0.6239,1.97823 -2.15015,3.13056 -0.80534,0.60804 -1.55691,1.29519 -1.67014,1.527 -0.11323,0.23181 -0.13718,2.38177 -0.0532,4.77768 l 0.15266,4.35622 0.51166,-0.78434 c 1.59383,-2.44322 4.68169,-4.91872 6.69979,-5.37114 1.32756,-0.29762 1.61125,-0.0444 1.09145,0.97401 -0.39647,0.77682 -7.46055,8.64464 -8.06551,8.98319 -0.31607,0.17689 -0.36839,1.17314 -0.30895,5.88299 l 0.0716,5.67005 1.15476,-1.94436 c 2.24994,-3.7884 6.50779,-7.43845 8.67709,-7.43845 1.3642,0 0.69532,1.06559 -5.96097,9.49626 -4.27237,5.41125 -4.03285,4.86185 -3.94492,9.04864 l 0.074,3.52547 1.15094,-1.76768 c 2.06943,-3.17837 6.10592,-6.54887 9.10541,-7.60311 1.78822,-0.62851 2.57594,-0.67091 2.57594,-0.13867 0,0.57085 -2.67011,3.58166 -8.13593,9.17406 -2.65576,2.71725 -4.82865,5.12123 -4.82865,5.34218 0,0.53918 -0.72583,1.23551 -1.27567,1.22381 -0.24427,-0.005 -1.66374,-1.34465 -3.15439,-2.97656 z"
       id="path28407" />
    <path
       style="fill:#cfbe90"
       d="m 178.02629,164.62503 c -3.55202,-3.62501 -7.44939,-7.99107 -8.2645,-9.25837 -0.99817,-1.55191 0.26843,-1.99374 2.4893,-0.86834 2.01866,1.02293 4.34239,3.11545 6.29398,5.66773 0.98364,1.28641 1.90951,2.54554 2.05749,2.79807 0.18981,0.32393 0.25027,-0.58139 0.20531,-3.07408 -0.10888,-6.03569 0.14926,-5.39108 -3.74213,-9.34473 -4.84176,-4.91922 -6.64743,-7.52912 -5.51082,-7.96528 1.44585,-0.55483 6.21811,3.2991 8.57545,6.92526 0.26177,0.40267 0.29314,-0.41107 0.15913,-4.12869 -0.25816,-7.16208 -0.24355,-7.09533 -1.79522,-8.19754 -0.72054,-0.51182 -1.9707,-1.55789 -2.77813,-2.3246 -1.39915,-1.32857 -1.44431,-1.41213 -0.96226,-1.78024 0.66778,-0.50992 1.54677,-0.28837 3.26045,0.8218 0.76174,0.49349 1.44635,0.89724 1.52135,0.89724 0.075,0 0.13636,-1.42875 0.13636,-3.175 0,-2.13072 -0.0956,-3.175 -0.29074,-3.175 -0.15991,0 -0.66592,0.16742 -1.12448,0.37205 -1.51996,0.67826 -4.60409,1.48004 -5.69315,1.48004 -0.7632,0 -1.22889,-0.16723 -1.61257,-0.57906 -1.05485,-1.13225 -0.53207,-2.57278 1.30052,-3.58359 1.38888,-0.76607 1.76544,-1.59517 0.83499,-1.83848 -0.27501,-0.0719 -0.7188,-0.53702 -0.98621,-1.03357 -0.46811,-0.86923 -0.4686,-0.93548 -0.0131,-1.78128 0.2602,-0.48316 0.83356,-1.09141 1.27413,-1.35166 0.51675,-0.30525 0.75726,-0.62731 0.67767,-0.90746 -0.23152,-0.8149 -0.25054,-0.9639 -0.21922,-1.71751 0.0195,-0.46995 0.35531,-1.07695 0.89123,-1.61106 0.71235,-0.70995 0.84569,-1.02502 0.77714,-1.83625 -0.0687,-0.81275 0.0583,-1.11098 0.74662,-1.754 0.45615,-0.42611 0.94448,-1.19164 1.08517,-1.70117 0.14069,-0.50954 0.66703,-1.36246 1.16965,-1.8954 0.81639,-0.86562 1.01688,-0.95225 1.8798,-0.81222 1.24047,0.2013 2.04515,0.96923 2.48312,2.3697 0.19183,0.61342 0.7453,1.53704 1.22994,2.0525 0.89737,0.95444 1.17107,2.15969 0.5742,2.52857 -0.19923,0.12313 0.099,0.53589 0.84986,1.17615 1.03694,0.88421 1.14968,1.09231 1.08799,2.00819 -0.0378,0.56197 -0.1792,1.13216 -0.31414,1.26709 -0.15071,0.15072 0.16031,0.59253 0.80646,1.14562 0.85605,0.73274 1.05179,1.0735 1.05179,1.83104 0,1.08559 -0.73175,2.4676 -1.30654,2.4676 -0.48205,0 0.42823,0.67096 1.96266,1.44666 1.30929,0.66188 1.87913,1.72287 1.5471,2.88058 -0.28395,0.99006 -1.24916,1.56045 -2.33551,1.38017 -0.43657,-0.0724 -2.07206,-0.54154 -3.63443,-1.04241 l -2.84067,-0.91068 0.0482,3.24355 0.0482,3.24355 1.58165,-1.16434 c 1.7341,-1.27657 2.62457,-1.4017 2.76799,-0.38895 0.0679,0.47964 -0.3869,1.08023 -2.02746,2.67729 l -2.11503,2.05894 0.22715,4.86334 c 0.12494,2.67484 0.23675,4.92287 0.24849,4.99563 0.0117,0.0728 0.46591,-0.70115 1.00929,-1.71979 1.3992,-2.623 2.42698,-4.03262 4.07531,-5.58933 2.30414,-2.17609 3.91864,-2.72284 3.91864,-1.32707 0,0.97739 -3.9953,7.32381 -7.31737,11.62344 l -1.41388,1.82993 0.0262,3.08152 c 0.0144,1.69483 0.10652,3.73635 0.20474,4.53672 l 0.17858,1.4552 0.49095,-0.92604 c 2.37645,-4.48252 7.83946,-9.26881 10.03305,-8.79022 0.32331,0.0705 0.42816,0.25035 0.31788,0.54514 -0.6789,1.81473 -4.93886,7.44129 -8.52087,11.25436 -1.07635,1.14578 -2.14765,2.45547 -2.38067,2.91042 -0.42545,0.83066 -0.81386,1.21247 -1.24108,1.22 -0.12639,0.002 -1.77561,-1.57353 -3.66493,-3.50168 z"
       id="path28406" />
    <path
       style="fill:#e6c938"
       d="m 176.45138,162.90279 c -5.32282,-5.64453 -6.1518,-6.58839 -6.67903,-7.60463 -1.2497,-2.40879 1.95386,-1.64242 5.45558,1.3051 1.50772,1.26911 3.10031,3.14069 5.30968,6.23985 0.45364,0.63634 0.46319,0.51736 0.29765,-3.70819 -0.0941,-2.40109 -0.24544,-4.56084 -0.33639,-4.79943 -0.091,-0.2386 -1.71549,-2.02795 -3.61009,-3.97634 -3.27079,-3.36364 -5.68339,-6.44976 -5.68339,-7.26998 0,-0.68897 0.73219,-0.66762 2.28419,0.0666 1.78234,0.84318 5.53246,4.39198 6.40092,6.05728 l 0.55192,1.05834 0.005,-1.32292 c 0.0128,-3.30546 -0.50251,-10.44477 -0.7868,-10.89999 -0.17135,-0.27437 -0.75927,-0.75653 -1.30651,-1.07148 -1.50829,-0.86806 -3.96779,-3.21459 -3.80741,-3.63252 0.34119,-0.88915 1.78143,-0.61913 3.71769,0.697 1.23779,0.84137 1.80975,0.96292 1.56813,0.33327 -0.0883,-0.23018 -0.1606,-1.65893 -0.1606,-3.175 0,-3.03882 -0.0244,-3.07429 -1.64467,-2.38898 -3.7075,1.56815 -6.10735,1.86546 -7.04046,0.87221 -1.00474,-1.0695 -0.59138,-2.39439 1.05626,-3.38552 1.9426,-1.16857 1.96317,-1.23185 0.76101,-2.34167 -1.39784,-1.29049 -1.38162,-1.91888 0.0858,-3.32494 1.11598,-1.06929 1.15115,-1.15193 1.02943,-2.41869 -0.11586,-1.20583 -0.0544,-1.38732 0.76278,-2.25087 0.7329,-0.77452 0.87429,-1.10994 0.80605,-1.9122 -0.0685,-0.80578 0.0597,-1.106 0.74662,-1.74766 0.45615,-0.42611 0.94448,-1.19164 1.08517,-1.70117 0.14069,-0.50954 0.66703,-1.36246 1.16965,-1.8954 0.81639,-0.86562 1.01688,-0.95225 1.8798,-0.81222 1.27192,0.20641 2.08988,1.01453 2.52213,2.49177 0.20184,0.68982 0.71953,1.55111 1.21219,2.01674 0.88068,0.83236 1.13051,1.90733 0.57289,2.46496 -0.20629,0.20629 0.0169,0.53127 0.79375,1.15553 0.96054,0.77191 1.08076,0.9943 1.08076,1.99925 0,0.6219 -0.11906,1.20431 -0.26458,1.29425 -0.37969,0.23466 -0.32627,0.66146 0.0828,0.66146 0.68177,0 1.76929,1.44747 1.76929,2.3549 0,1.01636 -0.74159,2.4076 -1.28335,2.4076 -0.22522,0 -0.10627,0.21179 0.29721,0.52916 0.37,0.29105 0.77514,0.52917 0.90031,0.52917 0.57814,0 2.15724,1.37116 2.31834,2.01305 0.36604,1.45841 -1.09605,3.06843 -2.42911,2.6749 -1.20655,-0.35619 -5.54365,-1.75037 -5.95496,-1.91425 -0.42625,-0.16983 -0.46302,0.0805 -0.46302,3.15112 0,1.83458 0.066,3.3356 0.14664,3.3356 0.0806,0 0.52427,-0.35293 0.98581,-0.78428 1.74659,-1.63232 3.36546,-2.0304 3.36546,-0.82756 0,0.29893 -0.90148,1.42292 -2.11263,2.63407 l -2.11263,2.11263 0.1406,3.79038 c 0.0773,2.08471 0.20462,4.31473 0.28287,4.9556 l 0.14227,1.16523 1.06254,-1.95898 c 1.8967,-3.49689 4.26436,-6.18565 6.32635,-7.1843 1.16047,-0.56203 1.57621,-0.3572 1.39081,0.6852 -0.23107,1.29918 -3.4043,6.31802 -7.23324,11.44025 l -1.32652,1.77457 0.0232,3.33557 c 0.0193,2.77901 0.34884,6.74768 0.47063,5.66802 0.0195,-0.17237 0.74716,-1.37756 1.61715,-2.6782 2.51096,-3.75392 6.35497,-6.92188 8.40623,-6.9278 0.47294,-0.001 0.85959,0.0868 0.85921,0.19595 -0.001,0.30653 -1.72167,3.08852 -2.86537,4.63288 -1.50753,2.03565 -4.09974,5.10518 -6.03581,7.14722 -0.9345,0.98565 -1.91284,2.17627 -2.1741,2.64584 -0.93894,1.68759 -1.30165,1.46331 -6.43221,-3.97734 z"
       id="path28380" />
    <path
       style="fill:#e6c938"
       d="m 200.6801,166.06572 c -3.69311,-4.00297 -6.4604,-7.53501 -6.98538,-8.91583 -0.22899,-0.6023 -0.20427,-0.83427 0.12392,-1.16245 0.37029,-0.37029 0.50591,-0.3595 1.39994,0.11133 1.27049,0.66909 5.09084,4.45245 6.09526,6.03624 0.42535,0.67071 0.84964,1.1432 0.94287,1.04997 0.0932,-0.0932 0.16951,-2.31123 0.16951,-4.92888 v -4.75938 l -1.92207,-2.27413 c -4.01141,-4.74619 -8.1321,-10.56712 -8.1321,-11.48751 0,-0.20851 0.15631,-0.50884 0.34736,-0.6674 1.07599,-0.89299 5.7988,3.32632 8.10051,7.23691 0.77023,1.30861 1.44674,2.4289 1.50336,2.48953 0.0566,0.0606 0.10294,-2.37057 0.10294,-5.40267 v -5.51291 l -3.47194,-3.49507 c -1.90956,-1.92228 -3.69759,-3.85146 -3.97338,-4.28705 -0.5862,-0.92584 -0.41017,-1.65317 0.40011,-1.65317 1.34347,0 4.77324,2.49929 6.27532,4.57285 l 0.76989,1.0628 v -3.84308 c 0,-2.1137 -0.0733,-4.20943 -0.16282,-4.65717 -0.11931,-0.59656 -0.68916,-1.24608 -2.13265,-2.43082 -1.67132,-1.37174 -1.95738,-1.7245 -1.8877,-2.32785 0.12103,-1.04791 0.95151,-1.02352 2.54826,0.0748 l 1.37032,0.94262 v -2.38564 c 0,-1.57862 -0.0998,-2.38564 -0.29512,-2.38564 -0.16232,0 -1.7912,0.47829 -3.61974,1.06286 -1.82854,0.58458 -3.76137,1.1327 -4.29518,1.21806 -1.29582,0.20721 -2.49281,-0.4258 -2.87425,-1.52 -0.48219,-1.38321 0.30124,-2.34333 3.5732,-4.37908 0.47217,-0.29377 0.45236,-0.35633 -0.36026,-1.13789 -1.52324,-1.46501 -0.93737,-3.22793 1.43144,-4.30723 0.524,-0.23875 0.5696,-0.40444 0.4317,-1.56879 -0.1436,-1.21242 -0.0935,-1.36452 0.72996,-2.21406 0.48628,-0.50171 1.04079,-0.9122 1.23224,-0.9122 0.25767,0 0.30434,-0.2737 0.17963,-1.05359 -0.14979,-0.93671 -0.0805,-1.13579 0.62465,-1.79449 0.43623,-0.4075 0.88279,-1.149069 0.99236,-1.647939 0.40111,-1.826259 2.27808,-3.426279 3.62327,-3.088659 1.0301,0.25854 1.97995,1.386028 2.17025,2.576131 0.12769,0.798497 0.45364,1.33215 1.27939,2.094627 0.94818,0.87551 1.09887,1.15955 1.04439,1.96853 -0.035,0.51996 0.0584,0.94539 0.20754,0.94539 0.14917,0 0.62915,0.49411 1.06662,1.09803 0.78569,1.08461 1.04471,2.42083 0.53083,2.73843 -0.52992,0.3275 -0.24118,0.84175 0.80173,1.4279 1.13678,0.63891 1.9234,1.98627 1.56063,2.67314 -0.11529,0.21828 -0.57492,0.79117 -1.0214,1.2731 -0.44649,0.48192 -0.81179,0.91709 -0.81179,0.96704 0,0.05 0.94568,0.64523 2.10151,1.32285 1.72325,1.01027 2.15649,1.39859 2.40691,2.15737 0.69456,2.10457 -1.13552,3.54589 -3.33052,2.62301 -1.36521,-0.574 -3.80261,-1.406 -5.89185,-2.01116 l -1.67125,-0.48409 0.0683,2.3676 c 0.0376,1.30219 0.11765,2.36761 0.17796,2.36761 0.0603,0 0.55614,-0.35362 1.10184,-0.78582 0.81242,-0.64344 2.11015,-1.33085 2.51247,-1.33085 0.0477,0 0.15819,0.18614 0.24549,0.41364 0.26637,0.69415 -0.50611,1.79121 -2.19623,3.11905 -0.88553,0.69571 -1.63481,1.40585 -1.66508,1.5781 -0.13314,0.75776 -0.0616,8.90138 0.0777,8.84384 0.0852,-0.0352 0.89048,-0.92258 1.78948,-1.97196 0.89901,-1.04938 2.14232,-2.25731 2.76292,-2.68429 1.27079,-0.87433 3.79985,-1.72343 4.02899,-1.35268 0.0819,0.13247 -0.0525,0.6313 -0.29854,1.10851 -0.50234,0.97423 -7.68693,8.93746 -8.06356,8.93746 -0.13905,0 -0.24021,2.50333 -0.2379,5.88698 l 0.004,5.88698 1.25172,-2.11667 c 2.32326,-3.92864 6.49267,-7.54062 8.70435,-7.54062 1.31407,0 0.84214,0.76517 -5.38504,8.73125 l -4.44681,5.68854 -0.0869,2.77812 c -0.0478,1.52797 -0.0478,3.25093 0,3.82881 l 0.0869,1.05068 1.15094,-1.7712 c 2.09348,-3.22169 6.13745,-6.56361 9.22994,-7.62758 1.73811,-0.598 2.45141,-0.64202 2.45141,-0.15129 0,0.54485 -2.84837,3.76537 -8.11845,9.17914 -2.62638,2.69799 -4.86677,5.1983 -4.97864,5.55625 -0.50092,1.60281 -1.25168,1.38242 -3.46569,-1.01734 z"
       id="path28378" />
    <path
       style="fill:#879964"
       d="m 176.45138,162.90279 c -5.32282,-5.64453 -6.1518,-6.58839 -6.67903,-7.60463 -1.2497,-2.40879 1.95386,-1.64242 5.45558,1.3051 1.50772,1.26911 3.10031,3.14069 5.30968,6.23985 0.45364,0.63634 0.46319,0.51736 0.29765,-3.70819 -0.0941,-2.40109 -0.24544,-4.56084 -0.33639,-4.79943 -0.091,-0.2386 -1.71549,-2.02795 -3.61009,-3.97634 -3.27079,-3.36364 -5.68339,-6.44976 -5.68339,-7.26998 0,-0.68897 0.73219,-0.66762 2.28419,0.0666 1.78234,0.84318 5.53246,4.39198 6.40092,6.05728 l 0.55192,1.05834 0.005,-1.32292 c 0.0128,-3.30546 -0.50251,-10.44477 -0.7868,-10.89999 -0.17135,-0.27437 -0.75927,-0.75653 -1.30651,-1.07148 -1.50829,-0.86806 -3.96779,-3.21459 -3.80741,-3.63252 0.34119,-0.88915 1.78143,-0.61913 3.71769,0.697 0.6083,0.41348 1.20361,0.75195 1.32291,0.75215 0.1193,2.1e-4 0.17744,-1.48808 0.12919,-3.30729 l -0.0877,-3.30766 h 0.94762 0.94762 v 3.43958 c 0,1.89177 0.066,3.43959 0.14664,3.43959 0.0806,0 0.52427,-0.35293 0.98581,-0.78428 1.74659,-1.63232 3.36546,-2.0304 3.36546,-0.82756 0,0.29893 -0.90148,1.42292 -2.11263,2.63407 l -2.11263,2.11263 0.1406,3.79038 c 0.0773,2.08471 0.20462,4.31473 0.28287,4.9556 l 0.14227,1.16523 1.06254,-1.95898 c 1.8967,-3.49689 4.26436,-6.18565 6.32635,-7.1843 1.16047,-0.56203 1.57621,-0.3572 1.39081,0.6852 -0.23107,1.29918 -3.4043,6.31802 -7.23324,11.44025 l -1.32652,1.77457 0.0232,3.33557 c 0.0193,2.77901 0.34884,6.74768 0.47063,5.66802 0.0195,-0.17237 0.74716,-1.37756 1.61715,-2.6782 2.51096,-3.75392 6.35497,-6.92188 8.40623,-6.9278 0.47294,-0.001 0.85959,0.0868 0.85921,0.19595 -10e-4,0.30653 -1.72167,3.08852 -2.86537,4.63288 -1.50753,2.03565 -4.09974,5.10518 -6.03581,7.14722 -0.9345,0.98565 -1.91284,2.17627 -2.1741,2.64584 -0.93894,1.68759 -1.30165,1.46331 -6.43221,-3.97734 z"
       id="path28360" />
    <path
       style="fill:#879964"
       d="m 200.6801,166.06572 c -3.69311,-4.00297 -6.4604,-7.53501 -6.98538,-8.91583 -0.22899,-0.6023 -0.20427,-0.83427 0.12392,-1.16245 0.37029,-0.37029 0.50591,-0.3595 1.39994,0.11133 1.27049,0.66909 5.09084,4.45245 6.09526,6.03624 0.42535,0.67071 0.84964,1.1432 0.94287,1.04997 0.0932,-0.0932 0.16951,-2.31123 0.16951,-4.92888 v -4.75938 l -1.92207,-2.27413 c -4.01141,-4.74619 -8.1321,-10.56712 -8.1321,-11.48751 0,-0.20851 0.15631,-0.50884 0.34736,-0.6674 1.07599,-0.89299 5.7988,3.32632 8.10051,7.23691 0.77023,1.30861 1.44674,2.4289 1.50336,2.48953 0.0566,0.0606 0.10294,-2.37057 0.10294,-5.40267 v -5.51291 l -3.47194,-3.49507 c -1.90956,-1.92228 -3.69759,-3.85146 -3.97338,-4.28705 -0.5862,-0.92584 -0.41017,-1.65317 0.40011,-1.65317 1.34347,0 4.77324,2.49929 6.27532,4.57285 l 0.76989,1.0628 v -3.84308 c 0,-2.1137 -0.0733,-4.20943 -0.16282,-4.65717 -0.11931,-0.59656 -0.68916,-1.24608 -2.13265,-2.43082 -1.67132,-1.37174 -1.95738,-1.7245 -1.8877,-2.32785 0.12103,-1.04791 0.95151,-1.02352 2.54826,0.0748 l 1.37032,0.94262 v -2.38564 -2.38564 h 0.92605 0.92604 l 0.0417,2.05052 c 0.0229,1.12779 0.0362,2.19935 0.0294,2.38125 -0.0177,0.47746 0.1351,0.42145 1.24182,-0.45509 0.81242,-0.64344 2.11015,-1.33085 2.51247,-1.33085 0.0477,0 0.15819,0.18614 0.24549,0.41364 0.26637,0.69415 -0.50611,1.79121 -2.19623,3.11905 -0.88553,0.69571 -1.63481,1.40585 -1.66508,1.5781 -0.13314,0.75776 -0.0616,8.90138 0.0777,8.84384 0.0852,-0.0352 0.89048,-0.92258 1.78948,-1.97196 0.89901,-1.04938 2.14232,-2.25731 2.76292,-2.68429 1.27079,-0.87433 3.79985,-1.72343 4.02899,-1.35268 0.0819,0.13247 -0.0525,0.6313 -0.29854,1.10851 -0.50234,0.97423 -7.68693,8.93746 -8.06356,8.93746 -0.13905,0 -0.24021,2.50333 -0.2379,5.88698 l 0.004,5.88698 1.25172,-2.11667 c 2.32326,-3.92864 6.49267,-7.54062 8.70435,-7.54062 1.31407,0 0.84214,0.76517 -5.38504,8.73125 l -4.44681,5.68854 -0.0869,2.77812 c -0.0478,1.52797 -0.0478,3.25093 0,3.82881 l 0.0869,1.05068 1.15094,-1.7712 c 2.09348,-3.22169 6.13745,-6.56361 9.22994,-7.62758 1.73811,-0.598 2.45141,-0.64202 2.45141,-0.15129 0,0.54485 -2.84837,3.76537 -8.11845,9.17914 -2.62638,2.69799 -4.86677,5.1983 -4.97864,5.55625 -0.50092,1.60281 -1.25168,1.38242 -3.46569,-1.01734 z"
       id="path28358" />
    <path
       style="fill:#779459"
       d="m 176.10018,160.45784 c 0.0899,-0.14553 0.0374,-0.26459 -0.11668,-0.26459 -0.28037,0 -1.33853,-0.94124 -1.33853,-1.19062 0,-0.17164 1.72318,-0.17301 1.89467,-0.002 0.22087,0.22087 -0.0867,1.7213 -0.35282,1.7213 -0.13759,0 -0.17658,-0.11906 -0.0866,-0.26458 z"
       id="path28290" />
    <path
       style="fill:#779459"
       d="m 183.67455,135.93309 c 0.31307,-0.38596 0.30842,-0.41632 -0.0337,-0.22029 -0.21828,0.12505 0.13891,-0.27722 0.79375,-0.89393 0.65485,-0.61671 1.0418,-1.04634 0.8599,-0.95472 -0.1819,0.0916 -0.33073,0.0504 -0.33073,-0.0916 0,-0.14198 0.14883,-0.3265 0.33073,-0.41004 0.1819,-0.0836 0.0346,-0.0765 -0.32726,0.0157 -0.84416,0.21498 -2.6493,1.40545 -2.6493,1.74718 0,0.14912 0.16187,0.12748 0.37605,-0.0503 0.30857,-0.25609 0.35052,-0.21442 0.23373,0.23219 -0.0841,0.32139 -0.0149,0.54429 0.16872,0.54429 0.17108,0 0.23747,0.11906 0.14754,0.26458 -0.26617,0.43067 0.0375,0.30156 0.43062,-0.18308 z"
       id="path28289" />
    <path
       style="fill:#779459"
       d="m 180.73039,136.07207 c 0,-0.26679 0.13077,-0.48507 0.29061,-0.48507 0.20054,0 0.25881,-0.97275 0.188,-3.13819 -0.0803,-2.45688 -0.19677,-3.23234 -0.5363,-3.57187 -0.23853,-0.23853 -0.48374,-0.43369 -0.54492,-0.43369 -0.0612,0 -0.0841,0.62508 -0.0509,1.38907 0.0332,0.76398 0.0904,2.30915 0.12709,3.43371 0.0367,1.12456 0.17062,1.98048 0.29753,1.90205 0.12691,-0.0784 0.16911,-0.49252 0.0938,-0.92018 -0.0753,-0.42766 -0.0242,-0.77756 0.11368,-0.77756 0.49006,0 0.21434,1.60772 -0.34264,1.99784 -0.39236,0.27482 -0.43705,0.38932 -0.15779,0.40429 0.27071,0.0145 0.28868,0.0616 0.0589,0.15435 -0.45813,0.18485 -0.41504,0.53032 0.0661,0.53032 0.21828,0 0.39688,-0.21828 0.39688,-0.48507 z"
       id="path28288" />
    <path
       style="fill:#779459"
       d="m 179.31977,135.78633 c 0.0532,-0.69188 -0.29001,-0.976 -1.36751,-1.13215 -0.29104,-0.0422 -1.06495,-0.32901 -1.71979,-0.63741 -0.65484,-0.30839 -0.98227,-0.50171 -0.72761,-0.42959 0.25467,0.0721 0.46303,0.0158 0.46303,-0.12515 0,-0.31715 -0.71086,-0.33988 -0.90307,-0.0289 -0.0773,0.12507 0.23322,0.56044 0.69005,0.96747 0.55384,0.49347 0.77237,0.58834 0.65585,0.2847 -0.0961,-0.25045 0.35663,0.0992 1.00609,0.77705 1.26731,1.32268 1.81898,1.41659 1.90296,0.32395 z"
       id="path28287" />
    <path
       style="fill:#779459"
       d="m 178.49943,149.54377 c -0.061,-0.32742 -0.11982,-0.69163 -0.13063,-0.80936 -0.0108,-0.11773 -0.14067,-0.13927 -0.28856,-0.0479 -0.1479,0.0914 -0.2004,0.27702 -0.11668,0.41248 0.0837,0.13547 0.0261,0.24631 -0.12798,0.24631 -0.35632,0 -0.36028,-0.34325 -0.008,-0.69551 0.1865,-0.18651 0.0937,-0.49901 -0.29475,-0.99289 -0.3118,-0.3964 -0.52017,-0.76747 -0.46303,-0.8246 0.0571,-0.0571 0.3386,0.24644 0.62547,0.67463 0.28688,0.42818 0.61364,0.77885 0.72613,0.77927 0.69008,0.003 -1.66564,-2.28297 -4.29436,-4.16642 -1.40011,-1.00317 -1.74935,-1.05964 -1.94424,-0.31438 -0.10711,0.40958 0.0665,0.67272 0.69675,1.05599 0.46167,0.28076 0.82479,0.60082 0.80694,0.71125 -0.0548,0.33922 0.22516,0.97124 0.64851,1.46381 0.31425,0.36563 0.45388,0.39485 0.63227,0.13229 0.1753,-0.25802 0.21902,-0.24399 0.18657,0.0599 -0.0839,0.78618 0.0273,1.05833 0.43281,1.05833 0.22687,0 0.3496,0.10176 0.27273,0.22613 -0.0769,0.12436 0.16393,0.51132 0.53509,0.85989 l 0.67484,0.63377 -0.17084,-0.68109 c -0.11996,-0.47829 -0.0347,-0.79341 0.28637,-1.05833 0.41531,-0.34268 0.4312,-0.32841 0.17338,0.15569 -0.21343,0.40074 -0.19136,0.65937 0.089,1.04275 0.20504,0.28041 0.3728,0.40373 0.3728,0.27405 0,-0.12967 0.14287,-0.0929 0.3175,0.0817 0.44084,0.44084 0.48903,0.40386 0.36196,-0.27782 z"
       id="path28286" />
    <path
       style="fill:#779459"
       d="m 182.06046,157.01562 c -0.17275,-1.09286 -0.29046,-2.10489 -0.26158,-2.24896 0.10222,-0.50999 -0.0122,-1.80335 -0.14752,-1.66799 -0.29422,0.29422 -0.41394,3.4778 -0.13722,3.64882 0.155,0.0958 0.29267,0.76146 0.30592,1.47924 0.0132,0.71779 0.0995,1.66225 0.19159,2.09881 0.33942,1.60861 0.38097,-1.20854 0.0488,-3.30992 z"
       id="path28285" />
    <path
       style="fill:#779459"
       d="m 185.50997,163.07174 c 0.21106,-0.39436 0.21382,-0.50765 0.009,-0.38126 -0.51159,0.31618 -0.31283,-0.004 0.41314,-0.66517 0.38727,-0.35279 0.61837,-0.4926 0.51356,-0.3107 -0.10482,0.1819 -0.0725,0.33073 0.0718,0.33073 0.14431,0 0.32973,-0.20836 0.41207,-0.46303 0.0823,-0.25466 0.68566,-1.02812 1.34074,-1.7188 1.04507,-1.10185 1.33214,-1.65764 1.22556,-2.37272 -0.0155,-0.1039 0.15036,-0.12041 0.36854,-0.0367 0.28368,0.10886 0.34977,0.0299 0.23196,-0.27711 -0.11207,-0.29204 -0.0496,-0.38654 0.19543,-0.2955 0.21228,0.0789 0.63182,-0.27302 1.02165,-0.85689 0.84457,-1.265 0.94664,-1.51333 0.51146,-1.24437 -0.19302,0.11929 -0.0639,-0.19156 0.28684,-0.69078 0.35079,-0.49921 0.73213,-0.9476 0.84744,-0.99641 0.1153,-0.0488 0.1432,-0.19624 0.062,-0.32762 -0.15095,-0.24425 -3.13519,1.13398 -3.40674,1.57334 -0.18999,0.30742 0.59385,0.62298 0.97001,0.3905 0.17883,-0.11052 0.20255,-0.0462 0.065,0.1764 -0.15884,0.257 -0.0948,0.30368 0.24035,0.17508 0.39855,-0.15293 0.38877,-0.0796 -0.0765,0.57385 -0.91794,1.28912 -1.27263,1.47703 -1.60737,0.85157 -0.16078,-0.30044 -0.19773,-0.54625 -0.0821,-0.54625 0.11563,0 0.35855,-0.23747 0.53981,-0.52771 0.29003,-0.46441 0.26692,-0.51815 -0.19263,-0.44802 -0.68172,0.10404 -2.12631,1.39746 -2.12631,1.90381 0,0.21716 -0.1786,0.39484 -0.39688,0.39484 -0.21828,0 -0.39687,0.17758 -0.39687,0.39463 0,0.21705 -0.22625,0.53592 -0.50277,0.70861 -0.27652,0.1727 -0.4497,0.45228 -0.38483,0.62131 0.0649,0.16903 -0.0661,0.46005 -0.29099,0.6467 -0.2249,0.18666 -0.40891,0.23877 -0.40891,0.11581 0,-0.12296 -0.18549,0.0413 -0.4122,0.36494 -0.22672,0.32368 -0.33875,0.70736 -0.24897,0.85263 0.189,0.3058 0.94105,0.36103 0.89442,0.0657 -0.088,-0.55749 0.0705,-0.82826 0.4089,-0.6984 0.2831,0.10863 0.33953,-0.009 0.22552,-0.47133 -0.0836,-0.33891 -0.0593,-0.5311 0.0541,-0.42708 0.11338,0.10402 0.42636,0.0713 0.69551,-0.0728 0.45363,-0.24278 0.44983,-0.19489 -0.0521,0.65582 -0.37691,0.6388 -0.67001,0.86839 -0.96443,0.75541 -0.25197,-0.0967 -0.35564,-0.0534 -0.25642,0.10717 0.0916,0.14821 -0.0791,0.53315 -0.37935,0.85543 -0.50287,0.53976 -0.51253,0.62282 -0.12257,1.05373 0.23284,0.25727 0.3437,0.54741 0.24637,0.64474 -0.0973,0.0973 -0.10178,0.17697 -0.01,0.17697 0.0919,0 0.30221,-0.2525 0.46737,-0.5611 z"
       id="path28284" />
    <path
       style="fill:#779459"
       d="m 180.09898,166.64344 c -0.59861,-0.6725 -1.72946,-1.83336 -2.51299,-2.57968 -1.82046,-1.73402 -6.24213,-6.60069 -7.21861,-7.9451 -0.41222,-0.56754 -0.74949,-1.32726 -0.74949,-1.68827 0,-0.60697 0.0724,-0.64463 0.96133,-0.50037 1.55106,0.2517 3.68852,1.73342 6.0917,4.22288 2.21244,2.29186 2.52201,2.90691 1.524,3.02787 -0.27898,0.0338 -0.35841,-0.006 -0.17651,-0.0882 0.1819,-0.0823 0.33073,-0.26584 0.33073,-0.40782 0,-0.14199 -0.12708,-0.17962 -0.2824,-0.0836 -0.15549,0.0961 -0.3477,-0.0752 -0.42773,-0.38126 -0.0799,-0.30568 -0.25754,-0.55578 -0.39468,-0.55578 -0.13714,0 -0.18685,-0.10112 -0.11046,-0.22471 0.0764,-0.12359 -0.15066,-0.37966 -0.50453,-0.56904 -0.35386,-0.18939 -0.56507,-0.47522 -0.46934,-0.63519 0.12515,-0.20915 0.0669,-0.20868 -0.20747,0.002 -0.58962,0.45207 -1.62302,0.64789 -1.48803,0.28198 0.0629,-0.17045 0.26842,-0.27343 0.45677,-0.22884 0.27893,0.066 0.2795,0.005 0.003,-0.32781 -0.18664,-0.22489 -0.42738,-0.35449 -0.53497,-0.28799 -0.1076,0.0665 -0.42153,-0.06 -0.69763,-0.2812 -0.48702,-0.3901 -0.48555,-0.39763 0.0492,-0.25227 0.36763,0.0999 0.55121,0.0263 0.55121,-0.221 0,-0.43246 -0.57189,-0.40551 -1.02573,0.0483 -0.42816,0.42816 -0.82663,0.39785 -0.65485,-0.0498 0.077,-0.20055 0.006,-0.4982 -0.1569,-0.66146 -0.41327,-0.41326 0.1413,-0.38132 0.58866,0.0339 0.28853,0.26781 0.3155,0.25925 0.1418,-0.045 -0.16074,-0.28154 -0.10072,-0.33203 0.23951,-0.20147 0.28564,0.10961 0.38994,0.0705 0.28123,-0.10537 -0.095,-0.15377 -0.33935,-0.21568 -0.54291,-0.13756 -0.22059,0.0846 -0.37011,-0.0264 -0.37011,-0.27486 0,-0.25103 -0.14918,-0.35963 -0.37498,-0.27298 -0.20624,0.0791 -0.43306,-0.007 -0.50405,-0.19246 -0.071,-0.185 -0.58686,-0.35055 -1.14638,-0.36789 l -1.0173,-0.0315 0.66146,0.55188 c 0.3638,0.30353 0.62672,0.67009 0.58427,0.81458 -0.0425,0.14449 0.12383,0.48483 0.36951,0.7563 0.42323,0.46767 0.46626,0.46941 0.81938,0.033 0.33224,-0.41057 0.33982,-0.39302 0.0698,0.16167 -0.26234,0.53892 -0.20613,0.72323 0.4198,1.37656 0.39748,0.41488 0.7951,0.74585 0.88361,0.7355 0.53019,-0.062 0.83763,0.14618 1.50199,1.01721 0.60858,0.79788 0.65114,0.93833 0.23607,0.77906 -0.43434,-0.16667 -0.41857,-0.10086 0.11089,0.46272 0.33949,0.36137 0.75683,0.60348 0.92741,0.53802 0.17059,-0.0655 0.54487,0.0688 0.83173,0.29829 0.50151,0.40126 0.4978,0.40575 -0.0964,0.1167 -0.95567,-0.46489 -0.89885,-0.19834 0.17035,0.79912 0.53724,0.5012 0.82797,0.74228 0.64606,0.53574 -0.47952,-0.54447 -0.40655,-0.76914 0.19844,-0.61093 0.36802,0.0962 0.52917,0.008 0.52917,-0.28936 0,-0.23525 0.11906,-0.42773 0.26458,-0.42773 0.14552,0 0.26459,0.14995 0.26459,0.33323 0,0.18328 0.23812,0.48194 0.52916,0.6637 0.29104,0.18176 0.52917,0.22663 0.52917,0.0997 0,-0.40486 -1.37658,-1.62388 -1.64585,-1.45747 -0.14246,0.0881 -0.10931,-0.11967 0.0737,-0.4616 l 0.33272,-0.62168 0.55357,0.75877 c 1.60023,2.1934 1.52382,2.34394 1.33088,-2.62196 -0.18496,-4.7603 -0.36096,-5.48317 -1.56577,-6.43087 -0.36671,-0.28845 -0.66674,-0.6112 -0.66674,-0.71721 0,-0.10602 0.17859,-0.0445 0.39687,0.13662 0.31756,0.26354 0.39688,0.26182 0.39688,-0.009 0,-0.22468 0.19804,-0.16902 0.59075,0.16604 0.36197,0.30883 0.46532,0.3409 0.26688,0.0828 -0.17813,-0.23167 -0.24553,-0.49956 -0.14978,-0.59531 0.0958,-0.0958 -0.0206,-0.1741 -0.25857,-0.1741 -0.27481,0 -0.37742,-0.14399 -0.28123,-0.39464 0.0926,-0.24131 -0.0391,-0.45442 -0.33904,-0.54848 -0.26976,-0.0846 -0.68599,-0.2572 -0.92497,-0.38354 -0.23897,-0.12633 -0.50583,-0.15836 -0.59301,-0.0712 -0.21071,0.2107 0.36987,0.89754 0.62525,0.7397 0.10959,-0.0677 0.40665,0.10604 0.66014,0.38614 0.44353,0.4901 0.43612,0.5073 -0.19682,0.45678 -0.74355,-0.0594 -3.17187,-2.40474 -5.54531,-5.35595 -1.65907,-2.06294 -2.2337,-3.22401 -1.80686,-3.65085 0.77318,-0.77318 6.28934,3.27025 7.68799,5.63543 0.3638,0.6152 0.90974,1.42422 1.2132,1.79782 l 0.55174,0.67926 -0.0839,-0.90202 c -0.0461,-0.49611 -0.19411,-1.97358 -0.32885,-3.28327 -0.3895,-3.78582 -0.5424,-8.85975 -0.2412,-8.00364 0.30907,0.87848 0.74262,0.9563 0.73701,0.13229 -0.003,-0.42722 -0.0673,-0.49561 -0.22788,-0.24222 -0.16977,0.26783 -0.25913,0.21808 -0.37004,-0.20603 -0.0804,-0.30752 -0.24576,-0.52906 -0.36743,-0.49231 -0.34029,0.10278 -3.13863,-1.77732 -4.46474,-2.99968 -0.9327,-0.85974 -1.12161,-1.16966 -0.88597,-1.45359 0.53105,-0.63987 1.7129,-0.39357 3.34676,0.69747 0.87168,0.58209 1.64529,1.05834 1.71913,1.05834 0.0739,0 0.0711,-1.55642 -0.006,-3.45871 l -0.14028,-3.45871 0.89869,0.10208 0.89869,0.10208 0.1323,3.68736 c 0.0728,2.02804 0.21167,3.49509 0.3087,3.2601 0.22414,-0.54287 2.30035,-2.23567 2.99859,-2.44485 0.29104,-0.0872 0.68172,-0.0626 0.86817,0.0546 0.5854,0.36804 0.001,1.30819 -2.14255,3.44705 l -2.03719,2.03269 0.25847,2.10847 c 0.3514,2.86649 0.49987,9.11992 0.21653,9.11992 -0.12613,0 -0.21001,-0.14883 -0.18639,-0.33073 0.0236,-0.1819 0.0147,-1.40229 -0.0197,-2.71198 -0.0433,-1.64684 -0.12178,-2.13645 -0.25436,-1.5875 -0.23734,0.98263 -0.48541,0.49911 -0.61087,-1.19062 -0.0486,-0.65485 -0.10204,0.0482 -0.11871,1.56231 -0.0223,2.02546 0.0665,2.84977 0.33615,3.1194 0.22363,0.22363 0.33257,0.76631 0.2795,1.39231 -0.0945,1.11447 0.17195,1.86598 0.48308,1.36256 0.0995,-0.16106 0.0804,-0.29283 -0.0425,-0.29283 -0.12293,0 -0.2235,-0.23643 -0.2235,-0.52539 0,-0.34518 0.0894,-0.43593 0.2608,-0.26458 0.4753,0.4753 0.87071,0.27243 1.59128,-0.81643 0.59346,-0.89678 0.77852,-1.02276 1.10471,-0.75205 0.49279,0.40898 0.95601,0.008 0.99999,-0.86506 0.017,-0.33712 0.17077,-0.61295 0.34176,-0.61295 0.66177,0 2.51043,-3.61688 2.07249,-4.05481 -0.29596,-0.29596 0.44244,-1.065 0.93204,-0.97071 0.29434,0.0567 0.47924,0.0126 0.41087,-0.0981 -0.0684,-0.11061 0.11961,-0.55087 0.41772,-0.97835 0.35086,-0.50314 0.48528,-0.59063 0.38116,-0.24808 -0.15844,0.52124 -0.1549,0.52148 0.23668,0.0156 0.21864,-0.28247 0.39752,-0.77734 0.39752,-1.0997 0,-0.45737 -0.11715,-0.55549 -0.53329,-0.44666 -0.29331,0.0767 -0.60587,0.2569 -0.69459,0.40045 -0.1003,0.16228 0.0764,0.18899 0.46714,0.0706 0.46409,-0.14058 0.55417,-0.11178 0.34444,0.11014 -0.1562,0.16529 -0.53431,0.34872 -0.84024,0.40764 -0.60761,0.11701 -1.76262,0.80575 -2.5538,1.52284 -0.4393,0.39816 -0.45606,0.51577 -0.13229,0.92815 0.33103,0.42161 0.3249,0.43642 -0.0572,0.13822 -0.51527,-0.40218 -0.69457,-0.22425 -1.53632,1.52461 l -0.57306,1.19063 0.56311,-0.72761 c 0.82692,-1.06846 1.18312,-0.88645 0.5178,0.26459 -0.31543,0.5457 -0.38467,0.76107 -0.15387,0.47859 0.34316,-0.42 0.41963,-0.43721 0.41963,-0.0944 0,0.48495 -0.87009,0.90818 -1.00919,0.49089 -0.17229,-0.51688 -0.72512,-0.28595 -1.18692,0.49582 -0.28965,0.49034 -0.35928,0.83663 -0.18934,0.94165 0.14783,0.0914 0.25939,0.30792 0.2479,0.48124 -0.0142,0.21344 -0.0655,0.20387 -0.15902,-0.0296 -0.10314,-0.25744 -0.22639,-0.22404 -0.48664,0.13187 -0.19169,0.26215 -0.42954,0.39561 -0.52856,0.29659 -0.44154,-0.44154 2.88455,-5.86021 4.54161,-7.39894 1.15068,-1.06851 2.75582,-2.07748 3.305,-2.07748 1.589,0 -0.5367,3.96168 -6.31752,11.77396 l -1.95783,2.64583 0.14844,1.85209 c 0.0816,1.01864 0.16331,2.86411 0.18149,4.10104 0.0477,3.24551 0.15365,3.46151 0.95023,1.93737 2.18903,-4.18839 7.18387,-8.81654 9.51508,-8.81654 0.78664,0 0.8456,0.0544 0.6455,0.59531 -0.12112,0.32743 -0.34549,0.59532 -0.49859,0.59532 -0.15311,0 -0.37759,0.10838 -0.49886,0.24085 -0.1281,0.13994 -0.0819,0.16111 0.11024,0.0505 0.56251,-0.32371 0.37051,0.18535 -0.63987,1.69651 -0.86421,1.29256 -1.60866,2.27231 -3.39502,4.46809 -1.23339,1.51606 -4.10165,4.71631 -4.88486,5.45026 -0.46586,0.43656 -1.00979,1.1807 -1.20873,1.65364 -0.51974,1.2356 -1.27881,1.12998 -2.60761,-0.36283 z"
       id="path28283" />
    <path
       style="fill:#779459"
       d="m 203.39006,121.16718 c 0.35277,-0.35278 0.35067,-0.39687 -0.0189,-0.39687 -0.62856,0 -0.58236,-1.84104 0.0472,-1.88278 0.42724,-0.0283 0.42624,-0.0402 -0.0129,-0.15418 -0.30334,-0.0787 -0.44727,-0.32252 -0.39687,-0.67232 0.0435,-0.30185 -0.0564,-0.59511 -0.22185,-0.65168 -0.19518,-0.0667 -0.27084,0.20358 -0.21533,0.76916 0.0471,0.4796 0.0932,1.43755 0.10248,2.12878 0.0183,1.35859 0.10877,1.46727 0.71615,0.85989 z"
       id="path28272" />
    <path
       style="fill:#779459"
       d="m 201.5065,122.90691 c -0.0958,-0.302 -0.35942,-0.5491 -0.58572,-0.5491 -0.31138,0 -0.34075,-0.0852 -0.12075,-0.35026 0.32198,-0.38796 -0.0709,-0.97266 -0.65364,-0.97266 -0.17705,0 -0.3616,-0.11602 -0.4101,-0.25783 -0.10138,-0.29638 -1.27882,-0.0522 -1.27882,0.26517 0,0.11561 0.38695,0.52024 0.85989,0.89917 0.47295,0.37893 1.03608,0.836 1.25142,1.01571 0.21534,0.17971 0.48323,0.29697 0.59531,0.26059 0.11209,-0.0364 0.20379,0.0728 0.20379,0.24254 0,0.16977 0.0704,0.23828 0.15645,0.15223 0.0861,-0.0861 0.078,-0.40355 -0.0178,-0.70556 z"
       id="path28271" />
    <path
       style="fill:#779459"
       d="m 199.25122,131.40314 c 0,-0.33757 -1.37965,-1.50511 -2.17968,-1.84457 -0.71536,-0.30353 -1.52449,-0.19449 -1.52449,0.20545 0,0.24897 1.38143,1.19973 1.63523,1.12543 0.099,-0.029 0.51574,0.1224 0.92605,0.33641 0.84658,0.44156 1.14289,0.48752 1.14289,0.17728 z"
       id="path28270" />
    <path
       style="fill:#779459"
       d="m 206.01118,135.25624 c 0.14898,-0.32742 0.39953,-0.57081 0.55679,-0.54087 0.28656,0.0546 1.31034,-0.89596 1.46462,-1.35981 0.0452,-0.13587 0.88496,-1.02884 1.86615,-1.98437 0.98118,-0.95554 1.78486,-1.84703 1.78593,-1.98109 10e-4,-0.13406 0.19967,-0.46222 0.44131,-0.72923 0.24165,-0.26701 0.38008,-0.54475 0.30763,-0.6172 -0.24338,-0.24338 -2.20302,0.60278 -2.12948,0.91951 0.04,0.17222 -0.0386,0.24436 -0.17456,0.16031 -0.31948,-0.19745 -1.12353,0.10777 -0.96398,0.36592 0.067,0.10835 -0.17674,0.45652 -0.54155,0.77372 -0.36481,0.3172 -0.58048,0.71073 -0.47926,0.8745 0.11232,0.18174 0.065,0.22421 -0.12143,0.10898 -0.16801,-0.10383 -0.30547,-0.0429 -0.30547,0.13551 0,0.17837 -0.0765,0.2478 -0.16999,0.1543 -0.0935,-0.0935 -0.0194,-0.35146 0.16469,-0.57326 0.20538,-0.24747 0.22691,-0.40327 0.0557,-0.40327 -0.15343,0 -0.54861,0.37869 -0.87818,0.84152 -0.32957,0.46284 -0.45674,0.75347 -0.2826,0.64585 0.17414,-0.10763 0.31661,-0.0696 0.31661,0.0845 0,0.25042 -0.34883,0.38418 -0.83452,0.31998 -0.0952,-0.0126 -0.3333,0.18168 -0.52916,0.43169 -0.3213,0.41013 -0.31085,0.41907 0.10691,0.0914 0.28719,-0.22523 0.46302,-0.25388 0.46302,-0.0755 0,0.15822 -0.22455,0.40785 -0.49899,0.55473 -0.71256,0.38135 -1.72057,2.13281 -1.22749,2.13281 0.20479,0 0.45729,-0.13746 0.56112,-0.30546 0.12701,-0.20549 0.0672,-0.23491 -0.18282,-0.0899 -0.22,0.12763 -0.28165,0.11732 -0.15112,-0.0253 0.12127,-0.13247 0.32963,-0.24085 0.46302,-0.24085 0.13339,0 0.2723,-0.11907 0.30868,-0.26459 0.0652,-0.26086 0.90889,-1.19062 1.08038,-1.19062 0.0485,0 0.0882,0.17859 0.0882,0.39687 0,0.21828 -0.0579,0.33894 -0.12874,0.26814 -0.10881,-0.10881 -1.37057,1.39671 -1.37057,1.63535 0,0.0445 0.15036,0.0809 0.33414,0.0809 0.18377,0 0.45602,-0.26789 0.60499,-0.59532 z"
       id="path28269" />
    <path
       style="fill:#779459"
       d="m 202.77661,136.55457 c 0.42945,-0.15333 0.43883,-0.21617 0.085,-0.56996 -0.54363,-0.54363 -0.69856,-0.5004 -0.70843,0.19768 -0.008,0.58892 -0.0128,0.58963 -0.41704,0.0661 -0.22474,-0.29104 -0.57955,-0.85339 -0.78845,-1.24966 -0.34824,-0.66057 -0.34106,-0.70941 0.0863,-0.58713 0.25637,0.0734 0.19825,-0.008 -0.12918,-0.17983 -0.64523,-0.33947 -0.83038,-0.8351 -0.2252,-0.60287 0.63282,0.24283 0.70668,-0.32839 0.13625,-1.05358 -0.70385,-0.8948 -1.09552,-0.88142 -0.98831,0.0337 0.0588,0.50165 -0.0377,0.73173 -0.3118,0.74384 -0.57789,0.0255 -1.04772,-0.3962 -0.89237,-0.80101 0.17847,-0.46509 -0.91422,-1.46373 -1.39832,-1.27796 -0.20931,0.0803 -0.5437,-0.0771 -0.7431,-0.34976 -0.19939,-0.27268 -0.43067,-0.42765 -0.51395,-0.34437 -0.17126,0.17126 5.95346,6.33762 6.17978,6.2218 0.0804,-0.0411 0.36329,-0.1523 0.62877,-0.24708 z"
       id="path28268" />
    <path
       style="fill:#779459"
       d="m 203.25527,138.29895 c -0.0533,-0.32742 -0.17241,-0.59544 -0.26458,-0.59559 -0.0922,-1.6e-4 -0.1098,2.35133 -0.0392,5.22552 l 0.12843,5.2258 0.13615,-4.63021 c 0.0749,-2.54661 0.0925,-4.8981 0.0392,-5.22552 z"
       id="path28267" />
    <path
       style="fill:#779459"
       d="m 200.17726,148.55156 c -0.0927,-0.15006 0.12954,-0.26459 0.51355,-0.26459 0.37239,0 0.67707,-0.0824 0.67707,-0.18304 0,-0.55973 -2.28318,-3.8774 -3.61277,-5.24969 -1.39541,-1.44023 -3.34814,-3.16806 -2.53879,-2.24639 0.76751,0.87401 0.27814,1.08823 -0.55547,0.24315 -0.57302,-0.58091 -0.7834,-0.9671 -0.59531,-1.09279 0.2064,-0.13793 0.20111,-0.19556 -0.0182,-0.19844 -0.17,-0.002 -0.49742,-0.0763 -0.72761,-0.16465 -0.28964,-0.11114 -0.41726,-0.009 -0.41446,0.33073 0.003,0.41778 0.0448,0.43192 0.27642,0.0945 0.22594,-0.32922 0.26342,-0.30666 0.21987,0.13229 -0.0546,0.55072 0.23276,1.39651 0.62934,1.85208 0.12668,0.14552 0.64442,0.97896 1.15055,1.85208 0.50612,0.87313 0.84025,1.28985 0.74249,0.92605 -0.14945,-0.55621 -0.0462,-0.4978 0.64873,0.36711 0.91736,1.14169 1.05484,1.47234 0.38338,0.92205 -0.38562,-0.31603 -0.38168,-0.26877 0.0304,0.36448 0.46177,0.70956 0.90488,1.05454 0.50977,0.39688 -0.13016,-0.21665 -0.0412,-0.20296 0.25778,0.0397 0.25106,0.20374 0.41473,0.49567 0.36371,0.64874 -0.13039,0.39116 0.64083,1.23059 1.12613,1.22572 0.35746,-0.004 0.35831,-0.0332 0.007,-0.25577 -0.21828,-0.13845 -0.40568,-0.40452 -0.41644,-0.59126 -0.0332,-0.57654 -1.26117,-2.85308 -1.53894,-2.85308 -0.39227,0 0.70823,-0.77556 1.11438,-0.78534 0.26034,-0.006 0.24344,0.0978 -0.0661,0.40736 -0.48733,0.48732 -0.54793,0.75547 -0.10952,0.48451 0.20804,-0.12857 0.26033,-0.0136 0.16303,0.35844 -0.10147,0.38804 0.002,0.58572 0.3552,0.67806 0.27413,0.0717 0.48903,0.29032 0.47754,0.48585 -0.0157,0.26735 -0.054,0.27349 -0.15434,0.0248 -0.0734,-0.18191 -0.24932,-0.33073 -0.39095,-0.33073 -0.14162,0 -0.0465,0.35718 0.21139,0.79375 0.25788,0.43656 0.56227,0.79375 0.67642,0.79375 0.11414,0 0.20753,0.23812 0.20753,0.52916 0,0.29104 0.12609,0.52917 0.2802,0.52917 0.15411,0 0.20662,-0.11906 0.11668,-0.26458 z"
       id="path28266" />
    <path
       style="fill:#779459"
       d="m 203.25527,153.64478 c -0.0533,-0.32742 -0.2092,-0.59531 -0.34634,-0.59531 -0.13715,0 -0.17042,0.12772 -0.0739,0.28382 0.0965,0.1561 0.18233,1.73368 0.19078,3.50573 l 0.0154,3.22191 0.15556,-2.91042 c 0.0856,-1.60073 0.11191,-3.1783 0.0586,-3.50573 z"
       id="path28265" />
    <path
       style="fill:#779459"
       d="m 204.94639,164.70187 c -0.0674,-0.10912 0.1677,-0.47113 0.52254,-0.80448 0.35483,-0.33335 0.57089,-0.72624 0.48013,-0.87309 -0.0908,-0.14685 -0.0469,-0.19401 0.0975,-0.10479 0.14435,0.0892 0.7227,-0.30911 1.2852,-0.88516 0.5625,-0.57606 1.1474,-1.04222 1.29977,-1.03592 0.15236,0.006 -0.37448,0.59502 -1.17077,1.30827 -0.79629,0.71326 -1.38463,1.36 -1.30741,1.43721 0.22304,0.22304 2.91358,-2.62283 3.00632,-3.17988 0.0461,-0.27671 0.21678,-0.47333 0.37935,-0.43695 0.16257,0.0364 0.26582,-0.0827 0.22943,-0.26459 -0.0364,-0.1819 0.13863,-0.31479 0.38891,-0.29531 0.25028,0.0195 0.76236,-0.36747 1.13795,-0.85989 0.37559,-0.49243 0.58753,-0.89954 0.47098,-0.90469 -0.11654,-0.005 0.0376,-0.15399 0.34264,-0.33073 0.87339,-0.50613 2.27718,-2.24138 1.96788,-2.43253 -0.1504,-0.093 -0.27346,-0.30381 -0.27346,-0.46855 0,-0.16475 0.17058,-0.0684 0.37906,0.21405 0.42453,0.57519 0.92471,0.30159 1.05356,-0.57631 0.0402,-0.27368 0.13268,-0.43807 0.20558,-0.36531 0.18465,0.18429 1.00763,-0.53177 1.00763,-0.87671 0,-0.15552 -0.1748,-0.0516 -0.38846,0.23083 -0.21881,0.2893 -0.39213,0.36916 -0.39687,0.18286 -0.0268,-1.05296 -3.22045,0.38928 -5.37625,2.4279 -0.8022,0.75859 -1.76255,1.57845 -2.1341,1.8219 -0.37155,0.24345 -0.98506,0.97078 -1.36336,1.6163 -0.57966,0.98911 -0.6367,1.25553 -0.36273,1.69421 0.2701,0.43252 0.24421,0.60141 -0.15315,0.99877 -0.46124,0.46124 -0.4719,0.45831 -0.30026,-0.0825 0.27557,-0.86825 -0.2944,-0.97322 -0.81802,-0.15064 -0.25769,0.40481 -0.57874,0.81382 -0.71345,0.90889 -0.35077,0.24756 -0.47149,1.75388 -0.15618,1.94875 0.14587,0.0901 0.19756,0.27338 0.11487,0.40718 -0.0827,0.1338 0.0337,0.17263 0.25874,0.0863 0.22501,-0.0863 0.35392,-0.24627 0.28648,-0.35539 z"
       id="path28264" />
    <path
       style="fill:#779459"
       d="m 200.91774,165.30919 c -0.1236,-0.32211 -0.0681,-0.38785 0.20674,-0.24496 0.20663,0.10742 0.16919,0.0259 -0.0832,-0.18119 -0.2524,-0.20709 -0.39835,-0.43707 -0.32434,-0.51109 0.074,-0.074 -0.0697,-0.30037 -0.31948,-0.503 -0.38872,-0.31541 -0.42183,-0.31496 -0.2301,0.003 0.15203,0.25225 0.12585,0.31097 -0.0815,0.18283 -0.36436,-0.22519 -0.40999,-0.95131 -0.0598,-0.95131 0.13513,0 0.42001,0.17433 0.63308,0.38739 0.34013,0.34014 0.40354,0.32566 0.51974,-0.11868 0.1454,-0.55605 -1.29859,-2.74294 -1.6626,-2.51797 -0.26844,0.1659 -1.58799,-1.3662 -1.58799,-1.84378 0,-0.34724 -0.73014,-0.79709 -1.14414,-0.70491 -0.11996,0.0267 -0.13682,-0.083 -0.0375,-0.24372 0.18044,-0.29196 -0.89032,-1.2291 -1.26578,-1.10784 -0.10915,0.0352 -0.19844,-0.063 -0.19844,-0.21832 0,-0.16756 -0.22869,-0.20983 -0.5623,-0.10395 -0.37839,0.1201 -0.50309,0.0827 -0.38126,-0.11446 0.0996,-0.16111 0.062,-0.29293 -0.0836,-0.29293 -0.14552,0 -0.31864,0.0893 -0.38471,0.19844 -0.163,0.26924 0.51688,0.87289 0.73615,0.65362 0.096,-0.096 0.0959,0.0303 -1.1e-4,0.28049 -0.1003,0.26137 -0.05,0.45495 0.1183,0.45495 0.16109,0 0.29289,0.1786 0.29289,0.39688 0,0.21828 0.20836,0.40627 0.46303,0.41776 0.2797,0.0126 0.33133,0.074 0.13042,0.15496 -0.24513,0.0988 -0.19489,0.31948 0.191,0.83901 0.78584,1.05798 1.66592,2.07274 1.47186,1.69712 -0.253,-0.4897 0.26757,-0.4012 0.68786,0.11694 0.24674,0.30418 0.25712,0.38398 0.0324,0.24896 -0.19911,-0.11962 -0.33073,-0.0571 -0.33073,0.15702 0,0.27941 3.12356,3.90885 3.36402,3.90885 0.0324,0 -0.0171,-0.19812 -0.11,-0.44028 z"
       id="path28263" />
    <path
       style="fill:#779459"
       d="m 200.50337,165.75392 c -2.61064,-2.75046 -5.50343,-6.37568 -6.47573,-8.11531 -0.56714,-1.01473 -0.61223,-1.24766 -0.30136,-1.55675 0.3101,-0.30834 0.53235,-0.28862 1.46487,0.12994 1.21744,0.54645 4.61508,3.81598 5.88777,5.66578 0.8904,1.29414 0.9888,1.65424 0.49688,1.81821 -0.17668,0.0589 0.0614,0.27648 0.52917,0.48351 0.46773,0.20704 0.85041,0.45369 0.85041,0.54812 0,0.0944 0.1786,0.24022 0.39688,0.32398 0.2354,0.0903 0.39687,0.003 0.39687,-0.21525 0,-0.20215 -0.32742,-0.43937 -0.7276,-0.52716 l -0.7276,-0.15961 0.089,-5.37041 0.089,-5.37041 -2.03392,-2.36235 c -4.3619,-5.06624 -8.28305,-10.80767 -7.95861,-11.65315 0.3986,-1.03875 2.7195,0.27765 5.41034,3.06873 1.23535,1.28136 3.11112,4.01019 3.86778,5.62675 0.25543,0.5457 0.54015,0.99209 0.63271,0.99198 0.0926,-1.1e-4 0.15428,-2.50326 0.13715,-5.56257 l -0.0311,-5.56236 -3.82394,-3.89869 c -2.10316,-2.14427 -3.89256,-4.16111 -3.97644,-4.48187 -0.42716,-1.63348 1.87686,-1.18727 4.37434,0.84716 1.3936,1.13522 2.82686,2.78943 2.82686,3.26265 0,0.38591 0.78272,0.94478 0.99858,0.71299 0.10563,-0.11342 0.0432,-0.25937 -0.13868,-0.32434 -0.24686,-0.0882 -0.33073,-1.25074 -0.33073,-4.58434 v -4.46622 l -1.65365,-1.35332 c -0.9095,-0.74433 -1.862,-1.5953 -2.11666,-1.89104 -0.95046,-1.10378 -0.33465,-2.04189 1.00581,-1.53225 1.07182,0.40751 2.51811,1.67744 2.3657,2.07723 -0.10144,0.26611 0.0212,0.31988 0.46101,0.20205 0.32959,-0.0883 0.77784,-0.16581 0.99612,-0.17223 0.31172,-0.009 0.29707,-0.0698 -0.0682,-0.28251 -0.25581,-0.14897 -0.56804,-0.20725 -0.69384,-0.1295 -0.29185,0.18037 -0.55418,-1.39656 -0.55792,-3.35386 l -0.003,-1.52136 h 0.92605 0.92604 v 2.50948 2.50948 l 1.38906,-1.05313 c 1.36382,-1.034 2.38142,-1.32569 2.71905,-0.77939 0.25425,0.41138 -1.01155,1.93073 -2.68039,3.21729 l -1.47471,1.1369 0.11155,4.43177 c 0.0614,2.43747 0.0124,4.43177 -0.1088,4.43177 -0.12119,0 -0.22035,-1.96453 -0.22035,-4.36563 0,-2.40109 -0.0893,-4.36584 -0.19843,-4.3661 -0.10914,-2.7e-4 -0.16187,1.48801 -0.11717,3.30729 0.054,2.19926 -0.0125,3.30777 -0.19844,3.30777 -0.15384,0 -0.27788,0.38695 -0.27565,0.8599 0.003,0.57095 0.0792,0.7414 0.22759,0.50726 0.14675,-0.2315 0.28521,0.11229 0.40308,1.00082 0.15748,1.18712 0.22706,1.30595 0.56616,0.96685 0.21264,-0.21264 0.38661,-0.56693 0.38661,-0.78732 0,-0.61405 3.19087,-4.18554 3.59941,-4.02876 0.19382,0.0744 0.43414,0.003 0.53404,-0.15869 0.12069,-0.19528 0.0569,-0.21875 -0.18996,-0.0699 -0.29059,0.17513 -0.28508,0.11717 0.0253,-0.26581 0.82058,-1.01264 4.49792,-2.25968 4.49792,-1.52531 0,0.67498 -4.68338,6.18734 -7.58277,8.92496 l -1.12087,1.05833 -0.08,6.12331 -0.0799,6.12331 0.93234,-1.77301 c 1.75488,-3.33718 3.87912,-5.75699 6.52911,-7.43756 1.71864,-1.08993 2.08663,-0.99123 0.47252,0.12675 -0.72566,0.5026 -1.61704,1.16544 -1.98085,1.47296 -0.57837,0.4889 -0.58853,0.52349 -0.0809,0.27537 0.31932,-0.15607 0.65377,-0.40219 0.74322,-0.54693 0.0894,-0.14473 0.3516,-0.26316 0.58254,-0.26316 0.30767,0 0.23339,0.17285 -0.27791,0.64671 -0.4003,0.37098 -0.92203,0.60353 -1.2237,0.54543 -0.28924,-0.0557 -0.59495,0.0105 -0.67936,0.14704 -0.0844,0.13658 -0.0204,0.24832 0.14234,0.24832 0.1627,0 0.22223,0.11907 0.1323,0.26459 -0.0899,0.14552 -0.015,0.26458 0.16656,0.26458 0.18155,0 0.0616,0.2501 -0.26646,0.55577 -0.65658,0.6117 -1.08447,0.5341 -0.46588,-0.0845 0.212,-0.212 0.2982,-0.52665 0.19156,-0.69921 -0.14006,-0.22662 -0.30331,-0.18343 -0.58785,0.15553 -0.66235,0.78903 -1.40806,2.04507 -1.34328,2.26257 0.0337,0.11319 -0.12144,0.27593 -0.34479,0.36163 -0.33433,0.1283 -0.34645,0.22925 -0.0686,0.57134 0.28552,0.35153 0.26815,0.38955 -0.11281,0.24688 -0.34567,-0.12946 -0.63174,0.16637 -1.23132,1.27338 -0.53628,0.99013 -0.67022,1.44202 -0.42743,1.44202 0.19448,0 0.42468,-0.22399 0.51157,-0.49774 0.24163,-0.76132 1.2006,-1.79564 1.2006,-1.29494 0,0.22273 -0.17728,0.5521 -0.39396,0.73192 -0.21668,0.17983 -0.31735,0.45093 -0.2237,0.60245 0.0989,0.15998 0.0422,0.19633 -0.13521,0.0867 -0.17781,-0.1099 -0.30546,-0.0268 -0.30546,0.19893 0,0.53198 0.96979,0.25624 1.43506,-0.40803 0.26415,-0.37712 0.39504,-0.42136 0.48954,-0.16546 0.0817,0.22124 0.22642,0.1068 0.39475,-0.31217 0.14616,-0.3638 0.53298,-0.89958 0.8596,-1.19062 0.71308,-0.63541 1.98735,-2.55779 1.89839,-2.86394 -0.0349,-0.11996 0.0456,-0.15074 0.17883,-0.0684 0.13321,0.0823 0.43381,-0.14276 0.66801,-0.50019 0.53387,-0.81479 0.54612,-1.09771 0.0289,-0.66849 -0.68696,0.57013 -0.43158,0.024 0.43318,-0.92627 0.45653,-0.5017 0.92325,-0.85458 1.03715,-0.78418 0.23104,0.14279 1.3078,-1.12179 1.3078,-1.53592 0,-0.14552 -0.24677,0.0491 -0.54837,0.43256 -0.35219,0.44773 -0.80181,0.69498 -1.25677,0.69112 -0.70671,-0.006 -0.70634,-0.007 0.15149,-0.42993 0.47294,-0.23314 0.8599,-0.57373 0.8599,-0.75686 0,-0.39853 0.99611,-0.70941 1.20259,-0.37532 0.26282,0.42524 -0.88742,2.06414 -5.83573,8.315 -1.03678,1.30969 -2.50205,3.19204 -3.25617,4.18301 l -1.37111,1.80175 v 3.87235 3.87235 l 1.48043,-2.1639 c 1.67871,-2.45373 4.84296,-5.36626 7.18634,-6.61465 1.54319,-0.82211 3.93545,-1.565 4.19709,-1.30336 0.43454,0.43453 -2.43914,3.74518 -8.76282,10.0953 -2.03729,2.04581 -3.9432,4.19445 -4.23535,4.77475 -0.29215,0.58031 -0.71859,1.09119 -0.94765,1.1353 -0.24369,0.0469 -1.36085,-0.91476 -2.69297,-2.31824 z"
       id="path28262" />
    <path
       style="fill:#8d7954"
       d="m 204.80747,133.42014 c 0,-0.5579 3.49128,-4.03727 4.83243,-4.81595 1.29379,-0.75119 2.96424,-1.13202 3.21137,-0.73215 0.0918,0.14854 0.0459,0.34485 -0.10199,0.43625 -0.14789,0.0914 -0.2689,0.0306 -0.2689,-0.13503 0,-0.40995 -1.3871,-0.0887 -2.61235,0.6051 -1.17888,0.6675 -3.27338,2.61895 -4.29756,4.00407 -0.41965,0.56754 -0.763,0.85451 -0.763,0.63771 z"
       id="path28173" />
    <path
       style="fill:#8d7954"
       d="m 206.24627,135.58378 c 0.71859,-0.79859 2.02827,-2.22715 2.91042,-3.17457 0.88215,-0.94742 2.00319,-2.19757 2.49121,-2.77812 0.48802,-0.58055 0.75496,-0.79369 0.59319,-0.47366 -0.24276,0.48028 -2.70508,3.26638 -4.49038,5.08085 -0.23634,0.2402 -0.73032,0.79075 -1.09774,1.22345 -0.36741,0.4327 -0.9032,0.96388 -1.19062,1.18039 -0.28742,0.21651 0.0653,-0.25974 0.78392,-1.05834 z"
       id="path28172" />
    <path
       style="fill:#8d7954"
       d="m 206.39497,146.30115 c 0,-0.70353 3.38445,-4.24639 5.08797,-5.32611 1.35128,-0.85647 1.64078,-0.79466 0.33126,0.0707 -1.34468,0.88862 -3.67071,3.10516 -4.6558,4.43666 -0.41989,0.56754 -0.76343,0.93596 -0.76343,0.81872 z"
       id="path28166" />
    <path
       style="fill:#627339"
       d="m 204.80747,133.42014 c 0,-0.5579 3.49128,-4.03727 4.83243,-4.81595 1.29379,-0.75119 2.96424,-1.13202 3.21137,-0.73215 0.0918,0.14854 0.0459,0.34485 -0.10199,0.43625 -0.14789,0.0914 -0.2689,0.0306 -0.2689,-0.13503 0,-0.40995 -1.3871,-0.0887 -2.61235,0.6051 -1.17888,0.6675 -3.27338,2.61895 -4.29756,4.00407 -0.41965,0.56754 -0.763,0.85451 -0.763,0.63771 z"
       id="path28136" />
    <path
       style="fill:#627339"
       d="m 206.24627,135.58378 c 0.71859,-0.79859 2.02827,-2.22715 2.91042,-3.17457 0.88215,-0.94742 2.00319,-2.19757 2.49121,-2.77812 0.48802,-0.58055 0.75496,-0.79369 0.59319,-0.47366 -0.24276,0.48028 -2.70508,3.26638 -4.49038,5.08085 -0.23634,0.2402 -0.73032,0.79075 -1.09774,1.22345 -0.36741,0.4327 -0.9032,0.96388 -1.19062,1.18039 -0.28742,0.21651 0.0653,-0.25974 0.78392,-1.05834 z"
       id="path28135" />
    <path
       style="fill:#627339"
       d="m 206.39497,146.30115 c 0,-0.70353 3.38445,-4.24639 5.08797,-5.32611 1.35128,-0.85647 1.64078,-0.79466 0.33126,0.0707 -1.34468,0.88862 -3.67071,3.10516 -4.6558,4.43666 -0.41989,0.56754 -0.76343,0.93596 -0.76343,0.81872 z"
       id="path28129" />
  </g>
</svg>
