<?xml version="1.0" encoding="UTF-8" standalone="no"?>
<!-- Created with Inkscape (http://www.inkscape.org/) -->

<svg
   width="185"
   height="185"
   viewBox="0 0 48.947914 48.947918"
   version="1.1"
   id="svg1"
   xmlns="http://www.w3.org/2000/svg"
   xmlns:svg="http://www.w3.org/2000/svg">
  <defs
     id="defs1" />
  <g
     id="g28444"
     transform="matrix(0.69397451,0,0,0.69397451,-110.18925,-8.3938101)">
    <path
       style="fill:#d3c699"
       d="m 205.8658,21.287009 c -0.63699,-0.636987 -0.64734,-0.771878 -0.11729,-1.528628 0.6154,-0.8786 2.04583,-0.814511 2.46731,0.110546 0.27758,0.609214 0.24327,0.778454 -0.26823,1.322916 -0.71734,0.763573 -1.38295,0.794001 -2.08179,0.09517 z"
       id="path28441" />
    <path
       style="fill:#d3c699"
       d="m 176.93256,33.602767 c -0.83736,-0.776037 -0.88108,-1.286855 -0.17092,-1.997008 1.0151,-1.015109 2.11666,-0.515474 2.11666,0.960059 0,0.790064 -0.55184,1.685774 -1.03859,1.685774 -0.11388,0 -0.5221,-0.291971 -0.90715,-0.648825 z"
       id="path28440" />
    <path
       style="fill:#d3c699"
       d="m 175.48755,37.947214 c -0.70334,-0.754938 -0.84636,-1.403402 -0.47462,-2.151931 0.42589,-0.85756 1.24922,-0.901797 1.99568,-0.107227 0.59277,0.630972 0.60518,0.715409 0.24452,1.663025 -0.44907,1.179877 -1.03685,1.378337 -1.76558,0.596133 z"
       id="path28439" />
    <path
       style="fill:#d3c699"
       d="m 203.55012,82.467461 c -0.92934,-0.153869 -1.07842,-0.755719 -1.09576,-4.4237 l -0.0162,-3.421248 -0.94388,-1.333899 c -0.51913,-0.733644 -1.54047,-2.167336 -2.26964,-3.185982 -3.15896,-4.413048 -6.09252,-8.965677 -6.23445,-9.675315 -0.35239,-1.761962 1.94486,-1.139603 4.37242,1.184551 1.83406,1.755933 2.8702,3.13493 4.1929,5.580347 l 0.85866,1.5875 0.0108,-1.190625 c 0.006,-0.654843 0.085,-2.98221 0.17558,-5.171926 l 0.16477,-3.981302 -2.20283,-2.50099 c -4.76483,-5.409789 -6.81421,-8.430096 -6.46554,-9.528674 0.24162,-0.761266 0.92509,-0.629958 2.66581,0.512155 2.0132,1.320887 3.47544,2.885596 4.83694,5.175908 l 1.09106,1.835379 v -5.264886 -5.264885 l -1.80301,-1.764132 -1.80301,-1.764131 -2.23189,-0.219526 c -1.22753,-0.12074 -2.59196,-0.188373 -3.03206,-0.150297 -1.16515,0.100807 -2.62157,-0.950121 -2.70425,-1.951346 -0.0971,-1.176064 0.50407,-1.719123 2.49481,-2.25359 1.47117,-0.394974 2.04072,-0.432466 3.12418,-0.205658 1.75435,0.367247 2.95878,1.297899 3.29483,2.54587 0.15745,0.584744 0.74059,1.455139 1.42474,2.126581 l 1.15819,1.136676 0.18414,-2.910081 c 0.1388,-2.193507 0.0995,-3.045978 -0.1597,-3.461972 -0.51956,-0.833931 -2.9625,-1.63419 -5.63551,-1.846082 -2.49855,-0.198063 -3.12303,-0.406494 -3.94754,-1.317574 -0.41372,-0.457145 -0.45023,-0.668474 -0.20753,-1.201137 0.4445,-0.975561 1.4317,-1.487358 3.11592,-1.61539 1.75282,-0.133247 3.42089,0.242374 3.948,0.889027 1.91077,2.344113 2.35473,2.83011 2.5853,2.83011 0.14634,0 0.31863,-0.906892 0.38286,-2.015316 0.1111,-1.916955 0.0834,-2.041549 -0.56648,-2.552785 -0.37581,-0.295607 -1.43283,-0.667996 -2.34895,-0.827531 -1.44211,-0.251133 -2.97619,-0.802049 -4.41679,-1.586146 -0.57375,-0.312286 -0.64309,-1.317341 -0.12999,-1.884307 0.66462,-0.734396 2.19384,-0.891662 3.7161,-0.382166 1.31829,0.441227 2.49215,1.293115 2.50772,1.819893 0.005,0.156535 0.1746,0.503931 0.37771,0.771992 0.3429,0.452545 0.38877,0.416886 0.64162,-0.498872 0.45277,-1.639817 -0.73199,-3.747827 -1.90714,-3.393324 -0.64338,0.194085 -1.83482,-0.321302 -2.23903,-0.968551 -0.38046,-0.609202 0.0525,-1.558189 0.73468,-1.610229 1.40967,-0.107543 2.05058,0.277765 2.1696,1.304338 0.11947,1.030416 0.91393,1.07919 1.13565,0.06972 0.19233,-0.87568 -0.0402,-1.958111 -0.37602,-1.750547 -0.28743,0.177639 -0.91314,-0.581349 -1.47317,-1.786943 -0.44954,-0.967752 -0.4484,-1.016635 0.0324,-1.380648 0.27414,-0.207555 0.57328,-0.38116 0.66477,-0.385788 0.0915,-0.0046 0.31626,-0.370344 0.49949,-0.812702 0.36757,-0.8874 1.1919,-1.576963 1.88516,-1.576963 0.31995,0 0.52402,0.352388 0.71055,1.226974 0.24139,1.13179 0.21068,1.277987 -0.39589,1.884555 -0.49084,0.490838 -0.58115,0.73321 -0.35619,0.955838 0.22428,0.22194 0.48339,0.08081 1.01264,-0.551553 l 0.71124,-0.849811 0.74496,0.653613 c 0.54262,0.476085 0.72228,0.85063 0.66146,1.378978 -0.0705,0.611996 -0.27993,0.784345 -1.34028,1.102741 l -1.25677,0.377376 v 1.424176 c 0,0.994525 0.0906,1.368216 0.30013,1.238686 0.21402,-0.132271 0.24654,0.07201 0.11336,0.711989 -0.35056,1.684511 -0.46495,3.411021 -0.226,3.411021 0.13121,0 0.80148,-0.58738 1.4895,-1.305288 1.41292,-1.4743 2.66117,-2.005939 4.09494,-1.744058 2.2114,0.403915 2.90247,1.76362 1.30567,2.568933 -1.2305,0.62058 -2.53182,1.006254 -3.47906,1.031093 -0.45123,0.01183 -1.41573,0.339254 -2.14333,0.727604 l -1.32292,0.706091 -0.0363,2.300993 -0.0363,2.300992 0.73682,-0.544751 c 0.40525,-0.299614 0.80269,-0.858811 0.88321,-1.24266 0.0843,-0.402045 0.54194,-0.962989 1.07945,-1.323205 1.99944,-1.339942 6.53499,-0.916091 6.92739,0.647371 0.48679,1.939494 -0.85674,2.780866 -4.73909,2.967814 -4.24611,0.204465 -4.61923,0.684027 -4.66318,5.993496 l -0.0196,2.368801 1.08596,-1.045884 c 0.59728,-0.575237 1.38982,-1.737582 1.76121,-2.58299 0.54481,-1.240182 0.88446,-1.644326 1.75831,-2.09216 1.91592,-0.981884 5.8627,-0.61738 6.51513,0.601704 0.3842,0.71788 -0.3104,2.235275 -1.24403,2.71767 -1.14811,0.593209 -2.98923,1.063502 -4.45262,1.137368 -2.0395,0.102945 -2.16156,0.160942 -3.84504,1.826848 l -1.57892,1.562444 0.005,4.903074 0.005,4.903073 0.72309,-1.204747 c 1.41481,-2.35722 2.58878,-3.754864 4.12214,-4.907512 1.67153,-1.256511 2.69571,-1.657149 3.1289,-1.223961 0.37198,0.371979 0.0997,1.101109 -1.08218,2.897875 -0.55277,0.840361 -1.66808,2.53996 -2.47846,3.776887 -0.81039,1.236927 -2.10721,3.022865 -2.88183,3.96875 l -1.40839,1.719791 -0.068,5.159375 -0.068,5.159375 0.70052,-1.322917 c 0.97707,-1.845163 2.71235,-4.042986 4.43569,-5.618023 2.20502,-2.015261 5.07223,-3.278273 5.57936,-2.457719 0.32474,0.525445 -2.42489,4.279384 -8.71202,11.894077 l -1.8419,2.230834 -0.0639,2.938357 -0.0639,2.938357 2.37271,-2.332394 c 3.35493,-3.297922 5.71509,-4.692479 7.94962,-4.697222 0.93513,-0.002 1.41581,0.590442 1.0435,1.286098 -0.38718,0.723456 -4.3084,4.014201 -7.82412,6.566118 -3.36573,2.443047 -3.75818,2.660286 -4.56464,2.526763 z"
       id="path28436" />
    <path
       style="fill:#d3c699"
       d="m 184.23611,82.131251 c -0.25466,-0.296499 -2.45267,-2.552048 -4.88447,-5.012332 -4.25011,-4.299882 -6.82334,-7.348659 -6.82334,-8.084327 0,-0.511116 0.77442,-0.599471 2.04788,-0.233647 2.47615,0.711314 5.29661,2.943096 7.34222,5.809753 0.67098,0.940303 1.35138,1.709642 1.51199,1.709642 0.2066,0 0.24453,-1.050678 0.12966,-3.592053 l -0.16237,-3.592053 -2.60798,-2.824093 c -4.75914,-5.153493 -7.1505,-8.372237 -6.83364,-9.197972 0.5671,-1.477838 5.28846,1.789779 7.73467,5.353112 l 1.02403,1.491674 0.0879,-0.896911 c 0.0483,-0.493302 -0.23562,-3.242726 -0.63099,-6.109832 -0.61918,-4.490072 -0.79948,-5.288657 -1.30026,-5.759113 -0.85856,-0.806575 -3.35812,-1.595674 -5.05448,-1.595674 -1.01199,0 -1.7115,-0.155311 -2.18942,-0.486113 -0.38627,-0.267361 -0.91066,-0.561281 -1.16532,-0.653154 -0.69545,-0.250893 -0.5825,-1.539927 0.18372,-2.096861 0.34656,-0.251902 1.27431,-0.533716 2.06166,-0.626253 1.71946,-0.202089 2.58627,0.174016 4.47694,1.942515 1.19016,1.113252 1.28103,1.153595 1.27719,0.567009 -0.002,-0.347335 -0.16879,-1.331397 -0.37003,-2.186805 -0.52016,-2.21102 -1.26822,-2.837187 -3.53723,-2.960858 -2.69981,-0.147151 -3.87045,-1.349766 -2.8419,-2.919534 0.67265,-1.026581 1.43361,-1.258534 2.57048,-0.78352 0.53483,0.223468 1.12921,0.616394 1.32085,0.873169 0.19163,0.256775 0.55637,0.629928 0.81053,0.829229 0.43081,0.337831 0.45142,0.266172 0.30439,-1.058333 -0.0867,-0.781385 -0.16055,-1.95648 -0.16401,-2.611324 -0.0144,-2.717649 0.009,-2.800393 0.95047,-3.307191 1.11248,-0.59911 1.67056,-0.397503 2.16315,0.781432 0.5682,1.359888 0.48299,1.823024 -0.54111,2.941082 -0.96644,1.055105 -1.11201,1.706932 -0.65163,2.917829 0.33459,0.880023 0.58107,0.667656 1.25835,-1.084194 0.81103,-2.097811 2.82684,-3.160477 3.85019,-2.029687 1.02482,1.132415 0.0433,2.764362 -2.39754,3.986404 -1.59756,0.799835 -1.69831,1.122039 -1.25715,4.020469 0.2084,1.369214 0.38105,2.593356 0.38366,2.720315 0.009,0.434769 0.7985,-0.427245 0.7985,-0.871773 0,-0.244119 0.10921,-0.556963 0.2427,-0.695207 0.13349,-0.138245 0.30274,-0.644953 0.37612,-1.126017 0.28393,-1.861442 1.4258,-2.777195 3.95809,-3.174296 1.69087,-0.265155 2.51885,0.04231 2.35353,0.873959 -0.17211,0.865826 -1.26746,2.12865 -2.61974,3.020284 -0.6974,0.459832 -1.83354,1.382361 -2.52477,2.050062 -1.22854,1.186737 -1.25688,1.250395 -1.26154,2.834328 -0.003,0.891179 0.31387,3.910684 0.70333,6.710011 l 0.70811,5.089685 1.27778,-2.666634 c 0.99594,-2.07845 1.63014,-3.011423 2.87528,-4.22979 1.84778,-1.808053 2.90694,-2.104742 2.90694,-0.814286 0,0.818387 -3.1467,7.314268 -5.27633,10.892188 l -1.33825,2.24835 v 4.432379 c 0,2.437809 0.0571,4.432379 0.12691,4.432379 0.0698,0 0.38182,-0.506015 0.69336,-1.124479 1.28943,-2.559709 4.23051,-5.498865 6.79557,-6.791124 3.39582,-1.710793 1.44977,2.415415 -4.40366,9.337055 -3.56293,4.213137 -3.65345,4.28061 -4.46896,3.331126 z"
       id="path28435" />
    <path
       style="fill:#cfbe90"
       d="m 206.00774,21.297671 c -0.65306,-0.721627 -0.35329,-1.799617 0.5645,-2.029968 1.44692,-0.363154 2.26637,1.165861 1.104,2.059951 -0.7956,0.611972 -1.09236,0.606639 -1.6685,-0.02998 z"
       id="path28418" />
    <path
       style="fill:#cfbe90"
       d="m 176.82269,33.457936 c -0.7433,-0.692488 -0.73812,-0.858813 0.0552,-1.771277 0.52058,-0.598767 0.73466,-0.687761 1.10679,-0.460093 0.79503,0.486399 1.02899,1.078193 0.74584,1.886585 -0.32454,0.926521 -1.12763,1.071658 -1.90784,0.344785 z"
       id="path28416" />
    <path
       style="fill:#cfbe90"
       d="m 175.9386,38.309641 c -0.4662,-0.124604 -1.02905,-1.165613 -1.02905,-1.903262 0,-0.256381 0.15746,-0.681485 0.34991,-0.944675 0.32725,-0.447541 0.40326,-0.450937 1.17385,-0.05245 0.45316,0.234342 0.88585,0.526247 0.96151,0.648678 0.11028,0.178425 -0.85313,2.506672 -0.99156,2.396302 -0.0212,-0.01688 -0.23027,-0.08195 -0.46466,-0.144593 z"
       id="path28415" />
    <path
       style="fill:#cfbe90"
       d="m 202.79059,82.088588 c -0.10781,-0.174442 -0.167,-1.883742 -0.13153,-3.798445 l 0.0645,-3.481277 -1.54905,-2.088534 c -2.64839,-3.570753 -4.70899,-6.501737 -6.11865,-8.703117 -0.74547,-1.164166 -1.46189,-2.245684 -1.59204,-2.403373 -0.13014,-0.157688 -0.31945,-0.663802 -0.42068,-1.124697 -0.2446,-1.113639 0.32348,-1.328219 1.79055,-0.676345 2.10698,0.936215 4.79404,3.939698 6.68176,7.468614 1.0143,1.89613 1.10796,1.544522 1.15444,-4.334032 l 0.0377,-4.774 -2.2823,-2.502041 c -4.40056,-4.824259 -6.87144,-8.573616 -6.19068,-9.393874 0.4169,-0.502342 1.0615,-0.31286 2.76761,0.813559 2.06974,1.366495 4.18634,3.893426 5.31288,6.342857 0.16021,0.348363 0.26789,-1.259318 0.31514,-4.705275 0.081,-5.909414 0.20655,-5.474331 -2.19965,-7.624125 -1.31182,-1.172033 -1.45181,-1.228414 -3.7969,-1.52916 -1.33918,-0.171742 -2.54687,-0.243036 -2.68376,-0.158432 -0.1369,0.08461 -0.78161,-0.08182 -1.43271,-0.369825 -1.30841,-0.578772 -1.73199,-1.426812 -1.20474,-2.41198 0.61858,-1.155836 3.98438,-1.891233 6.07696,-1.327761 1.39226,0.374896 2.65549,1.557772 2.65549,2.486569 0,0.456638 0.40352,1.060037 1.25677,1.879299 l 1.25677,1.206708 0.17526,-1.263634 c 0.0964,-0.694998 0.18569,-2.118195 0.19844,-3.162659 0.0214,-1.754663 -0.0304,-1.94115 -0.68127,-2.453145 -0.38745,-0.304765 -1.01253,-0.620741 -1.38907,-0.702168 -0.37653,-0.08143 -0.98227,-0.249811 -1.34607,-0.374187 -0.3638,-0.124376 -1.56152,-0.278509 -2.66159,-0.342518 -2.34049,-0.136184 -3.60626,-0.688687 -3.85583,-1.683053 -0.36246,-1.444156 0.79469,-2.174274 3.53523,-2.230607 2.25315,-0.04631 2.93823,0.297627 4.5886,2.303714 0.64444,0.783349 1.32054,1.42508 1.50245,1.426068 0.23871,0.0013 0.33072,-0.622205 0.33072,-2.241062 0,-2.568074 -0.20772,-2.845685 -2.38125,-3.182408 -1.42724,-0.221109 -4.44648,-1.363051 -5.09322,-1.926368 -1.71626,-1.494878 1.54783,-2.887976 4.18495,-1.786116 1.10515,0.461758 1.48717,0.816237 1.98763,1.844298 0.57568,1.182577 0.95231,1.109632 1.15217,-0.223151 0.13551,-0.903647 0.0676,-1.367412 -0.28243,-1.929691 -0.87408,-1.403966 -1.1892,-1.666703 -1.68243,-1.402735 -0.63718,0.341008 -2.01204,-0.215696 -2.34672,-0.950222 -0.20834,-0.457279 -0.1646,-0.677763 0.1999,-1.007639 1.00075,-0.905661 2.6739,-0.265205 2.6739,1.023524 0,0.968981 0.72557,1.041027 1.20218,0.119373 0.4944,-0.956071 0.32649,-1.634085 -0.54631,-2.205965 -0.35553,-0.232952 -0.87295,-0.892411 -1.14982,-1.465465 -0.49759,-1.029888 -0.49732,-1.047416 0.0231,-1.51835 0.28955,-0.262038 0.60325,-0.416902 0.69711,-0.344142 0.0939,0.07276 0.20817,-0.131535 0.25402,-0.453989 0.0918,-0.645966 1.54028,-2.003409 1.98095,-1.856518 0.15285,0.05095 0.40786,0.555828 0.5667,1.121952 0.25972,0.925679 0.22771,1.095236 -0.31795,1.684015 -0.33372,0.360084 -0.56409,0.782866 -0.51194,0.939515 0.1873,0.562644 0.88867,0.424563 1.18875,-0.234034 0.37215,-0.81678 0.57175,-0.831827 1.48677,-0.112076 0.76472,0.601536 0.84059,1.500451 0.15357,1.819553 -0.21828,0.101385 -0.66961,0.325937 -1.00295,0.499005 -0.33334,0.173069 -0.7203,0.244079 -0.8599,0.1578 -0.15227,-0.09411 -0.25382,0.543676 -0.25382,1.594152 0,1.099973 0.0984,1.690222 0.26458,1.5875 0.37792,-0.233565 0.32668,0.449728 -0.10112,1.348412 -0.20982,0.440776 -0.31012,1.192439 -0.2353,1.763379 l 0.13042,0.995124 1.70018,-1.590437 c 1.65298,-1.546276 1.74069,-1.590437 3.15885,-1.590437 3.98774,0 3.97095,2.317206 -0.0228,3.148586 -2.45655,0.511379 -3.58072,0.883258 -4.24166,1.40315 -0.54724,0.430461 -0.60784,0.700193 -0.6135,2.73076 -0.005,1.626633 0.078,2.201043 0.29677,2.065827 0.80269,-0.496092 1.51568,-1.284966 1.51568,-1.677 0,-0.239432 0.26789,-0.682799 0.59532,-0.985259 1.7555,-1.621666 7.03005,-1.147295 7.29265,0.655872 0.23321,1.601317 -1.33044,2.450855 -4.81671,2.61695 -2.45764,0.117088 -3.94372,0.593699 -4.27945,1.372487 -0.28623,0.663947 -0.47875,6.925429 -0.21281,6.921295 0.42178,-0.0066 2.32371,-2.419189 2.64589,-3.356359 0.70552,-2.052225 2.38029,-2.886913 5.32349,-2.653165 2.01727,0.160211 2.97989,0.717937 2.96821,1.719726 -0.005,0.396827 -0.16349,0.925638 -0.35303,1.175134 -0.50927,0.670364 -3.81424,1.994724 -4.53335,1.816591 -0.14552,-0.03605 -0.87154,0.01026 -1.61338,0.102898 -1.19394,0.149099 -1.53568,0.350183 -2.97656,1.751392 l -1.62777,1.582954 v 5.081662 5.081662 l 0.69391,-1.303497 c 1.89137,-3.552937 6.01098,-7.1461 7.12914,-6.218109 0.25653,0.212897 0.28171,0.471314 0.094,0.964942 -0.38712,1.018223 -3.00598,4.977311 -5.60197,8.46885 l -2.31511,3.113754 0.002,5.02976 0.002,5.02976 0.8309,-1.455208 c 1.95308,-3.420561 4.61797,-6.164797 7.29128,-7.508374 1.35379,-0.680405 2.20414,-0.857558 2.53383,-0.527873 0.47235,0.47235 -1.56168,3.280303 -8.34137,11.515187 l -2.31961,2.817483 v 2.996106 2.996105 l 1.12448,-1.231347 c 1.82578,-1.999295 4.70357,-4.437444 6.03236,-5.110794 1.66051,-0.841444 3.72608,-1.117969 4.18854,-0.560736 0.28078,0.338311 0.27659,0.506037 -0.0233,0.934188 -0.83554,1.192913 -4.99541,4.593588 -9.5174,7.780455 -1.77756,1.252731 -3.13715,1.607543 -3.55697,0.928264 z"
       id="path28413" />
    <path
       style="fill:#cfbe90"
       d="m 184.24218,82.128291 c -0.258,-0.304796 -2.52302,-2.64415 -5.03338,-5.198564 -4.32102,-4.396854 -6.85601,-7.519686 -6.53102,-8.045523 0.44847,-0.725645 3.00474,0.118084 5.28275,1.743639 1.77854,1.269137 3.10846,2.681889 4.4167,4.691794 0.44687,0.686541 0.93096,1.175039 1.07575,1.085551 0.16552,-0.102295 0.20974,-1.514794 0.1191,-3.804331 l -0.14416,-3.641626 -2.38509,-2.471008 c -2.57612,-2.668928 -6.19395,-7.036362 -6.83366,-8.249576 -1.3845,-2.625748 2.42539,-1.385181 5.37804,1.751185 0.71535,0.759852 1.71169,1.976862 2.21409,2.704466 l 0.91346,1.322916 0.0801,-1.2433 c 0.0921,-1.429038 -1.14411,-10.593474 -1.52491,-11.304994 -0.41922,-0.783329 -2.8753,-1.697533 -5.03747,-1.875053 -2.38382,-0.195717 -4.3254,-1.207236 -4.18378,-2.179653 0.12667,-0.869761 1.67777,-1.638016 3.26094,-1.615132 1.60638,0.02322 2.19998,0.311836 3.88709,1.889923 0.70248,0.65709 1.32635,1.145592 1.38638,1.085562 0.15896,-0.158955 -0.56669,-3.47508 -0.93946,-4.293213 -0.46732,-1.025659 -1.24289,-1.406525 -2.94476,-1.44611 -1.69717,-0.03948 -3.0966,-0.625468 -3.14271,-1.315969 -0.0683,-1.02239 0.0893,-1.537596 0.60487,-1.97758 0.9995,-0.85298 2.36809,-0.51854 3.69894,0.9039 0.65273,0.697654 1.50887,1.064826 1.1576,0.496458 -0.0861,-0.139308 -0.21989,-1.597824 -0.29731,-3.241146 l -0.14077,-2.987858 0.92632,-0.617881 c 1.14166,-0.761524 1.67671,-0.537716 2.18156,0.912534 0.47596,1.367233 0.49599,1.279644 -0.56012,2.448632 -0.92599,1.024964 -1.11612,1.812151 -0.75928,3.143694 0.2558,0.954505 0.59567,0.702405 1.32726,-0.984488 0.66847,-1.541372 1.87405,-2.653532 2.87642,-2.653532 0.50619,0 1.45039,1.052719 1.45039,1.617089 0,0.758492 -1.18698,1.931772 -2.75898,2.727131 -0.93958,0.475386 -1.53379,0.95986 -1.62552,1.325331 -0.14781,0.588918 0.5276,5.378409 0.79636,5.647167 0.24825,0.248251 0.41963,-0.07039 1.11813,-2.078929 0.36889,-1.060745 0.8475,-2.198452 1.06359,-2.528236 0.6035,-0.921055 3.75179,-1.719639 4.95666,-1.257288 1.02852,0.39468 0.13189,2.051316 -1.87615,3.46641 -2.55771,1.802463 -3.94979,3.29296 -4.13364,4.425891 -0.0891,0.549037 -0.11077,1.313225 -0.0482,1.698195 0.0626,0.38497 0.35553,2.545415 0.65096,4.800988 0.29542,2.255572 0.60548,4.622153 0.68902,5.259067 l 0.15189,1.158026 0.90384,-2.084067 c 1.58564,-3.656157 4.19247,-6.714276 5.72345,-6.714276 0.47877,0 0.52435,0.116285 0.38415,0.980235 -0.17875,1.101477 -2.2262,5.307808 -4.80315,9.867681 l -1.71954,3.042708 0.0117,4.630208 0.0117,4.630208 0.8139,-1.5875 c 1.04666,-2.04147 4.58227,-5.568553 6.55322,-6.537409 1.58573,-0.779499 1.86784,-0.750436 1.86784,0.192429 0,0.821734 -3.12043,5.414993 -5.74976,8.463618 -1.1305,1.310771 -2.29583,2.690847 -2.58964,3.066835 -0.29381,0.375988 -0.79709,0.824314 -1.11842,0.99628 -0.49532,0.26509 -0.65559,0.228341 -1.0533,-0.241509 z"
       id="path28410" />
    <path
       style="fill:#e6c938"
       d="m 206.03217,21.284786 c -0.68499,-0.691691 -0.3928,-1.782946 0.54007,-2.017083 1.42733,-0.358238 2.18206,0.996954 1.11095,1.994842 -0.71917,0.670012 -1.00571,0.673872 -1.65102,0.02224 z"
       id="path28389" />
    <path
       style="fill:#e6c938"
       d="m 176.78509,33.350514 c -0.49194,-0.523643 -0.54595,-0.73367 -0.30464,-1.184562 0.42797,-0.799671 1.28263,-1.201365 1.74306,-0.819244 0.55336,0.459251 0.69978,1.164618 0.4035,1.943896 -0.33243,0.87435 -1.05473,0.897843 -1.84192,0.05991 z"
       id="path28388" />
    <path
       style="fill:#e6c938"
       d="m 175.92789,38.289567 c -0.97637,-0.218918 -1.29732,-2.71444 -0.39371,-3.061189 0.20054,-0.07695 0.73339,0.08435 1.18411,0.358451 l 0.8195,0.498366 -0.47934,1.070645 c -0.56326,1.25808 -0.56558,1.260406 -1.13056,1.133727 z"
       id="path28387" />
    <path
       style="fill:#e6c938"
       d="m 202.79374,81.810444 c -0.10852,-0.327422 -0.16603,-2.029602 -0.12781,-3.782623 l 0.0695,-3.18731 -1.67596,-2.285575 c -4.8156,-6.56726 -7.74068,-11.011089 -8.04439,-12.221179 -0.23716,-0.944883 0.4327,-1.136769 1.81861,-0.520957 2.17924,0.96832 5.05916,4.232086 6.7045,7.598106 0.66776,1.366093 0.77327,1.471525 0.92671,0.926042 0.0952,-0.338561 0.18503,-2.760306 0.19954,-5.381654 l 0.0264,-4.766088 -2.92966,-3.303703 c -4.26524,-4.809805 -6.25981,-8.017994 -5.41881,-8.715959 0.44007,-0.365226 0.98677,-0.156104 2.82928,1.082234 1.66799,1.121046 3.11001,2.680278 4.12686,4.462313 1.6666,2.920709 1.52688,3.162531 1.50371,-2.602672 -0.0115,-2.861395 -0.10348,-5.453559 -0.20438,-5.760366 -0.19315,-0.587341 -1.95307,-2.346625 -3.0935,-3.09239 -0.73497,-0.480623 -1.74365,-0.664025 -4.71307,-0.856948 -2.92466,-0.190015 -4.07864,-1.055492 -3.48593,-2.614432 0.37902,-0.996916 1.84073,-1.536201 4.26499,-1.57354 1.77088,-0.02728 2.13596,0.05401 3.09597,0.689317 0.83179,0.550451 1.13073,0.946088 1.26809,1.678307 0.18332,0.977202 2.50162,3.71603 2.8503,3.367344 0.0939,-0.0939 0.17073,-1.573577 0.17073,-3.288168 v -3.117438 l -0.85989,-0.632455 c -0.95739,-0.704158 -2.89843,-1.180793 -5.49011,-1.348126 -2.02879,-0.130991 -2.99143,-0.516261 -3.45522,-1.382865 -0.27476,-0.513392 -0.27476,-0.751075 0,-1.264467 0.48927,-0.914216 1.37661,-1.22008 3.53382,-1.218106 2.25661,0.0021 2.74442,0.262647 4.57827,2.445652 0.70292,0.836745 1.36236,1.521354 1.46543,1.521354 0.10308,0 0.23166,-0.982265 0.28574,-2.182812 0.0898,-1.993949 0.0462,-2.232854 -0.50406,-2.76117 -0.35533,-0.341152 -1.11987,-0.651749 -1.86412,-0.757302 -1.46742,-0.208116 -4.49261,-1.329855 -5.16433,-1.914934 -0.6039,-0.526002 -0.58512,-0.992938 0.0661,-1.644198 0.92725,-0.927247 4.23377,-0.566525 5.38811,0.587812 0.18837,0.188364 0.51161,0.68992 0.71833,1.114568 0.58113,1.193778 0.97753,1.125863 1.1766,-0.201584 0.13457,-0.897425 0.0644,-1.356508 -0.2956,-1.934082 -0.88689,-1.422837 -1.19912,-1.684599 -1.69369,-1.419911 -0.63306,0.338803 -2.04727,-0.226134 -2.22005,-0.886848 -0.21691,-0.829487 0.29431,-1.493288 1.15004,-1.493288 0.9234,0 1.59709,0.609876 1.59709,1.445799 0,0.968981 0.72557,1.041027 1.20218,0.119373 0.4944,-0.956071 0.32649,-1.634085 -0.54631,-2.205965 -0.35553,-0.232952 -0.87295,-0.892411 -1.14982,-1.465465 -0.4646,-0.961616 -0.47006,-1.070825 -0.0709,-1.417016 0.23789,-0.206304 0.70042,-0.3513 1.02785,-0.322213 0.32742,0.02909 0.59531,-0.04628 0.59531,-0.16748 0,-0.121201 -0.11906,-0.220366 -0.26459,-0.220366 -0.86794,0 0.43988,-1.721898 1.43953,-1.895303 0.40131,-0.06961 0.56556,0.125789 0.75183,0.8944 0.19816,0.817684 0.14505,1.114482 -0.31505,1.760635 -0.69556,0.976825 -0.70051,1.356934 -0.0177,1.356934 0.32797,0 0.63323,-0.256497 0.7872,-0.661458 0.30659,-0.806406 0.51895,-0.821476 1.43393,-0.10176 0.76523,0.601936 0.83889,1.485228 0.15357,1.841586 -0.70077,0.364389 -1.44663,0.59394 -1.7666,0.543705 -0.17126,-0.02689 -0.34986,0.222224 -0.39687,0.553582 -0.1443,1.016965 0.086,2.858451 0.33796,2.702711 0.3481,-0.215139 0.29212,0.219156 -0.17117,1.327982 -0.33605,0.804278 -0.37713,1.596173 -0.14423,2.780447 0.0133,0.06779 0.64932,-0.484115 1.4133,-1.226454 1.7281,-1.679133 2.23368,-1.939508 3.76606,-1.939508 2.42378,0 3.55123,1.276584 2.05478,2.326579 -0.66042,0.463389 -1.35874,0.663292 -3.5958,1.029344 -1.02043,0.166974 -3.1604,1.102671 -3.4063,1.489398 -0.10983,0.17273 -0.20152,1.303051 -0.20375,2.511825 l -0.004,2.197771 0.79409,-0.469081 c 0.6653,-0.393 1.1167,-1.038581 1.17728,-1.683712 0.0396,-0.421327 1.19613,-1.295005 1.99738,-1.508836 1.30986,-0.349565 3.9567,-0.121909 4.89479,0.421004 1.41633,0.819689 1.10647,2.412055 -0.60881,3.128746 -0.5297,0.221323 -2.0236,0.445582 -3.31976,0.498352 -2.83763,0.115527 -4.1841,0.678934 -4.44064,1.858117 -0.0919,0.422511 -0.17607,2.13742 -0.18699,3.810909 l -0.0199,3.042708 1.31409,-1.455208 c 0.72274,-0.800364 1.45292,-1.908744 1.62262,-2.463066 0.43839,-1.432035 1.49554,-2.222957 3.26705,-2.444292 2.61298,-0.32647 4.88583,0.353375 4.88583,1.461425 0,1.74764 -1.81645,2.782138 -5.6465,3.215765 l -2.33921,0.264839 -1.56339,1.534548 -1.5634,1.534547 0.0264,5.261138 c 0.0145,2.893625 0.10462,5.023012 0.20025,4.73197 0.93231,-2.837292 5.22153,-7.276041 7.03094,-7.276041 1.05904,0 0.86811,0.971819 -0.60264,3.06736 -0.70542,1.005087 -1.46762,2.184619 -1.69379,2.621181 -0.22616,0.436563 -1.40517,2.103438 -2.62003,3.704167 l -2.20881,2.910416 -0.1323,5.247392 c -0.0899,3.564361 -0.0474,5.10168 0.1323,4.793091 2.52445,-4.334593 5.16509,-7.224228 7.8091,-8.545455 1.69159,-0.845295 2.49487,-1.020998 2.75364,-0.602305 0.30283,0.490001 -2.28061,3.953866 -10.10824,13.553084 -0.56406,0.691719 -0.59891,0.946134 -0.52916,3.862965 0.0684,2.85928 0.10569,3.062072 0.44285,2.405853 0.56472,-1.099124 5.20208,-5.141972 6.7351,-5.871658 1.93672,-0.921837 3.41376,-1.113115 4.00785,-0.519021 0.44715,0.447142 0.38202,0.549659 -1.48529,2.337924 -2.01563,1.930314 -4.83977,4.157281 -8.00297,6.31073 -2.0564,1.399958 -3.18449,1.606454 -3.50432,0.641462 z"
       id="path28386" />
    <path
       style="fill:#e6c938"
       d="m 184.11425,81.965363 c -0.18763,-0.242217 -2.33041,-2.474638 -4.76172,-4.960937 -4.505,-4.606879 -5.78658,-6.068379 -6.46237,-7.369568 -0.34129,-0.657124 -0.33445,-0.749976 0.0666,-0.90386 0.77478,-0.297308 2.77693,0.425129 4.67473,1.686782 1.67119,1.111007 4.34489,4.011044 5.24001,5.68359 0.61986,1.158218 0.84134,0.04178 0.71729,-3.615813 l -0.12229,-3.605797 -2.52489,-2.563564 c -1.38869,-1.40996 -3.43387,-3.718814 -4.54484,-5.130787 -2.70547,-3.438458 -3.14518,-4.661474 -1.53711,-4.27537 2.09316,0.502574 4.59365,2.535857 6.55645,5.331389 0.68575,0.976683 1.35214,1.893247 1.48086,2.036808 0.28742,0.320554 0.12563,-1.377577 -0.74328,-7.801645 -0.738,-5.456205 -0.84016,-5.668411 -3.04718,-6.329652 -0.57046,-0.170912 -0.98671,-0.394237 -0.925,-0.496277 0.0617,-0.102041 -0.79806,-0.19405 -1.91059,-0.204465 -1.72184,-0.01612 -2.19008,-0.124863 -3.14726,-0.730923 -0.61847,-0.391593 -1.12448,-0.819819 -1.12448,-0.951612 0,-1.103834 1.30919,-1.896499 3.15596,-1.910804 1.54227,-0.01195 2.53753,0.472981 4.11267,2.003847 0.65821,0.639707 1.25786,1.064217 1.33256,0.943356 0.0747,-0.120861 -0.0645,-1.131234 -0.30927,-2.245272 -0.62461,-2.842607 -1.29512,-3.526068 -3.46942,-3.536467 -2.24182,-0.01072 -3.235,-0.551699 -3.235,-1.762067 0,-2.158838 2.20619,-2.605792 3.9161,-0.793368 0.77083,0.81704 1.92418,1.341506 1.52315,0.692627 -0.0815,-0.131906 -0.21487,-1.590422 -0.29633,-3.241146 l -0.14811,-3.001318 0.94105,-0.628645 c 1.09927,-0.734339 1.51618,-0.544434 2.15352,0.980926 0.48086,1.150854 0.34139,1.603544 -0.81944,2.65988 -1.02503,0.932756 -1.03258,0.969972 -0.56007,2.762147 0.39322,1.491462 0.56894,1.382643 1.55141,-0.960746 0.62887,-1.499975 1.75594,-2.564603 2.71501,-2.564603 0.47554,0 1.45912,1.031634 1.45912,1.5304 0,0.77467 -1.16241,1.954105 -2.68184,2.721108 -0.86664,0.437481 -1.64642,0.979678 -1.73284,1.204883 -0.18669,0.486494 0.35438,4.587118 0.7386,5.597696 0.26225,0.689745 0.28472,0.668233 0.91291,-0.873989 0.35423,-0.869627 0.64461,-1.752367 0.64528,-1.961643 6.7e-4,-0.209277 0.26912,-0.774111 0.59654,-1.255187 0.62148,-0.913142 2.48622,-1.676102 4.07561,-1.667551 2.55412,0.01374 1.55595,1.872637 -2.62617,4.89074 -0.92698,0.668971 -1.68311,1.484161 -2.05524,2.215782 l -0.58874,1.157449 0.70872,5.589426 c 0.3898,3.074184 0.79478,5.938988 0.89997,6.36623 0.18202,0.739313 0.22602,0.688236 0.91174,-1.058334 0.99629,-2.537584 2.68314,-5.020623 4.13427,-6.085613 2.83912,-2.083647 2.80624,-0.705218 -0.11958,5.01216 -1.10801,2.165176 -2.50991,4.725019 -3.11534,5.688541 l -1.10076,1.751858 -0.0842,3.571875 c -0.0463,1.964531 -0.0462,4.167187 2.7e-4,4.894792 l 0.0844,1.322916 0.44254,-0.976125 c 1.08941,-2.402935 4.07018,-5.597795 6.47855,-6.94386 4.50638,-2.51866 1.91945,2.276072 -6.22481,11.537349 -0.95872,1.090212 -1.66481,1.273297 -2.20774,0.572451 z"
       id="path28385" />
    <path
       style="fill:#879964"
       d="m 202.79374,81.810444 c -0.10852,-0.327422 -0.16603,-2.029602 -0.12781,-3.782623 l 0.0695,-3.18731 -1.67596,-2.285575 c -4.8156,-6.56726 -7.74068,-11.011089 -8.04439,-12.221179 -0.23716,-0.944883 0.4327,-1.136769 1.81861,-0.520957 2.17924,0.96832 5.05916,4.232086 6.7045,7.598106 0.66776,1.366093 0.77327,1.471525 0.92671,0.926042 0.0952,-0.338561 0.18503,-2.760306 0.19954,-5.381654 l 0.0264,-4.766088 -2.92966,-3.303703 c -4.26524,-4.809805 -6.25981,-8.017994 -5.41881,-8.715959 0.44007,-0.365226 0.98677,-0.156104 2.82928,1.082234 1.66799,1.121046 3.11001,2.680278 4.12686,4.462313 1.6666,2.920709 1.52688,3.162531 1.50371,-2.602672 -0.0115,-2.861395 -0.10568,-5.460499 -0.20927,-5.775787 -0.17864,-0.543715 -2.39097,-2.736417 -3.2407,-3.211948 -0.32989,-0.184613 -0.34242,-0.341768 -0.0742,-0.930445 0.1775,-0.389573 0.40652,-0.708314 0.50893,-0.708314 0.10241,0 0.78435,0.588791 1.51542,1.308425 0.73108,0.719633 1.40208,1.235571 1.49113,1.146527 0.089,-0.08904 0.16189,-1.570056 0.16189,-3.291139 v -3.129243 l -1.01653,-0.736376 c -1.0307,-0.746632 -1.03623,-0.774549 -0.37415,-1.889106 0.0355,-0.05974 0.30411,0.1082 0.59693,0.373204 0.29283,0.265004 0.58029,0.432946 0.63879,0.373204 0.0585,-0.05974 0.14086,-1.120652 0.18299,-2.357579 0.0421,-1.236927 0.20189,-2.336432 0.35502,-2.443344 0.16777,-0.117139 0.10566,-0.195996 -0.1563,-0.198437 -0.36581,-0.0034 -0.75591,-0.501521 -0.75591,-0.965198 0,-0.06826 0.41672,0.19373 0.92604,0.582209 l 0.92604,0.706327 v 2.226864 c 0,2.116979 0.0252,2.213395 0.51,1.95392 1.28602,-0.688255 1.83076,0.647966 0.62286,1.527855 -0.71451,0.520491 -0.71977,0.547877 -0.80431,4.189255 l -0.0851,3.66534 1.42289,-1.559337 c 1.16252,-1.273999 1.45494,-1.475804 1.59806,-1.102839 0.33517,0.87343 0.1658,1.203522 -1.41233,2.752525 l -1.5875,1.558209 0.0264,5.261138 c 0.0145,2.893625 0.10462,5.023012 0.20025,4.73197 0.93231,-2.837292 5.22153,-7.276041 7.03094,-7.276041 1.05904,0 0.86811,0.971819 -0.60264,3.06736 -0.70542,1.005087 -1.46762,2.184619 -1.69379,2.621181 -0.22616,0.436563 -1.40517,2.103438 -2.62003,3.704167 l -2.20881,2.910416 -0.1323,5.247392 c -0.0899,3.564361 -0.0474,5.10168 0.1323,4.793091 2.52445,-4.334593 5.16509,-7.224228 7.8091,-8.545455 1.69159,-0.845295 2.49487,-1.020998 2.75364,-0.602305 0.30283,0.490001 -2.28061,3.953866 -10.10824,13.553084 -0.56406,0.691719 -0.59891,0.946134 -0.52916,3.862965 0.0684,2.85928 0.10569,3.062072 0.44285,2.405853 0.56472,-1.099124 5.20208,-5.141972 6.7351,-5.871658 1.93672,-0.921837 3.41376,-1.113115 4.00785,-0.519021 0.44715,0.447142 0.38202,0.549659 -1.48529,2.337924 -2.01563,1.930314 -4.83977,4.157281 -8.00297,6.31073 -2.0564,1.399958 -3.18449,1.606454 -3.50432,0.641462 z"
       id="path28366" />
    <path
       style="fill:#879964"
       d="m 184.11425,81.965363 c -0.18763,-0.242217 -2.33041,-2.474638 -4.76172,-4.960937 -4.505,-4.606879 -5.78658,-6.068379 -6.46237,-7.369568 -0.34129,-0.657124 -0.33445,-0.749976 0.0666,-0.90386 0.77478,-0.297308 2.77693,0.425129 4.67473,1.686782 1.67119,1.111007 4.34489,4.011044 5.24001,5.68359 0.61986,1.158218 0.84134,0.04178 0.71729,-3.615813 l -0.12229,-3.605797 -2.52489,-2.563564 c -1.38869,-1.40996 -3.43387,-3.718814 -4.54484,-5.130787 -2.70547,-3.438458 -3.14518,-4.661474 -1.53711,-4.27537 2.09316,0.502574 4.59365,2.535857 6.55645,5.331389 1.75316,2.496952 1.73383,2.488091 1.55727,0.713892 -0.37043,-3.722346 -1.52198,-11.398283 -1.75222,-11.679878 -0.13777,-0.168496 -0.66717,-0.504082 -1.17643,-0.745746 -0.765,-0.363012 -0.89477,-0.539715 -0.74661,-1.016559 0.0986,-0.317444 0.28994,-0.619284 0.42512,-0.670757 0.13518,-0.05147 0.0897,-0.295432 -0.10112,-0.542133 -0.1908,-0.246702 -0.0855,-0.175712 0.23402,0.157753 0.83044,0.86673 0.94943,0.385507 0.45062,-1.822413 -0.47475,-2.101407 -1.12849,-3.257309 -1.99836,-3.533396 -0.54816,-0.17398 -0.54656,-0.184813 0.11115,-0.749965 0.63162,-0.542733 0.65749,-0.668694 0.48319,-2.352659 -0.10128,-0.978574 -0.10713,-1.779225 -0.013,-1.779225 0.43064,0 1.06142,1.072605 1.39322,2.369081 0.20865,0.815318 0.44553,1.287676 0.55605,1.108841 0.33912,-0.548706 0.6171,-0.08149 0.64314,1.080952 0.0342,1.526603 0.74928,5.514636 1.04113,5.806494 0.13688,0.136876 0.36837,-0.210365 0.55458,-0.831877 0.1758,-0.586754 0.40478,-1.066825 0.50885,-1.066825 0.10407,0 0.3256,0.435723 0.49229,0.968274 0.2609,0.833551 0.22797,1.11235 -0.23667,2.003765 l -0.53972,1.035492 0.71051,5.603005 c 0.39078,3.081653 0.79657,5.952567 0.90176,6.379809 0.18202,0.739313 0.22602,0.688236 0.91174,-1.058334 0.99629,-2.537584 2.68314,-5.020623 4.13427,-6.085613 2.83912,-2.083647 2.80624,-0.705218 -0.11958,5.01216 -1.10801,2.165176 -2.50991,4.725019 -3.11534,5.688541 l -1.10076,1.751858 -0.0842,3.571875 c -0.0463,1.964531 -0.0462,4.167187 2.7e-4,4.894792 l 0.0844,1.322916 0.44254,-0.976125 c 1.08941,-2.402935 4.07018,-5.597795 6.47855,-6.94386 4.50638,-2.51866 1.91945,2.276072 -6.22481,11.537349 -0.95872,1.090212 -1.66481,1.273297 -2.20774,0.572451 z"
       id="path28365" />
    <path
       style="fill:#779459"
       d="m 180.51418,47.083883 c -0.1705,-0.582083 -0.31332,-1.296458 -0.31737,-1.5875 -0.004,-0.291042 -0.24019,-0.826823 -0.52476,-1.190625 -0.58569,-0.748768 -0.70245,-1.266942 -0.18956,-0.841281 0.21822,0.181106 0.47828,0.192685 0.7276,0.0324 0.29391,-0.188956 0.31021,-0.299866 0.0672,-0.457352 -0.18149,-0.117632 -0.25362,-0.464701 -0.16612,-0.799326 0.1222,-0.467301 0.23117,-0.527925 0.51922,-0.288866 0.2747,0.227983 0.36456,0.225509 0.36456,-0.01004 0,-0.171927 0.11938,-0.238811 0.2653,-0.148631 0.16674,0.103051 0.17507,0.332549 0.0224,0.61776 -0.14994,0.280161 -0.14363,0.653655 0.0165,0.97613 0.2558,0.515175 0.25368,0.515295 -0.15472,0.0087 -0.39573,-0.49084 -0.41407,-0.474755 -0.41407,0.363126 0,0.749304 -0.0577,0.828848 -0.39688,0.547339 -0.25026,-0.207702 -0.39687,-0.225438 -0.39687,-0.04801 0,0.154751 0.11906,0.35495 0.26458,0.444887 0.14552,0.08994 0.26458,0.461979 0.26458,0.826759 0,0.364781 0.12659,0.899775 0.28132,1.188876 0.15472,0.289102 0.23536,0.727759 0.17919,0.974794 -0.0618,0.271705 -0.22459,0.03103 -0.41213,-0.609179 z"
       id="path28346" />
    <path
       style="fill:#779459"
       d="m 210.62833,73.828383 c 0,-0.06089 0.41121,-0.364852 0.91379,-0.675466 0.9203,-0.568773 3.58413,-1.156011 3.58413,-0.790115 0,0.267377 -0.70401,0.51796 -1.45521,0.51796 -0.82651,0 -1.48383,0.268805 -1.31708,0.538608 0.0743,0.120218 -0.004,0.304732 -0.17469,0.410031 -0.19347,0.119572 -0.2389,0.07677 -0.121,-0.114009 0.10384,-0.168005 0.0697,-0.305464 -0.0758,-0.305464 -0.14552,0 -0.33817,0.119063 -0.42811,0.264584 -0.15705,0.254112 -0.92604,0.381887 -0.92604,0.153871 z"
       id="path28345" />
    <path
       style="fill:#779459"
       d="m 203.71783,50.236834 c 0.0709,1.747893 0.33035,0.282615 0.43415,-2.451935 0.0853,-2.246758 0.0294,-2.98056 -0.23927,-3.139469 -0.19281,-0.114059 -0.39779,-0.351868 -0.45551,-0.528465 -0.0577,-0.176597 -0.12225,1.311684 -0.1434,3.307291 -0.0228,2.15254 0.0452,3.30552 0.16714,2.834627 l 0.20559,-0.79375 z"
       id="path28311" />
    <path
       style="fill:#779459"
       d="m 204.43729,55.21982 c -0.0147,-0.400182 -0.16033,-0.702904 -0.32366,-0.672715 -0.19913,0.03681 -0.25317,-0.333623 -0.16402,-1.124479 0.0912,-0.809404 0.0342,-1.179368 -0.18168,-1.179368 -0.17304,0 -0.2378,0.124278 -0.14392,0.276173 0.0939,0.151895 0.0273,0.448918 -0.14791,0.660049 -0.17522,0.211132 -0.2556,0.624729 -0.17862,0.919106 0.0778,0.297469 -0.0399,0.715061 -0.26486,0.94005 -0.22265,0.222651 -0.31481,0.488447 -0.2048,0.590658 0.11,0.102211 0.25341,0.03627 0.31868,-0.146539 0.0653,-0.182808 0.24595,-0.253708 0.40153,-0.157557 0.17522,0.108293 0.2123,0.03341 0.0974,-0.196789 -0.10198,-0.204385 0.0132,-0.103719 0.25597,0.223703 0.55593,0.749777 0.56811,0.74677 0.53585,-0.132292 z"
       id="path28310" />
    <path
       style="fill:#779459"
       d="m 202.6908,56.183619 c 0,-0.307469 -0.75457,-0.48602 -0.84957,-0.201031 -0.0495,0.148512 -0.32508,0.0026 -0.6124,-0.324311 -0.45388,-0.516376 -0.46208,-0.57234 -0.0625,-0.426672 0.49264,0.179592 0.53708,-0.388803 0.0869,-1.110999 -0.172,-0.275909 -0.13596,-0.3153 0.13995,-0.152957 0.20439,0.120259 0.13348,-0.06013 -0.15756,-0.400858 -0.4613,-0.540066 -0.46979,-0.597858 -0.0661,-0.45066 0.25466,0.09287 0.46302,0.07326 0.46302,-0.04356 0,-0.328842 -2.09206,-3.26106 -2.87366,-4.027704 -0.96724,-0.94873 -3.45818,-2.622438 -3.90291,-2.622438 -0.545,0 -0.44457,0.618132 0.16198,0.99693 0.29105,0.181759 0.52917,0.557849 0.52917,0.835755 0,0.713844 0.28226,1.362619 0.52702,1.211351 0.11384,-0.07036 0.19066,0.07046 0.17071,0.312936 -0.0199,0.242474 0.36829,0.717443 0.86275,1.055486 0.49447,0.338044 0.73259,0.616448 0.52917,0.618676 -0.29868,0.0033 -0.29348,0.05341 0.027,0.260532 0.21828,0.141064 0.28682,0.258304 0.15231,0.260532 -0.1345,0.0022 0.0337,0.300221 0.37375,0.662206 0.51261,0.545651 0.6901,0.602185 1.03831,0.330729 0.36133,-0.281686 0.37447,-0.269004 0.0941,0.09079 -0.27395,0.351512 -0.11654,0.648416 0.98694,1.861532 0.76257,0.838335 1.53688,1.443318 1.84729,1.443318 0.29393,0 0.53442,-0.08081 0.53442,-0.179579 z"
       id="path28309" />
    <path
       style="fill:#779459"
       d="m 198.72205,67.192215 c 0,-0.218281 -0.0893,-0.399522 -0.19844,-0.402758 -0.10914,-0.0032 -0.4877,-0.228232 -0.84125,-0.499992 l -0.64282,-0.494108 0.84126,0.09795 c 0.46269,0.05387 0.84125,0.03655 0.84125,-0.03848 0,-0.370802 -0.88184,-1.417517 -1.08727,-1.290554 -0.40083,0.247723 -0.25938,-0.428828 0.18192,-0.870124 0.32611,-0.326106 0.40374,-0.336455 0.35444,-0.04725 -0.0988,0.579552 0.49872,1.822105 0.9616,1.99973 0.23025,0.08835 0.55946,0.0082 0.73157,-0.178013 0.24813,-0.26851 0.21094,-0.302567 -0.17953,-0.164423 -0.381,0.134791 -0.45483,0.07612 -0.32616,-0.259178 0.18695,-0.487196 -0.30529,-1.23254 -0.66655,-1.00927 -0.12903,0.07975 -0.23657,-0.07039 -0.23897,-0.333643 -0.002,-0.263249 -0.50842,-0.961706 -1.12448,-1.552126 -1.26594,-1.213254 -2.20715,-1.866644 -1.46422,-1.016468 0.30943,0.354102 0.37257,0.636411 0.20248,0.905377 -0.20463,0.3236 -0.24784,0.305876 -0.25119,-0.103034 -0.003,-0.38347 -0.15191,-0.4656 -0.66551,-0.367419 -0.61619,0.117792 -0.80387,-0.12288 -0.70125,-0.899276 0.0126,-0.09518 -0.12649,-0.297018 -0.30904,-0.448521 -0.24882,-0.206502 -0.34476,-0.120102 -0.38327,0.345135 -0.0323,0.390214 0.26594,0.945107 0.80339,1.494764 0.47011,0.480793 0.62354,0.701016 0.34094,0.489385 -0.45282,-0.339109 -0.48554,-0.337674 -0.27565,0.01209 0.78233,1.303668 1.88919,2.875628 2.46848,3.505729 0.36792,0.400182 0.57256,0.727604 0.45475,0.727604 -0.1178,0 -0.066,0.178594 0.11519,0.396875 0.18116,0.218282 0.49339,0.396875 0.69385,0.396875 0.20047,0 0.36448,-0.178593 0.36448,-0.396875 z"
       id="path28308" />
    <path
       style="fill:#779459"
       d="m 204.13604,63.554195 c 0.11987,-2.868959 0.0867,-4.167188 -0.1064,-4.167188 -0.15428,0 -0.28051,-0.205085 -0.28051,-0.455746 0,-0.398601 -0.0448,-0.390308 -0.35711,0.06615 -0.25107,0.366925 -0.35683,1.464657 -0.35618,3.696892 7.7e-4,2.669386 0.0357,2.94326 0.21918,1.719791 0.12005,-0.800364 0.14589,-2.25888 0.0574,-3.241145 -0.11914,-1.322874 -0.0766,-1.785938 0.16416,-1.785938 0.24778,0 0.30305,1.064243 0.23262,4.479463 -0.0508,2.463705 -0.0147,4.338939 0.0802,4.167188 0.0949,-0.171752 0.25089,-2.18751 0.34665,-4.479463 z"
       id="path28307" />
    <path
       style="fill:#779459"
       d="m 210.94716,63.288861 c -0.19446,-0.234313 -0.16184,-0.486373 0.11128,-0.859895 0.21252,-0.29063 0.47056,-0.517582 0.57344,-0.504339 0.496,0.06385 1.08825,-0.247094 0.93694,-0.491914 -0.0988,-0.159867 -0.0421,-0.196206 0.13521,-0.08663 0.20784,0.128447 0.0377,0.521907 -0.53257,1.231505 -0.96099,1.195834 -0.86732,1.141412 -1.2243,0.711272 z"
       id="path28306" />
    <path
       style="fill:#779459"
       d="m 205.35699,71.578193 c 0.42537,-0.425369 0.78279,-1.050447 0.79428,-1.389063 0.0115,-0.338616 0.0834,-0.459558 0.15973,-0.268761 0.10789,0.269562 0.25071,0.245673 0.64057,-0.107153 0.54505,-0.493258 0.69199,-1.050025 0.19627,-0.743652 -0.19078,0.117906 -0.23358,0.07248 -0.11401,-0.120993 0.1053,-0.170378 0.29631,-0.244971 0.42448,-0.165761 0.25167,0.155543 0.85462,-0.775058 0.64075,-0.988937 -0.0712,-0.07116 0.075,-0.295171 0.32468,-0.497809 0.30044,-0.243783 0.38683,-0.256539 0.25536,-0.0377 -0.48783,0.811995 0.12572,0.207739 1.07461,-1.058333 0.84891,-1.132663 1.00219,-1.511157 0.83046,-2.050521 -0.20503,-0.643904 -0.20818,-0.641974 -0.11868,0.07273 0.078,0.622507 0.0143,0.709534 -0.41871,0.572111 -0.35099,-0.111399 -0.48469,-0.04896 -0.42759,0.199672 0.0876,0.381609 -0.2249,0.495913 -0.77683,0.284118 -0.54374,-0.208652 -0.38438,-0.493764 0.66146,-1.183443 1.07397,-0.708228 1.71656,-0.705707 1.46835,0.0058 -0.22961,0.658143 1.54305,-1.298429 2.70531,-2.985986 0.5542,-0.80466 0.92793,-1.542709 0.83054,-1.640107 -0.24591,-0.24591 -2.71994,0.947169 -3.28427,1.583809 -0.45161,0.509477 -0.44667,0.514583 0.1983,0.204823 0.6057,-0.290901 0.62026,-0.284526 0.17272,0.07562 -0.26881,0.216314 -0.67643,0.321274 -0.90583,0.233245 -0.30858,-0.118413 -0.37288,-0.04485 -0.24717,0.282756 0.1561,0.40679 -0.0894,0.572442 -0.69303,0.467586 -0.11996,-0.02084 -0.14898,0.07395 -0.0645,0.210653 0.0845,0.136697 0.0427,0.288475 -0.0928,0.337284 -0.13551,0.04881 -0.28508,0.267338 -0.33238,0.485619 -0.10106,0.466452 -0.98035,1.178203 -1.19293,0.965628 -0.21633,-0.216327 -0.83663,0.480109 -1.14125,1.281317 -0.24588,0.646705 -0.22108,0.686697 0.3297,0.531761 0.33129,-0.09319 0.46398,-0.07179 0.29902,0.04823 -0.1631,0.118673 -0.25747,0.571772 -0.20971,1.006886 0.0537,0.489615 0.004,0.657622 -0.12965,0.440836 -0.16993,-0.274953 -0.25419,-0.252018 -0.39183,0.106649 -0.0964,0.251311 -0.24903,0.383233 -0.3391,0.293162 -0.0901,-0.09007 -0.0132,-0.345239 0.17091,-0.567036 0.18408,-0.221798 0.23081,-0.405093 0.10385,-0.407321 -0.12696,-0.0022 -0.0522,-0.119467 0.16604,-0.260532 0.35278,-0.227982 0.35278,-0.256302 0,-0.254882 -0.48218,0.0019 -1.7069,1.698913 -1.95027,2.702278 -0.0971,0.400182 -0.29327,0.727604 -0.43602,0.727604 -0.14274,0 -0.46873,0.20836 -0.7244,0.463021 -0.44331,0.441562 -0.43412,0.4916 0.19844,1.079678 0.36481,0.339162 0.52269,0.545579 0.35085,0.458705 -0.17185,-0.08687 -0.38723,-0.03695 -0.47864,0.110947 -0.37126,0.600712 0.75265,0.21575 1.4729,-0.504498 z"
       id="path28305" />
    <path
       style="fill:#779459"
       d="m 203.94788,81.54586 c 0.37699,-0.473095 0.22975,-7.155259 -0.16054,-7.285353 -0.16653,-0.05551 -0.30461,0.05782 -0.30684,0.251847 -0.003,0.264641 -0.0684,0.253623 -0.26155,-0.0441 -0.24897,-0.383738 -0.32225,6.746825 -0.0741,7.209895 0.15918,0.29703 0.50652,0.239809 0.80303,-0.132292 z"
       id="path28304" />
    <path
       style="fill:#779459"
       d="m 203.0083,82.088256 c -0.21597,-0.215975 -0.3175,-1.473986 -0.3175,-3.934187 v -3.616688 l -1.12448,-1.409655 c -1.26162,-1.581576 -2.23872,-2.969813 -5.85373,-8.316761 -3.31989,-4.91045 -3.55644,-5.914906 -1.17517,-4.990189 1.63714,0.635748 3.1282,1.923771 4.77688,4.126415 1.50828,2.015067 3.3071,5.386999 3.02453,5.669563 -0.0908,0.09084 -0.54196,-0.655647 -1.00249,-1.658856 -0.77383,-1.685688 -0.85411,-1.773853 -1.05864,-1.162558 -0.16056,0.479886 -0.18077,0.370942 -0.0736,-0.396875 l 0.14768,-1.058333 -0.55027,0.584249 c -0.61396,0.651882 -0.72479,1.007045 -0.21953,0.703494 0.25018,-0.150308 0.2475,-0.09594 -0.0111,0.223238 -0.2793,0.344819 -0.2793,0.450816 0,0.579956 0.27146,0.125509 0.27339,0.189889 0.009,0.312911 -0.18281,0.08519 -0.24925,0.293549 -0.14765,0.463021 0.1016,0.169472 -0.0196,0.142336 -0.26933,-0.0603 -0.24973,-0.202637 -0.5235,-0.298987 -0.60838,-0.214109 -0.19127,0.191269 1.26749,2.288906 1.59718,2.296684 0.1317,0.0031 0.0421,-0.212372 -0.19901,-0.478843 -0.24116,-0.26647 -0.35883,-0.564127 -0.2615,-0.661458 0.0973,-0.09733 0.037,-0.176966 -0.13395,-0.176966 -0.23806,0 -0.23798,-0.116808 3.4e-4,-0.498411 0.17119,-0.274126 0.57749,-0.482485 0.90289,-0.463021 0.3254,0.01946 0.53516,0.126859 0.46613,0.238653 -0.069,0.111795 0.12044,0.601193 0.42102,1.087551 l 0.54652,0.884289 -0.64263,-0.122847 c -0.54635,-0.104442 -0.62082,-0.03945 -0.49706,0.433803 0.0801,0.306157 0.25777,0.556649 0.3949,0.556649 0.13714,0 0.19153,-0.09355 0.12086,-0.207886 -0.0707,-0.114338 0.0943,-0.207887 0.36661,-0.207887 0.3543,0 0.42036,0.09003 0.23231,0.316623 -0.17415,0.209837 -0.17337,0.371878 0.002,0.480454 0.55305,0.341804 0.80466,-2.030267 0.79843,-7.527207 -0.008,-6.632833 -0.007,-6.626504 -0.26631,-6.466396 -0.25183,0.155645 -3.89216,-3.830629 -5.77336,-6.322024 -1.68929,-2.237234 -2.73429,-4.39013 -2.35708,-4.856022 0.67373,-0.832123 4.47069,1.863048 6.3056,4.475864 0.72485,1.032151 1.31791,2.045064 1.31791,2.250917 0,0.205854 0.17859,0.552873 0.39688,0.771155 0.21828,0.218281 0.39687,0.520171 0.39687,0.670867 0,0.150695 -0.17859,0.205459 -0.39687,0.121696 -0.24704,-0.09479 -0.39688,0.0017 -0.39688,0.255677 0,0.241831 0.18349,0.372634 0.45057,0.321199 0.40617,-0.07822 0.45686,-0.673432 0.51428,-6.038671 l 0.0637,-5.951899 -1.8222,-1.5875 c -1.74929,-1.523989 -2.40611,-2.526704 -1.38916,-2.120733 0.25466,0.101662 0.73927,0.218008 1.0769,0.258546 0.65151,0.07822 0.69544,0.114216 1.58979,1.302556 0.31595,0.419807 0.58184,0.657932 0.59086,0.529167 0.009,-0.128765 0.0102,-1.365213 0.003,-2.747661 -0.0125,-2.290792 0.41039,-5.51481 0.48301,-3.682117 0.0171,0.432557 0.17926,0.683507 0.44157,0.683507 0.51527,0 0.2745,-1.253313 -0.30326,-1.578599 -0.2067,-0.116372 -0.38962,-0.473559 -0.4065,-0.79375 -0.0243,-0.461059 -0.0562,-0.484003 -0.1534,-0.110294 -0.109,0.419174 -0.17944,0.39974 -0.63077,-0.174024 -0.60849,-0.773574 -0.66657,-1.155649 -0.10479,-0.689416 0.5658,0.469576 0.70082,0.229846 0.77605,-1.377881 0.14333,-3.063399 0.13607,-3.017232 0.40818,-2.596175 0.21746,0.336498 0.2571,0.324059 0.26053,-0.08176 0.002,-0.263249 0.12124,-0.406211 0.26447,-0.317691 0.37988,0.234778 0.18866,3.645245 -0.21187,3.778755 -0.23204,0.07735 -0.15576,0.38841 0.26405,1.076714 0.38624,0.633273 0.44494,0.851256 0.16978,0.630459 -0.34618,-0.277781 -0.44777,-0.26663 -0.57427,0.06304 -0.10497,0.273552 -0.01,0.378109 0.29983,0.329828 0.65379,-0.101906 1.14534,-0.453665 0.98852,-0.707398 -0.0743,-0.120217 0.0428,-0.286847 0.26027,-0.370289 0.53728,-0.206174 0.49908,0.337046 -0.0677,0.962249 -0.37919,0.418297 -0.47875,1.125921 -0.54989,3.908241 -0.0602,2.352814 -0.19139,3.4842 -0.42678,3.679556 -0.26639,0.221087 -0.31083,0.130039 -0.20549,-0.421001 0.0928,-0.485581 0.0407,-0.645173 -0.16854,-0.515866 -0.16662,0.102977 -0.30295,0.620523 -0.30295,1.150102 v 0.962872 l 1.95497,-2.032577 c 1.91585,-1.991906 1.95715,-2.017711 2.06401,-1.289606 0.11035,0.751884 -0.35294,1.486395 -0.72591,1.150868 -0.1116,-0.100393 -0.12315,-0.04324 -0.0257,0.127009 0.0975,0.170249 -0.0974,0.527436 -0.43305,0.79375 -0.33565,0.266314 -0.87426,0.843161 -1.1969,1.281882 -0.55482,0.754435 -0.58875,1.077815 -0.62602,5.965635 -0.0262,3.437139 0.061,5.340995 0.26029,5.684616 0.16483,0.284162 0.30332,0.367829 0.30775,0.185928 0.004,-0.181901 0.19474,-0.330729 0.42293,-0.330729 0.3434,0 0.3175,0.136778 -0.15031,0.79375 -0.62781,0.881682 -0.55016,1.041538 0.16064,0.330729 0.25467,-0.254661 0.59059,-0.465893 0.74651,-0.469403 0.15591,-0.0035 0.26851,-0.202454 0.25022,-0.442098 -0.0183,-0.239643 0.10077,-0.38685 0.26458,-0.327126 0.4011,0.146234 0.98161,-0.247959 1.04985,-0.712893 0.0304,-0.207457 0.26624,-0.612257 0.52398,-0.899556 0.65952,-0.73514 2.34671,-3.367958 2.40686,-3.755849 0.0276,-0.177689 0.15201,-0.415814 0.27657,-0.529166 0.12458,-0.113377 0.12947,-0.03891 0.0109,0.165514 -0.14183,0.244469 -0.11503,0.309462 0.0783,0.189964 0.16165,-0.0999 0.22497,-0.361295 0.14071,-0.580867 -0.0843,-0.219572 -0.0493,-0.364587 0.0777,-0.322256 0.24049,0.08017 0.36318,-0.122567 0.36318,-0.600108 0,-0.158409 -0.14375,-0.190029 -0.33073,-0.07275 -0.1819,0.114097 -0.52854,0.174958 -0.77031,0.135246 -0.24177,-0.03971 -0.52805,0.07095 -0.63619,0.245922 -0.12461,0.201618 -0.0847,0.248985 0.10885,0.129337 0.16801,-0.103833 0.30547,-0.04996 0.30547,0.119719 0,0.177333 -0.18465,0.237649 -0.43428,0.141859 -0.29302,-0.112446 -0.80871,0.201053 -1.58551,0.96388 -1.101,1.0812 -1.52523,1.780928 -0.82448,1.359935 0.23583,-0.141683 0.22929,-0.07357 -0.0228,0.237379 -0.19443,0.239841 -0.27618,0.561193 -0.18167,0.714116 0.0945,0.152923 -0.0143,0.349471 -0.2418,0.436772 -0.22751,0.0873 -0.41744,0.354352 -0.42206,0.593444 -0.007,0.378681 -0.0561,0.371737 -0.3786,-0.05388 -0.34206,-0.451477 -0.39505,-0.401233 -0.69764,0.661458 -0.39082,1.372518 -0.76743,1.892776 -0.76743,1.060133 0,-1.46091 2.73649,-5.127644 5.01449,-6.719128 1.66057,-1.16012 2.64096,-1.31148 2.59641,-0.400852 -0.0328,0.671479 -3.69573,6.369623 -6.18354,9.619387 l -1.642,2.144909 -0.1067,5.32957 c -0.0587,2.931263 -0.0104,5.32957 0.10732,5.32957 0.11771,0 0.21402,-0.173354 0.21402,-0.385232 0,-0.577956 1.47789,-2.977117 2.96587,-4.814682 1.46252,-1.806137 3.70669,-3.598083 5.45658,-4.357037 3.12958,-1.357337 2.51899,0.04687 -3.02984,6.967885 -1.55,1.933309 -3.42719,4.219854 -4.17154,5.08121 l -1.35336,1.566103 -0.1323,3.263102 c -0.0728,1.794706 -0.1052,3.26285 -0.0721,3.262543 0.0331,-3.08e-4 1.04263,-1.023895 2.24339,-2.274639 1.20077,-1.250744 2.49336,-2.494926 2.87243,-2.764848 0.8899,-0.633664 1.81648,-0.430315 1.66496,0.365394 -0.10569,0.555022 -0.10098,0.554326 0.1545,-0.02282 0.35693,-0.806331 1.00818,-0.76672 1.00818,0.06132 0,0.361148 -0.0969,0.596769 -0.21525,0.523602 -0.11839,-0.07317 -0.33801,0.07783 -0.48805,0.335555 -0.15004,0.257722 -0.27642,0.363232 -0.28084,0.234466 -0.004,-0.128765 -0.25814,0.08382 -0.56381,0.472411 -0.40664,0.516961 -0.70835,0.663865 -1.12448,0.547517 -0.45106,-0.126119 -0.48661,-0.101532 -0.17184,0.118849 0.36245,0.253765 0.19196,0.40496 -0.3504,0.310744 -0.11996,-0.02084 -0.14715,0.07692 -0.0604,0.217238 0.0867,0.140319 -0.0859,0.236774 -0.38372,0.214344 -0.34029,-0.02563 -0.48984,-0.175142 -0.40259,-0.402502 0.0763,-0.198946 0.1388,-0.543826 0.1388,-0.7664 0,-0.3164 0.19495,-0.368109 0.89364,-0.237034 0.75116,0.140919 0.91594,0.08238 1.0335,-0.367166 0.17387,-0.664913 -0.23455,-0.951931 -0.7481,-0.525721 -0.29227,0.242559 -0.38529,0.244288 -0.38529,0.0072 0,-0.171927 -0.121,-0.23781 -0.2689,-0.146406 -0.14789,0.0914 -0.18902,0.29542 -0.0914,0.45337 0.1064,0.17215 0.0542,0.211008 -0.13021,0.09701 -0.17696,-0.109364 -0.39473,0.0138 -0.51252,0.289849 -0.71678,1.679823 -1.40221,2.363126 -2.2381,2.231143 -0.10914,-0.01723 -0.19844,0.213819 -0.19844,0.513449 0,0.29963 -0.10106,0.482323 -0.22458,0.405985 -0.12352,-0.07634 -0.23461,0.214291 -0.24688,0.645843 -0.0279,0.979679 0.27145,0.999014 0.88291,0.05704 0.25977,-0.400182 0.69217,-0.884579 0.96089,-1.076436 0.27121,-0.193627 0.40517,-0.487929 0.30109,-0.661459 -0.10703,-0.178452 0.005,-0.156778 0.26016,0.0505 0.64088,0.519859 0.56487,0.711585 -0.47838,1.206641 -0.96235,0.456665 -1.27106,0.787053 -0.46302,0.495542 0.89676,-0.32352 1.92242,-1.183021 1.74817,-1.464962 -0.11032,-0.178489 -0.0509,-0.20774 0.15876,-0.07816 0.18427,0.113888 0.41103,0.09639 0.5039,-0.03889 0.0929,-0.135277 0.7344,-0.646964 1.42563,-1.137083 0.69122,-0.490119 1.25677,-0.983507 1.25677,-1.096419 0,-0.112912 0.31863,-0.360619 0.70806,-0.55046 0.38944,-0.189842 0.72678,-0.464229 0.74966,-0.60975 0.0229,-0.145521 -0.008,-0.175287 -0.0687,-0.06615 -0.0606,0.109141 -0.24915,0.194476 -0.41892,0.189635 -0.16978,-0.0048 -0.0284,-0.242328 0.31419,-0.527748 0.34258,-0.285421 0.74976,-0.440522 0.90486,-0.344669 0.17863,0.110399 0.21812,0.0079 0.10776,-0.279744 -0.0958,-0.249711 -0.0759,-0.39327 0.0442,-0.31902 0.40229,0.248631 1.35034,-0.626403 1.17467,-1.084202 -0.11118,-0.289718 -0.0637,-0.369721 0.14337,-0.241728 0.17025,0.105221 0.30955,0.354797 0.30955,0.554614 0,0.460048 -3.41312,3.54134 -6.35,5.732649 -4.81733,3.594372 -5.80746,4.099107 -6.56167,3.3449 z"
       id="path28303" />
    <path
       style="fill:#779459"
       d="m 184.44117,64.017215 c 0.26437,0.64878 0.0678,-1.495474 -0.43649,-4.762499 -0.20218,-1.309688 -0.51393,-3.631406 -0.69277,-5.159375 -0.17885,-1.527969 -0.36577,-2.420937 -0.41538,-1.984375 -0.1319,1.160742 -0.48025,1.351887 -0.67639,0.371152 -0.0938,-0.468901 -0.21594,-0.803764 -0.27146,-0.744141 -0.17867,0.191874 0.75965,5.318405 0.94036,5.137648 0.0959,-0.09588 0.23362,0.043 0.30614,0.308631 0.38126,1.396467 0.43327,1.938168 0.18608,1.938168 -0.14829,0 -0.26962,-0.257969 -0.26962,-0.573264 0,-0.315295 -0.055,-0.518302 -0.12214,-0.451126 -0.22112,0.221116 0.45556,5.257723 0.70639,5.257723 0.13483,0 0.18735,-0.208359 0.11671,-0.463021 -0.24022,-0.8659 -0.42962,-3.672132 -0.20004,-2.963778 0.40868,1.260964 0.61401,3.691383 0.31186,3.691383 -0.15599,0 -0.27607,0.26789 -0.26685,0.595312 0.0163,0.578824 0.0244,0.576992 0.29237,-0.06615 0.26239,-0.629755 0.28593,-0.636096 0.49123,-0.132292 z"
       id="path28302" />
    <path
       style="fill:#779459"
       d="m 179.57429,63.661647 c -0.0541,-0.09548 -0.0617,-0.411723 -0.017,-0.702765 0.0801,-0.521447 0.0757,-0.521674 -0.29885,-0.01558 -0.32342,0.436978 -0.38013,0.448234 -0.38013,0.07545 0,-0.539768 0.87249,-1.040628 1.43604,-0.824372 0.61049,0.234265 0.52781,1.335008 -0.11286,1.502545 -0.29089,0.07607 -0.57313,0.06019 -0.62719,-0.03529 z"
       id="path28301" />
    <path
       style="fill:#779459"
       d="m 182.8045,66.200028 c -0.13236,-0.254662 -0.41505,-0.463021 -0.62822,-0.463021 -0.50692,0 -0.48964,-0.242412 0.0606,-0.850448 0.39657,-0.438207 0.39892,-0.476338 0.0205,-0.331106 -0.23525,0.09028 -0.49273,0.333523 -0.57217,0.540553 -0.1912,0.498251 -0.69022,0.483461 -0.69022,-0.02046 0,-0.218281 -0.0992,-0.396875 -0.22049,-0.396875 -0.12126,0 -0.22048,-0.183718 -0.22048,-0.408261 0,-0.239169 0.1518,-0.350008 0.36652,-0.267614 0.20158,0.07736 0.29377,0.02295 0.20487,-0.120906 -0.0889,-0.143854 -0.0356,-0.261552 0.11855,-0.261552 0.15411,0 0.2802,0.178593 0.2802,0.396874 0,0.218282 0.11286,0.396875 0.25082,0.396875 0.3847,0 -0.16504,-1.353317 -0.89466,-2.202432 -0.34955,-0.406795 -0.82945,-1.000399 -1.06644,-1.319118 -0.237,-0.31872 -0.34665,-0.400897 -0.24369,-0.182616 0.10297,0.218281 -0.12964,0.10823 -0.51691,-0.244558 -0.38727,-0.352788 -0.70412,-0.771415 -0.70412,-0.930282 0,-0.406131 -2.51348,-2.006606 -3.09297,-1.969468 -0.44237,0.02835 -0.44358,0.03993 -0.0159,0.151692 0.25466,0.06655 0.46302,0.222828 0.46302,0.347284 0,0.124457 0.19277,0.419052 0.42838,0.654658 0.2356,0.235605 0.34441,0.512 0.2418,0.614211 -0.10261,0.102211 -0.41444,-0.09524 -0.69295,-0.438786 -0.50173,-0.618873 -0.65542,-0.468469 -0.3458,0.338401 0.0883,0.230183 0.3463,0.418515 0.57327,0.418515 0.22696,0 0.34307,0.06959 0.25801,0.154653 -0.0851,0.08506 0.009,0.352949 0.20799,0.595312 0.19945,0.242363 1.03706,1.274097 1.86134,2.292743 0.82428,1.018646 2.16771,2.536949 2.9854,3.374008 1.23012,1.259274 1.51584,1.441919 1.65556,1.058333 0.0929,-0.254975 0.0606,-0.671951 -0.0718,-0.926612 z"
       id="path28300" />
    <path
       style="fill:#779459"
       d="m 187.6815,78.70159 c 0.35334,0 2.04472,-1.587885 2.04472,-1.919601 0,-0.125563 -0.13746,-0.143342 -0.30547,-0.03951 -0.19077,0.117906 -0.23358,0.07248 -0.114,-0.120992 0.1053,-0.170379 0.29488,-0.245857 0.42129,-0.167729 0.12642,0.07813 0.44561,-0.16549 0.70932,-0.541374 0.26372,-0.375884 0.75591,-1.03074 1.09376,-1.455235 0.33842,-0.425215 0.52799,-0.911417 0.42214,-1.082691 -0.10928,-0.176821 -0.0786,-0.240684 0.0712,-0.148097 0.14487,0.08953 0.53658,-0.206725 0.87048,-0.658346 0.33389,-0.45162 0.47325,-0.738417 0.30969,-0.637327 -0.18983,0.117319 -0.24062,0.03583 -0.14042,-0.225296 0.0864,-0.225003 0.26358,-0.343223 0.39385,-0.26271 0.13027,0.08051 0.23686,0.09437 0.23686,0.03079 0,-0.06358 0.17864,-0.543133 0.39697,-1.065681 0.35176,-0.841885 0.35193,-0.932805 0.002,-0.798338 -0.2175,0.08346 -0.32003,0.273782 -0.22785,0.422933 0.094,0.152053 0.006,0.214124 -0.19996,0.141295 -0.42299,-0.149479 -2.22005,0.689365 -2.53618,1.183857 -0.11694,0.182925 -0.45075,0.46334 -0.74179,0.623145 -0.29104,0.159804 -0.66026,0.548866 -0.82049,0.864581 -0.16022,0.315715 -0.38767,0.661216 -0.50544,0.767779 -0.11777,0.106564 -0.11265,0.01516 0.0114,-0.203123 0.19439,-0.342126 0.16375,-0.346782 -0.22216,-0.03375 -0.45332,0.367714 -0.62467,0.703542 -0.2366,0.463697 0.11609,-0.07175 0.38398,-0.02107 0.59531,0.112625 0.30165,0.190826 0.25941,0.243945 -0.1965,0.247126 -0.66477,0.0046 -2.83007,2.792225 -2.61144,3.361951 0.0717,0.186955 0.0454,0.327248 -0.0585,0.311761 -0.55985,-0.08345 -0.61787,0.08968 -0.18892,0.563672 0.46618,0.515123 0.46201,0.529612 -0.15743,0.545938 l -0.63632,0.01677 0.61975,0.248325 c 0.34086,0.13658 0.72782,0.181537 0.8599,0.09991 0.13208,-0.08163 0.25636,0.0074 0.27618,0.197925 0.0198,0.190489 0.0876,0.07845 0.15069,-0.248969 0.0631,-0.327422 0.24954,-0.595312 0.41439,-0.595312 z"
       id="path28299" />
    <path
       style="fill:#779459"
       d="m 185.14383,81.052979 c -0.0943,-0.360405 0.01,-0.499306 0.37383,-0.499306 0.58403,0 0.64269,0.268246 0.17366,0.794219 -0.28274,0.317069 -0.26145,0.318307 0.14674,0.0085 0.26261,-0.199295 0.6046,-0.610271 0.75999,-0.913281 0.22874,-0.446043 0.21767,-0.489717 -0.0582,-0.229405 -0.26907,0.253936 -0.41905,0.226128 -0.71347,-0.132292 -0.20503,-0.249597 -0.28581,-0.28623 -0.1795,-0.08141 0.14625,0.281791 0.0544,0.33608 -0.37762,0.223112 -0.314,-0.08211 -0.50418,-0.04134 -0.42263,0.09061 0.0816,0.13195 0.0361,0.239909 -0.10107,0.239909 -0.37348,0 -0.56635,1.016034 -0.21682,1.142235 0.48698,0.175832 0.75569,-0.105068 0.61504,-0.642929 z"
       id="path28298" />
    <path
       style="fill:#779459"
       d="m 183.79944,81.490738 c -0.39441,-0.517093 -2.44932,-2.636112 -4.56647,-4.70893 -3.60425,-3.528775 -5.66763,-5.871352 -6.41093,-7.278414 -0.69464,-1.314942 1.42336,-1.09513 3.9037,0.405137 2.54847,1.541477 5.82303,5.093044 6.56335,7.118561 0.16803,0.459713 0.14851,0.458989 -0.39093,-0.01451 -0.31229,-0.27411 -0.52241,-0.571825 -0.46693,-0.661589 0.0555,-0.08976 -0.19852,-0.520336 -0.56444,-0.956827 -0.36592,-0.43649 -0.57432,-0.626394 -0.4631,-0.422009 0.13417,0.246581 0.0994,0.308092 -0.10326,0.182822 -0.168,-0.103832 -0.30728,-0.44965 -0.30951,-0.768484 -0.003,-0.471285 -0.052,-0.505476 -0.26053,-0.182823 -0.22799,0.352778 -0.26042,0.352778 -0.29187,0 -0.0195,-0.218281 -0.0251,-0.47465 -0.0126,-0.569709 0.0125,-0.09506 -0.6336,-0.768593 -1.43585,-1.496742 -1.04544,-0.94887 -1.64206,-1.303773 -2.10612,-1.252833 -0.3561,0.03909 -0.7972,-0.120813 -0.98021,-0.355342 -0.29141,-0.373434 -0.27815,-0.383727 0.10672,-0.08284 0.25647,0.20051 0.50339,0.240146 0.59298,0.09519 0.18239,-0.295124 -1.57675,-1.183891 -2.03656,-1.028926 -0.17534,0.05909 -0.47089,-0.0816 -0.65677,-0.312656 -0.28737,-0.357205 -0.3204,-0.29049 -0.2206,0.445624 0.0645,0.476147 0.35375,1.130991 0.64266,1.455208 0.28891,0.324218 1.03915,1.166668 1.66719,1.872111 0.62804,0.705443 1.18511,1.15299 1.23792,0.99455 0.0614,-0.184249 0.23748,-0.146619 0.48851,0.104408 0.21586,0.215866 0.32796,0.496876 0.24911,0.624468 -0.16291,0.263582 1.6796,2.259053 1.89083,2.047816 0.0755,-0.07553 -0.2348,-0.450456 -0.68963,-0.83317 -0.62361,-0.52473 -0.768,-0.801207 -0.58718,-1.124312 0.16749,-0.299298 0.10767,-0.535902 -0.19845,-0.784835 -0.38075,-0.309623 -0.35943,-0.318142 0.16255,-0.06495 0.33043,0.160279 0.71738,0.219351 0.8599,0.131273 0.44637,-0.275876 0.28205,0.192855 -0.18815,0.536669 -0.38054,0.278258 -0.3016,0.315487 0.52917,0.249569 0.88468,-0.07019 0.97643,-0.01561 0.97643,0.58092 0,0.362117 -0.17969,0.838082 -0.39931,1.057701 -0.43209,0.432089 -0.27645,1.007636 0.19388,0.716956 0.18456,-0.114061 0.20979,-0.05226 0.0706,0.172939 -0.15857,0.25657 -0.095,0.303763 0.23745,0.176202 0.24971,-0.09582 0.38898,-0.069 0.3095,0.0596 -0.0795,0.128605 0.0409,0.304994 0.26761,0.391975 0.22667,0.08698 0.34872,0.260744 0.27122,0.38614 -0.0775,0.125396 0.1371,0.489165 0.47689,0.808376 l 0.61779,0.580384 -0.0384,-0.60807 c -0.0366,-0.580484 0.25967,-0.992175 0.72031,-1.000893 0.11773,-0.0022 0.1291,0.133407 0.0253,0.301412 -0.10745,0.173862 -0.0735,0.234193 0.0789,0.140037 0.256,-0.158213 0.23234,-4.99107 -0.0409,-8.363385 -0.11297,-1.394158 -0.18097,-1.50107 -2.35595,-3.704167 -2.98715,-3.025764 -7.04943,-8.179957 -7.04943,-8.94426 0,-1.395867 2.6955,-0.259108 5.11359,2.156526 1.7284,1.726646 3.70586,4.429655 3.70586,5.065572 0,0.208797 0.0874,0.37963 0.19415,0.37963 0.10679,0 0.13988,-0.446484 0.0735,-0.992187 -0.0663,-0.545703 -0.23053,-1.944687 -0.36488,-3.108854 -0.46457,-4.025676 -1.28153,-9.390829 -1.4785,-9.70952 -0.0868,-0.140385 -0.5208,-0.476029 -0.96452,-0.745876 -0.77564,-0.471691 -1.28899,-1.847728 -0.68932,-1.847728 0.14418,0 0.19132,0.114604 0.10475,0.254676 -0.0898,0.145243 0.1778,0.230511 0.62269,0.198438 0.63783,-0.04598 0.724,-0.124329 0.47251,-0.429618 -0.25531,-0.309932 -0.18133,-0.349388 0.43538,-0.232193 0.57579,0.109418 0.70974,0.05461 0.59531,-0.243573 -0.0812,-0.211618 -0.14946,-0.702444 -0.15169,-1.090724 -0.003,-0.555962 -0.0593,-0.621637 -0.26422,-0.30909 -0.18538,0.282804 -0.2132,0.152067 -0.0968,-0.454857 0.0898,-0.468452 0.0717,-1.063765 -0.0403,-1.322916 -0.31761,-0.734685 -0.36127,-1.132643 -0.12426,-1.132643 0.11949,0 0.35504,0.863203 0.52343,1.918229 0.16839,1.055026 0.47067,2.334948 0.67173,2.844271 0.33065,0.837589 0.36879,0.862861 0.39933,0.264583 0.0186,-0.363802 0.20281,-1.078177 0.40943,-1.5875 l 0.37567,-0.926042 -0.0759,0.973628 c -0.0418,0.535496 0.01,0.920507 0.11509,0.85558 0.41927,-0.259125 0.49765,0.454733 0.1106,1.007325 -0.55863,0.797559 -0.52141,1.980543 0.22752,7.230841 0.35185,2.46659 0.73294,5.258615 0.84688,6.204501 0.11696,0.970979 0.25196,1.431787 0.31005,1.058333 0.17063,-1.096927 1.67653,-4.551136 2.53766,-5.820833 1.8063,-2.663304 4.39694,-4.250048 4.39694,-2.693085 0,0.604644 -3.67396,8.103157 -3.87279,7.904326 -0.086,-0.08598 0.0984,-0.568395 0.40962,-1.072036 0.3901,-0.631204 0.46797,-0.948368 0.25062,-1.020819 -0.19811,-0.06604 -0.0837,-0.320921 0.30788,-0.685705 0.34276,-0.319329 0.48169,-0.580598 0.30873,-0.580598 -0.17297,0 -0.31448,-0.128984 -0.31448,-0.286632 0,-0.157647 0.14883,-0.236087 0.33073,-0.17431 0.48786,0.165685 1.44215,-1.597976 1.66242,-3.072389 0.18031,-1.206895 0.16189,-1.267016 -0.30532,-0.996649 -0.64422,0.3728 -1.68783,1.26763 -1.68783,1.447207 0,0.07683 -0.35719,0.530768 -0.79375,1.008742 -0.88465,0.968574 -0.9632,1.231866 -0.42867,1.436984 0.29968,0.114995 0.27881,0.318671 -0.11647,1.136794 -0.26485,0.548184 -0.66726,1.150827 -0.89425,1.339206 -0.478,0.396706 -0.56323,0.931147 -0.10315,0.6468 0.20157,-0.124572 0.25626,-0.05242 0.15678,0.206816 -0.084,0.218969 -0.0572,0.552739 0.0596,0.741711 0.15413,0.249395 0.32328,0.13402 0.61701,-0.420869 l 0.40466,-0.764453 -0.0727,0.95681 c -0.0692,0.910946 -1.66155,4.104107 -1.91851,3.847153 -0.13503,-0.13503 0.3249,-1.01755 1.03892,-1.993495 0.48744,-0.666248 0.63431,-1.49235 0.21977,-1.236151 -0.13379,0.08269 -0.41978,-0.02619 -0.63554,-0.241948 -0.34666,-0.346659 -0.44121,-0.270008 -0.81294,0.659027 -0.23136,0.578222 -0.48817,1.051312 -0.5707,1.051312 -0.0825,0 -0.0809,-0.111856 0.004,-0.24857 0.0845,-0.136714 -0.0739,-0.231434 -0.35192,-0.210489 -0.47312,0.03564 -0.47869,0.07906 -0.0868,0.677192 l 0.41876,0.639112 0.47794,-0.590226 c 0.26286,-0.324624 0.47794,-0.748602 0.47794,-0.942174 0,-0.193571 0.10983,-0.419827 0.24406,-0.502789 0.30166,-0.186436 -0.19344,1.709722 -0.56576,2.166762 -0.14667,0.180048 -0.19868,0.504553 -0.11557,0.721121 0.0831,0.216569 -0.036,0.84163 -0.26475,1.389026 -0.34212,0.818809 -0.3889,1.709578 -0.26387,5.024183 0.0991,2.628307 0.0577,4.087172 -0.11917,4.19649 -0.18252,0.112805 -0.24408,-1.440745 -0.18835,-4.75344 0.0455,-2.706558 -0.007,-4.920867 -0.11566,-4.920689 -0.10914,1.79e-4 -0.19843,0.476575 -0.19843,1.058658 0,1.132267 -0.41688,1.450248 -0.60703,0.463021 -0.0813,-0.422384 -0.12513,-0.340992 -0.15069,0.280198 -0.0198,0.481531 0.0672,0.811696 0.19342,0.733699 0.29562,-0.182701 0.57757,1.879471 0.51757,3.785531 l -0.0467,1.484426 -0.18017,-1.852084 c -0.15866,-1.630853 -0.17902,-1.488634 -0.17047,1.190625 0.005,1.67349 0.0577,3.183763 0.11629,3.356163 0.14092,0.414488 1.58304,-0.867482 1.81006,-1.609055 0.29379,-0.959685 2.41744,-3.757851 3.73606,-4.92272 1.45363,-1.284143 3.69563,-2.639107 4.37282,-2.642738 1.1051,-0.0059 0.17572,1.992557 -2.71198,5.831674 -1.62831,2.164801 -5.87138,7.130426 -6.09287,7.130426 -0.11762,0 -0.38373,0.06519 -0.59137,0.144868 -0.22906,0.0879 -0.65951,-0.224839 -1.09462,-0.795303 z"
       id="path28297" />
    <path
       style="fill:#8d7954"
       d="m 205.07205,52.65845 c 0,-0.859701 2.97903,-4.479072 4.70234,-5.713109 1.36727,-0.979079 2.70599,-1.377343 2.70599,-0.80502 0,0.135884 -0.28079,0.196144 -0.62399,0.13391 -1.15933,-0.210227 -3.70407,2.031141 -5.78188,5.092583 -0.55135,0.812368 -1.00246,1.393604 -1.00246,1.291636 z"
       id="path28183" />
    <path
       style="fill:#8d7954"
       d="m 208.67306,67.853676 c 0.14752,-0.218282 1.14736,-1.527969 2.22188,-2.910417 1.07452,-1.382448 1.98989,-2.563151 2.03414,-2.623784 0.0443,-0.06063 0.12917,-0.06063 0.1887,0 0.0595,0.06063 -0.84285,1.300868 -2.00529,2.756076 -1.97701,2.474936 -3.09481,3.747935 -2.43943,2.778125 z"
       id="path28180" />
    <path
       style="fill:#8d7954"
       d="m 186.72255,75.725029 c 1.36482,-2.228397 3.8055,-4.674824 5.57022,-5.583341 1.41316,-0.727527 1.35995,-0.48261 -0.0738,0.339762 -1.41017,0.808837 -3.24169,2.572929 -4.62699,4.456649 -0.7566,1.028812 -1.34218,1.558842 -0.86941,0.78693 z"
       id="path28177" />
    <path
       style="fill:#8d7954"
       d="m 204.3341,75.774529 -0.0558,-2.79477 0.8599,-0.777105 0.85989,-0.777106 -0.71766,0.797852 c -0.66865,0.743362 -0.72357,0.987306 -0.8041,3.571875 l -0.0864,2.774023 z"
       id="path28176" />
    <path
       style="fill:#627339"
       d="m 205.07205,52.65845 c 0,-0.859701 2.97903,-4.479072 4.70234,-5.713109 1.36727,-0.979079 2.70599,-1.377343 2.70599,-0.80502 0,0.135884 -0.28079,0.196144 -0.62399,0.13391 -1.15933,-0.210227 -3.70407,2.031141 -5.78188,5.092583 -0.55135,0.812368 -1.00246,1.393604 -1.00246,1.291636 z"
       id="path28145" />
    <path
       style="fill:#627339"
       d="m 208.67306,67.853676 c 0.14752,-0.218282 1.14736,-1.527969 2.22188,-2.910417 1.07452,-1.382448 1.98989,-2.563151 2.03414,-2.623784 0.0443,-0.06063 0.12917,-0.06063 0.1887,0 0.0595,0.06063 -0.84285,1.300868 -2.00529,2.756076 -1.97701,2.474936 -3.09481,3.747935 -2.43943,2.778125 z"
       id="path28141" />
    <path
       style="fill:#627339"
       d="m 186.72255,75.725029 c 1.36482,-2.228397 3.8055,-4.674824 5.57022,-5.583341 1.41316,-0.727527 1.35995,-0.48261 -0.0738,0.339762 -1.41017,0.808837 -3.24169,2.572929 -4.62699,4.456649 -0.7566,1.028812 -1.34218,1.558842 -0.86941,0.78693 z"
       id="path28138" />
    <path
       style="fill:#627339"
       d="m 204.3341,75.774529 -0.0558,-2.79477 0.8599,-0.777105 0.85989,-0.777106 -0.71766,0.797852 c -0.66865,0.743362 -0.72357,0.987306 -0.8041,3.571875 l -0.0864,2.774023 z"
       id="path28137" />
  </g>
</svg>
