<?xml version="1.0" encoding="UTF-8" standalone="no"?>
<!-- Created with Inkscape (http://www.inkscape.org/) -->

<svg
   width="185"
   height="185"
   viewBox="0 0 48.947914 48.947918"
   version="1.1"
   id="svg1"
   xmlns="http://www.w3.org/2000/svg"
   xmlns:svg="http://www.w3.org/2000/svg">
  <defs
     id="defs1" />
  <g
     id="layer1">
    <g
       id="g25110"
       transform="matrix(0.72914995,0,0,0.72914995,10.600856,-137.41617)"
       style="display:inline;stroke-width:1.37146">
      <path
         style="fill:#d6c5ac;stroke-width:1.37146"
         d="m 10.29513,255.43306 c -4.710293,-0.23004 -9.6572908,-0.96277 -9.6572908,-1.4304 0,-0.24613 1.9130479,-0.73254 4.1010414,-1.04273 1.0186458,-0.14442 4.0127223,-0.33974 6.6535034,-0.43406 4.575584,-0.16342 4.807479,-0.1478 4.930245,0.33217 0.07977,0.31186 0.140513,0.17993 0.159517,-0.34645 0.03351,-0.92805 -0.851055,-3.43132 -1.417075,-4.01026 -0.254607,-0.26042 -1.310996,-0.38489 -3.752774,-0.44217 -2.7306641,-0.0641 -3.8663066,-0.21693 -5.7796664,-0.778 -2.8694477,-0.84143 -6.19135088,-2.55999 -8.5012868,-4.39806 -1.6328733,-1.29932 -4.5955875,-4.51825 -4.5955875,-4.99302 0,-0.29302 2.8221612,-1.20998 4.9824558,-1.61885 2.01704624,-0.38177 6.1066725,-0.16712 8.362346,0.4389 2.4626671,0.66164 4.4840049,1.82291 6.5260329,3.74925 1.880629,1.7741 3.856476,4.29916 4.777191,6.10509 l 0.48739,0.95598 v -4.42157 -4.42157 h -0.809227 c -1.134685,0 -6.4993,-1.38639 -9.7704657,-2.52501 -3.3177404,-1.15483 -5.4302049,-2.18947 -7.54426504,-3.69501 -2.32448586,-1.6554 -6.74687466,-6.37834 -6.74687466,-7.20539 0,-0.44935 3.105771,-0.86208 6.48706015,-0.86208 3.69820435,0 5.76738595,0.43643 8.59287075,1.8124 3.1899005,1.55344 6.7513925,5.38341 8.8326895,9.49853 0.386398,0.76399 0.730303,1.38922 0.764231,1.3894 0.03393,1.9e-4 0.02655,-2.01698 -0.01639,-4.48261 l -0.07808,-4.48295 -1.509419,-0.42556 C 7.287693,225.3066 3.41533,223.27551 0.45373575,219.6638 c -1.20631612,-1.47113 -3.52006305,-5.90649 -3.52006305,-6.74783 0,-0.45273 0.7748532,-0.5209 5.0270831,-0.4423 5.8614367,0.10835 10.9441032,4.00849 14.4701522,11.10355 l 1.127038,2.2678 -0.05953,-4.32745 -0.05953,-4.32746 -1.5875,-0.59748 c -5.23742,-1.97117 -8.4169673,-4.16136 -10.4467261,-7.1961 -1.3222339,-1.97691 -2.514953,-5.11317 -2.8363898,-7.4583 l -0.1617459,-1.18007 1.8443908,0.17142 c 6.013058,0.55885 10.67501,4.16225 12.704292,9.81963 l 0.574655,1.60206 0.01581,-2.24895 0.01581,-2.24896 -1.451433,-2.22069 c -1.75357,-2.68296 -2.507631,-4.94906 -2.507631,-7.53594 0,-1.85467 0.592961,-4.55544 1.447229,-6.59171 l 0.420575,-1.0025 0.830649,0.47334 c 1.435073,0.81776 4.04803,3.42617 4.76276,4.75448 1.601337,2.97603 1.608874,6.05928 0.02209,9.03692 -0.746599,1.40101 -1.561127,4.01214 -1.251566,4.01214 0.03434,0 0.70007,-1.15962 1.479408,-2.57693 1.725538,-3.13808 4.386704,-5.97702 6.611004,-7.05264 1.673699,-0.80936 3.956676,-1.47507 5.07479,-1.47979 0.736642,-0.003 0.742071,0.009 0.562938,1.25363 -0.294035,2.04301 -1.320441,4.99436 -2.229687,6.4113 -1.779445,2.77303 -4.581105,4.73844 -9.069818,6.36265 l -2.310373,0.83599 0.01063,4.14217 0.01063,4.14216 0.584687,-1.33083 c 1.59216,-3.624 3.439407,-6.01167 6.144271,-7.94182 3.310013,-2.36198 6.948171,-3.55964 10.813169,-3.55964 2.663829,0 2.557412,-0.25598 1.228333,2.95462 -0.978148,2.36287 -2.84328,5.11719 -4.556363,6.72859 -2.878063,2.70722 -7.96361,5.28014 -12.145867,6.14494 l -2.089481,0.43206 0.0026,4.63604 0.0026,4.63604 0.674731,-1.44956 c 1.068876,-2.29633 3.435415,-5.67134 4.900091,-6.98821 3.915077,-3.51999 9.702466,-5.48601 14.898348,-5.0611 3.281386,0.26835 3.183012,0.19341 2.372867,1.80764 -1.986507,3.95814 -5.048201,7.48145 -8.406102,9.67351 -2.434359,1.58917 -5.409267,2.8494 -10.51714,4.45526 l -3.927964,1.23492 0.0048,3.85231 0.0048,3.85231 0.783406,-1.42118 c 3.381627,-6.13464 10.375025,-10.35277 17.164244,-10.35277 2.435126,0 7.707346,1.09285 7.707346,1.59761 0,0.57388 -5.301529,5.55679 -7.267592,6.83082 -3.649036,2.3646 -9.54752,4.35397 -13.975356,4.71343 -1.883408,0.15291 -2.12028,0.23782 -2.753826,0.98719 -1.075355,1.27196 -1.675862,2.8889 -1.800414,4.84785 -0.06715,1.05616 -0.03469,1.46672 0.07899,0.99914 l 0.192986,-0.79375 3.965209,0.0808 c 4.542975,0.0925 10.077329,0.68606 11.320006,1.21397 l 0.847287,0.35995 -0.734279,0.29311 c -2.58896,1.0335 -15.669388,1.6471 -25.194887,1.18189 z"
         id="path24450" />
      <path
         style="fill:#da9d94;stroke-width:1.37146"
         d="m 16.648884,253.03096 c -0.262922,-1.71043 -0.923905,-3.70441 -1.438721,-4.34019 -0.462886,-0.57164 -0.706376,-0.61525 -3.763303,-0.67412 -5.3974613,-0.10394 -9.6039547,-1.5551 -13.8782369,-4.78775 -1.9128486,-1.44669 -5.1328668,-4.78992 -5.1328668,-5.32927 0,-0.11341 0.7724104,-0.45976 1.7164676,-0.76968 4.94274216,-1.62258 10.2801435,-1.33663 14.6385309,0.78427 2.7122012,1.31983 6.1414892,4.84128 7.9690382,8.18322 l 0.773995,1.41535 0.08484,-2.6318 c 0.04666,-1.44749 0.05023,-3.4094 0.0079,-4.3598 l -0.07691,-1.72801 -1.907461,-0.30644 c -4.569156,-0.73407 -11.4822305,-3.13287 -14.79232699,-5.13286 -3.09020761,-1.86713 -8.63453691,-7.54151 -7.98282071,-8.17007 0.4395146,-0.4239 3.3862537,-0.79399 6.32187446,-0.79399 4.85732334,0 9.01285744,1.43657 12.04725024,4.16475 1.707478,1.53517 4.217799,4.88903 5.290874,7.06875 0.471535,0.95783 0.869603,1.70939 0.884596,1.67014 0.01499,-0.0392 -0.01033,-2.12413 -0.05628,-4.63308 l -0.08354,-4.56173 -1.50396,-0.41841 C 7.5017431,225.38055 3.4479079,223.26391 0.53648643,219.72743 -0.68636226,218.24205 -2.6334258,214.60909 -2.9558659,213.21117 l -0.1678273,-0.7276 h 3.28038584 c 2.05162526,0 3.84698146,0.14758 4.79300946,0.39398 4.6957988,1.2231 8.4825939,4.75209 11.3344279,10.56277 l 1.287042,2.62237 v -4.41661 c 0,-3.96606 -0.04724,-4.43372 -0.463021,-4.58426 -2.320927,-0.84031 -6.255925,-2.69242 -7.465548,-3.51386 -2.0833543,-1.41477 -4.2286297,-3.82181 -5.2434883,-5.88328 -0.8160015,-1.65754 -1.9091923,-5.28545 -1.9091923,-6.33594 0,-0.6121 0.9730253,-0.63584 3.5642843,-0.0869 5.3489443,1.13305 9.1163353,4.48279 11.0067703,9.78656 l 0.471531,1.32291 0.01933,-2.22252 0.01933,-2.22253 -1.317963,-2.05459 c -2.118134,-3.30198 -2.485248,-4.42477 -2.503124,-7.65556 -0.01505,-2.72033 0.189208,-3.72206 1.417953,-6.9539 l 0.270228,-0.71075 1.000307,0.57957 c 0.550169,0.31876 1.785102,1.3587 2.744295,2.31097 2.191034,2.17522 2.963722,3.95521 2.991253,6.89077 0.01672,1.78332 -0.0852,2.19884 -1.005945,4.10104 -0.970387,2.00477 -1.621853,4.36563 -1.204667,4.36563 0.105478,0 0.251659,-0.22899 0.324847,-0.50886 0.247635,-0.94695 2.699674,-4.85106 3.865574,-6.15472 2.076841,-2.32224 5.120855,-3.92864 8.2247,-4.34038 l 1.36983,-0.18171 -0.173187,1.02877 c -0.714639,4.24514 -1.772639,6.52714 -4.095678,8.83398 -1.968784,1.95506 -3.545667,2.8827 -6.988019,4.11089 l -2.406863,0.85874 -0.132291,4.24093 c -0.07276,2.33251 -0.09913,4.20736 -0.05861,4.16633 0.04053,-0.041 0.530714,-1.01379 1.089303,-2.16169 2.430981,-4.99563 5.794408,-8.02755 10.834031,-9.7662 1.533942,-0.5292 2.755977,-0.73503 5.03242,-0.8476 l 3.006524,-0.14868 -0.194148,0.63354 c -1.186294,3.87107 -3.837573,7.91075 -6.670396,10.16349 -2.337547,1.85888 -7.217211,4.17068 -10.35993,4.90814 l -2.656969,0.62347 -0.07726,4.70651 c -0.07313,4.45468 0.04622,5.56662 0.432336,4.0282 0.303236,-1.20819 2.363879,-4.63744 3.856028,-6.41707 4.150612,-4.95029 11.843167,-7.52683 18.598332,-6.22932 l 0.738959,0.14194 -0.965332,1.76242 c -1.392215,2.54179 -3.004335,4.71741 -4.790061,6.46439 -3.265443,3.19458 -5.946277,4.61676 -13.106072,6.95276 l -4.683549,1.52808 -0.07895,3.92618 c -0.04342,2.1594 -0.01942,3.91959 0.05334,3.91155 0.07276,-0.008 0.488782,-0.75237 0.924492,-1.65404 1.196611,-2.47632 5.170117,-6.37201 7.939049,-7.78358 5.125646,-2.613 9.642331,-3.05197 15.279686,-1.48502 0.836745,0.23258 1.521355,0.52497 1.521355,0.64975 0,0.45482 -4.93819,5.21083 -6.482292,6.24315 -4.406973,2.94632 -11.511615,5.36649 -15.753845,5.36649 -0.8029,0 -1.143505,0.16959 -1.726982,0.8599 -1.108521,1.31147 -1.767585,3.04549 -1.909061,5.02282 l -0.128089,1.7902 H 18.209068 16.8014 Z"
         id="path24449" />
      <path
         style="fill:#df7a83;stroke-width:1.37146"
         d="m 16.649094,252.76673 c -0.234817,-1.56587 -1.021211,-3.66971 -1.618333,-4.32952 -0.390773,-0.4318 -0.849775,-0.5001 -3.387575,-0.50407 -5.6574249,-0.009 -10.1292194,-1.56154 -14.5064937,-5.03691 -1.4936239,-1.18587 -4.700936,-4.60446 -4.700936,-5.0106 0,-0.2818 3.4890493,-1.29331 5.5556788,-1.61064 3.4079786,-0.52329 8.3662828,0.27141 11.151567,1.78736 2.5886749,1.40893 6.2647769,5.36479 7.8416249,8.43838 l 0.528803,1.03075 0.180193,-2.24427 c 0.09911,-1.23435 0.141863,-3.19677 0.09502,-4.36094 -0.08183,-2.03344 -0.111182,-2.11982 -0.746634,-2.19684 -2.671825,-0.32388 -10.3804692,-2.58803 -13.5755478,-3.98737 -2.0240932,-0.88648 -4.909923,-2.86607 -6.7446225,-4.6266 -1.9975091,-1.91676 -4.1325339,-4.66916 -3.8345157,-4.94333 0.4065495,-0.37401 3.7225276,-0.78226 6.31698475,-0.77772 6.88797845,0.0121 11.75030325,2.66155 15.70470725,8.55754 0.767215,1.14391 1.626102,2.60242 1.908638,3.24114 0.282536,0.63872 0.579193,1.16131 0.659238,1.16131 0.239432,0 -0.09151,-9.02508 -0.338977,-9.24423 -0.125508,-0.11115 -1.002103,-0.40582 -1.947988,-0.65481 -7.3868278,-1.94455 -11.637863,-4.20114 -14.63399311,-7.76822 -1.23502388,-1.47037 -3.14351309,-4.99889 -3.50269159,-6.47597 l -0.1769305,-0.7276 3.13753697,0.004 c 3.46016453,0.004 5.74689503,0.42725 7.72232923,1.42828 3.24862,1.6462 6.288165,5.02454 8.505278,9.4533 l 1.342851,2.68239 -0.07271,-4.44056 -0.07271,-4.44055 -2.386371,-0.97243 c -3.997846,-1.62909 -5.696333,-2.6542 -7.7317607,-4.66644 -1.4186583,-1.40249 -2.1579285,-2.40354 -2.8478182,-3.85626 -0.9841874,-2.07242 -2.1998025,-6.44013 -1.8811069,-6.75882 0.4102971,-0.4103 5.1348919,0.65598 7.0760848,1.59697 3.4978,1.69557 5.58952,4.01969 7.128612,7.92066 l 0.756437,1.91725 0.0091,-2.27408 c 0.0089,-2.21052 -0.02048,-2.31987 -1.049536,-3.91201 -2.378752,-3.68039 -3.069858,-5.84229 -2.834367,-8.86641 0.150448,-1.93201 1.319712,-6.09653 1.794017,-6.38967 0.37135,-0.2295 2.542952,1.21643 3.870645,2.57722 0.610606,0.62583 1.489476,1.95104 1.953042,2.94491 0.726161,1.55686 0.842849,2.09952 0.842849,3.91964 0,1.92832 -0.09244,2.30151 -1.059787,4.27837 -0.926036,1.89245 -1.649193,4.41474 -1.265734,4.41474 0.07239,0 0.504415,-0.74414 0.960066,-1.65364 2.72741,-5.44407 5.677147,-8.13082 10.218717,-9.30766 2.608636,-0.67597 2.662895,-0.65432 2.439861,0.97328 -0.851643,6.21495 -3.952347,9.84746 -10.521674,12.32628 -1.483964,0.55995 -2.763864,1.08384 -2.844221,1.16419 -0.08036,0.0804 -0.168539,2.05382 -0.195959,4.38548 -0.02742,2.33165 -0.003,4.19237 0.0543,4.13494 0.05728,-0.0574 0.373941,-0.76824 0.703684,-1.57955 2.081171,-5.12061 6.015025,-8.79024 11.362998,-10.59978 1.603192,-0.54245 2.813681,-0.74725 4.989932,-0.84421 l 2.873267,-0.12802 -0.183254,0.63049 c -0.100789,0.34677 -0.760978,1.82112 -1.467086,3.27633 -1.461318,3.01161 -3.243416,5.33439 -5.315645,6.92839 -2.883496,2.21805 -7.737141,4.42081 -11.274334,5.11671 l -1.638825,0.32242 -0.07744,4.79645 c -0.04259,2.63804 -0.06799,4.82574 -0.05643,4.86155 0.01156,0.0358 0.573071,-1.03575 1.247808,-2.38125 2.423652,-4.83302 4.995327,-7.44695 9.314512,-9.46758 2.990857,-1.39919 5.299547,-1.91482 8.516652,-1.90211 1.4827,0.006 3.064972,0.0917 3.516159,0.19083 0.689405,0.15141 0.792615,0.27147 0.646632,0.75217 -0.436289,1.43665 -2.81153,4.95677 -4.687728,6.94724 -3.405915,3.61336 -6.830958,5.47793 -14.527073,7.90842 l -3.889525,1.22835 -0.07923,4.01795 c -0.04357,2.20988 -0.05643,4.06059 -0.02858,4.1127 0.02786,0.0521 0.236321,-0.34964 0.463257,-0.89277 0.681891,-1.632 2.650928,-4.1799 4.687213,-6.06519 2.119624,-1.96245 5.414564,-3.7401 8.424925,-4.54534 2.522237,-0.67466 6.633116,-0.61585 9.723437,0.13912 1.346067,0.32885 2.447396,0.66382 2.447396,0.74438 0,0.0806 -0.782379,1.02065 -1.738619,2.08908 -2.048455,2.28879 -5.271174,4.78809 -7.845944,6.08472 -3.54553,1.7855 -9.908342,3.54188 -12.831121,3.54188 -1.048538,0 -1.57835,0.50295 -2.617074,2.48439 -0.473855,0.9039 -0.722606,1.88056 -0.825506,3.24114 l -0.147281,1.94739 h -1.386977 -1.386977 z"
         id="path24448" />
      <path
         style="fill:#b06034;stroke-width:1.37146"
         d="m 16.643876,252.63408 c -0.199539,-1.51293 -0.96041,-3.47564 -1.637359,-4.22366 -0.361227,-0.39915 -0.88446,-0.4734 -3.363331,-0.47728 -6.7742758,-0.0106 -12.1193289,-2.36385 -16.9867709,-7.4787 -2.6541634,-2.78907 -2.6740549,-2.69508 0.7732259,-3.65342 4.24757752,-1.18082 10.2347762,-0.62541 13.7464078,1.2752 1.8844252,1.01992 5.1611122,4.30177 6.7759172,6.7866 0.745042,1.14646 1.354622,2.18826 1.354622,2.31511 0,0.12685 0.08933,0.23063 0.198516,0.23063 0.109184,0 0.239379,-1.90446 0.289323,-4.23214 0.07243,-3.37578 0.01888,-4.25224 -0.264661,-4.33146 -0.195508,-0.0546 -1.592725,-0.36306 -3.104927,-0.68541 -6.0763431,-1.29526 -12.235186,-3.70626 -15.25927367,-5.97355 -3.03232523,-2.27346 -6.83363043,-6.64294 -6.12443003,-7.03983 0.6623194,-0.37065 3.7419827,-0.75234 6.0865042,-0.75436 4.4833258,-0.004 8.4337772,1.29016 11.5946145,3.79793 1.736092,1.3774 4.56165,5.0324 5.828571,7.53955 l 0.888055,1.7574 0.07277,-4.48184 c 0.05476,-3.37276 -0.01071,-4.55735 -0.264583,-4.78698 -0.185545,-0.16782 -1.706572,-0.6906 -3.380062,-1.16174 -7.5858208,-2.13561 -12.0334733,-4.95966 -14.71602085,-9.34395 -0.92813445,-1.51693 -2.21731145,-4.4194 -2.21731145,-4.9921 0,-0.21967 1.0383941,-0.26772 3.77031233,-0.17446 3.19474467,0.10906 4.04817007,0.2322 5.59044687,0.80665 4.2266791,1.57431 7.6184571,5.08511 10.2450901,10.6046 l 1.024451,2.15274 -0.06255,-4.47326 -0.06255,-4.47326 -2.645833,-1.09353 C 11.07088,214.53117 9.5726196,213.65863 7.6966637,211.93685 5.1590789,209.6078 3.2778341,205.89727 2.6225934,201.92886 l -0.1918627,-1.16201 1.6606127,0.18788 c 2.2253536,0.25177 5.3949194,1.27874 6.9071916,2.23799 2.906079,1.84336 4.571443,3.96531 5.815996,7.41054 l 0.727031,2.0126 0.01481,-2.43922 0.0148,-2.43921 -1.308138,-2.00386 c -2.042761,-3.1292 -2.501808,-4.54012 -2.495391,-7.66979 0.0045,-2.18531 0.13183,-3.01426 0.731646,-4.7625 0.399422,-1.16417 0.834895,-2.2274 0.967718,-2.36273 0.147882,-0.15068 0.805923,0.14267 1.697554,0.75676 4.853884,3.343 6.270959,8.43887 3.71599,13.36287 -0.788471,1.51956 -1.460809,3.9858 -1.086594,3.9858 0.07242,0 0.635957,-0.96929 1.252301,-2.15398 2.749745,-5.28536 5.390736,-7.58083 10.140397,-8.81376 2.493495,-0.64726 2.470662,-0.65901 2.224019,1.14448 -0.839998,6.1422 -4.388274,10.04718 -11.341586,12.48174 -0.945885,0.33118 -1.838854,0.70797 -1.984375,0.8373 -0.155321,0.13805 -0.264946,1.96908 -0.265463,4.43394 -4.83e-4,2.30933 0.04639,4.15151 0.104151,4.09375 0.05777,-0.0578 0.36285,-0.73938 0.677963,-1.5147 2.837346,-6.98114 9.617035,-11.55841 17.130035,-11.56525 l 2.03627,-0.002 -0.501,1.45618 c -1.291649,3.75425 -3.855837,7.37663 -6.74654,9.53072 -2.987526,2.22624 -7.426117,4.19321 -11.046353,4.8952 l -1.521354,0.295 -0.01052,3.48697 c -0.0058,1.91783 -0.04913,4.11571 -0.09633,4.88417 -0.0472,0.76846 -0.05023,1.36161 -0.0067,1.31811 0.0435,-0.0435 0.619382,-1.14849 1.27974,-2.45553 2.998207,-5.93434 6.965998,-9.18925 13.085054,-10.73412 1.805565,-0.45585 2.811666,-0.54161 5.468215,-0.46611 1.790546,0.0509 3.338591,0.17566 3.4401,0.27726 0.251005,0.25122 -1.78602,3.98682 -3.119018,5.71981 -1.447422,1.88175 -4.294399,4.47576 -6.105091,5.56264 -2.219987,1.33255 -5.825296,2.8123 -10.028564,4.11608 l -3.774569,1.17081 -0.135547,4.05838 c -0.07455,2.23211 -0.107648,4.10466 -0.07355,4.16123 0.0341,0.0566 0.189723,-0.2331 0.345831,-0.6437 0.580879,-1.52783 2.717402,-4.37265 4.614572,-6.1444 4.085637,-3.81553 9.919265,-5.77673 15.198959,-5.10971 2.633829,0.33275 5.31744,1.04385 5.31744,1.40901 0,0.52361 -2.833493,3.51711 -4.812214,5.08396 -2.607052,2.06439 -5.474902,3.58537 -8.955904,4.74979 -2.640098,0.88313 -6.87111,1.73949 -8.605561,1.74177 -1.45,0.002 -2.994742,2.74814 -3.219819,5.72418 l -0.147463,1.9498 h -1.392191 -1.39219 z"
         id="path24447" />
      <path
         style="fill:#982c44;stroke-width:1.37146"
         d="m 21.334127,197.22962 c -0.503622,-1.68094 -1.891988,-3.51883 -3.613886,-4.78398 -1.946843,-1.43043 -2.146182,-1.63067 -0.967082,-0.97145 1.559622,0.87196 3.704286,3.16561 4.418314,4.72525 0.371191,0.81079 0.629958,1.60897 0.575038,1.77373 -0.05492,0.16477 -0.240494,-0.16983 -0.412384,-0.74355 z"
         id="path24991" />
      <path
         style="fill:#982c44;stroke-width:1.37146"
         d="m 21.893459,200.31273 c 0,-1.0914 0.0467,-1.53789 0.103786,-0.99218 0.05708,0.5457 0.05708,1.43867 0,1.98437 -0.05708,0.5457 -0.103786,0.0992 -0.103786,-0.99219 z"
         id="path24990" />
      <path
         style="fill:#982c44;stroke-width:1.37146"
         d="m 31.949106,203.35798 c 0.314063,-0.79897 0.604519,-1.35332 0.645459,-1.2319 0.08318,0.24671 -0.914892,2.68457 -1.099077,2.68457 -0.06457,0 0.139556,-0.6537 0.453618,-1.45267 z"
         id="path24989" />
      <path
         style="fill:#982c44;stroke-width:1.37146"
         d="m 22.118305,205.03349 c 0.336733,-0.60504 1.131991,-1.64684 1.76724,-2.3151 1.009983,-1.06248 1.038724,-1.07799 0.228912,-0.12352 -0.509347,0.60033 -1.24877,1.64212 -1.64316,2.3151 -0.891732,1.52163 -1.188993,1.62565 -0.352992,0.12352 z"
         id="path24988" />
      <path
         style="fill:#982c44;stroke-width:1.37146"
         d="m 36.824347,208.05848 c 0.475548,-0.0589 1.189923,-0.0577 1.587499,0.003 0.397577,0.0604 0.0085,0.10855 -0.864634,0.10707 -0.873125,-0.001 -1.198414,-0.0509 -0.722865,-0.10977 z"
         id="path24987" />
      <path
         style="fill:#982c44;stroke-width:1.37146"
         d="m 27.88641,208.59804 c 1.183935,-0.95569 1.81373,-1.58181 2.745087,-2.72906 0.413477,-0.50932 0.657971,-0.74744 0.54332,-0.52916 -0.516427,0.98321 -1.839377,2.3896 -2.973647,3.16121 -1.029534,0.70035 -1.082386,0.71664 -0.31476,0.097 z"
         id="path24986" />
      <path
         style="fill:#982c44;stroke-width:1.37146"
         d="m 16.79831,211.38972 c -0.01149,-0.23781 -0.493943,-1.37751 -1.072121,-2.53268 -1.128189,-2.25405 -2.841198,-4.17777 -4.703455,-5.28199 -1.4458054,-0.8573 -1.4710497,-1.10886 -0.03037,-0.30268 1.923822,1.07653 3.803534,3.18086 5.002275,5.60002 0.609687,1.2304 1.044631,2.39743 0.966542,2.59341 -0.102372,0.25691 -0.147807,0.23569 -0.162868,-0.0761 z"
         id="path24985" />
      <path
         style="fill:#982c44;stroke-width:1.37146"
         d="m -1.2715206,212.55278 c 0.76886249,-0.0536 1.95948743,-0.0531 2.6458332,10e-4 0.6863458,0.0543 0.057277,0.0982 -1.3979317,0.0975 -1.4552083,-6.9e-4 -2.0167639,-0.0451 -1.2479015,-0.0987 z"
         id="path24984" />
      <path
         style="fill:#982c44;stroke-width:1.37146"
         d="m 9.3426406,213.24355 c -1.544166,-1.09761 -2.5508243,-2.04258 -3.2053639,-3.00894 -0.2956942,-0.43656 -0.054299,-0.24795 0.5364333,0.41915 0.5907325,0.6671 1.7365123,1.66916 2.5461772,2.22679 1.3348088,0.91932 1.6490598,1.19052 1.3795238,1.19052 -0.05093,0 -0.6164732,-0.37238 -1.2567704,-0.82752 z"
         id="path24983" />
      <path
         style="fill:#982c44;stroke-width:1.37146"
         d="m 18.780079,214.57065 c 0.09999,-0.16179 0.01772,-0.40898 -0.182823,-0.54931 -0.291606,-0.20405 -0.296182,-0.28275 -0.02285,-0.39302 0.262444,-0.10588 0.270277,-0.22403 0.03375,-0.50903 -0.242782,-0.29253 -0.217101,-0.37114 0.121249,-0.37114 0.324428,0 0.429272,0.25848 0.429272,1.05833 0,0.58209 -0.12609,1.05834 -0.280199,1.05834 -0.154109,0 -0.198386,-0.13238 -0.09839,-0.29417 z"
         id="path24982" />
      <path
         style="fill:#982c44;stroke-width:1.37146"
         d="m 22.114134,216.65075 c 0.92845,-1.71694 4.590454,-5.223 6.522036,-6.2443 0.919759,-0.48631 1.716037,-0.84046 1.769506,-0.78699 0.05347,0.0535 -0.662294,0.491 -1.590582,0.9723 -2.168045,1.12407 -4.885046,3.61796 -6.118139,5.61573 -1.122335,1.81833 -1.468952,2.08195 -0.582821,0.44326 z"
         id="path24981" />
      <path
         style="fill:#982c44;stroke-width:1.37146"
         d="m -1.5051601,216.40015 c -0.9972108,-1.97546 -1.6415374,-3.7329 -1.2886199,-3.51479 0.1411406,0.0872 0.2566194,0.3067 0.2566194,0.48771 0,0.18101 0.4719669,1.30508 1.0488153,2.49793 0.57684851,1.19285 0.99528116,2.16882 0.92985039,2.16882 -0.0654308,0 -0.49143009,-0.73785 -0.94666519,-1.63967 z"
         id="path24980" />
      <path
         style="fill:#982c44;stroke-width:1.37146"
         d="m 18.688717,218.52236 c -0.238551,-0.23855 -0.235462,-0.40483 0.01323,-0.71225 0.257437,-0.31822 0.256137,-0.36001 -0.0063,-0.20234 -0.181901,0.10928 -0.330729,0.0726 -0.330729,-0.0815 0,-0.1541 0.180485,-0.28019 0.401077,-0.28019 0.282694,0 0.383226,0.23428 0.340596,0.79375 -0.03326,0.43656 -0.07087,0.79375 -0.08358,0.79375 -0.0127,0 -0.163139,-0.14005 -0.334301,-0.31121 z"
         id="path24979" />
      <path
         style="fill:#982c44;stroke-width:1.37146"
         d="m 37.622227,220.2257 c 0.768863,-0.0536 1.959488,-0.0531 2.645834,0.001 0.686345,0.0543 0.05728,0.0982 -1.397932,0.0975 -1.455208,-6.9e-4 -2.016764,-0.0451 -1.247902,-0.0987 z"
         id="path24978" />
      <path
         style="fill:#982c44;stroke-width:1.37146"
         d="m 29.212838,220.85387 c 0,-0.0712 0.684609,-0.51731 1.521354,-0.99144 2.149242,-1.21785 5.041306,-4.20104 6.506832,-6.71187 0.677726,-1.16113 1.23223,-1.98959 1.23223,-1.84103 0,0.79652 -2.835288,4.73828 -4.580666,6.36827 -1.649595,1.54054 -4.67975,3.59706 -4.67975,3.17607 z"
         id="path24977" />
      <path
         style="fill:#982c44;stroke-width:1.37146"
         d="m 14.15513,220.32491 c -1.226841,-1.88303 -4.2004523,-4.88108 -5.5136454,-5.55896 -0.4729427,-0.24414 -0.8598958,-0.51245 -0.8598958,-0.59625 0,-0.3813 2.2643562,1.24485 3.7321222,2.68022 1.595234,1.56003 4.284575,5.15865 3.855195,5.15865 -0.06426,0 -0.610455,-0.75765 -1.213776,-1.68366 z"
         id="path24976" />
      <path
         style="fill:#982c44;stroke-width:1.37146"
         d="m 2.9846576,221.94238 c -0.8952402,-0.76398 -2.05564751,-1.92484 -2.5786829,-2.57969 -0.62692538,-0.78491 -0.32119527,-0.55071 0.8972163,0.68732 1.0165044,1.03287 2.2649085,2.19241 2.7742314,2.57675 0.5093228,0.38435 0.8380448,0.70013 0.7304932,0.70175 -0.1075517,0.002 -0.9280177,-0.62215 -1.823258,-1.38613 z"
         id="path24975" />
      <path
         style="fill:#982c44;stroke-width:1.37146"
         d="m -2.1984482,224.45955 c 0.6956148,-0.0547 1.76717722,-0.054 2.38124991,0.001 0.61407268,0.0555 0.0449333,0.10023 -1.26475411,0.0994 -1.3096874,-8e-4 -1.8121105,-0.0462 -1.1164958,-0.10089 z"
         id="path24974" />
      <path
         style="fill:#982c44;stroke-width:1.37146"
         d="m 6.6571097,224.37285 c -0.8367447,-0.4319 -1.5213541,-0.8446 -1.5213541,-0.91713 0,-0.1182 3.1485852,1.38067 3.4175346,1.62691 0.3463418,0.3171 -0.5746032,-0.0276 -1.8961805,-0.70978 z"
         id="path24973" />
      <path
         style="fill:#982c44;stroke-width:1.37146"
         d="m -6.0952272,226.84932 c -0.6515049,-0.83008 -1.1131957,-1.57422 -1.0259794,-1.65365 0.087216,-0.0794 0.2128003,0.008 0.2790757,0.19348 0.066275,0.18584 0.5885251,0.92998 1.1605547,1.65365 0.5720297,0.72367 0.9794951,1.31577 0.9054787,1.31577 -0.074016,0 -0.6676248,-0.67916 -1.3191297,-1.50925 z"
         id="path24972" />
      <path
         style="fill:#982c44;stroke-width:1.37146"
         d="m 23.361362,227.80934 c 0.868714,-1.33741 3.450515,-3.8146 4.75149,-4.55896 1.300012,-0.74381 0.98245,-0.333 -0.45624,0.5902 -1.222995,0.78479 -3.135245,2.66285 -4.474688,4.39468 -0.333825,0.43162 -0.253078,0.23996 0.179438,-0.42592 z"
         id="path24971" />
      <path
         style="fill:#982c44;stroke-width:1.37146"
         d="m 32.410298,232.33283 c 3.964284,-2.22625 7.062888,-5.32152 9.30968,-9.29966 1.102919,-1.95282 1.194281,-2.23069 0.786512,-2.39219 -0.373674,-0.14799 -0.342834,-0.18626 0.162259,-0.20132 0.758245,-0.0226 0.708318,0.14853 -0.834924,2.86196 -2.039075,3.58523 -4.980504,6.61475 -8.429658,8.68212 -0.777262,0.46588 -1.651329,0.92173 -1.942371,1.01299 -0.291042,0.0913 0.135784,-0.20749 0.948502,-0.6639 z"
         id="path24970" />
      <path
         style="fill:#982c44;stroke-width:1.37146"
         d="m -0.29765923,232.49313 c -0.72892047,-0.49088 -1.50123737,-1.1067 -1.71625987,-1.36849 -0.2150224,-0.26178 0.1478614,-0.0685 0.8064086,0.4295 0.65854716,0.49801 1.49198461,1.10758 1.85208323,1.35461 0.36009867,0.24703 0.59360427,0.45539 0.51890137,0.46302 -0.074703,0.008 -0.73221289,-0.38775 -1.46113333,-0.87864 z"
         id="path24969" />
      <path
         style="fill:#982c44;stroke-width:1.37146"
         d="m 19.483341,229.21846 c -0.03704,-3.14012 -0.16041,-5.09323 -0.321706,-5.09323 -0.14389,0 -0.237695,-0.28907 -0.208454,-0.64238 0.02924,-0.35331 0.162416,-0.57486 0.295944,-0.49234 0.133529,0.0825 0.182685,-0.0154 0.109236,-0.21751 -0.07345,-0.20216 -0.276339,-0.33484 -0.450866,-0.29486 -0.174528,0.04 -0.240715,-0.0513 -0.147083,-0.20275 0.09363,-0.1515 0.281076,-0.20696 0.416542,-0.12323 0.148613,0.0918 0.246301,-1.78411 0.246301,-4.72988 0,-4.37527 -0.0473,-4.90025 -0.455606,-5.05693 -0.667438,-0.25612 -0.0229,-0.5804 1.252967,-0.6304 0.570469,-0.0223 1.659137,-0.27695 2.419261,-0.56577 0.760125,-0.28883 1.426141,-0.48104 1.480037,-0.42715 0.09655,0.0966 -1.168615,0.60655 -3.241451,1.30665 l -1.058333,0.35745 v 5.52882 c 0,3.36377 -0.103609,5.61442 -0.264583,5.7474 -0.156931,0.12965 -0.103105,0.17002 0.132291,0.0992 0.218281,-0.0656 0.358605,-0.28307 0.311831,-0.48316 -0.06813,-0.29143 -0.01812,-0.29801 0.251354,-0.0331 0.185019,0.1819 0.640008,0.34502 1.011086,0.3625 0.491262,0.0231 0.370497,0.10497 -0.444206,0.301 l -1.118894,0.26922 -0.07779,5.05682 -0.07779,5.05681 z"
         id="path24968" />
      <path
         style="fill:#982c44;stroke-width:1.37146"
         d="m 18.769665,233.23797 c 0.05904,-0.63524 -0.03558,-0.98866 -0.290915,-1.08664 -0.208127,-0.0799 -0.378412,-0.2478 -0.378412,-0.37319 0,-0.12538 0.178594,-0.15943 0.396875,-0.0757 0.423121,0.16236 0.52409,-0.32327 0.227763,-1.09549 -0.113234,-0.29509 -0.230058,-0.34209 -0.353565,-0.14225 -0.101449,0.16415 -0.200317,-0.12352 -0.219706,-0.63927 -0.01939,-0.51575 0.07645,-0.93773 0.21297,-0.93773 0.136522,0 0.180074,0.17759 0.09678,0.39465 -0.08647,0.22532 0.03062,0.4645 0.272887,0.55747 0.339787,0.13039 0.424327,0.5789 0.424327,2.25119 0,1.1486 -0.107214,2.08836 -0.238252,2.08836 -0.131039,0 -0.198879,-0.42365 -0.150755,-0.94143 z"
         id="path24967" />
      <path
         style="fill:#982c44;stroke-width:1.37146"
         d="m 2.6883599,234.2943 c -0.6912239,-0.35982 -1.2567707,-0.71347 -1.2567707,-0.78589 0,-0.1181 2.6193027,1.11908 2.8883679,1.36428 0.3275818,0.29851 -0.5332207,-0.007 -1.6315972,-0.57839 z"
         id="path24966" />
      <path
         style="fill:#982c44;stroke-width:1.37146"
         d="m 25.508671,235.15804 c 0,-0.17941 3.236186,-1.27023 3.370367,-1.13605 0.05692,0.0569 -0.529294,0.31156 -1.302706,0.56586 -0.773411,0.25431 -1.555031,0.5173 -1.736932,0.58444 -0.181901,0.0671 -0.330729,0.0607 -0.330729,-0.0143 z"
         id="path24965" />
      <path
         style="fill:#982c44;stroke-width:1.37146"
         d="m 18.147778,234.73277 c 0.0083,-0.59946 0.102957,-1.14426 0.210409,-1.21067 0.224659,-0.13884 0.152899,1.92224 -0.07485,2.15 -0.08283,0.0828 -0.143827,-0.33987 -0.135554,-0.93933 z"
         id="path24964" />
      <path
         style="fill:#982c44;stroke-width:1.37146"
         d="m 16.272367,235.83322 c -1.597213,-3.28754 -5.00019,-7.25796 -7.3641271,-8.59209 -1.6605849,-0.93717 -1.8556294,-1.2469 -0.2785539,-0.44234 1.339294,0.68326 3.820844,2.99766 5.380315,5.01793 1.207082,1.56375 3.171899,4.95681 2.980924,5.14779 -0.06253,0.0625 -0.385886,-0.44655 -0.718558,-1.13129 z"
         id="path24963" />
      <path
         style="fill:#982c44;stroke-width:1.37146"
         d="m 9.2367971,238.51881 c -0.5820833,-0.35078 -1.7727083,-0.87919 -2.6458332,-1.17425 -0.9215385,-0.31142 -1.2129058,-0.47738 -0.694553,-0.39561 1.1008821,0.17366 3.8863438,1.40268 4.2949851,1.89507 0.385817,0.46488 0.318267,0.44187 -0.9545989,-0.32521 z"
         id="path24962" />
      <path
         style="fill:#982c44;stroke-width:1.37146"
         d="m 42.840779,237.37034 2.361557,-2.4976 -0.784853,-0.35804 -0.784854,-0.35805 0.793207,0.16517 c 0.436264,0.0908 0.836206,0.20817 0.88876,0.26073 0.190036,0.19003 -1.020292,1.61888 -2.908241,3.43331 -1.734068,1.66653 -1.690546,1.60186 0.434424,-0.64552 z"
         id="path24961" />
      <path
         style="fill:#982c44;stroke-width:1.37146"
         d="m 36.621171,242.3175 c 0.07276,-0.0807 0.965729,-0.69369 1.984375,-1.36219 1.018645,-0.66849 1.46817,-0.88284 0.998944,-0.47632 -0.733097,0.63512 -3.355221,2.25105 -2.983319,1.83851 z"
         id="path24960" />
      <path
         style="fill:#982c44;stroke-width:1.37146"
         d="m 18.483653,242.74694 c 0.01777,-0.33258 0.117381,-0.68977 0.221368,-0.79375 0.103987,-0.10399 0.187244,-0.37759 0.185016,-0.60799 -0.0036,-0.36709 -0.03579,-0.36982 -0.260532,-0.0221 -0.196517,0.30409 -0.257428,0.20821 -0.260532,-0.41011 -0.0022,-0.44383 0.144777,-0.96732 0.326678,-1.16329 0.268972,-0.28978 0.25662,-0.31488 -0.06615,-0.13442 -0.352778,0.19724 -0.352778,0.16651 0,-0.27656 0.231305,-0.2905 0.2589,-0.41556 0.06615,-0.29975 -0.210183,0.12627 -0.330729,0.0427 -0.330729,-0.22941 0,-0.25949 0.121922,-0.35276 0.309546,-0.2368 0.201561,0.12457 0.256251,0.0524 0.156771,-0.20681 -0.08403,-0.21897 -0.04469,-0.56593 0.08741,-0.77101 0.150789,-0.2341 0.230909,0.7678 0.215266,2.69187 -0.01832,2.25257 -0.112059,3.06476 -0.35374,3.06476 -0.180852,0 -0.314286,-0.27211 -0.29652,-0.60468 z"
         id="path24959" />
      <path
         style="fill:#982c44;stroke-width:1.37146"
         d="m -4.9620746,240.78881 c -2.3307948,-2.35207 -2.8637038,-3.16983 -2.0656914,-3.16983 0.1323654,0 0.1720011,0.17894 0.088079,0.39763 -0.1010903,0.26344 0.7037479,1.24565 2.384827,2.91042 1.3955768,1.38203 2.4659491,2.51278 2.3786051,2.51278 -0.087344,0 -1.3409629,-1.19295 -2.7858197,-2.651 z"
         id="path24958" />
      <path
         style="fill:#982c44;stroke-width:1.37146"
         d="m 20.338796,244.63044 c 0.675328,-2.12113 4.929766,-7.045 7.039768,-8.14746 0.873387,-0.45635 0.883112,-0.45635 0.253475,0 -3.040984,2.20401 -4.963375,4.30025 -6.644962,7.2459 -0.449217,0.7869 -0.740943,1.1926 -0.648281,0.90156 z"
         id="path24957" />
      <path
         style="fill:#982c44;stroke-width:1.37146"
         d="m 13.914178,242.57992 c -1.188717,-1.51125 -1.45675,-1.94137 -0.700727,-1.12448 1.121217,1.21149 2.91253,3.57187 2.710719,3.57187 -0.04671,0 -0.951204,-1.10132 -2.009992,-2.44739 z"
         id="path24956" />
      <path
         style="fill:#982c44;stroke-width:1.37146"
         d="m 2.9690186,246.24927 c -2.33742906,-1.02053 -4.3330086,-2.14501 -4.6142371,-2.60005 -0.1065573,-0.17241 0.1551797,-0.0672 0.5816377,0.23379 1.04768153,0.73947 3.3276705,1.8742 5.2656457,2.62068 0.877332,0.33793 1.4165553,0.61879 1.198274,0.62413 -0.2182812,0.005 -1.3123753,-0.39001 -2.4313203,-0.87855 z"
         id="path24955" />
      <path
         style="fill:#982c44;stroke-width:1.37146"
         d="m 17.781515,243.19429 0.07805,-4.47953 -0.73951,-0.11137 -0.73951,-0.11137 0.755911,-0.0396 c 0.572642,-0.03 0.716975,-0.14111 0.595313,-0.45815 -0.08833,-0.23019 -0.160599,-2.55117 -0.160599,-5.15774 v -4.73922 l -1.977492,-0.58178 c -1.087621,-0.31999 -1.938884,-0.6204 -1.891696,-0.66759 0.131036,-0.13103 2.881004,0.46969 3.406167,0.74408 0.546024,0.28528 0.50385,0.77158 0.495683,-5.7157 l -0.006,-4.7625 -2.278839,-0.88744 c -1.253361,-0.4881 -2.234271,-0.93201 -2.179799,-0.98649 0.05447,-0.0545 1.133481,0.30707 2.397798,0.80342 2.544597,0.99897 2.463746,1.03047 2.345145,-0.91386 -0.02219,-0.3638 -0.118778,-2.20927 -0.214637,-4.10104 -0.1152,-2.27347 -0.306272,-3.66384 -0.563585,-4.10104 l -0.389295,-0.66146 0.554682,0.66146 c 0.305075,0.3638 0.557329,0.81145 0.560565,0.99477 0.0032,0.18333 0.244008,0.53721 0.53505,0.78641 0.559166,0.47877 0.658878,1.43888 0.240929,2.31986 -0.207704,0.43781 -0.232388,0.39213 -0.14298,-0.26459 0.05944,-0.43656 0.0037,-1.03187 -0.123771,-1.32291 -0.141094,-0.32205 -0.191312,0.92066 -0.128304,3.175 0.120758,4.32049 0.09222,4.07707 0.418709,3.57187 0.170987,-0.26458 0.257831,-0.28663 0.260532,-0.0661 0.0067,0.54951 -0.110843,0.72751 -0.481857,0.72949 -0.283505,0.002 -0.346905,0.97155 -0.319769,4.89252 0.03267,4.72054 0.230777,5.94561 0.812643,5.02525 0.175019,-0.27683 0.250724,-0.29337 0.253566,-0.0554 0.0022,0.18659 -0.253883,0.43467 -0.569136,0.55129 l -0.573188,0.21203 0.601145,0.60115 c 0.50305,0.50305 0.552073,0.69372 0.300421,1.1685 -0.165562,0.31235 -0.242526,0.36239 -0.171238,0.11133 0.07122,-0.25081 -0.03571,-0.54847 -0.237606,-0.66146 -0.2019,-0.11299 -0.375549,-0.3245 -0.385886,-0.47002 -0.01034,-0.14552 -0.108091,-0.29455 -0.217231,-0.33119 -0.109141,-0.0366 -0.122135,2.34462 -0.02887,5.29167 0.244885,7.73853 0.258335,14.48634 0.02887,14.48674 -0.109141,1.8e-4 -0.163314,-2.01545 -0.120386,-4.4792 z"
         id="path24954" />
      <path
         style="fill:#982c44;stroke-width:1.37146"
         d="m 10.096693,247.74267 c 0.763984,-0.0534 2.01414,-0.0534 2.778125,0 0.763984,0.0534 0.138906,0.0972 -1.389063,0.0972 -1.5279684,0 -2.1530465,-0.0437 -1.389062,-0.0972 z"
         id="path24953" />
      <path
         style="fill:#982c44;stroke-width:1.37146"
         d="m 19.445809,247.54086 c -0.04617,-0.58209 -0.136436,-0.86012 -0.2006,-0.61784 -0.06416,0.24227 -0.288477,0.50642 -0.498474,0.587 -0.517589,0.19862 -0.479889,-0.0183 0.113958,-0.65573 0.440446,-0.47276 0.501113,-1.03992 0.543631,-5.08217 0.02632,-2.50251 0.130648,-4.63373 0.231833,-4.73605 0.101185,-0.10232 0.153218,1.56456 0.115628,3.70417 -0.09771,5.56144 -0.208664,8.02758 -0.305976,6.80062 z"
         id="path24952" />
      <path
         style="fill:#982c44;stroke-width:1.37146"
         d="m 16.777422,252.97685 c 0,-1.15884 -1.217496,-4.30847 -1.871174,-4.84068 -0.312784,-0.25466 -0.4549,-0.46302 -0.315812,-0.46302 0.727407,0 2.096719,2.70716 2.367101,4.67981 0.15554,1.13479 0.162344,1.14102 1.245192,1.14102 h 1.088798 l 0.07819,-1.52135 c 0.137635,-2.67788 2.046941,-5.91808 3.450492,-5.85568 0.688386,0.0306 0.686386,0.0351 -0.08967,0.20023 -0.559599,0.11909 -1.045311,0.54481 -1.646519,1.44314 -1.023386,1.52915 -1.392738,2.74976 -1.394713,4.60918 l -0.0015,1.38906 H 18.23263 c -1.43553,0 -1.455208,-0.0106 -1.455208,-0.78171 z"
         id="path24951" />
      <path
         style="fill:#8d2635;stroke-width:1.37146"
         d="m 21.334127,197.22962 c -0.503622,-1.68094 -1.891988,-3.51883 -3.613886,-4.78398 -1.946843,-1.43043 -2.146182,-1.63067 -0.967082,-0.97145 1.559622,0.87196 3.704286,3.16561 4.418314,4.72525 0.371191,0.81079 0.629958,1.60897 0.575038,1.77373 -0.05492,0.16477 -0.240494,-0.16983 -0.412384,-0.74355 z"
         id="path24943" />
      <path
         style="fill:#8d2635;stroke-width:1.37146"
         d="m 21.893459,200.31273 c 0,-1.0914 0.0467,-1.53789 0.103786,-0.99218 0.05708,0.5457 0.05708,1.43867 0,1.98437 -0.05708,0.5457 -0.103786,0.0992 -0.103786,-0.99219 z"
         id="path24942" />
      <path
         style="fill:#8d2635;stroke-width:1.37146"
         d="m 31.949106,203.35798 c 0.314063,-0.79897 0.604519,-1.35332 0.645459,-1.2319 0.08318,0.24671 -0.914892,2.68457 -1.099077,2.68457 -0.06457,0 0.139556,-0.6537 0.453618,-1.45267 z"
         id="path24941" />
      <path
         style="fill:#8d2635;stroke-width:1.37146"
         d="m 22.118305,205.03349 c 0.336733,-0.60504 1.131991,-1.64684 1.76724,-2.3151 1.009983,-1.06248 1.038724,-1.07799 0.228912,-0.12352 -0.509347,0.60033 -1.24877,1.64212 -1.64316,2.3151 -0.891732,1.52163 -1.188993,1.62565 -0.352992,0.12352 z"
         id="path24940" />
      <path
         style="fill:#8d2635;stroke-width:1.37146"
         d="m 36.824347,208.05848 c 0.475548,-0.0589 1.189923,-0.0577 1.587499,0.003 0.397577,0.0604 0.0085,0.10855 -0.864634,0.10707 -0.873125,-0.001 -1.198414,-0.0509 -0.722865,-0.10977 z"
         id="path24939" />
      <path
         style="fill:#8d2635;stroke-width:1.37146"
         d="m 27.88641,208.59804 c 1.183935,-0.95569 1.81373,-1.58181 2.745087,-2.72906 0.413477,-0.50932 0.657971,-0.74744 0.54332,-0.52916 -0.516427,0.98321 -1.839377,2.3896 -2.973647,3.16121 -1.029534,0.70035 -1.082386,0.71664 -0.31476,0.097 z"
         id="path24938" />
      <path
         style="fill:#8d2635;stroke-width:1.37146"
         d="m 18.469924,210.18064 c 0.01505,-0.82283 0.121664,-1.28041 0.26494,-1.13713 0.143276,0.14327 0.133139,0.69732 -0.02519,1.37688 l -0.26494,1.13713 z"
         id="path24937" />
      <path
         style="fill:#8d2635;stroke-width:1.37146"
         d="m 16.79831,211.38972 c -0.01149,-0.23781 -0.493943,-1.37751 -1.072121,-2.53268 -1.128189,-2.25405 -2.841198,-4.17777 -4.703455,-5.28199 -1.4458054,-0.8573 -1.4710497,-1.10886 -0.03037,-0.30268 1.923822,1.07653 3.803534,3.18086 5.002275,5.60002 0.609687,1.2304 1.044631,2.39743 0.966542,2.59341 -0.102372,0.25691 -0.147807,0.23569 -0.162868,-0.0761 z"
         id="path24936" />
      <path
         style="fill:#8d2635;stroke-width:1.37146"
         d="m -1.2715206,212.55278 c 0.76886249,-0.0536 1.95948743,-0.0531 2.6458332,10e-4 0.6863458,0.0543 0.057277,0.0982 -1.3979317,0.0975 -1.4552083,-6.9e-4 -2.0167639,-0.0451 -1.2479015,-0.0987 z"
         id="path24935" />
      <path
         style="fill:#8d2635;stroke-width:1.37146"
         d="m 9.3426406,213.24355 c -1.544166,-1.09761 -2.5508243,-2.04258 -3.2053639,-3.00894 -0.2956942,-0.43656 -0.054299,-0.24795 0.5364333,0.41915 0.5907325,0.6671 1.7365123,1.66916 2.5461772,2.22679 1.3348088,0.91932 1.6490598,1.19052 1.3795238,1.19052 -0.05093,0 -0.6164732,-0.37238 -1.2567704,-0.82752 z"
         id="path24934" />
      <path
         style="fill:#8d2635;stroke-width:1.37146"
         d="m 18.780079,214.57065 c 0.09999,-0.16179 0.01772,-0.40898 -0.182823,-0.54931 -0.291606,-0.20405 -0.296182,-0.28275 -0.02285,-0.39302 0.262444,-0.10588 0.270277,-0.22403 0.03375,-0.50903 -0.242782,-0.29253 -0.217101,-0.37114 0.121249,-0.37114 0.324428,0 0.429272,0.25848 0.429272,1.05833 0,0.58209 -0.12609,1.05834 -0.280199,1.05834 -0.154109,0 -0.198386,-0.13238 -0.09839,-0.29417 z"
         id="path24933" />
      <path
         style="fill:#8d2635;stroke-width:1.37146"
         d="m 18.203985,216.77899 c -0.161276,-0.10691 -0.300171,-0.6111 -0.308657,-1.12042 -0.06963,-4.17934 -0.444322,-8.13462 -0.826155,-8.72102 -0.233224,-0.35817 -0.289693,-0.56845 -0.125487,-0.46729 0.812295,0.50044 1.112541,1.96139 1.200188,5.83994 0.04882,2.16022 0.178053,3.98295 0.287193,4.05051 0.109141,0.0676 0.200261,-0.033 0.202489,-0.22351 0.003,-0.25872 0.06555,-0.24913 0.247126,0.0379 0.398714,0.63027 -0.04269,1.02419 -0.676697,0.60389 z"
         id="path24932" />
      <path
         style="fill:#8d2635;stroke-width:1.37146"
         d="m 22.114134,216.65075 c 0.92845,-1.71694 4.590454,-5.223 6.522036,-6.2443 0.919759,-0.48631 1.716037,-0.84046 1.769506,-0.78699 0.05347,0.0535 -0.662294,0.491 -1.590582,0.9723 -2.168045,1.12407 -4.885046,3.61796 -6.118139,5.61573 -1.122335,1.81833 -1.468952,2.08195 -0.582821,0.44326 z"
         id="path24931" />
      <path
         style="fill:#8d2635;stroke-width:1.37146"
         d="m -1.5051601,216.40015 c -0.9972108,-1.97546 -1.6415374,-3.7329 -1.2886199,-3.51479 0.1411406,0.0872 0.2566194,0.3067 0.2566194,0.48771 0,0.18101 0.4719669,1.30508 1.0488153,2.49793 0.57684851,1.19285 0.99528116,2.16882 0.92985039,2.16882 -0.0654308,0 -0.49143009,-0.73785 -0.94666519,-1.63967 z"
         id="path24930" />
      <path
         style="fill:#8d2635;stroke-width:1.37146"
         d="m 18.688717,218.52236 c -0.238551,-0.23855 -0.235462,-0.40483 0.01323,-0.71225 0.257437,-0.31822 0.256137,-0.36001 -0.0063,-0.20234 -0.181901,0.10928 -0.330729,0.0726 -0.330729,-0.0815 0,-0.1541 0.180485,-0.28019 0.401077,-0.28019 0.282694,0 0.383226,0.23428 0.340596,0.79375 -0.03326,0.43656 -0.07087,0.79375 -0.08358,0.79375 -0.0127,0 -0.163139,-0.14005 -0.334301,-0.31121 z"
         id="path24929" />
      <path
         style="fill:#8d2635;stroke-width:1.37146"
         d="m 37.622227,220.2257 c 0.768863,-0.0536 1.959488,-0.0531 2.645834,0.001 0.686345,0.0543 0.05728,0.0982 -1.397932,0.0975 -1.455208,-6.9e-4 -2.016764,-0.0451 -1.247902,-0.0987 z"
         id="path24928" />
      <path
         style="fill:#8d2635;stroke-width:1.37146"
         d="m 29.212838,220.85387 c 0,-0.0712 0.684609,-0.51731 1.521354,-0.99144 2.149242,-1.21785 5.041306,-4.20104 6.506832,-6.71187 0.677726,-1.16113 1.23223,-1.98959 1.23223,-1.84103 0,0.79652 -2.835288,4.73828 -4.580666,6.36827 -1.649595,1.54054 -4.67975,3.59706 -4.67975,3.17607 z"
         id="path24927" />
      <path
         style="fill:#8d2635;stroke-width:1.37146"
         d="m 14.15513,220.32491 c -1.226841,-1.88303 -4.2004523,-4.88108 -5.5136454,-5.55896 -0.4729427,-0.24414 -0.8598958,-0.51245 -0.8598958,-0.59625 0,-0.3813 2.2643562,1.24485 3.7321222,2.68022 1.595234,1.56003 4.284575,5.15865 3.855195,5.15865 -0.06426,0 -0.610455,-0.75765 -1.213776,-1.68366 z"
         id="path24926" />
      <path
         style="fill:#8d2635;stroke-width:1.37146"
         d="m 2.9846576,221.94238 c -0.8952402,-0.76398 -2.05564751,-1.92484 -2.5786829,-2.57969 -0.62692538,-0.78491 -0.32119527,-0.55071 0.8972163,0.68732 1.0165044,1.03287 2.2649085,2.19241 2.7742314,2.57675 0.5093228,0.38435 0.8380448,0.70013 0.7304932,0.70175 -0.1075517,0.002 -0.9280177,-0.62215 -1.823258,-1.38613 z"
         id="path24925" />
      <path
         style="fill:#8d2635;stroke-width:1.37146"
         d="m -2.1984482,224.45955 c 0.6956148,-0.0547 1.76717722,-0.054 2.38124991,0.001 0.61407268,0.0555 0.0449333,0.10023 -1.26475411,0.0994 -1.3096874,-8e-4 -1.8121105,-0.0462 -1.1164958,-0.10089 z"
         id="path24924" />
      <path
         style="fill:#8d2635;stroke-width:1.37146"
         d="m 6.6571097,224.37285 c -0.8367447,-0.4319 -1.5213541,-0.8446 -1.5213541,-0.91713 0,-0.1182 3.1485852,1.38067 3.4175346,1.62691 0.3463418,0.3171 -0.5746032,-0.0276 -1.8961805,-0.70978 z"
         id="path24923" />
      <path
         style="fill:#8d2635;stroke-width:1.37146"
         d="m -6.0952272,226.84932 c -0.6515049,-0.83008 -1.1131957,-1.57422 -1.0259794,-1.65365 0.087216,-0.0794 0.2128003,0.008 0.2790757,0.19348 0.066275,0.18584 0.5885251,0.92998 1.1605547,1.65365 0.5720297,0.72367 0.9794951,1.31577 0.9054787,1.31577 -0.074016,0 -0.6676248,-0.67916 -1.3191297,-1.50925 z"
         id="path24922" />
      <path
         style="fill:#8d2635;stroke-width:1.37146"
         d="m 23.361362,227.80934 c 0.868714,-1.33741 3.450515,-3.8146 4.75149,-4.55896 1.300012,-0.74381 0.98245,-0.333 -0.45624,0.5902 -1.222995,0.78479 -3.135245,2.66285 -4.474688,4.39468 -0.333825,0.43162 -0.253078,0.23996 0.179438,-0.42592 z"
         id="path24921" />
      <path
         style="fill:#8d2635;stroke-width:1.37146"
         d="m 32.410298,232.33283 c 3.964284,-2.22625 7.062888,-5.32152 9.30968,-9.29966 1.102919,-1.95282 1.194281,-2.23069 0.786512,-2.39219 -0.373674,-0.14799 -0.342834,-0.18626 0.162259,-0.20132 0.758245,-0.0226 0.708318,0.14853 -0.834924,2.86196 -2.039075,3.58523 -4.980504,6.61475 -8.429658,8.68212 -0.777262,0.46588 -1.651329,0.92173 -1.942371,1.01299 -0.291042,0.0913 0.135784,-0.20749 0.948502,-0.6639 z"
         id="path24920" />
      <path
         style="fill:#8d2635;stroke-width:1.37146"
         d="m -0.29765923,232.49313 c -0.72892047,-0.49088 -1.50123737,-1.1067 -1.71625987,-1.36849 -0.2150224,-0.26178 0.1478614,-0.0685 0.8064086,0.4295 0.65854716,0.49801 1.49198461,1.10758 1.85208323,1.35461 0.36009867,0.24703 0.59360427,0.45539 0.51890137,0.46302 -0.074703,0.008 -0.73221289,-0.38775 -1.46113333,-0.87864 z"
         id="path24919" />
      <path
         style="fill:#8d2635;stroke-width:1.37146"
         d="m 19.483341,229.21846 c -0.03305,-2.80127 -0.166553,-5.09323 -0.29668,-5.09323 -0.130127,0 -0.219424,-0.28623 -0.198438,-0.63607 0.02099,-0.34983 0.118648,-0.58638 0.217026,-0.52564 0.09838,0.0607 0.191371,-2.25826 0.206652,-5.15331 0.02527,-4.78753 -0.01418,-5.27983 -0.436038,-5.44171 -0.674814,-0.25895 -0.03755,-0.5833 1.244753,-0.63355 0.570469,-0.0223 1.659137,-0.27695 2.419261,-0.56577 0.760125,-0.28883 1.426141,-0.48104 1.480037,-0.42715 0.09655,0.0966 -1.168615,0.60655 -3.241451,1.30665 l -1.058333,0.35745 v 5.52882 c 0,3.3799 -0.102837,5.60438 -0.264583,5.72321 -0.147319,0.10823 -0.04683,0.19618 0.226744,0.19844 0.35931,0.003 0.443964,-0.12036 0.315054,-0.45897 -0.141336,-0.37125 -0.110238,-0.39747 0.156901,-0.13229 0.183247,0.1819 0.636785,0.34502 1.007863,0.3625 0.491262,0.0231 0.370497,0.10497 -0.444206,0.301 l -1.118894,0.26922 -0.07779,5.05682 -0.07779,5.05681 z"
         id="path24918" />
      <path
         style="fill:#8d2635;stroke-width:1.37146"
         d="m 2.6883599,234.2943 c -0.6912239,-0.35982 -1.2567707,-0.71347 -1.2567707,-0.78589 0,-0.1181 2.6193027,1.11908 2.8883679,1.36428 0.3275818,0.29851 -0.5332207,-0.007 -1.6315972,-0.57839 z"
         id="path24917" />
      <path
         style="fill:#8d2635;stroke-width:1.37146"
         d="m 25.508671,235.15804 c 0,-0.17941 3.236186,-1.27023 3.370367,-1.13605 0.05692,0.0569 -0.529294,0.31156 -1.302706,0.56586 -0.773411,0.25431 -1.555031,0.5173 -1.736932,0.58444 -0.181901,0.0671 -0.330729,0.0607 -0.330729,-0.0143 z"
         id="path24916" />
      <path
         style="fill:#8d2635;stroke-width:1.37146"
         d="m 16.272367,235.83322 c -1.597213,-3.28754 -5.00019,-7.25796 -7.3641271,-8.59209 -1.6605849,-0.93717 -1.8556294,-1.2469 -0.2785539,-0.44234 1.339294,0.68326 3.820844,2.99766 5.380315,5.01793 1.207082,1.56375 3.171899,4.95681 2.980924,5.14779 -0.06253,0.0625 -0.385886,-0.44655 -0.718558,-1.13129 z"
         id="path24915" />
      <path
         style="fill:#8d2635;stroke-width:1.37146"
         d="m 9.2367971,238.51881 c -0.5820833,-0.35078 -1.7727083,-0.87919 -2.6458332,-1.17425 -0.9215385,-0.31142 -1.2129058,-0.47738 -0.694553,-0.39561 1.1008821,0.17366 3.8863438,1.40268 4.2949851,1.89507 0.385817,0.46488 0.318267,0.44187 -0.9545989,-0.32521 z"
         id="path24914" />
      <path
         style="fill:#8d2635;stroke-width:1.37146"
         d="m 42.840779,237.37034 2.361557,-2.4976 -0.784853,-0.35804 -0.784854,-0.35805 0.793207,0.16517 c 0.436264,0.0908 0.836206,0.20817 0.88876,0.26073 0.190036,0.19003 -1.020292,1.61888 -2.908241,3.43331 -1.734068,1.66653 -1.690546,1.60186 0.434424,-0.64552 z"
         id="path24913" />
      <path
         style="fill:#8d2635;stroke-width:1.37146"
         d="m 36.621171,242.3175 c 0.07276,-0.0807 0.965729,-0.69369 1.984375,-1.36219 1.018645,-0.66849 1.46817,-0.88284 0.998944,-0.47632 -0.733097,0.63512 -3.355221,2.25105 -2.983319,1.83851 z"
         id="path24912" />
      <path
         style="fill:#8d2635;stroke-width:1.37146"
         d="m 18.483653,242.74694 c 0.01777,-0.33258 0.117381,-0.68977 0.221368,-0.79375 0.103987,-0.10399 0.187244,-0.37759 0.185016,-0.60799 -0.0036,-0.36709 -0.03579,-0.36982 -0.260532,-0.0221 -0.196517,0.30409 -0.257428,0.20821 -0.260532,-0.41011 -0.0022,-0.44383 0.144777,-0.96732 0.326678,-1.16329 0.268972,-0.28978 0.25662,-0.31488 -0.06615,-0.13442 -0.352778,0.19724 -0.352778,0.16651 0,-0.27656 0.231305,-0.2905 0.2589,-0.41556 0.06615,-0.29975 -0.210183,0.12627 -0.330729,0.0427 -0.330729,-0.22941 0,-0.25949 0.121922,-0.35276 0.309546,-0.2368 0.201561,0.12457 0.256251,0.0524 0.156771,-0.20681 -0.08403,-0.21897 -0.04469,-0.56593 0.08741,-0.77101 0.150789,-0.2341 0.230909,0.7678 0.215266,2.69187 -0.01832,2.25257 -0.112059,3.06476 -0.35374,3.06476 -0.180852,0 -0.314286,-0.27211 -0.29652,-0.60468 z"
         id="path24911" />
      <path
         style="fill:#8d2635;stroke-width:1.37146"
         d="m -4.9620746,240.78881 c -2.3307948,-2.35207 -2.8637038,-3.16983 -2.0656914,-3.16983 0.1323654,0 0.1720011,0.17894 0.088079,0.39763 -0.1010903,0.26344 0.7037479,1.24565 2.384827,2.91042 1.3955768,1.38203 2.4659491,2.51278 2.3786051,2.51278 -0.087344,0 -1.3409629,-1.19295 -2.7858197,-2.651 z"
         id="path24910" />
      <path
         style="fill:#8d2635;stroke-width:1.37146"
         d="m 20.338796,244.63044 c 0.675328,-2.12113 4.929766,-7.045 7.039768,-8.14746 0.873387,-0.45635 0.883112,-0.45635 0.253475,0 -3.040984,2.20401 -4.963375,4.30025 -6.644962,7.2459 -0.449217,0.7869 -0.740943,1.1926 -0.648281,0.90156 z"
         id="path24909" />
      <path
         style="fill:#8d2635;stroke-width:1.37146"
         d="m 13.914178,242.57992 c -1.188717,-1.51125 -1.45675,-1.94137 -0.700727,-1.12448 1.121217,1.21149 2.91253,3.57187 2.710719,3.57187 -0.04671,0 -0.951204,-1.10132 -2.009992,-2.44739 z"
         id="path24908" />
      <path
         style="fill:#8d2635;stroke-width:1.37146"
         d="m 2.9690186,246.24927 c -2.33742906,-1.02053 -4.3330086,-2.14501 -4.6142371,-2.60005 -0.1065573,-0.17241 0.1551797,-0.0672 0.5816377,0.23379 1.04768153,0.73947 3.3276705,1.8742 5.2656457,2.62068 0.877332,0.33793 1.4165553,0.61879 1.198274,0.62413 -0.2182812,0.005 -1.3123753,-0.39001 -2.4313203,-0.87855 z"
         id="path24907" />
      <path
         style="fill:#8d2635;stroke-width:1.37146"
         d="m 17.781515,243.19429 0.07805,-4.47953 -0.73951,-0.11137 -0.73951,-0.11137 0.755911,-0.0396 c 0.572642,-0.03 0.716975,-0.14111 0.595313,-0.45815 -0.08833,-0.23019 -0.160599,-2.55117 -0.160599,-5.15774 v -4.73922 l -1.977492,-0.58178 c -1.087621,-0.31999 -1.938884,-0.6204 -1.891696,-0.66759 0.131036,-0.13103 2.881004,0.46969 3.406167,0.74408 0.546024,0.28528 0.50385,0.77158 0.495683,-5.7157 l -0.006,-4.7625 -2.278839,-0.88744 c -1.253361,-0.4881 -2.235329,-0.93096 -2.18215,-0.98413 0.129237,-0.12924 4.212269,1.45638 4.632761,1.7991 0.242124,0.19734 0.330729,1.53261 0.330729,4.98405 0,4.57528 0.195264,5.69867 0.81928,4.71347 0.175063,-0.27639 0.231931,-0.28253 0.235002,-0.0254 0.0022,0.18659 -0.253883,0.43467 -0.569136,0.55129 l -0.573188,0.21203 0.602364,0.60237 c 0.5063,0.5063 0.55642,0.7032 0.314277,1.23464 -0.178794,0.39241 -0.189863,0.63229 -0.02918,0.63229 0.147249,0 0.258911,0.91285 0.258911,2.11666 0,1.16417 -0.107214,2.11667 -0.238252,2.11667 -0.131039,0 -0.198879,-0.42365 -0.150755,-0.94143 0.05904,-0.63524 -0.03558,-0.98866 -0.290915,-1.08664 -0.208127,-0.0799 -0.378412,-0.2478 -0.378412,-0.37319 0,-0.12538 0.178594,-0.15943 0.396875,-0.0757 0.423121,0.16236 0.52409,-0.32327 0.227763,-1.09549 -0.106116,-0.27654 -0.234453,-0.33498 -0.344521,-0.15688 -0.09648,0.1561 -0.187184,-0.13157 -0.201575,-0.63928 -0.01439,-0.5077 0.07737,-0.92309 0.203925,-0.92309 0.126551,0 0.163066,0.20836 0.08115,0.46302 -0.125632,0.39055 -0.104397,0.4009 0.135659,0.0661 0.209296,-0.29186 0.19145,-0.46689 -0.06744,-0.66146 -0.193627,-0.14552 -0.369999,-0.38365 -0.391939,-0.52917 -0.02194,-0.14552 -0.129187,-0.29455 -0.238327,-0.33119 -0.109141,-0.0366 -0.122135,2.34462 -0.02887,5.29167 0.244885,7.73853 0.258335,14.48634 0.02887,14.48674 -0.109141,1.8e-4 -0.163314,-2.01545 -0.120386,-4.4792 z"
         id="path24906" />
      <path
         style="fill:#8d2635;stroke-width:1.37146"
         d="m 10.096693,247.74267 c 0.763984,-0.0534 2.01414,-0.0534 2.778125,0 0.763984,0.0534 0.138906,0.0972 -1.389063,0.0972 -1.5279684,0 -2.1530465,-0.0437 -1.389062,-0.0972 z"
         id="path24905" />
      <path
         style="fill:#8d2635;stroke-width:1.37146"
         d="m 19.445809,247.54086 c -0.04617,-0.58209 -0.136436,-0.86012 -0.2006,-0.61784 -0.06416,0.24227 -0.288477,0.50642 -0.498474,0.587 -0.517589,0.19862 -0.479889,-0.0183 0.113958,-0.65573 0.440446,-0.47276 0.501113,-1.03992 0.543631,-5.08217 0.02632,-2.50251 0.130648,-4.63373 0.231833,-4.73605 0.101185,-0.10232 0.153218,1.56456 0.115628,3.70417 -0.09771,5.56144 -0.208664,8.02758 -0.305976,6.80062 z"
         id="path24904" />
      <path
         style="fill:#8d2635;stroke-width:1.37146"
         d="m 16.777422,252.97685 c 0,-1.15884 -1.217496,-4.30847 -1.871174,-4.84068 -0.312784,-0.25466 -0.4549,-0.46302 -0.315812,-0.46302 0.727407,0 2.096719,2.70716 2.367101,4.67981 0.15554,1.13479 0.162344,1.14102 1.245192,1.14102 h 1.088798 l 0.07819,-1.52135 c 0.137635,-2.67788 2.046941,-5.91808 3.450492,-5.85568 0.688386,0.0306 0.686386,0.0351 -0.08967,0.20023 -0.559599,0.11909 -1.045311,0.54481 -1.646519,1.44314 -1.023386,1.52915 -1.392738,2.74976 -1.394713,4.60918 l -0.0015,1.38906 H 18.23263 c -1.43553,0 -1.455208,-0.0106 -1.455208,-0.78171 z"
         id="path24902" />
      <path
         style="fill:#166e63;stroke-width:1.37146"
         d="m 19.479669,216.93034 c -0.05487,-4.29541 -0.04026,-4.42809 0.53162,-4.82865 0.323421,-0.22653 0.829436,-0.40282 1.124479,-0.39174 0.359376,0.0135 0.230779,0.13029 -0.389601,0.35388 l -0.926041,0.33375 -0.14202,4.47477 -0.14202,4.47476 z"
         id="path24876" />
      <path
         style="fill:#166e63;stroke-width:1.37146"
         d="m 19.533079,229.15232 c 0,-2.69214 0.03929,-3.79347 0.08731,-2.4474 0.04802,1.34607 0.04802,3.54872 0,4.89479 -0.04802,1.34607 -0.08731,0.24474 -0.08731,-2.44739 z"
         id="path24875" />
      <path
         style="fill:#166e63;stroke-width:1.37146"
         d="m 17.630471,232.65804 c -0.03261,-2.51023 -0.155605,-4.56406 -0.273313,-4.56406 -0.117707,0 -0.445129,-0.17267 -0.727604,-0.38371 -0.497184,-0.37146 -0.494851,-0.379 0.07305,-0.23599 1.077933,0.27143 1.149699,0.62699 1.066693,5.2849 l -0.07953,4.46293 z"
         id="path24874" />
      <path
         style="fill:#166e63;stroke-width:1.37146"
         d="m 19.529747,241.32315 c 0,-2.25557 0.04058,-3.17831 0.09017,-2.05052 0.0496,1.12778 0.0496,2.97325 0,4.10104 -0.0496,1.12779 -0.09017,0.20505 -0.09017,-2.05052 z"
         id="path24873" />
      <path
         style="fill:#166e63;stroke-width:1.37146"
         d="m 17.944017,243.04294 c -3.04e-4,-2.47385 0.03946,-3.5215 0.08838,-2.3281 0.04891,1.19341 0.04916,3.21747 5.53e-4,4.49792 -0.04861,1.28045 -0.08862,0.30403 -0.08893,-2.16982 z"
         id="path24872" />
      <path
         style="fill:#0f645b;stroke-width:1.37146"
         d="m 19.479669,216.93034 c -0.05487,-4.29541 -0.04026,-4.42809 0.53162,-4.82865 0.323421,-0.22653 0.829436,-0.40282 1.124479,-0.39174 0.359376,0.0135 0.230779,0.13029 -0.389601,0.35388 l -0.926041,0.33375 -0.14202,4.47477 -0.14202,4.47476 z"
         id="path24840" />
      <path
         style="fill:#0f645b;stroke-width:1.37146"
         d="m 19.533079,229.15232 c 0,-2.69214 0.03929,-3.79347 0.08731,-2.4474 0.04802,1.34607 0.04802,3.54872 0,4.89479 -0.04802,1.34607 -0.08731,0.24474 -0.08731,-2.44739 z"
         id="path24839" />
      <path
         style="fill:#0f645b;stroke-width:1.37146"
         d="m 17.630471,232.65804 c -0.03261,-2.51023 -0.155605,-4.56406 -0.273313,-4.56406 -0.117707,0 -0.445129,-0.17267 -0.727604,-0.38371 -0.497184,-0.37146 -0.494851,-0.379 0.07305,-0.23599 1.077933,0.27143 1.149699,0.62699 1.066693,5.2849 l -0.07953,4.46293 z"
         id="path24838" />
      <path
         style="fill:#0f645b;stroke-width:1.37146"
         d="m 19.529747,241.32315 c 0,-2.25557 0.04058,-3.17831 0.09017,-2.05052 0.0496,1.12778 0.0496,2.97325 0,4.10104 -0.0496,1.12779 -0.09017,0.20505 -0.09017,-2.05052 z"
         id="path24837" />
      <path
         style="fill:#0f645b;stroke-width:1.37146"
         d="m 17.944017,243.04294 c -3.04e-4,-2.47385 0.03946,-3.5215 0.08838,-2.3281 0.04891,1.19341 0.04916,3.21747 5.53e-4,4.49792 -0.04861,1.28045 -0.08862,0.30403 -0.08893,-2.16982 z"
         id="path24836" />
      <path
         style="fill:#61202c;stroke-width:1.37146"
         d="m 19.479669,216.93034 c -0.05487,-4.29541 -0.04026,-4.42809 0.53162,-4.82865 0.323421,-0.22653 0.829436,-0.40282 1.124479,-0.39174 0.359376,0.0135 0.230779,0.13029 -0.389601,0.35388 l -0.926041,0.33375 -0.14202,4.47477 -0.14202,4.47476 z"
         id="path24675" />
      <path
         style="fill:#61202c;stroke-width:1.37146"
         d="m 19.533079,229.15232 c 0,-2.69214 0.03929,-3.79347 0.08731,-2.4474 0.04802,1.34607 0.04802,3.54872 0,4.89479 -0.04802,1.34607 -0.08731,0.24474 -0.08731,-2.44739 z"
         id="path24674" />
      <path
         style="fill:#61202c;stroke-width:1.37146"
         d="m 17.630471,232.65804 c -0.03261,-2.51023 -0.155605,-4.56406 -0.273313,-4.56406 -0.117707,0 -0.445129,-0.17267 -0.727604,-0.38371 -0.497184,-0.37146 -0.494851,-0.379 0.07305,-0.23599 1.077933,0.27143 1.149699,0.62699 1.066693,5.2849 l -0.07953,4.46293 z"
         id="path24673" />
      <path
         style="fill:#61202c;stroke-width:1.37146"
         d="m 19.529747,241.32315 c 0,-2.25557 0.04058,-3.17831 0.09017,-2.05052 0.0496,1.12778 0.0496,2.97325 0,4.10104 -0.0496,1.12779 -0.09017,0.20505 -0.09017,-2.05052 z"
         id="path24672" />
      <path
         style="fill:#61202c;stroke-width:1.37146"
         d="m 17.944017,243.04294 c -3.04e-4,-2.47385 0.03946,-3.5215 0.08838,-2.3281 0.04891,1.19341 0.04916,3.21747 5.53e-4,4.49792 -0.04861,1.28045 -0.08862,0.30403 -0.08893,-2.16982 z"
         id="path24671" />
    </g>
  </g>
</svg>
