<?xml version="1.0" encoding="UTF-8" standalone="no"?>
<!-- Created with Inkscape (http://www.inkscape.org/) -->

<svg
   width="185"
   height="185"
   viewBox="0 0 48.947914 48.947918"
   version="1.1"
   id="svg1"
   sodipodi:docname="symphoricarpos-albus-11.svg"
   inkscape:version="1.4 (e7c3feb100, 2024-10-09)"
   xmlns:inkscape="http://www.inkscape.org/namespaces/inkscape"
   xmlns:sodipodi="http://sodipodi.sourceforge.net/DTD/sodipodi-0.dtd"
   xmlns="http://www.w3.org/2000/svg"
   xmlns:svg="http://www.w3.org/2000/svg">
  <sodipodi:namedview
     id="namedview1"
     pagecolor="#ffffff"
     bordercolor="#666666"
     borderopacity="1.0"
     inkscape:showpageshadow="2"
     inkscape:pageopacity="0.0"
     inkscape:pagecheckerboard="true"
     inkscape:deskcolor="#d1d1d1"
     inkscape:zoom="2.5146646"
     inkscape:cx="60.843104"
     inkscape:cy="148.13109"
     inkscape:window-width="1920"
     inkscape:window-height="1023"
     inkscape:window-x="0"
     inkscape:window-y="0"
     inkscape:window-maximized="1"
     inkscape:current-layer="g4870" />
  <defs
     id="defs1" />
  <g
     id="g4870"
     transform="matrix(0.68845938,0,0,0.68845938,-104.13649,-23.338579)"
     style="stroke-width:2.70845">
    <path
       style="fill:#59724b;stroke-width:2.70845"
       d="m 183.48054,104.48524 c -0.0968,-0.30489 -0.19687,-4.620909 -0.22245,-9.59115 -0.0413,-8.019215 -0.10082,-9.183297 -0.52885,-10.337778 -0.44431,-1.198414 -1.29952,-2.686783 -2.28341,-3.97395 -1.16008,-1.517649 -3.58544,-3.853197 -4.00138,-3.853197 -0.26286,0 -0.60039,0.228841 -0.75008,0.508535 -0.14969,0.279694 -0.47768,0.714058 -0.72888,0.965252 -0.43256,0.432566 -0.42216,0.479126 0.19671,0.880527 1.08673,0.704855 2.0865,1.935672 2.54277,3.130408 0.56134,1.469835 0.3737,4.044272 -0.40618,5.57296 -0.65316,1.280312 -2.29244,2.577566 -3.7547,2.97131 -0.54963,0.148003 -1.22075,0.573044 -1.49136,0.944535 l -0.49203,0.675439 -0.65066,-0.629703 c -0.72762,-0.704177 -2.51472,-1.790097 -2.94597,-1.790097 -0.15437,0 -0.70445,0.372082 -1.2224,0.826848 -1.23077,1.080625 -2.40878,1.554402 -3.86491,1.554402 -1.50717,0 -2.24557,-0.28747 -3.44623,-1.341657 -0.89043,-0.781808 -0.99182,-0.812279 -1.30008,-0.390707 -0.30385,0.41553 -0.36607,0.418995 -0.68228,0.03798 -0.21791,-0.262565 -0.28111,-0.691738 -0.16911,-1.148371 0.0984,-0.401019 0.16437,-1.578126 0.14669,-2.615794 -0.0191,-1.122846 0.12348,-2.259142 0.35226,-2.806692 0.21143,-0.506012 0.93334,-1.378865 1.60424,-1.939672 0.67091,-0.560807 1.21983,-1.084434 1.21983,-1.163616 0,-0.07918 -0.36673,-0.306297 -0.81496,-0.504701 -1.89289,-0.837876 -3.18212,-4.02766 -2.62773,-6.501473 0.15512,-0.692172 0.44969,-1.582708 0.65461,-1.978969 0.56865,-1.099652 2.36765,-2.596993 3.49696,-2.910583 1.57175,-0.436453 3.43147,-0.341855 4.55581,0.231739 0.55565,0.283473 1.78765,1.355036 2.73776,2.38125 1.62636,1.756611 1.79507,1.866296 2.88179,1.873549 1.80878,0.01207 4.56372,0.884515 5.96303,1.888398 1.52541,1.094342 3.96905,3.934481 4.83672,5.621502 0.34331,0.667505 0.75431,1.213896 0.91333,1.214202 0.20094,3.87e-4 0.24878,-1.028635 0.15684,-3.373437 -0.1032,-2.632233 -0.24269,-3.576796 -0.63446,-4.296462 -0.71087,-1.305831 -3.89321,-4.064735 -3.79745,-4.622607 l 0.5928,-3.453317 c 0.26249,-1.529113 1.30378,3.061164 1.69339,3.571875 0.38961,0.510711 1.04947,1.436738 1.46636,2.057838 0.41688,0.621099 0.77005,1.097349 0.78481,1.058333 0.0148,-0.03902 -0.034,-2.630782 -0.1084,-5.75948 -0.13377,-5.62648 -0.14352,-5.704418 -0.89383,-7.14375 -0.41722,-0.800364 -0.98954,-1.78263 -1.27183,-2.182812 -0.44235,-0.627085 -1.99771,0.391192 -1.8265,-0.727604 l 1.05648,-6.903763 c 0.44866,1.636358 1.08655,5.378911 1.08655,6.374842 0,0.124597 0.15188,0.383872 0.3375,0.576168 0.18563,0.192295 0.60034,0.766346 0.92159,1.275669 l 0.58408,0.926042 0.004,-3.255992 0.004,-3.255991 -1.32757,-1.6388 3.91213,0.08099 c 1.80688,0.03741 -1.12536,1.495832 -1.21521,3.836459 -0.0503,1.309687 -0.0515,2.797968 -0.003,3.307291 l 0.0886,0.926042 0.57778,-0.926042 c 0.31778,-0.509323 0.82558,-1.190865 1.12844,-1.514539 7.54573,-8.06423 3.87964,-0.629342 0.70351,1.054837 -0.31903,0.400104 -0.99173,1.406752 -1.49489,2.236996 l -0.91484,1.509535 -0.008,7.683148 c -0.005,4.225731 0.066,8.040335 0.15682,8.476898 0.16385,0.787262 0.1707,0.781856 0.83812,-0.661458 0.3701,-0.800365 1.34133,-2.404545 2.15828,-3.564845 0.81696,-1.1603 1.2205,-2.856368 1.48537,-2.684109 l 3.08512,2.00639 c -1.81401,0.0081 -2.13957,0.08392 -2.59482,0.604543 -0.83256,0.9521 -2.74067,3.911012 -3.52344,5.463797 -1.26305,2.505534 -1.45884,3.568175 -1.46191,7.934583 l -0.003,4.071817 0.69553,-1.029109 c 0.38253,-0.56601 1.13903,-1.56489 1.68109,-2.219734 1.20043,-1.450177 1.59213,-2.168269 1.59213,-2.918768 0,-0.314768 0.4897,-1.513561 1.08821,-2.663985 0.74185,-1.425914 3.0039,-4.768378 2.57969,-3.456896 l -2.92398,9.039649 c -0.21232,0.656405 -2.85037,2.565753 -3.73768,4.438827 -0.83578,1.764276 -0.84381,1.820795 -0.97845,6.883899 -0.10966,4.123956 -0.21135,5.152816 -0.52916,5.353756 -0.57983,0.36661 -0.7356,0.31681 -0.93058,-0.29749 z M 164.83586,90.487271 c 0.57073,-0.291167 1.26728,-0.775826 1.54789,-1.077021 0.50506,-0.542122 0.50322,-0.560072 -0.18326,-1.78571 -0.59314,-1.058995 -0.69419,-1.559539 -0.69854,-3.460379 -0.005,-1.974494 -0.0641,-2.245322 -0.53425,-2.4288 -1.49104,-0.581869 -3.64437,0.004 -4.91663,1.337637 -1.21682,1.27555 -1.71839,2.954297 -1.32223,4.425506 0.54619,2.0284 2.26547,3.515395 4.06659,3.517171 0.5515,5.44e-4 1.46969,-0.237238 2.04043,-0.528404 z m 6.51845,-1.190398 c 0.0838,-0.218282 0.25862,-0.396875 0.38858,-0.396875 0.12995,0 0.23627,0.178593 0.23627,0.396875 0,0.237952 0.24413,0.396875 0.60966,0.396875 0.62744,0 2.72774,-1.205201 3.26415,-1.873041 0.16607,-0.206755 0.49739,-0.957112 0.73627,-1.66746 0.39208,-1.165877 0.39583,-1.424005 0.0386,-2.652937 -0.49123,-1.689775 -1.96359,-3.454841 -3.23076,-3.873046 -1.30561,-0.43089 -3.16811,-0.13024 -4.37517,0.706251 -1.19778,0.830064 -2.33439,2.969291 -2.33439,4.393597 0,1.259561 0.52915,2.541433 1.35497,3.282466 0.62044,0.556737 2.5501,1.649698 2.95282,1.672476 0.11371,0.0064 0.27527,-0.1669 0.35903,-0.385181 z m 18.64981,-3.853552 -0.23887,1.063153 1.22727,-0.704391 c 0.67499,-0.387415 1.70351,-1.022754 2.2856,-1.411864 0.58208,-0.38911 1.47505,-0.921932 1.98437,-1.184048 1.46303,-0.75293 5.37326,-2.243673 5.88516,-2.243673 0.27657,0 0.46484,0.19906 0.46484,0.491483 0,0.371513 -0.59741,0.7353 -2.44739,1.490319 -2.94364,1.201363 -8.59182,4.663546 -8.66511,4.384812 z m -22.63003,-5.573443 c 0.75106,-0.83961 2.66723,-1.579005 4.60161,-1.775629 1.70108,-0.172909 1.72172,-0.18477 2.32341,-1.334733 0.33389,-0.63815 0.54879,-1.218555 0.47756,-1.289789 -0.0712,-0.07123 -0.93818,-0.217686 -1.92653,-0.325449 -2.55377,-0.278442 -3.32647,0.08153 -3.90338,1.818428 -0.2621,0.789129 -0.68956,1.482465 -1.03553,1.679638 -1.42332,0.811174 -2.27885,1.408645 -2.2804,1.59255 -0.004,0.43184 1.26877,0.165414 1.74326,-0.365016 z m -2.30533,-0.802264 c 2.14959,-1.284369 2.94165,-2.538449 2.94165,-4.657517 0,-1.074223 -0.12812,-1.324227 -1.25723,-2.453345 -1.5727,-1.572698 -3.05199,-2.061235 -4.82819,-1.594516 -1.29078,0.339171 -2.45758,1.285591 -3.09838,2.513175 -0.56239,1.077375 -0.33893,4.165027 0.37162,5.134719 1.19559,1.631641 4.04927,2.145686 5.87053,1.057484 z m 25.43437,-7.94738 c -0.007,0.171035 2.04894,-1.443574 3.30415,-2.595198 0.72761,-0.667558 1.91823,-1.621323 2.64584,-2.119477 1.5759,-1.078943 4.05809,-2.376394 4.54634,-2.376394 0.19165,0 0.34845,0.22368 0.34845,0.497067 0,0.295511 -0.30182,0.622084 -0.74433,0.805377 -1.15979,0.480402 -4.74728,2.888097 -7.12667,4.782972 l -2.15954,1.719792 1.24496,0.15687 z M 177.92408,68.80494 c 0.0854,-0.13822 -0.098,-0.386902 -0.4077,-0.552628 -1.06577,-0.57038 -5.00805,-3.481125 -5.00805,-3.697641 0,-0.423401 0.67268,-0.447228 1.45521,-0.05155 1.08118,0.546694 3.54195,2.382737 4.30582,3.212671 0.34371,0.373447 0.56442,0.5004 0.49045,0.282119 -0.074,-0.218282 -0.33364,-1.051719 -0.57704,-1.852084 l -0.25869,2.659109 z m 10.724,-14.628462 -1.3e-4,0.862941 1.42145,-1.127524 c 8.78918,-6.97178 4.70571,-2.076903 3.07647,-0.989674 -1.51764,1.012743 -4.23334,3.245319 -4.23334,3.480223 0,0.120112 2.54893,0.993502 1.87158,0.218386 z m -8.3828,1.518312 c -0.0265,-0.291042 0.14772,-3.549003 -0.20828,-2.513542 l -1.06601,3.100593 c -0.37288,1.084566 1.31645,-0.128737 1.27466,-0.587051 z m 4.51926,-4.391727 -0.9074,0.555269 z"
       id="path4391"
       sodipodi:nodetypes="ccsssscssssscsssssssccssssscsscssssssssssccssscsccccccscccsssscccssscssccccscsssssccssscccssscssssscsssscccccssssssscssscssscssscsssscsssssscccscssscccsccssssccssccccc" />
    <path
       style="fill:#495428;stroke-width:2.70845"
       d="m 183.4806,104.44427 c -0.068,-0.1819 -0.16064,-4.497918 -0.20589,-9.591147 -0.0926,-10.422606 -0.0898,-10.405387 -2.13997,-13.35132 -1.64328,-2.361292 -4.07189,-4.772638 -4.80681,-4.772638 -0.37597,0 -0.67301,0.201855 -0.7764,0.5276 -0.0921,0.29018 -0.36246,0.72261 -0.60081,0.960956 -0.40141,0.401418 -0.37576,0.479996 0.34807,1.066221 0.42977,0.348077 0.7487,0.757934 0.70871,0.910794 -0.04,0.152861 0.0334,0.212355 0.16308,0.132209 0.32601,-0.201487 1.00098,0.597936 1.48703,1.761217 0.9408,2.251637 0.12296,5.868166 -1.66062,7.343407 -0.53632,0.4436 -1.55842,0.980574 -2.27134,1.193275 -0.71293,0.212702 -1.46382,0.626001 -1.66865,0.918442 -0.20484,0.292442 -0.47992,0.531712 -0.6113,0.531712 -0.13138,0 -0.51158,-0.278229 -0.84489,-0.618285 -0.33331,-0.340057 -1.07006,-0.88218 -1.63722,-1.204718 l -1.0312,-0.586433 -0.82088,0.781355 c -0.45149,0.429745 -1.29538,1.031399 -1.87531,1.337009 -1.88029,0.990879 -4.40985,0.582222 -6.03571,-0.975088 -0.58884,-0.564021 -0.78619,-0.634391 -0.96548,-0.344285 -0.3397,0.549646 -1.07251,0.129713 -1.07251,-0.614595 0,-0.359781 0.1142,-0.724731 0.25379,-0.811 0.14739,-0.09109 0.18644,-0.878135 0.0931,-1.877355 -0.22283,-2.386244 0.21884,-3.571352 1.88591,-5.060315 0.76837,-0.686282 1.2035,-1.247774 1.02099,-1.317501 -1.0166,-0.388409 -2.10841,-1.439858 -2.67351,-2.574701 -0.47519,-0.954262 -0.64539,-1.725339 -0.64241,-2.910417 0.002,-0.90448 0.20438,-2.107738 0.46041,-2.741017 0.59135,-1.462717 2.44646,-3.090849 3.95438,-3.470547 2.89059,-0.727859 4.58852,-0.0999 7.11845,2.632649 0.93068,1.005223 1.97486,1.879876 2.3204,1.943675 0.34553,0.0638 1.14129,0.124844 1.76834,0.135658 0.62705,0.01081 1.07714,0.121524 1.00019,0.246023 -0.0769,0.1245 0.14933,0.171074 0.50283,0.103498 1.73074,-0.330851 5.36957,2.703297 7.67161,6.39678 0.69424,1.11386 1.31985,1.967608 1.39024,1.897218 0.0704,-0.07039 0.10866,-1.62627 0.0851,-3.457511 -0.0371,-2.88051 -0.11982,-3.462307 -0.61314,-4.314084 -0.83701,-1.445207 -3.87395,-4.262131 -3.71367,-4.599856 l 0.96216,-2.027426 c 0.17172,-0.361836 0.56043,1.222835 1.03341,1.852995 0.47298,0.630161 1.20358,1.651352 1.62355,2.269314 0.41998,0.617962 0.77716,1.123688 0.79375,1.123835 0.0166,1.47e-4 -0.009,-2.4695 -0.0562,-5.488104 -0.0766,-4.866223 -0.14957,-5.638561 -0.64376,-6.813288 -0.30656,-0.728705 -0.89848,-1.830933 -1.31539,-2.449396 -0.6895,-1.022843 -0.8585,-1.124763 -1.86978,-1.12762 l 1.53419,-3.399751 c 0.30047,2.689383 0.39922,3.011209 1.32242,4.309705 l 0.92639,1.302996 -6.2e-4,-3.287718 -6.2e-4,-3.287718 -0.8142,-0.926042 3.41657,-0.573987 -1.27821,1.753281 0.0139,3.180665 c 0.0134,3.076221 0.0286,3.159023 0.46302,2.521583 0.24703,-0.362496 0.83723,-1.092561 1.31157,-1.622367 35.92032,-21.067479 15.7564,-14.831862 0.72629,0.941358 -0.43723,0.464867 -1.15216,1.49234 -1.58872,2.283275 l -0.79375,1.438063 -0.0108,8.532812 c -0.006,4.693047 0.0671,8.532813 0.16231,8.532813 0.0952,0 0.48225,-0.68461 0.86009,-1.521355 0.37784,-0.836744 1.2911,-2.354791 2.02946,-3.373437 0.73837,-1.018646 1.15079,-2.698433 1.47212,-2.513542 l 2.75895,1.5875 h -1.83439 l -1.36139,1.918229 c -0.74877,1.055026 -1.91273,3.046985 -2.58658,4.426576 l -1.22518,2.508345 -0.081,4.635404 -0.081,4.635404 0.71945,-1.058333 3.49121,-2.097811 c 1.05903,-0.636352 -2.54057,2.781203 -3.32201,4.346771 -0.69579,1.393971 -0.73213,1.666756 -0.86372,6.482292 -0.0756,2.764894 -0.23147,5.175914 -0.34647,5.357814 -0.115,0.1819 -0.3844,0.33073 -0.59866,0.33073 -0.21426,0 -0.44519,-0.14883 -0.51318,-0.33073 z M 165.25719,90.321223 c 1.63312,-1.108262 1.70994,-1.327646 0.94449,-2.697187 -0.56053,-1.002886 -0.67181,-1.55533 -0.68686,-3.409699 -0.0203,-2.505831 -0.16298,-2.712109 -1.88012,-2.718621 -1.51018,-0.0057 -3.27101,0.968532 -4.21971,2.334741 -0.66248,0.954035 -0.79562,1.401394 -0.78745,2.645834 0.0114,1.737188 0.51208,2.737352 1.90863,3.812769 0.75229,0.579306 1.22526,0.727604 2.32055,0.727604 1.04901,0 1.61903,-0.165142 2.40047,-0.695441 z m 6.16186,-1.090496 c 0.24756,-0.440972 0.26844,-0.440972 0.43833,0 0.27363,0.710212 1.48964,0.564617 2.71838,-0.325478 1.32269,-0.958157 1.77153,-1.615143 2.19792,-3.217245 0.28321,-1.064146 0.26328,-1.393752 -0.14974,-2.475212 -0.58755,-1.53847 -1.84359,-3.006132 -2.9785,-3.48033 -1.43185,-0.598267 -3.0002,-0.452578 -4.35119,0.404196 -1.57733,1.000313 -2.35832,2.302598 -2.53244,4.222799 -0.15196,1.675885 0.19281,2.651717 1.28961,3.650121 0.59117,0.538133 2.52999,1.647711 2.92241,1.672476 0.10191,0.0064 0.30226,-0.196666 0.44522,-0.451327 z m 18.57985,-2.68762 c -0.47709,-0.766954 4.57512,-2.944235 6.20905,-3.721126 2.11496,-1.005602 4.83794,-1.913851 5.15337,-1.718905 0.13814,0.08538 0.25117,0.287115 0.25117,0.448301 0,0.161186 -0.0743,0.218753 -0.16513,0.127928 -0.0908,-0.09083 -0.35872,0.0502 -0.59532,0.313388 -0.23659,0.263189 -1.4422,0.864466 -2.67913,1.336172 -2.18987,0.835114 -6.2311,2.840081 -7.25673,3.600267 -0.28042,0.207844 -0.42916,0.45859 -0.33053,0.557214 z m -22.25969,-6.87905 c 0.71439,-0.678083 2.65108,-1.379292 4.31707,-1.563066 1.53326,-0.169132 1.67269,-0.241333 2.09333,-1.083988 0.24786,-0.496533 0.6016,-0.996075 0.78609,-1.110093 0.18448,-0.114019 0.25906,-0.28367 0.16573,-0.377002 -0.0933,-0.09333 -1.07171,-0.281682 -2.17418,-0.418555 -2.53306,-0.314479 -3.3155,0.01868 -3.95082,1.682244 -0.30117,0.788607 -0.83607,1.4501 -1.6952,2.09639 -0.69036,0.519328 -1.43379,1.00592 -1.65207,1.081316 -0.29078,0.100437 -0.22005,0.207734 0.26458,0.401376 0.66841,0.267072 0.91885,0.170908 1.84547,-0.708622 z m -2.63922,-0.565184 c 2.72692,-1.381545 3.75167,-4.37975 2.26486,-6.626482 -1.13938,-1.72172 -3.89326,-2.734631 -5.75992,-2.118575 -1.38747,0.457904 -2.77612,2.047769 -3.11415,3.565369 -0.2295,1.03039 -0.20584,1.572163 0.11717,2.683297 0.2226,0.76573 0.69037,1.667146 1.03947,2.003147 0.81843,0.78771 2.42455,1.279301 3.60049,1.102016 0.50932,-0.07679 1.34276,-0.350732 1.85208,-0.608772 z m 25.59936,-9.036856 -0.14764,1.100737 1.09862,-0.760562 c 0.60424,-0.418309 1.39628,-1.082669 1.76008,-1.476354 1.61649,-1.749274 7.36969,-5.288097 7.83712,-4.820659 0.26704,0.267032 -0.11218,0.979565 -0.62122,1.167258 -0.99525,0.366968 -4.77028,2.830726 -6.15757,4.018713 -0.80036,0.685383 -1.87192,1.537992 -2.38125,1.894687 l -0.92604,0.648536 0.92604,0.163607 z M 177.8642,68.460936 c -0.45779,-0.327422 -1.78636,-1.250157 -2.95237,-2.050521 -2.07431,-1.42383 -2.61813,-2.116667 -1.66142,-2.116667 0.59675,0 3.46796,2.003661 4.72298,3.295913 0.51772,0.533082 0.98868,0.921876 1.04656,0.863988 0.0579,-0.05789 -0.0813,-0.479133 -0.30923,-0.936101 -0.22796,-0.456967 -0.47227,-1.149557 -0.54291,-1.539089 l 0.52874,3.077787 z m 10.82196,-13.271675 c 0.014,-0.145671 0.22633,0.01765 0.22633,-0.131743 0,-0.149395 0.68461,-0.77873 1.52136,-1.398523 0.83674,-0.619792 1.97962,-1.50836 2.53972,-1.974594 0.56011,-0.466234 1.18519,-0.783688 1.38907,-0.705452 0.20388,0.07824 0.37069,-0.01337 0.37069,-0.20356 0,-0.254617 0.0779,-0.267899 0.29544,-0.05037 0.39649,0.396497 -0.15544,0.945122 -2.80899,2.792134 -1.16416,0.810323 -2.46636,1.840146 -2.89377,2.288495 l -0.7771,0.81518 z m -8.36008,0.1748 c -0.0693,-0.545703 -0.19888,-1.766094 -0.28795,-2.711979 -0.11261,-1.195989 0.41399,3.704186 0.41399,3.704186 z m 4.89609,-4.416742 -2.35342,-4.66e-4 z"
       id="path4301"
       sodipodi:nodetypes="cscsscsssssssssscsssssscsccccsssscssscsssssscssccscccccccccssccssssccssccccsscssccssccsssssssssssssscssssscssscssssscsssssscsscssscccsssssscccssssccccssssssscsscssccsccc" />
    <path
       style="fill:#354c25;stroke-width:2.70845"
       d="m 186.13437,59.002086 c -0.10561,-0.17088 -0.073,-0.429754 0.0726,-0.575275 0.17639,-0.176389 0.32859,-0.161019 0.45661,0.04611 0.1056,0.17088 0.0729,0.429753 -0.0726,0.575274 -0.17639,0.176389 -0.32859,0.16102 -0.4566,-0.04611 z"
       id="path4039" />
    <path
       style="fill:#354c25;stroke-width:2.70845"
       d="m 182.45022,58.93594 c -0.24277,-0.327422 -0.37441,-0.454712 -0.29254,-0.282866 0.0819,0.171846 0.0403,0.379521 -0.0923,0.461501 -0.30623,0.18926 -0.6207,-0.595922 -0.3889,-0.970996 0.0958,-0.155006 0.0502,-0.205052 -0.10145,-0.111329 -0.15152,0.09364 -0.42262,-0.007 -0.60244,-0.223703 l 0.17555,-3.082765 c 0.12282,1.378228 0.34892,2.200613 0.7794,2.834961 0.74278,1.094551 1.21995,1.970509 1.07342,1.970509 -0.0601,0 -0.30796,-0.26789 -0.55073,-0.595312 z m -2.12891,-3.601665 c -0.0667,-0.529319 -0.19387,-1.732654 -0.28265,-2.674079 -23.25272,-23.185328 0.41745,4.024008 0.28265,2.674079 z"
       id="path4038"
       sodipodi:nodetypes="sccssccssssccc" />
    <path
       style="fill:#354c25;stroke-width:2.70845"
       d="m 163.3802,69.056252 c -0.70802,-0.180162 -0.72231,-0.201975 -0.13229,-0.201975 0.3638,0 1.01865,0.09089 1.45521,0.201975 0.70803,0.180162 0.72231,0.201975 0.13229,0.201975 -0.3638,0 -1.01864,-0.09089 -1.45521,-0.201975 z"
       id="path4037" />
    <path
       style="fill:#354c25;stroke-width:2.70845"
       d="m 162.13997,69.933845 c 0.19099,-0.07643 0.4192,-0.06703 0.50712,0.02089 0.0879,0.08792 -0.0683,0.150453 -0.34727,0.138964 -0.30822,-0.0127 -0.37092,-0.07539 -0.15985,-0.159852 z"
       id="path4036" />
    <path
       style="fill:#354c25;stroke-width:2.70845"
       d="m 159.27916,70.265495 c 0,-0.07276 0.23813,-0.259732 0.52917,-0.415493 0.29104,-0.155761 0.52916,-0.22367 0.52916,-0.15091 0,0.07276 -0.23812,0.259733 -0.52916,0.415493 -0.29104,0.155761 -0.52917,0.223671 -0.52917,0.15091 z"
       id="path4035" />
    <path
       style="fill:#354c25;stroke-width:2.70845"
       d="m 164.33093,70.393263 c -0.78678,-0.253432 -1.32225,-0.527697 -1.18993,-0.609477 0.28763,-0.177767 2.17094,0.436914 2.57421,0.840177 0.33585,0.335852 0.41614,0.349233 -1.38428,-0.2307 z"
       id="path4034" />
    <path
       style="fill:#354c25;stroke-width:2.70845"
       d="m 160.64224,70.499562 c 0.24037,-0.245519 0.58129,-0.398311 0.75761,-0.339538 0.17632,0.05877 -0.0203,0.259652 -0.43703,0.446398 -0.70921,0.317846 -0.7297,0.311019 -0.32058,-0.10686 z"
       id="path4033" />
    <path
       style="fill:#354c25;stroke-width:2.70845"
       d="m 157.82733,72.501303 c -0.19858,-0.321312 0.21082,-1.116118 0.83174,-1.614728 0.33228,-0.266835 0.29344,-0.127419 -0.13458,0.482976 -0.33094,0.471949 -0.52762,0.977965 -0.43707,1.124479 0.0905,0.146514 0.10511,0.266389 0.0323,0.266389 -0.0728,0 -0.20436,-0.116602 -0.29244,-0.259116 z"
       id="path4032" />
    <path
       style="fill:#354c25;stroke-width:2.70845"
       d="m 182.69479,72.760419 c -0.0899,-0.145521 -0.0374,-0.264584 0.11667,-0.264584 0.15411,0 0.2802,0.119063 0.2802,0.264584 0,0.14552 -0.0525,0.264583 -0.11668,0.264583 -0.0642,0 -0.19026,-0.119063 -0.28019,-0.264583 z"
       id="path4031" />
    <path
       style="fill:#354c25;stroke-width:2.70845"
       d="m 168.01041,73.574435 c 0,-0.134375 -0.42225,-0.818984 -0.93833,-1.521354 l -0.93833,-1.277037 1.20291,1.282368 c 1.18976,1.268344 1.45202,1.76034 0.93833,1.76034 -0.14552,0 -0.26458,-0.109943 -0.26458,-0.244317 z"
       id="path4030" />
    <path
       style="fill:#354c25;stroke-width:2.70845"
       d="m 172.98788,73.902595 c 0.191,-0.07643 0.4192,-0.06703 0.50712,0.02089 0.0879,0.08792 -0.0684,0.150453 -0.34726,0.138964 -0.30823,-0.0127 -0.37092,-0.07539 -0.15986,-0.159852 z"
       id="path4029" />
    <path
       style="fill:#354c25;stroke-width:2.70845"
       d="m 158.24741,73.965265 c -0.0153,-0.447161 0.27079,-1.20863 0.67086,-1.785937 0.38359,-0.553525 0.74781,-1.006409 0.80937,-1.006409 0.14553,0 -0.17042,0.551281 -0.61416,1.071594 -0.19238,0.225574 -0.45996,0.880418 -0.59464,1.455208 -0.22041,0.940713 -0.24751,0.96723 -0.27143,0.265544 z"
       id="path4028" />
    <path
       style="fill:#354c25;stroke-width:2.70845"
       d="m 157.20747,74.215627 c -0.004,-0.291042 0.0945,-0.767292 0.21961,-1.058333 0.28972,-0.674218 0.28972,0.02139 0,0.926041 -0.17029,0.531742 -0.21336,0.557685 -0.21961,0.132292 z"
       id="path4027" />
    <path
       style="fill:#354c25;stroke-width:2.70845"
       d="m 172.77291,74.885389 c 0,-0.140954 0.17859,-0.187746 0.39688,-0.103984 0.21828,0.08376 0.39687,0.199088 0.39687,0.256279 0,0.05719 -0.17859,0.103985 -0.39687,0.103985 -0.21829,0 -0.39688,-0.115326 -0.39688,-0.25628 z"
       id="path4026" />
    <path
       style="fill:#354c25;stroke-width:2.70845"
       d="m 158.24172,76.045662 c 0.0127,-0.308225 0.0754,-0.37092 0.15985,-0.159853 0.0764,0.190996 0.067,0.419199 -0.0209,0.507118 -0.0879,0.08792 -0.15045,-0.06835 -0.13896,-0.347265 z"
       id="path4025" />
    <path
       style="fill:#354c25;stroke-width:2.70845"
       d="m 178.92218,77.655828 c 0.10788,-0.119082 0.0613,-0.379021 -0.10357,-0.577643 -0.23687,-0.285407 -0.20865,-0.326185 0.13459,-0.194474 0.51712,0.19844 0.56081,0.535172 0.10356,0.798304 -0.1819,0.104679 -0.24246,0.09289 -0.13458,-0.02619 z"
       id="path4024" />
    <path
       style="fill:#354c25;stroke-width:2.70845"
       d="m 172.45872,78.135928 c 0.19099,-0.07643 0.4192,-0.06703 0.50712,0.02089 0.0879,0.08792 -0.0683,0.150453 -0.34727,0.138964 -0.30822,-0.0127 -0.37092,-0.07539 -0.15985,-0.159852 z"
       id="path4023" />
    <path
       style="fill:#354c25;stroke-width:2.70845"
       d="m 173.97887,78.096298 c 0.03,-0.684236 0.59638,-0.981844 0.94003,-0.493906 0.0889,0.126211 0.23344,0.04233 0.32121,-0.186411 0.0878,-0.228737 0.0746,-0.403214 -0.0293,-0.387727 -0.45446,0.06774 -0.85037,-0.05174 -0.85037,-0.25662 0,-0.122162 0.28305,-0.35108 0.629,-0.508706 0.44557,-0.203012 0.71132,-0.204282 0.91124,-0.0044 0.19993,0.199926 0.23783,0.112433 0.12998,-0.300008 -0.10507,-0.40178 -0.285,-0.531744 -0.58051,-0.419313 -0.34321,0.130578 -0.36258,0.09677 -0.0975,-0.170244 0.45275,-0.456098 0.41495,-0.695697 -0.13229,-0.838708 -0.37028,-0.09676 -0.35106,-0.127148 0.0959,-0.151692 0.67955,-0.03732 2.56462,1.407957 2.65118,2.032648 0.0458,0.330654 -0.0828,0.274556 -0.48437,-0.211257 -0.30072,-0.363802 -0.65893,-0.628743 -0.79602,-0.588757 -0.1371,0.03999 -0.17894,-0.04108 -0.093,-0.180155 0.0859,-0.139071 0.0274,-0.332538 -0.13023,-0.429925 -0.47694,-0.294767 -0.51708,-0.0084 -0.10904,0.778142 0.2128,0.410171 0.38691,0.80657 0.38691,0.880887 0,0.07432 -0.3717,0.06078 -0.82601,-0.03008 -0.66447,-0.132894 -0.76943,-0.09703 -0.5367,0.183396 0.21323,0.256927 0.18335,0.499869 -0.1136,0.923832 -0.2216,0.316379 -0.60866,0.68535 -0.86014,0.819936 -0.38253,0.204722 -0.45218,0.129409 -0.42634,-0.460974 z"
       id="path4022" />
    <path
       style="fill:#354c25;stroke-width:2.70845"
       d="m 158.81614,78.200967 c 0,-0.694017 0.004,-0.695519 0.39079,-0.143429 0.21493,0.306861 0.31911,0.629605 0.23151,0.717209 -0.0876,0.0876 -0.1611,-0.0094 -0.16333,-0.215548 -0.003,-0.311164 -0.0427,-0.313856 -0.23151,-0.01585 -0.15997,0.252459 -0.22746,0.150865 -0.22746,-0.342382 z"
       id="path4021" />
    <path
       style="fill:#354c25;stroke-width:2.70845"
       d="m 171.60591,79.148635 c -0.0769,-0.124499 0.15415,-0.17015 0.51355,-0.101447 0.3594,0.0687 0.65345,0.170567 0.65345,0.226363 0,0.204721 -1.03151,0.09431 -1.167,-0.124916 z"
       id="path4020" />
    <path
       style="fill:#354c25;stroke-width:2.70845"
       d="m 173.41921,79.528922 c -0.28225,-0.206383 -0.42407,-0.464352 -0.31515,-0.573264 0.10891,-0.108912 0.19802,-0.05493 0.19802,0.119968 0,0.236699 0.13617,0.245113 0.53267,0.03291 0.36355,-0.194565 0.67857,-0.200075 0.99219,-0.01735 0.38444,0.223985 0.32984,0.269699 -0.33424,0.27982 -0.61122,0.0093 -0.70249,0.07108 -0.39687,0.268577 0.21828,0.141064 0.2708,0.258304 0.11671,0.260532 -0.15408,0.0022 -0.51108,-0.164808 -0.79333,-0.371191 z"
       id="path4019" />
    <path
       style="fill:#354c25;stroke-width:2.70845"
       d="m 161.53097,80.20999 c 0.0803,-0.08032 -0.12559,-0.308511 -0.45757,-0.507094 l -0.60361,-0.361061 0.66145,0.194683 c 0.36381,0.107075 1.23933,0.18159 1.94562,0.165589 0.70628,-0.016 1.22734,0.02771 1.15791,0.09714 -0.0694,0.06943 -0.73904,0.223106 -1.48803,0.341506 -0.74899,0.118399 -1.29608,0.149556 -1.21577,0.06924 z"
       id="path4018" />
    <path
       style="fill:#354c25;stroke-width:2.70845"
       d="m 165.62916,80.722685 c 0,-0.131897 0.23813,-0.177542 0.52917,-0.101433 0.29104,0.07611 0.52916,0.184025 0.52916,0.239813 0,0.05579 -0.23812,0.101433 -0.52916,0.101433 -0.29104,0 -0.52917,-0.107916 -0.52917,-0.239813 z"
       id="path4017" />
    <path
       style="fill:#354c25;stroke-width:2.70845"
       d="m 164.64814,80.560968 c -0.25391,-0.274901 -0.18787,-0.43228 0.32142,-0.765979 0.35254,-0.230995 0.81674,-0.419991 1.03155,-0.419991 0.43322,0 0.82515,-0.478596 0.58698,-0.716765 -0.0838,-0.08382 -0.36363,0.0089 -0.62181,0.205936 -0.25817,0.19708 -0.11971,-0.02408 0.30769,-0.491464 0.42741,-0.467385 0.90366,-0.846004 1.05834,-0.841376 0.15467,0.0046 0.0729,0.166582 -0.18179,0.359898 -0.56022,0.42526 -0.60744,0.728831 -0.082,0.527209 0.20955,-0.08041 0.5747,-0.441831 0.81145,-0.803153 0.32906,-0.502206 0.35903,-0.742998 0.12726,-1.022264 -0.2255,-0.27171 -0.2268,-0.487504 -0.005,-0.842189 0.26411,-0.422481 0.27961,-0.409161 0.13589,0.116774 -0.1236,0.452279 -0.0693,0.557982 0.22807,0.443876 0.21466,-0.08237 0.46406,-0.443682 0.55422,-0.802906 0.0902,-0.359224 0.28472,-0.578484 0.43234,-0.487244 0.14763,0.09124 0.41203,0.04939 0.58756,-0.093 0.17553,-0.14239 0.55726,-0.317422 0.84831,-0.388961 0.46902,-0.115289 0.45973,-0.133559 -0.0818,-0.160763 -0.33601,-0.01688 -0.56326,-0.119989 -0.505,-0.22913 0.0583,-0.10914 -0.1133,-0.406797 -0.38126,-0.661458 -0.32338,-0.307339 -0.49067,-0.35182 -0.49755,-0.132292 -0.006,0.181901 -0.19069,-0.08599 -0.41111,-0.595312 -0.22041,-0.509323 -0.72176,-1.203772 -1.11412,-1.54322 l -0.71337,-0.617179 0.87059,0.576665 c 0.47883,0.317166 1.06606,0.874982 1.30496,1.239591 0.39255,0.599105 1.96682,1.782929 2.98382,2.243775 0.24812,0.112434 0.0894,0.186812 -0.42353,0.198438 -1.38012,0.03128 -2.47538,0.542093 -2.64945,1.23566 -0.0877,0.349261 -0.27827,0.63502 -0.42359,0.63502 -0.14531,0 -0.1933,0.184777 -0.10664,0.410616 0.0867,0.22584 0.0546,0.346989 -0.0712,0.269222 -0.12583,-0.07777 -0.55805,0.333732 -0.96048,0.914444 -0.46028,0.664184 -1.03677,1.136918 -1.55413,1.274415 -0.54018,0.143563 -0.79732,0.362981 -0.74926,0.639362 0.099,0.569263 -0.26498,0.74852 -0.65731,0.323744 z"
       id="path4016" />
    <path
       style="fill:#354c25;stroke-width:2.70845"
       d="m 159.60757,80.248965 c -0.59037,-0.382803 -1.32409,-1.142047 -1.63049,-1.687207 -0.58591,-1.042494 -1.17476,-3.510402 -0.77926,-3.265973 0.12609,0.07793 0.23187,0.462088 0.23507,0.853682 0.003,0.391594 0.22836,1.202061 0.50037,1.801037 0.51057,1.124314 1.87304,2.354056 2.80111,2.528225 0.31989,0.06003 0.41397,0.171865 0.23788,0.282775 -0.1602,0.100907 -0.77431,-0.129736 -1.36468,-0.512539 z"
       id="path4015" />
    <path
       style="fill:#354c25;stroke-width:2.70845"
       d="m 175.6059,81.359365 c -0.73829,-0.925295 -0.62357,-1.33868 0.1285,-0.463013 0.35101,0.408708 0.82264,1.389076 0.66823,1.389055 -0.0318,-5e-6 -0.39034,-0.416723 -0.79673,-0.926042 z"
       id="path4014" />
    <path
       style="fill:#354c25;stroke-width:2.70845"
       d="m 158.74999,84.417696 c 0,-0.136933 0.1177,-0.32171 0.26156,-0.410617 0.14998,-0.09269 0.19434,0.01351 0.10398,0.248969 -0.17589,0.458368 -0.36554,0.542233 -0.36554,0.161648 z"
       id="path4013" />
    <path
       style="fill:#354c25;stroke-width:2.70845"
       d="m 157.70324,84.534373 c -0.005,-0.145521 0.21909,-0.639632 0.4986,-1.098024 0.63213,-1.036685 2.77492,-2.539997 3.62046,-2.539997 0.34752,0 0.63368,-0.133945 0.63591,-0.297656 0.003,-0.194226 0.0769,-0.183002 0.21358,0.0323 0.212,0.333855 1.43001,0.61863 2.75536,0.64421 0.39821,0.0077 0.65389,0.127465 0.56816,0.266176 -0.0894,0.144635 -0.6239,0.172276 -1.2532,0.06481 -2.1712,-0.370786 -3.0248,-0.116753 -4.69125,1.396128 -0.50169,0.455457 -0.6835,0.516114 -0.6835,0.22803 0,-0.215869 0.0992,-0.331169 0.22048,-0.256222 0.12127,0.07495 0.22049,0.01721 0.22049,-0.128315 0,-0.510464 -0.43891,-0.528462 -0.86116,-0.03531 -0.2345,0.273886 -0.60816,0.833334 -0.83035,1.243217 -0.22218,0.409882 -0.40829,0.626179 -0.41358,0.480658 z m 2.63425,-2.190952 c 0,-0.113617 0.37911,-0.349672 0.84245,-0.524565 0.46335,-0.174894 0.78465,-0.37579 0.71401,-0.446435 -0.17711,-0.177102 -2.08562,0.708808 -2.08562,0.968118 0,0.115202 0.11906,0.209459 0.26458,0.209459 0.14552,0 0.26458,-0.09296 0.26458,-0.206577 z"
       id="path4012" />
    <path
       style="fill:#354c25;stroke-width:2.70845"
       d="m 177.04802,84.666664 c 0,-0.363802 0.06,-0.51263 0.13345,-0.330729 0.0734,0.181901 0.0734,0.479558 0,0.661459 -0.0734,0.181901 -0.13345,0.03307 -0.13345,-0.33073 z"
       id="path4011" />
    <path
       style="fill:#354c25;stroke-width:2.70845"
       d="m 176.52147,86.505245 c 0.15478,-0.443991 0.33051,-0.75816 0.39052,-0.698153 0.13102,0.131024 -0.36823,1.505409 -0.54685,1.505409 -0.0688,0 0.002,-0.363265 0.15633,-0.807256 z"
       id="path4009" />
    <path
       style="fill:#354c25;stroke-width:2.70845"
       d="m 157.50279,86.386459 c 0.002,-0.727604 0.0534,-0.993858 0.11419,-0.591674 0.0608,0.402183 0.0592,0.997495 -0.004,1.322916 -0.0628,0.325421 -0.11256,-0.0036 -0.11058,-0.731242 z"
       id="path4008" />
    <path
       style="fill:#354c25;stroke-width:2.70845"
       d="m 167.18295,87.378647 c -0.32911,-0.419644 -0.31975,-0.429003 0.0999,-0.09989 0.25466,0.199719 0.46302,0.408078 0.46302,0.463021 0,0.217761 -0.21727,0.0776 -0.56292,-0.363126 z"
       id="path4007" />
    <path
       style="fill:#354c25;stroke-width:2.70845"
       d="m 166.05622,87.206369 c -0.23486,-0.494935 -0.41865,-1.239076 -0.40842,-1.653646 0.016,-0.648959 0.0482,-0.680187 0.23147,-0.224597 0.11709,0.291041 0.16122,0.618463 0.0981,0.727604 -0.0631,0.109141 -0.0147,0.198437 0.10773,0.198437 0.12239,0 0.24939,-0.900553 0.28221,-2.001229 0.0391,-1.311768 -0.0337,-1.943548 -0.21123,-1.833801 -0.149,0.09208 -0.20241,0.278264 -0.11868,0.413729 0.0837,0.135466 0.0174,0.246302 -0.14738,0.246302 -0.16478,0 -0.25622,-0.20836 -0.20321,-0.463021 0.064,-0.307609 0.30314,-0.439993 0.71236,-0.394413 0.50169,0.05588 0.58995,-0.03089 0.47573,-0.467675 -0.15118,-0.578126 0.63572,-1.629664 0.81563,-1.089928 0.0553,0.165917 0.20425,0.237581 0.33098,0.159253 0.34364,-0.212376 -0.017,-0.943466 -0.36949,-0.748992 -0.16665,0.09195 -0.0384,-0.110477 0.28496,-0.449842 0.32338,-0.339364 0.67263,-0.532359 0.77611,-0.428878 0.10348,0.103482 0.0472,0.329039 -0.12495,0.501239 -0.45583,0.455835 -0.38404,0.860107 0.0838,0.47184 0.72748,-0.603757 0.40873,-0.110039 -0.4378,0.678103 -0.45907,0.427408 -0.73833,0.609881 -0.62057,0.405496 0.14493,-0.251566 0.11402,-0.309763 -0.0957,-0.180156 -0.17038,0.1053 -0.23806,0.307506 -0.1504,0.449346 0.0877,0.14184 3.1e-4,0.449498 -0.19412,0.683683 -0.22791,0.274519 -0.3535,1.154261 -0.3535,2.476219 0,1.127735 -0.0926,1.993412 -0.20576,1.923728 -0.11317,-0.06968 -0.14124,0.239551 -0.0624,0.687191 0.0789,0.447639 0.0957,0.81389 0.0375,0.81389 -0.0583,0 -0.29807,-0.404947 -0.53294,-0.899882 z"
       id="path4006" />
    <path
       style="fill:#354c25;stroke-width:2.70845"
       d="m 174.88962,88.800106 c 0,-0.05494 0.20836,-0.263302 0.46302,-0.463021 0.41964,-0.329107 0.429,-0.319749 0.0999,0.0999 -0.34564,0.440729 -0.56291,0.580887 -0.56291,0.363126 z"
       id="path4005" />
    <path
       style="fill:#354c25;stroke-width:2.70845"
       d="m 158.8463,88.769226 c -0.0834,-0.217446 -0.25694,-0.330324 -0.38554,-0.250842 -0.12861,0.07948 -0.16234,-0.04178 -0.075,-0.269472 0.0874,-0.227693 0.0481,-0.561298 -0.0873,-0.741346 -0.13541,-0.180048 -0.16281,-0.684547 -0.0609,-1.12111 l 0.18528,-0.79375 0.0313,0.868394 c 0.0172,0.477617 0.20382,1.281289 0.41468,1.785937 0.21085,0.504649 0.32618,0.917544 0.25628,0.917544 -0.0699,0 -0.19537,-0.17791 -0.27881,-0.395355 z"
       id="path4004" />
    <path
       style="fill:#354c25;stroke-width:2.70845"
       d="m 157.62848,88.495116 c 0.0687,-0.359398 0.21895,-0.653452 0.33388,-0.653452 0.24531,0 0.0201,1.010928 -0.26437,1.186742 -0.10694,0.06609 -0.13822,-0.173892 -0.0695,-0.53329 z"
       id="path4003" />
    <path
       style="fill:#354c25;stroke-width:2.70845"
       d="m 169.20108,89.164581 c -0.0899,-0.145521 -0.0445,-0.264583 0.10106,-0.264583 0.14552,0 0.33817,0.119062 0.4281,0.264583 0.0899,0.145521 0.0445,0.264583 -0.10106,0.264583 -0.14552,0 -0.33817,-0.119062 -0.4281,-0.264583 z"
       id="path4002" />
    <path
       style="fill:#354c25;stroke-width:2.70845"
       d="m 157.26156,90.363934 c -0.27862,-0.726073 0.0517,-0.998135 0.36833,-0.303321 0.19771,0.43394 0.21553,0.691468 0.0478,0.691468 -0.14697,0 -0.33425,-0.174666 -0.41617,-0.388147 z"
       id="path4001" />
    <path
       style="fill:#354c25;stroke-width:2.70845"
       d="m 160.15918,90.511044 -0.41884,-0.637912 0.89391,0.53872 c 0.49165,0.296296 1.0725,0.602402 1.29078,0.680236 0.21829,0.07783 0.004,0.12247 -0.47507,0.09919 -0.59964,-0.02911 -1.00274,-0.241537 -1.29078,-0.680236 z"
       id="path4000" />
    <path
       style="fill:#354c25;stroke-width:2.70845"
       d="m 171.58331,91.831597 c 0.16246,-0.279835 0.10578,-0.332585 -0.22216,-0.206741 -0.24216,0.09292 -0.44028,0.05605 -0.44028,-0.08195 0,-0.137997 -0.46817,-0.489746 -1.04038,-0.781666 -0.57221,-0.291919 -1.12561,-0.668666 -1.22978,-0.837215 -0.20075,-0.324823 1.30124,0.442226 2.05505,1.049487 0.46488,0.374508 1.13085,0.190011 0.86527,-0.239712 -0.0844,-0.136561 0.32628,-0.246301 0.92172,-0.246301 0.59067,0 1.07395,-0.09516 1.07395,-0.211455 0,-0.1163 -0.41672,-0.162805 -0.92604,-0.103345 -0.53876,0.0629 -0.92604,-0.008 -0.92604,-0.169568 0,-0.152723 0.32742,-0.248186 0.7276,-0.212139 0.40018,0.03605 1.01323,-0.115465 1.36233,-0.336692 0.61624,-0.390513 0.62561,-0.385176 0.32143,0.183192 -0.17232,0.321983 -0.23029,0.585423 -0.12881,0.585423 0.10147,0 0.68702,-0.2945 1.30122,-0.654445 1.11394,-0.652811 1.58168,-1.288871 1.29221,-1.757237 -0.0841,-0.135994 0.005,-0.214546 0.19758,-0.174561 0.2261,0.04691 0.32103,-0.138479 0.26762,-0.522611 -0.0455,-0.327422 0.0508,-0.595312 0.21405,-0.595312 0.16326,0 0.24675,-0.0893 0.18554,-0.198438 -0.0612,-0.10914 -0.0318,-0.886935 0.0654,-1.728431 0.14717,-1.274177 0.11267,-1.505418 -0.20633,-1.383006 -0.28931,0.111018 -0.3131,0.06271 -0.0972,-0.1974 0.20901,-0.251841 0.15566,-0.635106 -0.19852,-1.426208 -0.26639,-0.595 -0.76185,-1.276189 -1.10102,-1.513751 -0.33917,-0.237563 -0.48345,-0.431933 -0.32062,-0.431933 0.51349,0 1.8979,1.795858 2.18704,2.837039 0.57221,2.060551 0.1755,4.448368 -1.01739,6.123628 -0.63777,0.895662 -2.82612,2.114936 -3.94953,2.200537 -0.46091,0.03512 -0.85289,0.157591 -0.87108,0.272158 -0.0182,0.114568 -0.048,0.317445 -0.0661,0.450839 -0.0182,0.133395 -0.14146,0.341754 -0.27393,0.463021 -0.14282,0.130747 -0.15208,0.06758 -0.0227,-0.155206 z"
       id="path3999" />
    <path
       style="fill:#354c25;stroke-width:2.70845"
       d="m 161.24789,92.056645 c -0.4452,-0.129367 -1.27863,-0.663012 -1.85209,-1.185879 l -1.04264,-0.950668 1.05833,0.799267 c 0.58209,0.439597 1.59874,0.942418 2.25922,1.117379 1.31411,0.348103 3.29283,0.130385 3.00771,-0.330937 -0.16303,-0.263787 -0.9238,-0.201213 -2.09193,0.172061 -0.37078,0.118483 -0.33118,0.04764 0.13229,-0.236678 0.36381,-0.223176 0.85786,-0.409993 1.0979,-0.41515 0.24003,-0.0052 1.04913,-0.421694 1.79799,-0.925638 1.10461,-0.743351 1.39057,-0.840672 1.51527,-0.515705 0.20741,0.540511 -0.86028,1.653937 -2.1622,2.25481 -1.13187,0.522392 -2.41218,0.597128 -3.71985,0.217138 z m 4.79021,-1.304564 c 0.007,-0.218281 0.1643,-0.364159 0.3504,-0.324174 0.1861,0.03999 0.25817,-0.05707 0.16014,-0.215673 -0.1231,-0.199188 -0.3133,-0.171756 -0.61498,0.0887 -0.24021,0.20739 -0.67488,0.515259 -0.96592,0.684152 -0.47881,0.27786 -0.45364,0.300265 0.26459,0.235475 0.49044,-0.04424 0.79834,-0.223256 0.80577,-0.46848 z"
       id="path3998" />
    <path
       style="fill:#354c25;stroke-width:2.70845"
       d="m 183.49152,104.44427 c -0.062,-0.1819 -0.14881,-4.557449 -0.19294,-9.723439 -0.0775,-9.07279 -0.10037,-9.436562 -0.67148,-10.680252 -0.72497,-1.578763 -2.5073,-4.068199 -4.24015,-5.922352 -0.71401,-0.763984 -1.19861,-1.389062 -1.07691,-1.389062 0.12171,0 0.53659,0.353875 0.92196,0.786388 0.38538,0.432514 0.79459,0.728349 0.90937,0.657411 0.11478,-0.07094 0.53179,0.464663 0.92669,1.190224 0.3949,0.725561 0.83844,1.244768 0.98564,1.153792 0.15232,-0.09414 0.1863,-0.03379 0.0789,0.140054 -0.11236,0.181811 -0.0191,0.305464 0.2305,0.305464 0.37485,0 0.37835,-0.07915 0.0331,-0.746875 -0.21242,-0.410781 -0.57917,-0.907004 -0.81499,-1.102718 -0.23582,-0.195715 -0.56082,-0.603762 -0.72222,-0.906772 -0.25846,-0.485218 -0.24371,-0.509906 0.12361,-0.206994 0.53187,0.43861 2.26361,2.976282 2.36829,3.470477 0.0437,0.206154 0.29049,0.595836 0.54849,0.86596 0.34254,0.358643 0.40105,0.618249 0.2169,0.962346 -0.15373,0.287245 -0.15768,0.620593 -0.0101,0.853832 0.13314,0.21044 0.25798,0.858869 0.27743,1.440952 0.0194,0.582083 0.13267,1.415521 0.25162,1.852083 0.17065,0.626336 0.20591,0.472797 0.16713,-0.727964 -0.027,-0.836944 0.0402,-1.521553 0.14931,-1.521355 0.10914,1.99e-4 0.19843,0.436924 0.19843,0.9705 0,1.41243 0.20878,0.977898 0.27543,-0.573264 0.0764,-1.777921 0.0361,-2.044594 -0.27974,-1.849416 -0.1479,0.0914 -0.18903,0.295421 -0.0914,0.45337 0.0985,0.159438 0.0558,0.211986 -0.096,0.118133 -0.34411,-0.212668 -0.626,-1.235628 -0.3405,-1.235628 0.11658,0 0.10827,-0.446485 -0.0185,-0.992188 -0.12673,-0.545703 -0.23325,-2.22829 -0.23672,-3.739083 -0.005,-2.366312 -0.0876,-2.879525 -0.59332,-3.704166 -0.99784,-1.627265 -3.6695,-3.705101 -3.4833,-4.401044 l 0.63072,-2.357394 c 0.0489,-0.182645 0.51242,1.095428 1.13871,2.014131 1.58672,2.327549 1.71035,2.603104 0.69005,1.538078 -0.48793,-0.509323 -0.86561,-1.001162 -0.83928,-1.092975 0.0263,-0.09181 -0.18555,-0.378158 -0.47081,-0.63632 -0.28527,-0.258162 -0.51867,-0.338897 -0.51867,-0.17941 0,0.159486 0.12101,0.36476 0.2689,0.456164 0.14789,0.0914 0.20079,0.276385 0.11755,0.41107 -0.0832,0.134685 0.21193,0.632474 0.65592,1.106197 0.444,0.473724 0.80782,0.957639 0.80849,1.075368 6.7e-4,0.117729 0.12029,0.140468 0.26581,0.05053 0.14552,-0.08994 0.26458,-0.04546 0.26458,0.09885 0,0.144303 0.23813,0.337947 0.52917,0.43032 0.29104,0.09237 0.52916,0.286016 0.52916,0.430319 0,0.144303 -0.11906,0.188784 -0.26458,0.09885 -0.33486,-0.206952 -0.33486,0.143306 0,0.661459 0.16221,0.251003 0.25797,0.278367 0.26053,0.07445 0.002,-0.177334 0.17655,-0.256232 0.38738,-0.175331 0.23644,0.09073 0.42093,0.619784 0.48147,1.380759 l 0.0982,1.233664 0.0477,-1.389062 c 0.0262,-0.763985 -0.0525,-1.389063 -0.17502,-1.389063 -0.55337,0 -0.83563,-2.308339 -0.83563,-6.833922 0,-4.152533 -0.0697,-4.96507 -0.5253,-6.120866 -0.52402,-1.329446 -0.52402,-1.332711 0,-1.332711 0.49664,0 0.5253,-0.184682 0.5253,-3.384889 v -3.384889 l -1.31736,-1.558024 c 0,0 2.68367,1.633455 2.56739,5.038204 -0.10593,3.101733 -0.3319,5.095142 -0.60996,5.380742 -0.0572,0.05872 -0.30113,-0.357995 -0.54212,-0.926041 -0.241,-0.568047 -0.48792,-0.892055 -0.54871,-0.720019 -0.0608,0.172036 0.0753,0.672139 0.3024,1.11134 0.22712,0.439201 0.41295,1.221178 0.41295,1.737728 0,0.656726 0.11887,0.939181 0.39525,0.939181 0.29791,0 0.36606,-0.22806 0.27669,-0.926042 -0.0711,-0.555639 -0.005,-0.926042 0.16477,-0.926042 0.15584,0 0.22227,-0.233538 0.14762,-0.518974 -0.28434,-1.087313 1.78614,-5.061424 2.2324,-4.438384 l 0.56048,0.782501 c 0.42682,0.595896 -0.6039,0.509573 -0.76075,0.100821 -0.14143,-0.368562 -0.28816,-0.27871 -0.81788,0.500841 -0.35504,0.522488 -0.59206,1.153249 -0.52671,1.401691 0.0881,0.335073 0.12675,0.302025 0.14952,-0.127985 0.0337,-0.63625 0.4372,-1.023441 0.6715,-0.644336 0.0815,0.131894 -0.17815,0.818445 -0.57703,1.52567 l -0.72524,1.285864 v 8.375134 c 0,4.606324 -0.0875,8.237731 -0.19438,8.069792 -0.10692,-0.167939 -0.20376,-0.602999 -0.21521,-0.966801 l -0.0208,-0.661459 -0.24568,0.612584 c -0.17822,0.444387 -0.1231,0.843943 0.20077,1.455209 0.58619,1.106372 0.70845,1.81789 0.19261,1.1209 -0.36464,-0.492688 -0.37895,-0.484629 -0.32375,0.18232 0.0343,0.414681 0.24947,0.747931 0.53028,0.821365 0.25989,0.06796 0.53278,0.02608 0.60642,-0.09307 0.0736,-0.119152 0.0765,-0.673522 0.006,-1.231931 -0.0703,-0.55981 -0.0325,-0.864113 0.0843,-0.678308 0.16207,0.257939 0.32185,0.215303 0.68119,-0.181765 0.26439,-0.292144 0.38249,-0.659466 0.27037,-0.840884 -0.12632,-0.204384 -0.0885,-0.253812 0.10334,-0.135222 0.20044,0.123874 0.24512,0.03755 0.13249,-0.255952 -0.14854,-0.387086 -0.23322,-0.363824 -0.67238,0.184696 -0.87398,1.09163 1.05697,-2.466853 2.26403,-4.172304 8.57319,-12.113082 2.37457,-0.215297 1.47457,0.436907 -1.23618,1.479245 -3.65533,5.652114 -4.20804,7.258569 -0.38934,1.131645 -0.51459,2.266144 -0.53514,4.847168 -0.0421,5.28862 -0.0594,5.096048 0.44116,4.903954 0.29604,-0.113601 0.37761,-0.06754 0.24897,0.140596 -0.10522,0.17025 -0.42014,0.309546 -0.69982,0.309546 -0.62295,0 -0.8258,0.72674 -0.70413,2.522593 0.0496,0.732583 0.009,1.923208 -0.0913,2.645833 -0.13396,0.969246 -0.19086,0.46373 -0.21694,-1.92728 -0.0219,-2.007943 0.0653,-3.241146 0.22923,-3.241146 0.14552,0 0.26459,-0.47625 0.26459,-1.058333 0,-0.582084 -0.11078,-1.058334 -0.24618,-1.058334 -0.1354,0 -0.29778,-0.26789 -0.36085,-0.595312 -0.0631,-0.327422 -0.13087,1.570551 -0.15069,4.217718 -0.0198,2.647167 0.0695,4.878278 0.19857,4.958025 0.43262,0.267375 0.79112,-0.514816 0.90467,-1.973868 0.0619,-0.795953 0.0988,0.719871 0.082,3.368498 -0.023,3.607215 -0.11833,4.901935 -0.38009,5.159375 -0.28872,0.28396 -0.31937,0.20575 -0.17634,-0.45006 0.0952,-0.43656 0.21891,-0.94245 0.27489,-1.12419 0.056,-0.18173 -0.0169,-0.59845 -0.16185,-0.92604 l -0.26363,-0.5956 0.11498,0.59531 c 0.0632,0.32742 0.0108,0.59531 -0.11652,0.59531 -0.12733,0 -0.15548,0.19813 -0.0626,0.44028 0.12276,0.3199 0.073,0.38099 -0.1819,0.22344 -0.27447,-0.16963 -0.3145,-0.0351 -0.18387,0.61806 0.16252,0.8126 0.0123,1.16715 -0.21368,0.50416 z m 0.30454,-3.175 c -0.0734,-0.1819 -0.13346,-0.0331 -0.13346,0.33073 0,0.3638 0.0601,0.51263 0.13346,0.33073 0.0734,-0.1819 0.0734,-0.47956 0,-0.66146 z m 0.65243,-1.453505 c -0.0929,-1.795435 -0.2985,-1.751058 -0.2985,0.06444 0,0.848875 0.0817,1.461745 0.18147,1.361935 0.0998,-0.0998 0.15247,-0.74168 0.11703,-1.426375 z m -0.64692,-0.646627 c -0.0845,-0.211067 -0.14716,-0.148372 -0.15985,0.159853 -0.0115,0.278915 0.051,0.435184 0.13896,0.347265 0.0879,-0.08792 0.0973,-0.316122 0.0209,-0.507118 z m 0.52916,-11.641666 c -0.0845,-0.211067 -0.14715,-0.148372 -0.15985,0.159852 -0.0115,0.278915 0.051,0.435185 0.13897,0.347266 0.0879,-0.08792 0.0973,-0.316122 0.0209,-0.507118 z m -1.56429,-4.7625 c -0.0576,-0.172806 -0.2462,-0.361349 -0.4191,-0.418984 -0.19334,-0.06445 -0.25248,0.05651 -0.15359,0.314193 0.18455,0.480937 0.73143,0.581004 0.57269,0.104791 z m -0.90639,-1.152427 c -0.0862,-0.224557 -0.21342,-0.351541 -0.28278,-0.282186 -0.0693,0.06936 -0.0476,0.253083 0.0483,0.408286 0.2609,0.422132 0.41338,0.340124 0.23448,-0.1261 z m 1.94791,-2.300608 c -0.0633,-0.329119 -0.11747,-0.122147 -0.12041,0.459936 -0.003,0.582083 0.0488,0.851362 0.11507,0.598397 0.0662,-0.252965 0.0686,-0.729215 0.005,-1.058333 z m 3.68392,-2.648918 c 0.11139,-0.327422 0.176,-0.693459 0.14356,-0.813417 -0.0324,-0.119957 0.0548,-0.14778 0.19388,-0.06183 0.35053,0.216636 0.56374,-0.202249 0.31106,-0.611102 -0.15155,-0.245216 -0.39523,-0.11413 -0.89753,0.482818 -0.37923,0.450682 -0.6222,0.994792 -0.53995,1.209133 0.21726,0.566189 0.55646,0.477796 0.78898,-0.205602 z m -3.88759,-1.618016 c -0.2516,-0.231746 -0.28688,-0.189681 -0.1547,0.184447 0.0942,0.266563 0.18745,0.683282 0.20727,0.926042 0.0198,0.242759 0.0894,0.159758 0.15469,-0.184447 0.0653,-0.344206 -0.028,-0.760925 -0.20726,-0.926042 z m 5.31693,-0.564797 c 0.35904,-0.48948 0.35342,-0.501933 -0.0749,-0.16604 -0.25466,0.199719 -0.46302,0.487453 -0.46302,0.639409 0,0.151956 0.0337,0.226675 0.0749,0.166041 0.0412,-0.06063 0.24953,-0.348368 0.46302,-0.63941 z m 0.54419,-1.499593 c 0.41897,-0.782852 0.0626,-0.556557 -0.59071,0.375114 -0.42783,0.610108 -0.4673,0.750931 -0.13586,0.484781 0.25692,-0.206313 0.58388,-0.593266 0.72657,-0.859895 z m -4.9433,-0.947802 c 0.0823,-0.400183 0.10084,-0.96573 0.0413,-1.256771 -0.0596,-0.291042 -0.13151,-0.767292 -0.15986,-1.058334 -0.0369,-0.378347 -0.10912,-0.302937 -0.25353,0.264584 -0.17575,0.690703 -0.20551,0.622005 -0.22922,-0.529167 -0.0199,-0.968081 0.0442,-1.216466 0.23919,-0.926042 0.19292,0.287357 0.24656,0.03752 0.19439,-0.905359 -0.0416,-0.750948 -0.21208,-1.348326 -0.40279,-1.411111 -0.24798,-0.08164 -0.33,0.475881 -0.32782,2.228276 0.003,2.586348 0.21998,4.321528 0.53985,4.321528 0.11492,0 0.27625,-0.327422 0.35852,-0.727604 z m 6.14659,-1.955619 -0.18252,1.141411 0.86668,-0.593117 c 0.47667,-0.326215 1.35997,-1.063175 1.96289,-1.63769 1.53504,-1.462737 3.62176,-2.932955 5.72776,-4.035553 1.64829,-0.862961 2.30415,-0.979607 2.30415,-0.409795 0,0.119609 -1.0418,0.825236 -2.3151,1.568061 -1.27331,0.742825 -2.96995,1.887023 -3.77032,2.542663 -0.80036,0.65564 -2.08028,1.673148 -2.84427,2.261129 -0.76398,0.587981 -1.38838,1.095066 -1.38755,1.126856 8.4e-4,0.03179 2.9377,0.885223 2.07422,0.13957 z m -11.97182,-1.068115 c -0.076,-0.122958 -0.81489,-0.6522 -1.642,-1.176093 -2.04227,-1.293569 -4.28197,-3.023223 -4.28197,-3.306828 0,-0.833507 2.72312,0.755085 5.06788,2.956461 0.76006,0.713587 1.43812,1.241243 1.50679,1.17257 0.0687,-0.06867 -0.0714,-0.341763 -0.31134,-0.606866 -0.23992,-0.265102 -0.51416,-0.89091 -0.60943,-1.390684 l 0.0892,2.555533 c 0.006,0.17572 0.25691,-0.08114 0.18092,-0.204093 z m 5.32082,-3.392412 c 0.0899,-0.145521 0.0374,-0.264584 -0.11667,-0.264584 -0.15411,0 -0.2802,0.119063 -0.2802,0.264584 0,0.145521 0.0525,0.264583 0.11667,0.264583 0.0642,0 0.19027,-0.119062 0.2802,-0.264583 z m -0.21613,-9.045443 c -0.0845,-0.211067 -0.14716,-0.148372 -0.15985,0.159853 -0.0115,0.278915 0.051,0.435184 0.13896,0.347265 0.0879,-0.08792 0.0973,-0.316122 0.0209,-0.507118 z m 6.06887,-1.234939 -1.35482,1.264372 z"
       id="path3996"
       sodipodi:nodetypes="csssssssscscssscssccscssssccscccsssscssscsssssssscscccsscssccsccccsscscsssscccscscccssscscccsscsssssssssccsssscccccssccccscssccsscscsccsccsscscccsscscccccccccccsssscsccssssssscssccccscscscsccccscsssssssccssscccssccssccscccsccc" />
    <path
       style="fill:#31441b;stroke-width:2.70845"
       d="m 187.85416,57.00388 -0.28079,-0.383048 z m 0.62882,-1.007571 c 0.0886,-0.60387 0.84857,-1.361294 3.20764,-3.197003 2.2099,-1.719639 3.51748,-2.357268 3.05256,-1.488558 -0.36791,0.687445 -1.00869,1.144751 -1.32774,0.947568 -0.1555,-0.09611 -0.25001,-0.05824 -0.21002,0.08414 0.10681,0.380351 -2.14599,1.947063 -2.49212,1.733144 -0.17301,-0.106926 -0.22125,-0.06292 -0.11661,0.106386 0.099,0.160213 -0.29501,0.669239 -0.88516,1.143496 -0.58499,0.470111 -1.03226,1.239108 -1.06362,1.105057 l -0.38879,-1.661791 c -0.18532,0.654844 -0.27801,1.344588 -0.20598,1.532765 0.1545,0.403598 0.34574,0.267812 0.42984,-0.305202 z"
       id="path3161"
       sodipodi:nodetypes="cccsssscscssccss" />
    <path
       style="fill:#31441b;stroke-width:2.70845"
       d="m 185.72961,58.223067 c 0.15142,-0.282937 0.40608,-0.595253 0.56592,-0.694035 0.15983,-0.09878 0.086,0.132712 -0.16415,0.514431 -0.52959,0.808266 -0.80383,0.930857 -0.40177,0.179604 z"
       id="path3159" />
    <path
       style="fill:#31441b;stroke-width:2.70845"
       d="m 181.65346,58.815055 c -0.14358,-0.377084 -0.11319,-0.407475 0.14812,-0.148112 0.18082,0.179475 0.26211,0.39297 0.18065,0.474431 -0.0815,0.08146 -0.22941,-0.06538 -0.32877,-0.326319 z"
       id="path3156" />
    <path
       style="fill:#31441b;stroke-width:2.70845"
       d="m 185.94468,59.372796 c -0.0759,-0.131133 0.26311,-0.642702 0.75342,-1.136822 0.49031,-0.494119 0.88827,-0.791776 0.88436,-0.661458 -0.0126,0.418267 -1.49461,2.045546 -1.63778,1.79828 z"
       id="path3154" />
    <path
       style="fill:#31441b;stroke-width:2.70845"
       d="m 182.68391,59.249062 c -0.0959,-0.155203 -0.11766,-0.338931 -0.0483,-0.408286 0.0694,-0.06936 0.19661,0.05763 0.28278,0.282186 0.17891,0.466224 0.0264,0.548232 -0.23447,0.1261 z"
       id="path3153" />
    <path
       style="fill:#31441b;stroke-width:2.70845"
       d="m 183.02054,61.669124 c -0.11508,-0.440094 -0.0807,-0.543395 0.11569,-0.347057 0.15375,0.15375 0.22749,0.435721 0.16386,0.626602 -0.0661,0.198159 -0.18599,0.07822 -0.27955,-0.279545 z"
       id="path3146" />
    <path
       style="fill:#31441b;stroke-width:2.70845"
       d="m 184.14999,64.681307 c -0.2281,-0.281129 -0.25623,-0.404641 -0.0661,-0.290441 0.33011,0.198327 0.40714,-0.267125 0.45393,-2.742951 0.0117,-0.621562 0.13235,-0.901796 0.36681,-0.852301 0.19212,0.04056 0.41247,-0.167802 0.48967,-0.463021 0.0772,-0.295219 0.24363,-0.536761 0.36985,-0.536761 0.12621,0 -0.002,0.446484 -0.28452,0.992187 -0.2827,0.545703 -0.60821,1.754991 -0.72336,2.687306 -0.19281,1.561134 -0.24073,1.656456 -0.60624,1.205982 z"
       id="path3141" />
    <path
       style="fill:#31441b;stroke-width:2.70845"
       d="m 177.91823,68.317554 c -1.58513,-0.886805 -3.30177,-2.208446 -3.16207,-2.43448 0.0781,-0.126415 0.003,-0.315999 -0.16773,-0.421299 -0.19347,-0.119571 -0.2389,-0.07677 -0.12099,0.114009 0.31217,0.505108 -0.18881,0.343334 -1.03307,-0.333592 -0.92414,-0.740972 -0.72493,-1.182854 0.31885,-0.707276 1.14921,0.523615 4.0379,2.734137 3.88861,2.975694 -0.0749,0.121259 0.16811,0.359151 0.54012,0.528649 0.37201,0.169498 0.67638,0.408129 0.67638,0.530292 0,0.280313 0.0219,0.286172 -0.9401,-0.251997 z"
       id="path3137" />
    <path
       style="fill:#31441b;stroke-width:2.70845"
       d="m 163.1983,68.875507 c 0.191,-0.07643 0.4192,-0.06703 0.50712,0.02089 0.0879,0.08792 -0.0684,0.150452 -0.34727,0.138964 -0.30822,-0.0127 -0.37091,-0.07539 -0.15985,-0.159854 z"
       id="path3136" />
    <path
       style="fill:#31441b;stroke-width:2.70845"
       d="m 184.36933,67.574966 c -0.0479,-1.105747 0.002,-2.065273 0.11139,-2.132281 0.10914,-0.06701 0.19844,0.837693 0.19844,2.010448 0,1.172755 -0.0501,2.132282 -0.11139,2.132282 -0.0613,0 -0.15056,-0.904702 -0.19844,-2.010449 z"
       id="path3135" />
    <path
       style="fill:#31441b;stroke-width:2.70845"
       d="m 159.27916,70.265491 c 0,-0.07276 0.23813,-0.259732 0.52917,-0.415493 0.29104,-0.155761 0.52916,-0.22367 0.52916,-0.15091 0,0.07276 -0.23812,0.259733 -0.52916,0.415493 -0.29104,0.155761 -0.52917,0.223671 -0.52917,0.15091 z"
       id="path3134" />
    <path
       style="fill:#31441b;stroke-width:2.70845"
       d="m 179.27618,70.099926 c -0.2795,-0.281805 -0.42833,-0.592229 -0.33073,-0.689831 0.0976,-0.0976 0.17746,-0.02581 0.17746,0.15953 0,0.185343 0.15424,0.2778 0.34276,0.205458 0.20026,-0.07684 0.35842,0.07639 0.38043,0.368568 0.0207,0.275053 0.0153,0.493021 -0.012,0.484372 -0.0273,-0.0086 -0.27839,-0.246293 -0.55789,-0.528097 z"
       id="path3133" />
    <path
       style="fill:#31441b;stroke-width:2.70845"
       d="m 164.76064,70.480786 c -0.0896,-0.08963 -0.55595,-0.256036 -1.03628,-0.369792 -0.75956,-0.179888 -0.78513,-0.210358 -0.19629,-0.233913 0.37237,-0.0149 0.90815,0.147724 1.19063,0.361377 0.28247,0.213654 0.44413,0.392247 0.35925,0.396875 -0.0849,0.0046 -0.22768,-0.06492 -0.31731,-0.154547 z"
       id="path3132" />
    <path
       style="fill:#31441b;stroke-width:2.70845"
       d="m 182.02802,71.827974 c -0.18408,-0.221798 -0.26783,-0.47012 -0.18612,-0.551827 0.0817,-0.08171 0.28145,0.09976 0.44388,0.403269 0.34657,0.647559 0.21791,0.721707 -0.25776,0.148558 z"
       id="path3130" />
    <path
       style="fill:#31441b;stroke-width:2.70845"
       d="m 158.74999,72.395938 c 0,-0.05494 0.20836,-0.263301 0.46303,-0.46302 0.41964,-0.329108 0.429,-0.319749 0.0999,0.09989 -0.34564,0.440729 -0.56292,0.580887 -0.56292,0.363125 z"
       id="path3128" />
    <path
       style="fill:#31441b;stroke-width:2.70845"
       d="m 157.69166,72.304658 c 0,-0.153653 0.24519,-0.56045 0.54487,-0.903993 l 0.54487,-0.624624 -0.46479,0.79375 c -0.61173,1.044688 -0.62495,1.06023 -0.62495,0.734867 z"
       id="path3127" />
    <path
       style="fill:#31441b;stroke-width:2.70845"
       d="m 183.52122,72.617895 c -0.0907,-0.236459 -0.14016,-2.652609 -0.10982,-5.369223 l 0.0552,-4.939298 0.14329,5.291667 c 0.0788,2.910416 0.12822,5.326567 0.10982,5.369223 -0.0184,0.04266 -0.1077,-0.11591 -0.19844,-0.352369 z"
       id="path3126" />
    <path
       style="fill:#31441b;stroke-width:2.70845"
       d="m 167.21584,72.165103 c -0.38953,-0.532104 -0.45342,-0.716902 -0.1676,-0.484781 0.43386,0.352346 1.08987,1.344677 0.88895,1.344677 -0.0505,0 -0.37512,-0.386953 -0.72135,-0.859896 z"
       id="path3125" />
    <path
       style="fill:#31441b;stroke-width:2.70845"
       d="m 184.41458,72.908322 c 0,-0.209693 0.10796,-0.447982 0.23991,-0.529532 0.13195,-0.08155 0.17759,0.09002 0.10143,0.381261 -0.16156,0.617798 -0.34134,0.695893 -0.34134,0.148271 z"
       id="path3124" />
    <path
       style="fill:#31441b;stroke-width:2.70845"
       d="m 181.87625,73.223436 c -0.70724,-0.819288 -1.73659,-2.315104 -1.59314,-2.315104 0.0647,0 0.58839,0.591159 1.16368,1.313687 0.57528,0.722528 1.14028,1.228544 1.25555,1.124479 0.11527,-0.104064 0.12393,-0.04038 0.0192,0.141522 -0.10468,0.181901 -0.22208,0.330729 -0.26088,0.330729 -0.0388,0 -0.30181,-0.267891 -0.58446,-0.595313 z"
       id="path3123" />
    <path
       style="fill:#31441b;stroke-width:2.70845"
       d="m 169.33333,72.963736 c -0.97192,-1.213293 -1.36867,-1.79082 -1.23027,-1.79082 0.0675,0 0.62108,0.595312 1.23027,1.322916 0.60918,0.727604 1.00722,1.316329 0.88453,1.308278 -0.12269,-0.0081 -0.52073,-0.38622 -0.88453,-0.840374 z"
       id="path3122" />
    <path
       style="fill:#31441b;stroke-width:2.70845"
       d="m 157.20427,74.083335 c 0,-0.363802 0.06,-0.51263 0.13345,-0.330729 0.0734,0.181901 0.0734,0.479557 0,0.661458 -0.0734,0.181902 -0.13345,0.03307 -0.13345,-0.330729 z"
       id="path3119" />
    <path
       style="fill:#31441b;stroke-width:2.70845"
       d="m 175.81562,74.735483 c -0.66476,-0.320188 -0.68626,-0.356413 -0.13229,-0.222911 0.3638,0.08767 0.77457,0.265086 0.91281,0.394251 0.34294,0.320417 0.15461,0.279075 -0.78052,-0.17134 z"
       id="path3118" />
    <path
       style="fill:#31441b;stroke-width:2.70845"
       d="m 170.12708,74.823953 c 0,-0.1163 0.56554,-0.202055 1.25677,-0.190567 1.38335,0.02299 1.27144,0.151442 -0.26458,0.303683 -0.54571,0.05409 -0.99219,0.0032 -0.99219,-0.113116 z"
       id="path3117" />
    <path
       style="fill:#31441b;stroke-width:2.70845"
       d="m 188.47696,75.29511 c 0.28659,-0.770841 -0.36048,-0.994174 -0.95027,-0.327982 -0.43881,0.495651 1.9677,-4.095178 1.59332,-2.467585 l -0.64305,2.795598 z m 0.0475,-1.673264 c -0.30113,0.429929 -0.32048,0.615219 -0.0798,0.763984 0.39532,0.244323 0.29846,-1.076157 0.0798,-0.763984 z m 11.01728,-8.866493 c 1.42771,-0.645222 1.80615,-0.673528 1.80615,-0.135096 0,0.131074 -0.22811,0.165918 -0.5069,0.07743 -0.2788,-0.08849 -0.58264,-0.03834 -0.6752,0.111432 -0.10013,0.162016 -0.002,0.208493 0.24232,0.114746 0.97555,-0.374357 0.24454,0.175314 -2.00041,1.50417 -1.32606,0.784937 -3.2013,2.124893 -4.16719,2.97768 -0.96589,0.852787 2.71184,-3.480141 5.30123,-4.650362 z"
       id="path3116"
       sodipodi:nodetypes="ssscsscssssscsss" />
    <path
       style="fill:#31441b;stroke-width:2.70845"
       d="m 167.89513,75.857858 c 0.0994,-0.260938 0.2473,-0.407781 0.32877,-0.32632 0.0815,0.08146 1.6e-4,0.294956 -0.18066,0.474432 -0.2613,0.259363 -0.29169,0.228972 -0.14811,-0.148112 z"
       id="path3115" />
    <path
       style="fill:#31441b;stroke-width:2.70845"
       d="m 186.53124,76.199998 c 0.15576,-0.291042 0.34274,-0.529167 0.4155,-0.529167 0.0728,0 0.005,0.238125 -0.15091,0.529167 -0.15576,0.291042 -0.34274,0.529167 -0.4155,0.529167 -0.0728,0 -0.005,-0.238125 0.15091,-0.529167 z"
       id="path3114" />
    <path
       style="fill:#31441b;stroke-width:2.70845"
       d="m 176.21249,76.448966 c 0,-0.154109 0.11907,-0.206613 0.26459,-0.116676 0.14552,0.08994 0.26458,0.216026 0.26458,0.280198 0,0.06417 -0.11906,0.116677 -0.26458,0.116677 -0.14552,0 -0.26459,-0.12609 -0.26459,-0.280199 z"
       id="path3113" />
    <path
       style="fill:#31441b;stroke-width:2.70845"
       d="m 174.88958,76.78046 c 0,-0.138097 0.17859,-0.399305 0.39687,-0.580462 0.21828,-0.181157 0.39688,-0.246763 0.39688,-0.14579 0,0.100973 -0.1786,0.362181 -0.39688,0.580463 -0.21828,0.218281 -0.39687,0.283886 -0.39687,0.145789 z"
       id="path3111" />
    <path
       style="fill:#31441b;stroke-width:2.70845"
       d="m 184.5014,76.067706 c 0.001,-1.018646 0.049,-1.402943 0.10627,-0.853994 0.0573,0.548949 0.0563,1.382386 -0.002,1.852083 -0.0584,0.469697 -0.10532,0.02056 -0.10414,-0.998089 z"
       id="path3110" />
    <path
       style="fill:#31441b;stroke-width:2.70845"
       d="m 185.7456,77.91979 c 0,-0.145521 0.11541,-0.443177 0.25648,-0.661459 0.14106,-0.218281 0.25648,-0.277812 0.25648,-0.132291 0,0.14552 -0.11542,0.443177 -0.25648,0.661458 -0.14107,0.218281 -0.25648,0.277812 -0.25648,0.132292 z"
       id="path3107" />
    <path
       style="fill:#31441b;stroke-width:2.70845"
       d="m 174.38246,78.241796 c 0.0606,-0.04118 0.34837,-0.249537 0.63941,-0.463021 0.48948,-0.359042 0.50193,-0.353427 0.16604,0.07487 -0.19972,0.254661 -0.48745,0.463021 -0.63941,0.463021 -0.15196,0 -0.22667,-0.03369 -0.16604,-0.07487 z"
       id="path3106" />
    <path
       style="fill:#31441b;stroke-width:2.70845"
       d="m 158.87141,78.034478 c -0.0959,-0.155202 -0.11766,-0.338931 -0.0483,-0.408286 0.0693,-0.06936 0.1966,0.05763 0.28277,0.282187 0.17891,0.466224 0.0264,0.548232 -0.23447,0.126099 z"
       id="path3105" />
    <path
       style="fill:#31441b;stroke-width:2.70845"
       d="m 180.14749,78.38281 c -0.3291,-0.419643 -0.31974,-0.429002 0.0999,-0.09989 0.25466,0.199719 0.46302,0.408078 0.46302,0.46302 0,0.217762 -0.21727,0.0776 -0.56292,-0.363126 z"
       id="path3104" />
    <path
       style="fill:#31441b;stroke-width:2.70845"
       d="m 165.89374,78.745936 c 0,-0.05494 0.20836,-0.263301 0.46303,-0.46302 0.41964,-0.329108 0.429,-0.319749 0.0999,0.09989 -0.34564,0.44073 -0.56292,0.580888 -0.56292,0.363126 z"
       id="path3103" />
    <path
       style="fill:#31441b;stroke-width:2.70845"
       d="m 186.00208,79.141644 c 0,-0.14552 0.11362,-0.334809 0.2525,-0.420641 0.13888,-0.08583 0.57485,-0.748298 0.96882,-1.472148 0.39397,-0.723851 0.7644,-1.267998 0.82318,-1.209217 0.13498,0.134984 -1.48271,3.019384 -1.80517,3.218675 -0.13163,0.08135 -0.23933,0.02885 -0.23933,-0.116669 z"
       id="path3102" />
    <path
       style="fill:#31441b;stroke-width:2.70845"
       d="m 166.42291,79.271014 c 0,-0.05719 0.18478,-0.17489 0.41062,-0.261553 0.23546,-0.09035 0.34166,-0.046 0.24897,0.103984 -0.15538,0.251408 -0.65959,0.371858 -0.65959,0.157569 z"
       id="path3101" />
    <path
       style="fill:#31441b;stroke-width:2.70845"
       d="m 158.24739,79.032238 c -0.33468,-0.557294 -0.32904,-0.562933 0.12656,-0.126559 0.26226,0.251197 0.41989,0.513673 0.35028,0.58328 -0.0696,0.06961 -0.28418,-0.135917 -0.47684,-0.456721 z"
       id="path3099" />
    <path
       style="fill:#31441b;stroke-width:2.70845"
       d="m 161.26354,79.757056 c -0.63768,-0.311566 -0.66369,-0.352238 -0.1323,-0.20684 0.36381,0.09954 1.25678,0.175568 1.98438,0.168946 1.00484,-0.0091 1.16388,0.03711 0.66146,0.1924 -1.00508,0.310645 -1.64162,0.271518 -2.51354,-0.154506 z"
       id="path3098" />
    <path
       style="fill:#31441b;stroke-width:2.70845"
       d="m 181.11027,79.739296 c -0.25011,-0.381719 -0.32398,-0.613213 -0.16414,-0.514431 0.30543,0.188769 0.92145,1.208466 0.73006,1.208466 -0.0611,0 -0.31581,-0.312315 -0.56592,-0.694035 z"
       id="path3097" />
    <path
       style="fill:#31441b;stroke-width:2.70845"
       d="m 159.62673,80.234894 c -0.27764,-0.254662 -0.37371,-0.378526 -0.21349,-0.275254 0.16021,0.103272 0.58254,0.304084 0.93851,0.44625 0.40917,0.163416 0.48769,0.264651 0.21349,0.275254 -0.23854,0.0092 -0.66087,-0.191589 -0.93851,-0.44625 z"
       id="path3096" />
    <path
       style="fill:#31441b;stroke-width:2.70845"
       d="m 185.21643,81.359373 c 0,-0.145521 0.11542,-0.443177 0.25648,-0.661458 0.14106,-0.218282 0.25648,-0.277813 0.25648,-0.132292 0,0.145521 -0.11542,0.443177 -0.25648,0.661458 -0.14106,0.218281 -0.25648,0.277813 -0.25648,0.132292 z"
       id="path3095" />
    <path
       style="fill:#31441b;stroke-width:2.70845"
       d="m 183.51684,81.337733 c -0.0883,-0.230183 -0.1606,-1.605314 -0.1606,-3.055847 0,-1.839982 -0.12386,-2.893335 -0.40968,-3.48409 -0.29898,-0.617959 -0.30979,-0.722757 -0.04,-0.387848 0.20333,0.252399 0.42699,0.401614 0.49702,0.331587 0.07,-0.07003 0.15441,1.211746 0.18752,2.848383 0.0331,1.636638 0.12578,3.243595 0.20593,3.571017 0.16619,0.678912 -0.0381,0.807793 -0.28021,0.176798 z"
       id="path3094" />
    <path
       style="fill:#31441b;stroke-width:2.70845"
       d="m 164.50468,81.573864 c -0.25466,-0.06655 -0.46302,-0.235522 -0.46302,-0.375492 0,-0.153364 0.21028,-0.141956 0.52917,0.02871 0.29104,0.155761 0.52916,0.338544 0.52916,0.406184 0,0.06764 -0.0298,0.109171 -0.0661,0.09229 -0.0364,-0.01688 -0.27451,-0.08514 -0.52917,-0.151692 z"
       id="path3093" />
    <path
       style="fill:#31441b;stroke-width:2.70845"
       d="m 161.74861,81.314253 c 0,-0.193465 0.27781,-0.351755 0.61736,-0.351755 0.33955,0 0.61736,0.105182 0.61736,0.233739 0,0.128556 -0.27781,0.286846 -0.61736,0.351755 -0.39636,0.07577 -0.61736,-0.0079 -0.61736,-0.233739 z"
       id="path3092" />
    <path
       style="fill:#31441b;stroke-width:2.70845"
       d="m 167.21666,81.832742 c 0,-0.151956 0.20836,-0.439691 0.46302,-0.63941 0.4283,-0.335892 0.43391,-0.32344 0.0749,0.166041 -0.21348,0.291042 -0.42184,0.578776 -0.46302,0.63941 -0.0412,0.06063 -0.0749,-0.01409 -0.0749,-0.166041 z"
       id="path3091" />
    <path
       style="fill:#31441b;stroke-width:2.70845"
       d="m 159.83038,81.945963 c 0.0606,-0.04118 0.34836,-0.249537 0.63941,-0.463021 0.48948,-0.359042 0.50193,-0.353427 0.16604,0.07487 -0.19972,0.254662 -0.48746,0.463021 -0.63941,0.463021 -0.15196,0 -0.22668,-0.03369 -0.16604,-0.07487 z"
       id="path3090" />
    <path
       style="fill:#31441b;stroke-width:2.70845"
       d="m 181.47234,81.954685 c -0.41131,-0.777259 -1.93479,-2.653142 -3.31802,-4.085521 -0.60548,-0.627 -1.0097,-1.139999 -0.89827,-1.139999 0.26579,0 2.55983,2.489087 3.6528,3.963377 0.75757,1.021876 0.85989,1.084911 0.85989,0.52972 0,-0.490141 0.0706,-0.559625 0.3175,-0.312681 0.23466,0.234658 0.24006,0.394948 0.0207,0.614324 -0.16325,0.163254 -0.23386,0.46091 -0.1569,0.661459 0.22693,0.591383 -0.13521,0.416498 -0.47768,-0.230679 z"
       id="path3086" />
    <path
       style="fill:#31441b;stroke-width:2.70845"
       d="m 183.64172,82.395658 c 0.0127,-0.308225 0.0754,-0.37092 0.15985,-0.159853 0.0764,0.190996 0.067,0.419199 -0.0209,0.507118 -0.0879,0.08792 -0.15045,-0.06835 -0.13896,-0.347265 z"
       id="path3085" />
    <path
       style="fill:#31441b;stroke-width:2.70845"
       d="m 177.53378,82.792533 c -9e-4,-0.206155 -0.18037,-0.71756 -0.39884,-1.136456 -0.32234,-0.618087 -0.32693,-0.703306 -0.0243,-0.452168 0.40952,0.339866 0.80064,1.587611 0.56997,1.818282 -0.0798,0.07984 -0.1459,-0.0235 -0.1468,-0.229658 z"
       id="path3083" />
    <path
       style="fill:#666666;stroke-width:2.70845"
       d="m 182.18263,83.156721 c -0.14359,-0.377083 -0.11319,-0.407474 0.14811,-0.148112 0.18082,0.179476 0.26212,0.39297 0.18066,0.474432 -0.0815,0.08146 -0.22941,-0.06538 -0.32877,-0.32632 z"
       id="path3081" />
    <path
       style="fill:#31441b;stroke-width:2.70845"
       d="m 159.27916,83.525541 c 0,-0.04554 0.38695,-0.432488 0.8599,-0.859896 l 0.85989,-0.777105 -0.7771,0.859895 c -0.72437,0.801544 -0.94269,0.981512 -0.94269,0.777106 z"
       id="path3080" />
    <path
       style="fill:#31441b;stroke-width:2.70845"
       d="m 158.74999,84.417699 c 0,-0.136933 0.1177,-0.32171 0.26156,-0.410617 0.14998,-0.09269 0.19434,0.01351 0.10398,0.248969 -0.17589,0.458368 -0.36554,0.542233 -0.36554,0.161648 z"
       id="path3078" />
    <path
       style="fill:#31441b;stroke-width:2.70845"
       d="m 157.69166,84.565334 c 0,-0.283947 0.78724,-1.75075 0.93963,-1.75075 0.0728,0 -0.0645,0.386953 -0.30502,0.859896 -0.49113,0.965703 -0.63461,1.167113 -0.63461,0.890854 z"
       id="path3077" />
    <path
       style="fill:#31441b;stroke-width:2.70845"
       d="m 166.44928,84.512324 c 0.0145,-0.569956 0.12394,-1.333941 0.24317,-1.697743 0.13468,-0.410914 0.16088,-0.06015 0.0692,0.926042 -0.17094,1.838213 -0.35079,2.282566 -0.31234,0.771701 z"
       id="path3073" />
    <path
       style="fill:#31441b;stroke-width:2.70845"
       d="m 183.09166,86.006805 c 0,-0.427089 -0.11976,-1.111698 -0.26613,-1.521354 -0.24822,-0.694739 -0.23933,-0.710289 0.1323,-0.231238 0.36259,0.467406 0.57953,2.529118 0.26612,2.529118 -0.0728,0 -0.13229,-0.349436 -0.13229,-0.776526 z"
       id="path3072" />
    <path
       style="fill:#31441b;stroke-width:2.70845"
       d="m 177.4299,86.783331 c 0.10139,-0.363802 0.21556,-1.236266 0.2537,-1.938809 0.0381,-0.702542 0.15559,-1.357386 0.26098,-1.455208 0.30748,-0.285406 -0.059,3.029135 -0.3944,3.566988 -0.26477,0.424588 -0.28051,0.401961 -0.12028,-0.172971 z"
       id="path3071" />
    <path
       style="fill:#31441b;stroke-width:2.70845"
       d="m 157.4938,86.386456 c 0.003,-0.582083 0.0571,-0.789054 0.12041,-0.459936 0.0633,0.329119 0.0609,0.805369 -0.005,1.058333 -0.0662,0.252965 -0.118,-0.01631 -0.11507,-0.598397 z"
       id="path3070" />
    <path
       style="fill:#31441b;stroke-width:2.70845"
       d="m 165.94989,86.933183 c -0.4431,-0.972501 -0.40121,-1.176244 0.0959,-0.466491 0.22916,0.327169 0.37349,0.724353 0.32073,0.882631 -0.0528,0.158277 -0.24025,-0.02899 -0.41665,-0.41614 z"
       id="path3069" />
    <path
       style="fill:#31441b;stroke-width:2.70845"
       d="m 167.18291,87.378644 c -0.32911,-0.419644 -0.31975,-0.429003 0.0999,-0.09989 0.25466,0.199719 0.46302,0.408078 0.46302,0.463021 0,0.217761 -0.21727,0.0776 -0.56292,-0.363126 z"
       id="path3068" />
    <path
       style="fill:#31441b;stroke-width:2.70845"
       d="m 174.88958,88.800103 c 0,-0.05494 0.20836,-0.263302 0.46302,-0.463021 0.41964,-0.329107 0.429,-0.319749 0.0999,0.0999 -0.34564,0.440729 -0.56291,0.580887 -0.56291,0.363126 z"
       id="path3067" />
    <path
       style="fill:#31441b;stroke-width:2.70845"
       d="m 158.87141,88.882395 c -0.0959,-0.155203 -0.11766,-0.338931 -0.0483,-0.408286 0.0693,-0.06936 0.1966,0.05763 0.28277,0.282186 0.17891,0.466224 0.0264,0.548232 -0.23447,0.1261 z"
       id="path3063" />
    <path
       style="fill:#31441b;stroke-width:2.70845"
       d="m 169.20104,89.164581 c -0.0899,-0.145521 -0.0445,-0.264583 0.10106,-0.264583 0.14552,0 0.33817,0.119062 0.4281,0.264583 0.0899,0.145521 0.0445,0.264583 -0.10106,0.264583 -0.14552,0 -0.33817,-0.119062 -0.4281,-0.264583 z"
       id="path3060" />
    <path
       style="fill:#31441b;stroke-width:2.70845"
       d="m 166.29062,89.693745 c 0.26339,-0.291042 0.53842,-0.529167 0.61118,-0.529167 0.0728,0 -0.0832,0.238125 -0.3466,0.529167 -0.26339,0.291041 -0.53842,0.529166 -0.61118,0.529166 -0.0728,0 0.0832,-0.238125 0.3466,-0.529166 z"
       id="path3057" />
    <path
       style="fill:#31441b;stroke-width:2.70845"
       d="m 157.33888,90.575689 c -0.097,-0.09701 -0.16884,-0.424436 -0.15961,-0.727604 0.0154,-0.506834 0.0372,-0.50019 0.27026,0.08251 0.25911,0.647759 0.20537,0.961106 -0.11065,0.645094 z"
       id="path3056" />
    <path
       style="fill:#31441b;stroke-width:2.70845"
       d="m 170.39166,91.016666 c -0.23847,-0.154109 -0.2711,-0.258097 -0.0818,-0.260531 0.17331,-0.0022 0.3887,0.115011 0.47864,0.260531 0.20301,0.328487 0.11142,0.328487 -0.39688,0 z"
       id="path3052" />
    <path
       style="fill:#31441b;stroke-width:2.70845"
       d="m 163.77708,91.091766 c 0.21828,-0.08124 0.72429,-0.313021 1.12448,-0.515073 0.40018,-0.202052 0.7276,-0.307836 0.7276,-0.235076 0,0.207684 -1.52261,0.941976 -1.90509,0.918743 -0.23099,-0.01403 -0.21359,-0.06938 0.053,-0.168594 z"
       id="path3051" />
    <path
       style="fill:#31441b;stroke-width:2.70845"
       d="m 184.58204,91.338149 c -0.25405,-0.411049 0.0841,-8.546739 0.37393,-8.99624 0.26179,-0.406032 0.2753,-0.399875 0.12942,0.05898 -0.0896,0.28179 -0.16587,2.454681 -0.16951,4.828646 -0.004,2.373965 -0.0514,4.3163 -0.10605,4.3163 -0.0547,0 -0.1572,-0.09346 -0.22779,-0.207682 z"
       id="path3050" />
    <path
       style="fill:#31441b;stroke-width:2.70845"
       d="m 160.45421,91.663527 c -0.50537,-0.404887 -0.50512,-0.407576 0.0156,-0.168045 0.29104,0.133885 0.70776,0.309648 0.92604,0.390583 0.34283,0.127118 0.34071,0.150001 -0.0156,0.168045 -0.22685,0.01149 -0.64356,-0.164274 -0.92604,-0.390583 z"
       id="path3049" />
    <path
       style="fill:#31441b;stroke-width:2.70845"
       d="m 163.46289,92.15884 c 0.19099,-0.07643 0.41919,-0.06703 0.50711,0.02089 0.0879,0.08792 -0.0684,0.150452 -0.34726,0.138964 -0.30823,-0.0127 -0.37092,-0.07539 -0.15985,-0.159854 z"
       id="path3048" />
    <path
       style="fill:#31441b;stroke-width:2.70845"
       d="m 185.47291,92.698831 c 0,-0.141961 0.18516,-0.489226 0.41147,-0.771701 0.38798,-0.484268 0.39349,-0.475826 0.0965,0.147868 -0.38571,0.809898 -0.50792,0.959998 -0.50792,0.623833 z"
       id="path3045" />
    <path
       style="fill:#31441b;stroke-width:2.70845"
       d="m 183.93699,99.351039 c 0.005,-0.436562 0.0647,-0.583124 0.13177,-0.325693 0.0671,0.257431 0.0627,0.614618 -0.01,0.79375 -0.0725,0.179131 -0.12736,-0.03149 -0.12197,-0.468057 z"
       id="path3033" />
    <path
       style="fill:#31441b;stroke-width:2.70845"
       d="m 184.65513,102.45989 c -0.0728,-1.40207 0.0598,-7.598416 0.16476,-7.703404 0.0681,-0.06812 0.12385,1.741463 0.12385,4.021289 0,2.279825 -0.0595,4.145135 -0.13229,4.145135 -0.0728,0 -0.1431,-0.20836 -0.15632,-0.46302 z"
       id="path3030" />
    <path
       style="fill:#31441b;stroke-width:2.70845"
       d="m 183.41627,94.97814 0.06,-8.062517 0.14453,7.672916 c 0.0795,4.220104 0.19059,7.196671 0.24689,6.614581 0.0996,-1.02983 0.10525,-1.03523 0.20892,-0.20071 0.0631,0.50764 -0.0622,1.09852 -0.30693,1.44794 -0.37824,0.54002 -0.40835,-0.0965 -0.35344,-7.47221 z"
       id="path3029" />
    <path
       style="fill:#31441b;stroke-width:2.70845"
       d="m 184.3089,104.06956 c 0.24353,-1.01373 0.37026,-1.10967 0.37026,-0.28032 0,0.37947 -0.12383,0.76648 -0.27519,0.86002 -0.18049,0.11155 -0.21321,-0.0879 -0.0951,-0.5797 z"
       id="path3025" />
    <path
       style="fill:#31441b;stroke-width:2.70845"
       d="m 183.45785,104.39358 c -0.0805,-0.20978 -0.0997,-0.59674 -0.0427,-0.8599 0.0647,-0.29877 0.15528,-0.15552 0.24114,0.38142 0.14409,0.90104 0.0504,1.12692 -0.1984,0.47848 z"
       id="path3024" />
    <path
       style="fill:#263916;stroke-width:2.70845"
       d="m 190.86417,53.880021 c 0.0694,-0.472905 2.78642,-2.67815 3.54363,-2.876165 0.40268,-0.105304 0.53578,-0.05704 0.41794,0.151546 -0.35181,0.622749 -0.97673,1.231923 -1.2579,1.226213 -0.15935,-0.0032 0.008,-0.236605 0.37174,-0.518599 0.6385,-0.494919 0.64079,-0.507419 0.0661,-0.360133 -0.54365,0.139341 -0.71534,0.40289 -0.62419,0.958123 0.0186,0.11319 -0.17568,0.285653 -0.43169,0.383251 -0.25601,0.0976 -0.76191,0.451472 -1.12423,0.786387 -0.75051,0.693754 -1.03759,0.768217 -0.96144,0.249377 z"
       id="path2026" />
    <path
       style="fill:#263916;stroke-width:2.70845"
       d="m 184.49021,54.636457 c 0.002,-0.727605 0.0534,-0.993858 0.11419,-0.591675 0.0608,0.402183 0.0592,0.997496 -0.004,1.322917 -0.0628,0.325421 -0.11256,-0.0036 -0.11058,-0.731242 z"
       id="path2023" />
    <path
       style="fill:#263916;stroke-width:2.70845"
       d="m 184.32181,58.411328 c -0.085,-0.324912 -0.0393,-0.705912 0.10143,-0.846666 0.16484,-0.164835 0.25592,0.04542 0.25592,0.590749 0,0.465667 -0.0456,0.846667 -0.10143,0.846667 -0.0558,0 -0.17095,-0.265838 -0.25592,-0.59075 z"
       id="path2006" />
    <path
       style="fill:#263916;stroke-width:2.70845"
       d="m 183.40782,58.605207 c 0.005,-0.436563 0.0647,-0.583125 0.13178,-0.325694 0.0671,0.257431 0.0627,0.614618 -0.01,0.79375 -0.0725,0.179131 -0.12736,-0.03149 -0.12197,-0.468056 z"
       id="path2002" />
    <path
       style="fill:#263916;stroke-width:2.70845"
       d="m 182.97638,61.460888 c -0.14359,-0.377083 -0.11319,-0.407474 0.14811,-0.148112 0.18082,0.179476 0.26212,0.39297 0.18066,0.474432 -0.0815,0.08146 -0.22941,-0.06538 -0.32877,-0.32632 z"
       id="path1996" />
    <path
       style="fill:#263916;stroke-width:2.70845"
       d="m 184.46732,63.63229 c 0,-0.291042 0.0953,-0.826823 0.21184,-1.190625 0.16774,-0.523765 0.21184,-0.551304 0.21184,-0.132292 0,0.291042 -0.0953,0.826823 -0.21184,1.190625 -0.16774,0.523765 -0.21184,0.551304 -0.21184,0.132292 z"
       id="path1993" />
    <path
       style="fill:#263916;stroke-width:2.70845"
       d="m 179.40893,67.244219 c -0.15731,-0.293938 -0.28125,-0.691088 -0.27543,-0.882556 0.006,-0.191468 0.19374,-0.01017 0.41758,0.402872 0.22385,0.413048 0.34779,0.810198 0.27543,0.882557 -0.0724,0.07236 -0.26027,-0.108934 -0.41758,-0.402873 z"
       id="path1982" />
    <path
       style="fill:#263916;stroke-width:2.70845"
       d="m 178.64014,67.223519 c -0.17769,-0.509705 -0.18644,-0.858847 -0.024,-0.959214 0.14044,-0.08679 0.2288,-0.05966 0.19636,0.0603 -0.0324,0.119957 0.035,0.494967 0.1499,0.833355 0.11488,0.338388 0.15223,0.671888 0.083,0.74111 -0.0692,0.06922 -0.25158,-0.234774 -0.40523,-0.675549 z"
       id="path1981" />
    <path
       style="fill:#263916;stroke-width:2.70845"
       d="m 184.49025,67.336456 c 0.002,-0.727604 0.0534,-0.993857 0.11419,-0.591674 0.0608,0.402183 0.0592,0.997496 -0.004,1.322917 -0.0628,0.325421 -0.11256,-0.0036 -0.11058,-0.731243 z"
       id="path1976" />
    <path
       style="fill:#263916;stroke-width:2.70845"
       d="m 177.45492,68.003742 c -0.68333,-0.433358 -1.24243,-0.857103 -1.24243,-0.941657 0,-0.08455 0.14883,-0.06809 0.33073,0.03659 0.1819,0.104679 0.23901,0.08944 0.12691,-0.03387 -0.11211,-0.123309 -0.40977,-0.23973 -0.66146,-0.258713 -0.56269,-0.04244 -3.23576,-1.934557 -3.23576,-2.29041 0,-0.142011 0.26712,-0.179958 0.59531,-0.08457 0.61238,0.177982 2.73076,1.553221 3.90261,2.533544 0.55939,0.467962 0.5798,0.530283 0.13229,0.403866 -0.5052,-0.142712 -0.50678,-0.13484 -0.0348,0.173809 0.77783,0.508638 1.63692,1.230849 1.47564,1.24053 -0.0806,0.0048 -0.70573,-0.345763 -1.38906,-0.77912 z m -2.30076,-2.245477 c 0,-0.06764 -0.26789,-0.265727 -0.59531,-0.440192 -0.53981,-0.287635 -0.56146,-0.276169 -0.23219,0.122983 0.33809,0.409844 0.8275,0.597452 0.8275,0.317209 z"
       id="path1975" />
    <path
       style="fill:#263916;stroke-width:2.70845"
       d="m 183.46506,67.204167 c 0,-2.546615 0.0397,-3.588412 0.0882,-2.315104 0.0485,1.273307 0.0485,3.356901 0,4.630208 -0.0485,1.273307 -0.0882,0.23151 -0.0882,-2.315104 z"
       id="path1966" />
    <path
       style="fill:#263916;stroke-width:2.70845"
       d="m 190.33907,71.920334 c -0.10468,-0.16938 0.14595,-0.538232 0.58,-0.853574 0.42038,-0.305417 1.46709,-1.18172 2.32601,-1.947339 3.06301,-2.73029 6.61269,-4.930471 6.84247,-4.241134 0.054,0.162117 0.2887,0.08474 0.55717,-0.183727 0.25509,-0.255094 0.53874,-0.388872 0.63033,-0.297284 0.26906,0.269063 -0.81051,0.963128 -1.31657,0.84643 -0.25486,-0.05877 -0.40411,-0.01096 -0.33167,0.106254 0.0724,0.117212 -0.7906,0.786286 -1.91787,1.486832 -1.12726,0.700546 -2.58535,1.766923 -3.2402,2.369728 -1.8521,1.704916 -3.91527,3.060729 -4.12967,2.713814 z m 2.25554,-1.464321 c 0.0606,-0.04227 -0.0268,-0.07685 -0.19426,-0.07685 -0.16748,0 -0.69334,0.36792 -1.16858,0.817599 l -0.86407,0.8176 1.05833,-0.740751 c 0.58209,-0.407414 1.10795,-0.775334 1.16858,-0.8176 z m 1.08038,-1.00289 c 0.34178,-0.363802 0.56188,-0.661458 0.48912,-0.661458 -0.0728,0 -0.41193,0.297656 -0.7537,0.661458 -0.34177,0.363802 -0.56188,0.661458 -0.48912,0.661458 0.0728,0 0.41193,-0.297656 0.7537,-0.661458 z m 4.82865,-3.478135 c 0.25466,-0.0855 0.46302,-0.263691 0.46302,-0.395976 0,-0.319087 -1.25669,0.366772 -2.24896,1.227405 l -0.79375,0.688451 1.05833,-0.682211 c 0.58209,-0.375217 1.2667,-0.752167 1.52136,-0.837669 z"
       id="path1962" />
    <path
       style="fill:#263916;stroke-width:2.70845"
       d="m 168.50583,71.768227 c -0.32911,-0.419644 -0.31975,-0.429002 0.0999,-0.09989 0.25467,0.19972 0.46302,0.408079 0.46302,0.463021 0,0.217761 -0.21727,0.0776 -0.56291,-0.363126 z"
       id="path1961" />
    <path
       style="fill:#263916;stroke-width:2.70845"
       d="m 187.58958,74.512603 c 0,-0.05494 0.20836,-0.263301 0.46302,-0.463021 0.41964,-0.329107 0.429,-0.319749 0.0999,0.0999 -0.34564,0.440729 -0.56291,0.580887 -0.56291,0.363126 z"
       id="path1950" />
    <path
       style="fill:#263916;stroke-width:2.70845"
       d="m 189.1519,74.439362 c 0.30489,-0.459026 0.55434,-1.024573 0.55434,-1.25677 0,-0.232198 0.11907,-0.422177 0.26459,-0.422177 0.48821,0 0.25692,0.653956 -0.56147,1.5875 -0.77811,0.887598 -0.78879,0.891395 -0.25746,0.09145 z"
       id="path1948" />
    <path
       style="fill:#263916;stroke-width:2.70845"
       d="m 176.21249,76.448966 c 0,-0.154109 0.11907,-0.206613 0.26459,-0.116676 0.14552,0.08994 0.26458,0.216026 0.26458,0.280198 0,0.06417 -0.11906,0.116677 -0.26458,0.116677 -0.14552,0 -0.26459,-0.12609 -0.26459,-0.280199 z"
       id="path1943" />
    <path
       style="fill:#263916;stroke-width:2.70845"
       d="m 184.49025,75.803123 c 0.002,-0.727604 0.0534,-0.993858 0.11419,-0.591675 0.0608,0.402184 0.0592,0.997496 -0.004,1.322917 -0.0628,0.325421 -0.11256,-0.0036 -0.11058,-0.731242 z"
       id="path1941" />
    <path
       style="fill:#263916;stroke-width:2.70845"
       d="m 186.79583,78.052081 c 0.15576,-0.291041 0.34273,-0.529166 0.41549,-0.529166 0.0728,0 0.005,0.238125 -0.15091,0.529166 -0.15576,0.291042 -0.34273,0.529167 -0.41549,0.529167 -0.0728,0 -0.005,-0.238125 0.15091,-0.529167 z"
       id="path1937" />
    <path
       style="fill:#263916;stroke-width:2.70845"
       d="m 179.09435,78.779685 c -0.21686,-0.181901 -0.56249,-0.568854 -0.76807,-0.859895 -0.20558,-0.291042 0.009,-0.17947 0.47601,0.247938 0.46738,0.427408 0.84979,0.814361 0.84979,0.859896 0,0.155502 -0.16331,0.0829 -0.55773,-0.247939 z"
       id="path1934" />
    <path
       style="fill:#263916;stroke-width:2.70845"
       d="m 179.88291,79.705727 c -0.32911,-0.419644 -0.31975,-0.429002 0.0999,-0.09989 0.25466,0.19972 0.46302,0.408079 0.46302,0.463021 0,0.217761 -0.21727,0.0776 -0.56292,-0.363126 z"
       id="path1931" />
    <path
       style="fill:#263916;stroke-width:2.70845"
       d="m 181.23958,79.904165 c -0.15576,-0.291042 -0.22367,-0.529167 -0.15091,-0.529167 0.0728,0 0.25973,0.238125 0.41549,0.529167 0.15576,0.291041 0.22367,0.529166 0.15091,0.529166 -0.0728,0 -0.25973,-0.238125 -0.41549,-0.529166 z"
       id="path1929" />
    <path
       style="fill:#263916;stroke-width:2.70845"
       d="m 183.45163,78.316665 c 0,-1.382448 0.0446,-1.947995 0.0991,-1.256771 0.0545,0.691224 0.0545,1.822317 0,2.513541 -0.0545,0.691224 -0.0991,0.125677 -0.0991,-1.25677 z"
       id="path1927" />
    <path
       style="fill:#263916;stroke-width:2.70845"
       d="m 184.70005,83.45396 c 0.0127,-0.308225 0.0754,-0.370919 0.15985,-0.159853 0.0764,0.190997 0.067,0.4192 -0.0209,0.507119 -0.0879,0.08792 -0.15045,-0.06835 -0.13896,-0.347266 z"
       id="path1918" />
    <path
       style="fill:#263916;stroke-width:2.70845"
       d="m 177.82088,84.247741 c 0.0127,-0.308225 0.0754,-0.370919 0.15985,-0.159853 0.0764,0.190997 0.067,0.4192 -0.0209,0.507118 -0.0879,0.08792 -0.15046,-0.06835 -0.13897,-0.347265 z"
       id="path1912" />
    <path
       style="fill:#263916;stroke-width:2.70845"
       d="m 184.72094,84.666664 c 0,-0.363802 0.06,-0.51263 0.13345,-0.330729 0.0734,0.181901 0.0734,0.479558 0,0.661459 -0.0734,0.181901 -0.13345,0.03307 -0.13345,-0.33073 z"
       id="path1909" />
    <path
       style="fill:#263916;stroke-width:2.70845"
       d="m 183.12769,85.989581 c -0.0238,-0.363802 -0.10452,-0.959114 -0.1794,-1.322917 l -0.13614,-0.661458 0.28422,0.651271 c 0.15632,0.358199 0.23705,0.953512 0.1794,1.322917 l -0.10482,0.671645 z"
       id="path1905" />
    <path
       style="fill:#263916;stroke-width:2.70845"
       d="m 188.19191,87.42393 c 0.2508,-0.3025 0.456,-0.650313 0.456,-0.772917 0,-0.122604 0.15949,-0.410885 0.35441,-0.640624 l 0.20159,0.309898 c 0.0896,0.137772 -0.29142,0.112448 -0.29142,0.330729 0,0.488832 0.47995,0.512567 1.0375,0.05131 0.22974,-0.190063 1.52865,-1.038585 2.88647,-1.885604 2.50737,-1.564118 5.84884,-3.109461 7.35901,-3.403348 0.72697,-0.141473 0.81516,-0.09778 0.69903,0.346297 -0.0731,0.279508 -0.38793,0.58174 -0.69964,0.671627 -1.30608,0.37663 -5.2217,2.116399 -7.31362,3.249554 -1.23692,0.670022 -2.3888,1.189018 -2.55973,1.153323 -0.17093,-0.03569 -0.38632,0.05732 -0.47864,0.206702 -0.0923,0.14938 -0.43467,0.2716 -0.76078,0.2716 -0.32611,0 -0.76241,0.148828 -0.96956,0.330729 -0.20714,0.181901 -0.17142,0.08323 0.0794,-0.219271 z m 7.59975,-3.551042 c 0.80036,-0.422831 1.36209,-0.774402 1.24827,-0.781267 -0.3277,-0.01977 -1.99553,0.718697 -2.63537,1.166863 -0.935,0.654897 -0.19085,0.448033 1.3871,-0.385596 z m 3.50079,-1.410154 c 1.14568,-0.399038 1.54084,-0.706512 0.90797,-0.706512 -0.24306,0 -0.88622,0.238125 -1.42924,0.529167 -1.12963,0.605444 -0.91627,0.678033 0.52127,0.177345 z"
       id="path1903"
       sodipodi:nodetypes="cscssssssssscssccssssssss" />
    <path
       style="fill:#263916;stroke-width:2.70845"
       d="m 184.76598,87.709373 c 10e-4,-1.018646 0.049,-1.402944 0.10627,-0.853995 0.0573,0.548949 0.0563,1.382387 -0.002,1.852084 -0.0584,0.469697 -0.10531,0.02056 -0.10414,-0.998089 z"
       id="path1897" />
    <path
       style="fill:#263916;stroke-width:2.70845"
       d="m 187.1927,89.958331 c 0.26339,-0.291042 0.53842,-0.529167 0.61118,-0.529167 0.0728,0 -0.0832,0.238125 -0.34659,0.529167 -0.26339,0.291042 -0.53843,0.529167 -0.61119,0.529167 -0.0728,0 0.0832,-0.238125 0.3466,-0.529167 z"
       id="path1891" />
    <path
       style="fill:#263916;stroke-width:2.70845"
       d="m 157.28391,90.469898 c -0.0959,-0.155203 -0.11766,-0.338931 -0.0483,-0.408286 0.0693,-0.06936 0.1966,0.05763 0.28277,0.282186 0.17891,0.466224 0.0264,0.548232 -0.23447,0.1261 z"
       id="path1889" />
    <path
       style="fill:#263916;stroke-width:2.70845"
       d="m 184.72094,90.487498 c 0,-0.363802 0.06,-0.51263 0.13345,-0.330729 0.0734,0.181901 0.0734,0.479557 0,0.661458 -0.0734,0.181901 -0.13345,0.03307 -0.13345,-0.330729 z"
       id="path1888" />
    <path
       style="fill:#263916;stroke-width:2.70845"
       d="m 185.73749,92.090613 c 0,-0.136933 0.1177,-0.321711 0.26156,-0.410617 0.14998,-0.09269 0.19433,0.01351 0.10398,0.248968 -0.17589,0.458369 -0.36554,0.542234 -0.36554,0.161649 z"
       id="path1886" />
    <path
       style="fill:#263916;stroke-width:2.70845"
       d="m 183.47066,95.779164 c 0,-3.56526 0.0374,-5.023776 0.0832,-3.241145 0.0458,1.78263 0.0458,4.699661 0,6.482291 -0.0458,1.78263 -0.0832,0.324115 -0.0832,-3.241146 z"
       id="path1864" />
    <path
       style="fill:#263916;stroke-width:2.70845"
       d="m 184.7843,98.954164 c 0,-2.110052 0.0411,-2.973255 0.0913,-1.918229 0.0502,1.055026 0.0502,2.781432 0,3.836455 -0.0502,1.05503 -0.0913,0.19183 -0.0913,-1.918226 z"
       id="path1862" />
    <path
       style="fill:#263916;stroke-width:2.70845"
       d="m 184.45635,103.98125 c 0,-0.3638 0.0601,-0.51263 0.13346,-0.33073 0.0734,0.1819 0.0734,0.47956 0,0.66146 -0.0734,0.1819 -0.13346,0.0331 -0.13346,-0.33073 z"
       id="path1860" />
    <path
       style="fill:#192d0d;stroke-width:2.70845"
       d="m 194.0219,51.951922 c 0.36982,-0.43826 0.40001,-0.599562 0.13229,-0.706715 -0.22658,-0.09069 -0.1863,-0.146089 0.11612,-0.159732 0.63166,-0.0285 0.58122,0.326187 -0.1323,0.930292 l -0.59531,0.504028 z"
       id="path1068" />
    <path
       style="fill:#192d0d;stroke-width:2.70845"
       d="m 192.5029,52.682061 c -0.0798,-0.129033 0.062,-0.396923 0.31511,-0.595313 0.40644,-0.318638 0.4218,-0.31158 0.13167,0.06051 -0.18063,0.231671 -0.25009,0.499561 -0.15434,0.595313 0.0958,0.09575 0.10175,0.174093 0.0133,0.174093 -0.0884,0 -0.22602,-0.105572 -0.30576,-0.234604 z"
       id="path1061" />
    <path
       style="fill:#192d0d;stroke-width:2.70845"
       d="m 191.39902,53.576708 c 0.0324,-0.220447 0.22452,-0.548436 0.42704,-0.728864 0.30733,-0.273817 0.31602,-0.258414 0.0525,0.09317 -0.17362,0.231671 -0.24925,0.487639 -0.16807,0.568818 0.0812,0.08118 0.0311,0.21962 -0.11136,0.307646 -0.14243,0.08803 -0.23249,-0.02032 -0.20014,-0.240768 z"
       id="path1052" />
    <path
       style="fill:#192d0d;stroke-width:2.70845"
       d="m 189.70624,55.19802 c 0,-0.05494 0.20836,-0.263301 0.46302,-0.463021 0.41965,-0.329107 0.42901,-0.319749 0.0999,0.09989 -0.34564,0.440729 -0.56292,0.580887 -0.56292,0.363126 z"
       id="path1039" />
    <path
       style="fill:#192d0d;stroke-width:2.70845"
       d="m 188.81965,55.64604 c -0.21048,-0.210473 1.38714,-1.935625 1.79253,-1.935625 0.15013,0 -0.17199,0.366767 -0.71582,0.815039 -0.54383,0.448271 -0.92112,0.924521 -0.83842,1.058333 0.17584,0.284505 0.0237,0.324249 -0.23829,0.06225 z"
       id="path1032" />
    <path
       style="fill:#192d0d;stroke-width:2.70845"
       d="m 187.59762,55.443436 c -0.006,-0.569205 0.071,-0.701466 0.28396,-0.48852 0.20927,0.209271 0.21155,0.430408 0.008,0.78052 -0.24893,0.428261 -0.28494,0.392242 -0.292,-0.292 z"
       id="path1029" />
    <path
       style="fill:#192d0d;stroke-width:2.70845"
       d="m 190.97955,56.704587 c 0.191,-0.07643 0.4192,-0.06703 0.50712,0.02089 0.0879,0.08792 -0.0684,0.150453 -0.34727,0.138965 -0.30822,-0.0127 -0.37092,-0.07539 -0.15985,-0.159853 z"
       id="path1013" />
    <path
       style="fill:#192d0d;stroke-width:2.70845"
       d="m 183.37713,58.583158 c 0.0127,-0.308225 0.0754,-0.370919 0.15985,-0.159852 0.0764,0.190996 0.067,0.419199 -0.0209,0.507118 -0.0879,0.08792 -0.15046,-0.06835 -0.13897,-0.347266 z"
       id="path994" />
    <path
       style="fill:#192d0d;stroke-width:2.70845"
       d="m 184.70005,62.287322 c 0.0127,-0.308225 0.0754,-0.37092 0.15985,-0.159853 0.0764,0.190996 0.067,0.419199 -0.0209,0.507118 -0.0879,0.08792 -0.15045,-0.06835 -0.13896,-0.347265 z"
       id="path956" />
    <path
       style="fill:#192d0d;stroke-width:2.70845"
       d="m 200.59099,64.84569 c 0.34355,-0.278515 0.67547,-0.455879 0.7376,-0.394141 0.13594,0.135065 -0.8116,0.880189 -1.13447,0.892118 -0.12526,0.0046 0.0533,-0.219462 0.39687,-0.497977 z"
       id="path936" />
    <path
       style="fill:#192d0d;stroke-width:2.70845"
       d="m 198.96666,65.352081 c -0.21828,-0.141064 -0.27781,-0.25648 -0.13229,-0.25648 0.14552,0 0.44317,0.115416 0.66146,0.25648 0.21828,0.141065 0.27781,0.256481 0.13229,0.256481 -0.14552,0 -0.44318,-0.115416 -0.66146,-0.256481 z"
       id="path932" />
    <path
       style="fill:#192d0d;stroke-width:2.70845"
       d="m 173.33223,65.119474 c -0.41781,-0.321268 -0.52966,-0.548245 -0.33073,-0.67119 0.16532,-0.102171 0.30058,-0.05265 0.30058,0.110047 0,0.162698 0.14883,0.210167 0.33073,0.105488 0.1819,-0.10468 0.24246,-0.0929 0.13458,0.02619 -0.10787,0.119082 -0.0635,0.376296 0.0985,0.571586 0.40286,0.485417 0.2186,0.436353 -0.53371,-0.142117 z"
       id="path931" />
    <path
       style="fill:#192d0d;stroke-width:2.70845"
       d="m 197.11458,66.13292 c 0.21828,-0.148166 0.635,-0.392459 0.92604,-0.542873 0.35147,-0.181647 0.30705,-0.0918 -0.13229,0.26756 -0.36381,0.297573 -0.78052,0.541866 -0.92605,0.542873 -0.14552,0.001 -0.086,-0.119395 0.1323,-0.26756 z"
       id="path923" />
    <path
       style="fill:#192d0d;stroke-width:2.70845"
       d="m 175.28645,65.725776 -0.79375,-0.68201 0.8599,0.569049 c 0.47294,0.312977 0.85989,0.620473 0.85989,0.683325 0,0.198054 -0.11204,0.129045 -0.92604,-0.570364 z"
       id="path922" />
    <path
       style="fill:#192d0d;stroke-width:2.70845"
       d="m 174.59125,65.947394 c -0.32911,-0.419644 -0.31975,-0.429002 0.0999,-0.0999 0.25466,0.199719 0.46302,0.408079 0.46302,0.463021 0,0.217761 -0.21727,0.0776 -0.56291,-0.363126 z"
       id="path921" />
    <path
       style="fill:#192d0d;stroke-width:2.70845"
       d="m 196.73141,67.181983 c 0.18136,-0.29344 1.71653,-1.113901 1.8446,-0.985831 0.0491,0.04914 -0.38003,0.346437 -0.9537,0.660667 -0.57367,0.314231 -0.97458,0.460554 -0.8909,0.325164 z"
       id="path912" />
    <path
       style="fill:#192d0d;stroke-width:2.70845"
       d="m 178.71516,67.451145 c -0.0959,-0.155202 -0.11766,-0.338931 -0.0483,-0.408286 0.0693,-0.06936 0.1966,0.05763 0.28277,0.282186 0.17891,0.466225 0.0264,0.548233 -0.23447,0.1261 z"
       id="path909" />
    <path
       style="fill:#192d0d;stroke-width:2.70845"
       d="m 178.06458,68.262493 c -0.23847,-0.154109 -0.2711,-0.258097 -0.0818,-0.260532 0.17331,-0.0022 0.3887,0.115011 0.47863,0.260532 0.20302,0.328487 0.11142,0.328487 -0.39687,0 z"
       id="path899" />
    <path
       style="fill:#192d0d;stroke-width:2.70845"
       d="m 183.45163,68.527081 c 0,-1.382448 0.0446,-1.947994 0.0991,-1.25677 0.0545,0.691224 0.0545,1.822317 0,2.513541 -0.0545,0.691224 -0.0991,0.125677 -0.0991,-1.256771 z"
       id="path879" />
    <path
       style="fill:#192d0d;stroke-width:2.70845"
       d="m 192.48437,70.550959 c 1.05317,-0.941062 1.06945,-1.357649 0.0208,-0.533034 -0.3025,0.237881 0.0276,-0.119751 0.73346,-0.794736 0.7059,-0.674986 1.6584,-1.483778 2.11667,-1.797317 0.45826,-0.313538 0.17836,0.03869 -0.622,0.782727 -1.6042,1.491295 -1.65296,1.850072 -0.0754,0.554352 0.61357,-0.503937 0.50434,-0.349852 -0.28206,0.397861 -0.7059,0.671179 -1.6584,1.471312 -2.11667,1.778074 -0.65511,0.438534 -0.607,0.355618 0.22513,-0.387927 z"
       id="path873" />
    <path
       style="fill:#192d0d;stroke-width:2.70845"
       d="m 189.30937,72.231246 c 0.0899,-0.145521 0.21602,-0.264583 0.2802,-0.264583 0.0642,0 0.11667,0.119062 0.11667,0.264583 0,0.145521 -0.12609,0.264583 -0.28019,0.264583 -0.15411,0 -0.20662,-0.119062 -0.11668,-0.264583 z"
       id="path864" />
    <path
       style="fill:#192d0d;stroke-width:2.70845"
       d="m 191.82291,80.068853 c 0,-0.05494 0.20836,-0.263301 0.46302,-0.463021 0.41964,-0.329107 0.429,-0.319749 0.0999,0.09989 -0.34565,0.440729 -0.56292,0.580887 -0.56292,0.363126 z"
       id="path812" />
    <path
       style="fill:#192d0d;stroke-width:2.70845"
       d="m 199.7108,82.369257 c 0.191,-0.07643 0.4192,-0.06703 0.50712,0.02089 0.0879,0.08792 -0.0683,0.150453 -0.34727,0.138965 -0.30822,-0.0127 -0.37092,-0.07539 -0.15985,-0.159853 z"
       id="path789" />
    <path
       style="fill:#192d0d;stroke-width:2.70845"
       d="m 196.32083,83.003316 c 0,-0.182596 3.47871,-1.560717 3.60949,-1.429932 0.0579,0.05794 -0.52213,0.349342 -1.28905,0.647566 -0.76692,0.298223 -1.60276,0.62606 -1.85742,0.728527 -0.25466,0.102466 -0.46302,0.126694 -0.46302,0.05384 z"
       id="path783" />
    <path
       style="fill:#192d0d;stroke-width:2.70845"
       d="m 194.92735,83.5755 c 0.17948,-0.180821 0.39297,-0.262115 0.47444,-0.180654 0.0815,0.08146 -0.0654,0.229407 -0.32632,0.328766 -0.37709,0.143585 -0.40748,0.113194 -0.14812,-0.148112 z"
       id="path776" />
    <path
       style="fill:#192d0d;stroke-width:2.70845"
       d="m 189.72499,84.798956 c 0,-0.145521 0.17016,-0.562239 0.37813,-0.926042 0.20797,-0.363802 0.37812,-0.542395 0.37812,-0.396875 0,0.145521 -0.17015,0.56224 -0.37812,0.926042 -0.20797,0.363802 -0.37813,0.542396 -0.37813,0.396875 z"
       id="path766" />
    <path
       style="fill:#192d0d;stroke-width:2.70845"
       d="m 193.86902,84.898416 c 0.17948,-0.180821 0.39297,-0.262115 0.47443,-0.180653 0.0815,0.08146 -0.0654,0.229406 -0.32632,0.328766 -0.37708,0.143585 -0.40747,0.113194 -0.14811,-0.148113 z"
       id="path764" />
    <path
       style="fill:#192d0d;stroke-width:2.70845"
       d="m 189.46255,85.570658 c 0.0127,-0.308225 0.0754,-0.37092 0.15985,-0.159853 0.0764,0.190996 0.067,0.419199 -0.0209,0.507118 -0.0879,0.08792 -0.15045,-0.06835 -0.13896,-0.347265 z"
       id="path757" />
    <path
       style="fill:#192d0d;stroke-width:2.70845"
       d="m 183.11255,85.835239 c 0.0127,-0.308225 0.0754,-0.370919 0.15985,-0.159853 0.0764,0.190997 0.067,0.4192 -0.0209,0.507118 -0.0879,0.08792 -0.15045,-0.06835 -0.13896,-0.347265 z"
       id="path755" />
    <path
       style="fill:#192d0d;stroke-width:2.70845"
       d="m 191.58458,86.202613 c 0.23272,-0.189929 0.45072,-0.464388 0.48445,-0.609909 0.0337,-0.145521 0.43862,-0.484327 0.89978,-0.752904 0.5575,-0.324682 0.66637,-0.346848 0.32488,-0.06615 -0.37448,0.307827 -0.41031,0.423273 -0.13229,0.426227 0.32576,0.0035 0.32699,0.03844 0.008,0.240104 -0.20508,0.129829 -0.55204,0.167303 -0.77101,0.08328 -0.25103,-0.09633 -0.33047,-0.04331 -0.21502,0.143496 0.10384,0.168012 -0.0778,0.422878 -0.41962,0.588726 -0.51077,0.247838 -0.53817,0.239772 -0.17959,-0.05287 z"
       id="path752" />
    <path
       style="fill:#192d0d;stroke-width:2.70845"
       d="m 190.64358,86.537031 c -0.0837,-0.135466 -0.0511,-0.308822 0.0726,-0.385236 0.12364,-0.07641 0.22481,0.03442 0.22481,0.246301 0,0.446132 -0.0834,0.485111 -0.29739,0.138935 z"
       id="path746" />
    <path
       style="fill:#192d0d;stroke-width:2.70845"
       d="m 183.37713,91.920657 c 0.0127,-0.308224 0.0754,-0.370919 0.15985,-0.159852 0.0764,0.190996 0.067,0.419199 -0.0209,0.507118 -0.0879,0.08792 -0.15046,-0.06835 -0.13897,-0.347266 z"
       id="path706" />
    <path
       style="fill:#192d0d;stroke-width:2.70845"
       d="m 184.74055,96.572914 c 0,-0.509323 0.0545,-0.717682 0.121,-0.463021 0.0666,0.254662 0.0666,0.671381 0,0.926042 -0.0665,0.254662 -0.121,0.0463 -0.121,-0.463021 z"
       id="path691" />
    <path
       style="fill:#192d0d;stroke-width:2.70845"
       d="m 184.70005,98.535241 c 0.0127,-0.308225 0.0754,-0.37092 0.15985,-0.159853 0.0764,0.190996 0.067,0.419199 -0.0209,0.507118 -0.0879,0.08792 -0.15045,-0.06835 -0.13896,-0.347265 z"
       id="path690" />
    <path
       style="fill:#192d0d;stroke-width:2.70845"
       d="m 183.46334,96.705206 c 3.4e-4,-2.328333 0.0408,-3.245414 0.09,-2.037958 0.0491,1.207456 0.0489,3.112456 -6.1e-4,4.233333 -0.0495,1.120879 -0.0897,0.132958 -0.0893,-2.195375 z"
       id="path689" />
    <path
       style="fill:#192d0d;stroke-width:2.70845"
       d="m 184.73074,100.67396 c 0.005,-0.43657 0.0647,-0.58313 0.13177,-0.3257 0.0671,0.25743 0.0627,0.61462 -0.01,0.79375 -0.0725,0.17913 -0.12736,-0.0315 -0.12197,-0.46805 z"
       id="path688" />
    <path
       style="vector-effect:non-scaling-stroke;fill:#ffffff;fill-opacity:1;stroke-width:1.45251;-inkscape-stroke:hairline"
       d="m 615.80326,266.06579 c -9.8871,-0.43857 -18.12091,9.16434 -16.78167,18.84848 0.28176,6.6283 3.78486,14.10003 11.00574,15.24116 11.33359,2.91261 25.11876,-5.8111 24.8545,-18.14896 0.2526,-6.49232 -5.52883,-11.43705 -10.61963,-14.49008 -2.65034,-1.15039 -5.59042,-1.50455 -8.45894,-1.4506 z"
       id="path4876"
       transform="scale(0.26458333)" />
    <path
       style="vector-effect:non-scaling-stroke;fill:#ffffff;fill-opacity:1;stroke-width:1.45251;-inkscape-stroke:hairline"
       d="m 649.02545,300.31808 c -10.65687,0.73115 -19.75383,10.95895 -18.30856,21.76224 -0.11956,7.51459 6.88496,12.5554 12.89871,15.64367 2.76998,3.31256 5.88842,-5.62781 6.90409,-0.66765 1.49484,3.61306 5.69479,0.18497 7.93661,-0.72331 9.97053,-4.993 12.64883,-19.48723 5.23775,-27.77817 -3.65026,-4.32352 -8.53299,-8.92992 -14.6686,-8.23678 z"
       id="path4877"
       transform="scale(0.26458333)" />
    <path
       style="vector-effect:non-scaling-stroke;fill:#ffffff;fill-opacity:1;stroke-width:1.45251;-inkscape-stroke:hairline"
       d="m 617.09782,308.58528 c -11.03099,0.37933 -20.11129,12.38434 -16.51324,23.07992 1.90434,8.41626 11.71284,14.65276 20.00287,11.09831 3.38139,-1.54672 8.5343,-3.17006 9.00638,-7.42091 -1.71745,-4.24094 -3.93545,-8.36985 -3.67343,-13.06329 -0.69094,-3.91876 0.38886,-8.63225 -1.63307,-12.14294 -2.02606,-1.48208 -4.76702,-1.60173 -7.18951,-1.55109 z"
       id="path4878"
       transform="scale(0.26458333)" />
  </g>
</svg>
