<?xml version="1.0" encoding="UTF-8" standalone="no"?>
<!-- Created with Inkscape (http://www.inkscape.org/) -->

<svg
   width="185"
   height="185"
   viewBox="0 0 48.947914 48.947918"
   version="1.1"
   id="svg1"
   xmlns="http://www.w3.org/2000/svg"
   xmlns:svg="http://www.w3.org/2000/svg">
  <defs
     id="defs1" />
  <g
     id="g28097"
     transform="matrix(0.76171379,0,0,0.76171379,-34.731842,-22.144735)">
    <path
       style="fill:#e6cf45"
       d="m 77.569785,93.143225 c -0.394284,-0.220653 -0.460388,-0.707515 -0.473105,-3.484488 -0.01576,-3.440444 -0.227989,-4.291055 -1.597592,-6.402999 -0.952404,-1.46862 -3.49591,-5.854732 -4.175887,-7.201049 -0.709055,-1.403889 -1.273844,-1.72485 -2.444426,-1.389131 -2.280192,0.65395 -4.929812,0.08748 -7.305988,-1.561969 -1.385098,-0.961481 -1.786941,-1.465715 -1.516636,-1.903078 0.248486,-0.402059 2.298455,-0.840171 4.090729,-0.874256 1.466191,-0.02788 1.944131,0.09016 3.241145,0.800545 0.836745,0.458288 1.518573,0.755405 1.515174,0.660261 -0.0034,-0.09514 -0.330821,-0.732748 -0.727604,-1.416899 -4.492749,-7.746592 -4.408228,-7.64004 -6.760263,-8.522429 -1.452314,-0.54485 -1.753768,-0.999684 -1.097518,-1.655934 0.431163,-0.431162 0.498491,-0.431084 1.252159,0.0015 0.438073,0.251419 0.838804,0.414817 0.890514,0.363107 0.05171,-0.05171 -0.332197,-0.799569 -0.853127,-1.661907 -1.696661,-2.808619 -3.07275,-5.67048 -2.919103,-6.070878 0.399782,-1.041814 1.433197,0.01304 3.153073,3.21849 2.114721,3.941347 2.542439,4.67749 2.960848,5.095899 0.360991,0.360991 0.403035,0.343891 0.403035,-0.163929 0,-0.861074 0.714259,-1.459673 1.341291,-1.124095 0.61569,0.329507 0.680132,1.517224 0.122332,2.254701 -0.614832,0.81288 -0.489418,1.37101 0.883348,3.931164 0.70875,1.321793 1.797722,3.355759 2.419937,4.519926 0.622214,1.164166 1.514467,2.711979 1.982784,3.439583 0.468316,0.727604 1.542669,2.573073 2.387451,4.101041 0.844781,1.527969 1.607487,2.837657 1.694901,2.910417 0.08741,0.07276 0.335105,0.489479 0.550424,0.926042 0.353985,0.717708 0.398646,-0.156765 0.466184,-9.128125 l 0.07469,-9.921874 -1.529902,-3.042709 c -1.629033,-3.23986 -1.584986,-3.197004 -4.507987,-4.386154 -1.445898,-0.588227 -1.832334,-1.031027 -1.377778,-1.578733 0.389155,-0.468903 1.702455,-0.301034 2.392321,0.305793 0.948008,0.833895 0.939893,0.248986 -0.02391,-1.723291 -1.128257,-2.30881 -1.78825,-3.069375 -3.171924,-3.655274 -1.214451,-0.514244 -1.852084,-1.100669 -1.852084,-1.703347 0,-0.557309 0.782356,-0.654476 1.627555,-0.20214 0.293938,0.157311 0.59524,0.225213 0.669559,0.150894 0.130019,-0.130019 -2.434235,-4.881027 -3.38594,-6.273413 -0.25455,-0.372419 -0.500651,-1.027263 -0.546892,-1.455209 -0.07292,-0.674885 0.0031,-0.778083 0.573473,-0.778083 0.56632,0 0.878334,0.410656 2.248958,2.959958 0.875277,1.627977 1.681939,3.048035 1.792583,3.155685 0.110645,0.10765 0.362459,-0.02485 0.559589,-0.294437 0.197129,-0.26959 0.608289,-0.508573 0.913689,-0.531072 0.528011,-0.0389 0.552497,0.07055 0.498745,2.22927 l -0.05653,2.270179 1.904774,4.101041 c 1.047626,2.255573 2.257211,4.810453 2.687966,5.677511 l 0.783193,1.57647 0.03103,-14.799422 c 0.01707,-8.139682 0.134948,-14.903342 0.261962,-15.030356 0.127014,-0.127014 0.480048,-0.151868 0.784521,-0.05523 0.551903,0.175167 0.553795,0.22051 0.621946,14.909094 l 0.06836,14.733393 0.642536,-1.719791 c 0.353395,-0.945886 1.566569,-3.60612 2.695942,-5.911632 l 2.053407,-4.19184 -0.420796,-0.882418 c -0.3544,-0.743185 -0.367678,-1.010653 -0.08415,-1.695138 0.39048,-0.942704 1.301827,-1.112861 1.518695,-0.283555 0.07611,0.291042 0.215699,0.529167 0.3102,0.529167 0.0945,0 0.635644,-1.101328 1.20254,-2.447396 1.327029,-3.150966 2.165609,-4.490307 2.74195,-4.379314 0.733254,0.141212 0.671715,0.90669 -0.230199,2.863417 -0.850515,1.845215 -0.890052,2.492875 -0.112801,1.847814 0.33694,-0.279636 0.498289,-0.257302 0.923922,0.12789 0.712311,0.644633 0.330275,1.257023 -1.248736,2.001679 -0.69369,0.327141 -1.516267,0.878052 -1.827949,1.224246 -1.020338,1.133318 -6.572305,11.956962 -5.989267,11.676167 0.113279,-0.05456 0.54191,-0.267196 0.952513,-0.472534 0.645654,-0.322884 0.779705,-0.321737 0.991856,0.0085 0.437098,0.680372 0.141656,1.114665 -1.41488,2.07984 -0.840705,0.521304 -1.815055,1.364544 -2.165221,1.873867 l -0.636665,0.926041 -0.155026,10.31875 -0.155027,10.318749 0.886822,-1.5875 c 1.391993,-2.491806 3.064012,-5.390351 4.273481,-7.408333 0.610522,-1.018645 2.14722,-3.850867 3.414885,-6.293825 l 2.304846,-4.441743 -0.540082,-0.758476 c -0.990285,-1.390727 -0.439238,-3.984245 0.701192,-3.300172 0.263184,0.157868 0.592435,0.663883 0.731669,1.124479 0.239313,0.791665 0.672889,1.15556 0.672889,0.564748 0,-0.149985 0.49188,-1.13225 1.093066,-2.182813 0.601186,-1.050562 1.450907,-2.564957 1.888269,-3.365322 1.287565,-2.356222 2.359916,-3.24939 2.733238,-2.27653 0.167747,0.437143 -1.134744,3.100009 -2.586065,5.287057 -0.567658,0.855426 -0.986588,1.600837 -0.930954,1.656471 0.05563,0.05563 0.617481,-0.08102 1.248549,-0.303673 1.430603,-0.504746 1.901195,-0.195324 1.308613,0.860435 -0.279882,0.498645 -0.855805,0.860958 -1.953335,1.228842 -1.263604,0.42355 -1.710874,0.739295 -2.377342,1.678252 -1.383669,1.94939 -3.092203,5.450156 -2.760099,5.655408 0.186999,0.115571 0.111337,0.230398 -0.205223,0.311458 -0.459377,0.117629 -0.455814,0.130969 0.04248,0.159088 0.29915,0.01688 0.947359,-0.266965 1.440465,-0.630767 1.008854,-0.744308 1.896907,-0.848181 2.370701,-0.277293 0.633477,0.763292 0.187951,1.315125 -1.580421,1.957528 -0.943977,0.342921 -2.13304,0.680261 -2.642363,0.749642 -0.509323,0.06938 -1.081538,0.324949 -1.271589,0.567927 -0.404447,0.517081 -2.961744,5.198411 -2.961744,5.421701 0,0.08356 0.348748,0.03035 0.774996,-0.118239 1.021812,-0.356205 1.870837,0.0833 1.870837,0.968459 0,0.405898 -0.151216,0.65215 -0.400465,0.65215 -0.220256,0 -0.636975,0.147702 -0.926042,0.328228 -0.419834,0.26219 -0.634416,0.260256 -1.066545,-0.0096 -1.040979,-0.650102 -2.206375,0.737783 -4.730539,5.633659 -0.617225,1.19717 -0.684716,1.631828 -0.714419,4.60103 -0.03448,3.446785 -0.2302,3.993995 -1.228667,3.435224 z"
       id="path28093" />
    <path
       style="fill:#8e6a8e"
       d="m 77.569785,93.143225 c -0.394284,-0.220653 -0.460388,-0.707515 -0.473105,-3.484488 -0.01576,-3.440444 -0.227989,-4.291055 -1.597592,-6.402999 -0.952404,-1.46862 -3.49591,-5.854732 -4.175887,-7.201049 -0.709055,-1.403889 -1.273844,-1.72485 -2.444426,-1.389131 -2.280192,0.65395 -4.929812,0.08748 -7.305988,-1.561969 -1.385098,-0.961481 -1.786941,-1.465715 -1.516636,-1.903078 0.248486,-0.402059 2.298455,-0.840171 4.090729,-0.874256 1.466191,-0.02788 1.944131,0.09016 3.241145,0.800545 0.836745,0.458288 1.518573,0.755405 1.515174,0.660261 -0.0034,-0.09514 -0.330821,-0.732748 -0.727604,-1.416899 -4.492749,-7.746592 -4.408228,-7.64004 -6.760263,-8.522429 -1.452314,-0.54485 -1.753768,-0.999684 -1.097518,-1.655934 0.431163,-0.431162 0.498491,-0.431084 1.252159,0.0015 0.438073,0.251419 0.838804,0.414817 0.890514,0.363107 0.05171,-0.05171 -0.332197,-0.799569 -0.853127,-1.661907 -1.696661,-2.808619 -3.07275,-5.67048 -2.919103,-6.070878 0.399782,-1.041814 1.433197,0.01304 3.153073,3.21849 2.114721,3.941347 2.542439,4.67749 2.960848,5.095899 0.360991,0.360991 0.403035,0.343891 0.403035,-0.163929 0,-0.861074 0.714259,-1.459673 1.341291,-1.124095 0.61569,0.329507 0.680132,1.517224 0.122332,2.254701 -0.614832,0.81288 -0.489418,1.37101 0.883348,3.931164 0.70875,1.321793 1.797722,3.355759 2.419937,4.519926 0.622214,1.164166 1.514467,2.711979 1.982784,3.439583 0.468316,0.727604 1.542669,2.573073 2.387451,4.101041 0.844781,1.527969 1.607487,2.837657 1.694901,2.910417 0.08741,0.07276 0.335105,0.489479 0.550424,0.926042 0.353985,0.717708 0.398646,-0.156765 0.466184,-9.128125 l 0.07469,-9.921874 -1.529902,-3.042709 c -1.629033,-3.23986 -1.584986,-3.197004 -4.507987,-4.386154 -1.445898,-0.588227 -1.832334,-1.031027 -1.377778,-1.578733 0.389155,-0.468903 1.702455,-0.301034 2.392321,0.305793 0.948008,0.833895 0.939893,0.248986 -0.02391,-1.723291 -1.128257,-2.30881 -1.78825,-3.069375 -3.171924,-3.655274 -1.214451,-0.514244 -1.852084,-1.100669 -1.852084,-1.703347 0,-0.557309 0.782356,-0.654476 1.627555,-0.20214 0.293938,0.157311 0.59524,0.225213 0.669559,0.150894 0.130019,-0.130019 -2.434235,-4.881027 -3.38594,-6.273413 -0.25455,-0.372419 -0.500651,-1.027263 -0.546892,-1.455209 -0.07292,-0.674885 0.0031,-0.778083 0.573473,-0.778083 0.56632,0 0.878334,0.410656 2.248958,2.959958 0.875277,1.627977 1.681939,3.048035 1.792583,3.155685 0.110645,0.10765 0.362459,-0.02485 0.559589,-0.294437 0.197129,-0.26959 0.608289,-0.508573 0.913689,-0.531072 0.528011,-0.0389 0.552497,0.07055 0.498745,2.22927 l -0.05653,2.270179 1.904774,4.101041 c 1.047626,2.255573 2.257211,4.810453 2.687966,5.677511 l 0.783193,1.57647 0.03103,-14.799422 c 0.01707,-8.139682 0.134948,-14.903342 0.261962,-15.030356 0.127014,-0.127014 0.480048,-0.151868 0.784521,-0.05523 0.551903,0.175167 0.553795,0.22051 0.621946,14.909094 l 0.06836,14.733393 0.642536,-1.719791 c 0.353395,-0.945886 1.566569,-3.60612 2.695942,-5.911632 l 2.053407,-4.19184 -0.420796,-0.882418 c -0.3544,-0.743185 -0.367678,-1.010653 -0.08415,-1.695138 0.39048,-0.942704 1.301827,-1.112861 1.518695,-0.283555 0.07611,0.291042 0.215699,0.529167 0.3102,0.529167 0.0945,0 0.635644,-1.101328 1.20254,-2.447396 1.327029,-3.150966 2.165609,-4.490307 2.74195,-4.379314 0.733254,0.141212 0.671715,0.90669 -0.230199,2.863417 -0.850515,1.845215 -0.890052,2.492875 -0.112801,1.847814 0.33694,-0.279636 0.498289,-0.257302 0.923922,0.12789 0.712311,0.644633 0.330275,1.257023 -1.248736,2.001679 -0.69369,0.327141 -1.516267,0.878052 -1.827949,1.224246 -1.020338,1.133318 -6.572305,11.956962 -5.989267,11.676167 0.113279,-0.05456 0.54191,-0.267196 0.952513,-0.472534 0.645654,-0.322884 0.779705,-0.321737 0.991856,0.0085 0.437098,0.680372 0.141656,1.114665 -1.41488,2.07984 -0.840705,0.521304 -1.815055,1.364544 -2.165221,1.873867 l -0.636665,0.926041 -0.155026,10.31875 -0.155027,10.318749 0.886822,-1.5875 c 1.391993,-2.491806 3.064012,-5.390351 4.273481,-7.408333 0.610522,-1.018645 2.14722,-3.850867 3.414885,-6.293825 l 2.304846,-4.441743 -0.540082,-0.758476 c -0.990285,-1.390727 -0.439238,-3.984245 0.701192,-3.300172 0.263184,0.157868 0.592435,0.663883 0.731669,1.124479 0.239313,0.791665 0.672889,1.15556 0.672889,0.564748 0,-0.149985 0.49188,-1.13225 1.093066,-2.182813 0.601186,-1.050562 1.450907,-2.564957 1.888269,-3.365322 1.287565,-2.356222 2.359916,-3.24939 2.733238,-2.27653 0.167747,0.437143 -1.134744,3.100009 -2.586065,5.287057 -0.567658,0.855426 -0.986588,1.600837 -0.930954,1.656471 0.05563,0.05563 0.617481,-0.08102 1.248549,-0.303673 1.430603,-0.504746 1.901195,-0.195324 1.308613,0.860435 -0.279882,0.498645 -0.855805,0.860958 -1.953335,1.228842 -1.263604,0.42355 -1.710874,0.739295 -2.377342,1.678252 -1.383669,1.94939 -3.092203,5.450156 -2.760099,5.655408 0.186999,0.115571 0.111337,0.230398 -0.205223,0.311458 -0.459377,0.117629 -0.455814,0.130969 0.04248,0.159088 0.29915,0.01688 0.947359,-0.266965 1.440465,-0.630767 1.008854,-0.744308 1.896907,-0.848181 2.370701,-0.277293 0.633477,0.763292 0.187951,1.315125 -1.580421,1.957528 -0.943977,0.342921 -2.13304,0.680261 -2.642363,0.749642 -0.509323,0.06938 -1.081538,0.324949 -1.271589,0.567927 -0.404447,0.517081 -2.961744,5.198411 -2.961744,5.421701 0,0.08356 0.348748,0.03035 0.774996,-0.118239 1.021812,-0.356205 1.870837,0.0833 1.870837,0.968459 0,0.405898 -0.151216,0.65215 -0.400465,0.65215 -0.220256,0 -0.636975,0.147702 -0.926042,0.328228 -0.419834,0.26219 -0.634416,0.260256 -1.066545,-0.0096 -1.040979,-0.650102 -2.206375,0.737783 -4.730539,5.633659 -0.617225,1.19717 -0.684716,1.631828 -0.714419,4.60103 -0.03448,3.446785 -0.2302,3.993995 -1.228667,3.435224 z"
       id="path28077" />
    <path
       style="fill:#a7a932"
       d="m 77.515994,93.01518 c -0.317302,-0.317302 -0.404532,-1.078119 -0.404532,-3.528321 0,-3.104194 -0.300579,-4.523077 -1.17989,-5.569663 -0.183393,-0.218281 -0.693589,-1.051718 -1.133768,-1.852083 -0.849517,-1.544651 -3.122078,-5.421165 -3.955276,-6.746874 -0.396626,-0.631076 -0.659395,-0.77924 -1.282153,-0.722949 -3.114099,0.281486 -4.792052,0.16772 -6.053877,-0.410452 -1.526014,-0.699225 -3.814962,-2.496762 -3.368734,-2.645505 0.169536,-0.05651 0.244925,-0.205204 0.167533,-0.330427 -0.230319,-0.372665 1.724746,-0.782818 3.709291,-0.778172 1.912734,0.0045 3.540051,0.527853 4.440275,1.428077 0.249984,0.249984 0.454517,0.322207 0.454517,0.160494 0,-0.35087 -0.942244,-2.234751 -1.588132,-3.17524 -0.25291,-0.368267 -1.12978,-1.81556 -1.948599,-3.216207 -0.81882,-1.400647 -1.638246,-2.670691 -1.820948,-2.82232 C 63.369,62.65391 62.56497,62.273332 61.764969,61.959809 59.834239,61.203152 59.677671,61.016731 60.38166,60.312742 l 0.579826,-0.579826 0.825528,0.610339 0.825528,0.610339 -0.191024,-0.601862 C 62.316455,60.020707 61.84421,59.145096 61.372085,58.405929 60.366756,56.831969 58.59063,53.35924 58.59063,52.967553 c 0,-0.149153 0.269799,-0.271188 0.599552,-0.271188 0.646276,0 1.827028,1.573789 2.934918,3.911861 0.893043,1.884665 2.264911,4.207624 2.696355,4.565691 0.313173,0.259911 0.383758,0.222745 0.383758,-0.202065 0,-0.286306 0.2188,-0.718568 0.486221,-0.960581 0.45435,-0.411181 0.515051,-0.408168 0.926042,0.04597 0.543348,0.600393 0.562688,1.371369 0.05136,2.047406 -0.213653,0.282475 -0.392247,0.797244 -0.396875,1.143933 -0.0081,0.606546 1.904152,4.269191 4.9892,9.556115 0.806692,1.382448 1.649348,2.838229 1.87257,3.23507 0.223221,0.396841 0.929528,1.646997 1.569571,2.778125 0.640043,1.131128 1.332192,2.381651 1.538109,2.77894 0.734145,1.416437 0.869794,1.059874 0.897971,-2.360375 0.01535,-1.863978 0.07385,-6.067958 0.129983,-9.342176 0.06815,-3.975238 0.0027,-6.260796 -0.197075,-6.879167 -0.372563,-1.153344 -2.454487,-5.450963 -2.901674,-5.98979 -0.35773,-0.431039 -2.35082,-1.521558 -2.35082,-1.286251 0,0.07868 -0.483715,-0.103727 -1.074922,-0.405338 -0.833073,-0.425002 -1.056307,-0.67921 -0.992187,-1.129856 0.06759,-0.475065 0.227988,-0.565722 0.876484,-0.495404 0.436563,0.04734 1.180703,0.324939 1.653646,0.616892 0.472943,0.291952 0.858383,0.431815 0.856534,0.310806 -0.0043,-0.278442 -2.0709,-4.342913 -2.429288,-4.777677 -0.147043,-0.17838 -0.906898,-0.626882 -1.688565,-0.99667 -1.525704,-0.721773 -2.226387,-1.565359 -1.720434,-2.071312 0.213997,-0.213997 0.518505,-0.207591 1.131543,0.0238 0.461314,0.174126 0.887976,0.267371 0.948137,0.207209 0.06016,-0.06016 -0.739969,-1.609489 -1.778068,-3.44295 -2.167044,-3.827372 -2.42939,-4.425366 -2.144021,-4.887102 0.520238,-0.841762 1.240591,-0.07331 2.898733,3.092269 0.933332,1.781837 1.782649,3.239704 1.887371,3.239704 0.104722,0 0.252674,-0.238125 0.328783,-0.529167 0.09351,-0.35758 0.360896,-0.529167 0.824609,-0.529167 0.78216,0 0.853128,0.410592 0.406104,2.349552 -0.300731,1.304421 -0.545394,0.652894 3.386681,9.018583 l 2.180515,4.639156 0.0023,-14.850415 c 0.002,-12.87568 0.05507,-14.894214 0.399172,-15.179792 0.317582,-0.263569 0.480571,-0.259915 0.815787,0.01829 0.374009,0.3104 0.412852,1.88079 0.362384,14.650626 -0.03109,7.866627 -0.03766,14.481553 -0.01459,14.699834 0.02307,0.218281 0.34273,-0.377031 0.710363,-1.322917 0.367632,-0.945885 1.62262,-3.674176 2.788861,-6.062869 l 2.120438,-4.343077 -0.459362,-0.852983 c -0.395134,-0.733719 -0.411685,-0.968085 -0.118377,-1.676194 0.457769,-1.105153 1.248221,-1.100172 1.535812,0.0097 0.214853,0.829143 0.219248,0.824683 0.977958,-0.992187 1.871615,-4.481925 2.852505,-5.981236 3.607726,-5.514484 0.401931,0.248407 0.280659,0.757551 -0.685335,2.877286 -0.509323,1.117636 -0.926042,2.088058 -0.926042,2.156493 0,0.06844 0.339476,-0.05112 0.754392,-0.265683 0.81545,-0.421686 1.365353,-0.167623 1.359,0.627876 -0.0044,0.553912 -1.786429,1.681281 -2.328662,1.473207 -0.236532,-0.09077 -0.350993,-0.08596 -0.254357,0.01067 0.09664,0.09664 -0.159417,0.457685 -0.569006,0.802332 -0.765481,0.64411 -6.549239,11.658588 -6.269091,11.938737 0.0811,0.0811 0.462588,-0.05902 0.847744,-0.311384 0.60522,-0.396555 0.751329,-0.407797 1.076312,-0.08281 0.577045,0.577044 0.180747,1.163129 -1.383365,2.04586 -0.866028,0.488756 -1.715554,1.240339 -2.159051,1.910132 l -0.731207,1.104307 -0.132292,9.90185 c -0.07276,5.446017 -0.06697,10.007132 0.01287,10.135811 0.07984,0.128679 0.615619,-0.61568 1.190625,-1.654131 0.575005,-1.038452 1.224058,-2.19777 1.44234,-2.576264 3.107921,-5.389053 4.224871,-7.3843 6.050119,-10.807544 1.18358,-2.219798 2.149316,-4.124798 2.14608,-4.233333 -0.0032,-0.108535 -0.238713,-0.494992 -0.523283,-0.858794 -0.876213,-1.120174 -0.516753,-3.439583 0.533062,-3.439583 0.344687,0 1.054438,1.108187 1.054438,1.646371 0,0.258662 0.0893,0.465918 0.198437,0.460567 0.109141,-0.0053 1.147593,-1.74351 2.307671,-3.862579 2.302885,-4.206587 3.255957,-5.289463 3.680862,-4.182179 0.182481,0.475539 -0.440331,1.771967 -2.265736,4.716288 -0.711214,1.147168 -1.248172,2.130705 -1.19324,2.185637 0.05493,0.05493 0.616207,-0.08229 1.247275,-0.304947 1.432459,-0.505401 1.901159,-0.195259 1.30637,0.864433 -0.283671,0.505395 -0.780106,0.816628 -1.715916,1.075768 -0.724221,0.200549 -1.625923,0.655013 -2.003783,1.009921 -0.620112,0.582446 -3.316493,5.138665 -3.422645,5.783428 -0.02396,0.14552 -0.155071,0.472942 -0.291362,0.727604 -0.389356,0.727519 0.728459,0.594786 1.671152,-0.198438 0.904658,-0.761219 1.58919,-0.838302 2.181808,-0.245684 0.849448,0.849448 0.468495,1.259618 -1.965477,2.116219 -0.654843,0.230463 -1.606649,0.474158 -2.115124,0.541545 -0.816326,0.108186 -2.07673,1.143353 -2.108693,1.731866 -0.0052,0.09636 -0.485766,1.00124 -1.067849,2.010849 -1.268936,2.20094 -1.310553,2.47956 -0.328288,2.19785 0.976236,-0.279981 1.915788,0.09441 1.915788,0.763403 0,0.696528 -1.741021,1.491961 -2.282307,1.042733 -0.19616,-0.162798 -0.641247,-0.224569 -0.989083,-0.137267 -0.772129,0.193792 -0.929262,0.421765 -3.578651,5.192027 -0.941382,1.694971 -0.955976,1.767524 -1.011198,5.027083 -0.03082,1.819011 -0.06058,3.38385 -0.06615,3.477422 -0.02346,0.394617 -0.81985,0.437545 -1.193083,0.06431 z"
       id="path28041" />
    <path
       style="fill:#719846"
       d="m 77.515994,93.01518 c -0.317302,-0.317302 -0.404532,-1.078119 -0.404532,-3.528321 0,-3.104194 -0.300579,-4.523077 -1.17989,-5.569663 -0.183393,-0.218281 -0.693589,-1.051718 -1.133768,-1.852083 -0.849517,-1.544651 -3.122078,-5.421165 -3.955276,-6.746874 -0.396626,-0.631076 -0.659395,-0.77924 -1.282153,-0.722949 -3.114099,0.281486 -4.792052,0.16772 -6.053877,-0.410452 -1.526014,-0.699225 -3.814962,-2.496762 -3.368734,-2.645505 0.169536,-0.05651 0.244925,-0.205204 0.167533,-0.330427 -0.230319,-0.372665 1.724746,-0.782818 3.709291,-0.778172 1.912734,0.0045 3.540051,0.527853 4.440275,1.428077 0.249984,0.249984 0.454517,0.322207 0.454517,0.160494 0,-0.35087 -0.942244,-2.234751 -1.588132,-3.17524 -0.25291,-0.368267 -1.12978,-1.81556 -1.948599,-3.216207 -0.81882,-1.400647 -1.638246,-2.670691 -1.820948,-2.82232 C 63.369,62.65391 62.56497,62.273332 61.764969,61.959809 59.834239,61.203152 59.677671,61.016731 60.38166,60.312742 l 0.579826,-0.579826 0.825528,0.610339 0.825528,0.610339 -0.191024,-0.601862 C 62.316455,60.020707 61.84421,59.145096 61.372085,58.405929 60.366756,56.831969 58.59063,53.35924 58.59063,52.967553 c 0,-0.149153 0.310395,-0.271188 0.689766,-0.271188 0.514682,0 0.64977,0.104227 0.532197,0.410617 -0.08713,0.227047 -0.04488,0.340969 0.09451,0.254826 0.275351,-0.170176 1.338095,1.391969 2.238131,3.289868 0.87658,1.848436 2.249171,4.167817 2.676225,4.522241 0.313173,0.259911 0.383758,0.222745 0.383758,-0.202065 0,-0.286306 0.2188,-0.718568 0.486221,-0.960581 0.45435,-0.411181 0.515051,-0.408168 0.926042,0.04597 0.543348,0.600393 0.562688,1.371369 0.05136,2.047406 -0.213653,0.282475 -0.392247,0.797244 -0.396875,1.143933 -0.0081,0.606546 1.904152,4.269191 4.9892,9.556115 0.806692,1.382448 1.649348,2.838229 1.87257,3.23507 0.223221,0.396841 0.929528,1.646997 1.569571,2.778125 0.640043,1.131128 1.332192,2.381651 1.538109,2.77894 0.734145,1.416437 0.869794,1.059874 0.897971,-2.360375 0.01535,-1.863978 0.07385,-6.067958 0.129983,-9.342176 0.06815,-3.975238 0.0027,-6.260796 -0.197075,-6.879167 -0.372563,-1.153344 -2.454487,-5.450963 -2.901674,-5.98979 -0.35773,-0.431039 -2.35082,-1.521558 -2.35082,-1.286251 0,0.07868 -0.483715,-0.103727 -1.074922,-0.405338 -0.833073,-0.425002 -1.056307,-0.67921 -0.992187,-1.129856 0.06759,-0.475065 0.227988,-0.565722 0.876484,-0.495404 0.436563,0.04734 1.180703,0.324939 1.653646,0.616892 0.472943,0.291952 0.858383,0.431815 0.856534,0.310806 -0.0043,-0.278442 -2.0709,-4.342913 -2.429288,-4.777677 -0.147043,-0.17838 -0.906898,-0.626882 -1.688565,-0.99667 -1.525704,-0.721773 -2.226387,-1.565359 -1.720434,-2.071312 0.213997,-0.213997 0.518505,-0.207591 1.131543,0.0238 0.461314,0.174126 0.887976,0.267371 0.948137,0.207209 0.06016,-0.06016 -0.739969,-1.609489 -1.778068,-3.44295 -2.167044,-3.827372 -2.42939,-4.425366 -2.144021,-4.887102 0.520238,-0.841762 1.240591,-0.07331 2.898733,3.092269 0.933332,1.781837 1.782649,3.239704 1.887371,3.239704 0.104722,0 0.252674,-0.238125 0.328783,-0.529167 0.09351,-0.35758 0.360896,-0.529167 0.824609,-0.529167 0.78216,0 0.853128,0.410592 0.406104,2.349552 -0.300731,1.304421 -0.545394,0.652894 3.386681,9.018583 l 2.180515,4.639156 0.0023,-14.850415 c 0.002,-12.87568 0.05507,-14.894214 0.399172,-15.179792 0.317582,-0.263569 0.480571,-0.259915 0.815787,0.01829 0.374009,0.3104 0.412852,1.88079 0.362384,14.650626 -0.03109,7.866627 -0.03766,14.481553 -0.01459,14.699834 0.02307,0.218281 0.34273,-0.377031 0.710363,-1.322917 0.367632,-0.945885 1.62262,-3.674176 2.788861,-6.062869 l 2.120438,-4.343077 -0.459362,-0.852983 c -0.395134,-0.733719 -0.411685,-0.968085 -0.118377,-1.676194 0.457769,-1.105153 1.248221,-1.100172 1.535812,0.0097 0.214853,0.829143 0.219248,0.824683 0.977958,-0.992187 1.871615,-4.481925 2.852505,-5.981236 3.607726,-5.514484 0.401931,0.248407 0.280659,0.757551 -0.685335,2.877286 -0.509323,1.117636 -0.926042,2.088058 -0.926042,2.156493 0,0.06844 0.339476,-0.05112 0.754392,-0.265683 0.81545,-0.421686 1.365353,-0.167623 1.359,0.627876 -0.0044,0.553912 -1.786429,1.681281 -2.328662,1.473207 -0.236532,-0.09077 -0.350993,-0.08596 -0.254357,0.01067 0.09664,0.09664 -0.159417,0.457685 -0.569006,0.802332 -0.765481,0.64411 -6.549239,11.658588 -6.269091,11.938737 0.0811,0.0811 0.462588,-0.05902 0.847744,-0.311384 0.60522,-0.396555 0.751329,-0.407797 1.076312,-0.08281 0.577045,0.577044 0.180747,1.163129 -1.383365,2.04586 -0.866028,0.488756 -1.715554,1.240339 -2.159051,1.910132 l -0.731207,1.104307 -0.132292,9.90185 c -0.07276,5.446017 -0.06697,10.007132 0.01287,10.135811 0.07984,0.128679 0.615619,-0.61568 1.190625,-1.654131 0.575005,-1.038452 1.224058,-2.19777 1.44234,-2.576264 3.107921,-5.389053 4.224871,-7.3843 6.050119,-10.807544 1.18358,-2.219798 2.149316,-4.124798 2.14608,-4.233333 -0.0032,-0.108535 -0.238713,-0.494992 -0.523283,-0.858794 -0.876213,-1.120174 -0.516753,-3.439583 0.533062,-3.439583 0.344687,0 1.054438,1.108187 1.054438,1.646371 0,0.258662 0.0893,0.465918 0.198437,0.460567 0.109141,-0.0053 1.147593,-1.74351 2.307671,-3.862579 2.302885,-4.206587 3.255957,-5.289463 3.680862,-4.182179 0.182481,0.475539 -0.440331,1.771967 -2.265736,4.716288 -0.711214,1.147168 -1.248172,2.130705 -1.19324,2.185637 0.05493,0.05493 0.616207,-0.08229 1.247275,-0.304947 1.432459,-0.505401 1.901159,-0.195259 1.30637,0.864433 -0.283671,0.505395 -0.780106,0.816628 -1.715916,1.075768 -0.724221,0.200549 -1.625923,0.655013 -2.003783,1.009921 -0.620112,0.582446 -3.316493,5.138665 -3.422645,5.783428 -0.02396,0.14552 -0.155071,0.472942 -0.291362,0.727604 -0.389356,0.727519 0.728459,0.594786 1.671152,-0.198438 0.904658,-0.761219 1.58919,-0.838302 2.181808,-0.245684 0.849448,0.849448 0.468495,1.259618 -1.965477,2.116219 -0.654843,0.230463 -1.606649,0.474158 -2.115124,0.541545 -0.816326,0.108186 -2.07673,1.143353 -2.108693,1.731866 -0.0052,0.09636 -0.485766,1.00124 -1.067849,2.010849 -1.268936,2.20094 -1.310553,2.47956 -0.328288,2.19785 0.976236,-0.279981 1.915788,0.09441 1.915788,0.763403 0,0.696528 -1.741021,1.491961 -2.282307,1.042733 -0.19616,-0.162798 -0.641247,-0.224569 -0.989083,-0.137267 -0.772129,0.193792 -0.929262,0.421765 -3.578651,5.192027 -0.941382,1.694971 -0.955976,1.767524 -1.011198,5.027083 -0.03082,1.819011 -0.06058,3.38385 -0.06615,3.477422 -0.02346,0.394617 -0.81985,0.437545 -1.193083,0.06431 z"
       id="path28001" />
    <path
       style="fill:#87744f"
       d="m 77.515994,93.01518 c -0.317302,-0.317302 -0.404532,-1.078119 -0.404532,-3.528321 0,-3.104194 -0.300579,-4.523077 -1.17989,-5.569663 -0.183393,-0.218281 -0.693589,-1.051718 -1.133768,-1.852083 -0.849517,-1.544651 -3.122078,-5.421165 -3.955276,-6.746874 -0.396626,-0.631076 -0.659395,-0.77924 -1.282153,-0.722949 -3.114099,0.281486 -4.792052,0.16772 -6.053877,-0.410452 -1.526014,-0.699225 -3.814962,-2.496762 -3.368734,-2.645505 0.169536,-0.05651 0.244925,-0.205204 0.167533,-0.330427 -0.230319,-0.372665 1.724746,-0.782818 3.709291,-0.778172 1.912734,0.0045 3.540051,0.527853 4.440275,1.428077 0.249984,0.249984 0.454517,0.322207 0.454517,0.160494 0,-0.35087 -0.942244,-2.234751 -1.588132,-3.17524 -0.25291,-0.368267 -1.12978,-1.81556 -1.948599,-3.216207 -0.81882,-1.400647 -1.638246,-2.670691 -1.820948,-2.82232 C 63.369,62.65391 62.56497,62.273332 61.764969,61.959809 59.834239,61.203152 59.677671,61.016731 60.38166,60.312742 l 0.579826,-0.579826 0.825528,0.610339 0.825528,0.610339 -0.191024,-0.601862 C 62.316455,60.020707 61.84421,59.145096 61.372085,58.405929 60.366756,56.831969 58.59063,53.35924 58.59063,52.967553 c 0,-0.149153 0.310395,-0.271188 0.689766,-0.271188 0.514682,0 0.64977,0.104227 0.532197,0.410617 -0.08713,0.227047 -0.04488,0.340969 0.09451,0.254826 0.275351,-0.170176 1.338095,1.391969 2.238131,3.289868 0.87658,1.848436 2.249171,4.167817 2.676225,4.522241 0.313173,0.259911 0.383758,0.222745 0.383758,-0.202065 0,-0.286306 0.2188,-0.718568 0.486221,-0.960581 0.45435,-0.411181 0.515051,-0.408168 0.926042,0.04597 0.543348,0.600393 0.562688,1.371369 0.05136,2.047406 -0.213653,0.282475 -0.392247,0.797244 -0.396875,1.143933 -0.0081,0.606546 1.904152,4.269191 4.9892,9.556115 0.806692,1.382448 1.649348,2.838229 1.87257,3.23507 0.223221,0.396841 0.929528,1.646997 1.569571,2.778125 0.640043,1.131128 1.332192,2.381651 1.538109,2.77894 0.734145,1.416437 0.869794,1.059874 0.897971,-2.360375 0.01535,-1.863978 0.07385,-6.067958 0.129983,-9.342176 0.06815,-3.975238 0.0027,-6.260796 -0.197075,-6.879167 -0.372563,-1.153344 -2.454487,-5.450963 -2.901674,-5.98979 -0.35773,-0.431039 -2.35082,-1.521558 -2.35082,-1.286251 0,0.07868 -0.483715,-0.103727 -1.074922,-0.405338 -0.833073,-0.425002 -1.056307,-0.67921 -0.992187,-1.129856 0.06759,-0.475065 0.227988,-0.565722 0.876484,-0.495404 0.436563,0.04734 1.180703,0.324939 1.653646,0.616892 0.472943,0.291952 0.858383,0.431815 0.856534,0.310806 -0.0043,-0.278442 -2.0709,-4.342913 -2.429288,-4.777677 -0.147043,-0.17838 -0.906898,-0.626882 -1.688565,-0.99667 -1.525704,-0.721773 -2.226387,-1.565359 -1.720434,-2.071312 0.213997,-0.213997 0.518505,-0.207591 1.131543,0.0238 0.461314,0.174126 0.887976,0.267371 0.948137,0.207209 0.06016,-0.06016 -0.739969,-1.609489 -1.778068,-3.44295 -2.167044,-3.827372 -2.42939,-4.425366 -2.144021,-4.887102 0.520238,-0.841762 1.240591,-0.07331 2.898733,3.092269 0.933332,1.781837 1.782649,3.239704 1.887371,3.239704 0.104722,0 0.252674,-0.238125 0.328783,-0.529167 0.09351,-0.35758 0.360896,-0.529167 0.824609,-0.529167 0.78216,0 0.853128,0.410592 0.406104,2.349552 -0.300731,1.304421 -0.545394,0.652894 3.386681,9.018583 l 2.180515,4.639156 0.0023,-14.850415 c 0.002,-12.87568 0.05507,-14.894214 0.399172,-15.179792 0.317582,-0.263569 0.480571,-0.259915 0.815787,0.01829 0.374009,0.3104 0.412852,1.88079 0.362384,14.650626 -0.03109,7.866627 -0.03766,14.481553 -0.01459,14.699834 0.02307,0.218281 0.34273,-0.377031 0.710363,-1.322917 0.367632,-0.945885 1.62262,-3.674176 2.788861,-6.062869 l 2.120438,-4.343077 -0.459362,-0.852983 c -0.395134,-0.733719 -0.411685,-0.968085 -0.118377,-1.676194 0.457769,-1.105153 1.248221,-1.100172 1.535812,0.0097 0.214853,0.829143 0.219248,0.824683 0.977958,-0.992187 1.871615,-4.481925 2.852505,-5.981236 3.607726,-5.514484 0.401931,0.248407 0.280659,0.757551 -0.685335,2.877286 -0.509323,1.117636 -0.926042,2.088058 -0.926042,2.156493 0,0.06844 0.339476,-0.05112 0.754392,-0.265683 0.81545,-0.421686 1.365353,-0.167623 1.359,0.627876 -0.0044,0.553912 -1.786429,1.681281 -2.328662,1.473207 -0.236532,-0.09077 -0.350993,-0.08596 -0.254357,0.01067 0.09664,0.09664 -0.159417,0.457685 -0.569006,0.802332 -0.765481,0.64411 -6.549239,11.658588 -6.269091,11.938737 0.0811,0.0811 0.462588,-0.05902 0.847744,-0.311384 0.60522,-0.396555 0.751329,-0.407797 1.076312,-0.08281 0.577045,0.577044 0.180747,1.163129 -1.383365,2.04586 -0.866028,0.488756 -1.715554,1.240339 -2.159051,1.910132 l -0.731207,1.104307 -0.132292,9.90185 c -0.07276,5.446017 -0.06697,10.007132 0.01287,10.135811 0.07984,0.128679 0.615619,-0.61568 1.190625,-1.654131 0.575005,-1.038452 1.224058,-2.19777 1.44234,-2.576264 3.107921,-5.389053 4.224871,-7.3843 6.050119,-10.807544 1.18358,-2.219798 2.149316,-4.124798 2.14608,-4.233333 -0.0032,-0.108535 -0.238713,-0.494992 -0.523283,-0.858794 -0.876213,-1.120174 -0.516753,-3.439583 0.533062,-3.439583 0.344687,0 1.054438,1.108187 1.054438,1.646371 0,0.258662 0.0893,0.465918 0.198437,0.460567 0.109141,-0.0053 1.147593,-1.74351 2.307671,-3.862579 2.302885,-4.206587 3.255957,-5.289463 3.680862,-4.182179 0.182481,0.475539 -0.440331,1.771967 -2.265736,4.716288 -0.711214,1.147168 -1.248172,2.130705 -1.19324,2.185637 0.05493,0.05493 0.616207,-0.08229 1.247275,-0.304947 1.432459,-0.505401 1.901159,-0.195259 1.30637,0.864433 -0.283671,0.505395 -0.780106,0.816628 -1.715916,1.075768 -0.724221,0.200549 -1.625923,0.655013 -2.003783,1.009921 -0.620112,0.582446 -3.316493,5.138665 -3.422645,5.783428 -0.02396,0.14552 -0.155071,0.472942 -0.291362,0.727604 -0.389356,0.727519 0.728459,0.594786 1.671152,-0.198438 0.904658,-0.761219 1.58919,-0.838302 2.181808,-0.245684 0.849448,0.849448 0.468495,1.259618 -1.965477,2.116219 -0.654843,0.230463 -1.606649,0.474158 -2.115124,0.541545 -0.816326,0.108186 -2.07673,1.143353 -2.108693,1.731866 -0.0052,0.09636 -0.485766,1.00124 -1.067849,2.010849 -1.268936,2.20094 -1.310553,2.47956 -0.328288,2.19785 0.976236,-0.279981 1.915788,0.09441 1.915788,0.763403 0,0.696528 -1.741021,1.491961 -2.282307,1.042733 -0.19616,-0.162798 -0.641247,-0.224569 -0.989083,-0.137267 -0.772129,0.193792 -0.929262,0.421765 -3.578651,5.192027 -0.941382,1.694971 -0.955976,1.767524 -1.011198,5.027083 -0.03082,1.819011 -0.06058,3.38385 -0.06615,3.477422 -0.02346,0.394617 -0.81985,0.437545 -1.193083,0.06431 z"
       id="path27941" />
    <path
       style="fill:#6d6450"
       d="m 78.969429,83.049185 c -0.0032,-0.113604 0.487952,-1.066104 1.091528,-2.116666 0.603577,-1.050563 1.267141,-2.237536 1.474587,-2.637718 0.480349,-0.926635 0.595333,-0.917095 0.526204,0.04366 -0.03052,0.424197 -0.174557,0.751619 -0.320077,0.727604 -0.145521,-0.02401 -0.267122,0.194463 -0.270225,0.485505 -0.0069,0.644333 -1.424151,3.420902 -1.637351,3.207702 -0.08371,-0.08371 7.9e-4,-0.336555 0.187784,-0.561869 0.186994,-0.225315 0.263492,-0.486161 0.169995,-0.579658 -0.0935,-0.0935 -0.172642,-0.06085 -0.175878,0.07254 -0.0074,0.303066 -1.038505,1.641951 -1.046567,1.358898 z"
       id="path27858" />
    <path
       style="fill:#6d6450"
       d="m 78.500047,44.430935 c 0.04989,-10.646161 -0.01097,-14.248298 -0.242209,-14.336939 -0.169858,-0.06511 -0.378217,0.06243 -0.463021,0.283424 -0.0848,0.220995 -0.12988,5.184336 -0.10017,11.029647 0.03391,6.671329 0.112297,9.347358 0.210565,7.188256 0.146854,-3.226602 0.157954,-3.11192 0.179262,1.852084 0.01249,2.910416 -0.06817,4.934478 -0.179262,4.497916 -0.173728,-0.682741 -0.203752,-0.608735 -0.214682,0.529167 -0.0098,1.017528 0.04463,1.200761 0.235657,0.79375 0.165071,-0.351702 0.19721,0.201656 0.09583,1.650004 -0.08389,1.198544 -0.0552,2.329637 0.06377,2.513541 0.319013,0.493144 0.340946,-0.354015 0.414263,-16.00085 z"
       id="path27838" />
    <path
       style="fill:#6d6450"
       d="m 64.325952,61.361469 c -0.375373,-0.472943 -1.178622,-1.889783 -1.784999,-3.148534 -0.609007,-1.264211 -1.354963,-2.422578 -1.666517,-2.587871 -0.310208,-0.164578 -0.368984,-0.244871 -0.130613,-0.178428 0.351252,0.09791 0.309616,-0.100671 -0.219662,-1.047652 -0.809682,-1.448679 -1.139781,-1.673588 -1.139781,-0.776578 0,0.45622 0.104279,0.628241 0.305464,0.503902 0.185597,-0.114706 0.233788,-0.07281 0.122807,0.106756 -0.195732,0.316702 1.032075,2.964445 1.524657,3.287895 0.162817,0.106912 0.192155,0.196209 0.0652,0.198437 -0.126959,0.0022 -0.0837,0.181335 0.09613,0.398014 0.179827,0.216679 0.431167,0.329557 0.558533,0.250841 0.127365,-0.07872 0.169341,0.01905 0.09328,0.217265 -0.07606,0.198213 0.153268,0.790025 0.50962,1.315139 0.356352,0.525114 0.586619,1.016047 0.511705,1.090962 -0.07492,0.07491 -0.04987,0.275903 0.05565,0.446642 0.144638,0.234029 0.242313,0.228797 0.396857,-0.02126 0.150373,-0.243309 0.299523,-0.180334 0.559738,0.236336 0.195107,0.312416 0.460422,0.568029 0.589588,0.568029 0.129166,0 -0.07228,-0.386953 -0.447648,-0.859895 z"
       id="path27837" />
    <path
       style="fill:#6d6450"
       d="m 89.282295,70.985687 c 0,-0.127331 0.327422,-0.297261 0.727604,-0.377624 1.467619,-0.294718 2.178054,-0.682904 2.01716,-1.102187 -0.23719,-0.618107 -0.96403,-0.48781 -2.1759,0.390064 -1.04789,0.759088 -1.402506,1.321257 -0.833447,1.321257 0.145521,0 0.264583,-0.10418 0.264583,-0.23151 z"
       id="path27836" />
    <path
       style="fill:#6d6450"
       d="m 70.014652,71.774106 c 0.21456,0.307064 0.239714,0.302399 0.149593,-0.02774 -0.05959,-0.218281 -0.267088,-0.396875 -0.461115,-0.396875 -0.194028,0 -0.407912,-0.165401 -0.475298,-0.367558 -0.07437,-0.223103 -0.005,-0.294955 0.176389,-0.182823 0.438293,0.27088 0.365374,-0.06566 -0.187204,-0.863984 -0.267361,-0.386266 -0.564177,-0.918208 -0.659589,-1.182092 -0.100588,-0.2782 -0.302608,-0.399984 -0.48081,-0.289849 -0.187723,0.116019 -0.236042,0.07459 -0.124154,-0.106448 0.172675,-0.279393 -0.749708,-2.431204 -1.042146,-2.431204 -0.07492,0 -0.0033,0.248322 0.159106,0.551827 0.162431,0.303505 0.23493,0.612226 0.16111,0.686046 -0.127098,0.127099 -0.966988,-1.294933 -0.966988,-1.637224 0,-0.08857 0.142635,-0.07289 0.316966,0.03485 0.174331,0.107742 0.07211,-0.212653 -0.227157,-0.711989 -0.299268,-0.499337 -0.680028,-0.87812 -0.846133,-0.841739 -0.166105,0.03638 -0.302009,-0.112448 -0.302009,-0.330729 0,-0.218282 -0.119062,-0.396875 -0.264583,-0.396875 -0.145521,0 -0.26837,-0.148829 -0.272998,-0.33073 -0.01552,-0.609962 -0.704279,-1.271267 -1.147074,-1.10135 -0.235935,0.09054 -0.361898,0.27314 -0.279918,0.405786 0.08198,0.132647 0.255625,0.175311 0.385877,0.09481 0.221635,-0.136978 1.577695,1.73716 1.579538,2.182996 4.63e-4,0.112032 0.463192,0.899102 1.028287,1.749044 0.671147,1.009453 1.084288,1.422338 1.191365,1.190625 0.09016,-0.195098 0.100753,-0.02469 0.02355,0.37869 -0.09519,0.497321 -0.01647,0.780958 0.244513,0.881109 0.211687,0.08123 0.506074,0.495336 0.654193,0.920231 0.14812,0.424896 0.401591,0.772537 0.56327,0.772537 0.161679,0 0.225891,0.110141 0.142694,0.244757 -0.0832,0.134616 -0.0012,0.574099 0.182195,0.976629 0.272871,0.598885 0.350466,0.643586 0.427033,0.246006 0.07642,-0.396799 0.140852,-0.418198 0.351499,-0.116733 z"
       id="path27835" />
    <path
       style="fill:#6d6450"
       d="m 85.423236,73.90949 c 0.489647,-0.971438 1.133496,-1.985797 1.430778,-2.254131 0.297281,-0.268334 0.475919,-0.656207 0.396972,-0.861939 -0.07895,-0.205732 0.05445,-0.676222 0.296428,-1.045534 0.262408,-0.400486 0.373933,-0.906862 0.276343,-1.254728 -0.110125,-0.392548 -0.08478,-0.469953 0.07752,-0.236736 0.185478,0.266529 0.342165,0.192334 0.67879,-0.32142 0.529206,-0.80767 0.565166,-1.121762 0.08258,-0.721247 -0.195291,0.162077 -0.439708,0.21005 -0.543151,0.106607 -0.103443,-0.103442 -0.10202,0.03619 0.0032,0.310283 0.127532,0.332343 0.09421,0.438393 -0.100025,0.318348 -0.31952,-0.197474 -0.642353,0.189926 -0.713986,0.856787 -0.108287,1.008081 -0.485487,1.919737 -0.670461,1.620442 -0.128607,-0.20809 -0.239221,-0.134895 -0.331935,0.219646 -0.104403,0.399237 -0.03114,0.501666 0.294021,0.411058 0.247297,-0.06891 0.206075,0.003 -0.09609,0.167742 -0.291041,0.158632 -0.70776,0.631226 -0.926041,1.050208 -0.218282,0.418983 -0.733524,1.301347 -1.144984,1.960809 -0.41146,0.659462 -0.671123,1.323587 -0.57703,1.475833 0.282094,0.456438 0.63096,0.05528 1.567121,-1.802028 z"
       id="path27834" />
    <path
       style="fill:#6d6450"
       d="m 76.075797,82.581627 c -0.164126,-0.1161 -0.297324,-0.309576 -0.295995,-0.429948 0.0059,-0.536142 -0.430767,-1.460992 -1.91479,-4.055316 -1.875451,-3.278607 -1.722351,-3.074531 -2.056143,-2.740739 -0.1792,0.1792 0.103695,0.931537 0.862317,2.293263 0.858695,1.541358 1.172543,1.916719 1.310838,1.567753 0.14534,-0.366743 0.185561,-0.331931 0.200426,0.173472 0.01023,0.347759 0.226955,0.803073 0.481617,1.011808 0.254661,0.208735 0.324679,0.310612 0.155594,0.226393 -0.169084,-0.08422 -0.01743,0.448012 0.337014,1.182735 0.38121,0.790208 0.761485,1.263523 0.930987,1.158765 0.203651,-0.125864 0.200219,-0.238162 -0.01187,-0.388186 z"
       id="path27833" />
    <path
       style="fill:#6d6450"
       d="m 77.83528,87.648252 c -0.07709,-1.106195 -0.263247,-2.30892 -0.41368,-2.672722 -0.150434,-0.363802 -0.344777,-0.99375 -0.431875,-1.399884 -0.143587,-0.669543 -0.672012,-0.792515 -0.672012,-0.156386 0,0.14552 0.128751,0.18501 0.286114,0.08776 0.171902,-0.106242 0.26101,0.01955 0.223226,0.315114 -0.03459,0.270568 0.06993,0.814336 0.232256,1.208374 0.162329,0.394037 0.315089,1.810793 0.339466,3.148348 0.03258,1.787771 0.114825,2.305937 0.310497,1.956291 0.151121,-0.27004 0.205588,-1.344982 0.126008,-2.48689 z"
       id="path27832" />
    <path
       style="fill:#6d6450"
       d="m 77.515994,93.01518 c -0.317302,-0.317302 -0.404532,-1.078119 -0.404532,-3.528321 0,-3.104194 -0.300579,-4.523077 -1.17989,-5.569663 -0.183393,-0.218281 -0.692079,-1.051718 -1.130414,-1.852083 -1.436147,-2.622295 -3.723561,-6.469668 -4.222912,-7.102834 -0.474064,-0.601103 -0.540631,-0.610464 -2.124826,-0.298792 -2.774676,0.545884 -5.460153,-0.24637 -7.613832,-2.246189 l -1.058333,-0.982725 1.058333,0.556708 1.058334,0.556707 -0.890897,-0.776691 -0.890897,-0.776691 1.023188,-0.284104 c 1.644833,-0.456713 4.572286,-0.34585 5.819193,0.220372 1.040454,0.472473 1.93221,1.259365 1.038571,0.916443 -0.60758,-0.23315 -0.498117,0.04544 0.196747,0.500731 0.563766,0.369393 0.610279,0.359266 0.64797,-0.141086 0.02233,-0.296475 -0.149078,-0.908348 -0.380912,-1.359718 -0.82715,-1.61042 -4.602237,-7.786919 -4.918228,-8.046818 -0.177,-0.14558 -1.036194,-0.551126 -1.909319,-0.901213 -1.679136,-0.673263 -1.938534,-1.100018 -1.033784,-1.70075 0.487701,-0.323821 0.634626,-0.30401 1.232358,0.166165 1.258702,0.990096 1.184543,0.691727 -0.49206,-1.979722 -1.304811,-2.079048 -2.782539,-5.155997 -2.610159,-5.434914 0.546933,-0.884956 1.968245,0.646375 3.395407,3.658234 0.893043,1.884665 2.264911,4.207624 2.696355,4.565691 0.313173,0.259911 0.383758,0.222745 0.383758,-0.202065 0,-0.286306 0.238125,-0.736057 0.529167,-0.999446 0.476528,-0.431252 0.650214,-0.369761 0.560499,0.198438 -0.01723,0.10914 0.114669,0.168671 0.293115,0.132291 0.499183,-0.101769 0.560326,1.078443 0.09283,1.791926 -0.229505,0.350269 -0.417282,0.90135 -0.417282,1.224625 0,0.648719 2.39505,5.034363 8.540142,15.638102 0.695255,1.199706 1.391512,2.508705 1.547237,2.908888 0.155725,0.400182 0.375324,0.727604 0.487997,0.727604 0.26153,0 0.487477,-7.575505 0.430084,-14.419791 l -0.04437,-5.291666 -1.154987,-2.38125 c -1.512148,-3.117612 -1.971499,-3.743219 -3.213797,-4.376992 -0.569829,-0.290705 -1.036052,-0.464184 -1.036052,-0.385508 0,0.07868 -0.47625,-0.09992 -1.058333,-0.396875 -0.696501,-0.355328 -1.058333,-0.718999 -1.058333,-1.063711 0,-0.804547 1.221835,-0.78032 2.579687,0.05115 0.472943,0.289603 0.859896,0.424253 0.859896,0.299222 0,-0.362148 -2.114253,-4.399581 -2.565712,-4.89955 -0.225229,-0.249431 -0.926581,-0.650984 -1.558559,-0.892338 -1.29267,-0.493676 -2.195031,-1.568806 -1.717499,-2.046338 0.214158,-0.214158 0.518418,-0.207791 1.131664,0.02368 0.461314,0.174126 0.890905,0.264441 0.954647,0.2007 0.06374,-0.06374 -0.78154,-1.698781 -1.878403,-3.63342 -1.096862,-1.934639 -2.018473,-3.696119 -2.048024,-3.9144 -0.114413,-0.845139 0.02429,-1.092812 0.565959,-1.01059 0.791854,0.120199 1.948095,2.237205 1.621565,2.968987 -0.215965,0.483996 -0.265842,0.432118 -0.431009,-0.448301 -0.102731,-0.547599 -0.298465,-0.926611 -0.434967,-0.842249 -0.140136,0.08661 -0.172335,-0.04427 -0.07396,-0.300634 0.122541,-0.319337 0.07715,-0.394025 -0.153018,-0.251774 -0.222472,0.137496 -0.300399,0.04551 -0.243401,-0.287325 0.0507,-0.29605 -0.07304,-0.489572 -0.313033,-0.489572 -0.541172,0 -0.440864,0.331458 0.719891,2.378827 0.549945,0.970008 1.383189,2.438937 1.851652,3.264286 0.468464,0.82535 0.963185,1.474635 1.099382,1.442856 0.136197,-0.03178 0.317092,0.123233 0.401989,0.344471 0.08782,0.228863 0.04162,0.332573 -0.107195,0.240603 -0.365106,-0.225648 -0.310648,0.14777 0.135323,0.927914 0.631356,1.104443 0.457283,1.210243 -0.926042,0.562838 l -0.661458,-0.309567 0.747665,0.105093 c 0.981753,0.137996 0.552065,-0.251803 -0.528225,-0.47919 -0.699364,-0.147207 -0.82774,-0.100588 -0.771839,0.280291 0.04299,0.29289 0.543979,0.60741 1.395849,0.876305 1.446845,0.456702 2.274657,1.009429 2.051817,1.369991 -0.07789,0.126025 -0.0042,0.485807 0.163645,0.799516 0.247981,0.463358 0.354249,0.501617 0.56636,0.203906 0.203735,-0.285954 0.228657,-0.26547 0.11343,0.09323 -0.08122,0.252837 0.205204,1.246201 0.6365,2.207476 0.431295,0.961276 0.784172,2.028415 0.784172,2.371421 0,0.343006 0.168961,0.718861 0.375468,0.835232 0.206508,0.116372 0.653428,0.687835 0.993157,1.269918 0.339729,0.582084 0.766081,1.088099 0.947449,1.124479 0.459056,0.09208 0.414823,-0.373764 -0.05252,-0.553099 -0.210252,-0.08068 -0.463837,-0.581447 -0.563522,-1.112813 -0.130892,-0.697713 -0.248272,-0.866965 -0.422505,-0.609218 -0.194995,0.28846 -0.229572,0.280795 -0.180308,-0.03997 0.09959,-0.648433 -0.32815,-2.132643 -0.571301,-1.982368 -0.123625,0.0764 -0.310926,-4.84e-4 -0.416226,-0.170863 -0.119571,-0.19347 -0.07677,-0.238898 0.114009,-0.120992 0.168005,0.103832 0.305464,0.106045 0.305464,0.0049 0,-0.375003 -2.186728,-4.603212 -2.526512,-4.885208 -0.193848,-0.160879 -0.288765,-0.492162 -0.210927,-0.736184 0.107619,-0.337385 0.08098,-0.359129 -0.111198,-0.09076 -0.204632,0.285758 -0.284326,0.270556 -0.418804,-0.07989 -0.09707,-0.252952 -0.05739,-0.365628 0.09547,-0.271152 0.381422,0.235732 0.32838,0.01754 -0.320337,-1.317712 -0.320039,-0.658737 -0.743784,-1.197703 -0.941656,-1.197703 -0.197872,0 -0.285681,-0.119875 -0.19513,-0.266389 0.09055,-0.146514 -0.05706,-0.592998 -0.328014,-0.992187 -0.270959,-0.399189 -0.636181,-1.059934 -0.811606,-1.468322 -0.175426,-0.408388 -0.426408,-0.676114 -0.557738,-0.594948 -0.131331,0.08117 -0.17647,-0.09071 -0.100308,-0.381955 0.07616,-0.291243 0.173359,-0.529532 0.215994,-0.529532 0.04264,0 0.586695,0.922734 1.209023,2.050521 1.011432,1.832925 1.148446,1.980328 1.291149,1.389062 0.113782,-0.471438 0.36566,-0.685509 0.876785,-0.745178 0.630616,-0.07362 0.716652,0.0062 0.713089,0.661458 -0.0022,0.409848 -0.131315,0.923772 -0.286859,1.142053 -0.214904,0.301583 -0.246652,0.187251 -0.132224,-0.476173 0.0844,-0.489326 0.04598,-0.808398 -0.08742,-0.725956 -0.130901,0.0809 -0.308565,-0.0025 -0.39481,-0.185284 -0.08625,-0.182808 -0.09082,0.203403 -0.01017,0.858247 0.08065,0.654844 0.239062,1.223297 0.352022,1.263229 0.11296,0.03993 0.153385,0.426885 0.08983,0.859895 -0.06915,0.471153 0.0028,0.787292 0.179063,0.787292 0.162037,0 0.294613,0.117827 0.294613,0.261838 0,0.144011 1.142056,2.694838 2.537902,5.668505 2.096901,4.467174 2.486401,5.490606 2.241524,5.889725 -0.280223,0.456726 -0.294312,0.454213 -0.258475,-0.04611 0.02085,-0.291042 0.02419,-0.658151 0.0074,-0.815798 -0.04417,-0.415564 -0.824218,-0.352963 -0.824218,0.06614 0,0.194028 0.119062,0.352778 0.264583,0.352778 0.145521,0 0.264584,0.160861 0.264584,0.357468 0,0.196608 0.297656,0.917283 0.661458,1.6015 l 0.661458,1.244033 0.04929,10.503186 c 0.02711,5.776753 0.120738,9.491156 0.208059,8.254229 0.08732,-1.236927 0.139839,-3.022865 0.116705,-3.96875 -0.03014,-1.232186 0.01452,-1.494743 0.157511,-0.926042 0.109766,0.436563 0.211838,-2.420937 0.226826,-6.349999 0.01793,-4.698845 -0.06053,-7.007922 -0.229227,-6.746875 -0.154109,0.238467 -0.258098,0.271101 -0.260532,0.08176 -0.0022,-0.173313 0.115011,-0.388699 0.260532,-0.478636 0.386179,-0.238672 0.3242,-0.932311 -0.06979,-0.781121 -0.187474,0.07194 -0.547372,-0.267192 -0.819186,-0.77192 -0.379171,-0.704078 -0.421614,-1.018312 -0.194789,-1.44214 0.200301,-0.374264 0.29002,-5.079956 0.29002,-15.211277 0,-12.716663 0.05283,-14.713217 0.396875,-14.998749 0.317764,-0.263721 0.481279,-0.259327 0.82031,0.02204 0.38156,0.316667 0.411486,1.798219 0.302609,14.981355 -0.06645,8.046464 -0.04682,14.629934 0.04363,14.629934 0.09045,0 0.382402,-0.613646 0.648783,-1.363659 0.321997,-0.906601 0.555066,-1.249204 0.695377,-1.022175 0.129066,0.208834 -0.09413,0.859061 -0.574575,1.673903 -0.647127,1.09753 -0.734002,1.429317 -0.492799,1.882071 0.206549,0.387707 0.252315,0.409146 0.155333,0.07277 -0.121711,-0.422154 0.464002,-1.678307 0.949643,-2.036658 0.09861,-0.07276 0.208611,-0.251354 0.244456,-0.396875 0.03584,-0.145521 0.880651,-1.97757 1.877348,-4.071221 0.996698,-2.093651 1.812177,-3.960381 1.812177,-4.148289 0,-0.187908 0.187098,-0.528748 0.415774,-0.757424 0.228675,-0.228675 0.343549,-0.415774 0.255274,-0.415774 -0.08827,0 -0.01195,-0.26789 0.169604,-0.595312 0.181557,-0.327422 0.304809,-0.684609 0.273893,-0.79375 -0.03092,-0.109141 0.103271,-0.198438 0.298194,-0.198438 0.429696,0 0.90607,-1.018152 0.7687,-1.642938 -0.106988,-0.486603 -0.794218,0.71994 -3.687429,6.473884 -0.933568,1.856656 -1.613082,3.512161 -1.510031,3.678901 0.124158,0.200893 0.06915,0.230103 -0.163061,0.08659 -0.246618,-0.152418 -0.305391,-0.09921 -0.198398,0.179606 0.09055,0.235975 0.0017,0.396181 -0.21962,0.396181 -0.204407,0 -0.37165,-0.09074 -0.37165,-0.201636 0,-0.110899 0.961201,-2.133776 2.136002,-4.495281 l 2.136001,-4.293646 -0.460512,-0.855119 c -0.396269,-0.735828 -0.412943,-0.969959 -0.119527,-1.67833 0.457769,-1.105153 1.248221,-1.100172 1.535812,0.0097 0.214853,0.829143 0.219248,0.824683 0.977958,-0.992187 1.216562,-2.91328 2.47008,-5.319497 2.842698,-5.45676 0.475959,-0.175331 1.005373,0.04147 1.007521,0.412589 0.0028,0.486664 -2.190434,5.203472 -2.419543,5.203472 -0.331121,0 -0.09201,-1.831229 0.285686,-2.187939 0.281717,-0.266063 0.290457,-0.219924 0.04779,0.252315 -0.163334,0.317856 -0.288281,0.734574 -0.277661,0.926042 0.01062,0.191468 0.479607,-0.583803 1.042192,-1.722823 0.562584,-1.139021 0.958138,-2.239665 0.879007,-2.445876 -0.226197,-0.589459 -0.657647,-0.135061 -0.478731,0.504193 0.114463,0.408966 0.0885,0.469227 -0.09069,0.210461 -0.185815,-0.268344 -0.568547,0.271603 -1.47254,2.077416 -1.176872,2.350915 -1.590382,4.238294 -0.928577,4.238294 0.16109,0 0.22865,-0.167407 0.150135,-0.372016 -0.143389,-0.373665 0.577452,-1.219005 1.033016,-1.211433 0.134062,0.0022 0.06615,0.116333 -0.150914,0.253566 -0.33612,0.212502 -0.340174,0.300208 -0.02733,0.591261 0.278965,0.259534 0.322136,0.261735 0.179456,0.0091 -0.11,-0.194733 -0.0072,-0.401922 0.247952,-0.499841 0.311274,-0.119447 0.345802,-0.222883 0.120814,-0.361934 -0.226139,-0.139761 -0.232398,-0.24575 -0.02218,-0.375669 0.161057,-0.09954 0.292831,-0.05564 0.292831,0.09756 0,0.30294 0.724596,0.259957 1.261086,-0.07481 0.442715,-0.27625 0.154446,-0.7206 -0.343518,-0.529513 -0.213621,0.08197 -0.388402,0.02998 -0.388402,-0.115539 0,-0.410714 0.695221,-0.578478 1.026093,-0.247606 0.431779,0.431779 0.363894,1.007782 -0.166197,1.410178 -0.5749,0.436411 -0.95419,0.470352 -0.702339,0.06285 0.117906,-0.190775 0.07248,-0.233581 -0.120992,-0.11401 -0.170379,0.1053 -0.243507,0.298687 -0.162506,0.429748 0.081,0.131062 -0.244479,0.404059 -0.723288,0.60666 -1.421122,0.601326 -1.559526,0.816795 -5.358817,8.342615 -1.123169,2.224827 -1.97549,4.111775 -1.894046,4.193218 0.08144,0.08144 0.463206,-0.0584 0.848362,-0.310765 0.60522,-0.396555 0.751329,-0.407797 1.076312,-0.08281 0.569681,0.569681 0.163718,1.217978 -1.197786,1.912788 -1.704372,0.869784 -2.701099,2.003344 -2.961278,3.367808 -0.191316,1.00332 -0.318282,17.971137 -0.154833,20.692013 0.0341,0.567659 -0.09125,1.181718 -0.279695,1.370164 -0.392642,0.392642 -0.452595,0.908453 -0.105589,0.908453 0.248447,0 0.601731,-1.019865 0.724214,-2.090672 0.03998,-0.349504 0.215018,-0.766223 0.388978,-0.926041 0.240159,-0.220636 0.27114,-0.163208 0.128714,0.238588 -0.185131,0.522271 -0.181328,0.522162 0.291788,-0.0083 0.701913,-0.787044 1.958229,-3.311207 1.78641,-3.589216 -0.08121,-0.131398 0.02408,-0.238905 0.23398,-0.238905 0.499239,0 0.753525,-1.007931 0.414229,-1.64191 -0.209208,-0.390909 -0.08321,-0.794287 0.585818,-1.875453 0.468794,-0.757586 2.146692,-3.801019 3.728662,-6.763186 2.872336,-5.378317 3.056518,-5.93939 2.186685,-6.661287 -0.592906,-0.492068 -0.490486,-2.196743 0.167776,-2.792461 0.54637,-0.494458 0.561708,-0.49271 1.058333,0.120596 0.277161,0.342279 0.503929,0.84726 0.503929,1.12218 0,0.274921 0.0893,0.495478 0.198437,0.490127 0.109141,-0.0053 1.147593,-1.74351 2.307671,-3.862579 2.302885,-4.206587 3.255957,-5.289463 3.680862,-4.182179 0.182481,0.475539 -0.440331,1.771967 -2.265736,4.716288 -0.711214,1.147168 -1.23454,2.144338 -1.162944,2.215933 0.0716,0.0716 0.629058,-0.06944 1.238807,-0.313415 1.337808,-0.535284 1.814504,-0.261252 1.343561,0.772357 -0.322758,0.708377 -0.952132,1.040125 -2.537514,1.337545 -0.822071,0.154221 -0.933736,0.117658 -0.789399,-0.258478 0.09247,-0.24096 0.302277,-0.389012 0.466249,-0.329004 0.163972,0.06001 0.675373,-0.04389 1.136447,-0.230884 0.461073,-0.186993 0.923858,-0.260823 1.02841,-0.164067 0.104552,0.09676 0.134106,-0.0027 0.06568,-0.220955 -0.06843,-0.218282 -0.174027,-0.373276 -0.23466,-0.344433 -0.06063,0.02884 -0.612895,0.132819 -1.227246,0.231058 -0.759689,0.121479 -1.167416,0.337454 -1.274601,0.675162 -0.08668,0.2731 -0.267185,0.496546 -0.401125,0.496546 -0.246416,0 0.77845,-2.035308 1.996308,-3.964519 0.365271,-0.578627 0.664129,-1.173477 0.664129,-1.32189 0,-0.148412 0.09534,-0.269841 0.211861,-0.269841 0.222837,0 1.375639,-2.216212 1.375639,-2.644607 0,-0.137061 -0.185437,-0.178043 -0.412081,-0.09107 -0.226644,0.08697 -0.35177,0.315296 -0.278058,0.507388 0.07503,0.195534 -0.0056,0.299503 -0.183232,0.236215 -0.17449,-0.06217 -0.585145,0.418807 -0.912567,1.068844 -0.674391,1.338884 -0.724691,1.563588 -0.289848,1.294841 0.190775,-0.117906 0.23358,-0.07248 0.114009,0.120992 -0.1053,0.170379 -0.289266,0.249329 -0.408814,0.175444 -0.244795,-0.151291 -1.068992,0.99336 -1.068992,1.484624 0,0.175563 -0.162299,0.507174 -0.360665,0.736913 -0.198365,0.22974 -0.571728,0.983256 -0.829695,1.67448 -0.257968,0.691223 -0.571919,1.25677 -0.697669,1.25677 -0.125751,0 -0.228638,0.2749 -0.228638,0.610889 0,0.335989 -0.188313,0.842004 -0.418474,1.124479 -0.412567,0.506341 -0.415878,0.506121 -0.234566,-0.01558 0.10115,-0.291042 0.232376,-0.767292 0.291614,-1.058333 l 0.107704,-0.529167 -0.251418,0.529167 c -0.296401,0.623846 -0.343464,0.443243 -0.344735,-1.322917 -0.0011,-1.549964 -0.08414,-1.750889 -0.635991,-1.539124 -0.334337,0.128297 -0.345047,0.203594 -0.05767,0.405462 0.258294,0.181441 0.269394,0.282168 0.0414,0.375698 -0.319563,0.131094 -0.08994,1.254903 0.466964,2.285412 0.164186,0.303813 0.158156,0.647301 -0.01711,0.974793 -0.350324,0.654585 -0.343299,0.881191 0.02035,0.656445 0.201627,-0.124613 0.19755,-0.0053 -0.01327,0.38867 -0.16961,0.31692 -0.435367,0.487475 -0.600527,0.385401 -0.194897,-0.120454 -0.236658,-0.02776 -0.122047,0.270914 0.09841,0.256459 0.06619,0.387251 -0.07405,0.300577 -0.275153,-0.170054 -0.933954,0.877945 -0.699367,1.112532 0.08113,0.08113 0.226403,-0.05812 0.32284,-0.309429 0.108868,-0.283705 0.241747,-0.349479 0.35051,-0.173497 0.09634,0.155886 0.697357,-0.722907 1.335587,-1.952875 1.067767,-2.057754 1.69222,-2.770681 2.08383,-2.379071 0.0841,0.0841 0.02943,0.235729 -0.121477,0.336957 -0.310357,0.208182 -1.959251,2.577622 -1.959251,2.815418 0,0.08513 -0.383984,0.835158 -0.853299,1.666738 -0.469315,0.831581 -0.873516,1.633449 -0.898225,1.78193 -0.02471,0.148481 -0.08721,0.433676 -0.138888,0.633767 -0.175034,0.677692 0.472711,0.579741 1.484742,-0.22452 0.55418,-0.440407 1.220849,-0.80074 1.481486,-0.80074 0.554087,0 1.305434,0.678795 1.305434,1.179377 0,0.468847 -1.452705,1.127618 -3.629586,1.645941 -1.989398,0.473683 -2.186494,0.60463 -2.915753,1.937182 -0.278734,0.509323 -0.940457,1.704834 -1.470495,2.656691 l -0.963704,1.730649 1.380915,-0.01086 c 1.212222,-0.0095 1.390749,0.05809 1.461416,0.553568 0.101142,0.709157 -1.221601,1.238271 -2.497293,0.99895 -1.280852,-0.240289 -1.62755,0.188815 -4.388982,5.432184 -1.03634,1.967788 -1.036688,1.969499 -0.995958,4.894791 0.02241,1.609474 0.03079,3.062405 0.01864,3.228737 -0.03698,0.505768 -0.775438,0.626245 -1.205079,0.196604 z"
       id="path27831" />
    <path
       style="fill:#5e8337"
       d="m 69.769853,45.418068 c 0.109458,-0.120662 0.03588,-0.407641 -0.163499,-0.637731 -0.199382,-0.230091 -0.962177,-1.570734 -1.695099,-2.979207 -0.732922,-1.408472 -1.403489,-2.5098 -1.490147,-2.447395 -0.08666,0.0624 -0.09906,0.03512 -0.02757,-0.06063 0.0715,-0.09575 -0.0178,-0.353238 -0.198438,-0.572193 -0.264228,-0.320276 -0.259855,-0.37545 0.02237,-0.282235 0.192943,0.06372 0.766702,0.886759 1.275019,1.828964 0.508318,0.942205 1.328156,2.453034 1.821864,3.357399 0.64677,1.184743 0.80805,1.695741 0.577064,1.828357 -0.176323,0.101231 -0.231029,0.08533 -0.121571,-0.03533 z"
       id="path27698" />
    <path
       style="fill:#5e8337"
       d="m 83.999938,46.628343 c -0.397151,-0.742084 -0.339764,-1.201342 0.238205,-1.906312 0.485504,-0.592187 0.536211,-0.600906 0.976439,-0.167903 0.255387,0.251197 0.375657,0.545405 0.267266,0.653796 -0.108391,0.108391 -0.307841,0.02193 -0.443221,-0.192138 -0.200581,-0.317165 -0.250338,-0.291258 -0.268793,0.139954 l -0.02265,0.529167 -0.244154,-0.529167 c -0.182061,-0.394589 -0.227314,-0.209545 -0.177935,0.727604 0.03642,0.691224 0.03978,1.256771 0.0075,1.256771 -0.03231,0 -0.181995,-0.230298 -0.332636,-0.511772 z"
       id="path27697" />
    <path
       style="fill:#5e8337"
       d="m 73.142713,54.694977 c 0,-0.493324 -1.97389,-4.31272 -2.568277,-4.96951 -0.250052,-0.276305 -1.02464,-0.747579 -1.721306,-1.047277 -0.88864,-0.382282 -1.266667,-0.697768 -1.266667,-1.057105 0,-0.313304 -0.116071,-0.440464 -0.298908,-0.327464 -0.181519,0.112184 -0.250561,0.04039 -0.175802,-0.182823 0.129722,-0.38731 1.083081,-0.444335 1.863772,-0.111481 0.26394,0.112533 0.463021,0.08363 0.463021,-0.06723 0,-0.145553 -0.846966,-1.733936 -1.882147,-3.52974 -1.789176,-3.103815 -2.468968,-4.464316 -2.230654,-4.464316 0.178939,0 4.212632,7.196525 4.692344,8.371627 0.435002,1.065578 0.43319,1.091908 -0.06615,0.961328 -0.282368,-0.07384 -0.513397,-0.246459 -0.513397,-0.383596 0,-0.137136 0.148828,-0.165314 0.330729,-0.06262 0.224311,0.126641 0.245595,0.09807 0.06615,-0.0888 -0.145521,-0.151538 -0.642085,-0.354983 -1.103476,-0.4521 -0.691411,-0.145533 -0.827449,-0.09861 -0.773801,0.266922 0.03942,0.268585 0.57753,0.620557 1.364391,0.892434 1.173426,0.405444 1.396262,0.620673 2.300161,2.221649 1.229582,2.17782 2.131472,4.412738 1.780739,4.412738 -0.143397,0 -0.260722,-0.172187 -0.260722,-0.382638 z"
       id="path27694" />
    <path
       style="fill:#5e8337"
       d="m 80.286462,56.535112 c 0,-0.120008 1.071563,-2.415656 2.38125,-5.101441 1.309688,-2.685784 2.38125,-5.12049 2.38125,-5.410457 0,-0.340015 0.129879,-0.477374 0.365783,-0.38685 0.252807,0.09701 0.593381,-0.404988 1.102685,-1.625338 1.234641,-2.958341 2.452156,-5.262495 2.864265,-5.420636 0.215093,-0.08254 0.536778,0.02549 0.714856,0.240058 0.262427,0.316206 0.146786,0.764562 -0.610297,2.366207 -0.513741,1.086844 -1.111955,2.243662 -1.329365,2.570707 l -0.395291,0.594628 -3.29e-4,-0.755852 c -1.85e-4,-0.425705 0.08395,-0.619492 0.192615,-0.443664 0.115999,0.187691 0.577619,-0.497831 1.157552,-1.719005 1.042327,-2.194845 1.095783,-2.393137 0.709504,-2.631871 -0.359128,-0.221953 -1.326161,1.404151 -2.671397,4.492059 -0.633957,1.455208 -1.363895,3.003021 -1.622086,3.439583 -0.25819,0.436563 -1.48297,2.807355 -2.721733,5.268427 -2.227107,4.424632 -2.519262,4.949208 -2.519262,4.523445 z"
       id="path27693" />
    <path
       style="fill:#5e8337"
       d="m 78.549934,52.431781 c 0,-3.856301 0.03699,-5.433879 0.08219,-3.505729 0.04521,1.928151 0.04521,5.083308 0,7.011458 -0.04521,1.928151 -0.08219,0.350573 -0.08219,-3.505729 z"
       id="path27691" />
    <path
       style="fill:#5e8337"
       d="m 76.846879,59.404935 c 0,-0.142334 -0.242763,-0.519366 -0.539473,-0.837847 -0.296711,-0.318481 -0.485525,-0.579057 -0.419588,-0.579057 0.06594,0 -0.227081,-0.716271 -0.651151,-1.591715 -0.424071,-0.875443 -0.771038,-1.701683 -0.771038,-1.836088 0,-0.360236 -2.468123,-5.156123 -2.706635,-5.259349 -0.11208,-0.04851 -0.205604,-0.346163 -0.207833,-0.661458 -0.0034,-0.476327 -0.05104,-0.506154 -0.281915,-0.176389 -0.22385,0.319726 -0.24877,0.292044 -0.128195,-0.142405 0.08232,-0.296603 -0.08272,-0.995101 -0.366756,-1.552217 -0.335058,-0.657198 -0.462453,-1.282793 -0.362746,-1.78133 0.182945,-0.914727 0.438989,-1.113328 1.146031,-0.888922 0.555202,0.176215 0.76998,1.454457 0.244386,1.454457 -0.162007,0 -0.210808,-0.225607 -0.114462,-0.529166 0.09635,-0.30356 0.04755,-0.529167 -0.114462,-0.529167 -0.155327,0 -0.360359,-0.02977 -0.455627,-0.06615 -0.268126,-0.102389 -0.339042,0.839117 -0.07547,1.002011 0.128341,0.07932 0.311669,0.734636 0.407396,1.456259 0.09573,0.721623 0.277772,1.312042 0.404546,1.312042 0.126773,0 0.230496,0.129081 0.230496,0.286846 0,0.352783 2.852595,6.592545 4.140192,9.05625 0.51811,0.991359 0.870083,1.874406 0.782163,1.962326 -0.08792,0.08792 -0.159855,0.0434 -0.159855,-0.09893 z"
       id="path27690" />
    <path
       style="fill:#5e8337"
       d="m 79.395229,60.852526 c 0.08908,-0.484066 0.352544,-1.177776 0.585478,-1.541578 0.232935,-0.363802 1.170329,-2.249582 2.083098,-4.190622 0.91277,-1.94104 1.885217,-3.84604 2.160994,-4.233333 0.275777,-0.387293 0.487607,-0.763701 0.470734,-0.836461 -0.07564,-0.326189 2.011607,-3.723666 2.49615,-4.063053 0.388697,-0.272254 0.442256,-0.413261 0.190943,-0.502698 -0.192109,-0.06837 -0.253518,-0.226453 -0.136465,-0.351302 0.117053,-0.124848 0.320325,-0.05306 0.451715,0.159538 0.167704,0.27135 0.04935,0.584443 -0.397183,1.050671 -0.349841,0.365274 -0.953793,1.259448 -1.342115,1.987052 -1.706492,3.197471 -4.878366,9.617294 -4.878366,9.873735 0,0.174924 0.275216,0.137775 0.727604,-0.09821 0.862084,-0.449705 1.788052,-0.547064 1.12448,-0.118231 -0.331747,0.214391 -0.313324,0.257145 0.112266,0.260532 0.472987,0.0038 0.465015,0.05102 -0.112266,0.66551 -0.341775,0.363802 -0.762485,0.661458 -0.934912,0.661458 -0.172427,0 -0.864891,0.485351 -1.53881,1.078557 l -1.225305,1.078558 z"
       id="path27688" />
    <path
       style="fill:#5e8337"
       d="m 77.665976,61.754564 c -0.04843,-0.252583 -0.136297,-7.408792 -0.19527,-15.902687 -0.07792,-11.222738 -0.0256,-15.541792 0.191424,-15.803293 0.219868,-0.264925 0.43284,-0.288031 0.807362,-0.08759 0.483756,0.258899 0.507036,0.618849 0.474498,7.336628 -0.01882,3.885404 -0.127988,7.302496 -0.242598,7.593538 -0.114609,0.291042 -0.168566,-2.883646 -0.119904,-7.05486 0.07254,-6.217688 0.02353,-7.608949 -0.272003,-7.722356 -0.198264,-0.07608 -0.434345,0.05416 -0.524626,0.289429 -0.306323,0.798267 -0.123408,28.974738 0.195863,30.170889 0.196621,0.736642 0.208665,1.204181 0.03548,1.377366 -0.173185,0.173184 -0.292067,0.106293 -0.350226,-0.197061 z"
       id="path27686" />
    <path
       style="fill:#5e8337"
       d="m 87.430212,69.966096 c 0,-0.126811 0.11241,-0.343675 0.249801,-0.48192 0.284617,-0.286387 1.543226,-2.526821 2.519361,-4.484687 0.830026,-1.664809 1.879975,-2.975834 2.160397,-2.697593 0.11797,0.117053 0.09314,0.295647 -0.05518,0.396875 -0.53842,0.367477 -1.665713,2.219531 -3.671085,6.031302 -0.360238,0.684733 -1.203296,1.550721 -1.203296,1.236023 z"
       id="path27683" />
    <path
       style="fill:#5e8337"
       d="m 78.259634,77.765634 c 0.08096,-0.327422 0.171833,-4.549775 0.201936,-9.383007 0.03127,-5.020838 0.155202,-8.725601 0.289117,-8.642837 0.128911,0.07967 0.157254,0.387873 0.06298,0.684891 -0.107243,0.337893 -0.06991,0.47731 0.09974,0.372462 0.17554,-0.108489 0.221018,0.183009 0.128986,0.826762 -0.07818,0.546884 -0.195399,4.536443 -0.260478,8.865688 -0.07824,5.204837 -0.211682,7.871354 -0.393905,7.871354 -0.153014,0 -0.21011,-0.26477 -0.128376,-0.595313 z"
       id="path27682" />
    <path
       style="fill:#5e8337"
       d="m 89.400358,70.975636 c 0.08211,-0.132859 0.618065,-0.32076 1.191009,-0.417558 1.604204,-0.271029 2.190298,-1.457547 0.719972,-1.457547 -0.601038,0 -2.55821,1.431683 -2.55821,1.871346 0,0.315795 0.452755,0.318425 0.647229,0.0038 z"
       id="path27681" />
    <path
       style="fill:#5e8337"
       d="m 82.824358,78.359054 c 0.537331,-0.640274 2.129487,-3.405875 3.047169,-5.292982 0.248537,-0.511087 0.698108,-1.152077 0.999046,-1.424423 0.300938,-0.272345 0.499021,-0.573065 0.440183,-0.668267 -0.05884,-0.0952 0.198768,-0.198398 0.572458,-0.229325 0.37369,-0.03093 0.811591,-0.217012 0.973113,-0.413521 0.788903,-0.959786 2.29294,-1.812801 2.919192,-1.655622 0.860109,0.215874 1.179212,1.197807 0.513472,1.580037 -0.828254,0.475537 -3.165169,1.210339 -4.06809,1.279139 -1.012157,0.07712 -1.490893,0.658606 -3.276058,3.979168 l -1.242784,2.311687 1.268764,-0.133705 c 0.916953,-0.09663 1.122033,-0.06416 0.739597,0.117113 -0.291041,0.13795 -0.93651,0.259186 -1.434374,0.269414 -0.497865,0.01023 -1.152709,0.226104 -1.455209,0.479724 l -0.55,0.461128 z"
       id="path27680" />
    <path
       style="fill:#5e8337"
       d="m 74.201046,78.688323 c -2.447274,-4.424189 -3.492781,-6.106712 -3.836458,-6.173968 -0.248247,-0.04858 -1.190625,-1.406827 -1.190625,-1.716043 0,-0.07783 0.119062,-0.06793 0.264583,0.02201 0.426749,0.263745 0.321415,0.0046 -0.746353,-1.835897 -0.556014,-0.958418 -1.110884,-1.651796 -1.233044,-1.54084 -0.122159,0.110955 -0.135573,0.05147 -0.02981,-0.132187 0.188645,-0.327577 -0.911625,-2.432371 -1.969409,-3.767439 -0.288384,-0.363978 -0.579485,-0.94816 -0.646893,-1.298182 -0.06741,-0.350021 -0.342908,-0.885658 -0.612223,-1.190303 -0.269314,-0.304646 -0.943961,-1.44687 -1.499216,-2.538276 -1.562528,-3.071297 -2.806758,-5.271996 -3.074092,-5.437218 -0.903166,-0.558187 0.567215,2.99293 2.497959,6.032823 1.055032,1.661113 1.444408,2.910543 0.834059,2.67633 -0.220081,-0.08445 -0.400147,-0.234204 -0.400147,-0.33278 0,-0.312332 -1.577011,-1.124784 -1.852626,-0.954445 -0.510165,0.315299 -0.25242,0.59367 0.98847,1.06757 0.68888,0.263086 1.11719,0.523444 0.951799,0.578575 -0.44634,0.14878 -2.769602,-1.008936 -2.663495,-1.327258 0.05022,-0.150664 0.333959,-0.435046 0.630527,-0.631961 0.469239,-0.311563 0.627286,-0.288749 1.217857,0.175794 0.373253,0.293601 0.740033,0.53382 0.815067,0.53382 0.180727,0 -0.603005,-1.611734 -1.029263,-2.116667 -0.61975,-0.734137 -2.762503,-5.082371 -2.762503,-5.605876 0,-1.424983 1.838955,0.548319 3.251656,3.48921 0.643602,1.339818 2.081671,3.778215 2.588162,4.388499 0.289265,0.348543 0.379947,0.294003 0.674018,-0.405387 0.367612,-0.874291 0.906041,-1.034935 1.41467,-0.422075 0.45113,0.543579 0.0951,2.084868 -0.434643,1.881588 -0.216366,-0.08303 -0.443186,-0.150959 -0.504044,-0.150959 -0.06086,0 -0.110652,-0.133641 -0.110652,-0.29698 0,-0.208914 0.114456,-0.20199 0.385973,0.02335 0.317704,0.263671 0.415708,0.201863 0.554076,-0.34944 0.193456,-0.770792 -0.013,-1.229012 -0.553748,-1.229012 -0.458851,0 -0.78384,1.148044 -0.505398,1.785346 0.111406,0.254986 0.182767,0.594113 0.158581,0.753614 -0.02419,0.159501 0.446657,1.171532 1.046319,2.248958 0.599663,1.077426 1.868126,3.387706 2.818807,5.133956 0.950682,1.74625 2.407784,4.306094 3.238006,5.688542 0.830221,1.382447 1.853813,3.168385 2.274649,3.968749 0.420836,0.800365 0.867076,1.529007 0.991645,1.619205 0.124569,0.0902 0.185008,0.345935 0.13431,0.568305 -0.0507,0.22237 -0.985148,-1.210003 -2.076554,-3.18305 z"
       id="path27678" />
    <path
       style="fill:#5e8337"
       d="m 78.436009,83.734374 c -8.96e-4,-0.318834 -0.102006,-0.641734 -0.224689,-0.717556 -0.122682,-0.07582 -0.186664,-0.946051 -0.142181,-1.933844 0.04448,-0.987792 0.08533,-1.944814 0.09077,-2.126715 0.0054,-0.181901 0.139104,-0.330729 0.297032,-0.330729 0.19025,0 0.251787,0.669345 0.182366,1.983637 -0.05763,1.091 -0.02896,2.106315 0.06371,2.256255 0.09267,0.14994 0.504406,-0.355744 0.914973,-1.123741 0.410567,-0.767998 1.13187,-2.051203 1.602894,-2.851568 0.471025,-0.800364 1.450813,-2.467239 2.177307,-3.704166 0.726494,-1.236927 2.128563,-3.796771 3.11571,-5.688541 0.987146,-1.891771 2.102833,-3.995603 2.479305,-4.675183 l 0.684493,-1.235599 -0.594576,-0.804208 c -0.749926,-1.014329 -0.78228,-2.425835 -0.07037,-3.070102 0.677141,-0.612804 1.203938,-0.218943 1.448127,1.082692 0.145777,0.77706 0.240352,0.882299 0.556844,0.619634 0.209683,-0.174021 0.381242,-0.438738 0.381242,-0.58826 0,-0.149521 0.490642,-1.117208 1.090315,-2.150415 0.599674,-1.033208 1.440771,-2.533402 1.869106,-3.333767 1.159207,-2.166037 2.332245,-3.034032 2.332245,-1.725755 0,0.705994 -1.086559,2.859962 -2.577834,5.110233 -0.510324,0.770057 -0.849195,1.47877 -0.753048,1.574917 0.09615,0.09615 0.697098,-0.01876 1.335446,-0.255348 0.850706,-0.315294 1.191663,-0.34726 1.276837,-0.119708 0.246022,0.657278 -0.287716,1.332205 -1.415018,1.789331 -1.356067,0.549892 -1.835133,0.612782 -1.835133,0.240913 0,-0.145521 0.170843,-0.264583 0.379651,-0.264583 0.208808,0 0.714823,-0.138852 1.124479,-0.308559 0.409656,-0.169707 0.853969,-0.318535 0.987363,-0.330729 0.133394,-0.01219 0.29039,-0.165735 0.348879,-0.341203 0.06937,-0.208099 -0.106968,-0.277453 -0.507118,-0.199453 -2.025879,0.394897 -2.333254,0.422904 -2.333254,0.2126 0,-0.127866 0.772447,-1.531017 1.716549,-3.118113 1.782296,-2.996153 2.146185,-3.781671 1.87669,-4.051165 -0.387936,-0.387936 -1.610882,1.542791 -4.193948,6.621203 -1.001384,1.96876 -1.394329,2.519903 -1.64706,2.310155 -0.182555,-0.151507 -0.342331,-0.541131 -0.355057,-0.865831 -0.06085,-1.552406 -0.445169,-2.145306 -0.946336,-1.459919 -0.376382,0.514733 -0.238575,2.06018 0.183706,2.06018 0.153258,0 0.199016,0.07963 0.101685,0.176966 -0.09733,0.09733 -0.0079,0.365222 0.198819,0.595313 0.410373,0.456852 0.29019,0.796818 -1.250237,3.536588 -0.788193,1.401863 -0.857632,1.633268 -0.40643,1.354409 0.190775,-0.117905 0.233581,-0.07248 0.114009,0.120993 -0.1053,0.170379 -0.302289,0.241279 -0.437755,0.157557 -0.135466,-0.08372 -0.261184,-0.02613 -0.279374,0.127976 -0.01819,0.154109 -0.05468,0.369495 -0.08108,0.478635 -0.02641,0.109141 -0.143527,0.601243 -0.26027,1.09356 -0.129513,0.546171 -0.28805,0.772492 -0.406674,0.580554 -0.120029,-0.19421 -0.398974,0.171939 -0.729047,0.956961 -0.294048,0.699341 -0.970023,1.926373 -1.502167,2.726738 -0.532145,0.800364 -1.108019,1.842161 -1.279721,2.315104 -0.171702,0.472942 -0.403592,0.859895 -0.515313,0.859895 -0.11172,0 -0.136101,0.20836 -0.05418,0.463021 0.103984,0.323247 0.07654,0.362761 -0.09093,0.130897 -0.173615,-0.240384 -0.360649,-0.07885 -0.677115,0.584782 -0.240482,0.504297 -0.934498,1.725315 -1.542256,2.713373 -0.607759,0.988058 -1.266055,2.094125 -1.462881,2.457927 -0.343584,0.635061 -0.357931,0.638324 -0.359496,0.08176 z"
       id="path27676" />
    <path
       style="fill:#5e8337"
       d="m 77.905212,85.194801 c 0,-0.170443 -0.195499,-0.52592 -0.434442,-0.78995 -0.367582,-0.406173 -0.418637,-0.999812 -0.331742,-3.857291 0.05649,-1.857481 0.103156,-6.651457 0.103713,-10.653279 l 0.001,-7.276042 -1.165061,-2.248958 C 74.48682,57.296436 73.912599,56.58387 72.573594,56.019716 69.985515,54.929298 69.70313,54.773512 69.70313,54.43614 c 0,-0.569182 0.61134,-0.876858 1.322916,-0.665799 l 0.661458,0.196193 -0.727604,0.02637 c -0.880065,0.0319 -0.932221,0.382215 -0.139566,0.937412 0.745607,0.522243 1.307842,0.528236 0.618163,0.0066 -0.282475,-0.213653 -0.38635,-0.38846 -0.230834,-0.38846 0.155516,0 0.430976,0.178594 0.612133,0.396875 0.181157,0.218281 0.493392,0.396875 0.693855,0.396875 0.200463,0 0.364478,0.126089 0.364478,0.280198 0,0.154109 0.118845,0.206748 0.2641,0.116976 0.47008,-0.290526 1.559009,1.254851 3.064661,4.34928 l 1.47268,3.026662 -0.01656,10.202504 c -0.01986,12.232408 -0.04475,11.173601 0.25822,10.986357 0.136714,-0.08449 0.248571,0.151058 0.248571,0.523448 0,0.37239 -0.05953,0.677073 -0.132292,0.677073 -0.07276,0 -0.132292,-0.139453 -0.132292,-0.309895 z"
       id="path27674" />
    <path
       style="fill:#5e8337"
       d="m 77.272062,92.759098 c -0.08833,-0.230183 -0.1606,-1.812298 -0.1606,-3.515812 0,-2.710314 -0.07438,-3.234475 -0.595312,-4.195218 -1.670727,-3.081281 -2.167272,-3.94581 -3.633941,-6.327007 -0.875369,-1.421197 -1.59158,-2.717711 -1.59158,-2.881142 0,-0.163431 -0.293761,-0.573122 -0.652803,-0.910425 -0.627781,-0.589769 -0.713747,-0.600344 -2.242677,-0.275883 -1.804298,0.382898 -3.276402,0.223759 -5.005522,-0.541113 -1.391064,-0.615334 -1.348325,-0.968099 0.04667,-0.385232 1.295889,0.541456 1.540918,0.501973 0.578289,-0.09318 -0.436562,-0.269911 -1.091406,-0.459214 -1.455208,-0.420674 -0.384539,0.04074 -1.028728,-0.207487 -1.538732,-0.592914 -1.04248,-0.787838 -0.947236,-1.120545 0.126713,-0.442635 0.739989,0.467104 0.744525,0.46647 0.322065,-0.04501 -0.235673,-0.28533 -0.377702,-0.658241 -0.315621,-0.828692 0.07175,-0.196999 -0.109521,-0.270937 -0.497545,-0.202939 -0.335732,0.05883 -0.134172,-0.06045 0.447912,-0.265069 2.125012,-0.747013 5.527587,-0.420005 6.791847,0.652737 0.340684,0.289074 0.429068,0.458586 0.197562,0.378899 -0.263481,-0.09069 -0.418924,0.0073 -0.418924,0.264063 0,0.224543 0.05534,0.352919 0.122983,0.285278 0.06764,-0.06764 0.359821,0.0038 0.64929,0.158689 0.379481,0.203092 0.476138,0.200495 0.346472,-0.0093 -0.09891,-0.160039 -0.05949,-0.290981 0.08759,-0.290981 0.451167,0 -1.161515,-3.091204 -3.320217,-6.364221 -0.34108,-0.517144 -0.620145,-1.06126 -0.620145,-1.209146 0,-0.147886 -0.425772,-0.766301 -0.946159,-1.374257 -0.622766,-0.727562 -0.781024,-1.043352 -0.463021,-0.923917 0.587086,0.220498 0.987435,0.714472 1.567475,1.934042 0.584021,1.22794 2.216747,3.966471 2.760553,4.630208 0.238453,0.291042 0.638241,1.005417 0.888418,1.5875 0.250176,0.582083 0.62698,1.37436 0.837341,1.760615 0.550021,1.009918 0.477525,1.280994 -0.345128,1.290508 -0.400183,0.0046 -0.961684,0.185389 -1.247782,0.401691 -0.484274,0.366132 -0.45688,0.381242 0.396875,0.218902 1.356222,-0.257882 1.840918,-0.579061 1.86169,-1.233629 0.01777,-0.559994 0.02806,-0.562516 0.231885,-0.05684 0.117309,0.291041 0.110428,0.658637 -0.01529,0.816879 -0.141935,0.178651 0.0209,0.522088 0.429573,0.906016 0.361985,0.340067 0.658155,0.705952 0.658155,0.813078 0,0.238364 2.124579,4.026272 2.361829,4.210901 0.0935,0.07276 0.574082,0.929859 1.067965,1.904664 0.493882,0.974805 0.998734,1.710096 1.121892,1.633979 0.123159,-0.07612 0.196907,-0.04025 0.163885,0.07971 -0.03302,0.119957 0.202153,0.719376 0.522611,1.332042 0.507585,0.970425 0.583173,1.532867 0.586702,4.365625 0.0041,3.289089 0.18729,4.153162 0.800199,3.774363 0.253091,-0.156419 0.212092,-0.301775 -0.168856,-0.598659 -0.43191,-0.336601 -0.437582,-0.369501 -0.04008,-0.2325 0.422824,0.145729 0.463295,-0.0981 0.466176,-2.808676 0.0031,-2.904084 0.02302,-3.00258 0.92189,-4.555758 0.505304,-0.873125 1.329264,-2.372199 1.831022,-3.331275 1.083982,-2.07196 1.764539,-2.594838 3.205957,-2.463166 1.321141,0.120685 1.909015,-0.06028 2.060069,-0.634137 0.08836,-0.335702 0.126431,-0.304033 0.149298,0.124205 0.02335,0.437352 -0.198256,0.650353 -0.926787,0.89079 -0.630199,0.207984 -1.014562,0.225247 -1.124479,0.0505 -0.110411,-0.175529 -0.479875,-0.163583 -1.090319,0.03525 -0.773885,0.252071 -1.148584,0.686137 -2.315179,2.681995 -2.341877,4.006579 -2.304451,3.888015 -2.354534,7.459075 -0.02488,1.774158 -0.123108,3.351736 -0.218281,3.505729 -0.263026,0.425585 -1.122701,0.334268 -1.304129,-0.138528 z"
       id="path27665" />
    <path
       style="fill:#586b31"
       d="m 69.769853,45.418068 c 0.109458,-0.120662 0.03588,-0.407641 -0.163499,-0.637731 -0.199382,-0.230091 -0.962177,-1.570734 -1.695099,-2.979207 -0.732922,-1.408472 -1.403489,-2.5098 -1.490147,-2.447395 -0.08666,0.0624 -0.09906,0.03512 -0.02757,-0.06063 0.0715,-0.09575 -0.0178,-0.353238 -0.198438,-0.572193 -0.264228,-0.320276 -0.259855,-0.37545 0.02237,-0.282235 0.192943,0.06372 0.766702,0.886759 1.275019,1.828964 0.508318,0.942205 1.328156,2.453034 1.821864,3.357399 0.64677,1.184743 0.80805,1.695741 0.577064,1.828357 -0.176323,0.101231 -0.231029,0.08533 -0.121571,-0.03533 z"
       id="path27523" />
    <path
       style="fill:#586b31"
       d="m 83.999938,46.628343 c -0.397151,-0.742084 -0.339764,-1.201342 0.238205,-1.906312 0.485504,-0.592187 0.536211,-0.600906 0.976439,-0.167903 0.255387,0.251197 0.375657,0.545405 0.267266,0.653796 -0.108391,0.108391 -0.307841,0.02193 -0.443221,-0.192138 -0.200581,-0.317165 -0.250338,-0.291258 -0.268793,0.139954 l -0.02265,0.529167 -0.244154,-0.529167 c -0.182061,-0.394589 -0.227314,-0.209545 -0.177935,0.727604 0.03642,0.691224 0.03978,1.256771 0.0075,1.256771 -0.03231,0 -0.181995,-0.230298 -0.332636,-0.511772 z"
       id="path27522" />
    <path
       style="fill:#586b31"
       d="m 73.142713,54.694977 c 0,-0.493324 -1.97389,-4.31272 -2.568277,-4.96951 -0.250052,-0.276305 -1.02464,-0.747579 -1.721306,-1.047277 -0.88864,-0.382282 -1.266667,-0.697768 -1.266667,-1.057105 0,-0.313304 -0.116071,-0.440464 -0.298908,-0.327464 -0.181519,0.112184 -0.250561,0.04039 -0.175802,-0.182823 0.129722,-0.38731 1.083081,-0.444335 1.863772,-0.111481 0.26394,0.112533 0.463021,0.08363 0.463021,-0.06723 0,-0.145553 -0.846966,-1.733936 -1.882147,-3.52974 -1.789176,-3.103815 -2.468968,-4.464316 -2.230654,-4.464316 0.178939,0 4.212632,7.196525 4.692344,8.371627 0.435002,1.065578 0.43319,1.091908 -0.06615,0.961328 -0.282368,-0.07384 -0.513397,-0.246459 -0.513397,-0.383596 0,-0.137136 0.148828,-0.165314 0.330729,-0.06262 0.224311,0.126641 0.245595,0.09807 0.06615,-0.0888 -0.145521,-0.151538 -0.642085,-0.354983 -1.103476,-0.4521 -0.691411,-0.145533 -0.827449,-0.09861 -0.773801,0.266922 0.03942,0.268585 0.57753,0.620557 1.364391,0.892434 1.173426,0.405444 1.396262,0.620673 2.300161,2.221649 1.229582,2.17782 2.131472,4.412738 1.780739,4.412738 -0.143397,0 -0.260722,-0.172187 -0.260722,-0.382638 z"
       id="path27518" />
    <path
       style="fill:#586b31"
       d="m 80.286462,56.535112 c 0,-0.120008 1.071563,-2.415656 2.38125,-5.101441 1.309688,-2.685784 2.38125,-5.12049 2.38125,-5.410457 0,-0.340015 0.129879,-0.477374 0.365783,-0.38685 0.252807,0.09701 0.593381,-0.404988 1.102685,-1.625338 1.234641,-2.958341 2.452156,-5.262495 2.864265,-5.420636 0.215093,-0.08254 0.536778,0.02549 0.714856,0.240058 0.262427,0.316206 0.146786,0.764562 -0.610297,2.366207 -0.513741,1.086844 -1.111955,2.243662 -1.329365,2.570707 l -0.395291,0.594628 -3.29e-4,-0.755852 c -1.85e-4,-0.425705 0.08395,-0.619492 0.192615,-0.443664 0.115999,0.187691 0.577619,-0.497831 1.157552,-1.719005 1.042327,-2.194845 1.095783,-2.393137 0.709504,-2.631871 -0.359128,-0.221953 -1.326161,1.404151 -2.671397,4.492059 -0.633957,1.455208 -1.363895,3.003021 -1.622086,3.439583 -0.25819,0.436563 -1.48297,2.807355 -2.721733,5.268427 -2.227107,4.424632 -2.519262,4.949208 -2.519262,4.523445 z"
       id="path27517" />
    <path
       style="fill:#586b31"
       d="m 78.549934,52.431781 c 0,-3.856301 0.03699,-5.433879 0.08219,-3.505729 0.04521,1.928151 0.04521,5.083308 0,7.011458 -0.04521,1.928151 -0.08219,0.350573 -0.08219,-3.505729 z"
       id="path27512" />
    <path
       style="fill:#586b31"
       d="m 76.846879,59.404935 c 0,-0.142334 -0.242763,-0.519366 -0.539473,-0.837847 -0.296711,-0.318481 -0.485525,-0.579057 -0.419588,-0.579057 0.06594,0 -0.227081,-0.716271 -0.651151,-1.591715 -0.424071,-0.875443 -0.771038,-1.701683 -0.771038,-1.836088 0,-0.360236 -2.468123,-5.156123 -2.706635,-5.259349 -0.11208,-0.04851 -0.205604,-0.346163 -0.207833,-0.661458 -0.0034,-0.476327 -0.05104,-0.506154 -0.281915,-0.176389 -0.22385,0.319726 -0.24877,0.292044 -0.128195,-0.142405 0.08232,-0.296603 -0.08272,-0.995101 -0.366756,-1.552217 -0.335058,-0.657198 -0.462453,-1.282793 -0.362746,-1.78133 0.182945,-0.914727 0.438989,-1.113328 1.146031,-0.888922 0.555202,0.176215 0.76998,1.454457 0.244386,1.454457 -0.162007,0 -0.210808,-0.225607 -0.114462,-0.529166 0.09635,-0.30356 0.04755,-0.529167 -0.114462,-0.529167 -0.155327,0 -0.360359,-0.02977 -0.455627,-0.06615 -0.268126,-0.102389 -0.339042,0.839117 -0.07547,1.002011 0.128341,0.07932 0.311669,0.734636 0.407396,1.456259 0.09573,0.721623 0.277772,1.312042 0.404546,1.312042 0.126773,0 0.230496,0.129081 0.230496,0.286846 0,0.352783 2.852595,6.592545 4.140192,9.05625 0.51811,0.991359 0.870083,1.874406 0.782163,1.962326 -0.08792,0.08792 -0.159855,0.0434 -0.159855,-0.09893 z"
       id="path27511" />
    <path
       style="fill:#586b31"
       d="m 79.395229,60.852526 c 0.08908,-0.484066 0.352544,-1.177776 0.585478,-1.541578 0.232935,-0.363802 1.170329,-2.249582 2.083098,-4.190622 0.91277,-1.94104 1.885217,-3.84604 2.160994,-4.233333 0.275777,-0.387293 0.487607,-0.763701 0.470734,-0.836461 -0.07564,-0.326189 2.011607,-3.723666 2.49615,-4.063053 0.388697,-0.272254 0.442256,-0.413261 0.190943,-0.502698 -0.192109,-0.06837 -0.253518,-0.226453 -0.136465,-0.351302 0.117053,-0.124848 0.320325,-0.05306 0.451715,0.159538 0.167704,0.27135 0.04935,0.584443 -0.397183,1.050671 -0.349841,0.365274 -0.953793,1.259448 -1.342115,1.987052 -1.706492,3.197471 -4.878366,9.617294 -4.878366,9.873735 0,0.174924 0.275216,0.137775 0.727604,-0.09821 0.862084,-0.449705 1.788052,-0.547064 1.12448,-0.118231 -0.331747,0.214391 -0.313324,0.257145 0.112266,0.260532 0.472987,0.0038 0.465015,0.05102 -0.112266,0.66551 -0.341775,0.363802 -0.762485,0.661458 -0.934912,0.661458 -0.172427,0 -0.864891,0.485351 -1.53881,1.078557 l -1.225305,1.078558 z"
       id="path27509" />
    <path
       style="fill:#586b31"
       d="m 77.665976,61.754564 c -0.04843,-0.252583 -0.136297,-7.408792 -0.19527,-15.902687 -0.07792,-11.222738 -0.0256,-15.541792 0.191424,-15.803293 0.219868,-0.264925 0.43284,-0.288031 0.807362,-0.08759 0.483756,0.258899 0.507036,0.618849 0.474498,7.336628 -0.01882,3.885404 -0.127988,7.302496 -0.242598,7.593538 -0.114609,0.291042 -0.168566,-2.883646 -0.119904,-7.05486 0.07254,-6.217688 0.02353,-7.608949 -0.272003,-7.722356 -0.198264,-0.07608 -0.434345,0.05416 -0.524626,0.289429 -0.306323,0.798267 -0.123408,28.974738 0.195863,30.170889 0.196621,0.736642 0.208665,1.204181 0.03548,1.377366 -0.173185,0.173184 -0.292067,0.106293 -0.350226,-0.197061 z"
       id="path27507" />
    <path
       style="fill:#586b31"
       d="m 87.430212,69.966096 c 0,-0.126811 0.11241,-0.343675 0.249801,-0.48192 0.284617,-0.286387 1.543226,-2.526821 2.519361,-4.484687 0.830026,-1.664809 1.879975,-2.975834 2.160397,-2.697593 0.11797,0.117053 0.09314,0.295647 -0.05518,0.396875 -0.53842,0.367477 -1.665713,2.219531 -3.671085,6.031302 -0.360238,0.684733 -1.203296,1.550721 -1.203296,1.236023 z"
       id="path27498" />
    <path
       style="fill:#586b31"
       d="m 78.259634,77.765634 c 0.08096,-0.327422 0.171833,-4.549775 0.201936,-9.383007 0.03127,-5.020838 0.155202,-8.725601 0.289117,-8.642837 0.128911,0.07967 0.157254,0.387873 0.06298,0.684891 -0.107243,0.337893 -0.06991,0.47731 0.09974,0.372462 0.17554,-0.108489 0.221018,0.183009 0.128986,0.826762 -0.07818,0.546884 -0.195399,4.536443 -0.260478,8.865688 -0.07824,5.204837 -0.211682,7.871354 -0.393905,7.871354 -0.153014,0 -0.21011,-0.26477 -0.128376,-0.595313 z"
       id="path27495" />
    <path
       style="fill:#586b31"
       d="m 89.400358,70.975636 c 0.08211,-0.132859 0.618065,-0.32076 1.191009,-0.417558 1.604204,-0.271029 2.190298,-1.457547 0.719972,-1.457547 -0.601038,0 -2.55821,1.431683 -2.55821,1.871346 0,0.315795 0.452755,0.318425 0.647229,0.0038 z"
       id="path27493" />
    <path
       style="fill:#586b31"
       d="m 82.824358,78.359054 c 0.537331,-0.640274 2.129487,-3.405875 3.047169,-5.292982 0.248537,-0.511087 0.698108,-1.152077 0.999046,-1.424423 0.300938,-0.272345 0.499021,-0.573065 0.440183,-0.668267 -0.05884,-0.0952 0.198768,-0.198398 0.572458,-0.229325 0.37369,-0.03093 0.811591,-0.217012 0.973113,-0.413521 0.788903,-0.959786 2.29294,-1.812801 2.919192,-1.655622 0.860109,0.215874 1.179212,1.197807 0.513472,1.580037 -0.828254,0.475537 -3.165169,1.210339 -4.06809,1.279139 -1.012157,0.07712 -1.490893,0.658606 -3.276058,3.979168 l -1.242784,2.311687 1.268764,-0.133705 c 0.916953,-0.09663 1.122033,-0.06416 0.739597,0.117113 -0.291041,0.13795 -0.93651,0.259186 -1.434374,0.269414 -0.497865,0.01023 -1.152709,0.226104 -1.455209,0.479724 l -0.55,0.461128 z"
       id="path27492" />
    <path
       style="fill:#586b31"
       d="m 74.201046,78.688323 c -2.447274,-4.424189 -3.492781,-6.106712 -3.836458,-6.173968 -0.248247,-0.04858 -1.190625,-1.406827 -1.190625,-1.716043 0,-0.07783 0.119062,-0.06793 0.264583,0.02201 0.426749,0.263745 0.321415,0.0046 -0.746353,-1.835897 -0.556014,-0.958418 -1.110884,-1.651796 -1.233044,-1.54084 -0.122159,0.110955 -0.135573,0.05147 -0.02981,-0.132187 0.188645,-0.327577 -0.911625,-2.432371 -1.969409,-3.767439 -0.288384,-0.363978 -0.579485,-0.94816 -0.646893,-1.298182 -0.06741,-0.350021 -0.342908,-0.885658 -0.612223,-1.190303 -0.269314,-0.304646 -0.943961,-1.44687 -1.499216,-2.538276 -1.562528,-3.071297 -2.806758,-5.271996 -3.074092,-5.437218 -0.903166,-0.558187 0.567215,2.99293 2.497959,6.032823 1.055032,1.661113 1.444408,2.910543 0.834059,2.67633 -0.220081,-0.08445 -0.400147,-0.234204 -0.400147,-0.33278 0,-0.312332 -1.577011,-1.124784 -1.852626,-0.954445 -0.510165,0.315299 -0.25242,0.59367 0.98847,1.06757 0.68888,0.263086 1.11719,0.523444 0.951799,0.578575 -0.44634,0.14878 -2.769602,-1.008936 -2.663495,-1.327258 0.05022,-0.150664 0.333959,-0.435046 0.630527,-0.631961 0.469239,-0.311563 0.627286,-0.288749 1.217857,0.175794 0.373253,0.293601 0.740033,0.53382 0.815067,0.53382 0.180727,0 -0.603005,-1.611734 -1.029263,-2.116667 -0.61975,-0.734137 -2.762503,-5.082371 -2.762503,-5.605876 0,-1.424983 1.838955,0.548319 3.251656,3.48921 0.643602,1.339818 2.081671,3.778215 2.588162,4.388499 0.289265,0.348543 0.379947,0.294003 0.674018,-0.405387 0.367612,-0.874291 0.906041,-1.034935 1.41467,-0.422075 0.45113,0.543579 0.0951,2.084868 -0.434643,1.881588 -0.216366,-0.08303 -0.443186,-0.150959 -0.504044,-0.150959 -0.06086,0 -0.110652,-0.133641 -0.110652,-0.29698 0,-0.208914 0.114456,-0.20199 0.385973,0.02335 0.317704,0.263671 0.415708,0.201863 0.554076,-0.34944 0.193456,-0.770792 -0.013,-1.229012 -0.553748,-1.229012 -0.458851,0 -0.78384,1.148044 -0.505398,1.785346 0.111406,0.254986 0.182767,0.594113 0.158581,0.753614 -0.02419,0.159501 0.446657,1.171532 1.046319,2.248958 0.599663,1.077426 1.868126,3.387706 2.818807,5.133956 0.950682,1.74625 2.407784,4.306094 3.238006,5.688542 0.830221,1.382447 1.853813,3.168385 2.274649,3.968749 0.420836,0.800365 0.867076,1.529007 0.991645,1.619205 0.124569,0.0902 0.185008,0.345935 0.13431,0.568305 -0.0507,0.22237 -0.985148,-1.210003 -2.076554,-3.18305 z"
       id="path27487" />
    <path
       style="fill:#586b31"
       d="m 78.436009,83.734374 c -8.96e-4,-0.318834 -0.102006,-0.641734 -0.224689,-0.717556 -0.122682,-0.07582 -0.186664,-0.946051 -0.142181,-1.933844 0.04448,-0.987792 0.08533,-1.944814 0.09077,-2.126715 0.0054,-0.181901 0.139104,-0.330729 0.297032,-0.330729 0.19025,0 0.251787,0.669345 0.182366,1.983637 -0.05763,1.091 -0.02896,2.106315 0.06371,2.256255 0.09267,0.14994 0.504406,-0.355744 0.914973,-1.123741 0.410567,-0.767998 1.13187,-2.051203 1.602894,-2.851568 0.471025,-0.800364 1.450813,-2.467239 2.177307,-3.704166 0.726494,-1.236927 2.128563,-3.796771 3.11571,-5.688541 0.987146,-1.891771 2.102833,-3.995603 2.479305,-4.675183 l 0.684493,-1.235599 -0.594576,-0.804208 c -0.749926,-1.014329 -0.78228,-2.425835 -0.07037,-3.070102 0.677141,-0.612804 1.203938,-0.218943 1.448127,1.082692 0.145777,0.77706 0.240352,0.882299 0.556844,0.619634 0.209683,-0.174021 0.381242,-0.438738 0.381242,-0.58826 0,-0.149521 0.490642,-1.117208 1.090315,-2.150415 0.599674,-1.033208 1.440771,-2.533402 1.869106,-3.333767 1.159207,-2.166037 2.332245,-3.034032 2.332245,-1.725755 0,0.705994 -1.086559,2.859962 -2.577834,5.110233 -0.510324,0.770057 -0.849195,1.47877 -0.753048,1.574917 0.09615,0.09615 0.697098,-0.01876 1.335446,-0.255348 0.850706,-0.315294 1.191663,-0.34726 1.276837,-0.119708 0.246022,0.657278 -0.287716,1.332205 -1.415018,1.789331 -1.356067,0.549892 -1.835133,0.612782 -1.835133,0.240913 0,-0.145521 0.170843,-0.264583 0.379651,-0.264583 0.208808,0 0.714823,-0.138852 1.124479,-0.308559 0.409656,-0.169707 0.853969,-0.318535 0.987363,-0.330729 0.133394,-0.01219 0.29039,-0.165735 0.348879,-0.341203 0.06937,-0.208099 -0.106968,-0.277453 -0.507118,-0.199453 -2.025879,0.394897 -2.333254,0.422904 -2.333254,0.2126 0,-0.127866 0.772447,-1.531017 1.716549,-3.118113 1.782296,-2.996153 2.146185,-3.781671 1.87669,-4.051165 -0.387936,-0.387936 -1.610882,1.542791 -4.193948,6.621203 -1.001384,1.96876 -1.394329,2.519903 -1.64706,2.310155 -0.182555,-0.151507 -0.342331,-0.541131 -0.355057,-0.865831 -0.06085,-1.552406 -0.445169,-2.145306 -0.946336,-1.459919 -0.376382,0.514733 -0.238575,2.06018 0.183706,2.06018 0.153258,0 0.199016,0.07963 0.101685,0.176966 -0.09733,0.09733 -0.0079,0.365222 0.198819,0.595313 0.410373,0.456852 0.29019,0.796818 -1.250237,3.536588 -0.788193,1.401863 -0.857632,1.633268 -0.40643,1.354409 0.190775,-0.117905 0.233581,-0.07248 0.114009,0.120993 -0.1053,0.170379 -0.302289,0.241279 -0.437755,0.157557 -0.135466,-0.08372 -0.261184,-0.02613 -0.279374,0.127976 -0.01819,0.154109 -0.05468,0.369495 -0.08108,0.478635 -0.02641,0.109141 -0.143527,0.601243 -0.26027,1.09356 -0.129513,0.546171 -0.28805,0.772492 -0.406674,0.580554 -0.120029,-0.19421 -0.398974,0.171939 -0.729047,0.956961 -0.294048,0.699341 -0.970023,1.926373 -1.502167,2.726738 -0.532145,0.800364 -1.108019,1.842161 -1.279721,2.315104 -0.171702,0.472942 -0.403592,0.859895 -0.515313,0.859895 -0.11172,0 -0.136101,0.20836 -0.05418,0.463021 0.103984,0.323247 0.07654,0.362761 -0.09093,0.130897 -0.173615,-0.240384 -0.360649,-0.07885 -0.677115,0.584782 -0.240482,0.504297 -0.934498,1.725315 -1.542256,2.713373 -0.607759,0.988058 -1.266055,2.094125 -1.462881,2.457927 -0.343584,0.635061 -0.357931,0.638324 -0.359496,0.08176 z"
       id="path27482" />
    <path
       style="fill:#586b31"
       d="m 77.905212,85.194801 c 0,-0.170443 -0.195499,-0.52592 -0.434442,-0.78995 -0.367582,-0.406173 -0.418637,-0.999812 -0.331742,-3.857291 0.05649,-1.857481 0.103156,-6.651457 0.103713,-10.653279 l 0.001,-7.276042 -1.165061,-2.248958 C 74.48682,57.296436 73.912599,56.58387 72.573594,56.019716 69.985515,54.929298 69.70313,54.773512 69.70313,54.43614 c 0,-0.569182 0.61134,-0.876858 1.322916,-0.665799 l 0.661458,0.196193 -0.727604,0.02637 c -0.880065,0.0319 -0.932221,0.382215 -0.139566,0.937412 0.745607,0.522243 1.307842,0.528236 0.618163,0.0066 -0.282475,-0.213653 -0.38635,-0.38846 -0.230834,-0.38846 0.155516,0 0.430976,0.178594 0.612133,0.396875 0.181157,0.218281 0.493392,0.396875 0.693855,0.396875 0.200463,0 0.364478,0.126089 0.364478,0.280198 0,0.154109 0.118845,0.206748 0.2641,0.116976 0.47008,-0.290526 1.559009,1.254851 3.064661,4.34928 l 1.47268,3.026662 -0.01656,10.202504 c -0.01986,12.232408 -0.04475,11.173601 0.25822,10.986357 0.136714,-0.08449 0.248571,0.151058 0.248571,0.523448 0,0.37239 -0.05953,0.677073 -0.132292,0.677073 -0.07276,0 -0.132292,-0.139453 -0.132292,-0.309895 z"
       id="path27480" />
    <path
       style="fill:#586b31"
       d="m 77.272062,92.759098 c -0.08833,-0.230183 -0.1606,-1.812298 -0.1606,-3.515812 0,-2.710314 -0.07438,-3.234475 -0.595312,-4.195218 -1.670727,-3.081281 -2.167272,-3.94581 -3.633941,-6.327007 -0.875369,-1.421197 -1.59158,-2.717711 -1.59158,-2.881142 0,-0.163431 -0.290775,-0.570317 -0.646167,-0.904191 -0.624469,-0.586658 -0.703923,-0.595563 -2.366017,-0.265191 -1.376652,0.273634 -2.009716,0.276981 -3.172452,0.01677 -1.34221,-0.300374 -4.361931,-1.974718 -4.779247,-2.649949 -0.270656,-0.437931 0.267052,-0.349683 0.645134,0.105878 0.488787,0.588952 0.852337,0.480737 0.666654,-0.198438 -0.140479,-0.513835 -0.123014,-0.531941 0.127609,-0.132291 0.159701,0.254661 0.492808,0.461197 0.740238,0.458969 0.3804,-0.0034 0.38973,-0.04209 0.06041,-0.25035 -0.333357,-0.210819 -0.323502,-0.271609 0.06841,-0.422001 0.310831,-0.119277 0.728183,0.08857 1.299584,0.647225 0.598956,0.58559 1.094301,0.822927 1.717524,0.822927 0.784108,0 0.873627,-0.07619 0.854926,-0.727604 -0.01149,-0.400182 -0.08094,-0.578776 -0.154341,-0.396875 -0.0734,0.181901 -0.249619,0.330729 -0.391601,0.330729 -0.141983,0 -0.184565,-0.119062 -0.09463,-0.264583 0.09274,-0.15006 -0.129544,-0.264583 -0.513551,-0.264583 -0.372391,0 -0.677074,-0.09355 -0.677074,-0.207887 0,-0.240491 -0.532065,-0.305503 -2.910416,-0.355621 l -1.719792,-0.03624 1.058334,-0.34125 c 2.202303,-0.710114 5.545981,-0.373609 6.791847,0.683526 0.540077,0.458262 0.550899,0.500889 0.08732,0.343919 -0.291042,-0.09855 -0.767292,-0.329789 -1.058333,-0.513869 -0.291042,-0.18408 -1.124479,-0.385548 -1.852084,-0.447705 -0.727604,-0.06216 -0.993234,-0.06156 -0.590289,0.0013 0.421344,0.06575 0.660206,0.231514 0.562179,0.390125 -0.108763,0.175983 0.02896,0.212502 0.380553,0.10091 0.369789,-0.117366 1.043596,0.09919 2.048802,0.658481 0.82379,0.458349 1.41716,0.702883 1.3186,0.54341 -0.09856,-0.159473 -0.05886,-0.289952 0.08823,-0.289952 0.451167,0 -1.161515,-3.091204 -3.320217,-6.364221 -0.34108,-0.517144 -0.620145,-1.06126 -0.620145,-1.209146 0,-0.147886 -0.425772,-0.766301 -0.946159,-1.374257 -0.622766,-0.727562 -0.781024,-1.043352 -0.463021,-0.923917 0.587086,0.220498 0.987435,0.714472 1.567475,1.934042 0.584021,1.22794 2.216747,3.966471 2.760553,4.630208 0.238453,0.291042 0.638241,1.005417 0.888418,1.5875 0.250176,0.582083 0.62698,1.37436 0.837341,1.760615 0.562952,1.033661 0.485335,1.208626 -0.609712,1.374422 -1.827803,0.276739 -3.215931,0.34551 -3.097228,0.153443 0.0647,-0.104678 -0.07354,-0.263681 -0.307187,-0.35334 -0.303524,-0.116473 -0.381003,-0.04885 -0.271368,0.236859 0.203078,0.529214 -0.03945,0.504502 -1.210958,-0.12339 -0.536966,-0.287797 -1.039705,-0.420677 -1.117198,-0.29529 -0.299892,0.485235 1.615384,0.950418 3.822843,0.928492 2.49123,-0.02474 3.428482,-0.361991 3.456463,-1.243724 0.01777,-0.559994 0.02806,-0.562516 0.231885,-0.05684 0.117309,0.291041 0.110428,0.658637 -0.01529,0.816879 -0.141935,0.178651 0.0209,0.522088 0.429573,0.906016 0.361985,0.340067 0.658155,0.705952 0.658155,0.813078 0,0.238364 2.124579,4.026272 2.361829,4.210901 0.0935,0.07276 0.574082,0.929859 1.067965,1.904664 0.493882,0.974805 0.998734,1.710096 1.121892,1.633979 0.123159,-0.07612 0.196907,-0.04025 0.163885,0.07971 -0.03302,0.119957 0.202153,0.719376 0.522611,1.332042 0.507585,0.970425 0.583173,1.532867 0.586702,4.365625 0.0041,3.289089 0.18729,4.153162 0.800199,3.774363 0.253091,-0.156419 0.212092,-0.301775 -0.168856,-0.598659 -0.43191,-0.336601 -0.437582,-0.369501 -0.04008,-0.2325 0.422824,0.145729 0.463295,-0.0981 0.466176,-2.808676 0.0031,-2.904084 0.02302,-3.00258 0.92189,-4.555758 0.505304,-0.873125 1.329264,-2.372199 1.831022,-3.331275 1.083982,-2.07196 1.764539,-2.594838 3.205957,-2.463166 1.321141,0.120685 1.909015,-0.06028 2.060069,-0.634137 0.08836,-0.335702 0.126431,-0.304033 0.149298,0.124205 0.02335,0.437352 -0.198256,0.650353 -0.926787,0.89079 -0.630199,0.207984 -1.014562,0.225247 -1.124479,0.0505 -0.110411,-0.175529 -0.479875,-0.163583 -1.090319,0.03525 -0.773885,0.252071 -1.148584,0.686137 -2.315179,2.681995 -2.341877,4.006579 -2.304451,3.888015 -2.354534,7.459075 -0.02488,1.774158 -0.123108,3.351736 -0.218281,3.505729 -0.263026,0.425585 -1.122701,0.334268 -1.304129,-0.138528 z"
       id="path27472" />
    <path
       style="fill:#212512"
       d="m 68.278845,42.358652 c -0.526331,-0.883554 -0.956965,-1.700377 -0.956965,-1.815161 0,-0.114784 -0.301721,-0.653309 -0.670491,-1.196721 -0.368769,-0.543413 -0.540627,-0.944735 -0.381906,-0.891828 0.282819,0.09427 3.313475,5.510173 3.083409,5.510173 -0.06439,0 -0.547717,-0.722908 -1.074047,-1.606463 z"
       id="path27305" />
    <path
       style="fill:#212512"
       d="m 69.438546,46.978422 c 0,-0.234452 -0.575866,-1.395311 -1.279702,-2.579687 -2.154634,-3.625699 -2.689048,-4.614724 -2.689048,-4.976545 0,-0.191211 0.310663,0.246709 0.690361,0.973156 0.379698,0.726446 1.016545,1.856592 1.415215,2.511436 1.863269,3.060549 2.540568,4.497916 2.119454,4.497916 -0.140954,0 -0.25628,-0.191824 -0.25628,-0.426276 z"
       id="path27304" />
    <path
       style="fill:#212512"
       d="m 82.673012,54.129524 c 0.0071,-0.323102 3.416701,-6.656996 3.426584,-6.365369 0.0071,0.209507 -3.083138,6.248638 -3.324869,6.497661 -0.05886,0.06063 -0.10463,0.0011 -0.101715,-0.132292 z"
       id="path27296" />
    <path
       style="fill:#212512"
       d="m 77.438937,45.386575 c -0.06656,-15.997516 -0.05165,-16.207188 1.093241,-15.370024 0.386028,0.282271 0.438763,0.731009 0.364821,3.104371 l -0.08644,2.774402 -0.0558,-2.844271 c -0.03301,-1.682591 -0.163863,-2.84427 -0.320383,-2.84427 -0.145521,0 -0.35388,-0.02977 -0.463021,-0.06615 -0.10914,-0.03638 -0.259433,6.779947 -0.333983,15.147395 l -0.135547,15.213541 z"
       id="path27288" />
    <path
       style="fill:#212512"
       d="m 75.677084,59.617866 c -1.204653,-2.448369 -2.335164,-3.746501 -3.262733,-3.746501 -0.164308,0 -0.369377,-0.114291 -0.455709,-0.253979 -0.277068,-0.448305 1.557096,0.314811 2.142619,0.891451 0.567825,0.559211 3.125518,5.420822 2.946222,5.600118 -0.05335,0.05335 -0.67003,-1.06764 -1.370399,-2.491089 z"
       id="path27284" />
    <path
       style="fill:#212512"
       d="m 90.411931,62.326451 c 0.08772,-0.08772 0.04734,-0.474677 -0.08974,-0.859896 -0.225337,-0.633242 -0.213468,-0.654485 0.123783,-0.221545 0.20516,0.263369 0.438431,0.373012 0.518381,0.243651 0.07995,-0.129362 0.579026,-1.059221 1.109058,-2.066354 1.525501,-2.898656 1.624322,-2.640231 0.134475,0.351662 -0.742754,1.491588 -1.486586,2.711979 -1.652959,2.711979 -0.166374,0 -0.230724,-0.07177 -0.143001,-0.159497 z"
       id="path27283" />
    <path
       style="fill:#212512"
       d="M 66.397377,67.340902 C 64.837373,64.462945 64.34395,63.648954 63.81528,63.08126 c -0.573531,-0.615865 -0.41714,-0.852684 0.173228,-0.262315 0.508242,0.508242 3.367372,5.542029 3.227341,5.68206 -0.06764,0.06764 -0.435949,-0.45441 -0.818472,-1.160103 z"
       id="path27271" />
    <path
       style="fill:#212512"
       d="m 88.223962,68.676288 c 0,-0.104989 0.340029,-0.737093 0.755621,-1.404677 0.415591,-0.667584 1.195324,-2.01746 1.73274,-2.999726 0.537416,-0.982266 1.094014,-1.785937 1.236885,-1.785937 0.14287,0 -0.15802,0.653101 -0.668644,1.451336 -0.510625,0.798235 -1.285526,2.15878 -1.722001,3.023434 -0.717312,1.420986 -1.334601,2.214484 -1.334601,1.71557 z"
       id="path27270" />
    <path
       style="fill:#212512"
       d="M 69.828289,70.886468 C 68.186249,67.947167 66.871912,65.574925 66.417961,64.731182 66.260272,64.438092 65.863364,63.8244 65.535942,63.367421 65.20852,62.910443 64.94063,62.353599 64.94063,62.12999 c 0,-0.22361 -0.123887,-0.483129 -0.275304,-0.57671 -0.511005,-0.315818 -2.30672,-3.565249 -1.970244,-3.565249 0.0684,0 0.494695,0.656202 0.947329,1.458227 0.452635,0.802025 1.163777,1.779891 1.580315,2.173036 0.416538,0.393146 0.658301,0.77874 0.537251,0.856878 -0.12105,0.07814 0.605748,1.630348 1.615106,3.449359 3.371149,6.075299 4.223919,7.672916 4.095618,7.672916 -0.07005,0 -0.809136,-1.220391 -1.642412,-2.711979 z"
       id="path27264" />
    <path
       style="fill:#212512"
       d="m 83.963815,76.773447 c 0.43457,-0.800365 1.179717,-2.199349 1.655883,-3.108854 0.476166,-0.909505 0.949759,-1.653646 1.05243,-1.653646 0.211119,0 -2.295049,4.636378 -3.023823,5.594033 -0.261039,0.343021 -0.119059,-0.03117 0.31551,-0.831533 z"
       id="path27256" />
    <path
       style="fill:#212512"
       d="m 72.538685,78.136898 c -0.686431,-1.127207 -1.248056,-2.172015 -1.248056,-2.321796 0,-0.149782 -0.291209,-0.545908 -0.647132,-0.88028 -0.617019,-0.579659 -0.724748,-0.593578 -2.315104,-0.299116 -1.968472,0.364473 -3.944907,0.07203 -5.52854,-0.818018 -1.462628,-0.822043 -1.131316,-0.862332 0.433964,-0.05277 1.243905,0.643345 1.457536,0.669644 4.237932,0.521705 l 2.927993,-0.155792 0.577736,0.781429 c 0.317754,0.429785 0.577735,0.854111 0.577735,0.942946 0,0.08884 0.544042,1.057738 1.208983,2.153119 0.664941,1.095381 1.167035,2.03355 1.115764,2.084821 -0.05127,0.05127 -0.654845,-0.82904 -1.341275,-1.956246 z"
       id="path27253" />
    <path
       style="fill:#212512"
       d="M 75.418335,80.80502 C 75.00259,79.920997 73.415594,77.079975 72.020874,74.722926 71.741023,74.249983 71.575593,73.86303 71.653251,73.86303 c 0.302581,0 4.540509,7.62048 4.346063,7.814926 -0.06376,0.06376 -0.325201,-0.32906 -0.580979,-0.872936 z"
       id="path27251" />
    <path
       style="fill:#212512"
       d="m 77.239317,72.490742 c 0.0024,-5.484186 0.08537,-9.770436 0.184278,-9.525 0.229372,0.56915 0.216993,15.798108 -0.01456,17.908746 -0.09579,0.873125 -0.172162,-2.899561 -0.169721,-8.383746 z"
       id="path27250" />
    <path
       style="fill:#212512"
       d="m 78.963546,83.068576 c 0,-0.187605 1.237536,-2.471982 1.976966,-3.649297 0.319887,-0.509323 1.150729,-1.938073 1.846314,-3.175 0.695585,-1.236927 1.388611,-2.36802 1.540057,-2.513541 0.268644,-0.258134 -0.185733,0.594314 -2.185963,4.101041 -2.979525,5.223592 -3.177374,5.549678 -3.177374,5.236797 z"
       id="path27247" />
    <path
       style="fill:#212512"
       d="m 78.482221,89.605738 c -0.04695,-2.767304 0.199348,-4.171088 0.884167,-5.039305 0.330056,-0.418446 0.32147,-0.31529 -0.04506,0.541388 -0.288519,0.674349 -0.514741,2.162289 -0.623512,4.101042 l -0.170706,3.042708 z"
       id="path27238" />
    <path
       style="fill:#212512"
       d="m 77.168357,89.061006 c -0.05618,-3.150437 -0.06884,-3.210335 -1.00703,-4.7625 -0.971062,-1.606555 -1.979514,-3.56902 -1.36873,-2.663573 2.570586,3.810731 2.612918,3.93713 2.516397,7.513604 l -0.08374,3.103034 z"
       id="path27237" />
  </g>
</svg>
