<?xml version="1.0" encoding="UTF-8" standalone="no"?>
<!-- Created with Inkscape (http://www.inkscape.org/) -->

<svg
   width="185"
   height="185"
   viewBox="0 0 48.947914 48.947918"
   version="1.1"
   id="svg1"
   xmlns="http://www.w3.org/2000/svg"
   xmlns:svg="http://www.w3.org/2000/svg">
  <defs
     id="defs1" />
  <g
     id="g28099"
     transform="matrix(0.75583908,0,0,0.75583908,-129.1016,-21.669878)">
    <path
       style="fill:#e6cf45"
       d="m 202.58997,93.111464 c -0.14485,-0.181901 -0.32731,-2.176198 -0.40546,-4.431771 -0.15821,-4.565816 -0.44948,-5.742712 -1.83395,-7.410144 -1.38292,-1.665564 -2.93896,-1.243052 -3.17628,0.862457 -0.27946,2.479318 -2.01191,4.781841 -4.51716,6.003542 -2.42519,1.182661 -7.03536,2.03044 -7.44419,1.368938 -0.18512,-0.299535 0.63636,-2.689835 1.53155,-4.456397 0.89948,-1.775045 2.92588,-3.820489 4.65091,-4.694628 1.40814,-0.713561 5.17534,-1.355923 6.66754,-1.136915 1.0412,0.152815 0.94928,-0.07239 -0.36809,-0.901871 -1.5463,-0.973623 -2.27798,-1.105505 -3.64981,-0.657861 -4.5484,1.484206 -8.10818,1.193289 -11.25877,-0.920105 -1.08863,-0.730244 -4.86855,-4.600244 -4.86855,-4.98457 0,-0.349133 2.50783,-1.305741 4.94851,-1.887602 2.06032,-0.491181 2.60576,-0.523509 4.7511,-0.281595 1.59747,0.180137 2.91656,0.506513 3.8699,0.957513 1.59341,0.753806 3.71723,2.837312 4.2903,4.208865 0.2011,0.481301 0.84627,1.193156 1.4337,1.5819 1.22638,0.811578 1.34399,0.8414 1.34399,0.340791 0,-0.336058 0.74884,-0.679929 1.49977,-0.688704 0.17003,-0.002 0.56794,0.415109 0.88423,0.926881 0.47818,0.773721 0.52872,1.063477 0.29992,1.719791 -0.1674,0.480213 -0.17693,0.789298 -0.0243,0.789298 0.13795,0 0.25082,0.155837 0.25082,0.346305 0,0.190468 0.15208,0.554283 0.33795,0.808478 0.30702,0.419872 0.34915,0.39423 0.46031,-0.28016 0.0673,-0.408282 0.0935,-1.982624 0.0582,-3.498538 -0.0561,-2.407966 -0.14924,-2.9013 -0.7372,-3.904566 -0.87509,-1.493227 -1.50918,-1.880845 -3.43175,-2.097802 -2.4449,-0.275901 -4.13625,-1.017127 -5.51731,-2.417927 -0.67337,-0.683 -1.22431,-1.325364 -1.22431,-1.427476 0,-0.102112 -0.44649,-0.06206 -0.99219,0.08901 -2.33452,0.646272 -6.15982,-0.452541 -8.16503,-2.345401 -1.36859,-1.291908 -4.06434,-5.237798 -3.76073,-5.504743 0.0471,-0.04142 0.7405,-0.262616 1.54086,-0.491546 3.37321,-0.964847 7.08543,-0.791826 8.60175,0.400916 0.51721,0.406831 0.77326,0.470947 0.99504,0.249162 0.88329,-0.883294 5.06186,0.195621 7.40171,1.911138 2.4289,1.780807 3.05205,2.918134 3.93556,7.18294 0.3374,1.62871 1.13182,3.066793 1.35186,2.447191 0.0646,-0.181789 0.10703,-2.337653 0.0944,-4.79081 l -0.023,-4.460286 -1.43019,-1.315252 c -2.42876,-2.233567 -2.32841,-2.199592 -6.49678,-2.199592 -3.69771,0 -3.72244,-0.004 -5.40943,-0.884448 -1.88933,-0.986 -3.82727,-2.832657 -5.16146,-4.918324 -1.42676,-2.230382 -1.43464,-2.448136 -0.10256,-2.831167 0.62586,-0.17996 2.45355,-0.335006 4.06154,-0.344547 2.87902,-0.01708 2.9554,-0.0016 5.00696,1.01204 2.49517,1.232869 4.09857,2.79235 5.08858,4.949187 0.57569,1.254198 1.09281,1.863571 2.58162,3.042159 l 1.86172,1.473805 0.0752,-2.813513 c 0.0705,-2.638359 0.0302,-2.896316 -0.64869,-4.143596 -0.81824,-1.503389 -1.39908,-1.877515 -3.65988,-2.357409 -4.09451,-0.86913 -6.26321,-2.704905 -7.70181,-6.519482 -0.71637,-1.899516 -1.47197,-5.581298 -1.18219,-5.760394 0.22553,-0.139384 2.46719,0.316943 4.1215,0.838996 1.41597,0.44684 3.68669,1.793369 4.4105,2.615408 1.37866,1.565761 2.76053,4.841974 2.94699,6.986923 0.0684,0.786337 1.1709,2.378321 1.64713,2.378321 0.0644,0 0.08,-1.293147 0.0347,-2.873658 l -0.0823,-2.873659 -1.11737,-1.325141 c -1.31033,-1.553966 -2.15488,-3.591539 -2.14182,-5.167359 0.0239,-2.881154 1.22438,-5.90214 3.31073,-8.331197 l 0.80649,-0.938962 0.80071,1.031551 c 3.61375,4.655582 3.99398,9.659077 1.02461,13.483039 l -1.18934,1.53163 0.003,2.930315 0.003,2.930316 0.72467,-0.913766 c 0.42035,-0.530029 0.91887,-1.696705 1.1871,-2.778125 0.74227,-2.992616 2.10953,-5.505545 3.57767,-6.575543 1.75912,-1.282061 3.64714,-2.181365 5.39605,-2.570248 2.17581,-0.483809 2.27948,-0.394488 2.04823,1.76471 -0.31099,2.903728 -1.5874,5.647421 -3.45188,7.419981 -1.04687,0.99525 -2.96728,1.919188 -4.0061,1.927388 -1.85084,0.01461 -3.77845,1.412794 -4.85397,3.520808 -0.57728,1.131453 -0.63794,1.544725 -0.57065,3.887618 l 0.0753,2.621579 1.60081,-1.506368 c 0.9696,-0.912403 1.90433,-2.115772 2.37059,-3.05189 0.91483,-1.836708 3.13083,-3.968883 5.02444,-4.834366 1.69747,-0.775842 4.62435,-1.243633 6.48229,-1.03604 2.21081,0.24702 4.23333,0.68244 4.23333,0.911375 0,0.112643 -0.49097,0.964437 -1.09105,1.892877 -1.44191,2.230915 -3.81129,4.516046 -5.56338,5.365575 -1.76758,0.857031 -4.85037,1.370009 -5.8802,0.978467 -1.72837,-0.657123 -3.30616,-0.142672 -5.35037,1.744522 -1.71463,1.582924 -1.8144,1.921953 -1.95875,6.655859 l -0.13229,4.338572 0.82679,-0.957589 c 0.60397,-0.699521 0.85944,-1.297412 0.94795,-2.218541 0.15722,-1.636184 1.65491,-4.667123 2.94429,-5.958495 1.26821,-1.270153 3.17581,-2.167379 5.48578,-2.580195 2.08903,-0.373329 2.75232,-0.219738 2.54099,0.588392 -0.13892,0.53123 -0.10956,0.526249 0.56529,-0.09589 1.16254,-1.071733 2.83428,-1.570545 5.33553,-1.592006 2.4431,-0.02096 4.12731,0.334068 5.02216,1.058666 l 0.56782,0.459798 -0.86401,1.322686 c -1.14636,1.754924 -3.66685,4.222574 -5.01601,4.910866 -1.25579,0.640655 -4.06009,1.255511 -5.80674,1.273153 -1.00776,0.01018 -1.37077,0.165253 -2.18545,0.933591 -1.46496,1.381638 -3.97605,2.511558 -5.99876,2.699278 -3.79107,0.351833 -4.23334,1.082208 -4.23334,6.991109 v 4.07345 l 0.53051,-1.040563 c 0.40344,-0.791319 0.49223,-1.32917 0.37067,-2.245468 -0.21038,-1.585973 0.26924,-3.356381 0.9695,-3.578635 0.8026,-0.254735 1.26773,0.305918 1.35683,1.635474 l 0.0798,1.190536 1.25126,-1.151118 c 0.68819,-0.633114 1.59179,-1.684357 2.008,-2.336095 1.01073,-1.58268 2.7409,-3.270408 3.93217,-3.835701 2.75997,-1.309692 6.79448,-1.581465 9.74191,-0.656236 2.49,0.781638 4.36562,1.597921 4.36562,1.899949 0,0.136189 -0.11906,0.174031 -0.26458,0.08409 -0.14552,-0.08994 -0.26459,-0.0039 -0.26459,0.191105 0,0.438699 -2.62873,3.024671 -4.22524,4.156516 -1.66446,1.180015 -3.27804,1.842683 -5.35348,2.198581 -1.59436,0.273403 -2.05737,0.242877 -4.24144,-0.279637 -1.34844,-0.322598 -2.731,-0.584626 -3.07234,-0.582283 -1.02962,0.0071 -3.72777,1.672238 -3.21905,1.986642 0.1535,0.09487 1.49694,0.198985 2.98543,0.231371 2.36894,0.05154 2.87126,0.14763 4.02925,0.770732 2.76158,1.485977 4.16969,3.291785 5.43535,6.9705 0.28085,0.816301 0.43559,1.605603 0.34387,1.754006 -0.25022,0.404869 -3.90319,0.0472 -5.93404,-0.581014 -3.08135,-0.953171 -4.76082,-2.614611 -5.67017,-5.609294 -0.60424,-1.989903 -0.74827,-2.200171 -1.57416,-2.298033 -0.87859,-0.104108 -2.02812,0.884916 -2.86838,2.467891 -0.50186,0.945458 -0.56414,1.510398 -0.58399,5.296936 -0.0122,2.331232 -0.11273,4.38506 -0.22336,4.564062 -0.25921,0.419417 -0.8261,0.416846 -1.16223,-0.0053 z"
       id="path28095" />
    <path
       style="fill:#8e6a8e"
       d="m 202.58997,93.111464 c -0.14485,-0.181901 -0.32731,-2.176198 -0.40546,-4.431771 -0.15821,-4.565816 -0.44948,-5.742712 -1.83395,-7.410144 -1.38292,-1.665564 -2.93896,-1.243052 -3.17628,0.862457 -0.27946,2.479318 -2.01191,4.781841 -4.51716,6.003542 -2.42519,1.182661 -7.03536,2.03044 -7.44419,1.368938 -0.18512,-0.299535 0.63636,-2.689835 1.53155,-4.456397 0.89948,-1.775045 2.92588,-3.820489 4.65091,-4.694628 1.40814,-0.713561 5.17534,-1.355923 6.66754,-1.136915 1.0412,0.152815 0.94928,-0.07239 -0.36809,-0.901871 -1.5463,-0.973623 -2.27798,-1.105505 -3.64981,-0.657861 -4.5484,1.484206 -8.10818,1.193289 -11.25877,-0.920105 -1.08863,-0.730244 -4.86855,-4.600244 -4.86855,-4.98457 0,-0.349133 2.50783,-1.305741 4.94851,-1.887602 2.06032,-0.491181 2.60576,-0.523509 4.7511,-0.281595 1.59747,0.180137 2.91656,0.506513 3.8699,0.957513 1.59341,0.753806 3.71723,2.837312 4.2903,4.208865 0.2011,0.481301 0.84627,1.193156 1.4337,1.5819 1.22638,0.811578 1.34399,0.8414 1.34399,0.340791 0,-0.336058 0.74884,-0.679929 1.49977,-0.688704 0.17003,-0.002 0.56794,0.415109 0.88423,0.926881 0.47818,0.773721 0.52872,1.063477 0.29992,1.719791 -0.1674,0.480213 -0.17693,0.789298 -0.0243,0.789298 0.13795,0 0.25082,0.155837 0.25082,0.346305 0,0.190468 0.15208,0.554283 0.33795,0.808478 0.30702,0.419872 0.34915,0.39423 0.46031,-0.28016 0.0673,-0.408282 0.0935,-1.982624 0.0582,-3.498538 -0.0561,-2.407966 -0.14924,-2.9013 -0.7372,-3.904566 -0.87509,-1.493227 -1.50918,-1.880845 -3.43175,-2.097802 -2.4449,-0.275901 -4.13625,-1.017127 -5.51731,-2.417927 -0.67337,-0.683 -1.22431,-1.325364 -1.22431,-1.427476 0,-0.102112 -0.44649,-0.06206 -0.99219,0.08901 -2.33452,0.646272 -6.15982,-0.452541 -8.16503,-2.345401 -1.36859,-1.291908 -4.06434,-5.237798 -3.76073,-5.504743 0.0471,-0.04142 0.7405,-0.262616 1.54086,-0.491546 3.37321,-0.964847 7.08543,-0.791826 8.60175,0.400916 0.51721,0.406831 0.77326,0.470947 0.99504,0.249162 0.88329,-0.883294 5.06186,0.195621 7.40171,1.911138 2.4289,1.780807 3.05205,2.918134 3.93556,7.18294 0.3374,1.62871 1.13182,3.066793 1.35186,2.447191 0.0646,-0.181789 0.10703,-2.337653 0.0944,-4.79081 l -0.023,-4.460286 -1.43019,-1.315252 c -2.42876,-2.233567 -2.32841,-2.199592 -6.49678,-2.199592 -3.69771,0 -3.72244,-0.004 -5.40943,-0.884448 -1.88933,-0.986 -3.82727,-2.832657 -5.16146,-4.918324 -1.42676,-2.230382 -1.43464,-2.448136 -0.10256,-2.831167 0.62586,-0.17996 2.45355,-0.335006 4.06154,-0.344547 2.87902,-0.01708 2.9554,-0.0016 5.00696,1.01204 2.49517,1.232869 4.09857,2.79235 5.08858,4.949187 0.57569,1.254198 1.09281,1.863571 2.58162,3.042159 l 1.86172,1.473805 0.0752,-2.813513 c 0.0705,-2.638359 0.0302,-2.896316 -0.64869,-4.143596 -0.81824,-1.503389 -1.39908,-1.877515 -3.65988,-2.357409 -4.09451,-0.86913 -6.26321,-2.704905 -7.70181,-6.519482 -0.71637,-1.899516 -1.47197,-5.581298 -1.18219,-5.760394 0.22553,-0.139384 2.46719,0.316943 4.1215,0.838996 1.41597,0.44684 3.68669,1.793369 4.4105,2.615408 1.37866,1.565761 2.76053,4.841974 2.94699,6.986923 0.0684,0.786337 1.1709,2.378321 1.64713,2.378321 0.0644,0 0.08,-1.293147 0.0347,-2.873658 l -0.0823,-2.873659 -1.11737,-1.325141 c -1.31033,-1.553966 -2.15488,-3.591539 -2.14182,-5.167359 0.0239,-2.881154 1.22438,-5.90214 3.31073,-8.331197 l 0.80649,-0.938962 0.80071,1.031551 c 3.61375,4.655582 3.99398,9.659077 1.02461,13.483039 l -1.18934,1.53163 0.003,2.930315 0.003,2.930316 0.72467,-0.913766 c 0.42035,-0.530029 0.91887,-1.696705 1.1871,-2.778125 0.74227,-2.992616 2.10953,-5.505545 3.57767,-6.575543 1.75912,-1.282061 3.64714,-2.181365 5.39605,-2.570248 2.17581,-0.483809 2.27948,-0.394488 2.04823,1.76471 -0.31099,2.903728 -1.5874,5.647421 -3.45188,7.419981 -1.04687,0.99525 -2.96728,1.919188 -4.0061,1.927388 -1.85084,0.01461 -3.77845,1.412794 -4.85397,3.520808 -0.57728,1.131453 -0.63794,1.544725 -0.57065,3.887618 l 0.0753,2.621579 1.7198,-1.59739 c 0.94588,-0.878565 1.72662,-1.675493 1.73496,-1.770952 0.0701,-0.801496 1.50574,-2.936299 2.72601,-4.053511 3.12955,-2.865226 6.7395,-3.630002 12.14163,-2.572229 0.76398,0.149594 1.38906,0.36415 1.38906,0.476793 0,0.112643 -0.49097,0.964437 -1.09105,1.892877 -1.44191,2.230915 -3.81129,4.516046 -5.56338,5.365575 -1.76758,0.857031 -4.85037,1.370009 -5.8802,0.978467 -1.72837,-0.657123 -3.30616,-0.142672 -5.35037,1.744522 -1.71463,1.582924 -1.8144,1.921953 -1.95875,6.655859 l -0.13229,4.338572 0.82679,-0.957589 c 0.60397,-0.699521 0.85944,-1.297412 0.94795,-2.218541 0.15722,-1.636184 1.65491,-4.667123 2.94429,-5.958495 1.26821,-1.270153 3.17581,-2.167379 5.48578,-2.580195 2.08903,-0.373329 2.75232,-0.219738 2.54099,0.588392 -0.13892,0.53123 -0.10956,0.526249 0.56529,-0.09589 1.16254,-1.071733 2.83428,-1.570545 5.33553,-1.592006 2.4431,-0.02096 4.12731,0.334068 5.02216,1.058666 l 0.56782,0.459798 -0.86401,1.322686 c -1.14636,1.754924 -3.66685,4.222574 -5.01601,4.910866 -1.25579,0.640655 -4.06009,1.255511 -5.80674,1.273153 -1.00776,0.01018 -1.37077,0.165253 -2.18545,0.933591 -1.46496,1.381638 -3.97605,2.511558 -5.99876,2.699278 -3.79107,0.351833 -4.23334,1.082208 -4.23334,6.991109 v 4.07345 l 0.53051,-1.040563 c 0.40344,-0.791319 0.49223,-1.32917 0.37067,-2.245468 -0.21038,-1.585973 0.26924,-3.356381 0.9695,-3.578635 0.8026,-0.254735 1.26773,0.305918 1.35683,1.635474 l 0.0798,1.190536 1.25126,-1.151118 c 0.68819,-0.633114 1.59179,-1.684357 2.008,-2.336095 1.01073,-1.58268 2.7409,-3.270408 3.93217,-3.835701 2.75997,-1.309692 6.79448,-1.581465 9.74191,-0.656236 2.49,0.781638 4.36562,1.597921 4.36562,1.899949 0,0.136189 -0.11906,0.174031 -0.26458,0.08409 -0.14552,-0.08994 -0.26459,-0.0039 -0.26459,0.191105 0,0.438699 -2.62873,3.024671 -4.22524,4.156516 -1.66446,1.180015 -3.27804,1.842683 -5.35348,2.198581 -1.59436,0.273403 -2.05737,0.242877 -4.24144,-0.279637 -1.34844,-0.322598 -2.731,-0.584626 -3.07234,-0.582283 -1.02962,0.0071 -3.72777,1.672238 -3.21905,1.986642 0.1535,0.09487 1.49694,0.198985 2.98543,0.231371 2.36894,0.05154 2.87126,0.14763 4.02925,0.770732 2.76158,1.485977 4.16969,3.291785 5.43535,6.9705 0.28085,0.816301 0.43559,1.605603 0.34387,1.754006 -0.25022,0.404869 -3.90319,0.0472 -5.93404,-0.581014 -3.08135,-0.953171 -4.76082,-2.614611 -5.67017,-5.609294 -0.60424,-1.989903 -0.74827,-2.200171 -1.57416,-2.298033 -0.87859,-0.104108 -2.02812,0.884916 -2.86838,2.467891 -0.50186,0.945458 -0.56414,1.510398 -0.58399,5.296936 -0.0122,2.331232 -0.11273,4.38506 -0.22336,4.564062 -0.25921,0.419417 -0.8261,0.416846 -1.16223,-0.0053 z"
       id="path28079" />
    <path
       style="fill:#a7a932"
       d="m 202.54914,92.956202 c -0.12838,-0.242026 -0.28053,-2.285516 -0.33812,-4.541089 -0.11649,-4.562747 -0.38589,-5.510919 -2.13748,-7.523114 l -0.90602,-1.040822 -0.89615,0.523378 c -0.72716,0.424683 -0.93371,0.743426 -1.09535,1.690294 -0.43273,2.534838 -2.15345,4.90556 -4.41308,6.080128 -1.06345,0.552782 -4.02616,1.316687 -5.81901,1.50037 l -1.69847,0.174014 0.14906,-1.11132 c 0.20251,-1.509831 1.80036,-4.702606 2.96174,-5.91806 2.39924,-2.51094 4.31794,-3.315911 8.08538,-3.392138 1.30798,-0.02646 2.37815,-0.150037 2.37815,-0.274605 0,-0.299038 -1.90311,-1.49236 -2.69831,-1.691942 -0.34408,-0.08636 -1.79576,0.147014 -3.22595,0.518608 -5.44451,1.414604 -8.56494,0.52688 -12.66272,-3.602384 -1.27331,-1.283091 -2.3151,-2.430732 -2.3151,-2.550312 0,-0.498068 4.03862,-1.860579 6.74687,-2.276193 1.87333,-0.287486 5.04002,0.241863 6.88735,1.1513 1.83389,0.902823 4.01588,3.08499 4.26152,4.26188 0.0884,0.423645 0.56946,0.945513 1.29408,1.403943 l 1.15333,0.729654 0.54405,-0.544048 c 0.70049,-0.700487 1.18326,-0.687279 1.87381,0.05127 0.41138,0.439975 0.53704,0.87147 0.48158,1.653646 -0.0619,0.872334 0.57576,2.778125 0.92948,2.778125 0.15762,0 0.21804,-0.688297 0.30192,-3.439583 0.0712,-2.334434 -0.002,-2.979817 -0.4559,-4.041002 -0.7901,-1.845742 -1.64834,-2.448373 -3.98095,-2.795306 -2.72475,-0.405256 -4.11004,-1.068087 -5.52773,-2.644898 -1.20212,-1.337046 -1.21353,-1.342476 -2.23126,-1.061467 -2.3199,0.640554 -5.68766,-0.405235 -7.93597,-2.464351 -1.09422,-1.002136 -3.81302,-4.73284 -3.81302,-5.23217 0,-0.243187 3.23864,-1.011957 4.97917,-1.181929 2.04131,-0.199345 4.36153,0.303446 5.67784,1.230388 0.31724,0.223393 0.53276,0.242011 0.66146,0.05714 0.54688,-0.785546 4.14745,-0.08729 6.36744,1.234828 1.27905,0.761742 3.16203,2.559747 3.64678,3.482209 0.41098,0.782083 1.49738,5.491349 1.31004,5.678693 -0.14718,0.147173 0.94121,1.387863 1.21749,1.387863 0.29634,0 0.27617,-8.544714 -0.022,-9.309338 -0.30111,-0.772231 -1.52673,-2.017236 -2.96885,-3.015812 -1.10231,-0.76328 -1.15527,-0.771724 -4.84038,-0.771724 H 190.75 l -1.69916,-0.921019 c -2.1039,-1.140402 -3.97016,-3.006661 -5.38033,-5.380329 -1.22427,-2.060763 -1.19157,-2.142552 0.98142,-2.454238 2.57325,-0.369099 5.74689,-0.186212 7.29753,0.420534 2.87359,1.1244 5.49208,3.559412 6.15685,5.725429 0.18361,0.598258 0.72614,1.285965 1.49313,1.892687 0.6626,0.524145 1.59168,1.310188 2.06462,1.746762 l 0.8599,0.79377 V 57.01198 c 0,-2.945729 -0.17317,-3.72403 -1.14924,-5.165407 -0.49565,-0.731919 -2.82967,-1.793659 -3.95392,-1.798623 -0.96161,-0.0042 -3.25324,-1.207794 -4.51601,-2.371767 -1.12169,-1.033941 -2.06394,-2.618696 -2.59978,-4.372523 -0.48844,-1.598692 -1.1933,-5.178418 -1.03788,-5.271043 0.088,-0.05243 0.99339,0.07255 2.01203,0.277725 2.41297,0.486026 5.41035,1.960776 6.49422,3.195241 1.23957,1.411787 2.58993,4.438611 2.80221,6.281121 0.15073,1.308203 0.33196,1.7234 1.07788,2.469316 l 0.89669,0.896688 -0.0907,-3.024868 -0.0907,-3.024868 -0.97943,-1.144245 c -1.98856,-2.323189 -2.66826,-4.827312 -2.01914,-7.438885 0.19388,-0.780046 0.36359,-1.477796 0.37713,-1.550557 0.18668,-1.003258 1.76961,-3.689162 2.93659,-4.982783 l 0.55674,-0.617158 0.96334,1.31232 c 0.52983,0.721777 1.35086,2.130591 1.8245,3.1307 0.76229,1.609567 0.86102,2.076638 0.85982,4.067338 -0.002,2.830421 -0.35402,3.963681 -1.84911,5.947919 l -1.19224,1.582295 9.9e-4,3.047913 9.9e-4,3.047914 0.50648,-0.830616 c 0.27857,-0.456838 0.6494,-0.878255 0.82408,-0.936481 0.17468,-0.05823 0.42753,-0.806894 0.56189,-1.663707 0.34504,-2.200238 1.67444,-5.102833 2.93545,-6.409196 1.29989,-1.346637 3.47548,-2.53924 5.65935,-3.102307 2.63202,-0.678611 2.56434,-0.721407 2.41985,1.530143 -0.16383,2.552742 -1.6168,5.775793 -3.30546,7.332353 -1.25608,1.157809 -3.15361,2.092073 -4.26774,2.101247 -1.67989,0.01383 -3.64426,1.454942 -4.78171,3.507966 -0.46737,0.843573 -0.55417,1.451656 -0.55417,3.882408 v 2.882172 l 1.73184,-1.681434 c 1.065,-1.034006 2.03994,-2.298009 2.53201,-3.282738 0.80714,-1.615237 2.74812,-3.606297 4.33511,-4.446975 1.46359,-0.775309 3.4192,-1.125599 6.21771,-1.113719 2.97357,0.01262 4.57297,0.378353 4.70673,1.076275 0.0456,0.238091 -0.6673,1.425683 -1.58428,2.639094 -3.23155,4.276192 -6.81073,5.8662 -11.52555,5.120088 -1.56994,-0.24844 -2.17503,-0.03795 -3.8774,1.348792 -2.27658,1.854487 -2.48195,2.43871 -2.58298,7.347874 l -0.0855,4.15331 0.81499,-0.864617 c 0.59028,-0.62623 0.8647,-1.229118 0.9953,-2.18665 0.25927,-1.900981 1.75828,-4.881438 3.10682,-6.177233 2.21755,-2.13082 8.27874,-3.575076 7.83185,-1.866168 -0.17485,0.668617 0.0353,0.636041 0.61001,-0.09454 0.25881,-0.329013 1.08864,-0.820468 1.84409,-1.092123 2.25682,-0.811539 7.69523,-0.335278 8.79285,0.770021 0.22482,0.226399 -0.83097,1.94744 -2.2207,3.619949 -2.17459,2.617066 -4.60827,3.739283 -8.76893,4.043524 -1.5548,0.113692 -1.90965,0.238034 -2.51354,0.880753 -1.49243,1.588395 -5.46811,3.197658 -7.11978,2.881921 -0.96127,-0.183758 -2.11807,0.586451 -2.69939,1.797284 -0.42141,0.877744 -0.51518,1.712971 -0.54953,4.894792 -0.0511,4.735123 -0.0779,4.525421 0.45543,3.571875 0.308,-0.550733 0.44926,-1.449598 0.46139,-2.935897 0.019,-2.328171 0.32604,-3.017228 1.34448,-3.017228 0.68518,0 0.92195,0.447236 0.92195,1.741431 0,0.497421 0.0893,0.902193 0.19844,0.899494 0.26961,-0.0067 2.50472,-2.44568 3.87177,-4.224967 2.18432,-2.843008 4.41439,-3.936702 8.51123,-4.174164 2.25948,-0.130965 4.87745,0.410337 7.55462,1.562028 1.47676,0.635286 1.54647,0.453856 -1.25355,3.263003 -1.21009,1.214037 -2.58668,2.267047 -3.83646,2.93466 l -1.94917,1.041223 -3.04271,-0.01283 c -1.80578,-0.0076 -3.74185,-0.181065 -4.7625,-0.426673 -1.61516,-0.388667 -1.77613,-0.38441 -2.64583,0.06997 -0.50933,0.266101 -1.21013,0.708958 -1.55735,0.984126 -0.94531,0.749157 -0.32958,0.969714 2.74797,0.984334 2.31769,0.01101 2.80997,0.09775 3.96929,0.699383 0.7279,0.377748 1.94009,1.338819 2.69376,2.135713 1.36742,1.445846 1.80261,2.225535 2.7581,4.941466 0.62935,1.788908 0.45737,1.949396 -1.88052,1.754889 -5.51494,-0.45883 -8.66257,-2.749198 -9.53288,-6.936579 -0.23392,-1.125489 -0.41527,-1.417163 -1.04273,-1.677063 -0.66417,-0.275108 -0.86298,-0.238154 -1.58311,0.29426 -0.45296,0.334884 -1.14317,1.149094 -1.53382,1.809355 -0.68975,1.165802 -0.7113,1.328628 -0.74598,5.637419 -0.0197,2.440319 -0.11621,4.517437 -0.21459,4.615818 -0.35806,0.358056 -0.96884,0.283515 -1.19671,-0.146048 z"
       id="path28048" />
    <path
       style="fill:#719846"
       d="m 202.54914,92.956202 c -0.12838,-0.242026 -0.28053,-2.285516 -0.33812,-4.541089 -0.11649,-4.562747 -0.38589,-5.510919 -2.13748,-7.523114 l -0.90602,-1.040822 -0.89615,0.523378 c -0.72716,0.424683 -0.93371,0.743426 -1.09535,1.690294 -0.43273,2.534838 -2.15345,4.90556 -4.41308,6.080128 -1.06345,0.552782 -4.02616,1.316687 -5.81901,1.50037 l -1.69847,0.174014 0.14906,-1.11132 c 0.20251,-1.509831 1.80036,-4.702606 2.96174,-5.91806 2.39924,-2.51094 4.31794,-3.315911 8.08538,-3.392138 1.30798,-0.02646 2.37815,-0.150037 2.37815,-0.274605 0,-0.299038 -1.90311,-1.49236 -2.69831,-1.691942 -0.34408,-0.08636 -1.79576,0.147014 -3.22595,0.518608 -5.44451,1.414604 -8.56494,0.52688 -12.66272,-3.602384 -1.27331,-1.283091 -2.3151,-2.430732 -2.3151,-2.550312 0,-0.498068 4.03862,-1.860579 6.74687,-2.276193 1.87333,-0.287486 5.04002,0.241863 6.88735,1.1513 1.83389,0.902823 4.01588,3.08499 4.26152,4.26188 0.0884,0.423645 0.56946,0.945513 1.29408,1.403943 l 1.15333,0.729654 0.54405,-0.544048 c 0.70049,-0.700487 1.18326,-0.687279 1.87381,0.05127 0.41138,0.439975 0.53704,0.87147 0.48158,1.653646 -0.0619,0.872334 0.57576,2.778125 0.92948,2.778125 0.15762,0 0.21804,-0.688297 0.30192,-3.439583 0.0712,-2.334434 -0.002,-2.979817 -0.4559,-4.041002 -0.7901,-1.845742 -1.64834,-2.448373 -3.98095,-2.795306 -2.72475,-0.405256 -4.11004,-1.068087 -5.52773,-2.644898 -1.20212,-1.337046 -1.21353,-1.342476 -2.23126,-1.061467 -2.3199,0.640554 -5.68766,-0.405235 -7.93597,-2.464351 -1.09422,-1.002136 -3.81302,-4.73284 -3.81302,-5.23217 0,-0.243187 3.23864,-1.011957 4.97917,-1.181929 2.04131,-0.199345 4.36153,0.303446 5.67784,1.230388 0.31724,0.223393 0.53276,0.242011 0.66146,0.05714 0.54688,-0.785546 4.14745,-0.08729 6.36744,1.234828 1.27905,0.761742 3.16203,2.559747 3.64678,3.482209 0.41098,0.782083 1.49738,5.491349 1.31004,5.678693 -0.14718,0.147173 0.94121,1.387863 1.21749,1.387863 0.29634,0 0.27617,-8.544714 -0.022,-9.309338 -0.30111,-0.772231 -1.52673,-2.017236 -2.96885,-3.015812 -1.10231,-0.76328 -1.15527,-0.771724 -4.84038,-0.771724 H 190.75 l -1.69916,-0.921019 c -2.1039,-1.140402 -3.97016,-3.006661 -5.38033,-5.380329 -1.22427,-2.060763 -1.19157,-2.142552 0.98142,-2.454238 2.57325,-0.369099 5.74689,-0.186212 7.29753,0.420534 2.87359,1.1244 5.49208,3.559412 6.15685,5.725429 0.18361,0.598258 0.72614,1.285965 1.49313,1.892687 0.6626,0.524145 1.59168,1.310188 2.06462,1.746762 l 0.8599,0.79377 V 57.01198 c 0,-2.945729 -0.17317,-3.72403 -1.14924,-5.165407 -0.49565,-0.731919 -2.82967,-1.793659 -3.95392,-1.798623 -0.96161,-0.0042 -3.25324,-1.207794 -4.51601,-2.371767 -1.12169,-1.033941 -2.06394,-2.618696 -2.59978,-4.372523 -0.48844,-1.598692 -1.1933,-5.178418 -1.03788,-5.271043 0.088,-0.05243 0.99339,0.07255 2.01203,0.277725 2.41297,0.486026 5.41035,1.960776 6.49422,3.195241 1.23957,1.411787 2.58993,4.438611 2.80221,6.281121 0.15073,1.308203 0.33196,1.7234 1.07788,2.469316 l 0.89669,0.896688 -0.0907,-3.024868 -0.0907,-3.024868 -0.97943,-1.144245 c -1.98856,-2.323189 -2.66826,-4.827312 -2.01914,-7.438885 0.19388,-0.780046 0.36359,-1.477796 0.37713,-1.550557 0.18668,-1.003258 1.76961,-3.689162 2.93659,-4.982783 l 0.55674,-0.617158 0.96334,1.31232 c 0.52983,0.721777 1.35086,2.130591 1.8245,3.1307 0.76229,1.609567 0.86102,2.076638 0.85982,4.067338 -0.002,2.830421 -0.35402,3.963681 -1.84911,5.947919 l -1.19224,1.582295 9.9e-4,3.047913 9.9e-4,3.047914 0.50648,-0.830616 c 0.27857,-0.456838 0.6494,-0.878255 0.82408,-0.936481 0.17468,-0.05823 0.42753,-0.806894 0.56189,-1.663707 0.34504,-2.200238 1.67444,-5.102833 2.93545,-6.409196 1.29989,-1.346637 3.47548,-2.53924 5.65935,-3.102307 2.63202,-0.678611 2.56434,-0.721407 2.41985,1.530143 -0.16383,2.552742 -1.6168,5.775793 -3.30546,7.332353 -1.25608,1.157809 -3.15361,2.092073 -4.26774,2.101247 -1.67989,0.01383 -3.64426,1.454942 -4.78171,3.507966 -0.46737,0.843573 -0.55417,1.451656 -0.55417,3.882408 v 2.882172 l 1.73184,-1.681434 c 1.065,-1.034006 2.03994,-2.298009 2.53201,-3.282738 0.80714,-1.615237 2.74812,-3.606297 4.33511,-4.446975 1.46359,-0.775309 3.4192,-1.125599 6.21771,-1.113719 2.97357,0.01262 4.57297,0.378353 4.70673,1.076275 0.0456,0.238091 -0.6673,1.425683 -1.58428,2.639094 -3.23155,4.276192 -6.81073,5.8662 -11.52555,5.120088 -1.56994,-0.24844 -2.17503,-0.03795 -3.8774,1.348792 -2.27658,1.854487 -2.48195,2.43871 -2.58298,7.347874 l -0.0855,4.15331 0.81499,-0.864617 c 0.59028,-0.62623 0.8647,-1.229118 0.9953,-2.18665 0.25927,-1.900981 1.75828,-4.881438 3.10682,-6.177233 2.21755,-2.13082 8.27874,-3.575076 7.83185,-1.866168 -0.17485,0.668617 0.0353,0.636041 0.61001,-0.09454 0.25881,-0.329013 1.08864,-0.820468 1.84409,-1.092123 2.25682,-0.811539 7.69523,-0.335278 8.79285,0.770021 0.22482,0.226399 -0.83097,1.94744 -2.2207,3.619949 -2.17459,2.617066 -4.60827,3.739283 -8.76893,4.043524 -1.5548,0.113692 -1.90965,0.238034 -2.51354,0.880753 -1.49243,1.588395 -5.46811,3.197658 -7.11978,2.881921 -0.96127,-0.183758 -2.11807,0.586451 -2.69939,1.797284 -0.42141,0.877744 -0.51518,1.712971 -0.54953,4.894792 -0.0511,4.735123 -0.0779,4.525421 0.45543,3.571875 0.308,-0.550733 0.44926,-1.449598 0.46139,-2.935897 0.019,-2.328171 0.32604,-3.017228 1.34448,-3.017228 0.68518,0 0.92195,0.447236 0.92195,1.741431 0,0.497421 0.0893,0.902193 0.19844,0.899494 0.26961,-0.0067 2.50472,-2.44568 3.87177,-4.224967 2.18432,-2.843008 4.41439,-3.936702 8.51123,-4.174164 2.25948,-0.130965 4.87745,0.410337 7.55462,1.562028 1.47676,0.635286 1.54647,0.453856 -1.25355,3.263003 -1.21009,1.214037 -2.58668,2.267047 -3.83646,2.93466 l -1.94917,1.041223 -3.04271,-0.01283 c -1.80578,-0.0076 -3.74185,-0.181065 -4.7625,-0.426673 -1.61516,-0.388667 -1.77613,-0.38441 -2.64583,0.06997 -0.50933,0.266101 -1.21013,0.708958 -1.55735,0.984126 -0.94531,0.749157 -0.32958,0.969714 2.74797,0.984334 2.31769,0.01101 2.80997,0.09775 3.96929,0.699383 0.7279,0.377748 1.94009,1.338819 2.69376,2.135713 1.36742,1.445846 1.80261,2.225535 2.7581,4.941466 0.62935,1.788908 0.45737,1.949396 -1.88052,1.754889 -5.51494,-0.45883 -8.66257,-2.749198 -9.53288,-6.936579 -0.23392,-1.125489 -0.41527,-1.417163 -1.04273,-1.677063 -0.66417,-0.275108 -0.86298,-0.238154 -1.58311,0.29426 -0.45296,0.334884 -1.14317,1.149094 -1.53382,1.809355 -0.68975,1.165802 -0.7113,1.328628 -0.74598,5.637419 -0.0197,2.440319 -0.11621,4.517437 -0.21459,4.615818 -0.35806,0.358056 -0.96884,0.283515 -1.19671,-0.146048 z"
       id="path28008" />
    <path
       style="fill:#87744f"
       d="m 203.55563,49.621006 c 0.0406,-1.253018 -0.0405,-1.656293 -0.35731,-1.777871 -0.32718,-0.12555 -0.40446,0.04107 -0.38341,0.826638 0.0242,0.903745 0.0455,0.930007 0.26067,0.322425 0.15929,-0.449697 0.19783,-0.02617 0.12039,1.322917 -0.0647,1.126477 -0.0229,1.755704 0.0966,1.455445 0.1158,-0.290912 0.23416,-1.258211 0.26302,-2.149554 z"
       id="path27962" />
    <path
       style="fill:#87744f"
       d="m 180.5067,61.395371 c -1.06308,-1.755166 -1.06306,-1.656457 -2.4e-4,-2.055422 0.58074,-0.218002 2.09049,-0.380677 3.68874,-0.397462 1.83135,-0.01923 2.47257,-0.09741 1.98438,-0.241934 -1.00845,-0.298543 -4.46225,-0.0244 -5.84265,0.463765 -0.63396,0.224191 -1.26776,0.336479 -1.40845,0.249529 -0.14069,-0.08695 0.18082,0.44964 0.71445,1.192421 0.97586,1.358318 1.49678,1.834212 0.86377,0.789103 z"
       id="path27961" />
    <path
       style="fill:#87744f"
       d="m 203.36492,62.506225 c -0.12785,-0.08391 -0.30044,-0.331163 -0.38353,-0.549444 -0.0881,-0.231479 -0.15978,-0.09365 -0.17196,0.330729 -0.0115,0.400182 0.0982,0.727604 0.24369,0.727604 0.16074,0 0.28746,1.427914 0.32286,3.638021 l 0.0583,3.638021 0.0816,-3.816181 c 0.0449,-2.098899 -0.023,-3.884837 -0.1509,-3.96875 z"
       id="path27960" />
    <path
       style="fill:#87744f"
       d="m 200.29272,67.891779 c -0.41952,-2.37104 -1.16568,-4.29833 -1.88946,-4.880412 -0.42897,-0.344981 -0.42256,-0.295916 0.0523,0.400622 0.74857,1.098015 1.31909,2.667134 1.5392,4.233333 0.23204,1.651048 0.44695,2.567318 0.57267,2.441591 0.0531,-0.05313 -0.0705,-1.040938 -0.27471,-2.195134 z"
       id="path27959" />
    <path
       style="fill:#87744f"
       d="m 189.21077,82.915575 c 0.76521,-0.769174 1.87054,-1.61306 2.45628,-1.875304 0.58574,-0.262244 0.99233,-0.549458 0.90353,-0.638253 -0.19317,-0.193169 -1.08844,0.34803 -2.87892,1.740316 -1.33512,1.038207 -2.55661,2.69126 -2.88006,3.897629 -0.0966,0.360447 0.0906,0.119577 0.41609,-0.535267 0.32548,-0.654843 1.21787,-1.819948 1.98308,-2.589121 z"
       id="path27958" />
    <path
       style="fill:#87744f"
       d="m 188.04849,89.073235 c 1.78699,-0.231995 4.29972,-1.099326 5.51524,-1.903718 0.56842,-0.376159 0.97935,-0.738056 0.91319,-0.804217 -0.0662,-0.06616 -0.51506,0.174329 -0.99757,0.534423 -1.08422,0.809165 -3.80249,1.710072 -5.87688,1.947756 -1.54552,0.177086 -1.55876,0.17283 -1.42309,-0.457538 0.0753,-0.349958 0.21937,-0.874411 0.3201,-1.165453 0.10978,-0.317157 0.0321,-0.264154 -0.19395,0.132292 -0.20741,0.363802 -0.45614,0.991908 -0.55274,1.395792 -0.15778,0.659725 -0.11446,0.721677 0.42642,0.609758 0.33112,-0.06852 1.1723,-0.19861 1.86928,-0.289095 z"
       id="path27957" />
    <path
       style="fill:#87744f"
       d="m 203.45351,83.454176 c -0.12945,-6.612937 -0.0984,-9.68232 0.1033,-10.201579 0.15865,-0.408498 0.17993,-0.675647 0.0473,-0.593664 -0.13265,0.08198 -0.29525,-5.09e-4 -0.36134,-0.183317 -0.41231,-1.140629 -0.47136,6.381653 -0.10494,13.370677 0.0518,0.988243 -0.006,1.858473 -0.12754,1.933844 -0.12195,0.07537 -0.20172,1.052747 -0.17725,2.171945 l 0.0445,2.034906 0.17562,-1.5875 0.17563,-1.5875 0.0445,1.89618 c 0.0306,1.304684 -0.0587,1.93781 -0.28625,2.029633 -0.18752,0.07566 -0.11803,0.142497 0.16048,0.15434 0.4731,0.02012 0.48438,-0.328033 0.30605,-9.437965 z"
       id="path27956" />
    <path
       style="fill:#87744f"
       d="m 202.54914,92.956202 c -0.12838,-0.242026 -0.28275,-2.285516 -0.34304,-4.541089 -0.12198,-4.562932 -0.31699,-5.288954 -1.95887,-7.292654 -0.76826,-0.937554 -1.08913,-1.150676 -1.53047,-1.016547 -0.86972,0.26431 -1.48447,0.924181 -1.48447,1.593408 0,2.050879 -2.14256,5.237737 -4.25624,6.330765 -1.28522,0.66461 -4.09375,1.41667 -6.03212,1.615262 l -1.69847,0.174014 0.14906,-1.11132 c 0.41055,-3.060935 3.33076,-6.994929 6.25497,-8.426485 1.27417,-0.62377 1.88023,-0.739085 4.32603,-0.823105 1.56435,-0.05374 2.84427,-0.200111 2.84427,-0.325268 0,-0.125158 -0.62458,-0.626593 -1.38795,-1.114301 l -1.38796,-0.886742 -2.87293,0.746695 c -5.74085,1.492085 -8.77482,0.663999 -12.93814,-3.531315 -1.27331,-1.283091 -2.3151,-2.430732 -2.3151,-2.550312 0,-0.337041 1.53972,-0.992171 3.7122,-1.579488 2.9073,-0.78597 3.87428,-0.884588 6.11517,-0.623655 2.05103,0.238824 5.15341,1.408112 4.88563,1.84139 -0.0782,0.126463 0.24062,0.575575 0.70838,0.998025 l 0.85049,0.768092 -0.7771,-0.859896 c -0.42741,-0.472942 -0.645,-0.859896 -0.48354,-0.859896 0.4662,0 2.72926,2.708614 2.88451,3.452415 0.0884,0.423645 0.56946,0.945513 1.29408,1.403943 l 1.15333,0.729654 0.54405,-0.544048 c 0.70049,-0.700487 1.18326,-0.687279 1.87381,0.05127 0.41138,0.439975 0.53704,0.87147 0.48158,1.653646 -0.0619,0.872334 0.57576,2.778125 0.92948,2.778125 0.15762,0 0.21804,-0.688297 0.30192,-3.439583 0.0712,-2.334434 -0.002,-2.979817 -0.4559,-4.041002 -0.7901,-1.845742 -1.64834,-2.448373 -3.98095,-2.795306 -2.70244,-0.401938 -4.12533,-1.07446 -5.4448,-2.573462 -1.09358,-1.242364 -2.74282,-2.637681 -1.94164,-1.642695 0.30871,0.383399 0.21496,0.451542 -0.83862,0.609537 -2.46977,0.370365 -5.34251,-0.615723 -7.4699,-2.564096 -1.09422,-1.002136 -3.81302,-4.73284 -3.81302,-5.23217 0,-0.243187 3.23864,-1.011957 4.97917,-1.181929 2.04086,-0.1993 4.37656,0.306804 5.6694,1.228458 0.36833,0.262581 0.56894,0.262709 0.9886,6.32e-4 0.73046,-0.456186 1.73198,-0.401763 3.50087,0.190238 2.93827,0.983358 5.5683,3.065179 6.40135,5.067029 0.44108,1.059938 1.02084,3.931256 1.02366,5.069863 0.001,0.40373 0.0635,0.672378 0.13889,0.596995 0.0754,-0.07538 0.30332,0.100309 0.50652,0.390425 0.79158,1.130134 0.90266,0.563289 0.81918,-4.180278 -0.0948,-5.38932 -0.0841,-5.361221 -2.82419,-7.356343 l -1.41842,-1.03277 H 194.49095 190.75 l -1.69916,-0.921019 c -2.1039,-1.140402 -3.97016,-3.006661 -5.38033,-5.380329 -1.22427,-2.060763 -1.19157,-2.142552 0.98142,-2.454238 2.57325,-0.369099 5.74689,-0.186212 7.29753,0.420534 2.81825,1.10275 5.40878,3.476574 6.12259,5.610429 0.16053,0.479897 0.49835,1.110665 0.75071,1.401706 0.25237,0.291042 0.4054,0.707761 0.34009,0.926042 -0.10302,0.344276 -0.0832,0.34567 0.14981,0.01052 0.29141,-0.4192 0.43784,-0.330628 2.3514,1.422257 l 0.8599,0.787693 v -2.931942 c 0,-2.945729 -0.17317,-3.72403 -1.14924,-5.165407 -0.49565,-0.731919 -2.82967,-1.793659 -3.95392,-1.798623 -0.96161,-0.0042 -3.25324,-1.207794 -4.51601,-2.371767 -1.12169,-1.033941 -2.06394,-2.618696 -2.59978,-4.372523 -0.48844,-1.598692 -1.1933,-5.178418 -1.03788,-5.271043 0.41656,-0.248261 4.06631,0.749366 5.75635,1.57345 2.26209,1.103022 3.28427,2.196293 4.55752,4.874476 0.83615,1.758779 0.95003,2.243731 0.95078,4.048638 4.6e-4,1.127786 0.0806,2.05052 0.17799,2.05052 0.0974,0 0.11134,-0.251637 0.0309,-0.559193 -0.13062,-0.499507 -0.0863,-0.5271 0.41558,-0.258519 0.65033,0.348042 1.27908,1.346879 0.84784,1.346879 -0.15064,0 -0.27389,-0.138906 -0.27389,-0.308681 0,-0.169774 -0.0623,-0.246346 -0.13852,-0.170161 -0.21519,0.215182 0.13951,0.951777 0.53058,1.101841 0.28174,0.108117 0.34306,-0.531008 0.31027,-3.233833 l -0.0409,-3.368581 -0.99092,-1.157486 c -2.00035,-2.336573 -2.68114,-4.83498 -2.03064,-7.452125 0.19388,-0.780046 0.36359,-1.477796 0.37713,-1.550557 0.17913,-0.962703 1.67287,-3.524852 2.88695,-4.95185 0.39071,-0.459237 0.58944,-0.527695 0.86587,-0.298278 0.19732,0.163765 0.29803,0.489304 0.22379,0.723421 -0.0742,0.234116 0.17104,0.782853 0.54506,1.219416 l 0.68004,0.79375 -0.5799,-0.875129 c -0.31894,-0.481321 -0.52036,-0.934661 -0.4476,-1.007421 0.20937,-0.209379 1.18448,1.291729 2.11426,3.254753 0.75435,1.592656 0.85372,2.064943 0.85252,4.051755 -0.002,2.830421 -0.35402,3.963681 -1.84911,5.947919 l -1.19224,1.582295 v 3.129018 3.129018 l 0.72761,-0.433019 c 0.83729,-0.498298 2.515,-1.872562 1.91823,-1.571276 -0.21829,0.110199 -0.79165,0.492477 -1.27415,0.849506 -1.14018,0.843683 -1.30265,0.645449 -0.34766,-0.424203 0.53116,-0.594934 0.80212,-1.235557 0.91083,-2.153397 0.22434,-1.89421 1.64843,-4.978393 2.89502,-6.26982 1.29989,-1.346637 3.47548,-2.53924 5.65935,-3.102307 2.63202,-0.678611 2.56434,-0.721407 2.41985,1.530143 -0.16383,2.552742 -1.6168,5.775793 -3.30546,7.332353 -1.25608,1.157809 -3.15361,2.092073 -4.26774,2.101247 -1.67989,0.01383 -3.64426,1.454942 -4.78171,3.507966 -0.46726,0.843381 -0.55417,1.451704 -0.55417,3.879192 0,2.41715 0.0641,2.869551 0.39956,2.820316 0.21975,-0.03225 0.54717,-0.224335 0.7276,-0.426849 0.27822,-0.312279 0.25772,-0.314989 -0.13497,-0.01784 -0.25466,0.192701 -0.46302,0.234787 -0.46302,0.09352 0,-0.141263 0.64632,-0.826565 1.43626,-1.522892 0.94693,-0.834711 1.71702,-1.836358 2.26034,-2.939991 0.83314,-1.69235 2.73685,-3.665206 4.37319,-4.532025 1.46359,-0.775309 3.4192,-1.125599 6.21771,-1.113719 2.97357,0.01262 4.57297,0.378353 4.70673,1.076275 0.1424,0.743004 -3.10733,4.744227 -4.83902,5.958032 -2.55366,1.789948 -4.57746,2.208425 -8.73125,1.805432 l -1.5875,-0.154017 -1.65493,1.34969 c -2.46252,2.008336 -2.65535,2.532568 -2.75751,7.496711 l -0.0855,4.15331 0.81499,-0.864617 c 0.59028,-0.62623 0.8647,-1.229118 0.9953,-2.18665 0.25883,-1.897746 1.73952,-4.829186 3.10906,-6.155271 0.67467,-0.653268 1.77931,-1.359847 2.62128,-1.676696 1.98251,-0.746061 4.34085,-1.144882 4.90456,-0.829415 0.33207,0.185835 0.0127,0.287284 -1.23622,0.39266 -2.44237,0.206075 -4.6198,1.117405 -6.04226,2.528896 l -1.19796,1.188722 1.21211,-1.061722 c 1.46431,-1.282643 3.70248,-2.164227 6.04647,-2.381628 1.66768,-0.154676 1.72136,-0.141466 1.34038,0.329873 -0.35278,0.436446 -0.35278,0.464692 0,0.25422 0.21828,-0.130229 0.59148,-0.481808 0.82934,-0.781286 0.23786,-0.299477 1.05056,-0.766767 1.80601,-1.038422 2.25682,-0.811539 7.69523,-0.335278 8.79285,0.770021 0.10087,0.10158 -0.12486,0.677627 -0.50163,1.280103 -1.22716,1.962289 -2.72247,3.563823 -4.32928,4.636812 -1.91176,1.276622 -3.51328,1.660274 -7.72177,1.849793 -0.44463,0.02002 -0.7276,0.182173 -0.7276,0.41693 0,0.494908 -2.10544,1.943125 -3.71294,2.553925 -1.52142,0.578095 -4.22046,0.96736 -3.82769,0.552043 0.14552,-0.153874 0.6813,-0.331499 1.19063,-0.394722 0.59701,-0.07411 0.49476,-0.09566 -0.28777,-0.06065 -0.83983,0.03757 -1.39007,0.230573 -1.78593,0.626436 -0.31468,0.314674 -0.68058,0.572134 -0.81312,0.572134 -0.13254,0 -0.48226,0.506016 -0.77716,1.12448 -0.45071,0.945204 -0.54693,1.745598 -0.60358,5.020374 -0.0371,2.142742 0.015,3.978289 0.11571,4.078992 0.1007,0.100704 0.1831,0.03281 0.1831,-0.150884 0,-0.183691 0.23663,-0.666301 0.52584,-1.072468 0.44562,-0.625807 0.48121,-0.866549 0.23327,-1.577799 -0.31613,-0.906847 -0.12217,-2.813906 0.34322,-3.374672 0.15696,-0.189121 0.55899,-0.343856 0.89341,-0.343856 1.23196,0 1.15082,2.814658 -0.11942,4.142302 -0.76621,0.800847 -2.22322,3.271916 -2.03826,3.456876 0.0607,0.06071 0.32624,-0.255056 0.59008,-0.701694 0.26383,-0.446637 0.58583,-0.812068 0.71554,-0.812068 0.12972,0 0.17161,-0.167407 0.0931,-0.372015 -0.0785,-0.204609 0.0873,-0.58025 0.36857,-0.834758 0.28123,-0.254507 0.51206,-0.354991 0.51295,-0.223296 9e-4,0.131694 0.17949,-0.101587 0.39688,-0.518403 0.21738,-0.416817 0.39524,-0.856839 0.39524,-0.977828 0,-0.120989 0.68461,-0.925815 1.52136,-1.788502 0.83674,-0.862687 2.00247,-2.206255 2.59049,-2.985707 2.11277,-2.800543 4.37975,-3.906197 8.49786,-4.144597 1.78951,-0.103596 2.57222,-0.0063 4.57703,0.568735 2.43151,0.697472 5.25102,1.957552 3.62703,1.620973 -0.45438,-0.09417 -0.68722,-0.05418 -0.591,0.101512 0.0873,0.141298 0.0329,0.334684 -0.12088,0.429746 -0.15382,0.09506 -0.21139,0.387959 -0.12794,0.650882 0.2098,0.661024 -2.62016,3.15334 -5.02499,4.425453 -1.66483,0.880667 -2.09845,0.990834 -4.28889,1.08965 -1.71117,0.0772 -2.97606,-0.02222 -4.2477,-0.333852 -0.99599,-0.244081 -2.04256,-0.480313 -2.32569,-0.524961 -0.54945,-0.08664 -1.96205,0.567719 -2.99819,1.38886 -0.94531,0.749157 -0.32958,0.969714 2.74797,0.984334 2.31769,0.01101 2.80997,0.09775 3.96929,0.699383 0.7279,0.377748 1.94009,1.338819 2.69376,2.135713 1.36742,1.445846 1.80261,2.225535 2.7581,4.941466 0.62935,1.788908 0.45737,1.949396 -1.88052,1.754889 -5.52824,-0.459936 -8.6623,-2.747857 -9.53841,-6.963198 -0.15878,-0.763984 -0.32524,-1.389062 -0.36992,-1.389062 -0.0447,0 -0.52328,-0.184706 -1.06358,-0.410457 -0.5403,-0.225752 -0.90823,-0.290514 -0.81763,-0.143916 0.0906,0.146598 -0.13273,0.461449 -0.4963,0.699668 -0.36357,0.238219 -0.98862,0.98759 -1.389,1.665269 -0.71136,1.204031 -0.72878,1.333379 -0.76368,5.669088 -0.0197,2.440319 -0.11621,4.517437 -0.21459,4.615818 -0.35806,0.358056 -0.96884,0.283515 -1.19671,-0.146048 z"
       id="path27955" />
    <path
       style="fill:#6d6450"
       d="m 203.55563,49.621006 c 0.0406,-1.253018 -0.0405,-1.656293 -0.35731,-1.777871 -0.32718,-0.12555 -0.40446,0.04107 -0.38341,0.826638 0.0242,0.903745 0.0455,0.930007 0.26067,0.322425 0.15929,-0.449697 0.19783,-0.02617 0.12039,1.322917 -0.0647,1.126477 -0.0229,1.755704 0.0966,1.455445 0.1158,-0.290912 0.23416,-1.258211 0.26302,-2.149554 z"
       id="path27857" />
    <path
       style="fill:#6d6450"
       d="m 180.5067,61.395371 c -1.06308,-1.755166 -1.06306,-1.656457 -2.4e-4,-2.055422 0.58074,-0.218002 2.09049,-0.380677 3.68874,-0.397462 1.83135,-0.01923 2.47257,-0.09741 1.98438,-0.241934 -1.00845,-0.298543 -4.46225,-0.0244 -5.84265,0.463765 -0.63396,0.224191 -1.26776,0.336479 -1.40845,0.249529 -0.14069,-0.08695 0.18082,0.44964 0.71445,1.192421 0.97586,1.358318 1.49678,1.834212 0.86377,0.789103 z"
       id="path27856" />
    <path
       style="fill:#6d6450"
       d="m 203.36492,62.506225 c -0.12785,-0.08391 -0.30044,-0.331163 -0.38353,-0.549444 -0.0881,-0.231479 -0.15978,-0.09365 -0.17196,0.330729 -0.0115,0.400182 0.0982,0.727604 0.24369,0.727604 0.16074,0 0.28746,1.427914 0.32286,3.638021 l 0.0583,3.638021 0.0816,-3.816181 c 0.0449,-2.098899 -0.023,-3.884837 -0.1509,-3.96875 z"
       id="path27855" />
    <path
       style="fill:#6d6450"
       d="m 200.29272,67.891779 c -0.41952,-2.37104 -1.16568,-4.29833 -1.88946,-4.880412 -0.42897,-0.344981 -0.42256,-0.295916 0.0523,0.400622 0.74857,1.098015 1.31909,2.667134 1.5392,4.233333 0.23204,1.651048 0.44695,2.567318 0.57267,2.441591 0.0531,-0.05313 -0.0705,-1.040938 -0.27471,-2.195134 z"
       id="path27854" />
    <path
       style="fill:#6d6450"
       d="m 189.21077,82.915575 c 0.76521,-0.769174 1.87054,-1.61306 2.45628,-1.875304 0.58574,-0.262244 0.99233,-0.549458 0.90353,-0.638253 -0.19317,-0.193169 -1.08844,0.34803 -2.87892,1.740316 -1.33512,1.038207 -2.55661,2.69126 -2.88006,3.897629 -0.0966,0.360447 0.0906,0.119577 0.41609,-0.535267 0.32548,-0.654843 1.21787,-1.819948 1.98308,-2.589121 z"
       id="path27853" />
    <path
       style="fill:#6d6450"
       d="m 188.04849,89.073235 c 1.78699,-0.231995 4.29972,-1.099326 5.51524,-1.903718 0.56842,-0.376159 0.97935,-0.738056 0.91319,-0.804217 -0.0662,-0.06616 -0.51506,0.174329 -0.99757,0.534423 -1.08422,0.809165 -3.80249,1.710072 -5.87688,1.947756 -1.54552,0.177086 -1.55876,0.17283 -1.42309,-0.457538 0.0753,-0.349958 0.21937,-0.874411 0.3201,-1.165453 0.10978,-0.317157 0.0321,-0.264154 -0.19395,0.132292 -0.20741,0.363802 -0.45614,0.991908 -0.55274,1.395792 -0.15778,0.659725 -0.11446,0.721677 0.42642,0.609758 0.33112,-0.06852 1.1723,-0.19861 1.86928,-0.289095 z"
       id="path27852" />
    <path
       style="fill:#6d6450"
       d="m 203.45351,83.454176 c -0.12945,-6.612937 -0.0984,-9.68232 0.1033,-10.201579 0.15865,-0.408498 0.17993,-0.675647 0.0473,-0.593664 -0.13265,0.08198 -0.29525,-5.09e-4 -0.36134,-0.183317 -0.41231,-1.140629 -0.47136,6.381653 -0.10494,13.370677 0.0518,0.988243 -0.006,1.858473 -0.12754,1.933844 -0.12195,0.07537 -0.20172,1.052747 -0.17725,2.171945 l 0.0445,2.034906 0.17562,-1.5875 0.17563,-1.5875 0.0445,1.89618 c 0.0306,1.304684 -0.0587,1.93781 -0.28625,2.029633 -0.18752,0.07566 -0.11803,0.142497 0.16048,0.15434 0.4731,0.02012 0.48438,-0.328033 0.30605,-9.437965 z"
       id="path27851" />
    <path
       style="fill:#6d6450"
       d="m 202.40854,92.598984 c -0.0736,-0.336598 -0.16948,-2.338402 -0.21301,-4.448454 -0.0884,-4.283791 -0.37399,-5.254464 -2.14106,-7.276042 l -0.92509,-1.058333 -0.94855,0.504685 c -0.73173,0.389328 -0.94854,0.668987 -0.94854,1.223506 0,0.965271 -0.59836,2.603018 -1.43558,3.929262 -1.35771,2.150742 -5.2647,3.959562 -8.81323,4.080256 l -1.52515,0.05187 0.0287,-0.975121 c 0.0444,-1.511153 1.69929,-4.648164 3.28898,-6.234688 0.76547,-0.763937 2.05855,-1.715405 2.87351,-2.114373 1.27417,-0.62377 1.88023,-0.739085 4.32603,-0.823105 1.56435,-0.05374 2.84427,-0.199942 2.84427,-0.324893 0,-0.124951 -0.64973,-0.642812 -1.44385,-1.150801 l -1.44384,-0.923617 -2.19418,0.662089 c -5.81809,1.7556 -9.27087,0.893061 -13.50511,-3.373709 -1.27331,-1.283091 -2.3151,-2.434701 -2.3151,-2.559133 0,-0.494663 3.34842,-1.644042 6.26843,-2.151697 2.01468,-0.350262 5.27748,0.05383 7.0734,0.87603 0.8323,0.381041 1.44933,0.796272 1.37117,0.922735 -0.0782,0.126463 0.24062,0.575575 0.70838,0.998025 l 0.85049,0.768092 -0.7771,-0.859896 c -0.42741,-0.472942 -0.65913,-0.859896 -0.51493,-0.859896 0.564,0 3.01136,3.042666 3.0123,3.745011 2.6e-4,0.195817 0.52934,0.690149 1.17574,1.098516 l 1.17527,0.742485 0.54405,-0.544048 c 0.70034,-0.700343 1.18163,-0.687224 1.88079,0.05127 0.45824,0.48401 0.53851,0.817919 0.42931,1.785938 -0.10991,0.97443 -0.0226,1.330061 0.48096,1.958528 l 0.61526,0.767903 0.18497,-1.480478 c 0.32958,-2.637893 -0.003,-5.542995 -0.77549,-6.76609 -0.9229,-1.461964 -1.56645,-1.827601 -3.76573,-2.139516 -2.59352,-0.367827 -4.03224,-1.052573 -5.34493,-2.543867 -1.09358,-1.242364 -2.74282,-2.637681 -1.94164,-1.642695 0.30871,0.383399 0.21496,0.451542 -0.83862,0.609537 -2.47079,0.370518 -5.35125,-0.618606 -7.45882,-2.561295 -1.08713,-1.002085 -3.8241,-4.750774 -3.8241,-5.237683 0,-0.240973 3.24774,-1.010134 4.97917,-1.179217 2.02021,-0.197284 4.38846,0.309776 5.63435,1.20635 0.25168,0.181117 0.63197,0.221336 0.92604,0.09794 0.93258,-0.391333 1.81482,-0.382362 3.27499,0.0333 2.93377,0.835149 5.86308,3.077931 6.72484,5.148768 0.44108,1.059938 1.02084,3.931256 1.02366,5.069863 0.001,0.40373 0.0635,0.672378 0.13889,0.596995 0.0754,-0.07538 0.30332,0.100309 0.50652,0.390425 0.79158,1.130134 0.90266,0.563289 0.81918,-4.180278 -0.0948,-5.38932 -0.0841,-5.361221 -2.82419,-7.356343 l -1.41842,-1.03277 -3.74095,-0.0046 -3.74095,-0.0046 -1.68449,-0.901464 c -2.06312,-1.104096 -3.97974,-3.00837 -5.35098,-5.316514 -1.09623,-1.845217 -1.1919,-2.107112 -0.76974,-2.107112 0.14552,0 0.25048,0.0893 0.23325,0.198438 -0.0686,0.434368 0.0662,0.756001 0.58231,1.389062 l 0.53921,0.661458 -0.4128,-0.846756 c -0.22704,-0.465716 -0.4128,-1.017744 -0.4128,-1.226729 0,-0.49084 1.72126,-0.753066 4.78625,-0.729161 3.34886,0.02612 5.32042,0.852534 7.69223,3.22434 1.20971,1.209711 1.87363,2.113841 2.09514,2.853146 0.17834,0.595244 0.53607,1.27396 0.79497,1.508258 0.2589,0.234298 0.40799,0.623168 0.33131,0.864157 -0.11658,0.366417 -0.0946,0.3749 0.13398,0.05181 0.29669,-0.41927 0.44097,-0.332175 2.35622,1.422257 l 0.8599,0.787693 v -2.965202 c 0,-4.247701 -0.73077,-5.65335 -3.42774,-6.593331 -0.51584,-0.179788 -1.23555,-0.329843 -1.59935,-0.333455 -1.03464,-0.01028 -3.29387,-1.179104 -4.59208,-2.375751 -1.71246,-1.578492 -3.03922,-4.74009 -3.48439,-8.30312 l -0.17761,-1.421567 1.92847,0.364648 c 4.21745,0.797467 6.56131,2.457831 8.23356,5.832581 1.03834,2.095464 1.1278,2.44077 1.1278,4.353483 0,1.142621 0.0797,2.077493 0.17715,2.077493 0.0974,0 0.11134,-0.251637 0.0309,-0.559193 -0.13062,-0.499507 -0.0863,-0.5271 0.41558,-0.258519 0.65033,0.348042 1.27908,1.346879 0.84784,1.346879 -0.15064,0 -0.27389,-0.138906 -0.27389,-0.308681 0,-0.169774 -0.0623,-0.246346 -0.13852,-0.170161 -0.21612,0.216119 0.14026,0.952063 0.53425,1.10325 0.28664,0.109995 0.34626,-0.511378 0.31027,-3.233931 l -0.0445,-3.370088 -0.99092,-1.157388 c -2.00031,-2.336331 -2.68115,-4.834861 -2.03064,-7.452027 0.19388,-0.780046 0.36359,-1.477796 0.37713,-1.550557 0.26294,-1.413115 2.93628,-5.353893 3.54533,-5.22618 0.24096,0.05053 0.39912,0.315883 0.36865,0.618489 -0.0294,0.291497 0.24837,0.881929 0.61717,1.312072 l 0.67056,0.782078 -0.5799,-0.875129 c -0.7106,-1.072381 -0.52168,-1.432561 0.20817,-0.396875 3.04716,4.324037 3.20772,8.961176 0.43847,12.66354 l -1.16881,1.562636 v 3.129018 3.129018 l 0.72761,-0.433019 c 0.83729,-0.498298 2.515,-1.872562 1.91823,-1.571276 -0.21829,0.110199 -0.79165,0.492477 -1.27415,0.849506 -1.14018,0.843683 -1.30265,0.645449 -0.34766,-0.424203 0.53116,-0.594934 0.80212,-1.235557 0.91083,-2.153397 0.22434,-1.89421 1.64843,-4.978393 2.89502,-6.26982 1.29989,-1.346637 3.47548,-2.53924 5.65935,-3.102307 2.64756,-0.682617 2.57526,-0.73015 2.40067,1.578237 -0.19717,2.607047 -1.61034,5.739425 -3.28628,7.284259 -1.27525,1.175477 -3.16376,2.095436 -4.30157,2.095436 -1.67327,0 -3.8762,1.637682 -4.87602,3.624881 -0.54702,1.087227 -0.62777,6.677653 -0.0953,6.596871 0.58468,-0.0887 1.00563,-0.460956 0.83445,-0.737925 -0.0915,-0.148055 0.37587,-0.764906 1.03862,-1.37078 0.66274,-0.605874 1.59886,-1.867697 2.08028,-2.804051 1.22589,-2.384362 3.50504,-4.294216 6.04537,-5.065816 1.59919,-0.485739 2.34541,-0.5544 4.97039,-0.457332 3.07701,0.113785 4.27933,0.430311 4.27933,1.126591 0,0.806645 -3.15886,4.60553 -4.80526,5.778866 -2.55379,1.820001 -4.70496,2.282566 -8.82078,1.896728 l -1.5875,-0.14882 -1.65493,1.34969 c -2.46095,2.007054 -2.65533,2.534416 -2.75751,7.481377 l -0.0855,4.137976 0.83259,-0.807688 c 0.64985,-0.630415 0.87109,-1.115869 1.00802,-2.211822 0.2407,-1.926464 1.67575,-4.79464 3.08026,-6.15636 0.67483,-0.654277 1.77649,-1.359357 2.61976,-1.676696 1.98251,-0.746061 4.34085,-1.144882 4.90456,-0.829415 0.33207,0.185835 0.0127,0.287284 -1.23622,0.39266 -2.44237,0.206075 -4.6198,1.117405 -6.04226,2.528896 l -1.19796,1.188722 1.21211,-1.061722 c 1.46431,-1.282643 3.70248,-2.164227 6.04647,-2.381628 1.66768,-0.154676 1.72136,-0.141466 1.34038,0.329873 -0.35278,0.436446 -0.35278,0.465109 0,0.257969 0.21828,-0.128168 0.55366,-0.450408 0.7453,-0.71609 0.72127,-0.999986 2.1366,-1.366963 5.34011,-1.384632 2.89533,-0.01597 4.24208,0.236287 5.21428,0.97667 0.71235,0.542489 -2.3853,4.452817 -4.75284,5.99977 -1.95872,1.279827 -3.50355,1.649868 -7.67133,1.837554 -0.44463,0.02002 -0.7276,0.182173 -0.7276,0.41693 0,0.49058 -2.10049,1.941241 -3.67963,2.541269 -1.60459,0.609696 -3.72871,0.928369 -3.72871,0.559404 0,-0.153676 0.44649,-0.329556 0.99219,-0.390843 0.7288,-0.08185 0.66997,-0.0973 -0.22162,-0.05818 -0.82912,0.03637 -1.41608,0.238463 -1.85208,0.637667 -0.35105,0.321428 -0.85873,0.787248 -1.12817,1.035155 -0.26944,0.247906 -0.58489,0.694885 -0.70099,0.993286 -0.27383,0.703754 -0.44544,8.492661 -0.19268,8.745417 0.10611,0.106116 0.19294,0.04265 0.19294,-0.141044 0,-0.183691 0.23902,-0.669664 0.53116,-1.07994 0.44156,-0.620105 0.48292,-0.872509 0.24518,-1.496053 -0.31107,-0.815877 -0.10467,-2.922865 0.33915,-3.462073 0.14972,-0.181901 0.54583,-0.330729 0.88025,-0.330729 1.23196,0 1.15082,2.814658 -0.11942,4.142302 -0.76621,0.800847 -2.22322,3.271916 -2.03826,3.456876 0.0607,0.06071 0.32624,-0.255056 0.59008,-0.701694 0.26383,-0.446637 0.58583,-0.812068 0.71554,-0.812068 0.12972,0 0.17161,-0.167407 0.0931,-0.372015 -0.0785,-0.204609 0.0873,-0.58025 0.36857,-0.834758 0.28123,-0.254507 0.51536,-0.354991 0.5203,-0.223296 0.005,0.131694 0.21679,-0.199335 0.47079,-0.735621 0.25399,-0.536286 1.09144,-1.66738 1.86099,-2.513542 0.76955,-0.846162 1.90305,-2.191763 2.51889,-2.990226 2.18884,-2.837934 4.36252,-3.903196 8.50486,-4.168002 1.64732,-0.105307 2.5679,-0.01255 4.13078,0.416221 2.09235,0.574028 5.47431,2.017271 4.11223,1.754882 -0.45143,-0.08696 -0.68659,-0.04221 -0.591,0.112471 0.0873,0.141298 0.0329,0.334684 -0.12088,0.429746 -0.15382,0.09506 -0.21038,0.391144 -0.12569,0.657959 0.21518,0.677974 -3.14587,3.532056 -5.40368,4.588614 -2.37656,1.11213 -5.39466,1.275596 -8.57487,0.464434 -2.41344,-0.615585 -2.65658,-0.583502 -4.36782,0.576359 -1.61453,1.094313 -1.18012,1.376944 2.15369,1.401208 2.35462,0.01714 2.86754,0.106252 4.02223,0.698816 0.7279,0.373546 1.94009,1.331178 2.69376,2.128072 1.35073,1.428193 1.76242,2.16607 2.72295,4.880318 0.64701,1.828334 0.38646,2.061092 -2.01889,1.803501 -5.5438,-0.593691 -8.49963,-2.787523 -9.36489,-6.950662 -0.15878,-0.763984 -0.32524,-1.389062 -0.36992,-1.389062 -0.0447,0 -0.52328,-0.184706 -1.06358,-0.410457 -0.5403,-0.225752 -0.90823,-0.290514 -0.81763,-0.143916 0.0906,0.146598 -0.13273,0.461449 -0.4963,0.699668 -0.36357,0.238219 -0.98788,0.98759 -1.38735,1.665269 -0.70897,1.202711 -0.72741,1.339591 -0.77202,5.730061 l -0.0457,4.497916 -0.68282,0.08283 c -0.53255,0.0646 -0.71228,-0.05185 -0.81669,-0.529167 z"
       id="path27850" />
    <path
       style="fill:#5e8337"
       d="m 203.55563,49.621006 c 0.0406,-1.253018 -0.0405,-1.656293 -0.35731,-1.777871 -0.32718,-0.12555 -0.40446,0.04107 -0.38341,0.826638 0.0242,0.903745 0.0455,0.930007 0.26067,0.322425 0.15929,-0.449697 0.19783,-0.02617 0.12039,1.322917 -0.0647,1.126477 -0.0229,1.755704 0.0966,1.455445 0.1158,-0.290912 0.23416,-1.258211 0.26302,-2.149554 z"
       id="path27673" />
    <path
       style="fill:#5e8337"
       d="m 180.5067,61.395371 c -1.06308,-1.755166 -1.06306,-1.656457 -2.4e-4,-2.055422 0.58074,-0.218002 2.09049,-0.380677 3.68874,-0.397462 1.83135,-0.01923 2.47257,-0.09741 1.98438,-0.241934 -1.00845,-0.298543 -4.46225,-0.0244 -5.84265,0.463765 -0.63396,0.224191 -1.26776,0.336479 -1.40845,0.249529 -0.14069,-0.08695 0.18082,0.44964 0.71445,1.192421 0.97586,1.358318 1.49678,1.834212 0.86377,0.789103 z"
       id="path27672" />
    <path
       style="fill:#5e8337"
       d="m 203.36492,62.506225 c -0.12785,-0.08391 -0.30044,-0.331163 -0.38353,-0.549444 -0.0881,-0.231479 -0.15978,-0.09365 -0.17196,0.330729 -0.0115,0.400182 0.0982,0.727604 0.24369,0.727604 0.16074,0 0.28746,1.427914 0.32286,3.638021 l 0.0583,3.638021 0.0816,-3.816181 c 0.0449,-2.098899 -0.023,-3.884837 -0.1509,-3.96875 z"
       id="path27671" />
    <path
       style="fill:#5e8337"
       d="m 200.29272,67.891779 c -0.41952,-2.37104 -1.16568,-4.29833 -1.88946,-4.880412 -0.42897,-0.344981 -0.42256,-0.295916 0.0523,0.400622 0.74857,1.098015 1.31909,2.667134 1.5392,4.233333 0.23204,1.651048 0.44695,2.567318 0.57267,2.441591 0.0531,-0.05313 -0.0705,-1.040938 -0.27471,-2.195134 z"
       id="path27670" />
    <path
       style="fill:#5e8337"
       d="m 189.21077,82.915575 c 0.76521,-0.769174 1.87054,-1.61306 2.45628,-1.875304 0.58574,-0.262244 0.99233,-0.549458 0.90353,-0.638253 -0.19317,-0.193169 -1.08844,0.34803 -2.87892,1.740316 -1.33512,1.038207 -2.55661,2.69126 -2.88006,3.897629 -0.0966,0.360447 0.0906,0.119577 0.41609,-0.535267 0.32548,-0.654843 1.21787,-1.819948 1.98308,-2.589121 z"
       id="path27669" />
    <path
       style="fill:#5e8337"
       d="m 188.04849,89.073235 c 1.78699,-0.231995 4.29972,-1.099326 5.51524,-1.903718 0.56842,-0.376159 0.97935,-0.738056 0.91319,-0.804217 -0.0662,-0.06616 -0.51506,0.174329 -0.99757,0.534423 -1.08422,0.809165 -3.80249,1.710072 -5.87688,1.947756 -1.54552,0.177086 -1.55876,0.17283 -1.42309,-0.457538 0.0753,-0.349958 0.21937,-0.874411 0.3201,-1.165453 0.10978,-0.317157 0.0321,-0.264154 -0.19395,0.132292 -0.20741,0.363802 -0.45614,0.991908 -0.55274,1.395792 -0.15778,0.659725 -0.11446,0.721677 0.42642,0.609758 0.33112,-0.06852 1.1723,-0.19861 1.86928,-0.289095 z"
       id="path27668" />
    <path
       style="fill:#5e8337"
       d="m 203.45351,83.454176 c -0.12945,-6.612937 -0.0984,-9.68232 0.1033,-10.201579 0.15865,-0.408498 0.17993,-0.675647 0.0473,-0.593664 -0.13265,0.08198 -0.29525,-5.09e-4 -0.36134,-0.183317 -0.41231,-1.140629 -0.47136,6.381653 -0.10494,13.370677 0.0518,0.988243 -0.006,1.858473 -0.12754,1.933844 -0.12195,0.07537 -0.20172,1.052747 -0.17725,2.171945 l 0.0445,2.034906 0.17562,-1.5875 0.17563,-1.5875 0.0445,1.89618 c 0.0306,1.304684 -0.0587,1.93781 -0.28625,2.029633 -0.18752,0.07566 -0.11803,0.142497 0.16048,0.15434 0.4731,0.02012 0.48438,-0.328033 0.30605,-9.437965 z"
       id="path27667" />
    <path
       style="fill:#5e8337"
       d="m 202.40854,92.598984 c -0.0736,-0.336598 -0.16948,-2.338402 -0.21301,-4.448454 -0.0884,-4.283791 -0.37399,-5.254464 -2.14106,-7.276042 l -0.92509,-1.058333 -0.91691,0.487649 c -0.7913,0.420843 -0.93521,0.649945 -1.05044,1.672332 -0.0734,0.651576 -0.48564,1.860884 -0.91599,2.687351 -1.36953,2.630113 -3.9114,4.070517 -8.60409,4.875687 -2.28538,0.392122 -2.53383,0.20241 -2.04086,-1.558315 0.91589,-3.27125 3.25632,-6.264656 5.97262,-7.63898 1.29452,-0.654967 1.865,-0.768862 4.36755,-0.871971 1.58319,-0.06523 2.87853,-0.223848 2.87853,-0.352484 0,-0.128636 -0.67472,-0.665496 -1.49938,-1.193023 l -1.49937,-0.959139 -1.25746,0.452175 c -6.10748,2.19622 -9.85803,1.384203 -14.34922,-3.106695 -1.9212,-1.92108 -2.27735,-2.401127 -2.01548,-2.716659 0.17494,-0.21079 1.51705,-0.755749 2.98248,-1.211021 3.9592,-1.230031 7.72522,-1.107907 10.56868,0.342722 0.55166,0.281437 0.94352,0.607981 0.87079,0.725653 -0.0727,0.117673 0.2505,0.559593 0.71826,0.982043 l 0.85049,0.768092 -0.7771,-0.859896 c -0.42741,-0.472942 -0.65913,-0.859896 -0.51493,-0.859896 0.58033,0 3.01182,3.048426 3.01182,3.775997 0,0.21286 0.4737,0.700496 1.05266,1.083635 1.10616,0.732018 1.59318,0.866933 1.59318,0.441344 0,-0.399946 1.02708,-0.848637 1.55734,-0.680339 0.26346,0.08362 0.61615,0.453005 0.78375,0.820857 0.36204,0.794573 0.40641,2.060908 0.0648,1.849798 -0.46352,-0.286474 0.0146,0.788189 0.74955,1.68466 l 0.74287,0.90616 -0.0309,-3.684285 c -0.0298,-3.545228 -0.0584,-3.726474 -0.75764,-4.802071 -0.90973,-1.399309 -1.60024,-1.855868 -3.10976,-2.05614 -2.94765,-0.391073 -4.30371,-0.973243 -5.82927,-2.50257 -1.64313,-1.647181 -2.76186,-2.589195 -2.15753,-1.816721 0.31134,0.397965 0.22391,0.462828 -0.83862,0.622164 -2.47079,0.370518 -5.35125,-0.618606 -7.45882,-2.561295 -1.41088,-1.300508 -3.94222,-4.978891 -3.63212,-5.27798 0.46502,-0.448513 3.75426,-1.074156 5.64724,-1.074156 2.2812,0 3.99451,0.417983 4.64087,1.132199 0.347,0.383436 0.54303,0.42193 0.97403,0.191267 0.3115,-0.166712 1.23476,-0.232983 2.18414,-0.156776 3.02724,0.242998 6.34613,2.40442 7.67301,4.997042 0.61818,1.207855 1.24821,3.88936 1.25178,5.327724 0.001,0.40373 0.0635,0.672378 0.13889,0.596995 0.0754,-0.07538 0.30332,0.100309 0.50652,0.390425 0.20321,0.290116 0.48178,0.527483 0.61905,0.527483 0.1467,0 0.24958,-1.875337 0.24958,-4.549841 0,-4.487701 -0.01,-4.56362 -0.69918,-5.558755 -0.38455,-0.554903 -1.42098,-1.50161 -2.30318,-2.103793 -1.48899,-1.016379 -1.70918,-1.087568 -3.07113,-0.992919 -3.49057,0.242577 -5.45629,0.087 -6.78518,-0.537022 -2.65515,-1.2468 -4.48084,-3.027344 -6.27998,-6.124664 -0.77158,-1.328318 -0.83802,-1.564255 -0.44052,-1.564255 0.14552,0 0.25048,0.0893 0.23325,0.198438 -0.0683,0.432429 0.0654,0.75533 0.57505,1.389062 l 0.53194,0.661458 -0.4558,-0.994836 c -0.66511,-1.451669 -0.37212,-1.602641 3.36911,-1.73603 3.00895,-0.107281 3.30792,-0.07078 5.06434,0.618328 2.8895,1.13366 6.09769,4.575382 6.00705,6.444329 -0.0133,0.2742 -0.0694,0.31053 -0.15434,0.09998 -0.0734,-0.181901 -0.23885,-0.330729 -0.36768,-0.330729 -0.12883,0 -0.16307,0.185436 -0.0761,0.412081 0.0873,0.22744 0.33099,0.345749 0.54391,0.264042 0.22909,-0.08791 1.18244,0.497855 2.34711,1.44212 l 1.96133,1.590159 v -2.915418 c 0,-4.192891 -0.74079,-5.607058 -3.42774,-6.543546 -0.51584,-0.179788 -1.23555,-0.329843 -1.59935,-0.333455 -0.99675,-0.0099 -3.24206,-1.147244 -4.48925,-2.274004 -1.25687,-1.135507 -2.09289,-2.639785 -2.85426,-5.135728 -0.80993,-2.655134 -0.97943,-4.203562 -0.48109,-4.394795 0.77669,-0.298042 4.26273,0.689536 5.96658,1.690302 1.86208,1.093705 2.84743,2.261554 4.06774,4.821159 0.69687,1.461692 0.82038,2.027526 0.82298,3.770313 0.002,1.127786 0.0828,2.05052 0.1802,2.05052 0.0974,0 0.11185,-0.249696 0.032,-0.554879 -0.13277,-0.507718 -0.0971,-0.524902 0.41967,-0.202174 0.3448,0.215329 0.51052,0.523645 0.42548,0.791583 -0.11074,0.348891 0.45962,1.288387 0.78216,1.288387 0.0396,0 0.0978,-1.475888 0.12949,-3.279751 l 0.0575,-3.279751 -0.80414,-0.915865 c -1.15301,-1.313202 -2.33907,-3.691226 -2.55319,-5.119084 -0.11197,-0.746683 -0.0482,-1.812386 0.1625,-2.717507 0.19068,-0.818996 0.37544,-1.644694 0.41055,-1.834884 0.0834,-0.451467 2.06719,-3.716527 2.72374,-4.482845 0.76211,-0.889518 1.23505,-0.750008 1.12159,0.330853 -0.0153,0.145589 0.27811,0.621839 0.65198,1.058334 l 0.67976,0.793626 -0.55103,-0.834594 c -0.30307,-0.459027 -0.55104,-0.912538 -0.55104,-1.007802 0,-0.951773 2.41959,3.390602 2.90913,5.220937 0.71342,2.667395 -0.17397,6.276144 -2.07598,8.442419 l -0.83315,0.948897 v 3.221175 3.221176 l 0.72761,-0.433019 c 0.83729,-0.498298 2.515,-1.872562 1.91823,-1.571276 -0.21829,0.110199 -0.79165,0.492477 -1.27415,0.849506 -1.14673,0.848527 -1.26617,0.672339 -0.29684,-0.437875 0.42748,-0.489615 0.79212,-1.171732 0.81031,-1.515815 0.0182,-0.344083 0.0547,-0.714902 0.0811,-0.824042 0.0264,-0.109141 0.14192,-0.593916 0.2567,-1.077279 0.98061,-4.129694 3.86969,-6.953334 8.28519,-8.097503 2.42366,-0.628036 2.45646,-0.616575 2.45646,0.858531 0,2.417873 -1.3505,5.813016 -3.0688,7.714978 -1.10771,1.226092 -2.70548,2.051849 -4.64678,2.401524 -1.94212,0.349824 -1.84281,0.31158 -2.89704,1.115678 -0.51904,0.39589 -1.26056,1.301975 -1.64784,2.013522 -0.64165,1.178939 -0.70413,1.552558 -0.70413,4.211067 0,2.184248 0.0831,2.904737 0.33073,2.867171 0.55112,-0.08361 1.00944,-0.454794 0.86003,-0.696533 -0.0774,-0.12529 0.39312,-0.742141 1.04566,-1.370781 0.65255,-0.628639 1.57717,-1.909088 2.0547,-2.845442 1.21497,-2.382302 3.49161,-4.292276 6.03833,-5.065816 3.02086,-0.91756 9.24972,-0.526183 9.24972,0.581186 0,0.549821 -1.98825,3.254927 -3.4193,4.652109 -0.80479,0.785751 -2.18039,1.781312 -3.05688,2.212359 -1.65765,0.815214 -4.69575,1.363445 -5.59585,1.009783 -0.27263,-0.107117 -1.09272,-0.203127 -1.82243,-0.213355 -1.20757,-0.01693 -1.47165,0.09866 -2.94011,1.286842 -2.56231,2.07326 -2.69296,2.419409 -2.79232,7.398194 l -0.0846,4.237935 0.83259,-0.807676 c 0.64985,-0.630409 0.87109,-1.115854 1.00802,-2.211811 0.3844,-3.076663 2.89403,-6.683582 5.37016,-7.718174 1.55345,-0.649074 4.45175,-1.169744 5.125,-0.920691 0.47011,0.173903 0.22617,0.255066 -1.10363,0.367194 -2.46432,0.207791 -4.6387,1.115036 -6.06543,2.530756 l -1.19796,1.188722 1.21211,-1.061722 c 1.42368,-1.247048 3.63053,-2.138852 5.87272,-2.373208 1.42377,-0.148812 1.58438,-0.118402 1.4347,0.271653 -0.23167,0.60373 -0.12408,0.558701 0.81936,-0.342898 1.2405,-1.185492 3.36329,-1.701505 6.26275,-1.522365 2.47663,0.153017 4.3744,0.732897 4.3744,1.336634 0,0.5569 -1.60611,2.845302 -2.93967,4.188463 -0.67507,0.67993 -1.93865,1.595279 -2.80797,2.034108 -1.63455,0.825117 -4.45093,1.373695 -5.62677,1.095986 -0.81807,-0.193212 -1.69968,0.202013 -2.01361,0.902703 -0.52482,1.171385 -7.24948,3.798533 -7.24948,2.832183 0,-0.14607 0.44649,-0.315726 0.99219,-0.377013 0.7288,-0.08185 0.66997,-0.0973 -0.22162,-0.05818 -0.84088,0.03689 -1.38958,0.229029 -1.78593,0.625385 -0.31468,0.314674 -0.68149,0.572134 -0.81514,0.572134 -0.13365,0 -0.48912,0.398219 -0.78992,0.88493 -0.48127,0.77871 -0.55633,1.384526 -0.62535,5.047121 -0.0431,2.289205 0.0147,4.219732 0.12846,4.29006 0.11379,0.07033 0.2069,-0.003 0.2069,-0.163043 0,-0.160002 0.25141,-0.630975 0.5587,-1.046607 0.49216,-0.665673 0.52188,-0.867301 0.24951,-1.692599 -0.32005,-0.96975 -0.15388,-2.691636 0.31701,-3.284966 0.14437,-0.181901 0.5361,-0.330729 0.87052,-0.330729 1.25625,0 1.14401,2.868027 -0.16237,4.149152 -0.85364,0.837131 -1.06914,1.490688 -0.24587,0.745639 0.29104,-0.263389 0.5332,-0.371139 0.53814,-0.239444 0.005,0.131694 0.22299,-0.212733 0.48455,-0.765395 0.26157,-0.552661 1.07438,-1.624224 1.80625,-2.38125 0.73187,-0.757026 1.7013,-1.929066 2.15428,-2.604535 1.954,-2.913702 4.61818,-4.343584 8.64341,-4.638973 1.67431,-0.122867 2.56991,-0.03804 4.28082,0.405447 2.14584,0.556227 5.728,2.037137 4.22923,1.748418 -0.45143,-0.08696 -0.68659,-0.04221 -0.591,0.112471 0.0873,0.141298 0.0378,0.331691 -0.11012,0.423094 -0.14789,0.0914 -0.26511,0.307991 -0.26048,0.481303 0.005,0.173313 0.18199,0.08568 0.39414,-0.194737 0.21215,-0.280419 0.44924,-0.446331 0.52688,-0.368693 0.0776,0.07764 -0.76239,1.038866 -1.86672,2.136064 -1.39612,1.387099 -2.61109,2.301077 -3.98768,2.999799 -1.75251,0.88953 -2.25072,1.017846 -4.33972,1.117722 -1.82655,0.08733 -2.86201,-0.01524 -4.58142,-0.453799 -1.22183,-0.311646 -2.44606,-0.484575 -2.72051,-0.384287 -0.84852,0.310055 -2.67601,1.640755 -2.83992,2.06791 -0.16195,0.422035 1.024,1.414817 1.32753,1.111295 0.0884,-0.0884 -0.15344,-0.280176 -0.53743,-0.426167 -0.38398,-0.14599 -0.69816,-0.29815 -0.69818,-0.338131 -1e-5,-0.03998 1.33944,-0.06248 2.97657,-0.05 3.4516,0.02632 4.40391,0.378185 6.61108,2.442738 1.36325,1.275157 1.92536,2.182707 2.83619,4.579152 0.97892,2.575583 0.71823,2.8032 -2.68889,2.347767 -2.57084,-0.343646 -4.97362,-1.364462 -6.27514,-2.665983 -1.04052,-1.040519 -2.08904,-3.166387 -2.18539,-4.430848 -0.0365,-0.478976 -0.18934,-0.965778 -0.33965,-1.081783 -0.42002,-0.324164 -2.02842,-0.823518 -1.88023,-0.58375 0.072,0.116547 -0.19179,0.451557 -0.58625,0.744467 -0.39447,0.29291 -1.01444,1.055984 -1.37771,1.695721 -0.62577,1.102027 -0.66312,1.39955 -0.71063,5.661075 l -0.0501,4.497916 -0.66921,0.08283 c -0.51841,0.06417 -0.69936,-0.05507 -0.80307,-0.529167 z"
       id="path27666" />
    <path
       style="fill:#586b31"
       d="m 202.76479,52.101052 c -0.49424,-0.958528 -1.35241,-1.78312 -1.66836,-1.603071 -0.16074,0.09161 -0.20864,0.07376 -0.10643,-0.03965 0.10221,-0.113415 0.0129,-0.379133 -0.19843,-0.590485 -0.21136,-0.211352 -0.38428,-0.711349 -0.38428,-1.111105 0,-1.055891 -0.7145,-3.296921 -1.61802,-5.074935 -1.31313,-2.584071 -3.92555,-4.372231 -7.29858,-4.995771 -1.94878,-0.360251 -1.8763,-0.371728 -2.00917,0.318146 l -0.11467,0.595312 -0.036,-0.603616 c -0.0517,-0.86603 0.49694,-0.962729 2.69174,-0.474432 2.38891,0.531483 5.01403,2.025462 6.07845,3.459298 1.24909,1.682605 2.2749,4.101187 2.46884,5.820833 0.14415,1.278203 0.33907,1.754487 1.00042,2.444579 0.45177,0.471393 0.88093,0.858595 0.95369,0.860448 0.0728,0.0019 0.0728,-1.358815 0,-3.023708 -0.12388,-2.834527 -0.17744,-3.07439 -0.84195,-3.770865 -1.02665,-1.076019 -2.26984,-3.581184 -2.48319,-5.003863 -0.11197,-0.746683 -0.0482,-1.812386 0.1625,-2.717507 0.19068,-0.818996 0.37544,-1.644694 0.41055,-1.834884 0.16167,-0.875537 2.98667,-5.078157 3.41354,-5.078157 0.60924,0 3.04916,4.207102 3.57059,6.156666 0.71578,2.676214 -0.17402,6.276205 -2.09089,8.459392 l -0.84804,0.965871 0.0811,3.454341 c 0.0446,1.899888 -0.0197,3.420523 -0.14287,3.379188 -0.12315,-0.04133 -0.23728,-1.44055 -0.25361,-3.109368 -0.0173,-1.767841 -0.1447,-3.115346 -0.30525,-3.228602 -0.17895,-0.126233 -0.1596,-0.195806 0.0552,-0.198437 0.1819,-0.0022 0.33073,-0.175894 0.33073,-0.385924 0,-0.21003 0.26789,-0.570574 0.59531,-0.801209 0.51114,-0.360046 0.5392,-0.459221 0.19844,-0.70142 -0.33672,-0.239323 -0.32828,-0.260116 0.0556,-0.137168 0.34949,0.111924 0.65067,-0.257772 1.32291,-1.623913 0.77912,-1.583321 0.86704,-1.991312 0.83827,-3.890268 -0.0319,-2.107436 -0.81302,-4.915345 -1.4243,-5.120052 -0.14484,-0.04851 -0.26335,-0.229228 -0.26335,-0.401602 0,-0.534141 -1.26095,-2.200134 -1.66523,-2.200134 -0.49302,0 -2.48058,2.926188 -3.01386,4.437155 -0.2258,0.639756 -0.47086,1.950937 -0.54458,2.913737 -0.17147,2.239395 0.39107,3.999613 1.87329,5.861644 1.08857,1.367508 1.10249,1.412185 1.1931,3.83104 0.0504,1.346067 0.16949,2.447395 0.26459,2.447395 0.0951,0 0.17289,0.654844 0.17289,1.455209 0,0.800364 -0.0256,1.455208 -0.0568,1.455208 -0.0313,0 -0.19497,-0.267891 -0.36379,-0.595313 z"
       id="path27519" />
    <path
       style="fill:#586b31"
       d="m 191.41146,58.068636 c -0.95101,-0.160906 -2.87247,-1.08046 -4.10427,-1.964182 -1.15159,-0.826177 -2.80309,-2.828191 -3.92188,-4.754251 -0.75137,-1.29353 -0.83525,-1.564255 -0.48462,-1.564255 0.12127,0 0.22049,0.170834 0.22049,0.37963 0,0.659033 1.99008,3.301736 3.69154,4.902142 2.34978,2.210223 3.86699,2.732881 7.5753,2.609594 1.56435,-0.05201 2.84427,-0.02059 2.84427,0.06982 0,0.345336 -4.2821,0.581851 -5.82083,0.321504 z"
       id="path27514" />
    <path
       style="fill:#586b31"
       d="m 199.99732,58.538384 c 0.2634,-0.42619 -1.22847,-1.388683 -1.89368,-1.221726 -0.33531,0.08416 -0.60677,0.03166 -0.60677,-0.117336 0,-0.148293 0.14883,-0.239858 0.33073,-0.203478 0.43896,0.08779 0.28676,-0.697304 -0.42318,-2.182813 -0.31295,-0.654843 -0.7476,-1.196037 -0.96588,-1.202651 -0.21828,-0.0066 -0.36219,-0.170197 -0.3198,-0.363517 0.11532,-0.525905 -1.44402,-1.796806 -3.36484,-2.742421 -1.51516,-0.745912 -2.04033,-0.856087 -4.76381,-0.999406 l -3.06092,-0.161077 2.84148,-0.04359 c 2.52916,-0.0388 3.03766,0.03494 4.6262,0.670879 2.31773,0.927852 5.09184,3.586611 5.6245,5.390639 0.25816,0.874328 0.65321,1.41924 1.50047,2.069661 1.2012,0.922131 1.43505,1.350232 0.73756,1.350232 -0.22687,0 -0.34479,-0.109528 -0.26206,-0.243397 z"
       id="path27513" />
    <path
       style="fill:#586b31"
       d="m 214.69479,67.097257 c 0,-0.08316 0.14883,-0.297184 0.33073,-0.47562 0.35908,-0.352241 1.56423,-0.450363 1.35402,-0.110243 -0.17801,0.288027 1.40738,0.260081 3.06353,-0.054 2.23066,-0.423034 5.01659,-2.41256 6.85797,-4.897487 0.2041,-0.275434 1.09375,-2.01293 1.09375,-2.136109 0,-0.207808 -3.8705,-0.906599 -5.02152,-0.906599 -1.49274,0 -4.36135,0.862367 -5.13627,1.544079 -0.4807,0.422877 -0.48596,0.416618 -0.13281,-0.158199 0.6489,-1.05621 2.41519,-1.521343 5.66039,-1.490601 3.00776,0.02849 4.89479,0.511755 4.89479,1.253535 0,0.5569 -1.60611,2.845302 -2.93967,4.188463 -0.67507,0.67993 -1.93865,1.595279 -2.80797,2.034108 -1.73006,0.873332 -4.53421,1.381955 -5.77908,1.048222 -0.46514,-0.124701 -0.81176,-0.103955 -0.8646,0.05175 -0.0933,0.274986 -0.57326,0.365995 -0.57326,0.108704 z"
       id="path27503" />
    <path
       style="fill:#586b31"
       d="m 214.27424,66.265056 c 0.77995,-1.571278 0.84887,-1.97325 0.30239,-1.763546 -0.25045,0.09611 -0.0897,-0.435499 0.46502,-1.538101 0.89321,-1.775302 0.96516,-2.591457 0.22905,-2.598179 -0.38311,-0.0035 -0.38949,-0.03903 -0.0467,-0.260532 0.57663,-0.37265 0.97973,-0.321872 1.15928,0.146033 0.0867,0.22584 0.0597,0.350139 -0.0599,0.276222 -0.11961,-0.07392 -0.21746,0.02761 -0.21746,0.225616 0,0.216013 0.16756,0.299241 0.41892,0.208081 0.3731,-0.135309 0.37164,-0.09637 -0.0133,0.355954 -0.61074,0.717709 -1.60625,2.756844 -1.34589,2.756844 0.11938,0 0.35992,-0.142875 0.53455,-0.3175 0.24694,-0.246945 0.3175,-0.246945 0.3175,0 0,0.174625 -0.0901,0.3175 -0.20017,0.3175 -0.11009,0 -0.35154,0.485034 -0.53656,1.077853 -0.18502,0.592819 -0.64138,1.396491 -1.01413,1.785937 l -0.67774,0.708084 z"
       id="path27502" />
    <path
       style="fill:#586b31"
       d="m 209.08567,70.288459 c 1.20784,-0.364402 2.5473,-0.899822 2.97656,-1.189822 0.42926,-0.290001 1.13766,-0.768963 1.57423,-1.064362 0.43656,-0.295398 0.79375,-0.415954 0.79375,-0.267902 0,0.71955 -4.25828,2.792287 -6.21771,3.026503 -1.15648,0.138238 -1.04663,0.07478 0.87317,-0.504417 z"
       id="path27497" />
    <path
       style="fill:#586b31"
       d="m 212.71782,77.820484 c -1.01457,-0.283935 -2.05636,-0.449057 -2.3151,-0.366938 -0.25874,0.08212 -0.47043,0.02222 -0.47043,-0.133104 0,-0.44611 1.55724,-0.3311 3.70948,0.273964 1.56201,0.439131 2.4251,0.526131 4.09573,0.412849 3.23692,-0.219488 5.14046,-1.215633 8.29841,-4.342651 0.93002,-0.920906 1.73805,-1.627266 1.79563,-1.569689 0.0576,0.05758 -0.79887,1.002394 -1.9032,2.099592 -1.40277,1.393705 -2.60999,2.300518 -4.00578,3.008987 -1.88409,0.956312 -2.15063,1.017474 -4.67898,1.073658 -1.99763,0.04439 -3.15132,-0.07202 -4.52576,-0.456668 z"
       id="path27496" />
    <path
       style="fill:#586b31"
       d="m 186.35446,78.241653 c -2.32572,-0.64131 -3.78384,-1.574806 -6.1401,-3.930911 -1.9212,-1.92108 -2.27735,-2.401127 -2.01548,-2.716659 0.17494,-0.21079 1.51705,-0.755749 2.98248,-1.211021 4.41641,-1.372075 8.55127,-1.04769 11.44628,0.897976 1.35754,0.912365 3.27816,3.216774 3.2804,3.935895 7.3e-4,0.235324 0.47758,0.743029 1.05967,1.128233 0.58208,0.385205 1.05471,0.847511 1.05028,1.027347 -0.005,0.19272 -0.1108,0.151107 -0.25831,-0.101349 -0.13765,-0.235578 -0.59004,-0.569062 -1.00531,-0.741074 -0.4854,-0.201058 -0.92774,-0.704174 -1.23862,-1.408784 -0.7609,-1.724619 -2.4446,-3.365229 -4.36888,-4.257054 -1.40899,-0.653012 -2.16017,-0.8183 -4.15659,-0.91461 -2.53711,-0.122392 -5.66492,0.407861 -6.88045,1.166433 -0.3223,0.201138 -0.76176,0.365705 -0.97657,0.365705 -0.89312,0 -0.59067,0.604874 1.29689,2.593731 2.71573,2.861474 4.6483,3.842054 7.83488,3.975396 1.57839,0.06605 2.7967,-0.04359 3.96875,-0.35716 0.93017,-0.248855 1.98887,-0.505438 2.35268,-0.570185 1.4324,-0.254929 -0.24814,0.4563 -2.29969,0.97326 -2.34238,0.590243 -4.15641,0.63453 -5.93231,0.144831 z"
       id="path27494" />
    <path
       style="fill:#586b31"
       d="m 210.87465,57.760529 c 3.1315,0.526184 5.48966,-0.184917 8.26598,-2.492607 1.22083,-1.014756 4.02082,-4.445772 4.02082,-4.926979 0,-0.316826 -2.78392,-0.819578 -4.5383,-0.819578 -1.84626,0 -5.23667,0.727727 -6.28503,1.349035 -2.1478,1.272888 -4.5149,4.348243 -4.52001,5.872459 -10e-4,0.436793 -0.13779,0.721633 -0.33322,0.696255 -0.65095,-0.08453 -1.02097,0.02371 -0.87706,0.256558 0.0858,0.138793 0.60182,0.13447 1.24679,-0.01044 0.74299,-0.166939 1.72396,-0.14248 3.02003,0.0753 z"
       id="path27490" />
    <path
       style="fill:#586b31"
       d="m 205.49763,59.623574 c 0.26112,-0.191858 0.40705,-0.458385 0.3243,-0.592282 -0.0828,-0.133897 0.0152,-0.179864 0.21777,-0.102148 0.20252,0.07772 0.53613,-0.06556 0.74134,-0.318403 0.20522,-0.252837 0.23447,-0.376576 0.065,-0.274975 -0.16947,0.101601 -0.35455,0.04547 -0.41128,-0.124736 -0.0657,-0.197027 -0.359,-0.08701 -0.80733,0.302802 -0.38729,0.336747 -0.6303,0.731785 -0.54002,0.877863 0.0903,0.146078 0.0327,0.184335 -0.12804,0.08501 -0.1607,-0.09932 -0.42141,0.06088 -0.57935,0.355995 -0.15795,0.295117 -0.19964,0.536577 -0.0926,0.536577 0.10698,0 0.0516,0.142875 -0.12299,0.3175 -0.17462,0.174625 -0.3175,0.428807 -0.3175,0.564848 0,0.136041 0.2646,-0.09613 0.588,-0.515937 0.32341,-0.419807 0.80165,-0.920261 1.06276,-1.112118 z"
       id="path27489" />
    <path
       style="fill:#586b31"
       d="m 203.38563,77.277117 c 0.0487,-3.122357 0.15681,-4.237915 0.44423,-4.584227 0.31571,-0.380394 0.31976,-0.494834 0.024,-0.677629 -0.58812,-0.363478 -1.10237,-0.0092 -0.90325,0.622332 0.13851,0.439313 -0.006,0.367716 -0.65358,-0.323898 -0.45727,-0.488332 -0.8314,-0.98461 -0.8314,-1.102839 0,-0.11823 -0.0742,-0.43306 -0.16484,-0.699623 -0.12304,-0.361719 -0.0521,-0.33365 0.27958,0.110652 0.24444,0.327422 0.55675,0.595312 0.69402,0.595312 0.14676,0 0.24958,-1.885884 0.24958,-4.578084 v -4.578085 l -0.7838,-1.065798 c -0.43109,-0.586189 -1.32406,-1.407294 -1.98438,-1.824677 -0.66031,-0.417383 -1.20057,-0.902583 -1.20057,-1.078221 0,-0.192034 -0.23733,-0.269222 -0.59532,-0.193618 -0.5404,0.114128 -0.55084,0.09745 -0.11327,-0.180855 0.38147,-0.24261 0.57904,-0.218805 0.94688,0.114088 0.25566,0.231367 0.60055,0.420667 0.76642,0.420667 0.16588,0 0.24575,0.148829 0.1775,0.33073 -0.0682,0.181901 0.19735,0.479557 0.59022,0.661458 0.90562,0.419307 1.33858,0.42549 0.92632,0.01323 -0.45902,-0.45902 -0.39108,-0.866689 0.0794,-0.47625 0.21828,0.181157 0.39688,0.478814 0.39688,0.661458 0,0.182645 0.17859,0.480301 0.39687,0.661459 0.34907,0.289701 0.39688,-0.05732 0.39688,-2.880903 0,-4.517996 -0.68372,-5.882029 -3.42774,-6.838409 -0.51584,-0.179788 -1.23555,-0.329843 -1.59935,-0.333455 -1.87083,-0.01858 -5.14643,-2.383691 -6.20813,-4.482527 -0.73699,-1.456917 -1.73694,-4.616734 -1.70967,-5.402471 0.0108,-0.312093 0.28591,0.385057 0.61128,1.549224 0.80336,2.874395 1.7549,4.620996 3.22019,5.910792 1.37198,1.207672 3.83807,2.255497 4.93089,2.095105 0.41527,-0.06095 0.64891,0.002 0.55735,0.150131 -0.0932,0.150868 0.13248,0.199611 0.55251,0.119316 0.50826,-0.09716 0.78263,-3.29e-4 0.96509,0.340594 0.14021,0.261992 0.46974,0.544527 0.73229,0.627856 0.78245,0.248341 1.63841,2.352 1.65139,4.058596 0.006,0.832852 0.10883,2.017074 0.22775,2.631605 0.12009,0.620543 0.11497,1.054746 -0.0115,0.976573 -0.12526,-0.07742 -0.22775,0.09447 -0.22775,0.381976 0,0.287503 0.14883,0.584706 0.33073,0.660452 0.23587,0.09822 0.18675,0.253883 -0.17127,0.54274 -0.2761,0.222761 -0.60352,0.342277 -0.72761,0.265589 -0.35109,-0.216989 -0.25007,0.234079 0.17969,0.802265 0.27283,0.360712 0.38846,1.202703 0.38846,2.828655 0,1.273286 0.11906,2.38865 0.26458,2.478587 0.14552,0.08994 0.26459,0.950245 0.26459,1.911795 0,0.961551 0.0597,1.688551 0.13271,1.615556 0.073,-0.07299 0.14818,-4.078785 0.16708,-8.901755 0.0191,-4.883824 0.13617,-8.706111 0.26416,-8.627013 0.23661,0.146232 0.3353,-0.250019 0.23599,-0.94754 -0.0311,-0.218282 0.0277,-0.314046 0.13067,-0.212809 0.10294,0.101237 0.56075,-0.166103 1.01734,-0.594088 0.45659,-0.427985 0.98702,-0.778706 1.17873,-0.779379 0.23456,-8.24e-4 0.29379,-0.195926 0.18111,-0.596537 -0.11909,-0.423358 -0.0944,-0.489707 0.0855,-0.229702 0.18994,0.274538 0.50731,0.310376 1.27411,0.14387 0.56163,-0.121956 1.19261,-0.206643 1.40216,-0.188191 0.56476,0.04973 2.77749,-1.132851 3.80073,-2.03127 1.60633,-1.410373 3.35889,-5.542445 3.35889,-7.919356 0,-0.960248 0.11808,-0.935349 -1.92502,-0.405928 -2.28638,0.59246 -4.56724,1.817938 -5.84068,3.138125 -1.18955,1.233216 -2.27392,3.677865 -2.49282,5.619925 -0.0717,0.63639 -0.24635,1.228722 -0.38804,1.316293 -0.28449,0.175827 -0.11592,-1.373312 0.29217,-2.684912 1.28691,-4.136161 3.84491,-6.534623 8.16252,-7.653427 2.42366,-0.628036 2.45646,-0.616575 2.45646,0.858531 0,2.417873 -1.3505,5.813016 -3.0688,7.714978 -1.10771,1.226092 -2.70548,2.051849 -4.64678,2.401524 -1.94212,0.349824 -1.84281,0.31158 -2.89704,1.115678 -0.51904,0.39589 -1.26056,1.301975 -1.64784,2.013522 -0.64332,1.182006 -0.70413,1.549172 -0.70413,4.251946 v 2.958223 l 1.65365,-1.604361 c 0.9095,-0.882399 1.74294,-1.604634 1.85208,-1.604967 0.10914,-3.33e-4 0.19956,-0.208965 0.20092,-0.463626 0.005,-0.936445 1.62671,-3.256547 3.17944,-4.548746 2.32464,-1.934587 4.34069,-2.496752 8.41375,-2.346135 2.94908,0.109054 4.27933,0.431882 4.27933,1.038518 0,0.549821 -1.98825,3.254927 -3.4193,4.652109 -0.80479,0.785751 -2.18039,1.781312 -3.05688,2.212359 -1.65765,0.815214 -4.69575,1.363445 -5.59585,1.009783 -0.27263,-0.107117 -1.09272,-0.203127 -1.82243,-0.213355 -1.20757,-0.01693 -1.47165,0.09866 -2.94011,1.286842 -2.56231,2.07326 -2.69296,2.419409 -2.79232,7.398194 l -0.0846,4.237935 0.83259,-0.807676 c 0.64985,-0.630409 0.87109,-1.115854 1.00802,-2.211811 0.3844,-3.076663 2.89403,-6.683582 5.37016,-7.718174 1.55714,-0.650617 4.45161,-1.169797 5.12759,-0.919737 0.4617,0.170795 0.16135,0.256025 -1.26083,0.357781 -2.2529,0.161194 -4.54455,1.129679 -6.008,2.539065 -1.48084,1.426137 -2.82958,4.365236 -2.92799,6.380505 -0.0435,0.890685 -0.16248,1.702819 -0.2644,1.804743 -0.10192,0.101923 -0.10043,-0.04918 0.003,-0.335786 0.16665,-0.460358 0.10755,-0.447224 -0.50703,0.11267 -0.38262,0.348575 -0.62493,0.748239 -0.53846,0.888143 0.0865,0.139904 0.23162,0.152363 0.32257,0.02769 0.0909,-0.124677 0.46302,-0.260098 0.82683,-0.300937 0.63889,-0.07172 0.64393,-0.06044 0.14786,0.330729 -0.28247,0.22274 -0.60018,0.404981 -0.70602,0.404981 -0.10584,0 -0.44995,0.416666 -0.76469,0.925925 -0.5106,0.826169 -0.57221,1.300183 -0.57191,4.399792 1.9e-4,1.910628 -0.1084,3.726384 -0.2413,4.035014 -0.1562,0.362721 -0.21888,-0.898017 -0.17727,-3.565394 z"
       id="path27488" />
    <path
       style="fill:#586b31"
       d="m 190.73232,66.42609 c -0.0816,-0.132019 0.0378,-0.42622 0.26539,-0.653779 0.22756,-0.22756 0.40953,-0.613599 0.40437,-0.857866 -0.007,-0.320069 -0.11018,-0.262065 -0.37026,0.207658 -0.32919,0.594549 -0.3552,0.490003 -0.2962,-1.190625 0.076,-2.166015 -0.23395,-2.930241 -1.6313,-4.021835 -1.76963,-1.382405 -5.16795,-1.796277 -8.0201,-0.976748 -0.7957,0.228634 -1.65044,0.432741 -1.89944,0.453572 -0.39972,0.03344 -0.40746,0.08788 -0.0661,0.465031 0.21262,0.234937 0.38658,0.55669 0.38658,0.715005 0,0.158316 0.10126,0.327535 0.22504,0.376042 0.12377,0.04851 0.55271,0.611216 0.95321,1.250464 0.57114,0.911619 0.78476,1.082796 0.99055,0.79375 0.20822,-0.292466 0.23297,-0.276457 0.11991,0.07758 -0.33951,1.063208 3.17679,3.384544 5.5165,3.641787 1.6976,0.186647 3.61342,0.02987 3.4219,-0.280031 z"
       id="path27484" />
    <path
       style="fill:#586b31"
       d="m 202.52396,83.467808 c 0,-0.29567 -0.26486,-0.87429 -0.58857,-1.285823 -0.46598,-0.592402 -0.49538,-0.712481 -0.14114,-0.576546 0.29099,0.111661 0.11193,-0.295308 -0.51209,-1.163894 -0.62534,-0.87043 -0.8575,-1.398646 -0.66658,-1.51664 0.18979,-0.117299 0.20612,-0.318336 0.0464,-0.570941 -0.32602,-0.515524 -0.32081,-0.858876 0.01,-0.654476 0.46946,0.29014 0.28097,-0.380486 -0.25858,-0.92004 -0.51402,-0.514021 -1.32892,-0.477668 -1.32892,0.05928 0,0.150289 0.17638,0.405441 0.39194,0.567005 0.28022,0.21002 0.3165,0.406878 0.12726,0.690626 -0.22903,0.34344 -0.31743,0.327725 -0.65652,-0.116715 -0.54641,-0.71618 -0.4885,-1.400436 0.14732,-1.740716 1.19977,-0.642101 2.19789,0.529464 1.98166,2.326031 -0.0959,0.796481 0.0254,1.161234 0.62939,1.892769 l 0.74813,0.90616 -0.0309,-3.684285 c -0.0298,-3.545228 -0.0584,-3.726474 -0.75764,-4.802071 -0.90973,-1.399309 -1.60024,-1.855868 -3.10976,-2.05614 -2.98557,-0.396104 -4.299,-0.967878 -5.86536,-2.553358 -1.49089,-1.50909 -1.50568,-1.516401 -2.50834,-1.239552 -2.30571,0.636637 -5.68913,-0.417887 -7.91054,-2.465512 -1.41088,-1.300508 -3.94222,-4.978891 -3.63212,-5.27798 0.46502,-0.448513 3.75426,-1.074156 5.64724,-1.074156 2.2812,0 3.99451,0.417983 4.64087,1.132199 0.347,0.383436 0.54303,0.42193 0.97403,0.191267 0.95842,-0.512928 3.6619,-0.108793 5.51384,0.824246 2.9165,1.469376 4.76905,3.777044 5.14182,6.40501 0.0894,0.63049 0.28386,1.54426 0.43206,2.0306 0.19047,0.625079 0.18353,0.970174 -0.0237,1.177396 -0.21446,0.214466 -0.29857,0.154671 -0.31338,-0.222796 -0.0111,-0.283766 -0.0574,-0.694531 -0.10289,-0.912813 -0.0455,-0.218281 -0.20998,-1.076496 -0.3656,-1.907145 -0.39199,-2.092274 -1.10972,-3.372028 -2.68589,-4.789144 -1.5367,-1.381626 -3.5548,-2.233679 -5.81735,-2.456121 -1.46355,-0.143888 -1.54542,-0.121755 -1.41364,0.382169 0.11836,0.452577 0.24326,0.495601 0.81153,0.279545 0.3694,-0.140447 0.72871,-0.198291 0.79846,-0.128541 0.0697,0.06975 -0.17522,0.202623 -0.54437,0.295275 l -0.67119,0.168456 0.90455,1.887477 c 0.4975,1.038112 0.89074,2.188491 0.87386,2.556398 -0.0251,0.548129 -0.0541,0.573366 -0.16045,0.139756 -0.25629,-1.045205 -1.21531,-2.903474 -1.32851,-2.574227 -0.0636,0.184904 0.13494,0.816828 0.44113,1.404277 0.49714,0.953778 0.51385,1.110958 0.15616,1.468648 -0.5441,0.5441 -0.51161,0.698477 0.30327,1.441119 0.49553,0.451607 0.65708,0.510886 0.54587,0.200309 -0.0869,-0.242618 -0.0124,-0.496982 0.16552,-0.565252 0.18446,-0.07078 0.32347,0.09037 0.32347,0.374978 0,0.274509 -0.11582,0.499107 -0.25738,0.499107 -0.51401,0 1.21292,1.517871 2.40332,2.112388 1.29887,0.648684 4.54535,1.147729 4.96569,0.763317 0.14707,-0.134502 -0.1064,-0.229872 -0.61093,-0.229872 -0.47426,0 -0.79498,-0.108893 -0.71273,-0.241985 0.0823,-0.133092 -1e-5,-0.302286 -0.18282,-0.375987 -0.2379,-0.09591 -0.24281,-0.139939 -0.0173,-0.15489 0.17331,-0.01149 0.38869,0.09817 0.47863,0.243695 0.30665,0.496174 0.88304,0.289567 0.73812,-0.264583 -0.0761,-0.291042 -0.27397,-0.529167 -0.43968,-0.529167 -0.16572,0 -0.80692,-0.47625 -1.42489,-1.058333 -0.61797,-0.582083 -1.01885,-1.058333 -0.89086,-1.058333 0.128,0 0.38095,0.178593 0.5621,0.396875 0.46467,0.55989 0.93694,0.496834 0.49542,-0.06615 -0.3286,-0.419002 -0.31938,-0.428729 0.097,-0.102313 0.25306,0.19839 0.40049,0.457176 0.32762,0.575081 -0.0729,0.117905 0.2261,0.469709 0.66437,0.781787 0.43828,0.312079 0.80905,0.470011 0.82395,0.350961 0.0149,-0.119049 0.11825,0.140734 0.22968,0.577296 0.11143,0.436563 0.24807,0.96659 0.30365,1.177838 0.0556,0.211248 0.45415,0.784005 0.88574,1.272792 1.32365,1.499103 1.44245,2.081278 1.47654,7.236227 0.0174,2.627486 -0.0378,4.846652 -0.12263,4.93148 -0.0848,0.08483 -0.15423,-0.08768 -0.15423,-0.383351 z"
       id="path27483" />
    <path
       style="fill:#586b31"
       d="m 206.21685,77.888366 c 0.37781,-1.360357 0.35114,-1.525806 -0.25331,-1.571338 -0.36083,-0.02718 -0.52917,0.123241 -0.52917,0.472862 0,0.281998 -0.11906,0.512723 -0.26458,0.512723 -0.14552,0 -0.26458,0.238125 -0.26458,0.529167 0,0.291042 0.11906,0.529167 0.26458,0.529167 0.14552,0 0.26458,0.18562 0.26458,0.41249 0,0.706744 0.49629,0.145384 0.78248,-0.885071 z"
       id="path27479" />
    <path
       style="fill:#586b31"
       d="m 220.12086,88.940858 c 0.17858,-0.288946 -0.60165,-2.552647 -1.45914,-4.233481 -1.05314,-2.064327 -4.24305,-4.383673 -6.21589,-4.519498 -2.08189,-0.143332 -2.68366,0.0054 -3.04487,0.752755 -0.36156,0.748026 -0.36502,1.584201 -0.008,2.050521 0.11125,0.145521 0.27484,0.569462 0.36352,0.942091 0.65987,2.77265 4.68193,4.964802 9.61955,5.24296 0.31883,0.01796 0.65423,-0.08794 0.74533,-0.235348 z"
       id="path27478" />
    <path
       style="fill:#586b31"
       d="m 188.23646,89.072645 c 1.86819,-0.258183 4.36607,-1.148624 5.47175,-1.950563 1.20365,-0.872993 2.43412,-2.572675 2.62516,-3.626187 0.0756,-0.416929 0.22762,-0.82012 0.33781,-0.89598 0.11019,-0.07586 0.18271,-0.584005 0.16115,-1.129213 -0.0216,-0.545207 0.0189,-0.933193 0.0899,-0.862191 0.14612,0.146125 0.83924,-0.371485 0.83924,-0.626734 0,-0.227317 -4.07985,-0.159419 -4.45784,0.07419 -0.16647,0.102885 -0.52907,0.230664 -0.80577,0.283952 -0.77295,0.148857 -2.57861,1.365325 -3.71829,2.505008 -1.03853,1.038527 -2.80616,4.383907 -3.10447,5.875438 -0.15587,0.779389 -0.13143,0.806278 0.60415,0.664539 0.42162,-0.08124 1.30237,-0.221759 1.95722,-0.312258 z"
       id="path27477" />
    <path
       style="fill:#586b31"
       d="m 202.40854,92.598984 c -0.0736,-0.336598 -0.16948,-2.338402 -0.21301,-4.448454 -0.0884,-4.283791 -0.37399,-5.254464 -2.14106,-7.276042 l -0.92509,-1.058333 -0.91691,0.487649 c -0.7913,0.420843 -0.93521,0.649945 -1.05044,1.672332 -0.0734,0.651576 -0.48564,1.860884 -0.91599,2.687351 -1.36953,2.630113 -3.9114,4.070517 -8.60409,4.875687 -2.28538,0.392122 -2.53383,0.20241 -2.04086,-1.558315 0.91429,-3.265517 3.25603,-6.26451 5.95978,-7.632479 1.26018,-0.637593 1.87017,-0.763012 4.1691,-0.8572 1.48112,-0.06068 2.8699,-0.16827 3.08617,-0.239085 0.25428,-0.08326 -0.18623,-0.497171 -1.24668,-1.171409 -0.90194,-0.573461 -1.74893,-1.042656 -1.88218,-1.042656 -0.13325,0 -0.39994,-0.208359 -0.59265,-0.463021 -0.29806,-0.393904 -0.295,-0.413652 0.0205,-0.132291 0.20399,0.181901 0.56698,0.330729 0.80666,0.330729 0.23967,0 0.70562,0.234046 1.03545,0.520103 0.32982,0.286057 1.12129,0.772608 1.7588,1.081226 1.14067,0.552185 1.70615,1.044504 1.19973,1.044504 -0.14199,0 -0.31821,-0.148828 -0.39161,-0.330729 -0.0905,-0.224386 -0.14016,-0.231948 -0.15434,-0.02352 -0.0115,0.168965 0.33709,0.608428 0.77462,0.976585 0.4878,0.410457 1.09678,1.421768 1.57438,2.614517 0.70103,1.750726 0.79741,2.36052 0.96427,6.101019 0.14362,3.219138 0.26585,4.155877 0.54229,4.155877 0.28369,0 0.36496,-0.908955 0.39625,-4.43177 0.0217,-2.437474 0.0154,-5.008212 -0.0139,-5.712752 -0.035,-0.840711 0.0424,-1.221825 0.22521,-1.108864 0.15317,0.09466 0.2785,0.04121 0.2785,-0.118795 0,-0.160002 0.25141,-0.630975 0.5587,-1.046607 0.49216,-0.665673 0.52188,-0.867301 0.24951,-1.692599 -0.32005,-0.96975 -0.15388,-2.691636 0.31701,-3.284966 0.14437,-0.181901 0.54017,-0.330729 0.87956,-0.330729 1.2614,0 1.08538,2.911907 -0.2585,4.276253 -0.69274,0.70329 -2.01312,2.988281 -2.00641,3.472197 0.002,0.176738 0.26653,-0.09538 0.58684,-0.6047 0.32031,-0.509323 0.79455,-1.081621 1.05387,-1.271774 0.25933,-0.190153 0.4715,-0.489315 0.4715,-0.664806 0,-0.17549 0.28979,-0.536694 0.64397,-0.802676 0.38284,-0.287498 0.58259,-0.643563 0.4926,-0.87807 -0.0952,-0.248168 0.38832,-0.950727 1.30379,-1.8943 0.80034,-0.824908 1.82567,-2.052488 2.27853,-2.727957 1.95417,-2.914822 4.62293,-4.346437 8.64257,-4.636164 2.3294,-0.167898 4.49984,0.247423 7.48587,1.432447 2.22596,0.883384 1.89142,1.097551 -0.39339,0.251839 -3.92253,-1.451906 -4.9565,-1.634794 -7.4502,-1.317779 -2.86872,0.364691 -4.22293,0.830358 -5.70299,1.961068 -1.30663,0.998218 -3.70198,4.342751 -3.42789,4.786232 0.0992,0.160437 0.056,0.212264 -0.0977,0.117292 -0.27163,-0.167877 -2.45227,1.629908 -2.45227,2.021726 0,0.271193 0.79083,-0.1751 1.5074,-0.850677 0.31975,-0.301456 0.64791,-0.44042 0.72925,-0.308808 0.0813,0.131612 -0.27107,0.49823 -0.78314,0.814706 -1.36961,0.846463 -1.62079,1.464651 -0.81076,1.995402 0.487,0.319093 0.77233,0.356844 1.12896,0.149369 0.4257,-0.247659 0.4058,-0.278952 -0.18421,-0.289743 -0.36381,-0.0067 -0.79896,-0.09957 -0.96702,-0.206483 -0.16805,-0.106912 1.02257,-0.184174 2.64584,-0.171692 3.4236,0.02633 4.38295,0.382155 6.58588,2.442738 1.36325,1.275157 1.92536,2.182707 2.83619,4.579152 0.97892,2.575583 0.71823,2.8032 -2.68889,2.347767 -2.57084,-0.343646 -4.97362,-1.364462 -6.27514,-2.665983 -1.03049,-1.030487 -2.05623,-3.116441 -2.20171,-4.47741 -0.1,-0.935251 -0.47473,-1.254443 -2.01881,-1.719496 -0.45209,-0.136163 -0.57397,-0.101142 -0.43434,0.124795 0.11297,0.182778 -0.0374,0.476244 -0.35973,0.702002 -0.30462,0.213361 -0.88307,0.947986 -1.28546,1.632501 -0.71481,1.216006 -0.73273,1.347815 -0.78078,5.74249 l -0.0492,4.497916 -0.66921,0.08283 c -0.51841,0.06417 -0.69936,-0.05507 -0.80307,-0.529167 z"
       id="path27476" />
    <path
       style="fill:#212512"
       d="m 199.1196,38.541157 c -0.0699,-2.122256 1.88953,-6.922387 3.30551,-8.097545 0.23783,-0.197386 -0.15382,0.539156 -0.87035,1.636759 -1.24989,1.914639 -1.51093,2.676226 -2.3052,6.72537 -0.0633,0.32288 -0.114,0.219736 -0.12996,-0.264584 z"
       id="path27312" />
    <path
       style="fill:#212512"
       d="m 205.25098,42.963244 c 0.74043,-0.818161 1.30279,-2.499774 1.52306,-4.554378 l 0.21274,-1.984375 -0.0717,1.998846 c -0.0753,2.098466 -1.10525,5.012612 -1.77167,5.012612 -0.21045,0 -0.17357,-0.162057 0.10756,-0.472705 z"
       id="path27309" />
    <path
       style="fill:#212512"
       d="m 207.28646,43.458391 c 0,-0.966067 4.68742,-4.558571 5.87818,-4.505117 0.18674,0.0084 -0.28344,0.298367 -1.04484,0.64441 -1.79319,0.814973 -3.1532,1.863663 -4.0856,3.150358 -0.41126,0.567537 -0.74774,0.887194 -0.74774,0.710349 z"
       id="path27308" />
    <path
       style="fill:#212512"
       d="m 208.36687,49.411092 c 0.0798,-0.07979 0.59755,-0.20301 1.15057,-0.273814 0.55302,-0.0708 1.61674,-0.473214 2.36382,-0.894243 1.61794,-0.911823 3.34702,-3.297077 4.15555,-5.732549 0.3221,-0.970256 0.46994,-1.227814 0.38001,-0.662037 -0.20814,1.309332 -1.49692,3.958529 -2.45857,5.053796 -1.03807,1.182286 -3.16582,2.344074 -4.61239,2.518436 -0.61824,0.07452 -1.05879,0.07021 -0.97899,-0.0096 z"
       id="path27301" />
    <path
       style="fill:#212512"
       d="m 197.56823,50.036229 c -2.69537,-0.53198 -5.01528,-2.190161 -6.25758,-4.472689 -0.40998,-0.753261 -0.6974,-1.417582 -0.63871,-1.476269 0.0587,-0.05869 0.45505,0.559119 0.8808,1.372901 0.42576,0.813783 1.27591,1.890796 1.88923,2.393364 1.25579,1.029028 3.40013,1.932412 4.58691,1.932412 0.435,0 0.79091,0.119063 0.79091,0.264584 0,0.14552 -0.0298,0.251538 -0.0662,0.235594 -0.0364,-0.01594 -0.56981,-0.128398 -1.18541,-0.249897 z"
       id="path27300" />
    <path
       style="fill:#212512"
       d="m 195.5125,52.254217 c -0.58209,-0.522108 -1.83224,-1.320824 -2.77813,-1.774924 -1.49117,-0.71588 -2.10668,-0.847116 -4.63021,-0.987214 l -2.91041,-0.161578 3.04271,0.03202 c 2.81926,0.02967 3.15791,0.09011 4.61151,0.823036 1.29112,0.651009 4.31708,3.020232 3.85515,3.018457 -0.0728,-2.79e-4 -0.60854,-0.427687 -1.19062,-0.949795 z"
       id="path27297" />
    <path
       style="fill:#212512"
       d="m 215.79722,57.464902 c 1.97895,-0.597601 4.78688,-3.080654 6.73485,-5.95563 0.49168,-0.725662 0.89397,-1.226981 0.89397,-1.114042 0,0.297626 -1.58644,2.598446 -2.51646,3.649632 -1.66485,1.881751 -4.32783,3.70427 -5.34176,3.655844 -0.30234,-0.01444 -0.21861,-0.100516 0.2294,-0.235804 z"
       id="path27293" />
    <path
       style="fill:#212512"
       d="m 189.12269,57.126447 c -1.88847,-0.995941 -2.76842,-1.722011 -4.08635,-3.371749 -1.32997,-1.664815 -1.58634,-2.232322 -0.35857,-0.79375 2.39432,2.805415 4.34166,4.214189 6.60139,4.775687 0.72842,0.180995 0.73931,0.19932 0.1323,0.222625 -0.36381,0.01397 -1.39375,-0.360799 -2.28877,-0.832813 z"
       id="path27292" />
    <path
       style="fill:#212512"
       d="m 188.25453,59.2366 c -0.69487,-0.428325 -1.53316,-0.599729 -3.57187,-0.730341 l -2.66391,-0.170665 2.06565,-0.04149 c 2.41149,-0.04844 4.19846,0.337215 4.83823,1.044151 0.55925,0.617967 0.47972,0.605865 -0.6681,-0.101655 z"
       id="path27290" />
    <path
       style="fill:#212512"
       d="m 203.63506,57.128135 0.0528,-3.241145 0.14566,3.042708 c 0.10322,2.156059 0.22276,2.927058 0.41025,2.645833 0.14552,-0.218281 0.56048,-0.635 0.92214,-0.926042 0.4664,-0.375326 0.38948,-0.208766 -0.26458,0.572917 -0.50718,0.606146 -1.01144,1.112161 -1.12058,1.124479 -0.10914,0.01232 -0.17469,-1.436119 -0.14567,-3.21875 z"
       id="path27289" />
    <path
       style="fill:#212512"
       d="m 182.70911,64.962843 c -1.52946,-1.309157 -4.30817,-5.122729 -3.73262,-5.122729 0.15248,0 0.3897,0.267891 0.52716,0.595313 0.49613,1.181726 2.54753,3.768124 3.66425,4.619874 0.62752,0.478627 1.03406,0.87023 0.90342,0.87023 -0.13064,0 -0.74364,-0.43321 -1.36221,-0.962688 z"
       id="path27278" />
    <path
       style="fill:#212512"
       d="m 206.12217,65.925531 c 0.56305,-2.14228 2.43867,-4.460845 4.42143,-5.465582 1.26666,-0.641866 4.88346,-1.563259 5.13783,-1.308883 0.0692,0.06917 -0.33289,0.202813 -0.89346,0.296989 -4.01244,0.674088 -6.44414,2.281143 -7.89084,5.214878 -0.52185,1.058231 -0.87058,1.6264 -0.77496,1.262598 z"
       id="path27277" />
    <path
       style="fill:#212512"
       d="m 219.98645,66.471862 c 1.616,-0.493345 3.17986,-1.549915 4.95239,-3.345918 1.05033,-1.064231 1.98597,-2.238909 2.07921,-2.610397 0.0932,-0.371488 0.27986,-0.675433 0.41473,-0.675433 0.70997,0 -2.32641,3.96317 -3.82038,4.986475 -1.55193,1.063002 -3.2527,1.896898 -3.81384,1.86995 -0.32002,-0.01537 -0.2591,-0.08822 0.18789,-0.224677 z"
       id="path27276" />
    <path
       style="fill:#212512"
       d="m 202.5772,64.651366 c -0.0544,-2.518374 -0.22471,-3.121158 -1.20982,-4.282085 -0.44223,-0.521142 -0.37978,-0.497279 0.29435,0.11249 1.00924,0.912885 1.18826,1.674145 1.0624,4.517718 l -0.0937,2.116667 z"
       id="path27274" />
    <path
       style="fill:#212512"
       d="m 200.43798,68.032899 c -0.18003,-1.176062 -0.54171,-2.637351 -0.80373,-3.24731 -1.05945,-2.466303 -4.42993,-4.743732 -7.70678,-5.207456 l -1.70664,-0.241515 1.73144,0.08461 c 2.88866,0.141168 6.10316,2.063081 7.53389,4.504437 0.70354,1.200499 1.74868,5.485813 1.45416,5.962363 -0.0963,0.155738 -0.32231,-0.679072 -0.50234,-1.855133 z"
       id="path27269" />
    <path
       style="fill:#212512"
       d="m 203.68878,66.454697 c 0,-2.255572 0.0406,-3.178307 0.0902,-2.05052 0.0496,1.127786 0.0496,2.973255 0,4.101041 -0.0496,1.127787 -0.0902,0.205052 -0.0902,-2.050521 z"
       id="path27268" />
    <path
       style="fill:#212512"
       d="m 193.39583,72.232059 c -0.43656,-0.429077 -1.44859,-1.093347 -2.24896,-1.476156 -1.25364,-0.599607 -1.87667,-0.709356 -4.49791,-0.792324 -2.67594,-0.0847 -3.29659,-0.01634 -5.14889,0.567099 -1.15839,0.364874 -2.15293,0.616647 -2.21008,0.559495 -0.0571,-0.05715 0.93715,-0.421456 2.20957,-0.809567 2.04874,-0.624904 2.64984,-0.694113 5.25279,-0.604795 2.48206,0.08517 3.16569,0.207564 4.39452,0.786776 1.36088,0.641456 3.89165,2.605848 3.30729,2.567139 -0.14552,-0.0096 -0.62177,-0.368589 -1.05833,-0.797667 z"
       id="path27266" />
    <path
       style="fill:#212512"
       d="m 182.54792,76.456307 c -1.17835,-0.838698 -2.71586,-2.323053 -3.64535,-3.519318 -0.50522,-0.650228 -0.0119,-0.27461 1.27922,0.974084 1.15585,1.11783 2.3992,2.274728 2.763,2.570885 0.87043,0.708583 0.61116,0.691826 -0.39687,-0.02565 z"
       id="path27257" />
    <path
       style="fill:#212512"
       d="m 213.2932,77.906236 c -0.84363,-0.221204 -1.48013,-0.455933 -1.41444,-0.521621 0.0657,-0.06569 0.92613,0.08288 1.91209,0.33015 1.29364,0.324432 2.46072,0.414851 4.19257,0.324815 1.31995,-0.06862 2.10225,-0.03625 1.73845,0.07193 -1.12655,0.334996 -4.81769,0.217136 -6.42867,-0.20527 z"
       id="path27255" />
    <path
       style="fill:#212512"
       d="m 202.48793,81.072926 c -0.0538,-0.254662 -0.0302,-1.83224 0.0524,-3.505729 l 0.15013,-3.042708 0.049,3.505729 c 0.0461,3.294702 -0.0227,4.126811 -0.25157,3.042708 z"
       id="path27252" />
    <path
       style="fill:#212512"
       d="m 219.74276,87.06831 c -0.0438,-0.883059 -1.672,-3.676176 -2.66682,-4.574936 -1.69818,-1.534205 -3.5863,-2.358545 -5.46851,-2.387515 -1.04884,-0.01614 -1.48894,-0.105804 -1.23144,-0.25088 0.59416,-0.33475 3.2358,0.07013 4.42891,0.67881 1.7265,0.880795 3.71933,2.969424 4.50622,4.722855 0.39231,0.874176 0.65461,1.73409 0.58291,1.910919 -0.0803,0.197946 -0.13841,0.159801 -0.15127,-0.09925 z"
       id="path27243" />
    <path
       style="fill:#212512"
       d="m 185.75736,87.621363 c 0.42149,-1.644655 1.50302,-3.55823 2.76552,-4.893143 2.34149,-2.475777 4.40295,-3.30894 8.18716,-3.30894 1.54503,0 2.12424,0.08881 2.04912,0.314193 -0.0576,0.172806 -0.26269,0.366846 -0.45576,0.4312 -0.22891,0.0763 -0.27856,-2.29e-4 -0.14274,-0.220001 0.16524,-0.267357 -0.31654,-0.309557 -2.3311,-0.204182 -2.05241,0.107354 -2.82189,0.271044 -4.01257,0.85359 -1.96834,0.963017 -4.12175,3.102496 -4.9426,4.910616 -0.36335,0.800365 -0.80147,1.752865 -0.9736,2.116667 l -0.31296,0.661458 z"
       id="path27241" />
    <path
       style="fill:#212512"
       d="m 191.53124,88.336707 c 2.59666,-1.032457 3.77888,-2.305948 5.25288,-5.658432 0.13965,-0.317605 0.18375,-0.760277 0.098,-0.983714 -0.0857,-0.223438 -0.0239,-0.487822 0.1374,-0.587519 0.48354,-0.298841 0.0772,1.830135 -0.61953,3.246157 -1.07395,2.182609 -3.3855,4.004273 -5.65,4.452596 -0.43656,0.08643 -0.085,-0.12466 0.78124,-0.469088 z"
       id="path27240" />
    <path
       style="fill:#212512"
       d="m 203.68939,89.076571 c 3.3e-4,-2.328333 0.0408,-3.245414 0.0899,-2.037958 0.0491,1.207457 0.0489,3.112457 -6.1e-4,4.233333 -0.0495,1.120877 -0.0897,0.132958 -0.0893,-2.195375 z"
       id="path27235" />
  </g>
</svg>
