<?xml version="1.0" encoding="UTF-8" standalone="no"?>
<!-- Created with Inkscape (http://www.inkscape.org/) -->

<svg
   width="185"
   height="185"
   viewBox="0 0 48.947914 48.947918"
   version="1.1"
   id="svg1"
   xmlns="http://www.w3.org/2000/svg"
   xmlns:svg="http://www.w3.org/2000/svg">
  <defs
     id="defs1" />
  <g
     id="g28096"
     transform="matrix(0.75841139,0,0,0.75841139,17.566952,-21.916649)">
    <path
       style="fill:#e6cf45"
       d="M 8.5936918,92.930423 C 8.443051,92.648949 8.3212777,91.011839 8.3230846,89.292403 l 0.00329,-3.126248 -1.6569309,-3.275727 C 5.7581268,81.088779 4.6949664,79.292115 4.30686,78.897842 3.8671655,78.45116 1.6600861,77.367279 -1.5491325,76.022006 -4.381822,74.834569 -6.7803252,73.86303 -6.8791395,73.86303 c -0.098814,0 -0.8271332,-0.306302 -1.6184863,-0.680672 -1.0089241,-0.477298 -1.4388238,-0.833039 -1.4388238,-1.190625 0,-0.893911 1.2460779,-0.60149 6.3571824,1.491861 2.68818477,1.100997 5.1554993,2.110081 5.4829211,2.242409 0.3274219,0.132328 0.5953125,0.189945 0.5953125,0.128037 0,-0.181534 -3.40424243,-6.458682 -4.5649547,-8.417407 -1.1795487,-1.990512 -1.3928393,-2.157805 -3.1079616,-2.437704 -2.5450457,-0.415339 -3.3510618,-1.44298 -1.7381217,-2.216042 0.5873498,-0.281509 0.8825433,-0.297606 1.2499451,-0.06816 1.1839948,0.739417 1.009588,0.115455 -0.7957983,-2.847069 -2.3666663,-3.883548 -3.5236903,-6.090412 -3.3448336,-6.379808 0.2559379,-0.414116 1.0686555,-0.306309 1.5130249,0.200702 0.4373403,0.498992 3.5221513,5.768634 4.9563259,8.466666 0.9332274,1.755629 1.4070268,2.124733 1.1887108,0.926042 -0.1889925,-1.037687 0.4096101,-2.050521 1.21189397,-2.050521 0.62733721,0 0.65189578,0.06389 0.61019769,1.5875 -0.0238957,0.873125 -0.12199933,2.004219 -0.21800813,2.513542 -0.15088191,0.800422 0.0661561,1.392626 1.59996687,4.365625 0.9759905,1.89177 2.115891,3.951567 2.5331121,4.577326 0.4172212,0.625759 0.7585839,1.193672 0.7585839,1.262028 0,0.06836 0.3246412,0.627935 0.7214249,1.243507 0.3967837,0.615572 1.2859941,2.190784 1.9760231,3.500471 l 1.2545982,2.38125 0.00835,-9.705271 0.00835,-9.705271 L 5.018259,56.42255 C 1.4461293,49.250359 0.49303699,47.569613 0.1265204,47.796132 c -0.13025248,0.0805 -0.31160766,0.02536 -0.40301151,-0.122534 -0.0914039,-0.147895 -0.3696486,-0.2689 -0.61832164,-0.2689 -0.71668345,0 -2.42705385,-1.291955 -2.42705385,-1.833314 0,-0.666168 0.5630687,-0.833558 1.7248648,-0.512771 0.5338239,0.147396 1.03637903,0.202203 1.1167891,0.121793 0.0804101,-0.08041 -0.15723893,-0.604728 -0.5281089,-1.16515 -1.1530562,-1.742386 -2.6200149,-4.851022 -2.4716446,-5.237669 0.1969167,-0.513157 1.0535094,-0.460755 1.5414736,0.0943 0.2238803,0.254662 0.6515223,0.949534 0.95031576,1.54416 0.40967089,0.815283 0.69376503,1.075532 1.15530621,1.058334 0.55022255,-0.0205 0.61360179,0.09746 0.62745317,1.167819 0.008474,0.654843 0.10460262,1.488281 0.21361866,1.852083 0.3150986,1.051529 6.8933031,14.017418 7.1131607,14.020308 0.1091407,0.0014 0.1984375,-6.297967 0.1984375,-13.998669 0,-7.700701 0.07227,-14.189607 0.1605991,-14.41979 0.1872745,-0.48803 0.9237628,-0.551236 1.3584174,-0.116582 0.2227341,0.222735 0.2601911,4.0855 0.1427982,14.7262 -0.16421,14.884253 -0.1335377,15.365215 0.8416759,13.198044 0.208343,-0.462992 0.851959,-1.700594 1.430257,-2.750227 0.578299,-1.049633 1.137511,-2.180727 1.242693,-2.513541 0.105183,-0.332815 1.007576,-2.289849 2.005317,-4.348964 1.77492,-3.663038 2.083785,-4.657193 1.549492,-4.987404 -0.341337,-0.210958 -0.342764,-1.111077 -0.0021,-1.321622 0.144368,-0.08922 0.459998,-0.05169 0.701401,0.0834 0.363196,0.203255 0.610699,-0.07954 1.434722,-1.639326 0.681753,-1.290482 1.148957,-1.884954 1.481411,-1.884954 0.851535,0 0.687411,1.029131 -0.5955,3.734067 -3.763475,7.935044 -4.340156,9.189119 -4.261669,9.267605 0.0473,0.0473 0.447544,-0.05047 0.889432,-0.217262 1.660214,-0.62666 2.400014,0.675473 0.815319,1.435055 -3.231698,1.549031 -2.776842,0.991929 -6.104223,7.476367 l -1.357665,2.645834 -0.02514,9.847063 c -0.01915,7.501167 0.04735,9.738822 0.279137,9.392708 0.167351,-0.249896 0.939913,-1.585449 1.716805,-2.967897 0.776892,-1.382448 1.612399,-2.811198 1.856684,-3.175 0.519102,-0.773075 1.556141,-2.659053 4.929657,-8.965161 L 21.269896,62.415 20.765564,61.706731 c -0.277382,-0.389547 -0.577088,-0.998662 -0.666013,-1.353588 -0.20009,-0.798617 0.374807,-1.662529 0.957536,-1.438915 0.463231,0.177758 1.021045,1.229441 1.021045,1.925042 0,0.2448 0.785881,-1.100255 1.746403,-2.989012 2.218676,-4.362773 2.389859,-4.624727 3.022196,-4.624727 0.95197,0 0.587272,1.203916 -1.580281,5.216721 -1.156842,2.141668 -2.06386,3.933431 -2.015596,3.981696 0.206403,0.206403 1.45028,-0.282077 1.398143,-0.549062 -0.08339,-0.42704 1.075759,-0.438535 1.427958,-0.01416 0.441308,0.531743 -0.09436,1.046867 -2.181708,2.09804 -1.944111,0.979038 -2.754198,1.921536 -4.252251,4.947293 -0.449216,0.907324 -1.517786,2.885958 -2.374601,4.396965 -0.856815,1.511007 -1.514611,2.790519 -1.46177,2.84336 0.05284,0.05284 0.838578,-0.263599 1.746082,-0.7032 0.907504,-0.439601 2.802992,-1.279487 4.212195,-1.866414 1.409204,-0.586926 3.038438,-1.290149 3.620522,-1.562717 1.720617,-0.805702 2.482301,-0.921545 2.679548,-0.407529 0.09401,0.245001 0.0058,0.609558 -0.195973,0.810127 -0.2018,0.200569 -2.271909,1.18931 -4.600242,2.197201 -9.020622,3.904856 -8.906385,3.835617 -10.384084,6.293759 -2.809051,4.672833 -2.798256,4.64102 -2.9011968,8.549325 -0.089171,3.385518 -0.2243361,3.966161 -0.9267636,3.981208 -0.1040207,0.0022 -0.31238,-0.226246 -0.4630208,-0.507721 z"
       id="path28092" />
    <path
       style="fill:#8e6a8e"
       d="M 8.5936918,92.930423 C 8.443051,92.648949 8.3212777,91.011839 8.3230846,89.292403 l 0.00329,-3.126248 -1.6569309,-3.275727 C 5.7581268,81.088779 4.6949664,79.292115 4.30686,78.897842 3.8671655,78.45116 1.6600861,77.367279 -1.5491325,76.022006 -4.381822,74.834569 -6.7803252,73.86303 -6.8791395,73.86303 c -0.098814,0 -0.8271332,-0.306302 -1.6184863,-0.680672 -1.0089241,-0.477298 -1.4388238,-0.833039 -1.4388238,-1.190625 0,-0.893911 1.2460779,-0.60149 6.3571824,1.491861 2.68818477,1.100997 5.1554993,2.110081 5.4829211,2.242409 0.3274219,0.132328 0.5953125,0.189945 0.5953125,0.128037 0,-0.181534 -3.40424243,-6.458682 -4.5649547,-8.417407 -1.1795487,-1.990512 -1.3928393,-2.157805 -3.1079616,-2.437704 -2.5450457,-0.415339 -3.3510618,-1.44298 -1.7381217,-2.216042 0.5873498,-0.281509 0.8825433,-0.297606 1.2499451,-0.06816 1.1839948,0.739417 1.009588,0.115455 -0.7957983,-2.847069 -2.3666663,-3.883548 -3.5236903,-6.090412 -3.3448336,-6.379808 0.2559379,-0.414116 1.0686555,-0.306309 1.5130249,0.200702 0.4373403,0.498992 3.5221513,5.768634 4.9563259,8.466666 0.9332274,1.755629 1.4070268,2.124733 1.1887108,0.926042 -0.1889925,-1.037687 0.4096101,-2.050521 1.21189397,-2.050521 0.62733721,0 0.65189578,0.06389 0.61019769,1.5875 -0.0238957,0.873125 -0.12199933,2.004219 -0.21800813,2.513542 -0.15088191,0.800422 0.0661561,1.392626 1.59996687,4.365625 0.9759905,1.89177 2.115891,3.951567 2.5331121,4.577326 0.4172212,0.625759 0.7585839,1.193672 0.7585839,1.262028 0,0.06836 0.3246412,0.627935 0.7214249,1.243507 0.3967837,0.615572 1.2859941,2.190784 1.9760231,3.500471 l 1.2545982,2.38125 0.00835,-9.705271 0.00835,-9.705271 L 5.018259,56.42255 C 1.4461293,49.250359 0.49303699,47.569613 0.1265204,47.796132 c -0.13025248,0.0805 -0.31160766,0.02536 -0.40301151,-0.122534 -0.0914039,-0.147895 -0.3696486,-0.2689 -0.61832164,-0.2689 -0.71668345,0 -2.42705385,-1.291955 -2.42705385,-1.833314 0,-0.666168 0.5630687,-0.833558 1.7248648,-0.512771 0.5338239,0.147396 1.03637903,0.202203 1.1167891,0.121793 0.0804101,-0.08041 -0.15723893,-0.604728 -0.5281089,-1.16515 -1.1530562,-1.742386 -2.6200149,-4.851022 -2.4716446,-5.237669 0.1969167,-0.513157 1.0535094,-0.460755 1.5414736,0.0943 0.2238803,0.254662 0.6515223,0.949534 0.95031576,1.54416 0.40967089,0.815283 0.69376503,1.075532 1.15530621,1.058334 0.55022255,-0.0205 0.61360179,0.09746 0.62745317,1.167819 0.008474,0.654843 0.10460262,1.488281 0.21361866,1.852083 0.3150986,1.051529 6.8933031,14.017418 7.1131607,14.020308 0.1091407,0.0014 0.1984375,-6.297967 0.1984375,-13.998669 0,-7.700701 0.07227,-14.189607 0.1605991,-14.41979 0.1872745,-0.48803 0.9237628,-0.551236 1.3584174,-0.116582 0.2227341,0.222735 0.2601911,4.0855 0.1427982,14.7262 -0.16421,14.884253 -0.1335377,15.365215 0.8416759,13.198044 0.208343,-0.462992 0.851959,-1.700594 1.430257,-2.750227 0.578299,-1.049633 1.137511,-2.180727 1.242693,-2.513541 0.105183,-0.332815 1.007576,-2.289849 2.005317,-4.348964 1.77492,-3.663038 2.083785,-4.657193 1.549492,-4.987404 -0.341337,-0.210958 -0.342764,-1.111077 -0.0021,-1.321622 0.144368,-0.08922 0.459998,-0.05169 0.701401,0.0834 0.363196,0.203255 0.610699,-0.07954 1.434722,-1.639326 0.681753,-1.290482 1.148957,-1.884954 1.481411,-1.884954 0.851535,0 0.687411,1.029131 -0.5955,3.734067 -3.763475,7.935044 -4.340156,9.189119 -4.261669,9.267605 0.0473,0.0473 0.447544,-0.05047 0.889432,-0.217262 1.660214,-0.62666 2.400014,0.675473 0.815319,1.435055 -3.231698,1.549031 -2.776842,0.991929 -6.104223,7.476367 l -1.357665,2.645834 -0.02514,9.847063 c -0.01915,7.501167 0.04735,9.738822 0.279137,9.392708 0.167351,-0.249896 0.939913,-1.585449 1.716805,-2.967897 0.776892,-1.382448 1.612399,-2.811198 1.856684,-3.175 0.519102,-0.773075 1.556141,-2.659053 4.929657,-8.965161 L 21.269896,62.415 20.765564,61.706731 c -0.277382,-0.389547 -0.577088,-0.998662 -0.666013,-1.353588 -0.20009,-0.798617 0.374807,-1.662529 0.957536,-1.438915 0.463231,0.177758 1.021045,1.229441 1.021045,1.925042 0,0.2448 0.785881,-1.100255 1.746403,-2.989012 2.218676,-4.362773 2.389859,-4.624727 3.022196,-4.624727 0.95197,0 0.587272,1.203916 -1.580281,5.216721 -1.156842,2.141668 -2.06386,3.933431 -2.015596,3.981696 0.206403,0.206403 1.45028,-0.282077 1.398143,-0.549062 -0.08339,-0.42704 1.075759,-0.438535 1.427958,-0.01416 0.441308,0.531743 -0.09436,1.046867 -2.181708,2.09804 -1.944111,0.979038 -2.754198,1.921536 -4.252251,4.947293 -0.449216,0.907324 -1.517786,2.885958 -2.374601,4.396965 -0.856815,1.511007 -1.514611,2.790519 -1.46177,2.84336 0.05284,0.05284 0.838578,-0.263599 1.746082,-0.7032 0.907504,-0.439601 2.802992,-1.279487 4.212195,-1.866414 1.409204,-0.586926 3.038438,-1.290149 3.620522,-1.562717 1.720617,-0.805702 2.482301,-0.921545 2.679548,-0.407529 0.09401,0.245001 0.0058,0.609558 -0.195973,0.810127 -0.2018,0.200569 -2.271909,1.18931 -4.600242,2.197201 -9.020622,3.904856 -8.906385,3.835617 -10.384084,6.293759 -2.809051,4.672833 -2.798256,4.64102 -2.9011968,8.549325 -0.089171,3.385518 -0.2243361,3.966161 -0.9267636,3.981208 -0.1040207,0.0022 -0.31238,-0.226246 -0.4630208,-0.507721 z"
       id="path28076" />
    <path
       style="fill:#a7a932"
       d="M 8.5778341,92.763513 C 8.435915,92.390238 8.3197994,90.720482 8.3197994,89.052945 V 86.021059 L 6.5765514,82.654024 C 5.6177651,80.802154 4.5572978,79.024567 4.2199575,78.703831 3.8826173,78.383094 2.9109071,77.829817 2.0606016,77.474325 c -5.7405634,-2.399986 -7.0634215,-2.93716 -8.9299077,-3.626176 -2.1580725,-0.796655 -3.0671435,-1.392547 -3.0671435,-2.010501 0,-0.202737 0.2832348,-0.355868 0.658222,-0.355868 0.6094726,0 8.67879313,3.109939 10.6692065,4.111942 1.1088991,0.558236 1.2817202,0.381425 0.7057203,-0.722013 C 1.845086,74.389696 1.4556251,73.638135 1.2312305,73.201572 -0.07091468,70.668233 -2.8873351,65.992163 -3.3416314,65.609303 -3.6343452,65.362618 -4.3921843,65.083054 -5.0257182,64.988049 -6.3731193,64.785994 -7.9044648,63.933905 -7.7535101,63.47022 c 0.057801,-0.177548 0.4437845,-0.487754 0.8577403,-0.689347 0.5959314,-0.290214 0.8589118,-0.30017 1.2629982,-0.04781 0.7560199,0.472143 0.9112826,0.09573 0.3545254,-0.859505 -4.5300936,-7.772306 -4.9246968,-8.648023 -3.8968503,-8.648023 0.6981923,0 0.8885385,0.272433 4.0011466,5.726642 1.5279687,2.677453 2.8967663,4.895295 3.0417725,4.928539 0.1495698,0.03429 0.2273181,-0.361232 0.1796858,-0.9141 -0.1103938,-1.281339 0.3475502,-2.124615 1.09592266,-2.018075 0.51793665,0.07373 0.57430484,0.23209 0.54725889,1.537411 -0.0165834,0.800364 -0.12045895,1.953036 -0.23083461,2.561493 -0.18653892,1.028314 -0.0757563,1.342412 1.57183336,4.456563 0.974884,1.842652 2.7242318,4.950235 3.8874395,6.905739 1.1632078,1.955505 2.3502567,4.087473 2.6378866,4.737708 0.2876298,0.650235 0.6066887,1.182364 0.7090198,1.182509 0.1692785,2.39e-4 0.1655437,-4.320405 -0.013494,-15.610679 L 8.1875078,62.618239 4.8214661,55.906035 C 1.0401537,48.365742 0.52180216,47.553557 -0.56673765,47.463467 -1.4908829,47.386982 -3.3218666,46.211242 -3.3218666,45.6943 c 0,-0.900372 1.7330418,-0.940423 2.85032754,-0.06587 0.49953385,0.391008 0.18922999,-0.32359 -1.45007164,-3.339364 -1.6665909,-3.065977 -1.8261945,-3.747907 -0.8771869,-3.747907 0.5295928,0 0.8292987,0.314985 1.561729,1.641347 0.78166356,1.415518 0.97361973,1.605355 1.39516,1.379753 0.54944833,-0.294055 0.55339527,-0.283014 0.59848528,1.674267 0.0244239,1.0602 0.58474132,2.347613 3.59763862,8.266109 1.9627901,3.85568 3.658006,7.01128 3.7671466,7.012446 0.1091407,0.0012 0.2133203,-6.248662 0.2315104,-13.888505 0.01819,-7.639844 0.047956,-14.026477 0.066146,-14.192518 0.01819,-0.166041 0.2477912,-0.433932 0.5102247,-0.595312 1.0065279,-0.618954 1.055857,0.128447 0.9981274,15.122942 -0.030497,7.921296 0.041807,14.341043 0.1606766,14.266103 0.263735,-0.166268 2.790476,-5.18011 5.503739,-10.921135 l 2.012096,-4.257419 -0.473102,-0.824333 c -0.56013,-0.97597 -0.216101,-1.627132 0.614177,-1.162485 0.417814,0.23382 0.606664,0.02218 1.451132,-1.626229 0.678335,-1.32412 1.119212,-1.895031 1.463405,-1.895031 0.840133,0 0.537583,1.358453 -1.031224,4.630208 -2.89292,6.0332 -3.918655,8.27176 -3.830579,8.359836 0.0493,0.0493 0.533008,-0.04643 1.074898,-0.212741 1.71042,-0.524942 2.098034,0.803582 0.440619,1.510196 -2.23904,0.954583 -2.752454,1.36102 -3.509347,2.778125 -0.427483,0.800365 -1.449324,2.705365 -2.270757,4.233333 l -1.493513,2.778125 -0.081013,10.046985 c -0.044557,5.525842 -0.030281,9.990686 0.031725,9.921875 0.062006,-0.06881 0.676346,-1.077611 1.3652,-2.241777 0.688853,-1.164167 1.643919,-2.771511 2.122369,-3.571875 0.878568,-1.469696 1.207208,-2.064322 4.313816,-7.805208 3.487426,-6.444623 3.634243,-6.750699 3.333867,-6.9503 -0.847195,-0.562963 -1.230996,-2.787755 -0.527489,-3.057715 0.476072,-0.182687 1.120191,0.531027 1.365279,1.512794 0.176468,0.706888 0.320936,0.505278 1.895938,-2.645834 2.142717,-4.28694 2.347032,-4.601653 2.987449,-4.601653 0.904995,0 0.613702,0.939651 -1.607875,5.186667 -2.083667,3.983371 -2.181124,4.391945 -0.933405,3.91315 0.230183,-0.08833 0.418514,-0.339192 0.418514,-0.557474 0,-0.253196 0.151513,-0.338734 0.418515,-0.236275 0.230183,0.08833 0.53612,0.160599 0.67986,0.160599 0.14374,0 0.223299,0.26789 0.176798,0.595312 -0.06174,0.434723 -0.577133,0.848704 -1.910579,1.534642 -2.087352,1.073757 -3.030926,2.076182 -4.149967,4.408805 -0.433769,0.904183 -1.201385,2.362698 -1.705815,3.241146 -0.50443,0.878448 -1.333863,2.32299 -1.843186,3.210095 -0.509323,0.887104 -0.926042,1.656097 -0.926042,1.708873 0,0.05277 0.565547,-0.180798 1.256771,-0.519051 3.987585,-1.951343 10.678829,-4.700175 11.073018,-4.54891 0.463364,0.177809 0.479354,0.797046 0.03021,1.169805 -0.187003,0.155198 -2.062237,1.014931 -4.167188,1.910517 -3.480677,1.480913 -7.718387,3.388162 -8.721975,3.925464 -0.708457,0.379296 -2.217813,2.586282 -3.63802,5.319531 l -1.389063,2.673309 v 3.24273 c 0,2.169346 -0.1050964,3.347827 -0.3174999,3.56023 -0.4774391,0.477439 -0.7269847,0.388373 -1.0119653,-0.361183 z"
       id="path28040" />
    <path
       style="fill:#719846"
       d="M 8.5778341,92.763513 C 8.435915,92.390238 8.3197994,90.720482 8.3197994,89.052945 V 86.021059 L 6.5765514,82.654024 C 5.6177651,80.802154 4.5572978,79.024567 4.2199575,78.703831 3.8826173,78.383094 2.9109071,77.829817 2.0606016,77.474325 c -5.7405634,-2.399986 -7.0634215,-2.93716 -8.9299077,-3.626176 -2.1580725,-0.796655 -3.0671435,-1.392547 -3.0671435,-2.010501 0,-0.202737 0.2832348,-0.355868 0.658222,-0.355868 0.6094726,0 8.67879313,3.109939 10.6692065,4.111942 1.1088991,0.558236 1.2817202,0.381425 0.7057203,-0.722013 C 1.845086,74.389696 1.4556251,73.638135 1.2312305,73.201572 -0.07091468,70.668233 -2.8873351,65.992163 -3.3416314,65.609303 -3.6343452,65.362618 -4.3921843,65.083054 -5.0257182,64.988049 -6.3731193,64.785994 -7.9044648,63.933905 -7.7535101,63.47022 c 0.057801,-0.177548 0.4437845,-0.487754 0.8577403,-0.689347 0.5959314,-0.290214 0.8589118,-0.30017 1.2629982,-0.04781 0.7560199,0.472143 0.9112826,0.09573 0.3545254,-0.859505 -4.5300936,-7.772306 -4.9246968,-8.648023 -3.8968503,-8.648023 0.6981923,0 0.8885385,0.272433 4.0011466,5.726642 1.5279687,2.677453 2.8967663,4.895295 3.0417725,4.928539 0.1495698,0.03429 0.2273181,-0.361232 0.1796858,-0.9141 -0.1103938,-1.281339 0.3475502,-2.124615 1.09592266,-2.018075 0.51793665,0.07373 0.57430484,0.23209 0.54725889,1.537411 -0.0165834,0.800364 -0.12045895,1.953036 -0.23083461,2.561493 -0.18653892,1.028314 -0.0757563,1.342412 1.57183336,4.456563 0.974884,1.842652 2.7242318,4.950235 3.8874395,6.905739 1.1632078,1.955505 2.3502567,4.087473 2.6378866,4.737708 0.2876298,0.650235 0.6066887,1.182364 0.7090198,1.182509 0.1692785,2.39e-4 0.1655437,-4.320405 -0.013494,-15.610679 L 8.1875078,62.618239 4.8214661,55.906035 C 1.0401537,48.365742 0.52180216,47.553557 -0.56673765,47.463467 -1.4908829,47.386982 -3.3218666,46.211242 -3.3218666,45.6943 c 0,-0.900372 1.7330418,-0.940423 2.85032754,-0.06587 0.49953385,0.391008 0.18922999,-0.32359 -1.45007164,-3.339364 -1.6665909,-3.065977 -1.8261945,-3.747907 -0.8771869,-3.747907 0.5295928,0 0.8292987,0.314985 1.561729,1.641347 0.78166356,1.415518 0.97361973,1.605355 1.39516,1.379753 0.54944833,-0.294055 0.55339527,-0.283014 0.59848528,1.674267 0.0244239,1.0602 0.58474132,2.347613 3.59763862,8.266109 1.9627901,3.85568 3.658006,7.01128 3.7671466,7.012446 0.1091407,0.0012 0.2133203,-6.248662 0.2315104,-13.888505 0.01819,-7.639844 0.047956,-14.026477 0.066146,-14.192518 0.01819,-0.166041 0.2477912,-0.433932 0.5102247,-0.595312 1.0065279,-0.618954 1.055857,0.128447 0.9981274,15.122942 -0.030497,7.921296 0.041807,14.341043 0.1606766,14.266103 0.263735,-0.166268 2.790476,-5.18011 5.503739,-10.921135 l 2.012096,-4.257419 -0.473102,-0.824333 c -0.56013,-0.97597 -0.216101,-1.627132 0.614177,-1.162485 0.417814,0.23382 0.606664,0.02218 1.451132,-1.626229 0.678335,-1.32412 1.119212,-1.895031 1.463405,-1.895031 0.840133,0 0.537583,1.358453 -1.031224,4.630208 -2.89292,6.0332 -3.918655,8.27176 -3.830579,8.359836 0.0493,0.0493 0.533008,-0.04643 1.074898,-0.212741 1.71042,-0.524942 2.098034,0.803582 0.440619,1.510196 -2.23904,0.954583 -2.752454,1.36102 -3.509347,2.778125 -0.427483,0.800365 -1.449324,2.705365 -2.270757,4.233333 l -1.493513,2.778125 -0.081013,10.046985 c -0.044557,5.525842 -0.030281,9.990686 0.031725,9.921875 0.062006,-0.06881 0.676346,-1.077611 1.3652,-2.241777 0.688853,-1.164167 1.643919,-2.771511 2.122369,-3.571875 0.878568,-1.469696 1.207208,-2.064322 4.313816,-7.805208 3.487426,-6.444623 3.634243,-6.750699 3.333867,-6.9503 -0.847195,-0.562963 -1.230996,-2.787755 -0.527489,-3.057715 0.476072,-0.182687 1.120191,0.531027 1.365279,1.512794 0.176468,0.706888 0.320936,0.505278 1.895938,-2.645834 2.142717,-4.28694 2.347032,-4.601653 2.987449,-4.601653 0.904995,0 0.613702,0.939651 -1.607875,5.186667 -2.083667,3.983371 -2.181124,4.391945 -0.933405,3.91315 0.230183,-0.08833 0.418514,-0.339192 0.418514,-0.557474 0,-0.253196 0.151513,-0.338734 0.418515,-0.236275 0.230183,0.08833 0.53612,0.160599 0.67986,0.160599 0.14374,0 0.223299,0.26789 0.176798,0.595312 -0.06174,0.434723 -0.577133,0.848704 -1.910579,1.534642 -2.087352,1.073757 -3.030926,2.076182 -4.149967,4.408805 -0.433769,0.904183 -1.201385,2.362698 -1.705815,3.241146 -0.50443,0.878448 -1.333863,2.32299 -1.843186,3.210095 -0.509323,0.887104 -0.926042,1.656097 -0.926042,1.708873 0,0.05277 0.565547,-0.180798 1.256771,-0.519051 3.987585,-1.951343 10.678829,-4.700175 11.073018,-4.54891 0.463364,0.177809 0.479354,0.797046 0.03021,1.169805 -0.187003,0.155198 -2.062237,1.014931 -4.167188,1.910517 -3.480677,1.480913 -7.718387,3.388162 -8.721975,3.925464 -0.708457,0.379296 -2.217813,2.586282 -3.63802,5.319531 l -1.389063,2.673309 v 3.24273 c 0,2.169346 -0.1050964,3.347827 -0.3174999,3.56023 -0.4774391,0.477439 -0.7269847,0.388373 -1.0119653,-0.361183 z"
       id="path28000" />
    <path
       style="fill:#87744f"
       d="M 8.5778341,92.763513 C 8.435915,92.390238 8.3197994,90.720482 8.3197994,89.052945 V 86.021059 L 6.5765514,82.654024 C 5.6177651,80.802154 4.5572978,79.024567 4.2199575,78.703831 3.8826173,78.383094 2.9109071,77.829817 2.0606016,77.474325 c -5.7405634,-2.399986 -7.0634215,-2.93716 -8.9299077,-3.626176 -2.1580725,-0.796655 -3.0671435,-1.392547 -3.0671435,-2.010501 0,-0.202737 0.2832348,-0.355868 0.658222,-0.355868 0.6094726,0 8.67879313,3.109939 10.6692065,4.111942 1.1088991,0.558236 1.2817202,0.381425 0.7057203,-0.722013 C 1.845086,74.389696 1.4556251,73.638135 1.2312305,73.201572 -0.07091468,70.668233 -2.8873351,65.992163 -3.3416314,65.609303 -3.6343452,65.362618 -4.3921843,65.083054 -5.0257182,64.988049 -6.3731193,64.785994 -7.9044648,63.933905 -7.7535101,63.47022 c 0.057801,-0.177548 0.4437845,-0.487754 0.8577403,-0.689347 0.5959314,-0.290214 0.8589118,-0.30017 1.2629982,-0.04781 0.7560199,0.472143 0.9112826,0.09573 0.3545254,-0.859505 -4.5300936,-7.772306 -4.9246968,-8.648023 -3.8968503,-8.648023 0.6981923,0 0.8885385,0.272433 4.0011466,5.726642 1.5279687,2.677453 2.8967663,4.895295 3.0417725,4.928539 0.1495698,0.03429 0.2273181,-0.361232 0.1796858,-0.9141 -0.1103938,-1.281339 0.3475502,-2.124615 1.09592266,-2.018075 0.51793665,0.07373 0.57430484,0.23209 0.54725889,1.537411 -0.0165834,0.800364 -0.12045895,1.953036 -0.23083461,2.561493 -0.18653892,1.028314 -0.0757563,1.342412 1.57183336,4.456563 0.974884,1.842652 2.7242318,4.950235 3.8874395,6.905739 1.1632078,1.955505 2.3502567,4.087473 2.6378866,4.737708 0.2876298,0.650235 0.6066887,1.182364 0.7090198,1.182509 0.1692785,2.39e-4 0.1655437,-4.320405 -0.013494,-15.610679 L 8.1875078,62.618239 4.8214661,55.906035 C 1.0401537,48.365742 0.52180216,47.553557 -0.56673765,47.463467 -1.4908829,47.386982 -3.3218666,46.211242 -3.3218666,45.6943 c 0,-0.900372 1.7330418,-0.940423 2.85032754,-0.06587 0.49953385,0.391008 0.18922999,-0.32359 -1.45007164,-3.339364 -1.6665909,-3.065977 -1.8261945,-3.747907 -0.8771869,-3.747907 0.5295928,0 0.8292987,0.314985 1.561729,1.641347 0.78166356,1.415518 0.97361973,1.605355 1.39516,1.379753 0.54944833,-0.294055 0.55339527,-0.283014 0.59848528,1.674267 0.0244239,1.0602 0.58474132,2.347613 3.59763862,8.266109 1.9627901,3.85568 3.658006,7.01128 3.7671466,7.012446 0.1091407,0.0012 0.2133203,-6.248662 0.2315104,-13.888505 0.01819,-7.639844 0.047956,-14.026477 0.066146,-14.192518 0.01819,-0.166041 0.2477912,-0.433932 0.5102247,-0.595312 1.0065279,-0.618954 1.055857,0.128447 0.9981274,15.122942 -0.030497,7.921296 0.041807,14.341043 0.1606766,14.266103 0.263735,-0.166268 2.790476,-5.18011 5.503739,-10.921135 l 2.012096,-4.257419 -0.473102,-0.824333 c -0.56013,-0.97597 -0.216101,-1.627132 0.614177,-1.162485 0.417814,0.23382 0.606664,0.02218 1.451132,-1.626229 0.678335,-1.32412 1.119212,-1.895031 1.463405,-1.895031 0.840133,0 0.537583,1.358453 -1.031224,4.630208 -2.89292,6.0332 -3.918655,8.27176 -3.830579,8.359836 0.0493,0.0493 0.533008,-0.04643 1.074898,-0.212741 1.71042,-0.524942 2.098034,0.803582 0.440619,1.510196 -2.23904,0.954583 -2.752454,1.36102 -3.509347,2.778125 -0.427483,0.800365 -1.449324,2.705365 -2.270757,4.233333 l -1.493513,2.778125 -0.081013,10.046985 c -0.044557,5.525842 -0.030281,9.990686 0.031725,9.921875 0.062006,-0.06881 0.676346,-1.077611 1.3652,-2.241777 0.688853,-1.164167 1.643919,-2.771511 2.122369,-3.571875 0.878568,-1.469696 1.207208,-2.064322 4.313816,-7.805208 3.487426,-6.444623 3.634243,-6.750699 3.333867,-6.9503 -0.847195,-0.562963 -1.230996,-2.787755 -0.527489,-3.057715 0.476072,-0.182687 1.120191,0.531027 1.365279,1.512794 0.176468,0.706888 0.320936,0.505278 1.895938,-2.645834 2.142717,-4.28694 2.347032,-4.601653 2.987449,-4.601653 0.904995,0 0.613702,0.939651 -1.607875,5.186667 -2.083667,3.983371 -2.181124,4.391945 -0.933405,3.91315 0.230183,-0.08833 0.418514,-0.339192 0.418514,-0.557474 0,-0.253196 0.151513,-0.338734 0.418515,-0.236275 0.230183,0.08833 0.53612,0.160599 0.67986,0.160599 0.14374,0 0.223299,0.26789 0.176798,0.595312 -0.06174,0.434723 -0.577133,0.848704 -1.910579,1.534642 -2.087352,1.073757 -3.030926,2.076182 -4.149967,4.408805 -0.433769,0.904183 -1.201385,2.362698 -1.705815,3.241146 -0.50443,0.878448 -1.333863,2.32299 -1.843186,3.210095 -0.509323,0.887104 -0.926042,1.656097 -0.926042,1.708873 0,0.05277 0.565547,-0.180798 1.256771,-0.519051 3.987585,-1.951343 10.678829,-4.700175 11.073018,-4.54891 0.463364,0.177809 0.479354,0.797046 0.03021,1.169805 -0.187003,0.155198 -2.062237,1.014931 -4.167188,1.910517 -3.480677,1.480913 -7.718387,3.388162 -8.721975,3.925464 -0.708457,0.379296 -2.217813,2.586282 -3.63802,5.319531 l -1.389063,2.673309 v 3.24273 c 0,2.169346 -0.1050964,3.347827 -0.3174999,3.56023 -0.4774391,0.477439 -0.7269847,0.388373 -1.0119653,-0.361183 z"
       id="path27940" />
    <path
       style="fill:#6d6450"
       d="m 17.890196,45.70357 c 0.42269,-0.86286 0.70582,-1.732247 0.629179,-1.931971 -0.07664,-0.199724 -0.03514,-0.29873 0.09222,-0.220014 0.328215,0.202848 0.625431,-0.268847 1.406581,-2.232303 0.925885,-2.327256 1.019277,-2.645833 0.775629,-2.645833 -0.115159,0 -0.489034,0.565547 -0.830833,1.256771 -0.341799,0.691224 -0.923917,1.73302 -1.293596,2.315104 -0.369678,0.582083 -0.642787,1.202388 -0.606908,1.378456 0.03588,0.176067 -0.274648,1.009505 -0.690061,1.852083 -0.415413,0.842578 -0.700132,1.770085 -0.632709,2.061127 0.09255,0.399489 0.154369,0.431908 0.252277,0.132292 0.07133,-0.218282 0.475527,-1.102852 0.898216,-1.965712 z"
       id="path27830" />
    <path
       style="fill:#6d6450"
       d="m 26.058489,55.871365 c 0.376023,0 1.102169,-1.590554 0.930447,-2.038054 -0.223016,-0.581171 -0.743791,-0.07064 -1.18472,1.161419 -0.198592,0.55491 -0.493124,1.098223 -0.654517,1.207364 -0.203641,0.13771 -0.171988,0.27733 0.103433,0.456235 0.301231,0.195671 0.41725,0.131909 0.481423,-0.264583 0.0465,-0.28731 0.192272,-0.522381 0.323934,-0.522381 z"
       id="path27829" />
    <path
       style="fill:#6d6450"
       d="m 9.2100468,58.31876 c -0.07604,-0.927048 -0.037684,-1.11794 0.146196,-0.727604 0.1597757,0.339168 0.2559577,-4.482052 0.2678769,-13.427603 0.016306,-12.237894 -0.030282,-13.95677 -0.3782787,-13.95677 -0.3478706,0 -0.3968749,1.761484 -0.3968749,14.265859 0,12.465819 0.068565,15.102889 0.3926817,15.102889 0.039316,0 0.025095,-0.565547 -0.031601,-1.256771 z"
       id="path27828" />
    <path
       style="fill:#6d6450"
       d="m 10.171883,61.28806 c 0,-0.190033 0.130032,-0.388859 0.28896,-0.441835 0.158928,-0.05298 0.307757,-0.408661 0.330729,-0.79041 0.02297,-0.381749 0.122839,-0.644041 0.221924,-0.582871 0.320594,0.197918 0.516944,-0.409879 0.273147,-0.84552 -0.195471,-0.349287 -0.295921,-0.28039 -0.575586,0.39478 -0.186334,0.449851 -0.502939,0.81791 -0.703565,0.81791 -0.2006269,0 -0.364776,0.12609 -0.364776,0.280199 0,0.154109 0.1392958,0.194108 0.3095463,0.08889 0.2110447,-0.130433 0.2531417,-0.04432 0.1322917,0.270608 -0.09749,0.254055 -0.1772547,0.627037 -0.1772547,0.828849 0,0.205617 -0.1626664,0.304511 -0.370006,0.224947 -0.2638581,-0.101252 -0.3587382,0.05659 -0.3307291,0.550201 l 0.039277,0.692186 0.4630209,-0.571209 c 0.2546614,-0.314165 0.4630209,-0.72669 0.4630209,-0.916723 z"
       id="path27827" />
    <path
       style="fill:#6d6450"
       d="m 8.9054037,62.485948 c -0.064074,-0.436563 -0.2103994,-0.79375 -0.3251681,-0.79375 -0.1147687,0 -0.3393802,-0.374955 -0.4991366,-0.833232 -0.3896051,-1.117622 -0.3518569,-1.291337 0.1064088,-0.489685 0.3733554,0.653117 0.3782419,0.653951 0.3874993,0.06615 0.00516,-0.327422 -0.1103377,-0.595313 -0.256654,-0.595313 -0.1463162,0 -1.1119213,-1.756171 -2.1457891,-3.902604 C 5.1386963,53.791078 4.2087495,51.975375 4.1060156,51.902615 4.0032817,51.829854 3.4634952,50.791606 2.90649,49.595396 2.3407326,48.380389 1.7757164,47.493419 1.6263129,47.585755 c -0.1556175,0.09618 -0.1855093,0.03272 -0.071491,-0.151766 0.1077724,-0.17438 0.079325,-0.460667 -0.063216,-0.636193 -0.84106284,-1.035691 -1.31980072,-2.326383 -1.28231274,-3.457156 0.0223931,-0.675456 -0.0485821,-1.227991 -0.15772277,-1.227855 -0.10914062,1.36e-4 -0.19898989,0.208606 -0.19966506,0.463268 -6.7516e-4,0.254661 -0.39182418,-0.281766 -0.86922003,-1.192061 -0.7911185,-1.508499 -1.8852012,-2.688922 -2.2002446,-2.373879 -0.069331,0.06933 0.1764939,0.485616 0.5462767,0.925078 0.3697827,0.439461 0.6723323,0.898497 0.6723323,1.02008 0,0.594411 9.0430967,18.622279 9.2707022,18.481611 0.119753,-0.07401 0.3038872,0.0048 0.409187,0.175214 0.1195714,0.19347 0.076766,0.238898 -0.1140094,0.120992 -0.470199,-0.290599 -0.3615722,0.13002 0.3591816,1.390804 0.3620493,0.633317 0.6582713,1.377458 0.6582713,1.653646 0,0.276188 0.098442,0.50216 0.2187594,0.50216 0.1203177,0 0.1663354,-0.357188 0.1022619,-0.79375 z"
       id="path27826" />
    <path
       style="fill:#6d6450"
       d="m -3.58645,64.446023 c 0,-0.16928 -0.2014487,-0.471189 -0.4476639,-0.670908 -0.2571281,-0.208571 -0.3677088,-0.229826 -0.2598092,-0.04994 0.1282453,0.213808 -0.023686,0.290634 -0.478801,0.242111 -0.7335776,-0.07821 -1.2413741,-0.418226 -0.6437605,-0.431054 0.2740885,-0.0059 0.2530731,-0.07902 -0.078194,-0.272134 -0.4919388,-0.286776 -1.7959376,-0.06854 -1.7959376,0.300559 0,0.125178 0.1981253,0.151569 0.4402785,0.05865 0.3196829,-0.122674 0.3809569,-0.07297 0.223703,0.181476 -0.129459,0.209469 -0.1132736,0.286582 0.040238,0.191707 0.2806395,-0.173445 2.2873577,0.43677 2.0889174,0.635211 -0.067158,0.06716 0.1103504,0.122105 0.3944625,0.122105 0.2841121,0 0.5165674,-0.138502 0.5165674,-0.307782 z"
       id="path27825" />
    <path
       style="fill:#6d6450"
       d="m 9.3894177,72.943963 c 0.1583956,0.09789 0.241799,-1.757573 0.2226063,-4.952297 -0.016881,-2.809864 -0.085142,-4.900484 -0.151692,-4.645823 -0.06655,0.254662 -0.2232702,0.463021 -0.3482671,0.463021 -0.1249969,0 -0.2097121,2.946797 -0.188256,6.548437 0.021456,3.601641 0.078003,5.621815 0.1256608,4.489276 0.051484,-1.223483 0.1894468,-1.995629 0.339948,-1.902614 z"
       id="path27824" />
    <path
       style="fill:#6d6450"
       d="m 3.2045219,77.174156 c 0,-0.403924 -0.8899617,-0.833664 -1.1623543,-0.561271 -0.083785,0.08378 -0.3217672,-0.05417 -0.5288483,-0.306572 -0.2070811,-0.252399 -0.3011238,-0.31008 -0.2089838,-0.128179 0.09214,0.181901 0.041438,0.33073 -0.1126708,0.33073 -0.154109,0 -0.28019822,-0.191333 -0.28019822,-0.425183 0,-0.275562 -0.14449488,-0.369734 -0.41061685,-0.267614 -0.22583927,0.08666 -0.34317288,0.04844 -0.26074137,-0.08494 0.19437013,-0.314497 -0.81746439,-0.637401 -1.21923775,-0.389091 -0.17435811,0.107759 -0.23706131,0.07574 -0.14461341,-0.07384 0.13014144,-0.210573 -3.8499263,-2.06731 -4.9762486,-2.321464 -0.1455208,-0.03284 -0.8400011,-0.316354 -1.5432894,-0.630037 -1.3347979,-0.595352 -2.0285854,-0.717952 -2.0285854,-0.358473 0,0.312469 2.374014,1.411341 2.663094,1.232679 0.1360274,-0.08407 0.2473225,-0.05471 0.2473225,0.06524 0,0.326264 2.5330082,1.162738 2.989982,0.987381 0.2178416,-0.08359 0.473834,-0.02617 0.5688719,0.127602 0.1087129,0.175901 0.00442,0.214977 -0.2812241,0.105366 -0.3080352,-0.118204 -0.3925067,-0.07469 -0.2627102,0.135322 0.1052205,0.170251 0.4581271,0.309547 0.7842368,0.309547 0.3261097,0 0.7270606,0.134134 0.8910021,0.298075 0.1639415,0.163941 1.40814454,0.753351 2.7648957,1.309798 1.3567512,0.556448 2.4767422,1.017627 2.4888689,1.024842 0.012127,0.0072 0.022049,-0.163751 0.022049,-0.379923 z"
       id="path27823" />
    <path
       style="fill:#6d6450"
       d="M 6.0129992,80.279176 C 5.8590581,79.868414 5.8915069,79.858508 6.3005016,80.191411 6.7288791,80.54009 6.7385066,80.516135 6.4364409,79.853173 6.2524447,79.449346 6.0363533,79.26103 5.9385495,79.41928 5.8402008,79.578412 5.6305285,79.402107 5.4519122,79.010087 5.2793028,78.63125 5.2010881,78.219339 5.2781016,78.094729 5.4548788,77.808697 4.2476746,76.010141 3.5517207,75.522676 3.2637475,75.320972 3.0299562,75.013864 3.0321845,74.840215 3.0346299,74.649655 3.137915,74.681826 3.2927164,74.921364 3.7903313,75.691368 3.549838,74.847844 2.9854593,73.843668 2.670947,73.284069 2.2953634,72.899301 2.1508289,72.988628 1.9983877,73.082842 1.9716397,73.015772 2.08713,72.828905 2.1999285,72.646393 2.0742987,72.272598 1.7972812,71.966497 1.5283643,71.669347 1.3562221,71.408959 1.4147429,71.387857 c 0.058521,-0.0211 -0.1445764,-0.514618 -0.45132724,-1.096701 -0.30675082,-0.582084 -0.56481403,-0.939271 -0.5734738,-0.79375 -0.0177654,0.298534 -0.52647154,-0.411133 -0.53275715,-0.743219 -0.002228,-0.117729 0.14477661,-0.141981 0.32667764,-0.05389 0.18190103,0.08809 0.0628385,-0.03847 -0.26458332,-0.28124 -0.32742186,-0.24277 -0.59531247,-0.659087 -0.59531247,-0.925148 0,-0.266061 -0.15581989,-0.578961 -0.34626646,-0.695332 -0.1904465,-0.116372 -0.5077117,-0.628304 -0.7050337,-1.137627 -0.197322,-0.509322 -0.502464,-1.104635 -0.6780934,-1.322916 -0.5717846,-0.710644 -3.5622728,-5.795965 -3.5622728,-6.05764 0,-0.140009 -0.1652675,-0.41983 -0.3672611,-0.621823 -0.2019936,-0.201994 -0.603197,-0.835576 -0.8915632,-1.407962 -1.4466535,-2.871498 -1.5639358,-3.024537 -1.9907659,-2.597707 -0.2756869,0.275687 4.4388004,8.568465 4.8712167,8.568465 0.304337,0 1.5450811,1.998667 1.8707455,3.013512 0.5854329,1.824343 3.5155522,7.192096 3.8811534,7.109974 0.1541909,-0.03463 0.2182597,0.09883 0.1423751,0.296578 -0.075885,0.197752 0.1665252,0.808251 0.5386885,1.356664 0.3721633,0.548413 0.6804471,1.129328 0.6850752,1.290923 0.00463,0.161594 0.1992395,0.531932 0.43247,0.822974 0.362623,0.452506 0.4001729,0.460098 0.2591993,0.0524 -0.098019,-0.283471 -0.058422,-0.410983 0.097668,-0.314515 0.1443881,0.08924 0.1896482,0.452609 0.1005781,0.807492 -0.1261001,0.502423 -0.057991,0.645243 0.3077094,0.645243 0.2583104,0 0.3949798,0.07468 0.3037099,0.165946 -0.09127,0.09127 0.1664976,0.656817 0.5728168,1.256771 0.4063192,0.599954 0.8146015,1.299184 0.9072941,1.553846 0.092693,0.254661 0.2280633,0.463021 0.3008237,0.463021 0.07276,0 0.054205,-0.20836 -0.041234,-0.463021 z"
       id="path27822" />
    <path
       style="fill:#6d6450"
       d="m 11.242924,82.345273 c 0.007,0.209714 0.215349,0.01097 0.463021,-0.441658 0.247672,-0.452626 0.797578,-1.344897 1.222014,-1.982826 0.424436,-0.637928 0.771701,-1.309394 0.771701,-1.492147 0,-0.182753 0.05488,-0.277402 0.121949,-0.21033 0.06707,0.06707 0.671174,-0.18468 1.34245,-0.559449 0.671275,-0.37477 1.49788,-0.711847 1.8369,-0.749062 0.33902,-0.03722 0.756871,-0.216756 0.928557,-0.398979 0.249631,-0.264951 0.188374,-0.267537 -0.305815,-0.01291 -0.339885,0.175124 -0.677504,0.258876 -0.750265,0.186115 -0.226619,-0.226618 0.992021,-0.753019 1.389852,-0.600357 0.207427,0.0796 0.930231,-0.149359 1.606232,-0.508793 0.676001,-0.359433 1.315843,-0.653514 1.421872,-0.653514 0.546963,0 6.316584,-2.73909 6.192506,-2.939852 -0.07993,-0.129331 -0.264392,-0.235148 -0.409913,-0.235148 -0.145521,0 -0.203262,0.09922 -0.128315,0.220486 0.07495,0.121267 -0.229968,0.220486 -0.677589,0.220486 -0.540687,0 -0.988521,0.214616 -1.334237,0.63941 -0.28621,0.351675 -0.433945,0.475135 -0.328301,0.274355 0.12905,-0.245264 0.07147,-0.321232 -0.175478,-0.23151 -0.202157,0.07345 -0.332924,0.282096 -0.290592,0.463659 0.04674,0.200485 -0.08313,0.268681 -0.33073,0.173669 -0.224232,-0.08605 -0.407694,-0.056 -0.407694,0.06676 0,0.122764 -0.274284,0.223207 -0.60952,0.223207 -0.800947,0 -4.624995,1.67982 -6.814718,2.993555 -1.837906,1.102661 -2.100762,1.199852 -2.100762,0.776757 0,-0.145521 0.178594,-0.264584 0.396875,-0.264584 0.218281,0 0.396875,-0.124781 0.396875,-0.277293 0,-0.152511 0.419184,-0.932583 0.931521,-1.733494 0.662079,-1.034996 0.863995,-1.57686 0.698072,-1.87335 -0.297255,-0.531164 -0.639388,-0.05285 -0.677394,0.947012 -0.01439,0.378492 -0.14522,0.675847 -0.290741,0.66079 -0.489286,-0.05063 -2.891726,4.259722 -2.619618,4.700002 0.108745,0.175953 0.07184,0.232236 -0.08765,0.133669 -0.326398,-0.201726 -0.536323,0.05182 -1.497169,1.808289 -0.398024,0.727604 -0.537588,1.091801 -0.310143,0.809326 0.303272,-0.376649 0.416924,-0.411922 0.426244,-0.132291 z"
       id="path27821" />
    <path
       style="fill:#6d6450"
       d="M 8.4464372,83.333059 C 8.0433106,82.85397 7.582011,82.461988 7.4213271,82.461988 c -0.1606839,0 -0.3041969,-0.329544 -0.3189177,-0.73232 -0.025885,-0.708234 -0.3701099,-1.407054 -0.3701099,-0.75137 0,0.178362 -0.1371206,0.23955 -0.3047125,0.135972 -0.1675919,-0.103577 0.095783,0.540178 0.5852764,1.430567 0.4894939,0.890389 0.968248,1.492263 1.063898,1.337498 0.1150401,-0.186138 0.2975627,-0.147335 0.5392027,0.114633 0.7005241,0.759455 0.5577843,0.200451 -0.1695269,-0.663909 z"
       id="path27820" />
    <path
       style="fill:#6d6450"
       d="m 9.4682639,92.530615 c 0.08071,-0.210328 0.1632704,-1.847437 0.1834667,-3.63802 0.034597,-3.067282 0.081975,-3.339785 0.8190424,-4.710815 0.430278,-0.800365 0.610606,-1.240538 0.400731,-0.978164 -0.286523,0.358195 -0.416004,0.391154 -0.519718,0.132292 -0.07597,-0.189614 -0.147527,-0.07686 -0.159015,0.250559 -0.01149,0.327422 -0.180204,0.595313 -0.3749234,0.595313 -0.2724741,0 -0.3662489,0.713468 -0.4070523,3.096983 C 9.3468669,91.013115 9.1210189,91.62072 9.0949531,88.128481 9.0847251,86.75816 8.9633868,85.398863 8.8253124,85.107821 8.630158,84.696463 8.604846,84.777456 8.711617,85.471623 c 0.075542,0.491133 0.1373491,1.956676 0.1373491,3.256761 0,1.508487 0.095736,2.304624 0.2645833,2.20027 0.1577098,-0.09747 0.2539301,0.190125 0.2382096,0.71199 -0.024796,0.82314 -0.039045,0.835944 -0.2382096,0.214052 -0.2007076,-0.62671 -0.2132215,-0.616285 -0.2382097,0.198438 -0.026955,0.878859 0.3289258,1.16545 0.5929242,0.477481 z"
       id="path27819" />
    <path
       style="fill:#6d6450"
       d="M 8.5778341,92.763513 C 8.435915,92.390238 8.3197994,90.720482 8.3197994,89.052945 V 86.021059 L 6.5777377,82.654024 C 5.6196037,80.802154 4.5778069,79.026832 4.2626336,78.708862 3.7351222,78.176671 -4.1826575,74.723113 -7.5367533,73.562235 c -1.5396588,-0.532888 -2.3996963,-1.15097 -2.3996963,-1.724587 0,-0.205299 0.2861849,-0.355868 0.6763961,-0.355868 0.7087917,0 6.9167673,2.402641 10.3869879,4.020022 1.742819,0.812284 1.7408704,0.77034 -0.1253016,-2.697105 -2.3356543,-4.339768 -3.9221418,-6.95066 -4.4224601,-7.27807 -0.3093737,-0.202456 -1.0597251,-0.447462 -1.6674475,-0.544458 -1.316345,-0.210098 -2.8127071,-1.058962 -2.6652353,-1.511949 0.057801,-0.177548 0.4371515,-0.484575 0.8430003,-0.682282 0.6037241,-0.294102 0.8526895,-0.298039 1.3691264,-0.02165 0.3471708,0.1858 0.6990769,0.269961 0.7820137,0.187024 0.082937,-0.08294 -0.4324333,-1.085226 -1.145267,-2.227308 -1.861185,-2.981941 -3.7672296,-6.556146 -3.7672296,-7.06429 0,-0.258755 0.213724,-0.436183 0.5254126,-0.436183 0.630795,0 1.0367442,0.59417 4.3384576,6.35 1.7109058,2.982598 2.6401481,4.35335 2.933221,4.326879 0.2519387,-0.02276 0.4114487,0.14103 0.3865131,0.396875 -0.1663624,1.706914 0.52919951,0.48037 0.91775444,-1.618354 0.14687691,-0.793335 0.0956961,-1.029655 -0.25188339,-1.163034 -0.51441655,-0.1974 -0.97488695,0.395741 -0.75152225,0.968051 0.085192,0.218281 0.2157423,0.545703 0.2901115,0.727604 0.075012,0.183474 -0.054093,0.330729 -0.2899659,0.330729 -0.3048559,0 -0.4251824,-0.247759 -0.4251824,-0.875472 0,-1.092397 0.5361505,-1.859228 1.20811313,-1.727906 0.43611439,0.08523 0.50722566,0.31415 0.48152682,1.550125 -0.0165834,0.79757 -0.12027426,1.946579 -0.23042419,2.553353 -0.18535877,1.021071 -0.0727752,1.346168 1.51184658,4.365625 0.94166556,1.79432 2.69578526,4.914485 3.89804366,6.9337 1.2022585,2.019215 2.4163015,4.192106 2.6978733,4.828645 0.2815719,0.63654 0.5956742,1.157464 0.6980053,1.157609 0.1694708,2.39e-4 0.1653332,-4.445947 -0.014527,-15.610679 L 8.1854406,62.618239 5.0871245,56.400531 C 3.3830506,52.980792 1.6032028,49.587511 1.1319071,48.859907 0.66061146,48.132303 0.26938142,47.333756 0.26250705,47.085359 0.2476651,46.549063 -0.61875993,45.837473 -1.2713459,45.825613 c -0.2546615,-0.0046 -0.4630208,-0.127477 -0.4630208,-0.272998 0,-0.341851 -0.9772775,-0.345203 -1.1881063,-0.0041 -0.088551,0.143279 0.2318436,0.500022 0.7119893,0.792761 0.910835,0.555325 1.9480563,0.724824 1.66861496,0.272678 -0.0966532,-0.156388 0.0246684,-0.190056 0.3017365,-0.08373 0.28739594,0.110284 0.34223193,0.218202 0.14438502,0.284151 -0.17544996,0.05848 -0.2402137,0.233812 -0.14391943,0.389619 0.28686387,0.464156 -1.44444195,0.0079 -2.31071685,-0.608921 -0.8682561,-0.618253 -0.9849581,-1.1613 -0.3285134,-1.528665 0.4547124,-0.25447 1.7508382,0.04811 2.40735784,0.562 0.46529093,0.364204 0.20685278,-0.276743 -1.06816494,-2.649134 -0.5653239,-1.051883 -0.940823,-2.052128 -0.83479,-2.223693 0.1220348,-0.197456 0.078649,-0.241329 -0.118287,-0.119616 -0.4096427,0.253173 -1.2376633,-1.659792 -0.8752882,-2.022167 0.533251,-0.533251 1.2214318,-0.01491 2.095498,1.578351 0.79555294,1.450143 0.9674168,1.61801 1.4126026,1.379754 0.57106329,-0.305624 0.54648642,-0.369184 0.61846367,1.599442 0.0474906,1.298899 0.43512763,2.200862 3.60881743,8.397078 1.9555866,3.818029 3.6449088,6.943419 3.7540494,6.945312 0.1091407,0.0019 0.2133203,-6.247338 0.2315104,-13.887181 0.01819,-7.639844 0.047956,-14.026477 0.066146,-14.192518 0.01819,-0.166041 0.2477912,-0.433932 0.5102247,-0.595312 0.3801651,-0.233779 0.5315923,-0.197767 0.7449855,0.177167 0.1725934,0.303249 0.258655,5.602901 0.2420217,14.903637 -0.014196,7.938178 0.070729,14.373385 0.1887228,14.30046 0.374456,-0.231426 6.859193,-13.466122 7.339271,-14.978714 0.10662,-0.335932 0.01419,-0.700336 -0.242816,-0.957347 -0.784789,-0.784789 -0.344691,-1.69971 0.579643,-1.205021 0.410084,0.21947 0.616957,-0.01815 1.486631,-1.707556 0.978765,-1.901328 1.600154,-2.401741 1.92646,-1.551401 0.171266,0.446313 -0.115762,1.184966 -2.102127,5.40973 -2.771875,5.895449 -3.998688,8.282102 -4.100402,7.97696 -0.149895,-0.449687 0.786891,-2.949964 1.045409,-2.79019 0.117808,0.07281 0.135795,-0.07193 0.03997,-0.321641 -0.127561,-0.332417 -0.08037,-0.396013 0.176202,-0.237445 0.233161,0.144102 0.287252,0.114356 0.16164,-0.08889 -0.103833,-0.168005 -0.07921,-0.305463 0.05472,-0.305463 0.13393,0 0.185491,-0.303495 0.114582,-0.674433 -0.106867,-0.559041 -0.329966,-0.230842 -1.303948,1.918229 -0.646262,1.425964 -1.46339,3.294567 -1.81584,4.152451 -0.35245,0.857883 -0.99932,2.118463 -1.437487,2.801288 -0.821079,1.279541 -0.990865,1.743297 -0.535115,1.461629 0.155971,-0.0964 0.192356,0.03081 0.09014,0.315114 -0.09428,0.26222 -0.07301,0.387408 0.04726,0.278196 0.120271,-0.109212 0.241773,-0.406868 0.270004,-0.661458 0.08517,-0.768032 0.43001,-1.395055 0.681692,-1.239507 0.130272,0.08051 0.245968,0.05006 0.257102,-0.06767 0.11052,-1.168614 0.920125,-2.811368 1.584842,-3.215773 0.321734,-0.195738 1.158656,-0.526253 1.859826,-0.734478 1.23078,-0.365503 1.958736,-0.889736 1.247058,-0.898061 -0.254831,-0.003 -0.241479,-0.07896 0.05053,-0.287535 0.3264,-0.233144 0.302908,-0.261246 -0.132292,-0.158258 -0.291042,0.06887 -0.767292,0.215788 -1.058333,0.326476 -0.38534,0.146551 -0.455006,0.120101 -0.256315,-0.09731 0.150068,-0.164209 0.65425,-0.374843 1.120404,-0.468074 0.657198,-0.131439 0.886437,-0.06818 1.020682,0.281657 0.23193,0.6044 -0.519861,1.269968 -2.079865,1.841323 -1.492866,0.546766 -1.685674,0.802652 -4.202403,5.577234 l -1.952503,3.704166 -0.066486,10.054166 -0.066486,10.054167 0.654552,-1.058334 c 0.360004,-0.582083 0.902761,-1.475052 1.206126,-1.984375 2.602458,-4.369287 3.251919,-5.489013 3.666249,-6.320925 0.569372,-1.143209 3.575442,-6.660832 4.851264,-8.904463 1.042948,-1.834104 1.367383,-2.789282 0.884461,-2.603967 -0.399814,0.153423 -0.943222,-0.997972 -0.943222,-1.998536 0,-1.503958 1.324301,-1.037347 1.735941,0.61165 0.173845,0.696412 0.357669,0.431534 2.203426,-3.175 1.6011,-3.128484 2.135748,-3.952124 2.60907,-4.019347 0.459756,-0.0653 0.595312,0.04562 0.595312,0.487092 0,0.752858 -4.046536,8.498657 -4.259677,8.153788 -0.09311,-0.150657 -0.24075,-0.06788 -0.339938,0.190603 -0.09644,0.25131 -0.241715,0.390553 -0.322841,0.309428 -0.211356,-0.211357 0.410215,-1.291238 0.655847,-1.139429 0.112617,0.0696 0.19594,-0.135424 0.185163,-0.45561 -0.01215,-0.361021 0.118365,-0.552922 0.343594,-0.505192 0.235526,0.04991 0.306343,-0.07117 0.201468,-0.344471 -0.106553,-0.277672 -0.05716,-0.356814 0.144795,-0.232 0.206564,0.127664 0.249703,0.04139 0.132292,-0.264583 -0.09582,-0.249711 -0.07315,-0.39155 0.0504,-0.315197 0.320764,0.198243 1.192056,-1.852439 0.952056,-2.240768 -0.285891,-0.462582 -0.933112,0.792602 -0.756941,1.46797 0.08388,0.321547 0.0523,0.40757 -0.08049,0.219248 -0.140988,-0.199956 -0.653938,0.527245 -1.445702,2.049549 -0.674949,1.297707 -1.120195,2.293347 -0.989435,2.212533 0.361245,-0.223261 0.287628,0.05406 -0.248273,0.935283 -0.267311,0.439558 -0.557172,0.728043 -0.644135,0.64108 -0.08696,-0.08696 -0.51758,0.553982 -0.956927,1.424323 -0.439347,0.870341 -0.724955,1.656295 -0.634685,1.746565 0.09027,0.09027 -0.02629,0.164127 -0.259015,0.164127 -0.480532,0 -0.854311,0.897022 -0.567292,1.361429 0.127108,0.205664 0.07395,0.235952 -0.160176,0.09126 -0.25657,-0.158569 -0.303763,-0.09497 -0.176203,0.237445 0.09582,0.249711 0.06631,0.387325 -0.06559,0.305808 -0.405541,-0.250638 -1.901193,3.026832 -1.6093,3.526511 0.212064,0.363024 0.257772,0.368333 0.290978,0.0338 0.02167,-0.218282 0.01732,-0.557652 -0.0097,-0.754156 -0.02697,-0.196504 0.07798,-0.278774 0.233235,-0.182822 0.155254,0.09595 0.282279,0.04837 0.282279,-0.105741 0,-0.581196 0.04742,-0.682575 0.415669,-0.888658 0.207945,-0.116371 0.378081,-0.331757 0.378081,-0.478635 0,-0.146878 -0.134508,-0.18392 -0.298908,-0.08232 -0.183066,0.113141 -0.247153,0.04229 -0.165365,-0.182822 0.07345,-0.202157 0.263935,-0.338978 0.423301,-0.304046 0.391055,0.08572 0.912363,-0.934761 0.725835,-1.420846 -0.0823,-0.214468 -0.0365,-0.320021 0.101773,-0.234563 0.310243,0.19174 1.379791,-1.834137 1.120257,-2.121928 -0.102906,-0.11411 -0.04685,-0.127124 0.124579,-0.02892 0.181673,0.104075 0.382244,-0.04377 0.48085,-0.354456 0.09304,-0.293155 0.292948,-0.533009 0.444232,-0.533009 0.151403,0 0.196575,-0.204532 0.100478,-0.454956 -0.09602,-0.250226 -0.0921,-0.372475 0.0087,-0.271666 0.100809,0.100809 0.613117,-0.154814 1.138463,-0.568051 0.525345,-0.413237 1.215165,-0.832285 1.532933,-0.931217 0.392073,-0.122066 0.545766,-0.346007 0.478212,-0.696785 -0.05475,-0.284299 0.01268,-0.516908 0.149845,-0.516908 0.137165,0 0.249391,-0.191332 0.249391,-0.425182 0,-0.279009 0.143882,-0.36997 0.418515,-0.264583 0.230183,0.08833 0.53612,0.160599 0.67986,0.160599 0.14374,0 0.223299,0.264787 0.176798,0.588417 -0.06082,0.423315 -0.567098,0.83325 -1.804339,1.460991 -2.039058,1.034561 -3.190248,2.247294 -4.259027,4.486718 -0.432217,0.905631 -1.198565,2.365331 -1.702995,3.243779 -0.50443,0.878448 -1.333863,2.32299 -1.843186,3.210095 -0.509323,0.887104 -0.926042,1.656097 -0.926042,1.708873 0,0.05277 0.565547,-0.180798 1.256771,-0.519051 2.179797,-1.066694 7.950448,-3.556973 9.9622,-4.29911 1.101388,-0.406303 1.675259,-0.185167 1.39755,0.538532 -0.160274,0.417665 -1.399989,1.038977 -5.267612,2.639984 -1.91718,0.793619 -5.859338,2.582198 -8.010367,3.634349 -0.635727,0.310958 -2.03975,2.446058 -3.685169,5.604041 L 9.9072494,86.31137 v 3.2479 c 0,2.173368 -0.1050415,3.352943 -0.3174999,3.565401 -0.4774391,0.477439 -0.7269847,0.388373 -1.0119653,-0.361183 z"
       id="path27818" />
    <path
       style="fill:#5e8337"
       d="m 15.05846,51.704177 c 0.09979,-0.400182 0.529419,-1.254032 0.954724,-1.897444 0.425305,-0.643413 0.773282,-1.260337 0.773282,-1.370943 0,-0.110606 0.720231,-1.688971 1.600513,-3.507478 0.880283,-1.818506 1.817743,-3.923219 2.083245,-4.677139 0.265503,-0.75392 0.556414,-1.251543 0.646471,-1.105828 0.176828,0.286114 -0.395367,1.665148 -2.658533,6.40727 -3.193286,6.691047 -3.814571,7.815226 -3.399702,6.151562 z"
       id="path27695" />
    <path
       style="fill:#5e8337"
       d="m 9.3167663,59.012783 c -0.061363,-0.418093 -0.013127,-0.760169 0.1071903,-0.760169 0.1203177,0 0.2187594,-6.310312 0.2187594,-14.022915 0,-12.288426 -0.049089,-14.022916 -0.396875,-14.022916 -0.3444835,0 -0.4023772,1.231198 -0.4385559,9.326562 -0.022925,5.129609 -0.036367,9.474108 -0.029873,9.654443 0.00649,0.180335 -0.097798,0.260142 -0.2317614,0.177348 -0.1433264,-0.08858 -0.2127008,-4.056594 -0.1685648,-9.641419 0.077881,-9.854796 0.1621966,-10.587494 1.1262894,-9.787368 0.3643489,0.302383 0.4107549,2.017679 0.3993593,14.761446 -0.00709,7.930618 0.03942,14.471619 0.1033584,14.535558 0.15261,0.152609 2.834872,-4.867139 3.775743,-7.066155 0.404707,-0.945885 1.348238,-2.969948 2.096735,-4.497916 1.703931,-3.478376 1.834227,-3.887069 1.404372,-4.405013 -0.187546,-0.225979 -0.364233,-0.569221 -0.392638,-0.76276 -0.06259,-0.426413 0.609873,-0.732033 0.829344,-0.376922 0.311712,0.504362 0.57612,0.21842 1.59832,-1.728494 0.612095,-1.165814 1.203748,-1.974097 1.437246,-1.963486 0.271164,0.01232 0.291999,0.06035 0.06578,0.15161 -0.182103,0.07347 -0.758011,0.986801 -1.279793,2.029632 -0.521783,1.042832 -1.117189,2.084314 -1.323126,2.314404 -0.205936,0.230091 -0.30236,0.490416 -0.214275,0.5785 0.08808,0.08808 -0.428274,1.38811 -1.147464,2.888945 -0.719189,1.500836 -2.009433,4.276604 -2.867209,6.168375 -0.857775,1.891771 -1.63888,3.499115 -1.735788,3.571875 -0.09691,0.07276 -0.575114,0.906198 -1.06268,1.852083 -0.975788,1.893045 -1.6891935,2.283176 -1.873891,1.024752 z"
       id="path27689" />
    <path
       style="fill:#5e8337"
       d="M 20.499941,61.180425 C 20.3493,60.89895 20.226049,60.303638 20.226049,59.857509 c 0,-0.629914 0.116149,-0.811145 0.519857,-0.811145 0.56553,0 1.080372,0.740209 1.04606,1.50396 -0.0138,0.307161 -0.15898,0.165946 -0.40257,-0.391576 -0.213576,-0.488829 -0.504165,-0.795863 -0.661313,-0.69874 -0.378294,0.233799 -0.04816,1.454138 0.507694,1.876704 0.416599,0.316701 0.416065,0.339202 -0.0082,0.347071 -0.249541,0.0046 -0.576963,-0.221883 -0.727604,-0.503358 z"
       id="path27687" />
    <path
       style="fill:#5e8337"
       d="m 10.038706,62.089073 c 0.09477,-0.436563 0.282562,-0.833438 0.417323,-0.881945 0.134761,-0.04851 0.24502,-0.261055 0.24502,-0.472329 0,-0.211275 0.188857,-0.672367 0.419681,-1.02465 0.230825,-0.352283 0.331491,-0.783208 0.223703,-0.957613 -0.120811,-0.195476 -0.08391,-0.247837 0.09621,-0.136516 0.344366,0.212829 0.947205,-0.782432 0.708183,-1.169179 -0.09031,-0.146119 -0.02329,-0.232955 0.148935,-0.192969 0.172221,0.03999 0.480066,-0.395654 0.6841,-0.968087 0.204034,-0.572433 0.539742,-1.227277 0.746017,-1.455208 0.206275,-0.227931 0.413295,-0.533483 0.460045,-0.679004 0.04675,-0.145521 0.174297,-0.234818 0.283438,-0.198437 0.10914,0.03638 0.198437,-0.101446 0.198437,-0.306279 0,-0.225744 0.525594,-0.50713 1.334495,-0.714445 1.299623,-0.333083 2.3318,-1.025039 1.542173,-1.033849 -0.285218,-0.0032 -0.277977,-0.05908 0.03375,-0.260531 0.536252,-0.346553 -0.03905,-0.336732 -0.974964,0.01664 -0.507513,0.191624 -0.657893,0.193205 -0.471976,0.005 0.150068,-0.151948 0.638949,-0.349488 1.086402,-0.438978 0.619114,-0.123823 0.854474,-0.05607 0.984778,0.283499 0.255862,0.666766 0.003,0.905744 -1.827026,1.726828 -1.896662,0.850975 -1.759627,0.673126 -4.48083,5.815377 -1.116608,2.110052 -1.9526604,3.479271 -1.857894,3.042709 z"
       id="path27685" />
    <path
       style="fill:#5e8337"
       d="M 5.4064565,78.884645 C 5.2490862,78.590596 5.1917742,78.234409 5.2790964,78.093119 5.3664187,77.951829 5.0685486,77.299446 4.6171628,76.643379 4.1657771,75.987312 3.8914782,75.448707 4.0076097,75.446479 4.1237413,75.44425 4.085924,75.354954 3.9235714,75.248041 3.7612188,75.141129 3.3697006,74.543434 3.0535308,73.919831 2.707047,73.236437 2.3613564,72.858515 2.1833579,72.968524 2.0001548,73.08175 1.9624301,73.030674 2.083989,72.833987 2.1917615,72.659608 2.1393701,72.347559 1.9675638,72.140545 1.7957575,71.933531 1.6980278,71.635638 1.7503868,71.478561 c 0.052359,-0.157077 0.8383166,0.999779 1.7465726,2.570792 0.908256,1.571012 1.9147925,3.273104 2.2367476,3.782427 0.4373302,0.691843 0.4703403,0.834206 0.1305245,0.562916 -0.517106,-0.412829 -0.5803796,-0.233518 -0.1809562,0.512812 0.1506408,0.281474 0.2143611,0.511772 0.1416007,0.511772 -0.07276,0 -0.2610492,-0.240586 -0.4184195,-0.534635 z"
       id="path27679" />
    <path
       style="fill:#5e8337"
       d="m 9.8234021,83.480521 c -0.099377,-0.09938 -0.1531277,-4.714982 -0.1194452,-10.2569 l 0.061241,-10.076215 0.1371967,9.771996 0.1371964,9.771997 1.216015,-2.09908 c 1.163814,-2.008971 2.178395,-3.729889 3.247795,-5.508867 0.272283,-0.452951 1.210862,-2.192765 2.085731,-3.866255 0.874869,-1.673489 1.972557,-3.697552 2.439306,-4.497916 1.659765,-2.846105 2.52259,-4.497917 2.349491,-4.497917 -0.09656,0 0.05125,-0.246158 0.328467,-0.547017 0.277215,-0.30086 1.396996,-2.295157 2.488403,-4.431771 1.26684,-2.480056 2.151799,-3.915686 2.447395,-3.970299 0.254662,-0.04705 0.463021,0.03851 0.463021,0.190134 0,0.151623 -0.151942,0.217374 -0.337649,0.146111 -0.207923,-0.07979 -0.591814,0.406259 -0.999188,1.265075 -1.257849,2.651769 -3.823267,7.480383 -4.020975,7.568253 -0.109141,0.04851 -0.198438,0.204362 -0.198438,0.346344 0,0.141983 0.130942,0.177224 0.290981,0.07831 0.308697,-0.190785 0.01835,0.42223 -0.571662,1.20694 -0.246714,0.328128 -0.268742,0.30661 -0.127168,-0.124227 0.38835,-1.181832 -0.01826,-0.471804 -3.025728,5.283601 -0.760415,1.455209 -1.616995,3.030615 -1.903511,3.500904 -0.286516,0.470289 -0.444189,0.979254 -0.350384,1.131035 0.09381,0.15178 0.04092,0.243248 -0.117534,0.203262 -0.158449,-0.03999 -0.892869,1.058393 -1.632044,2.440841 -0.739175,1.382447 -1.521303,2.712505 -1.738064,2.955683 -0.21676,0.243178 -0.838631,1.286909 -1.381936,2.319401 -0.543305,1.032493 -1.0691354,1.795951 -1.1685127,1.696573 z"
       id="path27677" />
    <path
       style="fill:#5e8337"
       d="m 9.1135494,84.049488 c 0,-0.218281 -0.089297,-0.397688 -0.1984375,-0.398683 C 8.8059713,83.649811 8.4346198,83.234819 8.0898864,82.728602 7.7451531,82.222384 7.3379666,81.885542 7.1850277,81.980063 7.0081906,82.089354 6.9736729,81.978061 7.0902137,81.674361 7.1915503,81.410282 7.1128145,80.947347 6.9140806,80.63877 6.5339387,80.048516 6.1726754,78.890113 6.368739,78.890113 c 0.063836,0 0.4742719,0.773907 0.9120795,1.719792 0.4378076,0.945885 0.880447,1.719834 0.9836432,1.719887 0.1668789,8.4e-5 0.1595288,-9.400104 -0.01324,-16.933428 L 8.1875078,62.618239 5.0922987,56.400531 C 3.3899338,52.980792 1.6113393,49.587511 1.1398666,48.859907 0.66839385,48.132303 0.26383939,47.26756 0.24085666,46.938257 0.19176088,46.234799 0.27834328,46.313104 -1.124826,45.703133 c -1.1192784,-0.48656 -2.1219229,-0.406549 -1.7827382,0.142264 0.1007924,0.163085 0.7929481,0.584779 1.5381239,0.937097 1.16028156,0.548579 1.23102041,0.62114 0.4925472,0.50523 -1.0865468,-0.170543 -2.4891618,-1.188203 -2.3776262,-1.725074 0.063023,-0.303358 0.3842039,-0.392574 1.2620944,-0.350576 0.6476572,0.03098 1.21871784,0.179812 1.26902362,0.330729 0.13472768,0.404183 0.53848684,0.334184 0.47729424,-0.08275 -0.0288296,-0.196429 -0.24229225,-0.646929 -0.47436135,-1.001111 -1.12659971,-1.719409 -2.88688661,-5.60584 -2.64749081,-5.845236 0.5142515,-0.514251 1.32113,0.108235 2.1457608,1.655401 0.74407203,1.396022 0.90263446,1.548782 1.35584738,1.30623 0.3831281,-0.205044 0.51916976,-0.188475 0.53664846,0.06536 0.0128779,0.187021 0.0493116,0.935351 0.0809638,1.662955 0.059257,1.362168 0.13238582,1.523204 5.31671266,11.707812 0.9814972,1.928151 1.8896796,3.505729 2.018183,3.505729 0.1285034,0 0.2336425,-1.964531 0.2336425,-4.365625 0,-2.734028 0.098885,-4.365625 0.2645833,-4.365625 0.1657773,0 0.2683151,1.704405 0.2745762,4.564063 0.0055,2.510234 0.074004,5.005078 0.152239,5.544098 0.1513772,1.042946 -0.2106074,2.097389 -0.538108,1.567482 -0.1014862,-0.164208 -0.074942,-0.29856 0.058988,-0.29856 0.1339293,0 0.1866073,-0.297656 0.1170622,-0.661458 -0.069545,-0.363802 -0.2187019,-0.661459 -0.3314594,-0.661459 -0.1127574,0 -1.0721648,-1.785937 -2.1320164,-3.968749 -1.0598516,-2.182813 -2.025278,-3.96875 -2.145392,-3.96875 -0.1201139,0 -0.218389,-0.123977 -0.218389,-0.275505 0,-0.251962 -0.9065226,-2.120696 -2.7851251,-5.741347 C 0.59367228,45.031799 0.30616062,44.04081 0.28832332,43.306075 0.26118512,42.188227 0.02028892,41.743857 -0.20011619,42.405072 -0.25365683,42.565694 -0.638095,42.059678 -1.0544232,41.280593 -1.9648761,39.57684 -2.4880083,38.938032 -2.9727933,38.938032 c -0.2911764,0 -0.2758162,0.169498 0.077925,0.859896 0.2423231,0.472943 0.5132712,0.919427 0.602107,0.992187 0.2878668,0.235776 2.93964436,5.478823 2.93964436,5.812212 0,0.177774 0.85427464,2.00861 1.89838814,4.068527 1.0441135,2.059916 2.6654186,5.293115 3.6029001,7.184886 0.9374815,1.89177 1.8989098,3.660435 2.1365074,3.930365 0.3759628,0.427125 0.4372716,1.473833 0.4726721,8.069792 0.056032,10.440142 0.1197478,12.416947 0.3508823,10.8863 0.1420592,-0.940762 0.1862056,-0.677018 0.2103626,1.25677 0.016815,1.346068 -0.022441,2.447396 -0.087237,2.447396 -0.064795,0 -0.1178097,-0.178594 -0.1178093,-0.396875 z"
       id="path27675" />
    <path
       style="fill:#5e8337"
       d="m -3.7041119,62.175195 c -0.5278092,-0.920492 -1.4237614,-2.447528 -1.9910049,-3.393414 -0.5672435,-0.945885 -1.4149303,-2.468351 -1.8837485,-3.383258 -0.4688181,-0.914907 -0.963313,-1.732017 -1.0988776,-1.8158 -0.4830256,-0.298527 -0.715366,0.317315 -0.3667093,0.972 2.5893728,4.862154 5.81274,9.781348 6.1731774,9.42091 0.069749,-0.06975 -0.3050279,-0.879946 -0.8328371,-1.800438 z"
       id="path27657" />
    <path
       style="fill:#5e8337"
       d="M 8.8448491,93.175068 C 8.5518876,92.994008 8.4293192,92.078214 8.3245561,89.287599 l -0.1370483,-3.650611 -1.6761866,-3.175 C 5.5894186,80.715738 4.5750815,79.019498 4.2572388,78.692565 3.939396,78.365632 1.1813364,77.085594 -1.8717826,75.848036 -8.5272053,73.150313 -9.804158,72.532619 -9.804158,72.010947 c 0,-0.780773 1.1752299,-0.532564 5.0566489,1.067969 2.1665512,0.893395 4.23684024,1.721273 4.6006423,1.839729 0.36380207,0.118457 1.05583261,0.418076 1.5378457,0.66582 1.4558039,0.74825 1.4371894,0.61519 -0.3888776,-2.779768 -1.97937005,-3.679974 -3.6262358,-6.527375 -4.0552526,-7.011458 -0.2579345,-0.291042 -0.4320124,-0.754129 -0.3868398,-1.029082 0.1101483,-0.670445 -0.6376646,-1.44482 -0.9333079,-0.966459 -0.1611782,0.260792 -0.269353,0.232572 -0.4678016,-0.122036 -0.340614,-0.608643 -2.3172242,-0.720713 -2.3172242,-0.131381 0,0.249959 0.2596123,0.401289 0.7013084,0.4088 0.3857197,0.0066 0.8865197,0.165638 1.1128891,0.353507 0.2263694,0.18787 0.5183182,0.275615 0.6487751,0.194988 0.1304569,-0.08063 0.4630943,0.0244 0.7391942,0.233391 0.4900515,0.37094 0.4894048,0.380035 -0.027167,0.382087 -1.6916741,0.0067 -3.9313902,-1.017522 -3.676649,-1.681367 0.2503868,-0.652497 1.5539704,-1.040596 2.1806637,-0.649219 0.3002329,0.187498 0.6139563,0.272828 0.6971631,0.189621 0.083207,-0.08321 -0.7196457,-1.626512 -1.7841168,-3.429567 -2.9472789,-4.992251 -3.2893215,-5.713938 -2.8950003,-6.108259 0.2414433,-0.241444 0.4549634,-0.256278 0.7757989,-0.0539 0.4237316,0.267283 5.2659567,8.428628 5.9222935,9.98175 0.2288665,0.541578 0.45384,0.711839 0.8155869,0.61724 0.3731674,-0.09758 0.4648526,-0.01904 0.36242,0.310461 -0.075417,0.242601 -0.034712,0.604166 0.090455,0.803478 0.2493557,0.397065 0.63515442,-0.593272 0.94132521,-2.41636 0.1315846,-0.783519 0.0742722,-1.031306 -0.26900636,-1.163034 -0.24655315,-0.09461 -0.53788155,-0.0068 -0.67004395,0.201892 -0.3293361,0.520117 -0.2970947,0.762998 0.088797,0.668927 0.1819011,-0.04434 0.2414323,-0.03069 0.1322917,0.03035 -0.1091406,0.06104 -0.1984375,0.33918 -0.1984375,0.618095 0,0.278915 -0.1190625,0.507118 -0.2645833,0.507118 -0.393873,0 -0.3038042,-1.645825 0.120728,-2.20606 0.2026652,-0.267448 0.5858317,-0.44443 0.85148117,-0.393294 0.39383687,0.07581 0.4794936,0.336525 0.46400962,1.41231 -0.0104442,0.725634 -0.11462083,1.875371 -0.23150362,2.55497 -0.19745631,1.148082 -0.12524628,1.405857 1.01911316,3.63802 0.67739507,1.321313 1.12343817,2.402387 0.99120707,2.402387 -0.1322311,0 -0.3883721,-0.357188 -0.56920222,-0.79375 -0.1808301,-0.436563 -0.42966304,-0.79375 -0.55296209,-0.79375 -0.12329904,0 -0.14815226,-0.198125 -0.0552294,-0.440279 0.12584352,-0.327943 0.0730942,-0.384627 -0.20674138,-0.222164 -0.20663066,0.119964 -0.29114375,0.1244 -0.18780686,0.0099 0.10333688,-0.114541 -0.01073504,-0.580114 -0.25349317,-1.034607 -0.24275813,-0.454493 -0.45178092,-0.945413 -0.46449508,-1.090934 -0.0127142,-0.145521 -0.17538274,-0.231868 -0.3614857,-0.191882 -0.186103,0.03999 -0.2629612,-0.04931 -0.170796,-0.198437 0.092165,-0.149127 0.043752,-0.271139 -0.1075844,-0.271139 -0.1513366,0 -0.3486386,-0.292773 -0.438449,-0.650606 -0.1851591,-0.737732 -0.883622,-1.459344 -0.9381963,-0.969291 -0.01819,0.163339 -0.050385,0.445808 -0.071545,0.627709 -0.02116,0.181901 0.2020826,0.704093 0.4960937,1.160426 0.6877962,1.067525 1.2273728,2.037701 2.84946502,5.123428 0.72671948,1.382448 1.46572978,2.692135 1.64224528,2.910417 0.4284247,0.529795 1.4668134,2.595909 1.4668134,2.918564 0,0.141039 -0.1260892,0.256435 -0.2801983,0.256435 -0.154109,0 -0.2200945,-0.09725 -0.1466345,-0.21611 0.1522092,-0.24628 -2.68064569,-1.558429 -8.7012917,-4.03035 -0.2910417,-0.119494 -1.1098485,-0.46308 -1.8195708,-0.763525 -2.2741158,-0.962697 -3.2512767,-0.531235 -1.0937293,0.482931 0.6532578,0.307068 1.2599968,0.558305 1.3483089,0.558305 0.175009,0 5.8895002,2.368422 7.73747446,3.206866 0.65716094,0.29816 1.39024094,0.451131 1.71979164,0.358866 0.4010386,-0.112279 0.4669888,-0.08629 0.2185211,0.08611 -0.2737324,0.189931 -0.2126645,0.282865 0.2645834,0.402647 0.3412494,0.08565 0.7395159,0.187165 0.8850367,0.225594 0.5122759,0.13528 1.3843844,1.44104 3.1059691,4.650398 1.8813284,3.50715 2.0207369,4.086482 2.0425024,8.487922 0.00812,1.642161 0.095308,2.176937 0.3416324,2.095448 0.2348145,-0.07768 0.369095,-1.180975 0.4630208,-3.804333 0.1039431,-2.903139 0.2308724,-3.845301 0.5923277,-4.396689 0.253021,-0.385973 0.393732,-0.874558 0.312692,-1.085745 -0.08104,-0.211186 -0.02153,-0.461733 0.132245,-0.556771 0.170152,-0.10516 0.217914,-0.01207 0.122022,0.23782 -0.08666,0.22584 -0.07871,0.410617 0.01767,0.410617 0.09638,0 0.469619,-0.643014 0.829418,-1.42892 0.3598,-0.785906 0.829463,-1.574391 1.043696,-1.752189 0.214233,-0.177797 0.389514,-0.470561 0.389514,-0.650586 0,-0.180026 0.400857,-0.719261 0.890793,-1.1983 0.520708,-0.509127 0.843059,-1.053513 0.775898,-1.310337 -0.06319,-0.241645 0.465927,-1.384472 1.17582,-2.539615 0.709892,-1.155144 1.866448,-3.231354 2.570125,-4.613802 2.346349,-4.609657 3.357736,-5.840598 5.552224,-6.757514 0.517764,-0.216335 0.94139,-0.52538 0.94139,-0.686767 0,-0.196913 -0.132535,-0.183435 -0.402932,0.04098 -0.336907,0.279607 -0.375623,0.263238 -0.236276,-0.0999 0.09166,-0.238864 0.362277,-0.436122 0.601369,-0.43835 0.344809,-0.0032 0.360472,-0.05109 0.07574,-0.231511 -0.20691,-0.131104 -0.251442,-0.293919 -0.105125,-0.384348 0.424729,-0.262497 1.171447,0.457051 0.983253,0.947476 -0.09411,0.245243 -0.933201,0.817164 -1.86465,1.270935 -2.096637,1.021413 -2.891159,1.96525 -4.779352,5.677541 -0.814183,1.600729 -1.685176,3.208072 -1.93554,3.571874 -0.881934,1.281532 -1.945022,3.44424 -1.776076,3.613186 0.09402,0.09402 -0.03556,0.327764 -0.287958,0.519426 -0.388134,0.294733 -0.395661,0.349773 -0.0488,0.35689 0.225557,0.0046 0.545042,-0.126523 0.709966,-0.291448 0.164925,-0.164924 0.57569,-0.328323 0.912813,-0.363108 1.107491,-0.114273 1.145912,-0.136152 0.745242,-0.424373 -0.335759,-0.241526 -0.326068,-0.262743 0.06293,-0.137778 0.252893,0.08124 1.324455,-0.253272 2.38125,-0.743365 1.056795,-0.490092 3.11207,-1.389937 4.567279,-1.999655 2.916714,-1.222075 3.670426,-1.712728 2.738792,-1.782906 -0.313075,-0.02358 -1.474098,0.360353 -2.580052,0.853192 -1.105953,0.492839 -3.022855,1.328825 -4.259782,1.857745 -1.236927,0.528921 -2.773079,1.252466 -3.413672,1.607879 -0.640593,0.355414 -1.225984,0.584937 -1.300868,0.510052 -0.07489,-0.07488 -0.08655,-0.182474 -0.02591,-0.239089 0.237039,-0.221326 4.852377,-2.328248 6.761149,-3.086493 1.10867,-0.440411 2.380526,-0.989373 2.826347,-1.219916 1.812673,-0.93737 3.032567,-0.935075 2.671816,0.005 -0.178139,0.464224 -1.28012,1.025469 -5.197035,2.646881 -1.951543,0.807843 -6.017095,2.654285 -8.058896,3.66009 -0.692335,0.341048 -1.855397,2.118193 -3.575527,5.463361 L 9.9072993,86.3461 v 3.251068 c 0,3.359692 -0.2194984,4.098873 -1.0624502,3.5779 z"
       id="path27656" />
    <path
       style="fill:#586b31"
       d="m 15.05846,51.704177 c 0.09979,-0.400182 0.529419,-1.254032 0.954724,-1.897444 0.425305,-0.643413 0.773282,-1.260337 0.773282,-1.370943 0,-0.110606 0.720231,-1.688971 1.600513,-3.507478 0.880283,-1.818506 1.817743,-3.923219 2.083245,-4.677139 0.265503,-0.75392 0.556414,-1.251543 0.646471,-1.105828 0.176828,0.286114 -0.395367,1.665148 -2.658533,6.40727 -3.193286,6.691047 -3.814571,7.815226 -3.399702,6.151562 z"
       id="path27520" />
    <path
       style="fill:#586b31"
       d="m 9.3167663,59.012783 c -0.061363,-0.418093 -0.013127,-0.760169 0.1071903,-0.760169 0.1203177,0 0.2187594,-6.310312 0.2187594,-14.022915 0,-12.288426 -0.049089,-14.022916 -0.396875,-14.022916 -0.3444835,0 -0.4023772,1.231198 -0.4385559,9.326562 -0.022925,5.129609 -0.036367,9.474108 -0.029873,9.654443 0.00649,0.180335 -0.097798,0.260142 -0.2317614,0.177348 -0.1433264,-0.08858 -0.2127008,-4.056594 -0.1685648,-9.641419 0.077881,-9.854796 0.1621966,-10.587494 1.1262894,-9.787368 0.3643489,0.302383 0.4107549,2.017679 0.3993593,14.761446 -0.00709,7.930618 0.03942,14.471619 0.1033584,14.535558 0.15261,0.152609 2.834872,-4.867139 3.775743,-7.066155 0.404707,-0.945885 1.348238,-2.969948 2.096735,-4.497916 1.703931,-3.478376 1.834227,-3.887069 1.404372,-4.405013 -0.187546,-0.225979 -0.364233,-0.569221 -0.392638,-0.76276 -0.06259,-0.426413 0.609873,-0.732033 0.829344,-0.376922 0.311712,0.504362 0.57612,0.21842 1.59832,-1.728494 0.612095,-1.165814 1.203748,-1.974097 1.437246,-1.963486 0.271164,0.01232 0.291999,0.06035 0.06578,0.15161 -0.182103,0.07347 -0.758011,0.986801 -1.279793,2.029632 -0.521783,1.042832 -1.117189,2.084314 -1.323126,2.314404 -0.205936,0.230091 -0.30236,0.490416 -0.214275,0.5785 0.08808,0.08808 -0.428274,1.38811 -1.147464,2.888945 -0.719189,1.500836 -2.009433,4.276604 -2.867209,6.168375 -0.857775,1.891771 -1.63888,3.499115 -1.735788,3.571875 -0.09691,0.07276 -0.575114,0.906198 -1.06268,1.852083 -0.975788,1.893045 -1.6891935,2.283176 -1.873891,1.024752 z"
       id="path27510" />
    <path
       style="fill:#586b31"
       d="M 20.499941,61.180425 C 20.3493,60.89895 20.226049,60.303638 20.226049,59.857509 c 0,-0.629914 0.116149,-0.811145 0.519857,-0.811145 0.56553,0 1.080372,0.740209 1.04606,1.50396 -0.0138,0.307161 -0.15898,0.165946 -0.40257,-0.391576 -0.213576,-0.488829 -0.504165,-0.795863 -0.661313,-0.69874 -0.378294,0.233799 -0.04816,1.454138 0.507694,1.876704 0.416599,0.316701 0.416065,0.339202 -0.0082,0.347071 -0.249541,0.0046 -0.576963,-0.221883 -0.727604,-0.503358 z"
       id="path27508" />
    <path
       style="fill:#586b31"
       d="m 10.038706,62.089073 c 0.09477,-0.436563 0.282562,-0.833438 0.417323,-0.881945 0.134761,-0.04851 0.24502,-0.261055 0.24502,-0.472329 0,-0.211275 0.188857,-0.672367 0.419681,-1.02465 0.230825,-0.352283 0.331491,-0.783208 0.223703,-0.957613 -0.120811,-0.195476 -0.08391,-0.247837 0.09621,-0.136516 0.344366,0.212829 0.947205,-0.782432 0.708183,-1.169179 -0.09031,-0.146119 -0.02329,-0.232955 0.148935,-0.192969 0.172221,0.03999 0.480066,-0.395654 0.6841,-0.968087 0.204034,-0.572433 0.539742,-1.227277 0.746017,-1.455208 0.206275,-0.227931 0.413295,-0.533483 0.460045,-0.679004 0.04675,-0.145521 0.174297,-0.234818 0.283438,-0.198437 0.10914,0.03638 0.198437,-0.101446 0.198437,-0.306279 0,-0.225744 0.525594,-0.50713 1.334495,-0.714445 1.299623,-0.333083 2.3318,-1.025039 1.542173,-1.033849 -0.285218,-0.0032 -0.277977,-0.05908 0.03375,-0.260531 0.536252,-0.346553 -0.03905,-0.336732 -0.974964,0.01664 -0.507513,0.191624 -0.657893,0.193205 -0.471976,0.005 0.150068,-0.151948 0.638949,-0.349488 1.086402,-0.438978 0.619114,-0.123823 0.854474,-0.05607 0.984778,0.283499 0.255862,0.666766 0.003,0.905744 -1.827026,1.726828 -1.896662,0.850975 -1.759627,0.673126 -4.48083,5.815377 -1.116608,2.110052 -1.9526604,3.479271 -1.857894,3.042709 z"
       id="path27506" />
    <path
       style="fill:#586b31"
       d="M 5.4064565,78.884645 C 5.2490862,78.590596 5.1917742,78.234409 5.2790964,78.093119 5.3664187,77.951829 5.0685486,77.299446 4.6171628,76.643379 4.1657771,75.987312 3.8914782,75.448707 4.0076097,75.446479 4.1237413,75.44425 4.085924,75.354954 3.9235714,75.248041 3.7612188,75.141129 3.3697006,74.543434 3.0535308,73.919831 2.707047,73.236437 2.3613564,72.858515 2.1833579,72.968524 2.0001548,73.08175 1.9624301,73.030674 2.083989,72.833987 2.1917615,72.659608 2.1393701,72.347559 1.9675638,72.140545 1.7957575,71.933531 1.6980278,71.635638 1.7503868,71.478561 c 0.052359,-0.157077 0.8383166,0.999779 1.7465726,2.570792 0.908256,1.571012 1.9147925,3.273104 2.2367476,3.782427 0.4373302,0.691843 0.4703403,0.834206 0.1305245,0.562916 -0.517106,-0.412829 -0.5803796,-0.233518 -0.1809562,0.512812 0.1506408,0.281474 0.2143611,0.511772 0.1416007,0.511772 -0.07276,0 -0.2610492,-0.240586 -0.4184195,-0.534635 z"
       id="path27491" />
    <path
       style="fill:#586b31"
       d="m 9.8234021,83.480521 c -0.099377,-0.09938 -0.1531277,-4.714982 -0.1194452,-10.2569 l 0.061241,-10.076215 0.1371967,9.771996 0.1371964,9.771997 1.216015,-2.09908 c 1.163814,-2.008971 2.178395,-3.729889 3.247795,-5.508867 0.272283,-0.452951 1.210862,-2.192765 2.085731,-3.866255 0.874869,-1.673489 1.972557,-3.697552 2.439306,-4.497916 1.659765,-2.846105 2.52259,-4.497917 2.349491,-4.497917 -0.09656,0 0.05125,-0.246158 0.328467,-0.547017 0.277215,-0.30086 1.396996,-2.295157 2.488403,-4.431771 1.26684,-2.480056 2.151799,-3.915686 2.447395,-3.970299 0.254662,-0.04705 0.463021,0.03851 0.463021,0.190134 0,0.151623 -0.151942,0.217374 -0.337649,0.146111 -0.207923,-0.07979 -0.591814,0.406259 -0.999188,1.265075 -1.257849,2.651769 -3.823267,7.480383 -4.020975,7.568253 -0.109141,0.04851 -0.198438,0.204362 -0.198438,0.346344 0,0.141983 0.130942,0.177224 0.290981,0.07831 0.308697,-0.190785 0.01835,0.42223 -0.571662,1.20694 -0.246714,0.328128 -0.268742,0.30661 -0.127168,-0.124227 0.38835,-1.181832 -0.01826,-0.471804 -3.025728,5.283601 -0.760415,1.455209 -1.616995,3.030615 -1.903511,3.500904 -0.286516,0.470289 -0.444189,0.979254 -0.350384,1.131035 0.09381,0.15178 0.04092,0.243248 -0.117534,0.203262 -0.158449,-0.03999 -0.892869,1.058393 -1.632044,2.440841 -0.739175,1.382447 -1.521303,2.712505 -1.738064,2.955683 -0.21676,0.243178 -0.838631,1.286909 -1.381936,2.319401 -0.543305,1.032493 -1.0691354,1.795951 -1.1685127,1.696573 z"
       id="path27485" />
    <path
       style="fill:#586b31"
       d="m 9.1135494,84.049488 c 0,-0.218281 -0.089297,-0.397688 -0.1984375,-0.398683 C 8.8059713,83.649811 8.4346198,83.234819 8.0898864,82.728602 7.7451531,82.222384 7.3379666,81.885542 7.1850277,81.980063 7.0081906,82.089354 6.9736729,81.978061 7.0902137,81.674361 7.1915503,81.410282 7.1128145,80.947347 6.9140806,80.63877 6.5339387,80.048516 6.1726754,78.890113 6.368739,78.890113 c 0.063836,0 0.4742719,0.773907 0.9120795,1.719792 0.4378076,0.945885 0.880447,1.719834 0.9836432,1.719887 0.1668789,8.4e-5 0.1595288,-9.400104 -0.01324,-16.933428 L 8.1875078,62.618239 5.0922987,56.400531 C 3.3899338,52.980792 1.6113393,49.587511 1.1398666,48.859907 0.66839385,48.132303 0.26383939,47.26756 0.24085666,46.938257 0.19176088,46.234799 0.27834328,46.313104 -1.124826,45.703133 c -1.1192784,-0.48656 -2.1219229,-0.406549 -1.7827382,0.142264 0.1007924,0.163085 0.7929481,0.584779 1.5381239,0.937097 1.16028156,0.548579 1.23102041,0.62114 0.4925472,0.50523 -1.0865468,-0.170543 -2.4891618,-1.188203 -2.3776262,-1.725074 0.063023,-0.303358 0.3842039,-0.392574 1.2620944,-0.350576 0.6476572,0.03098 1.21871784,0.179812 1.26902362,0.330729 0.13472768,0.404183 0.53848684,0.334184 0.47729424,-0.08275 -0.0288296,-0.196429 -0.24229225,-0.646929 -0.47436135,-1.001111 -1.12659971,-1.719409 -2.88688661,-5.60584 -2.64749081,-5.845236 0.5142515,-0.514251 1.32113,0.108235 2.1457608,1.655401 0.74407203,1.396022 0.90263446,1.548782 1.35584738,1.30623 0.3831281,-0.205044 0.51916976,-0.188475 0.53664846,0.06536 0.0128779,0.187021 0.0493116,0.935351 0.0809638,1.662955 0.059257,1.362168 0.13238582,1.523204 5.31671266,11.707812 0.9814972,1.928151 1.8896796,3.505729 2.018183,3.505729 0.1285034,0 0.2336425,-1.964531 0.2336425,-4.365625 0,-2.734028 0.098885,-4.365625 0.2645833,-4.365625 0.1657773,0 0.2683151,1.704405 0.2745762,4.564063 0.0055,2.510234 0.074004,5.005078 0.152239,5.544098 0.1513772,1.042946 -0.2106074,2.097389 -0.538108,1.567482 -0.1014862,-0.164208 -0.074942,-0.29856 0.058988,-0.29856 0.1339293,0 0.1866073,-0.297656 0.1170622,-0.661458 -0.069545,-0.363802 -0.2187019,-0.661459 -0.3314594,-0.661459 -0.1127574,0 -1.0721648,-1.785937 -2.1320164,-3.968749 -1.0598516,-2.182813 -2.025278,-3.96875 -2.145392,-3.96875 -0.1201139,0 -0.218389,-0.123977 -0.218389,-0.275505 0,-0.251962 -0.9065226,-2.120696 -2.7851251,-5.741347 C 0.59367228,45.031799 0.30616062,44.04081 0.28832332,43.306075 0.26118512,42.188227 0.02028892,41.743857 -0.20011619,42.405072 -0.25365683,42.565694 -0.638095,42.059678 -1.0544232,41.280593 -1.9648761,39.57684 -2.4880083,38.938032 -2.9727933,38.938032 c -0.2911764,0 -0.2758162,0.169498 0.077925,0.859896 0.2423231,0.472943 0.5132712,0.919427 0.602107,0.992187 0.2878668,0.235776 2.93964436,5.478823 2.93964436,5.812212 0,0.177774 0.85427464,2.00861 1.89838814,4.068527 1.0441135,2.059916 2.6654186,5.293115 3.6029001,7.184886 0.9374815,1.89177 1.8989098,3.660435 2.1365074,3.930365 0.3759628,0.427125 0.4372716,1.473833 0.4726721,8.069792 0.056032,10.440142 0.1197478,12.416947 0.3508823,10.8863 0.1420592,-0.940762 0.1862056,-0.677018 0.2103626,1.25677 0.016815,1.346068 -0.022441,2.447396 -0.087237,2.447396 -0.064795,0 -0.1178097,-0.178594 -0.1178093,-0.396875 z"
       id="path27481" />
    <path
       style="fill:#586b31"
       d="m -3.7041119,62.175195 c -0.5278092,-0.920492 -1.4237614,-2.447528 -1.9910049,-3.393414 -0.5672435,-0.945885 -1.4149303,-2.468351 -1.8837485,-3.383258 -0.4688181,-0.914907 -0.963313,-1.732017 -1.0988776,-1.8158 -0.4830256,-0.298527 -0.715366,0.317315 -0.3667093,0.972 2.5893728,4.862154 5.81274,9.781348 6.1731774,9.42091 0.069749,-0.06975 -0.3050279,-0.879946 -0.8328371,-1.800438 z"
       id="path27468" />
    <path
       style="fill:#586b31"
       d="M 8.8448491,93.175068 C 8.5518876,92.994008 8.4293192,92.078214 8.3245561,89.287599 l -0.1370483,-3.650611 -1.6761866,-3.175 C 5.5894186,80.715738 4.5750815,79.019498 4.2572388,78.692565 3.939396,78.365632 1.1813364,77.085594 -1.8717826,75.848036 -8.5272053,73.150313 -9.804158,72.532619 -9.804158,72.010947 c 0,-0.780773 1.1752299,-0.532564 5.0566489,1.067969 2.1665512,0.893395 4.23684024,1.721273 4.6006423,1.839729 0.36380207,0.118457 1.05583261,0.418076 1.5378457,0.66582 1.4558039,0.74825 1.4371894,0.61519 -0.3888776,-2.779768 -1.97937005,-3.679974 -3.6262358,-6.527375 -4.0552526,-7.011458 -0.2579345,-0.291042 -0.4320124,-0.754129 -0.3868398,-1.029082 0.1101483,-0.670445 -0.6376646,-1.44482 -0.9333079,-0.966459 -0.1611782,0.260792 -0.269353,0.232572 -0.4678016,-0.122036 -0.340614,-0.608643 -2.3172242,-0.720713 -2.3172242,-0.131381 0,0.249959 0.2596123,0.401289 0.7013084,0.4088 0.3857197,0.0066 0.8865197,0.165638 1.1128891,0.353507 0.2263694,0.18787 0.5183182,0.275615 0.6487751,0.194988 0.1304569,-0.08063 0.4630943,0.0244 0.7391942,0.233391 0.4900515,0.37094 0.4894048,0.380035 -0.027167,0.382087 -1.6916741,0.0067 -3.9313902,-1.017522 -3.676649,-1.681367 0.2503868,-0.652497 1.5539704,-1.040596 2.1806637,-0.649219 0.3002329,0.187498 0.6139563,0.272828 0.6971631,0.189621 0.083207,-0.08321 -0.7196457,-1.626512 -1.7841168,-3.429567 -2.9472789,-4.992251 -3.2893215,-5.713938 -2.8950003,-6.108259 0.2414433,-0.241444 0.4549634,-0.256278 0.7757989,-0.0539 0.4237316,0.267283 5.2659567,8.428628 5.9222935,9.98175 0.2288665,0.541578 0.45384,0.711839 0.8155869,0.61724 0.3731674,-0.09758 0.4648526,-0.01904 0.36242,0.310461 -0.075417,0.242601 -0.034712,0.604166 0.090455,0.803478 0.2493557,0.397065 0.63515442,-0.593272 0.94132521,-2.41636 0.1315846,-0.783519 0.0742722,-1.031306 -0.26900636,-1.163034 -0.24655315,-0.09461 -0.53788155,-0.0068 -0.67004395,0.201892 -0.3293361,0.520117 -0.2970947,0.762998 0.088797,0.668927 0.1819011,-0.04434 0.2414323,-0.03069 0.1322917,0.03035 -0.1091406,0.06104 -0.1984375,0.33918 -0.1984375,0.618095 0,0.278915 -0.1190625,0.507118 -0.2645833,0.507118 -0.393873,0 -0.3038042,-1.645825 0.120728,-2.20606 0.2026652,-0.267448 0.5858317,-0.44443 0.85148117,-0.393294 0.39383687,0.07581 0.4794936,0.336525 0.46400962,1.41231 -0.0104442,0.725634 -0.11462083,1.875371 -0.23150362,2.55497 -0.19745631,1.148082 -0.12524628,1.405857 1.01911316,3.63802 0.67739507,1.321313 1.12343817,2.402387 0.99120707,2.402387 -0.1322311,0 -0.3883721,-0.357188 -0.56920222,-0.79375 -0.1808301,-0.436563 -0.42966304,-0.79375 -0.55296209,-0.79375 -0.12329904,0 -0.14815226,-0.198125 -0.0552294,-0.440279 0.12584352,-0.327943 0.0730942,-0.384627 -0.20674138,-0.222164 -0.20663066,0.119964 -0.29114375,0.1244 -0.18780686,0.0099 0.10333688,-0.114541 -0.01073504,-0.580114 -0.25349317,-1.034607 -0.24275813,-0.454493 -0.45178092,-0.945413 -0.46449508,-1.090934 -0.0127142,-0.145521 -0.17538274,-0.231868 -0.3614857,-0.191882 -0.186103,0.03999 -0.2629612,-0.04931 -0.170796,-0.198437 0.092165,-0.149127 0.043752,-0.271139 -0.1075844,-0.271139 -0.1513366,0 -0.3486386,-0.292773 -0.438449,-0.650606 -0.1851591,-0.737732 -0.883622,-1.459344 -0.9381963,-0.969291 -0.01819,0.163339 -0.050385,0.445808 -0.071545,0.627709 -0.02116,0.181901 0.2020826,0.704093 0.4960937,1.160426 0.6877962,1.067525 1.2273728,2.037701 2.84946502,5.123428 0.72671948,1.382448 1.46572978,2.692135 1.64224528,2.910417 0.4284247,0.529795 1.4668134,2.595909 1.4668134,2.918564 0,0.141039 -0.1260892,0.256435 -0.2801983,0.256435 -0.154109,0 -0.2200945,-0.09725 -0.1466345,-0.21611 0.1522092,-0.24628 -2.68064569,-1.558429 -8.7012917,-4.03035 -0.2910417,-0.119494 -1.1098485,-0.46308 -1.8195708,-0.763525 -2.2741158,-0.962697 -3.2512767,-0.531235 -1.0937293,0.482931 0.6532578,0.307068 1.2599968,0.558305 1.3483089,0.558305 0.175009,0 5.8895002,2.368422 7.73747446,3.206866 0.65716094,0.29816 1.39024094,0.451131 1.71979164,0.358866 0.4010386,-0.112279 0.4669888,-0.08629 0.2185211,0.08611 -0.2737324,0.189931 -0.2126645,0.282865 0.2645834,0.402647 0.3412494,0.08565 0.7395159,0.187165 0.8850367,0.225594 0.5122759,0.13528 1.3843844,1.44104 3.1059691,4.650398 1.8813284,3.50715 2.0207369,4.086482 2.0425024,8.487922 0.00812,1.642161 0.095308,2.176937 0.3416324,2.095448 0.2348145,-0.07768 0.369095,-1.180975 0.4630208,-3.804333 0.1039431,-2.903139 0.2308724,-3.845301 0.5923277,-4.396689 0.253021,-0.385973 0.393732,-0.874558 0.312692,-1.085745 -0.08104,-0.211186 -0.02153,-0.461733 0.132245,-0.556771 0.170152,-0.10516 0.217914,-0.01207 0.122022,0.23782 -0.08666,0.22584 -0.07871,0.410617 0.01767,0.410617 0.09638,0 0.469619,-0.643014 0.829418,-1.42892 0.3598,-0.785906 0.829463,-1.574391 1.043696,-1.752189 0.214233,-0.177797 0.389514,-0.470561 0.389514,-0.650586 0,-0.180026 0.400857,-0.719261 0.890793,-1.1983 0.520708,-0.509127 0.843059,-1.053513 0.775898,-1.310337 -0.06319,-0.241645 0.465927,-1.384472 1.17582,-2.539615 0.709892,-1.155144 1.866448,-3.231354 2.570125,-4.613802 2.346349,-4.609657 3.357736,-5.840598 5.552224,-6.757514 0.517764,-0.216335 0.94139,-0.52538 0.94139,-0.686767 0,-0.196913 -0.132535,-0.183435 -0.402932,0.04098 -0.336907,0.279607 -0.375623,0.263238 -0.236276,-0.0999 0.09166,-0.238864 0.362277,-0.436122 0.601369,-0.43835 0.344809,-0.0032 0.360472,-0.05109 0.07574,-0.231511 -0.20691,-0.131104 -0.251442,-0.293919 -0.105125,-0.384348 0.424729,-0.262497 1.171447,0.457051 0.983253,0.947476 -0.09411,0.245243 -0.933201,0.817164 -1.86465,1.270935 -2.096637,1.021413 -2.891159,1.96525 -4.779352,5.677541 -0.814183,1.600729 -1.685176,3.208072 -1.93554,3.571874 -0.881934,1.281532 -1.945022,3.44424 -1.776076,3.613186 0.09402,0.09402 -0.03556,0.327764 -0.287958,0.519426 -0.388134,0.294733 -0.395661,0.349773 -0.0488,0.35689 0.225557,0.0046 0.545042,-0.126523 0.709966,-0.291448 0.164925,-0.164924 0.57569,-0.328323 0.912813,-0.363108 1.107491,-0.114273 1.145912,-0.136152 0.745242,-0.424373 -0.335759,-0.241526 -0.326068,-0.262743 0.06293,-0.137778 0.252893,0.08124 1.324455,-0.253272 2.38125,-0.743365 1.056795,-0.490092 3.11207,-1.389937 4.567279,-1.999655 2.916714,-1.222075 3.670426,-1.712728 2.738792,-1.782906 -0.313075,-0.02358 -1.474098,0.360353 -2.580052,0.853192 -1.105953,0.492839 -3.022855,1.328825 -4.259782,1.857745 -1.236927,0.528921 -2.773079,1.252466 -3.413672,1.607879 -0.640593,0.355414 -1.225984,0.584937 -1.300868,0.510052 -0.07489,-0.07488 -0.08655,-0.182474 -0.02591,-0.239089 0.237039,-0.221326 4.852377,-2.328248 6.761149,-3.086493 1.10867,-0.440411 2.380526,-0.989373 2.826347,-1.219916 1.812673,-0.93737 3.032567,-0.935075 2.671816,0.005 -0.178139,0.464224 -1.28012,1.025469 -5.197035,2.646881 -1.951543,0.807843 -6.017095,2.654285 -8.058896,3.66009 -0.692335,0.341048 -1.855397,2.118193 -3.575527,5.463361 L 9.9072993,86.3461 v 3.251068 c 0,3.359692 -0.2194984,4.098873 -1.0624502,3.5779 z"
       id="path27467" />
    <path
       style="fill:#212512"
       d="m 16.797175,48.653123 c -0.0059,-0.113732 0.809578,-1.9592 1.812152,-4.101042 1.002574,-2.141841 1.906413,-4.17112 2.008533,-4.509509 0.102119,-0.338388 0.252784,-0.548139 0.334811,-0.466112 0.08203,0.08203 -0.171306,0.894672 -0.562962,1.805877 -0.950972,2.212478 -3.57904,7.531321 -3.592534,7.270786 z"
       id="path27302" />
    <path
       style="fill:#212512"
       d="m 13.627376,52.609568 c -0.02186,-0.301042 4.016741,-8.668745 4.129485,-8.556002 0.04976,0.04976 -0.855432,2.044518 -2.011547,4.432785 -1.156115,2.388268 -2.109187,4.243716 -2.117938,4.123217 z"
       id="path27299" />
    <path
       style="fill:#212512"
       d="M 9.7064722,44.311459 C 9.6447333,30.6833 9.5327791,28.851743 8.863499,30.520514 8.6251997,31.114685 8.6174278,31.116027 8.6011537,30.565819 8.5811293,29.88882 9.2226649,29.56836 9.6257291,30.054023 c 0.1993746,0.240232 0.2647636,4.592949 0.2153923,14.337918 l -0.070893,13.992965 z"
       id="path27291" />
    <path
       style="fill:#212512"
       d="M 6.2066572,58.579536 C 5.2827754,56.72624 4.4235917,55.001547 4.2973601,54.746886 4.1711286,54.492224 4.1301694,54.283865 4.2063398,54.283865 c 0.183554,0 3.8975712,7.447832 3.7750934,7.57031 -0.052245,0.05224 -0.8508941,-1.421343 -1.774776,-3.274639 z"
       id="path27286" />
    <path
       style="fill:#212512"
       d="M -5.0390137,59.777972 C -5.7365059,58.575223 -6.4966924,57.2935 -6.728317,56.929698 c -0.2316247,-0.363802 -0.6209511,-1.097403 -0.8651699,-1.630223 -0.2442188,-0.532821 -0.6926994,-1.21743 -0.9966235,-1.521354 -0.3039241,-0.303924 -0.4481053,-0.55259 -0.3204028,-0.55259 0.3257445,0 0.6476114,0.42885 1.6879227,2.248959 0.4990481,0.873125 1.5223434,2.648133 2.2739896,3.944462 0.7516461,1.296329 1.3241325,2.399459 1.272192,2.451399 -0.05194,0.05194 -0.6651127,-0.88963 -1.3626048,-2.092379 z"
       id="path27285" />
    <path
       style="fill:#212512"
       d="m 9.9121025,62.610927 c -0.0045,-0.254677 1.1301795,-2.545061 2.7357505,-5.522198 0.384466,-0.712898 0.699029,-1.171172 0.699029,-1.018387 0,0.365377 -3.4285351,6.894071 -3.4347795,6.540585 z"
       id="path27282" />
    <path
       style="fill:#212512"
       d="m -5.6346995,61.096885 c -1.6508856,-2.631682 -3.0087082,-5.019257 -2.9103862,-5.117579 0.049808,-0.04981 0.7086351,0.947326 1.4640596,2.215853 0.7554244,1.268528 1.678896,2.812429 2.0521591,3.430893 0.373263,0.618463 0.6230533,1.124479 0.5550896,1.124479 -0.067964,0 -0.5903787,-0.744141 -1.1609221,-1.653646 z"
       id="path27281" />
    <path
       style="fill:#212512"
       d="m 18.373966,70.547334 c 0,-0.272011 1.938694,-3.706888 2.643153,-4.683003 0.39187,-0.542982 1.01144,-1.222394 1.376822,-1.509804 0.612839,-0.482059 3.388358,-1.714171 3.388358,-1.504165 0,0.05066 -0.76372,0.468088 -1.697156,0.927617 -2.060522,1.014391 -3.010778,2.053708 -4.395136,4.807058 -0.934236,1.858104 -1.316041,2.427399 -1.316041,1.962297 z"
       id="path27267" />
    <path
       style="fill:#212512"
       d="m 15.998794,72.407822 c 1.410312,-2.675857 2.110588,-3.839742 2.110588,-3.507878 0,0.270868 -2.914676,5.582224 -3.231737,5.889128 -0.150337,0.145521 0.354181,-0.926042 1.121149,-2.38125 z"
       id="path27262" />
    <path
       style="fill:#212512"
       d="m 1.0550433,72.868735 c -2.3697592,-4.310002 -3.1160333,-5.753363 -2.8375082,-5.487996 0.3796289,0.361695 4.3216843,7.588566 4.2037043,7.706546 -0.051945,0.05195 -0.6667337,-0.946402 -1.3661961,-2.21855 z"
       id="path27261" />
    <path
       style="fill:#212512"
       d="m 8.4313993,74.392197 c 0,-2.983177 0.038586,-4.203568 0.085748,-2.711979 0.047161,1.491588 0.047161,3.93237 0,5.423958 -0.047161,1.491588 -0.085748,0.271198 -0.085748,-2.711979 z"
       id="path27254" />
    <path
       style="fill:#212512"
       d="m 9.7619909,73.06928 c 0,-5.165989 0.035442,-7.279348 0.078759,-4.696354 0.043318,2.582995 0.043318,6.809714 0,9.392708 -0.043318,2.582995 -0.078759,0.469636 -0.078759,-4.696354 z"
       id="path27249" />
    <path
       style="fill:#212512"
       d="m 9.9072993,83.054686 c 0,-0.102576 0.4564207,-0.93274 1.0142667,-1.844808 0.557847,-0.912069 1.409025,-2.372681 1.891507,-3.245806 0.875914,-1.585101 1.856726,-3.000709 1.856726,-2.679816 0,0.17117 -3.724899,6.466688 -4.399126,7.435041 -0.199856,0.287041 -0.3633737,0.437966 -0.3633737,0.335389 z"
       id="path27246" />
    <path
       style="fill:#212512"
       d="m 9.9072993,85.866943 c 0,-0.358757 2.3602267,-4.754919 3.3106067,-6.166341 0.723636,-1.074682 2.725658,-2.591536 3.486751,-2.641775 0.173286,-0.01144 1.363911,-0.508397 2.645833,-1.104352 3.26469,-1.517728 7.286502,-3.177029 7.407414,-3.056117 0.05582,0.05582 -1.361242,0.727356 -3.149033,1.492295 -7.32634,3.134706 -9.48382,4.214145 -9.865114,4.93575 -0.14552,0.275401 -0.510886,0.855447 -0.811924,1.288991 -0.301038,0.433543 -1.062188,1.800292 -1.691446,3.037219 -1.2457083,2.448682 -1.3330877,2.593823 -1.3330877,2.21433 z"
       id="path27245" />
    <path
       style="fill:#212512"
       d="M 8.3742071,88.079473 C 8.3228668,86.139924 8.2298771,85.845961 6.7248212,82.865366 5.8475831,81.128093 4.8378138,79.359632 4.4808893,78.935451 4.0437279,78.415914 2.8357592,77.751698 0.77954483,76.900223 -0.89927018,76.205028 -2.2320095,75.595395 -2.1820982,75.545484 c 0.1027937,-0.102794 4.4024699,1.600535 5.5941689,2.216145 1.1469899,0.592515 1.2585706,0.742681 3.3104223,4.455198 l 1.8808119,3.403046 -0.087345,2.257516 -0.087345,2.257515 z"
       id="path27239" />
    <path
       style="fill:#212512"
       d="m 9.6415881,89.659586 0.1311636,-3.493431 0.075774,3.285562 c 0.041676,1.807059 -0.017348,3.379103 -0.1311637,3.493431 -0.1138156,0.114328 -0.1479139,-1.364175 -0.075774,-3.285562 z"
       id="path27234" />
  </g>
</svg>
