<?xml version="1.0" encoding="UTF-8" standalone="no"?>
<!-- Created with Inkscape (http://www.inkscape.org/) -->

<svg
   width="185"
   height="185"
   viewBox="0 0 48.947914 48.947918"
   version="1.1"
   id="svg1"
   xmlns="http://www.w3.org/2000/svg"
   xmlns:svg="http://www.w3.org/2000/svg">
  <defs
     id="defs1" />
  <g
     id="g13960"
     style="display:inline"
     transform="translate(-55.469901,-48.090825)">
    <path
       style="fill:#dfd4ae"
       d="m 55.337607,94.524054 v -2.513542 h 8.365233 8.365234 L 71.908536,91.4152 c -0.08774,-0.327422 -0.161163,-0.740385 -0.16315,-0.917696 -0.002,-0.177311 -0.639333,-0.792017 -1.416324,-1.366014 -1.390925,-1.027536 -2.187562,-2.324812 -2.659522,-4.330873 -0.214928,-0.913549 -0.02358,-0.910278 1.450883,0.0248 1.523767,0.966344 3.080315,2.788349 3.45744,4.047079 l 0.295698,0.986953 0.642785,-0.947198 c 0.353533,-0.520958 0.902552,-1.164197 1.220044,-1.429418 0.647114,-0.540576 2.159843,-1.118403 2.570005,-0.981682 0.502437,0.167479 -1.088677,2.836737 -2.211979,3.710825 -1.142232,0.888818 -1.489568,1.260197 -1.496508,1.6001 -0.0022,0.10914 2.860475,0.198437 6.361563,0.198437 4.196866,0 6.309633,-0.09058 6.201299,-0.265867 -0.09037,-0.146228 -0.871067,-0.745814 -1.734874,-1.332414 -1.024101,-0.695454 -1.761284,-1.440398 -2.118716,-2.141022 -0.301486,-0.590962 -0.485871,-1.136761 -0.409744,-1.212888 0.07613,-0.07613 0.54987,-0.06122 1.052762,0.03312 0.878615,0.164829 1.990466,1.156941 3.143293,2.804779 l 0.461095,0.659083 -0.153846,-0.79375 c -0.476261,-2.457215 -0.939658,-3.319428 -2.340025,-4.35394 -1.407201,-1.03956 -2.061361,-2.058946 -2.363312,-3.682779 -0.165199,-0.888407 -0.161677,-0.892094 0.689519,-0.721855 1.670524,0.334105 2.736836,1.324871 3.87651,3.601872 l 1.071415,2.140621 0.762048,-1.666959 c 1.054709,-2.307147 2.480236,-3.596054 4.755737,-4.299955 0.556393,-0.172114 0.590973,-0.126457 0.42517,0.561363 -0.412344,1.710581 -1.444866,3.258249 -2.882046,4.319956 -1.765673,1.304379 -2.175219,1.895389 -2.383928,3.440218 -0.142094,1.051749 -0.120508,1.126332 0.185065,0.639426 1.052376,-1.676882 1.990662,-2.470637 3.258516,-2.756584 0.882344,-0.199001 0.93228,-0.175966 0.7737,0.356901 -0.281068,0.944463 -0.834916,1.670618 -1.981776,2.598328 -0.599503,0.484946 -1.406865,1.145848 -1.794137,1.468671 l -0.704132,0.586952 8.40052,0.0084 8.400516,0.0084 v 2.513542 2.513541 H 79.943856 55.337607 Z"
       id="path11407" />
    <path
       style="fill:#fddd51"
       d="m 55.337607,94.524054 v -2.513542 h 8.334375 c 7.06389,0 8.334374,-0.05787 8.334374,-0.379651 0,-0.89703 -0.579641,-1.746322 -1.733847,-2.540436 -1.199978,-0.825607 -1.937482,-1.999486 -2.509688,-3.994652 -0.302654,-1.055294 0.02026,-1.118686 1.360561,-0.267095 1.504105,0.955668 2.673903,2.305162 3.29051,3.795978 l 0.492237,1.190117 0.542301,-0.7958 c 1.173891,-1.722625 3.849593,-3.219522 3.849593,-2.153618 0,0.787573 -1.240045,2.638554 -2.301994,3.436122 -1.031902,0.775001 -1.391025,1.163014 -1.398121,1.510598 -0.0022,0.10914 2.871901,0.198437 6.386955,0.198437 h 6.391007 l -0.503706,-0.556589 c -0.277038,-0.306124 -1.012321,-0.854656 -1.633961,-1.218962 -0.650669,-0.381317 -1.408608,-1.137348 -1.786259,-1.781761 -0.803866,-1.371693 -0.807929,-1.470023 -0.06069,-1.468782 0.92253,0.0015 2.241186,0.937005 3.161705,2.242957 0.460412,0.65319 0.872811,1.15192 0.916443,1.108287 0.04363,-0.04363 -0.126844,-0.90076 -0.378836,-1.904729 -0.431608,-1.719584 -0.545153,-1.891302 -1.958752,-2.962287 -1.458798,-1.105228 -1.846768,-1.732273 -2.483844,-4.014443 -0.167494,-0.600006 -0.129035,-0.624821 0.708708,-0.457272 1.702666,0.340533 2.761082,1.318934 3.910005,3.614412 l 1.074664,2.147112 0.680626,-1.541159 c 0.374344,-0.847637 1.061393,-1.942692 1.526776,-2.433455 0.854796,-0.901414 3.284691,-2.227995 3.658191,-1.997159 0.216193,0.133615 -0.26422,1.676339 -0.912275,2.929538 -0.216639,0.418935 -1.128582,1.33224 -2.026539,2.029566 -1.672199,1.29858 -2.387618,2.440726 -2.385779,3.808832 l 9.89e-4,0.736102 0.484068,-0.793758 c 0.786807,-1.29018 2.35087,-2.513533 3.213563,-2.513533 0.738336,0 0.759346,0.0328 0.499131,0.779252 -0.255988,0.734328 -1.372537,1.875438 -3.430589,3.506053 l -0.900443,0.71343 8.40052,0.01417 8.400514,0.01417 v 2.513542 2.513541 H 79.943856 55.337607 Z"
       id="path13945" />
    <path
       style="fill:#b7c5a6"
       d="m 55.337607,94.524054 v -2.513542 h 8.334375 c 7.06389,0 8.334374,-0.05787 8.334374,-0.379651 0,-0.89703 -0.579641,-1.746322 -1.733847,-2.540436 -1.199978,-0.825607 -1.937482,-1.999486 -2.509688,-3.994652 -0.302654,-1.055294 0.02026,-1.118686 1.360561,-0.267095 1.504105,0.955668 2.673903,2.305162 3.29051,3.795978 l 0.492237,1.190117 0.542301,-0.7958 c 1.173891,-1.722625 3.849593,-3.219522 3.849593,-2.153618 0,0.787573 -1.240045,2.638554 -2.301994,3.436122 -1.031902,0.775001 -1.391025,1.163014 -1.398121,1.510598 -0.0022,0.10914 2.871901,0.198437 6.386955,0.198437 h 6.391007 l -0.503706,-0.556589 c -0.277038,-0.306124 -1.012321,-0.854656 -1.633961,-1.218962 -0.650669,-0.381317 -1.408608,-1.137348 -1.786259,-1.781761 -0.803866,-1.371693 -0.807929,-1.470023 -0.06069,-1.468782 0.92253,0.0015 2.241186,0.937005 3.161705,2.242957 0.460412,0.65319 0.872811,1.15192 0.916443,1.108287 0.04363,-0.04363 -0.126844,-0.90076 -0.378836,-1.904729 -0.431608,-1.719584 -0.545153,-1.891302 -1.958752,-2.962287 -1.458798,-1.105228 -1.846768,-1.732273 -2.483844,-4.014443 -0.167494,-0.600006 -0.129035,-0.624821 0.708708,-0.457272 1.702666,0.340533 2.761082,1.318934 3.910005,3.614412 l 1.074664,2.147112 0.680626,-1.541159 c 0.374344,-0.847637 1.061393,-1.942692 1.526776,-2.433455 0.854796,-0.901414 3.284691,-2.227995 3.658191,-1.997159 0.216193,0.133615 -0.26422,1.676339 -0.912275,2.929538 -0.216639,0.418935 -1.128582,1.33224 -2.026539,2.029566 -1.672199,1.29858 -2.387618,2.440726 -2.385779,3.808832 l 9.89e-4,0.736102 0.484068,-0.793758 c 0.786807,-1.29018 2.35087,-2.513533 3.213563,-2.513533 0.738336,0 0.759346,0.0328 0.499131,0.779252 -0.255988,0.734328 -1.372537,1.875438 -3.430589,3.506053 l -0.900443,0.71343 8.40052,0.01417 8.400514,0.01417 v 2.513542 2.513541 H 79.943856 55.337607 Z"
       id="path13923" />
    <path
       style="fill:#9dae91"
       d="m 55.337607,94.524054 v -2.513542 h 8.334375 c 7.06389,0 8.334374,-0.05787 8.334374,-0.379651 0,-0.894398 -0.569653,-1.716464 -1.803867,-2.603158 -1.058502,-0.760458 -1.428267,-1.240264 -1.874076,-2.431795 -0.305464,-0.816427 -0.55539,-1.721129 -0.55539,-2.010449 0,-0.501592 0.03762,-0.506582 0.809556,-0.107398 1.469143,0.759723 2.965996,2.349333 3.72947,3.960576 0.413723,0.873125 0.752317,1.442815 0.752432,1.265977 6.09e-4,-0.938964 3.616676,-3.690828 4.149609,-3.157896 0.07517,0.07517 0.005,0.535651 -0.155939,1.023291 -0.298871,0.905589 -1.13078,1.907007 -2.624991,3.159859 -0.461617,0.387052 -0.839304,0.833536 -0.839304,0.992187 0,0.200259 1.954102,0.288457 6.391007,0.288457 6.362008,0 6.388846,-0.0024 5.914853,-0.526144 -0.261884,-0.289379 -1.030863,-0.882099 -1.708841,-1.317157 -0.677978,-0.435057 -1.494193,-1.2563 -1.813812,-1.824984 -0.724954,-1.289883 -0.722864,-1.358798 0.04121,-1.358798 0.932236,0 2.314112,1.046575 3.280273,2.48434 0.981292,1.460282 1.029055,1.340546 0.424814,-1.06495 -0.392757,-1.563572 -0.566495,-1.835573 -1.785938,-2.796025 -1.595334,-1.25651 -2.154888,-2.059626 -2.497288,-3.584302 -0.205533,-0.915221 -0.182323,-1.124479 0.124722,-1.124479 0.705785,0 2.077856,0.717457 2.836736,1.483333 0.839015,0.84675 2.286017,3.537279 2.286017,4.25058 0,0.682082 0.37587,0.133311 0.919713,-1.342781 0.262905,-0.713575 0.907662,-1.774055 1.432794,-2.356623 0.928067,-1.029573 3.350542,-2.403117 3.775305,-2.140599 0.246396,0.152281 -0.566981,2.410475 -1.187137,3.295872 -0.234593,0.334929 -0.985137,1.034165 -1.667875,1.55386 -1.663063,1.265909 -2.2266,2.086701 -2.390212,3.481347 l -0.13699,1.167718 0.509133,-0.793758 c 0.8402,-1.309905 2.386631,-2.513533 3.229409,-2.513533 0.742545,0 0.753876,0.02072 0.453814,0.829682 -0.169261,0.456325 -0.823329,1.259997 -1.453487,1.785937 -0.630157,0.525941 -1.523125,1.280187 -1.984375,1.676104 l -0.838634,0.719848 8.40052,0.0078 8.400513,0.0078 v 2.513542 2.513541 H 79.943856 55.337607 Z"
       id="path13906" />
    <path
       style="fill:#9f946c"
       d="m 55.337607,94.524054 v -2.513542 h 8.334375 8.334374 v -0.687917 c 0,-0.659498 -0.268286,-0.9782 -2.562227,-3.043714 -0.760618,-0.684877 -1.937248,-3.498754 -1.602844,-3.833158 0.266962,-0.266962 2.440069,1.10728 3.22379,2.03868 0.863944,1.026738 1.734474,2.697338 1.736661,3.332756 0.0011,0.319585 0.135858,0.215476 0.414452,-0.320189 0.227052,-0.436562 0.672803,-1.077813 0.990558,-1.425002 0.625193,-0.683106 2.775182,-1.757412 3.022374,-1.510219 0.32821,0.328209 -0.874401,2.343607 -2.024381,3.392561 -2.420667,2.208012 -2.762075,2.056202 4.624219,2.056202 7.267794,0 7.128628,0.05009 4.628032,-1.665895 -1.42652,-0.978924 -2.011752,-1.633715 -2.382942,-2.666176 -0.270814,-0.753268 -0.265489,-0.758666 0.584189,-0.592258 1.176988,0.230512 2.026867,0.899609 3.040306,2.393586 0.972064,1.432984 1.084633,1.117456 0.431627,-1.209838 -0.36809,-1.311862 -0.651584,-1.720572 -2.017509,-2.908617 -1.603121,-1.394353 -2.316722,-2.562785 -2.316722,-3.793345 0,-0.820682 0.356847,-0.835483 1.694639,-0.07029 1.347379,0.770675 2.412706,2.120002 3.19663,4.048803 0.595515,1.465233 0.647239,1.5181 0.881936,0.901422 1.124591,-2.954918 2.355572,-4.482288 4.17139,-5.175755 0.648836,-0.247793 1.259415,-0.370819 1.356842,-0.273392 0.232328,0.232327 -0.368828,1.936129 -1.039418,2.945932 -0.291362,0.438744 -1.112613,1.21265 -1.825002,1.719791 -1.5858,1.128911 -2.0398,1.774406 -2.326187,3.307364 -0.214691,1.149185 0.04832,1.675547 0.354772,0.710002 0.294367,-0.927466 2.136835,-2.446198 3.171287,-2.614067 l 0.99668,-0.161739 -0.553649,1.085241 c -0.304506,0.596883 -0.987401,1.417967 -1.517544,1.824632 -0.530143,0.406666 -1.334101,1.063323 -1.786574,1.45924 l -0.822677,0.719848 8.40052,0.0078 8.400516,0.0078 v 2.513542 2.513541 H 79.943856 55.337607 Z"
       id="path13890" />
    <path
       style="fill:#fc9601"
       d="m 55.337607,94.524054 v -2.513542 h 8.334375 8.334374 v -0.687917 c 0,-0.659498 -0.268286,-0.9782 -2.562227,-3.043714 -0.760618,-0.684877 -1.937248,-3.498754 -1.602844,-3.833158 0.266962,-0.266962 2.440069,1.10728 3.22379,2.03868 0.863944,1.026738 1.734474,2.697338 1.736661,3.332756 0.0011,0.319585 0.135858,0.215476 0.414452,-0.320189 0.227052,-0.436562 0.672803,-1.077813 0.990558,-1.425002 0.625193,-0.683106 2.775182,-1.757412 3.022374,-1.510219 0.346307,0.346307 -0.915489,2.395817 -2.162898,3.513153 -2.288265,2.049655 -2.568992,1.93561 4.764592,1.93561 7.265744,0 7.126725,0.05006 4.626176,-1.665895 -1.42652,-0.978924 -2.011752,-1.633715 -2.382942,-2.666176 -0.270814,-0.753268 -0.265489,-0.758666 0.584189,-0.592258 1.176988,0.230512 2.026867,0.899609 3.040306,2.393586 0.979235,1.443556 1.108677,1.09039 0.436723,-1.191547 -0.348514,-1.183543 -0.74117,-1.740503 -2.225591,-3.156876 -1.52076,-1.451046 -1.830846,-1.898296 -1.984345,-2.8621 -0.10006,-0.628269 -0.103396,-1.22084 -0.0074,-1.316824 0.307774,-0.307773 2.593087,1.104201 3.37766,2.086877 0.417457,0.522864 1.04369,1.651096 1.39163,2.507182 0.595515,1.465233 0.647239,1.5181 0.881936,0.901422 1.124591,-2.954918 2.355572,-4.482288 4.17139,-5.175755 0.648836,-0.247793 1.259415,-0.370819 1.356842,-0.273392 0.232328,0.232327 -0.368828,1.936129 -1.039418,2.945932 -0.291362,0.438744 -1.112613,1.21265 -1.825002,1.719791 -1.5858,1.128911 -2.0398,1.774406 -2.326187,3.307364 -0.214691,1.149185 0.04832,1.675547 0.354772,0.710002 0.294367,-0.927466 2.136835,-2.446198 3.171287,-2.614067 l 0.99668,-0.161739 -0.553649,1.085241 c -0.304506,0.596883 -0.987401,1.417967 -1.517544,1.824632 -0.530143,0.406666 -1.334101,1.063323 -1.786574,1.45924 l -0.822677,0.719848 8.40052,0.0078 8.400514,0.0078 v 2.513542 2.513541 H 79.943856 55.337607 Z"
       id="path13873" />
    <path
       style="fill:#f98903"
       d="m 55.337607,94.524054 v -2.513542 h 8.334375 8.334374 v -0.687917 c 0,-0.659498 -0.268286,-0.9782 -2.562227,-3.043714 -0.760618,-0.684877 -1.937248,-3.498754 -1.602844,-3.833158 0.266962,-0.266962 2.440069,1.10728 3.22379,2.03868 0.863944,1.026738 1.734474,2.697338 1.736661,3.332756 0.0011,0.319585 0.135858,0.215476 0.414452,-0.320189 0.227052,-0.436562 0.672803,-1.077813 0.990558,-1.425002 0.625193,-0.683106 2.775182,-1.757412 3.022374,-1.510219 0.346307,0.346307 -0.915489,2.395817 -2.162898,3.513153 -2.288265,2.049655 -2.568992,1.93561 4.764592,1.93561 7.265744,0 7.126725,0.05006 4.626176,-1.665895 -1.42652,-0.978924 -2.011752,-1.633715 -2.382942,-2.666176 -0.270814,-0.753268 -0.265489,-0.758666 0.584189,-0.592258 1.176988,0.230512 2.026867,0.899609 3.040306,2.393586 0.979235,1.443556 1.108677,1.09039 0.436723,-1.191547 -0.348514,-1.183543 -0.74117,-1.740503 -2.225591,-3.156876 -1.52076,-1.451046 -1.830846,-1.898296 -1.984345,-2.8621 -0.10006,-0.628269 -0.103396,-1.22084 -0.0074,-1.316824 0.307774,-0.307773 2.593087,1.104201 3.37766,2.086877 0.417457,0.522864 1.04369,1.651096 1.39163,2.507182 0.595515,1.465233 0.647239,1.5181 0.881936,0.901422 1.124591,-2.954918 2.355572,-4.482288 4.17139,-5.175755 0.648836,-0.247793 1.259415,-0.370819 1.356842,-0.273392 0.232328,0.232327 -0.368828,1.936129 -1.039418,2.945932 -0.291362,0.438744 -1.112613,1.21265 -1.825002,1.719791 -1.5858,1.128911 -2.0398,1.774406 -2.326187,3.307364 -0.214691,1.149185 0.04832,1.675547 0.354772,0.710002 0.294367,-0.927466 2.136835,-2.446198 3.171287,-2.614067 l 0.99668,-0.161739 -0.553649,1.085241 c -0.304506,0.596883 -0.987401,1.417967 -1.517544,1.824632 -0.530143,0.406666 -1.334101,1.063323 -1.786574,1.45924 l -0.822677,0.719848 8.40052,0.0078 8.400514,0.0078 v 2.513542 2.513541 H 79.943856 55.337607 Z"
       id="path13858" />
    <path
       style="fill:#f77900"
       d="m 55.337607,94.524054 v -2.513542 h 8.334375 8.334374 v -0.687917 c 0,-0.659498 -0.268286,-0.9782 -2.562227,-3.043714 -0.760618,-0.684877 -1.937248,-3.498754 -1.602844,-3.833158 0.266962,-0.266962 2.440069,1.10728 3.22379,2.03868 0.863944,1.026738 1.734474,2.697338 1.736661,3.332756 0.0011,0.319585 0.135858,0.215476 0.414452,-0.320189 0.227052,-0.436562 0.672803,-1.077813 0.990558,-1.425002 0.625193,-0.683106 2.775182,-1.757412 3.022374,-1.510219 0.346307,0.346307 -0.915489,2.395817 -2.162898,3.513153 -2.288265,2.049655 -2.568992,1.93561 4.764592,1.93561 7.265744,0 7.126725,0.05006 4.626176,-1.665895 -1.42652,-0.978924 -2.011752,-1.633715 -2.382942,-2.666176 -0.270814,-0.753268 -0.265489,-0.758666 0.584189,-0.592258 1.176988,0.230512 2.026867,0.899609 3.040306,2.393586 0.979235,1.443556 1.108677,1.09039 0.436723,-1.191547 -0.348514,-1.183543 -0.74117,-1.740503 -2.225591,-3.156876 -1.52076,-1.451046 -1.830846,-1.898296 -1.984345,-2.8621 -0.10006,-0.628269 -0.103396,-1.22084 -0.0074,-1.316824 0.307774,-0.307773 2.593087,1.104201 3.37766,2.086877 0.417457,0.522864 1.04369,1.651096 1.39163,2.507182 0.595515,1.465233 0.647239,1.5181 0.881936,0.901422 1.124591,-2.954918 2.355572,-4.482288 4.17139,-5.175755 0.648836,-0.247793 1.259415,-0.370819 1.356842,-0.273392 0.232328,0.232327 -0.368828,1.936129 -1.039418,2.945932 -0.291362,0.438744 -1.112613,1.21265 -1.825002,1.719791 -1.5858,1.128911 -2.0398,1.774406 -2.326187,3.307364 -0.214691,1.149185 0.04832,1.675547 0.354772,0.710002 0.294367,-0.927466 2.136835,-2.446198 3.171287,-2.614067 l 0.99668,-0.161739 -0.553649,1.085241 c -0.304506,0.596883 -0.987401,1.417967 -1.517544,1.824632 -0.530143,0.406666 -1.334101,1.063323 -1.786574,1.45924 l -0.822677,0.719848 8.40052,0.0078 8.400514,0.0078 v 2.513542 2.513541 H 79.943856 55.337607 Z"
       id="path13800" />
    <path
       style="fill:#6b8c6e"
       d="m 55.337607,94.524054 v -2.513542 h 8.334375 8.334374 v -0.687917 c 0,-0.659498 -0.268286,-0.9782 -2.562227,-3.043714 -0.760618,-0.684877 -1.937248,-3.498754 -1.602844,-3.833158 0.266962,-0.266962 2.440069,1.10728 3.22379,2.03868 0.863944,1.026738 1.734474,2.697338 1.736661,3.332756 0.0011,0.319585 0.135858,0.215476 0.414452,-0.320189 0.227052,-0.436562 0.672803,-1.077813 0.990558,-1.425002 0.625193,-0.683106 2.775182,-1.757412 3.022374,-1.510219 0.346307,0.346307 -0.915489,2.395817 -2.162898,3.513153 -2.288265,2.049655 -2.568992,1.93561 4.764592,1.93561 7.265744,0 7.126725,0.05006 4.626176,-1.665895 -1.42652,-0.978924 -2.011752,-1.633715 -2.382942,-2.666176 -0.270814,-0.753268 -0.265489,-0.758666 0.584189,-0.592258 1.176988,0.230512 2.026867,0.899609 3.040306,2.393586 0.979235,1.443556 1.108677,1.09039 0.436723,-1.191547 -0.348514,-1.183543 -0.74117,-1.740503 -2.225591,-3.156876 -1.52076,-1.451046 -1.830846,-1.898296 -1.984345,-2.8621 -0.10006,-0.628269 -0.103396,-1.22084 -0.0074,-1.316824 0.307774,-0.307773 2.593087,1.104201 3.37766,2.086877 0.417457,0.522864 1.04369,1.651096 1.39163,2.507182 0.595515,1.465233 0.647239,1.5181 0.881936,0.901422 1.124591,-2.954918 2.355572,-4.482288 4.17139,-5.175755 0.648836,-0.247793 1.259415,-0.370819 1.356842,-0.273392 0.232328,0.232327 -0.368828,1.936129 -1.039418,2.945932 -0.291362,0.438744 -1.112613,1.21265 -1.825002,1.719791 -1.5858,1.128911 -2.0398,1.774406 -2.326187,3.307364 -0.214691,1.149185 0.04832,1.675547 0.354772,0.710002 0.294367,-0.927466 2.136835,-2.446198 3.171287,-2.614067 l 0.99668,-0.161739 -0.553649,1.085241 c -0.304506,0.596883 -0.987401,1.417967 -1.517544,1.824632 -0.530143,0.406666 -1.334101,1.063323 -1.786574,1.45924 l -0.822677,0.719848 8.40052,0.0078 8.400514,0.0078 v 2.513542 2.513541 H 79.943856 55.337607 Z"
       id="path13768" />
    <path
       style="fill:#846b44"
       d="m 55.337607,94.524054 v -2.513542 h 8.334375 8.334374 v -0.625777 c 0,-0.783534 -0.797811,-1.815886 -1.956976,-2.53229 -0.859317,-0.531087 -1.711067,-2.030502 -2.151362,-3.787245 -0.230343,-0.919048 0.0083,-0.912986 1.508307,0.03832 1.435426,0.91032 2.470105,2.196656 3.098517,3.852143 l 0.458901,1.20893 0.430529,-0.90283 c 0.236791,-0.496556 0.842588,-1.217122 1.346215,-1.601257 1.017115,-0.775791 2.557536,-1.325486 2.557536,-0.912649 0,0.68039 -1.165838,2.401695 -2.304043,3.40181 -2.227587,1.957331 -2.478376,1.860846 4.836834,1.860846 7.352751,0 7.120818,0.09979 4.414631,-1.899389 -0.795678,-0.587802 -1.624643,-1.489748 -1.943321,-2.114408 l -0.555741,-1.089343 0.870843,0.174169 c 1.270265,0.254053 1.964043,0.795354 3.009942,2.348425 0.820448,1.218295 0.931271,1.301579 0.931271,0.699855 0,-1.22273 -0.970892,-3.697406 -1.625116,-4.142208 -1.60433,-1.090769 -2.807143,-2.582606 -2.997982,-3.718367 -0.105566,-0.628269 -0.130482,-1.203764 -0.05537,-1.278878 0.235247,-0.235247 2.401879,0.863887 3.006798,1.525351 0.60126,0.657461 2.200835,3.701524 2.200835,4.188287 0,0.153683 0.119062,0.279423 0.264583,0.279423 0.145521,0 0.264677,-0.148828 0.264792,-0.330729 5.09e-4,-0.806154 1.603492,-3.61285 2.47251,-4.329168 0.966408,-0.796594 2.744147,-1.588515 2.997417,-1.335244 0.238803,0.238803 -0.478737,2.118772 -1.15352,3.022246 -0.354736,0.47496 -1.281929,1.33411 -2.060428,1.909221 -1.411845,1.042991 -1.737584,1.610083 -2.092754,3.643361 -0.0847,0.484881 -0.0377,0.859896 0.107764,0.859896 0.141883,0 0.257969,-0.13759 0.257969,-0.305755 0,-1.000281 2.477869,-3.13092 3.643398,-3.132839 l 0.60069,-9.89e-4 -0.533908,1.046546 c -0.29365,0.5756 -0.967661,1.379272 -1.497804,1.785937 -0.530143,0.406666 -1.334101,1.063323 -1.786574,1.45924 l -0.822677,0.719848 8.40052,0.0078 8.400518,0.0078 v 2.513542 2.513541 H 79.943856 55.337607 Z"
       id="path13741" />
    <path
       style="fill:#896439"
       d="m 55.337607,94.524054 v -2.513542 h 8.334375 8.334374 v -0.625777 c 0,-0.783534 -0.797811,-1.815886 -1.956976,-2.53229 -0.859317,-0.531087 -1.711067,-2.030502 -2.151362,-3.787245 -0.230343,-0.919048 0.0083,-0.912986 1.508307,0.03832 1.435426,0.91032 2.470105,2.196656 3.098517,3.852143 l 0.458901,1.20893 0.430529,-0.90283 c 0.236791,-0.496556 0.842588,-1.217122 1.346215,-1.601257 1.017115,-0.775791 2.557536,-1.325486 2.557536,-0.912649 0,0.68039 -1.165838,2.401695 -2.304043,3.40181 -2.227587,1.957331 -2.478376,1.860846 4.836834,1.860846 7.352751,0 7.120818,0.09979 4.414631,-1.899389 -0.795678,-0.587802 -1.624643,-1.489748 -1.943321,-2.114408 l -0.555741,-1.089343 0.870843,0.174169 c 1.270265,0.254053 1.964043,0.795354 3.009942,2.348425 0.820448,1.218295 0.931271,1.301579 0.931271,0.699855 0,-1.22273 -0.970892,-3.697406 -1.625116,-4.142208 -1.60433,-1.090769 -2.807143,-2.582606 -2.997982,-3.718367 -0.105566,-0.628269 -0.130482,-1.203764 -0.05537,-1.278878 0.235247,-0.235247 2.401879,0.863887 3.006798,1.525351 0.60126,0.657461 2.200835,3.701524 2.200835,4.188287 0,0.153683 0.119062,0.279423 0.264583,0.279423 0.145521,0 0.264677,-0.148828 0.264792,-0.330729 5.09e-4,-0.806154 1.603492,-3.61285 2.47251,-4.329168 0.966408,-0.796594 2.744147,-1.588515 2.997417,-1.335244 0.238803,0.238803 -0.478737,2.118772 -1.15352,3.022246 -0.354736,0.47496 -1.281929,1.33411 -2.060428,1.909221 -1.411845,1.042991 -1.737584,1.610083 -2.092754,3.643361 -0.0847,0.484881 -0.0377,0.859896 0.107764,0.859896 0.141883,0 0.257969,-0.13759 0.257969,-0.305755 0,-1.000281 2.477869,-3.13092 3.643398,-3.132839 l 0.60069,-9.89e-4 -0.533908,1.046546 c -0.29365,0.5756 -0.967661,1.379272 -1.497804,1.785937 -0.530143,0.406666 -1.334101,1.063323 -1.786574,1.45924 l -0.822677,0.719848 8.268229,0.0078 8.268229,0.0078 0.0169,1.653646 c 0.009,0.909505 0.055,2.040599 0.10153,2.513541 l 0.0846,0.859896 H 79.913093 55.337607 Z"
       id="path13718" />
    <path
       style="fill:#5d6f4f"
       d="m 55.337607,94.524054 v -2.513542 h 8.334375 8.334374 v -0.625777 c 0,-0.783534 -0.797811,-1.815886 -1.956976,-2.53229 -0.859317,-0.531087 -1.711067,-2.030502 -2.151362,-3.787245 -0.230343,-0.919048 0.0083,-0.912986 1.508307,0.03832 1.435426,0.91032 2.470105,2.196656 3.098517,3.852143 l 0.458901,1.20893 0.430529,-0.90283 c 0.236791,-0.496556 0.842588,-1.217122 1.346215,-1.601257 1.017115,-0.775791 2.557536,-1.325486 2.557536,-0.912649 0,0.697257 -1.162963,2.372639 -2.551923,3.676338 l -1.549119,1.454026 6.473897,0.07098 c 3.781435,0.04146 6.581926,0.179009 6.733646,0.330729 0.342453,0.342454 1.556478,0.338088 1.34454,-0.0048 -0.08994,-0.14552 -0.439573,-0.264583 -0.776968,-0.264583 -0.337396,0 -0.776712,-0.196723 -0.976259,-0.437162 C 85.79629,91.332946 85.008614,90.674944 84.245445,90.111158 83.449767,89.523356 82.620802,88.62141 82.302124,87.99675 l -0.555741,-1.089343 0.870843,0.174169 c 1.270265,0.254053 1.964043,0.795354 3.009942,2.348425 0.820448,1.218295 0.931271,1.301579 0.931271,0.699855 0,-1.22273 -0.970892,-3.697406 -1.625116,-4.142208 -1.60433,-1.090769 -2.807143,-2.582606 -2.997982,-3.718367 -0.105566,-0.628269 -0.130482,-1.203764 -0.05537,-1.278878 0.235247,-0.235247 2.401879,0.863887 3.006798,1.525351 0.60126,0.657461 2.200835,3.701524 2.200835,4.188287 0,0.153683 0.119062,0.279423 0.264583,0.279423 0.145521,0 0.264677,-0.148828 0.264792,-0.330729 5.09e-4,-0.806154 1.603492,-3.61285 2.47251,-4.329168 0.966408,-0.796594 2.744147,-1.588515 2.997417,-1.335244 0.238803,0.238803 -0.478737,2.118772 -1.15352,3.022246 -0.354736,0.47496 -1.281929,1.33411 -2.060428,1.909221 -1.411845,1.042991 -1.737584,1.610083 -2.092754,3.643361 -0.0847,0.484881 -0.0377,0.859896 0.107764,0.859896 0.141883,0 0.257969,-0.13759 0.257969,-0.305755 0,-1.000281 2.477869,-3.13092 3.643398,-3.132839 l 0.60069,-9.89e-4 -0.533908,1.046546 c -0.29365,0.5756 -0.967661,1.379272 -1.497804,1.785937 -0.530143,0.406666 -1.334101,1.063323 -1.786574,1.45924 l -0.822677,0.719848 8.268229,0.0078 8.268229,0.0078 v 2.095027 c 0,1.152265 0.0723,2.283358 0.1606,2.513542 0.14574,0.379783 -2.11917,0.418514 -24.473959,0.418514 H 55.337607 Z"
       id="path13691" />
    <path
       style="fill:#7a613a"
       d="m 55.337607,94.524054 v -2.513542 h 8.334375 8.334374 v -0.765979 c 0,-0.766509 -0.180807,-0.989099 -2.169774,-2.671196 -0.629157,-0.532087 -1.172957,-1.346079 -1.521354,-2.277253 -0.858405,-2.294294 -0.759408,-2.392771 1.14039,-1.134397 1.402515,0.928987 2.627903,2.552481 3.122348,4.136739 l 0.332892,1.066625 0.444992,-0.993922 c 0.244745,-0.546657 0.862441,-1.312326 1.372657,-1.701486 1.030849,-0.786267 2.569516,-1.336692 2.569516,-0.919189 0,0.683075 -0.988468,2.100553 -2.468778,3.540266 l -1.632264,1.5875 6.473897,0.07098 c 3.781435,0.04146 6.581926,0.179009 6.733646,0.330729 0.342453,0.342454 1.556478,0.338088 1.34454,-0.0048 -0.08994,-0.14552 -0.439573,-0.264583 -0.776968,-0.264583 -0.337396,0 -0.776712,-0.196723 -0.976259,-0.437162 -0.199547,-0.240439 -0.987223,-0.898441 -1.750392,-1.462227 -0.788092,-0.582198 -1.62481,-1.490076 -1.936677,-2.101385 l -0.549097,-1.07632 0.874149,0.191995 c 1.276217,0.280305 2.005913,0.842896 3.050127,2.351629 l 0.9294,1.342845 -0.150931,-1.229385 c -0.250729,-2.042285 -0.874705,-3.237208 -2.165567,-4.147092 -0.649,-0.457457 -1.417327,-1.220829 -1.707393,-1.696381 -0.539575,-0.884611 -0.96467,-2.501474 -0.721583,-2.744561 0.217668,-0.217669 2.113418,0.662042 2.795502,1.297235 0.712754,0.663755 2.424231,3.909706 2.424231,4.597746 0,0.672624 0.374297,0.13697 0.896528,-1.283013 0.727713,-1.978703 1.863279,-3.325391 3.467507,-4.112178 0.793105,-0.388975 1.522058,-0.62718 1.619894,-0.529344 0.09784,0.09784 -0.03652,0.746086 -0.298575,1.440554 -0.44667,1.183728 -1.294495,2.156679 -3.636408,4.173086 -0.707414,0.609089 -0.992709,1.125888 -1.226319,2.221422 -0.16744,0.78522 -0.226135,1.499595 -0.130434,1.5875 0.0957,0.0879 0.229377,0.0043 0.297057,-0.185714 0.06768,-0.190048 0.501081,-0.841167 0.963113,-1.446932 0.801344,-1.050631 2.611057,-2.066675 2.995783,-1.681949 0.381752,0.381752 -0.768167,2.041937 -2.091436,3.019493 -2.755422,2.03555 -3.156363,1.910138 6.106726,1.910138 h 8.234478 v 2.095027 c 0,1.152265 0.0723,2.283358 0.1606,2.513542 0.14574,0.379783 -2.11917,0.418514 -24.473957,0.418514 H 55.337607 Z"
       id="path13669" />
    <path
       style="fill:#745b33"
       d="m 55.337607,94.516738 v -2.520821 l 8.334512,0.07343 8.334511,0.07343 -1.37e-4,-0.832125 c -1.38e-4,-0.84199 -0.145275,-1.025079 -2.169911,-2.737342 -0.629157,-0.532087 -1.172957,-1.346079 -1.521354,-2.277253 -0.858405,-2.294294 -0.759408,-2.392771 1.14039,-1.134397 1.402515,0.928987 2.627903,2.552481 3.122348,4.136739 l 0.332892,1.066625 0.444992,-0.993922 c 0.244745,-0.546657 0.862441,-1.312326 1.372657,-1.701486 1.030849,-0.786267 2.569516,-1.336692 2.569516,-0.919189 0,0.683075 -0.988468,2.100553 -2.468778,3.540266 l -1.632264,1.5875 6.56893,0.07081 c 4.578676,0.04936 6.539921,0.157841 6.473183,0.358054 -0.09428,0.282849 -12.48402,0.36346 -12.935928,0.08416 -0.109136,-0.06745 -0.249882,0.02765 -0.31277,0.211333 -0.06289,0.183683 -0.08304,0.125609 -0.04479,-0.129052 0.03825,-0.254662 -0.0979,-0.463021 -0.302558,-0.463021 -0.204657,0 -0.372104,0.119063 -0.372104,0.264583 0,0.17079 -2.954514,0.264584 -8.334375,0.264584 h -8.334374 v 1.984375 1.984374 h 24.209373 24.209372 v -1.984374 -1.984375 h -8.054174 c -5.084048,0 -8.114478,-0.09757 -8.217698,-0.264584 -0.08994,-0.14552 -0.439573,-0.264583 -0.776968,-0.264583 -0.337396,0 -0.776712,-0.196723 -0.976259,-0.437162 -0.199547,-0.240439 -0.987223,-0.898441 -1.750392,-1.462227 -0.788092,-0.582198 -1.62481,-1.490076 -1.936677,-2.101385 l -0.549097,-1.07632 0.874149,0.191995 c 1.276217,0.280305 2.005913,0.842896 3.050127,2.351629 l 0.9294,1.342845 -0.150931,-1.229385 c -0.250729,-2.042285 -0.874705,-3.237208 -2.165567,-4.147092 -0.649,-0.457457 -1.417327,-1.220829 -1.707393,-1.696381 -0.539575,-0.884611 -0.96467,-2.501474 -0.721583,-2.744561 0.217668,-0.217669 2.113418,0.662042 2.795502,1.297235 0.712754,0.663755 2.424231,3.909706 2.424231,4.597746 0,0.672624 0.374297,0.13697 0.896528,-1.283013 0.727713,-1.978703 1.863279,-3.325391 3.467507,-4.112178 0.793105,-0.388975 1.522058,-0.62718 1.619894,-0.529344 0.09784,0.09784 -0.03652,0.746086 -0.298575,1.440554 -0.44667,1.183728 -1.294495,2.156679 -3.636408,4.173086 -0.707414,0.609089 -0.992709,1.125888 -1.226319,2.221422 -0.16744,0.78522 -0.226135,1.499595 -0.130434,1.5875 0.0957,0.0879 0.229377,0.0043 0.297057,-0.185714 0.06768,-0.190048 0.501081,-0.841167 0.963113,-1.446932 0.801344,-1.050631 2.611057,-2.066675 2.995783,-1.681949 0.334076,0.334077 -0.689717,1.972883 -1.690182,2.705507 -1.232133,0.902271 -2.464165,2.00588 -2.464355,2.207479 -7.7e-5,0.08192 3.682612,0.115873 8.183755,0.07546 l 8.183896,-0.07348 0.0845,2.521465 0.0845,2.521464 -24.540096,-5.94e-4 -24.540103,-5.93e-4 z"
       id="path13632" />
    <path
       style="fill:#2b6345"
       d="m 85.995837,91.57335 c -0.199547,-0.240439 -0.987223,-0.898441 -1.750392,-1.462227 -0.788092,-0.582198 -1.62481,-1.490076 -1.936677,-2.101385 l -0.549097,-1.07632 0.874149,0.191995 c 1.276217,0.280305 2.005913,0.842896 3.050127,2.351629 l 0.9294,1.342845 -0.150931,-1.229385 c -0.250729,-2.042285 -0.874705,-3.237208 -2.165567,-4.147092 -0.649,-0.457457 -1.417327,-1.220829 -1.707393,-1.696381 -0.539575,-0.884611 -0.96467,-2.501474 -0.721583,-2.744561 0.217668,-0.217669 2.113418,0.662042 2.795502,1.297235 0.712754,0.663755 2.424231,3.909706 2.424231,4.597746 0,0.672624 0.374297,0.13697 0.896528,-1.283013 0.727713,-1.978703 1.863279,-3.325391 3.467507,-4.112178 0.793105,-0.388975 1.522058,-0.62718 1.619894,-0.529344 0.09784,0.09784 -0.03652,0.746086 -0.298575,1.440554 -0.44667,1.183728 -1.294495,2.156679 -3.636408,4.173086 -0.707414,0.609089 -0.992709,1.125888 -1.226319,2.221422 -0.16744,0.78522 -0.226135,1.499595 -0.130434,1.5875 0.0957,0.0879 0.229377,0.0043 0.297057,-0.185714 0.06768,-0.190048 0.501081,-0.841167 0.963113,-1.446932 0.801344,-1.050631 2.611057,-2.066675 2.995783,-1.681949 0.381752,0.381752 -0.768167,2.041937 -2.091436,3.019493 -0.771172,0.569698 -1.565395,1.232537 -1.764942,1.472976 -0.199547,0.240439 -0.690842,0.437162 -1.091768,0.437162 -0.400926,0 -0.892222,-0.196723 -1.091769,-0.437162 z"
       id="path13605" />
    <path
       style="fill:#2b6345"
       d="m 72.006356,91.244533 c 0,-0.766509 -0.180807,-0.989099 -2.169774,-2.671196 -0.629157,-0.532087 -1.172957,-1.346079 -1.521354,-2.277253 -0.858405,-2.294294 -0.759408,-2.392771 1.14039,-1.134397 1.402515,0.928987 2.627903,2.552481 3.122348,4.136739 l 0.332892,1.066625 0.444992,-0.993922 c 0.244745,-0.546657 0.862441,-1.312326 1.372657,-1.701486 1.030849,-0.786267 2.569516,-1.336692 2.569516,-0.919189 0,0.688761 -1.006891,2.108476 -2.557741,3.606412 -1.910743,1.84555 -2.733926,2.112826 -2.733926,0.887667 z"
       id="path13603" />
    <path
       style="fill:#2b6345"
       d="m 104.10776,93.730304 c 0.001,-1.018646 0.049,-1.402944 0.10627,-0.853995 0.0573,0.548949 0.0563,1.382386 -0.002,1.852083 -0.0584,0.469697 -0.10532,0.02056 -0.10414,-0.998088 z"
       id="path13601" />
    <path
       style="fill:#2b6345"
       d="m 55.434241,94.524054 c 6.89e-4,-1.455209 0.04512,-2.016764 0.09874,-1.247902 0.05362,0.768863 0.05305,1.959487 -0.0013,2.645833 -0.0543,0.686346 -0.09817,0.05728 -0.09748,-1.397931 z"
       id="path13596" />
    <path
       style="fill:#245c41"
       d="m 86.249758,91.787435 c -0.04851,-0.122693 -0.83548,-0.788445 -1.748829,-1.47945 -1.621158,-1.226505 -3.130666,-3.331729 -2.379638,-3.318745 1.094448,0.01892 2.625062,1.104773 3.512246,2.491665 0.517639,0.8092 0.981663,1.471274 1.031165,1.471274 0.171773,0 -0.367452,-2.519303 -0.768273,-3.589434 C 85.62388,86.635079 85.108842,86.015756 84.30515,85.449261 83.651585,84.988586 82.889792,84.238304 82.612277,83.781967 82.101325,82.941774 81.65548,81.21486 81.88918,80.98116 c 0.296773,-0.296772 2.531582,0.98406 3.147008,1.803639 0.836149,1.113524 2.051418,3.517228 2.051418,4.057543 0,0.81025 0.426705,0.378413 0.723841,-0.732546 0.528015,-1.974191 1.866165,-3.662537 3.583103,-4.520811 0.840851,-0.420329 1.596858,-0.696197 1.680016,-0.61304 0.204562,0.204563 -0.314874,1.715654 -0.943924,2.745968 -0.281911,0.461738 -1.172929,1.327364 -1.98004,1.923612 -1.610486,1.189736 -2.111205,1.953939 -2.393508,3.653008 -0.202457,1.218503 0.126005,1.514928 0.578415,0.521997 0.511145,-1.12184 1.675498,-2.271182 2.614941,-2.581226 0.514311,-0.169738 0.996839,-0.246886 1.072284,-0.17144 0.349652,0.349652 -0.916262,2.173975 -2.131493,3.071719 -0.74198,0.548133 -1.51232,1.193328 -1.711867,1.433767 -0.375372,0.452295 -1.774086,0.607478 -1.929616,0.214085 z"
       id="path13552" />
    <path
       style="fill:#245c41"
       d="m 72.152443,91.679783 c -0.05604,-0.181901 -0.171165,-0.648317 -0.255836,-1.03648 -0.09154,-0.41964 -0.525012,-0.935082 -1.06926,-1.271445 -0.503422,-0.311132 -1.207201,-0.912584 -1.563953,-1.336559 -0.679513,-0.807556 -1.656386,-3.355299 -1.389025,-3.62266 0.08539,-0.08539 0.804849,0.276044 1.598792,0.803192 1.456238,0.966888 2.548355,2.44819 3.197843,4.337426 0.307201,0.893587 0.327379,0.905379 0.483673,0.282654 0.271175,-1.080448 1.24982,-2.090902 2.656115,-2.742448 0.732945,-0.339578 1.374388,-0.575655 1.425429,-0.524614 0.329889,0.329889 -1.01938,2.39129 -2.479408,3.788017 -1.696417,1.622867 -2.401608,1.981077 -2.60437,1.322917 z"
       id="path13551" />
    <path
       style="fill:#245c41"
       d="m 104.10776,93.730304 c 0.001,-1.018646 0.049,-1.402944 0.10627,-0.853995 0.0573,0.548949 0.0563,1.382386 -0.002,1.852083 -0.0584,0.469697 -0.10532,0.02056 -0.10414,-0.998088 z"
       id="path13550" />
    <path
       style="fill:#245c41"
       d="m 55.434241,94.524054 c 6.89e-4,-1.455209 0.04512,-2.016764 0.09874,-1.247902 0.05362,0.768863 0.05305,1.959487 -0.0013,2.645833 -0.0543,0.686346 -0.09817,0.05728 -0.09748,-1.397931 z"
       id="path13275" />
    <path
       style="fill:#225a3c"
       d="m 86.249758,91.787435 c -0.04851,-0.122693 -0.83548,-0.788445 -1.748829,-1.47945 -1.621158,-1.226505 -3.130666,-3.331729 -2.379638,-3.318745 1.094448,0.01892 2.625062,1.104773 3.512246,2.491665 0.517639,0.8092 0.999303,1.471274 1.070365,1.471274 0.144801,0 -0.0055,-0.742595 -0.60251,-2.97685 -0.354998,-1.328542 -0.570857,-1.639651 -1.700997,-2.451576 -0.711921,-0.511464 -1.519017,-1.299284 -1.793546,-1.750712 -0.506557,-0.832966 -0.950306,-2.559243 -0.717669,-2.791881 0.296773,-0.296772 2.531582,0.98406 3.147008,1.803639 0.753716,1.003744 2.051418,3.498765 2.051418,3.94415 0,0.160753 0.167029,0.459307 0.371176,0.663454 0.318514,0.318514 0.393593,0.312762 0.529167,-0.04054 0.238441,-0.621368 0.18229,-0.815452 -0.106594,-0.368436 -0.212449,0.328742 -0.256732,0.306032 -0.257947,-0.132292 -0.0019,-0.68933 1.230681,-3.335086 1.511606,-3.24466 0.119027,0.03831 0.686681,-0.317293 1.261452,-0.790235 0.574772,-0.472943 0.962524,-0.859896 0.861671,-0.859896 -0.100853,0 -0.60423,0.369521 -1.118617,0.821159 -1.016246,0.892276 -1.314614,0.685811 -0.33664,-0.232948 0.688336,-0.646658 3.076748,-1.763549 3.298038,-1.542259 0.08168,0.08168 -0.06444,0.716702 -0.324705,1.41117 -0.471348,1.257713 -2.47808,3.51721 -3.113566,3.505744 -0.179346,-0.0032 -0.02843,-0.255977 0.335375,-0.561648 l 0.661458,-0.555765 -0.661458,0.395483 c -0.363802,0.217515 -0.638902,0.500022 -0.611333,0.627794 0.02757,0.127771 -0.165911,0.470436 -0.429957,0.761478 -0.690399,0.760984 -0.988648,1.43491 -1.200199,2.711979 -0.201841,1.218456 0.12669,1.514656 0.578976,0.521997 0.511145,-1.12184 1.675498,-2.271182 2.614941,-2.581226 0.514311,-0.169738 0.996839,-0.246886 1.072284,-0.17144 0.349652,0.349652 -0.916262,2.173975 -2.131493,3.071719 -0.74198,0.548133 -1.51232,1.193328 -1.711867,1.433767 -0.375372,0.452295 -1.774086,0.607478 -1.929616,0.214085 z m -3.079783,-8.976202 c -0.17545,-0.05848 -0.24033,-0.233623 -0.144179,-0.389199 0.103329,-0.16719 0.0499,-0.205663 -0.130643,-0.09408 -0.168005,0.103833 -0.305464,0.0627 -0.305464,-0.09141 0,-0.154109 0.208359,-0.288566 0.463021,-0.298794 0.39312,-0.01579 0.383134,-0.05072 -0.06615,-0.231372 -0.691922,-0.278218 -0.745163,-0.204293 -0.536638,0.745117 0.131082,0.596815 0.283898,0.75585 0.607113,0.631821 0.27902,-0.10707 0.319003,-0.203394 0.112936,-0.272083 z"
       id="path13220" />
    <path
       style="fill:#225a3c"
       d="m 72.888301,91.625276 c 0,-0.21188 0.09217,-0.328275 0.204813,-0.258655 0.112648,0.06962 0.142644,-0.263039 0.06666,-0.739243 -0.198869,-1.246321 0.755237,-2.545221 2.530083,-3.444405 0.788695,-0.399573 1.480156,-0.680333 1.536579,-0.62391 0.338754,0.338754 -0.990361,2.382676 -2.469622,3.797803 -0.950725,0.909505 -1.760073,1.653646 -1.798551,1.653646 -0.03848,0 -0.06996,-0.173356 -0.06996,-0.385236 z"
       id="path13219" />
    <path
       style="fill:#225a3c"
       d="M 72.203155,91.745929 C 72.134634,91.527647 71.973026,91.031751 71.844026,90.643936 71.715027,90.256121 71.0737,89.54087 70.418856,89.05449 69.26113,88.194596 68.262198,86.618217 67.889438,85.062902 67.73316,84.410841 67.77192,84.354408 68.252889,84.533735 c 2.818685,1.050938 5.174048,4.935851 4.292437,7.079902 -0.170536,0.414737 -0.244528,0.443345 -0.342171,0.132292 z"
       id="path13218" />
    <path
       style="fill:#225a3c"
       d="m 104.10776,93.730304 c 0.001,-1.018646 0.049,-1.402944 0.10627,-0.853995 0.0573,0.548949 0.0563,1.382386 -0.002,1.852083 -0.0584,0.469697 -0.10532,0.02056 -0.10414,-0.998088 z"
       id="path13217" />
    <path
       style="fill:#225a3c"
       d="m 55.434241,94.524054 c 6.89e-4,-1.455209 0.04512,-2.016764 0.09874,-1.247902 0.05362,0.768863 0.05305,1.959487 -0.0013,2.645833 -0.0543,0.686346 -0.09817,0.05728 -0.09748,-1.397931 z"
       id="path13210" />
    <path
       style="fill:#185538"
       d="m 84.48594,90.281304 c -1.517154,-1.103952 -2.763308,-2.783595 -2.362535,-3.184369 0.385347,-0.385346 2.576117,0.945847 3.261808,1.981995 0.570138,0.861537 1.087091,2.402415 0.805991,2.402415 -0.03083,0 -0.798199,-0.540018 -1.705264,-1.200041 z m 1.187464,0.18702 c -0.240835,-0.266119 -0.437882,-0.623307 -0.437882,-0.793749 0,-0.170443 -0.126089,-0.309896 -0.280198,-0.309896 -0.154109,0 -0.195244,0.137458 -0.09141,0.305464 0.119686,0.193656 0.07228,0.233456 -0.129525,0.108736 -0.224349,-0.138656 -0.236693,-0.295072 -0.04181,-0.529885 0.420372,-0.506518 -0.547882,-1.323757 -1.034188,-0.87289 -0.285492,0.264687 -0.323338,0.242928 -0.198303,-0.114008 0.09333,-0.266412 -0.01104,-0.504658 -0.263511,-0.60154 -0.504575,-0.193623 -0.845651,0.07012 -0.426048,0.329447 0.16379,0.101228 0.279405,0.296318 0.25692,0.433532 -0.02248,0.137215 0.613964,0.757468 1.414328,1.378339 1.59774,1.239425 1.896441,1.401055 1.231632,0.66645 z"
       id="path13158" />
    <path
       style="fill:#185538"
       d="m 86.348403,91.547491 c 0.04276,-0.254661 0.167857,-0.530083 0.277994,-0.612047 0.110138,-0.08197 -0.03721,-1.093996 -0.327437,-2.248959 -0.414831,-1.650818 -0.683714,-2.213104 -1.257224,-2.629098 -1.618869,-1.174241 -2.673437,-2.428881 -2.97128,-3.534986 -0.168027,-0.624004 -0.268766,-1.234809 -0.223864,-1.357345 0.123959,-0.338285 2.033856,0.404255 2.735696,1.063599 0.709831,0.666852 2.505318,3.959971 2.505318,4.595027 0,0.833507 0.419737,0.403684 0.772505,-0.791068 0.610268,-2.066847 1.818464,-3.585837 3.534439,-4.443629 0.840851,-0.420329 1.581765,-0.711291 1.646475,-0.646581 0.194251,0.194252 -0.356836,1.881525 -0.907827,2.779509 -0.283317,0.461738 -1.175485,1.327364 -1.982596,1.923612 -1.610486,1.189736 -2.111205,1.953939 -2.393508,3.653008 -0.202457,1.218503 0.126005,1.514928 0.578415,0.521997 0.529907,-1.163019 1.705825,-2.295021 2.65683,-2.557606 0.528167,-0.145834 1.006938,-0.218517 1.063937,-0.161519 0.057,0.057 -0.106201,0.545823 -0.362664,1.086279 -0.293154,0.617776 -1.087496,1.429526 -2.139276,2.186159 -0.920139,0.661933 -1.672981,1.300974 -1.672981,1.420092 0,0.119117 -0.362406,0.216577 -0.805348,0.216577 -0.620226,0 -0.787478,-0.106433 -0.727604,-0.463021 z m 2.918277,-1.327508 c 2.009297,-1.525298 2.852478,-2.707387 1.931173,-2.707387 -0.577457,0 -2.146799,1.473629 -2.514368,2.36102 -0.324454,0.7833 -0.942344,1.229265 -1.177034,0.849529 -0.07,-0.113257 -0.1562,-0.696269 -0.191562,-1.295582 -0.03536,-0.599312 -0.160498,-1.030201 -0.278081,-0.957531 -0.182467,0.11277 -0.345347,-0.927284 -0.243793,-1.556723 0.0732,-0.453723 -1.858741,-3.907199 -2.101749,-3.757013 -0.144432,0.08926 -0.229889,0.01632 -0.189903,-0.1621 0.07015,-0.313019 -1.490968,-1.567017 -1.950801,-1.567017 -0.407251,0 -0.233826,1.173653 0.303696,2.055266 0.289946,0.475553 1.063436,1.242633 1.718866,1.704623 1.35516,0.955205 2.161284,2.672169 2.368467,5.044602 0.06638,0.760082 0.126386,1.418759 0.133351,1.463728 0.01978,0.127701 0.551052,-0.229936 2.191738,-1.475415 z M 88.389723,86.72414 c 0.352362,-0.571343 0.71894,-0.990426 0.814617,-0.931294 0.303257,0.187423 2.129457,-1.484976 1.945884,-1.782003 -0.103458,-0.167398 -0.05142,-0.207406 0.126644,-0.09736 0.317529,0.196243 1.592816,-2.084087 1.318789,-2.358114 -0.247409,-0.247409 -1.534674,0.458995 -1.357833,0.745129 0.09749,0.157738 0.03124,0.184182 -0.162088,0.0647 -0.54334,-0.335802 -1.787597,1.118121 -2.567356,2.999974 -0.398943,0.962802 -0.836869,1.899377 -0.973168,2.081278 -0.136299,0.181901 -0.143941,0.327526 -0.01698,0.323612 0.126958,-0.0039 0.51913,-0.474579 0.871493,-1.045922 z"
       id="path13150" />
    <path
       style="fill:#185538"
       d="m 73.068741,91.809867 c 0.0022,-0.107926 0.110364,-0.36417 0.240301,-0.569431 0.14458,-0.22839 0.123678,-0.553457 -0.05387,-0.83775 -0.477762,-0.76502 0.87657,-2.53131 2.527368,-3.296135 0.748481,-0.346777 1.402636,-0.588743 1.453677,-0.537702 0.05104,0.05104 -0.09245,0.536172 -0.318871,1.078071 -0.366055,0.876092 -3.858749,4.654055 -3.848609,4.162947 z m 0.955063,-1.673487 c 0.01819,-0.133394 0.04796,-0.348859 0.06615,-0.47881 0.01819,-0.129952 0.234757,-0.31367 0.481259,-0.408262 0.392826,-0.150741 0.387761,-0.105215 -0.04101,0.368568 -0.8154,0.901007 -0.04207,0.604216 0.832087,-0.319343 0.74261,-0.784574 1.406567,-1.802819 1.406567,-2.157114 0,-0.251281 -0.902833,0.167671 -1.813074,0.841342 -0.876392,0.648619 -1.706135,2.097361 -1.444078,2.521379 0.148251,0.239874 0.459745,0.01618 0.512099,-0.36776 z"
       id="path13149" />
    <path
       style="fill:#185538"
       d="m 72.02876,91.014567 c -0.230881,-0.841894 -0.558375,-1.286448 -1.290384,-1.751619 -1.587016,-1.008502 -2.299572,-2.074543 -2.801119,-4.1907 -0.144525,-0.609788 -0.0991,-0.694866 0.295515,-0.55344 1.28736,0.461381 2.946272,2.01081 3.732759,3.486409 0.827035,1.551677 0.994901,2.587102 0.585009,3.60842 -0.179065,0.446171 -0.260902,0.352211 -0.52178,-0.59907 z m 0.24218,-1.413612 c 0,-0.372363 -0.124514,-0.509694 -0.374979,-0.413582 -0.206238,0.07914 -0.445713,-0.04044 -0.532167,-0.265734 -0.110737,-0.288577 -0.0386,-0.364121 0.244106,-0.255637 0.319767,0.122706 0.292408,-0.05944 -0.134669,-0.896583 -0.352063,-0.690101 -0.715685,-1.050573 -1.059752,-1.050573 -0.288084,0 -0.523789,-0.12609 -0.523789,-0.280199 0,-0.154109 0.148828,-0.190785 0.330729,-0.0815 0.257239,0.154544 0.261759,0.11392 0.02034,-0.182823 -0.488562,-0.600525 -1.938571,-1.37905 -1.938571,-1.040838 0,0.971636 1.198944,2.931888 2.207216,3.608757 0.605042,0.406174 1.189372,0.712385 1.298513,0.680468 0.10914,-0.03192 0.198437,0.120564 0.198437,0.338845 0,0.218281 0.05953,0.396875 0.132292,0.396875 0.07276,0 0.132292,-0.250864 0.132292,-0.557474 z"
       id="path13148" />
    <path
       style="fill:#185538"
       d="m 104.10776,93.730304 c 0.001,-1.018646 0.049,-1.402944 0.10627,-0.853995 0.0573,0.548949 0.0563,1.382386 -0.002,1.852083 -0.0584,0.469697 -0.10532,0.02056 -0.10414,-0.998088 z"
       id="path13147" />
    <path
       style="fill:#185538"
       d="m 55.434241,94.524054 c 6.89e-4,-1.455209 0.04512,-2.016764 0.09874,-1.247902 0.05362,0.768863 0.05305,1.959487 -0.0013,2.645833 -0.0543,0.686346 -0.09817,0.05728 -0.09748,-1.397931 z"
       id="path13143" />
    <path
       style="fill:#54380f"
       d="m 87.627956,86.806927 c -0.01693,-0.467353 0.983289,-2.694835 1.597232,-3.557038 0.829135,-1.164413 3.947834,-2.815077 3.947834,-2.089508 0,0.163916 -0.09457,0.239583 -0.210147,0.16815 -0.378558,-0.233961 -2.285077,0.808504 -3.157258,1.726357 -0.469624,0.494217 -1.149201,1.610084 -1.51017,2.479705 -0.360969,0.86962 -0.66134,1.44217 -0.667491,1.272334 z"
       id="path13019" />
    <path
       style="fill:#54380f"
       d="m 86.501382,85.997114 c -0.749859,-2.103934 -1.87372,-3.626374 -3.149235,-4.266117 -0.637633,-0.319808 -0.861677,-0.505179 -0.497875,-0.411935 1.277431,0.327413 2.347313,1.420854 3.32415,3.397349 0.532363,1.077163 0.924068,2.090074 0.870455,2.250912 -0.05361,0.160839 -0.299985,-0.275756 -0.547495,-0.970209 z"
       id="path13013" />
    <path
       style="fill:#54380f"
       d="m 71.866476,88.289517 c -0.469438,-1.041027 -2.808466,-3.422755 -3.361391,-3.422755 -0.160135,0 -0.203938,0.34808 -0.10821,0.859896 0.187413,1.002025 -0.194951,0.457027 -0.459127,-0.65441 -0.144824,-0.6093 -0.09927,-0.695176 0.295024,-0.556185 0.652863,0.230137 2.226936,1.384019 2.790396,2.045513 0.595869,0.699541 1.585136,2.553933 1.439921,2.699148 -0.06014,0.06014 -0.328618,-0.376901 -0.596613,-0.971207 z"
       id="path13004" />
    <path
       style="fill:#54380f"
       d="m 73.246378,89.709148 c 0.518883,-1.408579 2.491257,-3.005933 3.678015,-2.978691 0.278257,0.0064 0.04453,0.176077 -0.519401,0.377088 -1.088478,0.387987 -2.811136,1.874457 -2.811136,2.425711 0,0.181147 -0.117698,0.402099 -0.261552,0.491006 -0.156626,0.0968 -0.191097,-0.02961 -0.08593,-0.315114 z"
       id="path12994" />
    <path
       style="fill:#54380f"
       d="m 88.153984,90.321948 c -0.0317,-0.919583 2.296666,-3.256511 2.972374,-2.983297 0.212963,0.08611 0.18423,0.139445 -0.08245,0.153054 -0.437376,0.02232 -2.108661,1.65714 -2.590961,2.53443 -0.160003,0.291042 -0.294535,0.424158 -0.298961,0.295813 z"
       id="path12993" />
    <path
       style="fill:#54380f"
       d="m 87.492376,89.403049 c 0.206104,-1.701998 0.76042,-2.562272 2.542938,-3.946522 0.880883,-0.684067 1.822904,-1.662158 2.09338,-2.173534 0.270476,-0.511376 0.496591,-0.810712 0.502479,-0.665191 0.02525,0.624209 -1.119256,2.022058 -2.476573,3.024767 -1.630686,1.204658 -1.951088,1.673287 -2.454363,3.589816 l -0.347394,1.322917 z"
       id="path12992" />
    <path
       style="fill:#54380f"
       d="m 86.463701,89.439689 c -0.399563,-2.421131 -0.687432,-2.96018 -2.162938,-4.0502 -1.436337,-1.061084 -2.250566,-2.189751 -2.228627,-3.089275 0.0064,-0.261888 0.178136,9e-5 0.381664,0.582174 0.20387,0.583063 0.756054,1.355376 1.229606,1.719791 2.049897,1.577468 2.507271,2.201316 2.865991,3.909157 0.191793,0.913109 0.288142,1.72077 0.214111,1.794801 -0.07403,0.07403 -0.208945,-0.31587 -0.299807,-0.866448 z"
       id="path12991" />
    <path
       style="fill:#54380f"
       d="M 85.234492,89.430825 C 84.725143,88.739601 83.891927,87.96588 83.3829,87.711444 c -0.509026,-0.254435 -0.746909,-0.46201 -0.528628,-0.461277 0.521136,0.0017 1.79113,0.847932 2.222954,1.481129 1.492192,2.188044 1.596714,2.652966 0.157266,0.699529 z"
       id="path12988" />
    <path
       style="fill:#54380f"
       d="m 71.903603,90.578797 c -0.09421,-0.375376 -0.683214,-1.018252 -1.35875,-1.483033 -1.188431,-0.817662 -2.179275,-1.999334 -1.905786,-2.272823 0.07919,-0.07919 0.223299,0.105961 0.320253,0.411436 0.09695,0.305475 0.813277,1.025986 1.591828,1.601135 1.266661,0.935738 1.987849,1.936804 1.643434,2.281219 -0.06857,0.06857 -0.199511,-0.173499 -0.290979,-0.537934 z"
       id="path12984" />
    <path
       style="fill:#54380f"
       d="m 87.63766,91.830779 c -0.01149,-0.171614 0.66218,-0.831209 1.497042,-1.465766 1.554578,-1.181596 2.818994,-2.735335 2.563028,-3.149497 -0.07889,-0.127648 -0.01735,-0.232087 0.13676,-0.232087 0.381889,0 0.358427,0.132324 -0.226886,1.279631 -0.305227,0.598296 -1.139286,1.437432 -2.095241,2.107996 -0.873486,0.612716 -1.64793,1.262015 -1.720986,1.442888 -0.0944,0.233715 -0.138872,0.238586 -0.153717,0.01684 z"
       id="path12970" />
    <path
       style="fill:#54380f"
       d="m 86.218639,91.666964 c -0.07733,-0.201504 -0.815833,-0.814572 -1.641131,-1.362373 -1.463688,-0.971541 -2.519892,-2.257649 -2.510186,-3.056579 0.0027,-0.218281 0.229879,0.0988 0.504949,0.704615 0.353357,0.778239 0.914587,1.367145 1.912418,2.006722 1.459176,0.935284 2.251001,1.697523 2.011848,1.936676 -0.07552,0.07552 -0.200574,-0.02756 -0.277898,-0.229061 z"
       id="path12969" />
    <path
       style="fill:#54380f"
       d="m 73.355749,91.396604 c 0.146953,-0.322526 0.688846,-0.875336 1.204207,-1.228467 0.515361,-0.353131 1.223193,-1.063198 1.57296,-1.577926 0.349767,-0.514729 0.63594,-0.788343 0.63594,-0.608032 0,0.180311 -0.828066,1.154262 -1.840147,2.164337 -1.01208,1.010074 -1.719912,1.572614 -1.57296,1.250088 z"
       id="path12968" />
    <path
       style="fill:#54380f"
       d="m 104.10776,93.730304 c 0.001,-1.018646 0.049,-1.402944 0.10627,-0.853995 0.0573,0.548949 0.0563,1.382386 -0.002,1.852083 -0.0584,0.469697 -0.10532,0.02056 -0.10414,-0.998088 z"
       id="path12967" />
    <path
       style="fill:#54380f"
       d="m 55.434241,94.524054 c 6.89e-4,-1.455209 0.04512,-2.016764 0.09874,-1.247902 0.05362,0.768863 0.05305,1.959487 -0.0013,2.645833 -0.0543,0.686346 -0.09817,0.05728 -0.09748,-1.397931 z"
       id="path12963" />
    <path
       style="fill:#013214"
       d="m 87.627956,86.806927 c -0.01693,-0.467353 0.983289,-2.694835 1.597232,-3.557038 0.829135,-1.164413 3.947834,-2.815077 3.947834,-2.089508 0,0.163916 -0.09457,0.239583 -0.210147,0.16815 -0.378558,-0.233961 -2.285077,0.808504 -3.157258,1.726357 -0.469624,0.494217 -1.149201,1.610084 -1.51017,2.479705 -0.360969,0.86962 -0.66134,1.44217 -0.667491,1.272334 z"
       id="path12039" />
    <path
       style="fill:#013214"
       d="m 86.501382,85.997114 c -0.749859,-2.103934 -1.87372,-3.626374 -3.149235,-4.266117 -0.637633,-0.319808 -0.861677,-0.505179 -0.497875,-0.411935 1.277431,0.327413 2.347313,1.420854 3.32415,3.397349 0.532363,1.077163 0.924068,2.090074 0.870455,2.250912 -0.05361,0.160839 -0.299985,-0.275756 -0.547495,-0.970209 z"
       id="path12036" />
    <path
       style="fill:#013214"
       d="m 71.866476,88.289517 c -0.469438,-1.041027 -2.808466,-3.422755 -3.361391,-3.422755 -0.160135,0 -0.203938,0.34808 -0.10821,0.859896 0.187413,1.002025 -0.194951,0.457027 -0.459127,-0.65441 -0.144824,-0.6093 -0.09927,-0.695176 0.295024,-0.556185 0.652863,0.230137 2.226936,1.384019 2.790396,2.045513 0.595869,0.699541 1.585136,2.553933 1.439921,2.699148 -0.06014,0.06014 -0.328618,-0.376901 -0.596613,-0.971207 z"
       id="path12025" />
    <path
       style="fill:#013214"
       d="m 73.246378,89.709148 c 0.518883,-1.408579 2.491257,-3.005933 3.678015,-2.978691 0.278257,0.0064 0.04453,0.176077 -0.519401,0.377088 -1.088478,0.387987 -2.811136,1.874457 -2.811136,2.425711 0,0.181147 -0.117698,0.402099 -0.261552,0.491006 -0.156626,0.0968 -0.191097,-0.02961 -0.08593,-0.315114 z"
       id="path12016" />
    <path
       style="fill:#013214"
       d="m 88.153984,90.321948 c -0.0317,-0.919583 2.296666,-3.256511 2.972374,-2.983297 0.212963,0.08611 0.18423,0.139445 -0.08245,0.153054 -0.437376,0.02232 -2.108661,1.65714 -2.590961,2.53443 -0.160003,0.291042 -0.294535,0.424158 -0.298961,0.295813 z"
       id="path12015" />
    <path
       style="fill:#013214"
       d="m 87.492376,89.403049 c 0.206104,-1.701998 0.76042,-2.562272 2.542938,-3.946522 0.880883,-0.684067 1.822904,-1.662158 2.09338,-2.173534 0.270476,-0.511376 0.496591,-0.810712 0.502479,-0.665191 0.02525,0.624209 -1.119256,2.022058 -2.476573,3.024767 -1.630686,1.204658 -1.951088,1.673287 -2.454363,3.589816 l -0.347394,1.322917 z"
       id="path12011" />
    <path
       style="fill:#013214"
       d="m 86.463701,89.439689 c -0.399563,-2.421131 -0.687432,-2.96018 -2.162938,-4.0502 -1.436337,-1.061084 -2.250566,-2.189751 -2.228627,-3.089275 0.0064,-0.261888 0.178136,9e-5 0.381664,0.582174 0.20387,0.583063 0.756054,1.355376 1.229606,1.719791 2.049897,1.577468 2.507271,2.201316 2.865991,3.909157 0.191793,0.913109 0.288142,1.72077 0.214111,1.794801 -0.07403,0.07403 -0.208945,-0.31587 -0.299807,-0.866448 z"
       id="path12010" />
    <path
       style="fill:#013214"
       d="M 85.234492,89.430825 C 84.725143,88.739601 83.891927,87.96588 83.3829,87.711444 c -0.509026,-0.254435 -0.746909,-0.46201 -0.528628,-0.461277 0.521136,0.0017 1.79113,0.847932 2.222954,1.481129 1.492192,2.188044 1.596714,2.652966 0.157266,0.699529 z"
       id="path12008" />
    <path
       style="fill:#013214"
       d="m 71.903603,90.578797 c -0.09421,-0.375376 -0.683214,-1.018252 -1.35875,-1.483033 -1.188431,-0.817662 -2.179275,-1.999334 -1.905786,-2.272823 0.07919,-0.07919 0.223299,0.105961 0.320253,0.411436 0.09695,0.305475 0.813277,1.025986 1.591828,1.601135 1.266661,0.935738 1.987849,1.936804 1.643434,2.281219 -0.06857,0.06857 -0.199511,-0.173499 -0.290979,-0.537934 z"
       id="path12004" />
    <path
       style="fill:#013214"
       d="m 87.63766,91.830779 c -0.01149,-0.171614 0.66218,-0.831209 1.497042,-1.465766 1.554578,-1.181596 2.818994,-2.735335 2.563028,-3.149497 -0.07889,-0.127648 -0.01735,-0.232087 0.13676,-0.232087 0.381889,0 0.358427,0.132324 -0.226886,1.279631 -0.305227,0.598296 -1.139286,1.437432 -2.095241,2.107996 -0.873486,0.612716 -1.64793,1.262015 -1.720986,1.442888 -0.0944,0.233715 -0.138872,0.238586 -0.153717,0.01684 z"
       id="path11993" />
    <path
       style="fill:#013214"
       d="m 86.218639,91.666964 c -0.07733,-0.201504 -0.815833,-0.814572 -1.641131,-1.362373 -1.463688,-0.971541 -2.519892,-2.257649 -2.510186,-3.056579 0.0027,-0.218281 0.229879,0.0988 0.504949,0.704615 0.353357,0.778239 0.914587,1.367145 1.912418,2.006722 1.459176,0.935284 2.251001,1.697523 2.011848,1.936676 -0.07552,0.07552 -0.200574,-0.02756 -0.277898,-0.229061 z"
       id="path11992" />
    <path
       style="fill:#013214"
       d="m 73.355749,91.396604 c 0.146953,-0.322526 0.688846,-0.875336 1.204207,-1.228467 0.515361,-0.353131 1.223193,-1.063198 1.57296,-1.577926 0.349767,-0.514729 0.63594,-0.788343 0.63594,-0.608032 0,0.180311 -0.828066,1.154262 -1.840147,2.164337 -1.01208,1.010074 -1.719912,1.572614 -1.57296,1.250088 z"
       id="path11991" />
  </g>
</svg>
