<?xml version="1.0" encoding="UTF-8" standalone="no"?>
<!-- Created with Inkscape (http://www.inkscape.org/) -->

<svg
   width="185"
   height="185"
   viewBox="0 0 48.947914 48.947918"
   version="1.1"
   id="svg1"
   xmlns="http://www.w3.org/2000/svg"
   xmlns:svg="http://www.w3.org/2000/svg">
  <defs
     id="defs1" />
  <g
     id="g7830"
     transform="matrix(0.87406411,0,0,0.87406411,329.85618,162.50406)"
     style="stroke-width:1.14408">
    <path
       style="fill:#96a457;stroke-width:1.14408"
       d="m -359.96561,-130.09054 -1.5875,-0.0801 -5.29166,-0.40734 -5.29167,-0.40735 -1.02454,-0.23574 -1.02453,-0.23574 -0.29838,-0.29944 -0.29838,-0.29944 0.65316,-0.49351 0.65317,-0.49351 1.86038,-0.53753 1.86037,-0.53752 2.77812,-0.40573 2.77813,-0.40572 0.99219,-0.28118 0.99218,-0.28118 v -0.19923 -0.19923 l -0.27083,-0.27084 -0.27084,-0.27083 0.53542,-0.48455 0.53542,-0.48455 v -0.22357 -0.22358 l -0.59531,-0.004 -0.59531,-0.004 -0.26459,-0.19439 -0.26458,-0.19438 -0.59404,-0.84746 -0.59404,-0.84746 0.46175,-0.29238 0.46175,-0.29237 -0.33377,-0.14 -0.33376,-0.13999 -0.28246,-0.52779 -0.28247,-0.5278 0.43778,-0.32011 0.43778,-0.32011 -0.94603,-1.03282 -0.94603,-1.03283 v -0.21288 -0.21288 h 0.26458 0.26458 v -0.4147 -0.41471 l 0.55598,0.17646 0.55597,0.17646 -0.18017,-0.8203 -0.18017,-0.82031 0.39727,-0.15245 0.39727,-0.15244 0.57825,0.30946 0.57825,0.30947 0.30232,-0.30557 0.30233,-0.30557 -0.44246,-0.24975 -0.44245,-0.24974 -0.59581,-0.96403 -0.5958,-0.96404 0.52938,-0.42867 0.52938,-0.42867 -0.10848,-0.32545 -0.10849,-0.32545 h 0.26146 0.26145 l -0.14195,-1.05833 -0.14195,-1.05833 h 0.13688 0.13689 l 0.75785,0.39524 0.75785,0.39525 0.34026,0.002 0.34027,0.002 -0.671,-0.98746 -0.67099,-0.98746 v -0.31341 -0.31341 l 0.32513,-0.10838 0.32513,-0.10837 -0.46459,-0.70906 -0.4646,-0.70905 -0.23411,-0.61577 -0.23411,-0.61576 0.20617,-0.3336 0.20617,-0.33359 0.823,0.42559 0.823,0.42559 -0.1595,-0.79752 -0.1595,-0.79751 h 0.29765 0.29766 v -0.52917 -0.52916 l 0.19844,0.006 0.19843,0.006 0.66146,0.5174 0.66146,0.5174 0.19844,0.006 0.19843,0.006 v -0.35587 -0.35587 l -0.52325,-0.47353 -0.52325,-0.47354 0.0306,-0.55966 0.0306,-0.55965 -0.30108,-0.74483 -0.30108,-0.74483 v -0.41051 -0.41051 l 0.52917,0.13838 0.52917,0.13838 v -0.31919 -0.31919 l -0.32852,-0.32851 -0.32852,-0.32852 0.36646,-0.22648 0.36646,-0.22649 -0.15214,-0.58177 -0.15213,-0.58177 0.13412,-0.34952 0.13413,-0.34953 0.90611,0.3786 0.90611,0.3786 -0.008,-0.46658 -0.008,-0.46657 -0.38846,-0.51359 -0.38846,-0.51359 v -0.4597 -0.4597 l 0.42491,-0.4249 0.4249,-0.42491 0.36885,0.30611 0.36884,0.30612 v -0.42927 -0.42928 h 0.27389 0.2739 l -0.29427,-0.54984 -0.29427,-0.54984 0.15513,-0.40426 0.15513,-0.40427 0.6698,0.16811 0.6698,0.16811 -0.40768,-0.78836 -0.40767,-0.78836 0.38699,-0.21657 0.387,-0.21657 -0.39959,-1.15982 -0.39959,-1.15981 0.26596,-0.26596 0.26596,-0.26596 0.40793,0.33855 0.40792,0.33855 -0.1652,-0.82602 -0.1652,-0.82601 h 0.27559 0.27558 l 0.54286,0.72761 0.54285,0.7276 0.008,-0.46302 0.008,-0.46302 h 0.39026 0.39027 l -0.15209,-0.8599 -0.15209,-0.85989 -0.21627,-0.85782 -0.21627,-0.85782 0.26573,-0.16423 0.26574,-0.16423 0.29444,0.29444 0.29445,0.29445 h 0.34396 0.34396 v -1.6874 -1.68739 l 0.37842,-0.31406 0.37842,-0.31407 0.28304,0.52886 0.28303,0.52885 0.004,0.61271 0.004,0.61271 0.16115,0.60147 0.16115,0.60148 0.35599,-0.46919 0.35599,-0.46918 0.008,1.96435 0.008,1.96435 0.61236,-0.57529 0.61237,-0.57529 h 0.30169 0.30168 l 0.17442,0.92974 0.17442,0.92973 -0.12574,0.65777 -0.12574,0.65776 h 0.2362 0.2362 l 0.16654,-0.43399 0.16653,-0.434 0.35433,0.48457 0.35432,0.48456 v 0.4786 0.4786 h 0.26458 0.26459 v 0.67885 0.67885 l -0.30253,0.56527 -0.30252,0.56528 0.30214,0.10071 0.30215,0.10072 -0.16573,1.03641 -0.16573,1.03641 h 0.2152 0.2152 l 0.59891,-0.56264 0.5989,-0.56264 0.43992,0.16881 0.43992,0.16881 -0.17255,0.85685 -0.17256,0.85685 -0.0555,0.66146 -0.0555,0.66146 -0.32134,0.56052 -0.32134,0.56052 0.14885,0.14885 0.14885,0.14885 0.37101,-0.14237 0.371,-0.14236 v 0.30603 0.30603 l -0.41638,0.80519 -0.41638,0.8052 0.12884,0.12885 0.12884,0.12884 0.707,-0.46324 0.70699,-0.46324 0.23796,0.37595 0.23795,0.37596 0.004,0.31828 0.004,0.31828 -0.30756,0.67502 -0.30756,0.67503 0.17408,0.17409 0.17409,0.17409 0.92723,-0.0349 0.92722,-0.0349 v 0.81102 0.81101 l -0.46053,0.77962 -0.46053,0.77962 0.38386,0.23724 0.38387,0.23724 -0.4525,0.5 -0.4525,0.50001 v 0.17761 0.1776 h 0.55747 0.55748 l -0.19062,0.46302 -0.19062,0.46302 -0.14253,0.49896 -0.14253,0.49896 0.84566,-0.12412 0.84565,-0.12411 0.14345,0.2321 0.14345,0.23211 -0.41968,0.64051 -0.41968,0.64052 v 0.43095 0.43095 l 0.52916,0.13838 0.52917,0.13838 v 0.22128 0.22127 l -0.3275,0.74006 -0.3275,0.74005 -0.37404,0.29034 -0.37404,0.29035 0.26335,0.16275 0.26335,0.16276 0.99908,-0.27586 0.99908,-0.27585 0.24633,0.24633 0.24634,0.24633 0.04,0.63476 0.04,0.63476 0.27363,0.18653 0.27363,0.18654 -0.29768,0.78863 -0.29767,0.78863 0.36746,0.14101 0.36747,0.14101 v 0.62875 0.62876 l -0.48385,0.43788 -0.48386,0.43788 h -0.30989 -0.3099 l 0.002,0.19844 0.002,0.19844 0.82094,0.46728 0.82094,0.46728 -0.3596,0.43564 -0.35959,0.43564 0.38184,0.12835 0.38185,0.12835 0.62988,0.62989 0.62989,0.62989 -0.10608,0.32321 -0.10609,0.32322 -0.90492,0.61303 -0.90492,0.61303 0.0831,0.63426 0.0831,0.63426 -0.64983,0.16309 -0.64984,0.1631 0.0368,0.62253 0.0368,0.62252 0.8242,0.39319 0.82421,0.39318 1.68934,0.40338 1.68933,0.40338 1.17591,0.17903 1.17591,0.17903 1.46992,0.50484 1.46993,0.50483 1.45521,0.97009 1.45521,0.97008 -0.92605,0.19601 -0.92604,0.196 -4.49791,0.41423 -4.49792,0.41422 -3.96875,0.26006 -3.96875,0.26007 -7.80521,-0.0459 -7.80521,-0.0459 z"
       id="path5342" />
    <path
       style="fill:#8f9232;stroke-width:1.14408"
       d="m -347.13332,-179.78437 v -0.1323 h 0.1323 0.13229 v 0.1323 0.13229 h -0.13229 -0.1323 z"
       id="path5393" />
    <path
       style="fill:#8f9232;stroke-width:1.14408"
       d="m -342.89998,-171.58229 v -0.13229 h 0.13229 0.13229 v 0.13229 0.13229 h -0.13229 -0.13229 z"
       id="path5391" />
    <path
       style="fill:#8f9232;stroke-width:1.14408"
       d="m -342.6354,-171.05312 v -0.1323 h 0.13229 0.13229 v 0.1323 0.13229 h -0.13229 -0.13229 z"
       id="path5390" />
    <path
       style="fill:#8f9232;stroke-width:1.14408"
       d="m -358.77498,-167.34896 v -0.13229 h 0.13229 0.13229 v 0.13229 0.13229 h -0.13229 -0.13229 z"
       id="path5389" />
    <path
       style="fill:#8f9232;stroke-width:1.14408"
       d="m -362.45826,-158.11059 0.0209,-0.50712 0.13896,0.34727 0.13897,0.34726 -0.15986,0.15986 -0.15985,0.15985 z"
       id="path5387" />
    <path
       style="fill:#8f9232;stroke-width:1.14408"
       d="m -362.21457,-157.29479 v -0.13229 h 0.1323 0.13229 v 0.13229 0.13229 h -0.13229 -0.1323 z"
       id="path5386" />
    <path
       style="fill:#8f9232;stroke-width:1.14408"
       d="m -357.71665,-130.06432 -1.45521,-0.0949 -4.49791,-0.2807 -4.49792,-0.2807 -2.51354,-0.26793 -2.51354,-0.26793 -0.72761,-0.28511 -0.7276,-0.28511 v -0.20888 -0.20888 l 1.12448,-0.53579 1.12448,-0.53579 1.5875,-0.39794 1.5875,-0.39793 2.24895,-0.29533 2.24896,-0.29532 1.05834,-0.27563 1.05833,-0.27563 0.34325,-0.28151 0.34326,-0.2815 -0.33632,-0.20786 -0.33632,-0.20786 0.58838,-0.6263 0.58837,-0.6263 v -0.31468 -0.31469 l -0.84421,0.0672 -0.84421,0.0671 -0.3354,-0.65695 -0.33539,-0.65695 -0.45846,-0.33524 -0.45847,-0.33523 h 0.43183 0.43183 l 0.17659,-0.28573 0.17659,-0.28573 -0.55785,-0.39073 -0.55785,-0.39074 v -0.35356 -0.35357 l 0.39688,-0.15229 0.39687,-0.1523 v -0.25505 -0.25506 l -0.52916,-0.16795 -0.52917,-0.16795 v -0.3154 -0.3154 l -0.57425,-0.35863 -0.57425,-0.35863 0.44752,-0.25044 0.44753,-0.25045 -0.15347,-0.24832 -0.15348,-0.24832 h 0.63125 0.63125 l -0.12076,-0.8228 -0.12076,-0.8228 1.09263,0.18459 1.09262,0.1846 v -0.33315 -0.33315 l -0.40851,-0.4514 -0.40851,-0.4514 -0.13446,-0.74152 -0.13446,-0.74152 -0.1341,-0.21698 -0.1341,-0.21697 0.21405,-0.002 0.21405,-0.002 0.28599,-0.61733 0.28598,-0.61733 -0.21131,-0.57123 -0.21131,-0.57123 h 0.27167 0.27167 l -0.17703,-0.28644 -0.17702,-0.28644 0.85327,0.44125 0.85327,0.44124 0.28085,-0.28085 0.28084,-0.28084 -0.46439,-0.51315 -0.46439,-0.51315 -0.0751,-0.68373 -0.0751,-0.68373 h 0.24381 0.24382 l -0.17634,-0.28531 -0.17633,-0.28532 -0.12445,-1.19426 -0.12445,-1.19425 0.54975,0.17449 0.54975,0.17448 v -0.66039 -0.66039 l 0.42668,-0.42668 0.42668,-0.42667 0.62235,0.40778 0.62234,0.40777 h 0.2739 0.27389 v -0.48816 -0.48816 l -0.54545,-0.49362 -0.54545,-0.49362 0.13286,-0.50805 0.13285,-0.50804 -0.38116,-0.38115 -0.38115,-0.38116 0.004,-0.44412 0.004,-0.44412 0.24767,0.39168 0.24768,0.39169 0.37961,-0.90284 0.37961,-0.90283 -0.56519,-0.48156 -0.56519,-0.48156 0.50215,0.17613 0.50214,0.17614 -0.12476,-0.65265 -0.12476,-0.65264 0.33905,-0.31672 0.33905,-0.31672 h 0.18877 0.18878 l 0.48385,0.43788 0.48385,0.43788 v -0.64359 -0.64359 l -0.35291,-0.5219 -0.35291,-0.52189 -0.16501,-0.45536 -0.16501,-0.45537 0.41366,-0.41366 0.41366,-0.41366 0.3027,0.23061 0.3027,0.23062 0.57641,-0.30261 0.57641,-0.3026 -0.22823,-0.36927 -0.22822,-0.36927 0.13045,-0.21107 0.13045,-0.21107 h -0.2235 -0.2235 v -0.52916 -0.52917 h 0.093 0.093 l 0.51177,0.27389 0.51177,0.2739 v -0.48556 -0.48556 l -0.31651,-0.31651 -0.31651,-0.31651 0.46077,-0.33692 0.46076,-0.33692 -0.42693,-1.02181 -0.42694,-1.0218 0.25282,-0.25282 0.25282,-0.25282 0.17776,0.28764 0.17777,0.28763 h 0.20315 0.20314 l -0.10129,-0.85989 -0.10128,-0.8599 0.64752,0.76203 0.64752,0.76203 0.17888,-0.56359 0.17888,-0.56359 h 0.36528 0.36528 l -0.22849,-0.72761 -0.22849,-0.7276 -0.13798,-0.99219 -0.13799,-0.99219 h 0.13305 0.13305 l 0.54542,0.2919 0.54542,0.29191 0.21676,-0.35073 0.21676,-0.35073 -0.042,-1.51656 -0.042,-1.51656 0.19291,-0.19291 0.19291,-0.19291 0.2754,0.2754 0.2754,0.2754 0.15409,1.4929 0.15408,1.49289 h 0.13225 0.13225 l 0.31525,-0.43112 0.31524,-0.43112 0.0607,1.68188 0.0607,1.68189 0.10985,0.10986 0.10986,0.10985 0.35665,-0.29599 0.35665,-0.29599 0.3112,0.31121 0.31121,0.3112 0.0168,-0.38364 0.0168,-0.38365 0.26433,0.66146 0.26432,0.66146 -0.17251,0.92235 -0.17251,0.92236 0.50756,-0.45934 0.50756,-0.45933 h 0.1776 0.17761 v 0.94165 0.94166 l 0.26645,-0.16468 0.26645,-0.16467 0.14688,0.38276 0.14688,0.38276 -0.3934,0.94152 -0.39339,0.94152 0.30417,0.1014 0.30417,0.10139 -0.0797,1.10463 -0.0798,1.10464 h 0.24072 0.24072 l 0.1832,-0.18321 0.18321,-0.1832 0.49621,-0.0757 0.49621,-0.0757 0.16299,0.42476 0.163,0.42476 -0.24579,0.2972 -0.24579,0.29719 0.007,0.66146 0.007,0.66146 -0.19307,0.59531 -0.19307,0.59531 h 0.55172 0.55173 l -0.16421,0.46302 -0.1642,0.46303 -0.40333,0.46927 -0.40332,0.46927 0.30775,0.30774 0.30774,0.30775 0.61587,-0.57858 0.61587,-0.57858 h 0.20917 0.20918 l -0.13616,0.99219 -0.13615,0.99219 -0.0901,0.52916 -0.0901,0.52917 0.96776,-0.028 0.96775,-0.028 0.11057,0.75337 0.11057,0.75337 -0.48127,0.72985 -0.48127,0.72986 -0.002,0.17903 -0.002,0.17904 0.42211,0.0855 0.42212,0.0855 -0.57361,0.72761 -0.57361,0.7276 h 0.57923 0.57922 l -0.14585,0.46302 -0.14585,0.46302 -0.18265,0.60373 -0.18265,0.60372 1.13853,-0.18206 1.13853,-0.18205 -0.57945,0.93756 -0.57944,0.93757 0.16374,0.4267 0.16374,0.42671 h 0.50086 0.50086 v 0.1 0.1 l -0.39287,0.94026 -0.39286,0.94026 -0.26859,0.166 -0.2686,0.166 v 0.28305 0.28306 l 1.29266,-0.17148 1.29265,-0.17148 0.16256,0.42362 0.16255,0.42361 v 0.50753 0.50752 h 0.25804 0.25803 l -0.26391,0.69414 -0.26391,0.69414 0.42179,0.30842 0.42179,0.30842 -0.17734,0.70657 -0.17733,0.70657 -0.76775,0.33983 -0.76774,0.33984 v 0.21376 0.21376 l 0.79375,0.2767 0.79375,0.2767 v 0.35538 0.35538 l -0.27291,0.16866 -0.27291,0.16867 0.86822,0.58364 0.86822,0.58365 0.0782,0.53804 0.0782,0.53805 -0.95002,0.5112 -0.95002,0.51119 0.15405,0.61457 0.15406,0.61457 -0.77055,0.29085 -0.77055,0.29085 v 0.59758 0.59758 l 1.24271,0.5346 1.24271,0.5346 2.36224,0.43698 2.36224,0.43698 1.57704,0.50344 1.57705,0.50344 1.39952,0.8482 1.39951,0.84819 v 0.17019 0.17018 l -2.71198,0.31181 -2.71198,0.3118 -4.63021,0.39902 -4.6302,0.39903 -8.59896,0.0919 -8.59896,0.0919 z m 10.31875,-14.00131 v -0.13229 h -0.13229 -0.13229 v 0.13229 0.1323 h 0.13229 0.13229 z m 2.38125,-4.49791 v -0.13229 h -0.13229 -0.13229 v 0.13229 0.13229 h 0.13229 0.13229 z m -2.38125,-30.42708 v -0.1323 h -0.13229 -0.13229 v 0.1323 0.13229 h 0.13229 0.13229 z"
       id="path5380" />
    <path
       style="fill:#9b6a2a;stroke-width:1.14408"
       d="m -348.72083,-182.16672 v -0.1323 h 0.1323 0.13229 v 0.1323 0.13229 h -0.13229 -0.1323 z"
       id="path5644" />
    <path
       style="fill:#9b6a2a;stroke-width:1.14408"
       d="m -352.26439,-180.86545 -0.1606,-0.41851 v -0.11065 -0.11066 h 0.20828 0.20828 l 0.0399,0.52917 0.0399,0.52917 h -0.0875 -0.0875 z"
       id="path5643" />
    <path
       style="fill:#9b6a2a;stroke-width:1.14408"
       d="m -351.89583,-178.72714 v -0.13229 h 0.1323 0.13229 v 0.13229 0.13229 h -0.13229 -0.1323 z"
       id="path5642" />
    <path
       style="fill:#9b6a2a;stroke-width:1.14408"
       d="m -351.63124,-178.19797 v -0.1323 h 0.13229 0.13229 v 0.1323 0.13229 h -0.13229 -0.13229 z"
       id="path5641" />
    <path
       style="fill:#9b6a2a;stroke-width:1.14408"
       d="m -354.94941,-173.84995 -0.1744,-0.28219 0.1261,-0.1261 0.1261,-0.1261 0.15667,0.40829 0.15667,0.40828 h -0.10837 -0.10837 z"
       id="path5639" />
    <path
       style="fill:#9b6a2a;stroke-width:1.14408"
       d="m -358.93255,-165.40658 -0.18879,-0.30547 0.30547,0.18879 0.30546,0.18879 v 0.11667 0.11668 h -0.11668 -0.11667 z"
       id="path5628" />
    <path
       style="fill:#9b6a2a;stroke-width:1.14408"
       d="m -359.19713,-162.76075 -0.18879,-0.30546 0.30546,0.18878 0.30547,0.18879 v 0.11668 0.11667 h -0.11668 -0.11668 z"
       id="path5625" />
    <path
       style="fill:#9b6a2a;stroke-width:1.14408"
       d="m -364.9927,-145.25737 -0.52917,-0.22739 0.59532,-0.0186 0.59531,-0.0186 v 0.26458 0.26458 l -0.0661,-0.0186 -0.0661,-0.0186 z"
       id="path5614" />
    <path
       style="fill:#9b6a2a;stroke-width:1.14408"
       d="m -357.71665,-130.06431 -1.45521,-0.0949 -4.49791,-0.2807 -4.49792,-0.2807 -2.51354,-0.26793 -2.51354,-0.26793 -0.72761,-0.28511 -0.7276,-0.28511 v -0.20888 -0.20888 l 1.12448,-0.53579 1.12448,-0.53579 1.5875,-0.38852 1.5875,-0.38852 2.24895,-0.306 2.24896,-0.306 1.05834,-0.27437 1.05833,-0.27437 0.34325,-0.28151 0.34326,-0.2815 -0.33632,-0.20786 -0.33632,-0.20786 0.58838,-0.6263 0.58837,-0.6263 v -0.31468 -0.31469 l -0.84421,0.0672 -0.84421,0.0671 -0.3354,-0.65695 -0.33539,-0.65695 -0.41406,-0.30277 -0.41405,-0.30276 0.53533,-0.14 0.53533,-0.13999 v -0.28004 -0.28005 l -0.52917,-0.2832 -0.52917,-0.2832 v -0.38756 -0.38757 h 0.36602 0.36602 l 0.1332,-0.50937 0.1332,-0.50937 -0.38271,0.14686 -0.38271,0.14686 -0.14737,-0.56353 -0.14736,-0.56353 -0.29987,-0.004 -0.29987,-0.004 0.39687,-0.25648 0.39688,-0.25648 -0.34635,-0.004 -0.34634,-0.004 0.1744,-0.28219 0.1744,-0.28218 0.1476,0.1476 0.1476,0.14759 0.34951,-0.29007 0.34951,-0.29007 -0.27035,-0.50516 -0.27035,-0.50516 0.30898,0.0699 0.30899,0.0699 0.13354,-0.36756 0.13355,-0.36756 -0.36506,0.20794 -0.36505,0.20793 0.31952,-0.3451 0.31951,-0.3451 0.37455,0.31085 0.37456,0.31085 0.43041,-0.16516 0.43041,-0.16517 v -0.60375 -0.60375 l -0.43741,0.0367 -0.4374,0.0367 -0.038,-1.50371 -0.0379,-1.50371 0.24936,0.15411 0.24937,0.15412 -0.18228,-0.72623 -0.18227,-0.72623 0.29532,-0.35584 0.29532,-0.35584 0.37601,0.14429 0.37602,0.14429 -0.16271,0.26325 -0.1627,0.26326 0.5611,-0.30029 0.56109,-0.30029 v 0.27389 0.27389 h 0.2826 0.2826 l -0.49883,-0.7276 -0.49884,-0.72761 0.0183,-0.66145 0.0183,-0.66146 -0.19809,-0.61043 -0.1981,-0.61044 0.24623,0.15218 0.24622,0.15217 -0.0173,-0.86466 -0.0173,-0.86466 -0.24487,-0.30991 -0.24487,-0.30991 0.51893,0.1357 0.51893,0.1357 -0.0163,-0.35495 -0.0163,-0.35496 0.0417,-0.61314 0.0417,-0.61314 0.46302,0.13755 0.46302,0.13756 0.69161,0.16451 0.6916,0.1645 0.13386,-0.51187 0.13386,-0.51188 -0.62703,-0.47087 -0.62703,-0.47088 v -0.22752 -0.22753 h 0.37052 0.37052 l -0.0551,-0.79543 -0.0551,-0.79544 0.4783,0.15181 0.4783,0.15181 v -0.28242 -0.28241 h -0.26962 -0.26962 l 0.17314,-0.68986 0.17314,-0.68985 -0.36654,-0.26115 -0.36654,-0.26114 0.45455,0.14569 0.45455,0.1457 0.15638,-0.25303 0.15638,-0.25303 -0.34635,-0.0313 -0.34634,-0.0313 -0.1713,0.0223 -0.1713,0.0223 0.14809,-0.58626 0.14809,-0.58627 0.28175,-0.18505 0.28175,-0.18506 0.47069,0.42597 0.47068,0.42596 0.17477,-0.17476 0.17477,-0.17477 h -0.32863 -0.32862 l 0.077,-0.73361 0.0769,-0.73361 -0.37387,-0.90261 -0.37387,-0.90261 0.31851,-0.10617 0.31851,-0.10617 -0.15356,-0.30813 -0.15356,-0.30813 0.37952,0.46302 0.37952,0.46302 h 0.30723 0.30723 l 0.2937,-0.64459 0.29369,-0.64458 -0.21037,-0.47989 -0.21037,-0.4799 -0.0269,-0.13229 -0.0269,-0.13229 -0.22632,-0.35713 -0.22631,-0.35712 0.5437,0.29098 0.5437,0.29098 h 0.14969 0.14968 v -0.54478 -0.54479 l 0.33073,0.1987 0.33073,0.1987 -0.37061,-0.45669 -0.37061,-0.45668 0.30899,-0.58629 0.30899,-0.5863 -0.25707,-0.88229 -0.25706,-0.8823 0.42872,0.35313 0.42872,0.35313 -0.17715,-0.71139 -0.17715,-0.71139 0.25227,-0.15592 0.25228,-0.15591 0.29886,0.55842 0.29886,0.55843 0.33762,-0.46172 0.33761,-0.46171 0.41804,0.16042 0.41804,0.16042 0.10866,-0.31587 0.10866,-0.31586 -0.22385,-0.79201 -0.22386,-0.792 v -0.62537 -0.62536 l 0.36154,0.13873 0.36155,0.13874 0.31141,-1.03941 0.31142,-1.03941 -0.23458,-0.41916 -0.23457,-0.41916 0.12374,-0.6473 0.12374,-0.64729 0.29047,0.0968 0.29047,0.0968 0.17936,0.64185 0.17937,0.64184 0.0264,1.01002 0.0264,1.01001 0.56694,-0.17993 0.56694,-0.17994 -0.13894,1.23266 -0.13894,1.23267 0.36575,0.36575 0.36575,0.36575 v 0.25518 0.25517 l -0.39687,0.1523 -0.39688,0.15229 v 0.24812 0.24812 l 0.52917,-0.13838 0.52917,-0.13838 0.004,-0.56446 0.004,-0.56445 0.22746,0.35898 0.22746,0.35897 0.19844,-0.32108 0.19843,-0.32107 0.23104,0.35897 0.23105,0.35898 -0.15279,0.72734 -0.15279,0.72735 0.41784,-0.16034 0.41784,-0.16034 v -0.23628 -0.23627 h 0.26458 0.26459 v 0.94165 0.94166 l 0.26645,-0.16468 0.26645,-0.16467 0.14688,0.38276 0.14688,0.38276 -0.3934,0.94152 -0.39339,0.94152 0.30804,0.10268 0.30803,0.10268 -0.0836,0.9698 -0.0836,0.96979 0.39814,0.39814 0.39814,0.39814 h 0.29003 0.29003 l 0.27364,0.71974 0.27365,0.71974 -0.34634,0.27244 -0.34634,0.27245 -0.0367,0.46302 -0.0367,0.46302 0.30133,0.0314 0.30134,0.0314 0.3265,-0.042 0.3265,-0.042 -0.16828,0.47365 -0.16828,0.47365 -0.40333,0.46927 -0.40332,0.46927 0.30775,0.30774 0.30774,0.30775 0.61844,-0.581 0.61845,-0.581 0.17881,0.17881 0.17881,0.17881 v 0.63475 0.63476 l -0.26364,0.4926 -0.26363,0.49261 0.15046,0.39209 0.15046,0.39209 0.82325,-0.23611 0.82326,-0.2361 0.12776,0.12776 0.12777,0.12777 h -0.34108 -0.34107 l 0.26392,0.33073 0.26392,0.33073 -0.0493,0.52917 -0.0493,0.52916 -0.31449,0.57792 -0.31448,0.57792 v 0.31028 0.31029 l 0.41061,-0.15757 0.41062,-0.15757 -0.18628,0.3277 -0.18627,0.3277 -0.39764,0.46302 -0.39764,0.46302 0.37174,0.0313 0.37173,0.0313 0.23225,-0.0426 0.23224,-0.0426 -0.1488,0.47429 -0.1488,0.47429 -0.18824,0.6251 -0.18824,0.6251 1.13713,-0.19212 1.13713,-0.19211 -0.57246,0.92625 -0.57245,0.92625 0.16374,0.4267 0.16374,0.42671 h 0.50086 0.50086 v 0.1 0.1 l -0.39287,0.94026 -0.39286,0.94026 -0.26859,0.166 -0.2686,0.166 v 0.2838 0.28381 l 1.01444,-0.13607 1.01444,-0.13606 0.44077,0.24666 0.44077,0.24667 v 0.64831 0.64831 h 0.25804 0.25803 l -0.26391,0.69414 -0.26391,0.69414 0.38637,0.29805 0.38637,0.29805 -0.14497,0.71829 -0.14498,0.71829 -0.76469,0.33849 -0.76468,0.33848 v 0.21376 0.21376 l 0.79375,0.2767 0.79375,0.2767 v 0.35538 0.35538 l -0.27291,0.16866 -0.27291,0.16867 0.86822,0.58364 0.86822,0.58365 0.0782,0.53804 0.0782,0.53805 -0.95002,0.5112 -0.95002,0.51119 0.15405,0.61457 0.15406,0.61457 -0.77055,0.29085 -0.77055,0.29085 v 0.59758 0.59758 l 1.24271,0.5346 1.24271,0.5346 2.36224,0.43698 2.36224,0.43698 1.57704,0.50344 1.57705,0.50344 1.39952,0.8482 1.39951,0.84819 v 0.17019 0.17018 l -2.71198,0.31181 -2.71198,0.3118 -4.63021,0.39902 -4.6302,0.39903 -8.59896,0.0919 -8.59896,0.0919 z m -0.0882,-7.95999 -0.17639,-0.17639 v 0.35278 0.35278 l 0.17639,-0.17639 0.17639,-0.17639 z m 15.96319,0.0441 v -0.13229 h -0.13229 -0.13229 v 0.13229 0.13229 h 0.13229 0.13229 z m -19.05,-0.26458 v -0.13229 h -0.13229 -0.13229 v 0.13229 0.13229 h 0.13229 0.13229 z m 14.82864,-0.80818 0.34135,-0.4113 -0.5642,-0.5642 -0.5642,-0.5642 -0.58398,0.51248 -0.58399,0.51248 0.19339,-0.33073 0.19339,-0.33073 h -0.2991 -0.2991 l 0.41821,-0.4182 0.4182,-0.41821 -0.15033,-0.24325 -0.15034,-0.24325 h -0.38957 -0.38956 l -0.15359,0.40024 -0.15359,0.40024 0.29875,0.35997 0.29875,0.35997 -0.16516,0.43042 -0.16517,0.43041 h 0.40957 0.40957 l 0.16352,-0.26459 0.16352,-0.26458 h 0.24897 0.24897 v 0.52917 0.52916 h 0.23218 0.23219 z m 1.76322,-0.81287 0.0993,-0.29813 -0.4523,-0.17356 -0.45231,-0.17357 -0.2502,0.2502 -0.2502,0.25021 0.18682,0.30228 0.18683,0.30229 0.41642,-0.0808 0.41643,-0.0808 z m -11.64134,-1.90692 -0.30954,-0.70537 -0.26997,-0.19438 -0.26997,-0.19439 -0.30242,-0.004 -0.30242,-0.004 -0.16169,0.42136 -0.16169,0.42136 0.54522,0.14258 0.54522,0.14258 -0.13239,0.34501 -0.13239,0.345 0.31586,0.11041 0.31587,0.11042 0.31492,-0.11556 0.31492,-0.11556 z m -0.4526,0.48526 v -0.35278 l 0.17639,0.17639 0.17639,0.17639 -0.17639,0.17639 -0.17639,0.17639 z m 1.93309,0.35889 -0.31587,-0.1285 0.0741,-0.31363 0.0741,-0.31364 -0.11152,0.20009 -0.11153,0.20009 -0.23895,-0.14769 -0.23896,-0.14768 0.15757,0.41062 0.15757,0.41062 0.43471,-0.0209 0.43472,-0.0209 z m 8.12107,-0.75577 -0.34799,-0.4193 -0.26458,0.26459 -0.26458,0.26458 0.34799,0.4193 0.34799,0.4193 0.26458,-0.26458 0.26458,-0.26458 z m 1.85209,0.70556 v -0.22049 h -0.38524 -0.38524 l 0.13627,0.22049 0.13627,0.22049 h 0.24897 0.24897 z m 4.23333,0.1165 v -0.10398 l -0.39687,-0.1523 -0.39688,-0.15229 v 0.25628 0.25628 h 0.39688 0.39687 z m -12.83317,-0.68699 0.16707,-0.52639 -0.39387,-0.56232 -0.39386,-0.56231 0.14064,-0.3665 0.14064,-0.3665 h -0.67194 -0.67193 l -0.15451,-0.48681 -0.1545,-0.4868 -0.63923,-0.3421 -0.63922,-0.34211 -0.4315,0.16558 -0.43149,0.16558 0.16467,0.26645 0.16468,0.26646 h 0.42151 0.42152 l 1.14658,0.85989 1.14658,0.8599 -0.15679,0.7607 -0.1568,0.76071 0.29288,-0.18101 0.29287,-0.18101 v 0.25815 0.25815 l -0.33072,0.13345 -0.33073,0.13346 0.44519,0.0209 0.44519,0.0209 z m -2.51266,-3.04548 v -0.13229 h 0.13229 0.13229 v 0.13229 0.13229 h -0.13229 -0.13229 z m -0.52917,-0.52917 v -0.13229 h 0.13229 0.13229 v 0.13229 0.13229 h -0.13229 -0.13229 z m 1.52687,2.56315 0.10473,-0.31419 h -0.41893 -0.41892 v 0.41892 0.41893 l 0.31419,-0.10473 0.3142,-0.10474 z m 2.64293,-0.65878 -0.0675,-1.13834 -0.57617,-0.0477 -0.57616,-0.0477 0.22632,0.78915 0.22633,0.78915 h -0.1644 -0.16439 l 0.51359,0.38846 0.51359,0.38846 0.0681,0.008 0.0681,0.008 z m -11.04897,0.74146 v -0.13229 h -0.13229 -0.13229 v 0.13229 0.1323 h 0.13229 0.13229 z m 12.19513,-0.34244 0.40649,-0.47474 0.17702,-0.46132 0.17703,-0.46132 -0.39579,-0.15188 -0.39578,-0.15187 -0.37532,0.31148 -0.37532,0.31149 0.0221,0.77645 0.0221,0.77645 h 0.16551 0.16552 z m -0.28888,-0.71589 v -0.13229 h 0.1323 0.13229 v 0.13229 0.13229 h -0.13229 -0.1323 z m 0.35278,-0.57326 0.17639,-0.17639 0.17639,0.17639 0.17639,0.17639 h -0.35278 -0.35278 z m 0.83785,1.23472 0.47889,-0.52917 h -0.13229 -0.13229 l -0.47889,0.52917 -0.47889,0.52917 h 0.13229 0.13229 z m 5.42396,0.13229 v -0.13229 h -0.13229 -0.1323 v 0.13229 0.13229 h 0.1323 0.13229 z m 0.94432,-0.16187 0.18181,-0.29417 -0.36463,-0.23095 -0.36463,-0.23095 0.37483,-0.004 0.37483,-0.004 -0.15063,-0.15062 -0.15062,-0.15063 -0.52397,0.32723 -0.52398,0.32722 0.29977,0.3425 0.29977,0.3425 0.18282,0.0101 0.18283,0.0101 z m -12.44975,-0.49319 -0.13697,-0.22163 0.59568,0.13364 0.59568,0.13365 -0.85667,-0.54935 -0.85668,-0.54934 -0.66468,-0.16682 -0.66468,-0.16683 v 0.26975 0.26974 l 0.81615,0.68675 0.81615,0.68675 0.2465,-0.15235 0.2465,-0.15234 z m 10.97626,0.39048 v -0.13229 h -0.13229 -0.13229 v 0.13229 0.13229 h 0.13229 0.13229 z m -14.90051,-0.71107 -0.13896,-0.34727 -0.0209,0.50712 -0.0209,0.50712 0.15985,-0.15985 0.15986,-0.15985 z m 1.22293,0.22081 0.13736,-0.35797 -0.54661,-0.46802 -0.54661,-0.46803 0.17297,0.45076 0.17297,0.45076 v 0.37523 0.37524 h 0.23628 0.23627 z m 13.14841,0.22567 v -0.13229 h -0.13229 -0.13229 v 0.13229 0.1323 h 0.13229 0.13229 z m -14.81666,-0.50085 v -0.10399 l -0.41062,-0.15757 -0.41062,-0.15757 0.16165,0.26156 0.16165,0.26155 h 0.24897 0.24897 z m -3.175,-0.26459 v -0.10398 l -0.41062,-0.15757 -0.41062,-0.15757 0.16165,0.26155 0.16165,0.26156 h 0.24897 0.24897 z m 16.80104,-0.42518 0.47889,-0.52917 h -0.32121 -0.3212 l 0.18878,-0.30546 0.18879,-0.30546 -0.3235,0.19993 -0.3235,0.19993 0.14202,0.37012 0.14203,0.37011 -0.58701,0.0314 -0.58701,0.0314 -0.35728,-0.049 -0.35728,-0.049 0.17446,0.28228 0.17446,0.28228 h 0.60483 0.60484 z m -15.47813,0.13229 v -0.13229 h -0.13229 -0.13229 v 0.13229 0.13229 h 0.13229 0.13229 z m 8.65811,-0.39166 0.0395,-0.52396 -0.2708,-0.16737 -0.2708,-0.16736 -0.28323,0.28323 -0.28324,0.28324 0.33869,0.40808 0.33868,0.40809 h 0.17588 0.17589 z m -6.80602,-0.005 v -0.26459 h -0.2802 -0.2802 l 0.16352,-0.26458 0.16352,-0.26458 h -0.28019 -0.2802 v 0.35277 0.35278 l 0.17639,0.17639 0.17639,0.17639 h 0.22048 0.22049 z m -3.175,-0.1323 v -0.13229 h -0.13229 -0.1323 v 0.13229 0.1323 h 0.1323 0.13229 z m 12.28148,-0.0283 0.41852,-0.1606 v -0.26631 -0.2663 l -0.77346,0.11352 -0.77346,0.11352 -0.15372,-0.81942 -0.15373,-0.81942 -0.53928,-0.46174 -0.53929,-0.46175 0.15697,-0.25397 0.15696,-0.25397 -0.5951,0.22014 -0.5951,0.22014 -0.10182,0.30546 -0.10182,0.30546 h 0.28663 0.28663 l 0.12091,-0.0661 0.1209,-0.0661 0.39985,0.52917 0.39985,0.52916 0.0125,-0.26458 0.0125,-0.26458 0.25648,0.39687 0.25648,0.39688 0.004,0.21405 0.004,0.21405 -0.2399,-0.14827 -0.23991,-0.14827 0.13477,0.51536 0.13477,0.51536 0.43586,0.11577 0.43587,0.11577 0.1768,0.0307 0.1768,0.0307 z m -0.63982,-0.23628 v -0.13229 h 0.1323 0.13229 v 0.13229 0.13229 h -0.13229 -0.1323 z m -2.55763,-2.68993 0.17638,-0.17639 0.17639,0.17639 0.17639,0.17639 h -0.35278 -0.35277 z m 6.79097,2.83698 v -0.24983 l -0.61813,-0.71861 -0.61812,-0.71861 -0.30792,0.1903 -0.30792,0.19031 v 0.26458 0.26458 l 0.26459,-0.16352 0.26458,-0.16352 v 0.29581 0.29582 l 0.2345,-0.14493 0.23451,-0.14494 0.1376,0.5262 0.1376,0.52619 h 0.28935 0.28936 z m -8.46667,-1.23623 v -0.10144 l -0.99219,0.004 -0.99218,0.004 0.34783,0.22057 0.34783,0.22057 0.64436,-0.12317 0.64435,-0.12318 z m 4.7625,0.29543 V -146.05 h -0.13229 -0.13229 v 0.13229 0.13229 h 0.13229 0.13229 z m 4.23333,-0.24897 v -0.38126 l -0.2463,-0.15222 -0.2463,-0.15222 -0.16619,0.2689 -0.16619,0.2689 0.16353,0.26458 0.16352,0.26458 h 0.24897 0.24896 z m 8.05127,0.14666 0.14499,-0.23461 -0.37041,-0.30741 -0.3704,-0.30741 -0.17146,0.27744 -0.17147,0.27743 0.34635,0.004 0.34634,0.004 -0.39687,0.25648 -0.39688,0.25648 0.44741,0.004 0.4474,0.004 z m -12.02002,-0.42686 v -0.13229 h -0.13229 -0.13229 v 0.13229 0.1323 h 0.13229 0.13229 z m 6.20546,-1.10369 0.16073,-0.64043 -0.156,-0.25242 -0.156,-0.25241 h -0.38781 -0.38781 l -0.24322,0.63973 -0.24323,0.63974 0.0392,0.5206 0.0392,0.5206 0.58708,-0.26749 0.58709,-0.26749 z m 6.95769,0.90526 -0.11012,-0.33073 -0.44017,-0.0854 -0.44017,-0.0854 0.15967,0.4161 0.15968,0.4161 h 0.39061 0.39062 z m -6.37217,-0.11025 -0.17639,-0.17639 -0.17639,0.17639 -0.17639,0.17639 h 0.35278 0.35278 z m -15.52223,-0.22048 v -0.13229 h -0.13229 -0.13229 v 0.13229 0.13229 h 0.13229 0.13229 z m 2.38125,0 v -0.13229 h -0.13229 -0.13229 v 0.13229 0.13229 h 0.13229 0.13229 z m 1.62125,-0.57249 0.36313,-0.44019 -0.52917,0.27215 -0.52916,0.27215 -0.39688,0.14715 -0.39687,0.14716 0.56291,0.0209 0.56292,0.0209 z m 7.48974,0.20334 0.14639,-0.23686 -0.39535,-0.15171 -0.39536,-0.15172 v 0.38858 0.38857 h 0.24897 0.24897 z m 1.68919,-0.77606 0.0845,-0.57458 h -0.27367 -0.27368 l -0.26458,0.49437 -0.26458,0.49438 0.17259,0.1726 0.17259,0.17259 0.28112,-0.0924 0.28112,-0.0924 z m -0.48143,-0.17771 v -0.13229 h 0.1323 0.13229 v 0.13229 0.13229 h -0.13229 -0.1323 z m 9.525,0.79375 v -0.13229 h -0.13229 -0.13229 v 0.13229 0.13229 h 0.13229 0.13229 z m -24.87083,-0.79375 v -0.13229 h -0.13229 -0.13229 v 0.13229 0.13229 h 0.13229 0.13229 z m 21.00712,-0.0882 0.13627,-0.22049 h -0.38524 -0.38523 v 0.22049 0.22048 h 0.24897 0.24896 z m -1.09861,-0.70556 -0.12645,-0.66146 -0.56447,0.0186 -0.56446,0.0186 0.5116,0.20034 0.5116,0.20035 -0.31748,0.19621 -0.31748,0.19622 0.15222,0.2463 0.15222,0.2463 h 0.34457 0.34457 z m 2.31649,0.13229 -0.38155,-0.23581 -0.13229,0.13229 -0.13229,0.1323 0.38155,0.23581 0.38155,0.23581 0.13229,-0.13229 0.13229,-0.1323 z m -15.875,0.13229 v -0.13229 h -0.13229 -0.13229 v 0.13229 0.1323 h 0.13229 0.13229 z m -0.52917,-0.26458 v -0.13229 h -0.13229 -0.13229 v 0.13229 0.13229 h 0.13229 0.13229 z m 15.08125,0.0156 v -0.11668 l -0.26458,-0.16352 -0.26458,-0.16352 v 0.28019 0.2802 h 0.26458 0.26458 z m -19.84375,-0.2802 v -0.13229 h -0.13229 -0.13229 v 0.13229 0.13229 h 0.13229 0.13229 z m 4.85863,-0.42689 0.40104,0.33283 0.74361,-0.0853 0.7436,-0.0853 -0.0684,-0.66145 -0.0684,-0.66146 -0.57054,-0.4746 -0.57053,-0.47459 -0.35327,0.13556 -0.35327,0.13556 v -0.30037 -0.30038 l -0.16999,0.16999 -0.17,0.17 0.34508,0.41579 0.34508,0.41579 0.21774,-0.34325 0.21774,-0.34325 0.004,0.58216 0.004,0.58217 0.46303,0.26968 0.46302,0.26969 -0.39688,0.004 -0.39687,0.004 -0.59234,-0.15876 -0.59234,-0.15875 0.14894,-0.30065 0.14894,-0.30065 -0.4165,0.51359 -0.4165,0.51359 0.004,0.28016 0.004,0.28016 0.24036,-0.37986 0.24037,-0.37987 z m 9.69346,-0.25019 v -0.24896 h -0.39688 -0.39687 v 0.22048 0.22049 l 0.16919,0.16919 0.1692,0.1692 0.22768,-0.14071 0.22768,-0.14072 z m -5.02709,0.14791 v -0.13229 h -0.13229 -0.13229 v 0.13229 0.13229 h 0.13229 0.13229 z m 2.11667,-0.52917 v -0.13229 h -0.13229 -0.13229 v 0.13229 0.1323 h 0.13229 0.13229 z m 12.61181,-0.0441 -0.17639,-0.17639 -0.17639,0.17639 -0.17639,0.17639 h 0.35278 0.35278 z m -16.31598,-0.91434 v -0.23219 h -0.52916 -0.52917 v 0.11065 0.11065 l 0.16319,0.42527 0.16319,0.42527 0.36598,-0.30373 0.36597,-0.30374 z m 4.7625,0.69385 v -0.13229 h -0.13229 -0.13229 v 0.13229 0.13229 h 0.13229 0.13229 z m -12.17083,-0.52917 v -0.13229 h -0.13229 -0.13229 v 0.13229 0.1323 h 0.13229 0.13229 z m 12.7,-0.13229 v -0.26458 h -0.26458 -0.26459 v 0.26458 0.26459 h 0.26459 0.26458 z m 2.42656,-0.1733 0.48386,-0.43788 v -0.25597 -0.25597 l -0.35508,0.29468 -0.35507,0.29469 -0.14049,-0.1405 -0.14049,-0.14049 -0.14112,0.53967 -0.14113,0.53966 h 0.15283 0.15284 z m -12.03975,-0.003 -0.17639,-0.17638 -0.17639,0.17638 -0.17639,0.17639 h 0.35278 0.35278 z m 10.14236,0.0441 v -0.13229 h -0.13229 -0.1323 v 0.13229 0.13229 h 0.1323 0.13229 z m -5.37986,-0.57326 -0.17639,-0.17639 v 0.35278 0.35277 l 0.17639,-0.17638 0.17639,-0.17639 z m 0.73835,0.19467 0.15222,-0.2463 -0.2248,-0.13894 -0.2248,-0.13893 v 0.38523 0.38524 h 0.0726 0.0726 z m 2.52484,0.11401 v -0.13229 h -0.13229 -0.13229 v 0.13229 0.13229 h 0.13229 0.13229 z m 0.52917,0 v -0.13229 h -0.13229 -0.1323 v 0.13229 0.13229 h 0.1323 0.13229 z m 2.64583,0 v -0.13229 h -0.13229 -0.13229 v 0.13229 0.13229 h 0.13229 0.13229 z m -10.76691,-0.56715 -0.31586,-0.1285 0.13546,-0.35302 0.13547,-0.35301 -0.3235,-0.19994 -0.3235,-0.19993 0.18878,0.30546 0.18879,0.30546 h -0.31259 -0.3126 l 0.32938,0.39688 0.32937,0.39687 0.29834,-0.0209 0.29833,-0.0209 z m 14.47582,-0.22367 0.32849,0.20302 -0.1224,-0.36756 -0.12239,-0.36756 -0.4411,-0.0855 -0.44109,-0.0856 0.004,0.61471 0.004,0.61471 0.23095,-0.36462 0.23095,-0.36463 z m -19.05474,-0.003 v -0.13229 h -0.13229 -0.1323 v 0.13229 0.13229 h 0.1323 0.13229 z m 16.93333,-0.26459 v -0.13229 h -0.13229 -0.13229 v 0.13229 0.1323 h 0.13229 0.13229 z m -10.05417,-0.52916 v -0.13229 h -0.13229 -0.13229 v 0.13229 0.13229 h 0.13229 0.13229 z m 7.9375,0 v -0.13229 h -0.13229 -0.13229 v 0.13229 0.13229 h 0.13229 0.13229 z m 5.51229,-0.0995 0.35292,-0.22372 -0.3932,-0.15088 -0.39319,-0.15088 -0.15816,0.15816 -0.15816,0.15816 v 0.22048 0.22049 l 0.19844,-0.004 0.19844,-0.004 z m -0.4852,-0.16507 v -0.13229 h 0.13229 0.13229 v 0.13229 0.1323 h -0.13229 -0.13229 z m -4.76781,-0.27097 -0.33468,-0.40327 -0.15307,0.15307 -0.15308,0.15307 0.38922,0.24615 0.38921,0.24614 0.0985,0.004 0.0985,0.004 z m -0.78844,0.006 v -0.13229 h -0.13229 -0.1323 v 0.13229 0.13229 h 0.1323 0.13229 z m -8.55486,-0.30868 -0.17639,-0.17639 -0.17639,0.17639 -0.17639,0.17639 h 0.35278 0.35278 z m 15.43402,0.0441 v -0.13229 h -0.13229 -0.13229 v 0.13229 0.13229 h 0.13229 0.13229 z m -8.73125,-0.26459 v -0.13229 h -0.13229 -0.13229 v 0.13229 0.1323 h 0.13229 0.13229 z m 1.32292,-0.26458 v -0.13229 h -0.13229 -0.13229 v 0.13229 0.13229 h 0.13229 0.13229 z m 0.52917,0 v -0.13229 h -0.13229 -0.1323 v 0.13229 0.13229 h 0.1323 0.13229 z m 1.81808,-0.27468 0.0994,-0.0994 -0.15667,-0.40829 -0.15667,-0.40828 h -0.25506 -0.25506 l -0.16917,0.53301 -0.16917,0.533 -0.24553,-0.15174 -0.24554,-0.15175 v 0.30888 0.30888 l 0.72706,-0.18248 0.72706,-0.18248 z m -0.49517,-0.38678 v -0.35277 l 0.17639,0.17638 0.17639,0.17639 -0.17639,0.17639 -0.17639,0.17639 z m -10.05017,0.26459 0.0121,0.39687 0.27086,-0.46511 0.27085,-0.46512 -0.16222,-0.26249 -0.16223,-0.26249 h -0.38126 -0.38126 l 0.004,0.72761 0.004,0.7276 0.25648,-0.39687 0.25648,-0.39688 z m 3.6104,-0.39215 -0.39215,-0.39215 -0.11103,-0.3331 -0.11103,-0.33309 -0.43939,0.4394 -0.4394,0.4394 0.72524,0.26495 0.72524,0.26496 0.21734,0.0209 0.21734,0.0209 z m -4.67273,-0.005 v -0.13229 h -0.13229 -0.13229 v 0.13229 0.13229 h 0.13229 0.13229 z m 2.91042,0 v -0.13229 h -0.13229 -0.13229 v 0.13229 0.13229 h 0.13229 0.13229 z m 3.51114,-0.69573 -0.29003,-0.29004 -0.33622,0.2078 -0.33622,0.2078 0.5116,0.18573 0.51161,0.18573 0.11465,-0.10349 0.11465,-0.10349 z m -8.00906,0.16656 v -0.13229 h -0.13229 -0.13229 v 0.13229 0.1323 h 0.13229 0.13229 z m 16.27188,-0.39687 0.16352,-0.26458 h -0.13229 -0.13229 l -0.16352,0.26458 -0.16353,0.26458 h 0.1323 0.13229 z m -13.89063,-0.13229 v -0.13229 h -0.13229 -0.13229 v 0.13229 0.13229 h 0.13229 0.13229 z m 6.471,-0.41516 -0.15223,-0.2463 h -0.39169 -0.39169 l 0.34116,0.3691 0.34116,0.36911 0.20276,-0.1228 0.20275,-0.12281 z m 8.78664,0.37106 -0.17639,-0.17639 -0.17638,0.17639 -0.17639,0.17639 h 0.35277 0.35278 z m -17.3258,-0.67469 -0.31309,-0.31309 v 0.27341 0.2734 l 0.17639,0.17639 0.17639,0.17639 0.1367,-0.1367 0.1367,-0.13671 z m 4.44941,0.4542 v -0.13229 h -0.13229 -0.13229 v 0.13229 0.1323 h 0.13229 0.13229 z m -6.17361,-0.57326 -0.17639,-0.17639 v 0.35278 0.35278 l 0.17639,-0.17639 0.17639,-0.17639 z m 11.72986,0.30868 v -0.13229 h -0.13229 -0.13229 v 0.13229 0.13229 h 0.13229 0.13229 z m 1.84804,-2.84427 -0.004,-0.33073 -0.25648,-0.39687 -0.25648,-0.39688 -0.004,0.72761 -0.004,0.7276 h 0.26458 0.26459 z m 0.97353,-0.84211 -0.15912,-0.41466 h -0.27289 -0.27289 v 0.48507 0.48507 l 0.1808,0.1808 0.1808,0.1808 0.25121,-0.25121 0.2512,-0.25121 z m -0.44032,0.2468 v -0.13229 h 0.1323 0.13229 v 0.13229 0.13229 h -0.13229 -0.1323 z m -1.41111,-0.0441 -0.17639,-0.17639 v 0.35278 0.35278 l 0.17639,-0.17639 0.17639,-0.17639 z m -5.82083,0 -0.17639,-0.17639 -0.17639,0.17639 -0.17639,0.17639 h 0.35278 0.35278 z m 1.67569,-0.0599 v -0.23627 l -0.39687,-0.1523 -0.39688,-0.15229 v 0.21218 0.21218 l 0.17639,0.17639 0.17639,0.17639 h 0.22049 0.22048 z m 6.87917,-0.16059 v -0.1323 h -0.13229 -0.13229 v 0.1323 0.13229 h 0.13229 0.13229 z m -13.49375,-0.52917 v -0.13229 h -0.13229 -0.13229 v 0.13229 0.13229 h 0.13229 0.13229 z m 5.02708,0 v -0.13229 h -0.13229 -0.13229 v 0.13229 0.13229 h 0.13229 0.13229 z m -1.96547,-1.19063 v -0.52916 h -0.20789 -0.20789 v 0.35277 0.35278 l 0.17639,0.17639 0.17639,0.17639 h 0.0315 0.0315 z m 2.32249,-0.14076 -0.14905,-0.3884 h -0.22066 -0.22066 l -0.1818,0.29416 -0.18181,0.29417 0.352,0.21754 0.35199,0.21754 0.19952,-0.1233 0.19951,-0.12331 z m -0.35702,0.27306 v -0.1323 h 0.1323 0.13229 v 0.1323 0.13229 h -0.13229 -0.1323 z m -3.03182,-0.37928 -0.17441,-0.28218 h -0.2594 -0.2594 l 0.34117,0.37019 0.34116,0.37019 0.0926,-0.088 0.0926,-0.088 z m 5.67766,0.37928 v -0.1323 h -0.13229 -0.1323 v 0.1323 0.13229 h 0.1323 0.13229 z m 2.82657,-2.29857 -0.13896,-0.34727 -0.0209,0.50712 -0.0209,0.50712 0.15985,-0.15985 0.15986,-0.15986 z m -5.47241,0.1819 v -0.13229 h -0.13229 -0.13229 v 0.13229 0.13229 h 0.13229 0.13229 z m -2.38125,-0.52917 V -165.1 h -0.13229 -0.13229 v 0.13229 0.13229 h 0.13229 0.13229 z m 3.3143,-0.61036 -0.14812,-0.14811 -0.32631,0.32877 -0.32632,0.32876 0.47443,-0.18065 0.47443,-0.18066 z m 4.27043,0.0371 -0.17639,-0.17639 v 0.35278 0.35277 l 0.17639,-0.17638 0.17639,-0.17639 z m 3.175,0 -0.17639,-0.17639 -0.17639,0.17639 -0.17639,0.17639 h 0.35278 0.35278 z m -10.05417,-0.52917 -0.17639,-0.17639 v 0.35278 0.35278 l 0.17639,-0.17639 0.17639,-0.17639 z m 5.02708,-0.52917 -0.17639,-0.17638 -0.17638,0.17638 -0.17639,0.17639 h 0.35277 0.35278 z m 0.79375,0 -0.17639,-0.17638 -0.17638,0.17638 -0.17639,0.17639 h 0.35277 0.35278 z m 1.28261,-0.33312 -0.0981,-0.50951 -0.44628,-0.68111 -0.44628,-0.68112 -0.69717,0.0264 -0.69718,0.0264 0.66146,0.17833 0.66146,0.17833 0.48481,0.98592 0.48481,0.98592 h 0.0953 0.0953 z m -5.32679,-0.43027 0.15757,-0.41062 -0.26156,0.16165 -0.26155,0.16165 v 0.24897 0.24897 h 0.10399 0.10398 z m 6.16085,-0.0304 -0.17639,-0.17638 v 0.35277 0.35278 l 0.17639,-0.17639 0.17639,-0.17639 z m -8.90764,-0.22048 v -0.13229 h -0.13229 -0.13229 v 0.13229 0.13229 h 0.13229 0.13229 z m 9.525,0 v -0.13229 h -0.13229 -0.13229 v 0.13229 0.13229 h 0.13229 0.13229 z m -0.44097,-0.67937 0.57326,-0.0179 -0.5807,-0.28059 -0.5807,-0.28059 -0.44129,0.16933 -0.44128,0.16934 0.35086,0.42276 0.35085,0.42275 0.0979,-0.29359 0.0979,-0.2936 z m -8.0257,-0.64355 v -0.13229 h -0.13229 -0.13229 v 0.13229 0.13229 h 0.13229 0.13229 z m 3.175,-0.26458 v -0.0757 l -0.39687,-0.15229 -0.39688,-0.1523 v 0.38027 0.38027 l 0.39688,-0.1523 0.39687,-0.15229 z m 5.82084,0.26458 v -0.13229 h -0.13229 -0.1323 v 0.13229 0.13229 h 0.1323 0.13229 z m -2.20486,-0.83784 -0.17639,-0.17639 v 0.35277 0.35278 l 0.17639,-0.17639 0.17639,-0.17639 z m -5.8043,0.0165 -0.15985,-0.15985 -0.34727,0.13896 -0.34726,0.13897 0.50711,0.0209 0.50712,0.0209 z m 6.59805,-0.0165 -0.17639,-0.17639 -0.17639,0.17639 -0.17639,0.17638 h 0.35278 0.35278 z m 1.2897,-0.33518 -0.17441,-0.28219 h -0.2594 -0.2594 l 0.34116,0.37019 0.34117,0.37019 0.0926,-0.088 0.0926,-0.088 z m -5.64651,-0.59969 -0.3175,-0.3175 -0.32852,0.32852 -0.32851,0.32852 0.39245,0.24255 0.39245,0.24255 0.25356,-0.25357 0.25357,-0.25357 z m -0.58208,0.18521 v -0.13229 h 0.13229 0.13229 v 0.13229 0.13229 h -0.13229 -0.13229 z m 4.10804,-0.34577 -0.14811,-0.14812 -0.32632,0.32877 -0.32632,0.32876 0.47443,-0.18065 0.47443,-0.18065 z m -2.87926,-0.43448 -0.0382,-0.64796 -0.20711,0.20684 -0.20711,0.20684 0.16927,0.44112 0.16928,0.44112 h 0.076 0.076 z m 4.59205,0.54398 v -0.10399 l -0.41062,-0.15757 -0.41061,-0.15756 0.16165,0.26155 0.16164,0.26155 h 0.24897 0.24897 z m -5.82083,-2.14498 v -0.13229 h -0.13229 -0.1323 v 0.13229 0.13229 h 0.1323 0.13229 z m 5.20347,-0.0441 -0.17639,-0.17639 -0.17639,0.17639 -0.17639,0.17638 h 0.35278 0.35278 z m -1.49931,-0.48507 v -0.1323 h -0.13229 -0.13229 v 0.1323 0.13229 h 0.13229 0.13229 z m -2.77812,-0.39688 0.16352,-0.26458 h -0.2802 -0.2802 v 0.26458 0.26458 h 0.11668 0.11668 z m -0.66146,-0.13229 v -0.13229 h -0.13229 -0.13229 v 0.13229 0.13229 h 0.13229 0.13229 z m 0.79375,-1.05833 v -0.1323 h -0.13229 -0.13229 v 0.1323 0.13229 h 0.13229 0.13229 z m 0.52917,0 v -0.1323 h -0.13229 -0.1323 v 0.1323 0.13229 h 0.1323 0.13229 z m 0.70555,-1.89618 -0.17639,-0.17639 -0.17638,0.17639 -0.17639,0.17638 h 0.35277 0.35278 z m 3.52778,-1.01424 v -0.13229 h -0.13229 -0.13229 v 0.13229 0.13229 h 0.13229 0.13229 z m -2.11667,-1.07395 v -0.41249 l -0.2689,0.16619 -0.26889,0.16619 0.15222,0.2463 0.15222,0.2463 h 0.11668 0.11667 z m -2.20486,-0.55765 -0.17639,-0.17639 v 0.35278 0.35278 l 0.17639,-0.17639 0.17639,-0.17639 z m 0.61736,0.30868 v -0.13229 h -0.13229 -0.13229 v 0.13229 0.13229 h 0.13229 0.13229 z"
       id="path5609" />
    <path
       style="fill:#728e2e;stroke-width:1.14408"
       d="m -348.72082,-182.16672 v -0.1323 h 0.1323 0.13229 v 0.1323 0.13229 h -0.13229 -0.1323 z"
       id="path6069" />
    <path
       style="fill:#728e2e;stroke-width:1.14408"
       d="m -352.26438,-180.86545 -0.1606,-0.41851 v -0.11065 -0.11066 h 0.20828 0.20828 l 0.0399,0.52917 0.0399,0.52917 h -0.0875 -0.0875 z"
       id="path6068" />
    <path
       style="fill:#728e2e;stroke-width:1.14408"
       d="m -351.89582,-178.72714 v -0.13229 h 0.1323 0.13229 v 0.13229 0.13229 h -0.13229 -0.1323 z"
       id="path6067" />
    <path
       style="fill:#728e2e;stroke-width:1.14408"
       d="m -351.63123,-178.19797 v -0.1323 h 0.13229 0.13229 v 0.1323 0.13229 h -0.13229 -0.13229 z"
       id="path6066" />
    <path
       style="fill:#728e2e;stroke-width:1.14408"
       d="m -354.9494,-173.84995 -0.1744,-0.28219 0.1261,-0.1261 0.1261,-0.1261 0.15667,0.40829 0.15667,0.40828 h -0.10837 -0.10837 z"
       id="path6064" />
    <path
       style="fill:#728e2e;stroke-width:1.14408"
       d="m -358.93254,-165.40658 -0.18879,-0.30547 0.30547,0.18879 0.30546,0.18879 v 0.11667 0.11668 h -0.11668 -0.11667 z"
       id="path6053" />
    <path
       style="fill:#728e2e;stroke-width:1.14408"
       d="m -359.19712,-162.76075 -0.18879,-0.30546 0.30546,0.18878 0.30547,0.18879 v 0.11668 0.11667 h -0.11668 -0.11668 z"
       id="path6050" />
    <path
       style="fill:#728e2e;stroke-width:1.14408"
       d="m -364.99269,-145.25737 -0.52917,-0.22739 0.59532,-0.0186 0.59531,-0.0186 v 0.26458 0.26458 l -0.0661,-0.0186 -0.0661,-0.0186 z"
       id="path6039" />
    <path
       style="fill:#728e2e;stroke-width:1.14408"
       d="m -357.18748,-130.06447 -1.45521,-0.0973 -4.63021,-0.27813 -4.63021,-0.27813 -2.51354,-0.27167 -2.51354,-0.27166 -0.8599,-0.27108 -0.85989,-0.27107 v -0.22046 -0.22046 l 1.19,-0.57607 1.19,-0.57607 2.7126,-0.50298 2.71261,-0.50298 2.0712,-0.38453 2.0712,-0.38453 0.38872,-0.32261 0.38872,-0.3226 -0.33632,-0.20786 -0.33632,-0.20786 0.58838,-0.6263 0.58837,-0.6263 v -0.31468 -0.31469 l -0.84421,0.0672 -0.84421,0.0671 -0.3354,-0.65695 -0.33539,-0.65695 -0.41406,-0.30277 -0.41405,-0.30276 0.53533,-0.14 0.53533,-0.13999 v -0.28004 -0.28005 l -0.52917,-0.2832 -0.52917,-0.2832 v -0.38756 -0.38757 h 0.36602 0.36602 l 0.1332,-0.50937 0.1332,-0.50937 -0.38271,0.14686 -0.38271,0.14686 -0.14737,-0.56353 -0.14736,-0.56353 -0.29987,-0.004 -0.29987,-0.004 0.39687,-0.25648 0.39688,-0.25648 -0.34635,-0.004 -0.34634,-0.004 0.1744,-0.28219 0.1744,-0.28218 0.1476,0.1476 0.1476,0.14759 0.34951,-0.29007 0.34951,-0.29007 -0.27035,-0.50516 -0.27035,-0.50516 0.30898,0.0699 0.30899,0.0699 0.13354,-0.36756 0.13355,-0.36756 -0.36506,0.20794 -0.36505,0.20793 0.31952,-0.3451 0.31951,-0.3451 0.37455,0.31085 0.37456,0.31085 0.43041,-0.16516 0.43041,-0.16517 v -0.60375 -0.60375 l -0.43741,0.0367 -0.4374,0.0367 -0.038,-1.50371 -0.0379,-1.50371 0.24936,0.15411 0.24937,0.15412 -0.18228,-0.72623 -0.18227,-0.72623 0.29532,-0.35584 0.29532,-0.35584 0.37601,0.14429 0.37602,0.14429 -0.16271,0.26325 -0.1627,0.26326 0.5611,-0.30029 0.56109,-0.30029 v 0.27389 0.27389 h 0.2826 0.2826 l -0.49883,-0.7276 -0.49884,-0.72761 0.0183,-0.66145 0.0183,-0.66146 -0.19809,-0.61043 -0.1981,-0.61044 0.24623,0.15218 0.24622,0.15217 -0.0173,-0.86466 -0.0173,-0.86466 -0.24487,-0.30991 -0.24487,-0.30991 0.51893,0.1357 0.51893,0.1357 -0.0163,-0.35495 -0.0163,-0.35496 0.0417,-0.61314 0.0417,-0.61314 0.46302,0.13755 0.46302,0.13756 0.69161,0.16451 0.6916,0.1645 0.13386,-0.51187 0.13386,-0.51188 -0.62703,-0.47087 -0.62703,-0.47088 v -0.22752 -0.22753 h 0.37052 0.37052 l -0.0551,-0.79543 -0.0551,-0.79544 0.4783,0.15181 0.4783,0.15181 v -0.28242 -0.28241 h -0.26962 -0.26962 l 0.17314,-0.68986 0.17314,-0.68985 -0.36654,-0.26115 -0.36654,-0.26114 0.45455,0.14569 0.45455,0.1457 0.15638,-0.25303 0.15638,-0.25303 -0.34635,-0.0313 -0.34634,-0.0313 -0.1713,0.0223 -0.1713,0.0223 0.14809,-0.58626 0.14809,-0.58627 0.28175,-0.18505 0.28175,-0.18506 0.47069,0.42597 0.47068,0.42596 0.17477,-0.17476 0.17477,-0.17477 h -0.32863 -0.32862 l 0.077,-0.73361 0.0769,-0.73361 -0.37387,-0.90261 -0.37387,-0.90261 0.31851,-0.10617 0.31851,-0.10617 -0.15356,-0.30813 -0.15356,-0.30813 0.37952,0.46302 0.37952,0.46302 h 0.30723 0.30723 l 0.2937,-0.64459 0.29369,-0.64458 -0.21037,-0.47989 -0.21037,-0.4799 -0.0269,-0.13229 -0.0269,-0.13229 -0.22632,-0.35713 -0.22631,-0.35712 0.5437,0.29098 0.5437,0.29098 h 0.14969 0.14968 v -0.54478 -0.54479 l 0.33073,0.1987 0.33073,0.1987 -0.37061,-0.45669 -0.37061,-0.45668 0.30899,-0.58629 0.30899,-0.5863 -0.25707,-0.88229 -0.25706,-0.8823 0.42872,0.35313 0.42872,0.35313 -0.17715,-0.71139 -0.17715,-0.71139 0.25227,-0.15592 0.25228,-0.15591 0.29886,0.55842 0.29886,0.55843 0.33762,-0.46172 0.33761,-0.46171 0.41804,0.16042 0.41804,0.16042 0.10866,-0.31587 0.10866,-0.31586 -0.22385,-0.79201 -0.22386,-0.792 v -0.62537 -0.62536 l 0.36154,0.13873 0.36155,0.13874 0.31141,-1.03941 0.31142,-1.03941 -0.23458,-0.41916 -0.23457,-0.41916 0.12374,-0.6473 0.12374,-0.64729 0.29047,0.0968 0.29047,0.0968 0.17936,0.64185 0.17937,0.64184 0.0264,1.01002 0.0264,1.01001 0.56694,-0.17993 0.56694,-0.17994 -0.13894,1.23266 -0.13894,1.23267 0.36575,0.36575 0.36575,0.36575 v 0.25518 0.25517 l -0.39687,0.1523 -0.39688,0.15229 v 0.24812 0.24812 l 0.52917,-0.13838 0.52917,-0.13838 0.004,-0.56446 0.004,-0.56445 0.22746,0.35898 0.22746,0.35897 0.19844,-0.32108 0.19843,-0.32107 0.23104,0.35897 0.23105,0.35898 -0.15279,0.72734 -0.15279,0.72735 0.41784,-0.16034 0.41784,-0.16034 v -0.23628 -0.23627 h 0.26458 0.26459 v 0.94165 0.94166 l 0.26645,-0.16468 0.26645,-0.16467 0.14688,0.38276 0.14688,0.38276 -0.3934,0.94152 -0.39339,0.94152 0.30804,0.10268 0.30803,0.10268 -0.0836,0.9698 -0.0836,0.96979 0.39814,0.39814 0.39814,0.39814 h 0.29003 0.29003 l 0.27364,0.71974 0.27365,0.71974 -0.34634,0.27244 -0.34634,0.27245 -0.0367,0.46302 -0.0367,0.46302 0.30133,0.0314 0.30134,0.0314 0.3265,-0.042 0.3265,-0.042 -0.16828,0.47365 -0.16828,0.47365 -0.40333,0.46927 -0.40332,0.46927 0.30775,0.30774 0.30774,0.30775 0.61844,-0.581 0.61845,-0.581 0.17881,0.17881 0.17881,0.17881 v 0.63475 0.63476 l -0.26364,0.4926 -0.26363,0.49261 0.15046,0.39209 0.15046,0.39209 0.82325,-0.23611 0.82326,-0.2361 0.12776,0.12776 0.12777,0.12777 h -0.34108 -0.34107 l 0.26392,0.33073 0.26392,0.33073 -0.0493,0.52917 -0.0493,0.52916 -0.31449,0.57792 -0.31448,0.57792 v 0.31028 0.31029 l 0.41061,-0.15757 0.41062,-0.15757 -0.18628,0.3277 -0.18627,0.3277 -0.39764,0.46302 -0.39764,0.46302 0.37174,0.0313 0.37173,0.0313 0.23225,-0.0426 0.23224,-0.0426 -0.1661,0.54044 -0.1661,0.54043 -0.17094,0.55896 -0.17094,0.55895 1.13713,-0.19212 1.13713,-0.19211 -0.57246,0.92625 -0.57245,0.92625 0.16374,0.4267 0.16374,0.42671 h 0.50086 0.50086 v 0.1 0.1 l -0.39287,0.94026 -0.39286,0.94026 -0.26859,0.166 -0.2686,0.166 v 0.2838 0.28381 l 1.01444,-0.13607 1.01444,-0.13606 0.44077,0.24666 0.44077,0.24667 v 0.64831 0.64831 h 0.25804 0.25803 l -0.26391,0.69414 -0.26391,0.69414 0.38637,0.29805 0.38637,0.29805 -0.14497,0.71829 -0.14498,0.71829 -0.76469,0.33849 -0.76468,0.33848 v 0.21376 0.21376 l 0.79375,0.2767 0.79375,0.2767 v 0.35538 0.35538 l -0.27291,0.16866 -0.27291,0.16867 0.86822,0.58364 0.86822,0.58365 0.0782,0.53804 0.0782,0.53805 -0.95002,0.5112 -0.95002,0.51119 0.15405,0.61457 0.15406,0.61457 -0.77055,0.29085 -0.77055,0.29085 v 0.57928 0.57928 l 1.13531,0.55158 1.13532,0.55158 2.96276,0.55913 2.96276,0.55914 1.35896,0.53354 1.35895,0.53355 1.12401,0.7075 1.124,0.7075 4.8e-4,0.16216 4.7e-4,0.16216 -2.71198,0.30289 -2.71198,0.30289 -4.7625,0.39486 -4.7625,0.39487 -8.20208,0.1039 -8.20208,0.1039 z m -0.61736,-7.95983 -0.17639,-0.17639 v 0.35278 0.35278 l 0.17639,-0.17639 0.17639,-0.17639 z m 15.96319,0.0441 v -0.13229 h -0.13229 -0.13229 v 0.13229 0.13229 h 0.13229 0.13229 z m -19.05,-0.26458 v -0.13229 h -0.13229 -0.13229 v 0.13229 0.13229 h 0.13229 0.13229 z m 14.82864,-0.80818 0.34135,-0.4113 -0.5642,-0.5642 -0.5642,-0.5642 -0.58398,0.51248 -0.58399,0.51248 0.19339,-0.33073 0.19339,-0.33073 h -0.2991 -0.2991 l 0.41821,-0.4182 0.4182,-0.41821 -0.15033,-0.24325 -0.15034,-0.24325 h -0.38957 -0.38956 l -0.15359,0.40024 -0.15359,0.40024 0.29875,0.35997 0.29875,0.35997 -0.16516,0.43042 -0.16517,0.43041 h 0.40957 0.40957 l 0.16352,-0.26459 0.16352,-0.26458 h 0.24897 0.24897 v 0.52917 0.52916 h 0.23218 0.23219 z m 1.76322,-0.81287 0.0993,-0.29813 -0.4523,-0.17356 -0.45231,-0.17357 -0.2502,0.2502 -0.2502,0.25021 0.18682,0.30228 0.18683,0.30229 0.41642,-0.0808 0.41643,-0.0808 z m -11.64134,-1.90692 -0.30954,-0.70537 -0.26997,-0.19438 -0.26997,-0.19439 -0.30242,-0.004 -0.30242,-0.004 -0.16169,0.42136 -0.16169,0.42136 0.54522,0.14258 0.54522,0.14258 -0.13239,0.34501 -0.13239,0.345 0.31586,0.11041 0.31587,0.11042 0.31492,-0.11556 0.31492,-0.11556 z m -0.4526,0.48526 v -0.35278 l 0.17639,0.17639 0.17639,0.17639 -0.17639,0.17639 -0.17639,0.17639 z m 1.93309,0.35889 -0.31587,-0.1285 0.0741,-0.31363 0.0741,-0.31364 -0.11152,0.20009 -0.11153,0.20009 -0.23895,-0.14769 -0.23896,-0.14768 0.15757,0.41062 0.15757,0.41062 0.43471,-0.0209 0.43472,-0.0209 z m 8.12107,-0.75577 -0.34799,-0.4193 -0.26458,0.26459 -0.26458,0.26458 0.34799,0.4193 0.34799,0.4193 0.26458,-0.26458 0.26458,-0.26458 z m 1.85209,0.70556 v -0.22049 h -0.38524 -0.38524 l 0.13627,0.22049 0.13627,0.22049 h 0.24897 0.24897 z m 4.23333,0.1165 v -0.10398 l -0.39687,-0.1523 -0.39688,-0.15229 v 0.25628 0.25628 h 0.39688 0.39687 z m -12.83317,-0.68699 0.16707,-0.52639 -0.39387,-0.56232 -0.39386,-0.56231 0.14064,-0.3665 0.14064,-0.3665 h -0.67194 -0.67193 l -0.15451,-0.48681 -0.1545,-0.4868 -0.63923,-0.3421 -0.63922,-0.34211 -0.4315,0.16558 -0.43149,0.16558 0.16467,0.26645 0.16468,0.26646 h 0.42151 0.42152 l 1.14658,0.85989 1.14658,0.8599 -0.15679,0.7607 -0.1568,0.76071 0.29288,-0.18101 0.29287,-0.18101 v 0.25815 0.25815 l -0.33072,0.13345 -0.33073,0.13346 0.44519,0.0209 0.44519,0.0209 z m -2.51266,-3.04548 v -0.13229 h 0.13229 0.13229 v 0.13229 0.13229 h -0.13229 -0.13229 z m -0.52917,-0.52917 v -0.13229 h 0.13229 0.13229 v 0.13229 0.13229 h -0.13229 -0.13229 z m 1.52687,2.56315 0.10473,-0.31419 h -0.41893 -0.41892 v 0.41892 0.41893 l 0.31419,-0.10473 0.3142,-0.10474 z m 2.64293,-0.65878 -0.0675,-1.13834 -0.57617,-0.0477 -0.57616,-0.0477 0.22632,0.78915 0.22633,0.78915 h -0.1644 -0.16439 l 0.51359,0.38846 0.51359,0.38846 0.0681,0.008 0.0681,0.008 z m -11.04897,0.74146 v -0.13229 h -0.13229 -0.13229 v 0.13229 0.1323 h 0.13229 0.13229 z m 12.19513,-0.34244 0.40649,-0.47474 0.17702,-0.46132 0.17703,-0.46132 -0.39579,-0.15188 -0.39578,-0.15187 -0.37532,0.31148 -0.37532,0.31149 0.0221,0.77645 0.0221,0.77645 h 0.16551 0.16552 z m -0.28888,-0.71589 v -0.13229 h 0.1323 0.13229 v 0.13229 0.13229 h -0.13229 -0.1323 z m 0.35278,-0.57326 0.17639,-0.17639 0.17639,0.17639 0.17639,0.17639 h -0.35278 -0.35278 z m 0.83785,1.23472 0.47889,-0.52917 h -0.13229 -0.13229 l -0.47889,0.52917 -0.47889,0.52917 h 0.13229 0.13229 z m 5.42396,0.13229 v -0.13229 h -0.13229 -0.1323 v 0.13229 0.13229 h 0.1323 0.13229 z m 0.94432,-0.16187 0.18181,-0.29417 -0.36463,-0.23095 -0.36463,-0.23095 0.37483,-0.004 0.37483,-0.004 -0.15063,-0.15062 -0.15062,-0.15063 -0.52397,0.32723 -0.52398,0.32722 0.29977,0.3425 0.29977,0.3425 0.18282,0.0101 0.18283,0.0101 z m -12.44975,-0.49319 -0.13697,-0.22163 0.59568,0.13364 0.59568,0.13365 -0.85667,-0.54935 -0.85668,-0.54934 -0.66468,-0.16682 -0.66468,-0.16683 v 0.26975 0.26974 l 0.81615,0.68675 0.81615,0.68675 0.2465,-0.15235 0.2465,-0.15234 z m 10.97626,0.39048 v -0.13229 h -0.13229 -0.13229 v 0.13229 0.13229 h 0.13229 0.13229 z m -14.90051,-0.71107 -0.13896,-0.34727 -0.0209,0.50712 -0.0209,0.50712 0.15985,-0.15985 0.15986,-0.15985 z m 1.22293,0.22081 0.13736,-0.35797 -0.54661,-0.46802 -0.54661,-0.46803 0.17297,0.45076 0.17297,0.45076 v 0.37523 0.37524 h 0.23628 0.23627 z m 13.14841,0.22567 v -0.13229 h -0.13229 -0.13229 v 0.13229 0.1323 h 0.13229 0.13229 z m -14.81666,-0.50085 v -0.10399 l -0.41062,-0.15757 -0.41062,-0.15757 0.16165,0.26156 0.16165,0.26155 h 0.24897 0.24897 z m -3.175,-0.26459 v -0.10398 l -0.41062,-0.15757 -0.41062,-0.15757 0.16165,0.26155 0.16165,0.26156 h 0.24897 0.24897 z m 16.80104,-0.42518 0.47889,-0.52917 h -0.32121 -0.3212 l 0.18878,-0.30546 0.18879,-0.30546 -0.3235,0.19993 -0.3235,0.19993 0.14202,0.37012 0.14203,0.37011 -0.58701,0.0314 -0.58701,0.0314 -0.35728,-0.049 -0.35728,-0.049 0.17446,0.28228 0.17446,0.28228 h 0.60483 0.60484 z m -15.47813,0.13229 v -0.13229 h -0.13229 -0.13229 v 0.13229 0.13229 h 0.13229 0.13229 z m 8.65811,-0.39166 0.0395,-0.52396 -0.2708,-0.16737 -0.2708,-0.16736 -0.28323,0.28323 -0.28324,0.28324 0.33869,0.40808 0.33868,0.40809 h 0.17588 0.17589 z m -6.80602,-0.005 v -0.26459 h -0.2802 -0.2802 l 0.16352,-0.26458 0.16352,-0.26458 h -0.28019 -0.2802 v 0.35277 0.35278 l 0.17639,0.17639 0.17639,0.17639 h 0.22048 0.22049 z m -3.175,-0.1323 v -0.13229 h -0.13229 -0.1323 v 0.13229 0.1323 h 0.1323 0.13229 z m 12.28148,-0.0283 0.41852,-0.1606 v -0.26631 -0.2663 l -0.77346,0.11352 -0.77346,0.11352 -0.15372,-0.81942 -0.15373,-0.81942 -0.53928,-0.46174 -0.53929,-0.46175 0.15697,-0.25397 0.15696,-0.25397 -0.5951,0.22014 -0.5951,0.22014 -0.10182,0.30546 -0.10182,0.30546 h 0.28663 0.28663 l 0.12091,-0.0661 0.1209,-0.0661 0.39985,0.52917 0.39985,0.52916 0.0125,-0.26458 0.0125,-0.26458 0.25648,0.39687 0.25648,0.39688 0.004,0.21405 0.004,0.21405 -0.2399,-0.14827 -0.23991,-0.14827 0.13477,0.51536 0.13477,0.51536 0.43586,0.11577 0.43587,0.11577 0.1768,0.0307 0.1768,0.0307 z m -0.63982,-0.23628 v -0.13229 h 0.1323 0.13229 v 0.13229 0.13229 h -0.13229 -0.1323 z m -2.55763,-2.68993 0.17638,-0.17639 0.17639,0.17639 0.17639,0.17639 h -0.35278 -0.35277 z m 6.79097,2.83698 v -0.24983 l -0.61813,-0.71861 -0.61812,-0.71861 -0.30792,0.1903 -0.30792,0.19031 v 0.26458 0.26458 l 0.26459,-0.16352 0.26458,-0.16352 v 0.29581 0.29582 l 0.2345,-0.14493 0.23451,-0.14494 0.1376,0.5262 0.1376,0.52619 h 0.28935 0.28936 z m -8.46667,-1.23623 v -0.10144 l -0.99219,0.004 -0.99218,0.004 0.34783,0.22057 0.34783,0.22057 0.64436,-0.12317 0.64435,-0.12318 z m 4.7625,0.29543 V -146.05 h -0.13229 -0.13229 v 0.13229 0.13229 h 0.13229 0.13229 z m 4.23333,-0.24897 v -0.38126 l -0.2463,-0.15222 -0.2463,-0.15222 -0.16619,0.2689 -0.16619,0.2689 0.16353,0.26458 0.16352,0.26458 h 0.24897 0.24896 z m 8.05127,0.14666 0.14499,-0.23461 -0.37041,-0.30741 -0.3704,-0.30741 -0.17146,0.27744 -0.17147,0.27743 0.34635,0.004 0.34634,0.004 -0.39687,0.25648 -0.39688,0.25648 0.44741,0.004 0.4474,0.004 z m -12.02002,-0.42686 v -0.13229 h -0.13229 -0.13229 v 0.13229 0.1323 h 0.13229 0.13229 z m 6.20546,-1.10369 0.16073,-0.64043 -0.156,-0.25242 -0.156,-0.25241 h -0.38781 -0.38781 l -0.24322,0.63973 -0.24323,0.63974 0.0392,0.5206 0.0392,0.5206 0.58708,-0.26749 0.58709,-0.26749 z m 6.95769,0.90526 -0.11012,-0.33073 -0.44017,-0.0854 -0.44017,-0.0854 0.15967,0.4161 0.15968,0.4161 h 0.39061 0.39062 z m -6.37217,-0.11025 -0.17639,-0.17639 -0.17639,0.17639 -0.17639,0.17639 h 0.35278 0.35278 z m -15.52223,-0.22048 v -0.13229 h -0.13229 -0.13229 v 0.13229 0.13229 h 0.13229 0.13229 z m 2.38125,0 v -0.13229 h -0.13229 -0.13229 v 0.13229 0.13229 h 0.13229 0.13229 z m 1.62125,-0.57249 0.36313,-0.44019 -0.52917,0.27215 -0.52916,0.27215 -0.39688,0.14715 -0.39687,0.14716 0.56291,0.0209 0.56292,0.0209 z m 7.48974,0.20334 0.14639,-0.23686 -0.39535,-0.15171 -0.39536,-0.15172 v 0.38858 0.38857 h 0.24897 0.24897 z m 1.68919,-0.77606 0.0845,-0.57458 h -0.27367 -0.27368 l -0.26458,0.49437 -0.26458,0.49438 0.17259,0.1726 0.17259,0.17259 0.28112,-0.0924 0.28112,-0.0924 z m -0.48143,-0.17771 v -0.13229 h 0.1323 0.13229 v 0.13229 0.13229 h -0.13229 -0.1323 z m 9.525,0.79375 v -0.13229 h -0.13229 -0.13229 v 0.13229 0.13229 h 0.13229 0.13229 z m -24.87083,-0.79375 v -0.13229 h -0.13229 -0.13229 v 0.13229 0.13229 h 0.13229 0.13229 z m 21.00712,-0.0882 0.13627,-0.22049 h -0.38524 -0.38523 v 0.22049 0.22048 h 0.24897 0.24896 z m -1.09861,-0.70556 -0.12645,-0.66146 -0.56447,0.0186 -0.56446,0.0186 0.5116,0.20034 0.5116,0.20035 -0.31748,0.19621 -0.31748,0.19622 0.15222,0.2463 0.15222,0.2463 h 0.34457 0.34457 z m 2.31649,0.13229 -0.38155,-0.23581 -0.13229,0.13229 -0.13229,0.1323 0.38155,0.23581 0.38155,0.23581 0.13229,-0.13229 0.13229,-0.1323 z m -15.875,0.13229 v -0.13229 h -0.13229 -0.13229 v 0.13229 0.1323 h 0.13229 0.13229 z m -0.52917,-0.26458 v -0.13229 h -0.13229 -0.13229 v 0.13229 0.13229 h 0.13229 0.13229 z m 15.08125,0.0156 v -0.11668 l -0.26458,-0.16352 -0.26458,-0.16352 v 0.28019 0.2802 h 0.26458 0.26458 z m -19.84375,-0.2802 v -0.13229 h -0.13229 -0.13229 v 0.13229 0.13229 h 0.13229 0.13229 z m 4.85863,-0.42689 0.40104,0.33283 0.74361,-0.0853 0.7436,-0.0853 -0.0684,-0.66145 -0.0684,-0.66146 -0.57054,-0.4746 -0.57053,-0.47459 -0.35327,0.13556 -0.35327,0.13556 v -0.30037 -0.30038 l -0.16999,0.16999 -0.17,0.17 0.34508,0.41579 0.34508,0.41579 0.21774,-0.34325 0.21774,-0.34325 0.004,0.58216 0.004,0.58217 0.46303,0.26968 0.46302,0.26969 -0.39688,0.004 -0.39687,0.004 -0.59234,-0.15876 -0.59234,-0.15875 0.14894,-0.30065 0.14894,-0.30065 -0.4165,0.51359 -0.4165,0.51359 0.004,0.28016 0.004,0.28016 0.24036,-0.37986 0.24037,-0.37987 z m 9.69346,-0.25019 v -0.24896 h -0.39688 -0.39687 v 0.22048 0.22049 l 0.16919,0.16919 0.1692,0.1692 0.22768,-0.14071 0.22768,-0.14072 z m -5.02709,0.14791 v -0.13229 h -0.13229 -0.13229 v 0.13229 0.13229 h 0.13229 0.13229 z m 2.11667,-0.52917 v -0.13229 h -0.13229 -0.13229 v 0.13229 0.1323 h 0.13229 0.13229 z m 12.61181,-0.0441 -0.17639,-0.17639 -0.17639,0.17639 -0.17639,0.17639 h 0.35278 0.35278 z m -16.31598,-0.91434 v -0.23219 h -0.52916 -0.52917 v 0.11065 0.11065 l 0.16319,0.42527 0.16319,0.42527 0.36598,-0.30373 0.36597,-0.30374 z m 4.7625,0.69385 v -0.13229 h -0.13229 -0.13229 v 0.13229 0.13229 h 0.13229 0.13229 z m -12.17083,-0.52917 v -0.13229 h -0.13229 -0.13229 v 0.13229 0.1323 h 0.13229 0.13229 z m 12.7,-0.13229 v -0.26458 h -0.26458 -0.26459 v 0.26458 0.26459 h 0.26459 0.26458 z m 2.42656,-0.1733 0.48386,-0.43788 v -0.25597 -0.25597 l -0.35508,0.29468 -0.35507,0.29469 -0.14049,-0.1405 -0.14049,-0.14049 -0.14112,0.53967 -0.14113,0.53966 h 0.15283 0.15284 z m -12.03975,-0.003 -0.17639,-0.17638 -0.17639,0.17638 -0.17639,0.17639 h 0.35278 0.35278 z m 10.14236,0.0441 v -0.13229 h -0.13229 -0.1323 v 0.13229 0.13229 h 0.1323 0.13229 z m -5.37986,-0.57326 -0.17639,-0.17639 v 0.35278 0.35277 l 0.17639,-0.17638 0.17639,-0.17639 z m 0.73835,0.19467 0.15222,-0.2463 -0.2248,-0.13894 -0.2248,-0.13893 v 0.38523 0.38524 h 0.0726 0.0726 z m 2.52484,0.11401 v -0.13229 h -0.13229 -0.13229 v 0.13229 0.13229 h 0.13229 0.13229 z m 0.52917,0 v -0.13229 h -0.13229 -0.1323 v 0.13229 0.13229 h 0.1323 0.13229 z m 2.64583,0 v -0.13229 h -0.13229 -0.13229 v 0.13229 0.13229 h 0.13229 0.13229 z m -10.76691,-0.56715 -0.31586,-0.1285 0.13546,-0.35302 0.13547,-0.35301 -0.3235,-0.19994 -0.3235,-0.19993 0.18878,0.30546 0.18879,0.30546 h -0.31259 -0.3126 l 0.32938,0.39688 0.32937,0.39687 0.29834,-0.0209 0.29833,-0.0209 z m 14.47582,-0.22367 0.32849,0.20302 -0.1224,-0.36756 -0.12239,-0.36756 -0.4411,-0.0855 -0.44109,-0.0856 0.004,0.61471 0.004,0.61471 0.23095,-0.36462 0.23095,-0.36463 z m -19.05474,-0.003 v -0.13229 h -0.13229 -0.1323 v 0.13229 0.13229 h 0.1323 0.13229 z m 16.93333,-0.26459 v -0.13229 h -0.13229 -0.13229 v 0.13229 0.1323 h 0.13229 0.13229 z m -10.05417,-0.52916 v -0.13229 h -0.13229 -0.13229 v 0.13229 0.13229 h 0.13229 0.13229 z m 7.9375,0 v -0.13229 h -0.13229 -0.13229 v 0.13229 0.13229 h 0.13229 0.13229 z m 5.51229,-0.0995 0.35292,-0.22372 -0.3932,-0.15088 -0.39319,-0.15088 -0.15816,0.15816 -0.15816,0.15816 v 0.22048 0.22049 l 0.19844,-0.004 0.19844,-0.004 z m -0.4852,-0.16507 v -0.13229 h 0.13229 0.13229 v 0.13229 0.1323 h -0.13229 -0.13229 z m -4.76781,-0.27097 -0.33468,-0.40327 -0.15307,0.15307 -0.15308,0.15307 0.38922,0.24615 0.38921,0.24614 0.0985,0.004 0.0985,0.004 z m -0.78844,0.006 v -0.13229 h -0.13229 -0.1323 v 0.13229 0.13229 h 0.1323 0.13229 z m -8.55486,-0.30868 -0.17639,-0.17639 -0.17639,0.17639 -0.17639,0.17639 h 0.35278 0.35278 z m 15.43402,0.0441 v -0.13229 h -0.13229 -0.13229 v 0.13229 0.13229 h 0.13229 0.13229 z m -8.73125,-0.26459 v -0.13229 h -0.13229 -0.13229 v 0.13229 0.1323 h 0.13229 0.13229 z m 1.32292,-0.26458 v -0.13229 h -0.13229 -0.13229 v 0.13229 0.13229 h 0.13229 0.13229 z m 0.52917,0 v -0.13229 h -0.13229 -0.1323 v 0.13229 0.13229 h 0.1323 0.13229 z m 1.81808,-0.27468 0.0994,-0.0994 -0.15667,-0.40829 -0.15667,-0.40828 h -0.25506 -0.25506 l -0.16917,0.53301 -0.16917,0.533 -0.24553,-0.15174 -0.24554,-0.15175 v 0.30888 0.30888 l 0.72706,-0.18248 0.72706,-0.18248 z m -0.49517,-0.38678 v -0.35277 l 0.17639,0.17638 0.17639,0.17639 -0.17639,0.17639 -0.17639,0.17639 z m -10.05017,0.26459 0.0121,0.39687 0.27086,-0.46511 0.27085,-0.46512 -0.16222,-0.26249 -0.16223,-0.26249 h -0.38126 -0.38126 l 0.004,0.72761 0.004,0.7276 0.25648,-0.39687 0.25648,-0.39688 z m 3.6104,-0.39215 -0.39215,-0.39215 -0.11103,-0.3331 -0.11103,-0.33309 -0.43939,0.4394 -0.4394,0.4394 0.72524,0.26495 0.72524,0.26496 0.21734,0.0209 0.21734,0.0209 z m -4.67273,-0.005 v -0.13229 h -0.13229 -0.13229 v 0.13229 0.13229 h 0.13229 0.13229 z m 2.91042,0 v -0.13229 h -0.13229 -0.13229 v 0.13229 0.13229 h 0.13229 0.13229 z m 3.51114,-0.69573 -0.29003,-0.29004 -0.33622,0.2078 -0.33622,0.2078 0.5116,0.18573 0.51161,0.18573 0.11465,-0.10349 0.11465,-0.10349 z m -8.00906,0.16656 v -0.13229 h -0.13229 -0.13229 v 0.13229 0.1323 h 0.13229 0.13229 z m 16.27188,-0.39687 0.16352,-0.26458 h -0.13229 -0.13229 l -0.16352,0.26458 -0.16353,0.26458 h 0.1323 0.13229 z m -13.89063,-0.13229 v -0.13229 h -0.13229 -0.13229 v 0.13229 0.13229 h 0.13229 0.13229 z m 6.471,-0.41516 -0.15223,-0.2463 h -0.39169 -0.39169 l 0.34116,0.3691 0.34116,0.36911 0.20276,-0.1228 0.20275,-0.12281 z m 8.78664,0.37106 -0.17639,-0.17639 -0.17638,0.17639 -0.17639,0.17639 h 0.35277 0.35278 z m -17.3258,-0.67469 -0.31309,-0.31309 v 0.27341 0.2734 l 0.17639,0.17639 0.17639,0.17639 0.1367,-0.1367 0.1367,-0.13671 z m 4.44941,0.4542 v -0.13229 h -0.13229 -0.13229 v 0.13229 0.1323 h 0.13229 0.13229 z m -6.17361,-0.57326 -0.17639,-0.17639 v 0.35278 0.35278 l 0.17639,-0.17639 0.17639,-0.17639 z m 11.72986,0.30868 v -0.13229 h -0.13229 -0.13229 v 0.13229 0.13229 h 0.13229 0.13229 z m 1.84804,-2.84427 -0.004,-0.33073 -0.25648,-0.39687 -0.25648,-0.39688 -0.004,0.72761 -0.004,0.7276 h 0.26458 0.26459 z m 0.97353,-0.84211 -0.15912,-0.41466 h -0.27289 -0.27289 v 0.48507 0.48507 l 0.1808,0.1808 0.1808,0.1808 0.25121,-0.25121 0.2512,-0.25121 z m -0.44032,0.2468 v -0.13229 h 0.1323 0.13229 v 0.13229 0.13229 h -0.13229 -0.1323 z m -1.41111,-0.0441 -0.17639,-0.17639 v 0.35278 0.35278 l 0.17639,-0.17639 0.17639,-0.17639 z m -5.82083,0 -0.17639,-0.17639 -0.17639,0.17639 -0.17639,0.17639 h 0.35278 0.35278 z m 1.67569,-0.0599 v -0.23627 l -0.39687,-0.1523 -0.39688,-0.15229 v 0.21218 0.21218 l 0.17639,0.17639 0.17639,0.17639 h 0.22049 0.22048 z m 6.87917,-0.16059 v -0.1323 h -0.13229 -0.13229 v 0.1323 0.13229 h 0.13229 0.13229 z m -13.49375,-0.52917 v -0.13229 h -0.13229 -0.13229 v 0.13229 0.13229 h 0.13229 0.13229 z m 5.02708,0 v -0.13229 h -0.13229 -0.13229 v 0.13229 0.13229 h 0.13229 0.13229 z m -1.96547,-1.19063 v -0.52916 h -0.20789 -0.20789 v 0.35277 0.35278 l 0.17639,0.17639 0.17639,0.17639 h 0.0315 0.0315 z m 2.32249,-0.14076 -0.14905,-0.3884 h -0.22066 -0.22066 l -0.1818,0.29416 -0.18181,0.29417 0.352,0.21754 0.35199,0.21754 0.19952,-0.1233 0.19951,-0.12331 z m -0.35702,0.27306 v -0.1323 h 0.1323 0.13229 v 0.1323 0.13229 h -0.13229 -0.1323 z m -3.03182,-0.37928 -0.17441,-0.28218 h -0.2594 -0.2594 l 0.34117,0.37019 0.34116,0.37019 0.0926,-0.088 0.0926,-0.088 z m 5.67766,0.37928 v -0.1323 h -0.13229 -0.1323 v 0.1323 0.13229 h 0.1323 0.13229 z m 2.82657,-2.29857 -0.13896,-0.34727 -0.0209,0.50712 -0.0209,0.50712 0.15985,-0.15985 0.15986,-0.15986 z m -5.47241,0.1819 v -0.13229 h -0.13229 -0.13229 v 0.13229 0.13229 h 0.13229 0.13229 z m -2.38125,-0.52917 V -165.1 h -0.13229 -0.13229 v 0.13229 0.13229 h 0.13229 0.13229 z m 3.3143,-0.61036 -0.14812,-0.14811 -0.32631,0.32877 -0.32632,0.32876 0.47443,-0.18065 0.47443,-0.18066 z m 4.27043,0.0371 -0.17639,-0.17639 v 0.35278 0.35277 l 0.17639,-0.17638 0.17639,-0.17639 z m 3.175,0 -0.17639,-0.17639 -0.17639,0.17639 -0.17639,0.17639 h 0.35278 0.35278 z m -10.05417,-0.52917 -0.17639,-0.17639 v 0.35278 0.35278 l 0.17639,-0.17639 0.17639,-0.17639 z m 5.02708,-0.52917 -0.17639,-0.17638 -0.17638,0.17638 -0.17639,0.17639 h 0.35277 0.35278 z m 0.79375,0 -0.17639,-0.17638 -0.17638,0.17638 -0.17639,0.17639 h 0.35277 0.35278 z m 1.28261,-0.33312 -0.0981,-0.50951 -0.44628,-0.68111 -0.44628,-0.68112 -0.69717,0.0264 -0.69718,0.0264 0.66146,0.17833 0.66146,0.17833 0.48481,0.98592 0.48481,0.98592 h 0.0953 0.0953 z m -5.32679,-0.43027 0.15757,-0.41062 -0.26156,0.16165 -0.26155,0.16165 v 0.24897 0.24897 h 0.10399 0.10398 z m 6.16085,-0.0304 -0.17639,-0.17638 v 0.35277 0.35278 l 0.17639,-0.17639 0.17639,-0.17639 z m -8.90764,-0.22048 v -0.13229 h -0.13229 -0.13229 v 0.13229 0.13229 h 0.13229 0.13229 z m 9.525,0 v -0.13229 h -0.13229 -0.13229 v 0.13229 0.13229 h 0.13229 0.13229 z m -0.44097,-0.67937 0.57326,-0.0179 -0.5807,-0.28059 -0.5807,-0.28059 -0.44129,0.16933 -0.44128,0.16934 0.35086,0.42276 0.35085,0.42275 0.0979,-0.29359 0.0979,-0.2936 z m -8.0257,-0.64355 v -0.13229 h -0.13229 -0.13229 v 0.13229 0.13229 h 0.13229 0.13229 z m 3.175,-0.26458 v -0.0757 l -0.39687,-0.15229 -0.39688,-0.1523 v 0.38027 0.38027 l 0.39688,-0.1523 0.39687,-0.15229 z m 5.82084,0.26458 v -0.13229 h -0.13229 -0.1323 v 0.13229 0.13229 h 0.1323 0.13229 z m -2.20486,-0.83784 -0.17639,-0.17639 v 0.35277 0.35278 l 0.17639,-0.17639 0.17639,-0.17639 z m -5.8043,0.0165 -0.15985,-0.15985 -0.34727,0.13896 -0.34726,0.13897 0.50711,0.0209 0.50712,0.0209 z m 6.59805,-0.0165 -0.17639,-0.17639 -0.17639,0.17639 -0.17639,0.17638 h 0.35278 0.35278 z m 1.2897,-0.33518 -0.17441,-0.28219 h -0.2594 -0.2594 l 0.34116,0.37019 0.34117,0.37019 0.0926,-0.088 0.0926,-0.088 z m -5.64651,-0.59969 -0.3175,-0.3175 -0.32852,0.32852 -0.32851,0.32852 0.39245,0.24255 0.39245,0.24255 0.25356,-0.25357 0.25357,-0.25357 z m -0.58208,0.18521 v -0.13229 h 0.13229 0.13229 v 0.13229 0.13229 h -0.13229 -0.13229 z m 4.10804,-0.34577 -0.14811,-0.14812 -0.32632,0.32877 -0.32632,0.32876 0.47443,-0.18065 0.47443,-0.18065 z m -2.87926,-0.43448 -0.0382,-0.64796 -0.20711,0.20684 -0.20711,0.20684 0.16927,0.44112 0.16928,0.44112 h 0.076 0.076 z m 4.59205,0.54398 v -0.10399 l -0.41062,-0.15757 -0.41061,-0.15756 0.16165,0.26155 0.16164,0.26155 h 0.24897 0.24897 z m -5.82083,-2.14498 v -0.13229 h -0.13229 -0.1323 v 0.13229 0.13229 h 0.1323 0.13229 z m 5.20347,-0.0441 -0.17639,-0.17639 -0.17639,0.17639 -0.17639,0.17638 h 0.35278 0.35278 z m -1.49931,-0.48507 v -0.1323 h -0.13229 -0.13229 v 0.1323 0.13229 h 0.13229 0.13229 z m -2.77812,-0.39688 0.16352,-0.26458 h -0.2802 -0.2802 v 0.26458 0.26458 h 0.11668 0.11668 z m -0.66146,-0.13229 v -0.13229 h -0.13229 -0.13229 v 0.13229 0.13229 h 0.13229 0.13229 z m 0.79375,-1.05833 v -0.1323 h -0.13229 -0.13229 v 0.1323 0.13229 h 0.13229 0.13229 z m 0.52917,0 v -0.1323 h -0.13229 -0.1323 v 0.1323 0.13229 h 0.1323 0.13229 z m 0.70555,-1.89618 -0.17639,-0.17639 -0.17638,0.17639 -0.17639,0.17638 h 0.35277 0.35278 z m 3.52778,-1.01424 v -0.13229 h -0.13229 -0.13229 v 0.13229 0.13229 h 0.13229 0.13229 z m -2.11667,-1.07395 v -0.41249 l -0.2689,0.16619 -0.26889,0.16619 0.15222,0.2463 0.15222,0.2463 h 0.11668 0.11667 z m -2.20486,-0.55765 -0.17639,-0.17639 v 0.35278 0.35278 l 0.17639,-0.17639 0.17639,-0.17639 z m 0.61736,0.30868 v -0.13229 h -0.13229 -0.13229 v 0.13229 0.13229 h 0.13229 0.13229 z"
       id="path6034" />
    <path
       style="fill:#546e26;stroke-width:1.14408"
       d="m -350.71611,-179.93436 -0.1744,-0.28218 0.14118,-0.14119 0.14118,-0.14118 0.28219,0.1744 0.28219,0.1744 v 0.24897 0.24897 h -0.24897 -0.24897 z"
       id="path7358" />
    <path
       style="fill:#546e26;stroke-width:1.14408"
       d="m -349.85315,-179.74082 -0.15263,-0.94061 0.24453,-0.74214 0.24453,-0.74214 -0.095,0.72991 -0.095,0.72992 0.39503,-0.32785 0.39504,-0.32785 -0.19707,0.92085 -0.19706,0.92085 -0.19488,0.35983 -0.19488,0.35983 z"
       id="path7354" />
    <path
       style="fill:#546e26;stroke-width:1.14408"
       d="m -353.05772,-174.31386 -0.16968,-0.27454 0.2865,-0.17707 0.2865,-0.17707 0.1003,0.1003 0.10031,0.1003 -0.21713,0.35132 -0.21712,0.35131 z"
       id="path7329" />
    <path
       style="fill:#546e26;stroke-width:1.14408"
       d="m -345.01669,-172.64055 v -0.1323 h 0.13229 0.13229 v 0.1323 0.13229 h -0.13229 -0.13229 z"
       id="path7321" />
    <path
       style="fill:#546e26;stroke-width:1.14408"
       d="m -349.7583,-172.92719 0.0209,-0.50711 0.13896,0.34726 0.13897,0.34727 -0.15986,0.15985 -0.15985,0.15985 z"
       id="path7320" />
    <path
       style="fill:#546e26;stroke-width:1.14408"
       d="m -347.07347,-172.1394 0.0185,-0.82177 -0.14576,-0.23657 -0.14576,-0.23656 0.90033,-0.0316 0.90033,-0.0316 v 0.17385 0.17385 l -0.77304,0.91605 -0.77304,0.91604 z"
       id="path7317" />
    <path
       style="fill:#546e26;stroke-width:1.14408"
       d="m -354.27711,-171.05305 v -0.1323 h 0.1323 0.13229 v 0.1323 0.13229 h -0.13229 -0.1323 z"
       id="path7313" />
    <path
       style="fill:#546e26;stroke-width:1.14408"
       d="m -355.07086,-169.46555 v -0.1323 h 0.1323 0.13229 v 0.1323 0.13229 h -0.13229 -0.1323 z"
       id="path7309" />
    <path
       style="fill:#546e26;stroke-width:1.14408"
       d="m -356.65836,-167.34889 v -0.13229 h 0.1323 0.13229 v 0.13229 0.13229 h -0.13229 -0.1323 z"
       id="path7303" />
    <path
       style="fill:#546e26;stroke-width:1.14408"
       d="m -346.3345,-165.82757 0.005,-0.72761 0.36811,-1.32291 0.36812,-1.32292 0.0237,0.31321 0.0237,0.31321 0.69415,-0.12588 0.69414,-0.12587 -0.56185,0.95227 -0.56185,0.95226 v 0.26508 0.26507 l 0.33073,-0.18882 0.33073,-0.18883 -0.77711,0.83467 -0.77711,0.83467 h -0.0828 -0.0828 z"
       id="path7292" />
    <path
       style="fill:#546e26;stroke-width:1.14408"
       d="m -348.72086,-164.83539 v -0.35277 l 0.17639,0.17638 0.17639,0.17639 -0.17639,0.17639 -0.17639,0.17639 z"
       id="path7288" />
    <path
       style="fill:#546e26;stroke-width:1.14408"
       d="m -351.91937,-162.97344 -0.0235,-0.14215 0.0432,-1.25754 0.0432,-1.25753 -0.4154,-0.1594 -0.41539,-0.1594 0.13577,-0.77067 0.13577,-0.77068 -0.62518,-0.23769 -0.62518,-0.23769 -0.0249,-0.87381 -0.0248,-0.87381 -0.4635,-0.33891 -0.46349,-0.33892 h 0.22818 0.22817 l 0.48385,0.43789 0.48386,0.43788 0.0313,-0.37174 0.0313,-0.37173 0.16883,0.79375 0.16884,0.79375 0.59361,0.0845 0.59361,0.0846 v -0.42358 -0.42358 l 0.39687,-0.1523 0.39688,-0.15229 v -0.44794 -0.44795 l 0.3175,-0.3175 0.3175,-0.3175 h 0.36285 0.36286 l 0.41643,-0.41642 0.41642,-0.41643 0.20707,0.33505 0.20708,0.33505 -0.41902,0.3064 -0.41902,0.30639 0.14873,0.56873 0.14872,0.56873 h -0.23151 -0.2315 l 0.13112,0.34172 0.13113,0.34171 -0.73474,-0.011 -0.73475,-0.011 0.0586,0.99534 0.0586,0.99533 -0.65391,-0.16412 -0.65391,-0.16412 v 0.28151 0.28152 l 0.66146,0.97471 0.66145,0.97472 v 1.02561 1.02562 l -0.79375,-0.0605 -0.79375,-0.0605 z"
       id="path7279" />
    <path
       style="fill:#546e26;stroke-width:1.14408"
       d="m -354.80231,-162.71131 -0.28716,-0.53658 h -0.36552 -0.36552 l -0.12262,0.33073 -0.12261,0.33073 -0.45099,-0.42872 -0.451,-0.42871 0.65483,-0.16435 0.65483,-0.16436 -0.0127,-0.33297 -0.0127,-0.33297 0.0428,-0.52917 0.0428,-0.52916 0.79149,1.19062 0.79148,1.19063 0.001,0.31511 10e-4,0.31511 -0.25131,0.15532 -0.25131,0.15532 z"
       id="path7276" />
    <path
       style="fill:#546e26;stroke-width:1.14408"
       d="m -339.98961,-159.41145 v -0.13229 h 0.1323 0.13229 v 0.13229 0.1323 h -0.13229 -0.1323 z"
       id="path7265" />
    <path
       style="fill:#546e26;stroke-width:1.14408"
       d="m -347.66252,-158.3531 v -0.1323 h 0.13229 0.13229 v 0.1323 0.13229 h -0.13229 -0.13229 z"
       id="path7256" />
    <path
       style="fill:#546e26;stroke-width:1.14408"
       d="m -350.65829,-157.49856 -0.31152,-0.20382 0.66145,-0.5544 0.66146,-0.55441 0.52917,-0.3937 0.52917,-0.3937 -0.33073,-0.1269 -0.33073,-0.1269 v -0.78023 -0.78023 l -0.54417,-0.2013 -0.54417,-0.2013 0.54417,-0.6918 0.54417,-0.6918 v -0.2566 -0.2566 l 0.36841,-0.30576 0.36842,-0.30575 0.53593,0.73572 0.53594,0.73573 0.51575,-0.59466 0.51574,-0.59466 h 0.1674 0.16741 v 0.53747 0.53747 l 0.43821,0.16816 0.43821,0.16816 0.74869,-0.83792 0.74868,-0.83792 h 0.13602 0.13602 v 0.75807 0.75807 l 0.55147,0.76328 0.55146,0.76329 -0.81605,-0.91605 -0.81605,-0.91605 -0.0313,0.38688 -0.0313,0.38689 0.0421,0.23089 0.0421,0.2309 -0.36554,-0.14027 -0.36554,-0.14027 -0.2632,0.17395 -0.26321,0.17396 -0.30007,0.52917 -0.30007,0.52917 -0.008,-0.33073 -0.008,-0.33073 h -0.37483 -0.37482 l -0.15434,0.33073 -0.15434,0.33073 -0.15434,-0.33073 -0.15434,-0.33073 h -0.36979 -0.36978 l -0.16193,0.7276 -0.16192,0.72761 -0.12553,0.46302 -0.12553,0.46302 h 0.26699 0.267 l -0.0503,0.88926 -0.0503,0.88926 -1.14412,-0.0294 -1.14412,-0.0294 z"
       id="path7247" />
    <path
       style="fill:#546e26;stroke-width:1.14408"
       d="m -349.51461,-157.03017 v -0.13229 h 0.1323 0.13229 v 0.13229 0.13229 h -0.13229 -0.1323 z"
       id="path7245" />
    <path
       style="fill:#546e26;stroke-width:1.14408"
       d="m -359.30419,-156.63328 v -0.35278 l 0.17639,0.17639 0.17639,0.17639 -0.17639,0.17639 -0.17639,0.17638 z"
       id="path7241" />
    <path
       style="fill:#546e26;stroke-width:1.14408"
       d="m -352.93342,-156.00548 -0.54681,-0.69515 -0.42196,0.35019 -0.42196,0.3502 0.0897,-0.45362 0.0897,-0.45361 -0.66146,-0.33664 -0.66146,-0.33665 v -0.8925 -0.89251 l -0.33073,-0.11099 -0.33073,-0.111 v -0.41346 -0.41346 l 0.69286,0.74761 0.69287,0.74761 0.31821,-0.59458 0.31822,-0.59459 0.27877,0.34863 0.27877,0.34863 0.42464,0.83651 0.42465,0.83651 0.5046,-0.13195 0.50461,-0.13196 0.20257,0.32777 0.20257,0.32777 -0.50344,0.36815 -0.50344,0.36815 0.0851,0.65004 0.0851,0.65005 h -0.13202 -0.13203 z"
       id="path7231" />
    <path
       style="fill:#546e26;stroke-width:1.14408"
       d="m -345.63498,-154.99808 0.12591,-0.4815 -0.4439,-0.36841 -0.4439,-0.3684 -0.36096,0.49364 -0.36096,0.49365 -0.16788,-0.43749 -0.16788,-0.43749 0.13077,-0.34079 0.13077,-0.34078 1.02075,-0.0687 1.02075,-0.0687 0.73568,-0.70483 0.73568,-0.70482 -0.14548,-0.37912 -0.14548,-0.37911 0.44426,-0.4909 0.44426,-0.49092 h 0.23919 0.23919 l -0.15347,0.24833 -0.15347,0.24833 0.45131,0.25255 0.45131,0.25257 0.44358,-0.27702 0.44359,-0.27702 0.62475,0.43759 0.62475,0.43759 h -0.32774 -0.32773 l -0.44032,0.92336 -0.44032,0.92337 -0.45404,0.14411 -0.45405,0.1441 -0.22583,-0.0653 -0.22584,-0.0653 -0.59531,0.3301 -0.59532,0.3301 v 0.38077 0.38078 l -0.78061,0.40367 -0.78061,0.40367 h -0.12066 -0.12066 z"
       id="path7226" />
    <path
       style="fill:#546e26;stroke-width:1.14408"
       d="m -345.28127,-154.1197 v -0.13229 h 0.13229 0.13229 v 0.13229 0.13229 h -0.13229 -0.13229 z"
       id="path7223" />
    <path
       style="fill:#546e26;stroke-width:1.14408"
       d="m -338.66669,-153.32595 v -0.13229 h 0.13229 0.13229 v 0.13229 0.13229 h -0.13229 -0.13229 z"
       id="path7217" />
    <path
       style="fill:#546e26;stroke-width:1.14408"
       d="m -346.60419,-153.06137 v -0.13229 h 0.13229 0.13229 v 0.13229 0.13229 h -0.13229 -0.13229 z"
       id="path7215" />
    <path
       style="fill:#546e26;stroke-width:1.14408"
       d="m -359.25127,-152.98199 -0.3175,-0.3175 v -0.28032 -0.28031 l 0.54345,-0.33939 0.54345,-0.33939 -0.1644,-0.51801 -0.16441,-0.518 0.34856,0.009 0.34856,0.009 0.59531,0.49663 0.59531,0.49663 v 0.27049 0.27049 l 0.59531,0.18578 0.59532,0.18578 0.19438,0.29507 0.19439,0.29507 0.004,0.23945 0.004,0.23944 -0.53542,-0.48455 -0.53542,-0.48454 -0.30763,0.30763 -0.30764,0.30763 -0.46319,-0.41918 -0.46319,-0.41918 -0.28125,0.17382 -0.28126,0.17383 v 0.38126 0.38126 h -0.21167 -0.21166 z"
       id="path7213" />
    <path
       style="fill:#546e26;stroke-width:1.14408"
       d="M -342.37086,-152.26765 V -152.4 h 0.1323 0.13229 v 0.13229 0.13229 h -0.13229 -0.1323 z"
       id="path7209" />
    <path
       style="fill:#546e26;stroke-width:1.14408"
       d="m -353.74794,-152.00307 v -0.13229 h 0.13229 0.13229 v 0.13229 0.1323 h -0.13229 -0.13229 z"
       id="path7205" />
    <path
       style="fill:#546e26;stroke-width:1.14408"
       d="m -341.41362,-151.92338 -0.56036,-0.47765 0.41427,0.14241 0.41427,0.14241 0.73215,-0.37984 0.73215,-0.37984 0.44108,0.0854 0.44108,0.0854 0.30583,0.0202 0.30584,0.0203 -0.28191,0.59532 -0.2819,0.59531 -1.05107,0.0141 -1.05106,0.0141 z"
       id="path7202" />
    <path
       style="fill:#546e26;stroke-width:1.14408"
       d="m -351.00857,-151.72925 -0.55319,-0.38747 -0.16705,0.16703 -0.16705,0.16705 v -0.29085 -0.29085 l -0.52916,-0.16795 -0.52917,-0.16795 v -0.22086 -0.22087 l 0.79211,-0.27614 0.79212,-0.27613 0.27732,0.51819 0.27733,0.51819 0.82886,-0.0632 0.82885,-0.0631 0.11352,0.34055 0.11352,0.34056 0.50173,-0.45405 0.50172,-0.45406 v 0.57017 0.57018 h -0.64831 -0.64831 l -0.24647,-0.44042 -0.24646,-0.44041 -0.36936,0.70493 -0.36935,0.70494 z"
       id="path7201" />
    <path
       style="fill:#546e26;stroke-width:1.14408"
       d="m -351.10207,-150.94478 v -0.13229 h 0.1323 0.13229 v 0.13229 0.13229 h -0.13229 -0.1323 z"
       id="path7200" />
    <path
       style="fill:#546e26;stroke-width:1.14408"
       d="m -350.22012,-149.4014 0.17639,-0.17639 0.17639,0.17639 0.17639,0.17639 h -0.35278 -0.35278 z"
       id="path7191" />
    <path
       style="fill:#546e26;stroke-width:1.14408"
       d="m -351.89582,-149.3573 v -0.13229 h 0.1323 0.13229 v 0.13229 0.13229 h -0.13229 -0.1323 z"
       id="path7190" />
    <path
       style="fill:#546e26;stroke-width:1.14408"
       d="m -353.07514,-148.67751 -0.15222,-0.2463 0.26889,-0.16619 0.2689,-0.16619 v 0.41249 0.41249 h -0.11667 -0.11668 z"
       id="path7185" />
    <path
       style="fill:#546e26;stroke-width:1.14408"
       d="m -360.14564,-147.96154 -0.0845,-0.5887 -0.59375,-0.29481 -0.59374,-0.29482 0.17482,-0.17482 0.17482,-0.17482 h 0.47576 0.47576 l 0.2832,-0.52917 0.28321,-0.52917 0.18912,0.01 0.18913,0.01 0.92604,1.20393 0.92605,1.20393 0.50547,0.19667 0.50548,0.19666 -0.44606,0.17117 -0.44605,0.17117 -0.57016,-0.65574 -0.57015,-0.65573 h -0.58544 -0.58544 l -0.16145,0.42075 -0.16146,0.42075 0.14876,0.24071 0.14877,0.2407 h -0.2618 -0.26179 z"
       id="path7179" />
    <path
       style="fill:#546e26;stroke-width:1.14408"
       d="m -358.33401,-146.75548 -0.17639,-0.17639 v -0.48506 -0.48507 l 0.19844,1.8e-4 0.19844,1.9e-4 0.0381,0.66127 0.0382,0.66127 h -0.0602 -0.0602 z"
       id="path7173" />
    <path
       style="fill:#546e26;stroke-width:1.14408"
       d="m -361.02394,-146.31451 -0.16352,-0.26459 h 0.26458 0.26458 l 0.16353,0.26459 0.16352,0.26458 h -0.26459 -0.26458 z"
       id="path7169" />
    <path
       style="fill:#546e26;stroke-width:1.14408"
       d="m -350.83748,-145.92695 v -0.40618 l -0.41568,-0.63441 -0.41568,-0.63441 0.29562,-0.55237 0.29563,-0.55238 -0.16015,-0.25912 -0.16014,-0.25911 h 0.0835 0.0835 l 0.85458,0.2451 0.85458,0.24509 0.15147,-0.24509 0.15148,-0.2451 h 0.24897 0.24896 v 0.26146 0.26145 l -1.05333,0.16844 -1.05334,0.16844 -0.3061,0.36881 -0.30609,0.36884 0.43339,0.47889 0.43339,0.47889 v 0.30159 0.30159 l 0.39688,-0.15229 0.39687,-0.1523 v 0.26458 0.26459 l -0.41851,0.1606 -0.41852,0.1606 h -0.11065 -0.11065 z"
       id="path7168" />
    <path
       style="fill:#546e26;stroke-width:1.14408"
       d="m -355.46916,-145.52237 -0.48036,-0.53078 0.15211,-0.15211 0.15211,-0.15211 0.54197,0.29007 0.54198,0.29005 -0.15075,0.39284 -0.15075,0.39284 h -0.063 -0.063 z"
       id="path7159" />
    <path
       style="fill:#546e26;stroke-width:1.14408"
       d="m -361.94998,-145.25616 v -0.26458 h 0.26458 0.26458 v 0.26458 0.26458 h -0.26458 -0.26458 z"
       id="path7158" />
    <path
       style="fill:#546e26;stroke-width:1.14408"
       d="m -358.5132,-143.26839 0.32659,-0.3935 -0.17543,-0.46639 -0.17542,-0.46639 0.59855,0.59237 0.59856,0.59237 -0.35926,0.33367 -0.35925,0.33367 0.18672,-0.33073 0.18672,-0.33073 h -0.2802 -0.2802 v 0.26459 0.26458 h -0.29698 -0.29698 z"
       id="path7144" />
    <path
       style="fill:#546e26;stroke-width:1.14408"
       d="m -341.4738,-142.66949 0.50014,-0.38487 -0.45076,-0.17298 -0.45077,-0.17297 0.18994,-0.30733 0.18994,-0.30733 -0.30546,0.18878 -0.30546,0.18879 v 0.35785 0.35785 l -0.46024,-0.0676 -0.46023,-0.0675 -0.23542,-0.82087 -0.23543,-0.82087 -0.82569,-0.0973 -0.8257,-0.0973 0.87425,-0.34464 0.87425,-0.34464 -0.0805,-0.56442 -0.0805,-0.56443 -0.59895,-0.26274 -0.59894,-0.26274 0.13498,-0.35174 0.13497,-0.35174 -0.26767,-0.50014 -0.26767,-0.50015 -0.45899,0.16928 -0.45898,0.16929 -0.19439,0.28388 -0.19438,0.28388 -0.004,-0.46302 -0.004,-0.46302 h -0.52916 -0.52917 v -0.26458 -0.26458 h 0.39688 0.39687 v -0.43096 -0.43095 l 0.92604,-1.02502 0.92604,-1.02501 v -0.42696 -0.42696 l -0.66145,0.12645 -0.66146,0.12644 v -0.22789 -0.22789 h 0.51027 0.51026 l 0.41375,-0.41375 0.41374,-0.41374 0.2413,0.14913 0.2413,0.14914 -0.0881,1.45915 -0.0881,1.45916 0.3118,-0.1983 0.31181,-0.19831 0.26459,-0.0104 0.26458,-0.0103 0.29582,0.28323 0.29582,0.28322 0.19208,0.60516 0.19207,0.60517 -0.62019,-0.0515 -0.62018,-0.0515 -0.33073,0.0293 -0.33073,0.0293 v 0.64363 0.64363 l 0.52916,0.16795 0.52917,0.16794 v 0.26238 0.26237 l 0.26695,-0.16499 0.26695,-0.16498 0.54612,0.17332 0.54612,0.17333 -0.41619,0.4599 -0.4162,0.45989 v 0.44786 0.44786 l 0.68041,0.31001 0.6804,0.31001 0.20374,-0.32964 0.20374,-0.32965 0.24033,0.0453 0.24034,0.0453 0.46302,-0.0313 0.46302,-0.0313 0.53862,-0.53861 0.53861,-0.53862 0.38743,0.38743 0.38742,0.38742 v 0.16681 0.16679 l -0.29098,-0.17983 -0.29098,-0.17984 0.30029,0.5611 0.30029,0.56109 h -0.56932 -0.56932 l 0.13155,0.68817 0.13155,0.68816 -0.9606,0.41363 -0.9606,0.41364 -0.39688,0.0757 -0.39687,0.0757 -0.79375,0.17592 -0.79375,0.17592 z m 0.33771,-1.17553 -0.17639,-0.17639 v 0.35278 0.35278 l 0.17639,-0.17639 0.17639,-0.17639 z m -0.17639,-0.48507 v -0.13229 h -0.13229 -0.1323 v 0.13229 0.13229 h 0.1323 0.13229 z m -3.175,-7.40833 v -0.13229 h -0.13229 -0.1323 v 0.13229 0.13229 h 0.1323 0.13229 z m 0.26458,-0.52917 V -152.4 h -0.13229 -0.13229 v 0.13229 0.13229 h 0.13229 0.13229 z"
       id="path7141" />
    <path
       style="fill:#546e26;stroke-width:1.14408"
       d="m -336.54998,-141.41967 v -0.13229 h 0.13229 0.13229 v 0.13229 0.13229 h -0.13229 -0.13229 z"
       id="path7137" />
    <path
       style="fill:#546e26;stroke-width:1.14408"
       d="m -357.36387,-141.46377 0.17639,-0.17639 0.17639,0.17639 0.17639,0.17639 h -0.35278 -0.35278 z"
       id="path7136" />
    <path
       style="fill:#546e26;stroke-width:1.14408"
       d="m -335.2194,-140.74788 -0.38922,-0.24615 0.15308,-0.15307 0.15307,-0.15307 0.33468,0.40327 0.33468,0.40327 -0.0985,-0.004 -0.0985,-0.004 z"
       id="path7129" />
    <path
       style="fill:#546e26;stroke-width:1.14408"
       d="m -336.02082,-140.62592 v -0.13229 h 0.1323 0.13229 v 0.13229 0.1323 h -0.13229 -0.1323 z"
       id="path7128" />
    <path
       style="fill:#546e26;stroke-width:1.14408"
       d="m -335.49165,-140.36133 v -0.13229 h 0.13229 0.13229 v 0.13229 0.13229 h -0.13229 -0.13229 z"
       id="path7124" />
    <path
       style="fill:#546e26;stroke-width:1.14408"
       d="m -364.50762,-139.87626 0.17639,-0.17639 0.17639,0.17639 0.17639,0.17639 h -0.35278 -0.35278 z"
       id="path7120" />
    <path
       style="fill:#546e26;stroke-width:1.14408"
       d="m -358.32727,-139.71822 -0.13359,-0.51086 h -0.9352 -0.93519 l -0.15638,0.25303 -0.15638,0.25303 -0.42915,-0.16468 -0.42915,-0.16469 0.62193,-0.50361 0.62193,-0.50361 -0.34485,-0.21312 -0.34484,-0.21313 0.29283,-0.18098 0.29283,-0.18098 v -0.24897 -0.24896 h -0.82615 -0.82615 l 0.3335,-0.40184 0.3335,-0.40184 -0.4744,-0.5242 -0.4744,-0.52421 h 0.33354 0.33354 l 0.78821,0.66323 0.7882,0.66323 0.24873,-0.15373 0.24874,-0.15373 -0.0727,0.3504 -0.0727,0.35039 h 0.39687 0.39688 l 0.21858,0.26459 0.21858,0.26458 0.13419,-0.33073 0.1342,-0.33073 h 0.23957 0.23957 l -0.0506,0.61152 -0.0506,0.61153 0.60154,0.84477 0.60153,0.84478 -0.48181,0.15659 -0.48182,0.15658 -0.30466,0.0886 -0.30465,0.0886 z m -2.56438,-3.0244 v -0.13229 h -0.13229 -0.13229 v 0.13229 0.13229 h 0.13229 0.13229 z"
       id="path7118" />
    <path
       style="fill:#546e26;stroke-width:1.14408"
       d="m -362.8461,-138.95458 0.13893,-0.22481 0.2463,0.15223 0.2463,0.15222 v 0.0726 0.0726 h -0.38523 -0.38524 z"
       id="path7112" />
    <path
       style="fill:#546e26;stroke-width:1.14408"
       d="m -361.6854,-138.77389 -0.33999,-0.40966 0.13229,-0.13229 0.13229,-0.1323 0.33999,0.40967 0.33999,0.40966 -0.13229,0.13229 -0.13229,0.13229 z"
       id="path7110" />
    <path
       style="fill:#546e26;stroke-width:1.14408"
       d="m -361.94998,-138.24472 v -0.13229 h 0.13229 0.13229 v 0.13229 0.13229 h -0.13229 -0.13229 z"
       id="path7105" />
    <path
       style="fill:#546e26;stroke-width:1.14408"
       d="m -362.47915,-138.24472 v -0.13229 h 0.13229 0.13229 v 0.13229 0.13229 h -0.13229 -0.13229 z"
       id="path7104" />
    <path
       style="fill:#546e26;stroke-width:1.14408"
       d="m -338.18989,-138.61416 -0.11248,-0.76632 0.33436,0.1283 0.33435,0.12831 0.27929,-0.17261 0.27928,-0.17261 -0.40134,-0.40133 -0.40133,-0.40134 0.13904,-0.22497 0.13904,-0.22498 -0.27077,-0.16733 -0.27077,-0.16735 -0.15687,0.4088 -0.15687,0.4088 -0.44341,-0.2373 -0.4434,-0.23731 -0.47551,0.26611 -0.47552,0.26611 0.47725,0.52735 0.47724,0.52735 -0.75149,-0.3424 -0.75148,-0.3424 -0.33428,0.45714 -0.33427,0.45715 -0.43049,-0.16519 -0.4305,-0.1652 0.009,-0.17013 0.009,-0.17013 0.48422,-0.57999 0.48423,-0.58 0.51859,0.13562 0.51858,0.13561 0.90662,-0.53324 0.90661,-0.53323 0.8469,0.0253 0.8469,0.0253 0.14829,0.38643 0.14829,0.38643 -0.37798,-0.14503 -0.37798,-0.14504 -0.14071,0.36669 -0.14072,0.36669 0.3834,-0.14712 0.3834,-0.14713 0.004,0.35904 0.004,0.35904 0.25648,-0.39689 0.25648,-0.39687 0.004,0.34634 0.004,0.34635 0.26458,-0.16353 0.26459,-0.16352 v 0.2802 0.2802 h -0.39688 -0.39687 v 0.14968 0.14969 l 0.30042,0.57792 0.30042,0.57792 -0.19963,-0.18584 -0.19963,-0.18584 -0.38427,0.38428 -0.38428,0.38427 h -0.48023 -0.48024 z"
       id="path7103" />
    <path
       style="fill:#546e26;stroke-width:1.14408"
       d="m -359.48054,-137.23044 0.17639,-0.17639 0.17639,0.17639 0.17639,0.17639 h -0.35278 -0.35278 z"
       id="path7094" />
    <path
       style="fill:#546e26;stroke-width:1.14408"
       d="m -357.18748,-130.0644 -1.45521,-0.0973 -4.63021,-0.27813 -4.63021,-0.27813 -2.51354,-0.27167 -2.51354,-0.27166 -0.8599,-0.27108 -0.85989,-0.27107 v -0.20793 -0.20793 l 1.53085,-0.68701 1.53086,-0.68701 2.63633,-0.43168 2.63633,-0.43168 1.91306,-0.38955 1.91306,-0.38955 0.15541,-0.25147 0.15542,-0.25147 0.97423,-0.48933 0.97424,-0.48934 0.86466,-0.0185 0.86465,-0.0185 -0.17793,0.2879 -0.17793,0.2879 0.3269,-0.20203 0.3269,-0.20204 -0.16177,-0.69874 -0.16176,-0.69874 0.20647,0.28973 0.20648,0.28973 0.97093,-0.11776 0.97093,-0.11775 0.59005,-0.62809 0.59006,-0.62809 -0.43651,-0.16751 -0.43651,-0.1675 v -0.74983 -0.74982 l 0.27618,-0.17069 0.27617,-0.17068 0.31914,0.2639 0.31914,0.2639 0.73562,-0.14121 0.73563,-0.14121 0.23047,-0.43064 0.23047,-0.43065 0.0261,-0.19843 0.0261,-0.19844 0.008,-0.19844 0.008,-0.19844 0.27279,0.46859 0.2728,0.46859 0.24434,-0.15101 0.24434,-0.15101 -0.16961,0.84804 -0.16961,0.84804 0.30589,-0.18904 0.30588,-0.18906 v 0.33311 0.33313 l 0.3212,-0.32121 0.32119,-0.32119 -0.29821,-0.79006 -0.29821,-0.79005 h 0.46006 0.46006 l 0.61895,-0.65884 0.61895,-0.65884 -0.31815,-0.69827 -0.31815,-0.69827 0.0971,-0.097 0.0971,-0.0971 0.62043,0.66041 0.62043,0.66042 h 0.99588 0.99588 l 0.87623,0.80772 0.87623,0.80773 -0.69921,-0.26122 -0.69921,-0.26121 -0.53926,0.14102 -0.53926,0.14102 -0.12974,0.3381 -0.12974,0.3381 -0.61687,-0.11792 -0.61686,-0.11792 -0.72691,0.27636 -0.7269,0.27637 v 0.27113 0.27114 h 0.65641 0.65642 l 0.17807,0.7276 0.17807,0.7276 0.28112,0.18331 0.28112,0.1833 0.3087,-0.2562 0.30871,-0.2562 0.15488,0.40362 0.15489,0.40363 h 0.39203 0.39203 l 0.21159,-0.36258 0.21158,-0.36258 0.66146,0.0318 0.66146,0.0318 v -1.12779 -1.12779 l 0.35237,0.13561 0.35237,0.1356 h 0.0982 0.0982 l 0.43154,0.99219 0.43153,0.99218 0.21406,0.41415 0.21406,0.41415 -0.25095,0.44843 -0.25096,0.44843 0.34538,0.10751 0.34538,0.10751 0.71139,0.15536 0.71139,0.15536 0.16412,-0.26555 0.16412,-0.26555 h 0.42657 0.42658 l 0.48385,-0.43789 0.48385,-0.43788 v 0.28354 0.28355 l -0.31142,0.1038 -0.31143,0.10381 0.208,0.33656 0.208,0.33655 0.69874,-0.14323 0.69874,-0.14323 -0.33238,0.14439 -0.33238,0.14439 0.1449,0.23445 0.1449,0.23445 1.2071,0.53396 1.20711,0.53396 2.94912,0.5631 2.94913,0.5631 1.20733,0.47463 1.20734,0.47463 1.24006,0.74902 1.24006,0.74902 v 0.15471 0.15471 l -2.84427,0.31707 -2.84427,0.31708 -4.63021,0.39207 -4.63021,0.39207 -8.20208,0.10189 -8.20208,0.10189 z m 11.0243,-6.10774 -0.17639,-0.17639 v 0.35278 0.35277 l 0.17639,-0.17639 0.17639,-0.17638 z"
       id="path7088" />
    <path
       style="fill:#59462c;stroke-width:1.14408"
       d="m -352.02811,-139.17089 0.16352,-0.26459 h 0.11668 0.11668 v 0.26459 0.26458 h -0.2802 -0.2802 z"
       id="path7827" />
    <path
       style="fill:#59462c;stroke-width:1.14408"
       d="m -350.30832,-137.18652 v -0.13229 h 0.1323 0.13229 v 0.13229 0.13229 h -0.13229 -0.1323 z"
       id="path7825" />
    <path
       style="fill:#59462c;stroke-width:1.14408"
       d="m -357.18748,-130.06451 -1.45521,-0.0973 -4.63021,-0.27813 -4.63021,-0.27813 -2.51354,-0.27167 -2.51354,-0.27166 -0.8599,-0.27108 -0.85989,-0.27107 v -0.20793 -0.20793 l 1.52135,-0.68145 1.52136,-0.68144 2.51354,-0.42526 2.51354,-0.42526 1.5875,-0.2774 1.5875,-0.27739 1.4061,-0.66368 1.40609,-0.66368 0.33916,0.46382 0.33916,0.46382 0.88263,-0.44032 0.88264,-0.44031 0.21233,0.33449 0.21233,0.3345 0.004,0.19844 0.004,0.19844 h 0.48305 0.48304 l 0.598,-0.63654 0.598,-0.63654 0.49041,-0.12825 0.49042,-0.12824 0.34683,1.09551 0.34683,1.09551 0.79369,-0.0747 0.79369,-0.0747 0.72045,-0.003 0.72046,-0.003 0.40402,-0.57683 0.40403,-0.57682 v -0.51642 -0.51642 l 0.59531,0.54244 0.59531,0.54244 0.99391,0.46069 0.99392,0.46069 0.39076,-0.32431 0.39077,-0.3243 0.26242,0.69021 0.26242,0.69022 h 0.8003 0.80029 v -1.16545 -1.16545 l 1.12448,0.14878 1.12448,0.14878 0.34573,0.4875 0.34574,0.48751 h 0.65476 0.65476 l 0.15171,-0.39536 0.15171,-0.39536 0.26506,0.16382 0.26505,0.16381 0.98817,-0.32612 0.98816,-0.32612 0.79034,0.4087 0.79034,0.4087 3.02195,0.57703 3.02194,0.57703 1.20733,0.47463 1.20734,0.47463 1.24006,0.74902 1.24006,0.74902 v 0.15471 0.15471 l -2.84427,0.31707 -2.84427,0.31708 -4.63021,0.39207 -4.63021,0.39207 -8.20208,0.10189 -8.20208,0.10189 z"
       id="path7819" />
  </g>
</svg>
