<?xml version="1.0" encoding="UTF-8" standalone="no"?>
<!-- Created with Inkscape (http://www.inkscape.org/) -->

<svg
   width="185"
   height="185"
   viewBox="0 0 48.947914 48.947918"
   version="1.1"
   id="svg1"
   xmlns="http://www.w3.org/2000/svg"
   xmlns:svg="http://www.w3.org/2000/svg">
  <defs
     id="defs1" />
  <g
     id="g25018"
     style="display:inline;stroke-width:1.45729"
     transform="matrix(0.68620369,0,0,0.68620369,16.855126,-72.979208)">
    <path
       style="fill:#d3d2ad;stroke-width:1.45729"
       d="m -5.7002413,177.34933 c -2.7442976,-0.67755 -6.0723087,-2.68574 -7.1441097,-4.31089 -0.902071,-1.3678 -0.435291,-2.80057 1.198674,-3.67931 0.568987,-0.306 1.723696,-0.49941 3.5451816,-0.5938 l 2.7013474,-0.13999 -0.7717394,-1.23771 c -1.5410301,-2.47149 -2.2196099,-4.43852 -2.2352104,-6.47931 -0.01264,-1.65358 0.067573,-1.98364 0.626938,-2.57969 0.5732169,-0.61081 0.8416536,-0.6835 2.5240987,-0.6835 1.0354661,0 2.5922899,0.18236 3.4596084,0.40523 1.87754278,0.48248 5.0610127,1.94489 6.3137067,2.90037 l 0.8973628,0.68445 -1.4223519,-4.36935 c -0.7822936,-2.40315 -1.3526245,-4.55107 -1.2674019,-4.77316 0.2117839,-0.5519 1.5657393,-0.5068 2.8937574,0.0964 1.4107662,0.64077 2.8004417,1.88131 3.8029607,3.39484 l 0.8099499,1.2228 v -4.22361 -4.22361 l -1.2214186,-1.17956 c -2.9078967,-2.80826 -3.822095,-8.08074 -1.3181285,-7.60208 0.5888788,0.11258 0.6843192,0.06 0.5301306,-0.29197 -1.276586,-2.91421 -1.5620226,-6.12594 -0.6738684,-7.58235 0.3153917,-0.51718 0.5352958,-1.51299 0.6177124,-2.79721 0.070387,-1.09677 0.3119635,-2.34273 0.5368377,-2.7688 0.2248741,-0.42606 0.5382393,-1.4724 0.6963671,-2.3252 0.4193162,-2.2614 1.0724297,-3.45844 1.9417197,-3.5588 0.870738,-0.10054 1.323633,0.65484 1.794302,2.99267 0.175784,0.87313 0.50647,1.93591 0.734857,2.36174 0.263113,0.49058 0.461761,1.74013 0.542199,3.4106 0.09975,2.07155 0.229196,2.73861 0.604196,3.11361 1.009567,1.00957 1.002705,4.3716 -0.01372,6.72447 -0.314323,0.7276 -0.42105,1.17409 -0.237172,0.99219 0.574297,-0.56813 1.034264,-0.36658 1.45355,0.63691 0.329733,0.78917 0.349085,1.18696 0.104917,2.15664 -0.431848,1.71502 -0.920741,2.5438 -2.538849,4.3039 l -1.436961,1.56305 v 4.28744 4.28743 l 0.749313,-1.17628 c 1.751131,-2.74894 5.440143,-4.97197 6.377164,-3.84293 0.342788,0.41304 -0.267102,2.84351 -1.958853,7.80622 -0.36834,1.08051 -0.669708,2.01248 -0.669708,2.07104 0,0.0586 0.621748,-0.43742 1.381662,-1.10218 4.042351,-3.53615 10.934301,-4.80538 12.252418,-2.25643 0.493912,0.95512 0.492421,2.12142 -0.0052,4.03174 -0.415153,1.59388 -1.764938,4.49666 -2.454854,5.27928 -0.385322,0.4371 -0.268302,0.46302 2.090314,0.46302 2.064844,0 2.703384,0.10332 3.679028,0.59531 2.182069,1.10036 2.30307,2.68793 0.349573,4.58651 -1.349983,1.31203 -2.984339,2.31094 -5.068811,3.09803 -1.476245,0.55743 -1.84855,0.57086 -17.383553,0.62751 -12.9287397,0.0472 -16.1557947,-0.0114 -17.3879803,-0.31566 z"
       id="path25001" />
    <path
       style="fill:#fcd335;stroke-width:1.45729"
       d="m -4.5841348,177.57067 c -3.9607463,-0.66301 -8.7312492,-3.87368 -8.7312492,-5.87636 0,-0.99727 1.260063,-2.29167 2.590623,-2.6612 0.539688,-0.14989 1.9635171,-0.27319 3.1640639,-0.274 1.2005468,-8.2e-4 2.1828124,-0.0466 2.1828124,-0.10172 0,-0.0551 -0.4166173,-0.79209 -0.9258163,-1.6377 -1.4743291,-2.44837 -2.0764989,-4.25343 -2.0978846,-6.28861 -0.017497,-1.66516 0.039964,-1.85957 0.723351,-2.4474 0.6134956,-0.52771 1.0268461,-0.63787 2.3812499,-0.63464 3.2058494,0.008 7.6818473,1.58143 9.8306584,3.4565 0.6233062,0.54391 0.9689274,0.72356 0.8659081,0.45011 -0.7947973,-2.10972 -2.5753836,-8.14675 -2.5753836,-8.73177 0,-0.63563 0.1043424,-0.735 0.7718146,-0.735 1.9008855,0 4.5186741,1.78187 5.7867356,3.93889 l 0.7174906,1.22049 0.07303,-4.20049 0.07303,-4.20049 -1.3392804,-1.41609 c -1.6548648,-1.74977 -2.6371749,-3.77481 -2.6406596,-5.44372 -0.00311,-1.49131 0.5440636,-2.18881 1.5241239,-1.94283 0.5592507,0.14037 0.6262461,0.0941 0.450735,-0.31159 -1.294141,-2.99102 -1.5601729,-5.85964 -0.6947822,-7.49184 0.2835703,-0.53483 0.5607758,-1.79294 0.6600184,-2.99553 0.094109,-1.14037 0.3394898,-2.39052 0.5452912,-2.77812 0.2058014,-0.3876 0.5077918,-1.35956 0.6710898,-2.15993 0.4474872,-2.19325 1.2057579,-3.70416 1.8589749,-3.70416 0.727906,0 1.511963,1.3325 1.864255,3.1683 0.154299,0.80405 0.470347,1.87862 0.702329,2.38795 0.242926,0.53334 0.479733,1.98623 0.558434,3.42615 0.104696,1.91554 0.248871,2.62058 0.6166,3.01529 1.032752,1.10853 0.95427,4.24421 -0.168407,6.72857 -0.624001,1.38084 -0.624675,1.39171 -0.06192,0.99754 1.443241,-1.01089 2.085942,1.84243 0.956312,4.24561 -0.312688,0.66522 -1.175891,1.87355 -1.918229,2.68519 l -1.349706,1.47571 -0.132291,4.52182 c -0.07276,2.487 -0.109501,4.56446 -0.08165,4.61657 0.02786,0.0521 0.227136,-0.32766 0.442845,-0.84392 0.215708,-0.51627 0.901941,-1.49167 1.524961,-2.16757 2.320991,-2.51798 5.832077,-3.50212 5.355151,-1.50103 -0.191156,0.80206 -2.385478,7.96773 -2.655081,8.6703 -0.09574,0.24949 0.525193,-0.11594 1.379847,-0.81206 3.977274,-3.23954 9.959362,-4.56568 11.791195,-2.61395 0.517134,0.55099 0.62856,0.94368 0.616289,2.17199 -0.01808,1.81013 -0.876471,4.47329 -2.092978,6.4935 l -0.896145,1.4882 2.428093,0.006 c 3.910895,0.009 5.385882,0.92383 5.236685,3.24667 -0.06227,0.96957 -2.436397,3.0841 -4.751038,4.23155 l -2.249039,1.11493 -9.678215,0.16921 c -10.8708105,0.19006 -22.3054005,0.21208 -23.3042568,0.0449 z"
       id="path24879" />
    <path
       style="fill:#aab28d;stroke-width:1.45729"
       d="m -4.5841348,177.57067 c -3.9607463,-0.66301 -8.7312492,-3.87368 -8.7312492,-5.87636 0,-0.99727 1.260063,-2.29167 2.590623,-2.6612 0.539688,-0.14989 1.9635171,-0.27319 3.1640639,-0.274 1.2005468,-8.2e-4 2.1828124,-0.0466 2.1828124,-0.10172 0,-0.0551 -0.4166173,-0.79209 -0.9258163,-1.6377 -1.4743291,-2.44837 -2.0764989,-4.25343 -2.0978846,-6.28861 -0.017497,-1.66516 0.039964,-1.85957 0.723351,-2.4474 0.6134956,-0.52771 1.0268461,-0.63787 2.3812499,-0.63464 3.2058494,0.008 7.6818473,1.58143 9.8306584,3.4565 0.6233062,0.54391 0.9689274,0.72356 0.8659081,0.45011 -0.7947973,-2.10972 -2.5753836,-8.14675 -2.5753836,-8.73177 0,-0.63563 0.1043424,-0.735 0.7718146,-0.735 1.9008855,0 4.5186741,1.78187 5.7867356,3.93889 l 0.7174906,1.22049 0.07303,-4.20049 0.07303,-4.20049 -1.3392804,-1.41609 c -1.6548648,-1.74977 -2.6371749,-3.77481 -2.6406596,-5.44372 -0.00311,-1.49131 0.5440636,-2.18881 1.5241239,-1.94283 0.5592507,0.14037 0.6262461,0.0941 0.450735,-0.31159 -1.294141,-2.99102 -1.5601729,-5.85964 -0.6947822,-7.49184 0.2835703,-0.53483 0.5607758,-1.79294 0.6600184,-2.99553 0.094109,-1.14037 0.3394898,-2.39052 0.5452912,-2.77812 0.2058014,-0.3876 0.5077918,-1.35956 0.6710898,-2.15993 0.4474872,-2.19325 1.2057579,-3.70416 1.8589749,-3.70416 0.727906,0 1.511963,1.3325 1.864255,3.1683 0.154299,0.80405 0.470347,1.87862 0.702329,2.38795 0.242926,0.53334 0.479733,1.98623 0.558434,3.42615 0.104696,1.91554 0.248871,2.62058 0.6166,3.01529 1.032752,1.10853 0.95427,4.24421 -0.168407,6.72857 -0.624001,1.38084 -0.624675,1.39171 -0.06192,0.99754 1.443241,-1.01089 2.085942,1.84243 0.956312,4.24561 -0.312688,0.66522 -1.175891,1.87355 -1.918229,2.68519 l -1.349706,1.47571 -0.132291,4.52182 c -0.07276,2.487 -0.109501,4.56446 -0.08165,4.61657 0.02786,0.0521 0.227136,-0.32766 0.442845,-0.84392 0.215708,-0.51627 0.901941,-1.49167 1.524961,-2.16757 2.320991,-2.51798 5.832077,-3.50212 5.355151,-1.50103 -0.191156,0.80206 -2.385478,7.96773 -2.655081,8.6703 -0.09574,0.24949 0.525193,-0.11594 1.379847,-0.81206 3.977274,-3.23954 9.959362,-4.56568 11.791195,-2.61395 0.517134,0.55099 0.62856,0.94368 0.616289,2.17199 -0.01808,1.81013 -0.876471,4.47329 -2.092978,6.4935 l -0.896145,1.4882 2.428093,0.006 c 3.910895,0.009 5.385882,0.92383 5.236685,3.24667 -0.06227,0.96957 -2.436397,3.0841 -4.751038,4.23155 l -2.249039,1.11493 -9.678215,0.16921 c -10.8708105,0.19006 -22.3054005,0.21208 -23.3042568,0.0449 z"
       id="path24821" />
    <path
       style="fill:#c69453;stroke-width:1.45729"
       d="m -4.6352373,177.43552 c -2.6316839,-0.32923 -5.3432905,-1.64714 -7.4116277,-3.60224 -1.173517,-1.10927 -1.454138,-2.09715 -0.90008,-3.16858 0.636212,-1.2303 2.018281,-1.73434 5.0931719,-1.8575 l 2.6834862,-0.10748 -0.8023926,-1.18892 c -0.9969755,-1.47724 -2.2045,-4.34864 -2.4395117,-5.80098 -0.2268756,-1.40205 0.2398017,-3.1368 0.9841011,-3.65813 1.810739,-1.26829 9.1939124,0.62925 11.9856343,3.08042 0.501868,0.44064 0.9124872,0.7085 0.9124872,0.59524 0,-0.11326 -0.602102,-2.04197 -1.3380044,-4.28603 -0.7359024,-2.24406 -1.3014493,-4.33661 -1.2567708,-4.65013 0.12477,-0.87551 1.1230608,-0.8482 3.0134777,0.0824 1.6669654,0.82065 2.9914534,2.12587 3.9022109,3.84546 0.3994842,0.75426 0.4209272,0.57577 0.4309932,-3.58756 l 0.01059,-4.3813 -1.2567706,-1.31296 c -2.3146434,-2.41811 -3.3432341,-5.6227 -2.2414679,-6.98332 0.4670859,-0.57683 0.6028285,-0.614 1.2181991,-0.33362 0.6459196,0.2943 1.0048595,0.022 0.4351346,-0.33014 -0.4518717,-0.27927 -1.3300949,-3.5829 -1.3300949,-5.00344 0,-0.81077 0.1996159,-1.76293 0.4882951,-2.32916 0.2712257,-0.53199 0.564634,-1.86085 0.6600184,-2.98924 0.094448,-1.11732 0.3401061,-2.34861 0.5459075,-2.73621 0.2058014,-0.38759 0.5157498,-1.41909 0.6887741,-2.29222 0.4667018,-2.35509 1.1769256,-3.83645 1.8393496,-3.83645 0.749698,0 1.469957,1.27139 1.847361,3.26094 0.170461,0.89862 0.489926,2.02604 0.709922,2.50538 0.219995,0.47934 0.469174,1.96762 0.553731,3.30729 0.111369,1.76447 0.285025,2.60496 0.630104,3.04969 1.010348,1.30213 0.851042,4.67429 -0.33074,7.00106 l -0.508114,1.00041 0.539652,-0.33702 c 0.867631,-0.54185 1.449048,0.0159 1.544908,1.48198 0.107178,1.6392 -0.776786,3.55215 -2.522502,5.45884 l -1.337532,1.46086 -0.194838,4.55841 c -0.107161,2.50712 -0.125678,4.5584 -0.04115,4.5584 0.08453,0 0.345492,-0.40419 0.579917,-0.8982 1.076417,-2.26838 4.086145,-4.65038 5.882455,-4.65556 0.766719,-0.002 0.859895,0.0781 0.859895,0.74099 0,0.58756 -2.125417,7.56181 -2.831847,9.29231 -0.08498,0.20817 0.428123,-0.11124 1.140231,-0.70981 1.820012,-1.52983 4.177473,-2.8947 5.764025,-3.33714 3.20486,-0.89372 5.634453,-0.75351 6.664446,0.38462 1.075434,1.18834 0.297895,5.26568 -1.62633,8.52832 -0.499643,0.84717 -0.908721,1.56155 -0.909063,1.5875 -3.42e-4,0.0259 0.937267,0.009 2.083576,-0.0381 3.630308,-0.1485 5.589961,0.80148 5.589961,2.70985 0,1.17561 -1.118816,2.50397 -3.296304,3.91367 -3.13221,2.02779 -3.133208,2.02789 -20.130495,2.11534 -8.3008343,0.0427 -15.7602071,-0.006 -16.5763843,-0.10801 z"
       id="path24795" />
    <path
       style="fill:#a29562;stroke-width:1.45729"
       d="m -4.6352373,177.43552 c -2.6316839,-0.32923 -5.3432905,-1.64714 -7.4116277,-3.60224 -1.173517,-1.10927 -1.454138,-2.09715 -0.90008,-3.16858 0.636212,-1.2303 2.018281,-1.73434 5.0931719,-1.8575 l 2.6834862,-0.10748 -0.8023926,-1.18892 c -0.9969755,-1.47724 -2.2045,-4.34864 -2.4395117,-5.80098 -0.2268756,-1.40205 0.2398017,-3.1368 0.9841011,-3.65813 1.810739,-1.26829 9.1939124,0.62925 11.9856343,3.08042 0.501868,0.44064 0.9124872,0.7085 0.9124872,0.59524 0,-0.11326 -0.602102,-2.04197 -1.3380044,-4.28603 -0.7359024,-2.24406 -1.3014493,-4.33661 -1.2567708,-4.65013 0.12477,-0.87551 1.1230608,-0.8482 3.0134777,0.0824 1.6669654,0.82065 2.9914534,2.12587 3.9022109,3.84546 0.3994842,0.75426 0.4209272,0.57577 0.4309932,-3.58756 l 0.01059,-4.3813 -1.2567706,-1.31296 c -2.3146434,-2.41811 -3.3432341,-5.6227 -2.2414679,-6.98332 0.4670859,-0.57683 0.6028285,-0.614 1.2181991,-0.33362 0.6459196,0.2943 1.0048595,0.022 0.4351346,-0.33014 -0.4518717,-0.27927 -1.3300949,-3.5829 -1.3300949,-5.00344 0,-0.81077 0.1996159,-1.76293 0.4882951,-2.32916 0.2712257,-0.53199 0.564634,-1.86085 0.6600184,-2.98924 0.094448,-1.11732 0.3401061,-2.34861 0.5459075,-2.73621 0.2058014,-0.38759 0.5157498,-1.41909 0.6887741,-2.29222 0.4667018,-2.35509 1.1769256,-3.83645 1.8393496,-3.83645 0.749698,0 1.469957,1.27139 1.847361,3.26094 0.170461,0.89862 0.489926,2.02604 0.709922,2.50538 0.219995,0.47934 0.469174,1.96762 0.553731,3.30729 0.111369,1.76447 0.285025,2.60496 0.630104,3.04969 1.010348,1.30213 0.851042,4.67429 -0.33074,7.00106 l -0.508114,1.00041 0.539652,-0.33702 c 0.867631,-0.54185 1.449048,0.0159 1.544908,1.48198 0.107178,1.6392 -0.776786,3.55215 -2.522502,5.45884 l -1.337532,1.46086 -0.194838,4.55841 c -0.107161,2.50712 -0.125678,4.5584 -0.04115,4.5584 0.08453,0 0.345492,-0.40419 0.579917,-0.8982 1.076417,-2.26838 4.086145,-4.65038 5.882455,-4.65556 0.766719,-0.002 0.859895,0.0781 0.859895,0.74099 0,0.58756 -2.125417,7.56181 -2.831847,9.29231 -0.08498,0.20817 0.428123,-0.11124 1.140231,-0.70981 1.820012,-1.52983 4.177473,-2.8947 5.764025,-3.33714 3.20486,-0.89372 5.634453,-0.75351 6.664446,0.38462 1.075434,1.18834 0.297895,5.26568 -1.62633,8.52832 -0.499643,0.84717 -0.908721,1.56155 -0.909063,1.5875 -3.42e-4,0.0259 0.937267,0.009 2.083576,-0.0381 3.630308,-0.1485 5.589961,0.80148 5.589961,2.70985 0,1.17561 -1.118816,2.50397 -3.296304,3.91367 -3.13221,2.02779 -3.133208,2.02789 -20.130495,2.11534 -8.3008343,0.0427 -15.7602071,-0.006 -16.5763843,-0.10801 z"
       id="path24763" />
    <path
       style="fill:#6e974e;stroke-width:1.45729"
       d="m -6.9714825,176.86838 c -3.1022015,-1.09525 -5.8372185,-3.21756 -6.2461515,-4.84688 -0.204787,-0.81594 0.504578,-1.85132 1.780023,-2.5981 0.691527,-0.4049 1.5102204,-0.54758 3.581871,-0.62427 l 2.6854531,-0.0994 -0.7718611,-1.14368 c -1.0915431,-1.61736 -1.9885877,-3.75013 -2.3430733,-5.57079 -0.375125,-1.92666 0.035656,-3.48302 1.0552533,-3.99814 2.0795621,-1.05063 8.18457312,0.51669 11.4432286,2.93778 0.6912239,0.51356 1.2567708,0.86366 1.2567708,0.778 0,-0.0857 -0.6004459,-2.01022 -1.3343242,-4.27679 -0.7338783,-2.26658 -1.2993999,-4.36492 -1.2567147,-4.66299 0.064602,-0.45111 0.247252,-0.53179 1.0898183,-0.48138 2.0365789,0.12185 4.5517746,2.03881 5.822134,4.43736 0.3991722,0.75367 0.4209342,0.56791 0.4309932,-3.67879 l 0.01059,-4.47253 -1.0107505,-0.86517 c -2.1507825,-1.84099 -3.5731884,-5.90787 -2.5208374,-7.20747 0.4259209,-0.52599 0.5970049,-0.57317 1.2197479,-0.33641 0.3983871,0.15147 0.7243402,0.2332 0.7243402,0.18163 0,-0.0516 -0.3041799,-0.75819 -0.6759552,-1.57025 -0.9680612,-2.11453 -1.1569819,-4.77948 -0.4466491,-6.30052 0.2963429,-0.63456 0.6114348,-2.02584 0.7026372,-3.10248 0.090945,-1.0736 0.3347971,-2.26422 0.5418942,-2.64583 0.207097,-0.38162 0.5683843,-1.60859 0.8028606,-2.72661 0.4275282,-2.03851 1.1720141,-3.39119 1.8664411,-3.39119 0.580372,0 1.136128,1.06121 1.602542,3.06004 0.235471,1.00911 0.611202,2.24753 0.834959,2.75205 0.258539,0.58294 0.416487,1.78249 0.433321,3.29089 0.023,2.06086 0.102132,2.44981 0.60061,2.95208 1.125097,1.13367 1.03286,4.48909 -0.189296,6.88628 -0.59688,1.17075 -0.644912,1.40062 -0.199615,0.95532 0.476742,-0.47674 1.21659,-0.38251 1.525274,0.19427 0.82251,1.53688 -0.159042,4.32902 -2.311435,6.57516 -1.295397,1.35181 -1.345728,1.46195 -1.511418,3.30729 -0.09427,1.0499 -0.133799,3.15906 -0.08785,4.68703 l 0.08355,2.77813 0.833717,-1.47096 c 1.328226,-2.34344 3.849545,-4.21759 5.673997,-4.21759 0.836395,0 0.839544,0.005 0.685659,1.12448 -0.124593,0.90626 -2.093738,7.28649 -2.755984,8.92966 -0.08797,0.21827 0.303526,-0.0101 0.869985,-0.50744 2.939474,-2.58089 6.255047,-3.995 9.509292,-4.05577 2.189555,-0.0409 2.945813,0.29796 3.471176,1.55533 0.313008,0.74914 0.329012,1.21967 0.0869,2.55486 -0.32817,1.80975 -1.26213,4.20334 -2.251866,5.77119 -0.354612,0.56174 -0.644999,1.05348 -0.645304,1.09275 -3.05e-4,0.0393 0.803367,0.0298 1.785938,-0.0211 4.945011,-0.25611 7.358706,1.96576 5.027638,4.62808 -1.203224,1.37421 -3.688734,2.91776 -5.697327,3.53815 -1.618734,0.49997 -2.479392,0.52499 -17.878459,0.51968 l -16.1778581,-0.006 z"
       id="path24735" />
    <path
       style="fill:#876c46;stroke-width:1.45729"
       d="m -6.3039263,177.11699 c -3.1002614,-0.9857 -6.5028967,-3.45869 -6.8920057,-5.00903 -0.228135,-0.90896 0.420446,-1.89968 1.760288,-2.68887 0.7407,-0.43629 1.374235,-0.52917 3.6094777,-0.52917 1.4911012,0 2.7114918,-0.0274 2.711979,-0.061 4.873e-4,-0.0336 -0.3978745,-0.68839 -0.8852483,-1.4552 -1.4090636,-2.21696 -2.3155271,-4.76971 -2.3240172,-6.54484 -0.00858,-1.79414 0.3279705,-2.57781 1.2590879,-2.93182 2.2545791,-0.85719 8.3883299,0.82028 11.4076258,3.11977 0.6197238,0.47198 1.1267705,0.78701 1.1267705,0.70007 0,-0.087 -0.5953125,-2.01379 -1.3229166,-4.28186 -0.7276041,-2.26808 -1.3229166,-4.34301 -1.3229166,-4.61097 0,-0.66911 0.5493788,-0.82138 1.7738601,-0.49166 1.6849752,0.45372 3.412898,1.78161 4.56674,3.50951 l 1.0677327,1.59894 0.04115,-3.80046 c 0.05498,-5.07764 0.08763,-4.91313 -1.2293151,-6.19306 -1.4137705,-1.37402 -2.4296398,-3.31149 -2.6644611,-5.08166 -0.1516389,-1.14311 -0.097202,-1.40821 0.3890137,-1.89442 0.4623286,-0.46233 0.664757,-0.51211 1.1110881,-0.27325 0.3001699,0.16065 0.5909485,0.2469 0.6461747,0.19168 0.055226,-0.0552 -0.2152549,-0.86855 -0.6010689,-1.80738 -0.8546605,-2.0797 -1.0114324,-5.27431 -0.3115385,-6.34835 0.2330625,-0.35765 0.5093872,-1.52591 0.6140549,-2.59612 0.1046676,-1.07022 0.3036717,-2.20131 0.4422312,-2.51354 0.2343265,-0.52804 0.2436605,-0.52149 0.133607,0.0938 -0.065076,0.3638 -0.1992733,1.49489 -0.2982171,2.51354 -0.098944,1.01865 -0.3758603,2.14974 -0.6153702,2.51354 -0.6666026,1.01253 -0.5348593,4.21171 0.2560479,6.21771 0.3442472,0.87313 0.6278223,1.75136 0.6301669,1.95164 0.00234,0.20027 0.3741115,0.64935 0.8261484,0.99795 l 0.8218851,0.63382 0.179618,-2.85004 c 0.09879,-1.56752 0.238069,-3.50488 0.309509,-4.30524 0.135255,-1.51531 -0.3046,-2.83957 -0.900791,-2.71198 -0.4122671,0.0882 -0.3773527,-0.21824 0.09619,-0.84432 0.589494,-0.77938 0.4667,-2.32987 -0.3064216,-3.86912 l -0.6948821,-1.38348 0.554632,-2.24665 c 0.5471987,-2.21655 1.1117147,-3.23195 1.7968037,-3.23195 0.518713,0 1.410929,1.93239 1.557176,3.37259 l 0.127707,1.25761 -0.341735,-1.48309 c -0.357203,-1.55022 -1.065319,-2.88253 -1.532047,-2.88253 -0.381156,0 -1.192325,1.9571 -1.5574236,3.75759 -0.3535104,1.74334 -0.1046064,2.49195 0.9135046,2.74748 0.759968,0.19074 2.128642,-0.67126 2.394168,-1.50786 0.170308,-0.53659 0.178805,-0.5371 0.532832,-0.0317 0.632089,0.90243 1.203009,5.67455 0.714459,5.97191 -0.109141,0.0664 -0.205284,-0.67069 -0.213652,-1.63804 -0.01682,-1.94459 -0.303705,-3.75118 -0.592087,-3.72854 -0.102547,0.008 -0.484105,0.39068 -0.847907,0.85028 -0.611038,0.77195 -0.661327,1.04789 -0.659735,3.62009 0.0015,2.45219 0.05758,2.7952 0.469814,2.87459 0.269071,0.0518 0.808581,-0.27435 1.268917,-0.76714 0.753593,-0.80672 0.827315,-0.83076 1.249977,-0.40752 0.729409,0.7304 0.631032,5.21179 -0.148385,6.75942 -0.666747,1.3239 -0.628269,1.53154 0.191011,1.03074 1.374688,-0.8403 1.751083,1.90967 0.589649,4.30803 -0.309957,0.64006 -1.156509,1.78527 -1.881226,2.54492 -0.821372,0.86095 -1.377148,1.70802 -1.475589,2.24895 -0.08686,0.47729 -0.122684,2.65373 -0.07962,4.83654 l 0.07831,3.96875 0.574156,-1.24258 c 1.062575,-2.2996 4.129223,-4.71055 5.991671,-4.71055 0.578377,0 0.710214,0.121 0.710214,0.65184 0,0.56893 -2.193718,7.84865 -2.790041,9.25858 -0.141101,0.33362 0.316532,0.0815 1.286937,-0.70898 3.197872,-2.60497 5.833543,-3.64519 9.236069,-3.64519 1.879773,0 2.14609,0.0654 2.75821,0.67754 0.628909,0.62891 0.66919,0.81407 0.561219,2.57969 -0.128365,2.09912 -0.800221,4.07549 -2.144109,6.30724 l -0.880848,1.46279 1.911766,-0.12269 c 4.947047,-0.31748 7.422401,1.93125 5.075901,4.61119 -1.203224,1.37421 -3.688734,2.91776 -5.697327,3.53815 -1.620729,0.50059 -2.460422,0.52443 -17.878459,0.50756 -12.3176396,-0.0135 -16.4303882,-0.098 -17.2361913,-0.35419 z M 13.72238,146.81824 c 2.030737,-2.24404 2.968066,-5.24833 1.911136,-6.12551 -0.361304,-0.29985 -0.545187,-0.20291 -1.318708,0.69521 -1.502086,1.74405 -2.494777,3.96589 -2.494777,5.58383 0,0.77712 0.109073,1.41294 0.242384,1.41294 0.133311,0 0.880295,-0.70491 1.659965,-1.56647 z m -3.225266,-0.19048 c 0,-1.79286 -0.6308111,-3.18757 -2.2515565,-4.97814 -1.1163309,-1.2333 -1.145609,-1.24687 -1.4524638,-0.67351 -0.3675388,0.68675 -0.1729374,2.02462 0.5263526,3.61863 0.4835426,1.10221 2.5090107,3.52539 2.9467817,3.52539 0.126988,0 0.230886,-0.67157 0.230886,-1.49237 z m 3.503604,-5.98249 c -0.03755,-0.11594 0.191368,-0.71395 0.508704,-1.32891 0.634939,-1.23043 1.007927,-5.07017 0.568743,-5.85494 -0.217627,-0.38888 -0.348773,-0.35627 -1.198311,0.298 -0.524667,0.40407 -1.148083,1.05891 -1.385369,1.4552 -0.534359,0.89243 -0.992038,4.66706 -0.770803,6.35707 l 0.16452,1.25676 1.090394,-0.98619 c 0.599716,-0.54241 1.059671,-1.08105 1.022122,-1.19699 z"
       id="path24699" />
    <path
       style="fill:#578549;stroke-width:1.45729"
       d="m -6.3039263,177.11699 c -3.1002614,-0.9857 -6.5028967,-3.45869 -6.8920057,-5.00903 -0.228135,-0.90896 0.420446,-1.89968 1.760288,-2.68887 0.7407,-0.43629 1.374235,-0.52917 3.6094777,-0.52917 1.4911012,0 2.7114918,-0.0274 2.711979,-0.061 4.873e-4,-0.0336 -0.3978745,-0.68839 -0.8852483,-1.4552 -1.4090636,-2.21696 -2.3155271,-4.76971 -2.3240172,-6.54484 -0.00858,-1.79414 0.3279705,-2.57781 1.2590879,-2.93182 2.2545791,-0.85719 8.3883299,0.82028 11.4076258,3.11977 0.6197238,0.47198 1.1267705,0.78701 1.1267705,0.70007 0,-0.087 -0.5953125,-2.01379 -1.3229166,-4.28186 -0.7276041,-2.26808 -1.3229166,-4.34301 -1.3229166,-4.61097 0,-0.66911 0.5493788,-0.82138 1.7738601,-0.49166 1.6849752,0.45372 3.412898,1.78161 4.56674,3.50951 l 1.0677327,1.59894 0.04115,-3.80046 c 0.05498,-5.07764 0.08763,-4.91313 -1.2293151,-6.19306 -1.4137705,-1.37402 -2.4296398,-3.31149 -2.6644611,-5.08166 -0.1516389,-1.14311 -0.097202,-1.40821 0.3890137,-1.89442 0.4623286,-0.46233 0.664757,-0.51211 1.1110881,-0.27325 0.3001699,0.16065 0.5909485,0.2469 0.6461747,0.19168 0.055226,-0.0552 -0.2152549,-0.86855 -0.6010689,-1.80738 -0.8546605,-2.0797 -1.0114324,-5.27431 -0.3115385,-6.34835 0.2330625,-0.35765 0.5093872,-1.52591 0.6140549,-2.59612 0.1046676,-1.07022 0.3036717,-2.20131 0.4422312,-2.51354 0.2343265,-0.52804 0.2436605,-0.52149 0.133607,0.0938 -0.065076,0.3638 -0.1992733,1.49489 -0.2982171,2.51354 -0.098944,1.01865 -0.3758603,2.14974 -0.6153702,2.51354 -0.6666026,1.01253 -0.5348593,4.21171 0.2560479,6.21771 0.3442472,0.87313 0.6278223,1.75136 0.6301669,1.95164 0.00234,0.20027 0.3741115,0.64935 0.8261484,0.99795 l 0.8218851,0.63382 0.179618,-2.85004 c 0.09879,-1.56752 0.238069,-3.50488 0.309509,-4.30524 0.135255,-1.51531 -0.3046,-2.83957 -0.900791,-2.71198 -0.4122671,0.0882 -0.3773527,-0.21824 0.09619,-0.84432 0.589494,-0.77938 0.4667,-2.32987 -0.3064216,-3.86912 l -0.6948821,-1.38348 0.554632,-2.24665 c 0.5471987,-2.21655 1.1117147,-3.23195 1.7968037,-3.23195 0.518713,0 1.410929,1.93239 1.557176,3.37259 l 0.127707,1.25761 -0.341735,-1.48309 c -0.357203,-1.55022 -1.065319,-2.88253 -1.532047,-2.88253 -0.381156,0 -1.192325,1.9571 -1.5574236,3.75759 -0.3535104,1.74334 -0.1046064,2.49195 0.9135046,2.74748 0.759968,0.19074 2.128642,-0.67126 2.394168,-1.50786 0.170308,-0.53659 0.178805,-0.5371 0.532832,-0.0317 0.632089,0.90243 1.203009,5.67455 0.714459,5.97191 -0.109141,0.0664 -0.205284,-0.67069 -0.213652,-1.63804 -0.01682,-1.94459 -0.303705,-3.75118 -0.592087,-3.72854 -0.102547,0.008 -0.484105,0.39068 -0.847907,0.85028 -0.611038,0.77195 -0.661327,1.04789 -0.659735,3.62009 0.0015,2.45219 0.05758,2.7952 0.469814,2.87459 0.269071,0.0518 0.808581,-0.27435 1.268917,-0.76714 0.753593,-0.80672 0.827315,-0.83076 1.249977,-0.40752 0.729409,0.7304 0.631032,5.21179 -0.148385,6.75942 -0.666747,1.3239 -0.628269,1.53154 0.191011,1.03074 1.374688,-0.8403 1.751083,1.90967 0.589649,4.30803 -0.309957,0.64006 -1.156509,1.78527 -1.881226,2.54492 -0.821372,0.86095 -1.377148,1.70802 -1.475589,2.24895 -0.08686,0.47729 -0.122684,2.65373 -0.07962,4.83654 l 0.07831,3.96875 0.574156,-1.24258 c 1.062575,-2.2996 4.129223,-4.71055 5.991671,-4.71055 0.578377,0 0.710214,0.121 0.710214,0.65184 0,0.56893 -2.193718,7.84865 -2.790041,9.25858 -0.141101,0.33362 0.316532,0.0815 1.286937,-0.70898 3.197872,-2.60497 5.833543,-3.64519 9.236069,-3.64519 1.879773,0 2.14609,0.0654 2.75821,0.67754 0.628909,0.62891 0.66919,0.81407 0.561219,2.57969 -0.128365,2.09912 -0.800221,4.07549 -2.144109,6.30724 l -0.880848,1.46279 1.911766,-0.12269 c 4.947047,-0.31748 7.422401,1.93125 5.075901,4.61119 -1.203224,1.37421 -3.688734,2.91776 -5.697327,3.53815 -1.620729,0.50059 -2.460422,0.52443 -17.878459,0.50756 -12.3176396,-0.0135 -16.4303882,-0.098 -17.2361913,-0.35419 z M 13.72238,146.81824 c 2.030737,-2.24404 2.968066,-5.24833 1.911136,-6.12551 -0.361304,-0.29985 -0.545187,-0.20291 -1.318708,0.69521 -1.502086,1.74405 -2.494777,3.96589 -2.494777,5.58383 0,0.77712 0.109073,1.41294 0.242384,1.41294 0.133311,0 0.880295,-0.70491 1.659965,-1.56647 z m -3.225266,-0.19048 c 0,-1.79286 -0.6308111,-3.18757 -2.2515565,-4.97814 -1.1163309,-1.2333 -1.145609,-1.24687 -1.4524638,-0.67351 -0.3675388,0.68675 -0.1729374,2.02462 0.5263526,3.61863 0.4835426,1.10221 2.5090107,3.52539 2.9467817,3.52539 0.126988,0 0.230886,-0.67157 0.230886,-1.49237 z m 3.503604,-5.98249 c -0.03755,-0.11594 0.191368,-0.71395 0.508704,-1.32891 0.634939,-1.23043 1.007927,-5.07017 0.568743,-5.85494 -0.217627,-0.38888 -0.348773,-0.35627 -1.198311,0.298 -0.524667,0.40407 -1.148083,1.05891 -1.385369,1.4552 -0.534359,0.89243 -0.992038,4.66706 -0.770803,6.35707 l 0.16452,1.25676 1.090394,-0.98619 c 0.599716,-0.54241 1.059671,-1.08105 1.022122,-1.19699 z"
       id="path24659" />
    <path
       style="fill:#7c6441;stroke-width:1.45729"
       d="m 9.2013873,126.13589 c -0.014954,-0.23138 0.2134829,-1.36171 0.507638,-2.51185 0.5551377,-2.17057 1.1964547,-3.15185 1.8867647,-2.88696 0.54888,0.21063 1.249048,1.75337 1.411994,3.11117 0.126895,1.05739 0.114428,1.04319 -0.220246,-0.25088 -0.37524,-1.45092 -1.075946,-2.72932 -1.495978,-2.72932 -0.412904,0 -1.03759,1.44981 -1.5661854,3.6349 -0.2732388,1.1295 -0.5090331,1.86433 -0.5239873,1.63294 z"
       id="path24622" />
    <path
       style="fill:#7c6441;stroke-width:1.45729"
       d="m 14.197055,130.44677 0.128066,-1.50893 0.08638,1.29368 c 0.04751,0.71153 -0.01012,1.39055 -0.128066,1.50894 -0.117943,0.11838 -0.156812,-0.46377 -0.08638,-1.29369 z"
       id="path24618" />
    <path
       style="fill:#7c6441;stroke-width:1.45729"
       d="m 14.621468,139.25659 c 0.104107,-0.29104 0.349973,-1.18401 0.546368,-1.98437 l 0.357083,-1.45521 -0.128791,1.26553 c -0.07084,0.69604 -0.316702,1.58901 -0.546369,1.98437 -0.229668,0.39537 -0.332399,0.48072 -0.228291,0.18968 z"
       id="path24604" />
    <path
       style="fill:#7c6441;stroke-width:1.45729"
       d="m 8.0950509,139.00658 c -1.1954251,-2.70246 -1.2903288,-5.84901 -0.2135646,-7.08077 l 0.5303679,-0.60672 -0.478724,0.78302 c -0.7355357,1.20306 -0.6180525,4.30609 0.243327,6.42688 0.766568,1.88735 0.7041588,2.25349 -0.081406,0.47759 z"
       id="path24602" />
    <path
       style="fill:#7c6441;stroke-width:1.45729"
       d="m -5.6275306,167.98486 c -1.2771696,-1.79362 -2.5096632,-4.88184 -2.6162272,-6.5554 -0.1416479,-2.22453 0.068097,-2.89842 1.0621158,-3.41244 2.1665069,-1.12035 9.9965723,1.14919 12.1583729,3.5241 0.6599344,0.72498 0.2007018,0.586 -0.6973245,-0.21104 -0.869661,-0.77187 -4.12148115,-2.31045 -5.820833,-2.7541 -0.8731249,-0.22795 -2.4779941,-0.42063 -3.5663759,-0.42819 -2.4602573,-0.0171 -2.9159154,0.38349 -2.9159154,2.56332 0,1.97701 0.9364095,4.41784 2.8586173,7.45121 0.5511001,0.86967 0.1824598,0.7282 -0.46243,-0.17746 z"
       id="path24595" />
    <path
       style="fill:#7c6441;stroke-width:1.45729"
       d="m -6.436218,176.98994 c -3.0506575,-0.9863 -5.787228,-2.82655 -6.534947,-4.39453 -0.350795,-0.73563 -0.357116,-0.95841 -0.04526,-1.59502 0.77512,-1.58226 2.426124,-2.22565 5.7389187,-2.23645 l 1.9368415,-0.006 1.7530486,1.86865 c 3.5550513,3.78947 8.0113799,6.3267 11.1213105,6.33196 0.6922019,0.001 0.8277811,-0.0794 0.6545333,-0.38898 -0.2311028,-0.41296 -2.188565,-2.94542 -7.28527553,-9.42532 -2.84550947,-3.61774 -3.02668307,-3.91248 -2.11666657,-3.4434 2.18975855,1.12872 5.2537698,4.52189 9.1161888,10.0955 0.9032739,1.30346 1.735257,2.36992 1.8488514,2.36992 0.7066103,0 0.5085783,-4.11643 -0.3464711,-7.20198 -0.6240826,-2.25208 -1.2850213,-3.60342 -2.6685917,-5.45614 -0.8141067,-1.09016 -1.3845718,-2.41882 -2.4948267,-5.81064 -0.7916607,-2.41852 -1.4046359,-4.6388 -1.3621672,-4.93396 0.1080759,-0.75114 0.6889169,-0.78454 2.4146803,-0.13885 1.7235185,0.64485 3.5250831,2.29827 4.3749305,4.01517 l 0.5632292,1.13786 0.0561,-3.70416 c 0.08672,-5.72551 0.159634,-5.30746 -1.1452518,-6.56584 -1.4712448,-1.41881 -2.5294136,-3.38044 -2.7596127,-5.11577 -0.155411,-1.17154 -0.1031891,-1.43165 0.385567,-1.9204 0.6695968,-0.6696 1.1541212,-0.49377 2.6542804,0.96324 l 0.9416251,0.91455 0.310783,-3.00144 c 0.170931,-1.65078 0.319759,-3.68043 0.330729,-4.51033 0.02008,-1.51943 -0.377196,-2.85672 -0.84867,-2.85672 -0.139981,0 -0.100178,-0.18596 0.08845,-0.41325 0.544314,-0.65585 0.403217,-2.75458 -0.2657175,-3.95238 -0.3250767,-0.58208 -0.4179729,-0.84997 -0.206436,-0.59531 0.6510525,0.78378 1.8835805,0.58565 2.7918265,-0.44878 0.969566,-1.10428 1.308354,-0.86182 1.496219,1.07079 l 0.126003,1.29622 -0.252205,-1.17165 c -0.234624,-1.08998 -0.792859,-2.09966 -0.792859,-1.43405 0,0.15304 -0.371403,0.6669 -0.82534,1.1419 -0.637654,0.66724 -0.875818,0.78196 -1.047316,0.50447 -0.186356,-0.30153 -0.276816,-0.30022 -0.563723,0.008 -0.188443,0.20255 -0.205822,0.29126 -0.03874,0.19775 0.166652,-0.0933 0.373648,0.0145 0.45999,0.23951 0.08634,0.225 0.06686,0.35339 -0.04329,0.28532 -0.110152,-0.0681 -0.146827,0.37222 -0.0815,0.97844 l 0.118776,1.10222 0.175647,-0.99511 c 0.281341,-1.5939 0.388057,-1.35364 0.423087,0.95254 0.02121,1.39609 -0.02555,1.79311 -0.132291,1.12332 -0.14367,-0.90151 -0.210133,-0.98124 -0.512259,-0.61454 -0.287351,0.34878 -0.281152,0.61668 0.03598,1.55484 0.30193,0.8932 0.415571,1.02347 0.536103,0.61454 0.09981,-0.33862 0.125077,-0.27676 0.07272,0.17802 -0.07926,0.68844 -0.07027,0.69234 0.737107,0.31941 0.449539,-0.20765 1.024364,-0.44551 1.277388,-0.52859 0.253025,-0.0831 0.409709,-0.23249 0.348187,-0.33204 -0.06152,-0.0995 -0.005,-0.35389 0.1257,-0.56523 0.352631,-0.57037 1.001753,0.16882 1.175933,1.3391 l 0.137301,0.92249 -0.271252,-0.85989 c -0.149189,-0.47294 -0.340011,-0.8599 -0.42405,-0.8599 -0.08404,0 -0.602287,0.356 -1.151663,0.79112 -1.566656,1.24081 -1.876575,2.18399 -2.027457,6.17013 l -0.132093,3.48979 0.765436,-0.79375 c 1.025549,-1.06348 2.882035,-2.51354 3.218048,-2.51354 0.504132,0 0.879305,1.13009 0.751526,2.26374 -0.181169,1.60733 -1.036044,3.21162 -2.565848,4.81515 -0.72953,0.76469 -1.392343,1.65766 -1.472919,1.98438 -0.08058,0.32671 -0.112464,2.49902 -0.07086,4.82736 l 0.07564,4.23333 0.574156,-1.24258 c 1.062575,-2.2996 4.129223,-4.71055 5.991671,-4.71055 0.565626,0 0.710214,0.12445 0.710214,0.61128 0,0.54268 -2.239312,8.01794 -2.777295,9.27115 -0.121269,0.2825 0.592504,-0.1305 1.686791,-0.97599 3.206985,-2.47785 5.499571,-3.33208 8.973885,-3.34372 1.701309,-0.006 2.007284,0.0706 2.579687,0.64297 0.832021,0.83202 0.878177,2.79851 0.122277,5.20967 -0.621432,1.98225 -2.125525,4.7729 -2.665267,4.94508 -0.295073,0.0941 -0.283097,0.009 0.05386,-0.38064 1.293756,-1.49787 2.87398,-5.73464 2.87398,-7.70547 0,-1.77949 -0.81729,-2.45349 -2.975093,-2.45349 -3.196657,0 -6.019352,1.08197 -8.942042,3.42758 -0.914835,0.73421 -1.745635,1.33492 -1.846223,1.33492 -0.419637,0 -2.405136,3.2336 -3.179997,5.17896 -0.869898,2.18397 -1.261739,4.744 -1.095325,7.15612 l 0.09347,1.35487 2.231422,-3.28916 c 1.227282,-1.80903 2.150933,-3.41938 2.052557,-3.57856 -0.100472,-0.16257 -0.05789,-0.21464 0.09716,-0.11882 0.151815,0.0938 0.610649,-0.27473 1.019632,-0.81901 1.934801,-2.57488 5.927476,-6.14899 6.86911,-6.14899 0.127311,0 -0.312814,0.56555 -0.978054,1.25677 -0.979726,1.018 -6.440059,8.25386 -9.184362,12.17084 l -0.602459,0.85989 1.010204,-1.3e-4 c 1.181257,-1.6e-4 3.177967,-0.71559 5.772704,-2.06841 1.27766,-0.66613 2.625356,-1.72495 4.345306,-3.41389 2.769578,-2.71966 3.116983,-2.87208 6.065259,-2.66113 1.778271,0.12723 3.339729,0.72389 3.934666,1.50349 0.177273,0.2323 0.326101,0.83235 0.330729,1.33343 0.01633,1.76791 -3.976434,4.75966 -7.407276,5.55022 -0.744142,0.17147 -7.074673,0.26977 -17.058267,0.26489 -14.4799354,-0.007 -16.0028795,-0.0491 -17.330207,-0.47824 z m 22.079362,-33.05181 c 0.520481,-1.52753 0.52379,-2.8027 0.0084,-3.23045 -0.532782,-0.44217 -1.074236,0.0516 -2.564099,2.33822 -1.055867,1.62054 -1.14181,1.88909 -1.231172,3.84705 l -0.09607,2.1049 1.736368,-1.92789 c 1.071202,-1.18936 1.893515,-2.3891 2.146589,-3.13183 z m -5.56766,0.15691 c -0.2449481,-0.47833 -0.9021228,-1.41841 -1.4603878,-2.08906 -0.5582651,-0.67065 -0.9386609,-1.29572 -0.845324,-1.38906 0.093337,-0.0933 -0.024545,-0.1697 -0.2619597,-0.1697 -0.6759499,0 -1.0415633,0.96402 -0.8353594,2.20262 0.2578136,1.54859 1.0252975,2.94727 2.4601483,4.48341 l 1.2322216,1.31922 0.07801,-1.74387 c 0.05544,-1.23938 -0.05083,-1.99545 -0.367349,-2.61356 z"
       id="path24590" />
    <path
       style="fill:#527d46;stroke-width:1.45729"
       d="m 9.2013873,126.13589 c -0.014954,-0.23138 0.2134829,-1.36171 0.507638,-2.51185 0.5551377,-2.17057 1.1964547,-3.15185 1.8867647,-2.88696 0.54888,0.21063 1.249048,1.75337 1.411994,3.11117 0.126895,1.05739 0.114428,1.04319 -0.220246,-0.25088 -0.37524,-1.45092 -1.075946,-2.72932 -1.495978,-2.72932 -0.412904,0 -1.03759,1.44981 -1.5661854,3.6349 -0.2732388,1.1295 -0.5090331,1.86433 -0.5239873,1.63294 z"
       id="path24529" />
    <path
       style="fill:#527d46;stroke-width:1.45729"
       d="m 14.197055,130.44677 0.128066,-1.50893 0.08638,1.29368 c 0.04751,0.71153 -0.01012,1.39055 -0.128066,1.50894 -0.117943,0.11838 -0.156812,-0.46377 -0.08638,-1.29369 z"
       id="path24525" />
    <path
       style="fill:#527d46;stroke-width:1.45729"
       d="m 14.621468,139.25659 c 0.104107,-0.29104 0.349973,-1.18401 0.546368,-1.98437 l 0.357083,-1.45521 -0.128791,1.26553 c -0.07084,0.69604 -0.316702,1.58901 -0.546369,1.98437 -0.229668,0.39537 -0.332399,0.48072 -0.228291,0.18968 z"
       id="path24515" />
    <path
       style="fill:#527d46;stroke-width:1.45729"
       d="m 8.0950509,139.00658 c -1.1954251,-2.70246 -1.2903288,-5.84901 -0.2135646,-7.08077 l 0.5303679,-0.60672 -0.478724,0.78302 c -0.7355357,1.20306 -0.6180525,4.30609 0.243327,6.42688 0.766568,1.88735 0.7041588,2.25349 -0.081406,0.47759 z"
       id="path24513" />
    <path
       style="fill:#527d46;stroke-width:1.45729"
       d="m -5.6275306,167.98486 c -1.2771696,-1.79362 -2.5096632,-4.88184 -2.6162272,-6.5554 -0.1416479,-2.22453 0.068097,-2.89842 1.0621158,-3.41244 2.1665069,-1.12035 9.9965723,1.14919 12.1583729,3.5241 0.6599344,0.72498 0.2007018,0.586 -0.6973245,-0.21104 -0.869661,-0.77187 -4.12148115,-2.31045 -5.820833,-2.7541 -0.8731249,-0.22795 -2.4779941,-0.42063 -3.5663759,-0.42819 -2.4602573,-0.0171 -2.9159154,0.38349 -2.9159154,2.56332 0,1.97701 0.9364095,4.41784 2.8586173,7.45121 0.5511001,0.86967 0.1824598,0.7282 -0.46243,-0.17746 z"
       id="path24491" />
    <path
       style="fill:#527d46;stroke-width:1.45729"
       d="m -6.436218,176.98994 c -3.0506575,-0.9863 -5.787228,-2.82655 -6.534947,-4.39453 -0.350795,-0.73563 -0.357116,-0.95841 -0.04526,-1.59502 0.77512,-1.58226 2.426124,-2.22565 5.7389187,-2.23645 l 1.9368415,-0.006 1.7530486,1.86865 c 3.5550513,3.78947 8.0113799,6.3267 11.1213105,6.33196 0.6922019,0.001 0.8277811,-0.0794 0.6545333,-0.38898 -0.2311028,-0.41296 -2.188565,-2.94542 -7.28527553,-9.42532 -2.84550947,-3.61774 -3.02668307,-3.91248 -2.11666657,-3.4434 2.18975855,1.12872 5.2537698,4.52189 9.1161888,10.0955 0.9032739,1.30346 1.735257,2.36992 1.8488514,2.36992 0.7066103,0 0.5085783,-4.11643 -0.3464711,-7.20198 -0.6240826,-2.25208 -1.2850213,-3.60342 -2.6685917,-5.45614 -0.8141067,-1.09016 -1.3845718,-2.41882 -2.4948267,-5.81064 -0.7916607,-2.41852 -1.4046359,-4.6388 -1.3621672,-4.93396 0.1080759,-0.75114 0.6889169,-0.78454 2.4146803,-0.13885 1.7235185,0.64485 3.5250831,2.29827 4.3749305,4.01517 l 0.5632292,1.13786 0.0561,-3.70416 c 0.08672,-5.72551 0.159634,-5.30746 -1.1452518,-6.56584 -1.4712448,-1.41881 -2.5294136,-3.38044 -2.7596127,-5.11577 -0.155411,-1.17154 -0.1031891,-1.43165 0.385567,-1.9204 0.6695968,-0.6696 1.1541212,-0.49377 2.6542804,0.96324 l 0.9416251,0.91455 0.310783,-3.00144 c 0.170931,-1.65078 0.319759,-3.68043 0.330729,-4.51033 0.02008,-1.51943 -0.377196,-2.85672 -0.84867,-2.85672 -0.139981,0 -0.100178,-0.18596 0.08845,-0.41325 0.544314,-0.65585 0.403217,-2.75458 -0.2657175,-3.95238 -0.3250767,-0.58208 -0.4179729,-0.84997 -0.206436,-0.59531 0.6510525,0.78378 1.8835805,0.58565 2.7918265,-0.44878 0.969566,-1.10428 1.308354,-0.86182 1.496219,1.07079 l 0.126003,1.29622 -0.252205,-1.17165 c -0.234624,-1.08998 -0.792859,-2.09966 -0.792859,-1.43405 0,0.15304 -0.371403,0.6669 -0.82534,1.1419 -0.637654,0.66724 -0.875818,0.78196 -1.047316,0.50447 -0.186356,-0.30153 -0.276816,-0.30022 -0.563723,0.008 -0.188443,0.20255 -0.205822,0.29126 -0.03874,0.19775 0.166652,-0.0933 0.373648,0.0145 0.45999,0.23951 0.08634,0.225 0.06686,0.35339 -0.04329,0.28532 -0.110152,-0.0681 -0.146827,0.37222 -0.0815,0.97844 l 0.118776,1.10222 0.175647,-0.99511 c 0.281341,-1.5939 0.388057,-1.35364 0.423087,0.95254 0.02121,1.39609 -0.02555,1.79311 -0.132291,1.12332 -0.14367,-0.90151 -0.210133,-0.98124 -0.512259,-0.61454 -0.287351,0.34878 -0.281152,0.61668 0.03598,1.55484 0.30193,0.8932 0.415571,1.02347 0.536103,0.61454 0.09981,-0.33862 0.125077,-0.27676 0.07272,0.17802 -0.07926,0.68844 -0.07027,0.69234 0.737107,0.31941 0.449539,-0.20765 1.024364,-0.44551 1.277388,-0.52859 0.253025,-0.0831 0.409709,-0.23249 0.348187,-0.33204 -0.06152,-0.0995 -0.005,-0.35389 0.1257,-0.56523 0.352631,-0.57037 1.001753,0.16882 1.175933,1.3391 l 0.137301,0.92249 -0.271252,-0.85989 c -0.149189,-0.47294 -0.340011,-0.8599 -0.42405,-0.8599 -0.08404,0 -0.602287,0.356 -1.151663,0.79112 -1.566656,1.24081 -1.876575,2.18399 -2.027457,6.17013 l -0.132093,3.48979 0.765436,-0.79375 c 1.025549,-1.06348 2.882035,-2.51354 3.218048,-2.51354 0.504132,0 0.879305,1.13009 0.751526,2.26374 -0.181169,1.60733 -1.036044,3.21162 -2.565848,4.81515 -0.72953,0.76469 -1.392343,1.65766 -1.472919,1.98438 -0.08058,0.32671 -0.112464,2.49902 -0.07086,4.82736 l 0.07564,4.23333 0.574156,-1.24258 c 1.062575,-2.2996 4.129223,-4.71055 5.991671,-4.71055 0.565626,0 0.710214,0.12445 0.710214,0.61128 0,0.54268 -2.239312,8.01794 -2.777295,9.27115 -0.121269,0.2825 0.592504,-0.1305 1.686791,-0.97599 3.206985,-2.47785 5.499571,-3.33208 8.973885,-3.34372 1.701309,-0.006 2.007284,0.0706 2.579687,0.64297 0.832021,0.83202 0.878177,2.79851 0.122277,5.20967 -0.621432,1.98225 -2.125525,4.7729 -2.665267,4.94508 -0.295073,0.0941 -0.283097,0.009 0.05386,-0.38064 1.293756,-1.49787 2.87398,-5.73464 2.87398,-7.70547 0,-1.77949 -0.81729,-2.45349 -2.975093,-2.45349 -3.196657,0 -6.019352,1.08197 -8.942042,3.42758 -0.914835,0.73421 -1.745635,1.33492 -1.846223,1.33492 -0.419637,0 -2.405136,3.2336 -3.179997,5.17896 -0.869898,2.18397 -1.261739,4.744 -1.095325,7.15612 l 0.09347,1.35487 2.231422,-3.28916 c 1.227282,-1.80903 2.150933,-3.41938 2.052557,-3.57856 -0.100472,-0.16257 -0.05789,-0.21464 0.09716,-0.11882 0.151815,0.0938 0.610649,-0.27473 1.019632,-0.81901 1.934801,-2.57488 5.927476,-6.14899 6.86911,-6.14899 0.127311,0 -0.312814,0.56555 -0.978054,1.25677 -0.979726,1.018 -6.440059,8.25386 -9.184362,12.17084 l -0.602459,0.85989 1.010204,-1.3e-4 c 1.181257,-1.6e-4 3.177967,-0.71559 5.772704,-2.06841 1.27766,-0.66613 2.625356,-1.72495 4.345306,-3.41389 2.769578,-2.71966 3.116983,-2.87208 6.065259,-2.66113 1.778271,0.12723 3.339729,0.72389 3.934666,1.50349 0.177273,0.2323 0.326101,0.83235 0.330729,1.33343 0.01633,1.76791 -3.976434,4.75966 -7.407276,5.55022 -0.744142,0.17147 -7.074673,0.26977 -17.058267,0.26489 -14.4799354,-0.007 -16.0028795,-0.0491 -17.330207,-0.47824 z m 22.079362,-33.05181 c 0.520481,-1.52753 0.52379,-2.8027 0.0084,-3.23045 -0.532782,-0.44217 -1.074236,0.0516 -2.564099,2.33822 -1.055867,1.62054 -1.14181,1.88909 -1.231172,3.84705 l -0.09607,2.1049 1.736368,-1.92789 c 1.071202,-1.18936 1.893515,-2.3891 2.146589,-3.13183 z m -5.56766,0.15691 c -0.2449481,-0.47833 -0.9021228,-1.41841 -1.4603878,-2.08906 -0.5582651,-0.67065 -0.9386609,-1.29572 -0.845324,-1.38906 0.093337,-0.0933 -0.024545,-0.1697 -0.2619597,-0.1697 -0.6759499,0 -1.0415633,0.96402 -0.8353594,2.20262 0.2578136,1.54859 1.0252975,2.94727 2.4601483,4.48341 l 1.2322216,1.31922 0.07801,-1.74387 c 0.05544,-1.23938 -0.05083,-1.99545 -0.367349,-2.61356 z"
       id="path24486" />
    <path
       style="fill:#568634;stroke-width:1.45729"
       d="m 9.2013873,126.13589 c -0.014954,-0.23138 0.2134829,-1.36171 0.507638,-2.51185 0.5551377,-2.17057 1.1964547,-3.15185 1.8867647,-2.88696 0.54888,0.21063 1.249048,1.75337 1.411994,3.11117 0.126895,1.05739 0.114428,1.04319 -0.220246,-0.25088 -0.37524,-1.45092 -1.075946,-2.72932 -1.495978,-2.72932 -0.412904,0 -1.03759,1.44981 -1.5661854,3.6349 -0.2732388,1.1295 -0.5090331,1.86433 -0.5239873,1.63294 z"
       id="path24398" />
    <path
       style="fill:#568634;stroke-width:1.45729"
       d="m 13.936698,128.20541 c 0,-0.37858 -0.117497,-0.99737 -0.261103,-1.37508 l -0.261103,-0.68675 -0.827267,0.86796 -0.827267,0.86797 0.691495,-0.8802 c 0.380322,-0.48411 0.691495,-1.0047 0.691495,-1.15687 0,-0.17325 0.143513,-0.15758 0.383907,0.0419 0.404785,0.33594 0.854443,2.56477 0.574009,2.84521 -0.09029,0.0903 -0.164166,-0.14559 -0.164166,-0.52417 z"
       id="path24389" />
    <path
       style="fill:#568634;stroke-width:1.45729"
       d="m 14.197055,130.44677 0.128066,-1.50893 0.08638,1.29368 c 0.04751,0.71153 -0.01012,1.39055 -0.128066,1.50894 -0.117943,0.11838 -0.156812,-0.46377 -0.08638,-1.29369 z"
       id="path24387" />
    <path
       style="fill:#568634;stroke-width:1.45729"
       d="m 15.259614,134.14131 c 0,-0.31529 -0.248047,-0.82131 -0.551215,-1.12448 -0.602599,-0.6026 -0.492785,-1.04418 0.130939,-0.52654 0.421581,0.34989 0.830788,1.81377 0.577746,2.06682 -0.08661,0.0866 -0.15747,-0.1005 -0.15747,-0.4158 z"
       id="path24380" />
    <path
       style="fill:#568634;stroke-width:1.45729"
       d="m 14.621468,139.25659 c 0.104107,-0.29104 0.349973,-1.18401 0.546368,-1.98437 l 0.357083,-1.45521 -0.128791,1.26553 c -0.07084,0.69604 -0.316702,1.58901 -0.546369,1.98437 -0.229668,0.39537 -0.332399,0.48072 -0.228291,0.18968 z"
       id="path24370" />
    <path
       style="fill:#568634;stroke-width:1.45729"
       d="m 8.0950509,139.00658 c -1.1954251,-2.70246 -1.2903288,-5.84901 -0.2135646,-7.08077 l 0.5303679,-0.60672 -0.478724,0.78302 c -0.7355357,1.20306 -0.6180525,4.30609 0.243327,6.42688 0.766568,1.88735 0.7041588,2.25349 -0.081406,0.47759 z"
       id="path24366" />
    <path
       style="fill:#568634;stroke-width:1.45729"
       d="m 11.441952,146.26805 c 0.194909,-1.17801 1.311811,-3.53981 1.895173,-4.00754 0.257888,-0.20678 0.171468,0.0329 -0.204515,0.56719 -0.358116,0.5089 -0.919491,1.69953 -1.247499,2.64583 -0.344114,0.99278 -0.531568,1.32885 -0.443159,0.79452 z"
       id="path24354" />
    <path
       style="fill:#568634;stroke-width:1.45729"
       d="m 27.997476,167.55194 c 2.42862,-3.59853 3.092375,-8.70821 1.197244,-9.21654 -1.012031,-0.27147 -3.708284,-0.16562 -5.071565,0.19909 -1.851585,0.49534 -3.820386,1.54465 -5.566108,2.96656 -0.819829,0.66776 -1.551742,1.15297 -1.626472,1.07824 -0.189112,-0.18912 3.245933,-2.69865 4.614462,-3.37118 1.734574,-0.85242 3.712742,-1.29181 5.831291,-1.29526 1.698905,-0.003 2.008093,0.0747 2.579687,0.6463 1.212558,1.21255 0.754043,4.54531 -1.118271,8.12826 -0.507633,0.97142 -1.082634,1.8275 -1.277781,1.90238 -0.195147,0.0749 0.0017,-0.39214 0.437513,-1.03785 z"
       id="path24351" />
    <path
       style="fill:#568634;stroke-width:1.45729"
       d="m -5.6275306,167.98486 c -1.8624869,-2.61562 -2.9698057,-6.36052 -2.5470513,-8.61399 0.2542417,-1.35523 1.4413168,-1.84753 3.8364015,-1.59104 3.2915796,0.3525 7.8932882,2.20752 9.3149113,3.755 0.5123723,0.55773 0.3861702,0.51368 -0.6973245,-0.24336 -2.8401297,-1.98442 -6.2574176,-3.15921 -9.3255257,-3.20591 -1.7715691,-0.027 -2.0288901,0.0341 -2.4772584,0.5878 -1.1012721,1.36001 -0.4451907,4.76556 1.5979544,8.29457 1.0936317,1.88897 1.2157944,2.306 0.2978927,1.01693 z"
       id="path24348" />
    <path
       style="fill:#568634;stroke-width:1.45729"
       d="m -6.7008013,176.88674 c -3.0228947,-1.03438 -5.7220347,-2.9089 -6.3413077,-4.40396 -0.257039,-0.62055 -0.250347,-0.91955 0.03354,-1.49877 0.761815,-1.55434 2.431913,-2.20915 5.6622849,-2.22007 l 1.8680607,-0.006 2.6370649,2.57969 c 2.82707037,2.76556 4.6518306,3.99726 7.3994173,4.99459 1.6842163,0.61133 3.8221871,0.8433 3.8221871,0.4147 0,-0.11721 -0.6282743,-0.98041 -1.396165,-1.91823 -0.7678908,-0.93782 -2.5765078,-3.25294 -4.0191489,-5.14471 -1.4426411,-1.89177 -3.15054848,-4.06466 -3.79534965,-4.82864 -0.64480115,-0.76399 -1.05193825,-1.38907 -0.90474905,-1.38907 0.1471893,0 0.97398893,0.52001 1.83733263,1.15556 1.64043307,1.20762 4.44219187,4.51352 7.74063987,9.13346 2.2909642,3.20882 2.5502672,3.15392 2.3141902,-0.48996 -0.2620971,-4.04551 -1.365622,-7.25985 -3.3494821,-9.75634 -0.9115928,-1.14715 -1.3653859,-2.1606 -2.4156489,-5.39484 -1.6120412,-4.9642 -1.7629774,-5.70211 -1.2097546,-5.9144 0.9010235,-0.34576 4.6451467,1.4025 4.277528,1.99732 -0.072545,0.11737 0.075149,0.37573 0.3282082,0.57412 0.4163661,0.32642 0.4255859,0.31669 0.096982,-0.10231 -0.1997193,-0.25466 -0.2518757,-0.46302 -0.115903,-0.46302 0.3076815,0 1.3552816,1.39947 1.9756351,2.63922 l 0.4666833,0.93265 0.07041,-3.43958 c 0.122786,-5.99849 0.198209,-5.54117 -1.1241421,-6.81629 -1.4849722,-1.43193 -2.5434299,-3.38906 -2.7743601,-5.1299 -0.155411,-1.17154 -0.1031891,-1.43165 0.385567,-1.9204 0.4554861,-0.45549 0.6683997,-0.51017 1.095838,-0.28141 0.2917824,0.15616 0.4551734,0.40583 0.3630912,0.55482 -0.092082,0.14899 0.1129424,0.5895 0.4556103,0.97891 l 0.6230325,0.70802 -0.7354022,-0.64876 c -0.4044712,-0.35682 -0.6760986,-0.8033 -0.6036164,-0.99219 0.085366,-0.22246 -0.090876,-0.34342 -0.500346,-0.34342 -0.4789322,0 -0.6720242,0.18162 -0.7967356,0.74943 -0.3749719,1.70724 0.7876174,4.35251 2.7466668,6.24957 l 1.0800576,1.04589 0.03047,-1.04589 c 0.03636,-1.248 -0.0035,-1.87968 -0.174599,-2.76567 -0.104907,-0.54331 -0.0789,-0.58132 0.145595,-0.21282 0.150324,0.24675 0.296916,0.99089 0.325761,1.65364 0.02884,0.66276 0.175378,1.20683 0.325631,1.20906 0.150252,0.002 0.09459,0.11947 -0.123689,0.26053 -0.264583,0.17099 -0.286632,0.25784 -0.06615,0.26054 0.181901,0.002 0.339098,0.21241 0.349326,0.46707 0.0159,0.39593 0.05154,0.38635 0.245987,-0.0661 0.215751,-0.50208 0.228342,-0.49824 0.245987,0.0749 0.02848,0.92527 3.307314,-2.82084 3.841709,-4.3892 0.521392,-1.5302 0.523592,-2.80286 0.0056,-3.23277 -0.335729,-0.27863 -0.52721,-0.22783 -1.124479,0.29833 l -0.719848,0.63415 0.641433,-0.7276 c 0.771505,-0.87515 1.221727,-0.91931 1.628259,-0.1597 0.742144,1.38671 -0.314774,4.38814 -2.232127,6.33879 -0.628781,0.6397 -1.281415,1.42316 -1.450297,1.74101 -0.391372,0.7366 -0.4305,9.34396 -0.04248,9.34396 0.145521,0 0.264583,-0.20995 0.264583,-0.46656 0,-0.2566 0.415435,-1.08343 0.923189,-1.83741 1.247572,-1.85253 3.759056,-3.51687 5.306968,-3.51687 0.885938,0 0.850175,0.52952 -0.285911,4.23334 -1.533668,4.99999 -1.986361,6.09869 -3.182077,7.72295 -2.045952,2.77923 -3.493171,7.63299 -3.180099,10.66559 0.06009,0.58208 0.119178,1.22345 0.131302,1.42526 0.01213,0.20181 0.815275,-0.81023 1.784778,-2.24896 2.923453,-4.33838 5.276146,-7.35659 6.922892,-8.88118 1.691941,-1.56644 3.888977,-3.03929 3.214884,-2.1552 -0.202546,0.26565 -0.568115,0.66159 -0.812377,0.87987 -0.380048,0.33963 -8.710988,11.62713 -9.351135,12.66975 -0.184459,0.30044 0.03927,0.34471 1.239206,0.2452 0.985688,-0.0817 2.209586,-0.47904 3.744457,-1.21553 3.062372,-1.46943 4.38372,-2.41722 6.687403,-4.79683 l 1.943731,-2.0078 h 2.312123 c 2.742824,0 3.457389,0.17024 4.54069,1.08178 0.633346,0.53292 0.814141,0.89799 0.814141,1.64391 0,0.82063 -0.212643,1.15995 -1.474958,2.35364 -1.552387,1.468 -3.956671,2.77686 -5.940732,3.23404 -0.7421,0.171 -7.102073,0.27252 -17.058267,0.27229 -15.7160203,-3.6e-4 -15.8922211,-0.006 -17.59479,-0.58884 z M 4.2811102,152.97897 c 0.2173442,0.0834 0.3951712,0.0363 0.3951712,-0.10464 0,-0.14096 -0.3869531,-0.24688 -0.8598958,-0.23539 -0.4729426,0.0115 -0.7237071,0.0767 -0.5572543,0.14497 0.1664528,0.0683 0.2523912,0.38628 0.1909741,0.70672 -0.1045539,0.54551 -0.094229,0.54294 0.1620831,-0.0403 0.1736193,-0.3951 0.4182945,-0.5675 0.6689217,-0.47132 z"
       id="path24344" />
    <path
       style="fill:#4a7844;stroke-width:1.45729"
       d="m 11.441952,146.26805 c 0.194909,-1.17801 1.311811,-3.53981 1.895173,-4.00754 0.257888,-0.20678 0.171468,0.0329 -0.204515,0.56719 -0.358116,0.5089 -0.919491,1.69953 -1.247499,2.64583 -0.344114,0.99278 -0.531568,1.32885 -0.443159,0.79452 z"
       id="path24239" />
    <path
       style="fill:#4a7844;stroke-width:1.45729"
       d="m 27.997476,167.55194 c 2.42862,-3.59853 3.092375,-8.70821 1.197244,-9.21654 -1.012031,-0.27147 -3.708284,-0.16562 -5.071565,0.19909 -1.851585,0.49534 -3.820386,1.54465 -5.566108,2.96656 -0.819829,0.66776 -1.551742,1.15297 -1.626472,1.07824 -0.189112,-0.18912 3.245933,-2.69865 4.614462,-3.37118 1.734574,-0.85242 3.712742,-1.29181 5.831291,-1.29526 1.698905,-0.003 2.008093,0.0747 2.579687,0.6463 1.212558,1.21255 0.754043,4.54531 -1.118271,8.12826 -0.507633,0.97142 -1.082634,1.8275 -1.277781,1.90238 -0.195147,0.0749 0.0017,-0.39214 0.437513,-1.03785 z"
       id="path24232" />
    <path
       style="fill:#4a7844;stroke-width:1.45729"
       d="m -5.6275306,167.98486 c -1.8624869,-2.61562 -2.9698057,-6.36052 -2.5470513,-8.61399 0.2542417,-1.35523 1.4413168,-1.84753 3.8364015,-1.59104 3.2915796,0.3525 7.8932882,2.20752 9.3149113,3.755 0.5123723,0.55773 0.3861702,0.51368 -0.6973245,-0.24336 -2.8401297,-1.98442 -6.2574176,-3.15921 -9.3255257,-3.20591 -1.7715691,-0.027 -2.0288901,0.0341 -2.4772584,0.5878 -1.1012721,1.36001 -0.4451907,4.76556 1.5979544,8.29457 1.0936317,1.88897 1.2157944,2.306 0.2978927,1.01693 z"
       id="path24231" />
    <path
       style="fill:#4a7844;stroke-width:1.45729"
       d="m -6.7008013,176.88674 c -3.0228947,-1.03438 -5.7220347,-2.9089 -6.3413077,-4.40396 -0.257039,-0.62055 -0.250347,-0.91955 0.03354,-1.49877 0.761815,-1.55434 2.431913,-2.20915 5.6622849,-2.22007 l 1.8680607,-0.006 2.6370649,2.57969 c 2.82707037,2.76556 4.6518306,3.99726 7.3994173,4.99459 1.6842163,0.61133 3.8221871,0.8433 3.8221871,0.4147 0,-0.11721 -0.6282743,-0.98041 -1.396165,-1.91823 -0.7678908,-0.93782 -2.5765078,-3.25294 -4.0191489,-5.14471 -1.4426411,-1.89177 -3.15054848,-4.06466 -3.79534965,-4.82864 -0.64480115,-0.76399 -1.05193825,-1.38907 -0.90474905,-1.38907 0.1471893,0 0.97398893,0.52001 1.83733263,1.15556 1.64043307,1.20762 4.44219187,4.51352 7.74063987,9.13346 2.2909642,3.20882 2.5502672,3.15392 2.3141902,-0.48996 -0.2620971,-4.04551 -1.365622,-7.25985 -3.3494821,-9.75634 -0.9115928,-1.14715 -1.3653859,-2.1606 -2.4156489,-5.39484 -1.6120412,-4.9642 -1.7629774,-5.70211 -1.2097546,-5.9144 0.9010235,-0.34576 4.6451467,1.4025 4.277528,1.99732 -0.072545,0.11737 0.075149,0.37573 0.3282082,0.57412 0.4163661,0.32642 0.4255859,0.31669 0.096982,-0.10231 -0.1997193,-0.25466 -0.2518757,-0.46302 -0.115903,-0.46302 0.3076815,0 1.3552816,1.39947 1.9756351,2.63922 l 0.4666833,0.93265 0.06556,-3.43958 c 0.03606,-1.89177 0.08763,-4.0349 0.114596,-4.7625 0.02697,-0.7276 0.0739,-1.9945 0.104295,-2.81532 0.03039,-0.82082 -0.02212,-1.77332 -0.116688,-2.11667 -0.141729,-0.51456 -0.122334,-0.54542 0.110372,-0.17562 0.155274,0.24675 0.305915,0.99089 0.33476,1.65364 0.02884,0.66276 0.175378,1.20683 0.325631,1.20906 0.150252,0.002 0.09459,0.11947 -0.123689,0.26053 -0.264583,0.17099 -0.286632,0.25784 -0.06615,0.26054 0.181901,0.002 0.339098,0.21241 0.349326,0.46707 0.0159,0.39593 0.05154,0.38635 0.245987,-0.0661 0.214819,-0.49991 0.228419,-0.49539 0.245987,0.0818 0.01023,0.33601 0.107893,0.55553 0.217034,0.48783 0.10914,-0.0677 0.161156,2.00886 0.11559,4.61459 -0.05634,3.22156 0.0072,4.7377 0.198437,4.7377 0.154707,0 0.281285,-0.20995 0.281285,-0.46656 0,-0.2566 0.415435,-1.08343 0.923189,-1.83741 1.247572,-1.85253 3.759056,-3.51687 5.306968,-3.51687 0.885938,0 0.850175,0.52952 -0.285911,4.23334 -1.533668,4.99999 -1.986361,6.09869 -3.182077,7.72295 -2.045952,2.77923 -3.493171,7.63299 -3.180099,10.66559 0.06009,0.58208 0.119178,1.22345 0.131302,1.42526 0.01213,0.20181 0.815275,-0.81023 1.784778,-2.24896 2.923453,-4.33838 5.276146,-7.35659 6.922892,-8.88118 1.691941,-1.56644 3.888977,-3.03929 3.214884,-2.1552 -0.202546,0.26565 -0.568115,0.66159 -0.812377,0.87987 -0.380048,0.33963 -8.710988,11.62713 -9.351135,12.66975 -0.184459,0.30044 0.03927,0.34471 1.239206,0.2452 0.985688,-0.0817 2.209586,-0.47904 3.744457,-1.21553 3.062372,-1.46943 4.38372,-2.41722 6.687403,-4.79683 l 1.943731,-2.0078 h 2.312123 c 2.742824,0 3.457389,0.17024 4.54069,1.08178 0.633346,0.53292 0.814141,0.89799 0.814141,1.64391 0,0.82063 -0.212643,1.15995 -1.474958,2.35364 -1.552387,1.468 -3.956671,2.77686 -5.940732,3.23404 -0.7421,0.171 -7.102073,0.27252 -17.058267,0.27229 -15.7160203,-3.6e-4 -15.8922211,-0.006 -17.59479,-0.58884 z M 4.2811102,152.97897 c 0.2173442,0.0834 0.3951712,0.0363 0.3951712,-0.10464 0,-0.14096 -0.3869531,-0.24688 -0.8598958,-0.23539 -0.4729426,0.0115 -0.7237071,0.0767 -0.5572543,0.14497 0.1664528,0.0683 0.2523912,0.38628 0.1909741,0.70672 -0.1045539,0.54551 -0.094229,0.54294 0.1620831,-0.0403 0.1736193,-0.3951 0.4182945,-0.5675 0.6689217,-0.47132 z"
       id="path24226" />
    <path
       style="fill:#6c5634;stroke-width:1.45729"
       d="m 3.6943863,160.9458 c -1.7974587,-1.245 -3.83883688,-2.10251 -6.2941462,-2.64393 -0.8731249,-0.19254 -1.2726195,-0.35953 -0.8877657,-0.3711 1.803201,-0.0542 7.1730088,2.21455 8.4442313,3.5677 0.7925015,0.84358 0.6865052,0.79717 -1.2623194,-0.55267 z"
       id="path24142" />
    <path
       style="fill:#6c5634;stroke-width:1.45729"
       d="m 16.847114,162.5394 c 0,-0.15093 3.049945,-2.42745 3.764463,-2.80985 0.945264,-0.50589 0.433008,1.2e-4 -0.803162,0.79337 -0.699618,0.44894 -1.55381,1.11619 -1.898204,1.48278 -0.57584,0.61296 -1.063097,0.85757 -1.063097,0.5337 z"
       id="path24141" />
    <path
       style="fill:#6c5634;stroke-width:1.45729"
       d="m 28.242728,167.22154 c 1.936627,-3.11538 2.704697,-7.38233 1.538732,-8.54829 -0.508778,-0.50878 -0.778154,-0.54833 -2.976562,-0.437 -1.329438,0.0673 -2.893409,0.30302 -3.475493,0.52377 -0.582083,0.22074 -1.296458,0.49445 -1.587499,0.60823 -0.365994,0.14308 -0.447581,0.12125 -0.264584,-0.0708 0.569631,-0.59773 3.024743,-1.20713 5.339098,-1.32526 2.33394,-0.11913 2.455215,-0.0974 3.108854,0.55621 1.247763,1.24776 0.806561,4.53449 -1.097885,8.1787 -0.513327,0.98227 -1.032719,1.78594 -1.154204,1.78594 -0.121484,0 0.13481,-0.57219 0.569543,-1.27153 z"
       id="path24139" />
    <path
       style="fill:#6c5634;stroke-width:1.45729"
       d="m -5.6275306,167.98488 c -1.0984822,-1.54268 -2.4293466,-4.73431 -2.5790766,-6.18506 -0.2411985,-2.33699 0.053308,-3.33378 1.1161898,-3.77788 0.4959826,-0.20723 1.3520951,-0.36194 1.9024721,-0.34378 0.8614661,0.0284 0.7991704,0.0622 -0.4477714,0.24292 -2.0802563,0.30147 -2.4845843,0.88118 -2.3273421,3.33686 0.093804,1.46497 0.3392602,2.35215 1.0855308,3.92359 0.530375,1.11681 1.2119364,2.37832 1.5145807,2.80335 0.3026443,0.42502 0.4907312,0.77277 0.4179707,0.77277 -0.07276,0 -0.3799097,-0.34775 -0.682554,-0.77277 z"
       id="path24137" />
    <path
       style="fill:#6c5634;stroke-width:1.45729"
       d="m -6.7008013,176.88674 c -3.0228947,-1.03438 -5.7220347,-2.9089 -6.3413077,-4.40396 -0.257039,-0.62055 -0.250347,-0.91955 0.03354,-1.49877 0.761353,-1.5534 2.438523,-2.21177 5.6463074,-2.21647 l 1.8520832,-0.003 2.7967301,2.7203 c 3.14909143,3.06304 5.7442779,4.63278 8.8499527,5.35303 2.4175587,0.56067 2.6465715,0.27601 1.2248711,-1.52248 -0.6081105,-0.76928 -2.1959923,-2.82743 -3.5286262,-4.57368 -1.3326339,-1.74625 -3.19448419,-4.11558 -4.1374451,-5.26518 l -1.7144744,-2.09017 1.14912971,0.63496 c 2.05840269,1.1374 4.30687169,3.74049 9.97995709,11.55399 0.3453653,0.47567 0.739239,0.79606 0.8752748,0.71199 0.4194176,-0.25922 0.2658726,-3.83102 -0.2747883,-6.39221 -0.5578616,-2.64268 -1.3092192,-4.34556 -2.7504781,-6.23371 -0.5092661,-0.66718 -1.1000119,-1.5497 -1.3127684,-1.96115 -0.4526924,-0.87548 -2.8229604,-8.41471 -2.8229604,-8.97913 0,-1.21208 2.8626969,-0.32704 4.8668568,1.50465 1.2944332,1.18304 2.505581,3.014 2.1974987,3.32209 -0.068538,0.0685 -0.3844565,-0.41215 -0.7020419,-1.0682 -0.9574008,-1.97772 -3.5620701,-3.84185 -5.3879558,-3.85608 -0.8543629,-0.007 -0.908115,-0.42534 0.5332081,4.15319 0.6819458,2.16628 1.0692248,3.01115 1.4332317,3.12668 0.274332,0.0871 0.5078952,0.23958 0.5190291,0.33892 0.089522,0.79869 0.2592701,1.24392 0.5055581,1.32601 0.2081796,0.0694 0.2058175,0.19816 -0.00837,0.45624 -0.3353226,0.40403 -0.092536,1.00757 0.3061905,0.76114 0.1418401,-0.0877 0.4206695,-0.0243 0.6196208,0.14083 0.2365746,0.19634 0.4185829,0.20822 0.5260499,0.0343 0.090376,-0.14623 0.3688665,-0.20031 0.6188677,-0.12018 0.2796535,0.0896 0.3421506,0.0597 0.1624291,-0.0777 -0.2024985,-0.15486 -0.1291701,-0.38574 0.2390159,-0.75256 0.4525672,-0.45089 0.5068079,-0.46072 0.3666812,-0.0664 -0.090449,0.25449 -0.064293,0.73074 0.058124,1.05833 0.2013977,0.53893 0.6755709,-8.7484 0.6695749,-13.11454 -0.0017,-1.22183 0.06045,-1.45376 0.301223,-1.12448 0.166835,0.22816 0.431495,0.41483 0.588133,0.41483 0.156639,0 0.336958,0.32743 0.400709,0.72761 0.06375,0.40018 0.08626,0.13229 0.05002,-0.59531 -0.03624,-0.72761 -0.01232,-1.1131 0.05317,-0.85666 0.06549,0.25644 0.19935,0.41643 0.297478,0.35553 0.09813,-0.0609 0.141132,2.02124 0.09557,4.62697 -0.04953,2.83263 0.01696,4.7377 0.165364,4.7377 0.136517,0 0.317867,-0.32742 0.403001,-0.72761 0.416502,-1.95781 4.137475,-5.08172 6.062919,-5.09007 0.972633,-0.004 0.952192,0.46088 -0.180098,4.09789 -1.652977,5.30949 -2.043252,6.34426 -2.644459,7.01145 -1.135243,1.25985 -1.745907,2.34473 -2.677247,4.75627 -0.807046,2.08971 -0.95818,2.84339 -1.099692,5.48397 -0.115791,2.16063 -0.07915,3.0312 0.124541,2.95897 0.158731,-0.0563 0.878875,-1.00835 1.60032,-2.1157 3.588831,-5.50853 7.41524,-9.97722 9.588581,-11.19806 l 0.91045,-0.51143 -0.926042,1.05567 c -0.509323,0.58062 -1.654245,2.06092 -2.544273,3.28956 -0.890027,1.22863 -2.641511,3.6299 -3.892188,5.33615 -1.250676,1.70624 -2.481934,3.41967 -2.736127,3.80762 l -0.462169,0.70536 1.443941,-0.1249 c 1.624322,-0.1405 4.666725,-1.38732 6.8679,-2.81456 0.800364,-0.51895 2.380939,-1.90237 3.512388,-3.07426 l 2.057179,-2.1307 h 2.308445 c 2.739074,0 3.453968,0.17046 4.537012,1.08178 0.633346,0.53292 0.814141,0.89799 0.814141,1.64391 0,0.81543 -0.211071,1.15846 -1.410983,2.29315 -1.515916,1.43351 -3.738279,2.65404 -5.865058,3.22111 -1.033309,0.27551 -4.798203,0.35192 -17.197916,0.34904 -15.7116813,-0.004 -15.8926916,-0.01 -17.5947904,-0.59217 z M 12.756695,160.89562 c 0.08378,-0.38639 0.261325,-0.53446 0.521241,-0.43472 0.265719,0.10197 0.394178,-0.016 0.394178,-0.36211 0,-0.28236 0.06643,-0.57981 0.147613,-0.66099 0.236861,-0.23687 1.184262,0.0954 1.021754,0.35839 -0.08118,0.13135 -0.257927,0.17064 -0.392774,0.0873 -0.134846,-0.0833 -0.392086,0.1826 -0.571644,0.59099 -0.179558,0.40839 -0.447955,0.83 -0.596438,0.93691 -0.292638,0.21071 -0.283931,0.21543 0.574982,0.31151 0.462732,0.0518 0.53351,-0.0226 0.349191,-0.36703 -0.296907,-0.55478 0.01175,-1.04728 0.744823,-1.18845 0.506943,-0.0976 0.557085,-0.0245 0.412161,0.60151 -0.159792,0.69018 -0.151752,0.69597 0.254878,0.18349 0.230931,-0.29104 0.43203,-0.70776 0.446886,-0.92604 0.01806,-0.26536 0.09751,-0.22152 0.239758,0.13229 0.117011,0.29104 0.101114,0.74377 -0.03533,1.00606 -0.136441,0.26228 -0.205034,0.679 -0.15243,0.92604 0.0526,0.24703 0.361252,-0.33576 0.685885,-1.29509 0.324632,-0.95933 0.516014,-1.97136 0.425294,-2.24896 -0.113197,-0.34637 -0.08877,-0.39903 0.07785,-0.16786 0.166201,0.23058 0.507947,-0.53332 1.083292,-2.42149 0.462273,-1.51709 0.840496,-2.88906 0.840496,-3.04883 0,-0.87232 -3.312483,0.66703 -4.670874,2.17061 -1.180786,1.30699 -2.042357,3.13524 -1.604904,3.4056 0.213957,0.13223 0.173987,0.24161 -0.131076,0.35867 -0.255344,0.098 -0.375161,0.33452 -0.286494,0.56558 0.123981,0.32309 0.19413,0.33134 0.376117,0.0443 0.174888,-0.27589 0.224596,-0.27892 0.227763,-0.0139 0.0022,0.18647 -0.174542,0.40757 -0.392823,0.49133 -0.288705,0.11079 -0.387055,0.52317 -0.360844,1.51305 0.01982,0.74842 0.08291,1.0631 0.140217,0.6993 0.0573,-0.3638 0.161364,-0.92515 0.231249,-1.24743 z"
       id="path24127" />
    <path
       style="fill:#45703b;stroke-width:1.45729"
       d="m 3.6943863,160.9458 c -1.7974587,-1.245 -3.83883688,-2.10251 -6.2941462,-2.64393 -0.8731249,-0.19254 -1.2726195,-0.35953 -0.8877657,-0.3711 1.803201,-0.0542 7.1730088,2.21455 8.4442313,3.5677 0.7925015,0.84358 0.6865052,0.79717 -1.2623194,-0.55267 z"
       id="path24027" />
    <path
       style="fill:#45703b;stroke-width:1.45729"
       d="m 16.847114,162.5394 c 0,-0.15093 3.049945,-2.42745 3.764463,-2.80985 0.945264,-0.50589 0.433008,1.2e-4 -0.803162,0.79337 -0.699618,0.44894 -1.55381,1.11619 -1.898204,1.48278 -0.57584,0.61296 -1.063097,0.85757 -1.063097,0.5337 z"
       id="path24025" />
    <path
       style="fill:#45703b;stroke-width:1.45729"
       d="m 28.242728,167.22154 c 1.936627,-3.11538 2.704697,-7.38233 1.538732,-8.54829 -0.508778,-0.50878 -0.778154,-0.54833 -2.976562,-0.437 -1.329438,0.0673 -2.893409,0.30302 -3.475493,0.52377 -0.582083,0.22074 -1.296458,0.49445 -1.587499,0.60823 -0.365994,0.14308 -0.447581,0.12125 -0.264584,-0.0708 0.569631,-0.59773 3.024743,-1.20713 5.339098,-1.32526 2.33394,-0.11913 2.455215,-0.0974 3.108854,0.55621 1.247763,1.24776 0.806561,4.53449 -1.097885,8.1787 -0.513327,0.98227 -1.032719,1.78594 -1.154204,1.78594 -0.121484,0 0.13481,-0.57219 0.569543,-1.27153 z"
       id="path24022" />
    <path
       style="fill:#45703b;stroke-width:1.45729"
       d="m -5.6275306,167.98488 c -1.0984822,-1.54268 -2.4293466,-4.73431 -2.5790766,-6.18506 -0.2411985,-2.33699 0.053308,-3.33378 1.1161898,-3.77788 0.4959826,-0.20723 1.3520951,-0.36194 1.9024721,-0.34378 0.8614661,0.0284 0.7991704,0.0622 -0.4477714,0.24292 -2.0802563,0.30147 -2.4845843,0.88118 -2.3273421,3.33686 0.093804,1.46497 0.3392602,2.35215 1.0855308,3.92359 0.530375,1.11681 1.2119364,2.37832 1.5145807,2.80335 0.3026443,0.42502 0.4907312,0.77277 0.4179707,0.77277 -0.07276,0 -0.3799097,-0.34775 -0.682554,-0.77277 z"
       id="path24021" />
    <path
       style="fill:#45703b;stroke-width:1.45729"
       d="m -6.7008013,176.88674 c -3.0228947,-1.03438 -5.7220347,-2.9089 -6.3413077,-4.40396 -0.257039,-0.62055 -0.250347,-0.91955 0.03354,-1.49877 0.761353,-1.5534 2.438523,-2.21177 5.6463074,-2.21647 l 1.8520832,-0.003 2.7967301,2.7203 c 3.14909143,3.06304 5.7442779,4.63278 8.8499527,5.35303 2.4175587,0.56067 2.6465715,0.27601 1.2248711,-1.52248 -0.6081105,-0.76928 -2.1959923,-2.82743 -3.5286262,-4.57368 -1.3326339,-1.74625 -3.19448419,-4.11558 -4.1374451,-5.26518 l -1.7144744,-2.09017 1.14912971,0.63496 c 2.05840269,1.1374 4.30687169,3.74049 9.97995709,11.55399 0.3453653,0.47567 0.739239,0.79606 0.8752748,0.71199 0.4194176,-0.25922 0.2658726,-3.83102 -0.2747883,-6.39221 -0.5578616,-2.64268 -1.3092192,-4.34556 -2.7504781,-6.23371 -0.5092661,-0.66718 -1.1000119,-1.5497 -1.3127684,-1.96115 -0.4526924,-0.87548 -2.8229604,-8.41471 -2.8229604,-8.97913 0,-1.21208 2.8626969,-0.32704 4.8668568,1.50465 1.2944332,1.18304 2.505581,3.014 2.1974987,3.32209 -0.068538,0.0685 -0.3844565,-0.41215 -0.7020419,-1.0682 -0.9574008,-1.97772 -3.5620701,-3.84185 -5.3879558,-3.85608 -0.8543629,-0.007 -0.908115,-0.42534 0.5332081,4.15319 0.6819458,2.16628 1.0692248,3.01115 1.4332317,3.12668 0.274332,0.0871 0.5078952,0.23958 0.5190291,0.33892 0.089522,0.79869 0.2592701,1.24392 0.5055581,1.32601 0.2081796,0.0694 0.2058175,0.19816 -0.00837,0.45624 -0.3353226,0.40403 -0.092536,1.00757 0.3061905,0.76114 0.1418401,-0.0877 0.4206695,-0.0243 0.6196208,0.14083 0.2365746,0.19634 0.4185829,0.20822 0.5260499,0.0343 0.090376,-0.14623 0.3688665,-0.20031 0.6188677,-0.12018 0.2796535,0.0896 0.3421506,0.0597 0.1624291,-0.0777 -0.2024985,-0.15486 -0.1291701,-0.38574 0.2390159,-0.75256 0.4525672,-0.45089 0.5068079,-0.46072 0.3666812,-0.0664 -0.090449,0.25449 -0.064293,0.73074 0.058124,1.05833 0.2013977,0.53893 0.6755709,-8.7484 0.6695749,-13.11454 -0.0017,-1.22183 0.06045,-1.45376 0.301223,-1.12448 0.166835,0.22816 0.431495,0.41483 0.588133,0.41483 0.156639,0 0.336958,0.32743 0.400709,0.72761 0.06375,0.40018 0.08626,0.13229 0.05002,-0.59531 -0.03624,-0.72761 -0.01232,-1.1131 0.05317,-0.85666 0.06549,0.25644 0.19935,0.41643 0.297478,0.35553 0.09813,-0.0609 0.141132,2.02124 0.09557,4.62697 -0.04953,2.83263 0.01696,4.7377 0.165364,4.7377 0.136517,0 0.317867,-0.32742 0.403001,-0.72761 0.416502,-1.95781 4.137475,-5.08172 6.062919,-5.09007 0.972633,-0.004 0.952192,0.46088 -0.180098,4.09789 -1.652977,5.30949 -2.043252,6.34426 -2.644459,7.01145 -1.135243,1.25985 -1.745907,2.34473 -2.677247,4.75627 -0.807046,2.08971 -0.95818,2.84339 -1.099692,5.48397 -0.115791,2.16063 -0.07915,3.0312 0.124541,2.95897 0.158731,-0.0563 0.878875,-1.00835 1.60032,-2.1157 3.588831,-5.50853 7.41524,-9.97722 9.588581,-11.19806 l 0.91045,-0.51143 -0.926042,1.05567 c -0.509323,0.58062 -1.654245,2.06092 -2.544273,3.28956 -0.890027,1.22863 -2.641511,3.6299 -3.892188,5.33615 -1.250676,1.70624 -2.481934,3.41967 -2.736127,3.80762 l -0.462169,0.70536 1.443941,-0.1249 c 1.624322,-0.1405 4.666725,-1.38732 6.8679,-2.81456 0.800364,-0.51895 2.380939,-1.90237 3.512388,-3.07426 l 2.057179,-2.1307 h 2.308445 c 2.739074,0 3.453968,0.17046 4.537012,1.08178 0.633346,0.53292 0.814141,0.89799 0.814141,1.64391 0,0.81543 -0.211071,1.15846 -1.410983,2.29315 -1.515916,1.43351 -3.738279,2.65404 -5.865058,3.22111 -1.033309,0.27551 -4.798203,0.35192 -17.197916,0.34904 -15.7116813,-0.004 -15.8926916,-0.01 -17.5947904,-0.59217 z M 12.756695,160.89562 c 0.08378,-0.38639 0.261325,-0.53446 0.521241,-0.43472 0.265719,0.10197 0.394178,-0.016 0.394178,-0.36211 0,-0.28236 0.06643,-0.57981 0.147613,-0.66099 0.236861,-0.23687 1.184262,0.0954 1.021754,0.35839 -0.08118,0.13135 -0.257927,0.17064 -0.392774,0.0873 -0.134846,-0.0833 -0.392086,0.1826 -0.571644,0.59099 -0.179558,0.40839 -0.447955,0.83 -0.596438,0.93691 -0.292638,0.21071 -0.283931,0.21543 0.574982,0.31151 0.462732,0.0518 0.53351,-0.0226 0.349191,-0.36703 -0.296907,-0.55478 0.01175,-1.04728 0.744823,-1.18845 0.506943,-0.0976 0.557085,-0.0245 0.412161,0.60151 -0.159792,0.69018 -0.151752,0.69597 0.254878,0.18349 0.230931,-0.29104 0.43203,-0.70776 0.446886,-0.92604 0.01806,-0.26536 0.09751,-0.22152 0.239758,0.13229 0.117011,0.29104 0.101114,0.74377 -0.03533,1.00606 -0.136441,0.26228 -0.205034,0.679 -0.15243,0.92604 0.0526,0.24703 0.361252,-0.33576 0.685885,-1.29509 0.324632,-0.95933 0.516014,-1.97136 0.425294,-2.24896 -0.113197,-0.34637 -0.08877,-0.39903 0.07785,-0.16786 0.166201,0.23058 0.507947,-0.53332 1.083292,-2.42149 0.462273,-1.51709 0.840496,-2.88906 0.840496,-3.04883 0,-0.87232 -3.312483,0.66703 -4.670874,2.17061 -1.180786,1.30699 -2.042357,3.13524 -1.604904,3.4056 0.213957,0.13223 0.173987,0.24161 -0.131076,0.35867 -0.255344,0.098 -0.375161,0.33452 -0.286494,0.56558 0.123981,0.32309 0.19413,0.33134 0.376117,0.0443 0.174888,-0.27589 0.224596,-0.27892 0.227763,-0.0139 0.0022,0.18647 -0.174542,0.40757 -0.392823,0.49133 -0.288705,0.11079 -0.387055,0.52317 -0.360844,1.51305 0.01982,0.74842 0.08291,1.0631 0.140217,0.6993 0.0573,-0.3638 0.161364,-0.92515 0.231249,-1.24743 z"
       id="path24006" />
    <path
       style="fill:#396c42;stroke-width:1.45729"
       d="m 5.5988095,161.6082 c -0.2729446,-0.44164 -2.7746113,-8.43143 -2.7746113,-8.86152 0,-0.63323 0.4978563,-0.70445 1.9577112,-0.28006 1.7145009,0.49842 3.909899,2.35798 4.6729303,3.9581 0.2853829,0.59847 0.3687516,0.86256 0.1852639,0.58687 -1.176668,-1.76793 -2.0902328,-2.75567 -3.161009,-3.41768 -1.4975536,-0.92587 -3.1026874,-1.34377 -3.2896771,-0.85648 -0.07094,0.18486 0.5170839,2.28746 1.3067191,4.67243 1.3320142,4.02314 1.5815245,4.97313 1.1026729,4.19834 z"
       id="path23948" />
    <path
       style="fill:#396c42;stroke-width:1.45729"
       d="m 27.699082,168.48076 c -0.0022,-0.0795 0.409963,-0.91295 0.91598,-1.85208 0.506018,-0.93913 0.922737,-1.61425 0.926042,-1.50027 0.0064,0.22081 -1.113376,2.43638 -1.566815,3.10005 -0.149136,0.21828 -0.272979,0.33182 -0.275207,0.2523 z"
       id="path23946" />
    <path
       style="fill:#396c42;stroke-width:1.45729"
       d="m -6.7008013,176.88674 c -4.3837907,-1.50006 -7.1761107,-4.13358 -6.2924747,-5.93464 0.740898,-1.51012 2.44124,-2.17715 5.5778605,-2.18816 l 1.7989274,-0.006 2.8551545,2.72665 c 3.17529573,3.03238 5.7168191,4.57456 8.8259774,5.35556 2.5926544,0.65125 2.851267,0.43609 1.5220442,-1.26634 -0.597727,-0.76555 -2.2668817,-2.94624 -3.7092326,-4.84596 -1.4423509,-1.89973 -3.34692979,-4.3169 -4.23239757,-5.37148 -1.39192773,-1.65778 -1.50138603,-1.8613 -0.80830473,-1.50289 1.97509962,1.02136 6.7855647,6.54616 10.0855752,11.58323 0.3568095,0.54463 0.767807,0.95182 0.9133279,0.90488 0.4470158,-0.14421 0.4460218,-3.87149 -0.00163,-6.11782 -0.4445102,-2.23056 -1.5500802,-4.90908 -2.6771756,-6.48614 l -0.6666659,-0.93281 0.8295701,0.92604 c 0.4562635,0.50932 0.9288932,0.90034 1.0502883,0.86894 0.1213951,-0.0314 0.1718498,0.14719 0.1121216,0.39687 -0.059728,0.24969 0.00294,0.62492 0.1392619,0.83384 0.2054005,0.31479 0.3192974,0.32057 0.6648989,0.0337 0.3632907,-0.3015 0.4165181,-0.24816 0.4129888,0.41389 -0.00313,0.58793 -0.062119,0.67015 -0.2605318,0.36312 -0.3806585,-0.58902 -0.3181994,-0.16383 0.092109,0.62704 0.3235851,0.62371 0.3705034,0.39936 0.5054905,-2.41715 0.126497,-2.63935 0.262972,-8.99357 0.314757,-14.65493 0.02117,-2.31459 0.406002,-1.52493 0.446591,0.91639 0.01982,1.19196 0.08763,1.89931 0.150694,1.57188 0.196662,-1.02104 0.573487,-0.65294 0.677129,0.66146 0.0545,0.69123 0.122382,0.0661 0.15084,-1.38906 0.02846,-1.45521 0.176781,-2.82443 0.329606,-3.04271 0.213575,-0.30505 0.236142,-0.24975 0.09754,0.23899 -0.197492,0.69641 0.130267,18.12085 0.336971,17.91414 0.07015,-0.0702 0.149208,-0.66514 0.175684,-1.32221 0.04545,-1.12778 0.362606,-2.0454 0.35689,-1.03257 -0.005,0.88001 0.06873,1.04679 0.46254,1.04679 0.29723,0 0.32151,-0.0857 0.0999,-0.35278 -0.224241,-0.27019 -0.188633,-0.35278 0.152107,-0.35278 0.26891,0 0.370211,-0.12082 0.2561,-0.30546 -0.111192,-0.17991 -0.07315,-0.23399 0.09256,-0.13158 0.331938,0.20515 1.476363,-1.08773 2.162092,-2.44256 0.510738,-1.00909 2.531813,-7.23184 2.82433,-8.69592 0.145165,-0.72656 0.09488,-0.85899 -0.32429,-0.85408 -1.682594,0.0197 -4.606154,2.31131 -5.56211,4.35981 -0.387085,0.82948 -0.61832,1.11568 -0.61994,0.7673 -0.003,-0.63952 1.307886,-2.59847 2.338197,-3.49421 1.032195,-0.89737 3.094442,-1.9033 3.901946,-1.9033 0.669696,0 0.69605,0.0502 0.539786,1.02738 -0.09036,0.56506 -0.709993,2.73795 -1.376971,4.82865 -0.97314,3.05038 -1.493763,4.21938 -2.635607,5.91793 -2.232306,3.32067 -3.032837,5.66528 -3.222538,9.4382 -0.101321,2.01515 -0.06312,3.12951 0.107274,3.12951 0.145543,0 1.075644,-1.22039 2.066891,-2.71198 3.770905,-5.6743 6.185558,-8.50562 8.757278,-10.2684 l 1.295117,-0.88774 -1.128307,1.31167 c -0.620569,0.72141 -2.990823,3.85288 -5.267231,6.95881 -4.383711,5.98113 -4.529538,6.33435 -2.468003,5.97791 1.549058,-0.26783 5.203817,-1.96436 7.099152,-3.2954 0.985011,-0.69174 2.53253,-2.075 3.438932,-3.0739 l 1.648003,-1.81618 h 2.307477 c 2.738086,0 3.453067,0.17051 4.536043,1.08178 1.468078,1.2353 0.951493,2.8758 -1.493436,4.74264 -1.174125,0.89651 -1.85916,1.19228 -1.530754,0.6609 0.09448,-0.15286 -0.0182,-0.19253 -0.271152,-0.0955 -0.326821,0.12542 -0.351474,0.21635 -0.10068,0.37135 0.222797,0.13769 -0.0094,0.35265 -0.70542,0.65304 -2.696486,1.16374 -2.944015,1.17861 -19.558374,1.17475 -15.7116808,-0.004 -15.8926911,-0.01 -17.5947899,-0.59217 z m 5.88697884,0.14383 c -0.61846354,-0.0557 -1.63049474,-0.0557 -2.24895824,0 -0.6184635,0.0557 -0.1124479,0.10128 1.1244791,0.10128 1.23692706,0 1.74294265,-0.0456 1.12447914,-0.10128 z"
       id="path23938" />
    <path
       style="fill:#3a663a;stroke-width:1.45729"
       d="m 5.5879302,161.59059 c -0.2653249,-0.4293 -2.763732,-8.42418 -2.763732,-8.84391 0,-0.63323 0.4978563,-0.70445 1.9577112,-0.28006 1.7145009,0.49842 3.909899,2.35798 4.6729303,3.9581 0.2853829,0.59847 0.3687516,0.86256 0.1852639,0.58687 -1.176668,-1.76793 -2.0902328,-2.75567 -3.161009,-3.41768 -1.484892,-0.91804 -3.1027826,-1.34352 -3.2866588,-0.86435 -0.06928,0.18054 0.5200966,2.3129 1.3097251,4.73858 1.3407479,4.11868 1.5318381,4.84421 1.0857693,4.12245 z"
       id="path23851" />
    <path
       style="fill:#3a663a;stroke-width:1.45729"
       d="m 16.313929,162.21384 c 0.557224,-1.15332 2.914435,-8.59864 2.914435,-9.20533 0,-0.52395 -0.696148,-0.48323 -2.020624,0.11819 -1.598626,0.72592 -3.265932,2.34517 -3.971434,3.85697 -0.387085,0.82948 -0.61832,1.11568 -0.61994,0.7673 -0.003,-0.63952 1.307886,-2.59847 2.338197,-3.49421 1.032195,-0.89737 3.094442,-1.9033 3.901946,-1.9033 0.671343,0 0.696328,0.0484 0.537517,1.04157 -0.272501,1.70413 -2.780932,9.18703 -3.194848,9.53054 -0.273519,0.22701 -0.240827,0.0242 0.114751,-0.71173 z"
       id="path23849" />
    <path
       style="fill:#3a663a;stroke-width:1.45729"
       d="m 27.699082,168.48076 c -0.0022,-0.0795 0.409963,-0.91295 0.91598,-1.85208 0.506018,-0.93913 0.922737,-1.61425 0.926042,-1.50027 0.0064,0.22081 -1.113376,2.43638 -1.566815,3.10005 -0.149136,0.21828 -0.272979,0.33182 -0.275207,0.2523 z"
       id="path23843" />
    <path
       style="fill:#3a663a;stroke-width:1.45729"
       d="m 12.701299,168.22846 c 0.02362,-0.65484 0.16242,-1.27809 0.308444,-1.38501 0.162781,-0.11918 0.131502,-0.19595 -0.08085,-0.19843 -0.190489,-0.002 -0.269186,-0.1289 -0.174882,-0.28149 0.11524,-0.18646 0.308916,-0.16477 0.590664,0.0661 0.365736,0.29975 0.398764,0.26431 0.258955,-0.27791 -0.08814,-0.34181 -0.09654,-0.55777 -0.01867,-0.4799 0.07787,0.0779 0.419755,-0.17825 0.759749,-0.56914 0.531209,-0.61074 0.498955,-0.4688 -0.229285,1.00907 -0.4661,0.94588 -0.984619,2.07698 -1.152265,2.51354 -0.298706,0.77785 -0.303951,0.7699 -0.261863,-0.39688 z"
       id="path23835" />
    <path
       style="fill:#3a663a;stroke-width:1.45729"
       d="m -6.7008013,176.88674 c -4.3837907,-1.50006 -7.1761107,-4.13358 -6.2924747,-5.93464 0.740898,-1.51012 2.44124,-2.17715 5.5778605,-2.18816 l 1.7989274,-0.006 2.8965355,2.76617 c 2.42558971,2.31642 3.29460072,2.96051 5.3448222,3.9615 2.304066,1.12491 5.5395812,2.04319 5.9064553,1.67631 0.091041,-0.091 -0.3287824,-0.79879 -0.9329417,-1.57277 -0.6041594,-0.77399 -2.2785769,-2.96158 -3.7209278,-4.8613 -1.4423509,-1.89973 -3.34692979,-4.3169 -4.23239757,-5.37148 -1.39192773,-1.65778 -1.50138603,-1.8613 -0.80830473,-1.50289 1.97509962,1.02136 6.7855647,6.54616 10.0855752,11.58323 0.3568095,0.54463 0.767807,0.95182 0.9133279,0.90488 0.7715878,-0.24891 0.2056268,-6.68782 -0.7992286,-9.09278 -0.2004171,-0.47967 -0.294299,-0.87212 -0.2086264,-0.87212 0.3453357,0 0.8619572,0.97338 0.9127776,1.71979 0.1606318,2.35923 0.5171822,-8.10256 0.6100612,-17.90025 0.02193,-2.31368 0.406491,-1.52546 0.447089,0.91639 0.01982,1.19196 0.08763,1.89931 0.150694,1.57188 0.196662,-1.02104 0.573487,-0.65294 0.677129,0.66146 0.0545,0.69123 0.122382,0.0661 0.15084,-1.38906 0.09369,-4.79075 0.440514,-3.36511 0.440514,1.81075 0,2.78763 0.03579,7.62826 0.07952,10.75696 0.04374,3.12869 -0.0042,7.14705 -0.106538,8.92968 -0.121054,2.10873 -0.09361,3.24115 0.07856,3.24115 0.145543,0 1.075644,-1.22039 2.066891,-2.71198 3.770905,-5.6743 6.185558,-8.50562 8.757278,-10.2684 l 1.295117,-0.88774 -1.128307,1.31167 c -0.620569,0.72141 -2.990823,3.85288 -5.267231,6.95881 -4.383711,5.98113 -4.529538,6.33435 -2.468003,5.97791 1.550516,-0.26808 5.204521,-1.96485 7.10399,-3.2988 0.987671,-0.69361 2.543168,-2.07687 3.456661,-3.0739 l 1.660895,-1.81278 h 2.289747 c 2.720012,0 3.436586,0.17156 4.518314,1.08178 0.623386,0.52454 0.814141,0.90189 0.814141,1.61049 0,1.78307 -3.679881,4.58882 -7.276041,5.54768 -1.033309,0.27551 -4.798203,0.35192 -17.197916,0.34904 -15.7116812,-0.004 -15.8926915,-0.01 -17.5947903,-0.59217 z m 7.08797221,0.14234 c -0.83104211,-0.0523 -2.25979201,-0.0528 -3.17499981,-9.5e-4 -0.9152078,0.0518 -0.2352643,0.0946 1.5109856,0.0952 1.74624994,5.2e-4 2.4950563,-0.0419 1.66401421,-0.0942 z M 24.586176,177.0284 c -0.909505,-0.0517 -2.397786,-0.0517 -3.307291,0 -0.909505,0.0517 -0.165365,0.0939 1.653645,0.0939 1.819011,0 2.563151,-0.0423 1.653646,-0.0939 z m -34.3818649,-2.08994 c -0.9667231,-0.67513 -1.5940441,-1.27123 -1.6318291,-1.55062 -0.01968,-0.14552 -0.159188,-0.26458 -0.310017,-0.26458 -0.411656,0 -0.775487,-0.70381 -0.780048,-1.50895 -0.0032,-0.5591 0.198055,-0.81109 0.92199,-1.15462 0.509323,-0.24169 0.926042,-0.54493 0.926042,-0.67387 0,-0.31112 -0.184335,-0.29571 -0.87729,0.0734 -1.338472,0.71288 -1.613998,2.055 -0.668605,3.25687 0.562265,0.71481 2.5328309,2.26935 2.8423633,2.24229 0.087307,-0.008 -0.1028659,-0.19658 -0.4226062,-0.41988 z m 43.9537219,-1.65598 c 0.425953,-0.44834 0.693844,-0.89578 0.595312,-0.99431 -0.09853,-0.0985 -0.179148,-0.0402 -0.179148,0.12953 0,0.16977 -0.185621,0.30868 -0.41249,0.30868 -0.22687,0 -0.338906,0.11906 -0.248969,0.26458 0.08994,0.14552 -0.0221,0.26459 -0.248968,0.26459 -0.22687,0 -0.382724,0.11621 -0.346344,0.25826 0.03638,0.14204 -0.291042,0.5686 -0.727604,0.94791 l -0.79375,0.68964 0.79375,-0.52685 c 0.436562,-0.28978 1.142257,-0.89369 1.568211,-1.34203 z m -2.888693,-1.1473 c 0.118082,0.10688 0.119503,0.0301 0.0032,-0.17073 -0.145547,-0.25117 -0.09688,-0.32339 0.156018,-0.23151 0.202157,0.0734 0.332514,0.29726 0.289683,0.49735 -0.04283,0.20009 0.205082,0.0175 0.550918,-0.40573 0.584492,-0.71531 0.644199,-0.73395 0.847483,-0.26458 0.120281,0.27772 0.199789,0.59424 0.176687,0.70338 -0.0231,0.10914 0.19612,0.19844 0.487162,0.19844 0.291041,0 0.529166,-0.11907 0.529166,-0.26459 0,-0.14552 0.178594,-0.26458 0.396875,-0.26458 0.45982,0 0.492211,-0.24397 0.151401,-1.14036 -0.190961,-0.50227 -0.389721,-0.61807 -0.895028,-0.52148 -0.357254,0.0683 -0.723205,0.005 -0.813224,-0.14065 -0.09804,-0.15863 0.0752,-0.21437 0.432007,-0.13901 0.576606,0.1218 0.578736,0.11506 0.06651,-0.21033 -0.595412,-0.37823 -3.105867,-0.54566 -2.887652,-0.19259 0.07742,0.12527 0.01467,0.22775 -0.139441,0.22775 -0.154109,0 -0.280199,-0.17859 -0.280199,-0.39687 0,-0.30868 -0.117592,-0.27928 -0.529166,0.13229 -0.546274,0.54627 -0.732818,1.85208 -0.264584,1.85208 0.145521,0 0.234818,-0.14882 0.198438,-0.33073 -0.03638,-0.1819 0.140932,-0.3144 0.394027,-0.29445 0.253096,0.0199 0.402946,-0.0563 0.333001,-0.1695 -0.150243,-0.2431 1.021686,-1.0592 1.512621,-1.05335 0.239072,0.003 0.222196,0.0802 -0.05684,0.26053 -0.339168,0.21919 -0.329551,0.25707 0.06615,0.26054 0.254662,0.002 0.472421,-0.14478 0.483909,-0.32668 0.0159,-0.25182 0.05371,-0.24889 0.15844,0.0123 0.07565,0.18866 0.485235,0.72369 0.910181,1.18895 0.473212,0.5181 0.651454,0.88631 0.459944,0.95015 -0.171977,0.0573 -0.471381,-0.11281 -0.665342,-0.37806 -0.415069,-0.56764 -1.43092,-0.73812 -1.226672,-0.20586 0.07403,0.19291 0.0028,0.35075 -0.158298,0.35075 -0.16109,0 -0.292891,-0.13364 -0.292891,-0.29698 0,-0.41291 -0.748831,0.23215 -1.087375,0.93667 -0.241382,0.50234 -0.231965,0.51045 0.106753,0.092 0.204317,-0.2524 0.468099,-0.37146 0.586182,-0.26458 z m -2.714414,-0.84146 c -0.03638,-0.0852 -0.06615,-0.2739 -0.06615,-0.41942 0,-0.14552 -0.133641,-0.26459 -0.29698,-0.26459 -0.205186,0 -0.195172,0.12267 0.0324,0.39688 0.269342,0.32454 0.251134,0.4029 -0.0999,0.42995 -0.946023,0.0729 -1.050717,0.11147 -1.155518,0.42587 -0.08187,0.24561 0.109596,0.23479 0.771701,-0.0436 0.484323,-0.20364 0.850821,-0.43994 0.814441,-0.52509 z"
       id="path23829" />
    <path
       style="fill:#2e5730;stroke-width:1.45729"
       d="m 2.9492305,153.37875 c -0.1252539,-0.57028 -0.070891,-0.89523 0.1752169,-1.04733 0.3740659,-0.23118 1.4058756,-0.0696 2.0810007,0.32597 0.2590966,0.15179 0.1413366,0.17463 -0.3392113,0.0658 -1.5274132,-0.34599 -1.6498709,-0.29768 -1.5780108,0.62249 0.085317,1.09248 -0.1022921,1.1108 -0.3389955,0.0331 z"
       id="path23734" />
    <path
       style="fill:#2e5730;stroke-width:1.45729"
       d="m 8.8971085,155.99714 c -0.5024446,-0.76087 -1.428807,-1.7729 -2.0585832,-2.24896 -0.6297762,-0.47605 -1.0296064,-0.86555 -0.8885114,-0.86555 0.488529,0 2.8299709,2.31849 3.4395507,3.40583 0.8473104,1.51139 0.6022332,1.36642 -0.4924561,-0.29132 z"
       id="path23731" />
    <path
       style="fill:#2e5730;stroke-width:1.45729"
       d="m 12.624324,157.59925 c -0.01124,-0.47212 1.561136,-2.66519 2.479716,-3.45858 0.903036,-0.77996 2.998816,-1.78721 3.718653,-1.78721 0.563533,0 0.664517,0.11586 0.634223,0.72761 -0.03089,0.62384 -0.05238,0.64271 -0.150694,0.13229 -0.337374,-1.75161 -4.736885,0.95013 -6.145224,3.77378 -0.289373,0.58018 -0.530876,0.85563 -0.536674,0.61211 z"
       id="path23730" />
    <path
       style="fill:#2e5730;stroke-width:1.45729"
       d="m 3.9103823,156.55895 c -0.3308715,-1.02733 -0.5545862,-1.91486 -0.4971437,-1.9723 0.057442,-0.0574 0.3751538,0.73609 0.7060253,1.76342 0.3308715,1.02732 0.5545862,1.91485 0.4971438,1.9723 -0.057442,0.0574 -0.3751539,-0.7361 -0.7060254,-1.76342 z"
       id="path23729" />
    <path
       style="fill:#2e5730;stroke-width:1.45729"
       d="m 17.307869,159.55246 c 0.534858,-1.61895 1.019505,-2.89651 1.076993,-2.83903 0.138312,0.13832 -1.539689,5.22779 -1.826523,5.53995 -0.122617,0.13345 0.214671,-1.08197 0.74953,-2.70092 z"
       id="path23723" />
    <path
       style="fill:#2e5730;stroke-width:1.45729"
       d="m 20.391233,166.19867 c 1.00338,-1.04355 2.056136,-1.95798 2.339458,-2.03207 0.493325,-0.129 0.495502,-0.11302 0.05143,0.37768 -0.255038,0.28181 -0.52731,0.44878 -0.60505,0.37104 -0.07774,-0.0777 -0.921829,0.60612 -1.875754,1.51968 l -1.734408,1.66102 z"
       id="path23709" />
    <path
       style="fill:#2e5730;stroke-width:1.45729"
       d="m 20.540974,167.23624 c 0.769033,-1.05503 1.450748,-1.91823 1.514923,-1.91823 0.183367,0 -2.062003,3.13383 -2.510835,3.50434 -0.221281,0.18266 0.226879,-0.53109 0.995912,-1.58611 z"
       id="path23701" />
    <path
       style="fill:#2e5730;stroke-width:1.45729"
       d="m 15.159788,174.51232 c 0.382433,-0.64536 3.300476,-4.43177 3.415397,-4.43177 0.06424,0 -0.666748,1.07156 -1.624407,2.38125 -0.957659,1.30968 -1.796499,2.38125 -1.864088,2.38125 -0.06759,0 -0.0347,-0.14883 0.0731,-0.33073 z"
       id="path23670" />
    <path
       style="fill:#2e5730;stroke-width:1.45729"
       d="m 19.667351,175.51967 c 2.42603,-1.19814 3.366724,-1.84849 5.275282,-3.64708 1.277515,-1.2039 2.225576,-2.02678 2.106803,-1.82861 -0.131781,0.21988 -0.07383,0.46085 0.148676,0.61827 0.271169,0.19183 0.217115,0.22584 -0.21089,0.13265 -0.403581,-0.0879 -0.534997,-0.0197 -0.439886,0.22816 0.199294,0.51935 -1.608575,2.3477 -3.653542,3.69493 -2.028497,1.33638 -3.275259,1.86024 -4.988347,2.09599 -1.074988,0.14793 -0.903866,0.0222 1.761904,-1.29431 z"
       id="path23655" />
    <path
       style="fill:#2e5730;stroke-width:1.45729"
       d="m 10.177398,165.07057 c 0.04244,-6.53914 0.175427,-12.81973 0.295535,-13.95687 0.205301,-1.94372 0.221489,-1.82987 0.270342,1.90122 0.04187,3.19762 0.110164,3.84023 0.351496,3.30729 0.281974,-0.62268 0.309573,-0.58391 0.470829,0.66146 0.105042,0.81123 0.188942,-0.41681 0.216916,-3.175 0.02509,-2.47385 0.133092,-4.63422 0.240004,-4.80081 0.165178,-0.25738 0.231288,15.97312 0.102268,25.10758 l -0.04017,2.84427 -0.992187,1.1e-4 -0.992188,1e-4 z"
       id="path23654" />
    <path
       style="fill:#2e5730;stroke-width:1.45729"
       d="m -6.436218,176.99083 c -1.9083104,-0.61581 -3.0029515,-1.18857 -4.720347,-2.46985 -3.867752,-2.88557 -1.869611,-5.76335 4.0016983,-5.76335 h 1.6365551 l 1.7238592,1.8181 c 3.20928088,3.38472 6.0316109,5.27459 9.2701082,6.20739 1.2134784,0.34952 3.0906672,0.42191 11.0863572,0.42748 10.654277,0.007 11.80427,-0.11965 14.608047,-1.61404 1.830695,-0.97575 3.933303,-3.10899 3.933303,-3.9906 0,-1.69873 -1.628331,-2.4449 -5.291666,-2.42487 -2.026243,0.0111 -2.33401,-0.0342 -1.5875,-0.23374 1.279317,-0.3419 4.330137,-0.0515 5.502625,0.52385 1.222869,0.60004 1.789665,1.56899 1.527891,2.61198 -0.261702,1.04271 -2.193059,2.84547 -4.055372,3.78536 -3.27826,1.6545 -2.864092,1.62171 -20.287228,1.60611 -14.4740957,-0.013 -16.0230519,-0.0562 -17.348331,-0.48382 z m 11.5093744,-0.023 c -0.7432922,-0.18942 -4.0136973,-1.70004 -4.89479141,-2.26092 -0.42151213,-0.26833 -0.55311023,-0.3076 -1.20623989,-0.35997 -0.2268694,-0.0182 -0.339748,-0.15077 -0.2508414,-0.29462 0.088907,-0.14386 0.00307,-0.2007 -0.1907499,-0.12633 -0.3882834,0.149 -2.4532103,-1.6099 -2.4532103,-2.08964 0,-0.16533 -0.1750774,-0.3006 -0.389061,-0.3006 -0.4902861,0 -1.1000445,-1.17691 -0.9159567,-1.76791 0.3049006,-0.97887 -4.3147631,-0.93183 -6.2663558,0.0638 -1.034,0.52751 -1.292168,0.94087 -1.292168,2.06892 0,1.38412 3.0022557,3.65254 6.2177083,4.69792 1.6837926,0.54742 2.3329137,0.60075 7.14374967,0.58689 2.98976283,-0.009 4.94638083,-0.10325 4.49791643,-0.21754 z"
       id="path23649" />
    <path
       style="fill:#513712;stroke-width:1.45729"
       d="m 10.319352,155.39617 c 0.0012,-1.01864 0.049,-1.40294 0.106272,-0.85399 0.05728,0.54895 0.05632,1.38238 -0.0021,1.85208 -0.05845,0.4697 -0.105311,0.0206 -0.104137,-0.99809 z"
       id="path23532" />
    <path
       style="fill:#513712;stroke-width:1.45729"
       d="m 11.927132,154.07326 c 3.34e-4,-2.32834 0.04081,-3.24542 0.08995,-2.03796 0.04914,1.20745 0.04886,3.11245 -6.09e-4,4.23333 -0.04947,1.12088 -0.08967,0.13296 -0.08934,-2.19537 z"
       id="path23530" />
    <path
       style="fill:#513712;stroke-width:1.45729"
       d="m -8.3544471,168.83082 c 0.4729427,-0.0587 1.2468489,-0.0587 1.7197916,0 0.4729427,0.0587 0.08599,0.10671 -0.8598958,0.10671 -0.9458853,0 -1.3328384,-0.048 -0.8598958,-0.10671 z"
       id="path23510" />
    <path
       style="fill:#513712;stroke-width:1.45729"
       d="m -12.517075,170.238 c 0.44102,-0.56658 1.851403,-1.22493 2.56663,-1.19809 0.2593353,0.01 -0.04416,0.17862 -0.674434,0.3753 -0.630275,0.19669 -1.402129,0.57567 -1.715232,0.8422 -0.555344,0.47273 -0.559676,0.47226 -0.176964,-0.0194 z"
       id="path23503" />
    <path
       style="fill:#513712;stroke-width:1.45729"
       d="m 33.561736,174.01981 c 1.873413,-1.77576 2.009524,-3.23575 0.393524,-4.22111 -0.459949,-0.28046 -0.678285,-0.51037 -0.48519,-0.51091 0.556306,-0.002 1.897876,1.48886 1.897876,2.10846 0,0.92627 -0.709098,2.01434 -1.910264,2.9312 l -1.132444,0.8644 z"
       id="path23494" />
    <path
       style="fill:#513712;stroke-width:1.45729"
       d="m -9.5575512,175.62192 c -1.6647058,-0.95466 -3.4932498,-2.71049 -3.4932498,-3.35434 0,-0.29412 0.166258,-0.16089 0.463021,0.37104 0.567522,1.01726 1.736704,2.00481 3.5705063,3.01584 0.7647369,0.42163 1.2713683,0.76763 1.1258474,0.7689 -0.1455208,0.001 -0.895277,-0.35937 -1.6661249,-0.80144 z"
       id="path23488" />
    <path
       style="fill:#513712;stroke-width:1.45729"
       d="m 29.304579,176.59476 c 0.2699,-0.24596 2.888368,-1.48219 2.888368,-1.36366 0,0.14918 -2.526763,1.46412 -2.813427,1.46412 -0.101851,0 -0.135575,-0.0452 -0.07494,-0.10046 z"
       id="path23484" />
    <path
       style="fill:#513712;stroke-width:1.45729"
       d="m 3.0226357,177.29059 c 4.402005,-0.0407 11.6052863,-0.0407 16.0072913,0 4.402004,0.0407 0.800364,0.074 -8.003646,0.074 -8.8040099,0 -12.4056503,-0.0333 -8.0036453,-0.074 z"
       id="path23464" />
    <path
       style="fill:#134a14;stroke-width:1.45729"
       d="m 10.319352,155.39617 c 0.0012,-1.01864 0.049,-1.40294 0.106272,-0.85399 0.05728,0.54895 0.05632,1.38238 -0.0021,1.85208 -0.05845,0.4697 -0.105311,0.0206 -0.104137,-0.99809 z"
       id="path23308" />
    <path
       style="fill:#134a14;stroke-width:1.45729"
       d="m 11.927132,154.07326 c 3.34e-4,-2.32834 0.04081,-3.24542 0.08995,-2.03796 0.04914,1.20745 0.04886,3.11245 -6.09e-4,4.23333 -0.04947,1.12088 -0.08967,0.13296 -0.08934,-2.19537 z"
       id="path23305" />
    <path
       style="fill:#134a14;stroke-width:1.45729"
       d="m -8.3544471,168.83082 c 0.4729427,-0.0587 1.2468489,-0.0587 1.7197916,0 0.4729427,0.0587 0.08599,0.10671 -0.8598958,0.10671 -0.9458853,0 -1.3328384,-0.048 -0.8598958,-0.10671 z"
       id="path23274" />
    <path
       style="fill:#134a14;stroke-width:1.45729"
       d="m -12.517075,170.238 c 0.44102,-0.56658 1.851403,-1.22493 2.56663,-1.19809 0.2593353,0.01 -0.04416,0.17862 -0.674434,0.3753 -0.630275,0.19669 -1.402129,0.57567 -1.715232,0.8422 -0.555344,0.47273 -0.559676,0.47226 -0.176964,-0.0194 z"
       id="path23190" />
    <path
       style="fill:#134a14;stroke-width:1.45729"
       d="m 33.561736,174.01981 c 1.873413,-1.77576 2.009524,-3.23575 0.393524,-4.22111 -0.459949,-0.28046 -0.678285,-0.51037 -0.48519,-0.51091 0.556306,-0.002 1.897876,1.48886 1.897876,2.10846 0,0.92627 -0.709098,2.01434 -1.910264,2.9312 l -1.132444,0.8644 z"
       id="path23182" />
    <path
       style="fill:#134a14;stroke-width:1.45729"
       d="m -9.5575512,175.62192 c -1.6647058,-0.95466 -3.4932498,-2.71049 -3.4932498,-3.35434 0,-0.29412 0.166258,-0.16089 0.463021,0.37104 0.567522,1.01726 1.736704,2.00481 3.5705063,3.01584 0.7647369,0.42163 1.2713683,0.76763 1.1258474,0.7689 -0.1455208,0.001 -0.895277,-0.35937 -1.6661249,-0.80144 z"
       id="path23173" />
    <path
       style="fill:#134a14;stroke-width:1.45729"
       d="m 29.304579,176.59476 c 0.2699,-0.24596 2.888368,-1.48219 2.888368,-1.36366 0,0.14918 -2.526763,1.46412 -2.813427,1.46412 -0.101851,0 -0.135575,-0.0452 -0.07494,-0.10046 z"
       id="path23171" />
    <path
       style="fill:#134a14;stroke-width:1.45729"
       d="m 3.0226357,177.29059 c 4.402005,-0.0407 11.6052863,-0.0407 16.0072913,0 4.402004,0.0407 0.800364,0.074 -8.003646,0.074 -8.8040099,0 -12.4056503,-0.0333 -8.0036453,-0.074 z"
       id="path23147" />
    <path
       style="fill:#0a3208;stroke-width:1.45729"
       d="m 11.910733,155.92534 c 9.61e-4,-1.16417 0.04748,-1.6075 0.103369,-0.98519 0.05589,0.62231 0.05511,1.57481 -0.0017,2.11666 -0.05685,0.54186 -0.102583,0.0327 -0.101622,-1.13147 z"
       id="path23116" />
    <path
       style="fill:#0a3208;stroke-width:1.45729"
       d="m 3.1738661,177.29057 c 4.3396609,-0.0408 11.3643479,-0.0408 15.6104159,6e-5 4.246068,0.0409 0.695436,0.0742 -7.890293,0.0742 -8.5857283,-3e-5 -12.0597838,-0.0335 -7.7201229,-0.0743 z"
       id="path23106" />
  </g>
</svg>
