<?xml version="1.0" encoding="UTF-8" standalone="no"?>
<!-- Created with Inkscape (http://www.inkscape.org/) -->

<svg
   width="185"
   height="185"
   viewBox="0 0 48.947914 48.947918"
   version="1.1"
   id="svg1"
   xmlns="http://www.w3.org/2000/svg"
   xmlns:svg="http://www.w3.org/2000/svg">
  <defs
     id="defs1" />
  <g
     id="layer1">
    <g
       id="g23722"
       transform="matrix(0.49192106,0,0,0.49192106,-65.056527,-99.460343)"
       style="display:inline;stroke-width:2.03285">
      <path
         style="fill:#fccb0f;stroke-width:2.03285"
         d="m 176.58621,301.36891 c -0.18125,-0.18125 -0.32954,-0.76944 -0.32954,-1.30709 0,-2.33523 -1.93749,-6.85416 -3.73115,-8.70241 -1.13968,-1.17436 -2.30203,-1.99631 -2.51785,-1.78048 -0.0809,0.0809 -0.2478,0.90069 -0.37091,1.82178 -0.26678,1.99597 -0.53455,2.91794 -1.26108,4.34207 -1.72774,3.38664 -6.33677,5.29059 -11.2173,4.63377 -3.46002,-0.46564 -4.65657,-1.48196 -4.89955,-4.16149 -0.2704,-2.98206 1.18282,-5.08477 5.43181,-7.85947 l 2.20376,-1.4391 -2.20376,-0.1762 c -3.35975,-0.26862 -4.95753,-0.62454 -6.76741,-1.50747 -2.17935,-1.06318 -3.53931,-2.63728 -4.55581,-5.27316 -1.01104,-2.62172 -1.05186,-3.97984 -0.14113,-4.69621 0.95754,-0.75321 3.78247,-1.82763 5.76644,-2.19319 1.60824,-0.29633 1.86252,-0.27044 4.06013,0.41342 1.28944,0.40125 2.85045,1.07022 3.46892,1.48658 1.26516,0.85175 1.36521,0.79784 0.57608,-0.31039 -0.87641,-1.23081 -1.83285,-3.8393 -1.83285,-4.99871 0,-0.92041 0.11847,-1.13972 0.85989,-1.59177 2.30283,-1.40407 8.13327,0.13443 11.19108,2.95302 2.59003,2.38741 3.10517,6.69646 1.26801,10.60669 -0.39234,0.83505 -0.64433,1.58729 -0.55998,1.67163 0.0844,0.0844 0.92946,-0.61136 1.87803,-1.54602 1.27725,-1.25853 2.33076,-1.98882 4.061,-2.81508 4.68171,-2.23569 4.5853,-2.17049 4.5853,-3.10071 0,-0.46385 -0.1297,-0.8866 -0.28823,-0.93945 -0.15852,-0.0528 -0.34186,-0.74737 -0.40742,-1.5434 -0.10125,-1.22951 -0.24701,-1.55576 -0.96854,-2.16781 -0.67936,-0.57628 -1.12014,-0.72191 -2.2023,-0.72761 -1.71261,-0.009 -3.60077,-0.3613 -6.45226,-1.20386 -4.29943,-1.2704 -6.50322,-2.79363 -8.56109,-5.91728 -1.61231,-2.44733 -2.14969,-4.15375 -2.15237,-6.83473 -0.003,-2.62643 0.28551,-3.02349 2.64367,-3.64306 2.78535,-0.73181 5.83069,-0.47659 8.26415,0.6926 1.00182,0.48133 3.66926,3.37736 4.53396,4.92249 0.14249,0.25462 0.32784,0.39417 0.41189,0.31012 0.25641,-0.2564 -0.79148,-2.92526 -1.79971,-4.58367 -1.62857,-2.6788 -1.63923,-4.76172 -0.0409,-7.99571 1.67393,-3.38696 5.74948,-6.9616 7.94928,-6.97226 1.74764,-0.008 5.94327,3.76271 7.35,6.60643 0.77707,1.57087 0.84747,1.92491 0.84173,4.23334 -0.006,2.4997 -0.0149,2.53282 -1.12448,4.30026 -1.0504,1.67313 -1.44987,2.82067 -0.85363,2.45218 0.14552,-0.0899 0.26458,0.034 0.26458,0.27551 0,0.30228 0.4427,0.0344 1.42119,-0.85985 0.78166,-0.71439 2.45566,-1.82341 3.72001,-2.46449 2.19549,-1.11322 2.40264,-1.16561 4.60885,-1.16561 2.55756,0 3.61375,0.40655 4.64208,1.78683 0.4563,0.61246 0.55559,1.11949 0.54994,2.80833 -0.006,1.8113 -0.11264,2.26269 -0.87997,3.72654 -1.81493,3.46238 -3.55925,5.14078 -7.22526,6.95219 -2.05264,1.01423 -9.83892,3.95784 -11.34273,4.28813 l -0.8536,0.18748 0.1759,1.94119 c 0.1317,1.45335 0.0759,2.18053 -0.22202,2.89357 -0.30158,0.72178 -0.31995,0.97469 -0.0759,1.04453 3.93235,1.12509 5.48544,2.02669 7.87524,4.57176 1.06373,1.13285 1.85553,1.84753 1.75955,1.58819 -0.26632,-0.71963 -0.9692,-3.49963 -1.23804,-4.89662 -0.29841,-1.55067 0.1211,-4.56183 0.82948,-5.95377 1.22101,-2.39926 4.79991,-4.69342 8.20091,-5.25698 3.28113,-0.5437 4.94463,0.37955 4.60395,2.55522 -0.22195,1.41738 -1.42362,3.93301 -2.65448,5.55701 -0.55146,0.72761 -1.13104,1.50151 -1.28795,1.71979 -0.15691,0.21828 0.73822,-0.58586 1.98918,-1.78699 2.98036,-2.86165 4.09846,-3.37955 7.23174,-3.3497 2.59435,0.0247 5.4387,0.63729 6.4823,1.39606 1.26573,0.92029 1.41993,1.65384 0.83439,3.96932 -0.91469,3.61714 -2.72439,5.8543 -6.06684,7.49989 -1.34251,0.66096 -2.17868,0.8626 -4.36562,1.05277 -1.48778,0.12937 -3.12178,0.16833 -3.6311,0.0866 -0.86772,-0.13927 -0.8937,-0.12326 -0.41245,0.25422 0.28247,0.22157 0.60567,0.40285 0.71822,0.40285 0.58008,0 4.26744,2.53916 5.31733,3.66158 1.76819,1.89034 2.4154,3.28722 2.43247,5.25006 0.0127,1.46145 -0.0692,1.72269 -0.76884,2.45362 -0.45097,0.4711 -1.34096,0.98369 -2.09855,1.20867 -1.68749,0.50113 -5.5102,0.50243 -7.19068,0.002 -3.34157,-0.99421 -6.42213,-4.123 -7.64175,-7.76141 -0.96621,-2.88241 -1.03315,-2.95957 -1.82573,-2.10436 -0.69495,0.74987 -3.04692,4.82282 -3.55308,6.15293 -0.16613,0.43657 -0.43563,1.56766 -0.5989,2.51355 -0.36267,2.10113 -0.80061,2.64583 -2.12723,2.64583 -0.77793,0 -1.82998,-0.5064 -1.82998,-0.88085 0,-0.0271 0.35719,-1.09947 0.79375,-2.38301 0.43657,-1.28353 0.79375,-2.43519 0.79375,-2.55924 0,-0.53206 2.52167,-5.48931 3.14881,-6.19011 0.57959,-0.64766 0.60449,-0.73331 0.15849,-0.545 -0.90547,0.38231 -3.54956,0.0932 -5.30354,-0.57983 -0.31712,-0.12169 -0.38668,0.88021 -0.44647,6.4308 l -0.0708,6.57495 h -1.32291 -1.32292 v -6.28404 c 0,-3.45622 -0.0178,-6.28395 -0.0396,-6.28385 -0.0218,10e-5 -0.66054,0.41807 -1.41952,0.92882 -0.75898,0.51076 -1.66391,0.99992 -2.01096,1.08702 -0.34705,0.0871 -0.631,0.19529 -0.631,0.24042 0,0.0451 0.4115,0.9407 0.91444,1.99017 1.12629,2.35018 1.51609,4.14458 1.41341,6.50657 l -0.0789,1.81489 -1.05953,0.0782 c -0.59499,0.0439 -1.204,-0.0663 -1.38906,-0.25135 z m 3.37463,-32.49173 c 0,-0.2759 -1.58333,-1.94178 -2.65105,-2.78927 -2.16344,-1.7172 -2.64062,-2.0065 -2.64062,-1.60096 0,0.22568 0.1786,0.41034 0.39688,0.41034 0.21828,0 0.39687,0.17119 0.39687,0.38043 0,0.20924 0.53201,0.7625 1.18224,1.22946 0.65023,0.46696 1.11946,0.95061 1.04272,1.07477 -0.1229,0.19886 0.23026,0.32945 0.72196,0.26697 0.0928,-0.0118 0.38899,0.27175 0.65811,0.63012 0.50369,0.67071 0.89289,0.84426 0.89289,0.39814 z m 7.01146,-2.51997 c 0.7276,-0.64956 1.18334,-1.18424 1.01275,-1.18818 -0.40513,-0.009 -2.5268,1.61578 -2.66768,2.04336 -0.19949,0.6055 0.31871,0.33773 1.65493,-0.85518 z"
         id="path23713" />
      <path
         style="fill:#a2965a;stroke-width:2.03285"
         d="m 176.58621,301.36891 c -0.18125,-0.18125 -0.32954,-0.76944 -0.32954,-1.30709 0,-2.33523 -1.93749,-6.85416 -3.73115,-8.70241 -1.13968,-1.17436 -2.30203,-1.99631 -2.51785,-1.78048 -0.0809,0.0809 -0.2478,0.90069 -0.37091,1.82178 -0.26678,1.99597 -0.53455,2.91794 -1.26108,4.34207 -1.72774,3.38664 -6.33677,5.29059 -11.2173,4.63377 -3.46002,-0.46564 -4.65657,-1.48196 -4.89955,-4.16149 -0.2704,-2.98206 1.18282,-5.08477 5.43181,-7.85947 l 2.20376,-1.4391 -2.20376,-0.1762 c -3.35975,-0.26862 -4.95753,-0.62454 -6.76741,-1.50747 -2.17935,-1.06318 -3.53931,-2.63728 -4.55581,-5.27316 -1.01104,-2.62172 -1.05186,-3.97984 -0.14113,-4.69621 0.95754,-0.75321 3.78247,-1.82763 5.76644,-2.19319 1.60824,-0.29633 1.86252,-0.27044 4.06013,0.41342 1.28944,0.40125 2.85045,1.07022 3.46892,1.48658 1.26516,0.85175 1.36521,0.79784 0.57608,-0.31039 -0.87641,-1.23081 -1.83285,-3.8393 -1.83285,-4.99871 0,-0.92041 0.11847,-1.13972 0.85989,-1.59177 2.30283,-1.40407 8.13327,0.13443 11.19108,2.95302 2.59003,2.38741 3.10517,6.69646 1.26801,10.60669 -0.39234,0.83505 -0.64433,1.58729 -0.55998,1.67163 0.0844,0.0844 0.92946,-0.61136 1.87803,-1.54602 1.27725,-1.25853 2.33076,-1.98882 4.061,-2.81508 4.68171,-2.23569 4.5853,-2.17049 4.5853,-3.10071 0,-0.46385 -0.1297,-0.8866 -0.28823,-0.93945 -0.15852,-0.0528 -0.34186,-0.74737 -0.40742,-1.5434 -0.10125,-1.22951 -0.24701,-1.55576 -0.96854,-2.16781 -0.67936,-0.57628 -1.12014,-0.72191 -2.2023,-0.72761 -1.71261,-0.009 -3.60077,-0.3613 -6.45226,-1.20386 -4.29943,-1.2704 -6.50322,-2.79363 -8.56109,-5.91728 -1.61231,-2.44733 -2.14969,-4.15375 -2.15237,-6.83473 -0.003,-2.62643 0.28551,-3.02349 2.64367,-3.64306 2.78535,-0.73181 5.83069,-0.47659 8.26415,0.6926 1.00182,0.48133 3.66926,3.37736 4.53396,4.92249 0.14249,0.25462 0.32784,0.39417 0.41189,0.31012 0.25641,-0.2564 -0.79148,-2.92526 -1.79971,-4.58367 -1.62857,-2.6788 -1.63923,-4.76172 -0.0409,-7.99571 1.67393,-3.38696 5.74948,-6.9616 7.94928,-6.97226 1.74764,-0.008 5.94327,3.76271 7.35,6.60643 0.77707,1.57087 0.84747,1.92491 0.84173,4.23334 -0.006,2.4997 -0.0149,2.53282 -1.12448,4.30026 -1.0504,1.67313 -1.44987,2.82067 -0.85363,2.45218 0.14552,-0.0899 0.26458,0.034 0.26458,0.27551 0,0.30228 0.4427,0.0344 1.42119,-0.85985 0.78166,-0.71439 2.45566,-1.82341 3.72001,-2.46449 2.19549,-1.11322 2.40264,-1.16561 4.60885,-1.16561 2.55756,0 3.61375,0.40655 4.64208,1.78683 0.4563,0.61246 0.55559,1.11949 0.54994,2.80833 -0.006,1.8113 -0.11264,2.26269 -0.87997,3.72654 -1.81493,3.46238 -3.55925,5.14078 -7.22526,6.95219 -2.05264,1.01423 -9.83892,3.95784 -11.34273,4.28813 l -0.8536,0.18748 0.1759,1.94119 c 0.1317,1.45335 0.0759,2.18053 -0.22202,2.89357 -0.30158,0.72178 -0.31995,0.97469 -0.0759,1.04453 3.93235,1.12509 5.48544,2.02669 7.87524,4.57176 1.06373,1.13285 1.85553,1.84753 1.75955,1.58819 -0.26632,-0.71963 -0.9692,-3.49963 -1.23804,-4.89662 -0.29841,-1.55067 0.1211,-4.56183 0.82948,-5.95377 1.22101,-2.39926 4.79991,-4.69342 8.20091,-5.25698 3.28113,-0.5437 4.94463,0.37955 4.60395,2.55522 -0.22195,1.41738 -1.42362,3.93301 -2.65448,5.55701 -0.55146,0.72761 -1.13104,1.50151 -1.28795,1.71979 -0.15691,0.21828 0.73822,-0.58586 1.98918,-1.78699 2.98036,-2.86165 4.09846,-3.37955 7.23174,-3.3497 2.59435,0.0247 5.4387,0.63729 6.4823,1.39606 1.26573,0.92029 1.41993,1.65384 0.83439,3.96932 -0.91469,3.61714 -2.72439,5.8543 -6.06684,7.49989 -1.34251,0.66096 -2.17868,0.8626 -4.36562,1.05277 -1.48778,0.12937 -3.12178,0.16833 -3.6311,0.0866 -0.86772,-0.13927 -0.8937,-0.12326 -0.41245,0.25422 0.28247,0.22157 0.60567,0.40285 0.71822,0.40285 0.58008,0 4.26744,2.53916 5.31733,3.66158 1.76819,1.89034 2.4154,3.28722 2.43247,5.25006 0.0127,1.46145 -0.0692,1.72269 -0.76884,2.45362 -0.45097,0.4711 -1.34096,0.98369 -2.09855,1.20867 -1.68749,0.50113 -5.5102,0.50243 -7.19068,0.002 -3.34157,-0.99421 -6.42213,-4.123 -7.64175,-7.76141 -0.96621,-2.88241 -1.03315,-2.95957 -1.82573,-2.10436 -0.69495,0.74987 -3.04692,4.82282 -3.55308,6.15293 -0.16613,0.43657 -0.43563,1.56766 -0.5989,2.51355 -0.36267,2.10113 -0.80061,2.64583 -2.12723,2.64583 -0.77793,0 -1.82998,-0.5064 -1.82998,-0.88085 0,-0.0271 0.35719,-1.09947 0.79375,-2.38301 0.43657,-1.28353 0.79375,-2.43519 0.79375,-2.55924 0,-0.53206 2.52167,-5.48931 3.14881,-6.19011 0.57959,-0.64766 0.60449,-0.73331 0.15849,-0.545 -0.90547,0.38231 -3.54956,0.0932 -5.30354,-0.57983 -0.31712,-0.12169 -0.38668,0.88021 -0.44647,6.4308 l -0.0708,6.57495 h -1.32291 -1.32292 v -6.28404 c 0,-3.45622 -0.0178,-6.28395 -0.0396,-6.28385 -0.0218,10e-5 -0.66054,0.41807 -1.41952,0.92882 -0.75898,0.51076 -1.66391,0.99992 -2.01096,1.08702 -0.34705,0.0871 -0.631,0.19529 -0.631,0.24042 0,0.0451 0.4115,0.9407 0.91444,1.99017 1.12629,2.35018 1.51609,4.14458 1.41341,6.50657 l -0.0789,1.81489 -1.05953,0.0782 c -0.59499,0.0439 -1.204,-0.0663 -1.38906,-0.25135 z m 3.37463,-32.49173 c 0,-0.2759 -1.58333,-1.94178 -2.65105,-2.78927 -2.16344,-1.7172 -2.64062,-2.0065 -2.64062,-1.60096 0,0.22568 0.1786,0.41034 0.39688,0.41034 0.21828,0 0.39687,0.17119 0.39687,0.38043 0,0.20924 0.53201,0.7625 1.18224,1.22946 0.65023,0.46696 1.11946,0.95061 1.04272,1.07477 -0.1229,0.19886 0.23026,0.32945 0.72196,0.26697 0.0928,-0.0118 0.38899,0.27175 0.65811,0.63012 0.50369,0.67071 0.89289,0.84426 0.89289,0.39814 z m 7.01146,-2.51997 c 0.7276,-0.64956 1.18334,-1.18424 1.01275,-1.18818 -0.40513,-0.009 -2.5268,1.61578 -2.66768,2.04336 -0.19949,0.6055 0.31871,0.33773 1.65493,-0.85518 z"
         id="path23702" />
      <path
         style="fill:#6e8b5b;stroke-width:2.03285"
         d="m 176.71969,301.38859 c -0.33502,-0.19513 -0.46506,-0.61347 -0.47041,-1.51331 -0.009,-1.58418 -1.22208,-5.13726 -2.35691,-6.90576 -0.48203,-0.75117 -1.47972,-1.89353 -2.21709,-2.53856 -1.5259,-1.33482 -2.03107,-1.24508 -2.03633,0.36174 -0.005,1.41613 -0.64096,3.56213 -1.5218,5.13226 -1.56155,2.78354 -4.831,4.42649 -8.80866,4.42649 -2.4948,0 -4.62707,-0.41706 -5.58281,-1.09197 -0.68799,-0.48582 -1.54609,-2.42615 -1.54609,-3.49597 0,-1.46864 0.9548,-3.51929 2.24479,-4.82118 1.70782,-1.72357 4.96101,-3.6554 5.73957,-3.4083 0.44564,0.14144 0.52831,0.0898 0.39834,-0.24892 -0.0902,-0.23507 -0.0586,-0.42741 0.0702,-0.42741 0.12883,0 0.29429,0.14883 0.36768,0.33073 0.0962,0.23847 0.13928,0.24283 0.15434,0.0156 0.0376,-0.5678 -0.56373,-0.70122 -4.06383,-0.90159 -5.94988,-0.34062 -8.48271,-1.68171 -10.19463,-5.39788 -0.40222,-0.87313 -0.87575,-2.20266 -1.05229,-2.95453 -0.49245,-2.0973 0.0345,-2.75956 3.11897,-3.92007 4.15269,-1.56241 6.83511,-1.15345 10.48353,1.59834 1.24181,0.93662 2.22817,1.55444 2.19192,1.37293 -0.0363,-0.1815 -0.46616,-0.91434 -0.95536,-1.62853 -1.13202,-1.65266 -2.41783,-4.6613 -2.41783,-5.65742 0,-1.55063 1.47305,-2.1696 4.53843,-1.90703 1.60066,0.13711 2.49653,0.39976 4.27604,1.25363 4.14779,1.99025 5.634,4.33859 5.40482,8.54009 -0.0899,1.64875 -0.28586,2.57199 -0.72994,3.43959 -0.49281,0.96281 -1.13164,2.90571 -0.9554,2.90571 0.0235,0 0.94507,-0.88203 2.04784,-1.96005 1.72954,-1.69074 2.46508,-2.18074 5.35329,-3.56625 l 3.34825,-1.6062 v -1.72542 c 0,-1.05856 -0.11039,-1.72542 -0.28561,-1.72542 -0.18223,0 -0.21987,-0.29927 -0.104,-0.82685 0.11042,-0.50273 0.0827,-0.7657 -0.0708,-0.67086 -0.13881,0.0858 -0.59054,-0.19697 -1.00383,-0.62836 -0.55636,-0.58072 -0.99619,-0.78486 -1.69414,-0.78634 -2.21956,-0.005 -8.86938,-1.56196 -9.29847,-2.17751 -0.26462,-0.37962 -1.94872,-1.18532 -2.25493,-1.0788 -0.40426,0.14063 -2.8697,-2.12324 -3.82605,-3.51324 -1.77242,-2.57612 -2.184,-3.7551 -2.31147,-6.62113 -0.10797,-2.42763 -0.0687,-2.73096 0.41571,-3.21542 0.58411,-0.58411 3.64088,-1.38357 5.29015,-1.38357 1.60222,0 4.73563,0.92762 5.75197,1.70281 0.90318,0.68889 3.73368,4.26124 4.20623,5.30865 0.20123,0.44603 0.25529,0.46134 0.34409,0.0975 0.13855,-0.56768 -0.87678,-3.61835 -1.48812,-4.47122 -2.02273,-2.82189 -2.29117,-5.29788 -0.89489,-8.25409 1.61704,-3.42358 4.59121,-6.45683 7.07418,-7.21468 1.23272,-0.37625 1.36924,-0.36741 2.45697,0.15915 1.38544,0.67069 3.77305,2.79953 4.31401,3.84649 0.21474,0.41559 0.5988,0.98643 0.85346,1.26853 0.25466,0.2821 0.46302,0.68477 0.46302,0.89481 0,0.21005 0.26193,0.80573 0.58208,1.32373 0.47421,0.7673 0.58175,1.33695 0.58027,3.07394 -0.002,2.03674 -0.0518,2.21482 -1.11958,3.9813 -1.22219,2.02195 -1.7315,3.40671 -1.58967,4.32222 0.0806,0.52007 0.23143,0.4162 1.2433,-0.85599 1.32099,-1.66082 4.65035,-3.97184 6.54237,-4.54125 1.95341,-0.58789 4.98645,-0.49651 6.20237,0.18688 1.57883,0.88735 1.97354,2.05121 1.61051,4.74875 -0.30831,2.2909 -1.09769,4.0531 -2.7642,6.17074 -0.94411,1.19968 -3.63126,3.0065 -6.1561,4.13932 -2.20316,0.9885 -8.8484,3.38281 -10.12935,3.64966 l -0.95513,0.19897 0.0916,2.13444 c 0.0669,1.55993 -0.0193,2.34875 -0.32018,2.93065 -0.42404,0.82001 -0.34727,1.12788 0.28126,1.12788 0.19872,0 1.28539,0.35636 2.41483,0.79192 2.30721,0.88975 4.50508,2.34467 4.007,2.6525 -0.22518,0.13916 -0.23092,0.24448 -0.0204,0.37458 0.16105,0.0995 0.29283,0.0929 0.29283,-0.0147 0,-0.10763 0.47625,0.44263 1.05833,1.2228 0.58208,0.78017 1.05833,1.52307 1.05833,1.6509 0,0.12783 0.11907,0.15883 0.26459,0.0689 0.14552,-0.0899 0.26458,0.0348 0.26458,0.27728 0,0.29324 0.14009,0.38704 0.41852,0.2802 0.23018,-0.0883 0.4683,-0.1606 0.52916,-0.1606 0.0609,0 0.11065,-0.13891 0.11065,-0.30868 0,-0.16978 -0.0828,-0.22588 -0.18401,-0.12467 -0.10121,0.10121 -0.33012,-0.32543 -0.5087,-0.94809 -0.17857,-0.62266 -0.5801,-1.96554 -0.89229,-2.98419 -1.11645,-3.64286 -0.30248,-7.52339 2.02884,-9.67233 3.07036,-2.83015 9.21569,-4.24923 10.69297,-2.46921 1.03573,1.24797 -0.74157,5.73573 -3.42005,8.63581 -0.41143,0.44547 -0.53546,0.72761 -0.31986,0.72761 0.19368,0 1.21186,-0.88232 2.26262,-1.96072 3.10019,-3.18171 4.96765,-3.82149 9.27835,-3.17869 3.1051,0.46302 4.89675,1.24628 5.25761,2.29847 0.32059,0.93477 -0.19657,3.53668 -1.07016,5.38405 -0.846,1.78905 -3.11761,3.8963 -5.32983,4.94421 -1.71864,0.81411 -1.93227,0.84935 -5.49236,0.90609 -2.03729,0.0325 -3.7637,0.0661 -3.83646,0.0748 -0.0728,0.009 0.4314,0.26436 1.12035,0.56822 0.68896,0.30387 1.18794,0.65717 1.10887,0.78512 -0.0791,0.12796 0.10429,0.23264 0.40748,0.23264 0.77013,0 3.77731,1.95066 4.79625,3.11117 1.94348,2.2135 2.7536,5.49542 1.739,7.045 -1.43014,2.18425 -7.58199,2.67551 -11.25292,0.89861 -1.8146,-0.87834 -4.66273,-3.91517 -5.32036,-5.67283 -0.29489,-0.78818 -0.53683,-1.69647 -0.53765,-2.01843 -0.002,-0.91547 -0.55652,-2.68421 -0.75032,-2.39463 -0.0958,0.14318 -0.37782,0.33538 -0.62663,0.42709 -1.10024,0.40556 -4.61182,6.77259 -4.84817,8.79048 -0.22681,1.93647 -0.42635,2.51546 -0.96651,2.80455 -0.69355,0.37117 -2.313,0.0661 -2.52058,-0.47487 -0.37143,-0.96793 2.72074,-8.85008 4.20912,-10.72931 0.43318,-0.54693 1.07501,-1.06656 1.42629,-1.15472 0.35129,-0.0882 0.6387,-0.27349 0.6387,-0.41182 0,-0.13833 -0.14883,-0.1621 -0.33073,-0.0528 -0.22473,0.13501 -0.21434,0.0552 0.0324,-0.24897 0.5115,-0.63058 0.0529,-0.55786 -0.6508,0.10319 -0.82363,0.77376 -2.33585,0.90189 -4.43401,0.37569 -0.9877,-0.2477 -1.83438,-0.40868 -1.88152,-0.35773 -0.0471,0.051 -0.15886,2.93268 -0.24827,6.40384 -0.0894,3.47116 -0.22854,6.41796 -0.30918,6.54844 -0.24201,0.39157 -1.87754,0.26753 -2.24061,-0.16993 -0.26437,-0.31856 -0.29818,-1.70066 -0.15534,-6.35 0.10042,-3.26856 0.0891,-5.94066 -0.0252,-5.93802 -0.11428,0.003 -0.73701,0.3634 -1.38385,0.80166 -1.78841,1.21174 -2.28688,1.255 -3.28733,0.28532 -0.82742,-0.80196 -1.61757,-1.19981 -0.91331,-0.45986 2.68296,2.81896 4.77556,9.44869 3.64761,11.5563 -0.30019,0.5609 -1.40185,0.67544 -2.17351,0.22599 z m -10.78762,-10.95901 c 1.99729,-2.95722 2.35273,-3.83646 1.55091,-3.83646 -0.12035,0 -0.54896,0.45575 -0.95247,1.01277 -0.42566,0.58761 -0.89842,0.96791 -1.12614,0.9059 -0.29912,-0.0815 -0.31211,-0.0501 -0.0546,0.13174 0.2633,0.18595 0.18239,0.5168 -0.36661,1.49907 -0.44109,0.78921 -0.77621,1.14439 -0.89633,0.95002 -0.10636,-0.17208 -0.18695,0.0237 -0.18084,0.43931 0.006,0.41235 -0.0902,0.98786 -0.21401,1.2789 l -0.22503,0.52916 0.60713,-0.52916 c 0.33391,-0.29104 1.17002,-1.36261 1.858,-2.38125 z m 33.98233,1.75548 c -0.0213,-0.71962 -0.47025,-1.32469 -2.86009,-3.85499 l -0.76589,-0.81091 0.19109,0.78923 c 0.1051,0.43408 0.74741,1.42697 1.42736,2.20644 0.67994,0.77946 1.39961,1.6447 1.59926,1.92275 0.19965,0.27805 0.37824,0.50555 0.39687,0.50556 0.0186,10e-6 0.0238,-0.34112 0.0114,-0.75808 z m -3.15252,-6.38569 c 0.0899,-0.14552 0.36565,-0.26458 0.6127,-0.26458 0.24705,0 1.59932,-0.64795 3.00506,-1.43989 1.40573,-0.79194 3.60759,-1.86836 4.89301,-2.39205 2.8071,-1.14363 4.05694,-1.77438 4.05694,-2.0474 0,-0.21999 -0.76322,-0.15595 -1.19063,0.0999 -0.14552,0.0871 -0.97896,0.35692 -1.85208,0.59957 -0.87313,0.24266 -2.20594,0.68509 -2.9618,0.98318 -0.75587,0.2981 -1.5184,0.45294 -1.69453,0.34409 -0.21833,-0.13494 -0.25131,-0.0864 -0.10365,0.15251 0.15466,0.25024 0.0978,0.30485 -0.19887,0.19101 -0.26426,-0.10141 -1.07186,0.36365 -2.21921,1.27795 -0.99207,0.79056 -1.92598,1.44116 -2.07535,1.44579 -0.49327,0.0153 -1.25388,0.74486 -1.07622,1.03232 0.21927,0.35479 0.5912,0.36293 0.80463,0.0176 z m -28.92703,-0.7462 c 0.41257,-0.16797 0.41257,-0.21524 0,-0.71626 -0.58339,-0.70847 -2.36824,-1.79389 -3.06381,-1.8632 -0.3041,-0.0303 -2.03641,-0.66365 -3.84958,-1.40743 -3.22162,-1.32154 -4.93164,-1.69558 -4.70984,-1.0302 0.059,0.17717 0.75358,0.57503 1.5434,0.88415 0.78981,0.30911 2.62665,1.02539 4.08186,1.59172 1.45521,0.56633 2.88396,1.27995 3.175,1.58581 1.00993,1.06135 1.85788,1.34833 2.82297,0.95541 z m 12.76783,-14.66348 c 0.10795,0.10787 0.15429,-0.17179 0.10297,-0.62148 -0.0513,-0.44969 -0.26965,-0.99463 -0.4852,-1.21098 -0.21555,-0.21635 -0.75274,-0.80092 -1.19377,-1.29905 -0.44102,-0.49813 -1.27446,-1.25927 -1.85208,-1.69143 -0.57762,-0.43216 -1.25109,-0.96981 -1.4966,-1.19479 -0.61537,-0.5639 -4.84714,-2.64967 -5.37586,-2.64967 -0.23664,0 -0.67075,-0.12871 -0.96469,-0.28602 -0.29394,-0.15731 -0.59276,-0.2277 -0.66404,-0.15642 -0.0713,0.0713 0.63434,0.55683 1.56805,1.079 0.93371,0.52216 2.29667,1.52371 3.02879,2.22566 0.73213,0.70196 1.97147,1.73771 2.75409,2.30167 2.44105,1.75901 4.01997,3.14266 3.70573,3.24741 -0.16593,0.0553 -0.23082,0.21523 -0.1442,0.35539 0.0993,0.16066 0.28001,0.15316 0.48901,-0.0203 0.18234,-0.15132 0.41985,-0.18687 0.5278,-0.079 z m 4.99795,-1.56459 c 0.31785,-0.16804 1.11059,-0.77207 1.76164,-1.34228 0.65105,-0.57022 2.03896,-1.4319 3.08425,-1.91485 1.04528,-0.48295 2.03484,-1.12908 2.19902,-1.43585 0.16417,-0.30676 0.45902,-0.55775 0.65521,-0.55775 0.36357,0 0.74108,-0.91207 0.48394,-1.16921 -0.0778,-0.0778 -0.68997,0.14587 -1.36029,0.49711 -0.67032,0.35125 -1.93315,0.88941 -2.80627,1.19592 -2.53393,0.88954 -4.78943,2.76023 -5.0142,4.15873 -0.14324,0.89118 0.11127,1.03627 0.9967,0.56818 z m -3.65542,-10.82568 c 0,-5.11632 -0.0932,-7.77178 -0.2748,-7.83299 -0.17683,-0.0596 -0.27538,0.78116 -0.27644,2.35818 -8.9e-4,1.34794 -0.0425,4.65676 -0.0924,7.35294 -0.0852,4.60119 0.0419,6.23711 0.46426,5.974 0.0987,-0.0615 0.17939,-3.59493 0.17939,-7.85213 z m 1.03642,7.36089 c 0.46774,-2.31169 0.3671,-13.51334 -0.1166,-12.97748 -0.30728,0.34043 -0.56462,13.57279 -0.26396,13.57279 0.14306,0 0.31431,-0.26789 0.38056,-0.59531 z m -10.95829,-0.18573 c 0,-0.29711 -2.42266,-2.01901 -2.71198,-1.92753 -0.10914,0.0345 -0.19844,-0.0424 -0.19844,-0.17099 0,-0.12855 -0.20836,-0.30276 -0.46302,-0.38714 -0.25466,-0.0844 -0.73091,-0.35091 -1.05833,-0.5923 -0.35563,-0.26218 -0.59531,-0.31936 -0.59531,-0.14202 0,0.16327 0.13884,0.29685 0.30853,0.29685 0.16969,0 0.49711,0.18746 0.7276,0.41657 0.32503,0.32308 3.60928,2.60976 3.9248,2.73267 0.0364,0.0142 0.0661,-0.0876 0.0661,-0.22611 z m -0.89825,-4.29101 c 0.12662,-0.20488 0.0498,-0.25526 -0.22708,-0.14899 -0.24082,0.0924 -0.48029,-8e-4 -0.56426,-0.21962 -0.0802,-0.2091 -0.38401,-0.38017 -0.67505,-0.38017 -0.37035,0 -0.48171,0.12368 -0.37104,0.41208 0.087,0.22664 0.31755,0.3509 0.51239,0.27614 0.19484,-0.0748 0.42463,-0.0221 0.51064,0.11708 0.21263,0.34405 0.58271,0.31837 0.8144,-0.0565 z"
         id="path23689" />
      <path
         style="fill:#8f7830;stroke-width:2.03285"
         d="m 176.85198,301.40154 c -0.50422,-0.20267 -0.59531,-0.43838 -0.59531,-1.54049 0,-1.586 -1.20764,-5.08902 -2.38915,-6.93024 -0.46836,-0.72989 -1.45487,-1.85482 -2.19224,-2.49985 -1.5259,-1.33482 -2.03107,-1.24508 -2.03633,0.36174 -0.005,1.41613 -0.64096,3.56213 -1.5218,5.13226 -1.54835,2.76001 -4.85623,4.42649 -8.78634,4.42649 -2.51548,0 -4.64677,-0.41521 -5.60513,-1.09197 -0.68799,-0.48582 -1.54609,-2.42615 -1.54609,-3.49597 0,-1.46864 0.9548,-3.51929 2.24479,-4.82118 1.70782,-1.72357 4.96101,-3.6554 5.73957,-3.4083 0.44564,0.14144 0.52831,0.0898 0.39834,-0.24892 -0.0902,-0.23507 -0.0586,-0.42741 0.0702,-0.42741 0.12883,0 0.29429,0.14883 0.36768,0.33073 0.0962,0.23847 0.13928,0.24283 0.15434,0.0156 0.0376,-0.5678 -0.56373,-0.70122 -4.06383,-0.90159 -5.94988,-0.34062 -8.48271,-1.68171 -10.19463,-5.39788 -0.40222,-0.87313 -0.87861,-2.21461 -1.05866,-2.98108 -0.28323,-1.20576 -0.26982,-1.48137 0.0995,-2.04501 0.75375,-1.15037 3.92678,-2.46091 6.50727,-2.68767 2.55156,-0.22422 4.263,0.37155 7.00211,2.4375 1.24181,0.93662 2.22817,1.55444 2.19192,1.37293 -0.0363,-0.1815 -0.46616,-0.91434 -0.95536,-1.62853 -1.13202,-1.65266 -2.41783,-4.6613 -2.41783,-5.65742 0,-1.55063 1.47305,-2.1696 4.53843,-1.90703 1.60066,0.13711 2.49653,0.39976 4.27604,1.25363 4.09356,1.96423 5.62644,4.34382 5.41306,8.40309 -0.0764,1.45399 -0.30078,2.53085 -0.7166,3.43959 -0.50602,1.10585 -1.12792,3.04271 -0.97698,3.04271 0.0235,0 0.94507,-0.88203 2.04784,-1.96005 1.72954,-1.69074 2.46508,-2.18074 5.35329,-3.56625 l 3.34825,-1.6062 v -1.72542 c 0,-1.05856 -0.11039,-1.72542 -0.28561,-1.72542 -0.18223,0 -0.21987,-0.29927 -0.104,-0.82685 0.11042,-0.50273 0.0827,-0.7657 -0.0708,-0.67086 -0.13881,0.0858 -0.59054,-0.19697 -1.00383,-0.62836 -0.55636,-0.58072 -0.99619,-0.78486 -1.69414,-0.78634 -2.21956,-0.005 -8.86938,-1.56196 -9.29847,-2.17751 -0.26462,-0.37962 -1.94872,-1.18532 -2.25493,-1.0788 -0.40426,0.14063 -2.8697,-2.12324 -3.82605,-3.51324 -1.77242,-2.57612 -2.184,-3.7551 -2.31147,-6.62113 -0.10797,-2.42763 -0.0687,-2.73096 0.41571,-3.21542 0.58411,-0.58411 3.64088,-1.38357 5.29015,-1.38357 1.60222,0 4.73563,0.92762 5.75197,1.70281 0.90318,0.68889 3.73368,4.26124 4.20623,5.30865 0.20123,0.44603 0.25529,0.46134 0.34409,0.0975 0.13855,-0.56768 -0.87678,-3.61835 -1.48812,-4.47122 -2.02273,-2.82189 -2.29117,-5.29788 -0.89489,-8.25409 1.61704,-3.42358 4.59121,-6.45683 7.07418,-7.21468 1.23272,-0.37625 1.36924,-0.36741 2.45697,0.15915 1.38544,0.67069 3.77305,2.79953 4.31401,3.84649 0.21474,0.41559 0.5988,0.98643 0.85346,1.26853 0.25466,0.2821 0.46302,0.68477 0.46302,0.89481 0,0.21005 0.26193,0.80573 0.58208,1.32373 0.47421,0.7673 0.58175,1.33695 0.58027,3.07394 -0.002,2.03674 -0.0518,2.21482 -1.11958,3.9813 -1.22219,2.02195 -1.7315,3.40671 -1.58967,4.32222 0.0806,0.52007 0.23143,0.4162 1.2433,-0.85599 1.32099,-1.66082 4.65035,-3.97184 6.54237,-4.54125 1.95341,-0.58789 4.98645,-0.49651 6.20237,0.18688 1.57883,0.88735 1.97354,2.05121 1.61051,4.74875 -0.30831,2.2909 -1.09769,4.0531 -2.7642,6.17074 -0.94411,1.19968 -3.63126,3.0065 -6.1561,4.13932 -2.20316,0.9885 -8.8484,3.38281 -10.12935,3.64966 l -0.95513,0.19897 0.0916,2.13444 c 0.0685,1.59568 -0.0172,2.34472 -0.33924,2.96751 -0.42456,0.82101 -0.42085,0.83684 0.2564,1.09433 0.37795,0.1437 0.82827,0.26449 1.00069,0.26843 0.17243,0.004 1.10237,0.34376 2.06652,0.75517 2.08285,0.88876 3.8411,2.14399 3.39197,2.42157 -0.2216,0.13695 -0.22544,0.23975 -0.0138,0.37052 0.16105,0.0995 0.29283,0.0929 0.29283,-0.0147 0,-0.10763 0.47625,0.44263 1.05833,1.2228 0.58208,0.78017 1.05833,1.52307 1.05833,1.6509 0,0.12783 0.11907,0.15883 0.26459,0.0689 0.14552,-0.0899 0.26458,0.0348 0.26458,0.27728 0,0.29324 0.14009,0.38704 0.41852,0.2802 0.23018,-0.0883 0.4683,-0.1606 0.52916,-0.1606 0.0609,0 0.11065,-0.13891 0.11065,-0.30868 0,-0.16978 -0.0828,-0.22588 -0.18401,-0.12467 -0.10121,0.10121 -0.33012,-0.32543 -0.5087,-0.94809 -0.17857,-0.62266 -0.5801,-1.96554 -0.89229,-2.98419 -1.11645,-3.64286 -0.30248,-7.52339 2.02884,-9.67233 3.07036,-2.83015 9.21569,-4.24923 10.69297,-2.46921 1.03573,1.24797 -0.74157,5.73573 -3.42005,8.63581 -0.41143,0.44547 -0.53546,0.72761 -0.31986,0.72761 0.19368,0 1.21186,-0.88232 2.26262,-1.96072 3.10019,-3.18171 4.96765,-3.82149 9.27835,-3.17869 3.1051,0.46302 4.89675,1.24628 5.25761,2.29847 0.32059,0.93477 -0.19657,3.53668 -1.07016,5.38405 -0.846,1.78905 -3.11761,3.8963 -5.32983,4.94421 -1.71864,0.81411 -1.93227,0.84935 -5.49236,0.90609 -2.03729,0.0325 -3.7637,0.0661 -3.83646,0.0748 -0.0728,0.009 0.4314,0.26436 1.12035,0.56822 0.68896,0.30387 1.18794,0.65717 1.10887,0.78512 -0.0791,0.12796 0.10429,0.23264 0.40748,0.23264 0.77013,0 3.77731,1.95066 4.79625,3.11117 1.94348,2.2135 2.7536,5.49542 1.739,7.045 -1.43014,2.18425 -7.58199,2.67551 -11.25292,0.89861 -1.8146,-0.87834 -4.66273,-3.91517 -5.32036,-5.67283 -0.29489,-0.78818 -0.53683,-1.69647 -0.53765,-2.01843 -0.002,-0.91547 -0.55652,-2.68421 -0.75032,-2.39463 -0.0958,0.14318 -0.37782,0.33538 -0.62663,0.42709 -1.1003,0.40558 -4.5895,6.6791 -4.83119,8.68638 -0.26275,2.18222 -0.43647,2.64272 -1.09081,2.8915 -0.81775,0.31091 -2.22553,0.0315 -2.4221,-0.48074 -0.19898,-0.51854 1.03327,-4.33012 2.37042,-7.33218 1.21251,-2.72221 2.35107,-4.29724 3.27383,-4.52883 0.35129,-0.0882 0.6387,-0.27349 0.6387,-0.41182 0,-0.13833 -0.14883,-0.1621 -0.33073,-0.0528 -0.22473,0.13501 -0.21434,0.0552 0.0324,-0.24897 0.5115,-0.63058 0.0529,-0.55786 -0.6508,0.10319 -0.82363,0.77376 -2.33585,0.90189 -4.43401,0.37569 -0.9877,-0.2477 -1.83438,-0.40868 -1.88152,-0.35773 -0.0471,0.051 -0.15886,2.93268 -0.24827,6.40384 -0.0894,3.47116 -0.22854,6.41796 -0.30918,6.54844 -0.24201,0.39157 -1.87754,0.26753 -2.24061,-0.16993 -0.26437,-0.31856 -0.29818,-1.70066 -0.15534,-6.35 0.10042,-3.26856 0.0891,-5.94066 -0.0252,-5.93802 -0.11428,0.003 -0.73701,0.3634 -1.38385,0.80166 -1.78841,1.21174 -2.28688,1.255 -3.28733,0.28532 -0.82742,-0.80196 -1.61757,-1.19981 -0.91331,-0.45986 2.15474,2.26397 3.90396,6.68631 3.9169,9.90265 0.008,1.97989 -0.68373,2.54648 -2.31051,1.89259 z m -10.91991,-10.97196 c 1.99729,-2.95722 2.35273,-3.83646 1.55091,-3.83646 -0.12035,0 -0.54896,0.45575 -0.95247,1.01277 -0.42566,0.58761 -0.89842,0.96791 -1.12614,0.9059 -0.29912,-0.0815 -0.31211,-0.0501 -0.0546,0.13174 0.2633,0.18595 0.18239,0.5168 -0.36661,1.49907 -0.44109,0.78921 -0.77621,1.14439 -0.89633,0.95002 -0.10636,-0.17208 -0.18695,0.0237 -0.18084,0.43931 0.006,0.41235 -0.0902,0.98786 -0.21401,1.2789 l -0.22503,0.52916 0.60713,-0.52916 c 0.33391,-0.29104 1.17002,-1.36261 1.858,-2.38125 z m 33.98233,1.75548 c -0.0213,-0.71962 -0.47025,-1.32469 -2.86009,-3.85499 l -0.76589,-0.81091 0.19109,0.78923 c 0.1051,0.43408 0.74741,1.42697 1.42736,2.20644 0.67994,0.77946 1.39961,1.6447 1.59926,1.92275 0.19965,0.27805 0.37824,0.50555 0.39687,0.50556 0.0186,10e-6 0.0238,-0.34112 0.0114,-0.75808 z m -3.15252,-6.38569 c 0.0899,-0.14552 0.36565,-0.26458 0.6127,-0.26458 0.24705,0 1.59932,-0.64795 3.00506,-1.43989 1.40573,-0.79194 3.60759,-1.86836 4.89301,-2.39205 2.8071,-1.14363 4.05694,-1.77438 4.05694,-2.0474 0,-0.21999 -0.76322,-0.15595 -1.19063,0.0999 -0.14552,0.0871 -0.97896,0.35692 -1.85208,0.59957 -0.87313,0.24266 -2.20594,0.68509 -2.9618,0.98318 -0.75587,0.2981 -1.5184,0.45294 -1.69453,0.34409 -0.21833,-0.13494 -0.25131,-0.0864 -0.10365,0.15251 0.15466,0.25024 0.0978,0.30485 -0.19887,0.19101 -0.26426,-0.10141 -1.07186,0.36365 -2.21921,1.27795 -0.99207,0.79056 -1.92598,1.44116 -2.07535,1.44579 -0.49327,0.0153 -1.25388,0.74486 -1.07622,1.03232 0.21927,0.35479 0.5912,0.36293 0.80463,0.0176 z m -28.92703,-0.7462 c 0.41257,-0.16797 0.41257,-0.21524 0,-0.71626 -0.58339,-0.70847 -2.36824,-1.79389 -3.06381,-1.8632 -0.3041,-0.0303 -2.03641,-0.66365 -3.84958,-1.40743 -3.22162,-1.32154 -4.93164,-1.69558 -4.70984,-1.0302 0.059,0.17717 0.75358,0.57503 1.5434,0.88415 0.78981,0.30911 2.62665,1.02539 4.08186,1.59172 1.45521,0.56633 2.88396,1.27995 3.175,1.58581 1.00993,1.06135 1.85788,1.34833 2.82297,0.95541 z m 12.76783,-14.66348 c 0.10795,0.10787 0.15429,-0.17179 0.10297,-0.62148 -0.0513,-0.44969 -0.26965,-0.99463 -0.4852,-1.21098 -0.21555,-0.21635 -0.75274,-0.80092 -1.19377,-1.29905 -0.44102,-0.49813 -1.27446,-1.25927 -1.85208,-1.69143 -0.57762,-0.43216 -1.25109,-0.96981 -1.4966,-1.19479 -0.61537,-0.5639 -4.84714,-2.64967 -5.37586,-2.64967 -0.23664,0 -0.67075,-0.12871 -0.96469,-0.28602 -0.29394,-0.15731 -0.59276,-0.2277 -0.66404,-0.15642 -0.0713,0.0713 0.63434,0.55683 1.56805,1.079 0.93371,0.52216 2.29667,1.52371 3.02879,2.22566 0.73213,0.70196 1.97147,1.73771 2.75409,2.30167 2.44105,1.75901 4.01997,3.14266 3.70573,3.24741 -0.16593,0.0553 -0.23082,0.21523 -0.1442,0.35539 0.0993,0.16066 0.28001,0.15316 0.48901,-0.0203 0.18234,-0.15132 0.41985,-0.18687 0.5278,-0.079 z m 4.99795,-1.56459 c 0.31785,-0.16804 1.11059,-0.77207 1.76164,-1.34228 0.65105,-0.57022 2.03896,-1.4319 3.08425,-1.91485 1.04528,-0.48295 2.03484,-1.12908 2.19902,-1.43585 0.16417,-0.30676 0.45902,-0.55775 0.65521,-0.55775 0.36357,0 0.74108,-0.91207 0.48394,-1.16921 -0.0778,-0.0778 -0.68997,0.14587 -1.36029,0.49711 -0.67032,0.35125 -1.93315,0.88941 -2.80627,1.19592 -2.53393,0.88954 -4.78943,2.76023 -5.0142,4.15873 -0.14324,0.89118 0.11127,1.03627 0.9967,0.56818 z m -3.65542,-10.82568 c 0,-5.11632 -0.0932,-7.77178 -0.2748,-7.83299 -0.17683,-0.0596 -0.27538,0.78116 -0.27644,2.35818 -8.9e-4,1.34794 -0.0425,4.65676 -0.0924,7.35294 -0.0852,4.60119 0.0419,6.23711 0.46426,5.974 0.0987,-0.0615 0.17939,-3.59493 0.17939,-7.85213 z m 1.03642,7.36089 c 0.46774,-2.31169 0.3671,-13.51334 -0.1166,-12.97748 -0.30728,0.34043 -0.56462,13.57279 -0.26396,13.57279 0.14306,0 0.31431,-0.26789 0.38056,-0.59531 z m -10.95829,-0.18573 c 0,-0.29711 -2.42266,-2.01901 -2.71198,-1.92753 -0.10914,0.0345 -0.19844,-0.0424 -0.19844,-0.17099 0,-0.12855 -0.20836,-0.30276 -0.46302,-0.38714 -0.25466,-0.0844 -0.73091,-0.35091 -1.05833,-0.5923 -0.35563,-0.26218 -0.59531,-0.31936 -0.59531,-0.14202 0,0.16327 0.13884,0.29685 0.30853,0.29685 0.16969,0 0.49711,0.18746 0.7276,0.41657 0.32503,0.32308 3.60928,2.60976 3.9248,2.73267 0.0364,0.0142 0.0661,-0.0876 0.0661,-0.22611 z m -0.89825,-4.29101 c 0.12662,-0.20488 0.0498,-0.25526 -0.22708,-0.14899 -0.24082,0.0924 -0.48029,-8e-4 -0.56426,-0.21962 -0.0802,-0.2091 -0.38401,-0.38017 -0.67505,-0.38017 -0.37035,0 -0.48171,0.12368 -0.37104,0.41208 0.087,0.22664 0.31755,0.3509 0.51239,0.27614 0.19484,-0.0748 0.42463,-0.0221 0.51064,0.11708 0.21263,0.34405 0.58271,0.31837 0.8144,-0.0565 z"
         id="path23676" />
      <path
         style="fill:#646125;stroke-width:2.03285"
         d="m 174.03005,247.69937 c 0.5263,-2.04967 4.10635,-6.50702 5.93079,-7.38413 0.53694,-0.25814 0.51204,-0.20759 -0.13229,0.26853 -1.84625,1.36426 -4.1057,4.00041 -5.02318,5.86066 -0.51984,1.05402 -0.86874,1.61874 -0.77532,1.25494 z"
         id="path23664" />
      <path
         style="fill:#646125;stroke-width:2.03285"
         d="m 173.487,251.07281 c -0.0859,-0.61847 -0.0527,-1.48167 0.0739,-1.91823 0.1806,-0.62276 0.2274,-0.38053 0.21724,1.12448 -0.007,1.05502 -0.0404,1.91823 -0.0739,1.91823 -0.0335,0 -0.1313,-0.50602 -0.21724,-1.12448 z"
         id="path23662" />
      <path
         style="fill:#646125;stroke-width:2.03285"
         d="m 201.55215,253.32749 c -0.10599,-0.10599 -1.22716,-0.27243 -2.49149,-0.36986 l -2.29878,-0.17715 2.30199,0.0391 c 1.44033,0.0245 2.42575,0.16293 2.63261,0.36986 0.18183,0.18191 0.26711,0.33073 0.1895,0.33073 -0.0776,0 -0.22784,-0.0867 -0.33383,-0.19271 z"
         id="path23661" />
      <path
         style="fill:#646125;stroke-width:2.03285"
         d="m 192.79313,254.70464 c 0.68707,-0.58241 3.06077,-1.71126 3.57187,-1.69865 0.21829,0.005 -0.16114,0.22798 -0.84315,0.49465 -0.68202,0.26668 -1.69405,0.7476 -2.24896,1.06872 -0.5831,0.33743 -0.78559,0.39453 -0.47976,0.13528 z"
         id="path23659" />
      <path
         style="fill:#646125;stroke-width:2.03285"
         d="m 187.90415,256.7508 c -0.008,-0.49149 0.98478,-2.36479 1.37947,-2.60199 0.26492,-0.1592 0.26775,-0.11849 0.0136,0.19572 -0.17648,0.21821 -0.56082,0.92568 -0.85409,1.57214 -0.29326,0.64647 -0.53583,1.02183 -0.53902,0.83413 z"
         id="path23656" />
      <path
         style="fill:#646125;stroke-width:2.03285"
         d="m 176.21904,257.18398 c -0.18639,-0.63263 -0.78996,-1.8533 -1.34126,-2.71261 -1.28713,-2.00625 -1.31451,-2.59571 -0.0316,-0.68055 0.91673,1.36851 2.07591,4.17925 1.82647,4.4287 -0.0631,0.0631 -0.26721,-0.40291 -0.4536,-1.03554 z"
         id="path23651" />
      <path
         style="fill:#646125;stroke-width:2.03285"
         d="m 161.60435,261.50957 c -0.42127,-0.68163 -0.95809,-3.53854 -0.95809,-5.09886 0,-2.43065 0.42656,-2.92727 3.04373,-3.5436 2.19509,-0.51694 3.7604,-0.44882 6.17663,0.26879 2.03112,0.60324 1.57229,0.68208 -0.62141,0.10677 -2.34115,-0.61397 -3.43316,-0.62721 -5.7433,-0.0696 -2.47883,0.5983 -2.70597,0.95699 -2.52929,3.99399 0.0738,1.26846 0.32977,2.77106 0.56883,3.33911 0.39469,0.93781 0.43672,1.60827 0.0629,1.00343 z"
         id="path23646" />
      <path
         style="fill:#646125;stroke-width:2.03285"
         d="m 195.93575,267.35683 c 1.29187,-0.67491 3.07604,-1.89137 3.9648,-2.70324 1.02227,-0.93383 1.34251,-1.14377 0.87168,-0.57146 -0.40934,0.49757 -1.24403,1.28628 -1.85487,1.75269 -1.07422,0.82023 -4.7083,2.77563 -5.12544,2.75786 -0.11277,-0.005 0.85195,-0.56094 2.14383,-1.23585 z"
         id="path23642" />
      <path
         style="fill:#646125;stroke-width:2.03285"
         d="m 163.95355,268.17643 -1.32292,-0.36212 1.16519,0.1386 c 0.64086,0.0762 1.35523,0.24972 1.5875,0.38551 0.55125,0.32228 0.18979,0.28133 -1.42977,-0.16199 z"
         id="path23641" />
      <path
         style="fill:#646125;stroke-width:2.03285"
         d="m 174.40459,269.91045 c -0.59616,-0.13444 -0.26628,-0.15755 0.92604,-0.0649 1.01865,0.0792 1.90169,0.18883 1.96233,0.24367 0.18898,0.17093 -1.9152,0.0407 -2.88837,-0.17879 z"
         id="path23637" />
      <path
         style="fill:#646125;stroke-width:2.03285"
         d="m 188.71414,270.35232 c 0.22794,-0.20928 4.02426,-1.49692 4.1228,-1.39837 0.0566,0.0566 -0.78226,0.41717 -1.86416,0.80125 -1.84915,0.65646 -2.51501,0.8325 -2.25864,0.59712 z"
         id="path23635" />
      <path
         style="fill:#646125;stroke-width:2.03285"
         d="m 204.05879,273.86061 c -0.0115,-0.0906 0.23073,-0.73358 0.53823,-1.42875 0.40478,-0.91508 0.52219,-1.59147 0.42536,-2.45057 -0.0826,-0.73281 -0.045,-1.04649 0.0983,-0.82021 0.41928,0.66205 0.24441,2.19552 -0.40384,3.54141 -0.35045,0.72761 -0.64657,1.24876 -0.65805,1.15812 z"
         id="path23631" />
      <path
         style="fill:#646125;stroke-width:2.03285"
         d="m 192.41494,274.67252 c -0.0326,-0.71848 1.50196,-2.8438 2.68057,-3.71238 1.97919,-1.45857 4.1375,-2.32489 6.16429,-2.47427 l 1.85208,-0.13651 -1.9909,0.32496 c -3.68463,0.60141 -7.07695,2.81146 -8.21365,5.35109 -0.26053,0.58208 -0.48211,0.87329 -0.49239,0.64711 z"
         id="path23628" />
      <path
         style="fill:#646125;stroke-width:2.03285"
         d="m 146.4119,275.38182 c 0.74528,-0.67498 3.19121,-1.69996 4.57023,-1.91518 0.44032,-0.0687 -0.10486,0.17726 -1.2115,0.54662 -1.10665,0.36936 -2.47587,0.974 -3.04271,1.34366 l -1.03062,0.67209 z"
         id="path23626" />
      <path
         style="fill:#646125;stroke-width:2.03285"
         d="m 183.32273,274.62068 c -0.17125,-2.43831 -0.059,-2.67758 1.38132,-2.94562 1.14871,-0.21377 0.87618,0.10039 -0.29801,0.34354 l -0.87333,0.18085 0.0962,2.30202 c 0.0529,1.26612 0.0401,2.30203 -0.0283,2.30203 -0.0685,0 -0.1935,-0.98227 -0.27782,-2.18282 z"
         id="path23623" />
      <path
         style="fill:#646125;stroke-width:2.03285"
         d="m 218.09153,276.38148 c -0.0324,-0.86436 -0.65612,-1.59346 -1.84059,-2.15159 -0.68572,-0.32312 -0.6868,-0.32729 -0.0422,-0.16376 1.5358,0.38961 2.34931,1.44727 2.0385,2.65029 -0.0744,0.28801 -0.13746,0.1524 -0.15572,-0.33494 z"
         id="path23622" />
      <path
         style="fill:#646125;stroke-width:2.03285"
         d="m 172.33561,277.18229 c -0.0547,-1.53687 -0.68722,-3.85753 -1.32369,-4.85616 -0.41065,-0.6443 -0.40917,-0.66178 0.0268,-0.31637 0.69124,0.54767 1.56363,3.70154 1.44505,5.22408 l -0.10044,1.28949 z"
         id="path23620" />
      <path
         style="fill:#646125;stroke-width:2.03285"
         d="m 203.90434,276.28919 c 2.02193,-1.92619 2.74196,-2.44302 3.87038,-2.77813 0.76248,-0.22643 1.69214,-0.40171 2.06591,-0.38952 0.37377,0.0122 0.0247,0.16738 -0.77563,0.34486 -2.11314,0.46856 -3.07537,1.06455 -5.23714,3.24378 -1.06142,1.06999 -2.03734,1.94544 -2.16871,1.94544 -0.13137,0 0.87896,-1.06489 2.24519,-2.36643 z"
         id="path23619" />
      <path
         style="fill:#646125;stroke-width:2.03285"
         d="m 146.01063,278.47684 c -0.36716,-1.34481 -0.42552,-1.91936 -0.20859,-2.05343 0.13144,-0.0812 0.28949,0.41748 0.35123,1.10826 0.12124,1.35652 0.0673,1.71406 -0.14264,0.94517 z"
         id="path23617" />
      <path
         style="fill:#646125;stroke-width:2.03285"
         d="m 189.10795,281.06759 c -0.1932,-0.3126 -2.26682,-1.28186 -4.38461,-2.04946 -1.01164,-0.36668 -1.33848,-0.55623 -0.79375,-0.46033 1.35042,0.23773 4.0685,1.3993 4.93702,2.10982 0.41334,0.33814 0.66925,0.61908 0.5687,0.62432 -0.10056,0.005 -0.24787,-0.0957 -0.32736,-0.22435 z"
         id="path23614" />
      <path
         style="fill:#646125;stroke-width:2.03285"
         d="m 192.29852,280.6613 c -0.45257,-1.8017 -0.50874,-3.45063 -0.16295,-4.78381 0.12549,-0.48381 0.15391,-0.0706 0.0728,1.05834 -0.0906,1.26124 0.007,2.38896 0.30681,3.535 0.24196,0.9256 0.38928,1.73356 0.32737,1.79547 -0.0619,0.0619 -0.30671,-0.66034 -0.544,-1.605 z"
         id="path23613" />
      <path
         style="fill:#646125;stroke-width:2.03285"
         d="m 170.86991,282.49208 c 1.0284,-3.00321 1.4051,-3.88656 1.41036,-3.30729 0.003,0.3638 -0.35345,1.37583 -0.79278,2.24895 -0.43933,0.87313 -0.71724,1.34938 -0.61758,1.05834 z"
         id="path23610" />
      <path
         style="fill:#646125;stroke-width:2.03285"
         d="m 171.70855,283.2323 c 1.02518,-1.45389 3.26057,-3.20993 5.33447,-4.19057 3.57051,-1.68831 4.36596,-2.18113 4.54454,-2.81558 0.16839,-0.59825 0.17326,-0.59913 0.19899,-0.0359 0.0332,0.72719 -0.65742,1.205 -4.25355,2.94278 -2.2775,1.10057 -3.17316,1.71193 -4.62331,3.1558 -0.98922,0.98493 -1.52974,1.40951 -1.20114,0.94351 z"
         id="path23604" />
      <path
         style="fill:#646125;stroke-width:2.03285"
         d="m 149.19098,283.93966 c -1.12935,-0.99409 -2.30306,-2.54945 -2.30306,-3.05194 0,-0.12045 0.33842,0.31462 0.75203,0.96682 0.41362,0.65221 1.27682,1.62569 1.91823,2.16329 0.64141,0.5376 1.09367,0.97979 1.00501,0.98264 -0.0887,0.003 -0.70615,-0.47452 -1.37221,-1.06081 z"
         id="path23601" />
      <path
         style="fill:#646125;stroke-width:2.03285"
         d="m 210.6525,286.23087 c 0,-0.0576 0.6287,-0.41238 1.39711,-0.78833 1.84121,-0.90082 3.4733,-2.32428 4.31844,-3.7664 0.77892,-1.32913 1.12619,-1.5814 0.49399,-0.35885 -0.56522,1.09302 -2.01456,2.66639 -3.22837,3.50465 -0.96848,0.66884 -2.98117,1.62006 -2.98117,1.40893 z"
         id="path23599" />
      <path
         style="fill:#646125;stroke-width:2.03285"
         d="m 203.5308,286.76167 c 0.0606,-0.0528 1.65806,-0.1552 3.54983,-0.22749 2.05833,-0.0787 3.01458,-0.0462 2.38125,0.0808 -1.0396,0.20849 -6.14696,0.3348 -5.93108,0.14668 z"
         id="path23597" />
      <path
         style="fill:#646125;stroke-width:2.03285"
         d="m 153.59739,291.86052 c 0.38032,-0.59237 1.7533,-1.80451 3.08012,-2.71929 0.51843,-0.35744 0.26117,-0.0989 -1.82634,1.83534 -0.93173,0.86332 -1.49593,1.2611 -1.25378,0.88395 z"
         id="path23593" />
      <path
         style="fill:#646125;stroke-width:2.03285"
         d="m 211.72591,295.72124 c -0.0147,-0.29104 -0.25851,-1.03992 -0.54183,-1.66418 -0.28333,-0.62425 -0.40915,-1.06951 -0.27961,-0.98945 0.3707,0.22911 1.14333,2.44412 0.98807,2.83264 -0.0843,0.21089 -0.15055,0.1397 -0.16663,-0.17901 z"
         id="path23591" />
      <path
         style="fill:#646125;stroke-width:2.03285"
         d="m 152.31776,296.31656 c -0.0827,-0.47295 -0.0444,-1.21709 0.0852,-1.65365 0.19352,-0.65206 0.23079,-0.49856 0.20876,0.8599 -0.0148,0.9095 -0.0531,1.65364 -0.0852,1.65364 -0.0321,0 -0.12604,-0.38695 -0.20875,-0.85989 z"
         id="path23590" />
      <path
         style="fill:#646125;stroke-width:2.03285"
         d="m 197.10602,296.84572 c -1.06694,-1.26093 -2.00774,-2.59142 -1.35641,-1.91823 0.69128,0.71448 2.77981,3.3073 2.66405,3.3073 -0.0728,0 -0.6612,-0.62508 -1.30764,-1.38907 z"
         id="path23589" />
      <path
         style="fill:#646125;stroke-width:2.03285"
         d="m 154.35494,299.52618 c -1.15726,-0.57283 -1.78133,-1.33741 -1.55194,-1.90134 0.0771,-0.18963 0.13692,-0.14929 0.14945,0.10083 0.0347,0.69258 1.25229,1.6249 2.59296,1.98547 0.81933,0.22035 1.03156,0.34626 0.60293,0.35769 -0.3638,0.01 -1.17083,-0.23448 -1.7934,-0.54265 z"
         id="path23586" />
      <path
         style="fill:#646125;stroke-width:2.03285"
         d="m 157.93428,300.15775 c 0.61846,-0.0557 1.63049,-0.0557 2.24895,0 0.61847,0.0557 0.11245,0.10128 -1.12447,0.10128 -1.23693,0 -1.74295,-0.0456 -1.12448,-0.10128 z"
         id="path23585" />
      <path
         style="fill:#646125;stroke-width:2.03285"
         d="m 203.37646,300.34778 c -0.47277,-0.12262 -0.0296,-0.14917 1.09595,-0.0657 2.3009,0.17075 5.14572,-0.32647 6.08212,-1.06304 0.37919,-0.29828 0.84935,-0.9096 1.04481,-1.35851 0.19545,-0.4489 0.36003,-0.65597 0.36572,-0.46014 0.0174,0.59987 -0.81694,1.79901 -1.54686,2.22305 -1.47462,0.85668 -5.09545,1.22911 -7.04174,0.72429 z"
         id="path23581" />
      <path
         style="fill:#646125;stroke-width:2.03285"
         d="m 185.51848,301.44337 c -0.36304,-0.10387 -0.69679,-0.3795 -0.74166,-0.61251 -0.11392,-0.59153 1.57791,-5.5503 2.70065,-7.91565 0.51364,-1.08213 1.35404,-2.4262 1.86756,-2.98683 0.8234,-0.89894 0.98658,-0.9764 1.38177,-0.65583 0.30392,0.24653 0.38418,0.25708 0.24942,0.0328 -0.10928,-0.1819 -0.0951,-0.33073 0.0316,-0.33073 0.12667,0 0.51751,-0.26789 0.86853,-0.59531 0.83801,-0.78167 1.67506,-0.87375 1.28298,-0.14115 -0.15107,0.28228 -0.20733,0.6887 -0.12503,0.90317 0.096,0.25032 0.0399,0.32211 -0.15688,0.2005 -0.20103,-0.12424 -0.25165,-0.0465 -0.14711,0.22599 0.0916,0.23859 -0.0571,0.61136 -0.34927,0.87576 -1.40242,1.26918 -4.95663,8.82032 -4.63629,9.85011 0.29292,0.94167 -0.86443,1.53936 -2.22628,1.14971 z m 1.20373,-1.96578 c 0.2323,-0.49944 0.20267,-0.60002 -0.17673,-0.60002 -0.29217,0 -0.4932,0.25476 -0.55996,0.70962 -0.12329,0.84004 0.32609,0.77319 0.73669,-0.1096 z m 2.29656,-5.58891 c 0.29081,-0.42471 0.24239,-0.68101 -0.12825,-0.67869 -0.1819,10e-4 -0.46372,0.28898 -0.62627,0.63965 -0.25294,0.54568 -0.23387,0.61491 0.13229,0.48026 0.23531,-0.0865 0.51531,-0.28508 0.62223,-0.44122 z m 0.68961,-1.58392 c 0.0993,-0.51542 0.35183,-0.88316 1.18644,-1.72745 0.26561,-0.2687 0.37424,-0.55571 0.24139,-0.63782 -0.13284,-0.0821 -0.73713,0.56891 -1.34284,1.44669 -0.81272,1.17775 -0.98077,1.57275 -0.64131,1.50738 0.25299,-0.0487 0.50334,-0.31368 0.55632,-0.5888 z"
         id="path23579" />
      <path
         style="fill:#646125;stroke-width:2.03285"
         d="m 181.185,301.33496 c -0.41948,-0.30673 -0.45161,-0.7489 -0.33165,-4.56407 0.0731,-2.32343 0.14025,-5.22653 0.14933,-6.45134 0.009,-1.2248 0.0991,-2.14428 0.20011,-2.04329 0.21989,0.2199 0.19974,8.88757 -0.0239,10.29499 -0.0898,0.56478 -0.0478,0.98667 0.098,0.98667 0.14016,0 0.17881,0.19813 0.0859,0.44028 -0.10748,0.28008 -0.0645,0.37575 0.118,0.26294 0.15782,-0.0975 0.34176,-0.0278 0.40876,0.15503 0.0817,0.22292 0.21257,0.24524 0.39738,0.0678 0.26953,-0.25879 0.44589,-2.07706 0.71853,-7.40833 0.0744,-1.45521 0.18999,-2.79466 0.25683,-2.97656 0.0668,-0.1819 0.009,-0.33073 -0.1282,-0.33073 -0.15419,0 -0.15748,-0.24263 -0.009,-0.63425 0.13263,-0.34884 0.16937,-0.70603 0.0816,-0.79375 -0.0877,-0.0877 -0.004,-0.1595 0.18599,-0.1595 0.28019,0 0.30874,1.23761 0.15104,6.54844 -0.10695,3.60164 -0.2496,6.63773 -0.31701,6.74687 -0.19783,0.32032 -1.53769,0.22768 -2.04216,-0.14119 z"
         id="path23578" />
      <path
         style="fill:#646125;stroke-width:2.03285"
         d="m 177.05042,301.48174 c -0.58967,-0.22447 -0.7921,-0.65455 -0.65643,-1.39465 0.13834,-0.75469 -0.94766,-4.25154 -1.93101,-6.21771 -0.63228,-1.26422 -3.75018,-4.63021 -4.28894,-4.63021 -0.2702,0 -0.31638,0.17385 -0.75882,2.85656 -0.31776,1.92671 -1.22881,4.05082 -2.26072,5.27084 -0.80537,0.9522 -3.50537,2.37638 -4.92074,2.59557 -0.61345,0.095 -0.41074,-0.0292 0.60051,-0.36796 4.48156,-1.50127 6.16932,-4.33893 6.98503,-11.74407 0.0762,-0.69122 0.23628,-1.25677 0.35585,-1.25677 0.45054,0 1.0468,0.32748 0.93262,0.51221 -0.0653,0.1057 0.29255,0.35358 0.79527,0.55083 0.50273,0.19725 0.91405,0.45548 0.91405,0.57384 0,0.11836 0.11377,0.2152 0.25283,0.2152 0.13906,0 0.70461,0.30482 1.25677,0.67737 2.33951,1.57847 4.17128,5.06142 4.60596,8.75781 0.39453,3.35501 -0.0906,4.28315 -1.88223,3.60114 z m 1.25677,-1.56141 c 0.32742,-0.0878 0.59531,-0.27746 0.59531,-0.42157 0,-0.14412 -0.16077,-0.20034 -0.35727,-0.12493 -0.24875,0.0955 -0.36417,-0.10514 -0.37996,-0.66033 -0.0298,-1.047 -0.3157,-1.31986 -0.33969,-0.32415 -0.0162,0.6701 -0.0485,0.70203 -0.24599,0.24253 -0.20002,-0.46546 -0.22963,-0.43968 -0.24599,0.21405 -0.0102,0.40877 0.0922,0.67472 0.22771,0.591 0.13546,-0.0837 0.31551,-0.0402 0.40011,0.0967 0.0846,0.13688 -0.056,0.30361 -0.31245,0.3705 -0.25644,0.0669 -0.34719,0.13381 -0.20167,0.1487 0.14552,0.0149 0.53247,-0.0447 0.85989,-0.13245 z m -3.175,-7.83689 c -0.0364,-0.1819 0.0827,-0.30096 0.26459,-0.26458 0.1819,0.0364 0.33072,-0.0657 0.33072,-0.22674 0,-0.16109 -0.16686,-0.22886 -0.3708,-0.1506 -0.22578,0.0866 -0.4397,-0.0834 -0.54697,-0.43472 -0.0969,-0.31735 -0.2316,-0.44621 -0.29935,-0.28635 -0.0677,0.15986 -0.003,0.60634 0.14355,0.99219 0.27229,0.71616 0.59781,0.96855 0.47826,0.3708 z"
         id="path23577" />
      <path
         style="fill:#245321;stroke-width:2.03285"
         d="m 184.82279,301.02275 c -0.14914,-0.38866 0.65374,-3.1813 0.85637,-2.97867 0.0595,0.0595 -0.0717,0.61795 -0.29154,1.24103 -0.60164,1.70525 -0.55106,1.81916 0.85707,1.9302 l 1.25677,0.0991 -1.26507,0.0477 c -0.89927,0.0339 -1.30802,-0.0642 -1.4136,-0.33935 z"
         id="path23560" />
      <path
         style="fill:#22511e;stroke-width:2.03285"
         d="m 184.82279,301.02275 c -0.14914,-0.38866 0.65374,-3.1813 0.85637,-2.97867 0.0595,0.0595 -0.0717,0.61795 -0.29154,1.24103 -0.60164,1.70525 -0.55106,1.81916 0.85707,1.9302 l 1.25677,0.0991 -1.26507,0.0477 c -0.89927,0.0339 -1.30802,-0.0642 -1.4136,-0.33935 z"
         id="path23531" />
    </g>
  </g>
</svg>
