<?xml version="1.0" encoding="UTF-8" standalone="no"?>
<!-- Created with Inkscape (http://www.inkscape.org/) -->

<svg
   width="185"
   height="185"
   viewBox="0 0 48.947914 48.947918"
   version="1.1"
   id="svg1"
   xmlns="http://www.w3.org/2000/svg"
   xmlns:svg="http://www.w3.org/2000/svg">
  <defs
     id="defs1" />
  <g
     id="g50030"
     style="display:inline;stroke-width:1.15804"
     transform="matrix(0.86352587,0,0,0.86352587,-94.867077,-188.49081)">
    <path
       style="fill:#c8cbb9;stroke-width:1.15804"
       d="m 121.66557,274.736 c 0,-0.45486 1.65112,-2.29113 2.78496,-3.09726 1.9811,-1.40852 6.18704,-3.02454 7.8718,-3.02454 0.34296,0 0.45069,-0.13987 0.35663,-0.46302 -0.21091,-0.72461 -0.93309,-5.64067 -1.44857,-9.8608 l -0.46923,-3.84153 -2.33948,-3.78129 c -2.12972,-3.44227 -2.30209,-3.81869 -1.92247,-4.1983 0.63903,-0.63903 1.09333,-0.29055 2.53234,1.94245 l 1.32507,2.0562 -0.12539,-1.57633 c -0.44364,-5.57771 -0.53533,-7.97598 -0.32074,-8.38936 0.24504,-0.47202 1.14248,-0.63513 1.38,-0.25082 0.0721,0.11671 0.26395,1.99195 0.42627,4.16719 0.58742,7.87217 2.46236,23.28063 2.88807,23.73452 0.10336,0.1102 0.75422,0.12274 1.44635,0.0279 l 1.25842,-0.17248 -0.0411,-14.57996 -0.0411,-14.57996 -2.11729,-3.91144 c -2.13538,-3.94485 -2.35916,-4.80339 -1.20944,-4.63993 0.43781,0.0622 0.92888,0.68106 1.85186,2.33366 l 1.25606,2.24896 0.001,-5.05223 c 0.001,-4.54843 0.0494,-5.09567 0.48291,-5.48797 0.39208,-0.35483 0.56247,-0.37473 0.91747,-0.10716 0.37423,0.28208 0.44158,1.01234 0.47566,5.15725 0.0218,2.65576 0.084,4.82865 0.13824,4.82865 0.0542,0 0.44991,-0.77496 0.87938,-1.72214 0.83822,-1.84865 1.40242,-2.29866 2.0589,-1.64219 0.37322,0.37322 0.25866,0.73632 -1.21114,3.83893 l -1.62335,3.42672 v 14.95437 c 0,16.65392 -0.16861,15.27556 1.86869,15.27556 1.21447,0 1.03843,0.53955 1.89646,-5.81252 l 0.62431,-4.62189 -1.54895,-3.94382 c -0.85193,-2.1691 -1.4829,-4.11596 -1.40216,-4.32635 0.0828,-0.21565 0.40135,-0.34558 0.73028,-0.29783 0.46554,0.0676 0.80005,0.61277 1.65482,2.69707 l 1.07134,2.61237 0.19087,-1.68633 c 0.10498,-0.92748 0.37242,-4.35249 0.59432,-7.61114 0.43436,-6.37874 0.62346,-7.08266 1.7169,-6.39099 0.4218,0.26681 0.42831,2.15243 0.025,7.23674 -0.1177,1.4838 -0.18413,2.73219 -0.14762,2.7742 0.0365,0.042 0.74906,-1.11884 1.58344,-2.57968 1.50494,-2.63486 2.2335,-3.25357 2.62621,-2.23021 0.17082,0.44516 -0.48618,1.71809 -2.98466,5.78275 -1.38382,2.25127 -1.47422,2.50745 -1.77408,5.02708 -0.17377,1.46021 -0.62047,4.73851 -0.99267,7.28513 -0.37219,2.54661 -0.71294,5.02865 -0.75721,5.51564 l -0.0805,0.88544 2.23556,0.6492 c 1.22955,0.35707 3.07502,1.08951 4.10104,1.62766 1.85505,0.97297 4.37903,3.11066 4.37903,3.70883 0,0.23791 -3.97658,0.31323 -16.53646,0.31323 -9.09505,0 -16.53646,-0.10269 -16.53646,-0.2282 z"
       id="path50004" />
    <path
       style="fill:#b8c5ae;stroke-width:1.15804"
       d="m 121.66557,274.68378 c 0,-0.15423 0.61484,-0.93052 1.3663,-1.72508 1.6799,-1.77624 4.63768,-3.32389 7.64228,-3.9988 1.88949,-0.42443 2.11314,-0.53729 1.99574,-1.00716 -0.19447,-0.7784 -1.41854,-9.49363 -1.6303,-11.60756 -0.16906,-1.68771 -0.34176,-2.07426 -2.41036,-5.39485 -2.21826,-3.56083 -2.56598,-4.59327 -1.60843,-4.77577 0.32788,-0.0625 0.85665,0.52521 1.8366,2.04126 0.75688,1.17096 1.40855,2.09662 1.44814,2.05702 0.0396,-0.0396 -0.0408,-1.43562 -0.17864,-3.10229 -0.32802,-3.96596 -0.3249,-6.79496 0.008,-7.00052 0.14682,-0.0907 0.49012,-0.0942 0.76289,-0.008 0.42207,0.13396 0.52322,0.54041 0.67913,2.72906 0.48078,6.74885 2.15627,21.62724 2.74772,24.39977 0.1946,0.9122 0.21814,0.92623 1.57459,0.93848 l 1.37705,0.0124 v -14.75719 -14.75719 l -2.14308,-3.84716 c -2.16377,-3.88432 -2.39672,-4.74929 -1.23442,-4.58344 0.43585,0.0622 0.91083,0.66403 1.78712,2.26445 0.65643,1.19886 1.25304,2.18126 1.3258,2.18311 0.0728,0.002 0.0974,-2.21076 0.0547,-4.91693 -0.0822,-5.21075 0.0278,-5.76529 1.11281,-5.61026 0.53248,0.0761 0.55707,0.25949 0.68461,5.106 l 0.13229,5.02708 0.99552,-1.91823 c 0.99224,-1.91192 1.43994,-2.25305 2.02762,-1.54494 0.24549,0.2958 -0.0224,1.07307 -1.29052,3.744 l -1.60033,3.3707 v 15.14922 15.14923 l 1.46711,0.0906 c 1.29475,0.08 1.47913,0.0285 1.56936,-0.43853 0.0562,-0.29104 0.39256,-2.65901 0.74738,-5.26215 l 0.64514,-4.73299 -1.55729,-3.99481 c -0.8565,-2.19714 -1.49637,-4.15354 -1.42192,-4.34754 0.0744,-0.19401 0.38814,-0.31463 0.6971,-0.26804 0.43729,0.0659 0.8037,0.67086 1.6539,2.73053 l 1.09216,2.64583 0.18615,-1.4552 c 0.10239,-0.80037 0.37789,-4.25318 0.61222,-7.67292 0.23434,-3.41974 0.52529,-6.31817 0.64657,-6.44096 0.12127,-0.12279 0.4415,-0.18116 0.71162,-0.12972 0.63674,0.12126 0.74061,1.82115 0.39559,6.47398 -0.13883,1.8722 -0.21537,3.44213 -0.17008,3.48874 0.0453,0.0466 0.76121,-1.11425 1.59095,-2.57969 0.82974,-1.46544 1.66007,-2.66443 1.84518,-2.66443 0.18511,0 0.4842,0.17788 0.66464,0.3953 0.34401,0.4145 -0.0573,1.20734 -3.14451,6.21255 -1.10388,1.7897 -1.24844,2.21717 -1.52109,4.49792 -0.1657,1.38615 -0.67405,5.06785 -1.12967,8.18156 -0.45562,3.11372 -0.7963,5.67675 -0.75706,5.69564 0.0392,0.0189 0.90478,0.24296 1.92343,0.49794 2.63892,0.66056 6.02366,2.41026 7.56297,3.9096 0.71531,0.69674 1.30057,1.39359 1.30057,1.54856 0,0.19628 -5.01644,0.28176 -16.53646,0.28176 -11.47056,0 -16.53646,-0.0859 -16.53646,-0.28042 z"
       id="path49989" />
    <path
       style="fill:#a3a494;stroke-width:1.15804"
       d="m 121.66557,274.72095 c 0,-0.1338 0.61116,-0.91197 1.35814,-1.72928 1.61863,-1.77104 4.59803,-3.3342 7.64445,-4.01071 1.08769,-0.24154 2.00169,-0.45686 2.03112,-0.4785 0.0294,-0.0216 -0.16876,-1.40433 -0.4404,-3.07265 -0.27165,-1.66832 -0.70291,-4.81925 -0.95836,-7.00206 l -0.46446,-3.96875 -1.98416,-3.16653 c -2.37457,-3.78958 -2.71233,-4.5591 -2.1556,-4.91111 0.21628,-0.13675 0.48687,-0.25045 0.60131,-0.25268 0.11444,-0.002 0.82184,0.94549 1.57201,2.10605 0.75016,1.16056 1.40101,2.07304 1.44631,2.02773 0.0453,-0.0453 -0.0351,-1.50087 -0.17876,-3.23458 -0.33726,-4.07112 -0.33823,-6.65039 -0.003,-6.85784 0.14682,-0.0907 0.48143,-0.0969 0.74357,-0.0137 0.41941,0.13311 0.53163,0.82581 0.93503,5.77176 0.52149,6.39384 1.24093,12.83448 2.06862,18.51893 l 0.56824,3.90261 h 1.41296 1.41296 v -14.81566 -14.81565 l -2.13682,-3.85873 c -1.2001,-2.16719 -2.0705,-4.03153 -1.98555,-4.25291 0.0874,-0.22762 0.40009,-0.35838 0.7402,-0.30946 0.42804,0.0616 0.91631,0.67653 1.78712,2.25087 0.659,1.19139 1.25771,2.22347 1.33047,2.29351 0.0728,0.07 0.13229,-2.20118 0.13229,-5.04716 0,-4.47422 0.0578,-5.21105 0.42706,-5.44448 0.23488,-0.14848 0.62183,-0.19522 0.85989,-0.10387 0.37937,0.14558 0.43447,0.79633 0.44607,5.26763 l 0.0132,5.10153 1.04831,-2.05052 c 1.04489,-2.04383 1.59824,-2.47063 2.05818,-1.5875 0.17918,0.34403 -0.15841,1.30559 -1.3136,3.74159 l -1.55476,3.27857 v 15.17612 15.17612 h 1.32292 c 0.7276,0 1.41221,0.0298 1.52135,0.0661 0.10914,0.0364 0.29585,-0.76729 0.41491,-1.78594 0.11906,-1.01864 0.43536,-3.39084 0.70288,-5.27154 l 0.4864,-3.41947 -1.56965,-3.97856 c -0.86331,-2.18821 -1.50755,-4.14038 -1.43166,-4.33816 0.0759,-0.19777 0.39456,-0.32147 0.70814,-0.27488 0.44749,0.0665 0.78219,0.61362 1.55578,2.54329 0.5421,1.35222 1.04321,2.51617 1.11359,2.58655 0.192,0.192 0.41099,-2.01618 0.8677,-8.74931 0.22703,-3.34698 0.46734,-6.24259 0.53403,-6.4347 0.0667,-0.19211 0.38967,-0.31117 0.71774,-0.26458 0.52412,0.0744 0.60656,0.26127 0.67945,1.53991 0.0456,0.80036 -0.0427,3.05361 -0.19625,5.00722 -0.15356,1.95361 -0.24973,3.58148 -0.21372,3.61749 0.036,0.036 0.76395,-1.17544 1.61763,-2.69212 0.85369,-1.51667 1.70163,-2.75759 1.88431,-2.75759 0.18269,0 0.47847,0.17629 0.65729,0.39175 0.2663,0.32088 0.0952,0.7876 -0.94549,2.57969 -0.69884,1.20336 -1.78306,2.96057 -2.4094,3.9049 -0.79757,1.20251 -1.13925,1.99528 -1.14034,2.64583 -8.6e-4,0.51088 -0.18483,2.11949 -0.40882,3.5747 -0.37516,2.4373 -1.22772,8.31162 -1.57629,10.86093 l -0.14649,1.07135 1.92648,0.45893 c 2.67012,0.63608 6.06467,2.37059 7.63736,3.90243 0.71531,0.69674 1.30057,1.39359 1.30057,1.54856 0,0.19628 -5.01644,0.28176 -16.53646,0.28176 -9.88162,0 -16.53646,-0.0979 -16.53646,-0.24326 z"
       id="path49974" />
    <path
       style="fill:#8d9178;stroke-width:1.15804"
       d="m 121.66584,274.61198 c -1.5e-4,-0.12078 0.68434,-0.90305 1.52109,-1.73839 1.78591,-1.78289 4.00685,-2.945 7.20989,-3.77259 1.23693,-0.3196 2.2814,-0.6023 2.32105,-0.62824 0.0396,-0.0259 -0.15795,-1.46331 -0.43909,-3.19416 -0.28115,-1.73086 -0.71477,-4.87342 -0.96359,-6.98347 l -0.4524,-3.83646 -1.64063,-2.64583 c -2.6032,-4.19818 -2.79409,-4.53729 -2.79409,-4.96386 0,-0.55087 0.81368,-0.8223 1.2101,-0.40368 0.17732,0.18725 0.88264,1.23342 1.56738,2.32483 l 1.24498,1.98437 -0.1528,-1.71979 c -0.084,-0.94588 -0.23199,-3.27818 -0.32876,-5.18289 -0.16238,-3.19608 -0.13885,-3.47734 0.30522,-3.64774 0.91298,-0.35034 1.10421,0.38446 1.54078,5.92022 0.44482,5.64042 1.44351,14.47548 2.19074,19.38072 l 0.43328,2.84428 h 1.4185 1.4185 v -14.80766 -14.80766 l -2.10974,-3.84187 c -2.11183,-3.84566 -2.35628,-4.75245 -1.23757,-4.59066 0.38488,0.0557 0.92,0.74166 1.75226,2.24631 0.659,1.19139 1.25771,2.22356 1.33047,2.29371 0.0728,0.0701 0.0952,-2.05968 0.0499,-4.73294 -0.0887,-5.23259 0.0612,-6.04137 1.09246,-5.89456 0.56541,0.0805 0.58016,0.18843 0.7097,5.19353 l 0.13229,5.11133 0.99898,-2.02057 c 0.73998,-1.49671 1.11725,-1.99802 1.4552,-1.93362 0.84012,0.16009 0.62226,1.14429 -1.01668,4.59294 l -1.62822,3.42609 0.1585,5.02709 c 0.0872,2.76489 0.15986,9.45114 0.16151,14.85832 l 0.003,9.83124 1.48918,0.0906 c 0.84826,0.0516 1.51953,-0.0232 1.55969,-0.17395 0.0388,-0.14552 0.37201,-2.50193 0.74052,-5.23647 l 0.67001,-4.97189 -1.53523,-4.02218 c -0.84437,-2.2122 -1.47781,-4.1718 -1.40764,-4.35467 0.0702,-0.18287 0.33885,-0.33249 0.59705,-0.33249 0.42906,0 1.00369,1.11476 2.5231,4.89479 0.32204,0.80118 0.53774,-0.90165 1.03897,-8.20208 0.23978,-3.4925 0.48587,-6.49883 0.54686,-6.68073 0.16228,-0.48402 1.17436,-0.40388 1.371,0.10855 0.0927,0.2416 0.0333,2.52749 -0.13202,5.07975 -0.16533,2.55226 -0.2696,4.67146 -0.23172,4.70934 0.0379,0.0379 0.76173,-1.17644 1.60856,-2.6985 0.84683,-1.52205 1.69037,-2.76737 1.87453,-2.76737 0.18417,0 0.47682,0.17106 0.65034,0.38013 0.25407,0.30615 0.0201,0.88551 -1.2023,2.97657 -0.83478,1.42803 -1.87528,3.1234 -2.31222,3.76748 -0.68587,1.01102 -0.85738,1.64377 -1.255,4.6302 -0.25331,1.90254 -0.76735,5.54275 -1.14232,8.08937 -0.81411,5.52914 -0.80396,5.29107 -0.22584,5.29403 1.17239,0.006 5.82204,1.89272 7.51486,3.04937 1.5254,1.04226 2.87004,2.36949 2.87004,2.83289 0,0.0629 -7.44129,0.10407 -16.53619,0.0915 -9.0949,-0.0126 -16.53631,-0.12177 -16.53646,-0.24256 z"
       id="path49959" />
    <path
       style="fill:#719264;stroke-width:1.15804"
       d="m 138.06974,274.69965 -16.53646,-0.1323 1.5875,-1.6086 c 1.84676,-1.87131 4.06422,-3.03706 7.33873,-3.85808 1.20245,-0.3015 2.21905,-0.57699 2.25912,-0.6122 0.0401,-0.0352 -0.16081,-1.53938 -0.44638,-3.34257 -0.28558,-1.8032 -0.71787,-4.94474 -0.96065,-6.98121 l -0.44141,-3.70266 -2.22106,-3.58988 c -1.22158,-1.97444 -2.22106,-3.77809 -2.22106,-4.0081 0,-0.56276 0.80863,-0.84234 1.2101,-0.4184 0.17732,0.18725 0.88243,1.23342 1.56692,2.32483 l 1.24453,1.98437 -0.15381,-1.98437 c -0.50167,-6.47203 -0.51171,-8.06794 -0.0531,-8.44852 0.89277,-0.74093 1.11475,0.0997 1.56718,5.93498 0.44831,5.78214 1.42521,14.40776 2.18227,19.26857 l 0.43985,2.82414 h 1.42202 1.42201 v -14.8343 -14.83429 l -2.09741,-3.84739 c -1.15357,-2.11606 -2.0338,-4.01312 -1.95606,-4.2157 0.0777,-0.20258 0.36364,-0.36832 0.63535,-0.36832 0.34003,0 0.82233,0.59794 1.54727,1.91823 1.95158,3.55433 1.90182,3.60024 1.79215,-1.65365 -0.11679,-5.59482 -0.0291,-6.21771 0.87505,-6.21771 h 0.65886 l 0.13229,5.15938 0.13229,5.15937 0.89163,-1.9021 c 0.84958,-1.81238 1.37857,-2.38056 1.91037,-2.05189 0.47712,0.29487 0.21436,1.15834 -1.37322,4.51271 l -1.61393,3.41003 0.19365,14.88281 0.19366,14.88282 1.15569,0.0397 c 0.63563,0.0218 1.30052,0.0516 1.47754,0.0661 0.22088,0.0182 0.55124,-1.63353 1.05311,-5.26521 l 0.73126,-5.29167 -1.55389,-3.95492 c -0.85464,-2.17521 -1.4944,-4.10997 -1.42168,-4.29948 0.0727,-0.1895 0.34649,-0.34455 0.60839,-0.34455 0.44228,0 1.3589,1.815 2.47197,4.89479 l 0.28687,0.79375 0.17714,-1.19063 c 0.0974,-0.65484 0.31959,-3.15515 0.4937,-5.55625 0.72724,-10.02891 0.60236,-9.11884 1.26424,-9.21282 0.37595,-0.0534 0.66113,0.0837 0.77131,0.37087 0.0961,0.25056 0.0309,2.53576 -0.14499,5.07821 -0.1759,2.54246 -0.28072,4.66174 -0.23294,4.70952 0.0478,0.0478 0.79531,-1.16084 1.66118,-2.68584 1.04573,-1.84177 1.70889,-2.7471 1.97516,-2.69643 1.0393,0.19776 0.50831,1.47112 -2.86635,6.87374 -0.85311,1.36579 -1.07109,1.99552 -1.21698,3.51588 -0.0977,1.01864 -0.35017,2.87845 -0.56093,4.13289 -0.41819,2.48898 -1.43717,9.68272 -1.43717,10.14604 0,0.15853 0.82026,0.49954 1.8228,0.7578 2.09915,0.54076 5.12896,1.93271 6.76634,3.10859 0.99984,0.71802 2.4555,2.32537 2.21593,2.44683 -0.0492,0.0249 -7.53085,-0.0142 -16.6259,-0.0869 z"
       id="path49944" />
    <path
       style="fill:#845a86;stroke-width:1.15804"
       d="m 138.06974,274.69965 -16.53646,-0.1323 1.5875,-1.6086 c 1.84676,-1.87131 4.06422,-3.03706 7.33873,-3.85808 1.20245,-0.3015 2.21905,-0.57699 2.25912,-0.6122 0.0401,-0.0352 -0.16081,-1.53938 -0.44638,-3.34257 -0.28558,-1.8032 -0.71787,-4.94474 -0.96065,-6.98121 l -0.44141,-3.70266 -2.22106,-3.58988 c -1.22158,-1.97444 -2.22106,-3.77809 -2.22106,-4.0081 0,-0.56276 0.80863,-0.84234 1.2101,-0.4184 0.17732,0.18725 0.88243,1.23342 1.56692,2.32483 l 1.24453,1.98437 -0.15381,-1.98437 c -0.50167,-6.47203 -0.51171,-8.06794 -0.0531,-8.44852 0.89277,-0.74093 1.11475,0.0997 1.56718,5.93498 0.44831,5.78214 1.42521,14.40776 2.18227,19.26857 l 0.43985,2.82414 h 1.42202 1.42201 v -14.8343 -14.83429 l -2.09741,-3.84739 c -1.15357,-2.11606 -2.0338,-4.01312 -1.95606,-4.2157 0.0777,-0.20258 0.36364,-0.36832 0.63535,-0.36832 0.34003,0 0.82233,0.59794 1.54727,1.91823 1.95158,3.55433 1.90182,3.60024 1.79215,-1.65365 -0.11679,-5.59482 -0.0291,-6.21771 0.87505,-6.21771 h 0.65886 l 0.13229,5.15938 0.13229,5.15937 0.89163,-1.9021 c 0.84958,-1.81238 1.37857,-2.38056 1.91037,-2.05189 0.47712,0.29487 0.21436,1.15834 -1.37322,4.51271 l -1.61393,3.41003 0.19365,14.88281 0.19366,14.88282 1.15569,0.0397 c 0.63563,0.0218 1.30052,0.0516 1.47754,0.0661 0.22088,0.0182 0.55124,-1.63353 1.05311,-5.26521 l 0.73126,-5.29167 -1.55389,-3.95492 c -0.85464,-2.17521 -1.4944,-4.10997 -1.42168,-4.29948 0.0727,-0.1895 0.34649,-0.34455 0.60839,-0.34455 0.44228,0 1.3589,1.815 2.47197,4.89479 l 0.28687,0.79375 0.17714,-1.19063 c 0.0974,-0.65484 0.31959,-3.15515 0.4937,-5.55625 0.72724,-10.02891 0.60236,-9.11884 1.26424,-9.21282 0.37595,-0.0534 0.66113,0.0837 0.77131,0.37087 0.0961,0.25056 0.0309,2.53576 -0.14499,5.07821 -0.1759,2.54246 -0.28072,4.66174 -0.23294,4.70952 0.0478,0.0478 0.79531,-1.16084 1.66118,-2.68584 1.04573,-1.84177 1.70889,-2.7471 1.97516,-2.69643 1.0393,0.19776 0.50831,1.47112 -2.86635,6.87374 -0.85311,1.36579 -1.07109,1.99552 -1.21698,3.51588 -0.0977,1.01864 -0.35017,2.87845 -0.56093,4.13289 -0.41819,2.48898 -1.43717,9.68272 -1.43717,10.14604 0,0.15853 0.82026,0.49954 1.8228,0.7578 2.09915,0.54076 5.12896,1.93271 6.76634,3.10859 0.99984,0.71802 2.4555,2.32537 2.21593,2.44683 -0.0492,0.0249 -7.53085,-0.0142 -16.6259,-0.0869 z"
       id="path49928" />
    <path
       style="fill:#7d5581;stroke-width:1.15804"
       d="m 138.06974,274.69965 -16.53646,-0.1323 1.5875,-1.6086 c 1.84676,-1.87131 4.06422,-3.03706 7.33873,-3.85808 1.20245,-0.3015 2.21905,-0.57699 2.25912,-0.6122 0.0401,-0.0352 -0.16081,-1.53938 -0.44638,-3.34257 -0.28558,-1.8032 -0.71787,-4.94474 -0.96065,-6.98121 l -0.44141,-3.70266 -2.22106,-3.58988 c -1.22158,-1.97444 -2.22106,-3.77809 -2.22106,-4.0081 0,-0.56276 0.80863,-0.84234 1.2101,-0.4184 0.17732,0.18725 0.88243,1.23342 1.56692,2.32483 l 1.24453,1.98437 -0.15381,-1.98437 c -0.50167,-6.47203 -0.51171,-8.06794 -0.0531,-8.44852 0.89277,-0.74093 1.11475,0.0997 1.56718,5.93498 0.44831,5.78214 1.42521,14.40776 2.18227,19.26857 l 0.43985,2.82414 h 1.42202 1.42201 v -14.8343 -14.83429 l -2.09741,-3.84739 c -1.15357,-2.11606 -2.0338,-4.01312 -1.95606,-4.2157 0.0777,-0.20258 0.36364,-0.36832 0.63535,-0.36832 0.34003,0 0.82233,0.59794 1.54727,1.91823 1.95158,3.55433 1.90182,3.60024 1.79215,-1.65365 -0.11679,-5.59482 -0.0291,-6.21771 0.87505,-6.21771 h 0.65886 l 0.13229,5.15938 0.13229,5.15937 0.89163,-1.9021 c 0.84958,-1.81238 1.37857,-2.38056 1.91037,-2.05189 0.47712,0.29487 0.21436,1.15834 -1.37322,4.51271 l -1.61393,3.41003 0.19365,14.88281 0.19366,14.88282 1.15569,0.0397 c 0.63563,0.0218 1.30052,0.0516 1.47754,0.0661 0.22088,0.0182 0.55124,-1.63353 1.05311,-5.26521 l 0.73126,-5.29167 -1.55389,-3.95492 c -0.85464,-2.17521 -1.4944,-4.10997 -1.42168,-4.29948 0.0727,-0.1895 0.34649,-0.34455 0.60839,-0.34455 0.44228,0 1.3589,1.815 2.47197,4.89479 l 0.28687,0.79375 0.17714,-1.19063 c 0.0974,-0.65484 0.31959,-3.15515 0.4937,-5.55625 0.72724,-10.02891 0.60236,-9.11884 1.26424,-9.21282 0.37595,-0.0534 0.66113,0.0837 0.77131,0.37087 0.0961,0.25056 0.0309,2.53576 -0.14499,5.07821 -0.1759,2.54246 -0.28072,4.66174 -0.23294,4.70952 0.0478,0.0478 0.79531,-1.16084 1.66118,-2.68584 1.04573,-1.84177 1.70889,-2.7471 1.97516,-2.69643 1.0393,0.19776 0.50831,1.47112 -2.86635,6.87374 -0.85311,1.36579 -1.07109,1.99552 -1.21698,3.51588 -0.0977,1.01864 -0.35017,2.87845 -0.56093,4.13289 -0.41819,2.48898 -1.43717,9.68272 -1.43717,10.14604 0,0.15853 0.82026,0.49954 1.8228,0.7578 2.09915,0.54076 5.12896,1.93271 6.76634,3.10859 0.99984,0.71802 2.4555,2.32537 2.21593,2.44683 -0.0492,0.0249 -7.53085,-0.0142 -16.6259,-0.0869 z"
       id="path49839" />
    <path
       style="fill:#678b59;stroke-width:1.15804"
       d="m 138.06974,274.69965 -16.53646,-0.1323 1.5875,-1.6086 c 1.84676,-1.87131 4.06422,-3.03706 7.33873,-3.85808 1.20245,-0.3015 2.21905,-0.57699 2.25912,-0.6122 0.0401,-0.0352 -0.16081,-1.53938 -0.44638,-3.34257 -0.28558,-1.8032 -0.71787,-4.94474 -0.96065,-6.98121 l -0.44141,-3.70266 -2.22106,-3.58988 c -1.22158,-1.97444 -2.22106,-3.77809 -2.22106,-4.0081 0,-0.56276 0.80863,-0.84234 1.2101,-0.4184 0.17732,0.18725 0.88243,1.23342 1.56692,2.32483 l 1.24453,1.98437 -0.15381,-1.98437 c -0.50167,-6.47203 -0.51171,-8.06794 -0.0531,-8.44852 0.89277,-0.74093 1.11475,0.0997 1.56718,5.93498 0.44831,5.78214 1.42521,14.40776 2.18227,19.26857 l 0.43985,2.82414 h 1.42202 1.42201 v -14.8343 -14.83429 l -2.09741,-3.84739 c -1.15357,-2.11606 -2.0338,-4.01312 -1.95606,-4.2157 0.0777,-0.20258 0.36364,-0.36832 0.63535,-0.36832 0.34003,0 0.82233,0.59794 1.54727,1.91823 1.95158,3.55433 1.90182,3.60024 1.79215,-1.65365 -0.11679,-5.59482 -0.0291,-6.21771 0.87505,-6.21771 h 0.65886 l 0.13229,5.15938 0.13229,5.15937 0.89163,-1.9021 c 0.84958,-1.81238 1.37857,-2.38056 1.91037,-2.05189 0.47712,0.29487 0.21436,1.15834 -1.37322,4.51271 l -1.61393,3.41003 0.19365,14.88281 0.19366,14.88282 1.15569,0.0397 c 0.63563,0.0218 1.30052,0.0516 1.47754,0.0661 0.22088,0.0182 0.55124,-1.63353 1.05311,-5.26521 l 0.73126,-5.29167 -1.55389,-3.95492 c -0.85464,-2.17521 -1.4944,-4.10997 -1.42168,-4.29948 0.0727,-0.1895 0.34649,-0.34455 0.60839,-0.34455 0.44228,0 1.3589,1.815 2.47197,4.89479 l 0.28687,0.79375 0.17714,-1.19063 c 0.0974,-0.65484 0.31959,-3.15515 0.4937,-5.55625 0.72724,-10.02891 0.60236,-9.11884 1.26424,-9.21282 0.37595,-0.0534 0.66113,0.0837 0.77131,0.37087 0.0961,0.25056 0.0309,2.53576 -0.14499,5.07821 -0.1759,2.54246 -0.28072,4.66174 -0.23294,4.70952 0.0478,0.0478 0.79531,-1.16084 1.66118,-2.68584 1.04573,-1.84177 1.70889,-2.7471 1.97516,-2.69643 1.0393,0.19776 0.50831,1.47112 -2.86635,6.87374 -0.85311,1.36579 -1.07109,1.99552 -1.21698,3.51588 -0.0977,1.01864 -0.35017,2.87845 -0.56093,4.13289 -0.41819,2.48898 -1.43717,9.68272 -1.43717,10.14604 0,0.15853 0.82026,0.49954 1.8228,0.7578 2.09915,0.54076 5.12896,1.93271 6.76634,3.10859 0.99984,0.71802 2.4555,2.32537 2.21593,2.44683 -0.0492,0.0249 -7.53085,-0.0142 -16.6259,-0.0869 z"
       id="path49699" />
    <path
       style="fill:#846355;stroke-width:1.15804"
       d="m 138.06974,274.69965 -16.53646,-0.1323 1.5875,-1.6086 c 1.84676,-1.87131 4.06422,-3.03706 7.33873,-3.85808 1.20245,-0.3015 2.21905,-0.57699 2.25912,-0.6122 0.0401,-0.0352 -0.16081,-1.53938 -0.44638,-3.34257 -0.28558,-1.8032 -0.71787,-4.94474 -0.96065,-6.98121 l -0.44141,-3.70266 -2.22106,-3.58988 c -1.22158,-1.97444 -2.22106,-3.77809 -2.22106,-4.0081 0,-0.56276 0.80863,-0.84234 1.2101,-0.4184 0.17732,0.18725 0.88243,1.23342 1.56692,2.32483 l 1.24453,1.98437 -0.15381,-1.98437 c -0.50167,-6.47203 -0.51171,-8.06794 -0.0531,-8.44852 0.89277,-0.74093 1.11475,0.0997 1.56718,5.93498 0.44831,5.78214 1.42521,14.40776 2.18227,19.26857 l 0.43985,2.82414 h 1.42202 1.42201 v -14.8343 -14.83429 l -2.09741,-3.84739 c -1.15357,-2.11606 -2.0338,-4.01312 -1.95606,-4.2157 0.0777,-0.20258 0.36364,-0.36832 0.63535,-0.36832 0.34003,0 0.82233,0.59794 1.54727,1.91823 1.95158,3.55433 1.90182,3.60024 1.79215,-1.65365 -0.11679,-5.59482 -0.0291,-6.21771 0.87505,-6.21771 h 0.65886 l 0.13229,5.15938 0.13229,5.15937 0.89163,-1.9021 c 0.84958,-1.81238 1.37857,-2.38056 1.91037,-2.05189 0.47712,0.29487 0.21436,1.15834 -1.37322,4.51271 l -1.61393,3.41003 0.19365,14.88281 0.19366,14.88282 1.15569,0.0397 c 0.63563,0.0218 1.30052,0.0516 1.47754,0.0661 0.22088,0.0182 0.55124,-1.63353 1.05311,-5.26521 l 0.73126,-5.29167 -1.55389,-3.95492 c -0.85464,-2.17521 -1.4944,-4.10997 -1.42168,-4.29948 0.0727,-0.1895 0.34649,-0.34455 0.60839,-0.34455 0.44228,0 1.3589,1.815 2.47197,4.89479 l 0.28687,0.79375 0.17714,-1.19063 c 0.0974,-0.65484 0.31959,-3.15515 0.4937,-5.55625 0.72724,-10.02891 0.60236,-9.11884 1.26424,-9.21282 0.37595,-0.0534 0.66113,0.0837 0.77131,0.37087 0.0961,0.25056 0.0309,2.53576 -0.14499,5.07821 -0.1759,2.54246 -0.28072,4.66174 -0.23294,4.70952 0.0478,0.0478 0.79531,-1.16084 1.66118,-2.68584 1.04573,-1.84177 1.70889,-2.7471 1.97516,-2.69643 1.0393,0.19776 0.50831,1.47112 -2.86635,6.87374 -0.85311,1.36579 -1.07109,1.99552 -1.21698,3.51588 -0.0977,1.01864 -0.35017,2.87845 -0.56093,4.13289 -0.41819,2.48898 -1.43717,9.68272 -1.43717,10.14604 0,0.15853 0.82026,0.49954 1.8228,0.7578 2.09915,0.54076 5.12896,1.93271 6.76634,3.10859 0.99984,0.71802 2.4555,2.32537 2.21593,2.44683 -0.0492,0.0249 -7.53085,-0.0142 -16.6259,-0.0869 z"
       id="path49559" />
    <path
       style="fill:#734976;stroke-width:1.15804"
       d="m 122.18527,273.91918 c 1.46969,-2.064 4.52348,-3.83877 8.25786,-4.79923 1.21146,-0.31158 2.24215,-0.60225 2.29043,-0.64595 0.0483,-0.0437 -0.15614,-1.6076 -0.45426,-3.47534 -0.29813,-1.86775 -0.73411,-5.00325 -0.96886,-6.96778 l -0.42681,-3.57188 -2.22778,-3.61333 c -1.22528,-1.98733 -2.22778,-3.72892 -2.22778,-3.87021 0,-0.42891 0.65814,-0.83359 1.00602,-0.61858 0.17975,0.11109 0.93258,1.14608 1.67296,2.29997 l 1.34615,2.09798 -0.1516,-2.11666 c -0.51372,-7.17254 -0.519,-7.93441 -0.0576,-8.31732 0.87038,-0.72235 1.11917,0.11332 1.45216,4.87774 0.39476,5.6481 1.60955,16.34363 2.42664,21.3651 l 0.2906,1.78594 h 1.43131 1.4313 l -0.006,-14.88282 -0.006,-14.88281 -2.09988,-3.82284 c -1.57959,-2.87565 -2.02907,-3.90817 -1.8141,-4.16719 0.52887,-0.63725 0.97148,-0.35222 1.82773,1.17701 0.46851,0.83675 1.10232,1.93807 1.40848,2.4474 l 0.55665,0.92604 0.13229,-5.42396 0.13229,-5.42396 h 0.66146 0.66146 l 0.13229,5.15938 0.13229,5.15937 0.89228,-1.90234 c 0.85035,-1.81296 1.37826,-2.38011 1.90972,-2.05165 0.47576,0.29403 0.2159,1.14846 -1.35659,4.46055 l -1.59731,3.36434 0.0307,14.81576 c 0.0229,11.0671 0.10907,14.8397 0.34053,14.9104 0.17042,0.0521 0.91933,0.1658 1.66423,0.25278 l 1.35438,0.15814 0.17916,-1.65816 c 0.0985,-0.91198 0.41624,-3.30721 0.70602,-5.32271 l 0.52686,-3.66457 -1.46509,-3.74665 c -1.59097,-4.06859 -1.75979,-4.93151 -0.96476,-4.93151 0.38641,0 0.75941,0.63091 1.63843,2.77129 0.62596,1.52421 1.16556,2.74385 1.1991,2.7103 0.14084,-0.14084 0.64069,-5.67934 0.90065,-9.97951 0.34685,-5.73752 0.37454,-5.8791 1.12867,-5.77186 0.54115,0.0769 0.58596,0.22495 0.58596,1.9354 0,1.01865 -0.0913,3.34037 -0.20281,5.15938 -0.22929,3.73901 -0.41678,3.75229 1.86818,-0.13229 1.22231,-2.07803 1.96518,-2.63592 2.11382,-1.5875 0.0419,0.29525 -0.90484,2.16845 -2.14164,4.23761 -1.94689,3.25713 -2.23982,3.91314 -2.40695,5.39035 -0.10465,0.92504 -0.59837,4.37592 -1.09714,7.66863 -0.49877,3.29271 -0.90792,6.2418 -0.90922,6.55355 -0.002,0.48431 0.27578,0.63497 1.90856,1.03511 2.76087,0.67658 6.16099,2.46599 7.73642,4.0715 l 1.31297,1.33804 h -16.61068 -16.61067 z"
       id="path49396" />
    <path
       style="fill:#695347;stroke-width:1.15804"
       d="m 122.18527,273.91918 c 1.46969,-2.064 4.52348,-3.83877 8.25786,-4.79923 1.21146,-0.31158 2.24215,-0.60225 2.29043,-0.64595 0.0483,-0.0437 -0.15614,-1.6076 -0.45426,-3.47534 -0.29813,-1.86775 -0.73411,-5.00325 -0.96886,-6.96778 l -0.42681,-3.57188 -2.22778,-3.61333 c -1.22528,-1.98733 -2.22778,-3.72892 -2.22778,-3.87021 0,-0.42891 0.65814,-0.83359 1.00602,-0.61858 0.17975,0.11109 0.93258,1.14608 1.67296,2.29997 l 1.34615,2.09798 -0.1516,-2.11666 c -0.51372,-7.17254 -0.519,-7.93441 -0.0576,-8.31732 0.87038,-0.72235 1.11917,0.11332 1.45216,4.87774 0.39476,5.6481 1.60955,16.34363 2.42664,21.3651 l 0.2906,1.78594 h 1.43131 1.4313 l -0.006,-14.88282 -0.006,-14.88281 -2.09988,-3.82284 c -1.57959,-2.87565 -2.02907,-3.90817 -1.8141,-4.16719 0.52887,-0.63725 0.97148,-0.35222 1.82773,1.17701 0.46851,0.83675 1.10232,1.93807 1.40848,2.4474 l 0.55665,0.92604 0.13229,-5.42396 0.13229,-5.42396 h 0.66146 0.66146 l 0.13229,5.15938 0.13229,5.15937 0.89228,-1.90234 c 0.85035,-1.81296 1.37826,-2.38011 1.90972,-2.05165 0.47576,0.29403 0.2159,1.14846 -1.35659,4.46055 l -1.59731,3.36434 0.0307,14.81576 c 0.0229,11.0671 0.10907,14.8397 0.34053,14.9104 0.17042,0.0521 0.91933,0.1658 1.66423,0.25278 l 1.35438,0.15814 0.17916,-1.65816 c 0.0985,-0.91198 0.41624,-3.30721 0.70602,-5.32271 l 0.52686,-3.66457 -1.46509,-3.74665 c -1.59097,-4.06859 -1.75979,-4.93151 -0.96476,-4.93151 0.38641,0 0.75941,0.63091 1.63843,2.77129 0.62596,1.52421 1.16556,2.74385 1.1991,2.7103 0.14084,-0.14084 0.64069,-5.67934 0.90065,-9.97951 0.34685,-5.73752 0.37454,-5.8791 1.12867,-5.77186 0.54115,0.0769 0.58596,0.22495 0.58596,1.9354 0,1.01865 -0.0913,3.34037 -0.20281,5.15938 -0.22929,3.73901 -0.41678,3.75229 1.86818,-0.13229 1.22231,-2.07803 1.96518,-2.63592 2.11382,-1.5875 0.0419,0.29525 -0.90484,2.16845 -2.14164,4.23761 -1.94689,3.25713 -2.23982,3.91314 -2.40695,5.39035 -0.10465,0.92504 -0.59837,4.37592 -1.09714,7.66863 -0.49877,3.29271 -0.90792,6.2418 -0.90922,6.55355 -0.002,0.48431 0.27578,0.63497 1.90856,1.03511 2.76087,0.67658 6.16099,2.46599 7.73642,4.0715 l 1.31297,1.33804 h -16.61068 -16.61067 z"
       id="path49257" />
    <path
       style="fill:#436c44;stroke-width:1.15804"
       d="m 121.93016,274.42244 c 0,-0.60894 2.68761,-2.91195 4.39969,-3.77009 1.81766,-0.91106 4.37772,-1.76997 5.29832,-1.77761 1.1894,-0.01 1.22998,-0.24798 0.65826,-3.86272 -0.29657,-1.8751 -0.73052,-5.0153 -0.96434,-6.97823 l -0.42511,-3.56895 -2.25776,-3.65397 c -1.26744,-2.05123 -2.19315,-3.82234 -2.11047,-4.03781 0.34582,-0.90119 1.12566,-0.34365 2.41818,1.72887 0.72468,1.16199 1.41393,2.11449 1.53165,2.11666 0.11773,0.002 0.15802,-0.0867 0.0895,-0.19752 -0.0685,-0.11081 -0.27004,-2.32305 -0.44789,-4.91609 -0.29351,-4.2792 -0.28345,-4.75453 0.1089,-5.14689 0.85208,-0.85207 1.12236,0.0435 1.46083,4.8405 0.3653,5.17734 1.40337,14.58411 2.15757,19.5516 0.28493,1.87662 0.51804,3.45419 0.51804,3.50573 0,0.0515 0.65485,0.0937 1.45521,0.0937 h 1.45521 v -14.89085 -14.89085 l -2.11033,-3.80895 c -1.60822,-2.90268 -2.04118,-3.89227 -1.81969,-4.15915 0.5828,-0.70222 1.02914,-0.30359 2.26874,2.02624 0.69542,1.30705 1.35124,2.37861 1.45736,2.38125 0.10613,0.003 0.22519,-2.40621 0.26459,-5.353 l 0.0716,-5.35782 h 0.66146 0.66146 l 0.13229,5.15938 0.13229,5.15937 0.87596,-1.84639 c 0.92003,-1.93931 1.22972,-2.29302 1.81203,-2.06957 0.5912,0.22687 0.4208,0.82889 -1.23278,4.35534 l -1.5875,3.38553 v 14.83074 c 0,11.63347 0.0713,14.85288 0.33073,14.9334 0.1819,0.0565 0.92904,0.17233 1.66032,0.2575 l 1.32959,0.15486 0.72269,-5.35904 0.7227,-5.35904 -1.4716,-3.7951 c -1.49763,-3.86225 -1.63455,-4.60182 -0.87885,-4.74736 0.39589,-0.0762 1.04484,1.25373 2.34648,4.80885 0.1539,0.42036 0.34025,0.70387 0.4141,0.63002 0.16774,-0.16774 0.81965,-7.47217 1.04537,-11.71307 0.093,-1.74625 0.22743,-3.38336 0.29885,-3.63802 0.15796,-0.56322 1.11086,-0.61492 1.31935,-0.0716 0.0826,0.21529 0.0103,2.48831 -0.16063,5.05114 -0.17096,2.56284 -0.25937,4.71117 -0.19647,4.77408 0.0629,0.0629 0.81607,-1.10878 1.67369,-2.60375 1.4915,-2.59993 2.2361,-3.28777 2.43592,-2.25022 0.0923,0.47946 -1.63613,3.67418 -3.40371,6.29107 -0.81947,1.21322 -1.02224,1.78591 -1.171,3.30729 -0.099,1.01199 -0.35015,2.86635 -0.55821,4.1208 -0.49236,2.9686 -1.43224,9.73091 -1.43224,10.30476 0,0.33118 0.46267,0.56303 1.78594,0.89498 2.86423,0.7185 5.83056,2.24867 7.61094,3.92609 l 1.58333,1.49177 -16.47031,0.01 c -11.30906,0.007 -16.47031,-0.0772 -16.47031,-0.26754 z m 32.01458,-0.22975 c 0,-0.27293 -1.57543,-1.55379 -2.77813,-2.25868 -0.81591,-0.4782 -0.7747,-0.43754 0.92605,0.91353 0.3638,0.28901 0.89958,0.69897 1.19062,0.91104 0.46575,0.33936 -1.34152,0.38668 -15.08125,0.39489 l -15.61041,0.009 1.01653,-0.91787 c 0.55909,-0.50483 1.33299,-1.16452 1.71979,-1.46598 0.64279,-0.50098 0.64879,-0.52155 0.0698,-0.23918 -0.76831,0.37468 -2.93839,2.3424 -2.93839,2.6644 0,0.12887 6.95571,0.23088 15.74271,0.23088 9.35595,0 15.74271,-0.0983 15.74271,-0.24235 z m -22.88646,-4.63388 c 0.72761,-0.20247 1.08479,-0.36961 0.79375,-0.37144 -0.56326,-0.004 -2.82901,0.6786 -2.38125,0.71691 0.14552,0.0124 0.8599,-0.14301 1.5875,-0.34547 z m 11.50693,-0.61387 c -0.001,-0.10914 -0.86455,-0.20987 -1.91823,-0.22384 -1.30504,-0.0173 -1.66274,0.036 -1.12203,0.16713 1.08552,0.26331 3.04326,0.29983 3.04026,0.0567 z m -4.03472,-21.81776 c -0.0518,-0.91521 -0.0946,-0.23526 -0.0952,1.51099 -5.2e-4,1.74625 0.0419,2.49505 0.0942,1.66401 0.0523,-0.83104 0.0528,-2.25979 9.5e-4,-3.175 z"
       id="path49102" />
    <path
       style="fill:#5e3063;stroke-width:1.15804"
       d="m 121.93016,274.42244 c 0,-0.60894 2.68761,-2.91195 4.39969,-3.77009 1.81766,-0.91106 4.37772,-1.76997 5.29832,-1.77761 1.1894,-0.01 1.22998,-0.24798 0.65826,-3.86272 -0.29657,-1.8751 -0.73052,-5.0153 -0.96434,-6.97823 l -0.42511,-3.56895 -2.25776,-3.65397 c -1.26744,-2.05123 -2.19315,-3.82234 -2.11047,-4.03781 0.34582,-0.90119 1.12566,-0.34365 2.41818,1.72887 0.72468,1.16199 1.41393,2.11449 1.53165,2.11666 0.11773,0.002 0.15802,-0.0867 0.0895,-0.19752 -0.0685,-0.11081 -0.27004,-2.32305 -0.44789,-4.91609 -0.29351,-4.2792 -0.28345,-4.75453 0.1089,-5.14689 0.85208,-0.85207 1.12236,0.0435 1.46083,4.8405 0.3653,5.17734 1.40337,14.58411 2.15757,19.5516 0.28493,1.87662 0.51804,3.45419 0.51804,3.50573 0,0.0515 0.65485,0.0937 1.45521,0.0937 h 1.45521 v -14.89085 -14.89085 l -2.11033,-3.80895 c -1.60822,-2.90268 -2.04118,-3.89227 -1.81969,-4.15915 0.5828,-0.70222 1.02914,-0.30359 2.26874,2.02624 0.69542,1.30705 1.35124,2.37861 1.45736,2.38125 0.10613,0.003 0.22519,-2.40621 0.26459,-5.353 l 0.0716,-5.35782 h 0.66146 0.66146 l 0.13229,5.15938 0.13229,5.15937 0.87596,-1.84639 c 0.92003,-1.93931 1.22972,-2.29302 1.81203,-2.06957 0.5912,0.22687 0.4208,0.82889 -1.23278,4.35534 l -1.5875,3.38553 v 14.83074 c 0,11.63347 0.0713,14.85288 0.33073,14.9334 0.1819,0.0565 0.92904,0.17233 1.66032,0.2575 l 1.32959,0.15486 0.72269,-5.35904 0.7227,-5.35904 -1.4716,-3.7951 c -1.49763,-3.86225 -1.63455,-4.60182 -0.87885,-4.74736 0.39589,-0.0762 1.04484,1.25373 2.34648,4.80885 0.1539,0.42036 0.34025,0.70387 0.4141,0.63002 0.16774,-0.16774 0.81965,-7.47217 1.04537,-11.71307 0.093,-1.74625 0.22743,-3.38336 0.29885,-3.63802 0.15796,-0.56322 1.11086,-0.61492 1.31935,-0.0716 0.0826,0.21529 0.0103,2.48831 -0.16063,5.05114 -0.17096,2.56284 -0.25937,4.71117 -0.19647,4.77408 0.0629,0.0629 0.81607,-1.10878 1.67369,-2.60375 1.4915,-2.59993 2.2361,-3.28777 2.43592,-2.25022 0.0923,0.47946 -1.63613,3.67418 -3.40371,6.29107 -0.81947,1.21322 -1.02224,1.78591 -1.171,3.30729 -0.099,1.01199 -0.35015,2.86635 -0.55821,4.1208 -0.49236,2.9686 -1.43224,9.73091 -1.43224,10.30476 0,0.33118 0.46267,0.56303 1.78594,0.89498 2.86423,0.7185 5.83056,2.24867 7.61094,3.92609 l 1.58333,1.49177 -16.47031,0.01 c -11.30906,0.007 -16.47031,-0.0772 -16.47031,-0.26754 z m 32.01458,-0.22975 c 0,-0.27293 -1.57543,-1.55379 -2.77813,-2.25868 -0.81591,-0.4782 -0.7747,-0.43754 0.92605,0.91353 0.3638,0.28901 0.89958,0.69897 1.19062,0.91104 0.46575,0.33936 -1.34152,0.38668 -15.08125,0.39489 l -15.61041,0.009 1.01653,-0.91787 c 0.55909,-0.50483 1.33299,-1.16452 1.71979,-1.46598 0.64279,-0.50098 0.64879,-0.52155 0.0698,-0.23918 -0.76831,0.37468 -2.93839,2.3424 -2.93839,2.6644 0,0.12887 6.95571,0.23088 15.74271,0.23088 9.35595,0 15.74271,-0.0983 15.74271,-0.24235 z m -22.88646,-4.63388 c 0.72761,-0.20247 1.08479,-0.36961 0.79375,-0.37144 -0.56326,-0.004 -2.82901,0.6786 -2.38125,0.71691 0.14552,0.0124 0.8599,-0.14301 1.5875,-0.34547 z m 11.50693,-0.61387 c -0.001,-0.10914 -0.86455,-0.20987 -1.91823,-0.22384 -1.30504,-0.0173 -1.66274,0.036 -1.12203,0.16713 1.08552,0.26331 3.04326,0.29983 3.04026,0.0567 z m -4.03472,-21.81776 c -0.0518,-0.91521 -0.0946,-0.23526 -0.0952,1.51099 -5.2e-4,1.74625 0.0419,2.49505 0.0942,1.66401 0.0523,-0.83104 0.0528,-2.25979 9.5e-4,-3.175 z"
       id="path48892" />
    <path
       style="fill:#5d4e43;stroke-width:1.15804"
       d="m 121.93016,274.42244 c 0,-0.60894 2.68761,-2.91195 4.39969,-3.77009 1.81766,-0.91106 4.37772,-1.76997 5.29832,-1.77761 1.1894,-0.01 1.22998,-0.24798 0.65826,-3.86272 -0.29657,-1.8751 -0.73052,-5.0153 -0.96434,-6.97823 l -0.42511,-3.56895 -2.25776,-3.65397 c -1.26744,-2.05123 -2.19315,-3.82234 -2.11047,-4.03781 0.34582,-0.90119 1.12566,-0.34365 2.41818,1.72887 0.72468,1.16199 1.41393,2.11449 1.53165,2.11666 0.11773,0.002 0.15802,-0.0867 0.0895,-0.19752 -0.0685,-0.11081 -0.27004,-2.32305 -0.44789,-4.91609 -0.29351,-4.2792 -0.28345,-4.75453 0.1089,-5.14689 0.85208,-0.85207 1.12236,0.0435 1.46083,4.8405 0.3653,5.17734 1.40337,14.58411 2.15757,19.5516 0.28493,1.87662 0.51804,3.45419 0.51804,3.50573 0,0.0515 0.65485,0.0937 1.45521,0.0937 h 1.45521 v -14.89085 -14.89085 l -2.11033,-3.80895 c -1.60822,-2.90268 -2.04118,-3.89227 -1.81969,-4.15915 0.5828,-0.70222 1.02914,-0.30359 2.26874,2.02624 0.69542,1.30705 1.35124,2.37861 1.45736,2.38125 0.10613,0.003 0.22519,-2.40621 0.26459,-5.353 l 0.0716,-5.35782 h 0.66146 0.66146 l 0.13229,5.15938 0.13229,5.15937 0.87596,-1.84639 c 0.92003,-1.93931 1.22972,-2.29302 1.81203,-2.06957 0.5912,0.22687 0.4208,0.82889 -1.23278,4.35534 l -1.5875,3.38553 v 14.83074 c 0,11.63347 0.0713,14.85288 0.33073,14.9334 0.1819,0.0565 0.92904,0.17233 1.66032,0.2575 l 1.32959,0.15486 0.72269,-5.35904 0.7227,-5.35904 -1.4716,-3.7951 c -1.49763,-3.86225 -1.63455,-4.60182 -0.87885,-4.74736 0.39589,-0.0762 1.04484,1.25373 2.34648,4.80885 0.1539,0.42036 0.34025,0.70387 0.4141,0.63002 0.16774,-0.16774 0.81965,-7.47217 1.04537,-11.71307 0.093,-1.74625 0.22743,-3.38336 0.29885,-3.63802 0.15796,-0.56322 1.11086,-0.61492 1.31935,-0.0716 0.0826,0.21529 0.0103,2.48831 -0.16063,5.05114 -0.17096,2.56284 -0.25937,4.71117 -0.19647,4.77408 0.0629,0.0629 0.81607,-1.10878 1.67369,-2.60375 1.4915,-2.59993 2.2361,-3.28777 2.43592,-2.25022 0.0923,0.47946 -1.63613,3.67418 -3.40371,6.29107 -0.81947,1.21322 -1.02224,1.78591 -1.171,3.30729 -0.099,1.01199 -0.35015,2.86635 -0.55821,4.1208 -0.49236,2.9686 -1.43224,9.73091 -1.43224,10.30476 0,0.33118 0.46267,0.56303 1.78594,0.89498 2.86423,0.7185 5.83056,2.24867 7.61094,3.92609 l 1.58333,1.49177 -16.47031,0.01 c -11.30906,0.007 -16.47031,-0.0772 -16.47031,-0.26754 z m 32.01458,-0.22975 c 0,-0.27293 -1.57543,-1.55379 -2.77813,-2.25868 -0.81591,-0.4782 -0.7747,-0.43754 0.92605,0.91353 0.3638,0.28901 0.89958,0.69897 1.19062,0.91104 0.46575,0.33936 -1.34152,0.38668 -15.08125,0.39489 l -15.61041,0.009 1.01653,-0.91787 c 0.55909,-0.50483 1.33299,-1.16452 1.71979,-1.46598 0.64279,-0.50098 0.64879,-0.52155 0.0698,-0.23918 -0.76831,0.37468 -2.93839,2.3424 -2.93839,2.6644 0,0.12887 6.95571,0.23088 15.74271,0.23088 9.35595,0 15.74271,-0.0983 15.74271,-0.24235 z m -22.88646,-4.63388 c 0.72761,-0.20247 1.08479,-0.36961 0.79375,-0.37144 -0.56326,-0.004 -2.82901,0.6786 -2.38125,0.71691 0.14552,0.0124 0.8599,-0.14301 1.5875,-0.34547 z m 11.50693,-0.61387 c -0.001,-0.10914 -0.86455,-0.20987 -1.91823,-0.22384 -1.30504,-0.0173 -1.66274,0.036 -1.12203,0.16713 1.08552,0.26331 3.04326,0.29983 3.04026,0.0567 z m -4.03472,-21.81776 c -0.0518,-0.91521 -0.0946,-0.23526 -0.0952,1.51099 -5.2e-4,1.74625 0.0419,2.49505 0.0942,1.66401 0.0523,-0.83104 0.0528,-2.25979 9.5e-4,-3.175 z"
       id="path48780" />
    <path
       style="fill:#3e6841;stroke-width:1.15804"
       d="m 121.93016,274.42244 c 0,-0.15245 0.58087,-0.85806 1.29083,-1.56801 1.59649,-1.5965 4.38518,-3.02892 7.21056,-3.70374 1.18045,-0.28194 2.19889,-0.56524 2.2632,-0.62954 0.0643,-0.0643 -0.12356,-1.70679 -0.41748,-3.64995 -0.29392,-1.94317 -0.72246,-5.07535 -0.95232,-6.96041 l -0.41792,-3.42738 -1.57802,-2.55329 c -1.60283,-2.59344 -2.0176,-3.56455 -1.01049,-2.36591 l 0.55577,0.66146 -0.39549,-0.66146 c -0.21751,-0.3638 -0.53084,-0.66146 -0.69628,-0.66146 -0.42378,0 -1.41506,-1.70936 -1.24631,-2.14913 0.33721,-0.87875 1.12174,-0.30724 2.40541,1.75226 0.72561,1.16416 1.41643,2.11666 1.53515,2.11666 0.11873,0 0.15983,-0.0907 0.0914,-0.20147 -0.0685,-0.11081 -0.27004,-2.32305 -0.44789,-4.91609 -0.28987,-4.22605 -0.27996,-4.75803 0.0956,-5.13361 0.69159,-0.69159 1.23931,0.009 1.23931,1.58443 0,2.0803 0.73645,9.78641 1.61179,16.86562 0.87139,7.04719 1.32139,9.69701 1.62935,9.59435 0.10914,-0.0364 0.73422,-0.0661 1.38907,-0.0661 h 1.19062 V 253.45393 238.5582 l -2.00473,-3.62013 c -1.9814,-3.57799 -2.24701,-4.46889 -1.38203,-4.63547 0.32242,-0.0621 0.79146,0.56828 1.71676,2.30726 0.70022,1.31599 1.35996,2.39486 1.46608,2.3975 0.10613,0.003 0.22519,-2.40621 0.26459,-5.353 l 0.0716,-5.35782 h 0.66146 0.66146 l 0.13229,5.15938 0.13229,5.15937 0.75072,-1.5875 c 0.89504,-1.89268 1.41738,-2.52796 1.91997,-2.3351 0.59773,0.22937 0.4604,0.71984 -1.21548,4.34092 l -1.5875,3.43012 v 14.94297 14.94297 l 0.7276,0.003 c 0.40019,0.002 1.14591,0.0721 1.65716,0.15674 l 0.92956,0.15384 0.72585,-5.38227 0.72586,-5.38227 -1.4716,-3.7951 c -1.49763,-3.86225 -1.63455,-4.60182 -0.87885,-4.74736 0.39589,-0.0762 1.04484,1.25373 2.34648,4.80885 0.1539,0.42036 0.33218,0.71194 0.39617,0.64795 0.2012,-0.20119 0.62536,-4.663 0.92656,-9.74663 0.35742,-6.03244 0.37838,-6.14396 1.13446,-6.03644 0.57455,0.0817 0.58425,0.14747 0.498,3.37771 -0.0484,1.81192 -0.1747,4.10629 -0.28073,5.09861 -0.10603,0.99232 -0.0966,1.77204 0.021,1.73269 0.11757,-0.0393 0.89961,-1.26215 1.73786,-2.71736 1.45734,-2.52995 2.19925,-3.20408 2.39687,-2.17793 0.0923,0.47946 -1.63613,3.67418 -3.40371,6.29107 -0.81947,1.21322 -1.02224,1.78591 -1.171,3.30729 -0.099,1.01199 -0.35015,2.86635 -0.55821,4.1208 -0.49236,2.9686 -1.43224,9.73091 -1.43224,10.30476 0,0.33158 0.46104,0.56156 1.78594,0.89085 2.73596,0.68001 5.91433,2.33044 7.66414,3.97974 l 1.53013,1.44225 -16.47031,0.01 c -11.30906,0.007 -16.47031,-0.0772 -16.47031,-0.26754 z m 31.24262,-1.06574 c -1.47102,-1.32983 -4.87181,-3.02731 -7.59052,-3.78875 -2.34624,-0.65712 -2.18043,-0.3287 -1.8174,-3.59957 0.10498,-0.94589 0.1244,-1.65806 0.0431,-1.5826 -0.0812,0.0755 -0.21811,0.72352 -0.30414,1.44013 -0.24885,2.07312 -0.48072,1.79401 -0.32122,-0.3867 l 0.14513,-1.98438 -0.36112,2.37103 c -0.19861,1.30406 -0.30524,2.46143 -0.23695,2.57193 0.22744,0.36799 -1.16111,0.5308 -2.58872,0.30353 l -1.40979,-0.22443 v -15.34332 c 0,-8.43882 0.0975,-15.58144 0.21671,-15.87248 0.11919,-0.29105 0.0341,-0.23151 -0.18906,0.13229 -0.35089,0.57198 -0.41061,2.68351 -0.44152,15.61041 -0.0197,8.22193 -0.13108,14.6513 -0.24759,14.2875 l -0.21184,-0.66146 -0.0264,0.72761 c -0.0145,0.40018 0.11253,0.7276 0.28231,0.7276 0.38598,0 0.0566,0.35307 -0.38249,0.40995 -2.67587,0.34666 -3.35143,0.35687 -3.54157,0.0535 -0.11416,-0.18215 -0.46808,-2.05758 -0.78649,-4.16763 -0.3184,-2.11006 -0.58886,-3.47927 -0.601,-3.04271 -0.0189,0.68004 0.43268,3.98698 0.90067,6.59529 0.0764,0.42595 0.0594,0.69487 -0.0379,0.59761 -0.0973,-0.0973 -0.3269,-0.0523 -0.51029,0.0999 -0.1834,0.1522 -1.28733,0.50456 -2.45318,0.78302 -1.16585,0.27845 -2.89505,0.8726 -3.84266,1.32033 -1.63646,0.77318 -4.39962,2.94665 -4.39962,3.46068 0,0.14116 6.56756,0.23559 15.94115,0.22921 l 15.94114,-0.0109 z m -20.26241,-8.44666 c -0.10264,-0.74624 -0.23987,-1.30354 -0.30496,-1.23845 -0.0651,0.0651 -0.037,0.73153 0.0624,1.48099 0.0994,0.74945 0.23665,1.30675 0.30495,1.23845 0.0683,-0.0683 0.0402,-0.73475 -0.0624,-1.48099 z m 4.92415,-10.39522 c -0.24124,-0.24123 -0.24489,2.35126 -0.0128,9.07231 0.0736,2.13163 0.12803,1.26569 0.18174,-2.892 0.0441,-3.41113 -0.0278,-6.03914 -0.16894,-6.18031 z m 6.25746,5.02781 c 0.13262,-0.84202 0.1505,-1.43734 0.0397,-1.32292 -0.20883,0.21573 -0.79409,4.01005 -0.73905,4.79125 0.0317,0.45016 0.26214,-0.69261 0.6993,-3.46833 z m 0.40671,1.13408 c 0.0972,-0.93942 0.0724,-1.22076 -0.0701,-0.79375 -0.21873,0.65555 -0.36246,2.57118 -0.177,2.3592 0.053,-0.0606 0.16423,-0.76509 0.24708,-1.56545 z m -12.38207,-1.5875 c -0.10403,-1.03588 -0.24423,-1.82834 -0.31155,-1.76102 -0.0673,0.0673 -0.0387,0.9714 0.0635,2.00907 0.10225,1.03766 0.24244,1.83012 0.31155,1.76102 0.0691,-0.0691 0.0405,-0.97319 -0.0635,-2.00907 z m 0.51263,-0.77721 c -0.10225,-1.03767 -0.24245,-1.83013 -0.31155,-1.76102 -0.0691,0.0691 -0.0405,0.97318 0.0635,2.00906 0.10403,1.03589 0.24423,1.82835 0.31155,1.76102 0.0673,-0.0673 0.0387,-0.9714 -0.0635,-2.00906 z m 10.72405,-4.11758 c 0,-0.14552 -0.12756,-0.086 -0.28348,0.13229 -0.22772,0.31881 -0.2578,0.2797 -0.15292,-0.1988 0.0795,-0.36256 0.0256,-0.5308 -0.13768,-0.42989 -0.16955,0.10479 -0.20277,-0.0654 -0.0903,-0.46266 0.14392,-0.50818 0.11993,-0.55249 -0.12534,-0.23157 -0.24127,0.31569 -0.27023,0.2345 -0.14159,-0.39687 0.11919,-0.58499 0.0911,-0.68937 -0.10684,-0.39688 -0.2216,0.32748 -0.26928,0.33133 -0.27262,0.0221 -0.002,-0.20615 -0.0661,-0.31273 -0.14203,-0.23684 -0.0759,0.0759 0.1216,0.81631 0.43888,1.64539 0.39187,1.02404 0.64693,1.39694 0.79538,1.16289 0.12019,-0.18949 0.21853,-0.46359 0.21853,-0.60911 z m -5.42489,-3.63802 c -0.10267,-1.92815 -0.23193,-3.55534 -0.28725,-3.61597 -0.0553,-0.0606 -0.10059,1.51694 -0.10059,3.50572 0,2.42454 0.0947,3.61598 0.28726,3.61598 0.20156,0 0.23157,-1.04587 0.10058,-3.50573 z m 4.01467,0.23852 c -0.32766,-0.80301 -0.96292,-1.27008 -0.96292,-0.70798 0,0.16624 0.13929,0.21616 0.30954,0.11094 0.20814,-0.12864 0.2542,-0.0471 0.1406,0.24897 -0.22257,0.58 0.01,1.14583 0.47005,1.14583 0.30517,0 0.31249,-0.13666 0.0427,-0.79776 z m -11.08992,-3.40878 c -0.0589,-0.47555 -0.10828,-0.15026 -0.10977,0.72286 -0.001,0.87313 0.0467,1.26221 0.10707,0.86464 0.0604,-0.39758 0.0616,-1.11196 0.003,-1.5875 z m 14.55173,-1.59224 c -0.0587,-0.47295 -0.10671,-0.086 -0.10671,0.85989 0,0.94589 0.048,1.33284 0.10671,0.8599 0.0587,-0.47294 0.0587,-1.24685 0,-1.71979 z m 0.52916,0 c -0.0587,-0.47295 -0.10671,-0.086 -0.10671,0.85989 0,0.94589 0.048,1.33284 0.10671,0.8599 0.0587,-0.47294 0.0587,-1.24685 0,-1.71979 z m 2.50289,1.55135 c -0.0496,-0.28394 0.0302,-0.40949 0.19541,-0.30739 0.17551,0.10847 0.21452,0.004 0.10502,-0.28144 -0.11741,-0.30597 -0.0743,-0.39224 0.13229,-0.26458 0.20657,0.12766 0.24971,0.0414 0.13229,-0.26458 -0.11317,-0.29492 -0.0721,-0.39094 0.11704,-0.27401 0.1602,0.099 0.37742,0.0406 0.48272,-0.12977 0.12834,-0.20766 0.0759,-0.23838 -0.15897,-0.0932 -0.25444,0.15725 -0.30415,0.096 -0.18148,-0.22371 0.34506,-0.8992 -0.0637,-0.39514 -0.83622,1.03112 -0.64578,1.19231 -0.71228,1.45396 -0.3506,1.37947 0.26366,-0.0543 0.41203,-0.28837 0.3625,-0.57191 z m -17.84872,-3.9326 c -0.0587,-0.47294 -0.10671,-0.086 -0.10671,0.85989 0,0.94589 0.048,1.33284 0.10671,0.8599 0.0587,-0.47294 0.0587,-1.24685 0,-1.71979 z m 7.14881,-2.50254 c -0.0511,-0.98832 -0.0932,-0.24913 -0.0937,1.64264 -4.6e-4,1.89177 0.0413,2.7004 0.0928,1.79694 0.0515,-0.90345 0.0519,-2.45126 8.5e-4,-3.43958 z m -6.61929,1.97811 c -0.0589,-0.47555 -0.10828,-0.15026 -0.10976,0.72287 -0.001,0.87312 0.0467,1.26221 0.10706,0.86463 0.0604,-0.39758 0.0616,-1.11195 0.003,-1.5875 z m 15.2116,-0.75696 c 0.0656,-1.29883 0.0181,-1.46494 -0.38825,-1.3582 -0.38394,0.10085 -0.45542,0.39878 -0.41854,1.7444 l 0.0445,1.62279 0.17563,-1.5875 0.17562,-1.5875 0.0841,1.98438 c 0.0866,2.04329 0.19622,1.76897 0.32694,-0.81837 z m -9.97871,-6.7884 c -0.0451,-0.70432 -1.06475,-2.97657 -1.33577,-2.97657 -0.0735,0 0.0479,0.35128 0.26996,0.78061 0.47629,0.92104 0.50804,1.16721 0.1196,0.92714 -0.15624,-0.0966 -0.0348,0.31313 0.26996,0.91043 0.30472,0.59729 0.592,1.08599 0.63841,1.08599 0.0464,0 0.0634,-0.32742 0.0378,-0.7276 z m 4.51546,-2.38508 c -0.0828,-0.0828 -0.15234,0.0182 -0.15457,0.22431 -0.003,0.28788 -0.053,0.29779 -0.21491,0.0427 -0.1453,-0.22886 -0.3511,-0.038 -0.6619,0.6137 -0.24807,0.5202 -0.31719,0.86311 -0.15361,0.76201 0.20358,-0.12583 0.2443,0.0144 0.12905,0.44463 -0.0926,0.34564 0.14097,0.0513 0.51904,-0.6542 0.37808,-0.70546 0.61968,-1.35038 0.5369,-1.43316 z m -3.12827,-5.81701 c -0.0476,-1.41882 -0.0865,-0.25797 -0.0865,2.57969 0,2.83766 0.0389,3.99852 0.0865,2.57969 0.0476,-1.41883 0.0476,-3.74055 0,-5.15938 z m 0.7896,4.50382 c -0.0573,-0.54895 -0.1051,-0.16465 -0.10628,0.854 -0.001,1.01864 0.0457,1.46778 0.10414,0.99808 0.0584,-0.46969 0.0594,-1.30313 0.002,-1.85208 z"
       id="path48665" />
    <path
       style="fill:#56473a;stroke-width:1.15804"
       d="m 121.93016,274.42244 c 0,-0.15245 0.58087,-0.85806 1.29083,-1.56801 1.59649,-1.5965 4.38518,-3.02892 7.21056,-3.70374 1.18045,-0.28194 2.19889,-0.56524 2.2632,-0.62954 0.0643,-0.0643 -0.12356,-1.70679 -0.41748,-3.64995 -0.29392,-1.94317 -0.72246,-5.07535 -0.95232,-6.96041 l -0.41792,-3.42738 -1.57802,-2.55329 c -1.60283,-2.59344 -2.0176,-3.56455 -1.01049,-2.36591 l 0.55577,0.66146 -0.39549,-0.66146 c -0.21751,-0.3638 -0.53084,-0.66146 -0.69628,-0.66146 -0.42378,0 -1.41506,-1.70936 -1.24631,-2.14913 0.33721,-0.87875 1.12174,-0.30724 2.40541,1.75226 0.72561,1.16416 1.41643,2.11666 1.53515,2.11666 0.11873,0 0.15983,-0.0907 0.0914,-0.20147 -0.0685,-0.11081 -0.27004,-2.32305 -0.44789,-4.91609 -0.28987,-4.22605 -0.27996,-4.75803 0.0956,-5.13361 0.69159,-0.69159 1.23931,0.009 1.23931,1.58443 0,2.0803 0.73645,9.78641 1.61179,16.86562 0.87139,7.04719 1.32139,9.69701 1.62935,9.59435 0.10914,-0.0364 0.73422,-0.0661 1.38907,-0.0661 h 1.19062 V 253.45393 238.5582 l -2.00473,-3.62013 c -1.9814,-3.57799 -2.24701,-4.46889 -1.38203,-4.63547 0.32242,-0.0621 0.79146,0.56828 1.71676,2.30726 0.70022,1.31599 1.35996,2.39486 1.46608,2.3975 0.10613,0.003 0.22519,-2.40621 0.26459,-5.353 l 0.0716,-5.35782 h 0.66146 0.66146 l 0.13229,5.15938 0.13229,5.15937 0.75072,-1.5875 c 0.89504,-1.89268 1.41738,-2.52796 1.91997,-2.3351 0.59773,0.22937 0.4604,0.71984 -1.21548,4.34092 l -1.5875,3.43012 v 14.94297 14.94297 l 0.7276,0.003 c 0.40019,0.002 1.14591,0.0721 1.65716,0.15674 l 0.92956,0.15384 0.72585,-5.38227 0.72586,-5.38227 -1.4716,-3.7951 c -1.49763,-3.86225 -1.63455,-4.60182 -0.87885,-4.74736 0.39589,-0.0762 1.04484,1.25373 2.34648,4.80885 0.1539,0.42036 0.33218,0.71194 0.39617,0.64795 0.2012,-0.20119 0.62536,-4.663 0.92656,-9.74663 0.35742,-6.03244 0.37838,-6.14396 1.13446,-6.03644 0.57455,0.0817 0.58425,0.14747 0.498,3.37771 -0.0484,1.81192 -0.1747,4.10629 -0.28073,5.09861 -0.10603,0.99232 -0.0966,1.77204 0.021,1.73269 0.11757,-0.0393 0.89961,-1.26215 1.73786,-2.71736 1.45734,-2.52995 2.19925,-3.20408 2.39687,-2.17793 0.0923,0.47946 -1.63613,3.67418 -3.40371,6.29107 -0.81947,1.21322 -1.02224,1.78591 -1.171,3.30729 -0.099,1.01199 -0.35015,2.86635 -0.55821,4.1208 -0.49236,2.9686 -1.43224,9.73091 -1.43224,10.30476 0,0.33158 0.46104,0.56156 1.78594,0.89085 2.73596,0.68001 5.91433,2.33044 7.66414,3.97974 l 1.53013,1.44225 -16.47031,0.01 c -11.30906,0.007 -16.47031,-0.0772 -16.47031,-0.26754 z m 31.24262,-1.06574 c -1.47102,-1.32983 -4.87181,-3.02731 -7.59052,-3.78875 -2.34624,-0.65712 -2.18043,-0.3287 -1.8174,-3.59957 0.10498,-0.94589 0.1244,-1.65806 0.0431,-1.5826 -0.0812,0.0755 -0.21811,0.72352 -0.30414,1.44013 -0.24885,2.07312 -0.48072,1.79401 -0.32122,-0.3867 l 0.14513,-1.98438 -0.36112,2.37103 c -0.19861,1.30406 -0.30524,2.46143 -0.23695,2.57193 0.22744,0.36799 -1.16111,0.5308 -2.58872,0.30353 l -1.40979,-0.22443 v -15.34332 c 0,-8.43882 0.0975,-15.58144 0.21671,-15.87248 0.11919,-0.29105 0.0341,-0.23151 -0.18906,0.13229 -0.35089,0.57198 -0.41061,2.68351 -0.44152,15.61041 -0.0197,8.22193 -0.13108,14.6513 -0.24759,14.2875 l -0.21184,-0.66146 -0.0264,0.72761 c -0.0145,0.40018 0.11253,0.7276 0.28231,0.7276 0.38598,0 0.0566,0.35307 -0.38249,0.40995 -2.67587,0.34666 -3.35143,0.35687 -3.54157,0.0535 -0.11416,-0.18215 -0.46808,-2.05758 -0.78649,-4.16763 -0.3184,-2.11006 -0.58886,-3.47927 -0.601,-3.04271 -0.0189,0.68004 0.43268,3.98698 0.90067,6.59529 0.0764,0.42595 0.0594,0.69487 -0.0379,0.59761 -0.0973,-0.0973 -0.3269,-0.0523 -0.51029,0.0999 -0.1834,0.1522 -1.28733,0.50456 -2.45318,0.78302 -1.16585,0.27845 -2.89505,0.8726 -3.84266,1.32033 -1.63646,0.77318 -4.39962,2.94665 -4.39962,3.46068 0,0.14116 6.56756,0.23559 15.94115,0.22921 l 15.94114,-0.0109 z m -20.26241,-8.44666 c -0.10264,-0.74624 -0.23987,-1.30354 -0.30496,-1.23845 -0.0651,0.0651 -0.037,0.73153 0.0624,1.48099 0.0994,0.74945 0.23665,1.30675 0.30495,1.23845 0.0683,-0.0683 0.0402,-0.73475 -0.0624,-1.48099 z m 4.92415,-10.39522 c -0.24124,-0.24123 -0.24489,2.35126 -0.0128,9.07231 0.0736,2.13163 0.12803,1.26569 0.18174,-2.892 0.0441,-3.41113 -0.0278,-6.03914 -0.16894,-6.18031 z m 6.25746,5.02781 c 0.13262,-0.84202 0.1505,-1.43734 0.0397,-1.32292 -0.20883,0.21573 -0.79409,4.01005 -0.73905,4.79125 0.0317,0.45016 0.26214,-0.69261 0.6993,-3.46833 z m 0.40671,1.13408 c 0.0972,-0.93942 0.0724,-1.22076 -0.0701,-0.79375 -0.21873,0.65555 -0.36246,2.57118 -0.177,2.3592 0.053,-0.0606 0.16423,-0.76509 0.24708,-1.56545 z m -12.38207,-1.5875 c -0.10403,-1.03588 -0.24423,-1.82834 -0.31155,-1.76102 -0.0673,0.0673 -0.0387,0.9714 0.0635,2.00907 0.10225,1.03766 0.24244,1.83012 0.31155,1.76102 0.0691,-0.0691 0.0405,-0.97319 -0.0635,-2.00907 z m 0.51263,-0.77721 c -0.10225,-1.03767 -0.24245,-1.83013 -0.31155,-1.76102 -0.0691,0.0691 -0.0405,0.97318 0.0635,2.00906 0.10403,1.03589 0.24423,1.82835 0.31155,1.76102 0.0673,-0.0673 0.0387,-0.9714 -0.0635,-2.00906 z m 10.72405,-4.11758 c 0,-0.14552 -0.12756,-0.086 -0.28348,0.13229 -0.22772,0.31881 -0.2578,0.2797 -0.15292,-0.1988 0.0795,-0.36256 0.0256,-0.5308 -0.13768,-0.42989 -0.16955,0.10479 -0.20277,-0.0654 -0.0903,-0.46266 0.14392,-0.50818 0.11993,-0.55249 -0.12534,-0.23157 -0.24127,0.31569 -0.27023,0.2345 -0.14159,-0.39687 0.11919,-0.58499 0.0911,-0.68937 -0.10684,-0.39688 -0.2216,0.32748 -0.26928,0.33133 -0.27262,0.0221 -0.002,-0.20615 -0.0661,-0.31273 -0.14203,-0.23684 -0.0759,0.0759 0.1216,0.81631 0.43888,1.64539 0.39187,1.02404 0.64693,1.39694 0.79538,1.16289 0.12019,-0.18949 0.21853,-0.46359 0.21853,-0.60911 z m -5.42489,-3.63802 c -0.10267,-1.92815 -0.23193,-3.55534 -0.28725,-3.61597 -0.0553,-0.0606 -0.10059,1.51694 -0.10059,3.50572 0,2.42454 0.0947,3.61598 0.28726,3.61598 0.20156,0 0.23157,-1.04587 0.10058,-3.50573 z m 4.01467,0.23852 c -0.32766,-0.80301 -0.96292,-1.27008 -0.96292,-0.70798 0,0.16624 0.13929,0.21616 0.30954,0.11094 0.20814,-0.12864 0.2542,-0.0471 0.1406,0.24897 -0.22257,0.58 0.01,1.14583 0.47005,1.14583 0.30517,0 0.31249,-0.13666 0.0427,-0.79776 z m -11.08992,-3.40878 c -0.0589,-0.47555 -0.10828,-0.15026 -0.10977,0.72286 -0.001,0.87313 0.0467,1.26221 0.10707,0.86464 0.0604,-0.39758 0.0616,-1.11196 0.003,-1.5875 z m 14.55173,-1.59224 c -0.0587,-0.47295 -0.10671,-0.086 -0.10671,0.85989 0,0.94589 0.048,1.33284 0.10671,0.8599 0.0587,-0.47294 0.0587,-1.24685 0,-1.71979 z m 0.52916,0 c -0.0587,-0.47295 -0.10671,-0.086 -0.10671,0.85989 0,0.94589 0.048,1.33284 0.10671,0.8599 0.0587,-0.47294 0.0587,-1.24685 0,-1.71979 z m 2.50289,1.55135 c -0.0496,-0.28394 0.0302,-0.40949 0.19541,-0.30739 0.17551,0.10847 0.21452,0.004 0.10502,-0.28144 -0.11741,-0.30597 -0.0743,-0.39224 0.13229,-0.26458 0.20657,0.12766 0.24971,0.0414 0.13229,-0.26458 -0.11317,-0.29492 -0.0721,-0.39094 0.11704,-0.27401 0.1602,0.099 0.37742,0.0406 0.48272,-0.12977 0.12834,-0.20766 0.0759,-0.23838 -0.15897,-0.0932 -0.25444,0.15725 -0.30415,0.096 -0.18148,-0.22371 0.34506,-0.8992 -0.0637,-0.39514 -0.83622,1.03112 -0.64578,1.19231 -0.71228,1.45396 -0.3506,1.37947 0.26366,-0.0543 0.41203,-0.28837 0.3625,-0.57191 z m -17.84872,-3.9326 c -0.0587,-0.47294 -0.10671,-0.086 -0.10671,0.85989 0,0.94589 0.048,1.33284 0.10671,0.8599 0.0587,-0.47294 0.0587,-1.24685 0,-1.71979 z m 7.14881,-2.50254 c -0.0511,-0.98832 -0.0932,-0.24913 -0.0937,1.64264 -4.6e-4,1.89177 0.0413,2.7004 0.0928,1.79694 0.0515,-0.90345 0.0519,-2.45126 8.5e-4,-3.43958 z m -6.61929,1.97811 c -0.0589,-0.47555 -0.10828,-0.15026 -0.10976,0.72287 -0.001,0.87312 0.0467,1.26221 0.10706,0.86463 0.0604,-0.39758 0.0616,-1.11195 0.003,-1.5875 z m 15.2116,-0.75696 c 0.0656,-1.29883 0.0181,-1.46494 -0.38825,-1.3582 -0.38394,0.10085 -0.45542,0.39878 -0.41854,1.7444 l 0.0445,1.62279 0.17563,-1.5875 0.17562,-1.5875 0.0841,1.98438 c 0.0866,2.04329 0.19622,1.76897 0.32694,-0.81837 z m -9.97871,-6.7884 c -0.0451,-0.70432 -1.06475,-2.97657 -1.33577,-2.97657 -0.0735,0 0.0479,0.35128 0.26996,0.78061 0.47629,0.92104 0.50804,1.16721 0.1196,0.92714 -0.15624,-0.0966 -0.0348,0.31313 0.26996,0.91043 0.30472,0.59729 0.592,1.08599 0.63841,1.08599 0.0464,0 0.0634,-0.32742 0.0378,-0.7276 z m 4.51546,-2.38508 c -0.0828,-0.0828 -0.15234,0.0182 -0.15457,0.22431 -0.003,0.28788 -0.053,0.29779 -0.21491,0.0427 -0.1453,-0.22886 -0.3511,-0.038 -0.6619,0.6137 -0.24807,0.5202 -0.31719,0.86311 -0.15361,0.76201 0.20358,-0.12583 0.2443,0.0144 0.12905,0.44463 -0.0926,0.34564 0.14097,0.0513 0.51904,-0.6542 0.37808,-0.70546 0.61968,-1.35038 0.5369,-1.43316 z m -3.12827,-5.81701 c -0.0476,-1.41882 -0.0865,-0.25797 -0.0865,2.57969 0,2.83766 0.0389,3.99852 0.0865,2.57969 0.0476,-1.41883 0.0476,-3.74055 0,-5.15938 z m 0.7896,4.50382 c -0.0573,-0.54895 -0.1051,-0.16465 -0.10628,0.854 -0.001,1.01864 0.0457,1.46778 0.10414,0.99808 0.0584,-0.46969 0.0594,-1.30313 0.002,-1.85208 z"
       id="path48460" />
    <path
       style="fill:#386438;stroke-width:1.15804"
       d="m 137.3972,229.85275 0.0111,-5.55625 h 0.66146 0.66146 l 0.0118,5.15938 0.0118,5.15937 -0.14412,-5.02708 c -0.12121,-4.22808 -0.20719,-5.02708 -0.54099,-5.02708 -0.33521,0 -0.41915,0.84277 -0.54025,5.42395 l -0.14337,5.42396 z"
       id="path48274" />
    <path
       style="fill:#386438;stroke-width:1.15804"
       d="m 134.00759,267.90658 c -0.48381,-1.64881 -2.16762,-15.90224 -2.55945,-21.66578 -0.36548,-5.37591 -0.41514,-5.67238 -0.95004,-5.67238 -0.34973,0 -0.39326,0.24793 -0.26713,1.52135 0.0829,0.83675 0.22213,2.89057 0.30945,4.56406 0.0873,1.67349 0.22318,3.28084 0.30191,3.57188 0.0967,0.35737 0.0556,0.44327 -0.12661,0.26458 -0.14836,-0.14552 -0.40924,-2.39408 -0.57973,-4.99681 -0.27305,-4.16835 -0.2618,-4.78041 0.0944,-5.13664 0.68238,-0.68239 1.22416,0.0381 1.22798,1.63304 0.007,3.08047 1.30391,15.53834 2.37092,22.78113 0.46488,3.15558 0.53234,4.34228 0.17826,3.13557 z"
       id="path48258" />
    <path
       style="fill:#386438;stroke-width:1.15804"
       d="m 139.92182,268.64066 -1.19062,-0.1587 -0.0683,-15.14626 -0.0683,-15.14627 1.58967,-3.34825 c 0.87432,-1.84154 1.58967,-3.44939 1.58967,-3.57301 0,-0.12361 -0.1556,-0.22475 -0.34576,-0.22475 -0.19017,0 -0.74792,0.83131 -1.23946,1.84735 -0.49153,1.01605 -0.93296,1.80808 -0.98096,1.76008 -0.13553,-0.13553 1.27115,-3.15631 1.70236,-3.65573 0.4228,-0.48969 1.1284,-0.3662 1.1284,0.19748 0,0.40335 -2.59166,6.19657 -2.94563,6.58446 -0.12615,0.13825 -0.22937,7.07364 -0.22937,15.41198 v 15.16063 l 0.7276,0.003 c 0.40019,0.002 1.15705,0.0739 1.68193,0.16076 l 0.95433,0.15786 0.17525,-1.41754 c 0.0964,-0.77964 0.42283,-3.20347 0.72543,-5.38629 l 0.55018,-3.96875 -1.49788,-3.78504 c -1.51895,-3.83828 -1.66521,-4.61029 -0.90126,-4.75742 0.39589,-0.0762 1.04484,1.25373 2.34648,4.80885 0.1539,0.42036 0.34019,0.70393 0.41397,0.63015 0.18605,-0.18605 0.83244,-7.29225 1.04137,-11.44862 0.0951,-1.89177 0.23139,-3.64794 0.30287,-3.9026 0.15613,-0.55622 1.10987,-0.61777 1.31438,-0.0848 0.21398,0.55761 -0.42766,9.5025 -0.70193,9.78543 -0.13687,0.1412 -0.18342,-0.13392 -0.11191,-0.66146 0.37149,-2.74058 0.6378,-8.82856 0.39673,-9.06962 -0.14573,-0.14573 -0.33608,-0.19387 -0.42298,-0.10696 -0.0869,0.0869 -0.3293,2.63881 -0.53864,5.6709 -0.44177,6.39833 -0.80592,9.62602 -1.12165,9.94175 -0.32478,0.32477 -0.62264,-0.16963 -1.75169,-2.9075 -0.91105,-2.20924 -1.46591,-3.01151 -1.46591,-2.11955 0,0.18032 0.67439,2.05247 1.49864,4.16033 l 1.49864,3.83247 -0.71667,5.2767 c -0.39416,2.90218 -0.77792,5.37582 -0.85279,5.49697 -0.14576,0.23583 -0.60743,0.2325 -2.48616,-0.0179 z"
       id="path48256" />
    <path
       style="fill:#386438;stroke-width:1.15804"
       d="m 134.80332,268.54806 c 0.0675,-0.10914 0.6514,-0.19843 1.29766,-0.19843 h 1.17501 v -14.91157 -14.91157 l -2.00452,-3.6054 c -1.98292,-3.56654 -2.27222,-4.53917 -1.35015,-4.53917 0.32831,0 0.89057,0.7746 1.8245,2.51354 1.62128,3.01875 1.3682,2.95647 -0.35505,-0.0874 -0.67307,-1.18887 -1.31799,-2.16158 -1.43316,-2.16158 -0.54741,0 -0.24053,0.8026 1.58769,4.15237 l 1.97498,3.61868 0.0313,14.8655 c 0.0172,8.17603 -0.0675,14.95873 -0.18828,15.07268 -0.28569,0.26952 -2.72077,0.45247 -2.55998,0.19233 z"
       id="path48255" />
    <path
       style="fill:#386438;stroke-width:1.15804"
       d="m 121.93016,274.42243 c 0,-0.15245 0.57124,-0.84842 1.26943,-1.54661 1.52646,-1.52646 4.41492,-3.002 7.30809,-3.73326 1.15237,-0.29127 2.14445,-0.57881 2.20462,-0.63898 0.0602,-0.0602 -0.0756,-1.28029 -0.30181,-2.71137 -0.22616,-1.43108 -0.65121,-4.54763 -0.94454,-6.92566 l -0.53333,-4.32369 -2.26951,-3.7088 c -1.24823,-2.03984 -2.20596,-3.87441 -2.12829,-4.07683 0.31329,-0.81642 1.10604,-0.3349 2.1166,1.28562 0.56716,0.9095 1.22167,1.94669 1.45445,2.30487 0.23279,0.35817 0.28105,0.5636 0.10726,0.45651 -0.17379,-0.10709 -0.87073,-1.08475 -1.54874,-2.17258 -0.67802,-1.08782 -1.41176,-1.97787 -1.63055,-1.97787 -0.53939,0 -0.44591,0.19426 2.05319,4.26642 l 2.17177,3.53879 0.4883,4.10104 c 0.26857,2.25558 0.68541,5.38931 0.92632,6.96385 0.26528,1.73394 0.34241,2.95839 0.19559,3.10521 -0.13332,0.13333 -1.19059,0.48209 -2.34948,0.77502 -3.40199,0.85992 -5.90171,2.24923 -7.7756,4.32156 l -0.64143,0.70936 16.11956,-0.0119 16.11955,-0.0119 -1.30939,-1.17325 c -1.57705,-1.41307 -4.34229,-2.81475 -6.98695,-3.54162 -1.07048,-0.29423 -2.09263,-0.65636 -2.27143,-0.80476 -0.35054,-0.29092 -0.26256,-1.1195 1.02681,-9.6702 0.35109,-2.32833 0.70292,-4.87412 0.78185,-5.65731 0.10589,-1.05084 0.41681,-1.84814 1.18654,-3.04271 1.59986,-2.48285 3.47153,-5.73299 3.47153,-6.02826 0,-0.73803 -0.79859,0.21187 -2.11105,2.51104 -0.80345,1.40748 -1.54587,2.55926 -1.64983,2.55951 -0.10395,2.4e-4 0.55337,-1.27948 1.46071,-2.84383 1.57272,-2.71154 2.31576,-3.41265 2.51581,-2.37387 0.0906,0.47058 -1.57251,3.53535 -3.40737,6.27897 -0.76729,1.14731 -1.01483,1.82337 -1.16253,3.175 -0.10321,0.94451 -0.52948,3.97948 -0.94726,6.74438 -0.41777,2.76489 -0.83757,5.75004 -0.93288,6.63365 l -0.17329,1.60656 1.81478,0.4736 c 2.8644,0.74751 5.96605,2.3521 7.69299,3.97985 l 1.53013,1.44225 -16.47031,0.01 c -11.30906,0.007 -16.47031,-0.0772 -16.47031,-0.26754 z"
       id="path48246" />
    <path
       style="fill:#2d5930;stroke-width:1.15804"
       d="m 137.3972,229.85275 0.0111,-5.55625 h 0.66146 0.66146 l 0.0118,5.15938 0.0118,5.15937 -0.14412,-5.02708 c -0.12121,-4.22808 -0.20719,-5.02708 -0.54099,-5.02708 -0.33521,0 -0.41915,0.84277 -0.54025,5.42395 l -0.14337,5.42396 z"
       id="path48108" />
    <path
       style="fill:#2d5930;stroke-width:1.15804"
       d="m 134.00759,267.90674 c -0.48381,-1.64881 -2.16762,-15.90224 -2.55945,-21.66578 -0.36548,-5.37591 -0.41514,-5.67238 -0.95004,-5.67238 -0.34973,0 -0.39326,0.24793 -0.26713,1.52135 0.0829,0.83675 0.22213,2.89057 0.30945,4.56406 0.0873,1.67349 0.22318,3.28084 0.30191,3.57188 0.0967,0.35737 0.0556,0.44327 -0.12661,0.26458 -0.14836,-0.14552 -0.40924,-2.39408 -0.57973,-4.99681 -0.27305,-4.16835 -0.2618,-4.78041 0.0944,-5.13664 0.68238,-0.68239 1.22416,0.0381 1.22798,1.63304 0.007,3.08047 1.30391,15.53834 2.37092,22.78113 0.46488,3.15558 0.53234,4.34228 0.17826,3.13557 z"
       id="path48094" />
    <path
       style="fill:#2d5930;stroke-width:1.15804"
       d="m 139.92182,268.64082 -1.19062,-0.1587 -0.0683,-15.14626 -0.0683,-15.14627 1.58967,-3.34825 c 0.87432,-1.84154 1.58967,-3.44939 1.58967,-3.57301 0,-0.12361 -0.1556,-0.22475 -0.34576,-0.22475 -0.19017,0 -0.74792,0.83131 -1.23946,1.84735 -0.49153,1.01605 -0.93296,1.80808 -0.98096,1.76008 -0.13553,-0.13553 1.27115,-3.15631 1.70236,-3.65573 0.4228,-0.48969 1.1284,-0.3662 1.1284,0.19748 0,0.40335 -2.59166,6.19657 -2.94563,6.58446 -0.12615,0.13825 -0.22937,7.07364 -0.22937,15.41198 v 15.16063 l 0.7276,0.003 c 0.40019,0.002 1.15705,0.0739 1.68193,0.16076 l 0.95433,0.15786 0.17525,-1.41754 c 0.0964,-0.77964 0.42283,-3.20347 0.72543,-5.38629 l 0.55018,-3.96875 -1.49788,-3.78504 c -1.51895,-3.83828 -1.66521,-4.61029 -0.90126,-4.75742 0.39589,-0.0762 1.04484,1.25373 2.34648,4.80885 0.1539,0.42036 0.34019,0.70393 0.41397,0.63015 0.18605,-0.18605 0.83244,-7.29225 1.04137,-11.44862 0.0951,-1.89177 0.23139,-3.64794 0.30287,-3.9026 0.15613,-0.55622 1.10987,-0.61777 1.31438,-0.0848 0.21398,0.55761 -0.42766,9.5025 -0.70193,9.78543 -0.13687,0.1412 -0.18342,-0.13392 -0.11191,-0.66146 0.37149,-2.74058 0.6378,-8.82856 0.39673,-9.06962 -0.14573,-0.14573 -0.33608,-0.19387 -0.42298,-0.10696 -0.0869,0.0869 -0.3293,2.63881 -0.53864,5.6709 -0.44177,6.39833 -0.80592,9.62602 -1.12165,9.94175 -0.32478,0.32477 -0.62264,-0.16963 -1.75169,-2.9075 -0.91105,-2.20924 -1.46591,-3.01151 -1.46591,-2.11955 0,0.18032 0.67439,2.05247 1.49864,4.16033 l 1.49864,3.83247 -0.71667,5.2767 c -0.39416,2.90218 -0.77792,5.37582 -0.85279,5.49697 -0.14576,0.23583 -0.60743,0.2325 -2.48616,-0.0179 z"
       id="path48092" />
    <path
       style="fill:#2d5930;stroke-width:1.15804"
       d="m 134.80332,268.54822 c 0.0675,-0.10914 0.6514,-0.19843 1.29766,-0.19843 h 1.17501 v -14.91157 -14.91157 l -2.00452,-3.6054 c -1.98292,-3.56654 -2.27222,-4.53917 -1.35015,-4.53917 0.32831,0 0.89057,0.7746 1.8245,2.51354 1.62128,3.01875 1.3682,2.95647 -0.35505,-0.0874 -0.67307,-1.18887 -1.31799,-2.16158 -1.43316,-2.16158 -0.54741,0 -0.24053,0.8026 1.58769,4.15237 l 1.97498,3.61868 0.0313,14.8655 c 0.0172,8.17603 -0.0675,14.95873 -0.18828,15.07268 -0.28569,0.26952 -2.72077,0.45247 -2.55998,0.19233 z"
       id="path48091" />
    <path
       style="fill:#2d5930;stroke-width:1.15804"
       d="m 121.93016,274.4224 c 0,-0.15245 0.57124,-0.84842 1.26943,-1.54661 1.52646,-1.52646 4.41492,-3.002 7.30809,-3.73326 1.15237,-0.29127 2.14445,-0.57881 2.20462,-0.63898 0.0602,-0.0602 -0.0756,-1.28029 -0.30181,-2.71137 -0.22616,-1.43108 -0.65121,-4.54763 -0.94454,-6.92566 l -0.53333,-4.32369 -2.26951,-3.7088 c -1.24823,-2.03984 -2.20596,-3.87441 -2.12829,-4.07683 0.31329,-0.81642 1.10604,-0.3349 2.1166,1.28562 0.56716,0.9095 1.22167,1.94669 1.45445,2.30487 0.23279,0.35817 0.28105,0.5636 0.10726,0.45651 -0.17379,-0.10709 -0.87073,-1.08475 -1.54874,-2.17258 -0.67802,-1.08782 -1.41176,-1.97787 -1.63055,-1.97787 -0.53939,0 -0.44591,0.19426 2.05319,4.26642 l 2.17177,3.53879 0.4883,4.10104 c 0.26857,2.25558 0.68541,5.38931 0.92632,6.96385 0.26528,1.73394 0.34241,2.95839 0.19559,3.10521 -0.13332,0.13333 -1.19059,0.48209 -2.34948,0.77502 -3.40199,0.85992 -5.90171,2.24923 -7.7756,4.32156 l -0.64143,0.70936 16.11956,-0.0119 16.11955,-0.0119 -1.30939,-1.17325 c -1.57705,-1.41307 -4.34229,-2.81475 -6.98695,-3.54162 -1.07048,-0.29423 -2.09263,-0.65636 -2.27143,-0.80476 -0.35054,-0.29092 -0.26256,-1.1195 1.02681,-9.6702 0.35109,-2.32833 0.70292,-4.87412 0.78185,-5.65731 0.10589,-1.05084 0.41681,-1.84814 1.18654,-3.04271 1.59986,-2.48285 3.47153,-5.73299 3.47153,-6.02826 0,-0.73803 -0.79859,0.21187 -2.11105,2.51104 -0.80345,1.40748 -1.54587,2.55926 -1.64983,2.55951 -0.10395,2.4e-4 0.55337,-1.27948 1.46071,-2.84383 1.57272,-2.71154 2.31576,-3.41265 2.51581,-2.37387 0.0906,0.47058 -1.57251,3.53535 -3.40737,6.27897 -0.76729,1.14731 -1.01483,1.82337 -1.16253,3.175 -0.10321,0.94451 -0.52948,3.97948 -0.94726,6.74438 -0.41777,2.76489 -0.83757,5.75004 -0.93288,6.63365 l -0.17329,1.60656 1.81478,0.4736 c 2.8644,0.74751 5.96605,2.3521 7.69299,3.97985 l 1.53013,1.44225 -16.47031,0.01 c -11.30906,0.007 -16.47031,-0.0772 -16.47031,-0.26754 z"
       id="path48083" />
    <path
       style="fill:#4e3328;stroke-width:1.15804"
       d="m 137.3972,229.85275 0.0111,-5.55625 h 0.66146 0.66146 l 0.0118,5.15938 0.0118,5.15937 -0.14412,-5.02708 c -0.12121,-4.22808 -0.20719,-5.02708 -0.54099,-5.02708 -0.33521,0 -0.41915,0.84277 -0.54025,5.42395 l -0.14337,5.42396 z"
       id="path47861" />
    <path
       style="fill:#4e3328;stroke-width:1.15804"
       d="m 134.00759,267.90656 c -0.48381,-1.64881 -2.16762,-15.90224 -2.55945,-21.66578 -0.36548,-5.37591 -0.41514,-5.67238 -0.95004,-5.67238 -0.34973,0 -0.39326,0.24793 -0.26713,1.52135 0.0829,0.83675 0.22213,2.89057 0.30945,4.56406 0.0873,1.67349 0.22318,3.28084 0.30191,3.57188 0.0967,0.35737 0.0556,0.44327 -0.12661,0.26458 -0.14836,-0.14552 -0.40924,-2.39408 -0.57973,-4.99681 -0.27305,-4.16835 -0.2618,-4.78041 0.0944,-5.13664 0.68238,-0.68239 1.22416,0.0381 1.22798,1.63304 0.007,3.08047 1.30391,15.53834 2.37092,22.78113 0.46488,3.15558 0.53234,4.34228 0.17826,3.13557 z"
       id="path47839" />
    <path
       style="fill:#4e3328;stroke-width:1.15804"
       d="m 139.92182,268.64064 -1.19062,-0.1587 -0.0683,-15.14626 -0.0683,-15.14627 1.58967,-3.34825 c 0.87432,-1.84154 1.58967,-3.44939 1.58967,-3.57301 0,-0.12361 -0.1556,-0.22475 -0.34576,-0.22475 -0.19017,0 -0.74792,0.83131 -1.23946,1.84735 -0.49153,1.01605 -0.93296,1.80808 -0.98096,1.76008 -0.13553,-0.13553 1.27115,-3.15631 1.70236,-3.65573 0.4228,-0.48969 1.1284,-0.3662 1.1284,0.19748 0,0.40335 -2.59166,6.19657 -2.94563,6.58446 -0.12615,0.13825 -0.22937,7.07364 -0.22937,15.41198 v 15.16063 l 0.7276,0.003 c 0.40019,0.002 1.15705,0.0739 1.68193,0.16076 l 0.95433,0.15786 0.17525,-1.41754 c 0.0964,-0.77964 0.42283,-3.20347 0.72543,-5.38629 l 0.55018,-3.96875 -1.49788,-3.78504 c -1.51895,-3.83828 -1.66521,-4.61029 -0.90126,-4.75742 0.39589,-0.0762 1.04484,1.25373 2.34648,4.80885 0.1539,0.42036 0.34019,0.70393 0.41397,0.63015 0.18605,-0.18605 0.83244,-7.29225 1.04137,-11.44862 0.0951,-1.89177 0.23139,-3.64794 0.30287,-3.9026 0.15613,-0.55622 1.10987,-0.61777 1.31438,-0.0848 0.21398,0.55761 -0.42766,9.5025 -0.70193,9.78543 -0.13687,0.1412 -0.18342,-0.13392 -0.11191,-0.66146 0.37149,-2.74058 0.6378,-8.82856 0.39673,-9.06962 -0.14573,-0.14573 -0.33608,-0.19387 -0.42298,-0.10696 -0.0869,0.0869 -0.3293,2.63881 -0.53864,5.6709 -0.44177,6.39833 -0.80592,9.62602 -1.12165,9.94175 -0.32478,0.32477 -0.62264,-0.16963 -1.75169,-2.9075 -0.91105,-2.20924 -1.46591,-3.01151 -1.46591,-2.11955 0,0.18032 0.67439,2.05247 1.49864,4.16033 l 1.49864,3.83247 -0.71667,5.2767 c -0.39416,2.90218 -0.77792,5.37582 -0.85279,5.49697 -0.14576,0.23583 -0.60743,0.2325 -2.48616,-0.0179 z"
       id="path47837" />
    <path
       style="fill:#4e3328;stroke-width:1.15804"
       d="m 134.80332,268.54804 c 0.0675,-0.10914 0.6514,-0.19843 1.29766,-0.19843 h 1.17501 v -14.91157 -14.91157 l -2.00452,-3.6054 c -1.98292,-3.56654 -2.27222,-4.53917 -1.35015,-4.53917 0.32831,0 0.89057,0.7746 1.8245,2.51354 1.62128,3.01875 1.3682,2.95647 -0.35505,-0.0874 -0.67307,-1.18887 -1.31799,-2.16158 -1.43316,-2.16158 -0.54741,0 -0.24053,0.8026 1.58769,4.15237 l 1.97498,3.61868 0.0313,14.8655 c 0.0172,8.17603 -0.0675,14.95873 -0.18828,15.07268 -0.28569,0.26952 -2.72077,0.45247 -2.55998,0.19233 z"
       id="path47836" />
    <path
       style="fill:#4e3328;stroke-width:1.15804"
       d="m 121.93016,274.42242 c 0,-0.15245 0.57124,-0.84842 1.26943,-1.54661 1.52646,-1.52646 4.41492,-3.002 7.30809,-3.73326 1.15237,-0.29127 2.14445,-0.57881 2.20462,-0.63898 0.0602,-0.0602 -0.0756,-1.28029 -0.30181,-2.71137 -0.22616,-1.43108 -0.65121,-4.54763 -0.94454,-6.92566 l -0.53333,-4.32369 -2.26951,-3.7088 c -1.24823,-2.03984 -2.20596,-3.87441 -2.12829,-4.07683 0.31329,-0.81642 1.10604,-0.3349 2.1166,1.28562 0.56716,0.9095 1.22167,1.94669 1.45445,2.30487 0.23279,0.35817 0.28105,0.5636 0.10726,0.45651 -0.17379,-0.10709 -0.87073,-1.08475 -1.54874,-2.17258 -0.67802,-1.08782 -1.41176,-1.97787 -1.63055,-1.97787 -0.53939,0 -0.44591,0.19426 2.05319,4.26642 l 2.17177,3.53879 0.4883,4.10104 c 0.26857,2.25558 0.68541,5.38931 0.92632,6.96385 0.26528,1.73394 0.34241,2.95839 0.19559,3.10521 -0.13332,0.13333 -1.19059,0.48209 -2.34948,0.77502 -3.40199,0.85992 -5.90171,2.24923 -7.7756,4.32156 l -0.64143,0.70936 16.11956,-0.0119 16.11955,-0.0119 -1.30939,-1.17325 c -1.57705,-1.41307 -4.34229,-2.81475 -6.98695,-3.54162 -1.07048,-0.29423 -2.09263,-0.65636 -2.27143,-0.80476 -0.35054,-0.29092 -0.26256,-1.1195 1.02681,-9.6702 0.35109,-2.32833 0.70292,-4.87412 0.78185,-5.65731 0.10589,-1.05084 0.41681,-1.84814 1.18654,-3.04271 1.59986,-2.48285 3.47153,-5.73299 3.47153,-6.02826 0,-0.73803 -0.79859,0.21187 -2.11105,2.51104 -0.80345,1.40748 -1.54587,2.55926 -1.64983,2.55951 -0.10395,2.4e-4 0.55337,-1.27948 1.46071,-2.84383 1.57272,-2.71154 2.31576,-3.41265 2.51581,-2.37387 0.0906,0.47058 -1.57251,3.53535 -3.40737,6.27897 -0.76729,1.14731 -1.01483,1.82337 -1.16253,3.175 -0.10321,0.94451 -0.52948,3.97948 -0.94726,6.74438 -0.41777,2.76489 -0.83757,5.75004 -0.93288,6.63365 l -0.17329,1.60656 1.81478,0.4736 c 2.8644,0.74751 5.96605,2.3521 7.69299,3.97985 l 1.53013,1.44225 -16.47031,0.01 c -11.30906,0.007 -16.47031,-0.0772 -16.47031,-0.26754 z"
       id="path47825" />
    <path
       style="fill:#291108;stroke-width:1.15804"
       d="m 139.39266,234.12264 c 0,-0.28719 1.57904,-3.34385 1.72741,-3.34385 0.0728,0 -0.24073,0.74414 -0.69663,1.65365 -0.86413,1.7239 -1.03078,1.99716 -1.03078,1.6902 z"
       id="path47542" />
    <path
       style="fill:#291108;stroke-width:1.15804"
       d="m 137.39696,229.72046 0.0113,-5.42396 h 0.66146 0.66146 l 0.0121,5.02709 0.0121,5.02708 -0.1444,-4.89479 c -0.12125,-4.11037 -0.20799,-4.89479 -0.54126,-4.89479 -0.33476,0 -0.41935,0.82818 -0.54049,5.29166 l -0.14361,5.29167 z"
       id="path47540" />
    <path
       style="fill:#291108;stroke-width:1.15804"
       d="m 134.37335,233.27539 c -1.12563,-2.05095 -1.25496,-2.82438 -0.49672,-2.9704 0.30322,-0.0584 0.79264,0.5804 1.65061,2.15435 0.67077,1.23055 1.21895,2.3381 1.21818,2.46122 -7.8e-4,0.12312 -0.56633,-0.78002 -1.25677,-2.00698 -1.21778,-2.16404 -1.91683,-2.89783 -1.91683,-2.01208 0,0.23726 0.48702,1.31875 1.08225,2.4033 0.59524,1.08455 1.02272,1.97191 0.94996,1.97191 -0.0728,0 -0.62657,-0.90059 -1.23068,-2.00132 z"
       id="path47539" />
    <path
       style="fill:#291108;stroke-width:1.15804"
       d="m 138.88701,237.89529 c -0.0129,-0.0877 0.63801,-1.56203 1.44655,-3.27617 0.80854,-1.71415 1.40759,-3.27947 1.33122,-3.47848 -0.0764,-0.19902 -0.0235,-0.36185 0.11743,-0.36185 0.14095,0 0.25008,0.20836 0.24249,0.46303 -0.0134,0.44896 -3.09044,6.97391 -3.13769,6.65347 z"
       id="path47533" />
    <path
       style="fill:#291108;stroke-width:1.15804"
       d="m 146.48547,240.50222 c -0.0657,-0.90843 -0.17574,-1.11651 -0.5726,-1.08303 -0.33992,0.0287 -0.40653,-0.0433 -0.21622,-0.23357 0.58096,-0.58096 1.10434,0.008 1.10434,1.24215 0,1.51433 -0.20779,1.56336 -0.31552,0.0744 z"
       id="path47529" />
    <path
       style="fill:#291108;stroke-width:1.15804"
       d="m 145.29818,241.62671 c 0,-0.94588 0.048,-1.33284 0.10671,-0.8599 0.0587,0.47295 0.0587,1.24685 0,1.7198 -0.0587,0.47294 -0.10671,0.086 -0.10671,-0.8599 z"
       id="path47524" />
    <path
       style="fill:#291108;stroke-width:1.15804"
       d="m 131.24315,242.6189 c -0.0296,-1.15558 -0.16805,-2.05052 -0.31716,-2.05052 -0.14552,0 -0.35388,-0.0298 -0.46302,-0.0661 -0.10914,-0.0364 -0.26985,0.46964 -0.35714,1.12448 l -0.1587,1.19063 -0.0397,-1.09209 c -0.0469,-1.28859 0.42345,-1.8538 1.11925,-1.34501 0.37515,0.27431 0.43803,0.67616 0.3616,2.31062 l -0.0925,1.97856 z"
       id="path47521" />
    <path
       style="fill:#291108;stroke-width:1.15804"
       d="m 146.36078,244.00796 c 0,-1.09141 0.0467,-1.53789 0.10378,-0.99219 0.0571,0.54571 0.0571,1.43867 0,1.98438 -0.0571,0.5457 -0.10378,0.0992 -0.10378,-0.99219 z"
       id="path47518" />
    <path
       style="fill:#291108;stroke-width:1.15804"
       d="m 149.62574,245.86901 c 0.55618,-0.98942 0.66353,-1.38902 0.43465,-1.6179 -0.22888,-0.22888 -0.40921,-0.1004 -0.73014,0.5202 -0.2344,0.45328 -0.49362,0.82415 -0.57604,0.82415 -0.0824,0 0.0761,-0.38695 0.35236,-0.8599 0.27621,-0.47294 0.67249,-0.85989 0.88063,-0.85989 0.64493,0 0.58374,0.85185 -0.15128,2.10607 -0.95488,1.62938 -1.13513,1.5327 -0.21018,-0.11273 z"
       id="path47514" />
    <path
       style="fill:#291108;stroke-width:1.15804"
       d="m 130.22294,245.19859 c 9.6e-4,-1.16417 0.0475,-1.60751 0.10337,-0.9852 0.0559,0.62231 0.0551,1.57481 -0.002,2.11667 -0.0568,0.54185 -0.10258,0.0327 -0.10162,-1.13147 z"
       id="path47513" />
    <path
       style="fill:#291108;stroke-width:1.15804"
       d="m 145.03786,245.86004 c 0,-1.0914 0.0467,-1.53789 0.10379,-0.99218 0.0571,0.5457 0.0571,1.43867 0,1.98437 -0.0571,0.5457 -0.10379,0.0992 -0.10379,-0.99219 z"
       id="path47510" />
    <path
       style="fill:#291108;stroke-width:1.15804"
       d="m 131.53714,246.25692 c 0.001,-0.87313 0.0509,-1.19842 0.10977,-0.72287 0.0589,0.47555 0.0577,1.18993 -0.003,1.5875 -0.0604,0.39758 -0.10855,0.008 -0.10707,-0.86463 z"
       id="path47509" />
    <path
       style="fill:#291108;stroke-width:1.15804"
       d="m 147.33016,247.84442 c 0.48023,-0.87313 0.99368,-1.70656 1.141,-1.85208 0.14733,-0.14553 -0.12176,0.44979 -0.59798,1.32291 -0.47621,0.87313 -0.98967,1.70656 -1.14101,1.85208 -0.15133,0.14553 0.11776,-0.44979 0.59799,-1.32291 z"
       id="path47506" />
    <path
       style="fill:#291108;stroke-width:1.15804"
       d="m 128.56436,248.37359 c -0.59738,-0.94589 -1.26289,-1.7198 -1.47892,-1.7198 -0.50747,0 -0.49701,0.37297 0.0355,1.26608 l 0.42827,0.7183 -0.55856,-0.66146 c -0.66983,-0.79323 -0.62324,-1.42667 0.11273,-1.53255 0.38525,-0.0554 0.70166,0.20702 1.11652,0.92604 0.31841,0.55186 0.8311,1.39034 1.13933,1.86328 0.30822,0.47294 0.49985,0.8599 0.42585,0.8599 -0.074,0 -0.62333,-0.77391 -1.22071,-1.71979 z"
       id="path47504" />
    <path
       style="fill:#291108;stroke-width:1.15804"
       d="m 141.94146,250.63352 c -0.52278,-1.30655 -1.09285,-1.4427 -0.87683,-0.20941 0.13084,0.74699 0.11336,0.78364 -0.13314,0.27919 -0.33098,-0.67738 -0.0993,-1.49576 0.37953,-1.34044 0.35359,0.1147 1.36494,2.03332 1.173,2.22527 -0.0631,0.0631 -0.30724,-0.36649 -0.54256,-0.95461 z"
       id="path47501" />
    <path
       style="fill:#291108;stroke-width:1.15804"
       d="m 145.77869,252.83385 c -0.0298,-0.46881 2.48084,-4.87517 3.06004,-5.37059 0.25402,-0.21728 -1.20957,2.32426 -2.05377,3.56639 -0.39945,0.58774 -0.78117,1.36165 -0.84826,1.7198 -0.10631,0.56753 -0.12661,0.57837 -0.15801,0.0844 z"
       id="path47497" />
    <path
       style="fill:#291108;stroke-width:1.15804"
       d="m 129.27006,251.74697 c -1.87913,-3.05632 -1.83393,-2.97656 -1.68679,-2.97656 0.0705,0 0.67251,0.89673 1.3379,1.99273 0.6654,1.096 1.40239,2.28663 1.63775,2.64583 0.23536,0.35921 0.36192,0.65311 0.28123,0.65311 -0.0807,0 -0.78722,-1.0418 -1.57009,-2.31511 z"
       id="path47493" />
    <path
       style="fill:#291108;stroke-width:1.15804"
       d="m 143.66202,258.51645 c -0.0198,-0.38779 -0.57995,-2.09613 -1.24474,-3.79633 -0.66479,-1.7002 -1.16298,-3.137 -1.10709,-3.19288 0.23412,-0.23413 2.61713,6.48429 2.50669,7.06713 -0.11257,0.59411 -0.12072,0.59001 -0.15486,-0.0779 z"
       id="path47482" />
    <path
       style="fill:#291108;stroke-width:1.15804"
       d="m 138.72255,252.87146 c -4e-5,-8.14916 0.0335,-11.52113 0.0746,-7.49326 0.0411,4.02787 0.0411,10.69537 7e-5,14.81666 -0.041,4.1213 -0.0746,0.82577 -0.0747,-7.3234 z"
       id="path47473" />
    <path
       style="fill:#291108;stroke-width:1.15804"
       d="m 137.27591,252.95076 c -0.0727,-8.25109 -0.0419,-14.91163 0.0685,-14.8012 0.11038,0.11043 0.16987,6.86132 0.13221,15.00198 l -0.0685,14.80119 z"
       id="path47472" />
    <path
       style="fill:#291108;stroke-width:1.15804"
       d="m 124.69329,271.69527 c 0.5586,-0.50854 2.88301,-1.76271 3.24734,-1.75214 0.11398,0.003 -0.54241,0.41001 -1.45865,0.9038 -0.91624,0.49379 -1.81482,0.9971 -1.99685,1.11847 -0.18202,0.12137 -0.0883,-1.9e-4 0.20816,-0.27013 z"
       id="path47463" />
    <path
       style="fill:#291108;stroke-width:1.15804"
       d="m 138.0533,274.43812 16.25543,-0.13535 -1.22307,-1.0765 c -0.67268,-0.59207 -1.91544,-1.46463 -2.76168,-1.93902 -0.84624,-0.47439 -1.30049,-0.78786 -1.00945,-0.6966 1.05081,0.3295 3.32948,1.86262 4.42016,2.97394 l 1.11398,1.13506 -16.5254,-0.0631 -16.5254,-0.0631 z"
       id="path47458" />
    <path
       style="fill:#043405;stroke-width:1.15804"
       d="m 138.69679,231.30796 c 0,-1.52797 0.0437,-2.15305 0.0972,-1.38906 0.0534,0.76398 0.0534,2.01414 0,2.77812 -0.0534,0.76399 -0.0972,0.13891 -0.0972,-1.38906 z"
       id="path47263" />
    <path
       style="fill:#043405;stroke-width:1.15804"
       d="m 146.53641,240.14064 c 0,-0.84806 -0.0645,-0.94002 -0.56728,-0.80855 -0.40517,0.10595 -0.48587,0.0669 -0.28237,-0.13656 0.52769,-0.5277 1.11423,-0.0183 1.11423,0.96767 0,0.51389 -0.0595,0.93434 -0.13229,0.93434 -0.0728,0 -0.13229,-0.4306 -0.13229,-0.9569 z"
       id="path47260" />
    <path
       style="fill:#043405;stroke-width:1.15804"
       d="m 137.39403,247.57984 c 1.1e-4,-4.65667 0.0361,-6.52441 0.08,-4.15053 0.0439,2.37388 0.0438,6.18388 -1.9e-4,8.46667 -0.044,2.28278 -0.0799,0.34052 -0.0798,-4.31614 z"
       id="path47255" />
    <path
       style="fill:#1a0400;stroke-width:1.15804"
       d="m 138.69679,231.30796 c 0,-1.52797 0.0437,-2.15305 0.0972,-1.38906 0.0534,0.76398 0.0534,2.01414 0,2.77812 -0.0534,0.76399 -0.0972,0.13891 -0.0972,-1.38906 z"
       id="path47223" />
    <path
       style="fill:#1a0400;stroke-width:1.15804"
       d="m 146.53645,240.14064 c 0,-0.84806 -0.0645,-0.94002 -0.56728,-0.80855 -0.40517,0.10595 -0.48587,0.0669 -0.28237,-0.13656 0.52769,-0.5277 1.11423,-0.0183 1.11423,0.96767 0,0.51389 -0.0595,0.93434 -0.13229,0.93434 -0.0728,0 -0.13229,-0.4306 -0.13229,-0.9569 z"
       id="path47220" />
    <path
       style="fill:#1a0400;stroke-width:1.15804"
       d="m 137.39407,247.57984 c 1.1e-4,-4.65667 0.0361,-6.52441 0.08,-4.15053 0.0439,2.37388 0.0438,6.18388 -1.9e-4,8.46667 -0.044,2.28278 -0.0799,0.34052 -0.0798,-4.31614 z"
       id="path47219" />
  </g>
</svg>
