<?xml version="1.0" encoding="UTF-8" standalone="no"?>
<!-- Created with Inkscape (http://www.inkscape.org/) -->

<svg
   width="185"
   height="185"
   viewBox="0 0 48.947914 48.947918"
   version="1.1"
   id="svg1"
   xmlns="http://www.w3.org/2000/svg"
   xmlns:svg="http://www.w3.org/2000/svg">
  <defs
     id="defs1" />
  <g
     id="layer1">
    <g
       id="g8237"
       style="display:inline;stroke-width:1.02732"
       transform="matrix(0.97340312,0,0,0.97340312,-171.84214,-144.48446)">
      <path
         style="fill:#cd928c;stroke-width:1.02732"
         d="m 201.57956,197.21348 c 0.0514,-0.82732 -0.0417,-1.95544 -0.20697,-2.50695 -0.51845,-1.73041 -2.7957,-2.96064 -4.62875,-2.50057 -0.36848,0.0925 -1.45175,0.89948 -2.40728,1.79333 -1.31243,1.22771 -1.81197,1.55053 -2.04255,1.31996 -0.23057,-0.23058 -0.47038,-0.14744 -0.98052,0.33995 -0.86088,0.82248 -3.02704,1.4365 -3.6629,1.03828 -0.65738,-0.4117 -0.69421,-1.92289 -0.0714,-2.93078 0.28861,-0.46707 1.0172,-1.10045 1.61909,-1.40752 1.41515,-0.72195 1.21491,-0.90255 -0.39317,-0.35462 -2.54449,0.867 -6.62316,-0.0418 -7.35032,-1.63772 -0.26063,-0.57203 -0.2047,-0.75381 0.43856,-1.42523 1.59797,-1.66791 5.21363,-2.56322 7.12547,-1.7644 0.56242,0.23499 1.04695,0.42726 1.07673,0.42726 0.0298,0 0.004,-0.34309 -0.0577,-0.76242 -0.0622,-0.42369 0.0292,-0.84963 0.20575,-0.95873 0.18089,-0.1118 1.70108,0.4949 3.53116,1.40929 4.71572,2.35616 5.36738,2.44178 3.14737,0.4135 -1.62843,-1.48778 -2.33404,-1.81034 -5.9986,-2.74222 -3.13686,-0.79768 -4.20899,-1.29625 -4.67999,-2.1763 -0.47908,-0.89517 0.17456,-1.3298 1.73033,-1.15055 l 1.34149,0.15456 -1.37245,-0.54544 c -1.61134,-0.64038 -2.83856,-1.92776 -3.29731,-3.45894 -0.29566,-0.98684 -0.27881,-1.13074 0.17093,-1.45959 1.08336,-0.79218 3.7018,-0.25798 4.87752,0.99508 l 0.58592,0.62447 -0.1855,-0.79375 c -0.28829,-1.23357 -0.27998,-1.28494 0.22564,-1.39517 0.66759,-0.14554 2.21367,1.10784 2.8006,2.27039 0.27125,0.53727 0.6865,1.6317 0.92278,2.43207 0.23628,0.80036 0.67917,1.75286 0.98421,2.11667 0.44812,0.53444 0.51757,0.55984 0.36165,0.13229 -0.87244,-2.39231 -1.2011,-4.08824 -1.06634,-5.5023 0.0804,-0.84345 0.27078,-1.76641 0.4231,-2.05102 0.27328,-0.51063 0.28991,-0.51081 1.25955,-0.0136 0.54044,0.27715 1.2416,0.78339 1.55813,1.12497 0.96325,1.03948 1.96327,3.32884 2.21167,5.06324 0.12945,0.90378 0.42595,3.01246 0.6589,4.68595 0.31913,2.29266 0.59645,3.3362 1.12499,4.23333 l 0.70144,1.19063 0.15785,-0.93979 c 0.25864,-1.53995 -0.23072,-8.88857 -0.80957,-12.15709 -0.61064,-3.448 -1.45256,-6.7735 -2.11003,-8.33437 -0.40827,-0.96927 -0.5299,-1.05834 -1.44524,-1.05834 -0.82751,0 -1.13264,-0.16374 -1.77364,-0.95175 -0.62385,-0.76693 -0.7844,-1.23644 -0.82679,-2.4177 l -0.0526,-1.46595 -0.97638,0.88138 c -1.93244,1.74441 -3.89587,2.22407 -4.83882,1.18212 -0.45487,-0.50262 -0.45389,-0.57676 0.0251,-1.90733 0.37008,-1.02797 0.78373,-1.59154 1.60671,-2.18903 0.60957,-0.44256 1.11559,-0.87613 1.12448,-0.96349 0.009,-0.0873 -0.72798,-0.18112 -1.63748,-0.20836 -2.00425,-0.06 -3.46973,-0.70152 -3.59314,-1.57285 -0.17274,-1.21961 1.64321,-2.42558 3.65245,-2.42558 h 1.06849 l -0.79541,-1.09803 c -0.90711,-1.25222 -1.11049,-3.031 -0.37867,-3.31182 0.73645,-0.28261 2.47059,0.43566 3.47371,1.43878 0.53737,0.53737 0.89194,0.75871 0.79005,0.4932 -0.68759,-1.79183 -0.47219,-3.87115 0.50191,-4.84526 0.62718,-0.62718 0.66014,-0.63145 1.4178,-0.18389 1.03741,0.61281 2.09475,2.62589 2.37079,4.51377 0.12369,0.84593 0.23941,1.35196 0.25715,1.12453 0.0391,-0.50163 1.15561,-1.58254 2.41351,-2.33664 0.92217,-0.55283 1.96009,-0.70214 2.75649,-0.39654 0.87544,0.33594 0.2539,2.37766 -1.20856,3.97005 l -0.51318,0.55878 1.6199,-0.0296 c 1.51161,-0.0276 1.67158,0.0281 2.39304,0.83446 0.42523,0.47524 0.77315,1.04254 0.77315,1.26066 0,0.56254 -1.34386,1.30842 -3.04215,1.68848 l -1.45221,0.32499 0.73894,0.62178 c 0.40642,0.34198 0.95933,1.031 1.22868,1.53116 0.4776,0.88685 0.47727,0.9349 -0.0131,1.93933 -0.27657,0.56647 -0.72417,1.07094 -0.99467,1.12104 -0.695,0.12873 -2.69007,-0.6812 -3.63355,-1.47508 l -0.79717,-0.67077 0.18892,0.76279 c 0.1039,0.41954 0.51682,1.53671 0.9176,2.48259 2.12213,5.00854 3.3691,12.00464 3.70195,20.76979 0.011,0.29105 0.25187,-0.42333 0.53517,-1.5875 1.36504,-5.60955 3.92235,-11.97024 6.06592,-15.08754 0.71703,-1.04274 0.72214,-1.0769 0.24843,-1.66191 -1.10335,-1.36257 -1.34478,-5.60612 -0.37964,-6.67259 0.57307,-0.63324 1.26563,-0.49437 2.28357,0.45788 0.69716,0.65217 0.70308,0.65284 0.87877,0.0993 0.2381,-0.75019 1.94117,-1.87366 2.84029,-1.87366 1.15365,0 1.63185,0.98387 1.46833,3.02101 l -0.13505,1.68233 0.95935,-0.1279 c 1.20669,-0.16088 2.41455,0.6835 2.41455,1.68793 0,0.97184 -1.45417,2.2831 -3.30729,2.98228 -1.32539,0.50006 -1.90419,0.57313 -3.50558,0.44254 l -1.91807,-0.15641 -1.9687,4.03151 c -1.08279,2.21733 -2.38518,5.22213 -2.89421,6.67734 -0.98374,2.81231 -2.38087,8.05826 -2.19549,8.24364 0.14337,0.14337 1.66076,-2.25823 1.86935,-2.95865 0.0878,-0.29471 0.2785,-1.47384 0.42385,-2.62029 0.42594,-3.35947 2.28953,-5.90271 4.20513,-5.73876 0.2875,0.0246 0.33813,0.42484 0.23539,1.86078 l -0.1309,1.82943 1.25563,-1.92343 c 1.51472,-2.32031 2.74799,-3.05835 5.11056,-3.05835 1.37212,0 1.53381,0.0613 1.76475,0.6687 0.52191,1.37271 -0.94282,4.10821 -2.84281,5.30918 -0.62078,0.39239 -1.12869,0.74438 -1.12869,0.78219 0,0.0378 0.46004,0.007 1.02231,-0.0684 0.85106,-0.11415 1.09273,-0.0366 1.44263,0.46296 0.8511,1.21512 -0.43275,2.15483 -3.39098,2.48205 -2.57439,0.28476 -4.42981,0.7087 -5.51575,1.2603 -1.22084,0.62012 -1.14888,0.87982 0.11503,0.41513 0.54558,-0.20058 2.21143,-0.3315 4.21009,-0.33087 3.06866,9.8e-4 3.40275,0.0517 4.63021,0.70293 1.68525,0.89413 2.78447,2.05152 2.85508,3.0062 0.0435,0.58867 -0.14216,0.88423 -0.8707,1.38587 -0.80763,0.5561 -1.16288,0.62538 -2.77813,0.54179 -1.01864,-0.0527 -2.23903,-0.29188 -2.71198,-0.53146 -0.47294,-0.23959 -0.85989,-0.39201 -0.85989,-0.33872 0,0.0533 0.24703,0.51558 0.54897,1.02733 0.63691,1.07947 0.58813,2.09686 -0.10688,2.22938 -0.9597,0.183 -1.82688,-0.2643 -3.46266,-1.78606 -1.28111,-1.19182 -1.92144,-1.59192 -2.77983,-1.73694 -2.35068,-0.39714 -4.57772,1.66302 -4.97152,4.59899 l -0.14567,1.0861 -1.22194,3.6e-4 -1.22193,3.6e-4 z"
         id="path7966" />
      <path
         style="fill:#bcaa54;stroke-width:1.02732"
         d="m 195.6301,161.2064 c -1.33665,-1.08273 -1.47609,-2.33889 -0.39406,-3.54989 0.63524,-0.71095 0.94845,-0.85105 1.89034,-0.84555 0.93138,0.005 1.26114,0.15455 1.88444,0.85214 1.01192,1.13254 0.99335,2.14615 -0.0586,3.1981 -0.94741,0.94742 -2.3932,1.09765 -3.32211,0.3452 z"
         id="path7973" />
      <path
         style="fill:#bcaa54;stroke-width:1.02732"
         d="m 201.6184,196.85175 c 0,-2.21175 -0.40823,-3.14541 -1.78408,-4.08032 -1.06562,-0.7241 -2.59295,-0.88333 -3.59113,-0.37437 -0.31785,0.16207 -1.25622,0.95578 -2.08527,1.7638 -1.21893,1.18802 -1.57926,1.40946 -1.88313,1.15728 -0.2939,-0.24392 -0.45126,-0.22089 -0.72233,0.10572 -0.50185,0.60469 -1.54815,1.08731 -2.81254,1.29733 -0.94339,0.1567 -1.14604,0.1059 -1.38907,-0.34819 -0.70218,-1.31203 0.15825,-3.14998 1.83682,-3.92359 0.9917,-0.45706 1.52427,-1.1134 0.62271,-0.76744 -3.12306,1.19843 -7.52737,0.5027 -8.35798,-1.32028 -0.30431,-0.6679 -0.25881,-0.77057 0.71446,-1.61189 1.47632,-1.27618 4.31824,-2.11548 5.94371,-1.75533 0.66259,0.1468 1.3932,0.34922 1.62357,0.44982 0.34245,0.14953 0.39731,0.036 0.3007,-0.62221 -0.10824,-0.73749 -0.0545,-0.80495 0.63947,-0.80314 0.4167,0.001 1.71013,0.5523 2.8743,1.22493 2.06328,1.19212 4.31761,2.0843 4.58668,1.81524 0.213,-0.213 -0.98777,-1.37269 -2.44878,-2.36501 -0.79124,-0.53742 -2.10599,-1.09964 -3.19623,-1.3668 -5.08479,-1.246 -6.21771,-1.7672 -6.21771,-2.86049 0,-0.78879 0.62673,-1.0346 1.78843,-0.70143 1.27988,0.36707 1.27241,-0.11198 -0.008,-0.53467 -1.92086,-0.63394 -4.01764,-3.35262 -3.54189,-4.59241 0.39192,-1.02133 3.46816,-0.75499 4.80152,0.41572 l 0.88028,0.77289 -0.14276,-1.06435 c -0.17086,-1.27384 0.27414,-1.41032 1.54202,-0.47293 1.06026,0.78388 1.7024,1.86803 2.35184,3.97068 0.29484,0.95457 0.78302,2.01525 1.08483,2.35706 0.47987,0.54344 0.52548,0.55503 0.36331,0.0923 -1.08076,-3.08369 -1.31811,-5.4012 -0.75198,-7.34219 0.36945,-1.26663 2.76812,0.31293 4.00811,2.6394 0.58331,1.0944 0.94157,2.2514 1.13913,3.67882 0.83776,6.05321 1.08223,7.3503 1.56294,8.29257 1.35744,2.6608 1.55206,1.15766 0.90684,-7.00402 -0.32617,-4.1258 -1.70064,-10.58701 -2.79163,-13.12308 -0.47191,-1.097 -0.50318,-1.36211 -0.20328,-1.72346 0.19493,-0.23488 0.42176,-0.97909 0.50407,-1.6538 l 0.14965,-1.22674 0.60279,1.32291 c 1.92097,4.21593 3.70571,12.55043 3.76773,17.5948 0.0134,1.0914 0.10396,2.57968 0.20121,3.30729 l 0.1768,1.32291 0.34348,-1.82788 c 0.80481,-4.28294 3.87405,-12.14387 6.04587,-15.48466 l 0.76254,-1.17297 -0.60093,-1.18698 c -0.4739,-0.93606 -0.60093,-1.62862 -0.60093,-3.2762 0,-1.14907 0.12326,-2.31952 0.2739,-2.60099 0.38354,-0.71667 1.47045,-0.64357 2.26644,0.15243 l 0.66421,0.6642 0.6782,-0.80599 c 0.76613,-0.9105 1.916,-1.58075 2.7119,-1.58075 1.05659,0 1.7103,2.43867 1.09063,4.06854 -0.2489,0.65465 -0.23499,0.66301 1.05389,0.63365 2.29327,-0.0522 3.09727,1.41234 1.59822,2.91139 -1.52582,1.52582 -4.4381,2.40488 -6.50605,1.96383 l -1.19806,-0.25552 -1.01788,1.7552 c -1.44464,2.49112 -1.71697,3.05736 -3.02292,6.28536 -1.73191,4.28089 -3.52941,10.29238 -3.2912,11.00699 0.10391,0.31174 1.41912,-1.60154 1.81293,-2.63732 0.14771,-0.3885 0.38675,-1.66396 0.53122,-2.83435 0.21342,-1.72913 0.43556,-2.39007 1.18519,-3.52632 1.09341,-1.65735 2.3983,-2.58092 2.97283,-2.1041 0.28185,0.23391 0.34241,0.73406 0.24134,1.99323 l -0.13493,1.68095 0.93247,-1.40878 c 1.29224,-1.95232 2.17252,-2.86733 3.16845,-3.29346 1.04852,-0.44863 3.29582,-0.47685 3.72589,-0.0468 0.4755,0.4755 0.38309,1.95627 -0.19251,3.08453 -0.57037,1.11802 -2.4618,2.94797 -3.04701,2.94797 -0.20928,0 -0.45878,0.12666 -0.55445,0.28146 -0.11741,0.18998 0.12644,0.2251 0.75027,0.10807 1.188,-0.22287 2.03828,0.22303 2.03828,1.06889 0,0.99753 -0.99835,1.4476 -4.11998,1.85735 -3.17385,0.4166 -5.18943,0.99604 -5.71538,1.64306 -0.30342,0.37326 -0.28786,0.40821 0.11459,0.25737 1.20907,-0.45319 4.18398,-0.77443 6.01163,-0.64916 2.38042,0.16316 4.34595,0.9236 5.50881,2.13128 1.11506,1.15803 1.19664,2.19241 0.23051,2.92274 -0.99928,0.75539 -4.34569,0.79801 -5.69757,0.0726 -0.48911,-0.26246 -0.84001,-0.378 -0.7798,-0.25677 1.17364,2.36307 1.18642,3.26313 0.0463,3.26313 -0.94017,0 -1.61254,-0.40788 -3.29811,-2.00076 -1.82248,-1.72225 -2.90054,-2.01394 -4.69488,-1.27029 -1.47283,0.61039 -2.67969,2.3613 -2.88536,4.18606 l -0.13545,1.20166 h -1.15621 -1.15622 z"
         id="path7972" />
      <path
         style="fill:#4f708e;stroke-width:1.02732"
         d="m 201.57843,196.42397 c -0.0905,-2.2015 -0.11139,-2.26307 -1.06325,-3.13537 -1.19343,-1.0937 -2.76372,-1.57524 -3.83193,-1.1751 -0.41437,0.15522 -1.49108,1.01006 -2.3927,1.89964 -1.32844,1.3107 -1.71063,1.55822 -2.01542,1.30528 -0.2952,-0.245 -0.4548,-0.21725 -0.74194,0.12898 -0.53443,0.64441 -1.9151,1.1529 -3.13042,1.1529 -0.9035,0 -1.08582,-0.0958 -1.22301,-0.64236 -0.33481,-1.33398 0.79986,-3.03059 2.50687,-3.74841 1.35516,-0.56985 0.79323,-0.74321 -0.85548,-0.26391 -1.82666,0.53102 -2.88278,0.53095 -4.69337,-3.4e-4 -2.33754,-0.68591 -3.31115,-2.07046 -2.16469,-3.07835 0.73894,-0.64963 2.46792,-1.42891 3.93695,-1.77447 1.40638,-0.33082 3.22622,-0.0647 4.02195,0.58803 0.28717,0.23559 0.31694,0.1013 0.16137,-0.72796 l -0.19076,-1.01683 0.89696,0.14701 c 0.49333,0.0808 1.77519,0.6455 2.84857,1.25477 1.99669,1.13335 3.7414,1.85449 4.48675,1.85449 0.64397,0 -1.66377,-2.2216 -3.09458,-2.97908 -0.67491,-0.35729 -1.76289,-0.77634 -2.41773,-0.9312 -5.00183,-1.18289 -6.35,-1.82516 -6.35,-3.02517 0,-0.49086 0.12852,-0.52775 1.45521,-0.41773 0.80036,0.0664 1.45219,0.0514 1.4485,-0.0334 -0.004,-0.0847 -0.74507,-0.51124 -1.64752,-0.94781 -1.46197,-0.70723 -1.7259,-0.96063 -2.42144,-2.3249 -0.67575,-1.32544 -0.72989,-1.58152 -0.403,-1.90608 0.90914,-0.90263 3.62109,-0.51939 4.91298,0.69429 l 0.64873,0.60945 -0.17846,-1.11607 c -0.22484,-1.40603 0.24113,-1.48778 1.61327,-0.28303 1.06157,0.93207 1.59035,1.83284 2.13249,3.63266 0.36805,1.22188 1.37484,3.09107 1.56338,2.90253 0.0549,-0.0549 -0.13013,-0.92894 -0.41113,-1.94234 -0.82204,-2.96452 -0.61941,-6.21963 0.38717,-6.21963 0.67641,0 2.78339,2.14987 3.45767,3.52805 0.51398,1.05052 0.81271,2.39668 1.21627,5.48069 0.29423,2.24847 0.64957,4.51907 0.78965,5.04578 0.26807,1.00795 1.17885,2.34965 1.59501,2.34965 0.53535,0 0.0935,-8.07475 -0.70216,-12.8323 -0.51231,-3.06325 -1.88044,-8.24547 -2.41636,-9.1527 -0.37982,-0.64299 -0.37819,-0.75786 0.0188,-1.32465 0.23908,-0.34133 0.43831,-1.10012 0.44273,-1.6862 0.01,-1.26825 0.2201,-1.00197 1.22779,1.55291 1.89071,4.7937 3.16897,11.81001 3.29708,18.09748 0.0305,1.49838 0.13457,2.77319 0.2312,2.83291 0.0966,0.0597 0.32181,-0.68447 0.50041,-1.65376 0.44981,-2.44122 2.67745,-9.09557 3.93417,-11.75208 0.57387,-1.21306 1.46467,-2.82375 1.97955,-3.57929 l 0.93615,-1.37372 -0.63324,-1.25081 c -0.50886,-1.00514 -0.63324,-1.66116 -0.63324,-3.34003 0,-1.14907 0.12326,-2.31952 0.2739,-2.60099 0.38354,-0.71667 1.47045,-0.64357 2.26644,0.15243 l 0.66421,0.6642 0.6782,-0.80599 c 0.76613,-0.9105 1.916,-1.58075 2.7119,-1.58075 1.05659,0 1.7103,2.43867 1.09063,4.06854 -0.2489,0.65465 -0.23499,0.66301 1.05389,0.63365 2.29327,-0.0522 3.09727,1.41234 1.59822,2.91139 -1.52897,1.52897 -4.43769,2.40497 -6.51469,1.96199 -1.20485,-0.25697 -1.20766,-0.25585 -1.82574,0.72326 -2.27288,3.60046 -4.89217,10.07331 -6.2257,15.38508 -0.30787,1.2263 -0.62926,2.46776 -0.71421,2.7588 -0.1488,0.50978 -0.1352,0.51199 0.37099,0.0603 1.05526,-0.94158 1.92258,-2.99192 2.22476,-5.25936 0.3422,-2.56777 0.84109,-3.67155 2.29545,-5.07862 1.33324,-1.2899 2.00306,-1.23182 2.11969,0.18382 0.046,0.55784 -0.0439,1.37983 -0.19963,1.82664 -0.46136,1.32346 -0.12519,1.1371 0.91683,-0.50827 1.32831,-2.0974 1.92676,-2.71931 3.16799,-3.29217 1.20287,-0.55516 3.30931,-0.65681 3.78354,-0.18258 0.48078,0.48079 0.38151,1.76445 -0.23493,3.03784 -0.55769,1.15205 -2.43525,2.99466 -3.05145,2.99466 -0.1835,0 -0.41871,0.13765 -0.52268,0.30588 -0.13646,0.22079 0.0903,0.26054 0.81533,0.14289 1.24223,-0.20159 1.98831,0.16814 1.98831,0.98532 0,0.97864 -0.989,1.40067 -4.38189,1.86988 -3.01376,0.41677 -5.67227,1.248 -5.67227,1.77353 0,0.1374 0.26296,0.16637 0.58437,0.0644 1.17438,-0.37274 3.83257,-0.58437 5.8802,-0.46817 3.42589,0.19443 6.23543,1.90986 6.23543,3.80718 0,1.96068 -3.30655,2.35753 -7.14375,0.85739 -0.32324,-0.12636 -0.31584,-0.0621 0.0399,0.34652 0.69185,0.79476 1.04495,2.3993 0.60781,2.76208 -0.65051,0.53988 -1.99514,-0.006 -3.27178,-1.32917 -1.62877,-1.68764 -2.71068,-2.21563 -4.19683,-2.04812 -0.64735,0.073 -1.49082,0.36466 -1.87438,0.64821 -0.90399,0.6683 -1.86045,2.39459 -2.09813,3.78687 -0.182,1.06608 -0.22263,1.10347 -1.28565,1.18275 l -1.0977,0.0819 z"
         id="path7979" />
      <path
         style="fill:#69833a;stroke-width:1.02732"
         d="m 201.57843,196.42397 c -0.0905,-2.2015 -0.11139,-2.26307 -1.06325,-3.13537 -1.19343,-1.0937 -2.76372,-1.57524 -3.83193,-1.1751 -0.41437,0.15522 -1.49108,1.01006 -2.3927,1.89964 -1.32844,1.3107 -1.71063,1.55822 -2.01542,1.30528 -0.2952,-0.245 -0.4548,-0.21725 -0.74194,0.12898 -0.53443,0.64441 -1.9151,1.1529 -3.13042,1.1529 -0.9035,0 -1.08582,-0.0958 -1.22301,-0.64236 -0.33481,-1.33398 0.79986,-3.03059 2.50687,-3.74841 1.35516,-0.56985 0.79323,-0.74321 -0.85548,-0.26391 -1.82666,0.53102 -2.88278,0.53095 -4.69337,-3.4e-4 -2.33754,-0.68591 -3.31115,-2.07046 -2.16469,-3.07835 0.73894,-0.64963 2.46792,-1.42891 3.93695,-1.77447 1.40638,-0.33082 3.22622,-0.0647 4.02195,0.58803 0.28717,0.23559 0.31694,0.1013 0.16137,-0.72796 l -0.19076,-1.01683 0.89696,0.14701 c 0.49333,0.0808 1.77519,0.6455 2.84857,1.25477 1.99669,1.13335 3.7414,1.85449 4.48675,1.85449 0.64397,0 -1.66377,-2.2216 -3.09458,-2.97908 -0.67491,-0.35729 -1.76289,-0.77634 -2.41773,-0.9312 -5.00183,-1.18289 -6.35,-1.82516 -6.35,-3.02517 0,-0.49086 0.12852,-0.52775 1.45521,-0.41773 0.80036,0.0664 1.45219,0.0514 1.4485,-0.0334 -0.004,-0.0847 -0.74507,-0.51124 -1.64752,-0.94781 -1.46197,-0.70723 -1.7259,-0.96063 -2.42144,-2.3249 -0.67575,-1.32544 -0.72989,-1.58152 -0.403,-1.90608 0.90914,-0.90263 3.62109,-0.51939 4.91298,0.69429 l 0.64873,0.60945 -0.17846,-1.11607 c -0.22484,-1.40603 0.24113,-1.48778 1.61327,-0.28303 1.06157,0.93207 1.59035,1.83284 2.13249,3.63266 0.36805,1.22188 1.37484,3.09107 1.56338,2.90253 0.0549,-0.0549 -0.13013,-0.92894 -0.41113,-1.94234 -0.82204,-2.96452 -0.61941,-6.21963 0.38717,-6.21963 0.67641,0 2.78339,2.14987 3.45767,3.52805 0.51398,1.05052 0.81271,2.39668 1.21627,5.48069 0.29423,2.24847 0.64957,4.51907 0.78965,5.04578 0.26807,1.00795 1.17885,2.34965 1.59501,2.34965 0.53535,0 0.0935,-8.07475 -0.70216,-12.8323 -0.51231,-3.06325 -1.88044,-8.24547 -2.41636,-9.1527 -0.37982,-0.64299 -0.37819,-0.75786 0.0188,-1.32465 0.23908,-0.34133 0.43831,-1.10012 0.44273,-1.6862 0.01,-1.26825 0.2201,-1.00197 1.22779,1.55291 1.89071,4.7937 3.16897,11.81001 3.29708,18.09748 0.0305,1.49838 0.13457,2.77319 0.2312,2.83291 0.0966,0.0597 0.32181,-0.68447 0.50041,-1.65376 0.84903,-4.60786 4.45043,-13.68335 6.31488,-15.91347 0.66368,-0.79384 0.81732,-0.86163 1.33043,-0.58703 l 0.58009,0.31046 -0.63205,1.00123 c -2.28607,3.62138 -4.90185,10.08072 -6.2387,15.40569 -0.30787,1.2263 -0.62926,2.46776 -0.71421,2.7588 -0.1488,0.50978 -0.1352,0.51199 0.37099,0.0603 1.05526,-0.94158 1.92258,-2.99192 2.22476,-5.25936 0.3422,-2.56777 0.84109,-3.67155 2.29545,-5.07862 1.33324,-1.2899 2.00306,-1.23182 2.11969,0.18382 0.046,0.55784 -0.0439,1.37983 -0.19963,1.82664 -0.46136,1.32346 -0.12519,1.1371 0.91683,-0.50827 1.32831,-2.0974 1.92676,-2.71931 3.16799,-3.29217 1.20287,-0.55516 3.30931,-0.65681 3.78354,-0.18258 0.48078,0.48079 0.38151,1.76445 -0.23493,3.03784 -0.55769,1.15205 -2.43525,2.99466 -3.05145,2.99466 -0.1835,0 -0.41871,0.13765 -0.52268,0.30588 -0.13646,0.22079 0.0903,0.26054 0.81533,0.14289 1.24223,-0.20159 1.98831,0.16814 1.98831,0.98532 0,0.97864 -0.989,1.40067 -4.38189,1.86988 -3.01376,0.41677 -5.67227,1.248 -5.67227,1.77353 0,0.1374 0.26296,0.16637 0.58437,0.0644 1.17438,-0.37274 3.83257,-0.58437 5.8802,-0.46817 3.42589,0.19443 6.23543,1.90986 6.23543,3.80718 0,1.96068 -3.30655,2.35753 -7.14375,0.85739 -0.32324,-0.12636 -0.31584,-0.0621 0.0399,0.34652 0.69185,0.79476 1.04495,2.3993 0.60781,2.76208 -0.65051,0.53988 -1.99514,-0.006 -3.27178,-1.32917 -1.62877,-1.68764 -2.71068,-2.21563 -4.19683,-2.04812 -0.64735,0.073 -1.49082,0.36466 -1.87438,0.64821 -0.90399,0.6683 -1.86045,2.39459 -2.09813,3.78687 -0.182,1.06608 -0.22263,1.10347 -1.28565,1.18275 l -1.0977,0.0819 z"
         id="path7984" />
      <path
         style="fill:#637c36;stroke-width:1.02732"
         d="m 216.17048,182.79774 c 0,-0.16977 -0.0737,-0.23497 -0.16379,-0.14489 -0.15297,0.15297 -0.89454,-0.41891 -0.89454,-0.68985 0,-0.0676 0.17253,-0.18909 0.3834,-0.27 0.26989,-0.10357 0.33463,-0.02 0.21865,0.28221 -0.12332,0.32138 -0.0534,0.3866 0.27806,0.25941 0.32161,-0.12341 0.44281,-0.0274 0.44281,0.35094 0,0.28647 -0.0595,0.52086 -0.1323,0.52086 -0.0728,0 -0.13229,-0.1389 -0.13229,-0.30868 z"
         id="path8064" />
      <path
         style="fill:#637c36;stroke-width:1.02732"
         d="m 186.53715,187.86892 c -0.31929,-0.20634 -0.27745,-0.25727 0.21405,-0.26053 0.34067,-0.002 0.53859,0.11299 0.44741,0.26053 -0.19663,0.31816 -0.16914,0.31816 -0.66146,0 z"
         id="path8063" />
      <path
         style="fill:#637c36;stroke-width:1.02732"
         d="m 193.61035,188.62984 c 0.17947,-0.18082 0.39297,-0.26211 0.47443,-0.18065 0.0815,0.0815 -0.0654,0.2294 -0.32632,0.32876 -0.37709,0.14359 -0.40748,0.1132 -0.14811,-0.14811 z"
         id="path8062" />
      <path
         style="fill:#637c36;stroke-width:1.02732"
         d="m 190.88853,189.69795 c -0.0978,-0.1582 -0.0612,-0.40419 0.0812,-0.54665 0.16897,-0.16896 0.30872,-0.069 0.40197,0.28764 0.15023,0.57448 -0.17913,0.75103 -0.48321,0.25901 z"
         id="path8061" />
      <path
         style="fill:#637c36;stroke-width:1.02732"
         d="m 186.8708,189.99785 c -0.20325,-0.32545 -0.22683,-0.57622 -0.0636,-0.67707 0.50923,-0.31472 0.25879,-0.69365 -0.33407,-0.50548 -0.53295,0.16915 -0.5556,0.14294 -0.22288,-0.25797 0.25694,-0.3096 0.45481,-0.36179 0.64615,-0.17045 0.352,0.35199 0.78273,0.36051 0.56684,0.0112 -0.0899,-0.14552 -0.0445,-0.26458 0.10106,-0.26458 0.14553,0 0.33817,0.11906 0.42811,0.26458 0.0899,0.14552 0.28258,0.26458 0.4281,0.26458 0.14553,0 0.19609,-0.11083 0.11237,-0.2463 -0.23903,-0.38675 0.31411,-0.59217 0.83783,-0.31114 0.26058,0.13983 0.69555,0.32386 0.9666,0.40897 0.37584,0.118 0.42349,0.23828 0.20074,0.50668 -0.16065,0.19356 -0.20746,0.43657 -0.10401,0.54002 0.10344,0.10344 -0.0215,0.10764 -0.2777,0.009 -0.30404,-0.11667 -0.43905,-0.0641 -0.38881,0.15138 0.0423,0.18156 -0.0719,0.38468 -0.25377,0.45138 -0.53499,0.19617 -0.37841,-0.41773 0.19844,-0.77798 0.69656,-0.43501 0.67463,-0.79068 -0.0422,-0.6846 -0.31424,0.0465 -0.59972,0.28172 -0.63439,0.5227 -0.0347,0.24099 -0.20179,0.65771 -0.37138,0.92605 -0.2685,0.42483 -0.28878,0.39522 -0.15697,-0.22914 0.11376,-0.53883 0.0233,-0.78558 -0.36412,-0.99291 -0.618,-0.33074 -0.96861,0.0739 -0.85124,0.98232 0.0944,0.73062 -0.002,0.74866 -0.42105,0.0784 z"
         id="path8060" />
      <path
         style="fill:#637c36;stroke-width:1.02732"
         d="m 186.40486,190.25017 c -0.0899,-0.14552 -0.0374,-0.26458 0.11668,-0.26458 0.15411,0 0.28019,0.11906 0.28019,0.26458 0,0.14552 -0.0525,0.26459 -0.11667,0.26459 -0.0642,0 -0.19026,-0.11907 -0.2802,-0.26459 z"
         id="path8059" />
      <path
         style="fill:#637c36;stroke-width:1.02732"
         d="m 182.22935,190.17317 c -0.1631,-0.42503 1.02935,-0.56901 1.28511,-0.15517 0.12035,0.19473 -0.0155,0.22729 -0.41689,0.0999 -0.40563,-0.12874 -0.53772,-0.0956 -0.4144,0.10395 0.0996,0.16111 0.0677,0.29293 -0.0708,0.29293 -0.13854,0 -0.31088,-0.15373 -0.38297,-0.34161 z"
         id="path8058" />
      <path
         style="fill:#637c36;stroke-width:1.02732"
         d="m 193.01944,190.51478 c 0.0899,-0.14553 0.21603,-0.26459 0.2802,-0.26459 0.0642,0 0.11668,0.11906 0.11668,0.26459 0,0.14552 -0.12609,0.26458 -0.2802,0.26458 -0.15411,0 -0.20661,-0.11906 -0.11668,-0.26458 z"
         id="path8057" />
      <path
         style="fill:#637c36;stroke-width:1.02732"
         d="m 187.80469,190.1179 c -0.1721,-0.84074 -0.11702,-1.03958 0.24581,-0.88746 0.12293,0.0515 0.15447,0.4509 0.0701,0.88746 l -0.15342,0.79375 z"
         id="path8056" />
      <path
         style="fill:#637c36;stroke-width:1.02732"
         d="m 198.5022,190.98515 c -0.50515,-0.50515 -0.58797,-0.52378 -0.58797,-0.1323 0,0.25062 -0.11906,0.45568 -0.26458,0.45568 -0.30772,0 -0.34408,-0.54223 -0.0621,-0.92605 0.2793,-0.38016 1.21969,-0.50695 0.98877,-0.13331 -0.10162,0.16442 0.0239,0.52957 0.27903,0.81144 0.63771,0.70466 0.36969,0.64739 -0.35316,-0.0755 z"
         id="path8055" />
      <path
         style="fill:#637c36;stroke-width:1.02732"
         d="m 184.67481,191.16388 c -0.17244,-0.20778 -0.24998,-0.54338 -0.17231,-0.74579 0.0777,-0.2024 0.0235,-0.48576 -0.12048,-0.62969 -0.17253,-0.17254 -0.12138,-0.31554 0.15015,-0.41973 0.3368,-0.12924 0.39011,0.0116 0.29261,0.7732 -0.10607,0.82843 -0.0619,0.91305 0.3997,0.76653 0.58955,-0.18712 0.72075,0.26606 0.14139,0.48838 -0.20764,0.0797 -0.51862,-0.0251 -0.69106,-0.2329 z"
         id="path8054" />
      <path
         style="fill:#637c36;stroke-width:1.02732"
         d="m 192.75486,191.57311 c -0.0899,-0.14552 0.0221,-0.26458 0.24897,-0.26458 0.22687,0 0.41249,0.11906 0.41249,0.26458 0,0.14552 -0.11204,0.26458 -0.24897,0.26458 -0.13693,0 -0.32255,-0.11906 -0.41249,-0.26458 z"
         id="path8053" />
      <path
         style="fill:#637c36;stroke-width:1.02732"
         d="m 204.93699,191.85597 c -0.17594,-0.28467 0.34192,-0.6793 0.57957,-0.44165 0.0873,0.0873 0.0129,0.15879 -0.16551,0.15879 -0.17836,0 -0.25071,0.11906 -0.16077,0.26458 0.0899,0.14552 0.10399,0.26459 0.0312,0.26459 -0.0728,0 -0.2008,-0.11084 -0.28452,-0.24631 z"
         id="path8052" />
      <path
         style="fill:#637c36;stroke-width:1.02732"
         d="m 204.7934,192.89603 c -0.31929,-0.20635 -0.27745,-0.25728 0.21405,-0.26054 0.34067,-0.002 0.53859,0.113 0.44741,0.26054 -0.19664,0.31816 -0.16914,0.31816 -0.66146,0 z"
         id="path8051" />
      <path
         style="fill:#637c36;stroke-width:1.02732"
         d="m 187.22281,195.9413 c -0.33679,-1.34187 1.09061,-3.34577 2.66462,-3.74082 0.6473,-0.16247 0.859,-0.62542 0.28774,-0.62925 -0.1819,-0.001 -1.10463,0.19401 -2.05052,0.43385 -1.44868,0.36733 -1.95705,0.38611 -3.22483,0.11914 -1.78865,-0.37665 -3.22492,-1.26953 -3.34149,-2.07727 -0.27935,-1.93572 5.51374,-3.80296 7.92697,-2.55503 0.94727,0.48985 1.17691,0.37005 0.76522,-0.3992 -0.33846,-0.63242 -0.16599,-1.07552 0.41863,-1.07552 0.21813,0 1.76164,0.71437 3.43002,1.5875 1.66838,0.87312 3.35314,1.5875 3.74391,1.5875 0.70543,0 0.70234,-0.008 -0.43259,-1.16472 -1.53979,-1.56893 -3.18797,-2.41794 -5.93944,-3.0595 -3.68937,-0.86024 -5.19848,-1.65382 -5.19848,-2.73365 0,-0.48475 0.12407,-0.51288 1.5875,-0.35992 0.9778,0.1022 1.5875,0.0659 1.5875,-0.0946 0,-0.14329 0.11532,-0.26053 0.25628,-0.26053 0.14095,0 0.18774,0.1786 0.10398,0.39688 -0.0838,0.21828 -0.031,0.39687 0.11719,0.39687 0.41951,0 0.19576,-0.82439 -0.29889,-1.10121 -0.6521,-0.36493 -0.54261,-0.81372 0.15217,-0.62378 0.51525,0.14087 0.53284,0.1236 0.13082,-0.12843 -0.35059,-0.21978 -0.59655,-0.19869 -1.00298,0.086 -0.5364,0.37571 -0.53619,0.37777 0.0561,0.53264 0.327,0.0855 0.51768,0.23234 0.42373,0.32629 -0.35332,0.35332 -2.62439,-0.79162 -3.50611,-1.76758 -0.94095,-1.04152 -1.31138,-1.94132 -1.14985,-2.79308 0.18818,-0.99225 3.38161,-0.77376 4.68185,0.32033 0.93074,0.78316 1.20809,0.82918 0.8388,0.13915 -0.37897,-0.70809 -0.34314,-1.60489 0.0641,-1.60489 0.56074,0 1.53553,0.80958 1.34533,1.11732 -0.10132,0.16393 -0.0555,0.21189 0.10668,0.11166 0.44345,-0.27406 1.35214,1.08636 1.8137,2.71532 0.47587,1.67943 1.57063,3.72862 1.992,3.72862 0.16684,0 0.20154,-0.18882 0.0851,-0.46303 -0.74838,-1.76203 -1.20334,-4.06538 -1.12265,-5.68368 0.10713,-2.14841 0.37676,-2.51952 1.43072,-1.96922 2.21138,1.1546 3.34753,3.46883 3.92371,7.99218 0.24037,1.88707 0.59245,4.11434 0.78239,4.9495 0.32432,1.42595 1.36536,3.3705 1.8066,3.37452 0.34073,0.003 0.21715,-5.79457 -0.19943,-9.35584 -0.51314,-4.38666 -1.2842,-8.14929 -2.29714,-11.20965 -0.78864,-2.38267 -0.79768,-2.46661 -0.36411,-3.38028 0.26448,-0.55736 0.37261,-1.17533 0.26691,-1.52541 -0.4154,-1.37574 0.3969,0.0786 1.14908,2.05736 1.79926,4.73321 2.90164,10.5858 3.14204,16.68121 0.16625,4.21537 0.16107,4.2725 -0.40066,4.41939 -0.71633,0.18733 -0.74161,0.60192 -0.0399,0.65478 0.29104,0.0219 0.52916,-0.12141 0.52916,-0.31852 0,-0.19711 0.0949,-0.39807 0.21093,-0.44658 0.11601,-0.0485 0.42128,-1.10022 0.67838,-2.33715 1.02368,-4.92492 4.95616,-14.60449 6.49604,-15.98961 0.51206,-0.4606 0.60917,-0.47094 0.97617,-0.10394 0.36699,0.367 0.29328,0.61529 -0.74102,2.49586 -2.44792,4.45084 -4.45834,9.61392 -5.64815,14.50534 -0.71696,2.94747 -0.9319,3.3146 -1.6304,2.78483 -0.40499,-0.30715 -0.42595,-0.30551 -0.14351,0.0112 0.41744,0.46812 0.43146,0.8877 0.0212,0.63414 -0.2111,-0.13047 -0.25311,-0.0443 -0.13211,0.27107 0.11882,0.30962 0.0681,0.4225 -0.15347,0.34167 -0.182,-0.0664 -0.5988,0.123 -0.92622,0.42088 -0.35559,0.32351 -0.59532,0.41021 -0.59532,0.21529 0,-0.17947 -0.11861,-0.25301 -0.26358,-0.16341 -0.63972,0.39537 -1.26999,0.35016 -1.19624,-0.0858 0.0412,-0.24351 0.21908,-0.40926 0.3953,-0.36834 0.17621,0.0409 0.26457,-0.0781 0.19636,-0.26458 -0.0682,-0.18645 -0.25797,-0.30923 -0.42168,-0.27285 -0.16371,0.0364 -0.27875,-0.0232 -0.25565,-0.13229 0.065,-0.30699 -0.33996,-1.12448 -0.55701,-1.12448 -0.10659,0 -0.33856,0.31769 -0.51547,0.70598 -0.27641,0.60665 -0.26812,0.66154 0.0589,0.39013 0.30159,-0.2503 0.41384,-0.22923 0.54075,0.1015 0.0881,0.22956 0.0507,0.34972 -0.0831,0.26702 -0.1338,-0.0827 -0.31806,-0.0293 -0.40946,0.11855 -0.30359,0.49123 -0.66413,0.27812 -0.66413,-0.39256 0,-0.3638 0.11907,-0.66145 0.26459,-0.66145 0.14552,0 0.26458,-0.11907 0.26458,-0.26459 0,-0.14552 -0.20836,-0.2664 -0.46302,-0.26863 -0.3662,-0.003 -0.38677,-0.0524 -0.0984,-0.235 0.20054,-0.12703 0.28281,-0.36333 0.18282,-0.52512 -0.22346,-0.36156 -0.94433,-0.39048 -0.94433,-0.0379 0,0.14096 0.20836,0.1915 0.46303,0.11232 0.42513,-0.13219 0.42425,-0.11912 -0.0107,0.15974 -0.33763,0.21645 -0.82416,0.22896 -1.69346,0.0436 -1.42126,-0.30313 -2.09422,-0.15789 -1.66497,0.35932 0.2042,0.24604 0.18775,0.37187 -0.0594,0.45448 -0.18797,0.0628 -0.0144,0.17696 0.38584,0.25362 0.40018,0.0767 0.7276,0.0368 0.7276,-0.0885 0,-0.12535 -0.10632,-0.2279 -0.23627,-0.2279 -0.12996,0 -0.31367,-0.20168 -0.40827,-0.44818 -0.15074,-0.39283 -0.10521,-0.38776 0.36857,0.041 0.3777,0.34182 0.54055,0.38385 0.54055,0.13951 0,-0.19233 0.0548,-0.29488 0.1218,-0.22789 0.067,0.067 0.0525,0.38663 -0.0321,0.71031 -0.12112,0.46318 -0.30201,0.56396 -0.8494,0.47322 -0.38253,-0.0634 -0.79472,-0.12508 -0.91599,-0.13704 -0.12127,-0.012 -0.16657,-0.17059 -0.10067,-0.35249 0.0659,-0.1819 -0.0577,-0.53467 -0.27466,-0.78393 -0.36049,-0.41416 -0.46209,-0.41824 -1.17933,-0.0473 -0.71321,0.36881 -0.81384,0.36621 -1.10246,-0.0285 -0.17469,-0.2389 -0.47677,-0.39619 -0.6713,-0.34953 -0.19454,0.0466 -0.41243,-0.0765 -0.48422,-0.27367 -0.0966,-0.26525 0.0239,-0.3095 0.46298,-0.17013 0.38258,0.12143 0.68466,0.0608 0.85001,-0.17067 0.19981,-0.27968 0.2258,-0.26246 0.11757,0.0779 -0.18305,0.57564 0.65224,0.79551 1.11998,0.29481 0.25399,-0.27191 0.43474,-0.29795 0.64041,-0.0923 0.1576,0.1576 0.4711,0.28283 0.69666,0.27829 0.22555,-0.005 -0.0661,-0.30225 -0.64823,-0.66158 -0.58209,-0.35933 -1.20574,-0.59802 -1.38589,-0.53043 -0.18016,0.0676 -0.29922,0.0379 -0.26459,-0.066 0.0346,-0.10391 -0.0561,-0.21869 -0.20161,-0.25507 -0.14552,-0.0364 -0.26458,0.043 -0.26458,0.17639 0,0.1334 -0.10839,0.34176 -0.24086,0.46302 -0.1383,0.12661 -0.16543,0.0888 -0.0637,-0.0889 0.0974,-0.17017 -0.001,-0.48802 -0.2198,-0.70634 -0.22023,-0.22023 -0.27924,-0.43618 -0.13255,-0.48508 0.14541,-0.0485 -0.15331,-0.21887 -0.66382,-0.37866 -0.85929,-0.26895 -0.92792,-0.24925 -0.92417,0.26531 0.003,0.4127 0.0626,0.4634 0.23151,0.19686 0.15857,-0.25024 0.28228,-0.27028 0.40844,-0.0661 0.0995,0.16106 0.0549,0.29284 -0.0992,0.29284 -0.44132,0 -0.32685,0.45464 0.16167,0.64211 0.24359,0.0935 0.53859,0.0171 0.65741,-0.17013 0.13633,-0.21486 0.21703,-0.23006 0.21959,-0.0414 0.002,0.16408 -0.1939,0.46174 -0.43585,0.66146 -0.34295,0.28309 -0.46444,0.29023 -0.55122,0.0324 -0.0612,-0.1819 -0.45155,-0.33072 -0.8674,-0.33072 -0.41584,0 -0.82078,-0.1047 -0.89987,-0.23265 -0.0791,-0.12796 -0.38392,-0.29545 -0.67743,-0.3722 -0.29351,-0.0768 -0.46694,-0.0316 -0.38539,0.10035 0.0815,0.13195 -0.0444,0.23991 -0.27983,0.23991 -0.23546,0 -0.35452,-0.11906 -0.26458,-0.26458 0.2109,-0.34126 -1.19174,-0.34126 -1.7198,0 -0.21828,0.14106 -0.30338,0.2583 -0.18912,0.26053 0.11426,0.002 0.0901,0.22394 -0.0538,0.49269 -0.15927,0.2976 -0.16629,0.58384 -0.018,0.73216 0.27099,0.27099 0.0516,1.42504 -0.27085,1.42504 -0.11298,0 -0.27395,-0.1786 -0.35772,-0.39688 -0.0918,-0.23933 -10e-4,-0.39687 0.22798,-0.39687 0.2373,0 0.32017,-0.15662 0.22042,-0.41656 -0.10763,-0.28046 -0.35605,-0.36732 -0.76035,-0.26584 -0.50041,0.12559 -0.57749,0.0627 -0.46245,-0.3772 0.14109,-0.53951 0.6055,-0.74148 0.6055,-0.26332 0,0.14552 0.11906,0.26458 0.26458,0.26458 0.14553,0 0.25519,-0.26789 0.2437,-0.59531 -0.0115,-0.32742 -0.0812,-0.44574 -0.15489,-0.26294 -0.0737,0.18281 -0.24396,0.26442 -0.37835,0.18136 -0.40259,-0.24881 -1.28102,0.14857 -1.14012,0.51576 0.072,0.18751 -0.0532,0.49365 -0.27809,0.68031 -0.27717,0.23003 -0.40891,0.24369 -0.40891,0.0424 0,-0.16334 -0.18562,-0.29698 -0.41249,-0.29698 -0.24442,0 -0.33557,0.12446 -0.2237,0.30546 0.11267,0.18232 0.073,0.23391 -0.0984,0.12797 -0.38794,-0.23976 -0.6583,0.25222 -0.46803,0.8517 0.16847,0.53079 1.3654,1.19026 1.74006,0.95871 0.12826,-0.0793 0.17075,-0.30686 0.0944,-0.50576 -0.0763,-0.1989 -0.0116,-0.44024 0.14385,-0.53631 0.37464,-0.23154 0.36827,0.72341 -0.007,1.09902 -0.21022,0.21022 0.0263,0.34465 0.8599,0.48886 2.1097,0.36495 2.2301,0.35577 2.26993,-0.17306 0.0207,-0.27496 -0.074,-0.49993 -0.21048,-0.49993 -0.13648,0 -0.24814,0.11906 -0.24814,0.26459 0,0.14552 -0.0935,0.26458 -0.20789,0.26458 -0.11433,0 -0.20788,-0.22548 -0.20788,-0.50106 0,-0.40573 0.10988,-0.45929 0.57755,-0.28148 0.31766,0.12077 0.64933,0.14781 0.73706,0.0601 0.0877,-0.0877 0.15949,-0.0136 0.15949,0.1648 0,0.17836 0.11907,0.25071 0.26459,0.16077 0.14552,-0.0899 0.26458,-0.0374 0.26458,0.11668 0,0.48119 0.52802,0.30569 0.55006,-0.18282 0.0125,-0.27661 0.0746,-0.32987 0.15434,-0.13229 0.20137,0.49905 0.56168,0.39746 0.75543,-0.21301 0.18019,-0.56772 0.84541,-0.55901 0.7137,0.009 -0.0415,0.17902 0.0731,0.50445 0.2546,0.72316 0.27008,0.32542 0.23855,0.46454 -0.17358,0.7659 -0.27698,0.20253 -0.60694,0.36824 -0.73323,0.36824 -0.1263,0 -0.16436,0.10562 -0.0846,0.23471 0.0798,0.12909 -0.062,0.21839 -0.31512,0.19844 -0.29873,-0.0236 -0.43341,0.12391 -0.3839,0.42031 0.0419,0.25113 -0.10645,0.80992 -0.32976,1.24176 -0.22332,0.43184 -0.30746,0.84608 -0.18699,0.92054 0.12047,0.0744 0.37308,-0.43036 0.56137,-1.12181 0.24558,-0.90183 0.48253,-1.26773 0.83833,-1.29453 0.55016,-0.0414 0.63944,0.20963 0.22273,0.62634 -0.15029,0.15029 -0.19325,0.48174 -0.0955,0.73656 0.25767,0.67149 0.58554,0.0296 0.53489,-1.04714 -0.0349,-0.74248 0.0243,-0.83184 0.41349,-0.62358 0.3905,0.20899 0.44002,0.13077 0.35293,-0.55743 -0.057,-0.45001 0.006,-0.73402 0.14451,-0.64862 0.35996,0.22247 0.30041,-0.51263 -0.0717,-0.88471 -0.17462,-0.17463 -0.20326,-0.3175 -0.0636,-0.3175 0.13962,0 0.39891,0.23226 0.5762,0.51615 0.25929,0.4152 0.24864,0.58985 -0.0545,0.89297 -0.32604,0.32603 -0.28578,0.37681 0.29871,0.37681 0.4971,0 0.58071,-0.0649 0.31656,-0.24573 -0.26822,-0.1836 -0.22518,-0.2245 0.17019,-0.16174 0.64957,0.1031 0.7116,0.88497 0.0661,0.83375 -0.34893,-0.0277 -0.465,0.16788 -0.47106,0.79375 -0.007,0.69223 -0.053,0.75341 -0.27773,0.36747 -0.32851,-0.56401 -0.92661,-0.60352 -1.12957,-0.0746 -0.16403,0.42745 0.21977,0.78599 0.59387,0.55478 0.52734,-0.32592 0.47816,0.62485 -0.0575,1.11226 -0.90075,0.81957 -1.64541,1.11956 -2.77908,1.11956 -0.89524,0 -1.07103,-0.0956 -1.2125,-0.65923 z m 1.16642,0.13007 c 0,-0.14553 -0.11906,-0.26459 -0.26458,-0.26459 -0.40777,0 -0.31344,-1.00238 0.16272,-1.7291 0.26243,-0.40051 0.31347,-0.65215 0.13229,-0.65215 -0.16225,0 -0.29501,0.1786 -0.29501,0.39688 0,0.21828 -0.11906,0.39687 -0.26458,0.39687 -0.14552,0 -0.26459,0.47625 -0.26459,1.05834 0,0.76435 0.11025,1.05833 0.39688,1.05833 0.21828,0 0.39687,-0.11906 0.39687,-0.26458 z m 2.32354,-0.43998 c 0.33206,-0.20736 0.53339,-0.49085 0.44741,-0.62998 -0.24459,-0.39574 -0.65431,-0.29631 -0.49455,0.12001 0.18706,0.48748 -0.90024,0.8453 -1.31084,0.43139 -0.22986,-0.23171 -0.19033,-0.26323 0.16192,-0.12912 0.35781,0.13623 0.42704,0.0758 0.29813,-0.26009 -0.23517,-0.61285 -0.69977,-0.3812 -0.92508,0.46123 -0.17728,0.6629 -0.1434,0.69888 0.51475,0.5466 0.38748,-0.0897 0.9762,-0.33268 1.30826,-0.54004 z m -2.65978,-3.95321 c -0.0879,-0.0879 -0.31612,-0.0973 -0.50711,-0.0209 -0.21107,0.0845 -0.14838,0.14716 0.15985,0.15985 0.27891,0.0115 0.43518,-0.051 0.34726,-0.13896 z m 15.63797,-0.397 c 0.19126,-0.30627 0.2199,-0.47784 0.0636,-0.38126 -0.15626,0.0966 -0.28412,0.0495 -0.28412,-0.10461 0,-0.15411 0.12609,-0.28019 0.2802,-0.28019 0.15411,0 0.19184,-0.14297 0.0839,-0.3177 -0.15255,-0.24684 -0.22009,-0.24648 -0.30279,0.002 -0.0586,0.17564 -0.1955,0.26431 -0.30434,0.19704 -0.10884,-0.0673 -0.19789,0.22965 -0.19789,0.65981 0,0.92407 0.18557,0.98726 0.66145,0.22526 z m 1.41159,-1.62108 c -0.19634,-0.19634 -0.23077,-0.093 -0.11568,0.34706 0.0936,0.35777 0.21349,0.4777 0.27954,0.27954 0.0636,-0.19088 -0.0101,-0.47285 -0.16386,-0.6266 z m 1.07459,-4.39518 c -0.0977,-0.25464 -0.0418,-0.32555 0.1588,-0.20155 0.18578,0.11482 0.30954,0.0264 0.30954,-0.22118 0,-0.22687 -0.10632,-0.41249 -0.23627,-0.41249 -0.30858,0 -0.60166,0.77279 -0.41043,1.08221 0.0818,0.13239 0.0227,0.24071 -0.13143,0.24071 -0.15411,0 -0.2802,0.27988 -0.2802,0.62197 0,0.34209 -0.13123,0.99842 -0.29162,1.45852 -0.16039,0.4601 -0.203,1.04341 -0.0947,1.29625 0.24148,0.5637 1.20778,-3.2612 0.97629,-3.86444 z m -22.5504,3.39811 c 0,-0.14552 -0.12609,-0.26458 -0.2802,-0.26458 -0.15411,0 -0.20662,0.11906 -0.11668,0.26458 0.0899,0.14552 0.21603,0.26459 0.2802,0.26459 0.0642,0 0.11668,-0.11907 0.11668,-0.26459 z m 19.65575,-0.5289 c 0.0761,-0.2909 0.0304,-0.59558 -0.10143,-0.67707 -0.13186,-0.0815 -0.23974,0.15651 -0.23974,0.5289 0,0.81069 0.15079,0.87618 0.34117,0.14817 z m 0.71716,0.26432 c 0,-0.14552 -0.0525,-0.26458 -0.11668,-0.26458 -0.0642,0 -0.19026,0.11906 -0.28019,0.26458 -0.0899,0.14552 -0.0374,0.26458 0.11667,0.26458 0.15411,0 0.2802,-0.11906 0.2802,-0.26458 z m -5.55625,-0.0999 c 0,-0.0549 -0.20836,-0.2633 -0.46302,-0.46302 -0.41964,-0.3291 -0.429,-0.31975 -0.0999,0.0999 0.34564,0.44073 0.56291,0.58089 0.56291,0.36312 z m -0.4745,-1.46219 c -0.10798,-0.2814 -0.18336,-0.30077 -0.26124,-0.0671 -0.15443,0.46329 -0.85865,-0.1455 -0.83087,-0.71827 0.0134,-0.27674 0.0688,-0.31185 0.15489,-0.0983 0.0737,0.18281 0.24381,0.26452 0.37802,0.18157 0.1342,-0.083 0.0569,-0.33797 -0.1719,-0.56672 -0.64059,-0.64059 -0.9442,-0.0708 -0.47662,0.8944 0.41247,0.85147 1.52288,1.19571 1.20772,0.37441 z m 1.02307,-0.28999 c 0.13485,0 0.24518,-0.13365 0.24518,-0.29698 0,-0.20519 -0.12267,-0.19518 -0.39687,0.0324 -0.21829,0.18116 -0.38307,0.52316 -0.36619,0.76 0.0259,0.36332 0.0496,0.35825 0.15169,-0.0324 0.0666,-0.25467 0.23134,-0.46302 0.36619,-0.46302 z m 1.03893,0.41249 c 0,-0.2097 -0.11186,-0.4504 -0.24857,-0.53489 -0.13671,-0.0845 -0.23044,0.0871 -0.20828,0.38126 0.0455,0.60419 0.45685,0.74251 0.45685,0.15363 z m 3.70417,-0.77697 c 0,-0.0549 -0.18132,-0.25038 -0.40293,-0.4343 -0.33691,-0.27961 -0.37563,-0.26324 -0.23628,0.0999 0.14232,0.37088 0.63921,0.63083 0.63921,0.33441 z m -8.67773,-1.14948 c -0.1181,-0.61781 -0.16282,-0.64852 -0.31454,-0.216 -0.12628,0.35999 -0.23427,0.41132 -0.37758,0.17945 -0.11039,-0.17862 -0.0556,-0.4996 0.12176,-0.71331 0.2576,-0.31038 0.40854,-0.32393 0.75038,-0.0673 0.35815,0.26886 0.37443,0.2612 0.0999,-0.047 -0.53767,-0.60348 -1.07199,-0.52357 -1.25033,0.18701 -0.0919,0.36632 -0.13161,0.69396 -0.0882,0.72809 0.0776,0.0609 1.10906,0.64544 1.16681,0.66121 0.0162,0.004 -0.0325,-0.31605 -0.10822,-0.71216 z m 4.01734,0.30656 c 0.0873,-0.2275 0.27864,-0.33954 0.42519,-0.24897 0.31471,0.19451 0.31532,-0.0631 0.002,-0.79259 -0.19904,-0.4632 -0.2297,-0.47041 -0.24598,-0.0578 -0.0102,0.25922 -0.19719,0.53985 -0.41547,0.62362 -0.21829,0.0838 -0.39688,0.31815 -0.39688,0.52086 0,0.49898 0.43441,0.46796 0.63128,-0.0451 z m -6.18753,-0.60059 c 0,-0.12127 -0.17336,-0.22049 -0.38524,-0.22049 -0.21188,0 -0.32391,0.0992 -0.24896,0.22049 0.0749,0.12127 0.2483,0.22049 0.38523,0.22049 0.13694,0 0.24897,-0.0992 0.24897,-0.22049 z m -1.45254,-0.57758 c 0.0914,-0.14789 0.28937,-0.19277 0.43993,-0.0997 0.15056,0.0931 0.0691,-0.14313 -0.181,-0.52485 -0.56326,-0.85965 -0.61749,-0.8635 -0.45865,-0.0326 0.0942,0.49269 0.0133,0.66146 -0.31688,0.66146 -0.24384,0 -0.38503,-0.0944 -0.31376,-0.20966 0.0713,-0.11532 -0.1093,-0.22766 -0.40126,-0.24965 -0.43398,-0.0327 -0.473,0.0297 -0.21386,0.34195 0.36612,0.44114 1.20229,0.50653 1.44548,0.11304 z m 7.30839,-0.52485 c 0.14344,0 0.18665,-0.11998 0.096,-0.26661 -0.10205,-0.16512 -0.31756,-0.11383 -0.56611,0.13472 -0.22074,0.22073 -0.5292,0.32231 -0.68547,0.22573 -0.16984,-0.10497 -0.20712,-0.051 -0.0927,0.13418 0.1053,0.17038 0.30229,0.24128 0.43776,0.15756 0.13546,-0.0837 0.26011,0.004 0.27699,0.19412 0.0169,0.19049 0.0851,0.13798 0.15169,-0.11668 0.0666,-0.25466 0.23836,-0.46302 0.3818,-0.46302 z m -4.86509,0.0704 c 0.0595,-0.17865 -0.11389,-0.23802 -0.44351,-0.15182 -0.29771,0.0779 -0.47219,0.25336 -0.38773,0.39002 0.18901,0.30582 0.69857,0.1598 0.83124,-0.2382 z m 12.95327,0.29166 c -0.0919,-0.0919 -0.0519,-0.38233 0.0889,-0.64541 0.1468,-0.27429 0.15573,-0.54028 0.0209,-0.62358 -0.12928,-0.0799 -0.29115,0.1482 -0.35971,0.50689 -0.11714,0.61278 -0.0202,0.92918 0.28464,0.92918 0.0728,0 0.0571,-0.0752 -0.0348,-0.16708 z m -17.38361,-0.78727 c 0,-0.0572 -0.1786,-0.10399 -0.39688,-0.10399 -0.21828,0 -0.39687,0.11533 -0.39687,0.25628 0,0.14096 0.17859,0.18775 0.39687,0.10399 0.21828,-0.0838 0.39688,-0.19909 0.39688,-0.25628 z m 7.24578,-0.38842 c -0.40809,-0.2677 -0.79345,-0.43526 -0.85636,-0.37235 -0.18919,0.18919 1.13051,1.1482 1.37344,0.99806 0.12369,-0.0764 -0.109,-0.35801 -0.51708,-0.62571 z m -8.38715,0.0267 c -0.1227,-0.80398 -0.45339,-0.98127 -0.84116,-0.45096 -0.34002,0.465 -0.36112,0.46498 -0.63178,-4.2e-4 -0.15401,-0.26482 -0.28364,-0.3718 -0.28806,-0.23773 -0.0143,0.43437 0.85432,1.21146 1.35422,1.21146 0.33491,0 0.46166,-0.16276 0.40678,-0.52235 z m 2.28687,0.10329 c -0.0885,-0.23049 -0.23492,-0.31978 -0.3255,-0.19844 -0.0906,0.12134 -0.27246,0.30992 -0.40416,0.41906 -0.1317,0.10914 0.0148,0.19844 0.32551,0.19844 0.40677,0 0.51993,-0.11734 0.40415,-0.41906 z m 2.44848,-0.0918 c 0.26875,0.22304 0.37477,0.22702 0.37477,0.014 0,-0.16334 -0.11906,-0.31187 -0.26459,-0.33006 -0.14552,-0.0182 -0.41341,-0.0519 -0.59531,-0.075 -0.47356,-0.06 -0.75896,0.45384 -0.38291,0.68944 0.18786,0.11769 0.35268,0.0341 0.40502,-0.20551 0.0693,-0.31711 0.16882,-0.33708 0.46302,-0.0929 z m 1.69658,0.44467 c -6.1e-4,-0.0364 -0.29827,-0.65187 -0.66146,-1.36776 -0.36319,-0.71588 -0.66035,-1.51253 -0.66035,-1.77032 0,-0.25779 -0.11906,-0.5423 -0.26459,-0.63223 -0.14552,-0.0899 -0.26458,0.0151 -0.26458,0.23335 0,0.56546 -0.52004,0.81226 -0.88295,0.41903 -0.2406,-0.26071 -0.20674,-0.29787 0.15535,-0.17046 0.25466,0.0896 0.46302,0.0476 0.46302,-0.0934 0,-0.14095 -0.1786,-0.25628 -0.39688,-0.25628 -0.21828,0 -0.39687,-0.11533 -0.39687,-0.25628 0,-0.14095 0.17859,-0.18775 0.39687,-0.10398 0.21828,0.0838 0.39688,0.0928 0.39688,0.02 0,-0.0728 -0.18317,-0.20258 -0.40703,-0.28848 -0.60999,-0.23408 -0.9675,0.90059 -0.46379,1.47196 0.21642,0.24549 0.33015,0.54884 0.25274,0.67409 -0.0774,0.12526 -0.0404,0.3902 0.0824,0.58875 0.18354,0.29698 0.30232,0.2818 0.6697,-0.0856 0.24562,-0.24562 0.37685,-0.6283 0.29162,-0.8504 -0.0852,-0.2221 -0.0516,-0.33995 0.0747,-0.2619 0.12629,0.078 0.29241,0.38205 0.36917,0.67556 0.0768,0.29351 0.0316,0.46693 -0.10036,0.38538 -0.13195,-0.0815 -0.23991,0.0336 -0.23991,0.25592 0,0.26921 0.14788,0.34744 0.44281,0.23426 0.33547,-0.12873 0.40162,-0.0626 0.27289,0.27289 -0.11318,0.29493 -0.0349,0.44281 0.23426,0.44281 0.22231,0 0.33061,0.11906 0.24067,0.26458 -0.0899,0.14552 -0.0374,0.26459 0.11668,0.26459 0.15411,0 0.2797,-0.0298 0.27909,-0.0661 z m 4.69305,-0.43395 c -0.0213,-0.2826 -0.18162,-0.44486 -0.36865,-0.37309 -0.25886,0.0993 -0.26148,0.2061 -0.012,0.49003 0.41568,0.47314 0.42491,0.4703 0.38068,-0.11694 z m -1.28589,-0.18209 c 0.10222,0.0632 0.19782,-0.20397 0.21246,-0.59366 0.0146,-0.38969 -0.0284,-0.50017 -0.0956,-0.24551 -0.0672,0.25466 -0.22876,0.46302 -0.35904,0.46302 -0.13029,0 -0.17297,-0.16655 -0.0949,-0.37011 0.0781,-0.20356 0.0313,-0.43857 -0.10413,-0.52225 -0.22116,-0.13668 -0.23673,0.19177 -0.0674,1.42153 0.0387,0.28078 0.0939,0.29965 0.18866,0.0645 0.0737,-0.18281 0.21764,-0.28069 0.31986,-0.21752 z m 5.51232,-0.96838 c -0.0633,-0.32911 -0.11747,-0.12214 -0.1204,0.45994 -0.003,0.58208 0.0488,0.85136 0.11506,0.5984 0.0662,-0.25297 0.0686,-0.72922 0.005,-1.05834 z m 4.70119,-2.32866 c -0.071,-0.1149 0.0205,-0.27861 0.20326,-0.3638 0.26679,-0.12432 0.26679,-0.18546 0,-0.30978 -0.1828,-0.0852 -0.25301,-0.29355 -0.15601,-0.46302 0.097,-0.16947 0.0724,-0.21336 -0.0546,-0.0975 -0.35189,0.32086 -1.16353,2.59056 -0.85909,2.40241 0.1465,-0.0905 0.0623,0.14677 -0.18704,0.52737 -0.26536,0.40498 -0.37793,0.88488 -0.27141,1.15705 0.13686,0.34971 0.33976,0.0795 0.81801,-1.08936 0.34981,-0.85494 0.57791,-1.64844 0.5069,-1.76334 z m -16.66227,1.99193 c 0,-0.49093 -0.1403,-0.65854 -0.55122,-0.65854 -0.84071,0 -0.98966,0.33103 -0.31698,0.70448 0.56195,0.31198 0.56709,0.33603 0.0745,0.34853 -0.41404,0.0105 -0.44804,0.0648 -0.15629,0.24948 0.5618,0.35565 0.95004,0.0925 0.95004,-0.64395 z m 5.27934,-0.0715 c 0.40708,-0.56653 0.42113,-0.64217 0.0662,-0.35616 -0.36496,0.29404 -0.52742,0.29945 -0.85397,0.0284 -0.2218,-0.18408 -0.47977,-0.25819 -0.57327,-0.16469 -0.0935,0.0935 -0.0241,0.17 0.15431,0.17 0.17836,0 0.25071,0.11906 0.16077,0.26458 -0.0899,0.14552 -0.0304,0.26458 0.13229,0.26458 0.1627,0 0.22223,0.11907 0.13229,0.26459 -0.37066,0.59974 0.30437,0.19259 0.78143,-0.47134 z m 6.23003,0.47134 c 0,-0.14552 -0.12609,-0.26459 -0.2802,-0.26459 -0.15411,0 -0.20661,0.11907 -0.11667,0.26459 0.0899,0.14552 0.21602,0.26458 0.28019,0.26458 0.0642,0 0.11668,-0.11906 0.11668,-0.26458 z m -4.02942,-0.66146 c -0.0301,-0.3638 -0.16058,-0.66146 -0.28993,-0.66146 -0.12935,0 -0.16291,0.18833 -0.0746,0.41851 0.0883,0.23019 0.1606,0.52784 0.1606,0.66146 0,0.13362 0.0582,0.24295 0.12933,0.24295 0.0711,0 0.10469,-0.29766 0.0746,-0.66146 z m -0.99773,-0.6615 c -0.18561,-0.11472 -0.24882,-0.42634 -0.14978,-0.73841 0.0943,-0.29696 0.0475,-0.61651 -0.10397,-0.71011 -0.16244,-0.10039 -0.27535,0.0986 -0.27535,0.48526 0,0.91029 0.26944,1.52069 0.58514,1.32558 0.16757,-0.10357 0.14696,-0.23686 -0.056,-0.36232 z m 5.29173,-0.11581 c 0,-0.48191 -0.1338,-0.63493 -0.52916,-0.60515 -0.34449,0.0259 -0.52776,0.22798 -0.52512,0.57887 0.003,0.43565 0.0513,0.46432 0.25035,0.14954 0.21099,-0.33362 0.27136,-0.32414 0.42113,0.0661 0.24421,0.6364 0.3828,0.56782 0.3828,-0.18941 z m -15.21354,0.11585 c 0.0899,-0.14552 0.0445,-0.26458 -0.10106,-0.26458 -0.14552,0 -0.33817,0.11906 -0.4281,0.26458 -0.0899,0.14552 -0.0445,0.26458 0.10106,0.26458 0.14552,0 0.33817,-0.11906 0.4281,-0.26458 z m -0.66551,-0.84345 c 0.002,-0.1001 -0.23407,-0.16406 -0.52511,-0.14214 -0.60683,0.0457 -0.66188,0.21788 -0.21314,0.66661 0.24498,0.24498 0.36303,0.24201 0.52511,-0.0132 0.115,-0.18109 0.21091,-0.41116 0.21314,-0.51125 z m 3.08337,0.44657 c -0.09,-0.23463 -0.003,-0.39687 0.21287,-0.39687 0.38284,0 0.40818,-0.43197 0.0582,-0.99219 -0.11364,-0.1819 -0.1172,-0.47956 -0.008,-0.66146 0.12817,-0.21334 0.0354,-0.19815 -0.26149,0.0428 -0.36252,0.29425 -0.38734,0.4206 -0.11694,0.59532 0.27916,0.18037 0.27621,0.26503 -0.0158,0.45334 -0.33375,0.21524 -0.21547,1.35595 0.1406,1.35595 0.0785,0 0.0742,-0.17859 -0.01,-0.39688 z m 5.65193,0.1323 c 0,-0.14552 -0.0525,-0.26459 -0.11667,-0.26459 -0.0642,0 -0.19026,0.11907 -0.2802,0.26459 -0.0899,0.14552 -0.0374,0.26458 0.11668,0.26458 0.15411,0 0.28019,-0.11906 0.28019,-0.26458 z m 0.79375,0 c 0,-0.14552 -0.0525,-0.26459 -0.11667,-0.26459 -0.0642,0 -0.19026,0.11907 -0.2802,0.26459 -0.0899,0.14552 -0.0374,0.26458 0.11668,0.26458 0.15411,0 0.28019,-0.11906 0.28019,-0.26458 z m -1.22664,-1.05026 c -0.14562,-0.14561 -0.61544,0.53667 -0.62139,0.90239 -0.002,0.13695 0.16481,0.0181 0.37119,-0.26417 0.20639,-0.28225 0.31898,-0.56944 0.2502,-0.63822 z m -5.91711,0.69196 c 0,-0.0495 -0.23068,-0.35589 -0.51264,-0.68098 -0.62933,-0.72563 -0.4597,-1.54069 0.21281,-1.02256 0.25682,0.19787 0.21771,0.0823 -0.0964,-0.28492 -0.63349,-0.74052 -1.985,-1.48921 -1.985,-1.09962 0,0.14926 0.1786,0.27138 0.39688,0.27138 0.47313,0 0.53185,0.44007 0.0789,0.59107 -0.4952,0.16507 -1.33524,-0.65017 -0.93315,-0.9056 0.19139,-0.12158 -0.0558,-0.20654 -0.60092,-0.20654 -0.50932,0 -0.80698,0.0875 -0.66146,0.19439 0.14552,0.10691 0.26459,0.43251 0.26459,0.72355 0,0.40159 0.16227,0.51896 0.67309,0.48682 0.50181,-0.0316 0.68335,0.0939 0.71341,0.49293 0.0574,0.76247 0.28278,0.89887 0.87449,0.52935 0.31054,-0.19394 0.51713,-0.21637 0.51713,-0.0561 0,0.52052 -0.1379,0.65408 -0.59531,0.57659 -0.25466,-0.0432 -0.46302,0.0286 -0.46302,0.15939 0,0.13082 0.47625,0.25651 1.05833,0.27931 0.58208,0.0228 1.05833,0.001 1.05833,-0.0484 z m -2.11666,-1.49379 c 0,-0.58455 0.19701,-0.65022 0.79375,-0.26458 0.3365,0.21746 0.32406,0.2571 -0.0818,0.26053 -0.26325,0.002 -0.40505,0.12312 -0.31512,0.26864 0.0899,0.14552 0.0374,0.26458 -0.11667,0.26458 -0.15411,0 -0.2802,-0.23813 -0.2802,-0.52917 z m -1.5875,-0.79375 c 0,-0.14552 0.17859,-0.26458 0.39687,-0.26458 0.21828,0 0.39688,0.11906 0.39688,0.26458 0,0.14552 -0.1786,0.26459 -0.39688,0.26459 -0.21828,0 -0.39687,-0.11907 -0.39687,-0.26459 z m -0.1986,1.25677 c -0.14778,-0.5902 -0.14417,-0.59099 0.42164,-0.0913 0.47158,0.41648 0.57071,0.43333 0.57071,0.097 0,-0.22386 -0.24696,-0.4716 -0.5488,-0.55053 -0.30185,-0.0789 -0.61339,-0.39048 -0.69232,-0.69232 -0.0789,-0.30184 -0.25572,-0.5488 -0.39286,-0.5488 -0.13713,0 -0.16369,-0.14883 -0.059,-0.33073 0.10468,-0.1819 0.0884,-0.23799 -0.0361,-0.12464 -0.42373,0.38562 -0.35914,1.10031 0.17798,1.9694 0.63071,1.0205 0.76227,1.08451 0.5588,0.2719 z m 10.91235,0.33376 c 0.0927,-0.14998 -0.0135,-0.19434 -0.24897,-0.10398 -0.45837,0.17589 -0.54223,0.36554 -0.16165,0.36554 0.13694,0 0.32171,-0.1177 0.41062,-0.26156 z m 6.26064,-0.66768 c -0.16792,-0.62789 -0.23917,-0.68396 -0.38527,-0.30321 -0.0986,0.25692 -0.0317,0.62732 0.14862,0.8231 0.43992,0.47761 0.47992,0.38973 0.23665,-0.51989 z m -4.77073,0.0649 c -0.2613,-0.25936 -0.2917,-0.22897 -0.14811,0.14811 0.0994,0.26094 0.2473,0.40778 0.32877,0.32632 0.0815,-0.0815 1.6e-4,-0.29495 -0.18066,-0.47443 z m -6.64741,-0.0617 c 0,-0.21828 -0.11204,-0.39687 -0.24897,-0.39687 -0.33363,0 -0.57258,0.41317 -0.3612,0.62455 0.29797,0.29797 0.61017,0.18148 0.61017,-0.22768 z m 1.05833,-0.0283 c 0,-0.0572 -0.17859,-0.10399 -0.39687,-0.10399 -0.21829,0 -0.39688,0.11533 -0.39688,0.25628 0,0.14096 0.17859,0.18775 0.39688,0.10399 0.21828,-0.0838 0.39687,-0.19909 0.39687,-0.25628 z m 2.16579,-0.71736 c 0.0209,-0.55659 0.14519,-0.88526 0.29881,-0.79032 0.14779,0.0913 0.18029,0.0287 0.0742,-0.14293 -0.38115,-0.6167 -0.62022,-0.27516 -0.64422,0.92031 -0.0285,1.42186 0.21779,1.43361 0.2712,0.0129 z m 7.73028,-1.32707 c -0.0729,-1.40651 -1.21866,-6.21183 -1.65069,-6.9231 -0.0884,-0.14552 -0.182,-0.38364 -0.20802,-0.52917 -0.0849,-0.4748 -0.61307,-1.71979 -0.72959,-1.71979 -0.26496,0 0.193,2.27353 0.50937,2.52877 0.19075,0.1539 0.25699,0.42517 0.14719,0.60282 -0.25437,0.41158 -0.82058,-0.76452 -0.82058,-1.70444 0,-0.36555 -0.10846,-0.5976 -0.24102,-0.51567 -0.13256,0.0819 -0.21563,0.29731 -0.1846,0.47864 0.11462,0.66982 1.26686,3.90155 1.39106,3.90155 0.0707,0 0.053,-0.23813 -0.0394,-0.52917 -0.15744,-0.49606 0.23137,-0.76463 0.4788,-0.33073 0.28517,0.50008 0.4494,2.18282 0.21305,2.18282 -0.14199,0 -0.30977,-0.26789 -0.37283,-0.59532 l -0.11466,-0.59531 -0.036,0.60362 c -0.0199,0.33265 0.15208,0.6758 0.38302,0.76442 0.30447,0.11684 0.33223,0.21448 0.10152,0.35707 -0.2461,0.15209 -0.2466,0.30753 -0.002,0.69078 0.26961,0.42282 0.29446,0.42739 0.17137,0.0315 -0.0792,-0.25466 -0.0286,-0.46302 0.11232,-0.46302 0.14095,0 0.25628,0.0498 0.25628,0.11065 0,0.0609 0.0723,0.29898 0.1606,0.52916 0.10538,0.27464 0.0144,0.41852 -0.26459,0.41852 -0.23385,0 -0.42518,0.12325 -0.42518,0.27389 0,0.1857 0.17039,0.1827 0.52917,-0.009 0.35877,-0.19201 0.52916,-0.195 0.52916,-0.009 0,0.15064 -0.1389,0.2739 -0.30868,0.2739 -0.16977,0 -0.23034,0.0783 -0.13458,0.17409 0.0957,0.0958 0.0263,0.35673 -0.15434,0.57996 -0.26514,0.32764 -0.26145,0.36556 0.0192,0.19673 0.27214,-0.16372 0.31496,0.0119 0.19724,0.80911 l -0.15036,1.01823 0.34074,-0.8821 c 0.1874,-0.48516 0.32119,-1.25907 0.2973,-1.7198 z m 6.37581,1.67586 c 0.0899,-0.14552 0.0374,-0.26458 -0.11668,-0.26458 -0.15411,0 -0.2802,0.11906 -0.2802,0.26458 0,0.14552 0.0525,0.26458 0.11668,0.26458 0.0642,0 0.19026,-0.11906 0.2802,-0.26458 z m -16.67963,-0.28219 c -0.0959,-0.1552 -0.24212,-0.21447 -0.32488,-0.13171 -0.0828,0.0828 -0.36849,-0.0468 -0.63496,-0.28799 -0.59106,-0.5349 -0.6489,-0.29407 -0.0687,0.28612 0.46495,0.46495 1.30041,0.57346 1.02856,0.13358 z m 4.4678,-0.1261 c -0.0862,-0.22455 -0.21342,-0.35154 -0.28277,-0.28218 -0.0694,0.0693 -0.0476,0.25308 0.0483,0.40828 0.26089,0.42214 0.41338,0.34013 0.23447,-0.1261 z m 0.43256,-0.78873 c -0.18407,-0.2218 -0.38917,-0.34878 -0.45576,-0.28219 -0.18349,0.18349 0.18932,0.68546 0.50908,0.68546 0.17544,0 0.15537,-0.15181 -0.0533,-0.40327 z m -0.83619,-0.4359 c -0.1196,-0.81285 -0.61371,-0.88279 -0.61371,-0.0869 0,0.37137 0.15311,0.66146 0.34913,0.66146 0.2079,0 0.31493,-0.23244 0.26458,-0.57459 z m 12.82677,0.13431 c -0.11139,-0.2903 -0.0664,-0.37691 0.13206,-0.25424 0.19078,0.1179 0.64448,-0.496 1.23892,-1.67639 0.70819,-1.40628 0.84137,-1.86243 0.5438,-1.86243 -0.47843,0 -0.95763,0.70466 -1.84429,2.71198 -0.53032,1.20058 -0.59078,1.52136 -0.28677,1.52136 0.25061,0 0.32619,-0.15387 0.21628,-0.44028 z m -18.20298,-0.0889 c -0.0899,-0.14552 -0.34212,-0.26458 -0.5604,-0.26458 -0.21828,0 -0.32329,0.11906 -0.23335,0.26458 0.0899,0.14552 0.34211,0.26458 0.5604,0.26458 0.21828,0 0.32329,-0.11906 0.23335,-0.26458 z m 4.29311,-0.7906 c -0.0235,-0.31213 -0.13655,-0.42909 -0.278,-0.28764 -0.13111,0.13111 -0.15838,0.36782 -0.0606,0.52602 0.26635,0.43095 0.38285,0.34893 0.33861,-0.23838 z m 16.35397,-3.64546 c -0.0747,-0.19466 -0.0241,-0.28487 0.11247,-0.20048 0.13655,0.0844 0.3775,-0.088 0.53544,-0.38313 0.45557,-0.85123 -0.3832,-0.6854 -1.014,0.20047 -0.51663,0.72555 -0.51681,0.73706 -0.0115,0.73706 0.31993,0 0.46219,-0.13336 0.37755,-0.35392 z"
         id="path8038" />
      <path
         style="fill:#637c36;stroke-width:1.02732"
         d="m 201.65395,197.66144 c 0.15091,-2.45598 -0.0114,-3.14948 -0.99065,-4.23342 -1.05378,-1.16641 -2.54857,-1.76427 -3.69296,-1.47705 -0.39998,0.10039 -1.54854,0.97543 -2.55235,1.94452 -1.4369,1.38721 -1.87526,1.68085 -2.06088,1.38051 -0.12968,-0.20981 -0.15276,-0.44416 -0.0513,-0.52076 0.10145,-0.0766 0.18447,-0.42701 0.18447,-0.77868 0,-0.35168 0.14882,-0.68902 0.33073,-0.74966 0.1819,-0.0606 0.33072,0.0684 0.33072,0.28664 0,0.21828 -0.14882,0.45692 -0.33072,0.53032 -0.25436,0.10264 -0.25075,0.13828 0.0156,0.15434 0.20185,0.0122 0.26567,0.15887 0.15296,0.35162 -0.10637,0.1819 0.068,0.10137 0.38751,-0.17896 0.3962,-0.34763 0.49479,-0.59579 0.31006,-0.78052 -0.42437,-0.42437 -0.31766,-0.90367 0.19219,-0.8632 0.25705,0.0204 0.43068,-0.11913 0.39032,-0.31365 -0.04,-0.19272 0.0493,-0.27499 0.19844,-0.18282 0.14912,0.0922 0.27113,0.0514 0.27113,-0.0906 0,-0.44366 -0.64736,-0.50012 -0.95451,-0.0832 -0.22911,0.31095 -0.28684,0.14282 -0.26458,-0.77053 0.031,-1.27042 0.3171,-1.68507 0.83372,-1.20816 0.36261,0.33473 0.2303,0.80026 -0.15904,0.55963 -0.13557,-0.0838 -0.16559,0.0607 -0.0678,0.32641 0.0965,0.26222 0.33326,0.57198 0.52614,0.68835 0.39327,0.23728 0.47995,0.97904 0.1144,0.97904 -0.12995,0 -0.31463,0.20836 -0.41041,0.46302 -0.13893,0.36943 -0.0577,0.34789 0.40165,-0.10657 0.31882,-0.3154 0.5781,-0.90577 0.58099,-1.32291 0.003,-0.41433 0.0577,-0.60376 0.12182,-0.42095 0.0641,0.18281 0.24388,0.25371 0.39946,0.15756 0.18014,-0.11134 0.20421,-0.0476 0.0663,0.1756 -0.16438,0.26596 -0.0945,0.2994 0.28984,0.13874 0.73576,-0.30754 2.17886,-0.1809 3.04552,0.26726 0.41372,0.21395 0.89923,0.35803 1.07891,0.32019 0.17968,-0.0379 0.33498,0.10978 0.34511,0.32806 0.0101,0.21828 0.22616,0.37996 0.48008,0.35929 0.25393,-0.0207 0.44531,0.0984 0.42529,0.26458 -0.0713,0.59234 0.0298,0.96363 0.26259,0.96363 0.40044,0 0.59521,-0.87149 0.24337,-1.08894 -0.69981,-0.4325 0.0598,-0.53221 0.8919,-0.11708 0.48146,0.24018 0.72984,0.29116 0.55196,0.11328 -0.38494,-0.38494 0.0237,-1.02392 0.65483,-1.02392 0.33389,0 0.34109,0.0672 0.0453,0.42356 -0.49285,0.59385 -0.53188,1.171 -0.0906,1.34032 0.20589,0.079 0.28756,0.28 0.18148,0.44665 -0.19105,0.30016 -0.21856,0.38909 -0.31878,1.03061 -0.0284,0.1819 -0.154,0.0926 -0.27906,-0.19844 -0.21697,-0.50492 -0.22825,-0.50188 -0.24599,0.0661 -0.0238,0.76275 0.40081,0.76562 0.80763,0.005 0.17363,-0.32442 0.49673,-0.7709 0.71802,-0.99219 0.36007,-0.36006 0.35568,-0.41132 -0.0418,-0.48788 -0.24427,-0.047 -0.44412,-0.20007 -0.44412,-0.34004 0,-0.15336 0.21027,-0.14195 0.52916,0.0287 0.29105,0.15576 0.52917,0.18294 0.52917,0.0604 0,-0.12255 0.32742,-0.36287 0.7276,-0.53403 0.69474,-0.29715 0.69773,-0.30603 0.0661,-0.19653 -0.57747,0.10012 -0.6057,0.0729 -0.22236,-0.21456 0.40702,-0.30519 0.40357,-0.37635 -0.0471,-0.97388 -0.48204,-0.63904 -0.47819,-0.65585 0.44428,-1.93985 1.14146,-1.58883 1.55364,-2.71608 1.80586,-4.93878 0.25351,-2.23409 0.64815,-3.13988 2.01313,-4.62072 1.49309,-1.61981 2.22495,-1.57738 2.2216,0.1288 -0.001,0.65484 -0.099,1.54781 -0.21716,1.98437 -0.28661,1.05902 0.10816,0.66845 1.67471,-1.65681 1.35307,-2.00841 2.29619,-2.661 4.16565,-2.88241 1.68942,-0.20009 2.44893,0.1876 2.44893,1.25003 0,1.11954 -1.15698,3.26798 -2.18013,4.04838 -1.40718,1.07331 -2.93634,1.47659 -2.08736,0.5505 0.12673,-0.13825 0.30876,-0.58342 0.4045,-0.98927 0.15579,-0.66038 0.0748,-0.77938 -0.77026,-1.13249 -0.51938,-0.21701 -0.88131,-0.49654 -0.80429,-0.62117 0.077,-0.12462 -0.0579,-0.38891 -0.2998,-0.5873 -0.39025,-0.32004 -0.42281,-0.2946 -0.2888,0.22556 0.0831,0.32245 0.0739,0.56057 -0.0203,0.52916 -0.18842,-0.0628 -0.30359,0.17874 -0.30359,0.63676 0,0.19345 0.15563,0.17039 0.44641,-0.0661 0.39443,-0.32083 0.4245,-0.30474 0.25821,0.13816 -0.11667,0.31074 -0.0324,0.67346 0.22172,0.95425 0.37113,0.41009 0.36692,0.48786 -0.0444,0.82164 -0.30028,0.24365 -0.38696,0.25651 -0.25565,0.0379 0.12751,-0.21223 0.0393,-0.33073 -0.24619,-0.33073 -0.36545,0 -0.38608,0.0709 -0.11551,0.39688 0.43031,0.51848 1.05834,0.50922 1.05834,-0.0156 0,-0.22687 0.11938,-0.3387 0.2653,-0.24852 0.50755,0.31368 -0.20498,1.15417 -0.85715,1.01107 -0.44551,-0.0977 -0.50442,-0.0647 -0.23013,0.12906 0.20693,0.14619 1.2101,0.19988 2.28684,0.12238 1.79627,-0.12928 1.9298,-0.10152 2.10061,0.43667 0.19145,0.60319 -0.14967,1.19559 -0.92844,1.61238 -0.24706,0.13222 -1.56654,0.3723 -2.93218,0.53352 -2.92666,0.3455 -4.74128,0.83189 -5.73317,1.53671 -0.79395,0.56417 -1.38002,0.2795 -1.38002,-0.67031 0,-0.23654 -0.77421,0.78327 -0.78533,1.03446 -0.005,0.10457 0.17169,0.12102 0.39183,0.0365 0.22013,-0.0845 0.55412,-0.0259 0.7422,0.13022 0.24614,0.20427 0.7086,0.17303 1.65028,-0.11147 0.83063,-0.25095 2.41449,-0.39578 4.33799,-0.39667 2.85103,-0.001 3.12735,0.0467 4.68629,0.81415 1.89011,0.9305 2.73508,1.84481 2.73508,2.95953 0,1.63699 -3.48812,2.26351 -6.22812,1.11866 -1.22421,-0.5115 -1.24562,-0.4955 -0.64815,0.48442 0.56362,0.92441 0.695,2.17959 0.25651,2.4506 -0.53597,0.33125 -2.03235,-0.43209 -3.18428,-1.62438 -2.40414,-2.48837 -5.04619,-2.63335 -6.9415,-0.38091 -0.72208,0.85814 -1.64446,3.29142 -1.39852,3.68936 0.0829,0.13417 -0.38949,0.28692 -1.0498,0.33944 l -1.20058,0.0955 z m 1.21935,-0.0656 c 0.0339,-0.44963 -0.0124,-0.49975 -0.19247,-0.20841 -0.16017,0.25917 -0.22993,6.3e-4 -0.21509,-0.79708 0.0121,-0.64937 0.0744,-1.03184 0.13854,-0.84993 0.0641,0.1819 0.22988,0.33073 0.36839,0.33073 0.15828,0 0.15938,-0.17278 0.003,-0.46504 -0.18038,-0.33704 -0.11051,-0.63593 0.25385,-1.0859 0.52206,-0.64471 0.46405,-1.0949 -0.14107,-1.0949 -0.49402,0 -1.26075,1.25689 -1.09683,1.798 0.0751,0.24803 0.16322,1.01651 0.19574,1.70773 0.0593,1.26045 0.60152,1.78594 0.68597,0.6648 z m -0.72573,-2.71532 c 0,-0.21828 0.11532,-0.39687 0.25628,-0.39687 0.14095,0 0.18774,0.17859 0.10398,0.39687 -0.0838,0.21828 -0.19909,0.39688 -0.25628,0.39688 -0.0572,0 -0.10398,-0.1786 -0.10398,-0.39688 z m 1.23907,2.72852 c -0.0845,-0.21107 -0.14716,-0.14838 -0.15985,0.15985 -0.0115,0.27891 0.051,0.43518 0.13896,0.34726 0.0879,-0.0879 0.0973,-0.31612 0.0209,-0.50711 z m 11.99009,-1.79417 c 0,-0.14096 -0.19244,-0.18244 -0.42765,-0.0922 -0.36737,0.14098 -0.38337,0.0814 -0.11349,-0.42292 0.25445,-0.47544 0.23295,-0.71099 -0.11313,-1.23917 -0.44053,-0.67234 -0.93323,-0.64203 -0.93323,0.0574 0,0.21828 -0.10831,0.32993 -0.2407,0.24811 -0.33077,-0.20443 -1.08221,0.11117 -1.08221,0.45452 0,0.15421 0.0753,0.20504 0.16741,0.11296 0.0921,-0.0921 0.39838,0.1262 0.68067,0.48507 0.51135,0.65009 2.06233,0.94805 2.06233,0.39621 z m -1.98437,-0.53747 c -0.0899,-0.14553 -0.0672,-0.26641 0.0505,-0.26864 0.11773,-0.002 0.0355,-0.13035 -0.18282,-0.28473 -0.35278,-0.24948 -0.35278,-0.26757 0,-0.16276 0.21828,0.0649 0.60523,-0.0636 0.85989,-0.28545 0.42224,-0.36783 0.46302,-0.35387 0.46302,0.15851 0,0.39074 -0.12088,0.51549 -0.39687,0.40958 -0.21828,-0.0838 -0.39688,-0.0304 -0.39688,0.11855 0,0.14896 0.14883,0.33089 0.33073,0.40429 0.20364,0.0822 0.1588,0.14148 -0.11667,0.15434 -0.24608,0.0115 -0.52099,-0.0982 -0.61093,-0.24369 z m -1.68835,-1.65365 c -0.12103,-0.32742 -0.16769,-0.74414 -0.1037,-0.92604 0.064,-0.1819 -0.0142,-0.33073 -0.17383,-0.33073 -0.19331,0 -0.16379,-0.30249 0.0884,-0.90611 0.41564,-0.99477 0.183,-1.28777 -0.75664,-0.95296 -0.51352,0.18298 -0.51352,0.18664 0,0.48451 0.58425,0.33889 0.25785,0.38436 -0.53515,0.0745 -0.57234,-0.2236 -1.30943,0.29939 -1.13968,0.80865 0.0617,0.18517 0.28913,0.10929 0.60177,-0.2008 0.48816,-0.48418 0.49718,-0.48428 0.31498,-0.004 -0.15368,0.40552 -0.0885,0.46902 0.36065,0.35155 0.35144,-0.0919 0.50882,-0.0321 0.43847,0.16655 -0.0603,0.17045 -0.33504,0.29132 -0.61042,0.26859 -0.41619,-0.0343 -0.39071,0.0326 0.15101,0.39688 0.35843,0.241 0.83137,0.64655 1.05098,0.90121 0.5237,0.60727 0.57802,0.58432 0.31314,-0.13229 z m 0.81081,0.009 c -0.43691,-0.43691 -0.39074,-0.74962 0.0838,-0.56752 0.21828,0.0838 0.40627,0.34791 0.41776,0.58701 0.0161,0.3353 0.0547,0.34923 0.1687,0.0609 0.0813,-0.2056 -0.0769,-0.54239 -0.35162,-0.74843 -0.47179,-0.35389 -0.46282,-0.36946 0.16203,-0.28137 0.36381,0.0513 0.63312,0.23496 0.59849,0.40817 -0.0346,0.17321 0.10499,0.25048 0.31027,0.1717 0.42957,-0.16484 0.77876,-0.89606 0.4279,-0.89606 -0.12882,0 -0.29154,0.14883 -0.3616,0.33073 -0.0701,0.1819 -0.11417,0.0628 -0.098,-0.26455 0.0219,-0.44493 0.14834,-0.5575 0.50054,-0.44572 0.34851,0.11062 0.42981,0.0417 0.31226,-0.26462 -0.19099,-0.49773 -0.91368,-0.54003 -1.4257,-0.0834 -0.31552,0.28137 -0.31859,0.26162 -0.0205,-0.13229 0.47176,-0.62345 1.52963,-0.59912 1.73243,0.0399 0.0878,0.27657 0.48276,0.58891 0.87773,0.69407 0.39496,0.10517 0.56929,0.24599 0.38739,0.31294 -0.54541,0.20073 -0.37569,0.60279 0.37492,0.88817 0.52632,0.20011 0.76063,0.18164 0.92199,-0.0727 0.16777,-0.26443 0.21725,-0.26674 0.22039,-0.0102 0.002,0.1819 0.18265,0.33073 0.40093,0.33073 0.21828,0 0.39687,-0.13365 0.39687,-0.29698 0,-0.2031 0.12749,-0.19118 0.40327,0.0377 0.2218,0.18407 0.47977,0.25818 0.57327,0.16469 0.0935,-0.0935 0.0311,-0.17 -0.13869,-0.17 -0.16977,0 -0.30868,-0.11532 -0.30868,-0.25628 0,-0.14095 0.18464,-0.18542 0.41031,-0.0988 0.33369,0.12804 0.37589,0.0203 0.226,-0.57694 -0.14734,-0.58706 -0.11023,-0.68974 0.185,-0.51184 0.30225,0.18213 0.30967,0.14884 0.0409,-0.18332 -0.18064,-0.22322 -0.25515,-0.47914 -0.16559,-0.5687 0.0896,-0.0896 0.38222,0.1 0.65036,0.42122 0.26813,0.32123 0.49148,0.45368 0.49632,0.29433 0.0134,-0.44221 -0.97893,-1.24035 -1.29744,-1.04349 -0.15469,0.0956 -0.28126,0.3025 -0.28126,0.45977 0,0.15727 -0.20836,0.45762 -0.46302,0.66744 -0.43817,0.36103 -0.43699,0.37323 0.0221,0.22743 0.30514,-0.0969 0.4467,-0.0388 0.38156,0.15664 -0.057,0.1709 -0.4509,0.35724 -0.87541,0.41409 -0.42451,0.0568 -0.90495,0.21383 -1.06764,0.34885 -0.41296,0.34273 -0.95522,-0.92538 -0.74827,-1.74991 0.094,-0.37469 0.0467,-0.6463 -0.11266,-0.6463 -0.15117,0 -0.32629,0.20836 -0.38914,0.46302 -0.0773,0.31315 -0.0942,0.29174 -0.0524,-0.0661 0.034,-0.29104 0.1527,-0.76729 0.26376,-1.05833 l 0.20191,-0.52917 -0.42406,0.52917 c -0.23323,0.29104 -0.43621,0.82682 -0.45107,1.19063 -0.0246,0.60215 -0.0461,0.61401 -0.24029,0.13229 -0.1215,-0.30144 -0.0996,-0.6715 0.051,-0.8599 0.17989,-0.22512 0.16945,-0.33073 -0.0327,-0.33073 -0.16334,0 -0.29698,-0.13364 -0.29698,-0.29698 0,-0.19345 0.15563,-0.17039 0.44641,0.0662 0.38822,0.31579 0.42509,0.30614 0.28282,-0.074 -0.20968,-0.56027 0.0534,-0.82752 0.4723,-0.47984 0.22964,0.19059 0.37142,0.14593 0.48618,-0.15315 0.14025,-0.36548 -0.0955,-0.41483 -1.75503,-0.36735 -1.05438,0.0302 -2.24448,0.10751 -2.64466,0.17188 -0.76281,0.1227 -1.01489,0.51596 -0.33073,0.51596 0.21828,0 0.39688,-0.10624 0.39688,-0.2361 0,-0.34967 0.48624,0.0143 0.79845,0.59766 0.22708,0.42431 0.19781,0.47996 -0.17681,0.33621 -0.35193,-0.13506 -0.40911,-0.0685 -0.26465,0.30796 0.16078,0.41896 0.12918,0.43449 -0.24766,0.12175 -0.26878,-0.22307 -0.32104,-0.39545 -0.13835,-0.45635 0.16148,-0.0538 0.2936,-0.19647 0.2936,-0.31699 0,-0.18456 -0.20979,-0.18899 -1.02458,-0.0216 -0.0542,0.0111 0.0178,0.16907 0.16004,0.35097 0.14223,0.1819 0.38782,0.71505 0.54577,1.18477 0.33625,1.00003 -0.0804,1.49957 -0.46045,0.55202 -0.17338,-0.43232 -0.2505,-0.4808 -0.26234,-0.16491 -0.009,0.24608 0.115,0.52885 0.27606,0.62839 0.21264,0.13142 0.21313,0.23024 0.002,0.36086 -0.19847,0.12266 -0.14572,0.35901 0.16584,0.74298 0.25129,0.30971 0.51045,0.50955 0.5759,0.44409 0.0654,-0.0654 -0.0219,-0.25989 -0.19409,-0.43209 z m 1.39659,-3.13405 c -0.0655,-0.10602 0.0471,-0.25656 0.25035,-0.33455 0.36994,-0.14195 0.68581,0.0197 0.68581,0.35093 0,0.23888 -0.78691,0.22511 -0.93616,-0.0164 z m 7.81532,2.24041 c 0,-0.0762 -0.10907,-0.0712 -0.24238,0.0112 -0.13331,0.0824 -0.54433,0.035 -0.91337,-0.10531 -0.54372,-0.20672 -0.64305,-0.18228 -0.52365,0.12888 0.081,0.21119 0.25394,0.31812 0.38421,0.2376 0.13027,-0.0805 0.23686,-0.0161 0.23686,0.14312 0,0.20752 0.14986,0.20931 0.52917,0.006 0.29104,-0.15576 0.52916,-0.34557 0.52916,-0.4218 z m -6.12919,-0.0747 c 0.26845,-0.17017 0.22089,-0.2584 -0.19844,-0.36806 -0.36591,-0.0957 -0.55153,-0.019 -0.55153,0.22788 0,0.42203 0.2358,0.46611 0.74997,0.14018 z m -7.15359,-0.38684 c 0.25961,-0.19708 0.26695,-0.30772 0.0301,-0.4541 -0.21886,-0.13526 -0.1332,-0.34145 0.28451,-0.68481 0.32871,-0.27021 0.82117,-0.72209 1.09437,-1.00419 0.27319,-0.28211 0.49671,-0.3714 0.49671,-0.19844 0,0.17296 0.13364,0.31447 0.29698,0.31447 0.20519,0 0.19517,-0.12267 -0.0324,-0.39687 -0.18115,-0.21828 -0.51323,-0.39688 -0.73795,-0.39688 -0.22472,0 -0.32894,0.0796 -0.23161,0.17697 0.23533,0.23533 -0.60367,1.14595 -1.05582,1.14595 -0.19573,0 -0.35587,-0.18562 -0.35587,-0.41249 0,-0.22687 0.10796,-0.34577 0.23991,-0.26422 0.13195,0.0816 0.1776,-0.09 0.10144,-0.38126 -0.16137,-0.61704 -0.57243,-0.67354 -1.25724,-0.17279 -0.3188,0.23311 -0.41084,0.48137 -0.26557,0.71641 0.32654,0.52837 0.38829,1.5411 0.10463,1.7164 -0.13534,0.0837 -0.24608,0.25673 -0.24608,0.38462 0,0.30658 1.09667,0.24311 1.53388,-0.0888 z m -0.74013,-0.17498 c 0,-0.14553 0.11906,-0.26459 0.26458,-0.26459 0.14552,0 0.26458,0.11906 0.26458,0.26459 0,0.14552 -0.11906,0.26458 -0.26458,0.26458 -0.14552,0 -0.26458,-0.11906 -0.26458,-0.26458 z m 0,-1.07395 c 0,-0.29963 0.11386,-0.47441 0.25302,-0.3884 0.13917,0.086 0.18596,0.33116 0.10399,0.54478 -0.20988,0.54692 -0.35701,0.48247 -0.35701,-0.15638 z m 0.13229,-1.3073 c -0.0899,-0.14553 -0.0374,-0.26459 0.11668,-0.26459 0.1541,0 0.28019,0.11906 0.28019,0.26459 0,0.14552 -0.0525,0.26458 -0.11667,0.26458 -0.0642,0 -0.19026,-0.11906 -0.2802,-0.26458 z m 10.19951,2.52926 c -0.27977,-0.3371 -1.07139,-0.30689 -1.07139,0.0409 0,0.0728 0.1786,0.0638 0.39688,-0.02 0.21828,-0.0838 0.39687,-0.037 0.39687,0.10398 0,0.14096 0.13364,0.25628 0.29698,0.25628 0.21064,0 0.20501,-0.11082 -0.0193,-0.38115 z m 3.51896,-0.55336 c -0.2067,-0.53866 -0.33142,-0.4852 -0.28565,0.12243 0.0212,0.28096 0.12763,0.45574 0.23659,0.3884 0.10896,-0.0673 0.13103,-0.29721 0.0491,-0.51083 z m -3.9739,-0.54259 c -0.0791,-0.20624 -0.27998,-0.3786 -0.44632,-0.38303 -0.16633,-0.004 -0.0915,-0.1308 0.16617,-0.28084 0.25772,-0.15004 0.39129,-0.39786 0.29683,-0.5507 -0.0945,-0.15285 -0.008,-0.38183 0.19287,-0.50886 0.28838,-0.18265 0.26781,-0.2318 -0.0984,-0.235 -0.25466,-0.002 -0.46302,0.18157 -0.46302,0.40844 0,0.22687 -0.11907,0.3389 -0.26459,0.24897 -0.30668,-0.18954 -0.326,0.0236 -0.10312,1.13805 0.10467,0.52333 0.28494,0.75994 0.51246,0.67264 0.19305,-0.0741 0.28625,-0.30343 0.20711,-0.50967 z m 1.12044,0.32965 c 0.25593,0.0982 0.37978,-0.0361 0.37978,-0.41174 0,-0.30661 -0.11906,-0.55747 -0.26458,-0.55747 -0.14552,0 -0.26641,0.14882 -0.26864,0.33072 -0.003,0.24219 -0.0652,0.23418 -0.23255,-0.0299 -0.19292,-0.3045 -0.24803,-0.3045 -0.35385,0 -0.0689,0.19836 -0.0615,0.53324 0.0165,0.74416 0.0899,0.24292 0.17883,0.27262 0.2427,0.081 0.0555,-0.16637 0.27173,-0.23691 0.48061,-0.15675 z m -11.87623,-0.0969 c -0.46634,-0.1206 -0.46634,-0.13673 0,-0.495 0.44797,-0.34415 0.43528,-0.36262 -0.17941,-0.26118 -0.3638,0.06 -0.7058,0.118 -0.76,0.12882 -0.31049,0.062 0.63411,0.80814 0.99084,0.78272 0.3448,-0.0246 0.33455,-0.0555 -0.0514,-0.15536 z m 13.04976,-1.15248 c 0,-0.15411 -0.11906,-0.20662 -0.26458,-0.11668 -0.14552,0.0899 -0.26459,0.0502 -0.26459,-0.0884 0,-0.13854 -0.17859,-0.32042 -0.39687,-0.40418 -0.50887,-0.19527 -0.503,-0.0482 0.0189,0.47365 0.47881,0.47881 0.90714,0.54283 0.90714,0.13558 z m -8.46667,-0.64585 c 0,-0.21828 -0.19317,-0.39687 -0.42927,-0.39687 -0.35157,0 -0.36965,0.0718 -0.0999,0.39687 0.18115,0.21829 0.37433,0.39688 0.42927,0.39688 0.0549,0 0.0999,-0.17859 0.0999,-0.39688 z m -1.98437,-1.19062 c 0.0899,-0.14552 0.0445,-0.26458 -0.10106,-0.26458 -0.14552,0 -0.33817,0.11906 -0.42811,0.26458 -0.0899,0.14552 -0.0445,0.26458 0.10106,0.26458 0.14552,0 0.33817,-0.11906 0.42811,-0.26458 z m -0.2311,-0.58335 c 0.31626,-0.51172 0.39515,-1.84876 0.0983,-1.66527 -0.14521,0.0898 -0.26403,-0.0741 -0.26403,-0.36408 0,-0.40391 0.14065,-0.50176 0.6012,-0.41824 0.42462,0.077 0.67718,-0.059 0.85989,-0.46312 0.3531,-0.7809 1.38851,-0.84807 1.3047,-0.0846 -0.042,0.38234 0.0955,0.5719 0.43324,0.59734 0.2721,0.0205 0.56362,-0.0742 0.64784,-0.21048 0.0842,-0.13626 0.32468,-0.24774 0.53437,-0.24774 0.30236,0 0.28544,0.10082 -0.0818,0.48719 -0.25466,0.26796 -0.58208,0.42609 -0.7276,0.3514 -0.14552,-0.0747 -0.0378,0.12279 0.23944,0.43884 0.28065,0.31997 0.36859,0.57465 0.19844,0.57465 -0.16807,0 -0.30559,-0.12609 -0.30559,-0.2802 0,-0.15411 -0.11906,-0.20661 -0.26458,-0.11668 -0.52681,0.32559 -0.24795,0.6947 0.46302,0.61289 0.40923,-0.0471 0.69866,-0.22844 0.66146,-0.41445 -0.0364,-0.1819 0.0529,-0.33073 0.19843,-0.33073 0.14552,0 0.26459,-0.11532 0.26459,-0.25628 0,-0.14095 -0.20836,-0.18925 -0.46302,-0.10733 -0.3775,0.12143 -0.39205,0.0987 -0.0788,-0.12314 0.21133,-0.14964 0.47099,-0.21846 0.57703,-0.15293 0.40755,0.25188 0.45297,-0.35939 0.0676,-0.90959 l -0.40427,-0.57718 -0.73904,0.52624 c -0.40647,0.28944 -0.80669,0.45859 -0.88938,0.3759 -0.22337,-0.22337 0.0975,-0.91137 0.35181,-0.75423 0.12022,0.0743 0.30473,-0.004 0.41003,-0.17469 0.1053,-0.17038 0.0781,-0.23971 -0.0605,-0.15406 -0.13857,0.0856 -0.42486,0.0463 -0.63619,-0.0874 -0.30526,-0.19311 -0.27094,-0.24391 0.16697,-0.24713 0.30317,-0.002 0.63302,0.0778 0.733,0.17773 0.34528,0.34528 1.18246,0.26851 1.04272,-0.0956 -0.074,-0.19291 -0.367,-0.35074 -0.65106,-0.35074 -0.29892,0 -0.4429,-0.11905 -0.34181,-0.28263 0.0961,-0.15544 0.34741,-0.21633 0.55853,-0.13532 0.21112,0.081 0.31563,0.0369 0.23225,-0.098 -0.0834,-0.13491 0.0593,-0.37736 0.31699,-0.53877 0.39368,-0.24657 0.36319,-0.26421 -0.1908,-0.11039 -0.59288,0.16463 -0.62244,0.13858 -0.29302,-0.25834 0.20149,-0.24279 0.30187,-0.50592 0.22306,-0.58473 -0.0788,-0.0788 -0.41535,0.34079 -0.74788,0.93244 -0.33252,0.59165 -0.68899,1.07573 -0.79215,1.07573 -0.35019,0 -0.52004,-0.8614 -0.3493,-1.77153 0.13263,-0.70696 0.0552,-1.01383 -0.35163,-1.39281 -0.50846,-0.4737 -0.53808,-0.46823 -1.16388,0.21465 -0.85495,0.93295 -1.55654,2.05795 -1.54498,2.47736 0.005,0.18702 0.18715,0.0424 0.40443,-0.32142 0.39226,-0.6568 0.39427,-0.65446 0.28429,0.33072 -0.0609,0.54571 -0.005,0.99219 0.12473,0.99219 0.12953,0 0.23551,-0.11906 0.23551,-0.26458 0,-0.48155 0.41583,-0.27426 0.45351,0.22608 0.0279,0.3702 -0.12067,0.47335 -0.60515,0.42017 -0.35316,-0.0388 -0.64211,0.0461 -0.64211,0.18863 0,0.14251 0.23737,0.18377 0.5275,0.0917 0.3932,-0.1248 0.48959,-0.0686 0.37858,0.22066 -0.27256,0.71029 -1.03003,0.30553 -1.20198,-0.64229 l -0.16361,-0.90182 -0.0551,1.05834 c -0.0303,0.58208 -0.095,1.26667 -0.14371,1.52131 -0.0487,0.25464 0.10919,0.57844 0.35098,0.71956 0.40762,0.23791 0.40705,0.25716 -0.008,0.26462 -0.56351,0.0101 -0.79205,0.36667 -0.58348,0.91021 0.19204,0.50043 0.52713,0.54316 0.79979,0.10199 z m -0.69494,-0.47498 c 0,-0.14553 0.11906,-0.26459 0.26458,-0.26459 0.14552,0 0.26458,0.11906 0.26458,0.26459 0,0.14552 -0.11906,0.26458 -0.26458,0.26458 -0.14552,0 -0.26458,-0.11906 -0.26458,-0.26458 z m 2.72259,-3.70454 c 0.0762,-0.29124 0.0387,-0.46789 -0.0831,-0.39256 -0.1219,0.0753 -0.29641,0.016 -0.38782,-0.13192 -0.0914,-0.1479 -0.0401,-0.2689 0.11401,-0.2689 0.15411,0 0.2802,-0.29766 0.2802,-0.66146 0,-0.3638 -0.12709,-0.66146 -0.28241,-0.66146 -0.15609,0 -0.21174,0.2227 -0.12441,0.49784 0.10256,0.32314 0.006,0.5563 -0.27621,0.66445 -0.30688,0.11777 -0.39115,0.0544 -0.28733,-0.21615 0.0808,-0.21053 0.005,-0.43502 -0.16898,-0.49887 -0.20624,-0.0758 -0.1131,-0.3113 0.26838,-0.67855 0.68932,-0.66362 0.87096,-0.69989 0.87096,-0.1739 0,0.25042 0.16462,0.33562 0.46302,0.23963 0.26928,-0.0866 0.35231,-0.0555 0.19844,0.0745 -0.36216,0.30578 -0.47073,1.60173 -0.15075,1.79949 0.31348,0.19374 0.0713,0.93745 -0.30529,0.93745 -0.14693,0 -0.20482,-0.23829 -0.12866,-0.52954 z m -0.74009,3.97215 c 0.0927,-0.14998 -0.0135,-0.19434 -0.24897,-0.10398 -0.45837,0.17589 -0.54223,0.36553 -0.16165,0.36553 0.13693,0 0.32171,-0.1177 0.41062,-0.26155 z m 1.41963,-0.95255 c 0.2439,-0.5353 0.22384,-0.68459 -0.10916,-0.81238 -0.23455,-0.09 -0.56771,0.0544 -0.78373,0.33965 -0.21738,0.28708 -0.37929,0.35682 -0.38416,0.16548 -0.005,-0.1819 -0.12374,-0.33073 -0.2647,-0.33073 -0.14095,0 -0.18512,0.18544 -0.0981,0.41208 0.087,0.22664 0.30972,0.35391 0.495,0.28281 0.49276,-0.18909 0.69519,0.12632 0.34888,0.54359 -0.23413,0.28212 -0.21253,0.32768 0.0987,0.20823 0.21915,-0.0841 0.53293,-0.44803 0.69727,-0.80873 z m 3.51298,-0.12823 c -0.51733,-0.20714 -0.56893,-0.31865 -0.29833,-0.64469 0.37863,-0.45623 -0.0152,-0.54002 -0.45777,-0.0974 -0.46621,0.46621 -0.0866,1.02776 0.68231,1.00932 l 0.6993,-0.0168 z m 1.84178,-0.62619 c 0.13617,0.0841 0.1677,0.28224 0.0701,0.44018 -0.10479,0.16956 -0.0546,0.21123 0.12256,0.10175 0.2225,-0.13751 0.21938,-0.31461 -0.0121,-0.68523 -0.17166,-0.27488 -0.4103,-0.4391 -0.5303,-0.36494 -0.12,0.0742 -0.18547,0.0367 -0.14548,-0.0833 0.04,-0.11996 -0.0464,-0.27763 -0.19188,-0.35039 -0.14552,-0.0728 -0.28392,0.25273 -0.30754,0.72331 -0.0381,0.75875 0.002,0.81089 0.35206,0.46059 0.21726,-0.21726 0.50642,-0.32617 0.64258,-0.24201 z m 1.5578,-0.61117 c -0.003,-0.52953 -0.0683,-0.62609 -0.2401,-0.35472 -0.12983,0.20509 -0.1748,0.53251 -0.0999,0.72761 0.2147,0.55949 0.34443,0.41722 0.34003,-0.37289 z m -2.9902,-0.11575 c -0.0845,-0.21107 -0.14716,-0.14837 -0.15986,0.15985 -0.0115,0.27892 0.051,0.43519 0.13897,0.34727 0.0879,-0.0879 0.0973,-0.31612 0.0209,-0.50712 z m 2.46104,-0.28112 c 0.002,-0.10914 -0.26384,-0.19661 -0.59126,-0.19439 -0.4814,0.003 -0.51937,0.0531 -0.19844,0.26054 0.21828,0.14106 0.30055,0.2583 0.18282,0.26053 -0.11773,0.002 -0.13261,0.13582 -0.0331,0.29688 0.17783,0.28774 0.63034,-0.15319 0.63995,-0.62356 z m -7.03875,0.1847 c 0.0904,-0.23546 0.046,-0.34167 -0.10398,-0.24897 -0.14385,0.0889 -0.26155,0.27368 -0.26155,0.41061 0,0.38059 0.18964,0.29672 0.36553,-0.16164 z m 6.78083,-2.45484 c -0.14696,-0.049 -0.2672,-0.26476 -0.2672,-0.4795 0,-0.21654 0.12961,-0.31034 0.29098,-0.21061 0.20981,0.12967 0.2124,0.033 0.009,-0.34647 -0.15492,-0.28947 -0.19656,-0.62058 -0.0925,-0.73581 0.10402,-0.11522 0.0403,-0.12385 -0.1416,-0.0192 -0.19024,0.10948 -0.33073,0.0488 -0.33073,-0.14279 0,-0.2462 -0.0774,-0.25567 -0.29682,-0.0363 -0.31737,0.31737 -1.03978,0.15791 -1.34244,-0.29632 -0.10123,-0.15192 -0.25573,-0.20455 -0.34333,-0.11694 -0.23121,0.2312 0.65698,1.04891 0.94559,0.87054 0.13379,-0.0827 0.24325,-0.0115 0.24325,0.15817 0,0.16968 0.17478,0.24144 0.3884,0.15946 0.21362,-0.082 0.45877,-0.0352 0.54478,0.10399 0.086,0.13916 0.0261,0.25303 -0.13312,0.25303 -0.20752,0 -0.20931,0.14986 -0.006,0.52916 0.19201,0.35878 0.19501,0.52917 0.009,0.52917 -0.15064,0 -0.27389,0.12007 -0.27389,0.26682 0,0.15773 0.21743,0.13104 0.53177,-0.0653 0.29248,-0.18266 0.41154,-0.37218 0.26459,-0.42117 z m 1.54823,-1.64104 c 0.16588,-0.47585 0.1765,-0.73931 0.026,-0.64633 -0.13969,0.0863 -0.25398,0.34242 -0.25398,0.56909 0,0.29543 -0.16855,0.36965 -0.59531,0.26213 -0.53846,-0.13567 -0.55149,-0.11717 -0.1364,0.19374 0.2524,0.18905 0.37146,0.44034 0.26458,0.55842 -0.10688,0.11808 -0.0572,0.1363 0.11035,0.0405 0.16757,-0.0958 0.43069,-0.53571 0.58471,-0.97752 z m -0.70418,-1.10267 c -0.24694,-0.24695 -0.3175,-0.17639 -0.3175,0.3175 0,0.49388 0.0706,0.56444 0.3175,0.3175 0.24695,-0.24695 0.24695,-0.38806 0,-0.635 z m -2.16958,0.28919 c 0,-0.16971 0.19474,-0.21875 0.46302,-0.11662 0.37125,0.14134 0.39747,0.11024 0.13229,-0.1569 -0.45461,-0.45797 -0.41579,-0.84576 0.0661,-0.66083 0.43869,0.16834 0.58031,-0.74483 0.15617,-1.00696 -0.36864,-0.22783 -1.10184,0.13631 -0.90752,0.45072 0.1034,0.16732 0.0436,0.19858 -0.15049,0.0786 -0.36904,-0.22809 -1.40898,0.59694 -1.19297,0.94644 0.25185,0.40751 0.97192,0.2582 0.8085,-0.16765 -0.0838,-0.21828 -0.0231,-0.39688 0.13483,-0.39688 0.1636,0 0.23272,0.28458 0.16068,0.66146 -0.0695,0.3638 -0.0239,0.66146 0.10145,0.66146 0.12534,0 0.22789,-0.1318 0.22789,-0.29289 z m 0.26458,-1.55919 c 0,-0.14552 0.11907,-0.26459 0.26459,-0.26459 0.14552,0 0.26458,0.11907 0.26458,0.26459 0,0.14552 -0.11906,0.26458 -0.26458,0.26458 -0.14552,0 -0.26459,-0.11906 -0.26459,-0.26458 z m 1.32292,1.19062 c 0,-0.21828 -0.0468,-0.39687 -0.10398,-0.39687 -0.0572,0 -0.17252,0.17859 -0.25628,0.39687 -0.0838,0.21828 -0.037,0.39688 0.10398,0.39688 0.14095,0 0.25628,-0.1786 0.25628,-0.39688 z m -6.08542,-0.13229 c 0,-0.14552 -0.12609,-0.26458 -0.28019,-0.26458 -0.15411,0 -0.20662,0.11906 -0.11668,0.26458 0.0899,0.14552 0.21602,0.26458 0.2802,0.26458 0.0642,0 0.11667,-0.11906 0.11667,-0.26458 z m 6.7462,-0.99371 c 0.10363,0.25383 0.29695,0.39443 0.42959,0.31245 0.13265,-0.082 0.16017,-0.28012 0.0612,-0.44032 -0.11584,-0.18743 -0.0231,-0.23103 0.26026,-0.12231 0.24216,0.0929 0.44028,0.0536 0.44028,-0.0873 0,-0.14095 -0.41672,-0.25628 -0.92604,-0.25628 -0.78946,0 -0.9233,0.0878 -0.90744,0.59531 0.0177,0.56597 0.0293,0.56923 0.23618,0.0661 0.19927,-0.48463 0.23345,-0.49033 0.406,-0.0677 z"
         id="path8037" />
      <path
         style="fill:#59742d;stroke-width:1.02732"
         d="m 199.80396,167.23733 c 0.15456,-0.44336 0.21305,-0.98322 0.12999,-1.19968 -0.32283,-0.84128 0.11215,-0.34018 0.49028,0.56479 0.49904,1.19437 0.49749,1.44119 -0.005,0.77701 -0.32588,-0.43085 -0.38846,-0.44402 -0.38846,-0.0818 0,0.23751 -0.11429,0.50247 -0.25398,0.5888 -0.15005,0.0927 -0.13898,-0.17291 0.027,-0.64916 z"
         id="path8181" />
      <path
         style="fill:#59742d;stroke-width:1.02732"
         d="m 195.81846,177.92516 c 0.0127,-0.30823 0.0754,-0.37092 0.15985,-0.15985 0.0764,0.19099 0.067,0.4192 -0.0209,0.50711 -0.0879,0.0879 -0.15045,-0.0684 -0.13896,-0.34726 z"
         id="path8180" />
      <path
         style="fill:#59742d;stroke-width:1.02732"
         d="m 217.4934,179.68261 c 0,-0.13693 0.1177,-0.32171 0.26155,-0.41061 0.14998,-0.0927 0.19434,0.0135 0.10399,0.24897 -0.1759,0.45836 -0.36554,0.54223 -0.36554,0.16164 z"
         id="path8179" />
      <path
         style="fill:#59742d;stroke-width:1.02732"
         d="m 197.67621,180.53893 c 0.19266,-0.32081 0.40724,-0.52633 0.47684,-0.45672 0.0696,0.0696 -0.088,0.33208 -0.35028,0.58328 -0.4556,0.43637 -0.46123,0.43073 -0.12656,-0.12656 z"
         id="path8178" />
      <path
         style="fill:#59742d;stroke-width:1.02732"
         d="m 187.99743,181.09627 c -1.88882,-0.69137 -3.47069,-2.68383 -3.26791,-4.11613 0.0727,-0.51349 0.26826,-0.63515 1.13453,-0.7058 1.66253,-0.13559 2.63717,0.16056 3.74337,1.13744 0.56692,0.50065 0.89187,0.91523 0.72209,0.92129 -0.16977,0.006 -0.34837,-0.0936 -0.39687,-0.22136 -0.0485,-0.12781 -0.5513,-0.54453 -1.11731,-0.92604 -0.76214,-0.51372 -1.36487,-0.69367 -2.3234,-0.69367 -1.64666,0 -1.86042,0.45128 -0.99223,2.09471 0.52814,0.99974 0.94245,1.36316 2.36037,2.07043 1.82287,0.90927 1.87473,1.07506 0.13736,0.43913 z"
         id="path8177" />
      <path
         style="fill:#59742d;stroke-width:1.02732"
         d="m 214.22272,182.70971 c 0.0838,-0.21828 0.19909,-0.39688 0.25628,-0.39688 0.0572,0 0.10398,0.1786 0.10398,0.39688 0,0.21828 -0.11532,0.39687 -0.25628,0.39687 -0.14095,0 -0.18774,-0.17859 -0.10398,-0.39687 z"
         id="path8176" />
      <path
         style="fill:#59742d;stroke-width:1.02732"
         d="m 188.69118,182.98102 c 0.0699,-0.0699 0.35796,-0.16296 0.64016,-0.20684 0.28221,-0.0439 0.6917,-0.18849 0.90998,-0.32135 0.32383,-0.19711 0.33906,-0.17006 0.0828,0.147 -0.17275,0.21372 -0.63941,0.41551 -1.03703,0.44842 -0.39762,0.0329 -0.66577,0.003 -0.59589,-0.0672 z"
         id="path8175" />
      <path
         style="fill:#59742d;stroke-width:1.02732"
         d="m 194.69759,182.90812 c -0.40236,-0.47985 -0.9682,-1.81049 -1.54706,-3.63802 -0.18437,-0.58208 -0.56656,-1.38755 -0.84932,-1.78993 -0.5789,-0.82379 -2.23313,-1.82614 -2.00248,-1.21337 0.074,0.19661 0.21659,0.65513 0.31685,1.01893 0.1751,0.63532 0.16608,0.64117 -0.22827,0.14787 -0.55044,-0.68856 -0.53771,-1.73537 0.0211,-1.73537 0.23743,0 0.9407,0.509 1.56281,1.13112 0.83953,0.83952 1.24679,1.53867 1.5798,2.71198 0.24678,0.86947 0.73916,2.08687 1.09418,2.70534 0.68031,1.18512 0.7,1.43382 0.0524,0.66145 z"
         id="path8174" />
      <path
         style="fill:#59742d;stroke-width:1.02732"
         d="m 216.17048,183.91479 c 0,-0.13036 0.34484,-0.31276 0.76632,-0.40533 0.69887,-0.15349 1.74722,-1.00723 1.74722,-1.42286 0,-0.0939 0.0872,-0.14159 0.19385,-0.10605 0.28047,0.0935 1.27413,-1.95126 1.3889,-2.85805 0.12422,-0.98153 -0.1203,-1.11889 -1.91802,-1.07745 -1.87048,0.0431 -2.86358,0.76421 -4.46777,3.24404 -0.64665,0.99961 -1.30977,1.81747 -1.4736,1.81747 -0.16384,0 -0.0629,-0.26789 0.22436,-0.59531 0.28723,-0.32742 0.96682,-1.2841 1.51019,-2.12595 1.16994,-1.81259 2.16486,-2.48324 4.02955,-2.71622 1.71768,-0.21461 2.49692,0.14787 2.49692,1.16151 0,1.06742 -1.24643,3.39695 -2.21134,4.13293 -0.97856,0.74638 -2.28658,1.29055 -2.28658,0.95127 z"
         id="path8173" />
      <path
         style="fill:#59742d;stroke-width:1.02732"
         d="m 197.20868,185.39962 c 0,-0.19403 0.15686,-0.35278 0.34858,-0.35278 0.26048,0 0.27458,0.0892 0.0558,0.35278 -0.16103,0.19403 -0.31788,0.35278 -0.34857,0.35278 -0.0307,0 -0.0558,-0.15875 -0.0558,-0.35278 z"
         id="path8172" />
      <path
         style="fill:#59742d;stroke-width:1.02732"
         d="m 217.4934,186.50289 c 1.98214,-0.55677 2.11134,-1.70286 0.21285,-1.88814 l -1.13889,-0.11116 1.16368,0.0291 c 1.61999,0.0405 2.04361,0.72909 1.00438,1.63262 -0.42067,0.36574 -1.05127,0.63509 -1.45521,0.62157 -0.64923,-0.0217 -0.6302,-0.0471 0.21319,-0.28398 z"
         id="path8170" />
      <path
         style="fill:#59742d;stroke-width:1.02732"
         d="m 197.90921,186.40779 c -0.27961,-0.33691 -0.26324,-0.37563 0.0999,-0.23628 0.23887,0.0917 0.4343,0.27298 0.4343,0.40293 0,0.34025 -0.15316,0.29246 -0.53419,-0.16665 z"
         id="path8169" />
      <path
         style="fill:#59742d;stroke-width:1.02732"
         d="m 204.79731,188.64075 c 0.008,-0.73524 0.80348,-3.74734 1.8658,-7.06201 1.15347,-3.59907 4.14639,-9.99831 5.05669,-10.81183 0.36088,-0.32251 0.23218,0.01 -0.37266,0.96256 -2.099,3.30601 -4.24681,8.71657 -5.61914,14.15521 -0.72123,2.85828 -0.93847,3.50158 -0.93069,2.75607 z"
         id="path8167" />
      <path
         style="fill:#59742d;stroke-width:1.02732"
         d="m 209.09346,188.77362 c 0.25498,-0.30285 0.37404,-0.64936 0.26458,-0.77002 -0.10946,-0.12066 -0.045,-0.13052 0.1433,-0.0219 0.18828,0.10862 0.48594,0.089 0.66146,-0.0435 0.56587,-0.42738 2.38541,-0.82704 4.42018,-0.97088 l 1.98438,-0.14029 -2.41877,0.37323 c -2.52954,0.39033 -4.07187,0.90789 -4.97988,1.67112 -0.52893,0.44459 -0.53032,0.44279 -0.0753,-0.0977 z"
         id="path8166" />
      <path
         style="fill:#59742d;stroke-width:1.02732"
         d="m 204.18048,189.25811 c -0.0632,-0.10914 -0.19222,-1.74625 -0.28661,-3.63802 -0.32367,-6.48663 -0.91288,-10.2538 -2.37822,-15.20542 -0.36472,-1.23246 -0.61744,-2.28653 -0.5616,-2.34238 0.17409,-0.17409 1.46507,4.32711 2.1327,7.43601 0.57876,2.69504 1.0664,7.46784 1.24269,12.16287 0.0681,1.81236 0.056,1.94068 -0.14896,1.58694 z"
         id="path8165" />
      <path
         style="fill:#59742d;stroke-width:1.02732"
         d="m 197.46332,189.46536 c -1.06531,-0.25333 -2.44522,-0.89072 -4.31159,-1.99155 -0.80036,-0.47207 -1.77133,-0.93288 -2.15771,-1.02403 -0.62249,-0.14683 -0.68822,-0.0981 -0.57711,0.42834 0.11093,0.52549 0.0911,0.54037 -0.17171,0.12894 -0.33154,-0.51902 -0.15376,-0.99009 0.37366,-0.99009 0.19047,0 1.16571,0.43089 2.1672,0.95754 3.40505,1.79059 3.87003,1.99666 4.83004,2.14061 l 0.95959,0.14388 -1.32291,-1.36776 c -1.5016,-1.55251 -3.24737,-2.47039 -5.55625,-2.92133 -3.49891,-0.68336 -5.42396,-1.63816 -5.42396,-2.69021 0,-0.47584 0.15515,-0.51652 1.69271,-0.44381 0.931,0.044 1.63394,0.17647 1.56209,0.29434 -0.0718,0.11786 -0.77404,0.13391 -1.56043,0.0357 -0.955,-0.11932 -1.42979,-0.0841 -1.42979,0.10612 0,0.49204 1.13117,1.36371 1.76968,1.36371 0.33637,0 0.61157,0.10045 0.61157,0.22323 0,0.12278 1.0418,0.43775 2.31511,0.69995 1.2733,0.26219 2.65359,0.64676 3.06729,0.85461 0.41371,0.20784 0.80428,0.32581 0.86793,0.26216 0.0637,-0.0637 0.67262,0.39556 1.35325,1.02049 0.68063,0.62493 1.35026,1.06656 1.48806,0.98139 0.13779,-0.0852 0.17392,-0.0309 0.0803,0.12064 -0.0936,0.15152 -9.7e-4,0.41598 0.20593,0.5877 0.34822,0.28899 0.47787,1.3693 0.15699,1.30816 -0.0782,-0.0149 -0.52363,-0.1178 -0.98992,-0.22869 z"
         id="path8164" />
      <path
         style="fill:#59742d;stroke-width:1.02732"
         d="m 205.32257,190.43694 c 0,-0.51372 1.17233,-5.12415 1.76303,-6.93351 1.30876,-4.00877 3.78309,-9.53631 5.18084,-11.57372 0.27385,-0.39919 0.41339,-0.87544 0.31008,-1.05833 -0.14318,-0.25348 -0.10932,-0.2601 0.14244,-0.0278 0.26046,0.24028 0.10918,0.68773 -0.71566,2.11666 -2.3617,4.0914 -4.47679,9.50661 -5.75974,14.74654 -0.5485,2.2402 -0.92099,3.34444 -0.92099,2.7302 z"
         id="path8163" />
      <path
         style="fill:#59742d;stroke-width:1.02732"
         d="m 206.22802,190.16347 c 1.39193,-1.93499 1.75669,-2.84607 2.12694,-5.31245 0.42063,-2.80208 0.91107,-3.84866 2.42738,-5.18001 1.38587,-1.21681 1.82359,-1.00025 1.78435,0.88281 -0.0175,0.84247 -0.1748,1.67219 -0.34945,1.84381 -0.24598,0.24173 -0.28445,0.163 -0.17069,-0.34941 0.31188,-1.40494 0.28686,-2.72259 -0.054,-2.84202 -0.39872,-0.13971 -2.0031,1.4832 -2.59193,2.62188 -0.22375,0.43267 -0.56434,1.84124 -0.75689,3.13015 -0.2598,1.73913 -0.57737,2.74074 -1.23143,3.88392 -0.48474,0.84724 -0.82582,1.58862 -0.75794,1.64751 0.0679,0.0589 -0.0933,0.13888 -0.35815,0.17775 -0.44571,0.0654 -0.45079,0.0279 -0.0682,-0.50394 z"
         id="path8162" />
      <path
         style="fill:#59742d;stroke-width:1.02732"
         d="m 201.11312,190.37765 c -0.74213,-1.17021 -1.01714,-2.40728 -1.5121,-6.80164 -0.0939,-0.83321 -0.24607,-1.46831 -0.33826,-1.41132 -0.0922,0.057 -0.12168,-0.37831 -0.0655,-0.96732 0.0702,-0.73584 0.0106,-1.01433 -0.19054,-0.89004 -0.17965,0.11103 -0.2364,0.0342 -0.14695,-0.19886 0.18653,-0.48607 -0.56028,-2.29358 -0.94764,-2.29358 -0.16153,0 -0.22194,-0.11612 -0.13423,-0.25803 0.23513,-0.38044 -1.64083,-2.09598 -2.24241,-2.05066 -0.78487,0.0591 -1.03485,2.43518 -0.46558,4.42535 0.0624,0.21828 0.20523,0.84232 0.31732,1.38675 0.11208,0.54443 0.28003,0.94281 0.37321,0.88528 0.0932,-0.0575 0.18841,0.21141 0.21161,0.59763 l 0.0422,0.70222 -0.33525,-0.66146 c -1.09886,-2.16804 -1.5618,-6.89209 -0.75452,-7.69937 0.39118,-0.39119 1.66595,0.2972 2.60369,1.40601 1.33834,1.58249 1.92501,3.2985 2.37447,6.94529 0.53539,4.34396 0.87278,5.92578 1.44107,6.7564 0.68447,1.00044 0.85057,1.32292 0.68139,1.32292 -0.0846,0 -0.49492,-0.53801 -0.91194,-1.19557 z"
         id="path8159" />
      <path
         style="fill:#59742d;stroke-width:1.02732"
         d="m 202.63057,189.11376 c 0.17715,-5.55362 -1.03106,-13.67743 -2.7379,-18.40919 -0.36054,-0.99949 -0.64872,-1.98144 -0.6404,-2.18211 0.0164,-0.39619 1.55285,3.53189 1.7201,4.39763 0.3944,2.04153 1.03787,4.26456 1.28165,4.42772 0.20979,0.14042 0.20879,0.19551 -0.004,0.19844 -0.29902,0.004 -0.27198,0.4351 0.16627,2.64989 0.52305,2.64333 0.80062,10.94158 0.38013,11.36402 -0.16014,0.16087 -0.22088,-0.73314 -0.16623,-2.4464 z"
         id="path8158" />
      <path
         style="fill:#59742d;stroke-width:1.02732"
         d="m 184.38043,191.99976 c -1.40125,-0.37743 -2.56273,-1.06482 -2.78707,-1.64946 -0.74744,-1.94778 4.89314,-4.07711 7.69694,-2.90561 0.56775,0.23722 0.97217,0.49141 0.89872,0.56486 -0.0735,0.0735 -0.47869,-0.0464 -0.90052,-0.26643 -1.60757,-0.83835 -5.03118,-0.26488 -6.68918,1.12047 -1.09366,0.91381 -0.97806,1.65724 0.35615,2.29037 1.67014,0.79253 3.4911,0.98638 5.17263,0.55066 0.84048,-0.21779 1.74908,-0.38882 2.01912,-0.38007 0.27003,0.009 -0.34246,0.24375 -1.36111,0.52221 -2.14358,0.58597 -2.72349,0.60611 -4.40568,0.153 z"
         id="path8157" />
      <path
         style="fill:#59742d;stroke-width:1.02732"
         d="m 217.15407,193.93024 c -1.04169,-0.24529 -2.57109,-0.94869 -2.57109,-1.1825 0,-0.0741 0.26789,0.01 0.59532,0.18676 2.31919,1.25277 6.54843,0.91824 6.54843,-0.51797 0,-0.65842 -0.77655,-1.67892 -1.11731,-1.46832 -0.16832,0.10403 -0.21157,0.055 -0.1044,-0.11844 0.1118,-0.1809 -0.36112,-0.58116 -1.21589,-1.02907 -1.27997,-0.67074 -1.6462,-0.73337 -4.30927,-0.73703 -1.60073,-0.002 -3.56526,0.0824 -4.36563,0.1879 l -1.4552,0.19188 1.32291,-0.38522 c 0.7987,-0.23257 2.48566,-0.38724 4.25722,-0.39032 2.75074,-0.005 3.03595,0.0457 4.55919,0.80686 1.86324,0.93107 2.69297,1.83716 2.69297,2.94082 0,0.65061 -0.1756,0.8507 -1.12448,1.28142 -1.20796,0.54831 -2.12898,0.60617 -3.71277,0.23323 z"
         id="path8153" />
      <path
         style="fill:#59742d;stroke-width:1.02732"
         d="m 214.84757,196.35777 c 0,-0.15765 0.12852,-0.28663 0.2856,-0.28663 0.33336,0 0.07,-1.53112 -0.35386,-2.05692 -0.14945,-0.18542 -0.20401,-0.40484 -0.12125,-0.48761 0.26951,-0.2695 1.01726,1.50248 0.93299,2.21096 -0.0785,0.65973 -0.74348,1.21447 -0.74348,0.6202 z"
         id="path8149" />
      <path
         style="fill:#59742d;stroke-width:1.02732"
         d="m 187.34899,196.10493 c -0.32488,-0.60704 0.0321,-2.00417 0.70088,-2.74317 0.54018,-0.5969 1.73937,-1.26423 2.24445,-1.24902 0.18913,0.006 -0.0133,0.16778 -0.44988,0.36019 -1.3919,0.61346 -2.24896,1.69595 -2.24896,2.84053 0,1.15377 0.3198,1.26112 2.20078,0.7388 0.83492,-0.23184 0.95551,-0.34632 0.6952,-0.65998 -0.22401,-0.26992 -0.22919,-0.37948 -0.018,-0.37948 0.16334,0 0.29698,0.13752 0.29698,0.30559 0,0.17227 0.25973,0.0857 0.59532,-0.19844 l 0.59531,-0.50402 -0.52917,0.63183 c -1.07383,1.28216 -3.57453,1.80716 -4.08295,0.85717 z"
         id="path8148" />
      <path
         style="fill:#59742d;stroke-width:1.02732"
         d="m 201.69722,196.63934 c -0.0721,-2.6219 -0.9263,-3.9091 -3.03141,-4.56792 -1.44818,-0.45323 -2.23942,-0.11492 -4.23333,1.81004 -0.99584,0.9614 -1.87672,1.68189 -1.95752,1.6011 -0.17856,-0.17856 2.54062,-2.78861 3.6251,-3.47961 1.00645,-0.64128 2.53675,-0.45766 3.94333,0.47317 1.54834,1.02465 1.91389,1.75218 1.94495,3.871 0.0262,1.78681 0.0453,1.83672 0.70452,1.83867 0.58675,0.002 0.72126,-0.16646 1.00342,-1.25476 0.1792,-0.69122 0.7347,-1.81687 1.23444,-2.50145 0.72941,-0.9992 1.1683,-1.3218 2.2254,-1.63572 1.82989,-0.54342 2.97918,-0.18904 4.64874,1.43341 0.7276,0.70707 1.6801,1.47 2.11667,1.69539 0.52692,0.27204 0.63585,0.41035 0.32405,0.41143 -0.25833,8.9e-4 -1.23315,-0.70861 -2.16625,-1.57667 -1.85967,-1.73005 -2.48947,-1.99358 -4.28162,-1.79158 -0.88763,0.10005 -1.43148,0.36174 -2.10156,1.01121 -0.91186,0.88381 -2.09284,3.48577 -1.85886,4.0955 0.0855,0.22276 -0.23184,0.35899 -0.9801,0.42077 l -1.1065,0.0914 z"
         id="path8145" />
    </g>
  </g>
</svg>
