<?xml version="1.0" encoding="UTF-8" standalone="no"?>
<!-- Created with Inkscape (http://www.inkscape.org/) -->

<svg
   width="185"
   height="185"
   viewBox="0 0 48.947914 48.947918"
   version="1.1"
   id="svg1"
   xmlns="http://www.w3.org/2000/svg"
   xmlns:svg="http://www.w3.org/2000/svg">
  <defs
     id="defs1" />
  <g
     id="g47202"
     style="display:inline"
     transform="translate(14.909433,-32.645528)">
    <path
       style="fill:#f3e5cf"
       d="m 4.350039,81.428178 c -11.0260987,-0.05834 -13.4276034,-0.134599 -13.4276034,-0.426373 0,-0.804147 1.2638678,-2.190835 2.6461083,-2.903252 1.2934231,-0.666639 1.6503937,-0.734667 3.2157042,-0.612816 1.5492606,0.120601 1.819414,0.07099 2.24895822,-0.413009 0.76485442,-0.861815 2.70799078,-1.607179 4.18985868,-1.607179 1.3349559,0 2.4818909,0.437057 3.9018448,1.486856 0.3983925,0.294539 0.7970529,0.462823 0.885912,0.373963 C 8.2445703,77.09262 7.6525032,70.924077 7.0325563,67.134157 6.0352566,61.037367 4.627734,56.550937 2.2758356,51.972275 0.99430951,49.477407 0.9148596,49.383968 0.28020529,49.625263 c -1.00394907,0.3817 -1.39165569,0.309439 -2.02889139,-0.37815 -0.3208447,-0.346197 -0.8211752,-0.674637 -1.1118455,-0.729866 -0.3651369,-0.06938 -0.5518213,-0.345063 -0.603969,-0.891905 -0.041513,-0.435318 -0.2143922,-1.066726 -0.3841769,-1.403128 -0.2366278,-0.468842 -0.2344492,-0.730534 0.00933,-1.120889 0.174917,-0.280087 0.318031,-0.811073 0.318031,-1.179969 0,-0.45491 0.2084386,-0.765692 0.6478065,-0.965882 0.3562936,-0.162338 0.6837154,-0.546738 0.7276041,-0.854223 0.064554,-0.452269 0.281964,-0.568589 1.1381309,-0.60893 0.5820833,-0.02743 1.38228573,-0.129941 1.77822763,-0.227808 0.60540187,-0.149641 0.77022987,-0.06747 1.03638877,0.516688 0.2129201,0.467309 0.4606741,0.648869 0.7570678,0.554797 0.5020626,-0.159348 1.4605098,0.75419 1.2124186,1.15561 -0.089389,0.144636 -0.034178,0.342298 0.1226931,0.439249 0.6077782,0.375628 0.8128555,1.493192 0.3919,2.135652 -0.2221475,0.33904 -0.4039045,0.954 -0.4039045,1.366578 0,0.859441 -0.4217516,1.385142 -1.1112499,1.385142 -0.2619375,0 -0.47625,0.04401 -0.47625,0.0978 0,0.05379 0.6568568,1.411045 1.4596817,3.016122 2.4456474,4.889548 4.2611277,11.20719 5.0185651,17.463973 l 0.3435312,2.837727 0.029463,-2.645833 C 9.2941617,56.709926 9.4887472,44.116072 9.5493418,43.791146 9.6041994,43.496985 9.3467235,43.383135 8.5544782,43.351243 7.4328697,43.306092 6.6653961,42.664781 6.9246036,41.989297 7.0009684,41.790293 6.8250019,41.324336 6.5335668,40.953836 5.9005665,40.149107 5.8495494,39.221361 6.4126007,38.75407 c 0.2249037,-0.186653 0.3529481,-0.48522 0.2845431,-0.66348 -0.187393,-0.488338 0.5891099,-1.443193 1.1736271,-1.443193 0.2827901,0 0.5141637,-0.114874 0.5141637,-0.255275 0,-0.140401 0.2461091,-0.386988 0.546909,-0.547971 0.424151,-0.226998 0.6882993,-0.200054 1.1768274,0.120042 0.387532,0.253921 0.692141,0.312061 0.791623,0.151096 0.08894,-0.143903 0.45528,-0.261642 0.814096,-0.261642 0.456522,0 0.729714,0.203372 0.909931,0.677379 0.141647,0.372559 0.38206,0.600421 0.534253,0.506361 0.152193,-0.09406 0.579628,0.02746 0.949855,0.27004 0.50729,0.332389 0.635431,0.591304 0.520089,1.050865 -0.09458,0.376843 -0.0024,0.734826 0.241265,0.93706 0.577316,0.47913 0.481113,1.494578 -0.185853,1.961739 -0.319093,0.223502 -0.706046,0.780949 -0.859895,1.238771 -0.357894,1.065016 -2.025795,1.835981 -2.853571,1.319026 -0.286216,-0.178744 -0.588173,-0.257209 -0.671016,-0.174366 -0.08284,0.08284 0.0073,0.150624 0.200271,0.150624 0.289296,0 0.32008,2.496523 0.175358,14.221354 -0.09655,7.821744 -0.242408,14.995259 -0.324139,15.941145 -0.1329,1.538059 -0.107669,1.669399 0.238767,1.242915 0.213053,-0.262281 0.46463,-0.917125 0.55906,-1.455208 0.568059,-3.236935 3.625672,-10.808313 5.62694,-13.933643 0.502311,-0.784448 0.502306,-0.7845 -0.140186,-1.337148 -0.531236,-0.45695 -0.610348,-0.699136 -0.456779,-1.398335 0.102157,-0.465115 0.299531,-0.845664 0.438609,-0.845664 0.149098,0 0.134456,-0.221259 -0.03568,-0.53916 -0.442732,-0.827253 -0.107695,-1.415137 1.341745,-2.354343 1.259439,-0.816088 1.359691,-0.838595 1.965936,-0.441368 0.392332,0.257066 0.701216,0.317618 0.800527,0.15693 0.241407,-0.390606 1.096776,-0.315875 1.547884,0.135233 0.218282,0.218281 0.569395,0.396875 0.780252,0.396875 0.582342,0 1.057784,0.722128 0.892237,1.355181 -0.08116,0.310337 0.02656,0.829976 0.239359,1.154753 0.405102,0.618265 0.263157,1.442345 -0.308136,1.788921 -0.179341,0.108798 -0.262707,0.440135 -0.185257,0.736304 0.168064,0.642677 -0.608786,1.605186 -1.133154,1.403967 -0.20033,-0.07687 -0.684102,0.111835 -1.075048,0.419353 -0.809335,0.636623 -1.526325,0.527573 -2.262926,-0.344178 l -0.474176,-0.561176 -0.528003,0.661458 c -1.648853,2.065611 -4.90212,9.956195 -5.427077,13.16302 l -0.184077,1.124479 h 1.558807 c 1.842049,0 3.908028,0.90284 4.979296,2.175969 0.66323,0.788205 0.742785,0.810333 2.724946,0.757937 1.784197,-0.04716 2.220903,0.03974 3.461754,0.688874 1.589629,0.831593 3.08744,2.470013 2.842222,3.109041 -0.136712,0.356267 -0.847416,0.403326 -5.259605,0.348262 -2.805843,-0.03502 -11.143954,-0.09564 -18.529136,-0.134716 z"
       id="path47199" />
    <path
       style="fill:#f2dcc5"
       d="M 6.9958722,81.42609 C -6.2547962,81.36988 -9.0775644,81.295441 -9.0775644,81.002196 c 0,-0.804509 1.2635964,-2.191086 2.6461083,-2.903643 1.2934231,-0.666639 1.6503937,-0.734667 3.2157042,-0.612816 1.5492606,0.120601 1.819414,0.07099 2.24895822,-0.413009 0.7430415,-0.837237 2.60157308,-1.560833 4.03751408,-1.571956 1.3680016,-0.0106 3.3502984,0.716987 3.9575486,1.452582 0.1997193,0.241931 0.5395333,0.439874 0.7551422,0.439874 0.3286981,0 0.3638797,-0.352566 0.2178166,-2.182813 C 7.2132867,65.337106 5.5010364,58.281103 2.4416791,52.300102 l -1.48010712,-2.893589 -0.9673917,0.218182 c -1.04592188,0.235894 -1.92799508,-0.06167 -1.92799508,-0.65041 0,-0.194971 -0.3571875,-0.425931 -0.79375,-0.513243 -0.6729644,-0.134593 -0.7937499,-0.281089 -0.7937499,-0.962705 0,-0.442175 -0.1477026,-1.040464 -0.328228,-1.329531 -0.2612485,-0.418325 -0.2612485,-0.632828 0,-1.051153 0.1805254,-0.289067 0.328228,-0.762572 0.328228,-1.052234 0,-0.289661 0.2863217,-0.714262 0.6362705,-0.943558 0.3499488,-0.229295 0.7118322,-0.717962 0.8041853,-1.085926 0.1537692,-0.612665 0.2539044,-0.654497 1.18865977,-0.496571 0.62426262,0.105468 1.08874247,0.06243 1.19580454,-0.110799 0.32717284,-0.529377 1.20804039,-0.302242 1.46674619,0.378206 0.1719274,0.452204 0.4525638,0.661459 0.8870962,0.661459 0.7116779,0 1.3665783,0.622597 1.1031874,1.048772 -0.094566,0.153012 0.024942,0.475084 0.2655733,0.715715 0.3098472,0.309848 0.38888,0.675978 0.2708481,1.254742 -0.091665,0.449476 -0.2511889,1.293479 -0.354497,1.875562 -0.1690256,0.952364 -0.273319,1.066589 -1.0415943,1.140785 l -0.8537612,0.08245 1.5512517,3.094553 c 0.8531885,1.702003 1.9070068,4.105681 2.3418186,5.341506 1.1223226,3.189872 2.4012064,8.872581 2.7981176,12.433411 l 0.3391583,3.042708 0.1824151,-8.598958 C 9.3602937,59.170052 9.4425802,52.661302 9.4428242,49.43559 9.4431605,44.989954 9.5233033,43.539088 9.7739971,43.440195 9.9558981,43.368439 9.80707,43.317621 9.4432679,43.327267 9.0794658,43.336912 8.3948565,43.251754 7.9219138,43.138027 7.187653,42.961461 7.062018,42.814709 7.062018,42.133596 c 0,-0.43871 -0.172077,-0.929843 -0.3823935,-1.091406 -0.659732,-0.506801 -0.7805449,-1.644355 -0.2328089,-2.192091 0.2689431,-0.268943 0.4480229,-0.701699 0.3979551,-0.96168 -0.1169082,-0.607056 0.4093854,-1.241022 1.0302469,-1.241022 0.2659925,0 0.5788358,-0.157807 0.6952073,-0.350682 0.3375876,-0.55952 1.0456274,-0.700968 1.5741801,-0.314481 0.330241,0.241479 0.590434,0.271803 0.804904,0.09381 0.551979,-0.458102 1.528581,-0.147126 1.622723,0.516718 0.06494,0.457955 0.207669,0.568225 0.581779,0.449487 0.610226,-0.193679 1.63346,0.748399 1.419232,1.306667 -0.08244,0.214833 0.03932,0.660744 0.270585,0.990915 0.594286,0.848462 0.523222,1.412717 -0.240985,1.913444 -0.363802,0.238373 -0.661459,0.650332 -0.661459,0.915465 0,0.86367 -1.002135,1.490116 -2.383762,1.490116 -0.69843,0 -1.143186,0.0783 -0.988346,0.173993 0.28496,0.176115 0.104376,24.716639 -0.217752,29.59163 -0.133116,2.014526 -0.107742,2.198558 0.243416,1.765459 0.215612,-0.265925 0.592604,-1.397019 0.83776,-2.513542 0.783708,-3.569266 2.829168,-8.537281 5.102372,-12.392645 0.747667,-1.268045 0.759802,-1.337831 0.284284,-1.634797 -0.57308,-0.357895 -0.698151,-2.040764 -0.165993,-2.233482 0.263049,-0.09526 0.263927,-0.232994 0.0043,-0.673047 -0.428769,-0.726712 -0.240431,-1.144555 0.938111,-2.08128 1.418627,-1.127548 1.475752,-1.146522 2.247088,-0.746348 0.410566,0.213004 0.767688,0.262516 0.85654,0.118751 0.234743,-0.379822 1.07685,-0.292171 1.444074,0.150307 0.181158,0.218281 0.548735,0.396875 0.816838,0.396875 0.672219,0 1.13143,0.9134 0.784817,1.561052 -0.203679,0.380576 -0.173798,0.539269 0.122982,0.653154 0.504274,0.193508 0.511851,1.590307 0.01088,2.006075 -0.209631,0.173978 -0.319526,0.47691 -0.24421,0.67318 0.228628,0.595795 -0.404486,1.456539 -1.071346,1.456539 -0.340864,0 -0.767972,0.178593 -0.949129,0.396875 -0.407988,0.491594 -1.751195,0.521044 -2.037374,0.04467 -0.116372,-0.193713 -0.591725,-0.538376 -1.056342,-0.765919 -0.789295,-0.386551 -0.826171,-0.383952 -0.561668,0.03958 0.220196,0.35259 0.135223,0.687533 -0.382477,1.507622 -1.70105,2.694637 -3.411609,6.726686 -4.417838,10.413517 -0.801875,2.938078 -0.809725,2.914705 0.98122,2.921545 1.862412,0.0071 3.514805,0.707587 4.744215,2.011142 0.886793,0.940274 0.917245,0.949666 3.201848,0.987529 2.004895,0.03323 2.469726,0.134153 3.554346,0.77173 1.441903,0.8476 2.720651,2.37734 2.489914,2.978632 -0.129627,0.337804 -0.590333,0.396681 -2.609031,0.33343 -1.348383,-0.04225 -9.684652,-0.107497 -18.5250418,-0.144995 z"
       id="path47183" />
    <path
       style="fill:#e4ccae"
       d="M 10.501601,43.541473 C 10.28332,43.392208 9.725524,43.268259 9.2620547,43.266031 8.7985854,43.263803 8.1005113,43.140745 7.7107791,42.992569 7.1404523,42.775731 7.027019,42.593195 7.1294888,42.057159 7.218942,41.589215 7.109817,41.312495 6.7625354,41.126635 6.1613192,40.804874 6.0540841,38.829645 6.6259188,38.610212 c 0.218591,-0.08388 0.3094299,-0.389495 0.2336304,-0.786014 -0.1036375,-0.542145 0.030289,-0.713245 0.8148817,-1.041069 0.5163961,-0.215764 1.0136016,-0.513165 1.1049011,-0.66089 0.2141664,-0.346529 1.376801,-0.348936 1.59042,-0.0033 0.109604,0.177343 0.328311,0.177343 0.659679,0 0.819015,-0.438323 1.304571,-0.303552 1.484148,0.411941 0.09349,0.372481 0.304115,0.626251 0.468062,0.563933 0.672665,-0.255688 1.488661,0.325003 1.497125,1.065406 0.0046,0.404871 0.183221,0.967246 0.396875,1.24972 0.576635,0.762381 0.472313,1.443923 -0.272998,1.78351 -0.411716,0.18759 -0.661459,0.519605 -0.661459,0.879362 0,0.31789 -0.228883,0.785119 -0.50863,1.038286 -0.608908,0.551054 -2.375193,0.810408 -2.930953,0.43037 z"
       id="path47156" />
    <path
       style="fill:#e4ccae"
       d="m 19.426533,60.195312 c -0.249197,-0.291042 -0.622924,-0.529167 -0.830502,-0.529167 -0.207579,0 -0.417104,-0.100573 -0.465611,-0.223495 -0.04851,-0.122923 -0.445382,-0.391929 -0.881944,-0.597791 -0.824672,-0.388876 -1.138596,-1.229772 -0.762407,-2.042226 0.113015,-0.244079 0.211727,-0.91486 0.219361,-1.490625 0.01042,-0.785864 0.150933,-1.116091 0.563626,-1.324598 0.30236,-0.152763 0.757349,-0.485354 1.011086,-0.739091 0.519087,-0.519087 1.238221,-0.599161 1.653292,-0.18409 0.193278,0.193278 0.490573,0.180054 0.981575,-0.04366 0.612093,-0.278888 0.781941,-0.247996 1.297021,0.235897 0.578625,0.543589 0.677244,0.588848 1.283101,0.588848 0.179205,0 0.251768,0.357725 0.186305,0.918461 -0.06906,0.591551 0.01481,0.965291 0.235636,1.05003 0.469515,0.18017 0.433306,1.59582 -0.0511,1.997841 -0.216679,0.179828 -0.33489,0.42254 -0.26269,0.539361 0.293275,0.474531 -0.396045,1.579828 -0.990445,1.588138 -0.331024,0.0046 -0.832977,0.183222 -1.115452,0.396875 -0.714523,0.540438 -1.535394,0.484663 -2.070852,-0.140706 z"
       id="path47155" />
    <path
       style="fill:#e4ccae"
       d="m -9.0775644,81.00423 c 0,-0.712868 1.2373419,-2.170497 2.3914896,-2.817252 0.966917,-0.541836 1.5392518,-0.661459 3.1647601,-0.661459 1.7455429,0 2.095971,-0.08539 2.91158983,-0.70945 1.27094431,-0.972452 2.17637267,-1.275933 3.78636327,-1.269114 1.4384274,0.0061 3.2353263,0.662718 3.8516306,1.407467 0.1997193,0.241343 0.5412235,0.438806 0.7588983,0.438806 0.3348361,0 0.3681219,-0.356452 0.2161872,-2.315104 C 7.2569243,65.455586 5.5672713,58.509744 2.4711362,52.336227 l -1.4615859,-2.914319 -1.31172095,0.126039 c -1.11911115,0.107533 -1.33511245,0.05234 -1.47102255,-0.375875 -0.087616,-0.276053 -0.5261967,-0.640402 -0.974624,-0.809664 -0.6459989,-0.243838 -0.7979113,-0.440614 -0.7314853,-0.947514 0.04611,-0.35187 -0.081489,-0.838969 -0.2835532,-1.082442 -0.3135668,-0.377825 -0.3130949,-0.544138 0.00322,-1.135227 0.2038362,-0.380902 0.3345279,-0.905741 0.290426,-1.166307 -0.046773,-0.276349 0.2012871,-0.658186 0.5953125,-0.916361 0.3715238,-0.243432 0.6754978,-0.592925 0.6754978,-0.776652 0,-0.651952 0.7585839,-1.028971 1.44295183,-0.717152 0.49869426,0.227221 0.70327021,0.204626 0.96119962,-0.10616 0.48913654,-0.589373 1.38468625,-0.346762 1.56684365,0.42447 0.1250085,0.52927 0.2953894,0.644931 0.8525737,0.578758 0.7070996,-0.08398 1.3050911,0.559472 1.0849914,1.167469 -0.057943,0.160061 0.077208,0.44253 0.3003358,0.62771 0.505223,0.419297 0.5092165,1.303515 0.00887,1.964521 -0.2089917,0.2761 -0.3130587,0.610289 -0.2312599,0.742642 0.081799,0.132353 0.075716,0.531531 -0.013516,0.887062 -0.128731,0.512906 -0.3388078,0.650262 -1.0170962,0.665017 -0.4701702,0.01023 -1.0929799,0.13094 -1.3840215,0.268249 -0.46070642,0.217355 -0.43815449,0.237407 0.1743162,0.154997 0.6628969,-0.0892 0.7951545,0.09758 2.2924433,3.23748 0.8739282,1.832675 1.8813439,4.165573 2.2387014,5.184219 1.2474366,3.555811 2.7239598,10.785092 2.8910891,14.155208 0.1013487,2.043668 0.3425279,-8.69555 0.4155786,-18.504867 0.038406,-5.157209 0.1020569,-9.408971 0.1414462,-9.44836 0.039389,-0.03939 0.3533914,0.0021 0.6977822,0.09213 L 10.851,43.875043 10.677303,57.39299 c -0.09553,7.434871 -0.248269,14.589509 -0.339414,15.899196 -0.147651,2.121656 -0.122223,2.337985 0.233259,1.984375 0.219436,-0.218281 0.603301,-1.349375 0.853033,-2.513541 0.635602,-2.962964 2.030547,-6.621318 3.884139,-10.186458 1.866993,-3.590916 1.941265,-3.684159 2.494172,-3.131252 0.380871,0.380871 0.288212,0.661505 -1.044569,3.163661 -1.689131,3.171165 -2.875311,6.124775 -3.617446,9.007507 -0.743238,2.887017 -0.748676,2.866333 0.753575,2.866333 1.880584,0 3.667992,0.710443 4.908559,1.951011 1.063456,1.063456 1.109821,1.080368 2.733021,0.996893 2.288112,-0.117669 4.09574,0.526276 5.544691,1.975227 2.103978,2.103978 3.427927,1.956036 -17.5047634,1.956036 -15.4974447,0 -18.653124,-0.06052 -18.653124,-0.357748 z"
       id="path47152" />
    <path
       style="fill:#f5b8af"
       d="m -9.0765754,81.031248 c 0.0022,-0.737161 1.0979225,-2.052124 2.2975341,-2.757254 1.091971,-0.641859 1.5560129,-0.748475 3.2577266,-0.748475 1.7455429,0 2.095971,-0.08539 2.91158983,-0.70945 1.27094431,-0.972452 2.17637267,-1.275933 3.78636327,-1.269114 1.4384274,0.0061 3.2353263,0.662718 3.8516306,1.407467 0.5830327,0.704544 1.0920823,0.535587 1.0920823,-0.362469 0,-1.792535 -0.8567903,-8.78444 -1.4451528,-11.793283 C 5.850796,60.582735 4.1804563,55.618252 2.406287,52.110866 1.6199601,50.556363 0.97660169,49.239118 0.97660169,49.183655 c 0,-0.05546 0.30441721,-0.100842 0.67648271,-0.100842 0.6037384,0 0.8445033,0.34853 2.2389857,3.241145 2.5384489,5.265579 4.1770342,11.127775 4.8469346,17.340373 l 0.3341296,3.098689 0.1850668,-6.45899 c 0.1017867,-3.552444 0.1850668,-10.143385 0.1850668,-14.646536 0,-7.357269 0.04244,-8.17126 0.4185146,-8.026947 0.2301835,0.08833 0.5472915,0.160599 0.7046845,0.160599 0.296639,0 0.109144,23.74571 -0.230849,29.236457 -0.144177,2.328393 -0.117242,2.598217 0.224504,2.248958 0.213586,-0.218281 0.657162,-1.527968 0.985726,-2.910416 0.328563,-1.382448 1.06821,-3.704167 1.643658,-5.159375 1.138229,-2.878378 3.82295,-8.069791 4.173265,-8.069791 0.119783,0 0.352961,0.162875 0.518174,0.361945 0.233623,0.281498 -0.07714,1.09009 -1.398193,3.63802 -1.716346,3.310342 -2.990136,6.664329 -3.680949,9.692222 l -0.377278,1.653645 h 1.372655 c 1.947251,0 3.649976,0.663332 4.955875,1.930664 1.126514,1.093245 1.127926,1.093727 2.986234,1.019807 1.66124,-0.06608 2.042291,0.0194 3.578978,0.802891 1.541911,0.786153 2.910417,2.149925 2.910417,2.900349 0,0.124 -8.393906,0.225456 -18.6531244,0.225456 -14.7466378,0 -18.6529169,-0.06926 -18.652135,-0.33073 z"
       id="path47130" />
    <path
       style="fill:#abc596"
       d="m -9.0765754,81.031248 c 0.0022,-0.737161 1.0979225,-2.052124 2.2975341,-2.757254 1.091971,-0.641859 1.5560129,-0.748475 3.2577266,-0.748475 1.7455429,0 2.095971,-0.08539 2.91158983,-0.70945 1.27094431,-0.972452 2.17637267,-1.275933 3.78636327,-1.269114 1.4384274,0.0061 3.2353263,0.662718 3.8516306,1.407467 0.5830327,0.704544 1.0920823,0.535587 1.0920823,-0.362469 0,-1.792535 -0.8567903,-8.78444 -1.4451528,-11.793283 C 5.850796,60.582735 4.1804563,55.618252 2.406287,52.110866 1.6199601,50.556363 0.97660169,49.239118 0.97660169,49.183655 c 0,-0.05546 0.30441721,-0.100842 0.67648271,-0.100842 0.6037384,0 0.8445033,0.34853 2.2389857,3.241145 2.5384489,5.265579 4.1770342,11.127775 4.8469346,17.340373 l 0.3341296,3.098689 0.1850668,-6.45899 c 0.1017867,-3.552444 0.1850668,-10.143385 0.1850668,-14.646536 0,-7.357269 0.04244,-8.17126 0.4185146,-8.026947 0.2301835,0.08833 0.5472915,0.160599 0.7046845,0.160599 0.296639,0 0.109144,23.74571 -0.230849,29.236457 -0.144177,2.328393 -0.117242,2.598217 0.224504,2.248958 0.213586,-0.218281 0.657162,-1.527968 0.985726,-2.910416 0.328563,-1.382448 1.06821,-3.704167 1.643658,-5.159375 1.138229,-2.878378 3.82295,-8.069791 4.173265,-8.069791 0.119783,0 0.352961,0.162875 0.518174,0.361945 0.233623,0.281498 -0.07714,1.09009 -1.398193,3.63802 -1.716346,3.310342 -2.990136,6.664329 -3.680949,9.692222 l -0.377278,1.653645 h 1.372655 c 1.947251,0 3.649976,0.663332 4.955875,1.930664 1.126514,1.093245 1.127926,1.093727 2.986234,1.019807 1.66124,-0.06608 2.042291,0.0194 3.578978,0.802891 1.541911,0.786153 2.910417,2.149925 2.910417,2.900349 0,0.124 -8.393906,0.225456 -18.6531244,0.225456 -14.7466378,0 -18.6529169,-0.06926 -18.652135,-0.33073 z"
       id="path47110" />
    <path
       style="fill:#a3b08f"
       d="m -9.0775644,81.062478 c 0,-0.702586 1.1951281,-2.139776 2.3381301,-2.811695 1.0487186,-0.616495 1.5313436,-0.725264 3.2181196,-0.725264 1.7455429,0 2.095971,-0.08539 2.91158983,-0.70945 1.27094431,-0.972452 2.17637267,-1.275933 3.78636327,-1.269114 1.4384274,0.0061 3.2353263,0.662718 3.8516306,1.407467 0.1997193,0.241343 0.5413,0.438806 0.7590682,0.438806 0.337035,0 0.3685829,-0.383799 0.2120481,-2.579688 C 7.3644908,65.907165 5.4740053,58.177996 2.468847,52.202172 1.6850634,50.643601 1.1080445,49.304148 1.1865827,49.225609 c 0.078538,-0.07854 0.3599924,-0.142796 0.6254539,-0.142796 0.3461959,0 0.8549843,0.741948 1.799562,2.624239 2.5204694,5.022621 4.4221764,11.70501 5.1263019,18.01326 L 9.077527,72.76302 9.2603975,66.700991 C 9.3609762,63.366875 9.4432679,56.805182 9.4432679,52.119452 v -8.519509 l 0.7040891,0.134596 0.704089,0.134595 -0.176781,13.047096 c -0.09723,7.175902 -0.250157,14.33187 -0.339838,15.902151 -0.144486,2.529884 -0.118164,2.809854 0.231116,2.45818 0.216796,-0.218281 0.656636,-1.468437 0.977422,-2.778125 0.320786,-1.309687 1.045886,-3.609248 1.611334,-5.110136 1.070379,-2.841144 3.829503,-8.251321 4.208072,-8.251321 0.119783,0 0.353909,0.164018 0.520281,0.364484 0.23634,0.284772 -0.0432,1.02266 -1.278204,3.374 -1.708585,3.252998 -3.157243,6.997454 -3.788876,9.793394 l -0.397133,1.757921 1.75336,0.106922 c 2.046922,0.124823 3.439856,0.726957 4.712082,2.036926 0.899287,0.925966 0.941539,0.938876 2.816607,0.860623 1.723048,-0.07191 2.065739,0.0045 3.612606,0.80524 1.523963,0.788906 2.91519,2.1729 2.91519,2.900033 0,0.124 -8.393906,0.225456 -18.6531244,0.225456 -13.7087635,0 -18.653124,-0.07939 -18.653124,-0.2995 z"
       id="path47088" />
    <path
       style="fill:#f9c31a"
       d="m -9.0775644,81.062478 c 0,-0.594294 1.1029526,-2.066154 1.9315657,-2.577621 1.3360804,-0.824705 3.1900346,-1.199164 4.4073209,-0.890183 0.9109239,0.231217 1.1048564,0.196727 1.5198244,-0.270289 0.80265319,-0.903328 2.9938876,-1.778382 4.4444133,-1.774845 1.3946551,0.0034 3.1926228,0.667647 3.8027091,1.404882 0.1997193,0.241343 0.5271412,0.438806 0.7276042,0.438806 0.4733258,0 0.4668892,-0.885501 -0.041885,-5.762212 C 6.9044224,63.871156 5.3425109,58.031704 2.5886993,52.469315 1.0695085,49.400721 1.0210237,49.082813 2.0722174,49.082813 c 0.406393,0 3.0146087,5.654161 4.0757235,8.835464 1.152088,3.454048 2.3735828,9.215695 2.6776756,12.63028 l 0.2207764,2.479046 0.1618349,-4.365625 c 0.089009,-2.401093 0.1783061,-9.022317 0.1984375,-14.71383 l 0.036603,-10.348205 0.7037937,0.134539 0.703795,0.134539 -0.177552,12.594916 c -0.09765,6.927204 -0.250333,14.083197 -0.339287,15.902208 -0.144484,2.954528 -0.11894,3.26496 0.239483,2.910416 0.22067,-0.218281 0.701099,-1.606308 1.067619,-3.084505 0.366521,-1.478196 1.107627,-3.799915 1.646903,-5.159374 1.030093,-2.596757 3.78531,-7.895703 4.105416,-7.895703 0.102915,0 0.330873,0.173213 0.506573,0.384919 0.258343,0.311285 0.09669,0.78105 -0.845056,2.455674 -2.017614,3.587761 -3.876483,8.467667 -4.51157,11.843781 l -0.149314,0.79375 1.765744,0.01218 c 2.027553,0.01399 3.357551,0.585469 4.758822,2.044788 0.867045,0.902963 0.896046,0.911314 2.713345,0.781286 1.672397,-0.119659 1.991084,-0.05554 3.557954,0.715825 1.147446,0.564886 1.940605,1.170402 2.379884,1.81686 0.362375,0.533281 0.658863,1.061027 0.658863,1.172767 0,0.111741 -8.393906,0.203165 -18.653124,0.203165 -13.7087635,0 -18.653124,-0.07939 -18.653124,-0.2995 z"
       id="path47066" />
    <path
       style="fill:#f3b412"
       d="m -9.0775644,81.062478 c 0,-0.594294 1.1029526,-2.066154 1.9315657,-2.577621 1.3360804,-0.824705 3.1900346,-1.199164 4.4073209,-0.890183 0.9109239,0.231217 1.1048564,0.196727 1.5198244,-0.270289 0.80265319,-0.903328 2.9938876,-1.778382 4.4444133,-1.774845 1.3946551,0.0034 3.1926228,0.667647 3.8027091,1.404882 0.1997193,0.241343 0.5271412,0.438806 0.7276042,0.438806 0.4733258,0 0.4668892,-0.885501 -0.041885,-5.762212 C 6.9044224,63.871156 5.3425109,58.031704 2.5886993,52.469315 1.0695085,49.400721 1.0210237,49.082813 2.0722174,49.082813 c 0.406393,0 3.0146087,5.654161 4.0757235,8.835464 1.152088,3.454048 2.3735828,9.215695 2.6776756,12.63028 l 0.2207764,2.479046 0.1618349,-4.365625 c 0.089009,-2.401093 0.1783061,-9.022317 0.1984375,-14.71383 l 0.036603,-10.348205 0.7037937,0.134539 0.703795,0.134539 -0.177552,12.594916 c -0.09765,6.927204 -0.250333,14.083197 -0.339287,15.902208 -0.144484,2.954528 -0.11894,3.26496 0.239483,2.910416 0.22067,-0.218281 0.701099,-1.606308 1.067619,-3.084505 0.366521,-1.478196 1.107627,-3.799915 1.646903,-5.159374 1.030093,-2.596757 3.78531,-7.895703 4.105416,-7.895703 0.102915,0 0.330873,0.173213 0.506573,0.384919 0.258343,0.311285 0.09669,0.78105 -0.845056,2.455674 -2.017614,3.587761 -3.876483,8.467667 -4.51157,11.843781 l -0.149314,0.79375 1.765744,0.01218 c 2.027553,0.01399 3.357551,0.585469 4.758822,2.044788 0.867045,0.902963 0.896046,0.911314 2.713345,0.781286 1.672397,-0.119659 1.991084,-0.05554 3.557954,0.715825 1.147446,0.564886 1.940605,1.170402 2.379884,1.81686 0.362375,0.533281 0.658863,1.061027 0.658863,1.172767 0,0.111741 -8.393906,0.203165 -18.653124,0.203165 -13.7087635,0 -18.653124,-0.07939 -18.653124,-0.2995 z"
       id="path47044" />
    <path
       style="fill:#8aa176"
       d="m -9.0775644,81.062478 c 0,-0.594294 1.1029526,-2.066154 1.9315657,-2.577621 1.3360804,-0.824705 3.1900346,-1.199164 4.4073209,-0.890183 0.9109239,0.231217 1.1048564,0.196727 1.5198244,-0.270289 0.80265319,-0.903328 2.9938876,-1.778382 4.4444133,-1.774845 1.3946551,0.0034 3.1926228,0.667647 3.8027091,1.404882 0.1997193,0.241343 0.5271412,0.438806 0.7276042,0.438806 0.4733258,0 0.4668892,-0.885501 -0.041885,-5.762212 C 6.9044224,63.871156 5.3425109,58.031704 2.5886993,52.469315 1.0695085,49.400721 1.0210237,49.082813 2.0722174,49.082813 c 0.406393,0 3.0146087,5.654161 4.0757235,8.835464 1.152088,3.454048 2.3735828,9.215695 2.6776756,12.63028 l 0.2207764,2.479046 0.1618349,-4.365625 c 0.089009,-2.401093 0.1783061,-9.022317 0.1984375,-14.71383 l 0.036603,-10.348205 0.7037937,0.134539 0.703795,0.134539 -0.177552,12.594916 c -0.09765,6.927204 -0.250333,14.083197 -0.339287,15.902208 -0.144484,2.954528 -0.11894,3.26496 0.239483,2.910416 0.22067,-0.218281 0.701099,-1.606308 1.067619,-3.084505 0.366521,-1.478196 1.107627,-3.799915 1.646903,-5.159374 1.030093,-2.596757 3.78531,-7.895703 4.105416,-7.895703 0.102915,0 0.330873,0.173213 0.506573,0.384919 0.258343,0.311285 0.09669,0.78105 -0.845056,2.455674 -2.017614,3.587761 -3.876483,8.467667 -4.51157,11.843781 l -0.149314,0.79375 1.765744,0.01218 c 2.027553,0.01399 3.357551,0.585469 4.758822,2.044788 0.867045,0.902963 0.896046,0.911314 2.713345,0.781286 1.672397,-0.119659 1.991084,-0.05554 3.557954,0.715825 1.147446,0.564886 1.940605,1.170402 2.379884,1.81686 0.362375,0.533281 0.658863,1.061027 0.658863,1.172767 0,0.111741 -8.393906,0.203165 -18.653124,0.203165 -13.7087635,0 -18.653124,-0.07939 -18.653124,-0.2995 z"
       id="path47021" />
    <path
       style="fill:#8e7867"
       d="m -9.0775644,81.062478 c 0,-0.594294 1.1029526,-2.066154 1.9315657,-2.577621 1.3360804,-0.824705 3.1900346,-1.199164 4.4073209,-0.890183 0.9109239,0.231217 1.1048564,0.196727 1.5198244,-0.270289 0.80265319,-0.903328 2.9938876,-1.778382 4.4444133,-1.774845 1.3946551,0.0034 3.1926228,0.667647 3.8027091,1.404882 0.1997193,0.241343 0.5441617,0.438806 0.7654275,0.438806 0.3455764,0 0.3768737,-0.382393 0.2219646,-2.711979 C 7.419971,65.723021 5.3478354,57.511228 2.1784611,51.548653 1.0443961,49.415126 1.02436,49.082813 2.0297884,49.082813 c 0.3416997,0 2.4988363,4.377866 3.5510128,7.20671 1.6185664,4.351619 3.2051687,11.805975 3.3814859,15.887281 0.1255978,2.90728 0.4117166,-8.744304 0.4443782,-18.096364 l 0.036603,-10.480497 0.7036877,0.134519 0.703688,0.134518 -0.175743,11.933479 c -0.09666,6.563412 -0.253983,13.719415 -0.349609,15.902227 -0.157275,3.590048 -0.134176,3.93598 0.242071,3.625322 0.228766,-0.188886 0.619526,-1.260449 0.868356,-2.38125 0.674597,-3.03858 1.83775,-6.163399 3.609451,-9.69682 2.068844,-4.126033 2.120896,-4.197998 2.719706,-3.760137 0.442547,0.323598 0.395045,0.483008 -0.740048,2.483451 -1.925777,3.393914 -3.846625,8.471424 -4.481442,11.846101 l -0.149314,0.79375 1.765744,0.01132 c 2.009223,0.01288 3.081162,0.458959 4.600752,1.914569 0.959265,0.918877 1.03569,0.942068 3.174999,0.963419 1.912521,0.01909 2.373074,0.122079 3.611344,0.807588 1.230185,0.681033 2.681773,2.221955 2.681773,2.846815 0,0.111741 -8.393906,0.203165 -18.653124,0.203165 -13.7087635,0 -18.653124,-0.07939 -18.653124,-0.2995 z"
       id="path47006" />
    <path
       style="fill:#6e8a5f"
       d="m -8.9339153,80.766665 c 0.1964008,-0.652059 1.5717515,-2.212024 2.2999641,-2.608688 0.8131437,-0.442928 2.8108096,-0.700506 3.8950886,-0.502232 0.8494935,0.155341 1.1399829,0.09829 1.4945879,-0.293547 0.2420845,-0.267501 1.04278725,-0.78667 1.77933943,-1.153709 C 2.612502,75.173258 4.8353277,75.374661 6.7136354,76.768309 8.1491307,77.833404 8.2159811,77.714281 8.0099559,74.458354 7.4628074,65.811473 5.5593279,58.146349 2.4476198,52.059375 1.6851082,50.567786 1.1515173,49.347396 1.2618621,49.347396 c 0.1103449,0 0.3715775,-0.0656 0.580517,-0.145778 0.4307848,-0.165307 2.8353319,4.49303 3.9826643,7.715629 1.4170031,3.980044 2.9430373,11.602241 3.1354542,15.660886 0.1397268,2.947257 0.420828,-8.223932 0.4495227,-17.864399 l 0.033248,-11.170119 0.5953117,0.22163 0.595313,0.22163 -0.06747,10.022447 C 10.489543,65.430684 10.27222,74.631924 10.060995,75.408853 L 9.9171335,75.93802 10.449397,75.408853 c 0.315979,-0.31414 0.768617,-1.496786 1.113913,-2.910417 0.916036,-3.750224 2.729275,-8.117472 5.069875,-12.21097 0.560703,-0.980618 0.679226,-1.06108 1.104714,-0.749956 0.44732,0.327089 0.400906,0.479789 -0.754905,2.483624 -1.581383,2.741651 -3.169839,6.638738 -3.985793,9.778664 -0.353934,1.361998 -0.643363,2.552623 -0.643176,2.645833 1.87e-4,0.09321 0.803859,0.174955 1.785937,0.181656 2.057548,0.01404 3.372327,0.580308 4.800906,2.067724 0.879248,0.91546 0.933496,0.932511 2.513542,0.790039 2.213709,-0.19961 4.216187,0.560741 5.691251,2.160997 0.595662,0.646217 1.083023,1.296663 1.083023,1.445436 0,0.181715 -6.128007,0.270495 -18.6709541,0.270495 H -9.1132238 Z"
       id="path46991" />
    <path
       style="fill:#527448"
       d="m -8.9339153,80.766665 c 0.1964008,-0.652059 1.5717515,-2.212024 2.2999641,-2.608688 0.8250821,-0.449431 2.8578984,-0.706802 3.8375198,-0.485861 0.8236592,0.185765 1.0734405,0.119592 1.77067,-0.469092 2.3948367,-2.022007 5.3745312,-2.189374 7.7393968,-0.434715 1.4354953,1.065095 1.5023457,0.945972 1.2963205,-2.309955 C 7.4628074,65.811473 5.5593279,58.146349 2.4476198,52.059375 1.6851082,50.567786 1.1515173,49.347396 1.2618621,49.347396 c 0.1103449,0 0.3703998,-0.06515 0.5778999,-0.144773 0.4170327,-0.160031 2.5389204,3.85793 3.7749413,7.148147 1.4649839,3.899704 2.7309092,9.781025 3.2194295,14.957041 L 9.0463929,73.55677 9.2115828,69.720312 C 9.3024372,67.61026 9.3917341,60.8573 9.4100203,54.713734 l 0.033248,-11.170119 0.5953117,0.221753 0.595313,0.221753 -0.06606,9.62545 c -0.07792,11.353638 -0.303144,21.05379 -0.506073,21.796282 L 9.9171335,75.93802 10.449397,75.408853 c 0.315979,-0.31414 0.768617,-1.496786 1.113913,-2.910417 0.916036,-3.750224 2.729275,-8.117472 5.069875,-12.21097 0.558349,-0.976501 0.680533,-1.060124 1.100398,-0.753111 0.440959,0.322437 0.382457,0.503392 -0.881391,2.726244 -1.632592,2.871397 -2.976515,6.200989 -3.850308,9.539199 -0.35651,1.361998 -0.648046,2.552623 -0.647859,2.645833 1.87e-4,0.09321 0.803859,0.174955 1.785937,0.181656 2.057548,0.01404 3.372327,0.580308 4.800906,2.067724 0.879248,0.91546 0.933496,0.932511 2.513542,0.790039 2.213709,-0.19961 4.216187,0.560741 5.691251,2.160997 0.595662,0.646217 1.083023,1.296663 1.083023,1.445436 0,0.181715 -6.128007,0.270495 -18.6709541,0.270495 H -9.1132238 Z"
       id="path46976" />
    <path
       style="fill:#4d7245"
       d="m -8.9339153,80.766665 c 0.2500841,-0.83029 1.6187031,-2.21223 2.6982447,-2.724506 0.6291303,-0.298542 1.446625,-0.404851 2.6763581,-0.34804 1.5820686,0.07309 1.8699639,0.006 2.70445172,-0.630529 2.16080588,-1.648127 4.24688798,-1.932548 6.49539528,-0.885595 0.7461527,0.347424 1.4377888,0.762979 1.536969,0.923456 0.09918,0.160477 0.3518947,0.291777 0.5615877,0.291777 0.4997666,0 0.4974881,-1.692315 -0.00837,-6.219705 C 6.8946733,63.69106 5.130689,57.280139 2.4933087,52.138992 1.7056682,50.603614 1.1515173,49.347396 1.2618621,49.347396 c 0.1103449,0 0.367223,-0.06393 0.5708403,-0.142064 0.49905,-0.191504 3.0332117,4.93313 4.2570683,8.60873 1.2162326,3.652703 2.2273992,8.519167 2.6307573,12.661103 l 0.3258649,3.346188 0.1651899,-3.836458 c 0.090854,-2.110052 0.1801513,-8.915233 0.1984375,-15.122625 0.032926,-11.176977 0.038407,-11.284818 0.5665375,-11.146708 0.2933092,0.0767 0.5837372,0.221083 0.6453942,0.320847 0.183482,0.296879 -0.342499,30.817831 -0.540829,31.382566 -0.1765244,0.502645 -0.1642978,0.501989 0.386959,-0.02075 0.379519,-0.359886 0.784793,-1.429989 1.215972,-3.21071 0.781473,-3.227395 2.056428,-6.467848 3.930846,-9.990726 1.432375,-2.692079 1.650715,-2.943486 2.234777,-2.573234 0.252442,0.160029 -0.0037,0.824935 -1.024286,2.658967 -1.658385,2.980159 -2.961285,6.22327 -3.823507,9.517276 -0.35651,1.361998 -0.6482,2.564912 -0.6482,2.67314 0,0.108228 0.565547,0.143762 1.256771,0.07896 1.771892,-0.166104 3.986013,0.710429 5.206222,2.061054 0.932761,1.032455 0.970359,1.046537 2.35857,0.88338 2.197929,-0.258323 4.239522,0.446965 5.79423,2.001673 0.692563,0.692564 1.259207,1.395278 1.259207,1.561588 0,0.223929 -4.844128,0.302381 -18.6709541,0.302381 H -9.1132238 Z"
       id="path46942" />
    <path
       style="fill:#4c6c44"
       d="m -8.9339153,80.766665 c 0.2500841,-0.83029 1.6187031,-2.21223 2.6982447,-2.724506 0.6291303,-0.298542 1.446625,-0.404851 2.6763581,-0.34804 1.5820686,0.07309 1.8699639,0.006 2.70445172,-0.630529 2.16080588,-1.648127 4.24688798,-1.932548 6.49539528,-0.885595 0.7461527,0.347424 1.4377888,0.762979 1.536969,0.923456 0.09918,0.160477 0.3518947,0.291777 0.5615877,0.291777 0.4997666,0 0.4974881,-1.692315 -0.00837,-6.219705 C 6.8946733,63.69106 5.130689,57.280139 2.4933087,52.138992 1.7056682,50.603614 1.1515173,49.347396 1.2618621,49.347396 c 0.1103449,0 0.367223,-0.06393 0.5708403,-0.142064 0.49905,-0.191504 3.0332117,4.93313 4.2570683,8.60873 1.2162326,3.652703 2.2273992,8.519167 2.6307573,12.661103 l 0.3258649,3.346188 0.1651899,-3.836458 c 0.090854,-2.110052 0.1801513,-8.915233 0.1984375,-15.122625 0.032926,-11.176977 0.038407,-11.284818 0.5665375,-11.146708 0.2933092,0.0767 0.5837372,0.221083 0.6453942,0.320847 0.183482,0.296879 -0.342499,30.817831 -0.540829,31.382566 -0.1765244,0.502645 -0.1642978,0.501989 0.386959,-0.02075 0.379519,-0.359886 0.784793,-1.429989 1.215972,-3.21071 0.781473,-3.227395 2.056428,-6.467848 3.930846,-9.990726 1.432375,-2.692079 1.650715,-2.943486 2.234777,-2.573234 0.252442,0.160029 -0.0037,0.824935 -1.024286,2.658967 -1.658385,2.980159 -2.961285,6.22327 -3.823507,9.517276 -0.35651,1.361998 -0.6482,2.564912 -0.6482,2.67314 0,0.108228 0.565547,0.143762 1.256771,0.07896 1.771892,-0.166104 3.986013,0.710429 5.206222,2.061054 0.932761,1.032455 0.970359,1.046537 2.35857,0.88338 2.197929,-0.258323 4.239522,0.446965 5.79423,2.001673 0.692563,0.692564 1.259207,1.395278 1.259207,1.561588 0,0.223929 -4.844128,0.302381 -18.6709541,0.302381 H -9.1132238 Z"
       id="path46869" />
    <path
       style="fill:#45673a"
       d="m -8.933378,80.766665 c 0.2569192,-0.850435 1.4081515,-2.012879 2.6008142,-2.626142 0.7889909,-0.405697 1.4305677,-0.508433 2.784504,-0.445884 1.5695709,0.07251 1.8600079,0.0045 2.69319902,-0.631049 2.16080588,-1.648127 4.24688798,-1.932548 6.49539528,-0.885595 0.7461527,0.347424 1.4377888,0.762979 1.536969,0.923456 0.09918,0.160477 0.3518947,0.291777 0.5615877,0.291777 0.4997666,0 0.4974881,-1.692315 -0.00837,-6.219705 C 6.8956482,63.699785 5.1306357,57.280035 2.5022612,52.156443 1.1747287,49.568633 1.1149065,49.372946 1.611629,49.24305 c 0.2928689,-0.07659 0.5465378,-0.114206 0.5637087,-0.0836 3.7203585,6.631805 5.7973949,13.401059 6.5024484,21.192079 0.159533,1.762881 0.3186392,3.235988 0.3535693,3.273571 0.1786918,0.192264 0.4105061,-11.057474 0.4111649,-19.953458 7.399e-4,-9.991118 0.00626,-10.094099 0.5340375,-9.956083 0.2933092,0.0767 0.5837372,0.221083 0.6453942,0.320847 0.183482,0.296879 -0.342499,30.817831 -0.540829,31.382566 -0.1745497,0.497022 -0.1577307,0.495741 0.396396,-0.03019 0.343427,-0.32595 0.738411,-1.240228 0.97159,-2.248958 0.796701,-3.44652 1.851749,-6.288072 3.670408,-9.885481 1.025407,-2.02831 1.983438,-3.723015 2.128959,-3.766011 0.145521,-0.043 0.414947,0.01716 0.598725,0.133687 0.249107,0.157945 -0.004,0.813343 -0.994623,2.575386 -1.620598,2.882622 -3.255815,6.983264 -3.965922,9.945366 -0.291095,1.214258 -0.530098,2.28571 -0.531118,2.381003 -10e-4,0.09529 0.457382,0.111665 1.01867,0.03638 1.706411,-0.228878 3.949249,0.589464 5.289907,1.930122 1.146583,1.146583 1.185374,1.161871 2.543087,1.002299 2.163531,-0.254281 4.217351,0.460504 5.762275,2.005428 0.692563,0.692564 1.259207,1.395278 1.259207,1.561588 0,0.223929 -4.844128,0.302381 -18.6709541,0.302381 H -9.1132238 Z"
       id="path46773" />
    <path
       style="fill:#4f4438"
       d="m -8.933378,80.766665 c 0.2569192,-0.850435 1.4081515,-2.012879 2.6008142,-2.626142 0.7889909,-0.405697 1.4305677,-0.508433 2.784504,-0.445884 1.5695709,0.07251 1.8600079,0.0045 2.69319902,-0.631049 2.16080588,-1.648127 4.24688798,-1.932548 6.49539528,-0.885595 0.7461527,0.347424 1.4377888,0.762979 1.536969,0.923456 0.09918,0.160477 0.3518947,0.291777 0.5615877,0.291777 0.4997666,0 0.4974881,-1.692315 -0.00837,-6.219705 C 6.8956482,63.699785 5.1306357,57.280035 2.5022612,52.156443 1.1747287,49.568633 1.1149065,49.372946 1.611629,49.24305 c 0.2928689,-0.07659 0.5465378,-0.114206 0.5637087,-0.0836 3.7203585,6.631805 5.7973949,13.401059 6.5024484,21.192079 0.159533,1.762881 0.3186392,3.235988 0.3535693,3.273571 0.1786918,0.192264 0.4105061,-11.057474 0.4111649,-19.953458 7.399e-4,-9.991118 0.00626,-10.094099 0.5340375,-9.956083 0.2933092,0.0767 0.5837372,0.221083 0.6453942,0.320847 0.183482,0.296879 -0.342499,30.817831 -0.540829,31.382566 -0.1745497,0.497022 -0.1577307,0.495741 0.396396,-0.03019 0.343427,-0.32595 0.738411,-1.240228 0.97159,-2.248958 0.796701,-3.44652 1.851749,-6.288072 3.670408,-9.885481 1.025407,-2.02831 1.983438,-3.723015 2.128959,-3.766011 0.145521,-0.043 0.414947,0.01716 0.598725,0.133687 0.249107,0.157945 -0.004,0.813343 -0.994623,2.575386 -1.620598,2.882622 -3.255815,6.983264 -3.965922,9.945366 -0.291095,1.214258 -0.530098,2.28571 -0.531118,2.381003 -10e-4,0.09529 0.457382,0.111665 1.01867,0.03638 1.706411,-0.228878 3.949249,0.589464 5.289907,1.930122 1.146583,1.146583 1.185374,1.161871 2.543087,1.002299 2.163531,-0.254281 4.217351,0.460504 5.762275,2.005428 0.692563,0.692564 1.259207,1.395278 1.259207,1.561588 0,0.223929 -4.844128,0.302381 -18.6709541,0.302381 H -9.1132238 Z"
       id="path46626" />
    <path
       style="fill:#493c31"
       d="M 9.8229339,75.963651 C 9.7351636,75.613946 9.7268196,74.691212 9.8043917,73.91313 9.9937002,72.014285 10.34496,43.887602 10.177266,44.05573 10.104693,44.12849 9.9687672,49.84349 9.8752095,56.755729 9.7110667,68.882939 9.5200484,74.204827 9.238932,74.482811 9.165352,74.555571 9.18089,72.352916 9.273461,69.58802 9.366032,66.823124 9.4421088,59.879453 9.44252,54.157639 l 7.476e-4,-10.403297 0.5551593,0.08455 c 0.5549921,0.08452 0.5551451,0.08806 0.5061741,11.726214 -0.02694,6.402916 -0.134446,13.546666 -0.238897,15.874999 -0.104451,2.328333 -0.12387,4.292864 -0.04315,4.365625 0.269077,0.242553 0.282624,0.79375 0.01951,0.79375 -0.142749,0 -0.3313551,-0.286122 -0.4191254,-0.635827 z"
       id="path46447" />
    <path
       style="fill:#493c31"
       d="m -9.0775644,81.216547 c 0,-0.368673 0.8040274,-1.629443 1.3639233,-2.138724 1.2230364,-1.112475 2.2973624,-1.469491 4.1626576,-1.383319 1.5932778,0.07361 1.8566747,0.0094 2.74748958,-0.670093 2.05646692,-1.568544 4.25869532,-1.864449 6.41030372,-0.861328 1.2866326,0.599852 2.3449949,1.494728 1.7678033,1.494728 -0.1547509,0 -0.3554732,-0.119909 -0.4460496,-0.266465 C 6.8379871,77.24479 6.4388504,76.956802 6.041593,76.751373 5.3716267,76.40492 5.3163834,76.416674 5.2789473,76.913652 c -0.03291,0.436894 0.082934,0.512218 0.6276258,0.408094 0.4194429,-0.08018 0.7199816,0.0078 0.807731,0.236477 0.1829708,0.476815 0.5955419,0.461349 1.1530897,-0.04322 C 8.3634386,77.066084 8.3668959,77.196335 7.6921027,70.910936 6.9150834,63.673348 5.153075,57.330256 2.4602913,52.076826 1.1701045,49.559764 1.1142106,49.373128 1.611629,49.24305 c 0.2928689,-0.07659 0.5537799,-0.114206 0.5798022,-0.0836 0.026022,0.03061 0.642439,1.246276 1.3698146,2.701484 2.8964157,5.794651 4.7506382,12.849071 5.198454,19.777604 0.064805,1.002655 0.00794,1.785937 -0.1296668,1.785937 -0.1348041,0 -0.2310115,0.386953 -0.2137942,0.859896 l 0.031304,0.859896 0.2019751,-0.79375 c 0.1489064,-0.585194 0.2184326,-0.654713 0.2646114,-0.264584 0.03445,0.291042 0.029799,0.648229 -0.010335,0.79375 -0.040134,0.145521 -0.1498046,0.889662 -0.2437117,1.653646 -0.1331042,1.082872 -0.090834,1.389062 0.1917605,1.389062 0.2492158,0 0.3067282,-0.175724 0.1840337,-0.5623 -0.1205745,-0.379897 -0.082944,-0.503264 0.1160045,-0.380307 0.1619594,0.100097 0.7092923,0.03199 1.2162957,-0.151342 0.556454,-0.201217 0.801007,-0.408004 0.617006,-0.521724 -0.217257,-0.134271 -0.178486,-0.31472 0.134967,-0.628172 0.241881,-0.241882 0.439784,-0.55737 0.439784,-0.701085 0,-0.143714 0.104025,-0.197009 0.231166,-0.118431 0.127141,0.07858 0.313184,-0.475423 0.41343,-1.231112 0.319702,-2.410036 1.99785,-7.113152 3.730885,-10.456047 0.924157,-1.78263 1.577722,-3.241145 1.452365,-3.241145 -0.125357,0 -1.064,1.69664 -2.085874,3.770312 -1.666163,3.381119 -3.127309,7.415412 -3.617474,9.98802 -0.187114,0.98206 -0.870824,2.252284 -1.092821,2.030288 -0.07276,-0.07276 0.04245,-0.410513 0.256027,-0.750561 0.213575,-0.340047 0.471192,-1.094518 0.572482,-1.676602 0.403234,-2.317267 2.104462,-6.909926 3.788204,-10.226689 0.976563,-1.923706 1.894631,-3.533127 2.040152,-3.576491 0.145521,-0.04336 0.414947,0.01649 0.598725,0.133019 0.249107,0.157945 -0.004,0.813343 -0.994623,2.575386 -1.620598,2.882622 -3.255815,6.983264 -3.965922,9.945366 -0.291095,1.214258 -0.530098,2.298447 -0.531118,2.409307 -10e-4,0.11086 0.459375,0.127811 1.0231,0.03767 1.499613,-0.239797 3.808621,0.513364 5.071401,1.65421 0.576067,0.520442 1.047395,1.06663 1.047395,1.213752 0,0.147121 -0.533121,-0.223921 -1.184713,-0.824538 -1.246673,-1.149142 -1.574543,-1.286082 -1.883261,-0.786567 -0.115738,0.187269 -0.07271,0.233723 0.111209,0.120056 0.39998,-0.247201 1.370494,0.289813 1.270485,0.702996 -0.04349,0.179681 -0.02671,0.230118 0.03729,0.112081 0.064,-0.118036 0.341725,-0.01067 0.61716,0.238599 0.334267,0.302507 0.416954,0.554231 0.248664,0.757008 -0.17783,0.214272 -0.06564,0.303796 0.38072,0.303796 0.348067,0 0.581193,-0.08358 0.518058,-0.185735 -0.273929,-0.443226 3.046749,-0.543404 4.453801,-0.134363 1.538043,0.447122 3.729919,2.138728 3.972325,3.06569 0.13952,0.533524 0.08019,0.535242 -18.4883845,0.535242 -10.24559462,0 -18.6283538,-0.06544 -18.6283538,-0.145431 z M 16.96404,80.606838 c -0.347118,-0.334333 -0.571218,-0.397527 -0.7037,-0.198437 -0.106912,0.160665 -0.196209,-0.04523 -0.198438,-0.457534 -0.0026,-0.485416 -0.120626,-0.707853 -0.33478,-0.631065 -0.181901,0.06522 -0.539089,0.01142 -0.79375,-0.119553 -0.296147,-0.152313 -0.463021,-0.139428 -0.463021,0.03575 0,0.150641 0.148828,0.28295 0.330729,0.294021 0.181901,0.01107 -0.08599,0.180607 -0.595312,0.376746 -0.509323,0.19614 -0.806979,0.367499 -0.661459,0.380798 0.145521,0.0133 0.08599,0.139596 -0.132291,0.280661 -0.339169,0.219187 -0.329551,0.257069 0.06615,0.260531 0.254661,0.0022 0.464844,-0.144776 0.467072,-0.326677 0.0031,-0.25065 0.05252,-0.254505 0.204213,-0.01592 0.110088,0.173145 0.852406,0.35948 1.649594,0.414078 0.797188,0.0546 1.50003,0.121293 1.561872,0.148212 0.06184,0.02692 -0.116753,-0.171807 -0.396875,-0.441613 z m -2.493689,-0.260724 c 0,-0.122163 0.297656,-0.357735 0.661458,-0.523494 0.402378,-0.183336 0.661459,-0.199971 0.661459,-0.04247 0,0.142401 -0.148829,0.260734 -0.33073,0.262962 -0.220486,0.0027 -0.198437,0.08955 0.06615,0.260532 0.309265,0.199863 0.236256,0.257375 -0.330729,0.260532 -0.400182,0.0022 -0.727604,-0.0959 -0.727604,-0.218062 z M 27.699517,80.8629 c 0,-0.126433 -0.185312,-0.383674 -0.411804,-0.571646 -0.340494,-0.282585 -0.397765,-0.27674 -0.330729,0.03375 0.0585,0.270969 -0.139913,0.354425 -0.712675,0.299761 -0.436563,-0.04167 -1.131616,-0.06874 -1.544563,-0.06018 -0.530196,0.011 -0.790526,-0.136283 -0.885967,-0.501249 -0.08218,-0.314247 -0.283546,-0.459886 -0.513734,-0.371554 -0.313882,0.120448 -0.302577,0.200849 0.06615,0.470471 0.312538,0.228533 0.354172,0.381166 0.140068,0.51349 -0.167566,0.103562 -0.304665,0.06594 -0.304665,-0.0836 0,-0.149541 -0.198126,-0.195866 -0.440279,-0.102943 -0.283317,0.108719 -0.376104,0.06511 -0.260267,-0.122313 0.09901,-0.160196 0.04061,-0.377419 -0.129769,-0.482719 -0.194143,-0.119987 -0.238877,-0.07673 -0.119838,0.115878 0.240212,0.38867 -0.484883,0.6833 -1.100368,0.447116 -0.254662,-0.09772 -0.522552,-0.177097 -0.595313,-0.176386 -0.16678,0.0016 -0.625957,-1.089933 -0.570498,-1.356197 0.02273,-0.109141 -0.07773,-0.198438 -0.223252,-0.198438 -0.14552,0 -0.264583,0.119063 -0.264583,0.264584 0,0.444498 0.122371,0.664765 0.330729,0.595312 0.109141,-0.03638 0.198438,0.179006 0.198438,0.478636 0,0.29963 -0.119063,0.471197 -0.264584,0.38126 -0.14552,-0.08994 -0.264583,-0.03221 -0.264583,0.128275 0,0.346745 0.842283,0.250314 1.120428,-0.128275 0.114256,-0.155517 0.196465,-0.100984 0.19943,0.132292 0.0042,0.328838 0.594523,0.407818 3.443635,0.460712 1.891224,0.03511 3.43859,-0.03961 3.43859,-0.16604 z M 10.966011,80.455536 C 10.7741,80.248719 10.567548,80.203274 10.476738,80.347888 10.220626,80.755744 7.6343251,80.533114 7.4637207,80.088526 7.3361996,79.756211 7.2507773,79.761083 6.8502978,80.123512 6.4131662,80.519111 5.1386779,80.585165 4.7841114,80.230599 4.6958951,80.142382 4.3980178,80.211157 4.122162,80.383432 3.753811,80.613471 3.49825,80.619479 3.1598992,80.406053 2.8257046,80.195248 2.5716605,80.195091 2.234772,80.405482 1.8918181,80.61966 1.6328902,80.609671 1.2447751,80.367289 0.955708,80.186764 0.62828614,80.040884 0.51717097,80.043112 c -0.11111517,0.0022 -0.0234338,0.119468 0.1948474,0.260532 0.30926473,0.199863 0.23625623,0.257375 -0.33072915,0.260532 -0.40018227,0.0022 -0.7370038,-0.144776 -0.74849228,-0.326678 -0.0167105,-0.264583 -0.0475786,-0.264583 -0.15434027,0 -0.076364,0.18925 -0.59838637,0.33073 -1.22030647,0.33073 -1.0183825,0 -1.0544982,-0.02504 -0.5732639,-0.397525 0.5057627,-0.391465 0.5055253,-0.394872 -0.015576,-0.22351 -0.2910417,0.09571 -0.6548979,0.270003 -0.8085695,0.387324 -0.1536716,0.11732 -1.4633591,0.253233 -2.9104166,0.302026 -1.4470574,0.04879 1.8642208,0.10856 7.358396,0.132812 8.3850075,0.03701 9.9360678,-0.01339 9.6572908,-0.313819 z m 1.252175,-0.08575 c -0.105663,-0.254661 -0.197776,-0.605234 -0.204696,-0.779051 -0.0069,-0.173816 -0.08204,-0.308545 -0.166924,-0.299397 -0.574796,0.06195 -0.851934,-0.0994 -0.727541,-0.423561 0.07968,-0.207642 -0.02665,-0.519877 -0.236276,-0.693856 -0.209631,-0.173978 -0.381148,-0.227636 -0.381148,-0.119239 0,0.108397 -0.208359,0.03942 -0.463021,-0.15328 -0.3997122,-0.302461 -0.4159914,-0.297846 -0.1190621,0.03375 0.1891771,0.211263 0.4570681,0.398997 0.5953121,0.417187 0.138245,0.01819 0.325464,0.04796 0.416043,0.06615 0.09058,0.01819 0.01647,0.211667 -0.164688,0.429948 -0.265543,0.31996 -0.259003,0.39766 0.03375,0.400927 0.27078,0.003 0.281703,0.0558 0.04295,0.207529 -0.230988,0.146798 -0.175712,0.293697 0.198438,0.527357 0.285237,0.178134 0.518612,0.21373 0.518612,0.0791 0,-0.134628 -0.148828,-0.31423 -0.330729,-0.399117 -0.197154,-0.09201 -0.170439,-0.116811 0.06615,-0.06142 0.218281,0.05111 0.387421,0.348765 0.375867,0.661459 -0.0121,0.327535 0.140091,0.568534 0.359037,0.568534 0.258744,0 0.318727,-0.147784 0.187931,-0.463021 z M -7.3452802,80.049429 c 0.2302321,0.191076 0.3074259,0.0995 0.2841079,-0.337025 -0.019711,-0.369008 0.1026588,-0.571442 0.3183783,-0.526683 0.1927176,0.03999 0.2758056,-0.04799 0.1846402,-0.195497 -0.2101281,-0.339994 -1.3504986,0.377621 -1.586828,0.998564 -0.134691,0.353893 -0.1020112,0.379486 0.1566965,0.122714 0.2199683,-0.218322 0.4302741,-0.238624 0.6430051,-0.06207 z M 12.983641,79.920084 c -0.113066,-0.294644 0.02154,-0.352964 0.580661,-0.251577 0.633299,0.114839 0.683659,0.07874 0.387677,-0.277898 -0.191276,-0.230473 -0.222571,-0.409881 -0.0715,-0.409881 0.399367,0 0.612467,-0.748556 0.272852,-0.958449 -0.177973,-0.109993 -0.219439,-0.06115 -0.105121,0.123818 0.103832,0.168005 0.07072,0.305464 -0.07358,0.305464 -0.144303,0 -0.338495,0.239854 -0.431539,0.533009 -0.09304,0.293154 -0.271434,0.469806 -0.396422,0.392559 -0.300051,-0.185442 -0.604934,0.324045 -0.396109,0.661932 0.2456,0.397389 0.400824,0.318154 0.233081,-0.118977 z M 26.310249,79.26625 c -1.29606,-0.983894 -2.503238,-1.344485 -4.33926,-1.296165 -1.490501,0.03923 -1.587904,0.06533 -0.548834,0.147054 0.694794,0.05465 1.213306,0.182017 1.15225,0.283038 -0.06106,0.101022 0.06861,0.34983 0.288141,0.552907 0.348596,0.322463 0.376333,0.297329 0.218983,-0.198437 -0.145686,-0.459016 -0.07249,-0.567669 0.38244,-0.567669 0.309436,0 0.495889,0.107959 0.41434,0.239908 -0.08155,0.13195 0.108635,0.172726 0.422633,0.09061 0.425319,-0.111223 0.516194,-0.06077 0.35636,0.197847 -0.142119,0.229953 -0.111427,0.28341 0.09092,0.158355 0.274869,-0.169879 0.338262,-0.0452 0.289849,0.570047 -0.02013,0.255827 1.105767,0.541861 1.536763,0.390413 0.218507,-0.07678 0.128837,-0.26925 -0.264583,-0.567912 z M -3.3554367,78.325278 c 1.6579344,-0.02728 2.2557874,-0.140918 2.61118542,-0.496316 0.25351282,-0.253513 0.40634085,-0.515524 0.33961784,-0.582247 -0.066723,-0.06672 -0.33229914,0.111821 -0.59016917,0.396764 -0.40183819,0.444026 -0.70100359,0.496687 -2.09299579,0.368423 -1.1979535,-0.110384 -1.8671421,-0.0366 -2.5501829,0.281177 -0.5093229,0.236957 -0.6879166,0.3491 -0.396875,0.249207 0.2910417,-0.09989 1.4967805,-0.197547 2.6794196,-0.217008 z m 3.64279146,-1.241596 c -0.1297965,-0.210016 -0.045325,-0.253527 0.26271028,-0.135323 0.24971121,0.09582 0.3890915,0.06917 0.30973397,-0.05924 C 0.78044148,76.76072 1.3993357,76.466928 2.2351196,76.236252 3.349148,75.928781 3.4722606,75.85714 2.6963933,75.967829 1.264102,76.172166 -0.15745494,76.792069 0.04713328,77.1231 c 0.09182155,0.14857 0.22647952,0.270128 0.29923994,0.270128 0.0727604,0 0.0462021,-0.139296 -0.0590185,-0.309546 z M 8.004048,67.543334 C 7.3887408,63.658439 6.1385842,58.800943 5.0354911,56.008976 3.8793951,53.082858 2.2320813,49.809986 1.8515486,49.683142 c -0.1490375,-0.04968 0.3710071,1.161119 1.1556546,2.690663 1.4914221,2.907286 2.9547962,7.006315 3.7841226,10.599632 0.5729756,2.482597 1.3092578,7.032389 1.3752501,8.498239 l 0.046225,1.02676 0.1033193,-1.166214 C 8.3729454,70.690805 8.2325131,68.985805 8.004048,67.543334 Z"
       id="path46434" />
    <path
       style="fill:#305729"
       d="m 10.358437,55.961979 c 0,-6.330156 0.03453,-8.919765 0.07674,-5.754687 0.04221,3.165078 0.04221,8.344296 0,11.509374 -0.04221,3.165078 -0.07674,0.575469 -0.07674,-5.754687 z"
       id="path46267" />
    <path
       style="fill:#305729"
       d="M 7.5301035,64.746701 C 7.1327068,62.75276 6.7423951,60.823697 6.6627443,60.459895 6.5227146,59.820315 6.5266677,59.8182 6.7822621,60.395957 c 0.377008,0.852206 1.6627674,7.108911 1.5579658,7.581304 -0.048172,0.217133 -0.4127277,-1.236619 -0.8101244,-3.23056 z"
       id="path46262" />
    <path
       style="fill:#305729"
       d="m 9.2741773,69.612332 c 0.093,-2.02392 0.1690906,-8.661654 0.1690906,-14.75052 0,-6.088866 0.089297,-11.070762 0.1984375,-11.07088 0.2748651,-2.96e-4 -0.034721,29.032367 -0.3123486,29.291735 -0.1233485,0.115235 -0.1481793,-1.446415 -0.055179,-3.470335 z"
       id="path46253" />
    <path
       style="fill:#305729"
       d="m 11.461573,73.424478 c 0.278224,-2.074038 1.90003,-6.635668 3.527544,-9.921874 1.995697,-4.029625 2.203418,-4.322055 2.748652,-3.869551 0.37183,0.308592 0.350687,0.444522 -0.206415,1.327029 -1.190637,1.88609 -2.628222,4.943762 -3.621099,7.701896 -0.55004,1.527969 -1.006222,2.638784 -1.013738,2.468477 -0.03305,-0.748829 1.757927,-5.242882 3.226081,-8.095131 0.881336,-1.712213 1.524971,-3.190572 1.430299,-3.285243 -0.228125,-0.228125 -0.171499,-0.312984 -1.709551,2.561898 -1.61032,3.00996 -2.995216,6.521316 -3.886576,9.854277 -0.360203,1.346866 -0.583042,1.913066 -0.495197,1.258222 z"
       id="path46251" />
    <path
       style="fill:#305729"
       d="m 10.074394,71.572395 c 0,-1.819011 0.04227,-2.563151 0.09394,-1.653646 0.05167,0.909505 0.05167,2.397786 0,3.307292 -0.05166,0.909505 -0.09394,0.165364 -0.09394,-1.653646 z"
       id="path46250" />
    <path
       style="fill:#305729"
       d="M 8.0162128,73.622915 C 7.4204374,65.525206 5.5831791,58.229636 2.6739965,52.409507 1.5843698,50.229592 1.3117843,49.465907 1.5657856,49.304704 c 0.1852717,-0.117584 0.4042786,-0.215612 0.4866819,-0.21784 0.2617835,-0.0071 3.128984,6.134465 3.8180337,8.178228 0.982053,2.91283 0.7775207,2.928075 -0.2656811,0.0198 C 4.4149152,53.96764 2.277871,49.611979 1.8402108,49.611979 c -0.2243108,0 0.021152,0.682229 0.6901685,1.918229 2.996877,5.536691 5.1314465,13.738969 5.7494294,22.092707 0.099578,1.346068 0.1215193,2.447396 0.048759,2.447396 -0.07276,0 -0.2133201,-1.101328 -0.3123549,-2.447396 z"
       id="path46244" />
    <path
       style="fill:#305729"
       d="m -1.4046482,77.706263 c 0,-0.365665 1.85255323,-1.537371 3.0096268,-1.903534 1.7204846,-0.544457 4.678703,0.201566 5.7055738,1.438869 0.5259489,0.63373 0.055836,0.496731 -0.817683,-0.238286 -1.807651,-1.521039 -4.9053497,-1.460553 -6.89022661,0.134537 -0.55401003,0.445215 -1.00729099,0.701001 -1.00729099,0.568414 z"
       id="path46238" />
    <path
       style="fill:#305729"
       d="m 13.478164,81.163625 c 8.367498,-0.04165 14.221353,-0.170398 14.221353,-0.312776 0,-0.537549 -1.394299,-1.846453 -2.578036,-2.420142 -1.024325,-0.496432 -1.666341,-0.605007 -3.45124,-0.583661 -2.012024,0.02406 -2.22575,-0.02403 -2.59224,-0.583369 -0.668115,-1.019672 -2.285432,-1.95886 -4.087508,-2.373644 -1.58128,-0.363964 -1.610636,-0.382892 -0.38785,-0.250079 1.708181,0.185534 3.349992,0.975534 4.317518,2.077485 0.74986,0.854044 0.820575,0.875522 2.855898,0.867428 2.893766,-0.01151 5.064348,1.066237 6.072047,3.014913 l 0.394167,0.762234 -14.492732,-0.0638 -14.49273089,-0.0638 z"
       id="path46224" />
    <path
       style="fill:#305729"
       d="m -7.5514719,81.170225 c 0.4755488,-0.05889 1.1899238,-0.05767 1.5874999,0.0027 0.3975761,0.06037 0.00849,0.10855 -0.8646342,0.107065 -0.873125,-0.0015 -1.1984145,-0.05088 -0.7228657,-0.109765 z"
       id="path46223" />
    <path
       style="fill:#305729"
       d="m -8.874289,81.212475 c -0.5201808,-0.520181 1.2214054,-2.498785 2.7683997,-3.145161 1.0337012,-0.431908 3.5442839,-0.547996 4.1082525,-0.189963 0.1831791,0.116291 -0.3864743,0.159391 -1.2658965,0.09578 -2.5992373,-0.188012 -4.7624694,0.930817 -5.2380667,2.709142 -0.1047849,0.391805 -0.2724949,0.630396 -0.372689,0.530202 z"
       id="path46222" />
    <path
       style="fill:#164511"
       d="m 10.358437,55.961979 c 0,-6.330156 0.03453,-8.919765 0.07674,-5.754687 0.04221,3.165078 0.04221,8.344296 0,11.509374 -0.04221,3.165078 -0.07674,0.575469 -0.07674,-5.754687 z"
       id="path45990" />
    <path
       style="fill:#164511"
       d="M 7.5301035,64.746701 C 7.1327068,62.75276 6.7423951,60.823697 6.6627443,60.459895 6.5227146,59.820315 6.5266677,59.8182 6.7822621,60.395957 c 0.377008,0.852206 1.6627674,7.108911 1.5579658,7.581304 -0.048172,0.217133 -0.4127277,-1.236619 -0.8101244,-3.23056 z"
       id="path45989" />
    <path
       style="fill:#164511"
       d="m 9.2741773,69.612332 c 0.093,-2.02392 0.1690906,-8.661654 0.1690906,-14.75052 0,-6.088866 0.089297,-11.070762 0.1984375,-11.07088 0.2748651,-2.96e-4 -0.034721,29.032367 -0.3123486,29.291735 -0.1233485,0.115235 -0.1481793,-1.446415 -0.055179,-3.470335 z"
       id="path45987" />
    <path
       style="fill:#164511"
       d="m 11.461573,73.424478 c 0.278224,-2.074038 1.90003,-6.635668 3.527544,-9.921874 1.995697,-4.029625 2.203418,-4.322055 2.748652,-3.869551 0.37183,0.308592 0.350687,0.444522 -0.206415,1.327029 -1.190637,1.88609 -2.628222,4.943762 -3.621099,7.701896 -0.55004,1.527969 -1.006222,2.638784 -1.013738,2.468477 -0.03305,-0.748829 1.757927,-5.242882 3.226081,-8.095131 0.881336,-1.712213 1.524971,-3.190572 1.430299,-3.285243 -0.228125,-0.228125 -0.171499,-0.312984 -1.709551,2.561898 -1.61032,3.00996 -2.995216,6.521316 -3.886576,9.854277 -0.360203,1.346866 -0.583042,1.913066 -0.495197,1.258222 z"
       id="path45986" />
    <path
       style="fill:#164511"
       d="m 10.074394,71.572395 c 0,-1.819011 0.04227,-2.563151 0.09394,-1.653646 0.05167,0.909505 0.05167,2.397786 0,3.307292 -0.05166,0.909505 -0.09394,0.165364 -0.09394,-1.653646 z"
       id="path45985" />
    <path
       style="fill:#164511"
       d="M 8.0162128,73.622915 C 7.4204374,65.525206 5.5831791,58.229636 2.6739965,52.409507 1.5843698,50.229592 1.3117843,49.465907 1.5657856,49.304704 c 0.1852717,-0.117584 0.4042786,-0.215612 0.4866819,-0.21784 0.2617835,-0.0071 3.128984,6.134465 3.8180337,8.178228 0.982053,2.91283 0.7775207,2.928075 -0.2656811,0.0198 C 4.4149152,53.96764 2.277871,49.611979 1.8402108,49.611979 c -0.2243108,0 0.021152,0.682229 0.6901685,1.918229 2.996877,5.536691 5.1314465,13.738969 5.7494294,22.092707 0.099578,1.346068 0.1215193,2.447396 0.048759,2.447396 -0.07276,0 -0.2133201,-1.101328 -0.3123549,-2.447396 z"
       id="path45979" />
    <path
       style="fill:#164511"
       d="m -1.4046482,77.706263 c 0,-0.365665 1.85255323,-1.537371 3.0096268,-1.903534 1.7204846,-0.544457 4.678703,0.201566 5.7055738,1.438869 0.5259489,0.63373 0.055836,0.496731 -0.817683,-0.238286 -1.807651,-1.521039 -4.9053497,-1.460553 -6.89022661,0.134537 -0.55401003,0.445215 -1.00729099,0.701001 -1.00729099,0.568414 z"
       id="path45974" />
    <path
       style="fill:#164511"
       d="m 13.478164,81.163625 c 8.367498,-0.04165 14.221353,-0.170398 14.221353,-0.312776 0,-0.537549 -1.394299,-1.846453 -2.578036,-2.420142 -1.024325,-0.496432 -1.666341,-0.605007 -3.45124,-0.583661 -2.012024,0.02406 -2.22575,-0.02403 -2.59224,-0.583369 -0.668115,-1.019672 -2.285432,-1.95886 -4.087508,-2.373644 -1.58128,-0.363964 -1.610636,-0.382892 -0.38785,-0.250079 1.708181,0.185534 3.349992,0.975534 4.317518,2.077485 0.74986,0.854044 0.820575,0.875522 2.855898,0.867428 2.893766,-0.01151 5.064348,1.066237 6.072047,3.014913 l 0.394167,0.762234 -14.492732,-0.0638 -14.49273089,-0.0638 z"
       id="path45964" />
    <path
       style="fill:#164511"
       d="m -7.5514719,81.170225 c 0.4755488,-0.05889 1.1899238,-0.05767 1.5874999,0.0027 0.3975761,0.06037 0.00849,0.10855 -0.8646342,0.107065 -0.873125,-0.0015 -1.1984145,-0.05088 -0.7228657,-0.109765 z"
       id="path45963" />
    <path
       style="fill:#164511"
       d="m -8.874289,81.212475 c -0.5201808,-0.520181 1.2214054,-2.498785 2.7683997,-3.145161 1.0337012,-0.431908 3.5442839,-0.547996 4.1082525,-0.189963 0.1831791,0.116291 -0.3864743,0.159391 -1.2658965,0.09578 -2.5992373,-0.188012 -4.7624694,0.930817 -5.2380667,2.709142 -0.1047849,0.391805 -0.2724949,0.630396 -0.372689,0.530202 z"
       id="path45962" />
    <path
       style="fill:#0b3807"
       d="M 4.0193099,55.344663 C 2.9669326,52.83301 2.9796069,52.870229 3.283471,53.183854 c 0.339168,0.350063 1.7742729,3.812506 1.6367408,3.948925 -0.058934,0.05846 -0.4643395,-0.746195 -0.9009019,-1.788116 z"
       id="path45708" />
    <path
       style="fill:#0b3807"
       d="M 5.6616239,57.48264 C 4.6332244,54.445718 2.2837068,49.611979 1.8359611,49.611979 c -0.2589832,0 -0.1180708,0.438629 0.4725386,1.470906 0.462862,0.808999 0.7940291,1.518445 0.7359269,1.576547 -0.058102,0.0581 -0.502947,-0.61706 -0.9885439,-1.50036 C 1.3429892,49.862319 1.2432305,49.508575 1.5378113,49.321993 1.7384689,49.194901 1.9700642,49.089092 2.0524675,49.086864 2.5167053,49.07431 6.6816179,58.824187 6.4754331,59.440832 6.4342528,59.563991 6.0680386,58.682805 5.6616239,57.48264 Z"
       id="path45707" />
    <path
       style="fill:#0b3807"
       d="M 5.7690108,60.451887 C 5.4481468,59.281081 5.122571,58.119308 5.0455091,57.870168 4.9291176,57.493877 4.94874,57.484378 5.1614123,57.814062 c 0.3294558,0.510722 1.447556,4.509994 1.3016714,4.655879 -0.060876,0.06088 -0.3732089,-0.847248 -0.6940729,-2.018054 z"
       id="path45706" />
    <path
       style="fill:#0b3807"
       d="m 6.9738236,62.003298 c -0.2487937,-1.03664 -0.4044671,-1.932685 -0.3459411,-1.991212 0.058526,-0.05853 0.3134183,0.738301 0.5664272,1.770726 0.2530088,1.032425 0.4086823,1.92847 0.3459411,1.991212 -0.062741,0.06274 -0.3176335,-0.734086 -0.5664272,-1.770726 z"
       id="path45705" />
    <path
       style="fill:#0b3807"
       d="m 10.35797,56.226566 c 0,-6.039114 0.03473,-8.509661 0.07718,-5.490104 0.04245,3.019557 0.04245,7.960651 0,10.980208 -0.04245,3.019557 -0.07718,0.54901 -0.07718,-5.490104 z"
       id="path45703" />
    <path
       style="fill:#0b3807"
       d="m 9.5025675,56.160416 c -0.032615,-6.803098 0.029997,-12.369336 0.1391379,-12.369418 0.1804054,-1.35e-4 0.1769319,9.201694 -0.00769,20.373064 -0.039681,2.401093 -0.098833,-1.200547 -0.1314479,-8.003646 z"
       id="path45702" />
    <path
       style="fill:#0b3807"
       d="M 7.8851661,66.383622 C 7.700247,65.283107 7.600703,64.330932 7.6639571,64.267678 c 0.063254,-0.06325 0.2686315,0.783087 0.4563942,1.880759 0.1877627,1.097671 0.2873068,2.049846 0.2212091,2.115943 -0.066098,0.0661 -0.2714752,-0.780243 -0.4563943,-1.880758 z"
       id="path45701" />
    <path
       style="fill:#0b3807"
       d="m 12.896517,71.130458 c -0.03353,-0.759746 1.755975,-5.245544 3.183624,-7.980471 0.860865,-1.64915 1.56521,-3.107665 1.56521,-3.241146 0,-0.705849 -0.5451,0.0335 -1.853178,2.513564 -0.799564,1.515941 -1.49655,2.71346 -1.548856,2.661153 -0.145566,-0.145565 2.873978,-5.681993 3.098935,-5.681993 0.108496,0 0.331841,0.134576 0.496322,0.299057 0.222354,0.222354 0.14171,0.548311 -0.314421,1.27087 -1.183711,1.875118 -2.623184,4.938363 -3.613898,7.690489 -0.55004,1.527969 -1.006222,2.638784 -1.013738,2.468477 z"
       id="path45698" />
    <path
       style="fill:#0b3807"
       d="m 9.2711338,71.043228 c 0,-1.236927 0.045576,-1.742942 0.10128,-1.124479 0.055704,0.618464 0.055704,1.630495 0,2.248958 -0.055704,0.618464 -0.10128,0.112448 -0.10128,-1.124479 z"
       id="path45697" />
    <path
       style="fill:#0b3807"
       d="M 7.6335865,70.183332 C 7.4482478,68.546223 7.2491837,66.790051 7.1912219,66.280728 c -0.057962,-0.509323 0.060352,-0.152135 0.2629187,0.79375 0.3801233,1.774983 0.8247394,6.085417 0.6277035,6.085417 -0.061203,0 -0.2629188,-1.339453 -0.4482576,-2.976563 z"
       id="path45696" />
    <path
       style="fill:#0b3807"
       d="m 11.315808,74.201915 c -0.05385,-1.087628 2.470833,-8.957672 2.775766,-8.652739 0.05395,0.05395 -0.255937,1.00981 -0.688632,2.124139 -0.432696,1.114329 -1.07471,3.132094 -1.426698,4.483922 -0.351989,1.351827 -0.649185,2.271932 -0.660436,2.044678 z"
       id="path45695" />
    <path
       style="fill:#0b3807"
       d="m 10.074394,71.572397 c 0,-1.819011 0.04227,-2.563151 0.09394,-1.653646 0.05167,0.909505 0.05167,2.397786 0,3.307292 -0.05166,0.909505 -0.09394,0.165364 -0.09394,-1.653646 z"
       id="path45694" />
    <path
       style="fill:#0b3807"
       d="m 18.98155,77.147298 c -0.776006,-1.089799 -2.054542,-1.81011 -4.01541,-2.26223 -1.583125,-0.365024 -1.605388,-0.380038 -0.363497,-0.24515 1.735,0.188447 3.35327,0.979267 4.367361,2.134253 0.806752,0.918839 0.842763,0.930401 2.459023,0.789474 1.357052,-0.118325 1.457538,-0.102333 0.581949,0.09262 -1.886886,0.420113 -2.433224,0.328325 -3.029426,-0.508964 z"
       id="path45687" />
    <path
       style="fill:#0b3807"
       d="m -1.4046482,77.706263 c 0,-0.390662 1.89465224,-1.566362 3.0825209,-1.912815 1.4938075,-0.435683 3.1940064,-0.136407 4.7188748,0.830636 0.6905456,0.437931 1.1872872,0.864488 1.1038703,0.947905 -0.083417,0.08342 -0.5192969,-0.157673 -0.9686221,-0.535755 -1.8465212,-1.553745 -4.9256664,-1.508591 -6.92935291,0.101615 -0.55401003,0.445215 -1.00729099,0.701001 -1.00729099,0.568414 z"
       id="path45686" />
    <path
       style="fill:#0b3807"
       d="m 13.610455,81.163625 c 10.372265,-0.05215 14.089062,-0.150828 14.089062,-0.374065 0,-0.597219 -2.05247,-2.240723 -3.329228,-2.66586 -0.715539,-0.238261 -1.107161,-0.440549 -0.870271,-0.449528 1.242844,-0.04711 3.647534,1.570885 4.348088,2.925607 l 0.394167,0.762234 -14.36044,-0.06378 -14.36043957,-0.06378 z"
       id="path45681" />
    <path
       style="fill:#0b3807"
       d="m -7.5514719,81.170225 c 0.4755488,-0.05889 1.1899238,-0.05767 1.5874999,0.0027 0.3975761,0.06037 0.00849,0.10855 -0.8646342,0.107065 -0.873125,-0.0015 -1.1984145,-0.05088 -0.7228657,-0.109765 z"
       id="path45680" />
    <path
       style="fill:#0b3807"
       d="m -8.874289,81.212475 c -0.5201808,-0.520181 1.2214054,-2.498785 2.7683997,-3.145161 1.0337012,-0.431908 3.5442839,-0.547996 4.1082525,-0.189963 0.1831791,0.116291 -0.3864743,0.159391 -1.2658965,0.09578 -2.5992373,-0.188012 -4.7624694,0.930817 -5.2380667,2.709142 -0.1047849,0.391805 -0.2724949,0.630396 -0.372689,0.530202 z"
       id="path45679" />
    <path
       style="fill:#110602"
       d="M 4.0193099,55.344663 C 2.9669326,52.83301 2.9796069,52.870229 3.283471,53.183854 c 0.339168,0.350063 1.7742729,3.812506 1.6367408,3.948925 -0.058934,0.05846 -0.4643395,-0.746195 -0.9009019,-1.788116 z"
       id="path45610" />
    <path
       style="fill:#110602"
       d="M 5.6616239,57.48264 C 4.6332244,54.445718 2.2837068,49.611979 1.8359611,49.611979 c -0.2589832,0 -0.1180708,0.438629 0.4725386,1.470906 0.462862,0.808999 0.7940291,1.518445 0.7359269,1.576547 -0.058102,0.0581 -0.502947,-0.61706 -0.9885439,-1.50036 C 1.3429892,49.862319 1.2432305,49.508575 1.5378113,49.321993 1.7384689,49.194901 1.9700642,49.089092 2.0524675,49.086864 2.5167053,49.07431 6.6816179,58.824187 6.4754331,59.440832 6.4342528,59.563991 6.0680386,58.682805 5.6616239,57.48264 Z"
       id="path45609" />
    <path
       style="fill:#110602"
       d="M 5.7690108,60.451887 C 5.4481468,59.281081 5.122571,58.119308 5.0455091,57.870168 4.9291176,57.493877 4.94874,57.484378 5.1614123,57.814062 c 0.3294558,0.510722 1.447556,4.509994 1.3016714,4.655879 -0.060876,0.06088 -0.3732089,-0.847248 -0.6940729,-2.018054 z"
       id="path45608" />
    <path
       style="fill:#110602"
       d="m 6.9738236,62.003298 c -0.2487937,-1.03664 -0.4044671,-1.932685 -0.3459411,-1.991212 0.058526,-0.05853 0.3134183,0.738301 0.5664272,1.770726 0.2530088,1.032425 0.4086823,1.92847 0.3459411,1.991212 -0.062741,0.06274 -0.3176335,-0.734086 -0.5664272,-1.770726 z"
       id="path45607" />
    <path
       style="fill:#110602"
       d="m 10.35797,56.226566 c 0,-6.039114 0.03473,-8.509661 0.07718,-5.490104 0.04245,3.019557 0.04245,7.960651 0,10.980208 -0.04245,3.019557 -0.07718,0.54901 -0.07718,-5.490104 z"
       id="path45605" />
    <path
       style="fill:#110602"
       d="m 9.5025675,56.160416 c -0.032615,-6.803098 0.029997,-12.369336 0.1391379,-12.369418 0.1804054,-1.35e-4 0.1769319,9.201694 -0.00769,20.373064 -0.039681,2.401093 -0.098833,-1.200547 -0.1314479,-8.003646 z"
       id="path45604" />
    <path
       style="fill:#110602"
       d="M 7.8851661,66.383622 C 7.700247,65.283107 7.600703,64.330932 7.6639571,64.267678 c 0.063254,-0.06325 0.2686315,0.783087 0.4563942,1.880759 0.1877627,1.097671 0.2873068,2.049846 0.2212091,2.115943 -0.066098,0.0661 -0.2714752,-0.780243 -0.4563943,-1.880758 z"
       id="path45603" />
    <path
       style="fill:#110602"
       d="m 12.896517,71.130458 c -0.03353,-0.759746 1.755975,-5.245544 3.183624,-7.980471 0.860865,-1.64915 1.56521,-3.107665 1.56521,-3.241146 0,-0.705849 -0.5451,0.0335 -1.853178,2.513564 -0.799564,1.515941 -1.49655,2.71346 -1.548856,2.661153 -0.145566,-0.145565 2.873978,-5.681993 3.098935,-5.681993 0.108496,0 0.331841,0.134576 0.496322,0.299057 0.222354,0.222354 0.14171,0.548311 -0.314421,1.27087 -1.183711,1.875118 -2.623184,4.938363 -3.613898,7.690489 -0.55004,1.527969 -1.006222,2.638784 -1.013738,2.468477 z"
       id="path45600" />
    <path
       style="fill:#110602"
       d="m 9.2711338,71.043228 c 0,-1.236927 0.045576,-1.742942 0.10128,-1.124479 0.055704,0.618464 0.055704,1.630495 0,2.248958 -0.055704,0.618464 -0.10128,0.112448 -0.10128,-1.124479 z"
       id="path45599" />
    <path
       style="fill:#110602"
       d="M 7.6335865,70.183332 C 7.4482478,68.546223 7.2491837,66.790051 7.1912219,66.280728 c -0.057962,-0.509323 0.060352,-0.152135 0.2629187,0.79375 0.3801233,1.774983 0.8247394,6.085417 0.6277035,6.085417 -0.061203,0 -0.2629188,-1.339453 -0.4482576,-2.976563 z"
       id="path45598" />
    <path
       style="fill:#110602"
       d="m 11.315808,74.201915 c -0.05385,-1.087628 2.470833,-8.957672 2.775766,-8.652739 0.05395,0.05395 -0.255937,1.00981 -0.688632,2.124139 -0.432696,1.114329 -1.07471,3.132094 -1.426698,4.483922 -0.351989,1.351827 -0.649185,2.271932 -0.660436,2.044678 z"
       id="path45597" />
    <path
       style="fill:#110602"
       d="m 10.074394,71.572397 c 0,-1.819011 0.04227,-2.563151 0.09394,-1.653646 0.05167,0.909505 0.05167,2.397786 0,3.307292 -0.05166,0.909505 -0.09394,0.165364 -0.09394,-1.653646 z"
       id="path45596" />
    <path
       style="fill:#110602"
       d="m 18.98155,77.147298 c -0.776006,-1.089799 -2.054542,-1.81011 -4.01541,-2.26223 -1.583125,-0.365024 -1.605388,-0.380038 -0.363497,-0.24515 1.735,0.188447 3.35327,0.979267 4.367361,2.134253 0.806752,0.918839 0.842763,0.930401 2.459023,0.789474 1.357052,-0.118325 1.457538,-0.102333 0.581949,0.09262 -1.886886,0.420113 -2.433224,0.328325 -3.029426,-0.508964 z"
       id="path45589" />
    <path
       style="fill:#110602"
       d="m -1.4046482,77.706263 c 0,-0.390662 1.89465224,-1.566362 3.0825209,-1.912815 1.4938075,-0.435683 3.1940064,-0.136407 4.7188748,0.830636 0.6905456,0.437931 1.1872872,0.864488 1.1038703,0.947905 -0.083417,0.08342 -0.5192969,-0.157673 -0.9686221,-0.535755 -1.8465212,-1.553745 -4.9256664,-1.508591 -6.92935291,0.101615 -0.55401003,0.445215 -1.00729099,0.701001 -1.00729099,0.568414 z"
       id="path45588" />
    <path
       style="fill:#110602"
       d="m 13.610455,81.163625 c 10.372265,-0.05215 14.089062,-0.150828 14.089062,-0.374065 0,-0.597219 -2.05247,-2.240723 -3.329228,-2.66586 -0.715539,-0.238261 -1.107161,-0.440549 -0.870271,-0.449528 1.242844,-0.04711 3.647534,1.570885 4.348088,2.925607 l 0.394167,0.762234 -14.36044,-0.06378 -14.36043957,-0.06378 z"
       id="path45559" />
    <path
       style="fill:#110602"
       d="m -7.5514719,81.170225 c 0.4755488,-0.05889 1.1899238,-0.05767 1.5874999,0.0027 0.3975761,0.06037 0.00849,0.10855 -0.8646342,0.107065 -0.873125,-0.0015 -1.1984145,-0.05088 -0.7228657,-0.109765 z"
       id="path45558" />
    <path
       style="fill:#110602"
       d="m -8.874289,81.212475 c -0.5201808,-0.520181 1.2214054,-2.498785 2.7683997,-3.145161 1.0337012,-0.431908 3.5442839,-0.547996 4.1082525,-0.189963 0.1831791,0.116291 -0.3864743,0.159391 -1.2658965,0.09578 -2.5992373,-0.188012 -4.7624694,0.930817 -5.2380667,2.709142 -0.1047849,0.391805 -0.2724949,0.630396 -0.372689,0.530202 z"
       id="path45552" />
  </g>
</svg>
