<?xml version="1.0" encoding="UTF-8" standalone="no"?>
<!-- Created with Inkscape (http://www.inkscape.org/) -->

<svg
   width="185"
   height="185"
   viewBox="0 0 48.947914 48.947918"
   version="1.1"
   id="svg1"
   xmlns="http://www.w3.org/2000/svg"
   xmlns:svg="http://www.w3.org/2000/svg">
  <defs
     id="defs1" />
  <g
     id="layer1">
    <g
       id="g8236"
       style="display:inline;stroke-width:1.0244"
       transform="matrix(0.97617738,0,0,0.97617738,-172.22671,-85.185044)">
      <path
         style="fill:#ead9b4;stroke-width:1.0244"
         d="m 196.74439,88.710124 c -0.4556,-0.436374 -0.46124,-0.430736 -0.12656,0.126558 0.19265,0.320804 0.40723,0.526328 0.47684,0.456721 0.0696,-0.06961 -0.088,-0.332083 -0.35028,-0.583279 z"
         id="path7960" />
      <path
         style="fill:#ead9b4;stroke-width:1.0244"
         d="m 191.03502,89.62244 c 0,-0.04739 -0.32742,-0.374816 -0.72761,-0.727605 l -0.7276,-0.641433 0.64143,0.727605 c 0.59952,0.680055 0.81378,0.848939 0.81378,0.641433 z"
         id="path7959" />
      <path
         style="fill:#ead9b4;stroke-width:1.0244"
         d="m 192.23133,90.816725 c -0.0759,-0.07589 -0.13798,0.008 -0.13798,0.18632 0,0.178362 -0.10796,0.257573 -0.23991,0.176024 -0.13195,-0.08155 -0.1721,0.111003 -0.0892,0.427895 l 0.15067,0.576168 0.22721,-0.614216 c 0.12497,-0.337818 0.16512,-0.676304 0.0892,-0.752191 z"
         id="path7958" />
      <path
         style="fill:#ead9b4;stroke-width:1.0244"
         d="m 183.29044,92.988341 c -0.0879,-0.08792 -0.31612,-0.09732 -0.50711,-0.02089 -0.21107,0.08446 -0.14838,0.147157 0.15985,0.159853 0.27891,0.01149 0.43518,-0.05105 0.34726,-0.138965 z"
         id="path7957" />
      <path
         style="fill:#ead9b4;stroke-width:1.0244"
         d="m 187.2415,92.552881 c -0.0734,-0.181901 -0.13346,-0.03307 -0.13346,0.33073 0,0.363802 0.0601,0.51263 0.13346,0.330729 0.0734,-0.181901 0.0734,-0.479558 0,-0.661459 z"
         id="path7956" />
      <path
         style="fill:#ead9b4;stroke-width:1.0244"
         d="m 197.49898,93.173959 c -0.0696,-0.06961 -0.33209,0.08802 -0.58328,0.350281 -0.43638,0.455597 -0.43074,0.461235 0.12656,0.126559 0.3208,-0.192655 0.52632,-0.407233 0.45672,-0.47684 z"
         id="path7955" />
      <path
         style="fill:#ead9b4;stroke-width:1.0244"
         d="m 202.38154,92.784431 c -0.5893,-0.542079 -0.59498,-0.542521 -0.15806,-0.01228 0.24926,0.3025 0.46702,0.77875 0.4839,1.058334 0.0294,0.48679 0.0361,0.48731 0.15805,0.01228 0.0774,-0.301395 -0.1125,-0.716702 -0.48389,-1.058334 z"
         id="path7954" />
      <path
         style="fill:#ead9b4;stroke-width:1.0244"
         d="m 202.42004,95.250125 c 0.40206,-0.751253 0.12782,-0.628662 -0.40178,0.179604 -0.25011,0.381719 -0.32398,0.613213 -0.16414,0.514431 0.15983,-0.09878 0.41449,-0.411098 0.56592,-0.694035 z"
         id="path7953" />
      <path
         style="fill:#ead9b4;stroke-width:1.0244"
         d="m 181.72076,96.070643 c -0.17762,-0.284423 -0.37419,-0.465894 -0.43682,-0.403269 -0.1134,0.1134 0.46322,0.920403 0.65764,0.920403 0.0562,0 -0.0432,-0.23271 -0.22082,-0.517134 z"
         id="path7952" />
      <path
         style="fill:#ead9b4;stroke-width:1.0244"
         d="m 199.50173,98.183581 c 0,-0.140954 -0.17859,-0.187747 -0.39687,-0.103984 -0.21828,0.08376 -0.39688,0.199088 -0.39688,0.256279 0,0.05719 0.1786,0.103984 0.39688,0.103984 0.21828,0 0.39687,-0.115326 0.39687,-0.256279 z"
         id="path7951" />
      <path
         style="fill:#ead9b4;stroke-width:1.0244"
         d="m 183.86795,98.373714 c -0.0614,-0.03638 -0.52007,-0.423333 -1.01935,-0.859895 l -0.90779,-0.79375 0.64452,0.845256 c 0.35449,0.464891 0.8132,0.851844 1.01936,0.859896 0.20615,0.0081 0.32462,-0.01513 0.26326,-0.05151 z"
         id="path7950" />
      <path
         style="fill:#ead9b4;stroke-width:1.0244"
         d="m 181.24549,99.06158 c 0,-0.191394 -1.0197,0.42463 -1.20847,0.730064 -0.0988,0.159833 0.13271,0.08597 0.51443,-0.164144 0.38172,-0.250112 0.69404,-0.504776 0.69404,-0.56592 z"
         id="path7949" />
      <path
         style="fill:#ead9b4;stroke-width:1.0244"
         d="m 179.48802,100.55653 c 0.26288,-0.34517 0.24193,-0.34957 -0.16076,-0.0337 -0.25467,0.19972 -0.44921,0.61644 -0.43233,0.92604 0.0292,0.53466 0.0372,0.53636 0.16076,0.0338 0.0715,-0.29104 0.26609,-0.70776 0.43233,-0.92604 z"
         id="path7948" />
      <path
         style="fill:#ead9b4;stroke-width:1.0244"
         d="m 204.56257,101.94559 c 0.3291,-0.41964 0.31975,-0.429 -0.0999,-0.0999 -0.25466,0.19972 -0.46302,0.40808 -0.46302,0.46303 0,0.21776 0.21727,0.0776 0.56292,-0.36313 z"
         id="path7947" />
      <path
         style="fill:#ead9b4;stroke-width:1.0244"
         d="m 180.18715,102.83788 c 0,-0.0549 -0.20836,-0.2633 -0.46302,-0.46302 -0.41964,-0.32911 -0.429,-0.31975 -0.0999,0.0999 0.34564,0.44072 0.56291,0.58088 0.56291,0.36312 z"
         id="path7946" />
      <path
         style="fill:#ead9b4;stroke-width:1.0244"
         d="m 183.56059,103.54914 c -0.25466,-0.0666 -0.67138,-0.0666 -0.92604,0 -0.25466,0.0665 -0.0463,0.121 0.46302,0.121 0.50932,0 0.71768,-0.0545 0.46302,-0.121 z"
         id="path7945" />
      <path
         style="fill:#ead9b4;stroke-width:1.0244"
         d="m 182.51168,106.04663 c 0.31242,-0.5457 0.51078,-0.99219 0.44078,-0.99219 -0.17689,0 -1.17561,1.66534 -1.17682,1.96233 -0.001,0.30154 0.0363,0.2521 0.73604,-0.97014 z"
         id="path7944" />
      <path
         style="fill:#ead9b4;stroke-width:1.0244"
         d="m 187.74865,106.70809 c 0.19195,-0.47294 0.28947,-0.8599 0.21671,-0.8599 -0.18875,0 -0.90312,1.7688 -0.87815,2.17432 0.0135,0.21985 0.0722,0.19956 0.16666,-0.0577 0.0802,-0.21828 0.30282,-0.78383 0.49478,-1.25677 z"
         id="path7943" />
      <path
         style="fill:#ead9b4;stroke-width:1.0244"
         d="m 186.80173,107.37205 c 0,-0.31902 -0.14735,-0.24053 -0.68659,0.36571 -0.50224,0.56463 -0.50192,0.56534 0.0913,0.20093 0.32742,-0.20113 0.59531,-0.45613 0.59531,-0.56664 z"
         id="path7942" />
      <path
         style="fill:#ead9b4;stroke-width:1.0244"
         d="m 197.44274,107.38755 c -0.16567,-0.16567 -0.20255,0.008 -0.10411,0.49112 0.11291,0.55376 0.17944,0.6203 0.25655,0.25654 0.0573,-0.27012 -0.0113,-0.60656 -0.15244,-0.74766 z"
         id="path7941" />
      <path
         style="fill:#ead9b4;stroke-width:1.0244"
         d="m 200.75299,108.59878 c -0.0879,-0.0879 -0.31612,-0.0973 -0.50712,-0.0209 -0.21106,0.0845 -0.14837,0.14716 0.15986,0.15985 0.27891,0.0115 0.43518,-0.051 0.34726,-0.13896 z"
         id="path7940" />
      <path
         style="fill:#ead9b4;stroke-width:1.0244"
         d="m 182.11315,108.48355 c -0.0776,-0.29681 -0.20024,-0.48054 -0.2725,-0.40828 -0.14313,0.14313 0.1097,0.94794 0.2978,0.94794 0.0637,0 0.0523,-0.24284 -0.0253,-0.53966 z"
         id="path7939" />
      <path
         style="fill:#ead9b4;stroke-width:1.0244"
         d="m 192.68624,109.94014 c -0.23157,-0.4138 -0.26148,-0.41424 -0.4181,-0.006 -0.0991,0.25829 -0.0608,0.37291 0.0929,0.27792 0.14385,-0.0889 0.26155,-0.0157 0.26155,0.16265 0,0.17836 0.0704,0.25385 0.15654,0.16775 0.0861,-0.0861 0.0443,-0.3571 -0.0929,-0.60222 z"
         id="path7938" />
      <path
         style="fill:#ead9b4;stroke-width:1.0244"
         d="m 186.99159,110.15133 c -0.0608,-0.40218 -0.11219,-0.13593 -0.11418,0.59167 -0.002,0.72761 0.0478,1.05667 0.11057,0.73125 0.0628,-0.32542 0.0644,-0.92074 0.004,-1.32292 z"
         id="path7937" />
      <path
         style="fill:#ead9b4;stroke-width:1.0244"
         d="m 196.42769,112.31676 c 0.0904,-0.23546 0.046,-0.34166 -0.10399,-0.24897 -0.14385,0.0889 -0.26155,0.27369 -0.26155,0.41062 0,0.38059 0.18965,0.29672 0.36554,-0.16165 z"
         id="path7936" />
      <path
         style="fill:#ead9b4;stroke-width:1.0244"
         d="m 190.80423,112.26436 c 0.32911,-0.41965 0.31975,-0.429 -0.0999,-0.0999 -0.25466,0.19972 -0.46302,0.40808 -0.46302,0.46302 0,0.21777 0.21727,0.0776 0.56291,-0.36312 z"
         id="path7935" />
      <path
         style="fill:#ead9b4;stroke-width:1.0244"
         d="m 193.53843,112.0761 c -0.2547,-0.66693 -0.50664,-1.16905 -0.55987,-1.11583 -0.0532,0.0532 0.10713,0.64694 0.35635,1.31935 0.24921,0.67242 0.50115,1.17454 0.55987,1.11583 0.0587,-0.0587 -0.10164,-0.65242 -0.35635,-1.31935 z"
         id="path7934" />
      <path
         style="fill:#ead9b4;stroke-width:1.0244"
         d="m 196.85465,114.12641 c -0.28829,-0.4496 -0.29576,-0.44903 -0.15102,0.0117 0.0838,0.26656 0.16167,0.62375 0.17316,0.79375 0.0151,0.22309 0.0571,0.21984 0.15102,-0.0117 0.0716,-0.17642 -0.006,-0.53361 -0.17316,-0.79375 z"
         id="path7933" />
      <path
         style="fill:#ead9b4;stroke-width:1.0244"
         d="m 194.85263,116.05357 c -0.0973,-0.38775 -0.22797,-0.65397 -0.29034,-0.59161 -0.0624,0.0624 -0.0338,0.43065 0.0636,0.8184 0.0973,0.38775 0.22797,0.65397 0.29034,0.5916 0.0624,-0.0624 0.0338,-0.43064 -0.0635,-0.81839 z"
         id="path7932" />
      <path
         style="fill:#ead9b4;stroke-width:1.0244"
         d="m 204.52071,117.093 c 0,-0.14552 -0.11541,-0.086 -0.25648,0.1323 -0.14106,0.21828 -0.25648,0.51593 -0.25648,0.66145 0,0.14553 0.11542,0.086 0.25648,-0.13229 0.14107,-0.21828 0.25648,-0.51593 0.25648,-0.66146 z"
         id="path7931" />
      <path
         style="fill:#ead9b4;stroke-width:1.0244"
         d="m 209.96056,117.97672 c 1.1931,-1.04756 2.23569,-3.06946 2.25887,-4.38065 l 0.0177,-1.00098 0.34547,1.10485 c 0.69841,2.23362 2.28376,4.05157 3.88058,4.44993 1.05294,0.26268 1.55939,-0.41759 1.55939,-2.09462 0,-1.65769 -0.37372,-2.88757 -1.22679,-4.03733 l -0.62455,-0.84175 1.33629,0.89925 c 2.73237,1.83875 5.48947,1.95197 5.91839,0.24303 0.34872,-1.38943 -1.75034,-3.50473 -4.19377,-4.22619 l -1.03983,-0.30702 1.37019,-0.16228 c 2.52029,-0.29849 4.54548,-1.66631 4.54548,-3.07003 0,-0.51785 -0.20324,-0.93374 -0.58804,-1.20326 -0.83446,-0.58448 -3.33287,-0.52843 -5.02,0.11263 l -1.38038,0.5245 0.98835,-0.81468 c 1.75306,-1.44502 2.888,-4.705221 1.91817,-5.510107 -0.55684,-0.462138 -1.74674,-0.426838 -2.72869,0.08095 -0.75277,0.389271 -2.27741,1.954747 -2.88944,2.966827 -0.24585,0.40655 -0.26034,0.2965 -0.0724,-0.55012 0.47061,-2.120353 -0.65148,-5.423956 -1.84229,-5.423956 -0.49168,0 -1.36106,0.826362 -1.83075,1.740171 -0.57736,1.123296 -0.6592,3.168725 -0.18401,4.599385 0.24984,0.7522 0.40167,1.42023 0.3374,1.4845 -0.0643,0.0643 -0.26787,-0.38719 -0.45245,-1.00325 -0.93343,-3.115544 -3.83094,-5.347087 -5.18486,-3.993173 -0.99959,0.99959 0.2284,4.940023 1.87591,6.019513 0.99707,0.6533 0.62344,0.8005 -0.44179,0.17405 -1.50453,-0.88481 -3.21905,-1.14645 -4.527,-0.69084 -0.6208,0.21626 -1.34412,0.39492 -1.60737,0.39704 -0.26325,0.002 -0.40385,0.12486 -0.31245,0.27275 0.0914,0.1479 0.27702,0.2004 0.41249,0.11668 0.13547,-0.0837 0.2463,0.16181 0.2463,0.54563 0,0.45782 0.36401,1.06919 1.05833,1.77751 0.58209,0.59381 1.05834,1.1868 1.05834,1.31775 0,0.13095 0.10748,0.17167 0.23885,0.0905 0.13136,-0.0812 0.93504,0.0209 1.78593,0.22692 0.8509,0.206 1.24944,0.38558 0.88563,0.39907 -0.96375,0.0357 -3.29908,1.45817 -4.08441,2.48779 -1.61421,2.11634 -0.0878,3.60181 2.92229,2.84386 0.67457,-0.16986 1.27433,-0.261 1.33279,-0.20253 0.0585,0.0585 -0.19271,0.62937 -0.55816,1.26868 -0.36546,0.63931 -0.66374,1.28145 -0.66286,1.42697 8.8e-4,0.14552 0.35442,-0.37546 0.78563,-1.15773 0.43121,-0.78227 0.72338,-1.52044 0.64925,-1.64037 -0.0741,-0.11993 0.13646,-0.35764 0.46796,-0.52824 0.3315,-0.17061 0.95017,-0.62306 1.37484,-1.00547 l 0.77211,-0.69527 -0.55036,0.92604 c -0.47891,0.80581 -0.70783,1.70434 -1.21335,4.7625 -0.0601,0.3638 -0.2002,0.89958 -0.31126,1.19062 -0.19849,0.52022 -0.19516,0.5205 0.19704,0.0167 0.39218,-0.5038 0.40196,-0.50297 0.57719,0.0491 0.15436,0.48634 0.48478,0.70238 1.26866,0.82952 0.10408,0.0169 0.61774,-0.34554 1.14147,-0.80538 z m 0.7039,-8.43112 c -1.76688,-1.07724 -2.03485,-3.52414 -0.54871,-5.01029 1.03361,-1.0336 2.10306,-1.23503 3.32678,-0.62659 1.43577,0.71388 2.06649,1.72215 2.06649,3.30352 0,1.16243 -0.10613,1.42005 -0.86407,2.09726 -1.06522,0.95177 -2.65225,1.04591 -3.98049,0.2361 z m -4.01898,-1.68406 c 0,-0.0568 0.40837,-0.15102 0.90749,-0.20929 0.49911,-0.0583 0.84927,-0.0118 0.77813,0.10334 -0.12804,0.20717 -1.68562,0.30506 -1.68562,0.10595 z"
         id="path7930" />
      <path
         style="fill:#ead9b4;stroke-width:1.0244"
         d="m 197.89219,117.37964 c -0.17076,-0.67812 -0.36007,-1.18334 -0.42071,-1.1227 -0.0606,0.0606 0.0295,0.66506 0.20022,1.34318 0.17075,0.67812 0.36007,1.18334 0.4207,1.1227 0.0606,-0.0606 -0.0295,-0.66506 -0.20021,-1.34318 z"
         id="path7929" />
      <path
         style="fill:#ead9b4;stroke-width:1.0244"
         d="m 198.35956,119.29235 c -0.0845,-0.21106 -0.14716,-0.14837 -0.15985,0.15986 -0.0115,0.27891 0.051,0.43518 0.13896,0.34726 0.0879,-0.0879 0.0973,-0.31612 0.0209,-0.50712 z"
         id="path7928" />
      <path
         style="fill:#ead9b4;stroke-width:1.0244"
         d="m 195.77552,119.23175 c -0.17075,-0.67812 -0.36007,-1.18334 -0.4207,-1.1227 -0.0606,0.0606 0.0295,0.66507 0.20021,1.34319 0.17076,0.67811 0.36007,1.18333 0.4207,1.1227 0.0606,-0.0606 -0.0295,-0.66507 -0.20021,-1.34319 z"
         id="path7927" />
      <path
         style="fill:#ead9b4;stroke-width:1.0244"
         d="m 193.53342,120.0696 c -1.32323,-1.59435 -3.50463,-3.72043 -4.18489,-4.07878 -0.68134,-0.35891 -0.80309,-0.358 -1.16978,0.009 -0.3405,0.3405 -0.35849,0.57878 -0.10707,1.41794 0.16621,0.55477 0.48425,1.24451 0.70675,1.53276 0.26917,0.3487 0.22941,0.12565 -0.1188,-0.66654 -1.42332,-3.23804 0.21133,-3.04909 3.34359,0.38647 1.71187,1.87765 2.60495,2.69443 1.5302,1.39947 z"
         id="path7926" />
      <path
         style="fill:#ead9b4;stroke-width:1.0244"
         d="m 198.62414,120.35072 c -0.0845,-0.21107 -0.14716,-0.14838 -0.15985,0.15985 -0.0115,0.27891 0.051,0.43518 0.13896,0.34726 0.0879,-0.0879 0.0973,-0.31612 0.0209,-0.50711 z"
         id="path7925" />
      <path
         style="fill:#ead9b4;stroke-width:1.0244"
         d="m 190.34898,120.86335 c -0.35876,-0.63063 -0.98477,-1.25677 -1.2565,-1.25677 -0.1502,0 0.0691,0.35718 0.48738,0.79375 0.80735,0.84268 1.07771,1.00544 0.76912,0.46302 z"
         id="path7924" />
      <path
         style="fill:#ead9b4;stroke-width:1.0244"
         d="m 220.01952,121.21443 c -0.25072,-0.40567 -1.5425,-0.55163 -2.52612,-0.28542 -0.88611,0.23981 -0.87471,0.24525 0.26458,0.12604 0.65485,-0.0685 1.36922,-0.008 1.5875,0.13546 0.50315,0.32968 0.87108,0.34273 0.67404,0.0239 z"
         id="path7923" />
      <path
         style="fill:#ead9b4;stroke-width:1.0244"
         d="m 216.03819,121.45866 c 0.34892,-0.14994 0.39398,-0.23235 0.13229,-0.24194 -0.21828,-0.008 -0.57547,0.10087 -0.79375,0.24194 -0.48365,0.31256 -0.0659,0.31256 0.66146,0 z"
         id="path7922" />
      <path
         style="fill:#ead9b4;stroke-width:1.0244"
         d="m 196.24289,121.14447 c -0.0845,-0.21107 -0.14716,-0.14838 -0.15985,0.15985 -0.0115,0.27891 0.051,0.43518 0.13896,0.34726 0.0879,-0.0879 0.0973,-0.31612 0.0209,-0.50711 z"
         id="path7921" />
      <path
         style="fill:#ead9b4;stroke-width:1.0244"
         d="m 198.88872,121.40905 c -0.0845,-0.21107 -0.14715,-0.14837 -0.15985,0.15985 -0.0115,0.27892 0.0511,0.43519 0.13897,0.34727 0.0879,-0.0879 0.0973,-0.31612 0.0209,-0.50712 z"
         id="path7920" />
      <path
         style="fill:#ead9b4;stroke-width:1.0244"
         d="m 206.27753,119.41501 c -0.12343,-0.12343 -0.96287,2.28652 -0.93563,2.68609 0.0106,0.15598 0.24838,-0.3617 0.52833,-1.1504 0.27995,-0.7887 0.46323,-1.47976 0.4073,-1.53569 z"
         id="path7919" />
      <path
         style="fill:#ead9b4;stroke-width:1.0244"
         d="m 202.85747,121.67363 c -0.0845,-0.21106 -0.14715,-0.14837 -0.15985,0.15986 -0.0115,0.27891 0.0511,0.43518 0.13897,0.34726 0.0879,-0.0879 0.0973,-0.31612 0.0209,-0.50712 z"
         id="path7918" />
      <path
         style="fill:#ead9b4;stroke-width:1.0244"
         d="m 220.31997,121.93822 c -0.0845,-0.21107 -0.14715,-0.14838 -0.15985,0.15985 -0.0115,0.27891 0.0511,0.43518 0.13897,0.34726 0.0879,-0.0879 0.0973,-0.31612 0.0209,-0.50711 z"
         id="path7917" />
      <path
         style="fill:#ead9b4;stroke-width:1.0244"
         d="m 196.50747,122.2028 c -0.0845,-0.21107 -0.14715,-0.14837 -0.15985,0.15985 -0.0115,0.27892 0.0511,0.43519 0.13897,0.34727 0.0879,-0.0879 0.0973,-0.31612 0.0209,-0.50712 z"
         id="path7916" />
      <path
         style="fill:#ead9b4;stroke-width:1.0244"
         d="m 199.15331,122.46738 c -0.0845,-0.21106 -0.14716,-0.14837 -0.15985,0.15986 -0.0115,0.27891 0.051,0.43518 0.13896,0.34726 0.0879,-0.0879 0.0973,-0.31612 0.0209,-0.50712 z"
         id="path7915" />
      <path
         style="fill:#ead9b4;stroke-width:1.0244"
         d="m 205.23872,122.73197 c -0.0845,-0.21107 -0.14715,-0.14838 -0.15985,0.15985 -0.0115,0.27891 0.0511,0.43518 0.13897,0.34726 0.0879,-0.0879 0.0973,-0.31612 0.0209,-0.50711 z"
         id="path7914" />
      <path
         style="fill:#ead9b4;stroke-width:1.0244"
         d="m 195.2684,122.96444 c 0,-0.19047 -0.17501,-0.57742 -0.38891,-0.8599 -0.35161,-0.46433 -0.35874,-0.43112 -0.0743,0.34631 0.33813,0.92415 0.46319,1.06281 0.46319,0.51359 z"
         id="path7913" />
      <path
         style="fill:#ead9b4;stroke-width:1.0244"
         d="m 214.67766,121.98783 c 0.14196,0 0.19056,-0.0675 0.10802,-0.15008 -0.0825,-0.0825 -0.75552,0.15672 -1.49551,0.5317 l -1.34544,0.68178 0.11766,-1.65618 0.11766,-1.65618 -0.22464,1.38738 c -0.12355,0.76306 -0.29737,1.67718 -0.38626,2.03136 -0.15984,0.63686 -0.145,0.63396 1.34439,-0.26291 0.82831,-0.49878 1.62217,-0.90687 1.76412,-0.90687 z"
         id="path7912" />
      <path
         style="fill:#ead9b4;stroke-width:1.0244"
         d="m 204.97414,123.7903 c -0.0845,-0.21107 -0.14716,-0.14837 -0.15985,0.15985 -0.0115,0.27892 0.051,0.43519 0.13896,0.34727 0.0879,-0.0879 0.0973,-0.31612 0.0209,-0.50712 z"
         id="path7911" />
      <path
         style="fill:#ead9b4;stroke-width:1.0244"
         d="m 199.41238,123.50918 c -0.0734,-0.1819 -0.13345,-0.0331 -0.13345,0.33073 0,0.3638 0.06,0.51263 0.13345,0.33073 0.0734,-0.1819 0.0734,-0.47956 0,-0.66146 z"
         id="path7910" />
      <path
         style="fill:#ead9b4;stroke-width:1.0244"
         d="m 202.62399,122.91387 c 0,-0.41901 -0.0441,-0.39148 -0.21184,0.13229 -0.11651,0.3638 -0.21184,0.89958 -0.21184,1.19062 0,0.41902 0.0441,0.39148 0.21184,-0.13229 0.11651,-0.3638 0.21184,-0.89958 0.21184,-1.19062 z"
         id="path7909" />
      <path
         style="fill:#ead9b4;stroke-width:1.0244"
         d="m 187.06632,124.39293 c 0.64091,-0.18214 0.63405,-0.19358 -0.22071,-0.36834 -1.44582,-0.2956 -2.34268,-1.12428 -2.93757,-2.71426 -0.64828,-1.73269 -0.68926,-2.5783 -0.14677,-3.02853 0.52706,-0.43742 1.99984,-0.18773 3.61895,0.61356 0.69827,0.34558 1.14058,0.47287 0.98291,0.28288 -0.35496,-0.42769 -2.96677,-1.42375 -3.7333,-1.42375 -0.76654,0 -1.53226,0.74275 -1.53226,1.48629 0,1.86991 1.89754,4.83057 3.12915,4.88231 0.35539,0.0149 0.33833,0.0635 -0.0864,0.24599 -0.6448,0.27708 -0.0215,0.29313 0.92604,0.0238 z"
         id="path7908" />
      <path
         style="fill:#ead9b4;stroke-width:1.0244"
         d="m 199.68247,124.84863 c -0.0845,-0.21106 -0.14715,-0.14837 -0.15985,0.15986 -0.0115,0.27891 0.0511,0.43518 0.13897,0.34726 0.0879,-0.0879 0.0973,-0.31612 0.0209,-0.50712 z"
         id="path7907" />
      <path
         style="fill:#ead9b4;stroke-width:1.0244"
         d="m 185.37052,124.70175 c -0.18348,-0.18348 -0.68545,0.18932 -0.68545,0.50909 0,0.17544 0.15181,0.15537 0.40327,-0.0533 0.2218,-0.18408 0.34878,-0.38917 0.28218,-0.45577 z"
         id="path7906" />
      <path
         style="fill:#ead9b4;stroke-width:1.0244"
         d="m 208.84007,121.75848 c 0.61199,-0.63547 1.46989,-1.37916 1.90646,-1.65266 0.43656,-0.2735 0.63608,-0.49771 0.44337,-0.49826 -0.9442,-0.003 -5.07592,4.85147 -5.06631,5.95214 0.001,0.14552 0.36264,-0.39026 0.80304,-1.19062 0.4404,-0.80037 1.30145,-1.97514 1.91344,-2.6106 z"
         id="path7905" />
      <path
         style="fill:#ead9b4;stroke-width:1.0244"
         d="m 204.70405,124.8321 c -0.0734,-0.1819 -0.13346,-0.0331 -0.13346,0.33073 0,0.3638 0.0601,0.51263 0.13346,0.33072 0.0734,-0.1819 0.0734,-0.47955 0,-0.66145 z"
         id="path7904" />
      <path
         style="fill:#ead9b4;stroke-width:1.0244"
         d="m 202.05821,125.09668 c -0.0734,-0.1819 -0.13345,-0.0331 -0.13345,0.33073 0,0.3638 0.0601,0.51263 0.13345,0.33073 0.0734,-0.1819 0.0734,-0.47956 0,-0.66146 z"
         id="path7903" />
      <path
         style="fill:#ead9b4;stroke-width:1.0244"
         d="m 197.2197,124.93132 c -0.093,-0.46486 -0.22419,-0.79005 -0.2916,-0.72264 -0.0674,0.0674 -0.0404,0.49677 0.0601,0.95415 0.23833,1.08509 0.45208,0.87134 0.23151,-0.23151 z"
         id="path7902" />
      <path
         style="fill:#ead9b4;stroke-width:1.0244"
         d="m 186.72043,126.75777 c -0.69956,-0.27334 -1.46656,-0.65472 -1.70443,-0.84752 -0.36079,-0.29242 -0.39674,-0.29114 -0.21679,0.008 0.24826,0.41231 2.20657,1.35308 2.79627,1.34333 0.21829,-0.004 -0.17549,-0.23021 -0.87505,-0.50354 z"
         id="path7901" />
      <path
         style="fill:#ead9b4;stroke-width:1.0244"
         d="m 197.5603,126.68417 c -0.0734,-0.1819 -0.13346,-0.0331 -0.13346,0.33073 0,0.3638 0.0601,0.51263 0.13346,0.33073 0.0734,-0.1819 0.0734,-0.47956 0,-0.66146 z"
         id="path7900" />
      <path
         style="fill:#ead9b4;stroke-width:1.0244"
         d="m 188.84674,127.38421 c -0.0879,-0.0879 -0.31612,-0.0973 -0.50711,-0.0209 -0.21107,0.0845 -0.14838,0.14716 0.15985,0.15986 0.27891,0.0115 0.43518,-0.051 0.34726,-0.13897 z"
         id="path7899" />
      <path
         style="fill:#ead9b4;stroke-width:1.0244"
         d="m 201.80078,126.55188 c -0.0666,-0.25466 -0.121,-0.0463 -0.121,0.46302 0,0.50932 0.0545,0.71768 0.121,0.46302 0.0666,-0.25466 0.0666,-0.67138 0,-0.92604 z"
         id="path7898" />
      <path
         style="fill:#ead9b4;stroke-width:1.0244"
         d="m 187.78841,127.6488 c -0.0879,-0.0879 -0.31612,-0.0973 -0.50712,-0.0209 -0.21106,0.0845 -0.14837,0.14715 0.15985,0.15985 0.27892,0.0115 0.43519,-0.051 0.34727,-0.13896 z"
         id="path7897" />
      <path
         style="fill:#ead9b4;stroke-width:1.0244"
         d="m 214.3184,127.8182 c 0.94589,-0.27556 1.48812,-0.5095 1.20497,-0.51987 -0.35437,-0.013 -0.10699,-0.27396 0.79375,-0.83742 1.33581,-0.83561 3.82211,-3.09399 3.82211,-3.47172 0,-0.11503 -0.43967,0.27752 -0.97705,0.87233 -1.18108,1.30732 -2.67574,2.35971 -5.04889,3.55492 -0.97859,0.49286 -1.71973,0.89762 -1.64697,0.89945 0.0728,0.002 0.90619,-0.22213 1.85208,-0.49769 z"
         id="path7896" />
      <path
         style="fill:#ead9b4;stroke-width:1.0244"
         d="m 205.95046,126.48573 c 0.0906,-0.3638 -0.0643,-0.18521 -0.34428,0.39688 -0.27992,0.58208 -0.51301,1.17739 -0.51798,1.32291 -0.0138,0.40471 0.67574,-0.97062 0.86226,-1.71979 z"
         id="path7895" />
      <path
         style="fill:#ead9b4;stroke-width:1.0244"
         d="m 204.46621,126.48573 c 0,-0.59002 -0.0218,-0.57573 -0.20198,0.13229 -0.11108,0.43657 -0.20197,1.09141 -0.20197,1.45521 0,0.59002 0.0218,0.57574 0.20197,-0.13229 0.11109,-0.43656 0.20198,-1.09141 0.20198,-1.45521 z"
         id="path7894" />
      <path
         style="fill:#ead9b4;stroke-width:1.0244"
         d="m 192.38726,128.20485 c -1.82263,-0.56836 -3.1294,-0.73141 -3.32503,-0.41487 -0.11165,0.18065 0.19,0.29459 0.83274,0.31456 0.5543,0.0172 1.36499,0.12219 1.80156,0.23328 1.37208,0.34913 1.90671,0.24622 0.69073,-0.13297 z"
         id="path7893" />
      <path
         style="fill:#ead9b4;stroke-width:1.0244"
         d="m 197.91423,128.33782 c 0,-0.29105 -0.13856,-0.49941 -0.30791,-0.46303 -0.16936,0.0364 -0.58412,-0.4101 -0.92169,-0.99218 -0.33758,-0.58209 -0.61151,-0.93927 -0.60875,-0.79375 0.007,0.38966 1.50913,2.73674 1.77221,2.76981 0.0364,0.005 0.0661,-0.22981 0.0661,-0.52085 z"
         id="path7892" />
      <path
         style="fill:#ead9b4;stroke-width:1.0244"
         d="m 222.47267,128.88546 c -0.57763,-0.93035 -2.36769,-1.62296 -4.49574,-1.73949 l -1.93874,-0.10616 1.90709,0.24393 c 2.31842,0.29652 3.55472,0.78451 4.21157,1.66237 0.58849,0.78651 0.81481,0.74305 0.31582,-0.0607 z"
         id="path7891" />
      <path
         style="fill:#ead9b4;stroke-width:1.0244"
         d="m 201.54095,128.53934 c -0.0633,-0.32912 -0.11747,-0.12215 -0.12041,0.45993 -0.003,0.58209 0.0488,0.85137 0.11507,0.5984 0.0662,-0.25296 0.0686,-0.72921 0.005,-1.05833 z"
         id="path7890" />
      <path
         style="fill:#ead9b4;stroke-width:1.0244"
         d="m 204.78402,129.30069 c -0.005,-0.16578 -0.17314,-0.006 -0.3733,0.35605 l -0.36393,0.65747 -0.11622,-0.78976 c -0.0971,-0.66009 -0.12128,-0.61599 -0.14706,0.26857 l -0.0308,1.05834 0.52037,-0.62463 c 0.2862,-0.34354 0.51614,-0.76026 0.51098,-0.92604 z"
         id="path7889" />
      <path
         style="fill:#ead9b4;stroke-width:1.0244"
         d="m 200.43353,128.19977 c -0.25164,-1.39759 -0.50791,-2.4907 -0.56948,-2.42914 -0.0616,0.0616 0.0912,1.25822 0.33941,2.65921 0.24823,1.401 0.5045,2.49411 0.56947,2.42914 0.065,-0.065 -0.0878,-1.26161 -0.3394,-2.65921 z"
         id="path7888" />
      <path
         style="fill:#ead9b4;stroke-width:1.0244"
         d="m 221.92517,131.32846 c 0.47294,-0.22281 0.8599,-0.51335 0.8599,-0.64564 0,-0.1323 -0.29427,-0.0477 -0.65392,0.18793 -0.35966,0.23565 -1.22286,0.5943 -1.91823,0.79699 -1.21076,0.35292 -1.21948,0.36212 -0.20598,0.21718 0.58208,-0.0832 1.44529,-0.33365 1.91823,-0.55646 z"
         id="path7887" />
      <path
         style="fill:#ead9b4;stroke-width:1.0244"
         d="m 201.33705,131.71125 c -0.0142,-1.17591 -0.0563,-1.29002 -0.2746,-0.74363 -0.23113,0.5786 -0.0999,2.1327 0.1801,2.1327 0.0612,0 0.10372,-0.62508 0.0945,-1.38907 z"
         id="path7886" />
      <path
         style="fill:#ead9b4;stroke-width:1.0244"
         d="m 184.99025,133.08076 c -1.48494,-0.29202 -2.71218,-1.0174 -3.20411,-1.89384 -0.35658,-0.63529 -0.34523,-0.74667 0.12958,-1.27168 0.64344,-0.71145 2.17254,-1.50765 3.49284,-1.81871 0.73879,-0.17406 0.82533,-0.24009 0.33484,-0.25549 -1.37077,-0.043 -4.49791,1.87552 -4.49791,2.75955 0,1.08849 2.53433,2.77526 4.10104,2.72951 0.64706,-0.0189 0.58122,-0.065 -0.35628,-0.24934 z"
         id="path7885" />
      <path
         style="fill:#ead9b4;stroke-width:1.0244"
         d="m 186.99466,133.46963 c -0.0879,-0.0879 -0.31612,-0.0973 -0.50712,-0.0209 -0.21106,0.0845 -0.14837,0.14716 0.15985,0.15985 0.27892,0.0115 0.43519,-0.051 0.34727,-0.13896 z"
         id="path7884" />
      <path
         style="fill:#ead9b4;stroke-width:1.0244"
         d="m 208.6901,133.96556 c -0.54895,-0.0573 -1.38238,-0.0563 -1.85208,0.002 -0.4697,0.0584 -0.0206,0.10531 0.99809,0.10414 1.01864,-0.001 1.40294,-0.049 0.85399,-0.10627 z"
         id="path7883" />
      <path
         style="fill:#ead9b4;stroke-width:1.0244"
         d="m 211.80486,134.68781 c -0.72761,-0.26848 -1.50151,-0.48815 -1.71979,-0.48815 -0.21828,0 0.19843,0.21967 0.92604,0.48815 0.7276,0.26849 1.50151,0.48816 1.71979,0.48816 0.21828,0 -0.19844,-0.21967 -0.92604,-0.48816 z"
         id="path7882" />
      <path
         style="fill:#ead9b4;stroke-width:1.0244"
         d="m 192.49261,134.94862 c 0.0912,-0.1476 0.65724,-0.51905 1.25782,-0.82544 0.86444,-0.44101 1.39821,-0.52816 2.56174,-0.41827 0.90387,0.0854 1.26603,0.0538 0.94061,-0.082 -1.12312,-0.46867 -2.62193,-0.26675 -4.0349,0.54357 -0.76398,0.43814 -1.38906,0.85375 -1.38906,0.92356 0,0.23514 0.49643,0.12938 0.66379,-0.14142 z"
         id="path7881" />
      <path
         style="fill:#ead9b4;stroke-width:1.0244"
         d="m 216.69965,134.33027 c 0,-0.3347 -0.30842,-0.89719 -0.68537,-1.24998 l -0.68537,-0.64143 1.80985,-0.15172 1.80985,-0.15171 -2.2431,-0.0467 -2.24309,-0.0467 0.98632,0.81301 c 0.6445,0.53125 0.98633,1.03558 0.98633,1.45521 0,0.35321 -0.0963,0.6422 -0.21402,0.6422 -0.1177,0 -0.44513,0.18436 -0.7276,0.40968 -0.45364,0.36186 -0.41321,0.36107 0.3463,-0.007 0.60018,-0.29069 0.8599,-0.60028 0.8599,-1.02502 z"
         id="path7880" />
      <path
         style="fill:#ead9b4;stroke-width:1.0244"
         d="m 214.71528,135.48156 c -0.0899,-0.14552 -0.48392,-0.25049 -0.87552,-0.23327 l -0.71198,0.0313 0.79375,0.20197 c 0.43656,0.11109 0.83054,0.21607 0.87551,0.23328 0.045,0.0172 0.008,-0.0877 -0.0818,-0.23328 z"
         id="path7879" />
      <path
         style="fill:#ead9b4;stroke-width:1.0244"
         d="m 191.26919,135.50596 c 0.22625,-0.14329 -0.0879,-0.18085 -0.82116,-0.0982 -2.16038,0.2435 -3.05257,-0.90148 -1.59577,-2.04793 l 0.7276,-0.5726 -1.05833,0.19162 c -1.25393,0.22704 -1.52271,0.38601 -0.65264,0.38601 0.48703,0 0.55562,0.0705 0.30868,0.3175 -0.51631,0.5163 -0.37081,1.42801 0.27781,1.74083 0.72867,0.35142 2.31588,0.39811 2.81381,0.0828 z"
         id="path7878" />
      <path
         style="fill:#ead9b4;stroke-width:1.0244"
         d="m 199.04863,134.73626 c -0.27782,-0.37211 -0.65348,-0.72602 -0.8348,-0.78646 -0.18131,-0.0604 -0.0252,0.19454 0.34683,0.56661 0.37207,0.37207 0.6903,0.94979 0.70718,1.28383 0.0253,0.49999 0.0532,0.51943 0.15831,0.10997 0.0702,-0.27356 -0.0997,-0.80183 -0.37752,-1.17395 z"
         id="path7877" />
      <path
         style="fill:#ead9b4;stroke-width:1.0244"
         d="m 203.14058,136.27524 c 0.30646,-0.61405 0.8633,-1.12293 1.65279,-1.51044 0.65484,-0.32143 1.03588,-0.58932 0.84676,-0.59532 -0.96623,-0.0306 -2.82781,1.51872 -3.00694,2.50264 -0.0945,0.51917 0.50739,-0.39688 0.50739,-0.39688 z"
         id="path7872" />
      <path
         style="fill:#cd928c;stroke-width:1.0244"
         d="m 211.25411,109.82521 c -1.09617,-0.44345 -1.96279,-1.81116 -1.96279,-3.0977 0,-1.00827 0.1417,-1.33849 0.89958,-2.09637 0.69441,-0.69441 1.11982,-0.89958 1.86522,-0.89958 1.4712,0 2.50007,0.66591 3.09024,2.00009 0.43703,0.98798 0.47229,1.33482 0.22795,2.24224 -0.45571,1.69239 -2.37798,2.55612 -4.1202,1.85132 z"
         id="path7968" />
      <path
         style="fill:#cd928c;stroke-width:1.0244"
         d="m 199.38258,136.4306 c 0.25444,-1.35627 -0.0716,-1.99943 -1.29548,-2.55512 -1.79819,-0.81649 -3.46543,-0.67655 -5.27943,0.44312 -1.69353,1.0453 -3.23594,1.38962 -4.11571,0.91878 -0.74277,-0.39752 -0.71567,-0.76264 0.12148,-1.63643 l 0.68878,-0.71894 -2.13986,0.14667 c -2.54171,0.17422 -4.13202,-0.30579 -5.19381,-1.56767 -0.59886,-0.7117 -0.63733,-0.87101 -0.32422,-1.34259 0.1954,-0.29429 0.94427,-0.84508 1.66415,-1.22399 1.69043,-0.88974 5.169,-1.07879 8.27393,-0.44965 1.14597,0.23221 2.19077,0.4138 2.32177,0.40355 0.52553,-0.0411 -2.0185,-0.84195 -4.23906,-1.33437 -5.14189,-1.14026 -6.35178,-2.38834 -2.9364,-3.02907 l 1.04329,-0.19573 -1.14257,-0.33736 c -1.51692,-0.44789 -2.29276,-1.22588 -2.93542,-2.94354 -0.67717,-1.80991 -0.66979,-2.3676 0.0363,-2.7455 0.97556,-0.52211 3.82699,0.57284 5.64216,2.16658 1.12824,0.9906 1.1995,0.78441 0.17978,-0.52013 -0.4145,-0.53026 -0.97039,-1.53997 -1.23532,-2.24379 -0.4018,-1.06742 -0.42141,-1.31694 -0.11824,-1.50431 0.52809,-0.32638 1.68039,0.42976 3.23457,2.12253 1.92574,2.09745 3.00047,3.82978 3.758,6.05741 0.68259,2.00727 1.76668,4.08975 2.30089,4.41991 0.75101,0.46416 -1.24122,-7.99935 -3.48427,-14.80206 -1.59886,-4.849 -1.66309,-4.96716 -2.1116,-3.88437 -0.518,1.25058 -1.26978,2.08435 -2.39863,2.66024 -1.39487,0.71161 -1.75227,0.66053 -2.26093,-0.32311 -0.55855,-1.0801 -0.33536,-3.98229 0.44174,-5.74426 l 0.53633,-1.21605 -1.26956,1.22942 c -2.04533,1.98065 -4.54978,2.95497 -4.94543,1.92394 -0.45927,-1.19684 0.30157,-2.95006 1.91136,-4.4044 l 1.05194,-0.95037 -1.79087,-0.0168 c -2.46089,-0.023 -4.24344,-0.78674 -4.24344,-1.81804 0,-0.76702 1.72919,-2.130981 3.26914,-2.578657 l 1.5125,-0.439696 -1.06542,-1.065419 c -1.31005,-1.310053 -1.86612,-2.971925 -1.21274,-3.624456 0.53351,-0.532826 2.54994,-0.511293 3.87261,0.04135 0.51614,0.215657 1.39899,0.793951 1.96188,1.285098 0.75566,0.659342 0.9663,0.754537 0.80502,0.363827 -1.15576,-2.799908 -1.3833,-5.554912 -0.5361,-6.491058 1.02718,-1.135023 2.28461,-0.477328 3.54527,1.854339 0.64945,1.201206 0.81259,1.359408 0.95493,0.926041 0.51508,-1.568133 0.80007,-2.053717 1.63622,-2.787865 1.87571,-1.646903 3.38063,-0.319963 3.16917,2.794377 -0.0593,0.873125 -0.20778,1.822589 -0.32999,2.10992 -0.20963,0.492884 -0.18085,0.489898 0.5091,-0.05282 0.92415,-0.726935 3.48358,-1.483294 4.314,-1.27487 0.83785,0.210287 1.25329,1.14042 0.91121,2.040146 -0.37664,0.990659 -1.83827,2.580249 -3.1234,3.39687 l -1.10556,0.70251 2.04737,-0.11852 c 1.696,-0.09818 2.22932,-0.02569 3.10763,0.422387 1.62362,0.828312 1.85753,1.219826 1.35651,2.270486 -0.4542,0.95247 -1.47266,1.54369 -3.59475,2.08677 -1.21195,0.31016 -1.29235,0.37505 -0.82572,0.66646 0.28432,0.17757 0.51695,0.50309 0.51695,0.72339 0,0.2203 0.47625,0.91722 1.05833,1.5487 0.58816,0.63807 1.05834,1.41558 1.05834,1.75011 0,0.57803 -0.0677,0.59651 -1.7034,0.46521 -1.14998,-0.0923 -2.10637,-0.36196 -2.94374,-0.82997 -1.4992,-0.83792 -1.53651,-0.842 -1.15339,-0.12613 0.46059,0.86062 0.16791,3.28166 -0.50708,4.19464 l -0.57418,0.77661 1.05682,3.51467 c 1.16567,3.87664 2.60955,10.01045 3.31864,14.09801 0.50422,2.90658 0.89751,4.0114 0.91078,2.55853 0.0149,-1.63608 0.83172,-7.30643 1.35945,-9.4377 1.04226,-4.20928 2.73237,-8.46876 3.85057,-9.70436 1.30436,-1.4413 1.14016,1.44733 -0.31098,5.47103 -1.31892,3.65705 -2.99035,11.29205 -2.57752,11.77396 0.24081,0.28109 1.11009,-1.14172 1.8979,-3.10643 0.45276,-1.12912 1.08667,-2.58873 1.40868,-3.24357 0.77135,-1.5686 3.66716,-4.49792 4.44647,-4.49792 0.55206,0 0.5794,0.0819 0.41974,1.25677 -0.0939,0.69122 -0.24583,1.59664 -0.33757,2.01204 l -0.16679,0.75527 1.06373,-0.70394 c 1.4945,-0.98902 4.46736,-1.98504 5.94454,-1.99164 3.55383,-0.0159 1.22464,3.36499 -4.221,6.12689 -1.19888,0.60804 -2.14627,1.13904 -2.10531,1.18 0.041,0.041 0.84327,-0.17316 1.78291,-0.47581 2.30988,-0.74402 5.26042,-0.76378 6.86781,-0.046 1.47569,0.65896 1.91469,1.17144 1.80506,2.10718 -0.0725,0.6188 -0.30315,0.80449 -1.54048,1.24018 -0.87534,0.30824 -2.48662,0.56603 -4.04363,0.64695 l -2.58843,0.13453 0.91591,0.62238 c 1.69031,1.1486 1.48002,2.48103 -0.39158,2.48103 -0.55872,0 -1.94313,-0.29613 -3.07646,-0.65808 -4.00835,-1.28012 -7.76094,-0.63919 -8.9262,1.52458 -0.54714,1.01598 -1.01709,1.24084 -2.60524,1.24656 -0.99994,0.004 -1.00346,-2e-4 -0.83477,-0.89943 z"
         id="path7967" />
      <path
         style="fill:#bcaa54;stroke-width:1.0244"
         d="m 211.25411,109.82521 c -1.09617,-0.44345 -1.96279,-1.81116 -1.96279,-3.0977 0,-1.00827 0.1417,-1.33849 0.89958,-2.09637 0.69441,-0.69441 1.11982,-0.89958 1.86522,-0.89958 1.4712,0 2.50007,0.66591 3.09024,2.00009 0.43703,0.98798 0.47229,1.33482 0.22795,2.24224 -0.45571,1.69239 -2.37798,2.55612 -4.1202,1.85132 z"
         id="path7975" />
      <path
         style="fill:#bcaa54;stroke-width:1.0244"
         d="m 199.39988,136.58613 c 0.26992,-1.3496 -0.0717,-2.1057 -1.21476,-2.68886 -1.57307,-0.80252 -3.57234,-0.72045 -5.04773,0.20721 -2.03389,1.27881 -2.78429,1.49433 -3.96811,1.13965 -1.23189,-0.36909 -1.29132,-0.66676 -0.33282,-1.66721 l 0.7118,-0.74296 -1.96858,0.16388 c -2.32165,0.19326 -3.84964,-0.15131 -5.0134,-1.13055 -1.23,-1.03497 -1.01515,-1.81464 0.77859,-2.82546 1.22246,-0.68889 1.78044,-0.82669 3.72384,-0.9196 1.51402,-0.0724 3.06543,0.0454 4.59439,0.34878 1.26965,0.25194 2.37096,0.39559 2.44733,0.31921 0.16758,-0.16758 -1.87098,-0.7744 -5.09596,-1.51693 -2.49501,-0.57446 -4.17629,-1.37918 -3.99814,-1.91364 0.058,-0.17407 0.75136,-0.50473 1.54076,-0.7348 l 1.43527,-0.41832 -1.231,-0.31293 c -1.52988,-0.38891 -2.44987,-1.42145 -3.02294,-3.39273 -0.55229,-1.89981 -0.40745,-2.21866 1.00449,-2.21142 1.37503,0.007 3.09388,0.7529 4.62331,2.00615 1.2908,1.05772 1.43405,0.98451 0.49153,-0.2512 -0.69876,-0.91612 -1.71783,-3.00862 -1.72729,-3.5467 -0.003,-0.1819 0.20468,-0.33073 0.46194,-0.33073 0.85897,0 2.45599,1.34143 4.15489,3.48993 1.31109,1.65807 1.86581,2.65276 2.51309,4.50638 1.17996,3.37907 2.65385,5.6149 2.65385,4.02579 0,-1.84109 -3.36018,-14.09104 -4.85806,-17.71064 -0.51912,-1.25444 -0.69174,-1.47648 -0.82279,-1.05833 -0.51298,1.63675 -1.1276,2.41425 -2.48245,3.14029 -1.41425,0.75787 -1.41723,0.75823 -1.94317,0.23229 -0.94634,-0.94634 -0.53098,-5.73633 0.61741,-7.12005 0.16139,-0.19447 0.20458,-0.35357 0.096,-0.35357 -0.10861,0 -0.6632,0.52909 -1.23243,1.17577 -1.36996,1.55635 -3.69158,2.72039 -4.60009,2.30644 -0.45462,-0.20713 -0.64937,-0.50881 -0.64937,-1.0059 0,-0.96993 1.1155,-2.79599 2.30897,-3.77975 l 0.98659,-0.81323 h -1.77472 c -1.91115,0 -3.77171,-0.57867 -4.14313,-1.28859 -0.654,-1.25003 1.88285,-3.209326 4.15536,-3.209326 0.61818,0 0.57342,-0.09191 -0.70095,-1.439371 -1.16633,-1.233222 -1.36129,-1.589159 -1.36129,-2.485234 0,-1.18968 0.25713,-1.370117 1.93987,-1.361251 1.29464,0.0068 2.85459,0.663408 4.13211,1.739216 0.74089,0.62391 0.87182,0.668946 0.6958,0.239348 -1.1001,-2.685042 -1.2887,-5.611368 -0.41778,-6.482291 0.29104,-0.291042 0.70362,-0.529167 0.91683,-0.529167 0.68149,0 2.19543,1.562311 2.69784,2.784038 0.2675,0.650501 0.56045,1.183175 0.65099,1.18372 0.0905,5.46e-4 0.24371,-0.493606 0.34038,-1.098116 0.12512,-0.782494 0.46887,-1.392229 1.19331,-2.116666 1.15121,-1.151208 1.87798,-1.27469 2.6466,-0.449671 0.86376,0.927139 1.0044,2.76577 0.38025,4.971356 l -0.18237,0.644453 0.77131,-0.544037 c 0.42422,-0.29922 1.47626,-0.747288 2.33786,-0.995708 1.72874,-0.498441 2.63711,-0.279411 2.95169,0.711719 0.32704,1.030428 -1.72423,3.525663 -3.97127,4.830787 -0.32852,0.19081 0.19568,0.264583 1.88,0.264583 1.98616,0 2.48396,0.09228 3.32772,0.616892 1.75801,1.093036 1.14163,2.723556 -1.36371,3.607496 -0.63262,0.2232 -1.58173,0.40641 -2.10914,0.40713 l -0.95892,0.001 0.69131,0.594 c 0.38021,0.3267 0.83415,0.96407 1.00875,1.41638 0.17459,0.45231 0.6743,1.08622 1.11046,1.40868 0.53813,0.39786 0.76667,0.77134 0.71104,1.162 -0.0736,0.51671 -0.23105,0.57201 -1.53718,0.53977 -1.23531,-0.0305 -2.48344,-0.4263 -4.2827,-1.35812 -0.0999,-0.0517 -0.0572,0.35675 0.095,0.90776 0.3412,1.23571 -0.13214,3.66763 -0.78496,4.03296 -0.40175,0.22484 -0.38622,0.41718 0.1872,2.318 1.33902,4.4387 2.44304,8.88377 3.34054,13.4499 0.51485,2.61937 1.00926,5.06015 1.09869,5.42396 0.0985,0.40083 0.3529,-0.93277 0.64558,-3.3846 0.26565,-2.22533 0.77138,-5.20189 1.12386,-6.61458 1.21766,-4.88026 3.25372,-9.61308 4.21489,-9.79754 0.43564,-0.0836 0.46282,0.0589 0.30221,1.58419 -0.0971,0.92184 -0.59353,2.80716 -1.10326,4.18961 -1.39446,3.78194 -2.95573,11.1981 -2.46762,11.7214 0.28864,0.30945 0.82019,-0.63354 2.27116,-4.02921 1.34267,-3.14219 2.6132,-5.02708 4.20897,-6.24423 1.61577,-1.23241 2.11406,-0.47103 1.34672,2.05777 -0.20975,0.69122 -0.33162,1.25677 -0.27083,1.25677 0.0608,0 0.85877,-0.40372 1.77328,-0.89715 2.23363,-1.20517 4.17015,-1.79787 5.54948,-1.69853 1.02354,0.0737 1.14894,0.15673 1.22413,0.81029 0.16679,1.44969 -1.92631,3.31237 -6.04468,5.37923 -1.03878,0.52133 -1.83307,1.0035 -1.76509,1.07148 0.068,0.068 0.85922,-0.1242 1.7583,-0.42708 4.06436,-1.36918 8.96269,-0.22309 8.69676,2.03483 -0.0697,0.59187 -0.31185,0.78547 -1.49012,1.19138 -0.77379,0.26657 -2.61926,0.5717 -4.10104,0.67808 l -2.69415,0.19341 0.83916,0.50703 c 1.14731,0.69323 1.609,1.57841 1.1265,2.15978 -0.46977,0.56604 -2.62287,0.36988 -4.87608,-0.44424 -3.90314,-1.41025 -7.9499,-0.29391 -8.92864,2.46306 -0.0369,0.1041 -0.75211,0.26936 -1.58923,0.36724 l -1.52204,0.17796 z"
         id="path7974" />
      <path
         style="fill:#4f708e;stroke-width:1.0244"
         d="m 199.56246,136.2015 c 0.0828,-1.90148 -1.21106,-2.9052 -3.79198,-2.94173 -1.19868,-0.017 -1.67961,0.1153 -2.51354,0.69128 -2.18512,1.50923 -4.07848,1.82001 -4.91888,0.80738 -0.27104,-0.32658 -0.18067,-0.52607 0.52323,-1.15501 0.46797,-0.41813 0.85086,-0.79836 0.85086,-0.84496 0,-0.0466 -0.77193,0.0306 -1.71541,0.17165 -2.12607,0.31773 -4.29439,-0.10688 -5.4314,-1.06361 -1.00362,-0.84449 -0.9995,-1.45387 0.0156,-2.30803 1.57044,-1.32144 4.31663,-1.75734 7.79266,-1.23694 3.93073,0.58847 3.99137,0.59333 3.49782,0.28005 -0.25901,-0.16441 -2.09656,-0.70835 -4.08344,-1.20877 -5.06267,-1.27508 -6.10942,-2.10302 -3.29851,-2.60902 0.75382,-0.13569 1.36926,-0.31429 1.36765,-0.39687 -0.002,-0.0826 -0.61667,-0.38828 -1.36678,-0.67932 -0.75011,-0.29104 -1.57956,-0.82683 -1.84323,-1.19063 -0.54092,-0.74633 -1.28125,-3.39821 -1.0895,-3.9026 0.3704,-0.97432 4.08128,0.16723 5.80945,1.78712 1.21963,1.1432 1.59196,0.97448 0.60354,-0.2735 -0.88892,-1.12236 -1.93467,-3.51953 -1.65665,-3.79755 0.38875,-0.38875 0.99234,-0.077 2.3729,1.2256 2.42355,2.28669 3.74672,4.211 4.56977,6.64589 0.4105,1.21442 0.89361,2.49297 1.07359,2.84123 0.37945,0.73425 1.32971,1.82381 1.59062,1.82381 0.66573,0 -2.54628,-12.41091 -4.56643,-17.64431 -0.77037,-1.99572 -1.25956,-2.56019 -1.262,-1.45622 -0.002,0.9119 -1.05761,2.15842 -2.40678,2.8421 -1.35873,0.68852 -1.37223,0.68977 -1.88657,0.17543 -0.93791,-0.93791 -0.51548,-5.7358 0.62611,-7.11134 0.16139,-0.19447 0.20458,-0.35357 0.096,-0.35357 -0.10861,0 -0.6632,0.52909 -1.23243,1.17577 -1.36996,1.55635 -3.69158,2.72039 -4.60009,2.30644 -0.45462,-0.20713 -0.64937,-0.50881 -0.64937,-1.0059 0,-0.96993 1.1155,-2.79599 2.30897,-3.77975 l 0.98659,-0.81323 h -1.77472 c -1.91115,0 -3.77171,-0.57867 -4.14313,-1.28859 -0.654,-1.25003 1.88285,-3.209326 4.15536,-3.209326 0.61818,0 0.57342,-0.09191 -0.70095,-1.439371 -1.16633,-1.233222 -1.36129,-1.589159 -1.36129,-2.485234 0,-1.18968 0.25713,-1.370117 1.93987,-1.361251 1.29464,0.0068 2.85459,0.663408 4.13211,1.739216 0.74089,0.62391 0.87182,0.668946 0.6958,0.239348 -1.1001,-2.685042 -1.2887,-5.611368 -0.41778,-6.482291 0.29104,-0.291042 0.70362,-0.529167 0.91683,-0.529167 0.68149,0 2.19543,1.562311 2.69784,2.784038 0.2675,0.650501 0.56045,1.183175 0.65099,1.18372 0.0905,5.46e-4 0.24371,-0.493606 0.34038,-1.098116 0.12512,-0.782494 0.46887,-1.392229 1.19331,-2.116666 1.15121,-1.151208 1.87798,-1.27469 2.6466,-0.449671 0.86376,0.927139 1.0044,2.76577 0.38025,4.971356 l -0.18237,0.644453 0.77131,-0.544037 c 0.42422,-0.29922 1.47626,-0.747288 2.33786,-0.995708 1.72874,-0.498441 2.63711,-0.279411 2.95169,0.711719 0.32704,1.030428 -1.72423,3.525663 -3.97127,4.830787 -0.32852,0.19081 0.19568,0.264583 1.88,0.264583 1.98616,0 2.48396,0.09228 3.32772,0.616892 1.75801,1.093036 1.14163,2.723556 -1.36371,3.607496 -0.63262,0.2232 -1.58173,0.40641 -2.10914,0.40713 l -0.95892,0.001 0.69131,0.594 c 0.38021,0.3267 0.83415,0.96407 1.00875,1.41638 0.17459,0.45231 0.6743,1.08622 1.11046,1.40868 0.53813,0.39786 0.76667,0.77134 0.71104,1.162 -0.0736,0.51671 -0.23105,0.57201 -1.53718,0.53977 -1.23531,-0.0305 -2.48344,-0.4263 -4.2827,-1.35812 -0.0999,-0.0517 -0.0572,0.35675 0.095,0.90776 0.35567,1.28813 -0.13424,3.68078 -0.82989,4.05308 -0.457,0.24458 -0.44219,0.38158 0.29295,2.71102 1.21122,3.83797 2.49526,9.08289 3.40445,13.90621 0.45847,2.43222 0.91862,4.64524 1.02255,4.91782 0.11153,0.29253 0.37569,-1.11692 0.64465,-3.43958 0.25062,-2.16436 0.63022,-4.75881 0.84355,-5.76545 0.97115,-4.58258 3.4811,-10.77363 4.44141,-10.95517 0.42989,-0.0813 0.45655,0.0739 0.2952,1.71784 -0.0975,0.99394 -0.26911,1.92623 -0.38126,2.07175 -0.80028,1.0384 -3.42922,11.28302 -3.42922,13.36319 0,1.52516 1.15951,-0.16305 2.62762,-3.82577 1.10571,-2.75857 2.65392,-4.99067 4.20911,-6.06842 0.54831,-0.37998 1.06594,-0.69087 1.15028,-0.69087 0.30532,0 0.42863,1.0903 0.21766,1.92463 -0.1187,0.46942 -0.28812,1.17676 -0.3765,1.57186 l -0.1607,0.71837 1.27425,-0.79212 c 2.38862,-1.48484 5.78871,-2.4209 7.04394,-1.93923 1.60793,0.61703 -1.13355,3.71637 -5.09246,5.75721 -1.35754,0.69983 -2.41084,1.32982 -2.34067,1.4 0.0702,0.0702 0.92554,-0.11888 1.90082,-0.42011 3.05996,-0.94513 6.52104,-0.64449 7.96277,0.69165 1.66987,1.54759 0.056,2.63526 -4.59282,3.09525 -3.05783,0.30257 -3.0685,0.30603 -2.36576,0.76648 0.38826,0.2544 0.90933,0.77298 1.15793,1.15239 0.43125,0.65816 0.42838,0.70752 -0.0625,1.07441 -0.63064,0.4714 -2.30276,0.30148 -4.51162,-0.45848 -2.34074,-0.80533 -4.00436,-0.91829 -5.80688,-0.39429 -1.57637,0.45827 -3.29284,1.85103 -3.29284,2.67186 0,0.24937 -0.29266,0.37926 -0.8599,0.38165 -0.47294,0.002 -1.12579,0.0749 -1.45077,0.16199 -0.55236,0.14805 -0.5875,0.0807 -0.53902,-1.03316 z m -5.45823,-33.63411 c 0.73401,-0.73401 0.89959,-1.10166 0.89959,-1.99751 0,-1.351302 -0.52966,-2.4284 -1.43149,-2.911047 -2.26311,-1.211179 -4.92375,0.705324 -4.53921,3.269657 0.25418,1.69497 1.23514,2.47827 3.15289,2.5176 0.82079,0.0168 1.19336,-0.15384 1.91822,-0.8787 z"
         id="path7980" />
      <path
         style="fill:#69833a;stroke-width:1.0244"
         d="m 199.56246,136.2015 c 0.0828,-1.90148 -1.21106,-2.9052 -3.79198,-2.94173 -1.19868,-0.017 -1.67961,0.1153 -2.51354,0.69128 -2.18512,1.50923 -4.07848,1.82001 -4.91888,0.80738 -0.27104,-0.32658 -0.18067,-0.52607 0.52323,-1.15501 0.46797,-0.41813 0.85086,-0.79836 0.85086,-0.84496 0,-0.0466 -0.77193,0.0306 -1.71541,0.17165 -2.12607,0.31773 -4.29439,-0.10688 -5.4314,-1.06361 -1.00362,-0.84449 -0.9995,-1.45387 0.0156,-2.30803 1.57044,-1.32144 4.31663,-1.75734 7.79266,-1.23694 3.93073,0.58847 3.99137,0.59333 3.49782,0.28005 -0.25901,-0.16441 -2.09656,-0.70835 -4.08344,-1.20877 -5.06267,-1.27508 -6.10942,-2.10302 -3.29851,-2.60902 0.75382,-0.13569 1.36926,-0.31429 1.36765,-0.39687 -0.002,-0.0826 -0.61667,-0.38828 -1.36678,-0.67932 -0.75011,-0.29104 -1.57956,-0.82683 -1.84323,-1.19063 -0.54092,-0.74633 -1.28125,-3.39821 -1.0895,-3.9026 0.3704,-0.97432 4.08128,0.16723 5.80945,1.78712 1.21963,1.1432 1.59196,0.97448 0.60354,-0.2735 -0.88892,-1.12236 -1.93467,-3.51953 -1.65665,-3.79755 0.38875,-0.38875 0.99234,-0.077 2.3729,1.2256 2.42355,2.28669 3.74672,4.211 4.56977,6.64589 0.4105,1.21442 0.89361,2.49297 1.07359,2.84123 0.37945,0.73425 1.32971,1.82381 1.59062,1.82381 0.62285,0 -2.58511,-12.53033 -4.47067,-17.4625 l -0.55632,-1.45521 0.7023,0.89187 c 0.38627,0.49052 1.07944,1.04944 1.54038,1.24203 0.78307,0.32719 0.90138,0.5639 1.8023,3.60605 1.39148,4.69862 2.15587,7.87477 3.09732,12.86971 0.45707,2.425 0.91607,4.63212 1.02,4.9047 0.11153,0.29253 0.37569,-1.11692 0.64465,-3.43958 0.25062,-2.16436 0.63022,-4.75881 0.84355,-5.76545 0.97115,-4.58258 3.4811,-10.77363 4.44141,-10.95517 0.42989,-0.0813 0.45655,0.0739 0.2952,1.71784 -0.0975,0.99394 -0.26911,1.92623 -0.38126,2.07175 -0.80028,1.0384 -3.42922,11.28302 -3.42922,13.36319 0,1.52516 1.15951,-0.16305 2.62762,-3.82577 1.10571,-2.75857 2.65392,-4.99067 4.20911,-6.06842 0.54831,-0.37998 1.06594,-0.69087 1.15028,-0.69087 0.30532,0 0.42863,1.0903 0.21766,1.92463 -0.1187,0.46942 -0.28812,1.17676 -0.3765,1.57186 l -0.1607,0.71837 1.27425,-0.79212 c 2.38862,-1.48484 5.78871,-2.4209 7.04394,-1.93923 1.60793,0.61703 -1.13355,3.71637 -5.09246,5.75721 -1.35754,0.69983 -2.41084,1.32982 -2.34067,1.4 0.0702,0.0702 0.92554,-0.11888 1.90082,-0.42011 3.05996,-0.94513 6.52104,-0.64449 7.96277,0.69165 1.66987,1.54759 0.056,2.63526 -4.59282,3.09525 -3.05783,0.30257 -3.0685,0.30603 -2.36576,0.76648 0.38826,0.2544 0.90933,0.77298 1.15793,1.15239 0.43125,0.65816 0.42838,0.70752 -0.0625,1.07441 -0.63064,0.4714 -2.30276,0.30148 -4.51162,-0.45848 -2.34074,-0.80533 -4.00436,-0.91829 -5.80688,-0.39429 -1.57637,0.45827 -3.29284,1.85103 -3.29284,2.67186 0,0.24937 -0.29266,0.37926 -0.8599,0.38165 -0.47294,0.002 -1.12579,0.0749 -1.45077,0.16199 -0.55236,0.14805 -0.5875,0.0807 -0.53902,-1.03316 z"
         id="path7985" />
      <path
         style="fill:#637c36;stroke-width:1.0244"
         d="m 204.68719,117.48966 c 0.0964,-0.3638 0.53986,-1.37583 0.98553,-2.24896 0.5621,-1.10124 0.84229,-1.43964 0.91473,-1.10479 0.0574,0.26549 -0.10307,0.71197 -0.35666,0.99219 -0.25359,0.28021 -0.35332,0.5113 -0.22163,0.51353 0.1317,0.002 0.10699,0.0915 -0.0549,0.19843 -0.1619,0.10692 -0.55264,0.67064 -0.86832,1.25272 -0.35054,0.64637 -0.50576,0.80085 -0.39875,0.39688 z"
         id="path8067" />
      <path
         style="fill:#637c36;stroke-width:1.0244"
         d="m 202.76804,127.66471 c -0.0862,-0.22456 -0.0976,-0.46741 -0.0253,-0.53966 0.0722,-0.0723 0.19488,0.11147 0.2725,0.40828 0.16487,0.63048 -0.0183,0.72784 -0.2472,0.13138 z"
         id="path8066" />
      <path
         style="fill:#637c36;stroke-width:1.0244"
         d="m 199.62383,135.79723 c 0.0463,-0.77219 0.0281,-1.3479 -0.0405,-1.27935 -0.0685,0.0685 -0.5392,-0.15669 -1.04589,-0.50054 -1.02068,-0.69265 -2.88021,-1.07123 -3.83822,-0.78142 -0.34179,0.1034 -1.21676,0.55211 -1.94436,0.99713 -1.59254,0.97404 -3.78368,1.28812 -4.33681,0.62164 -0.29575,-0.35636 -0.23379,-0.52735 0.41769,-1.15262 0.42072,-0.4038 1.02449,-0.90666 1.3417,-1.11745 0.31721,-0.2108 0.64656,-0.56519 0.73188,-0.78753 0.0936,-0.24389 -0.10009,-0.1645 -0.48822,0.20014 -0.74214,0.6972 -3.62859,1.22064 -5.18041,0.93942 -1.45102,-0.26294 -2.92247,-1.10289 -3.2706,-1.86695 -0.28508,-0.62568 -0.23562,-0.75025 0.56226,-1.41635 0.48116,-0.40169 1.43024,-0.89181 2.10909,-1.08916 1.57679,-0.45839 5.20227,-0.40385 7.58425,0.11409 1.01865,0.2215 1.95585,0.30435 2.08266,0.18413 0.24826,-0.23536 -2.18942,-1.01997 -5.38995,-1.73485 -2.19056,-0.48929 -3.74337,-1.13394 -3.90062,-1.61935 -0.1264,-0.39015 1.88714,-0.96724 2.77957,-0.79664 1.0585,0.20234 0.14209,-0.49704 -1.39174,-1.06215 -1.06302,-0.39165 -1.4437,-0.70743 -1.94218,-1.61108 -0.37015,-0.671 -0.63702,-1.62742 -0.66221,-2.37325 -0.0415,-1.22758 -0.0272,-1.25074 0.82265,-1.33257 0.5175,-0.0498 1.44729,0.18338 2.3151,0.58068 1.60495,0.73477 1.77467,0.92055 0.78899,0.86367 -0.3637,-0.021 -0.66135,-0.14729 -0.66145,-0.28069 -1.1e-4,-0.13339 -0.0788,-0.16389 -0.17496,-0.0678 -0.20978,0.20978 0.67044,1.23635 1.06009,1.23635 0.15079,0 0.0472,-0.16595 -0.23018,-0.36878 -0.46878,-0.34278 -0.44589,-0.36583 0.32469,-0.32708 0.55254,0.0278 1.18448,0.37058 1.89484,1.02783 0.5862,0.54237 1.13245,0.87832 1.21389,0.74655 0.0814,-0.13176 0.058,-0.27951 -0.052,-0.32832 -0.37553,-0.16656 -1.67862,-2.06747 -2.19083,-3.19592 -1.07372,-2.3655 -0.47353,-2.6701 1.5956,-0.80977 2.09389,1.88259 3.85675,4.37372 4.51758,6.3839 0.68682,2.08922 1.39475,3.57367 2.24634,4.71029 0.34089,0.45498 0.53565,0.92055 0.4328,1.0346 -0.10284,0.11406 -0.0267,0.11467 0.16909,0.001 0.4729,-0.27358 0.28272,-1.55149 -1.0254,-6.89031 -0.87816,-3.58401 -2.87523,-10.23178 -3.55781,-11.8431 -0.10858,-0.25631 0.22066,-0.048 0.73163,0.46302 0.51097,0.51097 1.11532,0.92904 1.34299,0.92904 0.74201,0 2.93235,7.72297 4.6496,16.3942 0.44561,2.25009 0.8102,4.48251 0.8102,4.96094 0,0.93516 0.39005,1.22183 0.45679,0.33572 0.14081,-1.86925 0.95835,-7.85634 1.29891,-9.51232 0.49469,-2.40539 1.67005,-6.19515 1.86188,-6.00332 0.0766,0.0766 0.005,0.54658 -0.15935,1.04434 -0.16428,0.49775 -0.35505,1.13081 -0.42394,1.40679 -0.0689,0.27598 -0.36873,1.39475 -0.66629,2.48615 -0.29757,1.09141 -0.56515,2.63922 -0.59462,3.43959 -0.0295,0.80036 -0.17265,1.54268 -0.31817,1.64959 -0.151,0.11094 -0.0741,0.19612 0.17904,0.19844 0.24399,0.002 0.48826,0.21241 0.54283,0.46707 0.0546,0.25466 0.25387,-0.33265 0.44288,-1.30514 0.18902,-0.97248 0.26514,-1.89522 0.16915,-2.05052 -0.096,-0.1553 -0.0589,-0.28236 0.0824,-0.28236 0.1413,0 0.22177,-0.32007 0.17883,-0.71127 -0.0429,-0.3912 0.0866,-0.87596 0.28788,-1.07724 0.42235,-0.42235 0.49285,-1.38649 0.10137,-1.38649 -0.14552,0 -0.26458,-0.13364 -0.26458,-0.29698 0,-0.20519 0.12267,-0.19517 0.39688,0.0324 0.46529,0.38616 0.5408,-0.0148 0.088,-0.46758 -0.23538,-0.23538 -0.20391,-0.34908 0.1323,-0.4781 0.24261,-0.0931 0.44111,-0.39466 0.44111,-0.67013 0,-0.27547 0.0899,-0.50086 0.19985,-0.50086 0.10991,0 0.33911,-0.44497 0.50934,-0.98883 0.23673,-0.75634 0.2364,-1.03532 -10e-4,-1.18657 -0.20618,-0.13114 -0.15664,-0.19911 0.14708,-0.2018 0.5512,-0.005 0.82516,-0.92472 0.84826,-2.84806 0.0115,-0.96065 0.12363,-1.38889 0.36362,-1.38907 0.26165,-1.9e-4 0.30466,0.30868 0.17496,1.25652 -0.28104,2.05373 -0.32632,2.22535 -1.16929,4.43177 -1.3129,3.43642 -3.05638,11.46568 -2.59077,11.93128 0.43229,0.4323 1.52166,-1.40164 2.84382,-4.78753 0.34094,-0.87313 0.94149,-2.06375 1.33454,-2.64584 0.8368,-1.23926 3.26316,-3.57187 3.71542,-3.57187 0.32376,0 0.20368,2.34359 -0.18888,3.68651 l -0.1882,0.6438 0.98761,-0.61038 c 2.51407,-1.55378 5.82183,-2.62655 7.10537,-2.3044 2.03656,0.51114 -0.22874,3.25184 -4.71941,5.70983 -3.00883,1.6469 -2.8838,1.56761 -2.72393,1.72748 0.0669,0.0669 1.04376,-0.17125 2.17085,-0.52917 3.25104,-1.0324 6.18847,-0.81755 7.84171,0.57356 0.84372,0.70994 1.02536,1.43895 0.47123,1.89129 -0.73826,0.60267 -3.32478,1.12278 -5.67748,1.14164 -1.35215,0.0109 -2.45698,0.0992 -2.45518,0.19634 0.002,0.0971 0.42412,0.44928 0.93849,0.78252 1.89348,1.22675 1.56131,2.62519 -0.54489,2.294 -0.58208,-0.0915 -1.98721,-0.45404 -3.12251,-0.80556 -3.50687,-1.08583 -6.5445,-0.67591 -8.09738,1.09272 -0.45026,0.51282 -0.81865,1.09583 -0.81865,1.29558 0,0.25212 -0.43921,0.3909 -1.43623,0.45381 l -1.43623,0.0906 z m 0.64388,0.52983 c 0.14049,-0.2625 0.15996,-0.63175 0.0433,-0.82055 -0.1422,-0.23008 -0.25188,-0.0727 -0.33259,0.47728 -0.13798,0.94007 -0.072,1.01837 0.28931,0.34327 z m 1.87986,0.2127 c 0,-0.14552 -0.0525,-0.26459 -0.11668,-0.26459 -0.0642,0 -0.19026,0.11907 -0.2802,0.26459 -0.0899,0.14552 -0.0374,0.26458 0.11668,0.26458 0.15411,0 0.2802,-0.11906 0.2802,-0.26458 z m -0.60067,-0.71154 c 0.0516,-0.15488 -0.0642,-0.34227 -0.2575,-0.41643 -0.21604,-0.0829 -0.35136,0.0586 -0.35136,0.36743 0,0.51626 0.44127,0.55177 0.60886,0.049 z m 0.52822,-1.4499 c -0.41451,-0.25619 -0.50517,-0.12476 -0.29384,0.42596 0.1361,0.35467 0.22319,0.37951 0.38914,0.111 0.12371,-0.20016 0.0836,-0.42643 -0.0953,-0.53696 z m -12.26095,-0.53615 c 0.15374,-0.10123 0.22167,-0.24192 0.15095,-0.31264 -0.26944,-0.26944 -1.38577,0.8236 -1.18045,1.15582 0.15526,0.25122 0.27478,0.21072 0.47846,-0.16214 0.14933,-0.27334 0.3973,-0.57982 0.55104,-0.68104 z m 0.62007,0.95024 c -0.0879,-0.0879 -0.31612,-0.0973 -0.50711,-0.0209 -0.21107,0.0845 -0.14838,0.14715 0.15985,0.15985 0.27891,0.0115 0.43518,-0.0511 0.34726,-0.13896 z m 25.38782,-0.68351 c -0.0845,-0.21107 -0.14716,-0.14837 -0.15986,0.15985 -0.0115,0.27892 0.051,0.43519 0.13897,0.34727 0.0879,-0.0879 0.0973,-0.31612 0.0209,-0.50712 z m -11.5446,-0.33909 c 0.13491,0.0834 0.17305,-0.0367 0.0847,-0.26679 -0.14232,-0.37088 -0.20111,-0.36493 -0.51772,0.0524 -0.19644,0.25894 -0.35733,0.58986 -0.35754,0.73538 -2e-4,0.14552 0.12239,0.0537 0.27243,-0.204 0.15004,-0.25772 0.38318,-0.40037 0.51809,-0.31699 z m -1.73302,-0.40505 c 0.0899,-0.14552 0.0374,-0.26458 -0.11667,-0.26458 -0.15411,0 -0.2802,0.11906 -0.2802,0.26458 0,0.14552 0.0525,0.26458 0.11667,0.26458 0.0642,0 0.19027,-0.11906 0.2802,-0.26458 z m 7.80521,0 c 0,-0.14552 -0.26789,-0.25622 -0.59531,-0.24599 -0.56804,0.0178 -0.57107,0.029 -0.0662,0.24599 0.29104,0.12506 0.55893,0.23576 0.59531,0.24599 0.0364,0.0102 0.0661,-0.10047 0.0661,-0.24599 z m -3.70417,-0.26458 c 0,-0.14553 -0.0525,-0.26459 -0.11667,-0.26459 -0.0642,0 -0.19026,0.11906 -0.2802,0.26459 -0.0899,0.14552 -0.0374,0.26458 0.11668,0.26458 0.1541,0 0.28019,-0.11906 0.28019,-0.26458 z m 1.32292,0.008 c 0,-0.14095 -0.17859,-0.18775 -0.39687,-0.10399 -0.21829,0.0838 -0.39688,0.19909 -0.39688,0.25628 0,0.0572 0.17859,0.10399 0.39688,0.10399 0.21828,0 0.39687,-0.11533 0.39687,-0.25628 z m -11.31094,-0.44812 c -0.1819,-0.0734 -0.47955,-0.0734 -0.66145,0 -0.18191,0.0734 -0.0331,0.13346 0.33072,0.13346 0.36381,0 0.51263,-0.0601 0.33073,-0.13346 z m 5.75469,0.0586 c 0,-0.0642 -0.11906,-0.19027 -0.26458,-0.2802 -0.14552,-0.0899 -0.26459,-0.0374 -0.26459,0.11667 0,0.15411 0.11907,0.2802 0.26459,0.2802 0.14552,0 0.26458,-0.0525 0.26458,-0.11667 z m -13.49375,-0.39583 c 0.24006,-0.0304 0.13552,-0.16005 -0.26458,-0.3282 -0.39071,-0.1642 -0.52608,-0.32882 -0.33073,-0.40215 0.1819,-0.0683 0.33073,-0.24033 0.33073,-0.38231 0,-0.14198 -0.11906,-0.18457 -0.26459,-0.0946 -0.14552,0.0899 -0.26458,0.0374 -0.26458,-0.11668 0,-0.42762 -1.30728,-0.33363 -1.76803,0.12712 -0.3667,0.3667 -0.44313,0.36011 -0.76644,-0.0661 -0.50307,-0.66325 -0.46298,-1.00651 0.0668,-0.57201 0.39746,0.32598 0.42513,0.29546 0.27039,-0.29833 -0.13021,-0.49968 -0.0282,-0.77327 0.41714,-1.1186 l 0.58951,-0.45713 -0.74322,-0.006 c -0.40877,-0.003 -0.67406,0.10602 -0.58953,0.2428 0.24661,0.39902 -0.73867,1.79474 -1.1808,1.67268 -0.34277,-0.0946 -0.34449,-0.0731 -0.0126,0.1577 0.21134,0.147 0.471,0.21366 0.57703,0.14812 0.36967,-0.22846 0.5589,0.47984 0.19711,0.73778 -0.28228,0.20125 -0.26006,0.22632 0.0984,0.11101 0.3231,-0.10394 0.46302,-0.007 0.46302,0.32106 0,0.3967 0.21666,0.46252 1.38906,0.42201 0.76399,-0.0264 1.56766,-0.0706 1.78594,-0.0982 z m -2.57788,-0.23925 c -0.23835,-0.14731 -0.20321,-0.29863 0.1361,-0.58607 0.52534,-0.44503 1.20993,-0.50501 1.3398,-0.11739 0.0488,0.14552 0.21216,0.41341 0.36313,0.59532 0.2004,0.24147 0.15862,0.33073 -0.15479,0.33073 -0.2361,0 -0.42928,-0.1786 -0.42928,-0.39688 0,-0.50657 -0.43739,-0.51388 -0.71825,-0.012 -0.12215,0.21827 -0.35448,0.29891 -0.53671,0.18629 z m 20.23882,-0.10932 c 0.1819,0.0613 0.33073,0.007 0.33073,-0.1202 0,-0.12739 -0.35719,-0.22686 -0.79375,-0.22106 -0.43657,0.006 -0.79375,0.10011 -0.79375,0.20957 0,0.10946 0.12609,0.19901 0.2802,0.19901 0.1541,0 0.20481,0.14883 0.11267,0.33073 -0.0921,0.1819 -0.01,0.14169 0.18282,-0.0894 0.19269,-0.23105 0.49918,-0.36996 0.68108,-0.30868 z m -3.37749,0.001 c 0.002,0.1819 0.0976,0.33073 0.21194,0.33073 0.11434,0 0.20788,-0.23813 0.20788,-0.52917 0,-0.29104 -0.0697,-0.52917 -0.15497,-0.52917 -0.25898,0 -0.79023,0.61703 -0.78591,0.91281 0.002,0.1528 0.11946,0.0992 0.26053,-0.11906 0.17098,-0.26458 0.25783,-0.28663 0.26053,-0.0661 z m -13.38466,-0.15434 c 0.075,-0.12127 -0.0319,-0.22049 -0.23733,-0.22049 -0.20548,0 -0.31228,0.0992 -0.23733,0.22049 0.075,0.12126 0.18175,0.22048 0.23733,0.22048 0.0556,0 0.16238,-0.0992 0.23733,-0.22048 z m 12.58615,-0.711 c 0.11987,0.0741 0.28389,-0.0371 0.36449,-0.24719 0.1027,-0.26764 0.0189,-0.33289 -0.28027,-0.2181 -0.28427,0.10909 -0.36291,0.0604 -0.23549,-0.14577 0.10522,-0.17025 0.36288,-0.30954 0.57257,-0.30954 0.20969,0 0.38126,-0.11906 0.38126,-0.26458 0,-0.14553 -0.14342,-0.23482 -0.3187,-0.19844 -0.17529,0.0364 -0.339,-0.0827 -0.3638,-0.26459 -0.0248,-0.1819 -0.0737,-0.42002 -0.1086,-0.52916 -0.1007,-0.31469 -0.50353,1.84785 -0.48054,2.57969 0.0195,0.62108 0.0278,0.62487 0.13596,0.0622 0.0633,-0.32958 0.21325,-0.53863 0.33312,-0.46454 z m 5.21228,0.28166 c 0,-0.21188 -0.0992,-0.32391 -0.22048,-0.24897 -0.12127,0.075 -0.22049,0.0201 -0.22049,-0.12188 0,-0.14198 0.0893,-0.30809 0.19844,-0.36912 0.10914,-0.061 0.0691,-0.0822 -0.089,-0.047 -0.15811,0.0352 -0.6876,-0.30993 -1.17664,-0.76698 -0.48905,-0.45705 -0.8142,-0.63562 -0.72256,-0.39683 0.10014,0.26099 -0.0374,0.61876 -0.34472,0.89692 -0.28123,0.25451 -0.51132,0.56999 -0.51132,0.70107 0,0.13108 0.28402,-0.0919 0.63115,-0.49543 0.54363,-0.632 0.6904,-0.68459 1.05833,-0.37923 0.23495,0.19499 0.42718,0.47565 0.42718,0.62369 0,0.19833 0.64419,0.86456 0.94809,0.98054 0.0121,0.005 0.0221,-0.16494 0.0221,-0.37682 z m 2.50228,-0.21448 c -0.26131,-0.25937 -0.2917,-0.22898 -0.14811,0.14811 0.0994,0.26094 0.2473,0.40778 0.32876,0.32632 0.0815,-0.0815 1.7e-4,-0.29496 -0.18065,-0.47443 z m 3.14217,0.39284 c 0,-0.11378 -0.32743,-0.23166 -0.72761,-0.26197 -0.55712,-0.0422 -0.63461,0.005 -0.33073,0.20283 0.47961,0.31168 1.05834,0.34402 1.05834,0.0591 z m -30.67305,-0.55208 c -0.14552,-0.27191 -0.17948,-0.58866 -0.0755,-0.70388 0.10403,-0.11523 0.04,-0.12365 -0.14231,-0.0187 -0.242,0.13929 -0.25734,0.32923 -0.0568,0.70388 0.15104,0.28221 0.33414,0.51311 0.4069,0.51311 0.0728,0 0.0132,-0.22248 -0.13229,-0.49438 z m 1.43659,-0.66278 c 0,-0.81392 -0.0976,-1.11935 -0.32921,-1.03044 -0.18106,0.0695 -0.27167,0.21947 -0.20135,0.33326 0.0703,0.11378 -0.0494,0.35401 -0.2661,0.53384 -0.50584,0.41981 -0.50447,0.79133 0.003,0.79133 0.21828,0 0.39688,0.11906 0.39688,0.26458 0,0.14552 0.0893,0.26451 0.19843,0.26441 0.10914,-9e-5 0.19844,-0.52074 0.19844,-1.15698 z m 6.57472,0.76875 c 0.082,-0.21362 0.0599,-0.44349 -0.0491,-0.51083 -0.10896,-0.0673 -0.21542,0.10744 -0.23658,0.3884 -0.0458,0.60763 0.0789,0.66109 0.28564,0.12243 z m 20.81896,-0.0197 c 0.27551,-0.33197 0.27429,-0.46769 -0.007,-0.72761 -0.27537,-0.25486 -0.31427,-0.23105 -0.19223,0.11764 0.20402,0.58291 -0.0717,0.82112 -0.51985,0.44917 -0.28541,-0.23687 -0.32619,-0.20865 -0.19448,0.13459 0.20831,0.54284 0.47791,0.55058 0.9131,0.0262 z m -21.60888,-0.25185 c -0.0834,-0.21745 -0.27101,-0.32163 -0.41681,-0.23151 -0.16301,0.10074 -0.12686,0.25144 0.0939,0.3913 0.48175,0.30526 0.49827,0.29709 0.32294,-0.15979 z m 29.93395,-0.13381 c -0.0899,-0.14553 -0.30532,-0.26276 -0.47864,-0.26054 -0.18934,0.002 -0.1567,0.10643 0.0818,0.26054 0.5083,0.32848 0.59989,0.32848 0.39688,0 z m -30.92846,-0.57413 c 0.12863,-0.20814 0.0471,-0.2542 -0.24897,-0.1406 -0.24215,0.0929 -0.4421,0.0834 -0.44433,-0.0212 -0.002,-0.10458 -0.11222,-0.36107 -0.24442,-0.57 -0.1992,-0.31481 -0.31178,-0.32059 -0.6574,-0.0337 -0.50887,0.42233 -0.55118,0.91858 -0.0623,0.73098 0.19509,-0.0749 0.52252,-0.0299 0.7276,0.0999 0.50057,0.31688 0.70235,0.30269 0.92984,-0.0654 z m 25.06663,-0.0987 c -0.0862,-0.22456 -0.21341,-0.35155 -0.28277,-0.28219 -0.0693,0.0693 -0.0476,0.25308 0.0483,0.40829 0.26089,0.42213 0.41338,0.34012 0.23447,-0.1261 z m -27.08285,-0.70789 c 0.002,-0.10458 -0.16702,-0.12449 -0.37611,-0.0443 -0.2091,0.0802 -0.31159,0.3246 -0.22777,0.54304 0.12398,0.32309 0.19413,0.33135 0.37612,0.0443 0.12304,-0.1941 0.22554,-0.43847 0.22776,-0.54304 z m -1.5875,-0.27289 c 0.002,-0.10914 -0.2043,-0.18904 -0.45897,-0.17755 -0.25466,0.0115 -0.32088,0.0787 -0.14715,0.14939 0.17373,0.0707 0.25179,0.32916 0.17348,0.57442 -0.12168,0.38108 -0.10088,0.38822 0.1431,0.049 0.15702,-0.21828 0.28732,-0.48617 0.28954,-0.59531 z m 6.39141,-0.002 c -0.13731,-0.13731 -1.24368,-0.29325 -2.45861,-0.34652 -1.34968,-0.0592 -2.00311,-0.0102 -1.67979,0.12595 0.29104,0.12256 0.6387,0.15867 0.77257,0.0802 0.13387,-0.0784 0.17041,0.0476 0.0812,0.28012 -0.11555,0.30113 -0.0182,0.41185 0.33843,0.38499 0.40603,-0.0306 0.44068,-0.11045 0.18339,-0.42262 -0.27393,-0.33235 -0.23161,-0.33926 0.31,-0.0506 0.39274,0.20932 0.56001,0.22552 0.4474,0.0433 -0.10852,-0.1756 0.0362,-0.29098 0.36495,-0.29098 0.29963,0 0.54478,0.12709 0.54478,0.28241 0,0.17218 0.23157,0.20892 0.59324,0.0941 0.55103,-0.17489 0.56515,-0.15263 0.19844,0.3129 -0.36646,0.4652 -0.36076,0.47445 0.0794,0.12875 0.29725,-0.23344 0.38106,-0.4656 0.22458,-0.62208 z m 21.7199,-0.004 c 0.1845,-0.0658 0.25747,-0.20405 0.16217,-0.30715 -0.19207,-0.20778 -1.28193,0.63088 -1.28193,0.98646 0,0.12358 0.17647,0.0482 0.39215,-0.16747 0.21569,-0.21568 0.54311,-0.44601 0.72761,-0.51184 z m 8.66983,0.48494 c 0,-0.0642 -0.11907,-0.19027 -0.26459,-0.2802 -0.14552,-0.0899 -0.26458,-0.0374 -0.26458,0.11667 0,0.15411 0.11906,0.2802 0.26458,0.2802 0.14552,0 0.26459,-0.0525 0.26459,-0.11667 z m -14.94896,-0.41249 c -0.0899,-0.14553 -0.27556,-0.26459 -0.41249,-0.26459 -0.13693,0 -0.24897,0.11906 -0.24897,0.26459 0,0.14552 0.18562,0.26458 0.41249,0.26458 0.22687,0 0.33891,-0.11906 0.24897,-0.26458 z m 2.65283,-0.21349 c -0.0815,-0.0815 -0.29495,-1.7e-4 -0.47443,0.18065 -0.25936,0.26131 -0.22897,0.2917 0.14811,0.14812 0.26094,-0.0994 0.40779,-0.24731 0.32632,-0.32877 z m 8.45967,0.21349 c -0.0899,-0.14553 -0.30532,-0.26276 -0.47864,-0.26054 -0.18934,0.002 -0.1567,0.10643 0.0818,0.26054 0.5083,0.32848 0.59989,0.32848 0.39688,0 z m -10.55807,-0.57005 c 0.11697,-0.18926 0.0726,-0.23365 -0.11668,-0.11668 -0.168,0.10383 -0.30546,0.0557 -0.30546,-0.10702 0,-0.1627 -0.121,-0.22103 -0.2689,-0.12963 -0.2959,0.18288 -0.10164,0.65879 0.2689,0.65879 0.12834,0 0.31831,-0.13746 0.42214,-0.30546 z m 7.11849,0.0409 c 0.51017,-0.21923 0.50836,-0.22806 -0.0505,-0.24599 -0.31883,-0.0102 -0.65328,0.10047 -0.74321,0.24599 -0.19342,0.31294 0.0655,0.31294 0.79375,0 z m -5.68855,-0.16708 c 0,-0.0434 -0.23544,-0.20489 -0.52321,-0.3589 -0.4104,-0.21964 -0.49352,-0.20264 -0.38549,0.0789 0.11358,0.29599 0.9087,0.541 0.9087,0.28002 z m 9.39333,-0.16135 c 0.11908,0.10787 0.13087,0.0473 0.0262,-0.13459 -0.26314,-0.45725 -0.59987,-0.41356 -0.79831,0.10357 -0.13171,0.34323 -0.0909,0.37145 0.19448,0.13458 0.19862,-0.16484 0.45856,-0.21144 0.57764,-0.10356 z m -25.26833,-0.56931 c 0,-0.0572 -0.18477,-0.17489 -0.41061,-0.26155 -0.23546,-0.0904 -0.34166,-0.046 -0.24897,0.10399 0.15538,0.2514 0.65958,0.37185 0.65958,0.15756 z m 19.57917,-0.29289 c 0.18985,-0.22875 0.21557,-0.39687 0.0607,-0.39687 -0.14777,0 -0.3372,0.17859 -0.42096,0.39687 -0.0838,0.21828 -0.11108,0.39688 -0.0607,0.39688 0.0504,0 0.23981,-0.1786 0.42097,-0.39688 z m -5.39869,-0.70233 c 0.11158,-0.18055 0.0731,-0.23398 -0.0941,-0.13065 -0.15558,0.0962 -0.34317,0.0252 -0.41687,-0.15756 -0.0808,-0.20051 -0.14229,-0.14869 -0.15489,0.13065 -0.0236,0.52359 0.38051,0.61922 0.66584,0.15756 z m -17.88464,-0.2154 c 0,-0.14096 -0.1786,-0.18775 -0.39688,-0.10399 -0.21828,0.0838 -0.39687,0.19909 -0.39687,0.25628 0,0.0572 0.17859,0.10399 0.39687,0.10399 0.21828,0 0.39688,-0.11533 0.39688,-0.25628 z m 19.57916,-0.008 c 0,-0.14552 -0.11906,-0.26458 -0.26458,-0.26458 -0.14552,0 -0.26458,0.11906 -0.26458,0.26458 0,0.14552 0.11906,0.26459 0.26458,0.26459 0.14552,0 0.26458,-0.11907 0.26458,-0.26459 z m -21.32876,-1.37735 c 0.15824,-0.1027 0.0213,-0.16666 -0.30426,-0.14213 -0.32559,0.0245 -0.59198,0.14534 -0.59198,0.26848 0,0.12315 -0.14882,0.14851 -0.33072,0.0564 -0.18191,-0.0921 -0.094,0.024 0.19538,0.25813 0.40443,0.3272 0.5513,0.34704 0.63499,0.0858 0.0599,-0.18693 0.23834,-0.42391 0.39659,-0.52661 z m 21.85793,0.5836 c 0,-0.14552 -0.0525,-0.26458 -0.11668,-0.26458 -0.0642,0 -0.19026,0.11906 -0.28019,0.26458 -0.0899,0.14552 -0.0374,0.26459 0.11667,0.26459 0.15411,0 0.2802,-0.11907 0.2802,-0.26459 z m 1.18346,-0.0116 c -0.22613,-0.36589 0.3874,-1.08825 0.73948,-0.87066 0.15612,0.0965 0.19678,0.0429 0.0938,-0.12365 -0.0999,-0.16164 -0.35642,-0.22683 -0.57004,-0.14486 -0.26575,0.10198 -0.38841,-0.027 -0.38841,-0.40843 0,-0.30661 -0.11611,-0.55747 -0.25803,-0.55747 -0.16717,0 -0.1665,0.24074 0.002,0.68366 0.14296,0.37601 0.19252,0.79273 0.11013,0.92604 -0.15029,0.24316 0.0617,0.77155 0.30954,0.77155 0.0728,0 0.0555,-0.12428 -0.0384,-0.27618 z m 1.19779,-0.22451 c 0,-0.11268 -0.16724,-0.20487 -0.37165,-0.20487 -0.20441,0 -0.31099,0.15807 -0.23686,0.35126 0.13513,0.35215 0.60851,0.23827 0.60851,-0.14639 z m 1.05518,-0.13746 c -0.17219,-0.17219 -0.36521,-0.15765 -0.56546,0.0426 -0.22898,0.22898 -0.16445,0.29351 0.26144,0.26143 0.37243,-0.028 0.47621,-0.13184 0.30402,-0.30402 z m 1.85524,-0.008 c 0,-0.0642 -0.11907,-0.19026 -0.26459,-0.2802 -0.14552,-0.0899 -0.26458,-0.0374 -0.26458,0.11668 0,0.15411 0.11906,0.2802 0.26458,0.2802 0.14552,0 0.26459,-0.0525 0.26459,-0.11668 z m -7.06699,-0.67744 c 0.0762,-0.29124 0.0305,-0.46281 -0.10144,-0.38126 -0.13195,0.0816 -0.23991,0.31984 -0.23991,0.52954 0,0.54762 0.17979,0.46952 0.34135,-0.14828 z m -18.5976,3.7e-4 c 0,-0.14552 -0.12608,-0.26458 -0.28019,-0.26458 -0.15411,0 -0.20662,0.11906 -0.11668,0.26458 0.0899,0.14552 0.21603,0.26458 0.2802,0.26458 0.0642,0 0.11667,-0.11906 0.11667,-0.26458 z m 24.14323,0.0893 c -0.1819,-0.0734 -0.47955,-0.0734 -0.66146,0 -0.1819,0.0734 -0.0331,0.13346 0.33073,0.13346 0.36381,0 0.51263,-0.0601 0.33073,-0.13346 z m 4.29948,-0.0893 c 0.0899,-0.14552 0.0445,-0.26458 -0.10106,-0.26458 -0.14552,0 -0.33817,0.11906 -0.42811,0.26458 -0.0899,0.14552 -0.0445,0.26458 0.10107,0.26458 0.14552,0 0.33816,-0.11906 0.4281,-0.26458 z m -6.63666,-1.75766 c 0.25207,-0.6569 -0.0258,-0.7466 -0.36267,-0.11708 -0.16253,0.30369 -0.1849,0.55182 -0.0497,0.55182 0.13507,0 0.32065,-0.19563 0.41241,-0.43474 z m -1.07705,-1.40198 c 0.23932,-0.29899 0.22982,-0.33606 -0.0439,-0.17137 -0.44923,0.2703 -0.82852,1.26856 -0.61218,1.61122 0.0919,0.14552 0.20837,-0.0331 0.25887,-0.39688 0.0505,-0.3638 0.22924,-0.83314 0.3972,-1.04297 z m -24.54171,0.64493 c -0.71716,-0.66464 -0.72075,-1.18946 -0.008,-1.18946 0.20969,0 0.38126,-0.10632 0.38126,-0.23627 0,-0.39718 -0.70912,-0.535 -1.06025,-0.20607 -0.26232,0.24573 -0.2921,0.14594 -0.14356,-0.48105 0.10309,-0.4351 0.32682,-0.87976 0.49718,-0.98813 0.17037,-0.10837 0.25023,-0.20771 0.17746,-0.22075 -0.0728,-0.0131 -0.41603,-0.0761 -0.76282,-0.14006 -0.59011,-0.10889 -0.62064,-0.0554 -0.47614,0.83506 0.22149,1.36491 1.21496,3.28936 1.69808,3.28936 0.29214,0 0.20402,-0.19267 -0.30308,-0.66263 z m 25.39469,-0.48037 c 0.74442,-0.89468 0.79076,-1.33594 0.10156,-0.96709 -0.30197,0.16161 -0.50157,0.4346 -0.44358,0.60664 0.058,0.17205 -0.0836,0.45786 -0.31465,0.63514 -0.23105,0.17727 -0.29274,0.3261 -0.13708,0.33072 0.15566,0.005 0.51284,-0.2678 0.79375,-0.60541 z m 6.19927,0.34925 c 0.48365,-0.31256 0.0659,-0.31256 -0.66146,0 -0.34891,0.14993 -0.39397,0.23234 -0.13229,0.24193 0.21828,0.008 0.57547,-0.10087 0.79375,-0.24193 z m -30.96391,-0.51884 c 0.21407,-0.13538 0.33294,-0.30241 0.26417,-0.37119 -0.0688,-0.0688 -0.35597,0.0438 -0.63822,0.2502 -0.56447,0.41275 -0.24876,0.51487 0.37405,0.12099 z m 0.32516,-2.4445 c -0.24694,-0.24694 -0.38805,-0.24694 -0.635,0 -0.24694,0.24695 -0.21407,0.3175 0.14791,0.3175 0.29552,0 0.39725,0.12073 0.27869,0.33073 -0.14938,0.26458 -0.11546,0.26458 0.16959,0 0.27713,-0.25723 0.28576,-0.40128 0.0388,-0.64823 z m 8.81063,-5.23875 c 0.0899,-0.14552 0.0374,-0.26458 -0.11668,-0.26458 -0.15411,0 -0.2802,0.11906 -0.2802,0.26458 0,0.14552 0.0525,0.26459 0.11668,0.26459 0.0642,0 0.19026,-0.11907 0.2802,-0.26459 z"
         id="path8065" />
      <path
         style="fill:#59742d;stroke-width:1.0244"
         d="m 205.87042,118.86565 c -0.0103,-0.18913 0.15148,-0.67294 0.35947,-1.07514 0.20798,-0.40219 0.4582,-1.49761 0.55603,-2.43425 0.16669,-1.5959 0.15152,-1.66731 -0.24133,-1.13557 -0.23056,0.31208 -0.73576,1.29734 -1.12266,2.18945 -0.3869,0.89211 -0.75573,1.56975 -0.81962,1.50586 -0.16387,-0.16387 1.4689,-3.63734 1.97267,-4.19658 0.64054,-0.71106 0.9401,-0.55589 0.76617,0.39687 -0.0863,0.47294 -0.22746,1.31564 -0.31362,1.87267 -0.16616,1.07431 -1.12545,3.45919 -1.15711,2.87669 z"
         id="path8236" />
      <path
         style="fill:#59742d;stroke-width:1.0244"
         d="m 203.75505,120.13556 c 0.002,-0.21828 0.17222,-0.75406 0.37795,-1.19062 l 0.37407,-0.79375 -0.15712,0.79375 c -0.19671,0.9937 -0.6009,1.80264 -0.5949,1.19062 z"
         id="path8235" />
      <path
         style="fill:#59742d;stroke-width:1.0244"
         d="m 187.59548,120.92931 c -0.23846,-0.15411 -0.2711,-0.2581 -0.0818,-0.26053 0.17332,-0.002 0.3887,0.11501 0.47864,0.26053 0.20302,0.32849 0.11142,0.32849 -0.39688,0 z"
         id="path8234" />
      <path
         style="fill:#59742d;stroke-width:1.0244"
         d="m 217.89027,121.98765 c 0.0899,-0.14553 0.21603,-0.26459 0.2802,-0.26459 0.0642,0 0.11668,0.11906 0.11668,0.26459 0,0.14552 -0.12609,0.26458 -0.2802,0.26458 -0.15411,0 -0.20661,-0.11906 -0.11668,-0.26458 z"
         id="path8233" />
      <path
         style="fill:#59742d;stroke-width:1.0244"
         d="m 216.17048,122.51681 c 0,-0.14552 0.12609,-0.26458 0.2802,-0.26458 0.15411,0 0.20662,0.11906 0.11668,0.26458 -0.0899,0.14552 -0.21603,0.26459 -0.2802,0.26459 -0.0642,0 -0.11668,-0.11907 -0.11668,-0.26459 z"
         id="path8232" />
      <path
         style="fill:#59742d;stroke-width:1.0244"
         d="m 192.58573,122.26717 c 0.34355,-0.29926 0.48535,-0.54411 0.31512,-0.54411 -0.17023,0 -0.22807,-0.13177 -0.12853,-0.29283 0.23882,-0.38642 0.64194,0.23501 0.61906,0.95429 -0.009,0.29104 -0.0766,0.38129 -0.14959,0.20055 -0.0983,-0.24328 -0.28179,-0.25658 -0.70671,-0.0512 -0.53419,0.25818 -0.53068,0.23969 0.0507,-0.2667 z"
         id="path8231" />
      <path
         style="fill:#59742d;stroke-width:1.0244"
         d="m 189.18704,123.11212 c -0.002,-0.1819 -0.24921,-0.33072 -0.54884,-0.33072 -0.29963,0 -0.47119,-0.11907 -0.38126,-0.26459 0.0899,-0.14552 0.0176,-0.26458 -0.16077,-0.26458 -0.17836,0 -0.2478,-0.0765 -0.1543,-0.17 0.0935,-0.0935 0.35146,-0.0194 0.57326,0.16469 0.47505,0.39425 0.54837,-0.008 0.0858,-0.47094 -0.17462,-0.17463 -0.23897,-0.3175 -0.143,-0.3175 0.096,0 0.45,0.29711 0.78671,0.66024 l 0.61221,0.66024 0.97579,-0.52299 c 0.75913,-0.40687 0.9424,-0.43597 0.8254,-0.13108 -0.0827,0.21556 -0.32327,0.39192 -0.53457,0.39192 -0.2113,0 -0.31144,0.1177 -0.22254,0.26155 0.0948,0.15342 -0.0191,0.19218 -0.27567,0.0937 -0.24776,-0.0951 -0.53867,-0.008 -0.67115,0.20147 -0.19572,0.30911 -0.23515,0.30461 -0.24193,-0.0276 -0.007,-0.35278 -0.0366,-0.35278 -0.26458,0 -0.17099,0.26458 -0.25783,0.28663 -0.26053,0.0661 z"
         id="path8230" />
      <path
         style="fill:#59742d;stroke-width:1.0244"
         d="m 216.43507,123.29495 c 0,-0.15411 0.11906,-0.20662 0.26458,-0.11668 0.14552,0.0899 0.26458,0.21603 0.26458,0.2802 0,0.0642 -0.11906,0.11668 -0.26458,0.11668 -0.14552,0 -0.26458,-0.12609 -0.26458,-0.2802 z"
         id="path8229" />
      <path
         style="fill:#59742d;stroke-width:1.0244"
         d="m 214.7513,123.17979 c 0.0834,-0.21745 0.2583,-0.32948 0.38857,-0.24897 0.37358,0.23088 0.27623,0.64433 -0.15171,0.64433 -0.23603,0 -0.32901,-0.15521 -0.23686,-0.39536 z"
         id="path8228" />
      <path
         style="fill:#59742d;stroke-width:1.0244"
         d="m 191.03507,123.47525 c 0,-0.0549 0.18132,-0.25038 0.40293,-0.4343 0.33691,-0.27961 0.37562,-0.26324 0.23628,0.0999 -0.14232,0.37087 -0.63921,0.63082 -0.63921,0.3344 z"
         id="path8227" />
      <path
         style="fill:#59742d;stroke-width:1.0244"
         d="m 192.25217,123.66143 c 0.16008,-0.12021 0.36634,-0.39717 0.45835,-0.61545 0.11755,-0.27886 0.14902,-0.24604 0.10582,0.11037 -0.0338,0.27898 -0.24007,0.55593 -0.45836,0.61545 -0.25526,0.0696 -0.29302,0.0302 -0.10581,-0.11037 z"
         id="path8226" />
      <path
         style="fill:#59742d;stroke-width:1.0244"
         d="m 190.24132,123.57513 c 0,-0.14553 0.12609,-0.26459 0.2802,-0.26459 0.15411,0 0.20661,0.11906 0.11667,0.26459 -0.0899,0.14552 -0.21602,0.26458 -0.2802,0.26458 -0.0642,0 -0.11667,-0.11906 -0.11667,-0.26458 z"
         id="path8225" />
      <path
         style="fill:#59742d;stroke-width:1.0244"
         d="m 193.21314,123.57513 c 0.18176,-0.29105 0.43934,-0.52917 0.57241,-0.52917 0.13307,0 0.0265,0.23812 -0.23694,0.52917 -0.26339,0.29104 -0.52098,0.52916 -0.57242,0.52916 -0.0514,0 0.0552,-0.23812 0.23695,-0.52916 z"
         id="path8224" />
      <path
         style="fill:#59742d;stroke-width:1.0244"
         d="m 214.45069,124.36888 c 0.0899,-0.14553 0.28259,-0.26459 0.42811,-0.26459 0.14552,0 0.191,0.11906 0.10106,0.26459 -0.0899,0.14552 -0.28259,0.26458 -0.42811,0.26458 -0.14552,0 -0.191,-0.11906 -0.10106,-0.26458 z"
         id="path8223" />
      <path
         style="fill:#59742d;stroke-width:1.0244"
         d="m 202.94745,122.75753 c 0.2654,-1.03177 0.56876,-1.9545 0.67414,-2.05052 0.10539,-0.096 0.11711,0.12306 0.0261,0.48687 -0.091,0.3638 -0.30617,1.28653 -0.47804,2.05052 -0.17188,0.76398 -0.40074,1.38906 -0.5086,1.38906 -0.10785,0 0.0211,-0.84417 0.28644,-1.87593 z"
         id="path8222" />
      <path
         style="fill:#59742d;stroke-width:1.0244"
         d="m 193.01944,124.63346 c 0.5902,-0.65216 0.92733,-0.67635 0.92199,-0.0661 -0.003,0.3957 -0.0413,0.40532 -0.26053,0.0661 -0.21919,-0.33917 -0.25707,-0.32955 -0.26053,0.0661 -0.002,0.25467 -0.2011,0.46303 -0.44193,0.46303 -0.39379,0 -0.38966,-0.0533 0.041,-0.52917 z"
         id="path8221" />
      <path
         style="fill:#59742d;stroke-width:1.0244"
         d="m 191.73255,125.2934 c -0.0834,-0.21745 -0.0434,-0.39536 0.089,-0.39536 0.35865,0 0.58137,0.47019 0.30393,0.64166 -0.13264,0.082 -0.30944,-0.0289 -0.39289,-0.2463 z"
         id="path8220" />
      <path
         style="fill:#59742d;stroke-width:1.0244"
         d="m 193.81319,125.69179 c -0.0899,-0.14552 -0.0374,-0.26458 0.11668,-0.26458 0.15411,0 0.2802,0.11906 0.2802,0.26458 0,0.14552 -0.0525,0.26459 -0.11668,0.26459 -0.0642,0 -0.19026,-0.11907 -0.2802,-0.26459 z"
         id="path8219" />
      <path
         style="fill:#59742d;stroke-width:1.0244"
         d="m 190.435,125.42721 c 0.2492,-0.29104 0.49035,-0.52917 0.53589,-0.52917 0.0455,0 -0.0446,0.23813 -0.20041,0.52917 -0.15576,0.29104 -0.3969,0.52917 -0.53588,0.52917 -0.13898,0 -0.0488,-0.23813 0.2004,-0.52917 z"
         id="path8218" />
      <path
         style="fill:#59742d;stroke-width:1.0244"
         d="m 192.74398,125.93877 c -0.0959,-0.1552 -0.11766,-0.33893 -0.0483,-0.40828 0.0693,-0.0694 0.1966,0.0576 0.28277,0.28218 0.17891,0.46623 0.0264,0.54823 -0.23447,0.1261 z"
         id="path8217" />
      <path
         style="fill:#59742d;stroke-width:1.0244"
         d="m 188.38923,126.22096 c 0,-0.14552 0.12609,-0.26458 0.2802,-0.26458 0.15411,0 0.20662,0.11906 0.11668,0.26458 -0.0899,0.14552 -0.21603,0.26458 -0.2802,0.26458 -0.0642,0 -0.11668,-0.11906 -0.11668,-0.26458 z"
         id="path8216" />
      <path
         style="fill:#59742d;stroke-width:1.0244"
         d="m 211.83754,126.60761 c -0.25531,-0.66535 -0.17999,-0.83703 0.13191,-0.30066 0.15443,0.26558 0.22505,0.5386 0.15693,0.60672 -0.0681,0.0681 -0.1981,-0.0696 -0.28884,-0.30606 z"
         id="path8215" />
      <path
         style="fill:#59742d;stroke-width:1.0244"
         d="m 192.74371,127.26125 c -0.0961,-0.15544 -0.33741,-0.22017 -0.53631,-0.14384 -0.1989,0.0763 -0.43201,0.0249 -0.51802,-0.11426 -0.086,-0.13916 -0.0233,-0.25302 0.13944,-0.25302 0.1627,0 0.22223,-0.11907 0.13229,-0.26459 -0.0899,-0.14552 -0.0672,-0.26084 0.0505,-0.25627 0.22697,0.009 1.25579,1.31461 1.03577,1.31461 -0.071,0 -0.20763,-0.12718 -0.3037,-0.28263 z"
         id="path8214" />
      <path
         style="fill:#59742d;stroke-width:1.0244"
         d="m 193.41632,127.54388 c 0,-0.14553 0.11906,-0.26459 0.26458,-0.26459 0.14552,0 0.26458,0.11906 0.26458,0.26459 0,0.14552 -0.11906,0.26458 -0.26458,0.26458 -0.14552,0 -0.26458,-0.11906 -0.26458,-0.26458 z"
         id="path8213" />
      <path
         style="fill:#59742d;stroke-width:1.0244"
         d="m 195.00382,127.83451 c 0,-0.27476 0.50329,-0.6725 0.65237,-0.51557 0.0484,0.051 -0.0786,0.24617 -0.28218,0.4338 -0.20361,0.18764 -0.37019,0.22444 -0.37019,0.0818 z"
         id="path8212" />
      <path
         style="fill:#59742d;stroke-width:1.0244"
         d="m 193.81319,128.43902 c -0.58208,-0.21477 -2.46672,-0.74018 -4.18809,-1.16757 -3.32159,-0.8247 -4.44072,-1.25259 -4.60616,-1.76113 -0.11289,-0.347 1.52689,-0.88795 2.57654,-0.84999 0.39111,0.0142 0.12436,0.14872 -0.65264,0.32926 -0.72276,0.16793 -1.31807,0.4188 -1.32292,0.55749 -0.0141,0.40308 6.49729,2.26116 8.23737,2.3506 0.46082,0.0237 0.78927,0.0917 0.7299,0.15102 -0.0594,0.0594 0.0247,0.26773 0.18674,0.46302 0.34848,0.41989 0.381,0.42235 -0.96074,-0.0727 z"
         id="path8211" />
      <path
         style="fill:#59742d;stroke-width:1.0244"
         d="m 216.67941,129.06523 c -0.14286,-0.46678 -0.16763,-1.00367 -0.0404,-0.87648 0.19308,0.19308 0.32791,0.94263 0.16956,0.94263 -0.0599,0 -0.11799,-0.0298 -0.12912,-0.0661 z"
         id="path8210" />
      <path
         style="fill:#59742d;stroke-width:1.0244"
         d="m 220.28854,128.94435 c -0.14359,-0.37708 -0.1132,-0.40748 0.14811,-0.14811 0.18082,0.17947 0.26211,0.39297 0.18065,0.47443 -0.0815,0.0815 -0.22941,-0.0654 -0.32876,-0.32632 z"
         id="path8209" />
      <path
         style="fill:#59742d;stroke-width:1.0244"
         d="m 217.27059,129.13138 c 0,-0.36381 0.0601,-0.51263 0.13345,-0.33073 0.0734,0.1819 0.0734,0.47955 0,0.66145 -0.0734,0.18191 -0.13345,0.0331 -0.13345,-0.33072 z"
         id="path8208" />
      <path
         style="fill:#59742d;stroke-width:1.0244"
         d="m 218.87893,129.33254 c 0.18385,-0.39217 0.37785,-0.58617 0.43112,-0.43111 0.0533,0.15505 -0.0971,0.47592 -0.33426,0.71303 -0.39843,0.39843 -0.40577,0.37706 -0.0969,-0.28192 z"
         id="path8207" />
      <path
         style="fill:#59742d;stroke-width:1.0244"
         d="m 197.45199,129.66394 c 0.059,-0.21641 -0.22994,-0.75219 -0.64201,-1.19062 -0.41207,-0.43844 -0.81473,-1.00009 -0.89482,-1.24812 -0.12186,-0.37745 -0.25232,-0.40235 -0.80023,-0.1527 -0.50735,0.23116 -0.72743,0.21969 -0.97819,-0.051 -0.26141,-0.28219 -0.2306,-0.31643 0.16044,-0.17829 0.42425,0.14987 0.4614,0.0681 0.30098,-0.66224 -0.15546,-0.70783 -0.11674,-0.80779 0.25736,-0.66423 0.25892,0.0994 0.37376,0.0612 0.27872,-0.0926 -0.0889,-0.14386 -0.36298,-0.26338 -0.60906,-0.26561 -0.28199,-0.003 -0.33854,-0.0759 -0.15296,-0.19843 0.40841,-0.26962 0.2932,-1.18674 -0.25399,-2.02186 -0.25262,-0.38556 -0.39371,-0.80718 -0.31351,-0.93694 0.0802,-0.12976 -0.1312,-0.45382 -0.46976,-0.72013 -0.33857,-0.26632 -0.63736,-0.57351 -0.66398,-0.68265 -0.099,-0.40582 -0.44292,-0.0488 -0.38226,0.39688 0.0347,0.25466 -0.0546,0.46302 -0.19844,0.46302 -0.1438,0 -0.2317,-0.13051 -0.19532,-0.29001 0.0364,-0.15951 -0.19951,-0.39297 -0.52421,-0.51881 -0.5089,-0.19723 -0.58191,-0.14808 -0.52916,0.35616 0.0478,0.45651 -0.072,0.58007 -0.54559,0.56271 -0.4025,-0.0148 -0.56117,0.0966 -0.47132,0.33073 0.0745,0.19413 0.0201,0.35297 -0.12083,0.35297 -0.14096,0 -0.25628,-0.17859 -0.25628,-0.39688 0,-0.21828 -0.10584,-0.39687 -0.23519,-0.39687 -0.12935,0 -0.21865,-0.20836 -0.19843,-0.46302 0.0255,-0.32118 -0.12536,-0.43938 -0.49242,-0.38584 -0.37591,0.0548 -0.42975,0.01 -0.18592,-0.15565 0.28128,-0.19079 0.28128,-0.28017 0,-0.49508 -0.69782,-0.53314 -2.33204,-1.16242 -3.41055,-1.31328 l -1.11061,-0.15534 0.18266,1.15338 c 0.26093,1.64763 0.96855,2.95028 1.82279,3.35558 1.00956,0.47899 2.12713,0.6661 1.91345,0.32035 -0.093,-0.15048 -0.31791,-0.2736 -0.49979,-0.2736 -0.18188,0 -0.5618,-0.17501 -0.84428,-0.38891 -0.46238,-0.35013 -0.42125,-0.35726 0.41245,-0.0715 1.16467,0.39924 1.08845,0.34849 1.15178,0.76686 0.0296,0.19524 0.14292,0.49768 0.25193,0.6721 0.23557,0.3769 -2.00263,-0.32417 -2.91496,-0.91305 -0.68692,-0.44339 -1.72515,-3.03016 -1.61081,-4.01337 0.0594,-0.51062 0.2511,-0.70234 0.76173,-0.76172 1.08678,-0.12639 3.52159,0.92867 4.85814,2.10515 1.3335,1.17379 1.92575,1.18608 0.98262,0.0204 -0.75038,-0.92746 -1.88699,-3.23161 -1.89034,-3.83213 -0.004,-0.77239 0.66343,-0.52641 2.11581,0.77941 2.09389,1.88259 3.85675,4.37372 4.51758,6.3839 0.68428,2.0815 1.39435,3.57304 2.2359,4.69659 0.44003,0.58749 0.53632,0.91833 0.34651,1.19063 -0.22384,0.32114 -0.24693,0.3187 -0.15563,-0.0164 z m -1.91901,-3.47421 c 0,-0.14552 -0.11906,-0.191 -0.26458,-0.10106 -0.14552,0.0899 -0.26458,0.28258 -0.26458,0.4281 0,0.14552 0.11906,0.191 0.26458,0.10106 0.14552,-0.0899 0.26458,-0.28258 0.26458,-0.4281 z m -4.78096,-6.88243 c -0.33696,-0.62963 -0.3086,-0.82802 0.0846,-0.59179 0.22746,0.13665 0.2181,0.0598 -0.03,-0.24606 -0.19839,-0.24461 -0.46491,-0.38034 -0.59228,-0.30163 -0.12737,0.0787 -0.16799,-0.0226 -0.0903,-0.2251 0.18216,-0.47472 -0.46179,-1.01383 -0.8928,-0.74745 -0.42154,0.26052 -0.13676,1.02224 0.51198,1.36943 0.27392,0.1466 0.49804,0.396 0.49804,0.55422 0,0.17742 -0.17148,0.14851 -0.44745,-0.0755 -0.25327,-0.20554 -0.17408,0.0103 0.18247,0.49734 0.42681,0.58303 0.6931,0.75824 0.82586,0.54342 0.10777,-0.17437 0.0852,-0.52399 -0.0502,-0.77692 z m 1.45935,0.63787 c 0.096,-0.25023 0.0887,-0.36903 -0.0164,-0.26401 -0.10502,0.10503 -0.4274,-0.0177 -0.7164,-0.27264 -0.52043,-0.45918 -0.52098,-0.45666 -0.0572,0.264 0.55172,0.85728 0.56399,0.86152 0.78996,0.27265 z"
         id="path8206" />
      <path
         style="fill:#59742d;stroke-width:1.0244"
         d="m 195.63201,129.59444 c 0.17195,-0.53452 -0.11403,-0.60677 -0.57543,-0.14537 -0.24165,0.24165 -0.2403,0.15376 0.006,-0.36738 0.27964,-0.59255 0.36379,-0.62963 0.62335,-0.27466 0.18154,0.24826 0.48069,0.34105 0.75731,0.2349 0.30486,-0.11698 0.41681,-0.0652 0.33592,0.15545 -0.0667,0.182 -0.27413,0.29486 -0.46088,0.2508 -0.18676,-0.0441 -0.451,0.075 -0.5872,0.26458 -0.18048,0.25122 -0.20725,0.21913 -0.0987,-0.11832 z"
         id="path8205" />
      <path
         style="fill:#59742d;stroke-width:1.0244"
         d="m 193.53684,129.67964 c 0.0835,-0.13504 -0.0583,-0.30324 -0.31512,-0.37377 -1.56142,-0.4289 -3.32333,-0.71389 -4.76493,-0.77074 -0.90872,-0.0358 -1.65286,-0.15446 -1.65364,-0.2636 -0.002,-0.3504 3.36037,-0.0274 6.27995,0.6032 1.1974,0.25862 1.33534,0.3507 1.01108,0.67496 -0.42111,0.42111 -0.79053,0.50725 -0.55734,0.12995 z"
         id="path8204" />
      <path
         style="fill:#59742d;stroke-width:1.0244"
         d="m 215.64132,130.18976 c 0,-0.14552 0.12609,-0.26458 0.28019,-0.26458 0.15411,0 0.20662,0.11906 0.11668,0.26458 -0.0899,0.14552 -0.21602,0.26458 -0.2802,0.26458 -0.0642,0 -0.11667,-0.11906 -0.11667,-0.26458 z"
         id="path8203" />
      <path
         style="fill:#59742d;stroke-width:1.0244"
         d="m 196.8559,130.43873 c 0,-0.15411 0.11906,-0.20662 0.26458,-0.11668 0.14553,0.0899 0.26459,0.21603 0.26459,0.2802 0,0.0642 -0.11906,0.11668 -0.26459,0.11668 -0.14552,0 -0.26458,-0.12609 -0.26458,-0.2802 z"
         id="path8202" />
      <path
         style="fill:#59742d;stroke-width:1.0244"
         d="m 206.40179,131.09375 c 0.0127,-0.30822 0.0754,-0.37092 0.15985,-0.15985 0.0764,0.191 0.067,0.4192 -0.0209,0.50712 -0.0879,0.0879 -0.15045,-0.0683 -0.13896,-0.34727 z"
         id="path8201" />
      <path
         style="fill:#59742d;stroke-width:1.0244"
         d="m 202.93087,131.38038 c -0.0287,-0.14552 -0.0318,-0.37273 -0.007,-0.50492 0.0249,-0.13218 -0.10981,-0.35177 -0.2994,-0.48798 -0.25749,-0.18499 -0.23467,-0.21269 0.0902,-0.10948 0.35563,0.11298 0.46887,-0.13572 0.62113,-1.3641 0.37204,-3.00156 2.08629,-9.8252 2.3916,-9.51989 0.0463,0.0463 -0.24984,1.27387 -0.65804,2.72797 -1.16822,4.16144 -1.89773,8.86153 -1.37541,8.86153 0.47506,0 1.09169,-1.02567 2.14741,-3.57188 1.41849,-3.42117 2.06919,-4.49418 3.62765,-5.98204 1.78192,-1.7012 2.20385,-1.80814 2.20197,-0.55809 -8.1e-4,0.54114 -0.12855,1.44153 -0.28387,2.00088 -0.15532,0.55935 -0.22844,1.07096 -0.16249,1.1369 0.066,0.066 0.64755,-0.23619 1.29246,-0.67143 1.31866,-0.88996 4.80587,-2.14392 5.96213,-2.14392 2.37378,0 1.54284,2.24788 -1.59279,4.30887 -1.82408,1.19894 -5.71857,3.2506 -5.21396,2.74677 0.21828,-0.21794 1.2485,-0.83191 2.28939,-1.36437 1.12561,-0.57581 1.94662,-1.17502 2.02603,-1.47871 0.0819,-0.31332 0.282,-0.45361 0.51784,-0.36311 0.37647,0.14447 1.73164,-0.81568 2.63241,-1.86508 0.5868,-0.68362 0.62692,-1.57134 0.0612,-1.35425 -0.23546,0.0904 -0.34166,0.046 -0.24897,-0.10399 0.20522,-0.33205 0.0211,-0.32814 -1.80364,0.0383 -0.88959,0.17865 -1.42565,0.40907 -1.32616,0.57004 0.0983,0.15901 0.0356,0.18896 -0.15242,0.0728 -0.36373,-0.2248 -2.80197,0.8943 -3.63077,1.66645 -0.7784,0.72519 -1.28756,0.339 -1.05006,-0.79642 0.39169,-1.87251 0.44143,-2.87105 0.14304,-2.87105 -0.51871,0 -3.06921,2.81495 -3.63364,4.01041 -0.29836,0.63193 -0.90942,2.04193 -1.35792,3.13334 -1.17213,2.85237 -1.79188,3.78753 -2.40399,3.62746 -0.27701,-0.0724 -0.55949,0.004 -0.62774,0.17094 -0.069,0.16823 -0.14728,0.18513 -0.17631,0.038 z"
         id="path8200" />
      <path
         style="fill:#59742d;stroke-width:1.0244"
         d="m 216.69965,131.53167 c 1.38245,-0.0832 2.7736,-0.30011 3.09146,-0.48202 0.31785,-0.1819 0.87921,-0.33072 1.24746,-0.33072 0.69223,0 1.2372,-0.67092 1.02538,-1.26234 -0.1719,-0.47998 -1.63564,-1.18493 -2.09463,-1.0088 -0.21271,0.0816 -0.31941,0.0395 -0.23713,-0.0937 0.29622,-0.4793 -2.5931,-0.59457 -4.48775,-0.17904 -1.01864,0.22341 -2.14974,0.46913 -2.51354,0.54606 -0.3638,0.0769 0.17198,-0.15048 1.19063,-0.50535 2.13454,-0.74361 4.23725,-0.84445 6.07504,-0.29136 2.02774,0.61026 3.11043,1.97835 2.17802,2.75217 -0.70779,0.58742 -3.49579,1.1001 -5.72897,1.0535 l -2.25951,-0.0472 z"
         id="path8199" />
      <path
         style="fill:#59742d;stroke-width:1.0244"
         d="m 202.14757,131.49707 c 0,-0.15411 0.11906,-0.20661 0.26458,-0.11668 0.14552,0.0899 0.26458,0.21603 0.26458,0.2802 0,0.0642 -0.11906,0.11668 -0.26458,0.11668 -0.14552,0 -0.26458,-0.12609 -0.26458,-0.2802 z"
         id="path8198" />
      <path
         style="fill:#59742d;stroke-width:1.0244"
         d="m 192.49028,131.51267 c 0.0899,-0.14553 0.21602,-0.26459 0.28019,-0.26459 0.0642,0 0.11668,0.11906 0.11668,0.26459 0,0.14552 -0.12609,0.26458 -0.2802,0.26458 -0.15411,0 -0.20661,-0.11906 -0.11667,-0.26458 z"
         id="path8197" />
      <path
         style="fill:#59742d;stroke-width:1.0244"
         d="m 190.41022,131.64496 c 0.0838,-0.21828 0.2732,-0.39688 0.42097,-0.39688 0.15486,0 0.12915,0.16812 -0.0607,0.39688 -0.18115,0.21828 -0.37059,0.39687 -0.42096,0.39687 -0.0504,0 -0.0231,-0.17859 0.0607,-0.39687 z"
         id="path8196" />
      <path
         style="fill:#59742d;stroke-width:1.0244"
         d="m 210.5084,132.14767 c -0.0942,-0.24539 -0.11167,-0.50569 -0.0389,-0.57845 0.0728,-0.0728 0.20933,0.0685 0.30349,0.31386 0.0942,0.24539 0.11168,0.50569 0.0389,0.57845 -0.0728,0.0728 -0.20934,-0.0685 -0.3035,-0.31386 z"
         id="path8195" />
      <path
         style="fill:#59742d;stroke-width:1.0244"
         d="m 204.69418,132.35993 c -0.0717,-0.11609 -0.0245,-0.38248 0.10497,-0.59198 0.17751,-0.28722 0.22444,-0.23531 0.19082,0.21107 -0.0484,0.64229 -0.0962,0.70386 -0.29579,0.38091 z"
         id="path8194" />
      <path
         style="fill:#59742d;stroke-width:1.0244"
         d="m 195.39436,132.02189 c -0.21467,-0.67638 -0.0966,-0.8198 0.41087,-0.49889 0.25009,0.15816 0.27396,0.24759 0.0668,0.2502 -0.17734,0.002 -0.25389,0.18264 -0.17013,0.40092 0.0838,0.21828 0.0881,0.39688 0.01,0.39688 -0.0785,0 -0.22119,-0.2471 -0.31705,-0.54911 z"
         id="path8193" />
      <path
         style="fill:#59742d;stroke-width:1.0244"
         d="m 212.22128,132.46226 c -0.18282,-0.22029 -0.20843,-0.43598 -0.0625,-0.52619 0.13604,-0.0841 0.30927,0.0839 0.38495,0.37332 0.16303,0.62346 0.0949,0.65576 -0.32248,0.15287 z"
         id="path8192" />
      <path
         style="fill:#59742d;stroke-width:1.0244"
         d="m 209.5559,132.7316 c 0,-0.0572 0.18478,-0.17489 0.41062,-0.26156 0.23546,-0.0904 0.34166,-0.046 0.24897,0.10399 -0.15538,0.25141 -0.65959,0.37186 -0.65959,0.15757 z"
         id="path8191" />
      <path
         style="fill:#59742d;stroke-width:1.0244"
         d="m 187.99236,132.571 c 0.43656,-0.11109 1.03187,-0.21424 1.32292,-0.22923 0.4354,-0.0224 0.45884,0.0182 0.13229,0.22923 -0.21828,0.14106 -0.8136,0.24422 -1.32292,0.22923 l -0.92604,-0.0273 z"
         id="path8190" />
      <path
         style="fill:#59742d;stroke-width:1.0244"
         d="m 203.86923,132.83861 c -0.0927,-0.14998 0.0135,-0.19434 0.24897,-0.10398 0.45837,0.17589 0.54223,0.36554 0.16165,0.36554 -0.13693,0 -0.32171,-0.1177 -0.41062,-0.26156 z"
         id="path8189" />
      <path
         style="fill:#59742d;stroke-width:1.0244"
         d="m 192.74398,132.81801 c -0.0959,-0.1552 -0.11766,-0.33893 -0.0483,-0.40829 0.0693,-0.0693 0.1966,0.0576 0.28277,0.28219 0.17891,0.46622 0.0264,0.54823 -0.23447,0.1261 z"
         id="path8188" />
      <path
         style="fill:#59742d;stroke-width:1.0244"
         d="m 185.03601,132.82401 c -2.3617,-0.46698 -3.78758,-1.81177 -2.96953,-2.80065 0.47832,-0.57821 2.86047,-1.68859 3.54463,-1.65225 l 0.52917,0.0281 -0.52917,0.12007 c -0.29104,0.066 -1.1457,0.42456 -1.89925,0.79672 -1.39564,0.68927 -1.69464,1.29945 -1.05156,2.14597 0.41337,0.54415 1.99245,1.10919 3.0998,1.10919 0.55572,0 1.08399,0.11906 1.17393,0.26458 0.18717,0.30285 -0.32298,0.29969 -1.89802,-0.0117 z"
         id="path8187" />
      <path
         style="fill:#59742d;stroke-width:1.0244"
         d="m 191.88173,133.04742 c -0.3984,-0.3984 -0.41326,-1.00542 -0.0246,-1.00542 0.16109,0 0.22992,0.16409 0.15296,0.36464 -0.0769,0.20054 -0.006,0.4982 0.1569,0.66145 0.16326,0.16326 0.2373,0.29683 0.16454,0.29683 -0.0728,0 -0.27517,-0.14288 -0.4498,-0.3175 z"
         id="path8186" />
      <path
         style="fill:#59742d;stroke-width:1.0244"
         d="m 190.94687,133.45311 c -0.097,-0.097 -0.17639,-0.29942 -0.17639,-0.44979 0,-0.16579 0.12324,-0.15017 0.31309,0.0397 0.1722,0.1722 0.25158,0.3746 0.17639,0.44979 -0.0752,0.0752 -0.21607,0.0573 -0.31309,-0.0397 z"
         id="path8185" />
      <path
         style="fill:#59742d;stroke-width:1.0244"
         d="m 202.54444,133.6295 c 0.0899,-0.14552 0.21603,-0.26458 0.2802,-0.26458 0.0642,0 0.11668,0.11906 0.11668,0.26458 0,0.14552 -0.12609,0.26459 -0.2802,0.26459 -0.15411,0 -0.20661,-0.11907 -0.11668,-0.26459 z"
         id="path8184" />
      <path
         style="fill:#59742d;stroke-width:1.0244"
         d="m 201.35787,133.75174 c -0.0102,-1.36176 1.05797,-8.93799 1.23521,-8.76075 0.0608,0.0607 -0.0719,1.46373 -0.29472,3.11772 -0.22285,1.65399 -0.42968,3.57193 -0.45962,4.2621 -0.0547,1.26027 -0.47276,2.46089 -0.48087,1.38093 z"
         id="path8183" />
      <path
         style="fill:#59742d;stroke-width:1.0244"
         d="m 199.63639,136.26458 c 0.23667,-1.07754 -0.40099,-2.01219 -1.80893,-2.65144 -1.71421,-0.7783 -2.99956,-0.6646 -4.80982,0.42548 -1.72098,1.03632 -3.44159,1.40736 -4.32754,0.93322 -0.6773,-0.36248 -0.45177,-1.00924 0.58994,-1.6918 0.54584,-0.35764 0.67025,-0.36566 0.79102,-0.0509 0.0875,0.22791 0.0132,0.32351 -0.19064,0.2453 -0.42537,-0.16322 -1.33563,0.82297 -1.10461,1.19676 0.0956,0.15469 0.59054,0.28126 1.09986,0.28126 0.50933,0 0.85932,-0.10796 0.77777,-0.23991 -0.0815,-0.13195 0.10864,-0.17273 0.42264,-0.0906 0.38831,0.10154 0.51096,0.0523 0.38349,-0.15394 -0.12671,-0.20503 -0.033,-0.24533 0.28936,-0.12443 0.41891,0.1571 0.4327,0.12463 0.11364,-0.26762 -0.20517,-0.25222 -0.24354,-0.44641 -0.0882,-0.44641 0.15121,0 0.32309,0.14446 0.38194,0.32102 0.0745,0.22341 0.30884,0.16226 0.77081,-0.20112 0.36509,-0.28718 0.61823,-0.65886 0.56253,-0.82594 -0.0557,-0.16709 0.0241,-0.38127 0.17728,-0.47595 0.15321,-0.0947 0.27855,-0.0461 0.27855,0.10804 0,0.16628 0.6497,0.2802 1.59804,0.2802 1.08126,0 1.93688,0.17286 2.64584,0.53455 0.57628,0.29399 1.04779,0.41306 1.04779,0.26458 0,-0.14848 -0.17157,-0.26996 -0.38126,-0.26996 -0.20969,0 -0.46621,-0.13746 -0.57005,-0.30547 -0.11267,-0.18231 -0.073,-0.2339 0.0984,-0.12797 0.35926,0.22204 0.68222,-0.25892 0.43858,-0.65314 -0.12629,-0.20434 -0.24754,-0.18515 -0.40121,0.0635 -0.14267,0.23084 -0.19263,0.0974 -0.14184,-0.37892 0.0431,-0.4044 0.21663,-0.87351 0.38559,-1.04247 0.37604,-0.37604 0.40796,-0.82404 0.0426,-0.59825 -0.35851,0.22157 -0.31797,-0.13447 0.10145,-0.89094 0.28531,-0.51459 0.376,-0.55151 0.50824,-0.20691 0.0885,0.23069 0.0393,0.49461 -0.10931,0.58648 -0.16687,0.10313 -0.0865,0.37006 0.20999,0.69771 0.26414,0.29187 0.46042,0.60747 0.43616,0.70133 -0.0242,0.0939 0.006,0.22027 0.0661,0.28091 0.0606,0.0606 0.11024,-0.21429 0.11024,-0.61093 0,-0.39664 -0.11201,-0.65195 -0.24891,-0.56734 -0.14764,0.0913 -0.18738,-0.22532 -0.0977,-0.77813 0.13197,-0.81327 0.0819,-0.93197 -0.39315,-0.93197 -0.29941,0 -0.59884,-0.20836 -0.66539,-0.46302 -0.0665,-0.25466 -0.14533,-0.0463 -0.17508,0.46302 -0.0369,0.6316 -0.25111,-0.016 -0.67375,-2.03673 -0.97933,-4.68241 -3.34532,-12.97395 -4.54966,-15.94411 -0.0861,-0.21233 0.23121,0.0556 0.70511,0.59531 0.47391,0.53975 1.08335,0.98136 1.35431,0.98136 0.79839,0 2.73369,6.68142 4.59824,15.875 1.05664,5.20999 1.14257,6.14666 0.54283,5.91652 -0.21829,-0.0838 -0.39688,-0.26565 -0.39688,-0.40419 0,-0.13854 0.11906,-0.17831 0.26458,-0.0884 0.29788,0.1841 0.3348,-0.24022 0.0978,-1.12448 -0.0877,-0.32742 -0.26176,-0.59531 -0.38671,-0.59531 -0.12495,0 -0.11401,0.29765 0.0243,0.66146 0.37302,0.98111 0.0912,0.80124 -0.41461,-0.26459 -0.24297,-0.51202 -0.63297,-0.92228 -0.87231,-0.91762 -0.38589,0.007 -0.38251,0.0466 0.0311,0.36058 0.42583,0.32323 0.74676,1.43862 0.75435,2.62177 0.002,0.26247 0.16396,0.53896 0.36061,0.61443 0.26971,0.10349 0.29843,0.34334 0.11692,0.97623 -0.13235,0.46147 -0.24063,0.86959 -0.24063,0.90693 0,0.0373 0.53578,0.0679 1.19062,0.0679 0.68664,0 1.19063,-0.1227 1.19063,-0.28988 0,-0.68239 1.23753,-1.93439 2.48721,-2.51628 1.61289,-0.75102 4.47822,-0.85956 6.24404,-0.23655 1.29604,0.45727 1.65566,0.49754 0.99218,0.1111 -0.25466,-0.14832 -0.46302,-0.39741 -0.46302,-0.55352 0,-0.17081 0.17826,-0.13923 0.44767,0.0793 0.30418,0.24674 0.38398,0.25712 0.24897,0.0324 -0.10929,-0.1819 -0.0726,-0.33072 0.0815,-0.33072 0.15411,0 0.28202,0.20835 0.28425,0.46302 0.003,0.28925 0.077,0.35228 0.19844,0.16795 0.10691,-0.16229 0.46227,-0.37867 0.78969,-0.48085 0.4495,-0.14028 0.59532,-0.0804 0.59532,0.24454 0,0.23667 -0.11907,0.35673 -0.26459,0.26679 -0.14552,-0.0899 -0.26458,-0.0374 -0.26458,0.11668 0,0.15411 0.26789,0.28857 0.59531,0.29879 0.56804,0.0177 0.57107,0.029 0.0662,0.24599 -0.40983,0.17611 -0.27558,0.23159 0.59531,0.24599 1.24065,0.0205 1.46994,-0.38051 0.64462,-1.12741 -0.38335,-0.34693 -0.5508,-0.36848 -0.83257,-0.10715 -0.28178,0.26134 -0.31308,0.25726 -0.15567,-0.0203 0.11398,-0.20098 -0.009,-0.58257 -0.29192,-0.90537 -0.56616,-0.64611 -0.15878,-0.46719 1.16471,0.51152 0.54437,0.40257 0.85989,0.86327 0.85989,1.25558 0,1.15172 -1.1141,1.14341 -4.89479,-0.0365 -1.7184,-0.5363 -2.4718,-0.63523 -4.00407,-0.52579 -1.03807,0.0742 -2.24428,0.31936 -2.68046,0.54492 -0.91717,0.47429 -2.17901,1.88367 -2.17901,2.43379 0,0.28072 -0.37578,0.37657 -1.47623,0.37657 h -1.47623 z m 13.48951,-2.10288 c 0.0927,-0.14998 -0.0135,-0.19434 -0.24897,-0.10399 -0.45837,0.1759 -0.54223,0.36554 -0.16164,0.36554 0.13693,0 0.32171,-0.1177 0.41061,-0.26155 z m -13.62417,-6.38426 c 0,-0.14552 -0.11906,-0.191 -0.26458,-0.10106 -0.14552,0.0899 -0.26458,0.28258 -0.26458,0.4281 0,0.14552 0.11906,0.191 0.26458,0.10106 0.14552,-0.0899 0.26458,-0.28258 0.26458,-0.4281 z m -0.72477,-1.55627 c 0.16321,0 0.0994,-0.14883 -0.14187,-0.33073 -0.42644,-0.32156 -0.48349,-1.05316 -0.11115,-1.4255 0.10122,-0.10123 0.18404,-0.3428 0.18404,-0.53683 0,-0.2251 -0.20946,-0.14331 -0.57877,0.226 -0.32466,0.32466 -0.45316,0.62065 -0.29267,0.67415 0.15735,0.0524 0.22532,0.32778 0.15104,0.61184 -0.0743,0.28407 -0.0186,0.51649 0.12369,0.51649 0.14231,0 0.23212,0.26789 0.19957,0.59531 -0.0326,0.32742 -0.008,0.38695 0.0551,0.13229 0.0628,-0.25466 0.24781,-0.46302 0.41103,-0.46302 z m 0.19156,-1.12448 c -0.003,-0.48139 -0.0531,-0.51937 -0.26054,-0.19844 -0.3315,0.51297 -0.3315,0.79375 0,0.79375 0.14553,0 0.26276,-0.26789 0.26054,-0.59531 z m -0.64013,-1.84038 c 0.10226,-0.32221 0.0682,-0.62261 -0.076,-0.67069 -0.14368,-0.0479 -0.21646,-0.35082 -0.16174,-0.67316 0.14233,-0.83838 -0.78556,-3.70162 -1.24495,-3.84166 -0.3117,-0.095 -0.32255,-0.0499 -0.0559,0.23271 0.38653,0.40973 0.43098,0.77391 0.0944,0.77391 -0.47364,0 -0.56088,-0.88061 -0.13397,-1.35235 0.41142,-0.45461 0.40049,-0.47561 -0.19206,-0.36867 -0.53844,0.0972 -0.56823,0.0675 -0.20822,-0.20727 0.43688,-0.33348 0.37384,-0.97295 -0.12904,-1.30881 -0.19793,-0.13218 -0.18024,-0.19568 0.0553,-0.19843 0.19049,-0.002 0.27156,-0.12506 0.18016,-0.27295 -0.0914,-0.1479 -0.29208,-0.1911 -0.44595,-0.096 -0.19285,0.11919 -0.19819,0.0271 -0.0172,-0.29633 0.40914,-0.73109 -0.3586,-2.43265 -1.16736,-2.58726 -0.48797,-0.0933 -0.61004,-0.0285 -0.49775,0.26411 0.0818,0.21324 0.2205,0.67348 0.30817,1.02275 0.088,0.35084 0.28346,0.55837 0.43662,0.46371 0.16369,-0.10116 0.19833,-0.0437 0.0846,0.14038 -0.10596,0.17145 0.0459,1.05305 0.33749,1.95911 0.29159,0.90606 0.6085,2.03903 0.70426,2.51771 0.1484,0.74183 0.25857,0.8444 0.74611,0.69474 0.3146,-0.0966 0.48742,-0.0862 0.38405,0.0232 -0.10337,0.10932 -0.0141,0.6149 0.19844,1.12352 0.54272,1.2989 0.46616,1.63572 -0.19551,0.86012 -0.3941,-0.46197 -0.51114,-0.51529 -0.38807,-0.1768 0.0969,0.26656 0.17621,0.66054 0.17621,0.87551 0,0.21497 0.10558,0.32561 0.23461,0.24586 0.12903,-0.0798 0.38592,0.0373 0.57087,0.26018 0.2724,0.32822 0.27072,0.46586 -0.009,0.72469 -0.25233,0.23363 -0.29794,0.23553 -0.16968,0.007 0.0965,-0.17185 0.0544,-0.38723 -0.0935,-0.47864 -0.29547,-0.1826 -0.37554,0.46396 -0.0925,0.74699 0.321,0.32101 0.57933,0.18384 0.76693,-0.40722 z m -3.58916,-10.13202 c 0,-0.21828 0.0468,-0.39687 0.10399,-0.39687 0.0572,0 0.17252,0.17859 0.25628,0.39687 0.0838,0.21829 0.037,0.39688 -0.10399,0.39688 -0.14095,0 -0.25628,-0.17859 -0.25628,-0.39688 z"
         id="path8182" />
    </g>
  </g>
</svg>
