<?xml version="1.0" encoding="UTF-8" standalone="no"?>
<!-- Created with Inkscape (http://www.inkscape.org/) -->

<svg
   width="185"
   height="185"
   viewBox="0 0 48.947914 48.947918"
   version="1.1"
   id="svg1"
   xmlns="http://www.w3.org/2000/svg"
   xmlns:svg="http://www.w3.org/2000/svg">
  <defs
     id="defs1" />
  <g
     id="g56875"
     style="display:inline;stroke-width:1.23976"
     transform="matrix(0.80660814,0,0,0.80660814,-128.92544,-175.02682)">
    <path
       style="fill:#ece1a1;stroke-width:1.23976"
       d="m 189.71464,276.92068 c -0.3153,-0.53376 -1.43365,-1.2596 -3.82736,-2.48404 -1.86004,-0.95146 -3.64746,-1.81002 -3.97203,-1.90791 -1.40959,-0.42513 -4.56924,-2.64422 -4.56924,-3.20908 0,-0.23616 2.67122,0.0505 4.63021,0.49691 1.82021,0.41478 2.89622,0.92272 4.7575,2.24584 1.10688,0.78684 1.24489,0.83457 0.86184,0.29806 -0.25084,-0.35134 -0.62511,-0.99599 -0.83171,-1.43255 -0.52726,-1.11413 -2.29041,-2.78405 -4.91992,-4.65977 -2.09735,-1.49611 -3.43518,-2.74574 -3.43827,-3.21158 -0.003,-0.43272 1.10198,-0.1582 2.36829,0.58844 0.73401,0.43279 1.33456,0.68804 1.33456,0.56722 0,-0.12082 -0.41672,-0.76543 -0.92604,-1.43247 -0.50932,-0.66704 -0.92604,-1.27717 -0.92604,-1.35583 0,-0.0787 -0.41672,-0.79446 -0.92604,-1.59066 -0.96169,-1.50336 -1.12263,-2.00222 -0.64595,-2.00222 0.497,0 2.3205,1.62541 3.08139,2.74665 0.76491,1.12716 0.81666,1.19915 1.61551,2.24733 0.46903,0.61541 0.47428,0.58032 0.25511,-1.70298 -0.27271,-2.84115 -0.12796,-3.43968 0.60353,-2.49553 0.63654,0.8216 0.90387,1.7708 1.53037,5.43394 0.42481,2.48383 0.68106,3.23205 1.7904,5.2277 0.71205,1.28094 1.4137,2.3525 1.55922,2.38125 0.1683,0.0332 0.29167,-2.10232 0.33903,-5.86871 l 0.0745,-5.92097 -0.89991,-1.75195 c -0.49495,-0.96357 -1.34952,-2.58538 -1.89905,-3.60403 -0.54953,-1.01864 -1.21941,-2.26331 -1.48862,-2.76591 -0.32416,-0.60519 -0.4007,-1.00261 -0.22664,-1.17668 0.41241,-0.41241 1.60954,0.62803 2.58236,2.24437 0.47458,0.7885 1.02462,1.62525 1.22232,1.85945 0.19769,0.23419 0.42235,0.59138 0.49924,0.79375 0.0769,0.20237 0.15084,-1.75123 0.16434,-4.34132 0.0247,-4.73895 0.25906,-6.14748 0.91376,-5.49202 0.20748,0.20771 0.30622,1.73372 0.30622,4.73269 v 4.42612 l 1.96377,-2.98449 c 2.06099,-3.13226 2.87315,-3.77246 2.54123,-2.00318 -0.17717,0.9444 -0.71269,2.04654 -2.04944,4.21786 -0.34488,0.56019 -0.97708,1.85197 -1.4049,2.87061 l -0.77785,1.85209 0.0311,6.82617 c 0.0171,3.7544 0.0901,6.88517 0.16218,6.95726 0.0721,0.0721 0.63068,-1.15421 1.24131,-2.72513 0.83644,-2.15186 1.20748,-3.60657 1.50457,-5.89893 0.21689,-1.67349 0.57239,-3.66348 0.79,-4.42221 0.4186,-1.45949 1.2452,-2.72001 1.57089,-2.39553 0.10694,0.10654 0.003,1.53055 -0.2303,3.16446 -0.23361,1.6339 -0.38964,3.00584 -0.34673,3.04875 0.0429,0.0429 0.39081,-0.48813 0.77311,-1.18008 1.49549,-2.70676 4.35297,-5.6851 4.63697,-4.8331 0.16723,0.5017 -1.02074,3.09305 -1.7171,3.74556 -0.68707,0.6438 -4.32317,5.87255 -4.32317,6.21676 0,0.10669 0.32742,-0.10891 0.7276,-0.47911 1.95316,-1.80683 5.93968,-4.22391 6.32728,-3.83631 0.42933,0.42933 -3.13065,3.89198 -4.93822,4.8032 -1.82253,0.91878 -3.10986,2.20979 -3.97569,3.98708 -0.46494,0.95436 -0.79058,1.78996 -0.72365,1.85688 0.0669,0.0669 0.7172,-0.35247 1.44505,-0.93199 2.32228,-1.84903 3.89323,-2.4764 7.95065,-3.17515 1.05928,-0.18242 1.12447,-0.15754 1.12447,0.42915 0,1.02968 -3.50542,2.94148 -8.15872,4.44964 -1.02912,0.33354 -1.7924,0.84426 -2.81562,1.88396 -0.77207,0.78451 -1.51005,1.42637 -1.63996,1.42637 -0.1299,0 -0.43664,-0.33934 -0.68165,-0.7541 z"
       id="path54442" />
    <path
       style="fill:#e4d169;stroke-width:1.23976"
       d="m 189.50869,276.681 c -0.88007,-0.93539 -1.72044,-1.39933 -8.22316,-4.53974 -2.57961,-1.2458 -4.27061,-2.55811 -3.61867,-2.80829 0.22028,-0.0845 1.51813,0.0395 2.88411,0.27557 2.65554,0.45899 5.32251,1.58046 6.34384,2.66762 0.95341,1.01486 1.0648,0.74329 0.29986,-0.73109 -0.88598,-1.70769 -2.35736,-3.24861 -4.47936,-4.69106 -1.86972,-1.27096 -4.31096,-3.39784 -4.31096,-3.75583 0,-0.32898 1.25175,-0.30468 1.45754,0.0283 0.16022,0.25925 2.06958,1.31914 2.37638,1.31914 0.083,0 -0.35878,-0.76409 -0.98165,-1.69797 -2.32873,-3.49154 -2.87242,-4.47313 -2.61836,-4.7272 0.36459,-0.36459 2.68584,1.89789 4.03064,3.92859 0.61751,0.93246 1.14615,1.66729 1.17474,1.63296 0.0286,-0.0343 -0.0392,-1.13399 -0.15058,-2.44367 -0.11142,-1.30969 -0.11144,-2.47972 -5e-5,-2.60008 0.11139,-0.12035 0.43659,0.11778 0.72267,0.52917 0.49167,0.70703 0.63053,1.27349 1.41564,5.77507 0.31027,1.77897 1.94546,5.33225 3.22449,7.00684 0.49586,0.6492 0.50068,0.57649 0.41522,-6.25655 -0.0751,-6.00543 -0.14448,-6.97778 -0.52814,-7.40371 -0.24291,-0.26968 -0.94326,-1.44283 -1.55633,-2.60699 -0.61307,-1.16417 -1.32226,-2.41433 -1.57596,-2.77813 -0.5245,-0.75209 -0.94545,-2.38242 -0.61426,-2.37895 0.81872,0.009 3.74416,4.02722 3.57761,4.91454 -0.0296,0.15765 0.12546,0.28663 0.34455,0.28663 0.33974,0 0.39835,-0.68936 0.39835,-4.686 0,-3.81929 0.0726,-4.74626 0.39249,-5.01175 0.7521,-0.62419 0.99606,0.86704 0.85764,5.24254 l -0.12828,4.05555 0.79893,-1.39889 c 2.12851,-3.72688 4.1911,-5.94017 3.74781,-4.02164 -0.0952,0.41196 -0.6003,1.52292 -1.12248,2.46881 -0.52218,0.94588 -1.43081,2.67229 -2.01917,3.83645 l -1.06976,2.11667 -0.072,7.53227 c -0.0396,4.14275 0.0279,7.41697 0.1499,7.27605 0.12205,-0.14093 0.55039,-1.08967 0.95186,-2.10832 0.40147,-1.01865 0.88323,-2.20975 1.07056,-2.64689 0.44721,-1.04355 0.5999,-1.80807 1.05658,-5.29061 0.20992,-1.60073 0.54713,-3.37973 0.74936,-3.95334 0.35167,-0.99748 1.06411,-1.74585 1.37042,-1.43954 0.0796,0.0796 -0.0386,1.3703 -0.26259,2.86831 -0.22398,1.49801 -0.35168,2.77923 -0.28376,2.84714 0.0679,0.0679 0.32633,-0.2688 0.57427,-0.74826 0.9527,-1.84231 2.63052,-4.03215 3.66171,-4.77914 0.59158,-0.42854 1.11269,-0.66788 1.15803,-0.53187 0.13853,0.41557 -1.15219,3.08765 -1.82244,3.77287 -0.5388,0.55084 -1.59858,2.03664 -3.73841,5.24125 -0.77231,1.1566 -0.52641,1.18852 0.79236,0.10284 2.40468,-1.97965 5.88697,-3.92075 5.88697,-3.28151 0,0.60862 -4.26564,4.53146 -4.92745,4.53146 -0.10625,0 -0.81983,0.43158 -1.58572,0.95907 -1.08958,0.75042 -1.59744,1.35629 -2.33447,2.78495 -0.51806,1.00424 -0.94194,1.94606 -0.94194,2.09295 0,0.36332 0.84551,-0.10534 1.77745,-0.98523 1.83269,-1.73033 8.80588,-3.83062 8.80588,-2.65229 0,0.38342 -1.08789,1.44977 -2.11666,2.07476 -0.3638,0.22101 -2.13625,0.96384 -3.93878,1.65073 -3.66216,1.39554 -4.88388,2.11696 -5.61163,3.31364 -0.27279,0.44857 -0.58703,0.81539 -0.69831,0.81515 -0.11128,-2.4e-4 -0.62271,-0.44725 -1.13652,-0.99335 z"
       id="path54441" />
    <path
       style="fill:#caae61;stroke-width:1.23976"
       d="m 189.50869,276.681 c -0.88007,-0.93539 -1.72044,-1.39933 -8.22316,-4.53974 -2.57961,-1.2458 -4.27061,-2.55811 -3.61867,-2.80829 0.22028,-0.0845 1.51813,0.0395 2.88411,0.27557 2.65554,0.45899 5.32251,1.58046 6.34384,2.66762 0.95341,1.01486 1.0648,0.74329 0.29986,-0.73109 -0.88598,-1.70769 -2.35736,-3.24861 -4.47936,-4.69106 -1.86972,-1.27096 -4.31096,-3.39784 -4.31096,-3.75583 0,-0.32898 1.25175,-0.30468 1.45754,0.0283 0.16022,0.25925 2.06958,1.31914 2.37638,1.31914 0.083,0 -0.35878,-0.76409 -0.98165,-1.69797 -2.32873,-3.49154 -2.87242,-4.47313 -2.61836,-4.7272 0.36459,-0.36459 2.68584,1.89789 4.03064,3.92859 0.61751,0.93246 1.14615,1.66729 1.17474,1.63296 0.0286,-0.0343 -0.0392,-1.13399 -0.15058,-2.44367 -0.11142,-1.30969 -0.11144,-2.47972 -5e-5,-2.60008 0.11139,-0.12035 0.43659,0.11778 0.72267,0.52917 0.49167,0.70703 0.63053,1.27349 1.41564,5.77507 0.31027,1.77897 1.94546,5.33225 3.22449,7.00684 0.49586,0.6492 0.50068,0.57649 0.41522,-6.25655 -0.0751,-6.00543 -0.14448,-6.97778 -0.52814,-7.40371 -0.24291,-0.26968 -0.94326,-1.44283 -1.55633,-2.60699 -0.61307,-1.16417 -1.32226,-2.41433 -1.57596,-2.77813 -0.5245,-0.75209 -0.94545,-2.38242 -0.61426,-2.37895 0.86185,0.009 3.74554,4.04557 3.56139,4.98519 -0.0385,0.19651 0.0468,0.28506 0.18965,0.19679 0.14283,-0.0883 0.31999,-0.0109 0.39369,0.17189 0.0737,0.1828 0.1434,-1.88547 0.15489,-4.59617 0.017,-4.01529 0.0936,-4.9889 0.41338,-5.25428 0.7521,-0.62419 0.99606,0.86704 0.85764,5.24254 l -0.12828,4.05555 0.79893,-1.39889 c 2.12851,-3.72688 4.1911,-5.94017 3.74781,-4.02164 -0.0952,0.41196 -0.6003,1.52292 -1.12248,2.46881 -0.52218,0.94588 -1.43081,2.67229 -2.01917,3.83645 l -1.06976,2.11667 -0.072,7.53227 c -0.0396,4.14275 0.0279,7.41697 0.1499,7.27605 0.12205,-0.14093 0.55039,-1.08967 0.95186,-2.10832 0.40147,-1.01865 0.88323,-2.20975 1.07056,-2.64689 0.44721,-1.04355 0.5999,-1.80807 1.05658,-5.29061 0.20992,-1.60073 0.54713,-3.37973 0.74936,-3.95334 0.35167,-0.99748 1.06411,-1.74585 1.37042,-1.43954 0.0796,0.0796 -0.0386,1.3703 -0.26259,2.86831 -0.22398,1.49801 -0.35168,2.77923 -0.28376,2.84714 0.0679,0.0679 0.32633,-0.2688 0.57427,-0.74826 0.9527,-1.84231 2.63052,-4.03215 3.66171,-4.77914 0.59158,-0.42854 1.11269,-0.66788 1.15803,-0.53187 0.13853,0.41557 -1.15219,3.08765 -1.82244,3.77287 -0.5388,0.55084 -1.59858,2.03664 -3.73841,5.24125 -0.77231,1.1566 -0.52641,1.18852 0.79236,0.10284 2.40468,-1.97965 5.88697,-3.92075 5.88697,-3.28151 0,0.60862 -4.26564,4.53146 -4.92745,4.53146 -0.10625,0 -0.81983,0.43158 -1.58572,0.95907 -1.08958,0.75042 -1.59744,1.35629 -2.33447,2.78495 -0.51806,1.00424 -0.94194,1.94606 -0.94194,2.09295 0,0.36332 0.84551,-0.10534 1.77745,-0.98523 1.83269,-1.73033 8.80588,-3.83062 8.80588,-2.65229 0,0.38342 -1.08789,1.44977 -2.11666,2.07476 -0.3638,0.22101 -2.13625,0.96384 -3.93878,1.65073 -3.66216,1.39554 -4.88388,2.11696 -5.61163,3.31364 -0.27279,0.44857 -0.58703,0.81539 -0.69831,0.81515 -0.11128,-2.4e-4 -0.62271,-0.44725 -1.13652,-0.99335 z"
       id="path54440" />
    <path
       style="fill:#a3a24e;stroke-width:1.23976"
       d="m 199.11766,260.64348 c 0.17658,-0.38041 0.42494,-0.69258 0.55189,-0.69371 0.12696,-10e-4 0.087,-0.17545 -0.0889,-0.38735 -0.17587,-0.21191 -0.23158,-0.52796 -0.12381,-0.70234 0.12396,-0.20058 0.0837,-0.2477 -0.10951,-0.12827 -0.16801,0.10383 -0.30547,0.0724 -0.30547,-0.0698 0,-0.30013 1.82004,-1.48036 2.0021,-1.29829 0.20482,0.20482 -1.17594,3.00184 -1.7289,3.50226 -0.50661,0.45848 -0.51111,0.4534 -0.19738,-0.22247 z"
       id="path56637" />
    <path
       style="fill:#a3a24e;stroke-width:1.23976"
       d="m 190.23974,247.71072 c -0.0557,-0.61846 -0.10128,-0.11244 -0.10128,1.12448 0,1.23693 0.0456,1.74294 0.10128,1.12448 0.0557,-0.61846 0.0557,-1.63049 0,-2.24896 z"
       id="path56632" />
    <path
       style="fill:#a3a24e;stroke-width:1.23976"
       d="m 188.03821,254.34921 c -0.19927,-0.38703 -0.49037,-0.74638 -0.64687,-0.79855 -0.15651,-0.0522 -0.3133,-0.29064 -0.34841,-0.52992 -0.0351,-0.23929 -0.44975,-0.82977 -0.92139,-1.31218 l -0.85754,-0.8771 0.42601,0.85395 c 0.2343,0.46968 0.60291,0.85396 0.81912,0.85396 0.21621,0 0.32604,0.10852 0.24407,0.24116 -0.15912,0.25745 0.66146,1.87102 0.95294,1.87383 0.0955,9.2e-4 0.10528,0.26318 0.0217,0.58279 -0.13485,0.51565 -0.10551,0.538 0.26036,0.19844 0.35703,-0.33136 0.36374,-0.47706 0.05,-1.08638 z"
       id="path56631" />
    <path
       style="fill:#a3a24e;stroke-width:1.23976"
       d="m 190.06019,252.86585 c -0.22752,-0.38384 -0.2541,-0.35073 -0.16272,0.20269 0.0601,0.3638 0.1423,1.55442 0.18274,2.64583 l 0.0735,1.98437 0.0892,-2.18706 c 0.0491,-1.20288 -0.0332,-2.39351 -0.18274,-2.64583 z"
       id="path56630" />
    <path
       style="fill:#a3a24e;stroke-width:1.23976"
       d="m 190.50334,262.13051 c -0.0571,-0.5457 -0.10379,-0.0992 -0.10379,0.99219 0,1.09141 0.0467,1.53789 0.10379,0.99219 0.0571,-0.5457 0.0571,-1.43867 0,-1.98438 z"
       id="path56629" />
    <path
       style="fill:#a3a24e;stroke-width:1.23976"
       d="m 199.42233,265.40129 c 0.4549,-0.0668 1.92559,-1.20189 1.57014,-1.21187 -0.16408,-0.005 -0.44655,0.17021 -0.62771,0.38849 -0.18116,0.21828 -0.5897,0.39687 -0.90787,0.39687 -0.31817,0 -0.8096,0.18476 -1.09208,0.41058 -0.49605,0.39655 -0.49214,0.40462 0.11444,0.23637 0.34541,-0.0958 0.7698,-0.19501 0.94308,-0.22044 z"
       id="path56628" />
    <path
       style="fill:#a3a24e;stroke-width:1.23976"
       d="m 189.93199,277.09142 c -0.21619,-0.30866 -0.32966,-0.66382 -0.25215,-0.78923 0.0775,-0.12541 0.0428,-0.1976 -0.0772,-0.16042 -0.11996,0.0372 -1.11107,-0.41906 -2.20248,-1.01386 -1.09141,-0.5948 -2.99641,-1.54223 -4.23333,-2.1054 -5.15079,-2.34513 -7.03638,-3.94607 -4.29948,-3.6504 1.69605,0.18322 1.98909,0.29931 1.75192,0.69403 -0.1603,0.26678 -0.11875,0.26696 0.20993,9.1e-4 0.84756,-0.68603 4.31579,0.68146 6.31958,2.49176 1.08455,0.97983 1.19357,0.61216 0.20171,-0.68029 -0.29677,-0.3867 -0.42384,-0.84144 -0.3235,-1.15761 0.10926,-0.34422 0.066,-0.45936 -0.12765,-0.33969 -0.26183,0.16183 -0.41052,-0.16378 -0.32426,-0.71008 0.0172,-0.10914 -0.1175,-0.16867 -0.2994,-0.13229 -0.1819,0.0364 -0.30239,-0.0784 -0.26776,-0.25506 0.0346,-0.17667 -0.0844,-0.26866 -0.26458,-0.20442 -0.18016,0.0642 -0.62521,-0.28664 -0.98901,-0.77973 -0.36381,-0.49309 -0.78053,-0.87735 -0.92605,-0.85392 -0.14552,0.0234 -0.22489,-0.13599 -0.17638,-0.35427 0.0485,-0.21828 0.004,-0.31233 -0.0997,-0.20899 -0.10333,0.10334 -0.55265,-7.4e-4 -0.99847,-0.23129 -0.7262,-0.37553 -0.76451,-0.45287 -0.36796,-0.74283 0.40026,-0.29268 0.37857,-0.35286 -0.22665,-0.62861 -0.90785,-0.41365 -1.19177,-0.36962 -0.41019,0.0636 0.43657,0.24199 0.53267,0.41059 0.31183,0.54708 -0.34516,0.21332 -2.46403,-1.44045 -3.12931,-2.44241 -0.36488,-0.54953 -0.3522,-0.58988 0.18539,-0.58988 0.36881,0 0.50892,0.11023 0.38826,0.30546 -0.12479,0.20192 -0.0716,0.23306 0.15682,0.0919 0.21012,-0.12986 0.45951,-0.0578 0.63619,0.18381 0.28204,0.38572 0.45498,0.47719 0.90216,0.47719 0.11808,0 0.47049,0.23831 0.78313,0.52958 l 0.56844,0.52958 -0.0555,-0.77168 c -0.0305,-0.42442 -0.12565,-0.75203 -0.21136,-0.72802 -0.49249,0.13799 -2.79704,-3.57568 -2.65746,-4.28236 0.0388,-0.19651 -0.044,-0.28649 -0.18399,-0.19996 -0.14001,0.0865 -0.32137,-0.0168 -0.40302,-0.22956 -0.0816,-0.21278 -0.0325,-0.45854 0.10921,-0.54613 0.60149,-0.37174 4.95526,4.88182 4.56671,5.51051 -0.10103,0.16346 -0.0339,0.1877 0.1703,0.0615 0.25711,-0.1589 0.29316,-0.82759 0.15197,-2.81901 -0.1018,-1.43588 -0.12777,-2.61069 -0.0577,-2.61069 0.59012,0 1.83642,3.78331 1.71006,5.19109 -0.10319,1.14968 0.93106,3.7717 2.9433,7.46181 0.42231,0.77447 0.84767,1.48794 0.94523,1.5855 0.0976,0.0976 0.1386,-2.99435 0.0912,-6.8709 -0.0725,-5.92615 -0.15217,-7.12636 -0.50065,-7.53863 -0.22796,-0.26968 -1.14316,-1.80879 -2.03378,-3.42024 -2.37122,-4.29041 -2.52026,-5.4176 -0.42597,-3.22165 1.09048,1.14342 2.32027,3.25 2.10276,3.60194 -0.0658,0.1065 -0.0103,0.36655 0.1234,0.57788 0.21071,0.33308 0.24778,0.3314 0.27843,-0.0126 0.0195,-0.21828 0.12625,-0.0397 0.23733,0.39687 0.11862,0.46615 0.22325,-1.22644 0.25352,-4.10104 0.0555,-5.26935 0.0951,-5.74613 0.51206,-6.16308 0.50872,-0.50871 0.82295,1.09705 0.78228,3.99749 -0.0218,1.55488 -0.0894,2.49761 -0.1503,2.09496 -0.0609,-0.40265 -0.21641,-0.66673 -0.34568,-0.58684 -0.12926,0.0799 -0.17977,0.29027 -0.11224,0.46751 0.0675,0.17724 0.21709,1.03663 0.33238,1.90975 l 0.2096,1.5875 0.74456,-1.4552 c 0.92346,-1.80485 1.50471,-2.50154 1.75253,-2.10056 0.11042,0.17867 0.23755,0.0778 0.32544,-0.25833 0.0793,-0.30334 0.0312,-0.55153 -0.10686,-0.55153 -0.13811,0 0.0788,-0.4134 0.48193,-0.91867 0.41779,-0.5236 0.83239,-0.81931 0.96408,-0.68761 0.38521,0.38521 -0.0606,1.72805 -1.20174,3.62017 -0.5955,0.98735 -1.45078,2.57525 -1.90061,3.52867 l -0.81789,1.73348 -0.0874,7.12984 c -0.0481,3.92141 -0.006,7.55281 0.0944,8.06979 0.17562,0.9081 0.19006,0.91812 0.42607,0.29577 0.13436,-0.3543 0.18239,-0.8055 0.10673,-1.00265 -0.0756,-0.19715 -0.02,-0.56211 0.12374,-0.81102 0.88081,-1.52556 2.14004,-5.64595 2.38423,-7.80161 0.35407,-3.12556 0.99097,-5.89857 1.44044,-6.2716 0.49278,-0.40897 0.77045,0.10246 0.41561,0.76549 -0.36065,0.67389 -0.35024,1.06305 0.0148,0.55203 0.2223,-0.31122 0.25076,-0.25411 0.13185,0.26459 -0.0834,0.3638 -0.15326,1.11496 -0.15524,1.66926 -0.002,0.62965 -0.10687,0.94398 -0.2788,0.83772 -0.18035,-0.11146 -0.21364,0.0883 -0.0966,0.5797 0.22985,0.96493 0.61688,1.69455 0.62831,1.18449 0.005,-0.2035 0.17414,-0.2953 0.39145,-0.21192 0.24041,0.0923 0.33459,0.0199 0.25254,-0.19388 -0.072,-0.18756 0.0532,-0.49373 0.27806,-0.68038 0.2249,-0.18666 0.40571,-0.47362 0.4018,-0.6377 -0.004,-0.16409 -0.37321,0.11838 -0.82066,0.6277 l -0.81354,0.92605 0.73586,-1.31878 c 0.40472,-0.72533 0.83484,-1.4397 0.95583,-1.5875 0.12098,-0.1478 0.47502,-0.60832 0.78674,-1.02338 0.46877,-0.62417 0.60577,-0.68498 0.79229,-0.35169 0.1333,0.23819 0.0988,0.70907 -0.0845,1.15154 -0.17049,0.4117 -0.32495,0.80809 -0.34324,0.88085 -0.10942,0.4352 -1.15774,2.1727 -1.99546,3.30729 -0.53722,0.7276 -1.1929,1.73964 -1.45707,2.24896 -0.26417,0.50932 -0.53138,0.77479 -0.59379,0.58994 -0.075,-0.2222 -0.28474,-0.11839 -0.61881,0.30631 -0.27793,0.35333 -0.50532,0.73569 -0.50532,0.8497 0,0.114 0.16251,-0.015 0.36115,-0.28663 0.19863,-0.27165 0.61583,-0.51267 0.9271,-0.5356 0.52432,-0.0386 0.53489,-0.007 0.14366,0.42493 -0.39124,0.43232 -0.38307,0.45637 0.11111,0.32714 0.36162,-0.0946 0.50065,-0.30955 0.43171,-0.66754 -0.11936,-0.61975 0.90666,-1.65344 3.05235,-3.07516 4.11121,-2.72408 4.80321,-1.79348 0.92986,1.25047 -1.72941,1.35909 -2.65646,1.77773 -1.95445,0.88258 0.32861,-0.419 0.31939,-0.42873 -0.097,-0.10231 -0.25306,0.19839 -0.40442,0.45081 -0.33636,0.56093 0.0681,0.11012 -0.59142,0.70188 -1.4655,1.31501 -1.33592,0.93709 -1.71339,1.38862 -2.36818,2.83271 -0.43483,0.959 -0.89778,1.64449 -1.04793,1.55169 -0.15829,-0.0978 -0.20414,0.003 -0.11142,0.24438 0.23811,0.62049 0.66277,0.50232 1.82364,-0.50744 1.43988,-1.25244 3.84132,-2.37424 6.18113,-2.88744 2.36457,-0.51862 2.9441,-0.53446 2.9441,-0.0805 0,0.92578 -2.3885,2.35046 -6.48229,3.86654 -0.87312,0.32334 -2.12328,0.84381 -2.77812,1.15659 -0.65485,0.31278 -1.33479,0.55606 -1.51098,0.54064 -0.17619,-0.0154 -0.30054,0.0472 -0.27633,0.13926 0.0876,0.3328 -0.84852,1.82665 -1.23837,1.97625 -0.23519,0.0903 -0.56105,-0.0775 -0.79251,-0.40793 z"
       id="path54439" />
    <path
       style="fill:#9d7945;stroke-width:1.23976"
       d="m 187.8429,254.10137 c -0.38902,-0.59418 -0.7073,-1.16723 -0.7073,-1.27345 0,-0.10622 -0.29766,-0.45193 -0.66146,-0.76825 -0.3638,-0.31633 -0.66146,-0.71726 -0.66146,-0.89097 0,-0.5585 1.45957,1.06172 2.21278,2.45633 0.89451,1.65623 0.78205,1.94966 -0.18256,0.47634 z"
       id="path56279" />
    <path
       style="fill:#9d7945;stroke-width:1.23976"
       d="m 189.55907,251.81176 c 0.0854,-4.95482 0.35078,-6.74945 0.87309,-5.90433 0.32869,0.53184 0.49389,5.77032 0.16742,5.30902 -0.15449,-0.21828 -0.30299,-1.4089 -0.33002,-2.64583 l -0.0491,-2.24896 -0.16794,2.91042 c -0.0924,1.60073 -0.13098,4.01174 -0.0858,5.35781 0.0553,1.64767 -0.0126,2.4474 -0.20777,2.4474 -0.20341,0 -0.26303,-1.55919 -0.19983,-5.22553 z"
       id="path56272" />
    <path
       style="fill:#9d7945;stroke-width:1.23976"
       d="m 199.73018,259.81541 c 0.39692,-0.7276 0.83424,-1.44198 0.97182,-1.5875 0.39208,-0.4147 -0.77334,1.78915 -1.25923,2.38125 -0.23884,0.29104 -0.1095,-0.0662 0.28741,-0.79375 z"
       id="path56267" />
    <path
       style="fill:#9d7945;stroke-width:1.23976"
       d="m 181.28119,262.68907 c -0.37149,-0.56187 -0.88689,-1.37876 -1.14534,-1.81533 l -0.46991,-0.79375 0.82441,0.87623 c 0.45343,0.48192 0.82441,0.9488 0.82441,1.0375 0,0.0887 0.19081,0.37212 0.42403,0.62982 0.23321,0.2577 0.37763,0.60772 0.32093,0.77782 -0.0567,0.17011 -0.40704,-0.15042 -0.77853,-0.71229 z"
       id="path56260" />
    <path
       style="fill:#9d7945;stroke-width:1.23976"
       d="m 193.09217,268.21595 c 0.51733,-1.24496 0.92249,-2.89118 0.922,-3.74622 -8e-4,-1.40967 0.81555,-5.59843 1.06146,-5.44645 0.11696,0.0723 0.15594,-0.0854 0.0866,-0.35045 -0.0693,-0.26502 0.0609,-0.63696 0.28926,-0.82651 0.22839,-0.18955 0.4233,-0.24077 0.43312,-0.11381 0.01,0.12696 0.0699,0.63182 0.13348,1.1219 0.10334,0.79641 0.0571,0.87575 -0.43563,0.74691 -0.41424,-0.10833 -0.51318,-0.0449 -0.39806,0.25505 0.0842,0.21957 0.16506,0.59784 0.17956,0.8406 0.016,0.26691 0.11011,0.17991 0.23821,-0.22008 0.18787,-0.58661 0.21482,-0.54742 0.23821,0.34634 0.016,0.61021 -0.078,0.94329 -0.23821,0.84428 -0.14552,-0.0899 -0.26458,-0.0472 -0.26458,0.095 0,0.14221 -0.0708,0.47666 -0.15725,0.74322 -0.11635,0.3586 -0.0912,0.39231 0.0968,0.1296 0.19185,-0.26812 0.28882,-0.17315 0.39608,0.3879 0.12947,0.67731 -0.594,2.13413 -0.90526,1.82287 -0.0609,-0.0609 -0.11072,0.12174 -0.11072,0.40585 0,0.28411 0.0935,0.51656 0.20789,0.51656 0.11434,0 0.20789,-0.10517 0.20789,-0.23372 0,-0.12855 0.2501,-0.29913 0.55578,-0.37907 0.30569,-0.0799 0.48389,-0.26167 0.39602,-0.40385 -0.23521,-0.38058 0.10711,-1.10002 0.52341,-1.10002 0.19814,0 0.29905,-0.15952 0.22423,-0.35449 -0.0748,-0.19496 0.048,-0.5072 0.27289,-0.69385 0.2249,-0.18666 0.40891,-0.51003 0.40891,-0.7186 0,-0.23218 -0.25585,-0.0914 -0.65981,0.36312 l -0.65982,0.74236 0.58971,-1.10562 c 0.37821,-0.70907 0.66086,-0.99376 0.78806,-0.79375 0.10909,0.17153 0.20928,0.19281 0.22264,0.0473 0.0769,-0.83701 0.27489,-1.27871 0.91941,-2.05068 0.79092,-0.94733 2.17986,-1.93352 2.40544,-1.70793 0.0791,0.0791 -0.10446,0.27676 -0.40796,0.43919 -0.30351,0.16243 -0.55183,0.40491 -0.55183,0.53885 0,0.13394 -0.28837,0.66845 -0.64081,1.18781 -0.51797,0.76326 -0.6641,0.85428 -0.76232,0.47477 -0.0668,-0.25823 -0.11047,-0.0528 -0.0969,0.45653 0.0277,1.04539 -0.49858,2.14966 -1.98166,4.15774 -0.5604,0.75879 -1.15647,1.68153 -1.3246,2.05052 -0.30343,0.66595 -0.92329,0.97519 -0.67908,0.33878 0.0701,-0.18266 -0.0562,-0.5037 -0.28072,-0.7134 -0.36132,-0.33753 -0.39028,-0.31289 -0.2523,0.21475 0.0892,0.34116 -0.0332,0.92835 -0.28628,1.37319 -0.47558,0.83591 -1.02099,1.08213 -0.70324,0.31748 z"
       id="path56254" />
    <path
       style="fill:#9d7945;stroke-width:1.23976"
       d="m 190.32849,260.15482 c -0.2079,-0.67803 -0.2384,-0.36069 -0.13905,1.44653 0.0807,1.46856 0.0294,2.3151 -0.14036,2.3151 -0.14721,0 -0.25356,0.38695 -0.23635,0.8599 l 0.0313,0.85989 0.20197,-0.79375 0.20198,-0.79375 0.0862,0.92604 c 0.0474,0.50933 0.12546,-0.17138 0.17341,-1.51267 0.048,-1.34129 -0.0327,-2.82958 -0.17912,-3.30729 z"
       id="path56201" />
    <path
       style="fill:#9d7945;stroke-width:1.23976"
       d="m 200.21388,265.10332 c 1.08549,-0.82795 1.07839,-0.81434 0.53401,-1.02324 -0.22583,-0.0867 -0.34621,-0.0534 -0.26749,0.074 0.20452,0.33093 -0.56928,0.90629 -0.99775,0.74187 -0.19783,-0.0759 -0.69218,0.1271 -1.09857,0.45114 l -0.73887,0.58916 0.81202,-0.0562 c 0.44661,-0.0309 1.2371,-0.38045 1.75665,-0.77672 z"
       id="path56200" />
    <path
       style="fill:#9d7945;stroke-width:1.23976"
       d="m 185.34079,265.19082 c -0.17313,-0.17313 -0.3225,-0.16447 -0.4399,0.0255 -0.25674,0.41541 -0.67571,0.35344 -0.67571,-0.0999 0,-0.21317 -0.26789,-0.53052 -0.59531,-0.70523 -0.55888,-0.29822 -0.55193,-0.26235 0.11358,0.586 0.3899,0.49702 0.83638,0.8739 0.99219,0.83752 0.15581,-0.0364 0.28691,0.0827 0.29133,0.26458 0.004,0.1819 0.13583,0.1109 0.29201,-0.15779 0.18753,-0.32264 0.19494,-0.57753 0.0218,-0.75065 z"
       id="path56199" />
    <path
       style="fill:#9d7945;stroke-width:1.23976"
       d="m 195.7418,267.95298 c 0.14951,-0.19904 0.45483,-0.38875 0.6785,-0.42158 0.22367,-0.0328 0.72843,-0.29408 1.12169,-0.58055 l 0.71503,-0.52086 h -0.66726 c -0.41237,0 -1.14681,0.43052 -1.92269,1.12706 -0.69049,0.61987 -1.01731,1.04397 -0.72627,0.94243 0.29105,-0.10153 0.65149,-0.34746 0.801,-0.5465 z"
       id="path56198" />
    <path
       style="fill:#9d7945;stroke-width:1.23976"
       d="m 186.22421,269.06663 c -0.37186,-0.40124 -0.67611,-0.83121 -0.67611,-0.95548 0,-0.41426 -0.0918,-0.62014 -0.42523,-0.95355 -0.60284,-0.60284 -0.62258,-0.34358 -0.0504,0.66146 0.62764,1.10238 1.56886,2.23606 1.726,2.07892 0.056,-0.056 -0.20244,-0.4301 -0.5743,-0.83135 z"
       id="path56197" />
    <path
       style="fill:#9d7945;stroke-width:1.23976"
       d="m 201.97229,270.60519 c 0.35278,-0.39578 0.45188,-0.57541 0.22021,-0.39917 -0.23167,0.17623 -0.49956,0.24208 -0.59531,0.14633 -0.0957,-0.0958 -0.1741,-0.0517 -0.1741,0.0979 0,0.14959 -0.26789,0.24536 -0.59531,0.21281 -0.32742,-0.0326 -0.38695,-0.008 -0.13229,0.0551 0.25466,0.0628 0.46302,0.22505 0.46302,0.36045 0,0.37575 0.11809,0.30705 0.81378,-0.47341 z"
       id="path56196" />
    <path
       style="fill:#9d7945;stroke-width:1.23976"
       d="m 198.45064,272.2824 c -0.25239,-0.19167 -0.37509,-0.4323 -0.27264,-0.53474 0.10244,-0.10244 -0.0482,-0.11072 -0.33484,-0.0184 -0.51487,0.16587 -0.51496,0.16287 -0.008,-0.25059 0.28248,-0.23017 0.40154,-0.41452 0.26459,-0.40968 -0.30479,0.0108 -1.43964,0.936 -1.43964,1.17371 0,0.0944 0.0995,0.11014 0.22111,0.035 0.12161,-0.0752 0.5681,-0.0329 0.99219,0.0939 1.05748,0.31623 1.1017,0.30939 0.57675,-0.0892 z"
       id="path56195" />
    <path
       style="fill:#9d7945;stroke-width:1.23976"
       d="m 190.18518,270.20031 c -0.0615,-2.40741 -0.0241,-3.24428 0.10369,-2.31511 l 0.20006,1.45521 0.0431,-1.40796 c 0.029,-0.94642 -0.087,-1.53806 -0.35375,-1.80484 -0.35277,-0.35278 -0.39662,-0.0934 -0.39457,2.334 0.002,2.52842 0.22769,5.50901 0.4169,5.50901 0.0445,0 0.0376,-1.69664 -0.0154,-3.77031 z"
       id="path56194" />
    <path
       style="fill:#9d7945;stroke-width:1.23976"
       d="m 188.04382,273.94179 c -0.0792,-0.1281 -0.38981,-0.36449 -0.69031,-0.52531 -0.41816,-0.2238 -0.50006,-0.21749 -0.34903,0.0269 0.14706,0.23796 -0.0301,0.27127 -0.69568,0.13081 -0.49115,-0.10365 -1.00611,-0.29498 -1.14435,-0.42517 -0.13825,-0.13019 -0.47269,-0.23671 -0.74322,-0.23671 -0.27052,0 -0.41828,-0.11906 -0.32834,-0.26458 0.18471,-0.29887 -0.21004,-0.36322 -0.49291,-0.0803 -0.23529,0.23528 1.48396,1.07727 2.64404,1.2949 0.48782,0.0915 0.83206,0.2552 0.76498,0.36374 -0.0671,0.10854 0.17069,0.14141 0.52839,0.073 0.35771,-0.0684 0.5856,-0.22914 0.50643,-0.35723 z"
       id="path56193" />
    <path
       style="fill:#9d7945;stroke-width:1.23976"
       d="m 193.43105,274.3288 c -0.0428,-0.23957 0.0876,-0.49314 0.28981,-0.5635 0.22223,-0.0773 0.29526,-0.0109 0.1847,0.16796 -0.17559,0.2841 0.0488,0.25334 1.16754,-0.16007 0.21828,-0.0807 0.61423,-0.18892 0.87988,-0.24059 0.67515,-0.1313 1.57339,-0.63648 1.41439,-0.79548 -0.0728,-0.0728 -0.38721,0.004 -0.69878,0.17089 -0.31158,0.16675 -0.70766,0.25612 -0.8802,0.19861 -0.17253,-0.0575 -0.4807,0.0624 -0.68482,0.26656 -0.20412,0.20412 -0.6219,0.30999 -0.92841,0.23526 -0.65003,-0.15849 -1.6166,0.46162 -1.3619,0.87374 0.27148,0.43926 0.70438,0.33178 0.61779,-0.15338 z"
       id="path56192" />
    <path
       style="fill:#9d7945;stroke-width:1.23976"
       d="m 189.89195,277.1104 c -0.0626,-0.1013 -0.002,-0.2241 0.13392,-0.27291 0.13626,-0.0488 0.0614,-0.32687 -0.16624,-0.61791 -0.30567,-0.39073 -0.3742,-0.41318 -0.26193,-0.0858 0.11182,0.32607 -0.15098,0.23886 -0.99337,-0.32966 -0.62998,-0.42516 -2.55762,-1.43208 -4.28364,-2.23759 -1.72602,-0.80551 -3.36289,-1.5911 -3.63749,-1.74575 -0.2746,-0.15465 -0.92944,-0.51749 -1.45521,-0.80632 -0.97379,-0.53495 -1.61739,-1.18147 -1.61739,-1.62474 0,-0.13552 0.17859,-0.0982 0.39687,0.083 0.21828,0.18116 0.39688,0.22236 0.39688,0.0915 0,-0.29046 2.06595,-0.12307 2.25493,0.1827 0.0742,0.12009 0.0139,0.29314 -0.13395,0.38454 -0.1479,0.0914 -0.2689,0.0401 -0.2689,-0.11401 0,-0.15411 -0.26789,-0.26638 -0.59531,-0.2495 -0.44799,0.0231 -0.48073,0.0606 -0.13229,0.15169 0.25466,0.0666 0.46302,0.23133 0.46302,0.36618 0,0.13485 0.32146,0.24518 0.71437,0.24518 0.57085,0 0.64804,0.0663 0.38421,0.33017 -0.26383,0.26383 -0.54883,0.21039 -1.41853,-0.26599 -0.59859,-0.32788 -1.12734,-0.55716 -1.175,-0.50951 -0.0477,0.0476 0.41805,0.36682 1.03488,0.70927 0.61684,0.34246 1.18225,0.71138 1.25647,0.81983 0.0742,0.10846 0.49093,0.2758 0.92604,0.37187 0.59955,0.13237 0.695,0.1064 0.39422,-0.10727 -0.35278,-0.2506 -0.35278,-0.28586 0,-0.31733 0.21828,-0.0195 0.57547,-0.0163 0.79375,0.007 0.35278,0.0377 0.35278,0.0118 0,-0.23323 -0.33354,-0.23163 -0.33856,-0.3132 -0.0315,-0.51109 0.25947,-0.16721 0.0485,-0.289 -0.7276,-0.42013 -0.60115,-0.10156 -1.09299,-0.29865 -1.09299,-0.43798 0,-0.46276 1.94997,0.074 3.70417,1.0197 0.94588,0.50991 1.78035,1.00303 1.85437,1.09581 0.074,0.0928 0.46759,0.46355 0.87459,0.82393 0.64835,0.57408 0.71681,0.59047 0.5528,0.13229 -0.10296,-0.28762 -0.33695,-0.70153 -0.51998,-0.91982 -0.33768,-0.40272 -0.46861,-0.89664 -0.41188,-1.55375 0.0266,-0.30778 0.10192,-0.30778 0.49437,0 0.42204,0.331 0.43006,0.32116 0.0906,-0.1111 -0.22388,-0.28508 -0.46852,-0.37815 -0.61333,-0.23334 -0.26177,0.26177 -2.85069,-2.30266 -2.85069,-2.82372 0,-0.16784 -0.12609,-0.30517 -0.2802,-0.30517 -0.15411,0 -0.19524,0.13746 -0.0914,0.30547 0.11267,0.1823 0.073,0.2339 -0.0984,0.12798 -0.15794,-0.0976 -0.23491,-0.46558 -0.17106,-0.81771 0.0639,-0.35213 -0.003,-0.71357 -0.14756,-0.80319 -0.14839,-0.0917 -0.19926,0.005 -0.11636,0.22091 0.081,0.21111 0.0226,0.46093 -0.12986,0.55514 -0.36635,0.22642 -1.40471,-0.33856 -1.2078,-0.65718 0.0844,-0.13655 -0.014,-0.184 -0.21875,-0.10545 -0.41969,0.16105 -3.56875,-2.67361 -3.28518,-2.95719 0.0976,-0.0976 0.38185,-0.0117 0.63158,0.19091 0.34811,0.28247 0.40488,0.28671 0.24329,0.0182 -0.17458,-0.29012 -0.11516,-0.29055 0.34609,-0.002 0.30627,0.19127 0.56235,0.52748 0.56908,0.74714 0.007,0.21966 0.3159,0.6375 0.68704,0.92854 0.37115,0.29104 0.97834,0.79706 1.34932,1.12448 0.85913,0.75825 0.97661,0.75187 0.46734,-0.0254 -0.22368,-0.34138 -0.70939,-0.7586 -1.07935,-0.92717 -0.36997,-0.16857 -0.5946,-0.4328 -0.49919,-0.58718 0.11392,-0.18433 0.33635,-0.1333 0.6479,0.14865 0.44977,0.40704 0.47138,0.37012 0.41578,-0.71036 -0.0926,-1.7997 -0.41889,-2.84087 -0.83962,-2.67942 -0.3311,0.12706 -0.49499,-0.20495 -0.39248,-0.79507 0.0208,-0.11996 -0.0706,-0.15104 -0.20327,-0.0691 -0.32931,0.20352 -0.918,-0.54749 -0.70249,-0.89619 0.0954,-0.15427 0.28613,-0.21079 0.42397,-0.1256 0.13784,0.0852 0.18029,0.26868 0.0943,0.40775 -0.0859,0.13907 -0.0385,0.22014 0.10552,0.18015 0.14399,-0.04 0.80768,0.62623 1.47488,1.48049 1.12378,1.43885 1.32747,1.82341 1.24441,2.34941 -0.0172,0.10914 0.10398,0.19844 0.26936,0.19844 0.21722,0 0.24994,-0.78954 0.11787,-2.84427 l -0.18282,-2.84427 0.63344,0.92604 c 0.6126,0.89558 1.41291,4.0162 1.14229,4.45408 -0.0731,0.11831 0.0937,0.94346 0.37081,1.83367 0.27707,0.89021 0.45787,1.85684 0.40179,2.14807 -0.0695,0.36081 0.0119,0.4858 0.25548,0.39232 0.22802,-0.0875 0.55317,0.27729 0.89796,1.00745 0.6254,1.32441 1.76163,3.36039 2.01769,3.61546 0.0966,0.0962 0.13568,-3.06445 0.0868,-7.02377 -0.0763,-6.17994 -0.14825,-7.24714 -0.50843,-7.54062 -0.50596,-0.41228 -3.60578,-6.03352 -3.83851,-6.9608 -0.10416,-0.41499 -0.0526,-0.65711 0.13994,-0.65711 0.16767,0 0.27172,0.14883 0.23121,0.33073 -0.12098,0.54325 0.61898,2.05743 0.91579,1.87399 0.15112,-0.0934 0.1993,-0.0477 0.10708,0.1015 -0.0922,0.14922 0.0607,0.53459 0.33975,0.85638 0.27909,0.32179 0.58343,0.93111 0.67632,1.35404 0.0929,0.42293 0.29903,0.84939 0.45808,0.94769 0.18325,0.11325 0.22919,0.0224 0.12541,-0.24807 -0.115,-0.2997 -0.0496,-0.38299 0.21963,-0.27968 0.21087,0.0809 0.38522,0.28321 0.38745,0.44954 0.002,0.16633 0.11946,0.12383 0.26053,-0.0944 0.19507,-0.30186 0.25745,-0.19415 0.26053,0.44987 0.002,0.46571 0.16519,0.94196 0.36213,1.05834 0.19694,0.11637 0.42567,0.39017 0.50828,0.60846 0.0826,0.21828 0.17748,-0.79375 0.21083,-2.24896 0.0453,-1.97633 0.10204,-2.34456 0.22429,-1.45521 l 0.16366,1.19062 0.69486,-1.32544 c 0.79147,-1.50973 1.78685,-2.79723 1.79995,-2.32819 0.005,0.17331 -0.11026,0.3887 -0.25578,0.47863 -0.42365,0.26183 -0.30534,0.62062 0.1811,0.54923 0.31325,-0.046 0.46028,-0.35183 0.49477,-1.02928 0.0323,-0.63495 -0.052,-0.91395 -0.24725,-0.81759 -0.16298,0.0804 -0.11227,-0.0114 0.11269,-0.20409 0.22496,-0.19269 0.60776,-0.6388 0.85066,-0.99136 0.37453,-0.54359 0.46682,-0.5754 0.60729,-0.20934 0.23888,0.62249 -0.27722,1.99032 -1.42781,3.78418 -0.55177,0.86025 -1.15801,1.94953 -1.34721,2.42062 -0.19263,0.47965 -0.46668,0.78071 -0.62283,0.6842 -0.1754,-0.10841 -0.21378,-0.003 -0.10346,0.28471 0.19405,0.50567 -0.41302,1.87474 -0.93978,2.1194 -0.27073,0.12575 -0.27103,0.18655 -0.002,0.31188 0.25859,0.12026 0.32984,1.77392 0.31315,7.26813 -0.0202,6.6642 0.19426,9.08181 0.64608,7.28164 0.0976,-0.38878 0.1102,-0.81562 0.0281,-0.94852 -0.0821,-0.13291 -0.0263,-0.45486 0.12408,-0.71544 0.15039,-0.26058 0.39233,-0.80837 0.53764,-1.21731 0.14531,-0.40894 0.38826,-0.66685 0.53988,-0.57314 0.17869,0.11043 0.22141,-0.0934 0.12142,-0.57939 l -0.15427,-0.74978 0.40975,0.79375 0.40975,0.79375 -0.1444,-0.74977 c -0.093,-0.48276 -0.0464,-0.68921 0.13079,-0.5797 0.15135,0.0935 0.28356,-0.0453 0.29378,-0.30856 0.0167,-0.42863 0.0434,-0.42335 0.25641,0.0505 0.19969,0.44434 0.22852,0.4029 0.17984,-0.25857 -0.0425,-0.57706 0.0588,-0.78935 0.3785,-0.79375 0.24006,-0.003 0.73099,-0.30367 1.09095,-0.66747 0.99707,-1.00772 1.98993,-1.79305 2.92055,-2.31011 0.46329,-0.25741 0.96401,-0.62217 1.11272,-0.81059 0.1487,-0.18842 0.53596,-0.36258 0.86057,-0.38703 0.32461,-0.0245 0.5902,-0.13819 0.5902,-0.25274 0,-0.11455 0.24623,-0.20828 0.54718,-0.20828 h 0.54719 l -0.54905,0.77106 c -0.51429,0.72226 -3.7843,3.46227 -4.13197,3.46227 -0.51774,0 -3.81788,2.59468 -3.94516,3.10181 -0.0827,0.32959 -0.29007,0.57019 -0.46077,0.53466 -0.1707,-0.0355 -0.3536,0.17353 -0.40645,0.46458 -0.079,0.43494 -0.0472,0.4585 0.17867,0.13229 0.47672,-0.68861 0.30544,-0.0499 -0.21699,0.80915 -0.33117,0.54456 -0.54734,0.70297 -0.64057,0.46942 -0.0775,-0.19412 -0.1501,-0.085 -0.16161,0.24278 -0.0268,0.7633 0.75791,0.79594 1.61028,0.067 1.61253,-1.37906 1.98115,-1.63161 3.27453,-2.24348 0.76201,-0.36048 1.78566,-0.71605 2.27478,-0.79015 0.48913,-0.0741 1.45792,-0.27622 2.15287,-0.44917 0.95926,-0.23872 1.33755,-0.24046 1.57077,-0.007 0.73889,0.73889 -2.40113,2.67752 -6.6594,4.11148 -0.97957,0.32986 -2.22311,0.86058 -2.76342,1.17937 -1.11355,0.65701 -1.21671,0.68372 -1.21671,0.31503 0,-0.14552 0.20836,-0.2664 0.46302,-0.26863 0.38835,-0.003 0.40025,-0.0438 0.0738,-0.2502 -0.47515,-0.30049 -0.61252,-0.18328 -0.66802,0.57 -0.0235,0.31904 -0.19469,0.63072 -0.38041,0.69263 -0.24123,0.0804 -0.28611,-0.0664 -0.15714,-0.51405 0.1376,-0.47762 0.0498,-0.42062 -0.36911,0.23967 -0.30231,0.47646 -0.5421,1.01224 -0.53288,1.19062 0.009,0.17839 0.14187,0.0267 0.29476,-0.33712 0.28787,-0.68494 0.65888,-0.31283 0.38909,0.39023 -0.14325,0.37329 -1.16969,0.45022 -1.38385,0.10372 z"
       id="path54438" />
    <path
       style="fill:#8b9137;stroke-width:1.23976"
       d="m 194.71183,250.29041 0.17516,-0.79375 -0.58768,0.66146 -0.58769,0.66146 0.47995,-0.87133 c 0.43745,-0.79416 0.50024,-0.82585 0.70907,-0.35785 0.14188,0.31797 0.1162,0.70009 -0.0674,1.00361 -0.24672,0.40781 -0.26711,0.3568 -0.12137,-0.3036 z"
       id="path55785" />
    <path
       style="fill:#8b9137;stroke-width:1.23976"
       d="m 190.43534,248.70291 c -0.10303,-1.23693 -0.28858,-2.24896 -0.41232,-2.24896 -0.12374,0 -0.15338,-0.18659 -0.0659,-0.41466 0.32152,-0.83787 0.62025,0.10015 0.78899,2.47747 0.0951,1.33931 0.10618,2.43511 0.0247,2.43511 -0.0815,0 -0.23246,-1.01203 -0.3355,-2.24896 z"
       id="path55784" />
    <path
       style="fill:#8b9137;stroke-width:1.23976"
       d="m 187.1356,252.681 c 0,-0.21316 -0.22412,-0.50751 -0.49804,-0.65411 -0.27392,-0.1466 -0.57819,-0.47541 -0.67615,-0.73069 -0.12993,-0.3386 0.0113,-0.28691 0.52233,0.19109 0.85642,0.80114 1.31314,1.58128 0.92575,1.58128 -0.15064,0 -0.27389,-0.17441 -0.27389,-0.38757 z"
       id="path55782" />
    <path
       style="fill:#8b9137;stroke-width:1.23976"
       d="m 192.40702,254.58989 c -0.19944,-0.65167 -0.13732,-0.93451 0.17863,-0.81327 0.22319,0.0856 0.37078,-0.027 0.37078,-0.2829 0,-0.23385 0.10031,-0.42518 0.22292,-0.42518 0.1226,0 0.4448,-0.41202 0.716,-0.9156 0.27119,-0.50358 0.54338,-0.86529 0.60487,-0.80381 0.17197,0.17197 -1.56497,2.77774 -1.85157,2.77774 -0.13894,0 -0.17903,0.11906 -0.0891,0.26458 0.0899,0.14552 0.097,0.26459 0.0156,0.26459 -0.0813,0 -0.15702,-0.0298 -0.16815,-0.0661 z"
       id="path55778" />
    <path
       style="fill:#8b9137;stroke-width:1.23976"
       d="m 187.19746,254.98676 c -0.25231,-0.5457 -0.60757,-1.14952 -0.78947,-1.34181 -0.58488,-0.61831 -0.35207,-0.68871 0.28824,-0.0872 0.53593,0.50347 1.38483,2.42116 1.07178,2.42116 -0.0615,0 -0.31824,-0.44648 -0.57055,-0.99219 z"
       id="path55772" />
    <path
       style="fill:#8b9137;stroke-width:1.23976"
       d="m 189.6919,256.30968 c -0.1814,-0.29808 -0.22632,-7.61394 -0.0456,-7.43326 0.14065,0.14065 0.36005,7.6317 0.22352,7.6317 -0.0314,0 -0.11146,-0.0893 -0.17788,-0.19844 z"
       id="path55770" />
    <path
       style="fill:#8b9137;stroke-width:1.23976"
       d="m 189.25226,258.34459 c 0,-0.29963 -0.10658,-0.47891 -0.23686,-0.3984 -0.13027,0.0805 -0.30513,-0.0315 -0.38857,-0.24897 -0.0834,-0.21744 -0.0237,-0.39535 0.13288,-0.39535 0.15652,0 0.22879,-0.14883 0.1606,-0.33073 -0.0682,-0.1819 -0.0234,-0.56885 0.0996,-0.8599 0.19747,-0.46728 0.21639,-0.45181 0.16182,0.1323 -0.0438,0.46856 0.0539,0.63665 0.33508,0.57641 0.30891,-0.0662 0.32674,-0.0137 0.0805,0.23702 -0.18071,0.18396 -0.25163,0.64591 -0.16536,1.07723 0.0831,0.41534 0.0766,0.75517 -0.0143,0.75517 -0.091,0 -0.16537,-0.24515 -0.16537,-0.54478 z"
       id="path55768" />
    <path
       style="fill:#8b9137;stroke-width:1.23976"
       d="m 183.09688,264.02288 c -0.087,-0.087 -0.0899,-0.33593 -0.007,-0.5532 0.0889,-0.23177 -0.14446,-0.66955 -0.56472,-1.05924 -0.39397,-0.36531 -0.6496,-0.73091 -0.56805,-0.81246 0.13348,-0.13348 1.44397,1.20411 1.49381,1.52472 0.0113,0.0728 0.0605,0.34065 0.1092,0.59531 0.0873,0.45584 -0.15404,0.6145 -0.46367,0.30487 z"
       id="path55758" />
    <path
       style="fill:#8b9137;stroke-width:1.23976"
       d="m 194.17543,263.35796 c 0.26367,-2.5142 0.6018,-3.56209 0.50278,-1.55818 -0.0467,0.94589 -0.21401,2.01745 -0.37172,2.38125 -0.23279,0.53698 -0.25745,0.38209 -0.13106,-0.82307 z"
       id="path55755" />
    <path
       style="fill:#8b9137;stroke-width:1.23976"
       d="m 184.82049,263.99393 c -0.40666,-0.87565 -0.46238,-2.27811 -0.0661,-1.66498 0.1541,0.23847 0.25809,0.2711 0.26053,0.0818 0.002,-0.17331 -0.11501,-0.3887 -0.26053,-0.47863 -0.41691,-0.25767 -0.30841,-0.66167 0.13229,-0.49256 0.44729,0.17164 0.53625,1.03664 0.13229,1.28631 -0.14552,0.0899 -0.26276,0.36485 -0.26053,0.61092 0.003,0.37867 0.0419,0.38761 0.25019,0.0582 0.13538,-0.21407 0.34192,-0.28707 0.45897,-0.16222 0.11706,0.12485 0.0766,0.27594 -0.0898,0.33576 -0.16646,0.0598 -0.24187,0.34117 -0.16758,0.62523 0.19213,0.73471 -0.002,0.63524 -0.38968,-0.19979 z"
       id="path55754" />
    <path
       style="fill:#8b9137;stroke-width:1.23976"
       d="m 183.34339,265.46044 c -0.12649,-0.48371 -0.2135,-0.51978 -0.56003,-0.23219 -0.2775,0.23031 -0.41026,0.24439 -0.41026,0.0435 0,-0.16333 0.11532,-0.29698 0.25628,-0.29698 0.14095,0 0.18141,-0.20835 0.0899,-0.46302 -0.12843,-0.35746 -0.0103,-0.32088 0.51836,0.16046 0.37659,0.34291 0.62104,0.7894 0.54322,0.99219 -0.19163,0.49939 -0.26216,0.46651 -0.43749,-0.20397 z"
       id="path55753" />
    <path
       style="fill:#8b9137;stroke-width:1.23976"
       d="m 181.41783,265.87019 c -1.30784,-0.87955 -1.32345,-0.89553 -0.87477,-0.89478 0.20616,3.4e-4 0.79155,0.35725 1.30087,0.79312 1.14191,0.97725 0.94552,1.0241 -0.4261,0.10166 z"
       id="path55751" />
    <path
       style="fill:#8b9137;stroke-width:1.23976"
       d="m 194.23049,269.43443 c 0.1826,-0.23935 0.31373,-0.537 0.29139,-0.66146 -0.0928,-0.51693 0.0405,-0.88775 0.31903,-0.88775 0.20518,0 0.19517,0.12267 -0.0324,0.39688 -0.39186,0.47216 -0.1792,0.50683 0.61271,0.0999 0.60523,-0.31101 0.54321,-0.24115 -0.73699,0.8301 -0.43216,0.36162 -0.63634,0.46167 -0.45374,0.22233 z"
       id="path55746" />
    <path
       style="fill:#8b9137;stroke-width:1.23976"
       d="m 185.60318,269.13198 c -1.12584,-1.14715 -1.33038,-1.51134 -0.84883,-1.51134 0.14552,0 0.26458,0.15784 0.26458,0.35075 0,0.19292 0.31672,0.6394 0.70382,0.99219 0.55473,0.50555 0.66747,0.54044 0.5322,0.16467 -0.10851,-0.30144 -0.0688,-0.41322 0.10796,-0.30397 0.15378,0.095 0.22125,0.32484 0.14994,0.51067 -0.0713,0.18583 0.004,0.47144 0.16717,0.6347 0.16325,0.16325 0.23827,0.29682 0.16671,0.29682 -0.0716,0 -0.63116,-0.51052 -1.24355,-1.13449 z"
       id="path55744" />
    <path
       style="fill:#8b9137;stroke-width:1.23976"
       d="m 202.1507,270.80183 c 0.76163,-0.86733 0.36025,-1.0462 -1.16789,-0.52044 -0.82424,0.28358 -1.54882,0.46541 -1.61016,0.40406 -0.15619,-0.15619 1.00982,-0.75448 1.65107,-0.84719 0.29242,-0.0423 0.78314,-0.15141 1.09049,-0.24253 0.80601,-0.23894 0.99772,0.5069 0.28323,1.10186 -0.31761,0.26448 -0.42864,0.31138 -0.24674,0.10424 z"
       id="path55741" />
    <path
       style="fill:#8b9137;stroke-width:1.23976"
       d="m 183.04527,270.62116 c -0.57618,-0.20755 -1.10835,-0.4381 -1.18258,-0.51234 -0.2702,-0.2702 1.65801,0.18788 2.33149,0.55388 0.87671,0.47645 0.22355,0.45283 -1.14891,-0.0415 z"
       id="path55740" />
    <path
       style="fill:#8b9137;stroke-width:1.23976"
       d="m 195.76783,271.49256 c 0.63184,-0.46767 2.99807,-1.32565 3.17315,-1.15057 0.0912,0.0912 -1.30653,0.68343 -3.47101,1.47064 -0.14552,0.0529 -0.0115,-0.0911 0.29786,-0.32007 z"
       id="path55737" />
    <path
       style="fill:#8b9137;stroke-width:1.23976"
       d="m 188.05716,271.05157 c -0.22821,-0.44132 -0.50367,-0.74756 -0.61212,-0.68053 -0.10845,0.067 -0.2229,-0.1888 -0.25432,-0.5685 -0.0314,-0.3797 -0.23802,-0.96643 -0.45911,-1.30384 -0.22108,-0.33741 -0.30992,-0.61279 -0.19743,-0.61196 0.1125,8.4e-4 0.64793,0.89381 1.18985,1.98438 0.54192,1.09057 0.93193,1.98285 0.86669,1.98285 -0.0652,0 -0.30534,-0.36108 -0.53356,-0.8024 z"
       id="path55736" />
    <path
       style="fill:#8b9137;stroke-width:1.23976"
       d="m 189.46002,265.7841 c -0.072,-6.10945 -0.0513,-6.42443 0.44914,-6.8478 0.36602,-0.30963 0.43247,-0.32341 0.21983,-0.0456 -0.20852,0.27244 -0.31347,2.3984 -0.33229,6.73094 -0.0151,3.483 -0.0801,6.38531 -0.14436,6.44959 -0.0643,0.0643 -0.15082,-2.76495 -0.19232,-6.28716 z"
       id="path55735" />
    <path
       style="fill:#8b9137;stroke-width:1.23976"
       d="m 187.83241,273.74513 c -0.23773,-0.26269 -0.43041,-0.58731 -0.42818,-0.72137 0.002,-0.13406 0.11482,-0.0686 0.2502,0.14547 0.13538,0.21406 0.33346,0.30189 0.44017,0.19518 0.10672,-0.10672 -0.0654,-0.54493 -0.38249,-0.97381 -0.31708,-0.42888 -0.57289,-0.93343 -0.56847,-1.12123 0.004,-0.18779 0.14554,-0.10332 0.31359,0.18773 0.16805,0.29104 0.47133,0.69574 0.67396,0.89933 0.20263,0.2036 0.31227,0.58484 0.24366,0.84721 -0.0686,0.26238 0.006,0.52048 0.16486,0.57358 0.20339,0.0678 0.20556,0.14848 0.007,0.27103 -0.15529,0.096 -0.47685,-0.0404 -0.71458,-0.30312 z"
       id="path55731" />
    <path
       style="fill:#8b9137;stroke-width:1.23976"
       d="m 189.82697,274.95155 c -0.15611,-0.1881 -0.22612,-0.80736 -0.15557,-1.37613 0.17041,-1.3739 0.41798,-1.58504 0.29639,-0.25276 -0.0524,0.57467 0.007,1.25321 0.13303,1.50787 0.2686,0.54454 0.12888,0.60629 -0.27385,0.12102 z"
       id="path55730" />
    <path
       style="fill:#8b9137;stroke-width:1.23976"
       d="m 186.07978,274.43914 c -3.20516,-1.65086 -4.01298,-2.14998 -2.25148,-1.39107 0.58209,0.25077 1.41552,0.59071 1.85209,0.75541 0.43656,0.1647 0.85328,0.37275 0.92604,0.46234 0.0728,0.0896 0.65506,0.42799 1.294,0.75198 l 1.16171,0.58908 -0.15636,-0.61968 c -0.15201,-0.60242 -0.14542,-0.60503 0.23651,-0.0936 0.24219,0.32433 0.28725,0.56132 0.11748,0.61791 -0.15146,0.0505 -0.20809,0.20069 -0.12583,0.33378 0.0822,0.13309 0.11276,0.22347 0.0678,0.20085 -0.045,-0.0226 -1.44984,-0.74578 -3.12195,-1.60703 z"
       id="path55729" />
    <path
       style="fill:#906932;stroke-width:1.23976"
       d="m 194.71183,250.29041 0.17516,-0.79375 -0.58768,0.66146 -0.58769,0.66146 0.47995,-0.87133 c 0.43745,-0.79416 0.50024,-0.82585 0.70907,-0.35785 0.14188,0.31797 0.1162,0.70009 -0.0674,1.00361 -0.24672,0.40781 -0.26711,0.3568 -0.12137,-0.3036 z"
       id="path55161" />
    <path
       style="fill:#906932;stroke-width:1.23976"
       d="m 190.43534,248.70291 c -0.10303,-1.23693 -0.28858,-2.24896 -0.41232,-2.24896 -0.12374,0 -0.15338,-0.18659 -0.0659,-0.41466 0.32152,-0.83787 0.62025,0.10015 0.78899,2.47747 0.0951,1.33931 0.10618,2.43511 0.0247,2.43511 -0.0815,0 -0.23246,-1.01203 -0.3355,-2.24896 z"
       id="path55160" />
    <path
       style="fill:#906932;stroke-width:1.23976"
       d="m 187.1356,252.68097 c 0,-0.21316 -0.22412,-0.50751 -0.49804,-0.65411 -0.27392,-0.1466 -0.57819,-0.47541 -0.67615,-0.73069 -0.12993,-0.3386 0.0113,-0.28691 0.52233,0.19109 0.85642,0.80114 1.31314,1.58128 0.92575,1.58128 -0.15064,0 -0.27389,-0.17441 -0.27389,-0.38757 z"
       id="path55156" />
    <path
       style="fill:#906932;stroke-width:1.23976"
       d="m 192.40702,254.58989 c -0.19944,-0.65167 -0.13732,-0.93451 0.17863,-0.81327 0.22319,0.0856 0.37078,-0.027 0.37078,-0.2829 0,-0.23385 0.10031,-0.42518 0.22292,-0.42518 0.1226,0 0.4448,-0.41202 0.716,-0.9156 0.27119,-0.50358 0.54338,-0.86529 0.60487,-0.80381 0.17197,0.17197 -1.56497,2.77774 -1.85157,2.77774 -0.13894,0 -0.17903,0.11906 -0.0891,0.26458 0.0899,0.14552 0.097,0.26459 0.0156,0.26459 -0.0813,0 -0.15702,-0.0298 -0.16815,-0.0661 z"
       id="path55153" />
    <path
       style="fill:#906932;stroke-width:1.23976"
       d="m 187.19746,254.98677 c -0.25231,-0.5457 -0.60757,-1.14952 -0.78947,-1.34181 -0.58488,-0.61831 -0.35207,-0.68871 0.28824,-0.0872 0.53593,0.50347 1.38483,2.42116 1.07178,2.42116 -0.0615,0 -0.31824,-0.44648 -0.57055,-0.99219 z"
       id="path55147" />
    <path
       style="fill:#906932;stroke-width:1.23976"
       d="m 189.6919,256.30969 c -0.1814,-0.29808 -0.22632,-7.61394 -0.0456,-7.43326 0.14065,0.14065 0.36005,7.6317 0.22352,7.6317 -0.0314,0 -0.11146,-0.0893 -0.17788,-0.19844 z"
       id="path55146" />
    <path
       style="fill:#906932;stroke-width:1.23976"
       d="m 189.25226,258.34459 c 0,-0.29963 -0.10658,-0.47891 -0.23686,-0.3984 -0.13027,0.0805 -0.30513,-0.0315 -0.38857,-0.24897 -0.0834,-0.21744 -0.0237,-0.39535 0.13288,-0.39535 0.15652,0 0.22879,-0.14883 0.1606,-0.33073 -0.0682,-0.1819 -0.0234,-0.56885 0.0996,-0.8599 0.19747,-0.46728 0.21639,-0.45181 0.16182,0.1323 -0.0438,0.46856 0.0539,0.63665 0.33508,0.57641 0.30891,-0.0662 0.32674,-0.0137 0.0805,0.23702 -0.18071,0.18396 -0.25163,0.64591 -0.16536,1.07723 0.0831,0.41534 0.0766,0.75517 -0.0143,0.75517 -0.091,0 -0.16537,-0.24515 -0.16537,-0.54478 z"
       id="path55141" />
    <path
       style="fill:#906932;stroke-width:1.23976"
       d="m 183.09688,264.02283 c -0.087,-0.087 -0.0899,-0.33593 -0.007,-0.5532 0.0889,-0.23177 -0.14446,-0.66955 -0.56472,-1.05924 -0.39397,-0.36531 -0.6496,-0.73091 -0.56805,-0.81246 0.13348,-0.13348 1.44397,1.20411 1.49381,1.52472 0.0113,0.0728 0.0605,0.34065 0.1092,0.59531 0.0873,0.45584 -0.15404,0.6145 -0.46367,0.30487 z"
       id="path55122" />
    <path
       style="fill:#906932;stroke-width:1.23976"
       d="m 194.17543,263.35794 c 0.26367,-2.5142 0.6018,-3.56209 0.50278,-1.55818 -0.0467,0.94589 -0.21401,2.01745 -0.37172,2.38125 -0.23279,0.53698 -0.25745,0.38209 -0.13106,-0.82307 z"
       id="path55118" />
    <path
       style="fill:#906932;stroke-width:1.23976"
       d="m 184.82049,263.99391 c -0.40666,-0.87565 -0.46238,-2.27811 -0.0661,-1.66498 0.1541,0.23847 0.25809,0.2711 0.26053,0.0818 0.002,-0.17331 -0.11501,-0.3887 -0.26053,-0.47863 -0.41691,-0.25767 -0.30841,-0.66167 0.13229,-0.49256 0.44729,0.17164 0.53625,1.03664 0.13229,1.28631 -0.14552,0.0899 -0.26276,0.36485 -0.26053,0.61092 0.003,0.37867 0.0419,0.38761 0.25019,0.0582 0.13538,-0.21407 0.34192,-0.28707 0.45897,-0.16222 0.11706,0.12485 0.0766,0.27594 -0.0898,0.33576 -0.16646,0.0598 -0.24187,0.34117 -0.16758,0.62523 0.19213,0.73471 -0.002,0.63524 -0.38968,-0.19979 z"
       id="path55117" />
    <path
       style="fill:#906932;stroke-width:1.23976"
       d="m 183.34339,265.46044 c -0.12649,-0.48371 -0.2135,-0.51978 -0.56003,-0.23219 -0.2775,0.23031 -0.41026,0.24439 -0.41026,0.0435 0,-0.16333 0.11532,-0.29698 0.25628,-0.29698 0.14095,0 0.18141,-0.20835 0.0899,-0.46302 -0.12843,-0.35746 -0.0103,-0.32088 0.51836,0.16046 0.37659,0.34291 0.62104,0.7894 0.54322,0.99219 -0.19163,0.49939 -0.26216,0.46651 -0.43749,-0.20397 z"
       id="path55111" />
    <path
       style="fill:#906932;stroke-width:1.23976"
       d="m 181.41783,265.87019 c -1.30784,-0.87955 -1.32345,-0.89553 -0.87477,-0.89478 0.20616,3.4e-4 0.79155,0.35725 1.30087,0.79312 1.14191,0.97725 0.94552,1.0241 -0.4261,0.10166 z"
       id="path55108" />
    <path
       style="fill:#906932;stroke-width:1.23976"
       d="m 194.23049,269.43441 c 0.1826,-0.23935 0.31373,-0.537 0.29139,-0.66146 -0.0928,-0.51693 0.0405,-0.88775 0.31903,-0.88775 0.20518,0 0.19517,0.12267 -0.0324,0.39688 -0.39186,0.47216 -0.1792,0.50683 0.61271,0.0999 0.60523,-0.31101 0.54321,-0.24115 -0.73699,0.8301 -0.43216,0.36162 -0.63634,0.46167 -0.45374,0.22233 z"
       id="path55097" />
    <path
       style="fill:#906932;stroke-width:1.23976"
       d="m 185.60318,269.13196 c -1.12584,-1.14715 -1.33038,-1.51134 -0.84883,-1.51134 0.14552,0 0.26458,0.15784 0.26458,0.35075 0,0.19292 0.31672,0.6394 0.70382,0.99219 0.55473,0.50555 0.66747,0.54044 0.5322,0.16467 -0.10851,-0.30144 -0.0688,-0.41322 0.10796,-0.30397 0.15378,0.095 0.22125,0.32484 0.14994,0.51067 -0.0713,0.18583 0.004,0.47144 0.16717,0.6347 0.16325,0.16325 0.23827,0.29682 0.16671,0.29682 -0.0716,0 -0.63116,-0.51052 -1.24355,-1.13449 z"
       id="path55093" />
    <path
       style="fill:#906932;stroke-width:1.23976"
       d="m 202.1507,270.80183 c 0.76163,-0.86733 0.36025,-1.0462 -1.16789,-0.52044 -0.82424,0.28358 -1.54882,0.46541 -1.61016,0.40406 -0.15619,-0.15619 1.00982,-0.75448 1.65107,-0.84719 0.29242,-0.0423 0.78314,-0.15141 1.09049,-0.24253 0.80601,-0.23894 0.99772,0.5069 0.28323,1.10186 -0.31761,0.26448 -0.42864,0.31138 -0.24674,0.10424 z"
       id="path55090" />
    <path
       style="fill:#906932;stroke-width:1.23976"
       d="m 183.04527,270.62116 c -0.57618,-0.20755 -1.10835,-0.4381 -1.18258,-0.51234 -0.2702,-0.2702 1.65801,0.18788 2.33149,0.55388 0.87671,0.47645 0.22355,0.45283 -1.14891,-0.0415 z"
       id="path55089" />
    <path
       style="fill:#906932;stroke-width:1.23976"
       d="m 195.76783,271.49256 c 0.63184,-0.46767 2.99807,-1.32565 3.17315,-1.15057 0.0912,0.0912 -1.30653,0.68343 -3.47101,1.47064 -0.14552,0.0529 -0.0115,-0.0911 0.29786,-0.32007 z"
       id="path55084" />
    <path
       style="fill:#906932;stroke-width:1.23976"
       d="m 188.05716,271.05157 c -0.22821,-0.44132 -0.50367,-0.74756 -0.61212,-0.68053 -0.10845,0.067 -0.2229,-0.1888 -0.25432,-0.5685 -0.0314,-0.3797 -0.23802,-0.96643 -0.45911,-1.30384 -0.22108,-0.33741 -0.30992,-0.61279 -0.19743,-0.61196 0.1125,8.4e-4 0.64793,0.89381 1.18985,1.98438 0.54192,1.09057 0.93193,1.98285 0.86669,1.98285 -0.0652,0 -0.30534,-0.36108 -0.53356,-0.8024 z"
       id="path55083" />
    <path
       style="fill:#906932;stroke-width:1.23976"
       d="m 189.46002,265.7841 c -0.072,-6.10945 -0.0513,-6.42443 0.44914,-6.8478 0.36602,-0.30963 0.43247,-0.32341 0.21983,-0.0456 -0.20852,0.27244 -0.31347,2.3984 -0.33229,6.73094 -0.0151,3.483 -0.0801,6.38531 -0.14436,6.44959 -0.0643,0.0643 -0.15082,-2.76495 -0.19232,-6.28716 z"
       id="path55082" />
    <path
       style="fill:#906932;stroke-width:1.23976"
       d="m 187.83241,273.74511 c -0.23773,-0.26269 -0.43041,-0.58731 -0.42818,-0.72137 0.002,-0.13406 0.11482,-0.0686 0.2502,0.14547 0.13538,0.21406 0.33346,0.30189 0.44017,0.19518 0.10672,-0.10672 -0.0654,-0.54493 -0.38249,-0.97381 -0.31708,-0.42888 -0.57289,-0.93343 -0.56847,-1.12123 0.004,-0.18779 0.14554,-0.10332 0.31359,0.18773 0.16805,0.29104 0.47133,0.69574 0.67396,0.89933 0.20263,0.2036 0.31227,0.58484 0.24366,0.84721 -0.0686,0.26238 0.006,0.52048 0.16486,0.57358 0.20339,0.0678 0.20556,0.14848 0.007,0.27103 -0.15529,0.096 -0.47685,-0.0404 -0.71458,-0.30312 z"
       id="path55070" />
    <path
       style="fill:#906932;stroke-width:1.23976"
       d="m 189.82697,274.95153 c -0.15611,-0.1881 -0.22612,-0.80736 -0.15557,-1.37613 0.17041,-1.3739 0.41798,-1.58504 0.29639,-0.25276 -0.0524,0.57467 0.007,1.25321 0.13303,1.50787 0.2686,0.54454 0.12888,0.60629 -0.27385,0.12102 z"
       id="path55067" />
    <path
       style="fill:#906932;stroke-width:1.23976"
       d="m 186.07978,274.43912 c -3.20516,-1.65086 -4.01298,-2.14998 -2.25148,-1.39107 0.58209,0.25077 1.41552,0.59071 1.85209,0.75541 0.43656,0.1647 0.85328,0.37275 0.92604,0.46234 0.0728,0.0896 0.65506,0.42799 1.294,0.75198 l 1.16171,0.58908 -0.15636,-0.61968 c -0.15201,-0.60242 -0.14542,-0.60503 0.23651,-0.0936 0.24219,0.32433 0.28725,0.56132 0.11748,0.61791 -0.15146,0.0505 -0.20809,0.20069 -0.12583,0.33378 0.0822,0.13309 0.11276,0.22347 0.0678,0.20085 -0.045,-0.0226 -1.44984,-0.74578 -3.12195,-1.60703 z"
       id="path55064" />
  </g>
</svg>
