<?xml version="1.0" encoding="UTF-8" standalone="no"?>
<!-- Created with Inkscape (http://www.inkscape.org/) -->

<svg
   width="185"
   height="185"
   viewBox="0 0 48.947914 48.947918"
   version="1.1"
   id="svg1"
   sodipodi:docname="bellis-perennis-1.svg"
   inkscape:version="1.4 (e7c3feb100, 2024-10-09)"
   xmlns:inkscape="http://www.inkscape.org/namespaces/inkscape"
   xmlns:sodipodi="http://sodipodi.sourceforge.net/DTD/sodipodi-0.dtd"
   xmlns="http://www.w3.org/2000/svg"
   xmlns:svg="http://www.w3.org/2000/svg">
  <sodipodi:namedview
     id="namedview1"
     pagecolor="#ffffff"
     bordercolor="#666666"
     borderopacity="1.0"
     inkscape:showpageshadow="2"
     inkscape:pageopacity="0.0"
     inkscape:pagecheckerboard="true"
     inkscape:deskcolor="#d1d1d1"
     showgrid="false"
     inkscape:zoom="1.211637"
     inkscape:cx="79.644314"
     inkscape:cy="150.21"
     inkscape:current-layer="svg1" />
  <defs
     id="defs1" />
  <g
     id="g16293"
     transform="matrix(0.61361863,0,0,0.61361863,13.794035,-2.5849337)"
     style="stroke-width:1.62968">
    <path
       style="fill:#faf9eb;stroke-width:1.62968"
       d="M -0.36606301,83.562286 C -6.124927,82.82266 -9.154451,81.364276 -8.7506984,79.526002 c 0.1403252,-0.638896 0.5119245,-0.96514 1.9750651,-1.733998 2.1517229,-1.130699 4.8304447,-1.739995 8.005175,-1.820841 1.282198,-0.03265 2.3314745,-0.08742 2.3317255,-0.121712 2.509e-4,-0.03429 -0.4162625,-0.847851 -0.9255853,-1.807912 -1.76413071,-3.325344 -0.9727047,-4.347451 3.3662687,-4.347451 2.3661453,0 5.5634374,0.909024 6.9722784,1.982292 0.447452,0.340873 0.923701,0.540321 1.058333,0.443218 0.134632,-0.0971 0.598456,-0.890926 1.030719,-1.764051 1.038637,-2.097933 3.060873,-4.046638 5.504985,-5.304816 1.742453,-0.896979 2.071193,-0.985194 2.664315,-0.71495 1.226449,0.558808 1.618828,1.736697 1.616744,4.853321 l -0.0019,2.802305 1.294458,-0.76324 c 1.740774,-1.026397 3.841759,-1.537164 6.24884,-1.519145 2.373439,0.01777 3.723535,0.425848 4.132754,1.24917 0.482828,0.971417 0.132726,1.857414 -1.379309,3.490593 -0.780984,0.843556 -1.419875,1.577356 -1.419758,1.630666 1.17e-4,0.05331 0.565663,0.129032 1.25677,0.16827 3.260466,0.185114 7.488083,1.74856 8.370722,3.095638 1.293517,1.974156 -1.207192,3.417018 -7.361925,4.247694 -4.777578,0.644807 -8.110862,0.519097 -15.4288,-0.581878 -2.796332,-0.420705 -3.156793,-0.420705 -5.953125,0 -7.1552832,1.076503 -10.0627193,1.183897 -14.97414001,0.553111 z"
       id="path16291" />
    <path
       style="fill:#edebd6;stroke-width:1.62968"
       d="M -0.01015134,83.548103 C -1.7564012,83.341151 -3.9977214,82.917918 -4.9908627,82.607584 -7.0616623,81.960508 -8.8736925,80.765475 -8.8736925,80.04686 c 0,-1.984392 5.0137286,-3.949462 10.3848952,-4.070233 1.1277864,-0.02536 2.0505208,-0.12462 2.0505208,-0.220581 0,-0.09596 -0.3039988,-0.718387 -0.6755527,-1.38317 -1.91627266,-3.428584 -1.1518192,-4.673444 2.8722807,-4.677312 2.2561532,-0.0022 4.9558845,0.699204 6.6741815,1.733908 0.831573,0.500747 1.549596,0.91045 1.595608,0.91045 0.04601,0 0.466144,-0.776944 0.933629,-1.726541 1.484119,-3.014672 6.130502,-6.642026 8.040318,-6.276941 1.42241,0.271911 2.027238,2.268505 1.742339,5.751632 -0.08962,1.095657 -0.100146,1.960395 -0.02339,1.921639 0.07675,-0.03876 0.858675,-0.445651 1.737609,-0.904211 1.993439,-1.040022 4.359852,-1.520033 6.67648,-1.35428 2.3717,0.169695 3.499416,0.752017 3.499416,1.807004 0,0.970575 -0.937966,2.505556 -2.217587,3.629077 -0.526577,0.462341 -0.957412,0.903789 -0.957412,0.980995 0,0.07721 0.625078,0.142135 1.389062,0.144286 3.386568,0.0095 7.769728,1.762648 8.685581,3.473934 0.213957,0.399783 0.181137,0.679891 -0.136456,1.1646 -0.83927,1.280887 -3.112071,2.060011 -7.681329,2.633186 -4.885986,0.612905 -6.963576,0.522367 -15.693411,-0.683893 -2.124747,-0.29359 -2.91054,-0.279526 -5.820833,0.104185 -8.5558149,1.128051 -9.1033725,1.148991 -14.21240434,0.543509 z"
       id="path16241" />
    <path
       style="fill:#d3d5b1;stroke-width:1.62968"
       d="m 1.9742236,83.685398 c -3.9224896,-0.314236 -6.7441046,-0.917226 -8.6821548,-1.855411 -2.7943943,-1.352731 -2.7807201,-2.676513 0.041912,-4.057498 2.1630144,-1.058264 3.9578985,-1.45738 7.38347159,-1.641809 1.70986971,-0.09206 3.10885401,-0.200821 3.10885401,-0.241696 0,-0.04087 -0.3711103,-0.67131 -0.8246897,-1.400966 -0.4663007,-0.750122 -0.882381,-1.838489 -0.9574442,-2.504447 -0.1204996,-1.069069 -0.063707,-1.223005 0.6151984,-1.667495 0.5930261,-0.388263 1.2434832,-0.487155 3.140257,-0.477427 2.8304913,0.01452 4.9270731,0.572588 6.9053591,1.838082 l 1.381395,0.883667 0.956057,-1.93445 c 1.159831,-2.346759 3.25355,-4.394665 5.719828,-5.594672 2.080323,-1.012215 2.867202,-0.862795 3.561208,0.676235 0.360476,0.799394 0.437157,1.575615 0.364559,3.690335 -0.05056,1.472904 -0.0791,2.677892 -0.0634,2.67775 0.01569,-1.42e-4 0.800963,-0.402875 1.745042,-0.894962 4.035482,-2.103437 10.26789,-1.829652 10.263975,0.450887 -0.0014,0.792652 -0.912991,2.238007 -2.144292,3.399691 -0.566345,0.534325 -1.029718,1.040341 -1.029718,1.124479 0,0.08414 0.576266,0.15298 1.280593,0.15298 2.793272,0 7.363481,1.646525 8.468111,3.050835 0.759106,0.965046 0.415847,1.68571 -1.230529,2.58347 -1.627871,0.887669 -3.880802,1.388176 -8.066905,1.792127 -3.452749,0.333184 -7.767232,0.07273 -13.195424,-0.79657 -2.70659,-0.433448 -3.230412,-0.444309 -5.379804,-0.111549 -2.38863,0.369798 -9.8227698,1.171197 -10.3187493,1.112359 -0.1455208,-0.01726 -1.5147395,-0.131538 -3.0427081,-0.253945 z"
       id="path16070" />
    <path
       style="fill:#b5c69d;stroke-width:1.62968"
       d="m 27.771097,83.697016 c -1.891771,-0.112547 -4.933359,-0.448171 -6.759086,-0.74583 l -3.319504,-0.541198 -3.295079,0.52896 c -8.937204,1.434691 -18.634121,0.705269 -22.1230825,-1.664142 -2.1508064,-1.460648 -1.0807761,-2.870178 3.2936146,-4.338612 1.501369,-0.503993 2.762329,-0.700339 5.25365617,-0.818054 C 3.7993804,75.977441 4.0651801,75.924527 3.7225001,75.540648 2.9528368,74.67845 1.9742236,72.497914 1.9742236,71.645156 c 0,-1.392298 0.8854045,-1.809084 3.8156446,-1.796134 2.8182684,0.01246 4.6830558,0.502317 6.8214248,1.791921 l 1.508945,0.910012 0.788956,-1.68596 c 0.433926,-0.927278 1.35836,-2.294699 2.054298,-3.038713 1.400617,-1.497373 4.593661,-3.414924 5.695477,-3.420362 1.546835,-0.0076 2.172083,1.618639 2.025493,5.268319 l -0.103249,2.570586 1.594942,-0.90572 c 2.252115,-1.27891 4.988824,-1.808678 7.494554,-1.450784 3.707335,0.529519 3.915187,1.987734 0.736424,5.166496 l -1.253854,1.253854 1.013076,0.002 c 2.960278,0.0058 7.101007,1.286816 8.557442,2.64733 2.551449,2.383411 -1.218262,4.155513 -10.322492,4.852498 -0.654843,0.05013 -2.738437,-9.35e-4 -4.630208,-0.113483 z"
       id="path16032" />
    <path
       style="fill:#a4b889;stroke-width:1.62968"
       d="M -0.53931798,83.428936 C -3.6932873,83.046509 -6.8810673,82.00084 -7.989402,80.985127 c -0.8553283,-0.78385 -0.9031222,-0.906059 -0.607816,-1.554186 0.3890281,-0.853823 2.7140721,-2.146568 4.9044518,-2.726918 0.8612716,-0.228197 2.96026424,-0.487978 4.66442816,-0.577291 L 4.0701418,75.964346 3.5858998,75.276613 C 2.6804607,73.990685 1.9742236,72.363296 1.9742236,71.562811 c 0,-1.270523 0.8374501,-1.637394 3.7498702,-1.642744 2.8522254,-0.0052 5.1567362,0.601655 7.1947422,1.894743 0.708026,0.449234 1.311979,0.780927 1.342118,0.737096 0.03014,-0.04383 0.265669,-0.648657 0.5234,-1.344058 0.881179,-2.377563 3.251639,-4.77284 6.193828,-6.25867 1.435389,-0.724883 2.351059,-0.624997 3.062582,0.334083 0.489575,0.659909 0.555333,1.114195 0.555333,3.836458 v 3.087911 l 1.852084,-0.967274 c 4.036253,-2.107985 10.191858,-1.858388 10.184714,0.412969 -0.0027,0.860814 -1.503685,2.88512 -3.0105,4.060136 l -0.763286,0.59521 h 1.203032 c 1.984434,0 5.013534,0.697656 6.900928,1.589406 4.060605,1.918544 3.090798,3.953759 -2.482601,5.209929 -3.20603,0.722597 -12.562051,0.654777 -17.191662,-0.124619 l -3.571875,-0.601326 -3.439583,0.545992 c -3.989062,0.633215 -11.6026185,0.890594 -14.81666598,0.500883 z"
       id="path16000" />
    <path
       style="fill:#fbb310;stroke-width:1.62968"
       d="m -0.8039013,83.352593 c -4.2456272,-0.615396 -7.0819013,-1.723661 -7.7880805,-3.043169 -0.4074825,-0.761388 0.5778139,-1.828003 2.4804065,-2.685119 2.0775611,-0.935939 3.845612,-1.297355 7.3188449,-1.496079 L 4.0301652,75.966712 3.2739156,74.77423 C 1.8300638,72.497512 1.6494794,70.821855 2.7826159,70.215419 c 0.2956584,-0.158232 1.6337057,-0.288085 2.9734382,-0.288563 2.8239131,-0.001 5.1533109,0.612971 7.1627819,1.887954 0.708026,0.449234 1.311979,0.780927 1.342118,0.737096 0.03014,-0.04383 0.253708,-0.615474 0.496821,-1.270318 0.973945,-2.623403 4.425181,-5.856372 7.110662,-6.660962 1.266461,-0.379441 1.732288,-0.162426 2.413824,1.124527 0.398467,0.752431 0.462884,1.378739 0.379567,3.690446 l -0.100346,2.784219 1.87485,-0.982424 c 1.421604,-0.744922 2.40167,-1.048482 4.054029,-1.25567 3.269014,-0.4099 6.144277,0.296028 6.144277,1.508529 0,0.995662 -1.745063,3.365855 -3.175403,4.312921 -0.614342,0.406771 -0.565317,0.426367 1.496927,0.598352 2.563685,0.213803 4.477237,0.746787 6.472172,1.802699 2.567156,1.358788 2.711954,2.663964 0.418029,3.768017 -2.50778,1.20698 -5.310033,1.611587 -11.164849,1.612051 -4.205316,3.33e-4 -6.088514,-0.123738 -9.17315,-0.60436 l -3.881483,-0.60478 -3.659142,0.553136 C 9.35006,83.626322 2.4516197,83.824475 -0.8039013,83.352593 Z"
       id="path15967" />
    <path
       style="fill:#94a467;stroke-width:1.62968"
       d="m -0.8039013,83.352593 c -4.2456272,-0.615396 -7.0819013,-1.723661 -7.7880805,-3.043169 -0.4074825,-0.761388 0.5778139,-1.828003 2.4804065,-2.685119 2.0775611,-0.935939 3.845612,-1.297355 7.3188449,-1.496079 L 4.0301652,75.966712 3.2739156,74.77423 C 1.8300638,72.497512 1.6494794,70.821855 2.7826159,70.215419 c 0.2956584,-0.158232 1.6337057,-0.288085 2.9734382,-0.288563 2.8239131,-0.001 5.1533109,0.612971 7.1627819,1.887954 0.708026,0.449234 1.311979,0.780927 1.342118,0.737096 0.03014,-0.04383 0.253708,-0.615474 0.496821,-1.270318 0.973945,-2.623403 4.425181,-5.856372 7.110662,-6.660962 1.266461,-0.379441 1.732288,-0.162426 2.413824,1.124527 0.398467,0.752431 0.462884,1.378739 0.379567,3.690446 l -0.100346,2.784219 1.87485,-0.982424 c 1.421604,-0.744922 2.40167,-1.048482 4.054029,-1.25567 3.269014,-0.4099 6.144277,0.296028 6.144277,1.508529 0,0.995662 -1.745063,3.365855 -3.175403,4.312921 -0.614342,0.406771 -0.565317,0.426367 1.496927,0.598352 2.563685,0.213803 4.477237,0.746787 6.472172,1.802699 2.567156,1.358788 2.711954,2.663964 0.418029,3.768017 -2.50778,1.20698 -5.310033,1.611587 -11.164849,1.612051 -4.205316,3.33e-4 -6.088514,-0.123738 -9.17315,-0.60436 l -3.881483,-0.60478 -3.659142,0.553136 C 9.35006,83.626322 2.4516197,83.824475 -0.8039013,83.352593 Z"
       id="path15937" />
    <path
       style="fill:#6d9747;stroke-width:1.62968"
       d="M 0.25443198,83.44515 C -6.7191214,82.659395 -10.281314,80.502836 -7.7492134,78.599726 -5.6898623,77.05193 -2.6271957,76.280461 1.7073742,76.217661 L 4.5566985,76.17638 3.9382556,75.556324 c -0.7697252,-0.771733 -1.964032,-3.130657 -1.964032,-3.87924 0,-0.307417 0.1693652,-0.790055 0.3763671,-1.07253 0.3384851,-0.461897 0.7046589,-0.512019 3.6380207,-0.497973 3.5403286,0.01695 5.2212916,0.451792 7.0975006,1.836014 0.493442,0.364051 0.96918,0.66191 1.057196,0.66191 0.08802,0 0.319246,-0.446484 0.513846,-0.992188 0.852197,-2.389756 2.891773,-4.659882 5.612105,-6.246486 2.333961,-1.361257 3.610701,-1.064326 4.180938,0.97236 0.334018,1.192997 0.24328,4.874079 -0.144345,5.855819 -0.189586,0.480163 -0.146666,0.475036 0.625367,-0.0747 1.982149,-1.411414 3.761697,-1.982702 6.564342,-2.107348 3.050149,-0.135655 4.493893,0.196346 4.919921,1.131376 0.40041,0.878804 -0.338977,2.251062 -2.06079,3.824702 -0.783321,0.715911 -1.42422,1.356584 -1.42422,1.423718 0,0.06713 0.786579,0.126599 1.747954,0.132145 3.938349,0.02272 8.835379,2.12309 8.835379,3.789554 0,1.081519 -2.440761,2.247972 -6.085417,2.908253 -2.433882,0.440932 -11.234617,0.443462 -13.890624,0.004 C 18.122561,82.329692 17.797936,82.318487 13.826885,82.890496 9.3816508,83.530809 3.2415752,83.78173 0.25443198,83.44515 Z"
       id="path15924" />
    <path
       style="fill:#937731;stroke-width:1.62968"
       d="M 0.65130696,83.421423 C -5.2900048,82.758695 -9.006058,81.15116 -8.4737469,79.473996 c 0.3104133,-0.978025 3.0082731,-2.3038 5.8453021,-2.872481 1.69042017,-0.338844 7.0844804,-0.428149 7.5576444,-0.125126 0.3839097,0.245863 2.5713361,0.872444 2.9981486,0.85881 C 8.3954334,77.320246 6.359966,76.614247 5.7886181,76.593384 4.9850001,76.564038 3.417099,75.04983 2.6448614,73.557285 1.2391001,70.840295 1.9967592,69.956488 5.7271418,69.961812 c 3.0545179,0.0044 5.6465792,0.763139 7.6096092,2.227576 l 0.911487,0.679977 0.445651,-1.174024 c 0.685544,-1.805999 1.448831,-2.892633 3.110884,-4.428732 1.845161,-1.70533 4.097754,-2.875799 5.148114,-2.67501 1.26668,0.242141 1.65188,1.359731 1.573387,4.564912 -0.06681,2.7282 -0.0809,2.783719 -0.939782,3.704166 -0.726721,0.77881 -1.887349,2.210218 -3.171168,3.911015 -0.137305,0.181901 -0.188146,0.330729 -0.11298,0.330729 0.07516,0 0.806441,-0.874453 1.625058,-1.943229 2.62682,-3.429546 5.378405,-4.929851 9.41557,-5.13385 3.018814,-0.152541 4.657785,0.207774 5.071071,1.114837 0.416339,0.913765 -0.590634,2.566908 -2.602709,4.272858 -1.115715,0.945965 -1.513653,1.429952 -1.256771,1.528527 0.20675,0.07934 0.375909,0.02892 0.375909,-0.11203 0,-0.397456 3.412528,-0.302134 5.169932,0.144412 2.069614,0.525876 4.307408,1.675043 4.951702,2.54283 1.303712,1.755946 -1.319072,3.095734 -7.466118,3.813893 -3.220965,0.376304 -8.863906,0.300702 -11.915932,-0.159646 -5.543759,-0.836184 -6.183599,-0.865342 -9.154294,-0.417168 -2.601058,0.392409 -9.0660736,0.915087 -11.0863302,0.896298 -0.4365625,-0.0041 -1.6867187,-0.106989 -2.77812484,-0.22873 z M 17.055473,81.864921 c 0.378338,-0.121165 0.477141,-0.223124 0.230834,-0.23821 -0.236843,-0.0145 -0.586907,-0.214683 -0.777919,-0.444839 -0.341542,-0.411532 -3.20987,-1.966702 -3.612557,-1.958681 -0.113291,0.0023 0.618948,0.452986 1.627196,1.001622 1.994862,1.085497 2.368042,1.535439 1.423215,1.715968 -0.48331,0.09235 -0.500274,0.118673 -0.08139,0.126318 0.291041,0.0053 0.826823,-0.08567 1.190625,-0.202178 z m 2.84427,0.0822 c -0.254661,-0.06655 -0.67138,-0.06655 -0.926041,0 -0.254662,0.06655 -0.0463,0.121 0.463021,0.121 0.509323,0 0.717682,-0.05445 0.46302,-0.121 z m 2.070356,-1.87035 c -0.119694,-0.119694 -2.268793,0.949394 -2.268793,1.128631 0,0.06791 0.533169,-0.135558 1.18482,-0.452154 0.651651,-0.316597 1.139439,-0.621011 1.083973,-0.676477 z m 1.96454,-0.637737 c 0.275825,-0.170421 0.195125,-0.191247 -0.264583,-0.06828 -0.363802,0.09731 -0.840052,0.287275 -1.058334,0.422142 -0.275824,0.17042 -0.195124,0.191247 0.264584,0.06828 0.363802,-0.09731 0.840052,-0.287276 1.058333,-0.422142 z m -4.249545,-1.145987 c 0.544791,-0.964745 0.549056,-0.999841 0.04823,-0.396875 -0.302178,0.363802 -0.552062,0.765334 -0.555297,0.892293 -0.0032,0.126959 -0.168166,0.09615 -0.366511,-0.06846 -0.292417,-0.242685 -0.335957,-0.170242 -0.230196,0.383009 0.146891,0.768414 0.258869,0.686243 1.103778,-0.809967 z M -7.0292717,78.96484 c 0.2140669,-0.13538 0.3244377,-0.31092 0.2452685,-0.390089 -0.079169,-0.07917 -0.3733774,0.02963 -0.6537959,0.241782 -0.5578405,0.422032 -0.2188727,0.545087 0.4085274,0.148307 z M 26.448181,78.527646 c 0.63749,-0.290284 0.663533,-0.329492 0.132291,-0.199163 -0.363802,0.08925 -1.018646,0.324922 -1.455208,0.523713 -0.63749,0.290284 -0.663534,0.329492 -0.132292,0.199163 0.363802,-0.08925 1.018646,-0.324922 1.455209,-0.523713 z m -14.948958,0.02998 c -0.363802,-0.207969 -0.780521,-0.378124 -0.926042,-0.378124 -0.14552,0 0.03307,0.170155 0.396875,0.378124 0.363802,0.207968 0.780521,0.378123 0.926042,0.378123 0.145521,0 -0.03307,-0.170155 -0.396875,-0.378123 z m 18.611789,-0.946805 c 0.559348,-0.155317 0.971941,-0.327451 0.916871,-0.38252 -0.05507,-0.05507 -0.691312,0.06203 -1.413872,0.260212 -0.722561,0.198185 -1.135153,0.37032 -0.916872,0.38252 0.218281,0.0122 0.854524,-0.104894 1.413873,-0.260212 z m 5.403886,-0.697455 c -0.397576,-0.06037 -1.111951,-0.06159 -1.5875,-0.0027 -0.475549,0.05889 -0.150259,0.108281 0.722866,0.109766 0.873124,0.0015 1.26221,-0.04669 0.864634,-0.107066 z M 16.077314,70.417377 c -0.18026,-0.313076 -0.529596,0.0015 -0.692217,0.623387 -0.142691,0.54565 -0.133532,0.547594 0.331103,0.07027 0.26282,-0.269996 0.425321,-0.582142 0.361114,-0.693657 z m 8.232658,-2.773809 c -0.248802,-1.388314 -0.822044,-2.711979 -1.174481,-2.711979 -0.175133,0 -0.134075,0.162907 0.100069,0.397052 0.218379,0.218379 0.532981,1.051816 0.699116,1.852083 0.337377,1.625137 0.653451,2.014943 0.375296,0.462844 z m -2.055543,-2.6283 c -0.164534,-0.164535 -1.759373,0.498713 -1.759373,0.731673 0,0.128931 0.415224,0.03641 0.922719,-0.205594 0.507496,-0.242008 0.88399,-0.478744 0.836654,-0.526079 z"
       id="path15911" />
    <path
       style="fill:#63913a;stroke-width:1.62968"
       d="M 0.65130696,83.421423 C -5.2900048,82.758695 -9.006058,81.15116 -8.4737469,79.473996 c 0.3104133,-0.978025 3.0082731,-2.3038 5.8453021,-2.872481 1.69042017,-0.338844 7.0844804,-0.428149 7.5576444,-0.125126 0.3839097,0.245863 2.5713361,0.872444 2.9981486,0.85881 C 8.3954334,77.320246 6.359966,76.614247 5.7886181,76.593384 4.9850001,76.564038 3.417099,75.04983 2.6448614,73.557285 1.2391001,70.840295 1.9967592,69.956488 5.7271418,69.961812 c 3.0545179,0.0044 5.6465792,0.763139 7.6096092,2.227576 l 0.911487,0.679977 0.445651,-1.174024 c 0.685544,-1.805999 1.448831,-2.892633 3.110884,-4.428732 1.845161,-1.70533 4.097754,-2.875799 5.148114,-2.67501 1.26668,0.242141 1.65188,1.359731 1.573387,4.564912 -0.06681,2.7282 -0.0809,2.783719 -0.939782,3.704166 -0.726721,0.77881 -1.887349,2.210218 -3.171168,3.911015 -0.137305,0.181901 -0.188146,0.330729 -0.11298,0.330729 0.07516,0 0.806441,-0.874453 1.625058,-1.943229 2.62682,-3.429546 5.378405,-4.929851 9.41557,-5.13385 3.018814,-0.152541 4.657785,0.207774 5.071071,1.114837 0.416339,0.913765 -0.590634,2.566908 -2.602709,4.272858 -1.115715,0.945965 -1.513653,1.429952 -1.256771,1.528527 0.20675,0.07934 0.375909,0.02892 0.375909,-0.11203 0,-0.397456 3.412528,-0.302134 5.169932,0.144412 2.069614,0.525876 4.307408,1.675043 4.951702,2.54283 1.303712,1.755946 -1.319072,3.095734 -7.466118,3.813893 -3.220965,0.376304 -8.863906,0.300702 -11.915932,-0.159646 -5.543759,-0.836184 -6.183599,-0.865342 -9.154294,-0.417168 -2.601058,0.392409 -9.0660736,0.915087 -11.0863302,0.896298 -0.4365625,-0.0041 -1.6867187,-0.106989 -2.77812484,-0.22873 z M 17.055473,81.864921 c 0.378338,-0.121165 0.477141,-0.223124 0.230834,-0.23821 -0.236843,-0.0145 -0.586907,-0.214683 -0.777919,-0.444839 -0.341542,-0.411532 -3.20987,-1.966702 -3.612557,-1.958681 -0.113291,0.0023 0.618948,0.452986 1.627196,1.001622 1.994862,1.085497 2.368042,1.535439 1.423215,1.715968 -0.48331,0.09235 -0.500274,0.118673 -0.08139,0.126318 0.291041,0.0053 0.826823,-0.08567 1.190625,-0.202178 z m 2.84427,0.0822 c -0.254661,-0.06655 -0.67138,-0.06655 -0.926041,0 -0.254662,0.06655 -0.0463,0.121 0.463021,0.121 0.509323,0 0.717682,-0.05445 0.46302,-0.121 z m 2.070356,-1.87035 c -0.119694,-0.119694 -2.268793,0.949394 -2.268793,1.128631 0,0.06791 0.533169,-0.135558 1.18482,-0.452154 0.651651,-0.316597 1.139439,-0.621011 1.083973,-0.676477 z m 1.96454,-0.637737 c 0.275825,-0.170421 0.195125,-0.191247 -0.264583,-0.06828 -0.363802,0.09731 -0.840052,0.287275 -1.058334,0.422142 -0.275824,0.17042 -0.195124,0.191247 0.264584,0.06828 0.363802,-0.09731 0.840052,-0.287276 1.058333,-0.422142 z m -4.249545,-1.145987 c 0.544791,-0.964745 0.549056,-0.999841 0.04823,-0.396875 -0.302178,0.363802 -0.552062,0.765334 -0.555297,0.892293 -0.0032,0.126959 -0.168166,0.09615 -0.366511,-0.06846 -0.292417,-0.242685 -0.335957,-0.170242 -0.230196,0.383009 0.146891,0.768414 0.258869,0.686243 1.103778,-0.809967 z M -7.0292717,78.96484 c 0.2140669,-0.13538 0.3244377,-0.31092 0.2452685,-0.390089 -0.079169,-0.07917 -0.3733774,0.02963 -0.6537959,0.241782 -0.5578405,0.422032 -0.2188727,0.545087 0.4085274,0.148307 z M 26.448181,78.527646 c 0.63749,-0.290284 0.663533,-0.329492 0.132291,-0.199163 -0.363802,0.08925 -1.018646,0.324922 -1.455208,0.523713 -0.63749,0.290284 -0.663534,0.329492 -0.132292,0.199163 0.363802,-0.08925 1.018646,-0.324922 1.455209,-0.523713 z m -14.948958,0.02998 c -0.363802,-0.207969 -0.780521,-0.378124 -0.926042,-0.378124 -0.14552,0 0.03307,0.170155 0.396875,0.378124 0.363802,0.207968 0.780521,0.378123 0.926042,0.378123 0.145521,0 -0.03307,-0.170155 -0.396875,-0.378123 z m 18.611789,-0.946805 c 0.559348,-0.155317 0.971941,-0.327451 0.916871,-0.38252 -0.05507,-0.05507 -0.691312,0.06203 -1.413872,0.260212 -0.722561,0.198185 -1.135153,0.37032 -0.916872,0.38252 0.218281,0.0122 0.854524,-0.104894 1.413873,-0.260212 z m 5.403886,-0.697455 c -0.397576,-0.06037 -1.111951,-0.06159 -1.5875,-0.0027 -0.475549,0.05889 -0.150259,0.108281 0.722866,0.109766 0.873124,0.0015 1.26221,-0.04669 0.864634,-0.107066 z M 16.077314,70.417377 c -0.18026,-0.313076 -0.529596,0.0015 -0.692217,0.623387 -0.142691,0.54565 -0.133532,0.547594 0.331103,0.07027 0.26282,-0.269996 0.425321,-0.582142 0.361114,-0.693657 z m 8.232658,-2.773809 c -0.248802,-1.388314 -0.822044,-2.711979 -1.174481,-2.711979 -0.175133,0 -0.134075,0.162907 0.100069,0.397052 0.218379,0.218379 0.532981,1.051816 0.699116,1.852083 0.337377,1.625137 0.653451,2.014943 0.375296,0.462844 z m -2.055543,-2.6283 c -0.164534,-0.164535 -1.759373,0.498713 -1.759373,0.731673 0,0.128931 0.415224,0.03641 0.922719,-0.205594 0.507496,-0.242008 0.88399,-0.478744 0.836654,-0.526079 z"
       id="path15898" />
    <path
       style="fill:#618e39;stroke-width:1.62968"
       d="m 18.99575,68.250111 c 0,-0.211934 0.175792,-0.452792 0.390647,-0.53524 0.558952,-0.214489 0.577556,-0.07325 0.06029,0.457709 -0.359339,0.368846 -0.450936,0.384595 -0.450936,0.07753 z"
       id="path15887" />
    <path
       style="fill:#618e39;stroke-width:1.62968"
       d="m 23.579312,72.401603 c 0.168372,-0.107139 0.425524,-0.611331 0.57145,-1.120427 l 0.265319,-0.925629 0.02386,0.806979 c 0.02393,0.809261 -0.369406,1.445504 -0.88895,1.437927 -0.169325,-0.0025 -0.158267,-0.08012 0.02832,-0.19885 z"
       id="path15886" />
    <path
       style="fill:#618e39;stroke-width:1.62968"
       d="M 8.1348309,78.081682 C 8.1662363,77.922521 7.5966191,77.63857 6.869015,77.450681 l -1.3229166,-0.341616 1.1562794,0.137182 c 0.6359537,0.07545 1.455606,0.294014 1.8214495,0.485699 0.6430379,0.336922 0.6466825,0.353353 0.1095365,0.493819 -0.3278394,0.08573 -0.5322239,0.02666 -0.4985329,-0.144083 z"
       id="path15880" />
    <path
       style="fill:#618e39;stroke-width:1.62968"
       d="m 18.708491,78.066601 c -0.435741,-0.956349 -0.416358,-1.088234 0.08609,-0.585783 0.228907,0.228907 0.377452,0.617363 0.330102,0.863236 -0.06462,0.335526 -0.168437,0.266314 -0.416195,-0.277453 z"
       id="path15877" />
    <path
       style="fill:#618e39;stroke-width:1.62968"
       d="m 8.3903691,79.573026 c -0.4283896,-0.172859 -0.4235666,-0.526282 0.00945,-0.692445 0.2030938,-0.07794 0.3401785,0.07059 0.3401785,0.368567 0,0.274509 -0.00425,0.489707 -0.00945,0.478218 -0.0052,-0.01149 -0.1582775,-0.08094 -0.3401785,-0.15434 z"
       id="path15873" />
    <path
       style="fill:#618e39;stroke-width:1.62968"
       d="m -1.2007763,79.73264 c 0,-0.154109 -0.1108355,-0.211699 -0.246301,-0.127976 -0.1354656,0.08372 -0.3058109,0.05593 -0.3785452,-0.06175 -0.072734,-0.117687 0.097633,-0.231292 0.3785927,-0.252456 0.2857164,-0.02152 0.51083684,0.129172 0.51083684,0.341951 0,0.209238 -0.0595313,0.380432 -0.13229164,0.380432 -0.07276,0 -0.1322917,-0.126089 -0.1322917,-0.280198 z"
       id="path15870" />
    <path
       style="fill:#618e39;stroke-width:1.62968"
       d="m 0.38672364,80.177526 c 0,-0.05494 0.17859374,-0.248114 0.39687498,-0.429272 0.32504268,-0.269761 0.39687498,-0.251681 0.39687498,0.0999 0,0.2361 -0.1785937,0.429272 -0.39687498,0.429272 -0.21828124,0 -0.39687498,-0.04495 -0.39687498,-0.0999 z"
       id="path15869" />
    <path
       style="fill:#618e39;stroke-width:1.62968"
       d="m 36.249062,80.295703 c -0.08372,-0.135465 -0.02928,-0.322286 0.120993,-0.415157 0.150268,-0.09287 0.205558,-0.278328 0.122866,-0.412126 -0.08269,-0.133799 0.02522,-0.175898 0.23981,-0.09355 0.214588,0.08235 0.461622,0.335947 0.548965,0.56356 0.131988,0.343955 0.09076,0.35737 -0.244126,0.07944 -0.367764,-0.305217 -0.516293,-0.193819 -0.434264,0.325702 0.04373,0.276972 -0.171453,0.247897 -0.354244,-0.04786 z"
       id="path15867" />
    <path
       style="fill:#618e39;stroke-width:1.62968"
       d="m 2.6246057,80.277421 c 0.074878,-0.363802 0.137768,-0.750755 0.139755,-0.859896 0.00199,-0.10914 0.2119722,-0.196614 0.4666336,-0.194386 0.3144825,0.0028 0.3611502,0.06881 0.1454716,0.205907 -0.1746521,0.111021 -0.4459013,0.49615 -0.6027759,0.855844 l -0.2852266,0.653989 z"
       id="path15863" />
    <path
       style="fill:#618e39;stroke-width:1.62968"
       d="m 41.010314,80.822851 c -0.08441,-0.136576 -0.392271,-0.202331 -0.68414,-0.146122 -0.294748,0.05676 -0.460587,-0.0112 -0.373029,-0.152871 0.0867,-0.140288 0.258307,-0.192853 0.381344,-0.116813 0.123037,0.07604 0.264029,0.01728 0.313317,-0.130587 0.04929,-0.147863 0.23906,-0.02954 0.421715,0.262935 0.182656,0.292478 0.278588,0.531778 0.213182,0.531778 -0.0654,0 -0.18798,-0.111744 -0.272389,-0.24832 z"
       id="path15861" />
    <path
       style="fill:#618e39;stroke-width:1.62968"
       d="m 21.553389,80.574931 c 0.509323,-0.258953 1.038527,-0.41047 1.176008,-0.336705 0.137481,0.07377 -0.160175,0.282296 -0.661458,0.463403 -1.326254,0.479156 -1.582215,0.416131 -0.51455,-0.126698 z"
       id="path15860" />
    <path
       style="fill:#618e39;stroke-width:1.62968"
       d="m 0.39935637,80.819994 c -0.21133324,-0.13369 -0.47922385,-0.184372 -0.59531247,-0.112625 -0.11608862,0.07175 -0.21107022,0.01139 -0.21107022,-0.134135 0,-0.495119 0.39558444,-0.493982 0.90618872,0.0026 0.5506427,0.535526 0.5116332,0.630955 -0.099806,0.244155 z"
       id="path15859" />
    <path
       style="fill:#618e39;stroke-width:1.62968"
       d="m 33.326192,81.86306 c -0.09057,-0.146548 0.01281,-0.334561 0.229746,-0.417806 0.384379,-0.1475 0.389272,-0.86079 0.01011,-1.474283 -0.112091,-0.181368 -0.07206,-0.232708 0.09901,-0.126981 0.15795,0.09762 0.346692,0.0812 0.419426,-0.03649 0.07273,-0.117686 -0.09763,-0.231291 -0.378593,-0.252456 -0.28096,-0.02116 -0.510837,0.07318 -0.510837,0.20966 0,0.136477 -0.178593,0.24814 -0.396875,0.24814 -0.218281,0 -0.396875,-0.131801 -0.396875,-0.292891 0,-0.16109 -0.184777,-0.221985 -0.410617,-0.135322 -0.225839,0.08666 -0.350139,0.05971 -0.276222,-0.05989 0.07392,-0.119601 -0.02551,-0.217456 -0.220958,-0.217456 -0.381805,0 -0.398985,0.558338 -0.02758,0.896335 0.124556,0.113353 0.133478,0.04539 0.01983,-0.15103 -0.168319,-0.290898 -0.09942,-0.299743 0.371539,-0.04769 0.461426,0.246948 0.515248,0.385259 0.266533,0.684942 -0.171405,0.20653 -0.407048,0.316548 -0.523652,0.244483 -0.116603,-0.07207 -0.280607,0.01854 -0.364453,0.20135 -0.08385,0.182808 -0.08126,0.04958 0.0057,-0.296068 0.10643,-0.422807 0.06234,-0.569207 -0.134734,-0.447406 -0.161112,0.09957 -0.294753,0.02518 -0.296981,-0.165304 -0.0025,-0.211521 -0.07972,-0.243348 -0.198438,-0.08176 -0.417714,0.568561 -1.061647,0.402936 -1.26742,-0.32599 -0.113706,-0.402789 -0.216445,-0.851405 -0.22831,-0.996926 -0.01187,-0.145521 -0.280807,-0.277678 -0.59765,-0.293682 -0.414001,-0.02091 -0.565297,0.114029 -0.537758,0.479624 0.03595,0.477173 0.0592,0.480175 0.374907,0.04841 0.185122,-0.25317 0.417191,-0.379704 0.515709,-0.281186 0.09852,0.09852 0.09556,0.179123 -0.0066,0.179123 -0.102134,0 -0.05142,0.250907 0.112705,0.557572 0.41597,0.777246 -0.152892,1.38219 -0.657495,0.699198 -0.333712,-0.451687 -0.840607,-0.671349 -0.581405,-0.25195 0.07175,0.116088 0.0242,0.382984 -0.105659,0.5931 -0.188039,0.304253 -0.302991,0.315148 -0.564625,0.05351 -0.261635,-0.261635 -0.260699,-0.328518 0.0046,-0.328518 0.183213,0 0.254514,-0.127179 0.158446,-0.282621 -0.09607,-0.155441 -0.36431,-0.209849 -0.596093,-0.120905 -0.338629,0.129944 -0.325315,0.05551 0.06777,-0.378838 0.479281,-0.5296 0.476747,-0.540552 -0.125078,-0.540552 -0.337849,0 -0.539085,0.07519 -0.447191,0.167079 0.244275,0.244276 -0.306861,1.159426 -0.683507,1.134949 -0.242262,-0.01574 -0.23997,-0.05375 0.0093,-0.15434 0.570768,-0.23031 0.360273,-0.564248 -0.330542,-0.524387 -0.363699,0.02099 -0.661356,0.147297 -0.661458,0.280692 -1.03e-4,0.133394 -0.07537,0.167348 -0.167267,0.07545 -0.09189,-0.09189 -0.38955,-0.04802 -0.661458,0.0975 -0.271909,0.145521 -0.494379,0.160759 -0.494379,0.03386 0,-0.258899 4.004811,-1.663538 6.577706,-2.307052 1.645645,-0.411597 2.393513,-0.343024 1.616715,0.148239 -0.214067,0.13538 -0.262835,0.247969 -0.108374,0.250197 0.154461,0.0022 0.541414,-0.238712 0.859896,-0.535422 0.318481,-0.29671 0.579057,-0.422524 0.579057,-0.279586 0,0.142938 -0.238189,0.426721 -0.529309,0.630629 l -0.529309,0.370743 0.529309,0.479017 c 0.300121,0.271606 0.529309,0.346699 0.529309,0.173428 0,-0.168075 0.126089,-0.305591 0.280198,-0.305591 0.154109,0 0.193174,0.148828 0.08681,0.330729 -0.106363,0.181901 0.07033,0.09928 0.392646,-0.183603 0.580399,-0.509387 0.584176,-0.509387 0.392818,0 -0.15912,0.423568 -0.126111,0.459939 0.187051,0.206103 0.209147,-0.169527 0.49933,-0.34812 0.644851,-0.396875 0.14552,-0.04875 0.226313,-0.207708 0.179538,-0.353229 -0.04849,-0.150872 0.04052,-0.141458 0.207111,0.0219 0.314432,0.30833 0.106339,1.168722 -0.282665,1.168722 -0.129952,0 -0.236276,0.119063 -0.236276,0.264583 0,0.145521 0.178594,0.264584 0.396875,0.264584 0.218281,0 0.396875,0.123251 0.396875,0.273892 0,0.188801 -0.158995,0.188801 -0.511773,0 -0.281475,-0.150641 -0.578384,-0.273892 -0.659798,-0.273892 -0.2582,0 -0.009,0.987497 0.377393,1.495549 0.260759,0.342851 0.267201,0.396237 0.02157,0.178772 -0.3868,-0.342448 -1.16274,-0.171011 -0.930051,0.205486 0.08051,0.130273 0.08685,0.236859 0.01409,0.236859 -0.07276,0 -0.206396,-0.119903 -0.296968,-0.266452 z m -1.454053,-3.040839 c -0.368704,-0.444261 -0.79375,-0.525491 -0.79375,-0.151692 0,0.13485 0.208359,0.299633 0.46302,0.366183 0.254662,0.06655 0.507366,0.134811 0.561564,0.151692 0.0542,0.01688 -0.04968,-0.147902 -0.230834,-0.366183 z"
       id="path15857" />
    <path
       style="fill:#618e39;stroke-width:1.62968"
       d="M -3.8443978,81.86746 C -4.11893,81.696974 -4.1548695,81.538181 -3.962469,81.345781 c 0.1924006,-0.192401 0.4333359,-0.149514 0.7915383,0.140895 0.2832204,0.229617 0.3762872,0.348384 0.2068151,0.263926 -0.169472,-0.08446 -0.3480658,-0.03757 -0.396875,0.104192 -0.055436,0.161012 -0.2368701,0.165766 -0.4834072,0.01267 z"
       id="path15856" />
    <path
       style="fill:#618e39;stroke-width:1.62968"
       d="m 35.047138,82.047782 c 0,-0.246094 0.12609,-0.447444 0.280199,-0.447444 0.154109,0 0.213476,-0.107959 0.131926,-0.239909 -0.08155,-0.13195 0.116713,-0.170614 0.440582,-0.08592 0.406161,0.106214 0.46784,0.190089 0.198803,0.270345 -0.214528,0.064 -0.538879,0.30401 -0.72078,0.533364 -0.298596,0.376493 -0.33073,0.373536 -0.33073,-0.03044 z"
       id="path15855" />
    <path
       style="fill:#618e39;stroke-width:1.62968"
       d="m 28.330694,81.741938 c -0.235018,-0.358682 -0.417905,-0.864697 -0.406417,-1.124479 0.01363,-0.308299 0.113367,-0.219075 0.287181,0.256923 0.146462,0.401089 0.377129,0.660753 0.512595,0.57703 0.135465,-0.08372 0.166431,-0.281454 0.06881,-0.439404 -0.105934,-0.171404 -0.05434,-0.211072 0.127976,-0.09839 0.168005,0.103833 0.305463,0.06643 0.305463,-0.08311 0,-0.149542 0.178594,-0.203362 0.396875,-0.1196 0.218282,0.08376 0.396875,0.265647 0.396875,0.404186 0,0.13854 -0.126984,0.173411 -0.282187,0.07749 -0.311107,-0.192275 -1.068093,0.678594 -0.869361,1.000149 0.329055,0.532421 -0.164833,0.118446 -0.537813,-0.450794 z"
       id="path15854" />
    <path
       style="fill:#618e39;stroke-width:1.62968"
       d="m 26.845056,81.836078 c -0.363802,-0.300434 -0.492397,-0.456848 -0.285767,-0.347588 0.276789,0.146357 0.330596,0.08114 0.204392,-0.247746 -0.148998,-0.388285 -0.09466,-0.405387 0.417354,-0.131363 0.382154,0.204523 0.469007,0.35492 0.247585,0.428727 -0.261966,0.08732 -0.26963,0.199766 -0.03304,0.484834 0.434321,0.523326 0.222331,0.451369 -0.55052,-0.186864 z"
       id="path15853" />
    <path
       style="fill:#618e39;stroke-width:1.62968"
       d="m 12.188989,81.975573 c -0.23295,-0.607058 -0.214079,-0.639819 0.368567,-0.639819 0.291042,0 0.529167,-0.126089 0.529167,-0.280198 0,-0.154109 -0.09498,-0.221496 -0.21107,-0.149749 -0.116089,0.07175 -0.383979,0.008 -0.595313,-0.141636 -0.306366,-0.21694 -0.284429,-0.239605 0.108238,-0.111833 0.35749,0.116326 0.452217,0.05533 0.345592,-0.222531 -0.08079,-0.210529 -0.01077,-0.428154 0.155601,-0.48361 0.174043,-0.05801 0.112905,-0.173579 -0.143981,-0.272156 -0.278563,-0.106895 -0.422787,-0.05053 -0.383497,0.149881 0.03463,0.176664 -0.08586,0.291442 -0.267757,0.255062 -0.181902,-0.03638 -0.33073,0.04503 -0.33073,0.180916 0,0.135885 -0.297656,0.193087 -0.661458,0.127117 -0.401221,-0.07276 -0.661458,0.0035 -0.661458,0.19391 0,0.523804 -0.360642,-0.01013 -0.403956,-0.598056 -0.046409,-0.629941 0.567405,-0.970751 0.98902,-0.549135 0.203494,0.203494 0.11098,0.239427 -0.323741,0.125745 -0.422391,-0.110457 -0.550729,-0.06544 -0.419373,0.147095 0.242682,0.392669 0.760471,0.391757 1.154259,-0.002 0.234669,-0.234669 0.199917,-0.392164 -0.14552,-0.659491 -0.249598,-0.193158 0.171264,-0.09808 0.935248,0.211277 0.763985,0.309361 1.389063,0.67269 1.389063,0.807397 0,0.134708 0.119062,0.171338 0.264583,0.0814 0.145521,-0.08994 0.264583,-0.02469 0.264583,0.144985 0,0.169678 -0.174781,0.241436 -0.388401,0.159462 -0.55489,-0.212931 -0.744912,0.244235 -0.290425,0.698721 0.235664,0.235664 0.671648,0.332286 1.126911,0.249744 0.408397,-0.07405 0.683009,-0.07046 0.610249,0.008 -0.07276,0.07843 -0.429948,0.183998 -0.79375,0.234607 -0.363802,0.05061 -0.818791,0.240845 -1.011087,0.422747 -0.479674,0.453746 -1.016716,0.41477 -1.209564,-0.08779 z"
       id="path15852" />
    <path
       style="fill:#618e39;stroke-width:1.62968"
       d="m -0.40702632,82.146286 c 0,-0.171927 -0.11769871,-0.239853 -0.26155268,-0.150946 -0.14998172,0.09269 -0.19433843,-0.01351 -0.1039842,-0.248969 0.1714161,-0.446703 0.7759599,-0.552217 1.00846708,-0.176012 0.0797464,0.129032 -0.0322894,0.381735 -0.24896841,0.561563 -0.29487516,0.244725 -0.39396179,0.248338 -0.39396179,0.01436 z"
       id="path15851" />
    <path
       style="fill:#618e39;stroke-width:1.62968"
       d="m 35.776391,82.482893 c 0.182808,-0.0737 0.265078,-0.242895 0.182823,-0.375987 -0.08226,-0.133092 0.03606,-0.241985 0.262935,-0.241985 0.226869,0 0.412489,0.178594 0.412489,0.396875 0,0.241374 -0.233251,0.388691 -0.595312,0.375987 -0.327422,-0.01149 -0.445743,-0.08119 -0.262935,-0.15489 z"
       id="path15849" />
    <path
       style="fill:#618e39;stroke-width:1.62968"
       d="m 4.3554734,82.378473 c 0,-0.154109 -0.1176987,-0.207457 -0.2615526,-0.11855 -0.15536,0.09602 -0.1908162,-0.02269 -0.087329,-0.292372 0.1275606,-0.332417 0.080367,-0.396014 -0.1762026,-0.237445 -0.2331605,0.144101 -0.2872513,0.114356 -0.1616397,-0.08889 0.2682713,-0.434072 0.6867237,-0.378371 0.6867237,0.09141 0,0.218282 0.1190625,0.396875 0.2645833,0.396875 0.1455209,0 0.2645834,0.119063 0.2645834,0.264584 0,0.14552 -0.1190625,0.264583 -0.2645834,0.264583 -0.1455208,0 -0.2645833,-0.126089 -0.2645833,-0.280198 z"
       id="path15848" />
    <path
       style="fill:#618e39;stroke-width:1.62968"
       d="m 33.756893,83.331555 c 0.07369,-0.07369 0.78109,-0.227594 1.572006,-0.342018 1.296842,-0.187616 1.438522,-0.27252 1.443032,-0.864766 0.0027,-0.361199 0.09205,-0.626959 0.198437,-0.590579 0.106391,0.03638 0.342265,0.06797 0.524166,0.0702 0.204823,0.0025 0.230004,0.07805 0.06615,0.198438 -0.145521,0.106912 -0.294349,0.343214 -0.330729,0.525115 -0.135404,0.677021 2.725352,0.159349 4.666429,-0.844421 0.674205,-0.348645 0.803162,-0.559035 0.733376,-1.196489 -0.04657,-0.425402 -0.228783,-0.947099 -0.404916,-1.159326 -0.305114,-0.367641 -1.296682,-0.74081 -1.65982,-0.624662 -0.09386,0.03002 -0.391519,-0.136994 -0.661458,-0.371147 -0.629941,-0.546428 -2.607598,-1.053573 -5.121007,-1.313218 -1.953577,-0.201812 -1.945364,-0.203481 0.529167,-0.10758 4.623943,0.179204 8.863145,2.365903 7.937962,4.094625 -0.613092,1.145572 -3.737632,2.163054 -7.657885,2.49373 -1.082885,0.09134 -1.908592,0.105788 -1.834906,0.0321 z"
       id="path15844" />
    <path
       style="fill:#618e39;stroke-width:1.62968"
       d="m 7.3320358,83.2569 c 0.8367447,-0.05251 1.5213541,-0.216611 1.5213541,-0.364676 0,-0.148804 -0.2366726,-0.194092 -0.5291667,-0.101258 -0.4506599,0.143034 -0.5291666,0.04754 -0.5291666,-0.643629 0,-0.770454 0.05363,-0.81158 1.0583333,-0.81158 0.8729563,0 1.0583332,0.09039 1.0583332,0.51602 0,0.283811 -0.2083593,0.637378 -0.4630208,0.785704 -0.6967504,0.40582 0.5685057,0.3575 4.0348957,-0.154093 1.600729,-0.236246 3.287448,-0.442281 3.748264,-0.457855 0.96056,-0.03247 0.960733,-0.03191 -0.219165,-0.708731 -3.786002,-2.171766 -9.8373707,-4.743544 -11.1615134,-4.743544 -0.8479026,0 -2.4024244,-1.462233 -3.2063222,-3.01597 -1.4057613,-2.71699 -0.6481022,-3.600797 3.0822804,-3.595473 3.0545179,0.0044 5.6465792,0.763139 7.6096092,2.227576 l 0.911487,0.679977 0.445651,-1.174024 c 0.686233,-1.807814 1.449529,-2.893504 3.113622,-4.428732 2.843453,-2.623258 5.435865,-3.398433 6.229942,-1.862857 0.478438,0.925196 0.797028,2.5739 0.597732,3.093259 -0.162402,0.423211 -0.965129,0.268058 -0.965129,-0.186544 0,-0.154861 0.168118,-0.129147 0.396875,0.0607 0.505387,0.419434 0.513727,0.09371 0.04404,-1.719792 -0.678951,-2.621457 -2.230478,-2.374354 -6.231749,0.992494 -1.278333,1.075646 -3.40239,4.382568 -2.428249,3.780516 0.149991,-0.0927 0.163347,0.140683 0.03388,0.592091 -0.178546,0.622552 -0.132232,0.75124 0.281588,0.782412 0.272405,0.02052 0.495282,-0.133886 0.495282,-0.343123 0,-0.209238 0.126089,-0.380432 0.280198,-0.380432 0.154109,0 0.20304,-0.124844 0.108736,-0.277431 -0.11598,-0.18766 -0.300005,-0.170749 -0.568717,0.05226 -0.218491,0.181332 -0.085,-0.229606 0.29664,-0.913194 0.381643,-0.683587 0.571008,-1.242887 0.420811,-1.242887 -0.150197,0 -0.273085,-0.127085 -0.273085,-0.282413 0,-0.162007 0.225607,-0.210808 0.529167,-0.114462 0.375528,0.119188 0.529166,0.04755 0.529166,-0.246753 0,-0.607791 0.464592,-0.505811 0.671943,0.147494 0.111281,0.350616 0.04331,0.654695 -0.180608,0.807973 -0.266765,0.182608 -0.223042,0.22108 0.170124,0.149692 0.546021,-0.09914 0.575437,-0.235301 0.238252,-1.102777 -0.153049,-0.39375 -0.104894,-0.473292 0.21274,-0.351405 0.225812,0.08665 0.531356,0.03676 0.678986,-0.110869 0.181503,-0.181503 0.450054,-0.17121 0.829355,0.03178 0.45626,0.244183 0.509197,0.396878 0.283679,0.818261 -0.30473,0.569395 -0.92326,0.723515 -0.71388,0.177879 0.07611,-0.198346 -0.06502,-0.340178 -0.338507,-0.340178 -0.310105,0 -0.41853,0.137687 -0.319968,0.406324 0.224851,0.612851 0.635166,0.794729 1.159653,0.514032 0.360243,-0.192796 0.43785,-0.165016 0.329294,0.117874 -0.107832,0.281007 0.06346,0.346192 0.711473,0.270743 1.060879,-0.123521 1.191306,-0.2477 0.780306,-0.742924 -0.178785,-0.215423 -0.248256,-0.515957 -0.15438,-0.667852 0.09388,-0.151896 0.03002,-0.276174 -0.14191,-0.276174 -0.232946,0 -0.22867,-0.101123 0.01678,-0.396875 0.181157,-0.218281 0.463626,-0.395051 0.627709,-0.392823 0.214516,0.0029 0.216658,0.05866 0.0076,0.198437 -0.337993,0.226003 -0.387541,1.120428 -0.06207,1.120428 0.121268,0 0.206387,0.0893 0.189154,0.198438 -0.0779,0.49338 0.05078,0.879108 0.251819,0.754857 0.121267,-0.07495 0.220486,0.02643 0.220486,0.225285 0,0.214264 -0.207201,0.321649 -0.508623,0.2636 -0.435474,-0.08387 -0.458905,-0.03805 -0.162922,0.318593 0.291917,0.351738 0.254417,0.490462 -0.24103,0.891651 -0.74481,0.603111 -0.759785,0.898393 -0.02564,0.505488 0.342046,-0.183058 0.4953,-0.193829 0.392559,-0.02759 -0.09269,0.149984 -0.04753,0.347483 0.100363,0.438886 0.396035,0.244764 0.335283,0.464334 -0.330915,1.195996 -0.329898,0.362315 -0.865679,1.002234 -1.190625,1.422041 -0.324946,0.419807 -0.590811,0.60541 -0.590811,0.412451 0,-0.223756 -0.129127,-0.174243 -0.356488,0.136692 -0.24701,0.337806 -0.414314,0.393963 -0.544782,0.182861 -0.103561,-0.167566 -0.0622,-0.304665 0.0919,-0.304665 0.417105,0 0.338758,-0.45008 -0.108203,-0.621595 -0.213621,-0.08197 -0.470143,-0.01678 -0.570047,0.144864 -0.115499,0.18688 -0.06009,0.218781 0.152164,0.0876 0.242599,-0.149935 0.287762,-0.06122 0.165287,0.324661 -0.11273,0.355181 -0.02897,0.584519 0.253007,0.692723 0.231842,0.08897 0.347227,0.281982 0.256411,0.428924 -0.306781,0.496383 -1.191337,-0.234796 -1.191337,-0.984767 0,-0.67449 -0.01557,-0.682087 -0.387548,-0.189129 -0.376373,0.498782 -0.40664,0.490704 -1.049713,-0.280159 -0.364192,-0.436562 -0.605164,-0.955835 -0.535494,-1.153938 0.07915,-0.225072 -0.01124,-0.307267 -0.240962,-0.219113 -0.202199,0.07759 -0.516616,0.0015 -0.698705,-0.168979 -0.182088,-0.170529 0.211707,0.404322 0.8751,1.277447 0.663393,0.873125 1.429864,2.259174 1.703269,3.080109 l 0.497098,1.49261 0.696146,-1.238412 c 1.048718,-1.865624 3.804738,-5.352001 4.909876,-6.211015 0.537794,-0.418022 1.751714,-1.119972 2.697599,-1.559887 3.063899,-1.42497 8.619504,-1.309047 9.304404,0.194144 0.414481,0.909686 -0.588166,2.564826 -2.573237,4.247826 -1.466151,1.243045 -1.850674,1.421233 -4.497917,2.084337 -4.351589,1.090025 -10.309504,3.548269 -9.810108,4.047665 0.08565,0.08566 0.337208,0.0051 0.559006,-0.178946 0.334964,-0.277995 0.403269,-0.256888 0.403269,0.124618 0,0.361311 -0.17183,0.434083 -0.805399,0.341095 -0.44297,-0.06502 -0.857421,-0.03404 -0.921003,0.06884 -0.129979,0.21031 2.510228,0.616589 2.709825,0.416992 0.07034,-0.07034 0.04156,-0.267594 -0.06396,-0.438333 -0.142299,-0.230244 -0.250615,-0.217704 -0.419318,0.04854 -0.180727,0.285225 -0.228291,0.270186 -0.23151,-0.0732 -0.0023,-0.248416 0.267374,-0.484063 0.634298,-0.554205 0.509535,-0.0974 0.619383,-0.02354 0.544359,0.36603 -0.06127,0.318127 0.06193,0.48947 0.353837,0.492111 0.344481,0.0031 0.366799,0.05542 0.09671,0.226655 -0.45181,0.286439 0.894845,0.531547 4.055288,0.738114 1.309687,0.0856 2.430859,0.200292 2.491493,0.254867 0.334414,0.301003 -3.930723,0.02284 -7.064622,-0.460741 -3.801518,-0.586599 -4.358632,-0.578104 -9.714371,0.148116 -1.600729,0.217053 -3.6843224,0.376002 -4.6302077,0.35322 L 5.8106817,83.352364 Z M 20.032035,74.58335 c 0.272561,-0.107946 0.463021,-0.0629 0.463021,0.109514 0,0.16109 0.142875,0.292891 0.3175,0.292891 0.234658,0 0.240052,-0.07745 0.02068,-0.296824 -0.163254,-0.163254 -0.233859,-0.46091 -0.156901,-0.661459 0.07696,-0.200548 0.0011,-0.364634 -0.168583,-0.364634 -0.169678,0 -0.234921,-0.119062 -0.144984,-0.264583 0.266169,-0.43067 -0.0375,-0.301564 -0.430624,0.18308 -0.206866,0.255026 -0.228674,0.367024 -0.05068,0.260268 0.171846,-0.103068 0.370042,-0.09421 0.440435,0.01969 0.07039,0.113899 -0.159504,0.342764 -0.510884,0.508589 -0.35138,0.165825 -0.638873,0.197376 -0.638873,0.07011 0,-0.127263 -0.17791,-0.163116 -0.395355,-0.07967 -0.217445,0.08344 -0.334004,0.25098 -0.25902,0.372308 0.140455,0.227261 0.703721,0.171732 1.514271,-0.149283 z m 2.017448,-1.052804 c 0.08008,-0.320315 -0.332036,-0.227589 -0.440972,0.09922 -0.0667,0.200091 -0.0022,0.289388 0.143316,0.198438 0.145521,-0.09095 0.279466,-0.224896 0.297656,-0.297658 z m -0.760677,-0.626503 c 0,-0.109119 -0.155092,-0.4105 -0.34465,-0.669735 -0.318854,-0.436059 -0.371713,-0.438727 -0.706245,-0.03564 -0.198877,0.239633 -0.252144,0.414878 -0.118371,0.389435 0.618935,-0.117722 0.876722,0.04599 0.719124,0.456681 -0.113601,0.296039 -0.06754,0.377604 0.140596,0.248969 0.17025,-0.105221 0.309546,-0.28059 0.309546,-0.389709 z"
       id="path15843" />
    <path
       style="fill:#618e39;stroke-width:1.62968"
       d="m 0.38672364,83.17397 c 0.28975943,-0.197382 0.1469387,-0.227539 -0.52916664,-0.111737 -1.2524695,0.214522 -4.8496861,-0.542623 -6.5188786,-1.372099 -2.592525,-1.288309 -2.4199362,-2.623739 0.5091765,-3.939821 2.2451822,-1.008785 4.3437136,-1.406436 7.7056185,-1.460139 2.0075811,-0.03207 2.9350051,0.05323 3.1536829,0.290059 0.2438176,0.264055 0.2071073,0.29923 -0.1724124,0.165203 -0.2652033,-0.09366 -0.7260557,-0.03977 -1.0241166,0.119748 -0.3937325,0.210719 -0.4927508,0.21046 -0.3620931,-9.49e-4 0.09891,-0.160039 0.063668,-0.29098 -0.078314,-0.29098 -0.1419823,0 -0.3182031,0.148828 -0.3916018,0.330729 -0.1067617,0.264583 -0.1376297,0.264583 -0.1543403,0 -0.047643,-0.754341 -5.1170711,-0.182731 -7.8837743,0.888945 -3.0323965,1.174592 -3.6390639,2.460338 -1.5923946,3.374855 2.3028626,1.028992 5.96553623,1.932864 6.69619823,1.652483 0.50432065,-0.193526 1.96533257,0.104309 1.96533257,0.400644 0,0.12733 -0.3869531,0.229687 -0.85989575,0.227458 C 0.18104257,83.445219 0.078092,83.384207 0.38672364,83.17397 Z"
       id="path15842" />
    <path
       style="fill:#618e39;stroke-width:1.62968"
       d="m 2.6158579,83.437869 -0.773926,-0.146844 0.79375,-0.117739 c 0.4365624,-0.06476 1.3295311,-0.05357 1.9843748,0.02487 l 1.190625,0.14261 -1.2104489,0.121973 c -0.6657469,0.06709 -1.5587156,0.05589 -1.9843749,-0.02487 z"
       id="path15841" />
    <path
       style="fill:#5b8b35;stroke-width:1.62968"
       d="m 24.179384,66.985992 c -0.294992,-1.290768 -0.520972,-1.721726 -1.038495,-1.980474 -0.640827,-0.320397 -0.643102,-0.330834 -0.07294,-0.334612 0.720763,-0.0048 1.271313,0.9693 1.532582,2.711564 0.267017,1.780596 0.02415,1.551953 -0.421147,-0.396478 z"
       id="path15707" />
    <path
       style="fill:#5b8b35;stroke-width:1.62968"
       d="m 24.093546,71.634487 c 0.243527,-1.013729 0.37026,-1.109676 0.37026,-0.280319 0,0.379467 -0.123835,0.766474 -0.275189,0.860016 -0.180496,0.111553 -0.21321,-0.08792 -0.09507,-0.579697 z"
       id="path15702" />
    <path
       style="fill:#5b8b35;stroke-width:1.62968"
       d="M 17.424931,81.530291 C 13.712534,79.35035 7.2231903,76.573255 5.841637,76.573255 c -0.8393588,0 -2.3963354,-1.468916 -3.1967756,-3.01597 -1.4057613,-2.71699 -0.6481022,-3.600797 3.0822804,-3.595473 3.1035686,0.0044 5.6944482,0.819105 8.0871852,2.542932 0.503187,0.362517 0.595313,0.369016 0.595313,0.042 0,-0.212788 0.360385,-1.108083 0.800857,-1.989544 0.932394,-1.865886 3.330973,-4.23878 5.286146,-5.229542 1.80858,-0.916477 2.011068,-0.823639 0.319453,0.146465 -2.465969,1.414178 -4.275657,3.172327 -5.26374,5.113831 -1.025657,2.015334 -0.980167,2.484996 0.38752,4.000925 1.229197,1.362429 2.702519,4.098137 2.702888,5.018805 1.31e-4,0.327094 0.363389,-0.06665 0.97638,-1.058334 1.47014,-2.37835 3.703166,-5.190102 4.796951,-6.040161 0.535564,-0.416225 1.747659,-1.119761 2.693544,-1.563413 1.592306,-0.746846 1.946997,-0.808427 4.784815,-0.830727 3.146429,-0.02473 4.269164,0.246941 4.60168,1.113464 0.287199,0.748429 -1.013785,2.789845 -2.660678,4.174955 -1.426588,1.199825 -1.890519,1.421593 -4.101041,1.960385 -3.396628,0.827893 -7.135321,2.198444 -9.425334,3.455192 -2.130368,1.169136 -2.11206,1.164621 -2.88415,0.711246 z"
       id="path15698" />
    <path
       style="fill:#5b8b35;stroke-width:1.62968"
       d="m 35.33377,83.087172 c 0.06063,-0.05536 0.824618,-0.175848 1.697743,-0.267744 1.761452,-0.185391 3.628663,-0.696646 4.848928,-1.327669 1.039788,-0.537695 1.302983,-1.349894 0.665648,-2.054141 -0.567311,-0.626872 -1.929018,-1.378745 -2.131078,-1.176684 -0.07656,0.07656 -0.299188,-0.02078 -0.494727,-0.216323 -0.370449,-0.370449 -3.439331,-1.119346 -5.27002,-1.286039 -0.874585,-0.07964 -0.805533,-0.104089 0.397716,-0.140844 2.608906,-0.07969 6.965438,1.511698 8.025589,2.931655 0.399591,0.535209 0.436697,0.769434 0.193798,1.223296 -0.394775,0.737644 -1.984347,1.529734 -4.044712,2.015497 -1.485731,0.350284 -4.171177,0.556754 -3.888885,0.298996 z"
       id="path15695" />
    <path
       style="fill:#5b8b35;stroke-width:1.62968"
       d="m -2.1268179,83.004312 c -1.9680013,-0.258438 -4.6783425,-1.257216 -5.61958,-2.070852 -0.9483941,-0.819821 -0.9726543,-0.882276 -0.6076475,-1.564297 0.5002568,-0.934738 3.5717566,-2.388524 5.8303525,-2.759591 2.16584302,-0.355829 6.84146,-0.44511 7.1473954,-0.136479 0.1322726,0.133437 -1.2625683,0.236926 -3.2746552,0.242959 -3.1306922,0.0094 -3.7578609,0.09247 -5.8717202,0.777886 -2.7972079,0.906986 -4.0374623,1.886231 -3.5478004,2.801173 0.3709373,0.693102 2.0471265,1.453807 4.4126452,2.00259 3.04911649,0.707372 3.65053733,0.984948 1.5310102,0.706611 z"
       id="path15694" />
    <path
       style="fill:#5b8b35;stroke-width:1.62968"
       d="m 9.6471398,83.05854 c 1.8190102,-0.205301 4.3008122,-0.550167 5.5151162,-0.766367 2.054711,-0.365831 2.449214,-0.355814 5.688542,0.144451 1.914394,0.295649 4.492747,0.627613 5.729674,0.737697 1.984255,0.176596 2.072699,0.204741 0.751431,0.239127 -0.82364,0.02143 -3.085827,-0.198372 -5.027083,-0.488461 -4.189456,-0.626046 -5.171375,-0.642869 -8.23273,-0.141049 -1.277059,0.209337 -3.539247,0.440746 -5.0270836,0.514244 l -2.7051581,0.133633 z"
       id="path15692" />
    <path
       style="fill:#44772f;stroke-width:1.62968"
       d="m 23.964037,65.960524 c -0.163002,-0.467588 -0.250065,-0.896463 -0.193474,-0.953054 0.05659,-0.05659 0.236259,0.279679 0.399261,0.747267 0.163002,0.467588 0.250066,0.896462 0.193474,0.953053 -0.05659,0.05659 -0.236259,-0.279678 -0.399261,-0.747266 z"
       id="path15610" />
    <path
       style="fill:#44772f;stroke-width:1.62968"
       d="m 17.452348,67.653315 c 1.207893,-1.205994 4.244034,-3.196095 4.494268,-2.945861 0.05751,0.05751 -0.525313,0.434336 -1.295154,0.837399 -0.769841,0.403063 -2.102232,1.339545 -2.960871,2.08107 l -1.56116,1.348228 z"
       id="path15607" />
    <path
       style="fill:#44772f;stroke-width:1.62968"
       d="m -0.20858883,76.386529 c 0.32742186,-0.06306 0.86320308,-0.06306 1.19062494,0 0.32742189,0.06307 0.0595313,0.114663 -0.59531247,0.114663 -0.65484372,0 -0.92273433,-0.0516 -0.59531247,-0.114663 z"
       id="path15597" />
    <path
       style="fill:#44772f;stroke-width:1.62968"
       d="m -7.5507759,78.546414 c 0,-0.253908 3.4637691,-1.744683 3.7949889,-1.63333 0.1683289,0.05659 -0.1701975,0.257517 -0.7522808,0.446503 -0.5820833,0.188986 -1.5048176,0.568043 -2.0505207,0.84235 -0.5457031,0.274306 -0.9921874,0.429321 -0.9921874,0.344477 z"
       id="path15595" />
    <path
       style="fill:#44772f;stroke-width:1.62968"
       d="m 40.801826,78.275656 c -0.691224,-0.359816 -1.256771,-0.713465 -1.256771,-0.785888 0,-0.07242 0.595312,0.16999 1.322917,0.538695 0.727604,0.368705 1.322916,0.727898 1.322916,0.798207 0,0.175009 0.0238,0.184451 -1.389062,-0.551014 z"
       id="path15594" />
    <path
       style="fill:#44772f;stroke-width:1.62968"
       d="m 42.948212,80.807957 c 0.158066,-0.456973 0.108534,-0.864046 -0.16097,-1.322916 l -0.389293,-0.662828 0.557928,0.624624 c 0.664622,0.744073 0.675121,0.842401 0.16097,1.507619 -0.376853,0.487579 -0.385393,0.480159 -0.168635,-0.146499 z"
       id="path15593" />
    <path
       style="fill:#44772f;stroke-width:1.62968"
       d="M 17.030942,81.210493 C 13.119558,79.015369 8.8316283,77.145613 6.7352275,76.721037 4.4835731,76.265018 3.6332551,75.552971 2.5350808,73.20388 1.3068362,70.576558 2.2470135,69.805381 6.4130765,70.02297 c 2.815733,0.147063 4.7631835,0.739801 6.6963765,2.038149 l 1.133036,0.760956 0.617867,-1.233264 c 0.597103,-1.191819 0.591056,-0.960796 -0.01464,0.559403 -0.193059,0.484545 -0.204488,0.855646 -0.0336,1.090967 0.142442,0.196147 0.890144,1.171407 1.66156,2.167244 0.889355,1.148086 1.563738,2.357456 1.843015,3.305078 l 0.440439,1.494465 0.978113,-1.673801 c 1.366425,-2.338303 3.784083,-5.364309 5.00071,-6.259028 0.563372,-0.414308 1.774406,-1.068662 2.691188,-1.454121 1.453989,-0.611326 2.041587,-0.702572 4.600821,-0.714444 4.162025,-0.01931 5.036992,0.555637 4.084207,2.683751 -0.464332,1.037118 -2.47525,3.011337 -3.729536,3.661472 -0.374073,0.193894 -1.683761,0.605717 -2.910416,0.915162 -3.978835,1.003732 -8.857925,2.90803 -10.26961,4.008206 -0.794941,0.619526 -0.775277,0.620999 -2.171662,-0.162672 z"
       id="path15591" />
    <path
       style="fill:#44772f;stroke-width:1.62968"
       d="m 16.748059,82.112634 c 0.390001,-0.15629 0.781131,-0.153065 1.058334,0.0087 0.335282,0.195689 0.188368,0.254564 -0.618629,0.247911 -0.925651,-0.0076 -0.980776,-0.03981 -0.439705,-0.256637 z"
       id="path15589" />
    <path
       style="fill:#376b29;stroke-width:1.62968"
       d="m 16.790889,68.288381 c 0,-0.04553 0.386954,-0.432488 0.859896,-0.859895 l 0.859896,-0.777106 -0.777105,0.859896 c -0.724371,0.801543 -0.942687,0.981512 -0.942687,0.777105 z"
       id="path15476" />
    <path
       style="fill:#376b29;stroke-width:1.62968"
       d="M 14.541931,79.868272 C 12.736468,78.909329 9.9403309,77.71418 8.0596399,77.097554 6.2406296,76.501152 4.4962351,75.846518 4.1832078,75.642811 3.5627202,75.239021 1.9742236,72.276518 1.9742236,71.523115 c 0,-0.257237 0.3274218,-0.727282 0.7276041,-1.044544 0.6701717,-0.53131 0.9468914,-0.566991 3.505729,-0.452047 3.045522,0.136807 4.7962663,0.656835 6.8771423,2.042733 1.073669,0.715081 1.208511,0.747252 1.394494,0.332709 0.161468,-0.359903 0.182615,-0.33466 0.09801,0.116994 -0.07551,0.403125 0.288799,1.038176 1.214274,2.116666 1.390623,1.620545 2.471184,3.605582 2.745806,5.044168 0.157525,0.825176 0.634854,0.966411 0.634854,0.187844 0,-0.498621 1.992018,-3.549627 3.612186,-5.532481 2.489127,-3.046337 5.091357,-4.244194 9.220105,-4.244194 3.279159,0 4.365625,0.373414 4.365625,1.500447 0,1.039127 -0.731028,2.416695 -1.189164,2.240892 -0.197806,-0.07591 -0.51718,0.06327 -0.70972,0.309284 -0.320974,0.410112 -0.308009,0.414303 0.155974,0.05042 0.44982,-0.352778 0.491702,-0.352778 0.376944,0 -0.294257,0.90457 -2.700064,2.349561 -4.835877,2.904555 -3.00979,0.782098 -7.419609,2.323377 -9.20259,3.216403 -1.836547,0.919855 -2.183853,0.950095 -1.1431,0.09953 0.708965,-0.579408 0.728722,-0.635584 0.20979,-0.596494 -0.315087,0.02374 -0.518203,0.09784 -0.451368,0.164671 0.06683,0.06683 -0.04885,0.309773 -0.257082,0.539863 -0.208229,0.230091 -0.357317,0.537409 -0.331306,0.68293 0.12634,0.706835 -1.55648,0.201987 -4.450625,-1.335191 z m 12.199177,-7.932884 c 0.07378,-0.502694 -0.19639,-0.493258 -0.83767,0.02926 -0.438528,0.357313 -0.445919,0.397196 -0.05057,0.272887 0.254662,-0.08007 0.463021,-0.01042 0.463021,0.15479 0,0.408728 0.353998,0.02833 0.425219,-0.456935 z"
       id="path15472" />
    <path
       style="fill:#13510d;stroke-width:1.62968"
       d="m 28.795727,70.469169 c 0.272505,-0.169686 1.522662,-0.346146 2.778125,-0.392134 l 2.282662,-0.08361 -2.116667,0.20737 c -1.164167,0.114054 -2.414323,0.290514 -2.778125,0.392134 -0.581522,0.162435 -0.601582,0.147479 -0.165995,-0.123757 z"
       id="path15385" />
    <path
       style="fill:#13510d;stroke-width:1.62968"
       d="m 12.008832,71.817345 c -3.7308044,-1.926938 -8.8901866,-2.16885 -9.7179149,-0.455651 -0.1544837,0.319744 -0.2889376,0.445715 -0.2987865,0.279935 -0.00985,-0.16578 0.1971308,-0.566978 0.4599549,-0.891552 0.389426,-0.480921 0.8293364,-0.615283 2.3770465,-0.726021 1.0445515,-0.07474 2.6452167,0.01038 3.5570337,0.189148 1.5969658,0.313097 4.8144603,1.66886 5.1151463,2.15538 0.197678,0.319849 0.184982,0.31516 -1.49248,-0.551239 z"
       id="path15373" />
    <path
       style="fill:#13510d;stroke-width:1.62968"
       d="m 33.988805,75.075973 c 0,-0.144408 0.308969,-0.551205 0.686598,-0.903993 0.934291,-0.872835 1.503151,-2.037042 1.360351,-2.784048 -0.06513,-0.340723 -0.01656,-0.556542 0.107939,-0.479597 0.558266,0.345028 0.17479,1.636219 -0.858801,2.891645 -1.358227,1.649736 -1.296087,1.588559 -1.296087,1.275993 z"
       id="path15367" />
    <path
       style="fill:#13510d;stroke-width:1.62968"
       d="M 3.9700753,75.41816 C 3.3046249,74.752709 2.2388069,72.838131 2.2388069,72.308202 c 0,-0.174561 0.3672022,0.417453 0.8160048,1.315587 0.4813142,0.963195 1.1053093,1.79009 1.5213541,2.016041 0.3879421,0.210689 0.5511092,0.387838 0.3625936,0.393665 -0.1885156,0.0058 -0.6244235,-0.271075 -0.9686841,-0.615335 z"
       id="path15366" />
  </g>
</svg>
