<?xml version="1.0" encoding="UTF-8" standalone="no"?>
<!-- Created with Inkscape (http://www.inkscape.org/) -->

<svg
   width="185"
   height="185"
   viewBox="0 0 48.947914 48.947918"
   version="1.1"
   id="svg1"
   sodipodi:docname="bellis-perennis-3.svg"
   inkscape:version="1.4 (e7c3feb100, 2024-10-09)"
   xmlns:inkscape="http://www.inkscape.org/namespaces/inkscape"
   xmlns:sodipodi="http://sodipodi.sourceforge.net/DTD/sodipodi-0.dtd"
   xmlns="http://www.w3.org/2000/svg"
   xmlns:svg="http://www.w3.org/2000/svg">
  <sodipodi:namedview
     id="namedview1"
     pagecolor="#ffffff"
     bordercolor="#666666"
     borderopacity="1.0"
     inkscape:showpageshadow="2"
     inkscape:pageopacity="0.0"
     inkscape:pagecheckerboard="true"
     inkscape:deskcolor="#d1d1d1"
     showgrid="false"
     inkscape:zoom="1.211637"
     inkscape:cx="79.644314"
     inkscape:cy="150.21"
     inkscape:current-layer="svg1" />
  <defs
     id="defs1" />
  <g
     id="g16294"
     transform="matrix(0.78954169,0,0,0.78954169,-37.038946,-17.119775)"
     style="stroke-width:1.26656">
    <path
       style="fill:#faf9eb;stroke-width:1.26656"
       d="m 64.352413,83.304827 c -2.333043,-0.565473 -4.699026,-1.974928 -4.699026,-2.799289 0,-0.736214 0.947653,-2.132609 1.812887,-2.671342 2.356954,-1.467546 4.58108,-2.054691 7.78324,-2.054691 h 1.826024 l -0.919624,-1.256771 c -1.4563,-1.990199 -2.453341,-4.848274 -2.126856,-6.096754 0.34869,-1.333394 3.330107,-1.353951 6.261305,-0.04317 1.086253,0.485753 3.401617,2.238986 4.113579,3.114871 0.309821,0.381155 0.338431,0.08665 0.198438,-2.042677 -0.08997,-1.368423 -0.163577,-5.302557 -0.163577,-8.742519 v -6.254477 l -1.156898,-0.309424 c -2.695974,-0.721063 -4.931053,-3.555416 -4.925934,-6.246687 0.0032,-1.669011 0.915064,-3.748924 2.069521,-4.720335 0.453643,-0.381716 1.48844,-1.018714 2.299549,-1.415553 1.306076,-0.639003 1.679128,-0.70439 3.261784,-0.571706 2.083405,0.174666 4.351141,1.103833 5.383254,2.205701 3.070468,3.277981 1.270853,9.045373 -3.343049,10.713781 -0.518317,0.187426 -0.944143,0.406153 -0.94628,0.48606 -0.0021,0.07991 -0.0319,4.038421 -0.06615,8.796698 l -0.06226,8.651411 0.661459,-0.632807 c 1.756273,-1.680203 6.073074,-2.757912 7.943536,-1.983142 1.501503,0.621943 1.286424,2.524301 -0.587906,5.199996 -0.553097,0.789572 -1.005631,1.489829 -1.005631,1.556128 0,0.0663 0.565547,0.121206 1.256771,0.122018 3.308534,0.0039 6.945312,1.817788 6.945312,3.464089 0,0.95041 -1.045694,1.812114 -3.348377,2.759229 -1.60707,0.661003 -2.220027,0.758045 -5.443423,0.86179 -2.927306,0.09421 -4.005876,0.02308 -5.55625,-0.366441 -2.243518,-0.563673 -2.464285,-0.558955 -7.026075,0.150144 -3.963968,0.616172 -8.205444,0.667312 -10.439347,0.125869 z m 18.05514,-34.549489 c 0.800364,-0.418775 1.870069,-0.998561 2.377122,-1.288412 0.507052,-0.289852 1.161896,-0.538871 1.455208,-0.553377 0.438414,-0.02168 0.415612,-0.06027 -0.128164,-0.216906 -0.691286,-0.199124 -1.32706,0.04081 -2.295517,0.866312 -0.340124,0.289917 -0.719085,0.407901 -0.926042,0.28831 -0.192674,-0.111337 -0.264167,-0.107115 -0.158874,0.0094 0.185176,0.20488 -1.423959,1.210081 -2.094699,1.308525 -0.181711,0.02667 -0.403317,0.121422 -0.492456,0.210562 -0.204028,0.204027 -1.969911,-0.820616 -1.969911,-1.143029 0,-0.131147 -0.238125,-0.238449 -0.529167,-0.238449 -0.291042,0 -0.529167,-0.138906 -0.529167,-0.30868 0,-0.169775 -0.06988,-0.238798 -0.155296,-0.153385 -0.18365,0.183651 -2.82764,-0.56371 -3.019704,-0.853561 -0.07276,-0.109806 -0.345792,-0.123239 -0.606738,-0.02985 -0.338466,0.121129 -0.03514,0.304366 1.058333,0.639324 0.843029,0.258241 2.425749,0.931285 3.517155,1.495652 2.179283,1.126909 2.283646,1.126157 4.497917,-0.03242 z m 3.898342,-3.280773 c -0.313648,-0.598618 -0.404819,-0.644339 -0.546842,-0.274233 -0.09374,0.244287 -0.06131,0.376714 0.07206,0.294283 0.133377,-0.08243 0.321479,0.09895 0.418003,0.403072 0.09652,0.304121 0.233476,0.49497 0.304338,0.424108 0.07086,-0.07086 -0.04054,-0.452115 -0.247563,-0.84723 z M 74.308653,44.016539 c 0.16153,-0.225413 0.0258,-0.129477 -0.301621,0.213192 -0.327422,0.342668 -0.591692,0.765222 -0.587267,0.939009 0.0044,0.173786 0.140155,0.07785 0.301621,-0.213192 0.161466,-0.291042 0.425736,-0.713596 0.587267,-0.939009 z m 10.883905,-0.351368 c -0.411932,-0.540071 -1.228356,-1.116035 -2.063985,-1.456084 -1.317955,-0.536324 -1.351607,-0.538117 -0.72102,-0.03842 0.363802,0.288287 0.810286,0.526806 0.992187,0.530042 0.181901,0.0032 0.330729,0.131972 0.330729,0.286081 0,0.154109 0.109224,0.212694 0.242719,0.13019 0.133495,-0.08251 0.520449,0.201537 0.859896,0.631204 0.339447,0.429667 0.712533,0.7878 0.829079,0.795852 0.116547,0.0081 -0.09478,-0.387437 -0.469605,-0.878863 z m -9.664172,-0.423094 c 0,-0.142044 0.446485,-0.49397 0.992188,-0.782056 0.545703,-0.288087 0.850165,-0.529056 0.676582,-0.535488 -0.445281,-0.0165 -2.197936,1.049924 -2.197936,1.337358 0,0.131147 0.119062,0.238449 0.264583,0.238449 0.145521,0 0.264583,-0.116218 0.264583,-0.258263 z m 5.159375,-1.726195 c 0.145521,-0.04974 -0.412999,-0.09983 -1.241156,-0.111321 -0.828156,-0.01149 -1.568284,0.08031 -1.644727,0.204 -0.12541,0.202917 2.243639,0.126836 2.885883,-0.09268 z"
       id="path16292" />
    <path
       style="fill:#edebd6;stroke-width:1.26656"
       d="m 64.812762,83.341717 c -3.326331,-0.773618 -4.894791,-1.785599 -4.894791,-3.15815 0,-2.336561 5.303206,-4.709986 9.707878,-4.344717 0.772541,0.06406 1.404621,0.06861 1.404621,0.01009 0,-0.05851 -0.340894,-0.60409 -0.757543,-1.212393 -1.318944,-1.925644 -1.942904,-3.40386 -2.081377,-4.930962 -0.172247,-1.899579 0.202777,-2.265634 2.280577,-2.226034 2.167371,0.04131 4.653344,1.137771 6.625019,2.922035 l 1.618963,1.465077 -0.0534,-8.48898 c -0.02937,-4.668939 -0.121533,-8.591597 -0.204799,-8.717017 -0.08327,-0.12542 -0.714174,-0.417445 -1.402016,-0.648946 -0.687842,-0.2315 -1.666502,-0.738116 -2.1748,-1.125814 -1.226624,-0.935592 -2.527702,-3.550426 -2.527702,-5.080035 0,-1.289007 0.0014,-1.289305 2.082832,-0.437383 0.490714,0.20085 1.093544,0.365181 1.339622,0.365181 0.246077,0 1.255996,0.487679 2.244264,1.083731 l 1.796851,1.083732 1.124076,-0.429289 c 0.618242,-0.236108 1.785429,-0.827534 2.593748,-1.314279 0.80832,-0.486745 1.897402,-0.965233 2.420181,-1.063307 0.857744,-0.160914 0.950508,-0.121317 0.950508,0.40573 0,0.321226 -0.205808,1.249356 -0.457352,2.06251 -0.562911,1.819699 -2.550996,3.911585 -4.320117,4.545678 l -1.175656,0.421382 -0.06977,8.822418 -0.06977,8.822418 0.598941,-0.534041 c 2.938584,-2.620163 8.152799,-3.337724 8.953345,-1.232126 0.22479,0.591242 0.150872,1.01566 -0.404032,2.319848 -0.373537,0.87792 -1.075509,2.028283 -1.559939,2.556361 l -0.880783,0.960143 1.875383,0.138879 c 2.216899,0.164169 4.221581,0.745204 5.46715,1.584593 1.038812,0.700055 1.555642,1.841536 1.141785,2.521766 -0.454797,0.747521 -3.835644,2.380907 -5.548975,2.680872 -2.673506,0.468069 -6.62446,0.351313 -8.978757,-0.265336 -2.215387,-0.580265 -1.994328,-0.590391 -7.006861,0.320953 -2.526691,0.459385 -7.902087,0.523623 -9.657291,0.115408 z"
       id="path16242" />
    <path
       style="fill:#d3d5b1;stroke-width:1.26656"
       d="m 66.135679,83.558421 c -2.243847,-0.326249 -4.728003,-1.259621 -5.754688,-2.162209 -0.65583,-0.57656 -0.573772,-1.740319 0.186415,-2.64375 1.527686,-1.815553 6.362349,-3.265741 9.505547,-2.851251 l 1.291441,0.170301 -1.013074,-1.402774 c -1.312106,-1.816837 -2.217082,-4.024731 -2.224987,-5.428361 -0.0082,-1.464663 0.546204,-1.772116 2.881243,-1.597695 2.243063,0.16755 4.368502,1.173542 6.261488,2.963626 l 1.441324,1.362973 -0.06965,-8.691903 -0.06965,-8.691904 L 77.01,53.951083 c -2.721315,-1.105876 -4.30382,-3.140199 -4.588508,-5.898562 -0.14073,-1.363548 -0.116102,-1.45196 0.353331,-1.26842 0.277533,0.10851 1.391441,0.48837 2.475352,0.844134 1.083911,0.355763 2.523085,1.001277 3.198164,1.434474 0.675079,0.433197 1.368793,0.78763 1.541587,0.78763 0.394676,0 4.000099,-1.792158 4.534293,-2.253874 0.364603,-0.315135 1.233364,-0.493607 2.050521,-0.421246 0.181901,0.01611 0.330729,0.210855 0.330729,0.432772 0,0.785041 -1.047044,3.368223 -1.726115,4.258531 -0.728589,0.955231 -3.117106,2.475073 -3.89628,2.479251 -0.431723,0.0023 -0.463021,0.602532 -0.463021,8.879489 v 8.877006 l 0.871059,-0.664389 c 1.835943,-1.400342 3.884015,-2.137326 5.914022,-2.128118 1.174097,0.0053 2.051243,0.142154 2.315104,0.36114 0.999635,0.829623 0.150308,3.682575 -1.690983,5.68014 l -1.083143,1.175071 1.055191,-0.141531 c 2.413897,-0.323771 6.793547,1.176021 7.646063,2.618362 0.687708,1.163507 0.129831,1.94565 -2.131627,2.98854 -1.053513,0.485836 -2.621955,1.013298 -3.485426,1.172138 -2.27155,0.417863 -5.819801,0.346741 -7.955052,-0.159453 -2.346604,-0.556299 -3.534084,-0.555391 -7.14375,0.0055 -3.018944,0.46907 -7.615526,0.749485 -8.995832,0.548792 z"
       id="path16072" />
    <path
       style="fill:#b5c69d;stroke-width:1.26656"
       d="m 66.135679,83.45334 c -3.454585,-0.410226 -6.217708,-1.807403 -6.217708,-3.143992 0,-1.099435 0.79992,-1.947254 2.857265,-3.028359 1.444259,-0.758937 2.307023,-1.012279 4.167135,-1.223639 1.29018,-0.146601 2.813904,-0.191691 3.386053,-0.1002 l 1.040271,0.166346 -1.126086,-1.658236 c -1.270429,-1.870789 -2.122556,-4.045397 -2.122556,-5.416711 0,-1.265099 0.660352,-1.581241 2.909074,-1.392717 2.266497,0.190015 4.373982,1.185954 6.236437,2.947166 l 1.437822,1.359663 v -8.807203 c 0,-8.210438 -0.03137,-8.807377 -0.463021,-8.809787 -0.966226,-0.0054 -3.175032,-1.291266 -4.125527,-2.401706 C 73.04045,50.688784 72.233527,48.435648 72.491,47.409793 l 0.160421,-0.63917 2.05457,0.704096 c 2.058735,0.705523 2.871557,1.071391 4.443454,2.000093 l 0.842933,0.498019 2.153061,-1.049737 c 1.184183,-0.577356 2.277957,-1.200229 2.430609,-1.384163 0.376146,-0.453228 2.329421,-0.443941 2.329421,0.01108 0,0.190025 -0.256226,1.104228 -0.569392,2.031563 -0.712417,2.109581 -2.240079,3.727379 -4.165436,4.411205 l -1.350588,0.479686 v 8.832842 8.832841 l 0.929887,-0.70926 c 1.767992,-1.348512 3.811727,-2.104172 5.684696,-2.101885 0.945885,0.0012 2.00184,0.155521 2.346566,0.343034 0.545707,0.296836 0.610324,0.486887 0.499585,1.469365 -0.178558,1.584155 -1.199859,3.489078 -2.447063,4.564238 l -1.060547,0.914252 1.273646,-0.187181 c 2.503496,-0.367925 7.05218,1.156979 7.839512,2.628124 0.613725,1.146755 0.04527,1.910526 -2.190926,2.943712 -3.216908,1.486303 -7.386499,1.854841 -11.232865,0.99284 -2.504171,-0.561205 -3.892054,-0.5634 -7.463324,-0.01181 -3.758932,0.58058 -6.643086,0.733438 -8.863541,0.469763 z"
       id="path16034" />
    <path
       style="fill:#a4b889;stroke-width:1.26656"
       d="m 63.691647,82.942719 c -2.255325,-0.645052 -3.773676,-1.720664 -3.773676,-2.6733 0,-1.825376 3.486877,-3.851833 7.176175,-4.170554 1.219093,-0.105318 2.716084,-0.123816 3.326646,-0.04111 l 1.110114,0.150379 -0.913228,-1.244065 c -1.259342,-1.715567 -2.222994,-3.916306 -2.411389,-5.507006 -0.152462,-1.287305 -0.130313,-1.347053 0.60536,-1.632979 2.120682,-0.824221 6.13297,0.555742 8.598619,2.957359 0.74536,0.726003 1.370997,1.284364 1.390305,1.240803 0.01931,-0.04356 -0.02443,-4.056018 -0.09719,-8.916571 l -0.132291,-8.837368 -0.602441,-0.09175 c -1.82224,-0.277511 -3.924702,-1.826439 -4.701701,-3.463842 -0.988936,-2.084028 -1.082109,-4.272078 -0.16068,-3.773367 0.240756,0.130306 1.092582,0.435884 1.892947,0.679062 0.800364,0.243178 2.249986,0.865094 3.221381,1.382035 l 1.766172,0.939893 1.673411,-0.746871 c 0.920376,-0.410779 2.088002,-1.026343 2.594725,-1.367919 0.89707,-0.604705 2.65056,-0.858963 2.65056,-0.384334 0,0.130192 -0.246447,1.034616 -0.54766,2.009831 -0.679916,2.201311 -2.136694,3.778734 -4.162474,4.507194 l -1.375282,0.494545 v 8.525051 c 0,4.688778 -0.07701,8.725744 -0.171141,8.971036 -0.113299,0.295253 0.266746,0.134763 1.12448,-0.474859 1.756481,-1.248394 2.637923,-1.663692 4.259227,-2.006765 1.551912,-0.32839 3.711114,-0.04791 4.077058,0.529619 0.674627,1.064677 -0.675202,4.378908 -2.363059,5.802012 l -0.973441,0.820749 1.091325,-0.173136 c 2.503109,-0.397111 7.191674,1.129539 7.945418,2.587119 0.587851,1.136777 0.0882,1.88697 -1.877179,2.818443 -2.646943,1.254497 -3.703104,1.453606 -7.556439,1.424555 -2.782783,-0.02098 -3.9665,-0.146561 -5.358171,-0.568447 -1.348378,-0.408762 -1.99435,-0.481849 -2.634959,-0.298125 -3.644225,1.04515 -11.858441,1.342977 -14.691525,0.532677 z"
       id="path16001" />
    <path
       style="fill:#fbb310;stroke-width:1.26656"
       d="m 63.662485,82.916558 c -4.806826,-1.417962 -4.961189,-3.72033 -0.394445,-5.883249 1.731142,-0.819909 1.948202,-0.856929 5.024455,-0.856929 2.067507,0 3.161359,-0.09444 3.064455,-0.264584 -0.08288,-0.14552 -0.489808,-0.700841 -0.904279,-1.234044 -1.599349,-2.05751 -2.730531,-5.617326 -2.088081,-6.571164 0.198714,-0.295028 0.761794,-0.392359 2.1942,-0.379279 2.495714,0.02279 4.818734,1.079523 6.858665,3.119984 l 1.418223,1.418592 -0.07375,-8.760377 c -0.04056,-4.818208 -0.119657,-8.892357 -0.175766,-9.053665 -0.05611,-0.161308 -0.579092,-0.369575 -1.162184,-0.462816 -1.369264,-0.218954 -3.181603,-1.608522 -3.979537,-3.051218 -1.135019,-2.052156 -1.345749,-4.543794 -0.338169,-3.998455 0.240756,0.130306 1.092582,0.435338 1.892947,0.677849 0.800364,0.242512 2.214507,0.858481 3.14254,1.368821 1.539541,0.846618 1.77154,0.902661 2.648726,0.63985 0.528767,-0.158423 1.769446,-0.7754 2.757065,-1.37106 2.103265,-1.268539 3.283994,-1.365034 3.139259,-0.256558 -0.13078,1.0016 -0.786063,2.847213 -1.276836,3.596228 -0.554003,0.845516 -2.309989,2.051788 -3.597734,2.47146 l -0.992187,0.32335 v 8.556799 c 0,4.70624 -0.08268,8.772266 -0.183738,9.035613 -0.126742,0.330283 0.245127,0.163998 1.198773,-0.536042 1.943551,-1.426698 3.653342,-2.016159 5.84807,-2.016159 2.049078,0 2.663629,0.355943 2.65931,1.540253 -0.0042,1.144044 -1.256985,3.509633 -2.434324,4.596547 l -1.090723,1.00695 h 2.11927 c 3.087491,0 5.881591,1.025414 6.859064,2.517226 0.399455,0.609646 0.398169,0.707863 -0.01757,1.342369 -0.695584,1.061597 -3.875602,2.440102 -6.353795,2.754306 -2.569161,0.325738 -5.722475,0.120028 -8.218868,-0.536166 -1.424231,-0.37437 -2.12082,-0.432016 -2.955156,-0.244553 -5.027473,1.129598 -11.697225,1.362832 -14.587876,0.510121 z"
       id="path15968" />
    <path
       style="fill:#94a467;stroke-width:1.26656"
       d="m 63.662485,82.916558 c -4.806826,-1.417962 -4.961189,-3.72033 -0.394445,-5.883249 1.731142,-0.819909 1.948202,-0.856929 5.024455,-0.856929 2.067507,0 3.161359,-0.09444 3.064455,-0.264584 -0.08288,-0.14552 -0.489808,-0.700841 -0.904279,-1.234044 -1.599349,-2.05751 -2.730531,-5.617326 -2.088081,-6.571164 0.198714,-0.295028 0.761794,-0.392359 2.1942,-0.379279 2.495714,0.02279 4.818734,1.079523 6.858665,3.119984 l 1.418223,1.418592 -0.07375,-8.760377 c -0.04056,-4.818208 -0.119657,-8.892357 -0.175766,-9.053665 -0.05611,-0.161308 -0.579092,-0.369575 -1.162184,-0.462816 -1.369264,-0.218954 -3.181603,-1.608522 -3.979537,-3.051218 -1.135019,-2.052156 -1.345749,-4.543794 -0.338169,-3.998455 0.240756,0.130306 1.092582,0.435338 1.892947,0.677849 0.800364,0.242512 2.214507,0.858481 3.14254,1.368821 1.539541,0.846618 1.77154,0.902661 2.648726,0.63985 0.528767,-0.158423 1.769446,-0.7754 2.757065,-1.37106 2.103265,-1.268539 3.283994,-1.365034 3.139259,-0.256558 -0.13078,1.0016 -0.786063,2.847213 -1.276836,3.596228 -0.554003,0.845516 -2.309989,2.051788 -3.597734,2.47146 l -0.992187,0.32335 v 8.556799 c 0,4.70624 -0.08268,8.772266 -0.183738,9.035613 -0.126742,0.330283 0.245127,0.163998 1.198773,-0.536042 1.943551,-1.426698 3.653342,-2.016159 5.84807,-2.016159 2.049078,0 2.663629,0.355943 2.65931,1.540253 -0.0042,1.144044 -1.256985,3.509633 -2.434324,4.596547 l -1.090723,1.00695 h 2.11927 c 3.087491,0 5.881591,1.025414 6.859064,2.517226 0.399455,0.609646 0.398169,0.707863 -0.01757,1.342369 -0.695584,1.061597 -3.875602,2.440102 -6.353795,2.754306 -2.569161,0.325738 -5.722475,0.120028 -8.218868,-0.536166 -1.424231,-0.37437 -2.12082,-0.432016 -2.955156,-0.244553 -5.027473,1.129598 -11.697225,1.362832 -14.587876,0.510121 z"
       id="path15938" />
    <path
       style="fill:#6d9747;stroke-width:1.26656"
       d="m 65.077345,83.272604 c -2.856336,-0.639276 -5.159374,-1.933295 -5.159374,-2.898921 0,-0.811704 0.891986,-1.896041 2.220232,-2.699011 1.951798,-1.179928 4.26231,-1.698761 7.077887,-1.589361 1.289098,0.05009 2.343754,0.06233 2.34368,0.02721 -7.3e-5,-0.03512 -0.435136,-0.630433 -0.966807,-1.322916 -1.223231,-1.593219 -2.124761,-3.565694 -2.328932,-5.095519 -0.236162,-1.76953 0.02588,-1.99151 2.295174,-1.944275 2.636361,0.05487 4.497029,0.914792 6.650209,3.073428 l 1.644804,1.648972 -0.08728,-8.863541 c -0.048,-4.874948 -0.131269,-8.995521 -0.185037,-9.156829 -0.05377,-0.161308 -0.56378,-0.367808 -1.13336,-0.458887 -2.462069,-0.393701 -4.82346,-3.309167 -4.828092,-5.960951 -0.0019,-1.096268 0.07318,-1.36345 0.328246,-1.167893 0.181901,0.139461 1.045104,0.46574 1.918229,0.725063 0.873125,0.259324 2.321221,0.874173 3.217991,1.366331 0.89677,0.492158 1.822899,0.894833 2.058065,0.894833 0.471542,0 3.004095,-1.252373 4.248944,-2.101145 0.436562,-0.297661 1.136848,-0.541986 1.556191,-0.542944 0.738941,-0.0017 0.757998,0.03139 0.618272,1.073125 -0.241578,1.801098 -1.416771,3.860582 -2.711098,4.751102 -0.636996,0.438265 -1.531216,0.871453 -1.987156,0.962641 -0.45594,0.09119 -0.874858,0.297695 -0.93093,0.458905 -0.05607,0.161209 -0.135135,4.243494 -0.175697,9.071745 l -0.07375,8.778637 0.79375,-0.605632 c 1.861452,-1.42029 3.644863,-2.126564 5.624536,-2.227454 2.599319,-0.132469 3.37461,0.328857 3.12943,1.862126 -0.241352,1.509335 -1.108186,3.069462 -2.299817,4.139212 -0.566605,0.508652 -1.02974,0.994587 -1.029189,1.079855 5.51e-4,0.08527 1.101879,0.159453 2.447395,0.164853 1.976918,0.0079 2.725657,0.130554 3.901603,0.638959 3.381387,1.461899 3.643212,2.934374 0.779777,4.385386 -2.131156,1.079938 -4.046286,1.448128 -7.53241,1.448128 -2.365738,0 -3.736305,-0.139982 -5.248419,-0.536042 -1.58588,-0.415381 -2.267106,-0.478871 -3.026393,-0.282057 -3.202237,0.830048 -11.064288,1.36982 -13.150679,0.902865 z"
       id="path15925" />
    <path
       style="fill:#937731;stroke-width:1.26656"
       d="m 64.352413,83.057562 c -1.792032,-0.454781 -3.322003,-1.194801 -3.984272,-1.927123 -0.966374,-1.068596 0.07756,-2.653675 2.541735,-3.859281 1.992758,-0.974966 3.914022,-1.314028 6.583388,-1.161828 l 2.322698,0.132434 -1.036676,-1.30201 c -1.390682,-1.746624 -2.134028,-3.351014 -2.374867,-5.125759 -0.178223,-1.313332 -0.140914,-1.513294 0.345973,-1.854324 0.942707,-0.660298 3.324083,-0.360004 5.589423,0.704832 1.373372,0.645561 3.428158,2.389964 4.16132,3.532736 l 0.515908,0.804141 -0.156828,-3.282686 c -0.08626,-1.805477 -0.156829,-6.061961 -0.156829,-9.458853 v -6.176169 h -0.664342 c -1.0052,0 -2.956232,-1.015237 -3.743844,-1.948142 -1.02303,-1.211754 -1.664798,-2.785796 -1.671419,-4.099435 -0.0044,-0.86991 0.08329,-1.118594 0.357314,-1.013443 0.199718,0.07664 1.181984,0.383362 2.182812,0.681605 1.000828,0.298244 2.467648,0.951006 3.259599,1.450582 1.122129,0.707858 1.571023,0.858472 2.033992,0.682452 1.079157,-0.410295 3.394556,-1.63753 4.036257,-2.139344 0.347046,-0.271392 0.972124,-0.493441 1.389062,-0.493441 0.629138,0 0.758069,0.110811 0.758069,0.651533 0,1.162168 -1.04321,3.478483 -1.995516,4.430788 -0.820691,0.820691 -1.930473,1.448438 -3.343192,1.891071 -0.401754,0.125877 -0.452012,0.988685 -0.529166,9.08441 -0.04689,4.919927 -0.06336,8.987059 -0.0366,9.038072 0.02676,0.05101 0.324415,-0.168048 0.661458,-0.486801 0.337043,-0.318753 1.327181,-0.944473 2.200306,-1.390488 2.020743,-1.032249 5.003989,-1.329619 6.104552,-0.608503 0.607696,0.398178 0.671296,0.57291 0.518125,1.423468 -0.30491,1.693157 -1.162871,3.101165 -2.866274,4.70387 -0.91037,0.856554 -1.889861,1.712543 -2.176645,1.902198 -0.286784,0.189655 0.161381,-0.0187 0.995921,-0.463021 1.143313,-0.60871 1.860744,-0.807074 2.910416,-0.804708 2.719002,0.0061 5.980702,1.281239 6.66568,2.605841 0.345803,0.668707 0.342097,0.818274 -0.03356,1.354605 -0.547334,0.781428 -3.211149,1.982532 -5.314717,2.396383 -2.083501,0.409904 -7.563538,0.188803 -9.581619,-0.386587 -1.11583,-0.318141 -1.763734,-0.356125 -2.778125,-0.16287 -0.727604,0.138619 -2.037292,0.387074 -2.910417,0.552122 -2.623163,0.495862 -9.020102,0.568069 -10.779098,0.121673 z m 17.393681,-2.918098 c 0.673219,-0.58801 0.60291,-0.567977 -0.46302,0.131922 -0.691224,0.453864 -1.256771,0.883207 -1.256771,0.954097 0,0.207492 0.862196,-0.33697 1.719791,-1.086019 z m 13.770092,0.118931 c 0.325556,-0.526762 -0.01058,-0.407656 -0.673217,0.238544 -0.599123,0.584264 -0.606745,0.616648 -0.08088,0.343637 0.319318,-0.16578 0.658662,-0.427761 0.754099,-0.582181 z M 80.022251,79.549817 c -0.0025,-0.285599 -0.07854,-0.351493 -0.198437,-0.171964 -0.106913,0.160081 -0.37298,0.35904 -0.591261,0.442132 -0.265191,0.100949 -0.199348,0.158007 0.198437,0.171965 0.399956,0.01403 0.593983,-0.131057 0.591261,-0.442133 z m 12.704051,-1.918229 c -0.218281,-0.141064 -0.635,-0.246435 -0.926042,-0.234158 -0.435938,0.01839 -0.412631,0.05964 0.132292,0.234158 0.935481,0.299593 1.257338,0.299593 0.79375,0 z M 79.4806,74.605416 c -0.310372,-0.829542 -0.607528,-1.465041 -0.660348,-1.412221 -0.05282,0.05282 0.155039,0.777616 0.46191,1.610659 0.306871,0.833042 0.604027,1.468542 0.660348,1.412221 0.05632,-0.05632 -0.151539,-0.781117 -0.46191,-1.610659 z"
       id="path15912" />
    <path
       style="fill:#63913a;stroke-width:1.26656"
       d="m 64.352413,83.057562 c -1.792032,-0.454781 -3.322003,-1.194801 -3.984272,-1.927123 -0.966374,-1.068596 0.07756,-2.653675 2.541735,-3.859281 1.992758,-0.974966 3.914022,-1.314028 6.583388,-1.161828 l 2.322698,0.132434 -1.036676,-1.30201 c -1.390682,-1.746624 -2.134028,-3.351014 -2.374867,-5.125759 -0.178223,-1.313332 -0.140914,-1.513294 0.345973,-1.854324 0.942707,-0.660298 3.324083,-0.360004 5.589423,0.704832 1.373372,0.645561 3.428158,2.389964 4.16132,3.532736 l 0.515908,0.804141 -0.156828,-3.282686 c -0.08626,-1.805477 -0.156829,-6.061961 -0.156829,-9.458853 v -6.176169 h -0.664342 c -1.0052,0 -2.956232,-1.015237 -3.743844,-1.948142 -1.02303,-1.211754 -1.664798,-2.785796 -1.671419,-4.099435 -0.0044,-0.86991 0.08329,-1.118594 0.357314,-1.013443 0.199718,0.07664 1.181984,0.383362 2.182812,0.681605 1.000828,0.298244 2.467648,0.951006 3.259599,1.450582 1.122129,0.707858 1.571023,0.858472 2.033992,0.682452 1.079157,-0.410295 3.394556,-1.63753 4.036257,-2.139344 0.347046,-0.271392 0.972124,-0.493441 1.389062,-0.493441 0.629138,0 0.758069,0.110811 0.758069,0.651533 0,1.162168 -1.04321,3.478483 -1.995516,4.430788 -0.820691,0.820691 -1.930473,1.448438 -3.343192,1.891071 -0.401754,0.125877 -0.452012,0.988685 -0.529166,9.08441 -0.04689,4.919927 -0.06336,8.987059 -0.0366,9.038072 0.02676,0.05101 0.324415,-0.168048 0.661458,-0.486801 0.337043,-0.318753 1.327181,-0.944473 2.200306,-1.390488 2.020743,-1.032249 5.003989,-1.329619 6.104552,-0.608503 0.607696,0.398178 0.671296,0.57291 0.518125,1.423468 -0.30491,1.693157 -1.162871,3.101165 -2.866274,4.70387 -0.91037,0.856554 -1.889861,1.712543 -2.176645,1.902198 -0.286784,0.189655 0.161381,-0.0187 0.995921,-0.463021 1.143313,-0.60871 1.860744,-0.807074 2.910416,-0.804708 2.719002,0.0061 5.980702,1.281239 6.66568,2.605841 0.345803,0.668707 0.342097,0.818274 -0.03356,1.354605 -0.547334,0.781428 -3.211149,1.982532 -5.314717,2.396383 -2.083501,0.409904 -7.563538,0.188803 -9.581619,-0.386587 -1.11583,-0.318141 -1.763734,-0.356125 -2.778125,-0.16287 -0.727604,0.138619 -2.037292,0.387074 -2.910417,0.552122 -2.623163,0.495862 -9.020102,0.568069 -10.779098,0.121673 z m 17.393681,-2.918098 c 0.673219,-0.58801 0.60291,-0.567977 -0.46302,0.131922 -0.691224,0.453864 -1.256771,0.883207 -1.256771,0.954097 0,0.207492 0.862196,-0.33697 1.719791,-1.086019 z m 13.770092,0.118931 c 0.325556,-0.526762 -0.01058,-0.407656 -0.673217,0.238544 -0.599123,0.584264 -0.606745,0.616648 -0.08088,0.343637 0.319318,-0.16578 0.658662,-0.427761 0.754099,-0.582181 z M 80.022251,79.549817 c -0.0025,-0.285599 -0.07854,-0.351493 -0.198437,-0.171964 -0.106913,0.160081 -0.37298,0.35904 -0.591261,0.442132 -0.265191,0.100949 -0.199348,0.158007 0.198437,0.171965 0.399956,0.01403 0.593983,-0.131057 0.591261,-0.442133 z m 12.704051,-1.918229 c -0.218281,-0.141064 -0.635,-0.246435 -0.926042,-0.234158 -0.435938,0.01839 -0.412631,0.05964 0.132292,0.234158 0.935481,0.299593 1.257338,0.299593 0.79375,0 z M 79.4806,74.605416 c -0.310372,-0.829542 -0.607528,-1.465041 -0.660348,-1.412221 -0.05282,0.05282 0.155039,0.777616 0.46191,1.610659 0.306871,0.833042 0.604027,1.468542 0.660348,1.412221 0.05632,-0.05632 -0.151539,-0.781117 -0.46191,-1.610659 z"
       id="path15899" />
    <path
       style="fill:#618e39;stroke-width:1.26656"
       d="m 79.025143,76.448258 c 0.104206,-0.11541 -0.104154,-0.440797 -0.463021,-0.723082 -0.647534,-0.50935 -0.858567,-1.004005 -0.428335,-1.004005 0.123284,0 0.363883,0.267891 0.534667,0.595313 0.289924,0.555837 0.301109,0.542678 0.168665,-0.198438 -0.134149,-0.750662 -0.120086,-0.76587 0.259084,-0.280159 0.486689,0.623442 0.518917,1.371658 0.0702,1.62988 -0.181901,0.10468 -0.24547,0.0959 -0.141264,-0.01951 z"
       id="path15885" />
    <path
       style="fill:#618e39;stroke-width:1.26656"
       d="m 76.494857,77.509054 c -0.268806,-0.203658 -0.644479,-0.310525 -0.834827,-0.237481 -0.190349,0.07304 -1.101511,-0.261113 -2.024804,-0.742571 -0.923293,-0.481458 -1.797777,-0.848903 -1.943298,-0.816545 -0.371694,0.08265 -2.270452,-2.607539 -2.810115,-3.981411 -0.247274,-0.629511 -0.487501,-1.669648 -0.533838,-2.311414 -0.07438,-1.030116 -0.0019,-1.213094 0.618856,-1.561492 0.889886,-0.49948 3.396459,-0.125236 5.37093,0.801907 1.619433,0.76043 4.517753,3.484258 4.220037,3.965972 -0.151535,0.245189 -0.257664,0.198908 -0.400654,-0.174716 -0.106983,-0.279541 -0.641037,-0.924975 -1.186787,-1.434298 -0.54575,-0.509323 -0.907834,-0.777214 -0.804632,-0.595313 0.103203,0.181902 0.07147,0.33073 -0.07051,0.33073 -0.141983,0 -0.318204,-0.148828 -0.391602,-0.33073 -0.104526,-0.259042 -0.13798,-0.257242 -0.15434,0.0083 -0.01149,0.186469 0.157705,0.407566 0.375986,0.491329 0.218282,0.08376 0.410687,0.407447 0.427567,0.7193 0.02537,0.468631 0.05217,0.484132 0.154512,0.08934 0.150576,-0.580881 0.755425,-0.43274 0.704565,0.172563 -0.01995,0.237433 0.05573,0.374834 0.168182,0.305336 0.260168,-0.160792 0.536487,1.230501 0.314941,1.585756 -0.09127,0.14635 -0.136203,0.563747 -0.09986,0.927549 0.0643,0.643642 0.05502,0.64741 -0.34473,0.139884 -0.225947,-0.286866 -0.356172,-0.663966 -0.289389,-0.837999 0.06678,-0.174034 -0.04454,-0.38011 -0.247381,-0.457948 -0.291393,-0.111818 -0.317029,-0.0053 -0.122134,0.50727 0.135669,0.356836 0.181582,0.648793 0.102029,0.648793 -0.332627,0 0.632344,0.744541 1.077496,0.831361 0.267002,0.05208 0.514968,0.273275 0.551036,0.491556 0.03607,0.218281 0.149352,0.605234 0.251742,0.859896 0.110261,0.274239 0.06675,0.463021 -0.106728,0.463021 -0.16109,0 -0.29289,-0.178594 -0.29289,-0.396875 0,-0.218282 -0.154782,-0.396875 -0.343959,-0.396875 -0.508156,0 -0.958024,0.54044 -0.797683,0.958282 0.173244,0.451467 0.08285,0.447688 -0.537721,-0.02248 z m 0.554883,-0.75785 c 0.409171,-0.258792 0.436932,-0.971699 0.03784,-0.971699 -0.16109,0 -0.228865,0.166848 -0.150611,0.370775 0.152988,0.39868 -0.25222,0.419518 -0.85415,0.04393 -0.247091,-0.154181 -0.311718,-0.134972 -0.192872,0.05733 0.09831,0.159061 -0.02415,0.402746 -0.272134,0.541521 -0.360305,0.201637 -0.29499,0.243784 0.325165,0.209826 0.426819,-0.02337 0.924862,-0.136625 1.106763,-0.251673 z m -1.239927,-2.267362 c 0.289778,0.468869 0.570548,0.167756 0.358597,-0.384579 -0.149081,-0.388498 -0.245017,-0.376928 -0.932269,0.112439 -0.421349,0.300027 -0.766088,0.656458 -0.766088,0.792069 0,0.135612 0.252178,-0.0056 0.560397,-0.313829 0.443975,-0.443976 0.605886,-0.486793 0.779363,-0.2061 z m -4.366892,0.09662 c -0.282475,-0.213653 -0.388282,-0.38846 -0.235128,-0.38846 0.154357,0 0.222108,-0.2948 0.152017,-0.661459 -0.07381,-0.386119 -0.0035,-0.661458 0.168982,-0.661458 0.162485,0 0.265662,0.133945 0.229282,0.297656 -0.105665,0.475493 0.513418,0.561971 0.691975,0.09666 0.09374,-0.244277 0.05178,-0.353767 -0.09969,-0.260151 -0.143854,0.08891 -0.261553,0.0261 -0.261553,-0.139572 0,-0.197043 -0.274521,-0.240926 -0.79375,-0.126884 -0.499397,0.109686 -0.79375,0.06842 -0.79375,-0.11127 0,-0.157083 -0.19248,-0.285605 -0.427733,-0.285605 -0.289118,0 -0.385371,-0.161996 -0.297013,-0.499878 0.0719,-0.274933 0.01502,-0.661886 -0.126392,-0.859896 -0.196437,-0.275058 -0.221963,-0.250751 -0.108166,0.103003 0.08192,0.254661 0.03617,0.463021 -0.101661,0.463021 -0.144214,0 -0.122658,0.280815 0.05077,0.661458 0.165759,0.363802 0.408358,0.661458 0.539109,0.661458 0.130751,0 0.171625,0.106958 0.09083,0.237684 -0.159031,0.257317 1.242155,1.884384 1.610883,1.870568 0.123516,-0.0046 -0.0065,-0.183222 -0.289015,-0.396875 z m 2.365674,-0.917627 c -0.08994,-0.145521 0.02913,-0.264583 0.264583,-0.264583 0.267602,0 0.356749,0.123995 0.237779,0.330729 -0.104679,0.181901 -0.08842,0.237986 0.03614,0.124633 0.489005,-0.445017 0.349624,-1.011207 -0.229278,-0.931371 -0.711747,0.09816 -1.048971,0.526808 -0.625987,0.795703 0.42942,0.272987 0.510789,0.25883 0.316763,-0.05511 z m -0.220486,-3.253233 c 0,-0.18855 -0.28435,-0.366351 -0.631888,-0.395114 -0.36818,-0.03047 -0.562985,0.05919 -0.466787,0.214841 0.09081,0.146926 0.267709,0.203722 0.393119,0.126215 0.125411,-0.07751 0.302804,-0.01992 0.394208,0.127975 0.222405,0.35986 0.311348,0.338744 0.311348,-0.07392 z m 1.801022,-0.439665 c 0.157296,-0.254512 -1.396118,-1.209923 -1.613608,-0.992433 -0.0639,0.0639 0.252853,0.269049 0.703902,0.45588 0.595199,0.246539 0.724498,0.400306 0.471505,0.560729 -0.241068,0.15286 -0.251392,0.222286 -0.03347,0.225087 0.173313,0.0022 0.385565,-0.10994 0.471671,-0.249263 z m -1.977411,-0.94684 c 0,-0.196932 -0.645173,-0.53735 -1.476357,-0.778982 -1.191204,-0.346292 -1.654558,-0.370377 -2.398978,-0.124696 -0.507441,0.167471 -0.884877,0.326316 -0.838747,0.352991 0.04613,0.02667 0.321999,0.223167 0.61304,0.436651 0.480487,0.352445 0.498088,0.34836 0.191327,-0.0444 -0.28966,-0.370866 -0.244657,-0.45594 0.315568,-0.596548 0.804807,-0.201994 2.189947,0.352634 1.683426,0.674065 -0.232749,0.1477 -0.157443,0.215905 0.24146,0.218693 0.318834,0.0022 0.650069,0.117914 0.736078,0.25708 0.21281,0.344334 0.933183,0.03953 0.933183,-0.394853 z"
       id="path15882" />
    <path
       style="fill:#618e39;stroke-width:1.26656"
       d="m 79.432684,78.801858 c -0.09002,-0.09002 -0.0996,-0.330625 -0.0213,-0.534679 0.08574,-0.223436 -0.02675,-0.371008 -0.282813,-0.371008 -0.233851,0 -0.425183,-0.126089 -0.425183,-0.280198 0,-0.154109 0.117699,-0.207456 0.261553,-0.11855 0.147206,0.09098 0.195905,-0.0094 0.111392,-0.229663 -0.111668,-0.291003 -0.0092,-0.354439 0.399906,-0.247467 0.302536,0.07912 0.567925,0.368084 0.589753,0.642154 0.02183,0.274069 0.05159,0.637214 0.06615,0.806988 0.03006,0.350668 -0.45207,0.579805 -0.699452,0.332423 z"
       id="path15876" />
    <path
       style="fill:#618e39;stroke-width:1.26656"
       d="m 78.497674,79.071793 c -0.323421,-0.226533 -0.584417,-0.553954 -0.579992,-0.727604 0.0044,-0.173649 0.129404,-0.107367 0.27773,0.147295 0.148327,0.254661 0.501894,0.463021 0.785705,0.463021 0.28381,0 0.516019,0.119062 0.516019,0.264583 0,0.375605 -0.320314,0.328399 -0.999462,-0.147295 z"
       id="path15874" />
    <path
       style="fill:#618e39;stroke-width:1.26656"
       d="m 90.609636,80.570312 c 0,-0.129952 0.188331,-0.308546 0.418514,-0.396875 0.597547,-0.2293 0.641174,-0.207411 0.470916,0.236276 -0.162814,0.424286 -0.88943,0.555486 -0.88943,0.160599 z"
       id="path15864" />
    <path
       style="fill:#618e39;stroke-width:1.26656"
       d="m 92.831139,80.143154 c 0.162212,-0.518257 0.44424,-0.832887 0.768476,-0.857311 0.497871,-0.0375 0.498372,-0.02814 0.01789,0.33414 -0.469157,0.353746 -0.463655,0.367206 0.108052,0.264329 0.3364,-0.06053 0.533951,0.0023 0.447405,0.142357 -0.08523,0.137913 -0.415837,0.26262 -0.734671,0.277126 -0.539642,0.02455 -0.533992,0.04101 0.08176,0.238209 0.746287,0.239003 0.691888,0.313681 -0.274148,0.376348 -0.633014,0.04106 -0.656507,-0.0028 -0.414764,-0.775198 z"
       id="path15862" />
    <path
       style="fill:#618e39;stroke-width:1.26656"
       d="m 64.352413,83.057562 c -1.792032,-0.454781 -3.322003,-1.194801 -3.984272,-1.927123 -0.966374,-1.068596 0.07756,-2.653675 2.541735,-3.859281 1.993828,-0.97549 3.913793,-1.314041 6.587517,-1.161593 1.623917,0.09259 2.328051,0.04279 2.330878,-0.164841 0.0026,-0.193815 0.0718,-0.204037 0.198438,-0.02933 0.250633,0.345784 2.88301,1.592297 3.846754,1.821559 0.408074,0.09708 1.397879,0.71076 2.199567,1.363743 1.413358,1.151196 1.953273,1.289307 1.953273,0.49965 0,-0.209693 0.135647,-0.38126 0.301437,-0.38126 0.476346,0 0.09161,-2.343562 -0.699947,-4.2636 L 78.93127,73.265963 78.77701,63.674818 78.622749,54.083672 h -0.60869 c -1.592236,0 -3.779857,-1.623042 -4.713836,-3.497295 -0.762398,-1.529933 -0.966777,-3.812251 -0.319128,-3.563725 0.199718,0.07664 1.181984,0.383362 2.182812,0.681605 1.000828,0.298244 2.467648,0.951006 3.259599,1.450582 1.122129,0.707858 1.571023,0.858472 2.033992,0.682452 1.079157,-0.410295 3.394556,-1.63753 4.036257,-2.139344 0.347046,-0.271392 0.972124,-0.493441 1.389062,-0.493441 0.629138,0 0.758069,0.110811 0.758069,0.651533 0,1.162168 -1.04321,3.478483 -1.995516,4.430788 -0.820691,0.820691 -1.930473,1.448438 -3.343192,1.891071 -0.401754,0.125877 -0.452012,0.988685 -0.529166,9.08441 -0.04689,4.919927 -0.06336,8.987059 -0.0366,9.038072 0.02676,0.05101 0.324415,-0.168048 0.661458,-0.486801 0.337043,-0.318753 1.327181,-0.944473 2.200306,-1.390488 2.020743,-1.032249 5.003989,-1.329619 6.104552,-0.608503 0.607696,0.398178 0.671296,0.57291 0.518125,1.423468 -0.09603,0.533266 -0.407806,1.459382 -0.692829,2.058037 -0.573285,1.204108 -3.333884,3.939591 -4.717404,4.674485 -0.487983,0.259205 -0.821914,0.536609 -0.74207,0.616454 0.07984,0.07984 0.453158,-0.05663 0.829586,-0.303275 0.697746,-0.45718 0.942095,-0.221933 0.366915,0.353248 -0.246945,0.246944 -0.214077,0.3175 0.147906,0.3175 0.255974,0 0.412828,-0.0893 0.348566,-0.198438 -0.178009,-0.302322 0.296295,-1.389062 0.606251,-1.389062 0.150211,0 0.282509,0.208359 0.293998,0.46302 0.01248,0.276606 0.07462,0.329867 0.15434,0.132292 0.15546,-0.38527 1.046119,-0.444541 1.268681,-0.08443 0.08372,0.135466 0.04139,0.314801 -0.09408,0.398523 -0.135465,0.08372 -0.296052,0.003 -0.356858,-0.17945 -0.06931,-0.207917 -0.226313,-0.115383 -0.420788,0.247996 -0.279514,0.522278 -0.2531,0.568667 0.266793,0.468545 0.317362,-0.06112 0.756964,0.0349 0.976893,0.213376 0.33652,0.273089 0.370105,0.245214 0.211986,-0.175944 -0.159534,-0.424926 -0.127083,-0.449982 0.215045,-0.166041 0.2631,0.218354 0.402932,0.234223 0.402932,0.04573 0,-0.160547 0.195418,-0.213687 0.440278,-0.119726 0.319683,0.122674 0.380957,0.07297 0.223703,-0.181476 -0.153066,-0.247667 -0.115247,-0.287802 0.12897,-0.136867 0.268924,0.166204 0.233988,0.297316 -0.157557,0.591283 -0.491099,0.368713 -0.490477,0.376492 0.02606,0.326021 0.876731,-0.08567 1.190625,-0.0059 1.190625,0.302497 0,0.185806 -0.259307,0.228184 -0.707663,0.115654 -0.62442,-0.156719 -0.66667,-0.128218 -0.359171,0.242295 0.19167,0.230948 0.265519,0.502877 0.16411,0.604287 -0.10141,0.10141 -0.295147,0.0092 -0.430527,-0.204831 -0.143517,-0.226934 -0.247835,-0.260341 -0.250197,-0.08012 -0.0022,0.169999 -0.08215,0.512615 -0.177607,0.761368 -0.148774,0.387698 -0.03287,0.435854 0.811749,0.33725 0.756704,-0.08834 1.044676,-0.0041 1.241198,0.363111 0.17019,0.318001 0.164161,0.478139 -0.018,0.478139 -0.150641,0 -0.273893,-0.108527 -0.273893,-0.241172 0,-0.132644 -0.208359,-0.201285 -0.463021,-0.152535 -0.254661,0.04875 -0.559344,0.09775 -0.677073,0.10888 -0.117729,0.01113 -0.140468,0.139307 -0.05053,0.284827 0.0954,0.154364 -0.173641,0.264584 -0.645843,0.264584 -0.445151,0 -0.809365,-0.127086 -0.809365,-0.282413 0,-0.162008 0.225607,-0.210808 0.529167,-0.114462 0.291041,0.09237 0.529166,0.06683 0.529166,-0.05675 0,-0.123588 -0.284405,-0.248243 -0.632012,-0.277012 -0.433789,-0.0359 -0.67497,0.111966 -0.768979,0.471459 -0.184428,0.705251 -1.771946,0.759487 -1.77806,0.06074 -0.003,-0.347969 -0.05866,-0.376908 -0.223835,-0.116463 -0.208963,0.329496 -2.715989,0.39617 -3.321362,0.08833 -0.13307,-0.06767 -0.60932,-0.14752 -1.058327,-0.177442 l -0.816376,-0.0544 0.926042,0.391209 c 1.190672,0.503003 8.276464,0.62773 8.750225,0.154024 0.170549,-0.170529 0.475691,-0.246506 0.678093,-0.168837 0.202402,0.07767 0.515316,0.02934 0.695363,-0.107407 0.180048,-0.136743 0.878326,-0.451998 1.551729,-0.700568 1.673518,-0.617735 2.259679,-1.289743 1.870335,-2.14426 -0.373697,-0.820175 -2.340833,-1.810669 -4.467638,-2.249549 -1.494243,-0.308346 -2.138325,-0.277945 -3.641809,0.171896 -0.477971,0.143009 -0.484365,0.122173 -0.08504,-0.277147 1.27076,-1.27076 7.276359,0.22475 8.37412,2.085317 0.465468,0.788909 0.476602,0.926842 0.116335,1.441196 -0.526631,0.751871 -3.32422,2.014652 -5.253362,2.371273 -2.365643,0.437313 -6.059435,0.335817 -8.795298,-0.241673 -1.903566,-0.401807 -2.736647,-0.462645 -3.704166,-0.270504 -3.691327,0.733066 -4.743923,0.853982 -8.259716,0.948828 -2.783286,0.07509 -4.253361,-0.0023 -5.35514,-0.281912 z m 18.563994,-1.878574 c -0.167326,-0.201615 -0.397325,-0.309037 -0.511109,-0.238715 -0.113784,0.07032 -0.277523,-0.05624 -0.363865,-0.281238 -0.08989,-0.234261 -0.04521,-0.340014 0.104567,-0.247449 0.143854,0.08891 0.261553,-0.02397 0.261553,-0.250842 0,-0.226869 0.0893,-0.39839 0.198437,-0.381157 0.527811,0.08334 0.746503,-0.07517 0.746503,-0.541074 0,-0.280357 -0.123315,-0.436715 -0.274033,-0.347461 -0.419998,0.248721 -3.052157,2.235618 -3.052157,2.303935 0,0.03313 0.369415,0.07074 0.820923,0.08358 0.451508,0.01284 0.858549,0.06072 0.904535,0.10641 0.04599,0.04569 0.395295,0.10051 0.776243,0.121827 0.562094,0.03145 0.635296,-0.03033 0.388403,-0.327816 z m 3.459895,0.207749 c 0,-0.11748 0.356871,-0.188894 0.793046,-0.158696 0.466315,0.03228 0.72653,-0.05272 0.631598,-0.206325 -0.0888,-0.143675 -0.386017,-0.202502 -0.660491,-0.130726 -0.765669,0.200227 -0.920712,-0.376088 -0.247772,-0.921002 0.330317,-0.267474 0.471888,-0.486317 0.314602,-0.486317 -0.157286,0 -0.542954,0.347584 -0.85704,0.772408 -0.322727,0.436511 -0.728878,0.711849 -0.933962,0.63315 -0.199593,-0.07659 -0.362897,-0.01619 -0.362897,0.134234 0,0.236419 0.410336,0.435727 1.124479,0.546183 0.109141,0.01688 0.198437,-0.06543 0.198437,-0.182909 z m -1.945391,-0.82178 c -0.03699,-0.905006 -0.318043,-0.845728 -0.499868,0.105429 -0.08076,0.42248 -0.007,0.665368 0.202088,0.665368 0.194508,0 0.316388,-0.315482 0.29778,-0.770797 z m -0.700442,-0.170859 c 0,-0.209693 -0.119062,-0.38126 -0.264583,-0.38126 -0.145521,0 -0.264583,0.245151 -0.264583,0.544781 0,0.29963 0.119062,0.471197 0.264583,0.38126 0.145521,-0.08994 0.264583,-0.335088 0.264583,-0.544781 z m 5.112982,0.238396 c 0.09575,-0.09575 0.04356,-0.331374 -0.115977,-0.523606 -0.335046,-0.403706 -1.41837,0.01595 -1.152342,0.446391 0.177415,0.287064 1.00791,0.337624 1.268319,0.07721 z"
       id="path15845" />
    <path
       style="fill:#5b8b35;stroke-width:1.26656"
       d="m 70.374774,74.315677 c -1.351222,-1.864964 -1.956938,-3.385264 -1.975354,-4.95799 -0.01272,-1.08626 0.07465,-1.303191 0.626034,-1.554419 0.937943,-0.427355 3.259755,-0.0563 5.077352,0.811417 1.640002,0.782937 3.873831,2.593984 4.383447,3.55382 0.165951,0.312561 -0.500868,-0.180808 -1.48182,-1.096373 -1.399799,-1.306494 -1.907019,-1.630101 -2.357402,-1.504022 -0.409238,0.114561 -0.469867,0.08863 -0.211355,-0.09038 0.268574,-0.185979 -0.01999,-0.394126 -1.113701,-0.803336 -2.107936,-0.788679 -2.727279,-0.913198 -3.534477,-0.710604 -0.572566,0.143705 -0.638006,0.231338 -0.330729,0.44289 0.286267,0.197086 0.232631,0.221418 -0.212236,0.09628 -0.516314,-0.145232 -0.595117,-0.06853 -0.593837,0.57798 0.0025,1.282461 0.543472,2.775272 1.607378,4.435872 0.564228,0.880675 1.028369,1.488119 1.031424,1.349874 0.0031,-0.138245 0.14843,-0.108479 0.323055,0.06615 0.203357,0.203356 0.225974,0.409026 0.06291,0.572088 -0.163061,0.163062 -0.63067,-0.264482 -1.300691,-1.189249 z"
       id="path15700" />
    <path
       style="fill:#5b8b35;stroke-width:1.26656"
       d="m 87.434636,76.796238 c 0,-0.275758 3.097105,-0.299037 3.265526,-0.02455 0.06697,0.109141 -0.640383,0.209483 -1.571885,0.222983 -0.931503,0.0135 -1.693641,-0.0758 -1.693641,-0.198437 z"
       id="path15699" />
    <path
       style="fill:#5b8b35;stroke-width:1.26656"
       d="m 64.352413,83.057562 c -1.80167,-0.457226 -3.322617,-1.195483 -3.995269,-1.939276 -1.006274,-1.112698 0.203623,-2.70058 3.088001,-4.052727 1.827224,-0.856571 2.014869,-0.889179 5.116782,-0.889179 3.148681,0 3.229101,-0.01465 3.63098,-0.661459 0.253475,-0.407957 0.413921,-0.509358 0.418651,-0.264583 0.0042,0.218281 0.665674,0.740696 1.469903,1.160923 0.804228,0.420226 1.409588,0.816692 1.345244,0.881036 -0.06434,0.06434 -0.39521,-0.065 -0.735258,-0.287443 -0.901777,-0.589885 -2.603761,-1.265522 -2.595818,-1.030463 0.0077,0.228196 1.50498,0.95257 3.402654,1.646194 0.701036,0.256237 1.898258,0.95885 2.660491,1.561361 0.762234,0.602511 1.465187,1.095475 1.562117,1.095475 0.09693,0 0.33819,-0.36588 0.536134,-0.813066 0.43867,-0.991024 0.262252,-2.297512 -0.61482,-4.553116 -0.735088,-1.89046 -0.920138,-4.857159 -0.931933,-14.940588 l -0.0069,-5.886979 h -0.739308 c -1.217499,0 -3.508502,-1.559596 -4.389773,-2.988329 -0.913944,-1.481703 -1.358265,-4.36627 -0.629475,-4.086607 0.219664,0.08429 1.218249,0.397278 2.219077,0.695521 1.000828,0.298244 2.467648,0.951006 3.259599,1.450582 1.122129,0.707858 1.571023,0.858472 2.033992,0.682452 1.079157,-0.410295 3.394556,-1.63753 4.036257,-2.139344 0.347046,-0.271392 0.972124,-0.493441 1.389062,-0.493441 0.629138,0 0.758069,0.110811 0.758069,0.651533 0,0.856809 -0.942008,3.296361 -1.554543,4.025858 -0.657287,0.782793 -2.933977,2.201775 -3.532644,2.201775 -0.267119,0 -0.546466,0.158431 -0.620772,0.352069 -0.15118,0.393967 -0.298925,17.904395 -0.151068,17.904264 0.05175,-4.6e-5 0.455679,-0.304335 0.897613,-0.676198 1.552856,-1.306642 3.389131,-2.044671 5.418367,-2.17773 1.513294,-0.09923 2.056662,-0.0307 2.604891,0.328511 0.608682,0.398824 0.671206,0.57153 0.515333,1.423468 -0.09757,0.533266 -0.433379,1.487021 -0.746248,2.119457 -0.659552,1.333225 -3.33084,3.907249 -4.836653,4.660543 -0.570341,0.285318 -1.915107,1.148521 -2.988368,1.918229 -1.073261,0.769708 -2.144823,1.401293 -2.38125,1.403521 -0.372014,0.0035 -0.376752,0.03763 -0.0352,0.253566 0.248223,0.156932 0.488749,0.155428 0.648229,-0.0041 0.316355,-0.316355 1.65447,-0.333712 1.845917,-0.02394 0.07805,0.126292 -0.06375,0.229034 -0.315114,0.228314 -1.167418,-0.0033 -1.145798,0.135123 0.07214,0.462012 1.955876,0.524949 6.085222,0.738542 8.229052,0.425654 1.965681,-0.286889 5.013291,-1.490369 5.617286,-2.218229 0.740542,-0.892408 -0.336323,-2.13516 -2.469255,-2.849634 -1.196047,-0.400643 -1.974103,-0.944744 -0.926042,-0.647588 1.935529,0.548779 3.355327,1.411009 3.702132,2.248271 0.249949,0.603431 0.276408,0.990469 0.08839,1.292968 -0.452849,0.728584 -3.556467,2.100477 -5.505254,2.433489 -2.279222,0.389477 -7.118172,0.176197 -9.133184,-0.402551 -1.498243,-0.430322 -2.07988,-0.389183 -6.217708,0.439786 -2.31401,0.463586 -8.807865,0.512806 -10.514515,0.07969 z"
       id="path15693" />
    <path
       style="fill:#44772f;stroke-width:1.26656"
       d="m 69.773699,67.659621 c 0.254662,-0.06655 0.67138,-0.06655 0.926042,0 0.254661,0.06655 0.0463,0.121 -0.463021,0.121 -0.509323,0 -0.717682,-0.05445 -0.463021,-0.121 z"
       id="path15609" />
    <path
       style="fill:#44772f;stroke-width:1.26656"
       d="m 77.801123,71.584691 c -0.449985,-0.72809 -3.387047,-2.623877 -4.884208,-3.152611 -1.314296,-0.464154 -1.492438,-0.577197 -0.710433,-0.450813 1.486005,0.240161 3.285351,1.218959 4.796302,2.609066 0.71705,0.659701 1.221457,1.204185 1.120905,1.209963 -0.100553,0.0058 -0.245708,-0.09124 -0.322566,-0.215605 z"
       id="path15602" />
    <path
       style="fill:#44772f;stroke-width:1.26656"
       d="m 70.393011,74.379279 c -1.221861,-1.601942 -2.045691,-3.756181 -1.957127,-5.117705 0.05419,-0.833006 0.212572,-1.281364 0.477919,-1.352884 0.328445,-0.08853 0.333581,-0.06272 0.02979,0.149696 -0.892359,0.623933 0.349444,4.773511 1.943135,6.493133 0.356205,0.38435 0.540326,0.698819 0.40916,0.698819 -0.131167,0 -0.53746,-0.391977 -0.902874,-0.871059 z"
       id="path15598" />
    <path
       style="fill:#44772f;stroke-width:1.26656"
       d="m 94.520192,81.134773 c 0.483882,-0.240714 0.936918,-0.706921 1.023963,-1.053734 0.08586,-0.342106 0.212218,-0.565908 0.280789,-0.497337 0.464884,0.464885 -1.107213,2.068 -1.961024,1.999714 -0.116367,-0.0093 0.178955,-0.211196 0.656272,-0.448643 z"
       id="path15592" />
    <path
       style="fill:#44772f;stroke-width:1.26656"
       d="m 87.236198,82.998329 c 0.400183,-0.06062 1.055026,-0.06062 1.455208,0 0.400183,0.06062 0.07276,0.110222 -0.727604,0.110222 -0.800364,0 -1.127786,-0.0496 -0.727604,-0.110222 z"
       id="path15586" />
    <path
       style="fill:#44772f;stroke-width:1.26656"
       d="m 65.606512,83.280832 c -3.964144,-0.825576 -5.945571,-2.009062 -5.550373,-3.315179 0.313448,-1.035936 1.405026,-1.970038 3.389006,-2.900094 1.819361,-0.852885 2.03178,-0.890355 5.204075,-0.917972 2.961862,-0.02578 3.431646,0.03473 4.497916,0.579397 0.654844,0.334505 1.807813,0.83904 2.562153,1.12119 0.75434,0.28215 1.897696,0.944155 2.540791,1.471123 0.643096,0.526968 1.291385,0.958124 1.440644,0.958124 0.149259,0 0.420638,-0.360341 0.603065,-0.800759 0.420458,-1.015074 0.208655,-2.616558 -0.63458,-4.798177 -0.628263,-1.625445 -0.652872,-1.950131 -0.798909,-10.540646 -0.08287,-4.874948 -0.152082,-9.131432 -0.153796,-9.458854 -0.0025,-0.474584 -0.153049,-0.595313 -0.742426,-0.595313 -1.228695,0 -3.492447,-1.558332 -4.384113,-3.017956 -0.958928,-1.569728 -1.364066,-4.336697 -0.591573,-4.040264 0.243623,0.09349 1.123146,0.365517 1.954494,0.60451 2.205553,0.634044 3.137212,1.149 2.67455,1.478305 -0.282952,0.201394 -0.254065,0.225335 0.123593,0.10243 0.281587,-0.09164 0.857602,0.06503 1.343767,0.365501 l 0.850915,0.525895 1.926242,-0.923127 c 1.059432,-0.507719 2.226966,-1.159676 2.594518,-1.448793 0.367553,-0.289117 1.009408,-0.525667 1.426346,-0.525667 0.611157,0 0.758069,0.116094 0.758069,0.599048 0,0.936964 -0.979255,3.382042 -1.645678,4.109053 -0.885868,0.966407 -2.864255,2.171065 -3.565497,2.171065 -0.395859,0 -0.617371,0.162376 -0.631652,0.463021 -0.0121,0.254662 -0.04186,4.408047 -0.06615,9.229744 l -0.04415,8.766723 0.869663,-0.76357 c 0.478315,-0.419963 1.490346,-1.087299 2.248958,-1.482969 1.173135,-0.611872 1.708666,-0.720552 3.582918,-0.727112 1.896131,-0.0066 2.257162,0.06541 2.587313,0.516306 1.172926,1.601906 -1.596068,5.74006 -5.18781,7.75298 -0.945886,0.530102 -2.503414,1.533778 -3.461173,2.230391 -0.95776,0.696613 -1.91026,1.270787 -2.116667,1.275944 -0.548474,0.0137 -1.794554,0.76342 -1.288098,0.774999 0.225558,0.0052 0.55298,-0.1335 0.727605,-0.308125 0.22218,-0.22218 0.401084,-0.233915 0.595911,-0.03909 0.29825,0.29825 -0.692217,0.537664 -5.285973,1.277718 -2.27757,0.366917 -7.064096,0.498813 -8.353896,0.230198 z M 84.254909,48.603935 c 1.15671,-0.76043 1.525176,-0.762717 1.670085,-0.01037 0.09831,0.510419 0.1198,0.491554 0.150694,-0.132292 0.02995,-0.604872 -0.07291,-0.727604 -0.609812,-0.727604 -0.355214,0 -0.720828,0.121326 -0.812475,0.269614 -0.09165,0.148288 -0.753517,0.567013 -1.470823,0.930499 -0.717305,0.363486 -1.304192,0.715857 -1.304192,0.783047 0,0.191799 1.362353,-0.446175 2.376523,-1.112898 z"
       id="path15585" />
    <path
       style="fill:#376b29;stroke-width:1.26656"
       d="m 76.598433,53.666326 c -0.502881,-0.218148 -1.280452,-0.675889 -1.727937,-1.017202 -1.066201,-0.813231 -2.252526,-3.253906 -2.252526,-4.634212 0,-0.591244 0.0372,-1.074989 0.08266,-1.074989 0.48727,0 4.833365,1.675631 5.626136,2.169149 0.570944,0.355425 1.168971,0.723084 1.328949,0.817019 0.325677,0.19123 3.767314,-1.383011 4.800757,-2.195918 0.367553,-0.289117 1.009408,-0.525667 1.426346,-0.525667 0.615267,0 0.754566,0.112143 0.739472,0.595313 -0.01023,0.327422 -0.127364,0.833437 -0.260303,1.124479 -0.203196,0.444854 -0.23185,0.402698 -0.179841,-0.264584 0.08924,-1.144981 -0.691643,-1.150653 -2.571474,-0.01868 -0.85006,0.511879 -2.060148,1.127211 -2.689086,1.367405 l -1.143523,0.436715 -1.286301,-0.825417 c -1.405875,-0.902147 -4.008614,-1.886066 -4.98917,-1.886066 -0.731407,0 -0.761225,0.285122 -0.201587,1.927571 0.557128,1.635081 2.100137,3.177241 3.85244,3.85032 0.779708,0.299495 1.179526,0.546079 0.888484,0.547966 -0.291042,0.0019 -0.940615,-0.175055 -1.443495,-0.393204 z"
       id="path15479" />
    <path
       style="fill:#376b29;stroke-width:1.26656"
       d="m 64.807719,83.08142 c -2.092715,-0.479093 -3.275964,-0.997237 -4.146515,-1.815757 -0.593991,-0.55849 -0.67671,-0.794489 -0.499169,-1.424144 0.117042,-0.415098 0.348134,-0.724957 0.513537,-0.688577 0.165402,0.03638 0.270966,-0.0745 0.234586,-0.246405 -0.08393,-0.396599 2.507443,-1.985078 3.902604,-2.392245 1.849717,-0.539825 7.392246,-0.361962 8.466666,0.2717 0.291042,0.171648 1.422135,0.722001 2.513542,1.223007 1.962608,0.900929 3.439583,1.983165 3.439583,2.520314 0,0.562509 0.528244,0.25278 0.945705,-0.554501 0.616387,-1.19196 0.537391,-2.218252 -0.374343,-4.863371 l -0.80447,-2.333928 -0.05551,-7.031816 c -0.03053,-3.867499 -0.07526,-8.133144 -0.0994,-9.479212 -0.03954,-2.204561 0.0038,-2.447396 0.436643,-2.447396 0.440337,0 0.477212,0.271136 0.440798,3.241146 -0.02835,2.311805 -0.09282,2.899755 -0.224845,2.050521 -0.14972,-0.96302 -0.185525,-0.760703 -0.187299,1.058333 -0.0017,1.708943 0.04331,1.994834 0.187299,1.190625 0.252089,-1.407947 0.258567,-1.334352 0.413348,4.696354 0.09009,3.510141 0.04426,5.22552 -0.139616,5.22552 -0.150553,0 -0.273732,0.133641 -0.273732,0.29698 0,0.205186 0.122671,0.195173 0.396875,-0.0324 0.337531,-0.280126 0.396875,-1.585697 0.396875,-8.73125 0,-8.956595 -0.02895,-8.7587 1.32828,-9.081427 1.312751,-0.312152 3.175023,-1.797884 3.830233,-3.055782 0.699922,-1.34374 0.871525,-1.311076 0.299873,0.05708 -0.479606,1.147859 -2.391225,2.755744 -3.72663,3.134512 -0.588664,0.166965 -1.153651,0.372808 -1.255526,0.457428 -0.101876,0.08462 -0.220939,4.268288 -0.264584,9.29704 l -0.07935,9.143184 0.661458,0.04828 c 0.482511,0.03522 0.749412,-0.14096 0.986568,-0.651234 l 0.32511,-0.699518 -0.654796,0.615149 c -0.360137,0.338332 -0.719825,0.55012 -0.799305,0.470639 -0.249545,-0.249545 1.535115,-1.588927 3.05284,-2.291146 1.626875,-0.752721 4.206507,-1.038935 5.357812,-0.594458 0.628068,0.242475 0.727604,0.427782 0.727604,1.35458 0,2.253291 -2.407359,5.290318 -5.374615,6.780398 -0.754743,0.379013 -2.192222,1.293502 -3.194398,2.032199 -1.603585,1.181991 -2.008205,1.356544 -3.373437,1.455296 -0.853215,0.06172 -1.551299,0.191449 -1.551299,0.288297 0,0.09685 -0.241073,0.176086 -0.535718,0.176086 -0.327809,0 -0.485056,-0.132021 -0.405179,-0.340178 0.177084,-0.461473 0.06701,-0.429927 -0.640271,0.183496 -0.332091,0.288021 -0.694006,0.467926 -0.804255,0.399788 -0.110249,-0.06814 -0.35993,0.06827 -0.554846,0.303132 -0.32139,0.387251 -0.219462,0.41033 1.0945,0.247819 0.796891,-0.09856 1.984675,-0.227125 2.639519,-0.285699 l 1.190625,-0.106498 -1.058334,0.230203 c -3.078194,0.669552 -4.539508,0.8508 -7.672916,0.951679 -2.34403,0.07547 -3.946829,-0.0054 -5.032126,-0.25385 z m -1.450165,-1.245509 c 0.334993,-0.240977 0.32468,-0.262267 -0.06615,-0.136544 -0.254662,0.08192 -0.463021,0.03362 -0.463021,-0.107333 0,-0.140954 -0.386953,-0.252061 -0.859896,-0.246904 l -0.859896,0.0094 0.661459,0.378123 c 0.800468,0.457589 1.070534,0.475159 1.5875,0.103282 z m -2.620997,-1.844368 c -0.24043,-0.601515 -0.25689,-0.585054 -0.272649,0.272649 -0.01151,0.626544 0.06873,0.827306 0.255878,0.640164 0.18054,-0.180541 0.186206,-0.488915 0.01677,-0.912813 z m 1.177087,-1.018756 c -0.08372,-0.135466 -0.02827,-0.322909 0.123233,-0.416542 0.1515,-0.09363 0.242739,-0.07209 0.202753,0.04786 -0.03999,0.119957 0.04636,0.277635 0.191882,0.350396 0.145521,0.07276 0.30263,-0.135599 0.349131,-0.463021 0.09963,-0.701538 -0.145905,-0.747848 -0.956144,-0.180334 -0.567167,0.397258 -0.580224,0.907938 -0.02322,0.907938 0.14552,0 0.196083,-0.110836 0.11236,-0.246301 z m 9.214964,-2.190211 c -0.164563,-0.266268 -1.085497,-0.273629 -1.248442,-0.01 -0.06776,0.109639 0.214527,0.203833 0.627304,0.209321 0.412778,0.0055 0.69229,-0.08422 0.621138,-0.199342 z m 18.683226,-5.699425 c 0.0081,-0.657224 -0.393839,-0.312841 -0.433505,0.371474 -0.02911,0.502183 0.02619,0.596211 0.194386,0.330543 0.129287,-0.204209 0.236891,-0.520116 0.239119,-0.702017 z M 79.419278,69.098776 c -0.06306,-0.327422 -0.114662,-0.05953 -0.114662,0.595312 0,0.654844 0.0516,0.922735 0.114662,0.595313 0.06306,-0.327422 0.06306,-0.863203 0,-1.190625 z m 0.0073,-5.549256 c -0.05589,-0.62231 -0.102408,-0.178973 -0.103369,0.985194 -9.61e-4,1.164166 0.04477,1.673329 0.101621,1.131472 0.05685,-0.541856 0.05764,-1.494356 0.0017,-2.116666 z"
       id="path15470" />
    <path
       style="fill:#13510d;stroke-width:1.26656"
       d="m 78.757176,49.736815 c -1.359752,-0.96144 -1.362961,-1.090647 -0.0077,-0.308661 l 1.23675,0.713586 1.919814,-0.966803 c 1.055897,-0.531742 2.23932,-1.203025 2.629829,-1.49174 0.957558,-0.707953 1.95276,-0.553967 2.036199,0.315059 0.06078,0.633038 0.05295,0.636763 -0.182309,0.0867 -0.2891,-0.675959 -0.947235,-0.589289 -2.394742,0.315364 -1.150355,0.718941 -3.804718,1.983682 -4.126572,1.966214 -0.131479,-0.0071 -0.631566,-0.290509 -1.111305,-0.629717 z"
       id="path15410" />
    <path
       style="fill:#13510d;stroke-width:1.26656"
       d="m 83.098235,53.129845 c 0.56601,-0.379084 1.297,-0.93562 1.624422,-1.236746 0.327422,-0.301125 0.595312,-0.469984 0.595312,-0.375241 0,0.252585 -2.644987,2.301231 -2.971097,2.301231 -0.15276,0 0.185353,-0.31016 0.751363,-0.689244 z"
       id="path15408" />
    <path
       style="fill:#13510d;stroke-width:1.26656"
       d="m 76.454428,53.575538 c -1.467952,-0.688685 -2.46443,-1.715746 -3.202452,-3.300737 -0.515243,-1.106546 -0.881449,-3.334878 -0.548057,-3.334878 0.249995,0 3.928668,1.323841 4.333909,1.55964 0.72077,0.419398 0.38499,0.343019 -1.641733,-0.373443 -1.018646,-0.360098 -2.000912,-0.655243 -2.182813,-0.655877 -0.945879,-0.0033 0.279503,3.494434 1.686328,4.813456 0.418587,0.392463 1.207552,0.900077 1.753255,1.12803 0.545704,0.227954 0.992188,0.472395 0.992188,0.543203 0,0.178478 -0.0047,0.176984 -1.190625,-0.379394 z"
       id="path15407" />
    <path
       style="fill:#13510d;stroke-width:1.26656"
       d="m 80.396704,58.449297 c 3.71e-4,-2.182812 0.04135,-3.040573 0.09107,-1.906136 0.04972,1.134438 0.04941,2.920375 -6.74e-4,3.96875 -0.05009,1.048375 -0.09076,0.120199 -0.09039,-2.062614 z"
       id="path15397" />
    <path
       style="fill:#13510d;stroke-width:1.26656"
       d="m 89.858229,71.096301 c -0.02463,-0.492636 -0.23598,-0.959532 -0.505364,-1.116434 -0.254662,-0.148326 -0.343959,-0.271482 -0.198438,-0.273679 0.649083,-0.0098 0.960731,0.477699 0.855721,1.338565 l -0.109576,0.898297 z"
       id="path15377" />
    <path
       style="fill:#13510d;stroke-width:1.26656"
       d="m 80.400206,67.445133 c 2.77e-4,-2.619375 0.03987,-3.655149 0.08799,-2.301721 0.04812,1.353428 0.04789,3.496553 -5.05e-4,4.7625 -0.04839,1.265946 -0.08776,0.158596 -0.08749,-2.460779 z"
       id="path15376" />
    <path
       style="fill:#13510d;stroke-width:1.26656"
       d="m 79.086569,63.344092 c 0,-4.874948 0.03572,-6.869245 0.07939,-4.431771 0.04366,2.437474 0.04366,6.426067 0,8.863541 -0.04366,2.437474 -0.07939,0.443177 -0.07939,-4.43177 z"
       id="path15375" />
    <path
       style="fill:#13510d;stroke-width:1.26656"
       d="m 81.481511,71.874525 c 0.291042,-0.296024 1.277043,-0.921732 2.191114,-1.390463 1.279126,-0.65593 2.071416,-0.872294 3.439583,-0.939308 l 1.777636,-0.08707 -1.799706,0.229965 c -1.645794,0.210299 -3.888827,1.108106 -4.947169,1.980179 -0.735262,0.605856 -1.195206,0.749582 -0.661458,0.206697 z"
       id="path15374" />
    <path
       style="fill:#13510d;stroke-width:1.26656"
       d="m 89.23637,73.265963 c 0.133885,-0.291041 0.309647,-0.70776 0.390583,-0.926041 0.127118,-0.342833 0.150001,-0.340712 0.168044,0.01558 0.01149,0.226848 -0.164273,0.643566 -0.390582,0.926041 -0.404887,0.505373 -0.407576,0.505123 -0.168045,-0.01558 z"
       id="path15371" />
    <path
       style="fill:#13510d;stroke-width:1.26656"
       d="m 68.058646,76.11692 c 0.475549,-0.05889 1.189924,-0.05767 1.5875,0.0027 0.397576,0.06037 0.0085,0.10855 -0.864634,0.107065 -0.873125,-0.0015 -1.198415,-0.05088 -0.722866,-0.109765 z"
       id="path15363" />
    <path
       style="fill:#13510d;stroke-width:1.26656"
       d="m 86.111719,76.763575 c 0,-0.04084 0.654844,-0.700624 1.455208,-1.466177 0.800365,-0.765553 1.455209,-1.316683 1.455209,-1.224733 0,0.09195 -0.606481,0.751729 -1.347735,1.466177 -1.220413,1.176278 -1.562682,1.444527 -1.562682,1.224733 z"
       id="path15361" />
    <path
       style="fill:#13510d;stroke-width:1.26656"
       d="m 64.812762,76.58561 c 0.507923,-0.230121 1.925068,-0.38016 1.697743,-0.179747 -0.06063,0.05346 -0.586493,0.16971 -1.168576,0.258342 -0.737605,0.112314 -0.897969,0.0885 -0.529167,-0.07859 z"
       id="path15360" />
    <path
       style="fill:#13510d;stroke-width:1.26656"
       d="m 61.50547,78.175257 c 0.61854,-0.481163 2.645834,-1.404072 2.645834,-1.204494 0,0.0497 -0.744141,0.456812 -1.653646,0.904701 -0.997892,0.491415 -1.391344,0.610298 -0.992188,0.299793 z"
       id="path15357" />
    <path
       style="fill:#13510d;stroke-width:1.26656"
       d="m 64.283595,82.91634 c -0.353341,-0.156453 -0.133558,-0.181996 0.661459,-0.07688 0.654843,0.08658 1.240234,0.200391 1.300868,0.252901 0.229824,0.199033 -1.457009,0.04772 -1.962327,-0.176025 z"
       id="path15351" />
    <path
       style="fill:#13510d;stroke-width:1.26656"
       d="m 67.524741,83.258692 c 0.618463,-0.0557 1.630495,-0.0557 2.248958,0 0.618464,0.0557 0.112448,0.10128 -1.124479,0.10128 -1.236927,0 -1.742943,-0.04558 -1.124479,-0.10128 z"
       id="path15349" />
  </g>
</svg>
