<?xml version="1.0" encoding="UTF-8" standalone="no"?>
<!-- Created with Inkscape (http://www.inkscape.org/) -->

<svg
   width="185"
   height="185"
   viewBox="0 0 48.947914 48.947918"
   version="1.1"
   id="svg1"
   xmlns="http://www.w3.org/2000/svg"
   xmlns:svg="http://www.w3.org/2000/svg">
  <defs
     id="defs1" />
  <g
     id="layer1">
    <g
       id="g20875"
       transform="matrix(0.84939869,0,0,0.84939869,-138.98647,-24.667395)"
       style="display:inline;stroke-width:1.1773">
      <path
         style="fill:#e7b08a;stroke-width:1.1773"
         d="m 185.65918,86.408368 c -1.52384,-0.374092 -4.06191,-1.503392 -5.93138,-2.639134 -2.57021,-1.56146 -8.1737,-5.741256 -9.07885,-6.772168 -1.28301,-1.461267 -1.09613,-1.836358 1.30555,-2.620413 2.56123,-0.836139 7.15396,-0.472955 9.42356,0.745197 0.42445,0.227817 1.16559,0.59783 1.64698,0.822252 0.48138,0.224422 1.23238,0.662344 1.66888,0.973159 0.4365,0.310815 0.83628,0.522364 0.88841,0.470109 0.0861,-0.0863 -2.26459,-3.225164 -6.67008,-8.906585 -2.06656,-2.665085 -2.30035,-3.157434 -1.94413,-4.094361 0.32162,-0.845911 0.80995,-0.899482 2.99984,-0.329086 2.27492,0.59254 3.82575,1.415794 5.83122,3.09548 2.17542,1.822026 3.5203,3.515438 4.06764,5.121778 0.23543,0.690962 0.56636,1.181306 0.79725,1.181306 0.34198,0 0.37587,-0.75151 0.25353,-5.622395 -0.0777,-3.092318 -0.29625,-6.867666 -0.48575,-8.389662 l -0.34456,-2.767266 -0.46231,0.706357 c -0.51481,0.786568 -1.70883,1.189223 -3.77102,1.271686 -2.20275,0.08808 -2.67677,0.0082 -3.41987,-0.576318 l -0.71311,-0.560932 1.71497,-1.150485 c 0.94324,-0.632767 1.78717,-1.267301 1.87541,-1.410075 0.0893,-0.144513 -0.28266,-0.325628 -0.83911,-0.40856 -3.47964,-0.518606 -4.67479,-0.837697 -6.63835,-1.772356 -2.99877,-1.427427 -2.91682,-1.85672 0.41549,-2.176563 1.34486,-0.129083 2.44434,-0.307676 2.4433,-0.396875 -0.001,-0.0892 -0.71603,-0.750558 -1.58886,-1.469686 -2.10198,-1.731828 -3.74467,-3.694558 -3.53953,-4.229139 0.19208,-0.500545 0.2943,-0.501352 2.48445,-0.0196 2.736,0.601811 2.8307,0.564669 1.75735,-0.689296 -1.06402,-1.243072 -1.75735,-2.578781 -1.75735,-3.385586 0,-0.801776 1.09345,-0.72605 3.07889,0.213227 l 1.62369,0.768136 0.11357,-1.570108 c 0.0683,-0.944863 0.2795,-1.736033 0.53024,-1.986777 0.37917,-0.37917 0.51399,-0.284934 1.49802,1.047104 0.59475,0.805076 1.20255,1.538678 1.35068,1.630227 0.29063,0.179616 0.57482,-0.410105 1.0486,-2.175921 0.4039,-1.50536 1.30233,-1.779876 2.39597,-0.732094 0.41652,0.39905 0.89947,1.068746 1.07322,1.488213 0.17375,0.419467 0.41609,0.762667 0.53853,0.762667 0.12244,0 0.70775,-0.714375 1.30068,-1.5875 0.59292,-0.873125 1.23763,-1.5875 1.43267,-1.5875 0.50535,0 0.98864,0.662877 1.18568,1.626267 0.0933,0.456091 0.4149,0.992129 0.71471,1.191197 0.4987,0.331122 0.66725,0.24992 1.97946,-0.953628 0.78889,-0.723564 1.51091,-1.319867 1.60448,-1.32512 0.29008,-0.01628 0.51661,0.841695 0.67771,2.566877 0.0851,0.911299 0.24448,1.656907 0.35418,1.656907 0.1097,0 0.88931,-0.362885 1.73246,-0.80641 1.63479,-0.859945 2.82653,-0.940554 2.96677,-0.20067 0.0467,0.24647 -0.20632,1.169205 -0.56229,2.05052 -0.74493,1.844248 -0.73468,1.851633 1.6725,1.205518 2.02546,-0.543657 2.38125,-0.513132 2.38125,0.204299 0,0.893052 -1.36323,2.384095 -3.44515,3.768148 -1.01558,0.675161 -1.84652,1.326479 -1.84652,1.447374 0,0.120895 1.16086,0.424242 2.57969,0.674105 1.41883,0.249862 2.67348,0.539212 2.78813,0.642999 0.11464,0.103786 -0.24255,0.499802 -0.79375,0.880035 -1.83308,1.264497 -4.04685,2.10647 -6.13427,2.333081 -2.03308,0.22071 -3.2023,0.467838 -3.2023,0.676841 0,0.248081 1.50934,1.454118 2.43855,1.948518 0.83395,0.443715 1.5302,1.203043 1.5302,1.668822 0,0.06809 -0.37495,0.254513 -0.83323,0.414269 -1.44149,0.502508 -3.83972,0.347395 -5.85207,-0.378502 -1.02,-0.367932 -1.89362,-0.62989 -1.94138,-0.582128 -0.27488,0.274884 -0.66296,5.617698 -0.78273,10.776096 -0.12163,5.238322 -0.0946,5.838676 0.22538,4.999955 1.82347,-4.780154 6.09742,-8.988539 10.69704,-10.532936 1.84942,-0.620973 2.73932,-0.692187 3.17725,-0.254257 0.42215,0.422141 0.13132,1.045101 -1.96978,4.219339 -1.76511,2.666645 -4.30798,6.944584 -4.30798,7.247431 0,0.08137 0.50301,-0.169597 1.1178,-0.557697 3.22673,-2.036945 6.40156,-2.834794 10.21707,-2.567597 2.78586,0.195091 3.03515,0.393558 2.19724,1.749323 -0.60637,0.981122 -1.17036,1.538755 -6.69706,6.621497 -4.44384,4.086865 -6.51607,5.638955 -8.95171,6.704784 -1.68394,0.736883 -1.83013,0.753663 -7.01146,0.804771 -2.91042,0.02871 -5.73651,-0.05701 -6.2802,-0.190481 z"
         id="path20590" />
      <path
         style="fill:#eea224;stroke-width:1.1773"
         d="m 184.74889,86.058166 c -2.59815,-0.857763 -5.43956,-2.464559 -9.20931,-5.207787 -4.89669,-3.563297 -6.02522,-4.751934 -5.34401,-5.628631 0.94674,-1.218424 6.6619,-1.643621 9.4532,-0.703301 1.65267,0.556744 3.93096,1.706317 5.3453,2.697105 0.40018,0.280342 0.7276,0.422683 0.7276,0.316314 0,-0.233038 -3.80734,-5.326098 -6.66686,-8.918211 -1.77609,-2.23113 -2.06439,-2.736694 -2.06439,-3.620191 0,-0.75986 0.12495,-1.066564 0.48049,-1.179409 0.8398,-0.266541 3.29132,0.349076 5.28587,1.327372 2.65391,1.301696 6.06581,4.640741 6.94134,6.793117 1.06983,2.630045 1.31441,2.091371 1.32148,-2.910416 0.006,-4.283842 -0.71605,-12.236979 -1.11104,-12.236979 -0.10036,0 -0.25592,0.231387 -0.34568,0.514194 -0.33023,1.040478 -4.97977,1.772199 -6.59233,1.037468 -1.0924,-0.497733 -1.00891,-0.931483 0.34675,-1.801412 1.28251,-0.82298 2.3159,-1.785517 2.11612,-1.97101 -0.0598,-0.05547 -0.88253,-0.169731 -1.82842,-0.253921 -2.21855,-0.197464 -4.01615,-0.747726 -4.71029,-1.441862 -0.30307,-0.303075 -1.06388,-0.697003 -1.69069,-0.875396 -0.6268,-0.178392 -1.24705,-0.417641 -1.37833,-0.531664 -0.39367,-0.341925 0.90499,-0.721871 3.08296,-0.901978 1.12779,-0.09326 2.05052,-0.278471 2.05052,-0.411576 0,-0.133105 -0.10366,-0.242009 -0.23037,-0.242009 -0.51838,0 -5.0613,-4.567742 -5.0613,-5.088961 0,-0.575744 0.37204,-0.579073 3.94141,-0.03527 l 1.16328,0.17723 -1.07872,-1.429105 c -0.96307,-1.275885 -1.64472,-2.565654 -1.64472,-3.112043 0,-0.486647 1.92836,-0.271699 3.15953,0.352183 0.72644,0.368114 1.41991,0.669298 1.54105,0.669298 0.12114,0 0.17259,-0.40823 0.11434,-0.907178 -0.11188,-0.958327 0.36936,-2.796989 0.73207,-2.796989 0.11785,0 0.7337,0.649211 1.36854,1.44269 1.59277,1.990766 1.80283,1.946929 2.23076,-0.465546 0.11289,-0.636435 0.41029,-1.158998 0.80786,-1.419492 0.5705,-0.373811 0.68889,-0.373145 1.26927,0.0071 0.35205,0.23067 0.90976,0.899207 1.23935,1.485638 0.32959,0.58643 0.68639,1.066237 0.79289,1.066237 0.23116,0 1.6198,-1.737944 2.0612,-2.579688 0.46016,-0.877505 1.03984,-0.726204 1.52057,0.396875 1.09139,2.549723 1.2929,2.620497 2.97674,1.045467 0.7314,-0.684147 1.44011,-1.243904 1.57489,-1.243904 0.3486,0 0.56356,0.970778 0.56775,2.564072 0.002,0.755396 0.10323,1.435015 0.22498,1.510265 0.12176,0.07525 0.79863,-0.170477 1.50415,-0.546058 1.7703,-0.942403 2.65065,-1.164675 3.13929,-0.792617 0.35945,0.273689 0.35144,0.450767 -0.0737,1.629963 -0.26234,0.727604 -0.56742,1.531275 -0.67797,1.785937 -0.16218,0.373595 -0.0685,0.463021 0.48497,0.463021 0.37729,0 1.22843,-0.145086 1.89143,-0.322412 1.19355,-0.319226 1.95202,-0.149808 2.163,0.483144 0.14156,0.424664 -1.89477,2.358433 -3.74044,3.552052 -0.9554,0.61787 -1.73709,1.221103 -1.73709,1.34052 0,0.286295 1.57123,0.690473 3.70417,0.952849 0.94588,0.116355 1.71275,0.330617 1.70415,0.476138 -0.0239,0.403429 -1.58862,1.37396 -3.16786,1.964831 -0.77804,0.291101 -2.58155,0.717053 -4.00781,0.946562 -1.42627,0.229508 -2.6954,0.519478 -2.8203,0.644378 -0.20042,0.200419 0.99152,1.248435 3.11676,2.740435 1.50425,1.056035 0.50391,1.580823 -2.27777,1.194941 -0.92141,-0.127821 -1.92714,-0.170738 -2.23495,-0.09537 -0.30781,0.07537 -1.11794,-0.0532 -1.80028,-0.285693 -0.68234,-0.232498 -1.29703,-0.366314 -1.36598,-0.29737 -0.2368,0.236808 -0.60059,4.304739 -0.76308,8.53312 -0.0895,2.328333 -0.21154,5.156067 -0.27125,6.283853 -0.10708,2.022519 0.18172,2.784249 0.48352,1.275288 0.0853,-0.426378 0.6657,-1.697571 1.28984,-2.824872 2.06001,-3.720733 5.88987,-6.87942 9.78707,-8.071922 3.3359,-1.020751 3.61073,-0.306384 1.25053,3.250542 -2.03041,3.059926 -5.03689,8.216216 -4.88133,8.371775 0.0636,0.06355 0.50753,-0.214848 0.98662,-0.618674 1.24306,-1.047783 3.98593,-2.21412 6.20574,-2.638839 1.88263,-0.360207 6.58632,-0.272031 6.83362,0.128105 0.31766,0.513989 -1.19768,2.566644 -3.25959,4.415381 -1.26176,1.131312 -3.30614,3.02455 -4.54307,4.207193 -3.02561,2.892825 -5.54936,4.770854 -7.9375,5.906612 l -1.98438,0.943735 -5.29166,0.0708 c -4.96077,0.06637 -5.41041,0.0316 -7.19049,-0.556085 z"
         id="path20579" />
      <path
         style="fill:#c77222;stroke-width:1.1773"
         d="m 186.77602,45.762989 c -0.68714,-0.578192 -0.8112,-0.84107 -0.68789,-1.45763 0.23753,-1.187617 1.19248,-2.258021 2.51545,-2.819559 1.04699,-0.444395 1.58052,-0.493277 3.77849,-0.346187 2.15145,0.143978 2.66062,0.266395 3.19463,0.768076 0.3494,0.328241 0.70743,0.524643 0.79562,0.43645 0.17817,-0.178169 1.2556,1.801427 1.2556,2.306949 0,0.17624 -0.19305,0.533753 -0.429,0.794474 -0.39375,0.435085 -0.49317,0.440853 -1.20994,0.0702 -0.52877,-0.273439 -1.05236,-0.3408 -1.62152,-0.208613 -0.46232,0.107375 -1.17739,0.1645 -1.58905,0.126944 -0.41196,-0.03758 -0.96618,0.128747 -1.23271,0.369957 -0.44293,0.40085 -0.55259,0.402898 -1.2853,0.024 -0.86528,-0.447457 -1.62831,-0.320099 -1.62831,0.271783 0,0.596361 -0.95244,0.423511 -1.85607,-0.336843 z"
         id="path20562" />
      <path
         style="fill:#c77222;stroke-width:1.1773"
         d="m 188.3675,54.226517 c -2.28075,-1.751486 -3.15214,-2.794756 -3.96481,-4.746869 -1.12522,-2.702893 -1.0285,-3.525474 0.14819,-1.260261 0.52023,1.001488 0.98065,2.093798 1.02317,2.427355 0.0738,0.578955 0.35058,0.876422 3.03278,3.25938 1.48053,1.315353 1.32588,1.522385 -0.23933,0.320395 z"
         id="path20561" />
      <path
         style="fill:#c77222;stroke-width:1.1773"
         d="m 184.74889,86.058166 c -2.59815,-0.857763 -5.43956,-2.464559 -9.20931,-5.207787 -4.89669,-3.563297 -6.02522,-4.751934 -5.34401,-5.628631 0.94674,-1.218424 6.6619,-1.643621 9.4532,-0.703301 1.65267,0.556744 3.93096,1.706317 5.3453,2.697105 0.40018,0.280342 0.7276,0.422683 0.7276,0.316314 0,-0.233038 -3.80734,-5.326098 -6.66686,-8.918211 -1.77609,-2.23113 -2.06439,-2.736694 -2.06439,-3.620191 0,-0.75986 0.12495,-1.066564 0.48049,-1.179409 0.8398,-0.266541 3.29132,0.349076 5.28587,1.327372 2.65391,1.301696 6.06581,4.640741 6.94134,6.793117 0.34036,0.836745 0.77552,1.521354 0.96703,1.521354 0.49549,0 0.45842,-8.780614 -0.0519,-12.303124 -0.21084,-1.455208 -0.38566,-3.143568 -0.38849,-3.75191 -0.004,-0.94601 0.0807,-1.118313 0.58769,-1.190625 0.33459,-0.04772 0.74435,-0.401668 0.94067,-0.812541 0.1913,-0.400396 0.76893,-1.05524 1.28361,-1.455208 4.61966,-3.590034 4.77651,-3.743759 5.7924,-5.677 0.55358,-1.05348 1.10239,-2.275748 1.21956,-2.71615 0.16844,-0.633109 0.1926,-0.530486 0.11542,0.490226 -0.10236,1.353706 -1.65842,4.808128 -2.13929,4.74916 -0.14552,-0.01784 -0.7411,0.401765 -1.3235,0.932468 -0.58241,0.530702 -1.6639,1.376638 -2.4033,1.879856 -1.07663,0.732721 -1.34438,1.062064 -1.34438,1.653646 0,0.424899 0.14428,0.738703 0.33963,0.738703 0.56863,0 0.83694,0.804605 0.60734,1.821299 -0.43657,1.933201 -1.11801,16.43495 -0.77227,16.43495 0.11007,0 0.2699,-0.348855 0.35518,-0.775233 0.0853,-0.426378 0.6657,-1.697571 1.28984,-2.824872 2.06001,-3.720733 5.88987,-6.87942 9.78707,-8.071922 3.3359,-1.020751 3.61073,-0.306384 1.25053,3.250542 -2.03041,3.059926 -5.03689,8.216216 -4.88133,8.371775 0.0636,0.06355 0.50753,-0.214848 0.98662,-0.618674 1.24306,-1.047783 3.98593,-2.21412 6.20574,-2.638839 1.88263,-0.360207 6.58632,-0.272031 6.83362,0.128105 0.31766,0.513989 -1.19768,2.566644 -3.25959,4.415381 -1.26176,1.131312 -3.30614,3.02455 -4.54307,4.207193 -3.02561,2.892825 -5.54936,4.770854 -7.9375,5.906612 l -1.98438,0.943735 -5.29166,0.0708 c -4.96077,0.06637 -5.41041,0.0316 -7.19049,-0.556085 z"
         id="path20560" />
      <path
         style="fill:#60734b;stroke-width:1.1773"
         d="m 186.80798,45.700788 c -0.9325,-0.87109 -0.975,-1.078941 -0.43435,-2.124428 0.75466,-1.459357 3.18791,-2.900118 4.22548,-2.501965 0.18703,0.07177 1.21994,0.153921 2.29537,0.18256 1.79119,0.0477 2.04934,0.127671 3.07546,0.952764 1.69402,1.362141 1.97942,3.752824 0.39792,3.333159 -1.14102,-0.302778 -4.54154,-0.213566 -4.95552,0.130007 -0.28652,0.23779 -0.59786,0.228693 -1.33845,-0.03911 -0.89781,-0.324653 -0.99848,-0.307728 -1.44429,0.242823 -0.62161,0.767657 -0.83352,0.747205 -1.82162,-0.175812 z"
         id="path20537" />
      <path
         style="fill:#60734b;stroke-width:1.1773"
         d="m 184.74889,86.058166 c -2.59815,-0.857763 -5.43956,-2.464559 -9.20931,-5.207787 -4.89669,-3.563297 -6.02522,-4.751934 -5.34401,-5.628631 0.94674,-1.218424 6.6619,-1.643621 9.4532,-0.703301 1.65267,0.556744 3.93096,1.706317 5.3453,2.697105 0.40018,0.280342 0.7276,0.422683 0.7276,0.316314 0,-0.233038 -3.80734,-5.326098 -6.66686,-8.918211 -1.77609,-2.23113 -2.06439,-2.736694 -2.06439,-3.620191 0,-0.75986 0.12495,-1.066564 0.48049,-1.179409 0.8398,-0.266541 3.29132,0.349076 5.28587,1.327372 2.65391,1.301696 6.06581,4.640741 6.94134,6.793117 0.34036,0.836745 0.77552,1.521354 0.96703,1.521354 0.52852,0 0.46527,-8.219447 -0.0978,-12.707906 -0.24699,-1.96888 -0.36829,-3.790304 -0.26955,-4.04761 0.15008,-0.391117 0.45123,-0.454897 1.83659,-0.388968 l 1.65707,0.07886 -0.0168,1.058333 c -0.009,0.582084 -0.15623,3.201459 -0.3266,5.820833 -0.42947,6.603327 -0.55691,10.980208 -0.31971,10.980208 0.11007,0 0.2699,-0.348855 0.35518,-0.775233 0.0853,-0.426378 0.6657,-1.697571 1.28984,-2.824872 2.06001,-3.720733 5.88987,-6.87942 9.78707,-8.071922 3.3359,-1.020751 3.61073,-0.306384 1.25053,3.250542 -2.03041,3.059926 -5.03689,8.216216 -4.88133,8.371775 0.0636,0.06355 0.50753,-0.214848 0.98662,-0.618674 1.24306,-1.047783 3.98593,-2.21412 6.20574,-2.638839 1.88263,-0.360207 6.58632,-0.272031 6.83362,0.128105 0.31766,0.513989 -1.19768,2.566644 -3.25959,4.415381 -1.26176,1.131312 -3.30614,3.02455 -4.54307,4.207193 -3.02561,2.892825 -5.54936,4.770854 -7.9375,5.906612 l -1.98438,0.943735 -5.29166,0.0708 c -4.96077,0.06637 -5.41041,0.0316 -7.19049,-0.556085 z"
         id="path20536" />
      <path
         style="fill:#184d3a;stroke-width:1.1773"
         d="m 187.11073,45.908793 c -1.13102,-0.724323 -1.18242,-1.92251 -0.13229,-3.083555 1.27814,-1.413129 2.08943,-1.655844 5.08466,-1.521174 2.61643,0.117639 2.7038,0.142305 3.86006,1.089774 1.17423,0.96219 1.57713,1.734974 1.3892,2.664572 -0.0694,0.343394 -0.28754,0.45868 -0.75103,0.396946 -1.92503,-0.256401 -4.65283,-0.176014 -5.04797,0.148762 -0.31795,0.261329 -0.60757,0.281129 -1.1417,0.07805 -1.10697,-0.420869 -1.77346,-0.331982 -1.92749,0.257063 -0.17147,0.655675 -0.26543,0.65353 -1.33344,-0.03044 z"
         id="path20517" />
      <path
         style="fill:#184d3a;stroke-width:1.1773"
         d="m 185.72167,86.310257 c -3.28542,-0.970058 -5.74722,-2.302621 -10.06017,-5.44552 -4.61308,-3.361604 -5.57913,-4.245652 -5.4918,-5.025634 0.19641,-1.754206 6.22828,-2.429846 9.93039,-1.11232 0.76443,0.272051 1.47881,0.584145 1.5875,0.693543 0.10869,0.109397 0.59375,0.364758 1.07792,0.567469 0.48416,0.202711 1.40689,0.723964 2.05052,1.158341 0.64362,0.434376 1.17022,0.703382 1.17022,0.59779 0,-0.227555 -3.48518,-4.863599 -6.70566,-8.919979 -1.81904,-2.29118 -2.29017,-3.06206 -2.29017,-3.747224 0,-1.146333 0.57096,-1.431264 2.2549,-1.125283 2.38877,0.434054 5.58202,2.233927 7.65886,4.316917 1.78063,1.785899 3.29726,4.244168 3.32734,5.393211 0.007,0.250684 0.17549,0.812976 0.37539,1.249538 0.5669,1.23807 0.55123,-9.670492 -0.0208,-14.497028 -0.23788,-2.007011 -0.37829,-3.703326 -0.31203,-3.769589 0.0663,-0.06626 0.84482,-0.17372 1.73013,-0.238795 1.09981,-0.08084 1.64753,-0.01822 1.72924,0.197714 0.0658,0.173818 -0.0302,1.923376 -0.21322,3.887908 -0.51868,5.566766 -0.77955,14.552082 -0.42249,14.552082 0.16328,0 0.29688,-0.368773 0.29688,-0.819495 0,-1.267894 2.03733,-4.897173 3.81713,-6.799782 2.59648,-2.77565 6.25205,-4.922907 8.73247,-5.129396 1.86285,-0.155078 1.806,0.40914 -0.38176,3.788713 -2.31228,3.571928 -5.03326,8.245238 -4.88628,8.392219 0.0574,0.05743 0.48438,-0.215294 0.94877,-0.606055 1.18819,-0.999797 3.71174,-2.226855 5.33921,-2.596157 0.75868,-0.172157 2.80632,-0.31708 4.55032,-0.322051 2.85565,-0.0081 3.18015,0.03866 3.26378,0.470736 0.1537,0.794123 -0.98472,2.172434 -4.14517,5.018653 -1.65119,1.487011 -3.97291,3.580688 -5.15938,4.652616 -2.65907,2.402356 -4.76652,3.857011 -6.88539,4.752584 -1.52873,0.646145 -1.91041,0.689236 -6.64891,0.750658 -3.57659,0.04636 -5.37062,-0.03627 -6.21771,-0.286384 z m 5.39036,-2.932484 c -0.2882,-2.365577 -1.18361,-5.249926 -2.25096,-7.250935 -1.00854,-1.890746 -4.9105,-6.715053 -5.66558,-7.004804 -0.20285,-0.07784 0.38757,0.954734 1.31203,2.294607 1.87602,2.719007 3.64915,6.094532 4.12008,7.843442 0.17096,0.634876 0.58852,1.782217 0.92791,2.549648 0.33939,0.767431 0.77032,2.080059 0.9576,2.916952 0.32023,1.430916 0.35303,1.475495 0.55031,0.747815 0.11539,-0.425595 0.13726,-1.369121 0.0486,-2.096725 z m -5.01747,0.380174 c -0.0221,-0.746216 -0.36827,-1.039939 -4.36562,-3.703882 -2.3879,-1.591367 -4.42411,-2.89353 -4.52489,-2.893697 -0.10079,-1.67e-4 -0.13243,0.267587 -0.0703,0.595009 0.14626,0.771075 1.33577,1.772934 3.93025,3.310222 1.14904,0.680836 2.63732,1.742762 3.30729,2.359836 0.66996,0.617073 1.33718,1.126688 1.4827,1.132477 0.14552,0.0058 0.25379,-0.354196 0.2406,-0.799965 z m 11.42752,0.06073 c 0.56753,-0.412347 2.16297,-1.81391 3.54542,-3.114583 1.38245,-1.300673 3.38496,-3.058519 4.45003,-3.906324 1.06507,-0.847805 1.87358,-1.604375 1.79669,-1.681267 -0.18725,-0.187245 -2.50025,1.037202 -4.20697,2.227066 -1.45469,1.01416 -6.65804,5.973925 -7.09389,6.761809 -0.39724,0.718079 0.31102,0.583488 1.50872,-0.286701 z m -1.69221,-7.386215 c 0.65587,-1.418829 1.99041,-3.753564 2.96565,-5.188302 0.97524,-1.434738 1.69413,-2.684894 1.59754,-2.778125 -0.23919,-0.230878 -2.52555,2.344637 -4.01682,4.524821 -1.70146,2.487492 -2.83713,6.021293 -1.93508,6.021293 0.10792,0 0.73283,-1.160859 1.38871,-2.579687 z"
         id="path20515" />
      <path
         style="fill:#102a1c;stroke-width:1.1773"
         d="m 187.11073,45.908793 c -1.12854,-0.722737 -1.17949,-1.90163 -0.13229,-3.061148 1.15442,-1.27824 2.12624,-1.649378 4.05548,-1.548783 0.93457,0.04873 2.17546,0.105794 2.75754,0.126809 1.94132,0.07009 4.16908,2.709114 3.34075,3.957492 -0.20901,0.315006 -0.39834,0.30881 -1.27437,-0.04171 -0.72334,-0.289426 -1.1674,-0.334155 -1.49536,-0.150622 -0.25656,0.14358 -0.91608,0.185095 -1.4656,0.09226 -0.7069,-0.11943 -1.09023,-0.05901 -1.31066,0.206593 -0.24945,0.300566 -0.54856,0.321159 -1.50055,0.103312 -1.26641,-0.289795 -1.63338,-0.742947 -0.52754,-0.651425 0.3638,0.03011 0.66146,0.127941 0.66146,0.217403 0,0.203164 0.77193,0.125549 1.39722,-0.140487 0.25915,-0.110257 0.82535,-0.129636 1.25821,-0.04306 0.43286,0.08657 1.08719,0.02064 1.45405,-0.146514 0.53302,-0.242858 0.84626,-0.218452 1.5591,0.121482 1.6324,0.778435 1.68251,-0.369035 0.0861,-1.97164 l -1.12448,-1.128847 -2.51354,-0.172176 c -1.38245,-0.0947 -2.57307,-0.09733 -2.64583,-0.0059 -0.0728,0.09148 -0.37042,0.207985 -0.66146,0.25891 -0.29104,0.05092 -0.61664,0.229519 -0.72355,0.396875 -0.10691,0.167357 -0.19621,0.198752 -0.19844,0.06977 -0.01,-0.572366 -1.40538,1.237823 -1.48563,1.927123 -0.087,0.747399 0.51159,1.614532 0.86832,1.25781 0.19548,-0.195483 0.87784,0.312769 0.87784,0.653856 0,0.356655 -0.31794,0.273824 -1.25677,-0.32742 z"
         id="path20499" />
      <path
         style="fill:#102a1c;stroke-width:1.1773"
         d="m 191.23218,69.566689 c 0.0571,-2.706987 -0.0524,-5.108006 -0.32167,-7.052805 -0.22452,-1.621733 -0.48554,-3.633215 -0.58005,-4.46996 l -0.17185,-1.521354 0.75809,0.03603 c 0.64911,0.03085 0.67014,0.05283 0.14631,0.152852 -0.68656,0.131099 -0.68492,0.218239 0.10688,5.696354 0.38931,2.693482 0.51804,10.926645 0.17418,11.139973 -0.10915,0.06771 -0.15949,-1.723782 -0.11189,-3.981091 z"
         id="path20489" />
      <path
         style="fill:#102a1c;stroke-width:1.1773"
         d="m 189.98569,73.890604 c -0.0169,-0.270237 -0.38975,-1.243698 -0.82861,-2.163246 -1.30891,-2.742575 -4.62428,-5.614412 -7.96681,-6.901006 -0.92747,-0.356999 -1.32912,-0.58177 -0.89256,-0.499491 3.15152,0.593968 7.68467,4.241646 9.14228,7.356506 0.4519,0.965672 0.76645,1.967899 0.69901,2.227171 -0.11334,0.435737 -0.12494,0.434229 -0.15331,-0.01993 z"
         id="path20488" />
      <path
         style="fill:#102a1c;stroke-width:1.1773"
         d="m 201.72896,73.863084 c 2.18173,-1.894976 6.16504,-3.077312 10.13673,-3.008807 l 2.56327,0.04421 -3.175,0.194713 c -1.74625,0.107093 -3.69543,0.329161 -4.33151,0.493485 -1.22159,0.315583 -4.12659,1.675226 -4.79661,2.244988 -0.21829,0.185617 -0.57547,0.423738 -0.79375,0.529159 -0.21829,0.105421 -0.0397,-0.118567 0.39687,-0.49775 z"
         id="path20487" />
      <path
         style="fill:#102a1c;stroke-width:1.1773"
         d="m 193.42056,74.204081 c -0.0143,-0.388864 0.48004,-1.69554 1.09851,-2.903723 2.00637,-3.919505 5.70762,-7.172405 9.68489,-8.511738 1.95983,-0.659966 2.88204,-0.662893 3.1326,-0.0099 0.0764,0.199016 -0.81194,1.819604 -1.97402,3.601306 -1.16208,1.781703 -2.72227,4.311022 -3.46708,5.620709 -0.74481,1.309687 -1.35486,2.268362 -1.35566,2.130388 -0.002,-0.404755 2.56932,-4.817985 4.51197,-7.742963 0.98707,-1.486187 1.87165,-2.944703 1.96574,-3.241146 0.15005,-0.472774 0.0563,-0.538987 -0.76288,-0.538987 -2.24997,0 -6.80787,2.579249 -9.01348,5.100586 -1.31841,1.507146 -3.01441,4.493104 -3.48986,6.144205 -0.25544,0.887067 -0.30896,0.943918 -0.33073,0.351308 z"
         id="path20485" />
      <path
         style="fill:#102a1c;stroke-width:1.1773"
         d="m 192.64278,71.471523 c -0.048,-4.094469 0.66236,-13.796021 1.05587,-14.419791 0.19596,-0.310624 0.22223,-0.281874 0.12089,0.132292 -0.26288,1.07433 -0.75908,7.823602 -0.94343,12.832291 l -0.18989,5.159375 z"
         id="path20484" />
      <path
         style="fill:#102a1c;stroke-width:1.1773"
         d="m 183.14535,73.78579 c -1.63525,-2.145972 -3.69551,-4.839474 -4.57834,-5.98556 -1.29995,-1.687575 -1.58986,-2.240969 -1.52473,-2.910416 0.0749,-0.770139 0.15275,-0.82817 1.13877,-0.849248 l 1.05833,-0.02262 -0.99219,0.103983 c -0.89336,0.09363 -0.99219,0.180053 -0.99219,0.867726 0,0.570165 0.73911,1.70893 2.91607,4.492895 2.79767,3.577754 5.50191,7.178463 5.91508,7.875956 0.55457,0.936196 -0.24717,-0.03782 -2.9408,-3.572712 z"
         id="path20480" />
      <path
         style="fill:#102a1c;stroke-width:1.1773"
         d="m 184.53104,85.921767 c -2.48113,-0.899537 -5.02394,-2.349944 -8.59592,-4.903075 -5.31357,-3.797969 -6.50027,-5.084554 -5.4748,-5.935617 0.19199,-0.159336 1.17425,-0.484066 2.18281,-0.721624 2.21289,-0.521226 5.11537,-0.372639 7.25771,0.371545 1.37936,0.47915 4.7699,2.183403 5.49649,2.762809 0.64678,0.515763 0.0843,0.511606 -0.65261,-0.0048 -1.33991,-0.938969 -3.62653,-2.100814 -5.10847,-2.595636 -3.01103,-1.005394 -9.26041,-0.390496 -9.26041,0.911162 0,0.653153 1.25383,1.782604 5.08804,4.583305 4.069,2.972207 7.42436,4.808901 10.03373,5.492375 1.21314,0.317758 1.64547,0.511043 1.1501,0.514178 -0.43656,0.0028 -1.38906,-0.210807 -2.11667,-0.4746 z"
         id="path20471" />
      <path
         style="fill:#102a1c;stroke-width:1.1773"
         d="m 195.11438,86.389995 c 4.10873,-0.596709 6.57783,-2.089563 12.56771,-7.59862 5.00236,-4.600814 6.87631,-6.562784 6.90985,-7.234398 0.0221,-0.443028 0.0643,-0.486254 0.15107,-0.154839 0.16673,0.636811 -1.25891,2.537386 -3.04869,4.064336 -0.82428,0.703232 -2.75326,2.440015 -4.28663,3.859517 -3.49568,3.236109 -5.54013,4.830579 -7.39852,5.770127 -1.93247,0.977001 -4.0832,1.596336 -5.40584,1.556693 -0.9445,-0.02831 -0.88185,-0.06052 0.51105,-0.262816 z"
         id="path20469" />
      <path
         style="fill:#102a1c;stroke-width:1.1773"
         d="m 187.5958,86.585909 c 0.0606,-0.05454 0.82462,-0.165593 1.69774,-0.246781 1.0439,-0.09707 1.3157,-0.07383 0.79375,0.06786 -0.81613,0.221554 -2.68835,0.356001 -2.49149,0.178919 z"
         id="path20468" />
    </g>
  </g>
</svg>
