<?xml version="1.0" encoding="UTF-8" standalone="no"?>
<!-- Created with Inkscape (http://www.inkscape.org/) -->

<svg
   width="185"
   height="185"
   viewBox="0 0 48.947914 48.947918"
   version="1.1"
   id="svg1"
   xmlns="http://www.w3.org/2000/svg"
   xmlns:svg="http://www.w3.org/2000/svg">
  <defs
     id="defs1" />
  <g
     id="layer1">
    <g
       id="g20874"
       transform="matrix(0.78453287,0,0,0.78453287,-80.102677,-19.129823)"
       style="display:inline;stroke-width:1.27464">
      <path
         style="fill:#e7b08a;stroke-width:1.27464"
         d="m 127.30837,86.658725 c -2.47573,-0.30959 -5.04606,-1.692252 -9.76097,-5.250748 -5.34078,-4.030858 -5.37989,-4.066426 -5.37989,-4.892184 0,-0.795081 0.47833,-1.040876 2.543,-1.306743 2.72846,-0.351342 6.78503,0.604068 9.40218,2.214412 0.73788,0.454027 1.38898,0.778134 1.44688,0.720238 0.0579,-0.0579 -0.55134,-0.987508 -1.35385,-2.065804 -2.22054,-2.98364 -6.35725,-9.230309 -7.03124,-10.617593 -0.78803,-1.621997 -0.47699,-2.058571 1.46664,-2.058571 4.08024,0 8.77045,3.218307 11.41525,7.832858 1.35331,2.361208 2.48405,4.999107 2.48405,5.795008 0,0.345622 0.0893,0.683639 0.19844,0.75115 0.34443,0.21305 0.0911,-27.826022 -0.27124,-30.015393 l -0.32407,-1.958414 -1.63098,-0.179921 c -2.41449,-0.266353 -4.05756,-1.325919 -4.05756,-2.616591 0,-0.236396 -0.24951,-0.71592 -0.55446,-1.065608 -1.47181,-1.687743 -3.42034,-6.18596 -3.40588,-7.862543 0.0102,-1.177996 0.5752,-2.082772 0.98271,-1.573583 0.14686,0.183515 0.34936,0.602197 0.44999,0.930404 0.10062,0.328207 0.49177,0.963745 0.86921,1.412307 l 0.68625,0.815568 0.71951,-1.941474 c 1.1878,-3.205062 1.802,-4.456979 2.27587,-4.638819 0.3285,-0.126056 0.85459,0.275954 1.95212,1.491696 l 1.50243,1.664257 0.15212,-0.758471 c 0.25442,-1.268636 1.21066,-3.273797 1.63977,-3.438459 1.24901,-0.479293 2.36248,0.695491 2.74733,2.89864 l 0.1929,1.104265 0.88451,-1.785938 c 0.48648,-0.982265 1.01699,-1.779197 1.17892,-1.770958 0.4571,0.02326 2.56523,3.06413 2.8853,4.161907 0.15755,0.540369 0.31797,1.026405 0.35648,1.080081 0.0385,0.05367 0.5734,-0.333278 1.18864,-0.859896 1.6505,-1.412771 1.81711,-1.312477 1.81711,1.093875 0,3.279117 -1.21895,6.68952 -2.88308,8.066359 -0.30608,0.253238 -0.5565,0.736978 -0.5565,1.074978 0,1.245719 -2.03183,2.565633 -3.94944,2.565633 h -1.00457 l -0.162,1.653645 c -0.49872,5.090953 -0.72691,11.895261 -0.6544,19.51302 l 0.0819,8.598958 0.47971,-2.116666 c 0.90846,-4.008477 1.8653,-7.410794 2.38111,-8.466667 2.25115,-4.60818 7.40532,-9.663134 8.90669,-8.735239 0.47548,0.293865 0.30639,4.856721 -0.26489,7.147739 -0.29404,1.179208 -1.34766,3.815811 -2.37894,5.953125 -1.5489,3.210058 -3.34923,7.9375 -3.0228,7.9375 0.0497,0 0.61498,-0.354101 1.25625,-0.78689 1.56056,-1.053209 3.24997,-1.754792 5.69535,-2.365188 3.10716,-0.775583 4.5864,-0.90962 5.18382,-0.469715 0.4964,0.365524 0.49029,0.407244 -0.24325,1.658925 -1.02456,1.748285 -7.28389,7.987967 -9.35551,9.326148 -2.95069,1.906025 -3.70043,2.072824 -9.96045,2.21595 -3.05594,0.06987 -6.30333,0.03361 -7.21643,-0.08057 z"
         id="path20587" />
      <path
         style="fill:#eea224;stroke-width:1.27464"
         d="m 127.53372,86.630242 c -2.46219,-0.271967 -5.31603,-1.754161 -9.80996,-5.094987 -4.59297,-3.414444 -5.55625,-4.292158 -5.55625,-5.062668 0,-0.816452 1.16705,-1.164606 3.90389,-1.164606 2.88128,0 4.9533,0.543227 7.69634,2.01777 1.21414,0.65267 2.1168,1.03122 2.00591,0.841222 -0.11088,-0.189997 -1.00011,-1.417012 -1.97605,-2.7267 -2.31521,-3.106953 -5.6203,-8.096853 -6.53804,-9.870881 -0.71207,-1.376464 -0.71628,-1.41176 -0.21284,-1.785938 1.10709,-0.822831 4.28955,-0.241508 6.97505,1.274093 1.96096,1.106701 4.57863,3.802193 5.92464,6.100798 1.31551,2.2465 2.59401,5.275577 2.59401,6.145811 0,0.340136 0.11569,0.689925 0.25708,0.77731 0.41878,0.258824 0.20414,-27.83023 -0.23198,-30.356296 l -0.35401,-2.05052 h -1.11898 c -2.1207,0 -4.24522,-1.091413 -4.54071,-2.332671 -0.093,-0.390521 -0.70441,-1.523795 -1.35876,-2.518387 -1.72024,-2.614682 -2.99222,-7.009552 -2.33603,-8.071288 0.31154,-0.504094 0.53027,-0.347432 1.03037,0.738017 0.26131,0.567152 0.72353,1.347014 1.02717,1.733027 l 0.55207,0.701842 0.98162,-2.599749 c 1.11825,-2.961591 1.77527,-4.31954 2.08993,-4.31954 0.11964,0 0.89891,0.714374 1.73173,1.587499 1.55396,1.629165 1.74134,1.772582 1.74134,1.332842 0,-0.531009 1.11359,-3.202383 1.49318,-3.581977 0.58457,-0.584571 1.018,-0.490639 1.92605,0.417405 0.66367,0.66367 0.8141,1.030348 0.8141,1.984375 0,0.643649 0.0904,1.170272 0.20094,1.170272 0.23705,0 0.7688,-0.804455 1.44286,-2.182812 0.26687,-0.545703 0.57922,-0.992188 0.69412,-0.992188 0.29507,0 1.45279,1.269633 2.26534,2.484318 0.40075,0.599098 0.68841,1.400625 0.68841,1.918229 0,0.963522 0.26924,1.124231 0.804,0.479894 0.18679,-0.225074 0.68182,-0.652889 1.10005,-0.950699 1.06903,-0.761216 1.53673,-0.315852 1.53162,1.458467 -0.008,2.903351 -1.43181,6.802755 -2.81383,7.708292 -0.35975,0.235718 -0.62184,0.668626 -0.62184,1.027125 0,1.402942 -1.96658,2.807707 -3.93061,2.807707 -1.00582,0 -1.08092,0.05346 -1.20796,0.859895 -0.38004,2.412358 -0.68023,11.268708 -0.66362,19.578152 0.016,7.998697 0.0679,9.193781 0.36465,8.388452 0.19031,-0.516519 0.42954,-1.469019 0.53162,-2.116667 0.228,-1.446421 1.70073,-6.801904 2.07004,-7.527542 1.63871,-3.219826 5.68547,-7.830986 7.52748,-8.57732 1.45824,-0.590844 1.6584,-0.324266 1.6584,2.208771 0,3.438064 -0.78179,6.275179 -2.95719,10.731685 -1.03067,2.111421 -2.10252,4.612853 -2.3819,5.558739 -0.27937,0.945885 -0.58091,1.94895 -0.67009,2.229034 -0.14182,0.445443 -0.049,0.424291 0.74071,-0.168842 1.49172,-1.120366 3.54735,-2.034612 6.13109,-2.726823 2.38775,-0.639703 5.32329,-0.871242 5.58929,-0.440852 0.0732,0.118489 -0.18763,0.766182 -0.5797,1.43932 -1.81724,3.120035 -7.90994,8.829953 -11.12514,10.426178 -2.21714,1.10073 -1.30801,0.995652 -10.48978,1.212415 -1.60073,0.03779 -3.67516,-0.01576 -4.60983,-0.119003 z"
         id="path20576" />
      <path
         style="fill:#c77222;stroke-width:1.27464"
         d="m 138.81721,40.53807 c 0.15128,-0.278505 1.21191,-1.46913 2.35695,-2.645834 2.2817,-2.344804 3.12643,-3.325292 3.34925,-3.887538 0.0905,-0.228418 0.15401,-0.152167 0.16696,0.200507 0.0285,0.777382 -2.00667,3.42099 -3.72565,4.839389 -0.77706,0.641188 -1.64003,1.353457 -1.91771,1.582822 -0.4715,0.389467 -0.48669,0.383563 -0.2298,-0.08935 z"
         id="path20565" />
      <path
         style="fill:#c77222;stroke-width:1.27464"
         d="m 137.40664,38.698503 c 1.34945,-1.347264 2.67774,-2.829097 2.95175,-3.292962 0.57453,-0.972597 1.03731,-1.123441 0.76109,-0.248078 -0.24909,0.789395 -1.48524,2.212944 -3.56826,4.109221 -2.72768,2.48313 -2.82354,2.106422 -0.14458,-0.568181 z"
         id="path20564" />
      <path
         style="fill:#c77222;stroke-width:1.27464"
         d="m 127.54131,40.153709 c -0.75291,-0.950624 -1.88005,-3.205692 -1.88005,-3.761411 0,-0.667851 0.53492,-0.08118 1.1659,1.278706 0.9907,2.135121 1.43909,2.854111 1.73454,2.781299 0.14053,-0.03463 0.18753,0.114194 0.10444,0.330729 -0.20452,0.532967 -0.20409,0.533207 -1.12483,-0.629323 z"
         id="path20563" />
      <path
         style="fill:#c77222;stroke-width:1.27464"
         d="m 127.53372,86.630242 c -2.46219,-0.271967 -5.31603,-1.754161 -9.80996,-5.094987 -4.59297,-3.414444 -5.55625,-4.292158 -5.55625,-5.062668 0,-0.816452 1.16705,-1.164606 3.90389,-1.164606 2.88128,0 4.9533,0.543227 7.69634,2.01777 1.21414,0.65267 2.1168,1.03122 2.00591,0.841222 -0.11088,-0.189997 -1.00011,-1.417012 -1.97605,-2.7267 -2.31521,-3.106953 -5.6203,-8.096853 -6.53804,-9.870881 -0.71207,-1.376464 -0.71628,-1.41176 -0.21284,-1.785938 1.10709,-0.822831 4.28955,-0.241508 6.97505,1.274093 1.96096,1.106701 4.57863,3.802193 5.92464,6.100798 1.31551,2.2465 2.59401,5.275577 2.59401,6.145811 0,0.340136 0.11569,0.689925 0.25708,0.77731 0.41878,0.258824 0.20414,-27.83023 -0.23198,-30.356296 l -0.35401,-2.05052 h -1.11898 c -2.38165,0 -4.12639,-1.029136 -4.70033,-2.772488 L 125.99838,41.7059 h 7.89461 7.89462 l -0.15253,0.859896 c -0.32252,1.818237 -1.97699,3.108854 -3.98531,3.108854 -1.0556,0 -1.12402,0.04699 -1.25208,0.859895 -0.38004,2.412358 -0.68023,11.268708 -0.66362,19.578152 0.016,7.998697 0.0679,9.193781 0.36465,8.388452 0.19031,-0.516519 0.42954,-1.469019 0.53162,-2.116667 0.228,-1.446421 1.70073,-6.801904 2.07004,-7.527542 1.63871,-3.219826 5.68547,-7.830986 7.52748,-8.57732 1.45824,-0.590844 1.6584,-0.324266 1.6584,2.208771 0,3.438064 -0.78179,6.275179 -2.95719,10.731685 -1.03067,2.111421 -2.10252,4.612853 -2.3819,5.558739 -0.27937,0.945885 -0.58091,1.94895 -0.67009,2.229034 -0.14182,0.445443 -0.049,0.424291 0.74071,-0.168842 1.49172,-1.120366 3.54735,-2.034612 6.13109,-2.726823 2.38775,-0.639703 5.32329,-0.871242 5.58929,-0.440852 0.0732,0.118489 -0.18763,0.766182 -0.5797,1.43932 -1.81724,3.120035 -7.90994,8.829953 -11.12514,10.426178 -2.21714,1.10073 -1.30801,0.995652 -10.48978,1.212415 -1.60073,0.03779 -3.67516,-0.01576 -4.60983,-0.119003 z"
         id="path20557" />
      <path
         style="fill:#60734b;stroke-width:1.27464"
         d="m 127.53372,86.630242 c -2.46219,-0.271967 -5.31603,-1.754161 -9.80996,-5.094987 -4.59297,-3.414444 -5.55625,-4.292158 -5.55625,-5.062668 0,-0.816452 1.16705,-1.164606 3.90389,-1.164606 2.88128,0 4.9533,0.543227 7.69634,2.01777 1.21414,0.65267 2.1168,1.03122 2.00591,0.841222 -0.11088,-0.189997 -1.00011,-1.417012 -1.97605,-2.7267 -2.31521,-3.106953 -5.6203,-8.096853 -6.53804,-9.870881 -0.71207,-1.376464 -0.71628,-1.41176 -0.21284,-1.785938 1.10709,-0.822831 4.28955,-0.241508 6.97505,1.274093 1.96096,1.106701 4.57863,3.802193 5.92464,6.100798 1.31551,2.2465 2.59401,5.275577 2.59401,6.145811 0,0.340136 0.11569,0.689925 0.25708,0.77731 0.41527,0.256653 0.20454,-27.828844 -0.22754,-30.326501 l -0.34958,-2.020726 -1.49363,-0.112657 c -2.60749,-0.19667 -4.00463,-1.162821 -4.39553,-3.039598 l -0.17573,-0.843708 6.96278,-0.02313 c 3.82953,-0.01272 7.33452,0.05137 7.78887,0.142417 0.78868,0.158046 0.81671,0.207177 0.61882,1.084618 -0.37042,1.642394 -1.93436,2.732467 -3.92031,2.732467 -1.00582,0 -1.08092,0.05346 -1.20796,0.859895 -0.38004,2.412358 -0.68023,11.268708 -0.66362,19.578152 0.016,7.998697 0.0679,9.193781 0.36465,8.388452 0.19031,-0.516519 0.42954,-1.469019 0.53162,-2.116667 0.228,-1.446421 1.70073,-6.801904 2.07004,-7.527542 1.63871,-3.219826 5.68547,-7.830986 7.52748,-8.57732 1.45824,-0.590844 1.6584,-0.324266 1.6584,2.208771 0,3.438064 -0.78179,6.275179 -2.95719,10.731685 -1.03067,2.111421 -2.10252,4.612853 -2.3819,5.558739 -0.27937,0.945885 -0.58091,1.94895 -0.67009,2.229034 -0.14182,0.445443 -0.049,0.424291 0.74071,-0.168842 1.49172,-1.120366 3.54735,-2.034612 6.13109,-2.726823 2.38775,-0.639703 5.32329,-0.871242 5.58929,-0.440852 0.0732,0.118489 -0.18763,0.766182 -0.5797,1.43932 -1.81724,3.120035 -7.90994,8.829953 -11.12514,10.426178 -2.21714,1.10073 -1.30801,0.995652 -10.48978,1.212415 -1.60073,0.03779 -3.67516,-0.01576 -4.60983,-0.119003 z"
         id="path20533" />
      <path
         style="fill:#184d3a;stroke-width:1.27464"
         d="m 126.45501,86.495243 c -1.55433,-0.265284 -5.17522,-2.375115 -8.99584,-5.241727 -4.79049,-3.594313 -5.29166,-4.033416 -5.29166,-4.636342 0,-0.785655 0.75516,-1.121607 2.81891,-1.25405 3.53211,-0.226677 6.96201,0.682218 9.79846,2.596511 0.66237,0.447028 1.24581,0.771273 1.29654,0.720545 0.10007,-0.100074 -2.75229,-4.213502 -3.07226,-4.430532 -0.36217,-0.245661 -4.94215,-7.264833 -5.63736,-8.639694 -0.72624,-1.436237 -0.66618,-1.689255 0.48437,-2.040423 0.97698,-0.298191 3.68732,0.339298 5.64263,1.327181 3.59952,1.818595 7.70586,7.288719 8.89302,11.846536 0.2228,0.855388 0.46644,1.616602 0.54143,1.691589 0.075,0.07499 0.13426,-6.10452 0.13172,-13.732237 -0.004,-10.971715 -0.0863,-14.36597 -0.39587,-16.249825 -0.21518,-1.309688 -0.3917,-2.454011 -0.39225,-2.54294 -5.6e-4,-0.08893 -0.69424,-0.22455 -1.54152,-0.301378 -1.95254,-0.17705 -3.58655,-0.991513 -3.95306,-1.970383 -0.60263,-1.609444 -0.60585,-1.595913 0.42066,-1.76565 1.29053,-0.213393 7.98553,-0.209918 11.51404,0.006 l 2.81929,0.1725 v 0.77968 c 0,1.477294 -2.70041,3.153363 -4.39523,2.727992 -0.78893,-0.198009 -0.79624,-0.162522 -1.14784,5.573947 -0.29199,4.763932 -0.3906,24.641074 -0.1209,24.371377 0.0863,-0.08628 0.49,-1.624166 0.89716,-3.417535 1.08338,-4.771797 1.46466,-6.070051 2.22104,-7.562699 1.6376,-3.231646 4.77638,-6.856011 6.90747,-7.976078 1.78559,-0.938476 1.99089,-0.740341 1.98415,1.914851 -0.008,3.157329 -0.89739,6.329019 -3.01722,10.760131 -1.07906,2.255573 -2.21691,4.934479 -2.52856,5.953125 -0.31165,1.018646 -0.63211,2.010023 -0.71215,2.203062 -0.08,0.193038 0.44655,-0.07438 1.17018,-0.594261 1.73805,-1.248665 3.39323,-1.961327 6.28252,-2.705043 2.76894,-0.712736 4.83879,-0.812757 5.05691,-0.244364 0.27106,0.706388 -1.24284,2.756281 -4.27475,5.788187 -4.48517,4.485176 -6.85412,6.141956 -9.69114,6.777747 -1.14904,0.257505 -12.307,0.334175 -13.71289,0.09423 z m 5.54333,-1.728408 c -0.23776,-1.748035 -1.15225,-4.952361 -1.90662,-6.680729 -1.12346,-2.573981 -6.76,-9.532612 -7.29121,-9.001407 -0.0679,0.0679 0.22056,0.557793 0.64104,1.088641 1.35955,1.71643 2.64304,3.629965 3.97642,5.928391 1.41231,2.434461 1.63594,2.926285 3.27831,7.209896 0.59979,1.564349 1.18063,2.844271 1.29075,2.844271 0.11013,0 0.11522,-0.625079 0.0113,-1.389063 z m 4.51083,-0.449998 c 0,-1.078909 0.5205,-3.448624 0.93269,-4.246356 0.18798,-0.363802 0.78529,-1.971146 1.32735,-3.571875 0.54206,-1.600729 1.25372,-3.446197 1.58147,-4.101041 0.32774,-0.654844 1.21486,-2.738437 1.97138,-4.630208 0.75651,-1.891771 1.4452,-3.607943 1.53042,-3.813716 0.10228,-0.246967 0.0455,-0.306471 -0.16714,-0.175067 -0.17716,0.109487 -0.77111,1.111284 -1.31991,2.226216 -0.54879,1.114933 -1.25398,2.5034 -1.56708,3.085483 -1.13568,2.111286 -2.19286,4.434999 -3.40226,7.4782 -1.11691,2.810495 -1.24593,3.362466 -1.35973,5.817112 -0.0888,1.915226 -0.0378,2.711979 0.17355,2.711979 0.16459,0 0.29926,-0.351327 0.29926,-0.780727 z M 125.92584,83.49455 c 0,-0.687857 -1.82899,-2.470826 -3.26596,-3.18378 -1.83992,-0.912883 -1.82098,-0.910077 -1.71338,-0.253773 0.0483,0.294627 1.0486,1.194184 2.33351,2.098497 2.34532,1.650637 2.64583,1.802724 2.64583,1.339056 z m 18.16212,-3.004639 c 1.43999,-0.757883 3.73113,-2.691457 3.48308,-2.939503 -0.48767,-0.487672 -5.74167,3.085229 -6.59525,4.485001 -0.86053,1.411159 -0.54147,1.568081 0.66477,0.32695 0.63946,-0.657948 1.74078,-1.50055 2.4474,-1.872448 z"
         id="path20514" />
      <path
         style="fill:#102a1c;stroke-width:1.27464"
         d="m 126.23924,67.123498 c -0.77352,-0.704714 -2.14274,-1.658482 -3.04271,-2.119485 -0.89997,-0.461003 -1.33866,-0.756786 -0.97486,-0.657294 1.11287,0.304345 2.88986,1.450345 4.32399,2.788596 0.7505,0.70033 1.30502,1.272462 1.23226,1.271404 -0.0728,-0.0011 -0.76517,-0.578508 -1.53868,-1.283221 z"
         id="path20493" />
      <path
         style="fill:#102a1c;stroke-width:1.27464"
         d="m 137.33692,70.016319 c -0.0586,-1.101785 1.35717,-4.996575 2.51731,-6.925323 1.64387,-2.732959 4.30426,-5.619729 5.94546,-6.451387 1.58466,-0.803011 2.08376,-0.83494 0.60864,-0.03894 -2.03348,1.097299 -3.84888,2.920152 -5.70607,5.72947 -1.00529,1.520675 -1.99502,3.366143 -2.1994,4.101042 -0.84044,3.022035 -1.14594,3.9614 -1.16594,3.585136 z"
         id="path20490" />
      <path
         style="fill:#102a1c;stroke-width:1.27464"
         d="m 130.87735,73.595399 c -0.23924,-0.501703 -0.91652,-1.720599 -1.50505,-2.708657 -0.58853,-0.988058 -0.83417,-1.519495 -0.54586,-1.180972 0.66589,0.781867 2.7481,4.539619 2.5984,4.689319 -0.0619,0.06187 -0.30824,-0.297987 -0.54749,-0.79969 z"
         id="path20486" />
      <path
         style="fill:#102a1c;stroke-width:1.27464"
         d="m 136.27519,74.911106 c -0.0407,-0.356946 0.76502,-4.191105 0.91152,-4.337603 0.23428,-0.234279 0.061,0.944627 -0.40416,2.750104 -0.26245,1.018645 -0.49076,1.73302 -0.50736,1.587499 z"
         id="path20483" />
      <path
         style="fill:#102a1c;stroke-width:1.27464"
         d="m 135.49725,65.386107 c -0.0502,-10.109279 0.32527,-19.295145 0.81386,-19.909895 0.15101,-0.190008 0.86023,-0.330729 1.66683,-0.330729 1.23065,0 1.52062,-0.110012 2.34885,-0.891137 0.62763,-0.591933 0.95519,-1.147154 0.97557,-1.653646 0.0196,-0.486593 0.0759,-0.58739 0.15573,-0.27856 0.38501,1.490236 -1.42081,3.053857 -3.64355,3.154878 l -1.43766,0.06534 -0.20291,2.116667 c -0.1116,1.164166 -0.29828,7.891197 -0.41484,14.948957 l -0.21193,12.832291 z"
         id="path20482" />
      <path
         style="fill:#102a1c;stroke-width:1.27464"
         d="m 142.05952,75.109544 c 0.39972,-1.273307 1.37787,-3.624792 2.17367,-5.225521 2.44345,-4.914944 2.98958,-6.716189 3.40935,-11.244791 l 0.20846,-2.248958 -0.0962,2.513542 c -0.14203,3.712927 -0.71972,5.724523 -3.0393,10.583332 -1.14627,2.401094 -2.16516,4.769657 -2.26419,5.263473 -0.18801,0.937476 -0.85067,2.674027 -1.02039,2.674027 -0.054,0 0.22884,-1.041797 0.62856,-2.315104 z"
         id="path20481" />
      <path
         style="fill:#102a1c;stroke-width:1.27464"
         d="m 132.09104,76.829336 c -0.15067,-0.618464 -0.3569,-1.362605 -0.45829,-1.653646 -0.11216,-0.321964 -0.0315,-0.268058 0.20598,0.13767 0.38659,0.660447 0.86907,2.640455 0.64342,2.640455 -0.0644,0 -0.24044,-0.506016 -0.39111,-1.124479 z"
         id="path20479" />
      <path
         style="fill:#102a1c;stroke-width:1.27464"
         d="m 133.13123,64.592357 c -0.0361,-7.567083 -0.1837,-14.532239 -0.32799,-15.478124 -0.56608,-3.71071 -0.36005,-3.34828 -1.99953,-3.517489 -1.93409,-0.199616 -3.68796,-1.062193 -4.0314,-1.982701 -0.59343,-1.590546 -0.59272,-1.643749 0.0217,-1.639508 0.447,0.0031 0.49805,0.06036 0.21406,0.240146 -0.31313,0.198223 -0.31766,0.369578 -0.0283,1.068227 0.43472,1.04952 1.96512,1.857413 3.89603,2.056699 1.71086,0.176577 1.71664,0.186594 2.1764,3.774626 0.22727,1.773605 0.29596,6.446885 0.23335,15.874999 l -0.0887,13.361458 z"
         id="path20478" />
      <path
         style="fill:#102a1c;stroke-width:1.27464"
         d="m 124.36497,76.035586 c -2.40709,-3.260175 -6.34043,-9.140435 -7.04768,-10.536118 -0.46698,-0.921536 -0.54669,-1.303331 -0.31953,-1.530491 0.33748,-0.337479 3.21102,-0.379883 4.03177,-0.0595 0.29021,0.113286 -0.45393,0.149151 -1.65365,0.0797 -2.95624,-0.171135 -2.95138,-0.107537 0.38593,5.051789 0.95641,1.478564 2.53248,3.761399 3.50236,5.072967 2.32208,3.140117 2.98872,4.10446 2.83737,4.10446 -0.0687,0 -0.85016,-0.982266 -1.73657,-2.182812 z"
         id="path20477" />
      <path
         style="fill:#102a1c;stroke-width:1.27464"
         d="m 136.7025,86.517409 c -0.0773,-0.126067 0.61607,-0.247608 1.54081,-0.270092 3.60218,-0.08758 6.06083,-1.521341 10.93765,-6.378259 3.32215,-3.308584 4.96434,-5.389 4.65234,-5.893827 -0.6742,-1.09087 -7.85815,0.998514 -11.50329,3.345623 -0.5177,0.333341 -0.4934,0.280203 0.11176,-0.244481 2.57936,-2.236318 11.17348,-4.592557 11.70441,-3.20898 0.27443,0.715161 -1.68696,3.160494 -5.47767,6.829196 -3.10643,3.006444 -3.97164,3.68824 -5.85186,4.61135 -1.67849,0.824075 -2.65713,1.125793 -4.09003,1.260977 -1.03598,0.09774 -1.94683,0.07456 -2.02412,-0.05151 z"
         id="path20467" />
      <path
         style="fill:#102a1c;stroke-width:1.27464"
         d="m 133.86334,86.420489 -1.71979,-0.17325 1.78594,-0.04567 c 1.04468,-0.02671 1.78593,0.06415 1.78593,0.218917 0,0.145521 -0.0298,0.244033 -0.0661,0.218916 -0.0364,-0.02512 -0.84006,-0.123629 -1.78594,-0.218916 z"
         id="path20466" />
      <path
         style="fill:#102a1c;stroke-width:1.27464"
         d="m 126.35405,86.390809 c -2.02189,-0.474671 -4.49298,-1.91305 -8.58001,-4.994292 -5.56347,-4.194339 -5.68387,-4.300535 -5.56697,-4.909999 0.21598,-1.126028 3.65421,-1.507383 7.08454,-0.785789 1.98473,0.417499 5.7473,2.154556 6.3844,2.947471 0.3128,0.389297 0.23813,0.375606 -0.41163,-0.07547 -3.39866,-2.359443 -8.73085,-3.585144 -11.8401,-2.721662 -0.54571,0.151549 -0.99219,0.424378 -0.99219,0.606286 0,0.521471 1.7045,2.007014 5.42396,4.727206 6.16134,4.506039 7.08306,4.924834 11.50937,5.229431 l 2.77813,0.191176 -2.38125,0.01337 c -1.30969,0.0074 -2.8434,-0.09512 -3.40825,-0.227728 z"
         id="path20465" />
    </g>
  </g>
</svg>
