<?xml version="1.0" encoding="UTF-8" standalone="no"?>
<!-- Created with Inkscape (http://www.inkscape.org/) -->

<svg
   width="185"
   height="185"
   viewBox="0 0 48.947914 48.947918"
   version="1.1"
   id="svg1"
   xmlns="http://www.w3.org/2000/svg"
   xmlns:svg="http://www.w3.org/2000/svg">
  <defs
     id="defs1" />
  <g
     id="g3"
     style="display:inline"
     transform="translate(-108.0834,-30.004928)">
    <path
       style="fill:#ced6ce"
       d="m 116.6096,78.597612 c -0.65213,-0.47685 -0.44958,-1.54514 0.37143,-1.959027 0.48223,-0.243101 2.57919,-0.334509 7.73906,-0.337353 4.96419,-0.0027 7.07761,-0.09072 7.07761,-0.294643 0,-0.159909 -0.18946,-0.689991 -0.42101,-1.17796 -0.45787,-0.964889 -0.78706,-1.120744 -5.00295,-2.368698 -1.30969,-0.387683 -2.8616,-0.982528 -3.44869,-1.321879 -3.04355,-1.759236 -6.10644,-7.007883 -4.83277,-8.281553 0.50845,-0.508449 3.90095,-0.387326 5.80619,0.207301 2.92104,0.911653 5.1763,3.050337 7.03527,6.671587 l 0.85583,1.667154 0.004,-4.3729 c 0.005,-4.986731 -0.11242,-5.34621 -1.89737,-5.826848 -4.88628,-1.315738 -7.99314,-4.798741 -8.01248,-8.982543 l -0.008,-1.719792 1.88793,0.01549 c 1.66695,0.01367 2.0653,0.122062 3.40337,0.926041 1.70297,1.023228 3.05229,2.45319 3.98001,4.217848 l 0.62593,1.190625 0.0123,-2.266511 c 0.0338,-6.213446 2.07718,-9.599848 6.26652,-10.385074 1.37988,-0.258636 1.81775,0.490649 1.80512,3.088955 -0.008,1.716021 -0.13842,2.416463 -0.63943,3.442943 -0.63999,1.311235 -3.16088,4.007526 -3.99405,4.271966 -0.76032,0.241315 -1.00493,1.397554 -1.14656,5.419596 l -0.13509,3.836458 0.48348,-1.240032 c 1.54413,-3.96039 4.77048,-6.409489 8.90412,-6.759046 2.2598,-0.191098 2.85747,0.16614 2.69466,1.610638 -0.20652,1.8322 -1.46872,4.024805 -3.3067,5.744145 -1.94967,1.823815 -2.9152,2.36061 -5.61258,3.120345 -1.08288,0.305 -2.15444,0.739787 -2.38125,0.966193 -0.32973,0.329143 -0.42937,1.231852 -0.49715,4.503973 l -0.0848,4.092325 6.03789,0.0029 c 7.05361,0.0034 7.90452,0.100573 8.47258,0.967539 0.37897,0.57839 0.37404,0.673864 -0.0596,1.152995 -0.46047,0.508816 -0.8759,0.522387 -15.99159,0.522387 -12.35252,0 -15.61526,-0.0705 -15.99141,-0.345553 z"
       id="path6159" />
    <path
       style="fill:#d8caad"
       d="m 116.6503,78.657385 c -0.25466,-0.148327 -0.46302,-0.557236 -0.46302,-0.908687 0,-0.351451 0.20836,-0.747189 0.46302,-0.879418 0.48414,-0.251381 7.06768,-0.557982 12.17084,-0.566805 3.28108,-0.0057 3.37103,-0.06235 2.56701,-1.617153 -0.46174,-0.892901 -0.86497,-1.085108 -4.22066,-2.011844 -4.46177,-1.232201 -6.86803,-3.050014 -8.58466,-6.485289 -1.53953,-3.080875 -1.02792,-3.803528 2.53537,-3.581222 4.24731,0.26498 7.29949,2.442444 9.62116,6.863848 l 1.19063,2.267434 -0.074,-4.401189 c -0.0407,-2.420655 -0.202,-4.723781 -0.35838,-5.118058 -0.22363,-0.563829 -0.6008,-0.808869 -1.76674,-1.147814 -3.50325,-1.018423 -5.69823,-2.700322 -6.95169,-5.326701 -0.94439,-1.978795 -1.29831,-4.344102 -0.74903,-5.005943 0.49151,-0.592232 2.99263,-0.358726 4.62577,0.431863 1.6192,0.783839 3.61322,2.818905 4.415,4.505876 l 0.65042,1.368504 0.14857,-1.287791 c 0.0817,-0.708286 0.1623,-2.121229 0.17909,-3.139875 0.0358,-2.170041 0.55105,-4.172689 1.39539,-5.423286 0.95388,-1.412849 2.95897,-2.709108 4.40552,-2.848103 1.72279,-0.165539 2.01812,0.247869 2.01589,2.82195 -0.001,1.603674 -0.13939,2.303946 -0.68288,3.465064 -0.65736,1.404402 -2.34064,3.267281 -3.84249,4.252482 -0.3981,0.261154 -0.83269,0.669356 -0.96575,0.907115 -0.13306,0.23776 -0.29681,2.299507 -0.3639,4.581659 l -0.12198,4.149368 0.51491,-1.3682 c 1.09473,-2.908898 3.21833,-5.166141 5.78393,-6.147942 1.85548,-0.71005 4.18979,-0.96655 5.20504,-0.571944 0.72232,0.280749 0.75407,0.358927 0.6006,1.47864 -0.34013,2.481479 -2.46084,5.471588 -5.06741,7.144815 -0.7276,0.467069 -2.34401,1.160275 -3.59201,1.540457 -1.248,0.380182 -2.46839,0.911463 -2.71198,1.180624 -0.37387,0.413123 -0.44281,1.125206 -0.44242,4.569592 l 4.6e-4,4.080208 6.94485,0.09572 c 4.13364,0.05698 7.07873,0.203966 7.27558,0.363126 0.42014,0.339693 0.42763,1.322796 0.0132,1.737192 -0.41507,0.415066 -31.05253,0.445665 -31.76323,0.03172 z"
       id="path6144" />
    <path
       style="fill:#b7c5b8"
       d="m 116.6503,78.657385 c -0.57524,-0.335047 -0.59758,-1.129363 -0.0472,-1.6797 0.33734,-0.337343 1.09847,-0.415956 4.03489,-0.416742 1.99052,-5.32e-4 5.31576,-0.07858 7.38944,-0.173448 4.10574,-0.187825 4.13595,-0.203125 3.36076,-1.702173 -0.46174,-0.892901 -0.86497,-1.085108 -4.22066,-2.011844 -4.46177,-1.232201 -6.86803,-3.050014 -8.58466,-6.485289 -1.53953,-3.080875 -1.02792,-3.803528 2.53537,-3.581222 4.24731,0.26498 7.29949,2.442444 9.62116,6.863848 l 1.19063,2.267434 -0.074,-4.401189 c -0.0407,-2.420655 -0.202,-4.723781 -0.35838,-5.118058 -0.22363,-0.563829 -0.6008,-0.808869 -1.76674,-1.147814 -3.50325,-1.018423 -5.69823,-2.700322 -6.95169,-5.326701 -0.94439,-1.978795 -1.29831,-4.344102 -0.74903,-5.005943 0.49151,-0.592232 2.99263,-0.358726 4.62577,0.431863 1.6192,0.783839 3.61322,2.818905 4.415,4.505876 l 0.65042,1.368504 0.14857,-1.287791 c 0.0817,-0.708286 0.1623,-2.121229 0.17909,-3.139875 0.0358,-2.170041 0.55105,-4.172689 1.39539,-5.423286 0.95388,-1.412849 2.95897,-2.709108 4.40552,-2.848103 1.72279,-0.165539 2.01812,0.247869 2.01589,2.82195 -0.001,1.603674 -0.13939,2.303946 -0.68288,3.465064 -0.65736,1.404402 -2.34064,3.267281 -3.84249,4.252482 -0.3981,0.261154 -0.83269,0.669356 -0.96575,0.907115 -0.13306,0.23776 -0.29681,2.299507 -0.3639,4.581659 l -0.12198,4.149368 0.51491,-1.3682 c 1.09473,-2.908898 3.21833,-5.166141 5.78393,-6.147942 1.85548,-0.71005 4.18979,-0.96655 5.20504,-0.571944 0.72232,0.280749 0.75407,0.358927 0.6006,1.47864 -0.34013,2.481479 -2.46084,5.471588 -5.06741,7.144815 -0.7276,0.467069 -2.34401,1.160275 -3.59201,1.540457 -1.248,0.380182 -2.46839,0.911463 -2.71198,1.180624 -0.37423,0.413523 -0.44288,1.128359 -0.44288,4.611452 v 4.122069 l 6.93183,0.0356 c 4.52223,0.02322 7.05148,0.134897 7.27604,0.321265 0.4316,0.358198 0.44647,1.335696 0.0267,1.75546 -0.41507,0.415066 -31.05253,0.445665 -31.76323,0.03172 z"
       id="path6128" />
    <path
       style="fill:#9aab9c"
       d="m 116.59571,78.587455 c -0.56803,-0.415357 -0.40394,-1.604535 0.25637,-1.857921 0.22263,-0.08543 3.53485,-0.166891 7.36048,-0.18102 3.82563,-0.01413 7.11343,-0.123177 7.30623,-0.242329 0.22105,-0.13662 0.28968,-0.459098 0.18578,-0.873042 -0.33056,-1.31706 -1.01372,-1.7752 -3.87562,-2.599066 -1.52797,-0.439862 -3.40538,-1.085137 -4.17202,-1.433946 -1.88948,-0.859683 -3.98899,-3.031583 -5.03291,-5.206442 -1.40626,-2.929748 -1.09074,-3.658409 1.58076,-3.650559 4.76454,0.014 8.25962,2.407627 10.7185,7.340638 0.5266,1.056447 0.97115,1.889885 0.9879,1.852083 0.13289,-0.299923 -0.29161,-9.664375 -0.4491,-9.907105 -0.11183,-0.172357 -0.88574,-0.51034 -1.71979,-0.751074 -3.65414,-1.054696 -6.1545,-3.097889 -7.23004,-5.908089 -0.74297,-1.941271 -0.95091,-3.866207 -0.47907,-4.434744 0.49895,-0.601197 3.01624,-0.312827 4.69494,0.537833 1.65957,0.840969 3.61964,2.84388 4.35481,4.449997 0.51938,1.134694 0.60111,1.207373 0.75454,0.670992 0.0946,-0.330846 0.18393,-1.740788 0.19844,-3.133203 0.0305,-2.928957 0.49343,-4.743168 1.60011,-6.270888 0.96735,-1.335385 2.84167,-2.468117 4.36879,-2.640246 0.95502,-0.107645 1.19657,-0.04048 1.43123,0.397991 0.76391,1.427369 0.57248,4.248711 -0.42626,6.282308 -0.50091,1.019943 -2.6271,3.233422 -3.59491,3.742497 -1.23235,0.64823 -1.50263,1.736716 -1.48298,5.972442 l 0.0175,3.77881 0.56977,-1.54049 c 0.85428,-2.309733 2.64175,-4.369421 4.69711,-5.412466 2.07452,-1.05277 4.60892,-1.576944 5.85889,-1.211759 0.81643,0.238526 0.87621,0.332766 0.85611,1.3496 -0.0332,1.680757 -1.44813,4.284524 -3.19668,5.882602 -1.7533,1.602414 -3.31539,2.442386 -5.74711,3.090346 -2.83187,0.754587 -2.80856,0.707632 -2.80856,5.657682 v 4.223026 h 6.95854 c 7.30884,0 7.59354,0.04464 7.59354,1.190625 0,1.204964 0.1944,1.190625 -16.14193,1.190625 -12.5687,0 -15.5991,-0.0674 -15.99339,-0.355708 z"
       id="path6113" />
    <path
       style="fill:#f9a820"
       d="m 116.77532,78.531287 c -0.71466,-0.500569 -0.74532,-0.951267 -0.10418,-1.53149 0.42554,-0.385112 1.36084,-0.437882 7.76111,-0.437882 4.00249,0 7.33958,-0.06233 7.41576,-0.13851 0.2599,-0.259897 -0.0949,-1.363971 -0.67024,-2.085476 -0.45255,-0.567549 -1.24075,-0.91581 -3.71944,-1.643404 -3.88021,-1.138999 -4.91431,-1.65692 -6.52577,-3.268378 -1.36468,-1.364689 -3.15778,-4.599331 -3.15778,-5.696466 0,-0.938459 1.00583,-1.275895 3.30729,-1.109528 4.54929,0.328855 8.02584,3.042583 10.2029,7.964178 0.29562,0.668296 0.57298,1.215084 0.61636,1.215084 0.18989,0 -0.19222,-9.437103 -0.39814,-9.83306 -0.12596,-0.242194 -1.18508,-0.758753 -2.35361,-1.147908 -2.63255,-0.876719 -4.3741,-2.041429 -5.47003,-3.658235 -1.67136,-2.465713 -2.45173,-5.770085 -1.54114,-6.525801 0.53759,-0.446167 3.11852,-0.109739 4.47773,0.583681 1.56003,0.795867 3.71177,2.963025 4.41719,4.448832 0.34359,0.723704 0.70143,1.315826 0.7952,1.315826 0.0938,0 0.18798,-1.279922 0.20935,-2.844271 0.0214,-1.564349 0.11036,-3.260989 0.19776,-3.770312 0.24267,-1.414276 1.42722,-3.667864 2.32747,-4.427973 1.78581,-1.507832 4.37343,-2.143339 4.86337,-1.194423 0.72364,1.401548 0.52702,4.431983 -0.40538,6.247966 -0.53873,1.049257 -2.34409,2.963243 -3.42544,3.631556 -1.50995,0.9332 -1.68346,1.570951 -1.6636,6.11463 0.016,3.664153 0.0495,3.947671 0.35329,2.989701 1.27419,-4.018423 4.18335,-6.581784 8.29077,-7.305292 0.97723,-0.172136 1.90153,-0.18533 2.46932,-0.03525 0.87487,0.23125 0.90518,0.281853 0.84386,1.408954 -0.0939,1.725189 -1.48953,4.270964 -3.19701,5.831507 -1.7353,1.585972 -3.34957,2.440453 -5.74916,3.043212 -2.77408,0.696825 -2.76418,0.676576 -2.76418,5.655828 v 4.233333 h 6.76427 c 4.1568,0 6.96154,0.105579 7.27604,0.273893 0.29039,0.155415 0.51177,0.551964 0.51177,0.916732 0,0.364768 -0.22138,0.761318 -0.51177,0.916733 -0.33571,0.179667 -5.73133,0.273892 -15.68384,0.273892 -13.30368,0 -15.24448,-0.05072 -15.7601,-0.411878 z"
       id="path6098" />
    <path
       style="fill:#c89e59"
       d="m 116.77532,78.531287 c -0.71466,-0.500569 -0.74532,-0.951267 -0.10418,-1.53149 0.42554,-0.385112 1.36084,-0.437882 7.76111,-0.437882 4.00249,0 7.33958,-0.06233 7.41576,-0.13851 0.2599,-0.259897 -0.0949,-1.363971 -0.67024,-2.085476 -0.45255,-0.567549 -1.24075,-0.91581 -3.71944,-1.643404 -3.88021,-1.138999 -4.91431,-1.65692 -6.52577,-3.268378 -1.36468,-1.364689 -3.15778,-4.599331 -3.15778,-5.696466 0,-0.938459 1.00583,-1.275895 3.30729,-1.109528 4.54929,0.328855 8.02584,3.042583 10.2029,7.964178 0.29562,0.668296 0.57298,1.215084 0.61636,1.215084 0.18989,0 -0.19222,-9.437103 -0.39814,-9.83306 -0.12596,-0.242194 -1.18508,-0.758753 -2.35361,-1.147908 -2.63255,-0.876719 -4.3741,-2.041429 -5.47003,-3.658235 -1.67136,-2.465713 -2.45173,-5.770085 -1.54114,-6.525801 0.53759,-0.446167 3.11852,-0.109739 4.47773,0.583681 1.56003,0.795867 3.71177,2.963025 4.41719,4.448832 0.34359,0.723704 0.70143,1.315826 0.7952,1.315826 0.0938,0 0.18798,-1.279922 0.20935,-2.844271 0.0214,-1.564349 0.11036,-3.260989 0.19776,-3.770312 0.24267,-1.414276 1.42722,-3.667864 2.32747,-4.427973 1.78581,-1.507832 4.37343,-2.143339 4.86337,-1.194423 0.72364,1.401548 0.52702,4.431983 -0.40538,6.247966 -0.53873,1.049257 -2.34409,2.963243 -3.42544,3.631556 -1.50995,0.9332 -1.68346,1.570951 -1.6636,6.11463 0.016,3.664153 0.0495,3.947671 0.35329,2.989701 1.27419,-4.018423 4.18335,-6.581784 8.29077,-7.305292 0.97723,-0.172136 1.90153,-0.18533 2.46932,-0.03525 0.87487,0.23125 0.90518,0.281853 0.84386,1.408954 -0.0939,1.725189 -1.48953,4.270964 -3.19701,5.831507 -1.7353,1.585972 -3.34957,2.440453 -5.74916,3.043212 -2.77408,0.696825 -2.76418,0.676576 -2.76418,5.655828 v 4.233333 h 6.76427 c 4.1568,0 6.96154,0.105579 7.27604,0.273893 0.29039,0.155415 0.51177,0.551964 0.51177,0.916732 0,0.364768 -0.22138,0.761318 -0.51177,0.916733 -0.33571,0.179667 -5.73133,0.273892 -15.68384,0.273892 -13.30368,0 -15.24448,-0.05072 -15.7601,-0.411878 z"
       id="path6083" />
    <path
       style="fill:#6794b6"
       d="m 116.77532,78.531287 c -0.71466,-0.500569 -0.74532,-0.951267 -0.10418,-1.53149 0.42554,-0.385112 1.36084,-0.437882 7.76111,-0.437882 4.00249,0 7.33958,-0.06233 7.41576,-0.13851 0.2599,-0.259897 -0.0949,-1.363971 -0.67024,-2.085476 -0.45255,-0.567549 -1.24075,-0.91581 -3.71944,-1.643404 -3.88021,-1.138999 -4.91431,-1.65692 -6.52577,-3.268378 -1.36468,-1.364689 -3.15778,-4.599331 -3.15778,-5.696466 0,-0.938459 1.00583,-1.275895 3.30729,-1.109528 4.54929,0.328855 8.02584,3.042583 10.2029,7.964178 0.29562,0.668296 0.57298,1.215084 0.61636,1.215084 0.18989,0 -0.19222,-9.437103 -0.39814,-9.83306 -0.12596,-0.242194 -1.18508,-0.758753 -2.35361,-1.147908 -2.63255,-0.876719 -4.3741,-2.041429 -5.47003,-3.658235 -1.67136,-2.465713 -2.45173,-5.770085 -1.54114,-6.525801 0.53759,-0.446167 3.11852,-0.109739 4.47773,0.583681 1.56003,0.795867 3.71177,2.963025 4.41719,4.448832 0.34359,0.723704 0.70143,1.315826 0.7952,1.315826 0.0938,0 0.18798,-1.279922 0.20935,-2.844271 0.0214,-1.564349 0.11036,-3.260989 0.19776,-3.770312 0.24267,-1.414276 1.42722,-3.667864 2.32747,-4.427973 1.78581,-1.507832 4.37343,-2.143339 4.86337,-1.194423 0.72364,1.401548 0.52702,4.431983 -0.40538,6.247966 -0.53873,1.049257 -2.34409,2.963243 -3.42544,3.631556 -1.50995,0.9332 -1.68346,1.570951 -1.6636,6.11463 0.016,3.664153 0.0495,3.947671 0.35329,2.989701 1.27419,-4.018423 4.18335,-6.581784 8.29077,-7.305292 0.97723,-0.172136 1.90153,-0.18533 2.46932,-0.03525 0.87487,0.23125 0.90518,0.281853 0.84386,1.408954 -0.0939,1.725189 -1.48953,4.270964 -3.19701,5.831507 -1.7353,1.585972 -3.34957,2.440453 -5.74916,3.043212 -2.77408,0.696825 -2.76418,0.676576 -2.76418,5.655828 v 4.233333 h 6.76427 c 4.1568,0 6.96154,0.105579 7.27604,0.273893 0.29039,0.155415 0.51177,0.551964 0.51177,0.916732 0,0.364768 -0.22138,0.761318 -0.51177,0.916733 -0.33571,0.179667 -5.73133,0.273892 -15.68384,0.273892 -13.30368,0 -15.24448,-0.05072 -15.7601,-0.411878 z"
       id="path6068" />
    <path
       style="fill:#5688af"
       d="m 116.77532,78.531287 c -0.71466,-0.500569 -0.74532,-0.951267 -0.10418,-1.53149 0.42554,-0.385112 1.36084,-0.437882 7.76111,-0.437882 4.00249,0 7.33958,-0.06233 7.41576,-0.13851 0.2599,-0.259897 -0.0949,-1.363971 -0.67024,-2.085476 -0.45255,-0.567549 -1.24075,-0.91581 -3.71944,-1.643404 -3.88021,-1.138999 -4.91431,-1.65692 -6.52577,-3.268378 -1.36468,-1.364689 -3.15778,-4.599331 -3.15778,-5.696466 0,-0.938459 1.00583,-1.275895 3.30729,-1.109528 4.54929,0.328855 8.02584,3.042583 10.2029,7.964178 0.29562,0.668296 0.57298,1.215084 0.61636,1.215084 0.18989,0 -0.19222,-9.437103 -0.39814,-9.83306 -0.12596,-0.242194 -1.18508,-0.758753 -2.35361,-1.147908 -2.63255,-0.876719 -4.3741,-2.041429 -5.47003,-3.658235 -1.67136,-2.465713 -2.45173,-5.770085 -1.54114,-6.525801 0.53759,-0.446167 3.11852,-0.109739 4.47773,0.583681 1.56003,0.795867 3.71177,2.963025 4.41719,4.448832 0.34359,0.723704 0.70143,1.315826 0.7952,1.315826 0.0938,0 0.18798,-1.279922 0.20935,-2.844271 0.0214,-1.564349 0.11036,-3.260989 0.19776,-3.770312 0.24267,-1.414276 1.42722,-3.667864 2.32747,-4.427973 1.78581,-1.507832 4.37343,-2.143339 4.86337,-1.194423 0.72364,1.401548 0.52702,4.431983 -0.40538,6.247966 -0.53873,1.049257 -2.34409,2.963243 -3.42544,3.631556 -1.50995,0.9332 -1.68346,1.570951 -1.6636,6.11463 0.016,3.664153 0.0495,3.947671 0.35329,2.989701 1.27419,-4.018423 4.18335,-6.581784 8.29077,-7.305292 0.97723,-0.172136 1.90153,-0.18533 2.46932,-0.03525 0.87487,0.23125 0.90518,0.281853 0.84386,1.408954 -0.0939,1.725189 -1.48953,4.270964 -3.19701,5.831507 -1.7353,1.585972 -3.34957,2.440453 -5.74916,3.043212 -2.77408,0.696825 -2.76418,0.676576 -2.76418,5.655828 v 4.233333 h 6.76427 c 4.1568,0 6.96154,0.105579 7.27604,0.273893 0.29039,0.155415 0.51177,0.551964 0.51177,0.916732 0,0.364768 -0.22138,0.761318 -0.51177,0.916733 -0.33571,0.179667 -5.73133,0.273892 -15.68384,0.273892 -13.30368,0 -15.24448,-0.05072 -15.7601,-0.411878 z"
       id="path6052" />
    <path
       style="fill:#b28a4d"
       d="m 116.77532,78.531287 c -0.71466,-0.500569 -0.74532,-0.951267 -0.10418,-1.53149 0.42554,-0.385112 1.36084,-0.437882 7.76111,-0.437882 4.00249,0 7.33958,-0.06233 7.41576,-0.13851 0.2599,-0.259897 -0.0949,-1.363971 -0.67024,-2.085476 -0.45255,-0.567549 -1.24075,-0.91581 -3.71944,-1.643404 -3.88021,-1.138999 -4.91431,-1.65692 -6.52577,-3.268378 -1.36468,-1.364689 -3.15778,-4.599331 -3.15778,-5.696466 0,-0.938459 1.00583,-1.275895 3.30729,-1.109528 4.54929,0.328855 8.02584,3.042583 10.2029,7.964178 0.29562,0.668296 0.57298,1.215084 0.61636,1.215084 0.18989,0 -0.19222,-9.437103 -0.39814,-9.83306 -0.12596,-0.242194 -1.18508,-0.758753 -2.35361,-1.147908 -2.63255,-0.876719 -4.3741,-2.041429 -5.47003,-3.658235 -1.67136,-2.465713 -2.45173,-5.770085 -1.54114,-6.525801 0.53759,-0.446167 3.11852,-0.109739 4.47773,0.583681 1.56003,0.795867 3.71177,2.963025 4.41719,4.448832 0.34359,0.723704 0.70143,1.315826 0.7952,1.315826 0.0938,0 0.18798,-1.279922 0.20935,-2.844271 0.0214,-1.564349 0.11036,-3.260989 0.19776,-3.770312 0.24267,-1.414276 1.42722,-3.667864 2.32747,-4.427973 1.78581,-1.507832 4.37343,-2.143339 4.86337,-1.194423 0.72364,1.401548 0.52702,4.431983 -0.40538,6.247966 -0.53873,1.049257 -2.34409,2.963243 -3.42544,3.631556 -1.50995,0.9332 -1.68346,1.570951 -1.6636,6.11463 0.016,3.664153 0.0495,3.947671 0.35329,2.989701 1.27419,-4.018423 4.18335,-6.581784 8.29077,-7.305292 0.97723,-0.172136 1.90153,-0.18533 2.46932,-0.03525 0.87487,0.23125 0.90518,0.281853 0.84386,1.408954 -0.0939,1.725189 -1.48953,4.270964 -3.19701,5.831507 -1.7353,1.585972 -3.34957,2.440453 -5.74916,3.043212 -2.77408,0.696825 -2.76418,0.676576 -2.76418,5.655828 v 4.233333 h 6.76427 c 4.1568,0 6.96154,0.105579 7.27604,0.273893 0.29039,0.155415 0.51177,0.551964 0.51177,0.916732 0,0.364768 -0.22138,0.761318 -0.51177,0.916733 -0.33571,0.179667 -5.73133,0.273892 -15.68384,0.273892 -13.30368,0 -15.24448,-0.05072 -15.7601,-0.411878 z"
       id="path6036" />
    <path
       style="fill:#6f8970"
       d="m 116.77532,78.531287 c -0.71466,-0.500569 -0.74532,-0.951267 -0.10418,-1.53149 0.42554,-0.385112 1.36084,-0.437882 7.76111,-0.437882 4.00249,0 7.33958,-0.06233 7.41576,-0.13851 0.2599,-0.259897 -0.0949,-1.363971 -0.67024,-2.085476 -0.45255,-0.567549 -1.24075,-0.91581 -3.71944,-1.643404 -3.88021,-1.138999 -4.91431,-1.65692 -6.52577,-3.268378 -1.36468,-1.364689 -3.15778,-4.599331 -3.15778,-5.696466 0,-0.938459 1.00583,-1.275895 3.30729,-1.109528 4.54929,0.328855 8.02584,3.042583 10.2029,7.964178 0.29562,0.668296 0.57298,1.215084 0.61636,1.215084 0.18989,0 -0.19222,-9.437103 -0.39814,-9.83306 -0.12596,-0.242194 -1.18508,-0.758753 -2.35361,-1.147908 -2.63255,-0.876719 -4.3741,-2.041429 -5.47003,-3.658235 -1.67136,-2.465713 -2.45173,-5.770085 -1.54114,-6.525801 0.53759,-0.446167 3.11852,-0.109739 4.47773,0.583681 1.56003,0.795867 3.71177,2.963025 4.41719,4.448832 0.34359,0.723704 0.70143,1.315826 0.7952,1.315826 0.0938,0 0.18798,-1.279922 0.20935,-2.844271 0.0214,-1.564349 0.11036,-3.260989 0.19776,-3.770312 0.24267,-1.414276 1.42722,-3.667864 2.32747,-4.427973 1.78581,-1.507832 4.37343,-2.143339 4.86337,-1.194423 0.72364,1.401548 0.52702,4.431983 -0.40538,6.247966 -0.53873,1.049257 -2.34409,2.963243 -3.42544,3.631556 -1.50995,0.9332 -1.68346,1.570951 -1.6636,6.11463 0.016,3.664153 0.0495,3.947671 0.35329,2.989701 1.27419,-4.018423 4.18335,-6.581784 8.29077,-7.305292 0.97723,-0.172136 1.90153,-0.18533 2.46932,-0.03525 0.87487,0.23125 0.90518,0.281853 0.84386,1.408954 -0.0939,1.725189 -1.48953,4.270964 -3.19701,5.831507 -1.7353,1.585972 -3.34957,2.440453 -5.74916,3.043212 -2.77408,0.696825 -2.76418,0.676576 -2.76418,5.655828 v 4.233333 h 6.76427 c 4.1568,0 6.96154,0.105579 7.27604,0.273893 0.29039,0.155415 0.51177,0.551964 0.51177,0.916732 0,0.364768 -0.22138,0.761318 -0.51177,0.916733 -0.33571,0.179667 -5.73133,0.273892 -15.68384,0.273892 -13.30368,0 -15.24448,-0.05072 -15.7601,-0.411878 z"
       id="path6013" />
    <path
       style="fill:#4577a0"
       d="m 116.77532,78.531287 c -0.71466,-0.500569 -0.74532,-0.951267 -0.10418,-1.53149 0.42564,-0.385199 1.36282,-0.437882 7.78959,-0.437882 4.36083,0 7.36875,-0.101958 7.46206,-0.252937 0.25774,-0.417037 -0.56326,-2.056492 -1.25772,-2.511516 -0.35621,-0.2334 -1.52702,-0.66509 -2.60179,-0.959312 -5.48585,-1.501773 -7.54922,-2.97388 -9.42924,-6.727276 -0.90605,-1.80891 -0.98359,-2.661031 -0.28658,-3.149236 0.70614,-0.494602 2.27426,-0.541811 4.24294,-0.127737 3.60669,0.758595 6.03779,2.795506 8.14817,6.826965 l 1.32723,2.535424 -0.1632,-4.894791 c -0.0976,-2.926682 -0.28446,-5.085011 -0.46478,-5.367878 -0.16587,-0.260197 -1.26694,-0.806208 -2.44683,-1.213357 -2.43766,-0.841172 -4.2792,-2.051526 -5.24097,-3.444631 -1.03374,-1.497355 -1.77113,-3.380563 -1.93128,-4.932263 -0.13667,-1.324199 -0.10106,-1.445603 0.50497,-1.721726 0.89085,-0.405901 3.39299,0.07294 4.85343,0.928813 1.41931,0.831776 3.31267,2.928238 4.12224,4.564449 l 0.62576,1.264719 0.15367,-3.836459 c 0.17262,-4.309624 0.58279,-5.608764 2.31898,-7.344953 1.72453,-1.724527 4.48261,-2.489114 5.06351,-1.40369 0.40499,0.756729 0.33238,3.693165 -0.12981,5.249521 -0.3973,1.337861 -1.40549,2.522607 -4.47817,5.26239 l -0.93896,0.837226 0.01,4.322149 0.01,4.322149 0.47756,-1.322917 c 0.26266,-0.727604 0.66366,-1.680104 0.89111,-2.116667 0.7033,-1.349866 2.90722,-3.360827 4.43308,-4.044956 1.49998,-0.672526 4.4176,-1.06017 5.65047,-0.750739 0.59975,0.150527 0.65156,0.265749 0.52093,1.158507 -0.18839,1.287535 -1.17972,3.50369 -2.12011,4.739581 -1.33947,1.760376 -3.59461,3.181229 -6.44547,4.06097 -1.43642,0.443263 -2.70575,0.951122 -2.82073,1.128577 -0.11498,0.177454 -0.26858,2.257631 -0.34134,4.622615 l -0.13229,4.299972 6.83041,-4.93e-4 c 4.20338,-3.03e-4 7.02725,0.104848 7.34219,0.2734 0.29039,0.155415 0.51177,0.551964 0.51177,0.916732 0,0.364768 -0.22138,0.761318 -0.51177,0.916733 -0.33571,0.179667 -5.73133,0.273892 -15.68384,0.273892 -13.30368,0 -15.24448,-0.05072 -15.7601,-0.411878 z"
       id="path5990" />
    <path
       style="fill:#3975a3"
       d="m 116.77532,78.531287 c -0.71466,-0.500569 -0.74532,-0.951267 -0.10418,-1.53149 0.42564,-0.385199 1.36282,-0.437882 7.78959,-0.437882 4.36083,0 7.36875,-0.101958 7.46206,-0.252937 0.25774,-0.417037 -0.56326,-2.056492 -1.25772,-2.511516 -0.35621,-0.2334 -1.52702,-0.66509 -2.60179,-0.959312 -5.48585,-1.501773 -7.54922,-2.97388 -9.42924,-6.727276 -0.90605,-1.80891 -0.98359,-2.661031 -0.28658,-3.149236 0.70614,-0.494602 2.27426,-0.541811 4.24294,-0.127737 3.60669,0.758595 6.03779,2.795506 8.14817,6.826965 l 1.32723,2.535424 -0.1632,-4.894791 c -0.0976,-2.926682 -0.28446,-5.085011 -0.46478,-5.367878 -0.16587,-0.260197 -1.26694,-0.806208 -2.44683,-1.213357 -2.43766,-0.841172 -4.2792,-2.051526 -5.24097,-3.444631 -1.03374,-1.497355 -1.77113,-3.380563 -1.93128,-4.932263 -0.13667,-1.324199 -0.10106,-1.445603 0.50497,-1.721726 0.89085,-0.405901 3.39299,0.07294 4.85343,0.928813 1.41931,0.831776 3.31267,2.928238 4.12224,4.564449 l 0.62576,1.264719 0.15367,-3.836459 c 0.17262,-4.309624 0.58279,-5.608764 2.31898,-7.344953 1.72453,-1.724527 4.48261,-2.489114 5.06351,-1.40369 0.40499,0.756729 0.33238,3.693165 -0.12981,5.249521 -0.3973,1.337861 -1.40549,2.522607 -4.47817,5.26239 l -0.93896,0.837226 0.01,4.322149 0.01,4.322149 0.47756,-1.322917 c 0.26266,-0.727604 0.66366,-1.680104 0.89111,-2.116667 0.7033,-1.349866 2.90722,-3.360827 4.43308,-4.044956 1.49998,-0.672526 4.4176,-1.06017 5.65047,-0.750739 0.59975,0.150527 0.65156,0.265749 0.52093,1.158507 -0.18839,1.287535 -1.17972,3.50369 -2.12011,4.739581 -1.33947,1.760376 -3.59461,3.181229 -6.44547,4.06097 -1.43642,0.443263 -2.70575,0.951122 -2.82073,1.128577 -0.11498,0.177454 -0.26858,2.257631 -0.34134,4.622615 l -0.13229,4.299972 6.83041,-4.93e-4 c 4.20338,-3.03e-4 7.02725,0.104848 7.34219,0.2734 0.29039,0.155415 0.51177,0.551964 0.51177,0.916732 0,0.364768 -0.22138,0.761318 -0.51177,0.916733 -0.33571,0.179667 -5.73133,0.273892 -15.68384,0.273892 -13.30368,0 -15.24448,-0.05072 -15.7601,-0.411878 z"
       id="path5967" />
    <path
       style="fill:#8c714a"
       d="m 116.77532,78.531287 c -0.71466,-0.500569 -0.74532,-0.951267 -0.10418,-1.53149 0.42564,-0.385199 1.36282,-0.437882 7.78959,-0.437882 4.36083,0 7.36875,-0.101958 7.46206,-0.252937 0.25774,-0.417037 -0.56326,-2.056492 -1.25772,-2.511516 -0.35621,-0.2334 -1.52702,-0.66509 -2.60179,-0.959312 -5.48585,-1.501773 -7.54922,-2.97388 -9.42924,-6.727276 -0.90605,-1.80891 -0.98359,-2.661031 -0.28658,-3.149236 0.70614,-0.494602 2.27426,-0.541811 4.24294,-0.127737 3.60669,0.758595 6.03779,2.795506 8.14817,6.826965 l 1.32723,2.535424 -0.1632,-4.894791 c -0.0976,-2.926682 -0.28446,-5.085011 -0.46478,-5.367878 -0.16587,-0.260197 -1.26694,-0.806208 -2.44683,-1.213357 -2.43766,-0.841172 -4.2792,-2.051526 -5.24097,-3.444631 -1.03374,-1.497355 -1.77113,-3.380563 -1.93128,-4.932263 -0.13667,-1.324199 -0.10106,-1.445603 0.50497,-1.721726 0.89085,-0.405901 3.39299,0.07294 4.85343,0.928813 1.41931,0.831776 3.31267,2.928238 4.12224,4.564449 l 0.62576,1.264719 0.15367,-3.836459 c 0.17262,-4.309624 0.58279,-5.608764 2.31898,-7.344953 1.72453,-1.724527 4.48261,-2.489114 5.06351,-1.40369 0.40499,0.756729 0.33238,3.693165 -0.12981,5.249521 -0.3973,1.337861 -1.40549,2.522607 -4.47817,5.26239 l -0.93896,0.837226 0.01,4.322149 0.01,4.322149 0.47756,-1.322917 c 0.26266,-0.727604 0.66366,-1.680104 0.89111,-2.116667 0.7033,-1.349866 2.90722,-3.360827 4.43308,-4.044956 1.49998,-0.672526 4.4176,-1.06017 5.65047,-0.750739 0.59975,0.150527 0.65156,0.265749 0.52093,1.158507 -0.18839,1.287535 -1.17972,3.50369 -2.12011,4.739581 -1.33947,1.760376 -3.59461,3.181229 -6.44547,4.06097 -1.43642,0.443263 -2.70575,0.951122 -2.82073,1.128577 -0.11498,0.177454 -0.26858,2.257631 -0.34134,4.622615 l -0.13229,4.299972 6.83041,-4.93e-4 c 4.20338,-3.03e-4 7.02725,0.104848 7.34219,0.2734 0.29039,0.155415 0.51177,0.551964 0.51177,0.916732 0,0.364768 -0.22138,0.761318 -0.51177,0.916733 -0.33571,0.179667 -5.73133,0.273892 -15.68384,0.273892 -13.30368,0 -15.24448,-0.05072 -15.7601,-0.411878 z"
       id="path5933" />
    <path
       style="fill:#356896"
       d="m 118.72818,78.70395 c -1.62213,-0.122408 -2.15459,-0.264902 -2.38125,-0.637259 -0.23738,-0.389963 -0.1752,-0.575396 0.33268,-0.992187 0.58409,-0.479325 1.0939,-0.512591 7.85574,-0.512591 4.31337,0 7.29419,-0.102059 7.38744,-0.252937 0.25774,-0.417037 -0.56326,-2.056492 -1.25772,-2.511516 -0.35621,-0.2334 -1.52702,-0.66509 -2.60179,-0.959312 -5.48585,-1.501773 -7.54922,-2.97388 -9.42924,-6.727276 -0.90605,-1.80891 -0.98359,-2.661031 -0.28658,-3.149236 0.70614,-0.494602 2.27426,-0.541811 4.24294,-0.127737 3.60669,0.758595 6.03779,2.795506 8.14817,6.826965 l 1.32723,2.535424 -0.1632,-4.894791 c -0.0976,-2.926682 -0.28446,-5.085011 -0.46478,-5.367878 -0.16587,-0.260197 -1.26694,-0.806208 -2.44683,-1.213357 -2.43766,-0.841172 -4.2792,-2.051526 -5.24097,-3.444631 -1.03374,-1.497355 -1.77113,-3.380563 -1.93128,-4.932263 -0.13667,-1.324199 -0.10106,-1.445603 0.50497,-1.721726 0.89085,-0.405901 3.39299,0.07294 4.85343,0.928813 1.41931,0.831776 3.31267,2.928238 4.12224,4.564449 l 0.62576,1.264719 0.15367,-3.836459 c 0.17262,-4.309624 0.58279,-5.608764 2.31898,-7.344953 1.72453,-1.724527 4.48261,-2.489114 5.06351,-1.40369 0.40499,0.756729 0.33238,3.693165 -0.12981,5.249521 -0.3973,1.337861 -1.40549,2.522607 -4.47817,5.26239 l -0.93896,0.837226 0.01,4.322149 0.01,4.322149 0.47756,-1.322917 c 0.26266,-0.727604 0.66366,-1.680104 0.89111,-2.116667 0.7033,-1.349866 2.90722,-3.360827 4.43308,-4.044956 1.49998,-0.672526 4.4176,-1.06017 5.65047,-0.750739 0.59975,0.150527 0.65156,0.265749 0.52093,1.158507 -0.18839,1.287535 -1.17972,3.50369 -2.12011,4.739581 -1.33947,1.760376 -3.59461,3.181229 -6.44547,4.06097 -1.43642,0.443263 -2.70575,0.951122 -2.82073,1.128577 -0.11498,0.177454 -0.26858,2.257631 -0.34134,4.622615 l -0.13229,4.299972 6.92641,-4.93e-4 c 5.9444,-4.23e-4 6.98536,0.05845 7.34219,0.415281 0.53441,0.534417 0.52734,1.014322 -0.0217,1.470058 -0.35728,0.296579 -2.91503,0.367776 -13.95677,0.388497 -7.43563,0.01395 -14.45951,-0.04558 -15.60863,-0.132292 z"
       id="path5874" />
    <path
       style="fill:#2f5b8d"
       d="m 118.72818,78.70395 c -1.62213,-0.122408 -2.15459,-0.264902 -2.38125,-0.637259 -0.23738,-0.389963 -0.1752,-0.575396 0.33268,-0.992187 0.58409,-0.479325 1.0939,-0.512591 7.85574,-0.512591 4.31337,0 7.29419,-0.102059 7.38744,-0.252937 0.25774,-0.417037 -0.56326,-2.056492 -1.25772,-2.511516 -0.35621,-0.2334 -1.52702,-0.66509 -2.60179,-0.959312 -5.48585,-1.501773 -7.54922,-2.97388 -9.42924,-6.727276 -0.90605,-1.80891 -0.98359,-2.661031 -0.28658,-3.149236 0.70614,-0.494602 2.27426,-0.541811 4.24294,-0.127737 3.60669,0.758595 6.03779,2.795506 8.14817,6.826965 l 1.32723,2.535424 -0.1632,-4.894791 c -0.0976,-2.926682 -0.28446,-5.085011 -0.46478,-5.367878 -0.16587,-0.260197 -1.26694,-0.806208 -2.44683,-1.213357 -2.43766,-0.841172 -4.2792,-2.051526 -5.24097,-3.444631 -1.03374,-1.497355 -1.77113,-3.380563 -1.93128,-4.932263 -0.13667,-1.324199 -0.10106,-1.445603 0.50497,-1.721726 0.89085,-0.405901 3.39299,0.07294 4.85343,0.928813 1.41931,0.831776 3.31267,2.928238 4.12224,4.564449 l 0.62576,1.264719 0.15367,-3.836459 c 0.17262,-4.309624 0.58279,-5.608764 2.31898,-7.344953 1.72453,-1.724527 4.48261,-2.489114 5.06351,-1.40369 0.40499,0.756729 0.33238,3.693165 -0.12981,5.249521 -0.3973,1.337861 -1.40549,2.522607 -4.47817,5.26239 l -0.93896,0.837226 0.01,4.322149 0.01,4.322149 0.47756,-1.322917 c 0.26266,-0.727604 0.66366,-1.680104 0.89111,-2.116667 0.7033,-1.349866 2.90722,-3.360827 4.43308,-4.044956 1.49998,-0.672526 4.4176,-1.06017 5.65047,-0.750739 0.59975,0.150527 0.65156,0.265749 0.52093,1.158507 -0.18839,1.287535 -1.17972,3.50369 -2.12011,4.739581 -1.33947,1.760376 -3.59461,3.181229 -6.44547,4.06097 -1.43642,0.443263 -2.70575,0.951122 -2.82073,1.128577 -0.11498,0.177454 -0.26858,2.257631 -0.34134,4.622615 l -0.13229,4.299972 6.92641,-4.93e-4 c 5.9444,-4.23e-4 6.98536,0.05845 7.34219,0.415281 0.53441,0.534417 0.52734,1.014322 -0.0217,1.470058 -0.35728,0.296579 -2.91503,0.367776 -13.95677,0.388497 -7.43563,0.01395 -14.45951,-0.04558 -15.60863,-0.132292 z"
       id="path5815" />
    <path
       style="fill:#506f51"
       d="m 118.72818,78.70395 c -1.62213,-0.122408 -2.15459,-0.264902 -2.38125,-0.637259 -0.23738,-0.389963 -0.1752,-0.575396 0.33268,-0.992187 0.58409,-0.479325 1.0939,-0.512591 7.85574,-0.512591 4.31337,0 7.29419,-0.102059 7.38744,-0.252937 0.25774,-0.417037 -0.56326,-2.056492 -1.25772,-2.511516 -0.35621,-0.2334 -1.52702,-0.66509 -2.60179,-0.959312 -5.48585,-1.501773 -7.54922,-2.97388 -9.42924,-6.727276 -0.90605,-1.80891 -0.98359,-2.661031 -0.28658,-3.149236 0.70614,-0.494602 2.27426,-0.541811 4.24294,-0.127737 3.60669,0.758595 6.03779,2.795506 8.14817,6.826965 l 1.32723,2.535424 -0.1632,-4.894791 c -0.0976,-2.926682 -0.28446,-5.085011 -0.46478,-5.367878 -0.16587,-0.260197 -1.26694,-0.806208 -2.44683,-1.213357 -2.43766,-0.841172 -4.2792,-2.051526 -5.24097,-3.444631 -1.03374,-1.497355 -1.77113,-3.380563 -1.93128,-4.932263 -0.13667,-1.324199 -0.10106,-1.445603 0.50497,-1.721726 0.89085,-0.405901 3.39299,0.07294 4.85343,0.928813 1.41931,0.831776 3.31267,2.928238 4.12224,4.564449 l 0.62576,1.264719 0.15367,-3.836459 c 0.17262,-4.309624 0.58279,-5.608764 2.31898,-7.344953 1.72453,-1.724527 4.48261,-2.489114 5.06351,-1.40369 0.40499,0.756729 0.33238,3.693165 -0.12981,5.249521 -0.3973,1.337861 -1.40549,2.522607 -4.47817,5.26239 l -0.93896,0.837226 0.01,4.322149 0.01,4.322149 0.47756,-1.322917 c 0.26266,-0.727604 0.66366,-1.680104 0.89111,-2.116667 0.7033,-1.349866 2.90722,-3.360827 4.43308,-4.044956 1.49998,-0.672526 4.4176,-1.06017 5.65047,-0.750739 0.59975,0.150527 0.65156,0.265749 0.52093,1.158507 -0.18839,1.287535 -1.17972,3.50369 -2.12011,4.739581 -1.33947,1.760376 -3.59461,3.181229 -6.44547,4.06097 -1.43642,0.443263 -2.70575,0.951122 -2.82073,1.128577 -0.11498,0.177454 -0.26858,2.257631 -0.34134,4.622615 l -0.13229,4.299972 6.92641,-4.93e-4 c 5.9444,-4.23e-4 6.98536,0.05845 7.34219,0.415281 0.53441,0.534417 0.52734,1.014322 -0.0217,1.470058 -0.35728,0.296579 -2.91503,0.367776 -13.95677,0.388497 -7.43563,0.01395 -14.45951,-0.04558 -15.60863,-0.132292 z"
       id="path5748" />
    <path
       style="fill:#346549"
       d="m 118.72818,78.703952 c -1.62213,-0.122408 -2.15459,-0.264902 -2.38125,-0.637259 -0.23738,-0.389963 -0.1752,-0.575396 0.33268,-0.992187 0.58477,-0.479881 1.0955,-0.512591 8.00365,-0.512591 7.09876,0 7.37902,-0.01928 7.37902,-0.507725 0,-0.645734 -0.76797,-1.994721 -1.33839,-2.35095 -0.24048,-0.150182 -1.71051,-0.640973 -3.26674,-1.090648 -1.55622,-0.449674 -3.38937,-1.101298 -4.07366,-1.448053 -2.39413,-1.213196 -5.16469,-4.831726 -5.38566,-7.03403 -0.12753,-1.270961 0.66413,-1.665731 2.96074,-1.476398 4.53959,0.374246 7.34394,2.424366 9.90492,7.240998 l 1.22352,2.301181 -0.1689,-5.027083 c -0.18522,-5.512955 -0.26223,-5.771929 -1.80218,-6.060826 -1.47766,-0.277212 -4.54225,-1.905991 -5.58889,-2.970406 -1.09637,-1.114997 -2.04665,-2.960834 -2.53299,-4.920114 -0.59997,-2.417088 0.0817,-3.074049 2.67878,-2.58153 2.60945,0.494871 5.24919,2.718308 6.55304,5.519586 l 0.69272,1.488291 0.1492,-3.836458 c 0.1308,-3.363088 0.23215,-4.016211 0.82142,-5.293277 1.10923,-2.403935 2.79026,-3.735434 5.20315,-4.121271 1.03633,-0.165717 1.11932,-0.131011 1.39707,0.584287 0.16605,0.427638 0.24712,1.633401 0.18524,2.754981 -0.13525,2.450949 -1.07478,4.366146 -2.83787,5.784879 -0.65059,0.523522 -1.57429,1.326906 -2.05266,1.785297 l -0.86978,0.833437 0.0193,4.325937 0.0193,4.325938 0.47585,-1.336483 c 0.77964,-2.189725 1.2267,-2.869496 2.91523,-4.43278 1.84886,-1.711724 4.04441,-2.565112 6.59937,-2.565112 1.88589,0 2.12978,0.227347 1.85008,1.724549 -0.74181,3.970689 -3.98826,7.011163 -9.13235,8.55294 -1.03585,0.310463 -2.00611,0.714645 -2.15613,0.898182 -0.15304,0.187235 -0.31351,2.220836 -0.36559,4.633216 l -0.0928,4.299513 6.92641,-3.4e-5 c 5.94399,-2.9e-5 6.98538,0.05894 7.34219,0.41574 0.53441,0.534417 0.52734,1.014322 -0.0217,1.470058 -0.35728,0.296579 -2.91503,0.367776 -13.95677,0.388497 -7.43563,0.01395 -14.45951,-0.04558 -15.60863,-0.132292 z"
       id="path5729" />
    <path
       style="fill:#664a24"
       d="m 118.72818,78.70395 c -1.62213,-0.122408 -2.15459,-0.264902 -2.38125,-0.637259 -0.23738,-0.389963 -0.1752,-0.575396 0.33268,-0.992187 0.58477,-0.479881 1.0955,-0.512591 8.00365,-0.512591 7.17254,0 7.37902,-0.01463 7.37902,-0.522772 0,-0.287524 -0.23195,-0.90419 -0.51545,-1.370368 -0.2835,-0.466179 -0.4437,-0.963702 -0.356,-1.105609 0.0877,-0.141906 0.0461,-0.187969 -0.0924,-0.102362 -0.38884,0.240314 -6.77073,-1.755947 -8.06864,-2.523878 -2.33599,-1.382126 -4.8307,-4.768255 -5.03516,-6.834353 -0.075,-0.758007 0.0244,-0.939371 0.69304,-1.264121 0.63344,-0.307659 1.17199,-0.327475 2.85634,-0.105097 4.18123,0.552031 7.06541,2.754039 9.19864,7.022943 0.59789,1.196475 1.16916,2.259188 1.26949,2.361585 0.10033,0.102396 0.0762,-2.159055 -0.0537,-5.025447 -0.25668,-5.66632 -0.25905,-5.67388 -1.88057,-6.021474 -0.43657,-0.09358 -1.6446,-0.573997 -2.68453,-1.067588 -3.09099,-1.467104 -5.12737,-4.269142 -5.53908,-7.621699 -0.19537,-1.59092 0.119,-1.893277 1.88935,-1.817158 2.97372,0.127861 6.26512,2.677626 7.58034,5.872307 l 0.606,1.471967 0.14892,-3.96875 c 0.17857,-4.758965 0.62341,-6.083869 2.65636,-7.911666 1.31376,-1.18119 3.24702,-1.917758 4.22162,-1.608433 0.64447,0.204548 0.89406,1.559371 0.68994,3.745181 -0.22647,2.425235 -1.17594,4.021628 -3.5416,5.954682 -1.05838,0.864834 -1.97751,1.833027 -2.0425,2.151539 -0.22393,1.09737 -0.33995,7.459294 -0.14566,7.987447 0.15885,0.431838 0.25348,0.310177 0.51447,-0.661458 0.79705,-2.967264 3.41554,-5.72614 6.27221,-6.608473 1.86148,-0.574955 4.56946,-0.712265 5.02683,-0.254889 0.40791,0.407901 -0.032,2.428724 -0.85967,3.949498 -0.8374,1.538586 -2.15574,3.178447 -2.55526,3.178447 -0.1603,0 -0.003,-0.327422 0.34999,-0.727604 l 0.64143,-0.727604 -0.71945,0.633772 c -0.39569,0.348575 -0.65737,0.73421 -0.5815,0.856968 0.14846,0.240223 -1.81538,1.574046 -3.00194,2.038886 -0.39831,0.156037 -1.4045,0.4747 -2.23599,0.708139 -2.6047,0.731266 -2.57382,0.666056 -2.66062,5.617963 l -0.0754,4.299479 h 6.93364 c 5.95053,0 6.99259,0.05895 7.34942,0.415774 0.53441,0.534417 0.52734,1.014322 -0.0217,1.470058 -0.35728,0.296579 -2.91503,0.367776 -13.95677,0.388497 -7.43563,0.01395 -14.45951,-0.04558 -15.60863,-0.132292 z m 19.81639,-33.362868 c -0.0899,-0.145521 -0.0473,-0.264584 0.0946,-0.264584 0.14198,0 0.3182,0.148828 0.3916,0.330729 0.0797,0.197576 0.14186,0.144314 0.15434,-0.132291 0.0115,-0.254662 -0.12794,-0.476732 -0.30984,-0.493489 -0.64659,-0.05957 -1.3925,0.07952 -1.62561,0.303123 -0.133,0.127578 0.0118,0.161967 0.33073,0.07856 0.32986,-0.08626 0.56728,-0.0247 0.56728,0.147095 0,0.162493 0.12609,0.295442 0.2802,0.295442 0.1541,0 0.20661,-0.119063 0.11667,-0.264583 z"
       id="path5707" />
    <path
       style="fill:#66441a"
       d="m 116.62825,78.502193 c -0.36553,-0.365536 -0.15673,-1.403015 0.33539,-1.666385 0.32471,-0.173781 3.15345,-0.253342 7.73906,-0.217669 l 7.22729,0.05622 -7.54063,0.156649 c -4.14734,0.08616 -7.55413,0.179918 -7.57064,0.208359 -0.0165,0.02844 -0.0165,0.319601 0,0.647023 l 0.03,0.595313 15.6325,0.06823 c 15.45746,0.06746 15.63206,0.06234 15.59376,-0.457631 -0.0213,-0.289221 -0.13028,-0.617579 -0.24215,-0.729684 -0.11187,-0.112105 -3.67518,-0.263359 -7.91848,-0.336119 l -7.71508,-0.132292 -0.13472,-0.661458 c -0.0741,-0.363802 -0.33829,-1.033317 -0.58712,-1.48781 -0.24882,-0.454492 -0.36785,-0.920066 -0.26451,-1.034606 0.10333,-0.114541 0.0632,-0.137522 -0.0892,-0.05107 -0.41937,0.237885 -6.7777,-1.74359 -8.0939,-2.522339 -2.33599,-1.382126 -4.8307,-4.768255 -5.03516,-6.834353 -0.075,-0.758007 0.0244,-0.939371 0.69304,-1.264121 0.63344,-0.307659 1.17199,-0.327475 2.85634,-0.105097 4.18123,0.552031 7.06541,2.754039 9.19864,7.022943 0.59789,1.196475 1.16916,2.259188 1.26949,2.361585 0.10033,0.102396 0.0762,-2.159055 -0.0537,-5.025447 -0.25668,-5.66632 -0.25905,-5.67388 -1.88057,-6.021474 -0.43657,-0.09358 -1.6446,-0.573997 -2.68453,-1.067588 -3.09099,-1.467104 -5.12737,-4.269142 -5.53908,-7.621699 -0.19537,-1.59092 0.119,-1.893277 1.88935,-1.817158 2.97372,0.127861 6.26512,2.677626 7.58034,5.872307 l 0.606,1.471967 0.14892,-3.96875 c 0.17857,-4.758965 0.62341,-6.083869 2.65636,-7.911666 1.31376,-1.18119 3.24702,-1.917758 4.22162,-1.608433 0.64447,0.204548 0.89406,1.559371 0.68994,3.745181 -0.22647,2.425235 -1.17594,4.021628 -3.5416,5.954682 -1.05838,0.864834 -1.97751,1.833027 -2.0425,2.151539 -0.22393,1.09737 -0.33995,7.459294 -0.14566,7.987447 0.15885,0.431838 0.25348,0.310177 0.51447,-0.661458 0.79705,-2.967264 3.41554,-5.72614 6.27221,-6.608473 1.86148,-0.574955 4.56946,-0.712265 5.02683,-0.254889 0.40791,0.407901 -0.032,2.428724 -0.85967,3.949498 -0.8374,1.538586 -2.15574,3.178447 -2.55526,3.178447 -0.1603,0 -0.003,-0.327422 0.34999,-0.727604 l 0.64143,-0.727604 -0.71945,0.633772 c -0.39569,0.348575 -0.65737,0.73421 -0.5815,0.856968 0.14846,0.240223 -1.81538,1.574046 -3.00194,2.038886 -0.39831,0.156037 -1.4045,0.4747 -2.23599,0.708139 -2.6047,0.731266 -2.57382,0.666056 -2.66062,5.617963 l -0.0754,4.299479 h 6.70535 c 3.83653,0 6.91099,0.110055 7.186,0.257233 0.64324,0.344252 0.88594,1.049218 0.51506,1.496094 -0.24945,0.300578 -3.00766,0.36334 -15.96775,0.36334 -8.61642,0 -15.74559,-0.07937 -15.84261,-0.176389 z m 21.91632,-33.161109 c -0.0899,-0.145521 -0.0473,-0.264584 0.0946,-0.264584 0.14198,0 0.3182,0.148828 0.3916,0.330729 0.0797,0.197576 0.14186,0.144314 0.15434,-0.132291 0.0115,-0.254662 -0.12794,-0.476732 -0.30984,-0.493489 -0.64659,-0.05957 -1.3925,0.07952 -1.62561,0.303123 -0.133,0.127578 0.0118,0.161967 0.33073,0.07856 0.32986,-0.08626 0.56728,-0.0247 0.56728,0.147095 0,0.162493 0.12609,0.295442 0.2802,0.295442 0.1541,0 0.20661,-0.119063 0.11667,-0.264583 z"
       id="path5681" />
    <path
       style="fill:#255642"
       d="m 132.23867,76.650112 c -0.097,-0.09701 -0.17639,-0.391793 -0.17639,-0.655064 0,-0.263271 -0.23195,-0.860093 -0.51545,-1.326271 -0.2835,-0.466179 -0.4437,-0.963702 -0.356,-1.105609 0.0877,-0.141906 0.0461,-0.187969 -0.0924,-0.102362 -0.38884,0.240314 -6.77073,-1.755947 -8.06864,-2.523878 -2.33599,-1.382126 -4.8307,-4.768255 -5.03516,-6.834353 -0.075,-0.758007 0.0244,-0.939371 0.69304,-1.264121 0.63344,-0.307659 1.17199,-0.327475 2.85634,-0.105097 4.18123,0.552031 7.06541,2.754039 9.19864,7.022943 0.59789,1.196475 1.16916,2.259188 1.26949,2.361585 0.10033,0.102396 0.0762,-2.159055 -0.0537,-5.025447 -0.25668,-5.66632 -0.25905,-5.67388 -1.88057,-6.021474 -0.43657,-0.09358 -1.6446,-0.573997 -2.68453,-1.067588 -3.09099,-1.467104 -5.12737,-4.269142 -5.53908,-7.621699 -0.19537,-1.59092 0.119,-1.893277 1.88935,-1.817158 2.97372,0.127861 6.26512,2.677626 7.58034,5.872307 l 0.606,1.471967 0.14892,-3.96875 c 0.17857,-4.758965 0.62341,-6.083869 2.65636,-7.911666 1.31376,-1.18119 3.24702,-1.917758 4.22162,-1.608433 0.64447,0.204548 0.89406,1.559371 0.68994,3.745181 -0.22647,2.425235 -1.17594,4.021628 -3.5416,5.954682 -1.05838,0.864834 -1.97751,1.833027 -2.0425,2.151539 -0.22393,1.09737 -0.33995,7.459294 -0.14566,7.987447 0.15885,0.431838 0.25348,0.310177 0.51447,-0.661458 0.79705,-2.967264 3.41554,-5.72614 6.27221,-6.608473 1.86148,-0.574955 4.56946,-0.712265 5.02683,-0.254889 0.40791,0.407901 -0.032,2.428724 -0.85967,3.949498 -0.8374,1.538586 -2.15574,3.178447 -2.55526,3.178447 -0.1603,0 -0.003,-0.327422 0.34999,-0.727604 l 0.64143,-0.727604 -0.71945,0.633772 c -0.39569,0.348575 -0.65737,0.73421 -0.5815,0.856968 0.14846,0.240223 -1.81538,1.574046 -3.00194,2.038886 -0.39831,0.156037 -1.4045,0.4747 -2.23599,0.708139 -2.60442,0.731189 -2.57383,0.666634 -2.66054,5.613616 l -0.0753,4.295132 6.75402,0.07516 6.75402,0.07516 -7.56267,0.06148 c -4.15947,0.03381 -7.64205,-0.0179 -7.73906,-0.11491 z m 6.3059,-31.309026 c -0.0899,-0.145521 -0.0473,-0.264584 0.0946,-0.264584 0.14198,0 0.3182,0.148828 0.3916,0.330729 0.0797,0.197576 0.14186,0.144314 0.15434,-0.132291 0.0115,-0.254662 -0.12794,-0.476732 -0.30984,-0.493489 -0.64659,-0.05957 -1.3925,0.07952 -1.62561,0.303123 -0.133,0.127578 0.0118,0.161967 0.33073,0.07856 0.32986,-0.08626 0.56728,-0.0247 0.56728,0.147095 0,0.162493 0.12609,0.295442 0.2802,0.295442 0.1541,0 0.20661,-0.119063 0.11667,-0.264583 z"
       id="path5638" />
    <path
       style="fill:#255642"
       d="m 121.03175,76.628602 c 2.00961,-0.045 5.22429,-0.04489 7.14375,2.58e-4 1.91945,0.04515 0.27522,0.08197 -3.65384,0.08183 -3.92907,-1.42e-4 -5.49953,-0.03708 -3.48991,-0.08208 z"
       id="path5637" />
    <path
       style="fill:#255642"
       d="m 146.87376,78.48192 c 0.65198,-0.05734 1.36636,-0.2449 1.5875,-0.416796 0.35123,-0.273027 0.35616,-0.254004 0.0389,0.150483 -0.26423,0.336917 -0.69659,0.450431 -1.5875,0.416796 l -1.22438,-0.04622 z"
       id="path5632" />
    <path
       style="fill:#255642"
       d="m 137.82953,78.481578 c 1.20746,-0.04914 3.11246,-0.04886 4.23333,6.09e-4 1.12088,0.04947 0.13296,0.08967 -2.19537,0.08934 -2.32833,-3.35e-4 -3.24542,-0.04081 -2.03796,-0.08995 z"
       id="path5631" />
    <path
       style="fill:#255642"
       d="m 126.83676,78.481961 c 1.12779,-0.0496 2.97326,-0.0496 4.10104,0 1.12779,0.0496 0.20505,0.09018 -2.05052,0.09018 -2.25557,0 -3.17831,-0.04058 -2.05052,-0.09018 z"
       id="path5630" />
    <path
       style="fill:#23533c"
       d="m 132.72258,75.501333 c -0.32172,-0.622128 -0.31177,-0.765419 0.0822,-1.183798 0.2465,-0.261798 0.29935,-0.392666 0.11745,-0.290818 -0.46386,0.259716 -0.40146,-0.39523 0.0988,-1.036678 0.38262,-0.490645 0.40381,-0.397845 0.29105,1.274809 -0.0669,0.992186 -0.0263,1.706561 0.0903,1.587499 0.11655,-0.119061 0.24968,-2.025104 0.29585,-4.235652 0.0642,-3.073265 0.0144,-3.888911 -0.21139,-3.465674 -0.22313,0.418201 -0.33121,0.462866 -0.44213,0.182719 -0.10685,-0.269863 -0.15249,-0.244757 -0.16769,0.09224 -0.0115,0.254662 0.10366,0.463021 0.25589,0.463021 0.15982,0 0.25131,0.491776 0.21652,1.16388 -0.0426,0.82278 -0.15992,1.12563 -0.40037,1.033364 -0.23763,-0.09119 -0.36691,-0.940185 -0.42903,-2.817526 l -0.0889,-2.68701 -0.0241,3.125025 c -0.0133,1.718763 -0.0791,3.180012 -0.14635,3.24722 -0.20724,0.207239 -0.50839,-9.008969 -0.31904,-9.763429 0.29471,-1.174196 0.51918,-0.805322 0.49352,0.811015 l -0.0241,1.521836 0.10372,-1.396382 c 0.0641,-0.862836 0.20715,-1.332459 0.37442,-1.229084 0.14888,0.09201 0.1142,-0.08329 -0.0771,-0.389555 -0.41362,-0.662311 -0.64402,-0.698591 -0.95116,-0.149772 -0.20479,0.365939 -0.30639,0.366104 -1.00533,0.0016 -0.42764,-0.222998 -0.94362,-0.406185 -1.14664,-0.407082 -0.20301,-8.96e-4 -1.23245,-0.416881 -2.28765,-0.924412 -3.12591,-1.503501 -5.15462,-4.290295 -5.56684,-7.647042 -0.19478,-1.586152 0.12082,-1.893191 1.86879,-1.818087 3.05778,0.131382 6.35184,2.684625 7.5576,5.857943 l 0.48462,1.275396 -0.68459,-0.130867 c -0.47592,-0.09098 -0.6267,-0.03721 -0.49469,0.176394 0.10444,0.168993 0.31913,0.227391 0.47708,0.129773 0.16021,-0.09902 0.21193,-0.05573 0.11699,0.0979 -0.0936,0.151461 0.0665,0.337273 0.35573,0.412916 0.28926,0.07564 0.58569,0.04083 0.65874,-0.07737 0.073,-0.118198 0.37083,-0.152665 0.66172,-0.07659 0.36775,0.09617 0.52891,0.008 0.52891,-0.289422 0,-0.235254 -0.12609,-0.427734 -0.2802,-0.427734 -0.15411,0 -0.20661,-0.119062 -0.11668,-0.264583 0.0899,-0.145521 0.0507,-0.264583 -0.0873,-0.264583 -0.13794,0 -0.24527,-0.148829 -0.23851,-0.33073 0.007,-0.181901 -0.0259,-0.687916 -0.0725,-1.124479 -0.0624,-0.583686 -0.13612,-0.408632 -0.27871,0.661459 -0.12905,0.968457 -0.17601,0.171956 -0.14038,-2.38125 0.047,-3.370624 0.12836,-4.006068 0.66984,-5.233308 1.103,-2.499904 4.35959,-4.712006 6.11614,-4.1545 0.64447,0.204548 0.89406,1.559371 0.68994,3.745181 -0.22647,2.425235 -1.17594,4.021628 -3.5416,5.954682 -1.05838,0.864834 -1.98209,1.833027 -2.05269,2.151539 -0.0706,0.318513 -0.16728,2.450364 -0.21486,4.737447 -0.0625,3.004549 -4.7e-4,4.19135 0.22359,4.27733 0.20422,0.07837 0.3101,-0.231282 0.3101,-0.906905 0,-2.70442 3.17649,-6.415602 6.32314,-7.387503 1.86931,-0.577371 4.57783,-0.715991 5.03607,-0.257742 0.41339,0.413381 -0.0349,2.430108 -0.89862,4.042932 -1.45901,2.724332 -4.43301,4.893234 -8.06377,5.880797 -2.59248,0.705153 -2.64273,0.793934 -2.61643,4.621939 0.0125,1.813846 -0.0454,3.665011 -0.12854,4.1137 -0.18755,1.011907 -0.80663,1.063311 -1.30064,0.107995 z m 4.63137,-9.364604 c 1.71494,-0.526153 2.64981,-0.995988 2.4915,-1.25214 -0.0758,-0.122574 0.041,-0.154261 0.25954,-0.07041 0.22835,0.08762 0.86748,-0.22306 1.50305,-0.730635 1.62957,-1.301392 3.73003,-4.176053 2.55893,-3.502113 -0.19215,0.110578 -0.23835,0.08941 -0.11025,-0.05053 0.12127,-0.132471 0.34877,-0.240857 0.50557,-0.240857 0.34739,0 0.94598,-1.582929 0.97361,-2.574646 0.0157,-0.565058 -0.12951,-0.760122 -0.66636,-0.894861 -0.83947,-0.210694 -3.59789,0.234462 -4.90378,0.791377 -1.55981,0.665196 -3.94398,3.030914 -4.63983,4.603903 -0.74691,1.688433 -0.76281,2.041758 -0.12281,2.728719 0.49179,0.527877 0.49412,0.526692 0.35851,-0.182679 -0.0945,-0.494298 -0.0433,-0.65639 0.16646,-0.526772 0.42831,0.264715 0.37593,0.0022 -0.0932,-0.4669 -0.44248,-0.442478 -0.26692,-1.229183 0.2743,-1.229183 0.1929,0 0.42631,-0.238125 0.51869,-0.529166 0.0924,-0.291042 0.27899,-0.547026 0.4147,-0.568854 0.64215,-0.103283 0.77592,-0.07363 0.77592,0.171979 0,0.145521 -0.0893,0.266406 -0.19844,0.268635 -0.37669,0.0077 -0.85988,0.425008 -0.85584,0.739167 0.002,0.193948 0.11197,0.162509 0.28473,-0.08176 0.21121,-0.298664 0.31388,-0.315033 0.41487,-0.06615 0.20059,0.49436 0.6291,0.399653 0.43855,-0.09692 -0.14162,-0.369047 -0.077,-0.385177 0.47132,-0.117696 0.56283,0.274543 0.583,0.267513 0.17653,-0.06153 -0.2524,-0.204317 -0.38016,-0.450241 -0.2839,-0.546496 0.0962,-0.09626 -0.0544,-0.348587 -0.33484,-0.560737 -0.54987,-0.415999 -0.9996,-0.525485 -0.83846,-0.204118 0.0547,0.10914 -0.19135,0.496093 -0.54685,0.859895 l -0.64635,0.661459 0.44401,-0.873509 c 0.2442,-0.480429 0.61569,-0.939389 0.82553,-1.019911 0.20983,-0.08052 0.32073,-0.244763 0.24643,-0.364981 -0.0743,-0.120217 -0.0203,-0.289515 0.11998,-0.376217 0.14205,-0.08779 0.20931,0.07995 0.1518,0.378592 -0.11129,0.577878 0.0564,0.659189 0.62127,0.301247 0.27927,-0.176968 0.29178,-0.350704 0.0568,-0.789698 -0.16567,-0.309548 -0.20773,-0.560992 -0.0935,-0.558763 0.41881,0.0082 0.73692,0.406168 0.73692,0.92199 0,0.305968 0.15124,0.497351 0.35857,0.453737 0.19722,-0.04149 0.52465,0.06239 0.72761,0.230835 0.28023,0.23257 0.36902,0.231046 0.36902,-0.0063 0,-0.457563 0.53319,-0.05202 0.76872,0.584694 0.13685,0.369928 0.26512,0.445961 0.39576,0.234582 0.11305,-0.182914 -0.14346,-0.649498 -0.61789,-1.123922 -0.92736,-0.927365 -0.96884,-1.035053 -0.39868,-1.035053 0.22687,0 0.33771,-0.121004 0.2463,-0.268899 -0.0914,-0.147894 -0.29542,-0.189029 -0.45337,-0.09141 -0.1714,0.105934 -0.21107,0.05434 -0.0984,-0.127976 0.10487,-0.169692 0.0348,-0.314748 -0.15756,-0.326352 -0.24447,-0.01474 -0.25392,-0.05852 -0.0322,-0.148828 0.43594,-0.177515 1.41812,0.845114 1.10878,1.154449 -0.14881,0.148811 -0.0214,0.494373 0.32666,0.886355 0.38056,0.428502 0.6101,0.532314 0.68929,0.311725 0.0653,-0.181901 0.22412,-0.330729 0.35294,-0.330729 0.12883,0 0.15821,0.198125 0.0653,0.440278 -0.12213,0.318245 -0.0726,0.380728 0.17868,0.225429 0.2125,-0.131334 0.15968,0.103321 -0.13588,0.603667 -0.26593,0.450183 -0.58072,0.758432 -0.69954,0.684997 -0.11882,-0.07343 -0.21604,0.01242 -0.21604,0.190778 0,0.178362 -0.0891,0.235185 -0.19802,0.126274 -0.10891,-0.108912 0.0226,-0.359335 0.29222,-0.556496 0.26963,-0.197161 0.44804,-0.475383 0.39646,-0.618272 -0.0516,-0.142888 -0.45097,0.04123 -0.88753,0.409145 -0.43657,0.367917 -0.62653,0.577947 -0.42215,0.466732 0.24659,-0.134176 0.3081,-0.09944 0.18283,0.103254 -0.10384,0.168005 -0.3443,0.305464 -0.53437,0.305464 -0.19007,0 -0.67426,0.258541 -1.07598,0.574537 -0.70259,0.552657 -0.71151,0.589279 -0.23412,0.961637 0.42061,0.328072 0.42685,0.363213 0.0409,0.230454 -0.25045,-0.08615 -0.62318,0.01117 -0.82829,0.216288 -0.32086,0.320854 -0.36541,0.254625 -0.31901,-0.474263 0.0301,-0.472117 0.18755,-0.819316 0.35575,-0.784223 0.16601,0.03463 0.23502,-0.111134 0.15336,-0.32393 -0.27926,-0.727758 -0.88935,0.275215 -0.91171,1.49883 -0.0115,0.628858 -0.0834,0.987271 -0.15973,0.796474 -0.10979,-0.274313 -0.2353,-0.259612 -0.59979,0.07025 -0.25353,0.229435 -0.73407,0.385541 -1.06788,0.346903 -0.3338,-0.03864 -0.65973,0.07858 -0.72428,0.260478 -0.1557,0.438779 0.80095,0.422079 2.30799,-0.04029 z m 3.0837,-2.131111 c -0.0862,-0.224558 -0.34604,-0.408286 -0.57747,-0.408286 -0.23144,0 -0.34721,0.119062 -0.25727,0.264583 0.0899,0.145521 -0.0519,0.260622 -0.31512,0.255781 -0.41237,-0.0076 -0.39111,-0.08169 0.1536,-0.535328 0.63222,-0.526518 0.63224,-0.526518 1.01917,0.02591 0.21282,0.30384 0.32998,0.609404 0.26035,0.67903 -0.0696,0.06963 -0.19709,-0.05714 -0.28326,-0.281693 z m 2.27411,-3.705737 c -0.60665,-0.272709 -0.78384,-0.78814 -0.36081,-1.049583 0.12898,-0.07971 0.29642,0.09186 0.3721,0.38126 0.0757,0.289405 0.29758,0.516791 0.49311,0.505302 0.26735,-0.01571 0.27349,-0.05398 0.0248,-0.15434 -0.1819,-0.0734 -0.33073,-0.369679 -0.33073,-0.6584 0,-0.396856 -0.12369,-0.48569 -0.5069,-0.364064 -0.2788,0.08849 -0.58468,0.03504 -0.67974,-0.118777 -0.0951,-0.153814 -0.30208,-0.199793 -0.46003,-0.102174 -0.15795,0.09762 -0.21209,0.056 -0.12032,-0.09249 0.0918,-0.148489 0.46736,-0.212537 0.83463,-0.142328 0.49123,0.0939 0.66777,0.01458 0.66777,-0.300066 0,-0.235246 0.11223,-0.427719 0.2494,-0.427719 0.13716,0 0.20401,0.235621 0.14855,0.523603 -0.0555,0.287981 0.0109,0.592664 0.14748,0.677073 0.13658,0.08441 0.24832,0.02738 0.24832,-0.126728 0,-0.154109 0.20836,-0.270799 0.46302,-0.25931 0.27934,0.0126 0.33117,0.07405 0.13065,0.154889 -0.18281,0.0737 -0.26326,0.245845 -0.17877,0.382543 0.0845,0.136697 0.0555,0.231491 -0.0645,0.210653 -0.51208,-0.08896 -0.66099,0.0474 -0.39793,0.364379 0.44169,0.5322 0.0132,0.907916 -0.68007,0.59628 z m -2.65418,2.120532 c 0.38436,0.384356 0.33322,-0.606867 -0.0519,-1.005739 -0.36775,-0.380896 -0.44689,-0.39261 -0.44689,-0.06615 0,0.218196 0.11767,0.39672 0.26149,0.39672 0.14382,0 0.0347,0.265839 -0.24253,0.590753 -0.30883,0.361965 -0.3409,0.465322 -0.0828,0.266879 0.23167,-0.178131 0.48485,-0.260241 0.56262,-0.182467 z m -8.03803,-2.150777 c 0.0493,-0.42534 0.19619,-0.90233 0.32653,-1.059978 0.15169,-0.183479 0.0957,-0.286632 -0.15571,-0.286632 -0.25564,0 -0.40338,0.284699 -0.42336,0.815799 -0.0202,0.537124 -0.0752,0.641429 -0.16083,0.305343 -0.0716,-0.28075 -0.30487,-0.685184 -0.51842,-0.898743 -0.34133,-0.341329 -0.45788,-0.317561 -0.96366,0.196525 -0.39265,0.399102 -0.44933,0.558473 -0.17849,0.501868 0.21829,-0.04562 0.46202,-0.243316 0.54163,-0.439325 0.11273,-0.277545 0.22979,-0.251678 0.52917,0.116935 0.21143,0.260323 0.24907,0.39224 0.0837,0.293148 -0.16541,-0.09909 -0.45248,0.0027 -0.63792,0.226104 -0.29592,0.356562 -0.42949,0.305207 -1.09161,-0.419724 -0.80055,-0.876489 -0.78002,-1.315291 0.0615,-1.315291 0.59599,0 0.64073,-0.150773 0.18844,-0.634952 -0.26586,-0.28461 -0.37578,-0.246412 -0.60313,0.209605 -0.1529,0.306701 -0.34549,0.498108 -0.42797,0.425347 -0.0825,-0.07276 -0.33294,0.01958 -0.5566,0.205191 -0.33473,0.277806 -0.43475,0.264222 -0.56562,-0.07682 -0.10277,-0.267814 -0.41773,-0.38714 -0.8908,-0.337482 -0.62306,0.0654 -0.73296,-0.02148 -0.73957,-0.584639 -0.006,-0.530079 -0.12447,-0.645017 -0.59531,-0.578681 -0.72963,0.102794 -0.75279,-0.220569 -0.0584,-0.815136 0.29105,-0.249198 0.52917,-0.33519 0.52917,-0.191093 0,0.144096 0.11906,0.261994 0.26458,0.261994 0.14553,0 0.26459,-0.171758 0.26459,-0.381684 0,-0.239263 -0.19745,-0.343657 -0.52917,-0.279775 -0.32329,0.06226 -0.52917,-0.04051 -0.52917,-0.26416 0,-0.499668 0.45247,-0.743335 0.61798,-0.332801 0.0959,0.237898 0.13994,0.242805 0.15489,0.01726 0.0328,-0.494455 -0.54156,-0.718303 -0.80589,-0.314096 -0.13114,0.200545 -0.19028,0.566221 -0.13141,0.812615 0.0589,0.246393 -0.0944,0.630232 -0.34047,0.852976 -0.40732,0.368616 -0.48728,0.337658 -0.89037,-0.344717 -0.24358,-0.412338 -0.36663,-0.825943 -0.27345,-0.919122 0.0932,-0.09318 0.0166,-0.169417 -0.17012,-0.169417 -0.20936,0 -0.28645,-0.20303 -0.20106,-0.529532 0.0777,-0.297253 0.0286,-0.461617 -0.11204,-0.374706 -0.14681,0.09073 -0.18321,-0.113342 -0.0879,-0.492941 0.11774,-0.469103 0.0374,-0.695816 -0.2914,-0.821976 -0.36527,-0.140167 -0.39407,-0.102027 -0.14741,0.195188 0.16862,0.203168 0.23408,0.558316 0.14547,0.789217 -0.4186,1.090874 2.59513,5.439421 3.52299,5.083365 0.20064,-0.07699 0.2872,-0.01957 0.19512,0.129425 -0.16035,0.259453 2.04958,1.398442 2.71772,1.400702 0.1819,6.15e-4 0.33073,0.100338 0.33073,0.221605 0,0.121267 0.26789,0.222309 0.59531,0.224538 0.32742,0.0022 0.77391,0.119355 0.99219,0.260282 0.59988,0.387296 0.91641,0.174856 1.0156,-0.681613 z m -1.11332,-3.898258 c -0.16339,-1.113201 -2.90007,-4.151129 -3.7395,-4.151129 -0.21786,0 -0.39612,-0.12481 -0.39612,-0.277356 0,-0.468289 -1.53542,-0.954395 -3.12221,-0.988476 -0.8294,-0.01781 -1.35917,0.03151 -1.17726,0.109604 0.1819,0.07809 0.33165,0.280898 0.33279,0.450672 0.001,0.169775 0.29879,0.446307 0.66146,0.614517 0.36266,0.168209 0.65939,0.197975 0.65939,0.06615 0,-0.13183 -0.12609,-0.23969 -0.2802,-0.23969 -0.15411,0 -0.21218,-0.110052 -0.12905,-0.24456 0.0831,-0.134507 -0.0587,-0.299289 -0.31511,-0.366183 -0.36532,-0.09529 -0.34125,-0.128268 0.11122,-0.152315 0.33663,-0.01789 0.63875,0.162422 0.72439,0.432328 0.10964,0.34557 0.43296,0.463021 1.2746,0.463021 0.98072,0 1.11619,0.06896 1.03943,0.529167 -0.0682,0.408657 -0.0156,0.458557 0.23068,0.219113 0.35712,-0.347167 1.12869,-0.166522 0.89611,0.209802 -0.082,0.132646 -0.25989,0.172675 -0.39535,0.08895 -0.13547,-0.08372 -0.2463,-0.01911 -0.2463,0.143591 0,0.162697 -0.14883,0.212483 -0.33073,0.110636 -0.1819,-0.101848 -0.1365,0.02157 0.10089,0.274266 0.23907,0.254482 0.85102,0.471332 1.37175,0.486092 0.51707,0.01466 0.93382,0.09257 0.92611,0.17314 -0.0692,0.723524 0.0914,1.866283 0.26224,1.866283 0.11749,0 0.18828,-0.365765 0.15733,-0.812811 -0.0309,-0.447046 0.0127,-0.743841 0.097,-0.659545 0.27188,0.271888 0.24896,1.59265 -0.0347,2.001522 -0.22725,0.327518 -0.21056,0.339078 0.0955,0.06615 0.20399,-0.181901 0.55543,-0.321329 0.78099,-0.309841 0.27252,0.01388 0.29915,0.06566 0.0794,0.15434 -0.1819,0.0734 -0.33073,0.257172 -0.33073,0.408384 0,0.174241 0.13615,0.161933 0.37176,-0.03361 0.20448,-0.169696 0.35039,-0.45419 0.32427,-0.632208 z m -6.27088,-1.395053 c 0.0102,-0.157647 -0.15811,-0.286632 -0.37408,-0.286632 -0.30054,0 -0.3228,0.08419 -0.0949,0.358835 0.23651,0.284986 0.20209,0.322106 -0.16728,0.180367 -0.41586,-0.159583 -0.42942,-0.111853 -0.12816,0.451063 0.32303,0.60359 0.34534,0.607968 0.54135,0.106264 0.11244,-0.287796 0.2128,-0.652249 0.22303,-0.809897 z m 12.78707,-2.478051 c 1.36777,-1.557062 1.90428,-3.068195 1.91043,-5.380905 0.006,-2.364745 -0.18667,-2.619236 -1.72398,-2.273824 -1.64847,0.370386 -3.33187,1.68067 -4.08456,3.179251 -0.84388,1.680125 -0.90452,2.434145 -0.12881,1.60151 0.59706,-0.640869 1.45136,-0.793097 1.23121,-0.21939 -0.0906,0.236161 0.05,0.34973 0.40962,0.330729 0.63156,-0.03337 0.86216,-0.847696 0.30102,-1.063023 -0.30994,-0.118938 -0.32243,-0.03994 -0.0703,0.444727 0.29253,0.562293 0.27395,0.5593 -0.40469,-0.06517 -0.59884,-0.551035 -0.75029,-0.592869 -0.9579,-0.264583 -0.15024,0.237569 -0.24818,0.266808 -0.25065,0.07483 -0.002,-0.173312 0.12313,-0.393715 0.27857,-0.489783 0.15544,-0.09607 0.22104,-0.335156 0.14577,-0.531307 -0.0879,-0.228997 -1.8e-4,-0.304191 0.24502,-0.210096 0.21004,0.0806 0.30018,0.282893 0.20032,0.449546 -0.10496,0.175176 -0.003,0.15806 0.24255,-0.04057 0.34775,-0.281714 0.46307,-0.281714 0.64049,0 0.14889,0.23641 0.26286,0.09599 0.36537,-0.450173 0.18578,-0.989776 -0.22246,-1.304826 -0.92547,-0.714219 -0.52791,0.443505 -0.52866,0.441873 -0.0547,-0.119698 0.26428,-0.313133 0.681,-0.538356 0.92604,-0.500496 0.24504,0.03786 0.533,-0.06313 0.63991,-0.224417 0.1333,-0.201102 0.19566,-0.184419 0.19844,0.05309 0.002,0.190489 0.10962,0.281097 0.23865,0.20135 0.44857,-0.27723 0.89334,0.625607 0.72438,1.47041 -0.16197,0.809833 -0.14823,0.823251 0.69466,0.678705 0.47295,-0.0811 0.71107,-0.08606 0.52917,-0.01102 -0.1819,0.07504 -0.33073,0.252605 -0.33073,0.394587 0,0.141983 0.12384,0.181616 0.27519,0.08807 0.18044,-0.111516 0.21338,0.08808 0.0957,0.579698 -0.25026,1.045352 -0.59316,1.670079 -1.4719,2.681636 l -0.75884,0.873531 -0.16148,-0.807385 c -0.0888,-0.444061 -0.27268,-0.807384 -0.4086,-0.807384 -0.13592,0 -0.18188,-0.105572 -0.10213,-0.234604 0.0797,-0.129033 -0.062,-0.391181 -0.31511,-0.582552 -0.38134,-0.288382 -0.40703,-0.287995 -0.15006,0.0023 0.17053,0.192616 0.24709,0.514295 0.17013,0.714844 -0.077,0.200549 0.0216,0.366457 0.21912,0.368686 0.27703,0.0031 0.26839,0.06263 -0.0378,0.260532 -0.22194,0.143428 -0.26202,0.258266 -0.0909,0.260531 0.39091,0.0052 0.15492,0.944472 -0.34061,1.355725 -0.30168,0.250373 -0.34199,0.226378 -0.20768,-0.123625 0.10076,-0.262584 0.0334,-0.434298 -0.17033,-0.434298 -0.18535,0 -0.26234,0.07465 -0.17109,0.165898 0.0912,0.09124 -0.004,0.57183 -0.21101,1.067969 l -0.37691,0.902071 1.21143,-0.869532 c 0.66629,-0.478242 1.57218,-1.280201 2.01309,-1.782131 z m -4.45104,0.532998 c -0.1364,-0.335542 -0.21194,-0.3011 -0.39802,0.181459 -0.12631,0.327584 -0.15385,0.793174 -0.0612,1.034645 0.14076,0.366815 0.20624,0.336965 0.39801,-0.181459 0.12625,-0.341274 0.15379,-0.806864 0.0612,-1.034645 z m 4.79991,-2.54347 c -0.0828,-0.329804 -0.22051,-0.819063 -0.30607,-1.087244 -0.12225,-0.383184 -0.0375,-0.353841 0.39575,0.137023 0.30322,0.343544 0.55131,0.483867 0.55131,0.311831 0,-0.346101 -0.64401,-1.068746 -0.95245,-1.068746 -0.10808,0 -0.38922,-0.174403 -0.62476,-0.387562 -0.3819,-0.345615 -0.433,-0.324498 -0.47214,0.195101 -0.0346,0.459757 0.009,0.499651 0.20493,0.189125 0.1738,-0.274888 0.26001,-0.293825 0.28594,-0.06281 0.0645,0.574364 0.1067,0.720275 0.293,1.012417 0.27235,0.427093 -0.069,1.4562 -0.41825,1.260896 -0.17619,-0.09853 -0.16374,-0.02064 0.0301,0.188184 0.39479,0.425326 0.44116,0.879124 0.0661,0.647357 -0.14552,-0.08994 -0.26082,0.05186 -0.25622,0.315114 0.007,0.389466 0.13363,0.336146 0.68079,-0.286204 0.46491,-0.528795 0.62599,-0.9499 0.52194,-1.364482 z"
       id="path5570" />
    <path
       style="fill:#23533c"
       d="m 136.90675,76.628604 c 2.00961,-0.045 5.22429,-0.04489 7.14374,2.58e-4 1.91946,0.04515 0.27523,0.08197 -3.65383,0.08183 -3.92907,-1.42e-4 -5.49953,-0.03708 -3.48991,-0.08208 z"
       id="path5568" />
    <path
       style="fill:#23533c"
       d="m 132.23867,76.650112 c -0.097,-0.09701 -0.17639,-0.387865 -0.17639,-0.646335 0,-0.25847 -0.24971,-0.893177 -0.55492,-1.410461 -0.49389,-0.837093 -0.80666,-1.015205 -2.84427,-1.619751 -5.14844,-1.527511 -6.08089,-1.984384 -7.88821,-3.865009 -1.3205,-1.374051 -2.65938,-3.784801 -2.78023,-5.005981 -0.075,-0.758007 0.0244,-0.939371 0.69304,-1.264121 0.63344,-0.307659 1.17199,-0.327475 2.85634,-0.105097 4.23596,0.559258 7.10368,2.778897 9.2554,7.163775 0.62053,1.264538 1.27759,2.456493 1.46013,2.648788 0.40635,0.42807 0.42265,0.753676 0.0493,0.984437 -0.15545,0.09607 -0.21634,0.347404 -0.13533,0.558523 0.0823,0.214357 0.0318,0.312476 -0.11425,0.222206 -0.37749,-0.2333 -0.32139,0.215771 0.0987,0.790308 0.19815,0.270984 0.30616,0.699602 0.24003,0.952483 -0.0759,0.29011 0.0597,0.506181 0.36734,0.585512 0.3639,0.09384 0.38131,0.133512 0.0686,0.15642 -0.23041,0.01688 -0.4983,-0.04868 -0.59531,-0.145697 z m -0.50002,-4.196049 c -0.33133,-0.294789 -0.6428,-0.771039 -0.69217,-1.058334 -0.21014,-1.222943 -1.87244,-3.823049 -3.49095,-5.460412 -1.54049,-1.558437 -1.95586,-1.825053 -3.57894,-2.297211 -3.49699,-1.017284 -5.5565,-0.967932 -5.60652,0.134352 -0.0365,0.804984 0.99031,3.050626 2.01342,4.403247 1.54992,2.049095 3.57494,3.129175 8.3715,4.465092 1.01865,0.283708 1.94995,0.611934 2.06956,0.72939 0.11961,0.117457 0.50976,0.07997 0.86699,-0.08329 l 0.64952,-0.296851 z m -0.99929,0.12349 c 0,-0.154109 -0.12201,-0.204791 -0.27113,-0.112626 -0.14913,0.09217 -0.25409,0.06943 -0.23326,-0.05053 0.0895,-0.515184 -0.0658,-0.586294 -0.72932,-0.334014 -0.49145,0.186849 -0.79154,0.180127 -0.99218,-0.02223 -0.20805,-0.209821 -0.1587,-0.240996 0.17837,-0.112664 0.35373,0.134674 0.42675,0.07506 0.30301,-0.247389 -0.0897,-0.233647 -0.25915,-0.365399 -0.37665,-0.292782 -0.1175,0.07262 -0.17366,-0.07689 -0.12481,-0.332248 0.0488,-0.255355 0.10704,-0.464281 0.12931,-0.464281 0.0223,0 0.0804,-0.208927 0.12931,-0.464281 0.0488,-0.255355 -0.0217,-0.395956 -0.15685,-0.312447 -0.13512,0.08351 -0.17666,0.26351 -0.0923,0.400004 0.0844,0.136493 -0.0396,0.322224 -0.27547,0.412735 -0.23587,0.09051 -0.36622,0.327795 -0.28966,0.527298 0.19959,0.520121 -0.008,0.448474 -0.62764,-0.216325 l -0.53948,-0.579057 v 0.579057 c 0,0.318482 0.13891,0.579057 0.30868,0.579057 0.16978,0 0.24635,0.06233 0.17017,0.13852 -0.30804,0.308034 -0.96385,-0.210048 -0.87169,-0.688617 0.0538,-0.27953 -0.0143,-0.508236 -0.15151,-0.508236 -0.13717,0 -0.2494,-0.193172 -0.2494,-0.429272 0,-0.368313 -0.0618,-0.378001 -0.43504,-0.06822 -0.38825,0.322226 -0.41697,0.290145 -0.26702,-0.298332 0.0924,-0.362661 0.098,-0.505586 0.0124,-0.317611 -0.12714,0.279307 -0.23269,0.279307 -0.57751,0 -0.34871,-0.28246 -0.38441,-0.279457 -0.20572,0.0173 0.1653,0.274511 0.0838,0.317045 -0.34609,0.180607 -0.43318,-0.137487 -0.56137,-0.06805 -0.55824,0.302384 0.003,0.407255 0.0433,0.420108 0.26053,0.08398 0.20145,-0.311725 0.25735,-0.318966 0.26053,-0.03375 0.003,0.304448 0.0789,0.305857 0.46707,0.0087 0.25466,-0.194922 0.37476,-0.250221 0.26688,-0.122887 -0.10788,0.127334 -0.0723,0.3807 0.079,0.563035 0.28853,0.347657 -0.15748,0.853646 -0.47371,0.537414 -0.0873,-0.08733 -0.0129,-0.158786 0.16551,-0.158786 0.17836,0 0.24713,-0.124844 0.15283,-0.277431 -0.11617,-0.187958 -0.29836,-0.172113 -0.56495,0.04913 -0.31543,0.261789 -0.44116,0.251217 -0.63385,-0.0533 -0.1322,-0.208924 -0.24219,-0.591198 -0.24442,-0.849497 -0.003,-0.31164 -0.27874,-0.524573 -0.82054,-0.632934 -0.44907,-0.08981 -0.87826,-0.324278 -0.95377,-0.521032 -0.0755,-0.196754 -0.24681,-0.290037 -0.38069,-0.207296 -0.13387,0.08274 -0.22636,0.05229 -0.20552,-0.06767 0.0931,-0.535677 -0.0469,-0.897117 -0.28936,-0.74727 -0.39539,0.244364 -0.31918,-0.0399 0.13153,-0.490609 0.4059,-0.405902 0.2676,-1.34357 -0.15926,-1.079757 -0.13027,0.08051 -0.23686,0.03849 -0.23686,-0.09338 0,-0.131871 -0.2586,-0.355159 -0.57467,-0.496194 -0.6831,-0.304806 -0.81183,-1.161091 -0.25303,-1.683085 0.34805,-0.32513 0.37533,-0.3106 0.21268,0.113266 -0.15096,0.393397 -0.0847,0.459603 0.34687,0.346736 0.29341,-0.07673 0.46675,-0.03155 0.3852,0.100405 -0.0816,0.13195 -0.31611,0.239909 -0.52123,0.239909 -0.47948,0 -0.22177,0.699995 0.33659,0.914258 0.23137,0.08878 0.54958,0.02099 0.70715,-0.15065 0.21341,-0.232472 0.18526,-0.258528 -0.11039,-0.10215 -0.26776,0.141628 -0.3108,0.122331 -0.13229,-0.05932 0.14552,-0.148082 0.60706,-0.350191 1.02565,-0.449131 0.61466,-0.145285 0.73141,-0.102587 0.60687,0.22195 -0.0848,0.221013 -0.0441,0.469863 0.0904,0.553001 0.34062,0.210512 0.24065,1.98154 -0.11212,1.986506 -0.15833,0.0022 -0.12169,0.109274 0.0814,0.23788 0.20311,0.128606 0.2976,0.420626 0.20999,0.648933 -0.0876,0.228308 -0.0454,0.485476 0.0937,0.571485 0.13917,0.08601 0.25303,0.02326 0.25303,-0.139433 0,-0.166233 0.14487,-0.208775 0.33073,-0.09712 0.23686,0.142301 0.23064,0.07522 -0.0219,-0.236334 -0.40704,-0.502128 -0.60746,-1.783215 -0.27899,-1.783215 0.12191,0 0.10554,-0.305407 -0.0364,-0.678682 -0.35367,-0.930228 -0.3249,-1.173401 0.13884,-1.173401 0.21828,0 0.39687,0.131801 0.39687,0.292891 0,0.161923 0.19268,0.218953 0.4309,0.127539 0.36245,-0.139084 0.40369,-0.02931 0.25963,0.691029 -0.12163,0.608104 -0.0892,0.774329 0.11174,0.573363 0.15566,-0.155659 0.30005,-0.509203 0.32087,-0.785653 0.0245,-0.324481 0.2535,-0.516062 0.64624,-0.540513 0.33461,-0.02083 0.55094,0.05505 0.48075,0.16863 -0.0702,0.113578 0.0719,0.368824 0.31587,0.567214 0.39073,0.317791 0.42114,0.301165 0.25561,-0.139736 -0.15595,-0.415373 -0.12253,-0.446206 0.19657,-0.181376 0.21145,0.175488 0.33797,0.560438 0.28116,0.855445 -0.0705,0.366078 0.01,0.493005 0.25268,0.399773 0.51442,-0.197402 1.47507,0.558964 1.47507,1.161397 0,0.28279 0.1338,0.514163 0.29734,0.514163 0.19798,0 0.25777,0.477307 0.17891,1.4283 -0.11683,1.408737 -0.11014,1.424514 0.4881,1.151935 0.33361,-0.152 0.53236,-0.396412 0.44168,-0.543138 -0.0944,-0.152804 -0.0325,-0.184982 0.1449,-0.07532 0.17038,0.1053 0.23306,0.315601 0.13928,0.467337 -0.0938,0.151735 -0.006,0.37981 0.19412,0.506833 0.30652,0.194148 0.30458,0.231596 -0.0122,0.235002 -0.26221,0.0028 -0.18781,0.205274 0.24455,0.665509 0.34178,0.363803 0.4816,0.661459 0.31071,0.661459 -0.17089,0 -0.31071,-0.126089 -0.31071,-0.280198 z m -5.80273,-4.338822 c 0.13557,0.08378 0.24648,0.02624 0.24648,-0.127865 0,-0.154109 -0.11532,-0.280198 -0.25627,-0.280198 -0.30299,0 -0.0326,-0.847238 0.35249,-1.104458 0.17905,-0.119601 0.17591,-0.381263 -0.01,-0.79375 -0.27187,-0.604768 -0.27983,-0.600828 -0.46395,0.229463 -0.12944,0.583726 -0.30451,0.799833 -0.5665,0.699297 -0.20855,-0.08002 -0.37917,-0.0137 -0.37917,0.14739 0,0.16109 0.0893,0.263125 0.19844,0.226745 0.34893,-0.116312 0.37544,0.17868 0.0847,0.943266 -0.39454,1.037728 -0.35358,1.193211 0.1318,0.500242 0.22823,-0.325856 0.52589,-0.523915 0.66145,-0.440132 z m 1.83324,0.17794 c 5.5e-4,-0.250101 -0.13001,-0.270058 -0.49363,-0.07546 -0.27191,0.145521 -0.56064,0.198328 -0.64162,0.117348 -0.081,-0.08098 -0.36452,-0.02476 -0.6301,0.124927 -0.38295,0.215848 -0.25035,0.261925 0.64087,0.22269 0.71288,-0.03138 1.12401,-0.173795 1.12448,-0.38951 z"
       id="path5567" />
    <path
       style="fill:#23533c"
       d="m 121.03175,76.628602 c 2.00961,-0.045 5.22429,-0.04489 7.14375,2.58e-4 1.91945,0.04515 0.27522,0.08197 -3.65384,0.08183 -3.92907,-1.42e-4 -5.49953,-0.03708 -3.48991,-0.08208 z"
       id="path5566" />
    <path
       style="fill:#23533c"
       d="m 146.87376,78.48192 c 0.65198,-0.05734 1.36636,-0.2449 1.5875,-0.416796 0.35123,-0.273027 0.35616,-0.254004 0.0389,0.150483 -0.26423,0.336917 -0.69659,0.450431 -1.5875,0.416796 l -1.22438,-0.04622 z"
       id="path5561" />
    <path
       style="fill:#23533c"
       d="m 137.82953,78.481578 c 1.20746,-0.04914 3.11246,-0.04886 4.23333,6.09e-4 1.12088,0.04947 0.13296,0.08967 -2.19537,0.08934 -2.32833,-3.35e-4 -3.24542,-0.04081 -2.03796,-0.08995 z"
       id="path5560" />
    <path
       style="fill:#23533c"
       d="m 126.83676,78.481961 c 1.12779,-0.0496 2.97326,-0.0496 4.10104,0 1.12779,0.0496 0.20505,0.09018 -2.05052,0.09018 -2.25557,0 -3.17831,-0.04058 -2.05052,-0.09018 z"
       id="path5559" />
    <path
       style="fill:#1a4a31"
       d="m 132.17319,53.80775 c 0.0657,-4.279532 0.36857,-5.370961 2.00866,-7.238926 1.82098,-2.073974 5.31846,-3.008284 5.27199,-1.408348 l -0.0168,0.577483 -0.23928,-0.595313 c -0.13161,-0.327422 -0.34058,-0.595312 -0.46438,-0.595312 -0.6154,0 -2.96696,0.84694 -2.96696,1.068583 0,0.139883 -0.15784,0.254333 -0.35076,0.254333 -0.70522,0 -1.99798,1.884157 -2.62166,3.821001 -0.14332,0.445064 -0.35489,2.416551 -0.47017,4.381082 l -0.20959,3.571875 z"
       id="path5445" />
    <path
       style="fill:#1a4a31"
       d="m 129.07448,60.688688 c -1.13396,-0.421438 -2.46997,-1.018542 -2.9689,-1.3269 -1.38997,-0.859047 -2.84232,-2.678821 -3.50996,-4.397936 -0.61184,-1.575423 -0.87585,-3.866501 -0.48998,-4.252071 0.4451,-0.44476 3.08183,-0.08574 4.44555,0.605313 2.29018,1.160522 4.99495,4.393248 4.96172,5.930239 -0.005,0.218281 -0.21046,-0.109577 -0.45721,-0.728573 -0.61609,-1.545538 -2.14954,-3.288321 -3.93769,-4.475231 -1.24755,-0.828073 -1.77901,-1.012594 -3.17198,-1.101292 l -1.67333,-0.106549 0.006,1.287593 c 0.008,1.551779 0.91843,3.883674 2.09949,5.374882 0.88281,1.114633 4.20585,2.943386 6.03017,3.318548 0.47294,0.09726 0.85989,0.286436 0.85989,0.420394 0,0.133959 -0.0298,0.237772 -0.0661,0.230697 -0.0364,-0.0071 -0.99394,-0.357677 -2.12791,-0.779114 z"
       id="path5443" />
    <path
       style="fill:#1a4a31"
       d="m 134.46313,63.685414 c -0.049,-0.771372 1.148,-2.881125 2.36418,-4.167055 1.77348,-1.875197 3.92052,-2.851141 6.62037,-3.009322 1.61101,-0.09439 2.06065,-0.03486 2.3475,0.310774 0.21244,0.25597 0.24191,0.427522 0.0735,0.427522 -0.15476,0 -0.36479,-0.134973 -0.46674,-0.299939 -0.12411,-0.200813 -0.80901,-0.252774 -2.07239,-0.157225 -3.56339,0.269498 -6.61821,2.367624 -8.08642,5.55394 -0.41819,0.907554 -0.76916,1.511141 -0.77995,1.341305 z"
       id="path5441" />
    <path
       style="fill:#1a4a31"
       d="m 133.47795,60.488041 c 0.0845,-2.364954 0.27658,-4.529565 0.4268,-4.810246 0.15022,-0.280681 0.66032,-0.77541 1.13355,-1.099398 2.73822,-1.874634 4.10258,-4.013649 4.44965,-6.976061 l 0.21842,-1.864377 -0.0949,2.015941 c -0.0657,1.396729 -0.27081,2.360835 -0.6677,3.138796 -0.63128,1.23741 -2.58304,3.260116 -3.70622,3.840933 -1.06995,0.553297 -1.28903,1.457685 -1.39242,5.748197 -0.0516,2.142773 -0.18997,3.988242 -0.30739,4.101042 -0.11743,0.112799 -0.14435,-1.729873 -0.0598,-4.094827 z"
       id="path5440" />
    <path
       style="fill:#1a4a31"
       d="m 133.72438,69.418166 c 0.0211,-1.240882 0.13227,-1.549776 0.75496,-2.097288 0.40896,-0.359583 1.56462,-0.858804 2.62669,-1.134668 1.04304,-0.270924 2.3292,-0.715735 2.85812,-0.988468 2.33539,-1.204227 4.8069,-4.18262 5.47163,-6.59382 0.227,-0.823403 0.34336,-1.007704 0.35536,-0.562839 0.0243,0.901026 -0.84462,2.742538 -2.03018,4.302536 -1.35814,1.787075 -3.63183,3.235259 -6.37292,4.059107 -1.25568,0.3774 -2.50255,0.897289 -2.77083,1.15531 -0.27409,0.263615 -0.58191,1.092553 -0.70266,1.892233 l -0.21488,1.423105 z"
       id="path5436" />
    <path
       style="fill:#1a4a31"
       d="m 132.01119,67.103062 c -0.0521,-2.582995 -0.002,-4.809464 0.11043,-4.947708 0.11289,-0.138245 0.20524,1.975114 0.20524,4.696353 0,2.72124 -0.0497,4.947708 -0.11043,4.947708 -0.0607,0 -0.1531,-2.113359 -0.20524,-4.696353 z"
       id="path5432" />
    <path
       style="fill:#1a4a31"
       d="m 124.86912,71.818964 c -2.7134,-1.060971 -4.75916,-2.948699 -6.10215,-5.630785 -1.52845,-3.052443 -0.81455,-3.929199 2.78888,-3.425121 2.68204,0.375185 5.04402,1.504618 6.57944,3.146113 1.1507,1.230189 3.316,4.737345 3.07414,4.979206 -0.066,0.06597 -0.45918,-0.505735 -0.87381,-1.270448 -2.2937,-4.230357 -4.48367,-5.882734 -8.69762,-6.562516 -3.54133,-0.571279 -4.11901,0.260551 -2.37913,3.425871 1.48743,2.706037 3.05284,4.064582 5.84516,5.072705 1.1349,0.409741 1.82533,0.746077 1.53429,0.747413 -0.29104,0.0013 -1.08718,-0.215761 -1.7692,-0.482438 z"
       id="path5430" />
    <path
       style="fill:#1a4a31"
       d="m 133.70953,72.328194 c -0.0406,-0.592762 0.0466,-1.057945 0.19844,-1.057945 0.14904,0 0.27098,0.47625 0.27098,1.058333 0,1.375178 -0.37512,1.374869 -0.46942,-3.88e-4 z"
       id="path5425" />
    <path
       style="fill:#1a4a31"
       d="m 131.10838,74.064101 c -0.30636,-0.349894 -1.08027,-0.768795 -1.71979,-0.930892 -1.66157,-0.421152 -2.48312,-0.817617 -1.29506,-0.624972 1.42945,0.231786 3.09796,1.034099 3.42626,1.647541 0.38411,0.717708 0.27623,0.693669 -0.41141,-0.09168 z"
       id="path5422" />
    <path
       style="fill:#1a4a31"
       d="m 137.02322,76.62875 c 1.92815,-0.04521 5.08331,-0.04521 7.01146,0 1.92815,0.04521 0.35057,0.08219 -3.50573,0.08219 -3.8563,0 -5.43388,-0.03699 -3.50573,-0.08219 z"
       id="path5419" />
    <path
       style="fill:#1a4a31"
       d="m 121.03175,76.628602 c 2.00961,-0.045 5.22429,-0.04489 7.14375,2.58e-4 1.91945,0.04515 0.27522,0.08197 -3.65384,0.08183 -3.92907,-1.42e-4 -5.49953,-0.03708 -3.48991,-0.08208 z"
       id="path5418" />
    <path
       style="fill:#1a4a31"
       d="m 146.87376,78.48192 c 0.65198,-0.05734 1.36636,-0.2449 1.5875,-0.416796 0.35123,-0.273027 0.35616,-0.254004 0.0389,0.150483 -0.26423,0.336917 -0.69659,0.450431 -1.5875,0.416796 l -1.22438,-0.04622 z"
       id="path5413" />
    <path
       style="fill:#1a4a31"
       d="m 137.82953,78.481578 c 1.20746,-0.04914 3.11246,-0.04886 4.23333,6.09e-4 1.12088,0.04947 0.13296,0.08967 -2.19537,0.08934 -2.32833,-3.35e-4 -3.24542,-0.04081 -2.03796,-0.08995 z"
       id="path5412" />
    <path
       style="fill:#1a4a31"
       d="m 126.83676,78.481961 c 1.12779,-0.0496 2.97326,-0.0496 4.10104,0 1.12779,0.0496 0.20505,0.09018 -2.05052,0.09018 -2.25557,0 -3.17831,-0.04058 -2.05052,-0.09018 z"
       id="path5411" />
    <path
       style="fill:#56320b"
       d="m 139.40368,48.119213 c 0.0774,-1.018645 0.18371,-1.901692 0.23616,-1.962326 0.18409,-0.212819 0.0403,2.498721 -0.16718,3.152951 -0.12193,0.384452 -0.15082,-0.114161 -0.069,-1.190625 z"
       id="path5213" />
    <path
       style="fill:#56320b"
       d="m 121.97765,52.683275 c -0.0356,-1.005348 0.0417,-1.876133 0.17931,-2.019152 0.0534,-0.05551 0.71173,-0.08708 1.46295,-0.07015 1.51576,0.03415 3.58414,0.896877 4.8705,2.031497 0.56401,0.497484 0.62571,0.616329 0.21317,0.410614 -0.31932,-0.159229 -0.66133,-0.420167 -0.76003,-0.579862 -0.39597,-0.640701 -2.90799,-1.553743 -4.28179,-1.556299 -1.50292,-0.0028 -1.49401,-0.01418 -1.3956,1.783353 0.0259,0.472942 -0.0216,0.859895 -0.10548,0.859895 -0.0839,0 -0.16628,-0.386953 -0.18303,-0.859895 z"
       id="path5209" />
    <path
       style="fill:#56320b"
       d="m 136.77678,53.148273 c 0.86332,-0.799277 1.71957,-1.815126 1.90278,-2.257442 0.18321,-0.442316 0.3854,-0.751927 0.4493,-0.688024 0.39776,0.397761 -2.96759,4.398697 -3.69993,4.398697 -0.122,0 0.48454,-0.653954 1.34785,-1.453231 z"
       id="path5207" />
    <path
       style="fill:#56320b"
       d="m 140.84054,56.992945 c 0.24414,-0.15381 1.01805,-0.335104 1.71979,-0.402874 l 1.27591,-0.123218 -1.15198,0.248845 c -0.63358,0.136866 -1.40749,0.318159 -1.71979,0.402875 -0.48066,0.130387 -0.49968,0.111105 -0.12393,-0.125628 z"
       id="path5203" />
    <path
       style="fill:#56320b"
       d="m 132.17987,53.543167 c 0.0462,-3.025617 0.14299,-3.770329 0.63312,-4.869533 0.31825,-0.713713 0.63723,-1.239056 0.70886,-1.167429 0.0716,0.07163 -0.0545,0.500593 -0.28036,0.95326 -0.60964,1.222067 -0.69665,1.730205 -0.9158,5.348286 l -0.20032,3.307291 z"
       id="path5202" />
    <path
       style="fill:#56320b"
       d="m 124.17731,57.641091 c -0.95759,-1.087875 -1.66619,-2.456759 -1.08619,-2.098297 0.13195,0.08155 0.23991,0.282411 0.23991,0.446358 0,0.163948 0.48334,0.871296 1.07408,1.571885 1.35875,1.611389 1.17651,1.67543 -0.2278,0.08005 z"
       id="path5197" />
    <path
       style="fill:#56320b"
       d="m 133.69348,58.967128 c -0.0196,-1.455209 0.0519,-2.783423 0.15879,-2.951588 0.10691,-0.168165 0.16038,0.724803 0.11882,1.984374 -0.11501,3.48582 -0.23797,3.91422 -0.27761,0.967214 z"
       id="path5195" />
    <path
       style="fill:#56320b"
       d="m 135.25116,61.59444 c -0.0354,-0.721412 3.51381,-4.082521 4.31095,-4.082521 0.15218,0 -0.25498,0.337173 -0.90479,0.749273 -1.13457,0.719519 -1.98142,1.572905 -2.94314,2.965827 -0.24703,0.357789 -0.45539,0.523128 -0.46302,0.367421 z"
       id="path5194" />
    <path
       style="fill:#56320b"
       d="m 140.52895,65.012955 c 0.3638,-0.24846 1.42268,-1.228502 2.35307,-2.17787 0.9304,-0.949368 1.56571,-1.490846 1.41181,-1.203285 -0.38707,0.723251 -2.97544,3.138576 -3.77187,3.519707 l -0.65447,0.313194 z"
       id="path5192" />
    <path
       style="fill:#56320b"
       d="m 129.54874,68.171042 c -0.58208,-0.944524 -1.65365,-2.261893 -2.38125,-2.927486 -0.7276,-0.665593 -1.08479,-1.046602 -0.79375,-0.846685 1.17095,0.804324 2.31864,2.048646 3.35094,3.633074 0.59791,0.917714 1.04105,1.711286 0.98475,1.763492 -0.0563,0.05221 -0.57861,-0.677871 -1.16069,-1.622395 z"
       id="path5185" />
    <path
       style="fill:#56320b"
       d="m 120.74864,69.059466 c -0.58426,-0.633847 -1.19818,-1.437518 -1.36426,-1.785937 -0.29619,-0.621371 -0.29296,-0.620836 0.1687,0.02797 0.25886,0.363802 0.93231,1.167474 1.49654,1.785937 0.56424,0.618464 0.96636,1.12448 0.8936,1.12448 -0.0728,0 -0.61032,-0.518603 -1.19458,-1.15245 z"
       id="path5183" />
    <path
       style="fill:#56320b"
       d="m 132.15473,68.888999 c 0,-1.236927 0.0456,-1.742943 0.10128,-1.124479 0.0557,0.618463 0.0557,1.630495 0,2.248958 -0.0557,0.618464 -0.10128,0.112448 -0.10128,-1.124479 z"
       id="path5182" />
    <path
       style="fill:#56320b"
       d="m 137.13989,76.628916 c 1.8468,-0.04542 4.94243,-0.04554 6.87917,-2.75e-4 1.93674,0.04527 0.42572,0.08243 -3.35782,0.08258 -3.78354,1.51e-4 -5.36815,-0.03688 -3.52135,-0.0823 z"
       id="path5174" />
    <path
       style="fill:#56320b"
       d="m 121.03175,76.628602 c 2.00961,-0.045 5.22429,-0.04489 7.14375,2.58e-4 1.91945,0.04515 0.27522,0.08197 -3.65384,0.08183 -3.92907,-1.42e-4 -5.49953,-0.03708 -3.48991,-0.08208 z"
       id="path5173" />
    <path
       style="fill:#56320b"
       d="m 146.87376,78.48192 c 0.65198,-0.05734 1.36636,-0.2449 1.5875,-0.416796 0.35123,-0.273027 0.35616,-0.254004 0.0389,0.150483 -0.26423,0.336917 -0.69659,0.450431 -1.5875,0.416796 l -1.22438,-0.04622 z"
       id="path5168" />
    <path
       style="fill:#56320b"
       d="m 137.82953,78.481578 c 1.20746,-0.04914 3.11246,-0.04886 4.23333,6.09e-4 1.12088,0.04947 0.13296,0.08967 -2.19537,0.08934 -2.32833,-3.35e-4 -3.24542,-0.04081 -2.03796,-0.08995 z"
       id="path5167" />
    <path
       style="fill:#56320b"
       d="m 126.83676,78.481961 c 1.12779,-0.0496 2.97326,-0.0496 4.10104,0 1.12779,0.0496 0.20505,0.09018 -2.05052,0.09018 -2.25557,0 -3.17831,-0.04058 -2.05052,-0.09018 z"
       id="path5166" />
    <path
       style="fill:#123717"
       d="m 139.40368,48.119213 c 0.0774,-1.018645 0.18371,-1.901692 0.23616,-1.962326 0.18409,-0.212819 0.0403,2.498721 -0.16718,3.152951 -0.12193,0.384452 -0.15082,-0.114161 -0.069,-1.190625 z"
       id="path5026" />
    <path
       style="fill:#123717"
       d="m 121.97765,52.683275 c -0.0356,-1.005348 0.0417,-1.876133 0.17931,-2.019152 0.0534,-0.05551 0.71173,-0.08708 1.46295,-0.07015 1.51576,0.03415 3.58414,0.896877 4.8705,2.031497 0.56401,0.497484 0.62571,0.616329 0.21317,0.410614 -0.31932,-0.159229 -0.66133,-0.420167 -0.76003,-0.579862 -0.39597,-0.640701 -2.90799,-1.553743 -4.28179,-1.556299 -1.50292,-0.0028 -1.49401,-0.01418 -1.3956,1.783353 0.0259,0.472942 -0.0216,0.859895 -0.10548,0.859895 -0.0839,0 -0.16628,-0.386953 -0.18303,-0.859895 z"
       id="path5022" />
    <path
       style="fill:#123717"
       d="m 136.77678,53.148273 c 0.86332,-0.799277 1.71957,-1.815126 1.90278,-2.257442 0.18321,-0.442316 0.3854,-0.751927 0.4493,-0.688024 0.39776,0.397761 -2.96759,4.398697 -3.69993,4.398697 -0.122,0 0.48454,-0.653954 1.34785,-1.453231 z"
       id="path5020" />
    <path
       style="fill:#123717"
       d="m 140.84054,56.992945 c 0.24414,-0.15381 1.01805,-0.335104 1.71979,-0.402874 l 1.27591,-0.123218 -1.15198,0.248845 c -0.63358,0.136866 -1.40749,0.318159 -1.71979,0.402875 -0.48066,0.130387 -0.49968,0.111105 -0.12393,-0.125628 z"
       id="path5016" />
    <path
       style="fill:#123717"
       d="m 132.17987,53.543167 c 0.0462,-3.025617 0.14299,-3.770329 0.63312,-4.869533 0.31825,-0.713713 0.63723,-1.239056 0.70886,-1.167429 0.0716,0.07163 -0.0545,0.500593 -0.28036,0.95326 -0.60964,1.222067 -0.69665,1.730205 -0.9158,5.348286 l -0.20032,3.307291 z"
       id="path5015" />
    <path
       style="fill:#123717"
       d="m 124.17731,57.641091 c -0.95759,-1.087875 -1.66619,-2.456759 -1.08619,-2.098297 0.13195,0.08155 0.23991,0.282411 0.23991,0.446358 0,0.163948 0.48334,0.871296 1.07408,1.571885 1.35875,1.611389 1.17651,1.67543 -0.2278,0.08005 z"
       id="path5010" />
    <path
       style="fill:#123717"
       d="m 133.69348,58.967128 c -0.0196,-1.455209 0.0519,-2.783423 0.15879,-2.951588 0.10691,-0.168165 0.16038,0.724803 0.11882,1.984374 -0.11501,3.48582 -0.23797,3.91422 -0.27761,0.967214 z"
       id="path5008" />
    <path
       style="fill:#123717"
       d="m 135.25116,61.59444 c -0.0354,-0.721412 3.51381,-4.082521 4.31095,-4.082521 0.15218,0 -0.25498,0.337173 -0.90479,0.749273 -1.13457,0.719519 -1.98142,1.572905 -2.94314,2.965827 -0.24703,0.357789 -0.45539,0.523128 -0.46302,0.367421 z"
       id="path5007" />
    <path
       style="fill:#123717"
       d="m 140.52895,65.012955 c 0.3638,-0.24846 1.42268,-1.228502 2.35307,-2.17787 0.9304,-0.949368 1.56571,-1.490846 1.41181,-1.203285 -0.38707,0.723251 -2.97544,3.138576 -3.77187,3.519707 l -0.65447,0.313194 z"
       id="path5005" />
    <path
       style="fill:#123717"
       d="m 129.54874,68.171042 c -0.58208,-0.944524 -1.65365,-2.261893 -2.38125,-2.927486 -0.7276,-0.665593 -1.08479,-1.046602 -0.79375,-0.846685 1.17095,0.804324 2.31864,2.048646 3.35094,3.633074 0.59791,0.917714 1.04105,1.711286 0.98475,1.763492 -0.0563,0.05221 -0.57861,-0.677871 -1.16069,-1.622395 z"
       id="path5000" />
    <path
       style="fill:#123717"
       d="m 120.74864,69.059466 c -0.58426,-0.633847 -1.19818,-1.437518 -1.36426,-1.785937 -0.29619,-0.621371 -0.29296,-0.620836 0.1687,0.02797 0.25886,0.363802 0.93231,1.167474 1.49654,1.785937 0.56424,0.618464 0.96636,1.12448 0.8936,1.12448 -0.0728,0 -0.61032,-0.518603 -1.19458,-1.15245 z"
       id="path4998" />
    <path
       style="fill:#123717"
       d="m 132.15473,68.888999 c 0,-1.236927 0.0456,-1.742943 0.10128,-1.124479 0.0557,0.618463 0.0557,1.630495 0,2.248958 -0.0557,0.618464 -0.10128,0.112448 -0.10128,-1.124479 z"
       id="path4997" />
  </g>
</svg>
