<?xml version="1.0" encoding="UTF-8" standalone="no"?>
<!-- Created with Inkscape (http://www.inkscape.org/) -->

<svg
   width="185"
   height="185"
   viewBox="0 0 48.947914 48.947918"
   version="1.1"
   id="svg1"
   sodipodi:docname="convallaria-majalis-8.svg"
   inkscape:version="1.4 (e7c3feb100, 2024-10-09)"
   xmlns:inkscape="http://www.inkscape.org/namespaces/inkscape"
   xmlns:sodipodi="http://sodipodi.sourceforge.net/DTD/sodipodi-0.dtd"
   xmlns="http://www.w3.org/2000/svg"
   xmlns:svg="http://www.w3.org/2000/svg">
  <sodipodi:namedview
     id="namedview1"
     pagecolor="#ffffff"
     bordercolor="#666666"
     borderopacity="1.0"
     inkscape:showpageshadow="2"
     inkscape:pageopacity="0.0"
     inkscape:pagecheckerboard="true"
     inkscape:deskcolor="#d1d1d1"
     showgrid="false"
     inkscape:zoom="1.211637"
     inkscape:cx="79.644316"
     inkscape:cy="150.21001"
     inkscape:current-layer="svg1" />
  <defs
     id="defs1" />
  <g
     id="g16091"
     transform="matrix(0.89966539,0,0,0.89966539,-43.931657,-163.38292)"
     style="stroke-width:1.11152">
    <path
       style="fill:#ede4d3;stroke-width:1.11152"
       d="m 60.532415,235.85469 c -0.889051,-0.13468 -0.941007,-0.7168 -0.112432,-1.2597 1.15278,-0.75533 5.041112,-1.74114 7.520765,-1.90674 1.346068,-0.0899 2.447396,-0.2038 2.447396,-0.25313 0,-0.0493 -0.555398,-0.9541 -1.234217,-2.01061 -3.7377,-5.81736 -7.035205,-13.7875 -8.437211,-20.39292 -0.770898,-3.63201 -0.4576,-4.03495 1.901863,-2.44599 3.353972,2.2587 6.666603,7.9606 8.002402,13.77422 0.203126,0.88404 0.247775,0.60081 0.271112,-1.71979 0.01537,-1.52797 0.149723,-5.04031 0.29857,-7.80521 0.646362,-12.0064 2.356669,-16.71389 7.197484,-19.81052 4.208028,-2.69184 8.150711,-2.21686 11.636407,1.40185 2.033125,2.11071 2.418361,2.73696 2.175076,3.53586 -0.496701,1.63106 -2.27983,2.07486 -3.27145,0.81422 -0.656711,-0.83488 -0.678559,-1.19405 -0.136407,-2.24246 0.406343,-0.78578 0.398061,-0.81055 -0.607153,-1.81576 -2.377488,-2.37749 -6.176606,-2.33847 -9.765592,0.10031 l -1.009972,0.6863 h 0.863666 c 1.058113,0 2.405404,0.54307 3.591287,1.44758 0.819258,0.62488 2.547051,3.58519 2.547051,4.36399 0,0.17747 0.238125,0.6254 0.529166,0.9954 1.520128,1.93252 -0.519767,4.58954 -2.340656,3.04876 -0.874194,-0.73972 -0.952826,-1.6698 -0.231087,-2.73334 0.587103,-0.86514 0.606692,-1.00268 0.278019,-1.95203 -1.010019,-2.91737 -3.529516,-4.25226 -6.043355,-3.20191 -1.594522,0.66623 -2.734202,3.3399 -3.446632,8.08571 -0.48987,3.26325 -1.058717,18.76096 -0.799809,21.79003 l 0.20028,2.34316 0.856345,-2.09201 c 1.216028,-2.9707 2.340299,-4.99432 3.94862,-7.10727 1.502444,-1.97385 3.845044,-3.82141 4.84534,-3.82141 0.521735,0 0.616269,0.13495 0.616269,0.8797 0,2.74829 -3.320594,9.5413 -6.898461,14.11234 -1.450005,1.85251 -1.402884,1.94107 1.033122,1.94166 1.982704,4.7e-4 5.225467,0.59132 7.888674,1.43736 2.216792,0.70422 2.84084,1.25806 1.952956,1.73324 -0.483374,0.25869 -24.602455,0.33133 -26.267436,0.0791 z"
       id="path16072" />
    <path
       style="fill:#e4d9c9;stroke-width:1.11152"
       d="m 61.855332,235.85625 c -1.560918,-0.0752 -2.050521,-0.18965 -2.050521,-0.47919 0,-0.94676 4.635832,-2.43191 8.382456,-2.68543 l 2.429332,-0.16438 -1.256663,-1.87951 c -1.646858,-2.4631 -3.67855,-6.29139 -4.999314,-9.42014 -2.565807,-6.07812 -4.748878,-14.55208 -3.748922,-14.55208 1.093965,0 3.593037,1.95865 5.162289,4.04594 2.11261,2.81003 4.878738,9.11756 4.878738,11.12487 0,0.37013 0.09266,0.73023 0.20592,0.80022 0.113256,0.07 0.160449,-0.67746 0.104872,-1.66103 -0.128006,-2.26539 0.387733,-12.70459 0.773232,-15.65116 1.014357,-7.75329 3.363339,-11.83633 8.100297,-14.08006 1.541618,-0.73022 2.076843,-0.84857 3.780262,-0.83591 2.791225,0.0207 4.135054,0.68202 6.548437,3.22241 1.589839,1.6735 1.918229,2.16941 1.918229,2.89674 0,1.99768 -2.267661,2.63675 -3.266203,0.92047 -0.490358,-0.84281 -0.493345,-0.92605 -0.06542,-1.82341 0.445735,-0.93472 0.443999,-0.94492 -0.292804,-1.72079 -2.378259,-2.50438 -6.268137,-2.63136 -9.70503,-0.31682 l -1.347853,0.9077 0.92251,0.006 c 1.327096,0.008 2.891936,0.8065 4.007766,2.04414 0.928036,1.02935 2.074119,3.19424 2.074119,3.91791 0,0.18938 0.190361,0.5347 0.423024,0.76736 0.232663,0.23267 0.484611,0.88219 0.559884,1.44339 0.29448,2.19551 -2.235779,3.00802 -3.251377,1.04407 -0.356594,-0.68957 -0.352341,-0.86107 0.04196,-1.69199 0.241324,-0.50856 0.540802,-0.98771 0.665504,-1.06478 0.353168,-0.21827 -0.719769,-2.76021 -1.515753,-3.59104 -1.459253,-1.52313 -4.251755,-1.70524 -5.647244,-0.36827 -0.942404,0.90287 -2.007004,4.05364 -2.534273,7.50036 -0.716106,4.68114 -1.174622,19.89807 -0.694508,23.0489 l 0.178826,1.17357 0.886145,-2.28102 c 2.137352,-5.50175 5.828365,-10.1535 8.476755,-10.68318 0.794369,-0.15888 0.823558,-0.13236 0.823558,0.74806 0,2.65509 -3.100775,9.13142 -6.513505,13.60421 -0.928718,1.2172 -1.688578,2.2737 -1.688578,2.34779 0,0.0741 0.803672,0.13508 1.785937,0.13555 4.568981,0.002 11.650876,2.01331 10.642775,3.02238 -0.276907,0.27717 -20.397971,0.45953 -25.194857,0.22834 z"
       id="path16052" />
    <path
       style="fill:#dad4c8;stroke-width:1.11152"
       d="m 61.987623,235.8351 c -1.687332,-0.0594 -2.182812,-0.16328 -2.182812,-0.45764 0,-0.94717 4.634975,-2.43228 8.382456,-2.68586 l 2.429332,-0.16438 -1.256663,-1.87951 c -1.646858,-2.4631 -3.67855,-6.29139 -4.999314,-9.42014 -2.565807,-6.07812 -4.748878,-14.55208 -3.748922,-14.55208 1.093965,0 3.593037,1.95865 5.162289,4.04594 2.11261,2.81003 4.878738,9.11756 4.878738,11.12487 0,0.37013 0.09266,0.73023 0.20592,0.80022 0.113256,0.07 0.160449,-0.67746 0.104872,-1.66103 -0.128006,-2.26539 0.387733,-12.70459 0.773232,-15.65116 1.014357,-7.75329 3.363339,-11.83633 8.100297,-14.08006 1.534785,-0.72698 2.085559,-0.84969 3.788287,-0.84399 2.789471,0.009 4.398126,0.82723 6.712141,3.41273 1.357143,1.51637 1.7465,2.13429 1.7465,2.77174 0,1.911 -2.28457,2.55061 -3.240506,0.90723 -0.453796,-0.78013 -0.458955,-0.90891 -0.07338,-1.83172 0.407565,-0.97544 0.40206,-1.00595 -0.318502,-1.76479 -2.344245,-2.46879 -6.042509,-2.61809 -9.628907,-0.38872 l -1.376426,0.85561 1.192975,0.17072 c 1.505127,0.21538 2.504594,0.73663 3.561174,1.85723 0.870996,0.92377 2.210657,3.36582 2.210657,4.02978 0,0.21272 0.190361,0.57713 0.423024,0.80979 0.232663,0.23267 0.484611,0.88219 0.559884,1.44339 0.326866,2.43697 -2.806689,2.89924 -3.449089,0.50883 -0.110532,-0.4113 0.0077,-0.70817 0.787352,-1.97617 0.566711,-0.92174 -0.559457,-3.27545 -2.127234,-4.44597 -0.558814,-0.41721 -1.126488,-0.54551 -2.413674,-0.54551 -1.488174,0 -1.773753,0.0869 -2.466782,0.75089 -0.982779,0.94157 -2.035378,4.02739 -2.570679,7.53628 -0.725419,4.7551 -1.196588,20.3755 -0.699074,23.17602 l 0.184066,1.03611 0.885269,-2.27585 c 2.153111,-5.53523 5.828689,-10.14857 8.513441,-10.68552 l 0.861121,-0.17223 -0.124892,1.29978 c -0.153323,1.59566 -2.091309,6.43237 -3.63317,9.06746 -0.628094,1.07343 -1.90185,2.94758 -2.830568,4.16477 -0.928718,1.2172 -1.688578,2.2737 -1.688578,2.34779 0,0.0741 0.803672,0.13508 1.785937,0.13555 3.202947,0.002 8.89455,1.25141 10.341046,2.27093 1.354864,0.95493 0.476971,1.03552 -11.280533,1.03552 -6.21362,0 -12.279757,-0.0346 -13.480304,-0.0768 z"
       id="path16022" />
    <path
       style="fill:#cfc8ab;stroke-width:1.11152"
       d="m 59.9812,235.60327 c -0.353473,-0.35348 -0.155857,-0.61709 0.84561,-1.128 1.559163,-0.79542 4.937077,-1.59945 7.487865,-1.78229 l 2.292155,-0.16431 -1.469692,-2.27711 c -2.96287,-4.59062 -5.49797,-10.20657 -7.302317,-16.17665 -0.952465,-3.15145 -1.698444,-7.02543 -1.408633,-7.31524 0.341064,-0.34107 2.376876,0.85332 3.738412,2.19327 1.643653,1.6176 2.654358,3.03262 3.821414,5.35009 0.943922,1.87439 2.666713,6.82951 2.666713,7.67004 0,0.3004 0.0893,0.60123 0.198438,0.6685 0.10914,0.0673 0.22744,-2.39625 0.262889,-5.47449 0.121844,-10.58061 0.968997,-16.5181 2.909442,-20.39159 1.422005,-2.83859 4.842612,-5.52083 7.958568,-6.24064 2.678934,-0.61885 5.93369,0.46866 7.693466,2.57063 0.461521,0.55127 1.192334,1.35949 1.624028,1.79605 0.946213,0.95688 1.054171,2.24379 0.255251,3.04271 -0.902638,0.90264 -2.16843,0.64985 -2.792911,-0.55776 -0.347837,-0.67264 -0.346097,-0.86829 0.01542,-1.73352 0.398632,-0.95406 0.391538,-0.99212 -0.325729,-1.74749 -2.326421,-2.45002 -5.950945,-2.65707 -9.386983,-0.53623 -1.541311,0.95136 -1.972276,1.46541 -1.019707,1.21631 0.896122,-0.23435 3.043326,0.67128 4.054635,1.71012 0.528526,0.54291 1.269271,1.70149 1.646101,2.57461 0.37683,0.87313 0.929701,2.04669 1.228602,2.60792 1.231955,2.31318 -0.457473,4.32108 -2.301286,2.7351 -0.867677,-0.74634 -0.930047,-1.82851 -0.153052,-2.65559 0.477573,-0.50835 0.519275,-0.72593 0.29489,-1.53859 -0.360024,-1.30389 -1.284221,-2.60495 -2.378773,-3.34877 -1.305594,-0.88723 -3.624741,-0.73616 -4.713618,0.30705 -1.276425,1.22289 -2.374918,5.03297 -2.948641,10.22726 -0.359291,3.25289 -0.67792,19.40082 -0.409915,20.77425 l 0.20565,1.05387 0.467853,-1.32292 c 1.864396,-5.27182 5.213169,-10.12124 7.955258,-11.52015 1.449366,-0.73941 1.830959,-0.67796 1.830959,0.29486 0,1.90004 -2.527037,7.7815 -4.79471,11.15927 -0.610555,0.90944 -1.688527,2.39766 -2.395492,3.30717 l -1.285392,1.65364 1.790401,0.001 c 3.946852,0.002 10.67268,1.67986 10.869113,2.71091 0.08308,0.43607 -0.695954,0.46302 -13.380839,0.46302 -7.407979,0 -13.548427,-0.0794 -13.645441,-0.17638 z"
       id="path16007" />
    <path
       style="fill:#bac4b4;stroke-width:1.11152"
       d="m 59.970176,235.56858 c -0.598397,-0.96822 4.041414,-2.56715 8.344499,-2.8756 l 2.292155,-0.16431 -1.469692,-2.27711 c -2.96287,-4.59062 -5.49797,-10.20657 -7.302317,-16.17665 -0.952465,-3.15145 -1.698444,-7.02543 -1.408633,-7.31524 0.341064,-0.34107 2.376876,0.85332 3.738412,2.19327 1.643653,1.6176 2.654358,3.03262 3.821414,5.35009 0.943922,1.87439 2.666713,6.82951 2.666713,7.67004 0,0.3004 0.0893,0.60123 0.198438,0.6685 0.10914,0.0673 0.22744,-2.39625 0.262889,-5.47449 0.121844,-10.58061 0.968997,-16.5181 2.909442,-20.39159 1.422005,-2.83859 4.842612,-5.52083 7.958568,-6.24064 2.676754,-0.61835 5.921028,0.46449 7.701792,2.57063 0.466101,0.55127 1.196805,1.38604 1.623788,1.85504 0.923734,1.01466 1.022611,2.20827 0.247165,2.98372 -1.501966,1.50197 -3.669176,-0.37925 -2.712507,-2.35456 0.396279,-0.81822 0.385659,-0.8672 -0.357775,-1.64983 -2.361222,-2.48572 -5.963656,-2.70394 -9.419923,-0.57061 -1.541311,0.95136 -1.972276,1.46541 -1.019707,1.21631 0.896122,-0.23435 3.043326,0.67128 4.054635,1.71012 0.528526,0.54291 1.271094,1.70149 1.650151,2.57461 0.379058,0.87313 0.945727,2.08873 1.259266,2.70135 0.683158,1.33481 0.459941,2.34755 -0.655403,2.97358 -0.656522,0.36849 -0.769609,0.35679 -1.451715,-0.15028 -0.941453,-0.69986 -1.090943,-1.79127 -0.377519,-2.75622 0.446729,-0.60424 0.494356,-0.88119 0.283107,-1.64627 -0.353101,-1.27883 -1.284293,-2.58333 -2.371405,-3.32209 -1.305594,-0.88723 -3.624741,-0.73616 -4.713618,0.30705 -1.276425,1.22289 -2.374918,5.03297 -2.948641,10.22726 -0.359291,3.25289 -0.67792,19.40082 -0.409915,20.77425 l 0.20565,1.05387 0.467853,-1.32292 c 1.864396,-5.27182 5.213169,-10.12124 7.955258,-11.52015 1.449366,-0.73941 1.830959,-0.67796 1.830959,0.29486 0,1.90004 -2.527037,7.7815 -4.79471,11.15927 -0.610555,0.90944 -1.688527,2.39766 -2.395492,3.30717 l -1.285392,1.65364 1.790401,0.001 c 3.946852,0.002 10.67268,1.67986 10.869113,2.71091 0.08308,0.43608 -0.69731,0.46302 -13.409321,0.46302 -7.423644,0 -13.556237,-0.095 -13.627983,-0.21107 z"
       id="path15997" />
    <path
       style="fill:#c4b0a8;stroke-width:1.11152"
       d="m 59.970176,235.56858 c -0.660016,-1.06792 5.385279,-2.93924 9.558072,-2.95868 0.997284,-0.005 1.515101,-0.33829 0.897874,-0.57851 -0.464167,-0.18065 -3.099832,-4.70742 -4.826936,-8.29028 -2.103905,-4.36453 -3.959763,-9.71468 -4.75696,-13.71358 -0.682881,-3.42548 -0.554101,-3.73977 1.127885,-2.75262 2.346395,1.37708 4.83002,4.45566 6.418963,7.95665 0.966664,2.12988 1.886115,4.83865 2.148514,6.32966 0.392638,2.23106 0.58116,0.96576 0.612125,-4.10839 0.06195,-10.1508 0.985508,-16.96586 2.778746,-20.50464 2.126679,-4.1968 7.114005,-7.13076 10.92405,-6.42644 2.088568,0.3861 3.588456,1.17277 4.722743,2.47701 0.530476,0.60996 1.311951,1.49276 1.736612,1.96176 0.919256,1.01526 1.016546,2.21012 0.242945,2.98372 -1.447597,1.4476 -3.713044,-0.40387 -2.754614,-2.25124 0.509768,-0.98258 0.504567,-1.00019 -0.618823,-2.09449 -2.464013,-2.40022 -7.042494,-2.17795 -10.252604,0.49772 l -0.79375,0.6616 0.827683,-0.15322 c 1.043226,-0.19311 3.081821,0.67213 4.252433,1.80487 0.46573,0.45067 1.162128,1.60543 1.54755,2.56614 0.385423,0.96071 0.808907,1.92534 0.941076,2.14362 1.025408,1.69349 0.921261,2.7123 -0.350214,3.42597 -0.656522,0.36849 -0.769609,0.35679 -1.451715,-0.15028 -0.962009,-0.71514 -1.091295,-1.79079 -0.337744,-2.81002 0.564994,-0.7642 0.567484,-0.80479 0.121075,-1.97369 -0.559125,-1.46405 -1.709909,-2.81454 -2.773865,-3.25525 -1.194257,-0.49467 -3.309895,-0.20947 -4.139718,0.55807 -1.320192,1.22111 -2.290378,4.30789 -2.901733,9.23228 -0.505334,4.07041 -0.837842,22.75417 -0.404947,22.75417 0.167472,0 0.304495,-0.13601 0.304495,-0.30223 0,-0.5641 1.928163,-4.84832 3.017194,-6.70395 1.854436,-3.15985 5.117705,-6.22299 6.629556,-6.22299 0.639021,0 0.501754,1.27798 -0.416911,3.88152 -1.461169,4.14104 -3.412988,7.6252 -6.385212,11.39817 l -1.30269,1.65364 h 1.745421 c 3.951833,0 10.755039,1.68484 10.950728,2.71198 0.08308,0.43608 -0.69731,0.46302 -13.409321,0.46302 -7.423644,0 -13.556237,-0.095 -13.627983,-0.21107 z"
       id="path15989" />
    <path
       style="fill:#d1b883;stroke-width:1.11152"
       d="m 59.970176,235.56858 c -0.18474,-0.29891 0.133902,-0.71664 0.823725,-1.07988 1.247824,-0.65707 4.036638,-1.3659 4.755612,-1.20873 0.49207,0.10756 0.621586,0.0792 0.389091,-0.0852 -0.349952,-0.24746 1.872151,-0.59012 3.826894,-0.59012 0.806135,0 1.217152,-0.35666 0.660624,-0.57326 -0.464167,-0.18065 -3.099832,-4.70742 -4.826936,-8.29028 -2.103905,-4.36453 -3.959763,-9.71468 -4.75696,-13.71358 -0.682881,-3.42548 -0.554101,-3.73977 1.127885,-2.75262 2.346395,1.37708 4.83002,4.45566 6.418963,7.95665 0.966664,2.12988 1.886115,4.83865 2.148514,6.32966 0.392638,2.23106 0.58116,0.96576 0.612125,-4.10839 0.06195,-10.1508 0.985508,-16.96586 2.778746,-20.50464 2.126679,-4.1968 7.114005,-7.13076 10.92405,-6.42644 2.088568,0.3861 3.588456,1.17277 4.722743,2.47701 0.530476,0.60996 1.311951,1.49276 1.736612,1.96176 0.919256,1.01526 1.016546,2.21012 0.242945,2.98372 -0.693467,0.69347 -1.698094,0.67233 -2.370943,-0.0499 -0.566331,-0.60789 -0.741235,-2.17543 -0.27489,-2.46365 0.490877,-0.30338 0.269454,-0.86095 -0.727604,-1.83219 -2.464013,-2.40022 -7.042494,-2.17795 -10.252604,0.49772 l -0.79375,0.6616 0.827683,-0.15322 c 0.997423,-0.18464 3.046142,0.65082 4.169152,1.70017 0.707007,0.66063 2.279207,3.62946 2.279207,4.3039 0,0.16214 0.238125,0.59753 0.529166,0.96753 0.713348,0.90687 0.666047,1.81145 -0.136696,2.6142 -0.489105,0.4891 -0.822725,0.61807 -1.256771,0.48584 -1.546051,-0.471 -1.967874,-1.85406 -0.957309,-3.13878 0.547449,-0.69597 0.549623,-0.7377 0.09979,-1.91558 -0.562852,-1.47381 -1.711438,-2.82416 -2.777939,-3.26592 -1.194257,-0.49467 -3.309895,-0.20947 -4.139718,0.55807 -1.320192,1.22111 -2.290378,4.30789 -2.901733,9.23228 -0.505334,4.07041 -0.837842,22.75417 -0.404947,22.75417 0.167472,0 0.304495,-0.13601 0.304495,-0.30223 0,-0.5641 1.928163,-4.84832 3.017194,-6.70395 1.854436,-3.15985 5.117705,-6.22299 6.629556,-6.22299 1.371881,0 -1.425956,7.58159 -4.442588,12.03854 -1.469418,2.17101 -4.403838,6.00922 -4.91648,6.43074 -0.360857,0.29672 -0.34145,0.30754 0.137869,0.0769 0.306814,-0.14764 0.756043,-0.57092 0.998287,-0.94063 0.394311,-0.6018 0.61301,-0.67172 2.08799,-0.66759 3.123888,0.009 10.158402,1.59193 10.656826,2.39839 0.09177,0.1485 -0.2752,0.0853 -0.815499,-0.14046 -1.433056,-0.59877 -1.491185,-0.4811 -0.123989,0.251 l 1.190625,0.63754 -13.544281,0.012 c -7.449354,0.007 -13.602982,-0.083 -13.674728,-0.19912 z"
       id="path15981" />
    <path
       style="fill:#b5afa6;stroke-width:1.11152"
       d="m 59.970176,235.56858 c -0.18474,-0.29891 0.133902,-0.71664 0.823725,-1.07988 1.247824,-0.65707 4.036638,-1.3659 4.755612,-1.20873 0.49207,0.10756 0.621586,0.0792 0.389091,-0.0852 -0.349952,-0.24746 1.872151,-0.59012 3.826894,-0.59012 0.806135,0 1.217152,-0.35666 0.660624,-0.57326 -0.464167,-0.18065 -3.099832,-4.70742 -4.826936,-8.29028 -2.103905,-4.36453 -3.959763,-9.71468 -4.75696,-13.71358 -0.682881,-3.42548 -0.554101,-3.73977 1.127885,-2.75262 2.346395,1.37708 4.83002,4.45566 6.418963,7.95665 0.966664,2.12988 1.886115,4.83865 2.148514,6.32966 0.392638,2.23106 0.58116,0.96576 0.612125,-4.10839 0.06195,-10.1508 0.985508,-16.96586 2.778746,-20.50464 2.126679,-4.1968 7.114005,-7.13076 10.92405,-6.42644 2.088568,0.3861 3.588456,1.17277 4.722743,2.47701 0.530476,0.60996 1.311951,1.49276 1.736612,1.96176 0.943597,1.04214 1.019027,2.2039 0.193055,2.97341 -0.760905,0.70889 -1.575193,0.68292 -2.285239,-0.0729 -0.597567,-0.63608 -0.789149,-2.13465 -0.310704,-2.43034 0.490877,-0.30338 0.269454,-0.86095 -0.727604,-1.83219 -2.464013,-2.40022 -7.042494,-2.17795 -10.252604,0.49772 l -0.79375,0.6616 0.827683,-0.15322 c 0.997423,-0.18464 3.046142,0.65082 4.169152,1.70017 0.718011,0.67091 2.279207,3.63328 2.279207,4.3248 0,0.17363 0.177179,0.51148 0.393732,0.75077 0.216553,0.23929 0.467983,0.80632 0.558732,1.26007 0.216305,1.08152 -0.887852,2.31882 -1.816765,2.03583 -1.546051,-0.471 -1.967874,-1.85406 -0.957309,-3.13878 0.547449,-0.69597 0.549623,-0.7377 0.09979,-1.91558 -0.562852,-1.47381 -1.711438,-2.82416 -2.777939,-3.26592 -1.194257,-0.49467 -3.309895,-0.20947 -4.139718,0.55807 -1.320192,1.22111 -2.290378,4.30789 -2.901733,9.23228 -0.505334,4.07041 -0.837842,22.75417 -0.404947,22.75417 0.167472,0 0.304495,-0.13601 0.304495,-0.30223 0,-0.5641 1.928163,-4.84832 3.017194,-6.70395 1.854436,-3.15985 5.117705,-6.22299 6.629556,-6.22299 1.371881,0 -1.425956,7.58159 -4.442588,12.03854 -1.469418,2.17101 -4.403838,6.00922 -4.91648,6.43074 -0.360857,0.29672 -0.34145,0.30754 0.137869,0.0769 0.306814,-0.14764 0.756043,-0.57092 0.998287,-0.94063 0.394311,-0.6018 0.61301,-0.67172 2.08799,-0.66759 3.123888,0.009 10.158402,1.59193 10.656826,2.39839 0.09177,0.1485 -0.2752,0.0853 -0.815499,-0.14046 -1.433056,-0.59877 -1.491185,-0.4811 -0.123989,0.251 l 1.190625,0.63754 -13.544281,0.012 c -7.449354,0.007 -13.602982,-0.083 -13.674728,-0.19912 z"
       id="path15970" />
    <path
       style="fill:#d1b77c;stroke-width:1.11152"
       d="m 59.970176,235.56858 c -0.320642,-0.5188 0.662085,-1.17101 2.693192,-1.78739 1.552485,-0.47113 2.082665,-0.4623 0.845609,0.0141 -1.256817,0.484 -0.697091,0.48222 0.901947,-0.003 0.714351,-0.21671 1.726383,-0.41091 2.248958,-0.43156 l 0.950137,-0.0376 -1.058333,-0.20607 c -0.748104,-0.14566 -0.399095,-0.17958 1.190625,-0.11571 1.589719,0.0639 1.938728,0.0299 1.190625,-0.11571 l -1.058334,-0.20607 1.389063,-0.0376 c 1.218086,-0.0329 1.826228,-0.35247 1.162457,-0.61081 -0.780248,-0.30367 -4.875203,-7.93006 -6.649974,-12.38482 -1.982059,-4.97507 -3.806604,-12.18331 -3.229823,-12.76009 0.650435,-0.65044 4.081202,2.18691 5.931452,4.90549 1.754207,2.57747 3.623002,7.14745 4.047826,9.89862 0.398722,2.58214 0.656576,0.82943 0.661719,-4.49791 0.0091,-9.40263 0.962158,-16.51313 2.686423,-20.04219 1.07244,-2.19497 3.519923,-4.67003 5.642523,-5.70611 1.235083,-0.60287 2.038736,-0.79576 3.620138,-0.86888 3.437942,-0.15899 4.723133,0.50867 7.955383,4.13278 1.164727,1.30594 1.304266,2.39543 0.41313,3.22565 -0.760905,0.70889 -1.575193,0.68292 -2.285239,-0.0729 -0.597567,-0.63608 -0.789149,-2.13465 -0.310704,-2.43034 0.908419,-0.56144 -0.913939,-2.51188 -2.991735,-3.20201 -2.413382,-0.8016 -5.646953,-0.0523 -7.988473,1.85119 l -0.79375,0.64526 0.962567,-0.0876 c 1.176143,-0.10703 3.240505,0.80848 4.248577,1.88417 0.68221,0.72797 2.064898,3.4876 2.064898,4.12122 0,0.16629 0.177179,0.49813 0.393732,0.73742 0.216553,0.23929 0.467983,0.80632 0.558732,1.26007 0.216305,1.08152 -0.887852,2.31882 -1.816765,2.03583 -1.539908,-0.46913 -1.968209,-1.85363 -0.96713,-3.1263 0.529208,-0.67278 0.533831,-0.74602 0.12333,-1.95391 -0.786571,-2.31446 -2.330015,-3.50129 -4.555453,-3.50289 -1.514013,-10e-4 -2.673831,0.72353 -3.397287,2.12254 -0.651043,1.25898 -1.455211,4.58234 -1.866092,7.71195 -0.519912,3.96007 -0.866701,22.97285 -0.419021,22.97285 0.167358,0 0.304288,-0.13437 0.304288,-0.29859 0,-0.75335 2.307155,-5.60208 3.577506,-7.5185 2.020449,-3.04801 4.730261,-5.41208 6.203578,-5.41208 0.83812,0 -0.480162,4.4441 -2.511521,8.46667 -1.270239,2.51537 -5.303529,8.3484 -6.740397,9.7481 -0.562789,0.54823 -0.578245,0.60099 -0.103615,0.35366 0.306814,-0.15988 0.756043,-0.59318 0.998287,-0.96289 0.409664,-0.62523 0.574071,-0.66919 2.352573,-0.62908 l 1.91213,0.0431 -1.455208,0.17833 c -1.351207,0.16558 -1.377483,0.18141 -0.367658,0.22145 0.598153,0.0237 1.610185,0.0889 2.248959,0.14485 0.915801,0.0802 0.993551,0.0596 0.367657,-0.0975 -0.733179,-0.18398 -0.743274,-0.20149 -0.132292,-0.22942 1.497993,-0.0685 7.475805,1.54426 7.826344,2.11144 0.08755,0.14165 -0.267286,0.0794 -0.788514,-0.13842 -1.399345,-0.58468 -4.946654,-1.54598 -5.108314,-1.38432 -0.07693,0.0769 0.201598,0.2174 0.618951,0.31215 1.972642,0.44786 4.262174,1.20149 4.734253,1.55835 0.465576,0.35194 -0.938416,0.39588 -12.8895,0.40338 -7.376594,0.005 -13.470691,-0.0866 -13.542437,-0.20266 z"
       id="path15956" />
    <path
       style="fill:#b2a49a;stroke-width:1.11152"
       d="m 59.970176,235.56905 c -0.320642,-0.5188 0.662085,-1.17101 2.693192,-1.78739 1.552485,-0.47113 2.082665,-0.4623 0.845609,0.0141 -1.256817,0.484 -0.697091,0.48222 0.901947,-0.003 0.714351,-0.21671 1.726383,-0.41091 2.248958,-0.43156 l 0.950137,-0.0376 -1.058333,-0.20607 c -0.748104,-0.14566 -0.399095,-0.17958 1.190625,-0.11571 1.589719,0.0639 1.938728,0.0299 1.190625,-0.11571 l -1.058334,-0.20607 1.389063,-0.0376 c 1.218086,-0.0329 1.826228,-0.35247 1.162457,-0.61081 -0.780248,-0.30367 -4.875203,-7.93006 -6.649974,-12.38482 -1.982059,-4.97507 -3.806604,-12.18331 -3.229823,-12.76009 0.650435,-0.65044 4.081202,2.18691 5.931452,4.90549 1.754207,2.57747 3.623002,7.14745 4.047826,9.89862 0.398722,2.58214 0.656576,0.82943 0.661719,-4.49791 0.0091,-9.40263 0.962158,-16.51313 2.686423,-20.04219 1.07244,-2.19497 3.519923,-4.67003 5.642523,-5.70611 1.235083,-0.60287 2.038736,-0.79576 3.620138,-0.86888 3.437942,-0.15899 4.723133,0.50867 7.955383,4.13278 1.164727,1.30594 1.304266,2.39543 0.41313,3.22565 -0.760905,0.70889 -1.575193,0.68292 -2.285239,-0.0729 -0.597567,-0.63608 -0.789149,-2.13465 -0.310704,-2.43034 0.908419,-0.56144 -0.913939,-2.51188 -2.991735,-3.20201 -2.413382,-0.8016 -5.646953,-0.0523 -7.988473,1.85119 l -0.79375,0.64526 0.962567,-0.0876 c 1.176143,-0.10703 3.240505,0.80848 4.248577,1.88417 0.68221,0.72797 2.064898,3.4876 2.064898,4.12122 0,0.16629 0.177179,0.49813 0.393732,0.73742 0.216553,0.23929 0.467983,0.80632 0.558732,1.26007 0.216305,1.08152 -0.887852,2.31882 -1.816765,2.03583 -1.539908,-0.46913 -1.968209,-1.85363 -0.96713,-3.1263 0.529208,-0.67278 0.533831,-0.74602 0.12333,-1.95391 -0.786571,-2.31446 -2.330015,-3.50129 -4.555453,-3.50289 -1.514013,-0.001 -2.673831,0.72353 -3.397287,2.12254 -0.651043,1.25898 -1.455211,4.58234 -1.866092,7.71195 -0.519912,3.96007 -0.866701,22.97285 -0.419021,22.97285 0.167358,0 0.304288,-0.13437 0.304288,-0.29859 0,-0.75335 2.307155,-5.60208 3.577506,-7.5185 2.020449,-3.04801 4.730261,-5.41208 6.203578,-5.41208 0.83812,0 -0.480162,4.4441 -2.511521,8.46667 -1.270239,2.51537 -5.303529,8.3484 -6.740397,9.7481 -0.562789,0.54823 -0.578245,0.60099 -0.103615,0.35366 0.306814,-0.15988 0.756043,-0.59318 0.998287,-0.96289 0.409664,-0.62523 0.574071,-0.66919 2.352573,-0.62908 l 1.91213,0.0431 -1.455208,0.17833 c -1.351207,0.16558 -1.377483,0.18141 -0.367658,0.22145 0.598153,0.0237 1.610185,0.0889 2.248959,0.14485 0.915801,0.0802 0.993551,0.0596 0.367657,-0.0975 -0.733179,-0.18398 -0.743274,-0.20149 -0.132292,-0.22942 1.497993,-0.0685 7.475805,1.54426 7.826344,2.11144 0.08755,0.14165 -0.267286,0.0794 -0.788514,-0.13842 -1.399345,-0.58468 -4.946654,-1.54598 -5.108314,-1.38432 -0.07693,0.0769 0.201598,0.2174 0.618951,0.31215 1.972642,0.44786 4.262174,1.20149 4.734253,1.55835 0.465576,0.35194 -0.938416,0.39588 -12.8895,0.40338 -7.376594,0.005 -13.470691,-0.0866 -13.542437,-0.20266 z"
       id="path15940" />
    <path
       style="fill:#c3ab75;stroke-width:1.11152"
       d="m 75.481373,232.6765 c 0.545703,-0.0571 1.438671,-0.0571 1.984375,0 0.545703,0.0571 0.09922,0.10378 -0.992188,0.10378 -1.091406,0 -1.53789,-0.0467 -0.992187,-0.10378 z"
       id="path15920" />
    <path
       style="fill:#c3ab75;stroke-width:1.11152"
       d="m 71.768321,233.66048 c -0.477829,-0.29133 -0.945395,-0.73737 -1.039034,-0.99119 -0.09364,-0.25383 -0.251016,-0.52104 -0.349726,-0.5938 -0.09871,-0.0728 -0.783277,-1.09933 -1.521261,-2.28127 -2.75847,-4.4179 -5.396905,-10.30504 -6.927605,-15.45757 -1.049683,-3.53337 -1.715891,-7.11865 -1.38437,-7.45017 0.69479,-0.6948 4.389681,2.47632 6.170139,5.29548 1.782182,2.82188 3.400341,6.86124 3.809139,9.50863 0.398722,2.58214 0.656576,0.82943 0.661719,-4.49791 0.0091,-9.40263 0.962158,-16.51313 2.686423,-20.04219 1.07244,-2.19497 3.519923,-4.67003 5.642523,-5.70611 2.073603,-1.01216 4.998231,-1.20985 7.039486,-0.47583 2.022804,0.7274 5.528222,4.30807 5.528222,5.64692 0,0.90446 -0.884511,1.85794 -1.723561,1.85794 -1.253962,0 -2.269737,-2.25087 -1.405699,-3.11491 0.834651,-0.83465 -1.747605,-3.06111 -3.929827,-3.38836 -2.331941,-0.34969 -5.073268,0.46533 -7.096121,2.10974 l -0.79375,0.64526 0.962567,-0.0876 c 1.176143,-0.10703 3.240505,0.80848 4.248577,1.88417 0.68221,0.72797 2.064898,3.4876 2.064898,4.12122 0,0.16629 0.177179,0.49813 0.393732,0.73742 0.216553,0.23929 0.467983,0.80632 0.558732,1.26007 0.216305,1.08152 -0.887852,2.31882 -1.816765,2.03583 -1.539908,-0.46913 -1.968209,-1.85363 -0.96713,-3.1263 0.529208,-0.67278 0.533831,-0.74602 0.12333,-1.95391 -0.786571,-2.31446 -2.330015,-3.50129 -4.555453,-3.50289 -1.514013,-0.001 -2.673831,0.72353 -3.397287,2.12254 -0.627697,1.21383 -1.42319,4.44409 -1.856032,7.53679 -0.440081,3.14441 -0.886546,22.16449 -0.541181,23.05511 0.143981,0.3713 0.338581,0.066 0.804496,-1.26216 1.376579,-3.92413 3.767286,-7.84892 6.078961,-9.97975 1.128336,-1.04006 2.622854,-1.89436 3.314015,-1.89436 0.823052,0 -0.468463,4.4131 -2.438482,8.33227 -1.653036,3.28857 -6.602361,10.19164 -7.304227,10.18758 -0.09387,-5.5e-4 -0.561618,-0.23936 -1.039448,-0.53069 z"
       id="path15919" />
    <path
       style="fill:#c3ab75;stroke-width:1.11152"
       d="m 84.940226,234.44073 c -1.091406,-0.4095 -1.854186,-0.75202 -1.695066,-0.76115 0.447712,-0.0257 3.36859,1.02193 3.659013,1.31235 0.315893,0.3159 0.439543,0.3506 -1.963947,-0.5512 z"
       id="path15917" />
    <path
       style="fill:#c3ab75;stroke-width:1.11152"
       d="m 76.13693,235.5887 c 0.469697,-0.0584 1.303134,-0.0594 1.852083,-0.002 0.548949,0.0573 0.164651,0.1051 -0.853995,0.10627 -1.018645,0.001 -1.467785,-0.0457 -0.998088,-0.10413 z"
       id="path15916" />
    <path
       style="fill:#a8998f;stroke-width:1.11152"
       d="m 75.481373,232.6765 c 0.545703,-0.0571 1.438671,-0.0571 1.984375,0 0.545703,0.0571 0.09922,0.10378 -0.992188,0.10378 -1.091406,0 -1.53789,-0.0467 -0.992187,-0.10378 z"
       id="path15900" />
    <path
       style="fill:#a8998f;stroke-width:1.11152"
       d="m 71.768321,233.66048 c -0.477829,-0.29133 -0.945395,-0.73737 -1.039034,-0.99119 -0.09364,-0.25383 -0.251016,-0.52104 -0.349726,-0.5938 -0.09871,-0.0728 -0.783277,-1.09933 -1.521261,-2.28127 -2.75847,-4.4179 -5.396905,-10.30504 -6.927605,-15.45757 -1.049683,-3.53337 -1.715891,-7.11865 -1.38437,-7.45017 0.69479,-0.6948 4.389681,2.47632 6.170139,5.29548 1.782182,2.82188 3.400341,6.86124 3.809139,9.50863 0.398722,2.58214 0.656576,0.82943 0.661719,-4.49791 0.0091,-9.40263 0.962158,-16.51313 2.686423,-20.04219 1.07244,-2.19497 3.519923,-4.67003 5.642523,-5.70611 2.073603,-1.01216 4.998231,-1.20985 7.039486,-0.47583 2.01441,0.72438 5.528222,4.30798 5.528222,5.63802 0,0.82754 -1.025277,1.86684 -1.841644,1.86684 -1.152339,0 -2.102928,-2.2996 -1.287616,-3.11491 0.834651,-0.83465 -1.747605,-3.06111 -3.929827,-3.38836 -2.331941,-0.34969 -5.073268,0.46533 -7.096121,2.10974 l -0.79375,0.64526 0.962567,-0.0876 c 1.262547,-0.11489 3.301559,0.83552 4.346974,2.02618 0.444275,0.50601 1.079792,1.6262 1.412259,2.48933 0.332467,0.86312 0.835225,2.00922 1.117241,2.54688 1.136545,2.16681 -0.689872,3.9193 -2.481228,2.38079 -0.623541,-0.53552 -0.584374,-1.67751 0.0868,-2.53077 0.529208,-0.67278 0.533831,-0.74602 0.12333,-1.95391 -0.786571,-2.31446 -2.330015,-3.50129 -4.555453,-3.50289 -1.514013,-0.001 -2.673831,0.72353 -3.397287,2.12254 -0.627697,1.21383 -1.42319,4.44409 -1.856032,7.53679 -0.440081,3.14441 -0.886546,22.16449 -0.541181,23.05511 0.143981,0.3713 0.338581,0.066 0.804496,-1.26216 1.376579,-3.92413 3.767286,-7.84892 6.078961,-9.97975 1.128336,-1.04006 2.622854,-1.89436 3.314015,-1.89436 0.823052,0 -0.468463,4.4131 -2.438482,8.33227 -1.653036,3.28857 -6.602361,10.19164 -7.304227,10.18758 -0.09387,-5.5e-4 -0.561618,-0.23936 -1.039448,-0.53069 z"
       id="path15899" />
    <path
       style="fill:#a8998f;stroke-width:1.11152"
       d="m 84.940226,234.44073 c -1.091406,-0.4095 -1.854186,-0.75202 -1.695066,-0.76115 0.447712,-0.0257 3.36859,1.02193 3.659013,1.31235 0.315893,0.3159 0.439543,0.3506 -1.963947,-0.5512 z"
       id="path15897" />
    <path
       style="fill:#a8998f;stroke-width:1.11152"
       d="m 76.13693,235.5887 c 0.469697,-0.0584 1.303134,-0.0594 1.852083,-0.002 0.548949,0.0573 0.164651,0.1051 -0.853995,0.10627 -1.018645,0.001 -1.467785,-0.0457 -0.998088,-0.10413 z"
       id="path15896" />
    <path
       style="fill:#b5a172;stroke-width:1.11152"
       d="m 71.380331,233.36795 c -0.400182,-0.29856 -0.727604,-0.70159 -0.727604,-0.89561 0,-0.19401 -0.101972,-0.39244 -0.226605,-0.44095 -0.780248,-0.30367 -4.875203,-7.93006 -6.649974,-12.38482 -1.982059,-4.97507 -3.806604,-12.18331 -3.229823,-12.76009 0.69479,-0.6948 4.389681,2.47632 6.170139,5.29548 1.782182,2.82188 3.400341,6.86124 3.809139,9.50863 0.398722,2.58214 0.656576,0.82943 0.661719,-4.49791 0.0091,-9.40263 0.962158,-16.51313 2.686423,-20.04219 1.054492,-2.15823 3.498516,-4.62347 5.642523,-5.69149 2.065332,-1.02883 4.977971,-1.23176 7.039486,-0.49045 2.01441,0.72438 5.528222,4.30798 5.528222,5.63802 0,0.82754 -1.025277,1.86684 -1.841644,1.86684 -1.152339,0 -2.102928,-2.2996 -1.287616,-3.11491 0.834651,-0.83465 -1.747605,-3.06111 -3.929827,-3.38836 -2.347853,-0.35208 -5.128618,0.48214 -7.096121,2.1288 l -0.79375,0.66432 0.964233,-0.10588 c 1.269233,-0.13938 3.284771,0.79846 4.368382,2.03262 0.456965,0.52046 1.083837,1.64065 1.393048,2.48932 0.309211,0.84868 0.801587,1.98295 1.094168,2.52061 1.171159,2.15217 -0.663032,3.92585 -2.462018,2.38079 -0.623541,-0.53552 -0.584374,-1.67751 0.0868,-2.53077 0.529208,-0.67278 0.533831,-0.74602 0.12333,-1.95391 -0.786571,-2.31446 -2.330015,-3.50129 -4.555453,-3.50289 -1.514013,-0.001 -2.673831,0.72353 -3.397287,2.12254 -0.626296,1.21112 -1.422533,4.44045 -1.858303,7.53679 -0.441269,3.13542 -0.885108,22.16242 -0.537865,23.05784 0.142496,0.36744 0.339791,0.0568 0.803451,-1.26489 1.376579,-3.92413 3.767286,-7.84892 6.078961,-9.97975 1.128336,-1.04006 2.622854,-1.89436 3.314015,-1.89436 0.498537,0 0.283207,1.51664 -0.551094,3.88152 -1.508544,4.27609 -3.42631,7.62435 -6.848341,11.95664 -2.070321,2.62103 -2.478793,2.82235 -3.770712,1.85847 z"
       id="path15888" />
    <path
       style="fill:#87988a;stroke-width:1.11152"
       d="m 71.380331,233.36795 c -0.400182,-0.29856 -0.727604,-0.70159 -0.727604,-0.89561 0,-0.19401 -0.101972,-0.39244 -0.226605,-0.44095 -0.780248,-0.30367 -4.875203,-7.93006 -6.649974,-12.38482 -1.982059,-4.97507 -3.806604,-12.18331 -3.229823,-12.76009 0.69479,-0.6948 4.389681,2.47632 6.170139,5.29548 1.782182,2.82188 3.400341,6.86124 3.809139,9.50863 0.398722,2.58214 0.656576,0.82943 0.661719,-4.49791 0.0091,-9.40263 0.962158,-16.51313 2.686423,-20.04219 1.054492,-2.15823 3.498516,-4.62347 5.642523,-5.69149 2.065332,-1.02883 4.977971,-1.23176 7.039486,-0.49045 1.994776,0.71732 5.528222,4.33374 5.528222,5.65805 0,0.80739 -1.036508,1.84681 -1.841644,1.84681 -1.152339,0 -2.102928,-2.2996 -1.287616,-3.11491 0.834651,-0.83465 -1.747605,-3.06111 -3.929827,-3.38836 -2.347853,-0.35208 -5.128618,0.48214 -7.096121,2.1288 l -0.79375,0.66432 0.964233,-0.10588 c 1.269233,-0.13938 3.284771,0.79846 4.368382,2.03262 0.784437,0.89343 1.943427,3.46189 1.943427,4.30687 0,0.21283 0.104617,0.38695 0.232484,0.38695 0.127866,0 0.371367,0.3353 0.541114,0.7451 0.557436,1.34577 -0.551424,2.94627 -1.746619,2.52103 -1.453799,-0.51725 -1.827744,-1.86769 -0.85841,-3.1 0.529208,-0.67278 0.533831,-0.74602 0.12333,-1.95391 -0.786571,-2.31446 -2.330015,-3.50129 -4.555453,-3.50289 -1.514013,-0.001 -2.673831,0.72353 -3.397287,2.12254 -0.626296,1.21112 -1.422533,4.44045 -1.858303,7.53679 -0.441269,3.13542 -0.885108,22.16242 -0.537865,23.05784 0.142496,0.36744 0.339791,0.0568 0.803451,-1.26489 1.376579,-3.92413 3.767286,-7.84892 6.078961,-9.97975 1.128336,-1.04006 2.622854,-1.89436 3.314015,-1.89436 0.498537,0 0.283207,1.51664 -0.551094,3.88152 -1.508544,4.27609 -3.42631,7.62435 -6.848341,11.95664 -2.070321,2.62103 -2.478793,2.82235 -3.770712,1.85847 z"
       id="path15879" />
    <path
       style="fill:#df7453;stroke-width:1.11152"
       d="m 71.843352,233.62954 c -1.265467,-0.62709 -5.395168,-7.60175 -7.499868,-12.66655 -2.392771,-5.75802 -4.516273,-13.67849 -3.787928,-14.12863 0.383221,-0.23684 2.237078,0.89702 3.56676,2.18152 2.607367,2.51878 5.282694,7.6207 6.19105,11.80651 0.237835,1.09598 0.53055,1.99268 0.650478,1.99268 0.119927,0 0.219068,-2.35148 0.220313,-5.22552 0.0033,-7.62921 0.740102,-15.4987 1.477598,-15.7817 0.204722,-0.0786 0.372222,-0.008 0.372222,0.15754 0,0.16521 0.05559,0.24478 0.123543,0.17683 0.06795,-0.0679 0.01865,-0.47474 -0.10955,-0.90399 -0.224356,-0.75119 -0.234728,-0.75566 -0.276723,-0.11899 -0.024,0.3638 -0.101106,0.52036 -0.171354,0.34791 -0.256361,-0.62933 0.988139,-4.00644 2.070308,-5.61805 2.097291,-3.12337 5.137375,-5.05422 8.271169,-5.25328 1.026611,-0.0652 2.344645,0.0108 2.928966,0.16883 1.517087,0.41038 3.483268,1.73194 4.080011,2.74235 0.281095,0.47595 0.643983,0.98443 0.806418,1.12995 0.162435,0.14552 0.527508,0.47294 0.811273,0.7276 0.75339,0.67612 0.667267,1.89308 -0.181202,2.56049 -0.901334,0.70899 -1.456372,0.6926 -2.167156,-0.064 -0.638367,-0.67951 -0.745803,-1.76761 -0.252518,-2.55748 0.431793,-0.69141 -0.337916,-1.74663 -1.933707,-2.65099 -0.99192,-0.56213 -1.504895,-0.66146 -3.416145,-0.66146 -2.105119,0 -2.3606,0.0628 -3.994495,0.98255 -2.461214,1.38539 -2.682068,1.72191 -1.150227,1.75266 2.44028,0.049 4.676965,2.0536 5.588541,5.0087 0.257294,0.83408 0.542523,1.57604 0.633843,1.6488 0.451752,0.35994 0.768695,1.3859 0.616037,1.99414 -0.212917,0.84833 -1.184389,1.51817 -1.854856,1.27894 -1.472108,-0.52526 -1.851188,-1.86786 -0.877046,-3.10628 0.480588,-0.61097 0.51133,-0.81336 0.245771,-1.61801 -0.166939,-0.50583 -0.217132,-1.05948 -0.111541,-1.23033 0.128879,-0.20853 0.0768,-0.23945 -0.158443,-0.0941 -0.25657,0.15857 -0.303763,0.095 -0.176203,-0.23744 0.09907,-0.25818 0.06642,-0.3874 -0.0757,-0.29956 -0.137461,0.085 -0.440726,-0.13673 -0.673922,-0.49263 -0.885417,-1.35132 -3.759404,-1.94833 -5.369927,-1.1155 -1.447863,0.74872 -2.637228,4.02713 -3.385529,9.33201 -0.485927,3.44484 -0.866649,23.36997 -0.446545,23.36997 0.142213,0 0.407592,-0.50601 0.58973,-1.12448 0.524521,-1.78105 2.27195,-5.36097 3.569515,-7.31279 1.813764,-2.72829 4.559888,-5.05648 5.96417,-5.05648 1.115676,0 -1.488642,7.1801 -4.081736,11.25334 -1.704908,2.67807 -5.21568,7.00399 -5.668799,6.985 -0.235084,-0.01 -0.665549,-0.1359 -0.956591,-0.28012 z m 14.009687,-42.013 c -0.255381,-0.24617 -1.513568,-0.4 -2.235729,-0.27335 -0.218281,0.0383 0.198437,0.15125 0.926041,0.25105 0.727604,0.0998 1.376495,0.20015 1.441979,0.22302 0.06548,0.0229 0.006,-0.0675 -0.132291,-0.20072 z"
       id="path15871" />
    <path
       style="fill:#799283;stroke-width:1.11152"
       d="m 71.843352,233.62954 c -1.265467,-0.62709 -5.395168,-7.60175 -7.499868,-12.66655 -2.392771,-5.75802 -4.516273,-13.67849 -3.787928,-14.12863 0.383221,-0.23684 2.237078,0.89702 3.56676,2.18152 2.607367,2.51878 5.282694,7.6207 6.19105,11.80651 0.237835,1.09598 0.53055,1.99268 0.650478,1.99268 0.119927,0 0.219068,-2.35148 0.220313,-5.22552 0.0033,-7.62921 0.740102,-15.4987 1.477598,-15.7817 0.204722,-0.0786 0.372222,-0.008 0.372222,0.15754 0,0.16521 0.05559,0.24478 0.123543,0.17683 0.06795,-0.0679 0.01865,-0.47474 -0.10955,-0.90399 -0.224356,-0.75119 -0.234728,-0.75566 -0.276723,-0.11899 -0.024,0.3638 -0.101106,0.52036 -0.171354,0.34791 -0.256361,-0.62933 0.988139,-4.00644 2.070308,-5.61805 2.097291,-3.12337 5.137375,-5.05422 8.271169,-5.25328 1.026611,-0.0652 2.344645,0.0108 2.928966,0.16883 1.506751,0.40759 3.477338,1.72676 4.096546,2.74235 0.667329,1.09451 0.661703,1.20667 -0.06572,1.30998 -0.420057,0.0597 -0.754111,-0.14912 -1.134719,-0.7092 -0.296674,-0.43656 -1.07058,-1.0914 -1.719792,-1.45521 -1.001289,-0.56109 -1.521613,-0.66146 -3.429343,-0.66146 -2.105119,0 -2.3606,0.0628 -3.994495,0.98255 -2.449446,1.37876 -2.6802,1.72195 -1.178086,1.7521 2.350383,0.0472 4.419257,1.75213 5.442536,4.48518 0.663967,1.77336 0.657194,1.9083 -0.09578,1.9083 -0.494133,0 -0.684108,-0.21538 -0.938293,-1.06378 -0.175294,-0.58507 -0.235275,-1.19878 -0.133292,-1.36379 0.122173,-0.19768 0.06589,-0.22615 -0.165003,-0.0834 -0.25657,0.15857 -0.303763,0.095 -0.176203,-0.23744 0.09907,-0.25818 0.06642,-0.3874 -0.0757,-0.29956 -0.137461,0.085 -0.440726,-0.13673 -0.673922,-0.49263 -0.885417,-1.35132 -3.759404,-1.94833 -5.369927,-1.1155 -1.447863,0.74872 -2.637228,4.02713 -3.385529,9.33201 -0.485927,3.44484 -0.866649,23.36997 -0.446545,23.36997 0.142213,0 0.407592,-0.50601 0.58973,-1.12448 0.524521,-1.78105 2.27195,-5.36097 3.569515,-7.31279 1.813764,-2.72829 4.559888,-5.05648 5.96417,-5.05648 1.115676,0 -1.488642,7.1801 -4.081736,11.25334 -1.704908,2.67807 -5.21568,7.00399 -5.668799,6.985 -0.235084,-0.01 -0.665549,-0.1359 -0.956591,-0.28012 z m 14.009687,-42.013 c -0.255381,-0.24617 -1.513568,-0.4 -2.235729,-0.27335 -0.218281,0.0383 0.198437,0.15125 0.926041,0.25105 0.727604,0.0998 1.376495,0.20015 1.441979,0.22302 0.06548,0.0229 0.006,-0.0675 -0.132291,-0.20072 z"
       id="path15863" />
    <path
       style="fill:#718a79;stroke-width:1.11152"
       d="m 85.513355,191.36246 c -0.49113,-0.31133 0.370737,-0.63393 1.086604,-0.40672 0.418363,0.13278 0.45155,0.21491 0.161164,0.39882 -0.459176,0.29082 -0.798067,0.29296 -1.247768,0.008 z"
       id="path15837" />
    <path
       style="fill:#718a79;stroke-width:1.11152"
       d="m 72.388438,206.21247 c 0.08962,-0.98227 0.280148,-2.17102 0.423392,-2.64168 0.143244,-0.47066 0.184496,-1.1255 0.09167,-1.45521 -0.114684,-0.40735 -0.09039,-0.48664 0.0758,-0.2474 0.348039,0.50102 0.660595,-1.19383 0.32589,-1.76714 -0.22731,-0.38936 -0.256003,-0.38172 -0.263171,0.0701 -0.0044,0.27891 -0.08075,0.43441 -0.169622,0.34554 -0.297767,-0.29777 0.78003,-3.17179 1.699933,-4.53299 1.245192,-1.84254 2.478332,-3.10476 2.881924,-2.94989 0.184729,0.0709 0.307533,6.6e-4 0.272899,-0.15607 -0.03464,-0.15672 0.702633,-0.71069 1.638373,-1.23103 1.524449,-0.84772 1.923341,-0.95058 3.836458,-0.9893 1.811705,-0.0367 1.863331,-0.0273 0.340829,0.0617 -0.986856,0.0577 -1.73838,0.19536 -1.670053,0.30592 0.06833,0.11056 -0.225573,0.33305 -0.653112,0.49442 -0.448123,0.16915 -0.777342,0.18882 -0.777342,0.0464 0,-0.27134 -1.991269,0.66974 -2.228159,1.05304 -0.21259,0.34398 0.722563,0.22309 1.037534,-0.13412 0.145521,-0.16504 0.621771,-0.39261 1.058333,-0.50572 1.097119,-0.28426 5.154863,-0.30192 5.920113,-0.0258 0.439925,0.15876 0.574137,0.13892 0.447406,-0.0661 -0.09957,-0.16111 -0.06198,-0.29293 0.08354,-0.29293 0.42429,0 0.594981,0.46962 0.231316,0.63642 -0.182808,0.0838 -0.07451,0.0892 0.240668,0.0118 0.315175,-0.0773 0.649624,-0.0167 0.743219,0.13474 0.0936,0.15144 0.311974,0.27475 0.485287,0.27403 0.173313,-7.2e-4 -0.04207,-0.30699 -0.478635,-0.6806 -0.939271,-0.80382 -0.372292,-0.56114 0.872471,0.37343 0.512994,0.38516 0.814032,0.80735 0.730635,1.02468 -0.07801,0.20329 -0.03011,0.30057 0.106441,0.21618 0.136552,-0.0844 0.373314,0.0802 0.526136,0.36574 0.39183,0.73214 0.356586,0.81855 -0.333843,0.81855 -0.372501,0 -0.840562,-0.30955 -1.19696,-0.7916 -1.035838,-1.40105 -2.515289,-1.97974 -5.070505,-1.98335 -2.113957,-0.003 -2.355355,0.0567 -4.021397,0.99441 -0.974842,0.54868 -1.957107,1.18226 -2.182813,1.40796 -0.225705,0.22571 -0.410373,0.28984 -0.410373,0.14251 0,-0.14733 0.121004,-0.34265 0.268899,-0.43406 0.147894,-0.0914 0.194365,-0.28678 0.103268,-0.43418 -0.209653,-0.33923 -1.603709,0.96504 -2.14989,2.01141 -0.22416,0.42945 -0.570718,0.94397 -0.770129,1.14338 -0.450204,0.45021 -0.470885,0.87603 -0.03826,0.78779 0.461399,-0.0941 1.409225,-1.31359 1.320675,-1.6992 -0.08338,-0.36308 0.50068,-0.71921 1.618334,-0.98678 0.520048,-0.1245 0.693964,-0.0892 0.567626,0.11522 -0.113202,0.18317 0.01972,0.16866 0.351154,-0.0383 1.302388,-0.81336 4.076087,0.96274 5.194054,3.32592 0.718944,1.51973 0.910811,2.31379 0.290287,1.2014 l -0.368979,-0.66146 -0.24052,0.64322 -0.24052,0.64322 -0.297733,-0.85408 c -0.370734,-1.06348 -1.19626,-2.12943 -2.121954,-2.73994 -0.882773,-0.5822 -3.2143,-0.6248 -4.271602,-0.078 -1.428965,0.73894 -2.945251,5.03664 -3.338752,9.46322 -0.100255,1.12779 -0.288237,2.05053 -0.417739,2.05053 -0.130393,0 -0.162747,-0.79691 -0.07251,-1.78594 z m 1.525043,-7.47448 c -0.08993,-0.46274 -0.0537,-0.55543 0.120608,-0.30855 0.200037,0.28333 0.283735,0.26283 0.424504,-0.10401 0.09644,-0.25131 0.113006,-0.51926 0.03682,-0.59545 -0.07619,-0.0762 -0.140343,0.0301 -0.142571,0.23631 -0.0034,0.31388 -0.04138,0.3159 -0.233617,0.0124 -0.312079,-0.49264 -0.904316,1.29174 -0.649298,1.9563 0.177216,0.46182 0.194625,0.46064 0.378929,-0.0258 0.106249,-0.2804 0.13533,-0.80748 0.06463,-1.17128 z m 9.439245,-0.0312 c 0,-0.14552 -0.11049,-0.1963 -0.245534,-0.11284 -0.25804,0.15948 -0.706482,-0.85674 -0.578588,-1.31114 0.04096,-0.14552 -0.0022,-0.18791 -0.09591,-0.0942 -0.197621,0.19762 -1.615415,-1.13087 -1.523072,-1.42714 0.07534,-0.24171 -0.03149,-0.24754 -0.592347,-0.0323 -0.352855,0.1354 -0.290602,0.25265 0.3367,0.63413 0.423276,0.25741 1.114356,1.00252 1.535733,1.6558 0.700645,1.08624 1.163014,1.35965 1.163014,0.68772 z m 5.930957,-5.062 c -0.03632,-0.32742 -0.07595,-0.67201 -0.08808,-0.76576 -0.01213,-0.0937 -0.313348,-0.15328 -0.669381,-0.13229 l -0.647333,0.0382 0.696834,0.72761 c 0.383259,0.40018 0.714192,0.7276 0.735407,0.7276 0.02122,0 0.0089,-0.26789 -0.02745,-0.59531 z"
       id="path15835" />
    <path
       style="fill:#718a79;stroke-width:1.11152"
       d="m 71.167038,232.88555 c -1.856157,-1.95123 -4.975174,-7.43408 -6.932867,-12.18714 -2.126524,-5.16297 -4.294303,-13.27603 -3.704812,-13.86552 0.335654,-0.33566 2.765362,1.28144 4.113878,2.738 2.237453,2.41671 4.276703,6.24385 5.294773,9.93689 1.290125,4.67992 1.185862,4.79318 1.217842,-1.32292 0.0293,-5.60331 0.61074,-13.87844 1.078254,-15.34583 0.187387,-0.58815 0.205993,-0.38255 0.07184,0.79375 -0.09958,0.87313 -0.158221,2.24234 -0.13031,3.04271 0.02791,0.80036 0.0395,6.18794 0.02576,11.97239 -0.01563,6.57801 0.07037,10.51719 0.229628,10.51719 0.14004,0 0.403641,-0.50601 0.585779,-1.12448 1.017233,-3.45409 3.961179,-8.3931 6.249259,-10.48428 1.358751,-1.24182 3.128182,-2.13793 3.495739,-1.77037 0.28727,0.28727 -0.398837,2.96113 -1.372854,5.3502 -1.160108,2.84553 -2.635935,5.43977 -4.595563,8.0782 -4.065239,5.47341 -3.970653,5.41169 -5.626336,3.67121 z m -4.359145,-7.97034 c -0.373311,-0.7367 -0.795367,-1.64618 -0.937901,-2.02107 -0.142534,-0.37489 -0.322995,-0.61778 -0.401024,-0.53975 -0.151503,0.1515 1.659555,3.90026 1.884251,3.90026 0.07338,0 -0.172014,-0.60275 -0.545326,-1.33944 z m 5.048236,-3.74161 c -0.215834,-2.1495 -0.409652,-2.29087 -0.409652,-0.29881 0,1.4217 0.123915,1.94028 0.463627,1.94028 0.06097,0 0.03668,-0.73866 -0.05398,-1.64147 z m 0.217181,-8.54499 c 0.114197,-2.48192 0.08389,-3.57321 -0.09186,-3.30729 -0.234882,0.3554 -0.407214,7.38922 -0.174486,7.1217 0.05275,-0.0606 0.172603,-1.77711 0.266342,-3.81441 z"
       id="path15834" />
    <path
       style="fill:#6c8676;stroke-width:1.11152"
       d="m 80.574602,191.03447 c 0.294866,-0.18675 1.524941,-0.36216 2.778124,-0.39616 l 2.248959,-0.061 -2.248959,0.21231 c -1.236927,0.11677 -2.487083,0.29505 -2.778124,0.39616 l -0.529167,0.18385 z"
       id="path15781" />
    <path
       style="fill:#6c8676;stroke-width:1.11152"
       d="m 88.534694,193.77704 -0.771156,-0.99218 0.837302,0.77711 c 0.460517,0.42741 0.839126,0.66553 0.841354,0.52917 0.0022,-0.13637 0.119468,-0.0693 0.260532,0.14893 0.223797,0.3463 0.256997,0.34261 0.260532,-0.029 0.0038,-0.3962 -1.007703,-1.52357 -2.244907,-2.50213 -0.715121,-0.56563 0.07783,-0.15239 1.009077,0.52587 0.675898,0.49227 1.769048,1.95504 1.769048,2.3672 0,0.092 -0.267891,0.16721 -0.595312,0.1672 -0.374426,0 -0.881446,-0.36815 -1.36647,-0.99219 z"
       id="path15778" />
    <path
       style="fill:#6c8676;stroke-width:1.11152"
       d="m 75.13668,195.18641 c 0.868035,-1.26165 2.102724,-2.37492 3.501508,-3.1572 l 0.87808,-0.49106 -0.771555,0.64672 c -0.51821,0.43437 -0.670245,0.70934 -0.46302,0.83742 0.169693,0.10487 0.308534,0.0576 0.308534,-0.10513 0,-0.1627 0.109922,-0.22788 0.244271,-0.14485 0.134349,0.083 0.681771,-0.10716 1.216493,-0.42266 1.359826,-0.80231 4.457488,-0.99219 6.079705,-0.37266 0.651919,0.24897 1.259175,0.5722 1.349457,0.71828 0.09028,0.14607 -0.225449,0.0641 -0.701624,-0.18211 -1.828971,-0.9458 -5.467973,-0.7548 -7.111244,0.37325 -0.374101,0.25681 -1.156433,0.74049 -1.738517,1.07486 l -1.058333,0.60793 0.771555,-0.65095 c 0.51445,-0.43404 0.66948,-0.71404 0.465234,-0.84027 -0.421987,-0.2608 -2.256697,1.2644 -2.853046,2.37176 -0.268649,0.49885 -0.586159,0.907 -0.705579,0.907 -0.11942,0 0.145217,-0.52665 0.588081,-1.17033 z"
       id="path15775" />
    <path
       style="fill:#6c8676;stroke-width:1.11152"
       d="m 75.878248,196.42446 c 0.472942,-0.42224 0.859895,-0.89399 0.859895,-1.04832 0,-0.15433 0.218282,-0.33768 0.48507,-0.40745 0.295132,-0.0772 0.485069,0.0143 0.485069,0.23373 0,0.19831 -0.128984,0.36239 -0.286632,0.36462 -0.157647,0.002 -0.108038,0.12662 0.110243,0.27642 0.326949,0.22439 0.30298,0.25929 -0.136042,0.19809 -0.293105,-0.0409 -0.947948,0.20132 -1.455208,0.53817 l -0.922291,0.61247 z"
       id="path15774" />
    <path
       style="fill:#6c8676;stroke-width:1.11152"
       d="m 82.978486,198.43678 c 0.173443,-0.28063 -0.61494,-1.52348 -1.463573,-2.30724 l -0.675728,-0.62408 0.661458,0.38756 c 0.585106,0.34282 2.084625,2.19416 2.107877,2.60243 0.0048,0.0849 -0.164567,0.15435 -0.376447,0.15435 -0.21188,0 -0.325994,-0.0959 -0.253587,-0.21302 z"
       id="path15773" />
    <path
       style="fill:#6c8676;stroke-width:1.11152"
       d="m 72.813099,204.69111 c -0.03419,-0.76269 0.885238,-4.85359 1.150449,-5.1188 0.199746,-0.19975 0.164695,0.005 -0.383358,2.23818 -0.281667,1.14778 -0.561484,2.44406 -0.621816,2.88062 l -0.109694,0.79375 z"
       id="path15770" />
    <path
       style="fill:#6c8676;stroke-width:1.11152"
       d="m 62.186061,212.80191 c 0,-0.16807 0.124282,-0.30559 0.276182,-0.30559 0.1519,0 0.241197,-0.19601 0.198437,-0.43557 -0.04276,-0.23956 0.07108,-0.48761 0.252985,-0.55122 0.522317,-0.18263 0.385144,0.59095 -0.198437,1.11908 -0.300088,0.27158 -0.529167,0.3466 -0.529167,0.1733 z"
       id="path15768" />
    <path
       style="fill:#6c8676;stroke-width:1.11152"
       d="m 64.77471,216.50638 c 0.186829,-0.11854 0.26365,-0.41369 0.170713,-0.65588 -0.09294,-0.2422 -0.267337,-0.37956 -0.387554,-0.30526 -0.120218,0.0743 -0.288277,0.0223 -0.373467,-0.11553 -0.295646,-0.47837 0.361061,-0.5653 0.88453,-0.11709 0.401058,0.3434 0.464751,0.56569 0.267623,0.93403 -0.142283,0.26586 -0.403335,0.48155 -0.580116,0.47932 -0.237695,-0.003 -0.232936,-0.0602 0.01827,-0.21959 z"
       id="path15764" />
    <path
       style="fill:#6c8676;stroke-width:1.11152"
       d="m 71.660775,233.41601 c -0.357948,-0.28156 -1.390955,-1.63438 -2.29557,-3.00627 -1.517575,-2.30146 -1.620168,-2.5483 -1.326773,-3.19223 0.38939,-0.85462 0.763623,-0.90526 0.75816,-0.10259 -0.0033,0.48139 -0.05313,0.51937 -0.260531,0.19844 -0.212455,-0.32875 -0.25675,-0.30604 -0.258049,0.13229 -0.0015,0.51844 1.37176,3.14689 1.773891,3.39517 0.112172,0.0693 0.22112,-0.16031 0.242106,-0.51014 0.02314,-0.3858 -0.106986,-0.63607 -0.33073,-0.63607 -0.202887,0 -0.368885,-0.12609 -0.368885,-0.2802 0,-0.15411 0.148828,-0.19617 0.330729,-0.0935 0.254695,0.1438 0.259448,0.10956 0.02068,-0.14891 -0.170529,-0.18461 -0.244893,-0.50545 -0.165252,-0.71299 0.07964,-0.20754 -0.06727,-0.53241 -0.326465,-0.72194 -0.323822,-0.23679 -0.420624,-0.53825 -0.309403,-0.96356 0.188136,-0.71944 -2.785597,-9.81998 -4.232125,-12.95161 -0.906777,-1.96311 -0.921761,-1.97858 -1.283449,-1.32504 -0.498797,0.9013 -0.492701,1.61214 0.01216,1.41841 0.218281,-0.0838 0.396875,-0.031 0.396875,0.11718 0,0.14822 -0.208359,0.23947 -0.463021,0.2028 -0.630323,-0.0908 -0.723842,-1.03187 -0.184359,-1.85522 0.416997,-0.63642 0.415276,-0.72042 -0.02864,-1.39792 -0.259762,-0.39645 -0.696122,-0.96106 -0.96969,-1.2547 -0.300453,-0.3225 -0.466647,-0.82705 -0.419736,-1.27427 0.07216,-0.68797 -0.34346,-1.23366 -0.947546,-1.24408 -0.650313,-0.0112 0.761147,6.09096 2.44703,10.57928 1.628575,4.33574 2.196332,5.56098 2.492154,5.37815 0.156477,-0.0967 0.192232,-0.0388 0.08409,0.13618 -0.103479,0.16743 0.251815,1.14167 0.789544,2.16497 0.537729,1.0233 0.909084,1.92915 0.825233,2.013 -0.189801,0.1898 -2.19279,-3.77729 -3.424184,-6.78188 -2.184103,-5.32921 -3.923608,-11.88874 -3.667265,-13.82894 0.07169,-0.54257 2.77536,1.2922 4.207912,2.85557 2.420985,2.64208 5.260374,8.47385 4.939857,10.14589 -0.110403,0.57594 -0.09261,0.60442 0.103755,0.16602 0.203192,-0.45365 0.26628,-0.37869 0.442063,0.52526 0.112776,0.57993 0.216307,1.3719 0.23007,1.75992 0.01376,0.38803 0.114321,0.65065 0.223462,0.58361 0.109141,-0.067 0.198437,0.11623 0.198437,0.40727 0,0.29104 0.0893,0.58445 0.198438,0.65202 0.109141,0.0676 0.155334,-2.0983 0.102651,-4.81303 -0.103676,-5.34245 0.32569,-12.63767 0.905706,-15.38855 0.199251,-0.94499 0.304558,-1.24192 0.234016,-0.65984 -0.609895,5.03265 -1.110886,14.6851 -0.743856,14.3317 0.125886,-0.12121 0.298599,-1.37137 0.383808,-2.77812 0.08772,-1.44832 0.173842,1.22372 0.198539,6.16028 0.02517,5.03021 0.142016,8.61169 0.276236,8.46666 0.127942,-0.13824 0.383067,-0.7276 0.566945,-1.30968 0.521365,-1.65043 2.191073,-5.14072 3.239453,-6.77161 1.902525,-2.95964 4.799622,-5.53152 6.230974,-5.53152 0.862237,0 -0.187966,3.68386 -2.22513,7.80521 -1.52863,3.09255 -4.06659,6.9162 -4.529134,6.82352 -0.152747,-0.0306 -0.500258,0.20752 -0.772246,0.52917 l -0.494525,0.58481 0.633968,-0.52917 c 0.867104,-0.72376 0.643093,-0.2793 -0.766259,1.52035 -1.287607,1.64418 -1.695902,1.7972 -2.696119,1.01043 z m 6.501394,-6.7003 c 1.482764,-2.379 3.105205,-5.8597 3.839502,-8.23708 0.583984,-1.89072 0.550322,-2.29759 -0.185914,-2.24708 -0.400244,0.0275 -0.401855,0.0428 -0.01528,0.14574 0.447475,0.11914 0.402816,0.58802 -0.247805,2.60169 -0.789468,2.44341 -3.749531,8.20209 -4.21602,8.20209 -0.108922,0 -0.163863,0.14882 -0.122092,0.33073 0.04177,0.1819 -0.04833,0.33072 -0.200233,0.33072 -0.1519,0 -0.276182,0.1786 -0.276182,0.39688 0,0.21828 0.05107,0.39687 0.113496,0.39687 0.06242,0 0.652161,-0.86425 1.31053,-1.92056 z m -4.023263,1.16121 c -0.282931,-0.17938 -0.26658,-0.30578 0.08504,-0.65741 0.239428,-0.23942 0.310703,-0.43532 0.15839,-0.43532 -0.18607,0 -0.194419,-0.21703 -0.02545,-0.66146 0.138317,-0.3638 0.191954,-0.66146 0.119194,-0.66146 -0.149502,0 -0.562661,1.02163 -0.807224,1.99605 -0.12954,0.51613 -0.06194,0.64895 0.328617,0.64574 0.367418,-0.003 0.403165,-0.0602 0.141425,-0.22614 z m 1.805487,-2.86914 c 0,-0.0728 -0.178593,-0.0637 -0.396874,0.02 -0.487757,0.18717 -0.500059,0.30879 0.138769,-1.37199 0.6117,-1.6094 0.325646,-1.66324 -0.391173,-0.0736 -0.520658,1.15461 -0.406344,1.96298 0.242388,1.71404 0.22379,-0.0859 0.40689,-0.21567 0.40689,-0.28844 z m -3.968749,-3.77984 c 0,-3.52569 -0.400022,-4.85277 -0.503091,-1.66902 -0.05685,1.75606 0.206717,5.1086 0.401622,5.1086 0.05581,0 0.101469,-1.54781 0.101469,-3.43958 z m 6.405266,-0.79375 c 0.133418,0 0.221385,-0.20836 0.19548,-0.46302 -0.08424,-0.82814 0.0086,-1.15895 0.27842,-0.99219 0.145521,0.0899 0.264583,0.0374 0.264583,-0.11667 0,-0.53853 -0.496946,-0.27255 -1.291285,0.69112 -0.440354,0.53422 -0.739132,1.07085 -0.663951,1.19249 0.07518,0.12165 -0.04876,0.29234 -0.275432,0.37932 -0.226669,0.087 -0.351044,0.25698 -0.27639,0.37778 0.07465,0.12079 0.448544,-0.0703 0.830866,-0.4246 0.382321,-0.35433 0.80429,-0.64423 0.937709,-0.64423 z"
       id="path15756" />
    <path
       style="fill:#627d70;stroke-width:1.11152"
       d="m 80.072924,192.40988 c 0.793027,-0.71649 4.262803,-1.07247 5.528761,-0.56721 0.303799,0.12125 -0.259619,0.16136 -1.322917,0.0942 -1.218398,-0.077 -2.29531,0.0206 -3.14751,0.28511 -0.712485,0.22117 -1.188735,0.30574 -1.058334,0.18792 z"
       id="path15706" />
    <path
       style="fill:#627d70;stroke-width:1.11152"
       d="m 77.531893,193.99325 c 0.831783,-0.70886 2.452658,-1.59568 1.852084,-1.01332 -0.218282,0.21166 -0.873125,0.65308 -1.455209,0.98093 -1.014989,0.57168 -1.031243,0.57301 -0.396875,0.0324 z"
       id="path15705" />
    <path
       style="fill:#627d70;stroke-width:1.11152"
       d="m 76.208977,193.92915 c 0.920507,-0.89358 2.645833,-2.20006 2.645833,-2.00353 0,0.0566 -0.803672,0.73275 -1.785937,1.50266 -0.994757,0.77969 -1.375696,1.00158 -0.859896,0.50087 z"
       id="path15704" />
    <path
       style="fill:#627d70;stroke-width:1.11152"
       d="m 72.795767,204.53677 c 0.01451,-0.49719 0.125693,-1.20165 0.247082,-1.56545 0.142479,-0.42701 0.167317,-0.14567 0.07008,0.79375 -0.172326,1.66478 -0.35627,2.11235 -0.317157,0.7717 z"
       id="path15703" />
    <path
       style="fill:#627d70;stroke-width:1.11152"
       d="m 71.355471,215.53903 c 0.06481,-3.92906 0.222699,-7.85812 0.350857,-8.73125 0.196928,-1.34165 0.209789,-1.21873 0.08305,0.79375 -0.08248,1.30969 -0.240368,5.23875 -0.350857,8.73125 l -0.20089,6.35 z"
       id="path15700" />
    <path
       style="fill:#627d70;stroke-width:1.11152"
       d="m 71.771037,233.51922 c -0.783742,-0.55254 -3.315006,-4.34996 -5.018744,-7.52915 -2.869525,-5.35455 -5.474918,-12.79214 -6.111387,-17.4461 -0.120641,-0.88214 -0.137207,-1.6039 -0.03681,-1.6039 0.100393,0 0.252712,0.74414 0.338487,1.65365 0.326654,3.46362 3.00101,11.33058 5.554076,16.33802 1.646277,3.22891 3.886801,6.6619 4.261462,6.52952 0.308778,-0.1091 0.254813,-2.05743 -0.0635,-2.29246 -0.101316,-0.0748 -0.462406,-0.96946 -0.802422,-1.9881 -0.340016,-1.01865 -0.784244,-2.22727 -0.987174,-2.68582 -0.20293,-0.45856 -0.368963,-1.00029 -0.368963,-1.20386 0,-0.20356 -0.110363,-0.48322 -0.24525,-0.62147 -0.134888,-0.13824 -0.558168,-1.36957 -0.940622,-2.73628 -0.999414,-3.57142 -3.451687,-8.89951 -4.645482,-10.0933 -0.285255,-0.28526 -0.518646,-0.66152 -0.518646,-0.83615 0,-0.23466 0.07745,-0.24005 0.296824,-0.0207 0.163253,0.16325 0.431144,0.26611 0.595312,0.22857 0.164169,-0.0375 0.209192,-0.0183 0.100051,0.0427 -0.394767,0.22078 -0.187552,0.64849 0.235522,0.48614 0.419939,-0.16115 1.263473,0.68539 1.295927,1.30053 0.0077,0.14552 0.156141,0.23523 0.329919,0.19936 0.355105,-0.0733 1.644361,1.82847 1.644361,2.4256 0,0.41877 0.477282,0.82241 0.704166,0.59553 0.231724,-0.23172 -2.145631,-3.71691 -3.346265,-4.90561 -0.846767,-0.83834 -1.259526,-1.07125 -1.686886,-0.95184 -0.443585,0.12394 -0.480355,0.0995 -0.17022,-0.11338 0.341701,-0.23449 0.323681,-0.3287 -0.132292,-0.6916 -0.485807,-0.38665 -0.461953,-0.38829 0.299302,-0.0206 1.351672,0.65291 3.847092,3.6179 5.171049,6.14411 1.489076,2.84126 2.838623,6.59807 2.930248,8.15709 0.03705,0.63035 0.146102,1.09815 0.242348,1.03955 0.09625,-0.0586 0.26989,0.39999 0.385878,1.01908 l 0.210887,1.1256 0.171888,-1.05833 c 0.117763,-0.72508 0.202726,-0.0586 0.26982,2.11666 0.05833,1.8912 0.156081,-0.14149 0.241744,-5.02708 l 0.143813,-8.20208 0.08008,8.59895 0.08008,8.59896 0.602605,-1.71979 c 2.287279,-6.52773 6.176665,-11.83798 9.213736,-12.57967 0.630855,-0.15407 0.727604,-0.0985 0.727604,0.41778 0,1.94164 -2.40206,7.60167 -4.751378,11.19576 -1.80146,2.75596 -4.754555,6.37161 -5.279564,6.46409 -0.231055,0.0407 -0.690766,-0.11683 -1.021581,-0.35006 z m 3.567205,-2.91957 c 2.350586,-2.46825 5.058055,-7.31454 6.555159,-11.73352 0.803591,-2.37196 0.81862,-2.66564 0.136409,-2.66564 -0.291042,0 -0.529167,0.11906 -0.529167,0.26458 0,0.14552 -0.212086,0.26459 -0.471303,0.26459 -0.618115,0 -3.140427,2.6115 -4.518919,4.67871 -1.787165,2.68005 -3.85227,7.7567 -3.155314,7.7567 0.145971,0 0.196189,0.27577 0.111595,0.61282 -0.08756,0.34887 0.01402,0.85243 0.235846,1.16913 0.214309,0.30597 0.321157,0.77434 0.237439,1.04082 -0.123189,0.39213 -0.102355,0.40884 0.109257,0.0876 0.143809,-0.21828 0.723859,-0.88241 1.288998,-1.47584 z m -5.907104,-11.85253 c -0.360835,-1.07321 -0.827859,-2.17454 -1.03783,-2.4474 -0.323846,-0.42084 -0.321626,-0.31547 0.01463,0.69452 0.21802,0.65484 0.512173,1.42875 0.653675,1.71979 0.141501,0.29104 0.375847,0.85659 0.520769,1.25677 0.144922,0.40018 0.317792,0.72761 0.384156,0.72761 0.06636,0 -0.174568,-0.87809 -0.535403,-1.95129 z"
       id="path15699" />
    <path
       style="fill:#617c6d;stroke-width:1.11152"
       d="m 82.757414,191.66742 c 0.472943,-0.0587 1.246849,-0.0587 1.719792,0 0.472942,0.0587 0.08599,0.10672 -0.859896,0.10672 -0.945886,0 -1.332839,-0.048 -0.859896,-0.10672 z"
       id="path15638" />
    <path
       style="fill:#617c6d;stroke-width:1.11152"
       d="m 71.528463,209.7182 c 0.0015,-0.87313 0.05088,-1.19842 0.109766,-0.72287 0.05889,0.47555 0.05767,1.18993 -0.0027,1.5875 -0.06037,0.39758 -0.108551,0.008 -0.107066,-0.86463 z"
       id="path15637" />
    <path
       style="fill:#617c6d;stroke-width:1.11152"
       d="m 72.077603,216.99424 c 0,-1.81901 0.04227,-2.56315 0.09394,-1.65365 0.05167,0.90951 0.05167,2.39779 0,3.30729 -0.05166,0.90951 -0.09394,0.16537 -0.09394,-1.65364 z"
       id="path15635" />
    <path
       style="fill:#617c6d;stroke-width:1.11152"
       d="m 71.294279,217.25882 c 0,-3.1287 0.03827,-4.40862 0.08505,-2.84427 0.04678,1.56435 0.04678,4.12419 0,5.68854 -0.04678,1.56435 -0.08505,0.28443 -0.08505,-2.84427 z"
       id="path15633" />
    <path
       style="fill:#617c6d;stroke-width:1.11152"
       d="m 66.360535,225.25495 c -2.534917,-4.71641 -5.815363,-14.50686 -5.737753,-17.12425 0.01295,-0.43657 0.175495,0.0397 0.361224,1.05833 0.785272,4.30692 3.011085,10.8014 5.192723,15.15136 0.704081,1.40386 1.248535,2.58409 1.209898,2.62273 -0.03864,0.0386 -0.500379,-0.73004 -1.026092,-1.70817 z"
       id="path15632" />
    <path
       style="fill:#617c6d;stroke-width:1.11152"
       d="m 72.598925,230.2116 c 0.150565,-2.11498 1.745076,-5.97229 3.799447,-9.1913 1.712263,-2.68296 4.79893,-5.34901 6.192916,-5.34901 0.297328,0 0.268205,1.29381 -0.04467,1.98438 -0.17361,0.38319 -0.198419,0.26382 -0.08993,-0.43272 0.16913,-1.08592 -0.185838,-1.49032 -0.783523,-0.89263 -0.219618,0.21962 -0.568366,0.39931 -0.774995,0.39931 -0.565259,0 -3.197045,2.81354 -4.45483,4.76249 -1.775134,2.7506 -3.225469,6.23933 -3.354769,8.0698 -0.06168,0.87312 -0.220297,1.70265 -0.35249,1.84339 -0.145249,0.15464 -0.199519,-0.31769 -0.137156,-1.19371 z"
       id="path15630" />
    <path
       style="fill:#617c6d;stroke-width:1.11152"
       d="m 71.763763,233.51135 c -0.780988,-0.54702 -4.594106,-6.19838 -4.18221,-6.19838 0.06734,0 0.544293,0.69444 1.059886,1.54319 1.230825,2.02616 3.03495,4.27869 3.422858,4.27359 0.19516,-0.003 0.211167,-0.0754 0.04364,-0.19844 -0.14552,-0.10691 -0.305752,-0.49204 -0.35607,-0.85584 -0.05032,-0.3638 -0.570358,-1.91162 -1.155646,-3.43959 -0.585287,-1.52796 -1.338096,-3.4925 -1.672907,-4.36562 -0.334811,-0.87313 -0.860156,-2.42094 -1.167433,-3.43958 -0.307276,-1.01865 -0.687668,-2.26881 -0.845314,-2.77813 -0.288141,-0.93092 -1.504162,-3.73817 -2.206241,-5.09323 -0.310681,-0.59963 -0.314326,-0.7276 -0.02072,-0.7276 0.195944,0 0.424024,0.17659 0.506845,0.39241 0.08569,0.22329 0.325946,0.32512 0.557474,0.23628 0.479687,-0.18407 0.571373,0.56134 0.104534,0.84986 -0.193268,0.11945 -0.05008,0.31905 0.396875,0.55323 0.700757,0.36717 0.944685,0.87864 0.419033,0.87864 -0.154109,0 -0.195244,-0.13746 -0.09141,-0.30547 0.121695,-0.1969 0.07204,-0.23331 -0.13973,-0.10243 -0.220963,0.13657 -0.241116,0.29044 -0.06156,0.47 0.146829,0.14683 0.208618,0.419 0.137308,0.60483 -0.07131,0.18583 -0.0025,0.41647 0.152968,0.51254 0.155441,0.0961 0.282621,0.39119 0.282621,0.65583 0,0.26463 0.153714,0.60872 0.341586,0.76464 0.260122,0.21588 0.351893,0.14668 0.3848,-0.29018 0.02377,-0.31552 -0.09673,-0.66016 -0.267778,-0.76587 -0.171046,-0.10571 -0.230813,-0.27238 -0.132816,-0.37038 0.153433,-0.15343 0.769048,0.2779 0.968477,0.67857 0.03622,0.0728 -0.06538,0.47744 -0.225764,0.89929 -0.256179,0.6738 -0.242811,0.72649 0.110016,0.43367 0.351655,-0.29185 0.383636,-0.18976 0.257036,0.8205 -0.07953,0.63461 -0.192649,1.30123 -0.251386,1.48139 -0.05874,0.18015 -0.02178,0.31488 0.08212,0.29939 0.103904,-0.0155 0.36751,-0.0122 0.585791,0.007 0.352778,0.0315 0.352778,0.0639 0,0.29186 -0.318021,0.20552 -0.27297,0.25729 0.226745,0.26053 0.485374,0.003 0.584543,-0.0986 0.447345,-0.45897 -0.134623,-0.35361 -0.102837,-0.39016 0.134525,-0.15466 0.237902,0.23603 0.215553,0.49928 -0.09529,1.12237 -0.382504,0.76675 -0.378516,0.79926 0.06868,0.55993 0.636425,-0.3406 0.623605,-1.35678 -0.04347,-3.44586 -1.53951,-4.82128 -4.055764,-8.80046 -7.088534,-11.20975 -0.897419,-0.71293 -0.90125,-0.72351 -0.123963,-0.34232 1.562248,0.76616 4.078373,3.868 5.614802,6.92186 1.526435,3.03398 3.214893,8.67687 2.455932,8.20781 -0.158518,-0.098 -0.201709,0.007 -0.105846,0.25652 0.08907,0.23212 0.230913,0.35306 0.315204,0.26877 0.213955,-0.21395 0.831678,1.94647 0.831636,2.90856 -1.9e-5,0.43657 -0.109418,0.96666 -0.243109,1.178 -0.13369,0.21133 -0.166717,0.50778 -0.07339,0.65879 0.09332,0.151 0.252194,-0.0219 0.353043,-0.38425 0.149491,-0.53709 0.197984,-0.43885 0.262512,0.53184 0.04353,0.65484 0.154356,-0.1786 0.246275,-1.85209 l 0.167126,-3.0427 0.04884,3.96875 c 0.05783,4.69895 0.07081,4.89479 0.324432,4.89479 0.107644,0 0.136959,0.22469 0.06515,0.4993 -0.285373,1.09127 0.467642,0.73734 1.939643,-0.91167 2.853967,-3.19716 5.723409,-7.98884 7.276895,-12.1517 0.272271,-0.72961 0.424776,-0.96937 0.338898,-0.53281 -0.546317,2.77724 -3.714761,8.38061 -7.106455,12.56771 -2.161243,2.66809 -2.220232,2.70349 -3.2745,1.96505 z"
       id="path15628" />
    <path
       style="fill:#5b796a;stroke-width:1.11152"
       d="m 82.757414,191.66742 c 0.472943,-0.0587 1.246849,-0.0587 1.719792,0 0.472942,0.0587 0.08599,0.10672 -0.859896,0.10672 -0.945886,0 -1.332839,-0.048 -0.859896,-0.10672 z"
       id="path15516" />
    <path
       style="fill:#5b796a;stroke-width:1.11152"
       d="m 61.271337,211.70093 c -0.387427,-1.62028 -0.651575,-3.14596 -0.586995,-3.39039 0.09295,-0.3518 0.123887,-0.33414 0.148453,0.0847 0.01707,0.29104 0.330926,1.76701 0.697461,3.27993 0.366534,1.51292 0.616716,2.80048 0.555959,2.86124 -0.06076,0.0607 -0.427452,-1.21523 -0.814878,-2.83552 z"
       id="path15515" />
    <path
       style="fill:#5b796a;stroke-width:1.11152"
       d="m 62.879017,217.09503 c -0.378366,-1.12535 -0.646128,-2.0879 -0.595028,-2.139 0.0511,-0.0511 0.415246,0.81507 0.809215,1.92482 0.393968,1.10974 0.661731,2.07229 0.595028,2.13899 -0.0667,0.0667 -0.430849,-0.79946 -0.809215,-1.92481 z"
       id="path15511" />
    <path
       style="fill:#5b796a;stroke-width:1.11152"
       d="m 69.319217,218.40103 c -0.541225,-1.66686 -2.088376,-4.89151 -3.023436,-6.30158 -0.980493,-1.47859 -2.774682,-3.43224 -3.977428,-4.33092 -0.547483,-0.40908 -0.601787,-0.49969 -0.175029,-0.29206 1.660285,0.80778 4.246483,3.90359 5.73289,6.86256 0.897036,1.78572 2.044382,4.79845 1.887248,4.95558 -0.06398,0.064 -0.263891,-0.33813 -0.444245,-0.89358 z"
       id="path15510" />
    <path
       style="fill:#5b796a;stroke-width:1.11152"
       d="m 72.075701,216.99424 c 0,-1.67349 0.04296,-2.3581 0.09547,-1.52136 0.05251,0.83675 0.05251,2.20597 0,3.04271 -0.05251,0.83675 -0.09547,0.15214 -0.09547,-1.52135 z"
       id="path15509" />
    <path
       style="fill:#5b796a;stroke-width:1.11152"
       d="m 71.294279,217.25882 c 0,-3.1287 0.03827,-4.40862 0.08505,-2.84427 0.04678,1.56435 0.04678,4.12419 0,5.68854 -0.04678,1.56435 -0.08505,0.28443 -0.08505,-2.84427 z"
       id="path15507" />
    <path
       style="fill:#5b796a;stroke-width:1.11152"
       d="m 64.464417,221.19817 c -0.388841,-0.89659 -0.663423,-1.67373 -0.610182,-1.72697 0.05324,-0.0532 0.413813,0.63791 0.80127,1.53589 0.387457,0.89797 0.662039,1.67511 0.610182,1.72697 -0.05186,0.0519 -0.412428,-0.63929 -0.80127,-1.53589 z"
       id="path15506" />
    <path
       style="fill:#5b796a;stroke-width:1.11152"
       d="m 80.352397,222.89 c 0.520477,-1.13262 1.171804,-2.65462 1.447392,-3.38222 0.275588,-0.7276 0.430999,-0.96573 0.345358,-0.52917 -0.184606,0.94104 -2.223931,5.65233 -2.528009,5.84026 -0.116085,0.0717 0.214782,-0.79625 0.735259,-1.92887 z"
       id="path15505" />
    <path
       style="fill:#5b796a;stroke-width:1.11152"
       d="m 66.194189,224.96557 c -0.458221,-0.85971 -0.830424,-1.66551 -0.827119,-1.79066 0.0033,-0.12515 0.418494,0.53797 0.922641,1.4736 0.504148,0.93563 0.876351,1.74142 0.827119,1.79065 -0.04923,0.0492 -0.46442,-0.61388 -0.922641,-1.47359 z"
       id="path15504" />
    <path
       style="fill:#5b796a;stroke-width:1.11152"
       d="m 70.531734,226.53752 c -0.08372,-0.13547 -0.05398,-0.30702 0.06609,-0.38123 0.120073,-0.0742 0.183407,-0.76704 0.140742,-1.53963 l -0.07757,-1.40471 0.421541,1.18027 c 0.3328,0.93181 0.355667,1.28575 0.108625,1.68133 -0.193529,0.30989 -0.204517,0.43407 -0.0288,0.32547 0.156264,-0.0966 0.284116,-0.0495 0.284116,0.1046 0,0.34554 -0.705969,0.3717 -0.914743,0.0339 z"
       id="path15503" />
    <path
       style="fill:#5b796a;stroke-width:1.11152"
       d="m 73.17127,227.57757 c 0.937814,-3.05533 4.13558,-8.28698 6.148083,-10.05845 1.295744,-1.14056 2.857075,-1.95193 3.267731,-1.69813 0.298704,0.1846 0.27466,1.14294 -0.04603,1.83471 -0.187121,0.40363 -0.209441,0.32671 -0.09409,-0.32428 0.2253,-1.27149 -0.03369,-1.44899 -1.215459,-0.83301 -2.361329,1.23079 -5.015006,4.6952 -6.936468,9.05563 -1.09993,2.49611 -1.477508,3.176 -1.123765,2.02353 z"
       id="path15502" />
    <path
       style="fill:#5b796a;stroke-width:1.11152"
       d="m 70.828954,229.23122 c -0.06577,-0.10914 -0.241795,-0.64492 -0.391162,-1.19063 -0.253888,-0.92756 -0.23419,-0.99082 0.302408,-0.9713 0.315692,0.0115 0.424415,0.0812 0.241608,0.15489 -0.182808,0.0737 -0.263012,0.24624 -0.17823,0.38342 0.1873,0.30306 0.394942,1.82205 0.249069,1.82205 -0.05726,0 -0.15792,-0.0893 -0.223693,-0.19843 z"
       id="path15501" />
    <path
       style="fill:#5b796a;stroke-width:1.11152"
       d="m 71.715112,230.14164 c -0.0026,-0.30912 -0.121179,-0.41014 -0.334781,-0.28525 -0.181901,0.10637 -0.126989,-0.0397 0.122027,-0.3246 0.346785,-0.39675 0.473162,-1.13505 0.539938,-3.15433 l 0.08718,-2.63635 0.05132,3.04271 c 0.02823,1.67349 -0.06409,3.2213 -0.205157,3.43958 -0.217462,0.3365 -0.257097,0.32406 -0.260532,-0.0818 z"
       id="path15499" />
    <path
       style="fill:#5b796a;stroke-width:1.11152"
       d="m 71.805758,233.54079 c -0.539153,-0.37764 -3.390645,-4.38234 -4.057633,-5.69864 -0.529253,-1.04447 0.0703,-0.30253 1.477516,1.82842 0.712137,1.07839 1.496584,2.26061 1.743216,2.62715 0.246632,0.36654 0.650329,0.77943 0.897105,0.91753 0.389404,0.21792 0.426177,0.15048 0.278339,-0.51048 l -0.170344,-0.76157 0.435107,0.78283 0.435107,0.78284 1.562047,-1.70888 c 0.859126,-0.93988 2.28374,-2.78044 3.165808,-4.09013 1.738711,-2.58162 2.069869,-3.0075 1.543015,-1.98437 -0.8535,1.65746 -5.113247,7.38574 -5.948772,7.99959 -0.396965,0.29165 -0.749116,0.24394 -1.360511,-0.18429 z"
       id="path15496" />
    <path
       style="fill:#486a5a;stroke-width:1.11152"
       d="m 66.019201,211.6501 c -0.404302,-0.61094 -1.223796,-1.66446 -1.821097,-2.34114 -0.597301,-0.67669 -0.431158,-0.54681 0.369207,0.28862 1.285726,1.34205 2.609412,3.16333 2.299076,3.16333 -0.06165,0 -0.442883,-0.49987 -0.847186,-1.11081 z"
       id="path15470" />
    <path
       style="fill:#486a5a;stroke-width:1.11152"
       d="m 71.287712,218.97861 c 3.7e-4,-2.18281 0.04135,-3.04057 0.09107,-1.90613 0.04972,1.13443 0.04941,2.92037 -6.73e-4,3.96875 -0.05009,1.04837 -0.09076,0.1202 -0.09039,-2.06262 z"
       id="path15469" />
    <path
       style="fill:#486a5a;stroke-width:1.11152"
       d="m 72.066346,227.1807 c 9.61e-4,-1.16417 0.04748,-1.60751 0.103369,-0.9852 0.05589,0.62231 0.0551,1.57481 -0.0017,2.11667 -0.05685,0.54186 -0.102582,0.0327 -0.101621,-1.13147 z"
       id="path15468" />
  </g>
</svg>
