<?xml version="1.0" encoding="UTF-8" standalone="no"?>
<!-- Created with Inkscape (http://www.inkscape.org/) -->

<svg
   width="185"
   height="185"
   viewBox="0 0 48.947914 48.947918"
   version="1.1"
   id="svg1"
   xmlns="http://www.w3.org/2000/svg"
   xmlns:svg="http://www.w3.org/2000/svg">
  <defs
     id="defs1" />
  <g
     id="g52705"
     style="display:inline;stroke-width:1.59297"
     transform="matrix(0.62775779,0,0,0.62775779,-104.0235,-118.95168)">
    <path
       style="fill:#241113;stroke-width:1.59297"
       d="m 184.98746,266.61785 c 0.55195,-1.06736 2.14972,-2.3982 3.7124,-3.09219 1.50278,-0.66738 3.18418,-1.109 2.52562,-0.66335 -0.21829,0.14772 -0.58622,0.2704 -0.81764,0.27262 -1.34524,0.013 -5.26778,2.78338 -5.26778,3.72055 0,0.16614 7.3863,0.25511 20.67525,0.24903 11.37139,-0.005 20.73764,0.0529 20.81389,0.12917 0.0763,0.0763 -9.34973,0.13864 -20.94663,0.13864 H 184.5973 Z"
       id="path50032" />
    <path
       style="fill:#f4efd8;stroke-width:1.59297"
       d="m 184.45175,267.3288 c -0.0598,-0.0967 0.2839,-0.69198 0.76368,-1.32291 0.97396,-1.2808 3.193,-2.7394 4.85631,-3.19212 0.76631,-0.20857 1.23909,-0.54221 1.57423,-1.11094 0.74311,-1.26102 2.76397,-3.33092 4.06308,-4.16167 l 1.17628,-0.75221 -0.9117,-0.0268 c -3.50825,-0.10315 -5.7183,0.88273 -10.42495,4.65047 l -1.84034,1.47322 -0.63901,-0.63901 -0.63901,-0.63902 1.12425,-1.02036 c 2.68612,-2.4379 6.20139,-4.65403 8.46466,-5.33637 2.11669,-0.63816 4.70852,-0.51128 6.35721,0.31119 0.54018,0.26948 1.09386,0.30447 2.14632,0.13564 2.73253,-0.43836 5.77603,0.55299 8.4938,2.76665 1.32955,1.08293 1.67107,1.2352 2.77653,1.23795 2.76022,0.007 5.07931,0.98537 7.21363,3.04363 1.2495,1.20497 1.67963,1.44791 3.04271,1.71853 1.87729,0.3727 3.92896,1.41496 4.49955,2.28578 0.22409,0.34201 0.3154,0.62324 0.20291,0.62495 -7.47939,0.11384 -42.22463,0.0756 -42.30014,-0.0466 z m 17.18029,-5.00483 1.50469,-0.81498 -0.49778,-0.63284 c -0.55338,-0.7035 -2.51208,-2.39003 -3.20877,-2.76288 -0.61633,-0.32985 -2.30936,0.53892 -3.98347,2.0441 -2.04606,1.83957 -2.07281,2.04158 -0.28188,2.1281 0.82614,0.0399 2.09345,0.2335 2.81625,0.43019 1.89542,0.51578 1.99527,0.50507 3.65096,-0.39169 z m 5.32274,-1.92205 1.04494,-0.31512 -1.4188,-0.91043 c -1.39816,-0.8972 -3.69688,-1.83275 -4.54468,-1.84962 -0.26065,-0.005 0.26778,0.67644 1.32292,1.70645 0.96632,0.9433 1.93553,1.70805 2.15381,1.69946 0.21829,-0.009 0.8671,-0.15743 1.44181,-0.33074 z"
       id="path52681" />
    <path
       style="fill:#e0d8ae;stroke-width:1.59297"
       d="m 184.47847,267.41634 c -0.19111,-0.19123 1.02112,-1.92909 1.81041,-2.5954 0.92491,-0.7808 3.78105,-2.21058 4.41653,-2.21091 0.22328,-1.2e-4 0.60769,-0.34168 0.85422,-0.75904 0.75254,-1.27395 2.90945,-3.5285 4.0964,-4.28184 l 1.12326,-0.71292 -1.01523,-0.16234 c -1.20708,-0.19302 -3.50444,0.3567 -5.27063,1.26118 -1.04767,0.53651 -3.80796,2.49076 -6.28467,4.44947 -0.55365,0.43785 -0.60085,0.43059 -1.17511,-0.18068 l -0.59829,-0.63685 0.99004,-0.87766 c 2.1445,-1.90105 4.84976,-3.78186 6.72578,-4.67605 1.67154,-0.79672 2.31382,-0.95474 4.25871,-1.04772 1.90388,-0.091 2.5002,-0.0167 3.5344,0.44082 1.04448,0.46202 1.45112,0.51106 2.53438,0.30562 2.58702,-0.49062 5.88963,0.57553 8.58594,2.77171 1.24791,1.01643 1.53723,1.12979 3.20944,1.25755 2.78815,0.21302 4.73775,1.06124 6.53453,2.84302 1.30158,1.29071 1.74164,1.55602 3.04271,1.83445 1.96407,0.42032 4.04,1.43582 4.63991,2.26977 l 0.47301,0.65755 -21.19876,0.0693 c -11.65932,0.0381 -21.23846,0.0296 -21.28698,-0.019 z m 18.45567,-6.0563 c -0.19672,-0.61895 -1.2314,-1.66925 -2.51595,-2.55395 l -1.4554,-1.00238 -1.06988,0.54581 c -1.06736,0.54453 -4.28618,3.34239 -4.28618,3.72564 0,0.11115 0.92273,0.26251 2.05052,0.33635 1.12778,0.0738 2.52677,0.30335 3.10885,0.51001 1.02416,0.3636 1.1096,0.34777 2.64583,-0.49016 0.87313,-0.47625 1.55812,-0.95834 1.52221,-1.07132 z m 3.80955,-2.11691 c -1.43379,-0.92374 -3.83952,-1.92498 -4.62526,-1.92498 -0.31755,0 0.0828,0.56444 1.26669,1.78594 l 1.73098,1.78594 1.49526,-0.38441 1.49527,-0.3844 z"
       id="path52664" />
    <path
       style="fill:#b5c5a9;stroke-width:1.59297"
       d="m 184.61089,267.20511 c 0,-0.44489 1.16638,-1.96906 1.98417,-2.59282 1.04922,-0.80028 3.50686,-1.99604 4.11035,-1.99989 0.22328,-10e-4 0.60769,-0.34405 0.85422,-0.76141 0.74477,-1.26079 2.77765,-3.38278 4.04483,-4.22213 l 1.1936,-0.7906 -1.02028,-0.17238 c -2.2577,-0.38143 -5.28116,0.92592 -9.426,4.07582 l -2.74837,2.08865 -0.56234,-0.59859 -0.56235,-0.59859 1.17197,-1.08028 c 1.93189,-1.78076 4.36911,-3.46466 6.49531,-4.48769 2.45682,-1.1821 5.4218,-1.47905 7.42948,-0.74407 0.78597,0.28773 2.17976,0.45454 4.10104,0.49081 2.69699,0.0509 3.02783,0.1162 4.51165,0.89022 0.88068,0.4594 2.19177,1.30208 2.91355,1.8726 1.16203,0.91854 1.52408,1.05508 3.16159,1.19237 2.83931,0.23803 4.7125,1.06124 6.59256,2.89723 1.38918,1.35661 1.80257,1.60511 3.06127,1.84018 0.80037,0.14947 1.87193,0.44547 2.38125,0.65777 0.93763,0.39083 2.38125,1.60024 2.38125,1.99493 0,0.11829 -9.46547,0.21508 -21.03437,0.21508 -11.56891,0 -21.03438,-0.0752 -21.03438,-0.16721 z m 18.37685,-5.69486 c 0.29,-0.25964 -2.18555,-2.69203 -3.35559,-3.29708 -0.69892,-0.36142 -0.84243,-0.33973 -2.03061,0.30696 -0.70319,0.38272 -1.95811,1.38261 -2.78871,2.22196 l -1.51017,1.52609 2.20256,0.14893 c 1.2114,0.0819 2.6788,0.32393 3.26088,0.53782 1.02517,0.37672 1.10393,0.36373 2.51354,-0.41468 0.80037,-0.44196 1.56901,-0.90547 1.7081,-1.03 z m 3.66638,-2.34919 c -1.55473,-0.9885 -3.65724,-1.84291 -4.53501,-1.84291 -0.31895,0 0.0786,0.56277 1.26601,1.7921 l 1.73098,1.79209 1.54709,-0.37593 1.5471,-0.37593 z"
       id="path52651" />
    <path
       style="fill:#fddb44;stroke-width:1.59297"
       d="m 184.61089,267.20511 c 0,-0.43177 1.15446,-1.95984 1.92234,-2.54447 1.11595,-0.84963 2.76639,-1.67723 3.78107,-1.896 0.48158,-0.10383 0.9812,-0.46651 1.23535,-0.89674 0.76228,-1.29044 2.63594,-3.24624 3.97163,-4.14575 l 1.30534,-0.87907 -1.02446,-0.17308 c -2.5022,-0.42274 -5.73132,1.05848 -10.43125,4.78491 l -1.75353,1.39031 -0.55932,-0.59537 -0.55932,-0.59538 0.98993,-0.93608 c 1.28621,-1.21624 3.84433,-3.12753 5.3767,-4.01717 2.92359,-1.69735 6.3428,-2.22094 8.74299,-1.33882 0.76856,0.28246 2.13609,0.43836 4.06816,0.46379 2.71536,0.0357 3.01773,0.0944 4.51165,0.87477 0.88068,0.46007 2.21663,1.32292 2.96878,1.91746 1.10083,0.87016 1.58091,1.08098 2.46161,1.08098 1.49679,0 4.12475,0.70458 5.40379,1.44879 0.58208,0.33869 1.63201,1.22283 2.33318,1.96476 0.93201,0.98618 1.47054,1.34895 2.0025,1.34895 1.29875,0 3.45486,0.79704 4.3993,1.62627 0.50727,0.44539 0.92231,0.91653 0.92231,1.04697 0,0.13786 -8.80839,0.23718 -21.03437,0.23718 -11.56891,0 -21.03438,-0.0752 -21.03438,-0.16721 z m 16.14954,-4.3378 c 0.4142,-0.29494 1.20649,-0.72613 1.76063,-0.95821 l 1.00754,-0.42196 -1.5875,-1.4479 c -0.87313,-0.79634 -1.91904,-1.62049 -2.32426,-1.83144 -0.68078,-0.3544 -0.8339,-0.33067 -2.0153,0.31233 -0.70319,0.38272 -1.95811,1.38261 -2.78871,2.22196 l -1.51017,1.52609 2.20256,0.14893 c 1.2114,0.0819 2.6788,0.32898 3.26088,0.54905 0.58208,0.22007 1.09948,0.40851 1.14978,0.41877 0.0503,0.0102 0.43034,-0.22268 0.84455,-0.51762 z m 5.89167,-3.73779 c -1.4275,-0.95404 -3.58732,-1.81137 -4.56327,-1.81137 -0.2528,0 0.26229,0.71134 1.30479,1.80192 l 1.72248,1.80192 1.536,-0.38296 1.53601,-0.38296 z"
       id="path52636" />
    <path
       style="fill:#fdd839;stroke-width:1.59297"
       d="m 184.61089,267.20511 c 0,-0.43177 1.15446,-1.95984 1.92234,-2.54447 1.11595,-0.84963 2.76639,-1.67723 3.78107,-1.896 0.48158,-0.10383 0.9812,-0.46651 1.23535,-0.89674 0.76228,-1.29044 2.63594,-3.24624 3.97163,-4.14575 l 1.30534,-0.87907 -1.02446,-0.17308 c -2.5022,-0.42274 -5.73132,1.05848 -10.43125,4.78491 l -1.75353,1.39031 -0.55932,-0.59537 -0.55932,-0.59538 0.98993,-0.93608 c 1.28621,-1.21624 3.84433,-3.12753 5.3767,-4.01717 2.92359,-1.69735 6.3428,-2.22094 8.74299,-1.33882 0.76856,0.28246 2.13609,0.43836 4.06816,0.46379 2.71536,0.0357 3.01773,0.0944 4.51165,0.87477 0.88068,0.46007 2.21663,1.32292 2.96878,1.91746 1.10083,0.87016 1.58091,1.08098 2.46161,1.08098 1.49679,0 4.12475,0.70458 5.40379,1.44879 0.58208,0.33869 1.63201,1.22283 2.33318,1.96476 0.93201,0.98618 1.47054,1.34895 2.0025,1.34895 1.29875,0 3.45486,0.79704 4.3993,1.62627 0.50727,0.44539 0.92231,0.91653 0.92231,1.04697 0,0.13786 -8.80839,0.23718 -21.03437,0.23718 -11.56891,0 -21.03438,-0.0752 -21.03438,-0.16721 z m 16.14954,-4.3378 c 0.4142,-0.29494 1.20649,-0.72613 1.76063,-0.95821 l 1.00754,-0.42196 -1.5875,-1.4479 c -0.87313,-0.79634 -1.91904,-1.62049 -2.32426,-1.83144 -0.68078,-0.3544 -0.8339,-0.33067 -2.0153,0.31233 -0.70319,0.38272 -1.95811,1.38261 -2.78871,2.22196 l -1.51017,1.52609 2.20256,0.14893 c 1.2114,0.0819 2.6788,0.32898 3.26088,0.54905 0.58208,0.22007 1.09948,0.40851 1.14978,0.41877 0.0503,0.0102 0.43034,-0.22268 0.84455,-0.51762 z m 5.89167,-3.73779 c -1.4275,-0.95404 -3.58732,-1.81137 -4.56327,-1.81137 -0.2528,0 0.26229,0.71134 1.30479,1.80192 l 1.72248,1.80192 1.536,-0.38296 1.53601,-0.38296 z"
       id="path52552" />
    <path
       style="fill:#aab497;stroke-width:1.59297"
       d="m 184.61089,267.20511 c 0,-0.43177 1.15446,-1.95984 1.92234,-2.54447 1.11595,-0.84963 2.76639,-1.67723 3.78107,-1.896 0.48158,-0.10383 0.9812,-0.46651 1.23535,-0.89674 0.76228,-1.29044 2.63594,-3.24624 3.97163,-4.14575 l 1.30534,-0.87907 -1.02446,-0.17308 c -2.5022,-0.42274 -5.73132,1.05848 -10.43125,4.78491 l -1.75353,1.39031 -0.55932,-0.59537 -0.55932,-0.59538 0.98993,-0.93608 c 1.28621,-1.21624 3.84433,-3.12753 5.3767,-4.01717 2.92359,-1.69735 6.3428,-2.22094 8.74299,-1.33882 0.76856,0.28246 2.13609,0.43836 4.06816,0.46379 2.71536,0.0357 3.01773,0.0944 4.51165,0.87477 0.88068,0.46007 2.21663,1.32292 2.96878,1.91746 1.10083,0.87016 1.58091,1.08098 2.46161,1.08098 1.49679,0 4.12475,0.70458 5.40379,1.44879 0.58208,0.33869 1.63201,1.22283 2.33318,1.96476 0.93201,0.98618 1.47054,1.34895 2.0025,1.34895 1.29875,0 3.45486,0.79704 4.3993,1.62627 0.50727,0.44539 0.92231,0.91653 0.92231,1.04697 0,0.13786 -8.80839,0.23718 -21.03437,0.23718 -11.56891,0 -21.03438,-0.0752 -21.03438,-0.16721 z m 16.14954,-4.3378 c 0.4142,-0.29494 1.20649,-0.72613 1.76063,-0.95821 l 1.00754,-0.42196 -1.5875,-1.4479 c -0.87313,-0.79634 -1.91904,-1.62049 -2.32426,-1.83144 -0.68078,-0.3544 -0.8339,-0.33067 -2.0153,0.31233 -0.70319,0.38272 -1.95811,1.38261 -2.78871,2.22196 l -1.51017,1.52609 2.20256,0.14893 c 1.2114,0.0819 2.6788,0.32898 3.26088,0.54905 0.58208,0.22007 1.09948,0.40851 1.14978,0.41877 0.0503,0.0102 0.43034,-0.22268 0.84455,-0.51762 z m 5.89167,-3.73779 c -1.4275,-0.95404 -3.58732,-1.81137 -4.56327,-1.81137 -0.2528,0 0.26229,0.71134 1.30479,1.80192 l 1.72248,1.80192 1.536,-0.38296 1.53601,-0.38296 z"
       id="path52431" />
    <path
       style="fill:#fcd016;stroke-width:1.59297"
       d="m 184.61089,267.20511 c 0,-0.092 0.2443,-0.56248 0.54288,-1.04559 0.67925,-1.09906 3.22507,-2.82146 4.8376,-3.27294 1.01005,-0.2828 1.36129,-0.56092 2.03572,-1.61193 0.94604,-1.47427 2.72335,-3.18425 3.99095,-3.83975 l 0.88434,-0.45731 -0.65564,-0.24945 c -2.13258,-0.81137 -6.1014,0.91041 -10.87593,4.71828 l -1.75363,1.39858 -0.57621,-0.61335 -0.57621,-0.61335 1.40379,-1.24079 c 2.20736,-1.95105 5.61213,-4.11327 7.55904,-4.80041 2.11958,-0.74809 4.51024,-0.82998 6.18077,-0.21172 0.76278,0.28231 2.10549,0.44027 3.93586,0.46303 2.4485,0.0304 2.96649,0.12258 4.36563,0.77663 0.87312,0.40814 2.26205,1.27135 3.08651,1.91822 1.13091,0.88733 1.7287,1.17614 2.43437,1.17614 2.84373,0 5.89247,1.29074 7.82059,3.31098 1.14401,1.19866 1.49043,1.40292 2.63748,1.55508 0.72627,0.0963 1.72975,0.34617 2.22997,0.55518 1.01351,0.42347 2.56087,1.63835 2.56087,2.01062 0,0.143 -8.55602,0.24106 -21.03437,0.24106 -11.56891,0 -21.03438,-0.0752 -21.03438,-0.16721 z m 17.16414,-4.81578 1.68602,-0.87814 -0.89227,-0.92708 c -0.49074,-0.50989 -1.4663,-1.35064 -2.16791,-1.86832 l -1.27564,-0.94125 -1.27852,0.59883 c -0.70318,0.32935 -2.0135,1.34041 -2.91183,2.24679 l -1.63331,1.64796 2.2031,0.14895 c 1.2117,0.0819 2.67935,0.32855 3.26143,0.54805 0.58208,0.2195 1.11786,0.37732 1.19063,0.35072 0.0728,-0.0266 0.89099,-0.44353 1.8183,-0.92651 z m 5.23884,-1.93528 1.16819,-0.29416 -1.39721,-0.94093 c -1.53817,-1.03586 -3.59429,-1.90081 -4.51854,-1.90081 -0.5087,0 -0.34494,0.26635 1.12731,1.83342 0.97295,1.03561 1.88122,1.78189 2.08727,1.71502 0.20064,-0.0651 0.89048,-0.25076 1.53298,-0.41254 z"
       id="path52310" />
    <path
       style="fill:#92ad8e;stroke-width:1.59297"
       d="m 184.61089,267.20511 c 0,-0.092 0.2443,-0.56248 0.54288,-1.04559 0.67925,-1.09906 3.22507,-2.82146 4.8376,-3.27294 1.01005,-0.2828 1.36129,-0.56092 2.03572,-1.61193 0.94604,-1.47427 2.72335,-3.18425 3.99095,-3.83975 l 0.88434,-0.45731 -0.65564,-0.24945 c -2.13258,-0.81137 -6.1014,0.91041 -10.87593,4.71828 l -1.75363,1.39858 -0.57621,-0.61335 -0.57621,-0.61335 1.40379,-1.24079 c 2.20736,-1.95105 5.61213,-4.11327 7.55904,-4.80041 2.11958,-0.74809 4.51024,-0.82998 6.18077,-0.21172 0.76278,0.28231 2.10549,0.44027 3.93586,0.46303 2.4485,0.0304 2.96649,0.12258 4.36563,0.77663 0.87312,0.40814 2.26205,1.27135 3.08651,1.91822 1.13091,0.88733 1.7287,1.17614 2.43437,1.17614 2.84373,0 5.89247,1.29074 7.82059,3.31098 1.14401,1.19866 1.49043,1.40292 2.63748,1.55508 0.72627,0.0963 1.72975,0.34617 2.22997,0.55518 1.01351,0.42347 2.56087,1.63835 2.56087,2.01062 0,0.143 -8.55602,0.24106 -21.03437,0.24106 -11.56891,0 -21.03438,-0.0752 -21.03438,-0.16721 z m 17.16414,-4.81578 1.68602,-0.87814 -0.89227,-0.92708 c -0.49074,-0.50989 -1.4663,-1.35064 -2.16791,-1.86832 l -1.27564,-0.94125 -1.27852,0.59883 c -0.70318,0.32935 -2.0135,1.34041 -2.91183,2.24679 l -1.63331,1.64796 2.2031,0.14895 c 1.2117,0.0819 2.67935,0.32855 3.26143,0.54805 0.58208,0.2195 1.11786,0.37732 1.19063,0.35072 0.0728,-0.0266 0.89099,-0.44353 1.8183,-0.92651 z m 5.23884,-1.93528 1.16819,-0.29416 -1.39721,-0.94093 c -1.53817,-1.03586 -3.59429,-1.90081 -4.51854,-1.90081 -0.5087,0 -0.34494,0.26635 1.12731,1.83342 0.97295,1.03561 1.88122,1.78189 2.08727,1.71502 0.20064,-0.0651 0.89048,-0.25076 1.53298,-0.41254 z"
       id="path52278" />
    <path
       style="fill:#79a283;stroke-width:1.59297"
       d="m 184.61089,267.20511 c 0,-0.092 0.2443,-0.56248 0.54288,-1.04559 0.67925,-1.09906 3.22507,-2.82146 4.8376,-3.27294 1.01005,-0.2828 1.36129,-0.56092 2.03572,-1.61193 0.94604,-1.47427 2.72335,-3.18425 3.99095,-3.83975 l 0.88434,-0.45731 -0.65564,-0.24945 c -2.13258,-0.81137 -6.1014,0.91041 -10.87593,4.71828 l -1.75363,1.39858 -0.57621,-0.61335 -0.57621,-0.61335 1.40379,-1.24079 c 2.20736,-1.95105 5.61213,-4.11327 7.55904,-4.80041 2.11958,-0.74809 4.51024,-0.82998 6.18077,-0.21172 0.76278,0.28231 2.10549,0.44027 3.93586,0.46303 2.4485,0.0304 2.96649,0.12258 4.36563,0.77663 0.87312,0.40814 2.26205,1.27135 3.08651,1.91822 1.13091,0.88733 1.7287,1.17614 2.43437,1.17614 2.84373,0 5.89247,1.29074 7.82059,3.31098 1.14401,1.19866 1.49043,1.40292 2.63748,1.55508 0.72627,0.0963 1.72975,0.34617 2.22997,0.55518 1.01351,0.42347 2.56087,1.63835 2.56087,2.01062 0,0.143 -8.55602,0.24106 -21.03437,0.24106 -11.56891,0 -21.03438,-0.0752 -21.03438,-0.16721 z m 17.16414,-4.81578 1.68602,-0.87814 -0.89227,-0.92708 c -0.49074,-0.50989 -1.4663,-1.35064 -2.16791,-1.86832 l -1.27564,-0.94125 -1.27852,0.59883 c -0.70318,0.32935 -2.0135,1.34041 -2.91183,2.24679 l -1.63331,1.64796 2.2031,0.14895 c 1.2117,0.0819 2.67935,0.32855 3.26143,0.54805 0.58208,0.2195 1.11786,0.37732 1.19063,0.35072 0.0728,-0.0266 0.89099,-0.44353 1.8183,-0.92651 z m 5.23884,-1.93528 1.16819,-0.29416 -1.39721,-0.94093 c -1.53817,-1.03586 -3.59429,-1.90081 -4.51854,-1.90081 -0.5087,0 -0.34494,0.26635 1.12731,1.83342 0.97295,1.03561 1.88122,1.78189 2.08727,1.71502 0.20064,-0.0651 0.89048,-0.25076 1.53298,-0.41254 z"
       id="path52246" />
    <path
       style="fill:#939c6b;stroke-width:1.59297"
       d="m 184.61089,267.20511 c 0,-0.092 0.2443,-0.56248 0.54288,-1.04559 0.67925,-1.09906 3.22507,-2.82146 4.8376,-3.27294 1.01005,-0.2828 1.36129,-0.56092 2.03572,-1.61193 0.94604,-1.47427 2.72335,-3.18425 3.99095,-3.83975 l 0.88434,-0.45731 -0.65564,-0.24945 c -2.13258,-0.81137 -6.1014,0.91041 -10.87593,4.71828 l -1.75363,1.39858 -0.57621,-0.61335 -0.57621,-0.61335 1.40379,-1.24079 c 2.20736,-1.95105 5.61213,-4.11327 7.55904,-4.80041 2.11958,-0.74809 4.51024,-0.82998 6.18077,-0.21172 0.76278,0.28231 2.10549,0.44027 3.93586,0.46303 2.4485,0.0304 2.96649,0.12258 4.36563,0.77663 0.87312,0.40814 2.26205,1.27135 3.08651,1.91822 1.13091,0.88733 1.7287,1.17614 2.43437,1.17614 2.84373,0 5.89247,1.29074 7.82059,3.31098 1.14401,1.19866 1.49043,1.40292 2.63748,1.55508 0.72627,0.0963 1.72975,0.34617 2.22997,0.55518 1.01351,0.42347 2.56087,1.63835 2.56087,2.01062 0,0.143 -8.55602,0.24106 -21.03437,0.24106 -11.56891,0 -21.03438,-0.0752 -21.03438,-0.16721 z m 17.16414,-4.81578 1.68602,-0.87814 -0.89227,-0.92708 c -0.49074,-0.50989 -1.4663,-1.35064 -2.16791,-1.86832 l -1.27564,-0.94125 -1.27852,0.59883 c -0.70318,0.32935 -2.0135,1.34041 -2.91183,2.24679 l -1.63331,1.64796 2.2031,0.14895 c 1.2117,0.0819 2.67935,0.32855 3.26143,0.54805 0.58208,0.2195 1.11786,0.37732 1.19063,0.35072 0.0728,-0.0266 0.89099,-0.44353 1.8183,-0.92651 z m 5.23884,-1.93528 1.16819,-0.29416 -1.39721,-0.94093 c -1.53817,-1.03586 -3.59429,-1.90081 -4.51854,-1.90081 -0.5087,0 -0.34494,0.26635 1.12731,1.83342 0.97295,1.03561 1.88122,1.78189 2.08727,1.71502 0.20064,-0.0651 0.89048,-0.25076 1.53298,-0.41254 z"
       id="path52214" />
    <path
       style="fill:#64906c;stroke-width:1.59297"
       d="m 184.61089,267.10182 c 0,-0.69037 2.36852,-2.77651 4.09358,-3.60553 1.01454,-0.48756 1.97337,-0.88647 2.13073,-0.88647 0.15736,0 0.78219,-0.70346 1.38853,-1.56323 1.07457,-1.52375 2.72497,-3.06001 3.99843,-3.7219 0.81013,-0.42108 0.31555,-0.79043 -1.06621,-0.79624 -2.44038,-0.0103 -5.93525,1.74393 -9.92407,4.98119 l -1.62797,1.32124 -0.56977,-0.60649 -0.56976,-0.60649 1.40398,-1.18673 c 5.64615,-4.77247 9.79935,-6.33883 13.49589,-5.08991 0.967,0.32671 2.26361,0.48108 4.17997,0.49766 3.19636,0.0276 4.42752,0.46906 7.34294,2.6327 1.06312,0.78899 1.92489,1.22778 2.41128,1.22778 2.83841,0 6.30042,1.4728 8.02845,3.41544 0.97916,1.10077 1.31093,1.29881 2.41579,1.44205 2.06518,0.26774 4.93696,1.77837 4.93696,2.59697 0,0.12015 -9.46547,0.21846 -21.03437,0.21846 -14.153,0 -21.03438,-0.0885 -21.03438,-0.2705 z m 17.03294,-4.65516 1.80207,-0.9569 -1.14494,-1.16662 c -0.62972,-0.64164 -1.58658,-1.47266 -2.12635,-1.84672 -0.89861,-0.62274 -1.06349,-0.65302 -1.95444,-0.35898 -0.55667,0.18371 -1.82379,1.12867 -2.9612,2.20832 l -1.98817,1.88718 2.08619,0.17945 c 1.14741,0.0987 2.56244,0.35271 3.14453,0.56447 0.58208,0.21177 1.12176,0.39891 1.19928,0.41587 0.0775,0.017 0.95188,-0.39977 1.94303,-0.92607 z m 5.41803,-1.95537 1.15201,-0.29794 -0.88743,-0.66475 c -1.43529,-1.07514 -3.31817,-1.94464 -4.58798,-2.11869 l -1.18375,-0.16225 1.7807,1.86975 c 1.02373,1.07493 1.9494,1.82768 2.17756,1.77079 0.21829,-0.0544 0.91528,-0.23304 1.54889,-0.39691 z"
       id="path52182" />
    <path
       style="fill:#956436;stroke-width:1.59297"
       d="m 184.61089,267.10182 c 0,-0.69037 2.36852,-2.77651 4.09358,-3.60553 1.01454,-0.48756 1.97337,-0.88647 2.13073,-0.88647 0.15736,0 0.78219,-0.70346 1.38853,-1.56323 1.07457,-1.52375 2.72497,-3.06001 3.99843,-3.7219 0.81013,-0.42108 0.31555,-0.79043 -1.06621,-0.79624 -2.44038,-0.0103 -5.93525,1.74393 -9.92407,4.98119 l -1.62797,1.32124 -0.56977,-0.60649 -0.56976,-0.60649 1.40398,-1.18673 c 5.64615,-4.77247 9.79935,-6.33883 13.49589,-5.08991 0.967,0.32671 2.26361,0.48108 4.17997,0.49766 3.19636,0.0276 4.42752,0.46906 7.34294,2.6327 1.06312,0.78899 1.92489,1.22778 2.41128,1.22778 2.83841,0 6.30042,1.4728 8.02845,3.41544 0.97916,1.10077 1.31093,1.29881 2.41579,1.44205 2.06518,0.26774 4.93696,1.77837 4.93696,2.59697 0,0.12015 -9.46547,0.21846 -21.03437,0.21846 -14.153,0 -21.03438,-0.0885 -21.03438,-0.2705 z m 17.03294,-4.65516 1.80207,-0.9569 -1.14494,-1.16662 c -0.62972,-0.64164 -1.58658,-1.47266 -2.12635,-1.84672 -0.89861,-0.62274 -1.06349,-0.65302 -1.95444,-0.35898 -0.55667,0.18371 -1.82379,1.12867 -2.9612,2.20832 l -1.98817,1.88718 2.08619,0.17945 c 1.14741,0.0987 2.56244,0.35271 3.14453,0.56447 0.58208,0.21177 1.12176,0.39891 1.19928,0.41587 0.0775,0.017 0.95188,-0.39977 1.94303,-0.92607 z m 5.41803,-1.95537 1.15201,-0.29794 -0.88743,-0.66475 c -1.43529,-1.07514 -3.31817,-1.94464 -4.58798,-2.11869 l -1.18375,-0.16225 1.7807,1.86975 c 1.02373,1.07493 1.9494,1.82768 2.17756,1.77079 0.21829,-0.0544 0.91528,-0.23304 1.54889,-0.39691 z"
       id="path52150" />
    <path
       style="fill:#4e7653;stroke-width:1.59297"
       d="m 184.61089,267.14499 c 0,-0.12504 0.49175,-0.78599 1.09277,-1.46879 1.04023,-1.18176 3.25918,-2.53146 4.75198,-2.89045 0.43892,-0.10555 1.08489,-0.73438 1.79645,-1.74878 1.08384,-1.54512 2.69223,-3.04801 3.97663,-3.71579 0.58908,-0.30628 0.60143,-0.35177 0.16215,-0.5976 -0.26151,-0.14635 -1.16588,-0.20349 -2.0097,-0.12697 -2.03481,0.18451 -4.76966,1.53242 -7.74684,3.81813 -1.2882,0.98901 -2.50693,1.91561 -2.7083,2.05912 -0.26237,0.18697 -0.52118,0.10584 -0.91334,-0.28631 l -0.54721,-0.54722 1.40343,-1.18722 c 4.90352,-4.14807 8.36781,-5.74537 11.77146,-5.42753 0.91718,0.0857 1.93615,0.30052 2.26437,0.4775 0.35427,0.19102 1.77945,0.33317 3.50719,0.34983 3.39946,0.0328 4.64514,0.47926 7.54063,2.70281 0.94588,0.72638 1.87315,1.26943 2.06059,1.20678 0.70792,-0.23662 3.95588,0.51442 5.53561,1.28003 1.01219,0.49054 2.07891,1.28624 2.77813,2.07231 0.97916,1.10077 1.31093,1.29881 2.41579,1.44205 2.06518,0.26774 4.93696,1.77837 4.93696,2.59697 0,0.12015 -9.46547,0.21846 -21.03437,0.21846 -11.56891,0 -21.03438,-0.1023 -21.03438,-0.22733 z m 16.93333,-4.59385 c 0.94589,-0.47705 1.77933,-0.90954 1.85209,-0.96108 0.24809,-0.17577 -3.50513,-3.48453 -4.1307,-3.64153 -0.85617,-0.21489 -2.56075,0.82721 -4.46433,2.72929 l -1.53633,1.53512 2.09896,0.1928 c 1.15443,0.10604 2.57079,0.36554 3.14745,0.57667 0.57667,0.21113 1.10802,0.39562 1.18078,0.40999 0.0728,0.0144 0.9062,-0.36421 1.85208,-0.84126 z m 5.08041,-1.88046 c 0.68418,-0.18055 1.31378,-0.3981 1.39913,-0.48345 0.42947,-0.42947 -4.29611,-2.85417 -5.58034,-2.86327 l -0.82059,-0.006 1.74664,1.83753 c 0.96064,1.01064 1.80616,1.83882 1.87892,1.84041 0.0728,0.002 0.69207,-0.14485 1.37624,-0.32541 z"
       id="path52118" />
    <path
       style="fill:#268256;stroke-width:1.59297"
       d="m 184.61089,267.14499 c 0,-0.12504 0.49075,-0.78486 1.09056,-1.46627 1.08358,-1.23102 2.26477,-1.98162 4.37916,-2.78282 0.82562,-0.31285 1.45957,-0.88107 2.51354,-2.25293 0.7752,-1.009 2.03444,-2.25448 2.79831,-2.76772 1.14673,-0.77048 1.31338,-0.97541 0.95589,-1.17546 -0.23812,-0.13327 -1.12336,-0.1797 -1.96718,-0.10318 -2.03481,0.18451 -4.76966,1.53242 -7.74684,3.81813 -1.2882,0.98901 -2.50693,1.91561 -2.7083,2.05912 -0.26237,0.18697 -0.52118,0.10584 -0.91334,-0.28631 l -0.54721,-0.54722 1.40343,-1.18722 c 4.90352,-4.14807 8.36781,-5.74537 11.77146,-5.42753 0.91718,0.0857 1.93615,0.29953 2.26437,0.47529 0.34603,0.18529 1.81966,0.3369 3.50719,0.36081 2.35298,0.0333 3.15358,0.15069 4.17995,0.61263 1.38415,0.62298 3.1289,1.77189 4.12821,2.71841 0.48802,0.46225 1.0033,0.61973 2.22348,0.67953 3.15695,0.15472 5.93186,1.42552 7.57355,3.46838 0.73334,0.91254 1.0249,1.07272 2.20756,1.21279 1.61562,0.19134 4.10749,1.3853 4.64078,2.22359 l 0.37872,0.59531 h -21.06664 c -11.58666,0 -21.06665,-0.1023 -21.06665,-0.22733 z m 16.93333,-4.59385 c 0.94589,-0.47705 1.77933,-0.90954 1.85209,-0.96108 0.24809,-0.17577 -3.50513,-3.48453 -4.1307,-3.64153 -0.85617,-0.21489 -2.56075,0.82721 -4.46433,2.72929 l -1.53633,1.53512 2.09896,0.1928 c 1.15443,0.10604 2.57079,0.36554 3.14745,0.57667 0.57667,0.21113 1.10802,0.39562 1.18078,0.40999 0.0728,0.0144 0.9062,-0.36421 1.85208,-0.84126 z m 5.08041,-1.88046 c 0.68418,-0.18055 1.31378,-0.3981 1.39913,-0.48345 0.19165,-0.19165 -1.96159,-1.59025 -3.56912,-2.31825 -0.65484,-0.29657 -1.66687,-0.54138 -2.24896,-0.54403 l -1.05833,-0.005 0.80307,0.48973 c 0.44168,0.26935 1.31597,1.10234 1.94286,1.85109 0.62689,0.74876 1.21801,1.35612 1.3136,1.34969 0.0956,-0.006 0.73358,-0.1594 1.41775,-0.33996 z"
       id="path52086" />
    <path
       style="fill:#1c8254;stroke-width:1.59297"
       d="m 184.61089,267.14498 c 0,-0.12504 0.49075,-0.78486 1.09056,-1.46627 1.08358,-1.23102 2.26477,-1.98162 4.37916,-2.78282 0.82562,-0.31285 1.45957,-0.88107 2.51354,-2.25293 0.7752,-1.009 2.03444,-2.25448 2.79831,-2.76772 1.14673,-0.77048 1.31338,-0.97541 0.95589,-1.17546 -0.23812,-0.13327 -1.12336,-0.1797 -1.96718,-0.10318 -2.03481,0.18451 -4.76966,1.53242 -7.74684,3.81813 -1.2882,0.98901 -2.50693,1.91561 -2.7083,2.05912 -0.26237,0.18697 -0.52118,0.10584 -0.91334,-0.28631 l -0.54721,-0.54722 1.40343,-1.18722 c 4.90352,-4.14807 8.36781,-5.74537 11.77146,-5.42753 0.91718,0.0857 1.93615,0.29953 2.26437,0.47529 0.34603,0.18529 1.81966,0.3369 3.50719,0.36081 2.35298,0.0333 3.15358,0.15069 4.17995,0.61263 1.38415,0.62298 3.1289,1.77189 4.12821,2.71841 0.48802,0.46225 1.0033,0.61973 2.22348,0.67953 3.15695,0.15472 5.93186,1.42552 7.57355,3.46838 0.73334,0.91254 1.0249,1.07272 2.20756,1.21279 1.61562,0.19134 4.10749,1.3853 4.64078,2.22359 l 0.37872,0.59531 h -21.06664 c -11.58666,0 -21.06665,-0.1023 -21.06665,-0.22733 z m 16.93333,-4.59385 c 0.94589,-0.47705 1.77933,-0.90954 1.85209,-0.96108 0.24809,-0.17577 -3.50513,-3.48453 -4.1307,-3.64153 -0.85617,-0.21489 -2.56075,0.82721 -4.46433,2.72929 l -1.53633,1.53512 2.09896,0.1928 c 1.15443,0.10604 2.57079,0.36554 3.14745,0.57667 0.57667,0.21113 1.10802,0.39562 1.18078,0.40999 0.0728,0.0144 0.9062,-0.36421 1.85208,-0.84126 z m 5.08041,-1.88046 c 0.68418,-0.18055 1.31378,-0.3981 1.39913,-0.48345 0.19165,-0.19165 -1.96159,-1.59025 -3.56912,-2.31825 -0.65484,-0.29657 -1.66687,-0.54138 -2.24896,-0.54403 l -1.05833,-0.005 0.80307,0.48973 c 0.44168,0.26935 1.31597,1.10234 1.94286,1.85109 0.62689,0.74876 1.21801,1.35612 1.3136,1.34969 0.0956,-0.006 0.73358,-0.1594 1.41775,-0.33996 z"
       id="path52039" />
    <path
       style="fill:#257b50;stroke-width:1.59297"
       d="m 184.61089,267.14505 c 0,-0.12504 0.49075,-0.78486 1.09056,-1.46627 1.08358,-1.23102 2.26477,-1.98162 4.37916,-2.78282 0.82562,-0.31285 1.45957,-0.88107 2.51354,-2.25293 0.7752,-1.009 2.03444,-2.25448 2.79831,-2.76772 1.14673,-0.77048 1.31338,-0.97541 0.95589,-1.17546 -0.23812,-0.13327 -1.12336,-0.1797 -1.96718,-0.10318 -2.03481,0.18451 -4.76966,1.53242 -7.74684,3.81813 -1.2882,0.98901 -2.50693,1.91561 -2.7083,2.05912 -0.26237,0.18697 -0.52118,0.10584 -0.91334,-0.28631 l -0.54721,-0.54722 1.40343,-1.18722 c 4.90352,-4.14807 8.36781,-5.74537 11.77146,-5.42753 0.91718,0.0857 1.93615,0.29953 2.26437,0.47529 0.34603,0.18529 1.81966,0.3369 3.50719,0.36081 2.35298,0.0333 3.15358,0.15069 4.17995,0.61263 1.38415,0.62298 3.1289,1.77189 4.12821,2.71841 0.48802,0.46225 1.0033,0.61973 2.22348,0.67953 3.15695,0.15472 5.93186,1.42552 7.57355,3.46838 0.73334,0.91254 1.0249,1.07272 2.20756,1.21279 1.61562,0.19134 4.10749,1.3853 4.64078,2.22359 l 0.37872,0.59531 h -21.06664 c -11.58666,0 -21.06665,-0.1023 -21.06665,-0.22733 z m 16.93333,-4.59385 c 0.94589,-0.47705 1.77933,-0.90954 1.85209,-0.96108 0.24809,-0.17577 -3.50513,-3.48453 -4.1307,-3.64153 -0.85617,-0.21489 -2.56075,0.82721 -4.46433,2.72929 l -1.53633,1.53512 2.09896,0.1928 c 1.15443,0.10604 2.57079,0.36554 3.14745,0.57667 0.57667,0.21113 1.10802,0.39562 1.18078,0.40999 0.0728,0.0144 0.9062,-0.36421 1.85208,-0.84126 z m 5.08041,-1.88046 c 0.68418,-0.18055 1.31378,-0.3981 1.39913,-0.48345 0.19165,-0.19165 -1.96159,-1.59025 -3.56912,-2.31825 -0.65484,-0.29657 -1.66687,-0.54138 -2.24896,-0.54403 l -1.05833,-0.005 0.80307,0.48973 c 0.44168,0.26935 1.31597,1.10234 1.94286,1.85109 0.62689,0.74876 1.21801,1.35612 1.3136,1.34969 0.0956,-0.006 0.73358,-0.1594 1.41775,-0.33996 z"
       id="path51984" />
    <path
       style="fill:#15774b;stroke-width:1.59297"
       d="m 184.61089,267.14499 c 0,-0.12504 0.49075,-0.78486 1.09056,-1.46627 1.08358,-1.23102 2.26477,-1.98162 4.37916,-2.78282 0.82562,-0.31285 1.45957,-0.88107 2.51354,-2.25293 0.7752,-1.009 2.03444,-2.25448 2.79831,-2.76772 1.14673,-0.77048 1.31338,-0.97541 0.95589,-1.17546 -0.23812,-0.13327 -1.12336,-0.1797 -1.96718,-0.10318 -2.03481,0.18451 -4.76966,1.53242 -7.74684,3.81813 -1.2882,0.98901 -2.50693,1.91561 -2.7083,2.05912 -0.26237,0.18697 -0.52118,0.10584 -0.91334,-0.28631 l -0.54721,-0.54722 1.40343,-1.18722 c 4.90352,-4.14807 8.36781,-5.74537 11.77146,-5.42753 0.91718,0.0857 1.93615,0.29953 2.26437,0.47529 0.34603,0.18529 1.81966,0.3369 3.50719,0.36081 2.35298,0.0333 3.15358,0.15069 4.17995,0.61263 1.38415,0.62298 3.1289,1.77189 4.12821,2.71841 0.48802,0.46225 1.0033,0.61973 2.22348,0.67953 3.15695,0.15472 5.93186,1.42552 7.57355,3.46838 0.73334,0.91254 1.0249,1.07272 2.20756,1.21279 1.61562,0.19134 4.10749,1.3853 4.64078,2.22359 l 0.37872,0.59531 h -21.06664 c -11.58666,0 -21.06665,-0.1023 -21.06665,-0.22733 z m 16.93333,-4.59385 c 0.94589,-0.47705 1.77933,-0.90954 1.85209,-0.96108 0.24809,-0.17577 -3.50513,-3.48453 -4.1307,-3.64153 -0.85617,-0.21489 -2.56075,0.82721 -4.46433,2.72929 l -1.53633,1.53512 2.09896,0.1928 c 1.15443,0.10604 2.57079,0.36554 3.14745,0.57667 0.57667,0.21113 1.10802,0.39562 1.18078,0.40999 0.0728,0.0144 0.9062,-0.36421 1.85208,-0.84126 z m 5.08041,-1.88046 c 0.68418,-0.18055 1.31378,-0.3981 1.39913,-0.48345 0.19165,-0.19165 -1.96159,-1.59025 -3.56912,-2.31825 -0.65484,-0.29657 -1.66687,-0.54138 -2.24896,-0.54403 l -1.05833,-0.005 0.80307,0.48973 c 0.44168,0.26935 1.31597,1.10234 1.94286,1.85109 0.62689,0.74876 1.21801,1.35612 1.3136,1.34969 0.0956,-0.006 0.73358,-0.1594 1.41775,-0.33996 z"
       id="path51808" />
    <path
       style="fill:#534430;stroke-width:1.59297"
       d="m 184.61089,267.14499 c 0,-0.12504 0.49075,-0.78486 1.09056,-1.46627 1.08358,-1.23102 2.26477,-1.98162 4.37916,-2.78282 0.82562,-0.31285 1.45957,-0.88107 2.51354,-2.25293 0.7752,-1.009 2.03444,-2.25448 2.79831,-2.76772 1.14673,-0.77048 1.31338,-0.97541 0.95589,-1.17546 -0.23812,-0.13327 -1.12336,-0.1797 -1.96718,-0.10318 -2.03481,0.18451 -4.76966,1.53242 -7.74684,3.81813 -1.2882,0.98901 -2.50693,1.91561 -2.7083,2.05912 -0.26237,0.18697 -0.52118,0.10584 -0.91334,-0.28631 l -0.54721,-0.54722 1.40343,-1.18722 c 4.90352,-4.14807 8.36781,-5.74537 11.77146,-5.42753 0.91718,0.0857 1.93615,0.29953 2.26437,0.47529 0.34603,0.18529 1.81966,0.3369 3.50719,0.36081 2.35298,0.0333 3.15358,0.15069 4.17995,0.61263 1.38415,0.62298 3.1289,1.77189 4.12821,2.71841 0.48802,0.46225 1.0033,0.61973 2.22348,0.67953 3.15695,0.15472 5.93186,1.42552 7.57355,3.46838 0.73334,0.91254 1.0249,1.07272 2.20756,1.21279 1.61562,0.19134 4.10749,1.3853 4.64078,2.22359 l 0.37872,0.59531 h -21.06664 c -11.58666,0 -21.06665,-0.1023 -21.06665,-0.22733 z m 16.93333,-4.59385 c 0.94589,-0.47705 1.77933,-0.90954 1.85209,-0.96108 0.24809,-0.17577 -3.50513,-3.48453 -4.1307,-3.64153 -0.85617,-0.21489 -2.56075,0.82721 -4.46433,2.72929 l -1.53633,1.53512 2.09896,0.1928 c 1.15443,0.10604 2.57079,0.36554 3.14745,0.57667 0.57667,0.21113 1.10802,0.39562 1.18078,0.40999 0.0728,0.0144 0.9062,-0.36421 1.85208,-0.84126 z m 5.08041,-1.88046 c 0.68418,-0.18055 1.31378,-0.3981 1.39913,-0.48345 0.19165,-0.19165 -1.96159,-1.59025 -3.56912,-2.31825 -0.65484,-0.29657 -1.66687,-0.54138 -2.24896,-0.54403 l -1.05833,-0.005 0.80307,0.48973 c 0.44168,0.26935 1.31597,1.10234 1.94286,1.85109 0.62689,0.74876 1.21801,1.35612 1.3136,1.34969 0.0956,-0.006 0.73358,-0.1594 1.41775,-0.33996 z"
       id="path51303" />
    <path
       style="fill:#4e3230;stroke-width:1.59297"
       d="m 206.6545,259.02725 c -1.44814,-0.97821 -3.21266,-1.70638 -4.15135,-1.71315 -0.30913,-0.002 -0.74064,-0.12298 -0.95893,-0.26834 -0.64421,-0.42899 1.82813,0.004 3.0749,0.53877 1.19862,0.51392 4.08534,2.38242 3.66845,2.37449 -0.14358,-0.003 -0.87846,-0.42203 -1.63307,-0.93177 z"
       id="path50822" />
    <path
       style="fill:#4e3230;stroke-width:1.59297"
       d="m 202.87943,259.2099 c -1.09515,-1.12352 -1.62459,-1.80601 -1.19063,-1.5348 0.42981,0.26861 1.37893,1.14485 2.10916,1.94719 l 1.32769,1.45879 1.05356,-0.29249 c 0.57946,-0.16087 1.29168,-0.27901 1.58272,-0.26253 0.5647,0.032 -1.84447,0.71108 -2.51354,0.70854 -0.21828,-8.4e-4 -1.28431,-0.91195 -2.36896,-2.0247 z"
       id="path50819" />
    <path
       style="fill:#4e3230;stroke-width:1.59297"
       d="m 198.10464,263.23876 c -0.65484,-0.20739 -1.98183,-0.40398 -2.94886,-0.43686 -0.96704,-0.0329 -1.69454,-0.16464 -1.61668,-0.29278 0.19253,-0.31687 3.36607,10e-4 4.9766,0.49919 1.30418,0.40304 1.31472,0.40144 3.02852,-0.46004 0.94589,-0.47547 1.77235,-0.8972 1.83659,-0.93718 0.22567,-0.14047 -2.70836,-2.92871 -3.57027,-3.39288 -0.84028,-0.45252 -0.91309,-0.45105 -2.01643,0.0408 -0.62957,0.28064 -1.94835,1.32068 -2.93061,2.3112 -0.98227,0.99051 -1.78594,1.69492 -1.78594,1.56534 0,-0.48539 3.37438,-3.45252 4.6772,-4.11271 l 1.35426,-0.68625 1.15146,0.81674 c 1.52595,1.08237 3.40041,2.89965 3.40041,3.29668 0,0.38921 -3.28192,2.22829 -3.91171,2.19199 -0.24965,-0.0144 -0.98969,-0.19584 -1.64454,-0.40323 z"
       id="path50809" />
    <path
       style="fill:#4e3230;stroke-width:1.59297"
       d="m 184.98746,266.61786 c 0.76291,-1.47532 4.08322,-3.7328 5.50207,-3.74086 0.25007,-0.001 0.91743,-0.62767 1.48303,-1.39165 0.5656,-0.76398 1.37303,-1.75548 1.79429,-2.20332 0.92194,-0.98012 2.96561,-2.36591 3.17713,-2.15439 0.0833,0.0833 -0.22386,0.34561 -0.68264,0.58286 -1.27472,0.65918 -2.86474,2.20233 -4.01598,3.89761 -0.69187,1.01883 -1.21887,1.53089 -1.57557,1.53089 -1.35763,0 -5.52973,2.77772 -5.52973,3.68161 0,0.144 8.31957,0.25309 20.54154,0.26933 18.75337,0.0249 20.51113,-0.009 20.19218,-0.39366 -0.56415,-0.67976 -2.12852,-1.36665 -3.91133,-1.7174 -1.48018,-0.2912 -1.8062,-0.47852 -2.98796,-1.71674 -1.753,-1.83675 -3.90454,-2.81244 -6.58054,-2.98417 -1.88334,-0.12087 -2.06017,-0.18872 -3.44098,-1.32038 -2.67774,-2.19456 -5.86277,-3.23252 -8.46708,-2.75933 -0.93223,0.16939 -1.47773,0.10409 -2.51354,-0.3009 -3.67743,-1.43781 -7.94319,-0.0878 -13.11081,4.14926 -1.51303,1.24057 -1.81632,1.60925 -1.56901,1.90724 0.25282,0.30463 0.78471,0.005 3.03337,-1.70937 3.66932,-2.7973 5.75778,-3.7781 8.36994,-3.93078 1.10834,-0.0648 2.07924,-0.0141 2.15755,0.11261 0.0783,0.12671 -0.76898,0.23038 -1.88287,0.23038 -1.69119,0 -2.30881,0.13082 -3.74431,0.7931 -1.65066,0.76153 -5.17197,3.17403 -6.66964,4.56946 -0.69953,0.65177 -0.7319,0.65636 -1.42556,0.20186 l -0.70977,-0.46506 1.26856,-1.09447 c 6.0324,-5.20452 10.49659,-6.74296 14.48073,-4.9903 0.87826,0.38635 1.32767,0.44098 2.05078,0.24926 2.41273,-0.63967 6.48681,0.6805 9.00002,2.91638 1.12475,1.00063 1.31095,1.07002 3.175,1.18323 2.82466,0.17155 4.66129,0.96267 6.49729,2.79867 1.32202,1.32201 1.69988,1.54519 3.09949,1.83069 1.9475,0.39725 3.85942,1.32795 4.37053,2.1275 l 0.38054,0.59531 H 205.67074 184.5973 Z"
       id="path50791" />
    <path
       style="fill:#066635;stroke-width:1.59297"
       d="m 191.71772,255.58956 c 0.48902,-0.22739 1.62011,-0.45311 2.51354,-0.5016 0.89343,-0.0485 1.26724,-0.0395 0.83067,0.02 -0.98372,0.13398 -2.99791,0.53742 -3.70475,0.74206 -0.29072,0.0842 -0.12847,-0.033 0.36054,-0.26042 z"
       id="path50311" />
    <path
       style="fill:#066635;stroke-width:1.59297"
       d="m 197.44318,255.70687 c -0.7276,-0.26522 -1.08479,-0.48431 -0.79375,-0.48686 0.29105,-0.003 1.00542,0.22072 1.5875,0.49616 1.32707,0.62798 0.94221,0.62347 -0.79375,-0.009 z"
       id="path50310" />
    <path
       style="fill:#066635;stroke-width:1.59297"
       d="m 194.33907,256.33265 c 0.47555,-0.0589 1.18992,-0.0577 1.5875,0.003 0.39757,0.0604 0.008,0.10855 -0.86464,0.10707 -0.87312,-0.001 -1.19841,-0.0509 -0.72286,-0.10977 z"
       id="path50309" />
    <path
       style="fill:#066635;stroke-width:1.59297"
       d="m 209.21714,259.14039 c -1.2673,-1.09768 -3.04074,-2.1208 -4.62675,-2.66923 -0.72951,-0.25226 -1.08489,-0.46254 -0.78974,-0.46729 0.89428,-0.0144 4.14995,1.7013 5.41649,2.85441 1.37621,1.25297 1.37621,1.47412 0,0.28211 z"
       id="path50293" />
    <path
       style="fill:#066635;stroke-width:1.59297"
       d="m 202.97408,259.2634 c -0.88706,-0.92437 -1.50441,-1.68066 -1.37187,-1.68066 0.29016,0 3.11701,2.92786 3.11701,3.22839 0,0.28315 0.0797,0.35384 -1.74514,-1.54773 z"
       id="path50292" />
    <path
       style="fill:#066635;stroke-width:1.59297"
       d="m 193.3094,261.87724 c 0.73341,-1.37038 4.60202,-4.2945 5.68164,-4.2945 0.57315,0 3.42459,2.18791 3.99389,3.06452 0.31651,0.48735 -0.15143,0.16362 -1.2693,-0.87814 -0.97385,-0.90754 -2.05187,-1.72067 -2.39561,-1.80694 -0.95718,-0.24023 -2.72526,0.80516 -4.61196,2.72687 -0.92224,0.93935 -1.55164,1.47404 -1.39866,1.18819 z"
       id="path50284" />
    <path
       style="fill:#066635;stroke-width:1.59297"
       d="m 191.94155,261.59219 c 0.52487,-0.97921 3.88262,-4.27404 4.35567,-4.27404 0.16462,0 -0.16503,0.33842 -0.73257,0.75205 -1.03857,0.75692 -2.74294,2.51905 -3.6231,3.74587 -0.45634,0.63608 -0.45634,0.62749 0,-0.22388 z"
       id="path50283" />
    <path
       style="fill:#066635;stroke-width:1.59297"
       d="m 183.13917,262.23191 c -0.4979,-0.3657 -0.48982,-0.40073 0.2811,-1.21756 1.52071,-1.61128 6.36506,-5.01641 7.13955,-5.01843 0.14321,-3.8e-4 -0.5534,0.47486 -1.54802,1.05609 -1.82194,1.06468 -4.66224,3.20462 -5.53206,4.16798 -0.39918,0.44211 -0.41392,0.5665 -0.0982,0.82856 0.29518,0.24497 0.60837,0.11048 1.5238,-0.65434 2.90844,-2.42993 7.07303,-4.90201 8.17218,-4.85095 0.21828,0.0101 -0.0233,0.17328 -0.5368,0.36255 -1.83037,0.67462 -3.62142,1.71407 -5.80038,3.36631 -1.21585,0.92193 -2.40816,1.82476 -2.64959,2.00629 -0.35424,0.26634 -0.53791,0.25736 -0.95162,-0.0465 z"
       id="path50282" />
    <path
       style="fill:#066635;stroke-width:1.59297"
       d="m 197.84006,263.12021 c -0.94589,-0.26086 -1.47351,-0.48241 -1.1725,-0.49234 0.30101,-0.01 1.1718,0.16741 1.93509,0.39408 1.36479,0.4053 1.40695,0.40092 2.54253,-0.26458 0.6351,-0.37219 1.25259,-0.67469 1.3722,-0.67221 0.11961,0.002 -0.37784,0.35764 -1.10545,0.78924 -1.50078,0.89023 -1.28818,0.8756 -3.57187,0.24581 z"
       id="path50277" />
    <path
       style="fill:#066635;stroke-width:1.59297"
       d="m 218.4291,262.76041 c -1.01271,-0.95475 -2.00619,-1.60004 -3.04271,-1.97631 -0.84647,-0.30728 -1.18185,-0.49147 -0.74529,-0.4093 1.67608,0.31547 3.25917,1.32647 4.87477,3.11316 1.02081,1.12892 0.54333,0.80926 -1.08677,-0.72755 z"
       id="path50269" />
    <path
       style="fill:#066635;stroke-width:1.59297"
       d="m 225.35634,266.18123 c -0.18138,-0.21854 -1.05916,-0.62857 -1.95063,-0.91118 -0.89147,-0.28261 -1.43371,-0.52053 -1.20497,-0.5287 0.67603,-0.0242 2.70698,0.75354 3.42057,1.30982 0.3638,0.2836 0.52721,0.51828 0.36312,0.52152 -0.16408,0.003 -0.44672,-0.17292 -0.62809,-0.39146 z"
       id="path50259" />
    <path
       style="fill:#066635;stroke-width:1.59297"
       d="m 184.98746,266.61786 c 0.55195,-1.06736 2.14972,-2.3982 3.7124,-3.09219 1.50278,-0.66738 3.18418,-1.109 2.52562,-0.66335 -0.21829,0.14772 -0.58622,0.2704 -0.81764,0.27262 -1.34524,0.013 -5.26778,2.78338 -5.26778,3.72055 0,0.16614 7.3863,0.25511 20.67525,0.24903 11.37139,-0.005 20.73764,0.0529 20.81389,0.12917 0.0763,0.0763 -9.34973,0.13864 -20.94663,0.13864 H 184.5973 Z"
       id="path50257" />
    <path
       style="fill:#025929;stroke-width:1.59297"
       d="m 191.71772,255.58956 c 0.48902,-0.22739 1.62011,-0.45311 2.51354,-0.5016 0.89343,-0.0485 1.26724,-0.0395 0.83067,0.02 -0.98372,0.13398 -2.99791,0.53742 -3.70475,0.74206 -0.29072,0.0842 -0.12847,-0.033 0.36054,-0.26042 z"
       id="path50104" />
    <path
       style="fill:#025929;stroke-width:1.59297"
       d="m 197.44318,255.70687 c -0.7276,-0.26522 -1.08479,-0.48431 -0.79375,-0.48686 0.29105,-0.003 1.00542,0.22072 1.5875,0.49616 1.32707,0.62798 0.94221,0.62347 -0.79375,-0.009 z"
       id="path50103" />
    <path
       style="fill:#025929;stroke-width:1.59297"
       d="m 194.33907,256.33268 c 0.47555,-0.0589 1.18992,-0.0577 1.5875,0.003 0.39757,0.0604 0.008,0.10855 -0.86464,0.10707 -0.87312,-10e-4 -1.19841,-0.0509 -0.72286,-0.10977 z"
       id="path50101" />
    <path
       style="fill:#025929;stroke-width:1.59297"
       d="m 209.21714,259.14042 c -1.2673,-1.09768 -3.04074,-2.1208 -4.62675,-2.66923 -0.72951,-0.25226 -1.08489,-0.46254 -0.78974,-0.46729 0.89428,-0.0144 4.14995,1.7013 5.41649,2.85441 1.37621,1.25297 1.37621,1.47412 0,0.28211 z"
       id="path50099" />
    <path
       style="fill:#025929;stroke-width:1.59297"
       d="m 202.97408,259.26343 c -0.88706,-0.92437 -1.50441,-1.68066 -1.37187,-1.68066 0.29016,0 3.11701,2.92786 3.11701,3.22839 0,0.28315 0.0797,0.35384 -1.74514,-1.54773 z"
       id="path50098" />
    <path
       style="fill:#025929;stroke-width:1.59297"
       d="m 193.3094,261.87719 c 0.73341,-1.37038 4.60202,-4.2945 5.68164,-4.2945 0.57315,0 3.42459,2.18791 3.99389,3.06452 0.31651,0.48735 -0.15143,0.16362 -1.2693,-0.87814 -0.97385,-0.90754 -2.05187,-1.72067 -2.39561,-1.80694 -0.95718,-0.24023 -2.72526,0.80516 -4.61196,2.72687 -0.92224,0.93935 -1.55164,1.47404 -1.39866,1.18819 z"
       id="path50096" />
    <path
       style="fill:#025929;stroke-width:1.59297"
       d="m 191.94155,261.59214 c 0.52487,-0.97921 3.88262,-4.27404 4.35567,-4.27404 0.16462,0 -0.16503,0.33842 -0.73257,0.75205 -1.03857,0.75692 -2.74294,2.51905 -3.6231,3.74587 -0.45634,0.63608 -0.45634,0.62749 0,-0.22388 z"
       id="path50095" />
    <path
       style="fill:#025929;stroke-width:1.59297"
       d="m 183.13917,262.23191 c -0.4979,-0.3657 -0.48982,-0.40073 0.2811,-1.21756 1.52071,-1.61128 6.36506,-5.01641 7.13955,-5.01843 0.14321,-3.8e-4 -0.5534,0.47486 -1.54802,1.05609 -1.82194,1.06468 -4.66224,3.20462 -5.53206,4.16798 -0.39918,0.44211 -0.41392,0.5665 -0.0982,0.82856 0.29518,0.24497 0.60837,0.11048 1.5238,-0.65434 2.90844,-2.42993 7.07303,-4.90201 8.17218,-4.85095 0.21828,0.0101 -0.0233,0.17328 -0.5368,0.36255 -1.83037,0.67462 -3.62142,1.71407 -5.80038,3.36631 -1.21585,0.92193 -2.40816,1.82476 -2.64959,2.00629 -0.35424,0.26634 -0.53791,0.25736 -0.95162,-0.0465 z"
       id="path50093" />
    <path
       style="fill:#025929;stroke-width:1.59297"
       d="m 197.84006,263.12021 c -0.94589,-0.26086 -1.47351,-0.48241 -1.1725,-0.49234 0.30101,-0.01 1.1718,0.16741 1.93509,0.39408 1.36479,0.4053 1.40695,0.40092 2.54253,-0.26458 0.6351,-0.37219 1.25259,-0.67469 1.3722,-0.67221 0.11961,0.002 -0.37784,0.35764 -1.10545,0.78924 -1.50078,0.89023 -1.28818,0.8756 -3.57187,0.24581 z"
       id="path50092" />
    <path
       style="fill:#025929;stroke-width:1.59297"
       d="m 218.4291,262.76056 c -1.01271,-0.95475 -2.00619,-1.60004 -3.04271,-1.97631 -0.84647,-0.30728 -1.18185,-0.49147 -0.74529,-0.4093 1.67608,0.31547 3.25917,1.32647 4.87477,3.11316 1.02081,1.12892 0.54333,0.80926 -1.08677,-0.72755 z"
       id="path50089" />
    <path
       style="fill:#025929;stroke-width:1.59297"
       d="m 225.35634,266.18138 c -0.18138,-0.21854 -1.05916,-0.62857 -1.95063,-0.91118 -0.89147,-0.28261 -1.43371,-0.52053 -1.20497,-0.5287 0.67603,-0.0242 2.70698,0.75354 3.42057,1.30982 0.3638,0.2836 0.52721,0.51828 0.36312,0.52152 -0.16408,0.003 -0.44672,-0.17292 -0.62809,-0.39146 z"
       id="path50088" />
    <path
       style="fill:#025929;stroke-width:1.59297"
       d="m 184.98746,266.618 c 0.55195,-1.06736 2.14972,-2.3982 3.7124,-3.09219 1.50278,-0.66738 3.18418,-1.109 2.52562,-0.66335 -0.21829,0.14772 -0.58622,0.2704 -0.81764,0.27262 -1.34524,0.013 -5.26778,2.78338 -5.26778,3.72055 0,0.16614 7.3863,0.25511 20.67525,0.24903 11.37139,-0.005 20.73764,0.0529 20.81389,0.12917 0.0763,0.0763 -9.34973,0.13864 -20.94663,0.13864 H 184.5973 Z"
       id="path50087" />
    <path
       style="fill:#241113;stroke-width:1.59297"
       d="m 191.71772,255.58956 c 0.48902,-0.22739 1.62011,-0.45311 2.51354,-0.5016 0.89343,-0.0485 1.26724,-0.0395 0.83067,0.02 -0.98372,0.13398 -2.99791,0.53742 -3.70475,0.74206 -0.29072,0.0842 -0.12847,-0.033 0.36054,-0.26042 z"
       id="path50043" />
    <path
       style="fill:#241113;stroke-width:1.59297"
       d="m 197.44318,255.70687 c -0.7276,-0.26522 -1.08479,-0.48431 -0.79375,-0.48686 0.29105,-0.003 1.00542,0.22072 1.5875,0.49616 1.32707,0.62798 0.94221,0.62347 -0.79375,-0.009 z"
       id="path50042" />
    <path
       style="fill:#241113;stroke-width:1.59297"
       d="m 194.33907,256.33265 c 0.47555,-0.0589 1.18992,-0.0577 1.5875,0.003 0.39757,0.0604 0.008,0.10855 -0.86464,0.10707 -0.87312,-0.001 -1.19841,-0.0509 -0.72286,-0.10977 z"
       id="path50041" />
    <path
       style="fill:#241113;stroke-width:1.59297"
       d="m 209.21714,259.14039 c -1.2673,-1.09768 -3.04074,-2.1208 -4.62675,-2.66923 -0.72951,-0.25226 -1.08489,-0.46254 -0.78974,-0.46729 0.89428,-0.0144 4.14995,1.7013 5.41649,2.85441 1.37621,1.25297 1.37621,1.47412 0,0.28211 z"
       id="path50040" />
    <path
       style="fill:#241113;stroke-width:1.59297"
       d="m 202.97408,259.2634 c -0.88706,-0.92437 -1.50441,-1.68066 -1.37187,-1.68066 0.29016,0 3.11701,2.92786 3.11701,3.22839 0,0.28315 0.0797,0.35384 -1.74514,-1.54773 z"
       id="path50039" />
    <path
       style="fill:#241113;stroke-width:1.59297"
       d="m 193.3094,261.87724 c 0.73341,-1.37038 4.60202,-4.2945 5.68164,-4.2945 0.57315,0 3.42459,2.18791 3.99389,3.06452 0.31651,0.48735 -0.15143,0.16362 -1.2693,-0.87814 -0.97385,-0.90754 -2.05187,-1.72067 -2.39561,-1.80694 -0.95718,-0.24023 -2.72526,0.80516 -4.61196,2.72687 -0.92224,0.93935 -1.55164,1.47404 -1.39866,1.18819 z"
       id="path50038" />
    <path
       style="fill:#241113;stroke-width:1.59297"
       d="m 191.94155,261.59219 c 0.52487,-0.97921 3.88262,-4.27404 4.35567,-4.27404 0.16462,0 -0.16503,0.33842 -0.73257,0.75205 -1.03857,0.75692 -2.74294,2.51905 -3.6231,3.74587 -0.45634,0.63608 -0.45634,0.62749 0,-0.22388 z"
       id="path50037" />
    <path
       style="fill:#241113;stroke-width:1.59297"
       d="m 183.13917,262.23191 c -0.4979,-0.3657 -0.48982,-0.40073 0.2811,-1.21756 1.52071,-1.61128 6.36506,-5.01641 7.13955,-5.01843 0.14321,-3.8e-4 -0.5534,0.47486 -1.54802,1.05609 -1.82194,1.06468 -4.66224,3.20462 -5.53206,4.16798 -0.39918,0.44211 -0.41392,0.5665 -0.0982,0.82856 0.29518,0.24497 0.60837,0.11048 1.5238,-0.65434 2.90844,-2.42993 7.07303,-4.90201 8.17218,-4.85095 0.21828,0.0101 -0.0233,0.17328 -0.5368,0.36255 -1.83037,0.67462 -3.62142,1.71407 -5.80038,3.36631 -1.21585,0.92193 -2.40816,1.82476 -2.64959,2.00629 -0.35424,0.26634 -0.53791,0.25736 -0.95162,-0.0465 z"
       id="path50036" />
    <path
       style="fill:#241113;stroke-width:1.59297"
       d="m 197.84006,263.12021 c -0.94589,-0.26086 -1.47351,-0.48241 -1.1725,-0.49234 0.30101,-0.01 1.1718,0.16741 1.93509,0.39408 1.36479,0.4053 1.40695,0.40092 2.54253,-0.26458 0.6351,-0.37219 1.25259,-0.67469 1.3722,-0.67221 0.11961,0.002 -0.37784,0.35764 -1.10545,0.78924 -1.50078,0.89023 -1.28818,0.8756 -3.57187,0.24581 z"
       id="path50035" />
    <path
       style="fill:#241113;stroke-width:1.59297"
       d="m 218.4291,262.76041 c -1.01271,-0.95475 -2.00619,-1.60004 -3.04271,-1.97631 -0.84647,-0.30728 -1.18185,-0.49147 -0.74529,-0.4093 1.67608,0.31547 3.25917,1.32647 4.87477,3.11316 1.02081,1.12892 0.54333,0.80926 -1.08677,-0.72755 z"
       id="path50034" />
    <path
       style="fill:#241113;stroke-width:1.59297"
       d="m 225.35634,266.18123 c -0.18138,-0.21854 -1.05916,-0.62857 -1.95063,-0.91118 -0.89147,-0.28261 -1.43371,-0.52053 -1.20497,-0.5287 0.67603,-0.0242 2.70698,0.75354 3.42057,1.30982 0.3638,0.2836 0.52721,0.51828 0.36312,0.52152 -0.16408,0.003 -0.44672,-0.17292 -0.62809,-0.39146 z"
       id="path50033" />
  </g>
</svg>
