<?xml version="1.0" encoding="UTF-8" standalone="no"?>
<!-- Created with Inkscape (http://www.inkscape.org/) -->

<svg
   width="185"
   height="185"
   viewBox="0 0 48.947914 48.947918"
   version="1.1"
   id="svg1"
   xmlns="http://www.w3.org/2000/svg"
   xmlns:svg="http://www.w3.org/2000/svg">
  <defs
     id="defs1" />
  <g
     id="g12785"
     transform="translate(-166.15155,-35.897822)">
    <path
       style="fill:#9ca89b"
       d="m 175.28399,84.361884 c -0.5887,-0.650511 -0.55341,-1.552365 0.0739,-1.888087 0.3145,-0.168313 3.11924,-0.273892 7.27605,-0.273892 4.22671,0 6.76426,-0.09697 6.76426,-0.258484 0,-0.470335 -1.21413,-1.065207 -3.86454,-1.893457 -4.70243,-1.469502 -7.86391,-3.410141 -9.75549,-5.988297 -1.6088,-2.192742 -1.05463,-2.972261 2.11303,-2.972261 4.18322,0 8.81969,2.628992 11.08214,6.283854 0.38285,0.618463 0.72436,1.124746 0.75891,1.125072 0.0346,3.26e-4 0.0252,-1.117394 -0.0208,-2.483822 -0.10301,-3.060891 -0.18407,-3.155091 -4.01917,-4.670386 -4.08081,-1.612376 -6.2646,-2.840388 -8.09347,-4.551214 -1.92158,-1.797537 -3.31038,-4.174027 -2.85848,-4.891374 0.75126,-1.192548 4.55831,-0.879462 7.68066,0.631645 1.96704,0.951982 4.95229,3.895408 6.18765,6.10096 0.50701,0.905178 0.98136,1.64957 1.05412,1.654205 0.0728,0.0046 0.0728,-1.509871 0,-3.365569 l -0.13229,-3.373996 -2.74002,-1.455208 c -4.43638,-2.356143 -7.18186,-5.357847 -7.18186,-7.852117 0,-0.715826 0.12161,-0.899573 0.68973,-1.042161 0.87634,-0.219949 3.02519,0.258262 4.74431,1.055814 1.38716,0.643549 3.28309,2.546537 3.87952,3.893966 0.51505,1.163574 0.74061,0.932376 0.74061,-0.75913 0,-1.74798 -0.0626,-1.855888 -2.5796,-4.449958 -4.11121,-4.237014 -4.37276,-8.801667 -0.38642,-6.743833 1.27301,0.65716 2.75738,2.231342 3.49717,3.708771 l 0.58725,1.17281 0.37857,-0.900354 c 1.10899,-2.637501 2.73636,-2.425685 2.73636,0.356158 0,1.410976 -0.50576,2.934121 -1.44612,4.355096 -0.6215,0.939143 -0.68593,1.260261 -0.61617,3.070758 l 0.0779,2.021937 1.5875,-1.90995 c 2.13761,-2.571798 3.63029,-3.474534 5.96314,-3.606352 1.60329,-0.09059 1.82424,-0.04289 2.0885,0.450896 0.53084,0.991882 -0.33093,2.99475 -2.15833,5.016254 -1.4034,1.552457 -2.87362,2.549021 -4.97937,3.375185 -2.48396,0.974547 -2.65722,1.291575 -2.57618,4.713605 0.0359,1.51752 0.16833,2.695479 0.2942,2.617687 0.12587,-0.07779 0.74676,-0.942038 1.37975,-1.920546 1.28816,-1.991294 3.86419,-4.51186 5.42483,-5.30804 2.38168,-1.215043 5.7294,-1.659893 6.80771,-0.904618 0.78344,0.548741 0.74235,1.091561 -0.22211,2.934692 -0.95235,1.819988 -2.48101,3.464742 -4.4202,4.755883 -1.28706,0.856944 -7.56794,3.539213 -8.28753,3.539213 -0.69621,0 -1.01748,0.95111 -1.02579,3.036846 l -0.008,2.110804 0.85395,-1.052471 c 2.51391,-3.098348 5.55182,-4.615503 9.25392,-4.621482 3.07545,-0.005 3.77972,0.757423 2.47431,2.67851 -1.13024,1.663302 -3.17066,2.813882 -9.09027,5.12594 -1.06263,0.415037 -1.99239,0.852242 -2.06613,0.971566 -0.0737,0.119324 2.67091,0.216953 6.09923,0.216953 5.88055,0 6.26328,0.02995 6.76249,0.529167 0.29104,0.291041 0.52917,0.648229 0.52917,0.79375 0,0.145521 -0.23813,0.502708 -0.52917,0.79375 -0.51664,0.516644 -0.88194,0.529166 -15.43711,0.529166 -14.10657,0 -14.93149,-0.02601 -15.34584,-0.483854 z"
       id="path12782" />
    <path
       style="fill:#8c708c"
       d="m 175.52647,84.429958 c -0.57476,-0.574762 -0.52323,-1.624763 0.096,-1.956167 0.31445,-0.168288 3.11665,-0.273892 7.26773,-0.273892 5.67472,0 6.73327,-0.05915 6.61415,-0.369566 -0.2031,-0.529293 -1.94401,-1.31359 -5.09089,-2.293505 -3.9015,-1.214899 -7.55933,-3.704407 -9.0608,-6.166755 -0.71312,-1.169474 -0.64006,-1.460021 0.48564,-1.931371 3.59921,-1.507052 11.21614,2.065606 13.16647,6.175629 0.80849,1.703778 1.00217,1.368116 0.79615,-1.379805 -0.10718,-1.429625 -0.32984,-2.815422 -0.49479,-3.079549 -0.33491,-0.536281 -0.97044,-0.865982 -3.9268,-2.037153 -5.30959,-2.103404 -8.66486,-4.58532 -10.10455,-7.474399 -0.95587,-1.918176 -0.68081,-2.345608 1.50943,-2.345608 3.45192,0 6.55978,1.344669 9.15364,3.960476 1.22233,1.232675 3.14019,4.015582 3.55182,5.153858 0.0554,0.153106 0.18164,0.203769 0.28062,0.112586 0.099,-0.09118 0.0973,-1.732625 -0.004,-3.647648 l -0.18382,-3.481861 -2.84475,-1.455126 c -3.45901,-1.769328 -5.51091,-3.612581 -6.49263,-5.832434 -0.68767,-1.554942 -0.68861,-2.569258 -0.003,-2.832496 0.55007,-0.211082 3.6492,0.49364 4.82804,1.097866 1.29608,0.664313 2.8558,2.220787 3.7576,3.749779 l 0.70223,1.190625 0.0782,-1.943223 0.0782,-1.943223 L 188,53.798344 c -2.22166,-2.145649 -3.00963,-3.240998 -3.6575,-5.084323 -0.89967,-2.559705 -0.18736,-3.49776 1.94107,-2.556255 1.65782,0.733334 3.56066,2.74801 4.00857,4.244173 l 0.37081,1.238587 0.29336,-0.744829 c 0.16135,-0.409655 0.29336,-0.819859 0.29336,-0.911564 0,-0.318488 1.42389,-1.650899 1.76425,-1.650899 0.18828,0 0.41408,0.327422 0.50176,0.727604 0.0877,0.400183 0.20572,0.877575 0.2623,1.060872 0.2246,0.727676 -0.46448,3.178346 -1.2454,4.429232 -0.74086,1.186711 -0.83728,1.581707 -0.93646,3.836458 -0.0908,2.064098 -0.0525,2.418922 0.21394,1.984375 0.89848,-1.465185 3.36268,-4.067403 4.58066,-4.837209 1.52361,-0.962981 2.81888,-1.269871 4.23687,-1.003854 0.82687,0.155122 0.94083,0.271539 0.94083,0.961144 0,1.313562 -1.07562,3.208884 -2.76941,4.879919 -1.48771,1.467719 -2.23123,1.912755 -5.34368,3.198475 -0.60589,0.250288 -1.23515,0.704585 -1.39835,1.009547 -0.18409,0.343983 -0.2681,1.709576 -0.2213,3.597186 l 0.0755,3.042708 1.68938,-2.457357 c 2.60929,-3.795439 5.33146,-5.789392 8.74377,-6.404677 4.37437,-0.788759 4.96154,0.81174 1.81468,4.946402 -1.47379,1.936406 -4.00304,3.546491 -8.0145,5.101915 -1.89177,0.733524 -3.61818,1.434142 -3.83646,1.556928 -0.30159,0.169648 -0.41095,0.820007 -0.45552,2.708769 -0.0572,2.423511 -0.0473,2.469018 0.39688,1.824062 2.1899,-3.179951 6.12856,-5.291667 9.86974,-5.291667 1.25636,0 2.8893,0.628194 2.88791,1.110979 -0.005,1.696911 -4.01236,4.697814 -7.80422,5.843989 -0.7276,0.219935 -1.89773,0.649784 -2.60029,0.95522 -2.7658,1.202431 -2.68866,1.223765 4.11609,1.138256 5.48041,-0.06887 6.42945,-0.02171 6.99286,0.34745 0.82016,0.537384 0.73709,1.445082 -0.17428,1.90452 -0.50769,0.255934 -4.0246,0.334358 -15.1285,0.337352 -12.80248,0.0035 -14.51488,-0.04394 -14.88281,-0.411874 z"
       id="path12738" />
    <path
       style="fill:#4e8561"
       d="m 175.52647,84.429961 c -0.57476,-0.574762 -0.52323,-1.624763 0.096,-1.956167 0.31445,-0.168288 3.11665,-0.273892 7.26773,-0.273892 5.67472,0 6.73327,-0.05915 6.61415,-0.369566 -0.2031,-0.529293 -1.94401,-1.31359 -5.09089,-2.293505 -3.87848,-1.20773 -7.56401,-3.724608 -9.07951,-6.20047 -0.6936,-1.133134 -0.61497,-1.428976 0.50435,-1.897656 2.12868,-0.891315 6.14202,0.04516 9.35907,2.183852 1.68,1.116863 3.93624,3.564131 3.93624,4.269512 0,0.150859 0.19486,0.436007 0.43302,0.633662 0.39809,0.330383 0.41714,0.147634 0.23621,-2.265574 -0.10824,-1.44372 -0.33176,-2.84105 -0.49671,-3.105177 -0.33491,-0.536281 -0.97044,-0.865982 -3.9268,-2.037153 -5.30959,-2.103404 -8.66486,-4.58532 -10.10455,-7.474399 -0.95587,-1.918176 -0.68081,-2.345608 1.50943,-2.345608 3.45192,0 6.55978,1.344669 9.15364,3.960476 1.22233,1.232675 3.14019,4.015582 3.55182,5.153858 0.0554,0.153106 0.18164,0.203769 0.28062,0.112586 0.099,-0.09118 0.0973,-1.732625 -0.004,-3.647648 l -0.18382,-3.481861 -2.84475,-1.455126 c -3.45901,-1.769328 -5.51091,-3.612581 -6.49263,-5.832434 -0.68767,-1.554942 -0.68861,-2.569258 -0.003,-2.832496 0.55007,-0.211082 3.6492,0.49364 4.82804,1.097866 1.29608,0.664313 2.8558,2.220787 3.7576,3.749779 l 0.70223,1.190625 0.0782,-1.943223 0.0782,-1.943223 L 188,53.798347 c -2.22166,-2.145649 -3.00963,-3.240998 -3.6575,-5.084323 -0.89967,-2.559705 -0.18736,-3.49776 1.94107,-2.556255 1.65782,0.733334 3.56066,2.74801 4.00857,4.244173 l 0.37081,1.238587 0.29336,-0.744829 c 0.16135,-0.409655 0.29336,-0.819859 0.29336,-0.911564 0,-0.318488 1.42389,-1.650899 1.76425,-1.650899 0.18828,0 0.41408,0.327422 0.50176,0.727604 0.0877,0.400183 0.20572,0.877575 0.2623,1.060872 0.2246,0.727676 -0.46448,3.178346 -1.2454,4.429232 -0.74086,1.186711 -0.83728,1.581707 -0.93646,3.836458 -0.0908,2.064098 -0.0525,2.418922 0.21394,1.984375 0.87621,-1.428877 3.3552,-4.06137 4.53703,-4.817977 1.42853,-0.914542 3.0937,-1.295824 4.40317,-1.008216 0.68756,0.151012 0.81816,0.303507 0.81816,0.955308 0,1.304915 -1.07966,3.203838 -2.76941,4.870885 -1.48771,1.467719 -2.23123,1.912755 -5.34368,3.198475 -0.60589,0.250288 -1.23515,0.704585 -1.39835,1.009547 -0.18409,0.343983 -0.2681,1.709576 -0.2213,3.597186 l 0.0755,3.042708 1.68938,-2.457357 c 2.67396,-3.889504 5.3969,-5.843079 8.96572,-6.432458 1.95708,-0.323204 3.45928,-0.04507 3.53057,0.653686 0.11733,1.150022 -0.40185,2.308733 -1.93587,4.320497 -1.47733,1.937416 -4.00657,3.547095 -8.01647,5.101915 -1.89177,0.733524 -3.61818,1.434142 -3.83646,1.556928 -0.30159,0.169648 -0.41095,0.820007 -0.45552,2.708769 -0.0572,2.423511 -0.0473,2.469018 0.39688,1.824062 2.1899,-3.179951 6.12856,-5.291667 9.86974,-5.291667 1.25636,0 2.8893,0.628194 2.88791,1.110979 -0.005,1.696911 -4.01236,4.697814 -7.80422,5.843989 -0.7276,0.219935 -1.89773,0.649784 -2.60029,0.95522 -2.7658,1.202431 -2.68866,1.223765 4.11609,1.138256 5.48041,-0.06887 6.42945,-0.02171 6.99286,0.34745 0.82016,0.537384 0.73709,1.445082 -0.17428,1.90452 -0.50769,0.255934 -4.0246,0.334358 -15.1285,0.337352 -12.80248,0.0035 -14.51488,-0.04394 -14.88281,-0.411874 z"
       id="path12694" />
    <path
       style="fill:#4a835d"
       d="m 181.25162,56.015193 c -0.42893,-0.322796 -0.82691,-1.31454 -0.58701,-1.462803 0.13827,-0.08546 0.32713,0.146324 0.41968,0.515072 0.0925,0.368748 0.27495,0.604517 0.40534,0.523931 0.25976,-0.160536 -0.19418,-1.185804 -0.66386,-1.499417 -0.40802,-0.272445 0.15506,-0.24701 0.58637,0.02649 0.19158,0.12148 0.37352,0.387548 0.40431,0.591261 0.12324,0.815182 0.45767,1.080209 0.90093,0.713966 0.37171,-0.307122 0.37784,-0.282564 0.0578,0.231452 -0.32912,0.528544 -1.0677,0.703091 -1.52352,0.360052 z"
       id="path12638" />
    <path
       style="fill:#4a835d"
       d="m 189.39414,81.533561 c -0.45158,-0.544126 -1.6409,-1.06034 -3.70011,-1.606002 -3.33527,-0.883799 -6.22936,-2.455568 -8.68741,-4.7181 -1.29423,-1.191291 -2.22533,-2.795325 -1.91452,-3.298226 0.61144,-0.989318 4.31153,-0.858898 7.29432,0.257109 2.64476,0.989529 5.64768,3.622977 6.86604,6.021252 0.24714,0.486466 0.52592,0.807895 0.61953,0.714287 0.22966,-0.229652 0.0628,-4.588272 -0.2021,-5.28072 -0.34353,-0.897851 -1.04592,-1.336325 -3.98852,-2.489902 -4.29125,-1.682277 -6.69013,-3.094774 -8.41,-4.95194 -1.83622,-1.982809 -2.55273,-3.281258 -2.32074,-4.205599 0.1533,-0.610775 0.29707,-0.6779 1.45191,-0.6779 4.80678,0 9.20388,2.63957 11.80811,7.088379 1.18461,2.023673 2.07253,2.931152 2.38047,2.432902 0.0931,-0.150687 0.0117,-0.24126 -0.18107,-0.201275 -0.27432,0.05692 -0.36629,-0.70401 -0.42362,-3.50488 l -0.0732,-3.577582 -2.76656,-1.420096 c -3.31765,-1.702971 -5.67467,-3.72358 -6.60075,-5.658633 -0.35696,-0.745863 -0.59283,-1.412301 -0.52416,-1.480972 0.19152,-0.191516 0.52348,0.274587 0.92235,1.295074 0.42518,1.087763 0.89973,1.637143 1.18898,1.376463 0.11342,-0.102211 0.12871,-0.05019 0.034,0.115608 -0.0962,0.168353 0.36429,0.781647 1.04295,1.389063 1.13327,1.014295 1.48902,1.20822 2.04066,1.112392 0.11996,-0.02084 0.15621,0.06226 0.0806,0.184661 -0.0756,0.122401 0.30246,0.417981 0.84023,0.656844 0.97758,0.43421 0.97766,0.434195 0.36228,-0.07631 -0.35641,-0.295673 -0.53411,-0.642296 -0.42214,-0.82346 0.12143,-0.196474 0.0797,-0.242627 -0.11211,-0.124069 -0.18876,0.116663 -0.30546,0.0022 -0.30546,-0.29969 0,-0.307896 -0.2072,-0.504084 -0.56048,-0.530696 -0.54007,-0.04068 -0.54248,-0.02813 -0.0661,0.34487 0.44839,0.351115 0.4269,0.358241 -0.23121,0.07668 -0.60776,-0.26002 -0.67218,-0.376137 -0.39688,-0.715296 0.27568,-0.339611 0.25402,-0.37691 -0.13435,-0.23136 -0.45528,0.170622 -0.6035,-0.16931 -0.47668,-1.093188 0.0279,-0.202935 -0.0794,-0.2779 -0.24827,-0.173529 -0.16353,0.101063 -0.60284,0.107071 -0.97625,0.01335 -0.64786,-0.162603 -0.65626,-0.187578 -0.1834,-0.545661 0.27254,-0.206392 0.40205,-0.379045 0.28779,-0.383673 -0.11426,-0.0046 -0.0795,-0.248053 0.0773,-0.540945 0.24289,-0.453847 0.37132,-0.48654 0.86921,-0.221266 0.51829,0.27615 0.54532,0.264116 0.23954,-0.106677 -0.29182,-0.353869 -0.26293,-0.443881 0.18844,-0.587142 0.95366,-0.302679 2.44739,1.001737 1.99162,1.739197 -0.1034,0.167306 0.0252,0.248157 0.31849,0.200197 0.67543,-0.110456 1.68257,0.818163 1.68257,1.551397 0,0.331462 0.11906,0.602657 0.26458,0.602657 0.50843,0 0.2576,-0.761608 -0.625,-1.89766 -0.48927,-0.629776 -1.03391,-1.112332 -1.21029,-1.072347 -0.17639,0.03999 -0.24945,-0.0426 -0.16235,-0.183532 0.0871,-0.140928 -0.36099,-0.560597 -0.99576,-0.932597 -1.28046,-0.750397 -1.63003,-0.840201 -1.34542,-0.345634 0.10468,0.181901 0.0929,0.242465 -0.0262,0.134587 -0.11908,-0.107878 -0.37629,-0.06353 -0.57158,0.09854 -0.19529,0.162076 -0.35508,0.205996 -0.35508,0.0976 0,-0.108397 -0.16799,-0.05766 -0.37332,0.112742 -0.2552,0.211802 -0.42756,0.222052 -0.54478,0.0324 -0.0943,-0.152587 0.0212,-0.277431 0.25665,-0.277431 0.23545,0 0.35332,-0.121004 0.26191,-0.268899 -0.0914,-0.147895 -0.30679,-0.184571 -0.47863,-0.0815 -0.21034,0.126157 -0.20298,0.05219 0.0225,-0.226345 0.2875,-0.355099 0.21718,-0.437301 -0.49609,-0.579956 -1.2148,-0.24296 -1.28689,-0.223191 -1.56456,0.429099 -0.24973,0.586634 -0.2525,0.58567 -0.18991,-0.06615 0.0539,-0.561422 0.21572,-0.674006 1.06997,-0.744426 1.45379,-0.119845 4.15554,0.866315 5.48049,2.000423 1.17132,1.002603 2.64117,3.066998 2.64117,3.709494 0,0.200185 0.16495,0.528926 0.36656,0.730535 0.31236,0.31236 0.37204,0.0235 0.40359,-1.953552 l 0.037,-2.320113 -2.18001,-2.153854 c -1.19901,-1.18462 -2.08527,-2.248604 -1.96946,-2.36441 0.11581,-0.115806 0.38454,0.02738 0.59719,0.318194 0.21265,0.290813 0.49065,0.528751 0.61778,0.528751 0.12713,0 0.33036,0.108386 0.45163,0.240857 0.13141,0.143551 0.0601,0.149755 -0.17639,0.01536 -0.34213,-0.194393 -0.34678,-0.163746 -0.0337,0.222164 0.54192,0.668088 0.85839,0.540357 0.51709,-0.208709 -0.16449,-0.361005 -0.51912,-0.726216 -0.78808,-0.811579 -0.26896,-0.08536 -0.48901,-0.280133 -0.48901,-0.43282 0,-0.152687 -0.24134,-0.2145 -0.53632,-0.137363 -1.10282,0.288396 -2.54463,-4.028574 -1.55415,-4.653353 0.72448,-0.456988 2.23928,0.04058 3.4988,1.14925 1.66841,1.468597 2.28106,2.557987 2.35171,4.181721 0.0326,0.748284 0.14393,1.360517 0.24749,1.360517 0.10355,0 0.32884,-0.677055 0.50063,-1.504566 0.21518,-1.036536 0.55229,-1.744505 1.08367,-2.275893 1.10202,-1.102012 1.55192,-0.651239 1.55192,1.554921 0,1.760941 -0.48455,3.202602 -1.44415,4.296703 -0.45994,0.524416 -0.55065,1.035592 -0.61033,3.439583 -0.0665,2.679429 -0.049,2.786068 0.34329,2.088172 0.22737,-0.4045 0.51858,-0.670449 0.64714,-0.590997 0.12855,0.07945 0.31989,0.0051 0.42519,-0.165322 0.11957,-0.19347 0.0768,-0.238898 -0.11401,-0.120992 -0.65739,0.406288 -0.24093,-0.254138 1.183,-1.876016 2.03955,-2.32308 4.55439,-3.541936 6.44928,-3.125747 0.53208,0.116863 0.84508,0.377885 0.94883,0.79126 0.18532,0.738394 -0.81392,3.159903 -1.20437,2.918593 -0.14986,-0.09262 -0.20605,-0.0046 -0.12759,0.199901 0.2358,0.614475 -2.6074,3.185061 -4.44038,4.014636 -2.76108,1.249614 -3.40533,1.586004 -3.69242,1.927976 -0.2466,0.293748 -0.38983,6.597964 -0.15523,6.832562 0.0508,0.05076 0.62349,-0.706038 1.27274,-1.681766 2.74204,-4.120873 4.49088,-5.627104 7.89446,-6.799286 1.16184,-0.400133 3.8587,-0.538492 4.64145,-0.238124 1.17068,0.449234 -0.0357,3.20646 -2.47395,5.654324 -1.96996,1.977721 -3.57859,2.891322 -7.95545,4.518178 -1.67349,0.622027 -3.13018,1.260217 -3.2371,1.4182 -0.10691,0.157982 -0.19621,1.141939 -0.19843,2.18657 -0.003,1.331153 -0.12278,2.018054 -0.40093,2.296206 -0.49737,0.497369 -0.51211,0.80009 -0.0299,0.615067 0.49867,-0.191358 0.24059,0.893579 -0.31898,1.340959 -0.32599,0.260626 -0.33565,0.330729 -0.0456,0.330729 0.25317,0 0.28277,0.0853 0.0948,0.273258 -0.15029,0.150291 -0.4748,0.195918 -0.72112,0.101392 -0.37145,-0.142538 -0.39029,-0.242977 -0.11039,-0.588629 0.26089,-0.322185 0.26242,-0.371673 0.007,-0.21807 -0.29698,0.178423 -0.45076,-0.109105 -0.36524,-0.682908 0.0155,-0.103903 -0.149,-0.120931 -0.36554,-0.03784 -0.2865,0.109941 -0.3937,-0.03674 -0.3937,-0.538689 0,-0.379371 -0.0992,-0.689765 -0.22037,-0.689765 -0.40045,0 -0.14608,1.123236 0.33384,1.474164 0.25904,0.189411 0.41509,0.500756 0.3468,0.69188 -0.0683,0.191123 -0.017,0.555857 0.11396,0.810518 0.29302,0.569729 0.13406,0.600774 -0.3137,0.06126 z m -1.58345,-1.714909 c 0,-0.145521 -0.35718,-0.264583 -0.79375,-0.264583 -0.43656,0 -0.79375,-0.126089 -0.79375,-0.280198 0,-0.154109 -0.11906,-0.206614 -0.26458,-0.116677 -0.14552,0.08994 -0.26458,0.03041 -0.26458,-0.132292 0,-0.162697 -0.11906,-0.222228 -0.26459,-0.132291 -0.51884,0.320663 -0.2483,0.590187 0.8599,0.856675 1.53326,0.368701 1.52135,0.368158 1.52135,0.06937 z m -3.70416,-1.277092 c 0,-0.386547 -0.15896,-0.460013 -0.79375,-0.366845 -0.59657,0.08756 -0.79375,0.01251 -0.79375,-0.302104 0,-0.281728 -0.14396,-0.363358 -0.44028,-0.24965 -0.28275,0.108501 -0.37604,0.06501 -0.26074,-0.121547 0.10059,-0.162763 -0.0579,-0.365859 -0.36047,-0.461887 -0.3109,-0.09868 -0.50897,-0.359323 -0.46686,-0.614362 0.0505,-0.30579 -0.0814,-0.41634 -0.42581,-0.356977 -0.37711,0.065 -0.45639,-0.0249 -0.32467,-0.368153 0.14757,-0.384548 0.11155,-0.402086 -0.23505,-0.114436 -0.22513,0.18684 -0.48582,0.263212 -0.57932,0.169715 -0.0935,-0.0935 -0.0311,-0.169995 0.13868,-0.169995 0.37548,0 0.41114,-0.699201 0.0471,-0.924168 -0.14704,-0.09088 -0.19599,0.0092 -0.11181,0.228562 0.10293,0.268228 -0.001,0.367322 -0.33376,0.316991 -0.32122,-0.04865 -0.45693,-0.25663 -0.40434,-0.619685 0.0647,-0.446557 -0.0321,-0.521989 -0.52917,-0.412589 -0.48914,0.107646 -0.53056,0.07761 -0.21145,-0.153289 0.30143,-0.218104 0.18018,-0.245506 -0.50416,-0.113943 -0.72964,0.140272 -0.85998,0.102455 -0.68518,-0.198807 0.11871,-0.204617 0.11842,-0.283766 -6.7e-4,-0.175888 -0.11908,0.107878 -0.40606,0.04835 -0.63773,-0.132292 -0.37868,-0.295263 -0.38262,-0.27499 -0.039,0.200733 0.753,1.04254 2.51193,2.778125 2.81549,2.778125 0.17017,0 0.45653,0.177283 0.63635,0.393962 0.17983,0.216679 0.43253,0.328715 0.56157,0.248968 0.12903,-0.07975 0.2346,-0.01729 0.2346,0.138792 0,0.267011 2.23907,1.40145 3.63802,1.843223 0.0364,0.01149 0.0661,-0.196616 0.0661,-0.462454 z m -6.49317,-3.503011 c -0.0959,-0.155202 -0.11087,-0.345718 -0.0332,-0.423369 0.18952,-0.189524 0.70555,0.144416 0.70555,0.456587 0,0.33813 -0.45677,0.315563 -0.67233,-0.03322 z m 10.99108,2.700687 c 0,-0.351703 -2.0163,-2.559128 -3.1779,-3.479136 -0.85622,-0.678138 -1.12573,-0.77152 -1.51173,-0.523796 -0.42321,0.271609 -0.4246,0.287485 -0.014,0.160283 0.28221,-0.08742 0.60967,0.07852 0.8599,0.435769 0.22226,0.317326 0.40411,0.486744 0.40411,0.376484 0,-0.11026 0.25891,-0.06191 0.57535,0.107443 0.56979,0.304945 0.56788,0.311415 -0.19844,0.670645 -0.42558,0.199502 -0.59519,0.31959 -0.37691,0.266863 0.67266,-0.162485 1.91497,0.608929 1.73518,1.077461 -0.13839,0.360629 -0.1007,0.367372 0.2813,0.05034 0.39665,-0.329189 0.42218,-0.299633 0.25331,0.293306 -0.14586,0.512166 -0.12376,0.570775 0.099,0.262508 0.25104,-0.347448 0.32074,-0.33921 0.55965,0.06615 0.29457,0.499807 0.51117,0.599678 0.51117,0.235688 z m -4.49791,-0.317449 c 0,-0.154109 -0.1089,-0.212898 -0.24199,-0.130643 -0.13309,0.08226 -0.30228,-1.5e-5 -0.37598,-0.182822 -0.0808,-0.200519 -0.14229,-0.14869 -0.15489,0.130643 -0.0115,0.254661 0.1577,0.463021 0.37598,0.463021 0.21828,0 0.39688,-0.12609 0.39688,-0.280199 z m -1.77156,-4.148838 c -0.24132,-0.180398 -0.37234,-0.394427 -0.29115,-0.47562 0.27523,-0.27523 0.98277,0.68376 0.84257,1.142001 -0.0766,0.25045 0.0239,0.183739 0.22343,-0.148247 0.19951,-0.331986 0.46495,-0.510579 0.58986,-0.396875 0.12491,0.113705 0.15248,0.07575 0.0613,-0.08435 -0.193,-0.338784 -3.85912,-1.54555 -4.06621,-1.338461 -0.0768,0.07676 0.34871,0.271035 0.94549,0.431729 0.74909,0.201709 1.08504,0.436469 1.08504,0.758223 0,0.674452 0.57009,1.196092 0.84025,0.768848 0.12436,-0.196657 0.0315,-0.461345 -0.23056,-0.65725 z m 8.12156,-0.361771 c 0,-0.161089 0.16989,-0.227698 0.37753,-0.148018 0.4598,0.176442 1.04873,-0.469831 0.85591,-0.939257 -0.0873,-0.212469 -0.20828,-0.112779 -0.32322,0.266264 -0.17801,0.587045 -0.20055,0.59116 -0.72474,0.132292 -0.29757,-0.260479 -0.46889,-0.348851 -0.38071,-0.196382 0.0882,0.152469 0.0509,0.450125 -0.0828,0.661458 -0.18688,0.295417 -0.24884,0.231332 -0.26802,-0.277216 -0.0137,-0.363802 -0.0866,-0.507661 -0.16207,-0.319686 -0.11068,0.275843 -0.22149,0.277388 -0.57442,0.008 -0.24051,-0.183571 -0.14865,-0.0099 0.20414,0.385832 0.67493,0.757172 1.07836,0.91681 1.07836,0.426706 z m 3.70416,-0.529166 c 0,-0.16109 0.18987,-0.220034 0.42192,-0.130987 0.39786,0.152673 2.75308,-0.709785 2.75308,-1.008149 0,-0.07638 -0.18011,-0.06975 -0.40024,0.01472 -0.22014,0.08447 -0.56672,0.01542 -0.7702,-0.153444 -0.41206,-0.341986 -0.8341,0.05167 -0.54935,0.512414 0.0899,0.145521 0.0474,0.264584 -0.0946,0.264584 -0.14198,0 -0.30808,-0.0893 -0.36912,-0.198438 -0.061,-0.10914 -0.0709,-0.03966 -0.0219,0.1544 0.049,0.194061 -0.0598,0.298241 -0.2418,0.231511 -0.182,-0.06673 -0.30115,-0.255273 -0.26477,-0.418984 0.0364,-0.163711 -0.0461,-0.297656 -0.18324,-0.297656 -0.13717,0 -0.20731,-0.218507 -0.15588,-0.485571 0.0514,-0.267064 -0.003,-0.641601 -0.12078,-0.832305 -0.25596,-0.414153 -1.07033,-0.16576 -1.04056,0.317385 0.0165,0.267587 0.0491,0.26899 0.15489,0.0067 0.0737,-0.182808 0.23769,-0.268292 0.36443,-0.189964 0.40635,0.251135 -0.0298,0.895415 -0.48729,0.719854 -0.38064,-0.146062 -0.38634,-0.11658 -0.0476,0.246016 0.34811,0.372648 0.41678,0.371142 0.71959,-0.01578 0.29531,-0.377343 0.31357,-0.365392 0.15496,0.10142 -0.0989,0.291042 -0.29302,0.605152 -0.43142,0.698023 -0.28604,0.191945 -0.0166,0.757186 0.36095,0.757186 0.13693,0 0.24896,-0.131801 0.24896,-0.292891 z m -1.05833,-0.604844 c 0,-0.202712 -0.18135,-0.438157 -0.403,-0.523212 -0.32878,-0.126167 -0.35143,-0.0583 -0.12298,0.368568 0.32824,0.613321 0.52598,0.671459 0.52598,0.154644 z m -4.96586,-1.615807 c 0.19413,-0.182799 0.21547,-0.149717 0.069,0.107026 -0.14207,0.24905 -0.11124,0.309346 0.0935,0.182823 0.16801,-0.103833 0.30546,-0.346787 0.30546,-0.539897 0,-0.493941 -1.89936,-3.281489 -3.0272,-4.442791 -1.23997,-1.27675 -3.25848,-2.65418 -3.5896,-2.449536 -0.1443,0.08918 -0.26236,0.04529 -0.26236,-0.09753 0,-0.261649 -1.0469,-0.651699 -2.51354,-0.936486 -0.79144,-0.153678 -0.79202,-0.152881 -0.19844,0.273092 0.32742,0.234971 0.59531,0.591291 0.59531,0.791823 0,0.221376 0.31181,0.377595 0.79375,0.397676 0.43656,0.01819 0.94258,0.05194 1.12448,0.075 0.1819,0.02306 0.40597,-0.06541 0.49794,-0.196594 0.092,-0.131186 0.40946,0.0037 0.70555,0.299828 0.29609,0.296092 0.6078,0.468895 0.69269,0.384008 0.0849,-0.08489 0.15434,-0.02932 0.15434,0.123481 0,0.152802 0.25011,0.343226 0.55579,0.423164 0.34032,0.089 0.48136,0.265769 0.3638,0.455981 -0.10559,0.170852 -0.2664,0.208632 -0.35735,0.08396 -0.0909,-0.124677 -0.40349,-0.264465 -0.69453,-0.31064 -0.4801,-0.07617 -0.47244,-0.04304 0.0826,0.357277 0.33649,0.242678 0.82868,0.384516 1.09376,0.315195 0.96395,-0.252078 1.95714,1.682476 1.12271,2.18683 -0.35914,0.217076 -0.30398,0.247352 0.28059,0.154007 0.83923,-0.134013 0.92256,0.03723 0.26458,0.543734 -0.42133,0.324335 -0.40347,0.347524 0.19844,0.257553 0.3638,-0.05438 0.62874,-0.240261 0.58875,-0.413069 -0.04,-0.172808 0.0441,-0.242003 0.18689,-0.153766 0.14277,0.08824 0.19193,0.336729 0.10924,0.552203 -0.0827,0.215474 -9.8e-4,0.571726 0.18155,0.79167 0.41869,0.504489 0.13083,0.831791 -0.36768,0.418062 -0.29107,-0.241569 -0.40734,-0.217919 -0.53253,0.108331 -0.0914,0.238118 -0.0491,0.348749 0.0984,0.257594 0.14749,-0.09116 0.18974,0.01948 0.0984,0.257595 -0.12016,0.313144 -0.24762,0.344781 -0.51041,0.126689 -0.19263,-0.159875 -0.29609,-0.431797 -0.22991,-0.604272 0.085,-0.221606 -0.23476,-0.28535 -1.09023,-0.217311 -0.66581,0.05295 -1.1696,0.137246 -1.11953,0.187316 0.0501,0.05007 0.92055,0.446111 1.9344,0.880091 1.84318,0.788977 1.84337,0.788998 1.93191,0.211765 0.0487,-0.317509 0.215,-0.696352 0.36955,-0.841873 z m 3.11378,0.272887 c 0,-0.462476 -0.11223,-0.610089 -0.38443,-0.505637 -0.30944,0.118745 -0.32283,0.246137 -0.0686,0.653154 0.4078,0.652996 0.45307,0.638257 0.45307,-0.147517 z m 6.25409,0.418765 c 0.38281,0.317705 2.07478,-0.122356 2.38206,-0.619543 0.11569,-0.187189 0.0483,-0.208701 -0.19475,-0.0622 -0.31605,0.190473 -0.31567,0.155038 0.003,-0.236982 0.32654,-0.402305 0.31339,-0.518157 -0.10342,-0.910685 -0.26266,-0.247358 -0.39424,-0.300914 -0.29239,-0.119013 0.10185,0.181901 0.069,0.330729 -0.073,0.330729 -0.14198,0 -0.3182,-0.148828 -0.3916,-0.330729 -0.0774,-0.191871 -0.14222,-0.129772 -0.15434,0.147907 -0.0115,0.26325 -0.12521,0.414164 -0.2527,0.335366 -0.1275,-0.0788 -0.2016,0.211832 -0.16467,0.645844 0.0709,0.833835 -0.47884,1.118507 -0.75753,0.392237 -0.0838,-0.218281 -0.29494,-0.396875 -0.46928,-0.396875 -0.17434,0 -0.23865,0.07834 -0.14289,0.174094 0.0958,0.09575 0.032,0.363642 -0.14158,0.595312 -0.26231,0.350015 -0.25405,0.366376 0.0489,0.09679 0.26084,-0.232106 0.46136,-0.244129 0.70461,-0.04225 z m 3.09875,-1.493875 c -0.22408,-0.583951 -0.59262,-0.467065 -0.43445,0.137789 0.0757,0.289405 0.23793,0.464186 0.36055,0.388402 0.12262,-0.07578 0.15588,-0.31257 0.0739,-0.526191 z m -9.95673,-1.376951 c -0.0608,-0.402184 -0.1122,-0.13593 -0.11419,0.591674 -0.002,0.727604 0.0478,1.056663 0.11058,0.731242 0.0628,-0.325421 0.0644,-0.920733 0.004,-1.322916 z m -7.06903,1.283991 c 0,-0.268349 -1.0987,-0.607855 -1.3037,-0.402853 -0.1711,0.171102 0.53033,0.627104 0.97297,0.632526 0.1819,0.0022 0.33073,-0.101124 0.33073,-0.229673 z m 0.30458,-0.379538 c -0.16499,-0.198807 -0.21535,-0.446102 -0.11191,-0.549544 0.10344,-0.103443 -0.0166,-0.109515 -0.26688,-0.0135 -0.71018,0.272524 -0.53417,-0.08375 0.27265,-0.551881 0.40018,-0.232192 0.48948,-0.34102 0.19844,-0.24184 -0.29105,0.09918 -0.80275,0.21596 -1.13712,0.259513 -0.33437,0.04355 -0.78358,0.22495 -0.99824,0.403105 -0.31687,0.26298 -0.36213,0.25051 -0.24056,-0.06628 0.0882,-0.229846 -0.003,-0.390201 -0.22223,-0.390201 -0.23042,0 -0.32369,0.184573 -0.24511,0.485069 0.13377,0.511544 0.85888,0.684506 0.85888,0.204872 0,-0.154109 0.11906,-0.206614 0.26458,-0.116677 0.14553,0.08994 0.26459,0.03258 0.26459,-0.127454 0,-0.160036 0.32742,0.05375 0.7276,0.47509 0.71552,0.753343 1.22181,0.936416 0.63531,0.229726 z m 10.63564,1.4e-5 c 0.0948,0.09475 0.17228,0.03337 0.17228,-0.136404 0,-0.520211 -0.4939,-0.343039 -0.79904,0.286632 -0.25887,0.534191 -0.25034,0.548196 0.083,0.136404 0.20432,-0.252399 0.44901,-0.381384 0.54376,-0.286632 z m 7.25018,-0.114355 c 0.36145,-0.400183 0.56689,-0.549011 0.45654,-0.33073 -0.13946,0.275849 -0.0481,0.25276 0.29964,-0.07571 0.40427,-0.381883 0.4314,-0.515187 0.14132,-0.694531 -0.2501,-0.154623 -0.27016,-0.276836 -0.0661,-0.402921 0.16106,-0.09954 0.29283,-0.05489 0.29283,0.09922 0,0.53683 0.54405,0.27551 0.79375,-0.38126 0.13832,-0.363802 0.36976,-0.661458 0.51432,-0.661458 0.452,0 0.005,-0.734707 -0.53298,-0.875294 -0.28118,-0.07353 -0.4621,-0.05418 -0.40204,0.04299 0.0601,0.09717 -0.0588,0.406483 -0.26422,0.687353 -0.36865,0.504162 -0.37371,0.504124 -0.39727,-0.0029 -0.0138,-0.296038 -0.13219,-0.137193 -0.27959,0.374998 -0.15128,0.525688 -0.46873,0.944294 -0.7773,1.024987 -0.38188,0.09986 -0.47658,0.278224 -0.35353,0.665899 0.11154,0.35143 0.0695,0.468617 -0.12487,0.348461 -0.17796,-0.109983 -0.29293,0.03278 -0.29293,0.363741 0,0.725221 0.20672,0.687141 0.99248,-0.182822 z m -5.58955,-2.27411 c 0.22089,-0.268495 0.34792,-0.541876 0.28228,-0.607514 -0.1469,-0.146906 -1.77405,1.87761 -1.76183,2.192094 0.005,0.12458 0.24936,-0.07115 0.54337,-0.434949 0.294,-0.363803 0.71529,-0.881136 0.93618,-1.149631 z m -15.77585,1.19718 c -0.47792,-0.216569 -0.65033,-0.99977 -0.2716,-1.233838 0.14938,-0.09232 0.2716,-0.306386 0.2716,-0.475698 0,-0.169312 -0.18549,-0.04301 -0.4122,0.280663 -0.22671,0.323676 -0.3292,0.722802 -0.22776,0.886946 0.1124,0.181866 0.0409,0.248075 -0.18311,0.169496 -0.20215,-0.07092 -0.35241,-0.316106 -0.33391,-0.544855 0.0185,-0.22875 -0.30892,-0.557802 -0.72761,-0.731227 -0.76388,-0.316409 -0.99464,-0.869393 -0.49234,-1.179829 0.32854,-0.203052 0.0836,-0.660323 -0.35066,-0.654739 -0.23145,0.003 -0.23508,0.05566 -0.0137,0.198437 0.21838,0.140818 0.20015,0.288403 -0.0661,0.535547 -0.33895,0.314574 -0.477,0.219407 -0.39893,-0.275015 0.0172,-0.10914 -0.1175,-0.168672 -0.2994,-0.132291 -0.1819,0.03638 -0.33073,-0.112448 -0.33073,-0.33073 0,-0.218281 0.1786,-0.358605 0.39688,-0.31183 0.3359,0.07198 0.34098,0.03133 0.0331,-0.264583 -0.29541,-0.283898 -0.38729,-0.285375 -0.48875,-0.0079 -0.10211,0.279307 -0.20123,0.279307 -0.5423,0 -0.33093,-0.271001 -0.31819,-0.177409 0.0615,0.451978 0.73275,1.21455 3.64561,3.833283 4.24375,3.815234 0.40384,-0.01219 0.43517,-0.05856 0.13229,-0.19581 z m 16.64738,-0.589926 c -0.17855,-0.110349 -0.22216,-0.345665 -0.1024,-0.552521 0.1229,-0.212278 0.10965,-0.269763 -0.0323,-0.139918 -0.13247,0.121216 -0.24631,0.502571 -0.25297,0.847455 -0.01,0.495393 0.0625,0.565133 0.34325,0.332129 0.26564,-0.220461 0.27684,-0.343468 0.0444,-0.487145 z m 2.27033,0.277793 c 0,-0.194028 -0.14883,-0.402387 -0.33073,-0.463021 -0.19674,-0.06558 -0.33073,0.122003 -0.33073,0.463021 0,0.341019 0.13399,0.528601 0.33073,0.463021 0.1819,-0.06063 0.33073,-0.268993 0.33073,-0.463021 z m 1.22519,0.285944 c -0.48442,-0.299386 0.0418,-0.600939 0.66916,-0.383499 0.43109,0.149404 0.42625,0.120141 -0.0423,-0.25531 -0.40198,-0.322137 -0.43378,-0.427052 -0.13229,-0.436522 0.33516,-0.01053 0.33889,-0.04917 0.024,-0.248518 -0.20508,-0.129829 -0.52209,-0.178795 -0.70446,-0.108813 -0.18237,0.06998 -0.37176,-0.08136 -0.42087,-0.336316 -0.0836,-0.433968 -0.11763,-0.435208 -0.53341,-0.01943 -0.52093,0.520941 -0.86427,0.588181 -0.57903,0.113399 0.12417,-0.206686 0.0232,-0.188259 -0.26914,0.04913 -0.37223,0.302241 -0.51025,0.311224 -0.67542,0.04396 -0.1579,-0.255484 -0.24809,-0.230395 -0.37671,0.104799 -0.24827,0.646965 -0.19882,0.852798 0.0955,0.397419 0.2074,-0.320928 0.25725,-0.282955 0.26053,0.198438 0.002,0.327422 0.12833,0.595312 0.28023,0.595312 0.1519,0 0.2412,-0.192714 0.19844,-0.428254 -0.0561,-0.309239 0.16562,-0.456161 0.79796,-0.52867 0.82791,-0.09493 0.86934,-0.06006 0.75918,0.638912 -0.0953,0.604586 -0.0144,0.747021 0.44388,0.781541 0.39778,0.02996 0.4572,-0.02157 0.20476,-0.177585 z m -9.37284,-1.675006 c -0.0631,-0.327422 -0.11466,-0.05953 -0.11466,0.595312 0,0.654844 0.0516,0.922735 0.11466,0.595313 0.0631,-0.327422 0.0631,-0.863203 0,-1.190625 z m 7.96424,-0.921484 c -0.15888,-0.191441 -0.21238,-0.424573 -0.11888,-0.51807 0.0935,-0.0935 0.17,-0.03109 0.17,0.138686 0,0.169774 0.11532,0.30868 0.25628,0.30868 0.14095,0 0.17981,-0.199264 0.0863,-0.442809 -0.1344,-0.350247 -0.0652,-0.40263 0.33097,-0.250599 0.27549,0.105715 0.41626,0.107575 0.31282,0.0041 -0.10345,-0.103442 -0.0457,-0.359631 0.12831,-0.569308 0.25369,-0.30567 0.10902,-0.29465 -0.7299,0.0556 -0.57546,0.240258 -1.16535,0.567152 -1.31087,0.726431 -0.18269,0.199954 -0.16221,0.231799 0.0661,0.102876 0.1819,-0.102697 0.33073,-0.06063 0.33073,0.09348 0,0.154109 -0.17859,0.280198 -0.39687,0.280198 -0.21829,0 -0.39688,0.08956 -0.39688,0.199015 0,0.109457 0.35115,0.203682 0.78034,0.209389 0.61558,0.0082 0.71935,-0.06312 0.49146,-0.3377 z m 3.72597,-0.122811 c 0.26084,-0.417 0.20374,-0.421779 -0.80158,-0.06708 -1.03228,0.364211 -1.07625,0.358324 -0.94932,-0.127078 0.1178,-0.450468 0.0605,-0.475894 -0.49855,-0.221178 -0.34741,0.15829 -0.63165,0.394778 -0.63165,0.525529 0,0.130751 0.11906,0.164144 0.26458,0.07421 0.14552,-0.08994 0.26458,-0.06491 0.26458,0.05563 0,0.434156 2.06184,0.223738 2.35194,-0.240024 z m -20.12418,-0.570271 c 0.0673,-0.349537 -0.0413,-0.458113 -0.39079,-0.390798 -0.26621,0.05127 -0.52596,0.311016 -0.57723,0.577222 -0.0673,0.349536 0.0413,0.458112 0.3908,0.390798 0.26621,-0.05127 0.52596,-0.311017 0.57722,-0.577222 z m 8.77641,-0.03908 c 0,-0.201105 -0.11906,-0.43923 -0.26458,-0.529167 -0.15066,-0.09311 -0.26459,0.13475 -0.26459,0.529167 0,0.394418 0.11393,0.622276 0.26459,0.529167 0.14552,-0.08994 0.26458,-0.328062 0.26458,-0.529167 z m 10.58333,-0.516474 c 0,-0.35672 -0.57794,-0.688209 -1.14612,-0.65738 -0.16999,0.0092 -0.0432,0.123716 0.28182,0.254427 0.41263,0.165953 0.53876,0.373557 0.41806,0.688091 -0.117,0.304905 -0.0728,0.388625 0.1367,0.259125 0.17025,-0.105221 0.30954,-0.350139 0.30954,-0.544263 z m 1.7011,-0.704406 c -0.0797,-0.12888 0.0408,-0.234328 0.26766,-0.234328 0.22687,0 0.41249,0.0893 0.41249,0.198437 0,0.109141 0.29766,0.198438 0.66146,0.198438 0.92485,0 0.82555,-0.297912 -0.16536,-0.496094 -1.41633,-0.283265 -2.01435,-0.194154 -2.14886,0.320197 -0.10204,0.390233 -0.005,0.46221 0.49523,0.36662 0.34221,-0.06542 0.55703,-0.224389 0.47738,-0.35327 z m -14.66845,-1.352033 c -0.27735,-0.258387 -0.62831,-0.469795 -0.77992,-0.469795 -0.48947,0 -0.29275,0.751764 0.30657,1.171545 0.78582,0.550409 1.18391,-0.03976 0.47335,-0.70175 z m 5.52991,-0.57342 c 0.40936,-0.480963 0.40017,-0.486127 -0.23547,-0.132292 -0.84586,0.470856 -1.04522,0.755988 -0.86214,1.233072 0.1186,0.309086 0.19821,0.28803 0.40943,-0.108298 0.14421,-0.27059 0.45389,-0.717207 0.68818,-0.992482 z m 0.90215,0.989126 c 1.36667,-0.705995 2.85294,-1.745636 2.70584,-1.892737 -0.0748,-0.07483 -0.3603,0.0669 -0.63439,0.314938 -0.27408,0.248042 -0.83174,0.511444 -1.23923,0.585338 -0.4075,0.07389 -0.8803,0.324972 -1.05065,0.557952 -0.17036,0.232981 -0.42703,0.351118 -0.57037,0.262527 -0.14335,-0.08859 -0.26063,0.01228 -0.26063,0.224161 0,0.480941 0.0193,0.479984 1.04943,-0.05218 z m -5.55661,-0.876834 c -0.17098,-0.653815 -0.85795,-1.285637 -0.77369,-0.711583 0.0511,0.347829 0.65009,1.232082 0.83468,1.232082 0.0413,0 0.0139,-0.234224 -0.061,-0.520499 z m 8.46655,-1.709087 c 0.24654,0.03618 0.51528,-0.04267 0.59721,-0.175229 0.13485,-0.218185 -0.23219,-0.352873 -0.74217,-0.27235 -0.35442,0.05596 -0.20988,-0.298752 0.26458,-0.649292 0.35846,-0.264828 0.39197,-0.414171 0.14842,-0.661272 -0.24373,-0.247278 -0.18412,-0.424984 0.26458,-0.788787 0.31856,-0.25828 0.49982,-0.549301 0.4028,-0.646715 -0.097,-0.09741 -0.43634,0.08284 -0.75406,0.400558 -0.42013,0.420126 -0.4983,0.657049 -0.28663,0.868715 0.40767,0.40767 0.36223,0.714375 -0.10583,0.714375 -0.21829,0 -0.40067,0.20836 -0.40529,0.463021 -0.008,0.418956 -0.0454,0.414144 -0.39688,-0.05057 -0.21365,-0.282474 -0.39028,-0.401537 -0.39251,-0.264583 -0.002,0.136954 -0.11602,0.07191 -0.25287,-0.144532 -0.19894,-0.314644 -0.24046,-0.282541 -0.20711,0.160136 0.0229,0.304522 0.21321,0.541146 0.42283,0.525831 0.20962,-0.01531 0.43365,0.121065 0.49785,0.303065 0.0748,0.211949 -0.035,0.272696 -0.30525,0.168978 -0.309,-0.118574 -0.37818,-0.04778 -0.25838,0.264404 0.0928,0.241837 0.0301,0.426334 -0.14491,0.426334 -0.16968,0 -0.23129,0.124944 -0.13691,0.277653 0.10468,0.169375 0.39987,0.03135 0.75694,-0.353938 0.32194,-0.347375 0.78705,-0.601986 1.03359,-0.565802 z m 1.1121,-0.944949 c -0.0898,-0.145266 0.0223,-0.528945 0.24897,-0.852622 0.22671,-0.323676 0.4122,-0.479722 0.4122,-0.346769 0,0.132953 0.17481,0.01062 0.38846,-0.271858 0.21365,-0.282475 0.3847,-0.692184 0.3801,-0.910465 -0.005,-0.23563 -0.0999,-0.170266 -0.23374,0.160881 -0.13257,0.328045 -0.55933,0.624542 -1.03621,0.719918 -0.62659,0.125317 -0.77621,0.269115 -0.6585,0.632869 0.0838,0.258889 0.19669,0.619535 0.25093,0.801436 0.0542,0.181901 0.1689,0.330729 0.25481,0.330729 0.0859,0 0.0828,-0.118854 -0.007,-0.264119 z m -8.88243,-1.34543 c 0.0102,0.206155 0.0761,0.317332 0.14637,0.24706 0.0703,-0.07027 0.0119,-0.531798 -0.12973,-1.025615 -0.29032,-1.012255 0.0912,-1.756159 0.53809,-1.049267 0.21832,0.345312 0.25002,0.343002 0.25357,-0.01847 0.002,-0.227222 0.25381,-0.681219 0.55908,-1.008884 0.30526,-0.327664 0.5765,-0.737067 0.60275,-0.909786 0.0263,-0.172718 0.12006,-0.433095 0.20847,-0.578616 0.0884,-0.145521 0.23237,-0.919427 0.31989,-1.719791 0.1396,-1.276433 0.1223,-1.357695 -0.14083,-0.661459 -0.16499,0.436563 -0.46363,0.890365 -0.66363,1.008449 -0.2,0.118085 -0.29458,0.326444 -0.21017,0.463021 0.0844,0.136577 0.0456,0.248322 -0.0863,0.248322 -0.13187,0 -0.37385,-0.267891 -0.53774,-0.595312 -0.27203,-0.543447 -0.28398,-0.526159 -0.13719,0.198437 0.0884,0.436562 0.34185,1.002109 0.56314,1.256771 0.46626,0.536578 0.2645,0.592772 -0.55696,0.15512 -0.50214,-0.267527 -0.53485,-0.255661 -0.24948,0.09049 0.18063,0.219115 0.24017,0.495821 0.13229,0.614903 -0.10788,0.119082 -0.0473,0.130866 0.13458,0.02619 0.37124,-0.213638 0.40259,-0.125054 0.17013,0.480723 -0.0883,0.230183 -0.44551,0.418514 -0.79375,0.418514 -0.59655,0 -0.63207,0.08792 -0.61455,1.521354 0.0134,1.094575 0.0824,1.372909 0.24599,0.992188 0.1343,-0.312528 0.235,-0.375714 0.24598,-0.154342 z m 7.96198,-1.929988 c -0.26336,-0.263357 -2.79535,0.748532 -3.09788,1.238044 -0.0808,0.130691 0.0993,0.105892 0.40011,-0.05511 0.42141,-0.225533 0.59577,-0.210131 0.75954,0.0671 0.40986,0.693823 1.00038,0.625098 1.60226,-0.186472 0.39029,-0.526248 0.50623,-0.893298 0.33597,-1.063561 z m -15.08713,-0.958379 c 0,-0.145521 -0.17859,-0.264584 -0.39687,-0.264584 -0.21829,0 -0.39688,0.119063 -0.39688,0.264584 0,0.14552 0.17859,0.264583 0.39688,0.264583 0.21828,0 0.39687,-0.119063 0.39687,-0.264583 z m 6.19621,-0.357486 c -0.0914,-0.238274 -0.27283,-0.367351 -0.4031,-0.286838 -0.13027,0.08051 -0.23686,0.04014 -0.23686,-0.08971 0,-0.129856 -0.19763,-0.236101 -0.43917,-0.236101 -0.31586,0 -0.22591,0.170051 0.32039,0.605652 0.83276,0.664021 1.0115,0.66567 0.75874,0.007 z m -1.17318,-3.67741 c -0.002,-0.181901 -0.11946,-0.509323 -0.26053,-0.727604 -0.19986,-0.309265 -0.25737,-0.236256 -0.26053,0.330729 -0.002,0.400182 0.11501,0.727604 0.26053,0.727604 0.14552,0 0.26276,-0.148828 0.26053,-0.330729 z m 0.44503,-1.123379 c 0,-0.502909 -0.86837,-1.305869 -1.06615,-0.985848 -0.14526,0.235027 0.60646,1.371185 0.91181,1.378118 0.0849,0.0019 0.15434,-0.174594 0.15434,-0.39227 z m -4.14514,-1.191725 c -0.13658,-0.476219 -0.12919,-0.79375 0.0185,-0.79375 0.13536,0 0.24611,-0.09922 0.24611,-0.220486 0,-0.121268 -0.17859,-0.220486 -0.39687,-0.220486 -0.46051,0 -0.5013,0.396471 -0.13884,1.349789 0.35609,0.936588 0.54923,0.854619 0.27113,-0.115067 z"
       id="path12636" />
    <path
       style="fill:#4a835d"
       d="m 192.05145,81.811982 c -0.14708,-0.177222 -0.18907,-0.400563 -0.0933,-0.496315 0.0957,-0.09575 0.0352,-0.174093 -0.13459,-0.174093 -0.16977,0 -0.30868,-0.178594 -0.30868,-0.396875 0,-0.218281 0.12609,-0.396875 0.2802,-0.396875 0.15411,0 0.22175,-0.09457 0.15032,-0.210147 -0.0714,-0.115581 0.0933,-0.70874 0.36618,-1.318133 1.66974,-3.729487 8.34583,-6.597878 12.04896,-5.176853 0.99264,0.380912 0.39117,1.986363 -1.26576,3.378573 -1.10989,0.93257 -4.44341,2.621903 -6.20747,3.145774 -0.75375,0.223839 -2.09,0.758022 -2.96944,1.187073 -1.22632,0.598284 -1.6613,0.704995 -1.8664,0.457871 z m 0.7247,-1.486207 c 0.25547,-0.336754 0.24079,-0.418923 -0.0749,-0.418923 -0.21629,0 -0.39268,0.237701 -0.39268,0.529166 0,0.291042 0.0337,0.479558 0.0749,0.418924 0.0412,-0.06063 0.21788,-0.298759 0.39267,-0.529167 z m 2.44288,0.03565 c 0.0728,-0.101473 0.34819,-0.264267 0.61208,-0.361766 0.67368,-0.248908 0.281,-0.738536 -0.48142,-0.600281 -0.34609,0.06276 -0.68627,-0.02559 -0.75595,-0.196331 -0.0697,-0.17074 -0.13609,-0.109104 -0.14757,0.136969 -0.0115,0.246074 0.12136,0.535322 0.29522,0.642774 0.20104,0.124248 -0.0157,0.321722 -0.59531,0.542464 l -0.91143,0.347095 0.92604,-0.163214 c 0.50933,-0.08977 0.98558,-0.246236 1.05834,-0.34771 z m 1.692,-1.381486 c -0.12863,-0.208135 -0.0471,-0.254196 0.24897,-0.140595 0.24215,0.09292 0.44028,0.04841 0.44028,-0.09893 0,-0.287582 0.83523,-0.232446 1.06418,0.07025 0.19521,0.258092 3.56603,-1.469663 3.56603,-1.827813 0,-0.162307 0.10838,-0.394322 0.24085,-0.51559 0.13994,-0.128101 0.16111,-0.08191 0.0505,0.110244 -0.31697,0.550799 0.24151,0.370612 0.82006,-0.264584 0.5773,-0.633827 1.13751,-1.605984 1.13751,-1.973972 0,-0.122553 -0.47558,-0.177469 -1.05686,-0.122036 -0.58127,0.05543 -1.00083,0.19144 -0.93235,0.302238 0.0685,0.110797 0.44269,0.140623 0.8316,0.06628 0.4738,-0.09057 0.64768,-0.03903 0.52701,0.156219 -0.0991,0.160264 -0.35487,0.22432 -0.56849,0.142346 -0.21363,-0.08197 -0.38841,-0.01724 -0.38841,0.143847 0,0.16109 0.12899,0.292891 0.28664,0.292891 0.15764,0 0.23702,0.148828 0.17638,0.330729 -0.0606,0.181901 -0.15985,0.292593 -0.22048,0.245983 -0.0606,-0.04661 -0.43767,0.03974 -0.83785,0.191889 -0.54736,0.208108 -0.73278,0.19633 -0.74849,-0.04755 -0.0159,-0.247148 -0.0527,-0.2452 -0.15489,0.0082 -0.0737,0.182808 -0.27266,0.24925 -0.44213,0.147649 -0.16948,-0.101601 -0.14247,0.01945 0.06,0.268992 0.32212,0.396988 0.31347,0.432738 -0.0692,0.285913 -0.32437,-0.124474 -0.3952,-0.05811 -0.27428,0.257007 0.0897,0.233648 0.29937,0.3485 0.46602,0.255226 0.2217,-0.124082 0.22485,-0.08456 0.0117,0.147284 -0.16021,0.174279 -0.53891,0.335524 -0.84157,0.358323 -0.30265,0.0228 -0.49197,0.135798 -0.4207,0.251111 0.10893,0.176259 -0.94598,0.291095 -2.82574,0.307606 -0.22579,0.002 -0.42675,0.218881 -0.44657,0.481996 -0.0198,0.263115 0.0827,0.478391 0.22772,0.478391 0.14506,0 0.17766,-0.139296 0.0724,-0.309547 z m -2.23562,-1.070494 c -0.28309,-0.104724 -0.51472,-0.260802 -0.51472,-0.34684 0,-0.08604 0.11907,-0.08285 0.26459,0.0071 0.14688,0.09078 0.26638,-0.108248 0.26863,-0.447406 0.002,-0.33601 0.0915,-0.491865 0.19844,-0.346344 0.32882,0.447568 1.38501,0.953696 1.38501,0.6637 0,-0.146754 -0.11906,-0.266825 -0.26458,-0.266825 -0.14552,0 -0.26459,-0.231098 -0.26459,-0.513552 0,-0.282453 -0.10263,-0.576984 -0.22808,-0.654514 -0.29881,-0.184678 -2.41775,1.775254 -2.41775,2.236326 0,0.226356 0.14132,0.168949 0.38846,-0.157794 0.38033,-0.502847 0.38864,-0.501658 0.39688,0.05683 0.008,0.511345 0.0754,0.538797 0.65542,0.265079 0.60703,-0.286471 0.6152,-0.317107 0.13229,-0.495747 z m 6.13929,-2.651078 c 0.144,0.04063 0.13613,-0.138778 -0.0188,-0.428233 -0.35446,-0.6623 -0.14069,-0.824674 1.14793,-0.871958 0.79994,-0.02935 0.8905,-0.06835 0.34889,-0.150242 -0.84411,-0.127624 -4.00032,0.496958 -3.3034,0.65371 0.25466,0.05728 0.46302,0.20394 0.46302,0.325914 0,0.260823 -0.51615,0.212155 -1.00816,-0.09506 -0.45338,-0.283099 -1.90226,0.320614 -1.90226,0.792628 0,0.200626 -0.12609,0.364775 -0.28019,0.364775 -0.15411,0 -0.19525,-0.137458 -0.0914,-0.305463 0.11432,-0.184971 0.0729,-0.233812 -0.10512,-0.123819 -0.432,0.266995 -0.0791,0.952073 0.39644,0.769591 0.2228,-0.0855 0.71896,-0.167274 1.10259,-0.181731 0.38362,-0.01446 0.6975,-0.175114 0.6975,-0.357015 0,-0.181901 -0.11907,-0.300964 -0.26459,-0.264583 -0.14552,0.03638 -0.23482,0.155442 -0.19844,0.264583 0.0364,0.109141 -0.0529,0.198437 -0.19843,0.198437 -0.14552,0 -0.26459,-0.126089 -0.26459,-0.280198 0,-0.154109 -0.14882,-0.204811 -0.33073,-0.112671 -0.1819,0.09214 -0.0949,-0.02334 0.19332,-0.256615 0.6706,-0.54275 1.32522,-0.416834 1.3379,0.25734 0.005,0.28844 0.12253,0.524436 0.26024,0.524436 0.13772,0 0.21094,-0.238125 0.16271,-0.529167 -0.0482,-0.291041 0.002,-0.440902 0.11229,-0.333024 0.25688,0.251974 0.95076,-0.313188 0.76116,-0.619966 -0.0787,-0.127365 0.0395,-0.161504 0.26265,-0.07586 0.42377,0.162617 0.39504,0.250269 -0.55403,1.690313 -0.34215,0.519144 -0.27871,0.490681 0.29487,-0.132292 0.40194,-0.436562 0.84233,-0.762285 0.97863,-0.723827 z"
       id="path12635" />
    <path
       style="fill:#4a835d"
       d="m 182.34067,84.64301 -6.92523,-0.07043 -0.17914,-0.815617 c -0.10525,-0.479212 -0.0601,-0.934623 0.10939,-1.104149 0.19341,-0.193403 2.66861,-0.293822 7.50744,-0.304579 7.17462,-0.01595 7.22293,-0.01981 7.87417,-0.629587 0.62984,-0.589729 0.65842,-0.593262 0.73656,-0.09103 0.0447,0.287382 0.34236,0.585666 0.66145,0.662853 0.3191,0.07719 3.37913,0.128326 6.80008,0.113642 6.49547,-0.02788 7.40614,0.106837 7.40614,1.095612 0,0.268103 -0.1569,0.617672 -0.34866,0.776819 -0.38041,0.315717 -11.57305,0.489207 -23.6422,0.366464 z m 23.33973,-0.71948 c 0.51332,-0.396456 0.51338,-0.404926 0.005,-0.797586 -0.28672,-0.221566 -1.0464,-0.395086 -1.71979,-0.392824 -0.79405,0.0027 -1.0811,0.08328 -0.84008,0.235925 0.20137,0.12753 0.70738,0.178089 1.12448,0.112353 0.65118,-0.102628 0.75779,-0.03314 0.75431,0.49168 -0.003,0.443693 -0.0664,0.512817 -0.23151,0.252222 -0.15856,-0.250244 -0.28228,-0.27028 -0.40844,-0.06615 -0.0995,0.161057 -0.44184,0.280963 -0.76068,0.266458 -0.53964,-0.02455 -0.53399,-0.04101 0.0818,-0.23821 0.36381,-0.11651 0.60193,-0.231305 0.52917,-0.2551 -0.33107,-0.108269 -1.94671,-0.191665 -1.65365,-0.08536 0.65924,0.239136 0.30841,0.519509 -0.66145,0.528622 -0.54571,0.0051 -0.78383,-0.04384 -0.52917,-0.108822 0.62669,-0.159905 0.58635,-0.486611 -0.0661,-0.535762 -0.30229,-0.02277 -0.52916,0.123241 -0.52916,0.340571 0,0.547605 -0.5232,0.470423 -0.55986,-0.08259 -0.025,-0.37776 -0.056,-0.36558 -0.16796,0.06614 l -0.13726,0.529167 -0.21032,-0.529167 c -0.16898,-0.425142 -0.21398,-0.441405 -0.22892,-0.08273 -0.0143,0.343666 -0.26139,0.443086 -1.0733,0.43188 -0.71173,-0.0098 -0.99635,-0.111977 -0.87525,-0.314145 0.0987,-0.164774 -0.022,-0.136182 -0.26822,0.06354 -0.37943,0.307779 -0.44828,0.307779 -0.45171,0 -0.003,-0.244946 -0.0673,-0.267608 -0.19844,-0.06963 -0.2686,0.40554 -7.69327,0.467401 -8.17439,0.06811 -0.19491,-0.161756 -0.35461,-0.190227 -0.3549,-0.06327 -2.9e-4,0.126959 -0.42435,0.261106 -0.94235,0.298104 -0.51801,0.037 -0.87564,-0.03982 -0.79474,-0.170713 0.0809,-0.13089 -0.0248,-0.303926 -0.2348,-0.384524 -0.27249,-0.104564 -0.33366,-0.01777 -0.21353,0.303005 0.14691,0.39229 0.1115,0.403297 -0.27806,0.08642 -0.29078,-0.236535 -0.44641,-0.259595 -0.44641,-0.06615 0,0.163339 -0.19317,0.29698 -0.42927,0.29698 -0.34102,0 -0.36511,-0.07732 -0.11717,-0.376059 0.25609,-0.30857 0.21442,-0.350515 -0.23219,-0.233724 -0.29936,0.07828 -0.54807,0.277276 -0.5527,0.442205 -0.005,0.164928 -0.18322,0.06875 -0.39688,-0.213721 -0.33873,-0.447847 -0.38846,-0.456314 -0.38846,-0.06615 0,0.610885 -1.04849,0.595889 -1.08902,-0.01558 -0.0269,-0.405672 -0.045,-0.409035 -0.14646,-0.02715 -0.0947,0.356628 -0.46193,0.431526 -2.01983,0.411983 -1.04723,-0.01314 -1.98311,-0.1402 -2.07974,-0.282362 -0.0966,-0.142162 -0.46969,-0.271347 -0.82904,-0.287078 -0.46681,-0.02044 -0.61157,0.08033 -0.50697,0.352917 0.0939,0.244743 0.0354,0.312934 -0.16314,0.190209 -0.17025,-0.10522 -0.30955,-0.345609 -0.30955,-0.534196 0,-0.241854 0.52282,-0.35727 1.77433,-0.391701 2.45171,-0.06745 2.46742,-0.292516 0.0204,-0.292516 -1.68035,0 -2.01668,0.07354 -2.1177,0.463021 -0.29253,1.127889 -0.564,1.107398 14.83851,1.120046 12.7742,0.01049 14.8108,-0.04137 15.2604,-0.388606 z m -21.97075,-1.009157 c 0.29104,-0.06816 -0.0661,-0.121517 -0.79375,-0.118581 -0.7276,0.0029 -1.06161,0.05607 -0.74223,0.118085 0.40883,0.07938 0.53533,0.244898 0.42742,0.559281 -0.14272,0.415849 -0.12808,0.41625 0.21307,0.0058 0.20148,-0.242385 0.60445,-0.496465 0.89549,-0.56462 z m 18.86532,-0.04471 c 0.0773,-0.07732 -0.24347,-0.140589 -0.71288,-0.140589 -0.4694,0 -0.7844,0.111744 -0.69999,0.24832 0.15065,0.243763 1.13655,0.168589 1.41287,-0.107731 z m -8.74501,-0.05839 c -0.25466,-0.06655 -0.67138,-0.06655 -0.92604,0 -0.25466,0.06655 -0.0463,0.121 0.46302,0.121 0.50933,0 0.71769,-0.05445 0.46302,-0.121 z"
       id="path12634" />
    <path
       style="fill:#5b6f57"
       d="m 188.46442,48.060111 c -0.73621,-0.813509 -2.21668,-1.654556 -3.27748,-1.861926 -0.93104,-0.182005 -0.93356,-0.185892 -0.14003,-0.215771 0.85079,-0.03203 2.77656,1.043237 3.66469,2.046203 0.27721,0.313062 0.44449,0.569204 0.37173,0.569204 -0.0728,0 -0.35127,-0.24197 -0.61891,-0.53771 z"
       id="path12553" />
    <path
       style="fill:#5b6f57"
       d="m 191.16637,50.846779 c 0.0896,-0.436563 0.32369,-1.028602 0.52026,-1.315642 0.50259,-0.733906 0.41022,-0.201908 -0.18249,1.051058 -0.43112,0.91139 -0.47802,0.948126 -0.33777,0.264584 z"
       id="path12551" />
    <path
       style="fill:#5b6f57"
       d="m 189.98874,51.243654 c 0,-0.509323 0.0545,-0.717683 0.121,-0.463021 0.0666,0.254661 0.0666,0.67138 0,0.926042 -0.0665,0.254661 -0.121,0.0463 -0.121,-0.463021 z"
       id="path12550" />
    <path
       style="fill:#5b6f57"
       d="m 192.98521,53.228029 c 0.0855,-0.291042 0.22361,-1.332839 0.30695,-2.315104 0.14398,-1.696896 0.12324,-1.785938 -0.41601,-1.785938 -0.31215,0 -0.56754,-0.106324 -0.56754,-0.236276 0,-0.387817 0.70657,-0.538825 1.02609,-0.219298 0.42396,0.423953 0.34485,3.351566 -0.11597,4.292032 -0.21391,0.436563 -0.319,0.555625 -0.23352,0.264584 z"
       id="path12548" />
    <path
       style="fill:#5b6f57"
       d="m 187.30791,52.96707 c -1.63431,-1.558866 -3.21919,-4.254302 -3.1743,-5.398602 0.0257,-0.654716 0.0371,-0.648555 0.22087,0.119083 0.37674,1.573837 1.4911,3.395296 3.09155,5.053223 0.89083,0.922834 1.56661,1.67788 1.50171,1.67788 -0.0649,0 -0.80282,-0.653213 -1.63983,-1.451584 z"
       id="path12547" />
    <path
       style="fill:#5b6f57"
       d="m 197.73257,54.94782 c 0.0899,-0.145521 0.42438,-0.256215 0.74322,-0.245987 0.55889,0.01793 0.56071,0.02676 0.0505,0.245987 -0.72826,0.312945 -0.98716,0.312945 -0.79375,0 z"
       id="path12546" />
    <path
       style="fill:#5b6f57"
       d="m 191.51486,55.543144 c 0,-0.299916 1.29863,-1.918975 1.31456,-1.638914 0.005,0.08087 -0.2893,0.550484 -0.6531,1.04359 -0.3638,0.493106 -0.66146,0.761002 -0.66146,0.595324 z"
       id="path12545" />
    <path
       style="fill:#5b6f57"
       d="m 188.22418,57.942242 c -0.38353,-0.701048 -1.17739,-1.675152 -1.76414,-2.164675 -1.39905,-1.167217 -4.28032,-2.230124 -5.59472,-2.063903 -0.64172,0.08115 -0.93271,0.02915 -0.82371,-0.147214 0.26936,-0.43584 2.86105,-0.04697 4.40851,0.66148 0.77019,0.352606 1.83298,1.02096 2.36176,1.485233 0.96499,0.847271 2.48113,3.132201 2.239,3.374329 -0.0712,0.07116 -0.44318,-0.444202 -0.8267,-1.14525 z"
       id="path12541" />
    <path
       style="fill:#5b6f57"
       d="m 191.17098,59.091549 c -0.0747,-0.194802 -0.0401,-0.760349 0.0769,-1.256771 0.20736,-0.879432 0.21351,-0.870346 0.2399,0.354185 0.0274,1.271926 -0.0693,1.547511 -0.3168,0.902586 z"
       id="path12540" />
    <path
       style="fill:#5b6f57"
       d="m 189.97993,57.543119 c -0.0289,-1.119198 -0.17163,-2.10849 -0.31715,-2.198427 -0.14552,-0.08994 -0.26459,-0.302049 -0.26459,-0.471361 0,-0.169312 0.18386,-0.04535 0.40857,0.275464 0.30222,0.431482 0.38477,1.083808 0.31715,2.506267 l -0.0914,1.922963 z"
       id="path12539" />
    <path
       style="fill:#5b6f57"
       d="m 192.04566,60.487016 c -0.004,-1.02643 4.68175,-5.70651 5.1973,-5.190962 0.0792,0.07921 -0.32132,0.38141 -0.89006,0.67156 -0.56874,0.29015 -1.37656,1.021751 -1.79515,1.625781 -0.4186,0.604029 -0.9728,1.246529 -1.23157,1.427777 -0.25877,0.181249 -0.65238,0.678344 -0.87469,1.104657 -0.22231,0.426312 -0.40494,0.588846 -0.40583,0.361187 z"
       id="path12538" />
    <path
       style="fill:#5b6f57"
       d="m 185.98886,61.496257 c -2.10046,-1.127452 -4.40372,-3.150579 -5.067,-4.450723 -0.29164,-0.571659 -0.47136,-1.039381 -0.39938,-1.039381 0.072,0 0.32586,0.386954 0.56417,0.859896 0.48749,0.967461 1.9343,2.579688 2.31501,2.579688 0.13731,0 0.38184,0.166593 0.54341,0.370207 0.16156,0.203614 1.12719,0.816665 2.14583,1.362336 2.1008,1.125361 2.18044,1.177873 1.78626,1.177873 -0.15747,0 -1.0072,-0.386953 -1.8883,-0.859896 z"
       id="path12533" />
    <path
       style="fill:#5b6f57"
       d="m 194.68986,62.761181 c 0,-0.06827 0.66518,-0.449842 1.47818,-0.847927 0.86926,-0.425638 2.01768,-1.314098 2.78787,-2.156808 1.44067,-1.576325 1.92614,-2.387411 2.20555,-3.684842 0.15982,-0.742141 0.10048,-0.894601 -0.43115,-1.107708 l -0.61649,-0.247119 0.59027,-0.01677 c 1.5791,-0.04487 0.61372,3.004624 -1.69977,5.369317 -1.44775,1.479789 -4.31446,3.268376 -4.31446,2.691858 z"
       id="path12531" />
    <path
       style="fill:#5b6f57"
       d="m 191.58692,66.589486 c 0,-0.654843 0.0516,-0.922734 0.11467,-0.595312 0.0631,0.327422 0.0631,0.863203 0,1.190625 -0.0631,0.327422 -0.11467,0.05953 -0.11467,-0.595313 z"
       id="path12523" />
    <path
       style="fill:#5b6f57"
       d="m 180.13778,68.538614 c -2.633,-1.529654 -5.77271,-5.621508 -5.11657,-6.668232 0.33664,-0.537038 2.16064,-0.70303 3.66136,-0.333199 0.85499,0.2107 0.64664,0.232286 -1.0844,0.112347 -2.47028,-0.171159 -2.76364,0.06267 -2.09282,1.668154 0.5447,1.303668 3.66273,4.453738 5.05727,5.109251 0.63946,0.300582 1.16266,0.605433 1.16266,0.677448 0,0.261983 -0.42088,0.111987 -1.5875,-0.565769 z"
       id="path12522" />
    <path
       style="fill:#5b6f57"
       d="m 187.90813,68.375424 c -1.80913,-2.893948 -3.97678,-4.811716 -6.70964,-5.936152 -0.80167,-0.329849 -1.27899,-0.602458 -1.06071,-0.605797 0.81942,-0.01253 3.62238,1.548659 4.97837,2.772859 1.42004,1.282021 4.10608,4.893569 3.63952,4.893569 -0.0795,0 -0.46092,-0.506016 -0.84754,-1.124479 z"
       id="path12521" />
    <path
       style="fill:#5b6f57"
       d="m 190.02932,67.118653 c 0,-1.81901 0.0423,-2.563151 0.0939,-1.653646 0.0517,0.909505 0.0517,2.397786 0,3.307292 -0.0517,0.909505 -0.0939,0.165364 -0.0939,-1.653646 z"
       id="path12520" />
    <path
       style="fill:#5b6f57"
       d="m 192.71275,70.293653 c 2.53197,-4.626865 6.44213,-7.58977 10.38891,-7.872161 2.08295,-0.149035 2.96528,0.173518 2.96528,1.084014 0,0.835857 -1.66238,3.53279 -2.96102,4.803772 -0.9428,0.922713 -0.90184,0.838306 0.31968,-0.658688 1.40638,-1.723561 2.36012,-3.449348 2.37095,-4.29026 0.0142,-1.099551 -3.65404,-0.905543 -6.13294,0.324365 -2.28472,1.133568 -3.52168,2.202386 -5.18039,4.476195 -1.4984,2.05406 -2.17038,2.863548 -1.77047,2.132763 z"
       id="path12519" />
    <path
       style="fill:#5b6f57"
       d="m 198.7909,71.044881 c 0.29104,-0.160057 1.10496,-0.637887 1.8087,-1.061844 0.70374,-0.423958 1.20119,-0.644089 1.10546,-0.48918 -0.21318,0.344917 -2.81177,1.855316 -3.17874,1.8476 -0.14552,-0.0031 -0.0265,-0.136518 0.26458,-0.296576 z"
       id="path12518" />
    <path
       style="fill:#5b6f57"
       d="m 185.48141,71.068055 c -2.35904,-0.98599 -3.90434,-1.832741 -3.34471,-1.832741 0.14552,0 0.49944,0.158157 0.78648,0.35146 0.28704,0.193302 1.53392,0.747323 2.77085,1.231157 1.23692,0.483835 2.36207,0.980522 2.50031,1.10375 0.45196,0.402867 -0.18992,0.200899 -2.71293,-0.853626 z"
       id="path12516" />
    <path
       style="fill:#5b6f57"
       d="m 195.21903,72.410314 c 0.65484,-0.27478 1.36922,-0.500684 1.5875,-0.502008 0.21828,-0.0013 -0.19844,0.230052 -0.92604,0.514169 -1.6903,0.660028 -2.23934,0.649935 -0.66146,-0.01216 z"
       id="path12514" />
    <path
       style="fill:#5b6f57"
       d="m 175.14139,72.349214 c -0.0313,-0.736981 -0.0208,-0.743217 1.88753,-1.120686 0.25467,-0.05037 0.46302,0.01633 0.46302,0.148228 0,0.131897 -0.32742,0.241636 -0.7276,0.243865 -0.90978,0.0051 -1.29113,0.245881 -1.46005,0.92199 -0.10194,0.408011 -0.13924,0.363732 -0.1629,-0.193397 z"
       id="path12513" />
    <path
       style="fill:#5b6f57"
       d="m 192.30861,73.513291 c 0.21828,-0.134867 0.69453,-0.324831 1.05833,-0.422142 0.45971,-0.122965 0.54041,-0.102139 0.26459,0.06828 -0.21828,0.134867 -0.69453,0.324831 -1.05834,0.422142 -0.4597,0.122965 -0.5404,0.102138 -0.26458,-0.06828 z"
       id="path12510" />
    <path
       style="fill:#5b6f57"
       d="m 185.16486,74.046468 c 0,-0.118764 -0.72408,-0.562014 -1.60907,-0.984999 -0.88498,-0.422985 -1.48313,-0.81104 -1.32922,-0.862344 0.15391,-0.0513 0.88005,0.233391 1.61363,0.632656 1.40327,0.763756 2.15918,1.430622 1.62164,1.430622 -0.16334,0 -0.29698,-0.09717 -0.29698,-0.215935 z"
       id="path12509" />
    <path
       style="fill:#5b6f57"
       d="m 191.25028,75.503597 c 0,-0.335989 0.18516,-0.842004 0.41147,-1.124479 0.39383,-0.491567 0.39887,-0.487634 0.11763,0.09172 -0.16161,0.332919 -0.21968,0.838934 -0.12906,1.124479 0.0935,0.294495 0.0426,0.519173 -0.11763,0.519173 -0.15533,0 -0.28241,-0.2749 -0.28241,-0.610889 z"
       id="path12505" />
    <path
       style="fill:#5b6f57"
       d="m 189.9763,75.07063 c -0.0398,-1.172583 -0.18428,-1.581993 -0.7761,-2.19972 -0.39993,-0.417444 -0.54876,-0.686789 -0.33073,-0.598545 0.88644,0.358759 1.35306,1.420883 1.25289,2.851803 l -0.0971,1.387193 z"
       id="path12502" />
    <path
       style="fill:#5b6f57"
       d="m 178.26704,76.272115 c -0.6651,-0.488172 -1.60604,-1.407955 -2.09099,-2.043962 l -0.88171,-1.156375 1.30206,1.322916 c 0.71613,0.727604 1.71661,1.644748 2.22328,2.038097 1.31546,1.021242 0.88854,0.897117 -0.55264,-0.160676 z"
       id="path12500" />
    <path
       style="fill:#5b6f57"
       d="m 202.49507,77.100795 c 0.58208,-0.513397 1.10496,-0.888789 1.16196,-0.834203 0.12604,0.120709 -0.96136,1.068298 -1.69113,1.473693 -0.29104,0.161678 -0.0529,-0.126092 0.52917,-0.63949 z"
       id="path12499" />
    <path
       style="fill:#5b6f57"
       d="m 193.2513,77.391528 c 1.40947,-1.522852 2.08338,-2.044294 3.55523,-2.750916 1.55809,-0.748025 1.79995,-0.823622 3.83646,-1.199164 3.11336,-0.57412 5.35246,0.782893 3.63225,2.201338 -0.36251,0.298917 -0.37488,0.270469 -0.1037,-0.238521 0.53074,-0.996177 0.36832,-1.369791 -0.72325,-1.663721 -1.1313,-0.304627 -2.31054,-0.192926 -4.51713,0.427875 -2.1098,0.593569 -3.33506,1.291899 -4.84183,2.759576 -1.49752,1.458672 -2.03345,1.755101 -0.83803,0.463533 z"
       id="path12496" />
    <path
       style="fill:#5b6f57"
       d="m 188.30845,77.252871 c -0.34151,-0.553358 -1.03537,-1.482355 -1.54191,-2.064438 l -0.92097,-1.058333 0.87669,0.79375 c 0.98742,0.894001 2.52959,3.012664 2.33474,3.20751 -0.0702,0.07019 -0.40703,-0.325132 -0.74855,-0.878489 z"
       id="path12495" />
    <path
       style="fill:#5b6f57"
       d="m 191.49393,77.503297 c 0.12643,-0.913124 0.14488,-0.931568 0.23211,-0.232111 0.0521,0.41791 -0.01,0.864286 -0.13734,0.991948 -0.13309,0.133092 -0.17352,-0.191053 -0.0948,-0.759837 z"
       id="path12494" />
    <path
       style="fill:#5b6f57"
       d="m 180.73309,77.969458 c -1.20671,-0.735745 -1.07292,-0.916083 0.19844,-0.267483 0.99847,0.509384 1.30827,0.794995 0.85989,0.792761 -0.10914,-5.44e-4 -0.58539,-0.236919 -1.05833,-0.525278 z"
       id="path12493" />
    <path
       style="fill:#5b6f57"
       d="m 199.56731,78.788368 c 0.0818,-0.132296 0.53312,-0.37456 1.003,-0.538364 0.99054,-0.345304 0.6909,-0.0053 -0.4072,0.462059 -0.40945,0.174264 -0.67756,0.208601 -0.5958,0.07631 z"
       id="path12491" />
    <path
       style="fill:#5b6f57"
       d="m 197.07111,79.893742 c 0.21828,-0.08124 0.7243,-0.313021 1.12448,-0.515073 0.40018,-0.202052 0.7276,-0.307836 0.7276,-0.235075 0,0.207684 -1.52261,0.941976 -1.90509,0.918742 -0.23099,-0.01403 -0.21359,-0.06937 0.053,-0.168594 z"
       id="path12489" />
    <path
       style="fill:#5b6f57"
       d="m 186.30273,80.105441 c -2.10691,-0.602762 -4.11267,-1.368936 -3.96647,-1.515138 0.0627,-0.06268 0.74142,0.133352 1.50831,0.435631 0.76689,0.302279 1.97192,0.673467 2.67785,0.824862 0.70593,0.151395 1.35114,0.38469 1.4338,0.518433 0.0827,0.133743 0.1135,0.234687 0.0685,0.22432 -0.045,-0.01037 -0.81988,-0.230016 -1.72202,-0.488108 z"
       id="path12485" />
    <path
       style="fill:#5b6f57"
       d="m 193.87971,81.029037 c 0.19601,-0.236185 0.41922,-0.366601 0.496,-0.289813 0.0768,0.07679 0.38725,-0.01853 0.6899,-0.211824 0.80222,-0.512331 1.47633,-0.725443 1.47633,-0.466723 0,0.123981 -0.20836,0.285895 -0.46302,0.359807 -0.25466,0.07391 -0.93385,0.337696 -1.50931,0.586183 -0.93908,0.405502 -1.00978,0.407794 -0.6899,0.02237 z"
       id="path12484" />
    <path
       style="fill:#5b6f57"
       d="m 175.21698,83.135741 c 0.0381,-0.761264 0.78516,-0.820631 8.36038,-0.664398 l 6.74688,0.13915 -7.45608,0.05929 c -6.85408,0.0545 -7.465,0.09667 -7.56663,0.522309 -0.0869,0.363767 -0.10498,0.351689 -0.0846,-0.05635 z"
       id="path12480" />
    <path
       style="fill:#5b6f57"
       d="m 175.37523,84.382684 c -3e-5,-0.10914 6.77037,-0.166759 15.04532,-0.128041 13.17941,0.06167 15.08667,0.02065 15.37828,-0.330729 0.26576,-0.320216 0.26647,-0.481178 0.004,-0.798 -0.27673,-0.333446 -1.38841,-0.396875 -6.95566,-0.396875 -3.64446,0 -6.55904,-0.06724 -6.47686,-0.149427 0.19369,-0.193689 12.77655,-0.147208 13.28809,0.04909 0.21388,0.08207 0.46752,0.397044 0.56366,0.699935 0.39372,1.24051 0.24247,1.252488 -15.81563,1.252488 -8.26688,0 -15.0307,-0.0893 -15.03073,-0.198438 z"
       id="path12478" />
    <path
       style="fill:#367048"
       d="m 188.46442,48.060111 c -0.73621,-0.813509 -2.21668,-1.654556 -3.27748,-1.861926 -0.93104,-0.182005 -0.93356,-0.185892 -0.14003,-0.215771 0.85079,-0.03203 2.77656,1.043237 3.66469,2.046203 0.27721,0.313062 0.44449,0.569204 0.37173,0.569204 -0.0728,0 -0.35127,-0.24197 -0.61891,-0.53771 z"
       id="path12128" />
    <path
       style="fill:#367048"
       d="m 191.16637,50.846779 c 0.0896,-0.436563 0.32369,-1.028602 0.52026,-1.315642 0.50259,-0.733906 0.41022,-0.201908 -0.18249,1.051058 -0.43112,0.91139 -0.47802,0.948126 -0.33777,0.264584 z"
       id="path12126" />
    <path
       style="fill:#367048"
       d="m 189.98874,51.243654 c 0,-0.509323 0.0545,-0.717683 0.121,-0.463021 0.0666,0.254661 0.0666,0.67138 0,0.926042 -0.0665,0.254661 -0.121,0.0463 -0.121,-0.463021 z"
       id="path12125" />
    <path
       style="fill:#367048"
       d="m 192.98521,53.228029 c 0.0855,-0.291042 0.22361,-1.332839 0.30695,-2.315104 0.14398,-1.696896 0.12324,-1.785938 -0.41601,-1.785938 -0.31215,0 -0.56754,-0.106324 -0.56754,-0.236276 0,-0.387817 0.70657,-0.538825 1.02609,-0.219298 0.42396,0.423953 0.34485,3.351566 -0.11597,4.292032 -0.21391,0.436563 -0.319,0.555625 -0.23352,0.264584 z"
       id="path12123" />
    <path
       style="fill:#367048"
       d="m 187.30791,52.96707 c -1.63431,-1.558866 -3.21919,-4.254302 -3.1743,-5.398602 0.0257,-0.654716 0.0371,-0.648555 0.22087,0.119083 0.37674,1.573837 1.4911,3.395296 3.09155,5.053223 0.89083,0.922834 1.56661,1.67788 1.50171,1.67788 -0.0649,0 -0.80282,-0.653213 -1.63983,-1.451584 z"
       id="path12122" />
    <path
       style="fill:#367048"
       d="m 197.73257,54.94782 c 0.0899,-0.145521 0.42438,-0.256215 0.74322,-0.245987 0.55889,0.01793 0.56071,0.02676 0.0505,0.245987 -0.72826,0.312945 -0.98716,0.312945 -0.79375,0 z"
       id="path12121" />
    <path
       style="fill:#367048"
       d="m 191.51486,55.543144 c 0,-0.299916 1.29863,-1.918975 1.31456,-1.638914 0.005,0.08087 -0.2893,0.550484 -0.6531,1.04359 -0.3638,0.493106 -0.66146,0.761002 -0.66146,0.595324 z"
       id="path12120" />
    <path
       style="fill:#367048"
       d="m 188.22418,57.942242 c -0.38353,-0.701048 -1.17739,-1.675152 -1.76414,-2.164675 -1.39905,-1.167217 -4.28032,-2.230124 -5.59472,-2.063903 -0.64172,0.08115 -0.93271,0.02915 -0.82371,-0.147214 0.26936,-0.43584 2.86105,-0.04697 4.40851,0.66148 0.77019,0.352606 1.83298,1.02096 2.36176,1.485233 0.96499,0.847271 2.48113,3.132201 2.239,3.374329 -0.0712,0.07116 -0.44318,-0.444202 -0.8267,-1.14525 z"
       id="path12116" />
    <path
       style="fill:#367048"
       d="m 191.17098,59.091549 c -0.0747,-0.194802 -0.0401,-0.760349 0.0769,-1.256771 0.20736,-0.879432 0.21351,-0.870346 0.2399,0.354185 0.0274,1.271926 -0.0693,1.547511 -0.3168,0.902586 z"
       id="path12115" />
    <path
       style="fill:#367048"
       d="m 189.97993,57.543119 c -0.0289,-1.119198 -0.17163,-2.10849 -0.31715,-2.198427 -0.14552,-0.08994 -0.26459,-0.302049 -0.26459,-0.471361 0,-0.169312 0.18386,-0.04535 0.40857,0.275464 0.30222,0.431482 0.38477,1.083808 0.31715,2.506267 l -0.0914,1.922963 z"
       id="path12114" />
    <path
       style="fill:#367048"
       d="m 192.04566,60.487016 c -0.004,-1.02643 4.68175,-5.70651 5.1973,-5.190962 0.0792,0.07921 -0.32132,0.38141 -0.89006,0.67156 -0.56874,0.29015 -1.37656,1.021751 -1.79515,1.625781 -0.4186,0.604029 -0.9728,1.246529 -1.23157,1.427777 -0.25877,0.181249 -0.65238,0.678344 -0.87469,1.104657 -0.22231,0.426312 -0.40494,0.588846 -0.40583,0.361187 z"
       id="path12113" />
    <path
       style="fill:#367048"
       d="m 185.98886,61.496257 c -2.10046,-1.127452 -4.40372,-3.150579 -5.067,-4.450723 -0.29164,-0.571659 -0.47136,-1.039381 -0.39938,-1.039381 0.072,0 0.32586,0.386954 0.56417,0.859896 0.48749,0.967461 1.9343,2.579688 2.31501,2.579688 0.13731,0 0.38184,0.166593 0.54341,0.370207 0.16156,0.203614 1.12719,0.816665 2.14583,1.362336 2.1008,1.125361 2.18044,1.177873 1.78626,1.177873 -0.15747,0 -1.0072,-0.386953 -1.8883,-0.859896 z"
       id="path12108" />
    <path
       style="fill:#367048"
       d="m 194.68986,62.761181 c 0,-0.06827 0.66518,-0.449842 1.47818,-0.847927 0.86926,-0.425638 2.01768,-1.314098 2.78787,-2.156808 1.44067,-1.576325 1.92614,-2.387411 2.20555,-3.684842 0.15982,-0.742141 0.10048,-0.894601 -0.43115,-1.107708 l -0.61649,-0.247119 0.59027,-0.01677 c 1.5791,-0.04487 0.61372,3.004624 -1.69977,5.369317 -1.44775,1.479789 -4.31446,3.268376 -4.31446,2.691858 z"
       id="path12106" />
    <path
       style="fill:#367048"
       d="m 191.58692,66.589486 c 0,-0.654843 0.0516,-0.922734 0.11467,-0.595312 0.0631,0.327422 0.0631,0.863203 0,1.190625 -0.0631,0.327422 -0.11467,0.05953 -0.11467,-0.595313 z"
       id="path12098" />
    <path
       style="fill:#367048"
       d="m 180.13778,68.538614 c -2.633,-1.529654 -5.77271,-5.621508 -5.11657,-6.668232 0.33664,-0.537038 2.16064,-0.70303 3.66136,-0.333199 0.85499,0.2107 0.64664,0.232286 -1.0844,0.112347 -2.47028,-0.171159 -2.76364,0.06267 -2.09282,1.668154 0.5447,1.303668 3.66273,4.453738 5.05727,5.109251 0.63946,0.300582 1.16266,0.605433 1.16266,0.677448 0,0.261983 -0.42088,0.111987 -1.5875,-0.565769 z"
       id="path12097" />
    <path
       style="fill:#367048"
       d="m 187.90813,68.375424 c -1.80913,-2.893948 -3.97678,-4.811716 -6.70964,-5.936152 -0.80167,-0.329849 -1.27899,-0.602458 -1.06071,-0.605797 0.81942,-0.01253 3.62238,1.548659 4.97837,2.772859 1.42004,1.282021 4.10608,4.893569 3.63952,4.893569 -0.0795,0 -0.46092,-0.506016 -0.84754,-1.124479 z"
       id="path12096" />
    <path
       style="fill:#367048"
       d="m 190.02932,67.118653 c 0,-1.81901 0.0423,-2.563151 0.0939,-1.653646 0.0517,0.909505 0.0517,2.397786 0,3.307292 -0.0517,0.909505 -0.0939,0.165364 -0.0939,-1.653646 z"
       id="path12095" />
    <path
       style="fill:#367048"
       d="m 192.71275,70.293653 c 2.53197,-4.626865 6.44213,-7.58977 10.38891,-7.872161 2.08295,-0.149035 2.96528,0.173518 2.96528,1.084014 0,0.835857 -1.66238,3.53279 -2.96102,4.803772 -0.9428,0.922713 -0.90184,0.838306 0.31968,-0.658688 1.40638,-1.723561 2.36012,-3.449348 2.37095,-4.29026 0.0142,-1.099551 -3.65404,-0.905543 -6.13294,0.324365 -2.28472,1.133568 -3.52168,2.202386 -5.18039,4.476195 -1.4984,2.05406 -2.17038,2.863548 -1.77047,2.132763 z"
       id="path12094" />
    <path
       style="fill:#367048"
       d="m 198.7909,71.044881 c 0.29104,-0.160057 1.10496,-0.637887 1.8087,-1.061844 0.70374,-0.423958 1.20119,-0.644089 1.10546,-0.48918 -0.21318,0.344917 -2.81177,1.855316 -3.17874,1.8476 -0.14552,-0.0031 -0.0265,-0.136518 0.26458,-0.296576 z"
       id="path12093" />
    <path
       style="fill:#367048"
       d="m 185.48141,71.068055 c -2.35904,-0.98599 -3.90434,-1.832741 -3.34471,-1.832741 0.14552,0 0.49944,0.158157 0.78648,0.35146 0.28704,0.193302 1.53392,0.747323 2.77085,1.231157 1.23692,0.483835 2.36207,0.980522 2.50031,1.10375 0.45196,0.402867 -0.18992,0.200899 -2.71293,-0.853626 z"
       id="path12091" />
    <path
       style="fill:#367048"
       d="m 195.21903,72.410314 c 0.65484,-0.27478 1.36922,-0.500684 1.5875,-0.502008 0.21828,-0.0013 -0.19844,0.230052 -0.92604,0.514169 -1.6903,0.660028 -2.23934,0.649935 -0.66146,-0.01216 z"
       id="path12089" />
    <path
       style="fill:#367048"
       d="m 175.14139,72.349214 c -0.0313,-0.736981 -0.0208,-0.743217 1.88753,-1.120686 0.25467,-0.05037 0.46302,0.01633 0.46302,0.148228 0,0.131897 -0.32742,0.241636 -0.7276,0.243865 -0.90978,0.0051 -1.29113,0.245881 -1.46005,0.92199 -0.10194,0.408011 -0.13924,0.363732 -0.1629,-0.193397 z"
       id="path12088" />
    <path
       style="fill:#367048"
       d="m 192.30861,73.513291 c 0.21828,-0.134867 0.69453,-0.324831 1.05833,-0.422142 0.45971,-0.122965 0.54041,-0.102139 0.26459,0.06828 -0.21828,0.134867 -0.69453,0.324831 -1.05834,0.422142 -0.4597,0.122965 -0.5404,0.102138 -0.26458,-0.06828 z"
       id="path12085" />
    <path
       style="fill:#367048"
       d="m 185.16486,74.046468 c 0,-0.118764 -0.72408,-0.562014 -1.60907,-0.984999 -0.88498,-0.422985 -1.48313,-0.81104 -1.32922,-0.862344 0.15391,-0.0513 0.88005,0.233391 1.61363,0.632656 1.40327,0.763756 2.15918,1.430622 1.62164,1.430622 -0.16334,0 -0.29698,-0.09717 -0.29698,-0.215935 z"
       id="path12084" />
    <path
       style="fill:#367048"
       d="m 191.25028,75.503597 c 0,-0.335989 0.18516,-0.842004 0.41147,-1.124479 0.39383,-0.491567 0.39887,-0.487634 0.11763,0.09172 -0.16161,0.332919 -0.21968,0.838934 -0.12906,1.124479 0.0935,0.294495 0.0426,0.519173 -0.11763,0.519173 -0.15533,0 -0.28241,-0.2749 -0.28241,-0.610889 z"
       id="path12080" />
    <path
       style="fill:#367048"
       d="m 189.9763,75.07063 c -0.0398,-1.172583 -0.18428,-1.581993 -0.7761,-2.19972 -0.39993,-0.417444 -0.54876,-0.686789 -0.33073,-0.598545 0.88644,0.358759 1.35306,1.420883 1.25289,2.851803 l -0.0971,1.387193 z"
       id="path12077" />
    <path
       style="fill:#367048"
       d="m 178.26704,76.272115 c -0.6651,-0.488172 -1.60604,-1.407955 -2.09099,-2.043962 l -0.88171,-1.156375 1.30206,1.322916 c 0.71613,0.727604 1.71661,1.644748 2.22328,2.038097 1.31546,1.021242 0.88854,0.897117 -0.55264,-0.160676 z"
       id="path12075" />
    <path
       style="fill:#367048"
       d="m 202.49507,77.100795 c 0.58208,-0.513397 1.10496,-0.888789 1.16196,-0.834203 0.12604,0.120709 -0.96136,1.068298 -1.69113,1.473693 -0.29104,0.161678 -0.0529,-0.126092 0.52917,-0.63949 z"
       id="path12074" />
    <path
       style="fill:#367048"
       d="m 193.2513,77.391528 c 1.40947,-1.522852 2.08338,-2.044294 3.55523,-2.750916 1.55809,-0.748025 1.79995,-0.823622 3.83646,-1.199164 3.11336,-0.57412 5.35246,0.782893 3.63225,2.201338 -0.36251,0.298917 -0.37488,0.270469 -0.1037,-0.238521 0.53074,-0.996177 0.36832,-1.369791 -0.72325,-1.663721 -1.1313,-0.304627 -2.31054,-0.192926 -4.51713,0.427875 -2.1098,0.593569 -3.33506,1.291899 -4.84183,2.759576 -1.49752,1.458672 -2.03345,1.755101 -0.83803,0.463533 z"
       id="path12071" />
    <path
       style="fill:#367048"
       d="m 188.30845,77.252871 c -0.34151,-0.553358 -1.03537,-1.482355 -1.54191,-2.064438 l -0.92097,-1.058333 0.87669,0.79375 c 0.98742,0.894001 2.52959,3.012664 2.33474,3.20751 -0.0702,0.07019 -0.40703,-0.325132 -0.74855,-0.878489 z"
       id="path12070" />
    <path
       style="fill:#367048"
       d="m 191.49393,77.503297 c 0.12643,-0.913124 0.14488,-0.931568 0.23211,-0.232111 0.0521,0.41791 -0.01,0.864286 -0.13734,0.991948 -0.13309,0.133092 -0.17352,-0.191053 -0.0948,-0.759837 z"
       id="path12069" />
    <path
       style="fill:#367048"
       d="m 180.73309,77.969458 c -1.20671,-0.735745 -1.07292,-0.916083 0.19844,-0.267483 0.99847,0.509384 1.30827,0.794995 0.85989,0.792761 -0.10914,-5.44e-4 -0.58539,-0.236919 -1.05833,-0.525278 z"
       id="path12068" />
    <path
       style="fill:#367048"
       d="m 199.56731,78.788368 c 0.0818,-0.132296 0.53312,-0.37456 1.003,-0.538364 0.99054,-0.345304 0.6909,-0.0053 -0.4072,0.462059 -0.40945,0.174264 -0.67756,0.208601 -0.5958,0.07631 z"
       id="path12066" />
    <path
       style="fill:#367048"
       d="m 197.07111,79.893742 c 0.21828,-0.08124 0.7243,-0.313021 1.12448,-0.515073 0.40018,-0.202052 0.7276,-0.307836 0.7276,-0.235075 0,0.207684 -1.52261,0.941976 -1.90509,0.918742 -0.23099,-0.01403 -0.21359,-0.06937 0.053,-0.168594 z"
       id="path12064" />
    <path
       style="fill:#367048"
       d="m 186.30273,80.105441 c -2.10691,-0.602762 -4.11267,-1.368936 -3.96647,-1.515138 0.0627,-0.06268 0.74142,0.133352 1.50831,0.435631 0.76689,0.302279 1.97192,0.673467 2.67785,0.824862 0.70593,0.151395 1.35114,0.38469 1.4338,0.518433 0.0827,0.133743 0.1135,0.234687 0.0685,0.22432 -0.045,-0.01037 -0.81988,-0.230016 -1.72202,-0.488108 z"
       id="path12060" />
    <path
       style="fill:#367048"
       d="m 193.87971,81.029037 c 0.19601,-0.236185 0.41922,-0.366601 0.496,-0.289813 0.0768,0.07679 0.38725,-0.01853 0.6899,-0.211824 0.80222,-0.512331 1.47633,-0.725443 1.47633,-0.466723 0,0.123981 -0.20836,0.285895 -0.46302,0.359807 -0.25466,0.07391 -0.93385,0.337696 -1.50931,0.586183 -0.93908,0.405502 -1.00978,0.407794 -0.6899,0.02237 z"
       id="path12059" />
    <path
       style="fill:#367048"
       d="m 175.21698,83.135741 c 0.0381,-0.761264 0.78516,-0.820631 8.36038,-0.664398 l 6.74688,0.13915 -7.45608,0.05929 c -6.85408,0.0545 -7.465,0.09667 -7.56663,0.522309 -0.0869,0.363767 -0.10498,0.351689 -0.0846,-0.05635 z"
       id="path12055" />
    <path
       style="fill:#367048"
       d="m 175.37523,84.382684 c -3e-5,-0.10914 6.77037,-0.166759 15.04532,-0.128041 13.17941,0.06167 15.08667,0.02065 15.37828,-0.330729 0.26576,-0.320216 0.26647,-0.481178 0.004,-0.798 -0.27673,-0.333446 -1.38841,-0.396875 -6.95566,-0.396875 -3.64446,0 -6.55904,-0.06724 -6.47686,-0.149427 0.19369,-0.193689 12.77655,-0.147208 13.28809,0.04909 0.21388,0.08207 0.46752,0.397044 0.56366,0.699935 0.39372,1.24051 0.24247,1.252488 -15.81563,1.252488 -8.26688,0 -15.0307,-0.0893 -15.03073,-0.198438 z"
       id="path12053" />
    <path
       style="fill:#255c36"
       d="m 190.00935,67.515528 c 10e-4,-0.873125 0.0509,-1.198415 0.10976,-0.722866 0.0589,0.475549 0.0577,1.189924 -0.003,1.5875 -0.0604,0.397576 -0.10855,0.0085 -0.10706,-0.864634 z"
       id="path11725" />
    <path
       style="fill:#255c36"
       d="m 176.10597,82.541925 c 0.32912,-0.06329 0.80537,-0.06088 1.05833,0.0053 0.25297,0.06622 -0.0163,0.118003 -0.5984,0.115066 -0.58208,-0.0029 -0.78905,-0.05712 -0.45993,-0.120406 z"
       id="path11720" />
    <path
       style="fill:#255c36"
       d="m 204.87632,82.729067 c -0.73226,-0.18633 -0.74251,-0.204086 -0.13229,-0.229228 0.3638,-0.01499 0.84005,0.08816 1.05833,0.229228 0.45031,0.291009 0.21761,0.291009 -0.92604,0 z"
       id="path11715" />
  </g>
</svg>
