<?xml version="1.0" encoding="UTF-8" standalone="no"?>
<!-- Created with Inkscape (http://www.inkscape.org/) -->

<svg
   width="185"
   height="185"
   viewBox="0 0 48.947914 48.947918"
   version="1.1"
   id="svg1"
   xmlns="http://www.w3.org/2000/svg"
   xmlns:svg="http://www.w3.org/2000/svg">
  <defs
     id="defs1" />
  <g
     id="layer1">
    <g
       id="g34569"
       style="display:inline;stroke-width:1.67342"
       transform="matrix(0.59757877,0,0,0.59757877,8.9740443,-139.94294)">
      <path
         style="fill:#d0cdb3;stroke-width:1.67342"
         d="m 19.437555,315.88767 c -11.7343327,-0.50635 -20.8136147,-2.57847 -22.2116551,-5.06925 -0.3676435,-0.655 -0.356284,-0.77024 0.1430583,-1.45123 1.68577617,-2.29902 9.8467637,-4.53234 18.3372778,-5.01813 l 2.852253,-0.16319 -2.026212,-1.93584 c -1.114416,-1.0647 -2.357439,-2.5444 -2.762271,-3.28821 -0.944934,-1.73615 -1.219134,-4.16718 -0.58004,-5.14256 0.392261,-0.59866 0.615004,-0.66992 2.093965,-0.66992 1.335537,0 2.014939,0.17249 3.519595,0.89357 1.025521,0.49147 2.296508,1.27282 2.824415,1.73632 1.257483,1.10409 2.449349,3.5336 3.007321,6.13015 0.287028,1.33571 0.575404,2.08787 0.800476,2.08787 0.278301,0 0.351816,-0.90062 0.351816,-4.31003 0,-5.99745 0.541995,-7.84718 3.32858,-11.35983 1.321205,-1.66545 4.528337,-3.96996 6.237589,-4.48207 1.442052,-0.43204 2.267016,0.0281 3.114571,1.73713 0.536927,1.08269 0.642715,1.68976 0.645343,3.70332 0.0054,4.10436 -1.246029,7.19982 -4.237669,10.4824 -0.996805,1.09375 -2.20933,2.49273 -2.694501,3.10886 l -0.882129,1.12022 1.279004,0.003 c 0.703452,0.001 2.886347,0.1795 4.850878,0.39577 10.406984,1.14571 17.462499,3.54885 17.462499,5.94779 0,2.9458 -8.743304,4.98913 -23.680207,5.53412 -3.4925,0.12742 -6.588124,0.22423 -6.879166,0.21513 -0.291042,-0.009 -2.493698,-0.10133 -4.894791,-0.20494 z"
         id="path33037" />
      <path
         style="fill:#a5ab91;stroke-width:1.67342"
         d="m 15.336513,315.61723 c -7.7434487,-0.62112 -14.58606418,-2.14247 -17.0904582,-3.7998 -3.9035592,-2.58325 2.49554506,-5.77654 14.3123332,-7.14217 1.964531,-0.22703 4.122114,-0.41293 4.794628,-0.4131 l 1.222753,-3.3e-4 -2.168284,-2.18281 c -2.625813,-2.64341 -3.435413,-4.15693 -3.445266,-6.44084 -0.0098,-2.2643 0.301677,-2.56914 2.495055,-2.44215 3.337947,0.19326 6.672836,2.40523 8.041414,5.33373 0.351223,0.75155 0.853077,2.28918 1.115229,3.41697 0.790116,3.39909 1.099773,2.70148 1.233151,-2.77812 0.09037,-3.71277 0.225742,-5.13437 0.585772,-6.15157 1.242694,-3.51098 4.041332,-6.67549 7.382777,-8.34794 1.148058,-0.57462 2.323479,-1.04476 2.612046,-1.04476 0.728077,0 1.89928,1.33099 2.275161,2.58557 0.172643,0.57623 0.312483,2.04591 0.310756,3.26596 -0.0059,4.13718 -1.247518,7.10464 -4.415495,10.55263 -1.136476,1.23693 -2.331798,2.62198 -2.656273,3.0779 l -0.589952,0.82893 2.311076,0.17804 c 8.375126,0.6452 15.242983,2.03177 18.682514,3.77186 6.658958,3.36884 0.01155,6.54173 -16.239146,7.75116 -4.109471,0.30584 -16.864731,0.29407 -20.769791,-0.0192 z"
         id="path33036" />
      <path
         style="fill:#d65b86;stroke-width:1.67342"
         d="m 15.86568,315.62699 c -3.672341,-0.29717 -9.8297285,-1.17924 -11.9062497,-1.70562 -7.2081691,-1.8272 -8.7085753,-3.99706 -4.27359306,-6.18039 2.94385346,-1.44925 8.91603656,-2.72056 15.28848776,-3.25447 l 3.656839,-0.30638 -1.689537,-1.54816 c -0.929246,-0.85148 -2.062143,-2.11068 -2.517551,-2.79822 -1.575545,-2.37864 -1.970744,-5.21864 -0.878226,-6.31116 0.345098,-0.3451 0.776014,-0.40939 2.040128,-0.30436 3.128364,0.25991 6.377401,2.37178 7.717515,5.01636 0.353969,0.69853 0.90886,2.31065 1.233091,3.5825 0.324232,1.27185 0.708574,2.31245 0.854095,2.31245 0.160665,0 0.327413,-1.87053 0.424552,-4.7625 0.125138,-3.72553 0.272222,-5.08664 0.675512,-6.25119 1.258002,-3.63262 4.114024,-6.85298 7.609995,-8.58078 1.830316,-0.90459 2.052294,-0.95558 2.804304,-0.64409 1.283182,0.53152 1.923751,2.05846 2.057551,4.90466 0.209623,4.45911 -0.882954,7.16373 -4.598766,11.38403 -3.469741,3.94081 -3.410917,3.73001 -1.09699,3.93126 12.247042,1.06519 20.034324,3.09726 21.359699,5.57374 1.345419,2.51394 -4.073757,4.49267 -15.609816,5.69968 -3.625608,0.37935 -19.41649,0.54485 -23.15104,0.24264 z"
         id="path33035" />
      <path
         style="fill:#c84f7a;stroke-width:1.67342"
         d="m 15.86568,315.62699 c -3.672341,-0.29717 -9.8297285,-1.17924 -11.9062497,-1.70562 -7.2081691,-1.8272 -8.7085753,-3.99706 -4.27359306,-6.18039 2.94385346,-1.44925 8.91603656,-2.72056 15.28848776,-3.25447 l 3.656839,-0.30638 -1.689537,-1.54816 c -0.929246,-0.85148 -2.062143,-2.11068 -2.517551,-2.79822 -1.575545,-2.37864 -1.970744,-5.21864 -0.878226,-6.31116 0.345098,-0.3451 0.776014,-0.40939 2.040128,-0.30436 3.128364,0.25991 6.377401,2.37178 7.717515,5.01636 0.353969,0.69853 0.90886,2.31065 1.233091,3.5825 0.324232,1.27185 0.708574,2.31245 0.854095,2.31245 0.160665,0 0.327413,-1.87053 0.424552,-4.7625 0.125138,-3.72553 0.272222,-5.08664 0.675512,-6.25119 1.258002,-3.63262 4.114024,-6.85298 7.609995,-8.58078 1.830316,-0.90459 2.052294,-0.95558 2.804304,-0.64409 1.283182,0.53152 1.923751,2.05846 2.057551,4.90466 0.209623,4.45911 -0.882954,7.16373 -4.598766,11.38403 -3.469741,3.94081 -3.410917,3.73001 -1.09699,3.93126 12.247042,1.06519 20.034324,3.09726 21.359699,5.57374 1.345419,2.51394 -4.073757,4.49267 -15.609816,5.69968 -3.625608,0.37935 -19.41649,0.54485 -23.15104,0.24264 z"
         id="path33034" />
      <path
         style="fill:#9a855c;stroke-width:1.67342"
         d="m 15.86568,315.62699 c -3.672341,-0.29717 -9.8297285,-1.17924 -11.9062497,-1.70562 -7.2081691,-1.8272 -8.7085753,-3.99706 -4.27359306,-6.18039 2.94385346,-1.44925 8.91603656,-2.72056 15.28848776,-3.25447 l 3.656839,-0.30638 -1.689537,-1.54816 c -0.929246,-0.85148 -2.062143,-2.11068 -2.517551,-2.79822 -1.575545,-2.37864 -1.970744,-5.21864 -0.878226,-6.31116 0.345098,-0.3451 0.776014,-0.40939 2.040128,-0.30436 3.128364,0.25991 6.377401,2.37178 7.717515,5.01636 0.353969,0.69853 0.90886,2.31065 1.233091,3.5825 0.324232,1.27185 0.708574,2.31245 0.854095,2.31245 0.160665,0 0.327413,-1.87053 0.424552,-4.7625 0.125138,-3.72553 0.272222,-5.08664 0.675512,-6.25119 1.258002,-3.63262 4.114024,-6.85298 7.609995,-8.58078 1.830316,-0.90459 2.052294,-0.95558 2.804304,-0.64409 1.283182,0.53152 1.923751,2.05846 2.057551,4.90466 0.209623,4.45911 -0.882954,7.16373 -4.598766,11.38403 -3.469741,3.94081 -3.410917,3.73001 -1.09699,3.93126 12.247042,1.06519 20.034324,3.09726 21.359699,5.57374 1.345419,2.51394 -4.073757,4.49267 -15.609816,5.69968 -3.625608,0.37935 -19.41649,0.54485 -23.15104,0.24264 z"
         id="path33033" />
      <path
         style="fill:#b74571;stroke-width:1.67342"
         d="m 16.65943,315.60541 c -8.9696799,-0.57913 -16.81961597,-2.35305 -18.8488927,-4.25946 -2.965035,-2.7855 5.3466559,-5.89049 18.6360497,-6.96183 l 2.168408,-0.17481 -2.069318,-2.02426 c -1.138126,-1.11334 -2.322682,-2.52634 -2.632347,-3.14 -1.347043,-2.6694 -1.27871,-5.44096 0.142943,-5.79778 1.910499,-0.4795 5.594706,0.86492 7.586953,2.7686 1.320316,1.26162 2.165216,2.94973 2.893358,5.78094 0.906125,3.52326 1.249969,3.20822 1.256211,-1.15095 0.0071,-4.98291 0.320209,-6.94181 1.494099,-9.34861 2.006847,-4.11458 7.362636,-8.13095 9.764495,-7.32251 1.634408,0.55012 2.458708,5.05953 1.59552,8.72844 -0.641785,2.72786 -1.629046,4.47098 -4.140318,7.31022 -1.256047,1.42008 -2.481511,2.86435 -2.723254,3.20949 -0.457402,0.65303 -0.584209,1.15483 -0.241096,0.95406 0.109141,-0.0639 1.508125,-0.0156 3.108854,0.10732 8.976175,0.68911 16.727513,2.56796 19.150432,4.64188 1.254473,1.07379 1.35858,1.70593 0.433326,2.63119 -3.132713,3.13271 -21.352206,5.09553 -37.575423,4.04807 z m 12.762978,-5.76825 c 0.0373,-0.66247 0.03193,-0.66474 -0.202245,-0.0852 -0.223581,0.5533 -0.402978,0.59531 -2.542138,0.59531 -2.743637,0 -2.866173,0.23655 -0.151444,0.29235 1.04323,0.0214 1.839359,0.1319 1.769177,0.24545 -0.07018,0.11356 0.145984,0.0774 0.480368,-0.0804 0.380945,-0.17977 0.622277,-0.54103 0.646282,-0.96744 z"
         id="path33032" />
      <path
         style="fill:#93784c;stroke-width:1.67342"
         d="m 16.65943,315.60541 c -8.9696799,-0.57913 -16.81961597,-2.35305 -18.8488927,-4.25946 -2.965035,-2.7855 5.3466559,-5.89049 18.6360497,-6.96183 l 2.168408,-0.17481 -2.069318,-2.02426 c -1.138126,-1.11334 -2.322682,-2.52634 -2.632347,-3.14 -1.347043,-2.6694 -1.27871,-5.44096 0.142943,-5.79778 1.910499,-0.4795 5.594706,0.86492 7.586953,2.7686 1.320316,1.26162 2.165216,2.94973 2.893358,5.78094 0.906125,3.52326 1.249969,3.20822 1.256211,-1.15095 0.0071,-4.98291 0.320209,-6.94181 1.494099,-9.34861 2.006847,-4.11458 7.362636,-8.13095 9.764495,-7.32251 1.634408,0.55012 2.458708,5.05953 1.59552,8.72844 -0.641785,2.72786 -1.629046,4.47098 -4.140318,7.31022 -1.256047,1.42008 -2.481511,2.86435 -2.723254,3.20949 -0.457402,0.65303 -0.584209,1.15483 -0.241096,0.95406 0.109141,-0.0639 1.508125,-0.0156 3.108854,0.10732 8.976175,0.68911 16.727513,2.56796 19.150432,4.64188 1.254473,1.07379 1.35858,1.70593 0.433326,2.63119 -3.132713,3.13271 -21.352206,5.09553 -37.575423,4.04807 z m 12.762978,-5.76825 c 0.0373,-0.66247 0.03193,-0.66474 -0.202245,-0.0852 -0.223581,0.5533 -0.402978,0.59531 -2.542138,0.59531 -2.743637,0 -2.866173,0.23655 -0.151444,0.29235 1.04323,0.0214 1.839359,0.1319 1.769177,0.24545 -0.07018,0.11356 0.145984,0.0774 0.480368,-0.0804 0.380945,-0.17977 0.622277,-0.54103 0.646282,-0.96744 z"
         id="path33031" />
      <path
         style="fill:#63855e;stroke-width:1.67342"
         d="m -2.1240931,309.06279 c 0.5004839,-0.59179 2.25198273,-1.63885 2.69954561,-1.6138 0.11493789,0.006 -0.267272,0.25829 -0.8493553,0.55969 -0.5820833,0.3014 -1.35513771,0.80215 -1.71789871,1.11278 l -0.6595654,0.56479 z"
         id="path34447" />
      <path
         style="fill:#63855e;stroke-width:1.67342"
         d="m 53.964974,309.47329 c -0.43695,-0.46495 -1.032263,-0.99663 -1.322917,-1.1815 -0.455093,-0.28947 -0.436628,-0.29393 0.132996,-0.0322 0.822301,0.3779 1.559273,1.01178 1.885899,1.62209 0.342931,0.64077 0.225007,0.57157 -0.695978,-0.40844 z"
         id="path34446" />
      <path
         style="fill:#63855e;stroke-width:1.67342"
         d="m 24.069548,309.46629 c -0.202448,-0.48452 -0.55356,-1.03488 -0.780249,-1.22302 -0.226689,-0.18813 -0.412161,-0.45196 -0.412161,-0.58628 0,-0.79287 -3.521346,-3.242 -4.621073,-3.214 -0.539962,0.0138 -0.609764,-0.0183 -0.213152,-0.098 0.524304,-0.10533 0.359165,-0.34402 -1.48841,-2.15133 -1.14298,-1.11806 -2.331508,-2.53493 -2.641173,-3.14859 -1.347043,-2.6694 -1.27871,-5.44096 0.142943,-5.79778 1.908217,-0.47893 5.581187,0.85989 7.59548,2.7686 1.29833,1.23028 2.394735,3.50724 2.969306,6.16652 0.292197,1.35237 0.574675,2.07944 0.807893,2.07944 0.284107,0 0.359691,-0.75575 0.363843,-3.63802 0.0071,-4.96056 0.321398,-6.9222 1.494099,-9.32656 2.006847,-4.11458 7.362636,-8.13095 9.764495,-7.32251 1.634408,0.55012 2.458708,5.05953 1.59552,8.72844 -0.643533,2.73529 -1.630123,4.4722 -4.173815,7.34809 -3.390699,3.83352 -4.810659,6.30067 -5.354757,9.30379 l -0.179761,0.99219 h -2.25047 -2.25047 z"
         id="path34445" />
      <path
         style="fill:#63855e;stroke-width:1.67342"
         d="m 23.484543,315.70662 c 1.134438,-0.0497 2.920375,-0.0494 3.96875,6.7e-4 1.048375,0.0501 0.120199,0.0908 -2.062614,0.0904 -2.182812,-3.7e-4 -3.040573,-0.0414 -1.906136,-0.0911 z"
         id="path33030" />
      <path
         style="fill:#a73565;stroke-width:1.67342"
         d="m 34.659727,285.75497 c -0.08812,-0.14259 0.08224,-0.50172 0.378593,-0.79807 0.566425,-0.56642 1.332567,-0.72409 1.332567,-0.27423 0,0.14552 -0.310395,0.26458 -0.689766,0.26458 -0.497735,0 -0.648272,0.10813 -0.540722,0.3884 0.171861,0.44787 -0.240634,0.80771 -0.480672,0.41932 z"
         id="path34425" />
      <path
         style="fill:#a73565;stroke-width:1.67342"
         d="m -2.1240901,309.06233 c 0.5004839,-0.59179 2.25198273,-1.63885 2.69954561,-1.6138 0.11493789,0.006 -0.267272,0.25829 -0.8493553,0.55969 -0.5820833,0.3014 -1.35513771,0.80215 -1.71789871,1.11278 l -0.6595654,0.56479 z"
         id="path34424" />
      <path
         style="fill:#a73565;stroke-width:1.67342"
         d="m 53.964977,309.47283 c -0.43695,-0.46495 -1.032263,-0.99663 -1.322917,-1.1815 -0.455093,-0.28947 -0.436628,-0.29393 0.132996,-0.0322 0.822301,0.3779 1.559273,1.01178 1.885899,1.62209 0.342931,0.64077 0.225007,0.57157 -0.695978,-0.40844 z"
         id="path34423" />
      <path
         style="fill:#a73565;stroke-width:1.67342"
         d="m 24.087298,309.42716 c -0.211443,-0.50605 -0.508902,-1.0716 -0.661021,-1.25677 -1.202828,-1.46417 -1.607473,-2.03932 -1.607473,-2.28479 0,-0.15633 -0.163242,-0.22159 -0.36276,-0.14503 -0.199517,0.0766 -0.526939,-0.0221 -0.727604,-0.21932 -0.200664,-0.19719 -0.902638,-0.72644 -1.559942,-1.17612 -1.621593,-1.10937 -3.964277,-3.23944 -3.964277,-3.60449 0,-0.16345 0.654844,0.34953 1.455209,1.13996 0.800364,0.79042 1.455208,1.29237 1.455208,1.11544 0,-0.17693 -0.126089,-0.32169 -0.280198,-0.32169 -0.154109,0 -0.213522,-0.10789 -0.132028,-0.23975 0.214946,-0.34779 1.142437,-0.0429 1.326193,0.43598 0.216513,0.56422 -0.08884,0.80108 -0.41933,0.32527 -0.236155,-0.34 -0.255827,-0.33903 -0.155574,0.008 0.06312,0.21828 0.31031,0.38034 0.549309,0.36013 0.239,-0.0202 0.434545,0.0691 0.434545,0.19844 0,0.60279 0.418535,0.14896 0.454119,-0.49242 0.03276,-0.59044 0.0021,-0.63052 -0.162425,-0.21261 -0.193619,0.4917 -0.209667,0.48871 -0.354765,-0.0661 -0.08991,-0.3438 -0.02702,-0.59537 0.153987,-0.61598 0.168277,-0.0191 -0.11076,-0.1094 -0.620083,-0.20054 -0.642148,-0.1149 -0.905312,-0.29349 -0.858424,-0.58253 0.03719,-0.22925 -0.09179,-0.41682 -0.286632,-0.41682 -0.194837,0 -0.35425,0.15875 -0.35425,0.35278 0,0.19403 0.106246,0.35278 0.236101,0.35278 0.129856,0 0.149773,0.13968 0.04426,0.3104 -0.127186,0.20579 -0.47125,-0.0224 -1.020886,-0.67708 -0.455974,-0.54312 -1.061282,-1.02089 -1.345128,-1.06171 -0.284395,-0.0409 -0.871034,-0.64592 -1.306731,-1.34767 -0.643739,-1.03684 -0.80846,-1.6262 -0.886516,-3.17193 -0.07866,-1.55762 -0.01067,-1.98367 0.378647,-2.37299 1.102681,-1.10268 5.662192,0.24625 8.01396,2.37093 1.315997,1.18892 2.44746,3.48604 3.093653,6.28077 0.773539,3.34551 1.073395,2.67341 1.239456,-2.77812 0.129774,-4.26024 0.224311,-5.03979 0.803102,-6.62235 0.869874,-2.37845 1.998576,-4.10311 2.356453,-3.60066 0.196956,0.27652 0.220391,0.24139 0.09484,-0.14218 -0.121725,-0.37186 0.136517,-0.81847 0.956171,-1.65364 0.617616,-0.62931 1.204303,-1.14419 1.303749,-1.14419 0.09945,0 0.255519,0.29765 0.346828,0.66146 0.130636,0.52049 0.334094,0.66146 0.954724,0.66146 0.43379,0 0.788709,0.1389 0.788709,0.30868 0,0.16977 0.0575,0.25118 0.127767,0.18091 0.07027,-0.0703 0.02162,-0.49787 -0.10811,-0.95022 -0.275667,-0.9612 -0.101229,-1.25595 0.469809,-0.79385 0.323739,0.26198 0.365658,0.26151 0.207167,-0.002 -0.109283,-0.1819 -0.07261,-0.33072 0.0815,-0.33072 0.15411,0 0.280199,0.17859 0.280199,0.39687 0,0.21828 0.126089,0.39688 0.280198,0.39688 0.154109,0 0.201661,-0.12708 0.10567,-0.2824 -0.09599,-0.15531 0.06734,-0.34564 0.362952,-0.42294 0.347196,-0.0908 0.482923,-0.28273 0.383378,-0.54214 -0.130145,-0.33915 -0.06238,-0.3525 0.435858,-0.0858 0.324478,0.17366 0.762005,0.24972 0.972282,0.16903 0.307805,-0.11812 0.327094,-0.0435 0.09896,0.38275 -0.32797,0.61281 0.105711,1.22252 0.869575,1.22252 0.596657,0 0.594857,-0.79736 -0.0031,-1.39536 -0.254662,-0.25467 -0.433255,-0.5013 -0.396875,-0.54807 0.212806,-0.27361 4.71e-4,-0.3331 -0.408224,-0.11437 -0.376741,0.20162 -0.482264,0.14909 -0.512724,-0.25528 -0.03758,-0.49886 0.306282,-0.70273 0.524073,-0.31071 0.06063,0.10914 0.09114,0.0794 0.06779,-0.0661 -0.128051,-0.79806 -3.008565,-0.20761 -2.945703,0.60381 0.01893,0.24437 -0.197734,0.47223 -0.495525,0.52111 -0.52206,0.0857 -0.522269,0.0814 -0.01558,-0.3206 0.282475,-0.22409 0.390225,-0.40745 0.239445,-0.40745 -0.591461,0 -1.177625,0.98808 -1.001785,1.68868 0.151409,0.60326 0.09336,0.69017 -0.450171,0.67398 -0.584767,-0.0174 -0.590728,-0.0329 -0.09483,-0.24599 0.514653,-0.22116 0.513615,-0.2279 -0.03784,-0.24599 -0.66152,-0.0217 -0.998318,-0.65995 -0.541747,-1.02665 0.815998,-0.65537 3.690333,-1.90236 4.384979,-1.90236 1.762472,0 2.863906,2.74175 2.59424,6.45772 -0.278784,3.84162 -1.360062,6.1984 -4.376796,9.53977 -2.107048,2.33379 -2.846974,2.83218 -3.125844,2.10546 -0.07933,-0.20673 -0.254746,-0.37587 -0.389818,-0.37587 -0.135072,0 -0.110041,0.25327 0.05562,0.56282 0.234943,0.43899 0.222439,0.61273 -0.05684,0.78969 -0.531158,0.33658 -0.754921,0.28397 -0.754921,-0.1775 0,-0.22687 0.117269,-0.34001 0.260599,-0.25143 0.160215,0.099 0.201771,-0.13308 0.107881,-0.60253 -0.104031,-0.52016 -0.01238,-0.90393 0.287466,-1.20378 0.385228,-0.38523 0.388905,-0.44018 0.02945,-0.44018 -0.225904,0 -0.472895,0.26789 -0.548869,0.59531 -0.469797,2.02464 -0.924529,4.52571 -0.838485,4.61176 0.05561,0.0556 0.308181,-0.21493 0.561268,-0.60119 0.253088,-0.38626 0.328747,-0.62107 0.168132,-0.5218 -0.176866,0.1093 -0.292028,-0.0344 -0.292028,-0.3643 0,-0.31703 0.172448,-0.54478 0.41249,-0.54478 0.244368,0 0.343127,0.13479 0.242306,0.33072 -0.0936,0.18191 0.193826,-0.086 0.638726,-0.59531 0.4449,-0.50932 0.812113,-0.83163 0.816027,-0.71623 0.0063,0.18598 -1.75904,3.07321 -2.298339,3.75894 -0.114446,0.14552 -0.236155,0.44318 -0.270463,0.66146 -0.03431,0.21828 -0.203044,1.08148 -0.374969,1.91823 l -0.312591,1.52135 h -2.201168 -2.201167 z m -0.949968,-3.37938 c -0.01981,-0.29837 -1.263215,-3.35499 -1.533733,-3.77031 -0.261396,-0.40131 -0.380663,-0.44203 -0.493636,-0.1685 -0.125765,0.3045 -0.184547,0.3045 -0.377466,0 -0.125678,-0.19837 -0.230327,-0.23459 -0.232556,-0.0805 -0.0022,0.15409 0.174835,0.51128 0.393473,0.79375 0.331375,0.42813 0.370692,0.43655 0.236276,0.0506 -0.251418,-0.72194 0.302866,-0.54363 0.645117,0.20753 0.270373,0.59341 0.237209,0.69802 -0.28826,0.90927 -0.546904,0.21988 -0.552006,0.24037 -0.06462,0.25955 0.440033,0.0173 0.462317,0.064 0.132292,0.2773 -0.218281,0.14106 -0.271859,0.2583 -0.119062,0.26053 0.152796,0.002 0.405768,-0.1239 0.562159,-0.28029 0.20274,-0.20274 0.335269,-0.0129 0.46178,0.66145 0.09759,0.5202 0.291102,0.94581 0.430029,0.94581 0.138927,0 0.250618,-0.0298 0.248203,-0.0661 z m 4.111108,-1.45521 c 0.161953,-0.79594 1.74373,-5.69904 2.112572,-6.54843 0.203317,-0.46821 0.179337,-0.48815 -0.208167,-0.17306 -0.240875,0.19585 -0.422859,0.43398 -0.404409,0.52916 0.01845,0.0952 -0.05631,0.41119 -0.166133,0.70223 -0.109823,0.29104 -0.240507,0.66876 -0.290409,0.83937 -0.0499,0.17062 -0.365901,0.34921 -0.702221,0.39688 -0.398633,0.0565 -0.640923,0.29389 -0.69604,0.68198 -0.0465,0.32742 0.03165,0.59531 0.173668,0.59531 0.142018,0 0.195944,-0.23812 0.119835,-0.52916 -0.109765,-0.41975 -0.0089,-0.52833 0.487791,-0.52512 0.368556,0.002 0.500499,0.084 0.320707,0.19844 -0.316874,0.20164 -0.355995,0.31195 -0.355995,1.00375 0,0.22687 -0.106586,0.34661 -0.236859,0.2661 -0.130272,-0.0805 -0.303666,0.0277 -0.385319,0.2405 -0.08165,0.21278 -0.02648,0.46227 0.122605,0.55441 0.149086,0.0921 0.191017,0.36384 0.09318,0.60378 -0.436629,1.07082 -0.598865,1.89147 -0.373928,1.89147 0.13259,0 0.307695,-0.32742 0.389122,-0.72761 z m 5.363837,-3.12695 c 0.325856,-0.22824 0.529484,-0.51689 0.452508,-0.64144 -0.07698,-0.12455 0.06986,-0.28118 0.326302,-0.34808 0.354821,-0.0926 0.323977,-0.12896 -0.129052,-0.15231 -0.429154,-0.0221 -0.595313,0.117 -0.595313,0.49847 0,0.58939 -0.518533,0.69855 -1.005416,0.21167 -0.246945,-0.24695 -0.3175,-0.24695 -0.3175,0 0,0.17462 0.126089,0.3175 0.280198,0.3175 0.154109,0 0.206614,0.11906 0.116677,0.26458 -0.244794,0.39609 0.201277,0.31912 0.871596,-0.15039 z m -9.558748,-1.04023 c 0,-0.21828 -0.0585,-0.33838 -0.129997,-0.26688 -0.176792,0.17679 -0.840142,-0.39482 -0.840142,-0.72396 0,-0.14552 0.208359,-0.1077 0.463021,0.084 0.371971,0.28008 0.365732,0.24743 -0.03172,-0.16604 -0.34195,-0.35572 -0.531809,-0.41494 -0.614758,-0.19175 -0.08361,0.22497 -0.289746,0.16479 -0.679626,-0.19844 -0.307786,-0.28675 -0.667488,-0.52136 -0.799338,-0.52136 -0.131849,0 0.277555,0.42993 0.909786,0.95541 0.632232,0.52547 1.1892,1.06125 1.237707,1.19062 0.143336,0.38229 0.48507,0.2684 0.48507,-0.16165 z m -6.153223,-0.17066 c -0.130514,-0.21117 0.03919,-0.25966 0.56022,-0.16006 0.71931,0.13751 1.606434,-0.34856 1.262988,-0.69201 -0.08782,-0.0878 -0.313362,0.0468 -0.5012,0.29924 -0.313685,0.4215 -0.338277,0.41159 -0.301703,-0.12158 0.02509,-0.36581 0.264021,-0.63675 0.646091,-0.73264 0.333449,-0.0837 0.606271,-0.27315 0.606271,-0.42102 0,-0.17729 -0.180203,-0.17241 -0.529166,0.0143 -0.291042,0.15576 -0.529167,0.21479 -0.529167,0.13117 0,-0.0836 -0.165418,10e-4 -0.367595,0.18913 -0.259006,0.24038 -0.280736,0.39557 -0.07356,0.52536 0.191637,0.12006 0.131937,0.24641 -0.171426,0.36282 -0.284274,0.10909 -0.667609,-0.004 -0.984772,-0.29135 -0.630278,-0.5704 -0.669911,-0.3346 -0.09201,0.54739 0.416238,0.63526 0.847969,0.95263 0.475028,0.3492 z m -0.773407,-0.49625 c -0.103756,-0.16788 -0.413335,-0.24648 -0.687953,-0.17466 -0.274618,0.0718 -0.499306,0.0226 -0.499306,-0.10925 0,-0.13189 -0.133641,-0.23981 -0.29698,-0.23981 -0.206162,0 -0.196994,0.12048 0.02998,0.39396 0.179828,0.21668 0.40845,0.3436 0.50805,0.28204 0.0996,-0.0616 0.350552,-0.007 0.557671,0.12082 0.454581,0.28095 0.647258,0.14552 0.388539,-0.2731 z m -0.01634,-1.40349 0.570138,-0.61519 -0.652815,-0.30808 c -0.359048,-0.16944 -0.711097,-0.24979 -0.782332,-0.17856 -0.07123,0.0712 -0.01658,0.12952 0.121455,0.12952 0.138035,0 0.276753,0.31149 0.308261,0.69221 0.04746,0.57345 -0.03348,0.66847 -0.471824,0.55384 -0.291012,-0.0761 -0.46239,-0.0304 -0.380841,0.10154 0.24744,0.40037 0.688111,0.27197 1.287958,-0.37528 z m 11.659502,0.35364 c 0.09269,-0.14999 -0.01351,-0.19434 -0.248968,-0.10399 -0.683833,0.26241 -0.459991,-0.11994 0.316987,-0.54146 0.492794,-0.26734 0.583218,-0.39815 0.280198,-0.40532 -0.246073,-0.006 -0.525784,0.11622 -0.621579,0.27122 -0.114016,0.18448 -0.347873,0.12462 -0.677074,-0.1733 -0.276594,-0.25031 -0.502899,-0.32752 -0.502899,-0.17157 0,0.15594 0.148828,0.34393 0.330729,0.41774 0.25471,0.10335 0.245883,0.19348 -0.0384,0.39212 -0.301105,0.2104 -0.276725,0.28159 0.132292,0.38633 0.806398,0.20649 0.859012,0.20282 1.028718,-0.0718 z m 7.558823,-0.5688 c 0.271177,-1.01397 0.840428,-1.7747 1.219227,-1.62934 0.507717,0.19483 0.735899,-0.64807 0.315402,-1.16509 -0.315622,-0.38808 -0.301176,-0.42086 0.116433,-0.26425 0.286411,0.10741 0.412223,0.0744 0.315115,-0.0828 -0.08891,-0.14386 -0.0483,-0.26155 0.09024,-0.26155 0.363348,0 0.61122,-0.78597 0.428967,-1.3602 -0.08587,-0.27054 -0.326691,-0.49189 -0.535166,-0.49189 -0.208475,0 -0.379045,-0.12609 -0.379045,-0.2802 0,-0.15411 -0.135148,-0.19667 -0.300329,-0.0946 -0.193929,0.11985 -0.07676,0.30953 0.330729,0.5354 0.347082,0.19239 0.478041,0.35402 0.29102,0.35917 -0.254219,0.007 -0.270732,0.13888 -0.06543,0.52249 0.308812,0.57702 -0.02978,0.95323 -0.645324,0.71702 -0.302914,-0.11624 -0.299727,0.0141 0.01899,0.77693 l 0.382984,0.91661 -0.667778,-0.1676 c -0.560135,-0.14059 -0.667778,-0.0752 -0.667778,0.40586 0,0.31541 -0.10562,0.50819 -0.234711,0.42841 -0.12909,-0.0798 -0.229397,0.002 -0.222902,0.18282 0.04253,1.18087 -0.08585,1.46523 -0.60072,1.33058 -0.291042,-0.0761 -0.529167,-0.27775 -0.529167,-0.44809 0,-0.17034 -0.248732,-0.32845 -0.552738,-0.35135 l -0.552738,-0.0416 0.547926,0.47521 c 0.301359,0.26137 0.47744,0.5457 0.39129,0.63185 -0.08615,0.0861 0.178741,0.12088 0.588646,0.0772 0.53017,-0.0565 0.794802,-0.26463 0.916856,-0.72101 z m -21.074408,0.26282 c -0.128511,-0.20794 0.02497,-0.26238 0.489397,-0.1736 0.455547,0.0871 0.636963,0.026 0.555234,-0.187 -0.07042,-0.1835 -0.408077,-0.26154 -0.804125,-0.18583 -0.503987,0.0964 -0.648919,0.0341 -0.55358,-0.23766 0.07103,-0.20249 0.306241,-0.35471 0.522681,-0.33826 0.21644,0.0165 0.539837,-0.20437 0.71866,-0.49071 0.189752,-0.30384 0.20683,-0.4475 0.04102,-0.34503 -0.156264,0.0966 -0.293516,0.0197 -0.305004,-0.17075 -0.01606,-0.26636 -0.05171,-0.26997 -0.15434,-0.0156 -0.149489,0.37047 -0.618522,0.45284 -0.618522,0.10861 0,-0.12216 0.297656,-0.35773 0.661458,-0.52349 0.510077,-0.23241 0.662386,-0.22699 0.66551,0.0237 0.0028,0.22193 0.07909,0.20652 0.240572,-0.0486 0.19993,-0.31583 0.304559,-0.3056 0.676306,0.0661 0.487311,0.48731 0.788141,0.58596 0.534279,0.1752 -0.219449,-0.35507 -0.0615,-0.33374 0.786566,0.10624 0.662066,0.34349 0.678926,0.39166 0.228681,0.65341 -0.285578,0.16603 -0.343217,0.28591 -0.139736,0.29064 0.190489,0.004 0.272759,0.12711 0.182822,0.27263 -0.08994,0.14552 -0.0304,0.26458 0.132292,0.26458 0.162697,0 0.222228,0.11906 0.132292,0.26459 -0.206953,0.33485 0.143305,0.33485 0.661458,0 0.339169,-0.21919 0.329551,-0.25707 -0.06615,-0.26054 -0.254661,-0.002 -0.463021,-0.17144 -0.463021,-0.37603 0,-0.30013 0.123409,-0.31374 0.638873,-0.0705 0.35138,0.16582 0.583321,0.39138 0.515425,0.50124 -0.0679,0.10986 0.08716,0.11893 0.344562,0.0202 0.384161,-0.14742 0.312082,-0.24322 -0.402319,-0.53472 -0.953892,-0.38923 -0.978088,-0.75001 -0.08985,-1.33977 0.53837,-0.35747 0.580812,-0.34348 0.580812,0.1914 0,0.31738 0.114573,0.50625 0.254606,0.4197 0.39834,-0.24618 -0.226165,-1.36347 -0.94524,-1.69111 -0.428075,-0.19504 -0.632282,-0.19942 -0.632282,-0.0136 0,0.15099 -0.109464,0.20688 -0.243253,0.12419 -0.133789,-0.0827 -0.40168,0.006 -0.595313,0.19763 -0.193632,0.19138 -0.573675,0.43195 -0.844539,0.5346 -0.382402,0.14491 -0.455655,0.0907 -0.327729,-0.2427 0.119978,-0.31266 0.05234,-0.3862 -0.248866,-0.27062 -0.237825,0.0913 -0.344915,0.0476 -0.251969,-0.10283 0.08891,-0.14386 0.04548,-0.26155 -0.0965,-0.26155 -0.141982,0 -0.29823,0.12024 -0.347218,0.2672 -0.04899,0.14696 -0.349698,0.3174 -0.668246,0.37874 -0.437367,0.0842 -0.540699,0.0113 -0.422028,-0.29798 0.133461,-0.34779 0.06832,-0.36198 -0.432163,-0.0941 -0.539224,0.28858 -0.565914,0.27166 -0.314012,-0.19902 0.151416,-0.28292 0.193823,-0.59588 0.09424,-0.69547 -0.09958,-0.0996 0.01913,-0.10424 0.263821,-0.0103 0.244686,0.0939 0.51752,0.39957 0.606297,0.67928 0.08878,0.27971 0.273845,0.43908 0.411262,0.35415 0.137418,-0.0849 0.179527,-0.2682 0.09358,-0.40727 -0.08595,-0.13907 -0.05813,-0.23581 0.06183,-0.21497 0.535677,0.0931 0.897118,-0.0469 0.747271,-0.28936 -0.08994,-0.14552 -0.03743,-0.26458 0.116677,-0.26458 0.154109,0 0.280198,0.16585 0.280198,0.36856 0,0.20271 0.184778,0.43948 0.410617,0.52614 0.225839,0.0867 0.342397,0.0472 0.259018,-0.0877 -0.08338,-0.13491 0.05927,-0.36805 0.316988,-0.51809 0.257722,-0.15004 0.34357,-0.27642 0.190773,-0.28085 -0.152797,-0.004 -0.438211,0.14078 -0.634254,0.32268 -0.290046,0.26913 -0.328041,0.24957 -0.203978,-0.10501 0.114818,-0.32816 -0.04169,-0.46424 -0.633881,-0.55116 -0.57772,-0.0848 -0.750433,-0.0218 -0.650992,0.23731 0.07444,0.194 0.02003,0.35272 -0.120928,0.35272 -0.140954,0 -0.25628,-0.1786 -0.25628,-0.39688 0,-0.45153 -0.414761,-0.53145 -0.664125,-0.12797 -0.0914,0.14789 -0.290336,0.19217 -0.442071,0.0984 -0.151736,-0.0938 -0.379811,-0.006 -0.506833,0.19412 -0.320786,0.50646 -0.297964,2.81053 0.02984,3.01313 0.147895,0.0914 0.20192,0.27456 0.120057,0.40702 -0.150692,0.24383 0.306722,1.31011 0.56201,1.31011 0.07623,0 0.05434,-0.13633 -0.04863,-0.30295 z m 4.186153,-2.87205 c 0.33301,-0.53324 0.762825,-0.67508 1.081121,-0.35679 0.09481,0.0948 -0.13708,0.33294 -0.515313,0.52917 -0.904696,0.46936 -0.956692,0.45352 -0.565808,-0.17238 z m 4.414074,2.57968 c -0.326258,-0.63547 -1.835543,-2.31523 -2.079984,-2.31491 -0.08059,1e-4 -0.163705,0.29775 -0.184691,0.66145 -0.02099,0.3637 0.07534,0.66128 0.214052,0.66128 0.138715,0 0.178625,-0.11907 0.08869,-0.26459 -0.08994,-0.14552 -0.03743,-0.26458 0.116677,-0.26458 0.154109,0 0.282021,0.20836 0.284249,0.46302 0.0032,0.36069 0.05432,0.38368 0.231511,0.10404 0.174969,-0.27613 0.273441,-0.28457 0.42672,-0.0366 0.109594,0.17733 0.07812,0.3984 -0.06994,0.49127 -0.17123,0.1074 -0.135421,0.29301 0.09839,0.51001 0.300071,0.2785 0.369073,0.2785 0.375641,0 0.0048,-0.20369 0.116709,-0.15459 0.27773,0.12186 0.394417,0.67718 0.579612,0.56629 0.220951,-0.13229 z m 9.683782,-0.46957 c 0.09217,-0.14913 0.06943,-0.23843 -0.05053,-0.19844 -0.244924,0.0816 -0.350395,-0.1354 -0.350395,-0.72105 0,-0.21828 0.208359,-0.3987 0.463021,-0.40093 0.366198,-0.003 0.386774,-0.0523 0.09839,-0.235 -0.20358,-0.12894 -0.276617,-0.37335 -0.165364,-0.55336 0.153368,-0.24816 0.254433,-0.23973 0.438809,0.0366 0.155867,0.23358 0.180206,0.10361 0.06967,-0.37206 -0.09681,-0.41659 -0.03906,-0.88866 0.134248,-1.09748 0.31928,-0.38471 0.609176,-1.47877 0.391833,-1.47877 -0.156202,0 -0.992172,1.93096 -1.55985,3.60302 -0.341867,1.00695 -0.357378,1.28791 -0.08079,1.46338 0.432388,0.2743 0.412129,0.27582 0.610949,-0.0459 z m -0.586208,-4.06047 c 0.940105,-1.16148 1.337322,-1.75381 1.176112,-1.75381 -0.0543,0 -0.489567,0.52162 -0.967255,1.15916 -0.637899,0.85136 -1.004208,1.12368 -1.37951,1.02553 -0.341412,-0.0893 -0.462641,-0.28595 -0.365303,-0.59264 0.08431,-0.26563 -0.0519,-0.61408 -0.323309,-0.82709 -0.430657,-0.338 -0.437943,-0.32859 -0.08913,0.1151 0.222594,0.28314 0.277365,0.55699 0.132292,0.66146 -0.293934,0.21166 -0.322002,0.98578 -0.04576,1.26203 0.107284,0.10728 0.195063,0.0562 0.195063,-0.11362 0,-0.16978 0.208359,-0.30686 0.46302,-0.30463 0.298708,0.003 0.354621,0.073 0.157558,0.19844 -0.168005,0.10691 -0.327575,0.31345 -0.3546,0.45897 -0.02702,0.14552 -0.153835,0.44317 -0.281803,0.66146 -0.201038,0.34292 -0.233761,0.33812 -0.240713,-0.0353 -0.0046,-0.24612 -0.289361,-0.48595 -0.661497,-0.55709 -0.359398,-0.0687 -0.590497,-0.0231 -0.513552,0.10145 0.07694,0.1245 0.341232,0.22818 0.587306,0.23041 0.38557,0.003 0.392554,0.0395 0.05053,0.26054 -0.340343,0.21994 -0.331854,0.25705 0.0596,0.26053 0.380384,0.003 0.413461,0.11718 0.198437,0.68273 -0.46017,1.21034 -0.265489,1.07202 0.534958,-0.38007 0.430874,-0.78166 1.181275,-1.91275 1.667559,-2.51355 z m 2.14358,3.11353 c 0.10057,-0.26208 0.328033,-0.36093 0.594897,-0.25853 0.341245,0.13095 0.369067,0.0899 0.132357,-0.19533 -0.164841,-0.19862 -0.270979,-0.41113 -0.235861,-0.47224 0.03512,-0.0611 -0.07706,0.0511 -0.249275,0.24927 -0.174133,0.20042 -0.458343,0.27065 -0.640275,0.1582 -0.232192,-0.1435 -0.27483,-0.0658 -0.146895,0.26755 0.133962,0.3491 0.07756,0.43033 -0.219621,0.31629 -0.219931,-0.0844 -0.399875,-0.0381 -0.399875,0.10284 0,0.42868 0.990404,0.28576 1.164548,-0.16805 z m -7.057175,-1.23564 c 0.281115,0.10787 0.358959,0.0585 0.231874,-0.14716 -0.187166,-0.30284 0.132272,-0.42296 0.859181,-0.32307 0.300682,0.0413 0.300682,-0.0128 0,-0.339 -0.216287,-0.23463 -0.470171,-0.29649 -0.641911,-0.1564 -0.168513,0.13746 -0.432448,0.0998 -0.648698,-0.0927 -0.304321,-0.2708 -0.310911,-0.253 -0.03987,0.10769 0.263226,0.35029 0.248282,0.46145 -0.07891,0.58701 -0.221996,0.0852 -0.394229,0.30745 -0.38274,0.49392 0.01518,0.24633 0.05602,0.25267 0.149386,0.0232 0.07067,-0.17372 0.31893,-0.24279 0.551682,-0.15347 z m 9.163307,-0.0598 c -0.08376,-0.21828 -0.265646,-0.39687 -0.404186,-0.39687 -0.13854,0 -0.176504,0.14883 -0.08436,0.33073 0.09214,0.1819 0.003,0.13095 -0.198052,-0.11323 -0.249803,-0.30336 -0.486444,-0.36749 -0.747225,-0.20249 -0.311997,0.1974 -0.294296,0.24221 0.09699,0.24552 0.263249,0.002 0.405051,0.12311 0.315114,0.26864 -0.09254,0.14973 0.126776,0.26458 0.505248,0.26458 0.485759,0 0.627093,-0.10861 0.516474,-0.39688 z m 0.525203,-1.66222 c -0.08353,-0.31943 -0.23214,-0.53118 -0.330239,-0.47055 -0.0981,0.0606 -0.332966,-0.23904 -0.521927,-0.66593 -0.18896,-0.42689 -0.46506,-0.70108 -0.613555,-0.60931 -0.172127,0.10638 -0.146039,0.24347 0.07197,0.37821 0.276006,0.17058 0.268696,0.30454 -0.0379,0.69453 -0.34776,0.44236 -0.340732,0.4525 0.08316,0.12006 0.303066,-0.23768 0.46302,-0.26053 0.46302,-0.0661 0,0.5399 0.07561,0.6908 0.502495,1.00295 0.527317,0.38558 0.572368,0.34043 0.382972,-0.38382 z m -8.742349,-0.4937 c -0.132351,-0.3449 -0.06917,-0.37011 0.356541,-0.14228 0.284568,0.1523 0.669412,0.18295 0.85521,0.0681 0.223316,-0.13801 0.03983,-0.26837 -0.541356,-0.38461 -0.522222,-0.10444 -0.915816,-0.0659 -0.969431,0.095 -0.04964,0.14893 -0.203591,0.27079 -0.342106,0.27079 -0.146686,0 -0.130314,-0.22708 0.03921,-0.54384 0.160079,-0.29911 0.244708,-0.68287 0.188066,-0.85279 -0.05664,-0.16993 -0.236167,0.0731 -0.398943,0.54003 -0.240869,0.69095 -0.220923,0.92401 0.107157,1.25209 0.481442,0.48145 0.932308,0.28819 0.705654,-0.30246 z m 4.222451,-0.8541 c 0.261426,-0.26416 0.177945,-0.27423 -0.415585,-0.0501 -0.470157,0.17752 -0.682896,0.18362 -0.579697,0.0166 0.08966,-0.14509 0.02991,-0.26379 -0.132786,-0.26379 -0.162698,0 -0.234493,-0.0992 -0.159546,-0.22048 0.07495,-0.12127 -0.03709,-0.22049 -0.248968,-0.22049 -0.21188,0 -0.385236,0.0992 -0.385236,0.22049 0,0.12126 0.119062,0.22048 0.264583,0.22048 0.145521,0 0.250484,0.0893 0.233251,0.19844 -0.07334,0.46447 0.0623,0.58727 0.564088,0.51069 0.293016,-0.0447 0.679969,-0.23006 0.859896,-0.41186 z m -3.302781,-1.29045 c 0.355437,-0.27646 0.36729,-0.38665 0.07116,-0.66146 -0.283776,-0.26334 -0.317726,-0.26314 -0.168602,0.001 0.102697,0.1819 0.07056,0.33073 -0.07143,0.33073 -0.141982,0 -0.308089,-0.0893 -0.369126,-0.19844 -0.06104,-0.10914 -0.07469,-0.0496 -0.03035,0.13229 0.04434,0.1819 -0.123999,0.33255 -0.374093,0.33478 -0.389441,0.003 -0.397745,0.0401 -0.05784,0.25493 0.218281,0.13799 0.367109,0.31476 0.330729,0.39283 -0.03638,0.0781 -0.05234,0.29077 -0.03545,0.47267 0.01688,0.1819 0.08646,0.0926 0.154612,-0.19844 0.06816,-0.29104 0.315836,-0.67844 0.5504,-0.86089 z m 9.529437,0.4439 c -0.03411,-0.44762 -0.155062,-0.87137 -0.268786,-0.94166 -0.353704,-0.2186 -0.226591,-0.89031 0.16848,-0.89031 0.261958,0 0.35959,-0.27781 0.323377,-0.92016 -0.06706,-1.18947 -0.571339,-1.74979 -0.832952,-0.92552 -0.102788,0.32385 -0.08485,0.66326 0.03986,0.75423 0.449282,0.32774 0.329791,0.77685 -0.245092,0.92119 -0.467317,0.11734 -0.579386,0.32432 -0.551531,1.01866 0.05556,1.38499 0.07597,1.44466 0.494208,1.44466 0.457933,0 0.535548,-0.35065 0.109081,-0.49281 -0.158286,-0.0528 -0.246964,-0.44964 -0.197061,-0.88194 0.08469,-0.73362 0.116541,-0.70223 0.477848,0.47075 0.450722,1.46328 0.568554,1.57142 0.482565,0.44291 z m -7.198513,-1.20358 c -0.08121,-0.21163 0.03084,-0.3638 0.267866,-0.3638 0.365623,0 0.365925,-0.0415 0.0029,-0.40454 -0.222492,-0.22249 -0.337321,-0.57968 -0.255174,-0.79375 0.132174,-0.34444 -0.167,-0.51176 -0.757632,-0.42372 -0.103904,0.0155 -0.111377,-0.17877 -0.01661,-0.43169 0.153165,-0.40876 0.120724,-0.41785 -0.292008,-0.0819 -0.437616,0.35625 -0.430553,0.39605 0.122808,0.6922 0.436757,0.23375 0.492164,0.35182 0.216341,0.46103 -0.269863,0.10684 -0.244758,0.15248 0.09224,0.16769 0.254661,0.0115 0.463021,0.19948 0.463021,0.41776 0,0.55212 -0.341477,0.4952 -0.79375,-0.13229 -0.209771,-0.29104 -0.492634,-0.52917 -0.628583,-0.52917 -0.13595,0 -0.0236,0.24705 0.249662,0.54901 0.493575,0.54539 0.491845,0.54775 -0.26304,0.35829 -0.54699,-0.13729 -0.706641,-0.10458 -0.569845,0.11676 0.10452,0.16912 0.301713,0.23847 0.438207,0.15411 0.136493,-0.0844 0.313887,0.0179 0.394209,0.2272 0.08032,0.20931 0.443695,0.38057 0.807497,0.38057 0.452535,0 0.617364,-0.11491 0.521854,-0.3638 z m 2.421827,0.12312 c -0.401089,-0.14715 -0.661952,-0.37643 -0.579697,-0.50952 0.08225,-0.13309 -0.09443,-0.24199 -0.392637,-0.24199 -0.495069,0 -0.507046,0.0411 -0.1378,0.4723 0.222416,0.25976 0.727266,0.48904 1.121889,0.50952 l 0.717498,0.0372 z m 1.655295,0.0422 c 0.218281,-0.14106 0.277812,-0.26012 0.132291,-0.26458 -0.14552,-0.004 -0.08998,-0.11853 0.123418,-0.2535 0.245967,-0.15557 0.512319,-0.14222 0.727604,0.0365 0.242111,0.20093 0.339603,0.19659 0.339603,-0.0151 0,-0.16334 -0.107916,-0.29698 -0.239813,-0.29698 -0.131897,0 -0.178655,-0.23387 -0.103907,-0.5197 0.07475,-0.28584 0.21243,-0.50987 0.305959,-0.49784 0.808655,0.104 1.212481,-0.83244 0.538582,-1.24894 -0.195321,-0.12071 -0.235816,-10e-4 -0.121529,0.359 0.09825,0.30954 0.03643,0.62345 -0.144826,0.73547 -0.175796,0.10865 -0.247076,0.0836 -0.160512,-0.0565 0.08564,-0.13857 0.04633,-0.42486 -0.08736,-0.63619 -0.189782,-0.3 -0.243962,-0.25373 -0.247126,0.21107 -0.0022,0.32742 -0.13014,0.59531 -0.284249,0.59531 -0.154109,0 -0.214324,-0.10659 -0.133812,-0.23686 0.08051,-0.13027 -0.02771,-0.30367 -0.240495,-0.38532 -0.212785,-0.0817 -0.468622,-0.0162 -0.568527,0.14545 -0.109993,0.17797 -0.06115,0.21944 0.123818,0.10512 0.168005,-0.10383 0.305464,-0.0488 0.305464,0.12227 0,0.18079 -0.221601,0.25311 -0.529167,0.17268 -0.291041,-0.0761 -0.529166,-0.022 -0.529166,0.12036 0,0.14232 0.317033,0.22047 0.704519,0.17367 0.845661,-0.10212 1.13943,0.45933 0.368379,0.70405 -0.299053,0.0949 -0.543732,0.35017 -0.543732,0.56723 0,0.21706 -0.119062,0.32108 -0.264583,0.23114 -0.145521,-0.0899 -0.264583,-0.0374 -0.264583,0.11668 0,0.34626 0.273774,0.35165 0.79375,0.0156 z m -3.452434,-1.91823 c -0.14321,-0.32742 -0.331854,-0.80367 -0.419208,-1.05833 -0.213868,-0.62349 -0.504418,-0.58579 -0.553957,0.0719 -0.02216,0.29419 0.06807,0.46791 0.200522,0.38606 0.132447,-0.0819 0.316743,0.15369 0.409545,0.52345 0.0928,0.36975 0.27105,0.67228 0.396105,0.67228 0.125056,0 0.110203,-0.2679 -0.03301,-0.59532 z"
         id="path34422" />
      <path
         style="fill:#a73565;stroke-width:1.67342"
         d="m 23.484543,315.70662 c 1.134438,-0.0497 2.920375,-0.0494 3.96875,6.7e-4 1.048375,0.0501 0.120199,0.0908 -2.062614,0.0904 -2.182812,-3.7e-4 -3.040573,-0.0414 -1.906136,-0.0911 z"
         id="path33029" />
      <path
         style="fill:#50714b;stroke-width:1.67342"
         d="m 34.659727,285.75497 c -0.08812,-0.14259 0.08224,-0.50172 0.378593,-0.79807 0.566425,-0.56642 1.332567,-0.72409 1.332567,-0.27423 0,0.14552 -0.310395,0.26458 -0.689766,0.26458 -0.497735,0 -0.648272,0.10813 -0.540722,0.3884 0.171861,0.44787 -0.240634,0.80771 -0.480672,0.41932 z"
         id="path34411" />
      <path
         style="fill:#50714b;stroke-width:1.67342"
         d="m -2.1240901,309.06233 c 0.5004839,-0.59179 2.25198273,-1.63885 2.69954561,-1.6138 0.11493789,0.006 -0.267272,0.25829 -0.8493553,0.55969 -0.5820833,0.3014 -1.35513771,0.80215 -1.71789871,1.11278 l -0.6595654,0.56479 z"
         id="path34410" />
      <path
         style="fill:#50714b;stroke-width:1.67342"
         d="m 53.964977,309.47283 c -0.43695,-0.46495 -1.032263,-0.99663 -1.322917,-1.1815 -0.455093,-0.28947 -0.436628,-0.29393 0.132996,-0.0322 0.822301,0.3779 1.559273,1.01178 1.885899,1.62209 0.342931,0.64077 0.225007,0.57157 -0.695978,-0.40844 z"
         id="path34409" />
      <path
         style="fill:#50714b;stroke-width:1.67342"
         d="m 24.087298,309.42716 c -0.211443,-0.50605 -0.508902,-1.0716 -0.661021,-1.25677 -1.202828,-1.46417 -1.607473,-2.03932 -1.607473,-2.28479 0,-0.15633 -0.163242,-0.22159 -0.36276,-0.14503 -0.199517,0.0766 -0.526939,-0.0221 -0.727604,-0.21932 -0.200664,-0.19719 -0.902638,-0.72644 -1.559942,-1.17612 -1.621593,-1.10937 -3.964277,-3.23944 -3.964277,-3.60449 0,-0.16345 0.654844,0.34953 1.455209,1.13996 0.800364,0.79042 1.455208,1.29237 1.455208,1.11544 0,-0.17693 -0.126089,-0.32169 -0.280198,-0.32169 -0.154109,0 -0.213522,-0.10789 -0.132028,-0.23975 0.214946,-0.34779 1.142437,-0.0429 1.326193,0.43598 0.216513,0.56422 -0.08884,0.80108 -0.41933,0.32527 -0.236155,-0.34 -0.255827,-0.33903 -0.155574,0.008 0.06312,0.21828 0.31031,0.38034 0.549309,0.36013 0.239,-0.0202 0.434545,0.0691 0.434545,0.19844 0,0.60279 0.418535,0.14896 0.454119,-0.49242 0.03276,-0.59044 0.0021,-0.63052 -0.162425,-0.21261 -0.193619,0.4917 -0.209667,0.48871 -0.354765,-0.0661 -0.08991,-0.3438 -0.02702,-0.59537 0.153987,-0.61598 0.168277,-0.0191 -0.11076,-0.1094 -0.620083,-0.20054 -0.642148,-0.1149 -0.905312,-0.29349 -0.858424,-0.58253 0.03719,-0.22925 -0.09179,-0.41682 -0.286632,-0.41682 -0.194837,0 -0.35425,0.15875 -0.35425,0.35278 0,0.19403 0.106246,0.35278 0.236101,0.35278 0.129856,0 0.149773,0.13968 0.04426,0.3104 -0.127186,0.20579 -0.47125,-0.0224 -1.020886,-0.67708 -0.455974,-0.54312 -1.061282,-1.02089 -1.345128,-1.06171 -0.284395,-0.0409 -0.871034,-0.64592 -1.306731,-1.34767 -0.643739,-1.03684 -0.80846,-1.6262 -0.886516,-3.17193 -0.07866,-1.55762 -0.01067,-1.98367 0.378647,-2.37299 1.102681,-1.10268 5.662192,0.24625 8.01396,2.37093 1.315997,1.18892 2.44746,3.48604 3.093653,6.28077 0.773539,3.34551 1.073395,2.67341 1.239456,-2.77812 0.129774,-4.26024 0.224311,-5.03979 0.803102,-6.62235 0.869874,-2.37845 1.998576,-4.10311 2.356453,-3.60066 0.196956,0.27652 0.220391,0.24139 0.09484,-0.14218 -0.121725,-0.37186 0.136517,-0.81847 0.956171,-1.65364 0.617616,-0.62931 1.204303,-1.14419 1.303749,-1.14419 0.09945,0 0.255519,0.29765 0.346828,0.66146 0.130636,0.52049 0.334094,0.66146 0.954724,0.66146 0.43379,0 0.788709,0.1389 0.788709,0.30868 0,0.16977 0.0575,0.25118 0.127767,0.18091 0.07027,-0.0703 0.02162,-0.49787 -0.10811,-0.95022 -0.275667,-0.9612 -0.101229,-1.25595 0.469809,-0.79385 0.323739,0.26198 0.365658,0.26151 0.207167,-0.002 -0.109283,-0.1819 -0.07261,-0.33072 0.0815,-0.33072 0.15411,0 0.280199,0.17859 0.280199,0.39687 0,0.21828 0.126089,0.39688 0.280198,0.39688 0.154109,0 0.201661,-0.12708 0.10567,-0.2824 -0.09599,-0.15531 0.06734,-0.34564 0.362952,-0.42294 0.347196,-0.0908 0.482923,-0.28273 0.383378,-0.54214 -0.130145,-0.33915 -0.06238,-0.3525 0.435858,-0.0858 0.324478,0.17366 0.762005,0.24972 0.972282,0.16903 0.307805,-0.11812 0.327094,-0.0435 0.09896,0.38275 -0.32797,0.61281 0.105711,1.22252 0.869575,1.22252 0.596657,0 0.594857,-0.79736 -0.0031,-1.39536 -0.254662,-0.25467 -0.433255,-0.5013 -0.396875,-0.54807 0.212806,-0.27361 4.71e-4,-0.3331 -0.408224,-0.11437 -0.376741,0.20162 -0.482264,0.14909 -0.512724,-0.25528 -0.03758,-0.49886 0.306282,-0.70273 0.524073,-0.31071 0.06063,0.10914 0.09114,0.0794 0.06779,-0.0661 -0.128051,-0.79806 -3.008565,-0.20761 -2.945703,0.60381 0.01893,0.24437 -0.197734,0.47223 -0.495525,0.52111 -0.52206,0.0857 -0.522269,0.0814 -0.01558,-0.3206 0.282475,-0.22409 0.390225,-0.40745 0.239445,-0.40745 -0.591461,0 -1.177625,0.98808 -1.001785,1.68868 0.151409,0.60326 0.09336,0.69017 -0.450171,0.67398 -0.584767,-0.0174 -0.590728,-0.0329 -0.09483,-0.24599 0.514653,-0.22116 0.513615,-0.2279 -0.03784,-0.24599 -0.66152,-0.0217 -0.998318,-0.65995 -0.541747,-1.02665 0.815998,-0.65537 3.690333,-1.90236 4.384979,-1.90236 1.762472,0 2.863906,2.74175 2.59424,6.45772 -0.278784,3.84162 -1.360062,6.1984 -4.376796,9.53977 -2.107048,2.33379 -2.846974,2.83218 -3.125844,2.10546 -0.07933,-0.20673 -0.254746,-0.37587 -0.389818,-0.37587 -0.135072,0 -0.110041,0.25327 0.05562,0.56282 0.234943,0.43899 0.222439,0.61273 -0.05684,0.78969 -0.531158,0.33658 -0.754921,0.28397 -0.754921,-0.1775 0,-0.22687 0.117269,-0.34001 0.260599,-0.25143 0.160215,0.099 0.201771,-0.13308 0.107881,-0.60253 -0.104031,-0.52016 -0.01238,-0.90393 0.287466,-1.20378 0.385228,-0.38523 0.388905,-0.44018 0.02945,-0.44018 -0.225904,0 -0.472895,0.26789 -0.548869,0.59531 -0.469797,2.02464 -0.924529,4.52571 -0.838485,4.61176 0.05561,0.0556 0.308181,-0.21493 0.561268,-0.60119 0.253088,-0.38626 0.328747,-0.62107 0.168132,-0.5218 -0.176866,0.1093 -0.292028,-0.0344 -0.292028,-0.3643 0,-0.31703 0.172448,-0.54478 0.41249,-0.54478 0.244368,0 0.343127,0.13479 0.242306,0.33072 -0.0936,0.18191 0.193826,-0.086 0.638726,-0.59531 0.4449,-0.50932 0.812113,-0.83163 0.816027,-0.71623 0.0063,0.18598 -1.75904,3.07321 -2.298339,3.75894 -0.114446,0.14552 -0.236155,0.44318 -0.270463,0.66146 -0.03431,0.21828 -0.203044,1.08148 -0.374969,1.91823 l -0.312591,1.52135 h -2.201168 -2.201167 z m -0.949968,-3.37938 c -0.01981,-0.29837 -1.263215,-3.35499 -1.533733,-3.77031 -0.261396,-0.40131 -0.380663,-0.44203 -0.493636,-0.1685 -0.125765,0.3045 -0.184547,0.3045 -0.377466,0 -0.125678,-0.19837 -0.230327,-0.23459 -0.232556,-0.0805 -0.0022,0.15409 0.174835,0.51128 0.393473,0.79375 0.331375,0.42813 0.370692,0.43655 0.236276,0.0506 -0.251418,-0.72194 0.302866,-0.54363 0.645117,0.20753 0.270373,0.59341 0.237209,0.69802 -0.28826,0.90927 -0.546904,0.21988 -0.552006,0.24037 -0.06462,0.25955 0.440033,0.0173 0.462317,0.064 0.132292,0.2773 -0.218281,0.14106 -0.271859,0.2583 -0.119062,0.26053 0.152796,0.002 0.405768,-0.1239 0.562159,-0.28029 0.20274,-0.20274 0.335269,-0.0129 0.46178,0.66145 0.09759,0.5202 0.291102,0.94581 0.430029,0.94581 0.138927,0 0.250618,-0.0298 0.248203,-0.0661 z m 4.111108,-1.45521 c 0.161953,-0.79594 1.74373,-5.69904 2.112572,-6.54843 0.203317,-0.46821 0.179337,-0.48815 -0.208167,-0.17306 -0.240875,0.19585 -0.422859,0.43398 -0.404409,0.52916 0.01845,0.0952 -0.05631,0.41119 -0.166133,0.70223 -0.109823,0.29104 -0.240507,0.66876 -0.290409,0.83937 -0.0499,0.17062 -0.365901,0.34921 -0.702221,0.39688 -0.398633,0.0565 -0.640923,0.29389 -0.69604,0.68198 -0.0465,0.32742 0.03165,0.59531 0.173668,0.59531 0.142018,0 0.195944,-0.23812 0.119835,-0.52916 -0.109765,-0.41975 -0.0089,-0.52833 0.487791,-0.52512 0.368556,0.002 0.500499,0.084 0.320707,0.19844 -0.316874,0.20164 -0.355995,0.31195 -0.355995,1.00375 0,0.22687 -0.106586,0.34661 -0.236859,0.2661 -0.130272,-0.0805 -0.303666,0.0277 -0.385319,0.2405 -0.08165,0.21278 -0.02648,0.46227 0.122605,0.55441 0.149086,0.0921 0.191017,0.36384 0.09318,0.60378 -0.436629,1.07082 -0.598865,1.89147 -0.373928,1.89147 0.13259,0 0.307695,-0.32742 0.389122,-0.72761 z m 5.363837,-3.12695 c 0.325856,-0.22824 0.529484,-0.51689 0.452508,-0.64144 -0.07698,-0.12455 0.06986,-0.28118 0.326302,-0.34808 0.354821,-0.0926 0.323977,-0.12896 -0.129052,-0.15231 -0.429154,-0.0221 -0.595313,0.117 -0.595313,0.49847 0,0.58939 -0.518533,0.69855 -1.005416,0.21167 -0.246945,-0.24695 -0.3175,-0.24695 -0.3175,0 0,0.17462 0.126089,0.3175 0.280198,0.3175 0.154109,0 0.206614,0.11906 0.116677,0.26458 -0.244794,0.39609 0.201277,0.31912 0.871596,-0.15039 z m -9.558748,-1.04023 c 0,-0.21828 -0.0585,-0.33838 -0.129997,-0.26688 -0.176792,0.17679 -0.840142,-0.39482 -0.840142,-0.72396 0,-0.14552 0.208359,-0.1077 0.463021,0.084 0.371971,0.28008 0.365732,0.24743 -0.03172,-0.16604 -0.34195,-0.35572 -0.531809,-0.41494 -0.614758,-0.19175 -0.08361,0.22497 -0.289746,0.16479 -0.679626,-0.19844 -0.307786,-0.28675 -0.667488,-0.52136 -0.799338,-0.52136 -0.131849,0 0.277555,0.42993 0.909786,0.95541 0.632232,0.52547 1.1892,1.06125 1.237707,1.19062 0.143336,0.38229 0.48507,0.2684 0.48507,-0.16165 z m -6.153223,-0.17066 c -0.130514,-0.21117 0.03919,-0.25966 0.56022,-0.16006 0.71931,0.13751 1.606434,-0.34856 1.262988,-0.69201 -0.08782,-0.0878 -0.313362,0.0468 -0.5012,0.29924 -0.313685,0.4215 -0.338277,0.41159 -0.301703,-0.12158 0.02509,-0.36581 0.264021,-0.63675 0.646091,-0.73264 0.333449,-0.0837 0.606271,-0.27315 0.606271,-0.42102 0,-0.17729 -0.180203,-0.17241 -0.529166,0.0143 -0.291042,0.15576 -0.529167,0.21479 -0.529167,0.13117 0,-0.0836 -0.165418,10e-4 -0.367595,0.18913 -0.259006,0.24038 -0.280736,0.39557 -0.07356,0.52536 0.191637,0.12006 0.131937,0.24641 -0.171426,0.36282 -0.284274,0.10909 -0.667609,-0.004 -0.984772,-0.29135 -0.630278,-0.5704 -0.669911,-0.3346 -0.09201,0.54739 0.416238,0.63526 0.847969,0.95263 0.475028,0.3492 z m -0.773407,-0.49625 c -0.103756,-0.16788 -0.413335,-0.24648 -0.687953,-0.17466 -0.274618,0.0718 -0.499306,0.0226 -0.499306,-0.10925 0,-0.13189 -0.133641,-0.23981 -0.29698,-0.23981 -0.206162,0 -0.196994,0.12048 0.02998,0.39396 0.179828,0.21668 0.40845,0.3436 0.50805,0.28204 0.0996,-0.0616 0.350552,-0.007 0.557671,0.12082 0.454581,0.28095 0.647258,0.14552 0.388539,-0.2731 z m -0.01634,-1.40349 0.570138,-0.61519 -0.652815,-0.30808 c -0.359048,-0.16944 -0.711097,-0.24979 -0.782332,-0.17856 -0.07123,0.0712 -0.01658,0.12952 0.121455,0.12952 0.138035,0 0.276753,0.31149 0.308261,0.69221 0.04746,0.57345 -0.03348,0.66847 -0.471824,0.55384 -0.291012,-0.0761 -0.46239,-0.0304 -0.380841,0.10154 0.24744,0.40037 0.688111,0.27197 1.287958,-0.37528 z m 11.659502,0.35364 c 0.09269,-0.14999 -0.01351,-0.19434 -0.248968,-0.10399 -0.683833,0.26241 -0.459991,-0.11994 0.316987,-0.54146 0.492794,-0.26734 0.583218,-0.39815 0.280198,-0.40532 -0.246073,-0.006 -0.525784,0.11622 -0.621579,0.27122 -0.114016,0.18448 -0.347873,0.12462 -0.677074,-0.1733 -0.276594,-0.25031 -0.502899,-0.32752 -0.502899,-0.17157 0,0.15594 0.148828,0.34393 0.330729,0.41774 0.25471,0.10335 0.245883,0.19348 -0.0384,0.39212 -0.301105,0.2104 -0.276725,0.28159 0.132292,0.38633 0.806398,0.20649 0.859012,0.20282 1.028718,-0.0718 z m 7.558823,-0.5688 c 0.271177,-1.01397 0.840428,-1.7747 1.219227,-1.62934 0.507717,0.19483 0.735899,-0.64807 0.315402,-1.16509 -0.315622,-0.38808 -0.301176,-0.42086 0.116433,-0.26425 0.286411,0.10741 0.412223,0.0744 0.315115,-0.0828 -0.08891,-0.14386 -0.0483,-0.26155 0.09024,-0.26155 0.363348,0 0.61122,-0.78597 0.428967,-1.3602 -0.08587,-0.27054 -0.326691,-0.49189 -0.535166,-0.49189 -0.208475,0 -0.379045,-0.12609 -0.379045,-0.2802 0,-0.15411 -0.135148,-0.19667 -0.300329,-0.0946 -0.193929,0.11985 -0.07676,0.30953 0.330729,0.5354 0.347082,0.19239 0.478041,0.35402 0.29102,0.35917 -0.254219,0.007 -0.270732,0.13888 -0.06543,0.52249 0.308812,0.57702 -0.02978,0.95323 -0.645324,0.71702 -0.302914,-0.11624 -0.299727,0.0141 0.01899,0.77693 l 0.382984,0.91661 -0.667778,-0.1676 c -0.560135,-0.14059 -0.667778,-0.0752 -0.667778,0.40586 0,0.31541 -0.10562,0.50819 -0.234711,0.42841 -0.12909,-0.0798 -0.229397,0.002 -0.222902,0.18282 0.04253,1.18087 -0.08585,1.46523 -0.60072,1.33058 -0.291042,-0.0761 -0.529167,-0.27775 -0.529167,-0.44809 0,-0.17034 -0.248732,-0.32845 -0.552738,-0.35135 l -0.552738,-0.0416 0.547926,0.47521 c 0.301359,0.26137 0.47744,0.5457 0.39129,0.63185 -0.08615,0.0861 0.178741,0.12088 0.588646,0.0772 0.53017,-0.0565 0.794802,-0.26463 0.916856,-0.72101 z m -21.074408,0.26282 c -0.128511,-0.20794 0.02497,-0.26238 0.489397,-0.1736 0.455547,0.0871 0.636963,0.026 0.555234,-0.187 -0.07042,-0.1835 -0.408077,-0.26154 -0.804125,-0.18583 -0.503987,0.0964 -0.648919,0.0341 -0.55358,-0.23766 0.07103,-0.20249 0.306241,-0.35471 0.522681,-0.33826 0.21644,0.0165 0.539837,-0.20437 0.71866,-0.49071 0.189752,-0.30384 0.20683,-0.4475 0.04102,-0.34503 -0.156264,0.0966 -0.293516,0.0197 -0.305004,-0.17075 -0.01606,-0.26636 -0.05171,-0.26997 -0.15434,-0.0156 -0.149489,0.37047 -0.618522,0.45284 -0.618522,0.10861 0,-0.12216 0.297656,-0.35773 0.661458,-0.52349 0.510077,-0.23241 0.662386,-0.22699 0.66551,0.0237 0.0028,0.22193 0.07909,0.20652 0.240572,-0.0486 0.19993,-0.31583 0.304559,-0.3056 0.676306,0.0661 0.487311,0.48731 0.788141,0.58596 0.534279,0.1752 -0.219449,-0.35507 -0.0615,-0.33374 0.786566,0.10624 0.662066,0.34349 0.678926,0.39166 0.228681,0.65341 -0.285578,0.16603 -0.343217,0.28591 -0.139736,0.29064 0.190489,0.004 0.272759,0.12711 0.182822,0.27263 -0.08994,0.14552 -0.0304,0.26458 0.132292,0.26458 0.162697,0 0.222228,0.11906 0.132292,0.26459 -0.206953,0.33485 0.143305,0.33485 0.661458,0 0.339169,-0.21919 0.329551,-0.25707 -0.06615,-0.26054 -0.254661,-0.002 -0.463021,-0.17144 -0.463021,-0.37603 0,-0.30013 0.123409,-0.31374 0.638873,-0.0705 0.35138,0.16582 0.583321,0.39138 0.515425,0.50124 -0.0679,0.10986 0.08716,0.11893 0.344562,0.0202 0.384161,-0.14742 0.312082,-0.24322 -0.402319,-0.53472 -0.953892,-0.38923 -0.978088,-0.75001 -0.08985,-1.33977 0.53837,-0.35747 0.580812,-0.34348 0.580812,0.1914 0,0.31738 0.114573,0.50625 0.254606,0.4197 0.39834,-0.24618 -0.226165,-1.36347 -0.94524,-1.69111 -0.428075,-0.19504 -0.632282,-0.19942 -0.632282,-0.0136 0,0.15099 -0.109464,0.20688 -0.243253,0.12419 -0.133789,-0.0827 -0.40168,0.006 -0.595313,0.19763 -0.193632,0.19138 -0.573675,0.43195 -0.844539,0.5346 -0.382402,0.14491 -0.455655,0.0907 -0.327729,-0.2427 0.119978,-0.31266 0.05234,-0.3862 -0.248866,-0.27062 -0.237825,0.0913 -0.344915,0.0476 -0.251969,-0.10283 0.08891,-0.14386 0.04548,-0.26155 -0.0965,-0.26155 -0.141982,0 -0.29823,0.12024 -0.347218,0.2672 -0.04899,0.14696 -0.349698,0.3174 -0.668246,0.37874 -0.437367,0.0842 -0.540699,0.0113 -0.422028,-0.29798 0.133461,-0.34779 0.06832,-0.36198 -0.432163,-0.0941 -0.539224,0.28858 -0.565914,0.27166 -0.314012,-0.19902 0.151416,-0.28292 0.193823,-0.59588 0.09424,-0.69547 -0.09958,-0.0996 0.01913,-0.10424 0.263821,-0.0103 0.244686,0.0939 0.51752,0.39957 0.606297,0.67928 0.08878,0.27971 0.273845,0.43908 0.411262,0.35415 0.137418,-0.0849 0.179527,-0.2682 0.09358,-0.40727 -0.08595,-0.13907 -0.05813,-0.23581 0.06183,-0.21497 0.535677,0.0931 0.897118,-0.0469 0.747271,-0.28936 -0.08994,-0.14552 -0.03743,-0.26458 0.116677,-0.26458 0.154109,0 0.280198,0.16585 0.280198,0.36856 0,0.20271 0.184778,0.43948 0.410617,0.52614 0.225839,0.0867 0.342397,0.0472 0.259018,-0.0877 -0.08338,-0.13491 0.05927,-0.36805 0.316988,-0.51809 0.257722,-0.15004 0.34357,-0.27642 0.190773,-0.28085 -0.152797,-0.004 -0.438211,0.14078 -0.634254,0.32268 -0.290046,0.26913 -0.328041,0.24957 -0.203978,-0.10501 0.114818,-0.32816 -0.04169,-0.46424 -0.633881,-0.55116 -0.57772,-0.0848 -0.750433,-0.0218 -0.650992,0.23731 0.07444,0.194 0.02003,0.35272 -0.120928,0.35272 -0.140954,0 -0.25628,-0.1786 -0.25628,-0.39688 0,-0.45153 -0.414761,-0.53145 -0.664125,-0.12797 -0.0914,0.14789 -0.290336,0.19217 -0.442071,0.0984 -0.151736,-0.0938 -0.379811,-0.006 -0.506833,0.19412 -0.320786,0.50646 -0.297964,2.81053 0.02984,3.01313 0.147895,0.0914 0.20192,0.27456 0.120057,0.40702 -0.150692,0.24383 0.306722,1.31011 0.56201,1.31011 0.07623,0 0.05434,-0.13633 -0.04863,-0.30295 z m 4.186153,-2.87205 c 0.33301,-0.53324 0.762825,-0.67508 1.081121,-0.35679 0.09481,0.0948 -0.13708,0.33294 -0.515313,0.52917 -0.904696,0.46936 -0.956692,0.45352 -0.565808,-0.17238 z m 4.414074,2.57968 c -0.326258,-0.63547 -1.835543,-2.31523 -2.079984,-2.31491 -0.08059,1e-4 -0.163705,0.29775 -0.184691,0.66145 -0.02099,0.3637 0.07534,0.66128 0.214052,0.66128 0.138715,0 0.178625,-0.11907 0.08869,-0.26459 -0.08994,-0.14552 -0.03743,-0.26458 0.116677,-0.26458 0.154109,0 0.282021,0.20836 0.284249,0.46302 0.0032,0.36069 0.05432,0.38368 0.231511,0.10404 0.174969,-0.27613 0.273441,-0.28457 0.42672,-0.0366 0.109594,0.17733 0.07812,0.3984 -0.06994,0.49127 -0.17123,0.1074 -0.135421,0.29301 0.09839,0.51001 0.300071,0.2785 0.369073,0.2785 0.375641,0 0.0048,-0.20369 0.116709,-0.15459 0.27773,0.12186 0.394417,0.67718 0.579612,0.56629 0.220951,-0.13229 z m 9.683782,-0.46957 c 0.09217,-0.14913 0.06943,-0.23843 -0.05053,-0.19844 -0.244924,0.0816 -0.350395,-0.1354 -0.350395,-0.72105 0,-0.21828 0.208359,-0.3987 0.463021,-0.40093 0.366198,-0.003 0.386774,-0.0523 0.09839,-0.235 -0.20358,-0.12894 -0.276617,-0.37335 -0.165364,-0.55336 0.153368,-0.24816 0.254433,-0.23973 0.438809,0.0366 0.155867,0.23358 0.180206,0.10361 0.06967,-0.37206 -0.09681,-0.41659 -0.03906,-0.88866 0.134248,-1.09748 0.31928,-0.38471 0.609176,-1.47877 0.391833,-1.47877 -0.156202,0 -0.992172,1.93096 -1.55985,3.60302 -0.341867,1.00695 -0.357378,1.28791 -0.08079,1.46338 0.432388,0.2743 0.412129,0.27582 0.610949,-0.0459 z m -0.586208,-4.06047 c 0.940105,-1.16148 1.337322,-1.75381 1.176112,-1.75381 -0.0543,0 -0.489567,0.52162 -0.967255,1.15916 -0.637899,0.85136 -1.004208,1.12368 -1.37951,1.02553 -0.341412,-0.0893 -0.462641,-0.28595 -0.365303,-0.59264 0.08431,-0.26563 -0.0519,-0.61408 -0.323309,-0.82709 -0.430657,-0.338 -0.437943,-0.32859 -0.08913,0.1151 0.222594,0.28314 0.277365,0.55699 0.132292,0.66146 -0.293934,0.21166 -0.322002,0.98578 -0.04576,1.26203 0.107284,0.10728 0.195063,0.0562 0.195063,-0.11362 0,-0.16978 0.208359,-0.30686 0.46302,-0.30463 0.298708,0.003 0.354621,0.073 0.157558,0.19844 -0.168005,0.10691 -0.327575,0.31345 -0.3546,0.45897 -0.02702,0.14552 -0.153835,0.44317 -0.281803,0.66146 -0.201038,0.34292 -0.233761,0.33812 -0.240713,-0.0353 -0.0046,-0.24612 -0.289361,-0.48595 -0.661497,-0.55709 -0.359398,-0.0687 -0.590497,-0.0231 -0.513552,0.10145 0.07694,0.1245 0.341232,0.22818 0.587306,0.23041 0.38557,0.003 0.392554,0.0395 0.05053,0.26054 -0.340343,0.21994 -0.331854,0.25705 0.0596,0.26053 0.380384,0.003 0.413461,0.11718 0.198437,0.68273 -0.46017,1.21034 -0.265489,1.07202 0.534958,-0.38007 0.430874,-0.78166 1.181275,-1.91275 1.667559,-2.51355 z m 2.14358,3.11353 c 0.10057,-0.26208 0.328033,-0.36093 0.594897,-0.25853 0.341245,0.13095 0.369067,0.0899 0.132357,-0.19533 -0.164841,-0.19862 -0.270979,-0.41113 -0.235861,-0.47224 0.03512,-0.0611 -0.07706,0.0511 -0.249275,0.24927 -0.174133,0.20042 -0.458343,0.27065 -0.640275,0.1582 -0.232192,-0.1435 -0.27483,-0.0658 -0.146895,0.26755 0.133962,0.3491 0.07756,0.43033 -0.219621,0.31629 -0.219931,-0.0844 -0.399875,-0.0381 -0.399875,0.10284 0,0.42868 0.990404,0.28576 1.164548,-0.16805 z m -7.057175,-1.23564 c 0.281115,0.10787 0.358959,0.0585 0.231874,-0.14716 -0.187166,-0.30284 0.132272,-0.42296 0.859181,-0.32307 0.300682,0.0413 0.300682,-0.0128 0,-0.339 -0.216287,-0.23463 -0.470171,-0.29649 -0.641911,-0.1564 -0.168513,0.13746 -0.432448,0.0998 -0.648698,-0.0927 -0.304321,-0.2708 -0.310911,-0.253 -0.03987,0.10769 0.263226,0.35029 0.248282,0.46145 -0.07891,0.58701 -0.221996,0.0852 -0.394229,0.30745 -0.38274,0.49392 0.01518,0.24633 0.05602,0.25267 0.149386,0.0232 0.07067,-0.17372 0.31893,-0.24279 0.551682,-0.15347 z m 9.163307,-0.0598 c -0.08376,-0.21828 -0.265646,-0.39687 -0.404186,-0.39687 -0.13854,0 -0.176504,0.14883 -0.08436,0.33073 0.09214,0.1819 0.003,0.13095 -0.198052,-0.11323 -0.249803,-0.30336 -0.486444,-0.36749 -0.747225,-0.20249 -0.311997,0.1974 -0.294296,0.24221 0.09699,0.24552 0.263249,0.002 0.405051,0.12311 0.315114,0.26864 -0.09254,0.14973 0.126776,0.26458 0.505248,0.26458 0.485759,0 0.627093,-0.10861 0.516474,-0.39688 z m 0.525203,-1.66222 c -0.08353,-0.31943 -0.23214,-0.53118 -0.330239,-0.47055 -0.0981,0.0606 -0.332966,-0.23904 -0.521927,-0.66593 -0.18896,-0.42689 -0.46506,-0.70108 -0.613555,-0.60931 -0.172127,0.10638 -0.146039,0.24347 0.07197,0.37821 0.276006,0.17058 0.268696,0.30454 -0.0379,0.69453 -0.34776,0.44236 -0.340732,0.4525 0.08316,0.12006 0.303066,-0.23768 0.46302,-0.26053 0.46302,-0.0661 0,0.5399 0.07561,0.6908 0.502495,1.00295 0.527317,0.38558 0.572368,0.34043 0.382972,-0.38382 z m -8.742349,-0.4937 c -0.132351,-0.3449 -0.06917,-0.37011 0.356541,-0.14228 0.284568,0.1523 0.669412,0.18295 0.85521,0.0681 0.223316,-0.13801 0.03983,-0.26837 -0.541356,-0.38461 -0.522222,-0.10444 -0.915816,-0.0659 -0.969431,0.095 -0.04964,0.14893 -0.203591,0.27079 -0.342106,0.27079 -0.146686,0 -0.130314,-0.22708 0.03921,-0.54384 0.160079,-0.29911 0.244708,-0.68287 0.188066,-0.85279 -0.05664,-0.16993 -0.236167,0.0731 -0.398943,0.54003 -0.240869,0.69095 -0.220923,0.92401 0.107157,1.25209 0.481442,0.48145 0.932308,0.28819 0.705654,-0.30246 z m 4.222451,-0.8541 c 0.261426,-0.26416 0.177945,-0.27423 -0.415585,-0.0501 -0.470157,0.17752 -0.682896,0.18362 -0.579697,0.0166 0.08966,-0.14509 0.02991,-0.26379 -0.132786,-0.26379 -0.162698,0 -0.234493,-0.0992 -0.159546,-0.22048 0.07495,-0.12127 -0.03709,-0.22049 -0.248968,-0.22049 -0.21188,0 -0.385236,0.0992 -0.385236,0.22049 0,0.12126 0.119062,0.22048 0.264583,0.22048 0.145521,0 0.250484,0.0893 0.233251,0.19844 -0.07334,0.46447 0.0623,0.58727 0.564088,0.51069 0.293016,-0.0447 0.679969,-0.23006 0.859896,-0.41186 z m -3.302781,-1.29045 c 0.355437,-0.27646 0.36729,-0.38665 0.07116,-0.66146 -0.283776,-0.26334 -0.317726,-0.26314 -0.168602,0.001 0.102697,0.1819 0.07056,0.33073 -0.07143,0.33073 -0.141982,0 -0.308089,-0.0893 -0.369126,-0.19844 -0.06104,-0.10914 -0.07469,-0.0496 -0.03035,0.13229 0.04434,0.1819 -0.123999,0.33255 -0.374093,0.33478 -0.389441,0.003 -0.397745,0.0401 -0.05784,0.25493 0.218281,0.13799 0.367109,0.31476 0.330729,0.39283 -0.03638,0.0781 -0.05234,0.29077 -0.03545,0.47267 0.01688,0.1819 0.08646,0.0926 0.154612,-0.19844 0.06816,-0.29104 0.315836,-0.67844 0.5504,-0.86089 z m 9.529437,0.4439 c -0.03411,-0.44762 -0.155062,-0.87137 -0.268786,-0.94166 -0.353704,-0.2186 -0.226591,-0.89031 0.16848,-0.89031 0.261958,0 0.35959,-0.27781 0.323377,-0.92016 -0.06706,-1.18947 -0.571339,-1.74979 -0.832952,-0.92552 -0.102788,0.32385 -0.08485,0.66326 0.03986,0.75423 0.449282,0.32774 0.329791,0.77685 -0.245092,0.92119 -0.467317,0.11734 -0.579386,0.32432 -0.551531,1.01866 0.05556,1.38499 0.07597,1.44466 0.494208,1.44466 0.457933,0 0.535548,-0.35065 0.109081,-0.49281 -0.158286,-0.0528 -0.246964,-0.44964 -0.197061,-0.88194 0.08469,-0.73362 0.116541,-0.70223 0.477848,0.47075 0.450722,1.46328 0.568554,1.57142 0.482565,0.44291 z m -7.198513,-1.20358 c -0.08121,-0.21163 0.03084,-0.3638 0.267866,-0.3638 0.365623,0 0.365925,-0.0415 0.0029,-0.40454 -0.222492,-0.22249 -0.337321,-0.57968 -0.255174,-0.79375 0.132174,-0.34444 -0.167,-0.51176 -0.757632,-0.42372 -0.103904,0.0155 -0.111377,-0.17877 -0.01661,-0.43169 0.153165,-0.40876 0.120724,-0.41785 -0.292008,-0.0819 -0.437616,0.35625 -0.430553,0.39605 0.122808,0.6922 0.436757,0.23375 0.492164,0.35182 0.216341,0.46103 -0.269863,0.10684 -0.244758,0.15248 0.09224,0.16769 0.254661,0.0115 0.463021,0.19948 0.463021,0.41776 0,0.55212 -0.341477,0.4952 -0.79375,-0.13229 -0.209771,-0.29104 -0.492634,-0.52917 -0.628583,-0.52917 -0.13595,0 -0.0236,0.24705 0.249662,0.54901 0.493575,0.54539 0.491845,0.54775 -0.26304,0.35829 -0.54699,-0.13729 -0.706641,-0.10458 -0.569845,0.11676 0.10452,0.16912 0.301713,0.23847 0.438207,0.15411 0.136493,-0.0844 0.313887,0.0179 0.394209,0.2272 0.08032,0.20931 0.443695,0.38057 0.807497,0.38057 0.452535,0 0.617364,-0.11491 0.521854,-0.3638 z m 2.421827,0.12312 c -0.401089,-0.14715 -0.661952,-0.37643 -0.579697,-0.50952 0.08225,-0.13309 -0.09443,-0.24199 -0.392637,-0.24199 -0.495069,0 -0.507046,0.0411 -0.1378,0.4723 0.222416,0.25976 0.727266,0.48904 1.121889,0.50952 l 0.717498,0.0372 z m 1.655295,0.0422 c 0.218281,-0.14106 0.277812,-0.26012 0.132291,-0.26458 -0.14552,-0.004 -0.08998,-0.11853 0.123418,-0.2535 0.245967,-0.15557 0.512319,-0.14222 0.727604,0.0365 0.242111,0.20093 0.339603,0.19659 0.339603,-0.0151 0,-0.16334 -0.107916,-0.29698 -0.239813,-0.29698 -0.131897,0 -0.178655,-0.23387 -0.103907,-0.5197 0.07475,-0.28584 0.21243,-0.50987 0.305959,-0.49784 0.808655,0.104 1.212481,-0.83244 0.538582,-1.24894 -0.195321,-0.12071 -0.235816,-10e-4 -0.121529,0.359 0.09825,0.30954 0.03643,0.62345 -0.144826,0.73547 -0.175796,0.10865 -0.247076,0.0836 -0.160512,-0.0565 0.08564,-0.13857 0.04633,-0.42486 -0.08736,-0.63619 -0.189782,-0.3 -0.243962,-0.25373 -0.247126,0.21107 -0.0022,0.32742 -0.13014,0.59531 -0.284249,0.59531 -0.154109,0 -0.214324,-0.10659 -0.133812,-0.23686 0.08051,-0.13027 -0.02771,-0.30367 -0.240495,-0.38532 -0.212785,-0.0817 -0.468622,-0.0162 -0.568527,0.14545 -0.109993,0.17797 -0.06115,0.21944 0.123818,0.10512 0.168005,-0.10383 0.305464,-0.0488 0.305464,0.12227 0,0.18079 -0.221601,0.25311 -0.529167,0.17268 -0.291041,-0.0761 -0.529166,-0.022 -0.529166,0.12036 0,0.14232 0.317033,0.22047 0.704519,0.17367 0.845661,-0.10212 1.13943,0.45933 0.368379,0.70405 -0.299053,0.0949 -0.543732,0.35017 -0.543732,0.56723 0,0.21706 -0.119062,0.32108 -0.264583,0.23114 -0.145521,-0.0899 -0.264583,-0.0374 -0.264583,0.11668 0,0.34626 0.273774,0.35165 0.79375,0.0156 z m -3.452434,-1.91823 c -0.14321,-0.32742 -0.331854,-0.80367 -0.419208,-1.05833 -0.213868,-0.62349 -0.504418,-0.58579 -0.553957,0.0719 -0.02216,0.29419 0.06807,0.46791 0.200522,0.38606 0.132447,-0.0819 0.316743,0.15369 0.409545,0.52345 0.0928,0.36975 0.27105,0.67228 0.396105,0.67228 0.125056,0 0.110203,-0.2679 -0.03301,-0.59532 z"
         id="path34408" />
      <path
         style="fill:#50714b;stroke-width:1.67342"
         d="m 23.484543,315.70662 c 1.134438,-0.0497 2.920375,-0.0494 3.96875,6.7e-4 1.048375,0.0501 0.120199,0.0908 -2.062614,0.0904 -2.182812,-3.7e-4 -3.040573,-0.0414 -1.906136,-0.0911 z"
         id="path33028" />
      <path
         style="fill:#4e5f39;stroke-width:1.67342"
         d="m 38.369445,286.36477 c -0.347712,-1.38539 -1.155809,-2.20757 -2.215012,-2.25361 l -0.974171,-0.0423 0.888846,-0.10888 c 0.65564,-0.0803 1.052784,0.0451 1.513676,0.47813 0.610558,0.57359 1.347391,2.27142 1.095206,2.52361 -0.06979,0.0698 -0.208632,-0.19882 -0.308545,-0.59691 z"
         id="path34393" />
      <path
         style="fill:#4e5f39;stroke-width:1.67342"
         d="m 29.210918,288.45154 c 0.87842,-1.15444 2.595634,-2.6648 3.65424,-3.21404 0.973549,-0.50511 0.677933,-0.14977 -0.529167,0.63607 -0.618463,0.40263 -1.767372,1.40072 -2.553131,2.21797 -1.204963,1.25326 -1.294514,1.30963 -0.571942,0.36 z"
         id="path34392" />
      <path
         style="fill:#4e5f39;stroke-width:1.67342"
         d="m 38.838957,289.57746 c 0.0012,-1.01865 0.049,-1.40294 0.106272,-0.85399 0.05728,0.54894 0.05632,1.38238 -0.0021,1.85208 -0.05845,0.4697 -0.105312,0.0206 -0.104138,-0.99809 z"
         id="path34391" />
      <path
         style="fill:#4e5f39;stroke-width:1.67342"
         d="m 37.148562,296.14469 c 0.295251,-0.60813 0.778711,-1.91781 1.074354,-2.91042 0.298266,-1.0014 0.487644,-1.39253 0.425453,-0.87868 -0.139996,1.15669 -1.084453,3.69841 -1.628072,4.38145 -0.249954,0.31406 -0.200162,0.0841 0.128265,-0.59235 z"
         id="path34390" />
      <path
         style="fill:#4e5f39;stroke-width:1.67342"
         d="m 26.169653,295.53059 c 0.09748,-1.8766 0.890852,-4.24982 1.769003,-5.29167 l 0.557528,-0.66146 -0.428754,0.71903 c -0.811216,1.36043 -1.537448,3.51765 -1.762063,5.2341 l -0.225053,1.71979 z"
         id="path34389" />
      <path
         style="fill:#4e5f39;stroke-width:1.67342"
         d="m 13.137583,295.63774 c -0.06072,-1.95725 0.376017,-2.50569 1.95518,-2.45529 l 1.0375,0.0331 -1.129736,0.18381 c -0.621355,0.10109 -1.239895,0.29455 -1.374535,0.4299 -0.134639,0.13535 -0.288354,0.96047 -0.341589,1.8336 l -0.09679,1.5875 z"
         id="path34388" />
      <path
         style="fill:#4e5f39;stroke-width:1.67342"
         d="m 23.028367,298.43498 c -0.904598,-1.85167 -1.639824,-2.60502 -3.592795,-3.68138 -0.799274,-0.44051 -1.334163,-0.80197 -1.188642,-0.80324 0.584241,-0.005 3.004804,1.59949 3.829097,2.53831 0.818214,0.93189 2.021315,3.20157 1.809404,3.41348 -0.05184,0.0518 -0.43752,-0.60838 -0.857064,-1.46717 z"
         id="path34387" />
      <path
         style="fill:#4e5f39;stroke-width:1.67342"
         d="m 31.6149,302.98905 c 0.510775,-0.76939 3.576953,-4.24469 4.71294,-5.3418 0.814972,-0.78708 -0.274643,0.59492 -1.668856,2.11667 -0.733286,0.80036 -1.849022,2.05052 -2.479412,2.77812 -0.656644,0.75791 -0.897812,0.94883 -0.564672,0.44701 z"
         id="path34386" />
      <path
         style="fill:#4e5f39;stroke-width:1.67342"
         d="m 25.787554,301.88059 c 0,-1.21268 0.07042,-2.13444 0.156493,-2.04837 0.191676,0.19167 0.175469,3.92126 -0.01788,4.11461 -0.07624,0.0762 -0.138613,-0.85357 -0.138613,-2.06624 z"
         id="path34385" />
      <path
         style="fill:#4e5f39;stroke-width:1.67342"
         d="m 16.886903,302.4759 c -1.625671,-1.55583 -3.270182,-3.63091 -3.270182,-4.1264 0,-0.15217 0.33777,0.25264 0.7506,0.8996 0.41283,0.64695 1.605687,1.97995 2.650793,2.96221 1.045106,0.98227 1.800799,1.78594 1.679317,1.78594 -0.121481,0 -0.936219,-0.68461 -1.810528,-1.52135 z"
         id="path34384" />
      <path
         style="fill:#4e5f39;stroke-width:1.67342"
         d="m -2.1240931,309.06233 c 0.5004839,-0.59179 2.25198273,-1.63885 2.69954561,-1.6138 0.11493789,0.006 -0.267272,0.25829 -0.8493553,0.55969 -0.5820833,0.3014 -1.35513771,0.80215 -1.71789871,1.11278 l -0.6595654,0.56479 z"
         id="path34383" />
      <path
         style="fill:#4e5f39;stroke-width:1.67342"
         d="m 53.964974,309.47283 c -0.43695,-0.46495 -1.032263,-0.99663 -1.322917,-1.1815 -0.455093,-0.28947 -0.436628,-0.29393 0.132996,-0.0322 0.822301,0.3779 1.559273,1.01178 1.885899,1.62209 0.342931,0.64077 0.225007,0.57157 -0.695978,-0.40844 z"
         id="path34382" />
      <path
         style="fill:#4e5f39;stroke-width:1.67342"
         d="m 24.337105,310.01652 c -0.06101,-0.1819 -0.242375,-0.86651 -0.403037,-1.52135 -0.617331,-2.51619 -1.437071,-4.72518 -2.675532,-7.2099 -0.70719,-1.41883 -1.21499,-2.57968 -1.128444,-2.57968 0.49678,0 2.444719,1.92061 3.317474,3.27093 1.063057,1.64475 1.17991,1.59253 0.736842,-0.32929 -0.147012,-0.63767 -0.213887,-1.21281 -0.148612,-1.27808 0.06527,-0.0653 0.317988,0.77716 0.561584,1.87208 0.307021,1.38 0.577825,2.0265 0.882684,2.10728 0.40443,0.10716 0.403917,0.11899 -0.0064,0.14722 -0.410142,0.0282 -0.402111,0.18556 0.09948,1.94892 0.300102,1.05502 0.628591,2.27541 0.729974,2.71198 0.16092,0.69292 0.209742,0.5921 0.38436,-0.79375 0.271778,-2.15695 1.075285,-5.72066 1.759837,-7.80521 0.494151,-1.50476 2.378267,-5.4713 2.953426,-6.21771 1.193622,-1.54903 2.059716,-2.51444 2.059716,-2.29593 0,0.14723 -0.247212,0.8431 -0.549361,1.54639 -1.809304,4.21138 -3.024027,8.62237 -3.555905,12.91247 -0.215957,1.74191 -0.39265,3.31949 -0.39265,3.50573 0,0.47489 -4.466266,0.48252 -4.625449,0.008 z"
         id="path34381" />
      <path
         style="fill:#4e5f39;stroke-width:1.67342"
         d="m 23.484543,315.70662 c 1.134438,-0.0497 2.920375,-0.0494 3.96875,6.7e-4 1.048375,0.0501 0.120199,0.0908 -2.062614,0.0904 -2.182812,-3.7e-4 -3.040573,-0.0414 -1.906136,-0.0911 z"
         id="path33027" />
      <path
         style="fill:#395e41;stroke-width:1.67342"
         d="m 37.601895,284.83946 c -0.299254,-0.45672 -0.728278,-0.6848 -1.424902,-0.75753 l -0.996731,-0.10406 0.946067,-0.0445 c 0.703177,-0.0331 1.105353,0.12507 1.566494,0.61593 0.341236,0.36323 0.556712,0.72414 0.478836,0.80201 -0.07788,0.0779 -0.334269,-0.15247 -0.569764,-0.51188 z"
         id="path34366" />
      <path
         style="fill:#395e41;stroke-width:1.67342"
         d="m 29.199954,288.46539 c 0.97708,-1.28477 4.260516,-3.94467 4.260516,-3.45144 0,0.0702 -0.506015,0.45699 -1.124479,0.85962 -0.618463,0.40263 -1.767372,1.40072 -2.553131,2.21797 -1.17879,1.22604 -1.280736,1.29143 -0.582906,0.37385 z"
         id="path34365" />
      <path
         style="fill:#395e41;stroke-width:1.67342"
         d="m 38.836823,289.44517 c 0,-0.94589 0.04802,-1.33284 0.106712,-0.8599 0.05869,0.47295 0.05869,1.24685 0,1.71979 -0.05869,0.47295 -0.106712,0.086 -0.106712,-0.85989 z"
         id="path34364" />
      <path
         style="fill:#395e41;stroke-width:1.67342"
         d="m 26.322301,294.16507 c -0.0089,-0.70079 1.027508,-3.20286 1.62629,-3.92615 l 0.547593,-0.66146 -0.476071,0.79124 c -0.261839,0.43519 -0.749706,1.56628 -1.084151,2.51355 -0.334444,0.94726 -0.610591,1.52453 -0.613661,1.28282 z"
         id="path34363" />
      <path
         style="fill:#395e41;stroke-width:1.67342"
         d="m 37.724682,295.00142 c -0.0068,-0.0728 0.222615,-0.9062 0.509718,-1.85208 0.352938,-1.16279 0.47107,-1.37972 0.364741,-0.66978 -0.133424,0.89085 -0.837385,2.92101 -0.874459,2.52186 z"
         id="path34362" />
      <path
         style="fill:#395e41;stroke-width:1.67342"
         d="m 13.137583,295.64965 c -0.04776,-1.52808 0.220399,-2.23573 0.847208,-2.23573 0.14423,0 0.06539,0.14883 -0.17521,0.33073 -0.298769,0.22588 -0.466695,0.83399 -0.529708,1.91823 l -0.09226,1.5875 z"
         id="path34361" />
      <path
         style="fill:#395e41;stroke-width:1.67342"
         d="m 23.132126,298.62807 c -0.358525,-0.75655 -1.003693,-1.79274 -1.433707,-2.30265 l -0.781844,-0.92713 0.812631,0.74323 c 0.777552,0.71115 2.398794,3.51806 2.166286,3.75057 -0.06133,0.0613 -0.404842,-0.50748 -0.763366,-1.26402 z"
         id="path34360" />
      <path
         style="fill:#395e41;stroke-width:1.67342"
         d="m 16.412254,301.91701 c -0.994227,-0.99861 -1.928448,-2.04041 -2.076047,-2.3151 -0.147598,-0.2747 -0.217584,-0.43992 -0.155523,-0.36716 0.06206,0.0728 1.052766,1.11456 2.201569,2.31511 2.527854,2.64171 2.548712,2.89697 0.03,0.36715 z"
         id="path34359" />
      <path
         style="fill:#395e41;stroke-width:1.67342"
         d="m 24.547029,310.02691 c -0.145328,-0.18761 -0.470156,-1.11502 -0.721838,-2.06091 -0.673694,-2.5319 -1.377834,-4.35163 -2.687471,-6.94531 -0.642937,-1.27331 -1.097268,-2.3151 -1.009624,-2.3151 0.498535,0 2.445082,1.91808 3.31947,3.27093 1.063057,1.64475 1.17991,1.59253 0.736842,-0.32929 -0.147012,-0.63767 -0.217021,-1.20967 -0.155575,-1.27112 0.06145,-0.0614 0.307556,0.81747 0.546911,1.95315 0.239355,1.13568 0.630207,2.77924 0.868558,3.65237 0.238352,0.87312 0.574527,2.12104 0.747055,2.77315 l 0.313689,1.18565 0.191235,-1.58253 c 0.456121,-3.77451 1.788599,-8.47058 3.185485,-11.22663 0.690556,-1.36247 1.947609,-3.4279 2.262433,-3.71735 0.07914,-0.0728 0.407675,-0.47577 0.73008,-0.89558 0.73404,-0.9558 0.746924,-0.58075 0.03683,1.07208 -1.842342,4.28828 -3.189245,9.12243 -3.570851,12.81609 -0.09613,0.93048 -0.253164,2.16803 -0.348963,2.75012 l -0.174178,1.05833 -2.002928,0.0765 c -1.399073,0.0535 -2.082589,-0.0263 -2.26716,-0.26459 z"
         id="path34358" />
      <path
         style="fill:#335536;stroke-width:1.67342"
         d="m 29.624012,287.88126 c 0.552692,-0.63822 2.513542,-2.26138 2.513542,-2.08066 0,0.0572 -0.684609,0.68628 -1.521354,1.39789 -0.836745,0.7116 -1.283229,1.01885 -0.992188,0.68277 z"
         id="path34346" />
      <path
         style="fill:#335536;stroke-width:1.67342"
         d="m 38.836823,289.44517 c 0,-0.94589 0.04802,-1.33284 0.106712,-0.8599 0.05869,0.47295 0.05869,1.24685 0,1.71979 -0.05869,0.47295 -0.106712,0.086 -0.106712,-0.85989 z"
         id="path34345" />
      <path
         style="fill:#335536;stroke-width:1.67342"
         d="m 24.578753,309.95038 c -0.188362,-0.14552 -0.39708,-0.63446 -0.463817,-1.08654 -0.204331,-1.38411 -1.480765,-4.87123 -2.713154,-7.41213 -1.309305,-2.69948 -1.402397,-3.03802 -0.64755,-2.3549 0.28761,0.26029 0.467485,0.56295 0.399722,0.6726 -0.06776,0.10964 0.04056,0.18302 0.240719,0.16307 0.331799,-0.0331 1.257932,0.97305 2.276215,2.47281 1.020103,1.50244 1.014281,1.49822 0.911563,0.66089 -0.05321,-0.4338 0.02504,-0.25294 0.173891,0.40191 0.429313,1.88863 0.801685,3.22982 1.195212,4.30483 0.200842,0.54865 0.365167,1.24028 0.365167,1.53697 0,0.29668 0.119062,0.46584 0.264583,0.3759 0.145521,-0.0899 0.264583,-0.74668 0.264583,-1.45944 0,-1.8096 1.615234,-7.91634 2.754938,-10.41564 0.773224,-1.69564 3.396921,-5.71971 3.729252,-5.71971 0.04625,0 -0.274338,0.92274 -0.712428,2.05052 -1.991231,5.12607 -2.961757,8.8206 -3.387215,12.89422 -0.166942,1.5984 -0.365962,2.96762 -0.442267,3.0427 -0.254363,0.25029 -3.861732,0.14054 -4.209414,-0.12806 z"
         id="path34344" />
      <path
         style="fill:#2d5132;stroke-width:1.67342"
         d="m 32.018588,293.7447 c 1.423844,-1.7839 1.521811,-1.87366 1.155065,-1.05834 -0.180009,0.40019 -0.423503,0.72761 -0.541098,0.72761 -0.117596,0 -0.146784,0.20836 -0.06486,0.46302 0.106238,0.33025 0.07908,0.36603 -0.09471,0.12478 -0.182867,-0.25385 -0.31969,-0.17135 -0.548453,0.33073 -0.16764,0.36793 -0.440759,0.66897 -0.606929,0.66897 -0.16617,0 0.149272,-0.56555 0.700985,-1.25677 z"
         id="path34321" />
      <path
         style="fill:#2d5132;stroke-width:1.67342"
         d="m 29.693138,301.93225 c -0.08364,-0.31983 -0.04411,-0.51479 0.08784,-0.43324 0.131949,0.0815 0.239908,-0.0969 0.239908,-0.39651 0,-0.29963 -0.126089,-0.54478 -0.280198,-0.54478 -0.154109,0 -0.195244,0.13746 -0.09141,0.30546 0.117905,0.19078 0.07248,0.23358 -0.120993,0.11401 -0.38419,-0.23744 -0.138751,-0.68405 0.375926,-0.68405 0.410232,0 0.480577,0.84179 0.142531,1.70562 -0.192327,0.49146 -0.208485,0.48842 -0.353604,-0.0665 z"
         id="path34320" />
      <path
         style="fill:#2d5132;stroke-width:1.67342"
         d="m 24.069908,307.96952 c -0.08876,-0.14361 -0.517866,-1.28996 -0.953576,-2.54744 -0.435711,-1.25749 -1.033269,-2.75887 -1.327906,-3.33641 -0.294637,-0.57753 -0.467866,-1.1179 -0.384954,-1.20081 0.08291,-0.0829 0.150749,-0.0568 0.150749,0.058 0,0.11484 0.170291,0.0675 0.378423,-0.10527 0.304577,-0.25278 0.436504,-0.19456 0.676055,0.29833 0.272741,0.56118 0.265345,0.57235 -0.08844,0.13354 -0.21626,-0.26823 -0.455808,-0.36602 -0.544621,-0.22231 -0.235145,0.38047 0.11909,1.12226 0.440938,0.92335 0.174903,-0.1081 0.197549,-0.0419 0.06116,0.17877 -0.162318,0.26264 -0.09172,0.30252 0.281784,0.15919 0.274097,-0.10518 0.416881,-0.10976 0.317296,-0.0102 -0.09959,0.0996 -0.05962,0.4333 0.08881,0.74159 0.262316,0.54484 0.258352,0.54615 -0.141601,0.0469 -0.347158,-0.43332 -0.411471,-0.4461 -0.411471,-0.0818 0,0.2375 0.148828,0.5247 0.330729,0.63822 0.521254,0.3253 1.256771,0.37666 1.256771,0.0878 0,-0.14461 -0.126089,-0.26292 -0.280198,-0.26292 -0.154109,0 -0.197164,-0.13436 -0.09568,-0.29857 0.12395,-0.20055 0.271501,-0.14313 0.449497,0.17493 0.198371,0.35447 0.155915,0.55324 -0.168905,0.79075 -0.238635,0.1745 -0.432059,0.48273 -0.429831,0.68497 0.0033,0.29604 0.05876,0.29035 0.284726,-0.0292 0.249489,-0.35278 0.267413,-0.35278 0.161314,0 -0.06565,0.21828 -0.267914,0.36224 -0.449478,0.31991 -0.206547,-0.0481 -0.268446,0.0837 -0.165364,0.35237 0.09061,0.23613 0.166574,0.62796 0.168802,0.87072 0.0026,0.28577 0.07258,0.3351 0.198438,0.13993 0.138283,-0.21445 0.306429,-0.18082 0.582593,0.11651 0.344062,0.37043 0.33654,0.39813 -0.06615,0.2436 -0.515228,-0.19771 -0.582713,0.13316 -0.180462,0.88477 0.277223,0.518 0.1581,0.73212 -0.139455,0.25066 z"
         id="path34319" />
      <path
         style="fill:#2d5132;stroke-width:1.67342"
         d="m 25.659418,307.98492 c -0.09817,-0.44697 -0.295121,-0.81267 -0.437668,-0.81267 -0.142547,0 -0.174221,0.13746 -0.07039,0.30547 0.121695,0.1969 0.07204,0.2333 -0.13973,0.10242 -0.197486,-0.12205 -0.232431,-0.29912 -0.08761,-0.44394 0.269904,-0.2699 0.116034,-1.81603 -0.180731,-1.81603 -0.104751,0 -0.190456,-0.1786 -0.190456,-0.39688 0,-0.21828 0.0355,-0.39687 0.07888,-0.39687 0.330399,0 1.570542,3.90682 1.319752,4.15761 -0.06246,0.0625 -0.19388,-0.25214 -0.292051,-0.69911 z"
         id="path34318" />
      <path
         style="fill:#2d5132;stroke-width:1.67342"
         d="m 26.456327,310.14971 c -1.047771,-0.0533 -1.931909,-0.23098 -2.046469,-0.4112 -0.301463,-0.47424 -0.251785,-1.30052 0.06637,-1.10389 0.151895,0.0939 0.471843,0.0116 0.710996,-0.18282 0.376603,-0.30617 0.411589,-0.29151 0.261297,0.10951 -0.09544,0.25467 -0.06194,0.46302 0.07445,0.46302 0.136386,0 0.182461,0.20836 0.102388,0.46303 -0.124309,0.39534 -0.08442,0.38795 0.272888,-0.0506 0.366921,-0.45032 0.418474,-0.45847 0.418474,-0.0661 0,0.24609 0.119062,0.44744 0.264583,0.44744 0.145521,0 0.264583,-0.53704 0.264583,-1.19342 0,-2.09346 1.758059,-9.10781 2.452936,-9.78678 0.183738,-0.17954 0.208415,-0.0945 0.07677,0.26458 -0.106706,0.29104 -0.240811,0.76729 -0.298011,1.05833 -0.0572,0.29105 -0.21993,0.7673 -0.361622,1.05834 -0.141692,0.29104 -0.377531,1.00541 -0.524087,1.5875 -0.240436,0.95494 -0.228731,1.00816 0.119816,0.54474 0.212456,-0.28248 0.386283,-0.38028 0.386283,-0.21734 0,0.16294 -0.162886,0.45914 -0.361968,0.65823 -0.387346,0.38734 -0.683827,1.16313 -0.811833,2.12427 -0.04353,0.32684 -0.167158,0.80262 -0.27473,1.05728 -0.241055,0.57067 -0.0037,1.25677 0.43481,1.25677 0.249742,0 0.25315,-0.0726 0.0146,-0.3112 -0.210788,-0.21079 -0.225636,-0.41431 -0.04601,-0.63074 0.145854,-0.17574 0.281573,-0.75533 0.301597,-1.28798 0.02003,-0.53264 0.120715,-0.83203 0.223758,-0.66531 0.103042,0.16673 0.0973,0.70243 -0.01277,1.19045 -0.132759,0.58863 -0.09908,0.92134 0.10007,0.98843 0.384536,0.12955 -0.277307,0.98094 -0.762552,0.98094 -0.192685,0 -0.320182,0.2826 -0.298332,0.66127 0.03046,0.52787 0.171597,0.65512 0.699615,0.63077 0.448334,-0.0207 0.512271,-0.0695 0.198437,-0.15151 -0.254661,-0.0666 -0.463021,-0.2181 -0.463021,-0.33678 0,-0.11869 0.20836,-0.19925 0.463021,-0.17904 0.254662,0.0202 0.466168,-0.14185 0.470014,-0.36013 0.0038,-0.21828 0.08991,-0.52909 0.191245,-0.6907 0.101338,-0.1616 0.104667,-0.37341 0.0074,-0.47068 -0.34334,-0.34334 -0.28079,-0.9206 0.116261,-1.07296 0.346208,-0.13285 0.375568,0.0941 0.211561,1.63535 -0.197068,1.85195 -0.303976,2.22289 -0.615218,2.13467 -0.100552,-0.0285 -1.012968,-0.0941 -2.027591,-0.14572 z"
         id="path34317" />
      <path
         style="fill:#2b4d31;stroke-width:1.67342"
         d="m 27.667183,304.03797 c -0.04895,-0.63281 0.795874,-3.21572 1.051802,-3.21572 0.150776,0 0.147102,0.18158 -0.0094,0.46302 -0.141581,0.25466 -0.42785,1.05834 -0.636153,1.78594 -0.208302,0.7276 -0.391128,1.16265 -0.406279,0.96676 z"
         id="path34103" />
      <path
         style="fill:#2b4d31;stroke-width:1.67342"
         d="m 27.705783,310.13726 c -0.745919,-0.0764 -0.85512,-0.18234 -0.823864,-0.79896 0.03161,-0.62357 0.05011,-0.63776 0.150694,-0.11553 0.152405,0.79127 1.665358,0.88141 1.665358,0.0992 0,-0.27285 0.07812,-0.88668 0.173592,-1.36406 0.12379,-0.61895 0.08671,-0.81426 -0.129261,-0.68079 -0.196166,0.12124 -0.247346,0.0425 -0.145285,-0.22344 0.08666,-0.22584 0.256054,-0.41062 0.376424,-0.41062 0.256698,0 0.0454,3.2423 -0.224496,3.4448 -0.100796,0.0756 -0.570219,0.0978 -1.043162,0.0494 z"
         id="path34102" />
    </g>
  </g>
</svg>
