<?xml version="1.0" encoding="UTF-8" standalone="no"?>
<!-- Created with Inkscape (http://www.inkscape.org/) -->

<svg
   width="185"
   height="185"
   viewBox="0 0 48.947914 48.947918"
   version="1.1"
   id="svg1"
   xmlns="http://www.w3.org/2000/svg"
   xmlns:svg="http://www.w3.org/2000/svg">
  <defs
     id="defs1" />
  <g
     id="g13804"
     transform="matrix(0.45298259,0,0,0.45298259,13.8787,-14.061541)"
     style="stroke-width:2.20759">
    <path
       style="fill:#d8b38b;stroke-width:2.20759"
       d="m -2.9538788,140.23319 c 0,-1.07491 3.13689028,-4.51058 5.7277971,-6.27335 5.4880595,-3.73389 11.9227667,-5.70964 19.7383477,-6.06056 0.10914,-0.005 0.198437,-1.17616 0.198437,-2.60279 0,-2.24256 -0.09039,-2.77527 -0.667344,-3.93307 -0.926546,-1.85934 -1.449577,-2.2917 -2.355585,-1.94723 -1.675033,0.63684 -4.248979,-0.10586 -6.221921,-1.79531 -0.8544,-0.73163 -0.882967,-0.80715 -0.463832,-1.22629 0.278448,-0.27845 0.646219,-0.3833 0.976621,-0.27843 0.644224,0.20447 0.694565,-0.19686 0.08717,-0.69495 -0.806399,-0.6613 -2.732195,-3.45541 -2.732195,-3.96411 0,-0.44104 0.2108,-0.49998 1.785938,-0.49938 1.568308,6e-4 1.971325,0.11247 3.307291,0.91806 l 1.521354,0.91738 v -1.18264 c 0,-1.40681 0.413385,-1.53896 1.479401,-0.47294 0.961059,0.96106 1.613021,2.54099 1.836161,4.44967 0.105073,0.89876 0.386138,1.81708 0.647839,2.11666 0.254237,0.29105 0.59395,0.7673 0.75492,1.05834 0.220389,0.39847 0.294658,-1.08345 0.300717,-6.00037 0.0091,-7.38688 0.161189,-6.85163 -2.292308,-8.06735 -0.831324,-0.41192 -2.213652,-1.45614 -3.071838,-2.32049 -1.43748,-1.4478 -1.523007,-1.59883 -1.086212,-1.91823 0.973541,-0.711867 3.982101,-0.19986 5.176365,0.88093 0.534845,0.48403 0.534862,0.48392 0.05128,-0.35868 -0.26606,-0.46358 -0.946029,-1.102695 -1.511045,-1.420252 C 19.201639,98.977881 17.569617,97.357323 16.959554,96.306877 16.502538,95.51996 15.30237,91.605052 15.30237,90.9012 c 0,-0.801128 0.789587,-0.757679 2.334136,0.128442 3.482705,1.998056 4.816497,3.804788 5.447386,7.378939 0.22931,1.2991 0.450714,2.897779 0.492008,3.552629 l 0.07508,1.19062 0.19132,-0.99219 c 0.105225,-0.5457 0.253749,-1.3956 0.330053,-1.88866 0.0763,-0.493057 0.406894,-1.296729 0.734646,-1.785934 0.694097,-1.036015 2.997114,-2.66636 3.604145,-2.551436 1.154035,0.218482 0.353445,3.45149 -1.558133,6.29218 -1.68125,2.49841 -2.126361,3.9246 -2.312126,7.40833 l -0.14814,2.77813 0.918756,-1.32292 c 1.253759,-1.80528 2.817624,-2.73035 5.075266,-3.00214 l 1.802471,-0.217 -0.170357,1.06536 c -0.38447,2.40434 -2.740568,5.28408 -5.444117,6.65407 -2.024146,1.02572 -1.979687,0.86889 -1.979687,6.98328 v 5.44976 l 2.116667,0.16612 c 5.909868,0.46382 11.707399,2.40566 16.536457,5.53876 2.849357,1.84867 6.35,5.47892 6.35,6.58511 0,0.19205 -8.121404,0.27772 -26.32604,0.27772 -21.9241142,0 -26.3260408,-0.0597 -26.3260408,-0.35718 z"
       id="path13784" />
    <path
       style="fill:#e59562;stroke-width:2.20759"
       d="m -2.9538788,140.21083 c 0,-0.20875 0.6960659,-1.25547 1.5468131,-2.32604 4.1860832,-5.26775 12.6879947,-9.12845 21.3396437,-9.6903 l 2.645834,-0.17183 v -3.08022 -3.08023 l -0.905777,-1.2854 c -0.498177,-0.70697 -0.937624,-1.32797 -0.976549,-1.38 -0.03893,-0.052 -0.671783,0.0594 -1.406352,0.24769 -1.155367,0.29612 -1.52341,0.28292 -2.727617,-0.0978 -0.765621,-0.24206 -1.977679,-0.92497 -2.693462,-1.51756 -1.180065,-0.97697 -1.248193,-1.09136 -0.73058,-1.22672 0.313964,-0.0821 0.516255,-0.23761 0.449535,-0.34556 -0.06672,-0.10796 0.201137,-0.13465 0.595237,-0.0593 0.679089,0.12982 0.649894,0.0628 -0.558491,-1.28117 -1.232447,-1.37078 -2.290736,-3.08619 -2.290736,-3.71313 0,-0.21048 0.590282,-0.27245 1.91823,-0.20139 1.661704,0.0889 2.116941,0.23084 3.404157,1.0613 l 1.485929,0.95866 -0.12739,-1.1302 c -0.188117,-1.66897 0.333747,-1.80965 1.565237,-0.42194 1.053996,1.18771 1.536831,2.43249 1.545845,3.98529 0.003,0.50932 0.152449,1.17819 0.332205,1.48638 0.179756,0.30818 0.590613,1.02256 0.913015,1.5875 l 0.586187,1.02716 -0.05702,-6.86777 -0.05702,-6.86776 -1.981004,-1.11384 c -1.089552,-0.61261 -2.607749,-1.7356 -3.373771,-2.49553 -1.278152,-1.26799 -1.354637,-1.41064 -0.929413,-1.73342 1.012295,-0.768421 3.606999,-0.28736 4.895125,0.90757 0.400183,0.37123 0.727605,0.57744 0.727605,0.45825 0,-0.35759 -1.084472,-1.99896 -1.320737,-1.99896 -0.466368,0 -2.947636,-2.18096 -3.596113,-3.160875 -0.741938,-1.121143 -2.004239,-5.417848 -1.770569,-6.026782 0.204133,-0.531963 1.159928,-0.239369 2.950991,0.903377 1.664145,1.061768 2.9632,2.390829 3.72385,3.809863 0.538564,1.004721 1.333227,4.977797 1.334649,6.672847 5.07e-4,0.60431 0.106775,0.94233 0.265429,0.84428 0.14552,-0.0899 0.265746,-0.66251 0.267168,-1.27239 0.0042,-1.820918 1.052615,-3.692637 2.683436,-4.790896 2.119225,-1.427169 2.37119,-1.293701 2.048386,1.085049 -0.228462,1.683549 -0.910989,3.164097 -2.324344,5.042007 -1.279705,1.70033 -1.880897,4.06082 -1.880897,7.38509 v 2.31731 l 0.859896,-1.41886 c 1.106805,-1.82628 2.930801,-2.9094 5.254261,-3.12009 l 1.618129,-0.14673 -0.185067,0.89934 c -0.503694,2.44771 -2.862527,5.40945 -5.187986,6.51403 -2.388501,1.13451 -2.353,1.03764 -2.40648,6.56644 -0.02599,2.68647 -0.05575,5.15238 -0.06614,5.4798 -0.01781,0.561 0.118346,0.60641 2.362351,0.78782 7.477868,0.60454 15.179335,3.79324 19.949078,8.25966 1.589459,1.48838 2.937379,3.21304 2.937379,3.75836 0,0.29746 -4.401927,0.35718 -26.32604,0.35718 -22.69018436,0 -26.3260408,-0.0524 -26.3260408,-0.37954 z"
       id="path13772" />
    <path
       style="fill:#9b925c;stroke-width:2.20759"
       d="m -2.9538788,140.21083 c 0,-0.20875 0.6960659,-1.25547 1.5468131,-2.32604 4.1860832,-5.26775 12.6879947,-9.12845 21.3396437,-9.6903 l 2.645834,-0.17183 v -3.08022 -3.08023 l -0.905777,-1.2854 c -0.498177,-0.70697 -0.937624,-1.32797 -0.976549,-1.38 -0.03893,-0.052 -0.671783,0.0594 -1.406352,0.24769 -1.155367,0.29612 -1.52341,0.28292 -2.727617,-0.0978 -0.765621,-0.24206 -1.977679,-0.92497 -2.693462,-1.51756 -1.180065,-0.97697 -1.248193,-1.09136 -0.73058,-1.22672 0.313964,-0.0821 0.516255,-0.23761 0.449535,-0.34556 -0.06672,-0.10796 0.201137,-0.13465 0.595237,-0.0593 0.679089,0.12982 0.649894,0.0628 -0.558491,-1.28117 -1.232447,-1.37078 -2.290736,-3.08619 -2.290736,-3.71313 0,-0.21048 0.590282,-0.27245 1.91823,-0.20139 1.661704,0.0889 2.116941,0.23084 3.404157,1.0613 l 1.485929,0.95866 -0.12739,-1.1302 c -0.188117,-1.66897 0.333747,-1.80965 1.565237,-0.42194 1.053996,1.18771 1.536831,2.43249 1.545845,3.98529 0.003,0.50932 0.152449,1.17819 0.332205,1.48638 0.179756,0.30818 0.590613,1.02256 0.913015,1.5875 l 0.586187,1.02716 -0.05702,-6.86777 -0.05702,-6.86776 -1.981004,-1.11384 c -1.089552,-0.61261 -2.607749,-1.7356 -3.373771,-2.49553 -1.278152,-1.26799 -1.354637,-1.41064 -0.929413,-1.73342 1.012295,-0.768421 3.606999,-0.28736 4.895125,0.90757 0.400183,0.37123 0.727605,0.57744 0.727605,0.45825 0,-0.35759 -1.084472,-1.99896 -1.320737,-1.99896 -0.466368,0 -2.947636,-2.18096 -3.596113,-3.160875 -0.741938,-1.121143 -2.004239,-5.417848 -1.770569,-6.026782 0.204133,-0.531963 1.159928,-0.239369 2.950991,0.903377 1.664145,1.061768 2.9632,2.390829 3.72385,3.809863 0.538564,1.004721 1.333227,4.977797 1.334649,6.672847 5.07e-4,0.60431 0.106775,0.94233 0.265429,0.84428 0.14552,-0.0899 0.265746,-0.66251 0.267168,-1.27239 0.0042,-1.820918 1.052615,-3.692637 2.683436,-4.790896 2.119225,-1.427169 2.37119,-1.293701 2.048386,1.085049 -0.228462,1.683549 -0.910989,3.164097 -2.324344,5.042007 -1.279705,1.70033 -1.880897,4.06082 -1.880897,7.38509 v 2.31731 l 0.859896,-1.41886 c 1.106805,-1.82628 2.930801,-2.9094 5.254261,-3.12009 l 1.618129,-0.14673 -0.185067,0.89934 c -0.503694,2.44771 -2.862527,5.40945 -5.187986,6.51403 -2.388501,1.13451 -2.353,1.03764 -2.40648,6.56644 -0.02599,2.68647 -0.05575,5.15238 -0.06614,5.4798 -0.01781,0.561 0.118346,0.60641 2.362351,0.78782 7.477868,0.60454 15.179335,3.79324 19.949078,8.25966 1.589459,1.48838 2.937379,3.21304 2.937379,3.75836 0,0.29746 -4.401927,0.35718 -26.32604,0.35718 -22.69018436,0 -26.3260408,-0.0524 -26.3260408,-0.37954 z"
       id="path13739" />
    <path
       style="fill:#ac6639;stroke-width:2.20759"
       d="m -2.9538788,140.21102 c 0,-0.50905 2.30740928,-3.35732 3.74141023,-4.61839 1.62949407,-1.43299 4.67461407,-3.35538 6.97713587,-4.40467 3.4185197,-1.55787 9.5781787,-2.99921 13.0939527,-3.06395 0.945885,-0.0174 2.076979,-0.12255 2.513542,-0.23364 0.788548,-0.20065 0.789131,-0.20218 0.08891,-0.23328 l -0.704836,-0.0313 -0.08891,-2.97656 c -0.08738,-2.92523 -0.104886,-2.99836 -1.014956,-4.24023 -0.869327,-1.18627 -0.982756,-1.25373 -1.852083,-1.10152 -2.223255,0.38927 -4.206802,-0.0761 -5.697869,-1.33687 -1.123583,-0.95003 -1.059272,-1.47233 0.198373,-1.61109 0.332587,-0.0367 0.634338,-0.0766 0.670556,-0.0888 0.03622,-0.0121 -0.42902,-0.52806 -1.033864,-1.14652 -1.242945,-1.27094 -2.603863,-3.28676 -2.603863,-3.85691 0,-0.30681 0.372306,-0.35598 1.935786,-0.25564 1.747551,0.11215 2.099098,0.23514 3.615275,1.26475 1.197019,0.81288 1.617436,0.99621 1.46348,0.63817 -0.358574,-0.8339 -0.467323,-2.14928 -0.191771,-2.31958 0.404698,-0.25012 1.604599,0.83524 2.188313,1.97941 0.291309,0.57101 0.637236,1.895 0.768727,2.9422 0.149231,1.18849 0.393341,2.0168 0.649583,2.20417 0.22578,0.1651 0.586245,0.70509 0.801035,1.19998 0.357622,0.82399 0.391399,0.31808 0.400882,-6.0045 0.01172,-7.81512 0.191385,-7.16488 -2.328616,-8.42792 -1.674434,-0.83924 -3.811459,-2.72755 -3.568413,-3.1531 0.09427,-0.16505 0.07396,-0.21183 -0.04512,-0.10395 -0.119082,0.10788 -0.377617,0.0624 -0.574521,-0.10098 -0.503557,-0.41792 0.303623,-1.00163 1.400534,-1.01279 1.692319,-0.0172 4.26755,1.27023 3.890814,1.94517 -0.09068,0.16246 -3.17e-4,0.14233 0.2008,-0.0447 0.57001,-0.53013 -0.149974,-1.54713 -2.007829,-2.836122 -2.490664,-1.728045 -3.795204,-4.048386 -4.264328,-7.584816 l -0.173201,-1.30565 0.763557,0.182835 c 0.883002,0.211436 3.613222,2.08853 4.642452,3.191801 1.510612,1.619283 2.089634,3.415716 2.481502,7.698922 0.09648,1.05452 0.265591,1.86157 0.375807,1.79346 0.110217,-0.0681 0.263728,-0.82231 0.341135,-1.67597 0.158863,-1.751965 0.662285,-2.890737 1.722471,-3.896333 0.648472,-0.615081 2.461572,-1.710337 2.831314,-1.710337 0.30384,0 0.12291,2.609784 -0.258118,3.72318 -0.220523,0.64439 -0.986409,1.95191 -1.701968,2.90561 -1.639477,2.1851 -2.141734,4.12842 -2.103331,8.13815 0.01786,1.86515 0.09445,2.54544 0.22496,1.9983 0.574757,-2.40953 3.615132,-4.59441 6.393357,-4.59441 1.068431,0 1.069364,9.1e-4 0.883647,0.8599 -0.52185,2.41368 -2.760898,5.18438 -5.247254,6.4932 -1.82266,0.95944 -1.857399,0.97133 -1.614745,0.55258 0.124894,-0.21553 0.112885,-0.27474 -0.02932,-0.14457 -0.132471,0.12127 -0.25114,0.29986 -0.263708,0.39688 -0.01257,0.097 -0.09297,0.35498 -0.17868,0.57326 -0.08571,0.21828 -0.208246,2.85073 -0.272309,5.84989 l -0.11648,5.45301 2.33274,0.16558 c 4.763495,0.33812 9.388606,1.65737 13.754764,3.92336 4.070884,2.11274 8.527758,5.94672 9.09672,7.82535 l 0.180296,0.59531 h -26.34387 c -22.6995186,0 -26.3438698,-0.0525 -26.3438698,-0.37935 z"
       id="path13608" />
    <path
       style="fill:#738843;stroke-width:2.20759"
       d="m -2.9538788,140.21102 c 0,-0.50905 2.30740928,-3.35732 3.74141023,-4.61839 1.62949407,-1.43299 4.67461407,-3.35538 6.97713587,-4.40467 3.4185197,-1.55787 9.5781787,-2.99921 13.0939527,-3.06395 0.945885,-0.0174 2.076979,-0.12255 2.513542,-0.23364 0.788548,-0.20065 0.789131,-0.20218 0.08891,-0.23328 l -0.704836,-0.0313 -0.08891,-2.97656 c -0.08738,-2.92523 -0.104886,-2.99836 -1.014956,-4.24023 -0.869327,-1.18627 -0.982756,-1.25373 -1.852083,-1.10152 -2.223255,0.38927 -4.206802,-0.0761 -5.697869,-1.33687 -1.123583,-0.95003 -1.059272,-1.47233 0.198373,-1.61109 0.332587,-0.0367 0.634338,-0.0766 0.670556,-0.0888 0.03622,-0.0121 -0.42902,-0.52806 -1.033864,-1.14652 -1.242945,-1.27094 -2.603863,-3.28676 -2.603863,-3.85691 0,-0.30681 0.372306,-0.35598 1.935786,-0.25564 1.747551,0.11215 2.099098,0.23514 3.615275,1.26475 1.197019,0.81288 1.617436,0.99621 1.46348,0.63817 -0.358574,-0.8339 -0.467323,-2.14928 -0.191771,-2.31958 0.404698,-0.25012 1.604599,0.83524 2.188313,1.97941 0.291309,0.57101 0.637236,1.895 0.768727,2.9422 0.149231,1.18849 0.393341,2.0168 0.649583,2.20417 0.22578,0.1651 0.586245,0.70509 0.801035,1.19998 0.357622,0.82399 0.391399,0.31808 0.400882,-6.0045 0.01172,-7.81512 0.191385,-7.16488 -2.328616,-8.42792 -1.674434,-0.83924 -3.811459,-2.72755 -3.568413,-3.1531 0.09427,-0.16505 0.07396,-0.21183 -0.04512,-0.10395 -0.119082,0.10788 -0.377617,0.0624 -0.574521,-0.10098 -0.503557,-0.41792 0.303623,-1.00163 1.400534,-1.01279 1.692319,-0.0172 4.26755,1.27023 3.890814,1.94517 -0.09068,0.16246 -3.17e-4,0.14233 0.2008,-0.0447 0.57001,-0.53013 -0.149974,-1.54713 -2.007829,-2.836122 -2.490664,-1.728045 -3.795204,-4.048386 -4.264328,-7.584816 l -0.173201,-1.30565 0.763557,0.182835 c 0.883002,0.211436 3.613222,2.08853 4.642452,3.191801 1.510612,1.619283 2.089634,3.415716 2.481502,7.698922 0.09648,1.05452 0.265591,1.86157 0.375807,1.79346 0.110217,-0.0681 0.263728,-0.82231 0.341135,-1.67597 0.158863,-1.751965 0.662285,-2.890737 1.722471,-3.896333 0.648472,-0.615081 2.461572,-1.710337 2.831314,-1.710337 0.30384,0 0.12291,2.609784 -0.258118,3.72318 -0.220523,0.64439 -0.986409,1.95191 -1.701968,2.90561 -1.639477,2.1851 -2.141734,4.12842 -2.103331,8.13815 0.01786,1.86515 0.09445,2.54544 0.22496,1.9983 0.574757,-2.40953 3.615132,-4.59441 6.393357,-4.59441 1.068431,0 1.069364,9.1e-4 0.883647,0.8599 -0.52185,2.41368 -2.760898,5.18438 -5.247254,6.4932 -1.82266,0.95944 -1.857399,0.97133 -1.614745,0.55258 0.124894,-0.21553 0.112885,-0.27474 -0.02932,-0.14457 -0.132471,0.12127 -0.25114,0.29986 -0.263708,0.39688 -0.01257,0.097 -0.09297,0.35498 -0.17868,0.57326 -0.08571,0.21828 -0.208246,2.85073 -0.272309,5.84989 l -0.11648,5.45301 2.33274,0.16558 c 4.763495,0.33812 9.388606,1.65737 13.754764,3.92336 4.070884,2.11274 8.527758,5.94672 9.09672,7.82535 l 0.180296,0.59531 h -26.34387 c -22.6995186,0 -26.3438698,-0.0525 -26.3438698,-0.37935 z"
       id="path13482" />
    <path
       style="fill:#6e833d;stroke-width:2.20759"
       d="m 18.446022,92.921277 c -0.01724,-0.194028 -0.01497,-0.488755 0.005,-0.654949 0.02001,-0.166194 -0.114707,-0.285257 -0.299381,-0.264583 -0.184673,0.02067 -0.335769,-0.06255 -0.335769,-0.184945 0,-0.122393 -0.337948,-0.399601 -0.750996,-0.616018 -0.413047,-0.216418 -0.694947,-0.449535 -0.626444,-0.518038 0.121476,-0.121476 1.867139,0.76943 2.476811,1.264051 0.168092,0.136371 0.276751,0.444651 0.241466,0.685066 -0.07886,0.537317 -0.667402,0.776976 -0.710727,0.289416 z"
       id="path13399" />
    <path
       style="fill:#6e833d;stroke-width:2.20759"
       d="m 23.898997,124.0039 c -0.245002,-4.69812 -0.282573,-4.99011 -0.631903,-4.91092 -0.40431,0.0916 -0.368732,-0.39304 0.03892,-0.53024 0.260641,-0.0877 0.26241,-0.19413 0.0083,-0.50212 -0.231658,-0.28083 -0.329733,-2.15569 -0.348506,-6.66224 -0.01605,-3.85241 -0.122328,-6.21197 -0.275537,-6.11728 -0.44522,0.27516 -3.908485,-1.80584 -5.202234,-3.12591 -1.226534,-1.25149 -1.245753,-1.29586 -0.730508,-1.6864 0.372481,-0.28232 0.868572,-0.3564 1.675431,-0.25016 1.291974,0.17011 2.954777,0.87986 2.954777,1.26121 0,0.13865 0.311787,0.66087 0.692861,1.16048 0.55534,0.72809 0.607856,0.90839 0.264583,0.90839 -0.235553,0 -0.426455,0.20836 -0.424226,0.46302 0.0035,0.39569 0.04134,0.40531 0.260532,0.0661 0.141064,-0.21828 0.261924,-0.27781 0.268577,-0.13229 0.0067,0.14552 0.127709,0.0665 0.269013,-0.17562 0.182176,-0.31214 0.102866,-0.79958 -0.272629,-1.67558 -0.603901,-1.40884 -0.632322,-1.55084 -0.264961,-1.3238 0.14552,0.0899 0.266406,0.008 0.268634,-0.18282 0.0029,-0.25167 0.07416,-0.23786 0.260532,0.0505 0.217226,0.33613 0.257101,0.32328 0.260532,-0.084 0.003,-0.35878 -0.128398,-0.43881 -0.517725,-0.31524 -0.975019,0.30946 -5.034473,-2.700535 -5.034473,-3.732949 0,-0.201161 -0.104618,-0.365747 -0.232484,-0.365747 -0.437851,0 -1.648108,-4.050509 -1.592516,-5.329858 0.02057,-0.473424 0.08518,-0.400632 0.268756,0.302775 0.13292,0.509323 0.29524,1.265866 0.36071,1.681208 0.179274,1.137305 0.412188,1.758375 0.659427,1.758375 0.122091,0 0.156019,0.26789 0.0754,0.595312 -0.08062,0.327422 -0.05131,0.507693 0.06514,0.400602 0.116451,-0.107091 0.201171,-0.566 0.188269,-1.019799 -0.02093,-0.736093 0.04606,-0.811798 0.621088,-0.701875 0.365088,0.06979 0.65261,-0.0043 0.663143,-0.170826 0.01023,-0.161722 0.105132,-0.07414 0.210898,0.194633 0.184387,0.46856 0.208123,0.469192 0.576716,0.01536 0.234835,-0.289144 0.255725,-0.396001 0.05369,-0.27462 -0.430191,0.25845 -0.409193,-0.103839 0.04035,-0.696217 0.327691,-0.431808 0.425387,-0.388068 1.303042,0.583391 1.801567,1.994119 2.383765,3.820565 2.703842,8.482375 0.227676,3.31601 0.238004,3.39785 0.414996,3.28846 0.08951,-0.0553 0.219242,-1.27368 0.288283,-2.70746 0.09954,-2.06722 0.249069,-2.821654 0.722313,-3.644453 0.688628,-1.197274 1.702167,-2.074808 3.043844,-2.635396 l 0.942182,-0.393669 -0.0015,1.12803 c -0.0023,1.79397 -0.458709,2.990653 -2.00844,5.266578 -1.028392,1.51029 -1.555182,2.5997 -1.816618,3.75678 -0.332563,1.4719 -0.549461,5.1755 -0.444078,7.58279 l 0.04054,0.92604 0.34897,-0.66865 c 0.191933,-0.36776 0.423403,-0.96307 0.514377,-1.32292 0.157486,-0.62293 0.147032,-0.62967 -0.218309,-0.14067 -0.29984,0.40133 -0.383715,0.42446 -0.383715,0.10585 0,-0.45441 1.221992,-2.21624 2.040026,-2.94125 1.184383,-1.04969 5.547466,-2.00526 5.103723,-1.11777 -0.07276,0.14552 -0.366236,0.23169 -0.652169,0.19148 -0.772248,-0.10859 -3.31658,0.46933 -3.31658,0.75332 0,0.1352 -0.148829,0.21606 -0.33073,0.17968 -0.181901,-0.0364 -0.298013,0.0915 -0.258027,0.28425 0.03998,0.19271 -0.04831,0.2756 -0.19622,0.18419 -0.277975,-0.1718 -1.596273,0.98046 -1.596273,1.39522 0,0.26411 1.496059,0.2342 1.765549,-0.0353 0.0961,-0.0961 0.0061,-0.1831 -0.200098,-0.19332 -0.212221,-0.0105 -0.145266,-0.10819 0.15434,-0.22511 0.291042,-0.11357 0.529167,-0.32207 0.529167,-0.46332 0,-0.14125 0.208359,-0.46518 0.463021,-0.71984 0.254661,-0.25466 0.463021,-0.3804 0.463021,-0.27943 0,0.10097 0.201448,0.0202 0.447664,-0.17954 0.296401,-0.24043 0.381159,-0.2524 0.250841,-0.0354 -0.124518,0.20732 -0.07028,0.28235 0.147648,0.20425 0.812282,-0.2911 2.328724,-0.31225 2.326364,-0.0324 -0.0051,0.60973 -1.625548,3.09168 -2.67994,4.10483 -0.602837,0.57926 -1.807772,1.41158 -2.677634,1.84959 -0.869862,0.43801 -1.509016,0.72384 -1.420342,0.63516 0.08867,-0.0887 0.03655,-0.31144 -0.115829,-0.49505 -0.207559,-0.25009 -0.157208,-0.31457 0.200733,-0.25705 0.262782,0.0422 0.596849,0.006 0.74237,-0.0797 0.145521,-0.0861 0.487223,-0.19115 0.759338,-0.23349 0.777519,-0.12098 1.997695,-1.26414 1.759933,-1.64885 -0.1628,-0.26341 -0.233246,-0.25774 -0.334354,0.0269 -0.07045,0.19836 -0.206731,0.28841 -0.302839,0.2001 -0.276504,-0.25408 0.126766,-1.04617 0.435485,-0.85537 0.173682,0.10734 0.197728,0.0422 0.06418,-0.17389 -0.170742,-0.27627 -0.273983,-0.26291 -0.514942,0.0666 -0.227787,0.31152 -0.42062,0.34544 -0.789656,0.13892 -0.35349,-0.19783 -0.437426,-0.19098 -0.304073,0.0248 0.112843,0.18258 -0.0183,0.29804 -0.338534,0.29804 -0.287503,0 -0.582786,-0.14883 -0.656185,-0.33073 -0.08868,-0.21978 -0.14046,-0.19315 -0.15434,0.0794 -0.01149,0.22556 0.110874,0.54187 0.271917,0.70291 0.214019,0.21402 0.168286,0.28165 -0.16996,0.25136 -0.254522,-0.0228 -0.515269,0.10737 -0.579438,0.28927 -0.06417,0.1819 0.07887,0.33073 0.317867,0.33073 0.238997,0 0.359003,0.12222 0.266681,0.2716 -0.09232,0.14938 -0.36724,0.23868 -0.610928,0.19844 -0.485084,-0.0801 -0.457575,-0.29074 -0.595122,4.55705 l -0.07882,2.77812 -0.165998,-2.24896 c -0.163431,-2.21418 -0.166221,-2.19987 -0.18046,0.92604 -0.0097,2.13558 0.0542,2.87184 0.195278,2.24896 0.122994,-0.54304 0.150228,0.16824 0.06585,1.71979 -0.07914,1.45521 -0.176611,2.68286 -0.216601,2.72811 -0.03999,0.0452 -0.158462,-1.56209 -0.26327,-3.57187 z m 0.0023,-11.19477 c 0,-1.76118 -0.104476,-2.91201 -0.264583,-2.91447 -0.145521,-0.002 -0.121352,-0.0951 0.05371,-0.20637 0.175061,-0.11127 0.379163,-0.73453 0.45356,-1.38501 0.107947,-0.94383 0.09006,-1.02238 -0.08855,-0.38895 l -0.223818,0.79375 -0.0313,-0.71199 c -0.01722,-0.39159 -0.120601,-0.76716 -0.229742,-0.8346 -0.109141,-0.0674 -0.217381,1.83054 -0.240535,4.21772 -0.03044,3.13856 0.04282,4.34033 0.264584,4.34033 0.213932,1e-5 0.30668,-0.88018 0.30668,-2.91041 z m 0.955329,-8.00365 c 0.01611,-0.1819 0.0058,-0.612 -0.02283,-0.95577 -0.03265,-0.39164 0.05521,-0.55871 0.235297,-0.4474 0.158077,0.0977 0.287413,0.0515 0.287413,-0.10257 0,-0.39779 -0.787429,-0.34949 -0.823917,0.0505 -0.01659,0.1819 -0.06899,0.65815 -0.11644,1.05833 -0.04745,0.40018 0.02566,0.72761 0.162459,0.72761 0.136803,0 0.261911,-0.14883 0.278019,-0.33073 z m -3.536931,-1.05442 c 0.0245,-0.32526 0.169643,-0.63309 0.322536,-0.68405 0.152894,-0.051 0.202832,-0.21427 0.110975,-0.3629 -0.105371,-0.17049 -0.24948,-0.13774 -0.39045,0.0887 -0.182875,0.29381 -0.322073,0.29784 -0.766771,0.0222 -0.415733,-0.25768 -0.676112,-0.26571 -1.108714,-0.0342 -0.507892,0.27182 -0.520511,0.32769 -0.124103,0.54953 0.242703,0.13583 0.577794,0.16259 0.744647,0.0595 0.181122,-0.11194 0.231344,-0.0709 0.124631,0.10171 -0.0983,0.15907 0.03213,0.41197 0.289849,0.56201 0.66874,0.38932 0.747538,0.35943 0.7974,-0.30251 z m -2.290591,-1.11443 c 0.133092,0.0823 0.241985,0.0164 0.241985,-0.14626 0,-0.16269 0.119063,-0.22223 0.264583,-0.13229 0.145521,0.0899 0.264584,0.0474 0.264584,-0.0946 0,-0.14198 0.327422,-0.37327 0.727604,-0.51397 0.652626,-0.22947 0.675948,-0.27707 0.226322,-0.46192 -0.325071,-0.13364 -0.604089,-0.0747 -0.79375,0.16764 -0.160857,0.20554 -0.695029,0.38718 -1.187048,0.40364 -0.690831,0.0231 -0.792946,-0.0269 -0.448349,-0.21979 0.354805,-0.19856 0.381348,-0.3279 0.129552,-0.6313 -0.260686,-0.31411 -0.232216,-0.34916 0.161024,-0.19826 0.334329,0.12829 0.418778,0.088 0.281374,-0.13436 -0.170171,-0.27534 -1.886867,-0.18525 -2.236499,0.11737 -0.05338,0.0462 0.363334,0.53643 0.926041,1.08938 0.562707,0.55295 1.063039,0.91533 1.111848,0.80528 0.04881,-0.11004 0.197637,-0.13278 0.330729,-0.0505 z m 7.78261,-0.94001 c 0.225755,-0.43656 0.350932,-0.79375 0.278172,-0.79375 -0.07276,0 -0.317,0.35719 -0.542756,0.79375 -0.225755,0.43657 -0.350932,0.79375 -0.278172,0.79375 0.07276,0 0.317,-0.35718 0.542756,-0.79375 z m -6.869222,-0.58321 c 0.08665,-0.0867 0.04406,-0.22769 -0.09465,-0.31342 -0.138714,-0.0857 -0.391405,0.0119 -0.561536,0.21684 -0.244052,0.29407 -0.224078,0.36021 0.09465,0.31343 0.22219,-0.0326 0.474881,-0.13019 0.561535,-0.21685 z m 4.978764,-1.00429 c 0.119552,-0.651513 0.0928,-0.808384 -0.09023,-0.529163 -0.14309,0.218281 -0.261986,0.684613 -0.264214,1.036283 -0.0054,0.84922 0.145061,0.63397 0.354449,-0.50712 z m -3.5335,-0.793746 c 0,-0.297057 -0.176389,-0.529167 -0.402133,-0.529167 -0.221173,0 -0.886901,-0.30602 -1.479394,-0.680045 -1.066967,-0.673547 -1.072606,-0.685514 -0.590055,-1.252212 0.416316,-0.488913 0.420291,-0.520371 0.02732,-0.216197 -0.391882,0.303327 -0.484102,0.292871 -0.62362,-0.07071 -0.229735,-0.598678 -0.614932,-0.534474 -0.455318,0.07589 0.149017,0.569842 1.102393,1.53725 2.464869,2.501147 0.509323,0.360326 0.955808,0.665334 0.992188,0.677796 0.03638,0.01246 0.06615,-0.215467 0.06615,-0.506508 z m 6.218615,-2.600829 c -0.08134,-0.08134 -0.412481,0.127732 -0.735861,0.464612 l -0.587963,0.61251 0.735861,-0.464611 c 0.404724,-0.255537 0.669307,-0.531167 0.587963,-0.612511 z m -5.301818,-0.119929 c -0.09201,-0.366593 -0.425225,-0.943395 -0.74048,-1.281782 -0.315256,-0.338387 -0.573192,-0.680485 -0.573192,-0.760219 0,-0.256419 -1.127171,-1.587241 -1.344351,-1.587241 -0.115423,0 0.132347,0.357187 0.550601,0.79375 0.418253,0.436562 0.619122,0.79375 0.446376,0.79375 -0.172747,0 -0.312261,0.208359 -0.310033,0.463021 0.0035,0.395696 0.04134,0.405314 0.260532,0.06615 0.234723,-0.363208 0.382283,-0.184524 0.28936,0.350396 -0.02084,0.119957 0.0759,0.147781 0.214969,0.06183 0.139071,-0.08595 0.327641,-0.03527 0.419045,0.112625 0.0914,0.147895 -0.0124,0.268899 -0.230686,0.268899 -0.218281,0 -0.458196,0.09922 -0.533143,0.220487 -0.206091,0.333462 0.737147,0.272534 0.960882,-0.06207 0.107946,-0.161436 0.196188,0.01324 0.198438,0.392797 0.0039,0.655011 0.245212,1.147901 0.4579,0.935213 0.05559,-0.05559 0.02579,-0.40101 -0.06622,-0.767603 z m -3.146857,-1.475969 c 0,-0.294348 -0.292741,-0.603059 -0.727466,-0.767149 l -0.727466,-0.274588 0.718017,0.754408 c 0.394909,0.414924 0.722269,0.760141 0.727466,0.767148 0.0052,0.007 0.0094,-0.208911 0.0094,-0.479819 z"
       id="path13350" />
    <path
       style="fill:#6e833d;stroke-width:2.20759"
       d="m 22.710703,124.99718 c 0,-2.87678 -0.194612,-3.64472 -1.237371,-4.88266 -0.677739,-0.8046 -0.744939,-0.82311 -2.989701,-0.82311 -2.212232,0 -2.35137,-0.0365 -3.797152,-0.99489 -1.629053,-1.07992 -1.871523,-1.51865 -0.839317,-1.51865 0.638012,0 0.785918,0.23074 0.669286,1.04411 -0.04621,0.32225 0.01244,0.32679 0.371583,0.0287 0.365515,-0.30335 0.40284,-0.29239 0.261208,0.0767 -0.193106,0.50322 0.493918,0.82711 2.342435,1.10432 1.529198,0.22931 2.287932,-0.21347 2.048587,-1.19551 -0.129831,-0.53271 -0.194317,-0.57533 -0.331283,-0.21898 -0.116951,0.30428 -0.35333,0.39456 -0.756796,0.28905 -0.446681,-0.11681 -0.54059,-0.0645 -0.393439,0.21898 0.106307,0.20482 0.01338,0.15157 -0.206499,-0.11833 -0.361754,-0.44406 -0.471858,-0.45478 -1.157453,-0.11276 -0.694386,0.3464 -0.760721,0.33745 -0.794218,-0.10723 -0.0201,-0.26687 -0.222452,-0.67111 -0.449668,-0.89833 -0.615962,-0.61596 -0.501721,-1.08863 0.314486,-1.30118 0.689144,-0.17946 0.698082,-0.20079 0.169095,-0.40342 -0.591715,-0.22666 -1.068868,-1.05197 -0.608197,-1.05197 0.149542,0 0.19779,-0.1199 0.107218,-0.26645 -0.221863,-0.35898 0.582586,-0.64472 1.009182,-0.35846 0.186906,0.12542 0.108992,0.0167 -0.173143,-0.2416 -0.282135,-0.2583 -0.437304,-0.54531 -0.344821,-0.63779 0.09248,-0.0925 0.424401,0.0593 0.737595,0.33735 0.356044,0.31606 0.526093,0.36932 0.453764,0.14212 -0.158063,-0.49649 -2.309141,-1.61734 -2.766847,-1.4417 -0.611208,0.23454 -0.416363,0.63324 0.25038,0.51234 0.34109,-0.0619 0.787574,0.007 0.992187,0.15207 0.293921,0.209 0.274816,0.23327 -0.091,0.11559 -0.356154,-0.11457 -0.463021,0.002 -0.463021,0.50421 0,0.54642 -0.127151,0.65315 -0.778135,0.65315 -1.092643,0 -1.176055,0.33234 -0.295217,1.17624 0.691235,0.66224 0.772707,0.68384 0.901442,0.23892 0.130804,-0.45206 0.137666,-0.45069 0.09057,0.0181 -0.02802,0.27898 -0.170016,0.53922 -0.315537,0.5783 -0.293071,0.0787 -2.563542,-2.51041 -2.715419,-3.09652 -0.05277,-0.20365 0.09853,-0.13215 0.336222,0.15889 0.237695,0.29104 0.542831,0.4994 0.67808,0.46302 0.13525,-0.0364 0.245909,0.06 0.245909,0.21405 0,0.15411 0.119976,0.20605 0.266613,0.11543 0.165285,-0.10216 0.115007,-0.31638 -0.132292,-0.56368 -0.35679,-0.35679 -0.519667,-0.9192 -0.430237,-1.48559 0.06057,-0.38362 -0.738894,-0.19349 -0.97724,0.23241 -0.164851,0.29458 -0.299481,0.33642 -0.425637,0.1323 -0.418609,-0.67733 0.184557,-0.89834 2.029537,-0.74366 1.586013,0.13297 2.011777,0.28569 3.048735,1.09357 0.662903,0.51647 1.304802,0.93903 1.426441,0.93903 0.12164,0 0.221163,0.17859 0.221163,0.39687 0,0.21828 0.113781,0.39688 0.252846,0.39688 0.140902,0 0.08852,-0.46577 -0.118319,-1.052 -0.321727,-0.91187 -0.350512,-1.99521 -0.06072,-2.28501 0.228952,-0.22895 1.307006,0.82804 1.931639,1.89389 0.492627,0.84061 0.717918,1.65231 0.786053,2.83207 l 0.09551,1.65375 -0.227313,-1.41641 c -0.262897,-1.63814 -0.576519,-2.09126 -1.051397,-1.51907 -0.236007,0.28437 -0.24987,0.52713 -0.04975,0.87111 0.247338,0.42514 0.27875,0.40511 0.289535,-0.18458 0.0096,-0.52537 0.06487,-0.57981 0.268577,-0.26459 0.607713,0.94037 0.167156,1.52812 -0.726804,0.96963 -0.25524,-0.15946 -0.270214,-0.0491 -0.06615,0.48768 0.330605,0.86956 0.330477,0.99639 -8e-4,0.79165 -0.372173,-0.23001 -0.314127,0.17715 0.103729,0.72761 0.484977,0.63887 1.051093,0.59598 0.877846,-0.0665 -0.07616,-0.29124 -0.03052,-0.46281 0.101433,-0.38126 0.13195,0.0816 0.239909,0.37235 0.239909,0.64621 0,0.27387 0.123835,0.57447 0.275188,0.66802 0.180451,0.11152 0.213342,-0.088 0.09554,-0.5797 -0.172259,-0.71894 -0.145491,-0.70747 0.650853,0.27879 0.456776,0.56572 0.828678,1.16103 0.82645,1.32292 -0.0022,0.16189 -0.121291,0.11575 -0.264584,-0.10253 -0.217592,-0.33146 -0.299043,-0.33713 -0.494203,-0.0344 -0.18899,0.29316 -0.286379,0.26829 -0.509322,-0.13009 -0.151608,-0.27091 -0.337638,-0.43057 -0.413401,-0.35481 -0.211718,0.21172 0.237853,0.81239 0.653714,0.87343 0.203714,0.0299 0.370389,0.17081 0.370389,0.31314 0,0.14232 -0.119063,0.21909 -0.264583,0.17058 -0.145521,-0.0485 -0.171841,0.005 -0.05849,0.1179 0.28097,0.28097 1.019663,0.37349 0.855017,0.10708 -0.07262,-0.11749 0.05038,-0.28363 0.273339,-0.36918 0.539259,-0.20694 0.801157,0.52512 0.372604,1.04149 -0.238953,0.28792 -0.319367,1.32254 -0.277356,3.56851 0.03254,1.73966 -0.0079,3.16302 -0.08995,3.16302 -0.08202,0 -0.14912,-1.18288 -0.14912,-2.62861 z m -4.968962,-9.50015 c 0.06739,0.20217 0.172576,0.22681 0.273199,0.064 0.08999,-0.14561 -0.05464,-0.40105 -0.321403,-0.56765 -0.403282,-0.25185 -0.508365,-0.21363 -0.623529,0.22675 -0.108879,0.41636 -0.06357,0.46746 0.211823,0.2389 0.257843,-0.21399 0.379259,-0.20396 0.45991,0.038 z m 2.193505,-1.89847 c 0.0914,-0.1479 0.277229,-0.20028 0.412946,-0.1164 0.135716,0.0839 -0.01308,-0.30113 -0.330668,-0.85558 -0.681323,-1.18947 -0.893709,-1.44822 -0.664572,-0.80964 0.09138,0.25466 0.05082,0.46302 -0.09014,0.46302 -0.140954,0 -0.256279,-0.22539 -0.256279,-0.50086 0,-0.27548 -0.166912,-0.56491 -0.370915,-0.6432 -0.28473,-0.10926 -0.341394,0.0532 -0.243868,0.6993 0.219351,1.45311 1.107874,2.4682 1.543492,1.76336 z"
       id="path13349" />
    <path
       style="fill:#6e833d;stroke-width:2.20759"
       d="m -2.9538788,140.21726 c 0,-0.20522 0.4732331,-0.97181 1.0516291,-1.70353 3.4084932,-4.31207 8.6350813,-7.49546 14.9556617,-9.10915 4.047315,-1.0333 5.978779,-1.28053 10.033146,-1.28424 8.242912,-0.008 15.68481,2.2876 21.561968,6.64994 2.097458,1.55684 4.580843,4.20517 4.899363,5.22478 l 0.185972,0.59531 h -26.34387 c -22.49482782,0 -26.3438698,-0.0545 -26.3438698,-0.37311 z"
       id="path13341" />
    <path
       style="fill:#61642f;stroke-width:2.20759"
       d="m 15.744721,92.200563 c -0.09777,-0.488859 -0.164722,-1.141843 -0.148778,-1.451074 0.01594,-0.309232 0.134421,-0.02646 0.263283,0.628385 0.128861,0.654844 0.195811,1.307827 0.148777,1.451074 -0.04703,0.143247 -0.165511,-0.139526 -0.263282,-0.628385 z"
       id="path13169" />
    <path
       style="fill:#61642f;stroke-width:2.20759"
       d="m 16.67864,95.421253 c -0.403057,-1.050374 -0.673212,-2.082084 -0.504288,-1.925855 0.201693,0.186535 0.975269,2.47342 0.871706,2.576983 -0.04673,0.04673 -0.212067,-0.246279 -0.367418,-0.651128 z"
       id="path13163" />
    <path
       style="fill:#61642f;stroke-width:2.20759"
       d="m 28.610822,97.198707 c 0,-0.800364 0.0496,-1.127786 0.110223,-0.727604 0.06062,0.400182 0.06062,1.055026 0,1.455208 -0.06062,0.400182 -0.110223,0.07276 -0.110223,-0.727604 z"
       id="path13156" />
    <path
       style="fill:#61642f;stroke-width:2.20759"
       d="m 28.010473,99.84454 c 0,-0.218281 0.115416,-0.575468 0.25648,-0.79375 0.227982,-0.352777 0.25648,-0.352777 0.25648,0 0,0.218282 -0.115416,0.575469 -0.25648,0.79375 -0.227983,0.35278 -0.25648,0.35278 -0.25648,0 z"
       id="path13152" />
    <path
       style="fill:#61642f;stroke-width:2.20759"
       d="m 24.312986,100.29017 c -0.0311,-1.010666 1.560083,-3.048044 2.94864,-3.775495 0.896568,-0.469703 1.024985,-0.468809 0.842835,0.0059 -0.08024,0.209093 -0.284859,0.330364 -0.454717,0.269491 -0.507385,-0.181835 -2.392049,1.71138 -2.873737,2.886777 -0.246531,0.601567 -0.45489,0.877587 -0.463021,0.613357 z"
       id="path13150" />
    <path
       style="fill:#61642f;stroke-width:2.20759"
       d="m 23.019764,100.75303 c -0.06749,-1.632454 -0.57471,-4.109199 -1.024832,-5.004193 -0.221039,-0.439499 -0.885386,-1.394401 -1.476328,-2.122005 -1.068947,-1.316152 -1.069621,-1.318399 -0.131839,-0.43943 1.817027,1.703073 3.045791,5.047702 2.78594,7.583178 l -0.108464,1.05834 z"
       id="path13149" />
    <path
       style="fill:#61642f;stroke-width:2.20759"
       d="m 26.410906,102.35619 c 1.05368,-1.26901 1.142342,-1.35085 0.854607,-0.7889 -0.149855,0.29267 -0.551382,0.76807 -0.892282,1.05644 -0.597986,0.50585 -0.596659,0.49642 0.03768,-0.26754 z"
       id="path13142" />
    <path
       style="fill:#61642f;stroke-width:2.20759"
       d="m 17.538879,102.15964 -1.045884,-1.12447 1.124479,1.04588 c 1.045755,0.97266 1.246062,1.20307 1.045884,1.20307 -0.04323,0 -0.549243,-0.50601 -1.124479,-1.12448 z"
       id="path13140" />
    <path
       style="fill:#61642f;stroke-width:2.20759"
       d="m 22.897761,103.61485 c -0.07567,-0.40018 -0.2095,-1.02526 -0.297395,-1.38906 -0.130505,-0.54016 -0.09252,-0.51591 0.207137,0.13229 0.576692,1.24746 0.75503,1.98438 0.480227,1.98438 -0.138811,0 -0.314297,-0.32743 -0.389969,-0.72761 z"
       id="path13138" />
    <path
       style="fill:#61642f;stroke-width:2.20759"
       d="m 20.120183,104.16658 c -0.624422,-0.37642 -1.081831,-0.73788 -1.016465,-0.80325 0.116981,-0.11698 2.284069,1.22191 2.284069,1.41116 0,0.1495 -0.05465,0.12329 -1.267604,-0.60791 z"
       id="path13137" />
    <path
       style="fill:#61642f;stroke-width:2.20759"
       d="m 24.095004,104.34246 c 0,-0.50933 0.05445,-0.71769 0.121,-0.46302 0.06655,0.25466 0.06655,0.67138 0,0.92604 -0.06655,0.25466 -0.121,0.0463 -0.121,-0.46302 z"
       id="path13136" />
    <path
       style="fill:#61642f;stroke-width:2.20759"
       d="m 30.383619,108.30797 c 0.491021,-0.31332 1.5875,-0.3407 1.5875,-0.0396 0,0.12194 -0.446484,0.23772 -0.992187,0.25729 -0.722951,0.0259 -0.884493,-0.0331 -0.595313,-0.21766 z"
       id="path13127" />
    <path
       style="fill:#61642f;stroke-width:2.20759"
       d="m 26.811745,109.79541 c 0.582083,-0.52094 1.167474,-0.94894 1.300868,-0.9511 0.133394,-0.002 0.192925,0.0326 0.132291,0.0773 -0.06063,0.0447 -0.646024,0.47268 -1.300868,0.9511 l -1.190625,0.86984 z"
       id="path13123" />
    <path
       style="fill:#61642f;stroke-width:2.20759"
       d="m 18.243479,112.63233 c -0.01688,-0.17 -0.107747,-0.52719 -0.201925,-0.79375 -0.132858,-0.37605 -0.09765,-0.41684 0.157104,-0.18204 0.180586,0.16644 0.271452,0.52363 0.201925,0.79375 -0.06953,0.27012 -0.140224,0.35203 -0.157104,0.18204 z"
       id="path13117" />
    <path
       style="fill:#61642f;stroke-width:2.20759"
       d="m 15.985308,112.06632 c -0.872393,-0.59822 -1.31934,-0.7111 -2.817793,-0.7117 -0.979515,-3.9e-4 -1.644025,-0.0882 -1.476687,-0.19509 0.894618,-0.57157 3.58824,-0.0239 4.802167,0.97648 1.039796,0.85683 0.794345,0.82314 -0.507687,-0.0697 z"
       id="path13116" />
    <path
       style="fill:#61642f;stroke-width:2.20759"
       d="m 24.037671,113.66902 c -0.0022,-0.32742 0.115011,-0.59531 0.260532,-0.59531 0.331503,0 0.331503,0.28078 0,0.79375 -0.2074,0.32092 -0.257255,0.28295 -0.260532,-0.19844 z"
       id="path13111" />
    <path
       style="fill:#61642f;stroke-width:2.20759"
       d="m 29.179091,113.25448 c 0.773737,-0.77373 1.653679,-1.87506 1.955426,-2.44739 0.301748,-0.57233 0.553894,-0.90374 0.560326,-0.73646 0.01854,0.48231 -1.808446,3.06454 -2.725584,3.85229 -1.399433,1.202 -1.279937,0.82133 0.209832,-0.66844 z"
       id="path13109" />
    <path
       style="fill:#61642f;stroke-width:2.20759"
       d="m 20.925344,115.5873 c 0.0029,-0.58209 0.05712,-0.78906 0.120405,-0.45994 0.06329,0.32912 0.06088,0.80537 -0.0053,1.05834 -0.06622,0.25296 -0.118003,-0.0163 -0.115066,-0.5984 z"
       id="path13100" />
    <path
       style="fill:#61642f;stroke-width:2.20759"
       d="m 23.047702,111.39281 c -0.01166,-3.61666 0.05753,-6.47416 0.153746,-6.35 0.09622,0.12415 0.105753,3.08324 0.02119,6.57574 l -0.153746,6.35 z"
       id="path13097" />
    <path
       style="fill:#61642f;stroke-width:2.20759"
       d="m 15.897683,119.02931 c -0.472943,-0.20556 -0.859896,-0.44322 -0.859896,-0.52812 0,-0.0849 0.267891,-0.0106 0.595312,0.16513 0.327422,0.17573 1.309688,0.40175 2.182813,0.50228 l 1.5875,0.18276 -1.322917,0.0259 c -0.727604,0.0142 -1.70987,-0.14234 -2.182812,-0.3479 z"
       id="path13092" />
    <path
       style="fill:#61642f;stroke-width:2.20759"
       d="m 21.40699,120.04953 c -0.301603,-0.38342 -0.54837,-0.81999 -0.54837,-0.97014 0,-0.31097 -0.02622,-0.33864 0.765157,0.80739 0.711762,1.03073 0.557225,1.14675 -0.216787,0.16275 z"
       id="path13088" />
    <path
       style="fill:#61642f;stroke-width:2.20759"
       d="m 22.647491,120.96357 c -0.165168,-0.43042 0.202292,-1.22435 0.451385,-0.97525 0.0838,0.0838 0.05081,0.42688 -0.07331,0.7624 -0.172076,0.46516 -0.261862,0.51571 -0.378079,0.21285 z"
       id="path13085" />
    <path
       style="fill:#61642f;stroke-width:2.20759"
       d="m 24.400163,118.89459 c 0,-1.81901 0.04227,-2.56315 0.09394,-1.65365 0.05166,0.90951 0.05166,2.39779 0,3.30729 -0.05167,0.90951 -0.09394,0.16537 -0.09394,-1.65364 z"
       id="path13081" />
    <path
       style="fill:#61642f;stroke-width:2.20759"
       d="m 22.766078,124.93545 c -0.03046,-1.40693 -0.123896,-2.77615 -0.207644,-3.04271 -0.140578,-0.44745 -0.129679,-0.44959 0.141948,-0.0279 0.181534,0.28184 0.26106,1.44718 0.207644,3.04271 l -0.08657,2.58593 z"
       id="path13064" />
    <path
       style="fill:#61642f;stroke-width:2.20759"
       d="m 24.12044,125.906 c 0.0012,-1.01865 0.049,-1.40295 0.106272,-0.854 0.05728,0.54895 0.05632,1.38239 -0.0021,1.85209 -0.05845,0.46969 -0.105312,0.0206 -0.104138,-0.99809 z"
       id="path13063" />
    <path
       style="fill:#61642f;stroke-width:2.20759"
       d="m -2.9538788,140.20723 c 0,-0.41081 2.2218723,-3.18876 3.55545002,-4.44529 1.43041538,-1.34777 5.13700168,-3.6611 7.50519848,-4.6841 4.5024963,-1.94495 9.4818523,-2.93739 14.8133873,-2.95247 8.204376,-0.0232 15.817829,2.29108 21.61867,6.57147 2.18581,1.61289 4.682889,4.25411 5.009062,5.29822 l 0.185972,0.59531 h -26.34387 c -22.82061954,0 -26.3438698,-0.0512 -26.3438698,-0.38314 z"
       id="path13048" />
    <path
       style="fill:#473623;stroke-width:2.20759"
       d="m 22.789989,124.18621 c 0,-0.80037 0.0496,-1.12779 0.110223,-0.72761 0.06062,0.40018 0.06062,1.05503 0,1.45521 -0.06062,0.40018 -0.110223,0.0728 -0.110223,-0.7276 z"
       id="path12847" />
    <path
       style="fill:#473623;stroke-width:2.20759"
       d="m -2.9538788,140.36271 c 0,-0.43065 1.374594,-2.28821 2.73669424,-3.69824 8.53386396,-8.83415 26.23810756,-11.17577 39.26303856,-5.19304 2.802288,1.28717 6.317871,3.66763 8.087613,5.47626 1.440041,1.47168 2.561423,2.97819 2.563746,3.44424 5.44e-4,0.10914 -11.845729,0.19844 -26.325051,0.19844 -14.5279633,0 -26.3260408,-0.10203 -26.3260408,-0.22766 z"
       id="path12840" />
  </g>
</svg>
