<?xml version="1.0" encoding="UTF-8" standalone="no"?>
<!-- Created with Inkscape (http://www.inkscape.org/) -->

<svg
   width="185"
   height="185"
   viewBox="0 0 48.947914 48.947918"
   version="1.1"
   id="svg1"
   xmlns="http://www.w3.org/2000/svg"
   xmlns:svg="http://www.w3.org/2000/svg">
  <defs
     id="defs1" />
  <g
     id="layer1">
    <g
       id="g2280"
       transform="matrix(0.67477164,0,0,0.67477164,6.9133898,-8.7501187)"
       style="display:inline;stroke-width:1.48198">
      <path
         style="fill:#f0908e;stroke-width:1.48198"
         d="m 3.5473336,85.273727 c -2.6378477,-0.348189 -7.0058267,-1.459464 -7.9854961,-2.031622 -1.5323064,-0.894915 -1.2900366,-1.177452 2.4512911,-2.858714 1.7129699,-0.769768 6.0646501,-1.324625 8.5769131,-1.093592 l 1.5875,0.145989 -1.0583333,-0.414477 C 6.5371251,78.793349 4.9297814,78.271291 3.5473336,77.861183 1.1962641,77.16373 -2.6803573,75.693421 -2.9932986,75.38048 c -0.3587902,-0.35879 0.2708807,-0.957349 1.3014865,-1.23718 1.24675783,-0.338521 5.092875,-0.15869 7.0352182,0.328943 0.6240379,0.156667 1.1908199,0.228644 1.2595156,0.159948 0.1990435,-0.199043 -5.82089159,-5.874153 -6.90597338,-6.510395 -0.44410166,-0.2604 -0.46044397,-0.338752 -0.11836454,-0.567485 1.07820074,-0.720945 3.51605352,0.345362 6.93986692,3.035469 1.2035417,0.945629 2.644447,2.04648 3.2020119,2.446336 0.5575644,0.399856 1.5398304,1.188659 2.1828124,1.752895 1.504351,1.320115 1.490986,0.947376 -0.03211,-0.895469 -3.0596144,-3.701938 -6.0300754,-8.993957 -5.0483945,-8.993957 0.5711941,0 5.7553255,3.575773 7.4320475,5.126281 0.86865,0.803263 1.623318,1.416523 1.677041,1.3628 0.167069,-0.167069 -1.439344,-3.33982 -2.883635,-5.695331 -0.758427,-1.236927 -1.958905,-3.469348 -2.66773,-4.960937 -0.7088243,-1.491588 -1.4051664,-2.711979 -1.5474265,-2.711979 -0.1422602,0 -0.2586549,-0.119062 -0.2586549,-0.264583 0,-0.145521 0.3635434,-0.264584 0.8078741,-0.264584 1.8696243,0 7.5811973,5.747179 9.5572053,9.616785 0.285864,0.559805 0.581185,0.956394 0.656271,0.881309 0.07509,-0.07509 0.01161,-1.009357 -0.141061,-2.07616 -0.410706,-2.869893 -0.566686,-6.13342 -0.312782,-6.544244 0.460277,-0.744745 1.37554,0.434143 2.68203,3.45454 0.714228,1.65118 1.487647,3.567692 1.718709,4.258916 0.479847,1.435462 0.628916,1.566505 0.601959,0.529166 -0.0104,-0.400182 0.116589,-2.096822 0.282195,-3.770312 0.165605,-1.673489 0.410646,-4.402233 0.544533,-6.063875 0.195387,-2.424889 0.344783,-3.122517 0.756948,-3.534682 0.508298,-0.508299 0.519443,-0.497766 1.097026,1.036792 1.089921,2.895764 1.64891,5.510014 1.787156,8.358072 0.07579,1.561458 0.223983,2.785755 0.329309,2.72066 0.105326,-0.06509 0.569225,-1.174305 1.030887,-2.464911 0.461661,-1.290607 1.163961,-2.750013 1.560666,-3.243125 1.505012,-1.87076 3.056694,-3.423514 3.421151,-3.423514 0.425556,0 0.383593,0.193314 -0.63176,2.910417 -0.353467,0.945885 -0.917312,2.496349 -1.252987,3.445475 -0.335676,0.949126 -0.919699,2.379659 -1.297831,3.178963 -0.747756,1.580627 -1.550548,3.733624 -1.435181,3.848991 0.03967,0.03967 0.96368,-1.132517 2.053346,-2.604869 2.235754,-3.020943 5.105064,-6.043291 6.876002,-7.24274 1.47144,-0.996601 4.175951,-2.477904 4.524071,-2.477904 0.14198,0 -0.225368,0.712006 -0.81633,1.582236 -0.590962,0.87023 -1.151173,1.792964 -1.244915,2.050521 -0.213405,0.586336 -2.16179,3.710712 -4.994417,8.008909 -1.198777,1.819011 -2.136703,3.351807 -2.084281,3.406214 0.05242,0.05441 1.023142,-0.642678 2.157155,-1.549077 4.158611,-3.323914 10.039978,-6.365174 12.577902,-6.504044 1.445485,-0.07909 1.864012,0.269307 0.868434,0.722923 -0.502221,0.228827 -0.594038,0.371737 -0.345649,0.537989 0.379981,0.254331 -0.256521,0.872974 -3.365929,3.27149 -3.065255,2.364458 -3.760369,3.009805 -3.250527,3.017804 0.249501,0.0039 1.678251,-0.230647 3.175,-0.521248 2.776304,-0.539034 6.155937,-0.692959 6.762509,-0.307999 0.673791,0.427621 -1.193868,1.543073 -7.096318,4.238248 l -3.848918,1.757492 5.039543,0.02472 c 5.260045,0.0258 7.975985,0.375617 8.540363,1.100004 0.179201,0.230007 0.59592,0.438093 0.926042,0.462414 1.065675,0.07851 0.695946,0.786584 -0.458111,0.877335 -0.582084,0.04577 -2.070365,0.306725 -3.307292,0.579895 -1.236927,0.273169 -3.479288,0.580846 -4.983024,0.683725 l -2.734066,0.187054 2.2049,0.555968 c 2.307314,0.581792 3.806029,1.304036 4.284274,2.064631 0.155737,0.247682 0.187814,0.545338 0.07128,0.661459 -0.116532,0.11612 -3.684195,0.168691 -7.928142,0.116823 -10.33308,-0.126286 -12.085677,-0.123284 -26.36939,0.04516 -6.766718,0.0798 -13.0770301,0.04293 -14.0229154,-0.08192 z"
         id="path1399" />
      <path
         style="fill:#67856d;stroke-width:1.48198"
         d="M 3.6208711,85.265939 C 1.4867323,84.99527 -2.6834802,83.951614 -4.173636,83.315251 c -1.155077,-0.49327 -1.4270254,-0.847894 -1.0232827,-1.334374 0.3645093,-0.439207 2.6206524,-1.199547 3.6345921,-1.224889 0.4092195,-0.01023 0.98216039,-0.120922 1.27320204,-0.245987 0.45678988,-0.196289 0.4206015,-0.231034 -0.26458332,-0.254032 C -1.2889605,80.23129 -1.3084596,80.206402 -0.8182912,79.918262 -0.49753761,79.729711 1.37442,79.563553 3.9346624,79.496381 L 8.1584493,79.385564 6.8450789,78.915291 C 6.1227252,78.656641 4.2092126,78.027275 2.5928287,77.5167 c -3.40375437,-1.07516 -5.6600781,-2.001933 -5.6600781,-2.324848 0,-0.398261 1.1579789,-0.999895 2.26438876,-1.176476 0.9604708,-0.153289 3.93836084,0.101838 6.85825314,0.587573 l 1.0528507,0.175145 -1.2082181,-1.168942 c -0.66452,-0.642918 -2.3567506,-2.180973 -3.7605125,-3.4179 -1.4037619,-1.236927 -2.51514556,-2.368021 -2.46974149,-2.513542 0.30404686,-0.974475 3.71955449,0.351657 5.96381529,2.315559 0.7979291,0.69825 2.0539321,1.681585 2.7911177,2.185191 0.7371856,0.503605 2.0844779,1.523838 2.9939829,2.267185 0.909505,0.743346 1.652989,1.251064 1.652186,1.12826 -8.02e-4,-0.122803 -0.751893,-1.175778 -1.66909,-2.339945 -2.9334877,-3.723376 -5.5273296,-8.334375 -4.6883659,-8.334375 0.7678627,0 5.1773369,3.017257 7.3927099,5.058586 1.083547,0.998422 2.010831,1.774567 2.060631,1.724767 0.1546,-0.154601 -1.68817,-3.717212 -3.259916,-6.302369 -1.576426,-2.592854 -3.2740921,-5.942664 -3.2740921,-6.460393 0,-0.168188 -0.1785937,-0.454016 -0.396875,-0.635174 -1.0926946,-0.906856 0.2782036,-1.09565 1.5466561,-0.212998 2.973419,2.06905 5.799062,5.171079 7.847518,8.61511 0.628033,1.055901 1.167471,1.889339 1.198751,1.852083 0.03128,-0.03726 -0.10017,-0.960706 -0.292111,-2.052112 -0.361127,-2.05343 -0.575768,-7.035116 -0.314376,-7.296507 0.584522,-0.584522 2.838825,3.54617 4.340337,7.953052 0.246988,0.724901 0.484173,1.201151 0.527077,1.058333 0.04291,-0.142818 0.205751,-1.867013 0.361882,-3.831544 0.674513,-8.487167 0.796597,-9.609145 1.083157,-9.954428 0.166298,-0.200377 0.405246,-0.364322 0.530996,-0.364322 0.776575,0 2.611998,7.196376 2.614908,10.252604 0.0011,1.200547 0.09852,2.182812 0.216394,2.182812 0.117873,0 0.487608,-0.803672 0.821632,-1.785937 0.780684,-2.295758 2.031009,-4.357404 3.695447,-6.09338 1.425859,-1.487142 2.037799,-1.764433 1.734119,-0.785786 -0.501617,1.616526 -3.052582,8.20926 -3.56543,9.214525 -0.321251,0.629704 -0.805262,1.805486 -1.075582,2.612851 l -0.491489,1.467935 0.530701,-0.661458 c 0.291886,-0.363802 1.457963,-1.852749 2.591283,-3.308771 2.271605,-2.918423 4.335752,-5.045058 6.075679,-6.259606 1.4176,-0.98955 4.254937,-2.602456 4.5781,-2.602456 0.132701,0 -0.275574,0.803672 -0.907279,1.785938 -0.631704,0.982265 -1.785155,2.8575 -2.563225,4.167187 -0.778069,1.309687 -2.360763,3.81 -3.517097,5.55625 -1.156335,1.74625 -2.16979,3.350133 -2.252123,3.564185 -0.08233,0.214052 0.749552,-0.345617 1.848633,-1.243709 1.912064,-1.562404 5.472722,-3.869499 7.793566,-5.049768 2.164794,-1.10091 3.939389,-1.636039 5.390832,-1.625606 1.440699,0.01035 1.447953,0.01439 0.727604,0.405191 -0.757148,0.41076 -0.969025,0.900053 -0.396875,0.916514 0.361819,0.01041 -0.23856,0.549125 -3.241145,2.908258 -1.091407,0.857518 -2.401094,1.928553 -2.910417,2.380076 l -0.926041,0.820953 1.455208,-0.132631 c 0.800364,-0.07295 2.348177,-0.318443 3.439583,-0.545548 2.197944,-0.457357 4.689514,-0.535332 5.274653,-0.165071 0.31048,0.196463 0.318197,0.314668 0.04225,0.647161 -0.185685,0.223736 -0.594748,0.486556 -0.909029,0.584044 -0.31428,0.09749 -0.869075,0.385833 -1.232877,0.640767 -0.363802,0.254934 -2.447396,1.267945 -4.630208,2.251134 -2.182813,0.98319 -4.001994,1.814184 -4.042625,1.846653 -0.04063,0.03247 2.042962,0.05642 4.630208,0.05323 2.764581,-0.0034 5.358612,0.130569 6.291583,0.324965 0.873125,0.181927 1.731091,0.339814 1.90659,0.350859 0.1755,0.01105 0.259928,0.115812 0.187617,0.232813 -0.07231,0.117001 0.166168,0.287433 0.529952,0.378737 0.544892,0.136759 1.536388,0.907839 1.167348,0.907839 -0.06036,0 -1.652516,0.298738 -3.538126,0.663863 -1.885609,0.365124 -4.499943,0.743376 -5.809631,0.84056 l -2.38125,0.176698 2.327457,0.587663 c 2.381192,0.60123 4.536359,1.746019 4.348427,2.309813 -0.197671,0.593014 -2.973012,0.760362 -9.189425,0.554106 -7.370439,-0.244546 -9.920602,-0.247875 -25.399999,-0.03315 -6.668484,0.0925 -12.602543,0.05823 -13.6847949,-0.07903 z"
         id="path1405" />
      <path
         style="fill:#51765f;stroke-width:1.48198"
         d="m 4.6056668,85.262428 c -2.7158575,-0.262986 -7.0621195,-1.285661 -8.6585191,-2.037347 -1.0675256,-0.502659 -1.5047695,-1.367416 -0.6845154,-1.353796 0.2637213,0.0044 0.9707271,-0.175378 1.5711239,-0.399458 0.6003968,-0.224081 1.8803186,-0.552742 2.84427066,-0.730357 C 1.4632371,80.412532 1.905777,80.097493 0.83535454,79.917581 -0.35297541,79.717852 4.4794,79.385534 6.5291293,79.526026 c 1.1578534,0.07936 2.0024135,0.04846 1.8768002,-0.06867 -0.1256133,-0.117127 -1.5976065,-0.652361 -3.271096,-1.189408 -5.72065722,-1.835842 -8.2020829,-2.775185 -8.2020829,-3.104896 0,-0.307928 0.8939334,-0.678398 1.2935996,-0.536102 0.2021569,0.07198 0.3034037,0.02612 0.2249929,-0.101898 -0.244942,-0.399911 4.5912963,-0.406403 6.5511987,-0.0088 1.0186458,0.206654 2.0902082,0.458312 2.3812499,0.55924 0.6024487,0.208917 0.5269205,0.136631 -4.3940942,-4.205479 -1.8033522,-1.591208 -3.31850956,-2.990192 -3.3670165,-3.108854 -0.2129032,-0.520825 2.0840732,-0.170223 3.3534139,0.511854 1.2908419,0.69363 5.2473559,3.814666 5.6629831,4.467158 0.2398265,0.376504 3.518746,2.804919 4.423366,3.276009 l 0.651569,0.339311 -0.494034,-0.76702 C 12.94826,75.166619 12.282092,74.285679 11.739606,73.630835 9.4593294,70.878278 6.7223334,66.332683 6.7223334,65.298164 c 0,-0.368147 0.080685,-0.370444 0.7554569,-0.02151 0.4155013,0.214864 1.5168293,0.892967 2.4473957,1.506895 1.451446,0.957571 2.608082,1.900136 6.273285,5.112219 0.476605,0.417683 0.33556,0.0091 -0.63536,-1.8406 -0.686376,-1.307604 -1.8312,-3.356351 -2.544052,-4.552771 -1.537376,-2.580262 -3.6508924,-6.967626 -3.6508924,-7.57874 0,-0.67075 0.4001869,-0.52679 2.0475664,0.736573 2.614766,2.005245 6.354217,6.231344 6.008604,6.790557 -0.182246,0.29488 0.612153,1.486279 0.867396,1.300878 0.10017,-0.07276 0.537276,0.48995 0.971347,1.250467 0.434071,0.760518 0.831918,1.340062 0.884104,1.287876 0.05219,-0.05219 -0.09854,-0.912553 -0.334951,-1.911926 -0.236408,-0.999373 -0.497899,-3.216027 -0.58109,-4.925896 -0.130174,-2.675552 -0.09503,-3.108854 0.252154,-3.108854 0.221875,0 0.532839,0.155954 0.691033,0.346565 0.399123,0.480914 2.766745,5.835546 3.328093,7.52684 0.253944,0.765113 0.572846,1.322433 0.708671,1.238489 0.135824,-0.08394 0.18577,-0.251623 0.110991,-0.372618 -0.07478,-0.120996 -0.01992,-1.571285 0.121914,-3.222864 0.141833,-1.651579 0.384096,-4.491152 0.538363,-6.310162 0.261746,-3.086316 0.600766,-4.497917 1.080253,-4.497917 0.723699,0 2.620134,7.755795 2.620134,10.715487 0,1.108658 0.101776,1.952842 0.226168,1.875963 0.124393,-0.07688 0.496486,-0.887578 0.826874,-1.801553 0.330389,-0.913975 1.052936,-2.435678 1.605661,-3.381564 1.076126,-1.841585 3.691297,-4.632247 3.691297,-3.939 0,0.403334 -0.997678,3.461678 -1.543893,4.73275 -0.156336,0.363802 -0.653433,1.613958 -1.10466,2.778125 -0.451227,1.164167 -1.130778,2.567665 -1.510114,3.118885 -0.379337,0.55122 -0.709816,1.325126 -0.734398,1.719791 -0.02458,0.394666 -0.131061,0.955699 -0.236619,1.24674 -0.22125,0.610023 0.255011,0.03289 2.603112,-3.154457 2.947726,-4.001285 6.763773,-7.394317 10.415824,-9.261214 l 0.877795,-0.448721 -0.32164,0.611363 c -0.176901,0.33625 -0.660728,1.108371 -1.075169,1.715824 -0.414442,0.607453 -0.86161,1.381359 -0.993708,1.719791 -0.238608,0.611311 -0.538855,1.087618 -4.94035,7.837302 -1.261685,1.934793 -2.249798,3.559601 -2.195806,3.610686 0.05399,0.05108 1.050667,-0.675646 2.214834,-1.614956 2.781149,-2.243976 5.39586,-3.817808 7.873597,-4.739231 1.107433,-0.411834 1.943409,-0.862223 1.857724,-1.000864 -0.08569,-0.138641 -0.02437,-0.17085 0.136265,-0.07157 0.160631,0.09928 1.008709,-0.06092 1.884617,-0.355995 2.470957,-0.832405 2.591305,-0.654768 0.638963,0.943118 -1.811473,1.482592 -3.063859,2.919959 -1.520149,1.744679 0.423857,-0.322696 1.127836,-0.845497 1.564399,-1.161779 1.944448,-1.408719 -0.276238,0.577086 -3.019341,2.699987 -1.598293,1.236927 -2.912242,2.329974 -2.919886,2.428993 -0.0076,0.09902 0.253993,0.218609 0.581415,0.265754 0.492316,0.07089 0.377875,0.192596 -0.661459,0.703463 -1.758448,0.864336 -1.567375,1.1699 0.330729,0.5289 0.873125,-0.294859 1.5875,-0.647186 1.5875,-0.782949 0,-0.645433 5.185252,-1.646547 7.190806,-1.388325 1.169896,0.150628 1.213368,0.1847 0.79375,0.622127 -0.650741,0.67836 -3.932164,2.39968 -7.852264,4.119024 -1.891771,0.829725 -3.459585,1.523039 -3.484031,1.540697 -0.02445,0.01766 2.24039,-0.0082 5.03297,-0.05746 4.903472,-0.0865 5.152094,-0.06539 7.257141,0.616051 1.198848,0.38809 2.118191,0.805179 2.042985,0.926864 -0.07521,0.121686 0.01283,0.276267 0.19564,0.343515 0.380545,0.139987 0.05665,0.222027 -3.800204,0.962555 -1.545316,0.296706 -3.841289,0.618762 -5.102162,0.71568 -1.260874,0.09692 -2.344985,0.261142 -2.409136,0.364941 -0.06415,0.103799 0.564947,0.257962 1.397996,0.342586 2.07064,0.210341 3.555886,0.670668 3.332117,1.032733 -0.120257,0.194581 0.01858,0.239911 0.416273,0.135912 0.328191,-0.08582 0.52583,-0.08516 0.439198,0.0015 -0.08663,0.08663 0.229013,0.399086 0.701434,0.694343 l 0.858945,0.536831 -1.058333,0.242224 c -1.890815,0.432755 -7.571723,0.48963 -12.038541,0.120526 C 35.927399,84.97555 33.19242,84.913395 31.063999,85.033333 25.287013,85.358869 7.2173789,85.515329 4.6056668,85.262428 Z M 18.112996,84.859264 c 0.210699,-0.253878 -0.0405,-0.399181 -1.072881,-0.620586 -0.741397,-0.159002 -1.751827,-0.289094 -2.245399,-0.289094 -0.493572,0 -0.962504,-0.105335 -1.042071,-0.234078 -0.07957,-0.128743 -0.500426,-0.286292 -0.935242,-0.350109 -0.654034,-0.09599 -0.7375,-0.05208 -0.483272,0.254243 0.236209,0.284615 0.224209,0.421628 -0.05187,0.592255 -0.339321,0.209712 0.07029,0.370223 2.245281,0.879848 1.035999,0.242746 3.313616,0.09507 3.585455,-0.232479 z m 24.328086,-0.09653 c 0,-0.134851 0.148828,-0.298076 0.330729,-0.362722 0.181901,-0.06465 -0.01158,-0.07338 -0.429948,-0.0194 -0.418373,0.05398 -1.16954,0.09814 -1.669261,0.09814 -0.538348,0 -0.841951,0.107814 -0.745062,0.264583 0.205995,0.333308 2.513542,0.351118 2.513542,0.0194 z M 10.360354,84.56095 c -0.254661,-0.06655 -0.6713801,-0.06655 -0.9260416,0 -0.2546614,0.06655 -0.046302,0.121 0.4630208,0.121 0.5093228,0 0.7176818,-0.05445 0.4630208,-0.121 z m 35.917186,-0.0822 c -0.291042,-0.125065 -1.005417,-0.220086 -1.5875,-0.211157 l -1.058334,0.01623 0.926042,0.194923 c 0.509323,0.107208 1.223698,0.202228 1.5875,0.211157 0.599391,0.01471 0.611804,-0.0051 0.132292,-0.211157 z M 10.538052,83.122278 c -0.174285,-0.282 -1.8849581,-0.309156 -2.0529153,-0.03259 -0.06628,0.10914 0.400637,0.213102 1.0375941,0.231026 0.6369572,0.01792 1.0938522,-0.07137 1.0153212,-0.198436 z m 7.296781,-0.229567 c 0,-0.112395 -0.267891,-0.266001 -0.595313,-0.341347 -4.748223,-1.092657 -5.651424,-1.21484 -9.8557283,-1.33327 -3.7810737,-0.106508 -4.0762442,-0.09002 -1.8520832,0.103477 3.0506916,0.265399 6.7273695,0.881337 8.1579795,1.366671 1.100425,0.373319 4.145145,0.523507 4.145145,0.204469 z m 2.00369,-1.991516 c -0.543739,-0.411363 -0.847581,-0.345979 -0.559361,0.12037 0.09592,0.155202 0.375733,0.2784 0.621806,0.273772 0.392814,-0.0074 0.385194,-0.05548 -0.06245,-0.394142 z M 2.152759,80.879315 c -0.087919,-0.08792 -0.316122,-0.09732 -0.507118,-0.02089 -0.2110668,0.08446 -0.1483721,0.147157 0.1598524,0.159853 0.2789149,0.01149 0.4351844,-0.05105 0.3472656,-0.138965 z m 7.876866,-0.369314 c -0.7282614,-0.312944 -0.9871605,-0.312944 -0.7937501,0 0.089937,0.145521 0.4243854,0.256215 0.7432191,0.245987 0.558897,-0.01793 0.56071,-0.02676 0.050531,-0.245987 z M 27.474391,79.58396 c 0.241689,-0.509323 0.612443,-0.926042 0.823896,-0.926042 0.211454,0 0.443993,0 0.516754,0 0.252849,0 0.130672,0.397077 -0.132292,0.429948 -0.145521,0.01819 -0.338693,0.04796 -0.429272,0.06615 -0.09058,0.01819 -0.0087,0.22105 0.181994,0.450799 0.304968,0.367464 0.409146,0.295973 0.865804,-0.594147 0.285518,-0.55653 0.975168,-1.6292 1.532558,-2.38371 0.851332,-1.152406 0.940211,-1.38677 0.555655,-1.465193 -0.283573,-0.05783 -0.653483,0.212061 -0.972041,0.709212 -0.424003,0.661711 -0.532321,0.719075 -0.617161,0.326839 -0.0566,-0.261652 0.04932,-0.678371 0.235369,-0.926042 0.186048,-0.24767 -0.117832,0.02594 -0.675288,0.608023 -1.318419,1.376663 -2.356335,2.945648 -2.159399,3.264296 0.0857,0.138672 -0.02209,0.320401 -0.23953,0.403842 -0.217446,0.08344 -0.395356,0.334043 -0.395356,0.556891 0,0.700793 0.451439,0.441919 0.908309,-0.520862 z m 1.344029,-1.978907 c -0.08808,-0.142514 -0.02454,-0.512484 0.141188,-0.822156 0.37806,-0.70641 0.912966,-0.279004 0.657636,0.525471 -0.188034,0.59244 -0.536134,0.721726 -0.798824,0.296685 z M 5.6640001,79.980835 c 0.2976044,-0.192327 0.1652436,-0.256481 -0.5291666,-0.256481 -0.6944102,0 -0.826771,0.06415 -0.5291667,0.256481 0.2182813,0.141064 0.4564063,0.25648 0.5291667,0.25648 0.07276,0 0.3108854,-0.115416 0.5291666,-0.25648 z m 28.4427069,0 c 0.08994,-0.145521 0.03743,-0.264584 -0.116677,-0.264584 -0.154109,0 -0.280198,0.119063 -0.280198,0.264584 0,0.14552 0.05251,0.264583 0.116677,0.264583 0.06417,0 0.190261,-0.119063 0.280198,-0.264583 z M 15.102825,76.382188 c -0.408224,-0.378527 -0.800231,-0.630226 -0.871126,-0.559331 -0.132517,0.132517 1.166412,1.247561 1.453299,1.247561 0.08803,0 -0.173949,-0.309704 -0.582173,-0.68823 z m 21.715861,-2.289252 c 0.909505,-0.715778 1.653646,-1.414414 1.653646,-1.552525 0,-0.403464 -0.794339,0.156879 -2.513542,1.773102 -1.835363,1.725427 -1.505177,1.640729 0.859896,-0.220577 z m -4.833117,-0.726684 c -0.109528,0.363802 -0.331923,0.748932 -0.49421,0.855844 -0.209943,0.138306 -0.202628,0.195555 0.02535,0.198437 0.392435,0.005 1.107052,-0.744015 1.745057,-1.828962 0.500398,-0.850944 0.240451,-1.096578 -0.440182,-0.415944 -0.218281,0.218281 -0.504515,0.396875 -0.636075,0.396875 -0.13156,0 -0.624917,0.506015 -1.096349,1.124479 l -0.857148,1.124479 0.976348,-1.058333 c 0.837036,-0.907323 0.947933,-0.963952 0.777205,-0.396875 z M 17.655796,70.654273 c -0.608163,-0.675637 -0.968874,-1.521355 -0.648879,-1.521355 0.117596,0 0.356442,0.313043 0.530769,0.69565 0.174328,0.382607 0.383633,0.628975 0.465124,0.547484 0.215496,-0.215495 -0.754642,-1.767994 -1.007243,-1.611878 -0.117153,0.07241 -0.1421,-0.05313 -0.05544,-0.278972 0.08689,-0.226419 0.01918,-0.410617 -0.150937,-0.410617 -0.169678,0 -0.240006,-0.110835 -0.156283,-0.246301 0.08372,-0.135465 0.0015,-0.333148 -0.182823,-0.439294 -0.184275,-0.106147 -0.246781,-0.09556 -0.138903,0.02352 0.107878,0.119082 0.06985,0.368685 -0.08451,0.554673 -0.198956,0.239728 -0.189825,0.516369 0.03137,0.950386 0.579601,1.137256 1.442994,2.32839 1.68905,2.330209 0.134507,9.94e-4 0.0034,-0.266083 -0.291303,-0.593504 z M 16.809331,64.82903 c -0.261307,-0.259363 -0.291698,-0.228972 -0.148112,0.148112 0.09936,0.260938 0.247304,0.407781 0.328765,0.32632 0.08146,-0.08146 1.68e-4,-0.294957 -0.180653,-0.474432 z m 9.145385,-0.921632 c -0.06655,-0.254662 -0.121,-0.0463 -0.121,0.463021 0,0.509323 0.05445,0.717682 0.121,0.463021 0.06655,-0.254662 0.06655,-0.671381 0,-0.926042 z m 14.138865,0 c 0.329107,-0.419644 0.319749,-0.429002 -0.0999,-0.0999 -0.440729,0.345644 -0.580887,0.562916 -0.363126,0.562916 0.05494,0 0.263301,-0.20836 0.463021,-0.463021 z M 26.547486,62.187606 c 0.01023,-0.10914 -0.0745,-0.198437 -0.188279,-0.198437 -0.113782,0 -0.225042,0.327422 -0.247244,0.727604 -0.03483,0.627859 -0.009,0.655062 0.188279,0.198437 0.125756,-0.291041 0.237016,-0.618463 0.247244,-0.727604 z m -11.500568,0.611153 c 0.170264,-0.275493 -1.353763,-2.132507 -1.750121,-2.132507 -0.137437,0 0.118742,0.535781 0.569286,1.190625 0.875066,1.271865 0.943271,1.326268 1.180835,0.941882 z"
         id="path1422" />
      <path
         style="fill:#2f6955;stroke-width:1.48198"
         d="m 13.179486,60.335523 -0.504028,-0.595312 0.595313,0.504028 c 0.327421,0.277215 0.595312,0.545106 0.595312,0.595312 0,0.211734 -0.212935,0.05542 -0.686597,-0.504028 z"
         id="path1484" />
      <path
         style="fill:#2f6955;stroke-width:1.48198"
         d="m 15.658523,65.098023 c -0.668117,-0.881672 -1.522539,-2.39366 -1.083988,-1.918229 0.921735,0.999247 2.193721,2.778125 1.986498,2.778125 -0.137992,0 -0.544121,-0.386953 -0.90251,-0.859896 z"
         id="path1480" />
      <path
         style="fill:#2f6955;stroke-width:1.48198"
         d="m 45.616081,72.871085 c 0.218282,-0.130819 0.813594,-0.311635 1.322917,-0.401814 0.624687,-0.110604 0.753839,-0.09024 0.396875,0.06258 -0.818176,0.35027 -2.189575,0.620782 -1.719792,0.339234 z"
         id="path1476" />
      <path
         style="fill:#2f6955;stroke-width:1.48198"
         d="m 3.886046,79.521446 c 0.6956148,-0.05468 1.7671772,-0.05402 2.3812499,0.0015 0.6140727,0.05549 0.044933,0.10023 -1.2647541,0.09942 -1.3096874,-8.36e-4 -1.8121105,-0.04624 -1.1164958,-0.10092 z"
         id="path1474" />
      <path
         style="fill:#2f6955;stroke-width:1.48198"
         d="m 0.83535454,79.805606 c 0.18190106,-0.0734 0.47955726,-0.0734 0.66145826,0 0.1819011,0.0734 0.033073,0.133452 -0.3307291,0.133452 -0.36380207,0 -0.51263019,-0.06005 -0.33072916,-0.133452 z"
         id="path1473" />
      <path
         style="fill:#2f6955;stroke-width:1.48198"
         d="M 7.7806667,85.271463 C 8.1712203,85.145773 7.5752299,85.111249 6.3254584,85.187168 4.8245972,85.27834 4.3227638,85.236211 4.6005399,85.04236 4.8806304,84.846895 4.5412737,84.809081 3.409915,84.909692 2.1839538,85.018716 1.9169336,84.981809 2.224417,84.745834 2.5434594,84.500989 2.4553952,84.461489 1.7753695,84.544421 1.29868,84.602555 0.99553929,84.540645 1.0808661,84.402584 1.1701122,84.25818 0.8656189,84.23011 0.33928866,84.33422 c -0.60528846,0.119729 -0.77389221,0.09475 -0.52331713,-0.07754 0.26757601,-0.183976 0.10747359,-0.254179 -0.57967285,-0.254179 -1.10454328,0 -3.59494238,-0.755029 -4.12079218,-1.249325 -0.3905694,-0.367133 -0.1660581,-1.032586 0.2596165,-0.769504 0.1418401,0.08766 0.4083256,0.03454 0.59219,-0.118058 0.7115173,-0.590507 3.1848147,-1.032262 4.53731239,-0.810408 0.72760411,0.11935 2.00531621,0.224098 2.83936021,0.232773 1.5326681,0.01594 4.8072609,0.45256 6.024181,0.803237 0.3638021,0.104836 -1.9571441,0.131769 -5.157658,0.05985 -5.3803835,-0.1209 -5.7918679,-0.09793 -5.4577071,0.304713 0.31563036,0.380311 0.29225516,0.435471 -0.1845393,0.435471 -0.9383046,0 -0.9359576,0.526574 0.00252,0.56521 1.62043786,0.06671 2.7088305,0.202785 7.357802,0.919891 3.5119825,0.541724 5.8762308,0.736801 9.7895828,0.807749 l 5.159375,0.09354 -1.058333,-0.522758 c -0.582084,-0.287518 -1.333032,-0.526799 -1.668775,-0.531737 -0.335743,-0.0049 -1.162769,-0.148055 -1.837836,-0.318039 -0.985107,-0.248053 -1.12575,-0.348841 -0.712476,-0.510576 0.283206,-0.110833 1.065211,-0.137034 1.737789,-0.05822 0.739257,0.08662 1.292297,0.03095 1.398427,-0.140769 C 18.913676,82.908601 18.104084,82.62988 14.125465,81.60814 13.031197,81.32712 11.68482,80.908729 11.133515,80.678379 10.582211,80.44803 9.5129893,80.171391 8.7574676,80.063627 7.433629,79.874802 7.4173083,79.862546 8.3076156,79.725826 9.292645,79.574561 9.3442485,79.594799 1.1660837,76.924949 c -3.2811004,-1.071151 -4.3220482,-1.573272 -3.9104339,-1.88627 0.5221603,-0.397059 3.00396083,-0.878712 4.5259314,-0.878366 1.2413111,2.83e-4 4.0433288,0.462457 5.7345022,0.945869 0.579489,0.165643 0.5451949,0.09414 -0.2767392,-0.576991 C 6.7233356,74.107856 6.0468483,73.525002 5.7360391,73.23396 5.4252299,72.942918 3.9215243,71.633231 2.394471,70.323543 0.86741767,69.013856 -0.39086056,67.852997 -0.40170289,67.743856 c -0.0340199,-0.34245 1.72540989,-0.216127 2.70800709,0.194429 0.9812226,0.409981 1.6431951,1.049252 0.7917504,0.764598 -0.4977069,-0.166392 0.7345514,1.011045 1.5678035,1.498056 0.3738632,0.218511 0.425453,0.184758 0.2834028,-0.185419 -0.1249636,-0.32565 0.096955,-0.24615 0.7913587,0.283498 0.5307622,0.404832 0.9390122,0.868208 0.9072222,1.029724 -0.053471,0.271669 0.065975,0.326255 0.9123388,0.416937 0.1697743,0.01819 0.2353416,0.106412 0.1457052,0.196048 -0.2428569,0.242857 3.6938472,3.342859 5.2871622,4.163435 0.857038,0.441385 1.496415,0.590817 0.999509,0.2336 C 13.402009,75.914229 9.9056194,71.245733 8.4951768,68.998479 7.6724372,67.68761 6.9193671,66.215483 6.8216878,65.727086 6.6497301,64.867298 6.6632692,64.849357 7.2479323,65.162259 c 1.9164849,1.025672 4.6428347,3.013586 6.7789547,4.942867 1.341426,1.211536 2.507287,2.202792 2.590804,2.202792 0.198009,0 -2.250404,-4.637001 -3.702164,-7.011458 -1.294788,-2.117716 -3.17819,-6.000927 -3.4327189,-7.077603 -0.2029631,-0.858549 0.3864868,-1.018107 0.9774409,-0.264584 0.330192,0.421027 0.320552,0.429606 -0.106289,0.09459 -0.7573674,-0.59444 -0.8146897,-0.145976 -0.07579,0.592927 0.372621,0.372621 0.677494,0.804334 0.677494,0.959361 0,0.155027 0.278689,0.725986 0.619311,1.268798 0.340621,0.542811 1.308722,2.296617 2.151335,3.897346 0.842613,1.600729 1.7542,3.225963 2.025748,3.611631 0.271548,0.385668 0.853968,1.504132 1.294266,2.485474 0.440299,0.981343 0.875359,1.709444 0.966801,1.618002 0.09144,-0.09144 0.323072,0.04025 0.514733,0.292651 0.327953,0.431881 0.348971,0.429972 0.35689,-0.03242 0.0056,-0.326454 0.141594,-0.440223 0.40529,-0.339033 0.488735,0.187545 0.488333,-0.0174 -0.0046,-2.34454 -0.541947,-2.558567 -0.47667,-2.855481 0.299718,-1.363286 0.367049,0.705456 0.709287,1.24072 0.76053,1.189477 0.05124,-0.05124 -0.135957,-1.045152 -0.416,-2.208688 -0.280043,-1.163535 -0.587256,-3.526885 -0.682697,-5.251888 -0.165506,-2.991383 -0.150176,-3.13204 0.331632,-3.042708 0.679288,0.125946 2.332849,3.517362 4.139889,8.490819 0.144728,0.398333 0.37033,0.657996 0.501336,0.57703 0.131006,-0.08097 0.175387,-0.248833 0.09862,-0.373037 -0.07676,-0.124205 -0.01606,-1.574493 0.134889,-3.222864 0.150952,-1.64837 0.395441,-4.425787 0.543309,-6.172037 0.260721,-3.07899 0.613608,-4.630208 1.053328,-4.630208 0.697079,0 2.369557,6.531356 2.608436,10.186458 l 0.172918,2.645833 0.486757,-1.058333 c 2.142353,-4.658021 2.884612,-5.917117 4.296859,-7.28877 1.481411,-1.438829 1.484778,-1.440366 1.330716,-0.607191 -0.323203,1.747891 -3.441568,9.249814 -4.324705,10.404043 -0.665789,0.870163 -0.865042,1.35157 -0.749671,1.811246 0.08643,0.344344 0.02169,0.789282 -0.143854,0.988751 -0.165544,0.199469 -0.259968,0.483807 -0.20983,0.631863 0.05014,0.148056 0.56741,-0.402618 1.149493,-1.223719 3.772651,-5.321796 7.136896,-8.76622 10.583333,-10.835562 2.247116,-1.349234 2.76633,-1.369244 1.761957,-0.06791 -0.26785,0.347047 -0.823082,1.226307 -1.233849,1.953911 -1.075871,1.905722 -3.11642,5.159375 -3.235736,5.159375 -0.05595,0 -0.01677,-0.137459 0.08706,-0.305464 0.114318,-0.18497 0.07285,-0.233812 -0.105121,-0.123818 -0.16165,0.0999 -0.219344,0.375957 -0.12821,0.61345 0.119661,0.311831 0.06834,0.371631 -0.184727,0.21523 -0.230975,-0.142751 -0.287179,-0.114239 -0.164882,0.08364 0.102927,0.166538 -0.703554,1.615732 -1.811203,3.254614 -2.631739,3.893933 -2.665123,4.197628 -0.226206,2.057797 2.406191,-2.111119 5.235115,-3.843631 7.996016,-4.896983 5.357857,-2.044156 5.862628,-2.221116 6.309663,-2.212009 0.389058,0.0079 0.374708,0.05907 -0.09279,0.330729 -0.85459,0.496589 -3.833104,3.16717 -3.69093,3.309344 0.06952,0.06952 0.427769,-0.07107 0.796113,-0.312417 1.291516,-0.846234 0.646127,-0.247337 -1.979039,1.836474 -2.302887,1.827992 -2.570893,2.121307 -2.052473,2.246295 0.525324,0.126652 0.45276,0.213237 -0.609781,0.727604 -0.663334,0.321114 -1.436362,0.585668 -1.717839,0.587896 -0.281478,0.0022 -0.690371,0.122581 -0.908652,0.267451 -0.82245,0.545846 2.334452,0.02693 4.740789,-0.779266 1.338187,-0.448334 2.634653,-0.815887 2.881035,-0.816783 0.246382,-8.97e-4 0.788998,-0.17949 1.205815,-0.396875 0.442694,-0.230881 1.464323,-0.395245 2.456704,-0.395245 1.536416,0 1.675051,0.04427 1.449887,0.463021 -0.355542,0.661217 -9.230454,5.014967 -11.215376,5.501907 -0.401557,0.09851 -0.807129,0.303737 -0.901269,0.45606 -0.112868,0.182624 0.04568,0.209265 0.46552,0.07822 0.350178,-0.109302 2.721167,-0.260762 5.268867,-0.336577 4.193927,-0.124805 4.810575,-0.08472 6.517755,0.423702 1.037066,0.308851 2.033023,0.739212 2.213237,0.956357 0.180214,0.217145 0.511521,0.394809 0.736237,0.394809 0.798594,0 0.101355,0.289709 -1.299826,0.54009 -3.440298,0.614756 -4.779879,0.821543 -7.640209,1.179398 -1.67349,0.20937 -3.132005,0.384386 -3.241146,0.388925 -0.10914,0.0045 -0.198437,0.10284 -0.198437,0.218446 0,0.115606 0.684609,0.242773 1.521354,0.282594 1.615526,0.07688 2.759,0.191098 2.976562,0.297313 0.07276,0.03552 0.370417,0.05391 0.661459,0.04086 0.302068,-0.01354 0.381212,0.04162 0.184413,0.128547 -0.260522,0.115067 -0.2282,0.24065 0.132292,0.514007 0.262374,0.198955 0.630062,0.365524 0.817083,0.370152 0.18702,0.0046 0.657718,0.216566 1.045993,0.470974 l 0.705956,0.46256 -0.781411,0.167594 c -0.429775,0.09218 -1.198129,0.166008 -1.707451,0.164069 l -0.926042,-0.0035 0.926042,-0.18061 0.926041,-0.180609 -1.5875,-0.512165 c -1.325102,-0.42753 -2.235089,-0.501784 -5.505739,-0.449281 -3.08213,0.04948 -4.003639,0.148282 -4.318377,0.463021 -0.220067,0.220067 -0.361852,0.410233 -0.315078,0.422592 0.04677,0.01236 2.287701,0.184295 4.979836,0.382082 L 48.129623,85.5075 43.89629,85.378303 C 41.567957,85.307245 38.531863,85.151012 37.149415,85.031118 35.57942,84.894959 31.854896,84.94577 27.227541,85.166476 19.180575,85.550284 6.7050147,85.617635 7.7806667,85.271463 Z M 22.787966,83.532165 c 0.229581,-0.22958 0.637795,-0.359789 0.907143,-0.289353 0.624789,0.163386 0.644187,-0.671701 0.08806,-3.791144 C 23.562654,78.214741 23.327212,76.607397 23.259965,75.879793 23.108839,74.244622 21.024984,65.39007 20.7101,65.045106 c -0.135488,-0.14843 -0.229348,0.01408 -0.22922,0.396875 2.13e-4,0.639724 0.732834,4.435569 0.912893,4.729873 0.05104,0.08343 0.160363,0.747002 0.242934,1.474606 0.08257,0.727604 0.330422,2.156354 0.550781,3.175 0.562273,2.599195 0.503127,3.161462 -0.187865,1.785937 -0.310683,-0.618463 -0.635104,-1.124479 -0.720934,-1.124479 -0.08583,0 -0.07262,0.684609 0.02936,1.521354 0.189543,1.555201 0.656103,4.749556 0.763227,5.225521 0.184872,0.821413 -0.04298,1.003299 -0.46753,0.373208 -0.253895,-0.376819 -1.049511,-1.567444 -1.768036,-2.645833 -1.723895,-2.587291 -4.995193,-6.471529 -5.124245,-6.084372 -0.05611,0.168319 0.260543,0.863389 0.703666,1.544601 0.443123,0.681212 0.761472,1.282772 0.707444,1.336801 -0.213668,0.213668 -1.696237,-1.109375 -1.545835,-1.379502 0.102136,-0.183439 0.04086,-0.17812 -0.168112,0.01459 -0.257393,0.237365 -0.05859,0.639725 0.915096,1.852083 1.537135,1.913919 5.156993,5.649881 5.474297,5.649881 0.128662,0 0.489529,0.238125 0.801926,0.529167 0.682756,0.636084 0.665317,0.634443 1.188013,0.111747 z m 7.473029,-0.898908 c 0.40364,-0.287417 1.046482,-0.641423 1.428536,-0.78668 0.382055,-0.145257 1.558464,-0.849095 2.614244,-1.564085 1.055779,-0.71499 2.472793,-1.548957 3.14892,-1.853261 0.676126,-0.304303 2.207677,-1.147505 3.403445,-1.873782 1.195768,-0.726277 2.398746,-1.391795 2.673283,-1.47893 0.425093,-0.134919 0.729057,-0.651934 0.383285,-0.651934 -0.426664,0 -3.899835,0.883238 -4.712772,1.198472 -0.545703,0.211609 -0.992188,0.323756 -0.992188,0.249216 0,-0.295231 -2.125394,0.974354 -3.967581,2.369999 -1.070071,0.810688 -2.052575,1.473979 -2.183342,1.473979 -0.405672,0 -3.629436,2.975871 -3.48207,3.214314 0.231552,0.37466 0.910716,0.254914 1.68624,-0.297308 z M 28.743133,80.37771 c 0.572741,-1.136726 2.46874,-3.916291 3.699796,-5.423958 0.415877,-0.509323 0.888235,-1.088229 1.049684,-1.286457 0.161449,-0.198229 0.330861,-0.680918 0.376471,-1.072643 0.04561,-0.391724 0.265827,-1.062975 0.489374,-1.491668 0.564169,-1.081902 0.510381,-1.290721 -0.16935,-0.657456 -0.318481,0.296711 -0.666533,0.539474 -0.773449,0.539474 -0.106916,0 -0.581102,0.325394 -1.053747,0.723098 l -0.859353,0.723098 0.977524,-1.280627 c 1.850205,-2.423899 4.090138,-5.06253 5.194158,-6.118694 1.146904,-1.097188 2.01079,-2.44737 1.739488,-2.718672 -0.161608,-0.161608 -4.493763,4.221343 -5.764473,5.832063 -1.195344,1.515187 -2.87887,4.430794 -2.713203,4.698849 0.08528,0.13798 0.0289,0.401203 -0.125276,0.584941 -1.893436,2.256452 -3.582106,4.665845 -4.115559,5.872077 -0.800303,1.809626 -0.801561,1.848536 -0.0815,2.519374 0.549857,0.51227 0.60061,0.515842 1.086487,0.07645 0.280328,-0.253505 0.749646,-0.937169 1.042929,-1.519252 z M 47.86504,80.091225 c 1.164166,-0.0769 2.214049,-0.236533 2.333072,-0.35474 0.119024,-0.118206 -1.309726,-0.298363 -3.175,-0.400348 -2.690457,-0.147103 -3.828886,-0.09465 -5.508072,0.253782 -3.462023,0.718373 -3.267633,0.950015 0.661458,0.788214 1.964531,-0.0809 4.524375,-0.210008 5.688542,-0.286908 z M 9.8550636,78.006579 C 8.116581,76.825686 5.0044918,75.789332 1.9171479,75.363183 c -1.94908791,-0.269035 -1.72348225,0.264707 0.3774948,0.893084 2.0785777,0.621677 2.7139885,0.838837 5.025678,1.717591 0.8382158,0.318635 1.9502882,0.59142 2.4712719,0.606188 l 0.9472434,0.02685 z M 35.875311,75.004885 c 1.064559,-0.845002 2.828531,-2.144097 3.919937,-2.886877 2.333148,-1.587876 4.101262,-3.112652 3.307292,-2.852124 -0.291042,0.0955 -1.002276,0.222261 -1.58052,0.28169 -1.033795,0.106248 -3.431301,1.519494 -4.160964,2.452742 -0.314231,0.401906 -0.298235,0.406015 0.185234,0.04758 l 0.529167,-0.392316 -0.529167,0.629217 c -0.291042,0.346069 -1.164479,1.23417 -1.940971,1.973558 -1.276711,1.215702 -2.113413,2.282897 -1.789838,2.282897 0.06835,0 0.995271,-0.691365 2.05983,-1.536367 z M 26.51473,67.67771 c 1.006911,-7.212201 1.060848,-10.62743 0.167838,-10.62743 -0.209588,0 -0.38685,0.128985 -0.393916,0.286632 -0.07691,1.716005 -0.553399,5.771546 -0.88854,7.562673 -0.424662,2.269564 -0.583108,7.95231 -0.231529,8.303889 0.338845,0.338845 0.780463,-1.473943 1.346147,-5.525764 z m -13.442397,4.148395 c 0,-0.441519 -2.835664,-3.587586 -4.1127568,-4.562954 -1.283748,-0.980451 -1.3731185,-0.664304 -0.174044,0.615679 0.7143102,0.762509 1.9287978,2.070989 2.6988618,2.907734 0.770063,0.836745 1.442376,1.521354 1.494027,1.521354 0.05165,0 0.09391,-0.216816 0.09391,-0.481813 z M 32.926819,62.72837 c 0.721699,-1.912304 1.31218,-3.531831 1.31218,-3.598948 0,-0.06712 -0.241994,0.185612 -0.537763,0.561622 -0.628633,0.799178 -1.843487,3.457201 -1.843487,4.033433 0,0.218517 -0.297656,1.104503 -0.661459,1.968858 -0.795865,1.890892 -0.873476,2.959562 -0.109861,1.512747 0.290516,-0.550438 1.118691,-2.565408 1.84039,-4.477712 z m 7.516549,0.79963 c 0.242072,-0.409795 0.374615,-0.745081 0.29454,-0.745081 -0.230847,0 -1.737044,2.164689 -1.730526,2.487093 0.0065,0.32101 0.750462,-0.581512 1.435986,-1.742012 z"
         id="path1470" />
      <path
         style="fill:#105b4b;stroke-width:1.48198"
         d="m 32.934771,62.986711 c -0.03032,-0.313229 0.831621,-2.352093 0.946003,-2.237711 0.05759,0.05759 -0.127502,0.628072 -0.411306,1.267748 -0.283804,0.639675 -0.524417,1.076158 -0.534697,0.969963 z"
         id="path1678" />
      <path
         style="fill:#105b4b;stroke-width:1.48198"
         d="m 30.684135,65.615779 c 0.09936,-0.260938 0.247304,-0.407782 0.328765,-0.32632 0.08146,0.08146 1.68e-4,0.294956 -0.180653,0.474432 -0.261307,0.259362 -0.291698,0.228971 -0.148112,-0.148112 z"
         id="path1672" />
      <path
         style="fill:#105b4b;stroke-width:1.48198"
         d="M 20.888579,72.307918 C 20.776297,71.944116 20.471154,71.408335 20.210484,71.117293 19.788642,70.6463 18.769513,67.810002 19.02212,67.810002 c 0.224438,0 2.272621,4.568645 2.175502,4.852642 -0.05769,0.168703 -0.196761,0.0091 -0.309043,-0.354726 z"
         id="path1658" />
      <path
         style="fill:#105b4b;stroke-width:1.48198"
         d="m 44.293165,74.160002 c 0,-0.145521 0.126089,-0.264584 0.280198,-0.264584 0.154109,0 0.206614,0.119063 0.116677,0.264584 -0.08994,0.14552 -0.216026,0.264583 -0.280198,0.264583 -0.06417,0 -0.116677,-0.119063 -0.116677,-0.264583 z"
         id="path1656" />
      <path
         style="fill:#105b4b;stroke-width:1.48198"
         d="m 40.428393,78.971409 c 2.504835,-1.060259 12.199146,-1.107174 12.199146,-0.05904 0,0.328519 -0.980197,0.38827 -6.510604,0.396875 -5.61469,0.0087 -6.397482,-0.03775 -5.688542,-0.337838 z"
         id="path1652" />
      <path
         style="fill:#105b4b;stroke-width:1.48198"
         d="m 29.247556,79.906929 c 0.312205,-0.614196 1.109382,-1.831094 1.771506,-2.704219 0.662124,-0.873125 1.532541,-2.019692 1.93426,-2.547927 1.265074,-1.663489 3.617129,-6.96007 3.435315,-7.735966 -0.02961,-0.12635 0.580523,-0.900256 1.355846,-1.719792 0.775323,-0.819536 1.698832,-1.906783 2.052243,-2.416106 0.35341,-0.509323 0.795311,-1.083374 0.982002,-1.27567 0.432854,-0.445849 0.426754,-0.488219 -0.07028,-0.488219 -0.225347,0 -0.939722,0.466525 -1.5875,1.036722 -0.647779,0.570197 -1.177779,0.900514 -1.177779,0.734038 0,-0.166476 -0.121005,-0.227899 -0.268899,-0.136496 -0.147895,0.0914 -0.210234,0.261112 -0.138531,0.37713 0.0717,0.116017 -0.132663,0.435212 -0.454145,0.709322 -0.486318,0.414655 -0.524276,0.420595 -0.225948,0.03536 0.197212,-0.254661 0.263703,-0.463021 0.147758,-0.463021 -0.714981,0 3.537151,-3.263283 5.680574,-4.359536 l 0.904351,-0.46253 -0.692407,1.154263 c -0.380824,0.634844 -0.826397,1.121546 -0.990163,1.081561 -0.163766,-0.03999 -0.219801,0.05343 -0.124522,0.207598 0.09528,0.154165 -0.234827,0.700421 -0.733571,1.213902 -0.498743,0.513481 -1.482222,1.908343 -2.185509,3.099693 -0.703287,1.19135 -1.460985,2.463747 -1.683774,2.827549 l -0.40507,0.661458 0.630408,-0.529166 c 0.776534,-0.651824 0.673924,-0.468684 -1.672016,2.984245 -1.43364,2.11014 -1.776838,2.790578 -1.531332,3.036083 0.245505,0.245506 0.44836,0.236957 0.905129,-0.03814 0.339486,-0.204464 0.134464,0.134366 -0.484299,0.800375 -2.543504,2.73772 -2.110684,2.78538 1.27321,0.140199 1.36553,-1.06743 3.30786,-2.489681 4.316289,-3.160558 1.656701,-1.102151 4.631545,-3.317446 5.253669,-3.912281 0.65651,-0.627713 -3.689931,0.808298 -5.324803,1.759251 -0.610991,0.355393 -2.158803,1.48858 -3.439583,2.518192 -1.875317,1.507557 -2.058124,1.613144 -0.938961,0.542332 2.963186,-2.835171 7.951911,-5.542624 11.799241,-6.403619 0.812416,-0.18181 1.423042,-0.418065 1.356946,-0.52501 -0.105739,-0.17109 0.714881,-0.505653 1.264616,-0.515577 0.110064,-0.002 -0.755064,0.83808 -1.922506,1.866815 -1.167443,1.028736 -2.058299,1.974508 -1.97968,2.101716 0.147417,0.238525 -2.602808,2.655811 -3.647263,3.20573 -0.323492,0.170322 -0.647699,0.38676 -0.720459,0.480973 -0.07276,0.09421 -0.820037,0.503399 -1.660615,0.909302 -0.840578,0.405904 -2.80511,1.602528 -4.365625,2.659165 -1.560516,1.056636 -3.25402,2.131835 -3.763343,2.389329 -0.509323,0.257494 -1.185118,0.704843 -1.501768,0.994109 -0.316649,0.289265 -0.703602,0.446905 -0.859895,0.350311 -0.156294,-0.09659 -0.28417,-0.06228 -0.28417,0.07626 0,0.13854 -0.179232,0.320668 -0.398294,0.40473 -0.308686,0.118454 -0.270585,-0.0984 0.169351,-0.96388 z M 42.543823,59.748177 c 0.335232,-0.511629 0.347498,-0.62253 0.0565,-0.510864 -0.204425,0.07845 -0.431799,0.372517 -0.505276,0.653492 -0.177641,0.679301 -0.06667,0.644031 0.448774,-0.142628 z"
         id="path1650" />
      <path
         style="fill:#105b4b;stroke-width:1.48198"
         d="m -5.0259078,82.696481 c -0.3040923,-0.304092 -0.1530929,-0.538459 0.4373043,-0.678743 0.3274219,-0.0778 1.0889349,-0.324948 1.6922512,-0.54922 0.9329863,-0.346822 1.6823324,-0.36856 5.0135683,-0.145442 2.1541462,0.144279 3.9723206,0.318017 4.0403874,0.386084 0.068067,0.06807 -2.0689765,0.125581 -4.748985,0.127809 -4.6163983,0.0038 -5.7935342,0.156037 -5.4541364,0.705194 0.1637444,0.264944 -0.7292088,0.4055 -0.9803898,0.154318 z"
         id="path1644" />
      <path
         style="fill:#105b4b;stroke-width:1.48198"
         d="m 27.491245,82.892674 c 0.08945,-0.144738 0.423901,-0.400188 0.743219,-0.567666 0.576545,-0.302391 0.577077,-0.300564 0.07655,0.26316 -0.504962,0.568718 -1.125523,0.799227 -0.819768,0.304506 z"
         id="path1642" />
      <path
         style="fill:#105b4b;stroke-width:1.48198"
         d="m 2.5551461,84.296367 c 0.2546615,-0.06655 0.6713802,-0.06655 0.9260416,0 0.2546615,0.06655 0.046302,0.121 -0.4630208,0.121 -0.5093229,0 -0.7176822,-0.05445 -0.4630208,-0.121 z"
         id="path1638" />
      <path
         style="fill:#105b4b;stroke-width:1.48198"
         d="m 5.2060148,84.559981 c 0.257431,-0.06708 0.6146185,-0.06267 0.79375,0.0098 0.1791315,0.07248 -0.031494,0.127362 -0.4680563,0.12197 -0.4365625,-0.0054 -0.5831246,-0.06469 -0.3256937,-0.131773 z"
         id="path1637" />
      <path
         style="fill:#105b4b;stroke-width:1.48198"
         d="m 50.113998,84.743329 c 0,-0.310545 0.203364,-0.310545 0.926041,0 0.468908,0.201497 0.446311,0.229509 -0.198437,0.245987 -0.400182,0.01023 -0.727604,-0.100466 -0.727604,-0.245987 z"
         id="path1628" />
      <path
         style="fill:#105b4b;stroke-width:1.48198"
         d="m 36.554103,84.821189 c 0.327422,-0.06306 0.863203,-0.06306 1.190625,0 0.327421,0.06307 0.05953,0.114663 -0.595313,0.114663 -0.654844,0 -0.922734,-0.0516 -0.595312,-0.114663 z"
         id="path1627" />
      <path
         style="fill:#105b4b;stroke-width:1.48198"
         d="m 7.1853542,84.832689 c 0.181901,-0.0734 0.4795573,-0.0734 0.6614583,0 0.181901,0.0734 0.033073,0.133452 -0.3307291,0.133452 -0.3638021,0 -0.5126302,-0.06005 -0.3307292,-0.133452 z"
         id="path1626" />
      <path
         style="fill:#105b4b;stroke-width:1.48198"
         d="m 39.996771,85.085372 c 0.329118,-0.06329 0.805368,-0.06088 1.058333,0.0053 0.252965,0.06622 -0.01631,0.118003 -0.598397,0.115066 -0.582084,-0.0029 -0.789055,-0.05712 -0.459936,-0.120405 z"
         id="path1625" />
      <path
         style="fill:#105b4b;stroke-width:1.48198"
         d="m 43.838127,85.342279 c 0.695615,-0.05468 1.767177,-0.05402 2.38125,0.0015 0.614073,0.05549 0.04493,0.10023 -1.264754,0.09942 -1.309687,-8.06e-4 -1.81211,-0.04621 -1.116496,-0.10089 z"
         id="path1622" />
      <path
         style="fill:#105b4b;stroke-width:1.48198"
         d="m 14.38428,85.279129 c 6.784563,-0.134635 6.978671,-0.153201 6.293163,-0.601941 -0.389029,-0.254661 -1.157999,-0.482075 -1.708822,-0.505363 l -1.001497,-0.04234 0.926042,-0.108812 c 2.109567,-0.24788 1.568808,-0.861268 -1.455208,-1.650656 C 16.12827,82.028136 14.520927,81.535605 13.866083,81.275503 13.211239,81.0154 12.080146,80.629498 11.352541,80.417941 l -1.322916,-0.384648 1.653646,0.143756 c 1.366244,0.118772 1.653645,0.07386 1.653645,-0.258414 0,-0.5409 -0.253352,-0.720365 -3.210232,-2.273997 C 7.1435311,76.077197 4.2358454,75.280386 0.81382981,75.092573 l -2.42587101,-0.13314 0.92604166,0.493937 c 0.50932289,0.271665 1.81901034,0.765525 2.91041654,1.097466 3.963287,1.205398 7.4048714,2.636962 6.3367705,2.635849 -0.4250774,-4.44e-4 -9.39992727,-2.920345 -10.7829037,-3.508139 -1.2374213,-0.52593 -0.6916734,-0.851717 2.11485097,-1.262471 2.43558143,-0.356464 5.37900153,-0.07646 7.29221943,0.693695 0.4729427,0.19038 0.8598958,0.281113 0.8598958,0.201628 0,-0.164479 -2.1898646,-2.161442 -3.7059939,-3.37954 -2.2781292,-1.830309 -4.70982521,-4.084509 -4.56372631,-4.230608 0.28771594,-0.287716 1.78104891,-0.140727 2.44888721,0.241044 0.5910332,0.337865 0.6051182,0.380012 0.1322916,0.39586 -0.465349,0.0156 -0.4334402,0.09977 0.2645834,0.697916 1.7274714,1.480301 2.0472691,1.721509 3.8950538,2.937844 1.0528035,0.693025 2.1635356,1.471486 2.4682936,1.729912 0.6368819,0.540059 5.3450816,3.366592 5.6077836,3.366592 0.09614,0 -0.245363,-0.446484 -0.7589,-0.992187 C 11.307179,73.393642 7.1802155,67.27672 6.8559539,65.736183 6.6746424,64.874788 6.6853931,64.861103 7.2915061,65.181761 c 1.7050292,0.902029 4.4394179,2.946912 4.5946729,3.436076 0.100537,0.316766 0.32682,0.495333 0.529254,0.417652 0.194495,-0.07464 0.511161,0.06558 0.703701,0.311594 0.314592,0.401958 0.303144,0.410489 -0.112947,0.08417 -0.269719,-0.211529 -0.463021,-0.247033 -0.463021,-0.08505 0,0.352709 0.665624,1.02285 1.409694,1.419262 0.537431,0.286323 0.548956,0.274344 0.177806,-0.184813 -0.352777,-0.436428 -0.352777,-0.466167 0,-0.267656 0.816535,0.45947 1.305057,1.016743 1.141967,1.302676 -0.09266,0.162453 -0.07333,0.209391 0.04296,0.104309 0.116287,-0.105083 0.567045,0.108169 1.001685,0.473894 1.037137,0.872694 1.240355,0.622163 0.35185,-0.433765 -0.386312,-0.459106 -1.162693,-1.757199 -1.725289,-2.884652 -0.562597,-1.127452 -1.503294,-2.810677 -2.090438,-3.740499 -1.127949,-1.786261 -2.797522,-5.209018 -3.0831943,-6.320793 -0.09348,-0.363802 0.3822153,0.350573 1.0571003,1.5875 0.674884,1.236927 1.396573,2.436927 1.603753,2.666667 0.207181,0.229739 0.376692,0.520238 0.376692,0.645553 0,0.252078 1.90754,3.510685 2.785013,4.757571 0.307222,0.436563 0.785156,1.329531 1.062074,1.984375 0.276919,0.654844 0.834297,1.761411 1.238617,2.459039 0.404321,0.697628 0.735129,1.367659 0.735129,1.488957 0,0.121299 0.178594,0.368763 0.396875,0.549921 0.34015,0.282299 0.396875,0.194619 0.396875,-0.613447 0,-1.10618 0.386129,-1.471117 0.779279,-0.736509 0.284108,0.530861 1.166799,4.972061 1.444667,7.26875 0.142849,1.1807 0.118932,1.258232 -0.285664,0.926041 -0.242862,-0.199399 -0.981498,-1.195982 -1.641413,-2.214627 -0.659916,-1.018646 -2.438635,-3.340365 -3.952708,-5.159375 -1.514073,-1.81901 -2.872776,-3.545417 -3.01934,-3.836458 -0.279352,-0.554728 -5.0096466,-4.953275 -5.5041152,-5.118098 -0.7418827,-0.247294 0.6694548,1.879723 2.5182129,3.795181 1.1236273,1.164167 2.6377243,2.801276 3.3646583,3.638021 1.138525,1.31051 1.243988,1.521354 0.760975,1.521354 h -0.560723 l 0.530763,1.040382 c 0.29192,0.572209 0.653469,1.116218 0.803443,1.208907 0.149974,0.09269 0.20418,0.279361 0.120458,0.414826 -0.08372,0.135466 -0.02757,0.246301 0.124791,0.246301 0.152358,0 1.007712,0.922735 1.900787,2.050521 0.893075,1.127787 1.824695,2.169583 2.070268,2.315104 1.186577,0.703139 2.397744,1.828283 2.397744,2.227445 0,0.877345 0.571252,1.081149 2.897187,1.033622 1.244203,-0.02542 1.76834,-0.09121 1.164749,-0.146183 -1.0953,-0.09976 -1.097218,-0.101866 -0.984043,-1.078255 0.06237,-0.538062 -0.04641,-2.168921 -0.241735,-3.624129 -0.195322,-1.455208 -0.262812,-2.684089 -0.149977,-2.730847 0.112834,-0.04676 0.103064,-0.284883 -0.02171,-0.529167 -0.124775,-0.244284 -0.554283,-1.932433 -0.954463,-3.751444 -0.400179,-1.81901 -0.898857,-3.962135 -1.108172,-4.762499 -0.596183,-2.279649 -0.907143,-3.984851 -0.997169,-5.468157 -0.04564,-0.751913 -0.201767,-1.579384 -0.346957,-1.838826 -0.219075,-0.391464 -0.304519,-0.271418 -0.502258,0.705656 -0.13105,0.647553 -0.172529,1.207045 -0.09218,1.243316 0.08035,0.03627 0.130233,0.696333 0.110843,1.466805 -0.01939,0.770471 0.06642,2.044047 0.190689,2.830169 0.324718,2.05415 0.09876,1.939669 -0.387008,-0.196075 -0.493816,-2.171143 -0.879979,-7.742464 -0.535808,-7.730307 0.610344,0.02156 1.208838,0.874726 2.231247,3.180691 1.293028,2.916324 2.372593,5.965575 2.372593,6.70143 0,1.175301 0.311678,0.08884 0.420301,-1.46511 0.726324,-10.390652 1.127744,-13.717092 1.655318,-13.717092 0.238246,0 1.486004,3.141154 1.315492,3.311667 -0.0718,0.0718 -0.289199,-0.35018 -0.483109,-0.937733 -0.374409,-1.134471 -0.77964,-0.98771 -0.787284,0.285129 -0.0022,0.371078 -0.104883,0.787796 -0.228122,0.926041 -0.221678,0.248669 -0.918717,5.109346 -0.79865,5.569238 0.03423,0.131101 -0.0259,1.309929 -0.133613,2.619616 -0.318377,3.871099 -0.304192,8.038016 0.0285,8.370703 0.415921,0.415922 1.229896,-2.520703 1.770165,-6.386328 0.233891,-1.67349 0.569342,-3.876146 0.745448,-4.894792 0.357655,-2.068777 0.35251,-1.854089 0.09183,-3.83166 -0.105155,-0.797726 -0.131131,-1.390351 -0.05772,-1.316944 0.304651,0.304651 1.023583,4.265687 1.198598,6.603813 l 0.188146,2.513541 0.583676,-1.322916 c 1.44423,-3.27339 2.667287,-5.354368 4.006066,-6.816147 0.794883,-0.867914 1.489068,-1.446545 1.542634,-1.285849 0.113769,0.341308 -0.472888,2.238513 -0.640399,2.071002 -0.06233,-0.06233 0.01376,-0.447579 0.169082,-0.856111 0.26153,-0.687877 0.211308,-0.666141 -0.679394,0.294035 -0.853773,0.920366 -2.634236,4.244467 -3.141676,5.865466 -0.102496,0.327421 -0.301585,0.595312 -0.44242,0.595312 -0.154714,0 -0.142283,0.212599 0.03141,0.537143 0.223214,0.417079 0.142657,1.023273 -0.360393,2.711979 -0.944071,3.169185 -1.084035,4.159211 -0.588006,4.159211 0.444088,0 1.375003,-1.244821 1.120923,-1.498901 -0.199188,-0.199188 2.109302,-3.521437 3.554672,-5.115682 l 1.07944,-1.190625 -1.159193,1.5875 c -1.247849,1.708913 -2.170655,3.094522 -2.202633,3.307291 -0.07464,0.496618 -0.530737,1.559338 -0.90843,2.116667 -0.246542,0.363802 -0.607097,1.078177 -0.801233,1.5875 -0.194135,0.509323 -0.608142,1.223698 -0.920014,1.5875 -1.548978,1.806896 -3.858909,6.361114 -3.824659,7.540624 l 0.01537,0.529167 0.227391,-0.529167 c 0.203696,-0.474026 0.229329,-0.455646 0.245987,0.176389 0.01023,0.388056 -0.130232,0.765945 -0.312133,0.839753 -0.248887,0.100989 -0.232518,0.203653 0.06615,0.414872 0.640246,0.45279 0.989393,0.334895 1.172843,-0.39603 0.119832,-0.477448 0.26872,-0.612535 0.491704,-0.446126 0.175905,0.131274 0.750516,0.268606 1.276912,0.30518 0.808903,0.0562 1.494219,-0.282958 4.426342,-2.190584 1.908092,-1.241396 4.989747,-3.046111 6.848124,-4.010478 3.895574,-2.021529 5.260904,-2.808831 5.70704,-3.290903 0.248245,-0.268239 0.245389,-0.302443 -0.01307,-0.156523 -0.181901,0.102697 -0.330729,0.07798 -0.330729,-0.05493 0,-0.203072 3.440712,-1.380494 4.026591,-1.377912 0.489254,0.0022 -0.177551,0.767075 -0.80459,0.922978 -1.259386,0.313125 -4.015751,1.740972 -4.015751,2.080231 0,0.188509 0.311348,0.319916 0.727604,0.307091 0.400182,-0.01233 0.703244,-0.150473 0.673471,-0.306984 -0.02991,-0.157223 0.325296,-0.278549 0.79375,-0.27112 0.549517,0.0087 0.8223,-0.103992 0.775182,-0.320288 -0.04057,-0.186224 0.0573,-0.25339 0.22142,-0.151959 0.368929,0.22801 2.12732,-0.52765 3.687739,-1.584789 l 1.190625,-0.806614 -1.322917,-0.15687 -1.322916,-0.156871 1.51305,-0.04157 c 1.848964,-0.05079 1.844553,0.357941 -0.01577,1.461094 -1.736292,1.029604 -7.015515,3.453713 -8.905613,4.089272 -0.873125,0.293594 -2.108512,0.822391 -2.745304,1.175104 -0.636793,0.352713 -1.307834,0.641296 -1.491204,0.641296 -0.426835,0 -3.637698,2.135863 -3.46719,2.306371 0.07048,0.07048 0.88014,-0.133002 1.799252,-0.452173 1.444952,-0.501776 2.566299,-0.613474 8.285696,-0.825346 3.63802,-0.134768 7.18013,-0.345608 7.871353,-0.468532 0.701552,-0.12476 1.256771,-0.122566 1.256771,0.005 0,0.125655 0.0893,0.214364 0.198438,0.197132 0.10914,-0.01723 0.496093,-4.69e-4 0.859896,0.03725 0.387619,0.04019 0.113781,0.14797 -0.661459,0.260338 -0.727604,0.105464 -2.334948,0.374631 -3.571875,0.59815 -1.236927,0.223519 -3.022864,0.482156 -3.968749,0.57475 -3.367698,0.329668 -6.085417,0.760828 -6.085417,0.965439 0,0.114257 1.220391,0.202915 2.711979,0.197018 1.491589,-0.0059 3.009636,0.113155 3.373438,0.26456 0.550694,0.229186 0.35132,0.278792 -1.190625,0.296242 -3.137916,0.03551 -7.964639,0.513079 -9.171293,0.907434 -0.631101,0.206254 -2.576207,0.451918 -4.322457,0.545921 -1.74625,0.094 -5.258593,0.281692 -7.805208,0.417088 -2.546614,0.135397 -7.368645,0.222235 -10.715624,0.192974 l -6.0854163,-0.0532 z m 30.560308,-8.986224 c 0.07297,-0.118071 -0.162809,-0.214674 -0.523957,-0.214674 -0.361148,0 -0.656633,0.07884 -0.656633,0.175206 0,0.25695 1.025001,0.291217 1.18059,0.03947 z"
         id="path1621" />
      <path
         style="fill:#042d1c;stroke-width:1.48198"
         d="m 26.466477,55.496649 c -0.255317,-0.665346 -0.179999,-0.837024 0.131904,-0.300656 0.154434,0.265576 0.225054,0.538601 0.156932,0.606723 -0.06812,0.06812 -0.198098,-0.06961 -0.288836,-0.306067 z"
         id="path2261" />
      <path
         style="fill:#042d1c;stroke-width:1.48198"
         d="m 34.165503,58.007085 c 0.32338,-0.340299 0.639141,-0.565809 0.701691,-0.501134 0.06255,0.06468 -0.202033,0.343103 -0.587963,0.618727 l -0.701691,0.501133 z"
         id="path2249" />
      <path
         style="fill:#042d1c;stroke-width:1.48198"
         d="m 34.503582,58.697492 c 0,-0.209693 0.107959,-0.447982 0.239909,-0.529531 0.131949,-0.08155 0.177594,0.09002 0.101432,0.38126 -0.161557,0.617798 -0.341341,0.695893 -0.341341,0.148271 z"
         id="path2245" />
      <path
         style="fill:#042d1c;stroke-width:1.48198"
         d="m 32.651499,59.508024 c 0,-0.05494 0.208359,-0.263301 0.463021,-0.463021 0.419643,-0.329107 0.429002,-0.319749 0.09989,0.09989 -0.345643,0.440729 -0.562915,0.580887 -0.562915,0.363126 z"
         id="path2243" />
      <path
         style="fill:#042d1c;stroke-width:1.48198"
         d="m 27.793923,60.346017 c -0.08925,-0.333193 -0.151948,-0.843931 -0.139317,-1.134973 0.01263,-0.291042 0.131941,-0.06471 0.265133,0.502955 0.257953,1.099396 0.147719,1.653138 -0.125816,0.632018 z"
         id="path2235" />
      <path
         style="fill:#042d1c;stroke-width:1.48198"
         d="m 25.023239,59.872502 c -0.03891,-2.1629 0.411211,-5.067177 0.85396,-5.509926 0.241895,-0.241895 0.4243,-0.295661 0.4243,-0.125068 0,0.164577 -0.137448,0.345047 -0.305441,0.401044 -0.182467,0.06082 -0.435476,1.374618 -0.62842,3.263195 -0.177639,1.738759 -0.332619,2.625599 -0.344399,1.970755 z"
         id="path2234" />
      <path
         style="fill:#042d1c;stroke-width:1.48198"
         d="m 41.647332,61.271913 c 0,-0.151956 0.208359,-0.43969 0.46302,-0.63941 0.428296,-0.335892 0.433911,-0.32344 0.07487,0.166041 -0.213484,0.291042 -0.421843,0.578776 -0.463021,0.63941 -0.04118,0.06063 -0.07487,-0.01408 -0.07487,-0.166041 z"
         id="path2231" />
      <path
         style="fill:#042d1c;stroke-width:1.48198"
         d="m 20.910227,61.846649 c -0.255317,-0.665346 -0.179999,-0.837024 0.131904,-0.300656 0.154435,0.265575 0.225054,0.538601 0.156932,0.606723 -0.06812,0.06812 -0.198098,-0.06961 -0.288836,-0.306067 z"
         id="path2226" />
      <path
         style="fill:#042d1c;stroke-width:1.48198"
         d="m 19.206693,60.86469 c -0.04598,-1.429211 0.207399,-1.912262 0.63778,-1.215891 0.113715,0.183994 0.07291,0.233849 -0.10261,0.125371 -0.19415,-0.119992 -0.323906,0.28578 -0.388812,1.21589 l -0.09742,1.395984 z"
         id="path2225" />
      <path
         style="fill:#042d1c;stroke-width:1.48198"
         d="m 10.517001,60.7816 c -0.370686,-0.809684 -0.6278037,-1.518323 -0.5713734,-1.574753 0.05643,-0.05643 0.4157994,0.606038 0.7985984,1.472152 0.382799,0.866114 0.639917,1.574753 0.571373,1.574753 -0.06854,0 -0.427913,-0.662468 -0.798598,-1.472152 z"
         id="path2224" />
      <path
         style="fill:#042d1c;stroke-width:1.48198"
         d="m 28.205162,61.856877 c 0.0054,-0.436562 0.06469,-0.583124 0.131774,-0.325693 0.06708,0.257431 0.06267,0.614618 -0.0098,0.79375 -0.07247,0.179131 -0.127362,-0.03149 -0.12197,-0.468057 z"
         id="path2220" />
      <path
         style="fill:#042d1c;stroke-width:1.48198"
         d="m 24.775383,61.989169 c 0,-0.509323 0.05445,-0.717682 0.121,-0.463021 0.06655,0.254661 0.06655,0.67138 0,0.926042 -0.06655,0.254661 -0.121,0.0463 -0.121,-0.463021 z"
         id="path2218" />
      <path
         style="fill:#042d1c;stroke-width:1.48198"
         d="m 19.504319,64.238127 c 0.0015,-0.873125 0.05088,-1.198414 0.109766,-0.722866 0.05889,0.475549 0.05767,1.189924 -0.0027,1.5875 -0.06037,0.397576 -0.10855,0.0085 -0.107065,-0.864634 z"
         id="path2201" />
      <path
         style="fill:#042d1c;stroke-width:1.48198"
         d="m 6.7223334,65.280845 c 0,-0.226869 0.1210046,-0.337704 0.2688992,-0.246301 0.1478945,0.0914 0.2003991,0.277025 0.1166767,0.41249 -0.2268113,0.366989 -0.3855759,0.298559 -0.3855759,-0.166189 z"
         id="path2200" />
      <path
         style="fill:#042d1c;stroke-width:1.48198"
         d="M 7.7806667,65.693335 C 7.5421999,65.539226 7.509566,65.435238 7.6989059,65.432804 c 0.1733129,-0.0022 0.3886989,0.11501 0.4786358,0.260531 0.203016,0.328487 0.1114221,0.328487 -0.396875,0 z"
         id="path2198" />
      <path
         style="fill:#042d1c;stroke-width:1.48198"
         d="m 24.500996,65.561044 c 0.0054,-0.436563 0.06469,-0.583125 0.131774,-0.325694 0.06708,0.257431 0.06267,0.614618 -0.0098,0.79375 -0.07248,0.179131 -0.127362,-0.03149 -0.12197,-0.468056 z"
         id="path2196" />
      <path
         style="fill:#042d1c;stroke-width:1.48198"
         d="m 29.220019,66.354794 c 0,-0.145521 0.115416,-0.443177 0.25648,-0.661459 0.141064,-0.218281 0.25648,-0.277812 0.25648,-0.132291 0,0.14552 -0.115416,0.443177 -0.25648,0.661458 -0.141064,0.218281 -0.25648,0.277812 -0.25648,0.132292 z"
         id="path2194" />
      <path
         style="fill:#042d1c;stroke-width:1.48198"
         d="m 28.50712,64.899585 c 0,-1.091406 0.0467,-1.53789 0.103786,-0.992187 0.05708,0.545703 0.05708,1.438672 0,1.984375 -0.05708,0.545703 -0.103786,0.09922 -0.103786,-0.992188 z"
         id="path2192" />
      <path
         style="fill:#042d1c;stroke-width:1.48198"
         d="M 9.1035833,66.619377 C 8.7397812,66.411409 8.5681967,66.237034 8.7222844,66.231878 c 0.1540877,-0.0052 0.5112752,0.165431 0.79375,0.379084 0.6532496,0.494094 0.4446015,0.498351 -0.4124511,0.0084 z"
         id="path2191" />
      <path
         style="fill:#042d1c;stroke-width:1.48198"
         d="m 33.312957,67.016252 c 0.263389,-0.291042 0.53842,-0.529167 0.611181,-0.529167 0.07276,0 -0.08321,0.238125 -0.346598,0.529167 -0.263389,0.291042 -0.53842,0.529167 -0.611181,0.529167 -0.07276,0 0.08321,-0.238125 0.346598,-0.529167 z"
         id="path2187" />
      <path
         style="fill:#042d1c;stroke-width:1.48198"
         d="m 23.309149,67.611564 c -0.06224,-0.10914 -0.264114,-0.674687 -0.44861,-1.25677 -0.184496,-0.582084 -0.61685,-1.619922 -0.960785,-2.306309 -0.343936,-0.686386 -0.619794,-1.34123 -0.613019,-1.455208 0.02224,-0.374079 1.36696,2.387288 1.859003,3.817434 0.423464,1.230822 0.499611,1.790399 0.163411,1.200853 z"
         id="path2185" />
      <path
         style="fill:#042d1c;stroke-width:1.48198"
         d="m 12.961379,65.275123 c -0.845613,-1.385706 -1.46704,-2.589905 -1.380948,-2.675996 0.08609,-0.08609 0.239854,0.06887 0.341696,0.34436 0.101841,0.27549 0.763474,1.439482 1.470294,2.58665 0.706821,1.147168 1.244923,2.125965 1.195782,2.175106 -0.04914,0.04914 -0.781211,-1.044414 -1.626824,-2.43012 z"
         id="path2184" />
      <path
         style="fill:#042d1c;stroke-width:1.48198"
         d="m 39.795248,69.812995 c 0,-0.07276 0.238125,-0.259732 0.529167,-0.415493 0.291042,-0.155761 0.529167,-0.22367 0.529167,-0.15091 0,0.07276 -0.238125,0.259732 -0.529167,0.415493 -0.291042,0.155761 -0.529167,0.22367 -0.529167,0.15091 z"
         id="path2178" />
      <path
         style="fill:#042d1c;stroke-width:1.48198"
         d="m 15.108408,68.997304 c -0.242007,-0.507495 -0.385466,-0.922719 -0.318797,-0.922719 0.181044,0 0.984229,1.620021 0.863193,1.741057 -0.05741,0.05741 -0.302388,-0.310842 -0.544396,-0.818338 z"
         id="path2177" />
      <path
         style="fill:#042d1c;stroke-width:1.48198"
         d="M 8.2150014,68.475531 C 7.6850756,67.677405 7.2515,66.935391 7.2515,66.826612 c 0,-0.183361 0.5579423,0.591762 1.7077183,2.372452 0.2583943,0.400183 0.41344,0.727604 0.3445461,0.727604 -0.068894,0 -0.5588373,-0.653012 -1.088763,-1.451137 z"
         id="path2176" />
      <path
         style="fill:#042d1c;stroke-width:1.48198"
         d="m 14.890667,71.051148 c -0.329107,-0.419644 -0.319749,-0.429003 0.0999,-0.0999 0.254662,0.199719 0.463021,0.408078 0.463021,0.463021 0,0.217761 -0.217272,0.0776 -0.562916,-0.363126 z"
         id="path2165" />
      <path
         style="fill:#042d1c;stroke-width:1.48198"
         d="m 43.740499,71.689709 c 0.386798,-0.481534 1.875582,-1.615409 1.875582,-1.428464 0,0.05831 -0.506015,0.50816 -1.124479,0.999658 -0.618463,0.491497 -0.95646,0.68446 -0.751103,0.428806 z"
         id="path2161" />
      <path
         style="fill:#042d1c;stroke-width:1.48198"
         d="m 36.620248,72.220092 c 0,-0.07276 0.47625,-0.509488 1.058334,-0.970507 0.582083,-0.461018 1.058333,-0.778684 1.058333,-0.705924 0,0.07276 -0.47625,0.509489 -1.058333,0.970507 -0.582084,0.461019 -1.058334,0.778685 -1.058334,0.705924 z"
         id="path2158" />
      <path
         style="fill:#042d1c;stroke-width:1.48198"
         d="m 2.4917074,70.329619 c -1.3809589,-1.231335 -2.55174009,-2.361508 -2.60173595,-2.511496 -0.0518899,-0.15567 0.28759668,-0.255691 0.79104282,-0.233061 0.82574083,0.03712 0.83447603,0.04677 0.13707267,0.151532 -0.73497543,0.110402 -0.7211955,0.133584 1.03718436,1.74482 0.9801308,0.898112 2.1948978,1.961016 2.6994822,2.362009 0.5045844,0.400993 0.8117576,0.728158 0.6826072,0.727033 -0.1291504,-0.0011 -1.3646944,-1.009501 -2.7456533,-2.240837 z"
         id="path2155" />
      <path
         style="fill:#042d1c;stroke-width:1.48198"
         d="m 33.974415,73.266357 c 0,-0.05494 0.20836,-0.263302 0.463021,-0.463021 0.419644,-0.329107 0.429002,-0.319749 0.0999,0.0999 -0.345644,0.440729 -0.562916,0.580887 -0.562916,0.363126 z"
         id="path2146" />
      <path
         style="fill:#042d1c;stroke-width:1.48198"
         d="m 1.8936878,74.23786 c 0.3274219,-0.06306 0.8632031,-0.06306 1.190625,0 0.3274218,0.06306 0.059531,0.114662 -0.5953125,0.114662 -0.6548437,0 -0.9227343,-0.0516 -0.5953125,-0.114662 z"
         id="path2137" />
      <path
         style="fill:#042d1c;stroke-width:1.48198"
         d="m 4.0268908,74.508428 c 0.1909961,-0.07643 0.4191992,-0.06703 0.5071181,0.02089 0.087919,0.08792 -0.068351,0.150453 -0.3472656,0.138964 -0.3082245,-0.0127 -0.3709192,-0.07539 -0.1598525,-0.159852 z"
         id="path2136" />
      <path
         style="fill:#042d1c;stroke-width:1.48198"
         d="M 11.411016,73.035522 C 9.8299237,70.993425 8.9380898,69.695711 9.5472499,70.323543 c 0.5553501,0.572373 3.8104131,4.894792 3.6860981,4.894792 -0.07276,0 -0.89281,-0.982266 -1.822332,-2.182813 z"
         id="path2133" />
      <path
         style="fill:#042d1c;stroke-width:1.48198"
         d="m 5.6640001,74.953752 -0.9260416,-0.194924 0.8442809,-0.03483 c 0.4643545,-0.01916 0.9178655,0.08423 1.0078023,0.229754 0.089937,0.14552 0.1267292,0.248909 0.081761,0.229753 -0.044968,-0.01916 -0.4984795,-0.122546 -1.0078026,-0.229753 z"
         id="path2132" />
      <path
         style="fill:#042d1c;stroke-width:1.48198"
         d="m -2.0089161,75.747501 c -0.6548438,-0.27478 -1.0120312,-0.497422 -0.79375,-0.494761 0.4447093,0.0054 2.66408539,0.98193 2.24895822,0.989523 -0.14552083,0.0027 -0.80036452,-0.219981 -1.45520822,-0.494762 z"
         id="path2129" />
      <path
         style="fill:#042d1c;stroke-width:1.48198"
         d="m 46.211394,78.198855 c 0.691224,-0.0545 1.822317,-0.0545 2.513541,0 0.691224,0.0545 0.125677,0.0991 -1.25677,0.0991 -1.382448,0 -1.947995,-0.04459 -1.256771,-0.0991 z"
         id="path2119" />
      <path
         style="fill:#042d1c;stroke-width:1.48198"
         d="M 5.5317085,78.251733 C 4.8700869,77.933056 4.8480655,77.896327 5.3994168,78.031088 6.1491139,78.214328 6.9918103,78.643843 6.5900417,78.637939 6.4445209,78.6358 5.9682709,78.462008 5.5317085,78.251733 Z"
         id="path2117" />
      <path
         style="fill:#042d1c;stroke-width:1.48198"
         d="m 48.195769,81.393106 c 0.181901,-0.0734 0.479557,-0.0734 0.661458,0 0.181901,0.0734 0.03307,0.133452 -0.330729,0.133452 -0.363802,0 -0.51263,-0.06005 -0.330729,-0.133452 z"
         id="path2106" />
      <path
         style="fill:#042d1c;stroke-width:1.48198"
         d="m 28.356758,84.816166 c 0.475549,-0.05889 1.189924,-0.05767 1.5875,0.0027 0.397576,0.06037 0.0085,0.10855 -0.864634,0.107065 -0.873125,-0.0015 -1.198415,-0.05088 -0.722866,-0.109765 z"
         id="path2092" />
      <path
         style="fill:#042d1c;stroke-width:1.48198"
         d="m 22.79577,85.077439 c 0.763984,-0.05345 2.014141,-0.05345 2.778125,0 0.763984,0.05345 0.138906,0.09718 -1.389063,0.09718 -1.527968,0 -2.153046,-0.04373 -1.389062,-0.09718 z"
         id="path2091" />
      <path
         style="fill:#042d1c;stroke-width:1.48198"
         d="m 43.830144,85.354699 c 0.254661,-0.06655 0.67138,-0.06655 0.926042,0 0.254661,0.06655 0.0463,0.121 -0.463021,0.121 -0.509323,0 -0.717682,-0.05445 -0.463021,-0.121 z"
         id="path2088" />
      <path
         style="fill:#042d1c;stroke-width:1.48198"
         d="m 11.433861,85.339319 c 1.790975,-0.04584 4.648475,-0.0457 6.349999,3.14e-4 1.701525,0.04601 0.236181,0.08352 -3.256319,0.08335 -3.492499,-1.73e-4 -4.8846557,-0.03782 -3.09368,-0.08366 z"
         id="path2087" />
    </g>
  </g>
</svg>
