<?xml version="1.0" encoding="UTF-8" standalone="no"?>
<!-- Created with Inkscape (http://www.inkscape.org/) -->

<svg
   width="185"
   height="185"
   viewBox="0 0 48.947914 48.947918"
   version="1.1"
   id="svg1"
   xmlns="http://www.w3.org/2000/svg"
   xmlns:svg="http://www.w3.org/2000/svg">
  <defs
     id="defs1" />
  <g
     id="layer1">
    <g
       id="g1383"
       style="display:inline;stroke-width:1.32859"
       transform="matrix(0.75267645,0,0,0.75267645,-77.635241,-27.138838)">
      <path
         style="fill:#fc8997;stroke-width:1.32859"
         d="m 133.62132,41.342359 c -0.0959,-0.155202 -0.11766,-0.338931 -0.0483,-0.408286 0.0694,-0.06935 0.19661,0.05763 0.28278,0.282187 0.17891,0.466224 0.0264,0.548232 -0.23447,0.126099 z"
         id="path794" />
      <path
         style="fill:#fc8997;stroke-width:1.32859"
         d="m 132.8898,100.86722 c -4.86861,-0.51432 -9.57304,-1.938983 -13.38042,-4.05205 -2.54563,-1.4128 -5.42904,-3.825745 -5.54632,-4.641354 l -0.09,-0.625695 3.26496,0.154348 c 2.83033,0.1338 3.60077,0.275912 5.78746,1.067541 3.35914,1.216075 5.76572,2.454925 8.32543,4.285735 2.42811,1.736687 2.31517,1.58225 -2.51547,-3.439813 -3.2239,-3.35166 -5.96267,-7.046182 -7.45916,-10.062199 -0.70177,-1.41433 -1.16943,-3.299156 -0.81913,-3.301327 0.11573,-7.17e-4 1.46058,0.624062 2.98855,1.388398 2.43484,1.21798 3.11368,1.72192 5.49372,4.078274 2.83114,2.802964 3.33415,3.597158 4.68758,7.401043 l 0.64683,1.817963 0.007,-10.054166 0.007,-10.054166 -0.9427,-1.190625 c -0.51849,-0.654844 -1.2301,-1.515214 -1.58137,-1.911933 -0.56294,-0.635786 -1.64491,-2.094454 -4.63177,-6.244366 -0.4532,-0.629663 -0.76045,-1.208391 -0.68278,-1.286061 0.24183,-0.241825 3.40001,0.941269 4.44407,1.6648 1.20008,0.831658 1.65583,1.496299 2.49041,3.63189 l 0.63783,1.632129 -0.0627,-4.706472 c -0.0514,-3.858773 -0.13419,-4.747763 -0.45959,-4.93573 -0.46946,-0.271192 -3.8836,-2.385545 -6.09416,-3.774067 -0.85884,-0.539469 -1.6251,-0.878007 -1.70278,-0.752307 -0.39312,0.636081 -2.69522,1.865451 -3.49321,1.865451 -0.73409,0 -0.88226,-0.09909 -0.89019,-0.595312 -0.009,-0.579556 -0.0253,-0.576054 -0.60526,0.132291 -0.32765,0.400183 -0.80137,0.727605 -1.0527,0.727605 -0.72734,0 -1.54244,-1.558104 -1.41874,-2.711979 0.103,-0.960687 0.0797,-0.992188 -0.73439,-0.992188 -0.94095,0 -1.43226,-0.325145 -2.08489,-1.379753 -0.55325,-0.894015 -0.55295,-1.107055 0.003,-2.3678 0.47165,-1.069009 0.63929,-1.12512 3.12409,-1.045624 0.67062,0.02146 0.71166,-0.01039 0.26458,-0.205319 -0.85588,-0.373156 -1.48595,-1.237977 -1.74637,-2.397013 -0.22846,-1.016809 -0.19041,-1.135904 0.61918,-1.938066 1.37413,-1.361512 2.81958,-1.884826 4.67146,-1.691266 l 1.56887,0.16398 -0.25641,-0.928656 c -0.34424,-1.246734 -0.11281,-1.832411 0.99447,-2.516752 0.6645,-0.410684 1.18051,-0.533411 1.81192,-0.430947 0.82446,0.13379 0.8925,0.08779 1.02907,-0.695698 0.5162,-2.961391 0.67477,-3.185293 1.93298,-2.729293 1.32169,0.479009 2.51501,1.773735 3.71651,4.032338 0.67393,1.266881 1.24761,2.049683 1.45521,1.985689 0.18848,-0.0581 0.67011,-0.160912 1.0703,-0.228468 0.81487,-0.137561 0.91409,-0.508812 0.33914,-1.268969 -0.37874,-0.500742 -0.38867,-0.498697 -0.39688,0.08172 -0.0114,0.807831 -0.96688,0.807831 -1.21093,0 -0.0989,-0.327422 -0.48067,-0.916757 -0.84835,-1.309633 -0.55755,-0.595757 -0.64184,-0.881209 -0.50784,-1.719791 0.17008,-1.064367 1.09909,-2.038014 2.2108,-2.317035 0.73385,-0.184186 2.3596,0.81402 3.21906,1.976495 0.53679,0.726049 0.55233,0.847695 0.19626,1.536255 -0.21268,0.411274 -0.58098,0.909021 -0.81845,1.106105 -0.23747,0.197084 -0.59213,0.668443 -0.78813,1.047466 -0.33394,0.645768 -0.30808,0.716842 0.41094,1.129507 0.74248,0.426124 0.79311,0.418669 1.56444,-0.23036 0.43842,-0.368905 0.79712,-0.797668 0.79712,-0.952807 0,-0.155139 -0.20836,-0.09911 -0.46302,0.124517 -0.51972,0.456377 -1.65364,0.863687 -1.65364,0.593996 0,-0.09648 0.22332,-0.491459 0.49627,-0.877725 0.27294,-0.386266 0.582,-1.098099 0.68679,-1.581851 0.27199,-1.255573 1.57924,-2.632048 2.81596,-2.965061 1.15104,-0.309943 1.55301,-0.184963 1.56564,0.486787 0.005,0.246073 0.18322,0.678522 0.39688,0.960997 0.21365,0.282474 0.38846,0.967084 0.38846,1.521354 0,0.961261 0.31083,1.310499 0.66145,0.74318 0.28984,-0.468961 1.30232,-0.265975 2.07864,0.416732 0.94138,0.827856 1.62968,3.158709 1.23743,4.190401 -0.14314,0.376493 -0.15688,0.684533 -0.0305,0.684533 0.12635,0 0.29157,-0.161172 0.36716,-0.358161 0.0756,-0.196989 0.69307,-0.683781 1.37217,-1.08176 1.57426,-0.922577 2.2353,-0.770061 3.72161,0.858659 0.9971,1.092635 1.12234,1.366608 1.03699,2.268518 -0.0542,0.572507 -0.34646,1.291245 -0.66142,1.626505 l -0.56433,0.600707 0.77301,0.456632 c 0.69873,0.412747 1.3849,1.637256 1.3849,2.471419 0,0.57131 -1.11079,1.846261 -1.8896,2.168853 -0.85822,0.355486 -0.85879,0.356798 -0.46915,1.084832 0.43522,0.813226 0.0943,1.635562 -0.84987,2.050129 -0.806,0.353892 -0.87811,0.337478 -1.45288,-0.33073 -0.73047,-0.849225 -0.79254,-0.857945 -0.98086,-0.1378 -0.13077,0.500069 -0.28656,0.549667 -1.34996,0.429806 -0.66117,-0.07452 -1.47174,-0.328088 -1.80126,-0.563477 -0.32952,-0.235389 -0.83737,-0.602231 -1.12856,-0.815206 -0.48664,-0.355933 -0.68266,-0.282689 -2.42556,0.90631 -1.04288,0.711445 -2.70963,1.730894 -3.70391,2.265441 -0.99427,0.534547 -1.95659,1.092964 -2.13849,1.240926 -0.24073,0.195815 -0.33005,1.466204 -0.32824,4.668397 l 0.002,4.399374 1.04164,-2.116667 c 1.14201,-2.32064 1.85556,-2.963075 4.27212,-3.846358 2.2627,-0.827045 2.94807,-0.640945 1.75885,0.477586 -0.32742,0.30796 -1.19062,1.402778 -1.91823,2.432928 -0.7276,1.030151 -2.1998,3.090891 -3.27154,4.579423 l -1.94862,2.706421 0.16268,2.355751 c 0.0895,1.295663 0.1685,5.820037 0.1756,10.054166 l 0.0129,7.698415 0.74451,-2.17615 c 1.27046,-3.713452 3.21546,-6.476959 6.36574,-9.044585 1.60085,-1.304776 5.64759,-3.728222 6.22549,-3.728222 0.45595,0 -0.14863,2.242002 -1.15753,4.292588 -1.21635,2.472207 -3.3947,5.42514 -8.30142,11.253261 -1.85539,2.203804 -3.37343,4.158704 -3.37343,4.344223 0,0.185523 0.8632,-0.510472 1.91823,-1.546647 2.97313,-2.920011 6.81553,-5.338709 9.96788,-6.274537 1.96587,-0.583602 7.38868,-1.102014 7.74982,-0.740871 0.38064,0.38064 -0.61638,1.939602 -1.85806,2.905317 -4.0502,3.150027 -7.12711,4.745771 -11.08836,5.750622 -4.45652,1.130489 -7.24743,1.346869 -11.53295,0.894139 z m 0.45641,-43.962988 c -0.36364,-2.556592 -2.1697,-8.40052 -2.59616,-8.40052 -0.0436,0 -0.45516,0.187523 -0.91459,0.416718 -0.45944,0.229195 -1.16234,0.395172 -1.56201,0.368839 -2.0522,-0.135216 -2.21658,0.396621 -0.46508,1.504706 0.80043,0.50639 1.14447,0.887352 1.05524,1.168489 -0.082,0.25852 0.7491,1.489009 2.1858,3.236002 1.27501,1.550376 2.34937,2.821426 2.38747,2.824556 0.0381,0.0031 -0.003,-0.500326 -0.0907,-1.11879 z m 7.2313,-2.641528 c 0.76398,-0.836584 1.38906,-1.744776 1.38906,-2.018204 0,-0.273428 0.67517,-1.166949 1.50038,-1.985601 0.8252,-0.818653 1.44118,-1.547653 1.36883,-1.62 -0.0723,-0.07235 -0.60602,0.09771 -1.18594,0.377895 -0.57993,0.280189 -1.721,0.545985 -2.53571,0.590658 l -1.4813,0.08122 -0.67592,1.987206 c -0.37175,1.092963 -0.86496,2.761112 -1.09602,3.706997 -0.23106,0.945885 -0.48683,1.957917 -0.56837,2.248958 -0.0877,0.313069 0.26914,0.04377 0.87384,-0.659452 0.56215,-0.653741 1.64716,-1.873097 2.41115,-2.70968 z m -3.78748,-4.39259 c -0.0397,-0.04884 -0.20691,0.162796 -0.37148,0.470311 -0.20546,0.383903 -0.23406,1.282333 -0.0913,2.866931 l 0.20796,2.307814 0.16352,-2.778125 c 0.0899,-1.527969 0.13101,-2.818088 0.0913,-2.866931 z m -14.14897,4.123702 c 0.28652,-0.618464 0.50664,-1.529096 0.48914,-2.023628 -0.0244,-0.689439 0.13212,-1.018557 0.67103,-1.41113 0.74588,-0.543336 0.95593,-1.077523 0.32911,-0.83699 -0.21975,0.08432 -0.42513,-0.05537 -0.49848,-0.339033 -0.0986,-0.381441 -0.13116,-0.355863 -0.15543,0.122173 -0.0264,0.520172 -0.1046,0.565066 -0.55986,0.32142 -0.29104,-0.15576 -0.53229,-0.487371 -0.5361,-0.736913 -0.004,-0.249541 -0.23714,-0.929961 -0.51849,-1.512045 -0.44946,-0.929877 -0.49255,-0.961991 -0.35498,-0.264583 0.0861,0.436562 0.30646,1.24299 0.48965,1.792062 0.29841,0.894399 0.283,1.025115 -0.14808,1.255821 -0.26464,0.141631 -0.68792,0.178173 -0.94061,0.0812 -0.31277,-0.120022 -0.39837,-0.07749 -0.26814,0.13324 0.10843,0.175433 0.0413,0.313033 -0.15503,0.317592 -0.19049,0.0044 -0.10822,0.141047 0.18282,0.303604 0.76663,0.428187 0.76819,0.431574 0.40218,0.872582 -0.27052,0.32596 -0.26906,0.403269 0.008,0.403269 0.18826,0 0.54616,0.184495 0.79533,0.409989 0.35211,0.318657 0.40716,0.61336 0.24713,1.322916 -0.27467,1.217855 -0.11006,1.151043 0.5212,-0.211551 z m 27.74589,-0.19357 c -1.31606,-1.268509 -1.35019,-1.337132 -0.90793,-1.825816 0.33894,-0.374524 0.37647,-0.559098 0.14301,-0.703381 -0.21696,-0.13409 -0.0321,-0.454412 0.58782,-1.018455 0.49737,-0.452562 0.78683,-0.733544 0.64323,-0.624403 -0.1436,0.109141 -0.48929,0.198437 -0.76819,0.198437 -0.39823,0 -0.47995,-0.142002 -0.38065,-0.661458 0.1594,-0.833837 0.008,-0.830339 -0.87974,0.02035 -0.66258,0.634789 -0.68639,0.732443 -0.34534,1.416101 0.28411,0.56952 0.3009,0.92193 0.0748,1.570463 -0.34797,0.998207 -0.16425,1.620233 0.48189,1.631554 0.25923,0.0045 0.94757,0.301588 1.52966,0.660102 0.58208,0.358515 1.0877,0.652456 1.1236,0.653201 0.0359,7.46e-4 -0.55009,-0.591766 -1.30218,-1.316693 z m -16.43911,-3.37327 c -0.0671,-0.257431 -0.12638,-0.110868 -0.13177,0.325694 -0.005,0.436563 0.0495,0.647188 0.12197,0.468056 0.0725,-0.179131 0.0769,-0.536319 0.01,-0.79375 z m 1.66873,0.07042 c 0,-0.06764 -0.23812,-0.250423 -0.52917,-0.406184 -0.31889,-0.170665 -0.52916,-0.182074 -0.52916,-0.02871 0,0.139971 0.20836,0.308942 0.46302,0.375492 0.25466,0.06655 0.49278,0.134812 0.52916,0.151692 0.0364,0.01688 0.0661,-0.02465 0.0661,-0.09229 z m 12.10758,-3.118163 c -0.0973,-0.578921 -0.10981,-0.575494 -0.45418,0.124456 -0.29812,0.605957 -0.29567,0.790666 0.0155,1.168139 0.34172,0.414515 0.37602,0.405117 0.45418,-0.124456 0.0465,-0.315055 0.0395,-0.840717 -0.0155,-1.168139 z m -5.83601,-2.477777 c 0.0973,-0.293259 -1.78845,-0.310248 -2.23667,-0.02015 -0.18191,0.117729 -0.4498,0.140468 -0.59532,0.05053 -0.33858,-0.209253 -0.33651,0.03268 0.006,0.672179 0.26425,0.493759 0.29814,0.494171 1.50943,0.01837 0.68151,-0.2677 1.27408,-0.592119 1.31682,-0.720931 z m -8.92582,-0.1448 c 0.0159,-0.331495 -1.97834,-0.476922 -3.43117,-0.250211 -0.80036,0.124896 -1.15755,0.250306 -0.79375,0.278688 0.61193,0.04774 0.62184,0.06863 0.1323,0.278996 -0.48984,0.21049 -0.48001,0.231413 0.13229,0.281519 0.3638,0.02977 1.1545,0.02851 1.7571,-0.0028 0.6026,-0.03131 1.17958,0.07889 1.28217,0.244884 0.1285,0.207919 0.29947,0.152843 0.54959,-0.177047 0.19968,-0.26337 0.36684,-0.557686 0.37147,-0.654035 z"
         id="path792" />
      <path
         style="fill:#fd778c;stroke-width:1.32859"
         d="m 130.4276,38.600128 c -0.087,-0.226669 -0.2945,-0.335811 -0.46115,-0.242538 -0.18026,0.10089 -0.16827,0.02448 0.0296,-0.188618 0.27881,-0.300252 0.40063,-0.290194 0.753,0.06217 0.28808,0.288087 0.32853,0.477135 0.12853,0.600743 -0.16051,0.0992 -0.36301,-0.0051 -0.44999,-0.231757 z"
         id="path1000" />
      <path
         style="fill:#fd778c;stroke-width:1.32859"
         d="m 127.76859,39.838609 c 0.29817,-2.038938 0.50935,-2.711979 0.85094,-2.711979 0.19317,0 0.43732,0.139296 0.54254,0.309546 0.12333,0.199554 0.0539,0.256802 -0.19551,0.161111 -0.28914,-0.110955 -0.47069,0.212332 -0.71899,1.28035 -0.1827,0.785831 -0.25927,1.546769 -0.17014,1.690972 0.0891,0.144203 0.0234,0.262188 -0.14595,0.262188 -0.20531,0 -0.25961,-0.330798 -0.16289,-0.992188 z"
         id="path999" />
      <path
         style="fill:#fd778c;stroke-width:1.32859"
         d="m 124.3227,41.439377 c 0.0935,-0.151303 0.51979,-0.419977 0.94729,-0.597054 0.64936,-0.268972 0.93489,-0.24717 1.73493,0.132477 1.14973,0.54558 1.0966,0.769487 -0.0849,0.35763 -0.82084,-0.286145 -1.20793,-0.256223 -2.26097,0.17477 -0.32828,0.134361 -0.44661,0.110504 -0.3364,-0.06782 z"
         id="path998" />
      <path
         style="fill:#fd778c;stroke-width:1.32859"
         d="m 143.39518,40.897831 c 0.0313,-0.613389 -0.069,-1.16766 -0.22281,-1.231714 -0.15387,-0.06405 -0.10444,-0.12586 0.10984,-0.137349 0.26826,-0.01438 0.20631,-0.149273 -0.1989,-0.433091 -0.32368,-0.226712 -0.72575,-0.327378 -0.8935,-0.223703 -0.19487,0.120438 -0.23281,0.07169 -0.10507,-0.135001 0.10997,-0.177926 0.36649,-0.25959 0.57005,-0.181476 0.4384,0.168229 0.47076,-0.08447 0.0813,-0.635117 -0.19027,-0.269037 -0.32089,-0.299391 -0.40551,-0.09423 -0.0687,0.166452 -0.3377,0.246978 -0.59785,0.178945 -0.2725,-0.07126 -0.84481,0.189146 -1.35007,0.614293 -0.7687,0.646818 -0.83869,0.666319 -0.56657,0.157848 0.37716,-0.704736 1.02756,-1.074767 2.19567,-1.249197 0.82416,-0.123068 0.9191,-0.05531 1.47612,1.053486 0.68639,1.366297 0.75004,2.201117 0.22282,2.92214 -0.34,0.464976 -0.36753,0.412117 -0.31556,-0.605831 z"
         id="path997" />
      <path
         style="fill:#fd778c;stroke-width:1.32859"
         d="m 134.18032,41.056226 c -0.2706,-0.458098 -0.35581,-0.748727 -0.18934,-0.645844 0.16647,0.102884 0.30267,0.06097 0.30267,-0.09314 0,-0.154109 0.0955,-0.280198 0.21215,-0.280198 0.11668,0 0.22396,0.416718 0.2384,0.926041 0.0144,0.509323 0.004,0.926042 -0.0228,0.926042 -0.027,0 -0.27046,-0.374807 -0.54107,-0.832904 z"
         id="path996" />
      <path
         style="fill:#fd778c;stroke-width:1.32859"
         d="m 138.5903,42.198442 c -0.24656,-0.156521 -0.15035,-0.379746 0.36889,-0.855844 l 0.70244,-0.644093 -0.48775,0.79375 -0.48776,0.79375 0.66509,-0.595313 c 0.3658,-0.327422 0.81538,-0.595312 0.99907,-0.595312 0.18368,0 -0.0198,0.297656 -0.45212,0.661458 -0.88209,0.742222 -0.8509,0.731692 -1.30786,0.441604 z"
         id="path995" />
      <path
         style="fill:#fd778c;stroke-width:1.32859"
         d="m 136.68021,42.015028 c 0.18408,-0.221798 0.24189,-0.489689 0.12847,-0.595313 -0.11342,-0.105624 -0.26101,-0.03832 -0.32797,0.149566 -0.085,0.238596 -0.28028,0.158811 -0.64749,-0.264584 -0.28916,-0.333406 -0.56534,-0.546661 -0.61373,-0.4739 -0.0484,0.07276 -0.14543,0.07276 -0.21564,0 -0.0702,-0.07276 0.0469,-0.293261 0.26025,-0.490001 0.3302,-0.304504 0.40953,-0.274988 0.53334,0.198437 0.16873,0.645238 0.93031,0.7332 1.40421,0.162185 0.17983,-0.216679 0.42656,-0.332407 0.54829,-0.257173 0.2924,0.180712 0.84789,-0.872272 0.63871,-1.210732 -0.0896,-0.144887 -0.26016,-0.203269 -0.37913,-0.129737 -0.27923,0.172573 -0.72073,-0.374539 -0.84821,-1.051104 -0.0653,-0.34669 -0.29557,-0.518877 -0.6677,-0.499327 -0.3777,0.01984 -0.52163,-0.09096 -0.42962,-0.330729 0.32647,-0.850764 -1.51856,-0.12278 -2.15653,0.850893 -0.36447,0.556245 -0.41084,0.839187 -0.19434,1.18585 0.23928,0.383154 0.20062,0.433404 -0.24399,0.317136 -0.32723,-0.08557 -0.47227,-0.284222 -0.38107,-0.521902 0.081,-0.211058 0.14726,-0.487032 0.14726,-0.613275 0,-0.433509 1.71999,-1.841406 2.24896,-1.840887 0.89305,8.76e-4 2.39394,1.166054 3.02791,2.350637 0.28843,0.538941 0.25708,0.716505 -0.2326,1.317457 -0.31129,0.38201 -0.76992,1.021232 -1.01918,1.420494 -0.24927,0.399263 -0.55709,0.726685 -0.68405,0.727605 -0.12696,9.2e-4 -0.0802,-0.179799 0.10385,-0.401596 z"
         id="path994" />
      <path
         style="fill:#fd778c;stroke-width:1.32859"
         d="m 133.02385,42.177442 c -0.37206,-0.611806 -0.56209,-0.717523 -0.92484,-0.514518 -0.5578,0.312163 -0.93227,-0.384755 -0.49186,-0.915411 0.15571,-0.18762 0.21306,-0.632588 0.12745,-0.988818 -0.0901,-0.375046 0.28222,0.02057 0.88455,0.93981 1.46872,2.241446 1.47258,2.248958 1.15706,2.248958 -0.15625,0 -0.49481,-0.346509 -0.75236,-0.770021 z m -0.97915,-0.817479 c 0.0899,-0.145521 0.0374,-0.264583 -0.11668,-0.264583 -0.15411,0 -0.2802,0.119062 -0.2802,0.264583 0,0.145521 0.0525,0.264584 0.11668,0.264584 0.0642,0 0.19026,-0.119063 0.2802,-0.264584 z"
         id="path993" />
      <path
         style="fill:#fd778c;stroke-width:1.32859"
         d="m 146.74996,43.586873 c 0.0127,-0.308225 0.0754,-0.370919 0.15985,-0.159853 0.0764,0.190996 0.067,0.4192 -0.0209,0.507118 -0.0879,0.08792 -0.15045,-0.06835 -0.13896,-0.347265 z"
         id="path992" />
      <path
         style="fill:#fd778c;stroke-width:1.32859"
         d="m 129.83755,43.772657 c -0.25577,-0.162108 -0.1452,-0.265152 0.39537,-0.36849 0.87985,-0.168194 1.36228,0.0401 0.84784,0.366067 -0.45309,0.287091 -0.79302,0.287753 -1.24321,0.0024 z"
         id="path991" />
      <path
         style="fill:#fd778c;stroke-width:1.32859"
         d="m 131.1407,44.175309 c 0.31172,-0.268819 1.59366,-0.429197 1.43972,-0.180118 -0.0935,0.151354 -0.48055,0.275189 -0.86002,0.275189 -0.37947,0 -0.64033,-0.04278 -0.5797,-0.09507 z"
         id="path990" />
      <path
         style="fill:#fd778c;stroke-width:1.32859"
         d="m 127.21969,44.080519 c 0.40218,-0.06082 0.99749,-0.05919 1.32291,0.0036 0.32543,0.0628 -0.004,0.112561 -0.73124,0.110574 -0.7276,-0.002 -0.99386,-0.05337 -0.59167,-0.114185 z"
         id="path989" />
      <path
         style="fill:#fd778c;stroke-width:1.32859"
         d="m 141.4374,44.285994 c 0,-0.368698 0.4864,-0.602447 0.822,-0.395032 0.20413,0.126161 0.1841,0.249875 -0.0661,0.408438 -0.4723,0.299268 -0.75585,0.294239 -0.75585,-0.01341 z"
         id="path988" />
      <path
         style="fill:#fd778c;stroke-width:1.32859"
         d="m 123.99634,44.04585 c -0.36349,-0.679194 -0.36952,-1.809302 -0.0108,-2.030984 0.17724,-0.109542 0.21632,0.06447 0.10979,0.488909 -0.091,0.362441 -0.0266,0.918395 0.14313,1.235454 0.16968,0.317059 0.24898,0.636002 0.17622,0.708763 -0.0728,0.07276 -0.261,-0.108204 -0.41831,-0.402142 z"
         id="path987" />
      <path
         style="fill:#fd778c;stroke-width:1.32859"
         d="m 138.84453,44.256846 c -0.36838,-0.589857 -0.41012,-0.868672 -0.10151,-0.677938 0.11882,0.07344 0.42321,-0.217195 0.67642,-0.645843 0.25321,-0.428649 0.5769,-0.779362 0.71931,-0.779362 0.33362,0 -0.24425,1.118664 -0.72435,1.40221 -0.6927,0.409113 -0.34661,0.663049 0.76623,0.56221 0.97814,-0.08863 1.01817,-0.07363 0.30764,0.115247 -0.44927,0.119427 -0.93145,0.28797 -1.07153,0.374539 -0.14007,0.08657 -0.39757,-0.07141 -0.57221,-0.351063 z"
         id="path986" />
      <path
         style="fill:#fd778c;stroke-width:1.32859"
         d="m 147.52335,43.875725 c -0.30073,-1.253583 -0.40427,-1.407898 -0.7545,-1.124479 -0.22327,0.180674 -0.33754,0.209436 -0.25393,0.06392 0.0836,-0.14552 0.0458,-0.545825 -0.0839,-0.889566 -0.19157,-0.507387 -0.38365,-0.603308 -1.02085,-0.509786 -0.60558,0.08888 -0.72219,0.03965 -0.51045,-0.215478 0.42038,-0.506533 1.59806,0.02223 2.27974,1.023567 0.51828,0.76132 1.13446,3.104805 0.81636,3.104805 -0.0681,0 -0.28071,-0.65384 -0.47242,-1.452978 z"
         id="path985" />
      <path
         style="fill:#fd778c;stroke-width:1.32859"
         d="m 130.01071,45.677129 c 0.191,-0.07643 0.4192,-0.06703 0.50712,0.02089 0.0879,0.08792 -0.0684,0.150453 -0.34727,0.138964 -0.30822,-0.0127 -0.37092,-0.07539 -0.15985,-0.159852 z"
         id="path984" />
      <path
         style="fill:#fd778c;stroke-width:1.32859"
         d="m 128.27942,45.674529 c 0.25743,-0.06708 0.61462,-0.06267 0.79375,0.0098 0.17913,0.07248 -0.0315,0.127362 -0.46806,0.121969 -0.43656,-0.0054 -0.58312,-0.06469 -0.32569,-0.131773 z"
         id="path983" />
      <path
         style="fill:#fd778c;stroke-width:1.32859"
         d="m 149.11032,45.981953 c 0,-0.482376 1.42588,-1.446987 2.13892,-1.446987 0.75853,0 1.57157,0.597119 1.55683,1.143378 -0.005,0.184153 -0.14038,0.140194 -0.33073,-0.107364 -0.17727,-0.230557 -0.66628,-0.504869 -1.08669,-0.609583 -0.62226,-0.154989 -0.90512,-0.05555 -1.52135,0.534842 -0.41634,0.398876 -0.75698,0.617448 -0.75698,0.485714 z"
         id="path982" />
      <path
         style="fill:#fd778c;stroke-width:1.32859"
         d="m 138.8054,46.016013 c -0.19699,-0.368083 -0.44818,-0.61361 -0.5582,-0.545615 -0.11002,0.06799 -0.13285,-0.133281 -0.0507,-0.447279 0.11468,-0.438506 0.0629,-0.520793 -0.22311,-0.35482 -0.20482,0.118846 -0.29303,0.127542 -0.19602,0.01932 0.29747,-0.331818 -0.79719,-1.210995 -1.5078,-1.210995 -1.11404,0 -2.48911,0.717388 -2.76476,1.44241 -0.14099,0.370841 -0.37435,0.674256 -0.51856,0.674256 -0.14422,0 -0.0137,-0.421119 0.28994,-0.935821 0.59458,-1.007736 2.00996,-1.770149 2.95649,-1.592554 0.31601,0.05929 0.71406,0.116651 0.88457,0.127464 0.1705,0.01081 0.76927,0.722541 1.33059,1.581616 0.98867,1.513118 1.04102,1.550638 1.67436,1.200001 0.35958,-0.199075 1.0705,-0.358138 1.57983,-0.353472 l 0.92604,0.0085 -1.19063,0.353845 c -0.65484,0.194615 -1.43434,0.43227 -1.73223,0.528123 -0.40854,0.13146 -0.6296,0.0099 -0.89977,-0.494965 z"
         id="path981" />
      <path
         style="fill:#fd778c;stroke-width:1.32859"
         d="m 153.41137,46.535923 c -0.32656,-0.180622 -0.51508,-0.407073 -0.41893,-0.503224 0.30499,-0.304989 0.58861,-0.190835 0.88038,0.354345 0.15576,0.291042 0.24925,0.517493 0.20775,0.503225 -0.0415,-0.01427 -0.34264,-0.173724 -0.6692,-0.354346 z"
         id="path980" />
      <path
         style="fill:#fd778c;stroke-width:1.32859"
         d="m 139.44215,47.692358 c -0.27148,-0.439263 -0.0278,-0.500175 0.35204,-0.088 0.18764,0.203604 0.22443,0.370189 0.0818,0.370189 -0.14267,0 -0.33788,-0.126984 -0.4338,-0.282186 z"
         id="path979" />
      <path
         style="fill:#fd778c;stroke-width:1.32859"
         d="m 137.20407,47.709958 c -0.23847,-0.154109 -0.2711,-0.258098 -0.0818,-0.260532 0.17331,-0.0022 0.3887,0.115011 0.47863,0.260532 0.20302,0.328487 0.11143,0.328487 -0.39687,0 z"
         id="path978" />
      <path
         style="fill:#fd778c;stroke-width:1.32859"
         d="m 129.70006,48.106833 c 0.0838,-0.218281 0.24588,-0.396875 0.36026,-0.396875 0.11438,0 0.2765,0.178594 0.36026,0.396875 0.10308,0.268609 -0.0134,0.396875 -0.36026,0.396875 -0.34691,0 -0.46334,-0.128266 -0.36026,-0.396875 z"
         id="path976" />
      <path
         style="fill:#fd778c;stroke-width:1.32859"
         d="m 126.62399,48.9045 c -0.35327,-0.425656 -0.65541,-1.988292 -0.38444,-1.988292 0.11776,0 0.72677,0.248171 1.35335,0.551492 0.95464,0.462133 1.09808,0.628368 0.8853,1.025956 -0.31215,0.583259 -1.49382,0.845087 -1.85421,0.410844 z"
         id="path973" />
      <path
         style="fill:#fd778c;stroke-width:1.32859"
         d="m 123.89615,48.94468 c -0.0745,-0.194028 0.0205,-0.352778 0.21105,-0.352778 0.19053,0 0.2855,0.15875 0.21105,0.352778 -0.0745,0.194028 -0.16943,0.352778 -0.21105,0.352778 -0.0416,0 -0.1366,-0.15875 -0.21105,-0.352778 z"
         id="path972" />
      <path
         style="fill:#fd778c;stroke-width:1.32859"
         d="m 148.02152,49.363604 c -0.0486,-0.316644 0.0359,-1.206276 0.176,-1.852084 0.13531,-0.623808 0.59836,-0.836091 0.57714,-0.264583 -0.007,0.181901 0.014,0.568854 0.0462,0.859896 0.0538,0.486809 0.0781,0.480024 0.30462,-0.08476 0.1744,-0.434927 0.42023,-0.589215 0.84313,-0.529166 0.49465,0.07024 0.58972,0.237076 0.55479,0.973588 -0.0309,0.650953 0.0364,0.810274 0.25135,0.595312 0.16144,-0.161432 0.41853,-0.289892 0.57133,-0.285467 0.38234,0.01107 -0.67356,0.615135 -1.23405,0.705978 -0.47324,0.0767 -0.40952,-0.480127 0.13543,-1.183439 0.14367,-0.185417 0.18142,-0.416912 0.0839,-0.514431 -0.0975,-0.09752 -0.53987,0.262545 -0.983,0.800144 -0.76416,0.927059 -1.25943,1.217848 -1.32681,0.779015 z"
         id="path969" />
      <path
         style="fill:#fd778c;stroke-width:1.32859"
         d="m 140.76037,49.173693 c -0.46939,-0.354924 -0.4354,-0.366699 0.39493,-0.136817 0.84731,0.234589 1.60722,0.06608 0.87742,-0.194565 -0.18191,-0.06496 -0.33073,-0.234284 -0.33073,-0.376267 0,-0.141982 0.11906,-0.184565 0.26458,-0.09463 0.14552,0.08994 0.26458,-0.07423 0.26458,-0.364816 0,-0.354937 0.16408,-0.515979 0.49993,-0.49068 0.34983,0.02635 0.48068,0.213038 0.43581,0.62177 -0.0449,0.408719 0.0479,0.541116 0.30903,0.440922 0.20523,-0.07875 0.31283,-0.300355 0.23912,-0.492447 -0.0852,-0.222083 0.006,-0.295686 0.24938,-0.202133 0.56904,0.21836 0.46036,0.423999 -0.57219,1.082697 -1.08167,0.690032 -1.90715,0.754946 -2.63186,0.206964 z"
         id="path968" />
      <path
         style="fill:#fd778c;stroke-width:1.32859"
         d="m 122.91296,49.495895 c -0.002,-0.181901 -0.0725,-0.628385 -0.15675,-0.992187 -0.14363,-0.6204 -0.12698,-0.614417 0.2682,0.09639 0.48603,0.874228 0.53105,1.226527 0.15674,1.226527 -0.14552,0 -0.26621,-0.148828 -0.26819,-0.33073 z"
         id="path967" />
      <path
         style="fill:#fd778c;stroke-width:1.32859"
         d="m 136.03257,49.826787 c 0.12428,-0.218193 0.20465,-0.753975 0.1786,-1.190625 l -0.0474,-0.793908 0.24945,0.79039 c 0.19511,0.618197 0.1562,0.877586 -0.1786,1.190625 -0.37517,0.350782 -0.40014,0.351216 -0.2021,0.0035 z"
         id="path965" />
      <path
         style="fill:#fd778c;stroke-width:1.32859"
         d="m 121.85824,49.855107 c 0,-0.178363 -0.13746,-0.239342 -0.30547,-0.135509 -0.18712,0.115649 -0.23373,0.07272 -0.1203,-0.110813 0.10184,-0.164781 0.002,-0.9178 -0.2228,-1.673377 -0.22438,-0.755576 -0.35718,-1.424564 -0.2951,-1.48664 0.0621,-0.06208 0.36105,0.690668 0.66439,1.672764 0.30333,0.982095 0.49026,1.846883 0.4154,1.921749 -0.0749,0.07487 -0.13612,-0.0098 -0.13612,-0.188174 z"
         id="path964" />
      <path
         style="fill:#fd778c;stroke-width:1.32859"
         d="m 120.68286,50.115882 c -0.0816,-0.131949 0.09,-0.177594 0.38126,-0.101432 0.6178,0.161557 0.6959,0.341341 0.14827,0.341341 -0.20969,0 -0.44798,-0.107959 -0.52953,-0.239909 z"
         id="path962" />
      <path
         style="fill:#fd778c;stroke-width:1.32859"
         d="m 118.47304,50.078612 c -0.68241,-0.273873 -1.4555,-1.857001 -1.21407,-2.486158 0.0901,-0.234722 0.0184,-0.411665 -0.16683,-0.411665 -0.47014,0 1.5887,-1.92175 2.49397,-2.327896 0.85947,-0.385601 4.32033,-0.378187 4.5601,0.0098 0.0926,0.149833 -0.43003,0.174155 -1.32893,0.06184 -2.14211,-0.267639 -3.21132,0.01504 -4.39244,1.161275 -0.91428,0.887278 -0.97558,1.025014 -0.58037,1.303887 0.24304,0.171496 0.32283,0.283952 0.17731,0.249903 -0.14552,-0.03405 -0.30409,-0.0024 -0.35237,0.07038 -0.13847,0.208658 0.25371,1.572381 0.44498,1.547345 0.47243,-0.06184 0.90187,0.05991 0.74935,0.212431 -0.0948,0.09475 0.0342,0.32909 0.28663,0.520752 0.52801,0.400947 0.20639,0.442792 -0.67733,0.08813 z"
         id="path961" />
      <path
         style="fill:#fd778c;stroke-width:1.32859"
         d="m 126.22386,50.355789 c -0.0899,-0.145521 -0.0374,-0.264583 0.11668,-0.264583 0.15411,0 0.2802,0.119062 0.2802,0.264583 0,0.145521 -0.0525,0.264583 -0.11668,0.264583 -0.0642,0 -0.19026,-0.119062 -0.2802,-0.264583 z"
         id="path959" />
      <path
         style="fill:#fd778c;stroke-width:1.32859"
         d="m 153.80458,51.127175 c -0.25582,-0.148972 -0.59599,-0.189973 -0.75595,-0.09111 -0.3918,0.242144 -0.0303,-0.936264 0.45861,-1.494855 0.20107,-0.22974 0.3674,-0.646459 0.36963,-0.926042 0.002,-0.279583 0.12297,-0.686927 0.26831,-0.905208 0.19197,-0.288314 0.23562,-0.112672 0.15956,0.642108 -0.0576,0.57144 -0.29739,1.179879 -0.5329,1.352085 -0.44673,0.326658 -0.58454,0.916223 -0.21417,0.916223 0.1177,0 0.44513,0.174808 0.7276,0.388461 0.5834,0.441265 0.22525,0.529439 -0.48069,0.118341 z"
         id="path955" />
      <path
         style="fill:#fd778c;stroke-width:1.32859"
         d="m 149.70431,51.083395 c 0.0599,-0.181901 0.35505,-0.367146 0.65587,-0.411656 0.30083,-0.04451 0.75644,-0.312401 1.01247,-0.595313 0.25604,-0.282911 0.55422,-0.514385 0.66263,-0.514385 0.10842,0 -0.2196,0.416719 -0.72892,0.926042 -0.90932,0.909324 -1.81648,1.246418 -1.60205,0.595312 z"
         id="path954" />
      <path
         style="fill:#fd778c;stroke-width:1.32859"
         d="m 146.46449,51.149545 c 0,-0.145521 0.12609,-0.264583 0.28019,-0.264583 0.15411,0 0.20662,0.119062 0.11668,0.264583 -0.0899,0.145521 -0.21602,0.264583 -0.2802,0.264583 -0.0642,0 -0.11667,-0.119062 -0.11667,-0.264583 z"
         id="path953" />
      <path
         style="fill:#fd778c;stroke-width:1.32859"
         d="m 128.02,51.778758 c 0.10587,-0.105878 -0.13588,-0.409042 -0.53723,-0.673699 -0.96159,-0.634076 -0.57694,-0.62533 0.46887,0.01066 0.69931,0.425274 0.74813,0.520817 0.34519,0.675442 -0.25814,0.09906 -0.38271,0.09347 -0.27683,-0.0124 z"
         id="path951" />
      <path
         style="fill:#fd778c;stroke-width:1.32859"
         d="m 120.62352,51.799351 c 0,-0.21188 0.0992,-0.385237 0.22048,-0.385237 0.12127,0 0.22049,0.112036 0.22049,0.248969 0,0.136932 -0.0992,0.310289 -0.22049,0.385236 -0.12127,0.07495 -0.22048,-0.03709 -0.22048,-0.248968 z"
         id="path949" />
      <path
         style="fill:#fd778c;stroke-width:1.32859"
         d="m 141.98461,52.340153 c -0.0109,-0.323518 0.52068,-0.991875 1.36777,-1.719792 l 1.38554,-1.190625 -0.79036,1.11883 c -0.4347,0.615357 -0.921,1.121372 -1.08066,1.124479 -0.15967,0.0031 -0.4195,0.27354 -0.57741,0.600962 -0.26719,0.554008 -0.28834,0.558598 -0.30488,0.06615 z"
         id="path947" />
      <path
         style="fill:#fd778c;stroke-width:1.32859"
         d="m 128.38463,52.825222 c -0.097,-0.09701 -0.17639,-0.29942 -0.17639,-0.449791 0,-0.165789 0.12323,-0.150168 0.31309,0.03969 0.1722,0.1722 0.25157,0.374606 0.17639,0.449792 -0.0752,0.07519 -0.21608,0.05733 -0.31309,-0.03969 z"
         id="path946" />
      <path
         style="fill:#fd778c;stroke-width:1.32859"
         d="m 147.79776,53.182655 c -0.006,-0.264229 0.11159,-0.70827 0.26063,-0.986759 0.24821,-0.463792 0.0825,-2.017206 -0.18651,-1.74821 -0.0641,0.0641 -0.40158,-0.168477 -0.74994,-0.516845 -0.34837,-0.348368 -0.93647,-0.633396 -1.30689,-0.633396 -0.5933,0 -0.67348,-0.110243 -0.67348,-0.926042 0,-0.575074 0.1281,-0.926041 0.338,-0.926041 0.49512,0 1.51408,0.771695 1.51408,1.146662 0,0.177599 0.35719,0.713977 0.79375,1.191952 0.43657,0.477974 0.79375,1.145683 0.79375,1.483797 0,0.741802 -0.7682,2.619553 -0.78339,1.914882 z"
         id="path944" />
      <path
         style="fill:#fd778c;stroke-width:1.32859"
         d="m 123.38031,53.33234 c -0.0532,-0.10914 -0.12777,-0.57658 -0.16579,-1.038755 -0.0545,-0.662311 0.13866,-1.054644 0.91181,-1.852084 0.53953,-0.55647 0.90402,-0.873106 0.80999,-0.703634 -0.094,0.169473 -0.0257,0.356566 0.15193,0.415763 0.17759,0.0592 -0.0612,0.277644 -0.53062,0.485436 -0.96675,0.427925 -1.1512,0.804509 -0.99517,2.031816 0.104,0.817975 0.0282,1.093273 -0.18215,0.661458 z"
         id="path943" />
      <path
         style="fill:#fd778c;stroke-width:1.32859"
         d="m 115.56115,54.007028 c -0.44002,-0.440027 -0.39672,-1.559048 0.0988,-2.552267 0.35985,-0.721333 0.54807,-0.830158 1.38906,-0.803096 0.53505,0.01722 1.33,0.128805 1.76656,0.247972 0.68443,0.186828 0.61156,0.214253 -0.52917,0.199136 -2.0355,-0.02698 -2.14296,0.0045 -2.47107,0.724663 -0.41971,0.92116 -0.38563,1.446552 0.13083,2.017238 0.47895,0.529233 0.1291,0.680415 -0.38497,0.166354 z"
         id="path939" />
      <path
         style="fill:#fd778c;stroke-width:1.32859"
         d="m 122.39551,54.985986 c 0,-0.145521 0.11541,-0.443177 0.25648,-0.661458 0.14106,-0.218281 0.25648,-0.277813 0.25648,-0.132292 0,0.145521 -0.11542,0.443177 -0.25648,0.661458 -0.14107,0.218282 -0.25648,0.277813 -0.25648,0.132292 z"
         id="path938" />
      <path
         style="fill:#fd778c;stroke-width:1.32859"
         d="m 151.31689,54.368481 c -1.58148,-1.25278 -2.03745,-1.79211 -1.81686,-2.14903 0.21865,-0.353782 0.85217,-0.356764 1.06955,-0.005 0.0922,0.149126 0.0694,0.254089 -0.0505,0.233251 -0.71161,-0.123616 -0.84795,0.05565 -0.4213,0.553943 0.2492,0.291042 0.56894,0.529167 0.71054,0.529167 0.1416,0 0.56162,0.287661 0.93338,0.639248 1.02844,0.972613 2.01735,1.009211 2.38749,0.08836 l 0.23928,-0.595312 0.0168,0.586003 c 0.0168,0.585239 -0.65928,1.133788 -1.39728,1.133788 -0.21478,0 -0.96675,-0.456471 -1.67104,-1.01438 z"
         id="path937" />
      <path
         style="fill:#fd778c;stroke-width:1.32859"
         d="m 116.73974,55.184424 c -0.0674,-0.109141 0.44994,-0.198438 1.14975,-0.198438 0.69981,0 1.21719,0.0893 1.14974,0.198438 -0.0675,0.10914 -0.58484,0.198437 -1.14974,0.198437 -0.56491,0 -1.08229,-0.0893 -1.14975,-0.198437 z"
         id="path936" />
      <path
         style="fill:#fd778c;stroke-width:1.32859"
         d="m 151.49923,55.657779 c -0.21407,-0.13538 -0.32033,-0.315028 -0.23614,-0.399217 0.0842,-0.08419 0.30368,0.0284 0.48776,0.250197 0.38168,0.459903 0.3085,0.503248 -0.25162,0.14902 z"
         id="path935" />
      <path
         style="fill:#fd778c;stroke-width:1.32859"
         d="m 150.04901,55.085055 c -0.80056,-0.951409 -0.72123,-1.273444 0.1614,-0.655223 0.34769,0.243528 0.45009,0.423862 0.24069,0.423862 -0.27142,0 -0.24221,0.135092 0.11443,0.529167 0.26339,0.291042 0.41149,0.529167 0.32911,0.529167 -0.0824,0 -0.46291,-0.372138 -0.84563,-0.826973 z"
         id="path934" />
      <path
         style="fill:#fd778c;stroke-width:1.32859"
         d="m 120.53631,56.639632 c 5.4e-4,-0.181901 0.23805,-0.719541 0.52779,-1.194756 0.28974,-0.475214 0.51332,-0.951464 0.49684,-1.058333 -0.0731,-0.474285 0.0526,-0.855765 0.28211,-0.855765 0.34666,0 0.13717,0.903863 -0.52795,2.277811 -0.57761,1.193185 -0.78052,1.409712 -0.77879,0.831043 z"
         id="path932" />
      <path
         style="fill:#fd778c;stroke-width:1.32859"
         d="m 152.75568,56.688697 c -0.24516,-0.427168 -0.32928,-0.776669 -0.18692,-0.776669 0.24569,0 0.87694,1.309059 0.71118,1.474822 -0.0432,0.04318 -0.2791,-0.270985 -0.52426,-0.698153 z"
         id="path930" />
      <path
         style="fill:#fd778c;stroke-width:1.32859"
         d="m 118.45469,56.771927 c -0.0198,-0.472943 0.0138,-0.859896 0.0746,-0.859896 0.0609,0 0.32875,-0.07555 0.59531,-0.167887 0.44792,-0.15516 0.45098,-0.140118 0.0404,0.198438 -0.24437,0.201478 -0.49605,0.66398 -0.55929,1.027782 -0.0955,0.549665 -0.12106,0.516127 -0.151,-0.198437 z"
         id="path929" />
      <path
         style="fill:#fd778c;stroke-width:1.32859"
         d="m 123.71032,57.924708 c 0,-0.05719 0.18478,-0.17489 0.41062,-0.261553 0.23546,-0.09035 0.34166,-0.046 0.24897,0.103985 -0.15538,0.251408 -0.65959,0.371858 -0.65959,0.157568 z"
         id="path924" />
      <path
         style="fill:#fd778c;stroke-width:1.32859"
         d="m 150.75171,58.016659 c -0.17763,-0.284423 -0.21563,-0.517133 -0.0844,-0.517133 0.23754,0 0.64662,0.795041 0.48978,0.951878 -0.0453,0.04531 -0.22772,-0.150321 -0.40534,-0.434745 z"
         id="path922" />
      <path
         style="fill:#fd778c;stroke-width:1.32859"
         d="m 147.63359,58.273412 c -0.4484,-0.130197 -1.04371,-0.489798 -1.32292,-0.799113 l -0.50764,-0.562391 0.92604,0.532753 c 0.50932,0.293014 1.30287,0.611058 1.76344,0.706765 0.67403,0.140065 0.86161,0.08055 0.96149,-0.30509 0.0985,-0.380263 0.13043,-0.356289 0.15479,0.11621 0.034,0.658777 -0.49194,0.741547 -1.9752,0.310866 z"
         id="path921" />
      <path
         style="fill:#fd778c;stroke-width:1.32859"
         d="m 119.36147,58.849577 c -0.0729,-0.117886 0.17313,-0.353578 0.54664,-0.523761 0.41953,-0.191154 0.62377,-0.453617 0.53434,-0.686673 -0.0947,-0.246759 -0.0156,-0.32768 0.22869,-0.233943 0.3174,0.121798 0.313,0.235575 -0.0293,0.758059 -0.44562,0.680111 -1.07549,1.01775 -1.28032,0.686318 z"
         id="path917" />
      <path
         style="fill:#fd778c;stroke-width:1.32859"
         d="m 132.8898,100.86722 c -4.86861,-0.51432 -9.57304,-1.938983 -13.38042,-4.05205 -2.54563,-1.4128 -5.42904,-3.825745 -5.54632,-4.641354 l -0.09,-0.625695 3.26496,0.154348 c 2.83033,0.1338 3.60077,0.275912 5.78746,1.067541 3.35914,1.216075 5.76572,2.454925 8.32543,4.285735 2.42811,1.736687 2.31517,1.58225 -2.51547,-3.439813 -3.2239,-3.35166 -5.96267,-7.046182 -7.45916,-10.062199 -0.70177,-1.41433 -1.16943,-3.299156 -0.81913,-3.301327 0.11573,-7.17e-4 1.46058,0.624062 2.98855,1.388398 2.43484,1.21798 3.11368,1.72192 5.49372,4.078274 2.83114,2.802964 3.33415,3.597158 4.68758,7.401043 l 0.64683,1.817963 0.007,-10.054166 0.007,-10.054166 -0.9427,-1.190625 c -0.51849,-0.654844 -1.2301,-1.515214 -1.58137,-1.911933 -0.56294,-0.635786 -1.64491,-2.094454 -4.63177,-6.244366 -0.4532,-0.629663 -0.76045,-1.208391 -0.68278,-1.286061 0.24183,-0.241825 3.40001,0.941269 4.44407,1.6648 1.20434,0.834612 1.66189,1.504433 2.48091,3.63189 l 0.62833,1.632129 0.009,-4.233333 c 0.005,-2.328334 -0.0554,-4.474163 -0.13449,-4.768511 -0.0791,-0.294348 -0.5438,-0.770598 -1.03269,-1.058333 -2.20516,-1.297864 -5.87617,-3.566678 -6.35689,-3.928787 -0.44843,-0.33778 -0.47947,-0.480036 -0.20342,-0.932324 0.17917,-0.293549 0.40275,-1.015175 0.49684,-1.603614 0.17642,-1.103284 0.46194,-1.367129 0.7283,-0.673014 0.23782,0.619749 0.90901,0.466991 1.30989,-0.29812 l 0.36415,-0.694994 1.93634,2.34864 c 1.06499,1.291752 2.04212,2.467703 2.17139,2.613224 0.66256,0.745818 -0.83327,-5.583137 -1.92757,-8.155652 -0.7418,-1.743865 -0.75322,-1.834401 -0.33361,-2.645833 0.23896,-0.4621 0.41603,-0.869947 0.39348,-0.906327 -0.14682,-0.236865 0.007,-0.595313 0.25598,-0.595313 0.2032,0 0.19138,0.127235 -0.0374,0.402932 -0.28087,0.338434 -0.26218,0.375219 0.11677,0.229801 0.3036,-0.1165 0.59647,0.03297 0.89539,0.456964 0.24432,0.346552 0.44508,0.707919 0.44615,0.803036 0.001,0.09512 0.34218,0.48828 0.75805,0.873694 0.70173,0.650339 0.72552,0.734569 0.33073,1.170809 -0.23397,0.258531 -0.41158,0.817868 -0.3947,1.242973 0.0211,0.530481 0.0674,0.606936 0.14778,0.243749 0.2712,-1.225619 0.36834,-1.354877 0.64622,-0.859895 0.14296,0.254661 0.54274,0.46302 0.88838,0.46302 0.60106,0 0.63764,0.106678 0.83926,2.447396 l 0.2108,2.447396 0.18144,-2.999585 c 0.15286,-2.527062 0.26866,-3.092423 0.7351,-3.588927 0.30451,-0.324139 0.56987,-0.938857 0.58969,-1.366041 0.0289,-0.623905 0.0586,-0.659587 0.1507,-0.181384 0.0631,0.327422 0.22544,0.595312 0.36084,0.595312 0.1354,0 0.24618,0.180209 0.24618,0.400465 0,0.220256 0.14487,0.63244 0.32193,0.915964 0.2531,0.405278 0.25229,0.75808 -0.004,1.650055 -0.82514,2.873888 -1.88455,6.932361 -1.82512,6.99179 0.0362,0.03619 0.64338,-0.633167 1.34932,-1.487465 1.87398,-2.267825 3.05752,-3.357194 3.27807,-3.017256 0.35146,0.5417 1.42624,0.941586 2.0858,0.776048 0.43957,-0.110325 0.59997,-0.06991 0.48174,0.121384 -0.0975,0.157728 -0.0639,0.430391 0.0746,0.605917 0.13852,0.175527 0.31134,0.649102 0.38404,1.052391 0.12241,0.679026 -0.056,0.856954 -2.41189,2.406022 -1.39924,0.920024 -2.74337,1.743706 -2.98696,1.830405 -0.24358,0.0867 -0.92819,0.463997 -1.52135,0.838442 l -1.07847,0.680809 0.002,4.428451 0.002,4.428452 1.04164,-2.116667 c 1.14201,-2.32064 1.85556,-2.963075 4.27212,-3.846358 2.2627,-0.827045 2.94807,-0.640945 1.75885,0.477586 -0.32742,0.30796 -1.19062,1.402778 -1.91823,2.432928 -0.7276,1.030151 -2.1998,3.090891 -3.27154,4.579423 l -1.94862,2.706421 0.16268,2.355751 c 0.0895,1.295663 0.1685,5.820037 0.1756,10.054166 l 0.0129,7.698415 0.74451,-2.17615 c 1.27046,-3.713452 3.21546,-6.476959 6.36574,-9.044585 1.60085,-1.304776 5.64759,-3.728222 6.22549,-3.728222 0.45595,0 -0.14863,2.242002 -1.15753,4.292588 -1.21635,2.472207 -3.3947,5.42514 -8.30142,11.253261 -1.85539,2.203804 -3.37343,4.158704 -3.37343,4.344223 0,0.185521 0.8632,-0.510472 1.91823,-1.546647 2.97313,-2.920011 6.81553,-5.338709 9.96788,-6.274537 1.96587,-0.583602 7.38868,-1.102014 7.74982,-0.740871 0.38064,0.38064 -0.61638,1.939602 -1.85806,2.905317 -4.0502,3.150027 -7.12711,4.745771 -11.08836,5.750622 -4.45652,1.130487 -7.24743,1.346867 -11.53295,0.894137 z"
         id="path894" />
      <path
         style="fill:#a49973;stroke-width:1.32859"
         d="m 126.63328,48.9157 c -0.15069,-0.181572 -0.35183,-0.719347 -0.44697,-1.195056 -0.16343,-0.81718 -0.13796,-0.854432 0.46145,-0.674837 1.06991,0.320562 1.86164,0.940283 1.7751,1.389435 -0.10908,0.566138 -1.42522,0.919488 -1.78958,0.480458 z"
         id="path1031" />
      <path
         style="fill:#a49973;stroke-width:1.32859"
         d="m 146.72907,49.562065 c -0.21828,-0.141064 -0.66477,-0.258303 -0.99219,-0.260532 -0.50319,-0.0034 -0.59531,-0.147343 -0.59531,-0.930093 0,-0.575074 0.1281,-0.926041 0.338,-0.926041 0.47734,0 1.51408,0.765979 1.51408,1.118648 0,0.162191 0.19705,0.512627 0.43788,0.778747 0.34707,0.383506 0.36079,0.483014 0.0661,0.479803 -0.20445,-0.0022 -0.55033,-0.119468 -0.76861,-0.260532 z"
         id="path1030" />
      <path
         style="fill:#a49973;stroke-width:1.32859"
         d="m 132.8898,100.86722 c -4.86861,-0.51432 -9.57304,-1.938983 -13.38042,-4.05205 -2.54563,-1.4128 -5.42904,-3.825745 -5.54632,-4.641354 l -0.09,-0.625695 3.26496,0.154348 c 2.83033,0.1338 3.60077,0.275912 5.78746,1.067541 3.35914,1.216075 5.76572,2.454925 8.32543,4.285735 2.42811,1.736687 2.31517,1.58225 -2.51547,-3.439813 -3.2239,-3.35166 -5.96267,-7.046182 -7.45916,-10.062199 -0.70177,-1.41433 -1.16943,-3.299156 -0.81913,-3.301327 0.11573,-7.17e-4 1.46058,0.624062 2.98855,1.388398 2.43484,1.21798 3.11368,1.72192 5.49372,4.078274 2.83114,2.802964 3.33415,3.597158 4.68758,7.401043 l 0.64683,1.817963 0.007,-10.054166 0.007,-10.054166 -0.9427,-1.190625 c -0.51849,-0.654844 -1.2301,-1.515214 -1.58137,-1.911933 -0.56294,-0.635786 -1.64491,-2.094454 -4.63177,-6.244366 -0.4532,-0.629663 -0.76045,-1.208391 -0.68278,-1.286061 0.24183,-0.241825 3.40001,0.941269 4.44407,1.6648 1.20434,0.834612 1.66189,1.504433 2.48091,3.63189 l 0.62833,1.632129 0.009,-4.233333 c 0.005,-2.328334 -0.0554,-4.474163 -0.13449,-4.768511 -0.0791,-0.294348 -0.5438,-0.770598 -1.03269,-1.058333 -2.20516,-1.297864 -5.87617,-3.566678 -6.35689,-3.928787 -0.44843,-0.33778 -0.47947,-0.480036 -0.20342,-0.932324 0.17917,-0.293549 0.40275,-1.015175 0.49684,-1.603614 0.17642,-1.103284 0.46194,-1.367129 0.7283,-0.673014 0.23782,0.619749 0.90901,0.466991 1.30989,-0.29812 l 0.36415,-0.694994 1.93634,2.34864 c 1.06499,1.291752 2.04212,2.467703 2.17139,2.613224 0.66256,0.745818 -0.83327,-5.583137 -1.92757,-8.155652 -0.72553,-1.705628 -0.74552,-1.849283 -0.36077,-2.593299 0.55686,-1.076854 1.10996,-1.232438 1.65123,-0.464477 0.24425,0.346552 0.41753,0.712545 0.38507,0.813318 -0.0325,0.100773 0.23635,0.415565 0.59737,0.699537 0.67756,0.532974 0.85514,1.21213 0.3918,1.49849 -0.14552,0.08994 -0.25077,0.543448 -0.23389,1.007802 0.0192,0.526784 0.0747,0.645284 0.14778,0.315114 0.2712,-1.225619 0.36834,-1.354877 0.64622,-0.859895 0.14296,0.254661 0.54274,0.46302 0.88838,0.46302 0.60098,0 0.63771,0.10697 0.8403,2.447396 l 0.21184,2.447396 0.16486,-2.786909 c 0.13727,-2.320562 0.27117,-2.950918 0.80021,-3.767037 0.34944,-0.539071 0.71905,-0.981602 0.82137,-0.983404 0.10231,-0.0018 0.39083,0.428322 0.64114,0.955829 0.38641,0.814294 0.40768,1.123891 0.14089,2.050521 -0.80004,2.778755 -1.87291,6.889346 -1.8136,6.948649 0.0362,0.03619 0.64338,-0.633167 1.34932,-1.487465 0.70594,-0.854298 1.67751,-1.935137 2.15905,-2.401864 0.81,-0.785082 0.90787,-0.816252 1.30766,-0.416459 0.23768,0.237675 0.75124,0.507837 1.14124,0.600361 1.06886,0.253572 1.63515,0.87762 1.63515,1.801931 0,0.753835 -0.22195,0.974191 -2.4474,2.429905 -1.34607,0.880491 -2.64669,1.672392 -2.89028,1.759781 -0.24358,0.08739 -0.92819,0.465253 -1.52135,0.839698 l -1.07847,0.680809 0.002,4.428451 0.002,4.428452 1.04164,-2.116667 c 1.14201,-2.32064 1.85556,-2.963075 4.27212,-3.846358 2.2627,-0.827045 2.94807,-0.640945 1.75885,0.477586 -0.32742,0.30796 -1.19062,1.402778 -1.91823,2.432928 -0.7276,1.030151 -2.1998,3.090891 -3.27154,4.579423 l -1.94862,2.706421 0.16268,2.355751 c 0.0895,1.295663 0.1685,5.820037 0.1756,10.054166 l 0.0129,7.698415 0.74451,-2.17615 c 1.27046,-3.713452 3.21546,-6.476959 6.36574,-9.044585 1.60085,-1.304776 5.64759,-3.728222 6.22549,-3.728222 0.45595,0 -0.14863,2.242002 -1.15753,4.292588 -1.21635,2.472207 -3.3947,5.42514 -8.30142,11.253261 -1.85539,2.203804 -3.37343,4.158704 -3.37343,4.344223 0,0.185521 0.8632,-0.510472 1.91823,-1.546647 2.97313,-2.920011 6.81553,-5.338709 9.96788,-6.274537 1.96587,-0.583602 7.38868,-1.102014 7.74982,-0.740871 0.38064,0.38064 -0.61638,1.939602 -1.85806,2.905317 -4.0502,3.150027 -7.12711,4.745771 -11.08836,5.750622 -4.45652,1.130487 -7.24743,1.346867 -11.53295,0.894137 z"
         id="path1026" />
      <path
         style="fill:#638c65;stroke-width:1.32859"
         d="m 126.3878,48.216626 c -0.16433,-0.471381 -0.23638,-0.919447 -0.16013,-0.995703 0.23641,-0.236404 1.51361,0.332679 1.81135,0.807078 0.33605,0.535438 0.25545,0.642123 -0.65839,0.871481 -0.60829,0.152673 -0.73098,0.06829 -0.99283,-0.682856 z"
         id="path1062" />
      <path
         style="fill:#638c65;stroke-width:1.32859"
         d="m 146.99349,49.562045 c -0.21828,-0.141064 -0.72429,-0.258303 -1.12448,-0.260532 -0.65438,-0.0036 -0.7276,-0.09724 -0.7276,-0.930093 0,-0.509323 0.10932,-0.926041 0.24294,-0.926041 0.64529,0 1.14813,0.419256 1.62579,1.355548 0.56938,1.116078 0.56887,1.139507 -0.0166,0.761118 z"
         id="path1061" />
      <path
         style="fill:#638c65;stroke-width:1.32859"
         d="m 130.3249,100.48269 c -5.96863,-1.085906 -11.58945,-3.569503 -14.57704,-6.440962 -1.00492,-0.965853 -1.82712,-1.921612 -1.82712,-2.123909 0,-0.652373 5.76282,-0.202087 8.33437,0.651218 3.66658,1.216661 6.94645,2.942737 10.0606,5.294535 1.59326,1.203222 0.7363,0.144481 -3.06066,-3.781321 -3.64991,-3.77376 -5.7207,-6.504952 -7.48397,-9.8707 -1.06312,-2.029283 -1.71615,-3.957841 -1.34018,-3.957841 0.0808,0 1.42174,0.652081 2.97984,1.449068 3.04729,1.558728 6.06709,4.053539 7.77871,6.426383 0.95868,1.329042 2.83962,5.593839 2.83962,6.438497 0,0.276495 0.11121,0.502718 0.24713,0.502718 0.14835,0 0.25733,-4.028946 0.27265,-10.079319 l 0.0255,-10.079319 -0.86796,-0.996194 c -2.07616,-2.382901 -3.1361,-3.739348 -4.78779,-6.127115 -0.96764,-1.398873 -1.94568,-2.698051 -2.17342,-2.887061 -0.83603,-0.693836 0.22542,-0.7505 1.9746,-0.105411 2.20469,0.813085 3.86531,2.495159 4.69644,4.757148 l 0.57779,1.572481 0.0175,-4.661145 0.0175,-4.661146 -2.05052,-1.315884 c -1.12779,-0.723737 -2.34818,-1.470246 -2.71198,-1.658909 -0.3638,-0.188663 -1.2139,-0.743976 -1.88911,-1.234028 l -1.22766,-0.891004 0.50005,-0.980823 c 0.27503,-0.539453 0.50005,-1.10917 0.50005,-1.266039 0,-0.156868 0.32195,-0.280521 0.71544,-0.274785 0.48758,0.0071 0.81353,-0.183536 1.02342,-0.598582 0.29964,-0.592526 0.34652,-0.561624 1.73196,1.14154 0.78318,0.962803 1.71177,2.159529 2.06353,2.659392 0.35175,0.499862 0.69411,0.854274 0.7608,0.787582 0.28197,-0.281961 -0.88122,-5.484058 -1.70104,-7.607548 -1.05707,-2.738024 -1.08278,-3.110005 -0.2679,-3.875548 l 0.62204,-0.584377 0.46432,1.21579 c 0.25537,0.668684 0.52689,1.153214 0.60337,1.076732 0.24516,-0.245166 1.12781,0.375677 1.12781,0.79329 0,0.22175 -0.11906,0.329596 -0.26458,0.239659 -0.16525,-0.10213 -0.25106,0.363842 -0.22855,1.241156 0.0198,0.772573 0.0852,1.107021 0.14526,0.743219 0.21763,-1.317806 0.28718,-1.374883 1.05908,-0.869117 0.3964,0.259733 0.7855,0.412711 0.86466,0.339951 0.17675,-0.162467 0.48142,1.784351 0.55897,3.571875 0.0335,0.772878 0.14681,0.08113 0.27244,-1.663745 0.18134,-2.518622 0.31017,-3.107172 0.82211,-3.755673 0.66287,-0.839691 1.26853,-1.029634 1.26853,-0.397825 0,0.220255 0.13801,0.621452 0.30669,0.891547 0.24472,0.39186 0.16759,0.939086 -0.38171,2.708389 -0.7906,2.546525 -1.55822,5.567052 -1.44385,5.681422 0.0428,0.04284 1.00946,-0.986127 2.14802,-2.286604 l 2.07013,-2.364503 0.67042,0.52735 c 0.36872,0.290042 0.89248,0.52735 1.1639,0.52735 0.72713,0 1.55242,0.952349 1.54767,1.785937 -0.004,0.622885 -0.33676,0.942064 -2.31511,2.217697 -1.27102,0.819551 -3.05509,1.877936 -3.9646,2.351967 l -1.65364,0.861875 0.0237,4.924074 c 0.0213,4.425623 0.0572,4.80355 0.35496,3.733449 0.82664,-2.970844 2.47224,-4.81134 5.01277,-5.606489 1.89159,-0.592039 2.91195,-0.470753 1.81307,0.215512 -0.25766,0.16091 -0.82264,0.814628 -1.25551,1.452707 -0.43287,0.63808 -1.94846,2.797482 -3.36799,4.798671 l -2.58095,3.638526 v 10.466151 c 0,9.422649 0.16623,11.980143 0.60355,9.285312 0.25408,-1.56571 1.55203,-4.475243 2.85105,-6.391016 1.27111,-1.874612 2.68848,-3.352554 4.61519,-4.812436 1.07489,-0.814451 5.26036,-3.257355 5.58089,-3.257355 0.41454,0 -0.2391,2.162697 -1.31944,4.365625 -1.19903,2.444951 -3.31986,5.325914 -8.56093,11.629247 -1.63711,1.968921 -2.97656,3.720038 -2.97656,3.891372 0,0.171339 0.8632,-0.521395 1.91823,-1.539399 4.59756,-4.436227 9.34499,-6.617972 15.47812,-7.113176 2.09739,-0.169348 2.18281,-0.154489 2.18281,0.379697 0,0.652644 -1.58507,2.486078 -2.90894,3.364749 -0.51013,0.338581 -1.52283,1.044102 -2.25043,1.567824 -2.38117,1.713937 -6.68105,3.371383 -10.56578,4.072714 -2.1533,0.38875 -8.84671,0.31441 -11.26235,-0.12509 z m 5.75416,-20.824292 c -0.0443,-2.219193 -0.0805,-0.40349 -0.0805,4.034895 0,4.438385 0.0362,6.254089 0.0805,4.034896 0.0443,-2.219193 0.0443,-5.850599 0,-8.069791 z m -0.003,-12.7 c -0.0534,-0.763984 -0.0972,-0.138906 -0.0972,1.389063 0,1.527968 0.0437,2.153047 0.0972,1.389062 0.0534,-0.763984 0.0534,-2.01414 0,-2.778125 z"
         id="path1057" />
      <path
         style="fill:#346945;stroke-width:1.32859"
         d="m 126.51675,48.614316 c -0.0883,-0.230183 -0.1606,-0.654925 -0.1606,-0.943871 0,-0.422501 0.11656,-0.489626 0.59532,-0.342854 1.31793,0.404037 1.68746,1.263517 0.66145,1.538476 -0.8519,0.228303 -0.91776,0.213178 -1.09617,-0.251751 z"
         id="path1093" />
      <path
         style="fill:#346945;stroke-width:1.32859"
         d="m 146.06761,49.330554 c -0.57014,-0.121273 -0.81869,-0.344656 -0.8823,-0.792962 -0.19162,-1.350704 1.15578,-1.228201 1.78951,0.162699 0.43966,0.964938 0.49276,0.928045 -0.90721,0.630263 z"
         id="path1092" />
      <path
         style="fill:#346945;stroke-width:1.32859"
         d="m 131.51553,100.61227 c -5.90121,-0.659843 -13.28805,-3.852058 -16.30017,-7.044098 -1.624,-1.721013 -1.56818,-1.937438 0.49962,-1.937017 4.77727,9.72e-4 11.36338,2.33447 15.508,5.49458 0.71222,0.543042 1.54204,1.165943 1.84404,1.384224 0.52729,0.381117 0.53365,0.374777 0.16026,-0.15967 -0.21386,-0.3061 -1.89675,-2.151569 -3.73977,-4.101041 -1.84301,-1.949473 -3.94211,-4.318403 -4.66468,-5.264288 -1.82258,-2.385884 -3.71874,-5.753734 -4.14128,-7.355491 l -0.3546,-1.344225 1.40673,0.62212 c 4.90386,2.168721 8.87581,5.689145 10.66714,9.454511 0.57432,1.207228 1.1957,2.730741 1.38084,3.385584 0.18514,0.654844 0.43561,1.303735 0.5566,1.44198 0.12099,0.138244 0.21998,-4.36346 0.21998,-10.003788 V 74.930509 l -1.79408,-2.167045 c -0.98674,-1.191875 -2.65429,-3.380827 -3.70567,-4.864338 -1.05137,-1.483511 -2.02998,-2.770459 -2.17467,-2.859885 -0.56996,-0.352256 -0.21496,-0.61466 0.68118,-0.50351 1.40172,0.173857 3.39133,1.280293 4.31308,2.398535 0.44713,0.542449 1.10822,1.707407 1.46909,2.588796 l 0.65611,1.602524 0.0129,-4.66915 0.0129,-4.66915 -2.4474,-1.564999 c -1.34606,-0.860749 -3.07247,-1.956965 -3.83645,-2.436035 -1.36787,-0.857747 -1.61721,-1.172811 -1.15448,-1.458795 0.12903,-0.07974 0.31302,-0.563018 0.40887,-1.073948 0.15445,-0.823328 0.27069,-0.932527 1.02218,-0.960296 0.46635,-0.01723 0.93968,-0.01641 1.05184,0.0018 0.11217,0.01824 0.12263,-0.290801 0.0232,-0.686761 -0.14051,-0.559858 0.17993,-0.30093 1.44123,1.164553 0.89206,1.036464 1.9234,2.328721 2.29186,2.871682 l 0.66993,0.987201 -0.009,-0.764525 c -0.0196,-1.620865 -0.76169,-4.839933 -1.67912,-7.283428 -1.10053,-2.931167 -1.12998,-3.164849 -0.47363,-3.758841 0.68048,-0.615822 0.7921,-0.560417 0.98936,0.491082 0.16644,0.887159 0.4616,1.267017 1.04033,1.338847 0.14552,0.01806 0.41341,0.05097 0.59531,0.07314 0.18191,0.02217 0.33073,0.166389 0.33073,0.320498 0,0.154109 -0.11906,0.206614 -0.26458,0.116677 -0.16224,-0.100273 -0.26571,0.328627 -0.2675,1.108864 -0.002,0.699812 -0.071,1.748636 -0.1542,2.330719 -0.11317,0.791697 -0.0801,0.958345 0.13115,0.661459 0.15535,-0.218282 0.28427,-0.833622 0.2865,-1.367423 0.005,-1.165557 0.26886,-1.970729 0.51538,-1.57186 0.0952,0.154047 0.46559,0.324328 0.82307,0.378402 0.55839,0.08446 0.67467,0.281137 0.82523,1.395744 0.0964,0.713585 0.20347,2.130866 0.23795,3.149511 0.0528,1.560389 0.10855,1.279947 0.35391,-1.780643 0.22247,-2.775167 0.40052,-3.759609 0.75424,-4.170212 0.25466,-0.295617 0.46302,-0.655186 0.46302,-0.799044 0,-0.540135 0.42572,-0.230205 0.90419,0.658271 0.46335,0.860384 0.46842,0.9929 0.0784,2.05052 -0.22932,0.621881 -0.59551,1.845067 -0.81376,2.718192 -0.21825,0.873125 -0.54055,2.156461 -0.71622,2.851858 -0.17567,0.695397 -0.26086,1.322895 -0.18932,1.394441 0.0716,0.07155 0.44095,-0.318822 0.8209,-0.867483 0.95384,-1.377367 3.70502,-4.276799 3.52289,-3.712719 -0.0817,0.252916 -0.0635,0.442013 0.0404,0.420216 0.10391,-0.0218 0.74948,0.111574 1.43462,0.296379 1.06015,0.285963 1.28955,0.468905 1.54016,1.228257 0.16196,0.490736 0.21726,1.017178 0.12289,1.169871 -0.24461,0.395784 -3.35602,2.414365 -5.82922,3.781797 -1.15864,0.640614 -2.09471,1.301328 -2.08016,1.468255 0.0146,0.166926 0.0519,2.35733 0.0829,4.867565 l 0.0564,4.564062 0.58531,-1.749249 c 0.32192,-0.962087 0.91707,-2.184213 1.32256,-2.715836 0.88722,-1.163206 2.89302,-2.232225 4.60868,-2.456259 l 1.25513,-0.163899 -0.67775,0.546052 c -0.37277,0.300328 -1.02761,1.060269 -1.45521,1.688759 -0.4276,0.628489 -1.87878,2.728531 -3.22485,4.666761 l -2.44739,3.524054 0.0209,11.029808 0.0209,11.029808 0.60971,-2.395295 c 1.43368,-5.632333 4.29958,-9.315772 9.78538,-12.57678 3.0818,-1.831959 3.45794,-1.916044 3.21863,-0.719518 -0.44756,2.237834 -2.67259,6.014044 -5.76852,9.790063 -0.9181,1.119784 -2.88967,3.524919 -4.38125,5.344745 -3.12076,3.807499 -3.65742,5.180539 -0.92605,2.369244 4.34513,-4.472263 9.38493,-6.852787 15.61042,-7.373501 2.04097,-0.170712 2.18281,-0.149496 2.18281,0.326504 0,0.950338 -1.96092,2.896229 -4.47509,4.440788 -0.23687,0.14552 -0.78539,0.517204 -1.21894,0.825963 -2.23795,1.593812 -7.21858,3.350771 -10.75627,3.794361 -2.45934,0.30837 -6.56624,0.30641 -9.34657,-0.004 z m 4.59516,-15.034992 c 0.0254,-5.730526 0.11021,-10.522792 0.1885,-10.649478 0.0783,-0.126687 -0.0433,-0.23034 -0.27013,-0.23034 -0.36784,0 -0.40872,1.252911 -0.37766,11.575521 0.0192,6.366536 0.11995,11.158801 0.22398,10.649478 0.10404,-0.509323 0.20992,-5.614654 0.23531,-11.345181 z m -1.40866,-18.142641 c -0.0888,-1.884502 -0.21701,-3.481923 -0.28492,-3.549827 -0.0679,-0.0679 -0.1115,1.950212 -0.0969,4.484699 0.0207,3.58639 0.0839,4.373495 0.28492,3.549827 0.14676,-0.601226 0.18861,-2.538225 0.0969,-4.484699 z m 1.576,-0.0092 c 0,-2.081858 -0.0893,-3.731088 -0.19844,-3.664954 -0.10914,0.06613 -0.19844,1.859466 -0.19844,3.985184 0,2.125717 0.0893,3.774946 0.19844,3.664954 0.10914,-0.109993 0.19844,-1.903326 0.19844,-3.985184 z m -2.33831,-10.785836 c -0.0734,-0.181901 -0.13346,-0.03307 -0.13346,0.330729 0,0.363802 0.0601,0.51263 0.13346,0.330729 0.0734,-0.181901 0.0734,-0.479557 0,-0.661458 z m -0.25269,-2.378165 c -0.0633,-0.329119 -0.11747,-0.122147 -0.1204,0.459936 -0.003,0.582083 0.0488,0.851362 0.11506,0.598397 0.0662,-0.252965 0.0686,-0.729215 0.005,-1.058333 z"
         id="path1088" />
      <path
         style="fill:#16552b;stroke-width:1.32859"
         d="m 132.40782,48.569846 c -0.32911,-0.419644 -0.31975,-0.429003 0.0999,-0.0999 0.25466,0.199719 0.46302,0.408078 0.46302,0.463021 0,0.217761 -0.21728,0.0776 -0.56292,-0.363126 z"
         id="path1380" />
      <path
         style="fill:#16552b;stroke-width:1.32859"
         d="m 126.60621,48.333214 c -0.32742,-0.861197 -0.31856,-1.403253 0.0145,-0.887844 0.14106,0.218281 0.2583,0.303389 0.26053,0.189128 0.007,-0.366025 1.06238,0.344532 1.06238,0.715363 0,0.196189 -0.24466,0.420688 -0.54369,0.498886 -0.40554,0.106051 -0.60722,-0.02494 -0.79375,-0.515533 z m 1.07286,-0.06579 c 0,-0.129952 -0.17859,-0.304809 -0.39687,-0.388571 -0.24176,-0.09277 -0.39688,-4.19e-4 -0.39688,0.236276 0,0.213714 0.17859,0.388571 0.39688,0.388571 0.21828,0 0.39687,-0.106324 0.39687,-0.236276 z"
         id="path1379" />
      <path
         style="fill:#16552b;stroke-width:1.32859"
         d="m 145.27386,49.032869 c -0.0899,-0.14552 -0.0374,-0.264583 0.11668,-0.264583 0.15411,0 0.2802,0.119063 0.2802,0.264583 0,0.145521 -0.0525,0.264584 -0.11668,0.264584 -0.0642,0 -0.19026,-0.119063 -0.2802,-0.264584 z"
         id="path1378" />
      <path
         style="fill:#16552b;stroke-width:1.32859"
         d="m 146.63121,48.943579 c -0.0854,-0.340153 -0.4257,-0.748813 -0.75629,-0.908134 -0.41352,-0.199295 -0.46939,-0.295262 -0.17905,-0.307582 0.45957,-0.0195 1.12128,0.637228 1.38155,1.371155 0.0903,0.254662 0.0618,0.463021 -0.0634,0.463021 -0.12518,0 -0.29745,-0.278307 -0.38282,-0.61846 z"
         id="path1377" />
      <path
         style="fill:#16552b;stroke-width:1.32859"
         d="m 137.86271,49.005229 c 0.28949,-0.348597 0.55738,-0.683421 0.59531,-0.744055 0.0379,-0.06063 0.069,0.084 0.069,0.32142 0,0.237415 -0.26789,0.57224 -0.59532,0.744055 l -0.59531,0.312392 z"
         id="path1376" />
      <path
         style="fill:#16552b;stroke-width:1.32859"
         d="m 133.33169,50.159253 c 0.0198,-0.762941 0.12522,-1.388019 0.23436,-1.389063 0.24,-0.0023 0.20936,0.901304 -0.0672,1.982477 -0.16314,0.637714 -0.19599,0.52106 -0.16713,-0.593414 z"
         id="path1375" />
      <path
         style="fill:#16552b;stroke-width:1.32859"
         d="m 134.04767,51.921243 c 0.0102,-0.351675 0.12648,-0.877534 0.25834,-1.168576 0.16709,-0.368802 0.19091,-0.208438 0.0786,0.529167 -0.18705,1.228461 -0.36382,1.563921 -0.33693,0.639409 z"
         id="path1374" />
      <path
         style="fill:#16552b;stroke-width:1.32859"
         d="m 135.9235,52.427952 c -0.0233,-0.38828 -0.1194,-0.924061 -0.21358,-1.190625 -0.13129,-0.371601 -0.0959,-0.415357 0.15157,-0.187575 0.18123,0.166796 0.27489,0.688957 0.21357,1.190625 -0.0888,0.726351 -0.11714,0.761448 -0.15156,0.187575 z"
         id="path1373" />
      <path
         style="fill:#16552b;stroke-width:1.32859"
         d="m 133.2967,52.472462 c 0,-0.509323 0.0545,-0.717683 0.121,-0.463021 0.0666,0.254661 0.0666,0.67138 0,0.926041 -0.0666,0.254662 -0.121,0.0463 -0.121,-0.46302 z"
         id="path1372" />
      <path
         style="fill:#16552b;stroke-width:1.32859"
         d="m 144.01709,55.074198 c -0.25466,-0.266789 -0.35854,-0.48507 -0.23083,-0.48507 0.26685,0 0.954,0.765225 0.7977,0.888338 -0.0571,0.04499 -0.31221,-0.13648 -0.56687,-0.403268 z"
         id="path1371" />
      <path
         style="fill:#16552b;stroke-width:1.32859"
         d="m 136.84792,53.13392 c 0.0849,-1.600729 0.23256,-2.996775 0.32811,-3.102323 0.18629,-0.205784 -0.161,5.305517 -0.36222,5.748156 -0.0661,0.145521 -0.0508,-1.045104 0.0341,-2.645833 z"
         id="path1370" />
      <path
         style="fill:#16552b;stroke-width:1.32859"
         d="m 136.23256,54.986003 c 0.001,-1.018646 0.049,-1.402943 0.10627,-0.853994 0.0573,0.548949 0.0563,1.382386 -0.002,1.852083 -0.0584,0.469697 -0.10531,0.02056 -0.10413,-0.998089 z"
         id="path1368" />
      <path
         style="fill:#16552b;stroke-width:1.32859"
         d="m 134.09579,56.30892 c 0.003,-0.582084 0.0571,-0.789055 0.12041,-0.459936 0.0633,0.329118 0.0609,0.805368 -0.005,1.058333 -0.0662,0.252965 -0.118,-0.01631 -0.11507,-0.598397 z"
         id="path1366" />
      <path
         style="fill:#16552b;stroke-width:1.32859"
         d="m 133.278,55.839669 c -0.15742,-1.058452 -0.76844,-3.322944 -1.35782,-5.032204 -1.02055,-2.959706 -1.05111,-3.13901 -0.64155,-3.764083 0.51696,-0.788972 0.53632,-0.793006 0.70526,-0.146966 0.0893,0.34152 0.0211,0.466357 -0.20696,0.378838 -0.72882,-0.279674 -0.62485,0.525116 0.48968,3.790531 0.98534,2.886864 1.78815,6.698343 1.41089,6.698343 -0.0623,0 -0.24207,-0.866006 -0.3995,-1.924459 z"
         id="path1364" />
      <path
         style="fill:#16552b;stroke-width:1.32859"
         d="m 136.93949,57.790027 c 0,-1.069859 2.35414,-8.897193 2.37261,-7.888755 0.005,0.259336 -0.17082,0.901026 -0.39016,1.425979 -0.21934,0.524952 -0.70242,2.214673 -1.0735,3.754934 -0.63692,2.643635 -0.90895,3.454044 -0.90895,2.707842 z"
         id="path1363" />
      <path
         style="fill:#16552b;stroke-width:1.32859"
         d="m 132.36166,57.410067 c -0.22889,-0.349338 -1.08591,-1.424616 -1.90449,-2.389507 -0.81858,-0.964892 -1.4273,-1.754348 -1.35272,-1.754348 0.2457,0 3.94054,4.511857 3.80546,4.646938 -0.0726,0.07264 -0.31935,-0.153746 -0.54825,-0.503083 z"
         id="path1362" />
      <path
         style="fill:#16552b;stroke-width:1.32859"
         d="m 137.61175,58.028711 c 0.44808,-0.80568 3.69822,-4.497781 3.95592,-4.493865 0.17753,0.0027 0.1781,0.069 0.002,0.198438 -0.14568,0.106912 -1.03211,1.087355 -1.96984,2.178761 -2.10201,2.446482 -2.27179,2.627266 -1.98781,2.116666 z"
         id="path1361" />
      <path
         style="fill:#16552b;stroke-width:1.32859"
         d="m 136.96783,61.301854 c 0.18474,-0.222596 1.11714,-0.793549 2.072,-1.268784 0.95486,-0.475235 2.51002,-1.394925 3.45591,-2.043755 2.08461,-1.429943 2.38125,-1.612374 2.38125,-1.464473 0,0.06317 -0.91929,0.750361 -2.04286,1.527083 -2.35602,1.628716 -6.36326,3.848725 -5.8663,3.249929 z"
         id="path1358" />
      <path
         style="fill:#16552b;stroke-width:1.32859"
         d="m 142.42518,64.875046 c 0.17948,-0.180821 0.39297,-0.262115 0.47443,-0.180653 0.0815,0.08146 -0.0654,0.229406 -0.32632,0.328765 -0.37708,0.143586 -0.40747,0.113195 -0.14811,-0.148112 z"
         id="path1352" />
      <path
         style="fill:#16552b;stroke-width:1.32859"
         d="m 143.1292,65.466262 c 0.53056,-0.553779 0.63537,-0.803295 0.38023,-0.905153 -0.19373,-0.07734 -0.061,-0.150021 0.29498,-0.16151 0.63575,-0.02052 0.63132,-0.0045 -0.25034,0.905154 -0.49366,0.509322 -0.95601,0.926041 -1.02745,0.926041 -0.0714,0 0.19972,-0.344039 0.60258,-0.764532 z"
         id="path1349" />
      <path
         style="fill:#16552b;stroke-width:1.32859"
         d="m 128.28452,66.693815 c -1.20671,-1.576857 -1.74333,-2.388711 -1.46877,-2.22212 0.34423,0.208869 2.02861,2.552849 1.83447,2.552849 -0.0619,0 -0.2265,-0.148828 -0.3657,-0.330729 z"
         id="path1348" />
      <path
         style="fill:#16552b;stroke-width:1.32859"
         d="m 132.8624,69.330739 c -0.89109,-2.177758 -2.04191,-3.379652 -3.9927,-4.169914 -0.80032,-0.324205 -1.00936,-0.474703 -0.52917,-0.380971 2.13334,0.416427 4.18351,2.437634 5.0451,4.97381 0.66176,1.947954 0.3407,1.688447 -0.52323,-0.422925 z"
         id="path1347" />
      <path
         style="fill:#16552b;stroke-width:1.32859"
         d="m 137.35224,70.596419 c 0.23328,-1.815939 1.42524,-3.820313 2.85728,-4.80474 0.70712,-0.486091 1.42149,-0.879034 1.5875,-0.873208 0.16601,0.0058 -0.0554,0.198304 -0.49191,0.427729 -1.79664,0.944181 -2.95253,2.578542 -3.80672,5.382511 l -0.28211,0.926041 z"
         id="path1346" />
      <path
         style="fill:#16552b;stroke-width:1.32859"
         d="m 136.4374,67.311176 c -0.0149,-2.388967 0.0328,-4.283712 0.10595,-4.210545 0.24145,0.241446 0.35733,6.700154 0.13701,7.636568 -0.14268,0.606473 -0.22506,-0.555062 -0.24296,-3.426023 z"
         id="path1345" />
      <path
         style="fill:#16552b;stroke-width:1.32859"
         d="m 135.72096,67.950586 c 4.2e-4,-2.037292 0.042,-2.835755 0.0923,-1.774362 0.0503,1.061393 0.05,2.728267 -7.5e-4,3.704166 -0.0508,0.975899 -0.092,0.107487 -0.0916,-1.929804 z"
         id="path1344" />
      <path
         style="fill:#16552b;stroke-width:1.32859"
         d="m 134.89849,70.596419 c 0.002,-0.727604 0.0534,-0.993858 0.11419,-0.591675 0.0608,0.402184 0.0592,0.997496 -0.004,1.322917 -0.0628,0.325421 -0.11256,-0.0036 -0.11058,-0.731242 z"
         id="path1343" />
      <path
         style="fill:#16552b;stroke-width:1.32859"
         d="m 134.02907,66.909052 v -5.142574 l -2.18281,-1.423248 c -1.20055,-0.782786 -2.93884,-1.907067 -3.86287,-2.498402 -0.96605,-0.618224 -1.55639,-1.151587 -1.38907,-1.255 0.16005,-0.09892 0.291,-0.06617 0.291,0.07277 0,0.138939 0.56555,0.604905 1.25677,1.03548 0.69123,0.430574 2.3581,1.470491 3.70417,2.310925 l 2.44739,1.528063 v 5.257281 c 0,2.891504 -0.0595,5.25728 -0.13229,5.25728 -0.0728,0 -0.13229,-2.314158 -0.13229,-5.142575 z"
         id="path1342" />
      <path
         style="fill:#16552b;stroke-width:1.32859"
         d="m 135.37287,75.33687 c 0.0127,-0.308224 0.0754,-0.370919 0.15986,-0.159852 0.0764,0.190996 0.067,0.419199 -0.0209,0.507118 -0.0879,0.08792 -0.15045,-0.06835 -0.13897,-0.347266 z"
         id="path1341" />
      <path
         style="fill:#16552b;stroke-width:1.32859"
         d="m 122.12282,81.444335 c -0.3638,-0.207968 -0.86982,-0.382343 -1.12448,-0.387499 -0.25466,-0.0052 -0.46302,-0.128438 -0.46302,-0.273959 0,-0.145521 0.0893,-0.259203 0.19844,-0.252628 0.32703,0.0197 2.60175,1.286834 2.3151,1.28963 -0.14552,0.0014 -0.56224,-0.167576 -0.92604,-0.375544 z"
         id="path1337" />
      <path
         style="fill:#16552b;stroke-width:1.32859"
         d="m 136.2178,82.370377 c 0,-0.654844 0.0516,-0.922735 0.11466,-0.595313 0.0631,0.327422 0.0631,0.863203 0,1.190625 -0.0631,0.327422 -0.11466,0.05953 -0.11466,-0.595312 z"
         id="path1333" />
      <path
         style="fill:#16552b;stroke-width:1.32859"
         d="m 152.57195,91.533512 c 0.0606,-0.0535 0.94368,-0.1582 1.96233,-0.232656 1.05979,-0.07746 1.62571,-0.0438 1.32291,0.07869 -0.51467,0.208196 -3.50554,0.348371 -3.28524,0.153971 z"
         id="path1325" />
      <path
         style="fill:#16552b;stroke-width:1.32859"
         d="m 136.21246,90.969335 c 0.003,-0.582084 0.0571,-0.789055 0.12041,-0.459936 0.0633,0.329118 0.0609,0.805368 -0.005,1.058333 -0.0662,0.252965 -0.11801,-0.01631 -0.11507,-0.598397 z"
         id="path1322" />
      <path
         style="fill:#16552b;stroke-width:1.32859"
         d="m 150.71987,92.064888 c 0.0606,-0.05229 0.46743,-0.174968 0.90399,-0.27262 0.57968,-0.129665 0.68672,-0.105118 0.39688,0.09102 -0.35729,0.241778 -1.56638,0.410566 -1.30087,0.1816 z"
         id="path1321" />
      <path
         style="fill:#16552b;stroke-width:1.32859"
         d="m 136.16662,94.122286 c 0.0127,-0.308225 0.0754,-0.370919 0.15986,-0.159853 0.0764,0.190996 0.067,0.4192 -0.0209,0.507118 -0.0879,0.08792 -0.15045,-0.06835 -0.13897,-0.347265 z"
         id="path1313" />
      <path
         style="fill:#16552b;stroke-width:1.32859"
         d="m 133.40114,93.691342 c -1.32031,-4.541721 -4.46086,-8.553586 -8.44609,-10.789387 -0.84337,-0.473148 -1.48142,-0.912254 -1.41788,-0.97579 0.17619,-0.176191 2.79306,1.476685 4.22051,2.665771 2.74069,2.283038 5.05234,5.871055 5.97426,9.272938 0.43208,1.594357 0.13834,1.440269 -0.3308,-0.173532 z"
         id="path1309" />
      <path
         style="fill:#16552b;stroke-width:1.32859"
         d="m 134.62122,85.185949 -0.063,-10.281302 -1.76225,-2.154114 c -0.96923,-1.184763 -1.88406,-2.332708 -2.03296,-2.550989 -0.45823,-0.671746 1.22037,1.148029 2.33398,2.530287 0.57878,0.718394 1.20546,1.425234 1.39264,1.570754 0.26939,0.209441 0.32513,2.44273 0.26744,10.715625 l -0.0729,10.451041 z"
         id="path1307" />
      <path
         style="fill:#16552b;stroke-width:1.32859"
         d="m 136.7257,88.19121 c -0.0399,-4.147344 -0.13492,-8.850312 -0.21123,-10.451041 l -0.13876,-2.910417 2.95598,-4.101041 c 1.62578,-2.255573 3.02484,-4.160573 3.109,-4.233333 0.3237,-0.279841 -1.0716,1.847407 -3.17522,4.840866 l -2.19369,3.121621 -0.13681,10.636985 -0.1368,10.636984 z"
         id="path1306" />
      <path
         style="fill:#16552b;stroke-width:1.32859"
         d="m 137.49127,95.467251 c -0.0526,-1.703191 1.29131,-4.955883 3.17102,-7.67498 1.90958,-2.762308 4.06658,-4.569675 8.00131,-6.70435 1.59178,-0.863579 2.19186,-1.038751 1.89105,-0.552024 -0.0959,0.155202 -0.23223,0.224363 -0.3029,0.153691 -0.0707,-0.07067 -0.80289,0.236171 -1.62715,0.681873 -5.7628,3.116113 -9.33075,7.3914 -10.65964,12.772873 -0.25154,1.018646 -0.4647,1.613959 -0.47369,1.322917 z"
         id="path1305" />
      <path
         style="fill:#16552b;stroke-width:1.32859"
         d="m 135.47157,86.339126 c 0,-5.31151 0.0353,-7.4844 0.0785,-4.828645 0.0432,2.655755 0.0432,7.001536 0,9.657291 -0.0432,2.655755 -0.0785,0.482865 -0.0785,-4.828646 z"
         id="path1304" />
      <path
         style="fill:#16552b;stroke-width:1.32859"
         d="m 129.59613,94.319649 c -2.17007,-2.30467 -4.49039,-4.953811 -5.15626,-5.886978 -1.42239,-1.993375 -3.22395,-5.12194 -3.49093,-6.062294 -0.10329,-0.363802 0.22444,0.123653 0.72827,1.083233 2.02479,3.856317 3.72378,6.134643 7.57981,10.164424 3.82028,3.992418 4.63816,4.891925 4.44798,4.891925 -0.0898,0 -1.9388,-1.885639 -4.10887,-4.19031 z"
         id="path1299" />
      <path
         style="fill:#16552b;stroke-width:1.32859"
         d="m 132.72565,98.665747 c -0.70561,-0.850212 -4.96929,-3.464816 -7.38088,-4.526152 -3.08638,-1.358314 -7.30567,-2.329452 -9.56644,-2.201875 -0.87669,0.04947 -1.59376,6.51e-4 -1.59349,-0.10849 9.2e-4,-0.378937 3.39561,-0.19557 5.85833,0.316444 3.59512,0.747444 6.98194,2.200548 10.31259,4.424592 1.57919,1.054508 3.19802,2.46886 2.82579,2.46886 -0.0803,0 -0.28546,-0.16802 -0.4559,-0.373379 z"
         id="path1298" />
      <path
         style="fill:#16552b;stroke-width:1.32859"
         d="m 137.46865,99.422358 c 0,-0.08026 1.45852,-1.881184 3.24115,-4.002046 1.78263,-2.120862 4.10843,-4.982736 5.16845,-6.35972 1.85545,-2.410261 4.26799,-6.706269 4.31129,-7.677116 0.0136,-0.30589 0.0693,-0.347359 0.16034,-0.119571 0.36914,0.923113 -2.41326,5.760395 -5.43037,9.440846 -1.07363,1.309688 -3.14651,3.839766 -4.60638,5.622396 -2.52993,3.089247 -2.84448,3.431522 -2.84448,3.095211 z"
         id="path1292" />
      <path
         style="fill:#16552b;stroke-width:1.32859"
         d="m 138.79157,99.460201 c 3.13638,-3.482754 8.09865,-6.759163 10.84792,-7.162483 0.62851,-0.0922 0.43951,0.02446 -0.58827,0.363129 -2.90729,0.957981 -5.98419,2.95376 -9.20132,5.968267 -1.0914,1.022669 -1.56765,1.396656 -1.05833,0.831087 z"
         id="path1283" />
      <path
         style="fill:#16552b;stroke-width:1.32859"
         d="m 131.9124,100.59933 c -2.10719,-0.20435 -3.13895,-0.4245 -6.52225,-1.391685 -1.97687,-0.565127 -5.51398,-2.167394 -7.07561,-3.205165 -1.73225,-1.151155 -3.66573,-2.806699 -3.48683,-2.985599 0.0762,-0.07619 0.52836,0.25048 1.00483,0.725925 3.89775,3.88932 12.84082,6.856254 20.71007,6.870724 2.78856,0.005 6.85715,-0.662152 9.525,-1.562166 3.01122,-1.015852 3.16679,-1.093481 6.33371,-3.160551 2.75668,-1.799306 4.63209,-3.497271 4.66739,-4.225778 0.013,-0.268177 0.0708,-0.307576 0.15305,-0.104245 0.20863,0.51598 -0.88561,1.844359 -2.51452,3.052563 -4.11293,3.05067 -5.39498,3.737267 -9.1688,4.910348 -4.18245,1.300109 -8.11235,1.610329 -13.62604,1.075629 z"
         id="path1280" />
    </g>
  </g>
</svg>
