<?xml version="1.0" encoding="UTF-8" standalone="no"?>
<!-- Created with Inkscape (http://www.inkscape.org/) -->

<svg
   width="185"
   height="185"
   viewBox="0 0 48.947914 48.947918"
   version="1.1"
   id="svg1"
   xmlns="http://www.w3.org/2000/svg"
   xmlns:svg="http://www.w3.org/2000/svg">
  <defs
     id="defs1" />
  <g
     id="layer1">
    <g
       id="g1382"
       style="display:inline;stroke-width:1.22393"
       transform="matrix(0.81704107,0,0,0.81704107,-132.9894,-33.48437)">
      <path
         style="fill:#fc8997;stroke-width:1.22393"
         d="m 188.51119,100.7857 c -0.0606,-0.058 -1.28276,-0.35298 -2.71583,-0.65546 -3.24135,-0.684148 -6.43516,-2.077463 -9.69754,-4.230599 -3.69896,-2.441275 -5.55573,-4.73968 -3.90261,-4.830844 2.86865,-0.158194 7.07944,0.642085 9.72344,1.84798 1.92826,0.879456 4.44811,2.62774 6.91756,4.799432 l 1.65473,1.455208 -2.50021,-3.005136 c -4.308,-5.178029 -6.30308,-8.003547 -7.93356,-11.235846 -1.51485,-3.003091 -1.92208,-4.412142 -1.27514,-4.412142 0.69735,0 4.28305,1.951598 5.71889,3.112634 3.08979,2.498436 4.94628,5.223129 5.99158,8.793616 l 0.6584,2.248958 0.0141,-12.746815 0.0141,-12.746815 -1.33914,-1.011518 c -0.73652,-0.556334 -2.00021,-1.529922 -2.80819,-2.163527 l -1.46905,-1.15201 -0.69754,0.511101 c -1.65476,1.212476 -4.29969,1.534483 -4.80767,0.585312 -0.23175,-0.433032 -0.45165,-0.511148 -1.0617,-0.377158 -1.24247,0.272892 -1.91333,-0.06379 -1.77095,-0.888774 0.0666,-0.385803 0.2056,-0.897893 0.30891,-1.137977 0.14416,-0.334984 -0.0268,-0.507371 -0.73516,-0.741138 -0.66794,-0.220441 -1.00321,-0.53467 -1.21321,-1.137085 -0.39602,-1.13602 -0.026,-1.441583 2.09995,-1.734309 l 1.71979,-0.236798 -1.13018,-0.206909 c -1.33585,-0.244561 -2.28979,-1.22917 -2.55367,-2.635756 -0.25832,-1.376964 0.2883,-2.374747 1.35777,-2.478442 0.83132,-0.0806 1.36485,-0.788033 1.01781,-1.349556 -0.35097,-0.567887 0.69776,-1.082032 2.20709,-1.082032 1.28188,0 1.62068,0.104531 2.14389,0.661458 0.82989,0.883383 0.95253,0.838503 0.90373,-0.330729 -0.0508,-1.216686 0.50798,-1.918229 1.52783,-1.918229 0.67143,0 0.72948,-0.06086 0.48816,-0.511772 -0.45416,-0.848616 -0.31893,-1.312904 0.67061,-2.302447 0.87515,-0.875157 1.02831,-0.931927 2.08619,-0.773288 1.18581,0.177824 1.62809,0.52663 2.36823,1.867715 0.43712,0.792039 0.43771,0.790232 0.27426,-0.83804 -0.14653,-1.459608 -0.10734,-1.662016 0.3714,-1.91823 1.41154,-0.755433 2.8614,-0.01549 3.11836,1.591472 l 0.16875,1.055301 0.47937,-0.788261 c 0.26366,-0.433543 0.71604,-0.914922 1.0053,-1.06973 1.48102,-0.792617 3.69639,0.218424 3.73136,1.702905 0.009,0.365524 0.0775,0.426688 0.22287,0.197784 0.42594,-0.670844 2.42733,2.125783 2.42733,3.39181 0,0.475245 0.1017,0.540161 0.59531,0.379979 0.97733,-0.317154 2.54322,-0.464217 3.19664,-0.300218 0.3365,0.08446 0.9201,0.586849 1.29691,1.116433 0.3768,0.529584 0.96353,1.101664 1.30385,1.271289 0.83527,0.416333 1.24216,1.404352 1.08357,2.631162 -0.22808,1.764404 -1.81261,2.262025 -5.17417,1.624952 -0.84034,-0.159259 -1.03087,-0.318936 -1.16182,-0.973707 -0.25912,-1.295571 -0.56594,-0.300331 -0.49786,1.614902 0.0499,1.40514 0.14159,1.731959 0.46986,1.675608 0.24074,-0.04133 0.54244,0.255024 0.73643,0.723362 0.18075,0.436352 0.69045,0.973871 1.13269,1.194485 1.11511,0.556294 1.15284,0.50622 0.21389,-0.283861 -0.83117,-0.699379 -1.07781,-1.430641 -0.48332,-1.433003 0.1819,-7.23e-4 -0.0265,-0.287707 -0.46303,-0.637742 -0.43656,-0.350035 -0.69451,-0.736397 -0.57323,-0.858582 0.12129,-0.122184 1.20122,-0.21532 2.39986,-0.206968 2.52049,0.01756 4.1265,0.72292 4.1265,1.812357 0,0.726044 -1.04314,1.756145 -1.8391,1.816102 -0.53327,0.04017 -0.5701,0.142513 -0.4175,1.160119 0.14135,0.942624 0.0857,1.159767 -0.35812,1.397295 -0.71089,0.380453 -1.34571,0.351325 -2.21393,-0.101581 -0.57244,-0.298615 -0.7276,-0.307012 -0.7276,-0.03938 0,0.187098 -0.2323,0.550403 -0.51621,0.807345 -0.48388,0.437903 -0.59475,0.440406 -1.77,0.03996 -0.68959,-0.234965 -1.49949,-0.658027 -1.79978,-0.940139 -0.54418,-0.511229 -0.55587,-0.505385 -3.52167,1.760806 l -2.97567,2.273737 0.005,12.593887 0.005,12.593887 0.79074,-2.24256 c 0.4349,-1.233407 1.22646,-2.900282 1.75901,-3.704166 1.3893,-2.097155 3.90071,-4.626097 5.94104,-5.982506 2.04956,-1.362545 4.61474,-2.591745 4.96146,-2.377463 0.41463,0.256259 -0.10153,1.791292 -1.56667,4.659167 -1.7933,3.510234 -3.16862,5.338776 -7.34697,9.768095 -3.57034,3.784793 -3.60849,3.770726 0.95001,0.350266 2.80561,-2.10518 9.14785,-4.306135 12.41084,-4.306948 2.10175,-5.25e-4 2.12027,0.439613 0.10594,2.518119 -1.42827,1.473768 -5.88469,4.089405 -8.7796,5.153074 -3.71849,1.366269 -8.90307,2.382632 -12.15411,2.382632 -1.54812,0 -2.86438,-0.0475 -2.92501,-0.10551 z m 8.72997,-39.480927 c -0.57047,-0.930379 -0.64393,-1.275967 -0.21486,-1.010789 0.20918,0.129284 0.21267,0.03352 0.0124,-0.340695 -0.15322,-0.286291 -0.25826,-1.030243 -0.23341,-1.653225 0.0386,-0.967112 0.19146,-1.250263 1.04593,-1.936931 1.1516,-0.925447 1.33937,-1.604488 0.37688,-1.362919 -0.34313,0.08612 -1.07579,-0.03224 -1.62812,-0.263016 -0.55234,-0.230779 -1.05712,-0.366721 -1.12175,-0.302091 -0.0646,0.06463 0.12972,0.778293 0.43189,1.58592 0.34037,0.90971 0.49062,1.762361 0.39489,2.240984 -0.085,0.424914 -0.0418,0.974017 0.096,1.220229 0.30563,0.546128 -0.7166,1.89702 -1.03979,1.374094 -0.10479,-0.16955 -0.18837,0.673044 -0.18573,1.872431 l 0.005,2.180704 1.28336,-1.389858 1.28335,-1.389858 z m -7.74142,-0.994122 c -0.22439,-0.745744 -0.44557,-1.594023 -0.49151,-1.885065 -0.0862,-0.546322 -0.96942,-0.832934 -1.70127,-0.552097 -0.34621,0.132852 -0.34387,0.222838 0.0192,0.741253 0.22731,0.324525 0.41328,0.919138 0.41328,1.321363 0,0.506299 0.30529,1.012377 0.99219,1.644767 1.1905,1.096021 1.38385,0.776262 0.76807,-1.270221 z m -6.96206,0.939941 c 0.44979,-0.49701 0.45276,-0.574133 0.046,-1.194972 -0.39388,-0.601129 -0.3967,-0.73745 -0.03,-1.44658 0.2365,-0.457332 0.70554,-0.858376 1.1279,-0.964381 0.53359,-0.133922 0.62835,-0.239998 0.36164,-0.404834 -0.22044,-0.136238 -0.59355,-0.07126 -0.95654,0.166586 -0.53393,0.349845 -0.655,0.340673 -1.17723,-0.08919 -0.32015,-0.263525 -0.80579,-0.836324 -1.07919,-1.272887 -0.27341,-0.436562 -0.49694,-0.615156 -0.49673,-0.396875 2e-4,0.218282 0.29369,0.873125 0.65221,1.455209 0.35851,0.582083 0.65556,1.140144 0.6601,1.240136 0.005,0.09999 -0.43823,0.111848 -0.98393,0.02635 l -0.99219,-0.155456 0.5055,0.570587 c 0.27802,0.313823 0.43037,0.645714 0.33854,0.737537 -0.0918,0.09182 0.0617,0.488034 0.34113,0.880471 0.32086,0.450609 0.44995,0.935762 0.35034,1.316663 -0.13803,0.527854 -0.0947,0.569426 0.34697,0.333038 0.27758,-0.148556 0.72106,-0.509187 0.98551,-0.801402 z m 6.7656,-6.779107 c 0.15856,-0.09799 0.28829,-0.279401 0.28829,-0.403128 0,-0.123726 -0.50602,0.02011 -1.12448,0.319637 -0.61847,0.299527 -1.40273,0.619521 -1.74282,0.711098 -0.59673,0.160684 -0.58286,0.191775 0.39687,0.889609 l 1.01522,0.723105 0.43932,-1.031075 c 0.24162,-0.567091 0.56904,-1.111252 0.7276,-1.209246 z m 6.38079,-1.999023 c 0.1588,0 0.22018,-0.110916 0.13639,-0.24648 -0.0838,-0.135564 0.11755,-0.444244 0.44741,-0.685955 l 0.59974,-0.439475 -0.66146,0.193184 c -0.3638,0.106252 -0.94541,0.414932 -1.29245,0.685955 -0.83083,0.648831 -0.99871,0.623154 -1.20122,-0.18372 -0.12722,-0.506886 -0.29203,-0.637694 -0.65734,-0.521747 -0.35182,0.111661 -0.53781,-0.01307 -0.66807,-0.447988 -0.14859,-0.496159 -0.21287,-0.527546 -0.36353,-0.177509 -0.10066,0.233873 -0.39137,0.393236 -0.64604,0.35414 -0.25466,-0.0391 -0.46302,0.0263 -0.46302,0.145319 0,0.119021 -0.23678,0.154481 -0.52619,0.0788 -0.2894,-0.07568 -0.47832,-0.215046 -0.41983,-0.309701 0.0585,-0.09465 -0.24981,-0.186654 -0.68513,-0.204445 l -0.7915,-0.03235 0.68216,0.712024 c 0.37519,0.391613 0.68216,0.9734 0.68216,1.292859 0,0.690372 -0.045,0.683176 1.14982,0.18396 1.28444,-0.536674 2.54983,-0.490217 3.3479,0.122914 0.65257,0.501339 0.66377,0.501262 0.85137,-0.0059 0.10456,-0.282649 0.32003,-0.513906 0.47883,-0.513906 z m -6.0925,0.264583 c 0,-0.145521 -0.18562,-0.264583 -0.41249,-0.264583 -0.22687,0 -0.33891,0.119062 -0.24897,0.264583 0.0899,0.145521 0.27556,0.264583 0.41249,0.264583 0.13693,0 0.24897,-0.119062 0.24897,-0.264583 z"
         id="path793" />
      <path
         style="fill:#fd778c;stroke-width:1.22393"
         d="m 185.8874,48.254739 c 0,-0.136932 0.1177,-0.32171 0.26155,-0.410616 0.14999,-0.09269 0.19434,0.01351 0.10399,0.248968 -0.17589,0.458369 -0.36554,0.542234 -0.36554,0.161648 z"
         id="path977" />
      <path
         style="fill:#fd778c;stroke-width:1.22393"
         d="m 194.61865,48.517089 c 0,-0.593062 1.48531,-1.894428 2.27427,-1.992627 1.20556,-0.150051 2.49484,0.710372 2.46437,1.644628 -0.0232,0.712151 -0.0305,0.708379 -0.27584,-0.142659 -0.20898,-0.724962 -0.34603,-0.844303 -0.80303,-0.699258 -0.36913,0.117159 -0.49127,0.07819 -0.37,-0.118036 0.11903,-0.192596 -0.1321,-0.292929 -0.7332,-0.292929 -0.71531,0 -1.09294,0.203509 -1.73541,0.935248 -0.45164,0.514386 -0.82116,0.813921 -0.82116,0.665633 z"
         id="path975" />
      <path
         style="fill:#fd778c;stroke-width:1.22393"
         d="m 193.86938,47.958965 c -0.0543,-1.149359 -0.49186,-1.761862 -1.3674,-1.91405 -0.55567,-0.09659 -0.52542,-0.12074 0.18913,-0.151009 1.0424,-0.04416 1.47411,0.615418 1.32586,2.025691 l -0.10312,0.980986 z"
         id="path974" />
      <path
         style="fill:#fd778c;stroke-width:1.22393"
         d="m 191.05276,48.59689 c -0.0882,-0.560573 -0.20951,-1.334189 -0.26949,-1.719147 -0.0857,-0.550192 0.0157,-0.729781 0.47409,-0.839497 0.47448,-0.113561 0.50598,-0.08774 0.16904,0.138562 -0.33685,0.226234 -0.37665,0.554353 -0.21327,1.758316 0.22628,1.667443 0.0878,2.238689 -0.16037,0.661766 z"
         id="path971" />
      <path
         style="fill:#fd778c;stroke-width:1.22393"
         d="m 190.15143,49.1351 c -0.0648,-1.180268 -2.23127,-2.558317 -2.92749,-1.862098 -0.19455,0.194552 -0.27821,0.191249 -0.27821,-0.01099 0,-0.508364 0.79598,-0.616562 1.71401,-0.232986 1.02407,0.427886 1.82609,1.494692 1.64588,2.189274 -0.10287,0.39649 -0.12863,0.382587 -0.15419,-0.0832 z"
         id="path970" />
      <path
         style="fill:#fd778c;stroke-width:1.22393"
         d="m 185.69418,49.580375 c 0.0212,-0.28096 0.12763,-0.455741 0.23659,-0.388402 0.10896,0.06734 0.13103,0.297216 0.0491,0.510837 -0.2067,0.538654 -0.33142,0.485198 -0.28565,-0.122435 z"
         id="path966" />
      <path
         style="fill:#fd778c;stroke-width:1.22393"
         d="m 188.55412,49.936867 c 0.0127,-0.308224 0.0754,-0.370919 0.15985,-0.159852 0.0764,0.190996 0.067,0.419199 -0.0209,0.507118 -0.0879,0.08792 -0.15046,-0.06835 -0.13897,-0.347266 z"
         id="path963" />
      <path
         style="fill:#fd778c;stroke-width:1.22393"
         d="m 192.52287,50.201449 c 0.0127,-0.308225 0.0754,-0.370919 0.15985,-0.159853 0.0764,0.190996 0.067,0.4192 -0.0209,0.507118 -0.0879,0.08792 -0.15046,-0.06835 -0.13897,-0.347265 z"
         id="path960" />
      <path
         style="fill:#fd778c;stroke-width:1.22393"
         d="m 192.98154,50.968798 c 0.191,-0.07643 0.4192,-0.06703 0.50712,0.02089 0.0879,0.08792 -0.0684,0.150452 -0.34727,0.138964 -0.30822,-0.0127 -0.37092,-0.07539 -0.15985,-0.159853 z"
         id="path958" />
      <path
         style="fill:#fd778c;stroke-width:1.22393"
         d="m 187.84664,50.579414 -0.50403,-0.570124 0.7276,0.468263 c 0.75025,0.482831 0.89212,0.671986 0.50403,0.671986 -0.12297,0 -0.45039,-0.256556 -0.7276,-0.570125 z"
         id="path957" />
      <path
         style="fill:#fd778c;stroke-width:1.22393"
         d="m 190.04331,50.488074 c -0.78086,-0.978644 -0.75459,-1.242321 0.0461,-0.463013 0.3995,0.388818 0.94,1.38908 0.75059,1.389055 -0.0318,-5e-6 -0.39034,-0.416723 -0.79672,-0.926042 z"
         id="path956" />
      <path
         style="fill:#fd778c;stroke-width:1.22393"
         d="m 184.06601,51.480274 c -0.0169,-0.181901 -0.0605,-0.420026 -0.0968,-0.529166 -0.109,-0.327 2.17178,-0.530534 2.43197,-0.217026 0.16275,0.196105 -0.11725,0.255389 -0.90885,0.192431 -0.93483,-0.07435 -1.16707,-0.0018 -1.26983,0.396749 -0.0692,0.268258 -0.13957,0.338913 -0.15645,0.157012 z"
         id="path952" />
      <path
         style="fill:#fd778c;stroke-width:1.22393"
         d="m 188.80048,51.971754 c -0.40875,-0.113768 -0.54333,-0.254716 -0.3546,-0.37136 0.3595,-0.222184 1.14569,0.03253 1.14569,0.371194 0,0.129952 -0.0298,0.224408 -0.0661,0.209903 -0.0364,-0.01451 -0.3626,-0.108887 -0.72494,-0.209737 z"
         id="path950" />
      <path
         style="fill:#fd778c;stroke-width:1.22393"
         d="m 193.99899,52.293763 c -0.25492,-0.25492 -0.21272,-0.670168 0.0515,-0.506864 0.12409,0.07669 0.45151,-0.03156 0.72761,-0.240554 0.31466,-0.238182 0.37275,-0.383125 0.15565,-0.388399 -0.19048,-0.0046 -0.27155,-0.12942 -0.18015,-0.277314 0.0914,-0.147895 0.26435,-0.208234 0.38432,-0.134089 0.11997,0.07415 0.72202,-0.04297 1.3379,-0.260267 1.49235,-0.526533 1.62038,-0.496911 0.58382,0.135077 -0.47646,0.290498 -1.03609,0.528178 -1.24362,0.528178 -0.20754,0 -0.47255,0.148828 -0.58892,0.330729 -0.34539,0.539887 -1.04098,1.000641 -1.22812,0.813503 z"
         id="path948" />
      <path
         style="fill:#fd778c;stroke-width:1.22393"
         d="m 183.60922,53.153145 c -0.0797,-0.207698 -0.10056,-0.654182 -0.0463,-0.992187 0.0725,-0.452109 0.13395,-0.352289 0.23238,0.377632 0.13854,1.027231 0.0652,1.269363 -0.18603,0.614555 z"
         id="path945" />
      <path
         style="fill:#fd778c;stroke-width:1.22393"
         d="m 206.24007,53.726252 c -0.0111,-0.03475 -0.0627,-0.289389 -0.1147,-0.565863 -0.13949,-0.742318 -0.59728,-0.914822 -1.67786,-0.632243 -2.24991,0.588368 -2.33636,0.580561 -2.5385,-0.229236 -0.10331,-0.413879 -0.37561,-0.960866 -0.60511,-1.215528 -0.22949,-0.254661 -0.33509,-0.463021 -0.23466,-0.463021 0.10044,0 0.0552,-0.238125 -0.10059,-0.529166 -0.17529,-0.327541 -0.55689,-0.530711 -1.0015,-0.533218 -0.56096,-0.0032 -0.63136,-0.06023 -0.32142,-0.260532 0.21828,-0.141064 0.58632,-0.258304 0.81785,-0.260532 0.4935,-0.0048 1.82799,2.310513 1.82799,3.171467 0,0.489475 0.10173,0.559431 0.59531,0.409353 2.29801,-0.698742 3.04496,-0.713877 3.83972,-0.0778 0.26893,0.215238 0.26893,0.347425 0,0.678615 -0.28157,0.346753 -0.26265,0.384584 0.12056,0.241034 0.25,-0.09365 0.5093,-0.08167 0.57623,0.02662 0.0669,0.108295 -0.16738,0.220824 -0.52069,0.250064 -0.35331,0.02924 -0.65149,0.02473 -0.66263,-0.01002 z"
         id="path942" />
      <path
         style="fill:#fd778c;stroke-width:1.22393"
         d="m 182.46981,53.152277 c -0.78859,-0.658844 -1.28504,-0.881436 -1.81097,-0.81198 -0.39851,0.05263 -0.92442,0.103891 -1.16869,0.113918 -0.24426,0.01003 -0.64406,0.218169 -0.88843,0.462539 -0.41602,0.416023 -0.43819,0.412551 -0.34824,-0.05454 0.10568,-0.548736 0.90924,-0.852082 2.36438,-0.892557 0.75837,-0.0211 1.17762,0.185467 2.09454,1.031959 1.40348,1.295686 1.24541,1.393857 -0.24259,0.150666 z"
         id="path941" />
      <path
         style="fill:#fd778c;stroke-width:1.22393"
         d="m 195.56171,53.739368 c -0.4717,-0.673453 -0.38572,-0.845647 0.69035,-1.382461 0.91346,-0.455691 1.40885,-0.551527 0.69268,-0.134003 -0.25962,0.15136 -0.38577,0.436208 -0.29636,0.669197 0.10252,0.267168 -0.0357,0.455707 -0.40489,0.552249 -0.3083,0.08062 -0.49414,0.254057 -0.41296,0.385408 0.0812,0.13135 0.24192,0.180526 0.3572,0.10928 0.41541,-0.256739 2.21208,-0.379416 1.96696,-0.134304 -0.13386,0.133864 -0.68388,0.299787 -1.22227,0.368717 -0.78294,0.100241 -1.05732,0.01335 -1.37071,-0.434083 z"
         id="path940" />
      <path
         style="fill:#fd778c;stroke-width:1.22393"
         d="m 176.01894,55.382861 c 0.38791,-0.716314 0.69332,-0.944819 1.34852,-1.008951 0.46586,-0.0456 0.84702,-0.214272 0.84702,-0.374826 0,-0.160555 0.0765,-0.215419 0.17,-0.121922 0.32732,0.327319 -0.4518,0.92249 -1.01485,0.775249 -0.42921,-0.112242 -0.5101,-0.05927 -0.34472,0.225751 0.11884,0.204824 0.12521,0.290708 0.0142,0.190854 -0.11106,-0.09985 -0.49886,0.13827 -0.86177,0.529166 l -0.65984,0.710721 z"
         id="path933" />
      <path
         style="fill:#fd778c;stroke-width:1.22393"
         d="m 182.18323,57.279042 c 0,-0.121268 0.17336,-0.220487 0.38524,-0.220487 0.21188,0 0.32392,0.09922 0.24897,0.220487 -0.075,0.121267 -0.2483,0.220486 -0.38524,0.220486 -0.13693,0 -0.24897,-0.09922 -0.24897,-0.220486 z"
         id="path931" />
      <path
         style="fill:#fd778c;stroke-width:1.22393"
         d="m 203.44058,57.171725 c 0.023,-0.388357 0.14279,-0.602469 0.26747,-0.477944 0.12474,0.12459 0.1061,0.439561 -0.0416,0.703528 -0.23006,0.411104 -0.26165,0.379556 -0.22585,-0.225584 z"
         id="path928" />
      <path
         style="fill:#fd778c;stroke-width:1.22393"
         d="m 202.29157,57.865253 c 0,-0.14552 0.1748,-0.495699 0.38846,-0.778173 0.21365,-0.282475 0.38846,-0.394528 0.38846,-0.249008 0,0.145521 -0.17481,0.495699 -0.38846,0.778174 -0.21366,0.282475 -0.38846,0.394528 -0.38846,0.249007 z"
         id="path927" />
      <path
         style="fill:#fd778c;stroke-width:1.22393"
         d="m 197.33063,57.811853 c -0.32742,-0.0465 -0.59531,-0.187358 -0.59531,-0.313016 0,-0.249131 1.87566,-1.773984 2.86739,-2.331099 0.56364,-0.316629 0.60414,-0.302356 0.45705,0.161083 -0.0959,0.302217 0.002,0.644123 0.24146,0.84283 0.24056,0.19965 0.40285,0.22358 0.40285,0.0594 0,-0.151213 -0.14883,-0.334985 -0.33073,-0.408384 -0.1819,-0.0734 -0.0548,-0.142852 0.28241,-0.15434 0.50588,-0.01723 0.58385,-0.125036 0.44569,-0.616201 -0.13109,-0.466024 -0.10711,-0.50912 0.11041,-0.198438 0.37901,0.541339 0.35653,1.250345 -0.0448,1.412272 -0.20075,0.08101 -0.15203,0.141661 0.12399,0.15434 0.29331,0.01347 0.40024,0.162829 0.30127,0.420764 -0.0974,0.253752 -0.0218,0.366283 0.20674,0.307947 0.1981,-0.05056 0.27015,-0.04174 0.1601,0.0196 -0.11005,0.06134 -0.12062,0.250185 -0.0235,0.419657 0.0971,0.169472 -0.11403,0.04412 -0.46926,-0.278566 -0.62186,-0.564901 -0.65729,-0.568393 -0.95355,-0.09399 -0.30625,0.490382 -1.86755,0.782862 -3.18227,0.596142 z"
         id="path926" />
      <path
         style="fill:#fd778c;stroke-width:1.22393"
         d="m 185.98062,57.761737 c -0.31253,-0.123821 -0.64698,-0.352535 -0.74322,-0.508253 -0.0962,-0.155719 -0.40608,-0.283125 -0.68853,-0.283125 -0.28245,0 -0.51355,-0.133641 -0.51355,-0.29698 0,-0.205186 -0.12267,-0.195173 -0.39688,0.0324 -0.21828,0.181157 -0.39505,0.225501 -0.39282,0.09854 0.005,-0.298453 0.51571,-1.093152 0.52106,-0.811188 0.002,0.117368 0.35477,0.0062 0.78342,-0.246984 0.42864,-0.253209 0.72012,-0.556233 0.64771,-0.673386 -0.0724,-0.117154 0.0545,-0.141582 0.28197,-0.05429 0.3112,0.119417 0.37394,0.03677 0.25337,-0.33376 -0.13259,-0.407489 -0.11098,-0.423988 0.12524,-0.0956 0.23593,0.32798 0.28619,0.288618 0.28954,-0.226745 0.003,-0.489522 0.10362,-0.582631 0.46707,-0.433003 1.00541,0.413906 1.30744,0.415451 1.64525,0.0084 0.29755,-0.358533 0.27634,-0.478503 -0.13823,-0.781645 -0.45369,-0.331743 -0.43821,-0.35245 0.2102,-0.281271 0.38497,0.04226 0.8246,0.153874 0.97696,0.248035 0.5742,0.35488 -1.45236,1.722031 -2.57433,1.736681 -0.48521,0.0063 -1.95784,1.036779 -1.49568,1.046567 0.1528,0.0032 0.41619,-0.132491 0.58531,-0.301615 0.23361,-0.233609 0.56278,-0.130589 1.36987,0.428726 1.1013,0.763199 1.75485,1.413891 1.57502,1.568138 -0.28259,0.242401 -2.29027,0.357836 -2.78875,0.160345 z m -1.01926,-1.320545 c 0.0899,-0.14552 0.0374,-0.264583 -0.11668,-0.264583 -0.15411,0 -0.2802,0.119063 -0.2802,0.264583 0,0.145521 0.0525,0.264584 0.11668,0.264584 0.0642,0 0.19026,-0.119063 0.2802,-0.264584 z"
         id="path925" />
      <path
         style="fill:#fd778c;stroke-width:1.22393"
         d="m 181.38948,58.325384 c 0,-0.221116 -0.27809,-0.2685 -0.89574,-0.152628 -0.5865,0.110029 -0.96545,0.05525 -1.09765,-0.158664 -0.14722,-0.238206 -0.0121,-0.290417 0.49886,-0.192743 0.76053,0.145384 0.85771,-0.06339 0.41476,-0.891045 -0.53508,-0.999815 -0.0732,-0.754613 0.6451,0.342436 0.39345,0.600943 0.65221,1.155779 0.57502,1.232969 -0.0772,0.07719 -0.14035,-0.004 -0.14035,-0.180325 z"
         id="path923" />
      <path
         style="fill:#fd778c;stroke-width:1.22393"
         d="m 208.60537,58.322622 c 0.46361,-0.414879 0.5957,-0.761021 0.5109,-1.338805 -0.0737,-0.502253 -0.0138,-0.723366 0.16848,-0.622026 0.15557,0.08648 -0.005,-0.12155 -0.3566,-0.46228 -0.39344,-0.381176 -0.52005,-0.659312 -0.32908,-0.722968 0.17071,-0.0569 0.24629,-0.207152 0.16796,-0.333888 -0.0783,-0.126737 -0.34696,-0.164867 -0.59696,-0.08474 -0.386,0.123725 -0.3947,0.102645 -0.0577,-0.139796 0.59646,-0.429065 0.74242,-0.366582 1.19697,0.512433 0.57589,1.11365 0.23504,2.822901 -0.67009,3.360268 l -0.65917,0.391344 z"
         id="path920" />
      <path
         style="fill:#fd778c;stroke-width:1.22393"
         d="m 204.48648,58.58918 -0.8478,-0.163608 0.50957,-0.661458 c 0.5051,-0.655639 0.5086,-0.656138 0.39815,-0.05666 -0.10327,0.560463 -0.0397,0.594194 0.86739,0.460178 0.77956,-0.115175 0.87109,-0.08929 0.44965,0.127169 -0.40871,0.209916 -0.25813,0.239823 0.66146,0.131379 0.84327,-0.09944 1.07484,-0.0633 0.79375,0.123881 -0.42832,0.285226 -1.4815,0.299775 -2.83217,0.03912 z"
         id="path919" />
      <path
         style="fill:#fd778c;stroke-width:1.22393"
         d="m 196.9999,58.55786 c 0,-0.145521 0.12609,-0.264583 0.2802,-0.264583 0.15411,0 0.20661,0.119062 0.11668,0.264583 -0.0899,0.145521 -0.21603,0.264583 -0.2802,0.264583 -0.0642,0 -0.11668,-0.119062 -0.11668,-0.264583 z"
         id="path918" />
      <path
         style="fill:#fd778c;stroke-width:1.22393"
         d="m 182.45841,59.185569 c -0.006,-0.309603 0.13824,-0.682808 0.32014,-0.829343 0.55953,-0.450748 1.99993,-0.648124 2.50343,-0.343042 0.41771,0.253101 0.39565,0.281474 -0.18833,0.242237 -1.41212,-0.09488 -1.84351,0.0532 -2.22991,0.76546 -0.35369,0.651941 -0.39584,0.669067 -0.40533,0.164688 z"
         id="path916" />
      <path
         style="fill:#fd778c;stroke-width:1.22393"
         d="m 178.80486,59.3469 c -1.60362,-0.233844 -2.11826,-0.582627 -2.61574,-1.772729 -0.55662,-1.331613 -0.38749,-1.392479 0.25504,-0.09179 0.63546,1.286359 1.50411,1.720327 3.00646,1.501993 0.56986,-0.08282 0.88568,-9.87e-4 0.98388,0.254924 0.0795,0.20729 0.0591,0.362037 -0.0455,0.343883 -0.10457,-0.01816 -0.81743,-0.124483 -1.58413,-0.236285 z"
         id="path915" />
      <path
         style="fill:#fd778c;stroke-width:1.22393"
         d="m 197.0613,59.616193 c -0.18176,-0.291041 -0.23904,-0.529166 -0.12729,-0.529166 0.11175,0 0.3519,0.238125 0.53365,0.529166 0.18176,0.291042 0.23904,0.529167 0.12729,0.529167 -0.11175,0 -0.35189,-0.238125 -0.53365,-0.529167 z"
         id="path914" />
      <path
         style="fill:#fd778c;stroke-width:1.22393"
         d="m 187.03108,59.153172 -0.30871,-0.992187 0.50856,0.624624 c 0.51268,0.629694 0.67843,1.359751 0.30871,1.359751 -0.10991,0 -0.33876,-0.446484 -0.50856,-0.992188 z"
         id="path913" />
      <path
         style="fill:#fd778c;stroke-width:1.22393"
         d="m 189.4647,59.568967 c -0.0975,-0.483349 -0.24062,-1.102085 -0.31811,-1.37497 -0.091,-0.320363 -0.0371,-0.43201 0.15205,-0.315114 0.16111,0.09957 0.29293,0.419165 0.29293,0.710207 0,0.291041 0.10864,0.462022 0.24143,0.379956 0.13278,-0.08207 0.20826,0.152931 0.16772,0.522216 -0.11221,1.022195 -0.33893,1.055061 -0.53602,0.0777 z"
         id="path912" />
      <path
         style="fill:#fd778c;stroke-width:1.22393"
         d="m 195.24836,60.290322 c -0.1824,-0.47532 0.11325,-1.001331 0.44691,-0.795121 0.13975,0.08638 0.2463,-0.433544 0.2463,-1.201924 0,-0.744781 -0.10659,-1.288273 -0.23686,-1.20776 -0.13027,0.08051 -0.3075,-0.03771 -0.39385,-0.26271 -0.0899,-0.234261 -0.0452,-0.340014 0.10457,-0.247449 0.41635,0.257316 0.30269,-0.299814 -0.13532,-0.663331 -0.21828,-0.181158 -0.39688,-0.728773 -0.39688,-1.216923 0,-0.650513 -0.17354,-1.001256 -0.64982,-1.313325 -0.3574,-0.234179 -0.76207,-0.356408 -0.89926,-0.271618 -0.13719,0.08479 -0.76751,0.217393 -1.4007,0.294674 -0.81429,0.09938 -1.29324,0.331988 -1.63635,0.794686 -0.66612,0.898309 -1.01426,0.823959 -0.54513,-0.116423 0.44001,-0.882036 1.52256,-1.346071 3.14025,-1.346071 1.38865,0 2.42158,0.947817 2.29966,2.110175 -0.0523,0.498621 0.0751,0.84062 0.37577,1.008897 0.34173,0.191243 0.49606,0.757841 0.62037,2.277621 0.15522,1.897692 0.0104,2.540807 -0.57226,2.540807 -0.12098,0 -0.28631,-0.172893 -0.3674,-0.384205 z"
         id="path911" />
      <path
         style="fill:#fd778c;stroke-width:1.22393"
         d="m 201.9698,60.715468 c 0.195,-0.123733 0.26889,-0.431922 0.17348,-0.723553 -0.12948,-0.395752 -0.10674,-0.424155 0.10293,-0.128531 0.20825,0.293631 0.2941,0.173917 0.37949,-0.529167 l 0.11035,-0.908649 0.0423,0.939271 c 0.0416,0.922527 -0.3219,1.578219 -0.87047,1.570219 -0.1528,-0.0022 -0.12495,-0.101044 0.0619,-0.21959 z"
         id="path910" />
      <path
         style="fill:#fd778c;stroke-width:1.22393"
         d="m 180.58626,61.776345 c 0.17431,-0.339885 0.38949,-0.54541 0.47818,-0.456721 0.0887,0.08869 -0.0539,0.366776 -0.31692,0.617973 -0.45714,0.436621 -0.46424,0.429525 -0.16126,-0.161252 z"
         id="path909" />
      <path
         style="fill:#fd778c;stroke-width:1.22393"
         d="m 182.10703,62.063589 c 0.0945,-0.254662 0.40449,-0.669545 0.68893,-0.921963 0.425,-0.377145 0.45786,-0.530405 0.18441,-0.859896 -0.1903,-0.229295 -0.21774,-0.400953 -0.0641,-0.400953 0.14777,0 0.34052,0.187218 0.42832,0.416042 0.18001,0.469079 -0.25196,1.436041 -0.64151,1.436041 -0.1404,0 -0.25527,0.178594 -0.25527,0.396875 0,0.218281 -0.11533,0.396875 -0.25628,0.396875 -0.14096,0 -0.17899,-0.20836 -0.0845,-0.463021 z"
         id="path908" />
      <path
         style="fill:#fd778c;stroke-width:1.22393"
         d="m 176.14771,62.25172 c -0.84299,-0.785359 -0.76828,-1.762466 0.14855,-1.943025 1.88784,-0.371788 3.1653,-0.442366 3.77031,-0.208304 0.55268,0.213817 0.41732,0.257205 -0.82307,0.263828 -3.13209,0.01672 -4.02718,0.513003 -2.99076,1.65823 0.2985,0.329841 0.69916,0.432322 1.38906,0.355292 0.8158,-0.09109 0.86466,-0.07107 0.3081,0.126224 -1.00332,0.355669 -1.17555,0.331563 -1.80219,-0.252245 z"
         id="path907" />
      <path
         style="fill:#fd778c;stroke-width:1.22393"
         d="m 207.84782,62.658901 c 0,-0.442554 0.69885,-0.549278 0.83922,-0.128161 0.14224,0.426733 1.27744,-0.503716 1.27744,-1.047037 0,-0.875538 -1.28011,-1.425238 -3.56877,-1.532479 -1.93293,-0.09057 -2.07552,-0.06382 -1.61777,0.303513 0.2761,0.221561 0.62192,0.328725 0.76849,0.238142 0.14656,-0.09058 0.18605,-0.03456 0.0877,0.124506 -0.0983,0.159061 0.0321,0.411962 0.28985,0.562001 0.36166,0.210548 0.37802,0.272727 0.0717,0.272484 -0.51834,-4.12e-4 -1.92423,-1.240308 -1.74153,-1.535916 0.48118,-0.778559 4.13674,-0.438075 5.46708,0.509211 0.94236,0.671024 0.97104,1.133082 0.12294,1.98118 -0.72592,0.725917 -1.9964,0.886641 -1.9964,0.252556 z"
         id="path906" />
      <path
         style="fill:#fd778c;stroke-width:1.22393"
         d="m 205.92486,62.649401 c -0.90008,-0.611621 -1.28591,-1.18718 -0.78902,-1.177035 0.29496,0.006 1.03204,0.516338 0.75259,0.521064 -0.13177,0.0022 0.10635,0.301562 0.52917,0.665186 0.98839,0.850017 0.7656,0.84585 -0.49274,-0.0092 z"
         id="path905" />
      <path
         style="fill:#fd778c;stroke-width:1.22393"
         d="m 204.18174,62.989669 c -0.28436,-0.714491 -1.09642,-1.024768 -1.09642,-0.418924 0,0.169774 -0.0692,0.239503 -0.15373,0.154952 -0.20467,-0.204668 0.36917,-1.257383 0.68541,-1.257383 0.33939,0 1.11599,1.548317 0.97113,1.936166 -0.0643,0.172036 -0.24713,-0.01463 -0.40639,-0.414811 z"
         id="path904" />
      <path
         style="fill:#fd778c;stroke-width:1.22393"
         d="m 205.84787,63.725687 c -0.28248,-0.213653 -0.37935,-0.392247 -0.21526,-0.396875 0.16408,-0.0046 0.44655,0.170179 0.62771,0.388461 0.41825,0.503962 0.24733,0.507449 -0.41245,0.0084 z"
         id="path903" />
      <path
         style="fill:#fd778c;stroke-width:1.22393"
         d="m 177.56574,63.824977 c 0.23275,-0.450086 0.47268,-0.768834 0.53319,-0.70833 0.16094,0.160942 -0.50971,1.522175 -0.75114,1.524603 -0.11287,0.0011 -0.0148,-0.366188 0.21795,-0.816273 z"
         id="path902" />
      <path
         style="fill:#fd778c;stroke-width:1.22393"
         d="m 183.77073,64.955909 c 0,-0.319763 0.50197,-0.692572 0.68546,-0.509084 0.0666,0.0666 -0.0604,0.27169 -0.28219,0.455766 -0.25145,0.20869 -0.40327,0.228762 -0.40327,0.05332 z"
         id="path901" />
      <path
         style="fill:#fd778c;stroke-width:1.22393"
         d="m 207.84782,64.511023 c -0.17453,-0.528824 -0.2578,-1.021028 -0.18503,-1.093789 0.0728,-0.07276 0.27508,0.300382 0.44961,0.829205 0.17453,0.528824 0.25779,1.021028 0.18503,1.093789 -0.0728,0.07276 -0.27509,-0.300382 -0.44961,-0.829205 z"
         id="path900" />
      <path
         style="fill:#fd778c;stroke-width:1.22393"
         d="m 178.14834,65.250339 c 0.32742,-0.06306 0.8632,-0.06306 1.19062,0 0.32743,0.06306 0.0595,0.114662 -0.59531,0.114662 -0.65484,0 -0.92273,-0.0516 -0.59531,-0.114662 z"
         id="path899" />
      <path
         style="fill:#fd778c;stroke-width:1.22393"
         d="m 205.51948,65.384148 c -0.17462,-0.174625 -0.31485,-0.502047 -0.31161,-0.727605 0.004,-0.307934 0.11977,-0.266262 0.46302,0.167267 0.25142,0.317553 0.81432,0.627136 1.25088,0.687961 0.75238,0.104826 0.7448,0.112657 -0.14552,0.150234 -0.5166,0.0218 -1.08214,-0.103232 -1.25677,-0.277857 z"
         id="path898" />
      <path
         style="fill:#fd778c;stroke-width:1.22393"
         d="m 180.33115,66.002921 c 0,-0.125341 0.29766,-0.170992 0.66146,-0.101447 0.3638,0.06955 0.66146,0.172097 0.66146,0.227893 0,0.0558 -0.29766,0.101447 -0.66146,0.101447 -0.3638,0 -0.66146,-0.102552 -0.66146,-0.227893 z"
         id="path897" />
      <path
         style="fill:#fd778c;stroke-width:1.22393"
         d="m 202.42386,66.209376 c -0.39736,-0.186848 -0.28717,-0.213149 0.44234,-0.105587 0.80135,0.118155 1.04463,0.03883 1.38906,-0.452904 0.28926,-0.412972 0.41756,-0.472372 0.41756,-0.193317 0,0.924842 -1.0994,1.292362 -2.24896,0.751808 z"
         id="path896" />
      <path
         style="fill:#fd778c;stroke-width:1.22393"
         d="m 188.51119,100.78572 c -0.0606,-0.058 -1.28276,-0.35298 -2.71583,-0.65546 -3.24135,-0.684148 -6.43516,-2.077463 -9.69754,-4.230599 -3.69896,-2.441275 -5.55573,-4.73968 -3.90261,-4.830844 2.86865,-0.158194 7.07944,0.642085 9.72344,1.84798 1.92826,0.879456 4.44811,2.62774 6.91756,4.799432 l 1.65473,1.455208 -2.50021,-3.005136 c -4.308,-5.178029 -6.30308,-8.003547 -7.93356,-11.235846 -1.51485,-3.003091 -1.92208,-4.412142 -1.27514,-4.412142 0.69735,0 4.28305,1.951598 5.71889,3.112634 3.08979,2.498436 4.94628,5.223129 5.99158,8.793616 l 0.6584,2.248958 0.0141,-12.746815 0.0141,-12.746815 -1.33933,-1.011518 c -3.15786,-2.384961 -4.04349,-3.163204 -4.25255,-3.736908 -0.14111,-0.387216 -0.12684,-0.550022 0.0392,-0.447406 0.27273,0.168556 0.38152,-0.364466 0.2886,-1.41395 -0.0681,-0.769169 0.45811,-1.439675 0.97439,-1.241562 0.21341,0.08189 0.5564,0.0092 0.7622,-0.161645 0.29903,-0.248172 0.55799,-0.132383 1.28938,0.576504 l 0.9152,0.887047 v -0.955896 c 0,-0.525742 0.10049,-0.995583 0.2233,-1.04409 0.12282,-0.04851 0.39071,-0.623975 0.59532,-1.278819 0.32355,-1.035538 0.45816,-1.180467 1.03346,-1.112639 0.54386,0.06412 0.5909,0.0244 0.26459,-0.223396 -0.32675,-0.248125 -0.30337,-0.268481 0.13229,-0.115195 0.46948,0.165189 0.85509,0.23908 1.87413,0.35913 0.15765,0.01857 0.28663,0.212855 0.28663,0.431741 0,0.347618 -0.0581,0.345437 -0.4588,-0.01723 -0.67786,-0.613458 -0.82438,-0.07126 -0.24029,0.889202 0.31661,0.52062 0.65156,0.780672 0.88843,0.689776 0.52507,-0.20149 0.73067,0.5935 0.7237,2.798368 l -0.006,1.8437 1.55076,-1.647247 1.55077,-1.647247 0.68556,0.641433 c 0.37706,0.352788 0.68556,0.804958 0.68556,1.004821 0,0.199864 0.31505,0.655359 0.7001,1.012213 0.38505,0.356853 0.5444,0.648825 0.35411,0.648825 -0.19029,0 -1.69595,1.02926 -3.34592,2.287245 l -2.99995,2.287246 0.005,12.595566 0.005,12.595566 0.79074,-2.24256 c 0.4349,-1.233407 1.22646,-2.900282 1.75901,-3.704166 1.3893,-2.097155 3.90071,-4.626097 5.94104,-5.982506 2.04956,-1.362545 4.61474,-2.591745 4.96146,-2.377463 0.41463,0.256259 -0.10153,1.791292 -1.56667,4.659167 -1.7933,3.510234 -3.16862,5.338776 -7.34697,9.768095 -3.57034,3.784793 -3.60849,3.770726 0.95001,0.350266 2.80561,-2.10518 9.14785,-4.306135 12.41084,-4.306948 2.10175,-5.25e-4 2.12027,0.439613 0.10594,2.518119 -1.42827,1.473768 -5.88469,4.089405 -8.7796,5.153074 -3.71849,1.366269 -8.90307,2.382636 -12.15411,2.382636 -1.54812,0 -2.86438,-0.0475 -2.92501,-0.10551 z"
         id="path895" />
      <path
         style="fill:#a49973;stroke-width:1.22393"
         d="m 196.73532,57.517278 c 0,-0.292979 2.05899,-1.985181 2.6859,-2.207438 0.2719,-0.0964 0.49387,0.01307 0.58764,0.289804 0.0829,0.244592 0.29606,0.643092 0.47374,0.885555 0.59645,0.813878 -0.1526,1.278949 -2.05989,1.278949 -0.92807,0 -1.68739,-0.111091 -1.68739,-0.24687 z"
         id="path1029" />
      <path
         style="fill:#a49973;stroke-width:1.22393"
         d="m 186.01051,57.772832 c -1.09754,-0.43643 -1.26005,-0.94612 -0.56085,-1.758993 l 0.64111,-0.745331 1.08298,0.750505 c 1.11962,0.775899 1.77646,1.427303 1.59562,1.582418 -0.27483,0.235744 -2.28326,0.360522 -2.75886,0.171401 z"
         id="path1028" />
      <path
         style="fill:#a49973;stroke-width:1.22393"
         d="m 188.51119,100.78572 c -0.0606,-0.058 -1.28276,-0.35298 -2.71583,-0.65546 -3.24135,-0.684148 -6.43516,-2.077463 -9.69754,-4.230599 -3.69896,-2.441275 -5.55573,-4.73968 -3.90261,-4.830844 2.86865,-0.158194 7.07944,0.642085 9.72344,1.84798 1.92826,0.879456 4.44811,2.62774 6.91756,4.799432 l 1.65473,1.455208 -2.50021,-3.005136 c -4.308,-5.178029 -6.30308,-8.003547 -7.93356,-11.235846 -1.51485,-3.003091 -1.92208,-4.412142 -1.27514,-4.412142 0.69735,0 4.28305,1.951598 5.71889,3.112634 3.08979,2.498436 4.94628,5.223129 5.99158,8.793616 l 0.6584,2.248958 0.0141,-12.746815 0.0141,-12.746815 -1.33933,-1.011518 c -3.70943,-2.801531 -4.08632,-3.159833 -4.01048,-3.812731 0.0408,-0.351103 0.0772,-1.07581 0.081,-1.610459 0.007,-1.005457 0.53227,-1.720184 1.03551,-1.40916 0.15827,0.09782 0.46602,0.02991 0.68389,-0.150908 0.32789,-0.272124 0.55378,-0.175951 1.31133,0.558291 l 0.9152,0.887047 v -0.977944 c 0,-0.53787 0.1096,-0.977944 0.24356,-0.977944 0.13396,0 0.32664,-0.386954 0.42818,-0.859896 0.3145,-1.464863 0.53204,-1.693589 1.50297,-1.580239 0.70043,0.08177 0.99907,0.308317 1.41508,1.073452 0.32752,0.602366 0.69209,0.942096 0.96225,0.896667 0.58104,-0.09771 0.77774,0.624636 0.77077,2.830478 l -0.006,1.827325 1.56774,-1.61213 c 1.5618,-1.606011 1.56987,-1.610212 2.12583,-1.107078 0.54893,0.496773 1.30814,2.008258 1.30814,2.60432 0,0.16726 -1.30969,1.300268 -2.91042,2.517795 l -2.91041,2.213686 0.005,12.597288 0.005,12.597288 0.79074,-2.24256 c 0.4349,-1.233407 1.22646,-2.900282 1.75901,-3.704166 1.3893,-2.097155 3.90071,-4.626097 5.94104,-5.982506 2.04956,-1.362545 4.61474,-2.591745 4.96146,-2.377463 0.41463,0.256259 -0.10153,1.791292 -1.56667,4.659167 -1.7933,3.510234 -3.16862,5.338776 -7.34697,9.768095 -3.57034,3.784793 -3.60849,3.770726 0.95001,0.350266 2.80561,-2.10518 9.14785,-4.306135 12.41084,-4.306948 2.10175,-5.25e-4 2.12027,0.439613 0.10594,2.518119 -1.42827,1.473768 -5.88469,4.089405 -8.7796,5.153074 -3.71849,1.366269 -8.90307,2.382631 -12.15411,2.382631 -1.54812,0 -2.86438,-0.0475 -2.92501,-0.10551 z"
         id="path1027" />
      <path
         style="fill:#638c65;stroke-width:1.22393"
         d="m 196.8926,57.540247 c -0.15943,-0.257974 2.26488,-2.157369 2.75359,-2.157369 0.14518,0 0.26397,0.139453 0.26397,0.309896 0,0.170442 0.19959,0.530443 0.44354,0.800002 0.33041,0.365101 0.36707,0.566567 0.14375,0.789888 -0.3819,0.3819 -3.39495,0.597197 -3.60485,0.257583 z"
         id="path1060" />
      <path
         style="fill:#638c65;stroke-width:1.22393"
         d="m 185.53251,57.378269 c -0.52116,-0.394901 -0.43244,-1.187304 0.19084,-1.704584 0.2576,-0.213788 0.65644,-0.07971 1.57726,0.530207 1.62627,1.077198 1.61866,1.562822 -0.0243,1.551821 -0.69122,-0.0046 -1.47593,-0.174478 -1.74379,-0.377444 z"
         id="path1059" />
      <path
         style="fill:#638c65;stroke-width:1.22393"
         d="m 186.94557,100.37175 c -4.83056,-1.108975 -6.98952,-2.012444 -10.86323,-4.545973 -2.99357,-1.957894 -4.97388,-4.056485 -4.38424,-4.646117 0.21983,-0.219831 3.38249,-0.107071 4.84077,0.17259 4.96539,0.952236 8.06268,2.570953 12.04456,6.294765 1.12994,1.056703 2.11702,1.921277 2.19353,1.921277 0.0765,0 -1.08169,-1.460744 -2.57375,-3.246099 -4.97764,-5.956079 -6.72327,-8.435089 -8.33388,-11.83515 -1.09177,-2.30477 -1.6012,-3.96875 -1.21504,-3.96875 0.11959,0 1.31462,0.54452 2.65562,1.210043 3.0039,1.490796 5.73069,3.919796 7.2261,6.436953 1.09637,1.845461 2.37831,5.235843 2.37831,6.289971 0,0.338314 0.0893,0.615023 0.19844,0.61491 0.10914,-1.14e-4 0.18973,-1.339567 0.17909,-2.976562 -0.0106,-1.636996 -0.0435,-7.500731 -0.0729,-13.030523 l -0.0536,-10.054166 -1.45879,-1.058333 c -3.86256,-2.802226 -4.12033,-3.043342 -3.90659,-3.654206 0.11146,-0.31852 0.20927,-0.936315 0.21737,-1.372877 0.0187,-1.006112 0.34481,-1.532667 0.83322,-1.345245 0.20932,0.08032 0.60997,0.0028 0.89035,-0.172317 0.43487,-0.271584 0.6277,-0.205372 1.31245,0.450666 l 0.80269,0.769023 v -0.991158 c 0,-0.545136 0.11049,-0.92287 0.24553,-0.839409 0.25223,0.155884 0.38351,-0.158786 0.67824,-1.625732 0.15592,-0.77606 0.24566,-0.838883 1.11856,-0.783041 0.74761,0.04783 1.03944,0.226921 1.3749,0.843755 0.78049,1.435132 0.83761,1.491443 1.20422,1.187188 0.47148,-0.391293 0.66209,0.430134 0.6666,2.87268 l 0.004,1.953911 0.57354,-0.763286 c 1.01105,-1.345512 2.16602,-2.483077 2.52107,-2.483077 0.4635,0 1.4033,0.964109 1.4033,1.439593 0,0.209693 0.11907,0.454845 0.26459,0.544782 0.51558,0.318648 0.23935,1.067053 -0.63476,1.719792 -0.48719,0.363802 -1.79383,1.346918 -2.90364,2.184704 l -2.01785,1.523245 -0.004,12.102795 c -0.002,6.656538 -0.0754,12.370686 -0.16315,12.698108 -0.0877,0.327422 -0.0513,0.595313 0.081,0.595313 0.13231,0 0.39113,-0.565547 0.57516,-1.256771 0.96553,-3.626677 3.81546,-7.67201 7.15417,-10.154973 1.91908,-1.427202 5.46382,-3.246819 5.85457,-3.005322 0.33849,0.209202 -0.79047,3.121653 -2.23425,5.763813 -1.4122,2.584355 -3.68039,5.467619 -7.36597,9.363395 -1.48902,1.573953 -2.52872,2.729 -2.31044,2.566772 5.36578,-3.9879 7.6099,-5.246124 11.24479,-6.304683 1.30969,-0.38141 3.28503,-0.765348 4.38966,-0.853195 1.74426,-0.138716 2.03133,-0.1 2.18268,0.294418 0.30417,0.79265 -2.51501,3.293935 -5.77859,5.126999 -6.6295,3.723604 -15.20267,5.364314 -21.03438,4.025504 z"
         id="path1058" />
      <path
         style="fill:#346945;stroke-width:1.22393"
         d="m 196.9999,57.521729 c 0,-0.288111 1.78632,-1.714559 2.4474,-1.954345 0.33662,-0.122101 0.46302,-0.03178 0.46302,0.330868 0,0.274348 0.14048,0.545642 0.31218,0.602876 0.19384,0.06461 0.23683,0.298643 0.1134,0.617361 -0.18759,0.484365 -0.21802,0.487199 -0.53979,0.05028 -0.40804,-0.554042 -0.79409,-0.613989 -0.59387,-0.09222 0.0876,0.228246 -0.0795,0.430298 -0.43471,0.525554 -0.86984,0.233286 -1.76763,0.192463 -1.76763,-0.08038 z"
         id="path1091" />
      <path
         style="fill:#346945;stroke-width:1.22393"
         d="m 185.70572,57.369034 c -0.48753,-0.341476 -0.52242,-0.484713 -0.25731,-1.056269 0.16868,-0.363673 0.47889,-0.662152 0.68935,-0.663287 0.56659,-0.0031 2.39547,1.33586 2.39547,1.753711 0,0.501852 -2.09844,0.476504 -2.82751,-0.03415 z"
         id="path1090" />
      <path
         style="fill:#346945;stroke-width:1.22393"
         d="m 187.21032,100.35699 c -3.30375,-0.697073 -5.22858,-1.277948 -6.73247,-2.031722 -1.78988,-0.897113 -5.06459,-2.905796 -6.33215,-3.884087 -1.22968,-0.949059 -2.60188,-2.770228 -2.36999,-3.145436 0.28247,-0.457038 4.79625,7.18e-4 7.34873,0.745256 3.83182,1.117709 6.42489,2.714265 10.00411,6.15954 0.98226,0.945507 1.78593,1.636104 1.78593,1.53466 0,-0.101443 -1.00484,-1.379225 -2.23298,-2.839516 -2.15678,-2.564469 -5.45553,-6.825414 -6.70919,-8.66615 -1.50528,-2.210191 -3.87872,-7.71129 -3.32702,-7.71129 0.37396,0 3.7145,1.681984 4.77816,2.405831 3.93186,2.675721 6.67414,6.879341 7.38407,11.318946 0.096,0.600539 0.27844,1.091889 0.40536,1.091889 0.26899,0 0.28237,-25.310882 0.0137,-25.98071 -0.0989,-0.24663 -1.39047,-1.348558 -2.87013,-2.448728 l -2.69028,-2.000309 0.26478,-0.958975 c 0.14564,-0.527436 0.21142,-1.163045 0.1462,-1.412463 -0.15491,-0.592384 0.68124,-1.146952 1.09917,-0.729017 0.21026,0.210262 0.29854,0.213025 0.29854,0.0093 0,-0.641412 0.83447,-0.558468 1.65826,0.164825 l 0.86416,0.758743 -0.0993,-1.041131 c -0.072,-0.755362 -0.005,-1.020348 0.24545,-0.965416 0.22029,0.04838 0.42915,-0.362326 0.57858,-1.137747 0.22791,-1.182673 0.25802,-1.21262 1.18669,-1.18037 0.58078,0.02017 1.00068,0.184056 1.07535,0.419709 0.0674,0.212642 0.35527,0.718977 0.63977,1.12519 0.40035,0.571635 0.59759,0.671898 0.87268,0.443598 0.47917,-0.397674 0.75341,1.063056 0.59938,3.192517 -0.0628,0.868143 -0.047,1.572516 0.035,1.565274 0.082,-0.0072 0.62543,-0.608224 1.20751,-1.335514 1.39387,-1.74159 1.87615,-2.006275 2.5479,-1.39835 0.28573,0.25858 0.71514,0.882416 0.95425,1.386302 l 0.43475,0.916156 -0.91012,0.775574 c -0.50056,0.426565 -1.74355,1.399509 -2.76219,2.162096 -1.01865,0.762587 -2.00208,1.569008 -2.18541,1.792045 -0.25992,0.316229 -0.31818,3.195341 -0.26458,13.075294 0.0382,7.046515 0.16628,12.434909 0.28852,12.140604 0.12088,-0.291042 0.57693,-1.481667 1.01345,-2.645833 0.43651,-1.164167 1.08219,-2.561265 1.43484,-3.104662 0.99353,-1.530942 3.71879,-4.435091 5.22839,-5.571584 1.16554,-0.877474 5.1731,-3.097712 5.59141,-3.097712 0.50219,0 -0.0989,1.784482 -1.56663,4.651016 -1.87904,3.669783 -4.30719,6.888423 -8.15118,10.804817 -1.27344,1.297427 -2.25446,2.41984 -2.18005,2.494252 0.0744,0.07441 0.46148,-0.167475 0.86014,-0.537527 1.27911,-1.187305 4.9687,-3.625239 6.70921,-4.43318 2.34203,-1.087162 6.06845,-2.117052 8.36136,-2.310874 1.79185,-0.151467 1.92615,-0.126673 1.92615,0.355606 0,1.335263 -4.12094,4.504461 -8.37486,6.44066 -2.25816,1.027817 -6.61778,2.27209 -9.7491,2.782473 -3.04015,0.49553 -5.50556,0.45296 -8.33437,-0.14391 z m 5.66495,-17.54691 c 0.12539,-6.948972 0.0959,-9.95893 -0.0963,-9.840114 -0.18496,0.114311 -0.27697,3.476711 -0.27697,10.121533 0,5.472696 0.0434,9.900748 0.0963,9.840114 0.053,-0.06063 0.17761,-4.615324 0.27697,-10.121533 z"
         id="path1089" />
      <path
         style="fill:#16552b;stroke-width:1.22393"
         d="m 199.66662,56.022288 c 0.0127,-0.308225 0.0754,-0.370919 0.15985,-0.159853 0.0764,0.190996 0.067,0.4192 -0.0209,0.507118 -0.0879,0.08792 -0.15046,-0.06835 -0.13897,-0.347265 z"
         id="path1369" />
      <path
         style="fill:#16552b;stroke-width:1.22393"
         d="m 197.28653,57.165996 c 0.0606,-0.03793 0.4079,-0.305822 0.7717,-0.595313 l 0.66146,-0.526347 -0.50403,0.595313 c -0.27721,0.327422 -0.62448,0.595312 -0.7717,0.595312 -0.14722,0 -0.21806,-0.03103 -0.15743,-0.06896 z"
         id="path1367" />
      <path
         style="fill:#16552b;stroke-width:1.22393"
         d="m 186.81344,57.564167 c 0.14552,-0.152813 0.50271,-0.322371 0.79375,-0.376796 0.42832,-0.0801 0.30227,-0.235779 -0.66146,-0.816929 -0.65484,-0.394886 -1.0021,-0.719101 -0.77168,-0.720477 0.23041,-0.0014 0.88526,0.409259 1.45521,0.912524 0.90844,0.802155 0.9655,0.916387 0.46259,0.926042 -0.31552,0.0061 -0.79177,0.08807 -1.05833,0.182246 -0.33366,0.117883 -0.40223,0.08467 -0.22008,-0.10661 z"
         id="path1365" />
      <path
         style="fill:#16552b;stroke-width:1.22393"
         d="m 190.91448,58.980799 c 0,-0.449431 0.43217,-0.795911 0.61541,-0.493383 0.0675,0.111515 -0.0433,0.356276 -0.2463,0.543914 -0.30317,0.280215 -0.36911,0.271188 -0.36911,-0.05053 z"
         id="path1360" />
      <path
         style="fill:#16552b;stroke-width:1.22393"
         d="m 193.62782,60.608399 c -0.37432,-0.472737 -0.9012,-1.521354 -0.7644,-1.521354 0.0635,0 0.36133,0.416718 0.66184,0.926041 0.54604,0.925472 0.59667,1.219338 0.10256,0.595313 z"
         id="path1359" />
      <path
         style="fill:#16552b;stroke-width:1.22393"
         d="m 188.31139,61.850862 c -0.34029,-0.177325 -0.51757,-0.384918 -0.39395,-0.461318 0.23181,-0.143269 1.32734,0.531273 1.12565,0.693088 -0.0621,0.04985 -0.3914,-0.05444 -0.7317,-0.23177 z"
         id="path1357" />
      <path
         style="fill:#16552b;stroke-width:1.22393"
         d="m 190.05459,62.438842 c -0.34279,-0.837219 -0.21781,-1.432932 0.33073,-1.576377 0.29104,-0.07611 0.52916,-0.03046 0.52916,0.101433 0,0.131897 -0.11152,0.239813 -0.24782,0.239813 -0.1363,0 -0.28512,0.386953 -0.33073,0.859896 -0.065,0.674141 -0.12577,0.755199 -0.28134,0.375235 z"
         id="path1356" />
      <path
         style="fill:#16552b;stroke-width:1.22393"
         d="m 198.85198,63.055794 c -0.21828,-0.141064 -0.27781,-0.25648 -0.13229,-0.25648 0.14552,0 0.44318,0.115416 0.66146,0.25648 0.21828,0.141065 0.27781,0.256481 0.13229,0.256481 -0.14552,0 -0.44318,-0.115416 -0.66146,-0.256481 z"
         id="path1355" />
      <path
         style="fill:#16552b;stroke-width:1.22393"
         d="m 186.06248,63.584961 c 0.0821,-0.800365 0.19541,-1.504818 0.25171,-1.565451 0.26518,-0.285554 0.24384,0.233116 -0.0644,1.565451 l -0.33666,1.455208 z"
         id="path1354" />
      <path
         style="fill:#16552b;stroke-width:1.22393"
         d="m 194.72894,62.698002 c -0.0129,-1.415938 0.0585,-2.145839 0.17206,-1.758874 0.25871,0.881796 0.28859,3.49396 0.0443,3.875541 -0.10691,0.167016 -0.20429,-0.785484 -0.21639,-2.116667 z"
         id="path1353" />
      <path
         style="fill:#16552b;stroke-width:1.22393"
         d="m 195.36598,65.040169 c 0.30429,-0.595718 2.64192,-2.940793 2.75285,-2.761623 0.0394,0.06368 -0.62464,0.830165 -1.47573,1.70329 -0.85108,0.873125 -1.42579,1.349375 -1.27712,1.058333 z"
         id="path1351" />
      <path
         style="fill:#16552b;stroke-width:1.22393"
         d="m 186.91198,65.767773 c -0.3291,-0.419643 -0.31974,-0.429002 0.0999,-0.09989 0.44073,0.345643 0.58089,0.562915 0.36313,0.562915 -0.0549,0 -0.26331,-0.208359 -0.46303,-0.463021 z"
         id="path1350" />
      <path
         style="fill:#16552b;stroke-width:1.22393"
         d="m 193.12185,78.798502 c 9.6e-4,-1.164167 0.0475,-1.607504 0.10337,-0.985194 0.0559,0.62231 0.0551,1.57481 -0.002,2.116667 -0.0568,0.541856 -0.10258,0.03269 -0.10162,-1.131473 z"
         id="path1340" />
      <path
         style="fill:#16552b;stroke-width:1.22393"
         d="m 193.05204,81.422285 c 0.0127,-0.308224 0.0754,-0.370919 0.15985,-0.159852 0.0764,0.190996 0.067,0.419199 -0.0209,0.507118 -0.0879,0.08792 -0.15045,-0.06835 -0.13896,-0.347266 z"
         id="path1338" />
      <path
         style="fill:#16552b;stroke-width:1.22393"
         d="m 180.33115,81.576627 c -1.15835,-0.634173 -1.31649,-0.641926 -1.34929,-0.06615 -0.017,0.299173 -0.0954,0.228953 -0.22148,-0.198438 -0.10731,-0.363802 -0.16688,-0.699155 -0.13239,-0.74523 0.0345,-0.04608 0.75924,0.27562 1.61054,0.714877 0.85131,0.439258 1.42877,0.799387 1.28325,0.800287 -0.14552,9e-4 -0.68131,-0.226508 -1.19063,-0.50535 z"
         id="path1336" />
      <path
         style="fill:#16552b;stroke-width:1.22393"
         d="m 206.32997,84.024022 c 0.70625,-1.59144 1.27301,-2.582969 1.09646,-1.918229 -0.20665,0.778085 -1.12301,2.645834 -1.29811,2.645834 -0.0667,0 0.0241,-0.327422 0.20165,-0.727605 z"
         id="path1332" />
      <path
         style="fill:#16552b;stroke-width:1.22393"
         d="m 185.08889,84.614264 c -0.3444,-0.366591 -1.19859,-1.033846 -1.89821,-1.48279 -0.69961,-0.448943 -1.27203,-0.877073 -1.27203,-0.9514 0,-0.07433 0.32742,0.07289 0.72761,0.327151 0.98145,0.623581 3.50572,2.548577 3.50572,2.673452 0,0.293181 -0.51165,0.02058 -1.06309,-0.566413 z"
         id="path1331" />
      <path
         style="fill:#16552b;stroke-width:1.22393"
         d="m 179.6279,83.808641 c -0.37068,-0.809684 -0.6278,-1.518323 -0.57137,-1.574753 0.0564,-0.05643 0.4158,0.606038 0.7986,1.472152 0.3828,0.866114 0.63991,1.574753 0.57137,1.574753 -0.0685,0 -0.42791,-0.662468 -0.7986,-1.472152 z"
         id="path1330" />
      <path
         style="fill:#16552b;stroke-width:1.22393"
         d="m 189.98102,92.112733 c -0.24319,-1.124426 -1.27522,-3.193032 -2.35246,-4.715273 -1.16666,-1.648612 -1.38076,-2.075771 -0.72936,-1.455208 1.24835,1.18926 3.8426,6.478589 3.39639,6.924793 -0.0685,0.06848 -0.21003,-0.270964 -0.31457,-0.754312 z"
         id="path1318" />
      <path
         style="fill:#16552b;stroke-width:1.22393"
         d="m 212.6825,92.542357 c 0.39686,-0.444525 0.72157,-0.877496 0.72157,-0.962158 0,-0.563736 -4.1614,-0.172007 -6.29736,0.592796 -0.48038,0.172002 -0.92879,0.257349 -0.99647,0.189662 -0.25074,-0.250741 3.78252,-1.256459 5.5209,-1.376672 2.23562,-0.154597 2.56943,0.263226 1.22104,1.528372 l -0.89125,0.836227 z"
         id="path1316" />
      <path
         style="fill:#16552b;stroke-width:1.22393"
         d="m 203.61448,93.218293 c 0.80037,-0.422832 1.63381,-0.774309 1.85209,-0.781059 0.21828,-0.0068 -0.35796,0.34482 -1.28053,0.781268 -2.13029,1.007793 -2.47933,1.007665 -0.57156,-2.09e-4 z"
         id="path1314" />
      <path
         style="fill:#16552b;stroke-width:1.22393"
         d="m 194.61865,94.54725 c 0,-0.422643 1.20521,-3.496031 1.92551,-4.910204 0.86127,-1.690954 4.33845,-5.424229 6.24772,-6.70786 1.24023,-0.833823 4.65849,-2.675476 4.9659,-2.675476 0.0495,0 0.0762,0.267891 0.0593,0.595313 -0.0218,0.423416 -0.0648,0.466029 -0.14874,0.147578 -0.1017,-0.385682 -0.39996,-0.299405 -2.15212,0.622533 -2.78216,1.46389 -4.23885,2.578282 -6.28322,4.806747 -1.77301,1.932671 -3.47739,4.966465 -4.07609,7.255433 -0.27299,1.043732 -0.5383,1.470515 -0.5383,0.865936 z"
         id="path1312" />
      <path
         style="fill:#16552b;stroke-width:1.22393"
         d="m 193.95205,82.109353 0.005,-12.828732 1.71979,-1.293912 c 0.94589,-0.711652 2.25558,-1.746849 2.91042,-2.300438 1.07431,-0.908193 1.1581,-1.060003 0.85765,-1.553918 -0.18313,-0.301065 -0.23201,-0.547392 -0.10861,-0.547392 0.12339,0 0.35001,0.27579 0.5036,0.612867 0.30015,0.658772 0.43626,0.521256 -4.16306,4.206037 l -1.4552,1.165852 -0.13744,12.684184 -0.13744,12.684183 z"
         id="path1311" />
      <path
         style="fill:#16552b;stroke-width:1.22393"
         d="m 190.51761,94.276626 c -0.10046,-0.457374 -0.1275,-0.88674 -0.0601,-0.954148 0.0674,-0.06741 0.19863,0.257779 0.2916,0.722638 0.22057,1.10285 0.007,1.316604 -0.23151,0.23151 z"
         id="path1310" />
      <path
         style="fill:#16552b;stroke-width:1.22393"
         d="m 191.44365,82.293437 -0.13229,-13.173814 -1.05833,-0.926304 -1.05834,-0.926304 1.12249,0.738661 c 0.61737,0.406263 1.18615,0.976785 1.26396,1.267826 0.0778,0.291042 0.10847,6.303698 0.0681,13.361458 l -0.0733,12.832291 z"
         id="path1308" />
      <path
         style="fill:#16552b;stroke-width:1.22393"
         d="m 198.02978,95.196764 c 3.75546,-3.948383 5.49521,-6.08867 6.8774,-8.460763 0.59356,-1.018645 1.0813,-1.753054 1.08387,-1.632019 0.0157,0.736091 -2.5848,4.528339 -4.87475,7.108849 -0.73605,0.829443 -1.63593,1.866393 -1.99973,2.304333 -0.36381,0.437939 -1.43537,1.483053 -2.38125,2.322475 -1.24448,1.104409 -0.88673,0.650357 1.29446,-1.642875 z"
         id="path1301" />
      <path
         style="fill:#16552b;stroke-width:1.22393"
         d="m 196.08121,98.233485 c 0.20977,-0.339426 3.67704,-2.883406 5.01973,-3.683045 0.58208,-0.34666 0.9988,-0.562223 0.92604,-0.47903 -0.3016,0.34485 -6.09144,4.397768 -5.94577,4.162075 z"
         id="path1300" />
      <path
         style="fill:#16552b;stroke-width:1.22393"
         d="m 189.04026,97.224918 c -3.83956,-4.464722 -8.44453,-10.737473 -8.44453,-11.502885 0,-0.156538 0.51218,0.546113 1.13818,1.561448 1.54039,2.498448 4.42101,6.239024 7.68454,9.978639 0.8615,0.987177 1.52078,1.838401 1.46505,1.891608 -0.0557,0.05321 -0.88518,-0.814758 -1.84324,-1.92881 z"
         id="path1295" />
      <path
         style="fill:#16552b;stroke-width:1.22393"
         d="m 188.26865,97.816748 c -1.23693,-1.107304 -2.75497,-2.362539 -3.37344,-2.789412 -1.2353,-0.852625 -1.56215,-1.355894 -0.39687,-0.611098 1.71488,1.096083 6.61784,5.420901 6.13911,5.415214 -0.0659,-7.83e-4 -1.13187,-0.9074 -2.3688,-2.014704 z"
         id="path1289" />
      <path
         style="fill:#16552b;stroke-width:1.22393"
         d="m 197.0231,99.964919 c 2.31541,-0.461488 6.95808,-1.904384 8.44347,-2.624144 1.515,-0.734112 3.50422,-1.881747 5.02708,-2.900266 0.65484,-0.437971 1.03042,-0.598342 0.83462,-0.35638 -0.42796,0.528837 -4.05161,2.680003 -6.25858,3.715382 -1.89104,0.887162 -7.86509,2.572889 -8.99324,2.537669 -0.48281,-0.0151 -0.11009,-0.16164 0.94665,-0.372261 z"
         id="path1284" />
      <path
         style="fill:#16552b;stroke-width:1.22393"
         d="m 187.60719,100.36629 c -4.86569,-0.885706 -7.81706,-2.105706 -12.02884,-4.972327 -2.23466,-1.520949 -4.13532,-3.559877 -3.80966,-4.086799 0.32592,-0.527356 4.95567,0.0076 7.71987,0.891992 1.40931,0.450909 2.79723,0.983739 3.08427,1.184068 0.67723,0.472642 0.42396,0.464929 -0.54738,-0.01667 -2.62838,-1.303167 -9.90936,-2.56152 -9.88645,-1.708649 0.029,1.081046 3.82866,3.989181 7.89199,6.040343 3.53835,1.786156 8.03665,2.792542 12.3387,2.760482 2.27187,-0.0169 2.62017,0.023 1.5875,0.18222 -2.02835,0.31263 -3.46506,0.25049 -6.35,-0.27466 z"
         id="path1281" />
    </g>
  </g>
</svg>
