<?xml version="1.0" encoding="UTF-8" standalone="no"?>
<!-- Created with Inkscape (http://www.inkscape.org/) -->

<svg
   width="185"
   height="185"
   viewBox="0 0 48.947914 48.947918"
   version="1.1"
   id="svg1"
   xmlns="http://www.w3.org/2000/svg"
   xmlns:svg="http://www.w3.org/2000/svg">
  <defs
     id="defs1" />
  <g
     id="layer1">
    <g
       id="g1385"
       style="display:inline;stroke-width:1.52578"
       transform="matrix(0.65540338,0,0,0.65540338,13.240175,-17.492517)">
      <path
         style="fill:#fc8997;stroke-width:1.52578"
         d="M 13.294047,101.1592 C 8.4452245,100.54621 1.7191116,97.438233 -1.9824311,94.1007 c -1.0580715,-0.954021 -2.2027327,-2.884984 -1.9513317,-3.291759 0.1906373,-0.308458 3.56463322,0.03508 5.7529964,0.585764 3.6630264,0.921773 5.9051913,2.255907 10.3005394,6.129032 l 2.067878,1.822188 -1.410494,-2.071629 c -1.57162,-2.308277 -2.9760624,-5.446221 -3.3827909,-7.558165 -0.30366,-1.57676 -0.3530854,-6.138488 -0.088988,-8.213199 0.1825412,-1.434019 0.5063443,-2.307555 0.8553659,-2.307555 0.29359,0 2.54195,3.809446 3.435494,5.820833 1.652887,3.720682 3.222422,9.52169 3.222422,11.910083 0,1.549109 0.458965,0.976398 0.604011,-0.753703 0.1959,-2.336701 1.07507,-5.989709 2.080073,-8.642839 1.656776,-4.373762 4.570197,-9.101836 5.217127,-8.466666 0.441685,0.433656 0.781445,6.363965 0.507758,8.862624 -0.243128,2.219677 -1.3959,5.43322 -2.555535,7.123979 -0.257324,0.37518 -0.85997,1.38939 -1.339213,2.253798 l -0.871352,1.571652 1.356799,-1.174777 c 3.996249,-3.460131 4.825413,-4.083404 6.686115,-5.025869 2.25489,-1.142127 4.933423,-1.837237 7.827236,-2.031259 2.275127,-0.15254 2.395094,0.05663 1.046543,1.824697 -1.42701,1.870935 -5.585641,4.882346 -8.785605,6.361965 -3.601614,1.665335 -6.418933,2.345315 -10.186457,2.458585 -1.819011,0.0547 -4.119461,-0.003 -5.112113,-0.12889 z"
         id="path791" />
      <path
         style="fill:#fd778c;stroke-width:1.52578"
         d="M 13.294047,101.1592 C 8.4452245,100.54621 1.7191116,97.438233 -1.9824311,94.1007 c -1.0580715,-0.954021 -2.2027327,-2.884984 -1.9513317,-3.291759 0.1906373,-0.308458 3.56463322,0.03508 5.7529964,0.585764 3.6630264,0.921773 5.9051913,2.255907 10.3005394,6.129032 l 2.067878,1.822188 -1.410494,-2.071629 c -1.57162,-2.308277 -2.9760624,-5.446221 -3.3827909,-7.558165 -0.30366,-1.57676 -0.3530854,-6.138488 -0.088988,-8.213199 0.1825412,-1.434019 0.5063443,-2.307555 0.8553659,-2.307555 0.29359,0 2.54195,3.809446 3.435494,5.820833 1.652887,3.720682 3.222422,9.52169 3.222422,11.910083 0,1.549109 0.458965,0.976398 0.604011,-0.753703 0.1959,-2.336701 1.07507,-5.989709 2.080073,-8.642839 1.656776,-4.373762 4.570197,-9.101836 5.217127,-8.466666 0.441685,0.433656 0.781445,6.363965 0.507758,8.862624 -0.243128,2.219677 -1.3959,5.43322 -2.555535,7.123979 -0.257324,0.37518 -0.85997,1.38939 -1.339213,2.253798 l -0.871352,1.571652 1.356799,-1.174777 c 3.996249,-3.460131 4.825413,-4.083404 6.686115,-5.025869 2.25489,-1.142127 4.933423,-1.837237 7.827236,-2.031259 2.275127,-0.15254 2.395094,0.05663 1.046543,1.824697 -1.42701,1.870935 -5.585641,4.882346 -8.785605,6.361965 -3.601614,1.665335 -6.418933,2.345315 -10.186457,2.458585 -1.819011,0.0547 -4.119461,-0.003 -5.112113,-0.12889 z"
         id="path893" />
      <path
         style="fill:#a49973;stroke-width:1.52578"
         d="M 13.294047,101.1592 C 8.4452245,100.54621 1.7191116,97.438233 -1.9824311,94.1007 c -1.0580715,-0.954021 -2.2027327,-2.884984 -1.9513317,-3.291759 0.1906373,-0.308458 3.56463322,0.03508 5.7529964,0.585764 3.6630264,0.921773 5.9051913,2.255907 10.3005394,6.129032 l 2.067878,1.822188 -1.410494,-2.071629 c -1.57162,-2.308277 -2.9760624,-5.446221 -3.3827909,-7.558165 -0.30366,-1.57676 -0.3530854,-6.138488 -0.088988,-8.213199 0.1825412,-1.434019 0.5063443,-2.307555 0.8553659,-2.307555 0.29359,0 2.54195,3.809446 3.435494,5.820833 1.652887,3.720682 3.222422,9.52169 3.222422,11.910083 0,1.549109 0.458965,0.976398 0.604011,-0.753703 0.1959,-2.336701 1.07507,-5.989709 2.080073,-8.642839 1.656776,-4.373762 4.570197,-9.101836 5.217127,-8.466666 0.441685,0.433656 0.781445,6.363965 0.507758,8.862624 -0.243128,2.219677 -1.3959,5.43322 -2.555535,7.123979 -0.257324,0.37518 -0.85997,1.38939 -1.339213,2.253798 l -0.871352,1.571652 1.356799,-1.174777 c 3.996249,-3.460131 4.825413,-4.083404 6.686115,-5.025869 2.25489,-1.142127 4.933423,-1.837237 7.827236,-2.031259 2.275127,-0.15254 2.395094,0.05663 1.046543,1.824697 -1.42701,1.870935 -5.585641,4.882346 -8.785605,6.361965 -3.601614,1.665335 -6.418933,2.345315 -10.186457,2.458585 -1.819011,0.0547 -4.119461,-0.003 -5.112113,-0.12889 z"
         id="path1025" />
      <path
         style="fill:#638c65;stroke-width:1.52578"
         d="M 15.23116,101.2452 C 9.777288,100.86623 5.2635043,99.193713 0.20048415,95.675799 -2.2391391,93.980688 -3.8188393,92.271303 -3.8188393,91.326512 c 0,-1.136367 5.4064596,-0.344097 9.1094238,1.334907 1.8304952,0.829986 3.9554366,2.365106 7.0963045,5.126578 0.982266,0.863615 1.785937,1.453463 1.785937,1.310774 0,-0.142689 -0.185968,-0.413775 -0.413263,-0.602413 C 13.532267,98.307719 12.945241,97.549 12.45506,96.810315 10.018038,93.137811 8.9564555,88.864447 9.2296685,83.826616 9.4127166,80.451355 9.7919606,79.008142 10.36983,79.487731 c 0.557718,0.462865 2.498539,4.027947 3.625897,6.660386 1.199615,2.801166 2.513733,7.81476 2.737385,10.443613 0.08976,1.055026 0.24714,1.918229 0.349739,1.918229 0.102599,0 0.259062,-0.922734 0.347695,-2.050521 0.416471,-5.299246 3.571342,-13.647329 6.349376,-16.80104 0.788356,-0.894967 0.976237,-0.911012 0.976237,-0.08337 0,0.354328 0.121154,0.962892 0.269231,1.352364 0.148077,0.389471 0.275241,2.093863 0.282588,3.787536 0.02058,4.74486 -0.700414,7.151209 -3.529311,11.779223 -0.701036,1.146878 -1.235863,2.12398 -1.188507,2.171337 0.04736,0.04736 1.379469,-1.042318 2.960249,-2.4215 3.218098,-2.807691 5.432784,-4.045029 8.746375,-4.886572 2.435117,-0.61844 4.928768,-0.930063 5.546282,-0.693101 1.004439,0.385439 -1.21856,2.93772 -4.736082,5.437615 -4.367204,3.103764 -8.431206,4.64812 -13.291239,5.05079 -1.721157,0.1426 -3.188908,0.24036 -3.261669,0.21724 -0.07276,-0.0231 -0.668073,-0.0793 -1.322916,-0.12476 z"
         id="path1056" />
      <path
         style="fill:#346945;stroke-width:1.52578"
         d="m 14.040535,101.09103 c -2.843934,-0.24785 -6.1203828,-1.196003 -9.1281248,-2.641527 -1.786066,-0.858386 -6.0214303,-3.565082 -7.1033525,-4.539544 -0.6468369,-0.58259 -1.627897,-2.292296 -1.627897,-2.836956 0,-0.537816 4.35434481,-0.08675 6.7468746,0.698902 3.2322855,1.061413 4.4709485,1.847585 9.0354567,5.734754 2.521226,2.147094 3.421857,2.678941 2.03501,1.201738 C 10.25981,94.72611 8.4687723,88.069838 9.4380007,81.7596 c 0.4219769,-2.747314 0.541552,-2.853609 1.5542803,-1.381659 0.962001,1.398222 3.145269,5.917014 3.83892,7.94556 0.820626,2.39988 1.758066,6.583021 1.9122,8.532812 0.0834,1.055026 0.227643,1.91823 0.320538,1.91823 0.09289,0 0.307926,-1.279922 0.477848,-2.844271 0.60796,-5.597075 3.592054,-13.300125 6.254498,-16.145176 l 0.809938,-0.865489 0.322564,1.526947 c 0.17741,0.839821 0.328803,2.836635 0.336427,4.437364 0.02298,4.824022 -0.756488,7.113846 -4.525787,13.295312 -0.591841,0.970589 -0.295355,1.154539 0.469996,0.291601 1.145219,-1.291242 4.981722,-4.471384 6.267193,-5.194982 2.312311,-1.301611 5.33862,-2.205833 8.044952,-2.403729 2.27076,-0.166045 2.463757,-0.142498 2.463757,0.300593 0,0.711721 -2.208881,2.945057 -4.623641,4.674831 -6.113099,4.379016 -11.734775,5.904666 -19.321149,5.243486 z"
         id="path1087" />
      <path
         style="fill:#16552b;stroke-width:1.52578"
         d="M 9.7092148,80.782877 C 9.6610944,80.07762 9.992595,79.196966 10.247005,79.3542 c 0.153177,0.09467 0.152564,0.269821 -0.0016,0.460045 -0.136928,0.168945 -0.3074919,0.545298 -0.3790309,0.83634 -0.072737,0.295917 -0.1420073,0.354229 -0.1571503,0.132292 z"
         id="path1339" />
      <path
         style="fill:#16552b;stroke-width:1.52578"
         d="m 9.4717107,82.105793 c 0,-0.509323 0.05445,-0.717682 0.121,-0.46302 0.06655,0.254661 0.06655,0.67138 0,0.926041 -0.06655,0.254662 -0.121,0.0463 -0.121,-0.463021 z"
         id="path1334" />
      <path
         style="fill:#16552b;stroke-width:1.52578"
         d="m 14.500293,88.333233 c -0.719691,-2.062137 -2.094931,-5.036194 -3.246682,-7.02119 -0.464394,-0.800364 -0.660822,-1.276614 -0.436507,-1.058333 1.006129,0.979065 4.597033,8.843778 4.361099,9.551578 -0.04411,0.132321 -0.349166,-0.530104 -0.67791,-1.472055 z"
         id="path1326" />
      <path
         style="fill:#16552b;stroke-width:1.52578"
         d="m 33.090534,91.248356 c 0.727604,-0.198283 2.156354,-0.354835 3.175,-0.347892 l 1.852083,0.01262 -2.116667,0.193859 c -1.164166,0.106622 -2.592916,0.263173 -3.175,0.347892 -0.916444,0.133383 -0.880972,0.1057 0.264584,-0.206482 z"
         id="path1324" />
      <path
         style="fill:#16552b;stroke-width:1.52578"
         d="M 9.5536509,89.200042 C 9.3093681,87.834355 9.1560927,85.91043 9.2097937,84.883918 l 0.09689,-1.852083 0.051821,2.021293 c 0.028502,1.111711 0.2374351,2.999769 0.4642964,4.195684 0.2268609,1.195916 0.3582769,2.22859 0.2920359,2.294831 -0.06624,0.06624 -0.3187756,-0.988379 -0.5611861,-2.343601 z"
         id="path1323" />
      <path
         style="fill:#16552b;stroke-width:1.52578"
         d="m 30.312409,92.027668 c 0.363802,-0.207968 0.840052,-0.377683 1.058333,-0.377143 0.218281,5.39e-4 -0.0037,0.174914 -0.493397,0.387499 -1.126688,0.48916 -1.429052,0.483617 -0.564936,-0.01036 z"
         id="path1319" />
      <path
         style="fill:#16552b;stroke-width:1.52578"
         d="m 18.154915,92.689126 c -0.02244,-0.593048 1.091268,-4.325296 1.381656,-4.630208 0.160401,-0.168424 0.175182,-0.02418 0.04067,0.396875 -0.116222,0.363802 -0.480411,1.554427 -0.809311,2.645833 -0.3289,1.091406 -0.604757,1.805781 -0.613015,1.5875 z"
         id="path1317" />
      <path
         style="fill:#16552b;stroke-width:1.52578"
         d="m 17.398512,98.113084 c -0.0057,-0.582083 0.146305,-1.951302 0.337829,-3.042708 0.450912,-2.569538 0.463569,-1.082381 0.01576,1.852083 -0.215791,1.414071 -0.347056,1.85607 -0.353592,1.190625 z"
         id="path1297" />
      <path
         style="fill:#16552b;stroke-width:1.52578"
         d="m 16.42246,96.988605 c -0.09722,-1.127786 -0.40704,-3.050626 -0.688487,-4.272976 -0.281446,-1.222351 -0.461992,-2.272185 -0.401213,-2.332964 0.06078,-0.06078 0.354831,0.939325 0.653448,2.222455 0.548073,2.355023 1.029403,6.434006 0.759229,6.434006 -0.08042,0 -0.225757,-0.922734 -0.322977,-2.050521 z"
         id="path1296" />
      <path
         style="fill:#16552b;stroke-width:1.52578"
         d="m 19.993659,99.004058 c 0,-0.164808 0.828572,-1.682855 1.84127,-3.373437 2.476806,-4.134741 2.946074,-5.640358 3.102116,-9.952953 0.08897,-2.45902 0.01837,-3.844208 -0.247651,-4.858912 l -0.372106,-1.419329 -0.851658,1.154746 c -0.468412,0.63511 -1.511306,2.494198 -2.317543,4.131308 -1.6245,3.298639 -2.103151,3.96111 -0.860254,1.190625 1.113938,-2.483032 2.268786,-4.489024 3.383722,-5.877588 l 0.948461,-1.181234 0.257352,1.313525 c 0.141543,0.72244 0.259491,2.980401 0.262106,5.017693 0.004,3.132229 -0.0872,3.986532 -0.59077,5.532914 -0.540767,1.6606 -2.540246,5.509278 -3.834476,7.380756 -1.00824,1.457932 -0.190491,0.987687 2.566847,-1.476061 2.425712,-2.167431 5.419062,-4.189293 6.142328,-4.148842 0.125151,0.007 -0.427296,0.351544 -1.227661,0.765654 -0.800364,0.414111 -2.822687,1.956196 -4.49405,3.426857 -2.87623,2.530844 -3.708033,3.063453 -3.708033,2.374278 z"
         id="path1294" />
      <path
         style="fill:#16552b;stroke-width:1.52578"
         d="m 13.876507,98.576105 c -1.206122,-1.329856 -3.124027,-4.685182 -3.516234,-6.151562 -0.0973,-0.363802 0.247421,0.224149 0.766056,1.306558 0.518635,1.082408 1.214969,2.332565 1.547409,2.778124 0.332439,0.44556 0.938926,1.256594 1.347748,1.802297 0.871791,1.163682 0.795967,1.30206 -0.144979,0.264583 z"
         id="path1293" />
      <path
         style="fill:#16552b;stroke-width:1.52578"
         d="M 11.526993,97.57108 C 10.144545,96.34769 8.2395455,94.826181 7.2936601,94.18995 5.2988557,92.848182 1.2360062,91.378209 -0.58374875,91.339836 -1.2716424,91.32533 -2.1321207,91.20803 -2.4959227,91.079168 c -0.4416459,-0.156434 -0.010791,-0.18979 1.2965252,-0.100375 2.05390534,0.140478 6.0369277,1.342988 7.6993076,2.324488 1.7566444,1.037157 8.3342279,6.514472 7.8052079,6.499589 -0.145521,-0.0041 -1.395677,-1.008399 -2.778125,-2.23179 z"
         id="path1286" />
      <path
         style="fill:#16552b;stroke-width:1.52578"
         d="M 11.923868,100.76536 C 9.5740066,100.39004 7.3627067,99.612787 4.3832436,98.11491 1.1078938,96.468281 -2.2664741,94.05322 -3.0129228,92.821418 c -0.6543231,-1.079776 -0.9092237,-1.984375 -0.5591628,-1.984375 0.1553271,0 0.2683134,0.0893 0.2510807,0.198437 -0.1927008,1.220439 0.8704928,2.394683 4.20239674,4.641338 2.88618246,1.946112 4.93394236,2.960419 5.39786506,2.673699 0.171435,-0.105952 0.230534,-0.0706 0.1364523,0.08163 -0.2198322,0.355696 1.3158685,1.012656 3.9206588,1.677223 1.369576,0.34943 3.424076,0.59439 5.820833,0.69402 3.143124,0.13067 4.106187,0.0702 6.358419,-0.39946 5.314871,-1.108238 10.618517,-4.019984 14.244049,-7.820107 1.189829,-1.247127 1.224467,-1.265652 0.454948,-0.243305 -2.691415,3.575687 -9.397531,7.386827 -14.839708,8.433522 -2.399792,0.46156 -7.533631,0.45729 -10.451041,-0.009 z"
         id="path1278" />
    </g>
  </g>
</svg>
