<?xml version="1.0" encoding="UTF-8" standalone="no"?>
<!-- Created with Inkscape (http://www.inkscape.org/) -->

<svg
   width="185"
   height="185"
   viewBox="0 0 48.947914 48.947918"
   version="1.1"
   id="svg1"
   xmlns="http://www.w3.org/2000/svg"
   xmlns:svg="http://www.w3.org/2000/svg">
  <defs
     id="defs1" />
  <g
     id="layer1">
    <g
       id="g3643"
       style="display:inline;stroke-width:1.13865"
       transform="matrix(0.87823289,0,0,0.87823289,-45.134931,-16.803978)">
      <path
         style="fill:#f0948e;stroke-width:1.13865"
         d="m 77.955615,74.68528 c -6.794159,0.380035 -19.396842,-9.944326 -5.741312,-6.122628 5.129489,4.328166 -5.696502,-14.331635 4.137644,-5.95847 3.38399,10.459923 4.580346,-2.402119 10.182361,-0.312368 -5.583059,8.85586 6.929622,2.99936 5.955196,7.670465 -4.262475,2.612825 -9.50557,5.219352 -14.533889,4.723001 z"
         id="path3103" />
      <path
         style="fill:#9d9967;stroke-width:1.13865"
         d="m 78.771561,74.814209 c -6.774448,0.494213 -20.685055,-9.978414 -6.609395,-6.240848 5.012281,4.219374 -5.22035,-12.90847 3.454282,-6.559652 4.239849,6.721571 3.557372,5.481513 8.661788,0.07879 5.423838,-1.399842 -2.081949,9.473906 5.180038,5.34631 11.211626,1.726676 -8.700956,8.079197 -10.686713,7.3754 z"
         id="path3109" />
      <path
         style="fill:#d36758;stroke-width:1.13865"
         d="m 79.036145,74.814209 c -4.405918,0.127439 -21.500154,-7.962135 -8.716423,-6.9198 10.58571,9.482766 -5.015483,-14.078739 6.373622,-4.785933 3.358632,9.573434 2.589278,-0.499589 9.779895,-0.882434 -5.964011,8.442303 8.851602,3.229762 5.191894,8.251512 -3.705803,2.286975 -8.876499,4.096926 -12.628988,4.336655 z"
         id="path3115" />
      <path
         style="fill:#6d8a49;stroke-width:1.13865"
         d="m 79.036145,74.814209 c -4.405918,0.127439 -21.500154,-7.962135 -8.716423,-6.9198 10.58571,9.482766 -5.015483,-14.078739 6.373622,-4.785933 3.358632,9.573434 2.589278,-0.499589 9.779895,-0.882434 -5.964011,8.442303 8.851602,3.229762 5.191894,8.251512 -3.705803,2.286975 -8.876499,4.096926 -12.628988,4.336655 z"
         id="path3123" />
      <path
         style="fill:#58662c;stroke-width:1.13865"
         d="m 76.125728,73.883593 c -6.380614,0.821592 -16.123336,-9.225419 -4.376672,-5.4469 7.065561,7.479148 -5.388605,-15.407575 5.056918,-5.208714 2.815205,11.663892 3.83901,-3.363236 9.71854,-0.541784 -5.821076,8.931842 7.132158,2.533053 5.494064,7.538535 -4.720087,2.682673 -10.358503,5.561998 -15.89285,3.658863 z m 1.322917,-0.203239 c -4.337986,-5.704551 -16.186225,-5.966986 -4.017387,-1.536399 0.05022,-0.491897 5.363561,2.985758 4.017387,1.536399 z m 7.885269,-1.1432 c 15.065276,-4.19999 -3.9808,-5.437523 -2.146612,0.350293 l 0.19393,0.04611 z m -6.959228,0.05398 c -1.651602,-1.28236 -1.733955,0.269679 0,0 z M 77.527835,70.59417 c 3.676338,-5.494701 -9.812409,-13.693789 -2.653925,-2.394543 -0.139272,-0.04859 3.582122,4.379285 2.653925,2.394543 z M 73.35079,62.649331 c -0.655809,-2.011192 1.53799,2.019526 0,0 z m 7.33713,7.074985 c -0.180433,-1.339531 -0.356635,1.792799 0,0 z m 2.51465,-0.664794 c 6.63928,-8.687633 -3.533085,-6.574991 -1.601461,0.974707 z m -2.238205,-1.689817 c -0.732171,0.314988 -0.0016,1.356087 0,0 z m 0.85949,-1.617475 c 1.321955,-3.11969 -2.079973,3.852462 0,0 z"
         id="path3135" />
      <path
         style="fill:#58210e;stroke-width:1.13865"
         d="m 86.209078,63.040251 c 0.852037,-2.873253 -0.203238,2.12552 0,0 z"
         id="path3211" />
      <path
         style="fill:#58210e;stroke-width:1.13865"
         d="m 85.803907,64.870286 c 0.381881,-0.704656 0.118001,1.140721 0,0 z"
         id="path3207" />
      <path
         style="fill:#58210e;stroke-width:1.13865"
         d="m 79.965215,67.461481 c 3.073083,-5.995523 7.75183,-7.210307 0.952753,-1.378522 z"
         id="path3201" />
      <path
         style="fill:#58210e;stroke-width:1.13865"
         d="M 76.013072,71.129678 C 71.334033,68.280582 59.769379,66.71387 71.891979,68.55938 c 6.66669,7.578445 -5.225493,-15.42081 4.762916,-4.989962 -1.298214,-2.814505 4.765388,7.941843 0.205443,0.235529 0.140176,1.353366 -7.530063,-6.898595 -3.396715,2.043948 -0.975116,1.538516 7.192852,7.430848 2.549449,5.280783 z"
         id="path3182" />
      <path
         style="fill:#58210e;stroke-width:1.13865"
         d="m 76.280362,73.87746 c -5.444233,0.723357 -16.883607,-10.162531 -5.990614,-1.879958 6.463778,3.389169 19.514221,1.887623 21.248516,-3.623921 -6.686797,0.840897 -10.549072,1.727194 -5.917729,-1.496874 -1.229743,2.35726 13.889874,0.470203 3.031612,5.119497 -3.583852,1.692364 -8.528715,3.420685 -12.371785,1.881256 z"
         id="path3176" />
      <path
         style="fill:#271c02;stroke-width:1.13865"
         d="m 86.241069,62.886751 c 0.800334,-1.097692 -0.305633,1.382786 0,0 z"
         id="path3594" />
      <path
         style="fill:#271c02;stroke-width:1.13865"
         d="m 77.770094,65.029357 c -6.406167,-4.492471 -5.740968,-6.99234 0,0 z m -1.728967,-2.146906 c -5.579428,-4.752665 4.608218,4.951666 0,0 z"
         id="path3585" />
      <path
         style="fill:#271c02;stroke-width:1.13865"
         d="m 78.275081,66.469606 c -0.693837,-1.936592 0.974748,1.239487 0,0 z"
         id="path3581" />
      <path
         style="fill:#271c02;stroke-width:1.13865"
         d="m 79.978957,67.399856 c 4.381647,-7.311941 4.576721,-5.512305 0,0 z"
         id="path3580" />
      <path
         style="fill:#271c02;stroke-width:1.13865"
         d="m 91.339269,68.199626 c -0.436578,-0.980836 1.33754,0.996331 0,0 z"
         id="path3576" />
      <path
         style="fill:#271c02;stroke-width:1.13865"
         d="m 84.724686,68.302594 c 0.807683,-2.612095 1.865053,-2.280349 0,0 z"
         id="path3575" />
      <path
         style="fill:#271c02;stroke-width:1.13865"
         d="m 86.444478,68.185147 c 8.799013,-1.525063 -0.469682,0.870395 0,0 z"
         id="path3574" />
      <path
         style="fill:#271c02;stroke-width:1.13865"
         d="m 82.872603,69.687231 c 0.894162,-1.073379 1.251011,-0.730721 0,0 z"
         id="path3568" />
      <path
         style="fill:#271c02;stroke-width:1.13865"
         d="m 73.228147,69.797326 c -9.198631,-2.666468 -5.039919,-3.452871 1.251406,0.78355 z"
         id="path3562" />
      <path
         style="fill:#271c02;stroke-width:1.13865"
         d="m 76.582082,70.961139 c -6.042656,-4.050834 -4.600608,-15.507274 -2.941545,-3.352703 0.263177,-1.122477 4.579354,5.467384 2.941545,3.352703 z m -3.335471,-4.788643 c -1.418687,-2.119193 1.117227,2.954997 0,0 z"
         id="path3556" />
      <path
         style="fill:#271c02;stroke-width:1.13865"
         d="m 71.281623,72.691551 c -5.193252,-2.228125 -7.370703,-5.818295 -1.386847,-0.718889 1.753835,0.330481 7.001057,1.342756 1.386847,0.718889 z"
         id="path3551" />
      <path
         style="fill:#271c02;stroke-width:1.13865"
         d="m 75.728853,73.623584 c -1.662426,-1.413964 2.953252,1.482961 0,0 z"
         id="path3548" />
      <path
         style="fill:#271c02;stroke-width:1.13865"
         d="m 80.359061,74.099811 c 4.055437,0.93189 19.330739,-9.127055 8.54784,-2.259838 -1.770527,1.237251 -8.199508,3.067702 -8.54784,2.259838 z"
         id="path3547" />
    </g>
  </g>
</svg>
