<?xml version="1.0" encoding="UTF-8" standalone="no"?>
<!-- Created with Inkscape (http://www.inkscape.org/) -->

<svg
   width="185"
   height="185"
   viewBox="0 0 48.947914 48.947918"
   version="1.1"
   id="svg1"
   xmlns="http://www.w3.org/2000/svg"
   xmlns:svg="http://www.w3.org/2000/svg">
  <defs
     id="defs1" />
  <g
     id="layer1">
    <g
       id="g3706"
       style="display:inline"
       transform="translate(-122.68401,-196.43569)">
      <path
         style="fill:#f0948e"
         d="m 145.51271,245.25176 c -5.56932,-3.30803 -20.93516,-14.60721 -5.52719,-11.56354 5.25825,7.2111 5.85911,3.96509 5.29434,-3.12554 2.50348,-7.26717 1.57939,15.58233 5.98829,2.75255 10.79018,-8.91151 -0.20523,6.97108 1.04709,7.18874 4.80685,-5.92644 13.79411,1.6826 3.59429,3.01836 -3.62024,-0.66299 -7.19859,2.53789 -10.39682,1.72943 z"
         id="path3099" />
      <path
         style="fill:#9d9967"
         d="m 145.5648,245.25267 c -4.63378,-3.50799 -21.8604,-13.77096 -6.04136,-11.75767 4.55977,4.62987 6.64547,5.98925 5.77274,-2.07642 1.46537,-10.17655 1.92833,13.41663 5.42688,2.62363 8.45254,-8.66349 4.6165,2.58708 0.52737,6.86931 4.46338,-5.50418 15.70919,0.22815 4.72837,2.57495 -3.6167,-0.60724 -7.20066,2.51227 -10.414,1.7662 z"
         id="path3098" />
      <path
         style="fill:#d36758"
         d="m 145.45238,245.13147 c -4.75968,-3.10765 -21.52081,-14.20502 -5.66863,-11.42194 6.51476,9.04705 5.09831,0.50349 6.14999,-4.93161 2.56071,6.16954 1.33982,11.93093 6.83679,3.2261 10.74159,-5.3657 -9.36653,15.37909 3.69692,6.77766 14.70657,1.70934 -8.95656,6.82609 -11.01507,6.34979 z m 11.69206,-3.14453 c 4.6565,-2.30732 -5.65348,2.04172 0,0 z m -10.06029,-5.71076 c -0.42558,0.39346 0.41175,2.04931 0,0 z m -6.62369,-0.18703 c -1.83766,-1.6431 0.20533,1.81772 0,0 z m 13.15684,-1.08348 c -0.26227,-0.97312 -0.54454,1.34697 0,0 z m -13.72699,-0.11855 c -1.54693,-1.26338 -0.33557,1.07862 0,0 z m 15.03006,-1.83174 c 1.45493,-3.06026 -2.67409,3.95765 0,0 z m -1.93319,0.37653 c 1.86828,-2.3522 -2.48997,2.38823 0,0 z m 2.64584,-1.79544 c 0.71168,-0.76343 -2.9756,1.41174 0,0 z"
         id="path3097" />
      <path
         style="fill:#6d8a49"
         d="m 145.45238,245.13147 c -4.75968,-3.10765 -21.52081,-14.20502 -5.66863,-11.42194 6.51476,9.04705 5.09831,0.50349 6.14999,-4.93161 2.56071,6.16954 1.33982,11.93093 6.83679,3.2261 10.74159,-5.3657 -9.36653,15.37909 3.69692,6.77766 14.70657,1.70934 -8.95656,6.82609 -11.01507,6.34979 z m 11.69206,-3.14453 c 4.6565,-2.30732 -5.65348,2.04172 0,0 z m -10.06029,-5.71076 c -0.42558,0.39346 0.41175,2.04931 0,0 z m -6.62369,-0.18703 c -1.83766,-1.6431 0.20533,1.81772 0,0 z m 13.15684,-1.08348 c -0.26227,-0.97312 -0.54454,1.34697 0,0 z m -13.72699,-0.11855 c -1.54693,-1.26338 -0.33557,1.07862 0,0 z m 15.03006,-1.83174 c 1.45493,-3.06026 -2.67409,3.95765 0,0 z m -1.93319,0.37653 c 1.86828,-2.3522 -2.48997,2.38823 0,0 z m 2.64584,-1.79544 c 0.71168,-0.76343 -2.9756,1.41174 0,0 z"
         id="path3096" />
      <path
         style="fill:#58662c"
         d="m 145.71114,245.23642 c -5.99087,-3.12656 -20.75548,-15.08757 -5.35939,-11.15189 6.11278,8.6813 4.42217,-0.17155 5.73908,-5.27308 2.17243,6.2569 1.4064,11.78334 6.76976,3.11594 10.55184,-4.89016 -9.80632,15.75216 3.73531,6.96605 15.01437,1.32635 -9.93773,6.86495 -10.88476,6.34298 z m 3.14829,-1.71397 c 2.91867,-0.55199 -4.74184,-6.63797 -2.32808,-11.99142 -1.58415,0.49134 3.34528,17.12781 -3.84138,5.94033 -4.77944,-7.52881 -12.2622,0.0702 -2.12522,2.44405 3.25854,0.21257 5.06815,6.65544 8.29468,3.60704 z m 9.15985,-1.79096 c 6.18578,-6.15812 -10.58977,2.4861 0,0 z m -3.6629,-7.71678 c 4.70119,-8.2406 -8.68714,6.86269 -3.61489,2.98907 -1.70584,4.91947 3.52414,-2.75478 3.61489,-2.98907 z m -19.79435,1.0047 c -0.81245,-1.68681 -1.02727,1.3322 0,0 z m 1.15558,-0.55673 c -1.04766,-0.55604 -0.24728,0.59621 0,0 z m 1.98989,-1.07371 c -1.45702,-0.42943 -0.26443,0.46307 0,0 z m -1.32292,-0.26458 c -1.45702,-0.42943 -0.26443,0.46307 0,0 z"
         id="path3095" />
      <path
         style="fill:#58210e"
         d="m 144.37784,238.86825 c -3.59152,-4.84162 -12.94773,-8.73245 -2.35409,-3.24708 -0.23267,0.34114 4.6479,4.42321 2.35409,3.24708 z"
         id="path3669" />
      <path
         style="fill:#58210e"
         d="m 153.38406,232.14349 c -2.91916,1.91345 -2.43927,2.52625 0,0 z"
         id="path3668" />
      <path
         style="fill:#58210e"
         d="m 150.42094,240.6418 c 2.75646,-3.66428 9.20418,-14.55976 0.89079,-6.01089 -4.98312,11.42559 -5.63723,-15.21827 -5.30377,1.46391 -1.04705,9.61278 -1.00778,-16.09838 1.48219,-3.03898 -2.77174,12.55502 13.02951,-11.53724 7.03698,2.02556 -0.65671,0.97627 -3.44485,6.98335 -4.10619,5.5604 z"
         id="path3667" />
      <path
         style="fill:#58210e"
         d="m 151.1351,241.37544 c 5.13348,-3.32202 11.21446,-2.67062 2.22922,-0.78614 z"
         id="path3666" />
      <path
         style="fill:#58210e"
         d="m 145.97572,245.32805 c -4.8073,-2.80362 -15.81166,-11.62672 -12.23716,-11.33844 -1.06919,3.47035 7.18244,6.55215 10.06916,8.3881 4.76025,4.98411 -0.37305,0.92376 7.59367,0.76607 8.32015,-0.0138 13.30644,-7.20248 5.31262,-0.17291 -3.56691,0.4904 -7.58872,1.93354 -10.73829,2.35718 z"
         id="path3665" />
      <path
         style="fill:#271c02"
         d="m 148.48927,237.59319 c 2.62309,-5.35976 9.1539,-8.3182 3.17497,-3.89673 -0.40442,-0.0545 -1.78425,4.02306 -3.17497,3.89673 z m 4.91993,-5.39286 c 1.82307,-1.92168 -2.66023,1.91915 0,0 z"
         id="path3273" />
      <path
         style="fill:#271c02"
         d="m 147.60732,237.88573 c -1.17633,-6.35576 -2.32051,-13.70654 0.15189,-2.72962 -1.06961,-1.22127 1.23806,3.91556 -0.15189,2.72962 z"
         id="path3272" />
      <path
         style="fill:#271c02"
         d="m 145.40615,234.39836 c 0.17329,-10.69383 1.01079,4.90054 -0.0167,2.97536 l -0.008,-1.32356 0.0252,-1.6518 z"
         id="path3270" />
      <path
         style="fill:#271c02"
         d="m 142.69826,237.20363 c -6.74022,-5.83233 -2.20645,-4.1265 1.63882,1.65222 z"
         id="path3268" />
      <path
         style="fill:#271c02"
         d="m 160.37549,239.71575 c -2.12536,-2.2155 2.59806,2.21848 0,0 z"
         id="path3264" />
      <path
         style="fill:#271c02"
         d="m 154.16555,239.89488 c 13.86493,-3.48008 -6.13947,2.7561 0,0 z"
         id="path3261" />
      <path
         style="fill:#271c02"
         d="m 150.98929,240.31107 c 3.39055,-5.61558 8.08768,-15.29601 2.63246,-3.66535 0.20565,0.18248 -3.48377,5.65493 -2.63246,3.66535 z"
         id="path3260" />
      <path
         style="fill:#271c02"
         d="m 151.26739,241.23711 c 0.9494,-1.00735 0.32859,1.04309 0,0 z"
         id="path3258" />
      <path
         style="fill:#271c02"
         d="m 156.16218,242.56744 c 8.73121,-3.61782 3.87408,-0.33441 0,0 z"
         id="path3247" />
      <path
         style="fill:#271c02"
         d="m 145.97572,245.32805 c -3.35175,-3.32916 -16.47903,-9.85324 -12.20433,-11.52101 -1.20185,4.04171 15.00249,12.46252 13.43045,10.86965 8.43391,-3.15052 11.12031,-2.00108 -1.22612,0.65136 z"
         id="path3245" />
    </g>
  </g>
</svg>
