<?xml version="1.0" encoding="UTF-8" standalone="no"?>
<!-- Created with Inkscape (http://www.inkscape.org/) -->

<svg
   width="185"
   height="185"
   viewBox="0 0 48.947914 48.947918"
   version="1.1"
   id="svg1"
   xmlns="http://www.w3.org/2000/svg"
   xmlns:svg="http://www.w3.org/2000/svg">
  <defs
     id="defs1" />
  <g
     id="layer1">
    <g
       id="g3708"
       style="display:inline;stroke-width:1.50771"
       transform="matrix(0.66325903,0,0,0.66325903,14.519447,-114.45052)">
      <path
         style="fill:#f0948e;stroke-width:1.50771"
         d="M 14.840941,246.35691 C 16.967545,234.38881 9.2243789,227.29432 0.93495733,220.99649 -8.766039,203.9596 17.222115,221.3956 14.093207,227.61108 c -0.483446,-12.16062 2.057655,-24.95503 -1.306173,-36.71944 -0.103805,-6.02866 -9.6579009,10.06158 -6.5155063,-1.23637 -1.3337414,0.95899 -9.843622,1.08118 -3.0882462,-4.69655 5.7808061,-4.9068 12.2868155,-19.41669 18.0986665,-5.35576 8.166204,2.33387 13.763292,12.58765 4.698434,10.60458 1.389256,10.29215 -11.567504,-8.29903 -8.908177,6.22555 -0.05018,11.14699 -0.494174,22.32707 0.05152,33.45723 -1.238997,-7.46134 9.576775,-22.79198 13.921486,-15.96391 -0.511685,9.71312 -17.1814,20.5004 -13.032863,26.70917 0.440305,-9.22683 21.309613,-9.84423 8.785956,-1.30311 -4.515097,0.96516 -8.271955,6.38654 -11.957366,7.02444 z m 10.262703,-56.25577 c -2.093298,-3.92105 1.143739,3.59138 0,0 z M 8.6301275,186.53452 c 1.3300218,-3.05823 -1.9665896,3.21004 0,0 z m 6.3542415,-5.15533 c -0.815033,-0.4837 -1.218402,2.26079 0,0 z m 1.477821,0.49137 c -0.894129,-1.07336 -1.251051,-0.73073 0,0 z"
         id="path3100" />
      <path
         style="fill:#9d9967;stroke-width:1.50771"
         d="m 14.87469,246.2642 c 1.54185,-11.16012 -4.472382,-19.25132 -13.4441206,-24.55905 -5.011187,-5.5077 -4.0857931,-11.63349 3.9446391,-6.54946 6.9572135,0.32723 9.2184275,22.64664 8.8814355,7.50061 -0.592209,-11.07567 2.210695,-24.93219 -2.292374,-34.02758 -3.2824877,7.76911 -7.0013701,3.54672 -6.3298901,0.46956 -12.2923221,5.20294 3.3939318,-9.71954 4.9182111,-12.87922 7.212035,-7.73951 13.560571,7.43422 20.121859,10.40935 3.109319,6.59921 -8.523736,-0.89991 -4.692768,7.24878 -5.634103,-0.77047 -8.803316,-8.70101 -8.926599,1.92596 0.04333,9.29591 -0.858212,30.4567 0.440038,31.45774 -1.176015,-6.29527 10.752131,-20.38579 13.549226,-13.3354 -1.096791,11.55271 -14.974226,15.84465 -13.86066,28.10542 -0.356119,-9.58645 22.868504,-12.32406 9.400824,-2.63638 -4.551702,0.66508 -8.126501,6.78292 -11.709821,6.86967 z m 6.349999,-28.04583 c 0.648766,-1.87796 -1.257969,1.89868 0,0 z m -4.694407,-25.33802 c 4.531989,-5.25629 -2.767742,-18.89753 -3.507676,-5.72111 0.258525,1.53271 0.949786,8.75847 3.507676,5.72111 z m 9.086554,-0.47033 c -1.16927,-6.89871 -11.894171,-15.62943 -5.943612,-3.00103 1.257914,1.1963 4.138663,4.98022 5.943612,3.00103 z m -3.212401,-5.43009 c -0.32321,-1.327 0.861159,1.00768 0,0 z m -0.915162,-1.05634 c 0.762057,-0.5042 0.617454,0.90879 0,0 z m -2.645834,-1.01375 c 0.657595,-0.7238 3.547191,0.20853 0,0 z m -9.5183816,5.82186 c 4.9693686,-2.97594 4.5963926,-15.73848 -0.4819351,-5.1794 -1.1182936,1.11871 -3.9376753,10.97031 0.4819351,5.1794 z m 2.2617116,-4.26333 c 0.865595,-3.47307 0.310886,1.42731 0,0 z m -7.5881099,2.2632 c 6.2932379,-3.47072 8.3570849,-11.65258 0.7892993,-4.07297 -1.8929269,0.98484 -4.14604075,5.58542 -0.7892993,4.07297 z m 0.098053,-0.97759 c 2.8098559,-2.67517 6.3489299,-5.2655 0.1327979,0.37054 L 4.0967121,187.754 Z m -0.6820199,-0.6903 c 2.0671306,-3.72778 0.4491535,2.04683 0,0 z m 0.7130355,-0.47676 c -0.2622762,-0.97312 -0.5445478,1.34697 0,0 z m 3.2666082,-3.2758 c 0.073126,-2.25364 0.8223216,1.46068 0,0 z m 20.6260111,5.10221 c -9.700225,-5.5712 10.383127,4.70347 -1.524675,-4.24917 -13.035063,-10.09287 -4.872383,2.55629 1.524675,4.24917 z m -6.730572,-5.4536 c -2.596683,-3.92374 1.643283,0.68338 0,0 z"
         id="path3106" />
      <path
         style="fill:#d36758;stroke-width:1.50771"
         d="m 14.673751,246.00321 c -0.51778,-6.53965 0.999232,-14.38059 -5.6079128,-18.59157 -6.8702807,-0.2173 -17.5292547,-19.27463 -3.96178,-12.34815 7.1943908,-0.0952 9.3851178,23.16156 9.2195828,8.00089 -0.417663,-11.63982 2.336672,-23.8177 -2.014173,-34.87831 -3.1379782,7.35945 -7.3461096,4.79848 -6.6750941,0.91218 -12.5102384,4.99639 4.0248562,-9.45639 5.1205641,-13.27784 8.039531,-6.64086 13.012687,8.11125 20.23202,11.22477 2.482789,6.38146 -9.661723,-2.06605 -4.882492,6.50804 -5.420258,-0.14274 -9.052471,-8.38096 -9.095041,2.19201 0.133481,9.21614 -1.00567,31.626 0.511086,32.65135 2.503027,-8.86427 2.580823,-12.59674 10.775361,-16.28371 7.878737,-0.4993 -2.833692,15.40058 -7.06139,17.13737 -3.641792,3.59412 -6.277491,20.43747 -1.053404,7.43516 4.267881,-5.74559 17.155326,-4.15329 6.796696,2.38789 -4.498903,0.7819 -8.713901,7.20861 -12.304023,6.92992 z m 14.885313,-9.52859 c 1.353551,-1.89238 -1.974475,1.92418 0,0 z M 9.822763,220.79806 c -3.0815135,-5.24158 -8.5635107,-6.01542 -4.0198766,-3.4033 0.589185,-0.89973 5.3814646,6.14501 4.0198766,3.4033 z m 13.622002,-1.62823 c 5.584153,-6.79807 2.042492,-3.21882 0,0 z M 6.5289625,218.94597 c -3.8838756,-3.01652 -2.8607081,-0.66443 0,0 z m 18.3998935,-4.16339 c 3.750358,-2.38501 -2.496005,1.38245 0,0 z m -9.202196,-6.41994 c 0.928429,-5.88111 -0.342339,-18.50323 -0.576486,-6.23318 -0.03733,0.5348 -0.05572,13.98721 0.576486,6.23318 z m 0.662698,-5.28693 c -0.377874,0.73205 0.367197,3.48851 0,0 z m 0.140924,-10.19536 c 4.531989,-5.25629 -2.767742,-18.89753 -3.507676,-5.72111 0.258525,1.53271 0.949786,8.75847 3.507676,5.72111 z m 9.086554,-0.47033 c -1.16927,-6.89871 -11.894171,-15.62943 -5.943612,-3.00103 1.141974,1.13329 4.294619,5.03371 5.943612,3.00103 z m -3.212401,-5.43009 c -0.32321,-1.327 0.861159,1.00768 0,0 z m -0.915162,-1.05634 c 0.762057,-0.5042 0.617454,0.90879 0,0 z m -2.645834,-1.01375 c 0.657595,-0.7238 3.547191,0.20853 0,0 z m -9.5183816,5.82186 c 4.9693686,-2.97594 4.5963926,-15.73848 -0.4819351,-5.1794 -1.1182936,1.11871 -3.9376753,10.97031 0.4819351,5.1794 z m 2.2617116,-4.26333 c 0.865595,-3.47307 0.310886,1.42731 0,0 z m -7.5881099,2.2632 c 6.2932379,-3.47072 8.3570849,-11.65258 0.7892993,-4.07297 -1.8929269,0.98484 -4.14604075,5.58542 -0.7892993,4.07297 z m 0.098053,-0.97759 c 2.8098559,-2.67517 6.3489299,-5.2655 0.1327979,0.37054 L 4.0967121,187.754 Z m -0.6820199,-0.6903 c 2.0671306,-3.72778 0.4491535,2.04683 0,0 z m 0.7130355,-0.47676 c -0.2622762,-0.97312 -0.5445478,1.34697 0,0 z m 3.2666082,-3.2758 c 0.073126,-2.25364 0.8223216,1.46068 0,0 z m 20.6260111,5.10221 c -9.700225,-5.5712 10.383126,4.70347 -1.524674,-4.24917 -13.035062,-10.09287 -4.872384,2.55629 1.524674,4.24917 z m -6.730572,-5.4536 c -2.596683,-3.92374 1.643283,0.68338 0,0 z m -1.123419,-5.03975 c -0.861723,-2.73341 -0.647923,0.65251 0,0 z m -3.182031,-3.18933 c -7.8822558,-1.497 -1.710784,2.40919 0,0 z"
         id="path3112" />
      <path
         style="fill:#6d8a49;stroke-width:1.50771"
         d="m 14.673751,246.00321 c -0.51778,-6.53965 0.999232,-14.38059 -5.6079128,-18.59157 -6.8702807,-0.2173 -17.5292547,-19.27463 -3.96178,-12.34815 7.1943908,-0.0952 9.3851178,23.16156 9.2195828,8.00089 -0.402618,-11.66316 2.315501,-23.85337 -2.015058,-34.93985 -4.989813,9.73462 -5.6219687,1.93115 -6.9432865,0.46051 -11.9856081,4.49372 6.3727955,-11.20013 7.7862275,-14.65626 7.357662,0.76557 12.547673,9.55324 18.524613,14.51502 -1.25271,4.01041 -9.788598,-3.16386 -5.261001,4.47728 -4.817316,2.66949 -9.680655,-8.8617 -9.405705,2.82423 0.133481,9.21614 -1.00567,31.626 0.511086,32.65135 2.503027,-8.86427 2.580823,-12.59674 10.775361,-16.28371 7.878737,-0.4993 -2.833692,15.40058 -7.06139,17.13737 -3.641792,3.59412 -6.277491,20.43747 -1.053404,7.43516 4.267881,-5.74559 17.155326,-4.15329 6.796696,2.38789 -4.498847,0.78177 -8.714077,7.20891 -12.304029,6.92984 z m 14.885313,-9.52859 c 1.353551,-1.89238 -1.974475,1.92418 0,0 z M 9.822763,220.79806 c -3.0815135,-5.24158 -8.5635107,-6.01542 -4.0198766,-3.4033 0.589185,-0.89973 5.3814646,6.14501 4.0198766,3.4033 z m 13.622002,-1.62823 c 5.584153,-6.79807 2.042492,-3.21882 0,0 z M 6.5289625,218.94597 c -3.8838756,-3.01652 -2.8607081,-0.66443 0,0 z m 18.3998935,-4.16339 c 3.750358,-2.38501 -2.496005,1.38245 0,0 z m -9.202196,-6.41994 c 0.928429,-5.88111 -0.342339,-18.50323 -0.576486,-6.23318 -0.03733,0.5348 -0.05572,13.98721 0.576486,6.23318 z m 0.662698,-5.28693 c -0.377874,0.73205 0.367197,3.48851 0,0 z m -0.15219,-9.52974 c 5.797494,-5.59459 -3.066327,-19.69651 -3.387825,-5.9769 0.574198,1.16203 0.926115,7.98081 3.387825,5.9769 z m 9.222956,-0.59784 c 1.012032,-5.24635 -11.137933,-17.44867 -6.735114,-5.38 0.796973,1.96565 4.238003,6.60672 6.735114,5.38 z M 8.9809697,191.5616 c 5.9803333,-4.04869 4.7141653,-16.9701 -0.5740218,-5.24755 -1.2759153,1.3894 -3.8366134,9.97286 0.5740218,5.24755 z m -5.3510711,-2.41419 c 6.0777799,-2.21996 10.3343274,-13.92613 1.6373898,-5.17032 -0.8814841,0.92016 -7.492079,7.34582 -1.6373898,5.17032 z m 23.6802074,-0.13464 c -0.263369,-0.65842 -2.114151,0.26234 0,0 z m 3.704166,-0.4213 c -2.047445,-6.18435 -18.087266,-12.06143 -7.478671,-2.59452 1.513603,1.51689 5.617801,4.31451 7.478671,2.59452 z M 20.166356,177.91998 c -0.861723,-2.73341 -0.647923,0.65251 0,0 z m -3.182031,-3.18933 c -7.8822558,-1.497 -1.710784,2.40919 0,0 z"
         id="path3118" />
      <path
         style="fill:#58662c;stroke-width:1.50771"
         d="m 31.183175,212.52983 c 0.228957,-1.39756 0.628013,1.38825 0,0 z"
         id="path3129" />
      <path
         style="fill:#58662c;stroke-width:1.50771"
         d="m 30.81583,233.38897 c -1.457016,-0.42943 -0.264432,0.46307 0,0 z"
         id="path3127" />
      <path
         style="fill:#58662c;stroke-width:1.50771"
         d="M 14.673751,246.00321 C 17.227343,233.97342 8.9727058,226.98885 0.81341569,220.61094 -8.0736526,205.65931 17.064728,219.32982 13.830217,229.0107 c 0.272641,-12.12612 2.584584,-25.56841 -0.68727,-37.31448 0.74069,-9.20276 -9.9731782,9.73563 -6.3330029,-3.24348 -2.103206,1.56643 -10.216825,2.46092 -3.4861722,-3.61219 5.9968925,-3.11845 9.6799751,-17.9444 16.8381271,-7.52672 -4.256183,-1.18895 22.266257,15.75571 5.259514,11.54446 4.395397,10.45765 -6.640153,-0.20045 -7.103602,1.57886 -3.014739,11.53571 -0.796342,23.94391 -1.59095,35.83211 -0.02485,14.49837 1.304536,-10.70435 7.449069,-12.23236 13.684083,-7.42639 2.294152,13.70773 -3.557187,16.08858 -3.571582,5.25015 -5.382004,18.35848 0.359634,5.71293 6.549888,-5.93327 15.174984,-0.69731 4.491039,4.10982 -3.979725,0.0205 -7.836789,7.37754 -10.795665,6.05498 z m 1.640897,-0.77267 c -1.568952,-2.11948 -1.782937,0.62109 0,0 z m 0.122515,-1.54603 c -1.363791,-1.77496 0.593409,1.65164 0,0 z m 0.02097,-2.88684 c 2.092644,-6.65656 -1.409687,-4.99438 -0.286129,1.76236 l 0.286132,-1.76236 z m 3.024572,-0.42045 c 4.040349,-4.10307 8.108446,-8.41058 0.988294,-2.22095 -0.332849,0.14237 -3.08001,5.56463 -0.988294,2.22095 z m 6.107532,-1.37138 c 8.427707,-7.13685 -2.302058,-2.97044 -4.091633,0.24977 -1.12121,-0.30027 1.554927,1.67774 4.091633,-0.24977 z m 3.985467,-2.59737 c 3.263343,-3.20533 -3.443048,3.00157 0,0 z m -2.866428,-1.94579 c -1.047656,-0.55603 -0.247279,0.5962 0,0 z m -8.06425,-2.16164 c 1.931337,-7.27695 -1.860459,3.58698 0,0 z m -3.117966,0.24448 c -1.798179,0.68663 0.12869,0.69029 0,0 z m 0.461206,-5.50563 c -0.958791,-12.75818 -1.400244,4.12365 -0.822615,4.14306 1.901416,3.39169 0.306522,-3.53261 0.822615,-4.14306 z m -2.652574,3.29198 c -1.156059,-0.23433 0.819407,1.1959 0,0 z m 11.470266,-5.37686 c 5.61904,-4.53282 8.046196,-19.30831 -1.645785,-8.44201 -4.280506,5.09662 -3.691836,12.22153 0.269446,2.91444 9.106274,-9.79353 -1.304985,1.66542 -1.675768,7.6268 l 0.848142,-0.31005 z m 3.899377,-9.64134 c 0.437759,-1.78286 0.643437,1.43606 0,0 z M 8.7672247,226.599 c -6.9326463,-3.83635 -4.7601682,-1.47277 0,0 z m -3.7649083,-3.0373 c -0.8387168,-0.71848 3.0523554,-0.48653 2.5295166,-1.39571 -4.9742588,-5.59858 -6.3986831,-5.03147 -5.4502195,-1.40897 -0.4156025,0.8189 4.9991015,5.25738 2.9207029,2.80468 z m 5.7998826,0.23974 c 3.467484,-3.77394 -14.1457087,-12.39985 -10.58789348,-7.23672 2.36856658,-2.2244 9.93790248,8.0293 10.58789348,7.23672 z m 5.16487,-5.38463 c 0.437392,-6.39058 0.957275,-19.56596 -0.517823,-22.07669 0.01314,6.59077 -1.059429,18.72997 0.517823,22.07669 z m 0.270099,-24.87084 c 5.797494,-5.59459 -3.066327,-19.69651 -3.387825,-5.9769 0.574198,1.16203 0.926115,7.98081 3.387825,5.9769 z m 9.222956,-0.59784 c 1.012032,-5.24635 -11.137933,-17.44867 -6.735114,-5.38 0.796973,1.96565 4.238003,6.60672 6.735114,5.38 z M 8.9809697,191.5616 c 5.9803333,-4.04869 4.7141653,-16.9701 -0.5740218,-5.24755 -1.2759153,1.3894 -3.8366134,9.97286 0.5740218,5.24755 z m -5.3510711,-2.41419 c 6.0777799,-2.21996 10.3343274,-13.92613 1.6373898,-5.17032 -0.8814841,0.92016 -7.492079,7.34582 -1.6373898,5.17032 z m 23.6802074,-0.13464 c -0.263369,-0.65842 -2.114151,0.26234 0,0 z m 3.704166,-0.4213 c -2.047445,-6.18435 -18.087266,-12.06143 -7.478671,-2.59452 1.513603,1.51689 5.617801,4.31451 7.478671,2.59452 z m -13.567733,-13.2192 c -5.327741,-3.30051 -6.213294,3.35713 0,0 z"
         id="path3126" />
      <path
         style="fill:#58210e;stroke-width:1.50771"
         d="m 14.417441,194.33729 c -1.559708,-11.07054 -3.256366,-1.36052 -8.3344151,-1.58255 5.6104411,-10.31463 -9.876487,3.07471 -3.7124459,-6.76867 4.6873275,-4.2466 12.891797,-16.65992 16.768563,-9.77209 5.438811,6.36532 17.88048,14.27934 6.7107,14.09081 2.73929,9.94798 -9.080678,-7.15319 -8.944639,3.33105 0.02253,1.92671 -2.038001,1.83381 -2.487763,0.70145 z m 1.690965,-0.0468 c 5.875763,-6.1286 -2.348501,-21.27939 -3.305181,-6.25584 0.565753,1.70432 1.314406,6.98469 3.305181,6.25584 z m 9.2967,-1.26042 c 0.749859,-7.5701 -12.730062,-17.17713 -5.81206,-3.63308 1.294476,1.45958 3.56658,4.45328 5.81206,3.63308 z M 8.8340971,191.7937 c 5.0332759,-2.94362 5.9327279,-17.09795 0.068738,-6.54112 -1.1408073,1.37085 -5.0534469,10.94997 -0.068738,6.54112 z m -5.2041985,-2.6444 c 6.0556108,-1.7079 10.6103354,-14.56623 1.4813265,-5.08084 -0.9361275,0.91638 -7.2672606,7.23199 -1.4813265,5.08084 z m 23.4156234,-0.29968 c -2.13267,-0.97588 1.02245,1.0538 0,0 z m 4.085949,0.0244 c -1.810999,-6.41319 -19.214255,-12.77579 -7.376832,-2.65183 1.762821,1.78467 4.841162,3.43696 7.376832,2.65183 z m -24.9542818,-0.752 c 0.9878775,-1.20812 -1.781966,1.43755 0,0 z m 11.4481848,-8.51344 c 6.09937,-6.71018 -11.9092081,-5.95597 -5.672055,0.12722 1.888141,0.0843 3.795197,0.15413 5.672055,-0.12722 z"
         id="path3154" />
      <path
         style="fill:#58210e;stroke-width:1.50771"
         d="m 31.299744,212.50778 c 0.381878,-0.70464 0.118,1.1407 0,0 z"
         id="path3153" />
      <path
         style="fill:#58210e;stroke-width:1.50771"
         d="m 0.53758108,213.80429 c 1.15977882,-0.379 0.11470682,0.50937 0,0 z"
         id="path3152" />
      <path
         style="fill:#58210e;stroke-width:1.50771"
         d="m 7.3089264,220.82394 c -9.6748466,-6.58287 -1.2740735,-2.62237 0,0 z"
         id="path3151" />
      <path
         style="fill:#58210e;stroke-width:1.50771"
         d="m 22.156651,222.15411 c 2.365046,-5.50438 6.83001,-8.7356 1.323004,-1.48927 2.503835,-2.02251 -2.358037,3.642 -1.323004,1.48927 z"
         id="path3150" />
      <path
         style="fill:#58210e;stroke-width:1.50771"
         d="m 5.7465652,225.86908 c -9.7522168,-5.30416 -6.64418173,-18.02078 3.3763827,-7.74344 3.8454681,4.69828 4.8243961,11.51061 0.4427063,1.90701 -4.1548093,-7.05233 -15.1149923,-6.8111 -7.348774,1.99608 0.1808123,1.79414 9.1559468,6.58712 3.529685,3.84035 z m -3.1555103,-3.35753 c -1.3420536,-1.20304 1.299824,1.97822 0,0 z"
         id="path3149" />
      <path
         style="fill:#58210e;stroke-width:1.50771"
         d="m 14.456764,223.77462 c 0.315982,-6.63523 0.220222,-27.83309 0.625021,-25.69803 -0.209909,8.63528 0.300654,24.98155 -0.693655,29.10038 l 0.01456,-1.51646 0.05408,-1.88589 z"
         id="path3148" />
      <path
         style="fill:#58210e;stroke-width:1.50771"
         d="m 13.326833,228.09574 c -0.869757,-3.24297 0.600326,0.46784 0,0 z"
         id="path3147" />
      <path
         style="fill:#58210e;stroke-width:1.50771"
         d="M 17.638067,227.19862 C 15.904655,220.64498 29.159745,209.63405 28.828783,212.65179 22.002705,211.352 17.618943,229.736 17.638067,227.19862 Z"
         id="path3146" />
      <path
         style="fill:#58210e;stroke-width:1.50771"
         d="m 16.370293,223.37774 c 0.358479,-8.34039 -0.229067,-21.12276 0.224203,-26.88541 0.598834,9.0521 0.05248,27.36326 -0.277758,30.7837 l 0.02116,-1.65418 0.03238,-2.24411 z"
         id="path3145" />
      <path
         style="fill:#58210e;stroke-width:1.50771"
         d="m 17.941728,231.05066 c 1.641745,-2.39264 -0.905585,2.35094 0,0 z"
         id="path3144" />
      <path
         style="fill:#58210e;stroke-width:1.50771"
         d="m 27.640835,233.38182 c 2.049316,-0.41175 0.393456,0.42558 0,0 z"
         id="path3143" />
      <path
         style="fill:#58210e;stroke-width:1.50771"
         d="m 21.621564,238.07009 c 4.910065,-4.2512 2.826238,-1.65004 -0.529166,0.8391 z"
         id="path3142" />
      <path
         style="fill:#58210e;stroke-width:1.50771"
         d="m 16.614291,241.8833 c -0.993,-11.30199 14.086129,-20.81182 13.880624,-28.11895 -0.268713,11.80948 -15.218627,15.87897 -13.331851,28.5311 1.918591,-7.4707 13.381795,-10.32217 3.775538,-5.93254 -1.114053,0.48387 -2.227952,7.9056 -4.324311,5.52039 z"
         id="path3139" />
      <path
         style="fill:#58210e;stroke-width:1.50771"
         d="m 14.741176,245.91758 c 1.424076,-6.35692 -2.522532,-17.96212 -5.0116387,-18.57674 4.8683937,3.84671 5.6093107,9.69441 5.1965637,16.59717 1.500764,4.4553 14.521396,-9.71223 16.006268,-8.89236 -1.978938,2.34284 -10.544281,8.88286 -16.191174,10.87197 z m 9.004056,-5.6877 c -1.150865,0.3143 -0.511457,0.74879 0,0 z m 1.219795,-0.52411 c -1.513366,0.25221 -0.295575,0.6446 0,0 z"
         id="path3137" />
      <path
         style="fill:#271c02;stroke-width:1.50771"
         d="m 14.03133,174.1168 c 1.159783,-0.37899 0.1147,0.50936 0,0 z"
         id="path3365" />
      <path
         style="fill:#271c02;stroke-width:1.50771"
         d="m 9.5830233,179.93737 c 0.9386807,-5.08152 2.3224617,-5.22149 0,0 z"
         id="path3360" />
      <path
         style="fill:#271c02;stroke-width:1.50771"
         d="m 10.90594,180.11837 c -0.436574,-0.98083 1.33754,0.99634 0,0 z"
         id="path3359" />
      <path
         style="fill:#271c02;stroke-width:1.50771"
         d="m 17.172278,181.34031 c -12.1761587,-0.87591 9.990719,0.25958 -0.577797,-7.17908 0.468912,-1.92472 7.320693,7.34999 0.577797,7.17908 z"
         id="path3356" />
      <path
         style="fill:#271c02;stroke-width:1.50771"
         d="m 17.562299,183.55795 c 0.231539,-1.19259 0.231539,1.19259 0,0 z"
         id="path3352" />
      <path
         style="fill:#271c02;stroke-width:1.50771"
         d="m 22.533363,185.47618 c -3.363024,-3.46763 3.712981,3.38626 0,0 z"
         id="path3349" />
      <path
         style="fill:#271c02;stroke-width:1.50771"
         d="m 7.9982558,186.33608 c 0.8683354,-2.22707 1.4238266,-1.41375 0,0 z"
         id="path3348" />
      <path
         style="fill:#271c02;stroke-width:1.50771"
         d="m 12.535216,188.84961 c 0.231539,-1.19259 0.231539,1.19259 0,0 z"
         id="path3343" />
      <path
         style="fill:#271c02;stroke-width:1.50771"
         d="m 19.008417,189.50084 c -0.693832,-1.9366 0.974748,1.2395 0,0 z"
         id="path3342" />
      <path
         style="fill:#271c02;stroke-width:1.50771"
         d="m 19.60344,190.50326 c -0.801546,-1.23068 1.459992,1.60345 0,0 z"
         id="path3339" />
      <path
         style="fill:#271c02;stroke-width:1.50771"
         d="m 6.1474917,190.54736 c 0.6758539,-2.89946 0.3212624,1.3714 0,0 z"
         id="path3338" />
      <path
         style="fill:#271c02;stroke-width:1.50771"
         d="m 25.612363,190.67965 c -1.35145,-4.17272 1.82166,3.6532 0,0 z"
         id="path3336" />
      <path
         style="fill:#271c02;stroke-width:1.50771"
         d="m 9.342374,191.64474 c 4.522752,-8.67788 6.221053,-8.64224 0,0 z"
         id="path3334" />
      <path
         style="fill:#271c02;stroke-width:1.50771"
         d="m 16.819637,193.17176 c 1.889902,-9.86053 2.662324,-3.5545 -0.67954,1.66654 z"
         id="path3331" />
      <path
         style="fill:#271c02;stroke-width:1.50771"
         d="m 16.269669,196.78713 c 0.202619,-2.12328 0.202619,2.12328 0,0 z"
         id="path3330" />
      <path
         style="fill:#271c02;stroke-width:1.50771"
         d="m 16.560076,200.75588 c 0.172624,-4.9409 0.172624,4.9409 0,0 z"
         id="path3327" />
      <path
         style="fill:#271c02;stroke-width:1.50771"
         d="m 30.083758,213.98521 c 1.745995,-3.45035 -0.246856,1.84123 0,0 z"
         id="path3321" />
      <path
         style="fill:#271c02;stroke-width:1.50771"
         d="m -1.3971844,214.2498 c 0.94939024,-1.00734 0.3285948,1.04309 0,0 z"
         id="path3320" />
      <path
         style="fill:#271c02;stroke-width:1.50771"
         d="m 2.6646307,214.91613 c -7.4936441,-1.06481 0.6790367,-0.54984 0,0 z"
         id="path3319" />
      <path
         style="fill:#271c02;stroke-width:1.50771"
         d="m 8.5561521,218.46891 c -12.5414212,-8.52695 3.2880549,0.35312 0,0 z m 0.4977046,-0.0721 c -1.8973946,-2.06977 -1.767229,-1.33197 0,0 z m -2.2489582,-2.0305 c -1.3450146,-1.05396 0.3708424,0.9616 0,0 z"
         id="path3312" />
      <path
         style="fill:#271c02;stroke-width:1.50771"
         d="m 5.0848379,219.12235 c -6.3996487,-3.70734 -0.092666,-1.33981 0,0 z"
         id="path3311" />
      <path
         style="fill:#271c02;stroke-width:1.50771"
         d="m 20.431445,220.15555 c -0.382659,-6.42979 16.260808,-10.69623 4.918354,-6.21089 -2.310341,1.46119 -3.226366,4.19427 -4.918354,6.21089 z"
         id="path3308" />
      <path
         style="fill:#271c02;stroke-width:1.50771"
         d="m 6.6726068,220.07045 c -2.1961254,-1.48776 0.453611,-0.47184 0,0 z"
         id="path3307" />
      <path
         style="fill:#271c02;stroke-width:1.50771"
         d="m 22.661624,220.99942 c 7.619908,-11.13303 1.202622,-0.47776 0,0 z"
         id="path3305" />
      <path
         style="fill:#271c02;stroke-width:1.50771"
         d="m 16.49585,215.94736 c -0.08328,-5.76088 0.475603,-12.74117 0.28666,-3.02066 -0.02122,4.82893 -0.377315,14.1555 -0.28666,3.02066 z"
         id="path3304" />
      <path
         style="fill:#271c02;stroke-width:1.50771"
         d="m 1.2354401,221.26241 c -6.476894,-13.36928 0.228146,-1.47729 0,0 z"
         id="path3303" />
      <path
         style="fill:#271c02;stroke-width:1.50771"
         d="m 11.75916,223.18184 c -4.8746173,-6.1149 0.233885,-2.22122 0,-1e-5 z m -1.382387,-2.84681 c -1.2795585,-1.91392 0.680254,1.8807 0,0 z"
         id="path3302" />
      <path
         style="fill:#271c02;stroke-width:1.50771"
         d="m 5.4248357,225.69258 c -5.55911126,-3.85415 5.4625453,2.77079 0,0 z"
         id="path3300" />
      <path
         style="fill:#271c02;stroke-width:1.50771"
         d="m 16.282293,225.89128 c 0.189231,-3.06134 0.189228,3.06136 0,0 z"
         id="path3296" />
      <path
         style="fill:#271c02;stroke-width:1.50771"
         d="m 22.547606,227.435 c 5.783741,-2.71282 9.366726,-18.19951 5.230479,-4.58642 -0.973576,2.24733 -3.467573,3.09756 -5.230479,4.58642 z m 4.483885,-3.74979 c -1.938969,1.73701 -1.509152,2.0593 0,0 z"
         id="path3294" />
      <path
         style="fill:#271c02;stroke-width:1.50771"
         d="m 13.240757,227.65716 c 0.147676,-1.72736 0.392419,1.6394 0,0 z"
         id="path3293" />
      <path
         style="fill:#271c02;stroke-width:1.50771"
         d="m 14.543275,223.90691 c 0.20478,-7.24915 0.350986,-19.44701 0.500739,-23.6555 -0.117865,6.74143 -0.05139,24.2495 -0.537631,25.4283 z"
         id="path3291" />
      <path
         style="fill:#271c02;stroke-width:1.50771"
         d="m 17.558347,228.00795 c 0.579202,-5.18113 3.610927,-10.81636 0.836053,-2.48078 l -0.511795,1.59556 -0.324261,0.88522 z"
         id="path3290" />
      <path
         style="fill:#271c02;stroke-width:1.50771"
         d="m 16.284427,229.46316 c 0.209715,-3.12727 0.163742,3.46909 0,0 z"
         id="path3285" />
      <path
         style="fill:#271c02;stroke-width:1.50771"
         d="m 12.774367,231.6819 c -7.2266104,-8.08476 -0.694057,-3.44673 1.360848,2.14688 l -1.360851,-2.14688 z"
         id="path3283" />
      <path
         style="fill:#271c02;stroke-width:1.50771"
         d="m 24.135106,234.62253 c -0.12596,-1.09588 1.073659,0.48667 0,0 z"
         id="path3281" />
      <path
         style="fill:#271c02;stroke-width:1.50771"
         d="m 30.501935,235.28399 c 0.507266,-1.71786 1.211935,-0.60582 0,0 z"
         id="path3280" />
      <path
         style="fill:#271c02;stroke-width:1.50771"
         d="m 28.765314,236.47462 c 3.975176,-3.79578 -3.353596,3.75444 0,0 z"
         id="path3274" />
      <path
         style="fill:#271c02;stroke-width:1.50771"
         d="m 21.621564,238.08778 c 3.040078,-3.08917 2.397754,-1.37909 -0.170455,0.28943 z"
         id="path3269" />
      <path
         style="fill:#271c02;stroke-width:1.50771"
         d="m 17.520523,242.1685 c 1.598027,-5.35981 9.057277,-11.51563 1.740749,-3.00675 l -1.095956,2.3309 z"
         id="path3250" />
      <path
         style="fill:#271c02;stroke-width:1.50771"
         d="m 16.66974,241.79706 c -0.98113,-5.40405 8.877901,-20.74234 1.868404,-7.24978 -1.003659,2.32038 -1.171018,4.84748 -1.868404,7.24978 z"
         id="path3249" />
      <path
         style="fill:#271c02;stroke-width:1.50771"
         d="m 16.40914,245.72997 c 1.054685,-2.54843 13.751842,-9.48058 9.72698,-6.13716 -3.003275,0.57809 -9.597763,6.00537 -9.72698,6.13716 z m 7.919994,-6.11315 c 1.420506,-0.78831 -0.644704,0.81314 0,0 z"
         id="path3242" />
      <path
         style="fill:#271c02;stroke-width:1.50771"
         d="m 14.702746,245.95107 c -0.73091,-6.79464 0.369334,-14.42876 0.05882,-3.32073 -0.543949,0.38869 0.867401,4.16156 -0.05882,3.32073 z"
         id="path3241" />
    </g>
  </g>
</svg>
