<?xml version="1.0" encoding="UTF-8" standalone="no"?>
<!-- Created with Inkscape (http://www.inkscape.org/) -->

<svg
   width="185"
   height="185"
   viewBox="0 0 48.947914 48.947918"
   version="1.1"
   id="svg1"
   xmlns="http://www.w3.org/2000/svg"
   xmlns:svg="http://www.w3.org/2000/svg">
  <defs
     id="defs1" />
  <g
     id="layer1">
    <g
       id="g761"
       style="display:inline;stroke-width:1.95875"
       transform="matrix(0.51053077,0,0,0.51053077,10.605346,7.4618563)">
      <path
         style="fill:#e99015;stroke-width:1.95875"
         d="M 15.421471,81.032388 C 10.897554,80.68302 7.4561701,79.581268 4.4495084,77.519735 c -1.5999433,-1.09701 -5.29991159,-4.658323 -5.29991159,-5.1013 0,-0.595157 1.25096169,-0.754712 5.95312469,-0.759298 4.119737,-0.004 4.607165,0.046 5.7972755,0.594886 l 1.299358,0.599274 -1.778419,-1.629599 C 7.5516633,68.594531 5.2004407,64.638134 4.2788243,60.888382 3.7725928,58.828693 3.8816849,58.275766 4.7558074,58.470817 c 3.2259656,0.71984 7.4333086,2.762495 10.1181976,4.912361 0.802924,0.642924 0.992772,0.715615 0.832726,0.318845 -1.176145,-2.915778 -2.005052,-6.640528 -2.005052,-9.009833 0,-0.78429 0.05796,-1.425981 0.128811,-1.425981 0.07085,0 0.975837,0.506016 2.011093,1.124479 2.254861,1.347059 5.204369,4.356069 6.08857,6.211399 l 0.635068,1.33257 0.03115,-4.003495 c 0.02747,-3.530174 0.115569,-4.28485 0.745193,-6.38329 0.710418,-2.367715 2.400814,-6.171842 3.157413,-7.105553 0.22759,-0.280866 0.532451,-0.405593 0.715238,-0.292624 0.559517,0.3458 3.362678,6.526764 4.076678,8.989066 0.392272,1.352787 0.759146,3.440197 0.851725,4.846073 l 0.162631,2.469666 0.839999,-1.808208 c 1.29456,-2.786708 4.351622,-5.845003 6.325052,-6.327602 l 0.765496,-0.187201 -0.144066,3.147048 c -0.10321,2.254577 -0.333133,3.784497 -0.81076,5.394838 -0.366682,1.236285 -0.622759,2.291726 -0.569061,2.345425 0.0537,0.0537 0.66938,-0.232691 1.368181,-0.63642 4.440139,-2.565269 7.632749,-3.938443 10.031334,-4.314578 l 1.492517,-0.23405 -0.142885,1.384424 c -0.280754,2.720242 -2.647639,7.047602 -5.924949,10.832544 -1.126162,1.300595 -1.81422,2.272229 -1.529018,2.159187 2.224983,-0.881896 10.869729,-0.865036 11.162793,0.02177 0.27042,0.818289 -4.651423,5.108953 -7.515038,6.551306 -2.433928,1.225927 -5.653085,2.000369 -9.479207,2.28044 -3.796872,0.27793 -19.022316,0.257163 -22.754165,-0.03104 z"
         id="path76" />
      <path
         style="fill:#d35b0f;stroke-width:1.95875"
         d="M 15.818346,81.040759 C 11.006628,80.709294 7.5317656,79.6331 4.4495084,77.519735 c -1.5999433,-1.09701 -5.29991159,-4.658323 -5.29991159,-5.1013 0,-0.595157 1.25096169,-0.754712 5.95312469,-0.759298 4.119737,-0.004 4.607165,0.046 5.7972755,0.594886 l 1.299358,0.599274 -1.778419,-1.629599 C 7.5516633,68.594531 5.2004407,64.638134 4.2788243,60.888382 3.6448175,58.308818 3.736023,58.205737 6.0815566,58.850931 c 1.0623698,0.292229 2.5778179,0.825189 3.3676624,1.184356 1.79498,0.816234 5.739352,3.423257 6.09053,4.025522 0.450234,0.772143 0.304866,0.05787 -0.367669,-1.806553 -1.073613,-2.976306 -1.863885,-8.241784 -1.318785,-8.786885 0.08339,-0.08339 0.82753,0.224189 1.653646,0.683507 2.104519,1.170105 5.337373,4.441584 6.250547,6.325227 0.405646,0.836744 0.753332,1.52105 0.772636,1.520679 0.0193,-3.7e-4 0.04911,-1.816073 0.06625,-4.034895 0.02752,-3.563719 0.114428,-4.311772 0.745193,-6.414017 0.853394,-2.844232 2.499694,-6.427036 3.263068,-7.101336 0.536015,-0.47347 0.559247,-0.470245 0.953182,0.132292 0.757,1.157859 2.775826,5.639664 3.453603,7.667018 0.729666,2.182568 1.194867,4.863028 1.210267,6.973488 l 0.0097,1.322916 0.924532,-1.900082 c 1.110307,-2.281885 3.163165,-4.605636 4.998929,-5.658583 0.739066,-0.423909 1.469023,-0.771861 1.622128,-0.773226 0.167014,-0.0015 0.305707,0.870708 0.346704,2.180329 0.07516,2.400757 -0.499908,5.734376 -1.306066,7.571212 l -0.50694,1.155066 0.652104,-0.124658 c 0.431959,-0.08257 0.591486,-0.02591 0.472543,0.167851 -0.09876,0.160879 0.351329,-0.164108 1.000194,-0.722193 2.059478,-1.771347 8.142197,-4.409257 10.167242,-4.409257 0.843301,0 0.934244,0.07093 0.932912,0.727604 -0.0054,2.687629 -2.889921,7.950726 -6.307972,11.509725 -0.943549,0.982459 -1.65284,1.848993 -1.576201,1.925632 0.07664,0.07664 0.483278,-0.0062 0.903642,-0.18405 1.060061,-0.448538 10.00551,-0.477941 10.449087,-0.03435 0.458405,0.458425 -0.620728,1.778123 -3.278014,4.008763 -3.829416,3.214576 -7.565233,4.624898 -13.418232,5.065566 -3.773656,0.284115 -18.330168,0.279686 -22.489582,-0.0068 z"
         id="path98" />
      <path
         style="fill:#346d34;stroke-width:1.95875"
         d="M 15.818346,81.040759 C 11.006628,80.709294 7.5317656,79.6331 4.4495084,77.519735 c -1.5999433,-1.09701 -5.29991159,-4.658323 -5.29991159,-5.1013 0,-0.595157 1.25096169,-0.754712 5.95312469,-0.759298 4.119737,-0.004 4.607165,0.046 5.7972755,0.594886 l 1.299358,0.599274 -1.778419,-1.629599 C 7.5516633,68.594531 5.2004407,64.638134 4.2788243,60.888382 3.6448175,58.308818 3.736023,58.205737 6.0815566,58.850931 c 1.0623698,0.292229 2.5778179,0.825189 3.3676624,1.184356 1.79498,0.816234 5.739352,3.423257 6.09053,4.025522 0.450234,0.772143 0.304866,0.05787 -0.367669,-1.806553 -1.073613,-2.976306 -1.863885,-8.241784 -1.318785,-8.786885 0.08339,-0.08339 0.82753,0.224189 1.653646,0.683507 2.104519,1.170105 5.337373,4.441584 6.250547,6.325227 0.405646,0.836744 0.753332,1.52105 0.772636,1.520679 0.0193,-3.7e-4 0.04911,-1.816073 0.06625,-4.034895 0.02752,-3.563719 0.114428,-4.311772 0.745193,-6.414017 0.853394,-2.844232 2.499694,-6.427036 3.263068,-7.101336 0.536015,-0.47347 0.559247,-0.470245 0.953182,0.132292 0.757,1.157859 2.775826,5.639664 3.453603,7.667018 0.729666,2.182568 1.194867,4.863028 1.210267,6.973488 l 0.0097,1.322916 0.924532,-1.900082 c 1.110307,-2.281885 3.163165,-4.605636 4.998929,-5.658583 0.739066,-0.423909 1.469023,-0.771861 1.622128,-0.773226 0.167014,-0.0015 0.305707,0.870708 0.346704,2.180329 0.07469,2.385795 -0.498856,5.731833 -1.292536,7.540625 -0.271375,0.618463 -0.374015,1.124479 -0.228089,1.124479 0.145926,0 0.191736,0.119063 0.101799,0.264583 -0.365159,0.59084 0.414549,0.20158 1.624837,-0.81118 2.224736,-1.861642 8.229341,-4.480486 10.273066,-4.480486 0.843301,0 0.934244,0.07093 0.932912,0.727604 -0.0054,2.687629 -2.889921,7.950726 -6.307972,11.509725 -0.943549,0.982459 -1.65284,1.848993 -1.576201,1.925632 0.07664,0.07664 0.483278,-0.0062 0.903642,-0.18405 1.060061,-0.448538 10.00551,-0.477941 10.449087,-0.03435 0.458405,0.458425 -0.620728,1.778123 -3.278014,4.008763 -3.829416,3.214576 -7.565233,4.624898 -13.418232,5.065566 -3.773656,0.284115 -18.330168,0.279686 -22.489582,-0.0068 z"
         id="path117" />
      <path
         style="fill:#134829;stroke-width:1.95875"
         d="m 24.549595,48.40797 c 0,-0.319396 1.564691,-3.298517 1.813067,-3.452022 0.130575,-0.0807 -0.182778,0.654768 -0.696338,1.634372 -1.006308,1.919506 -1.116729,2.099232 -1.116729,1.81765 z"
         id="path245" />
      <path
         style="fill:#134829;stroke-width:1.95875"
         d="m 28.44163,47.039188 c -0.537507,-1.086284 -0.920226,-1.975062 -0.850487,-1.975062 0.176727,0 2.041525,3.736371 1.923636,3.854261 -0.05272,0.05272 -0.535641,-0.792916 -1.073149,-1.879199 z"
         id="path244" />
      <path
         style="fill:#134829;stroke-width:1.95875"
         d="m 30.017651,50.576279 c -0.239405,-0.609467 -0.391936,-1.151468 -0.338956,-1.204447 0.05298,-0.05298 0.294806,0.399725 0.537393,1.006009 0.242587,0.606285 0.395117,1.148286 0.338956,1.204447 -0.05616,0.05616 -0.297988,-0.396543 -0.537393,-1.006009 z"
         id="path243" />
      <path
         style="fill:#134829;stroke-width:1.95875"
         d="m 26.951734,51.259786 c 0.0127,-0.308225 0.07539,-0.370919 0.159852,-0.159853 0.07643,0.190996 0.06703,0.419199 -0.02089,0.507118 -0.08792,0.08792 -0.150453,-0.06835 -0.138964,-0.347265 z"
         id="path242" />
      <path
         style="fill:#134829;stroke-width:1.95875"
         d="m 31.822672,58.094855 c -0.152931,-1.539812 -0.595133,-3.906035 -1.075442,-5.754687 -0.106182,-0.408685 -0.08137,-0.438805 0.108986,-0.132292 0.534634,0.860882 1.667579,7.672916 1.276123,7.672916 -0.07276,0 -0.212111,-0.803672 -0.309667,-1.785937 z"
         id="path241" />
      <path
         style="fill:#134829;stroke-width:1.95875"
         d="m 45.716261,59.632179 c 1.219415,-0.644982 4.659442,-1.683037 5.087386,-1.535158 0.185115,0.06397 -0.286966,0.251773 -1.049068,0.417345 -0.762102,0.165571 -2.122082,0.600282 -3.022179,0.966024 -1.919757,0.780068 -2.31583,0.839232 -1.016139,0.151789 z"
         id="path240" />
      <path
         style="fill:#134829;stroke-width:1.95875"
         d="m 22.558652,60.307507 c -0.311634,-2.909993 0.749746,-9.702099 1.759299,-11.258307 0.312968,-0.482436 0.281505,-0.33859 -0.527832,2.413179 -0.730544,2.483869 -1.154529,6.353409 -0.944148,8.616851 0.09806,1.055026 0.114252,1.918229 0.03598,1.918229 -0.07827,0 -0.223758,-0.760478 -0.323296,-1.689952 z"
         id="path239" />
      <path
         style="fill:#134829;stroke-width:1.95875"
         d="m 40.447944,62.415082 c 0.291185,-0.291186 3.836496,-2.269706 4.067086,-2.269706 0.144307,0 -0.677798,0.535781 -1.8269,1.190624 -1.882113,1.072569 -2.560398,1.399294 -2.240186,1.079082 z"
         id="path238" />
      <path
         style="fill:#134829;stroke-width:1.95875"
         d="M 11.849596,61.723004 C 10.551786,60.884062 7.3650874,59.550788 5.5390348,59.082745 4.9058822,58.920459 4.4530722,58.722455 4.5327905,58.642737 c 0.4642122,-0.464212 7.1829865,2.351372 8.3656895,3.505743 0.565869,0.552314 0.291626,0.441068 -1.048884,-0.425476 z"
         id="path237" />
      <path
         style="fill:#134829;stroke-width:1.95875"
         d="m 39.630845,63.485064 c 0,-0.05494 0.208359,-0.263302 0.46302,-0.463021 0.419644,-0.329107 0.429003,-0.319749 0.09989,0.0999 -0.345643,0.440729 -0.562915,0.580887 -0.562915,0.363126 z"
         id="path235" />
      <path
         style="fill:#134829;stroke-width:1.95875"
         d="m 47.816147,66.709431 c 1.30313,-1.985832 2.872945,-5.42737 3.215992,-7.050486 0.174126,-0.823869 0.368109,-1.351477 0.431074,-1.172462 0.336714,0.957319 -2.250661,6.894173 -3.778677,8.67035 -0.563573,0.655101 -0.540583,0.57695 0.131611,-0.447402 z"
         id="path234" />
      <path
         style="fill:#134829;stroke-width:1.95875"
         d="m 45.187094,69.98446 c 0,-0.118296 0.376926,-0.56478 0.837614,-0.992188 l 0.837613,-0.777105 -0.736725,0.992187 c -0.747101,1.006162 -0.938502,1.164647 -0.938502,0.777106 z"
         id="path231" />
      <path
         style="fill:#134829;stroke-width:1.95875"
         d="M 14.495429,74.396036 C 12.543176,72.929849 10.376913,71.085286 9.2760223,69.951735 7.3603057,67.979185 4.6752473,62.86953 4.3314585,60.54225 4.2153465,59.75623 4.305272,59.906381 4.68095,61.125805 c 0.9993817,3.243922 4.0551335,8.54457 4.9258284,8.54457 0.1657238,0 0.4584426,0.293593 0.6504846,0.652428 0.192043,0.358836 0.436797,0.598272 0.543897,0.53208 0.1071,-0.06619 0.332165,0.04525 0.500143,0.247654 0.167978,0.202402 0.603057,0.442706 0.966842,0.534011 0.366465,0.09198 0.585244,0.289273 0.490594,0.44242 -0.230509,0.372971 0.82543,1.463579 2.199711,2.271935 0.618464,0.363781 1.124479,0.76917 1.124479,0.900863 0,0.340036 0.01659,0.348979 -1.5875,-0.85573 z"
         id="path225" />
      <path
         style="fill:#134829;stroke-width:1.95875"
         d="m 17.512999,76.483395 -0.504028,-0.595312 0.595312,0.504028 c 0.559447,0.473662 0.715762,0.686597 0.504028,0.686597 -0.05021,0 -0.318097,-0.267891 -0.595312,-0.595313 z"
         id="path224" />
      <path
         style="fill:#134829;stroke-width:1.95875"
         d="m 28.615069,78.137041 c 0.10064,-1.091406 0.646845,-3.776904 1.213791,-5.967774 0.566945,-2.19087 1.221038,-4.988838 1.45354,-6.217708 0.762646,-4.030913 1.452091,-6.039818 2.706623,-7.886566 1.51605,-2.231719 2.442926,-3.196839 4.364969,-4.545076 l 1.541436,-1.081255 0.04687,1.273669 c 0.110075,2.990973 -0.115233,4.776452 -0.878554,6.962211 -0.431965,1.236927 -0.95248,2.82175 -1.156699,3.521828 -0.20422,0.700078 -1.492331,3.021797 -2.862469,5.159375 -1.370137,2.137578 -3.225509,5.275103 -4.123047,6.972278 -0.897538,1.697175 -1.824838,3.244988 -2.060666,3.439583 -0.391181,0.322786 -0.412734,0.17981 -0.245798,-1.630565 z"
         id="path219" />
      <path
         style="fill:#134829;stroke-width:1.95875"
         d="m 23.348499,75.562896 c -2.90251,-4.959779 -4.56119,-7.446993 -5.958749,-8.935229 -1.354017,-1.441869 -2.892666,-5.952642 -3.4442,-10.097176 -0.412751,-3.101637 -0.33149,-3.218749 1.540116,-2.219594 4.360759,2.327988 6.603825,5.723069 8.137456,12.31677 0.338467,1.455208 1.102106,4.358913 1.696976,6.452677 0.594869,2.093765 1.081581,4.237676 1.081581,4.764247 0,0.526571 0.110751,1.343569 0.246114,1.815551 0.573797,2.000714 -0.540571,0.61683 -3.299294,-4.097246 z"
         id="path217" />
      <path
         style="fill:#134829;stroke-width:1.95875"
         d="m 13.966263,80.77732 c -3.250941,-0.405615 -7.3040113,-1.637751 -7.0008564,-2.128266 0.082046,-0.132753 -0.0118,-0.179597 -0.2085452,-0.104099 -0.6741046,0.258679 -5.7448258,-3.764199 -7.27769261,-5.773787 -0.61467769,-0.805843 0.49245675,-1.028756 5.31949591,-1.071043 4.2167113,-0.03694 4.6308866,0.0031 5.8603063,0.567122 0.727604,0.33378 1.858698,1.057796 2.513542,1.608924 1.877,1.579719 4.779823,3.487643 5.051158,3.319949 0.135908,-0.084 0.893092,0.152881 1.682631,0.526393 0.789539,0.373511 1.50365,0.679112 1.586914,0.679112 0.08327,0 0.715716,0.396655 1.405447,0.881456 0.689732,0.4848 1.37312,0.931285 1.518641,0.992187 0.145521,0.0609 0.234818,0.200028 0.198437,0.309169 -0.03638,0.109141 0.961686,0.198437 2.217924,0.198437 1.867663,0 2.362082,-0.08709 2.711979,-0.477706 0.520282,-0.580828 4.353402,-2.697293 4.885056,-2.697293 0.209566,0 0.449563,-0.178594 0.533325,-0.396875 0.08376,-0.218282 0.326639,-0.396875 0.539725,-0.396875 0.36514,0 4.258013,-2.250523 5.096302,-2.946241 0.374163,-0.310528 1.867519,-0.900484 4.298364,-1.698085 1.629684,-0.534726 8.939559,-0.526958 9.64902,0.01026 0.469239,0.355313 0.403186,0.47395 -1.190625,2.138463 -1.761805,1.83996 -4.099287,3.634169 -5.947982,4.565565 -0.597057,0.300805 -2.323463,0.879548 -3.836458,1.286097 l -2.750901,0.739179 -12.567708,0.04127 c -6.912239,0.0227 -13.341614,-0.05529 -14.287499,-0.173307 z"
         id="path215" />
      <path
         style="fill:#462813;stroke-width:1.95875"
         d="m 31.44965,54.963952 c 0.0127,-0.308224 0.07539,-0.370919 0.159852,-0.159852 0.07643,0.190996 0.06703,0.419199 -0.02089,0.507118 -0.08792,0.08792 -0.150453,-0.06835 -0.138964,-0.347266 z"
         id="path498" />
      <path
         style="fill:#462813;stroke-width:1.95875"
         d="m 22.739289,55.118292 c 0,-0.363802 0.06005,-0.51263 0.133452,-0.330729 0.0734,0.181901 0.0734,0.479558 0,0.661459 -0.0734,0.181901 -0.133452,0.03307 -0.133452,-0.33073 z"
         id="path497" />
      <path
         style="fill:#462813;stroke-width:1.95875"
         d="m 31.735121,56.705792 c 0,-0.363802 0.06005,-0.51263 0.133453,-0.330729 0.0734,0.181901 0.0734,0.479557 0,0.661459 -0.0734,0.181901 -0.133453,0.03307 -0.133453,-0.33073 z"
         id="path496" />
      <path
         style="fill:#462813;stroke-width:1.95875"
         d="m 49.106235,58.377135 c 0.190996,-0.07643 0.419199,-0.06703 0.507118,0.02089 0.08792,0.08792 -0.06835,0.150453 -0.347266,0.138964 -0.308224,-0.0127 -0.370919,-0.07539 -0.159852,-0.159852 z"
         id="path493" />
      <path
         style="fill:#462813;stroke-width:1.95875"
         d="m 18.993346,57.405939 c -0.654844,-0.721653 -1.897609,-1.772251 -2.7617,-2.334662 -1.895738,-1.233878 -2.181627,-1.500346 -0.942467,-0.87844 1.5169,0.761297 3.36292,2.207719 4.254754,3.333751 1.190435,1.503047 0.856362,1.429843 -0.550587,-0.120649 z"
         id="path492" />
      <path
         style="fill:#462813;stroke-width:1.95875"
         d="m 51.293399,58.668119 c 0.0127,-0.308225 0.07539,-0.37092 0.159852,-0.159853 0.07643,0.190996 0.06703,0.419199 -0.02089,0.507118 -0.08792,0.08792 -0.150453,-0.06835 -0.138964,-0.347265 z"
         id="path491" />
      <path
         style="fill:#462813;stroke-width:1.95875"
         d="m 20.966841,59.863189 c -0.09592,-0.155202 -0.117656,-0.338931 -0.0483,-0.408286 0.06936,-0.06936 0.196603,0.05763 0.282774,0.282187 0.178907,0.466224 0.02642,0.548232 -0.234474,0.126099 z"
         id="path485" />
      <path
         style="fill:#462813;stroke-width:1.95875"
         d="m 51.028816,59.991035 c 0.0127,-0.308224 0.07539,-0.370919 0.159852,-0.159852 0.07643,0.190996 0.06703,0.419199 -0.02089,0.507118 -0.08792,0.08792 -0.150453,-0.06835 -0.138964,-0.347266 z"
         id="path484" />
      <path
         style="fill:#462813;stroke-width:1.95875"
         d="M 8.9391796,60.145376 C 8.7208984,60.004311 8.6613671,59.888895 8.806888,59.888895 c 0.1455208,0 0.443177,0.115416 0.6614583,0.256481 0.2182812,0.141064 0.2778125,0.25648 0.1322916,0.25648 -0.1455208,0 -0.443177,-0.115416 -0.6614583,-0.25648 z"
         id="path483" />
      <path
         style="fill:#462813;stroke-width:1.95875"
         d="m 38.732298,61.203709 c 0.750774,-2.68357 0.892631,-3.581298 0.895406,-5.666493 0.0017,-1.297561 0.07001,-2.292336 0.151729,-2.210613 0.08172,0.08172 0.146485,1.105997 0.143913,2.276161 -0.0044,2.021691 -0.576201,5.007932 -1.123038,5.865528 -0.179393,0.281338 -0.199191,0.204313 -0.06801,-0.264583 z"
         id="path477" />
      <path
         style="fill:#462813;stroke-width:1.95875"
         d="m 14.630535,60.086439 c -0.25731,-0.91347 -0.505695,-2.434761 -0.551967,-3.380647 l -0.08413,-1.719791 0.227091,1.770012 c 0.1249,0.973507 0.423263,2.44482 0.663029,3.269585 0.239765,0.824764 0.385959,1.549549 0.324875,1.610633 -0.06108,0.06108 -0.321588,-0.636322 -0.578898,-1.549792 z"
         id="path476" />
      <path
         style="fill:#462813;stroke-width:1.95875"
         d="m 21.945539,61.732875 c 0,-0.363802 0.06005,-0.51263 0.133452,-0.330729 0.0734,0.181901 0.0734,0.479558 0,0.661459 -0.0734,0.181901 -0.133452,0.03307 -0.133452,-0.33073 z"
         id="path474" />
      <path
         style="fill:#462813;stroke-width:1.95875"
         d="m 15.719175,63.325998 c -0.597067,-1.492217 -0.505058,-1.714266 0.12339,-0.297785 0.283804,0.639676 0.468892,1.210162 0.411306,1.267748 -0.05758,0.05759 -0.298199,-0.378898 -0.534696,-0.969963 z"
         id="path471" />
      <path
         style="fill:#462813;stroke-width:1.95875"
         d="m 45.187094,70.099644 c 0,-0.05494 0.20836,-0.263302 0.463021,-0.463021 0.419644,-0.329107 0.429002,-0.319749 0.0999,0.09989 -0.345644,0.440729 -0.562916,0.580887 -0.562916,0.363126 z"
         id="path466" />
      <path
         style="fill:#462813;stroke-width:1.95875"
         d="m 45.583969,72.029667 c 0.436563,-0.09901 2.579688,-0.180293 4.7625,-0.180629 5.089806,-7.85e-4 4.440867,0.144285 -1.190625,0.266164 -2.401093,0.05197 -4.008437,0.01347 -3.571875,-0.08553 z"
         id="path456" />
      <path
         style="fill:#462813;stroke-width:1.95875"
         d="m 10.394388,72.529682 c -1.1874796,-0.472279 -1.8198382,-0.51668 -6.1767251,-0.433701 -2.6695946,0.05084 -4.57459451,0.014 -4.23333311,-0.08187 0.9927114,-0.278895 8.99494141,-0.249728 10.02540521,0.03654 0.516045,0.14336 1.170888,0.436566 1.455208,0.651568 0.647846,0.4899 0.559068,0.475592 -1.070555,-0.172534 z"
         id="path454" />
      <path
         style="fill:#462813;stroke-width:1.95875"
         d="M 1.3886089,74.631312 0.07563843,73.24225 1.4647009,74.55522 c 0.7639843,0.722134 1.3890624,1.347212 1.3890624,1.389063 0,0.19743 -0.2451189,-0.02223 -1.4651544,-1.312971 z"
         id="path451" />
      <path
         style="fill:#462813;stroke-width:1.95875"
         d="m 9.6833202,79.808384 c 0.1909961,-0.07643 0.4191988,-0.06703 0.5071178,0.02089 0.08792,0.08792 -0.06835,0.150453 -0.3472654,0.138964 -0.3082244,-0.0127 -0.3709191,-0.07539 -0.1598524,-0.159852 z"
         id="path448" />
      <path
         style="fill:#462813;stroke-width:1.95875"
         d="m 10.741653,80.072967 c 0.190997,-0.07643 0.4192,-0.06703 0.507119,0.02089 0.08792,0.08792 -0.06835,0.150453 -0.347266,0.138965 -0.308225,-0.0127 -0.370919,-0.07539 -0.159853,-0.159853 z"
         id="path447" />
      <path
         style="fill:#462813;stroke-width:1.95875"
         d="m 11.920777,80.334937 c 0.257431,-0.06708 0.614619,-0.06267 0.79375,0.0098 0.179132,0.07248 -0.03149,0.127362 -0.468056,0.12197 -0.436562,-0.0054 -0.583124,-0.06469 -0.325694,-0.131774 z"
         id="path443" />
      <path
         style="fill:#462813;stroke-width:1.95875"
         d="m 13.900117,80.596149 c 0.327422,-0.06306 0.863203,-0.06306 1.190625,0 0.327422,0.06306 0.05953,0.114662 -0.595313,0.114662 -0.654843,0 -0.922734,-0.0516 -0.595312,-0.114662 z"
         id="path441" />
      <path
         style="fill:#462813;stroke-width:1.95875"
         d="m 28.386054,80.764056 c 6.693958,-0.09511 12.647082,-0.292093 13.229166,-0.43774 5.293286,-1.324468 6.915149,-2.107453 10.334503,-4.989177 l 2.365496,-1.993565 -1.951597,1.875575 c -2.450786,2.355318 -4.817011,3.763816 -7.735321,4.604458 -3.829829,1.103212 -5.675525,1.227273 -17.385872,1.168613 L 16.215221,80.93698 Z"
         id="path440" />
      <path
         style="fill:#162810;stroke-width:1.95875"
         d="m 31.44965,54.963952 c 0.0127,-0.308224 0.07539,-0.370919 0.159852,-0.159852 0.07643,0.190996 0.06703,0.419199 -0.02089,0.507118 -0.08792,0.08792 -0.150453,-0.06835 -0.138964,-0.347266 z"
         id="path754" />
      <path
         style="fill:#162810;stroke-width:1.95875"
         d="m 22.739289,55.118292 c 0,-0.363802 0.06005,-0.51263 0.133452,-0.330729 0.0734,0.181901 0.0734,0.479558 0,0.661459 -0.0734,0.181901 -0.133452,0.03307 -0.133452,-0.33073 z"
         id="path753" />
      <path
         style="fill:#162810;stroke-width:1.95875"
         d="m 31.735121,56.705792 c 0,-0.363802 0.06005,-0.51263 0.133453,-0.330729 0.0734,0.181901 0.0734,0.479557 0,0.661459 -0.0734,0.181901 -0.133453,0.03307 -0.133453,-0.33073 z"
         id="path752" />
      <path
         style="fill:#162810;stroke-width:1.95875"
         d="m 49.106235,58.377135 c 0.190996,-0.07643 0.419199,-0.06703 0.507118,0.02089 0.08792,0.08792 -0.06835,0.150453 -0.347266,0.138964 -0.308224,-0.0127 -0.370919,-0.07539 -0.159852,-0.159852 z"
         id="path749" />
      <path
         style="fill:#162810;stroke-width:1.95875"
         d="m 18.993346,57.405939 c -0.654844,-0.721653 -1.897609,-1.772251 -2.7617,-2.334662 -1.895738,-1.233878 -2.181627,-1.500346 -0.942467,-0.87844 1.5169,0.761297 3.36292,2.207719 4.254754,3.333751 1.190435,1.503047 0.856362,1.429843 -0.550587,-0.120649 z"
         id="path748" />
      <path
         style="fill:#162810;stroke-width:1.95875"
         d="m 51.293399,58.668119 c 0.0127,-0.308225 0.07539,-0.37092 0.159852,-0.159853 0.07643,0.190996 0.06703,0.419199 -0.02089,0.507118 -0.08792,0.08792 -0.150453,-0.06835 -0.138964,-0.347265 z"
         id="path747" />
      <path
         style="fill:#162810;stroke-width:1.95875"
         d="m 51.028816,59.991035 c 0.0127,-0.308224 0.07539,-0.370919 0.159852,-0.159852 0.07643,0.190996 0.06703,0.419199 -0.02089,0.507118 -0.08792,0.08792 -0.150453,-0.06835 -0.138964,-0.347266 z"
         id="path741" />
      <path
         style="fill:#162810;stroke-width:1.95875"
         d="M 8.9391796,60.145376 C 8.7208984,60.004311 8.6613671,59.888895 8.806888,59.888895 c 0.1455208,0 0.443177,0.115416 0.6614583,0.256481 0.2182812,0.141064 0.2778125,0.25648 0.1322916,0.25648 -0.1455208,0 -0.443177,-0.115416 -0.6614583,-0.25648 z"
         id="path740" />
      <path
         style="fill:#162810;stroke-width:1.95875"
         d="m 38.732298,61.203709 c 0.750774,-2.68357 0.892631,-3.581298 0.895406,-5.666493 0.0017,-1.297561 0.07001,-2.292336 0.151729,-2.210613 0.08172,0.08172 0.146485,1.105997 0.143913,2.276161 -0.0044,2.021691 -0.576201,5.007932 -1.123038,5.865528 -0.179393,0.281338 -0.199191,0.204313 -0.06801,-0.264583 z"
         id="path734" />
      <path
         style="fill:#162810;stroke-width:1.95875"
         d="m 14.630535,60.086439 c -0.25731,-0.91347 -0.505695,-2.434761 -0.551967,-3.380647 l -0.08413,-1.719791 0.227091,1.770012 c 0.1249,0.973507 0.423263,2.44482 0.663029,3.269585 0.239765,0.824764 0.385959,1.549549 0.324875,1.610633 -0.06108,0.06108 -0.321588,-0.636322 -0.578898,-1.549792 z"
         id="path733" />
      <path
         style="fill:#162810;stroke-width:1.95875"
         d="m 21.92465,61.843118 c 0.0127,-0.308224 0.07539,-0.370919 0.159853,-0.159852 0.07643,0.190996 0.06703,0.419199 -0.02089,0.507118 -0.08792,0.08792 -0.150453,-0.06835 -0.138965,-0.347266 z"
         id="path732" />
      <path
         style="fill:#162810;stroke-width:1.95875"
         d="m 15.719175,63.325998 c -0.597067,-1.492217 -0.505058,-1.714266 0.12339,-0.297785 0.283804,0.639676 0.468892,1.210162 0.411306,1.267748 -0.05758,0.05759 -0.298199,-0.378898 -0.534696,-0.969963 z"
         id="path729" />
      <path
         style="fill:#162810;stroke-width:1.95875"
         d="m 45.583969,72.030789 c 0.436563,-0.09963 2.520156,-0.181415 4.630208,-0.181751 4.914918,-7.84e-4 4.272941,0.143161 -1.190624,0.266964 -2.328334,0.05276 -3.876146,0.01441 -3.439584,-0.08521 z"
         id="path717" />
      <path
         style="fill:#162810;stroke-width:1.95875"
         d="m 10.394388,72.529682 c -1.1874796,-0.472279 -1.8198382,-0.51668 -6.1767251,-0.433701 -2.6695946,0.05084 -4.57459451,0.014 -4.23333311,-0.08187 0.9927114,-0.278895 8.99494141,-0.249728 10.02540521,0.03654 0.516045,0.14336 1.170888,0.436566 1.455208,0.651568 0.647846,0.4899 0.559068,0.475592 -1.070555,-0.172534 z"
         id="path715" />
      <path
         style="fill:#162810;stroke-width:1.95875"
         d="M 1.3886089,74.631312 0.07563843,73.24225 1.4647009,74.55522 c 0.7639843,0.722134 1.3890624,1.347212 1.3890624,1.389063 0,0.19743 -0.2451189,-0.02223 -1.4651544,-1.312971 z"
         id="path712" />
      <path
         style="fill:#162810;stroke-width:1.95875"
         d="m 9.6833202,79.808384 c 0.1909961,-0.07643 0.4191988,-0.06703 0.5071178,0.02089 0.08792,0.08792 -0.06835,0.150453 -0.3472654,0.138964 -0.3082244,-0.0127 -0.3709191,-0.07539 -0.1598524,-0.159852 z"
         id="path707" />
      <path
         style="fill:#162810;stroke-width:1.95875"
         d="m 10.741653,80.072967 c 0.190997,-0.07643 0.4192,-0.06703 0.507119,0.02089 0.08792,0.08792 -0.06835,0.150453 -0.347266,0.138965 -0.308225,-0.0127 -0.370919,-0.07539 -0.159853,-0.159853 z"
         id="path706" />
      <path
         style="fill:#162810;stroke-width:1.95875"
         d="m 11.920777,80.334937 c 0.257431,-0.06708 0.614619,-0.06267 0.79375,0.0098 0.179132,0.07248 -0.03149,0.127362 -0.468056,0.12197 -0.436562,-0.0054 -0.583124,-0.06469 -0.325694,-0.131774 z"
         id="path702" />
      <path
         style="fill:#162810;stroke-width:1.95875"
         d="m 13.900117,80.596149 c 0.327422,-0.06306 0.863203,-0.06306 1.190625,0 0.327422,0.06306 0.05953,0.114662 -0.595313,0.114662 -0.654843,0 -0.922734,-0.0516 -0.595312,-0.114662 z"
         id="path700" />
      <path
         style="fill:#162810;stroke-width:1.95875"
         d="m 28.386054,80.764056 c 6.693958,-0.09511 12.647082,-0.292093 13.229166,-0.43774 5.293286,-1.324468 6.915149,-2.107453 10.334503,-4.989177 l 2.365496,-1.993565 -1.951597,1.875575 c -2.450786,2.355318 -4.817011,3.763816 -7.735321,4.604458 -3.829829,1.103212 -5.675525,1.227273 -17.385872,1.168613 L 16.215221,80.93698 Z"
         id="path699" />
    </g>
  </g>
</svg>
