<?xml version="1.0" encoding="UTF-8" standalone="no"?>
<!-- Created with Inkscape (http://www.inkscape.org/) -->

<svg
   width="185"
   height="185"
   viewBox="0 0 48.947914 48.947918"
   version="1.1"
   id="svg1"
   xmlns="http://www.w3.org/2000/svg"
   xmlns:svg="http://www.w3.org/2000/svg">
  <defs
     id="defs1" />
  <g
     id="g11738"
     transform="translate(-58.542439,-89.204544)">
    <path
       style="fill:#fbdb6c"
       d="m 80.653654,137.50022 c -0.494463,-0.35897 -1.186389,-0.86167 -1.537613,-1.11712 -0.351224,-0.25544 -1.184661,-0.52728 -1.852083,-0.60409 -0.993549,-0.11434 -1.464864,-0.004 -2.60037,0.60664 -1.373825,0.73927 -2.449495,0.85311 -2.638241,0.2792 -0.178241,-0.54196 1.249053,-1.95154 1.976068,-1.95154 0.974482,0 0.546136,-0.29597 -0.779048,-0.5383 -0.832348,-0.15221 -1.339485,-0.0979 -1.928717,0.20668 -0.832385,0.43022 -3.45209,2.30041 -4.05948,2.89803 -1.029217,1.01268 -1.510622,-0.24822 -0.557428,-1.46001 0.377963,-0.4805 0.448451,-0.7301 0.227031,-0.8039 -0.176617,-0.0589 0.07098,-0.27191 0.550217,-0.47341 0.479236,-0.20151 0.798048,-0.43967 0.708471,-0.52924 -0.08958,-0.0896 -0.554077,0.01 -1.032223,0.22086 -0.478146,0.21104 -1.345607,0.37546 -1.92769,0.36536 -0.855219,-0.0148 -1.073123,-0.12165 -1.135398,-0.55657 -0.102793,-0.71788 1.020175,-1.10974 3.847377,-1.34252 1.200547,-0.0988 2.182813,-0.25462 2.182813,-0.34617 0,-0.0915 -0.565547,-0.46655 -1.256771,-0.83334 -0.827375,-0.43905 -1.285658,-0.86638 -1.341319,-1.25073 -0.0465,-0.3211 0.04503,-0.58382 0.203407,-0.58382 0.588116,0 4.017667,1.31198 4.715029,1.80374 1.329637,0.93763 4.823403,2.52532 4.823403,2.19193 0,-0.11586 -0.696402,-0.94253 -1.54756,-1.83703 -1.204783,-1.26613 -2.062225,-1.86755 -3.871157,-2.71524 -2.773537,-1.29972 -3.301798,-1.27599 -5.725322,0.25726 -2.886644,1.82623 -3.884537,2.25993 -4.336592,1.88476 -0.216902,-0.18001 -0.394368,-0.44549 -0.394368,-0.58994 0,-0.35508 1.876116,-2.05381 2.268266,-2.05381 0.172025,0 0.47618,-0.20089 0.6759,-0.44642 0.316369,-0.38893 0.305998,-0.42502 -0.08055,-0.28031 -0.2473,0.0926 -0.583685,-0.003 -0.760001,-0.21504 -0.173978,-0.20963 -0.510105,-0.38159 -0.746948,-0.38214 -0.236844,-5.4e-4 -0.82546,-0.24171 -1.308036,-0.53593 -0.641109,-0.39087 -0.85488,-0.69344 -0.79375,-1.12349 0.07141,-0.50236 0.27198,-0.60053 1.369712,-0.67039 1.048519,-0.0667 1.477001,0.0505 2.319897,0.63462 1.175403,0.81456 1.564488,0.70107 0.927809,-0.27063 -0.448795,-0.68495 -0.587646,-2.13954 -0.225593,-2.3633 0.113917,-0.0704 0.852276,0.51788 1.640798,1.3073 0.788522,0.78942 1.642578,1.43531 1.897901,1.43531 0.255324,0 1.079204,0.36261 1.830845,0.80579 0.751641,0.44318 1.408251,0.76416 1.459133,0.71327 0.158905,-0.1589 -2.174538,-3.46722 -2.970881,-4.21206 -0.416694,-0.38975 -1.352939,-1.01818 -2.080543,-1.39652 -0.727604,-0.37833 -1.561042,-0.83335 -1.852083,-1.01116 -0.291042,-0.1778 -0.549255,-0.32352 -0.573806,-0.32382 -0.02455,-3e-4 -0.126756,-0.32772 -0.227121,-0.7276 -0.168345,-0.67074 -0.121631,-0.72706 0.60303,-0.72706 0.432032,0 1.230122,0.30172 1.773534,0.67049 0.543413,0.36877 0.946089,0.57712 0.894835,0.46302 -0.05125,-0.11411 -0.425908,-0.90915 -0.832566,-1.76674 -0.753124,-1.58826 -0.774622,-2.27719 -0.07106,-2.27719 0.457683,0 0.820181,0.47622 2.41681,3.175 0.645688,1.0914 1.416406,2.28203 1.712707,2.64583 l 0.53873,0.66146 -0.130727,-0.92604 c -0.0719,-0.50932 -0.204203,-1.95152 -0.294006,-3.20488 -0.131378,-1.83361 -0.08992,-2.307 0.212175,-2.42292 0.206499,-0.0792 0.498329,-0.0658 0.648511,0.0299 0.367338,0.23402 0.880043,2.72263 0.701543,3.40522 -0.263878,1.00907 0.407729,0.8987 1.08792,-0.17879 1.292361,-2.04724 1.893942,-0.97583 0.771129,1.37337 -0.420733,0.88028 -0.767837,1.67333 -0.771341,1.76233 -0.0035,0.089 -0.16371,0.71275 -0.356013,1.3861 -0.339458,1.1886 -0.323856,1.2726 0.535537,2.88357 0.675525,1.2663 5.269394,6.87237 5.631531,6.87237 0.03588,0 -0.245074,-0.94471 -0.62434,-2.09935 -0.614715,-1.87145 -0.849228,-2.23767 -2.160235,-3.37344 -1.331064,-1.15315 -2.66757,-3.30232 -2.289022,-3.68087 0.284268,-0.28427 1.565411,0.25451 2.35166,0.98898 0.454486,0.42455 0.860653,0.7376 0.902592,0.69566 0.04194,-0.0419 -0.02893,-0.55146 -0.157482,-1.13226 -0.347096,-1.56816 -1.053507,-5.7564 -1.051488,-6.23417 9.66e-4,-0.22862 -0.831682,-1.4024 -1.850327,-2.60841 -1.977301,-2.341 -2.381424,-3.45822 -1.250909,-3.45822 0.330646,0 1.022114,0.34697 1.536595,0.77105 l 0.935421,0.77105 -0.109176,-1.50934 c -0.08046,-1.11239 -0.0063,-1.59473 0.282027,-1.83401 0.321565,-0.26688 0.472418,-0.20072 0.847448,0.37164 0.363153,0.55425 0.437462,1.14904 0.36419,2.91509 -0.05063,1.22032 -0.02809,2.21874 0.05008,2.21872 0.07817,-2e-5 0.159194,-0.22653 0.180047,-0.50335 0.02085,-0.27682 0.270127,-1.02096 0.553945,-1.65365 0.283817,-0.63268 0.597773,-1.41822 0.697679,-1.74564 0.215356,-0.70579 1.324097,-0.82514 1.575645,-0.16962 0.09217,0.24021 -0.356652,1.57551 -1.030026,3.06444 -1.199006,2.65117 -1.380736,3.708 -0.96364,5.60397 0.152602,0.69367 0.20918,0.61749 0.650711,-0.87609 0.265968,-0.8997 0.652921,-1.7008 0.859896,-1.78022 0.206975,-0.0794 0.376318,-0.41475 0.376318,-0.74516 0,-0.68919 0.632912,-1.32535 1.057506,-1.06294 0.157815,0.0975 0.209438,0.42151 0.114719,0.71995 -0.153998,0.4852 -0.06987,0.46454 0.795192,-0.19527 1.038631,-0.79221 1.747773,-0.62237 1.327571,0.31794 -0.118172,0.26445 -0.236348,0.67999 -0.262612,0.92344 -0.02626,0.24345 -0.784958,1.12516 -1.685985,1.95935 -2.143081,1.98411 -2.499216,2.83307 -2.290958,5.46122 0.08901,1.12331 0.266497,2.31393 0.394411,2.64584 0.223907,0.58098 0.23929,0.58374 0.412889,0.0743 0.09918,-0.29104 0.289694,-0.80266 0.423376,-1.13693 0.133682,-0.33426 0.243058,-0.85881 0.243058,-1.16565 0,-0.30684 0.276656,-0.92631 0.61479,-1.37661 0.338135,-0.4503 0.691585,-1.02708 0.785446,-1.28174 0.279206,-0.75754 0.677937,-0.53023 0.969543,0.55271 0.228678,0.84925 0.171288,1.31627 -0.350143,2.84934 -0.343008,1.00849 -0.878217,2.3326 -1.189352,2.94248 -0.6938,1.35996 -0.704035,1.96125 -0.06816,4.00432 0.273647,0.87923 0.42446,1.69351 0.335139,1.80951 -0.08932,0.116 -0.008,0.0783 0.180704,-0.0837 1.011324,-0.86835 3.180884,-12.16282 3.749881,-19.52143 0.378066,-4.88937 0.344928,-6.64249 -0.133057,-7.03918 -0.218281,-0.18116 -0.396875,-0.47614 -0.396875,-0.65552 0,-0.17938 -0.728749,-0.83733 -1.619442,-1.46212 -1.278228,-0.89662 -1.747621,-1.42581 -2.227794,-2.51156 -0.54247,-1.22662 -0.73242,-1.41062 -1.753995,-1.69905 -2.855977,-0.80634 -4.494719,-3.988535 -3.271813,-6.353373 0.942115,-1.821849 3.280871,-2.865906 4.654216,-2.077714 0.669417,0.384192 0.734761,0.364869 1.535479,-0.454063 2.124114,-2.17243 6.751566,-2.168138 8.463198,0.0078 0.294198,0.374012 0.578875,0.811929 0.632614,0.973148 0.06655,0.199648 0.48714,0.144401 1.318871,-0.17324 1.542413,-0.589053 2.726059,-0.264206 3.897107,1.069544 1.460578,1.663506 1.008071,4.241229 -1.054439,6.006658 -0.834095,0.71396 -1.474451,1.01765 -2.406458,1.14129 -1.260176,0.16716 -1.273038,0.17888 -1.673615,1.52466 -0.308899,1.03778 -0.834782,1.80781 -2.239798,3.27969 -2.088385,2.18776 -1.879987,1.41119 -2.397736,8.93486 -0.160621,2.33407 -0.451552,5.01297 -0.646512,5.95312 -0.19496,0.94015 -0.434483,2.3642 -0.532272,3.16457 -0.09779,0.80036 -0.294505,2.06009 -0.437146,2.79939 -0.466139,2.41597 -0.952256,7.00961 -0.754706,7.13171 0.106191,0.0656 0.874603,-0.72419 1.70758,-1.75515 l 1.514505,-1.87447 -0.291686,-1.4971 c -0.418779,-2.1494 -0.595965,-4.8802 -0.342354,-5.27636 0.318748,-0.49791 1.006996,-0.12962 1.362739,0.72922 0.170496,0.41161 0.31352,1.71275 0.317832,2.89141 0.0043,1.17866 0.05133,2.14301 0.104495,2.14301 0.174435,0 1.110052,-2.22514 1.4147,-3.36453 0.197989,-0.74048 0.211477,-1.27426 0.04011,-1.5875 -0.828513,-1.51449 -1.609517,-3.3629 -1.609517,-3.80926 0,-0.28365 0.175555,-0.5831 0.390122,-0.66543 0.528406,-0.20277 1.956346,0.96397 1.984534,1.62152 0.02183,0.50928 0.0335,0.51054 0.310684,0.0334 0.190178,-0.32737 0.22243,-1.27098 0.09495,-2.77813 -0.372057,-4.39881 -0.326185,-5.25148 0.317109,-5.8945 l 0.583861,-0.58361 0.276035,0.72603 c 0.151819,0.39932 0.278746,1.16476 0.28206,1.70099 l 0.006,0.97496 0.400188,-0.81094 c 0.478612,-0.96986 1.92007,-2.76093 2.222,-2.76093 0.416865,0 0.485827,1.06879 0.142558,2.20939 -0.191191,0.63527 -0.894184,1.95339 -1.562207,2.92914 -1.482421,2.16529 -1.586604,2.75343 -0.354692,2.00232 0.472942,-0.28836 1.023607,-0.52474 1.223698,-0.52528 0.520088,-0.001 0.189487,1.44075 -0.49991,2.18073 -0.565155,0.60662 -3.171184,5.57204 -3.171184,6.04224 0,0.43385 1.907235,-1.23205 2.910417,-2.54213 0.509322,-0.66515 1.174198,-1.53105 1.477501,-1.92424 0.303303,-0.39318 0.824469,-1.60785 1.158148,-2.69925 1.100527,-3.59965 1.061062,-3.52835 1.655368,-2.99051 0.526982,0.47691 0.546246,1.45353 0.05881,2.9816 -0.184136,0.57726 -0.08838,0.53594 0.829861,-0.35812 0.973336,-0.94771 3.197286,-2.27881 3.807346,-2.27881 0.15036,0 0.27338,0.34922 0.27338,0.77604 0,0.59494 -0.26877,0.99627 -1.15173,1.71979 -0.63345,0.51907 -1.23781,0.94375 -1.34301,0.94375 -0.33067,0 -3.146822,2.28079 -4.252137,3.44378 -0.954441,1.00425 -0.993401,1.09556 -0.396875,0.93015 2.036845,-0.56478 6.672212,-2.76667 7.024572,-3.33682 0.24103,-0.38999 1.07196,-0.2817 1.68552,0.21967 0.52651,0.43024 0.53727,0.50461 0.15203,1.05058 -0.22803,0.32315 -0.88668,0.72899 -1.46366,0.90186 l -1.04905,0.31431 1.32321,0.8911 c 1.44689,0.97439 1.43842,0.96115 1.06338,1.66192 -0.25124,0.46943 -0.31475,0.46824 -1.91823,-0.0359 -4.195836,-1.31932 -8.560194,-0.17842 -12.496482,3.26675 -1.013239,0.88682 -2.079667,1.91422 -2.369841,2.28311 -0.519232,0.6601 -0.519388,0.66827 -0.0098,0.51557 1.762391,-0.52813 6.421473,-2.66538 7.234282,-3.31857 0.531884,-0.42744 1.487959,-1.0429 2.124612,-1.36769 0.942035,-0.48059 1.275971,-0.53658 1.793607,-0.30073 0.884592,0.40304 0.52998,0.91642 -1.396031,2.02106 l -1.565797,0.89805 1.455208,0.002 c 0.800365,0.001 2.224852,-0.1587 3.165532,-0.35571 1.28298,-0.2687 1.8299,-0.28385 2.18888,-0.0606 0.77995,0.48499 0.41965,1.06856 -0.85885,1.39107 -1.23251,0.3109 -1.21325,0.3343 0.76972,0.93504 0.77704,0.23541 1.23617,0.5507 1.38053,0.94802 0.19621,0.54002 0.13602,0.59531 -0.64813,0.59531 -0.47543,0 -1.98545,-0.35146 -3.35559,-0.78102 -1.370138,-0.42956 -2.525952,-0.74623 -2.568475,-0.7037 -0.04252,0.0425 0.280706,0.57154 0.718285,1.1756 1.73851,2.39994 0.414506,2.6162 -1.892569,0.30912 -1.391193,-1.39119 -1.713623,-1.5875 -2.607442,-1.5875 -0.560968,0 -1.355115,0.13133 -1.764771,0.29184 -0.705419,0.27639 -0.715688,0.30306 -0.194081,0.50415 0.677639,0.26124 1.962795,1.75103 1.962795,2.27533 0,0.63668 -0.728347,0.71512 -1.511963,0.16282 -0.405348,-0.28569 -1.530433,-0.78567 -2.50019,-1.11106 -1.98114,-0.66475 -2.792551,-0.54548 -4.59075,0.67481 -1.217947,0.82652 -2.672479,1.43545 -3.428823,1.43545 -0.32451,0 -0.994579,-0.29371 -1.489042,-0.65268 z"
       id="path11708" />
    <path
       style="fill:#fb8601"
       d="m 80.653654,137.50022 c -0.494463,-0.35897 -1.186389,-0.86167 -1.537613,-1.11712 -0.351224,-0.25544 -1.184661,-0.52728 -1.852083,-0.60409 -0.993549,-0.11434 -1.464864,-0.004 -2.60037,0.60664 -1.373825,0.73927 -2.449495,0.85311 -2.638241,0.2792 -0.178241,-0.54196 1.249053,-1.95154 1.976068,-1.95154 0.974482,0 0.546136,-0.29597 -0.779048,-0.5383 -1.331811,-0.24354 -1.750461,-0.0621 -4.638262,2.0099 -1.102912,0.79135 -2.106595,1.43882 -2.230405,1.43882 -0.423711,0 -0.225556,-1.10659 0.323042,-1.80402 0.377963,-0.4805 0.448451,-0.7301 0.227031,-0.8039 -0.176617,-0.0589 0.07098,-0.27191 0.550217,-0.47341 0.479236,-0.20151 0.798048,-0.43967 0.708471,-0.52924 -0.08958,-0.0896 -0.554077,0.01 -1.032223,0.22086 -0.478146,0.21104 -1.345607,0.37546 -1.92769,0.36536 -0.855219,-0.0148 -1.073123,-0.12165 -1.135398,-0.55657 -0.102793,-0.71788 1.020175,-1.10974 3.847377,-1.34252 1.200547,-0.0988 2.182813,-0.25462 2.182813,-0.34617 0,-0.0915 -0.565547,-0.46655 -1.256771,-0.83334 -0.827375,-0.43905 -1.285658,-0.86638 -1.341319,-1.25073 -0.0465,-0.3211 0.04503,-0.58382 0.203407,-0.58382 0.588116,0 4.017667,1.31198 4.715029,1.80374 1.329637,0.93763 4.823403,2.52532 4.823403,2.19193 0,-0.11586 -0.696402,-0.94253 -1.54756,-1.83703 -1.204783,-1.26613 -2.062225,-1.86755 -3.871157,-2.71524 -2.773537,-1.29972 -3.301798,-1.27599 -5.725322,0.25726 -2.886644,1.82623 -3.884537,2.25993 -4.336592,1.88476 -0.216902,-0.18001 -0.394368,-0.44549 -0.394368,-0.58994 0,-0.35508 1.876116,-2.05381 2.268266,-2.05381 0.172025,0 0.47618,-0.20089 0.6759,-0.44642 0.316369,-0.38893 0.305998,-0.42502 -0.08055,-0.28031 -0.2473,0.0926 -0.583685,-0.003 -0.760001,-0.21504 -0.173978,-0.20963 -0.510105,-0.38159 -0.746948,-0.38214 -0.236844,-5.4e-4 -0.82546,-0.24171 -1.308036,-0.53593 -0.641109,-0.39087 -0.85488,-0.69344 -0.79375,-1.12349 0.07141,-0.50236 0.27198,-0.60053 1.369712,-0.67039 1.048519,-0.0667 1.477001,0.0505 2.319897,0.63462 1.175403,0.81456 1.564488,0.70107 0.927809,-0.27063 -0.448795,-0.68495 -0.587646,-2.13954 -0.225593,-2.3633 0.113917,-0.0704 0.852276,0.51788 1.640798,1.3073 0.788522,0.78942 1.642578,1.43531 1.897901,1.43531 0.255324,0 1.079204,0.36261 1.830845,0.80579 0.751641,0.44318 1.408251,0.76416 1.459133,0.71327 0.158905,-0.1589 -2.174538,-3.46722 -2.970881,-4.21206 -0.416694,-0.38975 -1.359508,-1.00944 -2.09514,-1.3771 -1.568578,-0.78394 -2.763528,-1.82151 -2.763528,-2.39956 0,-0.64465 1.379168,-0.50077 2.501679,0.26099 0.543413,0.36877 0.945808,0.57712 0.894212,0.46302 -0.0516,-0.11411 -0.346343,-0.74325 -0.654992,-1.3981 -0.887299,-1.88253 -0.982763,-2.3618 -0.506814,-2.54444 0.557391,-0.21389 1.126987,0.29473 1.792579,1.6007 0.639651,1.25507 2.88415,4.70868 2.985596,4.59393 0.03808,-0.0431 -0.04451,-1.43514 -0.183529,-3.09347 -0.257468,-3.07125 -0.136612,-3.62383 0.72063,-3.29488 0.388377,0.14903 0.941656,2.72019 0.746192,3.46764 -0.261273,0.99911 0.414506,0.88107 1.090996,-0.19055 1.292361,-2.04724 1.893942,-0.97583 0.771129,1.37337 -0.420733,0.88028 -0.767837,1.67333 -0.771341,1.76233 -0.0035,0.089 -0.16371,0.71275 -0.356013,1.3861 -0.339458,1.1886 -0.323856,1.2726 0.535537,2.88357 0.675525,1.2663 5.269394,6.87237 5.631531,6.87237 0.03588,0 -0.245074,-0.94471 -0.62434,-2.09935 -0.614715,-1.87145 -0.849228,-2.23767 -2.160235,-3.37344 -1.331064,-1.15315 -2.66757,-3.30232 -2.289022,-3.68087 0.284268,-0.28427 1.565411,0.25451 2.35166,0.98898 0.454486,0.42455 0.860653,0.7376 0.902592,0.69566 0.04194,-0.0419 -0.02893,-0.55146 -0.157482,-1.13226 -0.347096,-1.56816 -1.053507,-5.7564 -1.051488,-6.23417 9.66e-4,-0.22862 -0.831682,-1.4024 -1.850327,-2.60841 -1.977301,-2.341 -2.381424,-3.45822 -1.250909,-3.45822 0.330646,0 1.024357,0.34882 1.541581,0.77516 l 0.940406,0.77516 -0.107356,-1.37047 c -0.07112,-0.90789 0.01715,-1.53633 0.261516,-1.86182 0.35195,-0.4688 0.390514,-0.45831 0.840642,0.22867 0.380922,0.58136 0.454044,1.14728 0.379716,2.93878 -0.05063,1.22032 -0.02809,2.21874 0.05008,2.21872 0.07817,-2e-5 0.159194,-0.22653 0.180047,-0.50335 0.02085,-0.27682 0.270127,-1.02096 0.553945,-1.65365 0.283817,-0.63268 0.597773,-1.41822 0.697679,-1.74564 0.215356,-0.70579 1.324097,-0.82514 1.575645,-0.16962 0.09217,0.24021 -0.356652,1.57551 -1.030026,3.06444 -1.199006,2.65117 -1.380736,3.708 -0.96364,5.60397 0.152602,0.69367 0.20918,0.61749 0.650711,-0.87609 0.265968,-0.8997 0.652921,-1.7008 0.859896,-1.78022 0.206975,-0.0794 0.376318,-0.41475 0.376318,-0.74516 0,-0.68919 0.632912,-1.32535 1.057506,-1.06294 0.157815,0.0975 0.209438,0.42151 0.114719,0.71995 -0.153998,0.4852 -0.06987,0.46454 0.795192,-0.19527 0.704913,-0.53767 1.046561,-0.65873 1.259119,-0.44617 0.212558,0.21256 0.175209,0.46951 -0.137645,0.94699 -0.303454,0.46312 -0.338554,0.68554 -0.119702,0.75849 0.17031,0.0568 -0.497202,0.86634 -1.483361,1.79904 -2.30421,2.1793 -2.640331,2.95428 -2.430395,5.6036 0.08901,1.12331 0.266497,2.31393 0.394411,2.64584 0.223907,0.58098 0.23929,0.58374 0.412889,0.0743 0.09918,-0.29104 0.289694,-0.80266 0.423376,-1.13693 0.133682,-0.33426 0.243058,-0.85881 0.243058,-1.16565 0,-0.30684 0.276656,-0.92631 0.61479,-1.37661 0.338135,-0.4503 0.691585,-1.02708 0.785446,-1.28174 0.277815,-0.75377 0.677444,-0.53206 0.964848,0.53527 0.223684,0.8307 0.161262,1.31619 -0.371807,2.89181 -0.352342,1.04143 -0.885438,2.3734 -1.184658,2.95991 -0.671482,1.31622 -0.678692,1.9306 -0.0465,3.96186 0.273647,0.87923 0.42446,1.69351 0.335139,1.80951 -0.08932,0.116 -0.008,0.0783 0.180704,-0.0837 1.011324,-0.86835 3.180884,-12.16282 3.749881,-19.52143 0.378066,-4.88937 0.344928,-6.64249 -0.133057,-7.03918 -0.218281,-0.18116 -0.396875,-0.55292 -0.396875,-0.82615 0,-0.27322 -0.100844,-0.49677 -0.224099,-0.49677 -0.123255,0 -0.477376,-0.20836 -0.786935,-0.46302 -0.30956,-0.25466 -0.978156,-0.76068 -1.48577,-1.12448 -0.597685,-0.42835 -1.081927,-1.09661 -1.3741,-1.89626 -0.406832,-1.11347 -0.566835,-1.2672 -1.628242,-1.56437 -1.497267,-0.41921 -2.645976,-1.38568 -3.263942,-2.74613 -0.620795,-1.366675 -0.622992,-2.428558 -0.0074,-3.586948 0.947866,-1.783714 3.285571,-2.659396 4.855908,-1.818977 0.469216,0.251117 0.637002,0.18051 1.160457,-0.488343 0.927921,-1.185662 2.68571,-1.748263 4.998523,-1.599836 2.171611,0.139366 3.291747,0.733092 3.828692,2.029393 0.316698,0.764576 0.337195,0.771375 1.21707,0.40374 1.846347,-0.771453 3.443224,-0.374641 4.449043,1.105555 1.730027,2.545964 -0.249369,6.334836 -3.509157,6.717076 -1.159683,0.13598 -1.18438,0.15995 -1.858393,1.80337 -0.493237,1.20264 -1.153999,2.13905 -2.377405,3.36917 l -1.694314,1.70362 -0.216455,4.03916 c -0.232364,4.33601 -0.638875,8.23341 -1.014632,9.7277 -0.128075,0.50932 -0.308498,1.58088 -0.40094,2.38125 -0.09244,0.80036 -0.284781,2.06009 -0.427422,2.79939 -0.466139,2.41597 -0.952256,7.00961 -0.754706,7.13171 0.106191,0.0656 0.874603,-0.72419 1.70758,-1.75515 l 1.514505,-1.87447 -0.291686,-1.4971 c -0.418779,-2.1494 -0.595965,-4.8802 -0.342354,-5.27636 0.318748,-0.49791 1.006996,-0.12962 1.362739,0.72922 0.170496,0.41161 0.31352,1.71275 0.317832,2.89141 0.0043,1.17866 0.05133,2.14301 0.104495,2.14301 0.174435,0 1.110052,-2.22514 1.4147,-3.36453 0.197989,-0.74048 0.211477,-1.27426 0.04011,-1.5875 -0.828513,-1.51449 -1.609517,-3.3629 -1.609517,-3.80926 0,-0.28365 0.175555,-0.5831 0.390122,-0.66543 0.528406,-0.20277 1.956346,0.96397 1.984534,1.62152 0.02183,0.50928 0.0335,0.51054 0.310684,0.0334 0.190178,-0.32737 0.22243,-1.27098 0.09495,-2.77813 -0.372057,-4.39881 -0.326185,-5.25148 0.317109,-5.8945 l 0.583861,-0.58361 0.276035,0.72603 c 0.151819,0.39932 0.278746,1.16476 0.28206,1.70099 l 0.006,0.97496 0.417452,-0.84658 c 0.229599,-0.46563 0.804568,-1.29442 1.277709,-1.84176 0.825316,-0.95475 0.872058,-0.97312 1.1508,-0.45229 0.429706,0.80292 -0.194557,2.591 -1.643422,4.70729 -1.482421,2.16529 -1.586604,2.75343 -0.354692,2.00232 0.472942,-0.28836 1.023607,-0.52474 1.223698,-0.52528 0.520088,-0.001 0.189487,1.44075 -0.49991,2.18073 -0.565155,0.60662 -3.171184,5.57204 -3.171184,6.04224 0,0.43385 1.907235,-1.23205 2.910417,-2.54213 0.509322,-0.66515 1.174198,-1.53105 1.477501,-1.92424 0.303303,-0.39318 0.824469,-1.60785 1.158148,-2.69925 1.100527,-3.59965 1.061062,-3.52835 1.655368,-2.99051 0.526982,0.47691 0.546246,1.45353 0.05881,2.9816 -0.184136,0.57726 -0.08838,0.53594 0.829861,-0.35812 0.973331,-0.94771 3.197281,-2.27881 3.807341,-2.27881 0.15036,0 0.27338,0.34922 0.27338,0.77604 0,0.59494 -0.26877,0.99627 -1.15173,1.71979 -0.63345,0.51907 -1.23781,0.94375 -1.34301,0.94375 -0.33067,0 -3.146817,2.28079 -4.252132,3.44378 -0.954441,1.00425 -0.993401,1.09556 -0.396875,0.93015 2.036845,-0.56478 6.672207,-2.76667 7.024567,-3.33682 0.24103,-0.38999 1.07196,-0.2817 1.68552,0.21967 0.52651,0.43024 0.53727,0.50461 0.15203,1.05058 -0.22803,0.32315 -0.88668,0.72899 -1.46366,0.90186 l -1.04905,0.31431 1.32321,0.8911 c 1.44689,0.97439 1.43842,0.96115 1.06338,1.66192 -0.25124,0.46943 -0.31475,0.46824 -1.91823,-0.0359 -4.195831,-1.31932 -8.560189,-0.17842 -12.496477,3.26675 -1.013239,0.88682 -2.079667,1.91422 -2.369841,2.28311 -0.519232,0.6601 -0.519388,0.66827 -0.0098,0.51557 1.762391,-0.52813 6.421473,-2.66538 7.234282,-3.31857 0.531884,-0.42744 1.487959,-1.0429 2.124612,-1.36769 0.942035,-0.48059 1.275971,-0.53658 1.793607,-0.30073 0.884587,0.40304 0.52998,0.91642 -1.396031,2.02106 l -1.565797,0.89805 1.455208,0.002 c 0.800365,10e-4 2.224847,-0.1587 3.165527,-0.35571 1.28298,-0.2687 1.8299,-0.28385 2.18888,-0.0606 0.77995,0.48499 0.41965,1.06856 -0.85885,1.39107 -1.23663,0.31194 -1.2128,0.33993 0.7961,0.93504 0.89985,0.26657 1.21128,0.4981 1.27518,0.94802 0.0708,0.49867 -0.0387,0.59531 -0.67452,0.59531 -0.41749,0 -1.88009,-0.35146 -3.25023,-0.78102 -1.370133,-0.42956 -2.525947,-0.74623 -2.56847,-0.7037 -0.04252,0.0425 0.280706,0.57154 0.718285,1.1756 1.738505,2.39994 0.414506,2.6162 -1.892569,0.30912 -1.391193,-1.39119 -1.713623,-1.5875 -2.607442,-1.5875 -0.560968,0 -1.355115,0.13133 -1.764771,0.29184 -0.705419,0.27639 -0.715688,0.30306 -0.194081,0.50415 0.677639,0.26124 1.962795,1.75103 1.962795,2.27533 0,0.63668 -0.728347,0.71512 -1.511963,0.16282 -0.405348,-0.28569 -1.530433,-0.78567 -2.50019,-1.11106 -1.98114,-0.66475 -2.792551,-0.54548 -4.59075,0.67481 -1.217947,0.82652 -2.672479,1.43545 -3.428823,1.43545 -0.32451,0 -0.994579,-0.29371 -1.489042,-0.65268 z"
       id="path11665" />
    <path
       style="fill:#5a9b88"
       d="m 82.450343,100.38363 c 1.186062,-1.069846 1.274831,-1.667566 0.49307,-3.320073 -0.371382,-0.785038 -0.67253,-1.594448 -0.669216,-1.798687 0.0033,-0.20424 0.207256,0.03724 0.453206,0.536626 0.245949,0.499384 0.879647,1.362587 1.408216,1.918229 0.74752,0.785806 1.161183,1.00993 1.861898,1.008782 2.310414,-0.0038 4.313738,-1.254042 4.642384,-2.897274 0.08981,-0.449036 0.279725,-0.888392 0.422041,-0.976348 0.313579,-0.193802 0.0712,0.720077 -0.536537,2.023015 -0.251016,0.538153 -0.436148,1.626323 -0.441983,2.597887 -0.01115,1.856533 0.206263,1.740903 -2.126708,1.131003 -1.526948,-0.39919 -4.376833,-0.33977 -5.159375,0.10757 -1.060437,0.6062 -1.218591,0.45546 -0.346996,-0.33073 z"
       id="path11629" />
    <path
       style="fill:#5a9b88"
       d="m 80.653654,137.50022 c -0.494463,-0.35897 -1.186389,-0.86167 -1.537613,-1.11712 -0.351224,-0.25544 -1.184661,-0.52728 -1.852083,-0.60409 -0.993549,-0.11434 -1.464864,-0.004 -2.60037,0.60664 -1.373825,0.73927 -2.449495,0.85311 -2.638241,0.2792 -0.178241,-0.54196 1.249053,-1.95154 1.976068,-1.95154 0.974482,0 0.546136,-0.29597 -0.779048,-0.5383 -1.331811,-0.24354 -1.750461,-0.0621 -4.638262,2.0099 -1.102912,0.79135 -2.106595,1.43882 -2.230405,1.43882 -0.423711,0 -0.225556,-1.10659 0.323042,-1.80402 0.377963,-0.4805 0.448451,-0.7301 0.227031,-0.8039 -0.176617,-0.0589 0.07098,-0.27191 0.550217,-0.47341 0.479236,-0.20151 0.798048,-0.43967 0.708471,-0.52924 -0.08958,-0.0896 -0.554077,0.01 -1.032223,0.22086 -0.478146,0.21104 -1.345607,0.37546 -1.92769,0.36536 -0.855219,-0.0148 -1.073123,-0.12165 -1.135398,-0.55657 -0.102793,-0.71788 1.020175,-1.10974 3.847377,-1.34252 1.200547,-0.0988 2.182813,-0.25462 2.182813,-0.34617 0,-0.0915 -0.565547,-0.46655 -1.256771,-0.83334 -0.827375,-0.43905 -1.285658,-0.86638 -1.341319,-1.25073 -0.0465,-0.3211 0.04503,-0.58382 0.203407,-0.58382 0.588116,0 4.017667,1.31198 4.715029,1.80374 1.329637,0.93763 4.823403,2.52532 4.823403,2.19193 0,-0.11586 -0.696402,-0.94253 -1.54756,-1.83703 -1.204783,-1.26613 -2.062225,-1.86755 -3.871157,-2.71524 -2.773537,-1.29972 -3.301798,-1.27599 -5.725322,0.25726 -2.886644,1.82623 -3.884537,2.25993 -4.336592,1.88476 -0.216902,-0.18001 -0.394368,-0.44549 -0.394368,-0.58994 0,-0.35508 1.876116,-2.05381 2.268266,-2.05381 0.172025,0 0.47618,-0.20089 0.6759,-0.44642 0.316369,-0.38893 0.305998,-0.42502 -0.08055,-0.28031 -0.2473,0.0926 -0.583685,-0.003 -0.760001,-0.21504 -0.173978,-0.20963 -0.510105,-0.38159 -0.746948,-0.38214 -0.236844,-5.4e-4 -0.82546,-0.24171 -1.308036,-0.53593 -0.641109,-0.39087 -0.85488,-0.69344 -0.79375,-1.12349 0.07141,-0.50236 0.27198,-0.60053 1.369712,-0.67039 1.048519,-0.0667 1.477001,0.0505 2.319897,0.63462 1.175403,0.81456 1.564488,0.70107 0.927809,-0.27063 -0.448795,-0.68495 -0.587646,-2.13954 -0.225593,-2.3633 0.113917,-0.0704 0.852276,0.51788 1.640798,1.3073 0.788522,0.78942 1.642578,1.43531 1.897901,1.43531 0.255324,0 1.079204,0.36261 1.830845,0.80579 0.751641,0.44318 1.408251,0.76416 1.459133,0.71327 0.158905,-0.1589 -2.174538,-3.46722 -2.970881,-4.21206 -0.416694,-0.38975 -1.359508,-1.00944 -2.09514,-1.3771 -1.568578,-0.78394 -2.763528,-1.82151 -2.763528,-2.39956 0,-0.64465 1.379168,-0.50077 2.501679,0.26099 0.543413,0.36877 0.945808,0.57712 0.894212,0.46302 -0.0516,-0.11411 -0.346343,-0.74325 -0.654992,-1.3981 -0.887299,-1.88253 -0.982763,-2.3618 -0.506814,-2.54444 0.557391,-0.21389 1.126987,0.29473 1.792579,1.6007 0.639651,1.25507 2.88415,4.70868 2.985596,4.59393 0.03808,-0.0431 -0.04451,-1.43514 -0.183529,-3.09347 -0.257468,-3.07125 -0.136612,-3.62383 0.72063,-3.29488 0.388377,0.14903 0.941656,2.72019 0.746192,3.46764 -0.261273,0.99911 0.414506,0.88107 1.090996,-0.19055 1.292361,-2.04724 1.893942,-0.97583 0.771129,1.37337 -0.420733,0.88028 -0.767837,1.67333 -0.771341,1.76233 -0.0035,0.089 -0.16371,0.71275 -0.356013,1.3861 -0.339458,1.1886 -0.323856,1.2726 0.535537,2.88357 0.675525,1.2663 5.269394,6.87237 5.631531,6.87237 0.03588,0 -0.245074,-0.94471 -0.62434,-2.09935 -0.614715,-1.87145 -0.849228,-2.23767 -2.160235,-3.37344 -1.331064,-1.15315 -2.66757,-3.30232 -2.289022,-3.68087 0.284268,-0.28427 1.565411,0.25451 2.35166,0.98898 0.454486,0.42455 0.860653,0.7376 0.902592,0.69566 0.04194,-0.0419 -0.02893,-0.55146 -0.157482,-1.13226 -0.347096,-1.56816 -1.053507,-5.7564 -1.051488,-6.23417 9.66e-4,-0.22862 -0.831682,-1.4024 -1.850327,-2.60841 -1.977301,-2.341 -2.381424,-3.45822 -1.250909,-3.45822 0.330646,0 1.024357,0.34882 1.541581,0.77516 l 0.940406,0.77516 -0.107356,-1.37047 c -0.07112,-0.90789 0.01715,-1.53633 0.261516,-1.86182 0.35195,-0.4688 0.390514,-0.45831 0.840642,0.22867 0.380922,0.58136 0.454044,1.14728 0.379716,2.93878 -0.05063,1.22032 -0.02809,2.21874 0.05008,2.21872 0.07817,-2e-5 0.159194,-0.22653 0.180047,-0.50335 0.02085,-0.27682 0.270127,-1.02096 0.553945,-1.65365 0.283817,-0.63268 0.597773,-1.41822 0.697679,-1.74564 0.215356,-0.70579 1.324097,-0.82514 1.575645,-0.16962 0.09217,0.24021 -0.356652,1.57551 -1.030026,3.06444 -1.199006,2.65117 -1.380736,3.708 -0.96364,5.60397 0.152602,0.69367 0.20918,0.61749 0.650711,-0.87609 0.265968,-0.8997 0.652921,-1.7008 0.859896,-1.78022 0.206975,-0.0794 0.376318,-0.41475 0.376318,-0.74516 0,-0.68919 0.632912,-1.32535 1.057506,-1.06294 0.157815,0.0975 0.209438,0.42151 0.114719,0.71995 -0.153998,0.4852 -0.06987,0.46454 0.795192,-0.19527 0.704913,-0.53767 1.046561,-0.65873 1.259119,-0.44617 0.212558,0.21256 0.175209,0.46951 -0.137645,0.94699 -0.303454,0.46312 -0.338554,0.68554 -0.119702,0.75849 0.17031,0.0568 -0.497202,0.86634 -1.483361,1.79904 -2.30421,2.1793 -2.640331,2.95428 -2.430395,5.6036 0.08901,1.12331 0.266497,2.31393 0.394411,2.64584 0.223907,0.58098 0.23929,0.58374 0.412889,0.0743 0.09918,-0.29104 0.289694,-0.80266 0.423376,-1.13693 0.133682,-0.33426 0.243058,-0.85881 0.243058,-1.16565 0,-0.30684 0.276656,-0.92631 0.61479,-1.37661 0.338135,-0.4503 0.691585,-1.02708 0.785446,-1.28174 0.277815,-0.75377 0.677444,-0.53206 0.964848,0.53527 0.223684,0.8307 0.161262,1.31619 -0.371807,2.89181 -0.352342,1.04143 -0.885438,2.3734 -1.184658,2.95991 -0.671482,1.31622 -0.678692,1.9306 -0.0465,3.96186 0.273647,0.87923 0.42446,1.69351 0.335139,1.80951 -0.08932,0.116 -0.008,0.0783 0.180704,-0.0837 1.011324,-0.86835 3.180884,-12.16282 3.749881,-19.52143 0.378066,-4.88937 0.344928,-6.64249 -0.133057,-7.03918 -0.218281,-0.18116 -0.396875,-0.51003 -0.396875,-0.73083 0,-0.2208 -0.185999,-0.53747 -0.413331,-0.70369 -0.319794,-0.23384 0.184021,-0.30032 2.226297,-0.29376 2.88874,0.009 2.880967,2e-4 1.257527,1.47062 -0.759656,0.68805 -0.767767,0.72738 -0.984727,4.77519 -0.234456,4.37422 -0.640107,8.2714 -1.016939,9.76997 -0.128075,0.50932 -0.308498,1.58088 -0.40094,2.38125 -0.09244,0.80036 -0.284781,2.06009 -0.427422,2.79939 -0.466139,2.41597 -0.952256,7.00961 -0.754706,7.13171 0.106191,0.0656 0.874603,-0.72419 1.70758,-1.75515 l 1.514505,-1.87447 -0.291686,-1.4971 c -0.418779,-2.1494 -0.595965,-4.8802 -0.342354,-5.27636 0.318748,-0.49791 1.006996,-0.12962 1.362739,0.72922 0.170496,0.41161 0.31352,1.71275 0.317832,2.89141 0.0043,1.17866 0.05133,2.14301 0.104495,2.14301 0.174435,0 1.110052,-2.22514 1.4147,-3.36453 0.197989,-0.74048 0.211477,-1.27426 0.04011,-1.5875 -0.828513,-1.51449 -1.609517,-3.3629 -1.609517,-3.80926 0,-0.28365 0.175555,-0.5831 0.390122,-0.66543 0.528406,-0.20277 1.956346,0.96397 1.984534,1.62152 0.02183,0.50928 0.0335,0.51054 0.310684,0.0334 0.190178,-0.32737 0.22243,-1.27098 0.09495,-2.77813 -0.372057,-4.39881 -0.326185,-5.25148 0.317109,-5.8945 l 0.583861,-0.58361 0.276035,0.72603 c 0.151819,0.39932 0.278746,1.16476 0.28206,1.70099 l 0.006,0.97496 0.417452,-0.84658 c 0.229599,-0.46563 0.804568,-1.29442 1.277709,-1.84176 0.825316,-0.95475 0.872058,-0.97312 1.1508,-0.45229 0.429706,0.80292 -0.194557,2.591 -1.643422,4.70729 -1.482421,2.16529 -1.586604,2.75343 -0.354692,2.00232 0.472942,-0.28836 1.023607,-0.52474 1.223698,-0.52528 0.520088,-0.001 0.189487,1.44075 -0.49991,2.18073 -0.565155,0.60662 -3.171184,5.57204 -3.171184,6.04224 0,0.43385 1.907235,-1.23205 2.910417,-2.54213 0.509322,-0.66515 1.174198,-1.53105 1.477501,-1.92424 0.303303,-0.39318 0.824469,-1.60785 1.158148,-2.69925 1.100527,-3.59965 1.061062,-3.52835 1.655368,-2.99051 0.526982,0.47691 0.546246,1.45353 0.05881,2.9816 -0.184136,0.57726 -0.08838,0.53594 0.829861,-0.35812 0.973333,-0.94771 3.197283,-2.27881 3.807343,-2.27881 0.15036,0 0.27338,0.34922 0.27338,0.77604 0,0.59494 -0.26877,0.99627 -1.15173,1.71979 -0.63345,0.51907 -1.23781,0.94375 -1.34301,0.94375 -0.33067,0 -3.146819,2.28079 -4.252134,3.44378 -0.954441,1.00425 -0.993401,1.09556 -0.396875,0.93015 2.036845,-0.56478 6.672209,-2.76667 7.024569,-3.33682 0.24103,-0.38999 1.07196,-0.2817 1.68552,0.21967 0.52651,0.43024 0.53727,0.50461 0.15203,1.05058 -0.22803,0.32315 -0.88668,0.72899 -1.46366,0.90186 l -1.04905,0.31431 1.32321,0.8911 c 1.44689,0.97439 1.43842,0.96115 1.06338,1.66192 -0.25124,0.46943 -0.31475,0.46824 -1.91823,-0.0359 -4.195833,-1.31932 -8.560191,-0.17842 -12.496479,3.26675 -1.013239,0.88682 -2.079667,1.91422 -2.369841,2.28311 -0.519232,0.6601 -0.519388,0.66827 -0.0098,0.51557 1.762391,-0.52813 6.421473,-2.66538 7.234282,-3.31857 0.531884,-0.42744 1.487959,-1.0429 2.124612,-1.36769 0.942035,-0.48059 1.275971,-0.53658 1.793607,-0.30073 0.884589,0.40304 0.52998,0.91642 -1.396031,2.02106 l -1.565797,0.89805 1.455208,0.002 c 0.800365,10e-4 2.224849,-0.1587 3.165529,-0.35571 1.28298,-0.2687 1.8299,-0.28385 2.18888,-0.0606 0.77995,0.48499 0.41965,1.06856 -0.85885,1.39107 -1.23663,0.31194 -1.2128,0.33993 0.7961,0.93504 0.89985,0.26657 1.21128,0.4981 1.27518,0.94802 0.0708,0.49867 -0.0387,0.59531 -0.67452,0.59531 -0.41749,0 -1.88009,-0.35146 -3.25023,-0.78102 -1.370135,-0.42956 -2.525949,-0.74623 -2.568472,-0.7037 -0.04252,0.0425 0.280706,0.57154 0.718285,1.1756 1.738507,2.39994 0.414506,2.6162 -1.892569,0.30912 -1.391193,-1.39119 -1.713623,-1.5875 -2.607442,-1.5875 -0.560968,0 -1.355115,0.13133 -1.764771,0.29184 -0.705419,0.27639 -0.715688,0.30306 -0.194081,0.50415 0.677639,0.26124 1.962795,1.75103 1.962795,2.27533 0,0.63668 -0.728347,0.71512 -1.511963,0.16282 -0.405348,-0.28569 -1.530433,-0.78567 -2.50019,-1.11106 -1.98114,-0.66475 -2.792551,-0.54548 -4.59075,0.67481 -1.217947,0.82652 -2.672479,1.43545 -3.428823,1.43545 -0.32451,0 -0.994579,-0.29371 -1.489042,-0.65268 z"
       id="path11624" />
    <path
       style="fill:#478c79"
       d="m 82.450343,100.38363 c 1.186062,-1.069846 1.274831,-1.667566 0.49307,-3.320073 -0.371382,-0.785038 -0.67253,-1.594448 -0.669216,-1.798687 0.0033,-0.20424 0.207256,0.03724 0.453206,0.536626 0.245949,0.499384 0.879647,1.362587 1.408216,1.918229 0.74752,0.785806 1.161183,1.00993 1.861898,1.008782 2.310414,-0.0038 4.313738,-1.254042 4.642384,-2.897274 0.08981,-0.449036 0.279725,-0.888392 0.422041,-0.976348 0.313579,-0.193802 0.0712,0.720077 -0.536537,2.023015 -0.251016,0.538153 -0.436148,1.626323 -0.441983,2.597887 -0.01115,1.856533 0.206263,1.740903 -2.126708,1.131003 -1.526948,-0.39919 -4.376833,-0.33977 -5.159375,0.10757 -1.060437,0.6062 -1.218591,0.45546 -0.346996,-0.33073 z"
       id="path10715" />
    <path
       style="fill:#478c79"
       d="m 76.443288,112.68675 c -0.0033,-0.48139 -0.05313,-0.51936 -0.260532,-0.19843 -0.18637,0.28838 -0.257588,0.3022 -0.260532,0.0505 -0.0022,-0.19049 -0.123114,-0.27276 -0.268635,-0.18283 -0.384886,0.23788 -0.324284,-0.74325 0.08007,-1.29623 0.282238,-0.38599 0.39537,-0.40712 0.624744,-0.11672 0.379408,0.48036 0.64711,2.339 0.336888,2.339 -0.136372,0 -0.249772,-0.2679 -0.252,-0.59532 z"
       id="path10712" />
    <path
       style="fill:#478c79"
       d="m 75.841414,117.51503 c -0.07616,-0.29124 -0.03052,-0.46281 0.101433,-0.38126 0.13195,0.0816 0.239909,0.0142 0.239909,-0.14975 0,-0.16392 -0.208359,-0.23874 -0.463021,-0.16627 -0.323602,0.0921 -0.781693,-0.27011 -1.521354,-1.20284 -1.703355,-2.148 -1.898288,-2.52477 -1.508125,-2.91493 0.271885,-0.27188 0.473616,-0.25636 1.054457,0.0811 0.395038,0.22953 0.688486,0.55521 0.652105,0.72372 -0.03638,0.16852 0.02315,0.27755 0.132292,0.2423 0.294065,-0.095 1.282217,0.6654 1.458654,1.12243 0.102039,0.26431 0.160193,0.19492 0.174104,-0.20775 0.01149,-0.33254 -0.182002,-0.91427 -0.429979,-1.29273 -0.448118,-0.68392 -0.447312,-0.68589 0.132292,-0.32392 0.320737,0.2003 0.601293,0.5439 0.623458,0.76356 0.04053,0.40163 0.122685,0.81537 0.210654,1.06084 0.169519,0.47302 0.179297,1.82218 0.01246,1.71906 -0.112017,-0.0692 -0.198354,0.0217 -0.191859,0.20201 0.04531,1.25812 -0.410465,1.74545 -0.677479,0.72439 z"
       id="path10710" />
    <path
       style="fill:#478c79"
       d="m 67.570333,119.8305 c -0.09978,-0.32742 -0.353684,-0.79185 -0.564232,-1.03206 -0.246202,-0.28089 -0.285864,-0.49668 -0.111142,-0.60466 0.22374,-0.13828 1.350297,1.60475 1.350297,2.0892 0,0.40859 -0.518441,0.061 -0.674923,-0.45248 z"
       id="path10706" />
    <path
       style="fill:#478c79"
       d="m 79.267915,121.36708 c -0.112598,-0.29343 -0.06677,-0.3766 0.137834,-0.25014 0.203497,0.12576 0.250825,0.0443 0.140817,-0.24237 -0.09113,-0.2375 -0.05184,-0.50218 0.08733,-0.58819 0.139166,-0.086 0.253028,-0.034 0.253028,0.11552 0,0.14954 0.20836,0.20711 0.463021,0.12793 0.434216,-0.13501 0.43474,-0.12574 0.0084,0.14902 -0.250025,0.16115 -0.559708,0.48082 -0.688183,0.7104 -0.21042,0.376 -0.250326,0.3738 -0.402275,-0.0222 z"
       id="path10704" />
    <path
       style="fill:#478c79"
       d="m 68.067951,121.90292 c 0.07914,-0.20624 -0.03337,-0.443 -0.250018,-0.52614 -0.24327,-0.0934 -0.325393,-0.0403 -0.214743,0.13874 0.206804,0.33462 -0.990579,0.0315 -1.210017,-0.30635 -0.07276,-0.11201 -0.191823,-0.20348 -0.264583,-0.20327 -0.07276,2.2e-4 -0.518492,-0.21951 -0.990515,-0.48828 -0.824099,-0.46925 -1.248146,-1.6793 -0.588487,-1.6793 0.610405,0 2.047964,0.76856 2.910721,1.55616 0.865224,0.78985 1.283576,1.88342 0.720515,1.88342 -0.141221,0 -0.192014,-0.16874 -0.112873,-0.37498 z"
       id="path10700" />
    <path
       style="fill:#478c79"
       d="m 71.869928,123.51197 c -0.229759,-0.35066 -0.351509,-0.89084 -0.270557,-1.2004 0.09164,-0.35043 0.02346,-0.56284 -0.180653,-0.56284 -0.253001,0 -0.248829,-0.0952 0.01827,-0.41704 0.27589,-0.33243 0.278795,-0.45864 0.01431,-0.6221 -0.383729,-0.23716 -0.760054,-4.78401 -0.395427,-4.77764 0.678323,0.0118 0.905718,0.53541 0.925788,2.13159 0.01176,0.93545 0.158147,1.8725 0.3253,2.08233 0.22891,0.28737 0.228822,0.33652 -3.57e-4,0.19918 -0.206497,-0.12375 -0.304271,0.12066 -0.304271,0.7606 0,0.51862 0.06562,0.87732 0.145818,0.79712 0.0802,-0.0802 0.286575,0.0467 0.458612,0.28196 0.287627,0.39335 0.312793,0.39302 0.312793,-0.004 0,-0.23753 -0.09922,-0.43188 -0.220486,-0.43188 -0.408306,0 -0.224791,-0.70784 0.30868,-1.19062 0.291042,-0.26339 0.529167,-0.74352 0.529167,-1.06695 0,-0.78166 0.740735,-1.43131 1.054019,-0.92441 0.248667,0.40235 0.06908,1.06532 -0.288577,1.06532 -0.129952,0 -0.236276,0.27384 -0.236276,0.60854 0,0.33469 -0.135628,0.74417 -0.301396,0.90993 -0.165767,0.16577 -0.4453,0.86815 -0.621182,1.56085 -0.374637,1.47547 -0.698137,1.67882 -1.273583,0.80058 z"
       id="path10694" />
    <path
       style="fill:#478c79"
       d="m 66.228901,125.79982 c -0.690305,-0.13555 -1.574003,-1.68904 -1.326983,-2.33277 0.171426,-0.44673 0.202289,-0.44669 0.696782,8.2e-4 0.284576,0.25754 0.451838,0.57435 0.371692,0.70403 -0.08015,0.12968 -0.04757,0.21873 0.07239,0.19789 0.597079,-0.10372 0.879562,0.0742 0.879562,0.55394 0,0.29398 0.176389,0.52917 0.396875,0.52917 0.218281,0 0.396875,0.11906 0.396875,0.26458 0,0.26484 -0.435069,0.28893 -1.487189,0.0823 z"
       id="path10690" />
    <path
       style="fill:#478c79"
       d="m 67.627895,126.864 c -0.331986,-0.33199 -0.176798,-0.67413 0.234228,-0.51641 0.23546,0.0904 0.341662,0.046 0.248969,-0.10398 -0.09306,-0.15058 0.181766,-0.26156 0.647716,-0.26156 1.022282,0 1.017526,0.12199 -0.02504,0.64208 -0.969372,0.48359 -0.881266,0.46448 -1.105878,0.23987 z"
       id="path10686" />
    <path
       style="fill:#478c79"
       d="m 63.74734,127.65657 c 0,-0.0885 0.208359,-0.32908 0.463021,-0.53456 0.420804,-0.33953 0.402711,-0.35549 -0.198438,-0.17506 -1.45271,0.43602 -3.175,-0.21793 -3.175,-1.20554 0,-0.55631 0.943079,-0.78994 2.248959,-0.55712 0.789544,0.14076 1.076909,0.74135 0.538019,1.12445 -0.178397,0.12682 -0.163053,0.1958 0.04415,0.19844 0.17467,0.002 0.43894,-0.20431 0.587267,-0.45897 0.251895,-0.43248 0.270215,-0.43303 0.27773,-0.008 0.0044,0.25009 0.156874,0.41843 0.338775,0.37409 0.181901,-0.0443 0.241432,-0.0307 0.132292,0.0303 -0.372355,0.20824 -0.199685,0.57992 0.198437,0.42715 0.219523,-0.0842 0.396875,-0.008 0.396875,0.17145 0,0.19349 -0.212913,0.26807 -0.529167,0.18537 -0.291041,-0.0761 -0.529166,-0.0432 -0.529166,0.0731 0,0.11633 -0.178594,0.28004 -0.396875,0.36381 -0.218281,0.0838 -0.396875,0.0799 -0.396875,-0.009 z"
       id="path10682" />
    <path
       style="fill:#478c79"
       d="m 72.610881,129.36998 c -0.722513,-0.40971 -0.942854,-0.79999 -0.650524,-1.15222 0.161299,-0.19436 0.114818,-0.29551 -0.135788,-0.29551 -0.209569,0 -0.328081,0.0857 -0.263358,0.19041 0.229695,0.37165 -0.917727,0.4534 -1.385429,0.0987 -0.379749,-0.28799 -0.395521,-0.36298 -0.07844,-0.37294 0.352777,-0.0111 0.352777,-0.0438 0,-0.29407 -0.297604,-0.21117 -0.119779,-0.25011 0.710921,-0.15566 0.609288,0.0693 1.163129,0.0706 1.230758,0.003 0.16146,-0.16146 -2.041986,-3.44876 -2.951719,-4.40364 -0.719175,-0.75487 -0.758027,-0.96428 -0.238479,-1.28538 0.203576,-0.12582 0.191402,-0.29521 -0.04137,-0.57568 -0.181402,-0.21858 -0.298384,-0.55507 -0.25996,-0.74777 0.07964,-0.3994 -0.768234,-2.11412 -1.175053,-2.3764 -0.1484,-0.0957 -0.422181,-0.11549 -0.608403,-0.044 -0.220288,0.0845 -0.40154,-0.20566 -0.518774,-0.83057 -0.0991,-0.52827 -0.123407,-1.01727 -0.05401,-1.08667 0.314753,-0.31476 1.066244,0.31105 1.570659,1.30796 0.303845,0.60052 0.782552,1.41846 1.063793,1.81765 0.281241,0.39919 0.425198,0.87544 0.319905,1.05833 -0.105293,0.1829 -0.09361,0.24387 0.02596,0.13551 0.119571,-0.10837 0.479914,0.18928 0.800761,0.66145 0.61563,0.90598 0.705581,1.4061 0.244575,1.35982 -0.152521,-0.0153 -0.295286,0.21079 -0.317257,0.50246 -0.02749,0.36497 0.0453,0.44506 0.233476,0.25689 0.391304,-0.39131 1.24165,-0.101 1.428491,0.48768 0.08739,0.27533 0.266865,0.5006 0.398843,0.5006 0.330106,0 1.047298,1.4405 1.047298,2.10353 0,0.29827 0.126089,0.5423 0.280198,0.5423 0.154109,0 0.211067,0.11186 0.126572,0.24858 -0.08449,0.13671 0.129586,0.52367 0.475734,0.85989 0.702419,0.68229 1.089916,1.53737 0.696692,1.53737 -0.140954,0 -0.484482,-0.22821 -0.763397,-0.50712 -0.278915,-0.27892 -0.582864,-0.43137 -0.675443,-0.33879 -0.09258,0.0926 -0.08976,-0.0364 0.0063,-0.28664 0.0965,-0.25147 0.05084,-0.45495 -0.102096,-0.45495 -0.152173,0 -0.356219,-0.53041 -0.453435,-1.17869 -0.09721,-0.64829 -0.327548,-1.38492 -0.51185,-1.63697 -0.309785,-0.42365 -0.349604,-0.41255 -0.527197,0.147 -0.107545,0.33884 -0.07059,0.72677 0.08396,0.88132 0.191695,0.1917 0.234594,0.0825 0.140371,-0.35736 -0.121181,-0.56568 -0.102856,-0.58179 0.171347,-0.15056 0.168872,0.26557 0.246516,0.54339 0.172541,0.61736 -0.07398,0.074 0.02333,0.50986 0.216226,0.96863 0.226749,0.53928 0.26579,0.99284 0.110446,1.2831 -0.182233,0.34051 -0.112491,0.48953 0.288688,0.61686 0.290932,0.0923 0.528967,0.27892 0.528967,0.41464 0,0.30236 -0.0072,0.30161 -0.661458,-0.0694 z"
       id="path10674" />
    <path
       style="fill:#478c79"
       d="m 61.630673,130.63628 c 0,-0.42897 0.180152,-0.76689 0.463021,-0.86851 0.254662,-0.0915 0.685513,-0.3956 0.957447,-0.6758 0.271934,-0.2802 0.70951,-0.45321 0.972392,-0.38446 0.290882,0.0761 0.431885,0.005 0.360239,-0.1818 -0.151958,-0.396 1.225778,-1.19384 1.744818,-1.01043 0.344052,0.12158 0.347305,0.0802 0.02444,-0.31087 -0.264636,-0.32054 -0.290454,-0.53309 -0.0892,-0.73434 0.324333,-0.32434 0.860481,-0.0812 0.854455,0.38742 -0.0024,0.18934 -0.106423,0.1567 -0.260532,-0.0818 -0.219187,-0.33916 -0.257069,-0.32955 -0.260531,0.0661 -0.0034,0.38534 0.240089,0.46302 1.451156,0.46302 0.800365,0 1.425443,-0.0893 1.389063,-0.19844 -0.07821,-0.23463 0.158928,-0.33223 0.79375,-0.32667 0.3947,0.003 0.40446,0.0411 0.06615,0.25493 -0.218282,0.13798 -0.396875,0.39413 -0.396875,0.56921 0,0.17508 -0.165402,0.37347 -0.367558,0.44085 -0.223104,0.0744 -0.294955,0.005 -0.182823,-0.17639 0.287878,-0.46579 -0.788625,-0.36085 -1.18389,0.11542 -0.514696,0.62017 -1.808703,1.22033 -2.176104,1.00928 -0.177627,-0.10204 -0.237665,-0.0911 -0.133417,0.0244 0.104248,0.11546 -0.281675,0.55126 -0.857605,0.96847 -1.074106,0.77807 -1.758923,0.99607 -1.423338,0.45308 0.117906,-0.19077 0.07248,-0.23358 -0.120992,-0.11401 -0.170379,0.1053 -0.24899,0.28982 -0.174692,0.41003 0.0743,0.12022 -0.05256,0.29059 -0.281907,0.3786 -0.605107,0.2322 -0.693617,0.20011 -0.470833,-0.17072 0.13501,-0.22472 0.05521,-0.21434 -0.248969,0.0324 -0.399259,0.32386 -0.447664,0.2872 -0.447664,-0.33903 z m 4.951025,-2.36961 c 0.282661,0.0739 0.662835,-0.0509 0.853072,-0.28015 0.305499,-0.36811 0.20276,-0.39699 -0.93585,-0.26308 -1.392215,0.16374 -1.693247,0.27909 -1.693247,0.64885 0,0.14636 0.250865,0.14704 0.633063,0.002 0.348185,-0.13238 0.862517,-0.18069 1.142962,-0.10735 z"
       id="path10669" />
    <path
       style="fill:#478c79"
       d="m 68.50984,131.12982 -0.661459,-0.38965 0.727604,0.16313 c 0.454238,0.10184 0.727605,0.0529 0.727605,-0.13014 0,-0.1613 -0.231099,-0.29327 -0.513552,-0.29327 -0.282454,0 -0.588337,-0.121 -0.679741,-0.2689 -0.0914,-0.14789 -0.29542,-0.18903 -0.45337,-0.0914 -0.166106,0.10266 -0.211502,0.055 -0.107675,-0.11296 0.126126,-0.20408 0.529712,-0.16065 1.357182,0.14603 0.760915,0.28202 1.062977,0.50935 0.853562,0.64239 -0.217452,0.13815 -0.149971,0.20858 0.205052,0.21402 0.438931,0.007 0.46149,0.0518 0.132292,0.26458 -0.53034,0.34273 -0.803568,0.31798 -1.5875,-0.14382 z"
       id="path10668" />
    <path
       style="fill:#478c79"
       d="m 98.672338,132.31464 c -0.860866,-0.16509 -0.828279,-0.18237 0.463021,-0.24549 2.126781,-0.10397 2.289811,-0.12611 2.660871,-0.36145 0.42693,-0.27077 1.71484,0.0223 1.51549,0.34485 -0.0796,0.12883 0.005,0.29453 0.18762,0.36823 0.20708,0.0835 0.21992,0.14188 0.034,0.15489 -0.16408,0.0115 -0.44448,-0.1552 -0.62309,-0.37043 -0.214,-0.25784 -0.47322,-0.31522 -0.76001,-0.16822 -0.6551,0.3358 -2.434066,0.4778 -3.477942,0.27762 z"
       id="path10664" />
    <path
       style="fill:#478c79"
       d="m 86.488873,133.93297 c 0.211333,-0.13369 0.470996,-0.18946 0.57703,-0.12392 0.106033,0.0655 0.2758,-0.0152 0.377259,-0.17933 0.101459,-0.16417 0.0298,-0.39407 -0.159234,-0.51091 -0.274465,-0.16963 -0.253059,-0.35076 0.10626,-0.89915 0.313485,-0.47844 0.375903,-0.82636 0.205785,-1.14706 -0.134299,-0.25318 -0.330654,-1.74025 -0.436345,-3.3046 -0.164958,-2.44157 -0.135769,-2.84427 0.206167,-2.84427 0.786789,0 1.211126,1.56408 1.094312,4.03356 -0.108557,2.29492 -0.105125,2.31007 0.421183,1.85943 0.291848,-0.24989 0.530632,-0.59042 0.530632,-0.75673 0,-0.16632 0.265698,-0.64018 0.590441,-1.05302 0.324743,-0.41284 0.439033,-0.65705 0.253978,-0.54268 -0.255674,0.15802 -0.293363,0.0279 -0.156965,-0.54183 0.09872,-0.41237 0.291579,-0.96803 0.428568,-1.2348 0.180154,-0.35083 0.124543,-0.62263 -0.200981,-0.98233 -0.271277,-0.29976 -0.3792,-0.68194 -0.271688,-0.96212 0.0981,-0.25564 0.0908,-0.37724 -0.01623,-0.27022 -0.264828,0.26483 -1.413941,-2.16989 -1.239129,-2.62544 0.174313,-0.45425 1.13076,-0.48095 1.170456,-0.0327 0.01611,0.1819 0.03405,0.56885 0.03988,0.85989 0.0086,0.43006 0.03134,0.44245 0.121407,0.0662 0.118396,-0.49468 0.867764,-0.65256 0.867764,-0.18282 0,0.15411 -0.119063,0.20661 -0.264584,0.11667 -0.14552,-0.0899 -0.264583,-0.0445 -0.264583,0.10107 0,0.14552 0.121005,0.33936 0.268899,0.43077 0.147895,0.0914 0.195958,0.28421 0.106807,0.42846 -0.08915,0.14425 -0.01975,0.6059 0.154216,1.0259 0.275303,0.66464 0.381507,0.72292 0.819235,0.44955 0.626139,-0.39103 0.654131,-0.76508 0.0495,-0.66141 -0.262983,0.0451 -0.493947,-0.11963 -0.549898,-0.39218 -0.05306,-0.25847 0.0022,-0.45273 0.1227,-0.43169 0.120543,0.021 0.397763,0.0223 0.616044,0.003 0.293155,-0.0261 0.312195,-0.0892 0.07285,-0.24124 -0.208095,-0.13221 -0.331467,-0.95905 -0.344829,-2.31106 -0.02782,-2.81464 -0.259058,-4.512 -0.551765,-4.0501 -0.154905,0.24444 -0.227457,0.10653 -0.229552,-0.43634 -0.0038,-0.98267 0.98106,-2.69161 1.342727,-2.32994 0.139836,0.13983 0.271987,0.92847 0.293668,1.75253 0.02168,0.82406 0.08724,1.45047 0.145683,1.39202 0.05844,-0.0584 0.380388,-0.62282 0.715432,-1.25419 0.335043,-0.63136 0.841378,-1.26792 1.125189,-1.41458 0.283811,-0.14665 0.466721,-0.41455 0.406467,-0.59531 -0.06025,-0.18076 0.07896,-0.32866 0.30937,-0.32866 0.949117,0 0.214631,2.66377 -1.290306,4.67958 -0.522936,0.70045 -0.92915,1.33308 -0.902698,1.40584 0.02645,0.0728 -0.158784,0.53235 -0.411634,1.02131 -0.478769,0.92583 -0.437403,0.92789 0.906895,0.045 0.592807,-0.38933 0.828494,-0.43577 1.521354,-0.29975 0.109141,0.0214 -0.09922,0.28476 -0.463021,0.5852 -0.363802,0.30043 -0.51263,0.46935 -0.330729,0.37537 0.517842,-0.26753 0.387452,0.25619 -0.195022,0.78332 -0.289164,0.26169 -0.667977,0.86912 -0.841808,1.34984 -0.173831,0.48072 -0.431889,0.80245 -0.573462,0.71495 -0.141573,-0.0875 -0.173482,-0.0233 -0.07091,0.14267 0.161649,0.26156 -0.969065,2.5855 -1.437756,2.955 -0.292615,0.2307 -0.793277,1.93126 -0.616325,2.09343 0.09334,0.0855 0.227279,-0.007 0.297644,-0.20466 0.07037,-0.1981 0.436582,-0.61482 0.813813,-0.92604 1.023257,-0.84419 1.950781,-1.7882 2.681254,-2.7289 0.358809,-0.46207 0.744316,-0.78331 0.856684,-0.71386 0.112368,0.0695 0.142628,-0.0345 0.06725,-0.2309 -0.07538,-0.19645 0.164106,-0.6401 0.532197,-0.98591 0.368091,-0.3458 0.669256,-0.78657 0.669256,-0.97948 0,-0.19292 0.133642,-0.35076 0.296981,-0.35076 0.218444,0 0.219051,-0.0939 0.0023,-0.35507 -0.162076,-0.19529 -0.220496,-0.42926 -0.129821,-0.51994 0.09067,-0.0907 0.367931,-0.9067 0.616124,-1.81339 0.506201,-1.84923 0.907127,-2.18421 1.377812,-1.15117 0.261518,0.57397 0.23751,0.91952 -0.133424,1.92035 -0.358685,0.96778 -0.382838,1.26455 -0.116667,1.43349 0.257427,0.16339 0.243159,0.22129 -0.06122,0.24843 -0.218282,0.0195 -0.477907,0.024 -0.576945,0.0102 -0.231408,-0.0324 -1.539722,1.51654 -1.539722,1.82291 0,0.12774 0.297656,-0.0654 0.661458,-0.42921 0.363803,-0.3638 0.663282,-0.80487 0.66551,-0.98016 0.0028,-0.21832 0.0757,-0.20563 0.231511,0.0403 0.16116,0.25434 0.280987,0.27236 0.411105,0.0618 0.101006,-0.16343 0.287038,-0.23325 0.413405,-0.15515 0.126367,0.0781 0.176187,-0.15342 0.110713,-0.51449 -0.09153,-0.50478 0.07251,-0.79646 0.709868,-1.26217 0.455902,-0.33311 0.933637,-0.5759 1.061637,-0.53952 0.12799,0.0364 0.21862,-0.0232 0.20138,-0.13229 -0.0823,-0.52153 0.0673,-0.63028 0.44073,-0.32034 0.28747,0.23858 0.32026,0.39486 0.11011,0.52475 -0.20771,0.12837 -0.18153,0.23016 0.0856,0.33265 0.29101,0.11167 0.36864,-0.043 0.31833,-0.63416 -0.0528,-0.62028 0.084,-0.85972 0.66211,-1.15865 0.74789,-0.38675 1.06032,-0.30057 1.06032,0.29247 0,0.19516 -0.22324,0.29459 -0.52917,0.23567 -0.29104,-0.056 -0.52917,0.0103 -0.52917,0.14749 0,0.13716 0.1786,0.24939 0.39688,0.24939 0.74708,0 0.39647,0.47798 -1.05948,1.44438 -0.801,0.53168 -1.5933,0.88204 -1.760679,0.7786 -0.178473,-0.1103 -0.232625,-0.0721 -0.130952,0.0924 0.177682,0.2875 -2.429655,2.35068 -2.823248,2.23403 -0.119957,-0.0356 -0.160281,0.0289 -0.08961,0.14327 0.07067,0.11436 -0.03954,0.43772 -0.244917,0.71859 -0.205377,0.28087 -0.375236,0.39862 -0.377464,0.26166 -0.0058,-0.35723 -0.516201,0.48221 -0.521064,0.85701 -0.0029,0.22261 0.228168,0.24566 0.804859,0.0803 0.444901,-0.12759 0.985551,-0.16421 1.201445,-0.0814 0.234803,0.0901 0.361607,0.0159 0.315568,-0.18467 -0.04416,-0.1924 0.543213,-0.58227 1.378243,-0.91479 0.800359,-0.31873 2.134099,-1.01588 2.963849,-1.54925 1.54794,-0.995 1.95132,-1.16625 1.66823,-0.70819 -0.0889,0.14385 -0.007,0.20463 0.18282,0.13507 0.18946,-0.0696 0.52307,-0.0121 0.74135,0.12779 0.81141,0.51986 -0.82029,1.89436 -2.38125,2.00591 -1.23285,0.0881 -1.32292,0.1152 -1.32292,0.39792 0,0.16201 0.22561,0.21081 0.52917,0.11446 0.31538,-0.10009 0.52916,-0.0475 0.52916,0.13008 0,0.16392 0.11812,0.22503 0.26249,0.1358 0.14437,-0.0892 0.47179,-0.0403 0.72761,0.10863 0.4105,0.23906 0.38745,0.2767 -0.19635,0.32059 -0.3638,0.0273 -0.809,0.0444 -0.98934,0.0379 -0.18033,-0.007 -0.25567,0.10502 -0.16742,0.24781 0.0883,0.1428 0.44712,0.20483 0.79749,0.13785 0.52522,-0.1004 0.60952,-0.0351 0.48032,0.37196 -0.10911,0.34378 -0.026,0.49374 0.27361,0.49374 0.23668,0 0.35674,-0.11906 0.2668,-0.26459 -0.0899,-0.14552 -0.0897,-0.38396 4.4e-4,-0.52988 0.21184,-0.34276 1.19178,0.15735 1.18614,0.60534 -0.003,0.23505 -0.0626,0.22918 -0.2218,-0.0218 -0.17391,-0.27417 -0.28612,-0.26086 -0.55751,0.0661 -0.2851,0.34353 -0.26361,0.4094 0.1336,0.4094 0.26035,0 0.4092,0.0642 0.33078,0.14259 -0.0784,0.0784 -1.01861,-0.10017 -2.0893,-0.39688 -1.07069,-0.2967 -2.30629,-0.53739 -2.745776,-0.53486 -1.530097,0.009 -4.46477,0.78436 -6.008958,1.58802 -0.854979,0.44497 -1.645546,0.75277 -1.756816,0.684 -0.11127,-0.0688 -0.375218,-0.003 -0.586551,0.14705 -0.30069,0.21292 -0.269177,0.23664 0.144924,0.10909 0.357067,-0.10998 0.227991,0.10282 -0.396875,0.6543 -0.509323,0.44951 -1.605088,1.46412 -2.435034,2.2547 -0.93773,0.89324 -1.739041,1.43587 -2.116667,1.43336 -0.472329,-0.003 -0.522093,-0.0582 -0.223431,-0.24713 z m 3.673735,-3.37329 c -0.07983,-0.46603 -0.158902,-0.43601 -0.750686,0.28503 -0.363802,0.44326 -0.492397,0.70159 -0.285766,0.57407 0.292407,-0.18046 0.333398,-0.11959 0.184905,0.27457 -0.174226,0.46246 -0.141676,0.45785 0.374994,-0.0532 0.31118,-0.30777 0.525629,-0.794 0.476553,-1.08049 z m -2.1114,-1.85067 c 0,-0.77222 -0.110558,-1.40403 -0.245685,-1.40403 -0.135126,0 -0.243861,0.80367 -0.241633,1.78594 0.0027,1.18128 0.08586,1.65664 0.245685,1.40403 0.132898,-0.21006 0.241633,-1.01373 0.241633,-1.78594 z m 6.806943,-1.55701 c 0.646874,-0.39506 0.657728,-0.43658 0.201356,-0.77029 -0.265306,-0.194 -0.594847,-0.28321 -0.732314,-0.19825 -0.137466,0.085 -0.01972,0.23988 0.261666,0.34427 0.47307,0.17551 0.461783,0.20964 -0.149854,0.45316 -0.363802,0.14485 -0.899583,0.53358 -1.190625,0.86385 l -0.529167,0.60049 0.727604,-0.43783 c 0.400183,-0.24081 1.035283,-0.62574 1.411334,-0.8554 z m -3.485865,-1.09945 c -0.205075,-0.20508 -0.372864,-0.56677 -0.372864,-0.80376 0,-0.34317 -0.06688,-0.36401 -0.328518,-0.10237 -0.23544,0.23544 -0.245544,0.38161 -0.03566,0.51593 0.161072,0.10308 0.381452,0.47105 0.489735,0.81769 0.142085,0.45487 0.25578,0.53497 0.408524,0.28782 0.123812,-0.20033 0.05691,-0.49719 -0.161217,-0.71531 z"
       id="path10652" />
    <path
       style="fill:#478c79"
       d="m 81.58969,137.86077 c -0.08057,-0.13037 -0.323776,-0.23704 -0.540449,-0.23704 -0.216673,0 -0.65613,-0.28805 -0.976572,-0.64011 -0.320442,-0.35206 -1.177934,-0.94788 -1.905538,-1.32404 -0.727604,-0.37616 -1.271852,-0.77272 -1.20944,-0.88124 0.06241,-0.10852 -0.100517,-0.23853 -0.362064,-0.2889 -0.307746,-0.0593 -0.408436,0.017 -0.285362,0.21614 0.113215,0.18318 0.04559,0.27835 -0.167103,0.23515 -0.629415,-0.12783 -1.74908,0.28404 -1.909643,0.70246 -0.128215,0.33413 -0.06108,0.35474 0.38236,0.11742 0.295834,-0.15832 0.680107,-0.2398 0.853941,-0.18106 0.173833,0.0587 -0.07944,0.31206 -0.562841,0.56295 -0.656918,0.34093 -0.968391,0.38187 -1.233216,0.16209 -0.220317,-0.18285 -0.413876,-0.19768 -0.511809,-0.0392 -0.08662,0.14016 -0.0079,0.31513 0.174883,0.38883 0.182807,0.0737 -0.05458,0.1434 -0.527518,0.15489 -0.472943,0.0115 -0.859896,-0.0759 -0.859896,-0.19419 0,-0.46723 1.521389,-1.6371 2.131144,-1.63875 0.355839,-9.5e-4 0.982765,-0.22313 1.393167,-0.49372 0.611286,-0.40304 0.668593,-0.52176 0.316987,-0.65669 -0.250112,-0.096 -0.36175,-0.0556 -0.26755,0.0969 0.188748,0.3054 -0.05691,0.30881 -0.795623,0.0111 -0.299909,-0.12089 -0.670965,-0.10003 -0.85646,0.0481 -0.490505,0.3918 -1.657082,0.009 -1.657082,-0.54354 0,-0.46846 -0.470325,-1.10621 -0.815808,-1.10621 -0.09944,0 -0.243079,0.23813 -0.319188,0.52917 -0.103716,0.39661 -0.0081,0.52917 0.381631,0.52917 0.286006,0 0.449641,0.11386 0.363632,0.25303 -0.08601,0.13916 -0.332511,0.18544 -0.547782,0.10283 -0.277369,-0.10644 -0.343738,-0.026 -0.227803,0.27614 0.08998,0.23448 0.0449,0.42633 -0.100185,0.42633 -0.145081,0 -0.981438,0.52831 -1.858572,1.17402 -0.877133,0.64571 -1.812965,1.21125 -2.079627,1.25677 -0.266662,0.0455 -0.572313,0.20182 -0.679225,0.34734 -0.108234,0.14731 -0.196182,0.0468 -0.198438,-0.22675 -0.0026,-0.32117 0.128732,-0.44037 0.379349,-0.3442 0.237686,0.0912 0.334594,0.0199 0.254983,-0.18753 -0.07063,-0.18406 0.0598,-0.68401 0.289834,-1.111 l 0.418251,-0.77636 -0.173513,0.99219 c -0.119527,0.68348 -0.07648,0.99219 0.138345,0.99219 0.186887,0 0.247388,-0.20313 0.150975,-0.5069 -0.08849,-0.2788 -0.03504,-0.58468 0.118778,-0.67974 0.153814,-0.0951 0.211162,-0.28368 0.127439,-0.41914 -0.08372,-0.13547 -0.01911,-0.24631 0.143591,-0.24631 0.162697,0 0.223071,-0.11769 0.134165,-0.26155 -0.09269,-0.14998 0.01351,-0.19434 0.248968,-0.10398 0.512524,0.19667 0.512671,0.30128 0.0011,0.81281 -0.225211,0.22521 -0.351614,0.46733 -0.280896,0.53805 0.07072,0.0707 0.505102,-0.30026 0.965296,-0.82439 0.460194,-0.52413 0.943785,-0.8868 1.074645,-0.80592 0.130861,0.0809 0.237929,0.0337 0.237929,-0.10484 0,-0.51992 -2.191005,-0.83038 -2.486457,-0.35233 -0.07504,0.12142 -0.624507,0.23988 -1.221036,0.26326 -0.661528,0.0259 -1.021134,-0.0602 -0.921897,-0.22076 0.08949,-0.1448 0.04935,-0.26326 -0.08919,-0.26326 -0.138539,0 -0.317913,0.17205 -0.398608,0.38234 -0.110256,0.28732 0.129286,0.40858 0.96388,0.48793 0.758747,0.0721 0.586704,0.10611 -0.543048,0.10722 -0.909505,9e-4 -1.651823,-0.0698 -1.649594,-0.1572 0.01857,-0.72792 2.012568,-1.41028 2.380668,-0.81468 0.111073,0.17972 0.336267,0.24375 0.500431,0.14229 0.164165,-0.10145 0.229981,-0.2953 0.146258,-0.43077 -0.157316,-0.25454 0.445504,-0.33394 1.923477,-0.25336 1.019881,0.0556 1.92428,-0.19815 1.92428,-0.53994 0,-0.13571 -0.178593,-0.24675 -0.396874,-0.24675 -0.218282,0 -0.396875,-0.11906 -0.396875,-0.26458 0,-0.14552 0.297656,-0.26459 0.661458,-0.26459 0.363802,0 0.665245,-0.14882 0.669873,-0.33072 0.0055,-0.2169 0.119352,-0.1851 0.330729,0.0924 0.177273,0.23272 0.381846,0.41605 0.454606,0.40739 0.217329,-0.0258 2.645833,1.19065 2.645833,1.32536 0,0.0684 -0.126788,0.0459 -0.281751,-0.0498 -0.380456,-0.23513 -2.149474,0.11257 -1.978683,0.38892 0.07454,0.1206 0.375666,0.28208 0.669176,0.35883 0.29351,0.0768 0.472018,0.0398 0.396683,-0.0821 -0.239001,-0.38671 0.368991,-0.55843 0.924524,-0.26112 0.334455,0.179 0.534635,0.18842 0.534635,0.0252 0,-0.34211 2.238934,0.66187 2.282031,1.0233 0.06873,0.57642 0.109492,0.59823 0.504907,0.27006 0.359692,-0.29852 0.339464,-0.40718 -0.178412,-0.95844 -0.321256,-0.34196 -0.448539,-0.62175 -0.282852,-0.62175 0.165688,0 0.03761,-0.27432 -0.284608,-0.60961 -0.322222,-0.33528 -0.722643,-0.56529 -0.889825,-0.51113 -0.167181,0.0542 -0.381724,-0.0273 -0.476762,-0.1811 -0.10516,-0.17016 -0.01207,-0.21792 0.23782,-0.12203 0.83295,0.31964 0.379625,-0.16947 -0.496277,-0.53545 -0.72046,-0.30103 -0.877291,-0.49213 -0.762891,-0.92959 0.160607,-0.61416 0.298627,-0.65924 0.876035,-0.28609 0.340663,0.22016 0.33247,0.25706 -0.05784,0.26054 -0.294755,0.003 -0.401142,0.14366 -0.302421,0.40092 0.08376,0.21828 0.265646,0.39688 0.404186,0.39688 0.13854,0 0.178306,-0.11906 0.08837,-0.26459 -0.223481,-0.36159 0.172388,-0.31849 0.684681,0.0746 0.231054,0.17727 0.372875,0.46239 0.315158,0.63361 -0.05772,0.17121 0.259512,0.58074 0.704952,0.91007 0.587092,0.43406 0.718751,0.65907 0.478591,0.81795 -0.243962,0.16139 -0.1356,0.39228 0.411059,0.87586 0.783977,0.69351 1.242017,0.8357 1.242017,0.38556 0,-0.14912 -0.295382,-0.38343 -0.656405,-0.52069 -0.446131,-0.16962 -0.605111,-0.38324 -0.496283,-0.66684 0.136763,-0.3564 0.215861,-0.33769 0.542216,0.12825 0.420781,0.60075 0.877334,0.49248 0.871004,-0.20655 -0.0031,-0.34604 -0.05474,-0.36745 -0.227763,-0.0945 -0.315849,0.49827 -0.578364,-0.23294 -0.369869,-1.03022 0.09987,-0.38189 0.05579,-0.53421 -0.122664,-0.42392 -0.379221,0.23437 -0.684363,-0.6386 -0.34266,-0.98031 0.150292,-0.15029 0.255418,-0.69592 0.233614,-1.21252 -0.03406,-0.80691 -0.05524,-0.83611 -0.150298,-0.20718 -0.06086,0.40265 -0.221615,0.66351 -0.357232,0.57969 -0.329371,-0.20356 -0.315659,-1.11237 0.01846,-1.22374 0.176999,-0.059 0.176999,-0.39533 0,-1.01249 -0.145772,-0.50828 -0.265041,-1.37141 -0.265041,-1.91808 0,-0.54666 -0.112529,-0.99393 -0.250066,-0.99393 -0.137536,0 -0.223981,0.46664 -0.192099,1.03698 0.03188,0.57035 -0.02085,0.98828 -0.117175,0.92874 -0.09633,-0.0595 -0.227388,0.24773 -0.291243,0.68281 -0.107981,0.73572 0.05871,0.92884 0.696933,0.80745 0.133773,-0.0254 0.08821,0.14052 -0.101251,0.36881 -0.282108,0.33992 -0.421948,0.3546 -0.772391,0.0811 -0.608645,-0.47505 -1.059987,-1.09353 -0.93986,-1.2879 0.05643,-0.0913 -0.153193,-0.39026 -0.465817,-0.66437 -0.312624,-0.27411 -0.471837,-0.33411 -0.353807,-0.13333 0.138844,0.23618 0.102892,0.32782 -0.10184,0.25957 -0.174043,-0.058 -0.541983,-0.60924 -0.817643,-1.22495 l -0.501202,-1.11947 h 0.616126 c 0.73787,0 1.337049,0.6352 1.049783,1.11289 -0.15299,0.25441 -0.09089,0.24907 0.241805,-0.0208 0.388996,-0.31554 0.447664,-0.30109 0.447664,0.11024 0,0.26035 0.07752,0.39584 0.172277,0.30109 0.09475,-0.0948 0.341007,0.0342 0.547233,0.28663 0.330566,0.40458 0.35022,0.31796 0.166009,-0.73171 -0.114921,-0.65485 -0.212348,-1.86408 -0.216504,-2.68719 -0.0042,-0.82312 -0.07979,-1.37949 -0.168066,-1.23638 -0.173092,0.28058 -0.493285,-1.31347 -0.498037,-2.47943 -0.0016,-0.39295 0.193506,-0.82438 0.433572,-0.95873 0.279129,-0.1562 0.384296,-0.44384 0.291719,-0.79785 -0.087,-0.33269 -0.02613,-0.5308 0.152547,-0.49648 0.163522,0.0314 0.327853,-0.24056 0.36518,-0.60436 0.06209,-0.60515 0.04549,-0.61641 -0.194998,-0.13229 -0.199188,0.40098 -0.224248,0.27294 -0.103448,-0.52856 0.08768,-0.58175 0.255231,-1.11753 0.372335,-1.19062 0.117105,-0.0731 0.345594,-0.62668 0.507755,-1.23018 0.282455,-1.05119 0.859663,-1.58543 1.371303,-1.26922 0.42669,0.26371 0.263802,0.88794 -0.972717,3.7277 -0.864612,1.98565 -1.165188,2.97891 -1.045625,3.45529 0.09229,0.36771 0.170429,1.50045 0.173642,2.5172 0.0032,1.01675 0.115498,2.10433 0.24952,2.41685 0.231989,0.54095 0.241261,0.53648 0.193299,-0.0933 -0.02771,-0.3638 0.106265,-0.9474 0.297718,-1.29689 0.311825,-0.56922 0.300465,-0.61715 -0.109018,-0.46002 -0.358717,0.13765 -0.416761,0.0751 -0.269649,-0.29061 0.103105,-0.25631 0.363427,-1.04615 0.578494,-1.75518 0.498024,-1.64191 1.068524,-2.25326 2.0038,-2.14729 0.399556,0.0453 0.804905,-0.0446 0.900776,-0.19973 0.113029,-0.18289 0.04367,-0.20331 -0.197299,-0.0581 -0.317273,0.19121 -0.317053,0.15674 0.0015,-0.23575 0.205216,-0.25283 0.538822,-0.39611 0.741346,-0.3184 0.202525,0.0777 0.303823,0.0371 0.225107,-0.0903 -0.07872,-0.12737 0.03416,-0.3787 0.250841,-0.55853 0.328155,-0.27235 0.393962,-0.23177 0.393962,0.24291 0,0.31342 -0.208359,0.64963 -0.463021,0.74713 -0.533654,0.20431 -1.371457,1.13647 -1.371457,1.52592 0,0.14552 0.223483,-0.003 0.496629,-0.33073 0.273146,-0.32742 0.715669,-0.59176 0.983385,-0.58742 0.357593,0.006 0.170818,0.28454 -0.703869,1.05044 -1.179729,1.033 -2.116667,1.35833 -2.116667,0.73495 0,-0.4831 -0.972285,0.61763 -1.19132,1.3487 -0.140757,0.46981 -0.104023,0.57637 0.145522,0.42214 0.216934,-0.13407 0.26771,-0.0994 0.145022,0.0992 -0.103833,0.16801 -0.05851,0.30546 0.100721,0.30546 0.198157,0 0.18595,0.18785 -0.03869,0.59532 -0.308415,0.55943 -0.505511,3.94505 -0.21959,3.77201 0.148952,-0.0901 0.340457,1.55541 0.374378,3.21695 0.01787,0.87554 0.09352,1.04303 0.368155,0.81511 0.190112,-0.15778 0.324841,-0.17742 0.299397,-0.0437 -0.02544,0.13377 -0.02854,0.42182 -0.0069,0.6401 0.03066,0.30897 0.102268,0.28867 0.323333,-0.0917 0.203504,-0.35011 0.201225,-0.57125 -0.008,-0.78052 -0.418617,-0.41862 -0.359948,-1.32416 0.124495,-1.92153 0.229073,-0.28248 0.329739,-0.34637 0.223703,-0.14198 -0.126751,0.24431 -0.08816,0.30694 0.112671,0.18282 0.451094,-0.27879 0.390102,-1.23176 -0.06759,-1.05613 -0.307536,0.11801 -0.329507,-0.0507 -0.125095,-0.96044 0.29226,-1.30075 0.754919,-1.8313 1.75324,-2.01049 0.585446,-0.10508 0.664056,-0.0652 0.398558,0.20242 -0.394183,0.39728 -0.442909,0.85723 -0.06614,0.62437 0.374521,-0.23146 0.328256,0.26148 -0.126747,1.35046 -0.226007,0.54091 -0.511524,0.8623 -0.675835,0.76075 -0.192204,-0.11879 -0.144225,-0.38993 0.147888,-0.83575 0.237816,-0.36295 0.367805,-0.7245 0.288866,-0.80344 -0.07894,-0.0789 -0.281865,0.1601 -0.450945,0.53119 -0.201556,0.44236 -0.455525,0.62777 -0.73751,0.53839 -0.342855,-0.10866 -0.356046,-0.0835 -0.06503,0.12392 0.22919,0.16338 0.320101,0.56657 0.244261,1.0833 -0.06644,0.45268 -0.02236,0.82306 0.09796,0.82306 0.120318,0 0.218759,-0.23813 0.218759,-0.52917 0,-0.29104 0.119063,-0.52917 0.264584,-0.52917 0.373044,0 0.35604,0.0567 -0.52864,1.76181 -0.443751,0.85529 -0.727316,1.73652 -0.643629,2.0002 0.100564,0.31685 0.01202,0.47133 -0.270151,0.47133 -0.324346,0 -0.37959,0.16537 -0.243067,0.7276 0.330709,1.36194 0.625854,1.83345 0.455452,0.72761 -0.201574,-1.30814 0.179088,-1.01897 0.618735,0.47003 0.333201,1.12848 0.234731,1.66019 -0.18245,0.98517 -0.129696,-0.20985 -0.318683,-0.29867 -0.419971,-0.19739 -0.220683,0.22069 0.936796,1.2344 1.423757,1.24693 0.18828,0.005 0.315038,-0.14003 0.281684,-0.32193 -0.07384,-0.40271 0.571092,-3.34086 0.862529,-3.92945 0.319128,-0.64452 1.026539,-4.22619 1.026784,-5.19868 1.19e-4,-0.47294 0.126306,-0.85989 0.280415,-0.85989 0.154109,0 0.216727,-0.1027 0.139152,-0.22822 -0.07758,-0.12552 0.03166,-1.28638 0.242754,-2.57969 0.360681,-2.20982 0.787897,-6.66188 1.034429,-10.77986 0.107315,-1.79257 -0.200949,-3.34556 -0.664083,-3.34556 -0.131285,0 -0.238701,-0.19524 -0.238701,-0.43386 0,-0.23862 -0.185999,-0.56986 -0.413331,-0.73608 -0.319806,-0.23385 0.183224,-0.30032 2.223113,-0.29376 l 2.636445,0.008 -1.124518,1.20239 -1.124518,1.20239 -0.185639,3.56011 c -0.102101,1.95806 -0.376418,4.75073 -0.609593,6.20594 -0.233175,1.45521 -0.414365,2.83978 -0.402645,3.07684 0.01172,0.23705 -0.238097,0.56815 -0.555148,0.73578 -0.32066,0.16954 -0.370996,0.24614 -0.113436,0.17262 0.68352,-0.19512 0.686337,-0.22686 -0.761814,8.58247 -0.668118,4.06426 -0.661402,4.59594 0.05459,4.32119 0.205403,-0.0788 0.291757,-0.27966 0.191898,-0.44631 -0.09986,-0.16666 0.03908,-0.12441 0.308753,0.0939 0.458372,0.37102 0.481229,0.34906 0.350855,-0.33705 -0.0767,-0.40365 -0.01797,-0.809 0.130523,-0.90077 0.148489,-0.0918 0.190324,-0.038 0.09297,0.11955 -0.09852,0.15941 0.07654,0.36689 0.39476,0.46789 0.398631,0.12652 0.647907,0.0454 0.823194,-0.26779 0.178231,-0.31848 0.442977,-0.40119 0.909446,-0.28411 0.361914,0.0908 0.599943,0.0711 0.528953,-0.0439 -0.07099,-0.11497 0.171627,-0.22711 0.539147,-0.2492 0.367521,-0.0221 0.981174,-0.26554 1.363674,-0.541 0.3825,-0.27546 1.617907,-0.89843 2.745349,-1.38436 1.127443,-0.48593 2.318068,-1.14919 2.645834,-1.4739 0.747266,-0.7403 2.654176,-1.71996 3.347907,-1.71996 0.695089,0 0.972073,0.49386 0.520483,0.928 -0.51838,0.49836 -2.299612,1.45325 -2.71085,1.45325 -0.191589,0 -0.608893,0.22598 -0.927342,0.50217 -0.337096,0.29236 -0.906719,0.47947 -1.363401,0.44786 -0.43142,-0.0299 -0.784401,0.0546 -0.784401,0.1876 0,0.13305 -0.174781,0.17484 -0.388402,0.0929 -0.213621,-0.082 -0.453556,-0.0436 -0.533188,0.0852 -0.07963,0.12885 0.184445,0.19452 0.586839,0.14594 0.402394,-0.0486 1.326938,-0.12944 2.054543,-0.17968 0.727604,-0.0502 1.412213,-0.21041 1.521354,-0.35593 0.125694,-0.1676 0.285018,-0.13022 0.434622,0.10195 0.156153,0.24234 0.469943,0.30787 0.926041,0.1934 0.42389,-0.10639 0.689857,-0.0632 0.689857,0.1121 0,0.15688 -0.119062,0.21165 -0.264583,0.12171 -0.145521,-0.0899 -0.264583,-0.0661 -0.264583,0.053 0,0.11911 0.255387,0.37605 0.567527,0.57099 0.498559,0.31135 0.547513,0.30226 0.40283,-0.0748 -0.135244,-0.35244 -0.07468,-0.38102 0.338653,-0.15981 0.276844,0.14816 0.780175,0.26082 1.118525,0.25036 0.89305,-0.0276 2.61588,0.45718 2.96263,0.83366 0.22639,0.24581 0.21175,0.27469 -0.0607,0.11972 -0.27364,-0.15564 -0.31583,-0.068 -0.17733,0.3684 0.16481,0.51926 0.11195,0.55555 -0.56696,0.38927 -0.4118,-0.10085 -0.8247,-0.29935 -0.91757,-0.44111 -0.0929,-0.14176 -0.27378,-0.19289 -0.40202,-0.11364 -0.12824,0.0793 -0.88112,-0.0841 -1.67307,-0.36297 -1.421008,-0.50043 -2.809472,-0.69063 -2.223489,-0.3046 0.162288,0.10692 0.381877,0.47238 0.487976,0.81215 0.190753,0.61086 0.185189,0.61271 -0.498011,0.16506 -0.620962,-0.40687 -0.674203,-0.40915 -0.525815,-0.0224 0.09081,0.23664 0.330961,0.43025 0.533673,0.43025 0.202712,0 0.368567,0.13365 0.368567,0.29698 0,0.20892 0.114457,0.20199 0.385974,-0.0233 0.318266,-0.26413 0.416667,-0.19803 0.560942,0.3768 0.09623,0.38343 0.101138,0.77096 0.0109,0.8612 -0.09024,0.0902 -0.164068,-0.10093 -0.164068,-0.42481 0,-0.35027 -0.114517,-0.5181 -0.282621,-0.41421 -0.155441,0.0961 -0.208229,0.37099 -0.117306,0.61093 0.09092,0.23994 -0.372047,-0.0895 -1.028823,-0.73205 -0.656775,-0.64257 -1.121373,-1.28605 -1.032438,-1.42994 0.08893,-0.1439 0.03247,-0.18177 -0.125482,-0.0842 -0.15795,0.0976 -0.361967,0.0565 -0.45337,-0.0914 -0.09259,-0.14982 0.08199,-0.2689 0.394207,-0.2689 0.326886,0 0.48827,-0.11671 0.387302,-0.28008 -0.09738,-0.15755 -0.498275,-0.20865 -0.916468,-0.1168 -0.408856,0.0898 -0.802637,0.067 -0.87507,-0.0507 -0.19408,-0.31527 1.686401,-0.39642 2.057088,-0.0888 0.21452,0.17803 0.479867,0.14338 0.822938,-0.10748 0.446765,-0.32668 0.247172,-0.36287 -1.696558,-0.30755 -1.211589,0.0345 -2.282645,0.17333 -2.380123,0.30857 -0.09748,0.13524 -0.593607,0.28721 -1.102509,0.33772 -0.508901,0.0505 -1.133979,0.20352 -1.389062,0.34004 -0.329906,0.17656 -0.464957,0.15005 -0.467839,-0.0918 -0.0031,-0.25878 -0.05924,-0.25291 -0.235002,0.0246 -0.127023,0.20054 -0.355098,0.2879 -0.506833,0.19412 -0.151735,-0.0938 -0.350667,-0.0495 -0.442071,0.0984 -0.0914,0.14789 -0.03307,0.26889 0.129624,0.26889 0.162697,0 0.222229,0.11907 0.132292,0.26459 -0.08994,0.14552 -0.0077,0.27829 0.182822,0.29505 0.710481,0.0625 1.409843,-0.0933 1.569467,-0.34964 0.183558,-0.29477 1.330595,0.19864 1.22164,0.52551 -0.03493,0.10479 0.0075,0.19054 0.09426,0.19054 0.274113,0 1.032852,0.71554 1.032852,0.97405 0,0.13629 -0.148828,0.15839 -0.330729,0.0491 -0.218836,-0.13148 -0.20608,-0.0451 0.0377,0.25536 0.601149,0.74086 0.16034,0.77941 -0.875366,0.0766 -0.531217,-0.36049 -1.317717,-0.73272 -1.747777,-0.82718 -0.430061,-0.0945 -0.849852,-0.28164 -0.93287,-0.41597 -0.08302,-0.13432 -0.620164,-0.24423 -1.193659,-0.24423 -0.750472,0 -1.042718,-0.11123 -1.042718,-0.39687 0,-0.44931 -0.414319,-0.53217 -0.661458,-0.13229 -0.08994,0.14552 -0.03041,0.26458 0.132291,0.26458 0.162698,0 0.221028,0.12101 0.129625,0.2689 -0.0914,0.14789 -0.277025,0.2004 -0.41249,0.11668 -0.135466,-0.0837 -0.246301,-0.0191 -0.246301,0.14359 0,0.16269 -0.119063,0.22223 -0.264584,0.13229 -0.14552,-0.0899 -0.264583,-0.0519 -0.264583,0.0846 0,0.13645 -0.357187,0.39605 -0.79375,0.57688 -0.436562,0.18083 -0.79375,0.41951 -0.79375,0.5304 0,0.37819 -2.857282,1.09254 -3.059732,0.76497 z m -8.581934,-5.23173 c 0,-0.1277 -0.178594,-0.3804 -0.396875,-0.56156 -0.218281,-0.18116 -0.396875,-0.24069 -0.396875,-0.13229 0,0.1084 -0.178594,0.0489 -0.396875,-0.13229 -0.498433,-0.41367 -0.523788,-0.0891 -0.0315,0.40317 0.200957,0.20096 0.439082,0.29167 0.529167,0.20159 0.09008,-0.0901 0.163789,-0.0249 0.163789,0.14489 0,0.16977 0.119063,0.30868 0.264584,0.30868 0.145521,0 0.264583,-0.10448 0.264583,-0.23219 z m 24.215209,-1.87503 c -0.15762,-0.25504 0.477554,-0.53861 1.206429,-0.53861 0.27914,0 0.507527,-0.10858 0.507527,-0.24129 0,-0.26115 -0.907623,-0.20291 -1.653645,0.10611 -0.254662,0.10549 -0.463021,0.42421 -0.463021,0.70827 0,0.28406 0.121004,0.44169 0.268899,0.35028 0.147895,-0.0914 0.20811,-0.26455 0.133811,-0.38476 z"
       id="path10637" />
    <path
       style="fill:#3b8472"
       d="m 82.450343,100.38363 c 1.186062,-1.069846 1.274831,-1.667566 0.49307,-3.320073 -0.371382,-0.785038 -0.67253,-1.594448 -0.669216,-1.798687 0.0033,-0.20424 0.207256,0.03724 0.453206,0.536626 0.245949,0.499384 0.879647,1.362587 1.408216,1.918229 0.74752,0.785806 1.161183,1.00993 1.861898,1.008782 2.310414,-0.0038 4.313738,-1.254042 4.642384,-2.897274 0.08981,-0.449036 0.279725,-0.888392 0.422041,-0.976348 0.313579,-0.193802 0.0712,0.720077 -0.536537,2.023015 -0.251016,0.538153 -0.436148,1.626323 -0.441983,2.597887 -0.01115,1.856533 0.206263,1.740903 -2.126708,1.131003 -1.526948,-0.39919 -4.376833,-0.33977 -5.159375,0.10757 -1.060437,0.6062 -1.218591,0.45546 -0.346996,-0.33073 z"
       id="path10403" />
    <path
       style="fill:#3b8472"
       d="m 86.600279,112.83179 c 0.0603,-0.32044 -0.02655,-0.63298 -0.193007,-0.69453 -0.22053,-0.0815 -0.212909,-0.20702 0.02809,-0.46248 0.181901,-0.19281 0.316642,-0.65418 0.299425,-1.02526 -0.02944,-0.63461 -0.04255,-0.62754 -0.220562,0.11906 l -0.189257,0.79375 -0.201044,-1.05833 c -0.110575,-0.58208 -0.428041,-1.38093 -0.705481,-1.77522 -0.277439,-0.39429 -0.504436,-0.79789 -0.504436,-0.89688 0,-0.099 -0.185999,-0.31599 -0.413331,-0.48221 -0.31965,-0.23374 0.193747,-0.30032 2.265143,-0.29376 l 2.678475,0.008 -0.762857,0.68181 c -1.283336,1.14699 -1.649604,1.86657 -1.669359,3.27966 -0.01023,0.73161 -0.131735,1.56832 -0.270014,1.85936 -0.237352,0.49956 -0.245284,0.49657 -0.141783,-0.0535 z"
       id="path10392" />
    <path
       style="fill:#3b8472"
       d="m 73.065294,114.2742 c -0.149511,-0.1819 -0.297259,-0.50932 -0.328328,-0.7276 -0.176899,-1.24282 0.276161,-1.37157 1.461415,-0.41531 0.655629,0.52896 0.733472,0.70138 0.447345,0.99087 -0.286506,0.28988 -0.313044,0.26291 -0.153474,-0.15594 0.145039,-0.38072 0.105944,-0.45267 -0.157497,-0.28985 -0.220676,0.13638 -0.28687,0.11374 -0.178774,-0.0612 0.09441,-0.15275 -0.01951,-0.35109 -0.253162,-0.44075 -0.303523,-0.11648 -0.381003,-0.0489 -0.271367,0.23686 0.09564,0.24923 0.0012,0.39987 -0.25074,0.39987 -0.222302,0 -0.329401,0.12101 -0.237997,0.2689 0.0914,0.1479 0.295421,0.18903 0.45337,0.0914 0.171405,-0.10593 0.211072,-0.0543 0.09839,0.12798 -0.237324,0.384 -0.294689,0.38169 -0.629186,-0.0253 z"
       id="path10385" />
    <path
       style="fill:#3b8472"
       d="m 78.164516,114.86957 c 0.08956,-0.36381 0.198238,-1.05438 0.241503,-1.53461 0.10029,-1.11321 0.67311,-1.77825 0.717845,-0.83342 0.02124,0.44852 0.06797,0.50558 0.151692,0.18521 0.06655,-0.25466 0.239356,-0.46302 0.384013,-0.46302 0.276996,0 0.135127,0.63577 -0.442803,1.98438 l -0.340153,0.79375 0.08901,-0.8599 c 0.04896,-0.47294 -0.0294,-0.85989 -0.174133,-0.85989 -0.144731,0 -0.200807,0.20835 -0.124615,0.46302 0.07619,0.25466 -0.04231,0.76067 -0.263335,1.12448 l -0.401867,0.66145 z"
       id="path10381" />
    <path
       style="fill:#3b8472"
       d="m 76.459972,116.47047 c -0.211333,-0.13369 -0.45938,-0.19663 -0.551215,-0.13988 -0.09183,0.0568 -0.166973,-0.0702 -0.166973,-0.28204 0,-0.21188 0.0585,-0.32674 0.129996,-0.25524 0.0715,0.0715 0.275394,0.009 0.453103,-0.13816 0.236935,-0.19664 0.35713,-0.0902 0.450675,0.39917 0.07016,0.36703 0.114312,0.66551 0.09811,0.66328 -0.0162,-0.002 -0.202365,-0.11344 -0.413698,-0.24713 z"
       id="path10376" />
    <path
       style="fill:#3b8472"
       d="m 76.632113,118.40004 c 0.07985,-0.20808 0.210934,-0.31258 0.291297,-0.23222 0.140588,0.14059 0.859297,-1.541 0.910238,-2.12972 0.01364,-0.15765 0.172169,-0.28663 0.352283,-0.28663 0.327033,0 0.314391,0.0455 -0.415675,1.49572 -0.145521,0.28906 -0.264584,0.69189 -0.264584,0.89518 0,0.20328 -0.229216,0.42955 -0.509371,0.50281 -0.363396,0.095 -0.467764,0.0248 -0.364188,-0.24514 z"
       id="path10364" />
    <path
       style="fill:#3b8472"
       d="m 91.915594,118.82235 c -0.09537,-0.15431 -0.0484,-0.60079 0.104371,-0.99219 0.15277,-0.3914 0.326617,-1.00929 0.386328,-1.37309 0.05971,-0.36381 0.12478,0.0827 0.144597,0.99218 0.03329,1.5276 -0.212068,2.05789 -0.635296,1.3731 z"
       id="path10361" />
    <path
       style="fill:#3b8472"
       d="m 93.125604,119.16904 c -0.0052,-0.1819 0.109547,-0.33072 0.255068,-0.33072 0.14552,0 0.264583,-0.12609 0.264583,-0.2802 0,-0.15411 -0.106587,-0.21433 -0.236859,-0.13381 -0.424558,0.26239 -0.576865,-0.69941 -0.23357,-1.47496 0.476462,-1.07641 0.785611,-0.94259 0.33177,0.1436 -0.327438,0.78367 -0.32621,0.91967 0.0095,1.04848 0.486005,0.1865 1.007348,-0.73704 0.794548,-1.40751 -0.08674,-0.2733 -0.01357,-0.58599 0.162597,-0.69487 0.224357,-0.13866 0.266312,-0.0572 0.140054,0.27178 -0.135772,0.35381 -0.07837,0.43064 0.23262,0.3113 0.351689,-0.13495 0.343324,-0.0407 -0.05644,0.63606 -0.708544,1.19947 -1.653089,2.28425 -1.663831,1.91085 z"
       id="path10359" />
    <path
       style="fill:#3b8472"
       d="m 85.790816,118.64473 c -0.02708,-0.69389 -0.07807,-1.49975 -0.113316,-1.79079 -0.03525,-0.29104 -0.03011,-1.42214 0.01142,-2.51354 0.07419,-1.94979 0.07994,-1.96453 0.330142,-0.84565 0.159476,0.71317 0.162663,1.56997 0.0085,2.29266 -0.199574,0.93574 -0.178037,1.1278 0.113903,1.01577 0.246145,-0.0944 0.366619,-0.65222 0.380901,-1.76348 0.01149,-0.89394 0.0844,-1.46614 0.162026,-1.27155 0.233404,0.58506 -0.2061,5.26532 -0.536932,5.71776 -0.250934,0.34317 -0.31649,0.18856 -0.356672,-0.84118 z"
       id="path10353" />
    <path
       style="fill:#3b8472"
       d="m 97.527302,119.31449 c 0.173037,-0.8891 0.553858,-1.33948 0.933966,-1.10456 0.355431,0.21967 0.234579,0.62839 -0.185805,0.62839 -0.218281,0 -0.396875,0.23109 -0.396875,0.51355 0,0.28245 -0.11727,0.58603 -0.260599,0.67461 -0.163122,0.10081 -0.197043,-0.16551 -0.09069,-0.71199 z"
       id="path10351" />
    <path
       style="fill:#3b8472"
       d="m 67.333277,119.23515 c -0.250087,-0.65484 -0.563919,-1.19062 -0.697404,-1.19062 -0.133485,0 -0.2427,-0.20624 -0.2427,-0.4583 0,-0.29679 0.234061,-0.11384 0.664209,0.51918 0.787359,1.1587 1.264311,2.32037 0.952688,2.32037 -0.122149,0 -0.426706,-0.53579 -0.676793,-1.19063 z"
       id="path10346" />
    <path
       style="fill:#3b8472"
       d="m 65.004111,120.38284 c -0.521867,-0.1906 -0.727604,-0.44797 -0.727604,-0.9102 0,-0.56859 0.08564,-0.62408 0.727604,-0.47141 0.925847,0.22018 1.663981,0.61139 1.17501,0.62275 -0.19049,0.004 -0.27276,0.12711 -0.182823,0.27263 0.08994,0.14552 0.03041,0.26458 -0.132292,0.26458 -0.162697,0 -0.222228,0.11906 -0.132291,0.26459 0.08994,0.14552 0.126729,0.25518 0.08176,0.24369 -0.04497,-0.0115 -0.409183,-0.14047 -0.809364,-0.28663 z"
       id="path10344" />
    <path
       style="fill:#3b8472"
       d="m 78.598681,120.82265 c -0.01469,-0.14552 0.132838,-0.72284 0.327838,-1.28293 0.252128,-0.72418 0.401438,-0.89615 0.516879,-0.59531 0.184257,0.48016 -0.03316,1.21678 -0.359133,1.21678 -0.119281,0 -0.271325,0.20836 -0.337875,0.46302 -0.06655,0.25466 -0.133019,0.34396 -0.147709,0.19844 z"
       id="path10342" />
    <path
       style="fill:#3b8472"
       d="m 91.831173,120.37483 c -0.05296,-0.89749 0.0074,-1.04654 0.367838,-0.90823 0.237154,0.091 0.524004,0.16547 0.637443,0.16547 0.377192,0 -0.04236,1.33502 -0.495816,1.5777 -0.380715,0.20375 -0.455399,0.0814 -0.509465,-0.83494 z"
       id="path10337" />
    <path
       style="fill:#3b8472"
       d="m 71.684839,121.10932 c 0,-0.49719 -0.100672,-0.94368 -0.223717,-0.99219 -0.123044,-0.0485 -0.293086,-0.6835 -0.377871,-1.41111 -0.08479,-0.7276 -0.09548,-1.18077 -0.02377,-1.00705 0.07171,0.17373 0.28144,0.2579 0.466066,0.18705 0.184626,-0.0708 0.335683,0.0549 0.335683,0.27945 0,0.22454 -0.09922,0.40826 -0.220486,0.40826 -0.121267,0 -0.220486,0.12609 -0.220486,0.2802 0,0.15411 0.106277,0.21452 0.236171,0.13424 0.129894,-0.0803 0.246215,0.56753 0.25849,1.43959 0.01228,0.87206 -0.03447,1.58555 -0.103879,1.58555 -0.06941,0 -0.126199,-0.40679 -0.126199,-0.90399 z"
       id="path10331" />
    <path
       style="fill:#3b8472"
       d="m 97.645365,122.18335 c -0.301458,-0.36323 -0.290638,-0.4533 0.07113,-0.59213 0.23467,-0.0901 0.426673,-0.3755 0.426673,-0.63434 0,-0.25884 0.177861,-0.81165 0.395245,-1.22847 0.33496,-0.64225 0.395494,-0.67377 0.396875,-0.20663 8.97e-4,0.30317 -0.08767,0.63887 -0.196807,0.74601 -0.109141,0.10713 -0.319745,0.67835 -0.468009,1.26938 -0.237932,0.94846 -0.311299,1.0243 -0.62511,0.64618 z"
       id="path10327" />
    <path
       style="fill:#3b8472"
       d="m 70.066007,122.20345 c -0.01723,-0.17734 -0.01723,-0.41172 0,-0.52086 0.01723,-0.10914 -0.08773,-0.19844 -0.233251,-0.19844 -0.145521,0 -0.264583,-0.1786 -0.264583,-0.39688 0,-0.21828 -0.126089,-0.39687 -0.280198,-0.39687 -0.154109,0 -0.214324,-0.10659 -0.133812,-0.23686 0.08051,-0.13027 -0.04856,-0.31167 -0.286837,-0.4031 -0.238274,-0.0914 -0.357222,-0.24225 -0.26433,-0.33514 0.09289,-0.0929 -0.146464,-0.58235 -0.531904,-1.08769 -0.385439,-0.50534 -0.576411,-0.87302 -0.424382,-0.81707 0.152029,0.056 0.927718,1.07759 1.723754,2.2703 1.046788,1.56842 1.347644,2.20682 1.087107,2.3068 -0.198127,0.076 -0.374331,-0.007 -0.391564,-0.18419 z"
       id="path10326" />
    <path
       style="fill:#3b8472"
       d="m 99.601969,122.53671 c 0.09525,-0.15412 0.669191,-0.58597 1.275421,-0.95967 0.60623,-0.3737 1.24352,-0.85756 1.4162,-1.07525 0.17268,-0.21769 0.44056,-0.35359 0.59528,-0.30201 0.15473,0.0516 -0.56049,0.66154 -1.58938,1.35547 -1.02889,0.69392 -1.792771,1.13558 -1.697521,0.98146 z"
       id="path10324" />
    <path
       style="fill:#3b8472"
       d="m 93.327755,123.01877 c 0.174625,-0.17462 0.3175,-0.50905 0.3175,-0.74318 0,-0.23412 0.148828,-0.62921 0.330729,-0.87798 0.298034,-0.40758 0.330729,-0.38892 0.330729,0.18875 0,0.35258 -0.0766,0.59371 -0.170213,0.53585 -0.09362,-0.0579 -0.244714,0.19164 -0.33577,0.55443 -0.09106,0.3628 -0.306163,0.65963 -0.478016,0.65963 -0.237423,0 -0.236212,-0.0763 0.005,-0.3175 z"
       id="path10322" />
    <path
       style="fill:#3b8472"
       d="m 71.747678,123.29326 c -0.180082,-0.18009 -0.325599,-0.45244 -0.32337,-0.60524 0.0022,-0.15279 0.116589,-0.0998 0.254136,0.11778 0.214802,0.33977 0.310319,0.32111 0.677027,-0.1323 0.234819,-0.29033 0.343329,-0.36573 0.241134,-0.16756 -0.102418,0.1986 -0.0256,0.45932 0.171154,0.58092 0.19633,0.12134 0.264641,0.31294 0.151803,0.42578 -0.112839,0.11284 -0.303338,0.0463 -0.423331,-0.14784 -0.152304,-0.24644 -0.248806,-0.2611 -0.31965,-0.0486 -0.07445,0.22334 -0.188699,0.21722 -0.428903,-0.023 z"
       id="path10320" />
    <path
       style="fill:#3b8472"
       d="m 95.642377,124.1921 c 0.152532,-0.10692 0.547593,-0.58134 0.877913,-1.05429 0.33032,-0.47294 0.741302,-0.85611 0.913294,-0.85148 0.187018,0.005 0.145198,0.13797 -0.104043,0.33073 -0.229216,0.17728 -0.629862,0.64974 -0.890326,1.04992 -0.260463,0.40018 -0.608704,0.72578 -0.773869,0.72355 -0.203286,-0.003 -0.210706,-0.0669 -0.02297,-0.19843 z"
       id="path10316" />
    <path
       style="fill:#3b8472"
       d="m 104.19484,124.58038 c 0.32211,-0.39953 0.29222,-0.45086 -0.26458,-0.45445 -0.48454,-0.003 -0.54007,-0.0595 -0.24347,-0.24713 0.21133,-0.13369 0.47922,-0.18437 0.59531,-0.11262 0.11609,0.0717 0.22047,-0.0849 0.23196,-0.34819 0.0122,-0.28049 0.0764,-0.34104 0.15489,-0.14626 0.0737,0.18281 0.23244,0.27154 0.35276,0.19718 0.5451,-0.33689 0.0282,0.72335 -0.545,1.1179 -0.6063,0.41732 -0.62321,0.41694 -0.28187,-0.006 z"
       id="path10309" />
    <path
       style="fill:#3b8472"
       d="m 89.830121,124.7516 c -0.08246,-0.21488 -0.03217,-0.3132 0.113998,-0.22287 0.263586,0.1629 0.322028,-0.13448 0.312339,-1.58937 -0.004,-0.60151 0.0257,-0.64957 0.122657,-0.19844 0.07037,0.32742 0.20896,0.5953 0.30798,0.59529 0.09902,-10e-6 0.168884,0.37723 0.155254,0.83831 -0.02627,0.8887 -0.737132,1.29397 -1.012228,0.57708 z"
       id="path10308" />
    <path
       style="fill:#3b8472"
       d="m 92.157492,125.62966 c 0.09067,-0.26657 0.178658,-0.92141 0.195538,-1.45521 0.01688,-0.5338 0.08847,-0.74491 0.159088,-0.46913 0.103824,0.40547 0.174994,0.43078 0.371881,0.1323 0.169086,-0.25634 0.206943,-0.14829 0.123896,0.35362 -0.06577,0.39751 -0.321113,0.99282 -0.56742,1.32291 -0.3306,0.44306 -0.404678,0.47329 -0.282983,0.11551 z"
       id="path10305" />
    <path
       style="fill:#3b8472"
       d="m 70.425364,124.63773 c -0.473692,-0.71585 -0.737544,-1.30154 -0.586337,-1.30154 0.151206,0 0.350089,0.20836 0.441962,0.46302 0.09187,0.25466 0.398782,0.7973 0.682019,1.20586 0.283236,0.40856 0.47192,0.78589 0.419295,0.83852 -0.05262,0.0526 -0.483246,-0.49001 -0.956939,-1.20586 z"
       id="path10304" />
    <path
       style="fill:#3b8472"
       d="m 66.22181,125.71921 c -0.312531,-0.1261 -0.658349,-0.37507 -0.768485,-0.55327 -0.135686,-0.21955 -0.09016,-0.25598 0.141196,-0.11299 0.187793,0.11607 0.593143,0.23833 0.900776,0.2717 0.955205,0.10362 0.991843,0.12108 0.823918,0.39279 -0.191483,0.30983 -0.333338,0.31006 -1.097405,0.002 z"
       id="path10303" />
    <path
       style="fill:#3b8472"
       d="m 80.761682,126.33547 c -0.173726,-0.0677 -0.25317,-0.28639 -0.176541,-0.48608 0.07663,-0.1997 0.295711,-0.30307 0.486851,-0.22972 0.19114,0.0734 0.538474,-0.13926 0.771853,-0.47245 0.23338,-0.3332 0.423736,-0.49003 0.423013,-0.34851 -0.0024,0.46026 -1.180549,1.66317 -1.505176,1.53676 z"
       id="path10300" />
    <path
       style="fill:#3b8472"
       d="m 74.617753,125.497 c -0.416944,-0.81728 -0.443679,-1.01424 -0.137669,-1.01424 0.208865,0 0.379755,0.15875 0.379755,0.35278 0,0.5686 0.03843,0.72395 0.299984,1.21267 0.13629,0.25466 0.1865,0.46302 0.111578,0.46302 -0.07492,0 -0.369065,-0.4564 -0.653648,-1.01423 z"
       id="path10299" />
    <path
       style="fill:#3b8472"
       d="m 84.964933,126.11437 c 0.01915,-0.50933 0.134584,-0.92605 0.256526,-0.92605 0.121942,0 0.221713,0.41672 0.221713,0.92605 0,0.50932 -0.115437,0.92604 -0.256526,0.92604 -0.14109,0 -0.240861,-0.41672 -0.221713,-0.92604 z"
       id="path10294" />
    <path
       style="fill:#3b8472"
       d="m 67.627895,126.86402 c -0.321379,-0.32138 -0.182812,-0.60322 0.220486,-0.44846 0.218282,0.0838 0.396875,0.0205 0.396875,-0.14059 0,-0.16109 0.267891,-0.2835 0.595313,-0.27201 0.396613,0.0139 0.462846,0.071 0.198437,0.17109 -0.218281,0.0826 -0.492088,0.31134 -0.608459,0.50828 -0.230715,0.39045 -0.526854,0.45749 -0.802652,0.18169 z"
       id="path10293" />
    <path
       style="fill:#3b8472"
       d="m 98.425849,127.21347 c 0.26439,-0.23019 2.363151,-0.42477 2.363151,-0.21909 0,0.12365 -0.5574,0.2459 -1.238672,0.27167 -0.681272,0.0258 -1.187288,0.002 -1.124479,-0.0526 z"
       id="path10291" />
    <path
       style="fill:#3b8472"
       d="m 61.895257,126.84156 c -1.134759,-0.56688 -1.462543,-1.67161 -0.481423,-1.62254 0.446717,0.0223 0.487987,0.0636 0.151667,0.1515 -0.374123,0.0978 -0.408023,0.22176 -0.178146,0.65129 0.166871,0.3118 0.444801,0.46873 0.674227,0.38069 0.219459,-0.0842 0.319563,-0.0353 0.228677,0.11177 -0.08891,0.14386 0.02397,0.26155 0.250841,0.26155 0.226869,0 0.41249,0.11907 0.41249,0.26459 0,0.33898 0.02931,0.34449 -1.058333,-0.19885 z"
       id="path10290" />
    <path
       style="fill:#3b8472"
       d="m 101.78119,127.65176 c -0.52567,-0.13737 -0.63806,-0.87809 -0.13229,-0.87189 0.40131,0.005 1.23438,0.51364 0.8599,0.52511 -0.14552,0.004 -0.086,0.12352 0.13229,0.26458 0.35278,0.22799 0.35278,0.25352 0,0.22984 -0.21828,-0.0147 -0.60524,-0.0811 -0.8599,-0.14764 z"
       id="path10287" />
    <path
       style="fill:#3b8472"
       d="m 73.030608,127.46481 c -0.174425,-0.21017 -0.331519,-0.65953 -0.349096,-0.99858 -0.01758,-0.33905 -0.111475,-0.73552 -0.20866,-0.88104 -0.33691,-0.50447 -0.505771,-1.19063 -0.293012,-1.19063 0.331499,0 0.827916,1.2634 0.827916,2.10707 0,0.41759 0.148828,0.81241 0.330729,0.87737 0.181901,0.065 0.258399,0.19683 0.169995,0.29303 -0.0884,0.0962 -0.303446,0.003 -0.477872,-0.20722 z"
       id="path10286" />
    <path
       style="fill:#3b8472"
       d="m 93.490987,126.9522 c 0.516722,-0.63059 1.114768,-1.14652 1.328992,-1.14652 0.214224,0 0.326978,0.10116 0.250563,0.2248 -0.07641,0.12364 -0.23628,0.16464 -0.355257,0.0911 -0.118977,-0.0735 -0.377707,0.0608 -0.574955,0.29843 -0.317895,0.38304 -0.291246,0.41074 0.234604,0.24384 0.90891,-0.28848 0.705051,0.0341 -0.332804,0.52656 -0.509323,0.24169 -0.926042,0.54494 -0.926042,0.67388 0,0.12893 -0.127033,0.23443 -0.282297,0.23443 -0.155263,0 0.140475,-0.51594 0.657196,-1.14653 z"
       id="path10285" />
    <path
       style="fill:#3b8472"
       d="m 87.426469,130.70221 c -0.0903,-0.35978 -0.118691,-1.24156 -0.0631,-1.95952 0.09615,-1.24165 0.103412,-1.22464 0.148774,0.34826 0.02895,1.00368 0.16279,1.65364 0.340527,1.65364 0.202044,0 0.257642,-0.81615 0.179322,-2.63238 -0.06656,-1.54345 -0.01399,-2.57087 0.127088,-2.48368 0.132332,0.0818 0.181846,0.37339 0.110032,0.64801 -0.07181,0.27462 -0.05242,0.49928 0.0431,0.49926 0.09552,-3e-5 0.154933,0.84789 0.132036,1.88426 -0.02863,1.296 -0.168387,2.01107 -0.447616,2.2903 -0.364925,0.36492 -0.42259,0.33983 -0.570164,-0.24815 z"
       id="path10270" />
    <path
       style="fill:#3b8472"
       d="m 83.02959,131.86594 c 0.175387,-0.32914 0.47864,-1.40071 0.673895,-2.38125 0.287531,-1.44394 0.360879,-1.59718 0.38589,-0.80623 0.01698,0.53711 0.149943,1.05016 0.295464,1.14009 0.357008,0.22065 0.338683,1.71979 -0.02102,1.71979 -0.177612,0 -0.221777,-0.2906 -0.116801,-0.76856 0.106938,-0.48688 0.04968,-0.84218 -0.156232,-0.96944 -0.224403,-0.13869 -0.273735,-0.0672 -0.159338,0.23092 0.09114,0.23749 0.05184,0.50218 -0.08733,0.58818 -0.139166,0.086 -0.253028,0.3729 -0.253028,0.63754 0,0.26463 -0.198087,0.64456 -0.440193,0.84428 -0.399365,0.32945 -0.410616,0.30762 -0.121306,-0.23532 z"
       id="path10267" />
    <path
       style="fill:#3b8472"
       d="m 87.030672,132.81621 c 0,-0.0755 0.297511,-0.4832 0.661135,-0.90601 0.363624,-0.42282 0.661281,-0.65633 0.661458,-0.51892 1.78e-4,0.13741 0.29798,-0.15361 0.661782,-0.64672 0.363802,-0.4931 0.663281,-1.08178 0.66551,-1.30817 0.0034,-0.34126 0.04409,-0.34838 0.238315,-0.0416 0.156541,0.24724 0.06742,0.54908 -0.268635,0.90979 -0.276594,0.29689 -0.521033,0.66617 -0.543198,0.82063 -0.02217,0.15447 -0.06796,0.39991 -0.101772,0.54543 -0.03381,0.14552 -0.08275,0.5027 -0.108763,0.79375 -0.04238,0.47424 -0.07367,0.46321 -0.301437,-0.10632 l -0.254146,-0.63548 -0.655125,0.61545 c -0.360318,0.33851 -0.655124,0.5537 -0.655124,0.4782 z"
       id="path10264" />
    <path
       style="fill:#3b8472"
       d="m 68.671733,133.07791 c 0.08823,-0.14276 0.437789,-0.18995 0.776798,-0.10486 0.339008,0.0851 0.690233,0.0352 0.7805,-0.11086 0.09027,-0.14605 0.365454,-0.26177 0.611528,-0.25714 0.406156,0.008 0.40339,0.0418 -0.03,0.37042 -0.545834,0.41389 -2.385775,0.50201 -2.138825,0.10244 z"
       id="path10260" />
    <path
       style="fill:#3b8472"
       d="m 91.706416,133.6414 c 0.170565,-0.17359 0.706346,-0.3576 1.190625,-0.40892 1.013515,-0.10741 0.555845,0.24074 -0.706994,0.53781 -0.613093,0.14422 -0.723167,0.11489 -0.483631,-0.12889 z"
       id="path10255" />
    <path
       style="fill:#3b8472"
       d="m 79.093172,134.93386 c -0.637336,-0.53533 -0.639748,-0.54883 -0.06614,-0.37024 0.655512,0.2041 0.857776,-0.29536 0.218894,-0.54053 -0.207029,-0.0794 -0.450278,-0.33692 -0.540552,-0.57217 -0.14624,-0.38109 -0.110576,-0.37926 0.327113,0.0169 0.335014,0.30318 0.591076,0.36157 0.805136,0.1836 0.222906,-0.18533 0.240787,-0.17253 0.06169,0.0441 -0.161017,0.19481 -0.151473,0.49333 0.0264,0.82568 0.215986,0.40358 0.203098,0.47391 -0.05735,0.31294 -0.238036,-0.14711 -0.286704,-0.0793 -0.166992,0.23266 0.210159,0.54766 0.199233,0.54527 -0.608192,-0.13293 z"
       id="path10246" />
    <path
       style="fill:#3b8472"
       d="m 68.564961,135.47399 c 0.0667,-0.20009 0.216769,-0.30427 0.333493,-0.23151 0.116724,0.0728 0.310961,-0.13461 0.431636,-0.46083 0.15554,-0.42046 0.409125,-0.57742 0.87113,-0.53918 0.358446,0.0297 0.600654,0.13656 0.53824,0.23755 -0.06241,0.10099 -0.321722,0.12952 -0.576238,0.0634 -0.296657,-0.0771 -0.557726,0.0919 -0.727341,0.47074 -0.290553,0.64896 -1.071382,1.06121 -0.87092,0.45982 z"
       id="path10244" />
    <path
       style="fill:#317866"
       d="m 82.450343,100.38365 c 1.186062,-1.069846 1.274831,-1.667566 0.49307,-3.320073 -0.371382,-0.785038 -0.67253,-1.594448 -0.669216,-1.798687 0.0033,-0.20424 0.207256,0.03724 0.453206,0.536626 0.245949,0.499384 0.879647,1.362587 1.408216,1.918229 0.74752,0.785806 1.161183,1.00993 1.861898,1.008782 2.310414,-0.0038 4.313738,-1.254042 4.642384,-2.897274 0.08981,-0.449036 0.279725,-0.888392 0.422041,-0.976348 0.313579,-0.193802 0.0712,0.720077 -0.536537,2.023015 -0.251016,0.538153 -0.436148,1.626323 -0.441983,2.597887 -0.01115,1.856533 0.206263,1.740903 -2.126708,1.131003 -1.526948,-0.39919 -4.376833,-0.33977 -5.159375,0.10757 -1.060437,0.6062 -1.218591,0.45546 -0.346996,-0.33073 z"
       id="path7941" />
    <path
       style="fill:#317866"
       d="m 86.782447,110.76852 c -0.04346,-0.58208 -0.06197,-1.15648 -0.04114,-1.27643 0.02084,-0.11996 -0.08607,-0.1415 -0.237567,-0.0479 -0.1515,0.0936 -0.221837,0.257 -0.156305,0.36303 0.06553,0.10603 -0.0033,0.3657 -0.152935,0.57703 -0.224659,0.31727 -0.247177,0.30629 -0.129188,-0.063 0.07859,-0.24599 -0.148301,-0.87635 -0.504208,-1.40081 C 85.205197,108.39598 84.914,107.896 84.914,107.80936 c 0,-0.0866 -0.185999,-0.29353 -0.413331,-0.45975 -0.319794,-0.23384 0.184021,-0.30032 2.226297,-0.29376 1.954116,0.006 2.574275,0.0873 2.387978,0.3119 -0.138407,0.16688 -0.47196,0.24581 -0.741228,0.17539 -0.269268,-0.0704 -0.569573,0.001 -0.667345,0.15961 -0.101607,0.1644 0.01659,0.28763 0.275876,0.28763 0.359142,0 0.3104,0.12401 -0.233978,0.59531 -0.530951,0.45968 -0.710311,0.89673 -0.787212,1.91823 -0.0957,1.27128 -0.102676,1.28161 -0.178615,0.26458 z"
       id="path7932" />
    <path
       style="fill:#317866"
       d="m 64.452895,119.98484 c -0.260571,-0.26057 -0.214294,-1.14652 0.05989,-1.14652 0.129952,0 0.314951,0.20502 0.411109,0.4556 0.149768,0.39029 0.210141,0.39977 0.421131,0.0661 0.135464,-0.21421 0.248121,-0.26445 0.25035,-0.11165 0.0044,0.30274 -0.529267,0.91281 -0.798518,0.91281 -0.09216,0 -0.246945,-0.0794 -0.343959,-0.17639 z"
       id="path7927" />
    <path
       style="fill:#317866"
       d="m 88.119697,128.42946 c 0.03258,-1.61478 0.149412,-1.45654 0.293032,0.39688 0.04792,0.61846 -0.0053,1.12447 -0.118294,1.12447 -0.112987,0 -0.191618,-0.6846 -0.174738,-1.52135 z"
       id="path7921" />
    <path
       style="fill:#605b33"
       d="m 82.450343,100.38363 c 1.186062,-1.069846 1.274831,-1.667566 0.49307,-3.320073 -0.371382,-0.785038 -0.67253,-1.594448 -0.669216,-1.798687 0.0033,-0.20424 0.207256,0.03724 0.453206,0.536626 0.245949,0.499384 0.879647,1.362587 1.408216,1.918229 0.74752,0.785806 1.161183,1.00993 1.861898,1.008782 2.310414,-0.0038 4.313738,-1.254042 4.642384,-2.897274 0.08981,-0.449036 0.279725,-0.888392 0.422041,-0.976348 0.313579,-0.193802 0.0712,0.720077 -0.536537,2.023015 -0.251016,0.538153 -0.436148,1.626323 -0.441983,2.597887 -0.01115,1.856533 0.206263,1.740903 -2.126708,1.131003 -1.526948,-0.39919 -4.376833,-0.33977 -5.159375,0.10757 -1.060437,0.6062 -1.218591,0.45546 -0.346996,-0.33073 z"
       id="path7885" />
    <path
       style="fill:#605b33"
       d="m 84.24663,107.18707 c -0.114547,-0.18534 0.41612,-0.21647 1.638031,-0.0961 2.354772,0.23195 2.45925,0.37027 0.279681,0.37027 -0.96155,0 -1.824521,-0.12337 -1.917712,-0.27416 z"
       id="path7880" />
  </g>
</svg>
