<?xml version="1.0" encoding="UTF-8" standalone="no"?>
<!-- Created with Inkscape (http://www.inkscape.org/) -->

<svg
   width="185"
   height="185"
   viewBox="0 0 48.947914 48.947918"
   version="1.1"
   id="svg1"
   xmlns="http://www.w3.org/2000/svg"
   xmlns:svg="http://www.w3.org/2000/svg">
  <defs
     id="defs1" />
  <g
     id="g11733"
     transform="translate(-60.942194,-19.670052)">
    <path
       style="fill:#fbdb6c"
       d="m 74.353892,68.375134 c -0.698784,-0.131698 -1.346136,-0.666295 -1.346136,-1.111667 0,-0.301723 0.528604,-0.351724 3.012616,-0.284965 1.412,0.03795 1.538888,-0.0033 1.359045,-0.441351 -0.645828,-1.573218 -0.137871,-1.947287 1.750997,-1.289464 0.634361,0.220924 1.510571,0.404826 1.947133,0.408671 0.436563,0.0038 1.418828,0.173395 2.182813,0.376777 0.763984,0.203383 1.389062,0.317074 1.389062,0.252647 0,-0.211309 -1.301861,-2.602605 -1.669572,-3.066718 -0.44515,-0.561854 -2.343736,-1.389208 -3.754386,-1.636062 -1.599281,-0.279864 -3.657435,-0.97132 -4.08187,-1.371344 -0.326076,-0.307321 -0.317035,-0.37926 0.06615,-0.5263 0.244117,-0.09368 0.443849,-0.326717 0.443849,-0.517866 0,-0.941458 2.197445,-0.63985 4.722083,0.648124 0.604313,0.308297 1.09875,0.497721 1.09875,0.420941 0,-0.07678 -0.934413,-1.065262 -2.076474,-2.196629 -2.289596,-2.268157 -2.889236,-3.133399 -2.465325,-3.55731 0.509645,-0.509645 1.617304,0.07046 3.206101,1.679107 1.431377,1.449259 1.562455,1.528297 1.303734,0.786129 -0.377486,-1.082855 -0.108353,-2.138702 0.545149,-2.138702 0.592722,0 0.796403,0.717712 0.90941,3.204499 0.07899,1.738267 0.834677,3.509622 1.226671,2.875363 0.10755,-0.174019 0.255462,0.04326 0.349487,0.513379 0.08966,0.448301 0.268664,0.815092 0.397788,0.815092 0.2613,0 0.468658,-1.509308 0.735534,-5.353792 0.17344,-2.498479 0.157631,-2.606211 -0.527534,-3.594904 -1.061868,-1.532276 -1.239606,-2.438122 -0.804967,-4.102536 0.568343,-2.176424 1.107844,-3.301492 1.74725,-3.643692 0.504666,-0.270089 0.654495,-0.215095 1.167783,0.428629 0.32386,0.406159 0.788861,1.451354 1.033336,2.322656 0.537326,1.915017 0.351934,3.626693 -0.519652,4.797798 -0.535664,0.719746 -0.62382,1.229291 -0.779929,4.508034 -0.0968,2.033112 -0.241168,3.997643 -0.320814,4.365624 -0.07965,0.367982 0.337165,-0.283442 0.926248,-1.447609 0.589083,-1.164166 1.075311,-2.270238 1.080507,-2.457936 0.01539,-0.555831 0.968374,-2.265587 1.562065,-2.802503 0.543477,-0.491504 0.554174,-0.488524 0.827592,0.23062 0.165846,0.436209 0.181539,0.848359 0.03911,1.027107 -0.130839,0.1642 -0.317006,0.556955 -0.413704,0.872788 l -0.175816,0.574242 1.582928,-0.54049 c 1.740239,-0.594204 3.375056,-0.49254 3.651191,0.227057 0.198417,0.517067 -0.215947,0.783697 -2.036835,1.310635 -1.64615,0.476371 -3.170494,1.389672 -3.173192,1.901198 -0.0013,0.247285 0.251257,0.295243 0.906988,0.172227 1.082447,-0.203068 2.795371,0.300444 2.795371,0.821696 0,0.57932 -1.510648,1.235825 -2.396157,1.041335 -1.312881,-0.288357 -3.451087,0.527687 -4.284572,1.635203 -0.847993,1.126794 -1.00728,2.374795 -0.264584,2.072989 1.414151,-0.57466 2.312872,-0.698888 4.828646,-0.667448 1.527969,0.01909 3.01625,0.05785 3.307292,0.08612 0.889061,0.08637 2.549181,1.259304 2.45571,1.735051 -0.104868,0.533755 -2.059666,0.544109 -5.617276,0.02975 -2.249189,-0.325185 -2.455593,-0.312453 -4.119873,0.254149 l -1.752057,0.596485 -1.794976,-0.554411 c -2.211183,-0.682965 -2.906046,-0.68562 -5.543053,-0.02118 -1.996204,0.502977 -3.256748,0.593383 -4.63963,0.332754 z"
       id="path11714" />
    <path
       style="fill:#fb8601"
       d="m 74.353892,68.375134 c -0.698784,-0.131698 -1.346136,-0.666295 -1.346136,-1.111667 0,-0.301723 0.528604,-0.351724 3.012616,-0.284965 1.412,0.03795 1.538888,-0.0033 1.359045,-0.441351 -0.645828,-1.573218 -0.137871,-1.947287 1.750997,-1.289464 0.634361,0.220924 1.510571,0.404826 1.947133,0.408671 0.436563,0.0038 1.418828,0.173395 2.182813,0.376777 0.763984,0.203383 1.389062,0.317074 1.389062,0.252647 0,-0.211309 -1.301861,-2.602605 -1.669572,-3.066718 -0.44515,-0.561854 -2.343736,-1.389208 -3.754386,-1.636062 -1.599281,-0.279864 -3.657435,-0.97132 -4.08187,-1.371344 -0.326076,-0.307321 -0.317035,-0.37926 0.06615,-0.5263 0.244117,-0.09368 0.443849,-0.326717 0.443849,-0.517866 0,-0.941458 2.197445,-0.63985 4.722083,0.648124 0.604313,0.308297 1.09875,0.497721 1.09875,0.420941 0,-0.07678 -0.934413,-1.065262 -2.076474,-2.196629 -2.289596,-2.268157 -2.889236,-3.133399 -2.465325,-3.55731 0.509645,-0.509645 1.617304,0.07046 3.206101,1.679107 1.431377,1.449259 1.562455,1.528297 1.303734,0.786129 -0.377486,-1.082855 -0.108353,-2.138702 0.545149,-2.138702 0.592722,0 0.796403,0.717712 0.90941,3.204499 0.07899,1.738267 0.834677,3.509622 1.226671,2.875363 0.10755,-0.174019 0.255462,0.04326 0.349487,0.513379 0.08966,0.448301 0.268664,0.815092 0.397788,0.815092 0.261012,0 0.46867,-1.509392 0.734462,-5.338542 0.177396,-2.555659 0.176181,-2.562749 -0.653722,-3.815673 -1.112594,-1.679711 -1.145408,-2.351763 -0.254837,-5.219245 0.386207,-1.243521 0.765411,-1.939804 1.217911,-2.236293 0.633169,-0.414868 0.679037,-0.403012 1.260088,0.325695 0.33165,0.415929 0.803025,1.469117 1.0475,2.340419 0.537326,1.915017 0.351934,3.626693 -0.519652,4.797798 -0.535664,0.719746 -0.62382,1.229291 -0.779929,4.508034 -0.0968,2.033112 -0.241168,3.997643 -0.320814,4.365624 -0.07965,0.367982 0.337165,-0.283442 0.926248,-1.447609 0.589083,-1.164166 1.075311,-2.270238 1.080507,-2.457936 0.01539,-0.555831 0.968374,-2.265587 1.562065,-2.802503 0.543477,-0.491504 0.554174,-0.488524 0.827592,0.23062 0.165846,0.436209 0.181539,0.848359 0.03911,1.027107 -0.130839,0.1642 -0.317006,0.556955 -0.413704,0.872788 l -0.175816,0.574242 1.582928,-0.54049 c 1.740239,-0.594204 3.375056,-0.49254 3.651191,0.227057 0.198417,0.517067 -0.215947,0.783697 -2.036835,1.310635 -1.64615,0.476371 -3.170494,1.389672 -3.173192,1.901198 -0.0013,0.247285 0.251257,0.295243 0.906988,0.172227 1.082447,-0.203068 2.795371,0.300444 2.795371,0.821696 0,0.57932 -1.510648,1.235825 -2.396157,1.041335 -1.312881,-0.288357 -3.451087,0.527687 -4.284572,1.635203 -0.847993,1.126794 -1.00728,2.374795 -0.264584,2.072989 1.414151,-0.57466 2.312872,-0.698888 4.828646,-0.667448 1.527969,0.01909 3.01625,0.05785 3.307292,0.08612 0.889061,0.08637 2.549181,1.259304 2.45571,1.735051 -0.104868,0.533755 -2.059666,0.544109 -5.617276,0.02975 -2.249189,-0.325185 -2.455593,-0.312453 -4.119873,0.254149 l -1.752057,0.596485 -1.794976,-0.554411 c -2.211183,-0.682965 -2.906046,-0.68562 -5.543053,-0.02118 -1.996204,0.502977 -3.256748,0.593383 -4.63963,0.332754 z"
       id="path11672" />
    <path
       style="fill:#5a9b88"
       d="m 74.353892,68.375134 c -0.698784,-0.131698 -1.346136,-0.666295 -1.346136,-1.111667 0,-0.301723 0.528604,-0.351724 3.012616,-0.284965 1.412,0.03795 1.538888,-0.0033 1.359045,-0.441351 -0.645828,-1.573218 -0.137871,-1.947287 1.750997,-1.289464 0.634361,0.220924 1.510571,0.404826 1.947133,0.408671 0.436563,0.0038 1.418828,0.173395 2.182813,0.376777 0.763984,0.203383 1.389062,0.317074 1.389062,0.252647 0,-0.211309 -1.301861,-2.602605 -1.669572,-3.066718 -0.44515,-0.561854 -2.343736,-1.389208 -3.754386,-1.636062 -1.599281,-0.279864 -3.657435,-0.97132 -4.08187,-1.371344 -0.326076,-0.307321 -0.317035,-0.37926 0.06615,-0.5263 0.244117,-0.09368 0.443849,-0.326717 0.443849,-0.517866 0,-0.941458 2.197445,-0.63985 4.722083,0.648124 0.604313,0.308297 1.09875,0.497721 1.09875,0.420941 0,-0.07678 -0.934413,-1.065262 -2.076474,-2.196629 -2.289596,-2.268157 -2.889236,-3.133399 -2.465325,-3.55731 0.509645,-0.509645 1.617304,0.07046 3.206101,1.679107 1.431377,1.449259 1.562455,1.528297 1.303734,0.786129 -0.377486,-1.082855 -0.108353,-2.138702 0.545149,-2.138702 0.592722,0 0.796403,0.717712 0.90941,3.204499 0.07899,1.738267 0.834677,3.509622 1.226671,2.875363 0.10755,-0.174019 0.255462,0.04326 0.349487,0.513379 0.08966,0.448301 0.268664,0.815092 0.397788,0.815092 0.261012,0 0.46867,-1.509392 0.734462,-5.338542 0.177396,-2.555659 0.176181,-2.562749 -0.653722,-3.815673 -1.112594,-1.679711 -1.145408,-2.351763 -0.254837,-5.219245 0.386207,-1.243521 0.765411,-1.939804 1.217911,-2.236293 0.633169,-0.414868 0.679037,-0.403012 1.260088,0.325695 0.33165,0.415929 0.803025,1.469117 1.0475,2.340419 0.537326,1.915017 0.351934,3.626693 -0.519652,4.797798 -0.535664,0.719746 -0.62382,1.229291 -0.779929,4.508034 -0.0968,2.033112 -0.241168,3.997643 -0.320814,4.365624 -0.07965,0.367982 0.337165,-0.283442 0.926248,-1.447609 0.589083,-1.164166 1.075311,-2.270238 1.080507,-2.457936 0.01539,-0.555831 0.968374,-2.265587 1.562065,-2.802503 0.543477,-0.491504 0.554174,-0.488524 0.827592,0.23062 0.165846,0.436209 0.181539,0.848359 0.03911,1.027107 -0.130839,0.1642 -0.317006,0.556955 -0.413704,0.872788 l -0.175816,0.574242 1.582928,-0.54049 c 1.740239,-0.594204 3.375056,-0.49254 3.651191,0.227057 0.198417,0.517067 -0.215947,0.783697 -2.036835,1.310635 -1.64615,0.476371 -3.170494,1.389672 -3.173192,1.901198 -0.0013,0.247285 0.251257,0.295243 0.906988,0.172227 1.082447,-0.203068 2.795371,0.300444 2.795371,0.821696 0,0.57932 -1.510648,1.235825 -2.396157,1.041335 -1.312881,-0.288357 -3.451087,0.527687 -4.284572,1.635203 -0.847993,1.126794 -1.00728,2.374795 -0.264584,2.072989 1.414151,-0.57466 2.312872,-0.698888 4.828646,-0.667448 1.527969,0.01909 3.01625,0.05785 3.307292,0.08612 0.889061,0.08637 2.549181,1.259304 2.45571,1.735051 -0.104868,0.533755 -2.059666,0.544109 -5.617276,0.02975 -2.249189,-0.325185 -2.455593,-0.312453 -4.119873,0.254149 l -1.752057,0.596485 -1.794976,-0.554411 c -2.211183,-0.682965 -2.906046,-0.68562 -5.543053,-0.02118 -1.996204,0.502977 -3.256748,0.593383 -4.63963,0.332754 z"
       id="path11633" />
    <path
       style="fill:#478c79"
       d="m 88.90278,58.609315 c 0.396764,-0.4316 0.525379,-0.739414 0.337183,-0.806972 -0.219627,-0.07884 -0.191727,-0.395677 0.100311,-1.139133 0.432942,-1.102165 1.08399,-1.557114 1.435505,-1.003124 0.321679,0.506967 0.260519,0.931827 -0.06794,0.471982 -0.22775,-0.318849 -0.257832,-0.279836 -0.15301,0.198438 0.07176,0.327422 0.02629,0.595312 -0.101036,0.595312 -0.12733,0 -0.166547,0.169291 -0.08715,0.376201 0.178467,0.465076 -0.366907,1.543357 -0.68208,1.34857 -0.126488,-0.07817 -0.409666,0.03755 -0.629285,0.257172 -0.69192,0.691921 -0.824463,0.432523 -0.152496,-0.298446 z"
       id="path11600" />
    <path
       style="fill:#478c79"
       d="m 74.946592,68.354838 c -1.128695,-0.08216 -1.856563,-0.601237 -1.546519,-1.102898 0.205875,-0.333113 2.603491,-0.293343 3.098707,0.0514 0.225742,0.157149 0.127679,0.178806 -0.283012,0.0625 -0.417691,-0.118286 -0.569484,-0.08257 -0.452627,0.106512 0.205749,0.332908 2.007115,0.32293 2.007115,-0.01112 0,-0.124715 0.315415,-0.14759 0.700921,-0.05083 0.53698,0.134774 0.651073,0.09526 0.487794,-0.168929 -0.158145,-0.255883 -0.06584,-0.306333 0.357776,-0.195554 0.344426,0.09007 0.50626,0.0447 0.407949,-0.114375 -0.08963,-0.145018 -0.536275,-0.194561 -0.992553,-0.110095 -0.71053,0.131533 -0.876007,0.05366 -1.15297,-0.54257 -0.370453,-0.797492 -0.241913,-1.150982 0.418533,-1.150982 0.563885,0 1.884312,0.592033 1.887152,0.846133 0.0011,0.10157 0.349967,0.06339 0.775182,-0.08484 0.598596,-0.208671 1.165996,-0.151643 2.513541,0.25263 0.957234,0.287177 1.740424,0.484052 1.740424,0.437501 0,-0.04655 -0.246652,-0.660057 -0.548117,-1.363345 -0.301465,-0.703289 -0.515236,-1.278707 -0.475047,-1.278707 0.04019,0 -0.24894,-0.32201 -0.642508,-0.715577 -0.767493,-0.767494 -0.919026,-1.406732 -0.384848,-1.623481 0.248698,-0.100912 0.232308,-0.202414 -0.06608,-0.409234 -0.298685,-0.207023 -0.4413,-0.162933 -0.576716,0.178295 -0.09895,0.249332 -0.188273,0.304503 -0.198501,0.122602 -0.01023,-0.181901 -0.137659,-0.330729 -0.283179,-0.330729 -0.145521,0 -0.234818,0.133945 -0.198438,0.297656 0.03638,0.163711 -0.09518,0.356391 -0.292348,0.428178 -0.264634,0.09635 -0.313281,-0.03354 -0.185804,-0.496093 0.146247,-0.530666 0.128228,-0.555716 -0.117674,-0.163596 -0.386362,0.616102 -1.372423,0.62072 -1.267856,0.0059 0.04276,-0.251396 -0.06116,-0.459755 -0.230936,-0.463021 -0.169774,-0.0033 -0.396127,-0.09338 -0.503005,-0.200262 -0.106879,-0.106879 -0.328699,-0.01056 -0.492934,0.214047 -0.248073,0.339259 -0.431612,0.355478 -1.084495,0.09583 -0.432237,-0.171898 -1.083541,-0.333862 -1.447343,-0.35992 -0.379354,-0.02717 -0.661459,-0.210851 -0.661459,-0.430674 0,-0.210812 0.141523,-0.355963 0.314496,-0.322559 0.182644,0.03527 0.272207,-0.158848 0.213629,-0.463021 -0.08591,-0.446075 0.04404,-0.52322 0.876129,-0.520143 1.36734,0.0051 2.167621,0.259325 2.167621,0.688705 0,0.201309 0.119063,0.366016 0.264583,0.366016 0.145521,0 0.264584,-0.121807 0.264584,-0.270683 0,-0.238247 1.2371,0.395334 1.5875,0.813037 0.07276,0.08674 0.340651,0.234578 0.595312,0.328537 0.978698,0.361097 0.37046,-0.468813 -2.077513,-2.83466 -1.779668,-1.719963 -2.51173,-2.60487 -2.444357,-2.954708 0.154903,-0.804347 0.808998,-0.691414 1.942183,0.335327 0.582083,0.527407 0.849974,0.885141 0.595312,0.794965 -0.254661,-0.09018 -0.463021,-0.06351 -0.463021,0.05925 0,0.122764 0.327422,0.291298 0.727605,0.37452 0.452343,0.09407 0.918498,0.481937 1.2322,1.02526 l 0.504596,0.873948 0.181329,-0.661459 c 0.09973,-0.363802 0.118459,-0.775136 0.04162,-0.914075 -0.265509,-0.480071 -0.297868,-1.705614 -0.04909,-1.859364 0.380699,-0.235285 1.065914,1.302223 1.065914,2.391733 0,0.800516 -0.07735,0.937806 -0.448187,0.795503 -0.38643,-0.148287 -0.379359,-0.09593 0.05131,0.379953 0.345046,0.381272 0.378909,0.505665 0.109513,0.402288 -0.469241,-0.180065 -0.662957,1.057217 -0.20941,1.337525 0.196731,0.121587 0.225465,-0.02127 0.09008,-0.447833 -0.172441,-0.543315 -0.144738,-0.581502 0.208923,-0.287989 0.224249,0.18611 0.353159,0.547046 0.286467,0.802079 -0.07014,0.268196 0.132218,0.682413 0.47995,0.982459 l 0.60121,0.518763 -0.458736,-0.727604 c -0.252305,-0.400183 -0.393837,-0.727604 -0.314517,-0.727604 0.07932,0 0.485656,0.538391 0.902969,1.196426 0.643838,1.015227 0.726213,1.340695 0.543907,2.149015 -0.149314,0.662039 -0.130562,0.868308 0.06148,0.676268 0.151977,-0.151977 0.320082,-0.652157 0.373565,-1.111511 0.05348,-0.459354 0.161312,-0.938855 0.239618,-1.065556 0.07831,-0.126702 0.21225,-2.01238 0.297654,-4.190396 0.154024,-3.928019 0.149916,-3.967158 -0.508137,-4.842033 -1.219083,-1.620757 -1.177634,-3.71728 0.128423,-6.495797 0.596582,-1.269173 1.429004,-1.51892 2.0024,-0.600768 1.289765,2.065243 1.518556,5.215937 0.492843,6.786987 -0.65006,0.995677 -1.088774,3.665444 -1.066644,6.490999 0.0042,0.537906 -0.08971,0.917832 -0.208718,0.844281 -0.119008,-0.07355 -0.216378,-0.01756 -0.216378,0.124421 0,0.141982 0.148828,0.318203 0.330729,0.391602 0.226022,0.0912 0.205006,0.140065 -0.06638,0.15434 -0.500242,0.02631 -0.552284,1.953921 -0.06591,2.441207 0.264826,0.265321 0.330729,0.24172 0.330729,-0.118444 0,-0.247385 -0.119063,-0.449792 -0.264584,-0.449792 -0.14552,0 -0.264583,-0.115325 -0.264583,-0.256279 0,-0.140954 0.198125,-0.180252 0.440279,-0.08733 0.283316,0.108719 0.376103,0.06511 0.260267,-0.122313 -0.09901,-0.160195 -0.06802,-0.36048 0.06886,-0.445077 0.136881,-0.0846 0.300329,-0.0035 0.363217,0.180155 0.06289,0.183683 0.08235,0.122951 0.04325,-0.134959 -0.14774,-0.974495 1.311634,-2.908492 1.814933,-2.405193 0.08248,0.08248 0.422287,-0.04077 0.755118,-0.273892 0.80372,-0.562948 1.312459,-0.548719 1.090195,0.03049 -0.154582,0.402835 -0.126788,0.410335 0.245117,0.06615 0.507137,-0.469344 0.366389,-0.785083 -0.34997,-0.785083 -0.30741,0 -0.456081,-0.118255 -0.354766,-0.282186 0.09592,-0.155203 0.236184,-0.220403 0.311696,-0.144891 0.07551,0.07551 0.318831,-0.04424 0.540708,-0.266117 0.249792,-0.249791 0.640814,-0.343828 1.026836,-0.246943 0.342882,0.08606 0.623422,0.04506 0.623422,-0.09111 0,-0.41458 2.322925,-0.296129 2.485189,0.126724 0.19928,0.519313 -1.015412,1.258865 -1.816213,1.105783 -0.359129,-0.06865 -0.592164,-0.02645 -0.517856,0.09378 0.07431,0.120233 -0.197186,0.29799 -0.603319,0.395015 -0.406134,0.09703 -1.229153,0.572209 -1.828932,1.055965 -0.599778,0.483756 -1.165325,0.804738 -1.256771,0.713292 -0.09145,-0.09145 -0.166264,0.03217 -0.166264,0.274708 0,0.242535 -0.131801,0.440972 -0.292891,0.440972 -0.16109,0 -0.224358,-0.178594 -0.140595,-0.396875 0.08376,-0.218281 0.04971,-0.396875 -0.07568,-0.396875 -0.125385,0 -0.300242,0.188332 -0.388571,0.418515 -0.221445,0.577076 -0.201724,0.696465 0.0857,0.518826 0.135465,-0.08372 0.316563,-0.03854 0.402438,0.100413 0.197005,0.318761 1.235606,0.1319 1.481903,-0.266618 0.301134,-0.487245 2.505655,-0.624954 3.119678,-0.194875 0.955088,0.668969 0.272354,1.078725 -2.116261,1.270114 -1.21441,0.0973 -2.446143,0.306283 -2.737184,0.464396 -0.909542,0.494123 -2.117245,2.064468 -2.103889,2.735632 0.007,0.353176 -0.112034,0.729612 -0.264583,0.836525 -0.5181,0.363104 0.387955,0.214082 1.175971,-0.193416 0.482896,-0.249716 0.825755,-0.298565 0.928517,-0.132292 0.08961,0.144987 0.364254,0.255245 0.610328,0.245017 0.364727,-0.01516 0.349618,-0.06062 -0.08176,-0.245987 -0.635251,-0.272977 -0.45754,-0.302401 2.1574,-0.357205 1.07622,-0.02256 1.828857,0.06392 1.744564,0.200446 -0.08154,0.132063 0.10849,0.172975 0.422287,0.09092 0.330446,-0.08641 0.57054,-0.02601 0.57054,0.14353 0,0.200156 0.100407,0.192323 0.3175,-0.02477 0.403619,-0.403619 1.367521,-0.424762 1.12019,-0.02457 -0.12134,0.196332 0.0011,0.235123 0.371266,0.117634 0.506193,-0.16066 0.910077,-0.03015 1.838026,0.593917 0.60542,0.407161 0.06852,1.113706 -0.831018,1.09359 -0.627267,-0.01403 -0.711665,-0.0658 -0.343501,-0.210693 0.43639,-0.17175 0.414053,-0.225828 -0.210887,-0.51057 -0.854565,-0.389366 -0.938659,-0.392795 -0.938659,-0.03828 0,0.154109 0.148828,0.204811 0.330729,0.112671 0.181901,-0.09214 0.104829,0.01608 -0.171271,0.240493 -0.276099,0.224411 -0.627687,0.330341 -0.781306,0.2354 -0.494843,-0.305831 -3.981588,-0.81568 -4.845653,-0.708556 -0.460511,0.05709 -1.403024,0.346306 -2.094474,0.642696 l -1.257182,0.538891 -1.942762,-0.670897 c -2.066294,-0.713555 -4.203691,-0.885523 -4.381362,-0.352509 -0.05953,0.178592 -0.533897,0.306262 -1.080382,0.290771 -0.535839,-0.01519 -0.974253,0.06716 -0.974253,0.182989 0,0.260015 -1.60923,0.425785 -3.088247,0.318126 z m 19.342897,-1.103724 c 0.373275,-0.14192 0.678683,-0.384234 0.678683,-0.538476 0,-0.169839 -0.182609,-0.198509 -0.463021,-0.0727 -0.254662,0.114261 -1.087848,0.207747 -1.851526,0.207747 -1.535803,0 -1.877097,0.302852 -0.529724,0.47006 0.472943,0.05869 1.000973,0.125766 1.173401,0.149055 0.172427,0.02329 0.618912,-0.07377 0.992187,-0.215691 z"
       id="path10727" />
    <path
       style="fill:#3b8472"
       d="m 86.462331,55.007589 c -0.02155,-0.327422 -0.06345,-0.773906 -0.09312,-0.992187 -0.02967,-0.218281 -0.07157,-0.545703 -0.09312,-0.727604 -0.02155,-0.181901 -0.172815,-0.330729 -0.336154,-0.330729 -0.213514,0 -0.209904,0.104921 0.01285,0.373319 0.199827,0.240778 0.216042,0.431282 0.04567,0.536578 -0.321535,0.198719 -0.877883,-0.755439 -0.612126,-1.04982 0.104021,-0.115225 0.04627,-0.127545 -0.128325,-0.02738 -0.450544,0.258474 -0.951775,-0.806416 -0.752772,-1.599304 0.106526,-0.424436 0.06745,-0.59845 -0.109794,-0.488908 -0.151354,0.09354 -0.275189,-0.01181 -0.275189,-0.23411 0,-0.250974 0.150777,-0.346328 0.397761,-0.251551 0.284683,0.109243 0.444274,-0.07994 0.56138,-0.665468 0.08999,-0.449956 0.268187,-0.753477 0.39599,-0.67449 0.35142,0.217189 0.278266,-0.264268 -0.09836,-0.64735 -0.181901,-0.18502 -0.211666,-0.313795 -0.06615,-0.286168 0.673951,0.127949 0.888964,-0.07173 0.868082,-0.806183 -0.03072,-1.08028 -0.266284,-0.997968 -0.946517,0.330729 -0.654858,1.279133 -0.781866,1.003543 -0.190157,-0.412617 0.459458,-1.099637 0.860028,-1.416885 1.270604,-1.006309 0.44238,0.44238 0.832222,0.35427 0.453197,-0.102428 -0.181158,-0.218282 -0.238628,-0.396875 -0.127711,-0.396875 0.236602,0 0.900832,0.829404 0.913046,1.140094 0.0046,0.117729 -0.130881,0.127963 -0.301132,0.02274 -0.213,-0.131641 -0.252372,-0.04232 -0.126234,0.286392 0.147841,0.385269 0.112312,0.418778 -0.183616,0.173179 -0.296121,-0.245758 -0.354863,-0.189158 -0.304408,0.293306 0.03439,0.328805 0.07954,0.776422 0.100339,0.994703 0.02253,0.236391 0.116422,0.289886 0.232205,0.132292 0.223491,-0.3042 1.120427,-0.42893 1.120427,-0.15581 0,0.100247 -0.148828,0.342667 -0.330729,0.538709 -0.270527,0.291559 -0.242962,0.325447 0.15143,0.186168 0.434218,-0.153342 0.476399,-0.0191 0.424235,1.350122 -0.04395,1.15367 -0.221425,1.743758 -0.735784,2.446436 -0.372823,0.509323 -0.767437,0.964178 -0.876921,1.010791 -0.109483,0.04661 -0.129297,0.433565 -0.04403,0.859895 0.08527,0.426331 0.08061,0.775147 -0.01033,0.775147 -0.09095,0 -0.182993,-0.267891 -0.204539,-0.595313 z"
       id="path10462" />
    <path
       style="fill:#3b8472"
       d="m 78.018752,56.374059 c -0.524966,-0.737246 -0.541563,-0.856067 -0.171294,-1.226335 0.370269,-0.370269 0.479573,-0.355262 1.128118,0.154884 0.394969,0.310682 0.597585,0.564877 0.450258,0.564877 -0.147327,0 -0.416088,-0.178594 -0.597245,-0.396875 -0.385138,-0.464063 -0.913416,-0.539969 -0.636193,-0.09141 0.116967,0.189256 0.07258,0.233643 -0.116677,0.116677 -0.168005,-0.103833 -0.305463,-0.06973 -0.305463,0.0758 0,0.145521 0.118422,0.337772 0.26316,0.427225 0.296903,0.183496 0.880815,1.191505 0.690207,1.191505 -0.06797,0 -0.385163,-0.367354 -0.704871,-0.816343 z"
       id="path10452" />
    <path
       style="fill:#3b8472"
       d="m 81.340098,58.222671 c -0.118304,-0.203946 -0.115549,-0.280428 0.0061,-0.169961 0.121671,0.110467 0.372245,-0.23845 0.55683,-0.775372 0.294285,-0.85602 0.280414,-1.017013 -0.112656,-1.307517 -0.324994,-0.240191 -0.368784,-0.412036 -0.159238,-0.624904 0.211296,-0.214646 0.381592,-0.182073 0.633219,0.121119 0.397459,0.478909 0.573259,2.461981 0.236695,2.669989 -0.12476,0.07711 -0.160553,-0.03254 -0.07954,-0.24366 0.08101,-0.21112 0.0017,-0.473825 -0.176203,-0.583789 -0.189981,-0.117416 -0.255525,-0.08995 -0.158804,0.06655 0.09058,0.146566 0.0081,0.480656 -0.183316,0.74242 -0.286764,0.392172 -0.38587,0.410674 -0.563111,0.105125 z"
       id="path10449" />
    <path
       style="fill:#3b8472"
       d="m 89.168227,58.632381 c -0.01149,-0.152797 0.08479,-0.390922 0.213957,-0.529167 0.129165,-0.138245 0.315222,-0.54901 0.41346,-0.912812 l 0.178614,-0.661459 -0.553003,0.661459 -0.553003,0.661458 0.319874,-0.79375 c 0.175931,-0.436562 0.537237,-1.029423 0.802902,-1.317467 0.475878,-0.515966 0.481309,-0.51205 0.36696,0.264583 -0.06384,0.433566 -0.194083,1.085957 -0.289435,1.449759 -0.134631,0.513664 -0.110027,0.572781 0.110116,0.264583 0.337919,-0.473085 0.384978,-0.02795 0.05253,0.496918 -0.127023,0.200545 -0.353156,0.2891 -0.502517,0.196789 -0.149362,-0.09231 -0.331868,-0.01827 -0.405569,0.164541 -0.0737,0.182807 -0.143401,0.207362 -0.154889,0.05457 z"
       id="path10446" />
    <path
       style="fill:#3b8472"
       d="m 77.241089,59.82062 c 0,-0.154109 0.119063,-0.206614 0.264583,-0.116677 0.145521,0.08994 0.264584,0.03204 0.264584,-0.128666 0,-0.194277 -0.332474,-0.229933 -0.992188,-0.106405 -0.903042,0.169091 -0.959561,0.146396 -0.629061,-0.252594 0.45802,-0.552935 1.366787,-0.562713 2.0337,-0.02188 0.282475,0.229073 0.377238,0.348819 0.210586,0.266103 -0.166653,-0.08272 -0.371276,0.02752 -0.454717,0.244963 -0.17316,0.451246 -0.697487,0.537814 -0.697487,0.115156 z"
       id="path10437" />
    <path
       style="fill:#3b8472"
       d="m 92.924253,61.952901 c -0.02344,-0.311242 0.123241,-0.529166 0.356185,-0.529166 0.217826,0 0.322462,0.119062 0.232525,0.264583 -0.08994,0.145521 -0.03041,0.264583 0.132292,0.264583 0.162697,0 0.222228,0.119063 0.132292,0.264584 -0.280706,0.454192 -0.811549,0.289592 -0.853294,-0.264584 z"
       id="path10429" />
    <path
       style="fill:#3b8472"
       d="m 87.758276,62.180244 c 0.394179,-0.397095 0.442922,-0.857078 0.06615,-0.624217 -0.145521,0.08994 -0.264583,0.05563 -0.264583,-0.07625 0,-0.131871 0.26789,-0.368965 0.595312,-0.526875 0.327422,-0.157909 0.446484,-0.295166 0.264583,-0.305015 -0.181901,-0.0098 -0.330729,-0.151548 -0.330729,-0.314887 0,-0.214749 0.102467,-0.21194 0.370063,0.01015 0.453783,0.376606 0.02263,1.76938 -0.623837,2.015229 -0.326631,0.124216 -0.341931,0.0888 -0.07695,-0.178135 z"
       id="path10428" />
    <path
       style="fill:#3b8472"
       d="m 86.113866,64.60894 c -0.432377,-0.477771 -0.441465,-0.536331 -0.06055,-0.390159 0.246502,0.09459 0.448186,0.285336 0.448186,0.423876 0,0.13854 0.126984,0.17341 0.282187,0.07749 0.155202,-0.09592 0.218771,-0.237816 0.141264,-0.315323 -0.07751,-0.07751 0.153831,-0.372775 0.514084,-0.65615 0.360254,-0.283376 0.602925,-0.599499 0.539269,-0.702497 -0.06366,-0.102997 0.203101,-0.203685 0.592792,-0.22375 0.389691,-0.02007 0.552511,0.02653 0.361822,0.103537 -0.190689,0.07701 -0.788521,0.613668 -1.328515,1.19257 l -0.981808,1.05255 z"
       id="path10418" />
    <path
       style="fill:#3b8472"
       d="m 90.734838,66.450818 -1.455208,-0.178331 1.322917,-0.02453 c 0.727604,-0.01349 1.561041,0.0778 1.852083,0.202861 0.59656,0.25635 0.372068,0.25635 -1.719792,0 z"
       id="path10415" />
    <path
       style="fill:#3b8472"
       d="m 84.847735,66.591022 c 0.0707,-0.369827 -0.02469,-0.857041 -0.211965,-1.082697 -0.270334,-0.325733 -0.271577,-0.393576 -0.006,-0.329209 0.228098,0.05529 0.374407,-0.380577 0.460025,-1.370448 0.06905,-0.798337 0.192113,-1.512712 0.273469,-1.587499 0.08136,-0.07479 0.09057,0.4891 0.02048,1.253085 -0.07009,0.763984 -0.02586,1.389062 0.0983,1.389062 0.124159,0 0.225744,0.238125 0.225744,0.529167 0,0.291041 -0.148828,0.530989 -0.330729,0.533218 -0.259585,0.0032 -0.25824,0.05006 0.0063,0.217917 0.259245,0.164529 0.221515,0.318362 -0.16355,0.666842 -0.479778,0.434193 -0.495204,0.425093 -0.371994,-0.219438 z"
       id="path10412" />
    <path
       style="fill:#3b8472"
       d="m 80.151506,66.93467 c 0,-0.170442 -0.20836,-0.555344 -0.463021,-0.855336 -0.305933,-0.36039 -0.328374,-0.450669 -0.06615,-0.2661 0.49984,0.351813 2.207924,0.470125 2.003122,0.138749 -0.08375,-0.135506 0.09027,-0.182274 0.388257,-0.104348 0.684397,0.178974 0.513356,0.349435 -0.592015,0.590011 -0.480327,0.10454 -0.843557,0.328863 -0.807177,0.498496 0.03638,0.169633 -0.05292,0.308424 -0.198437,0.308424 -0.145521,0 -0.264583,-0.139453 -0.264583,-0.309896 z"
       id="path10411" />
    <path
       style="fill:#3b8472"
       d="m 73.867652,68.127671 c -0.181901,-0.0734 -0.330729,-0.340303 -0.330729,-0.593119 0,-0.349691 0.216012,-0.456002 0.90286,-0.444346 1.050805,0.01783 0.997968,0.410827 -0.05858,0.435714 l -0.71199,0.01677 0.661459,0.269043 c 0.363802,0.147974 1.078177,0.216442 1.5875,0.152152 0.509322,-0.06429 1.164166,-0.02268 1.455208,0.09247 0.336097,0.132971 -0.146576,0.208519 -1.322917,0.207064 -1.018646,-0.0013 -2.000911,-0.06235 -2.182812,-0.135744 z"
       id="path10410" />
    <path
       style="fill:#3b8472"
       d="m 84.914005,67.994795 c -0.654843,-0.29442 -1.726406,-0.629194 -2.381249,-0.74394 -1.010153,-0.177007 -1.062651,-0.213348 -0.346345,-0.23975 0.464355,-0.01712 0.917866,-0.150183 1.007803,-0.295704 0.204026,-0.33012 1.455208,-0.351418 1.455208,-0.02477 0,0.131897 -0.267891,0.170781 -0.595312,0.08641 -0.520518,-0.134131 -0.551617,-0.100098 -0.247522,0.270876 0.374605,0.456991 1.19158,0.411182 1.809263,-0.10145 0.311611,-0.258614 0.411126,-0.211569 0.532252,0.251615 0.08194,0.313336 0.24203,0.512194 0.355759,0.441906 0.251481,-0.155424 0.554704,0.546826 0.332191,0.769339 -0.246956,0.246956 -0.638701,0.162468 -1.922048,-0.414531 z"
       id="path10407" />
    <path
       style="fill:#317866"
       d="m 82.369244,56.867329 c 0.07757,-0.25045 -0.04207,-0.638466 -0.265867,-0.862258 -0.223791,-0.223792 -0.358449,-0.552227 -0.29924,-0.729856 0.06318,-0.189538 0.299296,-0.03048 0.571537,0.385011 0.36742,0.560755 0.40032,0.807214 0.158213,1.185221 -0.26766,0.417902 -0.288133,0.420623 -0.164643,0.02188 z"
       id="path7947" />
  </g>
</svg>
