<?xml version="1.0" encoding="UTF-8" standalone="no"?>
<!-- Created with Inkscape (http://www.inkscape.org/) -->

<svg
   width="185"
   height="185"
   viewBox="0 0 48.947914 48.947918"
   version="1.1"
   id="svg1"
   xmlns="http://www.w3.org/2000/svg"
   xmlns:svg="http://www.w3.org/2000/svg">
  <defs
     id="defs1" />
  <g
     id="g11747"
     transform="translate(7.4609692,-205.60138)">
    <path
       style="fill:#fbdb6c"
       d="m 17.709842,254.21714 c -0.363802,-0.17017 -1.220184,-0.64406 -1.90307,-1.0531 -0.968692,-0.58022 -1.724752,-0.78604 -3.439584,-0.93635 -1.960234,-0.17182 -2.383986,-0.12308 -3.9177619,0.45064 -1.2954152,0.48456 -2.2747452,0.64871 -3.9687498,0.66522 -2.0688314,0.0202 -2.2489582,-0.0198 -2.2489582,-0.49948 0,-0.35043 0.4124067,-0.74414 1.2576401,-1.20064 l 1.25764,-0.67923 -0.9269109,-0.44201 c -1.0665095,-0.50859 -1.1277253,-0.716 -0.4044972,-1.37051 0.4099675,-0.37101 0.7630784,-0.43429 1.6405186,-0.29398 0.6149577,0.0983 1.2728402,0.30721 1.4619612,0.46416 0.189121,0.15696 0.3438563,0.21958 0.3438563,0.13916 0,-0.0804 0.3571875,-0.0438 0.79375,0.0814 0.4365624,0.12521 0.7937499,0.16849 0.7937499,0.0962 0,-0.45189 -1.5914998,-2.08747 -2.332464,-2.39707 -1.7433731,-0.72842 -4.6947975,0.1992 -5.74633413,1.80606 -0.28608786,0.43717 -0.71989395,0.90552 -0.96401355,1.04078 -0.54355032,0.30115 -1.27593772,0.0546 -1.27593772,-0.42949 0,-0.27078 -0.3101515,-0.31936 -1.2944597,-0.20279 -1.155749,0.13688 -1.313515,0.0933 -1.4722864,-0.40697 -0.2197402,-0.69234 0.00642,-1.09418 0.6158042,-1.09418 0.2550138,0 0.7211702,-0.23991 1.0359031,-0.53313 0.7521886,-0.70077 1.7234696,-1.05437 2.89615184,-1.05437 1.43024216,0 0.93075566,-0.21961 -1.18055444,-0.51905 -2.4367701,-0.34559 -3.294286,-0.73433 -3.1923594,-1.44717 0.1209152,-0.84565 1.34979,-0.81556 5.1077846,0.12508 4.4383067,1.11092 4.6508873,0.83941 1.0071215,-1.28631 -2.11350514,-1.23299 -2.7293554,-1.75544 -2.7293554,-2.31541 0,-0.4776 0.86926168,-0.48641 1.79907661,-0.0182 0.39295569,0.19785 1.02849479,0.43489 1.41230909,0.52673 l 0.6978442,0.167 -0.4818949,-0.94521 c -0.5644722,-1.10718 -0.5480072,-2.31851 0.033035,-2.43041 0.4454484,-0.0858 1.7767132,1.79793 2.6234725,3.71217 0.8033225,1.81604 1.4621316,2.47822 3.3808107,3.39809 2.6756782,1.2828 2.9587232,1.39753 3.0997932,1.25646 0.07141,-0.0714 -0.444487,-1.01416 -1.146426,-2.09501 -1.8925933,-2.91424 -1.9791499,-3.10139 -2.3466846,-5.07405 -0.2267413,-1.21698 0.5886222,-0.88049 1.9233777,0.79375 0.6670779,0.83675 1.3163189,1.77768 1.4427569,2.09097 0.126439,0.31328 0.368174,0.65507 0.537189,0.75953 0.230323,0.14235 0.234411,0.0537 0.01632,-0.35378 -0.324395,-0.60614 -0.359142,-2.55932 -0.05911,-3.32288 0.18295,-0.4656 0.221667,-0.46844 0.642862,-0.0472 0.246504,0.24651 0.45541,0.64804 0.464236,0.89231 0.0088,0.24427 0.03859,1.51569 0.06615,2.82537 0.04554,2.16444 0.139719,2.56193 1.034393,4.36563 0.923424,1.86166 2.896327,4.36556 3.200273,4.06161 0.0753,-0.0753 -0.165203,-0.93067 -0.534446,-1.90082 -1.4511,-3.81263 -1.648775,-4.43938 -1.657109,-5.25403 -0.0048,-0.46436 0.119239,-0.92331 0.275532,-1.01991 0.743978,-0.4598 2.816603,2.83199 2.470238,3.92329 -0.164977,0.5198 -0.145927,0.52959 0.253393,0.13027 0.506956,-0.50695 0.545678,-1.49996 0.133445,-3.42213 -0.254834,-1.18825 -0.538849,-1.62419 -1.947702,-2.98959 -1.851827,-1.7947 -2.240307,-2.37933 -2.054129,-3.09127 0.193333,-0.73931 0.591073,-0.60483 1.871918,0.63289 0.819832,0.79223 1.120821,0.96813 1.018685,0.59531 -0.492159,-1.79649 -1.020298,-5.45883 -0.872263,-6.04864 0.320461,-1.27682 1.298709,-0.58117 1.622576,1.15385 0.235382,1.26099 0.703036,3.57726 0.945137,4.68123 0.133805,0.61014 0.243282,1.61225 0.243282,2.22691 0,0.61465 0.04575,1.06795 0.101668,1.00731 0.05592,-0.0606 0.476899,-2.32352 0.935515,-5.02863 l 0.833847,-4.9184 -1.330109,-2.62223 c -0.73156,-1.44223 -1.331135,-2.75648 -1.33239,-2.92056 -0.0013,-0.16408 0.188793,-0.45691 0.422328,-0.65073 0.36678,-0.3044 0.527969,-0.22773 1.183508,0.56292 0.417394,0.50342 0.762101,1.11664 0.766015,1.36271 0.0092,0.57672 0.439994,0.84662 0.616631,0.38631 0.07469,-0.19463 0.220603,-1.05715 0.324258,-1.91671 0.23304,-1.93249 0.763491,-3.28263 1.289697,-3.28263 0.798546,0 0.779227,1.73166 -0.06878,6.16523 -1.016925,5.3167 -1.61003,9.05782 -1.791032,11.29727 -0.155645,1.92571 -0.07334,1.89071 1.24428,-0.52916 0.435799,-0.80037 1.049619,-1.8635 1.364044,-2.36251 0.48781,-0.77418 0.574882,-1.31763 0.59349,-3.70417 0.01673,-2.14537 0.131483,-3.0011 0.492648,-3.67364 0.258963,-0.48222 0.612686,-0.82963 0.78605,-0.77201 0.412818,0.13719 0.554371,2.80702 0.214156,4.03918 -0.389616,1.41107 0.295812,0.73873 1.183306,-1.16071 0.951215,-2.03582 1.877817,-3.22916 2.362846,-3.04304 0.585454,0.22466 0.467438,1.40454 -0.269403,2.69342 l -0.654387,1.14465 0.856012,-0.18146 c 1.359465,-0.28818 1.385178,-0.28312 1.385178,0.27236 0,0.35921 -0.406491,0.74766 -1.270958,1.21455 -1.228473,0.66348 -3.888416,3.04264 -3.888416,3.47795 0,0.18845 0.521562,0.12873 1.852083,-0.21208 0.218281,-0.0559 0.575469,0.0117 0.79375,0.15027 0.580297,0.36838 -0.53226,1.31914 -2.450946,2.09451 -0.83899,0.33904 -1.833425,0.98289 -2.210799,1.43137 -0.724213,0.86068 -1.904357,3.13035 -2.775683,5.33823 -0.651726,1.65143 -0.970708,4.73621 -0.518639,5.01561 0.632751,0.39106 1.913556,-1.39661 2.244398,-3.13259 0.05871,-0.30806 0.241618,-0.90806 0.406463,-1.33333 0.164846,-0.42528 0.242847,-0.92144 0.173336,-1.10259 -0.06951,-0.18114 0.02776,-0.3885 0.216164,-0.4608 0.188401,-0.0723 0.417276,-0.4691 0.508611,-0.88179 0.09133,-0.41269 0.470452,-1.09022 0.842482,-1.50562 l 0.676419,-0.75528 0.482601,0.55645 c 0.589407,0.67959 0.402764,2.12111 -0.465079,3.592 -0.312901,0.53032 -0.568911,1.03423 -0.568911,1.11978 0,0.29375 3.042739,-2.68541 3.425374,-3.35381 0.241113,-0.42118 0.388876,-1.45143 0.399454,-2.78511 0.01693,-2.13448 0.418924,-3.30729 1.133608,-3.30729 0.359056,0 0.372201,0.0883 0.383883,2.57824 0.0076,1.62495 0.01541,1.64241 0.471991,1.05833 0.255331,-0.32663 0.765102,-1.18918 1.132825,-1.91678 0.367722,-0.72761 0.900254,-1.53224 1.183404,-1.78808 0.492311,-0.44483 0.53542,-0.4424 0.986017,0.0555 0.454002,0.50167 0.445799,0.56401 -0.224777,1.70826 -0.382786,0.65318 -0.813625,1.2603 -0.957419,1.34917 -0.143794,0.0889 -0.261444,0.29207 -0.261444,0.45156 0,0.16186 0.204568,0.10575 0.463021,-0.12701 0.254661,-0.22934 1.094339,-0.73344 1.86595,-1.12023 1.54192,-0.77291 2.168945,-0.61994 2.168945,0.52916 0,0.7991 -0.344294,1.04047 -2.455549,1.72144 -1.532529,0.49431 -4.952784,2.43506 -4.952784,2.81036 0,0.24838 2.059415,-0.2407 4.70359,-1.11705 3.12331,-1.03513 3.498493,-1.08038 3.498493,-0.42193 0,0.58873 -0.938585,1.63739 -1.465515,1.63739 -0.212612,0 -0.386568,0.11906 -0.386568,0.26458 0,0.14552 0.280049,0.26459 0.622331,0.26459 0.78117,0 2.420377,1.08227 2.420377,1.59803 0,0.5166 -1.913692,0.42833 -3.701235,-0.17072 -1.853109,-0.62102 -3.296032,-0.87058 -3.463827,-0.59908 -0.07822,0.12655 -0.657961,0.2301 -1.288325,0.2301 -1.737085,0 -3.955074,1.12768 -5.734718,2.91566 l -0.958939,0.96344 2.149564,-0.53623 c 1.951907,-0.48691 2.624395,-0.87192 3.297222,-1.88766 0.09639,-0.14552 0.573541,-0.40735 1.06033,-0.58184 0.684624,-0.2454 0.999212,-0.24596 1.389062,-0.002 0.635975,0.39718 0.632108,0.58851 -0.02518,1.24579 -0.472807,0.47281 -0.706532,1.05834 -0.422455,1.05834 0.05869,0 1.279082,-0.23703 2.711979,-0.52673 2.433799,-0.49206 2.627035,-0.49744 2.935996,-0.0817 0.181901,0.24475 0.33073,0.52742 0.33073,0.62816 0,0.23856 -0.996211,0.50126 -1.918229,0.50584 -0.782729,0.004 -1.035169,0.52434 -0.264584,0.54549 0.939129,0.0258 2.31438,0.90383 2.344445,1.49685 0.01614,0.31831 -0.128107,0.63916 -0.320542,0.713 -0.394017,0.1512 -3.133622,-0.24836 -3.575534,-0.52148 -0.567658,-0.35083 -4.864609,-1.17191 -6.132955,-1.17191 -1.189663,0 -4.72325,0.87386 -5.346142,1.3221 -0.362452,0.26083 -2.805838,1.06419 -3.155987,1.03766 -0.155978,-0.0118 -0.581253,-0.16072 -0.945055,-0.3309 z m -3.704166,-3.1814 c 0,-0.17969 -2.933516,-2.28705 -3.183661,-2.28705 -0.138291,0 -0.40015,-0.23812 -0.581908,-0.52916 -0.181759,-0.29104 -0.4889284,-0.52917 -0.6825994,-0.52917 -0.268264,0 -0.2545098,0.0976 0.057751,0.40988 0.2254339,0.22544 0.5613594,0.61726 0.7465024,0.87072 0.586472,0.80289 1.972421,1.63114 3.577769,2.1381 0.03638,0.0115 0.06615,-0.0215 0.06615,-0.0733 z"
       id="path11701" />
    <path
       style="fill:#fb8601"
       d="m 17.709842,254.21714 c -0.363802,-0.17017 -1.220184,-0.64406 -1.90307,-1.0531 -0.968692,-0.58022 -1.724752,-0.78604 -3.439584,-0.93635 -1.960234,-0.17182 -2.383986,-0.12308 -3.9177619,0.45064 -1.2954152,0.48456 -2.2747452,0.64871 -3.9687498,0.66522 -2.0688314,0.0202 -2.2489582,-0.0198 -2.2489582,-0.49948 0,-0.35043 0.4124067,-0.74414 1.2576401,-1.20064 l 1.25764,-0.67923 -0.9269109,-0.44201 c -1.0665095,-0.50859 -1.1277253,-0.716 -0.4044972,-1.37051 0.4099675,-0.37101 0.7630784,-0.43429 1.6405186,-0.29398 0.6149577,0.0983 1.2728402,0.30721 1.4619612,0.46416 0.189121,0.15696 0.3438563,0.21958 0.3438563,0.13916 0,-0.0804 0.3571875,-0.0438 0.79375,0.0814 0.4365624,0.12521 0.7937499,0.16849 0.7937499,0.0962 0,-0.45189 -1.5914998,-2.08747 -2.332464,-2.39707 -1.7433731,-0.72842 -4.6947975,0.1992 -5.74633413,1.80606 -0.28608786,0.43717 -0.71989395,0.90552 -0.96401355,1.04078 -0.54355032,0.30115 -1.27593772,0.0546 -1.27593772,-0.42949 0,-0.27078 -0.3101515,-0.31936 -1.2944597,-0.20279 -1.155749,0.13688 -1.313515,0.0933 -1.4722864,-0.40697 -0.2197402,-0.69234 0.00642,-1.09418 0.6158042,-1.09418 0.2550138,0 0.7211702,-0.23991 1.0359031,-0.53313 0.7521886,-0.70077 1.7234696,-1.05437 2.89615184,-1.05437 1.43024216,0 0.93075566,-0.21961 -1.18055444,-0.51905 -2.4367701,-0.34559 -3.294286,-0.73433 -3.1923594,-1.44717 0.1209152,-0.84565 1.34979,-0.81556 5.1077846,0.12508 4.4383067,1.11092 4.6508873,0.83941 1.0071215,-1.28631 -2.11350514,-1.23299 -2.7293554,-1.75544 -2.7293554,-2.31541 0,-0.4776 0.86926168,-0.48641 1.79907661,-0.0182 0.39295569,0.19785 1.02849479,0.43489 1.41230909,0.52673 l 0.6978442,0.167 -0.4818949,-0.94521 c -0.5644722,-1.10718 -0.5480072,-2.31851 0.033035,-2.43041 0.4454484,-0.0858 1.7767132,1.79793 2.6234725,3.71217 0.8033225,1.81604 1.4621316,2.47822 3.3808107,3.39809 2.6756782,1.2828 2.9587232,1.39753 3.0997932,1.25646 0.07141,-0.0714 -0.444487,-1.01416 -1.146426,-2.09501 -1.8925933,-2.91424 -1.9791499,-3.10139 -2.3466846,-5.07405 -0.2267413,-1.21698 0.5886222,-0.88049 1.9233777,0.79375 0.6670779,0.83675 1.3163189,1.77768 1.4427569,2.09097 0.126439,0.31328 0.368174,0.65507 0.537189,0.75953 0.230323,0.14235 0.234411,0.0537 0.01632,-0.35378 -0.324395,-0.60614 -0.359142,-2.55932 -0.05911,-3.32288 0.18295,-0.4656 0.221667,-0.46844 0.642862,-0.0472 0.246504,0.24651 0.45541,0.64804 0.464236,0.89231 0.0088,0.24427 0.03859,1.51569 0.06615,2.82537 0.04554,2.16444 0.139719,2.56193 1.034393,4.36563 0.923424,1.86166 2.896327,4.36556 3.200273,4.06161 0.0753,-0.0753 -0.165203,-0.93067 -0.534446,-1.90082 -1.4511,-3.81263 -1.648775,-4.43938 -1.657109,-5.25403 -0.0048,-0.46436 0.119239,-0.92331 0.275532,-1.01991 0.743978,-0.4598 2.816603,2.83199 2.470238,3.92329 -0.164977,0.5198 -0.145927,0.52959 0.253393,0.13027 0.506956,-0.50695 0.545678,-1.49996 0.133445,-3.42213 -0.254834,-1.18825 -0.538849,-1.62419 -1.947702,-2.98959 -1.851827,-1.7947 -2.240307,-2.37933 -2.054129,-3.09127 0.193333,-0.73931 0.591073,-0.60483 1.871918,0.63289 0.819832,0.79223 1.120821,0.96813 1.018685,0.59531 -0.492159,-1.79649 -1.020298,-5.45883 -0.872263,-6.04864 0.320461,-1.27682 1.298709,-0.58117 1.622576,1.15385 0.235382,1.26099 0.703036,3.57726 0.945137,4.68123 0.133805,0.61014 0.243282,1.61225 0.243282,2.22691 0,0.61465 0.04575,1.06795 0.101668,1.00731 0.05592,-0.0606 0.476899,-2.32352 0.935515,-5.02863 l 0.833847,-4.9184 -1.330109,-2.62223 c -0.73156,-1.44223 -1.331135,-2.75648 -1.33239,-2.92056 -0.0013,-0.16408 0.188793,-0.45691 0.422328,-0.65073 0.36678,-0.3044 0.527969,-0.22773 1.183508,0.56292 0.417394,0.50342 0.762101,1.11664 0.766015,1.36271 0.0092,0.57672 0.439994,0.84662 0.616631,0.38631 0.07469,-0.19463 0.220603,-1.05715 0.324258,-1.91671 0.23304,-1.93249 0.763491,-3.28263 1.289697,-3.28263 0.798546,0 0.779227,1.73166 -0.06878,6.16523 -1.016925,5.3167 -1.61003,9.05782 -1.791032,11.29727 -0.155645,1.92571 -0.07334,1.89071 1.24428,-0.52916 0.435799,-0.80037 1.049619,-1.8635 1.364044,-2.36251 0.48781,-0.77418 0.574882,-1.31763 0.59349,-3.70417 0.01673,-2.14537 0.131483,-3.0011 0.492648,-3.67364 0.258963,-0.48222 0.612686,-0.82963 0.78605,-0.77201 0.412818,0.13719 0.554371,2.80702 0.214156,4.03918 -0.389616,1.41107 0.295812,0.73873 1.183306,-1.16071 0.951215,-2.03582 1.877817,-3.22916 2.362846,-3.04304 0.585454,0.22466 0.467438,1.40454 -0.269403,2.69342 l -0.654387,1.14465 0.856012,-0.18146 c 1.359465,-0.28818 1.385178,-0.28312 1.385178,0.27236 0,0.35921 -0.406491,0.74766 -1.270958,1.21455 -1.228473,0.66348 -3.888416,3.04264 -3.888416,3.47795 0,0.18845 0.521562,0.12873 1.852083,-0.21208 0.218281,-0.0559 0.575469,0.0117 0.79375,0.15027 0.580297,0.36838 -0.53226,1.31914 -2.450946,2.09451 -0.83899,0.33904 -1.833425,0.98289 -2.210799,1.43137 -0.724213,0.86068 -1.904357,3.13035 -2.775683,5.33823 -0.651726,1.65143 -0.970708,4.73621 -0.518639,5.01561 0.632751,0.39106 1.913556,-1.39661 2.244398,-3.13259 0.05871,-0.30806 0.241618,-0.90806 0.406463,-1.33333 0.164846,-0.42528 0.242847,-0.92144 0.173336,-1.10259 -0.06951,-0.18114 0.02776,-0.3885 0.216164,-0.4608 0.188401,-0.0723 0.417276,-0.4691 0.508611,-0.88179 0.09133,-0.41269 0.470452,-1.09022 0.842482,-1.50562 l 0.676419,-0.75528 0.482601,0.55645 c 0.589407,0.67959 0.402764,2.12111 -0.465079,3.592 -0.312901,0.53032 -0.568911,1.03423 -0.568911,1.11978 0,0.29375 3.042739,-2.68541 3.425374,-3.35381 0.241113,-0.42118 0.388876,-1.45143 0.399454,-2.78511 0.01693,-2.13448 0.418924,-3.30729 1.133608,-3.30729 0.359056,0 0.372201,0.0883 0.383883,2.57824 0.0076,1.62495 0.01541,1.64241 0.471991,1.05833 0.255331,-0.32663 0.765102,-1.18918 1.132825,-1.91678 0.367722,-0.72761 0.900254,-1.53224 1.183404,-1.78808 0.492311,-0.44483 0.53542,-0.4424 0.986017,0.0555 0.454002,0.50167 0.445799,0.56401 -0.224777,1.70826 -0.382786,0.65318 -0.813625,1.2603 -0.957419,1.34917 -0.143794,0.0889 -0.261444,0.29207 -0.261444,0.45156 0,0.16186 0.204568,0.10575 0.463021,-0.12701 0.254661,-0.22934 1.094339,-0.73344 1.86595,-1.12023 1.54192,-0.77291 2.168945,-0.61994 2.168945,0.52916 0,0.7991 -0.344294,1.04047 -2.455549,1.72144 -1.532529,0.49431 -4.952784,2.43506 -4.952784,2.81036 0,0.24838 2.059415,-0.2407 4.70359,-1.11705 3.12331,-1.03513 3.498493,-1.08038 3.498493,-0.42193 0,0.58873 -0.938585,1.63739 -1.465515,1.63739 -0.212612,0 -0.386568,0.11906 -0.386568,0.26458 0,0.14552 0.280049,0.26459 0.622331,0.26459 0.78117,0 2.420377,1.08227 2.420377,1.59803 0,0.5166 -1.913692,0.42833 -3.701235,-0.17072 -1.853109,-0.62102 -3.296032,-0.87058 -3.463827,-0.59908 -0.07822,0.12655 -0.657961,0.2301 -1.288325,0.2301 -1.737085,0 -3.955074,1.12768 -5.734718,2.91566 l -0.958939,0.96344 2.149564,-0.53623 c 1.951907,-0.48691 2.624395,-0.87192 3.297222,-1.88766 0.09639,-0.14552 0.573541,-0.40735 1.06033,-0.58184 0.684624,-0.2454 0.999212,-0.24596 1.389062,-0.002 0.635975,0.39718 0.632108,0.58851 -0.02518,1.24579 -0.472807,0.47281 -0.706532,1.05834 -0.422455,1.05834 0.05869,0 1.279082,-0.23703 2.711979,-0.52673 2.433799,-0.49206 2.627035,-0.49744 2.935996,-0.0817 0.181901,0.24475 0.33073,0.52742 0.33073,0.62816 0,0.23856 -0.996211,0.50126 -1.918229,0.50584 -0.782729,0.004 -1.035169,0.52434 -0.264584,0.54549 0.939129,0.0258 2.31438,0.90383 2.344445,1.49685 0.01614,0.31831 -0.128107,0.63916 -0.320542,0.713 -0.394017,0.1512 -3.133622,-0.24836 -3.575534,-0.52148 -0.567658,-0.35083 -4.864609,-1.17191 -6.132955,-1.17191 -1.189663,0 -4.72325,0.87386 -5.346142,1.3221 -0.362452,0.26083 -2.805838,1.06419 -3.155987,1.03766 -0.155978,-0.0118 -0.581253,-0.16072 -0.945055,-0.3309 z m -3.704166,-3.1814 c 0,-0.17969 -2.933516,-2.28705 -3.183661,-2.28705 -0.138291,0 -0.40015,-0.23812 -0.581908,-0.52916 -0.181759,-0.29104 -0.4889284,-0.52917 -0.6825994,-0.52917 -0.268264,0 -0.2545098,0.0976 0.057751,0.40988 0.2254339,0.22544 0.5613594,0.61726 0.7465024,0.87072 0.586472,0.80289 1.972421,1.63114 3.577769,2.1381 0.03638,0.0115 0.06615,-0.0215 0.06615,-0.0733 z"
       id="path11637" />
    <path
       style="fill:#5a9b88"
       d="m 17.709842,254.21714 c -0.363802,-0.17017 -1.220184,-0.64406 -1.90307,-1.0531 -0.968692,-0.58022 -1.724752,-0.78604 -3.439584,-0.93635 -1.960234,-0.17182 -2.383986,-0.12308 -3.9177619,0.45064 -1.2954152,0.48456 -2.2747452,0.64871 -3.9687498,0.66522 -2.0688314,0.0202 -2.2489582,-0.0198 -2.2489582,-0.49948 0,-0.35043 0.4124067,-0.74414 1.2576401,-1.20064 l 1.25764,-0.67923 -0.9269109,-0.44201 c -1.0665095,-0.50859 -1.1277253,-0.716 -0.4044972,-1.37051 0.4099675,-0.37101 0.7630784,-0.43429 1.6405186,-0.29398 0.6149577,0.0983 1.2728402,0.30721 1.4619612,0.46416 0.189121,0.15696 0.3438563,0.21958 0.3438563,0.13916 0,-0.0804 0.3571875,-0.0438 0.79375,0.0814 0.4365624,0.12521 0.7937499,0.16849 0.7937499,0.0962 0,-0.45189 -1.5914998,-2.08747 -2.332464,-2.39707 -1.7433731,-0.72842 -4.6947975,0.1992 -5.74633413,1.80606 -0.28608786,0.43717 -0.71989395,0.90552 -0.96401355,1.04078 -0.54355032,0.30115 -1.27593772,0.0546 -1.27593772,-0.42949 0,-0.27078 -0.3101515,-0.31936 -1.2944597,-0.20279 -1.155749,0.13688 -1.313515,0.0933 -1.4722864,-0.40697 -0.2197402,-0.69234 0.00642,-1.09418 0.6158042,-1.09418 0.2550138,0 0.7211702,-0.23991 1.0359031,-0.53313 0.7521886,-0.70077 1.7234696,-1.05437 2.89615184,-1.05437 1.43024216,0 0.93075566,-0.21961 -1.18055444,-0.51905 -2.4367701,-0.34559 -3.294286,-0.73433 -3.1923594,-1.44717 0.1209152,-0.84565 1.34979,-0.81556 5.1077846,0.12508 4.4383067,1.11092 4.6508873,0.83941 1.0071215,-1.28631 -2.11350514,-1.23299 -2.7293554,-1.75544 -2.7293554,-2.31541 0,-0.4776 0.86926168,-0.48641 1.79907661,-0.0182 0.39295569,0.19785 1.02849479,0.43489 1.41230909,0.52673 l 0.6978442,0.167 -0.4818949,-0.94521 c -0.5644722,-1.10718 -0.5480072,-2.31851 0.033035,-2.43041 0.4454484,-0.0858 1.7767132,1.79793 2.6234725,3.71217 0.8033225,1.81604 1.4621316,2.47822 3.3808107,3.39809 2.6756782,1.2828 2.9587232,1.39753 3.0997932,1.25646 0.07141,-0.0714 -0.444487,-1.01416 -1.146426,-2.09501 -1.8925933,-2.91424 -1.9791499,-3.10139 -2.3466846,-5.07405 -0.2267413,-1.21698 0.5886222,-0.88049 1.9233777,0.79375 0.6670779,0.83675 1.3163189,1.77768 1.4427569,2.09097 0.126439,0.31328 0.368174,0.65507 0.537189,0.75953 0.230323,0.14235 0.234411,0.0537 0.01632,-0.35378 -0.324395,-0.60614 -0.359142,-2.55932 -0.05911,-3.32288 0.18295,-0.4656 0.221667,-0.46844 0.642862,-0.0472 0.246504,0.24651 0.45541,0.64804 0.464236,0.89231 0.0088,0.24427 0.03859,1.51569 0.06615,2.82537 0.04554,2.16444 0.139719,2.56193 1.034393,4.36563 0.923424,1.86166 2.896327,4.36556 3.200273,4.06161 0.0753,-0.0753 -0.165203,-0.93067 -0.534446,-1.90082 -1.4511,-3.81263 -1.648775,-4.43938 -1.657109,-5.25403 -0.0048,-0.46436 0.119239,-0.92331 0.275532,-1.01991 0.743978,-0.4598 2.816603,2.83199 2.470238,3.92329 -0.164977,0.5198 -0.145927,0.52959 0.253393,0.13027 0.506956,-0.50695 0.545678,-1.49996 0.133445,-3.42213 -0.254834,-1.18825 -0.538849,-1.62419 -1.947702,-2.98959 -1.851827,-1.7947 -2.240307,-2.37933 -2.054129,-3.09127 0.193333,-0.73931 0.591073,-0.60483 1.871918,0.63289 0.819832,0.79223 1.120821,0.96813 1.018685,0.59531 -0.492159,-1.79649 -1.020298,-5.45883 -0.872263,-6.04864 0.320461,-1.27682 1.298709,-0.58117 1.622576,1.15385 0.235382,1.26099 0.703036,3.57726 0.945137,4.68123 0.133805,0.61014 0.243282,1.61225 0.243282,2.22691 0,0.61465 0.04575,1.06795 0.101668,1.00731 0.05592,-0.0606 0.476899,-2.32352 0.935515,-5.02863 l 0.833847,-4.9184 -1.330109,-2.62223 c -0.73156,-1.44223 -1.331135,-2.75648 -1.33239,-2.92056 -0.0013,-0.16408 0.188793,-0.45691 0.422328,-0.65073 0.36678,-0.3044 0.527969,-0.22773 1.183508,0.56292 0.417394,0.50342 0.762101,1.11664 0.766015,1.36271 0.0092,0.57672 0.439994,0.84662 0.616631,0.38631 0.07469,-0.19463 0.220603,-1.05715 0.324258,-1.91671 0.23304,-1.93249 0.763491,-3.28263 1.289697,-3.28263 0.798546,0 0.779227,1.73166 -0.06878,6.16523 -1.016925,5.3167 -1.61003,9.05782 -1.791032,11.29727 -0.155645,1.92571 -0.07334,1.89071 1.24428,-0.52916 0.435799,-0.80037 1.049619,-1.8635 1.364044,-2.36251 0.48781,-0.77418 0.574882,-1.31763 0.59349,-3.70417 0.01673,-2.14537 0.131483,-3.0011 0.492648,-3.67364 0.258963,-0.48222 0.612686,-0.82963 0.78605,-0.77201 0.412818,0.13719 0.554371,2.80702 0.214156,4.03918 -0.389616,1.41107 0.295812,0.73873 1.183306,-1.16071 0.951215,-2.03582 1.877817,-3.22916 2.362846,-3.04304 0.585454,0.22466 0.467438,1.40454 -0.269403,2.69342 l -0.654387,1.14465 0.856012,-0.18146 c 1.359465,-0.28818 1.385178,-0.28312 1.385178,0.27236 0,0.35921 -0.406491,0.74766 -1.270958,1.21455 -1.228473,0.66348 -3.888416,3.04264 -3.888416,3.47795 0,0.18845 0.521562,0.12873 1.852083,-0.21208 0.218281,-0.0559 0.575469,0.0117 0.79375,0.15027 0.580297,0.36838 -0.53226,1.31914 -2.450946,2.09451 -0.83899,0.33904 -1.833425,0.98289 -2.210799,1.43137 -0.724213,0.86068 -1.904357,3.13035 -2.775683,5.33823 -0.651726,1.65143 -0.970708,4.73621 -0.518639,5.01561 0.632751,0.39106 1.913556,-1.39661 2.244398,-3.13259 0.05871,-0.30806 0.241618,-0.90806 0.406463,-1.33333 0.164846,-0.42528 0.242847,-0.92144 0.173336,-1.10259 -0.06951,-0.18114 0.02776,-0.3885 0.216164,-0.4608 0.188401,-0.0723 0.417276,-0.4691 0.508611,-0.88179 0.09133,-0.41269 0.470452,-1.09022 0.842482,-1.50562 l 0.676419,-0.75528 0.482601,0.55645 c 0.589407,0.67959 0.402764,2.12111 -0.465079,3.592 -0.312901,0.53032 -0.568911,1.03423 -0.568911,1.11978 0,0.29375 3.042739,-2.68541 3.425374,-3.35381 0.241113,-0.42118 0.388876,-1.45143 0.399454,-2.78511 0.01693,-2.13448 0.418924,-3.30729 1.133608,-3.30729 0.359056,0 0.372201,0.0883 0.383883,2.57824 0.0076,1.62495 0.01541,1.64241 0.471991,1.05833 0.255331,-0.32663 0.765102,-1.18918 1.132825,-1.91678 0.367722,-0.72761 0.900254,-1.53224 1.183404,-1.78808 0.492311,-0.44483 0.53542,-0.4424 0.986017,0.0555 0.454002,0.50167 0.445799,0.56401 -0.224777,1.70826 -0.382786,0.65318 -0.813625,1.2603 -0.957419,1.34917 -0.143794,0.0889 -0.261444,0.29207 -0.261444,0.45156 0,0.16186 0.204568,0.10575 0.463021,-0.12701 0.254661,-0.22934 1.094339,-0.73344 1.86595,-1.12023 1.54192,-0.77291 2.168945,-0.61994 2.168945,0.52916 0,0.7991 -0.344294,1.04047 -2.455549,1.72144 -1.532529,0.49431 -4.952784,2.43506 -4.952784,2.81036 0,0.24838 2.059415,-0.2407 4.70359,-1.11705 3.12331,-1.03513 3.498493,-1.08038 3.498493,-0.42193 0,0.58873 -0.938585,1.63739 -1.465515,1.63739 -0.212612,0 -0.386568,0.11906 -0.386568,0.26458 0,0.14552 0.280049,0.26459 0.622331,0.26459 0.78117,0 2.420377,1.08227 2.420377,1.59803 0,0.5166 -1.913692,0.42833 -3.701235,-0.17072 -1.853109,-0.62102 -3.296032,-0.87058 -3.463827,-0.59908 -0.07822,0.12655 -0.657961,0.2301 -1.288325,0.2301 -1.737085,0 -3.955074,1.12768 -5.734718,2.91566 l -0.958939,0.96344 2.149564,-0.53623 c 1.951907,-0.48691 2.624395,-0.87192 3.297222,-1.88766 0.09639,-0.14552 0.573541,-0.40735 1.06033,-0.58184 0.684624,-0.2454 0.999212,-0.24596 1.389062,-0.002 0.635975,0.39718 0.632108,0.58851 -0.02518,1.24579 -0.472807,0.47281 -0.706532,1.05834 -0.422455,1.05834 0.05869,0 1.279082,-0.23703 2.711979,-0.52673 2.433799,-0.49206 2.627035,-0.49744 2.935996,-0.0817 0.181901,0.24475 0.33073,0.52742 0.33073,0.62816 0,0.23856 -0.996211,0.50126 -1.918229,0.50584 -0.782729,0.004 -1.035169,0.52434 -0.264584,0.54549 0.939129,0.0258 2.31438,0.90383 2.344445,1.49685 0.01614,0.31831 -0.128107,0.63916 -0.320542,0.713 -0.394017,0.1512 -3.133622,-0.24836 -3.575534,-0.52148 -0.567658,-0.35083 -4.864609,-1.17191 -6.132955,-1.17191 -1.189663,0 -4.72325,0.87386 -5.346142,1.3221 -0.362452,0.26083 -2.805838,1.06419 -3.155987,1.03766 -0.155978,-0.0118 -0.581253,-0.16072 -0.945055,-0.3309 z m -3.704166,-3.1814 c 0,-0.17969 -2.933516,-2.28705 -3.183661,-2.28705 -0.138291,0 -0.40015,-0.23812 -0.581908,-0.52916 -0.181759,-0.29104 -0.4889284,-0.52917 -0.6825994,-0.52917 -0.268264,0 -0.2545098,0.0976 0.057751,0.40988 0.2254339,0.22544 0.5613594,0.61726 0.7465024,0.87072 0.586472,0.80289 1.972421,1.63114 3.577769,2.1381 0.03638,0.0115 0.06615,-0.0215 0.06615,-0.0733 z"
       id="path11615" />
    <path
       style="fill:#478c79"
       d="m 20.629565,230.90056 c -0.200342,-0.24139 -0.226383,-0.40808 -0.06375,-0.40808 0.151213,0 0.334985,0.14882 0.408384,0.33073 0.07972,0.19757 0.141862,0.14431 0.15434,-0.1323 0.01149,-0.25466 -0.12794,-0.46438 -0.309841,-0.46605 -0.181901,-0.002 -0.556444,-0.47422 -0.832317,-1.05012 -0.275874,-0.57589 -0.620558,-0.97354 -0.765966,-0.88368 -0.161896,0.10006 -0.212449,-0.10825 -0.130414,-0.53739 0.07368,-0.38543 0.02438,-0.70078 -0.109545,-0.70078 -0.13393,0 -0.169924,-0.11906 -0.07999,-0.26458 0.08994,-0.14552 0.03041,-0.26458 -0.132291,-0.26458 -0.162698,0 -0.225443,-0.11387 -0.139434,-0.25303 0.08601,-0.13917 0.330477,-0.18622 0.543262,-0.10457 0.212785,0.0816 0.321008,0.25505 0.240495,0.38532 -0.08051,0.13027 0.0265,0.23686 0.237796,0.23686 0.382305,0 0.749032,0.56627 0.856753,1.32292 0.0885,0.62164 0.606902,1.75973 0.625606,1.37344 0.0092,-0.19049 0.135834,-0.27276 0.281355,-0.18282 0.145521,0.0899 0.264583,0.0176 0.264583,-0.16077 0,-0.17837 0.06007,-0.26423 0.133485,-0.19081 0.147988,0.14798 -0.362819,1.81844 -0.657059,2.14873 -0.102723,0.11531 -0.339177,0.026 -0.525452,-0.19844 z"
       id="path10548" />
    <path
       style="fill:#478c79"
       d="m 28.888488,234.26916 c -0.181901,-0.0641 -0.33073,-0.35184 -0.33073,-0.63935 0,-0.2875 0.110836,-0.45423 0.246301,-0.37051 0.135466,0.0837 0.321086,0.0312 0.41249,-0.11667 0.207592,-0.3359 1.110231,-0.35277 1.31308,-0.0246 0.196173,0.31741 -1.209441,1.3033 -1.641141,1.15108 z"
       id="path10547" />
    <path
       style="fill:#478c79"
       d="m 20.187884,237.30943 c 0.08831,-0.32959 0.17406,-1.01596 0.190552,-1.52529 0.02758,-0.85177 0.04698,-0.87299 0.241823,-0.26458 0.361624,1.12917 0.293749,2.04886 -0.164179,2.22458 -0.341068,0.13088 -0.395922,0.042 -0.268196,-0.43471 z"
       id="path10546" />
    <path
       style="fill:#478c79"
       d="m 26.970258,238.3603 c 0,-0.20408 0.20836,-0.35571 0.463021,-0.33695 0.705985,0.052 0.806911,0.52765 0.132292,0.62347 -0.374562,0.0532 -0.595313,-0.053 -0.595313,-0.28652 z"
       id="path10545" />
    <path
       style="fill:#478c79"
       d="m 14.930563,239.75102 c -0.09057,-0.14655 0.02146,-0.33788 0.248968,-0.42518 0.227505,-0.0873 0.413645,-0.3484 0.413645,-0.58021 0,-0.28991 0.0853,-0.33618 0.273257,-0.14823 0.400321,0.40032 0.03117,1.15417 -0.470849,0.96153 -0.276923,-0.10626 -0.353698,-0.0559 -0.227072,0.149 0.105221,0.17025 0.131779,0.30955 0.05902,0.30955 -0.07276,0 -0.206396,-0.11991 -0.296968,-0.26646 z"
       id="path10544" />
    <path
       style="fill:#478c79"
       d="m 4.0838013,241.88407 c -0.2910416,-0.11708 -0.6132328,-0.16445 -0.7159804,-0.10526 -0.2643097,0.15225 -0.9100731,-0.95261 -1.1067773,-1.89363 l -0.1659197,-0.79375 0.3896506,0.66146 c 0.2143079,0.3638 0.3938697,0.53912 0.3990263,0.3896 0.00516,-0.14952 -0.170495,-0.52866 -0.3903369,-0.84252 -0.5828857,-0.83219 0.069388,-1.12763 0.6904506,-0.31273 0.7421463,0.97376 1.885386,3.14919 1.6440042,3.12831 -0.1182229,-0.0102 -0.4530757,-0.1144 -0.7441174,-0.23148 z"
       id="path10542" />
    <path
       style="fill:#478c79"
       d="m 28.717774,243.03702 c -0.324863,-0.84658 -0.159658,-3.30329 0.265801,-3.95262 0.234198,-0.35744 0.531855,-0.58435 0.661458,-0.50425 0.334216,0.20656 0.293784,2.23108 -0.04456,2.23108 -0.154109,0 -0.228539,-0.0893 -0.1654,-0.19844 0.06314,-0.10914 0.019,-0.43656 -0.09808,-0.72761 -0.185011,-0.45989 -0.215314,-0.43282 -0.231476,0.20675 -0.01071,0.42373 0.149758,0.80051 0.378279,0.8882 0.446124,0.17119 0.540578,1.29855 0.130054,1.55227 -0.146752,0.0907 -0.37733,-0.11063 -0.512396,-0.44741 -0.227115,-0.56628 -0.246835,-0.57153 -0.262345,-0.0699 -0.0092,0.29832 0.112665,0.67183 0.270866,0.83003 0.18387,0.18387 0.193872,0.34559 0.02772,0.44827 -0.142952,0.0883 -0.33192,-0.027 -0.419929,-0.25636 z"
       id="path10541" />
    <path
       style="fill:#478c79"
       d="m 11.184284,243.68157 c 0.08888,-0.27951 -0.04011,-0.48378 -0.357988,-0.5669 -0.318376,-0.0833 -0.531036,0.0262 -0.591852,0.30466 -0.06477,0.29654 -0.363376,0.0189 -0.9399703,-0.87397 -0.8071879,-1.24994 -1.1123979,-2.19518 -0.6081886,-1.88356 0.2684501,0.16591 0.6517741,-0.63764 0.416441,-0.87297 -0.084098,-0.0841 -0.2590206,0.0188 -0.3887167,0.22865 -0.129696,0.20985 -0.3139602,0.3034 -0.409476,0.20788 -0.095516,-0.0955 -0.00504,-0.41441 0.201058,-0.70866 0.4377296,-0.62494 0.5214188,-0.55567 2.0238466,1.67531 0.998562,1.48278 1.162183,2.01688 0.781858,2.55218 -0.216035,0.30407 -0.239875,0.29231 -0.127012,-0.0626 z m -1.3862774,-1.75936 c -0.2141094,-0.0714 -0.1621469,-0.23433 0.15875,-0.49785 0.4592944,-0.37717 0.4593044,-0.38614 2.817e-4,-0.24089 -0.2787133,0.0882 -0.4096132,0.0422 -0.3151142,-0.11069 0.088907,-0.14386 0.080208,-0.39333 -0.019331,-0.55439 -0.2209711,-0.35753 -0.6338737,0.20331 -0.6399487,0.86925 -0.00571,0.62538 0.8573966,1.46945 1.0160116,0.9936 0.064705,-0.19411 -0.025587,-0.40068 -0.2006494,-0.45903 z"
       id="path10540" />
    <path
       style="fill:#478c79"
       d="m -3.4568233,245.18912 c -1.0741507,-0.32329 -1.2799898,-0.80107 -0.5202867,-1.20765 0.4110987,-0.22001 0.6263118,-0.1916 0.9423072,0.12439 0.2252399,0.22524 0.5498508,0.40771 0.7213575,0.40548 0.1857548,-0.002 0.1544685,-0.10357 -0.077382,-0.2502 -0.6130269,-0.38769 -0.2376647,-0.46876 0.9873038,-0.21323 0.88616405,0.18485 1.05592844,0.30243 0.79374999,0.54975 -0.66942159,0.63149 -1.87908239,0.88279 -2.84704979,0.59146 z"
       id="path10538" />
    <path
       style="fill:#478c79"
       d="m 34.996129,245.44083 c 0.421422,-0.30815 0.416559,-0.34089 -0.06952,-0.468 -0.287455,-0.0752 -0.571584,-4.9e-4 -0.631399,0.16596 -0.05982,0.16645 -0.210904,0.20687 -0.335753,0.0898 -0.351233,-0.3293 0.478041,-0.73578 1.168909,-0.57295 0.4035,0.0951 0.556272,0.0465 0.440851,-0.14027 -0.118687,-0.19204 0.06933,-0.23189 0.573144,-0.12149 0.50519,0.1107 0.634649,0.083 0.39686,-0.0849 -0.496552,-0.35058 0.257437,-0.63377 0.773781,-0.29063 0.524571,0.34861 -1.137955,1.75376 -2.074988,1.75376 -0.621517,0 -0.647093,-0.035 -0.241884,-0.33133 z"
       id="path10536" />
    <path
       style="fill:#478c79"
       d="m 28.028592,245.95499 c 0,-0.22687 -0.127852,-0.33348 -0.284116,-0.2369 -0.165506,0.10229 -0.148217,-0.042 0.04141,-0.34566 0.213542,-0.34194 0.516078,-0.47662 0.879428,-0.3915 0.485201,0.11367 0.504284,0.0846 0.153858,-0.23403 -0.220024,-0.20009 -0.351271,-0.3363 -0.291661,-0.30268 0.05961,0.0336 0.556197,-0.19057 1.103525,-0.49819 0.951005,-0.53449 1.609942,-1.80672 0.940551,-1.81594 -0.19864,-0.003 -0.192164,-0.0688 0.01996,-0.20371 0.1727,-0.10982 0.675002,-0.92727 1.116226,-1.81656 0.441224,-0.88929 0.990717,-1.68923 1.221096,-1.77763 0.230378,-0.0884 0.353839,-0.0555 0.274356,0.0731 -0.07948,0.12861 0.0334,0.3021 0.250841,0.38554 0.217446,0.0834 0.395356,0.28154 0.395356,0.44022 0,0.15867 -0.139296,0.20241 -0.309546,0.0972 -0.208455,-0.12883 -0.254086,-0.0468 -0.139724,0.25124 0.123881,0.32283 -0.06079,0.55006 -0.682641,0.83994 -0.563242,0.26256 -0.650364,0.35992 -0.256787,0.28698 0.627345,-0.11627 0.594282,0.10063 -0.146916,0.9638 -0.309631,0.36058 -0.478429,0.39433 -0.768435,0.15365 -0.204403,-0.16964 -0.346022,-0.19899 -0.314708,-0.0652 0.03131,0.13377 -0.03778,0.46081 -0.153543,0.72676 -0.142469,0.3273 -0.06137,0.62651 0.250974,0.92604 0.433827,0.41601 0.451071,0.40783 0.288048,-0.13669 -0.129141,-0.43136 -0.02694,-0.65759 0.400408,-0.8863 0.393628,-0.21066 0.517341,-0.21572 0.393976,-0.0161 -0.09891,0.16004 -0.04672,0.29098 0.115977,0.29098 0.162697,0 0.222229,0.11906 0.132292,0.26458 -0.08994,0.14552 -0.04041,0.26459 0.110062,0.26459 0.164655,0 0.210724,-0.34238 0.115707,-0.8599 -0.146283,-0.79675 -0.129332,-0.82295 0.230811,-0.35679 0.294222,0.38083 0.438893,0.42186 0.595263,0.16885 0.114421,-0.18513 0.07197,-0.41743 -0.09515,-0.52072 -0.404331,-0.24989 1.9879,-1.43613 2.499931,-1.23964 0.559629,0.21475 0.757256,0.89823 0.388275,1.34282 -0.173442,0.20899 -0.752309,0.52013 -1.286371,0.69143 -1.549762,0.49708 -3.274297,1.29959 -4.328924,2.01445 -0.564082,0.38236 -1.113977,0.57714 -1.301734,0.4611 -0.229824,-0.14204 -0.272263,-0.0633 -0.144827,0.26883 0.129954,0.33865 0.07594,0.42971 -0.19355,0.32629 -0.223898,-0.0859 -0.427379,0.0614 -0.507397,0.36742 -0.159494,0.6099 -0.712299,0.68625 -0.712299,0.0984 z"
       id="path10535" />
    <path
       style="fill:#478c79"
       d="m 36.160204,248.04433 c -0.421686,-0.11714 -0.408761,-0.17927 0.132292,-0.63595 l 0.599637,-0.50614 -0.857278,0.41215 c -0.722299,0.34725 -1.003075,0.35943 -1.783262,0.0773 -0.509291,-0.18417 -0.801664,-0.41168 -0.649716,-0.50559 0.151947,-0.0939 -0.414804,-0.13421 -1.259446,-0.0896 -0.844643,0.0446 -1.535714,0.0953 -1.535714,0.11268 0,0.20754 -1.192926,0.0852 -1.19904,-0.12294 -0.0046,-0.15758 -0.153456,-0.0976 -0.330729,0.13329 -0.536168,0.69834 -1.360471,1.03298 -1.791779,0.7274 -0.321879,-0.22805 -0.315807,-0.25 0.03825,-0.13831 0.231477,0.073 0.588665,0.0266 0.793749,-0.10328 0.279656,-0.17704 0.207507,-0.2449 -0.288576,-0.27144 -0.363802,-0.0195 -0.746471,-0.0227 -0.850374,-0.007 -0.103904,0.0155 -0.11786,-0.15701 -0.03101,-0.38333 0.111898,-0.2916 0.240168,-0.32922 0.44027,-0.12912 0.362947,0.36295 1.163209,0.36506 1.283768,0.003 0.05115,-0.15344 0.295749,-0.30875 0.543557,-0.34512 0.247808,-0.0364 0.533381,-0.14895 0.634607,-0.25017 0.282734,-0.28274 0.677375,-0.21824 0.492727,0.0805 -0.08994,0.14552 -0.04446,0.26459 0.101062,0.26459 0.145521,0 0.342707,-0.12641 0.438191,-0.28091 0.321151,-0.51963 2.503455,-1.19926 2.503455,-0.77964 0,0.16391 -0.119062,0.22444 -0.264583,0.1345 -0.145521,-0.0899 -0.264583,-0.0502 -0.264583,0.0884 0,0.3333 0.737941,0.64106 1.719791,0.71723 1.985786,0.15406 4.280376,1.09313 3.808016,1.55845 -0.197607,0.19466 -1.957786,0.36815 -2.423278,0.23885 z"
       id="path10532" />
    <path
       style="fill:#478c79"
       d="m 25.629257,247.33067 c 0.499376,-0.5254 0.964974,-0.89825 1.034662,-0.82856 0.174595,0.17459 -0.761825,1.17745 -1.410492,1.51056 -0.32793,0.1684 -0.18371,-0.0933 0.37583,-0.682 z"
       id="path10531" />
    <path
       style="fill:#478c79"
       d="m 12.748905,248.16122 c -0.327422,-0.15791 -0.595312,-0.40256 -0.595312,-0.54366 0,-0.1411 0.167993,-0.11712 0.373319,0.0533 0.255205,0.2118 0.427569,0.22205 0.544782,0.0324 0.0943,-0.15259 0.02553,-0.27743 -0.152834,-0.27743 -0.178362,0 -0.245953,-0.0783 -0.150202,-0.17409 0.09575,-0.0958 0.03922,-0.33661 -0.125618,-0.53523 -0.236342,-0.28477 -0.209446,-0.32649 0.127208,-0.1973 0.391535,0.15024 0.392584,0.0631 0.01266,-1.05197 -0.227844,-0.66869 -0.516979,-1.27928 -0.642523,-1.35687 -0.125544,-0.0776 -0.153111,-0.33691 -0.06126,-0.57627 0.147363,-0.38403 0.192029,-0.37525 0.379803,0.0746 0.130672,0.31306 0.190081,-0.17162 0.153933,-1.25583 -0.03238,-0.97111 0.01615,-1.84068 0.10785,-1.93237 0.0917,-0.0917 0.183954,0.98558 0.205021,2.39395 0.02107,1.40837 0.153145,2.77525 0.293506,3.03752 0.286469,0.53527 0.508355,2.64202 0.27534,2.61426 -0.0827,-0.01 -0.418249,-0.1471 -0.745671,-0.30501 z"
       id="path10529" />
    <path
       style="fill:#478c79"
       d="m 26.283535,248.52502 c 0.103833,-0.168 0.0627,-0.30546 -0.09141,-0.30546 -0.46332,0 -0.315401,-0.45824 0.190636,-0.59058 0.258958,-0.0677 0.633472,0.051 0.832252,0.26378 0.312082,0.33408 0.279404,0.36087 -0.239384,0.19621 -0.389589,-0.12365 -0.54113,-0.0941 -0.431061,0.084 0.09336,0.15106 0.03034,0.3608 -0.140039,0.4661 -0.19347,0.11957 -0.238898,0.0768 -0.120992,-0.11401 z"
       id="path10528" />
    <path
       style="fill:#478c79"
       d="m 10.036926,249.26223 c 0,-0.15411 -0.1488281,-0.19455 -0.3307291,-0.0899 -0.1819011,0.10468 -0.2403433,0.0908 -0.1298717,-0.0309 0.1104716,-0.12167 -0.059111,-0.49795 -0.3768497,-0.83617 -0.317739,-0.33821 -0.4672695,-0.61494 -0.3322899,-0.61494 0.2620714,0 1.6989074,1.4344 1.6989074,1.69603 0,0.0858 -0.119063,0.15605 -0.264584,0.15605 -0.14552,0 -0.264583,-0.12608 -0.264583,-0.28019 z"
       id="path10524" />
    <path
       style="fill:#478c79"
       d="m -4.2945348,249.31063 c 0.2805981,-0.17787 0.2609383,-0.25901 -0.095944,-0.39595 -0.3430624,-0.13165 -0.3789967,-0.25642 -0.1524586,-0.52939 0.3397878,-0.40941 1.5384018,-0.35068 1.9792809,0.097 0.3967129,0.40282 -0.4808578,1.06165 -1.406757,1.05611 -0.4716402,-0.003 -0.5699699,-0.0719 -0.324121,-0.22776 z"
       id="path10523" />
    <path
       style="fill:#478c79"
       d="m 28.822342,249.54361 c 0,-0.18614 0.178031,-0.25402 0.421359,-0.16064 0.279771,0.10736 0.467186,-0.0136 0.557734,-0.35981 0.175294,-0.67032 0.960612,-0.91693 1.685151,-0.52916 0.58003,0.31042 0.391856,0.81968 -0.346462,0.93763 -0.183374,0.0293 -0.779892,0.13901 -1.325595,0.24379 -0.707842,0.13593 -0.992187,0.0982 -0.992187,-0.13181 z"
       id="path10520" />
    <path
       style="fill:#478c79"
       d="m 11.567093,249.05933 c -0.548059,-0.3943 -0.928334,-0.86446 -0.859038,-1.06209 0.192896,-0.55013 -0.136965,-0.90496 -0.534541,-0.575 -0.2633182,0.21854 -0.3363628,0.17441 -0.3071744,-0.18559 0.02784,-0.34336 -0.1783956,-0.49145 -0.7554552,-0.54245 l -0.7937499,-0.0701 0.6614583,0.41915 c 0.363802,0.23053 0.4530989,0.35513 0.1984374,0.27689 -0.2546614,-0.0782 -0.4630208,-0.0217 -0.4630208,0.12561 0,0.14733 -0.1488281,0.2337 -0.3307291,0.19193 -0.181901,-0.0418 -0.3307292,0.0423 -0.3307292,0.18684 0,0.14453 0.07512,0.23775 0.1669339,0.20714 0.091814,-0.0306 0.3827943,0.18288 0.6466239,0.47441 0.4270123,0.47184 0.4304719,0.51116 0.031504,0.35807 -0.2465026,-0.0946 -0.4500097,-0.30808 -0.452238,-0.47441 -0.00258,-0.19265 -0.083823,-0.17664 -0.2238094,0.0441 -0.1661439,0.26198 -0.3248109,0.18619 -0.6503579,-0.31066 -0.23683,-0.36145 -0.6961096,-0.74145 -1.0206213,-0.84444 -0.3245117,-0.103 -0.7605609,-0.35781 -0.9689982,-0.56625 -0.2679122,-0.26791 -0.4615018,-0.29645 -0.6605692,-0.0974 -0.1548758,0.15488 -0.3853467,0.28159 -0.5121577,0.28159 -0.1268111,0 -0.044381,-0.18618 0.1831787,-0.41374 0.2275593,-0.22756 0.53372,-0.3396 0.6803571,-0.24897 0.1466371,0.0906 0.2666129,0.0486 0.2666129,-0.0934 0,-0.14199 -0.1488281,-0.31821 -0.3307291,-0.39161 -0.2321526,-0.0937 -0.2378763,-0.13967 -0.019203,-0.15434 0.1713391,-0.0115 0.545662,0.27677 0.8318288,0.64057 0.2861667,0.36381 0.6519958,0.66146 0.8129534,0.66146 0.1609577,0 0.2926503,0.12779 0.2926503,0.28399 0,0.15619 0.1998925,0.24548 0.4442056,0.19843 0.2443131,-0.0471 0.4408574,-0.20461 0.4367651,-0.35013 -0.00409,-0.14552 0.1829683,-0.40962 0.4156902,-0.58689 0.3822731,-0.2912 0.3776195,-0.32313 -0.048194,-0.33073 -0.2592286,-0.005 -0.5436884,-0.19699 -0.6321328,-0.42748 -0.1269593,-0.33085 -0.2058105,-0.34624 -0.3746047,-0.0731 -0.1205775,0.1951 -0.090462,0.42216 0.069069,0.52075 0.1555761,0.0962 0.2294851,0.33497 0.1642422,0.53069 -0.065243,0.19573 -0.3360655,-0.13697 -0.6018281,-0.73933 -0.3177044,-0.7201 -0.6092072,-1.04686 -0.8510894,-0.95404 -0.3008923,0.11546 -0.2860657,0.23158 0.08142,0.63765 0.2471176,0.27306 0.3606394,0.49647 0.2522708,0.49647 -0.1083687,0 -0.3947125,-0.23307 -0.6363196,-0.51793 -0.2416072,-0.28486 -0.6178795,-0.55275 -0.8361607,-0.59531 -0.2182813,-0.0426 -0.9486079,-0.46434 -1.622948,-0.93728 -0.6743402,-0.47294 -1.3887152,-0.86368 -1.5875,-0.86831 -0.4215031,-0.01 -1.28746847,-0.62119 -1.28746847,-0.90896 0,-0.10866 0.20473026,-0.11901 0.45495614,-0.023 0.25022583,0.096 0.35853013,0.079 0.24067613,-0.0378 -0.1178539,-0.11683 -0.4577068,-0.21242 -0.75522856,-0.21242 -0.29752176,0 -0.67371665,-0.23812 -0.83598865,-0.52917 -0.162272,-0.29104 -0.41410249,-0.61664 -0.55962332,-0.72355 -0.57487627,-0.42235 1.11477556,-0.17314 1.7252712,0.25446 0.35881403,0.25133 0.83163543,0.48326 1.05071433,0.51542 0.5996596,0.088 1.4161802,1.18904 1.0497399,1.41552 -0.2007254,0.12405 -0.1579461,0.23813 0.1308557,0.34896 0.44347,0.17017 0.8406855,-0.40041 0.5764194,-0.828 -0.079254,-0.12823 0.012922,-0.23315 0.204836,-0.23315 0.2091189,0 0.2976951,0.19594 0.2210576,0.489 -0.097034,0.37106 -0.021222,0.44807 0.3143252,0.31931 0.3569612,-0.13698 0.4141049,-0.0485 0.2964429,0.45909 -0.1085128,0.4681 0.023273,0.75025 0.5157267,1.10415 0.5683504,0.40844 0.6614857,0.41775 0.6614857,0.0662 0,-0.5458 0.091298,-0.52602 1.3943202,0.30196 0.6155718,0.39115 1.9429525,1.0334 2.949735,1.42722 1.054754,0.41258 1.632732,0.75593 1.363821,0.81017 -0.435788,0.0879 -0.432153,0.13793 0.05489,0.75559 0.28687,0.3638 0.536354,0.75075 0.554409,0.85989 0.01806,0.10914 0.122123,0.16867 0.231264,0.13229 0.109141,-0.0364 0.161954,-0.17559 0.117363,-0.30937 -0.04459,-0.13377 0.134002,-0.0782 0.396875,0.12357 0.262872,0.20174 0.537481,0.4118 0.610241,0.46682 0.07276,0.055 -0.105833,0.0589 -0.396875,0.009 -0.317525,-0.0548 -0.502711,0.041 -0.463021,0.23943 0.0824,0.41199 0.127834,0.43004 -1.04952,-0.417 z"
       id="path10519" />
    <path
       style="fill:#478c79"
       d="m 24.016141,249.4567 c 0.317739,-0.33822 0.517087,-0.67556 0.442996,-0.74965 -0.07409,-0.0741 0.01412,-0.14038 0.196017,-0.1473 0.181901,-0.007 0.529906,-0.0955 0.773344,-0.19686 0.32929,-0.1371 0.424772,-0.0605 0.372926,0.29921 -0.03833,0.26593 -0.318156,0.52041 -0.621838,0.56553 -0.303682,0.0451 -0.694436,0.25348 -0.868343,0.46302 -0.173907,0.20955 -0.441433,0.38099 -0.594502,0.38099 -0.153069,0 -0.01834,-0.27672 0.2994,-0.61494 z"
       id="path10518" />
    <path
       style="fill:#478c79"
       d="m -1.4757136,249.80172 c -0.1824399,-0.29519 0.3288078,-0.59919 0.66169289,-0.39346 0.15089199,0.0933 0.19379041,-0.0149 0.10139282,-0.25572 -0.11335599,-0.2954 -0.2548941,-0.33875 -0.48433431,-0.14833 -0.3219016,0.26715 -0.6723611,0.1153 -0.6723611,-0.29133 0,-0.1167 0.1785937,-0.14365 0.3968749,-0.0599 0.2201532,0.0845 0.396875,0.007 0.396875,-0.17299 0,-0.25002 0.0863778,-0.2536 0.37331976,-0.0155 0.41316985,0.3429 0.83913501,-0.0462 0.55459491,-0.50658 -0.0895406,-0.14488 0.006289,-0.19711 0.21482596,-0.11709 0.20706092,0.0795 0.44686274,-0.039 0.53289294,-0.26315 0.0995221,-0.25935 0.328483,-0.34579 0.62945493,-0.23764 0.26017,0.0935 0.3880043,0.0759 0.2840763,-0.0391 -0.103928,-0.11498 -0.62979016,-0.22325 -1.16858251,-0.24059 -0.57047675,-0.0184 -1.03002543,-0.18274 -1.10030289,-0.39359 -0.0919932,-0.27599 -0.008858,-0.29948 0.349729,-0.0988 0.30423678,0.17026 0.79180068,0.17451 1.38021908,0.012 0.50039532,-0.13816 0.98146622,-0.17955 1.06904642,-0.092 0.3909247,0.39092 0.2090848,0.90622 -0.4350852,1.23294 -0.3848976,0.19521 -0.99747002,0.64592 -1.36127209,1.00157 -0.36380206,0.35565 -0.51399397,0.56035 -0.33375979,0.4549 0.22143958,-0.12956 0.27660564,-0.0586 0.17013004,0.21889 -0.08666266,0.22584 -0.23412699,0.41973 -0.32769851,0.43086 -0.0935715,0.0111 -0.37801663,0.0601 -0.63210024,0.10873 -0.25408361,0.0487 -0.52391641,-0.0117 -0.59962831,-0.13426 z"
       id="path10517" />
    <path
       style="fill:#478c79"
       d="m 13.674947,250.57957 c -0.511236,-0.29777 -0.632521,-1.03715 -0.17013,-1.03715 0.169707,0 0.218753,0.19474 0.116616,0.46303 -0.141337,0.37125 -0.110239,0.39747 0.156901,0.13229 0.183246,-0.1819 0.577253,-0.34013 0.875571,-0.35162 0.298318,-0.0115 0.393568,-0.0809 0.211667,-0.15434 -0.181901,-0.0734 -0.33073,-0.24962 -0.33073,-0.3916 0,-0.36242 0.475581,-0.0277 0.786768,0.55378 0.191248,0.35735 0.152511,0.57623 -0.145798,0.8238 -0.333622,0.27688 -0.391751,0.27003 -0.325169,-0.0384 0.04459,-0.20653 -0.09752,-0.37552 -0.315801,-0.37552 -0.218281,0 -0.367109,0.14883 -0.330729,0.33073 0.07831,0.39155 0.06748,0.39247 -0.529166,0.045 z"
       id="path10514" />
    <path
       style="fill:#478c79"
       d="m 33.641015,250.81779 c -0.502869,-0.19962 -0.276742,-0.26372 1.068306,-0.30284 0.400182,-0.0116 0.727604,-0.10342 0.727604,-0.20396 0,-0.10053 0.184777,-0.25369 0.410617,-0.34035 0.235459,-0.0904 0.341662,-0.046 0.248968,0.10398 -0.08891,0.14386 -0.03556,0.26155 0.11855,0.26155 0.154109,0 0.280198,0.11907 0.280198,0.26459 0,0.14552 -0.0893,0.25048 -0.198438,0.23325 -0.10914,-0.0172 -0.257968,-0.008 -0.330729,0.0204 -0.371225,0.14507 -1.929232,0.12056 -2.325076,-0.0366 z"
       id="path10513" />
    <path
       style="fill:#478c79"
       d="m 30.806717,251.39456 c 0.166406,-0.26925 -0.695644,-0.35775 -2.60912,-0.26786 -0.657168,0.0309 -0.960267,-0.0513 -0.849637,-0.23028 0.09893,-0.16007 0.52366,-0.20794 0.999881,-0.1127 0.68864,0.13773 0.800442,0.094 0.664674,-0.25977 -0.114232,-0.29769 -0.0486,-0.38137 0.218657,-0.27882 0.210034,0.0806 0.334359,0.22336 0.276277,0.31726 -0.05808,0.0939 0.431108,0.14779 1.087088,0.11978 1.165214,-0.0498 1.181976,-0.0391 0.727574,0.46302 -0.495372,0.54738 -0.786689,0.68833 -0.515394,0.24937 z"
       id="path10510" />
    <path
       style="fill:#478c79"
       d="m 21.149425,251.82593 c 0,-0.39288 0.648151,-1.48971 0.880317,-1.48971 0.146416,0 0.191025,-0.0752 0.09913,-0.16707 -0.09189,-0.0919 -0.02691,-0.41932 0.144406,-0.72761 0.171317,-0.30829 0.288457,-0.64302 0.260311,-0.74385 -0.02815,-0.10083 0.388588,-0.54582 0.926076,-0.98886 0.783554,-0.64587 0.911477,-0.8713 0.645404,-1.13738 -0.266073,-0.26607 -0.378644,-0.25612 -0.567954,0.0502 -0.129859,0.21011 -0.185117,0.46453 -0.122794,0.56537 0.06232,0.10084 -0.05944,0.24964 -0.270582,0.33066 -0.304391,0.11681 -0.333344,0.0267 -0.139806,-0.43529 0.13425,-0.32044 0.364632,-1.05886 0.511962,-1.64095 0.147329,-0.58208 0.572932,-1.38575 0.945783,-1.78593 0.778359,-0.83542 1.062782,-0.93136 0.784339,-0.26459 -0.319699,0.76557 -0.322275,1.83004 -0.0044,1.83004 0.163724,0 0.274305,-0.33764 0.245736,-0.7503 -0.02857,-0.41267 0.05528,-0.81657 0.186327,-0.89756 0.766008,-0.47342 -0.189447,3.04651 -1.009877,3.72043 -0.177159,0.14552 -0.508184,0.71586 -0.735611,1.26743 -0.227427,0.55157 -0.504883,0.94638 -0.616567,0.87736 -0.111685,-0.069 -0.374977,-0.0192 -0.585094,0.11061 -0.304252,0.18803 -0.315147,0.30299 -0.05351,0.56462 0.261635,0.26164 0.329343,0.22348 0.332569,-0.18742 0.0033,-0.42264 0.04874,-0.44526 0.251198,-0.1251 0.169942,0.26874 0.106688,0.55477 -0.202489,0.91565 -0.446863,0.52159 -0.444742,0.52175 0.344115,0.0259 0.436562,-0.2744 0.950057,-0.68645 1.1411,-0.91566 0.292578,-0.35104 0.331083,-0.35417 0.244186,-0.0199 -0.119935,0.46139 -1.693413,1.5875 -2.218164,1.5875 -0.196761,0 -0.357747,-0.19844 -0.357747,-0.44097 0,-0.24254 -0.08778,-0.3532 -0.195063,-0.24591 -0.107285,0.10728 -0.196582,0.38477 -0.198438,0.61663 -0.0019,0.23186 -0.152202,0.47151 -0.334103,0.53254 -0.181901,0.061 -0.33073,0.0471 -0.33073,-0.0309 z"
       id="path10508" />
    <path
       style="fill:#478c79"
       d="m 2.2185317,253.01297 c -0.3075628,-0.30756 -0.025793,-0.60123 1.071988,-1.11725 0.8924823,-0.41951 1.437533,-0.51365 2.1740871,-0.37547 l 0.9829938,0.18441 -0.652733,-0.56493 c -0.6029478,-0.52185 -0.6067116,-0.53872 -0.049347,-0.2212 0.5063796,0.28847 0.6423117,0.28116 0.8455096,-0.0455 0.3179251,-0.51106 0.2627848,-0.5448 -0.9484263,-0.58032 -0.5662995,-0.0166 -1.1784636,-0.14726 -1.3603647,-0.29033 -0.2199744,-0.17302 -0.3307291,-0.16665 -0.3307291,0.019 0,0.15353 0.2470976,0.35757 0.5491058,0.45343 0.3020081,0.0958 0.4907991,0.23258 0.4195355,0.30384 -0.1611888,0.16119 -1.3030004,-0.42562 -1.5416245,-0.79229 -0.096859,-0.14883 0.1005139,-0.4882 0.4386075,-0.75414 0.673225,-0.52956 1.0523631,-0.63402 0.7960787,-0.21935 -0.094011,0.15211 0.092788,0.2363 0.4403283,0.19844 0.3728672,-0.0406 0.6063105,0.0775 0.6106826,0.30908 0.00389,0.20615 0.1856714,0.42357 0.4039526,0.48316 0.3527778,0.0963 0.3527778,0.0743 0,-0.1983 -0.3139666,-0.24258 -0.1827557,-0.27679 0.6280951,-0.16375 1.2016507,0.16752 1.485049,0.36982 0.9667855,0.69012 -0.2983996,0.18442 -0.3129442,0.36563 -0.071824,0.89483 0.2548276,0.55928 0.2316721,0.68219 -0.1473347,0.782 -0.3549945,0.0935 -0.3382576,0.12098 0.079487,0.13053 0.2910416,0.007 0.7672916,-0.0902 1.0583333,-0.2153 0.4913647,-0.21114 0.4834893,-0.22871 -0.1102431,-0.24598 -0.8054148,-0.0234 -0.4616549,-0.41123 0.37896,-0.42752 0.3605344,-0.007 0.5544917,0.10416 0.461731,0.26459 -0.087973,0.15214 0.07825,0.0683 0.3693843,-0.1864 0.291134,-0.25466 0.681526,-0.46302 0.867538,-0.46302 0.191923,0 0.272332,-0.17166 0.185908,-0.39687 -0.189784,-0.49457 -0.06185,-0.49532 0.981735,-0.006 0.458555,0.21511 1.309987,0.50081 1.89207,0.63488 0.582083,0.13407 0.849974,0.25572 0.595312,0.27034 -0.254661,0.0146 -0.433255,0.16834 -0.396875,0.34159 0.03638,0.17326 -0.171979,0.36477 -0.46302,0.42557 -0.291042,0.0608 -0.440903,0.0193 -0.333025,-0.0922 0.393183,-0.4065 -0.373992,-0.89056 -1.211406,-0.76436 -0.693755,0.10456 -0.746352,0.0804 -0.307653,-0.14127 l 0.529167,-0.2674 -0.529167,0.0675 c -0.659485,0.0841 -0.453114,0.57516 0.264584,0.62951 0.997552,0.0755 1.057562,0.10876 0.638875,0.35362 -0.230702,0.13492 -0.754371,0.15574 -1.163709,0.0463 -0.49115,-0.13135 -1.230214,-0.035 -2.1732479,0.28339 -0.785949,0.26533 -1.5605982,0.40109 -1.7214428,0.30168 -0.1765437,-0.10911 -0.217625,-0.0597 -0.1036576,0.12472 0.1048313,0.16962 0.034764,0.31514 -0.1575571,0.32722 -0.1904892,0.012 -0.7035315,0.0743 -1.140094,0.13852 -0.5377923,0.0791 -0.6761702,0.039 -0.4291237,-0.12447 0.2154481,-0.14253 0.2807537,-0.38864 0.159622,-0.60153 -0.1653694,-0.29065 -0.1361154,-0.29637 0.1513111,-0.0296 0.4124054,0.38279 0.8820007,0.4458 0.6613236,0.0887 -0.082255,-0.13309 1.49e-5,-0.29642 0.1828226,-0.36295 0.1828077,-0.0665 -0.3224661,-0.11058 -1.1228306,-0.0979 -0.9694347,0.0154 -1.5628024,0.15861 -1.7775228,0.42909 -0.2103023,0.26492 -0.3252388,0.29398 -0.3307291,0.0836 -0.00489,-0.18725 -0.1878103,-0.25358 -0.4363198,-0.15822 -0.3371933,0.12939 -0.2670819,0.23629 0.3307291,0.50427 l 0.7586343,0.34007 -0.8730822,-0.0407 c -0.4801952,-0.0224 -0.9266795,-0.0943 -0.9921874,-0.1598 z"
       id="path10505" />
    <path
       style="fill:#478c79"
       d="m 33.915571,253.44598 c -0.472943,-0.15172 -0.859896,-0.38471 -0.859896,-0.51777 0,-0.13306 -0.113855,-0.17156 -0.253011,-0.0856 -0.139156,0.086 -1.02677,-0.0231 -1.972474,-0.2424 -0.945705,-0.21932 -2.968656,-0.42332 -4.495446,-0.45332 -1.52679,-0.03 -2.722028,-0.14186 -2.656085,-0.24856 0.06594,-0.10669 -0.02967,-0.25429 -0.212481,-0.32799 -0.200518,-0.0808 -0.14869,-0.14229 0.130643,-0.15489 0.254662,-0.0115 0.463021,0.0944 0.463021,0.23539 0,0.14095 0.178594,0.18774 0.396875,0.10398 0.218281,-0.0838 0.396875,-0.31815 0.396875,-0.52086 0,-0.24325 0.292386,-0.36225 0.859896,-0.34997 0.742226,0.016 0.787483,0.0528 0.330729,0.26865 -0.437961,0.20695 -0.403759,0.22568 0.198437,0.10865 0.452154,-0.0879 0.727604,-0.0268 0.727604,0.1613 0,0.19352 0.279238,0.24685 0.774198,0.14786 0.465603,-0.0931 1.105004,0.0102 1.604117,0.25918 0.456455,0.22771 1.115943,0.35934 1.46553,0.29251 0.349586,-0.0668 0.682996,0.01 0.74091,0.17077 0.05792,0.16075 0.198098,0.20585 0.311517,0.10023 0.11342,-0.10562 0.05322,-0.37639 -0.133772,-0.60171 -0.186994,-0.22531 -0.293258,-0.44047 -0.236141,-0.47813 0.05712,-0.0377 0.297666,-0.21589 0.534553,-0.39606 0.361367,-0.27485 0.454096,-0.23813 0.576008,0.22806 0.10642,0.40695 0.04426,0.51687 -0.232266,0.41075 -0.207664,-0.0797 -0.37757,-0.0258 -0.37757,0.1197 0,0.36456 0.807688,0.64413 1.01889,0.35268 0.249466,-0.34427 2.083965,-0.43549 2.282948,-0.11353 0.09294,0.15038 0.385494,0.27341 0.650129,0.27341 0.625644,0 1.357419,0.82931 0.87503,0.99166 -0.182808,0.0615 -0.265078,0.22076 -0.182823,0.35385 0.197941,0.32028 -1.638122,0.26108 -2.725945,-0.0879 z m 1.642346,-0.48216 c -0.08372,-0.13547 0.0036,-0.24813 0.194122,-0.25036 0.251669,-0.003 0.237856,-0.0742 -0.05053,-0.26053 -0.218281,-0.14106 -0.873125,-0.24209 -1.455208,-0.2245 -0.632887,0.0191 -0.812811,0.0789 -0.447576,0.14867 0.494247,0.0944 0.551158,0.1885 0.298332,0.49313 -0.253487,0.30544 -0.206488,0.37645 0.249139,0.37645 0.308859,0 0.561563,-0.12609 0.561563,-0.2802 0,-0.15411 0.121005,-0.20541 0.268899,-0.11401 0.147895,0.0914 0.18903,0.29542 0.09141,0.45337 -0.106817,0.17284 -0.05414,0.21095 0.132291,0.0957 0.170379,-0.1053 0.24128,-0.30229 0.157557,-0.43775 z"
       id="path10502" />
    <path
       style="fill:#478c79"
       d="m 17.312967,253.94281 c -0.436562,-0.20355 -1.056662,-0.62204 -1.377999,-0.93 -0.321337,-0.30796 -0.857118,-0.57179 -1.190625,-0.58629 -0.591467,-0.0257 -0.590112,-0.0313 0.05508,-0.22625 0.399076,-0.12059 0.768126,-0.0839 0.930366,0.0925 0.1479,0.16081 0.555319,0.53052 0.905376,0.82156 0.719592,0.59828 0.523026,0.0918 -0.333724,-0.8599 -0.554555,-0.616 -0.277371,-0.85044 0.312824,-0.26458 0.267317,0.26536 0.294135,0.22613 0.13567,-0.19844 -0.170841,-0.45772 -0.140925,-0.4832 0.221594,-0.18871 0.238625,0.19385 0.360605,0.56414 0.283262,0.8599 -0.09936,0.37997 -0.0032,0.51835 0.358044,0.51539 0.41672,-0.003 0.431875,-0.0448 0.097,-0.26459 -0.351517,-0.23075 -0.35177,-0.28951 -0.0022,-0.51409 0.314313,-0.20195 0.32778,-0.32045 0.06615,-0.58209 -0.430887,-0.43088 -0.429172,-1.55353 0.0022,-1.44837 0.181901,0.0444 0.241432,0.0307 0.132292,-0.0303 -0.109141,-0.061 -0.200261,-0.36894 -0.202489,-0.68424 -0.0059,-0.83955 -0.396889,-1.39166 -0.671179,-0.94786 -0.124355,0.20122 -0.08328,0.38634 0.09922,0.44718 0.35915,0.11971 0.428533,1.11804 0.0777,1.11804 -0.342611,0 -0.553256,-1.02603 -0.384191,-1.87135 0.09135,-0.45677 -0.01413,-0.9642 -0.279066,-1.34245 -0.477109,-0.68117 -0.583179,-0.22022 -0.139915,0.60802 0.157311,0.29394 0.225098,0.59536 0.150637,0.66982 -0.187709,0.18771 -1.232323,-2.15959 -1.221992,-2.74588 0.0078,-0.44196 0.03771,-0.43879 0.401692,0.0426 0.366505,0.48477 0.381944,0.45775 0.226801,-0.39687 -0.155647,-0.8574 -0.140949,-0.88263 0.22596,-0.38789 0.215839,0.29105 0.474833,0.9079 0.575541,1.37078 0.100708,0.46289 0.354046,0.98349 0.562973,1.15688 0.208928,0.17339 0.379868,0.59834 0.379868,0.94432 0,0.34599 0.119063,0.62906 0.264584,0.62906 0.381447,0 0.326313,-1.25713 -0.06615,-1.5082 -0.367218,-0.23493 -1.05429,-1.95747 -0.858768,-2.15299 0.06832,-0.0683 0.317756,0.34055 0.554302,0.90859 0.236547,0.56805 0.517913,1.09234 0.625259,1.16511 0.107346,0.0728 0.263158,0.31088 0.34625,0.52916 0.104918,0.27562 0.157458,0.22486 0.171964,-0.16612 0.01149,-0.30965 0.194761,-0.97914 0.407273,-1.48775 0.435044,-1.04121 0.257721,-1.48464 -0.315677,-0.78941 -0.352081,0.42689 -0.365657,0.42199 -0.19458,-0.0703 0.101149,-0.29104 0.24026,-0.76729 0.309134,-1.05833 0.102989,-0.4352 0.07489,-0.45869 -0.158258,-0.13229 -0.233232,0.32652 -0.289756,0.27962 -0.318867,-0.26459 -0.01946,-0.3638 -0.02128,-0.75075 -0.0041,-0.85989 0.01723,-0.10914 -0.05796,-0.19839 -0.167105,-0.19834 -0.109141,6e-5 -0.183687,-0.67268 -0.165658,-1.49498 0.02392,-1.09106 -0.03652,-1.37127 -0.223656,-1.03687 -0.141039,0.25202 -0.199176,0.67718 -0.129192,0.9448 0.165762,0.63387 -0.76162,0.49056 -1.481059,-0.22888 -0.493601,-0.4936 -0.490552,-0.50021 0.172322,-0.37349 0.371148,0.071 0.723546,0.26515 0.783107,0.43155 0.05956,0.16641 0.077,0.0942 0.03874,-0.16046 -0.03825,-0.25466 0.02349,-0.46302 0.137192,-0.46302 0.113707,0 0.294965,-0.38695 0.402794,-0.8599 0.307814,-1.35008 0.325298,-1.74275 0.09384,-2.10754 -0.13535,-0.21331 -0.21866,0.005 -0.223746,0.58619 -0.0045,0.50932 -0.133141,1.10463 -0.285966,1.32292 -0.226066,0.32289 -0.252446,0.29823 -0.14151,-0.1323 0.265064,-1.02866 0.4394,-4.51245 0.198604,-3.96875 -0.22072,0.49838 -0.241878,0.49068 -0.363586,-0.13229 -0.120573,-0.61715 -0.133068,-0.60829 -0.186553,0.13229 -0.05217,0.72235 -0.0862,0.68665 -0.378296,-0.39687 -0.304609,-1.12993 -0.113564,-2.38125 0.363557,-2.38125 0.286527,0 0.816573,1.33652 0.642042,1.61892 -0.08714,0.14099 -0.04031,0.39996 0.10406,0.57548 0.424746,0.51641 1.342323,6.1383 1.228853,7.52904 -0.0474,0.58097 0.04595,0.85989 0.28779,0.85989 0.244056,0 0.325824,0.25384 0.256985,0.79777 -0.05672,0.4482 0.0068,0.7312 0.144861,0.64585 0.3285,-0.20303 0.314611,-1.36988 -0.01876,-1.57591 -0.309113,-0.19104 -0.354982,-1.27661 -0.06615,-1.56545 0.236688,-0.23669 0.254929,-0.34884 0.297656,-1.83004 0.02431,-0.84266 0.141272,-1.14652 0.441334,-1.14652 0.239168,0 0.350008,0.1518 0.267614,0.36652 -0.07736,0.20158 -0.02756,0.29662 0.110658,0.2112 0.266836,-0.16491 0.421734,-0.95683 0.647775,-3.31175 0.09421,-0.98144 0.05706,-1.326 -0.114096,-1.05833 -0.196919,0.30795 -0.254684,0.23386 -0.257827,-0.33073 -0.0022,-0.40019 0.1192,-0.72761 0.26984,-0.72761 0.176139,0 0.188002,-0.16525 0.03324,-0.46302 -0.132358,-0.25466 -0.144916,-0.70114 -0.0279,-0.99219 0.194962,-0.48492 0.216883,-0.47386 0.262224,0.1323 0.02721,0.3638 0.213059,-0.16193 0.412994,-1.16829 0.294719,-1.48346 0.300423,-1.95917 0.03014,-2.51355 -0.257126,-0.52739 -0.26852,-1.10895 -0.04982,-2.54267 0.314614,-2.06247 0.503404,-2.50674 1.065221,-2.50674 0.284299,0 0.38126,0.35886 0.38126,1.41108 0,1.31427 -0.396059,4.03028 -0.720214,4.93892 -0.171065,0.47951 -0.16881,0.46525 -0.856373,5.41624 -0.409183,2.94643 -0.658592,4.02175 -0.973701,4.1981 -0.350339,0.19605 -0.360915,0.27835 -0.06114,0.47576 0.296627,0.19534 0.275485,0.30527 -0.116381,0.60515 -0.302794,0.23171 -0.375753,0.43016 -0.198437,0.53975 0.154229,0.0953 0.282446,0.61277 0.284928,1.14988 l 0.0045,0.97657 0.813305,-1.32291 c 0.447317,-0.72761 0.749715,-1.12247 0.671995,-0.87748 -0.100181,0.3158 0.0028,0.4346 0.353677,0.40816 0.397221,-0.0299 0.47369,-0.20361 0.387167,-0.87941 -0.07474,-0.58378 0.08654,-1.12853 0.525721,-1.7757 0.348447,-0.51347 0.558032,-1.00908 0.465745,-1.10137 -0.09229,-0.0923 0.03785,-0.0889 0.289195,0.008 0.356112,0.13665 0.44194,0.0481 0.38881,-0.40097 -0.05349,-0.45214 0.143559,-0.65054 0.914393,-0.92065 0.540416,-0.18937 1.046431,-0.28045 1.124479,-0.20241 0.244241,0.24424 0.155584,-0.12415 -0.188823,-0.78461 -0.284736,-0.54603 -0.41248,-0.59335 -0.918588,-0.34029 -0.444548,0.22228 -0.51335,0.36845 -0.282223,0.59958 0.168101,0.1681 0.217804,0.39347 0.110453,0.50082 -0.107352,0.10735 -0.293361,0.0363 -0.413354,-0.15782 -0.181007,-0.29288 -0.242601,-0.29157 -0.361601,0.008 -0.07889,0.19837 -0.152831,-0.66746 -0.16432,-1.92406 -0.02074,-2.26845 0.344157,-3.74192 0.956083,-3.86071 0.220137,-0.0427 0.2951,0.62154 0.260317,2.30675 -0.05411,2.62147 0.07414,2.6717 1.226682,0.48036 0.359181,-0.68291 0.74472,-1.15916 0.856754,-1.05833 0.112034,0.10083 0.123566,0.0434 0.02563,-0.12758 -0.296663,-0.51795 0.388894,-1.67308 0.995599,-1.67752 0.411026,-0.003 0.460757,-0.0624 0.193866,-0.23151 -0.236843,-0.15007 -0.263864,-0.28624 -0.07942,-0.40024 0.453139,-0.28005 0.93521,0.85804 0.556653,1.31417 -0.173437,0.20898 -0.238173,0.37996 -0.143858,0.37996 0.260726,0 -0.530302,1.42146 -1.300204,2.33643 -0.405633,0.48207 -0.839846,0.7524 -1.06794,0.66487 -0.263207,-0.101 -0.384378,0.0332 -0.384378,0.42559 0,0.36582 0.110479,0.50481 0.305464,0.38431 0.189256,-0.11697 0.233643,-0.0726 0.116676,0.11667 -0.103833,0.16801 -0.0627,0.30547 0.09141,0.30547 0.154109,0 0.280198,-0.18562 0.280198,-0.41249 0,-0.24443 0.124461,-0.33557 0.305463,-0.22371 0.177393,0.10964 0.23408,0.0733 0.135205,-0.0867 -0.09364,-0.15152 -0.01784,-0.40199 0.168459,-0.5566 0.249919,-0.20741 0.423153,-0.14591 0.660787,0.2346 0.207805,0.33275 0.223383,0.51572 0.04391,0.51572 -0.152988,0 -0.8764,0.55958 -1.607582,1.24352 -0.731182,0.68393 -1.410691,1.13042 -1.510019,0.99219 -0.254088,-0.35361 -0.842055,-0.43673 -0.842055,-0.11904 0,0.14552 0.09309,0.26458 0.206875,0.26458 0.113782,0 0.231511,0.29766 0.26162,0.66146 0.03011,0.3638 -0.05925,0.66146 -0.198572,0.66146 -0.139324,0 -0.175229,-0.20836 -0.07979,-0.46303 0.151548,-0.40437 0.117353,-0.41733 -0.269974,-0.10231 -0.243925,0.19839 -0.377733,0.46712 -0.297351,0.59718 0.08038,0.13006 -0.03999,0.3079 -0.267497,0.39521 -0.227505,0.0873 -0.413645,0.27874 -0.413645,0.42543 0,0.14669 0.30102,0.0695 0.668932,-0.17159 0.367912,-0.24107 0.789867,-0.36356 0.937677,-0.27221 0.14781,0.0914 0.550145,-0.0183 0.894078,-0.24364 0.497488,-0.32597 0.652381,-0.33925 0.757635,-0.065 0.170155,0.44342 -0.07091,0.80286 -0.793532,1.18322 -0.701323,0.36915 -1.481841,0.42768 -0.915188,0.0686 0.270841,-0.17161 0.281421,-0.27539 0.04309,-0.42268 -0.173736,-0.10738 -0.448385,-0.0627 -0.610331,0.0992 -0.161945,0.16194 -0.196524,0.29444 -0.07684,0.29444 0.119683,0 0.07047,0.17728 -0.109354,0.39396 -0.179828,0.21668 -0.450927,0.31735 -0.602444,0.22371 -0.151516,-0.0937 -0.198868,-0.0463 -0.105226,0.10522 0.09364,0.15152 -0.01589,0.42998 -0.243407,0.6188 -0.227516,0.18882 -0.709122,0.88692 -1.070236,1.55133 -0.361113,0.66441 -0.591735,0.99348 -0.512493,0.73126 0.09045,-0.29929 0.03814,-0.41129 -0.140526,-0.30087 -0.156531,0.0967 -0.221252,0.41815 -0.143824,0.71423 0.07743,0.29609 -0.08148,0.96726 -0.35312,1.4915 -0.271644,0.52423 -0.617433,1.25081 -0.768419,1.61461 -0.228714,0.55109 -0.248468,0.473 -0.118385,-0.468 0.131337,-0.95006 0.09085,-1.1044 -0.254893,-0.97173 -0.472474,0.18131 -0.82778,0.91057 -0.443641,0.91057 0.140954,0 0.25628,-0.13891 0.25628,-0.30869 0,-0.16977 0.05481,-0.25387 0.121797,-0.18688 0.06699,0.067 0.05047,0.39455 -0.03671,0.72792 -0.118067,0.45149 -0.214621,0.51605 -0.378463,0.25303 -0.15423,-0.24758 -0.270643,-0.10161 -0.389575,0.48848 -0.09329,0.46286 -0.39451,1.08296 -0.669377,1.378 -0.603512,0.64779 -0.625428,0.82313 -0.102883,0.82313 0.218281,0 0.406274,-0.20835 0.417763,-0.46302 0.01248,-0.2766 0.07462,-0.32986 0.15434,-0.13229 0.255017,0.632 0.526186,0.32604 0.410376,-0.46302 -0.09114,-0.62097 -0.01686,-0.79375 0.341252,-0.79375 0.362438,0 0.423853,0.1515 0.294959,0.72761 -0.08953,0.40018 -0.228966,1.43216 -0.309848,2.29329 -0.08088,0.86114 -0.263821,1.78387 -0.406531,2.05052 -0.188087,0.35145 -0.165921,0.49344 0.08057,0.51614 0.187021,0.0172 -0.01715,0.12219 -0.453712,0.23327 -0.667962,0.16997 -0.696653,0.20694 -0.181043,0.23328 0.85269,0.0436 1.640258,-0.42945 1.615363,-0.97019 -0.0127,-0.27594 -0.07318,-0.32412 -0.15434,-0.12298 -0.0734,0.1819 -0.257171,0.33073 -0.408384,0.33073 -0.165488,0 -0.143276,-0.15864 0.0558,-0.39851 0.181901,-0.21918 0.642964,-0.39421 1.024584,-0.38897 0.381619,0.005 1.080807,-0.0671 1.553749,-0.16069 0.557222,-0.11031 0.859896,-0.0665 0.859896,0.12439 0,0.16204 -0.342609,0.29461 -0.761353,0.29461 -0.418744,0 -0.909573,0.1786 -1.09073,0.39688 -0.350144,0.42189 -0.01398,0.55664 0.410104,0.16438 0.138245,-0.12787 0.727604,-0.3089 1.309687,-0.40228 0.860363,-0.13803 0.690878,-0.0182 -0.906048,0.64075 -2.382527,0.98308 -3.845837,1.18857 -4.914785,0.69019 z m 7.757979,-20.43694 c 0.09874,0.061 0.196691,-0.1754 0.217677,-0.52524 0.02314,-0.3858 -0.106985,-0.63607 -0.330729,-0.63607 -0.263246,0 -0.358567,0.32202 -0.332854,1.12448 0.01982,0.61846 0.08786,0.85482 0.151208,0.52524 0.06335,-0.32958 0.195961,-0.54936 0.294698,-0.48841 z"
       id="path10498" />
    <path
       style="fill:#3b8472"
       d="m 22.837548,225.94663 c 0.0052,-0.48285 -0.04502,-1.19984 -0.11169,-1.59331 -0.06667,-0.39347 -0.0022,-0.75066 0.143359,-0.79375 0.32237,-0.0955 0.467501,2.35597 0.17086,2.88604 -0.139016,0.24841 -0.208779,0.0765 -0.202529,-0.49898 z"
       id="path8650" />
    <path
       style="fill:#3b8472"
       d="m 18.031125,237.12891 c -0.176484,-1.22491 -0.273508,-2.27449 -0.215609,-2.33239 0.165551,-0.16555 0.742972,3.5535 0.634084,4.08401 -0.05368,0.26152 -0.241991,-0.52671 -0.418475,-1.75162 z"
       id="path8647" />
    <path
       style="fill:#3b8472"
       d="m 28.620884,241.10605 c -0.0272,-1.01976 0.0099,-1.09992 0.305874,-0.66146 0.185252,0.27441 0.418863,0.72413 0.519135,0.99937 0.150475,0.41305 0.115809,0.44525 -0.198513,0.18439 -0.305512,-0.25355 -0.402058,-0.22171 -0.488187,0.16101 -0.05905,0.26239 -0.121287,-0.0451 -0.138309,-0.68331 z"
       id="path8638" />
    <path
       style="fill:#3b8472"
       d="m 18.491261,242.13414 c -0.223744,-1.04141 -0.224368,-2.38125 -0.0011,-2.38125 0.152914,0 0.254435,0.0893 0.225604,0.19844 -0.02883,0.10914 0.03796,0.46393 0.148427,0.78841 0.110745,0.32531 0.07852,0.80008 -0.07183,1.05833 -0.14997,0.2576 -0.285463,0.40883 -0.301095,0.33607 z"
       id="path8633" />
    <path
       style="fill:#3b8472"
       d="m 19.863868,242.783 c -0.449641,-0.57163 -0.486797,-0.80282 -0.244507,-1.52135 0.419611,-1.24441 0.518863,-1.23523 0.316659,0.0293 -0.140853,0.88085 -0.07792,1.23333 0.293475,1.64371 0.260028,0.28733 0.403435,0.52242 0.318683,0.52242 -0.08475,0 -0.392692,-0.30333 -0.68431,-0.67406 z"
       id="path8632" />
    <path
       style="fill:#3b8472"
       d="m 28.906742,244.70248 c -0.103901,-0.16811 0.05446,-0.21249 0.418514,-0.11729 0.483469,0.12643 0.531203,0.0875 0.27356,-0.22291 -0.223311,-0.26907 -0.227613,-0.37605 -0.01512,-0.37605 0.163339,0 0.29698,0.1318 0.29698,0.29289 0,0.16109 0.178594,0.22435 0.396875,0.14059 0.218281,-0.0838 0.396875,-0.037 0.396875,0.10399 0,0.14095 -0.0893,0.27147 -0.198438,0.29004 -0.908905,0.15467 -1.427627,0.11789 -1.569245,-0.11126 z"
       id="path8597" />
    <path
       style="fill:#3b8472"
       d="m 4.8775513,244.77998 c -0.089937,-0.14553 -0.343593,-0.26459 -0.5636804,-0.26459 -0.4376032,0 -1.295935,-0.74212 -1.0930208,-0.94503 0.069348,-0.0693 0.2766939,0.0554 0.4607698,0.27718 0.1840759,0.2218 0.5454915,0.40327 0.8031458,0.40327 0.2576543,0 0.5369952,0.17859 0.6207576,0.39687 0.1718304,0.44779 0.021079,0.53527 -0.227972,0.1323 z"
       id="path8596" />
    <path
       style="fill:#3b8472"
       d="m -3.9859899,244.77998 c 0,-0.14553 0.1260892,-0.26459 0.2801982,-0.26459 0.1541091,0 0.2066136,-0.11906 0.1166768,-0.26458 -0.248356,-0.40185 0.2893218,-0.31611 0.6358145,0.10139 0.2350912,0.28327 0.207625,0.40286 -0.1215344,0.52917 -0.6119549,0.23483 -0.9111551,0.20153 -0.9111551,-0.10139 z"
       id="path8562" />
    <path
       style="fill:#3b8472"
       d="m 8.5338804,246.25843 c 0.026311,-0.14508 -0.07973,-0.26919 -0.2356448,-0.2758 -0.1559151,-0.007 -0.4929358,-0.22148 -0.7489347,-0.47748 -0.255999,-0.256 -0.5749164,-0.3978 -0.7087054,-0.31512 -0.1337889,0.0827 -0.2432526,0.0242 -0.2432526,-0.12986 0,-0.42861 0.3167003,-0.3411 1.3797522,0.38126 0.5353828,0.36381 1.0988026,0.66146 1.2520438,0.66146 0.1532413,0 0.2786205,0.11166 0.2786205,0.24814 0,0.13648 -0.2298862,0.23082 -0.5108582,0.20966 -0.280972,-0.0212 -0.4893314,-0.15718 -0.4630208,-0.30226 z"
       id="path8556" />
    <path
       style="fill:#3b8472"
       d="m 24.059842,247.87081 c 0,-0.37246 0.678971,-1.65372 0.975627,-1.84106 0.178921,-0.11299 0.259494,-0.41065 0.17905,-0.66146 -0.119428,-0.37236 -0.09653,-0.38583 0.124819,-0.0734 0.186163,0.26276 0.181625,0.55284 -0.01449,0.92604 -0.353444,0.67258 -1.265008,1.86149 -1.265008,1.64988 z"
       id="path8532" />
    <path
       style="fill:#3b8472"
       d="m 22.207759,250.84461 c 0,-0.15127 0.119062,-0.20145 0.264583,-0.11151 0.145521,0.0899 0.264583,0.0416 0.264583,-0.10737 0,-0.14899 0.267891,-0.41146 0.595313,-0.58328 0.592121,-0.31072 0.59261,-0.30935 0.09128,0.25528 -0.558424,0.62893 -0.286676,0.7493 0.442479,0.19599 0.261006,-0.19806 0.399165,-0.53323 0.312691,-0.75857 -0.08521,-0.22205 -0.0258,-0.48353 0.132012,-0.58107 0.157815,-0.0975 0.207996,-0.31794 0.111513,-0.48978 -0.128267,-0.22846 -0.08266,-0.22656 0.169679,0.007 0.280726,0.25991 0.281923,0.39564 0.0064,0.7276 -0.27663,0.33332 -0.273498,0.40809 0.01709,0.40809 0.233514,0 0.163092,0.19268 -0.204922,0.5607 -0.593958,0.59395 -2.202727,0.94223 -2.202727,0.47685 z"
       id="path8442" />
    <path
       style="fill:#3b8472"
       d="m 12.993624,251.52277 c -0.29057,-0.63774 -0.272996,-0.65829 0.420551,-0.49195 0.898374,0.21547 1.091997,0.36374 0.474999,0.36374 -0.308435,0 -0.417081,0.13603 -0.316985,0.39687 0.259425,0.67605 -0.257493,0.43601 -0.578565,-0.26866 z"
       id="path8437" />
    <path
       style="fill:#3b8472"
       d="m 18.388279,254.01292 c 0.08353,-0.13516 0.267949,-0.17401 0.409814,-0.0863 0.141865,0.0877 0.544148,-0.0281 0.893962,-0.25733 0.390824,-0.25607 0.698366,-0.31587 0.79773,-0.15509 0.08894,0.1439 0.124911,0.27075 0.07994,0.28188 -1.720305,0.42594 -2.34931,0.48847 -2.181449,0.21687 z"
       id="path7865" />
  </g>
</svg>
