<svg xmlns="http://www.w3.org/2000/svg" width="430" height="430" style="width:100%;height:100%;transform:translate3d(0,0,0);content-visibility:visible" viewBox="0 0 430 430"><defs><mask id="C" mask-type="alpha"><use xmlns:ns1="http://www.w3.org/1999/xlink" ns1:href="#a"/></mask><mask id="B" mask-type="alpha"><use xmlns:ns2="http://www.w3.org/1999/xlink" ns2:href="#b"/></mask><mask id="A" mask-type="alpha"><use xmlns:ns3="http://www.w3.org/1999/xlink" ns3:href="#c"/></mask><mask id="z" mask-type="alpha"><use xmlns:ns4="http://www.w3.org/1999/xlink" ns4:href="#d"/></mask><mask id="y" mask-type="alpha"><use xmlns:ns5="http://www.w3.org/1999/xlink" ns5:href="#e"/></mask><mask id="w" mask-type="alpha"><use xmlns:ns6="http://www.w3.org/1999/xlink" ns6:href="#f"/></mask><mask id="v" mask-type="alpha"><use xmlns:ns7="http://www.w3.org/1999/xlink" ns7:href="#g"/></mask><mask id="u" mask-type="alpha"><use xmlns:ns8="http://www.w3.org/1999/xlink" ns8:href="#h"/></mask><mask id="s" mask-type="alpha"><g filter="url(#i)"><path fill="#fff" d="M0 0h430v430H0z" opacity="0"/><use xmlns:ns9="http://www.w3.org/1999/xlink" ns9:href="#k"/></g></mask><mask id="r" mask-type="alpha"><use xmlns:ns10="http://www.w3.org/1999/xlink" ns10:href="#l"/></mask><mask id="q" mask-type="alpha"><use xmlns:ns11="http://www.w3.org/1999/xlink" ns11:href="#m"/></mask><path id="a" style="display:none"/><path id="f" fill="#F28BA8" d="m187.909 169.344-20.878-22.368c-6.133-12.208-15.683-24.527-17.24-38.1-1.75-15.271-1.651-30.942 2.04-43.368 4.142-13.941 20.566-19.853 32.665-11.795 5.344 3.553 9.955 8.113 13.827 12.897 8.399 10.326 24.724 9.362 33.459-.659 4.045-4.631 8.805-9.342 14.264-12.708 12.382-7.632 28.583-1.156 32.243 12.918 3.036 11.692 3.996 27.101 2.11 41.24-2.015 15.122-11.625 28.919-19.342 42.079l-17.207 18.283m-29.28-5.03.678-38.84" style="display:block"/><path id="g" fill="#F28BA8" d="m238.118 176.418 17.696-17.224c7.963-7.873 17.204-14.366 27.39-19.017 11.462-5.234 23.267-8.985 33.889-9.256 11.917-.301 20.685 11.005 17.468 22.478-1.417 5.066-3.803 9.815-6.552 14.045-5.922 9.163-2.152 21.469 7.873 25.74 4.635 1.98 9.27 4.576 13.276 7.98 9.085 7.719 8.14 21.989-1.905 28.407-8.345 5.328-19.229 8.724-30.728 10.835-12.299 2.259-24.934 1.96-37.148-.722l-22.856-5.086m2.634-31.925 28.074-8.684" style="display:block"/><path id="h" fill="#F28BA8" d="m173.793 234.079-24.657 4.564c-11.039 1.881-22.333 1.9-33.345-.133-12.39-2.287-24.212-5.985-33.068-11.856-9.935-6.588-10.632-20.879-1.416-28.432 4.066-3.337 8.744-5.859 13.422-7.747 10.107-4.109 14.077-16.352 8.315-25.6-2.661-4.281-4.968-9.066-6.298-14.152-3.015-11.534 5.945-22.681 17.854-22.177 9.892.422 20.755 3.883 31.386 8.749 11.37 5.204 21.549 12.696 30.015 21.899l14.48 15.855m-19.214 26.287-27.907-9.215" style="display:block"/><path id="l" fill="#F28BA8" d="m262.044 239.538 32.799 5.264c12.283 5.982 25.994 9.991 35.467 19.835 10.658 11.075 19.752 23.144 24.358 35.262 5.168 13.594-4.8 29.252-19.308 30.198-6.404.418-12.83-.423-18.814-1.861-12.943-3.11-25.568 6.206-26.443 19.471-.405 6.136-1.518 12.522-3.816 18.51-5.21 13.578-22.019 18.267-33.466 9.297-9.509-7.45-17.819-18.605-24.9-30.986-7.576-13.243-11.59-27.657-13.442-42.8l.481-30.57m31.926-12.196 22.156 32.579" style="display:block"/><path id="m" fill="#F28BA8" d="m216.865 270.677-2.075 29.977c-1.37 13.592-3.514 26.88-9.479 39.171-6.711 13.828-16.395 26.533-26.175 35.042-10.972 9.546-27.998 5.724-33.898-7.562-2.604-5.866-4.037-12.188-4.754-18.3-1.552-13.22-11.658-24.848-24.408-21.087-5.898 1.74-14.274 2.15-20.687 2.064-14.543-.198-24.75-14.354-20.287-28.195 3.707-11.497 9.303-19.899 18.476-30.822 9.81-11.684 22.924-20.722 36.495-27.691l27.62-14.184m26.489 30.794-23.377 31.024" style="display:block"/><clipPath id="o"><path d="M0 0h430v430H0z"/></clipPath><clipPath id="x"><path d="M0 0h430v430H0z"/></clipPath><clipPath id="p"><path d="M0 0h430v430H0z"/></clipPath><clipPath id="n"><path d="M0 0h430v430H0z"/></clipPath><clipPath id="t"><path d="M0 0h430v430H0z"/></clipPath><g id="b" style="display:none"><path/><path/></g><g id="c" style="display:none"><path/><path/></g><g id="d" style="display:none"><path/><path/><path/></g><g id="e" style="display:none"><path/><path/><path/></g><g id="k" fill="red" clip-path="url(#n)" style="display:block" transform="translate(-47.3 -47.3)scale(1.22)"><path d="M38.817 40.657 15.209 54.223c-10.91 2.525-21.712 7.044-32.824 5.66-12.503-1.557-24.521-4.554-33.706-9.897-10.304-5.994-12.031-21.11-3.278-29.196 3.864-3.57 8.391-6.349 12.945-8.52 9.849-4.695 13.085-17.142 6.8-26.043-2.907-4.118-5.492-8.76-7.117-13.759-3.686-11.337 4.603-22.995 16.522-23.186 9.9-.159 20.948 2.66 31.846 6.894 11.656 4.528 21.649 11.639 30.64 20.33L52.499-3.773" style="display:block" transform="rotate(-141 180.62 99.863)"/><path d="m192.79 177.744-17.109-18.339c-5.026-10.008-12.861-20.108-14.13-31.234-1.441-12.515-1.354-25.362 1.672-35.541 3.396-11.433 16.857-16.28 26.773-9.67 4.384 2.915 8.16 6.644 11.335 10.567 6.886 8.467 20.261 7.682 27.42-.54 3.315-3.795 7.217-7.655 11.696-10.415 10.146-6.25 23.429-.94 26.43 10.585 2.493 9.59 3.27 22.225 1.731 33.812-1.658 12.396-9.527 23.7-15.86 34.484l-14.105 14.988" style="display:block"/></g><filter id="i" width="100%" height="100%" x="0%" y="0%" filterUnits="objectBoundingBox"><feComponentTransfer in="SourceGraphic"><feFuncA tableValues="1.0 0.0" type="table"/></feComponentTransfer></filter></defs><g clip-path="url(#o)"><g clip-path="url(#p)" style="display:block"><path fill="#F28BA8" d="m216.865 270.677-2.075 29.977c-1.37 13.592-3.514 26.88-9.479 39.171-6.711 13.828-16.395 26.533-26.175 35.042-10.972 9.546-27.998 5.724-33.898-7.562-2.604-5.866-4.037-12.188-4.754-18.3-1.552-13.22-11.658-24.848-24.408-21.087-5.898 1.74-14.274 2.15-20.687 2.064-14.543-.198-24.75-14.354-20.287-28.195 3.707-11.497 9.303-19.899 18.476-30.822 9.81-11.684 22.924-20.722 36.495-27.691l27.62-14.184m26.489 30.794-23.377 31.024" class="secondary" style="display:block"/><g mask="url(#q)" style="mix-blend-mode:multiply;display:block"><g opacity=".5"><path fill="#F28BA8" d="M56.464 318.91c4.038-10.888 30.157-40.276 39.289-50.45-2.344 3.96-4.307 7.955-5.79 11.95-5.06 13.698 4.567 28.507 19.252 29.37 6.416.37 12.957-.493 19.004-1.974 13.081-3.21 25.915 6.048 26.902 19.499.37 6.294 1.604 12.71 3.95 18.757 5.43 13.575 22.46 18.265 33.936 9.133 2.44-1.92 4.794-4.082 7.066-6.445-6.407 10.535-5.25 32.396-13.566 38.943-11.477 9.132-53.007 17.943-58.437 4.368-2.345-6.047-3.579-12.462-3.949-18.756-.987-13.451-24.82-14.208-37.901-11-6.047 1.482-12.588 2.346-19.005 1.976-14.685-.864-15.811-31.673-10.751-45.371" class="secondary" opacity="1"/></g><g opacity=".4"><path fill="#F28BA8" d="M133.122 387.304c-.5-6.818 2.956-52.557-2.12-56.142l58-78.102 26.026 16.25v50.48l19.99 21.14c-.037-.087-20.075-21.674-20.112-21.762-9.009 21.349-28.225 83.684-43.898 96.025-11.477 9.132-28.507 4.443-33.937-9.132-2.345-6.047-3.579-12.464-3.949-18.757" class="secondary" opacity="1"/></g></g><path fill="none" stroke="#121331" stroke-linecap="round" stroke-linejoin="round" stroke-width="7.32" d="m216.865 270.677-2.075 29.977c-1.37 13.592-3.514 26.88-9.479 39.171-6.711 13.828-16.395 26.533-26.175 35.042-10.972 9.546-27.998 5.724-33.898-7.562-2.604-5.866-4.037-12.188-4.754-18.3-1.552-13.22-11.658-24.848-24.408-21.087-5.898 1.74-14.274 2.15-20.687 2.064-14.543-.198-24.75-14.354-20.287-28.195 3.707-11.497 9.303-19.899 18.476-30.822 9.81-11.684 22.924-20.722 36.495-27.691l27.62-14.184m26.489 30.794-23.377 31.024" class="primary" style="display:block"/><path fill="#F28BA8" d="m262.044 239.538 32.799 5.264c12.283 5.982 25.994 9.991 35.467 19.835 10.658 11.075 19.752 23.144 24.358 35.262 5.168 13.594-4.8 29.252-19.308 30.198-6.404.418-12.83-.423-18.814-1.861-12.943-3.11-25.568 6.206-26.443 19.471-.405 6.136-1.518 12.522-3.816 18.51-5.21 13.578-22.019 18.267-33.466 9.297-9.509-7.45-17.819-18.605-24.9-30.986-7.576-13.243-11.59-27.657-13.442-42.8l.481-30.57m31.926-12.196 22.156 32.579" class="secondary" style="display:block"/><g mask="url(#r)" opacity=".4" style="mix-blend-mode:multiply;display:block"><path fill="#F28BA8" d="M390.348 333.408c-6.91-18.634-30.81-97.645-48.335-112.823h-.003l-79.226 18.737L242 252.372l55.7 79.626c5.07-4.087 47.446 27.103 54.392 28.807 6.047 1.481 12.587 2.344 19.004 1.974 14.685-.864 24.435-15.549 19.252-29.37" class="secondary" opacity="1"/></g><path fill="none" stroke="#121331" stroke-linecap="round" stroke-linejoin="round" stroke-width="7.32" d="m262.044 239.538 32.799 5.264c12.283 5.982 25.994 9.991 35.467 19.835 10.658 11.075 19.752 23.144 24.358 35.262 5.168 13.594-4.8 29.252-19.308 30.198-6.404.418-12.83-.423-18.814-1.861-12.943-3.11-25.568 6.206-26.443 19.471-.405 6.136-1.518 12.522-3.816 18.51-5.21 13.578-22.019 18.267-33.466 9.297-9.509-7.45-17.819-18.605-24.9-30.986-7.576-13.243-11.59-27.657-13.442-42.8l.481-30.57m31.926-12.196 22.156 32.579" class="primary" style="display:block"/><g mask="url(#s)" style="display:block"><g clip-path="url(#t)" transform="translate(-47.3 -47.3)scale(1.22)"><path fill="#F28BA8" d="m173.793 234.079-24.657 4.564c-11.039 1.881-22.333 1.9-33.345-.133-12.39-2.287-24.212-5.985-33.068-11.856-9.935-6.588-10.632-20.879-1.416-28.432 4.066-3.337 8.744-5.859 13.422-7.747 10.107-4.109 14.077-16.352 8.315-25.6-2.661-4.281-4.968-9.066-6.298-14.152-3.015-11.534 5.945-22.681 17.854-22.177 9.892.422 20.755 3.883 31.386 8.749 11.37 5.204 21.549 12.696 30.015 21.899l14.48 15.855m-19.214 26.287-27.907-9.215" class="secondary" style="display:block"/><g mask="url(#u)" style="mix-blend-mode:multiply;display:block"><g opacity=".5"><path fill="#F28BA8" d="M97.708 205.865c-8.788 7.164-8.54 20.535.135 27.466-5.512-1.927-10.588-4.289-14.936-7.177-9.896-6.598-10.595-20.892-1.4-28.389a50 50 0 0 1 13.395-7.697c10.096-4.098 14.095-16.393 8.297-25.59-2.7-4.298-4.999-9.095-6.298-14.194-2.999-11.495 5.898-22.69 17.893-22.19 14.003.609 29.973 7.272 44.422 15.446-9.605-4.12-19.311-6.96-28.222-7.346-11.995-.5-20.892 10.695-17.893 22.19 1.3 5.099 3.599 9.896 6.298 14.195 5.798 9.196 1.799 21.49-8.297 25.59a50 50 0 0 0-13.394 7.696" class="secondary" opacity="1"/></g><g opacity=".4"><path fill="#F28BA8" d="m167.395 239.57-50.688 8.593.09-.078c-23.077-1.975-48.128-6.787-64.665-17.77-12.217-8.145-13.081-25.792-1.728-35.048a61.8 61.8 0 0 1 16.537-9.502c5.993-2.433 10.244-7.205 12.249-12.766l98.88 31.893z" class="secondary" opacity="1"/></g></g><path fill="none" stroke="#121331" stroke-linecap="round" stroke-linejoin="round" stroke-width="6" d="m173.793 234.079-24.657 4.564c-11.039 1.881-22.333 1.9-33.345-.133-12.39-2.287-24.212-5.985-33.068-11.856-9.935-6.588-10.632-20.879-1.416-28.432 4.066-3.337 8.744-5.859 13.422-7.747 10.107-4.109 14.077-16.352 8.315-25.6-2.661-4.281-4.968-9.066-6.298-14.152-3.015-11.534 5.945-22.681 17.854-22.177 9.892.422 20.755 3.883 31.386 8.749 11.37 5.204 21.549 12.696 30.015 21.899l14.48 15.855m-19.214 26.287-27.907-9.215" class="primary" style="display:block"/><path fill="#F28BA8" d="m238.118 176.418 17.696-17.224c7.963-7.873 17.204-14.366 27.39-19.017 11.462-5.234 23.267-8.985 33.889-9.256 11.917-.301 20.685 11.005 17.468 22.478-1.417 5.066-3.803 9.815-6.552 14.045-5.922 9.163-2.152 21.469 7.873 25.74 4.635 1.98 9.27 4.576 13.276 7.98 9.085 7.719 8.14 21.989-1.905 28.407-8.345 5.328-19.229 8.724-30.728 10.835-12.299 2.259-24.934 1.96-37.148-.722l-22.856-5.086m2.634-31.925 28.074-8.684" class="secondary" style="display:block"/><g mask="url(#v)" opacity=".4" style="mix-blend-mode:multiply;display:block"><path fill="#F28BA8" d="m350.316 173.181-96.817 34.32L233 179l42.251-46.054c19.868-11.97 42.823-22.83 62.691-23.694 14.685-.617 25.792 13.081 22.09 27.396-1.604 6.294-4.443 12.218-7.775 17.524-3.754 5.954-4.18 12.961-1.94 19.008" class="secondary" opacity="1"/></g><path fill="none" stroke="#121331" stroke-linecap="round" stroke-linejoin="round" stroke-width="6" d="m238.118 176.418 17.696-17.224c7.963-7.873 17.204-14.366 27.39-19.017 11.462-5.234 23.267-8.985 33.889-9.256 11.917-.301 20.685 11.005 17.468 22.478-1.417 5.066-3.803 9.815-6.552 14.045-5.922 9.163-2.152 21.469 7.873 25.74 4.635 1.98 9.27 4.576 13.276 7.98 9.085 7.719 8.14 21.989-1.905 28.407-8.345 5.328-19.229 8.724-30.728 10.835-12.299 2.259-24.934 1.96-37.148-.722l-22.856-5.086m2.634-31.925 28.074-8.684" class="primary" style="display:block"/></g></g><path fill="#F28BA8" d="m187.909 169.344-20.878-22.368c-6.133-12.208-15.683-24.527-17.24-38.1-1.75-15.271-1.651-30.942 2.04-43.368 4.142-13.941 20.566-19.853 32.665-11.795 5.344 3.553 9.955 8.113 13.827 12.897 8.399 10.326 24.724 9.362 33.459-.659 4.045-4.631 8.805-9.342 14.264-12.708 12.382-7.632 28.583-1.156 32.243 12.918 3.036 11.692 3.996 27.101 2.11 41.24-2.015 15.122-11.625 28.919-19.342 42.079l-17.207 18.283m-29.28-5.03.678-38.84" class="secondary" style="display:block"/><g mask="url(#w)" opacity=".4" style="mix-blend-mode:multiply;display:block"><path fill="#F28BA8" d="m109.937 133.445 78.808 36.769h26.284V73.988c-6.242.087-15.015-55.973-19.407-61.18-3.95-4.813-8.762-9.379-14.192-12.834-12.341-8.02-28.877-1.728-32.826 12.464-5.197 18.733-44.346 97.385-39.241 119.609z" class="secondary" opacity="1"/></g><path fill="none" stroke="#121331" stroke-linecap="round" stroke-linejoin="round" stroke-width="7.32" d="m187.909 169.344-20.878-22.368c-6.133-12.208-15.683-24.527-17.24-38.1-1.75-15.271-1.651-30.942 2.04-43.368 4.142-13.941 20.566-19.853 32.665-11.795 5.344 3.553 9.955 8.113 13.827 12.897 8.399 10.326 24.724 9.362 33.459-.659 4.045-4.631 8.805-9.342 14.264-12.708 12.382-7.632 28.583-1.156 32.243 12.918 3.036 11.692 3.996 27.101 2.11 41.24-2.015 15.122-11.625 28.919-19.342 42.079l-17.207 18.283m-29.28-5.03.678-38.84" class="primary" style="display:block"/><g style="display:block"><path fill="#FFC738" d="M215.028 269.189c29.239 0 52.942-23.702 52.942-52.941s-23.703-52.941-52.942-52.941-52.942 23.702-52.942 52.941 23.703 52.941 52.942 52.941" class="tertiary"/><g opacity=".5" style="mix-blend-mode:multiply"><path fill="#FFC738" d="M235.028 259.189c4.53 0 8.927-.569 13.123-1.639a52.72 52.72 0 0 1-33.123 11.639c-29.239 0-52.941-23.703-52.941-52.942 0-24.709 16.928-45.464 39.819-51.302-12.084 9.703-19.819 24.599-19.819 41.302 0 29.239 23.702 52.942 52.941 52.942" class="tertiary" opacity="1"/></g></g><g fill="none" stroke="#121331" stroke-linecap="round" stroke-linejoin="round" style="display:block"><path stroke-width="7.32" d="M198.808 265.731c27.522 8.943 57.083-6.12 66.025-33.641 8.943-27.522-6.12-57.083-33.641-66.025-27.522-8.943-57.083 6.12-66.025 33.641-8.943 27.522 6.12 57.083 33.641 66.025" class="primary"/><path stroke-width="10.98" d="M225.036 193.196q0 0 0 0m14.834 25.377q0 0 0 0m-28.796.007q0 0 0 0" class="primary"/></g></g><g clip-path="url(#x)" style="display:none"><g style="display:none"><path class="secondary"/><path class="secondary"/><path class="secondary"/></g><g mask="url(#y)" style="mix-blend-mode:multiply;display:none"><path class="secondary"/><path class="secondary"/></g><g fill="none" style="display:none"><path class="primary"/><path class="primary"/><path class="primary"/></g><g style="display:none"><path class="secondary"/><path class="secondary"/><path class="secondary"/></g><g mask="url(#z)" style="mix-blend-mode:multiply;display:none"><path class="secondary"/></g><g fill="none" style="display:none"><path class="primary"/><path class="primary"/><path class="primary"/></g><g style="display:none"><path class="secondary"/><path class="secondary"/></g><g mask="url(#A)" style="mix-blend-mode:multiply;display:none"><path class="secondary"/><path class="secondary"/></g><g fill="none" style="display:none"><path class="primary"/><path class="primary"/></g><g style="display:none"><path class="secondary"/><path class="secondary"/></g><g mask="url(#B)" style="mix-blend-mode:multiply;display:none"><path class="secondary"/></g><g fill="none" style="display:none"><path class="primary"/><path class="primary"/></g><path class="secondary" style="display:none"/><g mask="url(#C)" style="mix-blend-mode:multiply;display:none"><path class="secondary"/></g><g fill="none" style="display:none"><path class="primary"/><path class="primary"/><path class="primary"/></g><g style="display:none"><path class="tertiary"/><path class="tertiary" style="mix-blend-mode:multiply"/></g><g fill="none" style="display:none"><path class="primary"/><path class="primary"/><path class="primary"/><path class="primary"/></g></g></g></svg>