<?xml version="1.0" encoding="UTF-8" standalone="no"?>
<!-- Created with Inkscape (http://www.inkscape.org/) -->

<svg
   width="185"
   height="185"
   viewBox="0 0 48.947914 48.947918"
   version="1.1"
   id="svg1"
   sodipodi:docname="galanthus-nivalis-5.svg"
   inkscape:version="1.4 (e7c3feb100, 2024-10-09)"
   xmlns:inkscape="http://www.inkscape.org/namespaces/inkscape"
   xmlns:sodipodi="http://sodipodi.sourceforge.net/DTD/sodipodi-0.dtd"
   xmlns="http://www.w3.org/2000/svg"
   xmlns:svg="http://www.w3.org/2000/svg">
  <sodipodi:namedview
     id="namedview1"
     pagecolor="#ffffff"
     bordercolor="#666666"
     borderopacity="1.0"
     inkscape:showpageshadow="2"
     inkscape:pageopacity="0.0"
     inkscape:pagecheckerboard="true"
     inkscape:deskcolor="#d1d1d1"
     showgrid="false"
     inkscape:zoom="1.211637"
     inkscape:cx="79.644316"
     inkscape:cy="150.21001"
     inkscape:current-layer="svg1" />
  <defs
     id="defs1" />
  <g
     id="g15422"
     transform="matrix(0.70535852,0,0,0.70535852,-31.081513,-135.21113)"
     style="stroke-width:1.41772">
    <path
       style="fill:#95a68c;stroke-width:1.41772"
       d="m 72.916332,260.86373 c -7.785364,-0.0755 -14.304035,-0.23352 -14.485936,-0.35125 -0.574684,-0.37194 -0.364558,-0.65604 0.793749,-1.07318 2.044108,-0.73613 10.222928,-1.66428 16.006415,-1.81644 2.221659,-0.0584 2.71126,-0.14417 2.711979,-0.47484 4.82e-4,-0.22193 -0.357841,-1.87252 -0.796274,-3.66797 -0.869313,-3.55997 -2.978689,-9.44601 -4.393584,-12.25993 -1.026226,-2.04095 -1.137034,-2.85088 -0.390034,-2.85088 0.996595,0 2.950449,2.63229 4.811586,6.48229 1.844936,3.8165 2.975049,7.25454 3.522314,10.71563 l 0.313768,1.98437 0.330392,-5.42395 c 0.685914,-11.26047 1.599118,-20.06408 2.549471,-24.57779 0.466986,-2.21795 1.29165,-4.2618 1.71958,-4.2618 0.542148,0 0.592297,0.79559 0.162628,2.58 -0.842254,3.49787 -1.49216,7.68164 -2.003592,12.89813 -0.627803,6.40346 -1.377391,16.31014 -1.244183,16.44335 0.053,0.053 0.249382,-0.58898 0.436399,-1.42662 1.125155,-5.03952 4.686739,-13.65488 6.918599,-16.73587 0.670365,-0.92541 0.858203,-1.04544 1.196594,-0.7646 0.55789,0.46301 0.332986,1.44524 -1.352056,5.90489 -1.788368,4.73311 -4.636982,14.19882 -4.636982,15.4083 0,0.13535 1.398984,0.38632 3.108854,0.55772 4.918737,0.49308 10.007674,1.44533 10.793062,2.01962 1.126449,0.82368 0.19416,0.9648 -5.917911,0.89577 -3.299797,-0.0373 -12.369474,-0.12949 -20.154838,-0.20495 z"
       id="path15402" />
    <path
       style="fill:#879b7b;stroke-width:1.41772"
       d="m 76.837826,260.8191 c -10.664929,-0.10566 -18.091258,-0.28072 -18.363164,-0.43289 -0.413532,-0.23142 -0.395633,-0.29539 0.19002,-0.67913 1.205699,-0.79 11.620221,-2.02323 17.086027,-2.02323 2.249465,0 2.479715,-0.0452 2.357456,-0.46303 -0.07452,-0.25466 -0.381589,-1.53458 -0.682374,-2.84427 -0.786474,-3.42449 -2.240229,-7.70504 -3.908796,-11.50937 -1.758443,-4.00924 -1.893195,-4.49792 -1.240303,-4.49792 1.272571,0 4.413801,4.7753 6.298658,9.57522 0.999434,2.54513 1.995107,6.47172 2.050313,8.08572 0.08413,2.4597 0.435358,1.48058 0.616921,-1.71979 0.185222,-3.26489 0.720512,-10.35403 1.203692,-15.94115 0.721488,-8.34274 2.144658,-15.08125 3.185154,-15.08125 0.507489,0 0.540452,0.72972 0.11488,2.5431 -1.135914,4.84018 -2.039311,11.50468 -2.632086,19.41732 -0.08176,1.09141 -0.266612,3.51971 -0.410776,5.39623 -0.380731,4.95582 -0.315358,5.437 0.381203,2.80585 1.385535,-5.23363 3.766205,-11.31664 5.708299,-14.58567 0.842188,-1.41761 1.180299,-1.79283 1.369421,-1.5197 0.176861,0.25541 0.201482,0.18623 0.08326,-0.23395 -0.192561,-0.68438 0.501038,-1.12576 0.994159,-0.63264 0.300222,0.30022 -0.181527,2.28897 -1.002781,4.13967 -0.985969,2.22189 -3.308973,9.45941 -4.472701,13.93511 -0.35309,1.35798 -0.712149,2.65132 -0.79791,2.8741 -0.131616,0.34188 0.49478,0.47817 4.017316,0.87407 4.247969,0.47743 8.327791,1.21084 9.692107,1.74231 0.636952,0.24812 0.703746,0.35804 0.423085,0.69621 -0.255416,0.30776 -0.802995,0.38463 -2.343862,0.32903 -1.105822,-0.0399 -10.068568,-0.15238 -19.917215,-0.24995 z m 0.09874,-0.42249 c -1.645175,-0.0465 -4.26455,-0.0463 -5.820833,3.7e-4 -1.556284,0.0467 -0.210232,0.0847 2.991226,0.0845 3.201458,-2e-4 4.474781,-0.0384 2.829607,-0.0849 z m 12.582372,0.005 c -0.545704,-0.0571 -1.438672,-0.0571 -1.984375,0 -0.545703,0.0571 -0.09922,0.10379 0.992187,0.10379 1.091406,0 1.537891,-0.0467 0.992188,-0.10379 z M 72.31512,259.07834 c -0.548948,-0.0573 -1.382386,-0.0563 -1.852083,0.002 -0.469697,0.0584 -0.02056,0.10531 0.998089,0.10413 1.018646,-10e-4 1.402943,-0.049 0.853994,-0.10627 z m 12.109278,-3.90795 c -0.03539,-0.43656 -0.0059,-0.55562 0.0655,-0.26458 0.09299,0.37901 0.261459,0.11622 0.593673,-0.92604 0.25511,-0.80037 0.544055,-1.87193 0.6421,-2.38125 0.278307,-1.44575 -0.251524,-0.36342 -0.647603,1.32292 -0.187986,0.80036 -0.387509,1.31933 -0.443384,1.15326 -0.05588,-0.16607 0.08261,-1.09619 0.307738,-2.06694 0.443026,-1.91029 0.515367,-2.88444 0.118808,-1.59987 -0.45124,1.4617 -1.063726,4.66877 -0.951451,4.98195 0.06107,0.17035 -0.05038,0.6296 -0.247666,1.02056 -0.197285,0.39097 -0.274928,0.92675 -0.17254,1.19063 0.145982,0.37623 0.25231,0.25137 0.492661,-0.57855 0.168576,-0.58209 0.27755,-1.41552 0.242164,-1.85209 z m -5.793555,-0.83697 c -1.409838,-5.26843 -1.924068,-6.87812 -2.131128,-6.67106 -0.05829,0.0583 0.353805,1.65238 0.915763,3.54242 0.561959,1.89005 1.095026,3.77792 1.184593,4.19527 0.08957,0.41736 0.226114,0.69556 0.303436,0.61824 0.07732,-0.0773 -0.04538,-0.83551 -0.272664,-1.68487 z m 8.277071,-6.42861 c 0.442314,-1.37543 0.762914,-2.54207 0.712445,-2.59254 -0.133028,-0.13303 -1.739442,4.38204 -1.739442,4.88897 0,0.72742 0.194293,0.29296 1.026997,-2.29643 z m -8.830791,0.85534 c -0.779971,-2.08717 -2.011153,-4.63279 -2.165825,-4.47812 -0.0797,0.0797 0.08833,0.53812 0.373393,1.01872 0.285066,0.4806 0.864194,1.78603 1.286951,2.90097 0.422758,1.11494 0.815605,1.98079 0.872995,1.92413 0.05739,-0.0567 -0.107992,-0.67123 -0.367514,-1.3657 z"
       id="path15391" />
    <path
       style="fill:#7a9483;stroke-width:1.41772"
       d="m 75.892895,260.66442 c 0.691224,-0.0545 1.822317,-0.0545 2.513541,0 0.691224,0.0545 0.125677,0.0991 -1.256771,0.0991 -1.382447,0 -1.947994,-0.0446 -1.25677,-0.0991 z"
       id="path15376" />
    <path
       style="fill:#7a9483;stroke-width:1.41772"
       d="m 96.374235,260.79275 c 0.06668,-0.10914 -0.173519,-0.19844 -0.533782,-0.19844 -0.360264,0 -0.694712,-0.10854 -0.743219,-0.24121 -0.08363,-0.22873 -5.240241,-0.70467 -14.640277,-1.35126 -4.596667,-0.31618 -10.968179,-0.0484 -15.874999,0.66717 -1.455209,0.21221 -2.801688,0.38816 -2.992178,0.39099 -0.190489,0.003 -0.272759,0.12421 -0.182822,0.26973 0.204584,0.33102 -2.4929,0.35334 -3.011458,0.0249 -0.289564,-0.18339 -0.232344,-0.3189 0.275056,-0.65136 1.199765,-0.78611 11.630879,-2.01938 17.080153,-2.01938 2.249465,0 2.479715,-0.0452 2.357456,-0.46303 -0.07452,-0.25466 -0.381589,-1.53458 -0.682374,-2.84427 -0.786474,-3.42449 -2.240229,-7.70504 -3.908796,-11.50937 -1.758443,-4.00924 -1.893195,-4.49792 -1.240303,-4.49792 1.272571,0 4.413801,4.7753 6.298658,9.57522 0.999434,2.54513 1.995107,6.47172 2.050313,8.08572 0.08413,2.4597 0.435358,1.48058 0.616921,-1.71979 0.185222,-3.26489 0.720512,-10.35403 1.203692,-15.94115 0.721488,-8.34274 2.144658,-15.08125 3.185154,-15.08125 0.507489,0 0.540452,0.72972 0.11488,2.5431 -1.135914,4.84018 -2.039311,11.50468 -2.632086,19.41732 -0.08176,1.09141 -0.266612,3.51971 -0.410776,5.39623 -0.380731,4.95582 -0.315358,5.437 0.381203,2.80585 1.385535,-5.23363 3.766205,-11.31664 5.708299,-14.58567 0.842188,-1.41761 1.180299,-1.79283 1.369421,-1.5197 0.176861,0.25541 0.201482,0.18623 0.08326,-0.23395 -0.192561,-0.68438 0.501038,-1.12576 0.994159,-0.63264 0.300222,0.30022 -0.181527,2.28897 -1.002781,4.13967 -0.985969,2.22189 -3.308973,9.45941 -4.472701,13.93511 -0.35309,1.35798 -0.712149,2.65132 -0.79791,2.8741 -0.131616,0.34188 0.49478,0.47817 4.017316,0.87407 4.247969,0.47743 8.327791,1.21084 9.692107,1.74231 0.634059,0.247 0.702914,0.35904 0.425825,0.69291 -0.228033,0.27476 -0.720982,0.37597 -1.589593,0.32634 -0.692482,-0.0396 -1.204499,-0.16122 -1.137815,-0.27036 z m -12.005689,-4.23333 c 0.247113,-0.76399 0.875062,-2.87735 1.395441,-4.69636 0.520379,-1.81901 1.40426,-4.61698 1.96418,-6.21771 0.559919,-1.60072 1.225366,-3.56526 1.478771,-4.36562 0.253404,-0.80037 0.581237,-1.72292 0.728518,-2.05012 0.496751,-1.1036 0.02996,-0.84799 -0.818646,0.44828 -1.582528,2.41734 -3.773381,8.63394 -4.82514,13.69146 -0.435603,2.09466 -0.792005,3.98186 -0.792005,4.1938 0,0.82823 0.441172,0.31858 0.868881,-1.00373 z m -4.687487,-1.05834 c -0.27504,-2.88595 -1.364317,-6.61271 -2.861356,-9.78958 -0.737168,-1.56435 -1.438326,-2.84427 -1.558128,-2.84427 -0.119802,0 -0.456665,-0.46817 -0.748585,-1.04038 -0.638288,-1.25115 -1.201261,-1.71069 -0.769815,-0.62839 2.455301,6.15926 3.424695,9.04654 5.068555,15.09637 0.175861,0.64721 0.463985,1.12448 0.678843,1.12448 0.303828,0 0.339278,-0.35698 0.190486,-1.91823 z"
       id="path15375" />
    <path
       style="fill:#6d8972;stroke-width:1.41772"
       d="m 96.596539,260.79025 c -0.727604,-0.14882 -1.38468,-0.36511 -1.460169,-0.48065 -0.137549,-0.21052 -5.993519,-0.74165 -14.41483,-1.30739 -4.944987,-0.33221 -11.381735,-0.0707 -16.139582,0.65575 -1.455209,0.22219 -2.801688,0.40468 -2.992178,0.40554 -0.190489,8.5e-4 -0.272759,0.12062 -0.182822,0.26614 0.204584,0.33102 -2.4929,0.35334 -3.011458,0.0249 -0.757102,-0.47951 0.916788,-1.05739 4.598958,-1.5877 4.74271,-0.68306 9.359328,-1.07686 12.664712,-1.08031 2.579651,-0.003 2.608575,-0.01 2.443982,-0.59805 -0.09161,-0.32742 -0.401851,-1.63 -0.689423,-2.89462 -0.721636,-3.17345 -2.17693,-7.40303 -3.897246,-11.32673 -1.754717,-4.00216 -1.891918,-4.49792 -1.244799,-4.49792 0.671726,0 2.627308,2.18794 3.750087,4.19565 2.349,4.20041 4.567478,10.78685 4.567478,13.5604 0,2.31554 0.475421,1.36332 0.641938,-1.28574 0.853931,-13.58487 1.643516,-21.72457 2.572987,-26.52447 0.565841,-2.92207 1.3219,-5.02709 1.805584,-5.02709 0.528507,0 0.576639,0.72888 0.159957,2.42225 -0.654644,2.66043 -1.43651,7.02638 -1.72211,9.61629 -0.450149,4.0821 -1.057308,10.93217 -1.359671,15.34006 -0.159496,2.32516 -0.341704,4.31123 -0.404905,4.41349 -0.0632,0.10226 -0.01193,0.24958 0.11393,0.32736 0.125863,0.0778 0.379017,-0.53906 0.562564,-1.37078 1.289816,-5.84459 6.44368,-17.78792 7.202848,-16.69154 0.18024,0.26029 0.206665,0.20347 0.09362,-0.20131 -0.177681,-0.63621 0.551674,-1.0974 1.010258,-0.63882 0.270124,0.27012 -0.248364,2.34697 -1.02687,4.11321 -1.131716,2.56759 -3.383821,9.59194 -4.585276,14.30155 -0.29896,1.1719 -0.615467,2.3181 -0.70335,2.54712 -0.133682,0.34837 0.177812,0.44611 1.906543,0.59825 4.382541,0.38567 10.226462,1.36513 11.818526,1.98081 0.628931,0.24322 0.701482,0.35862 0.430624,0.68499 -0.364749,0.43949 -0.621626,0.44557 -2.509903,0.0594 z m -11.955261,-5.02467 c 0.362696,-1.20055 1.095338,-3.6711 1.628094,-5.49011 0.532756,-1.81901 1.3102,-4.20026 1.727653,-5.29166 0.769542,-2.01192 2.117223,-6.16314 2.117223,-6.52161 0,-0.10768 -0.31011,0.2143 -0.689134,0.71552 -1.635542,2.16281 -3.97554,8.62361 -5.12467,14.14935 -0.869571,4.18145 -0.922844,4.62132 -0.559696,4.62132 0.132596,0 0.537835,-0.98227 0.90053,-2.18281 z m -4.948488,-0.28525 c -0.09663,-1.06639 -0.475005,-3.06068 -0.840825,-4.43177 -0.674701,-2.52876 -3.316807,-8.446 -3.771224,-8.446 -0.13647,0 -0.394444,-0.35324 -0.573275,-0.78498 -0.178832,-0.43174 -0.494725,-0.92572 -0.701986,-1.09773 -0.322005,-0.26724 -0.33207,-0.20114 -0.06917,0.45425 2.279124,5.68172 3.746885,10.07187 5.011057,14.98835 0.205916,0.80083 0.467899,1.25677 0.722137,1.25677 0.335276,0 0.370929,-0.30959 0.223286,-1.93889 z"
       id="path15361" />
    <path
       style="fill:#587764;stroke-width:1.41772"
       d="m 97.887228,260.61061 c -0.262283,-0.23731 -3.463961,-0.6626 -8.169855,-1.08521 -1.74625,-0.15683 -3.422672,-0.32612 -3.725381,-0.37622 -0.30271,-0.0501 -3.16021,-0.17437 -6.35,-0.27618 -6.003601,-0.19161 -11.044933,0.0685 -15.589201,0.80437 -1.309687,0.21208 -2.877344,0.38608 -3.48368,0.38666 -0.606337,5.9e-4 -1.14439,0.12694 -1.195673,0.28079 -0.105743,0.31723 -1.009188,0.0498 -1.009188,-0.29872 0,-0.46649 1.048159,-0.74774 4.772315,-1.28056 4.72105,-0.67544 9.400306,-1.07537 12.624038,-1.07896 1.346068,-0.002 2.447396,-0.094 2.447396,-0.20545 0,-0.1115 -0.406154,-1.80814 -0.902563,-3.77032 -1.044952,-4.13042 -2.18483,-7.36784 -4.091173,-11.61953 -0.745945,-1.66368 -1.356264,-3.18173 -1.356264,-3.37344 0,-1.33257 2.560752,1.00869 4.065532,3.71706 2.424198,4.36318 4.665718,10.98127 4.665718,13.77554 0,0.66485 0.119062,1.20882 0.264583,1.20882 0.145521,0 0.265735,-0.0893 0.267143,-0.19844 0.03333,-2.58454 0.950989,-14.69912 1.60834,-21.23281 0.818638,-8.13678 2.349358,-13.94752 3.278257,-12.44453 0.08684,0.14051 -0.08074,1.30137 -0.372393,2.57969 -0.721329,3.16158 -1.543603,8.0154 -1.738415,10.26172 -0.08834,1.01864 -0.272871,2.92364 -0.410064,4.23333 -0.239297,2.2844 -0.578696,6.57537 -0.920809,11.64167 -0.08844,1.30968 -0.2202,2.58961 -0.292801,2.84427 -0.0726,0.25466 -0.02386,0.46302 0.108309,0.46302 0.13217,0 0.39137,-0.68461 0.575999,-1.52136 1.263681,-5.72704 6.18494,-17.09907 7.641533,-17.65802 1.13789,-0.43665 0.935287,0.75172 -1.014449,5.95021 -1.097315,2.92573 -2.406735,6.96874 -3.170573,9.78959 -0.334939,1.23692 -0.825686,3.01726 -1.090548,3.9563 -0.264862,0.93904 -0.45209,1.73683 -0.416063,1.77286 0.03603,0.036 1.430689,0.19979 3.099248,0.36393 5.731741,0.56382 10.807857,1.60061 11.020342,2.25088 0.107005,0.32747 -0.808026,0.43911 -1.13966,0.13904 z m -13.360446,-4.31583 c 0.326952,-1.05502 0.9337,-3.04932 1.34833,-4.43177 1.144496,-3.81595 1.925552,-6.18238 3.143791,-9.525 0.609914,-1.67349 1.163698,-3.45885 1.23063,-3.96748 0.06693,-0.50863 0.242469,-0.96503 0.39008,-1.01424 0.342987,-0.11432 0.351475,-0.57453 0.0106,-0.57453 -0.304174,0 -1.174399,1.58561 -0.873485,1.59155 0.112878,0.002 0.07176,0.0915 -0.09137,0.19844 -0.581174,0.38089 -3.804438,7.60195 -3.804438,8.52307 0,0.14865 -0.09373,0.27028 -0.208279,0.27028 -0.114553,0 -0.227782,0.25891 -0.25162,0.57536 -0.02384,0.31645 -0.161484,0.882 -0.305882,1.25677 -0.144397,0.37477 -0.580913,2.28875 -0.970034,4.25328 -0.389121,1.96453 -0.766941,3.83977 -0.8396,4.16719 -0.08922,0.40205 -0.0089,0.59531 0.247358,0.59531 0.240009,0 0.597934,-0.70496 0.973924,-1.91823 z m -4.793377,-0.79375 c -0.486391,-4.74539 -2.740986,-10.7622 -5.305623,-14.15904 -1.145974,-1.51783 -1.545126,-1.67114 -0.849716,-0.32636 1.089116,2.10612 3.872707,10.21197 4.633638,13.49322 0.320595,1.38244 0.62577,2.66237 0.678168,2.84427 0.0524,0.1819 0.313968,0.33073 0.581268,0.33073 0.450416,0 0.469618,-0.15982 0.262265,-2.18282 z m 2.557214,-4.49791 c 0.272932,-4.09159 0.302408,-5.74764 0.09868,-5.5439 -0.106808,0.10681 -0.24534,1.62112 -0.307848,3.36514 -0.06251,1.74402 -0.198607,3.49837 -0.302441,3.89855 -0.114134,0.43988 -0.08258,0.7276 0.07979,0.7276 0.150587,0 0.340294,-1.07516 0.431829,-2.44739 z m 0.609025,-11.90625 c -0.0557,-0.61847 -0.10128,-0.11245 -0.10128,1.12448 0,1.23692 0.04558,1.74294 0.10128,1.12448 0.0557,-0.61847 0.0557,-1.6305 0,-2.24896 z m 1.377745,-8.00365 c 0.01044,-0.43656 0.146913,-1.25451 0.30328,-1.81766 0.221388,-0.79732 0.2074,-1.09007 -0.06321,-1.32291 -0.191133,-0.16446 -0.274996,-0.20467 -0.186363,-0.0893 0.13452,0.17501 -0.112377,1.75748 -0.710334,4.55284 -0.411716,1.92471 -0.362075,2.29815 0.123097,0.92604 0.283005,-0.80036 0.523094,-1.8124 0.533532,-2.24896 z"
       id="path15344" />
    <path
       style="fill:#496959;stroke-width:1.41772"
       d="m 83.795716,228.71197 c -0.0178,-0.74666 0.611654,-3.25057 1.119961,-4.45507 0.382481,-0.90634 1.000083,-1.21735 1.103042,-0.55547 0.02122,0.13642 -0.01103,0.15875 -0.07166,0.0496 -0.387652,-0.69777 -0.964905,0.58297 -1.758986,3.90261 -0.208857,0.87312 -0.385418,1.34937 -0.392359,1.05833 z"
       id="path15120" />
    <path
       style="fill:#496959;stroke-width:1.41772"
       d="m 82.844732,235.06197 c 0.105519,-1.16417 0.349909,-2.9501 0.54309,-3.96875 0.401802,-2.11872 0.35401,-1.02663 -0.138666,3.16861 -0.37355,3.18085 -0.674109,3.7755 -0.404424,0.80014 z"
       id="path15119" />
    <path
       style="fill:#496959;stroke-width:1.41772"
       d="m 83.119729,242.24595 c 0.23977,-5.36376 0.723376,-9.30384 1.579975,-12.87252 0.471146,-1.96284 0.477375,-1.13468 0.01,1.32292 -0.446784,2.34907 -0.847269,5.40746 -1.091357,8.33437 -0.09708,1.16417 -0.275187,2.95011 -0.395781,3.96875 -0.199215,1.68274 -0.208613,1.61384 -0.102787,-0.75352 z"
       id="path15114" />
    <path
       style="fill:#496959;stroke-width:1.41772"
       d="m 81.289799,254.90572 c 0.166584,-3.28174 0.870362,-12.77473 1.137687,-15.34583 l 0.220077,-2.11667 -0.0092,2.03956 c -0.005,1.12176 -0.0985,2.66957 -0.207704,3.43958 -0.49476,3.48877 -0.859269,10.70344 -0.566281,11.20831 0.268253,0.46224 0.299899,0.43548 0.334977,-0.28328 0.02209,-0.45264 0.0906,-0.59546 0.159429,-0.33234 0.168212,0.6431 -0.436249,3.41271 -0.708142,3.24467 -0.122368,-0.0756 -0.280823,0.0121 -0.352123,0.19487 -0.0713,0.18281 -0.07524,-0.73918 -0.0088,-2.04887 z"
       id="path15112" />
    <path
       style="fill:#496959;stroke-width:1.41772"
       d="m 82.608095,257.6177 c -0.334966,-1.24992 -0.342916,-1.21051 1.427736,-7.0776 2.248423,-7.4502 6.151538,-15.11397 7.175807,-14.0897 0.337261,0.33726 -0.05881,1.68824 -2.113962,7.21053 -0.73111,1.96453 -1.763278,5.11969 -2.293707,7.01146 -1.767432,6.30352 -1.994972,7.01146 -2.253586,7.01146 -0.141333,0 -0.256968,-0.18563 -0.256968,-0.41249 0,-0.22687 0.104191,-0.3481 0.231536,-0.2694 0.189378,0.11704 0.493476,-0.9172 0.694151,-2.36082 0.188755,-1.35788 0.481738,-2.53454 0.65825,-2.64363 0.118236,-0.0731 0.355896,-0.75831 0.528132,-1.52274 0.371111,-1.6471 0.997183,-3.72435 1.455571,-4.82947 1.592355,-3.83895 3.048889,-8.00827 3.03814,-8.69666 -0.0085,-0.54503 -0.02709,-0.54178 -0.559265,0.0977 -0.716997,0.86157 -2.290563,4.04588 -3.39942,6.87916 -0.484095,1.23693 -0.985075,2.38625 -1.11329,2.55405 -0.211007,0.27614 -0.619241,1.44551 -0.86336,2.47304 -0.05186,0.21828 -0.216322,0.71205 -0.365475,1.09727 -0.149152,0.38522 -0.220884,0.7507 -0.159405,0.81218 0.130197,0.1302 -0.622851,4.21228 -0.81195,4.40137 -0.07005,0.0701 -0.137599,-0.2199 -0.150107,-0.64433 -0.02242,-0.76066 -0.02558,-0.76224 -0.221103,-0.11024 -0.412804,1.37653 -0.541921,2.40754 -0.281338,2.24649 0.14333,-0.0886 0.2606,-0.412 0.2606,-0.71871 0,-0.3067 0.06846,-0.48918 0.15214,-0.40551 0.213697,0.2137 -0.167786,2.58189 -0.415907,2.58189 -0.112025,0 -0.275474,-0.26789 -0.36322,-0.59531 z"
       id="path15111" />
    <path
       style="fill:#496959;stroke-width:1.41772"
       d="m 95.538206,259.82295 c 0.704448,-0.15929 0.63003,-0.1997 -0.661458,-0.35913 -0.800365,-0.0988 -1.723099,-0.10913 -2.050521,-0.0229 -0.335402,0.0883 -0.595312,0.0369 -0.595312,-0.11768 0,-0.28522 -2.509121,-0.63591 -5.027083,-0.7026 -0.800365,-0.0212 -1.931459,-0.0723 -2.513542,-0.11355 -0.946076,-0.067 -0.986936,-0.0967 -0.385221,-0.27938 0.897109,-0.27241 5.598241,0.11105 9.47893,0.77316 1.724751,0.29427 3.241746,0.54691 3.3711,0.56141 0.462976,0.0519 -1.10117,0.44995 -1.749185,0.44512 -0.58063,-0.004 -0.564464,-0.0269 0.132292,-0.18441 z"
       id="path15110" />
    <path
       style="fill:#496959;stroke-width:1.41772"
       d="m 58.36425,260.00541 c 0,-0.1199 0.277972,-0.32369 0.617716,-0.45286 1.714034,-0.65168 12.712229,-1.86871 16.887279,-1.86871 1.286314,0 2.338599,-0.0893 2.338411,-0.19844 -1.88e-4,-0.10914 -0.300631,-1.4486 -0.667651,-2.97656 -0.951642,-3.96186 -2.368393,-8.10703 -4.024146,-11.77396 -1.672309,-3.7036 -1.857936,-4.36563 -1.224081,-4.36563 0.691662,0 2.681298,2.32103 3.742305,4.36563 2.666734,5.13888 4.095647,9.22682 4.429529,12.67234 0.266989,2.75522 0.290518,2.80578 1.305687,2.80578 0.497963,0 0.978971,0.11906 1.068908,0.26459 0.10713,0.17334 -1.872015,0.26546 -5.739073,0.26713 -5.201534,0.002 -11.322504,0.42383 -13.807048,0.95097 -0.573068,0.12159 -0.709704,0.0789 -0.553939,-0.17316 0.153807,-0.24886 0.04369,-0.29092 -0.42992,-0.16419 -0.350177,0.0937 -1.030666,0.17198 -1.512197,0.17397 -0.48153,0.002 -0.809907,0.10976 -0.729726,0.23949 0.08018,0.12974 -0.269979,0.28442 -0.778135,0.34375 -0.508156,0.0593 -0.923919,0.01 -0.923919,-0.11014 z M 77.414249,258.213 c 0.281705,-0.18205 -0.04461,-0.25765 -1.124479,-0.26053 -0.840549,-0.002 -1.521354,0.11435 -1.521354,0.26053 0,0.33864 2.121825,0.33864 2.645833,0 z m 2.327284,0.0389 c 0.251923,-0.15981 0.299795,-0.66771 0.180422,-1.91417 -0.08937,-0.93316 -0.210175,-1.84548 -0.26846,-2.02738 -0.05828,-0.1819 0.02393,-0.33073 0.182704,-0.33073 0.190409,0 0.201964,-0.11258 0.03395,-0.33073 -0.140102,-0.1819 -0.583189,-1.50818 -0.984637,-2.94729 -0.693147,-2.48478 -2.302412,-6.12502 -3.989792,-9.02511 -0.728062,-1.25131 -2.022828,-2.77812 -2.355906,-2.77812 -0.355662,0 -0.107885,0.80775 0.460447,1.50105 0.805901,0.98311 1.340536,2.34818 1.089765,2.78246 -0.110107,0.19068 -0.09779,0.25346 0.02736,0.13951 0.481378,-0.43829 4.433182,11.13069 4.315216,12.63288 -0.08678,1.10507 0.05563,1.48792 0.635291,1.70795 0.559201,0.21225 0.539139,0.24239 -0.330729,0.49677 l -0.926041,0.27082 0.79375,0.0198 c 0.436562,0.0109 0.948059,-0.0781 1.136659,-0.19772 z"
       id="path15108" />
    <path
       style="fill:#496959;stroke-width:1.41772"
       d="m 98.758486,260.41906 c -0.09636,-0.0964 -0.622223,-0.1656 -1.168577,-0.15385 -0.77205,0.0166 -0.875473,-0.0286 -0.464203,-0.20307 0.770754,-0.3269 1.030345,-0.30636 1.603076,0.12683 0.282475,0.21366 0.444137,0.39225 0.35925,0.39688 -0.08489,0.005 -0.233183,-0.0704 -0.329546,-0.16679 z"
       id="path11876" />
    <path
       style="fill:#35574a;stroke-width:1.41772"
       d="m 86.686024,243.43837 c -0.01335,-0.41708 2.387534,-5.13966 2.53696,-4.99023 0.05594,0.0559 -0.489439,1.28146 -1.211948,2.72339 -0.722508,1.44193 -1.318764,2.46201 -1.325012,2.26684 z"
       id="path12140" />
    <path
       style="fill:#35574a;stroke-width:1.41772"
       d="m 77.47508,246.48776 c -0.616247,-1.19099 -1.301235,-2.58215 -1.522195,-3.09147 -0.553213,-1.27518 -1.49502,-2.7759 -2.239198,-3.56804 -0.342679,-0.36477 -0.559896,-0.72637 -0.482704,-0.80356 0.315634,-0.31563 2.500513,3.06215 3.976299,6.14728 0.866595,1.81162 1.533466,3.33601 1.481937,3.38754 -0.05153,0.0515 -0.597892,-0.88076 -1.214139,-2.07175 z"
       id="path12138" />
    <path
       style="fill:#35574a;stroke-width:1.41772"
       d="m 75.985521,248.29108 c 0.104568,-0.29104 0.08873,-0.43682 -0.0352,-0.32395 -0.223115,0.2032 -1.525465,-2.99256 -1.308115,-3.20991 0.0621,-0.0621 0.354011,0.46949 0.648689,1.18131 0.294678,0.71182 0.664633,1.51661 0.822122,1.78843 0.207843,0.35872 0.203556,0.57633 -0.01564,0.79375 -0.225784,0.22395 -0.254009,0.16601 -0.111859,-0.22963 z"
       id="path12137" />
    <path
       style="fill:#35574a;stroke-width:1.41772"
       d="m 86.145498,251.93062 c 0,-0.15681 0.236589,-1.03985 0.525753,-1.96232 0.289165,-0.92247 0.52729,-1.88688 0.529167,-2.14313 0.0019,-0.25624 0.229679,-0.97062 0.506225,-1.5875 0.476663,-1.06326 1.519464,-3.85938 2.815329,-7.54889 0.532939,-1.51736 0.915193,-2.27565 0.915193,-1.81553 0,0.21497 -3.079148,8.80695 -3.428118,9.56574 -0.133851,0.29105 -0.55879,1.66026 -0.944309,3.04271 -0.671175,2.4068 -0.91924,3.06766 -0.91924,2.44892 z"
       id="path12135" />
    <path
       style="fill:#35574a;stroke-width:1.41772"
       d="m 83.365504,252.76126 c 0.388666,-1.65638 2.141508,-6.84614 2.537478,-7.51289 0.186429,-0.31392 0.220982,-0.28627 0.165306,0.13229 -0.03871,0.29104 -0.163459,0.6783 -0.277211,0.86058 -0.337239,0.5404 -2.036561,5.93451 -2.125499,6.74691 -0.04509,0.41183 -0.213395,0.8802 -0.374022,1.04083 -0.191157,0.19115 -0.165611,-0.24679 0.07395,-1.26772 z"
       id="path12132" />
    <path
       style="fill:#35574a;stroke-width:1.41772"
       d="m 79.435925,252.14357 c -0.634789,-1.92067 -0.914532,-3.495 -0.557606,-3.13807 0.218332,0.21833 1.494884,5.01378 1.368354,5.14031 -0.06159,0.0616 -0.426431,-0.83942 -0.810748,-2.00224 z"
       id="path12131" />
    <path
       style="fill:#35574a;stroke-width:1.41772"
       d="m 81.467685,252.92129 c 0,-0.94589 0.04802,-1.33284 0.106712,-0.8599 0.05869,0.47294 0.05869,1.24685 0,1.71979 -0.05869,0.47294 -0.106712,0.086 -0.106712,-0.85989 z"
       id="path12130" />
    <path
       style="fill:#35574a;stroke-width:1.41772"
       d="m 77.815279,254.26312 c -0.09817,-0.44697 -0.267646,-0.81267 -0.376611,-0.81267 -0.174443,0 -0.385283,-0.69829 -0.958649,-3.175 -0.105891,-0.4574 -0.01555,-0.37578 0.292861,0.26459 0.245296,0.50932 0.43782,1.1344 0.427832,1.38906 -0.01,0.25466 0.07803,0.46302 0.195595,0.46302 0.260509,0 0.942758,2.33838 0.741088,2.54005 -0.07899,0.079 -0.223945,-0.22208 -0.322116,-0.66905 z"
       id="path12048" />
    <path
       style="fill:#35574a;stroke-width:1.41772"
       d="m 74.173103,257.75703 c 0.472943,-0.0587 1.246849,-0.0587 1.719792,0 0.472942,0.0587 0.08599,0.10671 -0.859896,0.10671 -0.945886,0 -1.332839,-0.048 -0.859896,-0.10671 z"
       id="path12043" />
  </g>
</svg>
