<?xml version="1.0" encoding="UTF-8" standalone="no"?>
<!-- Created with Inkscape (http://www.inkscape.org/) -->

<svg
   width="185"
   height="185"
   viewBox="0 0 48.947914 48.947918"
   version="1.1"
   id="svg1"
   sodipodi:docname="gentiana-acaulis-5.svg"
   inkscape:version="1.4 (e7c3feb100, 2024-10-09)"
   xmlns:inkscape="http://www.inkscape.org/namespaces/inkscape"
   xmlns:sodipodi="http://sodipodi.sourceforge.net/DTD/sodipodi-0.dtd"
   xmlns="http://www.w3.org/2000/svg"
   xmlns:svg="http://www.w3.org/2000/svg">
  <sodipodi:namedview
     id="namedview1"
     pagecolor="#ffffff"
     bordercolor="#666666"
     borderopacity="1.0"
     inkscape:showpageshadow="2"
     inkscape:pageopacity="0.0"
     inkscape:pagecheckerboard="0"
     inkscape:deskcolor="#d1d1d1"
     inkscape:document-units="mm"
     inkscape:zoom="1.8041143"
     inkscape:cx="93.674774"
     inkscape:cy="88.686177"
     inkscape:current-layer="layer1" />
  <defs
     id="defs1" />
  <g
     inkscape:label="Ebene 1"
     inkscape:groupmode="layer"
     id="layer1">
    <g
       id="g23805"
       transform="matrix(0.77664744,0,0,0.77664744,11.217116,-77.302342)"
       style="display:inline;stroke-width:1.28759">
      <path
         style="fill:#0372c4;stroke-width:1.28759"
         d="m -3.3883145,162.27025 c -4.9708652,-0.71631 -10.4510415,-3.19364 -10.4510415,-4.72442 0,-1.00102 1.928228,-2.61553 5.3097761,-4.44588 0.7904044,-0.42783 2.0919426,-1.18221 2.8923072,-1.67641 1.1684387,-0.72147 1.7028728,-0.89066 2.711979,-0.85857 0.6912239,0.022 1.2542286,-0.0375 1.2511215,-0.13229 -0.00311,-0.0947 -0.4863063,-0.5124 -1.0737761,-0.92813 -4.1311705,-2.92343 -8.3409817,-8.7163 -8.1309227,-11.18847 0.123941,-1.45865 1.0317206,-2.00452 3.5787026,-2.15196 5.5208111,-0.3196 11.6021456,1.8355 15.5125826,5.49734 1.0961295,1.02645 1.7693219,1.50645 1.6698001,1.19063 -0.1543128,-0.48971 -0.7900488,-3.16152 -2.4237886,-10.18646 -1.184543,-5.09344 -1.4652146,-5.94402 -2.4243573,-7.34707 -1.5049382,-2.20144 -5.13293581,-5.47273 -7.1226432,-6.42233 -0.9513043,-0.45401 -1.7979121,-1.00338 -1.8813505,-1.22082 -0.2918832,-0.76063 0.4436297,-2.44101 1.3815924,-3.15643 1.2705038,-0.96906 4.2548764,-1.72349 7.4794987,-1.89078 2.4512818,-0.12716 2.7617399,-0.0915 3.108854,0.35693 0.365771,0.47256 0.4041514,0.47437 0.7455209,0.0352 0.1979436,-0.25467 0.4709873,-0.46302 0.6067638,-0.46302 0.1357765,0 0.9560885,-0.60645 1.8229145,-1.34767 2.389302,-2.04307 4.132218,-3.15025 4.959094,-3.15025 1.019747,0 2.090733,0.59804 4.054819,2.26423 2.706507,2.296 2.881732,2.35462 7.114219,2.38002 6.413499,0.0385 9.876242,1.62808 9.608427,4.41077 -0.07605,0.79016 -0.266468,0.96049 -2.152283,1.92519 -2.305059,1.17916 -4.937817,3.41653 -6.580462,5.5922 -1.148466,1.52113 -1.370094,2.22458 -2.739521,8.6953 -0.369567,1.74625 -0.90358,4.41029 -1.186697,5.9201 -0.283116,1.5098 -0.631295,3.16716 -0.773731,3.68302 l -0.258973,0.93793 0.983286,-0.9342 c 4.402284,-4.18251 10.152713,-6.54442 16.133182,-6.62648 2.35307,-0.0323 2.811021,0.0345 3.439583,0.50185 0.951714,0.70757 1.074187,2.03679 0.340494,3.69542 -1.269014,2.86882 -4.724803,6.83662 -8.059738,9.25387 l -0.767792,0.55652 1.900023,0.46562 c 2.463516,0.60372 7.759823,3.22233 9.3478,4.62176 1.473218,1.2983 1.732774,1.92682 1.157979,2.80407 -0.578833,0.88341 -4.783373,2.85597 -7.691578,3.6085 -2.12905,0.55092 -2.969718,0.61575 -7.9375,0.61212 -5.24051,-0.004 -5.700114,-0.0449 -8.087917,-0.72281 -1.392417,-0.39531 -3.41648,-1.08624 -4.497916,-1.53541 -2.187465,-0.90854 -3.208323,-0.90529 -5.014093,0.0159 -3.752465,1.91437 -12.1965927,2.90062 -17.8542385,2.08534 z"
         id="path23800" />
      <path
         style="fill:#447943;stroke-width:1.28759"
         d="m -3.3883145,162.27025 c -4.9708652,-0.71631 -10.4510415,-3.19364 -10.4510415,-4.72442 0,-1.00102 1.928228,-2.61553 5.3097761,-4.44588 0.7904044,-0.42783 2.0919426,-1.18221 2.8923072,-1.67641 1.1684387,-0.72147 1.7028728,-0.89066 2.711979,-0.85857 0.6912239,0.022 1.2542286,-0.0375 1.2511215,-0.13229 -0.00311,-0.0947 -0.4863063,-0.5124 -1.0737761,-0.92813 -4.1311705,-2.92343 -8.3409817,-8.7163 -8.1309227,-11.18847 0.123941,-1.45865 1.0317206,-2.00452 3.5787026,-2.15196 5.5208111,-0.3196 11.6021456,1.8355 15.5125826,5.49734 1.0961295,1.02645 1.7693219,1.50645 1.6698001,1.19063 -0.1543128,-0.48971 -0.7900488,-3.16152 -2.4237886,-10.18646 -1.184543,-5.09344 -1.4652146,-5.94402 -2.4243573,-7.34707 -1.5049382,-2.20144 -5.13293581,-5.47273 -7.1226432,-6.42233 -0.9513043,-0.45401 -1.7979121,-1.00338 -1.8813505,-1.22082 -0.2918832,-0.76063 0.4436297,-2.44101 1.3815924,-3.15643 1.3611166,-1.03818 4.2748675,-1.73772 7.6666846,-1.84065 1.8724888,-0.0568 2.5801668,-0.0122 1.9843749,0.12508 -1.1025595,0.25407 -1.0298994,0.31851 0.47937,0.42512 0.7990995,0.0564 1.1840375,-0.032 1.2850782,-0.29533 0.079337,-0.20675 0.2854928,-0.3759 0.458123,-0.3759 0.1726302,0 1.0230952,-0.60645 1.8899212,-1.34767 2.389302,-2.04307 4.132218,-3.15025 4.959094,-3.15025 1.018675,0 2.090496,0.59784 4.046132,2.25686 1.750586,1.48507 2.432765,1.92012 3.535579,2.25475 0.454781,0.138 0.519845,0.21287 0.198274,0.22815 -0.263249,0.0125 -0.405051,0.1418 -0.315114,0.28732 0.217748,0.35233 2.70852,0.34111 2.826465,-0.0127 0.163835,-0.4915 2.902678,-0.58359 4.881565,-0.16412 3.99644,0.84712 5.797658,2.19848 5.604564,4.20479 -0.07605,0.79016 -0.266468,0.96049 -2.152283,1.92519 -2.305059,1.17916 -4.937817,3.41653 -6.580462,5.5922 -1.148466,1.52113 -1.370094,2.22458 -2.739521,8.6953 -0.369567,1.74625 -0.90358,4.41029 -1.186697,5.9201 -0.283116,1.5098 -0.631295,3.16716 -0.773731,3.68302 l -0.258973,0.93793 0.983286,-0.9342 c 4.402284,-4.18251 10.152713,-6.54442 16.133182,-6.62648 2.35307,-0.0323 2.811021,0.0345 3.439583,0.50185 0.951714,0.70757 1.074187,2.03679 0.340494,3.69542 -1.269014,2.86882 -4.724803,6.83662 -8.059738,9.25387 l -0.767792,0.55652 1.900023,0.46562 c 2.463516,0.60372 7.759823,3.22233 9.3478,4.62176 1.473218,1.2983 1.732774,1.92682 1.157979,2.80407 -0.578833,0.88341 -4.783373,2.85597 -7.691578,3.6085 -2.12905,0.55092 -2.969718,0.61575 -7.9375,0.61212 -5.24051,-0.004 -5.700114,-0.0449 -8.087917,-0.72281 -1.392417,-0.39531 -3.41648,-1.08624 -4.497916,-1.53541 -2.187465,-0.90854 -3.208323,-0.90529 -5.014093,0.0159 -3.752465,1.91437 -12.1965927,2.90062 -17.8542385,2.08534 z M 14.129743,143.83353 c 0.612641,-1.2674 1.488946,-3.1378 1.947345,-4.15644 0.458399,-1.01865 0.939414,-1.89177 1.068921,-1.94028 0.129507,-0.0485 0.235467,-0.44249 0.235467,-0.87551 0,-1.59811 0.252861,-1.08991 2.947392,5.92368 0.488987,1.27279 0.953803,2.31458 1.032926,2.31511 0.171242,0.001 0.672348,-2.31639 1.058166,-4.89384 0.152482,-1.01864 0.382555,-2.32833 0.511275,-2.91041 1.789799,-8.09368 2.428474,-10.73558 2.828284,-11.69932 0.449795,-1.08422 0.452916,-1.06099 -0.188682,-1.40437 -0.394132,-0.21093 -0.933785,-0.20865 -1.979154,0.008 -2.090663,0.43402 -2.971196,0.94976 -4.818937,2.82254 -0.908291,0.9206 -1.814833,1.67382 -2.014537,1.67382 -0.199705,0 -0.697823,-0.48301 -1.10693,-1.07335 -0.409107,-0.59034 -1.109909,-1.32875 -1.557338,-1.6409 -0.447429,-0.31215 -0.873038,-0.63282 -0.945798,-0.71259 -0.07276,-0.0798 -0.624753,-0.41293 -1.226649,-0.74035 -0.841369,-0.45769 -1.525868,-0.59531 -2.9609476,-0.59531 -1.0266245,0 -1.9438738,0.12505 -2.0383319,0.27788 -0.094458,0.15284 0.00833,0.65885 0.2284226,1.12448 0.4788232,1.01301 1.3804058,4.58127 3.8907399,15.39868 0.303931,1.30969 0.651835,2.67891 0.773119,3.04271 0.516504,1.5493 0.87945,2.38055 1.035017,2.3705 0.09149,-0.006 0.66759,-1.04771 1.28023,-2.3151 z m 2.240026,-21.8438 c 0.06516,-2.88775 0.180682,-3.91165 0.48254,-4.27672 0.364942,-0.44137 0.412705,-0.35408 0.593606,1.08475 0.108202,0.86061 0.269667,2.63631 0.358812,3.94599 0.181935,2.67295 0.380203,3.09081 1.140194,2.40302 0.7712,-0.69792 2.392514,-4.98115 2.585918,-6.83153 0.166047,-1.58865 0.414844,-2.09293 1.605324,-3.25376 0.75912,-0.74022 0.748758,-0.82155 -0.132291,-1.03839 -1.061303,-0.26121 -2.752494,-1.30267 -4.071714,-2.50742 -1.509864,-1.37886 -2.457086,-1.77757 -3.388133,-1.42614 -0.392517,0.14816 -1.928124,1.20223 -3.41246,2.34239 l -2.6987928,2.073 0.7689368,0.81212 c 0.913346,0.96465 1.657179,2.56241 2.780018,5.97151 0.455331,1.38244 1.006468,2.75764 1.224749,3.056 0.411195,0.56203 1.565382,1.44191 1.891436,1.44191 0.102405,0 0.224741,-1.70853 0.271857,-3.79673 z m -7.3231817,0.74765 c 2.5189797,-0.0224 2.9215707,-0.0865 2.9967587,-0.47693 0.116308,-0.60394 -0.964523,-3.81238 -1.624307,-4.82174 -1.5576288,-2.38293 -5.590481,-3.56598 -9.3831737,-2.75259 -1.18894552,0.25498 -3.2335549,1.5788 -3.2335549,2.09362 0,0.11835 0.4012156,0.40557 0.8915901,0.63827 1.51963964,0.72111 3.9508554,2.65041 5.3253048,4.22592 0.9351351,1.07192 1.4298867,1.45048 1.7157647,1.31282 0.2209432,-0.1064 1.711171,-0.20511 3.3116173,-0.21937 z m 16.7991317,-0.0161 c 1.671893,-0.17194 1.768679,-0.22453 3.655039,-1.98619 1.065718,-0.99526 2.842366,-2.30897 3.948106,-2.91935 l 2.010437,-1.10979 -0.822727,-0.7351 c -1.051527,-0.93954 -2.302214,-1.31225 -4.985022,-1.48554 -2.446117,-0.15801 -3.611248,0.12724 -5.337639,1.30675 -1.32326,0.90409 -2.380548,2.93219 -2.718428,5.21453 -0.255102,1.72318 0.128183,2.20295 1.606824,2.01133 0.509323,-0.066 1.698858,-0.19949 2.64341,-0.29664 z"
         id="path23792" />
      <path
         style="fill:#2b6330;stroke-width:1.28759"
         d="m -2.8591479,162.26526 c -3.6937354,-0.46138 -9.1957751,-2.42959 -10.3465761,-3.70121 -0.721175,-0.79689 -0.544583,-1.8221 0.457775,-2.6576 0.948637,-0.79073 3.3884044,-2.28931 5.7877597,-3.55504 0.8003645,-0.42221 1.6217857,-0.92582 1.8253803,-1.11914 0.2035947,-0.19331 0.5907121,-0.29381 0.8602609,-0.22332 0.2695488,0.0705 0.4272788,0.0265 0.350511,-0.0977 -0.076768,-0.12421 0.4698401,-0.26194 1.2146841,-0.30606 l 1.3542619,-0.0802 -2.399808,-1.91917 c -2.7957146,-2.23578 -4.6070091,-4.4009 -6.1034184,-7.29568 -1.4049085,-2.71777 -1.4162245,-3.82123 -0.046372,-4.52198 1.192744,-0.61015 2.735014,-0.72227 5.7361149,-0.41704 4.99524991,0.50806 9.2476571,2.35897 12.4696631,5.42756 0.9196298,0.87585 1.6720542,1.51577 1.6720542,1.42206 0,-0.16005 -1.4980811,-6.59582 -3.0309307,-13.0209 -0.3756233,-1.57446 -0.9678899,-3.41993 -1.316148,-4.10104 -1.2704675,-2.48475 -5.87363025,-6.63132 -8.5547236,-7.70617 -1.1118987,-0.44576 -1.3122189,-1.24849 -0.640253,-2.56566 0.6246794,-1.22447 1.8923318,-1.98576 4.28796504,-2.57513 1.88720786,-0.4643 4.76321646,-0.62037 5.30148586,-0.2877 0.1869727,0.11555 0.8100535,0.29606 1.384624,0.40113 0.8172054,0.14944 1.1673088,0.0871 1.6078895,-0.28636 1.6137152,-1.36783 3.5626842,-2.89389 5.0073822,-3.92082 1.924495,-1.36798 2.728107,-1.36595 4.540423,0.0115 0.632575,0.48078 1.889249,1.4397 2.792609,2.13092 0.90336,0.69123 1.897265,1.2586 2.208679,1.26083 0.418508,0.003 0.472565,0.0634 0.207229,0.23151 -0.507443,0.32153 -0.02951,0.55196 1.248702,0.60204 0.588164,0.023 1.264061,-0.11966 1.501993,-0.31713 0.969104,-0.80428 5.819563,-0.21457 8.320415,1.01158 1.115607,0.54698 2.120158,1.97304 2.120158,3.00978 0,0.68225 -0.194912,0.85233 -1.918229,1.67381 -2.640599,1.25875 -5.681476,3.93132 -7.528482,6.61665 -0.56867,0.82677 -1.924516,6.51888 -3.78139,15.875 -0.173286,0.87312 -0.381964,1.88515 -0.463729,2.24895 -0.122378,0.54451 0.182623,0.34977 1.72504,-1.10144 4.04111,-3.80214 9.802765,-6.04231 15.540649,-6.04231 3.114815,0 4.099057,0.53994 4.099057,2.24867 0,2.0132 -3.363619,6.7698 -6.778783,9.58609 -1.354443,1.11693 -2.424327,2.06908 -2.377521,2.11588 0.04681,0.0468 0.921007,0.31675 1.942666,0.59986 5.067326,1.40423 10.536149,4.88198 10.336728,6.57336 -0.171834,1.45741 -4.10777,3.46668 -8.748715,4.46616 -1.666604,0.35892 -3.331603,0.4654 -7.074374,0.45243 -5.519388,-0.0191 -7.263659,-0.33204 -12.044678,-2.16079 -2.936335,-1.12315 -3.090094,-1.1218 -5.882918,0.0516 -4.3906152,1.84477 -11.3359582,2.65283 -16.8651113,1.96218 z M 17.271995,147.96009 c 0.06513,-2.91792 0.162451,-5.37997 0.216261,-5.47123 0.05381,-0.0913 0.0103,-1.14388 -0.09668,-2.33913 -0.106982,-1.19526 -0.11785,-2.62401 -0.02415,-3.175 0.153269,-0.9013 0.199258,-0.94872 0.458372,-0.47264 0.158407,0.29104 0.608845,1.3626 1.000975,2.38125 0.39213,1.01864 1.061432,2.74505 1.487339,3.83645 0.425907,1.09141 0.773736,2.14023 0.772953,2.33072 -7.82e-4,0.19049 0.09748,0.28522 0.218355,0.21052 0.253396,-0.15661 0.680441,-2.07165 1.097692,-4.92249 0.159739,-1.0914 0.404906,-2.49039 0.544816,-3.10885 0.243158,-1.07487 0.484609,-2.15729 1.032837,-4.63021 0.896681,-4.0447 1.482096,-6.29219 1.887739,-7.24731 l 0.46537,-1.09575 -0.790272,-0.15805 c -0.913793,-0.18276 -2.85631,0.19334 -4.193376,0.8119 -0.509323,0.23563 -1.669189,1.18401 -2.57748,2.10751 -0.908291,0.9235 -1.814833,1.6791 -2.014537,1.6791 -0.199705,0 -0.697823,-0.48301 -1.10693,-1.07335 -0.409107,-0.59034 -1.109909,-1.32875 -1.557338,-1.6409 -0.447429,-0.31215 -0.873038,-0.64659 -0.945798,-0.74319 -0.07276,-0.0966 -0.633564,-0.42976 -1.24623,-0.74035 -1.21388,-0.61538 -4.6541762,-0.81353 -4.9796985,-0.28683 -0.094458,0.15284 0.01379,0.66887 0.2405514,1.14673 0.4385783,0.92424 0.9773374,3.0546 3.8886281,15.37643 0.785945,3.32646 1.424904,5.24411 1.787617,5.36501 0.170022,0.0567 0.309132,-0.0755 0.309132,-0.29383 0,-0.21828 0.09638,-0.43656 0.214169,-0.48507 0.117793,-0.0485 0.672691,-1.07119 1.233106,-2.27262 0.560416,-1.20144 1.062297,-2.14107 1.115291,-2.08808 0.133769,0.13377 -1.736082,4.11692 -2.334134,4.97217 -0.56799,0.81225 -0.465597,1.218 1.225596,4.85659 0.541097,1.16416 1.162292,2.52999 1.380433,3.03517 l 0.396621,0.91851 0.387173,-0.73894 c 0.288772,-0.55115 0.41727,-2.08729 0.505597,-6.04424 z m 21.956275,6.16699 c -0.224394,-0.36307 -3.241821,-1.08244 -5.442628,-1.29754 -2.601983,-0.25431 -6.304251,0.38303 -4.998807,0.86054 1.269608,0.4644 10.70236,0.85919 10.441435,0.437 z M 7.9845552,153.85466 c 0.4581858,-0.17896 0.4077081,-0.24226 -0.3968749,-0.4977 -2.9801161,-0.94616 -5.5842784,-0.94262 -8.8251684,0.012 -0.8341304,0.2457 -0.9323212,0.33777 -0.5291666,0.4962 0.6602812,0.25947 9.083196,0.2504 9.7512099,-0.0105 z m 18.3063078,-9.10159 c 1.764093,-1.44486 6.117938,-3.63005 9.610855,-4.82368 1.382773,-0.47254 2.990382,-1.0758 3.572465,-1.34059 1.037032,-0.47174 1.043626,-0.4833 0.32763,-0.57434 -0.670758,-0.0853 -3.023337,0.44911 -4.29638,0.97594 -5.219748,2.16013 -6.618767,2.89145 -8.499569,4.44305 -0.563986,0.46527 -1.323086,1.08638 -1.686888,1.38026 -0.515204,0.41617 -0.563569,0.53626 -0.218738,0.54311 0.243496,0.005 0.779277,-0.26684 1.190625,-0.60375 z M 4.282532,141.61918 c -0.080749,-0.21043 -0.4759962,-0.57705 -0.8783258,-0.81471 -1.221663,-0.72165 -4.8548444,-1.95658 -6.3327223,-2.15251 -0.7657567,-0.10152 -1.5889601,-0.26005 -1.829341,-0.35229 -0.2886557,-0.11077 -0.3735403,-0.0649 -0.2499948,0.13495 0.1028837,0.16647 0.7474934,0.47853 1.432466,0.69347 1.4117421,0.44299 3.93149795,1.39064 6.2724877,2.35901 0.873125,0.36118 1.6200681,0.62474 1.6598737,0.58569 0.039805,-0.0391 0.00631,-0.24318 -0.074444,-0.45361 z m 12.087237,-19.62945 c 0.06516,-2.88775 0.180682,-3.91165 0.48254,-4.27672 0.364942,-0.44137 0.412705,-0.35408 0.593606,1.08475 0.108202,0.86061 0.269667,2.63631 0.358812,3.94599 0.181935,2.67295 0.380203,3.09081 1.140194,2.40302 0.741127,-0.67071 2.367644,-4.89741 2.577101,-6.69691 0.178844,-1.53649 1.088489,-3.32914 1.834597,-3.61544 0.601834,-0.23095 0.433645,-0.61779 -0.352747,-0.81133 -1.061303,-0.26121 -2.752494,-1.30267 -4.071714,-2.50742 -1.509864,-1.37886 -2.457086,-1.77757 -3.388133,-1.42614 -0.392517,0.14816 -1.928124,1.20223 -3.41246,2.34239 l -2.6987928,2.073 0.7689368,0.81212 c 0.924698,0.97664 1.666275,2.58187 2.80504,6.07182 0.619049,1.8972 1.091989,2.8584 1.724929,3.50573 1.455503,1.48861 1.54244,1.33445 1.638091,-2.90486 z m -7.3231817,0.74765 c 2.5189797,-0.0224 2.9215707,-0.0865 2.9967587,-0.47693 0.116308,-0.60394 -0.964523,-3.81238 -1.624307,-4.82174 -1.5576288,-2.38293 -5.590481,-3.56598 -9.3831737,-2.75259 -1.18894552,0.25498 -3.2335549,1.5788 -3.2335549,2.09362 0,0.11835 0.4012156,0.40557 0.8915901,0.63827 1.54403459,0.73269 3.9738757,2.67092 5.3121442,4.23738 0.9509272,1.11307 1.3998523,1.45661 1.7100372,1.30861 0.2313317,-0.11038 1.7300591,-0.21236 3.3305054,-0.22662 z m 16.7991317,-0.0161 c 1.671893,-0.17194 1.768679,-0.22453 3.655039,-1.98619 1.065718,-0.99526 2.842366,-2.30897 3.948106,-2.91935 l 2.010437,-1.10979 -0.822727,-0.7351 c -1.051527,-0.93954 -2.302214,-1.31225 -4.985022,-1.48554 -2.443203,-0.15782 -3.611412,0.12737 -5.329312,1.30102 -1.294738,0.88456 -2.499769,3.18895 -2.795373,5.34562 -0.214637,1.56594 0.235448,2.07258 1.675442,1.88597 0.509323,-0.066 1.698858,-0.19949 2.64341,-0.29664 z"
         id="path23783" />
      <path
         style="fill:#275a2d;stroke-width:1.28759"
         d="m -3.2882372,162.19192 c -2.8247913,-0.43337 -5.6909634,-1.28884 -7.7729938,-2.32001 -2.402346,-1.18981 -2.937567,-1.84298 -2.493608,-3.04311 0.227978,-0.61628 3.6687484,-2.97175 6.3300663,-4.3334 0.9458854,-0.48396 1.8983854,-1.01789 2.1166666,-1.18651 0.5656755,-0.43698 1.3850859,-0.70166 1.1887519,-0.38398 -0.088907,0.14385 -0.035559,0.26155 0.1185498,0.26155 0.154109,0 0.2801982,-0.11222 0.2801982,-0.24937 0,-0.13715 0.4875103,-0.28598 1.0833563,-0.33073 l 1.0833562,-0.0814 -2.4077684,-1.92506 c -2.5335444,-2.02563 -4.074777,-3.78745 -5.6814175,-6.4946 -2.8962144,-4.88003 -1.4787204,-6.42107 5.2745054,-5.73421 4.99524991,0.50806 9.2476571,2.35897 12.4696631,5.42756 0.9196298,0.87585 1.6720542,1.51023 1.6720542,1.40973 0,-0.59732 -3.7332785,-15.8742 -4.0756818,-16.67802 -0.9504304,-2.23121 -5.40578571,-6.49985 -8.1389747,-7.79789 -0.8493919,-0.40339 -1.6077766,-0.93328 -1.6852993,-1.17753 -0.077523,-0.24425 0.055956,-0.93621 0.2966184,-1.53769 0.5335641,-1.33351 1.8375972,-2.15425 4.43089796,-2.78875 1.78287724,-0.43622 4.82065414,-0.51275 5.33598134,-0.13444 0.6088893,0.447 2.3532106,0.42738 2.8963666,-0.0326 1.6078534,-1.36157 3.5512364,-2.88258 4.9873824,-3.90343 1.924495,-1.36798 2.728107,-1.36595 4.540423,0.0115 0.632575,0.48078 1.889249,1.4397 2.792609,2.13092 0.90336,0.69123 1.897265,1.2586 2.208679,1.26083 0.464334,0.003 0.4948,0.0509 0.169331,0.26458 -0.332915,0.21854 -0.338112,0.29841 -0.03225,0.49553 0.586505,0.37801 0.07972,0.84442 -0.711571,0.65488 -1.15124,-0.27575 -1.984949,-0.77688 -3.889154,-2.33772 -1.980844,-1.62367 -2.760944,-1.93922 -3.717103,-1.50356 -0.350976,0.15991 -1.832998,1.20855 -3.293382,2.33031 l -2.6552448,2.03955 0.7689368,0.81212 c 0.924698,0.97664 1.666275,2.58187 2.80504,6.07182 0.619049,1.8972 1.091989,2.8584 1.724929,3.50573 1.446779,1.47969 1.53137,1.32922 1.632802,-2.90445 0.06902,-2.88094 0.18665,-3.91216 0.487829,-4.27672 0.364935,-0.44173 0.412284,-0.35447 0.588332,1.08434 0.105301,0.86061 0.270048,2.7256 0.366103,4.14443 0.189662,2.80148 0.429852,3.12557 1.401217,1.89068 0.298086,-0.37896 0.869442,-1.56958 1.269681,-2.64583 0.400238,-1.07626 0.831007,-1.95683 0.957264,-1.95683 0.126258,0 0.145589,0.61054 0.04296,1.35675 -0.124389,0.90442 -0.0961,1.30082 0.08487,1.18898 0.149306,-0.0923 0.31469,-0.0381 0.367519,0.12038 0.06881,0.20643 0.881875,0.1968 2.866843,-0.034 l 2.77079,-0.32212 1.935273,-1.80734 c 1.0644,-0.99403 2.839969,-2.30673 3.945709,-2.91711 l 2.010437,-1.10979 -0.822727,-0.7351 c -1.052714,-0.9406 -2.302488,-1.3123 -4.996992,-1.48617 -3.715713,-0.23977 -5.938563,0.92693 -7.277504,3.81972 -0.422887,0.91365 -0.827653,1.66118 -0.899482,1.66118 -0.07183,0 -0.05211,-0.62508 0.04381,-1.38906 0.208352,-1.65945 0.95823,-3.11977 1.996,-3.88703 0.417031,-0.30832 0.758238,-0.74852 0.758238,-0.97822 0,-0.30308 0.166103,-0.37595 0.605526,-0.26566 0.335865,0.0843 0.95446,-0.0374 1.389062,-0.27324 1.574759,-0.85458 6.051035,-0.36504 8.588745,0.93931 1.13547,0.58361 2.116667,1.96845 2.116667,2.9874 0,0.68225 -0.194912,0.85233 -1.918229,1.67381 -2.078215,0.99066 -3.91824,2.42046 -5.79109,4.49998 -1.969628,2.18698 -2.275701,2.80088 -2.974753,5.96657 -1.753516,7.94089 -2.035419,9.25758 -2.404625,11.23135 -0.217766,1.16416 -0.476005,2.47385 -0.573867,2.91041 -0.165972,0.74041 -0.05201,0.67528 1.695774,-0.96915 4.04111,-3.80214 9.802765,-6.04231 15.540649,-6.04231 3.114815,0 4.099057,0.53994 4.099057,2.24867 0,2.01478 -3.363571,6.76976 -6.78409,9.59046 -2.562812,2.11341 -2.600769,2.22362 -0.888826,2.58091 2.823558,0.58928 8.038682,3.24564 9.870673,5.0277 1.312304,1.27653 1.249435,2.05018 -0.259908,3.19838 -2.441635,1.85742 -7.411903,3.22019 -12.653473,3.46939 -5.34433,0.25409 -9.025951,-0.35507 -14.402941,-2.3831 -2.319089,-0.87468 -2.563764,-0.91686 -3.439583,-0.59293 -0.518591,0.1918 -1.928525,0.71933 -3.133187,1.17229 -1.204661,0.45295 -3.1787844,0.99593 -4.3869394,1.20661 -3.2660287,0.56955 -9.13065414,0.71996 -11.8435208,0.30375 z m 9.2063674,-1.74108 c 2.2043023,-0.19882 7.0685848,-1.19003 8.8175128,-1.79678 0.218281,-0.0757 -0.79375,-0.34701 -2.248958,-0.60285 -2.7315989,-0.48024 -12.04781415,-0.99906 -11.72341811,-0.65288 0.10055739,0.10731 0.90422921,0.20449 1.78593741,0.21595 1.7281095,0.0225 1.9327574,0.19044 1.0150677,0.83322 -0.3234209,0.22653 -0.4495102,0.41188 -0.2801982,0.41188 0.1693119,0 0.3826248,-0.12101 0.4740286,-0.2689 0.091404,-0.1479 0.2799743,-0.19858 0.4190454,-0.11263 0.1390711,0.0859 0.220141,-10e-4 0.1801552,-0.19412 -0.043621,-0.21024 0.2222124,-0.38426 0.6645892,-0.43505 0.6669356,-0.0766 0.721526,-0.0218 0.5720858,0.57357 -0.1301781,0.51867 -0.034062,0.72203 0.4533345,0.95915 0.5539401,0.26949 0.5701821,0.26181 0.1555183,-0.0736 -0.7332361,-0.59304 -0.546409,-0.91408 0.5953125,-1.02296 0.5820833,-0.0555 1.0583332,-0.001 1.0583332,0.12012 0,0.12157 0.1210047,0.14626 0.2688992,0.0549 0.1478946,-0.0914 0.2042456,-0.2708 0.1252246,-0.39866 -0.079021,-0.12785 0.1137406,-0.18289 0.4283591,-0.1223 0.8052895,0.15508 0.9659876,0.39134 0.2661841,0.39134 -0.4143742,0 -0.6684095,0.23345 -0.86373,0.79375 -0.290829,0.83427 -0.5964561,0.9983 -0.9112021,0.48903 -0.1036469,-0.16771 0.03657,-0.46917 0.311837,-0.67045 0.4615553,-0.3375 0.4358283,-0.36083 -0.3332739,-0.30223 -0.779574,0.0594 -0.8092873,0.098 -0.4597436,0.59703 0.2055326,0.29344 0.3736957,0.60656 0.3736957,0.69582 0,0.0893 -0.7347432,0.18881 -1.6327626,0.22122 -1.5410549,0.0556 -1.6116442,0.032 -1.2567708,-0.41961 0.3297427,-0.41966 0.327174,-0.44208 -0.020883,-0.18229 -0.646507,0.48256 -2.3750631,0.69974 -2.7950502,0.35118 -0.2947981,-0.24466 -0.41126044,-0.21222 -0.55166251,0.15366 -0.16800893,0.43783 -0.19781473,0.43666 -0.53229749,-0.0208 -0.22845694,-0.31243 -0.35432294,-0.35952 -0.35432294,-0.13256 0,0.27271 -0.31292762,0.30863 -1.38906246,0.15945 -0.7639843,-0.10591 -1.6976203,-0.18157 -2.0747466,-0.16814 -0.3771264,0.0134 -0.9015952,-0.21415 -1.1654863,-0.50575 -0.2638911,-0.29159 -0.7660317,-0.53017 -1.115868,-0.53017 -0.4134196,0 -0.5699838,-0.10693 -0.4472792,-0.30547 0.1126777,-0.18231 0.07301,-0.23391 -0.098395,-0.12797 -0.1579498,0.0976 -0.3587526,0.0617 -0.4462286,-0.0799 -0.087476,-0.14154 -0.3635936,-0.19329 -0.6135947,-0.11501 -0.376596,0.11793 -0.3664705,0.0706 0.059043,-0.27614 0.5412115,-0.44098 0.4675401,-0.52453 -0.2273676,-0.25787 -0.6012987,0.23074 -0.5153618,0.76946 0.1767978,1.1083 0.5931946,0.2904 0.5929593,0.29116 -0.066146,0.21406 -0.5041895,-0.059 -0.6822898,-0.25407 -0.7490737,-0.82053 -0.1088457,-0.92324 -0.8265278,-1.76849 -0.8593144,-1.01206 -0.016174,0.37317 -0.054982,0.39236 -0.1719643,0.0851 -0.083092,-0.21828 -0.2820516,-0.48435 -0.4421327,-0.59126 -0.2013534,-0.13448 -0.1891263,-0.19564 0.039673,-0.19844 0.1819011,-0.002 0.3307292,-0.16991 0.3307292,-0.37262 0,-0.45152 0.7161752,-0.76475 0.9358506,-0.40931 0.087476,0.14154 0.2698827,0.18884 0.4053482,0.10512 0.4052776,-0.25048 0.278347,0.33833 -0.1694727,0.78615 -0.2286756,0.22867 -0.294123,0.41577 -0.1454388,0.41577 0.1486842,0 0.3916931,-0.20836 0.5400198,-0.46302 0.1483267,-0.25466 0.2733054,-0.36669 0.2777305,-0.24897 0.00443,0.11773 0.1183364,0.14589 0.2531363,0.0626 0.1414531,-0.0874 0.1532672,-0.47164 0.027939,-0.90864 -0.1986533,-0.69266 -0.1293755,-0.80649 0.8132426,-1.33627 1.383424,-0.77753 1.3025764,-0.90771 -0.1713533,-0.27591 -1.9641284,0.84192 -3.5737697,1.87678 -3.3876364,2.17795 0.099071,0.16031 0.047941,0.20286 -0.1194373,0.0994 -0.160966,-0.0995 -0.685378,0.17262 -1.165359,0.60467 -0.774275,0.69696 -0.827936,0.82973 -0.475819,1.17728 0.500335,0.49385 4.1256845,1.67951 6.2177077,2.03348 0.873125,0.14774 2.1828124,0.37072 2.9104165,0.49552 1.79617913,0.30807 5.2644372,0.31844 8.5126948,0.0255 z m 31.3070948,-0.0362 c 4.13026,-0.56626 8.863541,-2.26004 8.863541,-3.17177 0,-0.50782 -3.33827,-2.6978 -5.423958,-3.55824 -2.084332,-0.85988 -4.96345,-1.7121 -5.687699,-1.68355 -0.291505,0.0115 -0.410946,0.058 -0.265426,0.10328 0.145521,0.0453 1.157552,0.34198 2.248959,0.65926 2.66506,0.77473 2.737683,0.80041 2.61375,0.92435 -0.0593,0.0593 -0.939546,-0.12911 -1.956098,-0.41869 -2.55829,-0.72876 -6.42623,-0.92141 -8.534498,-0.42508 -1.057111,0.24887 -1.717447,0.29626 -1.819834,0.13059 -0.08838,-0.14301 0.0034,-0.36394 0.203929,-0.49096 0.637432,-0.40375 -0.504,-0.28317 -1.302159,0.13755 -1.53775,0.81057 -5.208967,3.37828 -5.149409,3.60158 0.03463,0.12986 -0.09014,0.17735 -0.277283,0.10553 -0.18714,-0.0718 -0.613818,0.16063 -0.948174,0.51654 l -0.607919,0.6471 1.017494,-0.24579 c 4.12731,-0.99698 5.188192,-1.12891 9.219576,-1.14657 2.328333,-0.0102 4.888177,0.0642 5.688541,0.16534 l 1.455209,0.18389 -1.322917,-0.3436 c -0.727604,-0.18897 -2.93026,-0.36576 -4.894791,-0.39285 -3.086972,-0.0426 -3.639092,-0.11604 -4.067005,-0.5412 -0.272321,-0.27057 -0.414122,-0.62302 -0.315114,-0.78322 0.229863,-0.37193 2.737558,-0.37075 7.292535,0.003 1.964531,0.16138 4.012462,0.30992 4.550956,0.33009 0.538495,0.0202 1.127854,0.18549 1.309688,0.36739 0.181833,0.18191 0.448612,0.33073 0.592842,0.33073 0.14423,0 0.03112,-0.1748 -0.251354,-0.38846 -0.486433,-0.36792 -0.468947,-0.3889 0.33069,-0.39687 0.464355,-0.005 0.921439,0.11643 1.015743,0.26901 0.115274,0.18652 0.310442,0.16485 0.595571,-0.0661 0.351229,-0.28454 0.386954,-0.28187 0.207894,0.0155 -0.166154,0.27593 -0.07071,0.32244 0.412232,0.20088 0.345645,-0.087 0.479618,-0.0898 0.297717,-0.006 -0.597255,0.27431 -0.345633,0.56644 0.370053,0.42962 0.483731,-0.0925 0.642792,-0.0401 0.513551,0.16899 -0.102976,0.16661 -0.06114,0.30294 0.09297,0.30294 0.154109,0 0.280199,0.12609 0.280199,0.2802 0,0.15411 -0.110836,0.2117 -0.246301,0.12797 -0.135466,-0.0837 -0.312721,-0.0448 -0.3939,0.0866 -0.08118,0.13135 0.08935,0.30078 0.378958,0.37652 0.289606,0.0757 0.459834,0.0297 0.378285,-0.10221 -0.08155,-0.13195 0.02822,-0.23991 0.243939,-0.23991 0.345723,0 0.345276,0.0941 -0.0038,0.79375 -0.217786,0.43656 -0.565848,0.79375 -0.773471,0.79375 -0.207623,0 -0.386896,0.20836 -0.398384,0.46302 -0.01248,0.2766 -0.07462,0.32986 -0.154341,0.13229 -0.0734,-0.1819 -0.249619,-0.33073 -0.391601,-0.33073 -0.141983,0 -0.18965,0.11084 -0.105928,0.2463 0.08372,0.13547 0.03122,0.32109 -0.116676,0.41249 -0.15976,0.0987 -0.2689,-0.16231 -0.2689,-0.64318 0,-0.77364 -0.02088,-0.78893 -0.473136,-0.34634 -0.414528,0.40567 -0.422721,0.4853 -0.06614,0.64286 0.319368,0.14113 0.293064,0.18472 -0.122177,0.20249 -0.440185,0.0188 -0.46243,0.0658 -0.132292,0.27913 0.218282,0.14106 0.27186,0.2583 0.119063,0.26053 -0.152797,0.002 -0.411794,-0.12993 -0.575549,-0.29368 -0.337081,-0.33708 -2.189347,-0.0879 -2.189347,0.29453 0,0.2441 0.573039,0.18856 1.389063,-0.13462 0.272561,-0.10794 0.463021,-0.0629 0.463021,0.10952 0,0.16109 -0.20836,0.30268 -0.463021,0.31464 -0.254662,0.012 -0.779996,0.0742 -1.167409,0.13824 -0.600481,0.0993 -0.683746,0.0375 -0.564454,-0.41863 0.07696,-0.29431 0.01989,-0.53511 -0.126825,-0.53511 -0.146717,0 -0.345788,0.31487 -0.44238,0.69973 -0.131875,0.52543 -0.251058,0.62429 -0.478474,0.39687 -0.376196,-0.3762 -0.817407,-0.39992 -0.589844,-0.0317 0.213401,0.34529 -0.467356,0.21538 -0.727604,-0.13885 -0.120385,-0.16386 -0.195929,-0.13868 -0.198438,0.0661 -0.0022,0.1819 -0.182645,0.33073 -0.400926,0.33073 -0.218281,0 -0.405244,-0.14883 -0.415472,-0.33073 -0.01023,-0.1819 -0.105131,-0.11082 -0.210897,0.15795 -0.174613,0.44372 -0.224557,0.4498 -0.542967,0.0661 -0.292186,-0.35206 -0.290108,-0.4232 0.01246,-0.42658 0.289173,-0.003 0.283722,-0.0543 -0.02677,-0.25061 -0.255848,-0.1618 -0.455569,-0.1403 -0.580926,0.0625 -0.273414,0.4424 -0.529794,0.0891 -0.324184,-0.44666 0.09496,-0.24747 0.335891,-0.38731 0.535394,-0.31075 0.199503,0.0766 0.362733,0.0366 0.362733,-0.0888 0,-0.12539 -0.178594,-0.29651 -0.396875,-0.38027 -0.218281,-0.0838 -0.396875,-0.0299 -0.396875,0.1196 0,0.14954 -0.09343,0.21415 -0.20761,0.14358 -0.114185,-0.0706 -0.203482,0.23839 -0.198437,0.68658 0.0066,0.58504 0.146614,0.83512 0.496437,0.88659 1.038839,0.15287 0.728748,0.376 -0.522543,0.376 -0.722753,0 -1.474439,-0.14883 -1.670413,-0.33073 -0.285052,-0.26459 -0.318971,-0.26459 -0.169593,0 0.464924,0.82349 -0.898764,0.18176 -1.647528,-0.7753 -0.298175,-0.38112 -0.265135,-0.48882 0.23151,-0.75461 0.745949,-0.39922 1.863533,0.11949 1.65805,0.76956 -0.07904,0.25005 0.105267,0.15315 0.440957,-0.23184 0.317216,-0.3638 0.499866,-0.51263 0.40589,-0.33073 -0.09398,0.1819 -0.04478,0.33073 0.109332,0.33073 0.154109,0 0.280198,-0.23813 0.280198,-0.52917 0,-0.60428 -0.274862,-0.67763 -0.751851,-0.20065 -0.261634,0.26164 -0.379316,0.24817 -0.578032,-0.0661 -0.448112,-0.70879 -0.281915,-0.79114 1.660612,-0.82284 1.908288,-0.0311 4.198878,-0.39924 2.903333,-0.46656 -1.995586,-0.10371 -12.879603,0.95107 -15.272603,1.48007 l -0.79375,0.17547 0.79375,0.16802 c 0.436562,0.0924 0.99943,0.0673 1.250816,-0.0558 0.341925,-0.16743 0.42042,-0.12831 0.311594,0.15528 -0.08569,0.22331 0.05266,0.43812 0.336684,0.52273 0.593952,0.17693 4.425719,0.91006 5.509239,1.05408 1.476322,0.19623 7.926172,0.11355 9.657291,-0.12379 z m -14.637837,-4.57212 c -0.149389,-0.38931 0.02164,-0.68733 0.394435,-0.68733 0.121267,0 0.220486,0.16867 0.220486,0.37483 0,0.20615 0.148828,0.43488 0.330729,0.50827 0.181901,0.0734 0.07558,0.14286 -0.236276,0.15435 -0.311852,0.0115 -0.631071,-0.14607 -0.709374,-0.35012 z m 1.673254,-0.18647 c 0,-0.16109 -0.154242,-0.2337 -0.34276,-0.16136 -0.200256,0.0768 -0.358422,-0.0764 -0.380431,-0.36857 -0.02371,-0.31477 0.127823,-0.49236 0.408906,-0.47921 0.303881,0.0142 0.334968,0.0655 0.09729,0.16053 -0.254415,0.10171 -0.200389,0.24393 0.198902,0.5236 0.301504,0.21119 0.68544,0.29915 0.85319,0.19547 0.188803,-0.11668 0.233077,-0.0721 0.116212,0.11697 -0.240833,0.38967 -0.951307,0.39906 -0.951307,0.0126 z m -24.7054671,3.7734 c 0.0181901,-0.16803 0.0479557,-0.38349 0.0661458,-0.47881 0.0181901,-0.0953 0.2711979,0.0422 0.56223955,0.30559 0.30008771,0.27158 0.52916664,0.3466 0.52916664,0.1733 0,-0.16807 -0.1260892,-0.30559 -0.28019823,-0.30559 -0.15410903,0 -0.21675278,-0.10266 -0.13920833,-0.22813 0.32065603,-0.51883 -1.00281682,-0.12181 -1.35299943,0.40588 -0.3457294,0.52097 -0.3363729,0.56802 0.10022694,0.50394 0.26485476,-0.0389 0.49643693,-0.20816 0.51462706,-0.37618 z m 36.0508731,0.0718 c 0.160638,0.0993 0.484639,0.0727 0.720001,-0.059 0.391027,-0.21883 0.389555,-0.2542 -0.01707,-0.41024 -0.530613,-0.20362 -1.466671,0.24267 -1.46095,0.69654 0.0028,0.22023 0.07676,0.20662 0.235002,-0.0432 0.127022,-0.20055 0.362381,-0.2834 0.523019,-0.18412 z M 15.42862,156.972 c -0.811938,-1.1592 -5.4422116,-3.88962 -7.3075601,-4.30918 -0.4013166,-0.0903 -0.2452316,0.0557 0.3968749,0.37112 0.5820833,0.28594 1.2108982,0.52302 1.3973664,0.52683 0.1864678,0.004 0.4073038,0.18485 0.4907448,0.4023 0.08344,0.21744 0.250072,0.33456 0.370289,0.26026 0.378651,-0.23402 0.579804,0.40839 0.251676,0.80376 -0.270787,0.32628 -0.435667,0.32687 -1.2076242,0.004 -0.5309764,-0.22186 -0.956428,-0.27257 -1.0477048,-0.12488 -0.084527,0.13677 0.091466,0.24867 0.3910962,0.24867 0.2996299,0 0.544804,0.0893 0.5448313,0.19844 2.74e-5,0.10914 -1.5775507,0.2085 -3.505729,0.22081 -1.9281783,0.0123 -4.1010912,0.15464 -4.8286953,0.31629 -1.23419757,0.27419 -1.18983806,0.28157 0.6614583,0.10991 4.3975309,-0.40774 9.4202815,0.0459 12.3790625,1.11812 1.380528,0.50027 1.459153,0.48889 1.013914,-0.14678 z m 2.673395,-3.66887 c 0.300505,-0.65485 0.876282,-2.14313 1.279506,-3.30729 0.403224,-1.16417 0.814061,-2.23573 0.912972,-2.38125 0.320711,-0.47185 0.526781,-1.22199 0.29661,-1.07974 -0.29165,0.18025 -1.136297,-1.59581 -1.922478,-4.04244 l -0.625691,-1.94718 -0.15077,1.94718 -0.150771,1.94718 -0.04925,-1.98438 c -0.02709,-1.09141 -0.127169,-2.98547 -0.222401,-4.20903 -0.111703,-1.43519 -0.08076,-2.16756 0.08718,-2.06377 0.143183,0.0885 1.021576,2.18197 1.951986,4.65216 0.930409,2.47019 1.767849,4.44417 1.860979,4.38661 0.178978,-0.11061 0.36619,-0.99349 1.428083,-6.73472 0.992838,-5.36788 2.481932,-11.77123 3.040327,-13.07391 l 0.495575,-1.15613 -0.790272,-0.15805 c -0.913793,-0.18276 -2.85631,0.19334 -4.193376,0.8119 -0.509323,0.23563 -1.669189,1.18401 -2.57748,2.10751 -0.908291,0.9235 -1.821315,1.6791 -2.028942,1.6791 -0.207626,0 -0.627053,-0.40378 -0.93206,-0.89729 -1.665875,-2.69545 -5.747937,-4.5505 -8.4012658,-3.81788 -0.9792737,0.27039 -1.039829,0.38878 -0.5064349,0.99017 0.3859556,0.43515 1.2084826,3.07389 1.7384462,5.57708 0.4665931,2.20387 2.1015185,9.07713 2.8235775,11.87037 0.909866,3.51976 3.288809,9.38321 5.328281,13.13275 l 0.431741,0.79375 0.164777,-0.92604 c 0.09063,-0.50932 0.410644,-1.46182 0.711149,-2.11666 z m -0.705605,-3.49012 c -0.0082,-2.13784 0.07436,-3.94219 0.183504,-4.00966 0.10914,-0.0675 0.186519,1.08637 0.171954,2.56408 -0.01457,1.4777 0.05322,2.86533 0.150642,3.08361 0.09742,0.21828 0.02676,0.8136 -0.157021,1.32292 -0.296903,0.82283 -0.33581,0.49282 -0.349079,-2.96095 z m -7.9760726,4.64966 c 0.3206436,0.254 0.3213521,0.21235 0.00503,-0.2956 -0.5504371,-0.88389 -2.4325177,-1.40814 -5.5376388,-1.54251 -2.3103754,-0.1 -3.1537659,-0.0196 -5.0091855,0.47761 -2.3013878,0.61668 -2.9980103,1.15604 -1.6872293,1.30635 0.4088095,0.0469 3.24360244,0.0117 6.2995398,-0.0781 3.9213536,-0.1153 5.6660723,-0.0764 5.9294856,0.13229 z m 13.9142636,-3.12111 c 1.164166,-0.88046 2.533385,-1.96677 3.042708,-2.41403 1.272643,-1.11756 4.279236,-2.91803 8.135937,-4.87212 1.78263,-0.90321 3.241146,-1.74128 3.241146,-1.86238 0,-0.34858 -0.811181,-0.13678 -1.07544,0.2808 -0.147422,0.23296 -0.24093,0.25847 -0.243425,0.0664 -0.0062,-0.47406 0.79456,-1.17161 1.116492,-0.97264 0.180397,0.11149 0.205983,0.0491 0.07008,-0.17074 -0.155484,-0.25158 -0.112374,-0.28296 0.157557,-0.11468 0.550003,0.34287 1.355715,0.42268 1.165853,0.11548 -0.09021,-0.14596 0.05137,-0.27293 0.314621,-0.28216 0.376586,-0.0132 0.348085,-0.0691 -0.133675,-0.26234 -0.336771,-0.13507 -0.538946,-0.36428 -0.449279,-0.50937 0.09424,-0.15248 -0.01023,-0.1973 -0.247585,-0.10622 -0.225839,0.0867 -0.410617,0.0295 -0.410617,-0.12702 0,-0.15652 -0.182093,-0.21471 -0.404651,-0.12931 -0.361226,0.13862 -0.361609,0.18742 -0.0036,0.45472 0.336219,0.25101 0.235654,0.3787 -0.621832,0.78953 -0.649629,0.31125 -1.00012,0.64919 -0.960449,0.92605 0.03436,0.23977 0.01101,0.28566 -0.05187,0.10197 -0.06289,-0.18368 -0.211918,-0.27366 -0.331177,-0.19995 -0.119259,0.0737 -0.287478,-0.0501 -0.37382,-0.27509 -0.08738,-0.2277 -0.04433,-0.33947 0.09709,-0.25207 0.305299,0.18869 1.591943,-0.60832 1.591943,-0.98612 0,-0.17333 -0.115659,-0.17706 -0.330729,-0.0106 -0.512976,0.39692 -1.307386,0.634 -1.122607,0.33502 0.08891,-0.14385 0.04259,-0.26155 -0.102934,-0.26155 -0.145521,0 -0.339369,0.121 -0.430773,0.2689 -0.0914,0.14789 -0.297257,0.18789 -0.457452,0.0889 -0.177277,-0.10956 -0.234931,-0.0332 -0.14732,0.19511 0.10535,0.27453 -0.08891,0.38101 -0.724511,0.3971 -0.477651,0.0121 -1.057974,0.21151 -1.289607,0.44314 -0.468023,0.46803 -0.567986,0.84551 -0.156567,0.59124 0.145521,-0.0899 0.264583,-0.0229 0.264583,0.14908 0,0.2315 0.09211,0.23615 0.355074,0.0179 0.361597,-0.3001 0.70326,-0.15092 0.70326,0.30706 0,0.14264 -0.37616,0.18326 -0.859896,0.0929 -0.802465,-0.14996 -0.825594,-0.13449 -0.346306,0.23151 0.282475,0.21572 0.384679,0.39221 0.227121,0.39221 -0.157559,0 -0.362292,0.3021 -0.454963,0.67133 -0.09267,0.36923 -0.313938,0.65278 -0.491704,0.63011 -0.714372,-0.0911 -1.008481,0.0344 -0.825573,0.3522 0.104679,0.1819 0.08842,0.23799 -0.03614,0.12464 -0.368192,-0.33508 -0.362923,-0.94017 0.01089,-1.2504 0.245138,-0.20345 0.399756,-0.2056 0.522341,-0.007 0.195831,0.31686 0.666732,0.1168 0.666732,-0.28326 0,-0.14331 -0.171961,-0.22558 -0.382135,-0.18283 -0.210174,0.0428 -0.537596,-0.11743 -0.727604,-0.35598 -0.29546,-0.37094 -0.477281,-0.38743 -1.256034,-0.11389 -0.702196,0.24664 -0.808151,0.35913 -0.463021,0.49156 0.246149,0.0945 0.447544,0.0676 0.447544,-0.0598 0,-0.12733 0.238125,-0.16923 0.529166,-0.0931 0.291042,0.0761 0.529167,0.25059 0.529167,0.38772 0,0.13714 -0.119062,0.17576 -0.264583,0.0858 -0.150654,-0.0931 -0.264584,0.13475 -0.264584,0.52917 0,0.46711 -0.107704,0.63813 -0.330729,0.52516 -0.181901,-0.0921 -0.131221,-0.003 0.112622,0.19761 0.411569,0.33896 0.406055,0.38842 -0.07691,0.69004 -0.286143,0.1787 -0.634479,0.25432 -0.77408,0.16804 -0.139602,-0.0863 -0.253821,0.0368 -0.253821,0.27345 0,0.30991 -0.148063,0.38332 -0.529167,0.26237 -0.31538,-0.1001 -0.529166,-0.0476 -0.529166,0.13007 0,0.16392 0.148828,0.21401 0.330729,0.11131 0.247148,-0.13954 0.244363,-0.0939 -0.01102,0.18061 -0.291076,0.31287 -0.383043,0.30882 -0.620271,-0.0273 -0.232802,-0.32988 -0.254073,-0.31865 -0.129578,0.0684 0.174654,0.54293 -0.351001,0.62207 -0.878678,0.13229 -0.225631,-0.20943 -0.293244,-0.21819 -0.18435,-0.0239 0.224484,0.40057 -0.08038,1.18821 -0.386642,0.99893 -0.130272,-0.0805 -0.238682,0.12853 -0.240911,0.46454 -0.0034,0.50627 -0.05296,0.54294 -0.289542,0.21405 -0.240976,-0.33499 -0.262266,-0.32468 -0.136544,0.0661 0.111297,0.34598 5.67e-4,0.46404 -0.438062,0.46707 -0.438723,0.003 -0.494564,0.0626 -0.221052,0.23583 0.269214,0.1705 0.1469,0.27988 -0.462693,0.41377 -0.455756,0.1001 -0.992592,0.41606 -1.192968,0.70214 -0.309436,0.44178 -0.387953,0.45856 -0.521191,0.11134 -0.0936,-0.24391 -0.01321,-0.4088 0.199303,-0.4088 0.195896,0 0.519581,-0.20145 0.7193,-0.44766 0.206866,-0.25503 0.228674,-0.36702 0.05068,-0.26027 -0.171846,0.10307 -0.381663,0.0754 -0.46626,-0.0615 -0.0846,-0.13688 0.0475,-0.28765 0.293554,-0.33504 0.410477,-0.0791 0.407244,-0.12629 -0.03921,-0.57274 -0.449565,-0.44956 -0.505391,-0.45295 -0.733929,-0.0446 -0.136044,0.2431 -0.189949,0.66151 -0.11979,0.9298 0.08882,0.33964 0.01462,0.44446 -0.244298,0.3451 -0.301052,-0.11552 -0.320541,-0.008 -0.102345,0.56619 0.339673,0.89341 0.348503,0.82223 -0.165807,1.33654 -0.354153,0.35416 -0.482142,0.37001 -0.686417,0.0851 -0.186287,-0.25988 -0.212651,-0.23078 -0.102147,0.11274 0.08192,0.25466 0.03362,0.46302 -0.107333,0.46302 -0.140953,0 -0.256279,0.12609 -0.256279,0.2802 0,0.3579 0.218699,0.22308 2.778125,-1.7126 z m 5.413718,0.95074 c 0.212649,-0.0466 1.449076,-0.13212 2.747615,-0.18997 2.850297,-0.127 3.376307,-0.3867 0.783233,-0.3867 -2.853481,0 -4.315094,0.25892 -4.310307,0.76356 0.0023,0.24609 0.08643,0.31494 0.198438,0.16248 0.106912,-0.14552 0.368372,-0.30274 0.581021,-0.34937 z m -16.129343,-0.94384 c 0,-0.35935 -1.864065,-3.98054 -2.6861855,-5.21827 -2.0489983,-3.08482 -6.9217725,-6.81578 -9.06990243,-6.94458 -0.34570216,-0.0207 -0.58638636,-0.106 -0.53485377,-0.18949 0.1474695,-0.23893 -2.1799584,-0.74776 -4.6423904,-1.01494 -2.5731525,-0.2792 -4.7471309,-0.10722 -4.9381812,0.39065 -0.071896,0.18736 0.1162445,0.89896 0.4180904,1.58133 1.6229984,3.66906 6.9067887,9.07293 8.15846118,8.34388 0.411483,-0.23967 0.39577818,-0.27038 -0.14195048,-0.27753 -0.5077061,-0.007 -0.5622112,-0.0873 -0.3400382,-0.50243 0.30910563,-0.57757 0.1286633,-0.85416 -0.4199078,-0.64365 -0.2463579,0.0945 -0.4408258,-0.0582 -0.5356164,-0.42068 -0.1167466,-0.44644 -0.2267751,-0.50442 -0.5104697,-0.26897 -0.1989047,0.16508 -0.2843358,0.43548 -0.189847,0.60089 0.094489,0.16541 0.069888,0.20801 -0.054669,0.0947 -0.9461211,-0.86101 0.605606,-1.7146 1.7947797,-0.98728 0.3999108,0.24459 0.64795766,0.52387 0.55121529,0.62061 -0.0967424,0.0967 -0.0185358,0.17589 0.17379246,0.17589 0.24679415,0 0.20877736,0.15571 -0.12920157,0.52917 -0.26338907,0.29104 -0.37113915,0.53828 -0.23944461,0.54941 0.13169454,0.0111 0.44780398,0.0601 0.70246542,0.10888 0.41357668,0.0792 0.60313524,-0.30006 0.49435305,-0.98902 -0.0172327,-0.10914 0.0877303,-0.19844 0.23325108,-0.19844 0.35100528,0 0.34086468,0.97996 -0.0123998,1.19829 -0.17894016,0.11059 -0.0884448,0.49074 0.25566016,1.07395 0.29295382,0.49652 0.41759622,0.90276 0.27698312,0.90276 -0.1406131,0 -0.25566012,-0.11906 -0.25566012,-0.26458 0,-0.14552 -0.12756696,-0.26458 -0.28348213,-0.26458 -0.15591517,0 -0.46207587,-0.1786 -0.6803571,-0.39688 -0.21828124,-0.21828 -0.53719864,-0.39367 -0.70870532,-0.38976 -0.17150669,0.004 0.10488838,0.3579 0.61421127,0.78664 0.7455963,0.62762 1.1838206,0.78259 2.2489582,0.79529 0.7276041,0.009 2.1545117,0.12286 3.1709057,0.25374 1.016394,0.13089 1.8808847,0.20508 1.9210904,0.16487 0.097481,-0.0975 -3.7581355,-2.76126 -6.47414735,-4.47287 -1.19674567,-0.75418 -2.69494875,-1.75134 -3.32934015,-2.21591 -0.7617776,-0.55785 -1.1534389,-0.71903 -1.1534389,-0.47466 0,0.20351 0.1194521,0.29618 0.2654491,0.20595 0.1571405,-0.0971 0.1978404,0.0121 0.09975,0.26775 -0.091135,0.23749 -0.051837,0.50218 0.087329,0.58819 0.1391654,0.086 0.2530279,0.0233 0.2530279,-0.13944 0,-0.16269 0.1210047,-0.22102 0.2688992,-0.12962 0.4110084,0.25402 0.01028,0.6987 -0.4896032,0.5433 -0.2424148,-0.0754 -0.619348,-0.0225 -0.8376292,0.11748 -0.3527778,0.22621 -0.3527778,0.25842 0,0.28989 0.2182812,0.0195 0.5754687,0.0183 0.7937499,-0.003 0.2956646,-0.0283 0.2773771,0.0354 -0.071711,0.2495 -0.2577221,0.15809 -0.3874615,0.42894 -0.2883098,0.6019 0.1038182,0.1811 0.078125,0.22096 -0.060581,0.094 -0.1324713,-0.12126 -0.23466,-0.29986 -0.2270861,-0.39687 0.00757,-0.097 -0.2305511,-0.38646 -0.5291666,-0.64322 -0.3709037,-0.31891 -0.4171847,-0.44466 -0.1460625,-0.39687 0.2182813,0.0385 0.3671094,-0.0789 0.3307292,-0.26078 -0.03638,-0.1819 0.038348,-0.33073 0.1660632,-0.33073 0.1277149,0 0.2018146,-0.35719 0.1646659,-0.79375 -0.037149,-0.43656 0.036951,-0.79375 0.164666,-0.79375 0.1277149,0 0.232209,-0.11831 0.232209,-0.26292 0,-0.36181 -0.9062593,-0.19234 -1.47191,0.27525 -0.4341192,0.35886 -0.4402965,0.34458 -0.092495,-0.2139 0.2049804,-0.32915 0.5157011,-0.54357 0.6904904,-0.4765 0.190597,0.0731 0.2589108,-0.0315 0.1706742,-0.26145 -0.080919,-0.21087 -0.00259,-0.3834 0.1740737,-0.3834 0.2027003,0 0.2503228,-0.17082 0.1290847,-0.46302 -0.1056624,-0.25466 -0.1977757,-0.61185 -0.2046963,-0.79375 -0.017718,-0.4657 -0.3822896,-0.41108 -0.6683775,0.10013 -0.1648511,0.29457 -0.2994809,0.33641 -0.4256371,0.13229 -0.1014861,-0.16421 -0.058431,-0.29856 0.095678,-0.29856 0.154109,0 0.2801982,-0.12609 0.2801982,-0.2802 0,-0.15411 -0.1055719,-0.21495 -0.2346042,-0.13521 -0.1290323,0.0797 -0.3969229,-0.062 -0.5953125,-0.31511 -0.3186379,-0.40644 -0.3115803,-0.4218 0.060511,-0.13167 0.2316705,0.18063 0.4830485,0.2666 0.5586178,0.19103 0.075569,-0.0756 0.4546771,-0.0168 0.8424617,0.13067 0.3877845,0.14743 0.969844,0.31611 1.2934653,0.37484 1.0771342,0.19546 6.2395491,2.31971 6.7254151,2.76739 0.2632154,0.24253 0.6569415,0.67909 0.8749469,0.97013 0.3773726,0.5038 0.3710567,0.51014 -0.1317544,0.13229 -0.2904703,-0.21828 -0.6867075,-0.54648 -0.8805271,-0.72933 -0.8823418,-0.83242 -2.1632198,-0.99991 -2.1632198,-0.28286 0,0.13976 -0.238125,0.17853 -0.52916662,0.0862 -0.32436027,-0.10295 -0.52916664,-0.0475 -0.52916664,0.14315 0,0.20624 -0.24523632,0.25096 -0.72760413,0.13267 -0.69807954,-0.17118 -0.7061317,-0.16195 -0.19843749,0.22749 0.60495173,0.46404 0.43246307,0.53282 -0.45057136,0.17968 -0.33426906,-0.13369 -0.84255016,-0.31868 -1.12951366,-0.41111 -0.4422976,-0.14246 -0.4624434,-0.20998 -0.1322916,-0.44336 0.3173545,-0.22434 0.3005321,-0.2465 -0.090862,-0.11972 -0.3672341,0.11895 -0.4465237,0.047 -0.3367692,-0.30577 0.078954,-0.25375 0.046464,-0.61582 -0.0722,-0.80461 -0.1695345,-0.26973 -0.2957672,-0.24468 -0.5892725,0.11693 -0.3145192,0.3875 -0.3151831,0.42504 -0.0042,0.23764 0.2894173,-0.17439 0.3343347,-0.0832 0.2076201,0.42171 -0.150851,0.60104 0.058201,0.75379 3.11669488,2.27726 3.37924422,1.68324 8.96671952,5.15951 9.66772352,6.01481 0.5888381,0.71845 2.9105191,1.59126 2.9105191,1.09419 z m -1.5875,-1.73371 c 0,-0.18558 -0.172262,-0.27088 -0.3834,-0.18986 -0.261295,0.10026 -0.334615,0.02 -0.230219,-0.25206 0.09979,-0.26005 -0.04324,-0.45055 -0.41035,-0.54655 -0.7722114,-0.20194 -0.7103261,-0.54867 0.09793,-0.54867 0.442288,0 0.661458,0.14684 0.661458,0.44317 0,0.24375 0.140891,0.58407 0.31309,0.75627 0.1722,0.1722 0.231731,0.39445 0.132292,0.49389 -0.09944,0.0994 -0.180799,0.0292 -0.180799,-0.15619 z m -8.7955594,-0.94417 c 0.060518,-0.31658 -0.087353,-0.77299 -0.3286021,-1.01423 -0.2412494,-0.24125 -0.3169845,-0.43864 -0.1683003,-0.43864 0.1486842,0 0.3655481,0.17014 0.4819196,0.37808 0.1949525,0.34836 0.3201467,0.41567 0.7731482,0.41567 0.090579,0 0.020797,0.17338 -0.1550696,0.38529 -0.175867,0.2119 -0.2552142,0.48971 -0.1763272,0.61736 0.078887,0.12764 -0.00962,0.23207 -0.1966854,0.23207 -0.2065921,0 -0.2969191,-0.22597 -0.2300832,-0.5756 z m 6.4040818,-0.74606 c 0.2759587,-1.22357 0.2728227,-1.20705 0.2975531,-1.56671 0.012508,-0.1819 0.1208439,-0.005 0.2407466,0.39331 0.2580253,0.85695 0.083434,1.7013 -0.3892987,1.8827 -0.253478,0.0973 -0.2908201,-0.0805 -0.149001,-0.7093 z M 5.73981,146.54912 c -0.3527778,-0.43673 -0.3527778,-0.46534 0,-0.25745 0.3423148,0.20172 0.3469544,0.17233 0.033749,-0.2138 -0.3077791,-0.37943 -0.3077791,-0.44828 0,-0.45171 0.2187148,-0.002 0.2579041,-0.0814 0.098543,-0.19844 -0.1455208,-0.10691 -0.2645833,-0.37298 -0.2645833,-0.59126 0,-0.24473 -0.2028592,-0.36899 -0.5291666,-0.32414 -0.4849166,0.0667 -0.4903016,0.0489 -0.064397,-0.21256 0.3738632,-0.2295 0.4098216,-0.39898 0.1838414,-0.86649 -0.2547672,-0.52706 -0.246054,-0.53807 0.093565,-0.11816 0.2059714,0.25466 0.4632429,0.46302 0.5717143,0.46302 0.4987314,0 1.854205,1.44116 1.778332,1.89075 -0.045527,0.26977 0.04377,0.4905 0.1984375,0.4905 0.154668,0 0.2812146,-0.11907 0.2812146,-0.26459 0,-0.14552 0.1025518,-0.26458 0.227893,-0.26458 0.1253412,0 0.1709925,0.29766 0.1014473,0.66146 -0.069545,0.3638 -0.172097,0.66146 -0.227893,0.66146 -0.1788436,0 -1.159317,-1.05104 -1.1723932,-1.25677 -0.018928,-0.2978 -0.8789824,-1.38907 -1.0947557,-1.38907 -0.1034117,0 -0.065952,0.35017 0.083244,0.77816 0.1491961,0.42798 0.2322994,1.04294 0.184674,1.36657 -0.083336,0.5663 -0.1015141,0.56995 -0.4834663,0.0971 z m -0.8769571,-0.94394 c -0.1217642,-0.46562 -0.2852563,-0.52954 -1.0230461,-0.39998 -0.4829669,0.0848 -0.6995279,0.0782 -0.4812467,-0.0146 0.5458753,-0.23224 0.7996914,-0.67716 0.5801777,-1.01699 -0.1008165,-0.15608 0.1409163,0.078 0.5371839,0.52029 0.3962677,0.44224 0.7236895,0.9529 0.7276041,1.1348 0.011083,0.515 -0.1804057,0.3894 -0.3406729,-0.22347 z m -3.8193968,-1.40749 c -0.92367258,-0.28402 -1.10046154,-0.60844 -0.46454049,-0.85247 0.21744543,-0.0834 0.33032408,-0.25693 0.25084145,-0.38554 -0.0794826,-0.1286 0.0395799,-0.16318 0.26458334,-0.0768 0.2250034,0.0863 0.337235,0.27326 0.2494034,0.41538 -0.2104873,0.34057 1.0283353,0.1653 1.2831607,-0.18155 0.1187162,-0.16159 0.1959631,-0.12976 0.1984375,0.0818 0.00223,0.19049 0.1032702,0.28502 0.2245376,0.21008 0.1212673,-0.075 0.2204861,0.0236 0.2204861,0.21908 0,0.19544 -0.1885156,0.32756 -0.4189236,0.2936 -0.230408,-0.034 -0.5379861,0.0738 -0.6835069,0.23957 -0.1880658,0.21419 -0.5132653,0.22487 -1.1244791,0.0369 z m 28.5344089,6.046 c 3.406696,-0.22999 4.366271,-0.68011 7.678503,-3.60181 2.303461,-2.03187 3.411912,-3.45478 3.230798,-4.14737 -0.08176,-0.31265 -0.256103,-0.56847 -0.387424,-0.56847 -0.131321,0 -0.169312,0.27673 -0.08442,0.61495 0.102699,0.40919 -0.0011,0.74117 -0.310332,0.99219 -0.25557,0.20748 -0.392844,0.25686 -0.305054,0.10974 0.08779,-0.14713 0.0062,-0.47732 -0.181324,-0.73377 -0.321106,-0.43914 -0.349087,-0.43512 -0.480934,0.0691 -0.077,0.29444 -0.299967,0.52593 -0.495491,0.51445 -0.269486,-0.0158 -0.27508,-0.0533 -0.02312,-0.15489 0.182808,-0.0737 0.2658,-0.24173 0.184427,-0.37339 -0.08137,-0.13167 -1.183443,0.45185 -2.449044,1.2967 -1.265602,0.84484 -3.015469,1.97289 -3.888594,2.50676 -0.873125,0.53386 -1.885156,1.21265 -2.248958,1.5084 l -0.661458,0.53773 0.79375,-0.27334 0.79375,-0.27335 -0.654061,0.51286 c -0.359734,0.28207 -0.747499,0.4551 -0.861702,0.38452 -0.114202,-0.0706 -0.552629,0.11733 -0.974283,0.41757 -0.421653,0.30024 -0.890064,0.5459 -1.040912,0.5459 -0.150849,0 -0.359225,0.13746 -0.463058,0.30546 -0.106642,0.17255 -0.07353,0.23423 0.07609,0.14176 0.14568,-0.09 1.384467,-0.23928 2.752859,-0.33166 z m -0.554723,-0.5916 c 0,-0.1163 0.406207,-0.16403 0.902682,-0.10607 0.496475,0.058 1.121553,-0.0219 1.389062,-0.17738 0.43064,-0.25035 0.435201,-0.28368 0.0398,-0.2908 -0.532025,-0.01 -0.550068,-0.97819 -0.01822,-0.97819 0.195403,0 0.293303,0.16151 0.217555,0.3589 -0.10666,0.27796 -0.02404,0.29806 0.366322,0.0891 0.277225,-0.14837 0.691264,-0.19792 0.920087,-0.11011 0.308254,0.11829 0.411224,-0.002 0.397446,-0.46397 -0.01672,-0.56073 -0.0388,-0.57202 -0.218942,-0.11201 -0.137726,0.35169 -0.260841,0.41372 -0.393894,0.19843 -0.106451,-0.17224 -0.112079,-0.44498 -0.01251,-0.60609 0.124236,-0.20102 -0.01614,-0.23222 -0.447406,-0.0994 -0.710357,0.21873 -0.66318,0.15477 0.355775,-0.48235 0.53286,-0.33318 0.683486,-0.35576 0.580348,-0.087 -0.08262,0.2153 0.08024,0.42039 0.400251,0.50408 0.463405,0.12118 0.501126,0.0693 0.267312,-0.36757 -0.38381,-0.71716 -0.09316,-1.05562 0.660446,-0.7691 0.343687,0.13067 0.693668,0.1688 0.777734,0.0847 0.08407,-0.0841 0.136678,0.27727 0.116914,0.80298 -0.03143,0.83594 -0.07765,0.89876 -0.368593,0.50088 -0.182963,-0.25022 -0.42177,-0.36583 -0.530681,-0.25692 -0.108912,0.10891 -0.05912,0.19802 0.110659,0.19802 0.169774,0 0.30868,0.1318 0.30868,0.29289 0,0.16399 -0.203786,0.22193 -0.463021,0.13165 -0.433703,-0.15104 -0.433313,-0.13814 0.0062,0.2038 0.440908,0.34305 0.432935,0.37454 -0.132292,0.52235 -0.841731,0.22011 -0.769628,0.19042 -1.788183,0.73634 -0.916693,0.49131 -3.443501,0.69881 -3.443501,0.28277 z m 8.879242,-4.58739 c -0.24599,-0.72189 -0.27593,-1.1712 -0.08185,-1.22825 0.532362,-0.15647 1.256771,-0.0273 1.256771,0.22409 0,0.16907 -0.238916,0.21118 -0.595312,0.10493 -0.558203,-0.16643 -0.56496,-0.1543 -0.1084,0.19453 0.440447,0.33651 0.447058,0.40509 0.06928,0.71862 -0.345401,0.28665 -0.438885,0.28425 -0.540489,-0.0139 z m -10.33445,-0.89821 c 2.285711,-1.46408 5.97934,-3.20191 8.997432,-4.23325 1.599849,-0.5467 3.117177,-1.10007 3.371838,-1.2297 0.34591,-0.17608 0.463021,-0.12901 0.463021,0.1861 0,0.25146 -0.12336,0.34556 -0.305464,0.23301 -0.180547,-0.11158 -0.233972,-0.0731 -0.130643,0.0941 0.09615,0.15558 0.03127,0.33072 -0.144179,0.3892 -0.197847,0.0659 -0.143011,0.17387 0.144385,0.28415 0.307273,0.11791 0.401525,0.0777 0.279767,-0.11928 -0.12639,-0.2045 0.07911,-0.25854 0.659366,-0.17337 0.463641,0.068 0.915668,0.006 1.004506,-0.13763 0.09493,-0.1536 0.0247,-0.17679 -0.170338,-0.0563 -0.260428,0.16095 -0.267223,0.0843 -0.03157,-0.35599 0.16516,-0.30861 0.429742,-0.5611 0.587961,-0.5611 0.188637,0 0.174279,0.13663 -0.04171,0.39688 -0.230252,0.27743 -0.239327,0.39687 -0.03016,0.39687 0.202875,0 0.219526,0.14909 0.05171,0.46302 -0.136131,0.25466 -0.314893,0.67893 -0.397248,0.94281 -0.08749,0.28036 -0.277488,0.40084 -0.45707,0.28985 -0.196757,-0.1216 -0.235701,-0.074 -0.108241,0.1322 0.111969,0.18117 -0.0045,0.54711 -0.266178,0.83625 -0.255898,0.28276 -0.401941,0.57744 -0.324539,0.65484 0.18906,0.18907 1.71508,-2.21326 2.091086,-3.29187 0.226704,-0.65032 0.224094,-0.93694 -0.01067,-1.17162 -0.446122,-0.44596 -4.623955,-0.30984 -6.527156,0.21267 -0.85919,0.23588 -1.740757,0.4734 -1.959039,0.52783 -0.218281,0.0544 -0.456406,0.12619 -0.529166,0.15949 -0.07276,0.0333 -0.264862,0.074 -0.426893,0.0904 -0.713541,0.0723 -2.97783,1.31941 -2.829951,1.55868 0.09228,0.14932 0.03066,0.18256 -0.14135,0.0762 -0.777363,-0.48044 -6.212269,3.79665 -7.039454,5.53982 -0.721302,1.52003 -0.203782,1.55243 1.396133,0.0874 0.82549,-0.75589 2.096203,-1.75567 2.823807,-2.22173 z m -0.926042,1.68421 c 0,-0.16978 0.07834,-0.23034 0.174094,-0.13459 0.200297,0.2003 0.88424,-0.3005 0.88424,-0.64746 0,-0.41954 -0.667149,-0.2427 -1.131824,0.3 -0.521833,0.60946 -0.56564,0.79073 -0.191093,0.79073 0.145521,0 0.264583,-0.13891 0.264583,-0.30868 z m 5.176887,-2.80018 c -0.03738,-0.25466 -0.205435,-0.45111 -0.373464,-0.43656 -0.883132,0.0765 -0.941307,0.14207 -0.453374,0.51112 0.676203,0.51146 0.909755,0.4904 0.826838,-0.0746 z M 0.18305522,142.05894 c 0.19718973,-0.23759 0.59826583,-0.34741 1.00167438,-0.27426 0.7976608,0.14464 0.4690578,-0.24363 -0.43899046,-0.5187 -0.40303178,-0.12209 -0.56857412,-0.0935 -0.46152544,0.0797 0.10628344,0.17197 -0.14599662,0.22129 -0.69447052,0.13577 -0.47376513,-0.0739 -0.76217238,-0.0338 -0.64090508,0.089 0.12126738,0.12282 0.32962674,0.23819 0.46302083,0.25638 0.589641,0.0804 0.6171677,0.12169 0.24253471,0.3638 -0.21828124,0.14106 -0.26262543,0.2583 -0.0985427,0.26053 0.16408278,0.002 0.44632469,-0.17427 0.62720428,-0.39222 z M 9.1136085,122.73261 c 1.6373075,-0.0185 3.0443805,-0.10113 3.1268285,-0.18358 0.207643,-0.20764 -1.194263,-4.12392 -1.829337,-5.11032 -1.3075411,-2.03089 -4.2836069,-3.18592 -7.6196982,-2.95726 -2.20546905,0.15116 -4.2875973,0.96364 -4.7674952,1.86033 -0.3173956,0.59306 -0.4673281,0.44122 1.63048704,1.6513 1.00046789,0.57711 2.54978046,1.85686 3.70416646,3.05969 1.3700149,1.42752 2.1072469,2.01284 2.3812499,1.89059 0.2182812,-0.0974 1.7364905,-0.19223 3.3737985,-0.21075 z"
         id="path23774" />
      <path
         style="fill:#1b4523;stroke-width:1.28759"
         d="m -2.5945646,162.28093 c -3.9921634,-0.54042 -9.0358734,-2.27314 -10.5160644,-3.61269 -0.626394,-0.56688 -0.586272,-1.8034 0.08014,-2.46981 0.737089,-0.73709 4.0002126,-2.83122 5.1794227,-3.32392 0.5253872,-0.21952 1.4460846,-0.70898 2.0459942,-1.08769 0.5999097,-0.3787 1.2700356,-0.68382 1.4891689,-0.67803 0.2191332,0.006 0.9592304,-0.12794 1.6446604,-0.29718 l 1.2462364,-0.30772 -2.6012194,-2.14323 c -2.7304952,-2.24975 -4.3785156,-4.27618 -5.9864632,-7.36106 -2.078753,-3.98813 -0.577143,-5.1926 5.7384442,-4.60292 5.0961918,0.47583 9.489133,2.38327 12.716122,5.52142 0.8421973,0.81901 1.5312679,1.3911 1.5312679,1.27129 0,-0.57514 -3.7078025,-15.84113 -4.0414246,-16.6396 -0.9289028,-2.22317 -5.74724988,-6.8182 -8.309235,-7.92412 -1.5555319,-0.67147 -1.822954,-1.28576 -1.1862976,-2.72503 0.5954322,-1.34607 1.7593936,-2.01755 4.673416,-2.69606 1.8298861,-0.42607 2.7354028,-0.41047 5.9531247,0.10257 l 1.4552082,0.23202 1.9345442,-1.61542 c 2.799452,-2.33764 5.031329,-3.86437 5.649205,-3.86437 0.880862,0 2.151246,0.72621 3.950251,2.25816 0.932341,0.79394 2.171416,1.68211 2.753499,1.97372 0.62768,0.31445 0.857995,0.53029 0.566001,0.53041 -0.435253,1.8e-4 -0.419915,0.0605 0.132292,0.52057 l 0.624624,0.52037 -0.955266,0.009 c -1.02819,0.009 -2.079864,-0.5981 -4.336401,-2.50522 -2.406291,-2.0337 -2.898138,-2.04927 -5.159374,-0.16333 -0.654844,0.54616 -1.940199,1.51832 -2.856345,2.16037 l -1.6657201,1.16735 0.7094097,0.51677 c 0.7348784,0.53532 1.9605714,2.95316 1.9605714,3.86749 0,0.28689 0.103589,0.52162 0.230198,0.52162 0.126609,0 0.383209,0.56555 0.570223,1.25677 0.187013,0.69123 0.425095,1.37584 0.52907,1.52136 0.103976,0.14552 0.330895,0.70511 0.504266,1.24354 0.313487,0.97359 1.861075,2.59412 2.474929,2.59159 0.235444,-9.7e-4 0.324773,-0.93954 0.333666,-3.50573 0.01191,-3.43844 0.19502,-4.95961 0.596996,-4.95961 0.233522,0 0.846276,4.82664 0.846152,6.66511 -4.6e-5,0.68264 0.10076,1.30348 0.224012,1.37966 0.409764,0.25324 1.569484,-1.27541 2.289379,-3.01769 0.737972,-1.78603 1.430974,-2.81727 1.066808,-1.5875 -0.107731,0.3638 -0.253858,1.02992 -0.324727,1.48026 -0.1203,0.76444 -0.07895,0.8144 0.6229,0.75264 0.413464,-0.0364 1.819539,-0.14777 3.124611,-0.24752 l 2.372858,-0.18136 1.992767,-1.78177 c 2.193697,-1.96142 3.917743,-3.18377 5.233912,-3.71084 0.978691,-0.39193 1.010075,-0.47717 0.46316,-1.258 -1.103276,-1.57515 -6.740302,-2.28013 -9.275989,-1.16009 -1.35904,0.60031 -3.027275,2.00961 -3.027275,2.5574 0,0.17361 -0.234163,0.59674 -0.520364,0.94028 l -0.520364,0.62463 -0.0088,-0.73611 c -0.01427,-1.19348 0.628796,-2.36386 1.95982,-3.56685 1.100582,-0.99472 1.456506,-1.15485 3.013127,-1.3556 1.032177,-0.13311 1.435529,-0.25528 0.971375,-0.29422 -0.67022,-0.0562 -0.608455,-0.0982 0.396875,-0.26961 1.514158,-0.25819 4.590919,0.29537 6.50029,1.16951 1.559165,0.71381 2.492882,1.89333 2.494554,3.15124 8.8e-4,0.66247 -0.194553,0.83286 -1.779574,1.55154 -2.10032,0.95233 -4.23346,2.58206 -5.908681,4.51425 -1.994106,2.3 -2.335777,2.89749 -2.76297,4.83168 -1.216533,5.50807 -2.073573,9.54649 -2.526762,11.90625 -0.279471,1.45521 -0.587642,3.00302 -0.684823,3.43958 -0.165894,0.74523 -0.064,0.68863 1.666893,-0.92604 4.11341,-3.8372 9.856169,-6.07731 15.595444,-6.08342 3.035798,-0.003 4.081778,0.58696 4.068657,2.29571 -0.01499,1.95248 -3.569128,6.91206 -6.928492,9.6683 -1.876487,1.53959 -2.249294,1.9572 -1.871687,2.09662 0.259339,0.0957 1.304963,0.4298 2.323609,0.74235 4.418873,1.35581 9.657291,4.73878 9.657291,6.23668 0,1.42119 -4.29878,3.61318 -8.893043,4.53466 -2.851681,0.57197 -10.15999,0.65582 -12.854309,0.14748 -1.918838,-0.36203 -5.007744,-1.33659 -7.416874,-2.34007 -1.689849,-0.70387 -1.11109,-0.79814 -5.706006,0.92946 -1.206805,0.45374 -3.2903991,0.99842 -4.6302081,1.21041 -3.2180493,0.50917 -8.59283151,0.70022 -10.9026825,0.38754 z m 41.7830426,-2.1067 c 3.153908,-0.60864 4.47432,-1.05886 6.175007,-2.10546 l 1.126801,-0.69344 -0.729926,-0.67409 c -2.641749,-2.43965 -8.030156,-4.67613 -12.239301,-5.07998 -1.454268,-0.13953 -5.630721,0.25935 -6.828197,0.65214 -1.515478,0.49709 -8.245938,5.09379 -7.926308,5.41342 0.04194,0.0419 1.205968,-0.2183 2.586733,-0.5783 3.953797,-1.03085 10.412571,-1.33718 13.887563,-0.65867 l 1.058333,0.20665 -0.926041,0.1633 c -0.509323,0.0898 -2.890573,0.29419 -5.291667,0.45415 -4.725517,0.31481 -7.839963,0.66701 -9.921874,1.12201 l -1.322917,0.28913 1.190625,0.36005 c 2.076679,0.628 5.883798,1.42745 7.9375,1.66676 2.899999,0.33794 7.93666,0.0967 11.223669,-0.53767 z m -27.827052,-0.52442 c 2.146004,-0.5075 3.902175,-0.99653 3.902604,-1.08674 0.0023,-0.48781 -6.643498,-1.24637 -11.5085949,-1.31359 -3.2386459,-0.0447 -4.8683719,-0.28187 -3.9687498,-0.57744 3.2645799,-1.07257 9.9773324,-0.89506 14.0807177,0.37235 0.94222,0.29102 1.790918,0.44955 1.885996,0.35229 0.35661,-0.36479 -2.390951,-2.46917 -4.768992,-3.65261 -3.267051,-1.62587 -5.9535915,-2.16082 -9.7397222,-1.93943 -1.52950387,0.0894 -3.4952911,0.34769 -4.368416,0.5739 -2.9346864,0.76031 -8.7091638,4.0063 -9.0654938,5.09597 -0.132168,0.40417 2.2691742,1.51154 4.5487875,2.09766 3.474821,0.89342 5.5898963,1.10926 10.3375393,1.0549 4.4131437,-0.0505 5.0487205,-0.12221 8.6643242,-0.97726 z m 6.385231,-4.3495 c -0.0756,-0.19701 0.101462,-0.93533 0.393473,-1.64071 0.292011,-0.70538 1.080096,-2.71126 1.751299,-4.45751 0.671204,-1.74625 1.320374,-3.36065 1.4426,-3.58756 0.221044,-0.41035 0.74048,-2.78704 1.326567,-6.06974 1.077573,-6.03553 3.069809,-14.44808 3.481859,-14.70274 0.483484,-0.29881 0.205986,-0.62453 -0.672481,-0.78933 -2.194258,-0.41164 -5.565421,1.13912 -7.165888,3.29637 -0.434675,0.58589 -0.94833,1.12862 -1.141454,1.20605 -0.202285,0.0811 -1.099569,-0.61836 -2.116667,-1.65003 -2.068469,-2.09809 -3.80753,-3.03253 -5.9327177,-3.18778 -1.0633308,-0.0777 -1.5213541,-0.22105 -1.5213541,-0.47621 0,-0.48001 -0.3816751,-0.46472 -0.7937499,0.0318 -0.2721873,0.32797 -0.2460622,0.39687 0.1504645,0.39687 0.4488534,0 0.4506158,0.0214 0.02729,0.33092 -0.4252692,0.31096 -0.4222695,0.39031 0.049758,1.31616 0.2762704,0.54189 0.8201341,2.32775 1.2085859,3.96857 0.3884519,1.64082 0.8747936,3.69769 1.0807595,4.57081 2.7622848,11.70981 3.1762958,12.97419 6.7737738,20.68698 0.419944,0.90033 0.767496,1.7933 0.772337,1.98437 0.0051,0.20099 0.22252,0.0911 0.515901,-0.26084 0.278904,-0.33453 0.445244,-0.76943 0.369644,-0.96645 z m 2.179172,-9.95377 c -0.260583,-0.44113 -0.40762,-0.97449 -0.326749,-1.18524 0.08087,-0.21074 0.05373,-0.38317 -0.06031,-0.38317 -0.114042,0 -0.47603,-0.80367 -0.804417,-1.78594 -0.328388,-0.98227 -0.71428,-2.00339 -0.857539,-2.26916 -0.385531,-0.71524 -0.602388,-2.99126 -0.302654,-3.17651 0.141854,-0.0877 0.402515,0.32323 0.579247,0.91311 0.176732,0.58988 0.849254,2.39435 1.494493,4.00994 1.170875,2.93172 1.348657,3.73933 0.958389,4.35369 -0.143695,0.2262 -0.35104,0.0809 -0.680458,-0.47672 z m 1.908042,7.36127 c 0.677386,-0.47294 2.06092,-1.56306 3.07452,-2.42248 1.0136,-0.85942 2.819534,-2.19262 4.013188,-2.96266 2.606473,-1.68145 9.364209,-5.11088 8.84987,-4.49114 -0.200106,0.24112 -1.922915,1.40191 -3.828464,2.57954 -1.905549,1.17763 -4.059947,2.56464 -4.787551,3.08225 -0.727604,0.51761 -1.739636,1.2302 -2.248958,1.58353 l -0.926042,0.64243 1.455208,-0.15736 c 0.800365,-0.0865 2.348177,-0.23729 3.439583,-0.33501 1.68143,-0.15053 2.233078,-0.33446 3.613449,-1.20475 3.393691,-2.13965 9.197696,-9.2487 8.671144,-10.62088 -0.485764,-1.26588 -6.167316,-0.7891 -10.669393,0.89534 -3.508192,1.31258 -8.289492,4.94519 -9.448458,7.17849 -0.544849,1.04992 -2.750074,6.56113 -2.750074,6.87289 0,0.36439 0.254469,0.25874 1.541978,-0.64019 z m -10.256955,-3.97523 c -2.196917,-4.60027 -6.1680239,-8.32053 -10.366798,-9.71195 -2.6651655,-0.88321 -5.1275069,-1.32822 -7.327709,-1.32431 -3.5805567,0.006 -3.850129,0.33958 -2.4413552,3.0177 1.5955458,3.03318 3.7407348,5.39228 7.2070696,7.92573 1.63432372,1.19448 2.23650616,1.48838 3.0496493,1.48838 1.1630969,0 5.2389213,0.47486 6.0264122,0.70212 0.7143143,0.20614 -3.021996,-2.47656 -6.0326917,-4.33152 -2.9820827,-1.83733 -5.0473948,-3.34877 -4.7234843,-3.45674 0.7956258,-0.26521 11.2169347,5.79473 12.7593596,7.41951 0.6612285,0.69653 2.9632975,1.63365 3.1013035,1.26247 0.04257,-0.1145 -0.520718,-1.46063 -1.251756,-2.99139 z M 6.1725871,123.00997 c 0.8293402,-0.43253 3.2499285,-0.50754 5.0630249,-0.15689 0.621597,0.12022 1.176509,0.14361 1.233138,0.052 0.128003,-0.20711 -1.220324,-4.13368 -1.813014,-5.27981 -0.570123,-1.1025 -2.2841668,-2.32723 -3.9489129,-2.8216 -2.766719,-0.82163 -6.8839413,-0.28877 -8.4050357,1.08781 -0.7410365,0.67062 -0.613604,1.09477 0.4995334,1.66265 1.68264019,0.85842 4.098408,2.83574 5.3509893,4.37981 0.6548437,0.80723 1.2067809,1.46851 1.226527,1.46949 0.019746,9.9e-4 0.3769337,-0.17606 0.79375,-0.39344 z"
         id="path23764" />
      <path
         style="fill:#182e1f;stroke-width:1.28759"
         d="m 12.285796,124.62923 c -1.213665,-0.74623 -1.546304,-1.05475 -0.84938,-0.7878 0.673222,0.25787 2.387643,1.41842 2.079378,1.40761 -0.129448,-0.005 -0.682947,-0.28346 -1.229998,-0.61981 z"
         id="path23745" />
      <path
         style="fill:#182e1f;stroke-width:1.28759"
         d="m 16.499532,127.46216 c -0.271304,-0.27131 -0.208978,-1.14653 0.08165,-1.14653 0.165952,0 0.168236,-0.23619 0.0064,-0.66185 -0.248979,-0.65486 -0.113228,-6.4158 0.173826,-7.37676 0.232128,-0.77708 0.611968,0.0247 0.611968,1.29173 0,0.7778 -0.06769,0.95313 -0.255343,0.66146 -0.254274,-0.39521 -0.210014,1.25061 0.144039,5.35612 0.139403,1.61648 0.110853,1.76774 -0.30364,1.60869 -0.311082,-0.11938 -0.39628,-0.0765 -0.2662,0.13398 0.20779,0.33621 0.09104,0.41689 -0.192697,0.13316 z"
         id="path23744" />
      <path
         style="fill:#182e1f;stroke-width:1.28759"
         d="m 16.376059,128.37938 c -0.174625,-0.17463 -0.315676,-0.44252 -0.313448,-0.59531 0.0022,-0.1528 0.101044,-0.12496 0.219591,0.0619 0.311299,0.49061 1.076809,0.10653 1.262532,-0.63345 0.08728,-0.34776 0.317351,-0.63228 0.511268,-0.63228 0.193918,0 0.437753,-0.13782 0.541857,-0.30626 0.127454,-0.20622 0.01732,-0.26129 -0.337162,-0.16859 -0.626717,0.16389 -0.614141,0.2149 -0.730892,-2.96473 l -0.09229,-2.51354 0.268851,2.57968 c 0.270408,2.59462 0.472309,2.95412 1.263082,2.24896 0.315522,-0.28136 0.318586,-0.26161 0.02052,0.13229 -0.401983,0.53124 -0.04157,0.62649 0.500595,0.1323 0.199558,-0.18191 -0.279366,0.41341 -1.064276,1.32291 -0.78491,0.90951 -1.495872,1.65365 -1.579917,1.65365 -0.08404,0 -0.295683,-0.14288 -0.470308,-0.3175 z"
         id="path23743" />
      <path
         style="fill:#182e1f;stroke-width:1.28759"
         d="m -2.5945646,162.26341 c -3.8967482,-0.49064 -9.0215954,-2.24269 -10.5160644,-3.59517 -0.60582,-0.54826 -0.593265,-1.79641 0.02428,-2.41395 0.889583,-0.88959 2.889002,-2.14621 5.383457,-3.38347 1.3543713,-0.67177 2.4999512,-1.31888 2.5457332,-1.43802 0.045782,-0.11914 0.2243757,-0.16501 0.3968749,-0.10193 0.1724993,0.0631 1.0031061,-0.10109 1.8457928,-0.3648 l 1.5321577,-0.47947 -2.4368784,-1.96518 c -2.7026242,-2.17947 -4.7365186,-4.65319 -6.2056232,-7.54755 -1.20006,-2.36431 -1.135994,-3.53727 0.2322395,-4.25199 1.7697639,-0.92446 8.2568407,-0.34272 11.5957178,1.03986 3.4272682,1.41919 6.8159675,3.80597 7.963714,5.60912 0.3126217,0.49114 0.4570977,0.59817 0.3711807,0.27498 -0.07737,-0.29105 -0.9785732,-4.09119 -2.0026735,-8.44477 -1.0241002,-4.35358 -2.1162926,-8.4409 -2.4270942,-9.08293 -0.9047149,-1.86889 -5.32268655,-6.11884 -7.4440996,-7.16099 -0.9809651,-0.4819 -1.9041422,-1.10147 -2.0515048,-1.37682 -0.407544,-0.7615 0.3976405,-2.516 1.4543818,-3.1691 1.0174372,-0.62881 4.6193578,-1.60039 5.8000017,-1.56449 0.5021473,0.0153 0.1146438,0.16452 -1.0043978,0.38684 -2.69687917,0.53579 -2.67049135,0.59341 0.2450756,0.53508 1.4610413,-0.0292 2.83026,-0.15801 3.0427082,-0.28617 0.3331637,-0.20099 0.3356545,-0.17064 0.018117,0.2207 -0.322154,0.39703 -0.3134685,0.43273 0.069515,0.28577 0.2407174,-0.0924 0.6147455,-0.021 0.8311736,0.15863 0.3910828,0.32457 0.4274773,0.30004 0.494789,-0.33352 0.019326,-0.1819 0.3456977,-0.33073 0.725271,-0.33073 0.4724223,0 1.499693,-0.66773 3.256399,-2.11667 4.582774,-3.77989 5.230702,-3.94719 7.691004,-1.98589 0.727604,0.58003 1.893512,1.4873 2.590906,2.01615 0.697394,0.52885 1.206287,1.02324 1.130873,1.09866 -0.07541,0.0754 -0.321464,-0.0159 -0.546779,-0.20288 -0.505869,-0.41983 -0.848037,-0.14674 -0.436874,0.34868 0.164995,0.19881 0.211728,0.45544 0.103849,0.5703 -0.107878,0.11485 0.07041,0.0463 0.396186,-0.15227 0.527725,-0.32172 0.656781,-0.29665 1.183276,0.22984 l 0.590947,0.59095 -0.654108,-0.004 c -0.877486,-0.005 -1.995552,-0.6186 -1.90006,-1.04238 0.0453,-0.20104 -0.07829,-0.28198 -0.300421,-0.19674 -0.219314,0.0842 -1.082729,-0.45776 -2.061341,-1.29379 -1.865075,-1.59333 -2.553808,-1.88681 -3.38457,-1.4422 -0.307603,0.16462 -0.67883,0.22543 -0.824949,0.13512 -0.146119,-0.0903 -0.232955,-0.043 -0.192969,0.10504 0.03999,0.14807 -1.042404,1.11946 -2.40531,2.15863 -1.780428,1.35752 -2.5587719,1.80865 -2.7648957,1.60252 -0.2061239,-0.20612 -0.160264,-0.28688 0.1629071,-0.28688 0.2473854,0 0.4497916,-0.1357 0.4497916,-0.30156 0,-0.16586 0.208359,-0.45973 0.463021,-0.65305 0.254661,-0.19331 0.378898,-0.35527 0.276081,-0.35989 -0.102817,-0.005 -0.69813,0.46536 -1.3229169,1.04442 -0.74386,0.68943 -1.2958023,1.00292 -1.5989975,0.90822 -0.2546614,-0.0795 -0.4630208,-0.0303 -0.4630208,0.10947 0,0.32354 0.764375,0.62469 1.0840785,0.4271 0.1334165,-0.0824 0.3089552,0.0231 0.390086,0.23449 0.081131,0.21142 0.3481804,0.35512 0.5934438,0.31933 0.2452633,-0.0358 0.2956474,-0.0136 0.1119648,0.0493 -0.1836826,0.0629 -0.2790664,0.20317 -0.2119639,0.31175 0.067103,0.10857 -0.4374554,-0.0784 -1.1212398,-0.41557 -2.3172768,-1.14252 -5.2972179,-1.31001 -8.199825,-0.46089 -0.43924083,0.12849 -0.58522434,0.0769 -0.52916664,-0.18709 0.10392773,-0.48938 -1.14613746,-0.35466 -1.53624676,0.16557 -0.1599095,0.21324 -0.3682688,0.31019 -0.4630208,0.21544 -0.1621796,-0.16218 -0.2804637,0.31532 -0.1970531,0.79548 0.020838,0.11995 -0.071649,0.1504 -0.2055268,0.0677 -0.1338779,-0.0827 -0.3154216,0.0372 -0.4034304,0.26656 -0.2485323,0.64766 -0.1884174,1.74541 0.086285,1.57564 0.1354656,-0.0837 0.3164263,-0.0388 0.402135,0.0999 0.2294297,0.37123 1.7328138,1.07696 1.7328138,0.81344 0,-0.12397 -0.1785938,-0.404 -0.396875,-0.62228 -0.7101741,-0.71017 -0.4222468,-0.72103 0.93135308,-0.0351 1.53050664,0.77556 7.66760482,6.76624 7.66760482,7.48467 0,0.64005 -0.4255139,0.5048 -0.8413354,-0.26742 -0.4700365,-0.8729 -0.5031435,-0.54637 -0.094116,0.92825 0.1913709,0.68993 0.2369873,0.71113 0.6758072,0.314 0.4420777,-0.40007 0.4954759,-0.34873 0.8815042,0.84763 0.5544356,1.71828 1.0198433,3.97407 1.0627096,5.15084 0.019372,0.53181 0.1070286,0.92255 0.1947923,0.86831 0.087764,-0.0542 0.4277481,1.05845 0.7555208,2.47266 0.8358779,3.60647 2.0536829,8.43675 2.4826969,9.84732 0.199165,0.65484 0.309889,1.33945 0.246054,1.52135 -0.06384,0.18191 0.01995,0.33073 0.186183,0.33073 0.166235,0 0.228662,0.11907 0.138725,0.26459 -0.08994,0.14552 -0.06135,0.26458 0.06353,0.26458 0.305768,0 0.935809,1.78402 0.741228,2.09886 -0.08493,0.13743 0.05644,0.37263 0.314161,0.52267 0.285691,0.16632 0.333403,0.27594 0.122242,0.28084 -0.190489,0.004 -0.271559,0.12905 -0.180155,0.27695 0.0914,0.14789 0.264548,0.20811 0.384765,0.13381 0.289501,-0.17892 0.58858,0.6253 0.366295,0.98496 -0.09769,0.15807 -0.04977,0.20479 0.109232,0.10652 0.172838,-0.10682 0.502688,0.47031 0.84614,1.48048 0.309583,0.91054 0.776859,2.05746 1.038391,2.54871 l 0.475512,0.89317 0.534919,-0.89317 c 0.294206,-0.49125 0.73971,-1.54802 0.990009,-2.34838 0.250299,-0.80037 0.578218,-1.8124 0.728709,-2.24896 1.094292,-3.17446 1.196554,-3.40293 1.358523,-3.0351 0.09428,0.2141 0.106382,0.12587 0.0269,-0.19605 -0.07948,-0.32193 -0.0017,-0.85222 0.172911,-1.17842 0.495231,-0.92535 0.997362,-2.95529 1.69078,-6.83522 0.68704,-3.84425 1.600485,-8.23683 2.50048,-12.02432 0.684836,-2.88203 1.456876,-4.52059 2.154733,-4.57315 0.626713,-0.0472 0.627407,-0.0234 0.01977,0.67717 -0.269435,0.31066 -0.567091,0.48763 -0.661458,0.39326 -0.09437,-0.0944 -0.171577,0.0864 -0.171577,0.40169 0,0.3153 -0.119063,0.57326 -0.264583,0.57326 -0.145521,0 -0.264584,0.1786 -0.264584,0.39688 0,0.21828 0.0893,0.39149 0.198438,0.38491 0.213106,-0.0128 2.170975,-2.96766 2.514504,-3.79489 0.175761,-0.42323 0.146504,-0.44897 -0.191496,-0.16845 -0.219424,0.1821 -0.33879,0.42844 -0.265258,0.54742 0.07353,0.11898 0.01269,0.29111 -0.135205,0.38251 -0.154254,0.0953 -0.268899,-0.11076 -0.268899,-0.4834 0,-0.94182 3.76536,-4.40977 5.962208,-5.49127 0.940889,-0.4632 1.710708,-0.92884 1.710708,-1.03476 0,-0.10592 -0.2316,-0.48701 -0.514667,-0.84687 -0.793179,-1.00837 -4.11551,-1.90835 -6.352461,-1.72081 -2.659594,0.22297 -5.202146,1.57478 -5.834837,3.10223 -0.247787,0.59821 -0.402316,0.72898 -0.562645,0.47613 -0.296729,-0.46795 -0.287257,-0.81261 0.01716,-0.62447 0.135465,0.0837 0.329313,0.0179 0.430772,-0.14625 0.101459,-0.16417 0.04452,-0.38498 -0.126534,-0.4907 -0.226585,-0.14003 -0.198232,-0.2858 0.104452,-0.537 0.357391,-0.29661 0.390448,-0.27486 0.236529,0.15564 -0.168421,0.47106 -0.147433,0.46938 0.357441,-0.0287 0.414667,-0.4091 0.468899,-0.61573 0.239016,-0.91068 -0.223611,-0.28691 -0.219868,-0.33505 0.01509,-0.19413 0.171846,0.10307 0.387232,0.0664 0.478636,-0.0815 0.0914,-0.14789 0.300981,-0.2689 0.465727,-0.2689 0.164746,0 0.06842,0.17481 -0.214052,0.38846 -0.59439,0.44958 -0.32089,0.53318 0.429845,0.1314 0.637828,-0.34136 0.665141,-0.7831 0.04875,-0.78849 -0.384092,-0.003 -0.397521,-0.0455 -0.07878,-0.24713 0.211333,-0.13369 0.479224,-0.18437 0.595312,-0.11262 0.116089,0.0717 0.211071,-0.01 0.211071,-0.18061 0,-0.18087 0.221631,-0.2531 0.529531,-0.17258 0.325661,0.0852 0.46428,0.0329 0.360046,-0.13576 -0.09641,-0.156 -0.01101,-0.21666 0.198073,-0.14069 0.202157,0.0734 0.339221,0.2632 0.304586,0.42168 -0.03463,0.15847 0.09138,0.2289 0.280026,0.15651 0.561878,-0.21561 4.390153,-0.26315 4.057688,-0.0504 -0.179915,0.11514 -0.03345,0.20137 0.355466,0.20929 1.783804,0.0363 2.38125,0.1504 2.38125,0.45479 0,0.1819 0.238125,0.33073 0.529166,0.33073 0.291042,0 0.53099,0.14882 0.533219,0.33072 0.0031,0.25476 0.05407,0.25188 0.221792,-0.0125 0.308338,-0.48607 0.874725,0.24213 0.995567,1.28001 0.08178,0.70234 -0.0012,0.81681 -0.692247,0.95501 -0.431837,0.0864 -0.721376,0.26024 -0.643419,0.38638 0.07796,0.12613 -0.03954,0.15977 -0.261099,0.0747 -0.445745,-0.17105 -1.828391,0.77912 -1.545457,1.06206 0.09785,0.0978 -0.08478,0.2466 -0.405847,0.33056 -0.321067,0.084 -0.583758,0.25528 -0.583758,0.38071 0,0.12543 0.297656,0.0924 0.661458,-0.0733 0.363802,-0.16576 0.661458,-0.40133 0.661458,-0.52349 0,-0.12216 0.178594,-0.22211 0.396875,-0.22211 0.218281,0 0.398698,-0.20836 0.400927,-0.46303 0.003,-0.34741 0.05885,-0.37662 0.223511,-0.11698 0.177435,0.27977 0.397819,0.26098 1.150873,-0.0981 0.852695,-0.40662 0.927547,-0.53395 0.885679,-1.50657 -0.03459,-0.80347 -0.227383,-1.21866 -0.791009,-1.70347 -0.409901,-0.35258 -0.915221,-0.57585 -1.122932,-0.49614 -0.207712,0.0797 -0.308414,0.0329 -0.223783,-0.10405 0.198345,-0.32093 -2.062249,-0.99122 -4.133136,-1.22551 -0.99488,-0.11256 -1.471351,-0.26195 -1.243018,-0.38973 0.535578,-0.29973 4.00087,0.42132 5.647263,1.17507 1.557272,0.71294 2.193957,1.47802 2.427472,2.91701 l 0.154953,0.95486 -1.815317,0.82311 c -2.777541,1.25939 -5.555166,3.67745 -7.71449,6.71585 -0.674444,0.94901 -1.696083,5.16973 -3.522381,14.55208 -0.28326,1.45521 -0.593115,3.00241 -0.688567,3.43824 -0.163421,0.74616 -0.06486,0.69211 1.68888,-0.92605 4.181657,-3.85837 9.885566,-6.08407 15.591967,-6.08407 5.127827,0 5.364733,2.19531 0.877607,8.13241 -1.230267,1.62781 -2.714571,3.06466 -4.987913,4.82842 -1.312408,1.01823 -1.432929,0.88224 1.618717,1.8265 4.491858,1.3899 9.729905,4.75689 9.729905,6.25433 0,1.25411 -3.395071,3.16506 -7.470276,4.20472 -4.109165,1.04833 -10.786469,1.18624 -14.927697,0.3083 -2.028002,-0.42994 -5.689486,-1.64243 -7.287147,-2.41313 l -0.97783,-0.4717 -2.805445,1.11743 c -3.299963,1.3144 -5.3190081,1.77195 -9.4213777,2.13505 -3.4493722,0.3053 -4.90471095,0.29974 -7.5133502,-0.0287 z m 39.8197896,-0.51426 c 3.976274,-0.55423 7.808105,-1.88258 9.473852,-3.28421 0.464694,-0.39102 0.844897,-0.86791 0.844897,-1.05977 0,-0.75646 -2.831104,-2.86629 -5.690967,-4.2411 -2.632678,-1.26559 -6.935172,-2.66883 -7.24204,-2.36196 -0.06587,0.0659 0.02616,0.11977 0.204526,0.11977 0.178362,0 0.250711,0.11906 0.160774,0.26458 -0.0919,0.1487 0.118456,0.26458 0.480286,0.26458 0.354095,0 1.164793,0.18382 1.801553,0.40848 0.636759,0.22466 1.18751,0.40325 1.22389,0.39687 0.352566,-0.0618 0.595312,0.03 0.595312,0.22524 0,0.13026 -0.74414,1.4e-4 -1.653646,-0.28917 -3.279144,-1.04307 -9.003609,-0.88023 -11.972395,0.34055 -0.436562,0.17952 -0.883047,0.30717 -0.992187,0.28368 -0.109141,-0.0235 -0.198438,0.14289 -0.198438,0.36976 0,0.22687 -0.106586,0.34662 -0.236859,0.2661 -0.130272,-0.0805 -0.304359,0.0295 -0.386859,0.24451 -0.08478,0.22093 -0.325948,0.32338 -0.554661,0.23561 -0.234945,-0.0901 -0.471839,0.0198 -0.564839,0.26214 -0.0881,0.22958 -0.71418,0.76644 -1.391292,1.19303 -0.677113,0.42659 -1.817359,1.33261 -2.533881,2.01339 -1.510342,1.43499 -1.572619,1.34079 1.66455,2.51777 5.877076,2.13681 10.889656,2.67744 16.968424,1.83015 z m -18.785416,-3.34796 c 0,-0.29359 1.150667,-0.70284 3.96875,-1.41157 1.75593,-0.4416 3.206014,-0.5807 6.614583,-0.63454 2.401094,-0.0379 4.782344,0.0118 5.291666,0.11057 0.895287,0.17356 0.877712,0.18548 -0.529166,0.3589 -0.800365,0.0987 -3.300677,0.30437 -5.55625,0.45715 -3.668846,0.24851 -8.063672,0.81682 -9.326562,1.20605 -0.254661,0.0785 -0.463021,0.0395 -0.463021,-0.0866 z m -9.3927075,2.98361 c 2.5407495,-0.56599 5.9872945,-1.77744 6.1323705,-2.1555 0.06573,-0.1713 0.336511,-0.2547 0.601731,-0.18534 0.26522,0.0694 0.564037,-0.006 0.664037,-0.16809 0.100001,-0.1618 0.08367,-0.27201 -0.03628,-0.24491 -0.119957,0.0271 -0.537158,-0.0829 -0.927114,-0.24441 -1.685019,-0.69798 -7.2521468,-1.2682 -13.168385,-1.3488 -2.93690946,-0.04 -2.50523354,-0.45038 0.8314341,-0.7904 3.80097,-0.38734 9.4962719,0.28695 12.2926909,1.45537 0.936851,0.39144 1.153074,0.15324 0.554833,-0.61121 -1.062116,-1.35722 -2.276715,-2.24356 -4.725827,-3.44863 -3.1314997,-1.54083 -5.1645887,-2.00269 -8.9663602,-2.03692 -2.11780993,-0.0191 -2.57858436,-0.10078 -2.92666989,-0.51905 -0.32295083,-0.38806 -0.52508691,-0.43678 -0.92604161,-0.2232 -0.2821023,0.15027 -1.0486945,0.41602 -1.7035382,0.59057 -1.7602619,0.46919 -6.8906791,3.00191 -7.8052081,3.85317 -0.436562,0.40637 -0.853281,0.74671 -0.926041,0.75632 -0.07276,0.01 -0.103955,0.10249 -0.06932,0.2064 0.03463,0.1039 -0.09512,0.12825 -0.288339,0.0541 -0.493337,-0.18931 -1.022473,0.53713 -0.919423,1.26226 0.178584,1.25662 4.4807171,3.13586 9.2926149,4.05915 2.4971343,0.47915 10.4085368,0.32061 13.0188406,-0.26088 z m 11.6435655,-7.55558 c 0.266148,-0.43064 3.147752,-2.22928 3.437684,-2.14573 0.145521,0.0419 0.176319,-0.012 0.06844,-0.11991 -0.214334,-0.21433 0.256832,-0.90629 0.61711,-0.90629 0.123135,0 0.158742,0.16976 0.07913,0.37723 -0.123469,0.32176 0.04312,0.31849 1.132783,-0.0222 0.702647,-0.21971 2.917124,-0.49405 4.921059,-0.60964 4.137721,-0.23867 4.123041,-0.23233 7.405258,-3.20126 3.947977,-3.57114 6.771029,-8.59574 5.527925,-9.83884 -0.606582,-0.60658 -6.876,-0.77091 -6.504927,-0.17051 0.07819,0.12652 -0.02723,0.16503 -0.234276,0.0856 -0.557396,-0.21389 -4.439435,0.81619 -6.193699,1.64347 -1.770357,0.83487 -3.831221,2.13736 -4.966716,3.13904 -2.098979,1.85161 -3.042708,2.83784 -3.042708,3.17973 0,0.20585 -0.253031,0.82437 -0.56229,1.3745 -0.30926,0.55013 -0.613731,1.35742 -0.676603,1.79399 -0.150471,1.04483 -1.438993,4.37683 -1.643952,4.25111 -0.08793,-0.0539 -0.172541,0.24743 -0.188036,0.66969 -0.02776,0.75658 0.476218,1.06252 0.823822,0.50008 z m 5.422059,-4.25549 c 1.563606,-1.34653 4.476417,-3.17041 7.871353,-4.92871 1.78263,-0.92325 3.241146,-1.62316 3.241146,-1.55534 0,0.0678 -1.398984,0.98215 -3.108854,2.03186 -1.70987,1.0497 -3.928848,2.45678 -4.931064,3.12684 -1.002215,0.67006 -2.133309,1.42602 -2.513541,1.67992 -1.163708,0.77705 -1.572223,0.51795 -0.55904,-0.35457 z m -13.633417,0.35502 c -0.941829,-1.91252 -1.719242,-3.63233 -1.727585,-3.82178 -0.0083,-0.18946 -0.335765,-0.93416 -0.727604,-1.6549 -1.4888634,-2.73857 -6.3100309,-5.89318 -10.76660134,-7.04487 -2.75426726,-0.71176 -7.03701986,-0.94815 -8.46666626,-0.46732 -0.9613394,0.32333 -1.0659694,0.44874 -1.1416544,1.36833 -0.09537,1.15881 0.638705,2.74568 2.5303554,5.46992 1.33905,1.92841 2.8570418,3.44922 5.2795329,5.28932 l 1.64115069,1.2466 3.78280731,0.1525 c 2.1429679,0.0864 4.3276149,0.32161 5.0395781,0.5426 1.3917689,0.43201 1.7104874,0.15791 0.4600095,-0.3956 -0.4666369,-0.20655 -0.7419565,-0.4955 -0.664489,-0.69738 0.07275,-0.18958 0.014189,-0.27171 -0.1301351,-0.18252 -0.1443241,0.0892 -1.2442884,-0.47738 -2.4443651,-1.25907 -1.2000766,-0.78169 -3.25352,-2.09754 -4.56320744,-2.92412 -3.89311346,-2.45705 -3.92391516,-2.69112 -0.0995663,-0.75665 3.69914894,1.87115 5.81765924,3.18442 6.66816144,4.13361 0.2657483,0.29659 0.3953776,0.36065 0.288065,0.14237 -0.1073126,-0.21828 0.1389518,-0.0992 0.5472543,0.26459 1.4050032,1.25187 1.9887934,1.87673 1.9887934,2.12869 0,0.13891 0.089297,0.2283 0.1984379,0.19865 0.428581,-0.11643 2.967197,0.64876 2.839239,0.8558 -0.125828,0.20359 0.938777,1.13068 1.106172,0.96329 0.0411,-0.0411 -0.695855,-1.63953 -1.637683,-3.55206 z m -1.403381,-6.25544 c 0.145112,0.0897 0.06663,-0.2183 -0.174399,-0.6844 -0.534555,-1.03371 -0.728348,-0.92257 -0.487873,0.2798 0.09878,0.49391 0.228841,0.75031 0.289019,0.56978 0.06018,-0.18053 0.228142,-0.25487 0.373253,-0.16518 z m -1.3837852,-4.80164 c -0.327646,-1.37891 -0.6470228,-2.4558 -0.7097263,-2.39309 -0.062703,0.0627 0.1643242,1.31114 0.504506,2.77432 0.3401817,1.46317 0.6595585,2.54006 0.7097265,2.39309 0.05017,-0.14698 -0.17686,-1.39542 -0.5045062,-2.77432 z m 14.6133242,-4.15038 c -0.19668,-0.19668 -0.232517,-0.099 -0.120635,0.32885 0.08821,0.33733 0.05213,0.5425 -0.08095,0.46025 -0.132064,-0.0816 -0.263642,0.10812 -0.292396,0.42165 -0.02876,0.31352 -0.11643,0.92723 -0.194834,1.3638 -0.292786,1.63026 -0.332146,2.12643 -0.197624,2.49123 0.07597,0.20601 0.369449,-0.78656 0.652181,-2.20571 0.361346,-1.81374 0.430938,-2.66339 0.234257,-2.86007 z m -15.2801622,0.53724 c 0.037965,-0.34586 -0.090427,-0.77779 -0.2853168,-0.95984 -0.3979341,-0.37173 -0.4277525,-0.21416 -0.1871429,0.98889 0.1863652,0.93182 0.3682097,0.92064 0.4724597,-0.029 z m -0.7776104,-2.62639 c -0.1458589,-0.86333 -0.1121515,-1.04712 0.1610702,-0.87826 0.1900423,0.11745 0.090974,-0.14395 -0.2201531,-0.58088 -0.3946535,-0.55424 -0.5383396,-1.08866 -0.4752413,-1.76757 0.070951,-0.76341 -0.00367,-0.97401 -0.3462459,-0.97719 -0.3786192,-0.004 -0.3839137,-0.0382 -0.039814,-0.26053 0.2645833,-0.17099 0.2866319,-0.25783 0.066146,-0.26053 -0.1819214,-0.002 -0.3307291,-0.32548 -0.3307291,-0.71843 0,-0.45996 -0.091112,-0.62326 -0.2558317,-0.45854 -0.16472,0.16472 0.037239,1.45565 0.5670788,3.62479 0.8085943,3.31035 1.2368527,4.4265 0.8737201,2.27714 z M 5.1008348,124.0344 c -0.034642,-0.23604 -0.3515289,-0.58901 -0.7041927,-0.78438 -0.3526639,-0.19537 -0.4838744,-0.35944 -0.291579,-0.3646 0.2698798,-0.007 0.259103,-0.0999 -0.047247,-0.40625 -0.2182812,-0.21828 -0.5207052,-0.39687 -0.6720532,-0.39687 -0.151348,0 -0.2388975,-0.14883 -0.1945543,-0.33073 0.044343,-0.18191 0.028886,-0.23604 -0.034349,-0.12031 -0.063235,0.11574 -0.4614754,-0.15215 -0.8849791,-0.59531 -0.4235036,-0.44316 -0.8800102,-0.80574 -1.0144589,-0.80574 -0.1344488,0 -0.32057901,-0.23985 -0.41362271,-0.53301 -0.0930437,-0.29315 -0.27143376,-0.4698 -0.39642237,-0.39256 -0.12498861,0.0772 -0.302037,0.0194 -0.39344085,-0.12845 -0.09140386,-0.14789 -0.34955305,-0.26889 -0.57366487,-0.26889 -0.22411181,0 0.29247397,0.52616 1.14796841,1.16924 0.85549439,0.64309 2.18515539,1.89325 2.95480219,2.77813 0.7696468,0.88488 1.4401775,1.60887 1.4900684,1.60887 0.049891,0 0.062367,-0.19311 0.027725,-0.42914 z m 26.3849832,-3.88042 c 0.137665,-0.37369 -0.01606,-0.32792 -0.731574,0.21783 -0.499074,0.38067 -0.845753,0.84758 -0.772009,1.03975 0.157177,0.4096 1.215496,-0.47557 1.503583,-1.25758 z M 21.194467,112.0661 c 0.07703,-0.12464 -0.362428,-0.62173 -0.976573,-1.10466 -0.810316,-0.63718 -0.952658,-0.69665 -0.518894,-0.21678 0.328753,0.3637 0.510976,0.74802 0.40494,0.85406 -0.106036,0.10604 0.01681,0.11236 0.272983,0.0141 0.256177,-0.0983 0.446807,-0.0748 0.423624,0.0522 -0.106658,0.58424 0.131117,0.82638 0.39392,0.40116 z m -7.309752,-1.72242 c 0.181716,-0.11231 0.261893,-0.31503 0.17817,-0.4505 -0.08372,-0.13547 0.0859,-0.2463 0.376945,-0.2463 0.636208,0 0.955665,-0.41717 0.523832,-0.68406 -0.193471,-0.11957 -0.238898,-0.0768 -0.120993,0.11401 0.115632,0.1871 0.0033,0.30915 -0.289849,0.31498 -0.263249,0.005 -0.813513,0.28354 -1.222807,0.61846 -0.584634,0.4784 -0.640359,0.6013 -0.259932,0.57327 0.266332,-0.0196 0.632917,-0.12756 0.814634,-0.23986 z m 5.084261,-0.45265 c 0,-0.10825 -0.595974,-0.4938 -1.324387,-0.85679 -1.419305,-0.70727 -2.45806,-0.69297 -2.180623,0.03 0.0894,0.23296 0.202444,0.30386 0.251215,0.15755 0.11452,-0.34356 1.63554,-0.24069 2.012331,0.13611 0.15893,0.15893 0.175855,0.29078 0.03761,0.29301 -0.138245,0.002 -0.09784,0.10145 0.08978,0.22049 0.426074,0.27032 1.114069,0.28243 1.114069,0.0196 z"
         id="path23739" />
    </g>
  </g>
</svg>
