<?xml version="1.0" encoding="UTF-8" standalone="no"?>
<!-- Created with Inkscape (http://www.inkscape.org/) -->

<svg
   width="185"
   height="185"
   viewBox="0 0 48.947914 48.947918"
   version="1.1"
   id="svg1"
   xmlns="http://www.w3.org/2000/svg"
   xmlns:svg="http://www.w3.org/2000/svg">
  <defs
     id="defs1" />
  <g
     id="g1366"
     style="display:inline;stroke-width:1.38904"
     transform="matrix(0.71992373,0,0,0.71992373,-115.21944,-139.60442)">
    <path
       style="fill:#f4f0da;stroke-width:1.38904"
       d="m 195.52952,239.84668 c 0,-1.23693 0.0456,-1.74295 0.10128,-1.12448 0.0557,0.61846 0.0557,1.63049 0,2.24895 -0.0557,0.61847 -0.10128,0.11245 -0.10128,-1.12447 z"
       id="path1331" />
    <path
       style="fill:#f4f0da;stroke-width:1.38904"
       d="m 176.08055,261.86257 c -1.48504,-0.0563 -2.06614,-0.18061 -2.17539,-0.46532 -0.21315,-0.55544 0.24067,-1.59655 0.808,-1.85362 0.26581,-0.12044 2.26923,-0.23989 4.45204,-0.26544 3.29295,-0.0385 4.65267,-0.18761 7.98522,-0.87543 2.20905,-0.45593 4.08255,-0.82897 4.16332,-0.82897 0.30449,0 -1.00098,-2.87939 -2.51912,-5.55625 -0.86656,-1.52797 -2.63735,-4.26387 -3.9351,-6.07977 -2.18651,-3.05952 -2.32883,-3.33558 -1.94076,-3.7644 0.40506,-0.44758 1.76789,-0.58179 1.49958,-0.14767 -0.073,0.11806 0.33227,0.77741 0.90051,1.46523 2.39986,2.90484 4.68082,6.39963 6.55838,10.04846 l 1.17859,2.29048 v -6.2162 c 0,-7.14882 -0.13413,-7.92846 -2.00994,-11.68227 -1.52058,-3.04294 -4.21171,-7.54689 -5.79167,-9.69312 -0.65682,-0.89222 -1.19422,-1.71231 -1.19422,-1.82242 0,-0.11011 0.25447,-0.35912 0.5655,-0.55336 0.50836,-0.31748 0.62985,-0.27713 1.2026,0.39938 2.27686,2.68935 5.0772,6.80726 6.3594,9.35149 l 0.8667,1.71979 8.2e-4,-9.7394 8.1e-4,-9.73941 0.95699,0.0821 0.957,0.0821 0.0595,2.91042 c 0.0327,1.60073 0.0783,7.37511 0.10135,12.83197 l 0.0419,9.92155 1.46038,-3.17468 c 1.66624,-3.6222 4.28573,-8.29152 5.41755,-9.65697 l 0.7676,-0.92604 0.56517,0.55883 0.56517,0.55883 -1.86259,3.40992 c -1.02442,1.87546 -2.96923,5.73164 -4.32179,8.5693 l -2.4592,5.15937 v 4.7625 4.7625 l 1.94397,0.19386 c 1.06918,0.10662 3.2123,0.44803 4.7625,0.75869 1.80758,0.36223 4.41176,0.62485 7.26047,0.73218 4.73156,0.17827 4.93785,0.24352 4.94672,1.56472 0.002,0.33199 -0.14478,0.66026 -0.32668,0.72948 -0.36579,0.13921 -34.58494,0.29991 -37.81121,0.17756 z"
       id="path1329" />
    <path
       style="fill:#d7ceaf;stroke-width:1.38904"
       d="m 173.90343,261.39271 c -0.17643,-0.45977 0.13199,-1.17789 0.71299,-1.66007 0.24066,-0.19973 1.88,-0.34548 4.5785,-0.40706 3.25941,-0.0744 4.91844,-0.25024 7.38604,-0.78291 1.75034,-0.37783 3.56604,-0.7162 4.0349,-0.75193 0.46885,-0.0357 0.85246,-0.20158 0.85246,-0.36857 0,-1.07738 -4.5218,-8.73792 -7.89514,-13.37543 -1.03205,-1.41881 -1.0605,-1.50859 -0.60785,-1.91823 0.26118,-0.23636 0.58456,-0.42495 0.71862,-0.41908 0.32281,0.0141 3.12274,3.56549 4.85306,6.1555 0.75881,1.13582 2.08905,3.39801 2.95609,5.02708 l 1.57643,2.96196 -0.076,-7.01146 c -0.0757,-6.98182 -0.079,-7.01839 -0.79794,-8.6508 -1.18178,-2.68351 -3.5474,-6.88314 -5.78325,-10.26691 -1.15384,-1.74625 -2.12539,-3.28108 -2.15898,-3.41075 -0.0336,-0.12966 0.15638,-0.36778 0.42218,-0.52916 0.40997,-0.24892 0.65574,-0.10449 1.62047,0.95231 1.48894,1.63102 4.79456,6.49898 5.8916,8.67614 l 0.86657,1.71979 8.2e-4,-9.72343 8.1e-4,-9.72344 0.59532,0.004 c 0.32742,0.002 0.73252,0.0915 0.90022,0.19844 0.2186,0.13936 0.36021,3.76758 0.50026,12.81733 l 0.19535,12.62294 1.51728,-3.27268 c 1.74594,-3.76589 2.74674,-5.58752 4.55159,-8.28469 1.12106,-1.67532 1.35071,-1.8873 1.78995,-1.65222 0.27714,0.14832 0.57808,0.38971 0.66875,0.53642 0.0907,0.14671 -0.44464,1.33184 -1.18959,2.63362 -1.596,2.78896 -6.99236,13.86766 -7.22062,14.82387 -0.0868,0.3638 -0.18871,2.62599 -0.22638,5.02709 l -0.0685,4.36562 1.96974,0.1837 c 1.08336,0.10103 3.21989,0.44211 4.74786,0.75796 1.91961,0.3968 4.14345,0.6151 7.19624,0.70641 3.81647,0.11416 4.47691,0.19713 4.84991,0.60929 0.23748,0.26242 0.39246,0.75484 0.34438,1.09426 l -0.0874,0.61713 -20.01325,0.0678 c -18.02877,0.0611 -20.02913,0.0264 -20.17352,-0.34989 z"
       id="path1317" />
    <path
       style="fill:#fcd135;stroke-width:1.38904"
       d="m 174.00582,261.05601 c 0,-1.39628 0.50009,-1.55719 5.29167,-1.70263 3.37049,-0.10231 5.07326,-0.29009 7.46999,-0.82378 1.70739,-0.38019 3.46357,-0.69126 3.9026,-0.69126 0.53532,0 0.79824,-0.13152 0.79824,-0.3993 0,-1.20462 -4.75705,-9.24577 -8.08966,-13.67447 l -0.93422,-1.24148 0.67821,-0.44438 c 0.655,-0.42918 0.69594,-0.42184 1.19632,0.21428 0.28495,0.36227 0.94376,1.16814 1.464,1.79083 1.53024,1.83158 4.26128,6.06865 5.81614,9.02345 l 1.44536,2.7467 0.006,-6.55679 c 0.005,-5.94186 -0.0459,-6.71108 -0.54375,-8.20208 -0.84849,-2.54086 -3.42844,-7.21649 -6.61959,-11.99665 -1.32618,-1.98654 -1.71106,-2.75545 -1.48995,-2.97656 0.16397,-0.16397 0.44279,-0.29813 0.6196,-0.29813 0.83049,0 5.4875,6.45421 7.14871,9.9075 l 0.88403,1.8377 0.0695,-9.7752 0.0695,-9.77521 0.79177,0.0862 c 0.43548,0.0474 0.81663,0.11107 0.847,0.14145 0.0304,0.0304 0.0737,5.80704 0.0962,12.83705 0.0225,7.03 0.13078,12.68135 0.24052,12.55855 0.10975,-0.1228 0.82775,-1.59249 1.59556,-3.26598 1.60594,-3.50026 3.32118,-6.62041 4.82904,-8.78436 1.03068,-1.47915 1.06323,-1.50031 1.68327,-1.09405 0.34774,0.22785 0.63226,0.4691 0.63226,0.53612 0,0.067 -0.49941,0.97605 -1.10981,2.02009 -0.61039,1.04403 -2.52138,4.79697 -4.24664,8.33986 -3.5164,7.22107 -3.55897,7.37888 -3.52591,13.07119 l 0.0188,3.24136 1.05833,0.0772 c 0.58209,0.0424 3.08719,0.42939 5.56691,0.8599 3.49641,0.60701 5.31369,0.78273 8.09493,0.78273 3.19893,0 3.63596,0.0548 4.0455,0.50735 0.25253,0.27904 0.41981,0.78506 0.37173,1.12448 l -0.0874,0.61713 -20.04219,0.0678 -20.04219,0.0678 z"
       id="path1306" />
    <path
       style="fill:#a4a892;stroke-width:1.38904"
       d="m 174.00582,261.05601 c 0,-1.39628 0.50009,-1.55719 5.29167,-1.70263 3.37049,-0.10231 5.07326,-0.29009 7.46999,-0.82378 1.70739,-0.38019 3.46357,-0.69126 3.9026,-0.69126 0.53532,0 0.79824,-0.13152 0.79824,-0.3993 0,-1.20462 -4.75705,-9.24577 -8.08966,-13.67447 l -0.93422,-1.24148 0.67821,-0.44438 c 0.655,-0.42918 0.69594,-0.42184 1.19632,0.21428 0.28495,0.36227 0.94376,1.16814 1.464,1.79083 1.53024,1.83158 4.26128,6.06865 5.81614,9.02345 l 1.44536,2.7467 0.006,-6.55679 c 0.005,-5.94186 -0.0459,-6.71108 -0.54375,-8.20208 -0.84849,-2.54086 -3.42844,-7.21649 -6.61959,-11.99665 -1.32618,-1.98654 -1.71106,-2.75545 -1.48995,-2.97656 0.16397,-0.16397 0.44279,-0.29813 0.6196,-0.29813 0.83049,0 5.4875,6.45421 7.14871,9.9075 l 0.88403,1.8377 0.0695,-9.7752 0.0695,-9.77521 0.79177,0.0862 c 0.43548,0.0474 0.81663,0.11107 0.847,0.14145 0.0304,0.0304 0.0737,5.80704 0.0962,12.83705 0.0225,7.03 0.13078,12.68135 0.24052,12.55855 0.10975,-0.1228 0.82775,-1.59249 1.59556,-3.26598 1.60594,-3.50026 3.32118,-6.62041 4.82904,-8.78436 1.03068,-1.47915 1.06323,-1.50031 1.68327,-1.09405 0.34774,0.22785 0.63226,0.4691 0.63226,0.53612 0,0.067 -0.49941,0.97605 -1.10981,2.02009 -0.61039,1.04403 -2.52138,4.79697 -4.24664,8.33986 -3.5164,7.22107 -3.55897,7.37888 -3.52591,13.07119 l 0.0188,3.24136 1.05833,0.0772 c 0.58209,0.0424 3.08719,0.42939 5.56691,0.8599 3.49641,0.60701 5.31369,0.78273 8.09493,0.78273 3.19893,0 3.63596,0.0548 4.0455,0.50735 0.25253,0.27904 0.41981,0.78506 0.37173,1.12448 l -0.0874,0.61713 -20.04219,0.0678 -20.04219,0.0678 z"
       id="path1293" />
    <path
       style="fill:#f0ac2a;stroke-width:1.38904"
       d="m 174.18221,261.6302 c -0.34278,-0.34278 -0.17018,-1.33471 0.30747,-1.76698 0.39826,-0.36041 1.11206,-0.43974 4.03489,-0.44838 1.95308,-0.006 4.44401,-0.18065 5.53542,-0.3886 1.09141,-0.20796 3.20457,-0.59018 4.69591,-0.84939 1.49135,-0.25922 2.71174,-0.59666 2.71198,-0.74988 7.5e-4,-0.46853 -2.08395,-4.62109 -3.48197,-6.93583 -0.72658,-1.20303 -2.25944,-3.49167 -3.40636,-5.08585 -2.0632,-2.86781 -2.07929,-2.90272 -1.5189,-3.29524 0.68781,-0.48176 0.8146,-0.39212 2.56127,1.81074 1.94048,2.44728 4.35439,6.16757 5.97255,9.20481 l 1.45333,2.72787 0.004,-6.52057 c 0.004,-5.7606 -0.057,-6.71655 -0.51937,-8.20208 -0.66567,-2.13866 -3.67846,-7.6624 -6.35045,-11.64311 -1.50462,-2.24158 -1.98964,-3.16181 -1.77801,-3.37344 0.16005,-0.16005 0.43659,-0.29101 0.61451,-0.29101 0.79828,0 5.56904,6.61288 7.15258,9.91441 l 0.88475,1.84462 v -9.71597 -9.71598 h 0.92353 0.92352 l 0.0687,12.89844 0.0687,12.89844 2.41487,-4.89479 c 1.32818,-2.69214 3.03208,-5.81551 3.78646,-6.94084 1.36534,-2.03673 1.37452,-2.04412 2.0169,-1.62321 0.35492,0.23255 0.64531,0.48285 0.64531,0.55622 0,0.0734 -0.42623,0.83505 -0.94718,1.69263 -1.05266,1.73286 -5.30713,10.23425 -6.86569,13.71919 l -1.00385,2.24462 -0.12452,4.52662 -0.12452,4.52662 1.95319,0.16667 c 1.07426,0.0917 3.54668,0.46765 5.49428,0.83553 2.74205,0.51794 4.38952,0.66886 7.30118,0.66886 3.39831,0 3.80524,0.0499 4.22934,0.51851 0.31928,0.3528 0.41533,0.7333 0.30055,1.19062 l -0.1687,0.67212 h -19.79461 c -10.88703,0 -19.87398,-0.0794 -19.971,-0.17639 z"
       id="path1280" />
    <path
       style="fill:#8e8e76;stroke-width:1.38904"
       d="m 174.18221,261.6302 c -0.34278,-0.34278 -0.17018,-1.33471 0.30747,-1.76698 0.39826,-0.36041 1.11206,-0.43974 4.03489,-0.44838 1.95308,-0.006 4.44401,-0.18065 5.53542,-0.3886 1.09141,-0.20796 3.20457,-0.59018 4.69591,-0.84939 1.49135,-0.25922 2.71174,-0.59666 2.71198,-0.74988 7.5e-4,-0.46853 -2.08395,-4.62109 -3.48197,-6.93583 -0.72658,-1.20303 -2.25944,-3.49167 -3.40636,-5.08585 -2.0632,-2.86781 -2.07929,-2.90272 -1.5189,-3.29524 0.68781,-0.48176 0.8146,-0.39212 2.56127,1.81074 1.94048,2.44728 4.35439,6.16757 5.97255,9.20481 l 1.45333,2.72787 0.004,-6.52057 c 0.004,-5.7606 -0.057,-6.71655 -0.51937,-8.20208 -0.66567,-2.13866 -3.67846,-7.6624 -6.35045,-11.64311 -1.50462,-2.24158 -1.98964,-3.16181 -1.77801,-3.37344 0.16005,-0.16005 0.43659,-0.29101 0.61451,-0.29101 0.79828,0 5.56904,6.61288 7.15258,9.91441 l 0.88475,1.84462 v -9.71597 -9.71598 h 0.92353 0.92352 l 0.0687,12.89844 0.0687,12.89844 2.41487,-4.89479 c 1.32818,-2.69214 3.03208,-5.81551 3.78646,-6.94084 1.36534,-2.03673 1.37452,-2.04412 2.0169,-1.62321 0.35492,0.23255 0.64531,0.48285 0.64531,0.55622 0,0.0734 -0.42623,0.83505 -0.94718,1.69263 -1.05266,1.73286 -5.30713,10.23425 -6.86569,13.71919 l -1.00385,2.24462 -0.12452,4.52662 -0.12452,4.52662 1.95319,0.16667 c 1.07426,0.0917 3.54668,0.46765 5.49428,0.83553 2.74205,0.51794 4.38952,0.66886 7.30118,0.66886 3.39831,0 3.80524,0.0499 4.22934,0.51851 0.31928,0.3528 0.41533,0.7333 0.30055,1.19062 l -0.1687,0.67212 h -19.79461 c -10.88703,0 -19.87398,-0.0794 -19.971,-0.17639 z"
       id="path1267" />
    <path
       style="fill:#76876e;stroke-width:1.38904"
       d="m 174.18221,261.6302 c -0.34278,-0.34278 -0.17018,-1.33471 0.30747,-1.76698 0.40082,-0.36273 1.10779,-0.43788 4.11947,-0.43788 2.97988,0 4.35253,-0.14316 7.61047,-0.79375 2.18617,-0.43656 4.26147,-0.79375 4.61178,-0.79375 0.35179,0 0.63692,-0.15665 0.63692,-0.34993 0,-1.17278 -3.90316,-7.98969 -7.10877,-12.41554 l -1.86062,-2.56888 0.58209,-0.41437 c 0.55777,-0.39705 0.62931,-0.36134 1.71166,0.85416 1.76345,1.98038 5.28096,7.27787 6.86393,10.33731 l 1.43768,2.77863 -0.0854,-7.24663 -0.0854,-7.24662 -1.23443,-2.56796 c -1.5505,-3.22546 -3.77246,-7.03664 -5.94167,-10.19136 -1.60432,-2.33319 -1.65434,-2.45332 -1.13672,-2.73034 0.40541,-0.21697 0.64348,-0.20508 0.94759,0.0473 1.21033,1.00448 5.55472,7.3678 6.73845,9.86995 l 0.75866,1.60365 2.1e-4,-9.72344 2e-4,-9.72344 h 0.92353 0.92352 l 0.0687,12.89844 0.0687,12.89844 2.42415,-4.89479 c 1.33329,-2.69214 3.04072,-5.8132 3.79431,-6.9357 1.35844,-2.02346 1.37559,-2.03733 2.00761,-1.62321 0.35061,0.22972 0.63747,0.44321 0.63747,0.47442 0,0.0312 -0.76981,1.43676 -1.71069,3.12345 -2.96008,5.30646 -6.75341,13.50705 -7.03048,15.19879 -0.13838,0.84491 -0.25229,3.09736 -0.25313,5.00544 l -0.002,3.46923 2.02907,0.18387 c 1.11598,0.10113 3.57267,0.47474 5.45931,0.83025 2.58907,0.48787 4.32272,0.64637 7.06974,0.64637 3.13351,0 3.72269,0.0674 4.23787,0.48453 0.46319,0.37507 0.55833,0.64403 0.42114,1.19062 l -0.17722,0.7061 h -19.79461 c -10.88703,0 -19.87398,-0.0794 -19.971,-0.17639 z"
       id="path1254" />
    <path
       style="fill:#8c7447;stroke-width:1.38904"
       d="m 174.18221,261.6302 c -0.33734,-0.33734 -0.17351,-1.33164 0.28664,-1.73961 0.36672,-0.32514 1.39851,-0.43587 4.96093,-0.53243 3.36141,-0.0911 5.08306,-0.26458 6.8137,-0.68659 1.27367,-0.31057 2.97031,-0.64161 3.77031,-0.73563 0.91688,-0.10776 1.45453,-0.29621 1.45453,-0.50982 0,-1.19785 -4.88816,-9.54663 -7.83731,-13.38579 l -1.14795,-1.49439 0.63808,-0.41809 c 0.62625,-0.41033 0.66375,-0.38752 2.02229,1.22981 1.88495,2.24401 4.95281,6.94133 6.59101,10.09173 l 1.35293,2.60179 -0.0819,-7.24261 -0.0819,-7.2426 -1.23443,-2.56796 c -1.5505,-3.22546 -3.77246,-7.03664 -5.94167,-10.19136 -1.6483,-2.39714 -1.66785,-2.44609 -1.09895,-2.75055 0.51929,-0.27792 0.68416,-0.18967 1.59382,0.85307 1.54554,1.77163 5.14659,7.16534 6.02855,9.02965 l 0.78456,1.6584 2.1e-4,-9.72344 2e-4,-9.72344 h 0.92353 0.92352 l 0.0687,12.89844 0.0687,12.89844 2.14346,-4.39076 c 1.90678,-3.90592 3.80527,-7.1987 5.11816,-8.87704 0.42125,-0.5385 0.47445,-0.54496 1.03095,-0.12519 l 0.58679,0.44261 -1.21785,2.10957 c -1.32483,2.29487 -6.54137,12.83366 -7.19954,14.54497 -0.28601,0.74366 -0.4434,2.3973 -0.52933,5.56163 l -0.1223,4.5033 2.80259,0.33287 c 1.54143,0.18308 3.90582,0.56575 5.25421,0.85037 1.7842,0.37662 3.50605,0.51863 6.3249,0.52165 3.35622,0.004 3.95317,0.0688 4.47166,0.48867 0.46319,0.37507 0.55833,0.64403 0.42114,1.19062 l -0.17722,0.7061 h -19.79461 c -10.88703,0 -19.87398,-0.0794 -19.971,-0.17639 z"
       id="path1241" />
    <path
       style="fill:#5f6851;stroke-width:1.38904"
       d="m 174.18221,261.6302 c -0.33734,-0.33734 -0.17351,-1.33164 0.28664,-1.73961 0.36585,-0.32437 1.40694,-0.43775 4.96093,-0.54027 3.5261,-0.10172 5.16983,-0.27913 7.60775,-0.82112 1.7104,-0.38025 3.40704,-0.69136 3.77031,-0.69136 0.39383,0 0.66048,-0.15152 0.66048,-0.37529 0,-1.2307 -4.84157,-9.5224 -7.83731,-13.42222 l -1.14795,-1.49439 0.63808,-0.41809 c 0.62625,-0.41033 0.66375,-0.38752 2.02229,1.22981 1.88495,2.24401 4.95281,6.94133 6.59101,10.09173 l 1.35293,2.60179 -0.0819,-7.24261 -0.0819,-7.2426 -1.23443,-2.56796 c -1.5505,-3.22546 -3.77246,-7.03664 -5.94167,-10.19136 -1.6483,-2.39714 -1.66785,-2.44609 -1.09895,-2.75055 0.51929,-0.27792 0.68416,-0.18967 1.59382,0.85307 1.54554,1.77163 5.14659,7.16534 6.02855,9.02965 l 0.78456,1.6584 2.1e-4,-9.72344 2e-4,-9.72344 h 0.92353 0.92352 l 0.0687,12.89844 0.0687,12.89844 2.14346,-4.39076 c 1.90678,-3.90592 3.80527,-7.1987 5.11816,-8.87704 0.42125,-0.5385 0.47445,-0.54496 1.03095,-0.12519 l 0.58679,0.44261 -1.21785,2.10957 c -1.32483,2.29487 -6.54137,12.83366 -7.19954,14.54497 -0.28631,0.74443 -0.44344,2.39999 -0.52977,5.5817 l -0.12274,4.52336 1.83079,0.17015 c 1.00694,0.0936 3.4172,0.46909 5.35614,0.83445 2.72462,0.51341 4.38207,0.6643 7.29715,0.6643 3.26174,0 3.85271,0.0655 4.37016,0.48453 0.46319,0.37507 0.55833,0.64403 0.42114,1.19062 l -0.17722,0.7061 h -19.79461 c -10.88703,0 -19.87398,-0.0794 -19.971,-0.17639 z"
       id="path1228" />
    <path
       style="fill:#544e33;stroke-width:1.38904"
       d="m 174.18221,261.6307 c -0.34278,-0.34278 -0.17018,-1.33471 0.30747,-1.76698 0.40241,-0.36417 1.11619,-0.43788 4.24036,-0.43788 3.1187,0 4.42798,-0.13477 7.7112,-0.79375 2.17508,-0.43656 4.19598,-0.79375 4.49089,-0.79375 0.30466,0 0.53619,-0.17462 0.53619,-0.4044 0,-1.19369 -3.58658,-7.49907 -6.82145,-11.99244 l -1.97225,-2.73954 0.53258,-0.53259 0.53259,-0.53259 1.65972,2.08151 c 2.2839,2.86432 4.72587,6.63536 6.3259,9.76884 l 1.34366,2.63142 -0.0728,-7.32763 -0.0728,-7.32763 -1.94401,-3.85834 c -1.06921,-2.12209 -3.04842,-5.52581 -4.39824,-7.56382 -2.34694,-3.54351 -2.43016,-3.71836 -1.90391,-4 0.48195,-0.25793 0.67739,-0.15004 1.57325,0.86854 1.5053,1.71148 5.63117,7.98614 6.15756,9.36449 0.25022,0.6552 0.52807,1.19131 0.61744,1.19137 0.0894,6e-5 0.12985,-4.34572 0.0899,-9.65729 l -0.0725,-9.6574 h 0.93244 0.93245 l 0.0171,13.03073 0.0171,13.03073 1.91727,-3.96922 c 2.03172,-4.20615 3.52975,-6.8873 4.97504,-8.90425 0.87394,-1.2196 0.8885,-1.22709 1.47044,-0.75586 l 0.58776,0.47594 -1.35718,2.34336 c -2.04396,3.52919 -6.82178,13.5225 -7.25046,15.1651 -0.24347,0.93291 -0.37702,2.81869 -0.37702,5.32362 v 3.87898 l 1.91823,0.18733 c 1.05502,0.10303 3.45218,0.4756 5.32701,0.82794 2.59877,0.48838 4.30507,0.6406 7.18059,0.6406 3.26174,0 3.85271,0.0655 4.37016,0.48453 0.46319,0.37507 0.55833,0.64403 0.42114,1.19062 l -0.17722,0.7061 H 194.1532 c -10.88703,0 -19.87398,-0.0794 -19.971,-0.17639 z"
       id="path1215" />
    <path
       style="fill:#335c41;stroke-width:1.38904"
       d="m 174.18221,261.6307 c -0.38075,-0.38075 -0.14623,-1.40222 0.41165,-1.79298 0.46498,-0.32568 1.37172,-0.41188 4.3328,-0.41188 3.12688,0 4.38148,-0.13096 7.60379,-0.79375 2.12247,-0.43656 4.15957,-0.79375 4.52689,-0.79375 h 0.66785 l -0.53737,-1.38906 c -0.82587,-2.13486 -3.76693,-7.13128 -6.25198,-10.62118 -2.21562,-3.11154 -2.23494,-3.15243 -1.72866,-3.65871 0.50628,-0.50627 0.53068,-0.48885 2.18366,1.55921 2.19275,2.71684 4.64467,6.50615 6.31822,9.76445 l 1.34852,2.6255 -0.067,-7.31633 -0.067,-7.31634 -1.89404,-3.79616 c -1.04172,-2.08789 -3.02093,-5.4967 -4.39823,-7.57512 -2.32127,-3.50291 -2.46676,-3.79899 -1.99165,-4.05326 0.66914,-0.35811 0.8658,-0.18329 2.96261,2.6337 2.19195,2.9448 4.54647,6.69909 4.92979,7.86056 0.16515,0.5004 0.38033,0.90987 0.47819,0.90993 0.0978,6e-5 0.14527,-4.34572 0.10537,-9.65729 l -0.0725,-9.6574 h 0.92995 0.92995 l 0.0686,13.03073 0.0686,13.03073 0.77568,-1.71979 c 2.43544,-5.39968 6.11941,-11.84972 6.89724,-12.07596 0.14552,-0.0423 0.47575,0.083 0.73384,0.27854 0.4384,0.33213 0.38782,0.49247 -0.76925,2.43844 -1.97709,3.32509 -7.15508,14.19157 -7.47642,15.68995 -0.16136,0.75239 -0.29338,3.07467 -0.29338,5.1606 v 3.79262 l 1.78593,0.18499 c 0.98227,0.10174 3.35987,0.4728 5.28357,0.82457 2.66087,0.48657 4.41738,0.63958 7.34219,0.63958 3.49178,0 3.89311,0.0486 4.37372,0.52917 0.60399,0.60399 0.66924,1.07701 0.21167,1.53458 -0.24123,0.24124 -5.02904,0.3175 -19.93194,0.3175 -10.78795,0 -19.69382,-0.0794 -19.79084,-0.17639 z"
       id="path1202" />
    <path
       style="fill:#32573b;stroke-width:1.38904"
       d="m 174.18221,261.6307 c -0.38075,-0.38075 -0.14623,-1.40222 0.41165,-1.79298 0.46498,-0.32568 1.37172,-0.41188 4.3328,-0.41188 3.12688,0 4.38148,-0.13096 7.60379,-0.79375 2.12247,-0.43656 4.15957,-0.79375 4.52689,-0.79375 h 0.66785 l -0.53737,-1.38906 c -0.82587,-2.13486 -3.76693,-7.13128 -6.25198,-10.62118 -2.21562,-3.11154 -2.23494,-3.15243 -1.72866,-3.65871 0.50628,-0.50627 0.53068,-0.48885 2.18366,1.55921 2.19275,2.71684 4.64467,6.50615 6.31822,9.76445 l 1.34852,2.6255 -0.067,-7.31633 -0.067,-7.31634 -1.89404,-3.79616 c -1.04172,-2.08789 -3.02093,-5.4967 -4.39823,-7.57512 -2.32127,-3.50291 -2.46676,-3.79899 -1.99165,-4.05326 0.66914,-0.35811 0.8658,-0.18329 2.96261,2.6337 2.19195,2.9448 4.54647,6.69909 4.92979,7.86056 0.16515,0.5004 0.38033,0.90987 0.47819,0.90993 0.0978,6e-5 0.14527,-4.34572 0.10537,-9.65729 l -0.0725,-9.6574 h 0.92995 0.92995 l 0.0686,13.03073 0.0686,13.03073 0.77568,-1.71979 c 2.43544,-5.39968 6.11941,-11.84972 6.89724,-12.07596 0.14552,-0.0423 0.47386,0.0816 0.72966,0.27549 0.43455,0.32931 0.40247,0.45461 -0.48884,1.90927 -1.71728,2.80267 -7.44084,14.76826 -7.74698,16.19572 -0.16448,0.76694 -0.29905,3.10112 -0.29905,5.18705 v 3.79262 l 1.78593,0.18499 c 0.98227,0.10174 3.35987,0.4728 5.28357,0.82457 2.66087,0.48657 4.41738,0.63958 7.34219,0.63958 3.49178,0 3.89311,0.0486 4.37372,0.52917 0.60399,0.60399 0.66924,1.07701 0.21167,1.53458 -0.24123,0.24124 -5.02904,0.3175 -19.93194,0.3175 -10.78795,0 -19.69382,-0.0794 -19.79084,-0.17639 z"
       id="path1189" />
    <path
       style="fill:#2b5136;stroke-width:1.38904"
       d="m 174.18221,261.6307 c -0.38075,-0.38075 -0.14623,-1.40222 0.41165,-1.79298 0.46498,-0.32568 1.37172,-0.41188 4.3328,-0.41188 3.12688,0 4.38148,-0.13096 7.60379,-0.79375 2.12247,-0.43656 4.15957,-0.79375 4.52689,-0.79375 h 0.66785 l -0.53737,-1.38906 c -0.82587,-2.13486 -3.76693,-7.13128 -6.25198,-10.62118 -2.21562,-3.11154 -2.23494,-3.15243 -1.72866,-3.65871 0.50628,-0.50627 0.53069,-0.48885 2.1846,1.55921 2.22667,2.7573 4.46774,6.23402 6.15232,9.54448 0.75869,1.49093 1.43896,2.71148 1.51172,2.71232 0.0728,8.5e-4 0.0728,-3.24989 0,-7.22386 l -0.13229,-7.22541 -1.54016,-3.15983 c -1.64643,-3.37783 -3.98828,-7.34074 -6.04592,-10.23096 -1.21918,-1.71249 -1.2465,-1.79036 -0.72608,-2.06889 0.70206,-0.37572 0.87429,-0.22493 2.99085,2.61859 2.19195,2.9448 4.54647,6.69909 4.92979,7.86056 0.16515,0.5004 0.38033,0.90987 0.47819,0.90993 0.0978,6e-5 0.14527,-4.34572 0.10537,-9.65729 l -0.0725,-9.6574 h 0.92995 0.92995 l 0.0686,13.03073 0.0686,13.03073 0.77568,-1.71979 c 2.43544,-5.39968 6.11941,-11.84972 6.89724,-12.07596 0.14552,-0.0423 0.47386,0.0816 0.72966,0.27549 0.43454,0.3293 0.4024,0.45465 -0.48957,1.90927 -1.72468,2.81258 -7.43886,14.75543 -7.74535,16.18808 -0.16497,0.77114 -0.29995,3.10876 -0.29995,5.19469 v 3.79262 l 1.78593,0.18499 c 0.98227,0.10174 3.35987,0.4728 5.28357,0.82457 2.66087,0.48657 4.41738,0.63958 7.34219,0.63958 3.49178,0 3.89311,0.0486 4.37372,0.52917 0.60399,0.60399 0.66924,1.07701 0.21167,1.53458 -0.24123,0.24124 -5.02904,0.3175 -19.93194,0.3175 -10.78795,0 -19.69382,-0.0794 -19.79084,-0.17639 z"
       id="path1176" />
    <path
       style="fill:#294d33;stroke-width:1.38904"
       d="m 174.18221,261.63067 c -0.38075,-0.38075 -0.14623,-1.40222 0.41165,-1.79298 0.46498,-0.32568 1.37172,-0.41188 4.3328,-0.41188 3.12688,0 4.38148,-0.13096 7.60379,-0.79375 2.12247,-0.43656 4.15957,-0.79375 4.52689,-0.79375 h 0.66785 l -0.53737,-1.38906 c -0.82587,-2.13486 -3.76693,-7.13128 -6.25198,-10.62118 -2.21562,-3.11154 -2.23494,-3.15243 -1.72866,-3.65871 0.50628,-0.50627 0.53069,-0.48885 2.1846,1.55921 2.22667,2.7573 4.46774,6.23402 6.15232,9.54448 0.75869,1.49093 1.43896,2.71148 1.51172,2.71232 0.0728,8.5e-4 0.0728,-3.24989 0,-7.22386 l -0.13229,-7.22541 -1.54016,-3.15983 c -1.64643,-3.37783 -3.98828,-7.34074 -6.04592,-10.23096 -1.21918,-1.71249 -1.2465,-1.79036 -0.72608,-2.06889 0.70206,-0.37572 0.87429,-0.22493 2.99085,2.61859 2.19195,2.9448 4.54647,6.69909 4.92979,7.86056 0.16515,0.5004 0.38033,0.90987 0.47819,0.90993 0.0978,6e-5 0.14527,-4.34572 0.10537,-9.65729 l -0.0725,-9.6574 h 0.92995 0.92995 l 0.0686,13.03073 0.0686,13.03073 0.77568,-1.71979 c 2.43544,-5.39968 6.11941,-11.84972 6.89724,-12.07596 0.14552,-0.0423 0.47386,0.0816 0.72966,0.27549 0.43454,0.3293 0.4024,0.45465 -0.48957,1.90927 -1.72468,2.81258 -7.43886,14.75543 -7.74535,16.18808 -0.16497,0.77114 -0.29995,3.10876 -0.29995,5.19469 v 3.79262 l 1.78593,0.18499 c 0.98227,0.10174 3.35987,0.4728 5.28357,0.82457 2.66087,0.48657 4.41738,0.63958 7.34219,0.63958 3.49178,0 3.89311,0.0486 4.37372,0.52917 0.60399,0.60399 0.66924,1.07701 0.21167,1.53458 -0.24123,0.24124 -5.02904,0.3175 -19.93194,0.3175 -10.78795,0 -19.69382,-0.0794 -19.79084,-0.17639 z"
       id="path1153" />
    <path
       style="fill:#1a3822;stroke-width:1.38904"
       d="m 174.18221,261.6307 c -0.38075,-0.38075 -0.14623,-1.40222 0.41165,-1.79298 0.46498,-0.32568 1.37172,-0.41188 4.3328,-0.41188 3.12688,0 4.38148,-0.13096 7.60379,-0.79375 2.12247,-0.43656 4.15957,-0.79375 4.52689,-0.79375 h 0.66785 l -0.54553,-1.38906 c -1.08127,-2.7532 -4.11808,-7.83947 -7.03805,-11.78786 -1.44541,-1.95448 -1.45269,-1.97376 -0.93957,-2.48689 0.51313,-0.51313 0.53011,-0.50108 2.18974,1.55407 2.22667,2.7573 4.46774,6.23402 6.15232,9.54448 0.75869,1.49093 1.43896,2.71143 1.51172,2.71222 0.25742,0.003 -0.004,-13.11369 -0.28466,-14.28654 -0.54537,-2.27845 -4.55608,-9.60728 -7.41639,-13.55206 -1.20661,-1.6641 -1.25664,-1.79557 -0.78025,-2.05052 0.27996,-0.14983 0.56991,-0.27242 0.64434,-0.27242 0.0744,0 0.90834,0.98995 1.85313,2.1999 2.23727,2.86515 5.11815,7.4205 5.50103,8.69841 0.16609,0.55437 0.37243,1.008 0.45854,1.00808 0.0861,7e-5 0.1226,-4.40524 0.0811,-9.78959 l -0.0755,-9.78972 h 0.93286 0.93286 l 0.0686,13.03073 c 0.0408,7.75383 0.16256,12.81644 0.30058,12.50156 2.28956,-5.22367 6.68837,-13.06973 7.44098,-13.27232 0.14552,-0.0392 0.47386,0.0874 0.72966,0.28123 0.43454,0.3293 0.4024,0.45465 -0.48957,1.90927 -1.50263,2.45046 -7.48673,14.80256 -7.77364,16.04599 -0.1423,0.61669 -0.26164,2.92308 -0.26519,5.12532 l -0.006,4.00408 1.78593,0.18499 c 0.98227,0.10174 3.35987,0.4728 5.28357,0.82457 2.66087,0.48657 4.41738,0.63958 7.34219,0.63958 3.49178,0 3.89311,0.0486 4.37372,0.52917 0.60399,0.60399 0.66924,1.07701 0.21167,1.53458 -0.24123,0.24124 -5.02904,0.3175 -19.93194,0.3175 -10.78795,0 -19.69382,-0.0794 -19.79084,-0.17639 z"
       id="path1140" />
    <path
       style="fill:#2c240e;stroke-width:1.38904"
       d="m 174.18223,261.6307 c -0.38075,-0.38075 -0.14623,-1.40222 0.41165,-1.79298 0.46498,-0.32568 1.37172,-0.41188 4.3328,-0.41188 3.10076,0 4.39878,-0.13343 7.54789,-0.77592 2.09173,-0.42676 4.12843,-0.81371 4.526,-0.8599 l 0.72284,-0.084 -0.86588,-1.98438 c -1.17347,-2.6893 -3.3908,-6.40392 -5.99032,-10.03537 -2.11966,-2.9611 -2.15046,-3.02645 -1.65854,-3.51838 0.49193,-0.49192 0.5298,-0.46588 2.03892,1.40192 2.27386,2.81431 4.69634,6.5411 6.27705,9.65673 0.7694,1.51651 1.45844,2.75794 1.5312,2.75873 0.0728,7.9e-4 0.0993,-3.005 0.059,-6.67953 -0.0536,-4.88265 -0.17752,-7.04567 -0.46048,-8.03586 -0.67196,-2.35149 -4.55351,-9.33588 -7.2725,-13.08602 -1.18278,-1.63133 -1.23102,-1.76039 -0.76646,-2.05052 0.27268,-0.17028 0.55046,-0.30961 0.61729,-0.30961 0.0668,0 0.89454,0.98995 1.83933,2.1999 2.23727,2.86515 5.11815,7.4205 5.50103,8.69841 0.16609,0.55437 0.37243,1.008 0.45854,1.00808 0.0861,7e-5 0.1226,-4.40524 0.0811,-9.78959 l -0.0755,-9.78972 h 0.93286 0.93286 l 0.0686,13.03073 c 0.0408,7.75383 0.16256,12.81644 0.30058,12.50156 2.28956,-5.22367 6.68837,-13.06973 7.44098,-13.27232 0.14552,-0.0392 0.47482,0.0881 0.73178,0.28278 0.43622,0.33052 0.39356,0.47468 -0.64312,2.17385 -1.5958,2.61557 -7.31926,14.46731 -7.62376,15.78674 -0.14145,0.6129 -0.26009,2.9162 -0.26364,5.11844 l -0.006,4.00408 1.78593,0.18499 c 0.98227,0.10174 3.35987,0.4728 5.28357,0.82457 2.66087,0.48657 4.41738,0.63958 7.34219,0.63958 3.49178,0 3.89311,0.0486 4.37372,0.52917 0.60399,0.60399 0.66924,1.07701 0.21167,1.53458 -0.24123,0.24124 -5.02904,0.3175 -19.93194,0.3175 -10.78795,0 -19.69382,-0.0794 -19.79084,-0.17639 z m 20.39234,-9.80197 c -0.0527,-0.84206 -0.0962,-0.22133 -0.0968,1.3794 -5.9e-4,1.60073 0.0425,2.28969 0.0958,1.53102 0.0533,-0.75867 0.0538,-2.06836 0.001,-2.91042 z m -0.004,-15.48304 c -0.0589,-0.47555 -0.10828,-0.15026 -0.10976,0.72286 -0.001,0.87313 0.0467,1.26221 0.10706,0.86464 0.0604,-0.39758 0.0616,-1.11196 0.003,-1.5875 z"
       id="path973" />
    <path
       style="fill:#122515;stroke-width:1.38904"
       d="m 174.18223,261.6307 c -0.34137,-0.34137 -0.17065,-1.15226 0.35278,-1.67569 0.4802,-0.4802 0.88195,-0.52917 4.34109,-0.52917 3.14559,0 4.49841,-0.13553 7.73907,-0.77535 2.15992,-0.42645 4.19003,-0.8134 4.51135,-0.8599 l 0.58421,-0.0845 -0.62988,-1.54365 c -0.96261,-2.35904 -3.61321,-6.83983 -6.11715,-10.34094 -2.21252,-3.09362 -2.24575,-3.16282 -1.75451,-3.65406 0.49124,-0.49123 0.52836,-0.4665 1.96034,1.30584 2.2093,2.7344 4.83909,6.77633 6.37604,9.79984 0.75789,1.49093 1.43751,2.71143 1.51027,2.71221 0.0728,7.9e-4 0.10179,-3.06453 0.0645,-6.81182 -0.0614,-6.16662 -0.12111,-6.96392 -0.62952,-8.40075 -0.91549,-2.58732 -4.85898,-9.56929 -7.20412,-12.75494 -1.10211,-1.49712 -1.1357,-1.59439 -0.65429,-1.89503 0.2791,-0.17431 0.61594,-0.24987 0.74852,-0.16793 0.39875,0.24644 3.79151,4.87884 5.24679,7.16384 0.74804,1.17454 1.56654,2.69258 1.81888,3.37344 0.25234,0.68085 0.52242,1.23797 0.60017,1.23805 0.0778,7e-5 0.10741,-4.40524 0.0659,-9.78959 l -0.0755,-9.78972 h 0.93286 0.93286 l 0.0686,13.03073 c 0.0579,10.99949 0.12256,12.907 0.41452,12.23698 2.15176,-4.93799 6.58476,-12.80794 7.32704,-13.00774 0.14552,-0.0392 0.47482,0.0881 0.73178,0.28278 0.43622,0.33052 0.39356,0.47468 -0.64312,2.17385 -1.5958,2.61557 -7.31926,14.46731 -7.62376,15.78674 -0.14145,0.6129 -0.26009,2.90949 -0.26364,5.10353 l -0.006,3.98917 2.57828,0.33731 c 1.41805,0.18553 3.74399,0.5633 5.16875,0.83949 1.83331,0.35538 3.74776,0.50216 6.54985,0.50216 3.60659,0 4.00651,0.0471 4.48853,0.52917 0.60399,0.60399 0.66924,1.07701 0.21167,1.53458 -0.24123,0.24124 -5.02904,0.3175 -19.93194,0.3175 -10.78795,0 -19.69382,-0.0794 -19.79084,-0.17639 z m 20.39234,-9.80197 c -0.0527,-0.84206 -0.0962,-0.22133 -0.0968,1.3794 -5.9e-4,1.60073 0.0425,2.28969 0.0958,1.53102 0.0533,-0.75867 0.0538,-2.06836 0.001,-2.91042 z m -0.004,-15.48304 c -0.0589,-0.47555 -0.10828,-0.15026 -0.10976,0.72286 -0.001,0.87313 0.0467,1.26221 0.10706,0.86464 0.0604,-0.39758 0.0616,-1.11196 0.003,-1.5875 z"
       id="path806" />
    <path
       style="fill:#0d2312;stroke-width:1.38904"
       d="m 174.18249,261.63106 c -0.34137,-0.34137 -0.17065,-1.15226 0.35278,-1.67569 0.4802,-0.4802 0.88195,-0.52917 4.34109,-0.52917 3.17579,0 4.47526,-0.13246 7.78678,-0.79375 2.18617,-0.43656 4.21599,-0.79375 4.51072,-0.79375 0.5162,0 0.52131,-0.0412 0.13941,-1.12364 -0.87667,-2.48474 -4.70068,-8.87689 -7.44894,-12.45151 -1.14075,-1.48377 -1.16532,-1.55435 -0.71436,-2.05266 0.43693,-0.4828 0.49836,-0.4877 0.95325,-0.076 0.62043,0.56149 0.64274,1.10554 0.0232,0.56583 -0.25466,-0.22184 -0.61207,-0.34936 -0.79424,-0.28338 -0.32071,0.11618 0.36104,1.23435 1.82057,2.98598 l 0.55115,0.66145 -0.55723,-1.00731 c -0.69662,-1.25929 -0.70879,-1.48219 -0.0369,-0.67564 0.2862,0.34354 0.52433,0.49425 0.52917,0.3349 0.0122,-0.4009 -0.91937,-1.20746 -1.13988,-0.98694 -0.0988,0.0988 -0.35328,-0.0497 -0.56543,-0.33015 -0.54626,-0.72204 -0.4942,-1.07168 0.0819,-0.55029 0.26647,0.24116 0.5473,0.37565 0.62408,0.29888 0.41776,-0.41777 5.50863,7.16625 7.34637,10.94411 0.6484,1.33292 1.27053,2.42348 1.38252,2.42348 0.11198,0 0.0875,-0.3054 -0.0544,-0.67868 -0.14208,-0.37369 -0.25804,-3.5813 -0.25804,-7.13771 0,-6.20407 -0.0255,-6.52679 -0.64624,-8.17594 -1.08397,-2.87983 -5.42023,-10.3981 -7.57066,-13.1261 l -0.74123,-0.94032 0.56108,-0.3504 c 0.50334,-0.31434 0.62622,-0.27204 1.19426,0.41115 2.61193,3.14143 5.66234,7.78642 6.58196,10.02264 0.2687,0.65338 0.54807,1.18848 0.62083,1.18911 0.0728,6.4e-4 0.097,-4.40423 0.054,-9.78859 l -0.0783,-9.78974 h 0.93822 0.93822 v 13.05278 c 0,7.17903 0.0893,13.14207 0.19843,13.25122 0.10915,0.10914 0.19844,0.32599 0.19844,0.48189 0,0.1559 0.21758,0.31539 0.4835,0.35442 0.33186,0.0487 0.43654,-0.0514 0.33376,-0.31925 -0.0824,-0.21461 -0.051,-0.3292 0.0696,-0.25463 0.2975,0.18386 1.94071,-3.51816 1.72007,-3.87517 -0.1036,-0.16761 -0.0505,-0.20639 0.12989,-0.0949 0.19354,0.11961 0.28103,0.0136 0.23932,-0.28985 -0.0362,-0.26312 0.0533,-0.5132 0.19883,-0.55574 0.41412,-0.12106 1.23272,-1.88945 1.02799,-2.22071 -0.10104,-0.16348 -0.0679,-0.22569 0.0736,-0.13823 0.14151,0.0875 0.58123,-0.50148 0.97715,-1.30875 0.60392,-1.23137 0.66495,-1.53803 0.3789,-1.90407 -0.30133,-0.38561 -0.28929,-0.39589 0.10362,-0.0885 0.37914,0.29663 0.48622,0.26998 0.7276,-0.18104 0.40708,-0.76063 0.34926,-0.94673 -0.16463,-0.52989 -0.25502,0.20686 -0.36702,0.22867 -0.26026,0.0507 0.10306,-0.17184 0.0834,-0.37671 -0.0437,-0.45525 -0.38674,-0.23902 -1.71943,2.45738 -1.403,2.83865 0.3523,0.4245 0.0321,0.91635 -0.53908,0.82809 -0.48803,-0.0754 -0.84938,0.55593 -0.57358,1.00218 0.0957,0.15487 0.0582,0.21003 -0.0833,0.12257 -0.33524,-0.20719 -1.74253,2.65986 -1.50715,3.0705 0.099,0.17272 0.0796,0.22276 -0.0432,0.1112 -0.28252,-0.25674 -0.97708,1.35156 -0.74551,1.72627 0.10835,0.1753 0.0423,0.19806 -0.17853,0.0616 -0.25657,-0.15857 -0.30376,-0.095 -0.1762,0.23745 0.11741,0.30596 0.0743,0.39224 -0.13229,0.26458 -0.20657,-0.12766 -0.24971,-0.0414 -0.13229,0.26458 0.0958,0.24971 0.0667,0.38757 -0.0647,0.30634 -0.13142,-0.0812 -0.30755,0.002 -0.3914,0.1847 -0.0838,0.1828 -0.0799,0.0347 0.009,-0.32908 0.55222,-2.2669 6.54445,-13.14844 7.3778,-13.39767 0.14376,-0.043 0.47163,0.0811 0.72859,0.27583 0.43621,0.33051 0.39354,0.4747 -0.64338,2.17385 -1.61336,2.64377 -7.3125,14.43806 -7.61931,15.76808 -0.14375,0.62316 -0.26428,2.92815 -0.26783,5.12219 l -0.006,3.98917 2.57828,0.33731 c 1.41805,0.18553 3.74399,0.5633 5.16875,0.83949 1.83331,0.35538 3.74776,0.50216 6.54985,0.50216 3.60659,0 4.00651,0.0471 4.48853,0.52917 0.60399,0.60399 0.66924,1.07701 0.21167,1.53458 -0.24123,0.24124 -5.02904,0.3175 -19.93194,0.3175 -10.78795,0 -19.69382,-0.0794 -19.79084,-0.17639 z m 20.50025,-8.54502 c 0.0215,-2.55202 0.0327,-5.39164 0.0249,-6.31025 -0.0126,-1.47134 0.029,-1.6131 0.34933,-1.19062 0.39436,0.52017 0.50151,0.98244 0.18198,0.78516 -0.10914,-0.0674 -0.21695,0.19348 -0.23957,0.5797 -0.0371,0.63308 0.0104,0.60207 0.48215,-0.31494 0.28781,-0.55944 0.45514,-1.0853 0.37186,-1.16858 -0.0833,-0.0833 -0.15142,0.004 -0.15142,0.19294 0,0.1894 -0.235,0.0456 -0.52223,-0.31953 -0.50322,-0.63975 -0.52306,-1.14151 -0.54548,-13.79402 -0.0227,-12.80651 -0.0359,-13.13011 -0.53611,-13.13011 -0.49818,0 -0.51273,0.27809 -0.5088,9.72343 0.003,6.32754 0.10065,9.86205 0.28064,10.12032 0.20438,0.29326 0.23047,0.16375 0.1,-0.49613 -0.1249,-0.63143 -0.0892,-0.83898 0.12174,-0.70859 0.35739,0.22089 0.2976,3.85055 -0.0634,3.85055 -0.13205,0 -0.17603,-0.24492 -0.0977,-0.54428 0.0905,-0.34626 0.0296,-0.50669 -0.16758,-0.44097 -0.17045,0.0568 -0.28015,0.18268 -0.24377,0.27969 0.0364,0.097 0.0661,0.35499 0.0661,0.57327 0,0.21828 0.17859,0.39687 0.39688,0.39687 0.29986,0 0.39687,0.32338 0.39687,1.32292 0,0.78896 -0.11794,1.32292 -0.29222,1.32292 -0.1936,0 -0.2408,-0.42411 -0.13984,-1.25678 0.0838,-0.69122 0.0566,-1.10331 -0.0605,-0.91575 -0.14553,0.23315 -0.3507,-0.01 -0.64866,-0.76842 -0.40856,-1.0401 -0.40719,-1.13292 0.022,-1.48512 0.25178,-0.20662 0.32141,-0.30799 0.15474,-0.22527 -0.17456,0.0866 -0.47725,-0.2696 -0.71397,-0.84027 -0.22602,-0.54488 -0.41707,-0.7753 -0.42457,-0.51205 -0.007,0.26325 -0.13133,0.40589 -0.27519,0.31699 -0.14977,-0.0926 -0.19446,0.0132 -0.10457,0.24745 0.0864,0.225 0.23381,0.36162 0.3277,0.30359 0.0939,-0.058 0.1865,0.15101 0.20579,0.46454 0.0193,0.31352 0.25474,1.10583 0.52322,1.76067 0.4162,1.0151 0.51033,2.22427 0.63856,8.20208 0.0827,3.8563 0.19345,6.77333 0.24606,6.48229 0.0526,-0.29104 0.0888,-0.68593 0.0804,-0.87753 -0.008,-0.1916 0.0583,-0.27487 0.14811,-0.18504 0.28082,0.28082 0.29545,2.78236 0.0163,2.78236 -0.14506,0 -0.19016,-0.11906 -0.10022,-0.26458 0.0899,-0.14552 0.0448,-0.26458 -0.10024,-0.26458 -0.14506,0 -0.24651,0.22887 -0.22544,0.5086 0.0236,0.31375 0.22006,0.4949 0.51272,0.47286 0.43516,-0.0328 0.47765,-0.4197 0.51355,-4.67579 z m -0.7509,-31.62754 c 0.001,-0.87313 0.0509,-1.19842 0.10977,-0.72287 0.0589,0.47555 0.0577,1.18992 -0.003,1.5875 -0.0604,0.39758 -0.10855,0.008 -0.10707,-0.86463 z m -3.92144,31.19125 c -1.01874,-1.5012 -1.10061,-1.46831 -0.23582,0.0947 0.42239,0.76345 0.80322,1.28281 0.84629,1.15415 0.0431,-0.12867 -0.23164,-0.69067 -0.61047,-1.24889 z m -1.17832,-1.9374 c -0.37223,-0.69552 -0.35288,-1.42036 0.0316,-1.18276 0.20573,0.12715 0.23472,0.0675 0.0888,-0.18282 -0.37361,-0.64072 -2.31942,-3.41432 -2.39531,-3.41432 -0.0398,0 -0.25928,0.0718 -0.48779,0.15943 -0.34701,0.13316 -0.2788,0.34973 0.41407,1.31453 0.45624,0.63531 0.93634,1.0891 1.06688,1.00842 0.32111,-0.19846 1.041,0.42503 0.84915,0.73545 -0.0904,0.14618 -0.30532,0.12098 -0.52529,-0.0616 -0.20479,-0.16997 -0.065,0.24097 0.31076,0.91319 0.64721,1.15798 1.22778,1.7953 0.64718,0.71045 z m -2.05492,-3.26146 c -0.36886,-0.477 -0.6147,-1.25521 -0.39348,-1.24554 0.34224,0.015 1.12297,1.27917 0.88196,1.42812 -0.12925,0.0799 -0.34906,-0.002 -0.48848,-0.18258 z m 5.1941,-11.12825 c -0.28101,-0.61676 -0.35563,-0.64931 -0.62961,-0.27461 -0.27064,0.37012 -0.35539,0.31748 -0.65555,-0.40718 -0.1896,-0.45774 -0.45594,-0.90098 -0.59186,-0.98498 -0.13591,-0.084 0.12741,0.58921 0.58517,1.49603 0.7325,1.45107 0.87896,1.6021 1.22147,1.25959 0.31813,-0.31814 0.33098,-0.5169 0.0704,-1.08885 z m -0.93218,-1.83342 c -0.68881,-1.33671 -3.48752,-5.42819 -3.86367,-5.64837 -0.18536,-0.1085 -0.12865,0.0409 0.12601,0.33206 0.25466,0.29113 0.46302,0.65033 0.46302,0.79822 0,0.14789 0.23531,0.48185 0.52293,0.74213 0.28761,0.26029 0.46688,0.56392 0.39839,0.67475 -0.0685,0.11082 0.0346,0.26257 0.22915,0.33721 0.30133,0.11564 1.47113,2.16869 1.23568,2.16869 -0.099,0 1.15365,1.44355 1.25866,1.45043 0.0401,0.003 -0.12646,-0.38217 -0.37017,-0.85512 z m 11.33755,-1.65364 c 0.10581,-0.14552 0.12778,-0.50271 0.0488,-0.79375 -0.10675,-0.39342 -0.0786,-0.43516 0.10989,-0.16269 0.20674,0.29889 0.30523,0.26977 0.53412,-0.15791 0.19971,-0.37317 0.1967,-0.60832 -0.0105,-0.81548 -0.21175,-0.21176 -0.49938,-0.004 -1.05514,0.76361 -0.73894,1.02007 -0.7942,1.62042 -0.13739,1.49263 0.17478,-0.034 0.40436,-0.18089 0.51018,-0.32641 z m -15.66122,-3.81907 c -0.364,-0.68014 -0.34562,-0.88662 0.0568,-0.63833 0.1819,0.11222 -0.0662,-0.29748 -0.5514,-0.91043 -0.48517,-0.61295 -1.05774,-1.11446 -1.27238,-1.11446 -0.21465,0 -0.31548,0.121 -0.22407,0.2689 0.0914,0.14789 0.29247,0.19085 0.44681,0.0955 0.16214,-0.10021 0.22657,-0.0182 0.15259,0.19412 -0.0704,0.20216 0.23198,0.87357 0.67199,1.49204 0.84368,1.18584 1.17928,1.47159 0.71962,0.6127 z"
       id="path627" />
    <path
       style="fill:#221705;stroke-width:1.38904"
       d="m 193.25787,255.72203 c -0.10715,-0.3638 -0.19645,-3.546 -0.19843,-7.07156 -0.003,-6.12279 -0.0322,-6.48599 -0.64084,-8.10305 -1.11308,-2.95718 -5.37931,-10.35872 -7.57968,-13.15007 l -0.74123,-0.94032 0.56108,-0.3504 c 0.50334,-0.31434 0.62622,-0.27204 1.19426,0.41115 2.61193,3.14143 5.66234,7.78642 6.58196,10.02264 0.2687,0.65338 0.54807,1.1884 0.62083,1.18894 0.0728,5.3e-4 0.11142,-4.40434 0.0859,-9.7886 l -0.0464,-9.78956 h 0.90629 0.90629 l -0.0636,13.03073 -0.0636,13.03073 -0.0712,-12.89844 c -0.0699,-12.65058 -0.0813,-12.89843 -0.59463,-12.89843 -0.51069,0 -0.52507,0.23547 -0.5928,9.70145 -0.0522,7.29674 -0.14866,9.72786 -0.38916,9.80798 -0.18362,0.0612 -0.64633,-0.60532 -1.08685,-1.56552 -1.42057,-3.09638 -6.29312,-10.00641 -7.05594,-10.00641 -0.23494,0 0.50106,1.3532 1.92438,3.53812 1.26766,1.94597 2.41253,3.47539 2.54415,3.39871 0.13163,-0.0767 0.16105,-0.0128 0.0654,0.14201 -0.0957,0.15479 0.47873,1.49901 1.27644,2.98716 2.6187,4.88525 2.61586,4.87328 2.72606,11.49754 0.11058,6.64708 0.0352,8.83697 -0.2687,7.8052 z"
       id="path488" />
    <path
       style="fill:#221705;stroke-width:1.38904"
       d="m 174.18221,261.63106 c -0.34137,-0.34137 -0.17065,-1.15226 0.35278,-1.67569 0.4802,-0.4802 0.88195,-0.52917 4.34109,-0.52917 3.17579,0 4.47526,-0.13246 7.78678,-0.79375 2.18617,-0.43656 4.21599,-0.79375 4.51072,-0.79375 0.5162,0 0.52131,-0.0412 0.13941,-1.12364 -0.87773,-2.48775 -4.70103,-8.87736 -7.45604,-12.46074 -1.18206,-1.53748 -1.18567,-1.54866 -0.66778,-2.06656 0.5179,-0.5179 0.52868,-0.51086 1.99233,1.30067 0.80938,1.00176 2.29331,3.06812 3.29761,4.59193 1.88428,2.85896 4.71872,8.11703 4.49579,8.33996 -0.0694,0.0694 -0.74628,-1.1011 -1.50416,-2.60114 -2.54567,-5.0386 -7.27477,-11.728 -8.07427,-11.4212 -0.21548,0.0827 -0.3247,0.25887 -0.24272,0.39151 0.082,0.13265 0.27829,0.16131 0.43624,0.0637 0.16488,-0.10191 0.21159,-0.0552 0.10968,0.10971 -0.0976,0.15795 0.57389,1.33721 1.49225,2.62056 2.85619,3.99137 5.87311,9.18338 6.51528,11.21259 0.28687,0.9065 0.34658,0.94245 1.59648,0.96131 l 1.29847,0.0196 0.0867,-4.79776 0.0867,-4.79776 2.59402,-5.42396 c 1.42672,-2.98317 3.37745,-6.83581 4.33495,-8.56142 1.31912,-2.37728 1.65729,-3.18915 1.39572,-3.35081 -0.62596,-0.38687 -2.94353,3.35617 -5.86033,9.46484 -0.99014,2.07367 -1.85744,3.77031 -1.92733,3.77031 -0.21701,0 0.3255,-1.23292 2.36955,-5.38504 1.90453,-3.86872 4.485,-8.11396 5.03092,-8.27657 0.14552,-0.0433 0.47482,0.0805 0.73178,0.27519 0.43621,0.33052 0.39355,0.47469 -0.6433,2.17385 -1.63443,2.67846 -7.30549,14.40618 -7.61467,15.74708 -0.14635,0.63472 -0.269,2.94915 -0.27255,5.14319 l -0.006,3.98917 2.57828,0.33731 c 1.41805,0.18553 3.74399,0.5633 5.16875,0.83949 1.83331,0.35538 3.74776,0.50216 6.54985,0.50216 3.60659,0 4.00651,0.0471 4.48853,0.52917 0.60399,0.60399 0.66924,1.07701 0.21167,1.53458 -0.24123,0.24124 -5.02904,0.3175 -19.93194,0.3175 -10.78795,0 -19.69382,-0.0794 -19.79084,-0.17639 z"
       id="path487" />
    <path
       style="fill:#1b1405;stroke-width:1.38904"
       d="m 193.25787,255.72167 c -0.10715,-0.3638 -0.19645,-3.546 -0.19843,-7.07156 -0.003,-6.12279 -0.0322,-6.48599 -0.64084,-8.10305 -1.11308,-2.95718 -5.37931,-10.35872 -7.57968,-13.15007 l -0.74123,-0.94032 0.56108,-0.3504 c 0.50334,-0.31434 0.62622,-0.27204 1.19426,0.41115 2.61193,3.14143 5.66234,7.78642 6.58196,10.02264 0.2687,0.65338 0.54807,1.1884 0.62083,1.18894 0.0728,5.3e-4 0.11142,-4.40434 0.0859,-9.7886 l -0.0464,-9.78956 h 0.90629 0.90629 l -0.0636,13.03073 -0.0636,13.03073 -0.0712,-12.89844 c -0.0699,-12.65058 -0.0813,-12.89843 -0.59463,-12.89843 -0.51069,0 -0.52507,0.23547 -0.5928,9.70145 -0.0522,7.29674 -0.14866,9.72786 -0.38916,9.80798 -0.18362,0.0612 -0.64633,-0.60532 -1.08685,-1.56552 -1.42057,-3.09638 -6.29312,-10.00641 -7.05594,-10.00641 -0.23494,0 0.50106,1.3532 1.92438,3.53812 1.26766,1.94597 2.41253,3.47539 2.54415,3.39871 0.13163,-0.0767 0.16105,-0.0128 0.0654,0.14201 -0.0957,0.15479 0.47873,1.49901 1.27644,2.98716 2.6187,4.88525 2.61586,4.87328 2.72606,11.49754 0.11058,6.64708 0.0352,8.83697 -0.2687,7.8052 z"
       id="path327" />
    <path
       style="fill:#1b1405;stroke-width:1.38904"
       d="m 174.18221,261.6307 c -0.34137,-0.34137 -0.17065,-1.15226 0.35278,-1.67569 0.48122,-0.48122 0.88277,-0.52927 4.43177,-0.53025 3.29976,-9.2e-4 4.49523,-0.12337 7.73906,-0.79267 2.11006,-0.43537 4.09907,-0.79206 4.42004,-0.79266 0.5723,-10e-4 0.57591,-0.0228 0.18713,-1.12473 -0.87773,-2.48775 -4.70103,-8.87736 -7.45604,-12.46074 -1.18206,-1.53748 -1.18567,-1.54866 -0.66778,-2.06656 0.5179,-0.5179 0.52868,-0.51086 1.99233,1.30067 0.80938,1.00176 2.29331,3.06812 3.29761,4.59193 1.88428,2.85896 4.71872,8.11703 4.49579,8.33996 -0.0694,0.0694 -0.74628,-1.1011 -1.50416,-2.60114 -2.54567,-5.0386 -7.27477,-11.728 -8.07427,-11.4212 -0.21548,0.0827 -0.3247,0.25887 -0.24272,0.39151 0.082,0.13265 0.27829,0.16131 0.43624,0.0637 0.17295,-0.10689 0.21094,-0.0541 0.0955,0.13267 -0.10754,0.174 0.14811,0.74367 0.58232,1.29765 2.43138,3.102 6.25038,9.47024 7.32749,12.2187 l 0.60401,1.54124 -1.35768,0.17631 c -0.74672,0.097 -2.78642,0.47572 -4.53267,0.84165 -2.43807,0.51091 -3.97334,0.6665 -6.61458,0.67035 -3.77574,0.006 -4.97986,0.13651 -4.74515,0.51629 0.0849,0.13728 -0.003,0.21689 -0.19612,0.1769 -0.19824,-0.0411 -0.3504,0.15709 -0.3504,0.45647 0,0.51932 0.18064,0.5294 9.70605,0.54191 5.33832,0.007 9.64753,-0.0819 9.57602,-0.19764 -0.0715,-0.11571 0.18219,-0.0917 0.56378,0.0534 0.97896,0.3722 1.19274,0.33077 1.02795,-0.19923 -0.13079,-0.42065 -0.11798,-0.42291 0.13993,-0.0247 0.25514,0.39395 1.19484,0.43817 9.28039,0.43672 l 8.9965,-0.002 v -0.61954 c 0,-0.34075 -0.10577,-0.68491 -0.23504,-0.7648 -0.38593,-0.23852 -9.29635,-0.35425 -9.43952,-0.1226 -0.0726,0.11743 -0.32781,0.13837 -0.56717,0.0465 -0.38246,-0.14677 -0.37353,-0.18864 0.0737,-0.3455 0.36613,-0.12844 0.15683,-0.23129 -0.74617,-0.36671 -0.69027,-0.10351 -1.39284,-0.10303 -1.56128,0.001 -0.17735,0.10961 -0.23503,0.0741 -0.13706,-0.0845 0.15682,-0.25372 -1.03999,-0.48589 -5.20101,-1.00893 l -1.27713,-0.16054 0.0865,-4.94167 0.0865,-4.94167 2.59402,-5.42396 c 1.42672,-2.98317 3.37745,-6.83581 4.33495,-8.56142 1.31912,-2.37728 1.65729,-3.18915 1.39572,-3.35081 -0.62596,-0.38687 -2.94353,3.35617 -5.86033,9.46484 -0.99014,2.07367 -1.85744,3.77031 -1.92733,3.77031 -0.21701,0 0.3255,-1.23292 2.36955,-5.38504 1.90453,-3.86872 4.485,-8.11396 5.03092,-8.27657 0.14552,-0.0433 0.47482,0.0805 0.73178,0.27519 0.43621,0.33052 0.39355,0.47469 -0.6433,2.17385 -1.63443,2.67846 -7.30549,14.40618 -7.61467,15.74708 -0.14635,0.63472 -0.269,2.95503 -0.27255,5.15626 l -0.006,4.00222 2.57968,0.32084 c 1.41883,0.17645 3.69413,0.54834 5.05621,0.82641 1.75821,0.35895 3.57584,0.50559 6.26663,0.50559 4.07452,0 5.00279,0.18567 5.27899,1.05588 0.43357,1.36607 1.05067,1.32537 -20.09585,1.32537 -10.79923,0 -19.71434,-0.0794 -19.81136,-0.17639 z"
       id="path324" />
    <path
       style="fill:#051706;stroke-width:1.38904"
       d="m 193.25787,255.72167 c -0.10715,-0.3638 -0.19645,-3.53008 -0.19843,-7.03618 -0.003,-5.62143 -0.0645,-6.55162 -0.51867,-7.87174 -0.90993,-2.64476 -5.46363,-10.57739 -7.70185,-13.41676 -0.73971,-0.93839 -0.7401,-0.94103 -0.18873,-1.28536 0.4997,-0.31207 0.63743,-0.24749 1.44125,0.67573 1.4833,1.70363 5.48542,7.80206 6.1798,9.41678 0.35876,0.83426 0.71182,1.51885 0.78458,1.52132 0.0728,0.002 0.11334,-4.40082 0.0902,-9.78507 l -0.0421,-9.78955 h 0.90203 0.90203 l -0.0636,13.03073 -0.0636,13.03073 -0.0712,-12.89844 c -0.0699,-12.65058 -0.0813,-12.89843 -0.59463,-12.89843 -0.51069,0 -0.52507,0.23547 -0.5928,9.70145 -0.0522,7.29674 -0.14866,9.72786 -0.38916,9.80798 -0.18427,0.0614 -0.64427,-0.60919 -1.08563,-1.58258 -1.35937,-2.99803 -6.29852,-9.98935 -7.05716,-9.98935 -0.23494,0 0.50106,1.3532 1.92438,3.53812 1.26766,1.94597 2.41253,3.47539 2.54415,3.39871 0.13163,-0.0767 0.16105,-0.0128 0.0654,0.14201 -0.0957,0.15479 0.47873,1.49901 1.27644,2.98716 2.6187,4.88525 2.61586,4.87328 2.72606,11.49754 0.11058,6.64708 0.0352,8.83697 -0.2687,7.8052 z"
       id="path171" />
    <path
       style="fill:#051706;stroke-width:1.38904"
       d="m 190.88619,255.71984 c -1.18967,-2.61896 -3.69557,-6.83816 -5.81322,-9.78775 -2.53121,-3.52563 -2.41408,-3.28681 -1.85855,-3.78956 0.45553,-0.41225 0.56178,-0.33882 1.94765,1.34603 0.80621,0.98014 2.2932,3.03755 3.30444,4.57203 1.89463,2.87496 4.73193,8.13583 4.50839,8.35937 -0.0694,0.0694 -0.74628,-1.1011 -1.50416,-2.60114 -2.54567,-5.0386 -7.27477,-11.728 -8.07427,-11.4212 -0.21548,0.0827 -0.3247,0.25887 -0.24272,0.39151 0.082,0.13265 0.27829,0.16131 0.43624,0.0637 0.16488,-0.10191 0.21159,-0.0552 0.10968,0.10971 -0.0976,0.15795 0.57389,1.33721 1.49225,2.62056 2.8264,3.94973 5.63732,8.74601 6.41122,10.93949 0.64728,1.8346 0.30904,1.45588 -0.71695,-0.80274 z"
       id="path168" />
    <path
       style="fill:#051706;stroke-width:1.38904"
       d="m 195.56937,258.13446 -0.79375,-0.17047 v -4.89145 -4.89146 l 2.59402,-5.42396 c 1.42672,-2.98317 3.37745,-6.83581 4.33495,-8.56142 1.31912,-2.37728 1.65729,-3.18915 1.39572,-3.35081 -0.62596,-0.38687 -2.94353,3.35617 -5.86033,9.46484 -0.99014,2.07367 -1.85744,3.77031 -1.92733,3.77031 -0.21443,0 0.2876,-1.13873 2.35759,-5.3476 1.91967,-3.90325 4.49627,-8.15119 5.04288,-8.31401 0.14552,-0.0433 0.47809,0.0829 0.73904,0.2805 0.44987,0.34068 0.4379,0.41222 -0.23095,1.3801 -1.12826,1.6327 -7.72614,15.19732 -8.02685,16.50246 -0.15043,0.6529 -0.27643,2.98887 -0.27998,5.19105 l -0.006,4.00395 1.78593,0.2596 c 1.27719,0.18565 1.48446,0.26091 0.72761,0.26422 -0.58208,0.003 -1.41552,-0.0721 -1.85208,-0.16585 z"
       id="path164" />
    <path
       style="fill:#051706;stroke-width:1.38904"
       d="m 174.18221,261.6307 c -0.34137,-0.34137 -0.17065,-1.15226 0.35278,-1.67569 0.48212,-0.48212 0.88195,-0.52917 4.49694,-0.52917 3.22273,0 4.55172,-0.12395 7.07761,-0.6601 1.7104,-0.36305 3.40748,-0.65222 3.77128,-0.64259 0.36381,0.01 -1.00541,0.36183 -3.0427,0.78267 -3.10578,0.64156 -4.34936,0.76674 -7.69806,0.77489 -3.62556,0.009 -4.03723,0.0576 -4.46386,0.52903 -0.25848,0.28562 -0.39974,0.70234 -0.31389,0.92604 0.13846,0.36084 2.36277,0.40673 19.71524,0.40673 18.06186,0 19.5722,-0.034 19.72948,-0.44385 0.097,-0.25289 -0.008,-0.62285 -0.24518,-0.8599 -0.33597,-0.3364 -1.2119,-0.42953 -4.57589,-0.48649 -3.11376,-0.0527 -4.95859,-0.23058 -7.33328,-0.70698 -1.74509,-0.3501 -2.91376,-0.64582 -2.59703,-0.65716 0.31672,-0.0113 1.78399,0.2175 3.26059,0.50854 1.92876,0.38017 3.75603,0.52917 6.48929,0.52917 3.97294,0 5.01831,0.21911 5.30144,1.11118 0.41327,1.3021 0.92043,1.27007 -20.1134,1.27007 -10.79923,0 -19.71434,-0.0794 -19.81136,-0.17639 z"
       id="path159" />
    <path
       style="fill:#010200;stroke-width:1.38904"
       d="m 193.42142,224.36855 c 5.2e-4,-1.74625 0.0433,-2.42619 0.0951,-1.51098 0.0518,0.9152 0.0514,2.34395 -9.5e-4,3.175 -0.0523,0.83104 -0.0947,0.0822 -0.0942,-1.66402 z"
       id="path62" />
    <path
       style="fill:#010200;stroke-width:1.38904"
       d="m 193.24499,231.44616 c -0.20781,-0.38668 -0.21031,-2.71198 -0.003,-2.71182 0.11585,8e-5 0.22692,0.65493 0.24684,1.4552 0.035,1.40478 -0.0179,1.67715 -0.24392,1.25662 z"
       id="path61" />
    <path
       style="fill:#010200;stroke-width:1.38904"
       d="m 193.11168,233.62897 c 0.01,-1.69891 0.0262,-1.75382 0.20194,-0.66396 0.10536,0.65346 0.10069,1.4869 -0.0104,1.85208 -0.13539,0.44515 -0.19852,0.0536 -0.19157,-1.18812 z"
       id="path56" />
    <path
       style="fill:#010200;stroke-width:1.38904"
       d="m 199.03706,236.07636 c 0.81306,-1.61689 3.46143,-5.75468 3.68327,-5.75468 0.16855,0 0.20298,-0.0579 -1.49439,2.51354 -0.67238,1.01864 -1.53758,2.47716 -1.92265,3.24114 -0.38507,0.76399 -0.75966,1.38907 -0.83242,1.38907 -0.0728,0 0.18203,-0.62508 0.56619,-1.38907 z"
       id="path54" />
    <path
       style="fill:#010200;stroke-width:1.38904"
       d="m 199.93904,237.65906 c -0.002,-0.11178 0.77279,-1.59586 1.72225,-3.29794 0.94947,-1.70209 1.66991,-3.24168 1.60098,-3.42131 -0.0755,-0.19684 0.0235,-0.2695 0.2492,-0.18288 0.29545,0.11338 0.20616,0.43173 -0.42296,1.50788 -0.43862,0.75029 -1.20352,2.13806 -1.69979,3.08395 -1.00463,1.91483 -1.44362,2.61443 -1.44968,2.3103 z"
       id="path52" />
    <path
       style="fill:#010200;stroke-width:1.38904"
       d="m 195.99243,242.36022 c 0,-0.14552 0.46446,-1.15755 1.03214,-2.24896 0.56768,-1.09141 1.03215,-1.86531 1.03215,-1.71979 0,0.14552 -0.46447,1.15755 -1.03215,2.24896 -0.56768,1.0914 -1.03214,1.86531 -1.03214,1.71979 z"
       id="path51" />
    <path
       style="fill:#010200;stroke-width:1.38904"
       d="m 194.64332,231.13219 v -12.68324 l -0.85989,-0.10671 c -0.84662,-0.10506 -0.84458,-0.10736 0.13229,-0.14905 l 0.99219,-0.0423 v 12.83229 c 0,7.05776 -0.0595,12.8323 -0.13229,12.8323 -0.0728,0 -0.1323,-5.70746 -0.1323,-12.68324 z"
       id="path49" />
    <path
       style="fill:#010200;stroke-width:1.38904"
       d="m 193.17985,243.11904 c -0.47789,-2.18049 -1.16242,-3.85734 -2.80508,-6.87135 -1.91285,-3.5098 -5.2895,-8.84407 -5.94027,-9.38416 -0.33299,-0.27635 -0.31295,-0.37161 0.14573,-0.69288 0.48568,-0.34019 0.60435,-0.28984 1.3687,0.58071 2.72779,3.10677 6.84231,9.58027 6.84231,10.7652 0,0.18195 -0.3993,-0.49927 -0.88734,-1.51381 -1.05333,-2.18966 -4.15742,-6.88319 -5.73649,-8.67382 -1.69311,-1.91997 -1.91893,-1.17501 -0.31695,1.04559 1.75002,2.42579 4.87035,7.75329 6.13054,10.46699 0.92207,1.98556 1.72213,4.67938 1.46589,4.93563 -0.0554,0.0554 -0.17557,-0.24074 -0.26704,-0.6581 z"
       id="path48" />
    <path
       style="fill:#010200;stroke-width:1.38904"
       d="m 186.28249,247.58574 c -0.28757,-0.40018 -0.99281,-1.37702 -1.56719,-2.17074 -0.57439,-0.79373 -0.90484,-1.35692 -0.73434,-1.25154 0.25888,0.15999 2.10323,2.66053 2.81695,3.81915 0.38199,0.62012 0.009,0.33291 -0.51542,-0.39687 z"
       id="path44" />
    <path
       style="fill:#010200;stroke-width:1.38904"
       d="m 193.07638,250.15716 c 0.0265,-2.83311 0.12988,-5.37755 0.22978,-5.65431 0.0999,-0.27676 0.13601,1.98348 0.0802,5.02277 -0.0558,3.03928 -0.15919,5.58373 -0.22978,5.65431 -0.0706,0.0706 -0.10668,-2.18966 -0.0802,-5.02277 z"
       id="path36" />
    <path
       style="fill:#010200;stroke-width:1.38904"
       d="m 191.33481,253.40285 c -2.63939,-5.07584 -7.30204,-11.51637 -8.0173,-11.07432 -0.22912,0.1416 -0.19971,0.37777 0.11272,0.90538 l 0.4227,0.71381 -0.56477,-0.63307 c -0.54026,-0.6056 -0.54462,-0.65533 -0.10047,-1.14611 0.45668,-0.50462 0.47454,-0.50075 1.08924,0.2362 1.54276,1.84958 3.84837,5.05818 5.17029,7.19523 1.49755,2.42096 3.44031,6.11361 3.29363,6.26029 -0.0464,0.0464 -0.67911,-1.05944 -1.40604,-2.45741 z"
       id="path34" />
    <path
       style="fill:#010200;stroke-width:1.38904"
       d="m 191.22365,256.43218 c -0.51831,-1.27702 -2.54558,-5.08854 -3.82571,-7.1928 l -0.48288,-0.79375 0.6769,0.78276 c 0.79341,0.91748 4.56835,8.27074 4.35531,8.48378 -0.0798,0.0798 -0.40548,-0.49614 -0.72362,-1.27999 z"
       id="path31" />
    <path
       style="fill:#010200;stroke-width:1.38904"
       d="m 195.56937,258.13419 -0.79375,-0.17075 0.0117,-4.89118 0.0117,-4.89118 1.80415,-3.70417 c 0.99228,-2.03729 2.09339,-4.34404 2.4469,-5.12611 0.35352,-0.78208 0.69774,-1.36697 0.76494,-1.29977 0.0672,0.0672 -0.87788,2.20026 -2.10018,4.74013 -1.2223,2.53987 -2.35323,5.08929 -2.51317,5.66539 -0.15994,0.57609 -0.29147,2.90876 -0.29228,5.18369 l -0.001,4.13625 1.78593,0.2596 c 1.27719,0.18565 1.48446,0.26091 0.72761,0.26422 -0.58208,0.003 -1.41552,-0.0722 -1.85208,-0.16612 z"
       id="path28" />
    <path
       style="fill:#010200;stroke-width:1.38904"
       d="m 179.82666,259.40817 c 3.2211,-0.13064 5.35081,-0.35783 6.99805,-0.74651 1.30232,-0.30729 2.67154,-0.55022 3.04271,-0.53984 0.37117,0.0104 -0.99201,0.36319 -3.0293,0.78403 -3.21059,0.66321 -4.233,0.76017 -7.67292,0.72764 l -3.96875,-0.0375 z"
       id="path27" />
    <path
       style="fill:#010200;stroke-width:1.38904"
       d="m 174.09503,261.39334 c -0.19733,-0.51424 0.31912,-1.70292 0.73988,-1.70292 0.18472,0 0.1202,0.21113 -0.15871,0.51932 -0.25848,0.28562 -0.39974,0.70234 -0.31389,0.92604 0.13846,0.36084 2.36277,0.40673 19.71524,0.40673 18.06186,0 19.5722,-0.034 19.72948,-0.44385 0.097,-0.25289 -0.008,-0.62285 -0.24518,-0.8599 -0.33597,-0.3364 -1.2119,-0.42953 -4.57589,-0.48649 -3.11376,-0.0527 -4.95859,-0.23058 -7.33328,-0.70698 -1.74509,-0.3501 -2.91376,-0.64582 -2.59703,-0.65716 0.31672,-0.0113 1.78399,0.2175 3.26059,0.50854 1.89571,0.37365 3.75603,0.52917 6.32997,0.52917 3.88982,0 5.19083,0.26071 5.45504,1.09315 0.41993,1.32309 0.96755,1.2881 -20.16009,1.2881 -17.61262,0 -19.70409,-0.0436 -19.84613,-0.41375 z"
       id="path22" />
  </g>
</svg>
