<?xml version="1.0" encoding="UTF-8" standalone="no"?>
<!-- Created with Inkscape (http://www.inkscape.org/) -->

<svg
   width="185"
   height="185"
   viewBox="0 0 48.947914 48.947918"
   version="1.1"
   id="svg1"
   xmlns="http://www.w3.org/2000/svg"
   xmlns:svg="http://www.w3.org/2000/svg">
  <defs
     id="defs1" />
  <g
     id="g1356"
     style="display:inline;stroke-width:1.42816"
     transform="matrix(0.70020133,0,0,0.70020133,-34.18591,-24.714001)">
    <path
       style="fill:#f4f0da;stroke-width:1.42816"
       d="m 62.946977,104.99838 c -0.509116,-0.20543 -0.392028,-1.35097 0.198437,-1.94144 0.509836,-0.50984 0.881945,-0.52917 10.186458,-0.52917 h 9.657291 v -0.79375 c 0,-0.78458 -0.01661,-0.79375 -1.437984,-0.79375 -2.341083,0 -3.281152,-0.61242 -3.727351,-2.42825 -0.14823,-0.603228 -0.05459,-0.770256 0.630401,-1.124479 1.074222,-0.555502 2.357318,-0.52494 3.552948,0.08463 l 0.981986,0.500645 0.0026,-0.831374 c 0.0038,-1.227566 1.136003,-3.442896 2.151756,-4.210302 0.66292,-0.50084 3.219509,-1.515863 3.818078,-1.515863 0.03055,0 0.247062,0.478659 0.481144,1.063687 0.52906,1.32225 0.548174,3.223482 0.04224,4.201842 -0.587933,1.136938 -2.070647,2.301145 -3.561245,2.796242 l -1.347062,0.447422 v 1.30165 1.30165 h 9.748576 c 9.10824,0 9.77734,0.0318 10.18646,0.48386 0.5144,0.5684 0.56844,1.39642 0.12038,1.84448 -0.24185,0.24185 -5.206386,0.31252 -20.835937,0.29661 -11.28514,-0.0115 -20.667264,-0.0809 -20.849165,-0.15434 z"
       id="path1351" />
    <path
       style="fill:#d7ceaf;stroke-width:1.42816"
       d="m 62.933747,104.85627 c -0.471505,-0.47151 -0.385573,-1.20193 0.211667,-1.79917 0.509836,-0.50984 0.881945,-0.52917 10.186458,-0.52917 h 9.657291 v -0.79375 c 0,-0.78458 -0.01661,-0.79375 -1.437984,-0.79375 -2.359825,0 -3.266696,-0.60278 -3.697543,-2.457706 -0.154124,-0.663549 -0.07202,-0.779439 0.814659,-1.149918 1.092936,-0.456658 2.742304,-0.323663 3.691789,0.297683 0.537946,0.352033 0.568317,0.318077 0.722658,-0.807969 0.353726,-2.580705 1.791993,-4.21884 4.349001,-4.953353 1.396373,-0.401115 1.400954,-0.40047 1.832337,0.257904 0.571733,0.872575 0.760232,3.300109 0.335818,4.324736 -0.465555,1.123948 -2.266241,2.58835 -3.692216,3.002682 l -1.198727,0.348303 -0.07997,1.362568 -0.07997,1.36257 h 9.762403 c 9.121642,0 9.791152,0.0318 10.200292,0.48386 0.5144,0.5684 0.56844,1.39642 0.12038,1.84448 -0.45971,0.45971 -41.238627,0.45971 -41.698337,0 z"
       id="path1323" />
    <path
       style="fill:#fcd135;stroke-width:1.42816"
       d="m 62.933747,104.85627 c -0.471505,-0.47151 -0.385573,-1.20193 0.211667,-1.79917 0.509836,-0.50984 0.881945,-0.52917 10.186458,-0.52917 h 9.657291 v -0.7582 c 0,-0.75068 -0.0186,-0.75953 -1.877361,-0.89252 -2.157172,-0.15434 -2.789957,-0.59058 -3.145896,-2.168772 -0.214732,-0.952092 -0.189687,-1.002899 0.671815,-1.362857 1.183223,-0.494382 1.87757,-0.464396 3.205251,0.138423 l 1.102767,0.500699 0.17661,-1.284106 c 0.355663,-2.585976 2.238067,-4.494293 4.844371,-4.911058 0.912238,-0.145873 1.100093,-0.08925 1.368657,0.41257 0.171209,0.319908 0.375843,1.207114 0.454742,1.97157 0.250305,2.42522 -1.103903,4.275543 -3.820972,5.22079 l -1.260192,0.438411 -0.07997,1.34753 -0.07997,1.34752 h 9.762403 c 9.121642,0 9.791152,0.0318 10.200292,0.48386 0.5144,0.5684 0.56844,1.39642 0.12038,1.84448 -0.45971,0.45971 -41.238627,0.45971 -41.698337,0 z"
       id="path1312" />
    <path
       style="fill:#a4a892;stroke-width:1.42816"
       d="m 62.933747,104.85627 c -0.471505,-0.47151 -0.385573,-1.20193 0.211667,-1.79917 0.509836,-0.50984 0.881945,-0.52917 10.186458,-0.52917 h 9.657291 v -0.7582 c 0,-0.75068 -0.0186,-0.75953 -1.877361,-0.89252 -2.157172,-0.15434 -2.789957,-0.59058 -3.145896,-2.168772 -0.214732,-0.952092 -0.189687,-1.002899 0.671815,-1.362857 1.183223,-0.494382 1.87757,-0.464396 3.205251,0.138423 l 1.102767,0.500699 0.17661,-1.284106 c 0.355663,-2.585976 2.238067,-4.494293 4.844371,-4.911058 0.912238,-0.145873 1.100093,-0.08925 1.368657,0.41257 0.171209,0.319908 0.375843,1.207114 0.454742,1.97157 0.250305,2.42522 -1.103903,4.275543 -3.820972,5.22079 l -1.260192,0.438411 -0.07997,1.34753 -0.07997,1.34752 h 9.762403 c 9.121642,0 9.791152,0.0318 10.200292,0.48386 0.5144,0.5684 0.56844,1.39642 0.12038,1.84448 -0.45971,0.45971 -41.238627,0.45971 -41.698337,0 z"
       id="path1301" />
    <path
       style="fill:#f0ac2a;stroke-width:1.42816"
       d="m 63.079268,104.88681 c -0.616103,-0.35728 -0.586466,-1.1771 0.06615,-1.82971 0.509836,-0.50984 0.881945,-0.52917 10.186458,-0.52917 h 9.657291 v -0.79375 c 0,-0.7572 -0.05178,-0.79381 -1.124479,-0.79522 -1.846417,-0.002 -3.060092,-0.45968 -3.505305,-1.320624 -0.590987,-1.142843 -0.512347,-2.045101 0.198014,-2.271863 0.967627,-0.308886 2.718398,-0.188886 3.554836,0.243653 l 0.778741,0.402702 0.310423,-1.50276 c 0.170732,-0.826518 0.605185,-1.936513 0.965452,-2.466656 0.750909,-1.104985 2.510506,-2.055837 3.974855,-2.147933 0.928127,-0.05837 1.030322,0.0072 1.345397,0.862871 0.496051,1.34721 0.451788,2.793255 -0.11978,3.913145 -0.677211,1.326877 -1.292787,1.835781 -3.114,2.574379 l -1.544362,0.626321 -0.07997,1.337865 -0.07997,1.33787 h 9.641807 c 8.951484,0 9.684644,0.0347 10.240174,0.48453 0.46319,0.37507 0.55833,0.64403 0.42114,1.19062 l -0.17722,0.7061 -3.50068,0.0242 c -29.092757,0.20154 -37.685161,0.19103 -38.094962,-0.0466 z"
       id="path1288" />
    <path
       style="fill:#8e8e76;stroke-width:1.42816"
       d="m 63.079268,104.88681 c -0.616103,-0.35728 -0.586466,-1.1771 0.06615,-1.82971 0.509836,-0.50984 0.881945,-0.52917 10.186458,-0.52917 h 9.657291 v -0.79375 c 0,-0.7572 -0.05178,-0.79381 -1.124479,-0.79522 -1.846417,-0.002 -3.060092,-0.45968 -3.505305,-1.320624 -0.590987,-1.142843 -0.512347,-2.045101 0.198014,-2.271863 0.967627,-0.308886 2.718398,-0.188886 3.554836,0.243653 l 0.778741,0.402702 0.310423,-1.50276 c 0.170732,-0.826518 0.605185,-1.936513 0.965452,-2.466656 0.750909,-1.104985 2.510506,-2.055837 3.974855,-2.147933 0.928127,-0.05837 1.030322,0.0072 1.345397,0.862871 0.496051,1.34721 0.451788,2.793255 -0.11978,3.913145 -0.677211,1.326877 -1.292787,1.835781 -3.114,2.574379 l -1.544362,0.626321 -0.07997,1.337865 -0.07997,1.33787 h 9.641807 c 8.951484,0 9.684644,0.0347 10.240174,0.48453 0.46319,0.37507 0.55833,0.64403 0.42114,1.19062 l -0.17722,0.7061 -3.50068,0.0242 c -29.092757,0.20154 -37.685161,0.19103 -38.094962,-0.0466 z"
       id="path1274" />
    <path
       style="fill:#76876e;stroke-width:1.42816"
       d="m 62.792636,104.73279 c -0.353327,-0.35332 -0.162234,-1.06758 0.435977,-1.62957 0.605438,-0.56878 0.720661,-0.57529 10.186457,-0.57529 h 9.574093 v -0.75549 c 0,-0.73403 -0.04706,-0.75988 -1.656906,-0.91021 -0.911299,-0.0851 -1.868203,-0.23581 -2.126453,-0.33491 -0.5837,-0.22398 -1.243724,-1.46093 -1.243724,-2.33085 0,-0.520762 0.174739,-0.693414 0.859896,-0.849626 1.190953,-0.271529 2.511853,-0.159245 3.374513,0.286854 l 0.727758,0.376338 0.298774,-1.518641 c 0.521675,-2.651624 2.107806,-4.196147 4.807886,-4.681764 0.834632,-0.150111 0.976144,-0.0914 1.25502,0.520665 1.37195,3.011102 0.09148,5.728817 -3.304979,7.014582 -1.270643,0.481016 -1.272078,0.48296 -1.351966,1.832292 l -0.07997,1.35076 h 9.671118 c 9.31834,0 9.69042,0.0193 10.20028,0.52917 0.56632,0.56632 0.6205,0.77705 0.36857,1.43357 -0.14456,0.37672 -2.24041,0.41851 -20.990274,0.41851 -11.456323,0 -20.909053,-0.0794 -21.006067,-0.17639 z"
       id="path1263" />
    <path
       style="fill:#8c7447;stroke-width:1.42816"
       d="m 62.792636,104.73279 c -0.353327,-0.35332 -0.162234,-1.06758 0.435977,-1.62957 0.605438,-0.56878 0.720661,-0.57529 10.186457,-0.57529 h 9.574093 v -0.75549 c 0,-0.73403 -0.04706,-0.75988 -1.656906,-0.91021 -2.140292,-0.19986 -2.51509,-0.35863 -2.983088,-1.263637 -0.529508,-1.023956 -0.485452,-1.7619 0.124684,-2.088434 0.744592,-0.398494 2.835549,-0.335192 3.700373,0.112026 l 0.746285,0.385919 0.287822,-1.43317 c 0.536677,-2.672314 2.175772,-4.289124 4.832957,-4.767251 0.889982,-0.160141 0.974973,-0.114495 1.322916,0.710495 0.204508,0.484897 0.371832,1.485638 0.371832,2.223869 0,2.306962 -1.532275,3.928826 -4.696354,4.970945 -0.359415,0.118376 -0.463021,0.450378 -0.463021,1.483718 v 1.33122 h 9.657291 c 9.304516,0 9.676626,0.0193 10.186456,0.52917 0.56632,0.56632 0.6205,0.77705 0.36857,1.43357 -0.14456,0.37672 -2.24041,0.41851 -20.990277,0.41851 -11.456323,0 -20.909053,-0.0794 -21.006067,-0.17639 z"
       id="path1250" />
    <path
       style="fill:#5f6851;stroke-width:1.42816"
       d="m 62.704,104.49165 c -0.08812,-0.22965 0.07725,-0.73566 0.367492,-1.12448 l 0.527715,-0.70695 9.694978,-0.0694 9.694978,-0.0694 v -0.75223 c 0,-0.73003 -0.04889,-0.75679 -1.656906,-0.90695 -2.140292,-0.19986 -2.51509,-0.35863 -2.983088,-1.263637 -0.529508,-1.023956 -0.485452,-1.7619 0.124684,-2.088434 0.744592,-0.398494 2.835549,-0.335192 3.700373,0.112026 l 0.746285,0.385919 0.287822,-1.43317 c 0.536677,-2.672314 2.175772,-4.289124 4.832957,-4.767251 0.889982,-0.160141 0.974973,-0.114495 1.322916,0.710495 0.204508,0.484897 0.371832,1.485638 0.371832,2.223869 0,2.306962 -1.532275,3.928826 -4.696354,4.970945 -0.359415,0.118376 -0.463021,0.450378 -0.463021,1.483718 v 1.33122 l 2.844271,0.0549 c 1.564349,0.0302 5.776098,0.0174 9.359443,-0.0284 3.583343,-0.0458 6.768393,-0.003 7.077883,0.0953 0.71008,0.22536 1.17057,1.06375 0.95585,1.74025 -0.16188,0.51007 -0.53121,0.51917 -21.05733,0.51917 -18.786541,0 -20.908708,-0.0421 -21.05278,-0.41753 z"
       id="path1237" />
    <path
       style="fill:#544e33;stroke-width:1.42816"
       d="m 62.704,104.49165 c -0.08812,-0.22965 0.07729,-0.73566 0.367584,-1.12448 l 0.527808,-0.70695 h 9.62874 9.628739 l 0.187183,-0.63878 c 0.102951,-0.35134 0.136063,-0.72151 0.07358,-0.8226 -0.06248,-0.10109 -0.889357,-0.26329 -1.837504,-0.36043 -2.20634,-0.22604 -2.462827,-0.33454 -2.930965,-1.239817 -0.529508,-1.023956 -0.485452,-1.7619 0.124684,-2.088434 0.746577,-0.399556 2.678204,-0.331816 3.553366,0.124613 0.416817,0.217384 0.793904,0.395245 0.837972,0.395245 0.04407,0 0.209071,-0.601263 0.366674,-1.336138 0.630929,-2.941924 2.018565,-4.339339 4.816134,-4.850077 0.8941,-0.16323 0.981209,-0.118331 1.309884,0.67516 0.193649,0.46751 0.357954,1.460605 0.365122,2.206878 0.02207,2.29803 -1.165437,3.60506 -4.418738,4.86347 -0.656271,0.253853 -0.727604,0.408369 -0.727604,1.57608 v 1.29463 l 3.441845,0.19036 c 1.893014,0.10469 6.048505,0.10413 9.234424,-0.001 3.185922,-0.10539 6.098502,-0.11483 6.472392,-0.021 0.80502,0.20205 1.31959,1.03471 1.08879,1.76187 -0.16188,0.51007 -0.53121,0.51917 -21.057334,0.51917 -18.786541,0 -20.908708,-0.0421 -21.05278,-0.41753 z"
       id="path1224" />
    <path
       style="fill:#335c41;stroke-width:1.42816"
       d="m 62.792636,104.73279 c -0.340291,-0.34029 -0.170555,-0.91183 0.457241,-1.53962 l 0.633629,-0.63363 9.514099,0.15774 9.514099,0.15774 0.146687,-0.76735 c 0.08068,-0.42204 0.101454,-0.84054 0.04617,-0.92999 -0.05529,-0.0895 -0.876277,-0.24213 -1.824424,-0.33927 -2.20634,-0.22604 -2.462827,-0.33454 -2.930965,-1.239817 -0.529508,-1.023956 -0.485452,-1.7619 0.124684,-2.088434 0.746577,-0.399556 2.678204,-0.331816 3.553366,0.124613 0.416817,0.217384 0.795329,0.395245 0.841138,0.395245 0.04581,0 0.213681,-0.628093 0.373048,-1.395761 0.354672,-1.708446 1.009977,-2.827122 2.177932,-3.717964 0.714223,-0.544765 2.524407,-1.194799 3.424706,-1.229807 0.356635,-0.01387 0.866573,1.74944 0.878962,3.039355 0.02207,2.29803 -1.165437,3.60506 -4.418738,4.86347 -0.674112,0.260754 -0.727604,0.390818 -0.727604,1.76914 v 1.48769 l 9.659261,-0.14593 c 9.654363,-0.14585 9.659523,-0.14563 10.192943,0.42692 0.29353,0.31507 0.47124,0.73559 0.39491,0.93451 -0.0763,0.19891 -0.13878,0.47098 -0.13878,0.6046 0,0.27855 -41.61425,0.34466 -41.892361,0.0665 z"
       id="path1211" />
    <path
       style="fill:#32573b;stroke-width:1.42816"
       d="m 62.792636,104.73279 c -0.340291,-0.34029 -0.170555,-0.91183 0.457241,-1.53962 l 0.633629,-0.63363 9.514099,0.15774 9.514099,0.15774 0.146687,-0.76735 c 0.08068,-0.42204 0.100749,-0.84168 0.0446,-0.93253 -0.05615,-0.0909 -0.9084,-0.24674 -1.893895,-0.34643 -1.890049,-0.19119 -2.437696,-0.4506 -2.939216,-1.392237 -0.45531,-0.854876 -0.374648,-1.616646 0.203972,-1.926314 0.746577,-0.399556 2.678204,-0.331816 3.553366,0.124613 1.032355,0.53841 1.085927,0.516786 1.152478,-0.465177 0.09746,-1.438032 0.851681,-3.039358 1.840408,-3.907473 1.020823,-0.896294 1.565177,-1.151279 3.027894,-1.41832 0.872783,-0.159339 0.982863,-0.109787 1.240228,0.558282 1.20204,3.120261 0.01321,5.703179 -3.148015,6.839561 -1.287713,0.4629 -1.437001,0.599243 -1.572178,1.435855 -0.08215,0.50842 -0.08283,1.20448 -0.0015,1.54682 l 0.147855,0.62243 9.589788,-0.14689 c 9.587014,-0.14685 9.589934,-0.14672 10.124084,0.42662 0.29386,0.31542 0.47185,0.73624 0.39552,0.93516 -0.0763,0.19891 -0.13878,0.47098 -0.13878,0.6046 0,0.27855 -41.614249,0.34466 -41.89236,0.0665 z"
       id="path1198" />
    <path
       style="fill:#2b5136;stroke-width:1.42816"
       d="m 62.792636,104.73279 c -0.340291,-0.34029 -0.170555,-0.91183 0.457241,-1.53962 l 0.633629,-0.63363 9.514099,0.15774 9.514099,0.15774 0.146687,-0.76735 c 0.08068,-0.42204 0.09858,-0.84519 0.03978,-0.94033 -0.0588,-0.0951 -0.911054,-0.25395 -1.893895,-0.35289 -1.893905,-0.19067 -2.438148,-0.44625 -2.934391,-1.377977 -0.45531,-0.854876 -0.374648,-1.616646 0.203972,-1.926314 0.746577,-0.399556 2.678204,-0.331816 3.553366,0.124613 1.054376,0.549895 1.110374,0.521594 1.181181,-0.596943 0.07673,-1.212187 1.112263,-3.398179 1.566701,-3.307291 0.181901,0.03638 0.300963,-0.08268 0.264583,-0.264584 -0.07455,-0.372727 1.874493,-1.390246 3.162308,-1.65092 0.838422,-0.169709 0.851656,-0.156169 1.276825,1.306361 0.45458,1.5637 0.358752,2.737803 -0.309541,3.792574 -0.21039,0.332059 -0.494995,0.534234 -0.632456,0.449279 -0.142393,-0.088 -0.174548,0.04198 -0.07473,0.302086 0.135761,0.353788 0.07243,0.417117 -0.281356,0.281356 -0.251103,-0.09636 -0.392147,-0.07099 -0.313431,0.05638 0.20732,0.335451 -0.345208,0.718811 -1.831224,1.270557 -1.123236,0.417049 -1.332584,0.608965 -1.486801,1.363003 -0.09872,0.48269 -0.09932,1.17738 -0.0013,1.54377 l 0.178159,0.66617 9.583929,-0.1468 c 9.58096,-0.14675 9.58409,-0.14662 10.11823,0.42671 0.29386,0.31542 0.47185,0.73624 0.39552,0.93516 -0.0763,0.19891 -0.13878,0.47098 -0.13878,0.6046 0,0.27855 -41.614253,0.34466 -41.892364,0.0665 z"
       id="path1185" />
    <path
       style="fill:#294d33;stroke-width:1.42816"
       d="m 62.792636,104.73279 c -0.340291,-0.34029 -0.170555,-0.91183 0.457241,-1.53962 l 0.633629,-0.63363 9.514099,0.15774 9.514099,0.15774 0.146687,-0.76735 c 0.08068,-0.42204 0.09858,-0.84519 0.03978,-0.94033 -0.0588,-0.0951 -0.911054,-0.25395 -1.893895,-0.35289 -1.893905,-0.19067 -2.438148,-0.44625 -2.934391,-1.377977 -0.45531,-0.854876 -0.374648,-1.616646 0.203972,-1.926314 0.746577,-0.399556 2.678204,-0.331816 3.553366,0.124613 1.094409,0.570773 1.225872,0.507092 1.232338,-0.596943 0.01356,-2.31535 1.62549,-4.254347 4.145825,-4.987029 1.690443,-0.491425 1.731945,-0.462955 2.206051,1.513342 0.602075,2.509732 -0.877987,4.839702 -3.624214,5.705374 -1.477958,0.465885 -1.458396,0.434905 -1.514499,2.398524 l -0.02835,0.99218 h 9.84358 c 9.533326,0 9.856236,0.0167 10.245146,0.52917 0.22087,0.29104 0.3454,0.68773 0.27674,0.88154 -0.0687,0.1938 -0.12484,0.46169 -0.12484,0.59531 0,0.27855 -41.61425,0.34466 -41.892361,0.0665 z m 21.295298,-4.00546 c 0.07736,-0.811184 0.0056,-1.013665 -0.369084,-1.041891 -0.530194,-0.03994 -0.625435,0.725621 -0.191211,1.536971 0.381922,0.71363 0.450833,0.65274 0.560295,-0.49508 z m -2.267466,-0.54516 c -0.07788,-0.12601 -0.446262,-0.17086 -0.818636,-0.0997 -0.432729,0.0827 -0.881064,-0.0494 -1.24242,-0.366211 -0.310957,-0.272601 -0.478352,-0.346809 -0.371989,-0.164908 0.106363,0.181901 0.08004,0.330729 -0.0585,0.330729 -0.442825,0 -0.584534,-0.820103 -0.206952,-1.197685 0.200539,-0.200539 0.444615,-0.284619 0.542391,-0.186843 0.09778,0.09777 0.09921,-0.02696 0.0032,-0.277183 -0.193902,-0.5053 0.08499,-0.559885 1.4578,-0.285323 0.629012,0.125802 0.757195,0.234798 0.496094,0.421834 -0.262658,0.188152 -0.234481,0.214374 0.11095,0.103254 0.254662,-0.08192 0.463021,-0.05346 0.463021,0.06324 0,0.1167 0.196845,0.212182 0.437432,0.212182 0.352991,0 0.325253,-0.09084 -0.143694,-0.470567 -0.704793,-0.570707 -3.001731,-0.97455 -3.142416,-0.552494 -0.05276,0.158278 -0.254785,0.226819 -0.448945,0.152313 -0.19416,-0.07451 -0.423166,-0.02196 -0.508904,0.116763 -0.272841,0.441467 0.41181,1.933436 0.995383,2.169099 0.74236,0.2998 2.616998,0.32401 2.436199,0.0315 z m 4.163962,-1.250878 c 0.680597,-0.231903 1.311487,-0.541438 1.401979,-0.687855 0.09049,-0.146418 -0.09727,-0.126105 -0.417242,0.04514 -0.319973,0.171245 -0.757244,0.244018 -0.971712,0.161719 -0.219157,-0.0841 -0.319144,-0.03508 -0.228294,0.111918 0.08891,0.143854 0.0453,0.261553 -0.09691,0.261553 -0.142207,0 -0.437708,0.06874 -0.656667,0.152768 -0.277689,0.106559 -0.374544,0.0065 -0.320202,-0.330729 0.04285,-0.265924 -0.04044,-0.632326 -0.185095,-0.814227 -0.177492,-0.2232 -0.169144,-0.330729 0.02567,-0.330729 0.158772,0 0.220406,-0.17791 0.136964,-0.395355 -0.217298,-0.566271 -0.562373,-0.25645 -0.506754,0.454982 0.02588,0.331007 -0.06165,0.824559 -0.194501,1.096781 -0.167646,0.343513 -0.152522,0.439927 0.04943,0.315114 0.16004,-0.09891 0.290981,-0.05375 0.290981,0.100363 0,0.373548 0.214071,0.355443 1.67235,-0.141443 z m -2.139916,-1.395261 c -0.08734,-0.595104 0.018,-0.852912 0.440989,-1.079291 0.676873,-0.362251 0.713959,-0.723435 0.09272,-0.903023 -0.254662,-0.07362 -0.08432,-0.09404 0.378534,-0.04537 0.558104,0.05868 0.891661,-0.0421 0.990318,-0.299195 0.08182,-0.21322 0.255225,-0.321877 0.385344,-0.241459 0.130118,0.08042 0.220256,-0.06086 0.200306,-0.313959 -0.02679,-0.339804 0.136747,-0.442662 0.625185,-0.393227 0.370257,0.03747 0.52698,-0.02077 0.355995,-0.132292 -0.168006,-0.109581 -0.305464,-0.3183 -0.305464,-0.463821 0,-0.145521 0.137458,-0.365112 0.305464,-0.48798 0.191531,-0.140073 0.132765,-0.167842 -0.157558,-0.07445 -0.254661,0.08192 -0.46302,0.0475 -0.46302,-0.07649 0,-0.25977 1.350336,-0.565991 1.657825,-0.375952 0.113098,0.0699 -0.06482,0.352643 -0.395367,0.628322 -0.33055,0.275679 -0.452172,0.505196 -0.270271,0.510037 0.181901,0.0048 0.330729,-0.11026 0.330729,-0.255781 0,-0.145521 0.171567,-0.264583 0.38126,-0.264583 0.492259,0 0.71903,-0.37655 0.527445,-0.875814 -0.123061,-0.320691 -0.333374,-0.344422 -1.125338,-0.126978 -2.261885,0.621028 -3.737052,1.829242 -3.138174,2.570273 0.248563,0.307563 0.238748,0.342009 -0.04821,0.169202 -0.22166,-0.133483 -0.449183,-0.07667 -0.591261,0.147649 -0.33886,0.534993 -0.292757,0.708666 0.223967,0.8437 0.348432,0.09105 0.315693,0.128596 -0.132292,0.151692 -0.52582,0.02711 -0.595312,0.1715 -0.595312,1.236932 0,0.663432 0.09921,1.144924 0.220469,1.069983 0.121258,-0.07494 0.16883,-0.488098 0.105715,-0.918125 z M 84.9793,94.599756 c -0.333669,-0.539887 1.160794,-1.681592 1.659447,-1.267747 0.302742,0.251254 0.270599,0.338669 -0.18674,0.50785 -0.303835,0.112396 -0.552427,0.334282 -0.552427,0.49308 0,0.158798 -0.108894,0.221424 -0.241986,0.139169 -0.133091,-0.08226 -0.289887,-0.0058 -0.348433,0.169791 -0.07833,0.234996 -0.16546,0.223864 -0.329861,-0.04214 z m 3.688866,2.4428 c 0.50839,-0.748163 0.670997,-1.325226 0.670997,-2.38125 0,-0.766584 -0.119063,-1.393789 -0.264584,-1.393789 -0.14552,0 -0.264583,0.126089 -0.264583,0.280198 0,0.154109 -0.106586,0.214324 -0.236859,0.133811 -0.130272,-0.08051 -0.301998,0.02336 -0.381614,0.230838 -0.100768,0.262599 0.01064,0.347299 0.366632,0.27874 0.439955,-0.08473 0.50574,0.04563 0.47096,0.933246 -0.02224,0.567451 -0.140164,0.970088 -0.262065,0.89475 -0.1219,-0.07534 -0.221637,-0.0039 -0.221637,0.158833 0,0.166233 -0.144876,0.208775 -0.330729,0.09712 -0.252615,-0.151766 -0.250458,-0.09958 0.0091,0.220937 0.279779,0.345446 0.268085,0.491409 -0.06615,0.82564 -0.223305,0.223304 -0.406008,0.474043 -0.406008,0.557198 0,0.352182 0.286679,0.0906 0.916503,-0.83627 z m -2.011741,-1.393789 c 0.103884,0 0.206214,-0.230123 0.2274,-0.511384 0.03748,-0.497565 0.02415,-0.497013 -0.493319,0.02046 -0.345245,0.345246 -0.463883,0.687114 -0.338146,0.974405 0.178228,0.407221 0.20254,0.405587 0.304441,-0.02046 0.06091,-0.254662 0.195741,-0.463021 0.299624,-0.463021 z"
       id="path1166" />
    <path
       style="fill:#1a3822;stroke-width:1.42816"
       d="m 62.792636,104.73279 c -0.340291,-0.34029 -0.170555,-0.91183 0.457241,-1.53962 l 0.633629,-0.63363 9.552828,0.15838 9.552829,0.15838 0.0441,-0.57106 c 0.02425,-0.31408 0.05402,-0.75906 0.06615,-0.98884 0.01736,-0.32902 -0.34332,-0.44232 -1.697743,-0.53331 -2.005979,-0.13476 -2.921303,-0.67902 -3.287128,-1.954582 -0.208468,-0.726885 -0.165948,-0.929546 0.262403,-1.250676 0.690668,-0.517786 3.354699,-0.339264 4.027831,0.269913 0.728314,0.659115 0.848372,0.563939 0.854788,-0.677624 0.01265,-2.447483 1.569984,-4.370503 4.145825,-5.119321 1.702907,-0.495048 1.755815,-0.457063 2.192768,1.574302 0.188632,0.876933 0.190871,1.600191 0.0071,2.282785 -0.360905,1.340298 -2.160024,2.975262 -3.770015,3.426031 -1.095343,0.306677 -1.266421,0.45343 -1.407929,1.207732 -0.08859,0.47225 -0.120991,1.14212 -0.07199,1.4886 l 0.08909,0.62997 h 9.84358 c 9.533327,0 9.856237,0.0167 10.245147,0.52917 0.22087,0.29104 0.3454,0.68773 0.27674,0.88154 -0.0687,0.1938 -0.12484,0.46169 -0.12484,0.59531 0,0.27855 -41.614251,0.34466 -41.892362,0.0665 z m 21.25486,-3.67746 c 0,-1.073381 0.460346,-1.663124 1.525854,-1.954753 2.484792,-0.680085 3.76321,-2.184902 3.764824,-4.431548 5.44e-4,-0.757137 -0.130751,-1.665751 -0.291767,-2.019141 -0.286349,-0.628469 -0.321447,-0.634959 -1.604058,-0.296613 -0.721217,0.190253 -1.58804,0.52724 -1.926274,0.748859 -0.981872,0.643348 -1.758197,2.154168 -1.921893,3.740232 -0.08332,0.807261 -0.235921,1.519932 -0.339119,1.583712 -0.103199,0.06378 -0.647137,-0.118304 -1.208752,-0.404632 -1.030997,-0.525632 -2.1323,-0.646487 -3.224335,-0.353833 -0.696043,0.186532 -0.747329,0.623882 -0.197779,1.686594 0.420235,0.812643 1.110652,1.052293 3.340797,1.159593 0.905596,0.0436 1.213117,0.18198 1.417638,0.63802 0.350637,0.78184 0.664864,0.73623 0.664864,-0.0965 z"
       id="path1149" />
    <path
       style="fill:#2c240e;stroke-width:1.42816"
       d="m 83.284866,97.029331 c -0.03757,-1.048266 0.575856,-2.59791 1.370571,-3.462378 0.667199,-0.725759 2.446847,-1.61208 3.228518,-1.607904 0.291041,0.0016 -0.09619,0.218863 -0.860513,0.482907 -2.191061,0.756926 -3.098459,1.855498 -3.501715,4.239468 -0.176307,1.042297 -0.210193,1.092068 -0.236861,0.347907 z"
       id="path1103" />
    <path
       style="fill:#2c240e;stroke-width:1.42816"
       d="m 80.211038,97.50085 -1.322916,-0.181449 1.190625,-0.03752 c 0.654843,-0.02063 1.369218,0.0779 1.5875,0.218965 0.218281,0.141064 0.277812,0.239598 0.132291,0.218965 -0.145521,-0.02063 -0.859896,-0.119168 -1.5875,-0.218965 z"
       id="path1102" />
    <path
       style="fill:#2c240e;stroke-width:1.42816"
       d="m 85.767288,99.131116 c 0.825702,-0.272009 1.750063,-0.861056 2.459406,-1.56725 0.62507,-0.622295 1.022269,-0.920814 0.882665,-0.663376 -0.668118,1.232051 -3.197941,2.791195 -4.367524,2.691729 -0.163605,-0.01391 0.297849,-0.22141 1.025453,-0.461103 z"
       id="path1101" />
    <path
       style="fill:#2c240e;stroke-width:1.42816"
       d="m 78.882517,100.07668 c -0.80754,-0.694613 -1.059998,-2.308735 -0.39127,-2.501634 0.320693,-0.09251 0.327961,-0.06617 0.03786,0.137193 -0.440138,0.308546 -0.190601,1.713724 0.389883,2.195483 0.216553,0.179718 0.833978,0.412378 1.372055,0.517018 l 0.978323,0.19026 -0.845142,0.0304 c -0.530517,0.0191 -1.104457,-0.19262 -1.541713,-0.56874 z"
       id="path1100" />
    <path
       style="fill:#2c240e;stroke-width:1.42816"
       d="m 62.792636,104.73279 c -0.340291,-0.34029 -0.170555,-0.91183 0.457241,-1.53962 l 0.633629,-0.63363 9.511514,0.15769 9.511515,0.1577 0.176353,-0.88177 c 0.167575,-0.83787 0.195556,-0.85639 0.562067,-0.37193 0.379409,0.5015 0.386361,0.50118 0.425431,-0.0193 0.02565,-0.34177 0.100194,-0.24807 0.210488,0.26458 l 0.17077,0.79375 h 9.839943 c 9.529693,0 9.852603,0.0167 10.241513,0.52917 0.22087,0.29104 0.3454,0.68773 0.27674,0.88154 -0.0687,0.1938 -0.12484,0.46169 -0.12484,0.59531 0,0.27855 -41.614253,0.34466 -41.892364,0.0665 z"
       id="path1099" />
    <path
       style="fill:#122515;stroke-width:1.42816"
       d="m 83.284866,97.029331 c -0.03757,-1.048266 0.575856,-2.59791 1.370571,-3.462378 0.667199,-0.725759 2.446847,-1.61208 3.228518,-1.607904 0.291041,0.0016 -0.09619,0.218863 -0.860513,0.482907 -2.191061,0.756926 -3.098459,1.855498 -3.501715,4.239468 -0.176307,1.042297 -0.210193,1.092068 -0.236861,0.347907 z"
       id="path936" />
    <path
       style="fill:#122515;stroke-width:1.42816"
       d="m 80.211038,97.50085 -1.322916,-0.181449 1.190625,-0.03752 c 0.654843,-0.02063 1.369218,0.0779 1.5875,0.218965 0.218281,0.141064 0.277812,0.239598 0.132291,0.218965 -0.145521,-0.02063 -0.859896,-0.119168 -1.5875,-0.218965 z"
       id="path935" />
    <path
       style="fill:#122515;stroke-width:1.42816"
       d="m 85.767288,99.131116 c 0.825702,-0.272009 1.750063,-0.861056 2.459406,-1.56725 0.62507,-0.622295 1.022269,-0.920814 0.882665,-0.663376 -0.668118,1.232051 -3.197941,2.791195 -4.367524,2.691729 -0.163605,-0.01391 0.297849,-0.22141 1.025453,-0.461103 z"
       id="path934" />
    <path
       style="fill:#122515;stroke-width:1.42816"
       d="m 78.882517,100.07668 c -0.80754,-0.694613 -1.059998,-2.308735 -0.39127,-2.501634 0.320693,-0.09251 0.327961,-0.06617 0.03786,0.137193 -0.440138,0.308546 -0.190601,1.713724 0.389883,2.195483 0.216553,0.179718 0.833978,0.412378 1.372055,0.517018 l 0.978323,0.19026 -0.845142,0.0304 c -0.530517,0.0191 -1.104457,-0.19262 -1.541713,-0.56874 z"
       id="path933" />
    <path
       style="fill:#122515;stroke-width:1.42816"
       d="m 62.770844,104.47503 c -0.213276,-0.55579 0.511901,-1.67431 1.108274,-1.70941 0.251306,-0.0148 4.636856,-0.004 9.745665,0.0237 l 9.288744,0.0506 0.172858,-0.86429 c 0.16443,-0.82215 0.191662,-0.83943 0.55857,-0.35445 0.379409,0.5015 0.386361,0.50118 0.425431,-0.0193 0.02563,-0.3415 0.100165,-0.24767 0.210165,0.26458 l 0.170445,0.79375 9.718897,0.006 c 9.523657,0.006 9.730087,0.0173 10.275857,0.56307 0.46122,0.46123 0.50531,0.65345 0.2565,1.11836 l -0.30046,0.5614 H 83.66962 c -18.975758,0 -20.746289,-0.0368 -20.898776,-0.43415 z m 21.408944,-0.0214 c -11.519813,-0.18445 -21.034642,-0.18783 -21.034514,-0.007 7.7e-5,0.10914 5.744905,0.17168 12.766285,0.13897 7.02138,-0.0327 10.742083,-0.0919 8.268229,-0.1315 z m 8.14392,-0.002 c -0.614072,-0.0555 -1.685635,-0.0562 -2.381249,-10e-4 -0.695615,0.0547 -0.193192,0.10009 1.116495,0.10089 1.309688,8.1e-4 1.878827,-0.0439 1.264754,-0.0994 z m 9.252432,-0.004 c -1.49159,-0.0472 -3.932368,-0.0472 -5.423957,0 -1.491588,0.0472 -0.271198,0.0858 2.711979,0.0858 2.983178,0 4.203568,-0.0386 2.711978,-0.0858 z m -34.387847,-1.31891 c -0.614073,-0.0555 -1.685635,-0.0561 -2.38125,-0.001 -0.695615,0.0547 -0.193191,0.10008 1.116496,0.10089 1.309687,8e-4 1.878827,-0.0439 1.264754,-0.0994 z m 12.311149,-0.004 c -1.992107,-0.0449 -5.325857,-0.045 -7.408333,-2.4e-4 -2.082476,0.0448 -0.45257,0.0815 3.622013,0.0816 4.074583,1.3e-4 5.778427,-0.0365 3.78632,-0.0814 z m 16.933678,-8e-5 c -2.137438,-0.0444 -5.709312,-0.0445 -7.937499,-2.2e-4 -2.228188,0.0443 -0.479375,0.0807 3.88625,0.0808 4.365625,1.1e-4 6.188687,-0.0361 4.051249,-0.0806 z"
       id="path930" />
    <path
       style="fill:#0d2312;stroke-width:1.42816"
       d="m 83.282736,96.897039 c -0.03654,-0.927735 0.613176,-2.503898 1.372701,-3.330086 0.667199,-0.725759 2.446847,-1.61208 3.228518,-1.607904 0.291041,0.0016 -0.09619,0.218863 -0.860513,0.482907 -2.142114,0.740017 -3.039078,1.789383 -3.493371,4.086921 -0.168136,0.85033 -0.225012,0.934992 -0.247335,0.368162 z"
       id="path763" />
    <path
       style="fill:#0d2312;stroke-width:1.42816"
       d="m 80.211038,97.50085 -1.322916,-0.181449 1.190625,-0.03752 c 0.654843,-0.02063 1.369218,0.0779 1.5875,0.218965 0.218281,0.141064 0.277812,0.239598 0.132291,0.218965 -0.145521,-0.02063 -0.859896,-0.119168 -1.5875,-0.218965 z"
       id="path762" />
    <path
       style="fill:#0d2312;stroke-width:1.42816"
       d="m 62.770844,104.47503 c -0.213276,-0.55579 0.511901,-1.67431 1.108274,-1.70941 0.251306,-0.0148 4.653874,-0.004 9.783483,0.024 9.301512,0.0508 9.326562,0.0495 9.326562,-0.50227 0,-0.72684 0.374917,-0.70537 0.735411,0.0421 l 0.287108,0.59531 0.03468,-0.66146 0.03468,-0.66146 0.249042,0.62169 0.249042,0.62168 9.651352,-0.0899 c 9.537382,-0.0888 9.657962,-0.0833 10.211782,0.47056 0.46445,0.46444 0.50898,0.6566 0.25999,1.12184 l -0.30046,0.5614 H 83.66962 c -18.975758,0 -20.746289,-0.0368 -20.898776,-0.43415 z m 21.408944,-0.0214 c -11.519813,-0.18445 -21.034642,-0.18783 -21.034514,-0.007 7.7e-5,0.10914 5.744905,0.17168 12.766285,0.13897 7.02138,-0.0327 10.742083,-0.0919 8.268229,-0.1315 z m 8.14392,-0.002 c -0.614072,-0.0555 -1.685635,-0.0562 -2.381249,-10e-4 -0.695615,0.0547 -0.193192,0.10009 1.116495,0.10089 1.309688,8.1e-4 1.878827,-0.0439 1.264754,-0.0994 z m 9.252432,-0.004 c -1.49159,-0.0472 -3.932368,-0.0472 -5.423957,0 -1.491588,0.0472 -0.271198,0.0858 2.711979,0.0858 2.983178,0 4.203568,-0.0386 2.711978,-0.0858 z m -34.387847,-1.31891 c -0.614073,-0.0555 -1.685635,-0.0561 -2.38125,-0.001 -0.695615,0.0547 -0.193191,0.10008 1.116496,0.10089 1.309687,8e-4 1.878827,-0.0439 1.264754,-0.0994 z m 12.311149,-0.004 c -1.992107,-0.0449 -5.325857,-0.045 -7.408333,-2.4e-4 -2.082476,0.0448 -0.45257,0.0815 3.622013,0.0816 4.074583,1.3e-4 5.778427,-0.0365 3.78632,-0.0814 z m 16.933678,-8e-5 c -2.137438,-0.0444 -5.709312,-0.0445 -7.937499,-2.2e-4 -2.228188,0.0443 -0.479375,0.0807 3.88625,0.0808 4.365625,1.1e-4 6.188687,-0.0361 4.051249,-0.0806 z"
       id="path759" />
    <path
       style="fill:#221705;stroke-width:1.42816"
       d="m 62.770844,104.47503 c -0.213276,-0.55579 0.511901,-1.67431 1.108274,-1.70941 0.251306,-0.0148 4.653874,-0.004 9.783483,0.024 9.301512,0.0508 9.326562,0.0495 9.326562,-0.50227 0,-0.73414 0.419167,-0.70716 0.654156,0.0421 l 0.186706,0.59531 0.189823,-0.66146 0.189822,-0.66146 0.165669,0.62186 0.165669,0.62186 9.670409,-0.09 c 9.556913,-0.089 9.676983,-0.0835 10.230843,0.47038 0.46445,0.46444 0.50898,0.6566 0.25999,1.12184 l -0.30046,0.5614 H 83.66962 c -18.975758,0 -20.746289,-0.0368 -20.898776,-0.43415 z m 21.408944,-0.0214 c -11.519813,-0.18445 -21.034642,-0.18783 -21.034514,-0.007 7.7e-5,0.10914 5.744905,0.17168 12.766285,0.13897 7.02138,-0.0327 10.742083,-0.0919 8.268229,-0.1315 z m 8.14392,-0.002 c -0.614072,-0.0555 -1.685635,-0.0562 -2.381249,-10e-4 -0.695615,0.0547 -0.193192,0.10009 1.116495,0.10089 1.309688,8.1e-4 1.878827,-0.0439 1.264754,-0.0994 z m 9.252432,-0.004 c -1.49159,-0.0472 -3.932368,-0.0472 -5.423957,0 -1.491588,0.0472 -0.271198,0.0858 2.711979,0.0858 2.983178,0 4.203568,-0.0386 2.711978,-0.0858 z m -34.387847,-1.31891 c -0.614073,-0.0555 -1.685635,-0.0561 -2.38125,-0.001 -0.695615,0.0547 -0.193191,0.10008 1.116496,0.10089 1.309687,8e-4 1.878827,-0.0439 1.264754,-0.0994 z m 12.311149,-0.004 c -1.992107,-0.0449 -5.325857,-0.045 -7.408333,-2.4e-4 -2.082476,0.0448 -0.45257,0.0815 3.622013,0.0816 4.074583,1.3e-4 5.778427,-0.0365 3.78632,-0.0814 z m 16.933678,-8e-5 c -2.137438,-0.0444 -5.709312,-0.0445 -7.937499,-2.2e-4 -2.228188,0.0443 -0.479375,0.0807 3.88625,0.0808 4.365625,1.1e-4 6.188687,-0.0361 4.051249,-0.0806 z"
       id="path595" />
    <path
       style="fill:#1b1405;stroke-width:1.42816"
       d="m 62.770844,104.47503 c -0.236432,-0.61614 0.541491,-1.67992 1.240565,-1.69643 0.324068,-0.008 4.726635,-0.002 9.783484,0.0125 9.096936,0.0261 9.19427,0.0206 9.19427,-0.51525 0,-0.29789 0.119063,-0.54162 0.264583,-0.54162 0.145521,0 0.264584,0.10933 0.264584,0.24295 0,0.13362 0.07018,0.42582 0.155949,0.64934 0.138476,0.36086 -0.963586,0.40841 -9.83562,0.42432 -6.855487,0.0123 -10.101688,0.10932 -10.342407,0.3091 -0.192961,0.16014 -0.350838,0.51472 -0.350838,0.78794 0,0.48173 0.625396,0.49677 20.655073,0.49677 h 20.655073 l -0.0837,-0.7276 -0.0837,-0.72761 -10.120312,-0.0693 -10.120312,-0.0693 0.01677,-0.72446 c 0.01646,-0.71092 0.02135,-0.71304 0.262022,-0.11302 l 0.245251,0.61143 9.707623,-0.0521 9.707628,-0.0521 0.47755,0.58975 c 0.36275,0.44798 0.41264,0.71107 0.20751,1.09436 -0.26215,0.48981 -0.87734,0.50459 -21.002231,0.50459 -18.975758,0 -20.746289,-0.0368 -20.898776,-0.43415 z"
       id="path449" />
    <path
       style="fill:#051706;stroke-width:1.42816"
       d="m 88.991367,102.85917 c 2.500847,-0.0435 6.668034,-0.0435 9.260416,-1.6e-4 2.592377,0.0434 0.546233,0.0789 -4.546995,0.079 -5.093229,9e-5 -7.214269,-0.0354 -4.713421,-0.0788 z"
       id="path292" />
    <path
       style="fill:#051706;stroke-width:1.42816"
       d="m 62.880831,104.16995 c 0,-0.40834 0.142875,-0.88531 0.3175,-1.05993 0.235404,-0.23541 2.827124,-0.3175 10.023307,-0.3175 h 9.705808 l 0.191195,-0.59532 c 0.173027,-0.53874 0.203575,-0.54804 0.321475,-0.0978 0.07165,0.27361 -0.03026,0.59921 -0.226482,0.72356 -0.19622,0.12435 -4.719571,0.22791 -10.051892,0.23014 -8.594212,0.004 -9.713366,0.0516 -9.855729,0.42256 -0.470692,1.22661 -1.479975,1.16899 20.4769,1.16899 h 20.637497 v -0.66998 c 0,-0.44751 -0.19768,-0.74945 -0.59531,-0.90928 -0.40286,-0.16192 -0.4561,-0.2447 -0.16469,-0.25605 0.60514,-0.0236 1.08099,0.63653 0.97875,1.35773 l -0.0865,0.60987 -20.835933,0.0678 -20.835936,0.0678 z"
       id="path288" />
    <path
       style="fill:#010200;stroke-width:1.42816"
       d="m 88.991367,102.85917 c 2.500847,-0.0435 6.668034,-0.0435 9.260416,-1.6e-4 2.592377,0.0434 0.546233,0.0789 -4.546995,0.079 -5.093229,9e-5 -7.214269,-0.0354 -4.713421,-0.0788 z"
       id="path131" />
    <path
       style="fill:#010200;stroke-width:1.42816"
       d="m 62.880831,104.16995 c 0,-0.40834 0.142875,-0.88531 0.3175,-1.05993 0.235415,-0.23542 2.829081,-0.3175 10.032117,-0.3175 5.34304,0 9.764227,-0.0893 9.824861,-0.19844 0.06063,-0.10914 0.09043,-0.0794 0.06621,0.0661 -0.02818,0.16934 -3.555437,0.28959 -9.798065,0.33405 -10.150632,0.0723 -10.16425,0.0739 -10.173992,1.18731 -0.0038,0.43705 1.153532,0.46302 20.633447,0.46302 h 20.637501 v -0.66998 c 0,-0.44751 -0.19768,-0.74945 -0.59531,-0.90928 -0.40286,-0.16192 -0.4561,-0.2447 -0.16469,-0.25605 0.60514,-0.0236 1.08099,0.63653 0.97875,1.35773 l -0.0865,0.60987 -20.835937,0.0678 -20.835936,0.0678 z"
       id="path127" />
  </g>
</svg>
