<?xml version="1.0" encoding="UTF-8" standalone="no"?>
<!-- Created with Inkscape (http://www.inkscape.org/) -->

<svg
   width="185"
   height="185"
   viewBox="0 0 48.947914 48.947918"
   version="1.1"
   id="svg1"
   xmlns="http://www.w3.org/2000/svg"
   xmlns:svg="http://www.w3.org/2000/svg">
  <defs
     id="defs1" />
  <g
     id="g7886"
     style="display:inline;stroke-width:1.04548"
     transform="matrix(0.95649547,0,0,0.95649547,-51.558376,-29.442743)">
    <path
       style="fill:#f5efd0;stroke-width:1.04548"
       d="m 63.549613,81.700763 c -0.656419,-0.263849 -0.810648,-1.258086 -0.277813,-1.790922 0.233657,-0.233656 2.543446,-0.3175 8.746756,-0.3175 h 8.429255 l -0.05157,-2.556727 c -0.02836,-1.4062 -0.108627,-2.774915 -0.178364,-3.041589 -0.07291,-0.278804 -0.791488,-0.783158 -1.69085,-1.186768 -2.369464,-1.063352 -3.963928,-3.199111 -3.13446,-4.19856 0.374337,-0.451048 1.832595,-0.513034 3.153978,-0.134066 0.985651,0.28268 2.39942,1.484137 2.39942,2.039087 0,0.618473 0.534646,0.367963 0.811496,-0.380231 0.569749,-1.539761 3.212592,-3.224424 5.075483,-3.235334 0.932033,-0.0055 0.992188,0.04337 0.992188,0.805333 0,1.725963 -1.671062,3.782495 -3.891656,4.789361 l -1.664594,0.754763 v 3.172365 3.172366 h 6.367394 c 3.883231,0 6.567055,0.106856 6.879166,0.273892 0.769236,0.411683 0.668137,1.531839 -0.16691,1.849323 -0.86814,0.330066 -30.975802,0.31606 -31.79892,-0.01479 z"
       id="path39740" />
    <path
       style="fill:#f3e9b0;stroke-width:1.04548"
       d="m 63.13269,81.53462 c -0.377362,-0.377363 -0.156758,-1.406071 0.360946,-1.683138 0.366083,-0.195922 3.181745,-0.262657 8.765136,-0.207747 l 8.225799,0.0809 -0.0489,-2.861767 c -0.0269,-1.573971 -0.113919,-3.031194 -0.193383,-3.238273 -0.07946,-0.207079 -0.615235,-0.503268 -1.190602,-0.658198 -1.167785,-0.314452 -2.962853,-1.802942 -3.554834,-2.947705 -0.54288,-1.049815 -0.113225,-1.803933 1.026656,-1.801956 2.011611,0.0035 3.654854,0.906356 4.590685,2.522313 0.275652,0.475985 0.337105,0.428694 0.742734,-0.571573 0.279595,-0.689469 0.858532,-1.389466 1.574291,-1.903485 1.195111,-0.858264 3.316247,-1.537213 3.992161,-1.27784 1.443185,0.553802 -1.296976,4.889684 -3.379166,5.347009 -1.753139,0.385054 -1.775327,0.436701 -1.775327,4.132479 v 3.36059 l 6.657943,0.0058 c 3.695294,0.0032 6.76635,0.1142 6.901567,0.249416 0.133993,0.133994 0.203778,0.525247 0.155078,0.869453 l -0.08855,0.625828 -16.291922,0.06815 C 70.642445,81.682343 63.230805,81.632734 63.13269,81.53462 Z"
       id="path39726" />
    <path
       style="fill:#e8d58e;stroke-width:1.04548"
       d="m 63.28503,81.533779 c -0.391576,-0.158004 -0.444387,-1.310797 -0.07063,-1.54179 0.143053,-0.08841 4.103855,-0.152547 8.801782,-0.142523 l 8.541685,0.01823 -0.08601,-2.981946 c -0.0473,-1.640071 -0.130239,-3.11879 -0.1843,-3.286043 -0.05406,-0.167253 -0.553112,-0.44988 -1.109004,-0.628059 -1.345673,-0.431327 -2.60303,-1.400107 -3.420597,-2.635535 -0.587604,-0.88793 -0.62669,-1.081858 -0.320317,-1.589288 0.313249,-0.518818 0.497311,-0.561075 1.798907,-0.412998 2.022901,0.230136 3.688722,1.403657 3.703538,2.609029 0.0032,0.26325 0.124946,0.405051 0.270467,0.315115 0.14552,-0.08994 0.264583,-0.03041 0.264583,0.132291 0,0.162697 0.11724,0.223355 0.260534,0.134794 0.143294,-0.08856 0.237172,-0.443309 0.208617,-0.78833 -0.114173,-1.379525 1.535494,-2.881985 3.942757,-3.590928 1.368228,-0.402945 1.938092,-0.206077 1.938092,0.669543 0,1.589296 -2.421317,4.171272 -4.37245,4.662574 l -1.1838,0.298084 v 3.275881 c 0,1.801735 -0.02977,3.365179 -0.06615,3.474319 -0.03638,0.109141 2.957106,0.257969 6.652191,0.330729 5.891145,0.116004 6.752539,0.186571 6.996116,0.573135 0.201446,0.319703 0.18221,0.555995 -0.07001,0.859896 -0.310624,0.374278 -2.047574,0.416821 -16.256531,0.398165 -8.749812,-0.01149 -16.057576,-0.08094 -16.239477,-0.154341 z"
       id="path39711" />
    <path
       style="fill:#d3ca8c;stroke-width:1.04548"
       d="m 63.28503,81.533779 c -0.420197,-0.169553 -0.427742,-0.944842 -0.01323,-1.359355 0.233898,-0.233898 2.578113,-0.3175 8.902758,-0.3175 h 8.585257 l -0.169922,-2.182812 c -0.09346,-1.200547 -0.170635,-2.669771 -0.171508,-3.264942 -0.0015,-1.04039 -0.04496,-1.095871 -1.126065,-1.438365 -1.503248,-0.476228 -2.47189,-1.171736 -3.382378,-2.428629 -0.645136,-0.890584 -0.712868,-1.136994 -0.46317,-1.685022 0.316413,-0.694451 0.697853,-0.754208 2.540659,-0.39802 1.25825,0.243202 2.620318,1.354994 2.86774,2.340802 0.08489,0.338231 0.222234,0.547078 0.305207,0.464105 0.08297,-0.08297 0.28858,0.179372 0.456903,0.582991 0.285851,0.685435 0.306386,0.641227 0.311253,-0.670057 0.0044,-1.175896 0.126513,-1.530522 0.752092,-2.183485 0.948246,-0.989756 2.593768,-1.77359 3.953882,-1.883406 0.91684,-0.07403 1.06928,-0.0086 1.140219,0.489549 0.234927,1.64965 -2.641608,4.74922 -4.554399,4.907527 -0.402607,0.03332 -0.825982,0.242134 -0.940835,0.464028 -0.114853,0.221895 -0.205136,1.859988 -0.20063,3.640208 l 0.0082,3.236762 6.742967,0.07053 c 5.956831,0.06231 6.775368,0.121925 7.020882,0.511372 0.201608,0.3198 0.182424,0.555903 -0.06987,0.859896 -0.310624,0.374278 -2.047574,0.416821 -16.256531,0.398165 -8.749812,-0.01149 -16.057576,-0.08094 -16.239477,-0.154341 z"
       id="path39695" />
    <path
       style="fill:#dac67b;stroke-width:1.04548"
       d="m 63.200478,81.289955 c -0.252323,-0.304031 -0.271485,-0.540057 -0.06981,-0.859896 0.248678,-0.394386 1.192198,-0.4482 8.953277,-0.510654 l 8.675306,-0.06981 -0.169639,-2.179147 c -0.0933,-1.198531 -0.170352,-2.675594 -0.171225,-3.282363 -0.0016,-1.093051 -0.01416,-1.107393 -1.366766,-1.556655 -1.635624,-0.543267 -3.661902,-2.416981 -3.661902,-3.386186 0,-0.975424 0.580428,-1.294398 1.974869,-1.085288 1.4692,0.22032 2.764842,1.046329 3.309994,2.110216 0.222023,0.433288 0.473385,0.847327 0.558582,0.920087 0.0852,0.07276 0.289936,0.370417 0.454975,0.661459 0.25457,0.448927 0.301291,0.327465 0.308117,-0.801025 0.0093,-1.529972 0.350021,-2.12122 1.802844,-3.128027 1.227258,-0.85049 3.727012,-1.36335 3.939988,-0.808343 0.477011,1.24307 -2.183611,4.643126 -3.905764,4.991245 -1.97269,0.398763 -1.829023,0.08513 -1.829023,3.992845 v 3.549579 l 6.784346,0.07061 c 5.995403,0.0624 6.816664,0.121878 7.062261,0.511456 0.201608,0.3198 0.182424,0.555903 -0.06987,0.859896 -0.310279,0.373864 -2.066953,0.419053 -16.29028,0.419053 -14.223327,0 -15.980001,-0.04519 -16.29028,-0.419053 z"
       id="path39679" />
    <path
       style="fill:#cbb474;stroke-width:1.04548"
       d="m 63.200478,81.289955 c -0.252323,-0.304031 -0.271485,-0.540057 -0.06981,-0.859896 0.248659,-0.394356 1.191144,-0.448202 8.937648,-0.510634 l 8.659677,-0.06979 -0.141294,-2.972917 c -0.07771,-1.635105 -0.147729,-3.112177 -0.155595,-3.282383 -0.0079,-0.170206 -0.628634,-0.513513 -1.379483,-0.762905 -1.635624,-0.543267 -3.661902,-2.416981 -3.661902,-3.386186 0,-0.975424 0.580428,-1.294398 1.974869,-1.085288 1.481914,0.222226 2.794247,1.065142 3.291496,2.114138 0.204366,0.431131 0.452666,0.843405 0.551779,0.916165 0.09911,0.07276 0.315237,0.370417 0.480276,0.661459 0.252965,0.446095 0.301334,0.308763 0.308117,-0.874811 0.0071,-1.2379 0.109763,-1.498922 0.867941,-2.206615 1.360991,-1.270367 1.900314,-1.556926 3.366425,-1.788687 1.052318,-0.16635 1.405632,-0.135264 1.508466,0.132718 0.477011,1.24307 -2.183611,4.643126 -3.905764,4.991245 -1.97269,0.398763 -1.829023,0.08513 -1.829023,3.992845 v 3.549579 l 6.784346,0.07061 c 5.995403,0.0624 6.816664,0.121878 7.062261,0.511456 0.201608,0.3198 0.182424,0.555903 -0.06987,0.859896 -0.310279,0.373864 -2.066953,0.419053 -16.29028,0.419053 -14.223327,0 -15.980001,-0.04519 -16.29028,-0.419052 z"
       id="path39662" />
    <path
       style="fill:#a5a893;stroke-width:1.04548"
       d="m 63.209832,81.162928 c -0.216931,-0.405339 -0.21098,-0.644006 0.02309,-0.926041 0.262183,-0.315911 1.759432,-0.379963 8.881902,-0.379963 h 8.566561 l -0.0029,-2.315104 c -0.0016,-1.273307 -0.07596,-2.756943 -0.165235,-3.29697 -0.148321,-0.897163 -0.275093,-1.019321 -1.469524,-1.416048 -2.314453,-0.768738 -4.244819,-3.185966 -3.378181,-4.230201 0.255447,-0.307795 0.623409,-0.36173 1.550899,-0.227329 1.888353,0.273637 3.464953,1.301153 3.464953,2.25821 0,0.258444 0.157807,0.565112 0.350682,0.681483 0.192875,0.116372 0.453301,0.44971 0.578724,0.740752 0.174778,0.405565 0.263676,0.172319 0.380595,-0.99858 0.126918,-1.271039 0.285308,-1.640322 0.942629,-2.19772 1.047684,-0.888421 2.689603,-1.633746 3.832786,-1.739838 0.8987,-0.0834 0.924024,-0.06037 0.857705,0.780181 -0.151404,1.918954 -2.414349,4.194886 -4.508727,4.534604 l -0.979186,0.158828 -0.07361,3.633866 -0.07361,3.633866 h 6.701424 c 4.859441,0 6.788694,0.08727 7.018924,0.3175 0.418427,0.418427 0.40074,0.619797 -0.09827,1.11881 -0.368721,0.36872 -2.209169,0.415774 -16.262565,0.415774 -15.739601,0 -15.848769,-0.0037 -16.139045,-0.54608 z"
       id="path39644" />
    <path
       style="fill:#a1a06b;stroke-width:1.04548"
       d="m 63.209832,81.162928 c -0.216931,-0.405339 -0.21098,-0.644006 0.02309,-0.926041 0.262183,-0.315911 1.759432,-0.379963 8.881902,-0.379963 h 8.566561 l -0.0029,-2.315104 c -0.0016,-1.273307 -0.07596,-2.756943 -0.165235,-3.29697 -0.148321,-0.897163 -0.275093,-1.019321 -1.469524,-1.416048 -2.314453,-0.768738 -4.244819,-3.185966 -3.378181,-4.230201 0.255447,-0.307795 0.623409,-0.36173 1.550899,-0.227329 1.888353,0.273637 3.464953,1.301153 3.464953,2.25821 0,0.258444 0.157807,0.565112 0.350682,0.681483 0.192875,0.116372 0.453301,0.44971 0.578724,0.740752 0.174778,0.405565 0.263676,0.172319 0.380595,-0.99858 0.126918,-1.271039 0.285308,-1.640322 0.942629,-2.19772 1.047684,-0.888421 2.689603,-1.633746 3.832786,-1.739838 0.901998,-0.08371 0.924211,-0.06303 0.855521,0.796286 -0.150672,1.884935 -2.45936,4.18647 -4.537606,4.523548 l -0.948123,0.153779 -0.07361,3.633866 -0.07361,3.633866 h 6.701424 c 4.859441,0 6.788694,0.08727 7.018924,0.3175 0.418427,0.418427 0.40074,0.619797 -0.09827,1.11881 -0.368721,0.36872 -2.209169,0.415774 -16.262565,0.415774 -15.739601,0 -15.848769,-0.0037 -16.139045,-0.54608 z"
       id="path39626" />
    <path
       style="fill:#788593;stroke-width:1.04548"
       d="m 63.526464,81.476597 c -0.194633,-0.123369 -0.313695,-0.508499 -0.264583,-0.855844 l 0.08929,-0.631537 8.202083,-0.06073 c 4.511146,-0.0334 8.410443,-0.06317 8.665104,-0.06615 0.413647,-0.0048 0.463021,-0.327857 0.463021,-3.029224 0,-3.288062 -0.155722,-3.694834 -1.539856,-4.022353 -1.525677,-0.361012 -3.75181,-2.527144 -3.75181,-3.650688 0,-0.647349 1.083122,-0.942445 2.385281,-0.649869 1.535112,0.344917 2.542359,1.115585 2.908658,2.225483 0.167726,0.508215 0.400887,0.864738 0.518136,0.792274 0.117249,-0.07246 0.302701,0.134799 0.412117,0.460585 0.151778,0.45192 0.23818,0.230177 0.364481,-0.93541 0.137132,-1.265534 0.301148,-1.640948 0.955623,-2.187308 1.114732,-0.930585 1.979672,-1.370513 3.112333,-1.583001 1.465955,-0.275015 1.799663,-0.06291 1.506924,0.95781 -0.57219,1.995112 -2.575902,3.887765 -4.435174,4.189349 l -0.981505,0.159205 -0.0734,3.601111 c -0.06849,3.36024 -0.03946,3.609985 0.433977,3.733792 0.279056,0.07297 2.157555,0.07918 4.17444,0.01378 2.016886,-0.0654 4.887456,-0.03937 6.379044,0.05783 2.594476,0.169069 2.711979,0.20285 2.711979,0.779651 0,0.463609 -0.191051,0.641135 -0.826823,0.768289 -1.262267,0.252453 -31.005452,0.188964 -31.409345,-0.06705 z"
       id="path39608" />
    <path
       style="fill:#847a5d;stroke-width:1.04548"
       d="m 63.526464,81.476597 c -0.194633,-0.123369 -0.313695,-0.508499 -0.264583,-0.855844 l 0.08929,-0.631537 8.202083,-0.06073 c 4.511146,-0.0334 8.410443,-0.06317 8.665104,-0.06615 0.413647,-0.0048 0.463021,-0.327857 0.463021,-3.029224 0,-3.288062 -0.155722,-3.694834 -1.539856,-4.022353 -1.525677,-0.361012 -3.75181,-2.527144 -3.75181,-3.650688 0,-0.647349 1.083122,-0.942445 2.385281,-0.649869 1.535112,0.344917 2.542359,1.115585 2.908658,2.225483 0.167726,0.508215 0.400887,0.864738 0.518136,0.792274 0.117249,-0.07246 0.302701,0.134799 0.412117,0.460585 0.151778,0.45192 0.23818,0.230177 0.364481,-0.93541 0.137132,-1.265534 0.301148,-1.640948 0.955623,-2.187308 1.114732,-0.930585 1.979672,-1.370513 3.112333,-1.583001 1.465955,-0.275015 1.799663,-0.06291 1.506924,0.95781 -0.57219,1.995112 -2.575902,3.887765 -4.435174,4.189349 l -0.981505,0.159205 -0.0734,3.601111 c -0.06849,3.36024 -0.03946,3.609985 0.433977,3.733792 0.279056,0.07297 2.157555,0.07918 4.17444,0.01378 2.016886,-0.0654 4.887456,-0.03937 6.379044,0.05783 2.594476,0.169069 2.711979,0.20285 2.711979,0.779651 0,0.463609 -0.191051,0.641135 -0.826823,0.768289 -1.262267,0.252453 -31.005452,0.188964 -31.409345,-0.06705 z"
       id="path39589" />
    <path
       style="fill:#69875d;stroke-width:1.04548"
       d="m 63.267455,80.71682 0.08372,-0.727604 8.839992,0.103383 c 8.280901,0.09684 8.828931,0.07456 8.665104,-0.352369 -0.09619,-0.250663 -0.174888,-1.760681 -0.174888,-3.355594 v -2.899843 l -1.653646,-0.751522 c -1.823749,-0.828828 -3.293156,-2.121647 -3.543036,-3.117249 -0.223505,-0.890516 0.219458,-1.231342 1.533429,-1.179856 1.682679,0.06593 2.905735,0.808076 3.586201,2.17608 0.321424,0.646188 0.596861,1.055825 0.612083,0.910304 0.01522,-0.145521 0.16321,0.03307 0.32886,0.396875 0.279444,0.613714 0.311654,0.55919 0.44625,-0.755395 0.118854,-1.160828 0.308235,-1.577326 1.048041,-2.304911 0.908104,-0.893103 2.765026,-1.702194 3.906658,-1.702194 0.872726,0 0.819995,1.203365 -0.113278,2.585132 -0.974681,1.443074 -2.015154,2.21675 -3.480316,2.587895 l -1.216038,0.308038 -0.132292,3.632561 c -0.07276,1.997908 -0.08268,3.681699 -0.02205,3.741759 0.06063,0.06006 3.186024,0.109198 6.945312,0.109198 h 6.835069 v 0.661458 0.661458 H 79.473184 63.183735 Z m 26.806636,0.188 c -0.345233,-0.155162 0.450723,-0.217673 2.289921,-0.179842 1.550499,0.03189 2.763862,-0.03131 2.696364,-0.140449 -0.0675,-0.109141 -2.933509,-0.198438 -6.368914,-0.198438 -6.458156,0 -8.327494,0.180747 -2.979694,0.288108 1.671673,0.03356 3.277531,0.153512 3.568573,0.266559 0.757955,0.294408 1.458221,0.262702 0.79375,-0.03594 z M 79.853894,80.508025 c 0.06706,-0.06706 -3.559082,-0.104051 -8.058101,-0.08219 -4.499019,0.02186 -7.644253,0.111153 -6.989409,0.198437 1.336622,0.178159 14.857558,0.07371 15.04751,-0.116242 z"
       id="path39569" />
    <path
       style="fill:#49598d;stroke-width:1.04548"
       d="m 63.267455,80.71682 0.08372,-0.727604 8.839992,0.103383 c 8.280901,0.09684 8.828931,0.07456 8.665104,-0.352369 -0.09619,-0.250663 -0.174888,-1.760681 -0.174888,-3.355594 v -2.899843 l -1.653646,-0.742504 c -1.912634,-0.858792 -3.717057,-2.645834 -3.587858,-3.553297 0.06734,-0.473013 0.283519,-0.591454 1.200843,-0.657936 1.739572,-0.126073 3.339202,0.703383 3.927348,2.036446 0.263853,0.598037 0.575882,1.08734 0.693398,1.08734 0.117516,0 0.213665,0.178593 0.213665,0.396875 0,0.218281 0.119062,0.396875 0.264583,0.396875 0.145521,0 0.264583,-0.470648 0.264583,-1.045884 0,-0.575236 0.125911,-1.319377 0.279801,-1.653646 0.372711,-0.809574 1.982643,-1.932152 3.292074,-2.295508 1.642685,-0.45583 1.984375,-0.390748 1.984375,0.377969 0,1.645188 -2.160562,3.979716 -4.149479,4.48359 l -1.274479,0.322877 -0.132292,3.632561 c -0.07276,1.997908 -0.08268,3.681699 -0.02205,3.741759 0.06063,0.06006 3.186024,0.109198 6.945312,0.109198 h 6.835069 v 0.661458 0.661458 H 79.473184 63.183735 Z M 86.13804,80.7297 c 1.728265,0.07387 3.439957,0.207818 3.803759,0.297656 0.571602,0.141152 0.589573,0.127769 0.132292,-0.09851 -0.376559,-0.186339 0.283836,-0.245133 2.289921,-0.203869 1.550499,0.03189 2.763862,-0.03131 2.696364,-0.140449 -0.179596,-0.290398 -13.056077,-0.246907 -13.056077,0.0441 0,0.350007 0.631577,0.51761 0.826449,0.219317 0.09778,-0.149673 1.445036,-0.197838 3.307292,-0.118238 z m -6.01913,-0.222113 c 0.06682,-0.06683 -3.619046,-0.103618 -8.190825,-0.08176 -4.57178,0.02186 -7.776545,0.111153 -7.121701,0.198437 1.335187,0.177968 15.12294,0.07291 15.312526,-0.116675 z"
       id="path39547" />
    <path
       style="fill:#6b6d56;stroke-width:1.04548"
       d="m 63.267455,80.71682 0.08372,-0.727604 8.839992,0.103383 c 8.280901,0.09684 8.828931,0.07456 8.665104,-0.352369 -0.09619,-0.250663 -0.174888,-1.760681 -0.174888,-3.355594 v -2.899843 l -1.653646,-0.742504 c -1.912634,-0.858792 -3.717057,-2.645834 -3.587858,-3.553297 0.06734,-0.473013 0.283519,-0.591454 1.200843,-0.657936 1.739572,-0.126073 3.339202,0.703383 3.927348,2.036446 0.263853,0.598037 0.575882,1.08734 0.693398,1.08734 0.117516,0 0.213665,0.178593 0.213665,0.396875 0,0.218281 0.119062,0.396875 0.264583,0.396875 0.145521,0 0.264583,-0.470648 0.264583,-1.045884 0,-0.575236 0.125911,-1.319377 0.279801,-1.653646 0.372711,-0.809574 1.982643,-1.932152 3.292074,-2.295508 1.642685,-0.45583 1.984375,-0.390748 1.984375,0.377969 0,1.645188 -2.160562,3.979716 -4.149479,4.48359 l -1.274479,0.322877 -0.132292,3.632561 c -0.07276,1.997908 -0.08268,3.681699 -0.02205,3.741759 0.06063,0.06006 3.186024,0.109198 6.945312,0.109198 h 6.835069 v 0.661458 0.661458 H 79.473184 63.183735 Z M 86.13804,80.7297 c 1.728265,0.07387 3.439957,0.207818 3.803759,0.297656 0.571602,0.141152 0.589573,0.127769 0.132292,-0.09851 -0.376559,-0.186339 0.283836,-0.245133 2.289921,-0.203869 1.550499,0.03189 2.763862,-0.03131 2.696364,-0.140449 -0.179596,-0.290398 -13.056077,-0.246907 -13.056077,0.0441 0,0.350007 0.631577,0.51761 0.826449,0.219317 0.09778,-0.149673 1.445036,-0.197838 3.307292,-0.118238 z m -6.01913,-0.222113 c 0.06682,-0.06683 -3.619046,-0.103618 -8.190825,-0.08176 -4.57178,0.02186 -7.776545,0.111153 -7.121701,0.198437 1.335187,0.177968 15.12294,0.07291 15.312526,-0.116675 z"
       id="path39524" />
    <path
       style="fill:#3a4c87;stroke-width:1.04548"
       d="m 80.87982,79.704872 c -0.10914,-0.110399 -0.198437,-1.55508 -0.198437,-3.210402 v -3.009677 l -1.653646,-0.742504 c -2.547137,-1.14369 -4.487163,-3.615402 -3.219506,-4.101848 1.598864,-0.613542 4.093451,0.416658 4.780679,1.974297 0.252391,0.572057 0.555042,1.040104 0.672558,1.040104 0.117516,0 0.213665,0.178593 0.213665,0.396875 0,0.218281 0.119062,0.396875 0.264583,0.396875 0.145521,0 0.264583,-0.470648 0.264583,-1.045884 0,-0.575236 0.125911,-1.319377 0.279801,-1.653646 0.53649,-1.165323 3.175056,-2.58544 4.813428,-2.590661 0.578584,-0.0018 0.621989,1.040309 0.08646,2.075908 -0.681716,1.318293 -2.67578,2.923832 -3.868187,3.114505 -0.600744,0.09606 -1.142397,0.30664 -1.203674,0.467948 -0.06128,0.161308 -0.14781,1.74932 -0.192295,3.528914 -0.08997,3.599155 -0.418196,4.690507 -0.492366,1.637117 l -0.04767,-1.962327 -0.15077,1.942566 c -0.08292,1.068411 -0.240068,1.852239 -0.349209,1.74184 z"
       id="path39426" />
    <path
       style="fill:#3a4c87;stroke-width:1.04548"
       d="m 63.218884,80.813307 c 0,-0.349351 0.148828,-0.677688 0.330729,-0.729638 0.181901,-0.05195 4.140729,-0.0324 8.797395,0.04344 l 8.466667,0.137889 -8.665104,0.06055 c -7.499015,0.0524 -8.665104,0.113957 -8.665104,0.457423 0,0.348405 1.954977,0.396875 16.007291,0.396875 12.664722,0 15.993479,-0.06906 15.941145,-0.330729 -0.05002,-0.250074 -1.743774,-0.364608 -6.945312,-0.469649 l -6.879166,-0.13892 7.096005,-0.05952 7.096006,-0.05952 -0.08455,0.595312 -0.08455,0.595313 -16.205728,0.06818 -16.205728,0.06818 z"
       id="path39421" />
    <path
       style="fill:#487251;stroke-width:1.04548"
       d="m 80.87982,79.704872 c -0.10914,-0.110399 -0.198437,-1.55508 -0.198437,-3.210402 v -3.009677 l -1.653646,-0.742504 c -2.547137,-1.14369 -4.487163,-3.615402 -3.219506,-4.101848 1.598864,-0.613542 4.093451,0.416658 4.780679,1.974297 0.252391,0.572057 0.555042,1.040104 0.672558,1.040104 0.117516,0 0.213665,0.178593 0.213665,0.396875 0,0.218281 0.119062,0.396875 0.264583,0.396875 0.145521,0 0.264583,-0.470648 0.264583,-1.045884 0,-0.575236 0.125911,-1.319377 0.279801,-1.653646 0.53649,-1.165323 3.175056,-2.58544 4.813428,-2.590661 0.578584,-0.0018 0.621989,1.040309 0.08646,2.075908 -0.681716,1.318293 -2.67578,2.923832 -3.868187,3.114505 -0.600744,0.09606 -1.142397,0.30664 -1.203674,0.467948 -0.06128,0.161308 -0.14781,1.74932 -0.192295,3.528914 -0.08997,3.599155 -0.418196,4.690507 -0.492366,1.637117 l -0.04767,-1.962327 -0.15077,1.942566 c -0.08292,1.068411 -0.240068,1.852239 -0.349209,1.74184 z"
       id="path39313" />
    <path
       style="fill:#487251;stroke-width:1.04548"
       d="m 63.218884,80.813307 c 0,-0.349351 0.148828,-0.677688 0.330729,-0.729638 0.181901,-0.05195 4.140729,-0.0324 8.797395,0.04344 l 8.466667,0.137889 -8.665104,0.06055 c -7.499015,0.0524 -8.665104,0.113957 -8.665104,0.457423 0,0.348405 1.954977,0.396875 16.007291,0.396875 12.664722,0 15.993479,-0.06906 15.941145,-0.330729 -0.05002,-0.250074 -1.743774,-0.364608 -6.945312,-0.469649 l -6.879166,-0.13892 7.096005,-0.05952 7.096006,-0.05952 -0.08455,0.595312 -0.08455,0.595313 -16.205728,0.06818 -16.205728,0.06818 z"
       id="path39308" />
    <path
       style="fill:#396b4c;stroke-width:1.04548"
       d="m 81.523032,78.401716 c -0.0054,-1.400823 0.02615,-1.498863 0.268343,-0.83373 0.186989,0.513533 0.188941,1.019492 0.0061,1.5875 -0.244895,0.760879 -0.268878,0.695014 -0.274465,-0.75377 z"
       id="path39253" />
    <path
       style="fill:#396b4c;stroke-width:1.04548"
       d="m 80.857772,79.680536 c -0.09701,-0.09701 -0.176389,-1.511186 -0.176389,-3.142603 0,-3.250405 -0.0142,-3.282558 -1.688229,-3.822209 -0.564724,-0.182049 -1.49997,-0.758505 -2.078325,-1.281014 -1.85271,-1.673812 -1.865287,-2.954868 -0.02901,-2.954868 1.817464,0 3.541219,1.203172 3.900888,2.7228 0.09612,0.406134 0.290344,0.666997 0.431598,0.579697 0.141255,-0.0873 0.256827,0.02689 0.256827,0.253763 0,0.226869 0.103914,0.41249 0.23092,0.41249 0.127007,0 0.290698,-0.622115 0.363759,-1.382477 0.116378,-1.21116 0.267855,-1.502292 1.22238,-2.349359 0.9791,-0.868876 2.687341,-1.559831 3.856353,-1.559831 0.52015,0 0.557814,1.286953 0.05768,1.970926 -0.331776,0.453732 -0.365503,0.45543 -0.530025,0.02669 -0.09664,-0.25183 -0.105452,-0.595956 -0.01959,-0.764725 0.08586,-0.168769 -0.0842,-0.01098 -0.377921,0.350653 -0.293717,0.361628 -0.476169,0.715367 -0.405449,0.786088 0.07072,0.07072 0.224602,-0.02678 0.341959,-0.216669 0.163591,-0.264695 0.256686,-0.23239 0.398992,0.138453 0.28864,0.752184 -1.827172,2.621324 -3.236858,2.859489 -0.608122,0.102741 -1.156836,0.269581 -1.219364,0.370754 -0.06253,0.101173 -0.148773,1.043313 -0.191654,2.093644 -0.04288,1.050332 -0.186423,1.909694 -0.318983,1.909694 -0.13256,0 -0.181156,-0.531092 -0.107992,-1.180203 0.07317,-0.649112 0.06536,-1.247871 -0.01734,-1.330575 -0.261154,-0.261154 -0.274176,-0.920609 -0.02127,-1.076916 0.133676,-0.08262 0.06445,-0.328805 -0.153828,-0.547086 -0.218281,-0.218282 -0.506681,-0.329011 -0.640889,-0.246066 -0.134209,0.08294 -0.297415,0.0012 -0.362682,-0.181568 -0.06527,-0.182808 -0.217177,-0.240246 -0.337579,-0.127641 -0.120401,0.112606 -0.01764,0.40601 0.228361,0.652009 0.304393,0.304393 0.447272,0.339652 0.447272,0.110377 0,-0.185292 0.09195,-0.280067 0.20433,-0.210612 0.205494,0.127003 0.457081,7.31328 0.256033,7.31328 -0.05917,0 -0.18696,-0.07938 -0.283974,-0.176388 z m -1.555581,-7.448978 c -0.249233,-0.09891 -0.481161,-0.298904 -0.515396,-0.444425 -0.03423,-0.145521 -0.306567,-0.468981 -0.605183,-0.718801 -0.538084,-0.450158 -0.538207,-0.454484 -0.01377,-0.483909 0.291042,-0.01633 0.380339,-0.08974 0.198438,-0.163143 -0.659002,-0.265913 -0.311157,-0.601378 0.463021,-0.446543 0.471491,0.0943 0.79375,0.04796 0.79375,-0.114136 0,-0.150087 -0.256743,-0.205746 -0.57054,-0.123686 -0.349057,0.09128 -0.506344,0.04533 -0.405172,-0.118372 0.09095,-0.147165 -0.134156,-0.404045 -0.500243,-0.570845 -0.753227,-0.343194 -1.714894,-0.403646 -1.667713,-0.104835 0.08327,0.527385 -0.05797,0.874664 -0.295916,0.727604 -0.507179,-0.313454 -0.260064,0.308878 0.350358,0.882341 0.338218,0.317739 0.714494,0.487321 0.83617,0.376849 0.121675,-0.110471 0.145416,-0.06794 0.05276,0.09451 -0.276791,0.485275 0.97289,1.379379 1.935716,1.384939 0.296444,0.0017 0.282203,-0.04322 -0.05628,-0.177549 z m -2.589558,-2.280893 c 0,-0.355214 0.139296,-0.731933 0.309546,-0.837154 0.210016,-0.129796 0.253527,-0.04533 0.135323,0.262711 -0.122874,0.320204 -0.07764,0.393676 0.153474,0.249281 0.701278,-0.438144 0.923035,-0.317728 0.619811,0.336562 -0.39406,0.850295 -1.218154,0.842583 -1.218154,-0.0114 z m 8.272956,1.297763 c 1.005624,-0.683339 1.193393,-1.022583 0.725908,-1.311505 -0.149982,-0.09269 -0.194339,0.01351 -0.103985,0.248968 0.100836,0.262773 0.0092,0.410617 -0.254466,0.410617 -0.22662,0 -0.507249,0.162998 -0.62362,0.362216 -0.281186,0.481367 -1.40221,0.828136 -1.40221,0.433749 0,-0.163915 0.09498,-0.239326 0.21107,-0.167579 0.320667,0.198182 0.996935,-0.304367 0.737232,-0.547854 -0.124848,-0.117053 -0.280398,-0.06325 -0.345664,0.119554 -0.06527,0.182808 -0.227352,0.265207 -0.360189,0.18311 -0.132836,-0.0821 -0.490857,0.02537 -0.795602,0.238825 -0.519619,0.363956 -0.523762,0.395913 -0.06661,0.513803 0.965538,0.248992 1.306012,0.176671 2.278136,-0.483904 z m -1.241717,-2.304802 c 0.101334,-0.182321 -0.14423,-0.01645 -0.5457,0.368598 -0.423044,0.405742 -0.648923,0.831185 -0.53724,1.011892 0.128081,0.20724 0.311079,0.08363 0.545699,-0.368599 0.194147,-0.374219 0.435906,-0.829571 0.537241,-1.011891 z m 2.229177,-0.790056 c 0,-0.145521 0.294053,-0.208372 0.653452,-0.139669 0.359398,0.0687 0.590496,0.02305 0.513551,-0.101447 -0.07694,-0.124499 -0.497087,-0.226362 -0.933649,-0.226362 -0.494965,0 -0.72808,0.106256 -0.619292,0.282279 0.09595,0.155253 0.01368,0.260209 -0.182823,0.233235 -0.663568,-0.09109 -1.050754,0.01238 -0.908377,0.242753 0.187205,0.302903 1.477138,0.04897 1.477138,-0.290789 z"
       id="path39252" />
    <path
       style="fill:#396b4c;stroke-width:1.04548"
       d="m 63.218884,80.813307 c 0,-0.349351 0.148828,-0.677688 0.330729,-0.729638 0.181901,-0.05195 4.140729,-0.0324 8.797395,0.04344 l 8.466667,0.137889 -8.665104,0.06055 c -7.499015,0.0524 -8.665104,0.113957 -8.665104,0.457423 0,0.348405 1.954977,0.396875 16.007291,0.396875 12.664722,0 15.993479,-0.06906 15.941145,-0.330729 -0.05002,-0.250074 -1.743774,-0.364608 -6.945312,-0.469649 l -6.879166,-0.13892 7.096005,-0.05952 7.096006,-0.05952 -0.08455,0.595312 -0.08455,0.595313 -16.205728,0.06818 -16.205728,0.06818 z"
       id="path39247" />
    <path
       style="fill:#4f534b;stroke-width:1.04548"
       d="m 84.382011,71.615395 c 1.162228,-0.608987 2.4346,-2.135637 2.778683,-3.333991 0.156232,-0.54412 0.08408,-0.594589 -0.839086,-0.586898 -0.555509,0.0046 -1.241133,0.183222 -1.523608,0.396875 -0.659684,0.49896 -1.101374,0.502885 -0.689099,0.0061 0.329415,-0.39692 3.120544,-1.095294 3.3721,-0.843739 0.07869,0.07869 0.06442,0.562278 -0.0317,1.074643 -0.225284,1.200869 -2.365077,3.515739 -3.460631,3.743779 -0.658372,0.137041 -0.591286,0.05913 0.393337,-0.456792 z"
       id="path39160" />
    <path
       style="fill:#4f534b;stroke-width:1.04548"
       d="m 77.003513,71.483676 c -1.291674,-1.105625 -1.782432,-2.084963 -1.322504,-2.639142 0.360397,-0.434252 1.761153,-0.475908 2.800337,-0.08328 0.927077,0.350274 2.200037,1.539993 2.200037,2.056172 0,0.212575 -0.267891,-0.0084 -0.595313,-0.490972 -0.327421,-0.48261 -1.012031,-1.02694 -1.521354,-1.209623 -1.131845,-0.405968 -2.557877,-0.464194 -2.774745,-0.113294 -0.256004,0.414223 0.355143,1.383172 1.542119,2.444968 1.420695,1.270867 1.149028,1.299943 -0.328577,0.03517 z"
       id="path39159" />
    <path
       style="fill:#4f534b;stroke-width:1.04548"
       d="m 81.480684,72.591255 c -0.19752,-0.369068 -0.279572,-0.750587 -0.182339,-0.84782 0.09723,-0.09723 0.176788,0.02165 0.176788,0.264184 0,0.242535 0.103914,0.440973 0.23092,0.440973 0.127007,0 0.288496,-0.599198 0.358866,-1.331551 0.08662,-0.901431 0.325737,-1.542091 0.740262,-1.983332 0.336774,-0.358479 0.671847,-0.59225 0.744608,-0.519489 0.07276,0.07276 -0.1529,0.435863 -0.501466,0.806896 -0.449109,0.478054 -0.640066,0.998094 -0.655409,1.784894 -0.01191,0.610659 -0.141227,1.323137 -0.287377,1.583284 -0.243526,0.433475 -0.295732,0.416929 -0.624853,-0.198039 z"
       id="path39158" />
    <path
       style="fill:#4f534b;stroke-width:1.04548"
       d="m 81.541778,78.401716 c -0.022,-1.389264 0.0091,-1.493374 0.24946,-0.83373 0.17881,0.490825 0.187581,1.044608 0.02514,1.5875 -0.224094,0.748953 -0.252017,0.672307 -0.274603,-0.75377 z"
       id="path39152" />
    <path
       style="fill:#4f534b;stroke-width:1.04548"
       d="m 80.857772,79.680536 c -0.09701,-0.09701 -0.176389,-1.511186 -0.176389,-3.142603 0,-3.194382 -0.06915,-3.370899 -1.504439,-3.840467 -0.686034,-0.224443 -0.671775,-0.232769 0.181522,-0.105989 0.509323,0.07567 1.104636,0.144046 1.322917,0.151939 0.327501,0.01184 0.413231,0.634821 0.490446,3.563929 0.09067,3.439589 0.06185,3.749102 -0.314057,3.373191 z"
       id="path39151" />
    <path
       style="fill:#4f534b;stroke-width:1.04548"
       d="m 63.218884,80.813307 c 0,-0.349351 0.148828,-0.677688 0.330729,-0.729638 0.181901,-0.05195 4.140729,-0.0324 8.797395,0.04344 l 8.466667,0.137889 -8.665104,0.06055 c -7.499015,0.0524 -8.665104,0.113957 -8.665104,0.457423 0,0.348405 1.954977,0.396875 16.007291,0.396875 12.664722,0 15.993479,-0.06906 15.941145,-0.330729 -0.05002,-0.250074 -1.743774,-0.364608 -6.945312,-0.469649 l -6.879166,-0.13892 7.096005,-0.05952 7.096006,-0.05952 -0.08455,0.595312 -0.08455,0.595313 -16.205728,0.06818 -16.205728,0.06818 z"
       id="path39146" />
    <path
       style="fill:#203389;stroke-width:1.04548"
       d="m 84.382011,71.615399 c 1.162228,-0.608987 2.4346,-2.135637 2.778683,-3.333991 0.156232,-0.54412 0.08408,-0.594589 -0.839086,-0.586898 -0.555509,0.0046 -1.241133,0.183222 -1.523608,0.396875 -0.659684,0.49896 -1.101374,0.502885 -0.689099,0.0061 0.329415,-0.39692 3.120544,-1.095294 3.3721,-0.843739 0.07869,0.07869 0.06442,0.562278 -0.0317,1.074643 -0.225284,1.200869 -2.365077,3.515739 -3.460631,3.743779 -0.658372,0.137041 -0.591286,0.05913 0.393337,-0.456792 z"
       id="path38912" />
    <path
       style="fill:#203389;stroke-width:1.04548"
       d="m 77.164273,71.631029 c -1.285945,-1.059984 -1.927656,-2.251036 -1.494199,-2.773319 0.398004,-0.479566 1.859226,-0.485944 2.991008,-0.01305 0.856576,0.3579 2.020301,1.56249 2.020301,2.091245 0,0.147417 -0.267891,-0.126833 -0.595313,-0.609443 -0.327421,-0.48261 -1.012031,-1.02694 -1.521354,-1.209623 -1.131845,-0.405968 -2.557877,-0.464194 -2.774745,-0.113294 -0.256004,0.414223 0.355143,1.383172 1.542119,2.444968 1.332907,1.192337 1.214068,1.321588 -0.167817,0.182521 z"
       id="path38911" />
    <path
       style="fill:#203389;stroke-width:1.04548"
       d="m 81.480684,72.591255 c -0.19752,-0.369068 -0.279572,-0.750587 -0.182339,-0.84782 0.09723,-0.09723 0.176788,0.02165 0.176788,0.264184 0,0.242535 0.103914,0.440973 0.23092,0.440973 0.127007,0 0.288496,-0.599198 0.358866,-1.331551 0.08662,-0.901431 0.325737,-1.542091 0.740262,-1.983332 0.336774,-0.358479 0.671847,-0.59225 0.744608,-0.519489 0.07276,0.07276 -0.1529,0.435863 -0.501466,0.806896 -0.449109,0.478054 -0.640066,0.998094 -0.655409,1.784894 -0.01191,0.610659 -0.141227,1.323137 -0.287377,1.583284 -0.243526,0.433475 -0.295732,0.416929 -0.624853,-0.198039 z"
       id="path38910" />
    <path
       style="fill:#203389;stroke-width:1.04548"
       d="m 80.924685,79.526195 c -0.0117,-0.03638 -0.0816,-1.375833 -0.155328,-2.976562 -0.07373,-1.600729 -0.257717,-3.05972 -0.408868,-3.242203 -0.151152,-0.182483 -0.646801,-0.448653 -1.101443,-0.59149 l -0.826621,-0.259704 0.926041,0.136414 c 0.509323,0.07503 1.104636,0.142921 1.322917,0.150872 0.326539,0.01189 0.413374,0.620067 0.489973,3.431638 0.0512,1.87945 0.02144,3.417181 -0.06615,3.417181 -0.08758,0 -0.16882,-0.02976 -0.180525,-0.06615 z"
       id="path38903" />
    <path
       style="fill:#2d5446;stroke-width:1.04548"
       d="m 84.382011,71.615399 c 1.162228,-0.608987 2.4346,-2.135637 2.778683,-3.333991 0.156232,-0.54412 0.08408,-0.594589 -0.839086,-0.586898 -0.555509,0.0046 -1.241133,0.183222 -1.523608,0.396875 -0.659684,0.49896 -1.101374,0.502885 -0.689099,0.0061 0.329415,-0.39692 3.120544,-1.095294 3.3721,-0.843739 0.07869,0.07869 0.06442,0.562278 -0.0317,1.074643 -0.225284,1.200869 -2.365077,3.515739 -3.460631,3.743779 -0.658372,0.137041 -0.591286,0.05913 0.393337,-0.456792 z"
       id="path38640" />
    <path
       style="fill:#2d5446;stroke-width:1.04548"
       d="m 77.164273,71.631029 c -1.285945,-1.059984 -1.927656,-2.251036 -1.494199,-2.773319 0.398004,-0.479566 1.859226,-0.485944 2.991008,-0.01305 0.856576,0.3579 2.020301,1.56249 2.020301,2.091245 0,0.147417 -0.267891,-0.126833 -0.595313,-0.609443 -0.327421,-0.48261 -1.012031,-1.02694 -1.521354,-1.209623 -1.131845,-0.405968 -2.557877,-0.464194 -2.774745,-0.113294 -0.256004,0.414223 0.355143,1.383172 1.542119,2.444968 1.332907,1.192337 1.214068,1.321588 -0.167817,0.182521 z"
       id="path38639" />
    <path
       style="fill:#2d5446;stroke-width:1.04548"
       d="m 81.480684,72.591255 c -0.19752,-0.369068 -0.279572,-0.750587 -0.182339,-0.84782 0.09723,-0.09723 0.176788,0.02165 0.176788,0.264184 0,0.242535 0.103914,0.440973 0.23092,0.440973 0.127007,0 0.288496,-0.599198 0.358866,-1.331551 0.08662,-0.901431 0.325737,-1.542091 0.740262,-1.983332 0.336774,-0.358479 0.671847,-0.59225 0.744608,-0.519489 0.07276,0.07276 -0.1529,0.435863 -0.501466,0.806896 -0.449109,0.478054 -0.640066,0.998094 -0.655409,1.784894 -0.01191,0.610659 -0.141227,1.323137 -0.287377,1.583284 -0.243526,0.433475 -0.295732,0.416929 -0.624853,-0.198039 z"
       id="path38638" />
    <path
       style="fill:#2d5446;stroke-width:1.04548"
       d="m 80.924685,79.526195 c -0.0117,-0.03638 -0.0816,-1.375833 -0.155328,-2.976562 -0.07373,-1.600729 -0.257717,-3.05972 -0.408868,-3.242203 -0.151152,-0.182483 -0.646801,-0.448653 -1.101443,-0.59149 l -0.826621,-0.259704 0.926041,0.136414 c 0.509323,0.07503 1.104636,0.142921 1.322917,0.150872 0.326539,0.01189 0.413374,0.620067 0.489973,3.431638 0.0512,1.87945 0.02144,3.417181 -0.06615,3.417181 -0.08758,0 -0.16882,-0.02976 -0.180525,-0.06615 z"
       id="path38631" />
    <path
       style="fill:#2a5238;stroke-width:1.04548"
       d="m 87.032182,68.874613 c 0.48713,-1.281249 0.366723,-1.49572 -0.728404,-1.297441 -0.545703,0.0988 -1.349374,0.360722 -1.785937,0.582042 -0.724964,0.367528 -0.763327,0.365723 -0.442689,-0.02082 0.353922,-0.426672 3.140122,-1.150351 3.405849,-0.884625 0.211264,0.211264 -0.164076,1.975643 -0.459067,2.157958 -0.156148,0.0965 -0.152211,-0.109809 0.01025,-0.53711 z"
       id="path38383" />
    <path
       style="fill:#2a5238;stroke-width:1.04548"
       d="m 78.8293,69.24158 c -1.194313,-0.640119 -2.79079,-0.657397 -3.153807,-0.03413 -0.148327,0.254661 -0.273306,0.338005 -0.277731,0.185208 -0.01517,-0.523933 0.627515,-0.912812 1.508577,-0.912812 0.97145,0 2.55021,0.574876 2.832318,1.031337 0.212225,0.343387 0.261702,0.358056 -0.909357,-0.269599 z"
       id="path38382" />
    <path
       style="fill:#2a5238;stroke-width:1.04548"
       d="m 81.964862,71.62467 c 0.05107,-0.730137 0.129271,-1.289932 0.173781,-1.243988 0.222109,0.229268 0.214705,2.089336 -0.0092,2.313638 -0.166887,0.167176 -0.224768,-0.209032 -0.164572,-1.06965 z"
       id="path38378" />
    <path
       style="fill:#2a5238;stroke-width:1.04548"
       d="m 80.974797,79.592341 c -0.02775,-0.07276 -0.111994,-1.441979 -0.187207,-3.042708 -0.117843,-2.50801 -0.211755,-2.974353 -0.679217,-3.372838 -0.54053,-0.460771 -0.54008,-0.462225 0.125913,-0.407105 0.653477,0.05408 0.672383,0.114544 0.847852,2.71138 0.148978,2.204769 0.08597,4.618116 -0.107341,4.111271 z"
       id="path38366" />
    <path
       style="fill:#253459;stroke-width:1.04548"
       d="m 75.389717,69.377078 c 0,-0.531897 0.661592,-0.897236 1.624801,-0.897236 0.544391,0 1.046345,0.09149 1.115452,0.203307 0.06911,0.111818 -0.361354,0.156863 -0.956582,0.100099 -0.820945,-0.07829 -1.166909,0.01259 -1.432952,0.376429 -0.192896,0.263801 -0.350719,0.361631 -0.350719,0.217401 z"
       id="path38077" />
    <path
       style="fill:#253459;stroke-width:1.04548"
       d="m 80.681383,74.660572 c 0,-0.809226 -0.141317,-1.330935 -0.414652,-1.530803 -0.364821,-0.266764 -0.353895,-0.303201 0.09092,-0.303201 0.433087,0 0.513492,0.219476 0.560813,1.530803 0.03038,0.841942 -0.01053,1.530804 -0.09092,1.530804 -0.08039,0 -0.146161,-0.552421 -0.146161,-1.227603 z"
       id="path38072" />
    <path
       style="fill:#134835;stroke-width:1.04548"
       d="m 75.389717,69.377078 c 0,-0.531897 0.661592,-0.897236 1.624801,-0.897236 0.544391,0 1.046345,0.09149 1.115452,0.203307 0.06911,0.111818 -0.361354,0.156863 -0.956582,0.100099 -0.820945,-0.07829 -1.166909,0.01259 -1.432952,0.376429 -0.192896,0.263801 -0.350719,0.361631 -0.350719,0.217401 z"
       id="path37797" />
    <path
       style="fill:#134835;stroke-width:1.04548"
       d="m 80.681383,74.660572 c 0,-0.809226 -0.141317,-1.330935 -0.414652,-1.530803 -0.364821,-0.266764 -0.353895,-0.303201 0.09092,-0.303201 0.433087,0 0.513492,0.219476 0.560813,1.530803 0.03038,0.841942 -0.01053,1.530804 -0.09092,1.530804 -0.08039,0 -0.146161,-0.552421 -0.146161,-1.227603 z"
       id="path37792" />
  </g>
</svg>
