<?xml version="1.0" encoding="UTF-8" standalone="no"?>
<!-- Created with Inkscape (http://www.inkscape.org/) -->

<svg
   width="185"
   height="185"
   viewBox="0 0 48.947914 48.947918"
   version="1.1"
   id="svg1"
   xmlns="http://www.w3.org/2000/svg"
   xmlns:svg="http://www.w3.org/2000/svg">
  <defs
     id="defs1" />
  <g
     id="g7862"
     style="display:inline;stroke-width:1.51092"
     transform="matrix(0.66184708,0,0,0.66184708,16.230479,-20.186505)">
    <path
       style="fill:#e9e8d4;stroke-width:1.51092"
       d="m -4.874944,104.30607 c -3.8933217,-0.16349 -4.4979165,-0.29312 -4.4979165,-0.96437 0,-0.53463 0.9361754,-1.07844 2.9135592,-1.69245 0.9441569,-0.29317 2.1586383,-0.83507 2.6988476,-1.20422 1.6119527,-1.101533 2.3184542,-1.295341 5.367801,-1.472499 2.1935743,-0.127441 3.3340051,-0.334599 4.6302081,-0.841073 2.0782225,-0.812039 3.7399019,-1.07186 4.6476976,-0.726717 0.519238,0.197414 0.62664,0.180498 0.467255,-0.07359 C 11.238683,97.149685 11.180605,96.788293 11.223446,96.528052 11.352422,95.744571 9.9651023,91.953513 9.1250363,90.793836 8.6931811,90.197677 7.8793981,89.385924 7.3166297,88.989939 6.7538612,88.593955 6.1607746,88.061608 5.9986594,87.806947 5.7526376,87.420479 5.7939368,87.343926 6.2484525,87.343926 c 1.2920719,0 3.4600706,1.880667 4.4225985,3.836458 0.636167,1.292647 1.651921,4.22172 1.651921,4.763553 0,0.627726 0.406417,0.46129 0.810178,-0.331782 1.117637,-2.195278 3.789552,-4.299479 5.459479,-4.299479 0.916004,0 0.740106,0.709611 -0.257511,1.038854 -2.046885,0.675533 -4.424646,3.531345 -4.424646,5.314225 0,0.833059 0.130594,1.031211 1.002663,1.52134 1.233086,0.693034 5.359111,1.275335 6.126524,0.864625 0.834045,-0.446368 3.098843,-0.310489 4.717526,0.28303 0.833109,0.30548 2.710464,0.84541 4.171899,1.19986 2.589967,0.62814 4.354303,1.41248 4.354303,1.9357 0,0.85873 -1.099021,0.91632 -18.256249,0.9567 -9.3860931,0.0221 -18.7920301,-0.0323 -20.902082,-0.12094 z"
       id="path7859" />
    <path
       style="fill:#d1d1ab;stroke-width:1.51092"
       d="m -2.6259858,104.30287 c -5.8115772,-0.15892 -6.7468747,-0.29348 -6.7468747,-0.97065 0,-0.4482 0.6461578,-0.79812 2.8773527,-1.55821 0.9640705,-0.32842 2.3463372,-0.97404 3.0717037,-1.43471 1.7491016,-1.110824 2.87675522,-1.383244 5.5109784,-1.331349 1.4963424,0.02948 2.4458652,-0.08239 2.9755619,-0.350563 2.0198986,-1.022631 4.6591844,-1.550216 5.8325388,-1.165907 0.534442,0.175046 0.548087,0.127981 0.341603,-1.178233 -0.118292,-0.748309 -0.526824,-2.20933 -0.907849,-3.246713 C 9.7327347,91.443058 9.3734923,90.933206 7.7494591,89.405504 6.7117208,88.429321 5.9329639,87.560323 6.0188882,87.474399 c 0.345768,-0.345768 1.6200863,0.256146 2.813049,1.328723 1.0074183,0.905755 1.4545338,1.607705 2.2140168,3.475901 0.523419,1.287519 1.034335,2.727897 1.135367,3.20084 0.101033,0.472943 0.290241,0.859896 0.420462,0.859896 0.130221,0 0.431222,-0.386953 0.66889,-0.859896 0.788925,-1.569908 2.771982,-3.357545 4.192568,-3.779414 1.589805,-0.472121 1.739165,-0.477024 1.737905,-0.05704 -5.45e-4,0.181901 -0.515765,0.542378 -1.144933,0.80106 -2.047502,0.841829 -4.410325,3.755711 -4.410325,5.438903 0,1.642276 4.344054,2.667188 8.626613,2.035316 1.320375,-0.194815 4.023225,0.337392 4.751958,0.935702 0.154933,0.1272 1.487323,0.48799 2.960867,0.80176 2.611152,0.55601 4.298061,1.27425 4.298061,1.83002 0,0.15126 -0.327422,0.40017 -0.727604,0.55314 -0.844723,0.32289 -27.0354769,0.51368 -36.1817688,0.26356 z"
       id="path7847" />
    <path
       style="fill:#b7c594;stroke-width:1.51092"
       d="m 0.09504766,104.30086 c -7.88267896,-0.14197 -8.69822656,-0.19871 -9.12812456,-0.63509 -0.4531341,-0.45996 -0.451946,-0.49411 0.029611,-0.85119 0.2759275,-0.2046 1.2879587,-0.62555 2.2489583,-0.93546 0.9609995,-0.3099 2.4021155,-0.95673 3.2024801,-1.43739 1.9219934,-1.154248 3.29143804,-1.49241 5.761819,-1.422782 1.7434541,0.04914 2.2958251,-0.05296 3.7631805,-0.695593 1.9309553,-0.845665 4.532507,-1.180933 5.154973,-0.664333 0.610596,0.50675 0.346481,-1.27235 -0.608277,-4.097388 C 9.7591076,91.311208 9.6095823,91.082365 7.7980291,89.396253 6.7437536,88.414981 5.9473032,87.545984 6.0281394,87.465147 c 0.3456497,-0.345649 1.6476834,0.290092 2.7424965,1.339074 1.2222108,1.171047 2.6394741,3.881149 3.2835161,6.278767 0.185675,0.691224 0.438122,1.256771 0.560994,1.256771 0.122872,0 0.417859,-0.386953 0.655527,-0.859896 0.788925,-1.569908 2.771982,-3.357545 4.192568,-3.779414 1.597148,-0.474302 1.738897,-0.477893 1.738897,-0.04405 0,0.189048 -0.398715,0.4879 -0.886034,0.664117 -1.507977,0.545292 -3.216603,2.079865 -3.966902,3.562805 -1.139766,2.252707 -0.881384,2.938263 1.426488,3.78486 1.131752,0.415159 1.976882,0.453109 7.395198,0.332089 1.279555,-0.02858 2.058435,0.11447 3.042708,0.55885 0.727604,0.32849 2.334948,0.80802 3.571875,1.06561 2.356822,0.49082 4.353694,1.27969 4.361203,1.72292 0.01394,0.82313 -1.429713,0.93315 -13.396512,1.02101 -6.599486,0.0484 -15.8942872,0.0179 -20.65511434,-0.0678 z"
       id="path7834" />
    <path
       style="fill:#c996a3;stroke-width:1.51092"
       d="m 1.0211946,104.28489 c -8.789824,-0.12836 -9.6210217,-0.17954 -10.0541662,-0.61912 -0.4533457,-0.46007 -0.4510726,-0.49485 0.056986,-0.87191 0.2910417,-0.21601 1.3626041,-0.64358 2.3812499,-0.95018 1.0186458,-0.30659 2.3490905,-0.89601 2.9565437,-1.30983 1.7503545,-1.192383 2.431539,-1.377963 5.2455392,-1.429079 C 3.8364121,99.06428 4.520989,98.9423 5.9533491,98.330384 7.8949058,97.500936 10.517224,97.152169 11.11044,97.644495 11.749139,98.174568 11.550711,96.501255 10.673837,93.9627 9.7231996,91.210599 9.3342318,90.534465 8.1412915,89.560433 6.1025854,87.895835 5.8469465,87.647243 6.0078974,87.485849 c 0.3600045,-0.360994 1.636418,0.23926 2.720959,1.279577 1.2683177,1.216599 2.1289366,2.798337 3.0774676,5.656104 0.350178,1.055026 0.717427,1.918229 0.816109,1.918229 0.09868,0 0.481804,-0.515975 0.851381,-1.14661 0.741254,-1.264854 2.521409,-2.991358 3.427052,-3.323765 1.33759,-0.490949 2.301272,-0.555111 2.301272,-0.153219 0,0.214643 -0.210486,0.390261 -0.467748,0.390261 -1.11746,0 -3.658766,2.203488 -4.545164,3.940972 -1.051544,2.061196 -0.647278,2.8235 1.98865,3.749905 1.572626,0.552707 2.903913,0.570947 6.347933,0.08697 0.782462,-0.109955 1.609878,0.03835 3.042708,0.545387 1.082398,0.38303 2.980027,0.91573 4.216954,1.18379 3.897304,0.8446 5.369387,1.97709 3.173402,2.44132 -1.2559,0.2655 -20.178148,0.40184 -31.9376784,0.23012 z"
       id="path7821" />
    <path
       style="fill:#c2919b;stroke-width:1.51092"
       d="m 1.0211946,104.28489 c -8.789824,-0.12836 -9.6210217,-0.17954 -10.0541662,-0.61912 -0.4533457,-0.46007 -0.4510726,-0.49485 0.056986,-0.87191 0.2910417,-0.21601 1.3626041,-0.64358 2.3812499,-0.95018 1.0186458,-0.30659 2.3490905,-0.89601 2.9565437,-1.30983 1.7503545,-1.192383 2.431539,-1.377963 5.2455392,-1.429079 C 3.8364121,99.06428 4.520989,98.9423 5.9533491,98.330384 7.8949058,97.500936 10.517224,97.152169 11.11044,97.644495 11.749139,98.174568 11.550711,96.501255 10.673837,93.9627 9.7231996,91.210599 9.3342318,90.534465 8.1412915,89.560433 6.1025854,87.895835 5.8469465,87.647243 6.0078974,87.485849 c 0.3600045,-0.360994 1.636418,0.23926 2.720959,1.279577 1.2683177,1.216599 2.1289366,2.798337 3.0774676,5.656104 0.350178,1.055026 0.717427,1.918229 0.816109,1.918229 0.09868,0 0.481804,-0.515975 0.851381,-1.14661 0.741254,-1.264854 2.521409,-2.991358 3.427052,-3.323765 1.33759,-0.490949 2.301272,-0.555111 2.301272,-0.153219 0,0.214643 -0.210486,0.390261 -0.467748,0.390261 -1.11746,0 -3.658766,2.203488 -4.545164,3.940972 -1.051544,2.061196 -0.647278,2.8235 1.98865,3.749905 1.572626,0.552707 2.903913,0.570947 6.347933,0.08697 0.782462,-0.109955 1.609878,0.03835 3.042708,0.545387 1.082398,0.38303 2.980027,0.91573 4.216954,1.18379 3.897304,0.8446 5.369387,1.97709 3.173402,2.44132 -1.2559,0.2655 -20.178148,0.40184 -31.9376784,0.23012 z"
       id="path7808" />
    <path
       style="fill:#c8ad6b;stroke-width:1.51092"
       d="m 1.0211946,104.28489 c -8.789824,-0.12836 -9.6210217,-0.17954 -10.0541662,-0.61912 -0.4533457,-0.46007 -0.4510726,-0.49485 0.056986,-0.87191 0.2910417,-0.21601 1.3626041,-0.64358 2.3812499,-0.95018 1.0186458,-0.30659 2.3490905,-0.89601 2.9565437,-1.30983 1.7503545,-1.192383 2.431539,-1.377963 5.2455392,-1.429079 C 3.8364121,99.06428 4.520989,98.9423 5.9533491,98.330384 7.8949058,97.500936 10.517224,97.152169 11.11044,97.644495 11.749139,98.174568 11.550711,96.501255 10.673837,93.9627 9.7231996,91.210599 9.3342318,90.534465 8.1412915,89.560433 6.1025854,87.895835 5.8469465,87.647243 6.0078974,87.485849 c 0.3600045,-0.360994 1.636418,0.23926 2.720959,1.279577 1.2683177,1.216599 2.1289366,2.798337 3.0774676,5.656104 0.350178,1.055026 0.717427,1.918229 0.816109,1.918229 0.09868,0 0.481804,-0.515975 0.851381,-1.14661 0.741254,-1.264854 2.521409,-2.991358 3.427052,-3.323765 1.33759,-0.490949 2.301272,-0.555111 2.301272,-0.153219 0,0.214643 -0.210486,0.390261 -0.467748,0.390261 -1.11746,0 -3.658766,2.203488 -4.545164,3.940972 -1.051544,2.061196 -0.647278,2.8235 1.98865,3.749905 1.572626,0.552707 2.903913,0.570947 6.347933,0.08697 0.782462,-0.109955 1.609878,0.03835 3.042708,0.545387 1.082398,0.38303 2.980027,0.91573 4.216954,1.18379 3.897304,0.8446 5.369387,1.97709 3.173402,2.44132 -1.2559,0.2655 -20.178148,0.40184 -31.9376784,0.23012 z"
       id="path7789" />
    <path
       style="fill:#b89790;stroke-width:1.51092"
       d="m 2.5075516,104.27726 c -8.8728508,-0.10665 -11.0920738,-0.20375 -11.4499035,-0.50096 -0.4151916,-0.34485 -0.4147564,-0.40082 0.00674,-0.86657 0.2478286,-0.27385 1.2926292,-0.75198 2.321779,-1.06252 1.0291498,-0.31054 2.139072,-0.73795 2.4664939,-0.9498 0.3274219,-0.21185 0.5953125,-0.28546 0.5953125,-0.16358 0,0.12187 0.1841459,-0.0413 0.4092133,-0.36265 0.5851579,-0.835426 2.76937338,-1.386289 5.279328,-1.331453 1.799492,0.03931 2.3714305,-0.06479 3.8168352,-0.694712 1.9285736,-0.840498 4.558054,-1.197677 5.157091,-0.70052 0.638699,0.530073 0.440271,-1.14324 -0.436603,-3.681795 -0.9506375,-2.752101 -1.3396053,-3.428235 -2.5325456,-4.402267 -2.0387061,-1.664598 -2.294345,-1.91319 -2.1333941,-2.074584 0.3600045,-0.360994 1.636418,0.23926 2.720959,1.279577 1.2683177,1.216599 2.1289367,2.798337 3.0774677,5.656104 0.350178,1.055026 0.717427,1.918229 0.816109,1.918229 0.09868,0 0.481804,-0.515975 0.851381,-1.14661 0.741254,-1.264854 2.521409,-2.991358 3.427052,-3.323765 1.33759,-0.490949 2.301272,-0.555111 2.301272,-0.153219 0,0.214643 -0.210486,0.390261 -0.467748,0.390261 -1.11746,0 -3.658766,2.203488 -4.545164,3.940972 -0.671013,1.315294 -0.690684,2.193667 -0.06187,2.762735 0.711704,0.644083 3.402408,1.498377 4.719328,1.498377 0.740813,0 1.150644,0.11753 1.153255,0.33073 0.0032,0.2607 0.04915,0.25968 0.217041,-0.005 0.261015,-0.41123 1.744488,-0.857461 2.819869,-0.848227 0.437524,0.0038 1.628935,0.306927 2.64758,0.673727 1.018646,0.36679 2.864115,0.88664 4.101042,1.15522 2.482601,0.53907 3.760504,1.03401 3.549836,1.37488 -0.07576,0.12258 0.05912,0.14732 0.299715,0.055 0.327662,-0.12574 0.412407,-0.042 0.337663,0.33376 -0.07455,0.37474 -0.31558,0.49552 -0.952876,0.47749 -0.469199,-0.0133 -0.853088,0.0804 -0.853088,0.20815 0,0.12775 -2.11336,0.23966 -4.696354,0.2487 -2.582995,0.009 -6.779948,0.0344 -9.326562,0.0564 -2.546615,0.022 -9.5829287,-0.0195 -15.6362535,-0.0923 z"
       id="path7768" />
    <path
       style="fill:#b0aa6d;stroke-width:1.51092"
       d="m 2.5075516,104.27726 c -8.8728508,-0.10665 -11.0920738,-0.20375 -11.4499035,-0.50096 -0.4151916,-0.34485 -0.4147564,-0.40082 0.00674,-0.86657 0.2478286,-0.27385 1.2926292,-0.75198 2.321779,-1.06252 1.0291498,-0.31054 2.139072,-0.73795 2.4664939,-0.9498 0.3274219,-0.21185 0.5953125,-0.28546 0.5953125,-0.16358 0,0.12187 0.1841459,-0.0413 0.4092133,-0.36265 0.5851579,-0.835426 2.76937338,-1.386289 5.279328,-1.331453 1.799492,0.03931 2.3714305,-0.06479 3.8168352,-0.694712 1.9285736,-0.840498 4.558054,-1.197677 5.157091,-0.70052 0.638699,0.530073 0.440271,-1.14324 -0.436603,-3.681795 -0.9506375,-2.752101 -1.3396053,-3.428235 -2.5325456,-4.402267 -2.0387061,-1.664598 -2.294345,-1.91319 -2.1333941,-2.074584 0.3600045,-0.360994 1.636418,0.23926 2.720959,1.279577 1.2683177,1.216599 2.1289367,2.798337 3.0774677,5.656104 0.350178,1.055026 0.717427,1.918229 0.816109,1.918229 0.09868,0 0.481804,-0.515975 0.851381,-1.14661 0.741254,-1.264854 2.521409,-2.991358 3.427052,-3.323765 1.33759,-0.490949 2.301272,-0.555111 2.301272,-0.153219 0,0.214643 -0.210486,0.390261 -0.467748,0.390261 -1.11746,0 -3.658766,2.203488 -4.545164,3.940972 -0.671013,1.315294 -0.690684,2.193667 -0.06187,2.762735 0.711704,0.644083 3.402408,1.498377 4.719328,1.498377 0.740813,0 1.150644,0.11753 1.153255,0.33073 0.0032,0.2607 0.04915,0.25968 0.217041,-0.005 0.261015,-0.41123 1.744488,-0.857461 2.819869,-0.848227 0.437524,0.0038 1.628935,0.306927 2.64758,0.673727 1.018646,0.36679 2.864115,0.88664 4.101042,1.15522 2.482601,0.53907 3.760504,1.03401 3.549836,1.37488 -0.07576,0.12258 0.05912,0.14732 0.299715,0.055 0.327662,-0.12574 0.412407,-0.042 0.337663,0.33376 -0.07455,0.37474 -0.31558,0.49552 -0.952876,0.47749 -0.469199,-0.0133 -0.853088,0.0804 -0.853088,0.20815 0,0.12775 -2.11336,0.23966 -4.696354,0.2487 -2.582995,0.009 -6.779948,0.0344 -9.326562,0.0564 -2.546615,0.022 -9.5829287,-0.0195 -15.6362535,-0.0923 z"
       id="path7737" />
    <path
       style="fill:#ad7b84;stroke-width:1.51092"
       d="m 15.445893,104.40157 c -0.07463,-0.0746 -5.039756,-0.13604 -11.0336226,-0.13647 -5.9938669,-4.4e-4 -10.8445473,-0.0872 -10.7792897,-0.19275 0.065257,-0.10558 -0.4086143,-0.14999 -1.0530485,-0.0987 -0.6808892,0.0542 -1.3380897,-0.0448 -1.5689206,-0.23637 -0.6459563,-0.5361 0.1992102,-1.204 2.3573843,-1.86296 1.0389235,-0.31721 2.0325643,-0.69048 2.2080908,-0.82949 0.1755265,-0.139 0.4374434,-0.17961 0.5820375,-0.0902 0.1445941,0.0894 0.3922288,-0.0792 0.5502993,-0.37453 0.5815337,-1.08661 3.13592507,-1.703149 5.5599821,-1.341986 0.9101463,0.135604 1.4383303,0.05603 2.2421282,-0.337771 1.3509531,-0.661873 4.2872068,-1.502221 5.2489027,-1.502221 0.4102125,0 0.9761375,0.123252 1.2576125,0.273892 0.542695,0.290442 0.626892,0.139026 0.52012,-0.93535 C 11.4926,96.284141 10.427583,93.075926 9.7884687,91.46771 9.6323632,91.074899 9.671497,91.010218 9.9629047,91.1794 10.185687,91.30874 10.248857,91.299484 10.118111,91.156658 9.9968434,91.024186 9.8182496,90.912748 9.7212358,90.909016 9.6242219,90.905285 9.1876594,90.545786 8.7510969,90.110129 8.3145344,89.674473 7.4877277,88.936676 6.9137486,88.470582 6.3397695,88.004487 5.9348003,87.558487 6.0138169,87.47947 c 0.2701093,-0.270109 1.7790326,0.543406 2.8557929,1.539662 1.2612382,1.166942 2.0785272,2.702128 2.9465072,5.534689 0.345587,1.127787 0.706502,2.050521 0.802034,2.050521 0.09553,0 0.377277,-0.42902 0.626101,-0.953378 0.61998,-1.306512 2.156408,-2.954973 3.296022,-3.53636 1.199947,-0.612167 2.447894,-0.775169 2.594682,-0.338908 0.0637,0.189318 -0.108619,0.33073 -0.403014,0.33073 -0.607144,0 -2.278762,1.085345 -3.285946,2.133493 -1.524597,1.586606 -2.222661,3.83175 -1.435972,4.618439 0.573413,0.573414 3.467489,1.450152 4.786893,1.450152 0.780627,0 1.200385,0.1154 1.203022,0.33073 0.0028,0.22548 0.06591,0.23927 0.198438,0.0433 0.284988,-0.42134 1.662887,-0.835751 2.575636,-0.774632 0.436562,0.02923 1.128198,0.07179 1.536969,0.09456 0.414294,0.0231 0.671678,0.15717 0.58157,0.30297 -0.09298,0.15044 0.01422,0.19406 0.252338,0.10269 0.227693,-0.0874 0.591064,-0.0119 0.807492,0.16772 0.216428,0.17962 0.393506,0.23878 0.393506,0.13146 0,-0.10731 0.302993,0.003 0.673318,0.24606 0.370325,0.24264 1.271651,0.51204 2.002946,0.59865 0.731295,0.0866 1.209199,0.2319 1.062009,0.32287 -0.14719,0.091 0.171875,0.16676 0.709033,0.16842 1.184576,0.004 3.093318,0.89232 3.093318,1.44016 0,0.47352 -0.482905,0.5334 -5.644311,0.69986 -2.872465,0.0926 -3.895489,0.0386 -4.217977,-0.22263 -0.312681,-0.25333 -0.373269,-0.25758 -0.228141,-0.016 0.136574,0.22736 0.0093,0.31708 -0.412231,0.29049 -0.335412,-0.0212 -2.068355,0.0432 -3.850985,0.14301 -2.381081,0.13333 -3.241145,0.1003 -3.241145,-0.12445 0,-0.22594 -0.09285,-0.22888 -0.355074,-0.0113 -0.19529,0.16207 -0.41613,0.23362 -0.490755,0.159 z"
       id="path7709" />
    <path
       style="fill:#91ae66;stroke-width:1.51092"
       d="m 15.445893,104.40157 c -0.07463,-0.0746 -5.039756,-0.13604 -11.0336226,-0.13647 -5.9938669,-4.4e-4 -10.8445473,-0.0872 -10.7792897,-0.19275 0.065257,-0.10558 -0.4086143,-0.14999 -1.0530485,-0.0987 -0.6808892,0.0542 -1.3380897,-0.0448 -1.5689206,-0.23637 -0.6459563,-0.5361 0.1992102,-1.204 2.3573843,-1.86296 1.0389235,-0.31721 2.0325643,-0.69048 2.2080908,-0.82949 0.1755265,-0.139 0.4374434,-0.17961 0.5820375,-0.0902 0.1445941,0.0894 0.3922288,-0.0792 0.5502993,-0.37453 0.5815337,-1.08661 3.13592507,-1.703149 5.5599821,-1.341986 0.9101463,0.135604 1.4383303,0.05603 2.2421282,-0.337771 1.3509531,-0.661873 4.2872068,-1.502221 5.2489027,-1.502221 0.4102125,0 0.9761375,0.123252 1.2576125,0.273892 0.542695,0.290442 0.626892,0.139026 0.52012,-0.93535 C 11.4926,96.284141 10.427583,93.075926 9.7884687,91.46771 9.6323632,91.074899 9.671497,91.010218 9.9629047,91.1794 10.185687,91.30874 10.248857,91.299484 10.118111,91.156658 9.9968434,91.024186 9.8182496,90.912748 9.7212358,90.909016 9.6242219,90.905285 9.1876594,90.545786 8.7510969,90.110129 8.3145344,89.674473 7.4877277,88.936676 6.9137486,88.470582 6.3397695,88.004487 5.9348003,87.558487 6.0138169,87.47947 c 0.2701093,-0.270109 1.7790326,0.543406 2.8557929,1.539662 1.2612382,1.166942 2.0785272,2.702128 2.9465072,5.534689 0.345587,1.127787 0.706502,2.050521 0.802034,2.050521 0.09553,0 0.377277,-0.42902 0.626101,-0.953378 0.61998,-1.306512 2.156408,-2.954973 3.296022,-3.53636 1.199947,-0.612167 2.447894,-0.775169 2.594682,-0.338908 0.0637,0.189318 -0.108619,0.33073 -0.403014,0.33073 -0.607144,0 -2.278762,1.085345 -3.285946,2.133493 -1.524597,1.586606 -2.222661,3.83175 -1.435972,4.618439 0.573413,0.573414 3.467489,1.450152 4.786893,1.450152 0.780627,0 1.200385,0.1154 1.203022,0.33073 0.0028,0.22548 0.06591,0.23927 0.198438,0.0433 0.284988,-0.42134 1.662887,-0.835751 2.575636,-0.774632 0.436562,0.02923 1.128198,0.07179 1.536969,0.09456 0.414294,0.0231 0.671678,0.15717 0.58157,0.30297 -0.09298,0.15044 0.01422,0.19406 0.252338,0.10269 0.227693,-0.0874 0.591064,-0.0119 0.807492,0.16772 0.216428,0.17962 0.393506,0.23878 0.393506,0.13146 0,-0.10731 0.302993,0.003 0.673318,0.24606 0.370325,0.24264 1.271651,0.51204 2.002946,0.59865 0.731295,0.0866 1.209199,0.2319 1.062009,0.32287 -0.14719,0.091 0.171875,0.16676 0.709033,0.16842 1.184576,0.004 3.093318,0.89232 3.093318,1.44016 0,0.47352 -0.482905,0.5334 -5.644311,0.69986 -2.872465,0.0926 -3.895489,0.0386 -4.217977,-0.22263 -0.312681,-0.25333 -0.373269,-0.25758 -0.228141,-0.016 0.136574,0.22736 0.0093,0.31708 -0.412231,0.29049 -0.335412,-0.0212 -2.068355,0.0432 -3.850985,0.14301 -2.381081,0.13333 -3.241145,0.1003 -3.241145,-0.12445 0,-0.22594 -0.09285,-0.22888 -0.355074,-0.0113 -0.19529,0.16207 -0.41613,0.23362 -0.490755,0.159 z"
       id="path7676" />
    <path
       style="fill:#aa9254;stroke-width:1.51092"
       d="m 15.445893,104.40157 c -0.07463,-0.0746 -5.039756,-0.13604 -11.0336226,-0.13647 -5.9938669,-4.4e-4 -10.8445473,-0.0872 -10.7792897,-0.19275 0.065257,-0.10558 -0.4086143,-0.14999 -1.0530485,-0.0987 -0.6808892,0.0542 -1.3380897,-0.0448 -1.5689206,-0.23637 -0.6459563,-0.5361 0.1992102,-1.204 2.3573843,-1.86296 1.0389235,-0.31721 2.0325643,-0.69048 2.2080908,-0.82949 0.1755265,-0.139 0.4374434,-0.17961 0.5820375,-0.0902 0.1445941,0.0894 0.3922288,-0.0792 0.5502993,-0.37453 0.5815337,-1.08661 3.13592507,-1.703149 5.5599821,-1.341986 0.9101463,0.135604 1.4383303,0.05603 2.2421282,-0.337771 1.3509531,-0.661873 4.2872068,-1.502221 5.2489027,-1.502221 0.4102125,0 0.9761375,0.123252 1.2576125,0.273892 0.541864,0.289997 0.622655,0.146016 0.524846,-0.93535 -0.0411,-0.4544 -1.119778,-3.699726 -1.7512793,-5.268924 -0.158276,-0.393296 -0.1198781,-0.457701 0.171889,-0.28831 0.2227823,0.12934 0.2859523,0.120084 0.1552063,-0.02274 C 9.9968434,91.024186 9.8182496,90.911832 9.7212358,90.906981 9.6242219,90.902131 9.1281281,90.48309 8.6188053,89.975781 8.1094824,89.468472 7.2908601,88.723407 6.7996446,88.320081 5.7265081,87.438953 5.8291683,87.19859 7.056827,87.717928 c 1.0630386,0.449699 2.9077767,2.302796 3.537017,3.553045 0.650541,1.292573 1.752825,4.884496 1.612262,5.253749 -0.315883,0.829812 0.65601,-0.09284 1.256175,-1.192535 0.846295,-1.550681 2.134409,-2.81 3.424753,-3.348194 0.545703,-0.22761 0.992187,-0.348517 0.992187,-0.268684 0,0.07983 0.252494,0.01002 0.561096,-0.155138 0.394355,-0.211052 0.507654,-0.213819 0.38126,-0.0093 -0.09891,0.160039 -0.02398,0.296206 0.166509,0.302594 0.190489,0.0064 -0.100798,0.171176 -0.647303,0.366198 -2.942811,1.05015 -5.697144,5.27232 -4.330759,6.638704 0.573413,0.573414 3.467489,1.450153 4.786893,1.450153 0.780627,0 1.200385,0.1154 1.203022,0.33073 0.0028,0.22548 0.06591,0.23927 0.198438,0.0433 0.284988,-0.42134 1.662887,-0.835752 2.575636,-0.774633 0.436562,0.02923 1.128198,0.07179 1.536969,0.09456 0.414294,0.0231 0.671678,0.15717 0.58157,0.30297 -0.09298,0.15044 0.01422,0.19406 0.252338,0.10269 0.227693,-0.0874 0.591064,-0.0119 0.807492,0.16772 0.216428,0.17962 0.393506,0.23878 0.393506,0.13146 0,-0.10731 0.302993,0.003 0.673318,0.24606 0.370325,0.24264 1.271651,0.51204 2.002946,0.59865 0.731295,0.0866 1.209199,0.2319 1.062009,0.32287 -0.14719,0.091 0.171875,0.16676 0.709033,0.16842 1.184576,0.004 3.093318,0.89232 3.093318,1.44016 0,0.47352 -0.482905,0.5334 -5.644311,0.69986 -2.872465,0.0926 -3.895489,0.0386 -4.217977,-0.22263 -0.312681,-0.25333 -0.373269,-0.25758 -0.228141,-0.016 0.136574,0.22736 0.0093,0.31708 -0.412231,0.29049 -0.335412,-0.0212 -2.068355,0.0432 -3.850985,0.14301 -2.381081,0.13333 -3.241145,0.1003 -3.241145,-0.12445 0,-0.22594 -0.09285,-0.22888 -0.355074,-0.0113 -0.19529,0.16207 -0.41613,0.23362 -0.490755,0.159 z"
       id="path7641" />
    <path
       style="fill:#83a659;stroke-width:1.51092"
       d="m 1.5583264,101.1684 c 0.016136,-0.32742 0.1825949,-0.59531 0.3699087,-0.59531 0.1873138,0 0.3405705,-0.12609 0.3405705,-0.2802 0,-0.15411 -0.094982,-0.22149 -0.2110702,-0.14975 -0.1160886,0.0717 -0.3839793,0.0167 -0.5953125,-0.12237 -0.2760814,-0.181656 -0.1729718,-0.217742 0.3662976,-0.128196 1.4490031,0.240606 1.9126875,1.209686 0.5788105,1.209686 -0.3430872,0 -0.6811131,0.14883 -0.7511688,0.33073 -0.070056,0.1819 -0.1141718,0.0628 -0.098036,-0.26459 z"
       id="path7606" />
    <path
       style="fill:#83a659;stroke-width:1.51092"
       d="m -0.79320169,101.42894 c -0.15613533,-0.10692 -0.37078751,-0.42889 -0.47700471,-0.71549 -0.1062173,-0.28661 -0.107037,-0.43502 -0.00182,-0.3298 0.1052155,0.10521 0.46869572,0.01 0.80773389,-0.2126 0.33903818,-0.222151 0.61643305,-0.285837 0.61643305,-0.14153 0,0.14431 0.20835936,0.19687 0.46302081,0.11679 0.39534875,-0.12431 0.38795785,-0.0844 -0.0505697,0.27289 -0.28247478,0.23016 -0.75872476,0.42226 -1.05833327,0.42689 -0.53585848,0.008 -0.53636648,0.0147 -0.0311522,0.39687 0.51223018,0.38744 0.27054923,0.55495 -0.26830631,0.18598 z"
       id="path7605" />
    <path
       style="fill:#83a659;stroke-width:1.51092"
       d="m -0.65636107,102.27511 c -0.24995816,-0.30118 -0.23084175,-0.3791 0.0930054,-0.3791 0.55012729,0 1.24466137,0.27966 1.24466137,0.50117 0,0.34689 -1.02618053,0.25325 -1.33766677,-0.12207 z"
       id="path7602" />
    <path
       style="fill:#83a659;stroke-width:1.51092"
       d="m 16.137922,103.24097 c -0.266893,-0.26559 -0.07567,-0.52113 0.286091,-0.38231 0.218281,0.0838 0.396875,0.0205 0.396875,-0.14059 0,-0.16109 -0.178594,-0.29289 -0.396875,-0.29289 -0.218281,0 -0.396875,-0.12609 -0.396875,-0.2802 0,-0.15411 0.119063,-0.20662 0.264584,-0.11668 0.14552,0.0899 0.264583,0.0374 0.264583,-0.11668 0,-0.15411 0.193172,-0.28019 0.429272,-0.28019 0.369468,0 0.378683,0.0613 0.06615,0.44019 -0.326809,0.39617 -0.307642,0.41064 0.191654,0.14467 0.415463,-0.2213 0.646248,-0.21557 0.919021,0.0228 0.200333,0.17509 0.159042,0.0709 -0.09176,-0.23165 -0.719275,-0.86755 -0.493756,-1.63088 0.259333,-0.87779 0.209271,0.20927 0.430408,0.21155 0.780521,0.008 0.435848,-0.25334 0.411754,-0.28482 -0.223469,-0.292 -0.391594,-0.004 -0.780983,-0.11968 -0.865308,-0.25612 -0.0862,-0.13947 0.312391,-0.24165 0.910427,-0.23339 0.743059,0.0102 1.063745,0.12963 1.063745,0.39598 0,0.20971 0.113089,0.31141 0.251308,0.22598 0.13822,-0.0854 0.380534,0.0861 0.538476,0.38126 0.35531,0.6639 1.465099,0.70839 1.834856,0.0736 0.149669,-0.25697 0.273266,-0.31584 0.277731,-0.13229 0.0044,0.1819 0.298675,0.33073 0.653889,0.33073 0.355214,0 0.703506,0.0933 0.773982,0.20733 0.07048,0.11403 -0.178765,0.20333 -0.55387,0.19844 -0.375104,-0.005 -0.733318,0.13993 -0.79603,0.32183 -0.06271,0.1819 0.02199,0.33073 0.188224,0.33073 0.166236,0 0.228662,-0.11906 0.138725,-0.26458 -0.08994,-0.14553 0.04761,-0.26459 0.305665,-0.26459 0.433711,0 0.436574,0.0326 0.03786,0.43133 -0.52505,0.52505 -2.485387,0.74976 -2.753681,0.31565 -0.132286,-0.21404 -0.036,-0.24879 0.316233,-0.11414 0.466926,0.1785 0.463853,0.15384 -0.03941,-0.31612 -0.677158,-0.63236 -1.5569,-1.11316 -2.016459,-1.10205 -0.224988,0.005 -0.175854,0.13895 0.138912,0.37745 0.38088,0.28861 0.425885,0.4742 0.206483,0.85148 -0.154303,0.26535 -0.284172,0.39609 -0.288597,0.29055 -0.0044,-0.10553 -0.312506,-0.0761 -0.684625,0.0653 -0.372118,0.14148 -0.610927,0.15101 -0.530686,0.0212 0.08024,-0.12984 -0.04175,-0.30807 -0.271102,-0.39608 -0.591961,-0.22716 -0.6383,-0.20883 -0.6383,0.25247 0,0.22687 0.119063,0.33891 0.264584,0.24897 0.145521,-0.0899 0.264583,-0.05 0.264583,0.0887 0,0.24067 -1.245209,0.29603 -1.476716,0.0657 z"
       id="path7600" />
    <path
       style="fill:#83a659;stroke-width:1.51092"
       d="m 13.291644,103.3669 c -0.117285,-0.30564 -0.352301,-0.37812 -0.834007,-0.25722 -0.397448,0.0998 -0.839213,0.0285 -1.084308,-0.17493 -0.333304,-0.27661 -0.453909,-0.27804 -0.621202,-0.007 -0.158252,0.25606 -0.247351,0.23231 -0.374841,-0.0999 -0.09198,-0.2397 -0.299858,-0.35386 -0.4619431,-0.25369 -0.2069057,0.12787 -0.187757,0.2499 0.064277,0.40959 0.2606221,0.16514 0.1915901,0.22857 -0.2519505,0.23151 -0.3950376,0.003 -0.5442138,-0.10389 -0.4221405,-0.30141 0.128331,-0.20764 0.07112,-0.23274 -0.1786533,-0.0784 -0.4975844,0.30752 -3.9837911,0.39178 -3.7983937,0.0918 0.080604,-0.13042 -0.039067,-0.23713 -0.2659366,-0.23713 -0.2268695,0 -0.4124899,-0.11906 -0.4124899,-0.26458 0,-0.14553 0.1389062,-0.26459 0.3086805,-0.26459 0.1697743,0 0.2463467,-0.0623 0.170161,-0.13852 -0.076186,-0.0762 -0.331974,-0.0643 -0.5684184,0.0264 -0.3320198,0.12741 -0.3686424,0.27943 -0.1608519,0.66769 0.3781331,0.70654 -0.1452224,0.6505 -0.6495761,-0.0696 -0.2204643,-0.31476 -0.3392514,-0.67194 -0.2639714,-0.79375 0.07528,-0.12181 -0.071198,-0.22146 -0.3255073,-0.22146 -0.4019687,0 -0.3867245,-0.0705 0.1166768,-0.53948 0.5791488,-0.53956 0.7866445,-0.94297 0.3444526,-0.66968 -0.1290323,0.0798 -0.3639068,-0.0108 -0.5219432,-0.20123 -0.2281111,-0.274854 -0.1003649,-0.336894 0.6197498,-0.300978 0.7691667,0.03836 0.871392,-0.02146 0.6723173,-0.393433 -0.1842045,-0.344189 -0.067702,-0.501736 0.5408959,-0.731456 0.4305537,-0.162516 0.7756676,-0.185288 0.7756676,-0.05118 0,0.132881 -0.2083593,0.251001 -0.4630208,0.262489 -0.2910596,0.01313 -0.3368876,0.07155 -0.1233957,0.157306 0.3935944,0.158095 1.1712052,-0.40331 0.9822068,-0.709116 -0.070152,-0.113509 0.1582225,-0.278104 0.5074999,-0.365767 0.3492773,-0.08766 0.8544701,-0.230658 1.1226506,-0.317766 0.4047392,-0.131465 0.4201569,-0.109864 0.090726,0.127111 -0.328886,0.236583 -0.2922164,0.286185 0.2140524,0.289542 0.3360101,0.0022 0.5424273,-0.106784 0.458705,-0.242249 -0.083722,-0.135466 -0.012822,-0.332456 0.1575571,-0.437755 0.1822156,-0.112616 0.2392221,-0.07729 0.138436,0.08579 -0.1777155,0.28755 1.0966474,0.737734 1.3555251,0.478856 0.07984,-0.07984 -0.08303,-0.148789 -0.3619493,-0.153214 -0.4351825,-0.0069 -0.4479881,-0.04264 -0.090274,-0.251889 0.2292642,-0.134113 0.6991383,-0.170021 1.0441643,-0.07979 0.563499,0.147358 0.576894,0.181737 0.131668,0.337914 -0.395136,0.138606 -0.416843,0.204108 -0.107039,0.322991 0.213737,0.08202 0.586213,0.0046 0.827723,-0.17196 0.401555,-0.293624 0.352167,-0.568296 -0.5775,-3.211712 C 10.456988,93.274917 9.9067464,91.746243 9.7933635,91.46771 9.6330811,91.073964 9.670804,91.009816 9.9629047,91.1794 10.185687,91.30874 10.248857,91.299484 10.118111,91.156658 9.9968434,91.024186 9.8182496,90.907678 9.7212358,90.897751 9.4805927,90.873126 5.7983049,87.35486 6.0068059,87.348774 c 1.0971584,-0.03202 3.7290886,2.217444 4.5854291,3.919088 0.590839,1.174062 1.448209,3.88838 1.518149,4.80625 0.07679,1.007789 0.533883,0.756935 1.351897,-0.741925 0.846295,-1.550681 2.134409,-2.81 3.424753,-3.348194 0.545703,-0.22761 0.992187,-0.348517 0.992187,-0.268684 0,0.07983 0.252494,0.01002 0.561096,-0.155138 0.394355,-0.211052 0.507654,-0.213819 0.38126,-0.0093 -0.09891,0.160039 -0.02398,0.296206 0.166509,0.302594 0.190489,0.0064 -0.100798,0.171176 -0.647303,0.366198 -2.620617,0.935174 -4.744183,3.782101 -4.638191,6.21812 0.0316,0.726211 0.132357,1.199183 0.223909,1.051049 0.2652,-0.429104 1.625643,0.04365 1.775581,0.617008 0.103565,0.39604 0.309835,0.49072 0.885089,0.40629 0.598767,-0.0879 0.691447,-0.0395 0.459489,0.24003 -0.159811,0.19256 -0.18669,0.35583 -0.05973,0.36282 0.126959,0.007 -0.185885,0.21646 -0.695207,0.4655 -0.509323,0.24904 -0.926042,0.63028 -0.926042,0.84719 0,0.21691 -0.119063,0.40467 -0.264583,0.41724 -0.442704,0.0382 -1.313086,0.45312 -1.484534,0.70764 -0.08889,0.13196 -0.235103,0.0484 -0.324919,-0.18564 z m -0.836381,-3.876168 c 0.493121,-0.234292 0.488615,-0.243724 -0.06615,-0.138466 -0.440968,0.08367 -0.595313,-0.01211 -0.595313,-0.369396 0,-0.265291 0.148828,-0.542401 0.330729,-0.6158 0.197575,-0.07972 0.144314,-0.141861 -0.132291,-0.15434 -0.254662,-0.01149 -0.463021,0.164732 -0.463021,0.391602 0,0.226869 -0.119063,0.338905 -0.264584,0.248968 -0.14552,-0.08994 -0.264583,0.02913 -0.264583,0.264584 0,0.235457 0.119063,0.35452 0.264583,0.264583 0.145521,-0.08994 0.264584,-0.03743 0.264584,0.116677 0,0.332574 0.212418,0.330644 0.926041,-0.0084 z"
       id="path7599" />
    <path
       style="fill:#83a659;stroke-width:1.51092"
       d="m 17.788873,104.07882 c -0.06687,-0.10914 0.510157,-0.19844 1.282276,-0.19844 0.77212,0 1.266287,0.0875 1.098151,0.19439 -0.401738,0.25545 -2.2245,0.25855 -2.380427,0.004 z"
       id="path7598" />
    <path
       style="fill:#7ca154;stroke-width:1.51092"
       d="m 1.5583264,101.1684 c 0.016136,-0.32742 0.1825949,-0.59531 0.3699087,-0.59531 0.1873138,0 0.3405705,-0.12609 0.3405705,-0.2802 0,-0.15411 -0.094982,-0.22149 -0.2110702,-0.14975 -0.1160886,0.0717 -0.3839793,0.0167 -0.5953125,-0.12237 -0.2760814,-0.181656 -0.1729718,-0.217742 0.3662976,-0.128196 1.4490031,0.240606 1.9126875,1.209686 0.5788105,1.209686 -0.3430872,0 -0.6811131,0.14883 -0.7511688,0.33073 -0.070056,0.1819 -0.1141718,0.0628 -0.098036,-0.26459 z"
       id="path7571" />
    <path
       style="fill:#7ca154;stroke-width:1.51092"
       d="m -0.79320169,101.42894 c -0.15613533,-0.10692 -0.37078751,-0.42889 -0.47700471,-0.71549 -0.1062173,-0.28661 -0.107037,-0.43502 -0.00182,-0.3298 0.1052155,0.10521 0.46869572,0.01 0.80773389,-0.2126 0.33903818,-0.222151 0.61643305,-0.285837 0.61643305,-0.14153 0,0.14431 0.20835936,0.19687 0.46302081,0.11679 0.39534875,-0.12431 0.38795785,-0.0844 -0.0505697,0.27289 -0.28247478,0.23016 -0.75872476,0.42226 -1.05833327,0.42689 -0.53585848,0.008 -0.53636648,0.0147 -0.0311522,0.39687 0.51223018,0.38744 0.27054923,0.55495 -0.26830631,0.18598 z"
       id="path7570" />
    <path
       style="fill:#7ca154;stroke-width:1.51092"
       d="m -0.65636107,102.27511 c -0.24995816,-0.30118 -0.23084175,-0.3791 0.0930054,-0.3791 0.55012729,0 1.24466137,0.27966 1.24466137,0.50117 0,0.34689 -1.02618053,0.25325 -1.33766677,-0.12207 z"
       id="path7567" />
    <path
       style="fill:#7ca154;stroke-width:1.51092"
       d="m 16.137922,103.24097 c -0.266893,-0.26559 -0.07567,-0.52113 0.286091,-0.38231 0.218281,0.0838 0.396875,0.0205 0.396875,-0.14059 0,-0.16109 -0.178594,-0.29289 -0.396875,-0.29289 -0.218281,0 -0.396875,-0.12609 -0.396875,-0.2802 0,-0.15411 0.119063,-0.20662 0.264584,-0.11668 0.14552,0.0899 0.264583,0.0374 0.264583,-0.11668 0,-0.15411 0.193172,-0.28019 0.429272,-0.28019 0.369468,0 0.378683,0.0613 0.06615,0.44019 -0.326809,0.39617 -0.307642,0.41064 0.191654,0.14467 0.415463,-0.2213 0.646248,-0.21557 0.919021,0.0228 0.200333,0.17509 0.159042,0.0709 -0.09176,-0.23165 -0.719275,-0.86755 -0.493756,-1.63088 0.259333,-0.87779 0.209271,0.20927 0.430408,0.21155 0.780521,0.008 0.435848,-0.25334 0.411754,-0.28482 -0.223469,-0.292 -0.391594,-0.004 -0.780983,-0.11968 -0.865308,-0.25612 -0.0862,-0.13947 0.312391,-0.24165 0.910427,-0.23339 0.743059,0.0102 1.063745,0.12963 1.063745,0.39598 0,0.20971 0.113089,0.31141 0.251308,0.22598 0.13822,-0.0854 0.380534,0.0861 0.538476,0.38126 0.35531,0.6639 1.465099,0.70839 1.834856,0.0736 0.149669,-0.25697 0.273266,-0.31584 0.277731,-0.13229 0.0044,0.1819 0.298675,0.33073 0.653889,0.33073 0.355214,0 0.703506,0.0933 0.773982,0.20733 0.07048,0.11403 -0.178765,0.20333 -0.55387,0.19844 -0.375104,-0.005 -0.733318,0.13993 -0.79603,0.32183 -0.06271,0.1819 0.02199,0.33073 0.188224,0.33073 0.166236,0 0.228662,-0.11906 0.138725,-0.26458 -0.08994,-0.14553 0.04761,-0.26459 0.305665,-0.26459 0.433711,0 0.436574,0.0326 0.03786,0.43133 -0.52505,0.52505 -2.485387,0.74976 -2.753681,0.31565 -0.132286,-0.21404 -0.036,-0.24879 0.316233,-0.11414 0.466926,0.1785 0.463853,0.15384 -0.03941,-0.31612 -0.677158,-0.63236 -1.5569,-1.11316 -2.016459,-1.10205 -0.224988,0.005 -0.175854,0.13895 0.138912,0.37745 0.38088,0.28861 0.425885,0.4742 0.206483,0.85148 -0.154303,0.26535 -0.284172,0.39609 -0.288597,0.29055 -0.0044,-0.10553 -0.312506,-0.0761 -0.684625,0.0653 -0.372118,0.14148 -0.610927,0.15101 -0.530686,0.0212 0.08024,-0.12984 -0.04175,-0.30807 -0.271102,-0.39608 -0.591961,-0.22716 -0.6383,-0.20883 -0.6383,0.25247 0,0.22687 0.119063,0.33891 0.264584,0.24897 0.145521,-0.0899 0.264583,-0.05 0.264583,0.0887 0,0.24067 -1.245209,0.29603 -1.476716,0.0657 z"
       id="path7565" />
    <path
       style="fill:#7ca154;stroke-width:1.51092"
       d="m 13.291644,103.3669 c -0.117285,-0.30564 -0.352301,-0.37812 -0.834007,-0.25722 -0.397448,0.0998 -0.839213,0.0285 -1.084308,-0.17493 -0.333304,-0.27661 -0.453909,-0.27804 -0.621202,-0.007 -0.158252,0.25606 -0.247351,0.23231 -0.374841,-0.0999 -0.09198,-0.2397 -0.299858,-0.35386 -0.4619431,-0.25369 -0.2069057,0.12787 -0.187757,0.2499 0.064277,0.40959 0.2606221,0.16514 0.1915901,0.22857 -0.2519505,0.23151 -0.3950376,0.003 -0.5442138,-0.10389 -0.4221405,-0.30141 0.128331,-0.20764 0.07112,-0.23274 -0.1786533,-0.0784 -0.4975844,0.30752 -3.9837911,0.39178 -3.7983937,0.0918 0.080604,-0.13042 -0.039067,-0.23713 -0.2659366,-0.23713 -0.2268695,0 -0.4124899,-0.11906 -0.4124899,-0.26458 0,-0.14553 0.1389062,-0.26459 0.3086805,-0.26459 0.1697743,0 0.2463467,-0.0623 0.170161,-0.13852 -0.076186,-0.0762 -0.331974,-0.0643 -0.5684184,0.0264 -0.3320198,0.12741 -0.3686424,0.27943 -0.1608519,0.66769 0.3781331,0.70654 -0.1452224,0.6505 -0.6495761,-0.0696 -0.2204643,-0.31476 -0.3392514,-0.67194 -0.2639714,-0.79375 0.07528,-0.12181 -0.071198,-0.22146 -0.3255073,-0.22146 -0.4019687,0 -0.3867245,-0.0705 0.1166768,-0.53948 0.5791488,-0.53956 0.7866445,-0.94297 0.3444526,-0.66968 -0.1290323,0.0798 -0.3639068,-0.0108 -0.5219432,-0.20123 -0.2281111,-0.274854 -0.1003649,-0.336894 0.6197498,-0.300978 0.7691667,0.03836 0.871392,-0.02146 0.6723173,-0.393433 -0.1842045,-0.344189 -0.067702,-0.501736 0.5408959,-0.731456 0.4305537,-0.162516 0.7756676,-0.185288 0.7756676,-0.05118 0,0.132881 -0.2083593,0.251001 -0.4630208,0.262489 -0.2910596,0.01313 -0.3368876,0.07155 -0.1233957,0.157306 0.3935944,0.158095 1.1712052,-0.40331 0.9822068,-0.709116 -0.070152,-0.113509 0.1582225,-0.278104 0.5074999,-0.365767 0.3492773,-0.08766 0.8544701,-0.230658 1.1226506,-0.317766 0.4047392,-0.131465 0.4201569,-0.109864 0.090726,0.127111 -0.328886,0.236583 -0.2922164,0.286185 0.2140524,0.289542 0.3360101,0.0022 0.5424273,-0.106784 0.458705,-0.242249 -0.083722,-0.135466 -0.012822,-0.332456 0.1575571,-0.437755 0.1822156,-0.112616 0.2392221,-0.07729 0.138436,0.08579 -0.1777155,0.28755 1.0966474,0.737734 1.3555251,0.478856 0.07984,-0.07984 -0.08303,-0.148789 -0.3619493,-0.153214 -0.4351825,-0.0069 -0.4479881,-0.04264 -0.090274,-0.251889 0.2292642,-0.134113 0.6991383,-0.170021 1.0441643,-0.07979 0.563499,0.147358 0.576894,0.181737 0.131668,0.337914 -0.395136,0.138606 -0.416843,0.204108 -0.107039,0.322991 0.213737,0.08202 0.586213,0.0046 0.827723,-0.17196 0.401555,-0.293624 0.352167,-0.568296 -0.5775,-3.211712 C 10.456988,93.274917 9.9067464,91.746243 9.7933635,91.46771 9.6330811,91.073964 9.670804,91.009816 9.9629047,91.1794 10.185687,91.30874 10.248857,91.299484 10.118111,91.156658 9.9968434,91.024186 9.8182496,90.907678 9.7212358,90.897751 9.4805927,90.873126 5.7983049,87.35486 6.0068059,87.348774 c 1.0997717,-0.0321 3.6726013,2.177522 4.5811141,3.934392 0.585572,1.132372 1.451267,3.856572 1.522464,4.790946 0.0745,0.97768 0.515278,0.766651 1.266821,-0.606504 1.087387,-1.98678 2.774201,-3.446038 4.304097,-3.723461 0.395096,-0.07165 0.85778,-0.216431 1.028185,-0.321748 0.184685,-0.114141 0.239216,-0.07723 0.135008,0.09138 -0.09615,0.155577 -0.02525,0.343167 0.157557,0.416868 0.182808,0.0737 0.04596,0.143401 -0.304106,0.154889 -0.350067,0.01149 -1.035377,0.325138 -1.522911,0.696999 -0.487535,0.371861 -1.023186,0.59159 -1.190334,0.488287 -0.173537,-0.107252 -0.232296,-0.07196 -0.136974,0.08228 0.09181,0.148557 -0.08125,0.494375 -0.384592,0.768485 -1.025467,0.926655 -1.822954,2.881794 -1.760543,4.316188 0.0316,0.726211 0.132357,1.199183 0.223909,1.051049 0.2652,-0.429104 1.625643,0.04365 1.775581,0.617006 0.103565,0.39604 0.309835,0.49072 0.885089,0.40629 0.598767,-0.0879 0.691447,-0.0395 0.459489,0.24003 -0.159811,0.19256 -0.18669,0.35583 -0.05973,0.36282 0.126959,0.007 -0.185885,0.21646 -0.695207,0.4655 -0.509323,0.24904 -0.926042,0.63028 -0.926042,0.84719 0,0.21691 -0.119063,0.40467 -0.264583,0.41724 -0.442704,0.0382 -1.313086,0.45312 -1.484534,0.70764 -0.08889,0.13196 -0.235103,0.0484 -0.324919,-0.18564 z m -0.836381,-3.876168 c 0.493121,-0.234292 0.488615,-0.243724 -0.06615,-0.138466 -0.440968,0.08367 -0.595313,-0.01211 -0.595313,-0.369396 0,-0.265291 0.148828,-0.542401 0.330729,-0.6158 0.197575,-0.07972 0.144314,-0.141861 -0.132291,-0.15434 -0.254662,-0.01149 -0.463021,0.164732 -0.463021,0.391602 0,0.226869 -0.119063,0.338905 -0.264584,0.248968 -0.14552,-0.08994 -0.264583,0.02913 -0.264583,0.264584 0,0.235457 0.119063,0.35452 0.264583,0.264583 0.145521,-0.08994 0.264584,-0.03743 0.264584,0.116677 0,0.332574 0.212418,0.330644 0.926041,-0.0084 z"
       id="path7564" />
    <path
       style="fill:#7ca154;stroke-width:1.51092"
       d="m 17.788873,104.07882 c -0.06687,-0.10914 0.510157,-0.19844 1.282276,-0.19844 0.77212,0 1.266287,0.0875 1.098151,0.19439 -0.401738,0.25545 -2.2245,0.25855 -2.380427,0.004 z"
       id="path7563" />
    <path
       style="fill:#92894e;stroke-width:1.51092"
       d="m 1.5583264,101.1684 c 0.016136,-0.32742 0.1825949,-0.59531 0.3699087,-0.59531 0.1873138,0 0.3405705,-0.12609 0.3405705,-0.2802 0,-0.15411 -0.094982,-0.22149 -0.2110702,-0.14975 -0.1160886,0.0717 -0.3839793,0.0167 -0.5953125,-0.12237 -0.2760814,-0.181656 -0.1729718,-0.217742 0.3662976,-0.128196 1.4490031,0.240606 1.9126875,1.209686 0.5788105,1.209686 -0.3430872,0 -0.6811131,0.14883 -0.7511688,0.33073 -0.070056,0.1819 -0.1141718,0.0628 -0.098036,-0.26459 z"
       id="path7523" />
    <path
       style="fill:#92894e;stroke-width:1.51092"
       d="m -0.79320169,101.42894 c -0.15613533,-0.10692 -0.37078751,-0.42889 -0.47700471,-0.71549 -0.1062173,-0.28661 -0.107037,-0.43502 -0.00182,-0.3298 0.1052155,0.10521 0.46869572,0.01 0.80773389,-0.2126 0.33903818,-0.222151 0.61643305,-0.285837 0.61643305,-0.14153 0,0.14431 0.20835936,0.19687 0.46302081,0.11679 0.39534875,-0.12431 0.38795785,-0.0844 -0.0505697,0.27289 -0.28247478,0.23016 -0.75872476,0.42226 -1.05833327,0.42689 -0.53585848,0.008 -0.53636648,0.0147 -0.0311522,0.39687 0.51223018,0.38744 0.27054923,0.55495 -0.26830631,0.18598 z"
       id="path7522" />
    <path
       style="fill:#92894e;stroke-width:1.51092"
       d="m -0.65636107,102.27511 c -0.24995816,-0.30118 -0.23084175,-0.3791 0.0930054,-0.3791 0.55012729,0 1.24466137,0.27966 1.24466137,0.50117 0,0.34689 -1.02618053,0.25325 -1.33766677,-0.12207 z"
       id="path7519" />
    <path
       style="fill:#92894e;stroke-width:1.51092"
       d="m 16.137922,103.24097 c -0.266893,-0.26559 -0.07567,-0.52113 0.286091,-0.38231 0.218281,0.0838 0.396875,0.0205 0.396875,-0.14059 0,-0.16109 -0.178594,-0.29289 -0.396875,-0.29289 -0.218281,0 -0.396875,-0.12609 -0.396875,-0.2802 0,-0.15411 0.119063,-0.20662 0.264584,-0.11668 0.14552,0.0899 0.264583,0.0374 0.264583,-0.11668 0,-0.15411 0.193172,-0.28019 0.429272,-0.28019 0.369468,0 0.378683,0.0613 0.06615,0.44019 -0.326809,0.39617 -0.307642,0.41064 0.191654,0.14467 0.415463,-0.2213 0.646248,-0.21557 0.919021,0.0228 0.200333,0.17509 0.159042,0.0709 -0.09176,-0.23165 -0.719275,-0.86755 -0.493756,-1.63088 0.259333,-0.87779 0.209271,0.20927 0.430408,0.21155 0.780521,0.008 0.435848,-0.25334 0.411754,-0.28482 -0.223469,-0.292 -0.391594,-0.004 -0.780983,-0.11968 -0.865308,-0.25612 -0.0862,-0.13947 0.312391,-0.24165 0.910427,-0.23339 0.743059,0.0102 1.063745,0.12963 1.063745,0.39598 0,0.20971 0.113089,0.31141 0.251308,0.22598 0.13822,-0.0854 0.380534,0.0861 0.538476,0.38126 0.35531,0.6639 1.465099,0.70839 1.834856,0.0736 0.149669,-0.25697 0.273266,-0.31584 0.277731,-0.13229 0.0044,0.1819 0.298675,0.33073 0.653889,0.33073 0.355214,0 0.703506,0.0933 0.773982,0.20733 0.07048,0.11403 -0.178765,0.20333 -0.55387,0.19844 -0.375104,-0.005 -0.733318,0.13993 -0.79603,0.32183 -0.06271,0.1819 0.02199,0.33073 0.188224,0.33073 0.166236,0 0.228662,-0.11906 0.138725,-0.26458 -0.08994,-0.14553 0.04761,-0.26459 0.305665,-0.26459 0.433711,0 0.436574,0.0326 0.03786,0.43133 -0.52505,0.52505 -2.485387,0.74976 -2.753681,0.31565 -0.132286,-0.21404 -0.036,-0.24879 0.316233,-0.11414 0.466926,0.1785 0.463853,0.15384 -0.03941,-0.31612 -0.677158,-0.63236 -1.5569,-1.11316 -2.016459,-1.10205 -0.224988,0.005 -0.175854,0.13895 0.138912,0.37745 0.38088,0.28861 0.425885,0.4742 0.206483,0.85148 -0.154303,0.26535 -0.284172,0.39609 -0.288597,0.29055 -0.0044,-0.10553 -0.312506,-0.0761 -0.684625,0.0653 -0.372118,0.14148 -0.610927,0.15101 -0.530686,0.0212 0.08024,-0.12984 -0.04175,-0.30807 -0.271102,-0.39608 -0.591961,-0.22716 -0.6383,-0.20883 -0.6383,0.25247 0,0.22687 0.119063,0.33891 0.264584,0.24897 0.145521,-0.0899 0.264583,-0.05 0.264583,0.0887 0,0.24067 -1.245209,0.29603 -1.476716,0.0657 z"
       id="path7517" />
    <path
       style="fill:#92894e;stroke-width:1.51092"
       d="m 13.291644,103.3669 c -0.117285,-0.30564 -0.352301,-0.37812 -0.834007,-0.25722 -0.397448,0.0998 -0.839213,0.0285 -1.084308,-0.17493 -0.333304,-0.27661 -0.453909,-0.27804 -0.621202,-0.007 -0.158252,0.25606 -0.247351,0.23231 -0.374841,-0.0999 -0.09198,-0.2397 -0.299858,-0.35386 -0.4619431,-0.25369 -0.2069057,0.12787 -0.187757,0.2499 0.064277,0.40959 0.2606221,0.16514 0.1915901,0.22857 -0.2519505,0.23151 -0.3950376,0.003 -0.5442138,-0.10389 -0.4221405,-0.30141 0.128331,-0.20764 0.07112,-0.23274 -0.1786533,-0.0784 -0.4975844,0.30752 -3.9837911,0.39178 -3.7983937,0.0918 0.080604,-0.13042 -0.039067,-0.23713 -0.2659366,-0.23713 -0.2268695,0 -0.4124899,-0.11906 -0.4124899,-0.26458 0,-0.14553 0.1389062,-0.26459 0.3086805,-0.26459 0.1697743,0 0.2463467,-0.0623 0.170161,-0.13852 -0.076186,-0.0762 -0.331974,-0.0643 -0.5684184,0.0264 -0.3320198,0.12741 -0.3686424,0.27943 -0.1608519,0.66769 0.3781331,0.70654 -0.1452224,0.6505 -0.6495761,-0.0696 -0.2204643,-0.31476 -0.3392514,-0.67194 -0.2639714,-0.79375 0.07528,-0.12181 -0.071198,-0.22146 -0.3255073,-0.22146 -0.4019687,0 -0.3867245,-0.0705 0.1166768,-0.53948 0.5791488,-0.53956 0.7866445,-0.94297 0.3444526,-0.66968 -0.1290323,0.0798 -0.3639068,-0.0108 -0.5219432,-0.20123 -0.2281111,-0.274854 -0.1003649,-0.336894 0.6197498,-0.300978 0.7691667,0.03836 0.871392,-0.02146 0.6723173,-0.393433 -0.1842045,-0.344189 -0.067702,-0.501736 0.5408959,-0.731456 0.4305537,-0.162516 0.7756676,-0.185288 0.7756676,-0.05118 0,0.132881 -0.2083593,0.251001 -0.4630208,0.262489 -0.2910596,0.01313 -0.3368876,0.07155 -0.1233957,0.157306 0.3935944,0.158095 1.1712052,-0.40331 0.9822068,-0.709116 -0.070152,-0.113509 0.1582225,-0.278104 0.5074999,-0.365767 0.3492773,-0.08766 0.8544701,-0.230658 1.1226506,-0.317766 0.4047392,-0.131465 0.4201569,-0.109864 0.090726,0.127111 -0.328886,0.236583 -0.2922164,0.286185 0.2140524,0.289542 0.3360101,0.0022 0.5424273,-0.106784 0.458705,-0.242249 -0.083722,-0.135466 -0.012822,-0.332456 0.1575571,-0.437755 0.1822156,-0.112616 0.2392221,-0.07729 0.138436,0.08579 -0.1777155,0.28755 1.0966474,0.737734 1.3555251,0.478856 0.07984,-0.07984 -0.08303,-0.148789 -0.3619493,-0.153214 -0.4351825,-0.0069 -0.4479881,-0.04264 -0.090274,-0.251889 0.2292642,-0.134113 0.6991383,-0.170021 1.0441643,-0.07979 0.563499,0.147358 0.576894,0.181737 0.131668,0.337914 -0.395136,0.138606 -0.416843,0.204108 -0.107039,0.322991 0.213737,0.08202 0.586213,0.0046 0.827723,-0.17196 C 11.995156,97.783159 11.9443,97.501343 10.999352,94.78361 9.7375868,91.15469 9.3297676,90.47495 7.4315776,88.836957 6.6123138,88.129995 5.9902246,87.503354 6.0491571,87.444422 c 0.058933,-0.05893 0.5127737,0.06233 1.0085359,0.269473 1.0293947,0.430108 2.8682644,2.289468 3.530227,3.569563 0.585572,1.132372 1.451267,3.856572 1.522464,4.790946 0.0745,0.97768 0.515278,0.766651 1.266821,-0.606504 1.087387,-1.98678 2.774201,-3.446038 4.304097,-3.723461 0.395096,-0.07165 0.85778,-0.216431 1.028185,-0.321748 0.184685,-0.114141 0.239216,-0.07723 0.135008,0.09138 -0.09615,0.155577 -0.02525,0.343167 0.157557,0.416868 0.182808,0.0737 0.04596,0.143401 -0.304106,0.154889 -0.350067,0.01149 -1.026131,0.318087 -1.502367,0.681329 -0.476235,0.363243 -1.040977,0.593251 -1.254982,0.511129 -0.214005,-0.08212 -0.466858,-0.0235 -0.561896,0.130279 -0.109111,0.176545 0.0029,0.216907 0.303966,0.109512 0.357101,-0.127391 0.301449,0.02279 -0.221732,0.598343 -1.193185,1.312634 -1.822044,2.857603 -1.758413,4.320033 0.03164,0.727097 0.132427,1.200795 0.223979,1.052661 0.2652,-0.429104 1.625643,0.04365 1.775581,0.617006 0.103565,0.39604 0.309835,0.49072 0.885089,0.40629 0.598767,-0.0879 0.691447,-0.0395 0.459489,0.24003 -0.159811,0.19256 -0.18669,0.35583 -0.05973,0.36282 0.126959,0.007 -0.185885,0.21646 -0.695207,0.4655 -0.509323,0.24904 -0.926042,0.63028 -0.926042,0.84719 0,0.21691 -0.119063,0.40467 -0.264583,0.41724 -0.442704,0.0382 -1.313086,0.45312 -1.484534,0.70764 -0.08889,0.13196 -0.235103,0.0484 -0.324919,-0.18564 z m -0.836381,-3.876168 c 0.493121,-0.234292 0.488615,-0.243724 -0.06615,-0.138466 -0.440968,0.08367 -0.595313,-0.01211 -0.595313,-0.369396 0,-0.265291 0.148828,-0.542401 0.330729,-0.6158 0.197575,-0.07972 0.144314,-0.141861 -0.132291,-0.15434 -0.254662,-0.01149 -0.463021,0.164732 -0.463021,0.391602 0,0.226869 -0.119063,0.338905 -0.264584,0.248968 -0.14552,-0.08994 -0.264583,0.02913 -0.264583,0.264584 0,0.235457 0.119063,0.35452 0.264583,0.264583 0.145521,-0.08994 0.264584,-0.03743 0.264584,0.116677 0,0.332574 0.212418,0.330644 0.926041,-0.0084 z"
       id="path7516" />
    <path
       style="fill:#92894e;stroke-width:1.51092"
       d="m 17.788873,104.07882 c -0.06687,-0.10914 0.510157,-0.19844 1.282276,-0.19844 0.77212,0 1.266287,0.0875 1.098151,0.19439 -0.401738,0.25545 -2.2245,0.25855 -2.380427,0.004 z"
       id="path7515" />
    <path
       style="fill:#789c52;stroke-width:1.51092"
       d="m 13.284385,99.349788 c 0.211231,-0.08675 0.228445,-0.441467 0.05819,-1.199192 -0.172696,-0.768615 -0.149148,-1.199856 0.08243,-1.509564 0.299934,-0.401126 0.288738,-0.401271 -0.149638,-0.0019 -0.274342,0.249905 -0.485254,0.834714 -0.500968,1.389063 -0.01563,0.551391 -0.161344,0.95744 -0.343588,0.95744 -0.362124,0 -0.370557,-1.36651 -0.01003,-1.624721 0.130177,-0.09323 0.01151,-0.240978 -0.263693,-0.328326 C 11.806404,96.92124 11.471589,96.259605 11.037864,94.820808 10.17296,91.951659 9.2585722,90.389748 7.628532,88.997161 6.8564017,88.33751 6.2781191,87.744334 6.3434596,87.678994 c 0.2654846,-0.265485 1.2172934,0.260632 1.2210639,0.674949 0.00297,0.326857 0.060662,0.356002 0.2170278,0.109648 0.1536793,-0.242122 0.5094387,-0.01924 1.277777,0.800516 0.5856404,0.624833 1.1922257,1.374155 1.3479677,1.665161 0.496207,0.927172 1.647292,4.412596 1.704278,5.160463 0.07841,1.028987 0.574753,0.718907 1.514423,-0.946097 0.730297,-1.294014 2.85447,-3.273812 3.563668,-3.321453 0.160975,-0.01081 0.554573,-0.06868 0.874662,-0.128597 0.32009,-0.05992 0.654539,0.0085 0.743219,0.151953 0.08868,0.143489 -0.03269,0.260889 -0.269726,0.260889 -0.422999,0 -2.128584,1.106027 -3.17214,2.057049 -0.291042,0.265234 -0.843935,1.102039 -1.228652,1.859565 -0.559797,1.102269 -0.658423,1.55938 -0.493871,2.288982 0.211888,0.939484 0.124195,1.218015 -0.372095,1.181848 -0.190766,-0.0139 -0.18631,-0.06209 0.01332,-0.144082 z"
       id="path7414" />
    <path
       style="fill:#789c52;stroke-width:1.51092"
       d="m 13.880004,102.62361 c -0.01676,-0.1819 -0.01979,-0.56885 -0.0067,-0.85989 0.01305,-0.29104 -0.04071,-0.38631 -0.119455,-0.21169 -0.100913,0.22376 -0.335941,0.24419 -0.796183,0.0692 -0.359153,-0.13655 -0.738172,-0.23555 -0.842265,-0.22 -0.104092,0.0156 -0.72504,-0.003 -1.379884,-0.0419 -1.060682,-0.0625 -0.9884913,-0.0924 0.661458,-0.27437 4.293152,-0.47342 4.440665,-0.48111 4.17742,-0.21787 -0.14414,0.14414 -0.508779,0.28066 -0.81031,0.30337 -0.343899,0.0259 -0.591462,0.26742 -0.664212,0.64799 -0.150167,0.78555 0.188604,0.76831 1.076258,-0.0548 0.392344,-0.36381 0.817014,-0.66146 0.943709,-0.66146 0.275963,0 -1.725299,1.83711 -2.010886,1.84594 -0.10914,0.003 -0.212148,-0.14269 -0.228905,-0.32459 z"
       id="path7408" />
    <path
       style="fill:#74984c;stroke-width:1.51092"
       d="m 13.284385,99.349788 c 0.211231,-0.08675 0.228445,-0.441467 0.05819,-1.199192 -0.172696,-0.768615 -0.149148,-1.199856 0.08243,-1.509564 0.299934,-0.401126 0.288738,-0.401271 -0.149638,-0.0019 -0.274342,0.249905 -0.485254,0.834714 -0.500968,1.389063 -0.03252,1.147348 -0.62782,1.302558 -0.62782,0.16369 0,-0.436563 0.09922,-0.79375 0.220486,-0.79375 0.121267,0 0.220486,-0.126089 0.220486,-0.280198 0,-0.154109 -0.09498,-0.221497 -0.21107,-0.14975 -0.428542,0.264854 -0.761611,-0.27921 -1.356536,-2.215885 C 10.155965,91.939708 9.2566834,90.40657 7.5934935,88.910671 6.2465588,87.699216 6.1189242,87.376534 7.1419574,87.769108 c 0.230183,0.08833 0.4203378,0.35622 0.4225661,0.595313 0.003,0.321529 0.059503,0.34735 0.2170278,0.09917 0.2501793,-0.394157 2.1201438,1.469229 2.7417427,2.732097 0.317337,0.644716 1.386206,3.83842 1.699481,5.077925 0.160425,0.634738 0.539644,0.319081 1.589311,-1.322917 0.581412,-0.909505 1.526008,-1.975155 2.099103,-2.36811 1.136439,-0.779225 2.633184,-1.162873 2.893504,-0.741666 0.09025,0.146028 -0.02984,0.265506 -0.266873,0.265506 -0.422999,0 -2.128584,1.106027 -3.17214,2.057049 -0.291042,0.265234 -0.843935,1.102039 -1.228652,1.859565 -0.559797,1.102269 -0.658423,1.55938 -0.493871,2.288982 0.211888,0.939484 0.124195,1.218015 -0.372095,1.181848 -0.190766,-0.0139 -0.18631,-0.06209 0.01332,-0.144082 z"
       id="path7261" />
    <path
       style="fill:#74984c;stroke-width:1.51092"
       d="m 13.880004,102.62361 c -0.01676,-0.1819 -0.01979,-0.56885 -0.0067,-0.85989 0.01305,-0.29104 -0.04071,-0.38631 -0.119455,-0.21169 -0.100913,0.22376 -0.335941,0.24419 -0.796183,0.0692 -0.359153,-0.13655 -0.738172,-0.23555 -0.842265,-0.22 -0.104092,0.0156 -0.72504,-0.003 -1.379884,-0.0419 -1.060682,-0.0625 -0.9884913,-0.0924 0.661458,-0.27437 4.293152,-0.47342 4.440665,-0.48111 4.17742,-0.21787 -0.14414,0.14414 -0.508779,0.28066 -0.81031,0.30337 -0.343899,0.0259 -0.591462,0.26742 -0.664212,0.64799 -0.150167,0.78555 0.188604,0.76831 1.076258,-0.0548 0.392344,-0.36381 0.817014,-0.66146 0.943709,-0.66146 0.275963,0 -1.725299,1.83711 -2.010886,1.84594 -0.10914,0.003 -0.212148,-0.14269 -0.228905,-0.32459 z"
       id="path7255" />
    <path
       style="fill:#897847;stroke-width:1.51092"
       d="M 7.6927636,89.079367 C 6.8196387,88.214849 6.3233609,87.589771 6.5899241,87.690304 c 0.2665633,0.100534 0.6138289,0.182788 0.7717014,0.182788 0.1578725,0 0.2065769,0.08046 0.1082321,0.178809 -0.2080981,0.208098 0.8497368,1.408691 1.2411888,1.408691 0.1455209,0 -0.020354,-0.327421 -0.36861,-0.727604 -0.3482563,-0.400182 -0.1766549,-0.295139 0.3813364,0.233429 0.710194,0.672746 0.945829,1.06959 0.7855102,1.322917 -0.1745269,0.275777 -0.6067466,-0.01212 -1.8165194,-1.209967 z"
       id="path7021" />
    <path
       style="fill:#897847;stroke-width:1.51092"
       d="m 16.669698,92.640259 c 0,-0.30508 0.136548,-0.421314 0.383582,-0.326518 0.246543,0.09461 0.315234,0.03661 0.192272,-0.162352 -0.105221,-0.170251 -0.09499,-0.318656 0.02274,-0.32979 0.117729,-0.01113 0.406455,-0.05779 0.641614,-0.103676 0.235158,-0.04589 0.592346,0.02093 0.79375,0.148483 0.276961,0.175407 0.229826,0.232904 -0.193443,0.235968 -0.307797,0.0022 -0.84783,0.230749 -1.200074,0.507824 -0.604259,0.475311 -0.640443,0.477009 -0.640443,0.03006 z"
       id="path7017" />
    <path
       style="fill:#897847;stroke-width:1.51092"
       d="m 11.403725,95.823731 c -0.222019,-0.429336 -0.40367,-0.961722 -0.40367,-1.183081 0,-0.221358 -0.292916,-1.064805 -0.650925,-1.874327 -0.358009,-0.809522 -0.5366028,-1.401202 -0.3968751,-1.314846 0.1397281,0.08636 0.2540501,0.03795 0.2540501,-0.107572 0,-0.14552 -0.119062,-0.338168 -0.2645831,-0.428104 -0.3178201,-0.196424 -0.3522722,-0.661459 -0.049004,-0.661459 0.1185681,0 0.4162251,0.420759 0.6614581,0.935018 0.514656,1.079246 0.548725,1.276441 0.181296,1.049357 -0.145521,-0.08994 -0.264584,-0.03743 -0.264584,0.116677 0,0.154109 0.09701,0.280198 0.21558,0.280198 0.422006,0 1.112121,1.872499 0.955472,2.592494 -0.120172,0.552336 -0.09144,0.624594 0.126413,0.317923 0.227566,-0.320344 0.282714,-0.256569 0.285984,0.330729 0.0052,0.930674 -0.148402,0.918161 -0.650612,-0.05301 z"
       id="path7010" />
    <path
       style="fill:#897847;stroke-width:1.51092"
       d="m 13.116722,97.135047 c 0,-0.208802 -0.216156,-0.272437 -0.595313,-0.175257 l -0.595312,0.152582 0.542745,-0.452452 c 0.626132,-0.521968 1.803865,-2.10423 2.035481,-2.734631 0.197522,-0.537607 1.787399,-1.694983 1.787399,-1.301165 0,0.159032 -0.286091,0.39792 -0.635757,0.530863 -0.674377,0.256398 -1.163534,0.803522 -0.71839,0.803522 0.145521,0 0.338168,-0.119063 0.428105,-0.264584 0.08994,-0.14552 0.305323,-0.26082 0.478636,-0.256222 0.173312,0.0046 0.01746,0.27249 -0.346344,0.595313 -0.363802,0.322823 -0.888209,1.093652 -1.165349,1.712952 -0.537877,1.201946 -1.215901,1.97654 -1.215901,1.389079 z"
       id="path7008" />
    <path
       style="fill:#897847;stroke-width:1.51092"
       d="m 12.152524,98.32432 c 0.02099,-0.363699 0.157219,-0.661271 0.302739,-0.661271 0.145521,0 0.281754,0.297572 0.30274,0.661271 0.02209,0.38289 -0.105354,0.661272 -0.30274,0.661272 -0.197386,0 -0.324833,-0.278382 -0.302739,-0.661272 z"
       id="path7005" />
    <path
       style="fill:#897847;stroke-width:1.51092"
       d="m 13.880004,102.62361 c -0.01676,-0.1819 -0.01979,-0.56885 -0.0067,-0.85989 0.01305,-0.29104 -0.04071,-0.38631 -0.119455,-0.21169 -0.100913,0.22376 -0.335941,0.24419 -0.796183,0.0692 -0.359153,-0.13655 -0.738172,-0.23555 -0.842265,-0.22 -0.104092,0.0156 -0.72504,-0.003 -1.379884,-0.0419 -1.060682,-0.0625 -0.9884913,-0.0924 0.661458,-0.27437 4.293152,-0.47342 4.440665,-0.48111 4.17742,-0.21787 -0.14414,0.14414 -0.508779,0.28066 -0.81031,0.30337 -0.343899,0.0259 -0.591462,0.26742 -0.664212,0.64799 -0.150167,0.78555 0.188604,0.76831 1.076258,-0.0548 0.392344,-0.36381 0.817014,-0.66146 0.943709,-0.66146 0.275963,0 -1.725299,1.83711 -2.010886,1.84594 -0.10914,0.003 -0.212148,-0.14269 -0.228905,-0.32459 z"
       id="path7001" />
    <path
       style="fill:#83743c;stroke-width:1.51092"
       d="m 16.669698,92.65851 c 0,-0.321022 0.133283,-0.440818 0.383582,-0.344769 0.246543,0.09461 0.315234,0.03661 0.192272,-0.162352 -0.105221,-0.170251 -0.09499,-0.318656 0.02274,-0.32979 0.117729,-0.01113 0.406455,-0.05779 0.641614,-0.103676 0.235158,-0.04589 0.592346,0.02093 0.79375,0.148483 0.268205,0.169861 0.19376,0.233001 -0.278217,0.235968 -0.354423,0.0022 -0.894457,0.238962 -1.200075,0.526075 -0.530884,0.49874 -0.555668,0.500081 -0.555668,0.03006 z"
       id="path6702" />
    <path
       style="fill:#83743c;stroke-width:1.51092"
       d="m 11.403725,95.823731 c -0.222019,-0.429336 -0.40367,-0.961722 -0.40367,-1.183081 0,-0.221358 -0.292916,-1.064805 -0.650925,-1.874327 -0.358009,-0.809522 -0.5366028,-1.401202 -0.3968751,-1.314846 0.1397281,0.08636 0.2502641,0.06069 0.2456361,-0.05704 -0.01252,-0.318386 -0.7853358,-1.284325 -0.7853358,-0.981582 0,0.142808 -0.6976124,-0.399983 -1.5502497,-1.206201 -0.8526374,-0.806219 -1.524767,-1.498176 -1.4936215,-1.537682 0.031146,-0.03951 0.3418048,0.04224 0.6903539,0.181667 0.3485492,0.139423 0.5236746,0.261043 0.3891677,0.270267 -0.3222532,0.0221 0.9197562,1.339687 1.2628408,1.339687 0.1455209,0 -0.023629,-0.327421 -0.3758883,-0.727604 -0.5905164,-0.670853 -0.5720522,-0.665693 0.2367282,0.06615 1.3165212,1.191278 3.0914967,4.013064 2.1635857,3.439583 -0.145521,-0.08994 -0.264584,-0.03743 -0.264584,0.116677 0,0.154109 0.09701,0.280198 0.21558,0.280198 0.422006,0 1.112121,1.872499 0.955472,2.592494 -0.120172,0.552336 -0.09144,0.624594 0.126413,0.317923 0.227566,-0.320344 0.282714,-0.256569 0.285984,0.330729 0.0052,0.930674 -0.148402,0.918161 -0.650612,-0.05301 z"
       id="path6694" />
    <path
       style="fill:#83743c;stroke-width:1.51092"
       d="m 13.116722,97.135047 c 0,-0.208802 -0.216156,-0.272437 -0.595313,-0.175257 l -0.595312,0.152582 0.542745,-0.452452 c 0.626132,-0.521968 1.803865,-2.10423 2.035481,-2.734631 0.197522,-0.537607 1.787399,-1.694983 1.787399,-1.301165 0,0.159032 -0.286091,0.39792 -0.635757,0.530863 -0.674377,0.256398 -1.163534,0.803522 -0.71839,0.803522 0.145521,0 0.338168,-0.119063 0.428105,-0.264584 0.08994,-0.14552 0.305323,-0.26082 0.478636,-0.256222 0.173312,0.0046 0.01746,0.27249 -0.346344,0.595313 -0.363802,0.322823 -0.888209,1.093652 -1.165349,1.712952 -0.537877,1.201946 -1.215901,1.97654 -1.215901,1.389079 z"
       id="path6691" />
    <path
       style="fill:#66883b;stroke-width:1.51092"
       d="m 11.403725,95.823731 c -0.222019,-0.429336 -0.40367,-0.961722 -0.40367,-1.183081 0,-0.221358 -0.292916,-1.064805 -0.650925,-1.874327 C 9.991121,91.956801 9.8125272,91.365121 9.9522549,91.451477 10.318975,91.678122 10.249254,91.259217 9.8277387,90.70334 9.6287833,90.440965 9.4242105,90.321903 9.3731325,90.438756 9.3220546,90.55561 8.5873324,89.966608 7.7404165,89.129863 6.8935006,88.293118 6.3250663,87.608509 6.4772293,87.608509 c 0.152163,0 0.6558656,0.416719 1.119339,0.926042 0.4634735,0.509323 0.9633651,0.926041 1.1108702,0.926041 0.1475052,0 -0.020021,-0.327421 -0.3722804,-0.727604 -0.5905164,-0.670853 -0.5720522,-0.665693 0.2367282,0.06615 1.3165212,1.191278 3.0914967,4.013064 2.1635857,3.439583 -0.145521,-0.08994 -0.264584,-0.03743 -0.264584,0.116677 0,0.154109 0.09701,0.280198 0.21558,0.280198 0.422006,0 1.112121,1.872499 0.955472,2.592494 -0.120172,0.552336 -0.09144,0.624594 0.126413,0.317923 0.227566,-0.320344 0.282714,-0.256569 0.285984,0.330729 0.0052,0.930674 -0.148402,0.918161 -0.650612,-0.05301 z"
       id="path6305" />
    <path
       style="fill:#66883b;stroke-width:1.51092"
       d="m 13.116722,97.10265 c 0,-0.175205 -0.242277,-0.233345 -0.595313,-0.14286 l -0.595312,0.152582 0.542745,-0.452452 c 0.626132,-0.521968 1.803865,-2.10423 2.035481,-2.734631 0.197522,-0.537607 1.787399,-1.694983 1.787399,-1.301165 0,0.159032 -0.286091,0.39792 -0.635757,0.530863 -0.674377,0.256398 -1.163534,0.803522 -0.71839,0.803522 0.145521,0 0.338168,-0.119063 0.428105,-0.264584 0.08994,-0.14552 0.305323,-0.26082 0.478636,-0.256222 0.173312,0.0046 0.01746,0.275485 -0.346344,0.601969 -0.363802,0.326484 -0.93331,1.126393 -1.265572,1.777576 -0.332262,0.651183 -0.549988,0.909274 -0.483836,0.573535 0.09999,-0.507494 0.05585,-0.556967 -0.261757,-0.293374 -0.21562,0.178948 -0.314038,0.531291 -0.225938,0.808871 0.08585,0.270497 0.08854,0.491812 0.006,0.491812 -0.08257,0 -0.150121,-0.132949 -0.150121,-0.295442 z"
       id="path6302" />
    <path
       style="fill:#755a4b;stroke-width:1.51092"
       d="m 10.509997,93.01264 c -0.170728,-0.374706 -0.244505,-0.787928 -0.163949,-0.918271 0.08056,-0.130342 -0.04416,-0.627436 -0.277148,-1.104652 l -0.4236134,-0.867666 0.5309024,0.661458 c 0.568785,0.708657 0.93132,1.68514 0.534608,1.439958 -0.13195,-0.08155 -0.239909,-0.02218 -0.239909,0.131927 0,0.154109 0.09373,0.280198 0.208279,0.280198 0.114554,0 0.226217,0.238125 0.24814,0.529167 0.05292,0.702561 -0.04399,0.667235 -0.41731,-0.152119 z"
       id="path3651" />
    <path
       style="fill:#5a8438;stroke-width:1.51092"
       d="m 10.509997,93.01264 c -0.170728,-0.374706 -0.244505,-0.787928 -0.163949,-0.918271 0.08056,-0.130342 -0.04416,-0.627436 -0.277148,-1.104652 l -0.4236134,-0.867666 0.5309024,0.661458 c 0.568785,0.708657 0.93132,1.68514 0.534608,1.439958 -0.13195,-0.08155 -0.239909,-0.02218 -0.239909,0.131927 0,0.154109 0.09373,0.280198 0.208279,0.280198 0.114554,0 0.226217,0.238125 0.24814,0.529167 0.05292,0.702561 -0.04399,0.667235 -0.41731,-0.152119 z"
       id="path2807" />
  </g>
</svg>
