<?xml version="1.0" encoding="UTF-8" standalone="no"?>
<!-- Created with Inkscape (http://www.inkscape.org/) -->

<svg
   width="185"
   height="185"
   viewBox="0 0 48.947914 48.947918"
   version="1.1"
   id="svg1"
   xmlns="http://www.w3.org/2000/svg"
   xmlns:svg="http://www.w3.org/2000/svg">
  <defs
     id="defs1" />
  <g
     id="g7863"
     style="display:inline;stroke-width:1.30394"
     transform="matrix(0.76690384,0,0,0.76690384,-34.800604,-31.002084)">
    <path
       style="fill:#e9e8d4;stroke-width:1.30394"
       d="m 60.131765,104.09205 c -1.265244,-0.32797 0.422707,-1.42549 3.406392,-2.21486 1.653268,-0.43739 3.200786,-0.58548 7.295758,-0.69819 2.858573,-0.0787 5.338548,-0.23028 5.511055,-0.3369 0.360999,-0.22311 0.402194,-3.90608 0.05767,-5.155864 -0.242676,-0.880319 -0.823138,-1.130927 -2.71504,-1.172187 -1.956094,-0.04266 -3.910658,-1.193366 -4.927987,-2.901242 -0.788509,-1.323736 -1.85986,-4.958859 -1.55217,-5.26655 0.397334,-0.397333 2.762896,-0.314503 3.916986,0.137154 3.065135,1.19955 4.609453,3.061169 5.203016,6.272043 0.277728,1.502369 0.44529,1.941291 0.652873,1.710173 0.05446,-0.06063 0.399526,-1.122274 0.766814,-2.359201 0.718117,-2.418425 0.753951,-2.143934 -0.511529,-3.918351 -0.715519,-1.003278 -0.786413,-4.146064 -0.127784,-5.664777 1.062121,-2.449114 4.157772,-4.95348 5.286337,-4.276619 0.892119,0.535052 1.716879,2.720895 1.841968,4.881724 0.100644,1.738561 0.0284,2.24825 -0.462404,3.262106 -0.54828,1.132595 -2.332076,2.877212 -3.648534,3.568398 -0.652569,0.342622 -1.29897,1.428072 -1.495345,2.511018 -0.06975,0.384655 -0.191406,0.906711 -0.270344,1.160124 -0.07894,0.253413 -0.198099,1.326284 -0.264803,2.384157 -0.129213,2.049205 0.108324,2.269938 0.813843,0.756274 1.032172,-2.214484 1.875415,-3.261934 3.1053,-3.857312 1.403295,-0.679323 2.153861,-0.679677 4.429079,-0.0021 l 1.813458,0.540071 -0.409279,0.981283 c -0.533636,1.27944 -1.804259,2.573655 -3.181113,3.240179 -0.854016,0.413421 -1.579664,0.52468 -3.226822,0.494745 -1.16877,-0.02124 -2.234675,0.02914 -2.368679,0.11196 -0.134004,0.08282 -0.405794,0.641903 -0.603979,1.242408 -0.415644,1.259416 -0.112797,1.681686 1.060416,1.478596 0.997158,-0.17262 8.611063,0.30512 10.296691,0.64607 2.202689,0.44554 3.947162,1.0531 4.600259,1.60217 0.498879,0.41941 0.525066,0.52652 0.184516,0.75469 -0.395563,0.26503 -33.468166,0.35022 -34.476619,0.0888 z"
       id="path7862" />
    <path
       style="fill:#d1d1ab;stroke-width:1.30394"
       d="m 60.527667,104.05629 c -0.953623,-0.27458 -0.813578,-0.65633 0.465992,-1.27026 2.024753,-0.97147 5.140456,-1.45491 10.576879,-1.64116 l 5.105128,-0.1749 0.07463,-1.190628 c 0.09115,-1.454147 -0.285269,-4.490859 -0.595064,-4.800654 -0.124266,-0.124266 -1.156648,-0.34394 -2.294182,-0.488165 -3.193881,-0.404945 -4.708744,-1.593388 -5.830786,-4.574377 -0.370678,-0.984803 -0.673961,-2.189668 -0.673961,-2.677479 0,-0.766694 0.103854,-0.907699 0.766092,-1.040147 1.163128,-0.232626 2.483025,0.06735 4.318343,0.981447 2.116743,1.054261 3.166216,2.530248 3.788786,5.328581 0.242399,1.08954 0.537702,2.040916 0.656229,2.114169 0.118526,0.07325 0.34531,-0.472087 0.503965,-1.211869 0.158655,-0.739781 0.390052,-1.544273 0.514215,-1.78776 0.566695,-1.111298 0.540647,-2.061734 -0.07469,-2.72535 -2.649112,-2.856948 -0.622154,-9.052794 3.442436,-10.522569 0.967853,-0.34998 1.020005,-0.337978 1.5793,0.363445 0.736742,0.923962 1.204365,2.475137 1.375076,4.561329 0.114778,1.402667 0.0329,1.852374 -0.556683,3.057434 -0.673375,1.376328 -3.002997,3.632382 -3.750831,3.632382 -0.473116,0 -1.155519,1.573424 -1.593563,3.674293 -0.365275,1.751869 -0.432342,4.263207 -0.113851,4.263207 0.08602,0 0.55029,-0.744141 1.031708,-1.653646 1.777703,-3.358478 3.18425,-4.134056 6.314165,-3.481667 0.97644,0.203526 1.924174,0.426464 2.106075,0.495418 1.149692,0.435817 -0.733386,3.1656 -2.968339,4.303018 -1.145821,0.583134 -1.553651,0.652146 -3.175,0.537263 -1.023169,-0.0725 -2.01164,-0.07695 -2.196602,-0.0099 -0.46255,0.167677 -1.118913,1.499598 -1.118913,2.270545 v 0.63523 l 4.828646,0.15698 c 2.655755,0.0863 5.721614,0.33824 6.81302,0.55978 3.159296,0.64129 5.454635,1.66823 4.92139,2.20184 -0.248985,0.24916 -33.387039,0.35965 -34.239607,0.11417 z"
       id="path7848" />
    <path
       style="fill:#b7c594;stroke-width:1.30394"
       d="m 61.337032,104.0822 c -1.777388,-0.12435 -1.817084,-0.61398 -0.109337,-1.34863 2.367231,-1.01836 5.157686,-1.41116 10.609995,-1.49353 l 5.142847,-0.0777 -0.07091,-1.530871 C 76.817787,97.648916 76.42455,95.247994 76.146054,94.969498 76.025799,94.849243 75.08641,94.645253 74.058523,94.516187 70.6245,94.084996 69.056584,92.847988 68.005224,89.740434 c -0.356905,-1.054922 -0.648919,-2.263823 -0.648919,-2.686446 0,-0.684779 0.09358,-0.771457 0.859896,-0.796441 1.607572,-0.05241 2.378454,0.074 3.572478,0.585814 2.52441,1.082089 3.780454,2.696839 4.454528,5.726671 0.471616,2.119825 0.805339,2.588067 1.044436,1.465434 0.0865,-0.406134 0.39713,-1.525161 0.690292,-2.486726 l 0.533023,-1.7483 -0.880972,-1.249845 c -0.81525,-1.156604 -0.880476,-1.40121 -0.874307,-3.278783 0.01036,-3.151476 1.31347,-5.240434 4.181909,-6.703802 l 1.075208,-0.54853 0.725215,0.811657 c 1.390121,1.555815 1.95171,5.283053 1.089643,7.231899 -0.604096,1.365657 -2.491294,3.32541 -3.580951,3.718621 -0.92014,0.33204 -1.408348,1.262002 -1.907011,3.632562 -0.41602,1.977689 -0.477287,4.51303 -0.109059,4.51303 0.122024,0 0.549561,-0.669251 0.950084,-1.487225 0.400522,-0.817974 1.148333,-1.958573 1.661801,-2.534664 0.8462,-0.949405 1.08216,-1.060536 2.521078,-1.187369 1.98052,-0.174572 4.63492,0.510729 4.621418,1.193136 -0.01593,0.805172 -1.441626,2.535336 -2.759466,3.348771 -1.177527,0.726828 -1.501979,0.799642 -3.563098,0.799642 -1.247182,0 -2.423776,0.100863 -2.614653,0.224139 -0.348633,0.225162 -0.708094,0.99602 -0.992075,2.127491 l -0.152723,0.60849 4.846965,0.15696 c 2.880329,0.0933 5.759471,0.34043 7.095923,0.60916 2.337272,0.46998 5.027083,1.49167 5.027083,1.90948 0,0.13249 -0.803671,0.31679 -1.785937,0.40956 -1.827032,0.17255 -29.239283,0.15301 -31.749998,-0.0226 z"
       id="path7835" />
    <path
       style="fill:#c996a3;stroke-width:1.30394"
       d="m 61.469323,104.06562 c -1.906716,-0.0994 -2.002561,-0.57652 -0.264583,-1.31696 2.383183,-1.01531 5.326644,-1.41803 10.726096,-1.46752 l 5.082757,-0.0466 -0.07514,-1.852083 c -0.0811,-1.999141 -0.512344,-4.288676 -0.846704,-4.495322 -0.113967,-0.07044 -1.059906,-0.248999 -2.102086,-0.396806 -2.893908,-0.41043 -4.394273,-1.350323 -5.432603,-3.403214 -0.611377,-1.208758 -1.194422,-3.191641 -1.197895,-4.073928 -0.0028,-0.712095 0.03051,-0.727604 1.562701,-0.727604 3.690115,0 6.741617,2.679995 7.30133,6.412427 0.101993,0.680143 0.34162,1.450209 0.532503,1.711258 0.319228,0.43657 0.361487,0.411004 0.526948,-0.318797 0.09894,-0.436387 0.428426,-1.593042 0.732194,-2.570345 0.503061,-1.618481 0.515379,-1.819003 0.138163,-2.248958 -0.973609,-1.109731 -1.373597,-2.32659 -1.372743,-4.17621 0.0013,-2.856126 1.359229,-5.081564 3.861499,-6.328498 l 1.36679,-0.6811 0.602734,0.566239 c 1.215345,1.141757 1.938774,5.034674 1.336843,7.19382 -0.271848,0.975125 -2.419408,3.263555 -3.653483,3.893133 -0.659287,0.336344 -1.094391,0.815076 -1.37249,1.510113 -0.549377,1.373028 -0.98252,3.820697 -0.98252,5.552167 0,1.567816 0.3193,1.645964 0.956985,0.234221 0.922817,-2.042988 2.151362,-3.604873 3.170436,-4.030669 1.605125,-0.670665 5.149908,-0.21828 5.750514,0.733879 0.333582,0.528836 -0.885454,2.350024 -2.159831,3.226698 -1.600137,1.10077 -2.382091,1.289495 -4.572016,1.103453 l -2.013286,-0.171036 -0.413706,0.874831 c -0.227539,0.481157 -0.490585,1.183361 -0.584547,1.560451 l -0.170841,0.68562 4.979083,0.17217 c 5.214322,0.18031 8.463448,0.70309 10.803738,1.73831 2.73109,1.20809 2.09596,1.25506 -16.672571,1.23282 -7.712603,-0.009 -14.707525,-0.0523 -15.54427,-0.096 z"
       id="path7822" />
    <path
       style="fill:#c2919b;stroke-width:1.30394"
       d="m 61.469323,104.06562 c -1.906716,-0.0994 -2.002561,-0.57652 -0.264583,-1.31696 2.383183,-1.01531 5.326644,-1.41803 10.726096,-1.46752 l 5.082757,-0.0466 -0.07514,-1.852083 c -0.0811,-1.999141 -0.512344,-4.288676 -0.846704,-4.495322 -0.113967,-0.07044 -1.059906,-0.248999 -2.102086,-0.396806 -2.893908,-0.41043 -4.394273,-1.350323 -5.432603,-3.403214 -0.611377,-1.208758 -1.194422,-3.191641 -1.197895,-4.073928 -0.0028,-0.712095 0.03051,-0.727604 1.562701,-0.727604 3.690115,0 6.741617,2.679995 7.30133,6.412427 0.101993,0.680143 0.34162,1.450209 0.532503,1.711258 0.319228,0.43657 0.361487,0.411004 0.526948,-0.318797 0.09894,-0.436387 0.428426,-1.593042 0.732194,-2.570345 0.503061,-1.618481 0.515379,-1.819003 0.138163,-2.248958 -0.973609,-1.109731 -1.373597,-2.32659 -1.372743,-4.17621 0.0013,-2.856126 1.359229,-5.081564 3.861499,-6.328498 l 1.36679,-0.6811 0.602734,0.566239 c 1.215345,1.141757 1.938774,5.034674 1.336843,7.19382 -0.271848,0.975125 -2.419408,3.263555 -3.653483,3.893133 -0.659287,0.336344 -1.094391,0.815076 -1.37249,1.510113 -0.549377,1.373028 -0.98252,3.820697 -0.98252,5.552167 0,1.567816 0.3193,1.645964 0.956985,0.234221 0.922817,-2.042988 2.151362,-3.604873 3.170436,-4.030669 1.605125,-0.670665 5.149908,-0.21828 5.750514,0.733879 0.333582,0.528836 -0.885454,2.350024 -2.159831,3.226698 -1.600137,1.10077 -2.382091,1.289495 -4.572016,1.103453 l -2.013286,-0.171036 -0.413706,0.874831 c -0.227539,0.481157 -0.490585,1.183361 -0.584547,1.560451 l -0.170841,0.68562 4.979083,0.17217 c 5.214322,0.18031 8.463448,0.70309 10.803738,1.73831 2.73109,1.20809 2.09596,1.25506 -16.672571,1.23282 -7.712603,-0.009 -14.707525,-0.0523 -15.54427,-0.096 z"
       id="path7809" />
    <path
       style="fill:#c8ad6b;stroke-width:1.30394"
       d="m 61.469323,104.06562 c -1.906716,-0.0994 -2.002561,-0.57652 -0.264583,-1.31696 2.383183,-1.01531 5.326644,-1.41803 10.726096,-1.46752 l 5.082757,-0.0466 -0.07514,-1.852083 c -0.0811,-1.999141 -0.512344,-4.288676 -0.846704,-4.495322 -0.113967,-0.07044 -1.059906,-0.248999 -2.102086,-0.396806 -2.893908,-0.41043 -4.394273,-1.350323 -5.432603,-3.403214 -0.611377,-1.208758 -1.194422,-3.191641 -1.197895,-4.073928 -0.0028,-0.712095 0.03051,-0.727604 1.562701,-0.727604 3.690115,0 6.741617,2.679995 7.30133,6.412427 0.101993,0.680143 0.34162,1.450209 0.532503,1.711258 0.319228,0.43657 0.361487,0.411004 0.526948,-0.318797 0.09894,-0.436387 0.428426,-1.593042 0.732194,-2.570345 0.503061,-1.618481 0.515379,-1.819003 0.138163,-2.248958 -0.973609,-1.109731 -1.373597,-2.32659 -1.372743,-4.17621 0.0013,-2.856126 1.359229,-5.081564 3.861499,-6.328498 l 1.36679,-0.6811 0.602734,0.566239 c 1.215345,1.141757 1.938774,5.034674 1.336843,7.19382 -0.271848,0.975125 -2.419408,3.263555 -3.653483,3.893133 -0.659287,0.336344 -1.094391,0.815076 -1.37249,1.510113 -0.549377,1.373028 -0.98252,3.820697 -0.98252,5.552167 0,1.567816 0.3193,1.645964 0.956985,0.234221 0.922817,-2.042988 2.151362,-3.604873 3.170436,-4.030669 1.605125,-0.670665 5.149908,-0.21828 5.750514,0.733879 0.333582,0.528836 -0.885454,2.350024 -2.159831,3.226698 -1.600137,1.10077 -2.382091,1.289495 -4.572016,1.103453 l -2.013286,-0.171036 -0.413706,0.874831 c -0.227539,0.481157 -0.490585,1.183361 -0.584547,1.560451 l -0.170841,0.68562 4.979083,0.17217 c 5.214322,0.18031 8.463448,0.70309 10.803738,1.73831 2.73109,1.20809 2.09596,1.25506 -16.672571,1.23282 -7.712603,-0.009 -14.707525,-0.0523 -15.54427,-0.096 z"
       id="path7790" />
    <path
       style="fill:#b89790;stroke-width:1.30394"
       d="m 77.570807,102.55817 c -0.408108,-0.30893 -0.520588,-0.81074 -0.606006,-2.703564 -0.109419,-2.424654 -0.517732,-4.747861 -0.873051,-4.967461 -0.113967,-0.07044 -1.059906,-0.248999 -2.102086,-0.396806 -2.893908,-0.41043 -4.394273,-1.350323 -5.432603,-3.403214 -0.611377,-1.208758 -1.194422,-3.191641 -1.197895,-4.073928 -0.0028,-0.712095 0.03051,-0.727604 1.562701,-0.727604 3.690115,0 6.741617,2.679995 7.30133,6.412427 0.101993,0.680143 0.34162,1.450209 0.532503,1.711258 0.319228,0.43657 0.361487,0.411004 0.526948,-0.318797 0.09894,-0.436387 0.428426,-1.593042 0.732194,-2.570345 0.503061,-1.618481 0.515379,-1.819003 0.138163,-2.248958 -0.973609,-1.109731 -1.373597,-2.32659 -1.372743,-4.17621 0.0013,-2.856126 1.359229,-5.081564 3.861499,-6.328498 l 1.36679,-0.6811 0.602734,0.566239 c 1.215345,1.141757 1.938774,5.034674 1.336843,7.19382 -0.271848,0.975125 -2.419408,3.263555 -3.653483,3.893133 -0.659287,0.336344 -1.094391,0.815076 -1.37249,1.510113 -0.549377,1.373028 -0.98252,3.820697 -0.98252,5.552167 0,1.567816 0.3193,1.645964 0.956985,0.234221 0.922817,-2.042988 2.151362,-3.604873 3.170436,-4.030669 1.605125,-0.670665 5.149908,-0.21828 5.750514,0.733879 0.333582,0.528836 -0.885454,2.350024 -2.159831,3.226698 -1.600137,1.10077 -2.382091,1.289495 -4.572016,1.103453 l -2.013286,-0.171036 -0.489952,1.007123 c -0.334894,0.688394 -0.471645,1.488589 -0.432108,2.528479 0.03181,0.83674 0.02718,1.51757 -0.0103,1.51294 -0.03748,-0.005 -0.29365,-0.17912 -0.569266,-0.38776 z"
       id="path7769" />
    <path
       style="fill:#b0aa6d;stroke-width:1.30394"
       d="m 77.570807,102.55817 c -0.408108,-0.30893 -0.520588,-0.81074 -0.606006,-2.703564 -0.109419,-2.424654 -0.517732,-4.747861 -0.873051,-4.967461 -0.113967,-0.07044 -1.059906,-0.248999 -2.102086,-0.396806 -2.893908,-0.41043 -4.394273,-1.350323 -5.432603,-3.403214 -0.611377,-1.208758 -1.194422,-3.191641 -1.197895,-4.073928 -0.0028,-0.712095 0.03051,-0.727604 1.562701,-0.727604 3.690115,0 6.741617,2.679995 7.30133,6.412427 0.101993,0.680143 0.34162,1.450209 0.532503,1.711258 0.319228,0.43657 0.361487,0.411004 0.526948,-0.318797 0.09894,-0.436387 0.428426,-1.593042 0.732194,-2.570345 0.503061,-1.618481 0.515379,-1.819003 0.138163,-2.248958 -0.973609,-1.109731 -1.373597,-2.32659 -1.372743,-4.17621 0.0013,-2.856126 1.359229,-5.081564 3.861499,-6.328498 l 1.36679,-0.6811 0.602734,0.566239 c 1.215345,1.141757 1.938774,5.034674 1.336843,7.19382 -0.271848,0.975125 -2.419408,3.263555 -3.653483,3.893133 -0.659287,0.336344 -1.094391,0.815076 -1.37249,1.510113 -0.549377,1.373028 -0.98252,3.820697 -0.98252,5.552167 0,1.567816 0.3193,1.645964 0.956985,0.234221 0.922817,-2.042988 2.151362,-3.604873 3.170436,-4.030669 1.605125,-0.670665 5.149908,-0.21828 5.750514,0.733879 0.333582,0.528836 -0.885454,2.350024 -2.159831,3.226698 -1.600137,1.10077 -2.382091,1.289495 -4.572016,1.103453 l -2.013286,-0.171036 -0.489952,1.007123 c -0.334894,0.688394 -0.471645,1.488589 -0.432108,2.528479 0.03181,0.83674 0.02718,1.51757 -0.0103,1.51294 -0.03748,-0.005 -0.29365,-0.17912 -0.569266,-0.38776 z"
       id="path7738" />
    <path
       style="fill:#ad7b84;stroke-width:1.30394"
       d="m 77.479256,102.32024 c -0.38964,-0.49535 -0.512136,-1.14669 -0.559793,-2.976565 -0.03355,-1.288352 -0.195961,-2.818708 -0.360907,-3.400791 -0.164946,-0.582084 -0.275919,-1.15648 -0.246606,-1.276437 0.02931,-0.119958 -0.0589,-0.148761 -0.196036,-0.06401 -0.432631,0.267381 -3.978609,-0.359038 -5.001305,-0.883511 -1.146872,-0.588155 -1.93311,-1.39722 -2.557548,-2.631802 -0.611377,-1.208758 -1.194422,-3.191641 -1.197895,-4.073928 -0.0028,-0.711568 0.03142,-0.727604 1.552663,-0.727604 3.62895,0 6.705729,2.673788 7.307066,6.349999 0.107117,0.654844 0.349269,1.488281 0.538116,1.852083 l 0.343359,0.661459 0.161276,-0.79375 c 0.0887,-0.436563 0.442949,-1.708804 0.787216,-2.827203 0.501382,-1.628805 0.555172,-2.06061 0.270311,-2.169922 -0.195597,-0.07506 -0.619989,-0.648284 -0.943093,-1.273838 -1.391526,-2.694093 -0.434422,-6.631385 2.07841,-8.550075 0.66389,-0.506919 1.42105,-0.92167 1.682578,-0.92167 0.261527,0 0.554622,-0.128016 0.651323,-0.284481 0.305073,-0.493619 1.396728,0.804525 1.884293,2.240713 0.487073,1.434738 0.622614,4.031212 0.275444,5.276521 -0.271848,0.975125 -2.419408,3.263555 -3.653483,3.893133 -1.086254,0.554165 -1.603848,1.576642 -2.067341,4.083906 -0.356041,1.926001 -0.378768,4.456906 -0.03813,4.246382 0.137245,-0.08482 0.738924,-1.040776 1.337065,-2.12434 1.362873,-2.468919 2.230243,-3.122382 4.25428,-3.205111 1.713838,-0.07005 3.667744,0.413398 4.037053,0.998874 0.535581,0.849073 -1.844396,3.412226 -3.875889,4.174199 -0.852606,0.319795 -2.709899,0.3396 -3.48428,0.03715 -0.87275,-0.340866 -1.399138,-0.02666 -1.962232,1.171269 -0.415219,0.88334 -0.500195,1.44436 -0.376704,2.48705 0.0877,0.74052 0.09199,1.3464 0.0095,1.3464 -0.08247,0 -0.374396,-0.28535 -0.648728,-0.6341 z"
       id="path7710" />
    <path
       style="fill:#91ae66;stroke-width:1.30394"
       d="m 77.479256,102.32024 c -0.38964,-0.49535 -0.512136,-1.14669 -0.559793,-2.976565 -0.03355,-1.288352 -0.195961,-2.818708 -0.360907,-3.400791 -0.164946,-0.582084 -0.275919,-1.15648 -0.246606,-1.276437 0.02931,-0.119958 -0.0589,-0.148761 -0.196036,-0.06401 -0.432631,0.267381 -3.978609,-0.359038 -5.001305,-0.883511 -1.146872,-0.588155 -1.93311,-1.39722 -2.557548,-2.631802 -0.611377,-1.208758 -1.194422,-3.191641 -1.197895,-4.073928 -0.0028,-0.711568 0.03142,-0.727604 1.552663,-0.727604 3.62895,0 6.705729,2.673788 7.307066,6.349999 0.107117,0.654844 0.349269,1.488281 0.538116,1.852083 l 0.343359,0.661459 0.161276,-0.79375 c 0.0887,-0.436563 0.442949,-1.708804 0.787216,-2.827203 0.501382,-1.628805 0.555172,-2.06061 0.270311,-2.169922 -0.195597,-0.07506 -0.619989,-0.648284 -0.943093,-1.273838 -1.391526,-2.694093 -0.434422,-6.631385 2.07841,-8.550075 0.66389,-0.506919 1.42105,-0.92167 1.682578,-0.92167 0.261527,0 0.554622,-0.128016 0.651323,-0.284481 0.305073,-0.493619 1.396728,0.804525 1.884293,2.240713 0.487073,1.434738 0.622614,4.031212 0.275444,5.276521 -0.271848,0.975125 -2.419408,3.263555 -3.653483,3.893133 -1.086254,0.554165 -1.603848,1.576642 -2.067341,4.083906 -0.356041,1.926001 -0.378768,4.456906 -0.03813,4.246382 0.137245,-0.08482 0.738924,-1.040776 1.337065,-2.12434 1.362873,-2.468919 2.230243,-3.122382 4.25428,-3.205111 1.713838,-0.07005 3.667744,0.413398 4.037053,0.998874 0.535581,0.849073 -1.844396,3.412226 -3.875889,4.174199 -0.852606,0.319795 -2.709899,0.3396 -3.48428,0.03715 -0.87275,-0.340866 -1.399138,-0.02666 -1.962232,1.171269 -0.415219,0.88334 -0.500195,1.44436 -0.376704,2.48705 0.0877,0.74052 0.09199,1.3464 0.0095,1.3464 -0.08247,0 -0.374396,-0.28535 -0.648728,-0.6341 z"
       id="path7677" />
    <path
       style="fill:#aa9254;stroke-width:1.30394"
       d="m 77.547314,102.43021 c -0.559368,-0.6181 -0.771565,-2.42141 -0.318169,-2.703903 0.240226,-0.149676 0.236221,-0.320281 -0.01711,-0.729052 -0.181901,-0.293507 -0.331393,-0.862687 -0.332205,-1.264844 -8.11e-4,-0.402157 -0.141537,-1.207444 -0.312724,-1.789527 -0.171186,-0.582084 -0.29202,-1.140325 -0.268519,-1.240537 0.0235,-0.100212 -0.171418,-0.140963 -0.433154,-0.09056 -0.261737,0.05041 -1.317527,-0.05131 -2.346202,-0.226045 -2.010412,-0.341488 -3.715359,-1.263755 -4.472538,-2.419356 -0.652402,-0.995692 -1.690387,-4.00398 -1.690387,-4.899082 0,-0.768789 0.02348,-0.781714 1.419926,-0.781714 1.732349,0 3.937623,0.839844 5.151696,1.961943 1.108048,1.024105 1.794619,2.34374 2.262206,4.34811 0.200699,0.860316 0.48853,1.785116 0.639627,2.05511 0.246365,0.44023 0.292341,0.409357 0.445438,-0.299112 0.0939,-0.434506 0.44578,-1.682979 0.781965,-2.774385 0.596209,-1.935555 0.599097,-1.995955 0.117396,-2.45507 -1.581624,-1.50746 -1.861102,-4.579451 -0.649601,-7.140353 0.748921,-1.583089 2.663787,-3.36916 3.612113,-3.36916 0.261527,0 0.550289,-0.121004 0.641692,-0.268899 0.0914,-0.147894 0.278967,-0.199199 0.416806,-0.114009 0.137839,0.08519 0.180294,0.268675 0.09434,0.407746 -0.08595,0.139071 -7.83e-4,0.220141 0.189262,0.180155 0.97444,-0.205024 2.043483,4.147445 1.555606,6.333444 -0.356732,1.598384 -2.058072,3.701076 -3.578351,4.422496 -1.084997,0.514864 -1.850379,1.833814 -2.124353,3.660804 -0.10292,0.686323 -0.263088,1.200511 -0.355929,1.142641 -0.09284,-0.05787 -0.129587,0.777971 -0.08166,1.857424 0.04793,1.079453 0.189984,1.899081 0.315682,1.821396 0.125698,-0.07769 0.717929,-1.0278 1.31607,-2.111364 1.670993,-3.027095 3.032659,-3.669698 6.326463,-2.98561 2.173566,0.451426 2.430171,0.838723 1.49349,2.254144 -1.367909,2.06705 -3.829914,3.193637 -6.103302,2.792805 -0.725383,-0.127896 -1.535928,-0.187496 -1.801212,-0.132444 -0.789705,0.163878 -1.505356,2.196608 -1.321093,3.752428 0.08654,0.73068 0.09968,1.32851 0.02921,1.32851 -0.07048,0 -0.341589,-0.23586 -0.602474,-0.52413 z"
       id="path7642" />
    <path
       style="fill:#83a659;stroke-width:1.30394"
       d="m 77.572823,102.41914 c -0.577175,-0.58254 -0.809465,-2.40262 -0.343678,-2.692833 0.240226,-0.149676 0.236221,-0.320281 -0.01711,-0.729052 -0.181901,-0.293507 -0.331393,-0.862687 -0.332205,-1.264844 -8.11e-4,-0.402157 -0.141537,-1.207444 -0.312724,-1.789527 -0.171186,-0.582084 -0.29202,-1.140325 -0.268519,-1.240537 0.0235,-0.100212 -0.171418,-0.140963 -0.433154,-0.09056 -0.261737,0.05041 -1.317527,-0.05131 -2.346202,-0.226045 -2.010412,-0.341488 -3.715359,-1.263755 -4.472538,-2.419356 -0.652402,-0.995692 -1.690387,-4.00398 -1.690387,-4.899082 0,-0.768789 0.02348,-0.781714 1.419926,-0.781714 1.732349,0 3.937623,0.839844 5.151696,1.961943 1.108048,1.024105 1.794619,2.34374 2.262206,4.34811 0.200699,0.860316 0.48853,1.785116 0.639627,2.05511 0.246365,0.44023 0.292341,0.409357 0.445438,-0.299112 0.0939,-0.434506 0.44578,-1.682979 0.781965,-2.774385 0.596209,-1.935555 0.599097,-1.995955 0.117396,-2.45507 -1.581624,-1.50746 -1.861102,-4.579451 -0.649601,-7.140353 0.748921,-1.583089 2.663787,-3.36916 3.612113,-3.36916 0.261527,0 0.550289,-0.121004 0.641692,-0.268899 0.0914,-0.147894 0.278967,-0.199199 0.416806,-0.114009 0.137839,0.08519 0.180294,0.268675 0.09434,0.407746 -0.08595,0.139071 -7.83e-4,0.220141 0.189262,0.180155 0.97444,-0.205024 2.043483,4.147445 1.555606,6.333444 -0.356732,1.598384 -2.058072,3.701076 -3.578351,4.422496 -1.084997,0.514864 -1.850379,1.833814 -2.124353,3.660804 -0.10292,0.686323 -0.263088,1.200511 -0.355929,1.142641 -0.09284,-0.05787 -0.129587,0.777971 -0.08166,1.857424 0.04793,1.079453 0.189984,1.899081 0.315682,1.821396 0.125698,-0.07769 0.717929,-1.0278 1.31607,-2.111364 1.670993,-3.027095 3.032659,-3.669698 6.326463,-2.98561 2.173566,0.451426 2.430171,0.838723 1.49349,2.254144 -1.367909,2.06705 -3.829914,3.193637 -6.103302,2.792805 -1.877594,-0.331047 -2.216081,-0.189739 -2.798136,1.168141 -0.390189,0.910273 -0.473224,1.512333 -0.343476,2.490423 0.09411,0.70946 0.126011,1.28286 0.07088,1.27421 -0.05513,-0.009 -0.324829,-0.24242 -0.599336,-0.51948 z"
       id="path7601" />
    <path
       style="fill:#7ca154;stroke-width:1.30394"
       d="m 77.572823,102.41914 c -0.577175,-0.58254 -0.809465,-2.40262 -0.343678,-2.692833 0.240226,-0.149676 0.236221,-0.320281 -0.01711,-0.729052 -0.181901,-0.293507 -0.330729,-0.823838 -0.330729,-1.178513 0,-0.354675 -0.134957,-1.229527 -0.299904,-1.944117 l -0.299904,-1.299253 -1.480333,-0.05989 c -0.814183,-0.03294 -1.54243,-0.141968 -1.618325,-0.242286 -0.0759,-0.100317 -0.466385,-0.204944 -0.867754,-0.232502 -1.294764,-0.0889 -2.908052,-1.40065 -3.680529,-2.992602 -1.037334,-2.137778 -1.189044,-2.905403 -0.57933,-2.931304 0.281425,-0.01196 0.349561,-0.07819 0.159326,-0.15489 -0.182807,-0.0737 -0.265077,-0.242895 -0.182822,-0.375987 0.08225,-0.133092 0.03339,-0.241985 -0.108595,-0.241985 -0.141982,0 -0.318203,0.148828 -0.391601,0.330729 -0.0734,0.181901 -0.142852,-0.06486 -0.154341,-0.548349 l -0.02089,-0.879078 1.521354,0.06626 c 2.140759,0.09324 5.037047,1.272934 4.652561,1.895046 -0.09364,0.151517 -0.05011,0.201227 0.09675,0.110467 0.146852,-0.09076 0.515046,0.0992 0.818208,0.422141 0.584741,0.622882 1.62682,2.733534 1.636571,3.314752 0.01003,0.597701 -0.522264,0.04961 -0.544244,-0.560397 -0.01149,-0.318833 -0.08225,-0.426941 -0.15725,-0.24024 -0.075,0.186702 -0.04682,0.543889 0.06262,0.79375 0.109439,0.249861 0.177044,0.594142 0.150233,0.76507 -0.02681,0.170928 0.07211,0.385471 0.219823,0.476763 0.157828,0.09754 0.203598,-0.0033 0.111001,-0.244632 -0.08666,-0.225839 -0.02577,-0.410617 0.135322,-0.410617 0.16109,0 0.29711,0.267891 0.302267,0.595313 0.0052,0.327422 0.17514,0.892968 0.377742,1.25677 0.412038,0.739879 0.507582,0.598942 0.807145,-1.190624 0.09744,-0.582084 0.36232,-1.475052 0.588629,-1.984375 0.626117,-1.409117 0.62133,-1.665281 -0.0445,-2.381099 -1.014166,-1.09031 -1.287047,-1.874114 -1.287047,-3.696819 0,-3.007036 1.769993,-5.725676 4.284488,-6.580805 1.06245,-0.361318 1.094266,-0.364561 1.053665,-0.107423 -0.09268,0.586974 0.0635,1.13583 0.28436,0.99933 0.139165,-0.08601 0.185958,-0.331161 0.103984,-0.544782 -0.304139,-0.792575 0.178649,-0.354439 0.665321,0.603786 1.272847,2.506154 1.272064,5.738587 -0.0018,7.527597 -0.292494,0.410769 -0.660161,0.667526 -0.817039,0.57057 -0.156877,-0.09695 -0.210974,-0.05613 -0.120214,0.09072 0.20062,0.32461 -0.681661,1.172298 -1.93534,1.859459 -1.077487,0.590586 -1.751622,1.798848 -2.008352,3.5996 -0.100265,0.703272 -0.261203,1.151007 -0.357641,0.994968 -0.148794,-0.240754 -0.151299,0.405583 -0.01426,3.67948 0.01135,0.271172 0.181397,0.187371 0.536883,-0.264584 0.286149,-0.363802 0.614011,-0.780521 0.728582,-0.926041 0.114572,-0.145521 0.355455,-0.623224 0.535298,-1.061562 0.179842,-0.438337 0.613818,-1.152712 0.96439,-1.587499 0.629226,-0.78038 0.642915,-0.783733 1.066892,-0.261356 0.422387,0.520419 0.42486,0.519591 0.149592,-0.05009 -0.313897,-0.649624 -0.228263,-0.739443 0.944588,-0.990746 0.986719,-0.211422 4.109215,0.289551 4.756981,0.763209 0.431001,0.315156 0.42262,0.394556 -0.137268,1.300473 -0.327962,0.530654 -0.708138,0.895702 -0.844835,0.811218 -0.136697,-0.08448 -0.215825,-0.0033 -0.175839,0.180515 0.100135,0.460205 -2.271944,2.030798 -3.38151,2.238954 -0.499086,0.09363 -1.116685,0.08231 -1.372442,-0.02515 -0.628453,-0.264061 -1.682421,-0.359444 -2.27068,-0.205494 -0.802088,0.20991 -1.539669,2.310006 -1.339984,3.815306 0.09411,0.70946 0.126011,1.28286 0.07088,1.27421 -0.05513,-0.009 -0.324829,-0.24242 -0.599336,-0.51948 z m 5.658478,-4.77208 c 0,-0.154109 0.137459,-0.195244 0.305464,-0.09141 0.189256,0.116967 0.233644,0.07258 0.116677,-0.116677 -0.110653,-0.179039 -0.02453,-0.305463 0.208088,-0.305463 0.218281,0 0.467741,-0.114665 0.554356,-0.25481 0.08661,-0.140145 -0.394637,-0.08865 -1.069446,0.114442 -1.324522,0.398622 -2.689665,0.096 -2.295883,-0.508942 0.108003,-0.165919 -0.0087,-0.07862 -0.25926,0.194002 -0.250596,0.272621 -0.569791,0.425118 -0.709322,0.338883 -0.139531,-0.08624 -0.323051,-0.04456 -0.407823,0.0926 -0.08999,0.145605 0.232724,0.201407 0.775467,0.13409 0.51128,-0.06341 0.929599,-0.0034 0.929599,0.1334 0,0.221778 0.552667,0.40852 1.521354,0.514054 0.181901,0.01982 0.330729,-0.09006 0.330729,-0.244167 z m 3.09924,-3.267084 c 0.40169,0.125491 0.41075,0.10723 0.06036,-0.121654 -0.44405,-0.290066 -2.630434,0.121516 -2.630434,0.495173 0,0.110799 0.471924,0.03886 1.048719,-0.159861 0.576796,-0.198722 1.261405,-0.294868 1.521355,-0.213658 z m 1.045238,-0.535974 c -0.08752,-0.228063 -0.408009,-0.41466 -0.712206,-0.41466 -0.304197,0 -0.4795,0.119063 -0.389563,0.264583 0.08994,0.145521 0.347826,0.264584 0.573089,0.264584 0.280827,0 0.354158,0.145542 0.233293,0.463021 -0.136079,0.357437 -0.104356,0.391659 0.139116,0.150076 0.173465,-0.17212 0.243787,-0.499541 0.156271,-0.727604 z m -2.027811,-0.384238 c 0,-0.100318 -0.240698,-0.200527 -0.534885,-0.222688 -0.294187,-0.02216 -0.465754,0.07156 -0.38126,0.208279 0.08449,0.136714 -0.09855,0.24857 -0.406772,0.24857 -0.308218,0 -0.491206,0.111952 -0.406641,0.248782 0.166806,0.269897 1.729558,-0.166469 1.729558,-0.482943 z M 72.56207,93.784415 c -0.09575,-0.09575 -0.05796,-0.314032 0.08399,-0.485069 0.267881,-0.322776 0.118589,-0.372495 -1.39439,-0.464382 -0.470662,-0.02858 -0.688832,-0.164515 -0.606868,-0.37811 0.07038,-0.183415 0.01216,-0.405053 -0.129374,-0.492529 -0.141539,-0.08748 -0.181503,-0.281761 -0.08881,-0.431745 0.09611,-0.155515 -0.08573,-0.136618 -0.423172,0.04397 -0.479048,0.256379 -0.569238,0.249261 -0.473689,-0.03739 0.06491,-0.194733 -0.03187,-0.503951 -0.215072,-0.687151 -0.552027,-0.552027 -0.671967,-0.37712 -0.270531,0.394513 0.377975,0.726536 1.751725,2.166335 1.751725,1.835947 0,-0.09599 0.386953,0.06141 0.859896,0.349765 0.872842,0.532182 1.221961,0.667846 0.906289,0.352173 z m 7.880727,-6.136557 c 0.197647,-0.749246 0.261538,-1.362265 0.141979,-1.362265 -0.119558,0 -0.301202,0.506015 -0.403652,1.124479 -0.102451,0.618463 -0.306084,1.362604 -0.452519,1.653645 -0.202283,0.402044 -0.191642,0.459168 0.0443,0.237786 0.170796,-0.160259 0.472249,-0.904399 0.669897,-1.653645 z m 2.905189,-1.410475 c 0.466184,-0.934489 0.361127,-1.373757 -0.11554,-0.483097 -0.193937,0.362376 -0.458194,0.514065 -0.720318,0.413479 -0.339257,-0.130185 -0.355366,-0.08821 -0.08922,0.232472 0.178631,0.215238 0.236607,0.534016 0.128835,0.708396 -0.119903,0.194007 -0.0839,0.247805 0.09276,0.138621 0.15879,-0.09814 0.475359,-0.55258 0.703486,-1.009871 z m -2.941687,-3.259082 0.153216,-1.322917 -0.342655,1.190625 c -0.18846,0.654844 -0.289761,1.287844 -0.225112,1.406666 0.185332,0.340638 0.250821,0.13932 0.414551,-1.274374 z m -1.937497,-1.379778 c 0.07276,0.01369 0.370416,-0.125728 0.661458,-0.309827 0.401261,-0.253818 0.417249,-0.299927 0.06615,-0.19076 -0.484791,0.150735 -0.601786,-0.08062 -0.264584,-0.523217 0.109141,-0.143252 -0.06945,0.01817 -0.396875,0.358712 -0.327421,0.340544 -0.593489,0.761359 -0.591261,0.935145 0.003,0.235442 0.0536,0.238121 0.198438,0.01051 0.106912,-0.168005 0.253917,-0.294259 0.326678,-0.280564 z"
       id="path7566" />
    <path
       style="fill:#92894e;stroke-width:1.30394"
       d="m 83.387211,80.795489 c -0.105363,-0.327422 -0.362139,-0.595313 -0.570614,-0.595313 -0.208475,0 -0.379046,-0.126089 -0.379046,-0.280198 0,-0.154109 0.119063,-0.206614 0.264584,-0.116677 0.368274,0.227606 0.332048,-0.223577 -0.04851,-0.604132 -0.1722,-0.172199 -0.240037,-0.386143 -0.15075,-0.475431 0.219915,-0.219914 1.316036,1.964618 1.182207,2.356098 -0.05847,0.171031 -0.192511,0.04308 -0.297874,-0.284347 z"
       id="path7534" />
    <path
       style="fill:#92894e;stroke-width:1.30394"
       d="m 83.495885,95.476178 c 0,-0.366868 1.781725,-1.147055 2.036869,-0.891911 0.302831,0.302831 -0.196906,1.013706 -0.603058,0.857851 -0.227597,-0.08734 -0.643312,-0.03597 -0.923812,0.114149 -0.385168,0.206135 -0.509999,0.186532 -0.509999,-0.08009 z"
       id="path7527" />
    <path
       style="fill:#92894e;stroke-width:1.30394"
       d="m 77.572823,102.41914 c -0.567706,-0.57299 -0.810374,-2.40282 -0.355906,-2.683699 0.224133,-0.138521 0.220045,-0.343276 -0.01595,-0.798787 -0.174535,-0.336886 -0.347626,-1.284718 -0.384647,-2.106292 -0.03702,-0.821574 -0.156609,-1.439626 -0.265749,-1.373448 -0.109141,0.06618 -0.198438,-0.124827 -0.198438,-0.424457 0,-0.29963 -0.0893,-0.530682 -0.198437,-0.513449 -0.109141,0.01723 -0.853282,0.01541 -1.653646,-0.0041 -1.002902,-0.02439 -1.335122,-0.111341 -1.068854,-0.279763 0.331571,-0.209727 0.318517,-0.319338 -0.09206,-0.773026 -0.26313,-0.290756 -0.398395,-0.684978 -0.300588,-0.876048 0.09781,-0.191071 -0.01107,-0.114259 -0.241958,0.170693 -0.389726,0.480992 -0.378381,0.540256 0.158424,0.827545 l 0.578212,0.30945 -0.575815,0.182757 c -0.66565,0.211269 -2.647619,-0.682509 -3.481279,-1.569899 -0.293575,-0.312497 -0.828416,-1.320014 -1.188536,-2.238928 -0.620658,-1.583728 -0.66509,-2.323813 -0.119259,-1.98647 0.320817,0.198275 0.308639,-0.168579 -0.02233,-0.672758 -0.231584,-0.352778 -0.28948,-0.352778 -0.521064,0 -0.198055,0.301703 -0.261503,0.181981 -0.264583,-0.499245 l -0.0041,-0.89612 1.734611,0.139238 c 1.939909,0.155717 2.051285,0.206116 1.815184,0.821383 -0.205334,0.535093 -0.639378,0.572905 -0.639378,0.0557 0,-0.417403 -0.481612,-0.592671 -1.785938,-0.649939 -0.472942,-0.02076 -0.859896,0.0832 -0.859896,0.231031 0,0.147833 0.245152,0.268787 0.544782,0.268787 0.29963,0 0.476711,0.11014 0.393514,0.244756 -0.0832,0.134616 -0.01135,0.551838 0.159656,0.92716 0.34029,0.746857 0.08189,1.299343 -0.314536,0.672504 -0.13538,-0.214067 -0.247969,-0.25662 -0.250197,-0.09456 -0.0022,0.162058 0.30984,0.608542 0.693486,0.992188 0.538075,0.538075 0.598561,0.697538 0.264583,0.697538 -0.51803,0 -0.536836,0.23791 -0.06765,0.855783 0.191661,0.252399 0.445088,0.371462 0.563171,0.264583 0.118083,-0.106878 0.138884,-0.06141 0.04622,0.101044 -0.09266,0.162452 0.03708,0.467658 0.28831,0.678234 0.403133,0.337899 0.627707,0.381677 1.282928,0.250095 0.09058,-0.01819 0.04125,-0.181901 -0.109623,-0.363802 -0.206055,-0.248433 -0.110883,-0.340502 0.382475,-0.370006 0.463168,-0.0277 0.61493,0.0698 0.514802,0.330729 -0.170997,0.44561 -0.03147,0.462189 0.680957,0.08091 0.390652,-0.209071 0.620202,-0.209071 0.829273,0 0.20907,0.20907 0.192239,0.289094 -0.0608,0.289094 -0.27987,0 -0.284461,0.07885 -0.02294,0.393962 0.366791,0.441957 0.796167,0.297436 0.796167,-0.267976 0,-0.490939 -0.742648,-0.868116 -2.011863,-1.021788 -0.566965,-0.06865 -1.090376,-0.147397 -1.163136,-0.175003 -0.07276,-0.02761 -0.209378,-0.04016 -0.303594,-0.0279 -0.09422,0.01226 -0.110095,-0.211768 -0.03529,-0.497835 0.0888,-0.339565 0.0035,-0.520121 -0.245598,-0.520121 -0.644102,0 -1.49386,-1.127835 -1.282531,-1.70223 0.136849,-0.371958 0.244027,-0.421318 0.392654,-0.180834 0.112435,0.181923 0.134007,0.40119 0.04794,0.48726 -0.283728,0.283728 0.397981,0.838557 0.827708,0.673655 0.279151,-0.10712 0.356496,-0.05726 0.229624,0.148019 -0.10522,0.170251 -0.07436,0.309546 0.06859,0.309546 0.142944,0 0.655986,0.318311 1.140094,0.707357 0.484108,0.389045 0.01699,-0.179301 -1.038033,-1.262993 -1.055026,-1.083692 -1.918229,-2.116377 -1.918229,-2.294856 0,-0.480199 0.710512,-0.393887 0.903791,0.109791 0.144628,0.376895 0.104656,0.387325 -0.302422,0.07891 -0.398666,-0.302045 -0.419835,-0.300122 -0.141026,0.01282 0.42439,0.476339 1.150592,0.577658 1.580868,0.22056 0.26309,-0.218344 0.326521,-0.125703 0.282028,0.4119 -0.05998,0.724767 -0.189025,0.826385 -0.628794,0.495166 -0.14491,-0.10914 0.254833,0.320586 0.888317,0.954947 0.633483,0.634362 1.234249,1.064546 1.335034,0.955965 0.100785,-0.108581 0.04111,-0.248343 -0.13262,-0.310583 -0.173726,-0.06224 -0.257605,-0.264989 -0.186397,-0.450554 0.07121,-0.185565 -0.08431,-0.505294 -0.345592,-0.71051 -0.43461,-0.341348 -0.44369,-0.333148 -0.10663,0.0963 0.474857,0.605008 0.219085,0.874055 -0.319202,0.335768 -0.255079,-0.255079 -0.361148,-0.683576 -0.279993,-1.131118 0.167891,-0.925863 0.363055,-1.121538 0.363055,-0.364006 0,0.323884 0.110916,0.520329 0.24648,0.436546 0.135564,-0.08378 0.432817,0.113701 0.660562,0.438853 0.381885,0.545217 0.447445,0.557822 0.84316,0.162108 0.235993,-0.235993 0.347231,-0.561508 0.247197,-0.723367 -0.269021,-0.435285 -0.678466,-0.07473 -0.485673,0.427678 0.116049,0.302417 0.06604,0.370212 -0.166897,0.226249 -0.182928,-0.113055 -0.276168,-0.421335 -0.207201,-0.685066 0.09135,-0.349317 0.01398,-0.436758 -0.284937,-0.322051 -0.261432,0.10032 -0.343887,0.04995 -0.227226,-0.138813 0.223654,-0.361879 -0.606545,-0.829866 -1.154632,-0.65087 -0.300392,0.0981 -0.324126,0.05204 -0.09762,-0.189482 0.232131,-0.247524 0.536216,-0.198201 1.35578,0.219909 1.93679,0.988077 3.910937,4.083721 3.264434,5.118935 -0.16895,0.270533 -0.223079,0.627961 -0.120286,0.794283 0.123316,0.19953 0.255051,0.128363 0.387242,-0.2092 0.17611,-0.449718 0.203729,-0.43159 0.228317,0.149854 0.01539,0.363802 0.193737,0.959114 0.396339,1.322916 0.412038,0.739879 0.507582,0.598942 0.807145,-1.190624 0.09744,-0.582084 0.36232,-1.475052 0.588629,-1.984375 0.627918,-1.413172 0.621538,-1.666394 -0.05999,-2.381099 -0.87657,-0.919237 -1.193732,-1.897522 -1.193732,-3.68206 0,-2.652568 1.107263,-4.864106 2.970655,-5.933293 1.185928,-0.680468 2.811312,-1.253448 2.056428,-0.724931 -0.218281,0.152825 -0.268654,0.279687 -0.111939,0.281915 0.402744,0.0057 0.227984,2.414643 -0.194101,2.675506 -0.595294,0.367912 -0.01615,0.575392 0.806057,0.28877 0.582407,-0.203028 0.825386,-0.193632 0.919405,0.03556 0.08981,0.218937 0.211202,0.193569 0.408466,-0.08536 0.221805,-0.313632 0.289742,-0.202643 0.323901,0.529167 0.02377,0.509323 0.05572,1.164166 0.07098,1.455208 0.08587,1.636895 -1.114728,4.326517 -1.75472,3.93098 -0.156877,-0.09695 -0.210974,-0.05613 -0.120214,0.09072 0.20062,0.32461 -0.681661,1.172298 -1.93534,1.859459 -1.077487,0.590586 -1.751622,1.798848 -2.008352,3.5996 -0.100265,0.703272 -0.261203,1.151007 -0.357641,0.994968 -0.147653,-0.238907 -0.150527,0.541624 -0.01355,3.67948 0.02522,0.57763 1.184737,-0.91557 1.998259,-2.573304 0.736068,-1.499903 1.633445,-2.286777 2.927253,-2.56679 0.999789,-0.21638 4.111579,0.289497 4.777918,0.776736 0.454764,0.332531 0.437885,0.411142 -0.321483,1.497262 -0.722329,1.033143 -3.014669,2.866096 -3.584418,2.866096 -0.124508,0 -0.157845,-0.178594 -0.07408,-0.396875 0.08376,-0.218282 0.466978,-0.400496 0.851592,-0.404921 0.621151,-0.0071 0.645337,-0.03942 0.216431,-0.288836 -0.265576,-0.154435 -0.552277,-0.211378 -0.637114,-0.126542 -0.08484,0.08484 -0.314032,0.02164 -0.509322,-0.140435 -0.262671,-0.217997 -0.45754,-0.209645 -0.748818,0.03209 -0.321848,0.26711 -0.425921,0.236792 -0.569963,-0.166041 -0.09692,-0.271051 -0.217959,-0.571664 -0.268974,-0.66803 -0.105211,-0.19874 0.2961,-0.149525 1.166536,0.143057 0.327421,0.110058 0.595312,0.318171 0.595312,0.462473 0,0.144303 0.121005,0.187584 0.268899,0.09618 0.147895,-0.0914 0.20811,-0.264548 0.133811,-0.384766 -0.0743,-0.120217 0.03673,-0.284508 0.246723,-0.365091 0.226555,-0.08694 0.445153,0.05306 0.537584,0.344281 0.153975,0.485132 0.720936,0.572859 1.120429,0.173367 0.113352,-0.113353 0.0275,-0.166408 -0.190779,-0.117901 -0.218282,0.04851 -0.396875,-0.0904 -0.396875,-0.308681 0,-0.218281 0.131833,-0.372774 0.292963,-0.343318 0.16113,0.02946 0.262481,-0.224135 0.225224,-0.563537 -0.0538,-0.490099 0.03565,-0.590058 0.43464,-0.48572 0.586425,0.153354 0.595904,0.19428 0.2114,0.912732 -0.160039,0.299036 -0.175542,0.472357 -0.03445,0.385157 0.432813,-0.267493 0.950072,-1.768451 0.694357,-2.014854 -0.373223,-0.35963 -3.10794,-0.636532 -2.895754,-0.293207 0.09785,0.158324 -0.0074,0.28608 -0.235682,0.28608 -0.22687,0 -0.41249,-0.132948 -0.41249,-0.295442 0,-0.185095 -0.222346,-0.225985 -0.595312,-0.109478 -0.327422,0.10228 -0.807667,0.182797 -1.067211,0.178925 -0.521855,-0.0078 -2.350595,2.321404 -2.11805,2.69767 0.0801,0.12961 0.409068,-0.284198 0.731033,-0.919573 0.572513,-1.129816 0.611974,-1.153847 1.793961,-1.092525 0.664714,0.03449 1.677416,-0.102716 2.250449,-0.304894 0.573033,-0.202178 1.191585,-0.275072 1.37456,-0.161988 0.207058,0.127969 -0.202467,0.333748 -1.08452,0.544952 -0.779461,0.186639 -1.536264,0.490786 -1.681785,0.675882 -0.145521,0.185096 -0.56224,0.377553 -0.926042,0.427682 -0.363802,0.05013 -0.631692,0.237146 -0.595312,0.415592 0.03638,0.178446 -0.171979,0.324447 -0.463021,0.324447 -0.291042,0 -0.529167,0.118721 -0.529167,0.263825 0,0.145103 -0.386953,0.433587 -0.859895,0.641075 l -0.859896,0.37725 0.845547,-0.07553 c 0.498703,-0.04455 0.898185,0.06164 0.973868,0.258867 0.130679,0.340544 -0.276518,0.37717 -0.768479,0.06912 -0.432345,-0.270718 -1.365537,0.622403 -1.826027,1.747618 -0.296954,0.725605 -0.372231,1.414935 -0.252819,2.315105 0.09352,0.70501 0.124937,1.27476 0.06981,1.26611 -0.05513,-0.009 -0.324829,-0.24242 -0.599336,-0.51948 z m -4.996565,-8.749522 c -0.257722,-0.150039 -0.407234,-0.372068 -0.332249,-0.493396 0.178492,-0.288807 -0.621376,-0.592253 -0.978825,-0.371337 -0.333102,0.205868 0.803733,1.14285 1.382785,1.139695 0.30709,-0.0017 0.290867,-0.06388 -0.07171,-0.274962 z m 2.205107,-1.531932 c -0.352625,-0.658886 -0.358544,-0.903971 -0.01673,-0.692719 0.370465,0.22896 0.331025,-0.2246 -0.05292,-0.608541 -0.217093,-0.217093 -0.224926,-0.3175 -0.02477,-0.3175 0.36474,0 0.138521,-0.943052 -0.316881,-1.321003 -0.246333,-0.204438 -0.380607,-0.167366 -0.497544,0.137367 -0.0924,0.240784 -0.0495,0.348977 0.101393,0.255721 0.245252,-0.151574 0.327698,0.115167 0.327698,1.060206 0,0.809593 -0.07408,0.952701 -0.396875,0.766701 -0.181901,-0.104814 -0.07005,0.09652 0.248563,0.447406 0.318611,0.350887 0.586502,0.727273 0.595313,0.836414 0.06034,0.747462 0.09041,0.810546 0.195734,0.410741 0.06508,-0.247035 -0.0083,-0.685692 -0.162984,-0.974793 z m -0.882708,-1.611859 c -0.02164,-0.287247 -0.209873,-0.587705 -0.418301,-0.667687 -0.534738,-0.205198 -0.764068,0.110242 -0.295558,0.406537 0.214067,0.13538 0.27015,0.249792 0.124629,0.254249 -0.145521,0.0045 -0.08599,0.123519 0.132292,0.264583 0.518984,0.335394 0.502321,0.344791 0.456938,-0.257682 z m 6.422228,-1.593267 c 0,0.201772 0.432793,-0.102894 0.961762,-0.677034 0.52897,-0.574141 1.066206,-1.013641 1.193859,-0.976668 0.564518,0.163505 1.227502,-1.591521 1.20879,-3.199863 -0.01163,-0.999726 -0.05821,-1.244121 -0.120489,-0.632133 -0.05584,0.54875 -0.213253,0.928676 -0.349808,0.844281 -0.136554,-0.0844 -0.248281,0.03217 -0.248281,0.259043 0,0.22687 -0.174857,0.41249 -0.388571,0.41249 -0.25042,0 -0.335615,-0.16462 -0.239625,-0.463021 0.110466,-0.343397 0.08409,-0.372553 -0.102078,-0.112853 -0.138063,0.192592 -0.213268,0.668842 -0.167121,1.058333 0.104555,0.88247 -0.12434,1.688056 -0.426564,1.501272 -0.125139,-0.07734 -0.265395,0.188821 -0.31168,0.59147 -0.04628,0.40265 -0.177792,0.672559 -0.292241,0.599799 -0.114448,-0.07276 -0.320984,0.0463 -0.458969,0.264583 -0.215986,0.341673 -0.251445,0.334869 -0.254933,-0.04892 -0.0022,-0.245189 0.10028,-0.721438 0.227796,-1.058334 0.127516,-0.336895 0.300607,-1.386443 0.384646,-2.332328 0.123787,-1.393256 0.107043,-1.518847 -0.08818,-0.661458 -0.368182,1.616955 -0.511073,2.297507 -0.69441,3.307291 -0.09247,0.509323 -0.278092,1.164167 -0.412487,1.455208 -0.240436,0.520684 -0.237757,0.520933 0.167118,0.01558 0.280237,-0.349788 0.411471,-0.396586 0.411471,-0.146734 z m -0.100332,-4.693273 c 0.233621,-1.052707 0.355504,-2.094504 0.270852,-2.315104 -0.08465,-0.2206 -0.0521,-0.40109 0.07234,-0.40109 0.124437,0 0.278673,-0.357188 0.342747,-0.79375 0.117407,-0.799947 -0.396699,-1.152622 -0.674959,-0.463021 -0.0805,0.199491 -0.141741,0.148996 -0.15434,-0.127251 -0.01265,-0.277239 0.240155,-0.523497 0.64057,-0.623995 0.363802,-0.09131 0.661458,-0.261024 0.661458,-0.377146 0,-0.116121 -0.255182,-0.144398 -0.567072,-0.06284 -0.824426,0.215592 -2.872511,2.268229 -2.872511,2.878896 0,0.286882 -0.103318,0.634713 -0.229596,0.772958 -0.363486,0.397933 -0.607659,2.029263 -0.272754,1.82228 0.186413,-0.11521 0.255425,0.149911 0.201611,0.774526 -0.045,0.522333 0.04447,1.075982 0.198815,1.230332 0.197791,0.197792 0.263101,-0.190085 0.221239,-1.313944 -0.03267,-0.877019 0.04618,-1.529327 0.175228,-1.449574 0.129043,0.07975 0.234624,-0.04062 0.234624,-0.267484 0,-0.22687 0.126089,-0.41249 0.280198,-0.41249 0.154109,0 0.206613,-0.119063 0.116677,-0.264584 -0.08994,-0.14552 -0.02469,-0.264583 0.144984,-0.264583 0.169678,0 0.245684,-0.163711 0.168902,-0.363802 -0.09559,-0.249097 0.06966,-0.363802 0.5241,-0.363802 0.700844,0 0.717007,0.20401 0.183422,2.315104 -0.09195,0.363802 -0.201097,1.256771 -0.242546,1.984375 -0.04145,0.727604 -0.02437,1.02526 0.03794,0.661458 0.06232,-0.363802 0.304449,-1.522764 0.53807,-2.575472 z"
       id="path7518" />
    <path
       style="fill:#789c52;stroke-width:1.30394"
       d="m 83.387211,80.795489 c -0.105363,-0.327422 -0.362139,-0.595313 -0.570614,-0.595313 -0.208475,0 -0.379046,-0.126089 -0.379046,-0.280198 0,-0.154109 0.119063,-0.206614 0.264584,-0.116677 0.368274,0.227606 0.332048,-0.223577 -0.04851,-0.604132 -0.1722,-0.172199 -0.240037,-0.386143 -0.15075,-0.475431 0.219915,-0.219914 1.316036,1.964618 1.182207,2.356098 -0.05847,0.171031 -0.192511,0.04308 -0.297874,-0.284347 z"
       id="path7423" />
    <path
       style="fill:#789c52;stroke-width:1.30394"
       d="m 83.495885,95.476178 c 0,-0.366868 1.781725,-1.147055 2.036869,-0.891911 0.302831,0.302831 -0.196906,1.013706 -0.603058,0.857851 -0.227597,-0.08734 -0.643312,-0.03597 -0.923812,0.114149 -0.385168,0.206135 -0.509999,0.186532 -0.509999,-0.08009 z"
       id="path7416" />
    <path
       style="fill:#789c52;stroke-width:1.30394"
       d="m 77.613466,102.45773 c -0.501859,-0.50919 -0.86125,-2.4138 -0.455473,-2.4138 0.138861,0 0.252475,-0.364219 0.252475,-0.80937 0,-0.472202 -0.110219,-0.741245 -0.264583,-0.645843 -0.15571,0.09623 -0.266683,-0.196743 -0.269687,-0.711989 -0.0063,-1.086276 -0.586455,-3.385221 -0.854792,-3.387424 -0.109141,-8.96e-4 -0.823516,-0.0035 -1.5875,-0.0057 -0.953177,-0.0028 -1.267825,-0.08074 -1.002708,-0.248431 0.331571,-0.209727 0.318517,-0.319338 -0.09206,-0.773026 -0.26313,-0.290756 -0.398395,-0.684978 -0.300588,-0.876048 0.09781,-0.191071 -0.01107,-0.114259 -0.241958,0.170693 -0.389726,0.480992 -0.378381,0.540256 0.158424,0.827545 l 0.578212,0.30945 -0.575815,0.182757 c -0.66565,0.211269 -2.647619,-0.682509 -3.481279,-1.569899 -0.293575,-0.312497 -0.828416,-1.320014 -1.188536,-2.238928 -0.620658,-1.583728 -0.66509,-2.323813 -0.119259,-1.98647 0.320817,0.198275 0.308639,-0.168579 -0.02233,-0.672758 -0.231584,-0.352778 -0.28948,-0.352778 -0.521064,0 -0.198055,0.301703 -0.261503,0.181981 -0.264583,-0.499245 l -0.0041,-0.89612 1.734611,0.139238 c 1.939909,0.155717 2.051285,0.206116 1.815184,0.821383 -0.205334,0.535093 -0.639378,0.572905 -0.639378,0.0557 0,-0.417403 -0.481612,-0.592671 -1.785938,-0.649939 -0.472942,-0.02076 -0.859896,0.0832 -0.859896,0.231031 0,0.147833 0.245152,0.268787 0.544782,0.268787 0.29963,0 0.476711,0.11014 0.393514,0.244756 -0.0832,0.134616 -0.01135,0.551838 0.159656,0.92716 0.34029,0.746857 0.08189,1.299343 -0.314536,0.672504 -0.13538,-0.214067 -0.247969,-0.25662 -0.250197,-0.09456 -0.0022,0.162058 0.30984,0.608542 0.693486,0.992188 0.538075,0.538075 0.598561,0.697538 0.264583,0.697538 -0.51803,0 -0.536836,0.23791 -0.06765,0.855783 0.191661,0.252399 0.445088,0.371462 0.563171,0.264583 0.118083,-0.106878 0.138884,-0.06141 0.04622,0.101044 -0.09266,0.162452 0.03708,0.467658 0.28831,0.678234 0.403133,0.337899 0.627707,0.381677 1.282928,0.250095 0.09058,-0.01819 0.04125,-0.181901 -0.109623,-0.363802 -0.206055,-0.248433 -0.110883,-0.340502 0.382475,-0.370006 0.463168,-0.0277 0.61493,0.0698 0.514802,0.330729 -0.170997,0.44561 -0.03147,0.462189 0.680957,0.08091 0.390652,-0.209071 0.620202,-0.209071 0.829273,0 0.20907,0.20907 0.192239,0.289094 -0.0608,0.289094 -0.27987,0 -0.284461,0.07885 -0.02294,0.393962 0.366791,0.441957 0.796167,0.297436 0.796167,-0.267976 0,-0.490939 -0.742648,-0.868116 -2.011863,-1.021788 -0.566965,-0.06865 -1.090376,-0.147397 -1.163136,-0.175003 -0.07276,-0.02761 -0.209378,-0.04016 -0.303594,-0.0279 -0.09422,0.01226 -0.110095,-0.211768 -0.03529,-0.497835 0.0888,-0.339565 0.0035,-0.520121 -0.245598,-0.520121 -0.644102,0 -1.49386,-1.127835 -1.282531,-1.70223 0.136849,-0.371958 0.244027,-0.421318 0.392654,-0.180834 0.112435,0.181923 0.134007,0.40119 0.04794,0.48726 -0.283728,0.283728 0.397981,0.838557 0.827708,0.673655 0.279151,-0.10712 0.356496,-0.05726 0.229624,0.148019 -0.10522,0.170251 -0.07436,0.309546 0.06859,0.309546 0.142944,0 0.655986,0.318311 1.140094,0.707357 0.484108,0.389045 0.01699,-0.179301 -1.038033,-1.262993 -1.055026,-1.083692 -1.918229,-2.116377 -1.918229,-2.294856 0,-0.480199 0.710512,-0.393887 0.903791,0.109791 0.144628,0.376895 0.104656,0.387325 -0.302422,0.07891 -0.398666,-0.302045 -0.419835,-0.300122 -0.141026,0.01282 0.42439,0.476339 1.150592,0.577658 1.580868,0.22056 0.26309,-0.218344 0.326521,-0.125703 0.282028,0.4119 -0.05998,0.724767 -0.189025,0.826385 -0.628794,0.495166 -0.14491,-0.10914 0.254833,0.320586 0.888317,0.954947 0.633483,0.634362 1.234249,1.064546 1.335034,0.955965 0.100785,-0.108581 0.04111,-0.248343 -0.13262,-0.310583 -0.173726,-0.06224 -0.257605,-0.264989 -0.186397,-0.450554 0.07121,-0.185565 -0.08431,-0.505294 -0.345592,-0.71051 -0.43461,-0.341348 -0.44369,-0.333148 -0.10663,0.0963 0.474857,0.605008 0.219085,0.874055 -0.319202,0.335768 -0.255079,-0.255079 -0.361148,-0.683576 -0.279993,-1.131118 0.167891,-0.925863 0.363055,-1.121538 0.363055,-0.364006 0,0.323884 0.110916,0.520329 0.24648,0.436546 0.135564,-0.08378 0.432817,0.113701 0.660562,0.438853 0.381885,0.545217 0.447445,0.557822 0.84316,0.162108 0.235993,-0.235993 0.347231,-0.561508 0.247197,-0.723367 -0.269021,-0.435285 -0.678466,-0.07473 -0.485673,0.427678 0.116049,0.302417 0.06604,0.370212 -0.166897,0.226249 -0.182928,-0.113055 -0.276168,-0.421335 -0.207201,-0.685066 0.09135,-0.349317 0.01398,-0.436758 -0.284937,-0.322051 -0.261432,0.10032 -0.343887,0.04995 -0.227226,-0.138813 0.223654,-0.361879 -0.606545,-0.829866 -1.154632,-0.65087 -0.300392,0.0981 -0.324126,0.05204 -0.09762,-0.189482 0.232131,-0.247524 0.536216,-0.198201 1.35578,0.219909 1.93679,0.988077 3.910937,4.083721 3.264434,5.118935 -0.16895,0.270533 -0.223079,0.627961 -0.120286,0.794283 0.123316,0.19953 0.255051,0.128363 0.387242,-0.2092 0.17611,-0.449718 0.203729,-0.43159 0.228317,0.149854 0.01539,0.363802 0.193737,0.959114 0.396339,1.322916 0.412038,0.739879 0.507582,0.598942 0.807145,-1.190624 0.09744,-0.582084 0.36232,-1.475052 0.588629,-1.984375 0.627918,-1.413172 0.621538,-1.666394 -0.05999,-2.381099 -0.87657,-0.919237 -1.193732,-1.897522 -1.193732,-3.68206 0,-2.652568 1.107263,-4.864106 2.970655,-5.933293 1.185928,-0.680468 2.811312,-1.253448 2.056428,-0.724931 -0.218281,0.152825 -0.268654,0.279687 -0.111939,0.281915 0.402744,0.0057 0.227984,2.414643 -0.194101,2.675506 -0.595294,0.367912 -0.01615,0.575392 0.806057,0.28877 0.582407,-0.203028 0.825386,-0.193632 0.919405,0.03556 0.08981,0.218937 0.211202,0.193569 0.408466,-0.08536 0.221805,-0.313632 0.289742,-0.202643 0.323901,0.529167 0.02377,0.509323 0.05572,1.164166 0.07098,1.455208 0.08587,1.636895 -1.114728,4.326517 -1.75472,3.93098 -0.156877,-0.09695 -0.210974,-0.05613 -0.120214,0.09072 0.20062,0.32461 -0.681661,1.172298 -1.93534,1.859459 -1.077487,0.590586 -1.751622,1.798848 -2.008352,3.5996 -0.100265,0.703272 -0.25495,1.161096 -0.343745,1.017388 -0.08879,-0.143709 -0.161445,0.917944 -0.161445,2.359227 0,1.441284 0.0893,2.620569 0.198438,2.620633 0.10914,6.4e-5 0.198437,-0.249395 0.198437,-0.554352 0,-0.304958 0.258032,-0.916842 0.573405,-1.359741 0.315372,-0.4429 0.861398,-1.383202 1.213391,-2.08956 0.702852,-1.410438 1.608599,-2.184978 2.875839,-2.459241 0.999789,-0.21638 4.111579,0.289497 4.777918,0.776736 0.454764,0.332531 0.437885,0.411142 -0.321483,1.497262 -0.722329,1.033143 -3.014669,2.866096 -3.584418,2.866096 -0.124508,0 -0.157845,-0.178594 -0.07408,-0.396875 0.08376,-0.218282 0.466978,-0.400496 0.851592,-0.404921 0.621151,-0.0071 0.645337,-0.03942 0.216431,-0.288836 -0.265576,-0.154435 -0.552277,-0.211378 -0.637114,-0.126542 -0.08484,0.08484 -0.314032,0.02164 -0.509322,-0.140435 -0.262671,-0.217997 -0.45754,-0.209645 -0.748818,0.03209 -0.321848,0.26711 -0.425921,0.236792 -0.569963,-0.166041 -0.09692,-0.271051 -0.217959,-0.571664 -0.268974,-0.66803 -0.105211,-0.19874 0.2961,-0.149525 1.166536,0.143057 0.327421,0.110058 0.595312,0.318171 0.595312,0.462473 0,0.144303 0.121005,0.187584 0.268899,0.09618 0.147895,-0.0914 0.20811,-0.264548 0.133811,-0.384766 -0.0743,-0.120217 0.03673,-0.284508 0.246723,-0.365091 0.226555,-0.08694 0.445153,0.05306 0.537584,0.344281 0.153975,0.485132 0.720936,0.572859 1.120429,0.173367 0.113352,-0.113353 0.0275,-0.166408 -0.190779,-0.117901 -0.218282,0.04851 -0.396875,-0.0904 -0.396875,-0.308681 0,-0.218281 0.131833,-0.372774 0.292963,-0.343318 0.16113,0.02946 0.262481,-0.224135 0.225224,-0.563537 -0.0538,-0.490099 0.03565,-0.590058 0.43464,-0.48572 0.586425,0.153354 0.595904,0.19428 0.2114,0.912732 -0.160039,0.299036 -0.175542,0.472357 -0.03445,0.385157 0.432813,-0.267493 0.950072,-1.768451 0.694357,-2.014854 -0.373223,-0.35963 -3.10794,-0.636532 -2.895754,-0.293207 0.09785,0.158324 -0.0074,0.28608 -0.235682,0.28608 -0.22687,0 -0.41249,-0.132948 -0.41249,-0.295442 0,-0.185095 -0.222346,-0.225985 -0.595312,-0.109478 -0.327422,0.10228 -0.807667,0.182797 -1.067211,0.178925 -0.521855,-0.0078 -2.350595,2.321404 -2.11805,2.69767 0.0801,0.12961 0.409068,-0.284198 0.731033,-0.919573 0.572513,-1.129816 0.611974,-1.153847 1.793961,-1.092525 0.664714,0.03449 1.677416,-0.102716 2.250449,-0.304894 0.573033,-0.202178 1.191585,-0.275072 1.37456,-0.161988 0.207058,0.127969 -0.202467,0.333748 -1.08452,0.544952 -0.779461,0.186639 -1.536264,0.490786 -1.681785,0.675882 -0.145521,0.185096 -0.56224,0.377553 -0.926042,0.427682 -0.363802,0.05013 -0.631692,0.237146 -0.595312,0.415592 0.03638,0.178446 -0.171979,0.324447 -0.463021,0.324447 -0.291042,0 -0.529167,0.118721 -0.529167,0.263825 0,0.145103 -0.386953,0.433587 -0.859895,0.641075 l -0.859896,0.37725 0.845547,-0.07553 c 0.498703,-0.04455 0.898185,0.06164 0.973868,0.258867 0.128386,0.334569 -0.462759,0.376241 -0.78375,0.05525 -0.352114,-0.352114 -1.383785,0.656514 -1.80819,1.767802 -0.304589,0.797563 -0.389539,1.529563 -0.275279,2.372083 0.184411,1.3598 0.174585,1.37492 -0.46899,0.72194 z m -5.037208,-8.788112 c -0.257722,-0.150039 -0.407234,-0.372068 -0.332249,-0.493396 0.178492,-0.288807 -0.621376,-0.592253 -0.978825,-0.371337 -0.333102,0.205868 0.803733,1.14285 1.382785,1.139695 0.30709,-0.0017 0.290867,-0.06388 -0.07171,-0.274962 z m 2.205107,-1.531932 c -0.352625,-0.658886 -0.358544,-0.903971 -0.01673,-0.692719 0.370465,0.22896 0.331025,-0.2246 -0.05292,-0.608541 -0.217093,-0.217093 -0.224926,-0.3175 -0.02477,-0.3175 0.36474,0 0.138521,-0.943052 -0.316881,-1.321003 -0.246333,-0.204438 -0.380607,-0.167366 -0.497544,0.137367 -0.0924,0.240784 -0.0495,0.348977 0.101393,0.255721 0.245252,-0.151574 0.327698,0.115167 0.327698,1.060206 0,0.809593 -0.07408,0.952701 -0.396875,0.766701 -0.181901,-0.104814 -0.07005,0.09652 0.248563,0.447406 0.318611,0.350887 0.586502,0.727273 0.595313,0.836414 0.06034,0.747462 0.09041,0.810546 0.195734,0.410741 0.06508,-0.247035 -0.0083,-0.685692 -0.162984,-0.974793 z m -0.882708,-1.611859 c -0.02164,-0.287247 -0.209873,-0.587705 -0.418301,-0.667687 -0.534738,-0.205198 -0.764068,0.110242 -0.295558,0.406537 0.214067,0.13538 0.27015,0.249792 0.124629,0.254249 -0.145521,0.0045 -0.08599,0.123519 0.132292,0.264583 0.518984,0.335394 0.502321,0.344791 0.456938,-0.257682 z m 6.422228,-1.593267 c 0,0.201772 0.432793,-0.102894 0.961762,-0.677034 0.52897,-0.574141 1.066206,-1.013641 1.193859,-0.976668 0.564518,0.163505 1.227502,-1.591521 1.20879,-3.199863 -0.01163,-0.999726 -0.05821,-1.244121 -0.120489,-0.632133 -0.05584,0.54875 -0.213253,0.928676 -0.349808,0.844281 -0.136554,-0.0844 -0.248281,0.03217 -0.248281,0.259043 0,0.22687 -0.174857,0.41249 -0.388571,0.41249 -0.25042,0 -0.335615,-0.16462 -0.239625,-0.463021 0.110466,-0.343397 0.08409,-0.372553 -0.102078,-0.112853 -0.138063,0.192592 -0.213268,0.668842 -0.167121,1.058333 0.104555,0.88247 -0.12434,1.688056 -0.426564,1.501272 -0.125139,-0.07734 -0.265395,0.188821 -0.31168,0.59147 -0.04628,0.40265 -0.177792,0.672559 -0.292241,0.599799 -0.114448,-0.07276 -0.320984,0.0463 -0.458969,0.264583 -0.215986,0.341673 -0.251445,0.334869 -0.254933,-0.04892 -0.0022,-0.245189 0.10028,-0.721438 0.227796,-1.058334 0.127516,-0.336895 0.300607,-1.386443 0.384646,-2.332328 0.123787,-1.393256 0.107043,-1.518847 -0.08818,-0.661458 -0.368182,1.616955 -0.511073,2.297507 -0.69441,3.307291 -0.09247,0.509323 -0.278092,1.164167 -0.412487,1.455208 -0.240436,0.520684 -0.237757,0.520933 0.167118,0.01558 0.280237,-0.349788 0.411471,-0.396586 0.411471,-0.146734 z m -0.100332,-4.693273 c 0.233621,-1.052707 0.355504,-2.094504 0.270852,-2.315104 -0.08465,-0.2206 -0.0521,-0.40109 0.07234,-0.40109 0.124437,0 0.278673,-0.357188 0.342747,-0.79375 0.117407,-0.799947 -0.396699,-1.152622 -0.674959,-0.463021 -0.0805,0.199491 -0.141741,0.148996 -0.15434,-0.127251 -0.01265,-0.277239 0.240155,-0.523497 0.64057,-0.623995 0.363802,-0.09131 0.661458,-0.261024 0.661458,-0.377146 0,-0.116121 -0.255182,-0.144398 -0.567072,-0.06284 -0.824426,0.215592 -2.872511,2.268229 -2.872511,2.878896 0,0.286882 -0.103318,0.634713 -0.229596,0.772958 -0.363486,0.397933 -0.607659,2.029263 -0.272754,1.82228 0.186413,-0.11521 0.255425,0.149911 0.201611,0.774526 -0.045,0.522333 0.04447,1.075982 0.198815,1.230332 0.197791,0.197792 0.263101,-0.190085 0.221239,-1.313944 -0.03267,-0.877019 0.04618,-1.529327 0.175228,-1.449574 0.129043,0.07975 0.234624,-0.04062 0.234624,-0.267484 0,-0.22687 0.126089,-0.41249 0.280198,-0.41249 0.154109,0 0.206613,-0.119063 0.116677,-0.264584 -0.08994,-0.14552 -0.02469,-0.264583 0.144984,-0.264583 0.169678,0 0.245684,-0.163711 0.168902,-0.363802 -0.09559,-0.249097 0.06966,-0.363802 0.5241,-0.363802 0.700844,0 0.717007,0.20401 0.183422,2.315104 -0.09195,0.363802 -0.201097,1.256771 -0.242546,1.984375 -0.04145,0.727604 -0.02437,1.02526 0.03794,0.661458 0.06232,-0.363802 0.304449,-1.522764 0.53807,-2.575472 z"
       id="path7409" />
    <path
       style="fill:#74984c;stroke-width:1.30394"
       d="m 83.048861,80.006908 c -0.318624,-0.68741 -0.535289,-1.293863 -0.481479,-1.347674 0.151847,-0.151846 1.234428,2.078488 1.142401,2.353574 -0.04488,0.134165 -0.342299,-0.31849 -0.660922,-1.0059 z"
       id="path7282" />
    <path
       style="fill:#74984c;stroke-width:1.30394"
       d="m 82.418955,83.573614 c -0.01709,-0.546976 -0.03486,-0.553772 -0.218942,-0.08371 -0.155396,0.39682 -0.249336,0.432336 -0.4187,0.158299 -0.13428,-0.217269 -0.07174,-0.465195 0.162426,-0.643896 0.20943,-0.159825 0.335985,-0.528716 0.281234,-0.819758 -0.09578,-0.509143 -0.08552,-0.510617 0.271284,-0.03896 0.203958,0.269616 0.320204,0.835162 0.258325,1.256771 -0.134071,0.91348 -0.309643,1.003063 -0.335627,0.171249 z"
       id="path7280" />
    <path
       style="fill:#74984c;stroke-width:1.30394"
       d="m 68.81151,86.550176 -1.058333,-0.189492 1.058333,-0.03349 c 0.582084,-0.01842 1.236927,0.08192 1.455209,0.222986 0.472906,0.305615 0.251688,0.305615 -1.455209,0 z"
       id="path7277" />
    <path
       style="fill:#74984c;stroke-width:1.30394"
       d="m 78.876556,87.626112 c -0.09592,-0.155202 -0.08677,-0.423974 0.02033,-0.597271 0.107103,-0.173296 0.168928,-0.813585 0.13739,-1.422865 -0.04174,-0.80632 0.05726,-1.151758 0.36379,-1.269385 0.277774,-0.106591 0.356526,-0.05707 0.231343,0.145485 -0.104385,0.168898 -0.207035,0.938688 -0.228111,1.710643 -0.03936,1.441746 -0.218001,1.929714 -0.524744,1.433393 z"
       id="path7274" />
    <path
       style="fill:#74984c;stroke-width:1.30394"
       d="m 67.381242,87.211634 c 0.0093,-0.436562 0.07689,-0.644922 0.150289,-0.463021 0.0734,0.181901 0.357918,0.33073 0.632266,0.33073 0.346424,0 0.449686,0.128024 0.338006,0.419059 -0.129666,0.337904 -0.204917,0.350714 -0.388571,0.06615 -0.186412,-0.28884 -0.275064,-0.280859 -0.488295,0.04396 -0.200274,0.305082 -0.256638,0.213289 -0.243695,-0.396875 z"
       id="path7273" />
    <path
       style="fill:#74984c;stroke-width:1.30394"
       d="m 78.58882,88.471381 c -0.0991,-0.325785 -0.269759,-0.536974 -0.379244,-0.469308 -0.109486,0.06767 -0.144926,-0.261095 -0.07876,-0.73058 0.06617,-0.469485 0.129598,-0.9972 0.140951,-1.172699 0.01135,-0.1755 0.126831,-0.253462 0.256618,-0.173249 0.129787,0.08021 0.158943,0.49657 0.06479,0.92524 -0.101173,0.460634 -0.04317,0.933645 0.141815,1.15654 0.17215,0.207428 0.250226,0.529974 0.173501,0.716767 -0.08807,0.214419 -0.205923,0.121255 -0.319677,-0.252711 z"
       id="path7272" />
    <path
       style="fill:#74984c;stroke-width:1.30394"
       d="m 71.54912,89.377549 c -0.893125,-0.789827 -0.936739,-0.894521 -0.574076,-1.378049 0.390447,-0.52057 0.392213,-0.520539 0.340777,0.0059 -0.08627,0.882934 0.0031,1.078131 0.302825,0.661458 0.239303,-0.332668 0.260772,-0.320346 0.1327,0.07616 -0.08993,0.278436 2.28e-4,0.531755 0.219168,0.61577 0.204576,0.0785 0.436957,0.312121 0.516402,0.519151 0.189962,0.495033 0.184507,0.492123 -0.937796,-0.500376 z"
       id="path7271" />
    <path
       style="fill:#74984c;stroke-width:1.30394"
       d="m 69.671406,89.932441 c -0.542195,-0.678564 -0.600552,-1.090956 -0.132291,-0.934869 0.181901,0.06063 0.309447,0.219383 0.283437,0.352777 -0.02601,0.133394 0.141271,0.450894 0.371736,0.705556 0.230466,0.254661 0.311278,0.461444 0.179584,0.459516 -0.131695,-0.0019 -0.447804,-0.264268 -0.702466,-0.58298 z"
       id="path7270" />
    <path
       style="fill:#74984c;stroke-width:1.30394"
       d="m 75.58084,91.549526 c -0.225318,-0.563281 -0.257225,-0.574903 -0.287038,-0.104559 -0.03024,0.477135 -0.05796,0.468229 -0.281868,-0.09058 -0.136579,-0.340861 -0.177289,-0.734686 -0.09047,-0.875167 0.26144,-0.423018 -1.197103,-2.405089 -1.643715,-2.233708 -0.252702,0.09697 -0.325154,0.04142 -0.203247,-0.155829 0.127664,-0.206564 0.04139,-0.249703 -0.264583,-0.132291 -0.256458,0.09841 -0.387251,0.06619 -0.300576,-0.07405 0.213695,-0.345767 -0.737713,-0.808661 -1.39995,-0.681125 -0.417573,0.08042 -0.508259,0.003 -0.381985,-0.32606 0.107027,-0.278908 0.203192,-0.318698 0.271921,-0.112512 0.05848,0.17545 0.211143,0.254223 0.339244,0.175053 0.388028,-0.239815 2.253713,0.855057 3.037749,1.782693 0.813472,0.962463 1.840216,3.079661 1.606727,3.31315 -0.08179,0.08179 -0.262789,-0.136461 -0.402212,-0.48501 z"
       id="path7268" />
    <path
       style="fill:#74984c;stroke-width:1.30394"
       d="m 71.19276,93.651708 c -0.582083,-0.301398 -1.325006,-0.791997 -1.650941,-1.090219 -0.596308,-0.545608 -1.791853,-3.318172 -1.539591,-3.570434 0.07445,-0.07445 0.184603,0.0305 0.244778,0.233231 0.452199,1.523452 0.926207,2.4741 1.202941,2.412563 0.179816,-0.03999 0.262226,0.032 0.183134,0.159978 -0.20265,0.327896 0.819506,1.181175 2.221138,1.854169 0.654843,0.314423 1.012031,0.566511 0.79375,0.560194 -0.218282,-0.0063 -0.873125,-0.258084 -1.455209,-0.559482 z"
       id="path7267" />
    <path
       style="fill:#74984c;stroke-width:1.30394"
       d="m 83.495885,95.461403 c 0,-0.131158 1.536828,-0.973728 1.776056,-0.973728 0.05899,0 0.03367,0.119063 -0.05626,0.264584 -0.08994,0.145521 -0.03041,0.264583 0.132292,0.264583 0.162697,0 0.222228,0.119063 0.132292,0.264583 -0.08994,0.145521 -0.282584,0.264584 -0.428105,0.264584 -0.145521,0 -0.178494,-0.139296 -0.07327,-0.309547 0.18558,-0.300274 0.110003,-0.285127 -1.152268,0.230945 -0.181901,0.07437 -0.330729,0.07167 -0.330729,-0.006 z"
       id="path7265" />
    <path
       style="fill:#74984c;stroke-width:1.30394"
       d="m 78.858514,97.651085 c -0.09388,-0.151895 -0.04697,-0.425241 0.104238,-0.607435 0.151207,-0.182194 0.610468,-0.98065 1.020578,-1.774347 0.985351,-1.906974 2.470005,-2.74476 4.438596,-2.504688 1.9882,0.242463 3.236092,0.62672 3.396992,1.046018 0.220443,0.574464 -1.287872,2.461669 -2.66592,3.335602 -1.342254,0.851232 -1.910205,1.007909 -1.39253,0.384149 0.181157,-0.218282 0.524283,-0.396875 0.762502,-0.396875 0.238219,0 0.589077,-0.249719 0.779686,-0.554932 0.190608,-0.305212 0.417945,-0.483546 0.505194,-0.396297 0.195166,0.195166 1.127618,-0.61759 1.127618,-0.982869 0,-0.145521 -0.267891,-0.03777 -0.595313,0.239445 -0.594831,0.503621 -0.594938,0.503583 -0.131714,-0.04661 0.254979,-0.302851 0.383963,-0.630273 0.286632,-0.727604 -0.09733,-0.09733 -0.04798,-0.176967 0.109666,-0.176967 0.157647,0 0.342223,0.148829 0.410168,0.33073 0.08384,0.224461 0.185036,0.181954 0.314939,-0.132292 0.335184,-0.810838 -0.04962,-1.196329 -1.367741,-1.370172 -1.601161,-0.211174 -3.980107,-0.01249 -4.442189,0.371008 -0.381022,0.31622 -0.23277,1.418027 0.158282,1.176343 0.13135,-0.08118 0.170318,-0.258433 0.0866,-0.393899 -0.08372,-0.135465 -0.01911,-0.246301 0.143591,-0.246301 0.166232,0 0.208775,-0.144875 0.09712,-0.330729 -0.126497,-0.210554 -0.03033,-0.19405 0.264662,0.04542 0.392612,0.31872 0.725494,0.324045 2.180285,0.03488 2.150391,-0.42743 2.548553,-0.183114 0.455026,0.279208 -0.848035,0.187276 -1.660944,0.480338 -1.806465,0.651251 -0.722595,0.848679 -2.378187,0.553628 -2.068546,-0.368645 0.08193,-0.244022 -0.150428,-0.02696 -0.516345,0.482365 -0.365916,0.509323 -0.607189,1.022463 -0.53616,1.140312 0.07103,0.117849 0.269413,0.02244 0.440854,-0.21202 0.243125,-0.332492 0.455848,-0.368775 0.966787,-0.164895 0.647755,0.258473 0.64833,0.261582 0.05146,0.278165 -0.331989,0.0092 -0.668026,0.18462 -0.746749,0.389768 -0.07872,0.205149 -0.461939,0.457953 -0.851592,0.561788 -0.389652,0.103835 -0.558889,0.243812 -0.376081,0.31106 0.182807,0.06725 0.265077,0.231162 0.182822,0.364253 -0.199593,0.322948 -0.57634,0.306581 -0.786946,-0.03419 z"
       id="path7262" />
    <path
       style="fill:#74984c;stroke-width:1.30394"
       d="m 77.613466,102.45773 c -0.501859,-0.50919 -0.86125,-2.4138 -0.455473,-2.4138 0.138861,0 0.252475,-0.364219 0.252475,-0.80937 0,-0.472202 -0.110219,-0.741245 -0.264583,-0.645843 -0.162365,0.100347 -0.252489,-0.276939 -0.233279,-0.976573 0.02919,-1.06323 0.04492,-1.08658 0.233279,-0.346344 0.182039,0.715401 0.203003,0.676226 0.212391,-0.396875 0.0057,-0.654843 -0.04964,-1.041796 -0.123036,-0.859895 -0.245616,0.608699 -0.592876,0.339616 -0.76827,-0.595313 l -0.173726,-0.926042 -1.6242,-0.04313 -1.6242,-0.04313 1.455208,-0.178331 c 1.448971,-0.177566 1.523401,-0.280614 0.264583,-0.36631 -0.830919,-0.05657 -1.852083,-0.614562 -1.852083,-1.012036 0,-0.165767 0.297656,-0.02176 0.661458,0.320013 l 0.661458,0.621408 v -0.611093 c 0,-0.336102 -0.297656,-0.886952 -0.661458,-1.224112 -0.363802,-0.337161 -0.661458,-0.538419 -0.661458,-0.447241 0,0.09118 -0.28244,-0.09956 -0.627643,-0.423861 -0.545387,-0.512364 -0.649015,-0.533945 -0.79072,-0.16467 -0.08969,0.233733 -0.0536,0.357312 0.08019,0.27462 0.133798,-0.08269 0.329425,-0.01095 0.434724,0.15943 0.128339,0.207656 0.07593,0.238382 -0.158972,0.0932 -0.261513,-0.161624 -0.30532,-0.08808 -0.172652,0.289849 0.139337,0.396926 0.06008,0.367454 -0.366576,-0.13631 -0.495722,-0.585315 -0.505226,-0.664629 -0.106391,-0.887828 0.380089,-0.212709 0.306424,-0.379801 -0.557499,-1.264537 -0.547502,-0.560694 -1.113569,-0.946446 -1.257926,-0.857229 -0.144357,0.08922 -0.182598,0.03298 -0.08498,-0.124967 0.09762,-0.15795 0.05648,-0.361967 -0.09141,-0.453371 -0.147894,-0.0914 -0.268899,-0.285251 -0.268899,-0.430772 0,-0.14552 0.108893,-0.197283 0.241985,-0.115028 0.133092,0.08226 0.292172,0.05952 0.353511,-0.05053 0.06134,-0.110047 0.07102,-0.04024 0.02151,0.155128 -0.04951,0.195368 0.147257,0.417263 0.437263,0.493101 0.290005,0.07584 0.470584,0.229627 0.401286,0.341753 -0.144444,0.233716 2.104719,2.381807 2.493876,2.381807 0.141396,0 0.608925,0.37647 1.038954,0.836599 0.547858,0.586207 0.747146,1.028088 0.665852,1.476396 -0.07197,0.396884 -0.01214,0.575596 0.157583,0.470702 0.15048,-0.093 0.273599,-0.459723 0.273599,-0.814937 0,-0.355214 0.138907,-0.645843 0.308681,-0.645843 0.169774,0 0.234054,0.07463 0.142844,0.165836 -0.211546,0.211546 0.540876,1.686247 0.860357,1.686247 0.131977,0 0.316086,0.239854 0.409129,0.533008 0.254286,0.801184 0.566609,0.419088 0.749778,-0.917278 0.0899,-0.655857 0.362033,-1.641373 0.604751,-2.190036 0.6579,-1.487182 0.667512,-1.806406 0.07066,-2.346549 -0.848866,-0.768212 -1.294117,-2.135844 -1.294117,-3.974998 0,-1.692345 0.416423,-2.44229 0.459534,-0.827584 0.08249,3.089762 0.259237,3.995766 0.8771,4.496082 0.58639,0.47483 0.645173,0.478075 0.956146,0.05279 0.182239,-0.249227 0.40913,-1.00261 0.504201,-1.674185 0.09507,-0.671575 0.351447,-1.994952 0.569724,-2.940837 0.218276,-0.945885 0.455879,-2.13651 0.528007,-2.645833 0.07213,-0.509323 0.237355,-1.126574 0.367172,-1.371669 0.398208,-0.751814 0.288964,-1.276653 -0.226989,-1.090514 -0.850474,0.306822 -1.926323,1.176701 -1.769382,1.430637 0.08529,0.137999 -0.0019,0.218191 -0.193712,0.178205 -0.19337,-0.04031 -0.622562,0.499144 -0.963213,1.210662 -0.337937,0.70585 -0.67409,1.223704 -0.747007,1.150788 -0.31873,-0.31873 1.260967,-2.78297 2.196872,-3.426999 1.13385,-0.780241 2.469345,-1.34359 2.681713,-1.131221 0.07683,0.07683 -0.02898,0.141517 -0.235132,0.143746 -0.319786,0.0035 -0.319046,0.03935 0.005,0.244418 0.314812,0.199204 0.320592,0.311783 0.03375,0.657407 -0.190362,0.229372 -0.257424,0.41704 -0.149027,0.41704 0.108397,0 0.03368,0.197956 -0.166041,0.439902 -0.292034,0.353779 -0.296214,0.462415 -0.02135,0.554896 0.279307,0.09398 0.279307,0.190364 0,0.527374 -0.389439,0.469892 -0.484461,4.591653 -0.112105,4.862744 0.126317,0.09196 -0.02685,0.423728 -0.34038,0.737254 -0.313526,0.313526 -0.504231,0.67654 -0.423789,0.806698 0.08044,0.130158 0.0079,0.322167 -0.161229,0.426688 -0.222876,0.137745 -0.250886,-0.02103 -0.101792,-0.577031 0.408817,-1.52454 0.641815,-2.899275 0.623281,-3.677484 -0.01865,-0.782991 -0.02173,-0.781198 -0.22705,0.132292 -0.11448,0.509323 -0.381579,1.773325 -0.593552,2.808894 -0.211974,1.035569 -0.461968,2.006731 -0.555543,2.158138 -0.105001,0.169895 0.03259,0.222271 0.359396,0.136809 0.291243,-0.07616 0.529532,-0.250678 0.529532,-0.387815 0,-0.137137 0.119063,-0.175755 0.264583,-0.08582 0.145521,0.08994 0.264584,0.03743 0.264584,-0.116677 0,-0.154109 0.178594,-0.280198 0.396875,-0.280198 0.218281,0 0.382775,-0.0893 0.365543,-0.198437 -0.09468,-0.599644 0.07337,-0.900379 0.427252,-0.764582 0.673538,0.258461 1.386405,-1.563295 1.42803,-3.649374 0.02013,-1.008847 0.08221,-1.879875 0.137949,-1.935617 0.217921,-0.217921 0.275196,2.604178 0.07343,3.618302 -0.244393,1.228402 -2.113176,3.392674 -3.622833,4.19567 -1.075008,0.571803 -1.750783,1.777953 -2.008352,3.58459 -0.100265,0.703272 -0.257894,1.156361 -0.350288,1.006865 -0.09239,-0.149497 -0.165044,0.912177 -0.161445,2.359275 0.0036,1.447097 0.09584,2.631117 0.204981,2.631155 0.10914,3.8e-5 0.198437,-0.29056 0.198437,-0.645774 0,-0.355214 0.102456,-0.709165 0.227679,-0.786557 0.498647,-0.30818 0.500749,0.218004 0.0055,1.373404 -0.390324,0.910588 -0.480406,1.534798 -0.359234,2.489258 0.18044,1.42131 0.176522,1.42787 -0.464683,0.77729 z"
       id="path7256" />
    <path
       style="fill:#897847;stroke-width:1.30394"
       d="m 77.145885,83.013608 c 0,-0.321871 1.301847,-2.769175 1.556928,-2.926824 0.134241,-0.08297 -0.120737,0.533686 -0.566619,1.370338 -0.89258,1.674836 -0.990309,1.828439 -0.990309,1.556486 z"
       id="path7031" />
    <path
       style="fill:#897847;stroke-width:1.30394"
       d="m 70.993692,89.753983 c -0.981919,-1.004883 -1.785307,-1.917157 -1.785307,-2.027274 0,-0.110118 0.218022,-0.0029 0.484493,0.238245 0.26647,0.241153 0.583215,0.348903 0.703877,0.239445 0.120662,-0.109458 0.140632,-0.06134 0.04438,0.106929 -0.100328,0.175391 0.399691,0.822647 1.171769,1.516811 0.740726,0.665977 1.306123,1.332826 1.256436,1.481886 -0.04969,0.149061 -0.893727,-0.551158 -1.875646,-1.556042 z"
       id="path7019" />
    <path
       style="fill:#897847;stroke-width:1.30394"
       d="m 69.578802,92.529759 c -0.494771,-0.494771 -0.899583,-1.049725 -0.899583,-1.233231 0,-0.183506 0.327422,0.09393 0.727604,0.616524 0.400182,0.522594 0.965729,1.06949 1.256771,1.215324 0.297887,0.149264 0.373053,0.272979 0.171979,0.283059 -0.196453,0.0098 -0.762,-0.386905 -1.256771,-0.881676 z"
       id="path7016" />
    <path
       style="fill:#897847;stroke-width:1.30394"
       d="m 86.406301,93.380324 c -0.509323,-0.146232 -1.781232,-0.222881 -2.826464,-0.170332 -2.068385,0.103988 -2.245248,0.02845 -0.732325,-0.312768 1.017022,-0.229375 3.854596,0.102298 4.598457,0.537497 0.52422,0.306696 0.149775,0.287105 -1.039668,-0.0544 z"
       id="path7015" />
    <path
       style="fill:#897847;stroke-width:1.30394"
       d="m 83.363593,94.2395 c 0.727604,-0.124157 1.561042,-0.315226 1.852083,-0.424598 0.404552,-0.152029 0.460158,-0.123795 0.236127,0.119893 -0.161171,0.175313 -0.994609,0.366382 -1.852083,0.424598 l -1.559044,0.105847 z"
       id="path7014" />
    <path
       style="fill:#897847;stroke-width:1.30394"
       d="m 80.094685,95.067923 c 0.813441,-1.531752 1.218387,-1.848767 1.218387,-0.953824 0,0.489508 -0.06717,0.588641 -0.227459,0.335678 -0.125102,-0.197437 -0.229873,-0.239914 -0.232824,-0.09439 -0.003,0.145521 -0.310893,0.621771 -0.684314,1.058333 l -0.678948,0.79375 z"
       id="path7011" />
    <path
       style="fill:#897847;stroke-width:1.30394"
       d="m 85.939872,96.307451 c 0.543829,-0.491554 1.168173,-1.250921 1.387433,-1.687484 0.219259,-0.436562 0.399386,-0.612518 0.400283,-0.391013 0.0021,0.518686 -1.456079,2.290548 -2.20192,2.675599 -0.316016,0.163147 -0.129624,-0.105549 0.414204,-0.597102 z"
       id="path7009" />
    <path
       style="fill:#897847;stroke-width:1.30394"
       d="m 78.339177,97.922943 c 0.0914,-0.147895 0.295421,-0.18903 0.453371,-0.09141 0.176708,0.109213 0.210595,0.05357 0.08809,-0.144648 -0.234125,-0.378821 0.601432,-1.406206 0.962274,-1.183193 0.13478,0.0833 0.02957,0.314829 -0.233798,0.514513 -0.382068,0.289678 -0.398637,0.366461 -0.08198,0.379889 0.304722,0.01292 0.277621,0.107028 -0.116716,0.40529 -0.584844,0.442354 -1.321556,0.524578 -1.071242,0.119561 z"
       id="path7006" />
    <path
       style="fill:#897847;stroke-width:1.30394"
       d="m 77.613466,102.45773 c -0.486406,-0.49352 -0.898805,-2.548024 -0.456604,-2.27473 0.143608,0.0888 0.253606,-0.251695 0.253606,-0.784918 0,-0.517911 -0.119062,-0.941657 -0.264583,-0.941657 -0.145521,0 -0.26276,-0.26789 -0.260532,-0.595312 0.0033,-0.481393 0.05313,-0.519366 0.260532,-0.198438 0.191337,0.296073 0.257509,0.150367 0.260532,-0.573673 0.0048,-1.160861 -0.21209,-1.807577 -0.606339,-1.807577 -0.193475,0 -0.184106,0.105087 0.02831,0.3175 0.38143,0.38143 0.412918,0.740834 0.06491,0.740834 -0.138927,0 -0.330771,-0.416719 -0.426321,-0.926042 -0.167256,-0.891551 -0.219438,-0.927698 -1.401051,-0.970519 -1.158038,-0.04197 -1.171105,-0.05035 -0.231475,-0.148481 0.962432,-0.100515 0.982409,-0.123195 0.595312,-0.675853 -0.458172,-0.654132 -0.509649,-0.983272 -0.153784,-0.983272 0.135715,0 0.331925,0.267891 0.436024,0.595313 0.183989,0.5787 0.195674,0.580546 0.418771,0.06615 0.175874,-0.405518 0.19516,-0.35397 0.08254,0.220606 -0.08417,0.429436 -0.04224,0.685052 0.09814,0.598288 0.134809,-0.08332 0.310161,0.09728 0.389671,0.401328 0.230102,0.879913 0.644047,0.348734 0.840315,-1.078304 0.0993,-0.721985 0.408109,-1.759058 0.686246,-2.304607 0.648472,-1.271941 0.637309,-1.45789 -0.130835,-2.179525 -0.613748,-0.576587 -1.151655,-1.766176 -0.661704,-1.46337 0.13195,0.08155 0.239909,0.30526 0.239909,0.497135 0,0.191875 0.187668,0.504614 0.41704,0.694976 0.34554,0.286773 0.463224,0.280987 0.686417,-0.03375 0.211185,-0.297802 0.234098,-0.271753 0.106069,0.120583 -0.136072,0.416986 -0.09827,0.446471 0.226658,0.176803 0.21448,-0.178003 0.468701,-0.879453 0.564934,-1.558778 0.09623,-0.679325 0.334163,-1.949511 0.528731,-2.822636 0.194568,-0.873125 0.414967,-1.934378 0.489775,-2.35834 0.07481,-0.423962 0.276956,-0.900212 0.449219,-1.058333 0.233649,-0.214469 0.273652,-0.174656 0.157486,0.156738 -0.08564,0.244328 -0.233082,0.899171 -0.327638,1.455209 -0.429022,2.52288 -1.193884,6.240071 -1.328945,6.458603 -0.242227,0.391931 0.219494,0.275346 1.145503,-0.289241 0.476459,-0.290498 0.932079,-0.528178 1.012487,-0.528178 0.198767,0 -1.226413,1.120868 -1.880871,1.479257 -0.289891,0.158748 -0.710887,0.669466 -0.935547,1.13493 -0.22466,0.465464 -0.49255,0.76222 -0.595312,0.659458 -0.102762,-0.102762 -0.18684,0.183165 -0.18684,0.635393 0,0.452228 -0.115508,0.89362 -0.256685,0.980872 -0.208994,0.129166 -0.217592,5.716941 -0.0096,6.22259 0.02993,0.07276 0.159405,-0.165365 0.287717,-0.529167 0.201921,-0.572507 0.210913,-0.554717 0.06687,0.132292 -0.09153,0.436562 -0.157515,1.478353 -0.146626,2.315103 0.01089,0.83674 -0.0013,1.51428 -0.0271,1.50563 -0.02579,-0.009 -0.253203,-0.22505 -0.505356,-0.48089 z"
       id="path7002" />
    <path
       style="fill:#83743c;stroke-width:1.30394"
       d="m 77.145885,83.013608 c 0,-0.321871 1.301847,-2.769175 1.556928,-2.926824 0.134241,-0.08297 -0.120737,0.533686 -0.566619,1.370338 -0.89258,1.674836 -0.990309,1.828439 -0.990309,1.556486 z"
       id="path6721" />
    <path
       style="fill:#83743c;stroke-width:1.30394"
       d="m 70.993692,89.753983 c -0.981919,-1.004883 -1.785307,-1.917157 -1.785307,-2.027274 0,-0.110118 0.218022,-0.0029 0.484493,0.238245 0.26647,0.241153 0.583215,0.348903 0.703877,0.239445 0.120662,-0.109458 0.140632,-0.06134 0.04438,0.106929 -0.100328,0.175391 0.399691,0.822647 1.171769,1.516811 0.740726,0.665977 1.306123,1.332826 1.256436,1.481886 -0.04969,0.149061 -0.893727,-0.551158 -1.875646,-1.556042 z"
       id="path6707" />
    <path
       style="fill:#83743c;stroke-width:1.30394"
       d="m 69.578802,92.529759 c -0.494771,-0.494771 -0.899583,-1.049725 -0.899583,-1.233231 0,-0.183506 0.327422,0.09393 0.727604,0.616524 0.400182,0.522594 0.965729,1.06949 1.256771,1.215324 0.297887,0.149264 0.373053,0.272979 0.171979,0.283059 -0.196453,0.0098 -0.762,-0.386905 -1.256771,-0.881676 z"
       id="path6701" />
    <path
       style="fill:#83743c;stroke-width:1.30394"
       d="m 86.406301,93.380324 c -0.509323,-0.146232 -1.781232,-0.222881 -2.826464,-0.170332 -2.068385,0.103988 -2.245248,0.02845 -0.732325,-0.312768 1.017022,-0.229375 3.854596,0.102298 4.598457,0.537497 0.52422,0.306696 0.149775,0.287105 -1.039668,-0.0544 z"
       id="path6700" />
    <path
       style="fill:#83743c;stroke-width:1.30394"
       d="m 83.363593,94.2395 c 0.727604,-0.124157 1.561042,-0.315226 1.852083,-0.424598 0.404552,-0.152029 0.460158,-0.123795 0.236127,0.119893 -0.161171,0.175313 -0.994609,0.366382 -1.852083,0.424598 l -1.559044,0.105847 z"
       id="path6699" />
    <path
       style="fill:#83743c;stroke-width:1.30394"
       d="m 80.094685,95.067923 c 0.813441,-1.531752 1.218387,-1.848767 1.218387,-0.953824 0,0.489508 -0.06717,0.588641 -0.227459,0.335678 -0.125102,-0.197437 -0.229873,-0.239914 -0.232824,-0.09439 -0.003,0.145521 -0.310893,0.621771 -0.684314,1.058333 l -0.678948,0.79375 z"
       id="path6696" />
    <path
       style="fill:#83743c;stroke-width:1.30394"
       d="m 76.46697,95.413717 c -0.167256,-0.891551 -0.219438,-0.927698 -1.401051,-0.970519 -1.158038,-0.04197 -1.171105,-0.05035 -0.231475,-0.148481 0.962432,-0.100515 0.982409,-0.123195 0.595312,-0.675853 -0.458172,-0.654132 -0.509649,-0.983272 -0.153784,-0.983272 0.135715,0 0.331925,0.267891 0.436024,0.595313 0.183989,0.5787 0.195674,0.580546 0.418771,0.06615 0.175874,-0.405518 0.19516,-0.35397 0.08254,0.220606 -0.09475,0.483391 -0.04919,0.689348 0.128225,0.579698 0.151354,-0.09354 0.293323,0.04531 0.315488,0.30856 0.02217,0.263249 0.05345,0.61906 0.06952,0.79069 0.01607,0.171631 0.116998,0.399834 0.224283,0.507119 0.275035,0.275035 0.242382,0.636035 -0.05753,0.636035 -0.138927,0 -0.330771,-0.416719 -0.426321,-0.926042 z"
       id="path6695" />
    <path
       style="fill:#83743c;stroke-width:1.30394"
       d="m 85.939872,96.307451 c 0.543829,-0.491554 1.168173,-1.250921 1.387433,-1.687484 0.219259,-0.436562 0.399386,-0.612518 0.400283,-0.391013 0.0021,0.518686 -1.456079,2.290548 -2.20192,2.675599 -0.316016,0.163147 -0.129624,-0.105549 0.414204,-0.597102 z"
       id="path6692" />
    <path
       style="fill:#83743c;stroke-width:1.30394"
       d="m 78.339177,97.922943 c 0.0914,-0.147895 0.295421,-0.18903 0.453371,-0.09141 0.176708,0.109213 0.210595,0.05357 0.08809,-0.144648 -0.234125,-0.378821 0.601432,-1.406206 0.962274,-1.183193 0.13478,0.0833 0.02957,0.314829 -0.233798,0.514513 -0.382068,0.289678 -0.398637,0.366461 -0.08198,0.379889 0.304722,0.01292 0.277621,0.107028 -0.116716,0.40529 -0.584844,0.442354 -1.321556,0.524578 -1.071242,0.119561 z"
       id="path6688" />
    <path
       style="fill:#83743c;stroke-width:1.30394"
       d="m 77.776988,102.59688 c -0.623217,-0.71279 -0.904459,-1.45797 -0.617252,-1.63547 0.177454,-0.10968 0.261152,-1.398408 0.228727,-3.52179 -0.05173,-3.38751 0.257158,-5.498927 0.962706,-6.580656 0.533148,-0.817409 0.480162,-1.214115 -0.254322,-1.904127 -0.613748,-0.576587 -1.151655,-1.766176 -0.661704,-1.46337 0.13195,0.08155 0.239909,0.30526 0.239909,0.497135 0,0.191875 0.187668,0.504614 0.41704,0.694976 0.34554,0.286773 0.463224,0.280987 0.686417,-0.03375 0.211185,-0.297802 0.234098,-0.271753 0.106069,0.120583 -0.136072,0.416986 -0.09827,0.446471 0.226658,0.176803 0.21448,-0.178003 0.468701,-0.879453 0.564934,-1.558778 0.09623,-0.679325 0.334163,-1.949511 0.528731,-2.822636 0.194568,-0.873125 0.414967,-1.934378 0.489775,-2.35834 0.07481,-0.423962 0.276956,-0.900212 0.449219,-1.058333 0.233649,-0.214469 0.273652,-0.174656 0.157486,0.156738 -0.08564,0.244328 -0.233082,0.899171 -0.327638,1.455209 -0.429022,2.52288 -1.193884,6.240071 -1.328945,6.458603 -0.242227,0.391931 0.219494,0.275346 1.145503,-0.289241 0.476459,-0.290498 0.932079,-0.528178 1.012487,-0.528178 0.198767,0 -1.226413,1.120868 -1.880871,1.479257 -0.289891,0.158748 -0.710887,0.669466 -0.935547,1.13493 -0.22466,0.465464 -0.49255,0.76222 -0.595312,0.659458 -0.102762,-0.102762 -0.18684,0.183165 -0.18684,0.635393 0,0.452228 -0.11313,0.89215 -0.2514,0.977606 -0.300009,0.185416 -0.26092,5.940454 0.04162,6.127433 0.11538,0.07131 0.223594,-0.145265 0.240474,-0.481275 0.02352,-0.468208 0.05953,-0.499791 0.15414,-0.135196 0.0679,0.261652 -0.02161,0.65052 -0.198912,0.864151 -0.217775,0.262402 -0.267033,0.859155 -0.151828,1.839375 0.184484,1.56967 0.178159,1.59614 -0.261322,1.09349 z"
       id="path6682" />
    <path
       style="fill:#66883b;stroke-width:1.30394"
       d="m 77.145885,83.01361 c 0,-0.321871 1.301847,-2.769175 1.556928,-2.926824 0.134241,-0.08297 -0.120737,0.533686 -0.566619,1.370338 -0.89258,1.674836 -0.990309,1.828439 -0.990309,1.556486 z"
       id="path6331" />
    <path
       style="fill:#66883b;stroke-width:1.30394"
       d="m 70.993692,89.753983 c -0.981919,-1.004883 -1.785307,-1.917157 -1.785307,-2.027274 0,-0.110118 0.218022,-0.0029 0.484493,0.238245 0.26647,0.241153 0.583215,0.348903 0.703877,0.239445 0.120662,-0.109458 0.140632,-0.06134 0.04438,0.106929 -0.100328,0.175391 0.399691,0.822647 1.171769,1.516811 0.740726,0.665977 1.306123,1.332826 1.256436,1.481886 -0.04969,0.149061 -0.893727,-0.551158 -1.875646,-1.556042 z"
       id="path6319" />
    <path
       style="fill:#66883b;stroke-width:1.30394"
       d="m 69.578802,92.529759 c -0.494771,-0.494771 -0.899583,-1.049725 -0.899583,-1.233231 0,-0.183506 0.327422,0.09393 0.727604,0.616524 0.400182,0.522594 0.965729,1.06949 1.256771,1.215324 0.297887,0.149264 0.373053,0.272979 0.171979,0.283059 -0.196453,0.0098 -0.762,-0.386905 -1.256771,-0.881676 z"
       id="path6314" />
    <path
       style="fill:#66883b;stroke-width:1.30394"
       d="m 86.406301,93.380324 c -0.509323,-0.146232 -1.781232,-0.222881 -2.826464,-0.170332 -2.068385,0.103988 -2.245248,0.02845 -0.732325,-0.312768 1.017022,-0.229375 3.854596,0.102298 4.598457,0.537497 0.52422,0.306696 0.149775,0.287105 -1.039668,-0.0544 z"
       id="path6313" />
    <path
       style="fill:#66883b;stroke-width:1.30394"
       d="m 83.363593,94.2395 c 0.727604,-0.124157 1.561042,-0.315226 1.852083,-0.424598 0.404552,-0.152029 0.460158,-0.123795 0.236127,0.119893 -0.161171,0.175313 -0.994609,0.366382 -1.852083,0.424598 l -1.559044,0.105847 z"
       id="path6311" />
    <path
       style="fill:#66883b;stroke-width:1.30394"
       d="m 80.094685,95.067923 c 0.813441,-1.531752 1.218387,-1.848767 1.218387,-0.953824 0,0.489508 -0.06717,0.588641 -0.227459,0.335678 -0.125102,-0.197437 -0.229873,-0.239914 -0.232824,-0.09439 -0.003,0.145521 -0.310893,0.621771 -0.684314,1.058333 l -0.678948,0.79375 z"
       id="path6308" />
    <path
       style="fill:#66883b;stroke-width:1.30394"
       d="m 76.46697,95.413717 c -0.167256,-0.891551 -0.219438,-0.927698 -1.401051,-0.970519 -1.158038,-0.04197 -1.171105,-0.05035 -0.231475,-0.148481 0.962432,-0.100515 0.982409,-0.123195 0.595312,-0.675853 -0.458172,-0.654132 -0.509649,-0.983272 -0.153784,-0.983272 0.135715,0 0.331925,0.267891 0.436024,0.595313 0.183989,0.5787 0.195674,0.580546 0.418771,0.06615 0.175874,-0.405518 0.19516,-0.35397 0.08254,0.220606 -0.09475,0.483391 -0.04919,0.689348 0.128225,0.579698 0.151354,-0.09354 0.293323,0.04531 0.315488,0.30856 0.02217,0.263249 0.05345,0.61906 0.06952,0.79069 0.01607,0.171631 0.116998,0.399834 0.224283,0.507119 0.275035,0.275035 0.242382,0.636035 -0.05753,0.636035 -0.138927,0 -0.330771,-0.416719 -0.426321,-0.926042 z"
       id="path6306" />
    <path
       style="fill:#66883b;stroke-width:1.30394"
       d="m 85.939872,96.307451 c 0.543829,-0.491554 1.168173,-1.250921 1.387433,-1.687484 0.219259,-0.436562 0.399386,-0.612518 0.400283,-0.391013 0.0021,0.518686 -1.456079,2.290548 -2.20192,2.675599 -0.316016,0.163147 -0.129624,-0.105549 0.414204,-0.597102 z"
       id="path6304" />
    <path
       style="fill:#66883b;stroke-width:1.30394"
       d="m 78.339177,97.922947 c 0.0914,-0.147895 0.295421,-0.18903 0.453371,-0.09141 0.176708,0.109213 0.210595,0.05357 0.08809,-0.144648 -0.234125,-0.378821 0.601432,-1.406206 0.962274,-1.183193 0.13478,0.0833 0.02957,0.314829 -0.233798,0.514513 -0.382068,0.289678 -0.398637,0.366461 -0.08198,0.379889 0.304722,0.01292 0.277621,0.107028 -0.116716,0.40529 -0.584844,0.442354 -1.321556,0.524578 -1.071242,0.119561 z"
       id="path6300" />
    <path
       style="fill:#66883b;stroke-width:1.30394"
       d="m 77.208815,101.79617 c -0.185693,-0.40755 -0.195988,-0.7196 -0.02924,-0.88635 0.275149,-0.27515 0.360145,-4.454541 0.104158,-5.121632 -0.207386,-0.540439 0.578921,-4.186324 1.061806,-4.923301 0.539064,-0.822715 0.487546,-1.21839 -0.248692,-1.91005 -0.613748,-0.576587 -1.151655,-1.766176 -0.661704,-1.46337 0.13195,0.08155 0.239909,0.30526 0.239909,0.497135 0,0.191875 0.187668,0.504614 0.41704,0.694976 0.34554,0.286773 0.463224,0.280987 0.686417,-0.03375 0.211185,-0.297802 0.234098,-0.271753 0.106069,0.120583 -0.136072,0.416986 -0.09827,0.446471 0.226658,0.176803 0.21448,-0.178003 0.468701,-0.879453 0.564934,-1.558778 0.09623,-0.679325 0.334163,-1.949511 0.528731,-2.822636 0.194568,-0.873125 0.414967,-1.934378 0.489775,-2.35834 0.07481,-0.423962 0.276956,-0.900212 0.449219,-1.058333 0.233649,-0.214469 0.273652,-0.174656 0.157486,0.156738 -0.08564,0.244328 -0.233082,0.899171 -0.327638,1.455209 -0.429022,2.52288 -1.193884,6.240071 -1.328945,6.458603 -0.242227,0.391931 0.219494,0.275346 1.145503,-0.289241 0.476459,-0.290498 0.932079,-0.528178 1.012487,-0.528178 0.198767,0 -1.226413,1.120868 -1.880871,1.479257 -0.289891,0.158748 -0.710887,0.669466 -0.935547,1.13493 -0.22466,0.465464 -0.49255,0.76222 -0.595312,0.659458 -0.102762,-0.102762 -0.18684,0.183165 -0.18684,0.635393 0,0.452228 -0.11313,0.89215 -0.2514,0.977606 -0.300009,0.185416 -0.26092,5.940454 0.04162,6.127433 0.11538,0.07131 0.219182,-0.145265 0.23067,-0.481275 0.01155,-0.337861 0.08443,-0.451439 0.163038,-0.254107 0.07818,0.196251 -0.0073,0.636098 -0.189996,0.977438 -0.195509,0.365309 -0.272935,1.062059 -0.188214,1.693699 0.164375,1.22551 -0.322187,1.49522 -0.801119,0.44408 z"
       id="path6294" />
    <path
       style="fill:#755a4b;stroke-width:1.30394"
       d="m 71.38635,90.112039 c -1.843229,-1.905285 -1.763471,-2.067824 0.134082,-0.273247 0.835063,0.789746 1.45796,1.496238 1.384215,1.569983 -0.07375,0.07374 -0.756978,-0.509786 -1.518297,-1.296736 z"
       id="path3659" />
    <path
       style="fill:#755a4b;stroke-width:1.30394"
       d="m 77.953312,91.841842 c -0.0056,-0.218281 0.222479,-0.749848 0.506853,-1.181261 0.489253,-0.742225 0.492714,-0.812188 0.0644,-1.301635 -0.417328,-0.476895 -0.418028,-0.504655 -0.009,-0.35582 0.732825,0.266634 1.10473,-0.521059 1.416108,-2.999313 0.0772,-0.614459 0.191174,-1.199402 0.253268,-1.299872 0.06209,-0.10047 0.180275,-0.52984 0.262626,-0.954156 0.295403,-1.52209 0.613359,-2.615848 0.639947,-2.201402 0.03494,0.544698 -1.187063,7.096011 -1.444581,7.744552 -0.177633,0.447358 -0.136311,0.462824 0.439357,0.164439 0.349488,-0.181149 0.864257,-0.522422 1.143933,-0.758384 0.279676,-0.235963 0.418495,-0.27537 0.308488,-0.08757 -0.110007,0.187797 -0.671981,0.63939 -1.24883,1.003539 -0.57685,0.36415 -1.154608,0.924872 -1.283905,1.24605 -0.148349,0.368502 -0.249204,0.437529 -0.273347,0.187085 -0.02104,-0.218281 -0.201814,-0.03969 -0.401712,0.396875 -0.199899,0.436563 -0.368038,0.615157 -0.373643,0.396875 z"
       id="path3657" />
    <path
       style="fill:#755a4b;stroke-width:1.30394"
       d="m 77.262612,95.733147 c -0.07219,-0.188116 -0.02088,-0.813194 0.114018,-1.389062 0.135725,-0.579408 0.257136,-0.790821 0.271844,-0.473362 0.01462,0.31552 0.09734,0.79177 0.183828,1.058334 0.133807,0.412405 0.110894,0.425492 -0.153692,0.08778 -0.252334,-0.322069 -0.281023,-0.259731 -0.15221,0.330729 0.161256,0.739166 -0.02412,1.010132 -0.263788,0.385576 z"
       id="path3649" />
    <path
       style="fill:#755a4b;stroke-width:1.30394"
       d="m 77.208815,101.79617 c -0.189389,-0.41566 -0.197633,-0.71796 -0.02431,-0.89129 0.144258,-0.14425 0.274838,-0.931884 0.290177,-1.750287 0.03659,-1.952112 0.292162,-1.657643 0.37978,0.437581 0.03777,0.903306 0.134191,1.910266 0.214258,2.237686 0.199272,0.8149 -0.485492,0.78807 -0.859909,-0.0337 z"
       id="path3617" />
    <path
       style="fill:#5a8438;stroke-width:1.30394"
       d="m 71.38635,90.112039 c -1.843229,-1.905285 -1.763471,-2.067824 0.134082,-0.273247 0.835063,0.789746 1.45796,1.496238 1.384215,1.569983 -0.07375,0.07374 -0.756978,-0.509786 -1.518297,-1.296736 z"
       id="path2912" />
    <path
       style="fill:#5a8438;stroke-width:1.30394"
       d="m 77.953312,91.841842 c -0.0056,-0.218281 0.222479,-0.749848 0.506853,-1.181261 0.489253,-0.742225 0.492714,-0.812188 0.0644,-1.301635 -0.417328,-0.476895 -0.418028,-0.504655 -0.009,-0.35582 0.732825,0.266634 1.10473,-0.521059 1.416108,-2.999313 0.0772,-0.614459 0.191174,-1.199402 0.253268,-1.299872 0.06209,-0.10047 0.180275,-0.52984 0.262626,-0.954156 0.295403,-1.52209 0.613359,-2.615848 0.639947,-2.201402 0.03494,0.544698 -1.187063,7.096011 -1.444581,7.744552 -0.177633,0.447358 -0.136311,0.462824 0.439357,0.164439 0.349488,-0.181149 0.864257,-0.522422 1.143933,-0.758384 0.279676,-0.235963 0.418495,-0.27537 0.308488,-0.08757 -0.110007,0.187797 -0.671981,0.63939 -1.24883,1.003539 -0.57685,0.36415 -1.154608,0.924872 -1.283905,1.24605 -0.148349,0.368502 -0.249204,0.437529 -0.273347,0.187085 -0.02104,-0.218281 -0.201814,-0.03969 -0.401712,0.396875 -0.199899,0.436563 -0.368038,0.615157 -0.373643,0.396875 z"
       id="path2811" />
    <path
       style="fill:#5a8438;stroke-width:1.30394"
       d="m 77.262612,95.733147 c -0.07219,-0.188116 -0.02088,-0.813194 0.114018,-1.389062 0.135725,-0.579408 0.257136,-0.790821 0.271844,-0.473362 0.01462,0.31552 0.09734,0.79177 0.183828,1.058334 0.133807,0.412405 0.110894,0.425492 -0.153692,0.08778 -0.252334,-0.322069 -0.281023,-0.259731 -0.15221,0.330729 0.161256,0.739166 -0.02412,1.010132 -0.263788,0.385576 z"
       id="path2803" />
    <path
       style="fill:#5a8438;stroke-width:1.30394"
       d="m 77.208815,101.79617 c -0.189389,-0.41566 -0.197633,-0.71796 -0.02431,-0.89129 0.144258,-0.14425 0.274838,-0.931884 0.290177,-1.750287 0.03659,-1.952112 0.292162,-1.657643 0.37978,0.437581 0.03777,0.903306 0.134191,1.910266 0.214258,2.237686 0.199272,0.8149 -0.485492,0.78807 -0.859909,-0.0337 z"
       id="path2789" />
    <path
       style="fill:#736d33;stroke-width:1.30394"
       d="m 78.733385,91.032477 c 0,-0.154109 -0.131413,-0.19898 -0.292028,-0.09972 -0.160615,0.09927 -0.09461,-0.120807 0.146669,-0.489051 0.289544,-0.441901 0.343852,-0.728151 0.159736,-0.841942 -0.153428,-0.09482 -0.277137,-0.314208 -0.274909,-0.487521 0.0026,-0.205998 0.08442,-0.188214 0.236144,0.05136 0.383189,0.605055 0.718678,-0.340509 1.5253,-4.299013 0.407047,-1.997583 0.780685,-3.510168 0.830308,-3.361301 0.04962,0.148866 -0.156946,1.535844 -0.459041,3.082173 -0.302094,1.546328 -0.549996,3.00748 -0.550893,3.247003 -8.96e-4,0.239524 -0.17602,0.769841 -0.389164,1.178484 -0.373823,0.716698 -0.366745,0.737315 0.200067,0.582679 0.565866,-0.154378 0.568027,-0.14824 0.05844,0.165917 -0.819246,0.505055 -1.110779,0.864622 -0.9914,1.222759 0.0602,0.180602 0.04,0.328367 -0.04488,0.328367 -0.08489,0 -0.15434,-0.12609 -0.15434,-0.280199 z"
       id="path2024" />
    <path
       style="fill:#736d33;stroke-width:1.30394"
       d="m 77.203181,101.78381 c -0.219372,-0.48147 -0.212349,-0.70766 0.02817,-0.90727 0.193607,-0.16068 0.301306,-0.8578 0.272153,-1.761589 -0.02653,-0.822623 0.02612,-1.42131 0.117018,-1.330416 0.09089,0.09089 0.196169,0.904332 0.233943,1.807639 0.03777,0.903306 0.134191,1.910266 0.214258,2.237686 0.200894,0.82153 -0.486921,0.78493 -0.865543,-0.046 z"
       id="path2001" />
    <path
       style="fill:#4f732f;stroke-width:1.30394"
       d="m 78.733385,91.032477 c 0,-0.154109 -0.131413,-0.19898 -0.292028,-0.09972 -0.160615,0.09927 -0.09461,-0.120807 0.146669,-0.489051 0.289544,-0.441901 0.343852,-0.728151 0.159736,-0.841942 -0.153428,-0.09482 -0.277137,-0.314208 -0.274909,-0.487521 0.0026,-0.205998 0.08442,-0.188214 0.236144,0.05136 0.383189,0.605055 0.718678,-0.340509 1.5253,-4.299013 0.407047,-1.997583 0.780685,-3.510168 0.830308,-3.361301 0.04962,0.148866 -0.156946,1.535844 -0.459041,3.082173 -0.302094,1.546328 -0.549996,3.00748 -0.550893,3.247003 -8.96e-4,0.239524 -0.17602,0.769841 -0.389164,1.178484 -0.373823,0.716698 -0.366745,0.737315 0.200067,0.582679 0.565866,-0.154378 0.568027,-0.14824 0.05844,0.165917 -0.819246,0.505055 -1.110779,0.864622 -0.9914,1.222759 0.0602,0.180602 0.04,0.328367 -0.04488,0.328367 -0.08489,0 -0.15434,-0.12609 -0.15434,-0.280199 z"
       id="path1586" />
    <path
       style="fill:#4f732f;stroke-width:1.30394"
       d="m 77.468559,100.31311 c -0.01234,-0.434038 0.06949,-0.845972 0.181849,-0.915412 0.112357,-0.06944 0.219772,0.285678 0.238699,0.789152 0.01893,0.50347 -0.0629,0.91541 -0.181848,0.91541 -0.118944,0 -0.226359,-0.35512 -0.2387,-0.78915 z"
       id="path1583" />
    <path
       style="fill:#345a1d;stroke-width:1.30394"
       d="m 78.931743,90.055905 c -0.05777,-0.254662 0.04334,-0.641615 0.224671,-0.859896 0.181333,-0.218281 0.516564,-1.230312 0.744956,-2.248958 l 0.41526,-1.852083 -0.155316,1.570284 c -0.173387,1.752987 -0.496848,2.79534 -0.867444,2.79534 -0.135499,0 -0.18409,0.238125 -0.107981,0.529167 0.07611,0.291042 0.07369,0.529167 -0.0054,0.529167 -0.07906,0 -0.191012,-0.20836 -0.248776,-0.463021 z"
       id="path1367" />
  </g>
</svg>
