<?xml version="1.0" encoding="UTF-8" standalone="no"?>
<!-- Created with Inkscape (http://www.inkscape.org/) -->

<svg
   width="185"
   height="185"
   viewBox="0 0 48.947914 48.947918"
   version="1.1"
   id="svg1"
   xmlns="http://www.w3.org/2000/svg"
   xmlns:svg="http://www.w3.org/2000/svg">
  <defs
     id="defs1" />
  <g
     id="layer1">
    <g
       id="g18997"
       transform="matrix(0.6295428,0,0,0.6295428,16.685083,-2.8085884)"
       style="display:inline;stroke-width:1.58845">
      <path
         style="fill:#f7e2b8;stroke-width:1.58845"
         d="M 11.262714,82.084049 C 9.7433088,81.819125 6.8902608,80.411542 4.2450464,78.621805 3.1811278,77.901964 2.180466,77.39346 2.0213536,77.491797 1.8616813,77.59048 1.8066761,77.549857 1.8985917,77.401134 1.9901851,77.252933 1.3592881,76.565546 0.49659843,75.873607 -3.2997622,72.828655 -6.7856127,67.809048 -8.4872415,62.936924 c -0.9026733,-2.584546 -0.8202369,-3.075176 0.5166958,-3.075176 0.935942,0 4.1682127,1.655865 5.5633702,2.850068 0.5892133,0.504345 1.1462092,0.842078 1.2377686,0.750519 0.091559,-0.09156 -0.062962,-0.350403 -0.3433803,-0.575209 -0.4843258,-0.388273 -0.4790197,-0.393744 0.1059815,-0.109266 0.3387083,0.164709 0.55692881,0.452974 0.48493438,0.640588 -0.0719944,0.187615 0.52482363,0.982155 1.32626236,1.765646 0.80143876,0.783491 2.00146816,2.138904 2.66673206,3.012029 0.6652638,0.873125 1.3162383,1.706562 1.44661,1.852083 0.1303716,0.145521 -0.5924988,-1.342761 -1.6063787,-3.307292 -3.0561123,-5.921636 -5.7384476,-13.683194 -6.3353685,-18.33191 -0.2691444,-2.096049 0.00121,-2.746535 1.0337975,-2.487372 0.9916035,0.248876 3.4045779,2.157474 4.8416355,3.829603 0.7144819,0.831355 1.4079411,1.47884 1.5410205,1.438854 0.1330793,-0.03999 0.1707341,0.04255 0.083677,0.183409 -0.087057,0.140861 0.2401378,0.887952 0.7270991,1.660201 1.7569908,2.786333 4.2058711,9.264283 4.9597904,13.119986 0.178708,0.913951 0.3756691,1.610984 0.4376911,1.548962 0.06202,-0.06202 -0.19833,-1.940894 -0.5785611,-4.175271 C 9.2419057,61.293 8.7421037,58.333779 8.511465,56.951332 8.2128206,55.161257 8.0838368,52.495852 8.0633365,47.690915 L 8.034551,40.944041 8.8598968,37.901333 c 0.9015302,-3.323569 2.2602422,-6.474053 2.8975392,-6.718607 1.480712,-0.568203 3.642747,5.318481 4.334368,11.801407 0.549591,5.151605 0.220794,10.726488 -1.180275,20.012008 -0.867199,5.747317 -0.76461,7.070833 0.203544,2.62597 1.648783,-7.569676 3.91179,-12.539719 7.577465,-16.641716 1.582457,-1.770816 3.719788,-3.216729 4.575546,-3.095376 0.778303,0.11037 0.907032,1.182527 0.470965,3.922563 -0.74671,4.691969 -3.191908,11.35821 -6.939073,18.917707 -1.181148,2.382837 -1.165083,2.374972 0.973901,-0.476793 1.744655,-2.326032 4.532239,-4.986477 6.895149,-6.580668 0.873125,-0.589074 1.562403,-1.162888 1.53173,-1.275142 -0.03067,-0.112255 0.08839,-0.191885 0.264583,-0.176957 0.176195,0.01493 0.822591,-0.135855 1.436437,-0.335075 1.228513,-0.398708 1.926625,-0.122038 1.926625,0.763543 0,1.641434 -2.622186,7.542395 -4.323277,9.729091 -3.246585,4.173379 -9.146457,8.938339 -13.547231,10.941256 -1.936681,0.881439 -3.027699,1.060249 -4.695179,0.769505 z"
         id="path17991" />
      <path
         style="fill:#a9a688;stroke-width:1.58845"
         d="M 11.68099,82.0646 C 9.9862401,81.840888 7.6799071,80.781203 4.7242356,78.868198 -1.0157897,75.153069 -4.7406591,71.057178 -7.3027021,65.643295 c -1.9556233,-4.13245 -2.1855544,-5.781547 -0.8061121,-5.781547 0.7513844,0 3.3695382,1.24635 5.0742433,2.415551 1.438475,0.986603 4.7252873,4.20427 6.1811481,6.051115 0.6309243,0.800365 1.2581322,1.574271 1.3937955,1.719792 C 4.6760359,70.193727 4.0702886,68.94357 3.1942676,67.270081 -1.0868708,59.091693 -4.7773028,46.585456 -3.0994909,45.941619 -1.54565,45.345354 3.5162074,50.30782 5.6120643,54.482119 7.335892,57.915451 9.309183,63.606368 9.9085992,66.873206 10.015403,67.455289 10.1475,67.743948 10.202149,67.51467 10.256798,67.285392 9.986982,65.320861 9.6025587,63.149045 8.3683638,56.176409 8.1590369,54.280074 7.9984345,48.616957 7.8559611,43.593103 7.8952984,42.79451 8.4089709,40.282582 9.2777436,36.034168 10.455841,32.722183 11.53524,31.493701 c 0.61749,-0.702776 1.192991,-0.20217 2.147011,1.867603 1.260085,2.733788 2.093585,6.405858 2.455938,10.819876 0.273582,3.332662 0.25605,4.664611 -0.119332,9.065985 -0.242016,2.837656 -0.742406,7.123906 -1.111978,9.525 -0.859731,5.585649 -0.806164,7.80546 0.08682,3.597767 1.534416,-7.230093 3.661537,-12.302689 6.804211,-16.226161 1.955414,-2.441238 4.402365,-4.367693 5.400186,-4.251502 0.658529,0.07668 0.67618,0.129866 0.640887,1.930938 -0.04066,2.07493 -0.758848,5.380074 -1.980428,9.11405 -0.850151,2.598639 -4.712707,11.287529 -6.092976,13.706261 -1.113951,1.952046 -0.77147,1.728633 0.604141,-0.394102 2.627272,-4.054202 6.735283,-7.906172 10.385375,-9.738083 2.122442,-1.065212 2.423783,-1.104267 2.819224,-0.365379 0.604873,1.130215 -1.703192,6.965111 -3.95696,10.003381 -2.451509,3.304841 -7.155108,7.415336 -11.134791,9.730742 -3.553477,2.067436 -4.757951,2.454288 -6.801578,2.184523 z"
         id="path18993" />
      <path
         style="fill:#947593;stroke-width:1.58845"
         d="m 11.866399,61.515394 c -0.04479,-20.546471 -0.02191,-22.491072 0.259053,-22.011002 0.17699,0.30242 0.43122,19.91875 0.290409,22.407877 -0.03807,0.672999 -0.547932,0.304728 -0.549462,-0.396875 z"
         id="path18912" />
      <path
         style="fill:#947593;stroke-width:1.58845"
         d="m 12.202941,64.293325 c 0.09411,-0.245234 0.05724,-0.516252 -0.08193,-0.60226 -0.345455,-0.213503 -0.321371,-1.183484 0.02938,-1.183484 0.15838,0 0.211388,0.223781 0.120695,0.50953 -0.0979,0.308465 -0.01131,0.595583 0.219448,0.727604 0.327178,0.187186 0.321687,0.273061 -0.03877,0.606282 -0.371997,0.343893 -0.400402,0.33731 -0.248833,-0.05767 z"
         id="path18911" />
      <path
         style="fill:#947593;stroke-width:1.58845"
         d="M 9.4837958,81.474234 C 4.8273233,79.558335 -1.266334,74.738781 -4.4610385,70.445081 c -2.00346,-2.692661 -4.5730585,-8.194869 -4.5730585,-9.79216 0,-1.034607 1.18892,-0.944078 3.6559383,0.278378 1.9873228,0.984757 2.7202861,1.564005 5.48293109,4.33306 1.75392051,1.757991 3.57808991,3.672597 4.05370981,4.25468 0.8632507,1.056482 0.8638559,1.056713 0.3459855,0.132292 -2.2989369,-4.103704 -4.75030374,-9.841642 -6.6125783,-15.478124 -0.5447786,-1.648863 -1.3697367,-6.042072 -1.3697367,-7.294358 0,-0.406737 0.1789517,-0.787489 0.4121801,-0.876987 1.1368819,-0.436263 5.2829268,3.093131 7.3591089,6.26457 1.916225,2.927099 4.4605365,9.446739 5.3483939,13.704927 0.2234203,1.071529 0.4585154,2.000532 0.5224344,2.064451 0.258644,0.258644 0.08125,-1.358485 -0.5483701,-4.999062 -1.554266,-8.986995 -2.113027,-16.972204 -1.4745961,-21.073332 0.8212965,-5.275815 2.7398082,-10.46067 3.9333352,-10.629999 0.519617,-0.07372 0.731407,0.191152 1.523288,1.905073 1.231343,2.665082 2.145419,6.672207 2.512168,11.012842 0.353095,4.179029 -0.05779,10.590586 -1.161464,18.123958 -0.809122,5.522822 -0.969376,7.123222 -0.684517,6.83603 0.120806,-0.121796 0.407541,-1.133146 0.63719,-2.247444 0.813212,-3.945856 2.258286,-8.721032 3.299131,-10.901815 2.025627,-4.244103 4.821432,-7.834658 7.348276,-9.437136 1.536068,-0.974145 2.13027,-1.000932 2.354844,-0.106159 0.29719,1.184098 -0.686015,6.166614 -2.058668,10.432566 -0.657173,2.042368 -5.24368,12.287344 -6.132631,13.698583 -0.815634,1.294844 -1.625714,2.909171 -1.291295,2.573291 0.144888,-0.145521 0.913114,-1.276615 1.707169,-2.513542 0.794055,-1.236927 2.079749,-3.006398 2.857098,-3.932158 1.848256,-2.201125 5.460258,-5.089388 7.827382,-6.259006 2.672076,-1.320298 3.223828,-0.965301 2.560854,1.647655 -1.250461,4.9284 -4.077373,9.133474 -8.995057,13.380285 -4.122539,3.560139 -9.21735,6.540512 -11.180041,6.540121 l -0.933506,-1.86e-4 v -4.89474 c 0,-2.692107 0.06602,-4.89468 0.14671,-4.894606 0.08069,7.4e-5 0.173057,-0.505881 0.205259,-1.124344 0.09129,-1.753279 0.779619,-6.59327 1.49572,-10.517187 C 16.041572,50.085309 15.5467,40.080172 12.784537,33.806251 l -0.579805,-1.316957 -0.578814,1.13457 c -0.716535,1.404525 -1.430945,3.71685 -2.0572608,6.658718 -0.7693811,3.613863 -0.6348139,11.568827 0.2886845,17.065625 0.3911753,2.328333 0.8748583,4.888176 1.0748513,5.688541 0.53108,2.125361 0.633156,3.572664 0.825732,11.707812 0.198757,8.396298 0.391347,7.826381 -2.2741292,6.729674 z M 8.4013166,77.654976 C 6.7270092,74.596402 5.2669887,72.522121 4.9335252,72.728212 4.7620938,72.834163 4.7173603,72.786924 4.824682,72.613274 5.0602223,72.232162 1.0522543,67.320528 -1.1647577,65.273411 -3.0104874,63.569125 -6.91621,61.084397 -7.5234084,61.22819 c -0.6031509,0.142834 1.1420997,4.110117 3.1680169,7.201498 2.7497325,4.195863 5.01009964,6.505559 8.8150438,9.007416 2.9412253,1.933938 3.1230051,1.941191 1.4595917,0.05824 -1.0881029,-1.23171 -1.6385198,-1.674895 -1.8559916,-1.49441 -0.2114787,0.175512 -0.3091556,0.136189 -0.3091556,-0.124459 0,-0.20957 0.099219,-0.319715 0.2204861,-0.244768 0.41693,0.257677 0.2194542,-0.151568 -0.4258758,-0.882576 C 3.1932081,74.346435 2.3748943,73.362112 1.7302319,72.561747 1.0855695,71.761383 0.42393237,71.136305 0.25992715,71.172685 0.09592193,71.209065 -0.00849853,71.128347 0.02788167,70.993311 0.06426188,70.858275 -0.56081621,70.000193 -1.3611808,69.086462 -2.1615453,68.172731 -2.9377979,67.184233 -3.0861866,66.8898 c -0.1483887,-0.294432 -0.5346363,-0.667368 -0.8583279,-0.828746 -0.643154,-0.320647 -0.5197261,-0.643056 0.2461811,-0.643056 0.2667882,0 0.4850694,0.18562 0.4850694,0.41249 0,0.226869 0.1130887,0.342597 0.2513083,0.257172 0.1382196,-0.08542 0.3896334,0.103146 0.5586974,0.419045 0.169064,0.315899 0.6215221,0.890883 1.0054625,1.277742 1.10589627,1.114304 3.4761982,3.772135 3.4761982,3.897879 0,0.27091 5.1256588,5.906504 5.372056,5.906504 0.1498135,0 0.1909196,0.08147 0.091347,0.181042 -0.1974012,0.197401 1.3748306,1.935625 1.7507822,1.935625 0.1271676,0 -0.2739043,-0.922734 -0.891271,-2.050521 z m -8.71721639,-4.976664 c -0.22435238,-0.270328 -0.22997685,-0.381148 -0.0193445,-0.381148 0.16333908,0 0.30119917,0.148828 0.30635576,0.330729 0.0051566,0.181901 0.1608209,0.05789 0.34592067,-0.275575 L 0.65357718,71.746014 1.160532,72.352318 c 0.2788251,0.333468 0.3374733,0.457476 0.1303293,0.275575 C 0.85714428,72.24703 0.3890304,72.182862 0.60605958,72.534023 0.86022466,72.945271 0.01538835,73.07749 -0.31589979,72.678312 Z M 3.9304856,72.429456 C 4.2991791,71.985207 3.9462326,71.887167 3.4542357,72.297164 3.2233266,72.489588 3.2088948,72.475156 3.4013187,72.244244 3.7905725,71.77714 3.7232856,71.424776 3.2775003,71.59584 3.0638794,71.67781 2.8187277,71.63102 2.7327188,71.491856 c -0.2593477,-0.419634 0.7248764,-0.284113 1.2252356,0.168706 0.4685807,0.42406 0.4124814,1.165766 -0.088173,1.165766 -0.1548617,0 -0.1291471,-0.168118 0.060704,-0.396875 z m 14.4668614,4.417715 c 1.42932,-1.57208 3.412364,-3.804502 4.406765,-4.960938 1.85827,-2.161069 4.536338,-5.194065 5.156209,-5.839567 0.192295,-0.200247 0.251826,-0.369465 0.132291,-0.376041 -0.265147,-0.01459 2.070459,-1.282182 2.393479,-1.299005 0.126261,-0.0066 -0.259685,0.477294 -0.857657,1.075266 -0.597972,0.597972 -1.019848,1.196234 -0.937502,1.329472 0.08235,0.133238 0.05157,0.212761 -0.06838,0.176719 -0.119958,-0.03604 -0.694354,0.379513 -1.276438,0.923456 -0.874997,0.817666 -0.989582,1.033433 -0.661458,1.24555 0.339181,0.219265 0.329565,0.257151 -0.06615,0.260613 -0.430149,0.0038 -1.521354,0.8734 -1.521354,1.212444 0,0.08253 -0.387918,0.529017 -0.86204,0.992187 -0.474121,0.463171 -1.099199,1.184823 -1.389062,1.603671 -0.732001,1.057733 -2.900563,3.486875 -4.488182,5.027491 l -1.330507,1.291117 2.116667,-1.396355 c 6.750844,-4.453501 10.953967,-9.429634 12.969053,-15.354232 0.344005,-1.011416 0.56144,-1.838938 0.483188,-1.838938 -0.07825,0 -1.112955,0.498874 -2.299341,1.108608 -1.654343,0.850236 -2.716268,1.667278 -4.55646,3.505729 -1.319666,1.318417 -2.777245,2.932903 -3.239065,3.587746 -1.502336,2.130257 -6.021772,8.977445 -6.767155,10.252604 -0.477829,0.817442 0.249182,0.127423 2.6631,-2.527597 z m 9.142587,-12.69394 c 0.163241,-0.196694 0.662661,-0.53887 1.109822,-0.760393 l 0.81302,-0.402768 -0.722906,0.645399 c -0.397598,0.354969 -0.671158,0.697145 -0.607912,0.760392 0.06325,0.06325 -0.110865,0.114994 -0.386916,0.114994 -0.39166,0 -0.436715,-0.07856 -0.205108,-0.357624 z m -12.581518,11.05435 c 0.08648,-0.218282 0.208113,-0.861052 0.270298,-1.42838 0.143274,-1.307098 2.14194,-7.336716 3.69194,-11.13792 1.844917,-4.524455 4.641648,-10.187866 5.031018,-10.187866 0.480328,0 0.494281,-0.04587 -0.78186,2.570596 -1.626736,3.335291 -2.326123,5.120281 -2.130333,5.437077 0.09388,0.151894 0.04704,0.199757 -0.104074,0.106361 -0.151864,-0.09386 -0.418778,0.213301 -0.596749,0.686724 -0.177095,0.471093 -0.428072,1.094658 -0.557725,1.3857 -0.605525,1.359262 -2.98191,8.34667 -3.239408,9.524999 -0.159002,0.727605 -0.358585,1.382448 -0.443519,1.455209 -0.2627,0.225048 -1.148675,3.434121 -0.9915,3.591296 0.08158,0.08158 0.293918,-0.306136 0.471865,-0.86159 0.29662,-0.925886 2.787193,-5.848467 3.589873,-7.095331 0.629718,-0.978189 4.790333,-10.03778 5.346433,-11.641666 1.288047,-3.714947 2.710101,-10.263694 2.314628,-10.659167 -0.217123,-0.217123 -4.406977,4.135408 -5.391463,5.600795 -1.778131,2.646709 -3.953984,7.711909 -4.67337,10.879205 -0.0661,0.291042 -0.536712,2.169556 -1.045795,4.174476 -0.921837,3.630469 -1.490973,7.140559 -1.445578,8.915457 l 0.02386,0.932983 0.252111,-0.926042 c 0.138661,-0.509323 0.322866,-1.104635 0.409345,-1.322916 z M 9.3424135,75.802893 C 9.1136099,75.25719 8.4547446,73.381956 7.8782683,71.635706 7.3017921,69.889456 6.7286304,68.278204 6.6045758,68.055146 6.4805211,67.832089 6.2918057,67.252494 6.1852081,66.767159 6.0786105,66.281823 5.6356331,65.035575 5.2008139,63.997718 4.7659947,62.959862 3.9011852,60.86055 3.2790151,59.332581 2.656845,57.804613 1.656185,55.601957 1.0553261,54.43779 -0.17858155,52.047089 -0.37792268,51.10492 0.60748853,52.321123 c 0.81789517,1.009454 2.60597467,4.634041 3.71993787,7.540625 0.4740586,1.236927 1.3017176,3.199142 1.8392423,4.360477 0.5375246,1.161336 1.1472788,2.764044 1.3550092,3.561575 0.5586716,2.144885 1.8030472,5.690808 2.0328518,5.792733 0.1100473,0.04881 0.1368129,0.191122 0.059479,0.316251 -0.077334,0.125128 0.040515,0.620975 0.2618867,1.101881 0.4017506,0.872761 0.4022186,0.871445 0.2535236,-0.713126 C 10.047486,73.408414 9.876253,72.27732 9.7489016,71.767997 9.6215501,71.258675 9.4427254,70.306175 9.3515131,69.651331 8.6484433,64.603752 5.6993353,56.31264 3.3097327,52.665492 1.9914301,50.653423 -0.19843485,48.388905 -0.59115691,48.631621 c -0.19783984,0.122271 -0.25443742,0.08907 -0.14633494,-0.08584 0.18872092,-0.305356 -1.34563395,-1.544028 -1.59889125,-1.29077 -0.3105126,0.310512 0.5540593,4.621712 1.38738214,6.9182 2.76162786,7.61055 3.49869316,9.411974 5.52106136,13.493749 1.225703,2.473854 2.5121124,4.91556 2.8586874,5.426013 0.3465751,0.510452 0.9211874,1.547369 1.2769162,2.304258 0.7388545,1.572072 1.2647124,1.908145 0.6347495,0.405666 z"
         id="path18907" />
      <path
         style="fill:#988d71;stroke-width:1.58845"
         d="m 11.866399,61.515394 c -0.04479,-20.546471 -0.02191,-22.491072 0.259053,-22.011002 0.17699,0.30242 0.43122,19.91875 0.290409,22.407877 -0.03807,0.672999 -0.547932,0.304728 -0.549462,-0.396875 z"
         id="path18826" />
      <path
         style="fill:#988d71;stroke-width:1.58845"
         d="m 12.202941,64.293325 c 0.09411,-0.245234 0.05724,-0.516252 -0.08193,-0.60226 -0.345455,-0.213503 -0.321371,-1.183484 0.02938,-1.183484 0.15838,0 0.211388,0.223781 0.120695,0.50953 -0.0979,0.308465 -0.01131,0.595583 0.219448,0.727604 0.327178,0.187186 0.321687,0.273061 -0.03877,0.606282 -0.371997,0.343893 -0.400402,0.33731 -0.248833,-0.05767 z"
         id="path18825" />
      <path
         style="fill:#988d71;stroke-width:1.58845"
         d="M 9.4837958,81.474234 C 4.8273233,79.558335 -1.266334,74.738781 -4.4610385,70.445081 c -2.00346,-2.692661 -4.5730585,-8.194869 -4.5730585,-9.79216 0,-1.034607 1.18892,-0.944078 3.6559383,0.278378 1.9873228,0.984757 2.7202861,1.564005 5.48293109,4.33306 1.75392051,1.757991 3.57808991,3.672597 4.05370981,4.25468 0.8632507,1.056482 0.8638559,1.056713 0.3459855,0.132292 -2.2989369,-4.103704 -4.75030374,-9.841642 -6.6125783,-15.478124 -0.5447786,-1.648863 -1.3697367,-6.042072 -1.3697367,-7.294358 0,-0.406737 0.1789517,-0.787489 0.4121801,-0.876987 1.1368819,-0.436263 5.2829268,3.093131 7.3591089,6.26457 1.916225,2.927099 4.4605365,9.446739 5.3483939,13.704927 0.2234203,1.071529 0.4585154,2.000532 0.5224344,2.064451 0.258644,0.258644 0.08125,-1.358485 -0.5483701,-4.999062 -1.554266,-8.986995 -2.113027,-16.972204 -1.4745961,-21.073332 0.8212965,-5.275815 2.7398082,-10.46067 3.9333352,-10.629999 0.519617,-0.07372 0.731407,0.191152 1.523288,1.905073 1.231343,2.665082 2.145419,6.672207 2.512168,11.012842 0.353095,4.179029 -0.05779,10.590586 -1.161464,18.123958 -0.809122,5.522822 -0.969376,7.123222 -0.684517,6.83603 0.120806,-0.121796 0.407541,-1.133146 0.63719,-2.247444 0.813212,-3.945856 2.258286,-8.721032 3.299131,-10.901815 2.025627,-4.244103 4.821432,-7.834658 7.348276,-9.437136 1.536068,-0.974145 2.13027,-1.000932 2.354844,-0.106159 0.29719,1.184098 -0.686015,6.166614 -2.058668,10.432566 -0.657173,2.042368 -5.24368,12.287344 -6.132631,13.698583 -0.815634,1.294844 -1.625714,2.909171 -1.291295,2.573291 0.144888,-0.145521 0.913114,-1.276615 1.707169,-2.513542 0.794055,-1.236927 2.079749,-3.006398 2.857098,-3.932158 1.848256,-2.201125 5.460258,-5.089388 7.827382,-6.259006 2.672076,-1.320298 3.223828,-0.965301 2.560854,1.647655 -1.250461,4.9284 -4.077373,9.133474 -8.995057,13.380285 -4.122539,3.560139 -9.21735,6.540512 -11.180041,6.540121 l -0.933506,-1.86e-4 v -4.89474 c 0,-2.692107 0.06602,-4.89468 0.14671,-4.894606 0.08069,7.4e-5 0.173057,-0.505881 0.205259,-1.124344 0.09129,-1.753279 0.779619,-6.59327 1.49572,-10.517187 C 16.041572,50.085309 15.5467,40.080172 12.784537,33.806251 l -0.579805,-1.316957 -0.578814,1.13457 c -0.716535,1.404525 -1.430945,3.71685 -2.0572608,6.658718 -0.7693811,3.613863 -0.6348139,11.568827 0.2886845,17.065625 0.3911753,2.328333 0.8748583,4.888176 1.0748513,5.688541 0.53108,2.125361 0.633156,3.572664 0.825732,11.707812 0.198757,8.396298 0.391347,7.826381 -2.2741292,6.729674 z M 8.4013166,77.654976 C 6.7270092,74.596402 5.2669887,72.522121 4.9335252,72.728212 4.7620938,72.834163 4.7173603,72.786924 4.824682,72.613274 5.0602223,72.232162 1.0522543,67.320528 -1.1647577,65.273411 -3.0104874,63.569125 -6.91621,61.084397 -7.5234084,61.22819 c -0.6031509,0.142834 1.1420997,4.110117 3.1680169,7.201498 2.7497325,4.195863 5.01009964,6.505559 8.8150438,9.007416 2.9412253,1.933938 3.1230051,1.941191 1.4595917,0.05824 -1.0881029,-1.23171 -1.6385198,-1.674895 -1.8559916,-1.49441 -0.2114787,0.175512 -0.3091556,0.136189 -0.3091556,-0.124459 0,-0.20957 0.099219,-0.319715 0.2204861,-0.244768 0.41693,0.257677 0.2194542,-0.151568 -0.4258758,-0.882576 C 3.1932081,74.346435 2.3748943,73.362112 1.7302319,72.561747 1.0855695,71.761383 0.42393237,71.136305 0.25992715,71.172685 0.09592193,71.209065 -0.00849853,71.128347 0.02788167,70.993311 0.06426188,70.858275 -0.56081621,70.000193 -1.3611808,69.086462 -2.1615453,68.172731 -2.9377979,67.184233 -3.0861866,66.8898 c -0.1483887,-0.294432 -0.5346363,-0.667368 -0.8583279,-0.828746 -0.643154,-0.320647 -0.5197261,-0.643056 0.2461811,-0.643056 0.2667882,0 0.4850694,0.18562 0.4850694,0.41249 0,0.226869 0.1130887,0.342597 0.2513083,0.257172 0.1382196,-0.08542 0.3896334,0.103146 0.5586974,0.419045 0.169064,0.315899 0.6215221,0.890883 1.0054625,1.277742 1.10589627,1.114304 3.4761982,3.772135 3.4761982,3.897879 0,0.27091 5.1256588,5.906504 5.372056,5.906504 0.1498135,0 0.1909196,0.08147 0.091347,0.181042 -0.1974012,0.197401 1.3748306,1.935625 1.7507822,1.935625 0.1271676,0 -0.2739043,-0.922734 -0.891271,-2.050521 z m -8.71721639,-4.976664 c -0.22435238,-0.270328 -0.22997685,-0.381148 -0.0193445,-0.381148 0.16333908,0 0.30119917,0.148828 0.30635576,0.330729 0.0051566,0.181901 0.1608209,0.05789 0.34592067,-0.275575 L 0.65357718,71.746014 1.160532,72.352318 c 0.2788251,0.333468 0.3374733,0.457476 0.1303293,0.275575 C 0.85714428,72.24703 0.3890304,72.182862 0.60605958,72.534023 0.86022466,72.945271 0.01538835,73.07749 -0.31589979,72.678312 Z M 3.9304856,72.429456 C 4.2991791,71.985207 3.9462326,71.887167 3.4542357,72.297164 3.2233266,72.489588 3.2088948,72.475156 3.4013187,72.244244 3.7905725,71.77714 3.7232856,71.424776 3.2775003,71.59584 3.0638794,71.67781 2.8187277,71.63102 2.7327188,71.491856 c -0.2593477,-0.419634 0.7248764,-0.284113 1.2252356,0.168706 0.4685807,0.42406 0.4124814,1.165766 -0.088173,1.165766 -0.1548617,0 -0.1291471,-0.168118 0.060704,-0.396875 z m 14.4668614,4.417715 c 1.42932,-1.57208 3.412364,-3.804502 4.406765,-4.960938 1.85827,-2.161069 4.536338,-5.194065 5.156209,-5.839567 0.192295,-0.200247 0.251826,-0.369465 0.132291,-0.376041 -0.265147,-0.01459 2.070459,-1.282182 2.393479,-1.299005 0.126261,-0.0066 -0.259685,0.477294 -0.857657,1.075266 -0.597972,0.597972 -1.019848,1.196234 -0.937502,1.329472 0.08235,0.133238 0.05157,0.212761 -0.06838,0.176719 -0.119958,-0.03604 -0.694354,0.379513 -1.276438,0.923456 -0.874997,0.817666 -0.989582,1.033433 -0.661458,1.24555 0.339181,0.219265 0.329565,0.257151 -0.06615,0.260613 -0.430149,0.0038 -1.521354,0.8734 -1.521354,1.212444 0,0.08253 -0.387918,0.529017 -0.86204,0.992187 -0.474121,0.463171 -1.099199,1.184823 -1.389062,1.603671 -0.732001,1.057733 -2.900563,3.486875 -4.488182,5.027491 l -1.330507,1.291117 2.116667,-1.396355 c 6.750844,-4.453501 10.953967,-9.429634 12.969053,-15.354232 0.344005,-1.011416 0.56144,-1.838938 0.483188,-1.838938 -0.07825,0 -1.112955,0.498874 -2.299341,1.108608 -1.654343,0.850236 -2.716268,1.667278 -4.55646,3.505729 -1.319666,1.318417 -2.777245,2.932903 -3.239065,3.587746 -1.502336,2.130257 -6.021772,8.977445 -6.767155,10.252604 -0.477829,0.817442 0.249182,0.127423 2.6631,-2.527597 z m 9.142587,-12.69394 c 0.163241,-0.196694 0.662661,-0.53887 1.109822,-0.760393 l 0.81302,-0.402768 -0.722906,0.645399 c -0.397598,0.354969 -0.671158,0.697145 -0.607912,0.760392 0.06325,0.06325 -0.110865,0.114994 -0.386916,0.114994 -0.39166,0 -0.436715,-0.07856 -0.205108,-0.357624 z m -12.581518,11.05435 c 0.08648,-0.218282 0.208113,-0.861052 0.270298,-1.42838 0.143274,-1.307098 2.14194,-7.336716 3.69194,-11.13792 1.844917,-4.524455 4.641648,-10.187866 5.031018,-10.187866 0.480328,0 0.494281,-0.04587 -0.78186,2.570596 -1.626736,3.335291 -2.326123,5.120281 -2.130333,5.437077 0.09388,0.151894 0.04704,0.199757 -0.104074,0.106361 -0.151864,-0.09386 -0.418778,0.213301 -0.596749,0.686724 -0.177095,0.471093 -0.428072,1.094658 -0.557725,1.3857 -0.605525,1.359262 -2.98191,8.34667 -3.239408,9.524999 -0.159002,0.727605 -0.358585,1.382448 -0.443519,1.455209 -0.2627,0.225048 -1.148675,3.434121 -0.9915,3.591296 0.08158,0.08158 0.293918,-0.306136 0.471865,-0.86159 0.29662,-0.925886 2.787193,-5.848467 3.589873,-7.095331 0.629718,-0.978189 4.790333,-10.03778 5.346433,-11.641666 1.288047,-3.714947 2.710101,-10.263694 2.314628,-10.659167 -0.217123,-0.217123 -4.406977,4.135408 -5.391463,5.600795 -1.778131,2.646709 -3.953984,7.711909 -4.67337,10.879205 -0.0661,0.291042 -0.536712,2.169556 -1.045795,4.174476 -0.921837,3.630469 -1.490973,7.140559 -1.445578,8.915457 l 0.02386,0.932983 0.252111,-0.926042 c 0.138661,-0.509323 0.322866,-1.104635 0.409345,-1.322916 z M 9.3424135,75.802893 C 9.1136099,75.25719 8.4547446,73.381956 7.8782683,71.635706 7.3017921,69.889456 6.7286304,68.278204 6.6045758,68.055146 6.4805211,67.832089 6.2918057,67.252494 6.1852081,66.767159 6.0786105,66.281823 5.6356331,65.035575 5.2008139,63.997718 4.7659947,62.959862 3.9011852,60.86055 3.2790151,59.332581 2.656845,57.804613 1.656185,55.601957 1.0553261,54.43779 -0.17858155,52.047089 -0.37792268,51.10492 0.60748853,52.321123 c 0.81789517,1.009454 2.60597467,4.634041 3.71993787,7.540625 0.4740586,1.236927 1.3017176,3.199142 1.8392423,4.360477 0.5375246,1.161336 1.1472788,2.764044 1.3550092,3.561575 0.5586716,2.144885 1.8030472,5.690808 2.0328518,5.792733 0.1100473,0.04881 0.1368129,0.191122 0.059479,0.316251 -0.077334,0.125128 0.040515,0.620975 0.2618867,1.101881 0.4017506,0.872761 0.4022186,0.871445 0.2535236,-0.713126 C 10.047486,73.408414 9.876253,72.27732 9.7489016,71.767997 9.6215501,71.258675 9.4427254,70.306175 9.3515131,69.651331 8.6484433,64.603752 5.6993353,56.31264 3.3097327,52.665492 1.9914301,50.653423 -0.19843485,48.388905 -0.59115691,48.631621 c -0.19783984,0.122271 -0.25443742,0.08907 -0.14633494,-0.08584 0.18872092,-0.305356 -1.34563395,-1.544028 -1.59889125,-1.29077 -0.3105126,0.310512 0.5540593,4.621712 1.38738214,6.9182 2.76162786,7.61055 3.49869316,9.411974 5.52106136,13.493749 1.225703,2.473854 2.5121124,4.91556 2.8586874,5.426013 0.3465751,0.510452 0.9211874,1.547369 1.2769162,2.304258 0.7388545,1.572072 1.2647124,1.908145 0.6347495,0.405666 z"
         id="path18821" />
      <path
         style="fill:#8b785e;stroke-width:1.58845"
         d="m 11.874077,51.527373 c -0.01078,-6.932776 0.07453,-10.451041 0.253415,-10.451041 0.178607,0 0.26966,3.528892 0.26966,10.451041 0,6.483889 -0.09619,10.451042 -0.253414,10.451042 -0.156946,0 -0.259599,-3.978462 -0.269661,-10.451042 z"
         id="path18740" />
      <path
         style="fill:#8b785e;stroke-width:1.58845"
         d="M 9.8836103,81.609594 C 8.2417087,81.038829 4.5222552,78.803952 1.7986342,76.751642 c -4.9363644,-3.719663 -9.1802858,-9.77207 -10.6159185,-15.13974 -0.3927207,-1.468338 -0.087347,-1.859207 1.2383955,-1.585104 2.7937997,0.57763 7.28448957,4.213229 11.5685,9.365694 0.8996235,1.081995 0.8266001,0.874729 -0.8409777,-2.386994 -1.9685036,-3.850324 -2.87705961,-6.016812 -4.5355917,-10.8153 -1.6877826,-4.883116 -2.4738853,-9.439547 -1.734443,-10.05323 0.9739939,-0.808343 4.8340175,2.365731 7.1594117,5.88714 2.240228,3.39244 4.6734238,9.437499 5.5954858,13.901486 0.226145,1.094839 0.4642317,2.043674 0.5290807,2.108523 0.33858,0.33858 -0.04444,-2.694338 -0.948537,-7.510911 C 8.1699852,54.961003 7.6529237,46.348683 8.1338667,42.531541 8.6579584,38.371937 10.488046,32.367203 11.48348,31.541067 c 1.010868,-0.838946 2.266082,1.228426 3.543088,5.835563 0.681421,2.458406 1.374802,8.863778 1.221438,11.283497 -0.06306,0.994902 -0.191551,3.178132 -0.285541,4.851621 -0.09399,1.67349 -0.397508,4.53099 -0.674487,6.35 -1.110954,7.29601 -1.361408,9.592126 -1.023501,9.383288 0.117557,-0.07265 0.350045,-0.814632 0.516639,-1.648839 0.644785,-3.228706 2.136092,-8.525457 2.928377,-10.400865 1.870804,-4.428354 5.192596,-8.887957 7.902479,-10.609311 1.48045,-0.940402 2.06897,-0.954216 2.294943,-0.05387 0.31181,1.242352 -1.267975,8.501799 -2.56775,11.799356 -1.547075,3.924961 -4.49875,10.261885 -6.16615,13.238052 -0.550315,0.982265 -0.942711,1.785937 -0.871991,1.785937 0.07072,0 0.716235,-0.922734 1.434477,-2.05052 2.113695,-3.318931 4.359314,-5.947634 6.63003,-7.761057 2.831117,-2.260968 4.820719,-3.432948 6.124869,-3.607871 l 1.073417,-0.143976 v 0.914537 c 0,1.090737 -0.934892,3.907568 -2.100732,6.329509 -1.954728,4.060791 -7.078467,9.173161 -12.567027,12.539143 -2.460531,1.508975 -4.741471,2.496372 -5.787155,2.505205 l -0.743458,0.0063 0.05452,-4.431771 c 0.05605,-4.55596 0.672185,-11.177158 1.409545,-15.147395 0.229724,-1.236927 0.598823,-3.260989 0.820218,-4.497916 0.590113,-3.296942 0.799356,-10.873077 0.405561,-14.684374 -0.369615,-3.577283 -1.22496,-7.23053 -2.199142,-9.392708 l -0.655652,-1.455209 -0.813496,1.69071 c -1.8094718,3.760657 -2.731604,10.000663 -2.3694703,16.03403 0.2025874,3.375229 1.2220873,10.338765 1.9177943,13.099198 0.455476,1.807242 0.614034,4.208067 0.816905,12.36927 0.17844,7.178367 0.328123,6.702633 -1.8686177,5.938993 z M 9.4385396,79.248728 C 9.2151797,78.990628 8.5829117,77.946018 8.0334995,76.927372 6.7597806,74.565815 6.4049368,74.050464 3.8433943,70.841956 0.78031813,67.005242 -1.7377938,64.51754 -4.0915339,63.002856 -5.99339,61.778969 -7.9757637,60.765622 -7.9757637,61.017321 c 0,0.257245 1.3862496,3.752151 1.8448296,4.651042 0.8346793,1.636106 3.3854223,5.333276 4.7754141,6.921714 1.6561224,1.892565 4.2900215,4.030602 7.0928998,5.75758 1.212073,0.746812 2.2360508,1.35784 2.2755063,1.35784 0.039456,0 -0.4759907,-0.576582 -1.1454358,-1.281293 C 5.7367982,77.233991 4.7042735,76.022526 0.65374827,71.133649 -0.20257192,70.100093 -1.1045512,69.073584 -1.3506501,68.852518 c -0.6954392,-0.6247 -1.5522946,-2.009354 -1.0688639,-1.727255 0.7744783,0.451937 2.80315602,2.664691 7.2760413,7.936247 0.7276041,0.857524 1.7120603,1.985335 2.1876804,2.506248 0.4756202,0.520913 1.1899951,1.322319 1.5875,1.780902 0.4261106,0.491585 0.8233309,0.738479 0.9678384,0.601565 0.1486671,-0.140856 0.085319,-0.416859 -0.1610065,-0.701497 z m 7.6610964,-0.73959 c 0.105769,-0.183544 1.094393,-1.328903 2.196941,-2.545241 2.58305,-2.849636 3.705623,-4.114261 4.644492,-5.232211 0.998479,-1.188931 3.764423,-4.260591 4.377172,-4.860974 0.369722,-0.362261 0.483077,-0.38551 0.483077,-0.09908 0,0.205836 -0.787768,1.252271 -1.750595,2.325411 -0.962826,1.07314 -2.464289,2.844133 -3.336583,3.935539 -2.540105,3.178155 -5.315233,6.266233 -5.959176,6.631189 -0.327422,0.185568 -0.595312,0.439997 -0.595312,0.5654 0,0.299147 2.527007,-1.325367 5.0573,-3.25114 2.822383,-2.148079 6.635793,-6.317415 7.842509,-8.574491 0.850584,-1.590958 2.128744,-4.547947 2.588159,-5.987638 0.08917,-0.279434 -0.05091,-0.479436 -0.399665,-0.570638 -0.295323,-0.07723 -0.469709,-0.03162 -0.387524,0.101362 0.08218,0.132977 -0.06648,0.323257 -0.330364,0.422843 -1.100341,0.415253 -3.750556,2.108573 -5.064518,3.235907 -1.689729,1.449731 -4.510082,5.078038 -7.315799,9.411581 -1.130596,1.74625 -2.130182,3.234864 -2.221301,3.308032 -0.09112,0.07317 -0.441806,0.646861 -0.779304,1.274873 l -0.613631,1.141841 0.685907,-0.449424 c 0.377249,-0.247183 0.772445,-0.599596 0.878215,-0.783141 z m -2.343659,-1.978641 0.283584,-0.926041 -0.105411,1.124538 c -0.05913,0.630851 -3.04e-4,1.05958 0.134004,0.976573 0.131678,-0.08138 0.239414,-0.298909 0.239414,-0.483395 0,-0.184486 1.726799,-3.7791 3.837331,-7.988031 2.110532,-4.208931 4.210539,-8.54557 4.666682,-9.636976 0.794912,-1.901975 2.235319,-6.55186 2.458819,-7.9375 0.05868,-0.363802 0.247493,-1.532436 0.419583,-2.596965 0.17209,-1.064528 0.25977,-1.988627 0.194845,-2.053552 -0.222076,-0.222077 -2.256405,1.606403 -3.70499,3.330092 -3.566583,4.243918 -5.225453,7.971906 -7.298374,16.401674 -1.229762,5.000969 -1.363849,5.68724 -1.514497,7.751345 -0.07651,1.04827 -0.19606,2.259413 -0.265671,2.691428 -0.16492,1.023511 0.275911,0.583683 0.654681,-0.65319 z m 0.708307,-2.910416 c 0.434595,-3.444652 4.412889,-13.902598 7.29711,-19.182291 1.288975,-2.359524 1.262857,-1.11708 -0.02927,1.392566 -0.591004,1.147881 -1.074553,2.161998 -1.074553,2.253594 0,0.0916 -0.344289,0.916025 -0.765087,1.832064 -0.868156,1.889895 -1.295861,3.011844 -3.206946,8.4124 -0.74668,2.110052 -1.374394,4.044818 -1.394921,4.299479 -0.02053,0.254662 -0.131047,0.463021 -0.2456,0.463021 -0.114554,0 -0.210102,0.208359 -0.21233,0.463021 -0.0022,0.254661 -0.119829,0.641614 -0.261333,0.859896 -0.177339,0.273557 -0.210607,0.02692 -0.107067,-0.79375 z M 9.6036536,76.33206 C 9.4912997,76.077398 8.6529342,73.666383 7.7406192,70.974247 6.1346716,66.235283 5.7240941,65.080227 5.2483185,63.962789 5.1244005,63.671748 4.7686058,62.83831 4.4576634,62.110706 4.146721,61.383102 3.4918661,59.768217 3.0024302,58.522072 2.5129943,57.275927 1.6887268,55.430458 1.1707247,54.42103 0.1351694,52.403049 0.01190175,51.946087 0.64478444,52.471333 1.2070908,52.938006 2.2697518,55.083831 3.912417,59.069645 c 0.7492919,1.818104 1.720403,4.101356 2.1580247,5.073891 0.8434919,1.874509 3.1372666,8.795188 3.1463375,9.492994 0.0051,0.391988 0.9878028,2.629384 1.1548758,2.629384 0.293161,0 -0.882667,-6.840381 -1.8192233,-10.583333 -1.4076421,-5.625649 -3.7804829,-11.1762 -6.0927782,-14.252233 -1.1986859,-1.594605 -4.098022,-4.268599 -4.6283204,-4.268599 -0.3607815,0 -0.3092799,1.275125 0.1372346,3.397781 0.342843,1.629819 1.48452259,4.979579 3.7565683,11.02201 0.8185732,2.176968 5.0169092,10.696749 5.9355625,12.045175 0.3494766,0.512972 0.8618538,1.435706 1.1386161,2.050521 0.2767624,0.614814 0.6169226,1.117844 0.7559116,1.117844 0.1421057,0 0.1633008,-0.202648 0.048427,-0.46302 z"
         id="path18736" />
      <path
         style="fill:#5b5b54;stroke-width:1.58845"
         d="m 11.874354,50.998207 c -0.01153,-6.584247 0.07348,-9.921875 0.252714,-9.921875 0.178921,0 0.270084,3.348971 0.270084,9.921875 0,6.127536 -0.09664,9.921874 -0.252715,9.921874 -0.155762,0 -0.259378,-3.806462 -0.270083,-9.921874 z"
         id="path18655" />
      <path
         style="fill:#5b5b54;stroke-width:1.58845"
         d="M 9.619027,81.462758 C 7.0735472,80.506431 1.6515786,77.00706 1.954896,76.516282 2.037941,76.381913 1.922592,76.342312 1.6985667,76.428282 1.0610265,76.672929 -3.3759576,72.041566 -5.2752738,69.148925 -6.752689,66.898836 -9.034097,61.844151 -9.034097,60.82088 c 0,-0.613848 0.762484,-0.910453 1.7613664,-0.685168 2.4550551,0.553705 7.5003223,4.696418 11.2665214,9.25104 C 4.907216,70.491391 4.8555369,70.338534 3.2781697,67.270081 0.32562118,61.526487 -2.3886675,53.990737 -3.0880288,49.595438 -3.501412,46.997435 -3.5140147,46.555357 -3.1841,46.225442 c 0.3299147,-0.329915 0.5177725,-0.311369 1.4320526,0.141377 1.54146395,0.763322 3.5865961,2.650223 5.1321863,4.735109 2.4237788,3.269498 5.3543654,10.311192 6.2590027,15.039304 0.2126375,1.111356 0.4439274,2.077961 0.5139784,2.148012 0.306886,0.306886 0.06254,-2.230531 -0.5440263,-5.649371 C 8.1156391,54.222143 7.6017973,47.160011 8.1514688,42.606592 8.717143,37.920609 10.941017,31.28675 11.946228,31.28675 c 1.436061,0 3.362747,5.591885 3.986287,11.569532 0.382889,3.670615 0.198064,11.401852 -0.352772,14.756508 -0.360476,2.195333 -1.263633,8.66173 -1.478168,10.583333 -0.248778,2.228323 0.23589,1.587969 0.801025,-1.058334 1.481655,-6.937995 3.467563,-12.206125 5.869928,-15.571486 2.068521,-2.897694 5.274077,-5.727471 6.488049,-5.727471 0.291308,0 0.540355,0.271049 0.649832,0.707241 0.23507,0.936593 -0.971058,6.934063 -2.039352,10.140675 -1.025135,3.077064 -3.934736,9.598135 -6.227296,13.95677 -0.93763,1.78263 -1.662786,3.241146 -1.611458,3.241146 0.05133,0 0.671035,-0.922734 1.377128,-2.050521 1.774043,-2.833539 4.583421,-6.336035 6.12445,-7.635451 1.850479,-1.560346 5.091917,-3.691489 6.210666,-4.083315 2.032748,-0.711942 2.295972,0.259769 1.02055,3.767437 -1.052539,2.894697 -2.443084,5.366972 -4.228363,7.517683 -3.903585,4.702619 -12.58582,10.68625 -15.505723,10.68625 h -0.622527 l 0.136149,-5.488011 c 0.139169,-5.609711 0.768074,-11.591928 1.699448,-16.165329 0.712879,-3.500507 1.08426,-7.581241 1.082531,-11.89483 -0.0014,-3.61166 -0.555626,-8.919871 -1.105449,-10.588578 -0.158998,-0.482556 -0.22883,-1.107799 -0.155182,-1.389428 0.08364,-0.319834 0.0282,-0.446723 -0.147682,-0.338022 -0.182152,0.112577 -0.226484,-0.03668 -0.125543,-0.422681 0.08582,-0.32819 0.08815,-0.528813 0.0052,-0.445828 -0.08299,0.08299 -0.470536,-0.528565 -0.861224,-1.359002 l -0.710341,-1.509885 -0.443696,0.677166 c -0.624401,0.952957 -1.649429,4.070038 -2.1574168,6.560644 -1.2505768,6.131436 -0.9023125,12.944027 1.1925588,23.328295 0.599971,2.974055 0.736662,4.933251 0.908127,13.016218 0.09847,4.64179 0.05365,6.016116 -0.195855,6.005485 -0.177948,-0.0076 -1.037917,-0.282174 -1.911042,-0.610203 z m 1.453569,-0.07514 C 10.853412,81.327901 10.436694,80.873378 10.146554,80.377566 9.8564141,79.881754 9.1513666,78.664504 8.5797817,77.672565 7.1428618,75.178907 6.1969523,73.780709 4.5500209,71.715966 3.1001239,69.898243 2.7833061,69.309359 3.5997565,69.949663 4.0187588,70.278267 4.0284854,70.269048 3.702069,69.852682 3.5036795,69.599622 3.2591295,69.443396 3.1586245,69.505511 2.960256,69.62811 -0.03826416,66.380223 -0.03826416,66.042759 c 0,-0.113174 0.56554685,0.324717 1.25677076,0.973092 1.1279282,1.058008 1.1097486,1.024222 -0.1773305,-0.329566 -0.78875565,-0.829636 -1.52281497,-1.453601 -1.63124289,-1.386589 -0.24212768,0.149643 -1.90605981,-1.216197 -1.71472411,-1.407532 0.07539,-0.07539 0.3185434,0.01353 0.5403413,0.197611 0.2217978,0.184076 0.4032688,0.268681 0.4032688,0.188011 0,-0.08067 -0.3869531,-0.418018 -0.8598957,-0.749663 -0.5702095,-0.399853 -0.737564,-0.45049 -0.4967699,-0.150309 0.5420506,0.675736 0.1668588,0.554094 -1.4180265,-0.459745 -1.8047123,-1.154461 -3.5916126,-2.069877 -3.7436461,-1.917844 -0.1495559,0.149556 0.9832862,3.167618 1.7641875,4.700061 1.134773,2.226881 3.7920141,5.941764 5.65913792,7.911602 1.03022572,1.086901 1.66477828,1.816463 1.41011687,1.621249 -0.6588743,-0.505067 -0.57448164,-0.205334 0.11162621,0.396457 0.3160558,0.277216 0.4876229,0.3552 0.38126,0.173299 -0.1063628,-0.181901 -0.085751,-0.330729 0.045804,-0.330729 0.3381054,0 1.1471617,0.937932 0.9656379,1.119456 -0.08276,0.08276 -0.00509,0.240322 0.1725948,0.350138 0.2064448,0.12759 0.2549176,0.0894 0.1342798,-0.105797 -0.1038329,-0.168005 -0.1203973,-0.305464 -0.03681,-0.305464 0.160625,0 2.4388334,1.428536 4.2881311,2.688845 1.4571057,0.993027 1.6564355,0.948807 0.5747732,-0.12751 C 6.5362986,78.042123 3.5862459,74.663561 2.4752774,73.232774 2.0387149,72.670536 0.92085876,71.333733 -0.00884738,70.262101 -0.93855352,69.190468 -1.6271316,68.241587 -1.5390209,68.153477 c 0.1854965,-0.185497 1.50083867,1.115115 2.8285804,2.796904 0.506624,0.641716 1.7921069,2.158562 2.8566287,3.370767 1.1503036,1.309888 1.8582376,2.329013 1.745057,2.512143 -0.1073862,0.173754 -0.076058,0.237443 0.071837,0.146039 0.2734745,-0.169016 3.2590701,2.823485 3.2590701,3.266609 0,0.139319 0.2083594,0.262708 0.4630208,0.274196 0.3369939,0.0152 0.3620999,0.06085 0.092237,0.167692 -0.2712881,0.10741 -0.20029,0.241286 0.2645829,0.498903 0.349452,0.193654 0.813961,0.342507 1.032242,0.330783 0.350672,-0.01883 0.350481,-0.03396 -0.0016,-0.129894 z M 21.61065,73.509195 c 1.262732,-1.443435 2.919456,-3.373209 3.68161,-4.288388 0.762153,-0.915179 1.655122,-1.807508 1.984375,-1.982953 0.564704,-0.300908 0.576371,-0.290287 0.205804,0.187347 -0.644286,0.830438 -3.280219,3.915038 -3.71112,4.342796 -0.219885,0.218282 -0.928367,1.11125 -1.574403,1.984375 -0.646037,0.873125 -2.105406,2.510235 -3.243043,3.638021 -1.137637,1.127786 -1.961843,2.050521 -1.831569,2.050521 0.309599,0 5.791515,-3.826199 6.666408,-4.652936 0.924061,-0.873198 1.285445,-0.808396 0.495625,0.08887 l -0.640471,0.727605 0.838973,-0.757982 c 0.530755,-0.479517 0.780831,-0.909499 0.680709,-1.170413 -0.116215,-0.302851 -0.04146,-0.367608 0.28137,-0.243728 0.271952,0.104358 0.415617,0.04619 0.376663,-0.152503 -0.03463,-0.176664 0.08015,-0.293343 0.255086,-0.259286 0.363331,0.07074 3.013416,-2.805668 3.847019,-4.175559 0.708201,-1.163812 0.370426,-0.819595 -1.310517,1.335512 -1.356807,1.73954 -2.457685,2.8797 -2.457685,2.545384 0,-0.100355 0.744141,-1.054985 1.653646,-2.1214 1.64932,-1.933863 3.362233,-5.006495 4.408723,-7.908387 0.669099,-1.855399 0.670821,-1.683279 -0.01864,-1.863577 -0.527899,-0.138049 -2.339561,0.421056 -2.339561,0.722021 0,0.07276 0.429588,-0.0472 0.954639,-0.266582 0.525052,-0.219381 1.014171,-0.339343 1.086931,-0.266582 0.07276,0.07276 -0.286403,0.307233 -0.798141,0.521051 -1.697076,0.709084 -3.834543,2.238566 -5.65908,4.049401 -0.991131,0.983688 -1.915912,1.793479 -2.055067,1.799535 -0.322705,0.01404 -2.508009,2.72824 -3.131954,3.889956 -0.456342,0.849657 -0.456342,0.858535 0,0.231401 1.8271,-2.510918 2.805083,-3.720088 2.917723,-3.607448 0.162005,0.162006 -3.101532,4.524186 -3.384741,4.524186 -0.112729,0 -0.304181,0.108385 -0.425448,0.240857 -0.130747,0.142826 -0.06758,0.152082 0.155206,0.02274 0.592727,-0.344119 0.206419,0.417929 -1.359258,2.681328 -0.768727,1.111298 -1.511976,2.212999 -1.651665,2.448224 -0.139689,0.235225 -0.445386,0.725338 -0.679326,1.08914 -1.702633,2.64778 0.715651,0.387877 5.78118,-5.402552 z M 10.408675,76.309262 C 10.24151,72.68471 8.8175262,65.866743 7.2107346,60.997672 6.7205882,59.512379 6.3885617,58.083629 6.4728978,57.822673 6.5790304,57.494273 6.5523289,57.450552 6.3861637,57.680653 6.2172226,57.914599 5.9168499,57.522629 5.3723899,56.357737 4.9468542,55.447287 4.2697493,54.153424 3.8677122,53.482486 3.0648156,52.142575 2.9651846,51.794295 3.4674648,52.083345 3.659617,52.193923 3.7058093,52.172751 3.5777079,52.032814 3.4564405,51.900342 3.3201125,51.851488 3.2747567,51.924248 3.1555178,52.115533 2.0784024,51.096594 2.0784024,50.792511 c 0,-0.140785 0.2083594,-0.09257 0.4630208,0.107153 0.4210266,0.330192 0.4296054,0.320552 0.094588,-0.106289 C 2.4333737,50.535197 2.2027488,50.388791 2.1235118,50.468028 1.9323401,50.6592 -0.04887878,48.715893 0.09683116,48.480129 c 0.0622484,-0.10072 -0.2097216,-0.468325 -0.60437778,-0.8169 -0.66175308,-0.584484 -0.67850618,-0.587475 -0.21542165,-0.03846 0.62224356,0.737708 0.33100629,0.771743 -0.56601543,0.06614 -0.9655765,-0.759522 -1.1305303,-0.669737 -1.1305303,0.615357 0,1.483452 1.1288484,5.333736 3.11639888,10.629434 1.90369392,5.072268 3.50731962,8.529804 6.46710122,13.943549 1.2172437,2.226465 2.3770073,4.375539 2.5772523,4.775721 0.5965096,1.192102 0.7684886,0.845351 0.6674366,-1.345714 z M 9.5530099,76.199768 C 6.005078,65.573063 3.8646386,59.912173 1.8247963,55.760707 1.3957823,54.887582 0.9163579,53.828059 0.75940875,53.406211 0.51650647,52.753339 0.530076,52.685716 0.85060633,52.951732 c 0.48324537,0.401059 2.20105677,3.950815 3.47195887,7.174599 0.5449979,1.382448 1.347592,3.287448 1.7835424,4.233333 0.4359505,0.945886 1.0816085,2.731823 1.4347957,3.96875 0.3531872,1.236927 0.7519223,2.487083 0.8860781,2.778125 0.1341557,0.291042 0.3756971,1.064948 0.5367585,1.719792 0.1610615,0.654843 0.5232179,1.820169 0.8047922,2.589612 0.5829079,1.592882 0.5919319,1.643721 0.2917619,1.643721 -0.1211051,0 -0.349383,-0.386953 -0.5072841,-0.859896 z m 5.2451971,0.595312 c 0.114312,0 0.102508,0.367268 -0.02623,0.816151 -0.187808,0.65485 -0.166475,0.760053 0.10794,0.532308 0.188104,-0.156113 0.491934,-0.784248 0.675176,-1.395857 0.183242,-0.611608 1.054204,-2.488256 1.93547,-4.170329 3.444279,-6.574096 4.597452,-8.935939 6.369845,-13.046238 0.486287,-1.127733 0.982579,-1.96117 1.10287,-1.852083 0.120292,0.109088 0.132098,0.04795 0.02624,-0.135865 -0.105861,-0.183813 0.0098,-1.017251 0.256992,-1.852083 0.725262,-2.449252 0.904725,-3.237341 1.309662,-5.75121 0.4787,-2.971801 0.478804,-2.953193 -0.01755,-3.143662 -0.22584,-0.08666 -0.341108,-0.0451 -0.256153,0.09236 0.08496,0.137461 -0.144109,0.445563 -0.509033,0.68467 -0.930237,0.609514 -4.087507,4.433847 -5.242871,6.350576 -1.322883,2.19464 -2.501958,4.86936 -3.259058,7.393138 -1.222565,4.075401 -2.800541,11.095058 -2.99934,13.342624 -0.110324,1.247286 -0.234245,2.386855 -0.275382,2.532375 -0.04114,0.145521 -0.04854,0.502709 -0.01645,0.79375 0.0429,0.389131 0.131342,0.301608 0.334191,-0.330729 0.151716,-0.472942 0.369374,-0.859896 0.483686,-0.859896 z m 1.038528,-4.577027 c 0,-0.709996 1.358918,-4.866756 2.915034,-8.916722 1.222629,-3.182027 4.540503,-9.985424 4.680558,-9.59762 0.06441,0.17834 -0.42089,1.428496 -1.07844,2.778125 -1.391672,2.856426 -2.867899,6.440346 -3.735321,9.068453 -0.803442,2.434263 -2.521361,7.103766 -2.667111,7.249516 -0.0631,0.0631 -0.11472,-0.198692 -0.11472,-0.581752 z m 6.217708,4.661851 c 0.436562,-0.366607 0.612899,-0.565433 0.391858,-0.441836 -0.764508,0.427481 -2.640816,1.750678 -2.640816,1.862339 0,0.179811 1.385019,-0.695005 2.248958,-1.420503 z M -4.1670734,69.585185 c -0.1052091,-0.181901 -0.4373969,-0.685392 -0.7381952,-1.118869 -0.3007983,-0.433477 -0.9334155,-1.50504 -1.4058161,-2.38125 -0.9524931,-1.766688 -1.1894305,-1.812802 -0.3145238,-0.06122 0.5811689,1.163516 2.36598,3.892063 2.5458962,3.892063 0.057161,0 0.017848,-0.148828 -0.087361,-0.330729 z m 0.4246428,-7.070314 c -0.7321032,-0.564592 -2.8779446,-1.788661 -2.6070807,-1.487178 0.2253392,0.250812 2.965773,1.995254 3.1362473,1.996399 0.07276,4.89e-4 -0.1653646,-0.22866 -0.5291666,-0.509221 z M 20.190915,53.837426 c 1.114244,-1.907799 3.17831,-4.501235 4.748902,-5.96685 l 1.083376,-1.010963 -1.015186,0.72918 c -1.266605,0.909766 -3.74298,3.933316 -5.025208,6.135568 -0.534085,0.917302 -0.971064,1.740818 -0.971064,1.830035 0,0.261826 0.156909,0.03336 1.17918,-1.71697 z"
         id="path18651" />
      <path
         style="fill:#353a43;stroke-width:1.58845"
         d="m 12.028584,49.653651 c -0.19739,-0.51439 -0.216098,-7.398096 -0.01957,-7.20157 0.187366,0.187367 0.499284,7.620084 0.319781,7.620084 -0.07678,0 -0.211879,-0.188331 -0.300209,-0.418514 z"
         id="path18562" />
      <path
         style="fill:#353a43;stroke-width:1.58845"
         d="m -0.24532936,57.158397 c -0.4556431,-1.193593 -0.78581494,-2.212796 -0.7337153,-2.264896 0.0520997,-0.0521 0.47027429,0.879101 0.92927688,2.069334 0.4590026,1.190234 0.78917448,2.209437 0.7337153,2.264896 -0.0554592,0.05546 -0.47363378,-0.875741 -0.92927688,-2.069334 z"
         id="path18561" />
      <path
         style="fill:#353a43;stroke-width:1.58845"
         d="M 9.3832262,56.771582 C 9.1180088,54.99923 8.9546824,53.391887 9.0202786,53.199707 c 0.065596,-0.192179 0.2035289,0.364958 0.3065173,1.238083 0.1029883,0.873125 0.3122431,2.254744 0.4650106,3.070265 0.1527675,0.815521 0.2318305,1.70849 0.1756961,1.984375 -0.056135,0.275885 -0.3190591,-0.948496 -0.5842764,-2.720848 z"
         id="path18560" />
      <path
         style="fill:#353a43;stroke-width:1.58845"
         d="m 10.280485,61.978415 c -0.186819,-0.880334 -0.279452,-1.660826 -0.20585,-1.734428 0.0736,-0.0736 0.27736,0.595765 0.452795,1.487483 0.175435,0.891718 0.268067,1.672211 0.20585,1.734428 -0.06222,0.06222 -0.265975,-0.60715 -0.452795,-1.487483 z"
         id="path18559" />
      <path
         style="fill:#353a43;stroke-width:1.58845"
         d="m -6.8036881,64.954977 c -1.5782186,-3.70602 -1.7132857,-4.3019 -0.9736381,-4.295427 0.3768535,0.0033 0.393036,0.04835 0.086957,0.24207 -0.3858626,0.244221 -0.1979263,0.907202 1.1490126,4.053357 0.2336276,0.545703 0.3652463,0.992187 0.2924859,0.992187 -0.07276,0 -0.3224283,-0.446484 -0.5548174,-0.992187 z"
         id="path18557" />
      <path
         style="fill:#353a43;stroke-width:1.58845"
         d="M 6.07865,65.514153 C 5.8886959,65.097465 5.1375069,63.268258 4.4093411,61.449248 3.6811753,59.630238 2.8158981,57.546644 2.4865028,56.81904 2.1571075,56.091436 1.8075477,55.198467 1.7097032,54.834665 c -0.279501,-1.039231 1.2448329,2.206473 2.6094736,5.55625 0.6817505,1.673489 1.4787124,3.547868 1.7710265,4.165286 0.292314,0.617418 0.487006,1.256 0.4326489,1.419072 C 6.468495,66.138344 6.268604,65.93084 6.07865,65.514153 Z"
         id="path18556" />
      <path
         style="fill:#353a43;stroke-width:1.58845"
         d="m -4.2226432,69.320602 c -1.2338448,-1.834601 -2.1546542,-3.407645 -1.8102083,-3.092429 0.1486694,0.136053 1.7455724,2.51424 2.8759809,4.283054 0.2557474,0.400182 0.4108424,0.727604 0.3446555,0.727604 -0.066187,0 -0.7008795,-0.863203 -1.4104281,-1.918229 z"
         id="path18554" />
      <path
         style="fill:#353a43;stroke-width:1.58845"
         d="M 7.9107644,71.074156 C 7.4201622,69.491238 6.9660039,68.047294 6.9015238,67.865393 c -0.06448,-0.181901 0.00131,-0.330729 0.1462085,-0.330729 0.1448948,0 0.3426919,0.422422 0.4395491,0.938716 0.096857,0.516293 0.4756678,1.830629 0.8418012,2.920745 0.3661334,1.090117 0.6224946,2.111639 0.5696915,2.270048 -0.052803,0.158409 -0.4974075,-1.007098 -0.9880097,-2.590017 z"
         id="path18553" />
      <path
         style="fill:#353a43;stroke-width:1.58845"
         d="m 2.5563628,73.06099 c -0.4811594,-0.598541 -1.235152,-1.521276 -1.67553888,-2.050521 -1.20771255,-1.451396 -1.52663698,-1.888305 -1.37837929,-1.888305 0.074068,0 0.83278716,0.863203 1.68604257,1.918229 0.8532554,1.055026 1.6420347,1.958372 1.7528429,2.007434 0.2412169,0.106805 0.7979616,1.10142 0.6165292,1.10142 -0.069664,0 -0.520337,-0.489715 -1.0014965,-1.088257 z"
         id="path18552" />
      <path
         style="fill:#353a43;stroke-width:1.58845"
         d="M 10.53512,81.727185 C 8.206244,81.098986 3.4973602,78.201485 0.11462622,75.315177 -1.7614742,73.714401 -4.5268806,70.427284 -5.8745365,68.196123 c -1.5163747,-2.51049 -3.3630568,-7.261892 -3.0311407,-7.798943 0.5373019,-0.869373 3.7066625,0.35769 6.4638063,2.502555 3.02065379,2.349857 7.6725674,7.706088 7.2855073,8.38856 -0.1611091,0.284071 -0.1301668,0.285211 0.1697145,0.0063 0.3102627,-0.288617 0.2536762,-0.533113 -0.367414,-1.5875 C 1.4950655,64.358 -2.1377672,54.967974 -2.9848377,49.983271 -3.2775288,48.26089 -3.4523988,46.683312 -3.3734376,46.477542 c 0.6769938,-1.764218 5.8505004,2.612709 8.3143997,7.034206 1.9331593,3.469079 4.1356539,9.603713 4.8446095,13.49375 0.3539504,1.942125 0.3633464,1.958389 0.4412974,0.76387 0.07474,-1.14533 -0.137648,-2.72244 -1.1005553,-8.172203 C 8.1549118,54.099322 7.7255942,46.903671 8.1396912,43.060707 8.6744736,38.09774 10.895612,31.28675 11.979307,31.28675 c 0.957191,0 2.548738,3.721006 3.50819,8.202082 0.655427,3.061135 0.720418,15.764508 0.08466,16.546656 -0.218282,0.26854 -0.265104,0.409384 -0.10405,0.312985 0.205253,-0.122853 0.186949,0.475184 -0.06121,1.999732 -0.194717,1.196251 -0.475835,3.127501 -0.624707,4.291668 -0.148872,1.164166 -0.38853,2.831041 -0.532574,3.704166 -0.332121,2.013166 -0.345,3.761628 -0.02524,3.426354 0.131849,-0.138244 0.443323,-1.263385 0.692163,-2.500312 1.360637,-6.763415 3.109148,-11.422919 5.809419,-15.481176 2.270694,-3.412643 6.009437,-6.534327 6.836005,-5.707759 0.833722,0.833722 -0.674608,8.228762 -2.726008,13.365075 -1.293341,3.238278 -4.625146,10.240801 -6.04626,12.707548 -1.418233,2.461745 -1.502961,2.67302 -1.157575,2.88648 0.114338,0.07066 0.209337,-0.07114 0.211109,-0.315115 0.0058,-0.799045 4.117204,-6.707174 6.142967,-8.827516 3.010633,-3.151194 7.229121,-6.024351 8.858319,-6.033285 1.144827,-0.0063 0.794754,2.214256 -0.965139,6.121936 -1.340119,2.975609 -2.710553,4.837257 -5.756424,7.819733 -3.35113,3.281381 -5.90761,5.146494 -9.711103,7.084859 -1.564151,0.797134 -4.679423,1.619483 -3.828087,1.010513 0.226652,-0.162126 0.292344,-1.105895 0.227089,-3.262517 -0.06071,-2.006407 0.01052,-3.163652 0.210263,-3.41592 0.23245,-0.293579 0.225845,-0.335719 -0.02865,-0.182822 -0.181901,0.109282 -0.330729,0.07963 -0.330729,-0.06589 0,-0.145521 0.123316,-0.340797 0.274036,-0.433946 0.274579,-0.1697 0.277977,-2.198276 0.004,-2.36654 -0.08014,-0.04921 -0.105343,-0.815955 -0.05601,-1.703875 0.04933,-0.88792 0.194672,-1.549524 0.322972,-1.47023 0.24451,0.151115 0.370471,-0.288375 0.647365,-2.258722 0.09203,-0.654843 0.338429,-2.316548 0.547564,-3.692676 0.209135,-1.376128 0.318654,-2.92394 0.243375,-3.439583 -0.107067,-0.733394 -0.08068,-0.822311 0.121173,-0.408365 0.189651,0.388917 0.228122,0.14348 0.145155,-0.926042 -0.08699,-1.121338 -0.06033,-1.273097 0.116181,-0.661458 0.150823,0.522623 0.179594,0.04815 0.08423,-1.389063 -0.08927,-1.345411 -0.04553,-2.182812 0.114035,-2.182812 0.143804,0 0.23538,-0.646842 0.206019,-1.455208 -0.02907,-0.800365 0.05015,-1.455209 0.176042,-1.455209 0.125893,0 0.220529,-0.26789 0.210301,-0.595312 -0.01788,-0.572395 -0.02826,-0.574941 -0.269641,-0.06615 -0.194534,0.41005 -0.219846,0.326752 -0.112447,-0.370044 0.07623,-0.494566 0.188752,-2.10191 0.250051,-3.571875 0.08485,-2.034755 0.05802,-2.356911 -0.112415,-1.349747 -0.177772,1.050521 -0.206012,0.778125 -0.137152,-1.322917 0.0608,-1.85501 0.01904,-2.369045 -0.139714,-1.719791 -0.186556,0.762963 -0.203732,0.679842 -0.09754,-0.472002 0.07089,-0.768923 0.04314,-1.840486 -0.06168,-2.38125 -0.180764,-0.932608 -0.201239,-0.949166 -0.397865,-0.321748 -0.141112,0.450279 -0.168319,0.281336 -0.08522,-0.529167 0.09439,-0.920642 0.06136,-1.070633 -0.145672,-0.661458 -0.225256,0.445187 -0.244247,0.409468 -0.119663,-0.225078 0.170898,-0.870441 -0.331019,-2.629713 -0.687412,-2.40945 -0.132126,0.08166 -0.173769,-0.02472 -0.09254,-0.236404 0.194294,-0.506325 -0.887058,-3.002383 -1.383182,-3.192764 -0.997847,-0.38291 -3.3983228,6.898354 -3.6563903,11.090779 L 8.4393718,44.91279 8.8112175,42.345845 c 0.2045151,-1.411819 0.6260382,-3.495413 0.936718,-4.630208 0.5574585,-2.036182 1.8407025,-5.208929 2.0301655,-5.019467 0.05362,0.05362 -0.208165,0.765158 -0.581754,1.581184 -0.910605,1.989024 -1.8841619,6.074173 -2.2193232,9.31252 -0.3838863,3.70913 -0.1663519,12.393272 0.3844072,15.345832 0.244304,1.309688 0.642195,3.512344 0.884203,4.894792 0.242008,1.382448 0.547295,2.683116 0.678416,2.890374 0.131121,0.207258 0.255447,1.461921 0.27628,2.78814 0.02083,1.326219 0.12623,2.554265 0.234216,2.728991 0.131487,0.212749 0.06071,0.265637 -0.214277,0.160115 -0.225839,-0.08666 -0.410617,-0.03569 -0.410617,0.113273 0,0.148963 0.112351,0.31053 0.249668,0.359037 0.350323,0.12375 0.686872,6.570486 0.343009,6.570486 -0.390927,0 -0.562536,-1.242971 -0.222654,-1.612693 0.215708,-0.234646 0.205497,-0.268503 -0.03929,-0.1303 -0.181901,0.102698 -0.339839,0.0904 -0.350973,-0.02733 -0.01113,-0.117729 -0.05383,-0.392646 -0.09488,-0.610927 -0.04105,-0.218281 -0.159452,-1.170781 -0.26311,-2.116667 C 10.327756,73.997112 10.022475,72.092112 9.7530108,70.709664 9.483547,69.327216 9.3227211,67.838935 9.39562,67.402373 9.4968555,66.796113 9.4625451,66.702368 9.2503647,67.005498 9.0421672,67.302937 9.008175,67.170357 9.1146919,66.476331 9.2100601,65.854946 8.9888458,64.679842 8.442284,62.904456 7.2301091,58.966974 6.5478815,57.37173 6.2558248,57.791888 6.089596,58.031028 6.0638899,57.958547 6.1747016,57.563153 6.2813846,57.182492 6.0559683,56.457894 5.5162244,55.446487 4.7483931,54.007675 4.6558614,53.955104 5.1378839,55.23154 5.44199,56.036838 5.1645669,55.654724 4.1944226,53.932046 3.7099681,53.071804 3.4678425,52.463299 3.6563658,52.579813 3.8861553,52.721831 3.9587519,52.670506 3.8766161,52.424098 3.8092305,52.221941 3.6251124,52.05654 3.4674648,52.05654 c -0.1576475,0 -0.3858506,-0.108385 -0.507118,-0.240857 -0.1281015,-0.139937 -0.081909,-0.161109 0.110243,-0.05053 0.1819011,0.10468 0.3307292,0.07882 0.3307292,-0.05748 0,-0.385885 -0.6851308,-0.859833 -0.9266593,-0.641029 -0.119082,0.107878 -0.123679,0.03569 -0.010215,-0.160429 0.1386993,-0.23973 -0.256247,-0.82493 -1.2053135,-1.785934 -0.77638585,-0.786151 -1.53067309,-1.429366 -1.67619392,-1.429366 -0.14552082,0 0.38619321,0.680783 1.18158673,1.512851 L 2.2106941,50.716617 0.62319414,49.266268 C -0.24993081,48.468576 -1.261962,47.600125 -1.6257641,47.336378 l -0.6614583,-0.479542 0.7505604,0.438181 c 1.07535987,0.6278 1.20625709,0.267951 0.139175,-0.382605 -1.363142,-0.831052 -1.5517294,-0.728094 -1.5471422,0.844649 0.00304,1.042755 0.0729,1.290118 0.2802055,0.992188 0.2019843,-0.290282 0.2366692,-0.0771 0.1291415,0.79375 -0.1102813,0.893147 -0.081357,1.058412 0.1157682,0.661458 0.199687,-0.402114 0.2269933,-0.267131 0.1137289,0.562196 -0.1624839,1.189715 0.1492729,2.261865 2.51877637,8.66222 1.30133603,3.515087 2.77996303,6.782875 3.06915383,6.782875 0.075786,0 0.01454,-0.230298 -0.1361004,-0.511773 -0.4176335,-0.780355 -0.3079723,-1.036398 0.1207685,-0.281977 0.2067503,0.363802 0.3088381,0.884728 0.2268619,1.157612 -0.095966,0.319456 -0.045805,0.432347 0.1408507,0.316988 0.1876403,-0.115968 0.2284431,-0.01902 0.1156746,0.274853 -0.1174112,0.305969 -0.074272,0.392247 0.1322916,0.264583 0.2065639,-0.127663 0.2497029,-0.04139 0.1322917,0.264584 -0.1275605,0.332417 -0.080367,0.396013 0.1762027,0.237444 0.2331604,-0.144101 0.2872513,-0.114355 0.1616397,0.08889 -0.1038328,0.168005 -0.055671,0.305463 0.1070262,0.305463 0.1626972,0 0.2222285,0.119063 0.1322916,0.264584 -0.089937,0.14552 -0.030406,0.264583 0.1322917,0.264583 0.1626972,0 0.229939,0.106586 0.1494262,0.236859 -0.080513,0.130272 0.039069,0.308025 0.2657383,0.395006 0.2266688,0.08698 0.3380207,0.278051 0.2474487,0.424599 -0.090572,0.146549 -0.025849,0.266452 0.1438293,0.266452 0.1701139,0 0.2378224,0.184198 0.1509372,0.410617 -0.086663,0.22584 -0.052346,0.345586 0.07626,0.266103 0.1286056,-0.07948 0.3044718,0.03958 0.3908137,0.264584 0.098257,0.256054 0.048534,0.34207 -0.1329132,0.22993 -0.4160194,-0.257114 -0.021616,0.903918 0.613272,1.805329 0.7396877,1.050205 0.8878735,0.895384 0.2032534,-0.212355 C 6.5127917,72.427729 6.302629,71.953494 6.3652729,71.89085 c 0.062644,-0.06264 0.6063211,0.810281 1.2081716,1.939833 1.1569872,2.171431 2.7566885,5.913361 2.5964905,6.07356 C 9.953713,80.120464 8.1753293,76.911045 8.2977074,76.525466 8.3709544,76.294685 8.2451634,75.873985 8.0181719,75.590576 7.6240251,75.098468 7.6189827,75.103087 7.906076,75.693262 8.0714148,76.033147 8.1495313,76.368396 8.0796682,76.438259 7.9437483,76.574179 6.8368567,74.723881 6.7894674,74.281539 6.7738774,74.136018 6.6120149,73.897893 6.429773,73.752372 6.2475311,73.606851 5.4696481,72.713883 4.701144,71.767997 3.9326399,70.822112 3.5639162,70.275018 3.881758,70.552234 c 0.3178419,0.277215 0.5778943,0.384965 0.5778943,0.239444 0,-0.350584 -0.9287166,-1.181769 -1.1137235,-0.996762 -0.079607,0.07961 -0.743944,-0.608292 -1.4763055,-1.528663 -1.70237949,-2.13941 -3.6102033,-3.921111 -5.3352364,-4.982534 -0.7489079,-0.460808 -1.3024271,-0.897056 -1.2300427,-0.96944 0.072384,-0.07238 0.451591,0.12009 0.8426813,0.427722 0.3910903,0.307632 0.8438447,0.556683 1.006121,0.553447 0.3872601,-0.0077 -0.7303335,-0.884565 -2.185673,-1.714838 -1.2527272,-0.714682 -1.7613175,-0.838136 -1.4627635,-0.355065 0.1179055,0.190775 0.072478,0.233581 -0.1209926,0.114009 -0.1703788,-0.105299 -0.2434367,-0.298799 -0.1623511,-0.429998 0.1809065,-0.292713 -1.0525158,-0.63075 -1.5728757,-0.431069 -0.4721394,0.181177 -0.3561188,0.659128 0.9278768,3.822422 0.548025,1.350132 1.6677466,3.463743 2.4882704,4.696915 1.507629,2.265826 5.51039852,6.738923 6.0303539,6.738923 0.155046,0 -0.00674,-0.327422 -0.35953114,-0.727604 L 0.0940275,74.281539 0.82058837,74.921992 c 0.39960843,0.352249 0.66723933,0.699774 0.59473523,0.772279 -0.1730346,0.173034 0.6706755,1.100809 1.0010661,1.100809 0.1407851,0 0.098309,-0.208359 -0.094393,-0.46302 -0.3024606,-0.399713 -0.2978461,-0.415992 0.033749,-0.119063 0.211263,0.189177 0.3841146,0.476912 0.3841146,0.63941 0,0.162498 0.1654011,0.350585 0.367558,0.417971 0.2513998,0.0838 0.3007057,0.0072 0.1560181,-0.242535 -0.1248933,-0.215528 -0.1128851,-0.274743 0.029317,-0.144568 0.1324713,0.121267 0.2408569,0.34947 0.2408569,0.507118 0,0.157648 0.1654011,0.341766 0.367558,0.409151 0.245014,0.08167 0.2975436,0.0092 0.1575571,-0.217269 C 3.92,77.357813 3.9538655,77.307467 4.1585044,77.433941 c 0.1703788,0.1053 0.2463143,0.294143 0.1687456,0.419652 -0.077569,0.125508 0.1255751,0.414938 0.4514306,0.643176 0.7122274,0.498863 1.111316,0.539259 0.8323443,0.08425 -0.1115256,-0.181901 0.089807,-0.131945 0.4474059,0.111014 0.3575988,0.242959 0.6155452,0.584987 0.5732141,0.760064 -0.045334,0.187496 0.087714,0.255126 0.3237317,0.164558 0.2203836,-0.08457 0.4931431,0.0048 0.6061323,0.198571 0.2723239,0.467053 2.8255681,1.742355 3.4883161,1.742355 0.287291,0 0.595932,0.119063 0.685869,0.264584 0.08994,0.14552 0.126729,0.256547 0.08176,0.246725 -0.04497,-0.0098 -0.622018,-0.163588 -1.282334,-0.341705 z m 3.829581,-0.461412 c -0.07862,-0.127214 0.02947,-0.165136 0.240196,-0.08427 0.689052,0.264414 6.758814,-3.441562 8.911955,-5.441316 0.650883,-0.604515 1.00483,-1.014402 0.786549,-0.91086 -0.218281,0.103542 0.211358,-0.453602 0.954753,-1.238098 2.87802,-3.037139 4.45146,-5.173456 5.714534,-7.75883 0.715645,-1.464847 1.218547,-2.365702 1.117562,-2.0019 -0.352728,1.270704 -2.18985,4.66343 -3.254549,6.010376 -0.590354,0.746854 -1.80575,2.140832 -2.70088,3.097728 -0.89513,0.956897 -1.514919,1.739812 -1.37731,1.739812 0.721881,0 5.072805,-5.254079 6.201886,-7.489258 0.79327,-1.570395 2.096898,-5.066939 2.025447,-5.432584 -0.01881,-0.09627 0.06004,-0.391395 0.175226,-0.655838 0.120872,-0.277498 0.08978,-0.600457 -0.07354,-0.763774 -0.343291,-0.343291 -4.488113,1.626455 -5.248793,2.494387 -0.319562,0.364619 -0.352725,0.480951 -0.09475,0.332384 0.342194,-0.19707 0.346844,-0.166883 0.03375,0.219103 -0.393123,0.484645 -0.696792,0.61375 -0.430624,0.183081 0.316108,-0.511474 -0.320585,-0.257874 -0.818888,0.326169 -0.41032,0.480921 -0.417944,0.524089 -0.04101,0.232187 0.91587,-0.709257 0.43438,-0.116168 -1.05763,1.302765 -1.336804,1.271329 -1.378126,1.294227 -0.341786,0.189399 0.648375,-0.691224 1.059174,-1.256771 0.912888,-1.256771 -0.49458,0 -3.133554,3.053775 -5.353203,6.194635 -1.100076,1.556636 -1.382628,2.209902 -0.800118,1.849891 0.190775,-0.117905 0.233581,-0.07248 0.11401,0.120993 -0.1053,0.170379 -0.287761,0.250259 -0.405468,0.177512 -0.249332,-0.154095 -1.710148,1.95527 -1.499785,2.165634 0.07775,0.07775 0.396084,-0.290364 0.707413,-0.818028 0.612033,-1.037319 0.997952,-1.334897 0.482759,-0.372251 -0.614429,1.148071 -1.887654,2.738065 -1.701517,2.124843 0.264875,-0.872623 -0.29663,-0.738232 -0.774206,0.185298 -0.509222,0.984727 -0.508331,1.36439 0.0016,0.690174 0.338735,-0.447848 0.388461,-0.456315 0.388461,-0.06615 0,0.246095 -0.119063,0.462328 -0.264584,0.480518 -0.145521,0.01819 -0.413411,0.04817 -0.595312,0.06662 -0.181901,0.01845 -0.334356,0.390522 -0.338788,0.826822 -0.0052,0.507071 -0.13157,0.767045 -0.350396,0.720573 -0.188285,-0.03999 -0.270621,0.04334 -0.182968,0.185163 0.08765,0.141825 -0.07533,0.383468 -0.362173,0.536984 -0.49697,0.26597 -0.503619,0.244782 -0.141132,-0.449746 0.209225,-0.400876 0.453834,-1.115819 0.543576,-1.588762 0.08974,-0.472943 0.267483,-0.859896 0.394979,-0.859896 0.127497,0 0.665294,-0.863203 1.195105,-1.918229 0.529811,-1.055026 1.476773,-2.811198 2.104361,-3.902604 1.879248,-3.268107 5.641782,-11.819311 6.634133,-15.077556 0.989693,-3.249517 1.680995,-6.650116 1.681586,-8.271922 4.54e-4,-1.245275 -0.538654,-1.310865 -2.010572,-0.244613 -2.362609,1.711465 -5.04479,5.282168 -6.867031,9.14186 -1.301924,2.757607 -1.714085,4.069037 -1.173908,3.73519 0.228646,-0.141311 0.279831,-0.108726 0.152597,0.09714 -0.1053,0.170379 -0.282666,0.253408 -0.394146,0.184509 -0.287579,-0.177734 -1.978708,6.614781 -1.777453,7.139242 0.09149,0.238415 0.07981,0.571566 -0.02596,0.740335 -0.105767,0.168769 -0.201061,0.425915 -0.211765,0.571436 -0.07361,1.000742 -0.480389,2.754875 -0.619473,2.671341 -0.09284,-0.05576 -0.196201,0.555484 -0.229688,1.358318 -0.03349,0.802834 -0.172015,1.593812 -0.307837,1.757728 -0.302849,0.365493 -0.458344,2.858724 -0.203959,3.270327 0.101442,0.164136 0.06624,0.37148 -0.07822,0.460764 -0.144464,0.08928 -0.244267,0.663058 -0.221783,1.275053 0.02248,0.611995 -0.04282,1.364665 -0.145112,1.672599 -0.162199,0.48826 -0.100928,0.54362 0.478967,0.432766 0.365728,-0.06991 0.600632,-0.231199 0.522009,-0.358412 z m 3.026356,-2.750901 c 0.373789,-0.762937 3.727435,-4.365625 4.063844,-4.365625 0.155999,0 0.02729,0.222325 -0.286016,0.494056 -0.313308,0.27173 -0.56965,0.615031 -0.56965,0.762891 0,0.14786 -0.250105,0.33424 -0.555788,0.414178 -0.30604,0.08003 -0.477362,0.272237 -0.38126,0.427733 0.09599,0.155316 -0.01109,0.282392 -0.237962,0.282392 -0.22687,0 -0.414261,0.0893 -0.416426,0.198438 -0.0022,0.10914 -0.42515,0.674687 -0.939968,1.25677 -0.514817,0.582084 -0.819365,0.820209 -0.676774,0.529167 z m 2.679011,-0.745626 c 0,-0.06347 0.833438,-0.723493 1.852083,-1.466722 2.22775,-1.62542 2.474757,-1.600394 0.33073,0.03351 -1.6664,1.269915 -2.182813,1.608987 -2.182813,1.433212 z m 1.078795,-7.322775 c 0.611926,-0.87236 1.298458,-1.735563 1.525626,-1.918229 0.463131,-0.372403 0.548104,-0.50346 -1.372469,2.116816 -1.400569,1.910824 -1.522199,1.753116 -0.153157,-0.198587 z m -4.943628,0.461631 c 0.324706,-1.641835 2.96579,-8.50937 4.987154,-12.967957 1.147543,-2.531172 1.177232,-2.060046 0.03889,0.617193 -1.957924,4.604809 -2.69309,6.490559 -2.88095,7.389826 -0.106399,0.509323 -0.287873,1.045104 -0.403275,1.190625 -0.115403,0.145521 -0.527298,1.246849 -0.915323,2.447396 -0.716232,2.216017 -1.136014,2.887931 -0.8265,1.322917 z m 3.732541,-2.844271 c 0.512982,-1.018646 0.992226,-1.852083 1.064986,-1.852083 0.07276,0 -0.28742,0.833437 -0.800402,1.852083 -0.512982,1.018646 -0.992226,1.852083 -1.064986,1.852083 -0.07276,0 0.287421,-0.833437 0.800402,-1.852083 z m 1.996069,-4.00519 c -0.01688,-0.243507 1.604416,-3.667726 1.736587,-3.667726 0.061,0 -0.05097,0.386953 -0.248809,0.859895 -0.477825,1.142245 -1.473041,3.020481 -1.487778,2.807831 z m -3.71586,-6.143776 c 0,-0.28752 1.843255,-3.87395 1.991027,-3.87395 0.07276,0 -0.299881,0.863203 -0.828092,1.918229 -0.991043,1.979467 -1.162935,2.268539 -1.162935,1.955721 z m 2.507819,-4.799992 c 1.580203,-2.569067 5.270168,-6.482291 6.112461,-6.482291 0.480953,0 0.47286,1.160021 -0.024,3.439583 -0.361289,1.657587 -0.354453,1.150348 0.02407,-1.785937 0.114135,-0.885373 0.08114,-1.389063 -0.09099,-1.389063 -0.518658,0 -2.870522,2.343369 -4.420577,4.404611 -1.776315,2.362117 -2.311403,2.968104 -1.600972,1.813097 z M 3.401319,69.387662 c 0,-0.345583 -5.5482273,-6.086331 -5.8822214,-6.086331 -0.1412413,0 0.6434359,0.840723 1.74372704,1.868274 1.10029116,1.027551 2.43218066,2.456301 2.95975446,3.175 0.9779637,1.332253 1.1787399,1.509918 1.1787399,1.043057 z"
         id="path18548" />
      <path
         style="fill:#1a2129;stroke-width:1.58845"
         d="m 15.498887,41.683207 c -0.345172,-3.714364 -2.594421,-10.325499 -3.429365,-10.079803 -0.183605,0.05403 -0.727032,0.868087 -1.207613,1.809019 -0.480582,0.940931 -0.792584,1.413128 -0.693339,1.049326 0.401888,-1.473191 1.459821,-3.208988 1.903712,-3.123502 1.359832,0.26188 4.014665,8.581985 3.714352,11.640582 -0.04855,0.494454 -0.173809,-0.06955 -0.287747,-1.295622 z"
         id="path18401" />
      <path
         style="fill:#1a2129;stroke-width:1.58845"
         d="m 8.1990125,43.380282 c -0.03632,-1.308502 0.4922551,-4.28872 1.1981352,-6.75534 0.6830153,-2.386721 0.6300983,-1.37156 -0.072798,1.39654 -0.3654474,1.439182 -0.7602311,3.518952 -0.8772969,4.62171 -0.1751549,1.649955 -0.2190794,1.780484 -0.2480403,0.73709 z"
         id="path18400" />
      <path
         style="fill:#1a2129;stroke-width:1.58845"
         d="m 7.9839217,46.367999 c 0,-0.945886 0.04802,-1.332839 0.1067121,-0.859896 0.058692,0.472943 0.058692,1.246849 0,1.719792 -0.058692,0.472942 -0.1067121,0.08599 -0.1067121,-0.859896 z"
         id="path18396" />
      <path
         style="fill:#1a2129;stroke-width:1.58845"
         d="m 15.944444,48.220082 c 0,-2.401094 0.04011,-3.383359 0.08914,-2.182812 0.04903,1.200546 0.04903,3.165078 0,4.365624 -0.04903,1.200547 -0.08914,0.218282 -0.08914,-2.182812 z"
         id="path18392" />
      <path
         style="fill:#1a2129;stroke-width:1.58845"
         d="m 8.2527733,50.865915 c 0,-1.091406 0.046704,-1.53789 0.103786,-0.992187 0.057082,0.545703 0.057082,1.438672 0,1.984375 -0.057082,0.545703 -0.103786,0.09922 -0.103786,-0.992188 z"
         id="path18391" />
      <path
         style="fill:#1a2129;stroke-width:1.58845"
         d="m 15.656838,54.305498 c 0,-0.945885 0.04802,-1.332838 0.106712,-0.859895 0.05869,0.472942 0.05869,1.246848 0,1.719791 -0.05869,0.472943 -0.106712,0.08599 -0.106712,-0.859896 z"
         id="path18390" />
      <path
         style="fill:#1a2129;stroke-width:1.58845"
         d="m 16.116324,62.465295 c -0.03117,-0.912262 1.645107,-5.468876 2.807139,-7.63063 1.995754,-3.712744 4.342131,-6.60892 6.611407,-8.16058 1.282252,-0.876765 1.375498,-0.676665 0.111395,0.239047 -3.587197,2.598552 -7.087424,8.018199 -8.789936,13.610074 -0.39875,1.309688 -0.731753,2.183628 -0.740005,1.942089 z"
         id="path18375" />
      <path
         style="fill:#1a2129;stroke-width:1.58845"
         d="m 14.167872,65.285706 c 0.08119,-0.873125 0.192239,-1.637109 0.24678,-1.697743 0.177082,-0.196862 0.04264,1.675358 -0.178918,2.491493 -0.141691,0.521947 -0.164929,0.250145 -0.06786,-0.79375 z"
         id="path18365" />
      <path
         style="fill:#1a2129;stroke-width:1.58845"
         d="m 15.070174,67.057728 c -0.04005,-0.507724 0.798654,-4.077082 0.927691,-3.948045 0.06063,0.06063 -0.117183,1.051285 -0.395135,2.201461 -0.277951,1.150176 -0.517601,1.936138 -0.532556,1.746584 z"
         id="path18362" />
      <path
         style="fill:#1a2129;stroke-width:1.58845"
         d="M 10.053537,64.996637 C 9.8661969,63.600721 9.4877048,61.296816 9.212444,59.876847 8.9371831,58.456877 8.6512981,56.295006 8.577144,55.072687 L 8.4423184,52.85029 8.8053969,55.628415 c 0.1996931,1.527969 0.6075322,4.034303 0.9063091,5.569632 0.558483,2.869885 0.99312,6.336617 0.794444,6.336617 -0.0616,0 -0.265272,-1.142112 -0.452613,-2.538027 z"
         id="path18361" />
      <path
         style="fill:#1a2129;stroke-width:1.58845"
         d="M 9.371975,66.420229 C 8.9515587,63.250976 5.9328421,55.435985 3.9819421,52.466267 3.0074619,50.982884 -0.14243411,47.643545 -1.3611808,46.801794 c -0.5766384,-0.398267 -0.5449289,-0.395997 0.2472826,0.0177 1.34694597,0.70338 3.6917013,3.134399 5.2039626,5.395418 1.4518567,2.170706 3.287408,6.324043 4.5589654,10.315659 0.7624975,2.393598 1.3290196,5.268678 1.0381701,5.268678 -0.07276,0 -0.2146116,-0.620559 -0.3152249,-1.37902 z"
         id="path18360" />
      <path
         style="fill:#1a2129;stroke-width:1.58845"
         d="m 13.802055,68.460706 c 0.0015,-0.873125 0.05088,-1.198415 0.109765,-0.722866 0.05889,0.475549 0.05767,1.189924 -0.0027,1.5875 -0.06037,0.397576 -0.10855,0.0085 -0.107065,-0.864634 z"
         id="path18352" />
      <path
         style="fill:#1a2129;stroke-width:1.58845"
         d="M 3.5033087,67.487438 C 2.6468498,65.851656 1.6140379,63.741664 1.2081712,62.798566 0.1829093,60.416202 -2.1991238,53.73233 -2.069203,53.60241 c 0.058774,-0.05877 0.4913469,0.994187 0.9612724,2.339915 1.54540426,4.425582 3.1499621,8.238815 4.7603907,11.313074 0.8724154,1.665414 1.5461231,3.068112 1.4971282,3.117107 -0.048995,0.049 -0.7898208,-1.249286 -1.6462796,-2.885068 z"
         id="path18351" />
      <path
         style="fill:#1a2129;stroke-width:1.58845"
         d="m 2.6875569,68.39456 c -3.33985125,-4.226032 -8.3910453,-7.992754 -10.7294665,-8.001061 -0.8691776,-0.0031 -0.8719089,0.02431 -0.1977523,1.983782 0.2914185,0.847023 0.4822504,1.587642 0.424071,1.645822 -0.1942326,0.194232 -1.26004,-3.350933 -1.0900863,-3.625923 0.7270761,-1.176434 5.0877984,1.034439 8.56847351,4.34419 2.03069229,1.930972 5.39509669,5.968294 4.97353309,5.968294 -0.065525,0 -0.9424724,-1.041797 -1.9487725,-2.315104 z"
         id="path18350" />
      <path
         style="fill:#1a2129;stroke-width:1.58845"
         d="m 18.251405,72.495602 c 0.315338,-0.618464 0.833542,-1.541198 1.151565,-2.050521 0.799734,-1.280796 4.798391,-10.016677 5.693852,-12.439381 0.901135,-2.438054 2.067125,-7.027916 2.360874,-9.293469 0.170299,-1.31343 0.224294,-1.450485 0.246012,-0.624441 0.03261,1.240294 -0.73265,4.851743 -1.706945,8.055505 -0.839838,2.761632 -4.957178,11.990801 -6.763967,15.161682 -1.373481,2.410432 -1.976113,3.141547 -0.981391,1.190625 z"
         id="path18341" />
      <path
         style="fill:#1a2129;stroke-width:1.58845"
         d="m -1.0514383,74.178023 c -2.358808,-2.33672 -4.409608,-5.101049 -5.7579013,-7.761233 -1.2152056,-2.397601 -1.1379418,-2.658122 0.1000447,-0.337334 1.7777946,3.332737 3.1047843,5.108313 6.08045352,8.135937 1.10843315,1.127787 1.94101468,2.050521 1.85018118,2.050521 -0.090834,0 -1.11358365,-0.939551 -2.2727781,-2.087891 z"
         id="path18338" />
      <path
         style="fill:#1a2129;stroke-width:1.58845"
         d="M 3.9930997,78.24326 C 3.2310578,77.730071 2.607569,77.252604 2.607569,77.182224 c 0,-0.07038 0.6548438,0.306826 1.4552083,0.838239 1.2715086,0.844234 1.6450616,1.155867 1.3855307,1.155867 -0.038323,0 -0.6931664,-0.419882 -1.4552083,-0.93307 z"
         id="path18332" />
      <path
         style="fill:#1a2129;stroke-width:1.58845"
         d="m 16.498193,80.554366 c 6.361974,-3.398257 12.347426,-8.94797 14.572978,-13.51207 1.674604,-3.434231 2.679834,-6.915965 1.996745,-6.915965 -0.127225,0 -0.724193,0.173897 -1.326596,0.386437 -3.071577,1.083715 -7.911804,5.324131 -10.587796,9.275733 -1.638054,2.418893 -2.243486,3.128392 -1.350487,1.582621 2.627418,-4.548031 8.580541,-10.10274 12.056988,-11.250071 1.857966,-0.613184 2.100674,0.07968 1.074636,3.067792 -1.543002,4.493649 -2.6169,6.243479 -5.976069,9.737515 -3.204921,3.333595 -6.960009,6.144483 -10.780587,8.069855 -1.892015,0.953477 -1.63939,0.604864 0.320188,-0.441847 z"
         id="path18325" />
    </g>
  </g>
</svg>
