<?xml version="1.0" encoding="UTF-8" standalone="no"?>
<!-- Created with Inkscape (http://www.inkscape.org/) -->

<svg
   width="185"
   height="185"
   viewBox="0 0 48.947914 48.947918"
   version="1.1"
   id="svg1"
   xmlns="http://www.w3.org/2000/svg"
   xmlns:svg="http://www.w3.org/2000/svg">
  <defs
     id="defs1" />
  <g
     id="layer1">
    <g
       id="g19003"
       transform="matrix(0.82268052,0,0,0.82268052,-132.73002,-88.550533)"
       style="display:inline;stroke-width:1.21554">
      <path
         style="fill:#f7e2b8;stroke-width:1.21554"
         d="m 190.15848,166.92173 c -0.82163,-0.17965 -1.97993,-0.6483 -2.57401,-1.04144 -1.37463,-0.90969 -1.61673,-0.90585 -0.80689,0.0128 l 0.64144,0.72761 -0.71945,-0.63377 c -0.3957,-0.34858 -0.6649,-0.72204 -0.59823,-0.82992 0.19789,-0.32019 -0.56619,-0.80723 -1.00327,-0.63951 -0.22201,0.0852 -0.48141,0.0291 -0.57645,-0.12469 -0.10894,-0.17627 0.003,-0.21743 0.30397,-0.11139 0.68719,0.24244 0.24385,-0.13996 -1.90449,-1.64272 -2.09585,-1.46604 -6.04216,-4.91835 -7.76858,-6.79612 -0.6347,-0.69034 -1.27818,-1.17842 -1.42994,-1.08462 -0.15781,0.0975 -0.19722,0.0432 -0.0921,-0.12698 0.10113,-0.16364 -0.40205,-1.04524 -1.11818,-1.95911 -0.71613,-0.91387 -1.87058,-2.67362 -2.56544,-3.91055 -1.01398,-1.80498 -1.26831,-2.51012 -1.28834,-3.57187 -0.023,-1.22245 0.0253,-1.32864 0.63651,-1.39827 0.87384,-0.0995 4.48955,1.67974 6.48229,3.18991 1.57949,1.197 5.05301,4.65649 6.70208,6.67502 0.47554,0.58209 0.0786,-0.0983 -0.88208,-1.51186 -2.4452,-3.59801 -4.43786,-7.97097 -5.71264,-12.53655 -1.18032,-4.22728 -1.24981,-5.48119 -0.31115,-5.6146 1.33749,-0.19008 4.67845,2.78501 7.67073,6.83072 2.30473,3.11613 4.92891,9.46499 6.39756,15.47813 l 0.51698,2.11666 0.0171,-6.08541 c 0.0183,-6.50759 -0.0986,-7.29667 -1.56893,-10.58333 -0.32549,-0.72761 -0.81946,-1.83166 -1.09771,-2.45345 -0.80302,-1.79445 -2.27181,-6.38953 -2.61832,-8.19135 -0.27708,-1.4408 -0.26164,-1.73361 0.1223,-2.31957 0.35679,-0.54454 0.53374,-0.62014 0.94114,-0.40211 1.19038,0.63707 2.56665,3.40219 3.55813,7.14877 l 0.66517,2.51354 -0.0564,-5.54356 -0.0564,-5.54355 -1.03619,-0.54186 c -1.28189,-0.67035 -2.41632,-2.19333 -2.93517,-3.94048 -0.521,-1.75439 -0.49768,-2.21596 0.12886,-2.55127 0.73678,-0.39432 2.05013,0.20436 3.11903,1.42177 l 0.85576,0.97465 v -1.46441 c 0,-0.80543 -0.11492,-1.46442 -0.25537,-1.46442 -0.14046,0 -0.66851,-0.36273 -1.17345,-0.80607 -1.10258,-0.96808 -1.81469,-2.69087 -1.6987,-4.10962 0.0846,-1.03497 0.0875,-1.03738 1.20929,-1.01459 l 1.12448,0.0228 v -1.16441 c 0,-1.49874 0.97546,-3.83081 1.55561,-3.71908 0.68472,0.13186 1.61232,2.11641 1.68532,3.60562 0.0572,1.16732 0.13196,1.33349 0.54208,1.2051 0.78838,-0.24678 1.24423,0.38182 1.24233,1.71314 -0.002,1.37801 -0.56635,2.41993 -1.90402,3.51501 -0.8399,0.68758 -0.86025,0.75488 -0.92002,3.04271 l -0.0611,2.33957 0.4769,-1.05833 c 0.56466,-1.25308 2.37336,-3.08801 2.93848,-2.98108 0.26407,0.05 0.42517,0.45735 0.47972,1.21317 0.11278,1.56266 -0.73646,3.21093 -2.35072,4.56247 l -1.30329,1.09117 0.0307,6.25922 c 0.0169,3.44257 0.0831,6.02109 0.14703,5.73005 0.43524,-1.97975 2.03233,-6.51211 2.57228,-7.29982 0.7758,-1.13176 2.22611,-1.93541 2.73323,-1.51453 0.70346,0.58382 0.25291,3.889 -0.99255,7.28119 -0.27812,0.7575 -1.15021,2.6625 -1.93799,4.23334 -2.38511,4.75594 -2.55467,5.56203 -2.54065,12.07821 l 0.012,5.59452 0.75672,-2.91041 c 1.59983,-6.15316 3.92925,-11.8934 6.24474,-15.38856 1.76542,-2.66483 5.78805,-6.85434 6.83316,-7.11665 1.17285,-0.29437 1.57649,0.28193 1.39552,1.99245 -0.26264,2.48246 -2.65266,9.29838 -4.33736,12.3694 -0.4967,0.90542 -0.81607,1.78702 -0.70971,1.95911 0.11505,0.18616 0.0801,0.2429 -0.0862,0.14011 -0.15376,-0.095 -0.51383,0.22427 -0.80016,0.70956 -0.28633,0.48529 -0.74447,1.22897 -1.01809,1.65262 -0.27362,0.42364 0.73772,-0.50909 2.24743,-2.07274 3.20203,-3.31646 5.50566,-5.09943 8.30796,-6.43024 2.59294,-1.23138 3.23818,-1.11373 3.01029,0.5489 -0.1992,1.45334 -1.89268,5.12803 -3.35695,7.28426 -2.73139,4.02215 -11.0256,11.43329 -15.92709,14.23136 -1.80493,1.03037 -2.40278,1.13547 -4.2105,0.74021 z"
         id="path17962" />
      <path
         style="fill:#a9a688;stroke-width:1.21554"
         d="m 189.49082,166.76412 c -0.46124,-0.10986 -1.5328,-0.6747 -2.38125,-1.25522 -0.84845,-0.58052 -2.48642,-1.69885 -3.63993,-2.48517 -2.58641,-1.7631 -7.63609,-6.32657 -9.59982,-8.6755 -3.88667,-4.64906 -6.4064,-9.9673 -4.98147,-10.51409 0.6421,-0.2464 2.83201,0.62685 5.19075,2.06986 2.12712,1.30131 6.22977,5.07471 8.42899,7.75255 0.91919,1.11925 0.79638,0.913 -1.33915,-2.24895 -2.43785,-3.60957 -4.22569,-7.79634 -5.64914,-13.22917 -1.09055,-4.16225 -0.82036,-4.863 1.41964,-3.68202 2.43228,1.28236 6.31527,5.859 8.4075,9.90938 1.76031,3.40783 3.97872,9.87271 4.58163,13.35181 0.1286,0.74208 0.21806,-1.26077 0.23745,-5.3164 0.0352,-7.36269 0.15772,-6.71846 -2.45413,-12.9056 -2.70308,-6.40325 -3.5491,-10.88997 -2.0925,-11.09721 1.17497,-0.16718 2.67425,2.68839 3.93309,7.49108 l 0.62415,2.38125 -0.0559,-5.82083 -0.0559,-5.82083 -0.61649,-0.0873 c -0.96519,-0.13671 -2.57614,-1.93584 -3.03236,-3.38656 -0.69732,-2.21745 -0.74479,-2.67801 -0.3198,-3.103 0.7673,-0.7673 2.57556,0.14187 3.60867,1.81439 l 0.49029,0.79375 9.9e-4,-1.60932 c 9.7e-4,-1.5652 -0.0259,-1.62685 -0.97951,-2.24896 -1.28118,-0.83579 -1.93103,-1.99981 -2.11577,-3.78978 -0.14327,-1.38809 -0.12022,-1.45957 0.52251,-1.62089 0.36982,-0.0928 0.90754,-0.0429 1.19494,0.1109 0.48737,0.26084 0.52994,0.17776 0.63235,-1.23427 0.12363,-1.70458 0.94071,-3.6306 1.54022,-3.6306 0.6369,0 1.5875,2.1909 1.5875,3.6588 0,1.20641 0.0409,1.28701 0.58155,1.14563 0.84097,-0.21992 1.27054,0.27242 1.27054,1.45622 0,1.3364 -0.77262,2.80613 -1.96535,3.73865 l -0.94507,0.73888 0.0105,2.30383 0.0105,2.30382 0.523,-1.04841 c 0.94314,-1.89067 2.74798,-3.44627 3.18968,-2.74922 0.74333,1.17305 -0.16629,3.48396 -2.11577,5.37519 l -1.35341,1.31297 0.0184,6.22765 c 0.0175,5.91042 0.0382,6.16027 0.40595,4.90474 1.39927,-4.77688 1.83814,-5.82136 2.92443,-6.9601 0.80052,-0.83917 1.26857,-1.12906 1.71979,-1.06518 0.51637,0.0731 0.63269,0.26459 0.69622,1.14611 0.13893,1.92754 -1.13686,6.04518 -3.22941,10.42299 -1.08552,2.271 -2.0994,4.60535 -2.25307,5.18743 -0.1589,0.60194 -0.27095,3.56849 -0.25983,6.87916 0.0187,5.5719 0.035,5.74988 0.37991,4.16168 0.53041,-2.44219 2.5604,-8.58228 3.83212,-11.59096 1.45116,-3.43324 4.11446,-7.42727 6.60213,-9.90092 2.30844,-2.29543 3.26581,-2.89577 3.93108,-2.46509 1.57472,1.01945 -2.08676,11.99366 -6.01169,18.01828 -0.59573,0.91442 -1.08314,1.72115 -1.08314,1.79274 0,0.0716 0.69559,-0.67658 1.54576,-1.66258 3.34834,-3.8833 7.47305,-7.12247 10.52254,-8.26343 1.33232,-0.49849 1.55996,-0.51964 1.90278,-0.17682 0.32548,0.32549 0.33804,0.59343 0.0765,1.6322 -1.4585,5.79224 -7.14501,12.49999 -15.89963,18.75502 -4.17896,2.98579 -5.47832,3.43534 -8.11466,2.80745 z"
         id="path18970" />
      <path
         style="fill:#947593;stroke-width:1.21554"
         d="m 189.80027,166.77227 c -1.13412,-0.2737 -1.70671,-0.61338 -5.55625,-3.29626 -3.94699,-2.75078 -8.17475,-6.50447 -10.41698,-9.24888 -3.97623,-4.86678 -6.3295,-9.78609 -4.93703,-10.32043 0.55086,-0.21138 2.90454,0.65398 4.77068,1.754 2.04794,1.2072 5.23382,3.93443 7.04259,6.02873 2.5459,2.9478 3.05341,3.44941 1.99023,1.9671 -3.21676,-4.48484 -5.39715,-9.11988 -6.92674,-14.7247 -1.36561,-5.004 -1.06102,-5.87303 1.48014,-4.22294 2.96183,1.92326 6.37038,6.14311 8.46345,10.47792 1.61127,3.337 4.11224,11.08846 4.28084,13.26795 0.0323,0.41692 0.12154,-1.98041 0.19843,-5.32739 0.16327,-7.10704 0.0652,-7.7589 -1.81922,-12.08696 -2.28118,-5.23942 -3.46493,-9.0602 -3.46493,-11.18371 0,-1.96902 1.0607,-1.93967 2.34464,0.0649 0.85601,1.33643 2.33374,5.55095 2.59612,7.40416 0.35222,2.48777 0.4796,1.05051 0.40739,-4.59672 l -0.0758,-5.92867 -0.8663,-0.36196 c -1.81296,-0.7575 -3.34771,-3.30406 -3.34771,-5.55474 0,-0.91512 0.0429,-0.96149 0.89036,-0.96149 1.01639,0 2.10471,0.75074 2.84266,1.96091 l 0.49833,0.81722 0.005,-0.92605 c 0.003,-0.50932 0.0726,-1.1793 0.15564,-1.48884 0.11954,-0.44546 -0.0833,-0.7213 -0.97294,-1.32292 -1.33158,-0.9005 -2.0536,-2.17815 -2.27173,-4.01988 -0.15091,-1.27424 -0.12476,-1.35128 0.51301,-1.51135 0.36961,-0.0928 0.9051,-0.0439 1.18998,0.10854 0.48044,0.25712 0.52792,0.16729 0.65553,-1.23991 0.15844,-1.74731 0.94719,-3.62251 1.52371,-3.62251 0.64456,0 1.58542,2.19376 1.58542,3.69664 0,1.33092 0.003,1.33555 0.8599,1.333 0.8084,-0.002 0.86493,0.0589 0.94404,1.02367 0.11339,1.38285 -0.28987,2.24787 -1.68728,3.61933 l -1.17499,1.15316 0.003,2.39231 0.003,2.39231 0.61695,-1.32485 c 0.78022,-1.67546 2.43152,-3.20629 2.97346,-2.75652 1.00901,0.8374 0.13542,3.22899 -1.95363,5.34832 l -1.50966,1.53155 v 6.20702 c 0,3.41387 0.0595,6.20684 0.13229,6.2066 0.0728,-2.4e-4 0.46516,-1.22661 0.872,-2.72526 0.93537,-3.44555 1.73483,-5.17291 2.81466,-6.08153 1.74568,-1.46889 2.40897,-0.65994 1.89218,2.30771 -0.44408,2.55008 -1.52017,5.55025 -2.94843,8.22029 -0.70058,1.30969 -1.59736,3.33375 -1.99285,4.49792 -0.69121,2.03463 -0.72006,2.3397 -0.74446,7.87136 -0.014,3.16508 0.0352,5.75469 0.10931,5.75468 0.0741,0 0.35147,-0.96447 0.61642,-2.14327 0.71111,-3.1638 2.94064,-9.51951 4.39932,-12.54111 2.15033,-4.4543 6.43222,-9.65191 8.86438,-10.76007 1.03463,-0.47141 1.56196,0.26076 1.32917,1.84549 -0.62753,4.27196 -3.77022,11.98942 -6.64616,16.3209 -0.53506,0.80586 -0.91991,1.51813 -0.85523,1.58281 0.0647,0.0647 0.64212,-0.53971 1.2832,-1.3431 3.46765,-4.34567 9.96415,-9.03869 12.15838,-8.78312 0.61109,0.0712 0.67058,0.18072 0.61753,1.13709 -0.0875,1.57698 -2.6328,6.48402 -4.69098,9.0436 -2.25169,2.80022 -5.85231,6.16031 -9.6701,9.02411 -5.45552,4.09228 -6.79767,4.67012 -9.39271,4.04386 z"
         id="path18884" />
      <path
         style="fill:#988d71;stroke-width:1.21554"
         d="m 189.80027,166.77226 c -1.13412,-0.2737 -1.70671,-0.61338 -5.55625,-3.29626 -3.94699,-2.75078 -8.17475,-6.50447 -10.41698,-9.24888 -3.97623,-4.86678 -6.3295,-9.78609 -4.93703,-10.32043 0.55086,-0.21138 2.90454,0.65398 4.77068,1.754 2.04794,1.2072 5.23382,3.93443 7.04259,6.02873 2.5459,2.9478 3.05341,3.44941 1.99023,1.9671 -3.21676,-4.48484 -5.39715,-9.11988 -6.92674,-14.7247 -1.36561,-5.004 -1.06102,-5.87303 1.48014,-4.22294 2.96183,1.92326 6.37038,6.14311 8.46345,10.47792 1.61127,3.337 4.11224,11.08846 4.28084,13.26795 0.0323,0.41692 0.12154,-1.98041 0.19843,-5.32739 0.16327,-7.10704 0.0652,-7.7589 -1.81922,-12.08696 -2.28118,-5.23942 -3.46493,-9.0602 -3.46493,-11.18371 0,-1.96902 1.0607,-1.93967 2.34464,0.0649 0.85601,1.33643 2.33374,5.55095 2.59612,7.40416 0.35222,2.48777 0.4796,1.05051 0.40739,-4.59672 l -0.0758,-5.92867 -0.8663,-0.36196 c -1.81296,-0.7575 -3.34771,-3.30406 -3.34771,-5.55474 0,-0.91512 0.0429,-0.96149 0.89036,-0.96149 1.01639,0 2.10471,0.75074 2.84266,1.96091 l 0.49833,0.81722 0.005,-0.92605 c 0.003,-0.50932 0.0726,-1.1793 0.15564,-1.48884 0.11954,-0.44546 -0.0833,-0.7213 -0.97294,-1.32292 -1.33158,-0.9005 -2.0536,-2.17815 -2.27173,-4.01988 -0.15091,-1.27424 -0.12476,-1.35128 0.51301,-1.51135 0.36961,-0.0928 0.9051,-0.0439 1.18998,0.10854 0.48044,0.25712 0.52792,0.16729 0.65553,-1.23991 0.15844,-1.74731 0.94719,-3.62251 1.52371,-3.62251 0.64456,0 1.58542,2.19376 1.58542,3.69664 0,1.33092 0.003,1.33555 0.8599,1.333 0.8084,-0.002 0.86493,0.0589 0.94404,1.02367 0.11339,1.38285 -0.28987,2.24787 -1.68728,3.61933 l -1.17499,1.15316 0.003,2.39231 0.003,2.39231 0.61695,-1.32485 c 0.78022,-1.67546 2.43152,-3.20629 2.97346,-2.75652 1.00901,0.8374 0.13542,3.22899 -1.95363,5.34832 l -1.50966,1.53155 v 6.20702 c 0,3.41387 0.0595,6.20684 0.13229,6.2066 0.0728,-2.4e-4 0.46516,-1.22661 0.872,-2.72526 0.93537,-3.44555 1.73483,-5.17291 2.81466,-6.08153 1.74568,-1.46889 2.40897,-0.65994 1.89218,2.30771 -0.44408,2.55008 -1.52017,5.55025 -2.94843,8.22029 -0.70058,1.30969 -1.59736,3.33375 -1.99285,4.49792 -0.69121,2.03463 -0.72006,2.3397 -0.74446,7.87136 -0.014,3.16508 0.0352,5.75469 0.10931,5.75468 0.0741,0 0.35147,-0.96447 0.61642,-2.14327 0.71111,-3.1638 2.94064,-9.51951 4.39932,-12.54111 2.15033,-4.4543 6.43222,-9.65191 8.86438,-10.76007 1.03463,-0.47141 1.56196,0.26076 1.32917,1.84549 -0.62753,4.27196 -3.77022,11.98942 -6.64616,16.3209 -0.53506,0.80586 -0.91991,1.51813 -0.85523,1.58281 0.0647,0.0647 0.64212,-0.53971 1.2832,-1.3431 3.46765,-4.34567 9.96415,-9.03869 12.15838,-8.78312 0.61109,0.0712 0.67058,0.18072 0.61753,1.13709 -0.0875,1.57698 -2.6328,6.48402 -4.69098,9.0436 -2.25169,2.80022 -5.85231,6.16031 -9.6701,9.02411 -5.45552,4.09228 -6.79767,4.67012 -9.39271,4.04386 z"
         id="path18798" />
      <path
         style="fill:#8b785e;stroke-width:1.21554"
         d="m 189.93256,166.77196 c -1.23585,-0.24712 -1.6923,-0.5106 -5.57308,-3.21698 -7.14255,-4.98109 -12.85012,-11.18159 -15.21503,-16.52909 -1.22919,-2.77941 -0.78801,-3.52599 1.60605,-2.71776 3.2534,1.09834 8.22849,5.03427 11.24456,8.89587 1.67177,2.14045 2.19073,2.3615 0.61297,0.2611 -1.63677,-2.17895 -3.30959,-5.11231 -4.64373,-8.14295 -1.30961,-2.97492 -3.29373,-9.99527 -3.02375,-10.69883 0.33345,-0.86898 0.99612,-0.75319 2.81947,0.49265 3.45339,2.35959 7.48074,8.21706 9.52815,13.85793 1.22881,3.3855 2.64439,8.49477 2.64439,9.54439 0,0.50323 0.088,0.82702 0.19545,0.71952 0.1075,-0.1075 0.16694,-3.2178 0.13209,-6.91179 -0.0713,-7.55345 0.11499,-6.63012 -2.67393,-13.25562 -2.11405,-5.02223 -3.11694,-9.3177 -2.42927,-10.40477 0.20706,-0.32732 0.34256,-0.33154 0.90908,-0.0283 1.0138,0.54257 2.44106,3.55118 3.34167,7.04411 0.82282,3.19121 1.26294,4.27292 0.96215,2.36472 -0.0918,-0.58208 -0.16814,-3.34869 -0.16975,-6.14801 l -0.003,-5.08968 -0.86403,-0.36102 c -1.78243,-0.74474 -3.5044,-3.59014 -3.32305,-5.49104 0.0705,-0.73883 0.20565,-0.91486 0.7475,-0.97351 0.86528,-0.0937 2.29603,0.8045 2.85975,1.79523 0.24615,0.43261 0.50707,0.7867 0.57983,0.78687 0.0728,1.8e-4 0.15386,-0.6576 0.18021,-1.46172 0.0466,-1.42111 0.0202,-1.47957 -0.944,-2.08821 -1.27879,-0.80726 -1.84534,-1.69512 -2.21928,-3.47788 -0.37767,-1.80054 -0.007,-2.36722 1.30298,-1.99154 l 0.81797,0.23459 0.13713,-1.51224 c 0.14859,-1.63867 1.09557,-3.81984 1.58728,-3.65594 0.61829,0.2061 1.50395,2.42672 1.51151,3.78984 0.007,1.33604 0.0116,1.34262 0.78907,1.22852 0.66526,-0.0976 0.80746,-0.0118 0.95516,0.57673 0.33966,1.35329 -0.12937,2.59574 -1.49568,3.96205 l -1.29943,1.29943 0.003,2.4096 0.003,2.4096 0.62106,-1.33373 c 0.62698,-1.34642 2.01142,-2.76732 2.69632,-2.76732 0.5498,0 0.72698,1.09865 0.38313,2.37563 -0.21038,0.78128 -0.82319,1.67806 -2.01074,2.9425 l -1.70814,1.81874 0.0232,6.08886 c 0.0128,3.34887 0.11186,6.08886 0.22019,6.08886 0.10832,0 0.41742,-0.86321 0.68688,-1.91823 0.88316,-3.45788 1.95459,-5.93045 2.94767,-6.80238 1.77156,-1.55545 2.46933,-0.77365 1.95236,2.18744 -0.45123,2.58449 -0.96506,3.99983 -3.04427,8.38525 -2.62598,5.53865 -2.72617,6.00449 -2.735,12.7159 -0.004,3.05399 0.0888,5.49329 0.20631,5.42068 0.11749,-0.0726 0.35814,-0.87907 0.53478,-1.79212 0.4512,-2.3323 2.94228,-9.71366 4.18859,-12.41131 0.57446,-1.24342 1.67486,-3.19495 2.44533,-4.33674 1.67234,-2.47829 5.15983,-6.18282 6.48915,-6.89299 0.94352,-0.50406 0.95561,-0.50388 1.34687,0.0205 0.56458,0.75673 0.30186,2.18185 -1.28879,6.99103 -1.28647,3.88952 -3.37671,8.4179 -4.95093,10.72592 -1.29377,1.89684 -1.41399,2.42667 -0.24245,1.06846 2.46455,-2.8572 4.56659,-4.88471 6.52964,-6.29811 3.57495,-2.57399 6.44396,-3.71146 6.82919,-2.70756 0.38312,0.99839 -1.84193,5.85598 -4.06449,8.87338 -2.01686,2.73812 -6.66804,7.22699 -10.20787,9.85165 -5.87687,4.35748 -6.72338,4.73317 -9.44068,4.18983 z m 4.95093,-7.18436 c 0.56761,-1.01679 0.71258,-1.47726 0.4651,-1.47726 -0.19775,0 -0.35206,0.0695 -0.34292,0.15434 0.056,0.5201 -0.0823,0.8246 -0.31061,0.68351 -0.14552,-0.0899 -0.27343,-0.0672 -0.28425,0.0505 -0.0803,0.87423 -0.3075,1.54527 -0.58233,1.71987 -0.17822,0.11323 -0.228,0.2077 -0.11061,0.20992 0.1174,0.002 0.0281,0.26867 -0.19843,0.59209 -0.22654,0.32343 -0.41144,0.71038 -0.41089,0.8599 0.001,0.2889 0.44121,-0.40369 1.77494,-2.7929 z m -11.71394,1.65021 c -0.44544,-0.40567 -0.7638,-0.9082 -0.70746,-1.11673 0.0747,-0.27662 0.0407,-0.29224 -0.126,-0.0577 -0.16938,0.23832 -0.42457,0.15284 -0.98734,-0.33073 -0.4174,-0.35866 -0.82969,-0.6489 -0.9162,-0.64496 -0.17087,0.008 1.30329,1.35436 2.52273,2.3044 1.05867,0.82478 1.18746,0.73207 0.21427,-0.15423 z m 14.2723,-1.24503 c 0.0904,-0.23546 0.046,-0.34166 -0.10399,-0.24897 -0.40246,0.24874 -0.30982,-0.29389 0.10959,-0.64197 0.28492,-0.23646 0.4073,-0.22862 0.52673,0.0337 0.0856,0.18797 0.0923,0.0839 0.015,-0.23128 -0.0773,-0.31517 -0.0167,-0.64962 0.13473,-0.74322 0.15144,-0.0936 0.27535,-0.30007 0.27535,-0.45884 0,-0.15876 -0.35501,0.20141 -0.7889,0.80038 -0.44728,0.61745 -0.72145,1.26479 -0.63315,1.4949 0.19538,0.50917 0.26774,0.50843 0.46467,-0.005 z m 2.80946,0.14604 c 0.005,0.25973 0.0753,0.29552 0.20249,0.10358 0.10691,-0.16131 0.75265,-0.77382 1.43498,-1.36114 0.68233,-0.58731 1.18551,-1.12294 1.11817,-1.19028 -0.0673,-0.0673 -0.66168,0.39425 -1.32076,1.02574 -0.65909,0.63149 -1.32597,1.1205 -1.48197,1.08669 -0.156,-0.0338 -0.33735,0.11712 -0.403,0.33541 -0.1061,0.35277 -0.0882,0.35277 0.16131,0 0.24949,-0.35278 0.28158,-0.35278 0.28878,0 z m -15.84955,-1.78594 c -0.29687,-0.40018 -0.75146,-0.99482 -1.01021,-1.32141 l -0.47045,-0.5938 v 0.63468 c 0,0.34908 0.0787,0.58603 0.17497,0.52655 0.0962,-0.0595 0.51256,0.24955 0.92518,0.68673 0.93542,0.99108 1.0855,1.0176 0.38051,0.0673 z m 9.76133,-2.53045 c -0.18668,-0.1726 -0.26851,-0.18622 -0.18185,-0.0303 0.0867,0.15596 -0.0149,0.61605 -0.22576,1.02243 -0.21084,0.40639 -0.38324,0.93363 -0.38313,1.17166 1.2e-4,0.23802 0.25445,-0.0808 0.56518,-0.70861 0.45668,-0.92261 0.49992,-1.20153 0.22556,-1.45521 z m 7.79671,1.65227 c -0.0837,-0.13546 0.10567,-0.2463 0.42087,-0.2463 0.40071,0 0.52728,-0.11938 0.42079,-0.39688 -0.0838,-0.21828 -0.007,-0.40627 0.17013,-0.41776 0.23279,-0.0151 0.22721,-0.0591 -0.02,-0.15825 -0.41054,-0.16468 -1.71676,1.16688 -1.49564,1.52466 0.0852,0.13784 0.26767,0.18091 0.40551,0.0957 0.13784,-0.0852 0.18211,-0.26572 0.0984,-0.40119 z m -23.47089,-0.36325 c -0.67214,-0.49148 -0.56992,-0.64755 0.33115,-0.50554 0.44859,0.0707 0.79375,0.007 0.79375,-0.14707 0,-0.14969 -0.19926,-0.1957 -0.44281,-0.10224 -0.31729,0.12175 -0.40065,0.0601 -0.29409,-0.21763 0.10569,-0.27543 -0.0532,-0.39851 -0.54938,-0.42547 -0.57317,-0.0311 -0.60686,-0.002 -0.18827,0.16306 0.47479,0.18716 0.4777,0.2133 0.0423,0.38039 -0.54283,0.2083 -1.02642,-0.0121 -0.80667,-0.36765 0.083,-0.13432 0.0164,-0.45351 -0.14796,-0.70933 -0.28262,-0.43981 -0.29105,-0.43992 -0.15491,-0.002 0.19522,0.62786 -0.16434,0.58627 -0.57178,-0.0661 -0.18176,-0.29104 -0.47456,-0.52916 -0.65067,-0.52916 -0.17611,0 0.38363,0.71126 1.24388,1.58058 0.86025,0.86932 1.63024,1.51443 1.71109,1.43357 0.0809,-0.0808 -0.0612,-0.29922 -0.3156,-0.48527 z m 28.2786,-2.71632 c 2.48001,-2.79437 2.98432,-3.53445 0.88373,-1.29686 -0.94127,1.00265 -1.8146,1.9992 -1.94074,2.21456 -0.19236,0.32841 -0.27106,0.3331 -0.48798,0.0291 -0.19555,-0.27406 -0.22023,-0.24414 -0.1012,0.12266 0.19163,0.59051 -0.34058,0.47687 -0.74121,-0.15826 -0.21163,-0.3355 -0.13127,-0.58798 0.35028,-1.10057 0.34371,-0.36586 0.74507,-0.59094 0.89193,-0.50018 0.15901,0.0983 0.1843,0.0312 0.0625,-0.16582 -0.14478,-0.23426 -0.57975,0.0388 -1.48999,0.93536 -0.70704,0.6964 -1.219,1.33271 -1.1377,1.41402 0.0813,0.0813 0.31669,-0.0831 0.52307,-0.36535 0.33897,-0.46356 0.50148,-0.38112 0.40002,0.20294 -0.0208,0.11996 0.0759,0.14778 0.21497,0.0618 0.49349,-0.30499 0.59902,0.42315 0.11748,0.8106 -0.46333,0.3728 -0.4597,0.37952 0.0678,0.12569 0.30655,-0.1475 1.38068,-1.19586 2.38696,-2.3297 z m -24.16355,1.44421 c -2.16887,-2.87331 -4.75522,-5.75469 -5.16546,-5.75469 -0.11496,0 0.33448,0.5358 0.99874,1.19066 0.70778,0.69776 1.12962,1.31709 1.01899,1.49609 -0.10463,0.1693 -0.0737,0.23429 0.0695,0.14581 0.26664,-0.16479 1.14641,0.69254 1.14641,1.11717 0,0.13173 0.14883,0.29266 0.33073,0.35762 0.1819,0.065 0.24431,0.21092 0.13869,0.32434 -0.10563,0.11342 -0.40328,0.0404 -0.66146,-0.16222 -0.42684,-0.33501 -0.43648,-0.32643 -0.10629,0.0946 0.28743,0.36651 0.29203,0.46302 0.0221,0.46302 -0.18759,0 -0.2719,0.0692 -0.18735,0.15373 0.0846,0.0846 0.39378,0.0253 0.68718,-0.13177 0.41327,-0.22117 0.62756,-0.19139 0.95114,0.13219 0.22972,0.22972 0.35002,0.52714 0.26734,0.66093 -0.0827,0.13379 0.0499,0.24326 0.29455,0.24326 0.31266,0 0.37069,-0.0983 0.19524,-0.33073 z m 18.11287,-1.19745 c 0.47432,-0.68747 1.32366,-1.76563 1.88742,-2.39591 0.93623,-1.0467 1.07352,-1.11567 1.585,-0.79625 0.73628,0.45981 0.71605,0.82596 -0.0353,0.63957 -0.32742,-0.0812 -0.44648,-0.0793 -0.26458,0.004 0.1819,0.0835 0.33073,0.26806 0.33073,0.41004 0,0.14199 -0.13746,0.1732 -0.30547,0.0694 -0.19507,-0.12057 -0.23339,-0.0722 -0.10602,0.13391 0.25424,0.41137 1.28417,-0.44736 1.10295,-0.91961 -0.0665,-0.17335 0.008,-0.44371 0.16467,-0.60079 0.20442,-0.20443 0.18886,-0.40219 -0.0547,-0.69571 -0.28497,-0.34338 -0.23794,-0.51159 0.28903,-1.03384 0.34616,-0.34305 0.87743,-0.70106 1.1806,-0.79557 0.45262,-0.1411 0.8255,-0.95792 0.43729,-0.95792 -0.29902,0 -4.00792,3.79367 -5.43209,5.55625 -2.13425,2.64137 -2.13815,2.64686 -1.87267,2.63901 0.12696,-0.004 0.61891,-0.5693 1.09323,-1.25677 z m 3.50323,-3.49891 c -0.31255,-0.19316 -0.32557,-0.30943 -0.0639,-0.57106 0.25552,-0.25552 0.39908,-0.25796 0.64602,-0.011 0.20247,0.20247 0.22563,0.40937 0.0639,0.57107 -0.15558,0.15557 -0.40523,0.15983 -0.64602,0.011 z m -24.71953,3.37344 c -0.21454,-0.32742 -0.39588,-0.68461 -0.40298,-0.79375 -0.007,-0.10914 -0.0541,-0.16867 -0.10453,-0.13229 -0.0504,0.0364 -0.31354,-0.11245 -0.58477,-0.33073 -0.27123,-0.21828 -0.091,0.10914 0.40049,0.7276 0.96694,1.21673 1.31849,1.48564 0.69179,0.52917 z m 15.57251,-0.34963 c 0.54924,-0.54924 0.53494,-0.80625 -0.0193,-0.3463 -0.38673,0.32095 -0.41413,0.29517 -0.24675,-0.23219 0.28335,-0.89278 -0.0184,-0.71319 -0.3369,0.20052 -0.3027,0.86833 -0.0475,1.02835 0.60292,0.37797 z m -7.59333,-1.34557 c -0.20636,-0.41371 -0.53392,-1.33793 -0.72791,-2.05383 -0.26692,-0.98503 -0.39556,-1.17949 -0.52886,-0.7995 -0.0971,0.27676 -0.0309,0.64733 0.14736,0.82563 0.17792,0.17793 0.40803,0.77582 0.51135,1.32867 0.18315,0.98003 0.63012,1.79436 0.85916,1.56532 0.0628,-0.0628 -0.0547,-0.45259 -0.2611,-0.86629 z m 11.49047,-0.55543 c 0.24127,-0.39926 0.686,-1.11288 0.9883,-1.58583 0.3023,-0.47294 0.45143,-0.85989 0.33141,-0.85989 -0.12002,0 -0.36458,0.32121 -0.54346,0.7138 -0.17887,0.3926 -0.40635,0.60095 -0.50549,0.46302 -0.0991,-0.13793 -0.35885,-0.28227 -0.57713,-0.32076 -0.28648,-0.0505 -0.25997,0.0371 0.0953,0.31508 0.47729,0.3734 0.47474,0.40954 -0.0842,1.19445 -0.31699,0.44518 -0.47894,0.80865 -0.35989,0.80773 0.11905,-9.2e-4 0.41386,-0.32834 0.65512,-0.7276 z m 7.95683,0.0848 c 0.0828,0.0828 0.24033,0.005 0.35014,-0.17259 0.12759,-0.20645 0.0894,-0.25492 -0.10579,-0.13428 -0.44856,0.27722 -0.37266,-0.25106 0.0914,-0.63619 0.21828,-0.18116 0.39687,-0.4385 0.39687,-0.57187 0,-0.3401 -0.85724,0.5495 -1.44341,1.49791 -0.48756,0.78885 -0.48734,0.79089 0.0349,0.33015 0.289,-0.25498 0.59317,-0.39589 0.67592,-0.31313 z m -22.92029,-0.67848 c 0.18881,0 0.46465,0.20836 0.61298,0.46302 0.14833,0.25466 0.27066,0.34396 0.27185,0.19844 0.001,-0.14552 -0.20355,-0.50344 -0.45498,-0.79536 -0.25142,-0.29193 -0.43729,-0.49037 -0.41304,-0.44098 0.0243,0.0494 -0.15434,0.2989 -0.39687,0.55445 -0.33158,0.34937 -0.53357,0.39313 -0.81421,0.17639 -0.32126,-0.24811 -0.32126,-0.20468 0,0.31187 0.36733,0.59062 0.37701,0.59167 0.6121,0.0661 0.13138,-0.29368 0.39336,-0.53397 0.58217,-0.53397 z m 11.67408,0.33073 c 0.0613,0.25466 0.22173,0.46302 0.35658,0.46302 0.32683,0 0.31347,-0.45573 -0.0194,-0.66146 -0.14553,-0.0899 -0.27426,-0.42438 -0.28608,-0.74322 -0.0187,-0.504 -0.069,-0.47605 -0.38494,0.21405 -0.1999,0.43657 -0.36127,0.97235 -0.35861,1.19063 0.003,0.21828 0.13449,0.0992 0.29295,-0.26458 0.23741,-0.54506 0.30771,-0.57998 0.3995,-0.19844 z m -19.67011,0.13229 c -0.0808,-0.1819 -0.58308,-0.68775 -1.11617,-1.12411 -0.99562,-0.81497 -0.68015,-0.22801 0.45845,0.85297 0.72009,0.68366 0.86809,0.74467 0.65772,0.27114 z m -2.06016,-0.23932 c 0.10992,-0.17784 0.0733,-0.23406 -0.0877,-0.13456 -0.33271,0.20563 -1.21654,-1.05499 -0.99312,-1.4165 0.0874,-0.14142 -0.0244,-0.18447 -0.25207,-0.0971 -0.44641,0.1713 -0.35055,0.45005 0.4671,1.3583 0.62243,0.69141 0.61847,0.69008 0.86582,0.28985 z m 2.63144,-2.795 c -0.40336,-0.34696 -0.80176,-0.56246 -0.88533,-0.47889 -0.0836,0.0836 0.11075,0.33595 0.43183,0.56084 0.32108,0.22489 0.51607,0.51844 0.43332,0.65234 -0.0831,0.13453 0.0518,0.16585 0.30155,0.07 0.39278,-0.15072 0.3559,-0.25613 -0.28137,-0.80428 z m 32.39308,-1.47969 c 0.004,-0.11799 -0.46874,0.33574 -1.05083,1.00828 -0.58208,0.67255 -1.05833,1.30055 -1.05833,1.39557 0,0.24761 2.10013,-2.14595 2.10916,-2.40385 z m 1.98743,1.14937 c 0.36625,-0.72277 0.66065,-1.40738 0.65422,-1.52135 -0.006,-0.11398 -0.2474,0.23925 -0.53549,0.78495 -0.28809,0.5457 -0.63627,0.99219 -0.77375,0.99219 -0.13748,0 -0.17393,0.19812 -0.081,0.44028 0.12267,0.31968 0.073,0.38095 -0.18148,0.2237 -0.23316,-0.1441 -0.28725,-0.11436 -0.16164,0.0889 0.29043,0.46991 0.36542,0.39981 1.07915,-1.00866 z m -26.31488,0.40571 c -0.17167,-0.45153 -0.14996,-0.68237 0.0727,-0.77286 0.17461,-0.071 0.0964,-0.13844 -0.17385,-0.14993 -0.35559,-0.0151 -0.44263,-0.14881 -0.31505,-0.4839 0.13045,-0.34268 0.0987,-0.38611 -0.12209,-0.16711 -0.22131,0.21949 -0.19468,0.54403 0.10312,1.25677 0.4442,1.06313 0.82405,1.33986 0.43518,0.31703 z m -2.81475,0.0662 c -0.0764,-0.12364 -0.23236,-0.16707 -0.34655,-0.0965 -0.11419,0.0706 -0.35018,-0.18459 -0.52442,-0.56702 -0.25133,-0.5516 -0.24634,-0.73888 0.0241,-0.90603 0.22554,-0.13939 0.14057,-0.19562 -0.25105,-0.16612 -0.71351,0.0537 -0.70851,-0.0312 -0.0627,1.06339 0.29111,0.49339 0.70259,0.89707 0.9144,0.89707 0.21182,0 0.3226,-0.10116 0.24619,-0.2248 z m 3.55609,-2.22806 c -0.54001,-1.28648 -0.9107,-1.89386 -0.9695,-1.58855 -0.0524,0.27188 0.0326,0.57329 0.18874,0.6698 0.15616,0.0965 0.32015,0.40844 0.36441,0.69316 0.0443,0.28473 0.17337,0.66651 0.28688,0.84841 0.11352,0.18191 0.12145,0.46819 0.0176,0.6362 -0.11697,0.18925 -0.0726,0.23364 0.11667,0.11667 0.28419,-0.17563 0.44695,0.3533 0.3179,1.03307 -0.0285,0.15011 0.08,0.13685 0.25068,-0.0307 0.22418,-0.21995 0.078,-0.82637 -0.5734,-2.3781 z m 11.68737,0.56504 c 0,-0.75706 1.08916,-2.63554 1.31564,-2.26909 0.1288,0.20841 0.26697,0.23373 0.36956,0.0677 0.14932,-0.24161 -0.58535,-0.71485 -0.79081,-0.50939 -0.14053,0.14053 -1.68814,3.60017 -1.68814,3.7738 0,0.0864 0.17859,-0.0216 0.39687,-0.23987 0.21829,-0.21829 0.39688,-0.58872 0.39688,-0.82319 z m 12.52772,-0.87237 c 0.19629,0.2524 0.43442,0.38138 0.52917,0.28663 0.26448,-0.26448 0.20436,-0.66431 -0.074,-0.49225 -0.13546,0.0837 -0.31578,0.0398 -0.40071,-0.0976 -0.14743,-0.23855 0.59274,-0.61506 0.94997,-0.48322 0.0939,0.0346 0.40638,-0.15035 0.69449,-0.41108 0.2881,-0.26073 0.67267,-0.43933 0.8546,-0.39688 0.18192,0.0425 0.38534,-0.0716 0.45203,-0.25354 0.0667,-0.1819 0.022,-0.32697 -0.0992,-0.32236 -0.53728,0.0204 -3.90584,2.01559 -4.0062,2.37288 -0.069,0.2455 0.0515,0.19504 0.31577,-0.13229 0.40237,-0.49838 0.448,-0.50246 0.78412,-0.0703 z M 170.40048,145.919 c -0.39515,-0.32012 -0.37124,-0.33999 0.2175,-0.1808 0.88341,0.23888 0.92461,0.2981 0.53447,0.76819 -0.27729,0.33411 -0.25839,0.40327 0.1102,0.40327 0.24469,0 0.37131,-0.11906 0.28137,-0.26458 -0.0899,-0.14552 -0.0374,-0.26459 0.11668,-0.26459 0.64366,0 0.20579,-0.50148 -0.78349,-0.89731 -1.39613,-0.55862 -1.37756,-0.56937 -0.86674,0.50183 0.28698,0.6018 0.51103,0.81617 0.63811,0.61054 0.10984,-0.17771 8.8e-4,-0.47485 -0.2481,-0.67655 z m 13.29037,-2.25049 c -0.44919,-0.88903 -2.16465,-3.27228 -3.18999,-4.43177 -0.32171,-0.3638 -0.81382,-0.92718 -1.09358,-1.25195 -0.27976,-0.32478 -0.5808,-0.51836 -0.66898,-0.43018 -0.0882,0.0882 0.10251,0.37971 0.42374,0.64784 0.56328,0.47017 0.56523,0.48798 0.0549,0.50038 -0.43088,0.0105 -0.45675,0.0586 -0.13927,0.25942 0.23848,0.15081 0.44863,0.15152 0.54114,0.002 0.0832,-0.1346 0.32446,0.007 0.53615,0.31505 0.2117,0.30788 0.65279,0.8356 0.98021,1.17271 0.32743,0.33712 0.59532,0.81678 0.59532,1.06593 0,0.24915 0.0753,0.37766 0.16741,0.28559 0.26167,-0.26167 1.20874,1.0909 1.25039,1.78575 0.0206,0.34317 0.11847,0.57389 0.21756,0.51272 0.0991,-0.0612 0.25494,0.01 0.34634,0.15768 0.39184,0.63401 0.37601,0.19542 -0.0213,-0.591 z m 20.62243,-2.05162 c 0.0936,-0.36319 -0.0481,-0.18494 -0.31492,0.39612 -0.28746,0.62604 -0.53515,0.90631 -0.60795,0.68791 -0.0676,-0.2027 -0.12285,0.0829 -0.12285,0.63468 v 1.00322 l 0.43777,-1.03078 c 0.24078,-0.56694 0.51436,-1.32795 0.60795,-1.69115 z m -4.47155,0.49025 c -0.14544,-0.45825 -0.0947,-0.5362 0.2605,-0.39991 0.27301,0.10476 0.37588,0.0637 0.2699,-0.1078 -0.0942,-0.1524 0.16311,-0.75958 0.57177,-1.34928 0.40866,-0.5897 0.78712,-0.9399 0.84102,-0.77821 0.0539,0.16168 0.29642,0.28457 0.53896,0.27308 0.27499,-0.013 0.31649,-0.0711 0.11024,-0.15434 -0.51348,-0.20719 -0.38982,-0.82869 0.20228,-1.01661 0.29316,-0.0931 0.46773,-0.27479 0.38795,-0.40388 -0.0798,-0.12909 0.23493,-0.59783 0.69934,-1.04166 0.46442,-0.44382 0.78214,-0.86921 0.70603,-0.94532 -0.14933,-0.14933 -3.43148,3.47081 -4.32767,4.77333 -0.89122,1.29527 -1.02473,1.55791 -0.68537,1.34818 0.168,-0.10384 0.30546,-0.0627 0.30546,0.0914 0,0.15411 0.0676,0.2802 0.15012,0.2802 0.0826,0 0.0688,-0.25614 -0.0305,-0.56919 z m -22.16948,-1.08446 c -0.16248,-0.69122 -0.38172,-1.25677 -0.48719,-1.25677 -0.10548,0 -0.0202,0.56555 0.18958,1.25677 0.20975,0.69123 0.38265,1.30638 0.38422,1.36702 0.002,0.0606 0.0492,0.0606 0.10584,0 0.0566,-0.0606 -0.03,-0.67579 -0.19245,-1.36702 z m 28.0378,-5.05153 c -0.0689,-0.16845 -0.1347,-0.0384 -0.14619,0.28903 -0.0121,0.34503 -0.18868,0.59531 -0.42,0.59531 -0.33369,0 -0.34461,0.0873 -0.0666,0.53236 0.31665,0.50706 0.34258,0.49331 0.5453,-0.28903 0.11707,-0.45176 0.15646,-0.95921 0.0875,-1.12767 z m -16.21098,-13.27086 c -0.0838,-0.21828 -0.31815,-0.39688 -0.52086,-0.39688 -0.20271,0 -0.36857,-0.12609 -0.36857,-0.2802 0,-0.15411 0.11907,-0.20661 0.26459,-0.11667 0.4445,0.27471 0.2942,-0.0448 -0.19844,-0.4219 -0.25466,-0.19493 -0.37791,-0.25338 -0.27389,-0.12991 0.10402,0.12348 0.0624,0.46135 -0.0926,0.75082 -0.15492,0.28946 -0.16827,0.45622 -0.0297,0.37056 0.1386,-0.0857 0.4779,0.0152 0.754,0.22424 0.63379,0.47974 0.64951,0.47973 0.46539,-6e-5 z m 3.18809,-5.97343 c 0.69692,-0.82823 0.92983,-2.09636 0.38504,-2.09636 -0.42079,0 -1.55575,1.37305 -1.53093,1.85208 0.0142,0.27365 0.0622,0.29367 0.15457,0.0645 0.0737,-0.18281 0.26129,-0.25371 0.41686,-0.15756 0.15718,0.0971 0.20655,0.0513 0.11112,-0.10308 -0.0945,-0.15285 0.0618,-0.5582 0.34719,-0.90078 0.43583,-0.52311 0.52035,-0.54871 0.52775,-0.15985 0.005,0.25466 -0.13011,0.46302 -0.29988,0.46302 -0.16978,0 -0.2335,0.0752 -0.1416,0.16708 0.26165,0.26165 -0.31831,1.15584 -0.74965,1.15584 -0.21317,0 -0.38757,0.11906 -0.38757,0.26458 0,0.49342 0.47955,0.26765 1.1671,-0.54947 z m -3.73002,-0.17814 c -0.0908,-0.25466 -0.27905,-0.61044 -0.41837,-0.79061 -0.17497,-0.22629 -0.11309,-0.38141 0.20007,-0.50158 0.26537,-0.10183 0.55034,-0.0208 0.6872,0.19531 0.18826,0.2973 0.23462,0.30019 0.23788,0.0148 0.004,-0.35182 -1.00455,-1.33965 -1.38501,-1.35653 -0.34357,-0.0152 -0.21561,1.30718 0.20524,2.121 0.4425,0.85571 0.73478,1.05196 0.47299,0.31759 z m 2.51505,-3.30729 c -0.0536,-0.37695 -0.25446,-0.58183 -0.54757,-0.55856 -0.25459,0.0202 -0.46289,-0.0691 -0.46289,-0.19844 0,-0.12935 0.11906,-0.23518 0.26458,-0.23518 0.14552,0 0.26458,-0.18852 0.26458,-0.41893 0,-0.23041 -0.14883,-0.37003 -0.33073,-0.31028 -0.42152,0.13848 -0.6069,2.05212 -0.19879,2.05212 0.16289,0 0.23029,-0.10658 0.14978,-0.23686 -0.0805,-0.13027 0.0393,-0.30811 0.26627,-0.39521 0.31628,-0.12136 0.37355,-0.0351 0.24524,0.36915 -0.10024,0.31581 -0.0467,0.52751 0.13339,0.52751 0.16545,0 0.26271,-0.2679 0.21614,-0.59532 z"
         id="path18713" />
      <path
         style="fill:#5b5b54;stroke-width:1.21554"
         d="m 189.66802,166.65866 c -1.61423,-0.43874 -8.132,-4.9759 -11.44261,-7.96545 -4.24659,-3.83477 -8.12207,-9.00595 -9.34205,-12.46543 -0.56933,-1.61443 -0.40344,-2.22862 0.60187,-2.22834 0.86559,2.5e-4 3.53501,1.21721 5.30684,2.41934 2.04693,1.38878 5.32969,4.45926 6.88686,6.44152 1.85559,2.36214 1.90367,2.41515 1.90367,2.09879 0,-0.14216 -0.48478,-0.90365 -1.07729,-1.6922 -2.85988,-3.80615 -5.26665,-8.97887 -6.7313,-14.46718 -0.99399,-3.72468 -1.03551,-4.46183 -0.26791,-4.75639 0.55952,-0.2147 2.74709,1.24789 4.38135,2.92934 3.37388,3.47129 5.92024,7.75911 7.77891,13.09895 1.09293,3.1399 2.26624,7.5892 2.26624,8.5938 0,0.37381 0.11906,0.67966 0.26458,0.67966 0.16882,0 0.26459,-2.23043 0.26459,-6.16212 0,-7.18236 -0.0595,-7.50386 -2.392,-12.93439 -1.61329,-3.75598 -2.79717,-7.36927 -3.07777,-9.39359 -0.18421,-1.32896 0.0604,-2.46615 0.53051,-2.46615 0.45638,0 1.59548,1.24062 2.15328,2.34518 0.84952,1.68226 2.25681,6.31162 2.25681,7.42392 0,0.28513 0.11428,0.58904 0.25395,0.67537 0.15998,0.0989 0.23341,-2.07247 0.19844,-5.86789 l -0.0555,-6.02483 -0.79375,-0.36774 c -1.97288,-0.91403 -3.35494,-3.01724 -3.40735,-5.18527 -0.03,-1.24016 0.0146,-1.33857 0.63894,-1.41139 0.87167,-0.10166 2.83348,1.30582 3.05603,2.19251 0.28103,1.1197 0.52389,0.74247 0.58937,-0.91545 0.0618,-1.56421 0.0526,-1.58581 -0.95651,-2.25361 -1.21958,-0.80707 -2.05757,-2.21133 -2.30056,-3.85513 -0.22246,-1.50486 0.16574,-1.94182 1.40849,-1.5854 l 0.8393,0.24071 0.008,-1.10601 c 0.01,-1.34295 1.04545,-4.01643 1.55577,-4.01643 0.58853,0 1.44313,1.95795 1.56004,3.57414 0.10579,1.46253 0.11899,1.48362 0.86087,1.37473 0.63359,-0.093 0.78103,-5.9e-4 0.92697,0.58087 0.34449,1.37256 -0.12414,2.60486 -1.49452,3.92996 l -1.30059,1.25762 0.0209,2.57884 0.0209,2.57884 0.40421,-1.14301 c 0.45206,-1.27833 2.1506,-3.22262 2.81529,-3.22262 0.60896,0 0.80132,1.05014 0.4389,2.39605 -0.2203,0.81813 -0.79142,1.64482 -2.00414,2.90098 l -1.69604,1.7568 v 6.31559 c 0,3.57726 0.0994,6.2066 0.22919,6.06423 0.12605,-0.13825 0.44437,-1.08479 0.70737,-2.10344 0.92424,-3.57974 1.94682,-5.89231 2.98325,-6.74662 1.2954,-1.06778 1.89312,-1.04735 1.92783,0.0659 0.0903,2.89737 -0.79047,5.9701 -2.94112,10.26037 -2.72529,5.43662 -2.90652,6.23838 -2.90652,12.8583 0,3.11012 0.0985,5.65477 0.21885,5.65477 0.12037,0 0.36238,-0.77899 0.53781,-1.73108 0.43438,-2.35743 2.63435,-8.92889 4.08306,-12.19634 0.6536,-1.47415 1.80403,-3.59265 2.55652,-4.70778 2.19876,-3.25843 6.24789,-7.29397 7.31852,-7.29397 1.23811,0 0.90708,2.65479 -1.02222,8.19815 -1.3398,3.84957 -1.92037,5.14633 -3.55548,7.94144 -0.72358,1.23692 -1.58605,2.7252 -1.91659,3.30729 l -0.60098,1.05833 0.71543,-0.79375 c 0.39349,-0.43656 1.53668,-1.70767 2.54044,-2.82468 3.70868,-4.12716 10.37981,-8.18777 11.2195,-6.82913 0.24982,0.40422 -0.59026,3.03703 -1.64011,5.14009 -2.31938,4.64621 -7.34147,9.93015 -13.93104,14.6574 -4.77898,3.42837 -5.82181,3.8172 -8.37579,3.12304 z m 5.72808,-3.60943 c 0.33286,-0.3638 0.60896,-0.79755 0.61355,-0.96388 0.005,-0.16633 0.17569,-0.36663 0.38021,-0.44511 0.52787,-0.20256 2.02643,-2.45043 1.80052,-2.70081 -0.10339,-0.11461 -0.0465,-0.12725 0.12648,-0.0281 0.17296,0.0992 0.41133,0.007 0.52972,-0.20437 0.35277,-0.63036 9.93463,-10.48961 10.47614,-10.77942 1.03689,-0.55492 0.67451,0.0376 -1.25786,2.05655 -1.0975,1.14671 -2.06468,2.26352 -2.14928,2.4818 -0.0846,0.21828 -0.82813,0.99561 -1.65226,1.7274 -0.82414,0.73179 -1.49843,1.40472 -1.49843,1.49541 0,0.0907 -0.94124,1.17692 -2.09165,2.41388 -1.15041,1.23696 -2.21142,2.46902 -2.35779,2.73793 -0.14637,0.26891 -0.42552,0.58413 -0.62033,0.70051 -0.1948,0.11637 -0.35419,0.3578 -0.35419,0.53651 0,0.32504 -0.25945,0.58613 -1.68932,1.70001 -0.41981,0.32703 -0.63597,0.5946 -0.48036,0.5946 0.26637,0 3.77318,-2.68013 4.78045,-3.65353 0.2547,-0.24613 1.55251,-1.38954 2.88402,-2.54092 1.33152,-1.15137 2.34791,-2.21156 2.25865,-2.35598 -0.0893,-0.14442 -0.0399,-0.18696 0.10964,-0.0945 0.61237,0.37846 4.8788,-4.87739 6.06989,-7.47754 1.09424,-2.38874 1.4889,-3.46884 1.32674,-3.63099 -0.27913,-0.27913 -3.46185,1.3941 -5.29076,2.78148 -0.99275,0.75308 -1.93388,1.28959 -2.0914,1.19224 -0.15752,-0.0974 -0.21213,-0.0568 -0.12137,0.09 0.0907,0.14686 -0.14315,0.5522 -0.51979,0.90078 -0.87268,0.80765 -4.87763,5.67245 -5.53157,6.71919 -0.27274,0.43656 -1.20483,1.736 -2.0713,2.88763 -0.86647,1.15164 -1.43614,2.00782 -1.26592,1.90262 0.5131,-0.31711 0.3474,0.31235 -0.18028,0.68485 -0.26937,0.19015 -0.68666,0.70292 -0.92731,1.13948 -0.24065,0.43656 -0.6399,1.09141 -0.88722,1.45521 l -0.44967,0.66146 0.76342,-0.66146 c 0.41989,-0.3638 1.03577,-0.95912 1.36863,-1.32292 z m -6.02912,0.59516 c -0.042,-0.40027 0.0277,-0.90629 0.15477,-1.12448 0.12711,-0.2182 0.13367,-0.30846 0.0146,-0.20058 -0.26898,0.24367 -0.97211,-0.30541 -0.78298,-0.61144 0.0758,-0.12267 0.30371,-0.1594 0.50644,-0.0816 0.44418,0.17045 0.37666,-0.47529 -0.43211,-4.13216 -1.17765,-5.32481 -4.13391,-12.81104 -6.18809,-15.67032 -0.51999,-0.72379 -0.89433,-1.36709 -0.83187,-1.42956 0.16682,-0.16682 1.30883,1.39947 2.29088,3.14197 0.47158,0.83675 0.91257,1.52136 0.97997,1.52136 0.0674,0 -0.24475,-0.68461 -0.69367,-1.52136 -0.95995,-1.78928 -3.51665,-4.98682 -3.91943,-4.90186 -0.15403,0.0325 -0.61818,-0.32469 -1.03143,-0.79375 -0.41326,-0.46905 -1.37419,-1.30863 -2.1354,-1.86573 l -1.38403,-1.01291 0.16502,0.88062 c 0.65195,3.47917 1.7899,7.1004 3.09222,9.84018 1.31061,2.75724 3.43164,6.50036 4.29343,7.57689 0.17474,0.21828 0.82449,1.34937 1.4439,2.51354 0.6194,1.16417 1.33012,2.41432 1.57937,2.77813 0.57049,0.83269 2.65029,5.18877 2.65029,5.55094 0,0.14844 0.0685,0.26989 0.15223,0.26989 0.0837,0 0.11788,-0.32749 0.0759,-0.72776 z m -1.14192,-2.51339 c -0.61248,-1.95847 -1.26546,-3.86996 -1.46872,-4.29948 -0.13774,-0.29104 -0.6545,-1.54119 -1.14836,-2.77812 -1.1169,-2.79739 -2.09556,-4.86719 -2.35611,-4.98299 -0.10914,-0.0485 -0.19844,-0.25889 -0.19844,-0.46752 0,-0.20863 -0.51806,-1.24051 -1.15125,-2.29306 -1.67077,-2.77732 -3.61125,-6.51552 -3.61125,-6.95682 0,-0.20947 0.12428,-0.38086 0.27618,-0.38086 0.1519,0 0.24381,0.14883 0.20425,0.33073 -0.0396,0.1819 0.43146,1.06834 1.04673,1.96986 0.61527,0.90152 1.11868,1.70288 1.11868,1.7808 0,0.0779 0.39922,0.76906 0.88716,1.53587 0.48794,0.76681 1.58287,2.84001 2.43318,4.60711 1.15712,2.40473 1.64942,3.18046 1.9571,3.0839 0.31577,-0.0991 0.33078,-0.0714 0.0647,0.11965 -0.27569,0.19794 -0.16086,0.70237 0.56281,2.47236 1.54613,3.78155 2.30488,6.5893 1.78065,6.5893 -0.16165,0 -0.34045,-0.14883 -0.39734,-0.33073 z m 4.35337,2.67789 c 0,-0.14709 0.33683,-0.76514 0.74851,-1.37344 0.41169,-0.60831 1.73785,-2.95148 2.94703,-5.20705 1.20918,-2.25557 2.71496,-4.899 3.34619,-5.87427 1.68497,-2.60339 3.22894,-5.59235 4.23886,-8.206 0.99304,-2.56998 2.28914,-7.42251 2.16069,-8.08951 -0.0603,-0.31307 -0.61257,0.0673 -2.00546,1.38131 -2.13538,2.0144 -4.37381,4.83173 -4.13979,5.2104 0.0834,0.13494 0.0168,0.21263 -0.14802,0.17265 -0.3701,-0.0898 -1.79642,2.59452 -3.18491,5.99396 -1.1644,2.85081 -4.09132,12.3484 -3.96036,12.85104 0.0189,0.0728 -0.0884,0.4555 -0.23861,0.85053 -0.16455,0.4328 -0.17596,0.77826 -0.0287,0.86926 0.1486,0.0918 0.14464,0.41331 -0.0101,0.82035 -0.32723,0.86068 -0.32354,1.23794 0.0101,1.03174 0.14552,-0.0899 0.26458,-0.28387 0.26458,-0.43097 z m 0.12712,-2.16984 c 0.22215,-0.33904 0.33977,-0.68057 0.26138,-0.75896 -0.26656,-0.26656 1.17031,-3.98196 3.25407,-8.41419 0.78677,-1.67349 1.70899,-3.69755 2.04939,-4.49792 0.99961,-2.35037 2.7904,-5.5822 3.49241,-6.30275 0.18735,-0.19229 0.34063,-0.46516 0.34063,-0.60637 0,-0.14122 0.24412,-0.51878 0.54249,-0.83904 l 0.54248,-0.58229 -0.42569,1.01883 c -0.23413,0.56035 -0.36634,1.07817 -0.29381,1.15071 0.0725,0.0725 0.0144,0.26802 -0.12925,0.43442 -1.12511,1.30344 -3.26465,5.32148 -3.03311,5.69613 0.0814,0.13172 -0.0299,0.30777 -0.24734,0.39121 -0.21744,0.0834 -0.3958,0.36381 -0.39634,0.62304 -5.4e-4,0.25923 -0.23867,0.86115 -0.52917,1.33761 -0.29049,0.47646 -0.52817,1.10154 -0.52817,1.38906 0,0.28753 -0.09,0.52278 -0.19999,0.52278 -0.23745,0 -1.22926,2.10884 -1.90223,4.04461 -0.26374,0.75864 -0.91067,2.2825 -1.43762,3.38635 -0.52694,1.10386 -0.95808,2.14565 -0.95808,2.31511 0,0.16945 -0.18134,0.30809 -0.40298,0.30809 -0.36064,0 -0.36054,-0.0648 9.3e-4,-0.61643 z m -9.12905,-0.96719 c -1.88842,-1.88963 -3.43348,-3.55575 -3.43348,-3.70248 0,-0.31936 -3.26446,-4.06862 -5.25644,-6.03706 -0.78099,-0.77176 -1.33023,-1.48657 -1.22055,-1.58846 0.10969,-0.10189 0.25036,-0.0431 0.3126,0.13061 0.0622,0.17373 0.28541,0.24977 0.49594,0.16898 0.26165,-0.1004 0.33391,-0.0195 0.22835,0.25555 -0.14238,0.37105 0.73738,0.90753 1.26339,0.77041 0.1039,-0.0271 0.12093,0.12792 0.0378,0.34446 -0.0875,0.22792 1e-4,0.39714 0.20795,0.40188 0.19748,0.005 0.74194,0.51051 1.20994,1.12448 0.46799,0.61396 1.2419,1.54108 1.71979,2.06025 0.47789,0.51918 1.58327,1.76472 2.45639,2.76787 1.83939,2.11331 2.93293,3.20363 3.77032,3.75925 0.32742,0.21724 0.59531,0.49495 0.59531,0.61712 0,0.12217 0.28007,0.50219 0.62237,0.8445 0.34231,0.3423 0.67675,0.78551 0.74322,0.98491 0.0688,0.2065 0.25852,0.27745 0.44072,0.16485 0.23588,-0.14578 0.17806,-0.38387 -0.2202,-0.90674 -0.29703,-0.38998 -1.16238,-1.6234 -1.92298,-2.74095 -3.10808,-4.56665 -4.62618,-6.52887 -6.77843,-8.76149 -2.64537,-2.74416 -4.72585,-4.37091 -6.84241,-5.35019 -0.83623,-0.38689 -1.72877,-0.81317 -1.98344,-0.94728 -0.61379,-0.32323 -0.59861,-0.24157 0.36539,1.96526 1.6918,3.87294 4.03312,6.81623 9.11593,11.45966 1.29733,1.18519 2.71598,2.44661 3.15254,2.80317 0.67216,0.54897 4.11053,2.82467 4.29337,2.84159 0.033,0.003 -1.48502,-1.54051 -3.37343,-3.43015 z m 10.03876,-20.44294 c 1.62563,-3.48406 1.76507,-4.04741 0.92168,-3.72377 -0.20405,0.0783 -0.37101,0.0261 -0.37101,-0.11606 0,-0.14213 0.24862,-0.24417 0.55248,-0.22674 0.41871,0.024 0.64115,-0.22456 0.91872,-1.02666 0.36197,-1.04595 0.7886,-3.74831 0.49081,-3.10885 -0.0847,0.1819 -0.31228,0.33073 -0.50572,0.33073 -0.39266,0 -1.66995,3.12056 -1.85038,4.52068 -0.064,0.4968 -0.35873,1.60652 -0.6549,2.46605 -0.51847,1.50462 -0.68375,2.53827 -0.40588,2.53827 0.0729,0 0.47983,-0.74414 0.9042,-1.65365 z m -4.75042,-1.5875 c -0.0172,-0.60215 -1.20436,-5.03815 -1.85877,-6.94531 -0.46472,-1.35434 -1.03011,-2.25697 -1.07269,-1.71252 -0.0513,0.65642 0.0758,1.44085 0.25617,1.58023 0.0941,0.0728 0.18308,0.28112 0.19763,0.46302 0.0146,0.1819 0.0443,0.56885 0.0662,0.85989 0.0218,0.29105 0.1476,0.52917 0.2795,0.52917 0.1319,0 0.18807,-0.26789 0.12483,-0.59531 -0.10745,-0.55631 -0.0966,-0.55334 0.16533,0.0454 0.19239,0.43973 0.19453,0.69375 0.007,0.80975 -0.36373,0.22479 0.41943,2.93662 0.97192,3.36545 0.22535,0.17491 0.34046,0.49852 0.2558,0.71913 -0.0847,0.22061 -0.0381,0.47269 0.10342,0.56016 0.14154,0.0875 0.18884,0.26988 0.10512,0.40535 -0.0837,0.13547 -0.0261,0.2463 0.12798,0.2463 0.15411,0 0.27595,-0.14883 0.27077,-0.33073 z m -0.50621,-5.13403 c -0.30423,-0.9962 -0.73557,-2.10894 -0.95852,-2.47274 -0.22296,-0.3638 -0.34841,-0.48286 -0.27879,-0.26458 0.76849,2.4093 1.61198,4.72708 1.69138,4.64768 0.0545,-0.0545 -0.14984,-0.91415 -0.45407,-1.91036 z m 1.28763,-10.66674 c -0.58719,-1.36498 -1.22113,-1.93261 -2.27187,-2.03424 -0.48694,-0.0471 -0.55931,0.0592 -0.47796,0.70199 0.16015,1.26545 1.12992,2.85564 2.17706,3.56986 l 0.9914,0.6762 0.0815,-0.78085 c 0.0448,-0.42947 -0.18023,-1.3893 -0.50015,-2.13296 z m 3.25245,1.64556 c 0.75085,-0.79886 1.85394,-2.74261 1.66416,-2.93239 -0.0658,-0.0658 -0.27127,0.006 -0.45669,0.16021 -0.18542,0.15389 -0.45619,0.27158 -0.60171,0.26154 -0.31798,-0.0219 -1.31534,1.61422 -1.10947,1.82009 0.0794,0.0794 0.33484,-0.22384 0.56759,-0.67392 0.45338,-0.87674 0.67418,-1.03036 0.67418,-0.46909 0,0.19209 -0.426,0.84693 -0.94666,1.45521 -1.04657,1.22268 -0.8759,1.53222 0.2086,0.37835 z m -2.63538,-6.6067 c -0.37597,-0.13428 -0.45815,-1.39694 -0.0909,-1.39694 0.1319,0 0.17754,0.23812 0.10144,0.52917 -0.0761,0.29104 -0.0308,0.52916 0.10075,0.52916 0.41294,0 0.34108,-1.07903 -0.0827,-1.24165 -0.32736,-0.12561 -0.33696,-0.19721 -0.0508,-0.37862 0.26425,-0.1675 0.26982,-0.22473 0.0222,-0.22776 -0.1819,-0.002 -0.33073,-0.13014 -0.33073,-0.28425 0,-0.15411 0.11906,-0.20661 0.26458,-0.11668 0.14552,0.0899 0.26459,0.0994 0.26459,0.021 0,-0.0784 -0.49241,-0.39374 -1.09423,-0.70077 -0.8256,-0.42119 -1.14334,-0.47876 -1.29428,-0.23452 -0.21197,0.34297 0.0204,1.40525 0.5057,2.3121 0.36907,0.68961 1.64745,1.70849 1.85705,1.48009 0.0869,-0.0947 0.009,-0.22537 -0.17268,-0.29033 z m 3.00097,-2.13044 c 0.52738,-1.32811 0.37486,-1.61896 -0.53601,-1.02213 -0.81483,0.53389 -1.26499,1.34446 -1.3933,2.50883 l -0.0981,0.88995 0.78926,-0.62314 c 0.43409,-0.34273 0.99124,-1.13181 1.23812,-1.75351 z m -1.76282,-1.34838 c 0.14552,-0.27191 0.22248,-0.5398 0.17102,-0.59531 -0.0515,-0.0555 -0.15835,-0.81531 -0.23753,-1.68844 -0.0792,-0.87312 -0.22628,-1.80122 -0.32688,-2.06244 -0.17351,-0.4505 -0.20121,-0.44884 -0.53824,0.0323 -0.19542,0.27901 -0.30591,0.7638 -0.24553,1.07733 0.0604,0.31352 -0.001,0.50138 -0.13712,0.41745 -0.14709,-0.0909 -0.1871,0.3558 -0.099,1.10504 0.23824,2.0257 0.84963,2.76721 1.41327,1.71404 z"
         id="path18628" />
      <path
         style="fill:#353a43;stroke-width:1.21554"
         d="m 189.78695,166.64837 c -0.95943,-0.23306 -2.41432,-1.08036 -5.15938,-3.00471 -7.39132,-5.1815 -12.17538,-10.21847 -14.92807,-15.71724 -1.84063,-3.67684 -1.47493,-4.51829 1.48276,-3.41168 3.09549,1.15818 8.32491,5.46538 11.10309,9.14506 0.58408,0.77361 1.25704,1.48141 1.49548,1.57291 0.37267,0.14301 0.36697,0.0928 -0.0406,-0.35752 -0.26075,-0.28814 -0.39406,-0.6534 -0.29622,-0.81169 0.0978,-0.1583 0.0347,-0.2551 -0.14036,-0.21511 -0.50359,0.11505 -2.75237,-3.33379 -4.49401,-6.89224 -1.02978,-2.10401 -1.95928,-4.5444 -2.62013,-6.87916 -1.36868,-4.83547 -1.41944,-5.12596 -0.99686,-5.70388 0.3453,-0.47222 0.39003,-0.47064 1.41051,0.05 2.56333,1.30772 6.49828,5.87004 8.63607,10.013 1.91586,3.71283 4.69332,12.34227 4.69332,14.5819 0,0.52427 0.10828,0.82054 0.26458,0.72394 0.16487,-0.10189 0.26459,-2.63401 0.26459,-6.71879 0,-7.474 0.0812,-7.05587 -2.60209,-13.4007 -2.33244,-5.51521 -3.40595,-9.84588 -2.71223,-10.94146 0.34286,-0.54148 0.95571,-0.19594 1.8555,1.04619 1.01335,1.39888 1.77068,3.41195 2.50335,6.65416 0.31924,1.41271 0.66482,2.65294 0.76795,2.75608 0.10314,0.10313 0.18752,-2.55232 0.18752,-5.901 0,-5.56243 -0.0418,-6.12634 -0.48386,-6.52639 -0.26612,-0.24083 -0.67356,-0.43788 -0.90542,-0.43788 -0.64641,0 -2.24678,-2.03963 -2.72127,-3.4682 -0.56958,-1.71484 -0.44113,-2.72315 0.36137,-2.83682 0.84599,-0.11984 2.53362,1.05337 2.94545,2.0476 0.51919,1.25345 0.80373,0.98009 0.80373,-0.77218 0,-1.55567 -0.0227,-1.60567 -1.05258,-2.3151 -1.24751,-0.85937 -2.07203,-2.38588 -2.17805,-4.03238 l -0.0767,-1.19063 1.19063,0.0356 1.19062,0.0356 0.0317,-1.35853 c 0.0178,-0.76009 0.28905,-1.94128 0.61587,-2.68145 l 0.58414,-1.32291 0.63184,0.73182 c 0.74981,0.86846 1.2649,2.6013 1.12625,3.78892 -0.0966,0.82714 -0.0747,0.84771 0.75728,0.7127 0.75542,-0.12258 0.87736,-0.0568 1.03132,0.55665 0.34399,1.37056 -0.12229,2.60833 -1.47553,3.91691 l -1.28267,1.24034 -0.0841,2.66284 c -0.0462,1.46457 0.005,2.66258 0.11436,2.66227 0.10915,-3.2e-4 0.19844,-0.2107 0.19844,-0.46752 0,-1.19823 2.16518,-4.03098 3.08103,-4.03098 0.52942,0 0.66365,0.92771 0.32742,2.26299 -0.23951,0.95121 -0.72097,1.68348 -1.99438,3.03336 l -1.67865,1.77946 v 6.42807 c 0,3.53544 0.0799,6.34816 0.17757,6.25049 0.0977,-0.0977 0.57463,-1.55888 1.05992,-3.24716 1.09229,-3.79997 1.85071,-5.35452 2.98689,-6.12231 1.5422,-1.04216 1.69063,-0.88762 1.52476,1.5875 -0.17941,2.67712 -1.05814,5.35869 -3.0996,9.45885 -2.53363,5.08867 -2.64954,5.63454 -2.64954,12.47751 0,3.40445 0.0982,5.77864 0.23296,5.63322 0.12813,-0.13824 0.4402,-1.20385 0.69349,-2.36802 0.68284,-3.13845 3.1871,-10.22196 4.63112,-13.09951 1.50358,-2.99623 3.81959,-6.18029 5.98527,-8.22857 3.27188,-3.0945 4.40855,-2.88093 3.66182,0.68803 -0.53003,2.53327 -2.39873,7.84996 -3.62772,10.3213 -1.36973,2.75435 -3.65581,6.55412 -3.83525,6.37468 -0.0772,-0.0772 0.0638,-0.45216 0.3134,-0.83313 0.24962,-0.38097 0.39123,-0.7553 0.31468,-0.83184 -0.14608,-0.14609 -1.22332,1.48454 -1.22503,1.85434 -5.5e-4,0.11773 0.1383,0.12797 0.30856,0.0228 0.21518,-0.13299 0.25261,-0.0369 0.12277,0.31511 -0.10272,0.27853 0.67512,-0.44608 1.72853,-1.61024 3.82341,-4.22541 6.14539,-6.16439 9.39702,-7.84703 3.91932,-2.02817 4.32355,-1.09262 1.79001,4.14286 -1.46471,3.02679 -3.2707,5.40439 -6.59664,8.68448 -4.52172,4.45941 -11.94977,9.73797 -13.624,9.68156 -0.36733,-0.0124 -1.26917,-0.16857 -2.0041,-0.34709 z m 3.92527,-0.73283 c 0.55084,-0.27795 0.93161,-0.6185 0.84615,-0.75678 -0.0855,-0.13827 0.014,-0.18639 0.2211,-0.10694 0.20706,0.0795 0.45053,-0.0485 0.54104,-0.28438 0.0905,-0.23587 0.28741,-0.35292 0.43757,-0.26012 0.15015,0.0928 0.24029,0.0111 0.20031,-0.18167 -0.04,-0.19272 0.12516,-0.33561 0.367,-0.31753 0.51048,0.0382 3.41461,-2.08878 6.72827,-4.92766 2.26508,-1.94054 6.45806,-6.4742 6.45806,-6.98278 0,-0.14092 -0.43889,0.27123 -0.97532,0.91589 -2.25342,2.70808 -7.60965,7.66108 -10.53405,9.74102 -0.87312,0.621 -1.23031,0.8177 -0.79375,0.43711 1.83926,-1.60343 5.94013,-5.10362 6.9554,-5.9366 0.60288,-0.49463 2.01855,-1.94452 3.14594,-3.22197 1.12739,-1.27745 2.13442,-2.27034 2.23785,-2.20642 0.50583,0.31262 3.56278,-5.70792 3.27672,-6.45337 -0.0856,-0.22318 -0.003,-0.50277 0.18398,-0.62132 0.27009,-0.17137 0.26529,-0.21637 -0.0234,-0.21959 -0.29275,-0.003 -0.29929,-0.081 -0.0337,-0.40092 1.04906,-1.26405 -3.65379,0.96862 -6.37469,3.02636 -1.83561,1.38823 -4.71194,4.29581 -5.78281,5.84565 -0.3487,0.50466 0.53204,-0.30691 1.95721,-1.8035 2.43198,-2.55387 4.80006,-4.59627 6.16539,-5.31747 1.06744,-0.56384 0.62778,-0.12773 -0.88146,0.87435 -1.50971,1.00239 -5.31138,4.63096 -7.09014,6.76731 -0.54524,0.65485 -0.9173,1.0418 -0.82681,0.8599 0.2539,-0.51036 0.004,-0.39276 -0.55329,0.26002 -0.49595,0.58129 -0.49592,0.58447 0.002,0.19844 0.60713,-0.47068 0.52868,-0.25488 -0.50664,1.39362 -0.43412,0.69123 -0.88649,1.25677 -1.00528,1.25677 -0.11879,0 -0.1424,-0.11906 -0.0525,-0.26458 0.38061,-0.61585 -0.0827,-0.1958 -0.6566,0.59531 l -0.62383,0.8599 0.62409,-0.52917 0.62409,-0.52917 -0.59942,0.86301 c -0.32968,0.47466 -0.72777,0.78368 -0.88465,0.68673 -0.18132,-0.11207 -0.20742,-0.0504 -0.0716,0.16931 0.12768,0.20659 0.0643,0.46249 -0.15756,0.6362 -0.39335,0.30797 -2.35552,3.21252 -2.35552,3.48682 0,0.40392 -1.12624,1.68782 -1.356,1.54582 -0.16026,-0.0991 -0.14043,-0.29965 0.0526,-0.53227 0.17041,-0.20533 0.22698,-0.37332 0.12572,-0.37332 -0.10126,0 0.1714,-0.62508 0.60591,-1.38907 0.4345,-0.76398 1.08341,-1.92484 1.44201,-2.57968 3.7828,-6.90779 4.68346,-8.50043 5.38722,-9.5263 0.44875,-0.65413 1.19672,-1.94552 1.66216,-2.86975 0.46543,-0.92423 0.91981,-1.60685 1.00972,-1.51694 0.0899,0.0899 0.0226,0.30436 -0.14961,0.47656 -0.1722,0.1722 -0.31309,0.43484 -0.31309,0.58363 0,0.32483 0.63486,-0.57794 0.87904,-1.25001 0.10349,-0.28481 0.0679,-0.41168 -0.0883,-0.31511 -0.33898,0.2095 -0.3299,0.0407 0.0417,-0.77488 0.1668,-0.36609 0.42333,-0.59142 0.57005,-0.50073 0.15221,0.0941 0.18507,0.0327 0.0765,-0.14296 -0.26782,-0.43334 0.0864,-1.40632 0.4338,-1.19161 0.18642,0.11522 0.23574,-0.0193 0.14055,-0.3833 -0.0818,-0.31289 0.01,-0.69063 0.20718,-0.85447 0.19461,-0.16151 0.28864,-0.46354 0.20896,-0.67119 -0.0797,-0.20764 -3.3e-4,-0.37753 0.17633,-0.37753 0.17681,0 0.25273,-0.17841 0.1689,-0.39687 -0.0838,-0.21828 -0.0289,-0.39688 0.12182,-0.39688 0.15908,0 0.19922,-0.23595 0.0956,-0.5623 -0.13224,-0.41665 -0.0909,-0.50821 0.15942,-0.35347 0.24652,0.15236 0.28755,0.0776 0.15171,-0.27635 -0.1024,-0.26685 -0.047,-1.1071 0.12311,-1.86722 0.32105,-1.43459 0.15109,-2.90269 -0.30351,-2.62174 -0.14363,0.0888 -0.20247,0.25632 -0.13077,0.37234 0.13603,0.22011 -0.49711,0.85675 -1.18007,1.1866 -0.21828,0.10542 -0.0397,-0.11401 0.39687,-0.48761 0.43657,-0.37361 0.66604,-0.67988 0.50996,-0.6806 -0.15609,-7.2e-4 -1.24148,0.98095 -2.41198,2.1815 -3.55009,3.64123 -5.85326,7.65372 -7.92712,13.81032 -0.89885,2.6684 -1.08659,3.51135 -0.6219,2.79228 0.28989,-0.44856 0.3448,-0.25231 0.10457,0.37372 -0.088,0.22935 -0.25771,0.35662 -0.37711,0.28282 -0.4087,-0.25259 -1.66602,4.89567 -1.37857,5.64475 0.0823,0.2144 -0.0186,0.52186 -0.22413,0.68324 -0.45975,0.36098 -0.50519,0.56731 -0.62044,2.81689 -0.0506,0.98823 -0.16397,1.91314 -0.25187,2.05537 -0.0879,0.14223 0.008,0.32309 0.21363,0.40191 0.20541,0.0788 0.43834,-0.0258 0.51764,-0.2324 0.14819,-0.3862 0.95795,-0.24711 0.95795,0.16454 0,0.12538 -0.16655,0.16406 -0.37011,0.0859 -0.20356,-0.0781 -0.44872,-0.0148 -0.54478,0.14059 -0.0961,0.15544 -0.49507,0.29099 -0.88666,0.30122 -0.63429,0.0166 -0.65424,0.0431 -0.18283,0.24344 0.61328,0.26059 1.19622,0.13209 2.58904,-0.57071 z m 0.34964,-1.33513 c 0.11216,-0.18732 0.41818,-0.49517 0.68005,-0.68413 0.26186,-0.18896 1.47017,-1.61771 2.68513,-3.175 1.21496,-1.55729 3.03206,-3.67383 4.038,-4.70341 1.00594,-1.02958 2.81124,-2.89714 4.01179,-4.15014 1.20055,-1.253 2.18281,-2.12379 2.18281,-1.9351 0,0.18869 -1.36249,1.71571 -3.02776,3.39338 -1.66527,1.67767 -2.95845,3.11963 -2.87372,3.20436 0.0847,0.0847 -0.1673,0.27621 -0.56004,0.42553 -0.43746,0.16632 -0.64082,0.39001 -0.52498,0.57745 0.11302,0.18286 0.0735,0.2345 -0.0983,0.12836 -0.34721,-0.21458 -1.16242,0.86714 -0.93312,1.23817 0.0909,0.14715 0.028,0.17945 -0.14332,0.0736 -0.17277,-0.10678 -0.30546,-0.035 -0.30546,0.16529 0,0.19474 -0.23175,0.52112 -0.515,0.72527 -0.28325,0.20415 -0.46489,0.45226 -0.40365,0.55134 0.0612,0.0991 -0.36186,0.61798 -0.94021,1.1531 -0.57836,0.53511 -1.05156,1.12381 -1.05156,1.30821 0,0.18441 -0.54555,0.71982 -1.21232,1.1898 -0.66678,0.46999 -1.12055,0.70127 -1.00838,0.51396 z m -0.93952,-4.24318 c 0.0298,-0.66691 0.94188,-2.59316 1.13596,-2.39908 0.11008,0.11008 0.13105,0.0201 0.0466,-0.19996 -0.14736,-0.384 1.0979,-3.45229 3.10619,-7.65356 0.52171,-1.09141 1.21713,-2.57969 1.54537,-3.30729 0.66078,-1.4647 3.36277,-5.95313 3.58374,-5.95313 0.0771,0 -0.37471,0.92274 -1.00402,2.05052 -1.54348,2.76607 -2.84659,5.41753 -2.86076,5.82084 -0.006,0.1819 -0.13068,0.33073 -0.2762,0.33073 -0.14553,0 -0.26459,0.13083 -0.26459,0.29074 0,0.33552 -0.50364,1.51202 -1.68185,3.92877 -0.45743,0.93829 -0.83591,1.77173 -0.84107,1.85209 -0.005,0.0804 -0.15949,0.41646 -0.34296,0.74689 -0.18347,0.33042 -0.25016,0.73577 -0.14818,0.90077 0.12216,0.19766 0.0659,0.22611 -0.16502,0.0834 -0.24978,-0.15437 -0.30492,-0.098 -0.19198,0.19634 0.0872,0.2271 -0.18522,1.1396 -0.60526,2.02778 -0.73969,1.56407 -1.0666,1.9693 -1.03598,1.28413 z m 0.0598,-3.42079 c 0.0874,-0.24433 0.2387,-0.86941 0.33619,-1.38906 0.0975,-0.51966 0.27141,-0.94483 0.38649,-0.94483 0.22293,0 -0.41529,2.36583 -0.70805,2.62466 -0.0955,0.0844 -0.10204,-0.0464 -0.0146,-0.29077 z m 1.52773,-4.87286 c -0.0222,-0.43375 1.44983,-4.41423 1.95779,-5.29398 0.50392,-0.87275 0.44759,-0.69586 -0.93576,2.93815 -0.55395,1.45521 -1.01386,2.51533 -1.02203,2.35583 z m 15.58252,-1.89689 c 0.4687,-0.76174 0.90912,-1.38498 0.97871,-1.38498 0.2071,0 -1.04831,2.12046 -1.45547,2.45837 -0.20648,0.17137 0.008,-0.31166 0.47676,-1.07339 z m -13.2117,-4.36908 c -0.007,-0.34743 1.60649,-3.42855 2.45607,-4.68881 0.99799,-1.48039 4.17824,-5.09113 4.34089,-4.92848 0.066,0.066 -0.37464,0.63639 -0.97926,1.26749 -1.83786,1.91835 -3.40376,4.06801 -4.63847,6.36767 -0.64614,1.20346 -1.1768,2.09542 -1.17923,1.98213 z m -8.07421,20.18202 c -0.0899,-0.14552 -0.0445,-0.26458 0.10106,-0.26458 0.14552,0 0.33817,0.11906 0.4281,0.26458 0.0899,0.14552 0.29014,0.26458 0.44489,0.26458 0.18532,0 0.1756,-0.12744 -0.0285,-0.37332 -0.20145,-0.24273 -0.21682,-0.4308 -0.0439,-0.53764 0.14623,-0.0904 0.19131,-0.35863 0.10017,-0.59612 -0.0981,-0.25562 -0.0574,-0.36487 0.0998,-0.26775 0.146,0.0902 0.28686,-0.0391 0.31303,-0.28733 0.10667,-1.01207 0.0543,-1.47006 -0.18516,-1.6182 -0.33596,-0.20787 -0.8337,-2.96196 -0.67931,-3.75875 0.10583,-0.54619 0.0915,-0.56038 -0.10679,-0.10592 -0.19477,0.44634 -0.25743,0.37312 -0.41937,-0.49006 -0.10471,-0.55815 -0.12317,-1.08202 -0.041,-1.16417 0.0821,-0.0821 0.14935,0.12846 0.14935,0.46801 0,0.33955 0.0738,0.54354 0.16405,0.45331 0.0902,-0.0902 0.076,-0.61609 -0.0316,-1.16857 -0.16934,-0.86927 -0.22773,-0.93328 -0.43369,-0.47536 -0.18012,0.40046 -0.20558,0.31682 -0.10465,-0.34388 0.0903,-0.59105 0.04,-0.81537 -0.15558,-0.69447 -0.19288,0.1192 -0.22894,-0.0105 -0.10848,-0.39 0.24937,-0.7857 -1.72904,-6.65782 -3.30733,-9.81644 -1.48259,-2.96714 -3.57785,-5.92485 -4.0086,-5.65863 -0.18176,0.11234 -0.22442,0.0652 -0.1094,-0.12092 0.2286,-0.36988 -2.16332,-2.96406 -3.72632,-4.04142 -1.41856,-0.97781 -1.9367,-0.98557 -1.9367,-0.029 0,1.08852 0.95463,4.33073 1.34642,4.57287 0.18702,0.11558 0.36116,0.72514 0.38699,1.35458 0.0637,1.55337 0.077,1.59828 0.4116,1.3915 0.20102,-0.12424 0.23221,0.0161 0.0994,0.4474 -0.10643,0.34565 -0.0974,0.53724 0.02,0.42576 0.15911,-0.15105 3.54882,6.17448 3.55525,6.63445 6.3e-4,0.045 -0.14769,-0.004 -0.32959,-0.10857 -0.19215,-0.11057 -0.23834,-0.0894 -0.11024,0.0505 0.12126,0.13248 0.34054,0.24086 0.48727,0.24086 0.14673,0 0.56483,0.53578 0.9291,1.19063 0.60908,1.0949 0.45737,0.99623 -0.61021,-0.39688 -0.27085,-0.35343 -0.25531,-0.26556 0.0468,0.26458 0.24877,0.43657 0.77404,1.09658 1.16727,1.4667 1.31542,1.23809 5.46041,9.24736 4.95278,9.57014 -0.21526,0.13687 -0.17758,0.20113 0.11957,0.2039 0.36293,0.003 0.8466,0.74706 1.76647,2.71604 0.051,0.10914 -0.0193,0.19843 -0.1562,0.19843 -0.1369,0 -0.82718,-0.98226 -1.53397,-2.18281 -0.70678,-1.20055 -1.50059,-2.41676 -1.76401,-2.70269 -0.26342,-0.28593 -0.41444,-0.68798 -0.3356,-0.89343 0.1613,-0.42035 -0.34438,-1.16272 -0.6594,-0.96803 -0.11246,0.0695 -1.24484,-1.25868 -2.51638,-2.95154 -2.75537,-3.66836 -6.13903,-7.04912 -8.84858,-8.84103 -1.96608,-1.30022 -2.39072,-1.83206 -0.57265,-0.71722 2.90954,1.78414 6.23601,4.9248 8.86522,8.37003 0.81662,1.07007 1.48476,1.81819 1.48476,1.6625 0,-0.54232 -4.22395,-5.52963 -6.06761,-7.16416 -3.08815,-2.73785 -7.81137,-5.29264 -8.50412,-4.59988 -0.49105,0.49105 2.21322,6.38782 2.8662,6.24986 0.14065,-0.0297 0.88736,0.7442 1.65936,1.7198 1.71949,2.17295 6.39496,6.78074 8.72325,8.59697 2.1188,1.6528 2.2618,1.7758 2.06464,1.7758 -0.0868,0 -0.97384,-0.63141 -1.97115,-1.40314 -2.57175,-1.99005 -6.49414,-5.79556 -8.37132,-8.12186 -2.08869,-2.58842 -2.04092,-2.53653 -2.04092,-2.217 0,0.48444 4.41167,5.47814 6.53086,7.39247 2.96917,2.68215 6.085,4.96193 6.46261,4.72855 0.21551,-0.13319 0.24791,-0.0837 0.10088,0.15423 -0.1564,0.25306 -0.0966,0.30439 0.21523,0.18473 0.2375,-0.0911 0.51355,-0.0334 0.61345,0.12821 0.11645,0.1884 0.0483,0.22487 -0.18996,0.10159 -0.20438,-0.10577 -0.0144,0.11985 0.42214,0.50137 1.1203,0.97906 2.04211,1.40657 1.04801,0.48604 -0.87607,-0.81124 -0.78588,-0.77509 0.80407,0.32233 0.58209,0.40177 0.82021,0.6532 0.52917,0.55875 -0.52113,-0.16913 -0.52136,-0.1657 -0.0156,0.22579 0.59703,0.4621 0.77503,0.50554 0.54475,0.13294 z m -5.15938,-5.25037 c -0.80036,-0.8026 -1.42434,-1.56025 -1.38661,-1.68368 0.0377,-0.12344 -0.11109,-0.29338 -0.33072,-0.37766 -0.45388,-0.17417 -0.5419,-0.62579 -0.12198,-0.62579 0.15255,0 0.42838,0.35917 0.61296,0.79816 0.18458,0.43898 0.39461,0.73913 0.46675,0.667 0.19638,-0.19639 2.4233,2.14962 2.31138,2.43499 -0.0531,0.13543 -0.75141,-0.41043 -1.55178,-1.21302 z m 4.33333,-0.50432 c -0.18185,-0.569 -0.44698,-1.2291 -0.99906,-2.48738 -0.23312,-0.53132 -0.42494,-1.12663 -0.42627,-1.32292 -0.001,-0.19629 -0.29526,-0.9522 -0.65318,-1.6798 -0.35792,-0.72761 -0.65449,-1.41796 -0.65904,-1.53411 -0.0223,-0.56875 -5.13999,-10.33425 -5.88961,-11.23843 -0.15372,-0.18542 -0.20921,-0.40741 -0.1233,-0.49331 0.14488,-0.14489 1.49469,1.83055 2.67155,3.90982 0.97716,1.72644 3.45013,6.84064 4.71601,9.7529 0.48732,1.1211 1.30173,3.63717 1.60579,4.96094 0.16099,0.70087 -0.0282,0.80393 -0.24289,0.13229 z m -6.97511,-2.09777 c -0.002,-0.1715 -0.16101,-0.46916 -0.35284,-0.66145 -0.19184,-0.1923 -0.77606,-0.90977 -1.29827,-1.59438 -0.52222,-0.68461 -1.31215,-1.6328 -1.75541,-2.10709 -0.44326,-0.47429 -0.74483,-0.92343 -0.67016,-0.9981 0.0747,-0.0747 0.57507,0.36338 1.11201,0.97345 3.23364,3.67408 3.44084,3.9535 3.20637,4.32394 -0.14763,0.23324 -0.23918,0.25734 -0.2417,0.0636 z m 5.1664,-8.74127 c -0.96012,-2.77995 -2.47494,-5.87575 -3.79116,-7.74794 l -0.65104,-0.92604 0.82422,0.92604 c 1.06338,1.19476 3.26759,5.63016 4.1296,8.30979 1.00997,3.13953 0.61813,2.70922 -0.51162,-0.56185 z m -16.51149,-2.6957 c -0.78007,-1.81333 -0.68473,-2.0753 0.1146,-0.3149 0.35713,0.78653 0.60462,1.47476 0.54997,1.52941 -0.0546,0.0547 -0.3537,-0.49189 -0.66457,-1.21451 z m 6.0859,-9.99116 c -0.44844,-2.23293 -0.35478,-2.39752 0.79406,-1.39537 l 0.62462,0.54487 -0.76231,-0.46575 c -0.74101,-0.45273 -0.75818,-0.45132 -0.61464,0.0504 0.24442,0.85438 0.5059,2.76515 0.3784,2.76515 -0.0655,0 -0.25452,-0.6747 -0.42013,-1.49934 z m 15.29832,17.24205 c -0.003,-3.61521 -0.10517,-5.95313 -0.25912,-5.95313 -0.15404,0 -0.24682,2.15432 -0.23644,5.49011 0.0158,5.07432 0.0972,6.41614 0.3894,6.41614 0.0615,0 0.10925,-2.6789 0.10616,-5.95312 z m 10.18664,-4.49792 c 0.53001,-1.01864 0.83557,-1.67349 0.67902,-1.45521 -0.4902,0.68353 -2.12342,3.49618 -2.12342,3.65685 0,0.35804 0.5441,-0.47132 1.4444,-2.20164 z M 179.5587,147.315 c -0.46413,-0.94121 -0.88753,-1.66763 -0.94089,-1.61427 -0.1183,0.1183 1.48145,3.32557 1.65876,3.32557 0.0693,0 -0.25374,-0.77008 -0.71787,-1.7113 z m 11.16459,-2.2803 c -0.15932,-0.64228 -0.33442,-1.64403 -0.38911,-2.22611 -0.54497,-5.80087 -2.86962,-13.19658 -4.32333,-13.75442 -1.07264,-0.41161 -1.08947,0.74148 -0.0639,4.38197 0.79834,2.834 1.1251,3.71943 2.38561,6.46435 0.40154,0.87439 0.81531,1.85839 0.9195,2.18665 0.10419,0.32826 0.27016,0.54695 0.36882,0.48597 0.0987,-0.061 0.19592,0.14566 0.21613,0.45918 0.0582,0.90339 1.01324,4.00147 1.0988,3.56451 0.0425,-0.21688 -0.0532,-0.91982 -0.21248,-1.5621 z m -2.62149,-10.2173 c -0.34753,-1.28014 -0.94558,-3.00362 -1.32901,-3.82994 -0.38343,-0.82633 -0.58995,-1.43616 -0.45894,-1.35519 0.59945,0.37048 2.73895,6.55522 2.50767,7.24904 -0.0483,0.14499 -0.3722,-0.78377 -0.71972,-2.06391 z m 4.55638,8.30314 c -0.0888,-0.14376 -0.0431,-0.18817 0.10171,-0.0987 0.38189,0.23602 2.86336,-5.10498 3.64698,-7.8496 0.75005,-2.62704 0.88478,-4.66676 0.30825,-4.66676 -0.99411,0 -2.78338,2.44776 -2.44117,3.33956 0.0828,0.21565 0.0485,0.32907 -0.0761,0.25205 -0.2188,-0.13523 -0.83171,1.62247 -1.76913,5.0735 -0.24705,0.9095 -0.55151,1.65364 -0.67656,1.65364 -0.12506,0 -0.21961,1.27326 -0.2101,2.82946 l 0.0173,2.82946 0.63022,-1.55062 c 0.34662,-0.85283 0.55752,-1.66823 0.46867,-1.812 z m 0.82172,-2.03171 c 0.31841,-1.07235 2.02461,-4.78978 1.88228,-4.10104 -0.0902,0.43656 -0.57715,1.62718 -1.08208,2.64583 -0.50492,1.01864 -0.86501,1.67349 -0.8002,1.45521 z m 2.3995,-6.10228 c 0.0865,-0.22755 0.31885,-1.29912 0.51622,-2.38125 0.19737,-1.08213 0.37174,-1.65634 0.38748,-1.27602 0.0423,1.02097 -0.46623,3.48144 -0.78473,3.79713 -0.19133,0.18963 -0.22792,0.14661 -0.11897,-0.13986 z m -4.62392,1.0311 c 0,-2.49811 -0.0539,-4.4881 -0.11982,-4.4222 -0.17525,0.17524 -0.38364,8.19418 -0.22377,8.61079 0.0746,0.19438 0.18241,0.35342 0.2396,0.35342 0.0572,0 0.10399,-2.04391 0.10399,-4.54201 z m 15.32723,-0.5356 c 0.0102,-0.53712 -0.0707,-1.03158 -0.17984,-1.09881 -0.10914,-0.0672 -0.20275,0.58843 -0.20801,1.45702 -0.005,0.89637 0.0723,1.37151 0.17984,1.09881 0.10418,-0.26425 0.19778,-0.91991 0.20801,-1.45702 z m -15.59432,-6.49335 c -0.25671,-0.40214 -0.27793,-0.37501 -0.15161,0.19388 0.0808,0.3638 0.16853,1.01864 0.19498,1.45521 0.0415,0.68527 0.0622,0.65878 0.1516,-0.19388 0.0569,-0.54319 -0.0308,-1.19804 -0.19497,-1.45521 z m 3.48183,-5.44822 c 0.1455,-0.26549 0.31941,-1.08652 0.38648,-1.82451 l 0.12193,-1.34179 -0.60481,0.39625 c -1.13181,0.74153 -2.86935,4.0406 -2.46914,4.68816 0.0842,0.13631 0.0322,0.32263 -0.11572,0.41403 -0.1479,0.0914 -0.2689,0.30351 -0.2689,0.47136 0,0.34965 2.55029,-2.07385 2.95016,-2.8035 z m -1.45886,0.827 c 0.60193,-0.65631 1.17835,-1.45772 1.28093,-1.78091 0.10257,-0.32319 0.24394,-0.53018 0.31414,-0.45998 0.16145,0.16145 -0.63084,1.73937 -1.19709,2.38414 -0.23548,0.26814 -0.66761,0.61409 -0.96028,0.76878 -0.29267,0.15469 -0.0396,-0.25572 0.5623,-0.91203 z m -2.68358,0.64798 c -0.237,-2.34219 -1.72432,-4.41837 -3.30564,-4.61442 -0.5334,-0.0661 -0.6453,0.0204 -0.57802,0.44716 0.0459,0.29104 0.0764,0.80438 0.0678,1.14075 -0.0316,1.23353 1.95224,4.01863 2.86252,4.01863 0.2196,0 -2.1e-4,-0.29259 -0.49287,-0.65606 -0.88801,-0.65515 -1.85436,-1.8929 -1.85765,-2.37938 -9.6e-4,-0.14152 0.19138,0.0371 0.42742,0.39688 0.50601,0.77131 2.52743,2.84308 2.80858,2.87854 0.10728,0.0135 0.13782,-0.54092 0.0679,-1.2321 z m 0.20062,-5.92621 c -0.2286,-0.2286 -0.005,-0.50181 0.90503,-1.1044 0.66482,-0.44036 1.43209,-1.16688 1.70504,-1.61448 0.27935,-0.45811 0.49671,-0.6334 0.49727,-0.40104 0.001,0.42076 -1.4818,2.10075 -1.85418,2.10075 -0.11269,0 -0.27448,0.18135 -0.35953,0.403 -0.22333,0.58198 0.55915,0.1176 1.54218,-0.91523 0.66541,-0.69913 0.78474,-1.03841 0.79635,-2.26412 0.0135,-1.43051 0.008,-1.4413 -0.75303,-1.38323 -0.74502,0.0569 -0.76823,0.0212 -0.82138,-1.26438 -0.0639,-1.54515 -0.34829,-2.57766 -0.65742,-2.38661 -0.11979,0.074 -0.28845,-0.0495 -0.37479,-0.27448 -0.0998,-0.26012 -0.0492,-0.34251 0.13889,-0.22624 0.17488,0.10808 0.24803,0.0393 0.17887,-0.16816 -0.50428,-1.51285 -1.53914,0.84554 -1.53914,3.50761 v 1.89662 l -0.55365,-0.59427 c -0.63744,-0.68422 -2.02366,-0.70994 -1.86899,-0.0347 0.05,0.21828 0.12057,0.75406 0.15683,1.19063 0.0907,1.09253 0.82889,2.43601 1.54094,2.80457 0.54533,0.28226 0.53714,0.24597 -0.1027,-0.45518 -0.68366,-0.74917 -1.2891,-1.73749 -1.2891,-2.10434 0,-0.10263 0.30578,0.26399 0.67952,0.81471 0.37373,0.55073 0.93927,1.21823 1.25677,1.48333 0.31749,0.26511 0.47338,0.48597 0.34642,0.49081 -0.24812,0.009 0.32576,0.80255 0.58073,0.80255 0.0841,0 0.0161,-0.13668 -0.15093,-0.30374 z"
         id="path18514" />
      <path
         style="fill:#1a2129;stroke-width:1.21554"
         d="m 192.07992,111.11163 c -0.0435,-0.67421 -0.78586,-2.03738 -1.10959,-2.03738 -0.14935,0 -0.39818,0.36326 -0.55296,0.80725 -0.15477,0.44399 -0.33735,0.75132 -0.40572,0.68295 -0.0684,-0.0684 0.0791,-0.55308 0.32783,-1.07713 0.37159,-0.78306 0.52015,-0.89639 0.83381,-0.63608 0.58412,0.48479 1.18646,1.79308 1.0549,2.29129 -0.10342,0.39165 -0.12128,0.38792 -0.14827,-0.0309 z"
         id="path18273" />
      <path
         style="fill:#1a2129;stroke-width:1.21554"
         d="m 194.06751,114.6016 c -0.14682,-0.73411 -0.24292,-0.80605 -0.89297,-0.66849 -0.71499,0.15131 -0.71689,0.1484 -0.10287,-0.15733 0.52923,-0.26351 0.68203,-0.23427 0.99219,0.18989 0.20164,0.27576 0.36662,0.71675 0.36662,0.97998 0,0.73869 -0.18067,0.56744 -0.36297,-0.34405 z"
         id="path18269" />
      <path
         style="fill:#1a2129;stroke-width:1.21554"
         d="m 190.44556,121.17893 c -0.016,-1.63179 -0.0308,-1.66418 -1.12448,-2.45101 -1.30363,-0.93788 -1.98224,-2.18278 -2.08936,-3.83284 -0.0737,-1.13586 -0.0423,-1.19462 0.68255,-1.27746 0.41791,-0.0478 0.85929,0.0126 0.98084,0.13417 0.12155,0.12155 -0.16085,0.22016 -0.62755,0.21913 -0.82818,-0.002 -0.84648,0.0235 -0.76249,1.05645 0.12834,1.57837 0.83819,2.81485 2.09676,3.65234 l 1.12448,0.74826 v 1.7023 c 0,0.93627 -0.0595,1.70231 -0.13229,1.70231 -0.0728,0 -0.13957,-0.74414 -0.14846,-1.65365 z"
         id="path18261" />
      <path
         style="fill:#1a2129;stroke-width:1.21554"
         d="m 192.06092,123.51731 c -0.024,-0.49424 1.31275,-2.47693 1.95253,-2.89613 0.88206,-0.57794 1.12033,-0.54843 1.29905,0.16091 0.14477,0.57458 0.13665,0.57745 -0.23327,0.0824 -0.37291,-0.49913 -0.40532,-0.49199 -1.20122,0.26458 -0.44988,0.42765 -1.04013,1.19427 -1.31168,1.70359 -0.27154,0.50932 -0.49898,0.81744 -0.50541,0.6847 z"
         id="path18258" />
      <path
         style="fill:#1a2129;stroke-width:1.21554"
         d="m 191.18599,121.83298 0.12059,-2.57228 1.04636,-0.99411 c 0.5755,-0.54676 1.21419,-1.3802 1.4193,-1.85208 0.20512,-0.47189 0.3776,-0.70323 0.3833,-0.5141 0.0198,0.65916 -0.78937,1.88271 -1.70916,2.58427 l -0.92632,0.70654 v 2.46652 c 0,1.35659 -0.1023,2.52975 -0.22733,2.60702 -0.12503,0.0773 -0.17306,-1.01703 -0.10674,-2.43178 z"
         id="path18255" />
      <path
         style="fill:#1a2129;stroke-width:1.21554"
         d="m 187.78091,125.20897 c -1.04472,-1.09822 -1.93511,-3.39195 -1.76947,-4.55832 0.17605,-1.23972 2.53505,-0.45533 3.50191,1.16442 0.23057,0.38625 0.41876,0.80297 0.41822,0.92604 -5.4e-4,0.12307 -0.22162,-0.13343 -0.49128,-0.56999 -0.97815,-1.58355 -2.76276,-2.5086 -3.10732,-1.61068 -0.44825,1.16812 1.00955,4.26219 2.4582,5.21735 0.40948,0.26999 0.57725,0.49167 0.37282,0.49263 -0.20443,9.6e-4 -0.82682,-0.47669 -1.38308,-1.06145 z"
         id="path18254" />
      <path
         style="fill:#1a2129;stroke-width:1.21554"
         d="m 187.81589,131.63451 c 0,-0.15515 -0.4207,-0.90725 -0.93489,-1.67134 -0.5142,-0.76409 -0.74546,-1.23203 -0.51392,-1.03987 0.59151,0.49091 1.81165,2.63046 1.61325,2.82887 -0.0904,0.0904 -0.16444,0.0375 -0.16444,-0.11766 z"
         id="path18246" />
      <path
         style="fill:#1a2129;stroke-width:1.21554"
         d="m 186.7741,136.97125 c -0.31038,-0.82954 -0.51824,-1.55434 -0.46191,-1.61066 0.0563,-0.0563 0.35347,0.57918 0.66034,1.41222 0.30687,0.83304 0.51473,1.55784 0.46191,1.61066 -0.0528,0.0528 -0.34997,-0.58268 -0.66034,-1.41222 z"
         id="path18241" />
      <path
         style="fill:#1a2129;stroke-width:1.21554"
         d="m 189.69625,138.57529 c -0.031,-0.49629 -1.11144,-4.92197 -1.48557,-6.08542 -0.14274,-0.44389 -0.12526,-0.46005 0.10846,-0.10026 0.41511,0.63903 1.66235,5.76193 1.52718,6.27277 -0.092,0.34778 -0.12402,0.3292 -0.15007,-0.0871 z"
         id="path18239" />
      <path
         style="fill:#1a2129;stroke-width:1.21554"
         d="m 190.52275,133.30445 c -0.0525,-5.21536 -0.12234,-6.13233 -0.49891,-6.54843 -0.24083,-0.26612 -0.31494,-0.48386 -0.16468,-0.48386 0.78262,0 0.87609,0.80675 0.80084,6.91225 l -0.0762,6.18463 z"
         id="path18238" />
      <path
         style="fill:#1a2129;stroke-width:1.21554"
         d="m 192.04923,139.45976 c 0,-0.50992 1.09732,-4.13783 1.86708,-6.17289 0.57935,-1.53163 1.75021,-3.04596 2.3551,-3.04596 0.16178,0 -0.11814,0.362 -0.62205,0.80443 -0.98653,0.86619 -1.80302,2.74166 -2.81743,6.47161 -0.58716,2.159 -0.7827,2.64437 -0.7827,1.94281 z"
         id="path18237" />
      <path
         style="fill:#1a2129;stroke-width:1.21554"
         d="m 191.31678,133.57655 -0.0613,-6.58623 1.36062,-1.35127 c 1.62203,-1.61088 2.34121,-2.7094 2.34255,-3.57817 5.5e-4,-0.35168 0.0748,-0.56559 0.16504,-0.47536 0.0902,0.0902 0.0829,0.59652 -0.0162,1.1251 -0.13091,0.69781 -0.64564,1.431 -1.87926,2.67682 l -1.69897,1.71577 -0.0756,6.52979 -0.0756,6.52979 z"
         id="path18236" />
      <path
         style="fill:#1a2129;stroke-width:1.21554"
         d="m 175.83088,138.76281 c -0.39324,-1.46647 -0.70749,-2.88249 -0.69834,-3.14671 0.009,-0.26422 0.3639,0.82929 0.78832,2.43002 0.42442,1.60073 0.73867,3.01675 0.69834,3.14671 -0.0403,0.12996 -0.39508,-0.96355 -0.78832,-2.43002 z"
         id="path18234" />
      <path
         style="fill:#1a2129;stroke-width:1.21554"
         d="m 194.60611,140.09664 c 1.50054,-3.21842 2.51478,-6.81329 2.41917,-8.57445 -0.0447,-0.82326 0.008,-1.44131 0.11717,-1.37344 0.41842,0.26018 0.17006,3.04265 -0.47201,5.28808 -0.62282,2.17816 -2.56971,6.71033 -2.88255,6.71033 -0.0758,0 0.29241,-0.92273 0.81822,-2.05052 z"
         id="path18230" />
      <path
         style="fill:#1a2129;stroke-width:1.21554"
         d="m 204.33092,143.55637 c 0.54454,-1.77355 1.70428,-4.94021 1.7213,-4.69999 0.026,0.36629 -1.51088,4.91307 -1.72991,5.11799 -0.0924,0.0864 -0.0885,-0.10166 0.009,-0.418 z"
         id="path18225" />
      <path
         style="fill:#1a2129;stroke-width:1.21554"
         d="m 199.2574,153.19351 c 1.39973,-2.13736 2.82498,-4.62383 3.82939,-6.68072 0.63954,-1.30969 1.08095,-2.0836 0.9809,-1.7198 -0.44283,1.61036 -4.59943,8.99584 -5.06291,8.99584 -0.0755,0 0.0382,-0.26789 0.25262,-0.59532 z"
         id="path18198" />
      <path
         style="fill:#1a2129;stroke-width:1.21554"
         d="m 199.75006,153.79258 c 0.56105,-1.14574 5.77381,-6.27445 7.80313,-7.67732 1.94142,-1.3421 4.27385,-2.53473 4.50504,-2.30354 0.0667,0.0667 -0.36596,0.31624 -0.96148,0.55452 -2.76833,1.10766 -7.83611,5.33731 -10.81423,9.02571 -0.50348,0.62356 -0.72222,0.78814 -0.53246,0.40063 z"
         id="path18196" />
      <path
         style="fill:#1a2129;stroke-width:1.21554"
         d="m 182.61504,153.32581 c -1.88987,-2.36906 -5.36548,-9.04232 -5.77641,-11.09086 -0.0827,-0.41209 0.19125,0.0842 0.60869,1.10284 1.37587,3.3574 2.64375,5.78595 4.38566,8.40052 0.94527,1.41882 1.68603,2.57968 1.64612,2.57968 -0.0399,0 -0.42874,-0.44648 -0.86406,-0.99218 z"
         id="path18195" />
      <path
         style="fill:#1a2129;stroke-width:1.21554"
         d="m 193.00396,155.37637 c 0.30246,-1.61869 2.44413,-7.59444 3.63555,-10.14401 0.63217,-1.35279 1.75946,-3.3637 2.50509,-4.46868 2.33195,-3.4558 5.76345,-6.81856 6.95793,-6.81856 0.69455,0 1.02079,0.78979 0.76851,1.86047 l -0.21622,0.91765 0.0166,-1.12517 c 0.009,-0.61885 -0.0569,-1.19869 -0.14672,-1.28855 -0.44118,-0.44118 -1.77126,0.38691 -3.59559,2.23854 -3.88192,3.94002 -6.07834,7.87088 -8.65641,15.49211 -0.793,2.34423 -1.36395,3.84552 -1.26878,3.3362 z"
         id="path18192" />
      <path
         style="fill:#1a2129;stroke-width:1.21554"
         d="m 189.59318,158.17366 c -0.5375,-3.63965 -3.41652,-11.74098 -5.31933,-14.96817 -2.49608,-4.23337 -7.13826,-8.92613 -8.56089,-8.65418 -0.38213,0.073 -0.57831,0.005 -0.51396,-0.1779 0.29728,-0.84556 3.20169,0.94552 5.17497,3.19127 2.50008,2.8453 3.7581,4.69812 5.1773,7.62519 1.98913,4.10253 4.5535,12.22003 4.32602,13.69403 -0.0534,0.34581 -0.17192,0.0494 -0.28411,-0.71024 z"
         id="path18174" />
      <path
         style="fill:#1a2129;stroke-width:1.21554"
         d="m 190.57644,153.12737 c -1.6e-4,-3.63802 0.0371,-5.163 0.0828,-3.38884 0.0457,1.77416 0.0458,4.75072 2.9e-4,6.61458 -0.0455,1.86386 -0.0829,0.41228 -0.0831,-3.22574 z"
         id="path18172" />
      <path
         style="fill:#1a2129;stroke-width:1.21554"
         d="m 191.31237,153.89639 c -0.0501,-5.37863 0.002,-6.28262 0.43878,-7.55085 0.50301,-1.462 1.8507,-4.23823 1.87326,-3.85885 0.007,0.11397 -0.27187,0.76882 -0.6192,1.4552 -1.21449,2.40005 -1.32533,3.12584 -1.4835,9.71464 l -0.15245,6.35 z"
         id="path18171" />
      <path
         style="fill:#1a2129;stroke-width:1.21554"
         d="m 186.98569,165.25899 c -5.54149,-3.77022 -9.2006,-6.7647 -11.87442,-9.71758 -3.37116,-3.72299 -6.30322,-8.47623 -6.41786,-10.40412 l -0.0598,-1.00574 1.02032,0.0327 c 1.22607,0.0393 4.12604,1.49818 6.22479,3.13159 1.7732,1.38003 5.35954,5.04266 6.7464,6.8899 l 0.99321,1.32292 -1.26707,-1.45521 c -4.16116,-4.77904 -8.09635,-8.03545 -11.17846,-9.25031 -2.59738,-1.02379 -2.86555,-0.7157 -1.68964,1.94118 2.5478,5.75655 8.01882,11.72351 15.29003,16.67604 3.48724,2.37521 4.06623,2.80392 3.78678,2.80392 -0.0855,0 -0.79396,-0.43437 -1.57427,-0.96526 z"
         id="path18165" />
      <path
         style="fill:#1a2129;stroke-width:1.21554"
         d="m 190.22675,166.73198 c -1.54262,-0.30299 -1.79434,-0.58997 -0.28426,-0.32407 0.64938,0.11434 1.5545,0.2007 2.01137,0.19192 1.88503,-0.0362 8.50722,-4.8163 13.34338,-9.63154 4.23342,-4.21512 6.31548,-7.28992 7.70685,-11.38155 0.33638,-0.98918 0.44818,-1.16246 0.3491,-0.54109 -0.20487,1.28486 -1.60758,4.30847 -3.01278,6.49422 -1.77617,2.76277 -8.20588,9.04307 -12.05908,11.77886 -3.27731,2.32691 -5.73281,3.72032 -6.46783,3.67027 -0.23415,-0.0159 -0.94819,-0.1316 -1.58675,-0.25702 z"
         id="path18161" />
    </g>
  </g>
</svg>
