<?xml version="1.0" encoding="UTF-8" standalone="no"?>
<!-- Created with Inkscape (http://www.inkscape.org/) -->

<svg
   width="185"
   height="185"
   viewBox="0 0 48.947914 48.947918"
   version="1.1"
   id="svg1"
   sodipodi:docname="narcissus-2.svg"
   inkscape:version="1.4 (e7c3feb100, 2024-10-09)"
   xmlns:inkscape="http://www.inkscape.org/namespaces/inkscape"
   xmlns:sodipodi="http://sodipodi.sourceforge.net/DTD/sodipodi-0.dtd"
   xmlns="http://www.w3.org/2000/svg"
   xmlns:svg="http://www.w3.org/2000/svg">
  <sodipodi:namedview
     id="namedview1"
     pagecolor="#ffffff"
     bordercolor="#666666"
     borderopacity="1.0"
     inkscape:showpageshadow="2"
     inkscape:pageopacity="0.0"
     inkscape:pagecheckerboard="0"
     inkscape:deskcolor="#d1d1d1"
     inkscape:document-units="mm"
     inkscape:zoom="1.8041143"
     inkscape:cx="93.674774"
     inkscape:cy="88.686177"
     inkscape:current-layer="layer1" />
  <defs
     id="defs1" />
  <g
     inkscape:label="Ebene 1"
     inkscape:groupmode="layer"
     id="layer1">
    <g
       id="g20382"
       transform="matrix(0.83862175,0,0,0.83862175,-94.241428,-24.064248)"
       style="display:inline;stroke-width:1.19243">
      <path
         style="fill:#e1c760;stroke-width:1.19243"
         d="m 148.80592,86.825168 c 0,-1.062675 1.28938,-10.832818 2.27329,-17.225571 1.90832,-12.398965 3.40001,-19.496996 5.63764,-26.826101 1.01746,-3.332587 1.35595,-3.948004 2.02934,-3.689599 0.85813,0.329294 0.65287,6.247775 -0.43893,12.656326 -0.76426,4.485951 -2.08228,13.460386 -1.99034,13.552319 0.0424,0.04236 0.41221,-0.786924 0.82189,-1.842857 1.13644,-2.929127 5.33648,-11.834076 5.84833,-12.399669 0.56761,-0.627204 1.15303,-0.645424 1.20159,-0.0374 0.22186,2.777588 -1.42673,9.609884 -6.36824,26.392186 l -2.80461,9.525 -3.10498,0.07087 c -1.79141,0.04089 -3.10498,-0.03336 -3.10498,-0.175509 z"
         id="path20378" />
      <path
         style="fill:#e1c760;stroke-width:1.19243"
         d="m 140.34236,83.820951 c -0.32974,-1.78263 -1.58158,-7.229739 -2.78186,-12.104687 -2.53016,-10.276263 -2.63605,-10.842961 -2.15023,-11.50736 0.54211,-0.741388 1.09759,-0.347469 2.44317,1.732581 2.90384,4.488879 5.26576,11.055132 6.32362,17.579987 l 0.34317,2.116666 0.0262,-2.003842 c 0.0568,-4.350388 -0.79544,-15.542128 -1.46437,-19.229672 -0.12515,-0.689944 -0.37323,-0.958816 -1.25101,-1.355903 -1.87592,-0.848615 -3.23766,-2.030987 -3.92297,-3.406224 l -0.65059,-1.305563 -0.74226,0.742257 c -1.05958,1.059583 -3.04588,1.640069 -5.70096,1.666082 l -2.24896,0.02203 0.0129,-2.513541 c 0.0107,-2.084088 0.13035,-2.797437 0.70006,-4.175144 l 0.68712,-1.661603 -0.94425,-0.394531 c -0.51933,-0.216992 -1.44944,-0.808501 -2.0669,-1.314463 -1.14942,-0.941867 -3.28377,-3.87396 -3.28377,-4.511135 0,-0.51048 3.30053,-2.379999 5.1188,-2.899445 1.0386,-0.29671 1.93618,-0.383553 2.73153,-0.264283 1.08746,0.163075 1.16429,0.138101 0.93675,-0.304522 -0.44918,-0.873791 -0.59413,-2.700355 -0.31362,-3.952063 0.35139,-1.567984 2.26034,-4.864477 2.81694,-4.864477 0.6312,0 3.01799,1.438569 4.38888,2.645277 0.73976,0.651161 1.39082,1.531613 1.66665,2.253856 l 0.45265,1.185254 0.86936,-0.537294 c 2.08131,-1.286318 7.71854,-2.60134 8.1511,-1.901443 0.34175,0.552955 -0.38992,5.738119 -1.03496,7.334558 -0.35279,0.873125 -0.53171,1.624614 -0.39762,1.669977 1.42101,0.480696 4.26144,3.856345 4.69353,5.577917 0.21848,0.870486 -1.09395,1.990567 -2.86393,2.4442 l -1.28142,0.328417 0.1957,1.868911 c 0.10764,1.027901 0.18613,5.440786 0.17443,9.80641 -0.0218,8.122669 -0.24629,11.213533 -1.47516,20.30677 l -0.56316,4.167187 h -3.49753 -3.49753 z m 6.70928,-6.151562 c 1.08402,-9.736784 1.37721,-15.977964 0.98191,-20.902083 -0.41429,-5.160603 -0.47437,-5.423958 -1.2374,-5.423958 -0.60969,0 -0.62312,0.04627 -0.46169,1.590706 0.13891,1.329023 0.0424,1.963358 -0.58647,3.855985 l -0.75273,2.265281 0.61305,4.941409 c 0.40862,3.293573 0.65938,7.039198 0.75197,11.232101 0.0764,3.45988 0.17042,6.257848 0.20894,6.217708 0.0385,-0.04014 0.2556,-1.739858 0.48242,-3.777149 z m -18.23499,-31.31226 c -0.13825,-0.123046 -0.84667,-0.736324 -1.57427,-1.36284 l -1.32292,-1.139119 1.36939,1.362839 c 0.75317,0.749562 1.46159,1.36284 1.57427,1.36284 0.11268,0 0.0918,-0.100674 -0.0465,-0.22372 z"
         id="path20377" />
      <path
         style="fill:#e1c760;stroke-width:1.19243"
         d="m 130.42317,86.710816 c -1.067,-3.516431 -1.83535,-5.145928 -5.11701,-10.85213 -3.54686,-6.167325 -6.40251,-11.427694 -6.39411,-11.778519 0.002,-0.09301 0.10549,-0.329167 0.22948,-0.524791 0.37409,-0.59027 1.51929,0.201232 4.02085,2.779012 2.87607,2.963704 4.81011,5.553874 7.42752,9.947327 1.14204,1.916965 2.07643,3.408659 2.07643,3.314875 0,-0.31957 -4.95042,-11.698786 -7.85979,-18.066784 -3.39035,-7.420755 -3.90095,-8.700771 -3.69002,-9.25044 0.31841,-0.829773 1.20173,-0.364007 3.11719,1.64367 5.66437,5.937072 13.99949,22.783974 15.96823,32.274905 l 0.17748,0.855636 -4.93106,-0.01629 c -3.52838,-0.01166 -4.95785,-0.104525 -5.02519,-0.326469 z"
         id="path20376" />
      <path
         style="fill:#558d65;stroke-width:1.19243"
         d="m 151.76072,86.85479 -2.99832,-0.07501 0.15138,-0.983318 c 0.0833,-0.540825 0.39395,-3.007381 0.69041,-5.481235 1.79744,-14.998929 4.82624,-30.574578 7.48598,-38.496873 0.69021,-2.055863 0.94022,-2.513542 1.37304,-2.513542 0.50895,0 0.52806,0.166758 0.50027,4.365625 -0.0209,3.155159 -0.18385,5.245964 -0.58776,7.540625 -0.30738,1.74625 -0.92299,5.609108 -1.36801,8.584129 -0.44503,2.975021 -0.86968,5.713458 -0.94367,6.085416 -0.074,0.371958 0.21206,-0.216682 0.63568,-1.308088 1.72772,-4.451264 5.87434,-13.217513 6.49635,-13.733733 1.49596,-1.241543 1.20643,2.253653 -0.85274,10.29415 -0.87579,3.419739 -2.06213,7.825052 -2.63631,9.789583 -3.43514,11.753215 -4.64238,15.757414 -4.78618,15.874999 -0.089,0.07276 -1.51104,0.09853 -3.16012,0.05728 z"
         id="path20299" />
      <path
         style="fill:#558d65;stroke-width:1.19243"
         d="m 144.27057,86.855963 -3.34472,-0.07384 -0.56654,-3.101163 c -0.3116,-1.70564 -1.58092,-7.185933 -2.82072,-12.178428 -2.24387,-9.035791 -2.59622,-11.353608 -1.76741,-11.626412 0.57102,-0.18795 1.89506,1.564265 3.3951,4.493018 2.57745,5.032321 4.12853,9.797092 5.01868,15.416908 l 0.33527,2.116667 0.0262,-2.955515 c 0.041,-4.631435 -0.87783,-16.327877 -1.47835,-18.818682 -0.0977,-0.405027 -0.643,-0.859999 -1.63608,-1.36496 -1.79012,-0.910231 -3.13025,-2.172204 -3.73658,-3.518643 l -0.44727,-0.993218 -0.50496,0.558351 c -1.14367,1.264592 -4.43411,2.224122 -6.99982,2.041228 l -1.17806,-0.08398 0.0277,-2.513541 c 0.0266,-2.408294 0.13733,-2.893086 1.27714,-5.589752 0.13507,-0.319552 -0.004,-0.477119 -0.54131,-0.611894 -2.01146,-0.504844 -6.02813,-4.888491 -5.57093,-6.079918 0.17839,-0.464888 4.02986,-2.431634 5.47393,-2.795255 0.81766,-0.205891 1.54951,-0.219624 2.33221,-0.04376 1.01741,0.228599 1.11952,0.20884 0.94533,-0.182922 -0.1074,-0.241561 -0.24654,-1.336367 -0.30918,-2.4329 -0.11096,-1.942273 -0.0836,-2.051467 1.06291,-4.233333 1.0459,-1.990498 1.25399,-2.2342 1.87062,-2.190768 1.37953,0.09716 5.73469,3.431608 5.73469,4.390653 0,0.08593 0.11713,0.464332 0.2603,0.84089 l 0.2603,0.684652 1.53947,-0.77712 c 2.41635,-1.219768 7.18276,-2.292569 7.54448,-1.698077 0.0717,0.117865 0.0139,1.404925 -0.12858,2.860134 -0.22422,2.290822 -0.64864,4.047322 -1.38474,5.730784 -0.13472,0.308114 -0.0363,0.488547 0.33003,0.604804 1.50917,0.478992 4.84908,5.053691 4.44962,6.094674 -0.21232,0.553282 -1.67125,1.418808 -3.01673,1.789711 l -1.12606,0.310414 0.20001,2.127514 c 0.36494,3.881721 0.19763,16.367854 -0.28199,21.045222 -0.59159,5.769262 -1.51158,12.534427 -1.72707,12.699999 -0.0947,0.07276 -1.67729,0.09907 -3.51689,0.05846 z m 2.94056,-10.244913 c 0.92136,-8.261555 1.21633,-15.163599 0.85087,-19.909939 -0.38574,-5.009763 -0.46402,-5.357768 -1.20517,-5.357768 -0.52948,0 -0.56532,0.135241 -0.57834,2.182813 -0.0108,1.69203 -0.1532,2.498068 -0.63352,3.584951 -0.68912,1.559384 -0.6785,2.327144 0.11974,8.652027 0.22039,1.74625 0.4785,6.092031 0.57358,9.657291 0.0951,3.565261 0.21087,6.363229 0.25729,6.217708 0.0464,-0.14552 0.32343,-2.407708 0.61555,-5.027083 z M 144.53688,56.8148 c 0.64068,-1.896721 0.7742,-5.011369 0.23414,-5.461925 -1.23746,-1.032382 -3.07307,-2.056145 -3.29276,-1.83645 -0.1385,0.138496 -0.52451,0.304328 -0.85781,0.368515 -0.3333,0.06419 -0.75298,0.317716 -0.93263,0.563395 -0.17964,0.24568 -0.45731,0.365921 -0.61704,0.267204 -0.29969,-0.185218 -0.84909,1.348577 -0.84091,2.347601 0.008,0.960108 0.97954,2.698508 1.93401,3.4601 1.0604,0.84611 3.05758,1.963858 3.50901,1.963858 0.16451,0 0.55331,-0.752534 0.86399,-1.672298 z m -10.5517,-1.658295 c 1.63943,-0.48686 2.95067,-1.742878 3.40597,-3.262546 0.18642,-0.622212 0.29039,-1.179852 0.23104,-1.2392 -0.0593,-0.05935 -0.63315,-0.154975 -1.27511,-0.212504 -0.64196,-0.05753 -1.2565,-0.116443 -1.36564,-0.130919 -0.10914,-0.01448 -0.19844,-0.264446 -0.19844,-0.555488 0,-0.381746 -0.17639,-0.529166 -0.63315,-0.529166 -0.34823,0 -0.70168,-0.178594 -0.78545,-0.396875 -0.17847,-0.465083 -1.03659,-0.517522 -1.79826,-0.109888 -0.87693,0.46932 -1.86484,3.038459 -2.01551,5.241507 l -0.13381,1.95662 1.61865,-0.18313 c 0.89026,-0.100721 2.21762,-0.361006 2.94971,-0.578411 z m 16.49774,-5.689796 c 2.30453,-0.768431 2.43759,-0.95486 1.59295,-2.231941 -1.09252,-1.651884 -2.76459,-3.266569 -3.70355,-3.576454 -0.66808,-0.220487 -1.12979,-0.191809 -2.07422,0.128833 -0.66816,0.226848 -1.48558,0.412452 -1.81649,0.412452 -0.95702,0 -1.44252,0.571156 -1.57429,1.852083 -0.0674,0.654844 -0.20808,1.449709 -0.31269,1.766368 -0.15675,0.474495 -0.0112,0.688193 0.82773,1.21518 2.20725,1.386535 3.89212,1.489976 7.06056,0.433479 z m -10.56787,-0.294713 c 0.55243,-0.294171 0.88248,-0.636195 1.61961,-1.678377 0.53872,-0.761674 0.71138,-3.54459 0.26316,-4.241731 -0.21853,-0.339903 -0.26632,-0.692948 -0.12479,-0.921952 0.35598,-0.575991 -0.73298,-1.597981 -1.49809,-1.405951 -0.39908,0.100163 -0.8521,-0.03612 -1.30546,-0.392736 -0.6481,-0.509799 -0.73717,-0.518035 -1.33883,-0.12381 -0.59232,0.3881 -0.68391,0.38669 -1.13042,-0.01739 -0.457,-0.413582 -0.53522,-0.393622 -1.31614,0.335865 -0.49613,0.463456 -0.83026,1.037933 -0.83026,1.427493 0,0.358553 -0.23812,0.954642 -0.52916,1.324642 -0.66551,0.84606 -0.66769,1.307933 -0.009,1.904078 0.28612,0.258934 0.50538,0.66434 0.48724,0.900903 -0.0181,0.236562 -0.0141,0.771421 0.009,1.188576 0.0344,0.622177 0.13784,0.733379 0.57574,0.618866 0.55716,-0.1457 1.31827,0.412185 1.31827,0.966275 0,0.424266 3.05523,0.516707 3.80913,0.115252 z m -1.29559,-2.72383 c -0.14552,-0.04709 -0.59201,-0.157828 -0.99219,-0.24609 -0.85201,-0.187913 -0.96094,-0.92428 -0.32524,-2.19857 0.83551,-1.674806 1.6012,-1.759095 2.50555,-0.275813 0.54712,0.897366 0.66733,1.708883 0.32918,2.222182 -0.21944,0.333094 -1.11694,0.627839 -1.5173,0.498291 z m -6.06984,0.534585 c 0.42087,-0.321105 0.44736,-0.435429 0.14673,-0.633256 -0.20177,-0.132775 -0.42423,-0.838505 -0.49435,-1.568289 -0.10742,-1.117892 -0.0392,-1.402467 0.433,-1.806794 1.53477,-1.314109 -0.24497,-3.26486 -2.59638,-2.845867 -1.12739,0.200887 -4.63116,1.763087 -4.88861,2.179646 -0.415,0.671496 2.33595,3.600131 4.47362,4.762563 0.76329,0.415066 2.32831,0.367996 2.92599,-0.088 z m 13.28823,-4.252396 c 2.16161,-0.902957 3.00155,-2.460557 3.38098,-6.269818 l 0.1779,-1.785938 h -0.929 c -1.24899,0 -4.12818,0.911505 -5.2348,1.657257 -1.09498,0.737905 -2.09993,2.174925 -2.09993,3.00277 0,0.365379 0.24049,0.741125 0.59531,0.930132 0.80266,0.427558 1.18742,0.988881 1.38229,2.016612 0.14065,0.741814 0.27156,0.859895 0.9533,0.859895 0.43465,0 1.23292,-0.184909 1.77395,-0.41091 z m -5.64576,-5.342137 c 0.0195,-2.337908 -0.53051,-3.269583 -2.8903,-4.896431 -1.00265,-0.691224 -1.92466,-1.256771 -2.04893,-1.256771 -0.12427,0 -0.63801,0.859844 -1.14165,1.910765 -0.97095,2.026022 -1.12703,3.270727 -0.63318,5.049173 0.33269,1.198051 0.86793,1.480231 1.58198,0.834025 0.4648,-0.420643 0.59868,-0.431387 1.22406,-0.09823 0.54873,0.292313 0.72646,0.301783 0.81323,0.04333 0.0611,-0.181901 0.27972,-0.330729 0.48587,-0.330729 0.20616,0 0.37862,0.148828 0.38324,0.330729 0.005,0.201981 0.14525,0.150482 0.3599,-0.132292 0.47754,-0.629075 0.65695,-0.584447 0.97099,0.241523 0.43794,1.15188 0.87804,0.318153 0.89479,-1.695092 z"
         id="path20298" />
      <path
         style="fill:#558d65;stroke-width:1.19243"
         d="m 135.17988,86.857063 -4.7625,-0.07274 -0.64378,-2.143003 c -0.47365,-1.576701 -1.68958,-3.969644 -4.60132,-9.055383 -4.9267,-8.60512 -6.3677,-11.49604 -5.96949,-11.975862 0.22421,-0.270148 0.41862,-0.281208 0.85747,-0.04878 1.06282,0.562891 4.44326,4.047094 6.37188,6.567469 1.79912,2.351126 5.96961,8.962105 5.96961,9.462905 0,0.124046 0.18017,0.456654 0.40039,0.739129 0.29259,0.375318 0.2635,0.157427 -0.10806,-0.809326 -0.9364,-2.436438 -4.69893,-11.042571 -8.09715,-18.520833 -1.85154,-4.074583 -3.38299,-7.761207 -3.40321,-8.192499 -0.0706,-1.505106 0.7685,-1.158106 3.09511,1.280012 5.5126,5.776794 13.36431,21.426125 15.64741,31.187035 0.1956,0.83621 0.27699,1.550584 0.18088,1.5875 -0.0961,0.03692 -2.31787,0.03438 -4.93724,-0.0056 z"
         id="path20297" />
      <path
         style="fill:#225133;stroke-width:1.19243"
         d="m 148.94654,86.069909 c 0.0701,-0.400182 0.42524,-3.168385 0.78928,-6.151562 1.80426,-14.785415 4.44586,-28.623438 7.11743,-37.284713 1.00904,-3.271312 1.2069,-3.621638 1.89604,-3.35719 0.41184,0.158039 0.43914,0.560014 0.2944,4.334611 -0.0877,2.28823 -0.4015,5.529637 -0.69722,7.203127 -0.29571,1.673489 -0.90157,5.54302 -1.34634,8.598958 -0.44477,3.055937 -0.92194,5.972968 -1.06039,6.482291 -0.53557,1.97037 -0.18855,1.610727 0.63824,-0.661458 1.04905,-2.882981 4.00795,-9.530739 5.53497,-12.435416 3.4006,-6.468567 2.15692,2.240399 -2.68264,18.785415 -0.85132,2.910417 -2.19109,7.521796 -2.97727,10.24751 l -1.42942,4.955844 -3.10224,0.0051 -3.10223,0.0051 z m 1.97604,0.182823 c 0,-0.15411 -0.13746,-0.195245 -0.30546,-0.09141 -0.20132,0.124421 -0.23309,0.07169 -0.0932,-0.154676 0.11675,-0.188904 0.26225,-0.832379 0.32333,-1.429943 0.13116,-1.283135 0.9994,-7.250276 1.65951,-11.405229 0.13872,-0.873125 0.31265,-2.06375 0.38652,-2.645833 0.41727,-3.288025 0.72655,-3.577127 0.54823,-0.512462 -0.1387,2.383854 0.17533,2.2191 0.53615,-0.281288 0.084,-0.582083 0.31263,-1.713177 0.50806,-2.513542 0.19543,-0.800364 0.55217,-2.883958 0.79276,-4.630208 0.24059,-1.74625 0.48455,-3.472656 0.54214,-3.836458 0.25456,-1.60813 0.66451,-4.059965 1.15022,-6.879166 0.28832,-1.67349 0.58899,-3.638021 0.66816,-4.365625 0.35134,-3.229114 0.48249,-5.017175 0.359,-4.894791 -0.31791,0.31507 -2.62346,10.14426 -3.63057,15.478124 -1.48929,7.887596 -2.209,12.361878 -3.17065,19.711457 -0.44746,3.41974 -0.9097,6.783255 -1.02721,7.474479 -0.19017,1.118625 -0.16053,1.256771 0.26967,1.256771 0.26583,0 0.48333,-0.126089 0.48333,-0.280198 z m 2.7407,-21.090495 c 0.0694,-0.112215 0.20543,-0.73595 0.3024,-1.386077 0.097,-0.650127 0.29289,-1.361987 0.43539,-1.58191 0.18424,-0.28435 0.2081,-0.170565 0.0826,0.393889 -0.32451,1.459506 -0.3455,1.584701 -0.36583,2.182813 -0.0111,0.327422 -0.14634,0.595312 -0.30045,0.595312 -0.1541,0 -0.22345,-0.09181 -0.1541,-0.204027 z m 1.08098,17.864078 c 0.57396,-1.927664 1.25265,-4.278749 1.50821,-5.224635 0.72995,-2.701716 3.00951,-10.499122 3.7515,-12.832291 1.24114,-3.902742 2.94567,-10.947597 2.70664,-11.186619 -0.0805,-0.0805 -0.14636,0.0077 -0.14636,0.195992 0,0.188297 -0.348,1.071344 -0.77333,1.962326 -2.89883,6.07248 -5.3009,12.647942 -6.48771,17.759551 -0.40545,1.74625 -1.2042,5.139531 -1.77502,7.540624 -0.57081,2.401094 -1.08179,4.573984 -1.1355,4.828646 -0.0737,0.349428 0.0748,0.462803 0.60518,0.462135 0.67269,-8.49e-4 0.7476,-0.151214 1.74639,-3.505729 z m 1.76455,-10.783181 c 0.13897,-0.618521 0.362,-1.328867 0.49563,-1.578546 0.13362,-0.249679 0.29908,-0.740271 0.36768,-1.090205 0.0686,-0.349934 0.43165,-1.469681 0.80676,-2.488327 0.37512,-1.018646 0.65208,-1.871927 0.61547,-1.896181 -0.0366,-0.02425 0.0366,-0.143316 0.16279,-0.264583 0.30665,-0.294814 -0.0557,1.391644 -0.54957,2.557639 -0.21572,0.509323 -0.67191,1.925624 -1.01375,3.147337 -0.66385,2.372531 -1.3274,3.581797 -0.88501,1.612866 z"
         id="path20220" />
      <path
         style="fill:#225133;stroke-width:1.19243"
         d="m 140.37267,83.42387 c -0.34543,-1.855277 -1.56897,-7.1237 -2.71898,-11.707606 -2.28112,-9.092472 -2.682,-11.4544 -1.9892,-11.72025 1.43625,-0.551141 5.6159,7.735252 7.36287,14.597296 0.65691,2.580314 1.52115,7.634892 1.54006,9.007155 0.003,0.206154 0.0668,0.3132 0.14211,0.23788 0.36637,-0.366368 -0.5564,-16.535947 -1.22026,-21.382497 -0.38798,-2.832439 -0.37577,-2.810942 -2.12599,-3.743796 -2.17939,-1.161605 -3.88114,-3.12021 -3.7012,-4.25985 0.0589,-0.372953 -0.29556,-0.198547 -1.18678,0.583955 -1.09049,0.957467 -2.95772,1.53755 -5.68001,1.76458 l -2.06004,0.171802 -0.18587,-0.99074 c -0.27893,-1.486848 0.0619,-3.935731 0.80714,-5.798417 0.36519,-0.912822 0.66398,-1.730399 0.66398,-1.816836 0,-0.08644 -0.44266,-0.303251 -0.98369,-0.481808 -1.20097,-0.396356 -3.46929,-2.495003 -4.5982,-4.25426 -0.8114,-1.264454 -0.82116,-1.314971 -0.35386,-1.831328 0.2643,-0.292052 1.37438,-0.972756 2.46683,-1.512674 1.77543,-0.877465 2.20416,-0.981669 4.03895,-0.981669 h 2.05268 l -0.18687,-0.661458 c -0.10279,-0.363802 -0.1837,-1.554427 -0.17981,-2.645833 0.006,-1.798113 0.10036,-2.149646 1.00088,-3.745124 1.36638,-2.420881 1.48495,-2.494931 2.87449,-1.795267 2.75229,1.385839 4.9811,3.72732 4.9811,5.232907 0,0.716686 0.0314,0.714372 1.21622,-0.08968 1.715,-1.163829 7.76628,-2.673195 8.14159,-2.030749 0.0575,0.09842 -0.0494,1.507065 -0.23748,3.130314 -0.30356,2.619484 -0.60872,3.67341 -1.6544,5.713741 -0.0559,0.109141 0.0772,0.198438 0.29591,0.198438 0.72552,0 3.24565,2.587148 4.12233,4.231959 0.80736,1.514757 0.83499,1.652507 0.44958,2.240723 -0.38884,0.593441 -2.86716,1.729401 -3.77302,1.729401 -0.26258,0 -0.3586,0.147651 -0.26116,0.401572 0.0848,0.220864 0.29208,2.036567 0.46073,4.034895 0.51897,6.149082 -0.0136,16.400824 -1.40175,26.982802 l -0.59871,4.564062 -3.44607,-2.06e-4 -3.44606,-2.06e-4 z m 2.36872,2.778331 c 0.0167,-0.264584 0.0476,-0.264584 0.15434,0 0.0734,0.181901 0.35377,0.330729 0.62305,0.330729 0.35839,0 0.46513,-0.159535 0.3983,-0.595313 -0.0502,-0.327422 -0.16961,-1.190625 -0.26532,-1.918229 -0.56543,-4.298561 -2.55032,-12.18599 -3.96167,-15.742707 -0.98185,-2.474345 -2.956,-6.35 -3.23451,-6.35 -0.0784,0 -0.0585,0.327422 0.0442,0.727604 0.10264,0.400182 0.24221,1.025261 0.31017,1.389063 0.068,0.363802 0.53851,2.20927 1.04567,4.101041 2.00221,7.46843 3.25683,12.543611 3.66277,14.816666 0.23389,1.309687 0.48327,2.64914 0.55416,2.976562 0.13627,0.629344 0.63342,0.825998 0.66888,0.264584 z m -0.15695,-0.7215 c 0.0879,-0.142163 0.0441,-0.70771 -0.0973,-1.256771 -0.14139,-0.54906 -0.3182,-1.41501 -0.39291,-1.924333 -0.0747,-0.509323 -0.19862,-1.164167 -0.27537,-1.455209 -0.0767,-0.291041 -0.44337,-1.838854 -0.81472,-3.439583 -0.37135,-1.600729 -0.84157,-3.505729 -1.04493,-4.233333 -0.96644,-3.457818 -1.78941,-6.128054 -2.01822,-6.548437 -0.16669,-0.306237 -0.15849,-0.463021 0.0242,-0.463021 0.36058,0 1.48158,2.553561 1.97456,4.497917 0.0554,0.218281 0.34938,1.349375 0.65342,2.513541 0.30403,1.164167 0.59749,2.354792 0.65214,2.645833 0.0546,0.291042 0.34471,1.600729 0.6446,2.910417 0.54327,2.372646 0.68218,3.171744 0.98847,5.686499 0.11239,0.922807 0.068,1.324959 -0.14614,1.324959 -0.16914,0 -0.23564,-0.116316 -0.14777,-0.258479 z m 5.28454,-4.936251 c 0.23671,-1.835636 0.37907,-3.388834 0.31635,-3.451551 -0.0627,-0.06272 -0.258,0.934305 -0.43397,2.215604 -0.17596,1.2813 -0.42739,2.97658 -0.55873,3.767291 -0.13134,0.790711 -0.22856,1.624148 -0.21606,1.852083 0.05,0.911351 0.48545,-1.227447 0.89241,-4.383427 z m -0.82592,-1.94902 c 0.89156,-7.534217 1.08116,-10.384767 1.09112,-16.404166 0.01,-5.957381 -0.21652,-9.897592 -0.60261,-10.489275 -0.0995,-0.15244 -0.51131,-0.358056 -0.9152,-0.456924 -0.69906,-0.171126 -0.72466,-0.14449 -0.53309,0.554574 0.361,1.31735 0.15697,3.37259 -0.53409,5.380022 l -0.6778,1.968895 0.50638,3.933587 c 0.69352,5.387246 1.14125,12.918038 0.98242,16.524299 -0.0726,1.647463 -0.0437,2.89762 0.0641,2.778125 0.10783,-0.119494 0.38626,-1.824606 0.61873,-3.789137 z M 144.7382,56.380948 c 0.51794,-1.592874 0.60812,-2.271761 0.4672,-3.517283 -0.15054,-1.330649 -0.27478,-1.595221 -0.90116,-1.919138 -0.39961,-0.206643 -1.10233,-0.691911 -1.56162,-1.078376 l -0.83507,-0.702661 -1.67718,0.825676 c -1.40897,0.693634 -1.70362,0.957848 -1.84249,1.652169 -0.50664,2.533217 0.56542,4.396205 3.53887,6.149698 1.76627,1.041599 2.06259,0.892981 2.81145,-1.410085 z m 4.37396,-1.440078 c -0.0498,-0.81447 -0.16891,-1.481072 -0.26459,-1.481337 -0.0957,-2.65e-4 -0.13358,0.714586 -0.0842,1.588557 0.0493,0.873972 0.1684,1.540574 0.26459,1.481338 0.0962,-0.05924 0.1341,-0.774088 0.0842,-1.588558 z m -15.35637,0.375307 c 0.52644,-0.150807 1.35988,-0.541802 1.85208,-0.868877 0.9501,-0.631345 2.08555,-2.558961 2.08555,-3.540555 0,-0.44401 -0.14659,-0.581149 -0.59532,-0.556928 -1.70522,0.09204 -2.3151,-0.06443 -2.3151,-0.593969 0,-0.355503 -0.17639,-0.529166 -0.53747,-0.529166 -0.29561,0 -0.606,-0.178594 -0.68977,-0.396875 -0.26205,-0.682907 -1.82867,-0.499453 -2.44693,0.286542 -0.903,1.147983 -1.6175,3.438607 -1.6175,5.185601 v 1.615835 l 1.65365,-0.163707 c 0.9095,-0.09004 2.08437,-0.287094 2.61081,-0.437901 z m 16.90565,-5.826267 c 1.95777,-0.771683 2.17435,-0.972871 1.80857,-1.680073 -0.71683,-1.385915 -2.30251,-3.183441 -3.35629,-3.804695 l -1.14741,-0.676448 -2.02759,0.464962 c -2.74014,0.62836 -2.80801,0.674844 -2.90442,1.989391 -0.0457,0.622974 -0.25411,1.393711 -0.46315,1.712748 -0.344,0.525005 -0.32356,0.633129 0.21537,1.139055 0.32749,0.307443 1.13122,0.809911 1.78606,1.116596 1.4842,0.695099 3.92818,0.590121 6.08886,-0.261536 z m -10.76225,-0.309423 c 0.56646,-0.301684 0.89451,-0.639668 1.63168,-1.681088 0.55841,-0.788875 0.75426,-3.950909 0.26963,-4.353118 -0.29808,-0.247383 -0.3135,-0.419957 -0.0721,-0.806528 0.45083,-0.721892 -0.4027,-1.579738 -1.57178,-1.579738 -0.49189,0 -1.17678,-0.185063 -1.52199,-0.411251 -0.41726,-0.273396 -0.68544,-0.317742 -0.80006,-0.132292 -0.26313,0.425753 -1.38706,0.332154 -1.56452,-0.13029 -0.24718,-0.644134 -1.94242,1.201906 -2.15774,2.349684 -0.0963,0.51333 -0.34199,0.99737 -0.54596,1.075643 -0.5469,0.209863 -0.45066,1.327612 0.16204,1.882099 0.31608,0.286048 0.47321,0.670363 0.38618,0.944548 -0.0807,0.254251 -0.067,0.77992 0.0305,1.168153 0.1291,0.514388 0.30736,0.67183 0.65711,0.580368 0.2672,-0.06987 0.68072,0.09633 0.93287,0.374956 0.2491,0.275256 0.3679,0.500465 0.264,0.500465 -0.10391,0 -0.12861,0.09758 -0.0549,0.216839 0.20993,0.339685 3.31788,0.340902 3.95507,0.0016 z m -2.45077,-3.111098 c -0.55931,-0.353976 -0.61965,-1.352913 -0.11537,-1.910134 0.24331,-0.268853 0.34982,-0.488823 0.23669,-0.488823 -0.11314,0 -0.0575,-0.178594 0.12368,-0.396875 0.64155,-0.773019 1.53401,-0.480637 2.13626,0.699864 0.77423,1.517622 0.41849,2.344577 -1.00611,2.338793 -0.54882,-0.0022 -1.16764,-0.1115 -1.37515,-0.242825 z m -5.35073,1.279327 c 0.80862,-0.28189 1.09152,-0.841588 0.58393,-1.155295 -0.13711,-0.08474 -0.33239,-0.708191 -0.43395,-1.385446 -0.15992,-1.066423 -0.10881,-1.292795 0.38159,-1.68989 0.34581,-0.280022 0.56624,-0.760788 0.56624,-1.234994 0,-1.618857 -1.8907,-2.290578 -4.27247,-1.517908 -1.75653,0.569835 -3.92961,1.712607 -3.92961,2.066486 0,0.14555 0.47529,0.894153 1.0562,1.663562 1.09216,1.446559 2.9666,2.91535 4.1935,3.285976 0.96664,0.292005 0.92144,0.292797 1.85457,-0.03249 z m 14.24324,-4.695123 c 0.81172,-0.440034 1.8869,-1.711387 2.31597,-2.738532 0.22452,-0.537485 0.48685,-2.000269 0.58296,-3.250631 l 0.17475,-2.273384 -1.16424,0.17158 c -2.55023,0.37584 -4.81394,1.362684 -6.00878,2.619474 -0.98847,1.03972 -1.12944,1.331465 -1.05833,2.190267 0.0647,0.780812 0.2027,1.007972 0.65146,1.07193 0.55884,0.07965 0.9443,0.753079 1.25646,2.195175 0.14411,0.665757 0.19299,0.681894 1.45912,0.481746 0.7205,-0.113896 1.52629,-0.324328 1.79063,-0.467625 z m -10.1688,-3.680998 c 0.60186,0.394356 0.68562,0.393035 1.09604,-0.01727 0.38539,-0.385287 0.47635,-0.392562 0.68517,-0.0548 0.20595,0.333135 0.26606,0.323568 0.41561,-0.06615 0.24852,-0.647638 0.61929,-0.563947 0.91197,0.205853 0.35899,0.944218 0.69867,0.817779 0.88851,-0.330729 0.5259,-3.181729 -0.23574,-4.67772 -3.38771,-6.654005 -0.71971,-0.451261 -1.43409,-0.820446 -1.5875,-0.820411 -0.15341,3.4e-5 -0.66588,0.806249 -1.13882,1.791588 -0.61654,1.2845 -0.85948,2.16433 -0.85842,3.108791 0.003,2.750448 0.90157,4.150247 1.8886,2.94234 0.40817,-0.499498 0.47491,-0.50596 1.08655,-0.105203 z"
         id="path20219" />
      <path
         style="fill:#225133;stroke-width:1.19243"
         d="m 130.43105,86.466784 c -1.07797,-3.495097 -1.81074,-5.050012 -4.96514,-10.53576 -6.38025,-11.095755 -6.99204,-12.416843 -5.7502,-12.416843 0.71467,0 4.69097,3.971592 6.86614,6.858008 1.95686,2.596727 4.82319,7.198587 5.77676,9.27452 0.36586,0.796485 0.7072,1.322152 0.75854,1.16815 0.12305,-0.369141 -3.53691,-8.988869 -7.73911,-18.22672 -4.17648,-9.181293 -4.45433,-9.918029 -3.93849,-10.443217 0.33498,-0.341061 0.64496,-0.128918 2.51295,1.719791 5.3076,5.252848 13.02759,20.295126 15.7136,30.617696 l 0.6024,2.315104 h -4.86772 c -3.66338,0 -4.89296,-0.08183 -4.96973,-0.330729 z m 3.40959,-1.038438 c -0.897,-2.542366 -6.23284,-12.006644 -8.08369,-14.33818 -1.10624,-1.393543 -4.4677,-5.017892 -4.4677,-4.817102 0,0.120911 1.36769,2.471824 5.39864,9.279658 2.79076,4.713292 4.66004,8.521777 4.83955,9.860121 l 0.15024,1.120087 h 1.27634 1.27634 z m -1.22505,0.244688 c -0.2069,-0.327422 -0.53166,-1.131094 -0.72169,-1.785937 -0.43443,-1.49711 -1.30908,-3.231138 -2.81417,-5.579236 -0.64674,-1.008981 -1.1759,-1.8886 -1.1759,-1.954711 0,-0.06611 -0.54882,-1.024191 -1.21961,-2.129069 -0.67079,-1.104878 -1.15655,-2.071931 -1.07947,-2.149007 0.0771,-0.07708 0.34591,0.197613 0.5974,0.610421 0.2515,0.412808 0.78108,1.22681 1.17684,1.808894 0.39577,0.582083 1.04479,1.772708 1.44228,2.645833 0.39748,0.873125 0.81335,1.647031 0.92415,1.719791 0.40251,0.264317 2.08469,3.618532 2.75336,5.490104 0.71729,2.007634 0.74454,2.316295 0.11681,1.322917 z m 4.7405,0.330729 c -0.0219,-0.291042 -0.11871,-0.529167 -0.21507,-0.529167 -0.0964,0 -0.24724,-0.360156 -0.33528,-0.800347 -0.14319,-0.715952 -3.11986,-8.437222 -4.02649,-10.444444 -1.27191,-2.815896 -2.73143,-6.577025 -2.62136,-6.755124 0.0718,-0.116126 -0.0191,-0.271438 -0.20189,-0.345139 -0.26233,-0.105763 -0.26093,-0.138403 0.007,-0.15489 0.18647,-0.01149 0.40787,0.187471 0.492,0.442133 0.0841,0.254661 0.42585,1.058333 0.75939,1.785937 0.33353,0.727604 0.76022,1.739636 0.94819,2.248959 0.18797,0.509322 0.42541,0.985572 0.52765,1.058333 0.42192,0.30027 2.48144,5.122151 3.53051,8.265878 0.61872,1.854098 1.17349,3.322535 1.23283,3.263194 0.0593,-0.05934 0.12216,0.150077 0.1396,0.465372 0.09,1.626749 0.22966,2.028472 0.70529,2.028472 0.33996,0 0.44894,-0.14131 0.35709,-0.463021 -0.0727,-0.254662 -0.39075,-1.415521 -0.70675,-2.579687 -0.5353,-1.972066 -1.70042,-5.303045 -2.49877,-7.14375 -0.18935,-0.436563 -0.72678,-1.686719 -1.1943,-2.778125 -1.30347,-3.042904 -4.98075,-10.270893 -6.05597,-11.903486 -0.52811,-0.801884 -1.25715,-2.025567 -1.62008,-2.719294 -0.36294,-0.693727 -1.09261,-1.735524 -1.6215,-2.315104 -0.52889,-0.57958 -0.90266,-1.053782 -0.83059,-1.053782 0.0721,0 -0.15004,-0.227876 -0.49358,-0.506391 -0.34355,-0.278515 -0.65859,-0.472757 -0.7001,-0.431648 -0.0415,0.04111 0.74674,1.7275 1.75166,3.747537 1.00492,2.020036 2.07545,4.220338 2.37896,4.889558 4.10018,9.040662 8.25514,19.1782 8.77306,21.40511 0.41825,1.798332 0.44906,1.852083 1.06159,1.852083 0.334,0 0.48403,-0.173621 0.45725,-0.529167 z"
         id="path20218" />
      <path
         style="fill:#082811;stroke-width:1.19243"
         d="m 141.71669,36.06411 c 0.32205,-0.388042 2.5859,-1.483114 2.74244,-1.326574 0.0419,0.04193 -0.63331,0.448344 -1.50053,0.903143 -0.86722,0.454799 -1.42608,0.645343 -1.24191,0.423431 z"
         id="path20134" />
      <path
         style="fill:#082811;stroke-width:1.19243"
         d="m 150.05016,36.107261 0.14011,-2.403796 -1.68437,0.211344 c -0.9264,0.116239 -2.09319,0.332709 -2.59288,0.481042 -0.49968,0.148334 -0.95733,0.220883 -1.01699,0.161219 -0.1456,-0.145601 1.66919,-0.646356 2.98384,-0.823332 0.58209,-0.07836 1.38576,-0.1934 1.78594,-0.255648 0.70958,-0.110374 0.72703,-0.08221 0.70443,1.136978 -0.0127,0.687586 -0.12151,1.845469 -0.24168,2.573073 -0.15988,0.967989 -0.18092,0.677998 -0.0784,-1.08088 z"
         id="path20132" />
      <path
         style="fill:#082811;stroke-width:1.19243"
         d="m 140.38159,37.245788 c -0.0233,-0.695897 -0.22038,-1.707929 -0.43798,-2.248958 -0.34668,-0.861986 -0.3471,-0.920717 -0.003,-0.474701 0.4935,0.640345 0.73702,1.903253 0.59401,3.080661 -0.0914,0.752412 -0.11759,0.691152 -0.15267,-0.357002 z"
         id="path20131" />
      <path
         style="fill:#082811;stroke-width:1.19243"
         d="m 133.10042,38.323114 c -0.0893,-0.333194 -0.14593,-1.320182 -0.12596,-2.193307 0.0354,-1.549277 0.0408,-1.536536 0.22115,0.529167 0.19518,2.235171 0.17101,2.657852 -0.0952,1.66414 z"
         id="path20130" />
      <path
         style="fill:#082811;stroke-width:1.19243"
         d="m 140.89116,39.071454 c -0.0348,-0.762832 0.92256,-2.130005 2.02662,-2.894016 0.97202,-0.67264 3.01557,-1.51643 3.6063,-1.489053 0.1636,0.0076 -0.43173,0.284836 -1.32296,0.616119 -2.362,0.877991 -3.58808,1.948245 -4.07313,3.55548 -0.14752,0.488828 -0.22116,0.554581 -0.23683,0.21147 z"
         id="path20128" />
      <path
         style="fill:#082811;stroke-width:1.19243"
         d="m 128.82988,40.114484 c 0.43656,-0.213912 1.27,-0.379448 1.85208,-0.367857 1.0361,0.02063 1.03055,0.02536 -0.26458,0.225024 -0.72761,0.112172 -1.56105,0.277708 -1.85209,0.367857 -0.29104,0.09015 -0.17198,-0.01111 0.26459,-0.225024 z"
         id="path20126" />
      <path
         style="fill:#082811;stroke-width:1.19243"
         d="m 133.1955,41.572969 c 0,-0.28048 -0.31371,-0.75673 -0.69714,-1.058333 -0.38343,-0.301604 -0.56202,-0.54837 -0.39687,-0.54837 0.48895,0 1.35859,1.016168 1.35859,1.587499 0,0.291042 -0.0595,0.529167 -0.13229,0.529167 -0.0728,0 -0.13229,-0.229483 -0.13229,-0.509963 z"
         id="path20121" />
      <path
         style="fill:#082811;stroke-width:1.19243"
         d="m 145.56539,42.908493 c 1.67254,-0.5778 2.2481,-1.065097 2.96241,-2.508151 0.29825,-0.602544 0.54238,-0.905039 0.54249,-0.672212 6.5e-4,1.321165 -2.80033,3.671631 -4.36542,3.66327 -0.29104,-0.0016 0.0962,-0.218863 0.86052,-0.482907 z"
         id="path20119" />
      <path
         style="fill:#082811;stroke-width:1.19243"
         d="m 145.36633,43.648517 c 1.09141,-0.287069 2.2225,-0.475321 2.51354,-0.418338 0.41774,0.08179 0.38988,0.111798 -0.13229,0.142502 -0.3638,0.02139 -1.24592,0.216201 -1.96028,0.432907 -0.71435,0.216706 -1.54779,0.387455 -1.85208,0.379442 -0.30429,-0.008 0.33971,-0.249443 1.43111,-0.536513 z"
         id="path20115" />
      <path
         style="fill:#082811;stroke-width:1.19243"
         d="m 158.95797,42.612099 c 0,-1.527969 0.0437,-2.153047 0.0972,-1.389063 0.0534,0.763985 0.0534,2.014141 0,2.778125 -0.0534,0.763984 -0.0972,0.138906 -0.0972,-1.389062 z"
         id="path20112" />
      <path
         style="fill:#082811;stroke-width:1.19243"
         d="m 151.46482,46.162608 c -0.47871,-0.666593 -1.3502,-1.559562 -1.93663,-1.984374 -0.58644,-0.424813 -0.92156,-0.772387 -0.74472,-0.772387 0.39114,0 2.9947,2.566377 3.43144,3.382432 0.50549,0.944502 0.18636,0.678311 -0.75009,-0.625671 z"
         id="path20107" />
      <path
         style="fill:#082811;stroke-width:1.19243"
         d="m 142.42353,47.193553 c 0.16333,-0.317855 0.29697,-1.054969 0.29697,-1.638031 0,-0.583062 0.0947,-1.118631 0.21041,-1.190155 0.35346,-0.218445 -0.0819,2.723321 -0.45526,3.076176 -0.28737,0.271592 -0.29658,0.227743 -0.0521,-0.24799 z"
         id="path20106" />
      <path
         style="fill:#082811;stroke-width:1.19243"
         d="m 128.68324,46.88828 c -1.28537,-0.820538 -3.18616,-2.773209 -3.67469,-3.774987 -0.23278,-0.477343 -0.15923,-0.437842 0.29843,0.160262 1.41308,1.846755 2.72464,3.059054 3.9937,3.691452 0.74409,0.370795 1.17423,0.674173 0.95586,0.674173 -0.21836,0 -0.92635,-0.337905 -1.5733,-0.7509 z"
         id="path20105" />
      <path
         style="fill:#082811;stroke-width:1.19243"
         d="m 128.7916,47.785607 c -1.2465,-0.542374 -2.969,-2.20242 -4.10925,-3.960264 -1.23679,-1.906657 -1.18785,-1.993325 1.97036,-3.489276 1.91202,-0.90567 2.41243,-1.031262 4.10896,-1.031262 1.80895,0 1.92157,-0.03365 1.77114,-0.529166 -0.0884,-0.291042 -0.22938,-1.267756 -0.31338,-2.170476 -0.13901,-1.493823 -0.0698,-1.814787 0.77031,-3.571875 0.50768,-1.061811 1.16242,-2.221506 1.45498,-2.577099 l 0.53194,-0.646534 1.8214,1.087933 c 2.74185,1.637724 4.37845,3.5528 4.31651,5.051004 -0.0101,0.245188 -0.18961,-0.110404 -0.39882,-0.790205 -0.26858,-0.872669 -0.73912,-1.551762 -1.60072,-2.310171 -1.37741,-1.212445 -3.38489,-2.406952 -4.04509,-2.406952 -0.27367,0 -0.83654,0.725596 -1.48803,1.918229 -0.97919,1.792516 -1.04482,2.048277 -1.00133,3.902604 0.0256,1.091406 0.0851,2.266801 0.13229,2.611989 0.0834,0.6103 0.0305,0.628547 -1.91908,0.661458 -1.79472,0.0303 -2.24531,0.153033 -4.29948,1.17114 -1.64073,0.813195 -2.29464,1.276147 -2.29464,1.624539 0,0.501897 1.90979,3.246199 2.80382,4.028987 0.27691,0.242453 1.09878,0.745406 1.82639,1.117674 1.3972,0.714861 1.37154,0.921159 -0.0383,0.307723 z"
         id="path20104" />
      <path
         style="fill:#082811;stroke-width:1.19243"
         d="m 153.09601,47.591732 c -0.5341,-1.432207 -2.1116,-3.364583 -3.42845,-4.199701 -1.29247,-0.819664 -1.34957,-1.045838 -0.10102,-0.400188 1.37352,0.710273 4.20625,4.431079 3.95267,5.191838 -0.0525,0.157655 -0.24299,-0.108722 -0.4232,-0.591949 z"
         id="path20103" />
      <path
         style="fill:#082811;stroke-width:1.19243"
         d="m 139.28092,50.193336 c 0.3638,-0.191652 0.64161,-0.457788 0.61736,-0.591412 -0.0243,-0.133624 0.2918,-0.242953 0.70234,-0.242953 0.41054,0 0.69124,0.0893 0.62379,0.198438 -0.0675,0.10914 -0.33916,0.198437 -0.60379,0.198437 -0.26464,0 -0.62938,0.178594 -0.81054,0.396875 -0.18115,0.218282 -0.52315,0.39512 -0.76,0.392975 -0.28394,-0.0026 -0.20532,-0.122593 0.23084,-0.35236 z"
         id="path20098" />
      <path
         style="fill:#082811;stroke-width:1.19243"
         d="m 135.84434,50.29808 c -0.67123,-0.105704 -0.93776,-0.28972 -0.977,-0.674525 -0.042,-0.411819 -0.0237,-0.426487 0.0825,-0.06615 0.12464,0.422769 1.03493,0.627339 2.14822,0.482771 0.18191,-0.02362 0.33073,0.0091 0.33073,0.07263 0,0.243274 -0.69794,0.324879 -1.58449,0.185265 z"
         id="path20097" />
      <path
         style="fill:#082811;stroke-width:1.19243"
         d="m 150.6221,50.31165 c 0.78062,-0.275556 1.76289,-0.755029 2.18281,-1.065494 0.41993,-0.310466 0.76351,-0.443862 0.76351,-0.296436 0,0.363014 -2.29321,1.495626 -3.43959,1.69881 -0.64772,0.114803 -0.49947,0.01355 0.49327,-0.33688 z"
         id="path20095" />
      <path
         style="fill:#082811;stroke-width:1.19243"
         d="m 129.5002,51.872515 c -0.007,-0.788355 1.28423,-3.139812 1.88744,-3.4363 l 0.61724,-0.303382 -0.59981,0.485306 c -0.32989,0.266917 -0.89261,1.197643 -1.25049,2.068278 -0.35788,0.870635 -0.65235,1.404379 -0.65438,1.186098 z"
         id="path20093" />
      <path
         style="fill:#082811;stroke-width:1.19243"
         d="m 145.13778,51.872061 c -0.027,-0.496739 -0.32943,-0.81756 -1.21178,-1.285647 -0.64666,-0.343054 -1.3896,-0.860033 -1.65097,-1.148843 -0.27416,-0.302944 0.0951,-0.150801 0.87267,0.359605 0.74133,0.486593 1.55575,1.005517 1.80982,1.153165 0.30979,0.180031 0.42148,0.485044 0.33912,0.926042 l -0.12283,0.65759 z"
         id="path20092" />
      <path
         style="fill:#082811;stroke-width:1.19243"
         d="m 147.90322,53.833544 c -0.10076,-1.111914 -0.12845,-2.076407 -0.0615,-2.143316 0.0669,-0.06691 0.20666,0.785524 0.31056,1.894297 0.1039,1.108773 0.1316,2.073265 0.0615,2.143316 -0.0701,0.07005 -0.2098,-0.782382 -0.31056,-1.894297 z"
         id="path20083" />
      <path
         style="fill:#082811;stroke-width:1.19243"
         d="m 131.47571,56.461093 c 1.5753,-0.187827 3.98239,-0.920648 4.62625,-1.408432 0.88102,-0.667447 0.51365,-0.969312 -0.43611,-0.358343 -0.52307,0.336488 -0.38969,0.122365 0.44007,-0.706464 1.14396,-1.142683 1.87519,-1.576632 0.96851,-0.574769 -0.48428,0.53513 -0.5904,0.965272 -0.17476,0.708393 0.14552,-0.08994 0.26458,-0.04349 0.26458,0.103212 0,0.892525 -3.63935,2.450411 -5.53813,2.370687 -0.86646,-0.03638 -0.87884,-0.04743 -0.15041,-0.134284 z"
         id="path20077" />
      <path
         style="fill:#082811;stroke-width:1.19243"
         d="m 128.66651,56.171999 c -0.51971,-1.338256 0.25257,-5.839562 1.21508,-7.082201 0.27982,-0.361258 0.24057,-0.125158 -0.12608,0.758371 -0.68997,1.662681 -1.17454,4.627065 -0.95107,5.818267 0.15184,0.809368 0.2911,0.95078 1.02659,1.042438 l 0.85093,0.106043 -0.86645,0.04234 c -0.71887,0.03513 -0.91457,-0.08158 -1.149,-0.685261 z"
         id="path20075" />
      <path
         style="fill:#082811;stroke-width:1.19243"
         d="m 140.31196,57.051974 c -0.8836,-0.600426 -1.82479,-1.72939 -1.82479,-2.188856 0,-0.111661 0.30195,0.241338 0.67099,0.784441 0.36905,0.543103 0.756,0.990108 0.8599,0.993344 0.22211,0.0069 1.57645,1.037908 1.3748,1.046567 -0.0754,0.0032 -0.56177,-0.282738 -1.0809,-0.635496 z"
         id="path20073" />
      <path
         style="fill:#082811;stroke-width:1.19243"
         d="m 162.0628,61.215099 c -0.0152,-0.17309 0.32848,-1.773408 0.76384,-3.556264 0.99329,-4.06766 1.30391,-6.703041 0.76996,-6.532442 -0.20399,0.06518 -0.80722,0.983778 -1.34051,2.041336 -1.0748,2.131429 -1.42466,2.637148 -1.01235,1.463333 0.50729,-1.444209 2.03295,-3.949171 2.40526,-3.949171 0.64479,0 0.34416,3.361654 -0.65068,7.276041 -0.49929,1.964531 -0.92027,3.430256 -0.93552,3.257167 z"
         id="path20061" />
      <path
         style="fill:#082811;stroke-width:1.19243"
         d="m 144.72948,60.635317 c -0.12803,-1.131613 -0.0608,-1.871217 0.24659,-2.711979 0.84245,-2.304419 0.97148,-3.01144 0.87174,-4.776567 -0.0654,-1.157515 -0.0165,-1.644222 0.13744,-1.369072 0.3974,0.710119 0.0571,4.35454 -0.503,5.386482 -0.38589,0.710991 -0.49238,1.402227 -0.45859,2.976563 0.0242,1.127786 0.008,2.05052 -0.0371,2.05052 -0.0446,0 -0.1603,-0.700176 -0.25712,-1.555947 z"
         id="path20059" />
      <path
         style="fill:#082811;stroke-width:1.19243"
         d="m 143.3979,61.587487 c -0.0979,-0.914161 -0.2606,-1.783428 -0.36155,-1.931704 -0.10096,-0.148277 -0.8384,-0.603485 -1.63877,-1.011574 -2.25467,-1.149609 -3.74345,-2.786551 -3.6803,-4.046576 0.0131,-0.261888 0.13678,-0.08461 0.27479,0.393947 0.33935,1.176681 1.90934,2.680735 3.71046,3.554638 0.81682,0.396318 1.55179,0.894295 1.63327,1.106614 0.21783,0.567663 0.53427,3.596766 0.37574,3.596766 -0.0746,0 -0.21574,-0.74795 -0.31364,-1.662111 z"
         id="path20058" />
      <path
         style="fill:#082811;stroke-width:1.19243"
         d="m 152.27619,63.324001 c -0.0534,-1.020671 2.55757,-13.563935 3.51269,-16.875441 1.72611,-5.984597 2.1434,-7.136163 2.61912,-7.227779 0.24864,-0.04789 0.45208,0.04776 0.45208,0.212535 0,0.16478 -0.11309,0.229706 -0.25131,0.144282 -0.13822,-0.08542 -0.37322,0.07248 -0.52223,0.350905 -0.72104,1.347283 -3.27606,11.165545 -4.34755,16.706515 -1.52295,7.875508 -1.42434,7.424607 -1.4628,6.688983 z"
         id="path20056" />
      <path
         style="fill:#082811;stroke-width:1.19243"
         d="m 156.10564,63.646469 c 0.0849,-0.873125 0.50125,-3.823631 0.92523,-6.556679 0.42398,-2.733049 0.77088,-5.104377 0.77088,-5.269618 0,-0.165241 0.0658,-0.234651 0.1462,-0.154243 0.14054,0.14054 -1.6439,12.761771 -1.8809,13.303456 -0.0637,0.145521 -0.0463,-0.449791 0.0386,-1.322916 z"
         id="path20053" />
      <path
         style="fill:#082811;stroke-width:1.19243"
         d="m 156.48352,65.6956 c -0.01,-0.700776 4.19818,-10.237584 4.41958,-10.016178 0.0608,0.06081 -0.15566,0.628113 -0.48104,1.260678 -0.32538,0.632566 -1.3436,2.936056 -2.26273,5.118869 -0.91912,2.182812 -1.67324,3.819296 -1.67581,3.636631 z"
         id="path20051" />
      <path
         style="fill:#082811;stroke-width:1.19243"
         d="m 160.44758,67.086015 c 0,-0.482443 1.40853,-5.426503 1.5155,-5.319533 0.063,0.06297 -0.20389,1.285638 -0.59303,2.717034 -0.65268,2.400807 -0.92247,3.161944 -0.92247,2.602499 z"
         id="path20047" />
      <path
         style="fill:#082811;stroke-width:1.19243"
         d="m 148.3895,61.794389 c 2e-4,-3.201458 0.0384,-4.474781 0.0849,-2.829606 0.0465,1.645175 0.0463,4.264549 -3.6e-4,5.820833 -0.0467,1.556284 -0.0847,0.210232 -0.0845,-2.991227 z"
         id="path20046" />
      <path
         style="fill:#082811;stroke-width:1.19243"
         d="m 143.95972,66.054352 c -0.10453,-1.295041 -0.13944,-2.405224 -0.0776,-2.467074 0.16337,-0.163374 0.4999,3.721632 0.37402,4.317859 -0.0585,0.277109 -0.1919,-0.555744 -0.29643,-1.850785 z"
         id="path20045" />
      <path
         style="fill:#082811;stroke-width:1.19243"
         d="m 149.73128,61.662098 c 5.8e-4,-6.877261 0.0345,-7.58862 0.22953,-4.81373 0.12894,1.834587 0.12865,5.357558 -6.8e-4,8.069792 l -0.22953,4.813729 z"
         id="path20042" />
      <path
         style="fill:#082811;stroke-width:1.19243"
         d="m 145.77693,69.533451 c -0.0937,-0.303995 -0.16922,-1.107794 -0.52807,-5.622395 l -0.12619,-1.5875 0.26249,1.5875 c 0.14437,0.873125 0.35291,2.569765 0.46343,3.770312 0.18854,2.048263 0.16627,2.623836 -0.0717,1.852083 z"
         id="path20040" />
      <path
         style="fill:#082811;stroke-width:1.19243"
         d="m 141.28322,69.918842 c -1.58661,-4.286713 -4.51846,-9.579661 -5.30633,-9.579661 -0.23063,0 -0.40697,0.370704 -0.47198,0.992188 l -0.10379,0.992187 -0.0445,-1.124479 c -0.11545,-2.918915 2.41414,-0.100079 4.80803,5.357812 1.19618,2.727178 2.10633,5.167907 1.97579,5.298439 -0.0564,0.0564 -0.44216,-0.815016 -0.85724,-1.936486 z"
         id="path20035" />
      <path
         style="fill:#082811;stroke-width:1.19243"
         d="m 144.3987,70.525639 c 9.6e-4,-1.164167 0.0475,-1.607504 0.10337,-0.985194 0.0559,0.62231 0.0551,1.57481 -0.002,2.116667 -0.0568,0.541856 -0.10258,0.03269 -0.10162,-1.131473 z"
         id="path20034" />
      <path
         style="fill:#082811;stroke-width:1.19243"
         d="m 149.41707,71.583972 c 0.001,-0.873125 0.0509,-1.198414 0.10976,-0.722865 0.0589,0.475548 0.0577,1.189923 -0.003,1.587499 -0.0604,0.397577 -0.10855,0.0085 -0.10706,-0.864634 z"
         id="path20032" />
      <path
         style="fill:#082811;stroke-width:1.19243"
         d="m 145.98795,72.24543 c 0,-1.236927 0.0456,-1.742942 0.10128,-1.124479 0.0557,0.618464 0.0557,1.630495 0,2.248959 -0.0557,0.618463 -0.10128,0.112448 -0.10128,-1.12448 z"
         id="path20031" />
      <path
         style="fill:#082811;stroke-width:1.19243"
         d="m 158.38982,74.229805 c 0.69876,-2.698304 1.92754,-6.740677 1.99106,-6.550104 0.0912,0.273471 -1.75288,6.745621 -1.97932,6.946979 -0.0818,0.07276 -0.0871,-0.105833 -0.0117,-0.396875 z"
         id="path20030" />
      <path
         style="fill:#082811;stroke-width:1.19243"
         d="m 142.63231,74.318 c -0.2488,-1.03664 -0.40447,-1.932686 -0.34595,-1.991212 0.0585,-0.05853 0.31342,0.738301 0.56643,1.770726 0.25301,1.032425 0.40868,1.92847 0.34594,1.991211 -0.0627,0.06274 -0.31763,-0.734085 -0.56642,-1.770725 z"
         id="path20027" />
      <path
         style="fill:#082811;stroke-width:1.19243"
         d="m 147.22368,77.911923 c 0.003,-0.278915 0.17912,-2.114461 0.39161,-4.078993 0.2125,-1.964531 0.40778,-4.167187 0.43396,-4.894791 0.0392,-1.08893 0.0674,-1.159126 0.15974,-0.396875 0.11036,0.91134 -0.66979,9.552535 -0.88184,9.767534 -0.0598,0.06063 -0.10637,-0.11796 -0.10347,-0.396875 z"
         id="path20025" />
      <path
         style="fill:#082811;stroke-width:1.19243"
         d="m 156.77519,79.786058 c -0.013,-0.145521 0.3206,-1.336146 0.74133,-2.645833 0.42072,-1.309688 0.76685,-2.202656 0.76915,-1.984375 0.005,0.472718 -1.47626,5.013344 -1.51048,4.630208 z"
         id="path20022" />
      <path
         style="fill:#082811;stroke-width:1.19243"
         d="m 144.67773,76.478764 c 0,-2.110052 0.0411,-2.973255 0.0913,-1.918229 0.0502,1.055026 0.0502,2.781432 0,3.836458 -0.0502,1.055026 -0.0913,0.191823 -0.0913,-1.918229 z"
         id="path20020" />
      <path
         style="fill:#082811;stroke-width:1.19243"
         d="m 131.2236,75.739745 c -1.14561,-2.722237 -3.80025,-8.747005 -5.8992,-13.388373 -2.09895,-4.641367 -3.86369,-8.868086 -3.92164,-9.392707 l -0.10537,-0.953858 0.25884,1.004015 c 0.14236,0.552209 1.73376,4.243146 3.53645,8.202083 3.7751,8.290615 8.46831,19.223894 8.31699,19.375213 -0.0567,0.05673 -1.04046,-2.124135 -2.18607,-4.846373 z"
         id="path20015" />
      <path
         style="fill:#082811;stroke-width:1.19243"
         d="m 146.09562,78.860013 c 0.12411,-4.613655 0.26783,-5.254467 0.26705,-1.190624 -3.4e-4,1.746249 -0.0822,3.532187 -0.18187,3.968749 -0.0997,0.436563 -0.13802,-0.813593 -0.0852,-2.778125 z"
         id="path20011" />
      <path
         style="fill:#082811;stroke-width:1.19243"
         d="m 143.82141,80.011991 c -0.18479,-1.288432 -0.39176,-2.640259 -0.45995,-3.004061 -0.11513,-0.614329 -0.10599,-0.620937 0.12834,-0.09275 0.31092,0.700842 0.9125,4.70464 0.77077,5.129832 -0.0568,0.170267 -0.25438,-0.744595 -0.43916,-2.033026 z"
         id="path20010" />
      <path
         style="fill:#082811;stroke-width:1.19243"
         d="m 139.97437,81.241263 c -0.27344,-1.382447 -1.37477,-6.018663 -2.44739,-10.302701 -1.07263,-4.284037 -1.94618,-7.974975 -1.94122,-8.202083 0.0121,-0.555298 1.82099,6.405473 3.59821,13.846336 0.7957,3.331447 1.41092,6.30801 1.36715,6.614583 -0.0438,0.306574 -0.3033,-0.573687 -0.57675,-1.956135 z"
         id="path20008" />
      <path
         style="fill:#082811;stroke-width:1.19243"
         d="m 149.36564,83.8871 c -0.0716,-1.553623 2.61576,-20.239174 2.82187,-19.620843 0.0523,0.156896 -0.27918,2.659804 -0.73662,5.562017 -0.45744,2.902214 -1.10689,7.401547 -1.44324,9.998518 -0.33634,2.596971 -0.62524,4.42411 -0.64201,4.060308 z"
         id="path20004" />
      <path
         style="fill:#082811;stroke-width:1.19243"
         d="m 147.78958,85.73918 c -0.0108,-0.363802 0.20152,-2.14974 0.47175,-3.96875 0.27024,-1.81901 0.49445,-2.890573 0.49824,-2.38125 0.008,1.097214 -0.94146,7.313954 -0.96999,6.35 z"
         id="path20000" />
      <path
         style="fill:#082811;stroke-width:1.19243"
         d="m 154.23343,86.632215 c 0.43099,-0.09683 0.70542,-0.734485 1.43704,-3.339007 0.49737,-1.770627 0.93885,-3.10549 0.98108,-2.966362 0.0422,0.139127 -0.319,1.622178 -0.80272,3.295667 -0.79548,2.752063 -0.94008,3.046848 -1.5138,3.086048 -0.46891,0.03204 -0.49541,0.01213 -0.1016,-0.07635 z"
         id="path19997" />
      <path
         style="fill:#082811;stroke-width:1.19243"
         d="m 149.05692,85.673034 0.13269,-1.124479 0.0943,0.923729 c 0.0518,0.508052 0.2334,1.012244 0.40347,1.120428 0.19368,0.123207 0.10888,0.198212 -0.22696,0.20075 -0.47562,0.0036 -0.52117,-0.12291 -0.40346,-1.120428 z"
         id="path19996" />
      <path
         style="fill:#082811;stroke-width:1.19243"
         d="m 144.90331,86.604772 c 0.54571,-0.05708 1.43867,-0.05708 1.98438,0 0.5457,0.05708 0.0992,0.103787 -0.99219,0.103787 -1.09141,0 -1.53789,-0.0467 -0.99219,-0.103787 z"
         id="path19995" />
      <path
         style="fill:#082811;stroke-width:1.19243"
         d="m 140.77946,85.424023 c -0.0895,-0.755419 -0.112,-1.424162 -0.0501,-1.486095 0.0619,-0.06193 0.19257,0.490224 0.29031,1.227016 0.14348,1.081556 0.28619,1.360898 0.74082,1.450064 0.46889,0.09196 0.44753,0.116471 -0.12765,0.146474 -0.64136,0.03346 -0.70237,-0.06216 -0.85341,-1.337459 z"
         id="path19994" />
      <path
         style="fill:#082811;stroke-width:1.19243"
         d="m 139.23128,86.608625 c 0.53567,-0.102286 0.58935,-0.221279 0.4313,-0.956156 -1.97974,-9.205303 -10.18338,-25.675895 -15.59541,-31.311176 -1.16428,-1.212307 -2.05427,-2.204195 -1.97775,-2.204195 0.0765,0 0.98998,0.863203 2.02992,1.918229 5.12008,5.194335 12.66226,19.820791 15.31464,29.699478 0.80336,2.992097 0.80167,3.05068 -0.0869,3.006677 -0.64805,-0.03209 -0.66071,-0.0488 -0.11578,-0.152857 z"
         id="path19993" />
      <path
         style="fill:#082811;stroke-width:1.19243"
         d="m 130.02329,84.879284 c -0.65348,-2.169068 -1.06671,-2.972302 -5.37627,-10.450469 -3.38005,-5.865226 -5.47444,-9.887049 -5.47444,-10.512472 0,-1.687946 4.0176,1.987013 7.87714,7.20535 1.63313,2.208089 4.9291,7.502203 5.24624,8.426703 0.0948,0.276233 -0.80233,-1.105101 -1.99352,-3.069632 -2.5229,-4.160807 -5.09426,-7.607683 -7.54904,-10.119399 -1.89108,-1.934938 -2.96613,-2.754317 -3.24623,-2.474211 -0.26068,0.260677 1.67311,4.035356 5.29962,10.344651 4.54476,7.906846 4.70071,8.206126 5.36086,10.288275 0.47066,1.484489 0.72544,1.914374 1.2163,2.052262 0.6056,0.170119 0.6036,0.175075 -0.0809,0.200797 -0.6474,0.02433 -0.74665,-0.122399 -1.27975,-1.891855 z"
         id="path19992" />
    </g>
  </g>
</svg>
