<?xml version="1.0" encoding="UTF-8" standalone="no"?>
<!-- Created with Inkscape (http://www.inkscape.org/) -->

<svg
   width="185"
   height="185"
   viewBox="0 0 48.947914 48.947918"
   version="1.1"
   id="svg1"
   sodipodi:docname="oenothera-hartwegii-4.svg"
   inkscape:version="1.4 (e7c3feb100, 2024-10-09)"
   xmlns:inkscape="http://www.inkscape.org/namespaces/inkscape"
   xmlns:sodipodi="http://sodipodi.sourceforge.net/DTD/sodipodi-0.dtd"
   xmlns="http://www.w3.org/2000/svg"
   xmlns:svg="http://www.w3.org/2000/svg">
  <sodipodi:namedview
     id="namedview1"
     pagecolor="#ffffff"
     bordercolor="#666666"
     borderopacity="1.0"
     inkscape:showpageshadow="2"
     inkscape:pageopacity="0.0"
     inkscape:pagecheckerboard="0"
     inkscape:deskcolor="#d1d1d1"
     inkscape:document-units="mm"
     inkscape:zoom="1.8041143"
     inkscape:cx="174.04662"
     inkscape:cy="108.08628"
     inkscape:current-layer="layer1" />
  <defs
     id="defs1" />
  <g
     inkscape:label="Ebene 1"
     inkscape:groupmode="layer"
     id="layer1">
    <g
       id="g19565"
       transform="matrix(0.64093839,0,0,0.64093839,11.501173,-103.53987)"
       style="display:inline;stroke-width:1.56021">
      <g
         id="g19562"
         transform="matrix(1.0058494,0,0,1.0058494,4.4176372,152.12791)"
         style="display:inline;stroke-width:2.4201">
        <path
           style="fill:#ecd038;stroke-width:2.4201"
           d="M 13.490294,84.16207 C 13.085517,82.810196 11.856843,80.338613 10.191718,77.526701 6.5380761,71.35676 4.9142689,66.868755 3.1549949,58.078058 2.854002,56.574064 2.1903406,53.9665 1.6801918,52.283471 1.170043,50.600443 0.81429152,49.062781 0.88963302,48.866444 1.1624948,48.155378 2.0238241,48.540202 3.608361,50.081118 c 5.3227886,5.176255 8.571361,10.309232 10.382128,16.404504 0.894684,3.011618 2.390271,10.192646 2.417165,11.605961 0.01023,0.537492 0.120922,1.215383 0.245987,1.506425 0.176509,0.410759 0.231552,0.279649 0.245987,-0.585931 0.04955,-2.970968 1.638455,-9.061621 3.553007,-13.6195 1.873201,-4.459434 3.60668,-7.060672 7.151561,-10.731547 2.089048,-2.163298 2.691004,-2.5304 2.967543,-1.809751 0.17708,0.461465 -2.044238,9.966029 -3.128281,13.385271 -1.032177,3.255646 -1.78952,4.907275 -4.510332,9.836213 -2.254305,4.083828 -3.125683,6.020648 -3.639391,8.089307 l -0.27924,1.124479 H 16.42074 13.826985 Z"
           id="path19559" />
        <path
           style="fill:#628f50;stroke-width:2.4201"
           d="M 13.490294,84.16207 C 13.085517,82.810196 11.856843,80.338613 10.191718,77.526701 6.553263,71.382406 5.1550192,67.563977 3.2962085,58.695926 2.9301813,56.949676 2.2065776,54.063035 1.6882002,52.281169 1.1698228,50.499302 0.81966671,48.921724 0.91007552,48.77544 1.268859,48.194916 2.0648308,48.58008 3.608361,50.081118 c 5.1469953,5.005301 8.211848,9.741609 10.15848,15.698535 0.861994,2.637802 2.611875,10.79776 2.640813,12.314509 0.01023,0.536074 0.120922,1.212804 0.245987,1.503846 0.177376,0.412775 0.231481,0.288264 0.245987,-0.566084 0.07394,-4.354949 2.872027,-13.173604 5.694771,-17.948073 1.567879,-2.651956 2.406035,-3.726515 5.009797,-6.422821 2.089048,-2.163298 2.691004,-2.5304 2.967543,-1.809751 0.176529,0.460028 -2.045529,9.973335 -3.113466,13.329697 -1.029799,3.236499 -1.89636,5.128618 -4.554148,9.943898 -2.227073,4.034925 -3.097932,5.97357 -3.61039,8.037196 l -0.27924,1.124479 H 16.42074 13.826985 Z"
           id="path19478" />
        <path
           style="fill:#275227;stroke-width:2.4201"
           d="M 13.226487,83.236029 C 12.756409,82.108242 11.447721,79.573241 10.318294,77.602693 6.4184275,70.798475 5.1136866,67.217776 3.2959678,58.330792 2.9501062,56.639845 2.2396342,53.850171 1.7171413,52.131517 1.1946483,50.412863 0.83629677,48.894816 0.92080459,48.75808 1.2564705,48.214961 1.9582702,48.581795 3.608809,50.163114 c 4.8993077,4.69384 8.145594,9.713813 10.032541,15.514059 1.049829,3.227049 2.747708,11.314093 2.747708,13.087412 0,1.921282 0.438454,1.65331 0.627772,-0.383679 0.526958,-5.669858 3.327342,-13.825692 6.319564,-18.405083 1.471457,-2.251966 4.281569,-5.538727 5.687592,-6.652318 1.492131,-1.181789 1.723271,-0.774952 1.098119,1.932838 -2.53486,10.979524 -3.19589,13.052232 -5.65354,17.727082 -0.918034,1.74625 -2.329629,4.425156 -3.136879,5.953125 -0.807249,1.527968 -1.668741,3.581796 -1.914426,4.564062 l -0.446702,1.785937 h -2.444691 -2.444691 z m 2.639399,-0.206425 C 15.729428,82.160872 15.485928,80.259466 15.324775,78.804258 14.853442,74.548136 13.32609,67.674192 12.120778,64.384467 11.468735,62.60481 9.3250775,58.602309 8.1367845,56.945807 6.9219942,55.252367 3.8686712,51.724072 3.5992035,51.702364 c -0.1221806,-0.0098 0.4484242,1.202494 1.2680108,2.694083 4.2307234,7.699611 7.6901167,16.818143 9.2598487,24.407811 0.84465,4.083894 1.499445,6.292342 1.781903,6.009884 0.112764,-0.112765 0.09338,-0.915807 -0.04308,-1.784538 z M 19.043057,81.3178 c 0.320627,-0.800365 1.303442,-2.705365 2.184033,-4.233334 3.821636,-6.631159 5.641239,-11.277006 7.046657,-17.991665 0.319813,-1.527969 0.704551,-3.173992 0.854974,-3.657829 0.150424,-0.483838 0.216394,-0.936807 0.146602,-1.006599 -0.211799,-0.2118 -3.375013,3.469046 -4.740745,5.516527 -3.43924,5.156044 -5.885074,12.166672 -6.553473,18.784579 -0.260493,2.579179 -0.471601,3.861268 -0.695428,4.223426 -0.07375,0.119338 0.04038,0.216978 0.253621,0.216978 0.259971,0 0.349599,0.196147 0.272022,0.595312 -0.140378,0.722303 0.361173,-0.274252 1.231737,-2.447395 z M 18.9344,79.134987 c 1.054228,-4.566705 3.491231,-11.698112 5.242252,-15.340414 0.810052,-1.68499 1.47547,-3.164313 1.478705,-3.287383 0.0032,-0.12307 0.248528,-0.521421 0.545093,-0.885223 l 0.539209,-0.661458 -0.381234,0.79375 c -0.676236,1.407957 -2.867398,7.061003 -3.897069,10.054166 -0.550663,1.600729 -1.546889,4.434141 -2.213835,6.29647 -0.666946,1.86233 -1.21263,3.678033 -1.21263,4.034896 0,0.356863 -0.108503,0.648842 -0.241118,0.648842 -0.132615,0 -0.06933,-0.744141 0.140627,-1.653646 z m -4.531828,2.696627 C 14.212159,80.447146 8.5482052,63.455625 7.263797,60.415717 6.8641457,59.469832 5.8361322,57.297431 4.9793226,55.58816 4.122513,53.878888 3.3814887,52.2183 3.3326019,51.897964 3.2837151,51.577628 3.0877388,51.263542 2.8970991,51.199995 c -0.2505376,-0.08351 -0.2980696,0.0593 -0.1714761,0.515196 0.096328,0.346904 0.5389202,2.178548 0.9835387,4.070318 3.1785613,13.524201 3.3481466,14.011708 7.2029563,20.706367 0.943516,1.638606 2.115327,3.808483 2.604024,4.821949 0.488698,1.013466 0.929479,1.845679 0.979515,1.849362 0.05004,0.0037 0.0081,-0.595525 -0.09309,-1.331573 z"
           id="path19397" />
      </g>
    </g>
  </g>
</svg>
