<?xml version="1.0" encoding="UTF-8" standalone="no"?>
<!-- Created with Inkscape (http://www.inkscape.org/) -->

<svg
   width="185"
   height="185"
   viewBox="0 0 48.947914 48.947918"
   version="1.1"
   id="svg1"
   xmlns="http://www.w3.org/2000/svg"
   xmlns:svg="http://www.w3.org/2000/svg">
  <defs
     id="defs1" />
  <g
     id="g10095"
     transform="matrix(0.77781126,0,0,0.77781126,18.305567,-9.1785858)"
     style="stroke-width:1.28566">
    <path
       style="fill:#c2bb5f;stroke-width:1.28566"
       d="M 21.04147,74.475897 C 20.707691,74.262028 20.631539,73.0532 20.562472,66.872339 l -0.08212,-7.349261 -0.991388,-1.325797 c -3.145707,-4.206797 -7.51087,-13.623064 -7.892828,-17.025931 -0.154228,-1.374018 -0.141287,-1.410181 0.473399,-1.322916 0.54482,0.07735 0.835277,0.600488 2.106426,3.793883 1.836123,4.612731 4.735447,10.589082 5.647754,11.641666 l 0.687968,0.79375 -0.06584,-5.832463 -0.06583,-5.832464 -1.345694,-1.575869 c -1.627251,-1.905585 -2.555522,-3.445967 -4.009567,-6.65351 -1.391485,-3.069538 -1.992319,-5.274518 -1.624517,-5.961762 0.498551,-0.931551 1.065397,-0.38648 1.850053,1.778986 0.997421,2.752647 3.285726,7.2692 4.317554,8.521793 l 0.812171,0.985939 0.132292,-8.250575 c 0.120413,-7.509775 0.175317,-8.292959 0.611483,-8.722616 0.460027,-0.453162 0.495059,-0.450877 0.875932,0.05713 0.328329,0.43792 0.382569,1.430278 0.314558,5.754986 -0.0452,2.874201 0.01949,5.191796 0.143747,5.150211 0.124261,-0.04158 0.939203,-1.440703 1.810982,-3.109153 1.878423,-3.595008 2.135003,-3.920562 2.71231,-3.441439 0.225585,0.187218 0.410154,0.49601 0.410154,0.686204 0,0.759586 -2.47523,5.618582 -3.453518,6.779423 -0.573312,0.680295 -1.161901,1.551249 -1.307975,1.935454 -0.150576,0.396044 -0.26559,3.410629 -0.26559,6.961265 v 6.262711 l 0.561962,-1.054415 c 0.309079,-0.579928 0.789732,-1.376634 1.068117,-1.770458 1.237294,-1.750362 3.234233,-6.920344 4.833273,-12.513123 1.316898,-4.605958 1.452634,-4.894791 2.300294,-4.894791 0.713203,0 0.644281,0.703332 -0.455792,4.651254 -0.523909,1.880195 -1.017799,3.656662 -1.097533,3.947704 -0.25961,0.947625 1.160758,-0.583258 2.391189,-2.57724 1.25788,-2.038465 1.94613,-2.282701 1.849952,-0.656484 -0.03185,0.538559 -0.255089,1.360497 -0.496083,1.826529 -0.576552,1.114928 -2.943496,3.604099 -3.895013,4.096147 -0.42298,0.218732 -0.928366,0.81536 -1.154992,1.363517 -0.221617,0.536037 -0.688488,1.60322 -1.037491,2.371517 -0.349002,0.768297 -0.63455,1.442448 -0.63455,1.498112 0,0.161528 -2.202536,3.970263 -2.380479,4.116443 -0.08857,0.07276 -0.474997,0.550852 -0.858727,1.062426 l -0.69769,0.930135 -0.06614,9.520906 c -0.03638,5.236499 -0.137576,9.877375 -0.224884,10.313059 -0.168008,0.838387 -0.671657,1.09344 -1.328328,0.672679 z"
       id="path8672" />
    <path
       style="fill:#c2bb5f;stroke-width:1.28566"
       d="m -6.5828864,74.144077 c -0.3362742,-0.51322 -0.4098914,-1.786944 -0.4302892,-7.44486 l -0.024608,-6.825712 -1.2130135,-2.294761 c -0.6671574,-1.262118 -1.7906189,-3.598816 -2.4965819,-5.19266 -1.306172,-2.948933 -1.790115,-3.568623 -4.05982,-5.198602 -1.28605,-0.923571 -3.496825,-3.578488 -3.214738,-3.860575 0.09331,-0.09331 0.17328,-9.87e-4 0.177705,0.205167 0.0058,0.26894 0.08423,0.244026 0.27773,-0.08819 0.455268,-0.781647 1.002763,-0.531187 2.747252,1.256771 0.922889,0.945885 1.732108,1.719791 1.798263,1.719791 0.06616,0 -0.636633,-2.398317 -1.561754,-5.329594 -0.92512,-2.931277 -1.682037,-5.476542 -1.682037,-5.656145 0,-0.179602 0.168319,-0.466242 0.374041,-0.636976 0.6612,-0.548747 1.422854,0.68936 2.420688,3.93495 2.030679,6.605055 3.6116439,10.999372 5.0856323,14.135592 l 1.540029,3.276736 -0.093688,-11.122983 c -0.062837,-7.460296 -0.1902784,-11.304857 -0.387018,-11.675302 -0.2592027,-0.488059 -4.3318933,-5.584214 -5.1427023,-6.435061 -1.373562,-1.441389 -4.326149,-7.094584 -4.326149,-8.283098 0,-0.642541 0.705022,-0.977063 1.142263,-0.541986 0.17212,0.171268 0.969629,1.576753 1.772243,3.123301 0.802614,1.546548 1.578433,2.851617 1.724042,2.900153 0.169651,0.05655 0.229623,-0.937854 0.166965,-2.768463 -0.07801,-2.279103 -0.0191,-2.922013 0.291374,-3.179679 0.803295,-0.666676 1.079512,0.314184 1.201661,4.267162 0.130922,4.236881 0.165303,4.336901 2.2851161,6.647846 l 1.4439654,1.57416 0.018951,-8.415192 c 0.0186,-8.25956 0.1280339,-9.417502 0.89002,-9.417502 0.8671764,0 0.9696064,0.618614 0.9835272,5.939895 0.015953,6.098006 -0.1278498,6.002761 2.2663614,1.501097 0.9834432,-1.849098 1.5086191,-2.569349 1.91822904,-2.630749 0.47369242,-0.07101 0.56403141,0.04831 0.56403141,0.744945 0,1.138588 -1.63805715,4.588299 -3.01573125,6.351061 -0.6255192,0.800365 -1.2744364,1.715272 -1.4420381,2.033127 -0.2072437,0.393035 -0.3025286,2.720722 -0.2978479,7.276041 l 0.00688,6.698123 1.1850964,-1.852083 c 2.5349193,-3.961604 4.34806795,-8.220593 5.8009161,-13.626041 0.9526015,-3.544238 1.8537049,-5.820833 2.3039542,-5.820833 0.1289008,0 0.3514229,0.307885 0.4944935,0.684189 0.2534689,0.666674 -0.4296871,3.793012 -1.4782593,6.764982 -0.1974462,0.559622 -0.2600887,1.017495 -0.1392055,1.017495 0.1208832,0 0.9566341,-0.9525 1.8572243,-2.116667 1.5860542,-2.050246 2.1979003,-2.4891 2.4725222,-1.773446 0.2113391,0.55074 -0.4590066,2.175361 -1.3745753,3.331361 -0.9133073,1.153144 -3.1417766,3.204585 -3.481124,3.204585 -0.1145048,0 -0.4251638,0.506016 -0.6903534,1.124479 -1.82029158,4.245204 -4.1803204,8.488859 -6.2821666,11.296194 l -0.6822876,0.911299 -0.026374,14.699117 c -0.014506,8.084515 -0.1090227,14.996148 -0.2100382,15.359186 -0.2436339,0.875592 -0.9550159,0.977199 -1.4587794,0.208359 z"
       id="path8671" />
    <path
       style="fill:#8f6d9f;stroke-width:1.28566"
       d="m 21.007721,74.293845 c -0.283487,-0.341168 -0.380365,-2.00779 -0.441729,-7.599228 L 20.487392,59.5324 19.492485,58.201942 C 16.343433,53.990812 11.978332,44.576297 11.59614,41.17135 c -0.154228,-1.374018 -0.141287,-1.410181 0.473399,-1.322916 0.54482,0.07735 0.835277,0.600488 2.106426,3.793883 1.836123,4.612731 4.735447,10.589082 5.647754,11.641666 l 0.687968,0.79375 -0.06584,-5.820833 -0.06583,-5.820833 -1.526408,-1.843544 c -2.727157,-3.29377 -6.167052,-11.037332 -5.47637,-12.327882 0.516337,-0.964785 1.10036,-0.478485 1.754283,1.460742 0.818811,2.428209 3.382127,7.517339 4.422492,8.780281 l 0.826003,1.002719 0.132292,-8.250575 c 0.120413,-7.509775 0.175317,-8.292959 0.611483,-8.722616 0.460027,-0.453162 0.495059,-0.450877 0.875932,0.05713 0.328329,0.43792 0.382569,1.430278 0.314558,5.754986 -0.0461,2.931119 0.02002,5.191621 0.150572,5.147936 0.128014,-0.04284 0.96295,-1.467265 1.855413,-3.1654 1.898011,-3.611439 2.090788,-3.856196 2.663119,-3.381203 0.224449,0.186276 0.408089,0.494296 0.408089,0.68449 0,0.742274 -2.464654,5.606204 -3.411825,6.733149 -1.644698,1.956863 -1.615527,1.797987 -1.612104,8.780001 l 0.0032,6.43354 0.928464,-1.5875 c 2.276988,-3.893225 3.76444,-7.622204 5.699139,-14.287499 0.464635,-1.600729 1.010609,-3.237839 1.213275,-3.638021 0.422573,-0.834406 1.413229,-1.008606 1.413229,-0.248506 0,0.557866 -1.416918,6.181816 -1.833441,7.277188 -0.758796,1.995484 0.450856,1.036555 2.1658,-1.716896 1.278578,-2.052838 1.955189,-2.287768 1.855212,-0.644156 -0.103169,1.696089 -1.880955,4.114908 -4.220442,5.742245 -0.608757,0.423448 -1.190596,1.037541 -1.292977,1.36465 -0.102382,0.32711 -0.527043,1.341867 -0.943692,2.255017 -0.416648,0.913149 -0.757543,1.710442 -0.757543,1.771762 0,0.258987 -2.023308,3.551314 -2.931446,4.770049 l -0.985768,1.322917 -0.139216,9.921874 c -0.07657,5.457031 -0.219965,10.130234 -0.318659,10.384896 -0.225757,0.582528 -0.743276,0.593607 -1.21491,0.02601 z"
       id="path10092" />
    <path
       style="fill:#8f6d9f;stroke-width:1.28566"
       d="m -6.4995263,74.305405 c -0.2923556,-0.351687 -0.4010188,-1.991447 -0.5048354,-7.618118 l -0.1322916,-7.16997 -1.3599181,-2.513542 c -0.7479549,-1.382448 -1.8563936,-3.661055 -2.4631966,-5.063572 -1.116085,-2.579632 -1.532807,-3.099531 -3.764176,-4.696159 -1.061403,-0.759473 -1.836979,-1.586596 -3.238819,-3.454078 -0.209847,-0.279551 -0.205407,-0.332993 0.01661,-0.199957 0.166653,0.09986 0.371275,0.0037 0.454717,-0.213795 0.273242,-0.712058 0.852797,-0.420465 2.632378,1.324437 0.964684,0.945885 1.799957,1.719791 1.856161,1.719791 0.0562,0 -0.654728,-2.398317 -1.579849,-5.329594 -0.92512,-2.931277 -1.682037,-5.476542 -1.682037,-5.656145 0,-0.179602 0.168319,-0.466242 0.374041,-0.636976 0.470564,-0.390534 1.342959,0.462265 1.716401,1.677847 2.908826,9.468457 4.2899333,13.299428 6.4338596,17.846494 l 0.9187116,1.9485 -0.1042778,-11.184417 c -0.069316,-7.434519 -0.2019671,-11.37005 -0.3956452,-11.738083 -0.2702055,-0.513454 -4.6120562,-5.946136 -4.9888312,-6.242208 -0.48571,-0.381674 -2.468063,-3.597978 -3.308986,-5.368723 -1.133901,-2.387672 -1.321706,-3.759402 -0.514705,-3.759402 0.402588,0 0.907243,0.716245 2.131882,3.025731 0.88244,1.664153 1.718566,3.063774 1.858057,3.110271 0.155281,0.05176 0.215706,-1.023119 0.15584,-2.772171 -0.07801,-2.279103 -0.0191,-2.922013 0.291374,-3.179679 0.803295,-0.666676 1.079512,0.314184 1.201661,4.267162 0.131031,4.240407 0.16388,4.335631 2.2979063,6.661186 l 1.4567562,1.5875 4.776e-4,-8.482243 c 3.925e-4,-6.972114 0.068376,-8.573679 0.3818561,-8.995833 0.3051901,-0.410989 0.4769726,-0.455058 0.8598958,-0.220596 0.4289486,0.262643 0.4922211,0.851908 0.6108089,5.688541 l 0.1322917,5.395548 0.7125169,-1.190625 c 0.3918843,-0.654844 1.1785541,-2.083594 1.7481551,-3.175 0.734386,-1.407149 1.2005553,-2.008969 1.60258706,-2.068923 0.47816208,-0.07131 0.56694899,0.04689 0.56694899,0.754763 0,1.156191 -1.79285165,4.826227 -3.27762185,6.709418 -0.6759553,0.857341 -1.2903409,1.809841 -1.3653012,2.116667 -0.07496,0.306826 -0.102765,3.460487 -0.061788,7.008135 l 0.074503,6.450268 1.6481999,-2.76739 c 2.64817581,-4.446387 4.7596862,-9.980944 6.2585229,-16.404443 0.091765,-0.393275 0.4545132,-1.048119 0.806106,-1.455208 l 0.6392597,-0.740162 0.2869867,0.750335 c 0.2327165,0.608445 0.1565626,1.229079 -0.4027106,3.281984 -0.3793335,1.392407 -0.8577969,3.008094 -1.063252,3.590416 -0.2054552,0.582322 -0.3250822,1.10724 -0.2658379,1.166484 0.059244,0.05924 0.9038356,-0.911828 1.8768695,-2.157939 0.9730339,-1.24611 1.9378637,-2.265655 2.1440663,-2.265655 0.6804345,0 0.4360647,1.669039 -0.4374564,2.987815 -0.8061205,1.21702 -3.5223452,3.891351 -3.9523096,3.891351 -0.1232655,0 -0.4392016,0.506016 -0.7020802,1.124479 -1.65333855,3.88974 -4.2737824,8.590064 -6.3796323,11.443229 l -0.5858472,0.79375 -0.031844,14.684374 c -0.017514,8.076406 -0.1127462,14.981405 -0.2116265,15.344443 -0.2186372,0.802724 -0.8664088,0.977326 -1.371537,0.369687 z"
       id="path10091" />
    <path
       style="fill:#776487;stroke-width:1.28566"
       d="m 21.007721,74.293827 c -0.280902,-0.338072 -0.393081,-2.09534 -0.495417,-7.760634 l -0.132292,-7.323604 -0.79375,-1.000426 C 17.497086,55.576009 14.663936,50.19798 12.957807,45.626692 11.61147,42.01941 11.317109,40.024671 12.10723,39.862761 c 0.49445,-0.101322 0.576602,0.05365 2.073759,3.911848 1.801416,4.64228 4.494543,10.158731 5.592958,11.4563 l 0.716851,0.846824 0.01075,-5.73107 0.01075,-5.731071 -1.605,-1.941845 c -2.380382,-2.87996 -5.53875,-9.577065 -5.53875,-11.744542 0,-0.555844 0.155045,-0.91581 0.441867,-1.025874 0.529873,-0.203331 0.739637,0.09302 1.297267,1.832737 0.710503,2.216663 3.777898,8.197799 4.615977,9.00073 l 0.788639,0.755564 0.01995,-1.041689 c 0.01097,-0.572929 0.0028,-4.097624 -0.0182,-7.832656 -0.0323,-5.749592 0.02654,-6.916068 0.38372,-7.60677 0.232028,-0.448692 0.533684,-0.815804 0.670348,-0.815804 0.702679,0 0.85472,1.265705 0.752008,6.260271 -0.07094,3.449559 -0.0161,5.093592 0.167894,5.033818 0.150281,-0.04882 1.047144,-1.560992 1.993029,-3.360382 0.945886,-1.79939 1.860559,-3.315791 2.032608,-3.369781 0.172048,-0.05399 0.444439,0.147777 0.605313,0.448372 0.425285,0.794653 -1.496464,5.038992 -3.265203,7.211464 l -1.357093,1.666863 -0.06506,3.174999 c -0.180146,8.791226 -0.18936,10.18701 -0.06723,10.18465 0.07276,-0.0014 0.381846,-0.448059 0.686856,-0.992562 0.305011,-0.544502 0.960664,-1.70438 1.457008,-2.577505 0.892516,-1.570036 2.159003,-4.580459 3.005383,-7.143749 0.464811,-1.407697 0.540593,-1.660648 1.545718,-5.159375 0.955659,-3.326543 1.409728,-4.29196 1.965145,-4.17819 0.36288,0.07433 0.450996,0.313341 0.392255,1.063964 -0.06996,0.893932 -1.577086,6.554246 -2.057071,7.725723 -0.46709,1.140003 1.150033,-0.51482 2.518208,-2.576915 1.454985,-2.192934 2.032643,-2.45818 1.93867,-0.890187 -0.09375,1.564199 -2.071357,4.286649 -4.155454,5.720545 -0.928368,0.638734 -1.271194,1.16985 -2.338258,3.622495 -0.687715,1.580712 -1.876348,3.814063 -2.641405,4.963001 -2.472737,3.713476 -2.255435,2.451585 -2.292,13.309841 -0.03143,9.334371 -0.115194,10.398054 -0.818805,10.398054 -0.109884,0 -0.363197,-0.196663 -0.562916,-0.43703 z"
       id="path10076" />
    <path
       style="fill:#776487;stroke-width:1.28566"
       d="m -6.508944,74.293945 c -0.2808255,-0.337888 -0.3931092,-2.091904 -0.4954177,-7.739062 l -0.1322916,-7.30215 -1.2317555,-2.116666 c -0.6774655,-1.164167 -1.7285702,-3.307292 -2.3357892,-4.7625 -1.104206,-2.646247 -1.689261,-3.419614 -3.74882,-4.95545 -1.822317,-1.358923 -3.148929,-2.931834 -3.072977,-3.643508 0.113906,-1.067309 0.826967,-0.796135 2.707563,1.029673 0.958033,0.930122 1.787776,1.644497 1.843873,1.5875 0.0561,-0.057 -0.06597,-0.579881 -0.271257,-1.161965 -1.235379,-3.502836 -3.043852,-9.739965 -2.918697,-10.066113 0.267418,-0.69688 1.14102,-0.431001 1.560605,0.474968 0.219036,0.472943 1.016743,2.824427 1.772682,5.22552 2.303627,7.317025 2.587895,8.069021 5.1759025,13.692187 0.4185909,0.909505 0.8633848,1.653646 0.988431,1.653646 0.1250463,0 0.155708,-0.225745 0.068137,-0.501657 C -6.6863265,55.432457 -6.8004744,50.461598 -6.852418,44.662015 -6.9043613,38.862431 -7.0413577,33.88475 -7.1568542,33.6005 -7.2723508,33.31625 -8.9038674,31.173125 -10.782447,28.838 c -2.491671,-3.097215 -3.738321,-4.908346 -4.608647,-6.695437 -1.345104,-2.761982 -1.594828,-4.164828 -0.741392,-4.164828 0.405543,0 0.871022,0.664158 1.992474,2.842921 2.186332,4.247616 2.299523,4.282329 2.160974,0.662721 -0.09281,-2.424623 -0.04,-3.054267 0.278297,-3.318433 0.791246,-0.656676 1.058113,0.292368 1.194858,4.249209 0.08315,2.405989 0.258017,4.004499 0.4843,4.427124 0.194789,0.363802 1.0082397,1.375833 1.8076685,2.248958 l 1.4535068,1.5875 0.010315,-8.251005 c 0.011632,-9.304602 0.1915193,-10.4477 1.4466241,-9.192596 0.3499293,0.34993 0.417048,1.261277 0.4238194,5.754688 0.0065,4.312089 0.070107,5.238326 0.3307292,4.815915 0.874613,-1.417554 2.0735753,-3.58799 2.6707811,-4.834814 0.4834494,-1.009328 0.8139974,-1.389063 1.20913947,-1.389063 0.40759245,0 0.54380438,0.170289 0.54380438,0.679852 0,1.214084 -1.54662085,4.432125 -3.10661055,6.463898 l -1.5235975,1.984375 -0.080152,5.027083 c -0.044084,2.764896 -0.044084,5.920052 0,7.011458 l 0.080152,1.984375 1.5724948,-2.640358 C -0.92709068,34.303826 0.96712969,29.720037 2.2775759,24.877818 3.0165638,22.14719 3.6249644,20.425365 4.0071322,19.983027 l 0.5895529,-0.682375 0.269886,0.705357 C 5.0786,20.560154 4.9743966,21.325878 4.3804926,23.577884 3.9647121,25.154469 3.4918841,26.788336 3.3297637,27.2087 c -0.1621204,0.420365 -0.2516596,0.807404 -0.1989759,0.860088 0.1245398,0.124539 1.0900132,-0.98629 2.5072752,-2.884756 1.3118935,-1.757321 1.9096579,-1.951651 1.9096579,-0.62082 0,1.157589 -1.8234386,3.679865 -3.7581711,5.198499 -1.2405595,0.973755 -1.5538045,1.43815 -2.7322509,4.050645 -1.60630125,3.561005 -2.6180183,5.357295 -4.4756284,7.946417 l -1.4064026,1.960233 -0.1679485,15.273363 c -0.092372,8.400351 -0.2326275,15.378017 -0.3116797,15.505926 -0.2283556,0.369487 -0.8096103,0.270881 -1.2045837,-0.20435 z"
       id="path10075" />
    <path
       style="fill:#628b6c;stroke-width:1.28566"
       d="m 21.007721,74.293827 c -0.28098,-0.338166 -0.393053,-2.098493 -0.495417,-7.781549 l -0.132292,-7.34452 -0.850762,-1.015846 c -1.845904,-2.204087 -4.752501,-7.811868 -6.67624,-12.880659 -1.349293,-3.555205 -1.604386,-5.041413 -0.910979,-5.307499 0.549727,-0.210949 1.087725,0.3617 1.343099,1.429605 0.584052,2.442351 4.923745,11.75309 6.467821,13.876602 l 0.759353,1.044311 v -5.84934 -5.84934 L 18.916727,42.673747 C 16.53485,39.774958 13.368554,33.02535 13.368554,30.84668 c 0,-0.478754 0.168478,-0.83844 0.441867,-0.943349 0.527102,-0.202268 0.726969,0.08314 1.283419,1.832737 1.03582,3.256832 4.837379,10.061987 5.340091,9.559275 0.07297,-0.07297 0.129474,-3.563341 0.125572,-7.756388 -0.0055,-5.890939 0.07565,-7.819164 0.356955,-8.483616 0.200228,-0.472943 0.484672,-0.859896 0.632097,-0.859896 0.730617,0 0.880414,1.227597 0.764894,6.268363 -0.08156,3.558937 -0.03117,5.094553 0.16523,5.034924 0.15542,-0.04719 0.802155,-1.091684 1.437188,-2.321104 1.961796,-3.798025 2.399842,-4.474346 2.79882,-4.321244 0.204207,0.07836 0.437971,0.316256 0.519476,0.528654 0.223613,0.582728 -1.876687,5.070651 -3.116934,6.660266 -0.600261,0.76935 -1.231345,1.662319 -1.402409,1.984375 -0.354076,0.666609 -0.618857,13.418409 -0.278615,13.418058 0.11226,-1.15e-4 0.347685,-0.327632 0.523165,-0.727814 0.17548,-0.400182 0.686742,-1.322916 1.136138,-2.050521 1.600868,-2.59192 2.734315,-5.552708 4.898371,-12.795514 1.228266,-4.11084 1.452127,-4.598705 2.053463,-4.47515 0.336623,0.06916 0.426887,0.325993 0.370191,1.053301 -0.06762,0.867445 -1.568071,6.497203 -2.056301,7.715331 -0.173894,0.433864 -0.130799,0.457881 0.355037,0.197869 0.304125,-0.162762 1.21926,-1.307707 2.033634,-2.544321 1.489439,-2.26169 1.876644,-2.591152 2.164298,-1.841539 0.444177,1.157506 -1.871367,4.734368 -4.102587,6.33734 -1.040659,0.747639 -1.40487,1.252 -2.141329,2.965315 -1.181528,2.748735 -2.769941,5.6577 -3.892008,7.127687 -0.502858,0.65878 -1.026698,1.493445 -1.164089,1.85481 -0.139995,0.368216 -0.249801,4.871277 -0.249801,10.244178 0,7.103895 -0.08224,9.669389 -0.3175,9.90465 -0.422174,0.422174 -0.606703,0.400949 -1.039166,-0.11953 z"
       id="path10060" />
    <path
       style="fill:#628b6c;stroke-width:1.28566"
       d="M -6.508944,74.29379 C -6.7897635,73.955788 -6.9020554,72.201644 -7.0043617,66.554728 L -7.1366533,59.252733 -8.3681054,57.136067 C -9.045404,55.9719 -10.104881,53.791936 -10.7225,52.291703 c -0.940349,-2.284167 -1.315799,-2.886474 -2.309003,-3.704167 -0.652333,-0.537058 -1.949911,-1.6853 -2.883506,-2.551649 -1.349509,-1.252306 -1.68135,-1.71329 -1.61892,-2.248959 0.125706,-1.078597 0.827445,-0.815693 2.715497,1.017354 0.958033,0.930122 1.798524,1.634484 1.867759,1.56525 0.06924,-0.06923 -0.165884,-0.949306 -0.522485,-1.955715 -0.860073,-2.427318 -2.418197,-7.432637 -2.649352,-8.51078 -0.143862,-0.670999 -0.08767,-0.897237 0.25557,-1.02895 0.774584,-0.297236 1.36139,0.72527 2.500705,4.357462 2.092214,6.670081 3.3772373,10.239028 4.9001409,13.609364 1.5813615,3.499709 2.1452987,4.347211 1.8630466,2.799844 -0.088881,-0.487267 -0.1988234,-5.529378 -0.2443155,-11.20469 -0.052999,-6.611852 -0.1852399,-10.556371 -0.3681134,-10.980207 -0.1569702,-0.363803 -1.6483352,-2.317586 -3.3141446,-4.341741 -1.665809,-2.024155 -3.40942,-4.308395 -3.874692,-5.07609 -0.884539,-1.459482 -2.389631,-4.942661 -2.389631,-5.530234 0,-0.394684 0.725333,-0.735865 1.087956,-0.511752 0.135549,0.08377 0.855827,1.390461 1.600618,2.903748 0.74479,1.513287 1.566345,2.943452 1.825678,3.178145 0.450457,0.407657 0.464788,0.290128 0.320891,-2.631647 -0.134386,-2.728648 -0.101718,-3.07713 0.303025,-3.232444 0.249508,-0.09575 0.578153,-0.04958 0.730323,0.102591 0.15217,0.15217 0.329553,1.864619 0.394185,3.805444 0.06463,1.940824 0.169526,3.784735 0.233098,4.097579 0.06357,0.312844 0.8855303,1.474794 1.8265741,2.582112 l 1.7109888,2.013305 0.07656,-8.592266 c 0.066581,-7.472285 0.131987,-8.647649 0.5017834,-9.017156 0.3904389,-0.390134 0.4607805,-0.389334 0.8598958,0.0098 0.3751365,0.375136 0.4346726,1.183762 0.4346726,5.903772 v 5.4691 l 0.701578,-1.320811 c 0.3858678,-0.726447 0.9631065,-1.737531 1.2827526,-2.246853 0.3196461,-0.509323 0.8347627,-1.500822 1.1447036,-2.203331 0.6038333,-1.368642 1.42359725,-1.640788 1.58314922,-0.525577 0.14051196,0.982129 -1.46377972,4.35894 -3.05629422,6.433074 l -1.5235975,1.984375 -0.080152,5.027083 c -0.044084,2.764896 -0.044084,5.920052 0,7.011458 l 0.080152,1.984375 1.4039952,-2.310425 C -0.73127674,34.109786 0.6521768,30.766953 2.3592552,24.62284 3.4667051,20.636909 4.1794693,19.133877 4.7104274,19.664835 5.1369168,20.091324 4.9584687,21.598971 4.1428569,24.460045 3.707276,25.988013 3.2608547,27.476295 3.1508098,27.767336 2.969139,28.24781 2.994144,28.261148 3.4225512,27.912288 3.682054,27.70097 4.5483278,26.659174 5.347604,25.597184 7.0306499,23.36094 7.6944403,23.091883 7.474015,24.735277 7.2927472,26.08673 5.6242927,28.341915 3.7097689,29.823262 c -1.2103527,0.936501 -1.5484736,1.41233 -2.3834395,3.354154 -1.36009609,3.163085 -3.0446459,6.21191 -4.7305569,8.561719 l -1.4377765,2.003962 -0.182883,15.295452 c -0.1005857,8.412498 -0.2369554,15.384748 -0.3030439,15.493889 -0.2053063,0.339049 -0.8010771,0.218671 -1.1810133,-0.23863 z"
       id="path10059" />
    <path
       style="fill:#566960;stroke-width:1.28566"
       d="m 21.007721,74.293827 c -0.28098,-0.338166 -0.393053,-2.098493 -0.495417,-7.781549 l -0.132292,-7.34452 -0.850762,-1.015846 c -1.845904,-2.204087 -4.752501,-7.811868 -6.67624,-12.880659 -1.349293,-3.555205 -1.604386,-5.041413 -0.910979,-5.307499 0.549727,-0.210949 1.087725,0.3617 1.343099,1.429605 0.584052,2.442351 4.923745,11.75309 6.467821,13.876602 l 0.759353,1.044311 v -5.84934 -5.84934 L 18.916727,42.673747 C 16.53485,39.774958 13.368554,33.02535 13.368554,30.84668 c 0,-0.478754 0.168478,-0.83844 0.441867,-0.943349 0.527102,-0.202268 0.726969,0.08314 1.283419,1.832737 1.03582,3.256832 4.837379,10.061987 5.340091,9.559275 0.07297,-0.07297 0.129474,-3.563341 0.125572,-7.756388 -0.0055,-5.890939 0.07565,-7.819164 0.356955,-8.483616 0.200228,-0.472943 0.484672,-0.859896 0.632097,-0.859896 0.730617,0 0.880414,1.227597 0.764894,6.268363 -0.08156,3.558937 -0.03117,5.094553 0.16523,5.034924 0.15542,-0.04719 0.802155,-1.091684 1.437188,-2.321104 1.961796,-3.798025 2.399842,-4.474346 2.79882,-4.321244 0.204207,0.07836 0.437971,0.316256 0.519476,0.528654 0.223613,0.582728 -1.876687,5.070651 -3.116934,6.660266 -0.600261,0.76935 -1.231345,1.662319 -1.402409,1.984375 -0.354076,0.666609 -0.618857,13.418409 -0.278615,13.418058 0.11226,-1.15e-4 0.347685,-0.327632 0.523165,-0.727814 0.17548,-0.400182 0.686742,-1.322916 1.136138,-2.050521 1.600868,-2.59192 2.734315,-5.552708 4.898371,-12.795514 1.228266,-4.11084 1.452127,-4.598705 2.053463,-4.47515 0.336623,0.06916 0.426887,0.325993 0.370191,1.053301 -0.06762,0.867445 -1.568071,6.497203 -2.056301,7.715331 -0.173894,0.433864 -0.130799,0.457881 0.355037,0.197869 0.304125,-0.162762 1.21926,-1.307707 2.033634,-2.544321 1.489439,-2.26169 1.876644,-2.591152 2.164298,-1.841539 0.444177,1.157506 -1.871367,4.734368 -4.102587,6.33734 -1.040659,0.747639 -1.40487,1.252 -2.141329,2.965315 -1.181528,2.748735 -2.769941,5.6577 -3.892008,7.127687 -0.502858,0.65878 -1.026698,1.493445 -1.164089,1.85481 -0.139995,0.368216 -0.249801,4.871277 -0.249801,10.244178 0,7.103895 -0.08224,9.669389 -0.3175,9.90465 -0.422174,0.422174 -0.606703,0.400949 -1.039166,-0.11953 z"
       id="path10044" />
    <path
       style="fill:#566960;stroke-width:1.28566"
       d="M -6.508944,74.29379 C -6.7897635,73.955788 -6.9020554,72.201644 -7.0043617,66.554728 L -7.1366533,59.252733 -8.3681054,57.136067 C -9.045404,55.9719 -10.104881,53.791936 -10.7225,52.291703 c -0.940349,-2.284167 -1.315799,-2.886474 -2.309003,-3.704167 -0.652333,-0.537058 -1.949911,-1.6853 -2.883506,-2.551649 -1.349509,-1.252306 -1.68135,-1.71329 -1.61892,-2.248959 0.125706,-1.078597 0.827445,-0.815693 2.715497,1.017354 0.958033,0.930122 1.798524,1.634484 1.867759,1.56525 0.06924,-0.06923 -0.165884,-0.949306 -0.522485,-1.955715 -0.860073,-2.427318 -2.418197,-7.432637 -2.649352,-8.51078 -0.143862,-0.670999 -0.08767,-0.897237 0.25557,-1.02895 0.774584,-0.297236 1.36139,0.72527 2.500705,4.357462 2.092214,6.670081 3.3772373,10.239028 4.9001409,13.609364 1.5813615,3.499709 2.1452987,4.347211 1.8630466,2.799844 -0.088881,-0.487267 -0.1988234,-5.529378 -0.2443155,-11.20469 -0.052999,-6.611852 -0.1852399,-10.556371 -0.3681134,-10.980207 -0.1569702,-0.363803 -1.6483352,-2.317586 -3.3141446,-4.341741 -1.665809,-2.024155 -3.40942,-4.308395 -3.874692,-5.07609 -0.884539,-1.459482 -2.389631,-4.942661 -2.389631,-5.530234 0,-0.394684 0.725333,-0.735865 1.087956,-0.511752 0.135549,0.08377 0.855827,1.390461 1.600618,2.903748 0.74479,1.513287 1.566345,2.943452 1.825678,3.178145 0.450457,0.407657 0.464788,0.290128 0.320891,-2.631647 -0.134386,-2.728648 -0.101718,-3.07713 0.303025,-3.232444 0.249508,-0.09575 0.578153,-0.04958 0.730323,0.102591 0.15217,0.15217 0.329553,1.864619 0.394185,3.805444 0.06463,1.940824 0.169526,3.784735 0.233098,4.097579 0.06357,0.312844 0.8855303,1.474794 1.8265741,2.582112 l 1.7109888,2.013305 0.07656,-8.592266 c 0.066581,-7.472285 0.131987,-8.647649 0.5017834,-9.017156 0.3904389,-0.390134 0.4607805,-0.389334 0.8598958,0.0098 0.3751365,0.375136 0.4346726,1.183762 0.4346726,5.903772 v 5.4691 l 0.701578,-1.320811 c 0.3858678,-0.726447 0.9631065,-1.737531 1.2827526,-2.246853 0.3196461,-0.509323 0.8347627,-1.500822 1.1447036,-2.203331 0.6038333,-1.368642 1.42359725,-1.640788 1.58314922,-0.525577 0.14051196,0.982129 -1.46377972,4.35894 -3.05629422,6.433074 l -1.5235975,1.984375 -0.080152,5.027083 c -0.044084,2.764896 -0.044084,5.920052 0,7.011458 l 0.080152,1.984375 1.4039952,-2.310425 C -0.73127674,34.109786 0.6521768,30.766953 2.3592552,24.62284 3.4667051,20.636909 4.1794693,19.133877 4.7104274,19.664835 5.1369168,20.091324 4.9584687,21.598971 4.1428569,24.460045 3.707276,25.988013 3.2608547,27.476295 3.1508098,27.767336 2.969139,28.24781 2.994144,28.261148 3.4225512,27.912288 3.682054,27.70097 4.5483278,26.659174 5.347604,25.597184 7.0306499,23.36094 7.6944403,23.091883 7.474015,24.735277 7.2927472,26.08673 5.6242927,28.341915 3.7097689,29.823262 c -1.2103527,0.936501 -1.5484736,1.41233 -2.3834395,3.354154 -1.36009609,3.163085 -3.0446459,6.21191 -4.7305569,8.561719 l -1.4377765,2.003962 -0.182883,15.295452 c -0.1005857,8.412498 -0.2369554,15.384748 -0.3030439,15.493889 -0.2053063,0.339049 -0.8010771,0.218671 -1.1810133,-0.23863 z"
       id="path10043" />
    <path
       style="fill:#323844;stroke-width:1.28566"
       d="M 21.161725,74.358019 C 20.672469,74.000381 20.641781,73.585265 20.592377,66.656605 L 20.54016,59.333206 19.855689,58.499219 C 17.3759,55.477747 14.178124,49.168307 12.278915,43.549704 11.411704,40.984153 11.336573,40.19609 11.937222,39.9656 c 0.597505,-0.229284 0.819633,-0.02293 1.184861,1.100715 1.647471,5.068548 6.452847,14.906799 7.220767,14.783385 0.261473,-0.04202 0.262601,-10.570341 0.0012,-11.395963 -0.09522,-0.30076 -0.811982,-1.253163 -1.592814,-2.116451 -2.034904,-2.249791 -5.382703,-9.311607 -5.382703,-11.354225 0,-0.350574 0.187668,-0.793158 0.41704,-0.98352 0.509336,-0.422711 0.761458,-0.112612 1.196748,1.471944 0.381035,1.387058 3.756641,8.299671 4.419904,9.051142 1.137866,1.28919 1.157879,1.170476 1.213641,-7.199059 0.05222,-7.838014 0.189401,-9.128125 0.970608,-9.128125 0.633238,0 0.800229,1.590499 0.671366,6.394403 -0.07328,2.731736 -0.03023,5.030454 0.09567,5.108263 0.125898,0.07781 0.909572,-1.198538 1.741499,-2.836326 1.615319,-3.180032 2.111472,-3.90384 2.675988,-3.90384 1.10615,0 -0.970291,5.062108 -3.198665,7.79795 -1.139352,1.398817 -1.208714,1.576403 -1.221116,3.126408 -0.0072,0.903842 -0.04065,3.926188 -0.07425,6.716324 -0.03361,2.790136 0.01138,5.028176 0.09998,4.973422 0.08859,-0.05475 0.763475,-1.156896 1.499736,-2.449204 2.0129,-3.533109 2.999319,-6.129364 5.631253,-14.821453 0.783381,-2.587151 1.296289,-3.35943 1.858061,-2.797658 0.270976,0.270976 -0.45084,3.706877 -1.436201,6.836426 -0.364728,1.158396 -0.609542,2.159775 -0.544029,2.225288 0.239928,0.239928 1.217116,-0.895803 2.524971,-2.934633 1.384734,-2.158678 2.01463,-2.497023 1.893085,-1.01686 -0.137087,1.66944 -1.680674,3.873013 -3.880321,5.539417 -1.136249,0.860798 -1.501994,1.376126 -2.391269,3.369255 -1.347757,3.020725 -3.085435,6.070227 -4.129976,7.247817 -0.451778,0.509323 -0.754794,0.717682 -0.673369,0.463021 0.08142,-0.254662 0.0425,-0.463021 -0.0865,-0.463021 -0.13194,0 -0.248306,4.658926 -0.265992,10.649478 -0.03345,11.327641 -0.08212,11.76598 -1.214678,10.938099 z M 16.759995,51.05065 c -0.165759,-0.363802 -0.404076,-0.661458 -0.529594,-0.661458 -0.125517,0 -0.03318,0.297656 0.205191,0.661458 0.238373,0.363802 0.47669,0.661459 0.529594,0.661459 0.0529,0 -0.03943,-0.297657 -0.205191,-0.661459 z M 29.23545,38.218359 c 0,-0.523594 -0.05346,-0.578739 -0.25648,-0.264583 -0.141064,0.218281 -0.256481,0.694531 -0.256481,1.058333 0,0.523594 0.05346,0.57874 0.256481,0.264584 0.141064,-0.218282 0.25648,-0.694532 0.25648,-1.058334 z"
       id="path10028" />
    <path
       style="fill:#323844;stroke-width:1.28566"
       d="m -6.3584795,74.355618 c -0.4812678,-0.351623 -0.5219163,-0.83868 -0.6458822,-7.739062 l -0.1322916,-7.363823 -1.4962611,-2.778125 c -0.8229436,-1.527968 -1.9280486,-3.790156 -2.4557876,-5.027083 -0.865235,-2.027953 -1.116537,-2.365961 -2.557265,-3.439583 -3.153659,-2.350088 -4.682755,-4.494748 -3.522184,-4.940102 0.287184,-0.110202 1.038438,0.453769 2.38125,1.78762 2.012814,1.99938 2.239716,2.044312 1.583468,0.313566 -0.434214,-1.14517 -2.255212,-6.950543 -2.304737,-7.347542 -0.01815,-0.145521 -0.191275,-0.713165 -0.384715,-1.261431 -0.373887,-1.059709 -0.261733,-1.781277 0.276866,-1.781277 0.620638,0 1.145954,0.932639 1.862859,3.307292 2.320515,7.686407 5.6424369,16.407251 6.9541227,18.256249 0.3393945,0.478422 0.3592447,0.412411 0.2069992,-0.68836 -0.092617,-0.669639 -0.1698816,-5.551202 -0.1717001,-10.847916 -0.00203,-5.922292 -0.1118139,-10.062516 -0.2851139,-10.752674 -0.1549941,-0.617256 -0.7164244,-1.629288 -1.2476229,-2.248958 -0.5311984,-0.619671 -1.4382659,-1.721987 -2.015706,-2.449591 -0.577439,-0.727604 -1.269044,-1.561041 -1.536898,-1.852083 -1.228495,-1.334842 -2.967096,-4.064273 -3.765408,-5.911317 -1.195261,-2.765458 -1.326403,-3.368388 -0.778389,-3.578681 0.242239,-0.09295 0.551339,-0.100468 0.686888,-0.01669 0.135549,0.08377 0.844231,1.364083 1.574847,2.84513 0.730617,1.481046 1.551911,2.986814 1.825098,3.34615 0.493655,0.649329 0.496428,0.633138 0.451797,-2.638648 -0.03886,-2.848901 0.01293,-3.303604 0.384822,-3.378306 0.651808,-0.130929 0.801452,0.55699 0.936537,4.305283 0.115676,3.209742 0.584291,5.423958 1.1479218,5.423958 0.1016745,0 0.7073996,0.654844 1.3460557,1.455208 0.6386561,0.800365 1.2219947,1.455104 1.2963079,1.454977 0.074313,-1.28e-4 0.1351149,-3.863811 0.1351149,-8.585963 0,-9.041107 0.075526,-9.639965 1.1317614,-8.973893 0.4072587,0.256822 0.4557385,0.868296 0.4557385,5.748214 0,3.003451 0.089297,5.461057 0.1984375,5.461347 0.1091406,2.9e-4 0.1984375,-0.113248 0.1984375,-0.252307 0,-0.139058 0.2816854,-0.66792 0.6259675,-1.175248 0.3442821,-0.507328 1.1307314,-1.941365 1.747665,-3.18675 1.1068038,-2.234269 1.67327616,-2.739354 1.9818609,-1.767089 0.34908012,1.099854 -1.070978,4.136581 -3.3430638,7.148982 -0.9793445,1.298446 -1.2838655,1.930601 -1.3064111,2.711979 -0.035887,1.243771 -0.035906,0.87811 4.006e-4,7.567313 l 0.029799,5.490104 1.7078595,-2.84243 c 2.70212322,-4.497206 4.8618866,-10.079211 6.2709567,-16.207569 0.3045608,-1.324602 1.0867913,-2.400091 1.5413279,-2.119172 0.4791904,0.296156 0.177562,2.394005 -0.7802159,5.426464 -0.4366351,1.382447 -0.7959853,2.599101 -0.7985559,2.703675 -0.012954,0.526972 0.905943,-0.276525 1.721644,-1.50543 1.0958539,-1.650974 2.1119386,-2.785745 2.4943817,-2.785745 0.4186639,0 0.3324664,1.240352 -0.1526061,2.195951 -0.6745904,1.328952 -2.066633,2.92488 -3.5139425,4.028612 -0.784401,0.598192 -1.4833001,1.399558 -1.707717,1.958087 -1.13068201,2.814047 -3.1008049,6.503216 -4.8657417,9.111381 l -1.993949,2.946593 -0.09335,15.081249 c -0.051342,8.294687 -0.1496228,15.230077 -0.2184009,15.411978 -0.1624437,0.429624 -0.4505305,0.417787 -1.0832766,-0.04451 z m 0.341597,-46.257571 c -0.055704,-0.618463 -0.10128,-0.112448 -0.10128,1.124479 0,1.236927 0.045576,1.742943 0.10128,1.12448 0.055704,-0.618464 0.055704,-1.630495 0,-2.248959 z"
       id="path10027" />
    <path
       style="fill:#262c36;stroke-width:1.28566"
       d="m -11.727218,23.901642 c -0.0218,-0.379871 -0.112891,-1.225073 -0.202415,-1.878225 -0.120072,-0.876021 -0.06802,-1.224006 0.198437,-1.326521 0.350987,-0.135039 0.398422,1.074581 0.126818,3.233964 l -0.0832,0.661458 z"
       id="path10015" />
    <path
       style="fill:#262c36;stroke-width:1.28566"
       d="M 2.6161818,27.701172 C 2.6363928,27.446511 2.7154648,27.17862 2.7918976,27.10586 2.8683306,27.0331 3.1911371,26.140131 3.5092467,25.121485 4.750695,21.146137 4.8297016,20.332525 3.941174,20.673485 3.5799202,20.812111 3.5721777,20.759555 3.881,20.265054 4.6708447,19.000312 5.1151061,19.989111 4.6860946,22.056965 3.9838361,25.441881 2.467293,29.577168 2.6161818,27.701172 Z"
       id="path10014" />
    <path
       style="fill:#262c36;stroke-width:1.28566"
       d="m 20.709517,28.098047 c -0.06819,-0.181901 -0.02977,-0.568854 0.08539,-0.859895 0.170498,-0.430916 0.212825,-0.369509 0.227969,0.330729 0.01934,0.894224 -0.100584,1.096738 -0.313357,0.529166 z"
       id="path10013" />
    <path
       style="fill:#262c36;stroke-width:1.28566"
       d="m 20.736277,30.255524 c -0.05043,-0.741538 -0.0024,-1.403408 0.106756,-1.470823 0.10914,-0.06741 0.198437,0.539299 0.198437,1.348252 0,1.841642 -0.18329,1.915255 -0.305193,0.122571 z"
       id="path10012" />
    <path
       style="fill:#262c36;stroke-width:1.28566"
       d="m -6.6321943,32.790156 c -0.091895,-0.366137 -0.107639,-0.893011 -0.034988,-1.17083 0.092403,-0.353348 0.021841,-0.462817 -0.2348348,-0.364322 -0.2018105,0.07744 -0.3669282,0.02125 -0.3669282,-0.12488 0,-0.290277 -1.0538436,-1.604495 -2.1496396,-2.680755 -1.1601371,-1.139454 -1.3400311,-1.759647 -1.3118521,-4.522671 0.01455,-1.426924 -0.109831,-3.229909 -0.276409,-4.006634 -0.269292,-1.255665 -0.328839,-1.342023 -0.537126,-0.778969 -0.300765,0.813047 -0.604366,0.529024 -0.381916,-0.357288 0.2092,-0.83352 0.829634,-0.879053 1.069197,-0.07847 0.09797,0.327422 0.248589,2.19333 0.334697,4.146462 0.08611,1.953132 0.294032,3.816128 0.462054,4.139991 0.2963274,0.571173 3.1451107,3.81795 3.3504367,3.818515 0.056109,1.55e-4 0.069065,-2.529923 0.028792,-5.622395 -0.081704,-6.273822 0.1997419,-11.886553 0.6023909,-12.013167 0.8749859,-0.275142 0.982586,0.339745 1.0662246,6.092992 0.067239,4.6252 0.015771,5.721456 -0.2686181,5.721456 -0.2838752,0 -0.3386372,-1.098259 -0.2836454,-5.688541 0.062407,-5.209239 -0.048096,-6.410283 -0.4850258,-5.271663 -0.087984,0.229283 -0.166832,4.694126 -0.1752174,9.921874 -0.00839,5.227748 -0.065931,9.504997 -0.1278787,9.504997 -0.061948,0 -0.187819,-0.299567 -0.2797135,-0.665704 z"
       id="path10011" />
    <path
       style="fill:#262c36;stroke-width:1.28566"
       d="m -15.665,36.829297 c -0.493154,-0.630301 -0.554887,-1.49388 -0.131701,-1.842355 0.362372,-0.298399 0.391061,-0.250572 0.232228,0.387147 -0.102885,0.413088 -0.07178,0.727604 0.07196,0.727604 0.139249,0 0.235243,0.238125 0.213319,0.529166 -0.04697,0.6236 -0.05138,0.625867 -0.385806,0.198438 z"
       id="path10010" />
    <path
       style="fill:#262c36;stroke-width:1.28566"
       d="m 29.478727,38.549088 c 0.38913,-1.076878 0.667776,-2.071066 1.464582,-5.22552 0.07352,-0.291042 0.0736,0.100705 1.79e-4,0.870549 -0.07342,0.769843 -0.244127,1.662812 -0.379354,1.984374 -0.135227,0.321563 -0.436595,1.269269 -0.669707,2.106014 -0.233112,0.836745 -0.524188,1.521354 -0.646836,1.521354 -0.122649,0 -0.01864,-0.565547 0.231136,-1.256771 z"
       id="path10009" />
    <path
       style="fill:#262c36;stroke-width:1.28566"
       d="m -5.2685878,41.683802 c -0.2852806,-0.461593 -0.4385784,-16.430025 -0.1577291,-16.430025 0.1304789,0 0.2840986,0.26789 0.3413771,0.595312 0.1004548,0.574232 0.1121198,0.576574 0.3294164,0.06615 0.1239006,-0.291042 0.4722705,-0.785842 0.7741552,-1.099557 0.973526,-1.011676 1.3224373,-1.501103 1.9432483,-2.725846 0.3350167,-0.660924 0.7730546,-1.499336 0.9734177,-1.863138 0.4764964,-0.865182 0.59896775,-1.686428 0.27619849,-1.852084 -0.31856229,-0.163496 -1.20843379,1.590388 -1.04734909,2.064263 0.064403,0.189459 0.00447,0.274863 -0.1331884,0.189787 -0.2864542,-0.177039 -1.0665707,1.196541 -1.0665707,1.87795 0,0.249761 -0.076093,0.378018 -0.169095,0.285016 -0.093002,-0.093 -0.413451,0.324792 -0.7121083,0.928432 -0.2986572,0.60364 -0.5868693,0.965959 -0.6404713,0.805153 -0.053602,-0.160806 0.4308656,-1.223522 1.0765945,-2.361592 0.645729,-1.138069 1.4388024,-2.632504 1.7623853,-3.320966 0.5110322,-1.087283 0.654341,-1.216423 1.09072195,-0.982879 0.61970766,0.331658 0.61958673,0.355938 -0.0108996,2.188479 -0.45997585,1.336943 -1.46123075,3.014552 -3.63337135,6.087739 -0.6363531,0.900324 -0.7188061,1.262006 -0.7325943,3.213537 -0.00855,1.209468 -0.1175653,2.137028 -0.2422669,2.061247 -0.1249025,-0.0759 -0.1299251,0.263273 -0.011183,0.755212 0.1185508,0.491148 0.2205794,2.579675 0.2267302,4.641172 0.00615,2.061496 0.076248,3.813279 0.1557705,3.89285 0.2089249,0.209054 3.4990565,-5.454922 4.45170006,-7.66362 1.04678698,-2.426969 2.20632674,-5.923641 3.05488894,-9.212227 0.3718588,-1.441132 0.7372337,-2.681366 0.8119442,-2.756077 0.2473824,-0.247382 0.140727,1.538252 -0.1198457,2.006468 -0.2449508,0.440146 -1.5262434,5.065399 -1.7688573,6.385281 -0.064115,0.3488 -0.2896657,0.881308 -0.5012242,1.18335 -0.21155857,0.302042 -0.38465192,0.804275 -0.38465192,1.116073 0,0.311798 -0.21639024,0.850853 -0.4808672,1.197899 -0.26447696,0.347047 -0.64245224,1.047713 -0.83994508,1.557036 -0.19749283,0.509323 -0.5839439,1.252651 -0.8587802,1.65184 -0.2748363,0.399189 -0.4293076,0.8397 -0.3432694,0.978912 0.086038,0.139213 -0.085027,0.38234 -0.3801441,0.540282 -0.2951174,0.157942 -0.5365771,0.45165 -0.5365771,0.652684 0,0.201035 -0.089297,0.405205 -0.1984375,0.453712 -0.1091407,0.04851 -0.4113578,0.504913 -0.6715938,1.014236 -0.7580587,1.483641 -1.4078425,2.233402 -1.627528,1.877943 z"
       id="path10008" />
    <path
       style="fill:#262c36;stroke-width:1.28566"
       d="m 20.5309,45.172503 c -0.01358,-0.621663 -0.348135,-1.222107 -1.241165,-2.227611 -1.699277,-1.913295 -2.79521,-3.700383 -4.167945,-6.79648 -1.513153,-3.412796 -2.005071,-5.464527 -1.44455,-6.025048 0.521886,-0.521886 0.744657,-0.228015 1.523371,2.009579 0.814285,2.339803 3.39999,7.48002 4.330669,8.609095 0.41746,0.506451 0.88112,0.845357 1.030355,0.753124 0.179089,-0.110683 0.207294,-1.404629 0.08296,-3.805969 -0.103608,-2.001051 -0.08646,-3.701237 0.0381,-3.778193 0.124564,-0.07695 0.246775,2.08111 0.27158,4.795699 0.02481,2.71459 -0.04412,4.5189 -0.153167,4.009577 -0.167158,-0.780747 -0.232863,-0.847412 -0.418767,-0.424892 -0.13794,0.313505 -0.07018,0.90791 0.180972,1.5875 0.242782,0.656943 0.319397,1.295516 0.193827,1.615517 -0.169249,0.431313 -0.211086,0.371788 -0.226243,-0.321898 z m -0.547763,-2.73395 c 0,-0.555158 -0.823085,-1.852044 -1.076157,-1.695637 -0.142929,0.08834 -0.227155,0.0521 -0.187169,-0.08053 0.03999,-0.132624 -0.483256,-1.242802 -1.162759,-2.467062 -0.679503,-1.22426 -1.60985,-3.237959 -2.067438,-4.474886 -1.201962,-3.249078 -1.28912,-3.439583 -1.573651,-3.439583 -0.666582,0 0.441914,3.499231 2.430648,7.672916 1.392581,2.922562 3.636526,5.689926 3.636526,4.484777 z"
       id="path10007" />
    <path
       style="fill:#262c36;stroke-width:1.28566"
       d="m -13.202027,45.03138 c -0.785202,-2.099258 -2.26909,-6.939369 -2.250358,-7.340169 0.01893,-0.405045 0.725071,1.301298 0.918524,2.219553 0.156269,0.74176 0.679215,2.281685 1.132428,3.334678 0.219216,0.509323 0.418663,1.104636 0.443217,1.322917 0.02455,0.218281 0.132083,0.664766 0.238954,0.992187 0.347023,1.063184 -0.0499,0.628111 -0.482765,-0.529166 z"
       id="path10006" />
    <path
       style="fill:#262c36;stroke-width:1.28566"
       d="m 22.912108,50.918359 c 0.175259,-0.363802 0.767736,-1.435365 1.316615,-2.38125 1.588876,-2.738116 3.507097,-7.789245 4.873202,-12.832291 0.23652,-0.873125 0.676629,-2.212578 0.97802,-2.976563 0.593487,-1.504406 1.29259,-1.870924 1.261678,-0.661458 -0.0163,0.637929 -0.04532,0.662386 -0.235444,0.198438 -0.198615,-0.484676 -0.241552,-0.46243 -0.510684,0.264583 -0.16161,0.436562 -0.412848,1.000494 -0.558306,1.253181 -0.335952,0.583609 -0.337038,0.807273 -0.0029,0.600775 0.327717,-0.20254 0.04363,0.642748 -0.399514,1.188752 -0.177161,0.218281 -0.385438,0.694531 -0.462838,1.058333 -0.0774,0.363802 -0.312047,1.280437 -0.521439,2.036967 -0.209392,0.756529 -0.352252,1.709029 -0.317465,2.116666 0.03479,0.407637 2.28e-4,0.575491 -0.0768,0.373009 -0.166367,-0.437346 -0.849182,0.979052 -1.930595,4.004731 -0.416673,1.165807 -0.97365,2.37231 -1.237726,2.681117 -0.264076,0.308807 -0.691802,0.978187 -0.950502,1.48751 -0.258701,0.509323 -0.711919,1.223698 -1.007153,1.5875 l -0.536789,0.661458 z"
       id="path10005" />
    <path
       style="fill:#262c36;stroke-width:1.28566"
       d="m 21.912039,52.553335 c -0.240148,-0.14842 -0.300958,-1.915398 -0.243852,-7.085741 0.04184,-3.788408 0.152837,-7.012213 0.246654,-7.164012 0.09382,-0.151799 0.09218,-0.354397 -0.0036,-0.450219 -0.09582,-0.09582 -0.165003,-2.554148 -0.153735,-5.462946 0.01127,-2.908798 -0.08569,-5.354345 -0.215461,-5.434547 -0.12977,-0.0802 -0.226547,-0.466218 -0.215058,-0.857812 0.01925,-0.655996 0.06753,-0.602063 0.403177,0.450359 0.24604,0.771456 0.314524,0.110147 0.106273,-1.026223 -0.185495,-1.0122 -0.166381,-1.116894 0.129931,-0.711663 0.271722,0.371602 0.315209,1.632419 0.199586,5.786523 -0.115346,4.144151 -0.07617,5.287506 0.178281,5.20269 0.179363,-0.05979 1.021381,-1.450805 1.87115,-3.091149 1.711398,-3.303582 2.015003,-3.750652 2.547068,-3.750652 0.434172,0 0.488058,1.266948 0.07877,1.852083 -0.20983,0.299986 -0.254108,0.154652 -0.181368,-0.595312 0.05293,-0.545703 0.0012,-0.992188 -0.114896,-0.992188 -0.116121,0 -0.830837,1.279922 -1.588257,2.844271 -0.75742,1.564349 -1.655461,3.186681 -1.995646,3.605183 -0.340185,0.418502 -0.573377,0.894752 -0.518204,1.058334 0.05517,0.163581 -0.08873,0.446541 -0.319784,0.628799 -0.366258,0.288909 -0.35228,0.307666 0.109069,0.146357 0.569158,-0.199004 1.5875,-1.349929 1.5875,-1.794184 0,-0.149078 0.191282,-0.449645 0.425071,-0.667927 0.587539,-0.548566 1.510013,-2.445836 1.374208,-2.826357 -0.0614,-0.172048 0.132017,-0.443218 0.429824,-0.602599 0.499246,-0.267189 0.522131,-0.238929 0.293493,0.362433 -0.593271,1.560421 -1.629196,3.309965 -2.806937,4.740556 l -1.267321,1.539403 -0.05072,6.661511 c -0.02789,3.663831 0.03709,6.721042 0.144405,6.793803 0.337173,0.228599 -0.104286,1.05463 -0.44958,0.841226 z"
       id="path10004" />
    <path
       style="fill:#262c36;stroke-width:1.28566"
       d="m 23.056276,52.704296 c 0.242492,-0.472943 0.722596,-1.197399 1.066897,-1.609903 0.344301,-0.412504 0.546586,-0.888753 0.449522,-1.058333 -0.09706,-0.169579 -0.08066,-0.221671 0.03646,-0.115758 0.27776,0.251187 1.699862,-2.391984 1.713485,-3.184746 0.0058,-0.33601 0.109941,-0.549468 0.231481,-0.474352 0.30682,0.189625 1.060498,-1.472821 1.274536,-2.811346 0.135851,-0.849566 0.220682,-0.988884 0.360271,-0.591672 0.173809,0.49459 0.191672,0.49095 0.37185,-0.07576 0.104098,-0.327422 0.35984,-0.595313 0.568315,-0.595313 0.208475,0 0.34928,-0.133012 0.3129,-0.295583 -0.03638,-0.16257 0.146782,-0.331299 0.407028,-0.374953 0.564614,-0.09471 2.456996,-2.048534 2.998689,-3.096053 0.234422,-0.453322 0.297673,-0.897895 0.162192,-1.139987 -0.169686,-0.303211 -0.474685,-6.58e-4 -1.2925,1.28213 -0.588723,0.923445 -1.445711,1.946232 -1.904418,2.27286 -1.086666,0.773775 -1.071251,0.486578 0.02588,-0.482237 0.472942,-0.417628 1.395677,-1.603448 2.05052,-2.635156 1.254038,-1.975739 1.753218,-2.364311 1.48174,-1.153416 l -0.163124,0.7276 0.389651,-0.661459 c 0.504395,-0.856244 0.506244,-0.608428 0.006,0.809304 -0.53256,1.509436 -2.256661,3.711001 -3.64202,4.650623 -1.33992,0.908803 -1.393875,0.985991 -2.568604,3.674707 -1.088058,2.490346 -2.295124,4.661258 -3.607227,6.487609 -1.087137,1.513215 -1.360904,1.682525 -0.729563,0.451194 z"
       id="path10003" />
    <path
       style="fill:#262c36;stroke-width:1.28566"
       d="m -6.5699561,55.217838 c -0.090199,-0.545704 -0.1657538,-5.516563 -0.1678994,-11.046354 -0.00451,-11.619358 0.3338791,-10.119598 -3.2666595,-14.478098 -3.150713,-3.813981 -4.274975,-5.406813 -5.281212,-7.482318 -1.308576,-2.699118 -1.653207,-3.847911 -1.232376,-4.107999 0.623971,-0.385635 1.019221,0.0438 2.074291,2.25372 0.577369,1.20934 1.345598,2.667433 1.707174,3.240207 0.372673,0.590352 0.571144,1.180989 0.458235,1.363679 -0.126031,0.203922 -0.368444,-0.120948 -0.660096,-0.884628 -0.291773,-0.763997 -0.574023,-1.142167 -0.76912,-1.0305 -0.169511,0.09702 -0.223356,0.08239 -0.119657,-0.03251 0.224126,-0.248341 -1.847817,-4.37384 -2.196667,-4.37384 -0.305057,0 -0.302055,0.06911 0.04235,0.974963 0.155751,0.409655 0.287579,0.804359 0.292951,0.87712 0.0054,0.07276 0.259196,0.608542 0.564051,1.190625 0.304856,0.582083 0.533309,1.13835 0.507673,1.236148 -0.02563,0.0978 0.290903,0.539124 0.703418,0.980722 0.412515,0.441599 0.896551,1.156647 1.075635,1.588995 0.325187,0.78507 1.335589,1.900946 1.335589,1.475008 0,-0.123804 0.354565,0.333992 0.787923,1.017326 0.433357,0.683334 0.8934145,1.242425 1.0223494,1.242425 0.1289348,0 0.5718248,0.506016 0.9841999,1.12448 0.4123752,0.618463 0.9276053,1.27333 1.1449558,1.455258 0.2173504,0.181929 0.4250128,0.534026 0.4614718,0.782437 0.036459,0.248412 0.18929,0.694873 0.3396243,0.992137 0.1503343,0.297264 0.3095663,1.731105 0.3538489,3.186313 0.044283,1.455208 0.1775518,2.883958 0.2961539,3.175 0.1701161,0.417454 0.1553699,0.445382 -0.069851,0.132292 -0.2161622,-0.300499 -0.2819585,-0.01137 -0.2709457,1.190624 0.010845,1.183706 0.076648,1.452902 0.2586992,1.058334 0.165466,-0.358622 0.1899395,-0.102805 0.075937,0.79375 -0.09252,0.727604 -0.1699694,3.972057 -0.1721104,7.209895 -0.00214,3.237839 -0.029102,5.886979 -0.059914,5.886979 -0.030812,0 -0.1298209,-0.446484 -0.2200201,-0.992187 z"
       id="path10002" />
    <path
       style="fill:#262c36;stroke-width:1.28566"
       d="m -8.1229277,54.679637 c -1.4078348,-2.914074 -2.4294783,-5.589136 -3.9448093,-10.329048 -0.729329,-2.28132 -1.425447,-4.38598 -1.54693,-4.677021 -0.356305,-0.853617 -0.572252,-1.542567 -0.704921,-2.248959 -0.06833,-0.363802 -0.296338,-1.008207 -0.506691,-1.432012 -0.210353,-0.423805 -0.323976,-0.829039 -0.252494,-0.90052 0.208668,-0.208669 0.843865,1.501695 2.265393,6.099913 0.731543,2.366326 1.432579,4.540536 1.557858,4.831577 0.125279,0.291042 0.494026,1.303073 0.819438,2.248958 0.325411,0.945886 1.2402944,3.119674 2.0330733,4.830641 0.7927789,1.710967 1.402028,3.224949 1.3538868,3.364404 -0.048141,0.139455 -0.5313529,-0.665115 -1.0738038,-1.787933 z"
       id="path10001" />
    <path
       style="fill:#262c36;stroke-width:1.28566"
       d="m 19.81264,58.260546 c -2.323422,-2.431665 -6.506904,-10.889145 -7.933599,-16.038851 -0.453765,-1.63788 -0.452745,-1.695539 0.03631,-2.053146 0.581169,-0.424961 0.687456,-0.299274 1.469412,1.73762 1.393194,3.629088 2.211134,5.556575 3.559429,8.387852 1.440487,3.024868 3.260919,6.145371 3.598929,6.169125 0.08971,0.0063 0.104621,-0.806002 0.03313,-1.805125 -0.0789,-1.102761 -0.01364,-2.012479 0.166072,-2.315104 0.229482,-0.386427 0.289885,0.165901 0.268639,2.456459 -0.01507,1.625237 0.05218,3.083753 0.149454,3.241146 0.09727,0.157393 0.04275,0.28617 -0.121166,0.28617 -0.177622,0 -0.230174,0.213786 -0.130076,0.529166 0.235204,0.741065 0.121226,0.679186 -1.096539,-0.595312 z m 0.754301,-0.739871 c -0.06506,-0.443309 -0.176748,-0.747568 -0.248186,-0.676129 -0.138282,0.138282 -1.393951,-1.253474 -1.393951,-1.545025 0,-0.09496 -0.939349,-2.101836 -2.087441,-4.459722 -1.148093,-2.357886 -2.174095,-4.584721 -2.280004,-4.948523 -0.10591,-0.363803 -0.476249,-1.290065 -0.822976,-2.058362 -0.346727,-0.768297 -0.631197,-1.542203 -0.632156,-1.719792 -0.0031,-0.566954 -0.981179,-1.849582 -1.173352,-1.53864 -0.09848,0.159341 -0.07893,0.28971 0.04344,0.28971 0.12237,0 0.249332,0.327422 0.282138,0.727605 0.15288,1.864892 2.931445,8.800454 3.922887,9.791895 0.201417,0.201418 0.381097,0.476772 0.399287,0.611899 0.07326,0.544236 0.122305,0.682745 0.602252,1.700892 0.274389,0.582084 0.849008,1.504818 1.276931,2.050521 0.427924,0.545703 0.686231,0.992188 0.574017,0.992188 -0.112214,0 0.138182,0.357187 0.556435,0.79375 0.956543,0.998416 1.1287,0.996262 0.980679,-0.01227 z"
       id="path10000" />
    <path
       style="fill:#262c36;stroke-width:1.28566"
       d="m 20.662502,72.168573 c -0.189742,-0.494459 0.04017,-10.945446 0.245304,-11.150578 0.07108,-0.07108 0.12173,2.508984 0.112554,5.733478 -0.0092,3.224495 -0.05497,5.862718 -0.101772,5.862718 -0.0468,0 -0.162036,-0.200528 -0.256086,-0.445618 z"
       id="path9997" />
    <path
       style="fill:#262c36;stroke-width:1.28566"
       d="m 21.338302,74.490919 c -0.200544,-0.126536 -0.289099,-0.352271 -0.196789,-0.501632 0.09231,-0.149362 0.01827,-0.341267 -0.16454,-0.426456 -0.265399,-0.123678 -0.265732,-0.185992 -0.0016,-0.30923 0.181901,-0.08489 0.33073,-0.49787 0.33073,-0.917738 0,-0.502067 0.113216,-0.719919 0.330729,-0.636389 0.261182,0.100301 0.317646,-1.681844 0.268513,-8.47497 -0.03988,-5.513912 0.03136,-8.601979 0.198437,-8.601979 0.166364,0 0.260654,3.475182 0.260654,9.606722 0,9.885427 -0.09628,10.848341 -1.026085,10.261672 z m 0.550173,-0.752249 c 0.06323,-0.254662 0.03736,-0.760677 -0.0575,-1.124479 -0.1456,-0.558396 -0.190714,-0.486252 -0.289542,0.463021 -0.115396,1.108415 0.12316,1.563098 0.347045,0.661458 z"
       id="path9993" />
    <path
       style="fill:#262c36;stroke-width:1.28566"
       d="m -6.3549405,74.35815 c -0.487243,-0.356044 -0.5222773,-0.795005 -0.6062023,-7.595404 l -0.089073,-7.217522 -1.4036001,-2.659787 c -0.7719801,-1.462883 -1.8977381,-3.790881 -2.5016851,-5.173328 -1.050189,-2.403907 -1.189464,-2.585836 -3.193111,-4.170984 -2.51485,-1.989578 -3.554308,-3.251243 -3.310779,-4.018533 0.09457,-0.297953 0.293284,-0.541733 0.441594,-0.541733 0.148309,0 1.039839,0.739569 1.981176,1.643488 1.36631,1.311999 1.681692,1.762339 1.563628,2.232743 -0.08134,0.32409 -0.02839,0.66311 0.117661,0.753377 0.146054,0.09027 0.265554,0.02953 0.265554,-0.134975 0,-0.178951 0.159424,-0.139674 0.396875,0.09778 0.218281,0.218281 0.396875,0.562502 0.396875,0.764935 0,0.202433 0.297656,0.626868 0.661458,0.94319 0.363802,0.316322 0.661459,0.782569 0.661459,1.036104 0,0.253535 0.308277,1.117526 0.685061,1.919979 0.3767834,0.802453 0.9335216,1.994787 1.2371957,2.64963 1.0367146,2.235575 1.567121,2.99014 1.8298043,2.60311 0.1773807,-0.261347 0.2216628,-0.215485 0.168986,0.175015 -0.03926,0.291042 0.022319,0.67856 0.1368429,0.861152 0.1145239,0.182592 0.247064,1.230917 0.2945335,2.32961 0.047469,1.098693 0.1591558,2.070471 0.2481919,2.159507 0.3116034,0.311603 0.1689668,0.902924 -0.1688454,0.699974 -0.2534177,-0.152249 -0.2609076,-0.109512 -0.032041,0.182822 0.2068379,0.264197 0.2371654,1.113782 0.098622,2.762768 -0.1100365,1.309688 -0.1288282,2.500312 -0.041759,2.645833 0.087069,0.145521 0.1917752,0.502709 0.2326807,0.79375 0.040906,0.291042 0.1844721,0.767292 0.3190369,1.058334 0.1345648,0.291041 0.3035008,0.70776 0.3754134,0.926041 0.071913,0.218281 0.1401498,0.01695 0.1516383,-0.447406 0.011489,-0.464354 -0.1088669,-0.924474 -0.2674565,-1.022487 -0.180762,-0.111717 -0.2191912,-0.537092 -0.1029986,-1.140094 0.290675,-1.508511 0.380829,-10.619179 0.1050813,-10.619179 -0.2864476,0 -0.330719,-1.940658 -0.05066,-2.220716 0.1057344,-0.105735 0.1663417,-1.703157 0.1346828,-3.549827 -0.031659,-1.84667 0.041999,-4.7268 0.163684,-6.400289 0.2181263,-2.999811 0.2368971,-3.06509 1.3314082,-4.630209 1.8158476,-2.596608 2.419138,-3.558005 2.705752,-4.311857 0.149358,-0.392842 0.42801571,-0.893069 0.61923938,-1.111616 0.51579079,-0.589492 2.09235082,-4.292841 2.05825292,-4.834849 -0.016219,-0.257806 0.057105,-0.415221 0.1629408,-0.349811 0.1058361,0.06541 0.3411461,-0.217047 0.522911,-0.627682 0.1817649,-0.410636 0.6832784,-0.892743 1.1144745,-1.07135 0.431196,-0.178608 0.7988755,-0.429359 0.8170657,-0.557225 0.01819,-0.127866 0.047956,-0.345593 0.066146,-0.483838 0.01819,-0.138245 0.1994245,-0.406135 0.402743,-0.595313 0.3101622,-0.288589 0.3398613,-0.258775 0.1844939,0.185209 -0.1018469,0.291041 0.2659228,0.01379 0.817266,-0.616108 0.6304655,-0.720298 1.017162,-1.43796 1.0421109,-1.934033 l 0.039669,-0.788758 -0.4195612,0.611116 c -0.2307587,0.336114 -0.6339027,0.766696 -0.8958756,0.956848 -0.516868,0.375168 -0.6713528,0.996663 -0.1708508,0.687336 0.1951962,-0.120638 0.2333874,-0.07217 0.1057975,0.13428 -0.1098165,0.177687 -0.2695406,0.253192 -0.3549427,0.16779 -0.085402,-0.0854 -0.6092608,0.288028 -1.1641307,0.829844 -0.5548699,0.541816 -1.0088544,0.893738 -1.0088544,0.78205 0,-0.111689 0.3274219,-0.481508 0.7276042,-0.821821 0.4001822,-0.340314 1.3229166,-1.462341 2.0505207,-2.493394 2.136598,-3.027672 3.2738101,-2.152273 1.2124892,0.933346 -1.0469196,1.567148 -1.3764941,1.906429 -3.3783338,3.477831 -0.6881497,0.540183 -1.225665,1.23965 -1.4232601,1.852083 -0.612215,1.897522 -2.9509571,6.303027 -4.8766456,9.186172 L -5.11089,44.171486 -5.134252,59.113662 c -0.024869,15.906593 -0.040885,16.106609 -1.2206882,15.24449 z M -14.148111,46.420442 c 0.338234,-0.218584 0.232469,-0.390644 -0.12198,-0.198437 -0.06709,0.03638 -0.494108,-0.43987 -0.948931,-1.058334 -0.502961,-0.68392 -1.037998,-1.124479 -1.365625,-1.124479 -0.615068,0 -0.481129,0.245699 0.969001,1.777537 0.903436,0.95434 0.916599,0.959755 1.467535,0.603713 z"
       id="path9992" />
    <path
       style="fill:#141728;stroke-width:1.28566"
       d="m -6.3959089,14.670444 c 0,-0.800365 0.0496,-1.127787 0.1102229,-0.727604 0.060623,0.400182 0.060623,1.055026 0,1.455208 -0.060623,0.400182 -0.1102229,0.07276 -0.1102229,-0.727604 z"
       id="path9910" />
    <path
       style="fill:#141728;stroke-width:1.28566"
       d="m -5.3202278,15.861069 c 6.889e-4,-1.455208 0.04512,-2.016764 0.098736,-1.247902 0.053616,0.768863 0.053052,1.959488 -0.00125,2.645834 -0.054305,0.686345 -0.098172,0.05728 -0.097483,-1.397932 z"
       id="path9908" />
    <path
       style="fill:#141728;stroke-width:1.28566"
       d="m -6.7357268,19.646996 c 0.00296,-0.833592 0.073003,-1.033399 0.2605318,-0.743219 0.3356251,0.519343 0.3356251,1.512364 0,1.719792 -0.1609587,0.09948 -0.2629966,-0.282999 -0.2605318,-0.976573 z"
       id="path9906" />
    <path
       style="fill:#141728;stroke-width:1.28566"
       d="m -2.3224533,20.097724 c 0.2420078,-0.507495 0.4869857,-0.875747 0.5443955,-0.818337 0.1210364,0.121036 -0.6821483,1.741057 -0.863193,1.741057 -0.066669,0 0.07679,-0.415224 0.3187975,-0.92272 z"
       id="path9905" />
    <path
       style="fill:#141728;stroke-width:1.28566"
       d="M 4.6692844,20.75586 C 4.6388776,20.053369 4.567286,19.925626 4.3727211,20.226694 c -0.1541091,0.238466 -0.2580974,0.2711 -0.2605318,0.08176 -0.00638,-0.496353 0.5124897,-0.687107 0.680199,-0.250064 0.083241,0.216922 0.098614,0.670952 0.034163,1.008957 -0.083477,0.437783 -0.1287132,0.348187 -0.1572669,-0.311487 z"
       id="path9902" />
    <path
       style="fill:#141728;stroke-width:1.28566"
       d="m -3.5647785,22.409545 c 0,-0.126296 0.1726719,-0.460745 0.3837154,-0.743219 0.370197,-0.495497 0.3783933,-0.492472 0.2326464,0.08584 -0.1505121,0.597226 -0.6163618,1.094072 -0.6163618,0.657374 z"
       id="path9900" />
    <path
       style="fill:#141728;stroke-width:1.28566"
       d="m -15.56472,21.588169 c -0.385032,-0.857966 -0.694594,-1.664111 -0.687916,-1.791435 0.0067,-0.127324 0.36501,0.53134 0.796294,1.463699 0.431285,0.932359 0.740847,1.738505 0.687917,1.791435 -0.05293,0.05293 -0.411263,-0.605734 -0.796295,-1.463699 z"
       id="path9899" />
    <path
       style="fill:#141728;stroke-width:1.28566"
       d="m -13.396141,23.070964 c -0.774817,-1.419341 -2.30998,-4.696354 -2.200073,-4.696354 0.0662,0 0.717845,1.190625 1.448103,2.645834 0.730257,1.455208 1.271313,2.645833 1.202346,2.645833 -0.06897,0 -0.271636,-0.267891 -0.450376,-0.595313 z"
       id="path9898" />
    <path
       style="fill:#141728;stroke-width:1.28566"
       d="m -5.2754187,22.740235 c 0.2483046,-1.720337 0.4819163,-1.955337 0.324022,-0.325948 -0.067237,0.693853 -0.2106103,1.348697 -0.3186071,1.455208 -0.1079968,0.106511 -0.1104335,-0.401656 -0.00541,-1.12926 z"
       id="path9895" />
    <path
       style="fill:#141728;stroke-width:1.28566"
       d="m -4.3827982,23.711625 c 0.4261518,-0.796272 0.8584354,-0.994448 0.5907492,-0.270823 -0.1210777,0.327304 -0.3691602,0.644771 -0.5512945,0.705482 -0.2547883,0.08493 -0.2638866,-0.0153 -0.039455,-0.434659 z"
       id="path9893" />
    <path
       style="fill:#141728;stroke-width:1.28566"
       d="m -2.9971368,24.075622 c 0.093922,-0.15238 0.4955792,-0.872366 0.8925722,-1.59997 0.3969929,-0.727604 0.8389553,-1.441979 0.9821385,-1.5875 0.46056289,-0.468082 -1.0458351,2.366488 -1.5546746,2.925411 -0.2699415,0.296511 -0.4139578,0.414438 -0.3200361,0.262059 z"
       id="path9891" />
    <path
       style="fill:#141728;stroke-width:1.28566"
       d="m 5.6956377,25.253777 c 0.7263069,-1.020004 0.8983978,-1.020908 0.3184233,-0.0017 -0.2478933,0.435642 -0.5481193,0.79283 -0.6671691,0.79375 -0.1190497,9.2e-4 0.037886,-0.355515 0.3487458,-0.792077 z"
       id="path9885" />
    <path
       style="fill:#141728;stroke-width:1.28566"
       d="m -4.6836589,25.921745 c 0.2515822,-0.505743 0.6123095,-0.922462 0.8016162,-0.926042 0.2112258,-0.004 0.071328,0.351237 -0.3621322,0.919532 -0.8931347,1.17096 -1.0196733,1.172834 -0.439484,0.0065 z"
       id="path9881" />
    <path
       style="fill:#141728;stroke-width:1.28566"
       d="m 3.0697839,26.841277 c 0.00214,-0.218282 0.1722195,-0.754063 0.377958,-1.190625 l 0.3740699,-0.79375 -0.1571249,0.79375 c -0.196706,0.993702 -0.6008989,1.802644 -0.594903,1.190625 z"
       id="path9880" />
    <path
       style="fill:#141728;stroke-width:1.28566"
       d="m -10.04707,27.675259 c -0.440648,-0.584312 -0.534587,-1.144286 -0.561567,-3.347524 l -0.0324,-2.645833 0.164692,2.527368 c 0.11647,1.787349 0.306456,2.743085 0.6488546,3.264102 0.6298303,0.958393 0.4651268,1.109826 -0.2195796,0.201887 z"
       id="path9878" />
    <path
       style="fill:#141728;stroke-width:1.28566"
       d="m 4.6172791,28.605967 c 0.6740375,-0.742262 0.8191128,-0.833746 0.8054608,-0.50792 -0.00457,0.109141 -0.3319949,0.427002 -0.7276042,0.706358 l -0.7192896,0.50792 z"
       id="path9875" />
    <path
       style="fill:#141728;stroke-width:1.28566"
       d="m -5.6814451,28.164193 c 0,-0.582083 0.1190625,-1.058333 0.2645834,-1.058333 0.1455208,0 0.2645833,0.47625 0.2645833,1.058333 0,0.582083 -0.1190625,1.058333 -0.2645833,1.058333 -0.1455209,0 -0.2645834,-0.47625 -0.2645834,-1.058333 z"
       id="path9874" />
    <path
       style="fill:#141728;stroke-width:1.28566"
       d="m -11.38855,27.953709 c -1.072328,-1.262904 -2.764358,-3.563589 -3.153175,-4.287432 -0.401209,-0.746914 0.28914,0.09803 1.567254,1.918229 0.689732,0.982265 1.340279,1.785937 1.44566,1.785937 0.238552,0 1.432906,1.592238 1.2966,1.728544 -0.0547,0.0547 -0.575048,-0.46068 -1.156339,-1.145278 z"
       id="path9873" />
    <path
       style="fill:#141728;stroke-width:1.28566"
       d="m 21.901944,28.561068 c 0.0029,-0.582083 0.05712,-0.789054 0.120406,-0.459936 0.06329,0.329119 0.06088,0.805369 -0.0053,1.058333 -0.06622,0.252965 -0.118003,-0.01631 -0.115066,-0.598397 z"
       id="path9872" />
    <path
       style="fill:#141728;stroke-width:1.28566"
       d="m 25.938024,29.665692 c 0.431901,-0.759217 1.034232,-0.733322 1.144967,0.04922 0.05413,0.382509 -0.01832,0.558723 -0.186882,0.454547 -0.151403,-0.09357 -0.208209,-0.344912 -0.126235,-0.558533 0.214811,-0.559786 -0.302944,-0.47803 -0.765704,0.120909 -0.370917,0.480068 -0.374715,0.47627 -0.06615,-0.06614 z"
       id="path9868" />
    <path
       style="fill:#141728;stroke-width:1.28566"
       d="m 0.78886198,30.148568 c 0.18744357,-0.452125 1.33011052,-4.406183 2.28242842,-7.898061 0.1528323,-0.560392 0.3340728,-0.962699 0.4027567,-0.894015 0.068684,0.06868 -0.2878308,1.598749 -0.792255,3.400145 -0.5044243,1.801395 -0.9976191,3.717507 -1.0959885,4.258025 -0.098369,0.540519 -0.3672847,1.135831 -0.59758941,1.322917 -0.36312313,0.294979 -0.3895993,0.269877 -0.19935221,-0.189011 z"
       id="path9867" />
    <path
       style="fill:#141728;stroke-width:1.28566"
       d="m -6.5791792,30.126928 c -0.1938142,-0.505071 -0.2180711,-9.252151 -0.025123,-9.059202 0.1139984,0.113998 0.3348774,9.478168 0.22356,9.477831 -0.020811,-6.3e-5 -0.110108,-0.188446 -0.198437,-0.418629 z"
       id="path9866" />
    <path
       style="fill:#141728;stroke-width:1.28566"
       d="m -7.7981116,30.199368 c -0.9433906,-1.148836 -1.3729756,-1.770592 -1.2233416,-1.770592 0.1996856,0 2.1057209,2.382533 1.9883238,2.485393 -0.056938,0.04989 -0.4011802,-0.271773 -0.7649822,-0.714801 z"
       id="path9865" />
    <path
       style="fill:#141728;stroke-width:1.28566"
       d="m 1.7268879,31.382283 c 0,-0.273926 1.3593211,-1.68238 1.4938527,-1.547848 0.064566,0.06457 -0.2451382,0.479922 -0.6882304,0.923014 -0.4430923,0.443092 -0.8056223,0.724267 -0.8056223,0.624834 z"
       id="path9864" />
    <path
       style="fill:#141728;stroke-width:1.28566"
       d="m 30.38464,32.045158 c 0.100006,-0.266564 0.18183,-0.534454 0.18183,-0.595313 0,-0.06086 0.178593,-0.110652 0.396875,-0.110652 0.241374,0 0.38869,0.233251 0.375987,0.595312 -0.01149,0.327422 -0.0826,0.441515 -0.158022,0.253541 -0.11207,-0.279308 -0.21402,-0.279308 -0.557816,0 -0.361068,0.293339 -0.394916,0.273089 -0.238854,-0.142888 z"
       id="path9861" />
    <path
       style="fill:#141728;stroke-width:1.28566"
       d="m 24.665613,31.934505 c 0.190502,-0.525188 0.873774,-1.585779 0.873774,-1.356292 0,0.230536 -0.818369,1.819313 -0.937117,1.819313 -0.05754,0 -0.02903,-0.208359 0.06334,-0.463021 z"
       id="path9860" />
    <path
       style="fill:#141728;stroke-width:1.28566"
       d="m -8.0626949,32.051451 c -0.3638021,-0.443028 -0.8328545,-1.045232 -1.0423387,-1.33823 -0.3795267,-0.53083 -0.3784435,-0.5309 0.3048157,-0.01952 0.3771328,0.282261 0.6367369,0.563901 0.5768979,0.625865 -0.059839,0.06197 0.150729,0.388917 0.4679289,0.726561 0.3171999,0.337644 0.5266483,0.658208 0.4654408,0.712365 -0.061208,0.05416 -0.4089426,-0.26401 -0.7727446,-0.707039 z"
       id="path9857" />
    <path
       style="fill:#141728;stroke-width:1.28566"
       d="m -5.6093821,32.397526 c 0,-0.654843 0.051598,-0.922734 0.1146622,-0.595312 0.063064,0.327422 0.063064,0.863203 0,1.190625 -0.063064,0.327422 -0.1146622,0.05953 -0.1146622,-0.595313 z"
       id="path9856" />
    <path
       style="fill:#141728;stroke-width:1.28566"
       d="m 15.206686,33.02229 c -0.145991,-0.383984 -0.216341,-0.747249 -0.156334,-0.807256 0.06001,-0.06001 0.235738,0.254162 0.390514,0.698153 0.344063,0.98698 0.136376,1.083741 -0.23418,0.109103 z"
       id="path9854" />
    <path
       style="fill:#141728;stroke-width:1.28566"
       d="m 24.770601,34.911068 c 0,-0.145521 0.345954,-0.919427 0.768786,-1.719792 0.422831,-0.800364 0.768785,-1.336146 0.768785,-1.190625 0,0.145521 -0.345954,0.919427 -0.768785,1.719792 -0.422832,0.800364 -0.768786,1.336146 -0.768786,1.190625 z"
       id="path9852" />
    <path
       style="fill:#141728;stroke-width:1.28566"
       d="m 14.469866,34.635153 c -0.169159,-0.371264 -0.302902,-0.818252 -0.297206,-0.993305 0.0057,-0.175054 0.186117,0.08669 0.400936,0.581652 0.452143,1.041778 0.356434,1.421602 -0.10373,0.411653 z"
       id="path9851" />
    <path
       style="fill:#141728;stroke-width:1.28566"
       d="m 30.543939,34.905028 c 0.141038,-0.43324 0.31913,-1.025835 0.395761,-1.316877 0.07663,-0.291041 0.08786,-0.06319 0.02495,0.506331 -0.06291,0.569524 -0.241002,1.162119 -0.395761,1.316878 -0.198783,0.198783 -0.206106,0.05015 -0.02495,-0.506332 z"
       id="path9849" />
    <path
       style="fill:#141728;stroke-width:1.28566"
       d="m 21.927669,33.45586 c 0,-1.236927 0.04558,-1.742943 0.10128,-1.12448 0.0557,0.618464 0.0557,1.630495 0,2.248959 -0.0557,0.618463 -0.10128,0.112448 -0.10128,-1.124479 z"
       id="path9848" />
    <path
       style="fill:#141728;stroke-width:1.28566"
       d="m -0.89326985,37.292318 c 0,-0.145521 0.40516477,-1.03849 0.90036616,-1.984375 0.49520138,-0.945886 0.90036615,-1.600729 0.90036615,-1.455208 0,0.14552 -0.40516477,1.038489 -0.90036615,1.984374 -0.49520139,0.945886 -0.90036616,1.600729 -0.90036616,1.455209 z"
       id="path9846" />
    <path
       style="fill:#141728;stroke-width:1.28566"
       d="m 15.389008,36.727071 c -0.250599,-0.525511 -0.397975,-1.013135 -0.327502,-1.083608 0.07047,-0.07047 0.315263,0.319736 0.54398,0.867131 0.539739,1.291779 0.374903,1.456615 -0.216478,0.216477 z"
       id="path9845" />
    <path
       style="fill:#141728;stroke-width:1.28566"
       d="m -2.7709583,37.652292 c 0.4608615,-0.780069 1.2810612,-2.370808 1.82266588,-3.534974 1.71809973,-3.693015 1.65183981,-3.580309 1.48791846,-2.530903 -0.0780667,0.499774 -0.31911912,1.104462 -0.53567207,1.34375 -0.21655296,0.239288 -0.3977726,0.544757 -0.40271032,0.67882 -0.0206555,0.560811 -2.50470565,5.025638 -2.94874575,5.30007 -0.1437624,0.08885 0.1156824,-0.476693 0.5765438,-1.256763 z"
       id="path9844" />
    <path
       style="fill:#141728;stroke-width:1.28566"
       d="m -6.6508238,37.424609 c 0,-1.091406 0.046704,-1.53789 0.103786,-0.992187 0.057082,0.545703 0.057082,1.438672 0,1.984375 -0.057082,0.545703 -0.103786,0.09922 -0.103786,-0.992188 z"
       id="path9843" />
    <path
       style="fill:#141728;stroke-width:1.28566"
       d="m 22.161188,38.747526 c 0,-0.509323 0.05445,-0.717682 0.121,-0.463021 0.06655,0.254662 0.06655,0.67138 0,0.926042 -0.06655,0.254661 -0.121,0.0463 -0.121,-0.463021 z"
       id="path9842" />
    <path
       style="fill:#141728;stroke-width:1.28566"
       d="m 31.65365,38.102475 c 1.039237,-1.657482 1.827393,-2.567008 1.819185,-2.099325 -0.0059,0.334628 -0.515767,1.074767 -0.523578,0.760001 -0.0036,-0.145521 -0.478658,0.479557 -1.05566,1.389062 -0.577003,0.909506 -1.107341,1.653646 -1.17853,1.653646 -0.07119,0 0.351173,-0.766523 0.938583,-1.703384 z"
       id="path9841" />
    <path
       style="fill:#141728;stroke-width:1.28566"
       d="m 20.730585,38.747526 c -0.02547,-0.582083 -0.06714,-1.419532 -0.0926,-1.860997 -0.02547,-0.441464 0.02529,-0.84691 0.112795,-0.90099 0.0875,-0.05408 0.186628,0.783368 0.220276,1.860996 0.03365,1.077628 0.0037,1.959324 -0.06649,1.959324 -0.07022,0 -0.148508,-0.47625 -0.173974,-1.058333 z"
       id="path9840" />
    <path
       style="fill:#141728;stroke-width:1.28566"
       d="m -15.182392,38.988056 c -0.178922,-0.597189 -0.276605,-1.134505 -0.217074,-1.194036 0.05953,-0.05953 0.25463,0.38037 0.433552,0.977559 0.178922,0.597189 0.276605,1.134505 0.217074,1.194037 -0.05953,0.05953 -0.254629,-0.380371 -0.433552,-0.97756 z"
       id="path9839" />
    <path
       style="fill:#141728;stroke-width:1.28566"
       d="m -5.3030257,40.51463 c -0.073777,-0.192259 -0.098947,-1.531712 -0.055935,-2.976562 l 0.078205,-2.627 0.1303844,2.977101 c 0.071712,1.637406 0.096882,2.976859 0.055935,2.976563 -0.040947,-2.97e-4 -0.1348125,-0.157842 -0.2085894,-0.350102 z"
       id="path9836" />
    <path
       style="fill:#141728;stroke-width:1.28566"
       d="m 27.397281,41.177528 c -0.0032,-0.191468 0.133297,-0.608049 0.303317,-0.925736 0.170021,-0.317686 0.578249,-1.53025 0.907174,-2.694585 0.667441,-2.362619 0.858499,-2.2591 0.239484,0.129757 -0.42028,1.621911 -1.440184,4.077154 -1.449975,3.490564 z"
       id="path9834" />
    <path
       style="fill:#141728;stroke-width:1.28566"
       d="m 17.543676,40.806304 c -0.516345,-0.79004 -1.645,-3.032447 -1.419706,-2.820666 0.341417,0.320939 2.014418,3.223998 1.915158,3.323258 -0.05554,0.05554 -0.278491,-0.170629 -0.495452,-0.502592 z"
       id="path9833" />
    <path
       style="fill:#141728;stroke-width:1.28566"
       d="m 18.844137,40.136588 c -1.171139,-1.773072 -2.565167,-4.356431 -2.565167,-4.75367 0,-0.11396 0.653403,0.975391 1.452007,2.42078 0.798604,1.445389 1.773379,2.963421 2.166168,3.373404 0.392788,0.409983 0.581966,0.745424 0.420395,0.745424 -0.161571,0 -0.824602,-0.803672 -1.473403,-1.785938 z"
       id="path9829" />
    <path
       style="fill:#141728;stroke-width:1.28566"
       d="m -3.6440715,41.587711 c 1.4711584,-2.327981 2.5315402,-3.898518 2.6321671,-3.898518 0.14432443,0 0.0973906,0.08141 -1.4108926,2.447395 -0.6261817,0.982266 -1.2047402,1.785938 -1.2856857,1.785938 -0.080945,0 -0.05196,-0.150667 0.064411,-0.334815 z"
       id="path9828" />
    <path
       style="fill:#141728;stroke-width:1.28566"
       d="m 30.730524,41.025722 c 0.564614,-0.638763 1.205164,-1.240627 1.423446,-1.337475 0.218281,-0.09685 -0.193962,0.425775 -0.916096,1.161387 -1.615696,1.64585 -1.890941,1.741381 -0.50735,0.176088 z"
       id="path9826" />
    <path
       style="fill:#141728;stroke-width:1.28566"
       d="m 21.914506,42.716276 c 0,-0.800365 0.0496,-1.127787 0.110223,-0.727604 0.06062,0.400182 0.06062,1.055026 0,1.455208 -0.06062,0.400182 -0.110223,0.07276 -0.110223,-0.727604 z"
       id="path9819" />
    <path
       style="fill:#141728;stroke-width:1.28566"
       d="m 19.353885,42.980859 c -0.55158,-0.582083 -0.893697,-1.058333 -0.760259,-1.058333 0.133438,0 0.625339,0.47625 1.093114,1.058333 0.467775,0.582083 0.809891,1.058333 0.760259,1.058333 -0.04963,0 -0.541534,-0.47625 -1.093114,-1.058333 z"
       id="path9818" />
    <path
       style="fill:#141728;stroke-width:1.28566"
       d="m -17.120507,44.634505 c -0.516791,-0.585654 -0.17274,-1.727108 0.448698,-1.48864 0.223867,0.08591 0.407031,0.215724 0.407031,0.288484 0,0.07276 -0.178594,0.06376 -0.396875,-0.02 -0.49228,-0.188905 -0.554991,0.890064 -0.07937,1.365681 0.174625,0.174625 0.25261,0.3175 0.173299,0.3175 -0.07931,0 -0.328061,-0.20836 -0.552778,-0.463021 z"
       id="path9813" />
    <path
       style="fill:#141728;stroke-width:1.28566"
       d="m -15.127546,45.037774 c -0.600132,-0.774897 -0.637099,-1.089144 -0.06386,-0.54291 0.339365,0.323379 0.551311,0.653678 0.470991,0.733998 -0.08032,0.08032 -0.263526,-0.0057 -0.407126,-0.191088 z"
       id="path9812" />
    <path
       style="fill:#141728;stroke-width:1.28566"
       d="m -12.137278,44.145026 c -0.255767,-0.811386 -0.417406,-1.522872 -0.359197,-1.581081 0.05821,-0.05821 0.315097,0.558028 0.570864,1.369414 0.255766,0.811386 0.417405,1.522872 0.359197,1.58108 -0.05821,0.05821 -0.315097,-0.558027 -0.570864,-1.369413 z"
       id="path9811" />
    <path
       style="fill:#141728;stroke-width:1.28566"
       d="m 25.554628,46.248277 c -0.0084,-0.167451 0.281252,-0.941358 0.643632,-1.719792 0.362381,-0.778434 0.660037,-1.281775 0.661459,-1.118536 0.0036,0.410575 -1.286204,3.215603 -1.305091,2.838328 z"
       id="path9808" />
    <path
       style="fill:#141728;stroke-width:1.28566"
       d="m -15.389863,46.486588 c -0.574873,-0.545703 -0.803248,-0.813594 -0.5075,-0.595312 0.865127,0.638519 1.889984,1.587499 1.71443,1.587499 -0.08894,0 -0.632057,-0.446484 -1.20693,-0.992187 z"
       id="path9804" />
    <path
       style="fill:#141728;stroke-width:1.28566"
       d="m 13.598678,47.015755 c -0.750325,-1.909246 -1.277007,-3.605374 -1.156851,-3.72553 0.07314,-0.07314 0.132977,-0.06172 0.132977,0.02536 0,0.08709 0.354193,1.118962 0.787095,2.293056 0.432902,1.174094 0.727611,2.134716 0.654909,2.134716 -0.0727,0 -0.26086,-0.327422 -0.41813,-0.727604 z"
       id="path9802" />
    <path
       style="fill:#141728;stroke-width:1.28566"
       d="m 15.078758,46.883463 c -0.355686,-0.763984 -0.639475,-1.567656 -0.630643,-1.785937 0.0088,-0.218282 0.173598,0.03103 0.366147,0.554029 0.192549,0.522997 0.544405,1.326669 0.781902,1.785937 0.237497,0.459268 0.363746,0.835033 0.280554,0.835033 -0.08319,0 -0.442274,-0.625078 -0.79796,-1.389062 z"
       id="path9800" />
    <path
       style="fill:#141728;stroke-width:1.28566"
       d="m 25.671678,48.801689 c 0.225756,-0.436562 0.469996,-0.79375 0.542756,-0.79375 0.07276,0 -0.05242,0.357188 -0.278172,0.79375 -0.225756,0.436563 -0.469996,0.79375 -0.542756,0.79375 -0.07276,0 0.05242,-0.357187 0.278172,-0.79375 z"
       id="path9796" />
    <path
       style="fill:#141728;stroke-width:1.28566"
       d="m -12.626757,48.768469 c -0.545703,-0.538145 -0.992188,-1.067026 -0.992188,-1.175292 0,-0.108266 0.497911,0.296136 1.106469,0.898671 0.608558,0.602534 1.055043,1.131416 0.992188,1.175291 -0.06285,0.04388 -0.560766,-0.360526 -1.106469,-0.89867 z"
       id="path9795" />
    <path
       style="fill:#141728;stroke-width:1.28566"
       d="m 23.389346,49.992317 c 0.383642,-0.783272 1.073814,-1.627134 1.081978,-1.322917 0.0039,0.145521 -0.296258,0.621771 -0.66703,1.058334 -0.370772,0.436562 -0.557498,0.555625 -0.414948,0.264583 z"
       id="path9790" />
    <path
       style="fill:#141728;stroke-width:1.28566"
       d="m 21.907283,49.330859 c 0,-0.654844 0.0516,-0.922735 0.114662,-0.595313 0.06307,0.327422 0.06307,0.863203 0,1.190625 -0.06306,0.327422 -0.114662,0.05953 -0.114662,-0.595312 z"
       id="path9789" />
    <path
       style="fill:#141728;stroke-width:1.28566"
       d="m 15.39086,50.973173 c -0.330108,-0.725746 -0.343795,-0.843225 -0.05263,-0.451689 0.216437,0.291041 0.515459,0.6717 0.664494,0.845909 0.149035,0.174208 0.172716,0.377468 0.05262,0.451689 -0.120091,0.07422 -0.419114,-0.306438 -0.664493,-0.845909 z"
       id="path9781" />
    <path
       style="fill:#141728;stroke-width:1.28566"
       d="m 17.05964,51.157302 c -0.304151,-0.596185 -0.50762,-1.129354 -0.452154,-1.18482 0.05547,-0.05547 0.35988,0.432322 0.676477,1.083973 0.721067,1.484174 0.526111,1.571819 -0.224323,0.100847 z"
       id="path9780" />
    <path
       style="fill:#141728;stroke-width:1.28566"
       d="m -8.5424,53.652998 c -0.30718,-0.578273 -2.561867,-6.313654 -2.817252,-7.16641 -0.368744,-1.231273 0.09854,-0.536931 0.534188,0.79375 0.250117,0.763984 0.9720629,2.571763 1.6043248,4.017286 0.6322619,1.445522 1.1016797,2.67611 1.0431506,2.734639 -0.058529,0.05853 -0.2225141,-0.11214 -0.3644114,-0.379265 z"
       id="path9771" />
    <path
       style="fill:#141728;stroke-width:1.28566"
       d="m -5.3447987,53.564192 c 0,-0.654844 0.051598,-0.922735 0.1146621,-0.595313 0.063064,0.327422 0.063064,0.863203 0,1.190625 -0.063064,0.327422 -0.1146621,0.05953 -0.1146621,-0.595312 z"
       id="path9766" />
    <path
       style="fill:#141728;stroke-width:1.28566"
       d="m 20.59159,54.093354 c 0,-0.800364 0.0496,-1.127786 0.110223,-0.727604 0.06062,0.400183 0.06062,1.055026 0,1.455209 -0.06062,0.400182 -0.110223,0.07276 -0.110223,-0.727605 z"
       id="path9763" />
    <path
       style="fill:#141728;stroke-width:1.28566"
       d="m -9.9002834,54.033444 c -0.8463096,-2.000076 -0.9213996,-2.255133 -0.4886736,-1.659877 0.4638025,0.638006 1.3326789,2.801569 1.1845744,2.949674 -0.058024,0.05802 -0.3711793,-0.522385 -0.6959008,-1.289797 z"
       id="path9762" />
    <path
       style="fill:#141728;stroke-width:1.28566"
       d="m 17.080555,54.291796 c -0.43814,-0.763984 -0.797736,-1.478359 -0.799102,-1.5875 -0.0063,-0.500236 0.316446,-0.07569 1.055851,1.389062 0.987948,1.957116 0.824355,2.083555 -0.256749,0.198438 z"
       id="path9760" />
    <path
       style="fill:#141728;stroke-width:1.28566"
       d="m -6.5702709,55.09604 c -0.089255,-0.333194 -0.1388178,-3.582369 -0.1101394,-7.22039 l 0.052142,-6.614583 0.1426823,7.14375 c 0.078475,3.929062 0.128038,7.178238 0.1101394,7.22039 -0.017899,0.04215 -0.1055696,-0.195973 -0.1948243,-0.529167 z"
       id="path9759" />
    <path
       style="fill:#141728;stroke-width:1.28566"
       d="m -7.729192,55.228463 c -0.1803755,-0.384824 -0.2793188,-0.748316 -0.2198741,-0.807761 0.1591056,-0.159106 0.7287,0.983609 0.6311345,1.266176 -0.045818,0.132696 -0.230885,-0.07359 -0.4112604,-0.458415 z"
       id="path9757" />
    <path
       style="fill:#141728;stroke-width:1.28566"
       d="m 19.02568,57.466796 c -0.107215,-0.181901 -0.382133,-0.623781 -0.610927,-0.981955 -0.258755,-0.405075 -0.290271,-0.573746 -0.08338,-0.446243 0.342295,0.210951 1.233554,1.758927 1.012715,1.758927 -0.06791,0 -0.211193,-0.148828 -0.318408,-0.330729 z"
       id="path9748" />
    <path
       style="fill:#141728;stroke-width:1.28566"
       d="m 22.171866,57.797525 c 0,-0.654844 0.0516,-0.922734 0.114663,-0.595313 0.06306,0.327422 0.06306,0.863204 0,1.190625 -0.06307,0.327422 -0.114663,0.05953 -0.114663,-0.595312 z"
       id="path9739" />
    <path
       style="fill:#141728;stroke-width:1.28566"
       d="m -5.3501382,59.7819 c 0.00294,-0.582083 0.057119,-0.789055 0.1204059,-0.459936 0.063287,0.329118 0.060884,0.805368 -0.00534,1.058333 -0.066223,0.252965 -0.1180031,-0.01631 -0.1150659,-0.598397 z"
       id="path9725" />
    <path
       style="fill:#141728;stroke-width:1.28566"
       d="m 22.166527,61.898566 c 0.0029,-0.582083 0.05712,-0.789054 0.120406,-0.459936 0.06329,0.329119 0.06088,0.805369 -0.0053,1.058334 -0.06622,0.252964 -0.118003,-0.01631 -0.115066,-0.598398 z"
       id="path9712" />
    <path
       style="fill:#141728;stroke-width:1.28566"
       d="m 20.856173,62.295441 c 0,-0.800364 0.0496,-1.127786 0.110223,-0.727604 0.06062,0.400183 0.06062,1.055026 0,1.455208 -0.06062,0.400183 -0.110223,0.07276 -0.110223,-0.727604 z"
       id="path9707" />
    <path
       style="fill:#141728;stroke-width:1.28566"
       d="m 22.17909,64.412108 c 0,-0.800365 0.0496,-1.127786 0.110222,-0.727604 0.06062,0.400182 0.06062,1.055026 0,1.455208 -0.06062,0.400182 -0.110222,0.07276 -0.110222,-0.727604 z"
       id="path9697" />
    <path
       style="fill:#141728;stroke-width:1.28566"
       d="m -6.9463264,63.031093 c -0.061261,-3.831731 -0.053797,-3.803123 -1.6932452,-6.490339 -0.2885383,-0.472943 -0.4606903,-0.859896 -0.3825599,-0.859896 0.07813,0 0.6270928,0.81644 1.2199166,1.81431 l 1.0778613,1.814309 -0.081969,3.675794 -0.081969,3.675795 z"
       id="path9693" />
    <path
       style="fill:#141728;stroke-width:1.28566"
       d="m 22.166527,68.248566 c 0.0029,-0.582083 0.05712,-0.789054 0.120406,-0.459936 0.06329,0.329119 0.06088,0.805369 -0.0053,1.058333 -0.06622,0.252965 -0.118003,-0.01631 -0.115066,-0.598397 z"
       id="path9672" />
    <path
       style="fill:#141728;stroke-width:1.28566"
       d="m -6.9136598,69.306899 c 9.611e-4,-1.164166 0.047477,-1.607503 0.1033691,-0.985193 0.055892,0.62231 0.055106,1.57481 -0.00175,2.116666 -0.056853,0.541857 -0.1025828,0.03269 -0.1016218,-1.131473 z"
       id="path9660" />
    <path
       style="fill:#141728;stroke-width:1.28566"
       d="m 22.190505,71.423566 c 9.61e-4,-1.164167 0.04748,-1.607504 0.103369,-0.985194 0.05589,0.62231 0.05511,1.57481 -0.0017,2.116667 -0.05685,0.541856 -0.102583,0.03269 -0.101622,-1.131473 z"
       id="path9648" />
    <path
       style="fill:#141728;stroke-width:1.28566"
       d="m -5.4175437,69.757347 0.1316098,-4.683781 0.073435,4.47808 c 0.040389,2.462944 -0.018835,4.570645 -0.1316097,4.683781 -0.1127747,0.113135 -0.1458204,-1.902001 -0.073435,-4.47808 z"
       id="path9644" />
  </g>
</svg>
