<?xml version="1.0" encoding="UTF-8" standalone="no"?>
<!-- Created with Inkscape (http://www.inkscape.org/) -->

<svg
   width="185"
   height="185"
   viewBox="0 0 48.947914 48.947918"
   version="1.1"
   id="svg1"
   sodipodi:docname="plectranthus-ornatus-6.svg"
   inkscape:version="1.4 (e7c3feb100, 2024-10-09)"
   xmlns:inkscape="http://www.inkscape.org/namespaces/inkscape"
   xmlns:sodipodi="http://sodipodi.sourceforge.net/DTD/sodipodi-0.dtd"
   xmlns="http://www.w3.org/2000/svg"
   xmlns:svg="http://www.w3.org/2000/svg">
  <sodipodi:namedview
     id="namedview1"
     pagecolor="#ffffff"
     bordercolor="#666666"
     borderopacity="1.0"
     inkscape:showpageshadow="2"
     inkscape:pageopacity="0.0"
     inkscape:pagecheckerboard="0"
     inkscape:deskcolor="#d1d1d1"
     inkscape:document-units="mm"
     inkscape:zoom="1.8041143"
     inkscape:cx="153.53794"
     inkscape:cy="71.50323"
     inkscape:current-layer="layer1" />
  <defs
     id="defs1" />
  <g
     inkscape:label="Ebene 1"
     inkscape:groupmode="layer"
     id="layer1">
    <g
       id="g57"
       style="display:inline;stroke-width:1.51173"
       transform="matrix(0.66149456,0,0,0.66149456,-51.705477,-58.582178)">
      <path
         style="fill:#9471a7;stroke-width:1.51173"
         d="m 102.27091,162.17873 c -2.82262,-0.44433 -5.648726,-1.55573 -6.583045,-2.58886 -0.268498,-0.2969 -0.642948,-0.99001 -0.832113,-1.54025 -0.281979,-0.82022 -0.538415,-1.06527 -1.423548,-1.36031 -1.242434,-0.41415 -3.569598,-2.40111 -4.168374,-3.55902 -0.477133,-0.92267 -0.528495,-2.65526 -0.11106,-3.74631 0.24742,-0.64669 0.213856,-0.85496 -0.213194,-1.32292 -1.86168,-2.04004 -1.979747,-5.31814 -0.266406,-7.39671 1.552811,-1.88383 3.96423,-2.57875 6.67436,-1.92342 1.426128,0.34486 1.620294,0.3363 2.38125,-0.10494 1.036452,-0.60099 2.92155,-1.13017 4.1358,-1.16099 l 0.92605,-0.0235 0.13941,-2.64583 c 0.0767,-1.45521 0.28235,-2.90088 0.45705,-3.21261 0.43432,-0.77496 1.82676,-1.91402 2.56686,-2.09977 0.4764,-0.11957 0.64058,-0.38833 0.75406,-1.23442 0.46055,-3.4336 5.05542,-5.61474 8.30293,-3.94131 1.2074,0.62218 2.59652,2.0215 2.95729,2.97902 0.17127,0.45455 0.51823,0.74238 1.00842,0.83653 0.41102,0.0789 0.767,0.12429 0.79107,0.10076 0.0241,-0.0235 0.1683,-2.16085 0.32051,-4.7496 l 0.27675,-4.70682 -1.63289,-2.37221 -1.63288,-2.37222 -1.20117,1.17069 c -1.31188,1.27861 -1.73029,1.41902 -3.31783,1.11342 -2.20533,-0.42453 -2.88422,-1.66687 -1.71979,-3.1472 0.29104,-0.37 0.52916,-0.84773 0.52916,-1.06162 0,-0.64052 0.67991,-1.0215 1.46937,-0.82336 0.51397,0.129 0.67146,0.0937 0.53886,-0.1209 -0.10306,-0.16674 -0.34108,-0.30317 -0.52894,-0.30317 -0.18785,0 -0.83567,-0.35794 -1.43959,-0.79541 -0.93413,-0.67668 -1.09803,-0.93643 -1.09803,-1.74015 0,-1.92724 2.09883,-3.06388 3.91574,-2.1206 1.10515,0.57376 4.07173,3.80586 5.229,5.69702 l 1.04172,1.70233 0.20964,-2.54891 c 0.20066,-2.43977 0.17957,-2.60895 -0.49257,-3.95128 -0.38622,-0.77131 -1.17965,-2.02745 -1.76317,-2.79144 -0.94309,-1.23473 -1.16985,-1.38906 -2.041,-1.38906 -1.21566,0 -2.27793,-0.97109 -2.00454,-1.83248 0.19638,-0.61873 1.40797,-1.342521 2.24733,-1.342521 0.32586,0 1.36553,0.804781 2.56762,1.987531 1.11102,1.09314 2.08254,1.92502 2.15894,1.84862 0.0764,-0.0764 0.14727,-1.27875 0.15749,-2.67189 l 0.0186,-2.532977 -1.30634,-1.167725 c -0.71848,-0.642249 -1.38952,-1.167725 -1.4912,-1.167725 -0.10168,0 -0.37246,-0.395313 -0.60173,-0.878472 -0.53093,-1.118836 -0.24927,-2.290231 0.67564,-2.809955 0.59849,-0.336301 0.75502,-0.330851 1.33068,0.04633 0.35882,0.235107 0.86452,0.87448 1.12378,1.42083 0.43308,0.912648 0.4996,0.954771 0.81867,0.518413 0.19101,-0.261223 0.52425,-1.250715 0.74052,-2.198872 0.43139,-1.891232 1.66153,-3.506608 2.67035,-3.506608 0.67306,0 2.52192,1.478535 2.52192,2.016776 0,0.647546 -0.69068,1.782447 -2.22093,3.649317 -1.56645,1.91105 -1.90632,2.702074 -2.08428,4.851094 l -0.11503,1.389064 h 0.86467 c 0.72983,0 1.01365,-0.20295 1.82004,-1.301473 1.10621,-1.506959 2.51592,-2.807987 3.3186,-3.062748 0.77018,-0.244444 1.85652,0.509511 1.85652,1.288483 0,0.862525 -1.00341,2.256135 -2.30494,3.201298 -0.60627,0.44026 -1.10959,0.88978 -1.11848,0.99892 -0.009,0.10914 0.37079,0.20105 0.84373,0.20425 1.42083,0.01 3.04685,0.90455 3.54627,1.95184 0.52534,1.10165 0.31126,1.48879 -1.26907,2.29502 -1.70827,0.87149 -4.07206,0.56883 -5.53473,-0.70868 -0.35785,-0.31255 -0.54131,-0.22846 -1.36838,0.62722 l -0.95513,0.98816 -0.28526,4.70525 c -0.39929,6.58606 -0.3923,6.80412 0.21818,6.80412 0.29742,0 1.44232,-1.02281 2.79777,-2.49945 2.4327,-2.65018 3.86385,-3.58596 5.48426,-3.58596 1.20942,0 2.03117,0.67148 2.30424,1.88287 0.32629,1.44744 -0.19222,2.13622 -2.46655,3.2765 -1.15716,0.58017 -1.54658,1.19063 -0.75951,1.19063 0.70625,0 2.86437,1.42314 3.4017,2.24321 1.02331,1.56176 -1.03205,2.89371 -3.50461,2.27111 -1.32995,-0.33489 -3.62893,-1.67852 -4.15357,-2.42755 -0.33972,-0.48501 -0.44918,-0.42504 -2.09576,1.14814 l -1.73732,1.65988 -0.1627,2.69675 c -0.15816,2.62159 -0.14579,2.70544 0.44369,3.00889 1.26008,0.64865 2.03826,1.63107 2.21254,2.79327 0.1748,1.16565 1.11398,2.4813 1.77128,2.4813 0.19801,0 0.70222,0.35718 1.12047,0.79375 0.67225,0.70167 0.93687,0.79375 2.28124,0.79375 0.83642,0 1.85594,0.13997 2.2656,0.31105 0.40965,0.17108 1.99498,0.32058 3.52295,0.33223 2.44741,0.0187 2.91847,0.0997 3.957,0.68114 0.64839,0.36297 1.54135,1.17622 1.98438,1.80722 0.7181,1.02279 0.8055,1.35547 0.8055,3.06607 0,1.68381 -0.10001,2.07968 -0.81664,3.23249 -0.76194,1.2257 -0.78954,1.3545 -0.41214,1.9229 0.5802,0.87383 0.49902,2.8634 -0.16969,4.15894 -0.71743,1.38993 -2.67225,3.11698 -4.17967,3.69267 -1.01115,0.38616 -1.16874,0.54994 -1.16874,1.21469 0,1.03082 -0.8537,2.6447 -1.83635,3.47155 -2.36813,1.99265 -7.1176,2.5028 -14.30323,1.53634 l -4.10104,-0.55158 -2.51354,0.53596 c -2.89252,0.61677 -8.59644,0.87995 -10.97076,0.50619 z"
         id="path10" />
      <path
         style="fill:#458f6d;stroke-width:1.51173"
         d="m 102.79063,162.16587 c -4.971788,-0.7008 -8.065184,-2.49219 -8.068807,-4.67264 -5.96e-4,-0.3592 -0.162581,-0.59531 -0.408404,-0.59531 -0.625729,0 -2.381656,-0.96796 -3.437274,-1.89481 -1.739695,-1.52747 -2.45333,-3.91215 -1.679195,-5.61119 0.258572,-0.56751 0.182614,-0.81094 -0.587743,-1.88365 -0.75244,-1.04775 -0.898205,-1.49603 -0.97508,-2.99874 -0.113812,-2.2247 0.598115,-3.7689 2.274736,-4.93398 0.961882,-0.66842 1.446803,-0.80843 3.086779,-0.89124 1.070095,-0.054 2.365693,0.0404 2.879108,0.20983 0.759793,0.25075 1.046969,0.2355 1.543428,-0.0819 0.83315,-0.53273 3.295392,-1.22887 4.346522,-1.22887 0.47432,0 0.95366,-0.14765 1.0652,-0.32813 0.11154,-0.18047 0.17201,-1.22226 0.13439,-2.3151 -0.0902,-2.6197 0.59987,-4.09117 2.32705,-4.96218 1.00204,-0.50533 1.22095,-0.76391 1.46698,-1.73288 0.46989,-1.85062 1.33497,-2.98934 2.84118,-3.73992 3.08887,-1.53925 6.62434,-0.44299 8.15284,2.52799 0.33998,0.66084 0.72332,1.0033 1.23254,1.10111 0.40649,0.0781 0.77328,0.10836 0.81508,0.0673 0.0418,-0.0411 0.20509,-2.23993 0.36285,-4.88633 0.27655,-4.63893 0.26802,-4.83248 -0.23748,-5.39205 -0.28838,-0.31923 -1.08102,-1.40418 -1.76142,-2.411 -0.86455,-1.27931 -1.14202,-1.88935 -0.92139,-2.02571 0.19641,-0.12139 -0.28727,-0.49949 -1.28011,-1.00068 -0.8777,-0.44306 -1.66702,-0.9911 -1.75404,-1.21787 -0.0889,-0.23165 0.19108,-0.96191 0.63896,-1.66665 0.55629,-0.8753 0.75266,-1.45421 0.64984,-1.91579 -0.23155,-1.03955 2.81552,2.28464 4.02142,4.38715 l 0.99912,1.74198 0.17227,-1.41092 c 0.47341,-3.87727 -0.003,-5.53359 -2.42011,-8.42104 -0.90109,-1.07626 -1.22123,-1.29373 -1.72012,-1.16852 -0.73507,0.18449 -1.60266,-0.23476 -1.99226,-0.96274 -0.23616,-0.44126 -0.15175,-0.66236 0.50275,-1.31685 1.16815,-1.168154 1.78445,-1.026814 3.78091,0.86708 0.95875,0.90951 1.86809,1.89078 2.02076,2.18061 0.44515,0.84512 0.6117,0.34488 0.77031,-2.31362 l 0.14896,-2.496808 -0.94894,-1.050358 -0.94893,-1.050357 0.76079,-0.449412 c 0.86579,-0.511435 1.63793,-1.67689 2.1337,-3.220571 0.18694,-0.582083 0.38931,-0.911273 0.4497,-0.731534 0.32242,0.95955 2.71417,-1.512615 2.71417,-2.805424 0,-0.763524 0.31709,-0.709909 1.31508,0.222353 1.1638,1.087148 0.94694,1.677045 -1.8754,5.101457 -0.9367,1.136518 -1.33093,1.889807 -1.55573,2.972668 -0.45814,2.206856 -0.30298,2.896746 0.67299,2.992276 0.6918,0.0677 0.92824,-0.0915 1.67008,-1.124476 1.06732,-1.486219 1.33817,-1.576636 0.43443,-0.145028 -0.36745,0.582084 -0.54754,1.058334 -0.40019,1.058334 0.46286,0 0.29342,0.73265 -0.40872,1.76731 -0.45499,0.67046 -0.65232,1.27919 -0.60242,1.85836 0.0598,0.69375 -0.12188,1.06211 -0.93374,1.89353 l -1.00795,1.03223 -0.2916,5.59086 c -0.23523,4.51005 -0.22579,5.65421 0.0488,5.91856 0.27374,0.26352 0.8074,-0.1645 2.72534,-2.18585 1.31173,-1.38245 2.18525,-2.19514 1.94115,-1.80597 -0.42824,0.68276 -0.41582,0.76397 0.35437,2.31629 l 0.79817,1.60873 -0.99658,0.50842 c -0.54812,0.27963 -1.94131,1.36514 -3.09597,2.41224 -2.30769,2.09271 -2.40447,2.33297 -2.4701,6.13214 -0.0245,1.41641 0.0237,1.54037 0.74422,1.91294 1.05634,0.54626 1.87544,1.65554 1.87544,2.53986 0,1.09684 0.78318,2.25689 1.76286,2.61114 0.47682,0.17243 1.09605,0.60475 1.37606,0.96073 0.43504,0.55306 0.73454,0.64824 2.05854,0.65417 0.90233,0.004 1.98745,0.20365 2.59826,0.47797 0.85937,0.38595 1.32716,0.42891 2.58957,0.23784 3.1418,-0.47552 5.74578,0.67449 6.93616,3.06328 1.01554,2.03791 0.82698,4.05437 -0.55306,5.91465 -0.57722,0.77809 -0.59342,0.89009 -0.22967,1.5875 1.34342,2.57576 -0.46898,6.06028 -3.99074,7.67259 -1.26838,0.58069 -1.3774,0.70483 -1.51413,1.72427 -0.33717,2.51374 -2.72469,4.38132 -6.39188,4.99987 -2.20938,0.37266 -6.15477,0.21014 -10.52765,-0.43367 -2.89546,-0.42629 -3.24759,-0.42811 -5.15937,-0.0266 -4.38131,0.92016 -7.83826,1.13319 -11.04765,0.68081 z"
         id="path18" />
      <path
         style="fill:#3c8d69;stroke-width:1.51173"
         d="m 103.71667,162.29154 c -2.08966,-0.25386 -4.979369,-0.9924 -6.289041,-1.60731 -1.456167,-0.68369 -2.706795,-2.12715 -2.706795,-3.12414 0,-0.4031 -0.31664,-0.6504 -1.263242,-0.9866 -3.395843,-1.2061 -5.316989,-4.48963 -4.196228,-7.17198 0.342927,-0.82074 0.323134,-0.90309 -0.387971,-1.6142 -1.587261,-1.58726 -1.75499,-4.82132 -0.353284,-6.81183 1.433584,-2.03579 4.396509,-2.86865 7.3184,-2.05717 0.76647,0.21287 1.11915,0.1897 1.5875,-0.10428 0.879644,-0.55214 2.514142,-1.02751 4.147451,-1.20621 l 1.43268,-0.15675 0.0245,-2.51354 c 0.0302,-3.09682 0.4843,-4.06325 2.34407,-4.98901 0.90441,-0.45019 1.25395,-0.78097 1.25814,-1.19062 0.008,-0.82078 0.89103,-2.64243 1.61773,-3.33884 1.00242,-0.96063 2.62175,-1.58191 4.13965,-1.58822 2.37576,-0.01 4.30103,1.13992 5.36207,3.2023 0.33998,0.66084 0.72332,1.0033 1.23254,1.10111 0.40649,0.0781 0.77898,0.10266 0.82774,0.0546 0.0488,-0.048 0.21612,-2.24255 0.37192,-4.87668 0.27462,-4.64336 0.26694,-4.80732 -0.25192,-5.3794 -1.20178,-1.32505 -2.97102,-4.27274 -2.67453,-4.45598 0.17507,-0.1082 -0.36485,-0.52118 -1.29568,-0.99106 -0.8777,-0.44306 -1.66702,-0.9911 -1.75404,-1.21787 -0.0889,-0.23165 0.19108,-0.96191 0.63896,-1.66665 0.55629,-0.8753 0.75266,-1.45421 0.64984,-1.91579 -0.23837,-1.07018 2.80952,2.28892 4.0061,4.41514 l 1.01444,1.80257 0.17526,-1.32292 c 0.5274,-3.98104 0.12699,-5.45509 -2.28668,-8.41812 -1.04323,-1.28068 -1.32379,-1.48173 -1.87474,-1.34345 -0.95889,0.24066 -2.02091,-0.53916 -1.9168,-1.40748 0.10811,-0.90159 1.2918,-1.782232 2.11711,-1.575091 0.66513,0.166931 3.28115,2.519251 4.00364,3.600051 0.23732,0.35503 0.51018,0.56682 0.60634,0.47065 0.0962,-0.0962 0.23329,-1.29207 0.30471,-2.65757 l 0.12986,-2.482732 -0.94655,-1.04772 -0.94655,-1.047721 0.76079,-0.449412 c 0.86579,-0.511435 1.63793,-1.67689 2.1337,-3.220571 0.18694,-0.582083 0.38931,-0.911273 0.4497,-0.731534 0.32242,0.95955 2.71417,-1.512615 2.71417,-2.805424 0,-0.700073 0.12154,-0.701969 1.08363,-0.0169 1.38794,0.988298 1.0608,2.093432 -1.52948,5.16682 -1.3315,1.579848 -1.9354,3.109594 -1.9354,4.902595 0,1.284999 0.003,1.289649 0.88119,1.289649 0.74131,0 1.01691,-0.189 1.73623,-1.190623 1.05979,-1.475734 1.32555,-1.558402 0.42528,-0.132291 -0.36745,0.582084 -0.54754,1.058334 -0.40019,1.058334 0.46286,0 0.29342,0.73265 -0.40872,1.76731 -0.45499,0.67046 -0.65232,1.27919 -0.60242,1.85836 0.0597,0.69248 -0.1214,1.06162 -0.92376,1.88331 l -0.99796,1.022 -0.24604,3.81211 c -0.54633,8.46474 -0.37089,9.04563 1.94173,6.42904 2.40401,-2.72 3.18952,-3.50719 2.69733,-2.7031 -0.4151,0.67815 -0.39993,0.77446 0.36506,2.31629 l 0.79817,1.60873 -0.99658,0.50842 c -0.54812,0.27963 -1.94131,1.36508 -3.09597,2.41212 -2.31413,2.09843 -2.42158,2.35847 -2.47309,5.98518 -0.0226,1.58945 0.001,1.64702 0.90306,2.20452 1.16256,0.7185 1.71959,1.50195 1.71959,2.41855 0,1.0755 0.79082,2.23646 1.76286,2.58795 0.47682,0.17243 1.09605,0.60475 1.37606,0.96073 0.43528,0.55337 0.73381,0.64807 2.05854,0.65304 0.93281,0.004 1.97946,0.20112 2.63002,0.49659 0.88509,0.40197 1.33988,0.44919 2.51354,0.26094 1.616,-0.2592 3.96127,0.0705 4.90625,0.68963 1.60384,1.05088 2.73278,3.01924 2.73278,4.76474 0,1.08523 -0.76204,3.08335 -1.47737,3.87378 -0.35924,0.39696 -0.35771,0.52853 0.0146,1.24839 1.29652,2.50721 -0.32694,5.81214 -3.66145,7.45371 -1.58057,0.77811 -1.69304,0.89436 -1.85692,1.91919 -0.68589,4.28935 -5.78374,5.96406 -14.57073,4.78667 -4.49083,-0.60174 -5.93175,-0.60698 -8.90867,-0.0325 -2.3691,0.45722 -7.05888,0.76179 -8.68612,0.56409 z m 2.24896,-2.75591 c -3.90509,-0.20664 -4.73136,-0.35602 -6.680733,-1.20784 -0.763985,-0.33384 -1.389063,-0.54741 -1.389063,-0.4746 0,0.25076 2.873596,1.44737 4.015396,1.67207 0.62919,0.12382 2.57273,0.21776 4.31898,0.20875 l 3.175,-0.0164 z m 25.1318,-0.36198 c 1.2637,-0.53781 2.25559,-1.41771 2.24452,-1.9911 -0.006,-0.31756 -0.0804,-0.29081 -0.31152,0.11227 -0.46034,0.80268 -1.07724,1.18445 -1.66481,1.03025 -0.41773,-0.10963 -0.44748,-0.0827 -0.14125,0.12785 0.31645,0.21759 0.25248,0.31822 -0.34723,0.54623 -1.10507,0.42014 -4.83442,0.60692 -6.8537,0.34325 -0.98227,-0.12825 -1.78594,-0.14194 -1.78594,-0.0304 0,0.61827 7.35185,0.50347 8.85993,-0.13835 z m -21.12472,-0.43039 c -0.23435,-1.17173 -1.98336,-3.60007 -3.90994,-5.42859 -1.8196,-1.72698 -3.36133,-2.89802 -3.55734,-2.70201 -0.0673,0.0673 0.36744,0.44661 0.96617,0.84284 2.65646,1.75796 6.53454,6.48563 6.24098,7.60822 -0.0691,0.26403 -0.003,0.48006 0.14735,0.48006 0.16261,0 0.20818,-0.3235 0.11278,-0.80052 z m -0.75089,-0.39711 c -0.0815,-0.0815 -0.22941,0.0654 -0.32877,0.32632 -0.14358,0.37709 -0.11319,0.40748 0.14812,0.14811 0.18082,-0.17947 0.26211,-0.39297 0.18065,-0.47443 z m 15.32527,0.50861 c -0.0879,-0.0879 -0.31612,-0.0973 -0.50712,-0.0209 -0.21106,0.0845 -0.14837,0.14716 0.15986,0.15985 0.27891,0.0115 0.43518,-0.051 0.34726,-0.13896 z m 3.84701,-0.0137 c -0.17913,-0.0725 -0.53632,-0.0769 -0.79375,-0.01 -0.25743,0.0671 -0.11087,0.12638 0.32569,0.13177 0.43656,0.005 0.64719,-0.0495 0.46806,-0.12197 z m -4.80925,-4.09577 c 0.59413,-0.87489 1.86858,-2.4451 2.83211,-3.48934 1.02504,-1.11092 1.27268,-1.45954 0.59689,-0.8403 -1.61567,1.48048 -2.65276,2.65334 -3.64844,4.12608 -1.15832,1.71331 -2.18624,3.57892 -2.18624,3.96789 0,0.17557 0.29822,-0.24166 0.66272,-0.92719 0.3645,-0.68553 1.14883,-1.96224 1.74296,-2.83714 z m -11.13693,2.71577 c 0,-0.12685 -0.60771,-1.16865 -1.35047,-2.3151 -1.25639,-1.93927 -4.26592,-5.20053 -5.79328,-6.27786 -0.41643,-0.29373 -0.48485,-0.41318 -0.1847,-0.32243 0.29476,0.0891 0.4108,0.0374 0.30397,-0.13546 -0.095,-0.15377 -0.33442,-0.21757 -0.53196,-0.14177 -0.19754,0.0758 -0.90607,-0.16784 -1.57451,-0.54144 -0.66845,-0.3736 -1.28407,-0.61056 -1.36806,-0.52657 -0.084,0.084 0.1901,0.30125 0.60909,0.48281 2.77977,1.20456 6.26417,4.43283 8.32083,7.70919 1.46628,2.33587 1.56909,2.47141 1.56909,2.06863 z m 1.70491,-2.80907 0.1294,-1.5905 -0.37173,1.85208 c -0.42109,2.09801 -0.49461,3.36589 -0.12292,2.11967 0.12972,-0.43492 0.29408,-1.50648 0.36525,-2.38125 z m 6.48358,-0.37693 c 0.82936,-1.4011 2.1793,-3.16359 3.2559,-4.25091 1.01153,-1.0216 1.72672,-1.85745 1.58931,-1.85745 -0.36394,0 -3.26679,3.10211 -4.24557,4.537 -1.0792,1.58211 -2.57922,4.31267 -2.26115,4.1161 0.13461,-0.0832 0.88229,-1.22833 1.66151,-2.54474 z m 12.44495,0.25869 c 0.002,-0.35442 0.27195,-0.93613 0.59937,-1.29268 0.58562,-0.63772 0.58607,-0.64347 0.0278,-0.35337 -0.58689,0.30499 -1.15534,1.55668 -1.14826,2.52837 0.003,0.45584 0.0502,0.48443 0.26053,0.15896 0.14107,-0.21828 0.25831,-0.68686 0.26053,-1.04128 z m -13.89314,-6.49982 c 0.37823,-1.42153 0.80083,-2.79599 0.9391,-3.05435 0.2943,-0.5499 1.80579,-1.52924 2.8415,-1.8411 0.44131,-0.13288 0.53903,-0.22684 0.25033,-0.24071 -0.61582,-0.0296 -2.31044,0.83949 -2.89291,1.4836 -0.69817,0.77204 -1.14797,2.19971 -2.33404,7.40822 -0.13894,0.61014 -0.23982,1.6817 -0.22419,2.38125 0.0231,1.03513 0.094,0.82287 0.38047,-1.14021 0.19362,-1.32665 0.66151,-3.57517 1.03974,-4.9967 z m -26.158836,5.37884 c -0.560048,-0.46164 -1.177827,-1.20578 -1.372844,-1.65365 -0.265223,-0.6091 -0.357105,-0.68095 -0.364609,-0.28513 -0.01103,0.5816 0.815895,1.632 1.834129,2.3298 1.05498,0.72299 1.003831,0.51611 -0.09668,-0.39102 z m 32.118536,0.57476 c 0,-0.14552 -0.12609,-0.26458 -0.2802,-0.26458 -0.15411,0 -0.20662,0.11906 -0.11668,0.26458 0.0899,0.14552 0.21603,0.26458 0.2802,0.26458 0.0642,0 0.11668,-0.11906 0.11668,-0.26458 z m 12.07404,-1.30138 c 1.02823,-0.62698 2.21693,-2.15105 2.2031,-2.82464 -0.007,-0.35996 -0.11099,-0.27712 -0.36214,0.28956 -0.44374,1.00123 -1.43997,2.06872 -2.43199,2.60595 -0.42207,0.22856 -0.64833,0.41989 -0.50281,0.42518 0.14552,0.005 0.63775,-0.21794 1.09384,-0.49605 z m -23.27793,-1.21301 c -0.19748,-1.44083 -0.93894,-2.95401 -2.09305,-4.27152 -0.96276,-1.09906 -2.99561,-2.48095 -3.62205,-2.46219 -0.22617,0.007 0.1586,0.30889 0.85505,0.67136 0.76802,0.39972 1.19439,0.77533 1.0836,0.9546 -0.11338,0.18345 -0.0624,0.22124 0.13438,0.0996 0.44571,-0.27546 1.02207,0.26909 2.18698,2.06629 0.65189,1.00571 1.06849,2.01068 1.17907,2.84427 0.0941,0.70897 0.23137,1.28904 0.30516,1.28904 0.0738,0 0.0607,-0.53616 -0.0291,-1.19147 z m -21.41152,-0.2913 c -0.08792,-0.0879 -0.316122,-0.0973 -0.507118,-0.0209 -0.211067,0.0845 -0.148372,0.14715 0.159852,0.15985 0.278915,0.0115 0.435185,-0.0511 0.347266,-0.13897 z m 1.104226,-1.01244 c -0.06961,-0.0696 -0.284185,0.13592 -0.47684,0.45673 -0.334676,0.55729 -0.329038,0.56293 0.126559,0.12655 0.262262,-0.25119 0.419889,-0.51367 0.350281,-0.58328 z M 138.82241,149.44 c -0.0845,-0.21106 -0.14716,-0.14837 -0.15986,0.15986 -0.0115,0.27891 0.0511,0.43518 0.13897,0.34726 0.0879,-0.0879 0.0973,-0.31612 0.0209,-0.50712 z m -38.62917,-1.05833 c -0.0845,-0.21107 -0.14716,-0.14837 -0.15985,0.15985 -0.0115,0.27892 0.051,0.43519 0.13896,0.34727 0.0879,-0.0879 0.0973,-0.31612 0.0209,-0.50712 z m 37.4709,-0.61329 c -0.13449,-0.82872 -0.0222,-1.06467 1.05434,-2.21558 2.83987,-3.03605 1.92148,-6.11735 -1.82328,-6.11735 -1.36817,0 -2.75145,0.41021 -2.75145,0.81594 0,0.11101 0.36799,0.0182 0.81776,-0.20612 1.06047,-0.52903 3.20979,-0.33695 4.16289,0.37204 0.56595,0.42101 0.72436,0.78065 0.79004,1.79365 0.0452,0.69688 -0.0441,1.39333 -0.19844,1.54765 -0.19772,0.19773 -0.28554,0.0892 -0.29736,-0.36764 l -0.0168,-0.64823 -0.23928,0.59531 c -0.13161,0.32742 -0.36638,0.59531 -0.52171,0.59531 -0.19788,0 -0.19578,0.16188 0.007,0.5408 0.24462,0.45708 0.16415,0.65782 -0.51986,1.29678 -0.78779,0.7359 -1.00541,1.57678 -0.64868,2.50641 0.26561,0.69217 0.34446,0.47498 0.18479,-0.50897 z m 1.24211,-3.42253 c 0,-0.22687 0.11906,-0.41249 0.26458,-0.41249 0.14552,0 0.26459,0.11204 0.26459,0.24897 0,0.13693 -0.11907,0.32255 -0.26459,0.41249 -0.14552,0.0899 -0.26458,-0.0221 -0.26458,-0.24897 z m -46.347723,3.01158 c -1.854852,-1.38482 -1.896232,-1.439 -1.567771,-2.05273 0.20094,-0.37546 0.213266,-0.57759 0.03522,-0.57759 -0.150641,0 -0.273892,0.18562 -0.273892,0.41249 0,0.22687 -0.119063,0.33891 -0.264584,0.24897 -0.356431,-0.22029 -0.335656,-1.80349 0.03432,-2.6155 0.390626,-0.85733 1.627575,-1.35415 3.27297,-1.31459 1.250983,0.0301 1.277172,0.0173 0.481632,-0.2348 -1.105235,-0.35026 -2.558254,-0.059 -3.424984,0.68652 -0.538449,0.46316 -0.72675,0.9141 -0.829881,1.98741 -0.133058,1.38476 -0.12993,1.39166 1.223727,2.69641 0.746419,0.71945 1.506349,1.30432 1.688732,1.29971 0.182384,-0.005 0.01341,-0.24594 -0.375492,-0.5363 z m 35.050803,-0.56672 0.74163,-0.60839 -0.74163,-0.0327 c -0.40789,-0.018 -0.58323,0.0249 -0.38964,0.0953 0.23881,0.0868 0.0687,0.37795 -0.52917,0.90549 -0.99617,0.87904 -0.22154,0.57578 0.91881,-0.35971 z m -10.57255,-4.25425 c 0.38654,-0.84106 0.69908,-1.67449 0.69453,-1.85208 -0.011,-0.42817 -1.25288,2.03912 -1.70196,3.38128 l -0.35412,1.05833 -0.0302,-1.71979 c -0.0166,-0.94589 -0.15643,-1.89839 -0.3107,-2.11667 -0.28089,-0.39744 -0.17662,1.57343 0.21696,4.10104 l 0.1648,1.05833 0.30895,-1.19062 c 0.16992,-0.65484 0.6252,-1.87876 1.01175,-2.71982 z m -13.07903,1.13015 c -0.41725,-1.39727 -0.48744,-1.5108 -0.37635,-0.60868 0.14438,1.17253 0.60745,2.60811 0.78425,2.43131 0.0577,-0.0578 -0.1258,-0.87793 -0.4079,-1.82263 z m 8.62874,-1.46814 c -0.10481,-1.25824 -0.28895,-2.18629 -0.4092,-2.06234 -0.12024,0.12395 -0.11373,0.76114 0.0145,1.41598 0.1282,0.65485 0.23829,1.65696 0.24462,2.22691 0.006,0.56996 0.0856,0.96223 0.1761,0.87172 0.0905,-0.0905 0.0788,-1.19404 -0.026,-2.45227 z m -0.80003,1.47031 c -0.26339,-0.29104 -0.6688,-0.52854 -0.9009,-0.52777 -0.25842,8.5e-4 -0.11431,0.19849 0.37173,0.50982 1.02706,0.65788 1.11087,0.66072 0.52917,0.0179 z m -20.674112,-0.13229 c -0.08376,-0.21828 -0.199088,-0.39688 -0.256279,-0.39688 -0.05719,0 -0.103984,0.1786 -0.103984,0.39688 0,0.21828 0.115325,0.39687 0.256279,0.39687 0.140954,0 0.187747,-0.17859 0.103984,-0.39687 z M 110.19896,142.875 c -0.0899,-0.14552 -0.30532,-0.26276 -0.47864,-0.26053 -0.18934,0.002 -0.1567,0.10642 0.0818,0.26053 0.5083,0.32849 0.59989,0.32849 0.39688,0 z m 16.86719,-2.53598 c 0.10914,-0.10893 0.19447,-0.32703 0.18963,-0.48468 -0.005,-0.15765 -0.24297,-0.006 -0.52917,0.33799 -0.29611,0.35544 -0.5084,0.98257 -0.49262,1.45521 l 0.0277,0.83059 0.30299,-0.97054 c 0.16664,-0.53379 0.39228,-1.05965 0.50143,-1.16857 z m -26.33156,1.31779 c -0.0879,-0.0879 -0.31612,-0.0973 -0.50712,-0.0209 -0.21106,0.0845 -0.14837,0.14715 0.15986,0.15985 0.27891,0.0115 0.43518,-0.0511 0.34726,-0.13897 z m 1.80703,-0.51002 c -0.54926,-0.41544 -2.701249,-0.52293 -3.268222,-0.16325 -0.19084,0.12107 0.293078,0.16443 1.093952,0.098 0.7899,-0.0655 1.65827,0.01 1.92973,0.16767 0.70753,0.41111 0.84652,0.35289 0.24454,-0.10243 z m 36.8938,0.14071 c 0,-0.14552 -0.11907,-0.26458 -0.26459,-0.26458 -0.14552,0 -0.26458,0.11906 -0.26458,0.26458 0,0.14552 0.11906,0.26458 0.26458,0.26458 0.14552,0 0.26459,-0.11906 0.26459,-0.26458 z m -20.77394,-4.84807 c 0.38357,-2.00938 0.66047,-3.97301 0.61535,-4.36361 -0.0451,-0.39061 -0.36583,0.89715 -0.71269,2.86168 -0.78295,4.43444 -0.92729,5.46054 -0.74405,5.28966 0.0792,-0.0739 0.45783,-1.77835 0.84139,-3.78773 z m 2.85423,-0.19753 c 0.14537,-1.63692 0.13223,-1.6112 -0.34737,0.67998 -0.27415,1.30968 -0.49228,2.61937 -0.48474,2.91041 0.0249,0.96186 0.67813,-1.8566 0.83211,-3.59039 z m 0.11139,2.73553 c -0.0671,-0.25743 -0.12638,-0.11087 -0.13177,0.3257 -0.005,0.43656 0.0495,0.64718 0.12197,0.46805 0.0725,-0.17913 0.0769,-0.53632 0.01,-0.79375 z m 7.25786,0.31126 c 0.65355,-0.23218 1.56104,-0.35117 2.08379,-0.27322 0.92438,0.13784 0.92467,0.13757 0.15793,-0.15341 -0.60467,-0.22947 -1.06913,-0.19661 -2.18281,0.15445 -0.77809,0.24527 -1.4147,0.49939 -1.4147,0.56472 0,0.17617 0.0929,0.15613 1.35579,-0.29254 z m 2.28531,0.22952 c -0.25296,-0.0662 -0.72921,-0.0686 -1.05833,-0.005 -0.32912,0.0633 -0.12215,0.11747 0.45993,0.12041 0.58209,0.003 0.85137,-0.0489 0.5984,-0.11507 z m -5.49319,-1.99463 c 0,-0.12765 -0.29765,0.0891 -0.66146,0.48163 -0.3638,0.39255 -0.66145,0.77663 -0.66145,0.8535 0,0.0769 0.29765,-0.13985 0.66145,-0.48163 0.36381,-0.34177 0.66146,-0.72585 0.66146,-0.8535 z m -8.02134,-0.51902 c -0.0845,-0.21107 -0.14716,-0.14837 -0.15985,0.15985 -0.0115,0.27892 0.051,0.43518 0.13896,0.34727 0.0879,-0.0879 0.0973,-0.31613 0.0209,-0.50712 z m -11.72921,-1.77714 c -0.0898,-0.85918 -0.0895,-1.85614 6.9e-4,-2.21546 0.19578,-0.78007 1.32166,-1.30511 2.3747,-1.10742 0.47858,0.0899 0.68777,0.0419 0.57969,-0.13302 -0.28959,-0.46857 -1.88359,-0.30113 -2.61572,0.27477 -0.60791,0.47818 -0.69668,0.74063 -0.69353,2.05052 0.003,1.41479 0.20277,2.69277 0.42007,2.69277 0.0536,0 0.0239,-0.70297 -0.0659,-1.56216 z m 19.48597,1.45818 c 0,-0.0572 -0.18478,-0.17489 -0.41062,-0.26155 -0.23546,-0.0904 -0.34166,-0.046 -0.24897,0.10398 0.15538,0.25141 0.65959,0.37186 0.65959,0.15757 z m -7.14375,-2.32136 c 0,-0.60634 -0.0718,-1.03067 -0.15948,-0.94295 -0.27555,0.27554 -0.35461,2.04538 -0.0914,2.04538 0.13797,0 0.25086,-0.4961 0.25086,-1.10243 z m -2.87759,-5.84729 c -0.2613,-0.25937 -0.29169,-0.22898 -0.14811,0.14811 0.0994,0.26094 0.24731,0.40778 0.32877,0.32632 0.0815,-0.0815 1.7e-4,-0.29496 -0.18066,-0.47443 z m -4.43773,-1.12703 c -0.0816,-0.21278 -0.24985,-0.32422 -0.37377,-0.24763 -0.12391,0.0766 -0.15849,0.31334 -0.0768,0.52612 0.0816,0.21279 0.24985,0.32422 0.37377,0.24764 0.12391,-0.0766 0.15849,-0.31334 0.0768,-0.52613 z m 3.84218,-0.0807 c -0.75687,-1.21195 -3.33569,-1.51837 -4.5749,-0.5436 -0.96604,0.75989 -0.66241,0.95967 0.33631,0.22128 1.07719,-0.7964 3.0751,-0.61734 3.86928,0.3468 0.62729,0.76152 0.85092,0.7467 0.36931,-0.0245 z m -2.14926,-0.49156 c -0.25466,-0.0666 -0.67138,-0.0666 -0.92604,0 -0.25466,0.0665 -0.0463,0.121 0.46302,0.121 0.50933,0 0.71769,-0.0545 0.46302,-0.121 z"
         id="path26" />
      <path
         style="fill:#376a4d;stroke-width:1.51173"
         d="m 103.71667,162.29152 c -2.08966,-0.25386 -4.979369,-0.9924 -6.289041,-1.60731 -1.456167,-0.68369 -2.706795,-2.12715 -2.706795,-3.12414 0,-0.4031 -0.31664,-0.6504 -1.263242,-0.9866 -3.395843,-1.2061 -5.316989,-4.48963 -4.196228,-7.17198 0.342927,-0.82074 0.323134,-0.90309 -0.387971,-1.6142 -1.587261,-1.58726 -1.75499,-4.82132 -0.353284,-6.81183 1.433584,-2.03579 4.396509,-2.86865 7.3184,-2.05717 0.76647,0.21287 1.11915,0.1897 1.5875,-0.10428 0.879644,-0.55214 2.514142,-1.02751 4.147451,-1.20621 l 1.43268,-0.15675 0.0245,-2.51354 c 0.0302,-3.09682 0.4843,-4.06325 2.34407,-4.98901 0.90441,-0.45019 1.25395,-0.78097 1.25814,-1.19062 0.008,-0.82078 0.89103,-2.64243 1.61773,-3.33884 1.00242,-0.96063 2.62175,-1.58191 4.13965,-1.58822 2.37576,-0.01 4.30103,1.13992 5.36207,3.2023 0.33998,0.66084 0.72332,1.0033 1.23254,1.10111 0.40649,0.0781 0.77898,0.10266 0.82774,0.0546 0.0488,-0.048 0.21612,-2.24255 0.37192,-4.87668 0.27462,-4.64336 0.26694,-4.80732 -0.25192,-5.3794 -1.20178,-1.32505 -2.97102,-4.27274 -2.67453,-4.45598 0.17507,-0.1082 -0.36485,-0.52118 -1.29568,-0.99106 -0.8777,-0.44306 -1.66702,-0.9911 -1.75404,-1.21787 -0.0889,-0.23165 0.19108,-0.96191 0.63896,-1.66665 0.55629,-0.8753 0.75266,-1.45421 0.64984,-1.91579 -0.23837,-1.07018 2.80952,2.28892 4.0061,4.41514 l 1.01444,1.80257 0.17526,-1.32292 c 0.5274,-3.98104 0.12699,-5.45509 -2.28668,-8.41812 -1.04323,-1.28068 -1.32379,-1.48173 -1.87474,-1.34345 -0.95889,0.24066 -2.02091,-0.53916 -1.9168,-1.40748 0.10811,-0.90159 1.2918,-1.782232 2.11711,-1.575091 0.66513,0.166931 3.28115,2.519251 4.00364,3.600051 0.23732,0.35503 0.51018,0.56682 0.60634,0.47065 0.0962,-0.0962 0.23329,-1.29207 0.30471,-2.65757 l 0.12986,-2.482732 -0.94655,-1.04772 -0.94655,-1.047721 0.76079,-0.449412 c 0.86579,-0.511435 1.63793,-1.67689 2.1337,-3.220571 0.18694,-0.582083 0.38931,-0.911273 0.4497,-0.731534 0.32242,0.95955 2.71417,-1.512615 2.71417,-2.805424 0,-0.700073 0.12154,-0.701969 1.08363,-0.0169 1.38794,0.988298 1.0608,2.093432 -1.52948,5.16682 -1.3315,1.579848 -1.9354,3.109594 -1.9354,4.902595 0,1.284999 0.003,1.289649 0.88119,1.289649 0.74131,0 1.01691,-0.189 1.73623,-1.190623 1.05979,-1.475734 1.32555,-1.558402 0.42528,-0.132291 -0.36745,0.582084 -0.54754,1.058334 -0.40019,1.058334 0.46286,0 0.29342,0.73265 -0.40872,1.76731 -0.45499,0.67046 -0.65232,1.27919 -0.60242,1.85836 0.0597,0.69248 -0.1214,1.06162 -0.92376,1.88331 l -0.99796,1.022 -0.24604,3.81211 c -0.54633,8.46474 -0.37089,9.04563 1.94173,6.42904 2.40401,-2.72 3.18952,-3.50719 2.69733,-2.7031 -0.4151,0.67815 -0.39993,0.77446 0.36506,2.31629 l 0.79817,1.60873 -0.99658,0.50842 c -0.54812,0.27963 -1.94131,1.36508 -3.09597,2.41212 -2.31413,2.09843 -2.42158,2.35847 -2.47309,5.98518 -0.0226,1.58945 0.001,1.64702 0.90306,2.20452 1.16256,0.7185 1.71959,1.50195 1.71959,2.41855 0,1.0755 0.79082,2.23646 1.76286,2.58795 0.47682,0.17243 1.09605,0.60475 1.37606,0.96073 0.43528,0.55337 0.73381,0.64807 2.05854,0.65304 0.93281,0.004 1.97946,0.20112 2.63002,0.49659 0.88509,0.40197 1.33988,0.44919 2.51354,0.26094 1.616,-0.2592 3.96127,0.0705 4.90625,0.68963 1.60384,1.05088 2.73278,3.01924 2.73278,4.76474 0,1.08523 -0.76204,3.08335 -1.47737,3.87378 -0.35924,0.39696 -0.35771,0.52853 0.0146,1.24839 1.29652,2.50721 -0.32694,5.81214 -3.66145,7.45371 -1.58057,0.77811 -1.69304,0.89436 -1.85692,1.91919 -0.68589,4.28935 -5.78374,5.96406 -14.57073,4.78667 -4.49083,-0.60174 -5.93175,-0.60698 -8.90867,-0.0325 -2.3691,0.45722 -7.05888,0.76179 -8.68612,0.56409 z m 6.06935,-2.73916 c 0.43979,-0.23537 0.48487,-0.39751 0.26863,-0.96625 -0.85093,-2.23811 -3.96341,-5.72513 -6.68938,-7.49434 -2.80145,-1.8182 -2.8236,-1.83923 -2.8236,-2.68117 0,-1.48044 1.09166,-1.37685 3.79066,0.35971 2.51467,1.61797 4.98666,4.14178 6.69281,6.83312 0.80207,1.26522 1.68333,2.35925 1.95835,2.43117 0.76629,0.20039 1.16641,-1.35217 1.14529,-4.44397 -0.0142,-2.08331 -0.13586,-2.91132 -0.57205,-3.89458 -0.6775,-1.52723 -2.42891,-3.47179 -3.87172,-4.29872 -1.73155,-0.99241 -2.11261,-1.02819 -2.99985,-0.28163 -0.43776,0.36835 -0.96864,0.66973 -1.17974,0.66973 -0.66839,0 -1.25089,-0.92086 -1.43484,-2.2683 -0.26312,-1.92727 -1.24052,-2.75879 -3.24281,-2.75879 -1.332416,0 -1.599458,0.0934 -2.270477,0.79375 -0.897722,0.93702 -1.031621,0.95267 -2.359513,0.27567 -3.130618,-1.59608 -6.239445,-0.50439 -6.239445,2.19104 0,1.28117 0.6987,2.4022 2.145306,3.44204 1.200334,0.86281 1.542234,1.82878 0.992528,2.80417 -0.271795,0.48227 -0.610352,0.68417 -1.165162,0.69485 -0.899199,0.0173 -0.937631,0.56113 -0.12014,1.69998 0.480046,0.66875 2.365006,1.94427 1.999664,1.35313 -0.14512,-0.2348 0.260063,-0.29518 1.587291,-0.23652 1.549096,0.0685 1.844902,0.16527 2.261983,0.74023 0.420081,0.57909 0.440478,0.80482 0.163806,1.8128 -0.294702,1.07367 -0.275416,1.18423 0.285821,1.6387 0.853666,0.69125 3.194328,1.51982 5.137938,1.81876 1.96811,0.30272 5.79097,0.16556 6.53865,-0.23458 z m 20.59299,-0.14742 c 0.74712,-0.22187 1.71616,-0.70443 2.15343,-1.07237 0.77054,-0.64837 0.79015,-0.72118 0.63672,-2.36427 -0.1945,-2.08286 0.27566,-3.03912 1.49424,-3.03912 0.42462,0 0.84507,0.11817 0.93434,0.26261 0.24835,0.40184 2.04783,-0.62375 3.00283,-1.71144 0.9883,-1.12561 1.16574,-2.51992 0.32068,-2.51992 -0.57596,0 -1.33792,-0.9326 -1.33792,-1.63754 0,-0.25381 0.52318,-1.05053 1.16261,-1.7705 1.9164,-2.15777 2.19224,-4.03572 0.78673,-5.35613 -0.58648,-0.55097 -0.92424,-0.62854 -2.73663,-0.62854 -1.64778,0 -2.17848,0.10038 -2.61385,0.49438 -0.70501,0.63802 -1.79966,0.39141 -2.20426,-0.49659 -0.36296,-0.79661 -0.99363,-1.01767 -2.28223,-0.79997 -1.54936,0.26177 -3.05037,1.22735 -3.31285,2.13113 -0.58298,2.00739 -0.70959,2.11063 -2.58847,2.11063 -1.49534,0 -1.86346,0.10248 -2.72383,0.75827 -1.23424,0.94077 -1.78445,2.19963 -2.65198,6.06766 -0.77838,3.47053 -0.8744,5.51481 -0.28211,6.00636 0.21828,0.18116 0.39687,0.49339 0.39687,0.69386 0,0.63254 0.53623,0.39593 1.0045,-0.44325 2.10514,-3.7726 4.66448,-6.74619 7.65639,-8.89564 1.68046,-1.20728 2.31938,-1.34229 2.79294,-0.59019 0.47635,0.75652 -0.0127,1.78347 -1.11782,2.34725 -2.04562,1.0436 -5.86948,5.51024 -7.31834,8.54854 -0.44219,0.92728 -0.44467,1.02582 -0.0361,1.43443 0.8752,0.87521 6.49639,1.17348 8.86407,0.47035 z m -13.31656,-16.8515 c 0.60587,-1.29489 1.73882,-6.28248 2.34917,-10.34173 0.16934,-1.12622 -0.19367,-1.40193 -1.95821,-1.48729 -0.37781,-0.0183 -1.50693,-1.53534 -2.34745,-3.15398 -0.17713,-0.34111 -0.82053,-0.84071 -1.42979,-1.11021 -2.53618,-1.12187 -5.18901,0.84865 -3.73338,2.77316 0.51606,0.6823 0.49865,1.90105 -0.0301,2.10394 -0.23019,0.0883 -0.98804,0.1606 -1.68411,0.1606 -0.87974,0 -1.47815,0.16719 -1.96274,0.54837 -0.61886,0.48679 -0.69714,0.73209 -0.69714,2.18456 0,0.8999 0.11719,2.04481 0.26043,2.54424 0.20841,0.7267 0.1747,1.00278 -0.16881,1.38235 -0.47484,0.5247 -0.51512,0.44765 1.20979,2.31419 0.59391,0.64268 1.07984,1.27431 1.07984,1.40362 0,0.12932 0.68461,0.53656 1.52135,0.90498 0.83675,0.36842 1.92747,0.97785 2.42382,1.35429 l 0.90246,0.68442 -0.17902,-2.32891 c -0.18962,-2.46697 -0.0126,-3.05461 0.92004,-3.05461 1.03996,0 1.46593,0.85381 1.66326,3.33384 0.10305,1.29508 0.26111,2.65235 0.35125,3.01616 0.14648,0.59119 0.19777,0.53497 0.48282,-0.52917 0.17542,-0.65484 0.63733,-1.87111 1.02647,-2.70282 z m 5.58726,-1.99759 c 0.15396,-0.10691 0.48367,-0.49204 0.7327,-0.85584 0.24903,-0.3638 0.54675,-0.66146 0.66161,-0.66146 0.31496,0 1.89765,-1.3859 1.89765,-1.6617 0,-0.13236 -0.24337,-0.4609 -0.54082,-0.73009 -0.46194,-0.41805 -0.6928,-0.44887 -1.58287,-0.21129 -1.27956,0.34153 -2.09393,-0.10823 -2.14064,-1.18223 -0.0336,-0.77358 -1.00108,3.65837 -1.0174,4.66082 -0.005,0.33601 0.1009,0.54243 0.23636,0.45871 0.13547,-0.0837 0.32109,-0.0312 0.41249,0.11667 0.19274,0.31186 0.93456,0.3486 1.34092,0.0664 z m -0.75802,-7.66382 c -0.0671,-0.25744 -0.12638,-0.11087 -0.13178,0.32569 -0.005,0.43656 0.0495,0.64719 0.12197,0.46806 0.0725,-0.17914 0.0769,-0.53632 0.01,-0.79375 z"
         id="path34" />
      <path
         style="fill:#304a35;stroke-width:1.51173"
         d="m 103.05521,162.17768 c -4.612036,-0.6037 -7.833955,-2.29838 -8.21322,-4.32003 -0.140613,-0.74953 -0.327397,-0.93776 -1.18574,-1.19493 -1.477899,-0.44279 -3.538134,-2.17809 -4.193674,-3.53225 -0.654634,-1.35229 -0.712677,-2.50489 -0.189233,-3.75766 0.351529,-0.84133 0.336461,-0.92818 -0.257925,-1.48658 -1.60205,-1.50505 -1.883676,-4.83847 -0.575757,-6.81487 1.345196,-2.03273 4.568963,-2.96393 7.362963,-2.12682 0.831337,0.24907 1.121129,0.23064 1.631523,-0.10378 0.973603,-0.63793 3.810293,-1.34143 4.776673,-1.18461 l 0.87651,0.14224 -0.0135,-2.68721 c -0.0104,-2.05797 0.0928,-2.8826 0.44054,-3.52157 0.47749,-0.87737 1.94833,-1.94378 2.68095,-1.94378 0.29325,0 0.43366,-0.23345 0.4376,-0.7276 0.0211,-2.64155 2.81847,-5.09028 5.81503,-5.09028 2.2406,0 4.67744,1.50611 5.32232,3.2895 0.2524,0.69799 0.50194,0.9212 1.13849,1.01834 0.44837,0.0684 0.8621,0.0817 0.9194,0.0296 0.0573,-0.0522 0.22681,-2.22721 0.37672,-4.83343 l 0.27256,-4.73857 -0.79486,-1.02219 c -1.86889,-2.40338 -2.523,-3.55252 -2.22592,-3.91047 0.34915,-0.4207 0.10346,-0.63882 -1.50451,-1.33568 -1.76013,-0.76281 -1.83918,-0.99446 -0.86002,-2.52035 0.46831,-0.72979 0.78306,-1.50517 0.69945,-1.72306 -0.61252,-1.59619 2.19077,1.44737 3.66782,3.98221 l 1.05834,1.81624 0.17882,-1.17908 c 0.42155,-2.77943 0.26027,-4.46539 -0.57746,-6.03684 -0.43752,-0.82073 -1.25318,-2.02353 -1.81256,-2.67289 -0.83269,-0.96663 -1.18975,-1.18665 -1.96979,-1.21374 -1.14231,-0.0397 -1.77214,-0.50211 -1.77214,-1.30117 0,-0.69808 0.66416,-1.35726 1.60365,-1.59163 0.54775,-0.136644 0.95341,0.0616 2.11667,1.03439 0.79148,0.66189 1.73671,1.61838 2.10052,2.12552 0.3638,0.50715 0.73517,0.92536 0.82527,0.92937 0.25063,0.0111 0.49149,-1.78324 0.49473,-3.68573 0.003,-1.615217 -0.0507,-1.763492 -0.97683,-2.711978 -0.73583,-0.753561 -0.86525,-1.003343 -0.51985,-1.003343 0.61656,0 1.76418,-0.772238 1.76418,-1.187123 0,-0.55042 1.2912,-3.216935 1.30767,-2.700522 0.0146,0.457013 0.0495,0.457761 0.79553,0.01705 1.1026,-0.651317 1.89762,-1.829148 1.95163,-2.891352 0.0551,-1.083273 0.15372,-1.10753 1.06591,-0.262144 1.18733,1.100386 0.85109,2.13293 -1.68422,5.172008 -1.31103,1.571531 -1.84902,2.928147 -1.84902,4.66252 v 1.422894 h 0.84995 c 0.59923,0 1.03444,-0.21463 1.47534,-0.7276 0.53976,-0.627981 0.56829,-0.638034 0.20838,-0.0734 -0.22935,0.3598 -0.41701,0.85281 -0.41701,1.09558 0,0.24277 -0.22777,0.95014 -0.50615,1.57194 -0.38005,0.84886 -0.44341,1.29555 -0.25433,1.79287 0.1597,0.42004 0.15936,0.7195 -9.2e-4,0.81855 -0.139,0.0859 -0.60601,0.60075 -1.0378,1.14408 l -0.78506,0.98787 -0.21934,5.36017 c -0.12064,2.94809 -0.22379,5.47923 -0.22922,5.62475 -0.005,0.14552 0.23551,0.29969 0.53544,0.34258 0.38936,0.0557 0.95691,-0.39482 1.98437,-1.57518 2.51662,-2.89108 2.43538,-2.80681 2.14921,-2.22923 -0.27728,0.55965 -0.0845,1.45195 0.59926,2.77427 0.49969,0.9663 0.50593,0.94986 -0.5949,1.56819 -0.43309,0.24326 -1.71457,1.3041 -2.84774,2.35743 l -2.06029,1.91514 -0.12004,2.9135 c -0.10352,2.51239 -0.0633,2.91351 0.29198,2.91351 0.22661,0 0.83722,0.40101 1.3569,0.89114 0.70422,0.66417 0.94488,1.10864 0.94488,1.74511 0,1.20046 0.75292,2.33632 1.77146,2.67247 0.47636,0.15721 1.11116,0.59738 1.41067,0.97814 0.46913,0.59641 0.71898,0.68305 1.80361,0.62548 0.69247,-0.0367 1.78873,0.13108 2.43613,0.37296 0.6474,0.24189 1.38545,0.43611 1.64011,0.43161 0.25466,-0.005 1.40184,-0.0256 2.54929,-0.047 1.61753,-0.0301 2.31601,0.0794 3.10885,0.48703 3.30588,1.69991 4.18768,5.24985 2.07674,8.3605 -0.617,0.9092 -0.63329,1.01771 -0.26081,1.738 0.49964,0.9662 0.51009,2.65822 0.0236,3.82256 -0.54146,1.2959 -2.37276,3.0116 -4.01894,3.76525 -1.10554,0.50613 -1.42821,0.78717 -1.42821,1.24397 0,0.32456 -0.2938,1.1797 -0.6529,1.90031 -1.62419,3.25934 -6.21921,4.39212 -13.76689,3.39387 -4.61176,-0.60995 -6.21771,-0.61713 -9.39271,-0.042 -3.23328,0.58566 -6.78645,0.76356 -9.12812,0.45705 z m 5.35621,-2.13542 c 0.9396,-0.16362 1.75614,-0.45358 1.83168,-0.65042 0.40921,-1.06639 -3.13268,-5.6959 -5.88328,-7.68989 -2.91095,-2.11022 -3.58818,-2.76332 -3.50071,-3.37592 0.13095,-0.91705 1.21957,-0.81281 3.08834,0.29573 2.53792,1.50547 4.86335,3.78923 6.62958,6.51079 2.00921,3.09597 2.65766,3.83176 2.93301,3.32811 0.41935,-0.76703 0.82915,-3.49362 0.81895,-5.44875 -0.0114,-2.18266 -0.67627,-4.0017 -2.06659,-5.65399 -0.85853,-1.02031 -2.7038,-2.28893 -3.98883,-2.74232 -0.90502,-0.31931 -1.06637,-0.30506 -1.61971,0.14301 -0.70291,0.56917 -1.74963,0.65421 -2.05464,0.16691 -0.11386,-0.1819 -0.33498,-0.98557 -0.49138,-1.78594 -0.26422,-1.35205 -0.36787,-1.49857 -1.46225,-2.06703 -1.37717,-0.71534 -2.54027,-0.66252 -4.313497,0.19588 -0.972196,0.47064 -1.283816,0.51289 -1.922727,0.26073 -0.41937,-0.16551 -1.67466,-0.31736 -2.789535,-0.33744 -1.801701,-0.0325 -2.102334,0.034 -2.7043,0.59771 -0.372491,0.34882 -0.809007,1.03343 -0.970037,1.52135 -0.434872,1.31768 0.05903,2.45804 1.743691,4.02599 1.50112,1.39712 1.615666,1.66724 1.186115,2.79705 -0.198489,0.52206 -0.442717,0.67868 -1.058333,0.67868 -1.060119,0 -1.054488,0.62939 0.01726,1.92961 0.847524,1.02819 2.251031,1.9314 2.402845,1.54631 0.04779,-0.12122 0.572648,-0.29621 1.16636,-0.38888 1.623291,-0.25336 1.997436,0.15103 2.05114,2.21699 l 0.04438,1.70743 1.455689,0.72871 c 1.483999,0.74288 5.224089,1.69989 6.857009,1.75455 0.4974,0.0166 1.66729,-0.10258 2.59976,-0.26496 z m 22.27696,-0.62523 c 0.61,-0.21522 1.47295,-0.65041 1.91768,-0.96708 0.79743,-0.56782 0.80619,-0.5994 0.63349,-2.28497 -0.13862,-1.35307 -0.0849,-1.84686 0.25783,-2.36993 0.38166,-0.58249 0.55876,-0.64063 1.49521,-0.49089 1.42311,0.22757 3.11393,-0.74512 4.03892,-2.3235 0.88139,-1.50399 0.85133,-1.98403 -0.14604,-2.33172 -1.02549,-0.35749 -1.35998,-1.17042 -0.87342,-2.12277 0.20076,-0.39295 0.52911,-0.80967 0.72967,-0.92604 0.20055,-0.11637 0.67681,-0.67469 1.05834,-1.2407 1.52472,-2.26197 0.39811,-4.66835 -2.3557,-5.03164 -1.33413,-0.17601 -2.78509,0.0992 -3.45511,0.65522 -0.54267,0.45038 -1.56286,0.0908 -1.91114,-0.67354 -0.26094,-0.57271 -0.47706,-0.6678 -1.51766,-0.6678 -1.77368,0 -3.69192,0.90487 -4.20346,1.98286 -0.22843,0.48138 -0.41532,1.05102 -0.41532,1.26587 0,0.65971 -0.60181,0.93173 -2.00829,0.90776 -1.62619,-0.0277 -3.5908,0.99723 -4.21122,2.19699 -0.67869,1.31243 -2.06082,7.43824 -2.0886,9.25693 -0.0333,2.18241 0.24535,3.23793 0.8254,3.12622 0.23973,-0.0462 1.14852,-1.27447 2.01954,-2.72956 1.74453,-2.91437 4.98504,-6.39862 7.10824,-7.6429 1.06438,-0.62377 1.30035,-0.67388 1.77559,-0.37708 0.89431,0.5585 0.63944,1.1721 -1.01592,2.44587 -1.9147,1.47332 -3.90436,3.66891 -5.46442,6.02997 -2.94861,4.46254 -2.86252,4.57755 3.48943,4.66139 2.24977,0.0297 3.53914,-0.0745 4.31696,-0.34896 z M 117.1871,142.52628 c 0.60392,-1.24752 2.09973,-8.31154 2.2082,-10.42826 l 0.0641,-1.2505 -1.11956,-0.15495 c -1.30059,-0.18002 -1.17671,-0.0833 -1.87146,-1.46166 -0.71313,-1.41486 -2.44204,-2.95275 -3.55403,-3.16136 -1.05906,-0.19868 -3.00262,0.49584 -3.38454,1.20946 -0.38491,0.71921 -0.30951,1.99375 0.14001,2.36682 0.85095,0.70623 0.0233,2.09826 -1.01143,1.70118 -0.21357,-0.082 -0.87625,-0.0176 -1.47261,0.14296 -1.58376,0.42646 -1.96613,1.30775 -1.73199,3.99187 0.17191,1.97072 0.14721,2.12287 -0.41908,2.58143 l -0.60176,0.48728 1.23825,1.03505 c 0.72739,0.60802 1.3227,1.36363 1.44294,1.83149 0.16956,0.65977 0.42912,0.86925 1.51248,1.22067 0.71928,0.23333 1.91627,0.79887 2.65996,1.25677 0.7437,0.45791 1.41336,0.83255 1.48814,0.83255 0.0748,0 0.0749,-1.07156 1.8e-4,-2.38125 l -0.13577,-2.38125 h 0.79805 c 1.14913,0 1.42366,0.50412 1.69174,3.10658 0.38069,3.69551 0.48329,3.90923 1.02629,2.13784 0.25331,-0.82635 0.71768,-2.03357 1.03192,-2.68272 z m 6.73688,-2.49555 c 0.34913,-0.5457 1.00547,-1.34189 1.45853,-1.76929 0.45306,-0.42741 0.82374,-0.90479 0.82374,-1.06084 0,-0.48979 -1.07022,-0.97874 -2.32607,-1.06269 -1.64356,-0.10988 -1.9898,-0.61798 -1.76455,-2.58947 0.11815,-1.03405 0.0808,-1.52136 -0.11674,-1.52136 -0.1598,0 -0.29056,0.32766 -0.29056,0.72813 0,0.40047 -0.23812,1.97781 -0.52916,3.50521 -0.81775,4.29156 -0.70055,4.7361 1.25345,4.75445 0.70464,0.007 0.96917,-0.16794 1.49136,-0.98414 z"
         id="path42" />
      <path
         style="fill:#302e22;stroke-width:1.51173"
         d="m 103.96444,162.15651 c -5.049271,-0.32989 -8.704261,-2.06976 -9.131436,-4.3468 -0.128558,-0.68527 -0.338138,-0.89674 -1.127232,-1.13736 -1.441654,-0.43962 -3.493928,-2.13096 -4.191235,-3.45411 -0.708907,-1.34516 -0.784509,-2.73505 -0.20882,-3.83898 0.381271,-0.73113 0.367996,-0.80773 -0.252178,-1.45521 -1.940346,-2.0258 -1.960954,-5.44465 -0.04528,-7.5117 1.466813,-1.58271 4.351806,-2.19966 6.82339,-1.45916 0.883706,0.26477 1.1554,0.24335 1.808686,-0.14255 0.928793,-0.54865 3.070035,-1.22054 3.902315,-1.22448 0.90608,-0.004 2.97166,1.13838 4.09225,2.26383 0.95752,0.96168 1.10713,1.30334 1.00602,2.29737 -0.0348,0.34262 0.14687,0.46302 0.69888,0.46302 1.24572,0 2.40138,0.44471 4.09551,1.57601 l 1.61526,1.07862 -0.18284,-2.25336 -0.18283,-2.25336 h 0.77515 c 0.42634,0 0.90638,0.15812 1.06677,0.35137 0.32932,0.39681 0.81835,3.43814 0.82627,5.13874 0.008,1.6245 0.4151,1.381 0.77828,-0.46503 0.17199,-0.87423 0.61377,-2.16978 0.98173,-2.87901 0.65367,-1.25992 1.92525,-6.86992 2.42051,-10.67888 l 0.23222,-1.78594 -1.07927,-0.004 c -1.38355,-0.005 -1.53173,-0.11604 -2.36579,-1.76973 -1.16427,-2.30842 -3.73676,-3.35538 -5.72201,-2.32877 -1.41649,0.7325 -2.00229,2.30943 -1.32679,3.57161 0.43779,0.81803 0.0482,1.32459 -1.01955,1.32568 -1.23565,0.001 -2.62035,0.84521 -2.84312,1.73282 -0.0955,0.38054 -0.0982,1.42886 -0.006,2.3296 0.1471,1.43574 0.10201,1.69403 -0.36563,2.09444 -1.32894,1.13787 -1.93454,0.30744 -1.94352,-2.66506 -0.005,-1.64825 0.11818,-2.53915 0.43359,-3.13651 0.45335,-0.8586 1.92576,-1.94378 2.63738,-1.94378 0.27029,0 0.45735,-0.37078 0.57167,-1.13309 0.68023,-4.53613 6.52121,-6.26618 9.86912,-2.92316 0.61348,0.61258 1.18868,1.4057 1.27823,1.76249 0.11472,0.45706 0.40345,0.69683 0.97737,0.81161 0.448,0.0896 0.87887,0.0986 0.95749,0.02 0.0786,-0.0786 0.25658,-2.25234 0.39547,-4.83048 l 0.25253,-4.68754 -1.49607,-2.07833 c -1.40971,-1.95837 -1.83397,-2.79195 -1.23148,-2.41959 0.40185,0.24835 0.31605,-0.47023 -0.13262,-1.1108 -0.21846,-0.3119 -0.78401,-0.6493 -1.25677,-0.74978 -1.31557,-0.27961 -1.81506,-0.828 -1.46131,-1.6044 0.1594,-0.34984 0.36409,-0.63606 0.45488,-0.63606 0.3454,0 1.07977,-1.55203 0.81252,-1.7172 -0.14783,-0.0914 -0.26338,-0.30792 -0.25677,-0.48123 0.0208,-0.54558 2.49932,2.38643 3.58136,4.23663 1.01872,1.74193 1.03904,1.75867 1.20366,0.9913 0.0921,-0.4293 0.18153,-1.70724 0.19875,-2.83986 0.0354,-2.33072 -0.39365,-3.43924 -2.32754,-6.01324 -0.98821,-1.3153 -1.18869,-1.45398 -2.12327,-1.46872 -1.97511,-0.0311 -2.5833,-1.53968 -1.00799,-2.50016 0.47294,-0.288363 0.99576,-0.524738 1.16182,-0.525282 0.4694,-0.0015 2.58792,1.848252 3.71105,3.240312 l 1.01411,1.25693 0.16713,-0.72776 c 0.0919,-0.40027 0.18122,-1.67524 0.19844,-2.83327 0.0311,-2.089232 0.0236,-2.113525 -0.96088,-3.14124 -0.55891,-0.58343 -0.76011,-0.916902 -0.46074,-0.76363 0.7014,0.359112 1.98209,-0.687274 1.98209,-1.619471 0,-0.799922 0.68543,-2.484703 0.83199,-2.045024 0.20117,0.603516 1.5427,-0.01755 2.45685,-1.13741 1.02518,-1.255871 1.23099,-2.01746 0.71364,-2.640821 -0.56471,-0.680439 0.0207,-0.514707 0.82887,0.234645 1.19845,1.111269 1.00188,1.818165 -1.29147,4.644381 -1.74457,2.149914 -2.21696,3.242173 -2.21696,5.125996 v 1.463704 h 0.90263 c 0.9442,0 1.0359,0.21878 0.49939,1.19139 -0.29015,0.52598 -0.46016,1.67595 -0.38359,2.59454 0.0256,0.30761 0.15652,0.40656 0.3663,0.27691 0.17951,-0.11095 -0.14791,0.37667 -0.72761,1.08359 l -1.054,1.28531 -0.28652,5.58153 c -0.17878,3.48269 -0.19321,5.7038 -0.0384,5.90669 0.37937,0.49709 1.0002,0.0432 2.80969,-2.05395 0.88893,-1.03028 1.61624,-1.7712 1.61624,-1.6465 0,0.12471 -0.12532,0.35206 -0.27849,0.50524 -0.19494,0.19494 -0.0802,0.72698 0.38258,1.7733 l 0.66107,1.49481 -0.71331,0.38918 c -0.39232,0.21405 -1.68137,1.31511 -2.86456,2.4468 l -2.15126,2.05762 -0.0437,2.80714 -0.0437,2.80713 0.81487,0.33753 c 1.0751,0.44532 1.85527,1.47289 1.85527,2.44358 0,1.13528 0.77451,2.27286 1.77146,2.60188 0.47636,0.15721 1.11116,0.59738 1.41067,0.97814 0.46913,0.59641 0.71898,0.68305 1.80361,0.62548 0.69247,-0.0367 1.78873,0.12886 2.43613,0.36803 0.81602,0.30147 1.92425,0.42298 3.61278,0.39614 2.87358,-0.0457 4.23453,0.42715 5.55352,1.92942 1.731,1.97152 1.80895,4.5534 0.20869,6.91153 -0.617,0.9092 -0.63329,1.01771 -0.26081,1.738 0.45463,0.87915 0.5189,2.5569 0.13647,3.56274 -0.45585,1.199 -2.70141,3.36055 -4.17096,4.01492 -0.76398,0.3402 -1.38972,0.76887 -1.39053,0.95261 -0.008,1.85155 -1.65106,4.05645 -3.66944,4.92474 -2.86315,1.23169 -6.16973,1.33184 -13.06189,0.39563 -3.20636,-0.43554 -3.48473,-0.43521 -5.68854,0.007 -3.1193,0.62561 -6.55187,0.86222 -9.61005,0.66241 z m 3.52254,-0.40678 c -0.1819,-0.0734 -0.47956,-0.0734 -0.66146,0 -0.1819,0.0734 -0.0331,0.13345 0.33073,0.13345 0.3638,0 0.51263,-0.06 0.33073,-0.13345 z m 21.69583,-0.26458 c -0.1819,-0.0734 -0.47956,-0.0734 -0.66146,0 -0.1819,0.0734 -0.0331,0.13345 0.33073,0.13345 0.3638,0 0.51263,-0.06 0.33073,-0.13345 z m -15.21905,-0.51379 c -0.0879,-0.0879 -0.31612,-0.0973 -0.50712,-0.0209 -0.21107,0.0845 -0.14837,0.14716 0.15985,0.15985 0.27892,0.0115 0.43519,-0.051 0.34727,-0.13896 z m 5.96367,-0.0137 c -0.17913,-0.0725 -0.53632,-0.0769 -0.79375,-0.01 -0.25743,0.0671 -0.11087,0.12638 0.32569,0.13177 0.43657,0.005 0.64719,-0.0495 0.46806,-0.12197 z m -11.05299,-0.70841 c 1.10384,-0.22948 1.61193,-0.46486 1.67154,-0.77436 0.11599,-0.60229 -2.04973,-3.89837 -3.72612,-5.67091 -0.75002,-0.79303 -2.22589,-2.0908 -3.27972,-2.88393 -2.11551,-1.59219 -2.34523,-1.8416 -1.93161,-2.09724 0.19266,-0.11907 0.17311,-0.30608 -0.0618,-0.59142 -0.68398,-0.83072 1.54493,-0.14958 3.20949,0.9808 3.01466,2.04721 5.49777,4.92371 7.26268,8.41329 0.3864,0.76398 0.88208,1.38906 1.10151,1.38906 0.54081,0 0.76438,-0.70411 1.27221,-4.00667 0.38736,-2.51915 0.39136,-2.93412 0.0379,-3.93587 -0.2173,-0.6159 -0.39509,-1.27272 -0.39509,-1.4596 0,-0.67288 -3.19129,-3.76198 -4.73822,-4.58648 -1.72241,-0.91804 -2.29222,-0.99698 -3.05142,-0.42275 -1.08898,0.82366 -1.96518,0.22837 -2.03626,-1.38346 -0.0604,-1.37038 -0.27428,-1.71411 -1.37832,-2.21541 -1.35818,-0.61669 -2.846327,-0.64671 -3.943125,-0.0795 -0.67637,0.34977 -1.235212,0.39417 -2.963423,0.23547 -3.062521,-0.28123 -3.768338,-0.23355 -4.713447,0.31842 -1.022319,0.59707 -1.651381,2.07101 -1.409758,3.30317 0.101588,0.51806 0.704331,1.44874 1.486786,2.29571 0.886427,0.95953 1.314613,1.65038 1.311883,2.11667 -0.0053,0.90224 -0.389987,1.48597 -0.979331,1.48597 -0.854668,0 -0.703705,1.07887 0.307597,2.19826 0.997081,1.10365 2.554379,2.02341 2.787445,1.6463 0.07618,-0.12327 0.579381,-0.30683 1.118221,-0.40791 0.90483,-0.16975 0.993195,-0.13006 1.15616,0.51924 0.09705,0.38667 0.110234,1.11109 0.0293,1.60982 -0.130457,0.80391 -0.03656,0.99802 0.827607,1.711 0.55218,0.45557 1.777676,1.03964 2.826845,1.34727 1.01864,0.29868 2.32833,0.69857 2.91042,0.88864 1.37257,0.44819 3.30648,0.46884 5.29006,0.0565 z m 22.32997,-0.98291 c 2.01559,-0.86708 2.27788,-1.28799 2.27788,-3.65545 v -2.02031 l 1.33517,-0.0112 c 1.62657,-0.0137 3.01192,-0.79312 4.11409,-2.31462 1.03617,-1.43039 0.98914,-2.16311 -0.20927,-3.26081 l -0.97772,-0.89556 0.5147,-0.64024 c 0.28308,-0.35213 0.8628,-1.0751 1.28826,-1.60661 1.04096,-1.30041 1.25536,-3.38068 0.45313,-4.39672 -0.71322,-0.90331 -2.56091,-1.42017 -4.20332,-1.1758 -3.19565,0.47548 -3.09837,0.47806 -3.61806,-0.0962 -0.37413,-0.41341 -0.81783,-0.55115 -1.77534,-0.55115 -2.4325,0 -4.46226,1.3585 -4.46226,2.98654 0,0.72212 -0.52924,0.96825 -2.11667,0.9844 -1.87179,0.0191 -3.8022,1.33817 -4.44952,3.04051 -0.6117,1.60869 -1.63446,6.15633 -1.94604,8.65297 -0.2979,2.38703 -0.28594,2.60851 0.168,3.11011 0.73548,0.81269 1.04489,0.67209 1.86839,-0.84901 2.21639,-4.09399 4.86424,-7.26629 7.68469,-9.20682 1.21277,-0.83441 1.51269,-0.83473 1.95828,-0.002 0.21761,0.4066 -0.12519,0.86229 -2.12059,2.81893 -3.45144,3.3844 -6.81562,8.46505 -6.08793,9.19411 0.41895,0.41974 3.3411,0.67339 6.42039,0.5573 1.87152,-0.0706 2.92665,-0.25046 3.88374,-0.66219 z m -7.07928,-19.31871 c 0.44013,-0.7153 1.16565,-1.58653 1.61228,-1.93606 1.29426,-1.01292 0.95906,-1.4188 -1.91241,-2.31563 l -1.19063,-0.37187 0.0749,-1.39281 c 0.0492,-0.91484 -0.0611,-1.58704 -0.3215,-1.95879 -0.49641,-0.70873 -0.44465,-0.87932 -1.36676,4.50477 -0.52235,3.04992 -0.65394,4.37077 -0.4481,4.49792 0.16028,0.099 0.84504,0.20094 1.52169,0.22651 1.20501,0.0456 1.24669,0.0198 2.0305,-1.25404 z m 11.93685,-2.53956 c -0.1819,-0.0734 -0.47956,-0.0734 -0.66146,0 -0.1819,0.0734 -0.0331,0.13345 0.33073,0.13345 0.3638,0 0.51263,-0.0601 0.33073,-0.13345 z m 1.32291,0 c -0.1819,-0.0734 -0.47955,-0.0734 -0.66145,0 -0.1819,0.0734 -0.0331,0.13345 0.33073,0.13345 0.3638,0 0.51263,-0.0601 0.33072,-0.13345 z M 127,135.36268 c 0,-0.0572 -0.18478,-0.17489 -0.41062,-0.26155 -0.23546,-0.0904 -0.34166,-0.046 -0.24897,0.10398 0.15538,0.25141 0.65959,0.37186 0.65959,0.15757 z m -23.36718,-2.32687 c -0.0845,-0.21107 -0.14715,-0.14837 -0.15985,0.15985 -0.0115,0.27892 0.051,0.43518 0.13897,0.34727 0.0879,-0.0879 0.0973,-0.31613 0.0209,-0.50712 z m 16.93334,-6.35 c -0.0845,-0.21107 -0.14716,-0.14837 -0.15986,0.15985 -0.0115,0.27892 0.0511,0.43519 0.13897,0.34727 0.0879,-0.0879 0.0973,-0.31613 0.0209,-0.50712 z m 2.11928,-18.40004 c -0.0671,-0.25743 -0.12638,-0.11087 -0.13178,0.32569 -0.005,0.43656 0.0495,0.64719 0.12197,0.46806 0.0725,-0.17913 0.0769,-0.53632 0.01,-0.79375 z"
         id="path50" />
    </g>
  </g>
</svg>
