<?xml version="1.0" encoding="UTF-8" standalone="no"?>
<!-- Created with Inkscape (http://www.inkscape.org/) -->

<svg
   width="185"
   height="185"
   viewBox="0 0 48.947914 48.947918"
   version="1.1"
   id="svg1"
   sodipodi:docname="plectranthus-ornatus-4.svg"
   inkscape:version="1.4 (e7c3feb100, 2024-10-09)"
   xmlns:inkscape="http://www.inkscape.org/namespaces/inkscape"
   xmlns:sodipodi="http://sodipodi.sourceforge.net/DTD/sodipodi-0.dtd"
   xmlns="http://www.w3.org/2000/svg"
   xmlns:svg="http://www.w3.org/2000/svg">
  <sodipodi:namedview
     id="namedview1"
     pagecolor="#ffffff"
     bordercolor="#666666"
     borderopacity="1.0"
     inkscape:showpageshadow="2"
     inkscape:pageopacity="0.0"
     inkscape:pagecheckerboard="0"
     inkscape:deskcolor="#d1d1d1"
     inkscape:document-units="mm"
     inkscape:zoom="1.8041143"
     inkscape:cx="145.22361"
     inkscape:cy="120.28063"
     inkscape:current-layer="layer1" />
  <defs
     id="defs1" />
  <g
     inkscape:label="Ebene 1"
     inkscape:groupmode="layer"
     id="layer1">
    <g
       id="g54"
       style="display:inline;stroke-width:1.76024"
       transform="matrix(0.56810326,0,0,0.56810326,3.9070947,7.0931404)">
      <path
         style="fill:#9471a7;stroke-width:1.76024"
         d="m 25.393469,73.57523 c -1.627017,-0.225696 -2.496732,-0.606594 -2.857656,-1.251531 -0.221836,-0.396397 -0.394256,-0.39313 -2.165935,0.04104 -2.590627,0.634866 -4.365758,0.607734 -5.728648,-0.08756 -1.245539,-0.635426 -2.639634,-2.192343 -2.866906,-3.201744 -0.11677,-0.51862 -0.512092,-0.836164 -1.664254,-1.336818 C 8.3163777,66.958747 6.6717515,65.549571 6.1772671,64.368398 5.4924326,62.732537 5.8603188,60.48662 6.9630157,59.571463 c 0.2882724,-0.239245 0.3508862,-0.726502 0.2525209,-1.965104 -0.317044,-3.992171 1.9204175,-6.853508 5.6915794,-7.278573 0.905796,-0.102096 1.376076,-0.32566 1.836782,-0.873179 0.340592,-0.40477 1.042014,-0.875468 1.558715,-1.045995 0.936691,-0.309135 4.18886,-0.22724 5.286584,0.133126 0.449183,0.14746 0.619111,0.02692 0.8925,-0.633098 0.504458,-1.21787 1.890943,-2.291479 3.438814,-2.662807 0.754397,-0.180977 1.690041,-0.624912 2.079208,-0.986521 2.093849,-1.945578 5.03331,-2.355503 7.767942,-1.083285 l 1.504115,0.699752 1.538593,-0.632649 c 2.854956,-1.173918 5.622378,-0.765483 7.413352,1.094116 0.611742,0.635182 1.434054,1.235642 1.827359,1.334355 0.730395,0.183318 2.985458,2.209113 3.472593,3.119541 0.258465,0.483057 0.31699,0.485891 1.366036,0.06615 1.327026,-0.53097 3.698896,-0.569651 4.8721,-0.07945 0.472667,0.197492 1.220538,0.720221 1.661936,1.16162 0.557926,0.557925 1.250119,0.895459 2.270959,1.107384 3.209981,0.66639 5.399069,3.672715 5.213955,7.160445 -0.05509,1.037849 0.05791,1.411944 0.632865,2.095239 1.241968,1.475994 1.262476,3.419052 0.05338,5.057883 -0.873552,1.184034 -2.933123,2.603849 -4.262801,2.938666 -0.893184,0.224906 -1.12599,0.413592 -1.245098,1.009132 -0.199436,0.997182 -1.351996,2.308939 -2.578498,2.934654 -1.327925,0.677457 -3.774311,0.678959 -6.200692,0.0038 l -1.846357,-0.513757 -0.875599,0.844486 -0.875598,0.844486 -3.490027,-0.01385 c -2.696963,-0.0107 -3.963292,-0.141711 -5.572726,-0.576529 -1.499073,-0.405002 -2.263867,-0.4938 -2.729203,-0.31688 -0.355577,0.13519 -1.40685,0.2458 -2.336162,0.2458 -0.929312,0 -2.340689,0.169572 -3.136393,0.376827 -1.874446,0.488231 -5.199623,0.694529 -7.052285,0.437533 z"
         id="path12" />
      <path
         style="fill:#458f6d;stroke-width:1.76024"
         d="m 23.912597,73.173985 c -0.454272,-0.19771 -0.994903,-0.600689 -1.201403,-0.895509 -0.374467,-0.534626 -0.380286,-0.534697 -2.211033,-0.02705 -4.32756,1.199996 -7.561573,0.06511 -8.576324,-3.009613 C 11.686422,68.522445 11.369575,68.2471 10.240834,67.779263 6.6767766,66.302044 5.0012964,63.32266 6.2522023,60.686571 6.4894521,60.186605 6.8997204,59.661858 7.1639096,59.520468 7.5733198,59.301359 7.6022079,59.142784 7.3595319,58.446643 7.2029349,57.997428 7.1396835,57.001327 7.2189732,56.233084 c 0.332197,-3.21868 2.5739094,-5.503632 5.7709598,-5.882276 0.929255,-0.110056 1.401133,-0.308263 1.594622,-0.669801 0.705296,-1.317856 4.390889,-1.955118 6.648262,-1.149525 0.718878,0.256547 0.992188,0.270267 0.992188,0.04981 0,-0.167353 0.301709,-0.748284 0.670465,-1.290957 0.751088,-1.105325 2.36209,-2.046576 3.502826,-2.046576 0.503715,0 1.013287,-0.275476 1.531895,-0.828146 1.852607,-1.974287 4.88969,-2.43587 7.707348,-1.17138 l 1.564922,0.702295 1.308668,-0.592204 c 2.746734,-1.242967 6.743394,-0.609844 7.970261,1.262593 0.248394,0.379097 0.994276,0.921366 1.657516,1.205041 1.412567,0.604172 2.223347,1.300229 3.082418,2.646266 l 0.62259,0.975506 0.861065,-0.429556 c 2.196517,-1.095767 5.298261,-0.57551 6.805861,1.141551 0.600812,0.684287 1.012473,0.910303 1.665975,0.914678 3.126896,0.02093 6.085169,3.829862 5.690947,7.327387 -0.109856,0.97464 -0.02949,1.272682 0.480738,1.782913 0.859829,0.859829 1.238001,2.420472 0.891028,3.677103 -0.509108,1.843837 -2.97784,3.937506 -5.301078,4.495711 -0.510156,0.122575 -0.737677,0.385869 -0.85941,0.994533 -0.09106,0.455303 -0.614952,1.277211 -1.164204,1.826463 -1.666451,1.666451 -4.015357,1.996014 -7.447496,1.044919 l -1.952236,-0.540992 -0.68828,0.656452 c -0.378553,0.361048 -1.023452,0.783088 -1.433107,0.937867 -1.307617,0.494052 -4.821157,0.324283 -7.987915,-0.385963 -2.292516,-0.514169 -3.138958,-0.605279 -3.687102,-0.396875 -0.391313,0.148777 -1.388381,0.270503 -2.215706,0.270503 -0.827326,0 -2.337622,0.176527 -3.356213,0.392281 -2.3479,0.497324 -7.112107,0.509639 -8.234184,0.02128 z"
         id="path21" />
      <path
         style="fill:#3c8d69;stroke-width:1.76024"
         d="m 23.912597,73.173985 c -0.454272,-0.19771 -0.992256,-0.596909 -1.19552,-0.88711 -0.369011,-0.526837 -0.372773,-0.526841 -2.481343,-0.0024 -4.149756,1.032127 -6.69063,0.203077 -8.064895,-2.631456 -0.548461,-1.131244 -0.854851,-1.43858 -1.793532,-1.799071 C 8.551482,67.152759 6.7354226,65.553885 6.2139876,64.188527 5.5985497,62.577026 5.8471904,60.916014 6.8546694,59.908535 c 0.6748543,-0.674854 0.7218197,-0.836633 0.4883498,-1.682192 -0.9852597,-3.568316 1.8183666,-7.511766 5.5495668,-7.80576 0.945914,-0.07453 1.373981,-0.259831 1.782874,-0.771758 1.113836,-1.394508 4.272528,-1.932734 6.557357,-1.117343 0.770877,0.275104 0.992188,0.281369 0.992188,0.02808 0,-0.179299 0.345052,-0.802329 0.766782,-1.384511 0.76398,-1.054643 2.355417,-1.9313 3.505983,-1.9313 0.30684,0 1.031955,-0.428288 1.611366,-0.951751 1.412854,-1.276429 2.512205,-1.694082 4.459181,-1.694082 1.181866,0 2.046781,0.187462 3.150758,0.682898 l 1.521698,0.682898 1.421803,-0.616752 c 2.874937,-1.247095 6.74498,-0.56897 7.859713,1.377211 0.242691,0.423707 0.74372,0.836988 1.113398,0.918402 1.166828,0.256969 2.330821,1.132129 3.299974,2.481118 l 0.937768,1.305305 0.846307,-0.422194 c 2.182063,-1.088556 5.287929,-0.563108 6.791104,1.148913 0.600812,0.684287 1.012473,0.910303 1.665975,0.914678 3.184704,0.02132 6.100772,3.848066 5.674566,7.446711 -0.08905,0.751883 -0.04597,1.278728 0.10456,1.278728 0.140803,0 0.491936,0.386953 0.780295,0.859896 0.628364,1.030591 0.69862,3.066421 0.142907,4.14105 -0.728946,1.409627 -3.060567,3.098012 -4.7688,3.453208 -0.607594,0.126338 -0.844747,0.366521 -1.042408,1.055722 -0.38165,1.330738 -1.928691,2.81354 -3.330432,3.192142 -1.47985,0.399699 -3.905806,0.216713 -5.8291,-0.43968 l -1.463475,-0.499463 -0.599782,0.724226 c -1.156604,1.396577 -4.483866,1.662549 -8.776392,0.701561 -1.382448,-0.309495 -2.870729,-0.548286 -3.307292,-0.530647 -3.106833,0.125528 -5.249431,0.344814 -6.787748,0.694697 -2.232351,0.507737 -6.918969,0.522525 -8.061117,0.02544 z m 6.117616,-2.26333 c 2.03897,-0.332914 3.042708,-0.753717 3.042708,-1.275612 0,-0.371487 -0.03492,-0.370316 -0.330729,0.01109 -0.181901,0.234543 -0.806979,0.554291 -1.389063,0.710553 -1.499909,0.402654 -6.021734,0.372101 -6.462447,-0.04367 -0.282928,-0.266914 -0.32737,-0.25415 -0.230322,0.06615 0.211942,0.699493 2.782578,0.953924 5.369853,0.531484 z m 17.330207,-0.01966 c 0.945886,-0.152862 1.838854,-0.403469 1.984375,-0.556906 0.183732,-0.193726 0.07427,-0.22135 -0.358207,-0.0904 -1.204979,0.364866 -3.361356,0.534772 -4.801168,0.378295 -1.724514,-0.187418 -1.978741,-0.104289 -0.756618,0.247405 1.19913,0.345077 1.905965,0.34896 3.931618,0.0216 z m 9.392708,-0.757558 c -1.355929,-0.175501 -2.264408,-0.553643 -3.146333,-1.309618 -0.473902,-0.406223 -0.483041,-0.400549 -0.17196,0.106776 0.466586,0.76093 2.057137,1.399767 3.450585,1.385911 l 1.190625,-0.01184 z M 47.955733,69.93936 c -0.181901,-0.0734 -0.479558,-0.0734 -0.661459,0 -0.181901,0.0734 -0.03307,0.133452 0.33073,0.133452 0.363802,0 0.51263,-0.06005 0.330729,-0.133452 z M 15.412524,69.4436 c -0.319123,-0.223522 -0.699182,-0.610475 -0.844576,-0.859896 -0.145393,-0.24942 -0.267972,-0.309301 -0.272397,-0.133068 -0.0095,0.378137 1.029444,1.399369 1.423633,1.399369 0.15046,0 0.01246,-0.182882 -0.30666,-0.406405 z M 33.484287,69.084277 C 32.78506,67.73212 30.16888,65.679942 27.255901,64.198619 24.6683,62.882759 18.371725,60.650507 18.077519,60.944713 c -0.06897,0.06897 1.461078,0.630754 3.400106,1.248412 4.541469,1.446638 9.725537,4.132905 9.301118,4.81963 -0.09824,0.158954 -0.03948,0.193235 0.140518,0.08199 0.344965,-0.2132 2.418243,1.855435 2.418243,2.412827 0,0.188339 0.12212,0.342435 0.271378,0.342435 0.156747,0 0.104118,-0.323445 -0.124595,-0.765727 z m -8.989495,-0.497343 c -0.455597,-0.436374 -0.461235,-0.430736 -0.126559,0.126558 0.192655,0.320804 0.407233,0.526328 0.47684,0.456721 0.06961,-0.06961 -0.08802,-0.332083 -0.350281,-0.583279 z m -0.764128,-0.418978 c 0.269547,-0.269547 -1.072522,-0.198134 -2.609953,0.138879 -2.203064,0.482922 -2.023329,0.67308 0.317917,0.336352 1.1671,-0.167858 2.198517,-0.381712 2.292036,-0.475231 z m 18.464999,-0.504469 c 0.122382,0.111178 0.148824,0.07266 0.05876,-0.08559 -0.236205,-0.41504 1.803842,-2.335624 2.212578,-2.083012 0.205937,0.127276 0.262389,0.09521 0.150655,-0.08558 -0.100989,-0.163404 0.356053,-0.697437 1.051057,-1.228112 0.91328,-0.697342 1.408345,-0.904765 1.923749,-0.806018 0.580805,0.111277 0.60769,0.09363 0.164833,-0.10821 -0.461544,-0.210355 -0.343204,-0.324416 0.926042,-0.892557 0.800364,-0.358261 2.288646,-0.79869 3.307291,-0.978732 2.955835,-0.522433 3.112591,-0.559814 2.965291,-0.707114 -0.203882,-0.203882 -4.558496,0.650921 -5.839592,1.146302 -2.211036,0.854975 -7.66985,5.088577 -8.411347,6.52345 -0.241669,0.467653 -0.157136,0.438953 0.48793,-0.165657 0.429132,-0.40222 0.880371,-0.640345 1.002753,-0.529167 z m 16.961551,-0.525462 -0.02284,-1.124479 1.878596,-0.167918 c 1.981707,-0.177134 2.689007,-0.433099 3.302539,-1.195157 0.296147,-0.367839 0.173593,-0.34303 -0.582157,0.117846 -0.675686,0.412052 -1.37828,0.583771 -2.388524,0.583771 -2.160534,0 -3.05384,0.909798 -2.44673,2.491901 0.242928,0.633061 0.284031,0.521076 0.259112,-0.705964 z m -37.924397,0.684667 c -0.181901,-0.0734 -0.479557,-0.0734 -0.661458,0 -0.181901,0.0734 -0.03307,0.133452 0.330729,0.133452 0.363802,0 0.51263,-0.06005 0.330729,-0.133452 z m 21.98995,-0.48623 c -0.165933,-0.432415 -0.624846,-0.545769 -0.624846,-0.15434 0,0.200819 0.185429,0.337533 0.7193,0.530327 0.03181,0.01149 -0.01069,-0.157705 -0.09445,-0.375987 z m 8.900153,-0.0956 c 0,-0.125341 -0.297656,-0.170992 -0.661458,-0.101447 -0.363802,0.06954 -0.661459,0.172097 -0.661459,0.227893 0,0.0558 0.297657,0.101447 0.661459,0.101447 0.363802,0 0.661458,-0.102552 0.661458,-0.227893 z M 14.727317,66.344275 c -0.0734,-0.181901 -0.133452,-0.03307 -0.133452,0.330729 0,0.363802 0.06005,0.51263 0.133452,0.330729 0.0734,-0.181901 0.0734,-0.479557 0,-0.661458 z m 23.108104,0.09423 c 0,-1.613498 2.632896,-7.496835 4.297232,-9.602378 1.110101,-1.404383 2.863629,-2.657563 4.408416,-3.150528 1.181487,-0.37703 1.746542,-0.846139 0.635325,-0.527446 -2.89765,0.831035 -5.35481,3.0373 -7.060247,6.339341 -1.088888,2.108287 -2.809893,6.659381 -2.809893,7.430592 0,0.169024 0.119063,0.233732 0.264583,0.143795 0.145521,-0.08994 0.264584,-0.374956 0.264584,-0.633376 z m 3.507341,-2.03965 c 3.861145,-3.642408 7.841165,-5.488228 11.890041,-5.514264 1.321697,-0.0085 2.202123,-0.113759 2.069273,-0.247394 -0.127178,-0.12793 -1.221938,-0.173873 -2.432799,-0.102095 -2.166396,0.128422 -3.832041,0.568338 -5.891851,1.556109 -0.57445,0.275474 -1.288825,0.432972 -1.5875,0.349996 -0.367587,-0.10212 -0.432894,-0.07407 -0.202122,0.08682 0.248585,0.173308 -0.03807,0.490853 -1.058333,1.172388 -1.496576,0.99971 -5.258341,4.427656 -4.871015,4.43876 0.127826,0.0037 1.065764,-0.779479 2.084306,-1.74032 z m -28.076756,0.679849 c -0.343543,-0.286201 -0.938855,-0.508177 -1.322916,-0.493281 -0.625022,0.02424 -0.605493,0.04902 0.186116,0.23618 0.486426,0.115003 1.016254,0.340941 1.177396,0.502083 0.161143,0.161143 0.358471,0.289026 0.438508,0.284184 0.08004,-0.0048 -0.13556,-0.242966 -0.479104,-0.529166 z m 21.577769,-0.449183 c -0.06708,-0.257431 -0.126382,-0.110869 -0.131774,0.325694 -0.0054,0.436562 0.04949,0.647187 0.12197,0.468056 0.07248,-0.179132 0.07689,-0.536319 0.0098,-0.79375 z m -1.241687,0.605121 c 0,-0.0646 -0.87257,-0.774162 -1.939043,-1.576813 -1.969303,-1.48214 -3.029552,-2.030885 -3.832869,-1.983747 -0.245188,0.01439 0.0587,0.184982 0.675305,0.3791 1.009355,0.317761 1.712398,0.791999 3.9956,2.695234 0.666189,0.555323 1.101007,0.747347 1.101007,0.486226 z M 9.6163071,63.620885 c -0.086171,-0.224557 -0.2134188,-0.351541 -0.2827736,-0.282186 -0.069355,0.06935 -0.047619,0.253083 0.048301,0.408286 0.2608923,0.422132 0.4133795,0.340124 0.2344726,-0.1261 z M 34.129571,61.582606 c -0.833741,-2.74491 -1.713514,-4.328374 -3.369351,-6.064346 -1.580218,-1.656695 -3.225298,-2.611679 -4.451563,-2.584176 -0.585652,0.01313 -0.422378,0.112561 0.664678,0.404754 1.668056,0.448362 1.859925,0.577618 1.337086,0.90075 -0.209852,0.129696 -0.279401,0.331582 -0.154552,0.448635 0.124849,0.117053 0.280151,0.06399 0.345115,-0.117906 0.225162,-0.630452 0.820898,-0.323887 2.097992,1.079625 1.492448,1.640183 2.731705,4.048333 3.415868,6.637787 0.265992,1.006738 0.53086,1.688718 0.588595,1.515512 0.05774,-0.173207 -0.155505,-1.172493 -0.473868,-2.220635 z M 8.5603964,62.711854 C 8.4237857,62.0288 8.5001227,61.886689 9.1328723,61.646118 9.5344305,61.493446 9.79065,61.296204 9.702249,61.207803 c -0.088401,-0.0884 -0.462101,0.03674 -0.8304445,0.278086 -0.6336043,0.415153 -0.9049797,1.426073 -0.4933266,1.837726 0.3093075,0.309308 0.3432821,0.195057 0.1819185,-0.611761 z m 15.1804506,0.628298 c -0.08792,-0.08792 -0.316122,-0.09732 -0.507118,-0.02089 -0.211067,0.08446 -0.148372,0.147156 0.159852,0.159852 0.278915,0.01149 0.435185,-0.05104 0.347266,-0.138964 z m 26.987498,0 c -0.08792,-0.08792 -0.316122,-0.09732 -0.507118,-0.02089 -0.211066,0.08446 -0.148372,0.147156 0.159853,0.159852 0.278915,0.01149 0.435184,-0.05104 0.347265,-0.138964 z M 21.960422,62.970838 c 0.342023,-0.221033 0.335039,-0.257041 -0.05053,-0.260532 -0.246074,-0.0022 -0.520991,0.115011 -0.610928,0.260532 -0.206952,0.334856 0.143306,0.334856 0.661459,0 z m 26.987498,0 c 0,-0.145521 -0.126089,-0.264584 -0.280198,-0.264584 -0.154109,0 -0.206614,0.119063 -0.116677,0.264584 0.08994,0.14552 0.216026,0.264583 0.280198,0.264583 0.06417,0 0.116677,-0.119063 0.116677,-0.264583 z M 33.429933,62.317853 c 0.08197,-0.213621 0.03518,-0.458773 -0.103984,-0.544782 -0.139165,-0.08601 -0.253028,0.08877 -0.253028,0.388402 0,0.638853 0.147138,0.703303 0.357012,0.15638 z m 17.538801,0.04328 c 0.101226,-0.101226 -0.14048,-0.184047 -0.537123,-0.184047 -0.396644,0 -0.65414,0.108458 -0.572214,0.241017 0.164155,0.265608 0.820464,0.231903 1.109337,-0.05697 z M 40.348962,61.383338 c 0.08994,-0.145521 0.03743,-0.264584 -0.116676,-0.264584 -0.154109,0 -0.280199,0.119063 -0.280199,0.264584 0,0.145521 0.05251,0.264583 0.116677,0.264583 0.06417,0 0.190261,-0.119062 0.280198,-0.264583 z M 25.79688,60.967314 c -0.582084,-0.208306 -1.296459,-0.496433 -1.5875,-0.640284 -1.553502,-0.767833 -4.235136,-1.585151 -5.099269,-1.554174 -0.985065,0.03531 -0.984841,0.03555 0.204477,0.219349 0.654844,0.101199 2.262188,0.608469 3.571875,1.127268 3.014996,1.194313 3.094702,1.221634 3.571875,1.224334 0.218281,0.0012 -0.07938,-0.168187 -0.661458,-0.376493 z M 10.687323,60.70024 c 0.287426,-0.749019 0.169622,-1.890454 -0.229274,-2.221508 -0.9408405,-0.780828 -0.7063583,-3.37936 0.394871,-4.375958 0.405074,-0.366587 0.594549,-0.398736 0.892526,-0.151437 0.292169,0.242478 0.423066,0.241485 0.57501,-0.0044 0.12025,-0.194569 0.08509,-0.249314 -0.09046,-0.140823 -0.157949,0.09762 -0.362104,0.05626 -0.453676,-0.09191 -0.189868,-0.307212 1.10602,-0.87963 1.47505,-0.651557 0.133309,0.08239 0.24238,0.01425 0.24238,-0.151421 0,-0.201647 -0.284253,-0.239665 -0.859895,-0.115009 -2.618763,0.567097 -3.9045484,3.400705 -2.542865,5.603955 0.479212,0.775382 0.523575,1.053987 0.289348,1.817167 -0.271836,0.885723 -0.0073,1.301839 0.30698,0.482863 z m 22.296243,-0.441381 c -0.0734,-0.181901 -0.133452,-0.03307 -0.133452,0.330729 0,0.363802 0.06005,0.51263 0.133452,0.330729 0.0734,-0.181901 0.0734,-0.479557 0,-0.661458 z M 64.03573,59.332817 c 0.695069,-0.880867 0.57882,-2.466024 -0.294849,-4.020507 -0.500887,-0.891209 -1.687483,-1.86804 -2.266076,-1.865483 -0.123068,5.44e-4 0.156723,0.232985 0.621759,0.516535 1.079196,0.658028 1.569027,1.419087 1.916827,2.978212 0.34118,1.529445 -0.04814,2.689029 -0.820508,2.443888 -0.360638,-0.114462 -0.442963,-0.04827 -0.324366,0.260783 0.2273,0.592336 0.513043,0.515606 1.167213,-0.313428 z M 35.872442,57.944538 c -0.352843,-1.257522 -0.410531,-2.12869 -0.268809,-4.059384 l 0.180447,-2.458249 -0.869693,-0.421206 c -1.138249,-0.55127 -1.890374,-0.261353 -2.282765,0.879926 -0.329665,0.958836 -0.54078,1.001987 -1.577812,0.322498 -0.510029,-0.334184 -0.580251,-0.487362 -0.31178,-0.680101 0.249146,-0.178865 0.2097,-0.20434 -0.140381,-0.09066 -0.699947,0.227292 -1.188904,-0.145673 -0.553874,-0.422482 0.392877,-0.171255 0.347629,-0.191419 -0.194975,-0.08689 -0.862022,0.166068 -1.601285,-0.08321 -1.367687,-0.461177 0.09441,-0.152757 0.06094,-0.209317 -0.07437,-0.12569 -0.135312,0.08363 -0.969459,-0.0468 -1.85366,-0.289849 -1.471747,-0.404545 -1.599717,-0.497811 -1.513911,-1.103356 0.0723,-0.510192 0.03398,-0.570698 -0.167543,-0.264584 -0.528239,0.802401 -0.30161,1.257978 0.721244,1.449867 1.586215,0.297576 3.954548,1.35535 5.384016,2.404676 0.727733,0.534205 1.355995,0.927268 1.396138,0.873474 0.04014,-0.0538 0.247145,-0.574058 0.460005,-1.156142 0.308221,-0.842857 0.536498,-1.075693 1.121203,-1.143597 1.371287,-0.159253 1.566676,0.29129 1.362634,3.142078 -0.148896,2.080305 -0.09563,2.830599 0.287138,4.044893 0.622948,1.976218 0.837625,1.688788 0.264434,-0.354049 z m 5.318719,1.272524 c -0.08446,-0.211067 -0.147157,-0.148372 -0.159852,0.159852 -0.01149,0.278915 0.05105,0.435185 0.138964,0.347266 0.08792,-0.08792 0.09732,-0.316122 0.02089,-0.507118 z m -3.804883,-1.07487 c 0.09237,-0.254661 0.120878,-0.463021 0.06334,-0.463021 -0.118747,0 -0.937116,1.588777 -0.937116,1.819313 0,0.229487 0.683272,-0.831103 0.873774,-1.356292 z m -25.828449,-0.51263 c -0.08446,-0.211067 -0.147156,-0.148372 -0.159852,0.159852 -0.01149,0.278915 0.05105,0.435185 0.138964,0.347266 0.08792,-0.08792 0.09732,-0.316122 0.02089,-0.507118 z m 25.113425,-0.109141 c -0.09416,-0.245385 -0.230737,-0.386624 -0.303497,-0.313863 -0.07276,0.07276 -0.05525,0.333061 0.03891,0.578447 0.09416,0.245385 0.230737,0.386624 0.303497,0.313863 0.07276,-0.07276 0.05525,-0.333061 -0.03891,-0.578447 z M 10.600237,55.738153 c -0.19892,-0.19892 -0.274482,0.06386 -0.257619,0.895914 l 0.02386,1.177396 0.257619,-0.895914 c 0.175378,-0.609905 0.16776,-0.985774 -0.02386,-1.177396 z M 39.017463,56.4224 c 2.108424,-3.113241 5.597388,-5.530352 8.451955,-5.855407 l 1.439011,-0.163863 -0.388167,-0.661458 c -0.318391,-0.542557 -0.361339,-0.561198 -0.238927,-0.1037 0.133615,0.499365 0.01151,0.57407 -1.166293,0.713564 -2.155182,0.255249 -4.17849,1.384217 -6.236913,3.48008 -1.630718,1.660379 -3.063595,3.582972 -2.67033,3.582972 0.07574,0 0.44009,-0.446484 0.809664,-0.992188 z m -27.45799,-0.529166 c -0.06655,-0.254662 -0.121,-0.0463 -0.121,0.463021 0,0.509323 0.05445,0.717682 0.121,0.46302 0.06655,-0.254661 0.06655,-0.67138 0,-0.926041 z m 51.675946,-0.330729 c 0,-0.145521 -0.119062,-0.264584 -0.264583,-0.264584 -0.145521,0 -0.264583,0.119063 -0.264583,0.264584 0,0.145521 0.119062,0.264583 0.264583,0.264583 0.145521,0 0.264583,-0.119062 0.264583,-0.264583 z M 45.118463,54.819853 c -0.08146,-0.08146 -0.294956,-1.68e-4 -0.474431,0.180654 -0.259363,0.261306 -0.228972,0.291697 0.148112,0.148112 0.260937,-0.09936 0.407781,-0.247304 0.326319,-0.328766 z M 11.377089,54.504171 c 0,-0.14552 -0.05251,-0.264583 -0.116677,-0.264583 -0.06417,0 -0.190261,0.119063 -0.280198,0.264583 -0.08994,0.145521 -0.03743,0.264584 0.116677,0.264584 0.154109,0 0.280198,-0.119063 0.280198,-0.264584 z m 13.602419,-0.755529 c 0.07695,-0.124499 -0.154153,-0.17015 -0.513552,-0.101447 -0.359398,0.0687 -0.653451,0.170566 -0.653451,0.226363 0,0.204721 1.031515,0.09431 1.167003,-0.124916 z M 14.552089,53.606437 c 0,-0.05719 -0.184778,-0.17489 -0.410617,-0.261552 -0.23546,-0.09035 -0.341662,-0.046 -0.248969,0.103984 0.155379,0.251408 0.659586,0.371858 0.659586,0.157568 z m 8.466666,-0.425182 c -0.335574,-0.291042 -0.669901,-0.529167 -0.742949,-0.529167 -0.07305,0 0.08269,0.238125 0.346074,0.529167 0.263389,0.291041 0.597716,0.529166 0.742949,0.529166 0.145233,0 -0.0105,-0.238125 -0.346074,-0.529166 z m -6.460491,-0.949198 c 0.142395,-0.759031 0.319899,-0.938877 1.146268,-1.161395 1.047581,-0.282084 1.98957,-0.106111 3.436039,0.641887 0.477964,0.247165 0.925094,0.393323 0.993622,0.324796 0.200238,-0.200238 -2.728919,-1.501923 -3.379748,-1.501923 -1.188733,0 -2.362893,0.614886 -2.507674,1.313223 -0.07653,0.369133 -0.249274,0.875106 -0.383876,1.124383 -0.187345,0.346956 -0.154264,0.418516 0.141077,0.305183 0.212194,-0.08143 0.461625,-0.552195 0.554292,-1.046154 z m 40.852763,-0.694388 c -1.147382,-0.929093 -4.273598,-0.504865 -5.288158,0.717605 -0.233024,0.280778 0.09764,0.18767 0.945312,-0.266179 2.023785,-1.083547 4.555475,-0.668663 4.64702,0.761536 0.03104,0.48493 0.05293,0.472672 0.158044,-0.08848 0.08477,-0.45257 -0.05631,-0.795798 -0.462218,-1.124479 z m -20.63394,0.717544 c 0,-0.201105 -0.118269,-0.43874 -0.262821,-0.528078 -0.151508,-0.09364 -0.239796,0.115791 -0.208455,0.494477 0.05542,0.669576 0.471276,0.699226 0.471276,0.0336 z m 17.197916,0.264584 c 0,-0.218282 -0.183288,-0.396875 -0.407306,-0.396875 -0.336524,0 -0.348019,0.06722 -0.06615,0.386811 0.433698,0.49173 0.473452,0.492575 0.473452,0.01006 z M 26.556685,49.157581 c -0.181315,-0.293374 -0.892097,-0.262715 -0.892097,0.03848 0,0.136477 0.229877,0.230824 0.510837,0.20966 0.28096,-0.02116 0.452527,-0.132827 0.38126,-0.24814 z m 1.819882,-1.443221 c -0.181901,-0.0734 -0.479557,-0.0734 -0.661458,0 -0.181901,0.0734 -0.03307,0.133452 0.330729,0.133452 0.363802,0 0.51263,-0.06005 0.330729,-0.133452 z m 9.128125,-0.800906 c -0.254662,-0.06655 -0.671381,-0.06655 -0.926042,0 -0.254661,0.06655 -0.0463,0.121 0.463021,0.121 0.509323,0 0.717682,-0.05445 0.463021,-0.121 z m -7.736544,-0.342707 c -0.08855,-0.143279 0.231844,-0.500022 0.711989,-0.792761 1.054722,-0.643051 2.815246,-0.696563 3.994986,-0.12143 l 0.846756,0.412801 -0.652925,-0.523542 c -1.284066,-1.029617 -3.480113,-0.918781 -4.722124,0.238328 -0.503956,0.469506 -0.586682,1.047112 -0.149971,1.047112 0.07276,0 0.05984,-0.117228 -0.02871,-0.260508 z m 5.818315,-0.0041 c 0.08994,-0.145521 -0.02913,-0.264583 -0.264584,-0.264583 -0.235457,0 -0.35452,0.119062 -0.264583,0.264583 0.08994,0.145521 0.208999,0.264583 0.264583,0.264583 0.05558,0 0.174647,-0.119062 0.264584,-0.264583 z m -3.821795,-0.399699 c 0.870689,-0.16768 0.901149,-0.32781 0.06251,-0.328606 -0.406246,-3.86e-4 -0.976754,0.174349 -1.267796,0.388298 -0.520893,0.382918 -0.520189,0.386375 0.04501,0.22109 0.315797,-0.09235 0.837923,-0.218702 1.160279,-0.280782 z m 10.365022,0.09213 c 0.251796,0.0051 0.523808,-0.09747 0.604471,-0.227985 0.158216,-0.256 -0.969239,-0.197434 -2.621884,0.136195 -1.626319,0.328314 -0.928427,-0.302938 0.750249,-0.678609 1.287752,-0.288186 1.538255,-0.266878 2.50903,0.213424 1.089745,0.539162 1.498548,0.460442 0.581853,-0.112043 -1.327731,-0.829182 -3.561431,-0.64299 -5.178201,0.431633 l -0.780005,0.518448 1.838338,-0.145189 c 1.011086,-0.07985 2.044353,-0.140997 2.296149,-0.135874 z m -7.998436,-0.221596 c 0,-0.145521 -0.238125,-0.264583 -0.529166,-0.264583 -0.291042,0 -0.529167,0.119062 -0.529167,0.264583 0,0.145521 0.238125,0.264584 0.529167,0.264584 0.291041,0 0.529166,-0.119063 0.529166,-0.264584 z"
         id="path29" />
      <path
         style="fill:#376a4d;stroke-width:1.76024"
         d="m 23.912597,73.173985 c -0.454272,-0.19771 -0.992256,-0.596909 -1.19552,-0.88711 -0.369011,-0.526837 -0.372773,-0.526841 -2.481343,-0.0024 -4.149756,1.032127 -6.69063,0.203077 -8.064895,-2.631456 -0.548461,-1.131244 -0.854851,-1.43858 -1.793532,-1.799071 C 8.551482,67.152759 6.7354226,65.553885 6.2139876,64.188527 5.5985497,62.577026 5.8471904,60.916014 6.8546694,59.908535 c 0.6748543,-0.674854 0.7218197,-0.836633 0.4883498,-1.682192 -0.9852597,-3.568316 1.8183666,-7.511766 5.5495668,-7.80576 0.945914,-0.07453 1.373981,-0.259831 1.782874,-0.771758 1.113836,-1.394508 4.272528,-1.932734 6.557357,-1.117343 0.770877,0.275104 0.992188,0.281369 0.992188,0.02808 0,-0.179299 0.345052,-0.802329 0.766782,-1.384511 0.76398,-1.054643 2.355417,-1.9313 3.505983,-1.9313 0.30684,0 1.031955,-0.428288 1.611366,-0.951751 1.412854,-1.276429 2.512205,-1.694082 4.459181,-1.694082 1.181866,0 2.046781,0.187462 3.150758,0.682898 l 1.521698,0.682898 1.421803,-0.616752 c 2.874937,-1.247095 6.74498,-0.56897 7.859713,1.377211 0.242691,0.423707 0.74372,0.836988 1.113398,0.918402 1.166828,0.256969 2.330821,1.132129 3.299974,2.481118 l 0.937768,1.305305 0.846307,-0.422194 c 2.182063,-1.088556 5.287929,-0.563108 6.791104,1.148913 0.600812,0.684287 1.012473,0.910303 1.665975,0.914678 3.184704,0.02132 6.100772,3.848066 5.674566,7.446711 -0.08905,0.751883 -0.04597,1.278728 0.10456,1.278728 0.140803,0 0.491936,0.386953 0.780295,0.859896 0.628364,1.030591 0.69862,3.066421 0.142907,4.14105 -0.728946,1.409627 -3.060567,3.098012 -4.7688,3.453208 -0.607594,0.126338 -0.844747,0.366521 -1.042408,1.055722 -0.38165,1.330738 -1.928691,2.81354 -3.330432,3.192142 -1.47985,0.399699 -3.905806,0.216713 -5.8291,-0.43968 l -1.463475,-0.499463 -0.599782,0.724226 c -1.156604,1.396577 -4.483866,1.662549 -8.776392,0.701561 -1.382448,-0.309495 -2.870729,-0.548286 -3.307292,-0.530647 -3.106833,0.125528 -5.249431,0.344814 -6.787748,0.694697 -2.232351,0.507737 -6.918969,0.522525 -8.061117,0.02544 z m 8.13035,-2.689584 c 0.784767,-0.229821 1.526236,-0.512387 1.647709,-0.627924 0.375856,-0.35749 -0.876222,-1.942096 -2.632982,-3.33225 -2.303862,-1.823085 -4.977066,-3.142574 -9.282385,-4.581771 -3.134898,-1.047943 -3.663236,-1.304413 -3.735538,-1.81333 -0.133425,-0.93915 0.953325,-1.302501 2.385166,-0.797472 9.160738,3.231113 9.194738,3.245393 11.12271,4.671415 1.057193,0.781951 2.249591,1.516121 2.649773,1.631488 0.671255,0.193514 0.727604,0.152009 0.727604,-0.535924 0,-1.079022 -1.214649,-5.10673 -2.018365,-6.692789 -0.378925,-0.747772 -1.344813,-2.047185 -2.146419,-2.887584 -2.205789,-2.31254 -4.451874,-3.171734 -5.741514,-2.196299 -0.783995,0.592984 -1.153055,0.482301 -2.351458,-0.705214 -1.212917,-1.201899 -2.841087,-2.066501 -3.90849,-2.075515 -1.290663,-0.0109 -2.347769,0.528328 -2.504232,1.277399 -0.330568,1.582618 -1.18447,2.027452 -2.383626,1.241734 -0.523598,-0.343074 -0.84677,-0.373461 -1.655581,-0.155671 -2.3307698,0.627611 -3.3448131,3.237914 -2.149062,5.532013 0.706342,1.355147 0.493528,2.151929 -0.7530391,2.819394 -1.4042049,0.751872 -1.4653308,1.715074 -0.1854439,2.922163 0.831647,0.784344 1.144488,0.90924 2.277463,0.90924 1.228003,0 2.445481,0.48979 2.944363,1.184514 0.290477,0.404507 0.241987,1.580571 -0.07838,1.900935 -0.477681,0.477681 1.134841,1.841324 2.420491,2.046908 0.914568,0.146245 1.283529,0.0663 2.066547,-0.447756 2.029762,-1.33256 5.040828,-1.729675 5.573153,-0.735018 0.150119,0.2805 0.20842,0.678143 0.129559,0.883652 -0.185998,0.484703 0.339887,0.907086 1.335907,1.072978 1.301808,0.216824 4.71763,-0.06171 6.246067,-0.509316 z m 16.904973,0.05196 c 0.363802,-0.178642 0.640875,-0.438139 0.615717,-0.576659 -0.02516,-0.13852 -0.124907,-0.567274 -0.221664,-0.952786 -0.196363,-0.782373 0.150286,-1.07215 1.674123,-1.399466 0.790518,-0.169801 0.974202,-0.08403 1.852083,0.8648 1.739076,1.87963 4.673437,2.545059 5.783842,1.311609 0.862592,-0.958176 0.930457,-1.209833 0.584364,-2.166936 -0.467275,-1.292227 -0.03189,-1.733991 1.716327,-1.741479 1.672262,-0.0072 3.262704,-0.700888 4.222828,-1.841931 0.991818,-1.178708 0.805285,-1.477505 -0.857184,-1.373079 -2.473405,0.155364 -2.853533,-0.998618 -0.915164,-2.778234 1.175465,-1.079193 1.220594,-1.174588 1.092654,-2.309664 -0.185003,-1.641345 -0.97333,-3.033311 -2.082043,-3.676312 l -0.937277,-0.543575 -0.575761,0.575762 c -1.02929,1.029289 -2.692429,0.453287 -2.692429,-0.93248 0,-0.347863 -0.292244,-0.924722 -0.649431,-1.28191 -0.535203,-0.535202 -0.910566,-0.649432 -2.134061,-0.649432 -1.745207,0 -2.222199,0.21564 -3.885901,1.756752 -1.409135,1.305302 -1.893661,1.403917 -2.784753,0.56678 -0.622098,-0.584431 -0.630466,-0.5849 -2.001427,-0.11212 -3.905714,1.346895 -6.3631,4.436435 -8.622334,10.840398 -0.805863,2.28428 -0.99576,3.35716 -0.654593,3.698327 0.09327,0.09327 1.470348,-1.076863 3.060173,-2.600296 3.182669,-3.049759 5.42655,-4.53164 8.421391,-5.561572 3.372857,-1.159933 6.605103,-1.154702 6.605103,0.01069 0,0.527968 -0.671572,0.832623 -2.610416,1.184203 -2.97271,0.539055 -4.924351,1.290601 -6.833903,2.631627 -2.314773,1.625602 -5.901513,5.076133 -5.901513,5.6774 0,0.443766 1.620473,1.311426 3.307291,1.770842 1.03275,0.281276 4.574667,0.02578 5.423958,-0.391258 z M 36.941636,59.204294 c 1.055328,-2.040779 5.237559,-6.50479 6.985477,-7.456127 0.727461,-0.395934 2.151188,-0.86054 3.163837,-1.032458 1.829567,-0.310608 1.839143,-0.316635 1.518346,-0.955593 -0.313852,-0.625122 -1.778042,-1.275109 -1.778042,-0.789312 0,0.132935 -0.292638,0.241701 -0.650305,0.241701 -0.820092,0 -2.060982,-1.941511 -1.822865,-2.852075 0.127218,-0.486479 -0.01065,-0.657366 -0.794622,-0.98493 -1.478089,-0.617586 -2.606374,-0.486397 -4.555802,0.529714 -1.831812,0.954805 -2.603644,1.128078 -2.898657,0.650737 -0.09358,-0.151417 -0.664129,-0.587141 -1.267884,-0.968275 -2.031871,-1.282664 -4.557096,-0.815079 -5.491687,1.016872 -0.488427,0.957395 -0.594657,1.020457 -1.718986,1.020457 -1.347673,0 -2.60896,0.54705 -3.016348,1.308261 -0.449656,0.84019 -0.324498,1.017966 0.852053,1.210262 1.651018,0.269842 3.55316,1.122897 5.416837,2.429292 l 1.646525,1.154176 0.157723,-0.735892 c 0.334272,-1.559611 0.606432,-1.926516 1.429037,-1.926516 1.164552,0 1.388186,0.644048 1.180219,3.398943 -0.141486,1.874233 -0.0837,2.624583 0.29033,3.769988 0.715035,2.189675 0.721938,2.194621 1.354814,0.970775 z"
         id="path37" />
      <path
         style="fill:#304a35;stroke-width:1.76024"
         d="m 23.912597,73.173985 c -0.454272,-0.19771 -0.997049,-0.603753 -1.206172,-0.902317 l -0.380223,-0.542845 -1.968828,0.511264 C 17.76914,72.912199 16.069007,72.90154 14.62843,72.204169 13.385716,71.602581 12.24968,70.315919 11.940498,69.159847 11.734762,68.390569 11.697495,68.362273 9.6776937,67.441726 6.0942256,65.808522 4.8036239,62.332472 6.8959351,59.949461 c 0.676936,-0.770987 0.7476516,-0.990083 0.5161163,-1.599067 -0.670087,-1.762462 0.093952,-4.54268 1.6858621,-6.134591 1.1291385,-1.129139 3.6993115,-2.167333 4.5537675,-1.839448 0.242871,0.0932 0.702944,-0.200309 1.198257,-0.764439 1.252844,-1.426911 3.897182,-1.877254 6.184442,-1.05324 1.288515,0.464204 1.190625,0.460546 1.190625,0.04449 0,-0.189613 0.358311,-0.831978 0.796247,-1.427479 0.803504,-1.092595 2.33506,-1.931936 3.525231,-1.931936 0.333631,0 0.944206,-0.352382 1.356833,-0.783071 0.412626,-0.43069 1.296506,-1.039852 1.964177,-1.353695 1.581179,-0.743242 4.325458,-0.614228 6.160004,0.289593 l 1.234783,0.608337 1.41105,-0.623247 c 2.814836,-1.243287 6.672143,-0.581702 7.806709,1.338964 0.24496,0.414684 0.751616,0.828339 1.125902,0.919233 1.142481,0.277448 2.584948,1.376718 3.442965,2.623803 l 0.815257,1.184936 1.121566,-0.509116 c 2.230735,-1.012603 5.145208,-0.441803 6.605534,1.293697 0.521968,0.620323 0.922224,0.832875 1.576554,0.83721 1.94016,0.01285 4.244338,1.763884 5.189509,3.943697 0.239651,0.552696 0.41515,1.741947 0.422573,2.863513 0.007,1.055026 0.10705,1.918229 0.222372,1.918229 0.115322,0 0.445606,0.386953 0.733965,0.859896 0.628364,1.030591 0.69862,3.066421 0.142907,4.14105 -0.775249,1.499167 -3.630773,3.445055 -5.077299,3.459909 -0.42805,0.0044 -0.605472,0.216925 -0.728484,0.872637 -0.08944,0.476754 -0.520484,1.30098 -0.957877,1.831613 -1.532317,1.858966 -4.72137,2.268605 -8.287813,1.064581 l -1.467455,-0.49541 -0.545165,0.737375 c -0.332751,0.450069 -0.983114,0.856695 -1.669168,1.043611 -1.531373,0.417225 -5.360699,0.160809 -8.11123,-0.543138 -1.924268,-0.492481 -2.398699,-0.527642 -3.512899,-0.26035 -0.708495,0.169966 -1.722888,0.258278 -2.254206,0.196249 -0.531318,-0.06203 -1.867545,0.102987 -2.969392,0.366701 -2.440217,0.584036 -7.147862,0.642098 -8.385558,0.103423 z m 8.43272,-2.673355 c 0.836745,-0.265474 1.521354,-0.611892 1.521354,-0.769818 0,-0.597246 -1.323428,-2.198092 -2.686072,-3.249127 -2.115984,-1.632102 -5.587439,-3.382035 -8.729349,-4.400396 -3.762385,-1.219471 -4.192327,-1.463668 -3.907374,-2.219305 0.143252,-0.379875 0.443017,-0.594005 0.828332,-0.5917 0.930552,0.0056 1.804098,0.295912 1.648375,0.547878 -0.07707,0.12471 0.192155,0.295747 0.598288,0.380082 0.406134,0.08433 2.088114,0.578486 3.737733,1.098114 3.185996,1.003584 5.8076,2.31292 7.455835,3.723747 1.147172,0.981937 2.377149,1.169024 2.377149,0.361581 0,-0.773872 -1.28243,-5.036847 -1.95897,-6.51189 -1.780233,-3.881395 -6.116532,-7.054953 -7.97548,-5.836924 -0.965939,0.632908 -1.688921,0.498522 -2.597574,-0.482828 -2.277446,-2.459655 -5.992913,-2.741912 -6.573485,-0.499376 -0.297948,1.150863 -1.094723,1.569177 -1.937299,1.0171 -1.133402,-0.742634 -2.508177,-0.376967 -3.806088,1.012355 -0.8390627,0.898157 -1.0912014,3.271443 -0.4513127,4.248036 0.2361567,0.360421 0.4293767,1.014268 0.4293767,1.452993 0,0.664252 -0.177029,0.887994 -1.0583337,1.337602 -0.9179206,0.468289 -1.0583333,0.657985 -1.0583333,1.429798 0,0.705509 0.2238961,1.092154 1.0806618,1.86619 0.9579342,0.865436 1.1916312,0.957565 2.0577902,0.811229 0.769553,-0.130016 1.172305,-0.03264 1.8959,0.458397 0.824216,0.559315 0.918773,0.748232 0.918773,1.835628 0,1.383485 0.558348,2.19142 1.909731,2.7634 1.308089,0.553655 2.019459,0.440221 3.503888,-0.558726 1.616391,-1.087751 3.664316,-1.498789 4.207362,-0.844458 0.185685,0.223737 0.427156,0.741828 0.536603,1.151314 0.141775,0.530443 0.421786,0.797312 0.973829,0.928124 1.337147,0.316849 5.457831,0.04888 7.05869,-0.45902 z m 16.065138,0.320269 c 1.055418,-0.276222 1.206783,-0.413585 1.410165,-1.279714 0.285646,-1.216465 1.015468,-1.916029 1.754272,-1.681542 0.301525,0.0957 0.951512,0.554347 1.444415,1.019214 1.14312,1.078101 3.311421,1.878213 4.490507,1.657015 0.483162,-0.09064 1.148038,-0.451739 1.477504,-0.80244 0.527632,-0.561638 0.576487,-0.801535 0.409902,-2.012754 -0.228899,-1.664294 -0.04952,-1.829709 1.990244,-1.835372 1.739333,-0.0048 2.971455,-0.592341 4.058223,-1.935078 1.014522,-1.253476 0.812276,-1.902703 -0.51515,-1.653676 -1.072924,0.201281 -2.224284,-0.367577 -2.224284,-1.098964 0,-0.240975 0.416719,-0.819835 0.926041,-1.286356 0.790294,-0.723881 0.92519,-1.017523 0.920231,-2.003162 -0.0072,-1.43711 -0.755435,-3.131803 -1.716422,-3.887715 -0.738938,-0.581249 -2.246517,-0.79262 -2.246517,-0.314974 0,0.142748 -0.302454,0.335453 -0.672119,0.428233 -0.788725,0.197958 -1.709131,-0.488844 -1.709131,-1.275344 0,-1.413325 -1.542475,-2.244131 -3.595005,-1.936335 -0.854009,0.128067 -1.617773,0.532153 -2.801647,1.482275 -0.895164,0.718416 -1.746964,1.306211 -1.892889,1.306211 -0.145926,0 -0.187746,-0.07757 -0.09294,-0.172384 0.211994,-0.211994 -1.038053,-0.885949 -1.643252,-0.885949 -0.242133,0 -1.310937,0.41727 -2.37512,0.927266 -2.667707,1.278464 -4.458204,3.162912 -5.982631,6.296554 -1.853557,3.810207 -3.335898,8.651179 -2.649055,8.651179 0.07377,0 1.234632,-1.091668 2.579688,-2.425928 4.756072,-4.717902 8.183671,-6.654264 12.807382,-7.235306 1.452809,-0.182569 2.470465,0.143427 2.470465,0.791387 0,0.535889 -0.322,0.674854 -2.837461,1.224552 -3.885404,0.84907 -6.234794,2.212461 -9.954631,5.776841 -2.060442,1.974333 -2.692846,2.946433 -2.222683,3.416596 0.167168,0.167168 0.54802,0.305749 0.846338,0.307958 0.298317,0.0022 1.078177,0.172838 1.733021,0.379176 1.439126,0.45346 4.197429,0.481238 5.812534,0.05854 z M 36.883252,59.938029 c 0.08994,-0.358357 0.608865,-1.266924 1.153162,-2.019038 3.885651,-5.369218 6.28776,-7.118986 9.773055,-7.118986 1.406511,0 1.412319,-0.0034 1.242679,-0.727604 -0.261284,-1.115433 -1.105072,-1.659921 -2.456893,-1.585407 l -1.16204,0.06405 -0.42546,-1.248549 c -0.592673,-1.739252 -1.067616,-2.123956 -2.799462,-2.267575 -1.261952,-0.104651 -1.717304,-0.0029 -3.154755,0.704723 -0.923961,0.454864 -1.867709,0.827026 -2.097217,0.827026 -0.229509,0 -0.97005,-0.373054 -1.645646,-0.829009 -2.240178,-1.511877 -4.846792,-1.218805 -5.961369,0.670261 -0.466984,0.79148 -0.725462,0.948732 -1.784666,1.085749 -2.185007,0.282649 -2.416558,0.388185 -3.05618,1.392946 -0.697233,1.095261 -0.534911,1.3274 0.954907,1.365623 1.230832,0.03158 4.195194,1.37883 5.661225,2.572928 0.767737,0.625331 1.445017,1.050564 1.505066,0.944963 0.06005,-0.105602 0.187499,-0.626524 0.283223,-1.157605 0.207551,-1.151503 0.729046,-1.65493 1.470541,-1.419589 0.91406,0.290112 1.13878,1.04758 0.797911,2.689539 -0.337386,1.625176 -0.227531,2.595995 0.571834,5.053464 0.577608,1.775728 0.870687,2.035612 1.130085,1.002087 z"
         id="path45" />
      <path
         style="fill:#302e22;stroke-width:1.76024"
         d="m 24.15988,73.262473 c -0.463788,-0.134185 -1.078766,-0.543382 -1.366618,-0.909327 l -0.523368,-0.665354 -1.935356,0.536314 c -2.548134,0.706124 -4.008491,0.679558 -5.690311,-0.103514 -1.452436,-0.676269 -2.737972,-2.196357 -2.737972,-3.23753 0,-0.438177 -0.241991,-0.655116 -0.992187,-0.88947 C 9.4926395,67.549552 7.23475,65.961184 6.6460314,64.991136 5.5748574,63.226133 5.7059366,61.170559 6.9757401,59.82067 7.5772288,59.181246 7.602389,59.044038 7.3441763,57.811463 6.6066474,54.290876 9.3996746,50.62983 12.928565,50.491555 c 0.910147,-0.03566 1.305217,-0.229248 2.109746,-1.033777 0.762571,-0.762572 1.285951,-1.034293 2.279079,-1.183222 1.207183,-0.181028 3.393903,0.08036 4.444594,0.53127 0.28482,0.122234 0.463021,0.0838 0.463021,-0.09985 0,-0.16421 0.310594,-0.767903 0.690209,-1.341539 0.731128,-1.10481 2.446314,-2.120679 3.580539,-2.120679 0.378432,0 0.940008,-0.29959 1.305527,-0.696474 1.789524,-1.943084 4.87732,-2.441481 7.823576,-1.262793 l 1.716145,0.686567 1.371689,-0.598904 c 2.810721,-1.227211 6.644451,-0.552428 7.779651,1.369312 0.278442,0.471364 0.805201,0.870751 1.345045,1.019809 1.248797,0.34481 2.562225,1.417754 3.263979,2.666356 0.428448,0.76232 0.715276,1.01524 1.008573,0.889341 3.167098,-1.359491 5.390575,-1.139126 7.24804,0.718339 0.566104,0.566104 1.269349,1.02928 1.562768,1.02928 1.019637,0 2.555045,0.608591 3.49952,1.387108 1.509737,1.244452 2.323593,3.131844 2.358059,5.468509 0.01965,1.33186 0.137208,2.000034 0.365265,2.076002 1.014453,0.337922 1.478188,3.364481 0.735553,4.800577 -0.783252,1.514644 -3.63319,3.445526 -5.106744,3.459909 -0.357108,0.0035 -0.595313,0.168832 -0.595313,0.413227 0,0.747128 -1.036545,2.451453 -1.838036,3.022165 -1.264471,0.900383 -3.40717,1.238454 -5.330938,0.841106 -0.891443,-0.184124 -2.054121,-0.478843 -2.583728,-0.65493 -0.919698,-0.305787 -0.998832,-0.282487 -1.762897,0.519058 -0.648973,0.680809 -1.090992,0.875578 -2.341716,1.031846 -1.898773,0.237236 -4.343577,0.0057 -7.351994,-0.696258 -1.868608,-0.436008 -2.488382,-0.481719 -3.357678,-0.247642 -0.586342,0.157886 -1.698246,0.264069 -2.470898,0.235962 -0.772652,-0.02811 -2.238259,0.14574 -3.256905,0.386326 -2.008238,0.47431 -6.319562,0.5608 -7.722416,0.15492 z m 20.483049,-0.397322 c -0.08792,-0.08792 -0.316122,-0.09732 -0.507118,-0.02089 -0.211067,0.08446 -0.148372,0.147157 0.159852,0.159853 0.278915,0.01149 0.435185,-0.05105 0.347266,-0.138965 z m -25.664582,-0.79375 c -0.08792,-0.08792 -0.316122,-0.09732 -0.507118,-0.02089 -0.211067,0.08446 -0.148372,0.147157 0.159852,0.159853 0.278915,0.01149 0.435185,-0.05105 0.347266,-0.138965 z m 15.874999,0 c -0.08792,-0.08792 -0.316122,-0.09732 -0.507118,-0.02089 -0.211067,0.08446 -0.148372,0.147157 0.159853,0.159853 0.278915,0.01149 0.435184,-0.05105 0.347265,-0.138965 z m 13.74268,-1.195092 c 0.461303,-0.142793 0.981897,-0.432127 1.156876,-0.642964 0.17498,-0.210838 0.53494,-0.383341 0.799912,-0.383341 0.264972,0 0.654498,-0.246608 0.865614,-0.548018 0.382767,-0.546477 0.389522,-0.545361 2.402056,0.396875 2.411573,1.12906 3.80982,1.224885 5.100917,0.34958 0.846118,-0.573629 0.875625,-0.652524 0.810122,-2.166106 l -0.06798,-1.570794 2.009472,-0.316158 c 2.459381,-0.386943 2.951348,-0.638364 3.951955,-2.019662 0.903358,-1.247049 0.93604,-1.421255 0.372379,-1.984915 -0.323036,-0.323037 -0.547959,-0.351608 -1.031956,-0.131084 -1.284669,0.585335 -2.113117,-1.082534 -1.03895,-2.091661 0.494512,-0.46457 0.631891,-0.867474 0.631891,-1.853203 0,-1.610866 -0.356293,-2.536352 -1.388379,-3.606371 -0.896251,-0.929192 -2.497987,-1.424054 -2.83649,-0.876343 -0.108996,0.176358 -0.532568,0.281351 -0.941272,0.233318 -0.575053,-0.06758 -0.810756,-0.289394 -1.042281,-0.980853 -0.442737,-1.322253 -1.287145,-1.884604 -2.829862,-1.884604 -1.277171,0 -2.547368,0.460837 -3.450303,1.251796 -0.31419,0.275226 -1.00459,0.385793 -2.287068,0.366271 -1.641724,-0.02499 -2.06042,0.08385 -3.938347,1.023783 -3.800177,1.902049 -6.077968,5.191668 -8.317782,12.012661 -1.378467,4.197902 -1.131115,4.414028 1.635817,1.429312 4.720962,-5.092547 9.766203,-7.946917 13.876035,-7.850436 1.096801,0.02575 1.192595,0.06226 0.539724,0.205699 -0.661158,0.145264 -0.712416,0.206473 -0.306852,0.366429 0.267793,0.105619 0.613611,0.113721 0.768484,0.018 0.165942,-0.102558 0.204054,-0.04858 0.0928,0.131433 -0.103832,0.168005 -0.36738,0.305464 -0.585662,0.305464 -0.218281,0 -0.335927,0.09862 -0.261435,0.219145 0.07449,0.12053 -0.754387,0.428922 -1.841952,0.685316 -2.779039,0.65516 -4.658573,1.675516 -7.583517,4.116922 -2.30821,1.926626 -4.437073,4.309924 -4.437073,4.967375 0,0.215918 2.381728,0.741563 5.556249,1.226259 0.830578,0.126816 2.520058,-0.05962 3.616856,-0.399129 z M 32.742192,70.515088 c 0.763984,-0.242168 1.389062,-0.567915 1.389062,-0.723882 0,-0.546946 -1.959125,-2.666929 -3.540127,-3.830797 -2.011564,-1.480829 -5.729685,-3.262485 -8.697728,-4.167794 -1.800905,-0.54931 -2.254926,-0.785119 -2.131406,-1.107007 0.114524,-0.298444 0.415012,-0.376597 1.111545,-0.2891 1.477334,0.185579 5.178596,1.235091 5.266757,1.493415 0.04336,0.127044 0.285077,0.177055 0.537155,0.111135 0.762287,-0.199342 5.084769,2.168258 6.60633,3.618558 0.770817,0.734716 1.514957,1.265717 1.653646,1.180003 0.786719,-0.48622 -0.276031,-5.141783 -1.925606,-8.43545 -1.978188,-3.949803 -6.667268,-6.888344 -8.43666,-5.287065 -0.433405,0.392226 -0.53197,0.38063 -1.277604,-0.150309 -0.444382,-0.316428 -0.807968,-0.684273 -0.807968,-0.817433 0,-0.4912 -2.621264,-1.57394 -3.810438,-1.57394 -1.820048,0 -2.482707,0.353918 -2.685374,1.434227 -0.212822,1.134441 -0.924378,1.438058 -1.888991,0.806019 -0.574739,-0.376583 -0.847553,-0.40106 -1.682381,-0.150939 -2.6347715,0.789397 -3.8636534,3.829182 -2.438263,6.031333 0.603755,0.932768 0.324102,1.74173 -0.7903511,2.286278 -1.1812293,0.577176 -1.4648672,1.386838 -0.8812182,2.51549 0.6588033,1.273986 1.9419053,2.07739 3.5496173,2.222565 1.781911,0.160905 2.744474,0.951963 2.206516,1.81337 -0.288175,0.461441 -0.271221,0.656782 0.107117,1.234199 0.969061,1.478974 1.692476,1.91579 3.172761,1.91579 1.188308,0 1.577026,-0.137946 2.609487,-0.926042 0.964165,-0.735964 1.453436,-0.926041 2.383686,-0.926041 0.915099,0 1.205111,0.109028 1.329095,0.499667 0.08722,0.274817 0.460096,0.825 0.828606,1.222629 l 0.670018,0.722961 3.091827,-0.140767 c 1.754466,-0.07988 3.692662,-0.33122 4.48089,-0.581073 z m 4.236166,-9.859354 c 0.174949,-0.254662 0.791286,-1.42001 1.369638,-2.589663 2.107688,-4.262566 5.668202,-7.017213 9.338124,-7.224582 2.018908,-0.114079 2.173846,-0.336327 1.269018,-1.820321 -0.482286,-0.790989 -1.394147,-1.276933 -2.029965,-1.081796 -0.147862,0.04538 -0.807055,-0.469355 -1.464873,-1.143855 -1.542705,-1.581825 -2.013499,-1.816345 -3.64628,-1.816345 -0.978446,0 -1.788583,0.222478 -2.955924,0.81175 l -1.608069,0.81175 -1.796515,-0.944041 c -2.770988,-1.456114 -4.313541,-1.304687 -6.262418,0.614757 -0.973725,0.95902 -1.248641,1.087034 -2.334463,1.087034 -1.105948,0 -1.329419,0.109897 -2.20359,1.083667 -0.535055,0.596016 -0.972828,1.220593 -0.972828,1.387947 0,0.173276 0.679438,0.389152 1.5781,0.501407 1.959331,0.244746 4.971907,1.656616 6.28014,2.943242 1.15211,1.133083 1.269885,1.164702 1.269885,0.340927 0,-1.253218 0.543248,-2.28844 1.200893,-2.28844 0.340978,0 0.716284,0.148828 0.834013,0.330729 0.117728,0.181901 0.214052,1.521354 0.214052,2.976562 0,2.055186 0.138649,3.074053 0.621083,4.564062 0.341596,1.055026 0.702265,1.918229 0.801487,1.918229 0.09922,0 0.323543,-0.208359 0.498492,-0.46302 z M 33.006775,42.944705 c -0.254661,-0.06655 -0.67138,-0.06655 -0.926041,0 -0.254662,0.06655 -0.0463,0.121 0.46302,0.121 0.509323,0 0.717683,-0.05445 0.463021,-0.121 z"
         id="path52" />
    </g>
  </g>
</svg>
