<?xml version="1.0" encoding="UTF-8" standalone="no"?>
<!-- Created with Inkscape (http://www.inkscape.org/) -->

<svg
   width="185"
   height="185"
   viewBox="0 0 48.947914 48.947918"
   version="1.1"
   id="svg1"
   xmlns="http://www.w3.org/2000/svg"
   xmlns:svg="http://www.w3.org/2000/svg">
  <defs
     id="defs1" />
  <g
     id="layer1">
    <g
       id="g3815"
       style="display:inline;stroke-width:1.43068"
       transform="matrix(0.69896799,0,0,0.69896799,9.3597201,-11.502847)">
      <path
         style="fill:#bdb73d;stroke-width:1.43068"
         d="m -10.135162,77.089141 c 1.4828326,-0.855806 -0.08936,-0.144567 0,0 z"
         id="path3724" />
      <path
         style="fill:#bdb73d;stroke-width:1.43068"
         d="m 11.186888,86.211893 c -6.4429658,-3.234661 -16.8430882,0.747345 -22.563965,-5.112963 3.2028672,-4.395225 2.4960298,-4.21638 -0.928662,-7.5253 -0.169905,-3.960113 6.6083201,-6.17337 2.3100773,-6.743614 1.5821651,3.800142 -3.0528893,-6.396429 3.6328565,-5.983763 -3.6887398,-7.019724 7.95986,-3.47829 5.52455081,-9.913151 4.18234849,-2.710533 8.26942499,3.441625 7.12037209,-4.169109 4.5993593,-1.69204 7.1994883,3.106272 8.5173233,-3.415902 4.384352,-0.380723 5.692089,7.011105 8.584139,-0.01303 4.904357,-1.129595 3.446677,8.005623 8.03337,2.255472 7.062758,-3.2033 3.038384,8.160256 10.464827,4.1906 2.278315,3.579585 1.436505,4.318597 6.731056,5.147763 0.213123,4.35548 -2.114511,6.029076 3.647744,7.358144 2.730469,4.171617 -4.568006,6.894589 3.022452,8.47507 1.87832,5.223361 -7.100521,4.907495 -0.596533,9.337655 -1.480183,6.752067 -10.248396,1.466363 -13.954751,6.051627 -6.880763,-1.809296 -13.695607,0.408902 -20.706733,-0.995654 -2.829906,0.805099 -5.879718,1.793537 -8.838124,1.056151 z M -5.291661,60.754276 c -0.8941323,-1.073359 -1.2510413,-0.730738 0,0 z"
         id="path3721" />
      <path
         style="fill:#42b41f;stroke-width:1.43068"
         d="m 11.969532,86.249712 c -7.4458889,-3.160529 -16.3878089,0.544773 -23.241782,-4.792298 2.0417566,-4.791601 2.8447543,-4.474251 -1.082878,-8.279497 1.040817,-5.005585 6.8627829,-4.067716 1.718618,-9.090359 4.2563777,-3.266441 5.8261505,-2.462037 4.3371288,-7.627587 7.15303905,0.714499 3.6043284,-9.634147 11.5528152,-5.542458 -0.4444229,-3.139064 5.053894,-6.016255 7.906805,-4.418358 1.839347,-8.651204 7.723703,5.441739 10.374055,-3.138237 4.613539,-0.816373 3.338548,7.686477 7.92384,2.274353 7.006118,-2.689393 3.11488,8.239383 11.139786,4.448772 0.432031,4.952877 1.690533,3.338697 6.362437,5.258338 -3.779845,6.153451 2.894035,4.724201 4.200926,9.616216 -5.125376,3.995992 8.806563,7.90288 -1.56051,11.568588 8.919464,8.144739 -5.817663,5.657375 -9.400325,9.436344 -9.542737,-0.395224 -18.636467,-1.416127 -28.533836,0.522211 l -1.69708,-0.236033 z"
         id="path3730" />
      <path
         style="fill:#37a21d;stroke-width:1.43068"
         d="m 11.969532,86.249712 c -7.4458889,-3.160529 -16.3878089,0.544773 -23.241782,-4.792298 2.0417566,-4.791601 2.8447543,-4.474251 -1.082878,-8.279497 1.040817,-5.005585 6.8627829,-4.067716 1.718618,-9.090359 4.2563777,-3.266441 5.8261505,-2.462037 4.3371288,-7.627587 7.15303905,0.714499 3.6043284,-9.634147 11.5528152,-5.542458 -0.4444229,-3.139064 5.053894,-6.016255 7.906805,-4.418358 1.932705,-8.601109 7.791849,5.527404 10.587384,-3.243894 4.555761,2.390096 4.042929,6.061381 9.993075,1.723911 3.780958,2.790546 3.040203,6.49409 9.388127,5.470997 -2.831496,6.302039 10.32591,1.601238 4.635284,9.340014 6.586106,0.576295 4.227695,6.84596 4.121657,8.955989 10.103111,3.104912 -5.127487,7.388046 2.76301,11.400803 -1.262457,6.46324 -10.384292,1.51607 -13.854308,5.828326 -9.420117,-0.805663 -18.864348,-0.802104 -28.824936,0.274407 z m 2.123173,-2.298457 c -2.967605,-0.418971 -0.542852,0.415394 0,0 z m 15.672924,0.0049 c -7.107372,-1.544993 -5.266512,-0.199083 0,0 z m -13.096874,-0.48011 c 2.63981,-1.39182 -4.716268,1.472098 0,0 z m 24.278604,0.215085 c -2.37101,-0.442526 -0.427623,0.43929 0,0 z m -8.932772,-0.454071 c -4.156008,-5.393169 -1.564836,-1.581165 0,0 z m 7.072092,0.211425 c -0.974058,-0.300091 -0.486067,0.460772 0,0 z M 3.3734427,83.161369 c -2.0493167,-0.411748 -0.3934566,0.425576 0,0 z m 1.5819878,0.02253 c -0.9740588,-0.300091 -0.4860665,0.460772 0,0 z m 33.0729145,0 c -0.974059,-0.300092 -0.486065,0.460772 0,0 z M 6.8531958,82.783995 c 2.8996982,-1.383221 -4.2312647,1.199863 0,0 z M 19.99967,82.247711 c 4.363623,-2.310441 -5.816974,2.336631 0,0 z m 4.534926,0.671606 c -0.974059,-0.300093 -0.486066,0.460775 0,0 z m -0.986675,-0.208715 c -0.120589,-0.710412 -1.564575,0.237123 0,0 z m 11.377083,-0.525077 c -0.894165,-1.073382 -1.251009,-0.730718 0,0 z m -37.8354151,-0.59051 c -2.4476313,-0.444696 -2.4525495,0.729469 0,0 z m 5.2916664,-0.50022 c 2.8589658,-3.284291 -3.4811776,3.323381 0,0 z m 8.6651037,-0.871161 c 5.979223,-4.969149 -7.2780201,5.311956 0,0 z m 2.976562,-0.506844 c -3.090508,2.742632 -2.89198,3.011851 0,0 z m 28.574999,2.212762 c -1.760021,-1.943184 -1.329145,-0.863259 0,0 z M -6.6862355,81.596401 c -0.974059,-0.300091 -0.4860665,0.460772 0,0 z m 56.8940105,-0.02194 c -2.371009,-0.442527 -0.427625,0.439289 0,0 z M -0.67215244,80.82381 c 6.34633574,-3.781778 -5.92838976,2.615452 0,0 z M 33.71483,81.160941 c -2.180207,-2.449015 -0.609814,0.273258 0,0 z m 14.510521,0.157179 c -1.763248,-0.482624 -0.318204,0.480858 0,0 z M -8.6680177,80.573635 c -0.1221394,-1.918847 -0.466533,2.272322 0,0 z m 55.1023957,0.388868 c -2.533362,-0.837656 1.322576,0.867643 0,0 z m 5.953125,-0.511353 c -2.241097,-4.345463 -0.599637,2.140122 0,0 z m -8.069792,-0.01781 c -1.345012,-1.053964 0.370838,0.961599 0,0 z m -1.071562,-0.486824 c -2.443045,-1.890021 -2.515068,-0.876982 0,0 z M 31.882295,79.639587 c -1.345012,-1.053964 0.370838,0.961599 0,0 z M -7.9037452,79.176566 c 0.9182138,-1.127661 -1.7289492,1.364407 0,0 z M 5.4309647,78.896935 c -1.1508554,0.314282 -0.5114711,0.74879 0,0 z M 40.745837,78.458271 c -1.233976,-0.996674 -1.537808,-0.575558 0,0 z m 0.298328,-1.933028 c -1.54147,8.67e-4 -3.852305,2.043131 0,0 z M 16.322942,76.271185 c -0.438741,0.338633 0.391571,1.743834 0,0 z m 1.843958,0.127256 c -0.463082,0.26443 0.429439,1.457014 0,0 z m 19.596862,0.700043 c -0.974059,-0.300093 -0.486066,0.460775 0,0 z M 25.432836,74.806531 c -0.879371,-0.684807 0.83665,1.443163 0,0 z M 21.157362,73.16025 c 0.916094,-1.536599 -5.332711,4.031876 0,0 z m 28.253578,1.527328 c -3.228999,-0.386028 -0.636978,0.390432 0,0 z M 18.904203,71.865769 c 1.55709,-2.674295 -5.071055,5.876171 0,0 z m 5.702051,1.820693 c -3.424916,-2.275661 1.961419,2.045507 0,0 z m 19.310531,-1.084781 c -4.117727,-9.550978 0.402865,3.297328 0,0 z m -17.4269,0.217686 c -6.11397,-6.495339 0.331693,1.508878 0,0 z M 0.79149407,72.150418 c 1.13513003,-2.392094 -2.69226807,3.501284 0,0 z M 39.985655,71.919589 c -3.507138,-3.02151 2.85593,3.823782 0,0 z m 13.105096,0.251681 c -6.895156,-7.174318 1.611561,3.234976 0,0 z m -30.270434,0.678505 c -1.457016,-0.429436 -0.264431,0.463078 0,0 z M 6.4161509,72.573695 c -2.6396074,-0.397924 -0.5163203,0.405238 0,0 z M -7.2465958,70.379909 c 2.386205,-2.043518 -6.5999082,4.193663 0,0 z m 11.612226,0.352452 c 5.2256669,-1.32587 -7.7536157,1.663434 0,0 z m 33.8005188,0.265331 c -1.457014,-0.429436 -0.264431,0.463078 0,0 z M 22.092713,70.373975 c 2.849555,-0.472365 -0.875028,0.843569 -1.5875,0.382034 z m 28.244269,0.09455 c -1.457014,-0.429439 -0.26443,0.463082 0,0 z M 6.8364045,69.386983 c -5.0986035,-6.301617 1.3473378,2.199089 0,0 z m -10.6067114,0.273512 c -3.2289992,-0.386028 -0.6369783,0.390432 0,0 z M 26.593589,68.238126 c 1.144305,-1.477411 -4.334605,3.476435 0,0 z m 8.215768,0.222815 c 2.889437,-2.999882 -3.248281,2.91424 0,0 z m 6.597938,0.595313 c -1.345013,-1.053966 0.370834,0.9616 0,0 z m -1.785937,-0.711551 c -2.049318,-0.411748 -0.393457,0.425576 0,0 z m -14.106254,-1.90848 c 3.600923,-4.226121 -5.036915,4.761882 0,0 z m 24.206046,0.07248 c 2.231581,-3.348589 -3.731032,3.627651 0,0 z M 36.536258,66.366035 c 0.699952,-1.970785 -2.103043,3.056868 0,0 z M 8.9958383,66.800747 c -4.7568605,-3.477445 -0.6370829,1.509149 0,0 z M 16.645229,65.9474 c -6.551254,-9.290084 0.982094,2.44171 0,0 z m 22.86326,-1.318874 c 1.247007,-4.111695 -3.368877,6.741407 0,0 z M 3.0856504,65.021358 c -0.4630786,0.264431 0.4294362,1.457016 0,0 z m -9.7484276,-1.331629 c 1.0334065,-1.875408 -3.0874625,3.301998 0,0 z m 16.3685227,0.554416 c -0.4896625,-0.53897 0.265584,1.548604 0,0 z M 26.968908,63.257469 c -0.233682,-1.884533 -0.694667,3.79645 0,0 z m 0.9957,0.313717 c -0.438741,0.338634 0.391571,1.743834 0,0 z m 9.055014,0.288943 c -2.58365,-0.307332 -3.280075,0.724196 0,0 z M 4.7981353,63.55365 c -2.7907161,0.14315 1.3921819,0.396239 0,0 z M 49.66077,63.359351 c -3.375603,-2.391967 2.272695,2.220313 0,0 z M 7.0720971,63.604735 c -0.9740589,-0.300091 -0.4860667,0.460772 0,0 z M -4.9609318,63.060192 c -1.4570143,-0.429439 -0.2644306,0.463082 0,0 z m 37.1122988,-0.3612 c -1.15325,-0.350081 -1.230092,1.005027 0,0 z m -34.9956323,0.08512 c -2.6396073,-0.397928 -0.5163201,0.405242 0,0 z M 28.229191,61.983686 c -0.438741,0.338634 0.391571,1.743834 0,0 z M 48.15417,62.60291 c -0.66198,-0.60006 -3.808044,0.31022 0,0 z M 26.724465,61.122482 c -6.92555,-6.140554 2.137943,3.791094 0,0 z m 6.613039,1.054606 c 0.656022,-1.042076 -1.938974,1.109364 0,0 z m 12.506597,0.09103 c -1.763248,-0.482624 -0.318204,0.480858 0,0 z M -1.8520778,61.780213 c -1.8780759,-1.502219 0.92238318,1.374187 0,0 z M 16.622733,61.157651 c -3.640402,-3.067048 -2.239643,-1.307347 0.482264,0.722468 z m 20.611473,0.297178 c -4.074797,-0.359309 -0.853709,0.367263 0,0 z m -8.923785,-0.557237 c -1.86155,-6.157077 -13.298385,-1.934482 -2.799775,-2.970529 1.095171,-0.621814 2.201478,3.791941 2.799775,2.970529 z m 16.80104,-0.837171 c 1.353548,-1.892381 -1.97448,1.924196 0,0 z M -3.3482762,59.652135 c -0.8477332,-1.041909 0.2894531,1.311829 0,0 z M 13.295317,59.091443 c -1.457014,-0.429436 -0.264431,0.463078 0,0 z m 33.009669,-0.684668 c 1.733003,-4.130072 -7.322376,-1.631381 0.169742,-1.643909 0.53269,0.160445 -1.889112,4.230124 -0.169742,1.643909 z M -2.4529024,57.783902 c -0.9740589,-0.300091 -0.4860667,0.460772 0,0 z m 2.25810829,-0.290979 c -2.96760599,-0.418971 -0.54285268,0.415393 0,0 z M 39.290628,55.562505 c 4.307098,-4.690731 -4.929508,4.731153 0,0 z M 1.6099603,55.270189 c -0.91148512,-1.409863 0.7724904,2.342399 0,0 z M 34.616995,53.983377 c 8.15982,-5.104881 -7.894545,5.31187 0,0 z M 8.044658,54.994604 c -8.10647228,-6.685711 1.2777112,1.822716 0,0 z m 1.246587,-0.928486 c -1.8456118,-3.142553 1.696599,3.77596 0,0 z m 31.93038,-1.237861 c -0.409848,-2.139934 -1.000704,3.271911 0,0 z m -7.72229,-1.143626 c 2.453105,-6.351738 -3.108827,5.864387 0,0 z M 3.9687552,52.519796 c -5.2023253,-1.27644 1.7056889,1.118518 0,0 z M 8.570943,52.321359 c -1.023819,-5.340319 -0.2618273,1.629825 0,0 z m 6.888223,-1.322917 c -0.987906,-6.407349 0.227713,5.956384 0,0 z m -1.804518,0.661459 c -3.8898639,-4.765994 -6.6754024,-4.103071 0,0 z m 12.543554,-2.458295 c -0.708215,-1.379353 0.692863,6.874767 0,0 z m 12.623893,3.026046 c -0.97406,-0.300093 -0.486065,0.460775 0,0 z m 1.322917,-0.264583 c -0.974058,-0.300091 -0.486067,0.460772 0,0 z m -9.591177,-3.145055 c 6.881821,-4.105059 -7.327081,4.882845 0,0 z m -10.445497,0.933338 c -2.81952,-4.700867 -8.117173,-3.762172 -1.361922,-1.479569 0.476266,-0.799887 0.98524,2.578235 1.361922,1.479569 z m 2.423354,-2.192493 c 1.450858,-3.96212 -2.72531,5.504763 0,0 z m 11.780302,1.07487 c -0.453631,-0.454903 0.22842,1.47916 0,0 z m -8.466666,-0.79375 c -0.453631,-0.454903 0.22842,1.47916 0,0 z"
         id="path3738" />
      <path
         style="fill:#359c1d;stroke-width:1.43068"
         d="m 11.969532,86.249712 c -7.4458889,-3.160529 -16.3878089,0.544773 -23.241782,-4.792298 2.0417566,-4.791601 2.8447543,-4.474251 -1.082878,-8.279497 1.040817,-5.005585 6.8627829,-4.067716 1.718618,-9.090359 4.2563777,-3.266441 5.8261505,-2.462037 4.3371288,-7.627587 7.15303905,0.714499 3.6043284,-9.634147 11.5528152,-5.542458 -0.4444229,-3.139064 5.053894,-6.016255 7.906805,-4.418358 1.932705,-8.601109 7.791849,5.527404 10.587384,-3.243894 4.555761,2.390096 4.042929,6.061381 9.993075,1.723911 3.780958,2.790546 3.040203,6.49409 9.388127,5.470997 -2.831496,6.302039 10.32591,1.601238 4.635284,9.340014 6.586106,0.576295 4.227695,6.84596 4.121657,8.955989 10.103111,3.104912 -5.127487,7.388046 2.76301,11.400803 -1.262457,6.46324 -10.384292,1.51607 -13.854308,5.828326 -9.420117,-0.805663 -18.864348,-0.802104 -28.824936,0.274407 z m 5.625264,-3.040557 c 7.685754,-2.146087 3.737597,-3.357114 3.218362,-2.251953 -2.081645,1.997374 -1.517695,-2.176055 -2.834638,0.01234 1.081889,2.752813 -3.118046,0.986568 0.191736,1.047018 -4.15972,-2.139976 -5.642543,-2.411658 -5.677537,-0.472299 4.090311,-1.802419 4.285565,3.574158 -0.02457,2.556173 1.748329,0.05326 3.472364,-0.370947 5.126643,-0.891278 z m 13.741108,0.670313 c -0.03509,-2.632682 -3.799423,-6.854869 2.0016,-2.770598 2.485823,3.242778 13.739679,3.054259 3.781705,1.74287 -5.207604,-1.982507 -1.52433,-4.282602 -8.298275,-3.455613 0.93882,3.420654 4.592785,3.707529 0.143116,4.164395 -2.799111,0.592913 -2.020861,-2.931827 -3.122198,-1.144964 -6.169536,-0.0058 2.339734,2.140422 5.494051,1.463911 z M 6.9609922,82.696797 C 11.51618,81.327617 15.32467,76.552904 10.363257,77.36836 8.9738369,81.921256 10.465204,75.828955 5.3169177,77.41026 0.19311241,75.920535 5.1679395,77.37422 2.487894,73.979307 c 0.1410855,-1.049194 6.3565945,0.538414 3.9991411,-0.920498 4.2891079,-0.224874 3.5703819,0.9746 6.9325389,0.447477 -0.870847,-1.62945 -10.6198586,-2.672504 -11.7146881,2.475129 2.8718358,2.87619 -5.8715609,7.323833 -10.4003909,4.778726 3.6853112,-5.493947 -3.34423,3.46739 4.4712915,1.103325 4.05510331,-2.684445 15.3239185,-6.06388 12.8892006,-0.292423 -5.4656282,1.483352 -10.5876319,1.37088 -1.7039967,1.125736 z m 3.6223458,-3.265172 c 0.725162,-1.815982 3.045863,-0.435823 -4e-6,-2.2e-5 z m 3.516897,3.467389 c -1.240613,-0.511315 -4.77533,0.713297 0,0 z m 15.003936,0.01581 c -0.163104,-2.426606 -1.894995,-1.268108 3.4e-5,-2e-6 z m 11.482571,0.120982 c -1.380875,-0.278642 -0.94022,0.775675 0,0 z M 14.275915,82.410549 c -0.755923,-2.214159 -3.392851,0.569545 0,0 z m 23.294922,-0.109514 c -0.402745,-1.253951 -0.687733,0.947314 0,0 z m 5.008387,-0.435017 c -9.783889,-6.804026 -1.297375,-0.04061 0,0 z M 2.1942073,81.442603 C 8.2658968,78.49151 6.2978201,77.547795 1.3313367,82.107334 l 0.4082645,-0.21879 z m -0.077535,-0.05083 c 0.8941221,-1.073351 1.2510498,-0.730745 0,0 z M 25.400004,81.176515 c -0.958194,-0.586381 -0.794351,2.360844 0,0 z M 3.6530734,81.087794 c -0.7487914,0.511473 -0.3142799,1.150853 0,0 z m 2.7297632,0.06874 c -0.8131476,-0.644718 0.7882952,1.420507 0,0 z m 31.7499984,0 c -0.879369,-0.684808 0.83665,1.443164 0,0 z m 13.296314,0.199297 c 0.335773,-4.604299 -7.294314,-3.241069 -0.201495,-2.050878 -1.326744,1.566576 0.417962,2.460337 -5.454725,1.040028 -1.508347,-0.440129 -2.397419,-0.624275 -5.365538,-2.79289 3.836294,-1.653086 -10.127489,-0.196397 0.206166,1.088145 3.15873,1.855579 7.069365,3.782418 10.815592,2.715595 z M 42.465628,79.11042 c 0.652538,-0.94252 0.319979,0.967355 0,0 z m -46.963539,1.426901 c -1.4586434,-0.459605 -0.9965924,0.856033 0,0 z m 1.8520832,0.160599 c -0.3199785,-0.967355 -0.6525384,0.94252 0,0 z m 19.5791658,0.01561 c -0.402747,-1.253948 -0.687731,0.947313 0,0 z m -1.065996,-0.534447 c 0.89079,-1.491062 -1.804676,1.06192 0,0 z m 2.653496,-0.275563 c -0.859839,-1.506234 -1.509213,0.177628 0,0 z m 4.934068,-0.414414 c -1.228342,-2.527389 -1.770376,1.595227 0,0 z m 4.932273,-0.114473 c -0.212239,-1.431207 -0.535969,1.760467 0,0 z m -34.4725899,3.65e-4 c -0.6525403,-0.94252 -0.3199764,0.967357 0,0 z m 2.873819,-0.08819 c 0.4067091,-1.197475 -1.1349576,1.126944 0,0 z M 16.773793,79.154517 c -0.662221,-0.821313 -0.981903,0.796953 0,0 z m 3.192416,-1.094838 c 0.593797,1.15344 1.823134,-5.561517 -0.387033,-1.023662 -1.330163,-3.994131 0.325377,5.037894 0.387033,1.023662 z m 1.729629,1.050741 c -0.319978,-0.967355 -0.652539,0.94252 0,0 z m -6.433843,-0.578776 c -0.453631,-0.454903 0.22842,1.47916 0,0 z m 8.947384,0.04961 c -0.949404,-1.007322 -0.328571,1.043085 0,0 z m -7.563852,-0.572567 c -2.068207,-8.770335 10.978415,-8.943567 10.731787,-2.470141 0.562465,-3.503099 1.454781,-1.742313 -2.318608,-4.296597 -3.064376,-2.616619 -4.679433,-2.313245 -7.431323,1.111076 -3.354421,-1.067251 0.63071,3.902297 -2.983227,2.194368 0.156735,-2.063072 0.867052,4.641401 2.001371,3.461294 z m 0.150601,-4.417951 c -0.384702,-3.328209 0.22229,0.994984 0,0 z m 2.977071,-2.979813 c 1.42051,-0.788292 -0.644714,0.813149 0,0 z m -23.7419434,7.441165 c -0.3199762,-0.967357 -0.6525402,0.94252 0,0 z m 4.61890907,0.01828 c -0.0965989,-1.303114 -0.84336836,0.880234 0,0 z M -4.894786,77.52292 c -0.3199787,-0.967355 -0.6525386,0.94252 0,0 z M 25.01013,77.309435 c -1.150854,0.314282 -0.511472,0.748791 0,0 z m -5.730354,-2.779712 c -0.559692,0.793985 6.06292,1.3944 3.634196,0.391858 -6.18566,-2.114446 4.226921,-1.79529 1.065862,1.221713 5.165163,1.025812 -3.775936,-7.527147 -5.970307,0.773756 0.300194,1.788237 0.643811,-4.698105 1.270249,-2.387327 z m 2.680645,2.712999 c -0.490235,-0.696387 0.206744,-0.329043 0,0 z m 10.465289,-0.0074 c 0.20437,-1.89885 -1.656953,1.402601 0,0 z M -0.230474,75.718731 C 0.13191707,71.267 9.8241854,69.913573 2.3447099,67.002364 5.398831,70.232042 -0.30674558,70.959951 -0.09083978,72.55524 -2.4155964,72.067937 0.21480842,79.943734 -0.230474,75.718731 Z m 4.3976667,-5.514789 c 1.4570144,-0.429436 0.264431,0.463079 0,0 z M 2.9104219,69.188546 c 0.6559883,-1.394085 0.6559883,1.394085 0,0 z m 44.3988991,7.401331 c -0.748793,0.511475 -0.314277,1.150851 0,0 z m -52.4842664,-0.0014 c 0.6617679,-1.535373 -2.8331812,1.1399 0,0 z M 8.1125367,76.337238 c -1.6780157,-3.885868 -1.7284133,1.630084 0,0 z m 33.9622253,0.0612 c 5.162827,-2.970265 0.415347,-8.150979 -0.817604,-7.96922 -1.931435,-4.096719 -2.282317,-1.882806 -0.987618,-7.257553 0.893962,-0.868428 -2.099841,1.078231 -2.469132,0.01946 -4.159744,-1.232093 -11.447667,4.723485 -2.036854,0.516262 8.891265,-1.284043 -3.012354,8.609056 5.422736,7.515408 4.551685,1.508496 0.927414,6.421813 0.888472,7.175639 z m -3.3133,-8.382502 c -1.61341,-3.697891 3.368058,0.538169 0,0 z m 9.921874,8.211947 c -4.820558,-1.435893 -1.127717,0.949288 0,0 z m -17.89552,-0.690554 c -0.646765,-4.201567 -2.17827,-3.426098 -0.779566,-0.491258 0.98358,0.174668 -1.682166,2.003515 0.779566,0.491258 z m 2.47803,0.502819 c -0.974058,-0.300091 -0.486067,0.460772 0,0 z m 4.437282,-0.104731 c -3.056762,-2.453727 -4.593245,-2.112688 -3.48837,-0.886634 -1.90034,1.72652 2.814153,0.840782 3.48837,0.886634 z m -9.122673,-0.790381 c -1.57361,-0.256332 0.696741,1.511891 0,0 z M 11.46839,74.997968 c -0.847733,-1.041911 0.28945,1.31183 0,0 z m 28.419967,0.0508 c 3.906906,-6.167963 -14.350418,-4.433862 -1.779764,-3.677934 6.213576,0.740415 -3.5107,4.818998 1.779764,3.677936 z m -1.295394,-0.143702 c 0.541011,-1.206478 1.470021,0.392337 0,0 z m 6.302364,-0.07758 c -0.453631,-0.454903 0.22842,1.47916 0,0 z m 3.920301,0.05251 c 10.645831,-0.651424 -3.172208,-7.066674 0.291097,-4.215239 14.716557,1.11084 -10.858072,5.952992 -0.291097,4.215239 z M -3.990793,74.70679 c -5.7705227,-1.24124 -6.959729,0.338034 0,0 z m 28.172919,-0.314772 c -0.60889,-0.793955 -0.608895,0.793953 0,0 z M -5.5562443,73.891333 c 2.017419,-1.35612 -3.1114068,-0.748021 0,0 z m -1.7537363,-0.01766 c -1.946164,-1.336287 -0.1686722,0.86373 0,0 z M 13.941692,72.831602 c -0.438741,0.338634 0.391571,1.743834 0,0 z m 1.150787,-0.251849 c -0.77048,-2.975749 -0.699433,2.627448 0,0 z m 22.892327,0.620713 c 1.319189,-1.478307 -1.863553,0.857059 0,0 z m 1.26806,-0.04617 c 1.490888,-1.373414 -1.189642,0.237968 0,8e-6 z m 6.520054,0.135292 c -0.652539,-0.94252 -0.319978,0.967355 0,0 z M -3.4395777,72.996521 c -0.5688334,-1.166895 -0.9860894,0.805208 0,0 z m 0.8810277,-0.08191 c -0.4733326,-1.770184 -0.5833824,1.227571 0,0 z m 54.804678,-0.37912 c -1.058967,0.05328 -0.683824,1.31355 0,0 z m -2.769042,0.196934 c -0.864468,-1.30653 -1.411111,0.986854 0,0 z M -9.3385292,72.225687 c 1.6190634,-2.761528 5.8653497,-2.111437 7.1251311,-1.765566 2.79557791,-3.809447 -11.7844539,2.316025 -7.1251311,1.765566 z M 51.199173,72.54223 c 1.351879,-1.803313 -1.480732,0.527522 0,0 z M 10.481698,71.463977 c -1.5832294,-2.101412 0.597991,2.735175 0,0 z m 36.614138,0.927876 c -1.032968,-0.862696 -1.060446,0.469669 0,0 z M 36.909378,71.96667 c -0.319978,-0.967357 -0.652536,0.942523 0,0 z M -2.1142434,71.572709 c -1.7698622,-0.825023 0.3461044,1.274994 0,0 z m 1.24884088,0.234109 c -0.97405858,-0.300091 -0.48606678,0.460772 0,0 z M 9.5390413,71.586708 C 9.4044759,71.120518 7.1817603,67.469711 7.1764452,69.168342 5.6283414,67.315591 3.390947,64.47754 9.4921595,68.097905 7.4037504,68.903416 12.372974,71.25148 9.6585625,67.890807 0.85668963,60.499681 5.8623754,71.265631 9.5390413,71.586708 Z M 7.4083384,69.850004 c -0.4365812,-0.980836 1.3375389,0.996329 0,0 z m 4.7624996,2.016772 c -0.894073,-1.073302 -1.251102,-0.730805 0,0 z m 2.116667,-0.737778 C 15.698217,67.76061 11.310433,67.90336 14.2442,69.11448 c -0.377351,-0.117322 -1.457267,3.668597 0.04331,2.014518 z m 2.557638,0.176214 c -1.145666,-1.755445 0.105231,1.618103 0,0 z M -5.1612423,71.175951 c -0.6695991,-0.483872 -1.0533672,0.852322 0,0 z m 17.8612473,-0.003 c -2.064067,-1.777854 0.958313,1.316099 0,0 z m 3.305418,-0.261552 c -0.669595,-0.483873 -1.053373,0.852321 0,0 z M 2.2771367,69.828026 c -0.4682461,-2.360704 -0.7572519,2.420491 0,0 z M 17.197921,70.48298 c -0.631912,-0.748827 -1.013994,0.349003 0,0 z m 8.56762,-0.249843 c 1.048268,-2.483708 3.470821,-3.883613 5.653758,-3.562228 -0.298298,-0.731695 -4.706671,0.304105 -0.927546,-4.015572 -1.637675,-3.333597 -2.123084,6.539799 -2.583433,2.843823 1.611921,-1.253255 0.462485,-7.185714 -2.707337,-8.767503 2.623633,-1.026999 -5.10571,0.864873 -5.092618,0.985147 -0.878345,2.176054 -3.149106,-0.515405 -2.229196,2.280445 -0.908159,3.722101 7.192111,-7.095272 9.352461,-0.316645 4.002621,3.282035 -3.584552,11.175709 -1.466089,10.552533 z m 1.486546,-2.733153 c 0.436584,-1.235271 0.918264,0.456102 0,0 z m -15.081249,2.35002 c 0.221604,-1.768176 -1.452912,1.72377 0,0 z m 35.255727,-0.16298 c 1.567235,-1.692882 -2.568689,1.130693 0,0 z M 24.037773,69.428831 c -0.899052,-0.222168 7.320006,-11.695554 -1.22034,-8.798862 1.220182,1.998302 2.848996,1.947068 2.197463,5.534915 -5.490463,-0.769577 0.818048,0.17805 -1.996143,3.452931 0.138089,0.606047 0.735038,-0.785173 1.01902,-0.188984 z m 2.207561,-5.531952 c 0.288366,-1.256529 0.155205,1.593705 0,0 z m 0.213003,-1.218692 c -3.456054,-3.445581 1.065718,-1.7633 0,0 z m -1.058333,-0.228212 c 1.060444,-0.469668 1.03297,0.862695 0,0 z m -2.251461,-1.864436 c 1.20353,-0.915804 1.625167,0.831626 0,0 z m 21.30146,8.704068 c -0.918266,-0.456099 -0.436583,1.23527 0,0 z M 15.240729,68.573169 c -1.163442,-1.020374 1.327611,2.182238 0,0 z m 4.073859,0.747668 c -0.319981,-0.967357 -0.652536,0.942523 0,0 z m 15.848208,-1.200535 c 4.886717,-7.835657 -1.284534,0.463065 -1.397579,1.260608 l 1.397617,-1.260613 z m 10.742415,1.200535 c -0.31998,-0.967358 -0.652538,0.942523 0,0 z M 0.1763943,68.935601 c -0.67651335,-0.916373 -0.0567201,1.204502 0,0 z M 17.207218,69.062 c -0.819593,-1.186479 0.269286,-4.863174 -5.33008,-7.88823 -4.1245347,-2.190635 -1.423106,6.967261 -0.709323,5.664331 3.56874,-1.029458 3.808938,0.996033 6.039403,2.223899 z M 15.46725,67.980318 c 0.897883,-0.397075 0.09395,-0.224603 0,0 z m -3.95787,-1.834481 c 0.65254,-0.94252 0.319977,0.967357 0,0 z m 1.719791,-0.007 c 1.466503,-0.689813 0.92976,0.643549 0,0 z m 2.447396,-0.388805 c -2.444316,-4.597807 1.905682,1.681334 0,0 z M 13.250364,65.15365 c -2.067741,-0.495658 -5.680881,-1.665696 -1.336731,-2.695294 0.872602,-0.565111 3.810795,2.635457 1.336731,2.695289 z m 0.772557,-0.05053 c -0.03207,-3.121719 -2.882879,0.626432 0,0 z m -1.683014,-2.066136 c -1.243584,-1.710706 -1.204995,2.746829 0,0 z m 2.344473,2.050521 c 0.319978,-0.967356 0.652539,0.94252 0,0 z m -4.365625,-2.910416 c 0.652536,-0.942523 0.319981,0.967357 0,0 z M 17.920304,68.81 c -0.690229,-1.400578 0.01573,1.639388 0,0 z M -0.79374453,68.659379 c -1.71472117,-1.301925 0.54794598,1.369118 0,0 z M 28.575004,68.95227 c -0.120588,-0.710414 -1.564576,0.237121 0,0 z m 21.056337,-2.35162 c 2.237053,-7.856361 -9.339004,-1.674178 -4.784467,-2.534287 -1.812462,0.506672 2.31327,-3.915733 5.258263,0.963825 -1.11154,2.850819 -6.148224,5.029767 -0.473796,1.570462 z m -51.6157105,1.661854 c -1.7412441,-0.964072 0.030936,0.754851 0,0 z M 29.572666,67.865629 c -1.198552,-2.461829 -0.515382,2.570256 0,0 z M -4.9923853,67.113681 c -3.8570146,-1.897548 -0.4322005,-3.539689 0.5606201,-3.791288 10.3215453,1.167879 -7.4998978,-2.478248 -1.7190081,3.347542 l 1.2671821,0.74502 -0.1087914,-0.301316 z M 22.621879,66.939587 c -1.115394,-0.993819 -0.75727,0.727425 0,0 z M 3.1750053,65.509771 c 2.8285827,-2.643239 6.1140027,-0.80553 7.0560267,-6.304847 7.328973,-3.206353 11.109846,13.655942 8.823291,4.165456 2.025389,1.660748 1.173267,-1.987706 0.464216,-1.427556 -4.9546,-2.61211 -2.91833,-3.277468 -8.829389,-3.447928 -3.3686302,2.15666 -3.0470317,6.786142 -4.4309431,3.365844 0.7831661,1.324262 -6.54619677,2.681328 -3.0832016,3.649031 z M 15.462553,59.936544 c -0.950367,-1.43645 1.875593,1.429875 0,0 z m 17.261941,6.159684 c -0.453631,-0.454903 0.22842,1.47916 0,0 z m 9.136171,-0.09153 c 2.066714,-1.52859 -3.185246,-0.362598 0,0 z m 1.795588,-0.139229 c -1.195202,-2.030602 -1.434391,0.341949 0,0 z M 19.843754,65.352087 c -0.675997,-0.94918 -0.675992,0.949182 0,0 z m 16.158983,-0.529166 c 1.617394,-0.412247 -1.748248,1.176939 0,0 z m 10.666303,0.480753 c 0.05281,-1.007753 -2.124049,-0.02364 0,0 z M 22.437818,64.889067 c 0.601013,-2.523321 2.500307,-3.826967 -1.321892,-0.934121 0.210038,0.08342 1.519336,2.316727 1.321892,0.934121 z m 8.891689,0.236658 c -0.57941,-0.473309 -2.500276,0.784736 0,0 z m 2.790266,-0.703166 c 8.622531,-2.330973 -7.545478,1.940589 0,0 z m -38.3531007,-0.14442 c -1.057559,-1.027021 -0.3490956,1.39748 0,0 z m 4.76249976,0.280198 c -1.55401136,-0.96074 -0.59991232,0.690189 0,0 z M 21.166671,64.557509 c -0.875458,-1.188631 -1.84714,0.815323 0,0 z M -2.9104111,63.757868 c -1.3627496,0.290716 -1.5078019,1.691263 0,0 z M 42.59792,63.632296 c -1.635465,-1.527785 0.53619,1.435406 0,0 z M 3.103638,63.253751 c -0.6902272,-1.40058 0.015728,1.639387 0,0 z m 2.250664,-0.955498 c -0.9688163,-1.923259 0.038702,2.129872 0,0 z m 0.647277,0.09381 c -0.4896625,-0.538971 0.2655838,1.548605 0,0 z m -6.63252067,-0.36969 C -3.2334493,61.779314 -4.579756,56.544177 1.1906304,57.43747 c -6.9937877,-1.908302 -5.7038693,4.43012 -1.82157207,4.584903 z m 5.10109307,0.206605 c 0.7947778,-3.453716 -1.9591134,2.002392 0,0 z m -1.1524493,-0.06873 c -0.3082339,-2.823641 -3.0315553,1.161994 0,0 z M 5.4240227e-6,61.647921 c -1.2795597240227,-1.913941 0.6802465459773,1.880693 0,0 z m 41.6718725759773,0 c -0.319979,-0.967355 -0.652538,0.94252 0,0 z M 7.54063,61.118754 c -0.3199806,-0.967357 -0.652537,0.942523 0,0 z m 22.814799,0.104731 c -0.974059,-0.300091 -0.486066,0.460772 0,0 z m 14.126146,-0.658903 c 8.213103,-8.957258 -14.241534,-0.779461 -4.851915,-2.041838 -0.640412,1.971212 4.256401,-1.042785 0.407776,-0.932877 6.847706,-3.054771 0.372835,3.182335 4.935285,-1.233666 4.738436,-0.466378 -4.442888,6.484458 -0.491146,4.208381 z M 3.8364636,60.854171 c -1.3450139,-1.053965 0.3708376,0.961599 0,0 z m 1.9843749,-0.101447 c -0.4016677,-0.631341 -2.6719689,0.282317 0,0 z m 16.0679245,-0.05841 c -0.974057,-0.300094 -0.486069,0.460775 0,0 z m 8.009158,-0.510811 c 0.782946,-3.326162 -3.413832,1.411188 0,0 z m 12.059701,-0.03106 c 2.898895,-0.877791 -2.900427,-0.636761 2e-6,6e-6 z M 3.9687552,59.764979 c -1.1582055,-0.636252 -2.7061415,1.243923 0,0 z m 1.5654513,0.485157 c -1.1322311,-1.241091 -1.2578895,-0.210638 0,0 z M 21.166671,59.768179 c -1.013741,-0.862024 -2.837251,1.460961 0,0 z m 9.391553,0.290373 c 1.088599,-2.49733 -0.775372,0.109891 0,0 z m 1.98553,0.0019 c -1.938974,-1.109364 0.656021,1.042074 0,0 z m 4.115173,-0.590033 c -1.831226,-0.62752 0.860434,1.40544 0,0 z m -33.880179,-0.003 c -0.3431301,-0.944704 -1.5974871,0.888735 0,0 z m 30.955631,0.06385 c -2.081139,-0.935447 -0.187009,0.704445 0,0 z M 4.7579548,58.810371 c -2.6260864,-0.661844 0.9525288,1.210236 0,0 z M 44.97917,59.162687 c -0.120588,-0.710414 -1.564578,0.237121 0,0 z M 1.8520887,58.472921 c -1.09091922,-1.915221 0.3272835,1.881106 0,0 z m 7.9374995,-0.166805 c -2.6324621,-2.692813 -0.1506918,1.484562 0,0 z m 23.4156238,0.431388 c -1.017129,-0.948585 -0.678164,0.979988 0,0 z M 3.8081561,58.31899 c 0.6955492,-1.65999 -3.05057031,-0.465883 3e-7,4e-6 z M 16.7349,57.943754 c 0.903832,-1.336941 -2.393141,1.387675 0,0 z M 0.7220974,58.048485 c -0.97405915,-0.300093 -0.48606614,0.460775 0,0 z m 4.6024059,-0.704453 c -0.8793701,-0.684807 0.8366511,1.443164 0,0 z M 39.245163,55.617481 c 7.313397,-9.931037 -15.088437,5.281114 -3.650949,-1.894525 3.094638,-2.692021 7.189925,-0.01897 3.053557,1.111943 -0.892743,2.390853 -2.797537,4.548175 0.597392,0.782582 z m -27.206617,1.797107 c -1.345013,-1.053964 0.370839,0.961599 0,0 z m 6.078714,-0.494362 c 0.05552,-3.267483 -1.185887,1.817947 3e-6,-10e-7 z m 13.172835,-0.235952 c 0.459605,-3.377119 -1.005562,2.983326 10e-7,-3e-6 z M 1.8963572,55.758802 C -0.50566465,49.500164 7.5010827,56.460687 3.1204576,53.519804 4.9077428,51.449429 13.976208,60.929835 5.872698,53.194195 0.57605217,47.761974 0.99733252,58.488959 1.8963572,55.758802 Z m 14.9332518,1.192765 c 1.242563,-2.153076 -1.839343,1.669793 0,0 z M 6.001579,56.571229 c -0.4896625,-0.538971 0.2655838,1.548605 0,0 z m 15.83743,0.06721 c -1.195096,-1.130287 0.346356,1.318754 0,0 z M 11.112505,56.091669 C 9.1075799,53.378914 9.5691678,52.161649 9.2559297,53.048962 6.7426962,43.104645 7.5036983,54.594048 11.112505,56.091669 Z m 8.341376,0.0511 c -1.150854,0.31428 -0.511474,0.74879 0,0 z m 4.623206,0.213485 c -0.652536,-0.942523 -0.319978,0.967357 0,0 z M 12.007208,55.945638 c -0.262279,-0.973121 -0.544546,1.346972 0,0 z m 11.141965,0.149064 c 0.283637,-1.504006 -3.055097,-1.260412 0,0 z m 3.942315,-0.156962 c 0.169211,-1.498603 -3.160418,-16.088982 -0.931566,-4.74086 -0.830221,-0.718365 -1.830297,4.358613 -0.05607,3.35098 0.02508,0.327159 0.477557,2.573333 0.987638,1.38988 z M 5.9531301,55.827088 c -1.3450139,-1.053965 0.3708381,0.961599 0,0 z M 20.934919,54.962782 c -0.87937,-0.684806 0.836652,1.443164 0,0 z m 11.908187,-2.046111 c 2.077373,-7.650765 0.608319,-3.831079 -0.373061,-0.595314 -0.688399,-1.323719 -3.286953,7.062303 0.373061,0.595314 z m -0.941009,0.296624 c 0.524197,-1.249945 1.149636,0.462227 0,0 z M 3.0061023,54.901046 c -0.6279994,-1.388266 -0.2289728,1.397555 0,0 z M 14.948963,54.768755 c 0.114652,-3.547654 -0.309897,1.695179 0,0 z m 4.233333,0.264583 c 1.424257,-1.618804 -3.333255,-2.324949 10e-7,0 z m -1.515842,-0.578776 c -0.687079,-1.304993 -0.323926,1.14134 0,0 z m -6.818532,-0.214974 c -0.652539,-0.94252 -0.319978,0.967355 0,0 z m 3.049709,-0.213485 c -1.150854,0.314278 -0.511472,0.748793 0,0 z m 1.733699,-2.14888 c -1.334465,-6.121523 0.986467,-6.591459 4.158226,-2.030645 -0.736577,2.86694 -1.332173,1.371812 -2.761952,-0.07163 -1.148074,1.280363 -0.581801,2.735873 2.897947,2.608501 2.028558,-4.571876 -7.827447,-10.007965 -4.676105,-0.92199 -0.23383,0.444902 1.402893,5.799411 0.381884,0.415766 z m 12.149924,1.105555 c 2.495064,-2.729834 1.206554,-2.607578 3.744586,-3.465264 6.148839,-6.521259 -8.039998,4.539436 -3.744586,3.465264 z m 0.458611,-1.157271 c 1.420509,-0.788295 -0.644711,0.813147 0,0 z m 0.484441,-0.947945 c -0.331029,-1.15802 0.918769,1.236969 0,0 z m 0.644448,-1.239875 c 0.120589,-0.710412 1.564575,0.237123 0,0 z m 1.852083,-0.425182 c -1.672224,-0.505013 1.235497,-1.03265 0,0 z m -2.248958,4.7625 c -0.319977,-0.967357 -0.65254,0.94252 0,0 z m -9.392708,-0.264584 c -0.319981,-0.967357 -0.652536,0.942523 0,0 z m 1.719792,-0.264583 c -0.319978,-0.967355 -0.652539,0.94252 0,0 z m 0.193395,-0.701888 c -4.550127,-0.607126 2.392265,1.701996 0,0 z m 1.857533,0.04983 c -2.795887,-1.730694 0.192561,-5.692664 0.446996,-6.227106 -2.69255,-0.212825 -4.700087,7.583447 -0.446996,6.227106 z m -1.366822,-3.581273 c 0.512654,-2.182403 0.503067,0.375121 0,0 z m -7.997563,2.946988 c -4.561182,-5.622997 -7.4657324,-3.079991 -1.51301,-1.481089 0.581875,0.661496 2.331519,4.427046 1.51301,1.481089 z m 11.679081,1.021762 c -1.017124,-0.948588 -0.678169,0.979988 0,0 z m 4.414074,-1.107943 c -0.453632,-0.454903 0.22842,1.47916 0,0 z M 16.320328,51.808729 c -0.453631,-0.454903 0.22842,1.47916 0,0 z m 14.635926,0.181901 c -0.628001,-1.388266 -0.228972,1.397555 0,0 z m -6.769125,-0.56659 c 0.19961,-1.096822 -1.275502,1.468041 0,0 z m 8.885791,-0.138966 c -0.662219,-0.821314 -0.981902,0.796953 0,0 z m -9.789582,-0.07258 c -0.617461,-0.908787 -0.762054,0.504187 0,0 z m 0.793749,-0.708303 c -0.918264,-0.456102 -0.436582,1.235271 0,0 z m 1.852084,-0.101062 c -1.24026,-1.505064 -0.204446,1.295963 0,0 z m 7.408333,0 c -1.255179,-0.724826 -0.801057,-0.238834 -0.132292,0.396875 z m -8.485263,-1.007802 c -0.462356,-1.293491 -0.883072,1.989625 0,0 z M 16.40012,48.998453 c -0.327573,-1.692066 -0.847392,2.778256 0,0 z m 2.517593,0.743219 c -0.675993,-0.949181 -0.675998,0.949179 0,0 z m -1.190625,-0.633151 c -0.120588,-0.710414 -1.564576,0.237121 0,0 z m -1.058333,-1.194162 c 2.488911,-0.393919 -1.473609,-0.196532 0,0 z m 8.323075,-1.858572 c -0.01913,-1.309332 -1.255257,1.091093 0,0 z"
         id="path3746" />
      <path
         style="fill:#10541b;stroke-width:1.43068"
         d="M 12.112904,86.255288 C 7.1094664,83.528267 1.0961479,85.513622 -4.0704818,83.894871 c -6.5386672,2.063033 -8.8829232,-4.692146 -5.0461861,-7.53606 -10.1906941,-4.094584 6.5879016,-7.749005 -1.3630051,-10.898598 -0.422316,-4.953046 8.6127247,-2.831428 3.6447717,-7.957542 3.1939248,-3.800017 7.34109457,-0.734352 6.31557855,-6.753215 3.75799195,-1.856467 7.58814015,2.57627 6.75903385,-3.912076 4.7490919,-1.485189 6.8263769,1.903155 8.8856129,-3.455255 4.660334,1.585221 5.489104,5.806789 9.110135,-0.255036 4.310844,2.39423 2.437372,7.751747 7.982923,2.26921 6.211513,-1.445851 2.772591,7.994176 10.343595,4.723663 0.679695,4.640006 2.490749,3.012408 6.520206,5.57021 -3.842247,5.836002 7.73457,7.836147 2.03396,12.920358 7.037122,0.212182 4.176499,7.631594 0.562275,8.11864 8.841289,7.700459 -5.950961,5.813639 -9.570961,9.148277 -7.900511,-1.825263 -14.89944,0.497333 -22.938061,-0.510228 -2.292306,0.430258 -4.707074,1.53595 -7.056492,0.888069 z M 31.181355,84.11162 c -0.106247,-3.369072 -2.258774,-6.543754 3.267922,-2.074576 6.849655,4.53044 11.839114,-0.226122 3.386143,-4.249541 4.98161,3.372641 19.347805,6.217607 11.413413,-1.415071 -6.711975,-0.862564 11.019359,-3.549657 0.630247,-6.131935 -6.776738,-0.206843 6.271249,-7.509739 -3.649402,-7.99519 -5.821072,0.776795 5.715657,-8.353023 -2.90429,-6.076529 -6.982737,2.258978 -5.332648,1.281564 -2.100916,-3.372788 -4.194573,-3.490574 -13.740692,8.30476 -7.327608,-1.915143 1.762773,-10.6304 -9.59076,7.861228 -7.475058,-1.085588 C 25.809234,40.502374 21.5884,48.987931 20.267194,49.885628 16.643149,42.331445 13.001167,47.929 15.249028,53.630847 13.378744,47.765631 4.0849951,46.242576 9.0110642,54.232701 10.278781,56.00036 -1.9480202,48.505073 1.1757278,57.158198 c -9.6099218,-1.91187 1.1559275,7.432063 -6.9751226,5.844176 -6.7504632,4.061184 10.281463,6.469768 -0.7785453,6.826795 -9.2547919,2.43523 1.9211567,5.820323 1.0795348,6.102207 -8.0582667,5.227548 2.9419303,8.875012 8.0119493,2.93775 9.408115,-4.332125 -8.5302355,6.920455 2.8140371,4.364322 4.5794692,-1.173873 12.6008629,-8.368937 5.5203379,-0.105717 6.737279,1.547969 12.200645,-2.783197 19.223808,1.226109 l 1.109625,-0.242213 z M 16.691596,77.682734 c -2.68687,-10.639649 14.047136,-5.01191 8.848858,-2.957156 -3.874499,-5.69741 -7.254648,1.314124 -8.848858,2.957156 z M 0.17929555,76.176259 C -2.4532241,69.075529 11.670759,73.009294 3.3673226,66.372376 c 0.8574362,-4.858549 7.0489484,0.71213 6.0253907,-6.211009 7.2795437,-5.915125 11.7907967,13.129801 5.0859327,2.645706 -6.2763571,-7.157163 -3.696231,3.993703 -6.333413,3.434871 -9.4353451,-3.03613 6.266972,8.6913 -4.9571278,6.810527 -3.61540402,-0.05857 0.17243,6.225278 -3.00880965,3.123788 z M 36.410203,76.714812 c -3.756331,0.360087 10.194085,-2.800474 1.748503,-5.865669 -10.422184,1.858444 5.967301,-10.51048 -5.28341,-6.515969 -7.699111,-0.571272 13.379195,-5.940263 4.776351,2.937143 -2.405991,2.265714 11.025028,3.101715 4.123371,8.185188 -1.136301,2.075574 -3.535481,1.468374 -5.364815,1.259307 z M 24.870837,68.80098 c -0.660325,-1.363486 6.12464,-11.119455 -3.272485,-9.056219 -6.106422,-2.294818 11.003495,-2.928445 6.006909,5.050753 0.289565,1.237932 -1.36057,4.364254 -2.734424,4.005466 z"
         id="path3764" />
      <path
         style="fill:#003215;stroke-width:1.43068"
         d="m 30.628609,85.807796 c -2.371009,-0.442527 -0.427625,0.439289 0,0 z"
         id="path3808" />
      <path
         style="fill:#003215;stroke-width:1.43068"
         d="m 10.640484,85.973646 c -2.6800564,-4.288943 -9.5048977,2.011472 -12.7450968,-2.409154 -6.7956368,2.847466 -11.5826882,-3.855496 -6.8250688,-7.188854 -6.8482374,-1.536377 -0.9803666,-8.588706 1.7884131,-8.377715 -9.5403135,-3.114161 3.444702,-6.318094 1.2899333,-8.167246 -3.5667687,-6.279363 8.4363148,-2.414413 5.28648274,-9.112571 4.79688816,-1.383647 7.10221436,2.18784 7.57952256,-4.337251 5.9410989,1.014371 5.6949319,1.890781 8.3048429,-2.942135 4.581241,1.620015 5.239754,5.731536 8.794653,-0.215136 4.413567,2.132745 2.695617,7.648645 8.464265,2.080897 5.670358,-0.54641 2.38082,7.888438 9.623444,4.735116 1.656315,3.493029 -0.360064,4.794236 5.211757,4.244489 4.260405,2.845285 -3.505992,7.820923 4.76253,8.08156 3.05823,3.661453 -4.83232,6.661773 2.107941,7.580452 5.869595,5.058969 -8.233764,5.913831 -0.161261,8.929904 1.759525,8.268531 -9.785297,2.024576 -12.689659,7.043849 -7.420633,-2.172738 -14.017751,1.02352 -21.59024,-0.826362 -2.958371,0.855195 -6.13157,1.428918 -9.202459,0.880157 z m 30.827445,-0.408495 c -0.974055,-0.300094 -0.486072,0.460775 0,0 z M 2.5741806,85.035984 c -0.9740588,-0.300091 -0.4860665,0.460772 0,0 z M 31.795316,84.228788 c -5.456498,-10.563576 10.756212,5.883792 11.1865,-2.327007 -12.567819,-8.457758 15.005952,5.961285 7.53901,-3.460194 -1.071787,-2.533052 -3.981885,-3.326635 2.464045,-5.039092 -1.016657,-4.103844 -7.280768,-3.610862 -2.294045,-8.873849 -3.604368,-3.348611 -5.435659,-1.925693 -4.216743,-4.385187 -4.462787,3.204445 4.715661,-7.099441 -3.349117,-4.080282 -5.70335,0.942925 -3.878203,1.139503 -1.860546,-3.820661 -5.780765,-1.531028 -12.43394,7.481863 -7.015428,-2.324046 -1.729149,-8.372087 -10.255843,9.47082 -8.301564,-2.472598 -2.777447,-7.622002 -5.133947,8.260523 -7.801938,-0.297935 -5.895011,-6.093722 -0.907912,10.754228 -5.77222,2.693254 -8.8028909,-6.825169 -0.825483,9.10493 -4.773603,4.475555 -3.377359,-3.564853 -8.7546964,-2.850829 -6.85114841,2.682112 -7.91129249,-0.191057 -1.98866489,6.633698 -8.90434719,7.792683 5.0438155,5.642376 2.9762433,3.297865 -2.3666574,8.005143 5.8372288,2.117602 3.3044498,3.76609 1.6016968,8.621811 5.053396,3.866576 19.9293832,-8.405433 9.8911284,1.021031 3.3997213,5.746936 16.9918268,-9.617715 10.2052358,1.480234 7.662884,-1.20772 12.90521,-1.217141 20.619741,0.309028 z M 16.680277,77.059899 c -1.502854,-6.907405 10.949605,-8.352257 9.302683,-2.040015 -4.091516,-7.233071 -7.899592,2.234851 -9.302683,2.040015 z M 0.40367494,76.213143 C -2.7891629,68.739799 13.650951,71.648619 2.6545671,73.178081 -0.46539697,73.065932 3.0114312,78.709345 0.40367494,76.213143 Z M 36.777087,76.638188 c -3.806221,-1.176604 10.054811,-0.144807 0,2e-6 z m 4.167187,-1.407163 c 1.198187,-4.335067 -9.988478,-7.426997 0.03839,-5.915009 2.972862,1.457209 3.324464,5.369395 -0.03839,5.915009 z m -6.81302,-5.388988 c 5.766355,-4.701165 2.763727,-8.142482 -3.366457,-5.122378 2.997572,-5.027747 15.595447,-4.075203 3.366457,5.122378 z M 4.8019055,68.32865 C -1.2535432,64.03359 11.237408,62.904989 7.7326407,66.006746 1.2090259,62.790538 6.5889918,69.921866 4.8019055,68.32865 Z m 20.3335155,0.207746 c 0.588134,-2.129079 4.310274,-9.997459 -3.020977,-9.419978 -5.66197,-1.642301 10.032377,-1.903853 5.35996,5.402522 -0.104872,1.23188 -0.668428,4.331142 -2.338983,4.017456 z m -9.387538,-4.262234 c -4.547177,-3.210473 -5.9711701,-6.492531 0.241847,-3.159885 2.55084,0.159054 1.209563,8.441897 -0.241847,3.159885 z m -6.4665732,0.923585 c 0.1702142,-1.019692 0.268375,1.204263 0,0 z m -14.5017894,18.23704 c -1.7632491,-0.482621 -0.3182039,0.480854 0,0 z M 51.257511,83.183901 c -0.974059,-0.300092 -0.486065,0.460772 0,0 z m 1.310732,-18.146006 c -0.453631,-0.454903 0.22842,1.47916 0,0 z M 41.539587,55.987687 c -0.996593,-0.856033 -1.458645,0.459605 0,0 z M 28.259322,49.337795 c -0.748793,0.511475 -0.314278,1.150853 0,0 z"
         id="path3807" />
    </g>
  </g>
</svg>
