<?xml version="1.0" encoding="UTF-8" standalone="no"?>
<!-- Created with Inkscape (http://www.inkscape.org/) -->

<svg
   width="185"
   height="185"
   viewBox="0 0 48.947914 48.947918"
   version="1.1"
   id="svg1"
   sodipodi:docname="salvia-nemorosa-2.svg"
   inkscape:version="1.4 (e7c3feb100, 2024-10-09)"
   xmlns:inkscape="http://www.inkscape.org/namespaces/inkscape"
   xmlns:sodipodi="http://sodipodi.sourceforge.net/DTD/sodipodi-0.dtd"
   xmlns="http://www.w3.org/2000/svg"
   xmlns:svg="http://www.w3.org/2000/svg">
  <sodipodi:namedview
     id="namedview1"
     pagecolor="#ffffff"
     bordercolor="#666666"
     borderopacity="1.0"
     inkscape:showpageshadow="2"
     inkscape:pageopacity="0.0"
     inkscape:pagecheckerboard="true"
     inkscape:deskcolor="#d1d1d1"
     showgrid="false"
     inkscape:zoom="1.211637"
     inkscape:cx="79.644314"
     inkscape:cy="150.21"
     inkscape:current-layer="svg1" />
  <defs
     id="defs1" />
  <g
     id="g11605"
     transform="translate(-0.59288571,-89.606271)">
    <path
       style="fill:#6c638a"
       d="m 14.900238,138.34121 c -1.586816,-0.14615 -2.084674,-0.31353 -2.910416,-0.97849 -1.212977,-0.9768 -1.772548,-2.35141 -1.275457,-3.13322 0.606518,-0.9539 1.475649,-1.21432 3.785081,-1.13413 1.200568,0.0417 2.182833,0.0346 2.182812,-0.0156 -2.1e-5,-0.0503 -0.24928,-0.44147 -0.553909,-0.86928 -0.304628,-0.42782 -0.490157,-0.94388 -0.412286,-1.1468 0.172645,-0.44991 2.237111,-0.7912 3.523353,-0.58247 l 0.940378,0.1526 -0.175096,-1.50942 c -0.26338,-2.27048 -1.416775,-10.09378 -2.007254,-13.61489 -0.635359,-3.78873 -0.646787,-4.39952 -0.08634,-4.61458 0.638752,-0.24511 1.054982,0.49738 1.252911,2.235 0.09525,0.83625 0.345044,2.59202 0.555086,3.90171 0.210042,1.30968 0.568271,3.81 0.796065,5.55625 0.573869,4.39924 0.765751,4.98517 1.936127,5.91213 0.547905,0.43395 1.158826,1.09288 1.357602,1.4643 0.198775,0.37141 0.465854,0.61075 0.593508,0.53185 0.242628,-0.14995 0.224063,-11.80049 -0.03118,-19.56686 l -0.148381,-4.51483 -1.124479,-1.27711 c -1.702925,-1.93407 -1.423905,-3.39586 0.355722,-1.86364 l 0.768757,0.66189 0.132292,-2.8447 c 0.125666,-2.702216 0.162109,-2.848933 0.727604,-2.929246 0.59176,-0.08404 0.595318,-0.06352 0.596194,3.439586 4.85e-4,1.93827 0.07883,5.40361 0.174104,7.70076 l 0.173223,4.17663 0.70027,-0.6709 c 0.774255,-0.74179 1.081072,-0.81677 1.525117,-0.37273 0.434168,0.43417 -0.02286,1.44315 -1.263189,2.78875 l -1.045823,1.13459 v 8.06008 c 0,5.08799 0.09756,8.12039 0.264583,8.22361 0.145521,0.0899 0.264584,0.0652 0.264584,-0.0551 0,-0.12023 0.514801,-0.81187 1.144003,-1.53697 1.266769,-1.45985 1.373442,-1.89263 2.542293,-10.31421 1.790297,-12.8991 2.081655,-14.28158 2.902897,-13.77402 0.358267,0.22142 0.375492,2.76064 0.03476,5.12438 -0.140366,0.97376 -0.309184,2.4025 -0.375152,3.17498 -0.113684,1.33124 -0.09692,1.37825 0.321357,0.9013 0.242714,-0.27675 0.590126,-0.45237 0.772027,-0.39026 0.629879,0.21508 0.325601,1.11528 -0.808656,2.39239 -1.083117,1.21953 -1.160819,1.41923 -1.573411,4.04373 -1.149149,7.30973 -1.114204,6.91145 -0.637023,7.26037 0.489381,0.35785 0.622259,2.36768 0.174819,2.64422 -0.476075,0.29423 -0.278212,0.92604 0.290008,0.92604 0.305025,0 1.217642,-0.19276 2.028037,-0.42834 1.846174,-0.5367 5.430596,-0.40308 6.059562,0.22589 0.927891,0.92789 -0.815932,3.40731 -3.28085,4.66482 -0.556877,0.2841 -1.715202,0.64644 -2.574057,0.80521 -1.682303,0.31099 -15.316282,0.33648 -18.592181,0.0348 z"
       id="path11591" />
    <path
       style="fill:#4c8452"
       d="m 12.824966,137.83497 c -2.371934,-1.09082 -2.9936395,-3.40338 -1.169829,-4.35142 0.763922,-0.39709 1.30906,-0.45465 3.113885,-0.32879 l 2.187844,0.15256 -0.691543,-1.04499 c -0.380349,-0.57475 -0.613711,-1.17093 -0.518583,-1.32485 0.09848,-0.15934 1.09238,-0.27985 2.308031,-0.27985 h 2.135071 l -0.156935,-1.78594 c -0.168426,-1.9167 -0.541297,-4.47237 -1.798346,-12.32593 -0.438737,-2.74106 -0.733109,-5.15207 -0.65416,-5.35781 0.156209,-0.40707 0.840339,-0.50729 1.05807,-0.15499 0.152195,0.24625 0.666489,3.52646 1.624983,10.36425 0.356974,2.54662 0.71746,4.95189 0.801081,5.34504 0.155466,0.73096 3.137853,3.97993 3.406637,3.71115 0.239534,-0.23954 0.153141,-20.39576 -0.09569,-22.32443 -0.188634,-1.46212 -0.410374,-2.00186 -1.31426,-3.19904 -0.598037,-0.7921 -1.08734,-1.57116 -1.08734,-1.73125 0,-0.64268 0.545881,-0.55604 1.439368,0.22845 l 0.941882,0.82698 0.05166,-1.81334 c 0.09768,-3.428658 0.138288,-3.82892 0.416766,-4.107398 0.725121,-0.725121 0.854523,0.173598 0.856373,5.947688 0.001,3.22925 0.07592,6.65512 0.166418,7.61304 l 0.164538,1.74167 0.665966,-0.61719 c 0.826023,-0.76554 1.64703,-0.81455 1.64703,-0.0983 0,0.28538 -0.535781,1.17667 -1.190625,1.98064 l -1.190625,1.46176 v 8.22787 c 0,4.52533 0.0916,8.18818 0.203552,8.13968 0.541323,-0.23455 2.741227,-2.88483 2.849888,-3.43334 0.06795,-0.34298 0.355963,-2.35001 0.640041,-4.46006 0.284078,-2.11006 0.869098,-6.15818 1.300046,-8.99584 0.430947,-2.83765 0.864352,-5.82569 0.963122,-6.64008 0.212686,-1.75366 0.454686,-2.22578 1.028106,-2.00573 0.307713,0.11808 0.422252,0.50859 0.418731,1.42761 -0.0046,1.19263 -0.58917,5.87742 -0.950263,7.61508 l -0.164944,0.79375 0.672732,-0.62303 c 0.664527,-0.61544 1.241072,-0.58657 1.241072,0.0621 0,0.18366 -0.524104,0.88091 -1.164674,1.54945 -1.294044,1.35054 -1.249153,1.20404 -2.00782,6.55206 -0.299331,2.11005 -0.595955,3.98203 -0.659165,4.15995 -0.06321,0.17792 0.131593,0.49616 0.432895,0.7072 0.567506,0.39749 0.575861,0.81422 0.06685,3.33406 -0.155275,0.76868 -0.124244,0.87721 0.183453,0.64164 1.51703,-1.16143 7.264311,-1.5142 8.270843,-0.50767 0.928193,0.92819 -0.618675,3.14463 -3.099471,4.4411 l -1.626033,0.84976 -10.31875,0.0665 c -9.61259,0.0619 -10.392599,0.0325 -11.397878,-0.42978 z"
       id="path11524" />
    <path
       style="fill:#4a764e"
       d="m 32.247701,134.06944 c -0.179555,-0.11097 -0.100376,-0.23901 0.208413,-0.33701 0.625259,-0.19845 1.003851,-0.11169 1.055754,0.24194 0.045,0.3066 -0.817009,0.37143 -1.264167,0.0951 z"
       id="path11422" />
    <path
       style="fill:#4a764e"
       d="m 13.34247,137.97969 c -1.241197,-0.46661 -2.441516,-1.54305 -2.632855,-2.36112 -0.117482,-0.50231 -0.06571,-0.72761 0.167186,-0.72761 0.18555,0 0.262737,0.0746 0.171527,0.16584 -0.357179,0.35718 0.675067,1.7117 1.73674,2.27896 1.101567,0.58858 1.265579,0.59791 10.511735,0.59791 9.402813,0 12.364404,-0.18078 11.620207,-0.70933 -0.291722,-0.20719 -0.264716,-0.23055 0.12114,-0.10481 0.273106,0.089 0.660059,0.0261 0.859896,-0.13973 0.417038,-0.34611 0.48814,-1.03051 0.10706,-1.03051 -0.140954,0 -0.196442,0.15594 -0.123307,0.34652 0.101691,0.26501 -0.337491,0.35492 -1.866946,0.38223 -1.481274,0.0264 -1.953843,-0.0463 -1.822252,-0.28038 0.124422,-0.22135 0.07088,-0.21696 -0.17865,0.0147 -0.539938,0.50116 -2.040249,0.41569 -2.322087,-0.1323 -0.130977,-0.25466 -0.185633,-0.64161 -0.121458,-0.85989 0.100323,-0.34123 0.07935,-0.34323 -0.149582,-0.0143 -0.173116,0.24877 -0.176906,0.54959 -0.01083,0.8599 0.167321,0.31264 0.163817,0.47727 -0.01016,0.47727 -0.146074,0 -0.196537,0.17995 -0.112142,0.39988 0.109635,0.28571 0.03216,0.35333 -0.271367,0.23686 -0.233648,-0.0897 -0.367306,-0.25607 -0.297018,-0.3698 0.07029,-0.11372 -0.10899,-0.2687 -0.398395,-0.34438 -0.417544,-0.10919 -0.526191,-0.006 -0.526191,0.49909 0,0.52562 -0.126927,0.63133 -0.727604,0.606 -0.403492,-0.017 -0.531386,-0.0827 -0.287111,-0.14736 0.714349,-0.18919 0.830019,-0.88095 0.146516,-0.87623 -0.476018,0.003 -0.511968,0.0525 -0.190134,0.26053 0.218281,0.14106 0.277812,0.25452 0.132292,0.25212 -0.145521,-0.002 -0.454873,-0.14941 -0.687449,-0.32668 -0.581732,-0.44341 -3.406966,-0.36167 -3.703923,0.10716 -0.16725,0.26405 -0.231848,0.27328 -0.234785,0.0335 -0.0062,-0.50597 -1.866172,-0.41814 -2.2496,0.10623 -0.253256,0.34635 -0.363795,0.36531 -0.53307,0.0914 -0.141155,-0.22839 -0.109997,-0.28154 0.09191,-0.15676 0.193118,0.11936 0.305464,-0.0116 0.305464,-0.35599 0,-0.29963 -0.12609,-0.54478 -0.280199,-0.54478 -0.154109,0 -0.206613,0.11906 -0.116676,0.26458 0.09612,0.15553 -0.188746,0.26458 -0.691156,0.26458 -0.470073,0 -1.072412,0.19705 -1.338532,0.43789 -0.289495,0.26199 -0.483854,0.31513 -0.483854,0.13229 0,-0.16808 0.108528,-0.30559 0.241172,-0.30559 0.337205,0 0.193787,-0.73256 -0.220671,-1.12716 -0.279472,-0.26608 -0.311911,-0.21978 -0.171726,0.24513 0.164082,0.54415 0.07974,0.57764 -1.665665,0.66146 -1.011174,0.0486 -1.789556,0.01 -1.729738,-0.0863 0.177548,-0.28497 -0.193646,-1.02498 -0.438291,-0.87378 -0.123917,0.0766 -0.1536,0.3261 -0.06596,0.55448 0.116205,0.30282 0.02354,0.38889 -0.342284,0.31793 -0.604746,-0.11732 -0.684238,-1.0707 -0.110629,-1.32683 0.346778,-0.15485 0.342606,-0.18243 -0.03002,-0.19844 -0.238028,-0.0102 -0.75264,-0.18454 -1.143583,-0.38737 l -0.710806,-0.36877 0.558896,-0.52069 c 0.761248,-0.70921 3.364587,-0.97574 4.777112,-0.48909 0.982367,0.33845 1.052199,0.32945 1.052199,-0.13571 0,-0.27402 -0.09339,-0.49821 -0.207537,-0.49821 -0.32432,0 -1.059009,-1.41702 -0.925967,-1.78594 0.187246,-0.51923 4.013586,-0.45306 4.215415,0.0729 0.117827,0.30705 0.240688,0.33242 0.513487,0.10601 0.29721,-0.24666 0.298748,-0.35746 0.009,-0.64722 -0.192288,-0.19229 -0.425832,-1.1032 -0.518987,-2.02425 -0.09315,-0.92105 -0.349478,-2.80572 -0.569607,-4.18817 -1.594575,-10.01424 -2.003886,-13.05315 -1.7873,-13.26974 0.518258,-0.51826 1.098968,0.0935 1.253645,1.32078 0.0855,0.67833 0.330242,2.3049 0.543881,3.61458 0.213639,1.30969 0.67757,4.43285 1.030958,6.94035 l 0.642523,4.5591 1.472126,1.43725 c 0.856912,0.83662 1.472127,1.66798 1.472127,1.98934 0,0.30365 0.11411,0.55209 0.253579,0.55209 0.301335,0 0.353659,-20.67801 0.05892,-23.28333 -0.164658,-1.45546 -0.36629,-1.94715 -1.311862,-3.19905 -0.614515,-0.81358 -1.1173,-1.61023 -1.1173,-1.77032 0,-0.63618 0.541849,-0.55958 1.40548,0.1987 l 0.907995,0.79723 0.188356,-2.90617 c 0.178135,-2.748453 0.424488,-3.529074 0.948393,-3.005169 0.126013,0.126013 0.250575,3.205309 0.276802,6.842879 0.02623,3.63758 0.103606,7.0537 0.171953,7.5914 l 0.124266,0.97763 0.697653,-0.6469 c 0.836123,-0.7753 1.629102,-0.84997 1.629102,-0.15342 0,0.50334 -0.662098,1.46748 -1.76545,2.57083 -0.538542,0.53854 -0.616257,0.87457 -0.619439,2.67835 -0.0208,11.79256 -0.02294,14.79561 -0.01068,14.99338 0.0079,0.12696 0.174099,0.0982 0.369389,-0.0639 0.195291,-0.16208 0.439708,-0.21005 0.543151,-0.10661 0.103442,0.10345 0.116788,0.002 0.02966,-0.22475 -0.100412,-0.26167 0.265298,-0.88844 0.998771,-1.71173 1.129461,-1.26777 1.165622,-1.36546 1.509089,-4.07702 0.690214,-5.44901 2.833147,-19.58625 2.993151,-19.74625 0.08958,-0.0896 0.346597,-0.0924 0.571154,-0.006 0.29027,0.11139 0.406885,0.52235 0.403439,1.42175 -0.0046,1.201 -0.593827,5.91194 -0.952461,7.61508 -0.162592,0.77214 -0.15307,0.78114 0.349771,0.33073 0.499438,-0.44737 1.401287,-0.63775 1.401287,-0.29582 0,0.33534 -1.108174,1.94946 -1.338397,1.94946 -0.624789,0 -1.12925,1.65202 -1.829526,5.99136 -0.419318,2.59835 -0.844585,5.05237 -0.945038,5.45339 -0.229885,0.91772 0.397578,1.89436 0.695456,1.08247 0.106661,-0.29072 0.01471,-0.67624 -0.226984,-0.9517 -0.223451,-0.25466 -0.283338,-0.46302 -0.133082,-0.46302 0.150257,0 0.424856,0.18274 0.610221,0.40609 0.273111,0.32908 0.271846,0.6778 -0.0067,1.83877 -0.189032,0.78797 -0.504709,1.49446 -0.701505,1.56998 -0.377366,0.14481 -0.509181,1.47683 -0.146146,1.47683 0.116417,0 0.372009,-0.14883 0.567983,-0.33073 0.195973,-0.1819 0.283983,-0.20082 0.195578,-0.042 -0.109633,0.19691 0.419387,0.28264 1.663942,0.26967 1.003573,-0.0104 1.691895,-0.10107 1.529603,-0.20138 -0.162291,-0.1003 -0.322684,-0.37048 -0.356429,-0.6004 -0.04864,-0.33139 0.201569,-0.41803 1.207292,-0.41803 1.046131,0 1.292918,0.0928 1.407027,0.52917 0.170612,0.65242 -0.210677,0.6939 -0.608039,0.0661 -0.198092,-0.31294 -0.259898,-0.33438 -0.19069,-0.0661 0.05632,0.21828 0.34073,0.51687 0.632027,0.66353 0.291298,0.14666 0.480086,0.41529 0.419529,0.59696 -0.06056,0.18167 -0.248761,0.25094 -0.418234,0.15395 -0.169472,-0.097 -0.216408,-0.0755 -0.104303,0.0478 0.112105,0.12331 0.445741,0.24202 0.741415,0.26381 0.598865,0.0441 1.210369,-0.79527 0.775265,-1.06418 -0.145915,-0.0902 -0.265299,-0.0308 -0.265299,0.13185 0,0.1627 -0.121005,0.22103 -0.268899,0.12962 -0.147895,-0.0914 -0.2004,-0.27702 -0.116677,-0.41249 0.08372,-0.13546 0.05147,-0.2463 -0.07167,-0.2463 -0.123141,0 -0.242892,-0.25221 -0.266112,-0.56047 -0.04059,-0.53891 -0.02781,-0.54146 0.332155,-0.0662 0.214995,0.28388 0.377958,0.35424 0.38279,0.16526 0.0046,-0.18099 0.243472,-0.2932 0.530763,-0.24935 0.677094,0.10333 1.021168,0.44613 0.447791,0.44613 -0.242535,0 -0.440973,0.12609 -0.440973,0.2802 0,0.15411 0.119063,0.20661 0.264584,0.11667 0.384932,-0.2379 0.324757,0.0591 -0.162722,0.80306 -0.528984,0.80733 -0.209942,0.85774 0.469621,0.0742 0.694021,-0.80021 0.911265,-1.80141 0.456515,-2.10391 -0.641393,-0.42666 -4.744075,-0.18435 -6.271775,0.37042 -1.656905,0.60168 -2.147065,0.43067 -0.671799,-0.23439 1.069501,-0.48214 5.625417,-0.82576 6.8554,-0.51705 1.432155,0.35945 0.434115,2.67946 -1.792724,4.1673 -2.197504,1.46825 -2.852834,1.5433 -13.284184,1.5213 -6.613347,-0.0139 -9.796772,-0.11549 -10.369331,-0.33073 z m -0.791492,-3.4689 c -0.08397,-0.21882 -0.323446,-0.31203 -0.564266,-0.21962 -0.275019,0.10554 -0.35347,0.0555 -0.228945,-0.14596 0.128747,-0.20832 0.03958,-0.24901 -0.27834,-0.12702 -0.393122,0.15086 -0.342532,0.23292 0.316987,0.5142 0.431621,0.18409 0.810793,0.34007 0.842606,0.34664 0.03181,0.007 -0.0078,-0.15914 -0.08804,-0.36824 z m 1.485409,0.0956 c 0,-0.0942 0.327421,-0.10898 0.727604,-0.0329 0.639236,0.12146 0.6856,0.0874 0.381754,-0.28046 -0.301007,-0.36442 -0.2667,-0.40128 0.264583,-0.28428 0.48772,0.1074 0.530651,0.0774 0.213559,-0.14906 -0.218282,-0.15591 -1.087043,-0.28531 -1.930582,-0.28753 l -1.533706,-0.004 0.456173,0.60476 c 0.412321,0.54662 1.420615,0.85435 1.420615,0.43356 z m 12.687794,-0.39157 c -0.136283,-0.16421 -0.194959,-0.3514 -0.13039,-0.41597 0.06457,-0.0646 -0.123059,-0.11739 -0.416948,-0.11739 -0.480077,0 -0.490301,0.0322 -0.100666,0.31711 0.397056,0.29034 0.392971,0.32774 -0.04837,0.44295 -0.27712,0.0723 -0.178893,0.11436 0.231056,0.0988 0.497798,-0.0188 0.63829,-0.11713 0.465316,-0.32555 z m 1.25056,-2.16811 c 0.08988,-0.25466 0.413563,-0.75397 0.7193,-1.10958 l 0.555886,-0.64656 -0.827342,0.64656 c -1.113804,0.87043 -1.568649,1.5726 -1.018679,1.5726 0.224082,0 0.480957,-0.20836 0.570835,-0.46302 z M 19.719482,131.178 c -0.109577,-0.1773 -1.714346,-0.009 -1.714346,0.17943 0,0.0608 0.409026,0.083 0.908947,0.0493 0.49992,-0.0337 0.86235,-0.13661 0.805399,-0.22876 z"
       id="path11415" />
    <path
       style="fill:#635831"
       d="m 20.034686,128.00438 c -0.06357,-0.2142 -0.306765,-1.69915 -0.540433,-3.29988 -0.233668,-1.60073 -0.792831,-5.27625 -1.242584,-8.16783 -0.492696,-3.16767 -0.721797,-5.35336 -0.576376,-5.49878 0.518258,-0.51826 1.098968,0.0935 1.253645,1.32078 0.0855,0.67833 0.330271,2.3049 0.543946,3.61458 1.093262,6.70098 1.712091,11.87496 1.451465,12.13558 -0.188117,0.18812 -0.274643,0.15373 -0.277431,-0.11026 -0.0035,-0.33109 -0.03779,-0.33029 -0.25035,0.006 -0.216848,0.34289 -0.260119,0.34289 -0.361882,0 z"
       id="path11220" />
    <path
       style="fill:#635831"
       d="m 22.491995,129.16872 c -0.857305,-0.88984 -0.978913,-1.09716 -0.445118,-0.75884 0.626268,0.39693 2.001936,1.98317 1.719906,1.98317 -0.05237,0 -0.626026,-0.55095 -1.274788,-1.22433 z"
       id="path11215" />
    <path
       style="fill:#635831"
       d="m 28.222128,130.65763 c 0.733211,-0.82856 0.85572,-1.21848 1.163811,-3.70417 0.635531,-5.12747 2.820967,-19.58163 2.98559,-19.74625 0.08958,-0.0896 0.346597,-0.0924 0.571154,-0.006 0.29027,0.11139 0.406885,0.52235 0.403439,1.42175 -0.0046,1.201 -0.593827,5.91194 -0.952461,7.61508 -0.162592,0.77214 -0.15307,0.78114 0.349771,0.33073 0.520578,-0.46631 1.402781,-0.63309 1.399543,-0.26459 -0.0032,0.36513 -0.974165,1.67839 -1.527437,2.06591 -0.738269,0.51711 -0.972678,1.39545 -1.669559,6.25593 l -0.595681,4.15464 -1.473821,1.40161 c -0.810602,0.77088 -1.105059,0.98488 -0.654349,0.47556 z"
       id="path11210" />
    <path
       style="fill:#635831"
       d="m 15.943128,131.31909 c 0.07327,-0.46652 0.302056,-0.53352 1.932452,-0.56593 l 1.849348,-0.0368 -1.680836,0.19743 c -0.940927,0.11052 -1.791598,0.35965 -1.932452,0.56593 -0.192985,0.28263 -0.232252,0.24519 -0.168512,-0.16067 z"
       id="path11209" />
    <path
       style="fill:#635831"
       d="m 25.405055,131.13626 c -0.008,-0.82712 -0.02988,-0.84712 -0.396875,-0.36192 -0.34369,0.4544 -0.390027,-0.71961 -0.402047,-10.18645 -0.01693,-13.332 -0.05071,-13.68031 -1.514947,-15.61889 -0.614515,-0.81358 -1.1173,-1.61023 -1.1173,-1.77032 0,-0.63618 0.541849,-0.55958 1.40548,0.1987 l 0.907995,0.79723 0.188356,-2.90617 c 0.178135,-2.748453 0.424488,-3.529074 0.948393,-3.005169 0.126013,0.126013 0.250575,3.205309 0.276802,6.842879 0.02623,3.63758 0.103606,7.0537 0.171953,7.5914 l 0.124266,0.97763 0.697653,-0.6469 c 0.836123,-0.7753 1.629102,-0.84997 1.629102,-0.15342 0,0.50334 -0.662098,1.46748 -1.76545,2.57083 -0.686724,0.68673 -0.641174,-0.0834 -0.627773,10.61379 0.0043,3.42605 -0.09496,5.67134 -0.255084,5.7703 -0.152396,0.0942 -0.265632,-0.20448 -0.270524,-0.71352 z"
       id="path11206" />
    <path
       style="fill:#635831"
       d="m 30.448655,132.24513 c 0,-0.21828 0.115417,-0.57547 0.256481,-0.79375 0.227982,-0.35278 0.25648,-0.35278 0.25648,0 0,0.21828 -0.115416,0.57547 -0.25648,0.79375 -0.227983,0.35278 -0.256481,0.35278 -0.256481,0 z"
       id="path11202" />
    <path
       style="fill:#635831"
       d="m 11.507269,133.71996 c 0.282475,-0.22908 0.937318,-0.4016 1.455208,-0.38338 l 0.941618,0.0331 -1.058333,0.17459 c -0.582084,0.096 -1.236927,0.26855 -1.455209,0.38338 -0.218281,0.11483 -0.165759,0.0214 0.116716,-0.20771 z"
       id="path11195" />
    <path
       style="fill:#635831"
       d="m 35.866616,137.11966 c 2.479015,-1.2795 4.148949,-3.70038 2.886671,-4.18477 -0.768075,-0.29473 -4.992169,-0.14211 -5.997631,0.21672 -1.24785,0.44532 -1.302896,0.25467 -0.07464,-0.25852 1.158113,-0.48389 5.970613,-0.53314 6.437872,-0.0659 0.567414,0.56742 0.33727,1.51118 -0.629451,2.58122 -0.905578,1.00237 -3.025681,2.39295 -3.648331,2.39295 -0.162414,0 0.299066,-0.30677 1.025513,-0.68172 z"
       id="path11187" />
    <path
       style="fill:#635831"
       d="m 13.709373,138.0671 c -1.439302,-0.43338 -2.847986,-1.53977 -2.847986,-2.23683 0,-0.0417 0.399857,0.30136 0.888571,0.76228 1.512925,1.42687 2.073975,1.48824 12.903065,1.41126 5.426918,-0.0386 9.514762,0.005 9.084097,0.097 -1.167908,0.24929 -19.188627,0.21896 -20.027747,-0.0337 z"
       id="path11178" />
    <path
       style="fill:#336c31"
       d="m 22.491995,129.16872 c -0.857305,-0.88984 -0.978913,-1.09716 -0.445118,-0.75884 0.626268,0.39693 2.001936,1.98317 1.719906,1.98317 -0.05237,0 -0.626026,-0.55095 -1.274788,-1.22433 z"
       id="path10904" />
    <path
       style="fill:#336c31"
       d="m 27.530136,131.36862 c 0,-0.0455 0.386953,-0.43249 0.859896,-0.8599 l 0.859895,-0.7771 -0.777105,0.85989 c -0.724371,0.80155 -0.942686,0.98151 -0.942686,0.77711 z"
       id="path10899" />
    <path
       style="fill:#336c31"
       d="m 15.943128,131.31912 c 0.07327,-0.46652 0.302056,-0.53352 1.932452,-0.56593 l 1.849348,-0.0368 -1.680836,0.19743 c -0.940927,0.11052 -1.791598,0.35965 -1.932452,0.56593 -0.192985,0.28263 -0.232252,0.24519 -0.168512,-0.16067 z"
       id="path10898" />
    <path
       style="fill:#336c31"
       d="m 30.448655,132.24513 c 0,-0.21828 0.115417,-0.57547 0.256481,-0.79375 0.227982,-0.35278 0.25648,-0.35278 0.25648,0 0,0.21828 -0.115416,0.57547 -0.25648,0.79375 -0.227983,0.35278 -0.256481,0.35278 -0.256481,0 z"
       id="path10892" />
    <path
       style="fill:#336c31"
       d="m 11.507269,133.71996 c 0.282475,-0.22908 0.937318,-0.4016 1.455208,-0.38338 l 0.941618,0.0331 -1.058333,0.17459 c -0.582084,0.096 -1.236927,0.26855 -1.455209,0.38338 -0.218281,0.11483 -0.165759,0.0214 0.116716,-0.20771 z"
       id="path10885" />
    <path
       style="fill:#336c31"
       d="m 35.866616,137.11966 c 2.479015,-1.2795 4.148949,-3.70038 2.886671,-4.18477 -0.768075,-0.29473 -4.992169,-0.14211 -5.997631,0.21672 -1.24785,0.44532 -1.302896,0.25467 -0.07464,-0.25852 1.158113,-0.48389 5.970613,-0.53314 6.437872,-0.0659 0.567414,0.56742 0.33727,1.51118 -0.629451,2.58122 -0.905578,1.00237 -3.025681,2.39295 -3.648331,2.39295 -0.162414,0 0.299066,-0.30677 1.025513,-0.68172 z"
       id="path10877" />
    <path
       style="fill:#336c31"
       d="m 13.709373,138.0671 c -1.439302,-0.43338 -2.847986,-1.53977 -2.847986,-2.23683 0,-0.0417 0.399857,0.30136 0.888571,0.76228 1.512925,1.42687 2.073975,1.48824 12.903065,1.41126 5.426918,-0.0386 9.514762,0.005 9.084097,0.097 -1.167908,0.24929 -19.188627,0.21896 -20.027747,-0.0337 z"
       id="path10868" />
  </g>
</svg>
