<?xml version="1.0" encoding="UTF-8" standalone="no"?>
<!-- Created with Inkscape (http://www.inkscape.org/) -->

<svg
   width="185"
   height="185"
   viewBox="0 0 48.947914 48.947918"
   version="1.1"
   id="svg1"
   sodipodi:docname="salvia-nemorosa-5.svg"
   inkscape:version="1.4 (e7c3feb100, 2024-10-09)"
   xmlns:inkscape="http://www.inkscape.org/namespaces/inkscape"
   xmlns:sodipodi="http://sodipodi.sourceforge.net/DTD/sodipodi-0.dtd"
   xmlns="http://www.w3.org/2000/svg"
   xmlns:svg="http://www.w3.org/2000/svg">
  <sodipodi:namedview
     id="namedview1"
     pagecolor="#ffffff"
     bordercolor="#666666"
     borderopacity="1.0"
     inkscape:showpageshadow="2"
     inkscape:pageopacity="0.0"
     inkscape:pagecheckerboard="true"
     inkscape:deskcolor="#d1d1d1"
     showgrid="false"
     inkscape:zoom="1.211637"
     inkscape:cx="79.644314"
     inkscape:cy="150.21"
     inkscape:current-layer="svg1" />
  <defs
     id="defs1" />
  <g
     id="g11602"
     transform="translate(-162.26934,-89.363946)">
    <path
       style="fill:#6c638a"
       d="m 178.21034,138.19963 c -0.14552,-0.049 -1.08514,-0.34433 -2.08804,-0.65619 -2.19382,-0.68217 -4.24119,-2.04075 -6.37863,-4.2327 l -1.5875,-1.62798 0.59912,-0.49189 c 0.69781,-0.57293 3.47844,-0.94546 5.24733,-0.70301 1.41619,0.19411 2.50677,0.72321 4.02378,1.95214 0.62644,0.50748 1.18863,0.87304 1.24932,0.81236 0.23472,-0.23473 -1.77223,-2.86932 -2.45821,-3.22697 -1.20195,-0.62667 -3.41541,-3.04782 -4.29487,-4.69785 -0.7177,-1.34655 -0.77081,-1.57477 -0.39958,-1.71723 0.81218,-0.31166 2.91593,0.17641 4.20298,0.97508 0.70989,0.44052 1.31848,0.7666 1.35242,0.72463 0.0339,-0.042 0.004,-1.11546 -0.0668,-2.38554 l -0.12852,-2.30922 -1.12147,-0.65723 c -0.61681,-0.36147 -1.50105,-1.08955 -1.965,-1.61795 -0.73046,-0.83195 -0.83285,-1.12589 -0.76389,-2.19292 0.0669,-1.03509 0.172,-1.24535 0.65704,-1.3144 0.71919,-0.10239 2.18336,0.61525 2.79015,1.36754 0.44491,0.55158 0.4573,0.52245 0.46302,-1.08865 0.005,-1.48875 -0.0673,-1.71515 -0.72123,-2.24896 -2.19579,-1.79248 -3.24163,-3.04148 -3.24163,-3.87136 0,-1.49087 1.42363,-1.44133 3.06498,0.10666 0.54179,0.51098 1.00245,0.89775 1.02369,0.85947 0.0212,-0.0383 -0.009,-0.76149 -0.0661,-1.60715 -0.0906,-1.33113 -0.18981,-1.56994 -0.73869,-1.77862 -1.18698,-0.45129 -3.01931,-2.37597 -3.01931,-3.17149 0,-1.30893 2.01404,-1.50247 3.13499,-0.30126 l 0.70147,0.75168 -0.0957,-1.34104 c -0.0818,-1.14623 -0.2644,-1.52863 -1.25677,-2.63238 -1.64496,-1.829592 -1.559,-3.314644 0.14098,-2.435551 0.4336,0.224228 0.83611,0.407688 0.89445,0.407688 0.0583,0 0.094,-1.126354 0.0793,-2.503008 -0.0224,-2.090346 0.0524,-2.581082 0.45331,-2.976563 0.46162,-0.455337 0.49978,-0.449526 0.99218,0.15107 0.57294,0.698831 0.62879,1.554509 0.25174,3.857001 -0.2775,1.694615 -0.18763,2.076911 0.32924,1.400521 0.47688,-0.624062 1.62262,-0.838193 2.00696,-0.375088 0.46012,0.554407 0.005,1.542223 -1.15005,2.493991 -0.99815,0.822759 -1.53619,2.214499 -1.26178,3.263849 0.13872,0.53047 0.14669,0.53077 0.70118,0.0267 0.8607,-0.78244 1.60898,-1.09287 2.23787,-0.92842 1.33848,0.35002 0.1195,3.0726 -1.81832,4.0612 -1.04831,0.53481 -1.04932,0.53687 -1.04932,2.13806 v 1.60274 l 1.075,-0.92015 c 1.23434,-1.05656 1.75165,-1.246 2.57289,-0.9422 0.62763,0.23217 0.76454,0.9921 0.32627,1.81101 -0.14255,0.26635 -1.15458,1.15817 -2.24896,1.98183 l -1.98979,1.49755 v 1.88083 1.88083 l 1.21679,-1.23421 c 0.96647,-0.98033 1.39869,-1.23422 2.10105,-1.23422 0.48635,0 0.94538,0.0989 1.02006,0.21972 0.25056,0.40541 -0.5969,3.01426 -1.18118,3.6362 -0.31791,0.3384 -1.0963,0.8589 -1.72975,1.15666 -0.79841,0.3753 -1.20525,0.75463 -1.32621,1.23656 -0.22108,0.88087 0.11487,6.24315 0.4096,6.53788 0.12133,0.12133 0.43852,-0.47369 0.70487,-1.32227 0.26634,-0.84858 0.75131,-1.81077 1.0777,-2.13819 1.13935,-1.14295 1.88489,-0.68137 3.24757,2.01068 0.32038,0.63293 1.03577,1.64496 1.58974,2.24896 0.55398,0.60399 1.36221,1.66062 1.79608,2.34806 0.43386,0.68744 0.86512,1.17361 0.95834,1.08038 0.26455,-0.26454 0.1989,-3.67372 -0.0851,-4.42075 -0.14004,-0.36835 -0.65532,-0.93239 -1.14506,-1.25342 -1.6835,-1.10356 -2.55736,-3.1733 -1.65571,-3.9216 0.48137,-0.39951 1.24158,-0.16681 2.26308,0.69272 l 0.79232,0.6667 v -1.08185 c 0,-0.70023 -0.16333,-1.2242 -0.46302,-1.48537 -0.25466,-0.22194 -0.77233,-0.66842 -1.15038,-0.99219 -0.86294,-0.73905 -1.29702,-1.55008 -1.29702,-2.42336 0,-0.59723 0.10948,-0.67885 0.91043,-0.67885 0.50074,0 0.98401,0.11906 1.07395,0.26458 0.36578,0.59185 0.66146,0.19852 0.66146,-0.87992 0,-0.88614 -0.15305,-1.28829 -0.67797,-1.78143 -1.05928,-0.99513 -1.76318,-2.28938 -1.57226,-2.89089 0.18586,-0.58559 1.15726,-0.72656 1.64509,-0.23873 0.67294,0.67294 0.88667,-0.0572 0.70833,-2.41967 -0.19242,-2.54892 0.15397,-4.05263 0.89984,-3.90629 0.97262,0.19083 1.28048,2.74987 0.68751,5.71475 -0.13672,0.68361 -0.0837,0.84593 0.27637,0.84593 0.24506,0 0.37702,-0.11092 0.29323,-0.24648 -0.25898,-0.41904 0.95482,-1.10806 1.35985,-0.77192 0.8728,0.72436 0.25158,2.74712 -1.30014,4.23341 -0.60974,0.58402 -0.73235,0.92392 -0.73235,2.03017 v 1.3287 l 0.77339,-0.7734 c 1.0048,-1.0048 1.71498,-0.99855 2.13638,0.0188 0.4058,0.97969 0.0565,1.60341 -1.70726,3.04868 -1.05099,0.86122 -1.20251,1.11471 -1.20251,2.01184 0,0.56455 0.0527,1.02646 0.11717,1.02646 0.0644,0 0.54205,-0.25069 1.06136,-0.55709 1.19221,-0.70342 2.26105,-0.51872 2.26105,0.39071 0,0.88853 -1.02882,2.28643 -2.3219,3.15488 l -1.11768,0.75064 v 2.90854 c 0,1.82835 0.0961,2.84914 0.2588,2.7486 0.41088,-0.25394 3.0639,-3.87848 3.58541,-4.89836 0.99231,-1.94061 1.71204,-5.30449 1.71204,-8.00179 0,-1.41985 -0.0971,-2.58155 -0.21585,-2.58155 -0.11871,0 -0.77905,-0.56321 -1.46742,-1.25158 -1.02062,-1.02061 -1.23712,-1.39902 -1.17322,-2.05052 0.0844,-0.86026 0.56595,-0.99205 2.12888,-0.5826 0.7044,0.18454 0.72761,0.15681 0.72761,-0.86944 0,-0.94331 -0.11293,-1.13134 -1.02538,-1.70734 -1.09223,-0.6895 -2.14962,-1.86844 -2.14962,-2.39673 0,-0.17611 0.23938,-0.53683 0.53196,-0.80161 0.44608,-0.40369 0.67865,-0.43639 1.44061,-0.20254 0.87379,0.26817 0.91508,0.24956 1.07648,-0.48526 0.1364,-0.62102 9e-5,-0.96009 -0.72786,-1.81054 -1.32638,-1.54957 -1.69493,-2.33637 -1.34632,-2.87417 0.30299,-0.4674 0.6357,-0.51199 1.57814,-0.2115 0.54878,0.17498 0.57188,0.0983 0.66146,-2.196378 0.10921,-2.797662 0.47329,-3.453634 1.33401,-2.403538 0.4902,0.598063 0.52536,0.885533 0.36686,2.999436 l -0.17531,2.33797 0.59927,-0.41974 c 0.81855,-0.57334 1.46405,-0.52662 1.81623,0.13143 0.31853,0.59518 0.22785,0.74618 -1.53314,2.55295 -0.74518,0.76456 -0.85989,1.06449 -0.85989,2.24826 v 1.366 l 0.87249,-0.84565 c 0.47987,-0.46511 1.13471,-0.84566 1.45521,-0.84566 0.49478,0 0.58271,0.14663 0.58271,0.97168 0,0.82981 -0.21359,1.18022 -1.46288,2.39994 -1.36956,1.33716 -1.47006,1.52189 -1.5755,2.89581 l -0.11261,1.46754 1.02703,-1.11248 c 1.0535,-1.14115 1.70855,-1.29351 2.20071,-0.51188 0.47114,0.74826 -0.0779,1.92626 -1.54983,3.32548 l -1.43733,1.3663 -0.002,1.8087 c -8.4e-4,0.99479 -0.11731,2.51575 -0.25882,3.37991 -0.14151,0.86417 -0.22901,1.5995 -0.19443,1.63408 0.0346,0.0346 0.7166,-0.15592 1.5156,-0.42331 0.799,-0.2674 2.15542,-0.57223 3.01426,-0.6774 l 1.56152,-0.19121 -0.17746,0.8954 c -0.24363,1.2292 -1.5174,2.99204 -3.44433,4.76681 l -1.61793,1.49015 1.89245,-0.1348 c 2.27065,-0.16174 4.61515,0.0962 5.27765,0.58062 0.45871,0.33542 0.44469,0.40716 -0.28538,1.46065 -1.69882,2.4514 -4.8858,4.62454 -7.95405,5.42372 -1.24719,0.32485 -3.20892,0.40099 -9.90032,0.38424 -4.58971,-0.0115 -8.46399,-0.061 -8.60951,-0.11007 z"
       id="path11594" />
    <path
       style="fill:#4c8452"
       d="m 177.94575,138.06954 c -3.07247,-0.64401 -5.80027,-2.2563 -8.45696,-4.99856 -1.17656,-1.21445 -1.27125,-1.39749 -0.90996,-1.75878 0.53052,-0.53052 3.47332,-1.00299 5.0979,-0.81848 1.51992,0.17262 3.12816,0.91432 4.37102,2.01585 0.84102,0.74538 1.35321,0.98881 1.35321,0.64313 0,-0.41465 -1.69475,-2.53414 -2.44801,-3.06155 -1.71893,-1.20351 -3.61821,-3.22516 -4.34698,-4.62703 -0.64298,-1.23686 -0.69099,-1.47087 -0.34876,-1.69974 0.65013,-0.43479 2.68946,4.4e-4 4.04496,0.86327 0.69675,0.44351 1.31098,0.7613 1.36494,0.7062 0.054,-0.0551 0.0322,-1.14935 -0.0484,-2.43166 l -0.1465,-2.33149 -1.41998,-0.90835 c -1.65526,-1.05886 -2.46975,-2.24283 -2.47114,-3.59211 -8.3e-4,-0.80672 0.1018,-0.98099 0.63812,-1.08351 0.82456,-0.15763 2.27673,0.44947 2.86073,1.19595 0.44589,0.56994 0.45729,0.54069 0.46302,-1.1889 l 0.006,-1.77323 -1.12448,-0.78004 c -1.66672,-1.15618 -2.51702,-2.17241 -2.71379,-3.24333 -0.14043,-0.76432 -0.0842,-0.99026 0.28115,-1.13048 0.70002,-0.26862 1.47637,0.0665 2.56007,1.1051 0.54304,0.52043 1.05887,0.8747 1.1463,0.78727 0.0874,-0.0874 0.0753,-0.82873 -0.027,-1.64732 -0.1724,-1.37985 -0.2578,-1.52501 -1.17135,-1.99107 -1.16205,-0.59283 -2.65509,-2.20753 -2.65509,-2.87142 0,-1.03283 1.16343,-1.40447 2.49601,-0.79731 0.36785,0.1676 0.73866,0.52479 0.82403,0.79375 0.33465,1.05441 0.63295,0.41986 0.4853,-1.03234 -0.13085,-1.287 -0.28975,-1.64363 -1.0315,-2.3151 -2.05618,-1.861373 -1.81094,-3.719665 0.30769,-2.331486 l 0.68167,0.446644 -0.0832,-2.100289 c -0.10419,-2.630314 0.15379,-3.820082 0.82831,-3.820082 0.7783,0 1.18224,1.694877 0.8136,3.413787 -0.16216,0.756118 -0.29484,1.687309 -0.29484,2.069315 v 0.694556 l 0.60505,-0.568412 c 0.33278,-0.312626 0.89832,-0.601271 1.25677,-0.641433 0.54207,-0.06073 0.66632,0.05464 0.73845,0.685726 0.0714,0.624888 -0.1503,0.977795 -1.25677,2.000359 -1.28285,1.185565 -1.3435,1.303595 -1.3435,2.614685 0,0.7552 0.0652,1.37308 0.14499,1.37308 0.0797,0 0.40716,-0.30167 0.7276,-0.67039 0.76214,-0.87695 2.47579,-1.19808 2.7386,-0.5132 0.30072,0.78366 -0.91628,2.72003 -2.17207,3.45597 -0.61444,0.36009 -1.18798,0.91885 -1.27453,1.24169 -0.24905,0.92899 -0.19004,2.52439 0.1,2.70364 0.14552,0.0899 0.26458,0.0382 0.26458,-0.11502 0,-0.42873 2.12595,-1.86986 2.75168,-1.8653 0.93502,0.007 1.23735,0.35758 1.06236,1.23254 -0.12028,0.60139 -0.68916,1.22155 -2.25207,2.45507 l -2.09114,1.65043 v 1.95828 1.95829 l 1.29262,-1.34107 c 1.12218,-1.16424 1.40998,-1.32983 2.18281,-1.25589 0.81489,0.078 0.88352,0.15232 0.81119,0.87892 -0.15262,1.53342 -1.16292,3.11284 -2.40289,3.75649 -2.01975,1.04843 -1.95603,0.89436 -1.83513,4.43677 0.0598,1.7511 0.24064,3.41685 0.40195,3.70165 0.2621,0.46276 0.32702,0.39258 0.61044,-0.65997 0.52176,-1.93767 1.22462,-3.08378 2.0124,-3.2815 0.8682,-0.2179 1.10613,0.006 2.22374,2.09405 0.4654,0.86945 1.37965,2.17416 2.03167,2.89937 0.65202,0.7252 1.44267,1.76908 1.75699,2.31974 0.31433,0.55066 0.6608,1.00212 0.76994,1.00324 0.10914,0.001 0.19844,-1.05844 0.19844,-2.35458 v -2.35661 l -1.3334,-1.11639 c -1.9382,-1.62275 -2.53796,-2.96122 -1.70165,-3.79754 0.46847,-0.46846 0.97028,-0.33939 2.19069,0.56347 l 0.87542,0.64764 -0.0817,-1.27833 c -0.0703,-1.10015 -0.19714,-1.35261 -0.91007,-1.81125 -1.80394,-1.1605 -2.54897,-3.33964 -1.20683,-3.52988 0.33583,-0.0476 0.89719,0.10122 1.24746,0.33072 0.89069,0.58361 0.92005,0.55934 0.92005,-0.7606 0,-0.98571 -0.14449,-1.32027 -0.88558,-2.05052 -1.29632,-1.27737 -1.76628,-2.11534 -1.58187,-2.82055 0.13206,-0.505 0.28214,-0.58415 0.85088,-0.44877 1.56079,0.37153 1.48428,0.50322 1.48428,-2.55474 0,-2.34255 0.0801,-2.91484 0.46113,-3.29596 0.57236,-0.57243 0.8182,-0.32547 1.23033,1.23593 0.22929,0.86866 0.23984,1.57601 0.039,2.6158 -0.39288,2.03415 -0.36136,2.69229 0.12009,2.50754 0.21745,-0.0834 0.3298,-0.25779 0.24967,-0.38744 -0.0801,-0.12966 0.1672,-0.3783 0.54963,-0.55255 0.81083,-0.36944 1.17575,-0.0191 1.18255,1.13533 0.005,0.85698 -1.10915,2.5173 -1.60945,2.39833 -0.20398,-0.0485 -0.28343,-7.5e-4 -0.17655,0.10613 0.10688,0.10688 0.0245,0.32516 -0.183,0.48507 -0.34487,0.26573 -0.78888,3.33345 -0.48247,3.33345 0.0696,0 0.46021,-0.35718 0.86802,-0.79375 0.9213,-0.98625 1.46607,-1.00477 1.94573,-0.0661 0.51341,1.00469 0.20274,1.65014 -1.38316,2.87362 -1.22531,0.9453 -1.3347,1.12043 -1.34505,2.15346 -0.006,0.61846 0.0487,1.12448 0.12198,1.12448 0.0733,0 0.57754,-0.23813 1.12056,-0.52917 1.18482,-0.63503 1.48749,-0.65486 1.92623,-0.12621 0.54769,0.65993 -0.41874,2.42539 -1.91686,3.50168 l -1.26318,0.9075 v 3.07081 c 0,1.68894 0.0969,2.9577 0.21526,2.81945 4.0405,-4.71796 5.34099,-7.87464 5.34099,-12.96416 v -2.58226 l -1.09276,-0.93537 c -1.37256,-1.17486 -2.03508,-2.58324 -1.47748,-3.14084 0.32841,-0.32842 0.50787,-0.3246 1.35375,0.0288 1.1263,0.4706 1.31173,0.28093 1.16898,-1.1957 -0.0671,-0.69365 -0.32064,-1.03502 -1.21271,-1.63249 -0.62036,-0.41549 -1.316,-1.11914 -1.54587,-1.56366 -0.39315,-0.76026 -0.38621,-0.83996 0.11686,-1.34303 0.47255,-0.47256 0.62754,-0.4964 1.33146,-0.20482 0.43817,0.18149 0.92291,0.25196 1.07721,0.15659 0.46087,-0.28483 0.33109,-1.92652 -0.1826,-2.30997 -0.81233,-0.60637 -1.9577,-2.32638 -1.8641,-2.79934 0.0695,-0.35121 0.36424,-0.45681 1.27498,-0.45681 h 1.18457 l 0.0251,-1.71979 c 0.039,-2.67424 0.0795,-2.9164 0.51682,-3.084197 0.87099,-0.334231 1.19984,0.678581 1.02289,3.150347 -0.16667,2.32807 -0.0108,2.75561 0.69478,1.90546 0.51613,-0.6219 1.43011,-0.37586 1.52196,0.40971 0.0575,0.49159 -0.23138,0.96451 -1.12448,1.84102 -1.16089,1.13933 -1.20182,1.23346 -1.20182,2.76362 v 1.58411 l 0.89558,-0.97774 c 0.94171,-1.02811 1.66376,-1.24641 1.91938,-0.58028 0.31024,0.80846 -0.24749,1.88666 -1.64451,3.17919 -1.40447,1.29943 -1.43487,1.3586 -1.42728,2.77813 l 0.008,1.45042 0.7629,-0.83823 c 0.68841,-0.75638 1.60357,-1.41073 1.97301,-1.41073 0.0772,0 0.27093,0.24396 0.43051,0.54213 0.46319,0.86548 -0.15002,2.21889 -1.58088,3.48916 l -1.27071,1.12809 -0.17937,2.64583 c -0.0987,1.45521 -0.24964,3.10423 -0.33552,3.66449 l -0.15614,1.01866 0.81868,-0.42336 c 0.89777,-0.46425 3.80428,-1.20697 4.74752,-1.21317 1.39166,-0.009 0.19075,2.29031 -2.81421,5.38855 -1.25346,1.29237 -1.98136,2.18832 -1.61756,1.99101 1.40794,-0.76362 7.40834,-0.30762 7.40834,0.56299 0,0.11514 -0.59673,0.9235 -1.32607,1.79635 -1.47773,1.76851 -3.55682,3.26131 -5.94776,4.27054 -1.58455,0.66884 -1.61807,0.67117 -10.32096,0.71759 -4.80219,0.0256 -9.2075,-0.0533 -9.78959,-0.17528 z"
       id="path11525" />
    <path
       style="fill:#4a764e"
       d="m 186.62798,111.67382 c 0.0303,-0.61394 0.79176,-0.84138 1.10736,-0.33073 0.0899,0.14552 -0.0717,0.26458 -0.35922,0.26458 -0.2875,0 -0.58005,0.14883 -0.6501,0.33073 -0.0701,0.1819 -0.11417,0.0628 -0.098,-0.26458 z"
       id="path11437" />
    <path
       style="fill:#4a764e"
       d="m 187.33846,112.26913 c -0.18373,-0.22139 -0.21238,-0.39688 -0.0648,-0.39688 0.14552,0 0.4128,0.1786 0.59396,0.39688 0.18373,0.22139 0.21238,0.39687 0.0648,0.39687 -0.14552,0 -0.4128,-0.17859 -0.59396,-0.39687 z"
       id="path11436" />
    <path
       style="fill:#4a764e"
       d="m 180.19471,138.04129 c -3.4003,-0.17585 -4.91055,-0.60396 -7.12267,-2.01903 -1.8935,-1.21126 -4.51899,-3.73042 -4.51899,-4.33598 0,-0.65234 1.72684,-1.11727 4.143,-1.11544 2.27283,0.002 4.32375,0.86995 5.66592,2.3986 0.86298,0.98288 1.92015,1.39924 1.62948,0.64176 -0.0866,-0.22562 -0.0377,-0.324 0.1142,-0.23009 0.146,0.0902 0.26545,0.0105 0.26545,-0.17708 0,-0.18763 -0.15351,-0.34114 -0.34114,-0.34114 -0.18763,0 -0.27982,0.0992 -0.20487,0.22049 0.075,0.12126 0.0102,0.22048 -0.14393,0.22048 -0.15411,0 -0.2802,-0.127 -0.2802,-0.28224 0,-0.15523 -0.30786,-0.68586 -0.68414,-1.17919 -0.37628,-0.49332 -0.60822,-1.01979 -0.51542,-1.16994 0.0941,-0.15219 0.0147,-0.2139 -0.17924,-0.13946 -0.19138,0.0734 -1.13589,-0.52049 -2.09891,-1.31984 -1.68735,-1.40056 -3.06671,-3.18291 -3.64256,-4.70672 l -0.27496,-0.72761 h 1.39477 c 1.13247,0 1.66546,0.17068 2.83416,0.90756 0.79166,0.49916 1.48247,0.86447 1.53514,0.8118 0.0527,-0.0527 0.0109,-1.22787 -0.0929,-2.61157 -0.1886,-2.51556 -0.1887,-2.51586 -1.05765,-2.9282 -1.94878,-0.92476 -3.44242,-3.21372 -2.94424,-4.51197 0.32715,-0.85252 2.75643,-0.1751 3.3501,0.9342 0.40985,0.7658 0.78832,0.38823 0.78832,-0.78644 0,-1.97011 -0.25478,-2.55157 -1.44868,-3.30623 -1.5636,-0.98834 -2.62407,-2.14398 -2.43045,-2.64856 0.0871,-0.22697 0.043,-0.41267 -0.0979,-0.41267 -0.42186,0 -0.28934,-0.98903 0.15538,-1.15969 0.94339,-0.36201 3.59401,1.51612 3.1511,2.23276 -0.12537,0.20286 -0.0634,0.27446 0.17072,0.1972 0.23332,-0.077 0.42308,-0.6935 0.51956,-1.68797 0.17115,-1.76404 0.0816,-2.22813 -0.42977,-2.22813 -0.95668,0 -3.55869,-2.27858 -3.55869,-3.11634 0,-0.58794 1.00715,-1.14007 1.75483,-0.96202 0.94796,0.22574 1.68902,0.84896 1.52323,1.28099 -0.0692,0.18036 0.0579,0.32792 0.28243,0.32792 0.43424,0 0.45018,-0.0398 0.46759,-1.16857 0.0204,-1.32302 -0.36361,-2.15289 -1.54117,-3.330443 -1.14879,-1.148792 -1.53762,-2.291957 -0.77957,-2.291957 0.55363,0 1.73224,0.573587 1.73224,0.843014 0,0.1259 -0.35718,0.0442 -0.79375,-0.181555 -0.71783,-0.371209 -0.79375,-0.371065 -0.79375,0.0015 0,0.226585 0.20836,0.488849 0.46303,0.582808 0.25466,0.09396 0.54761,0.298001 0.65101,0.453428 0.12077,0.181555 0.32128,0.100301 0.5608,-0.227256 0.35435,-0.484611 0.37845,-3.131748 0.0371,-4.079329 -0.071,-0.197133 0.01,-0.822211 0.17968,-1.389063 0.40286,-1.344612 1.12371,-1.390042 1.55022,-0.0977 0.32111,0.972948 -0.0239,4.215364 -0.55527,5.218621 -0.35783,0.675605 -0.10369,0.568292 0.73802,-0.311634 0.40756,-0.426061 1.03868,-0.813014 1.40248,-0.859896 0.54181,-0.06982 0.67586,0.0387 0.74108,0.599951 0.077,0.662559 -0.19422,1.025709 -2.04234,2.734541 -0.42532,0.39327 -0.55083,0.83033 -0.55083,1.91823 0,0.7749 0.0736,1.40891 0.16351,1.40891 0.0899,0 0.57033,-0.35718 1.06754,-0.79375 0.98953,-0.86882 2.13001,-1.04166 2.3907,-0.36233 0.22218,0.57901 -0.64378,2.13209 -1.58111,2.83569 -1.99149,1.49488 -2.08116,1.64798 -2.01612,3.4422 0.0333,0.91864 -0.0251,1.80891 -0.12989,1.97839 -0.10474,0.16947 -0.0644,0.32302 0.0898,0.34121 0.67945,0.0802 0.7761,0.11005 0.9637,0.29766 0.10915,0.10914 0.0595,0.19843 -0.11024,0.19843 -0.16977,0 -0.30868,0.10994 -0.30868,0.24431 0,0.13436 0.35719,0.0661 0.79375,-0.15167 0.8274,-0.41276 1.10535,-0.79799 0.373,-0.51696 -0.78424,0.30094 -0.9249,-0.13726 -0.35887,-1.11798 0.53013,-0.91853 0.11496,-0.53025 -0.65895,0.61626 -0.33592,0.49765 -0.3492,0.48604 -0.22289,-0.1949 0.14773,-0.79649 1.94999,-2.58322 2.60566,-2.58322 0.22743,0 0.64953,0.12631 0.93799,0.28069 1.02436,0.54822 0.11549,1.92788 -2.4673,3.74537 l -1.51116,1.06339 -0.0763,2.15163 c -0.0574,1.6167 -0.16346,2.13355 -0.42674,2.07892 -0.19272,-0.04 -0.27499,0.0493 -0.18283,0.19844 0.0922,0.14913 0.0514,0.27114 -0.0906,0.27114 -0.14198,0 -0.32651,-0.14883 -0.41005,-0.33073 -0.0835,-0.1819 -0.0807,-0.0479 0.006,0.29772 0.10643,0.4228 0.0623,0.5692 -0.13474,0.4474 -0.17316,-0.10702 -0.29293,0.0157 -0.29293,0.3001 0,0.61451 0.95161,1.25975 1.21924,0.82671 0.10709,-0.17328 0.0681,-0.22752 -0.0923,-0.12839 -0.55839,0.3451 -0.61277,-0.69805 -0.0631,-1.21016 0.44768,-0.41707 0.62195,-0.45045 0.94634,-0.18122 0.32256,0.2677 0.48072,0.24688 0.8379,-0.11031 0.26716,-0.26716 0.31723,-0.44029 0.12732,-0.44029 -0.18321,0 -0.24292,-0.18254 -0.14402,-0.44028 0.1136,-0.29603 0.0675,-0.3776 -0.1406,-0.24896 -0.17025,0.10522 -0.30955,0.36287 -0.30955,0.57257 0,0.20969 -0.11906,0.38126 -0.26458,0.38126 -0.49665,0 -0.26531,-0.52684 0.70106,-1.59649 0.84032,-0.93014 1.08926,-1.05733 1.91823,-0.98007 0.52392,0.0488 1.00616,0.14252 1.07164,0.20819 0.0655,0.0657 -0.0361,0.67348 -0.22569,1.35069 -0.33919,1.21149 -1.68654,2.84796 -2.43841,2.96167 -0.20095,0.0304 -0.5142,0.14824 -0.6961,0.26187 -0.1819,0.11364 -0.44156,0.13812 -0.57703,0.0544 -0.13547,-0.0837 -0.33246,-0.0128 -0.43776,0.15756 -0.12833,0.20766 -0.0759,0.23838 0.15898,0.0932 0.26405,-0.16319 0.30172,-0.0918 0.15282,0.28985 -0.35644,0.91347 -0.18105,7.31534 0.21286,7.76983 0.19521,0.22523 0.4206,0.58811 0.50086,0.80639 0.0995,0.27054 0.15258,0.28663 0.16682,0.0505 0.0115,-0.19049 0.11444,-0.28853 0.22877,-0.21786 0.11434,0.0707 0.20789,-0.0943 0.20789,-0.36661 0,-0.3734 -0.0836,-0.42569 -0.34018,-0.21276 -0.23971,0.19895 -0.34018,0.19923 -0.34018,9.6e-4 0,-0.15475 0.12101,-0.35615 0.2689,-0.44755 0.1479,-0.0914 0.20896,-0.26318 0.13569,-0.38173 -0.20791,-0.33641 0.56552,-2.65144 1.07327,-3.2125 0.25093,-0.27728 0.77839,-0.50415 1.17212,-0.50415 0.60841,0 0.84725,0.24825 1.59099,1.65365 0.48132,0.9095 1.37936,2.24896 1.99565,2.97656 1.37807,1.62697 3.02239,4.04815 3.02785,4.45836 0.002,0.17088 0.11157,0.13414 0.24945,-0.0839 0.13497,-0.2134 0.14747,-0.51106 0.0278,-0.66146 -0.26122,-0.32825 -0.18501,-4.41727 0.0906,-4.86329 0.1066,-0.17247 0.31796,-0.23686 0.46969,-0.14308 0.27958,0.17278 0.73779,-0.33856 0.73779,-0.82334 0,-0.14552 -0.10236,-0.10304 -0.22746,0.0944 -0.15856,0.25024 -0.28228,0.27028 -0.40844,0.0661 -0.0995,-0.16105 -0.36057,-0.29283 -0.58007,-0.29283 -0.28611,0 -0.34873,0.15866 -0.2212,0.56047 0.12906,0.40665 0.0795,0.52591 -0.18061,0.43455 -0.19717,-0.0693 -0.34274,-0.31681 -0.32348,-0.5501 0.0193,-0.23329 -0.0403,-0.40525 -0.13229,-0.38212 -1.00342,0.25216 -2.68085,-1.67994 -2.68085,-3.08785 0,-0.80446 0.0885,-0.9437 0.60004,-0.9437 0.90703,0 2.57496,1.23863 2.57496,1.91219 0,0.55817 0.008,0.55937 0.38846,0.0566 0.41556,-0.54942 0.55004,-1.9688 0.18653,-1.9688 -0.12032,0 -0.17806,0.38696 -0.12832,0.8599 0.0861,0.81868 0.0769,0.82849 -0.19176,0.20465 -0.15521,-0.36038 -0.21695,-0.91519 -0.1372,-1.23292 0.11382,-0.4535 -0.13199,-0.80958 -1.14347,-1.65644 -1.3124,-1.0988 -2.06059,-2.36216 -1.80044,-3.04011 0.21631,-0.5637 1.65278,-0.36252 2.39583,0.33553 0.36659,0.3444 0.70815,0.48877 0.80098,0.33856 0.089,-0.14404 0.0497,-0.30182 -0.0873,-0.35063 -0.13703,-0.0488 -0.28533,-0.76277 -0.32956,-1.58658 -0.0442,-0.8238 -0.15545,-1.45145 -0.24716,-1.39477 -0.0917,0.0567 -0.5097,-0.19188 -0.92886,-0.55237 -0.41916,-0.36048 -0.65006,-0.65557 -0.51311,-0.65574 0.13696,-1.8e-4 0.0181,-0.16919 -0.26416,-0.37557 -0.7899,-0.57759 -0.35095,-0.6737 0.54432,-0.11918 0.43656,0.2704 0.6379,0.49226 0.44741,0.49303 -0.19049,7.7e-4 -0.27597,0.11526 -0.18997,0.25442 0.086,0.13917 0.36093,0.18747 0.61093,0.10733 0.3918,-0.12558 0.39976,-0.10294 0.0577,0.16399 -0.35277,0.27528 -0.35277,0.29643 0,0.19033 0.41123,-0.12368 0.42779,-0.26377 0.12359,-1.04541 -0.10063,-0.25856 -0.0594,-0.46302 0.0933,-0.46302 0.15042,0 0.32872,0.20836 0.39622,0.46302 0.0675,0.25467 0.06,-0.10252 -0.0166,-0.79375 -0.0957,-0.86316 -0.0422,-1.25677 0.17056,-1.25677 0.20618,0 0.23303,-0.15492 0.0802,-0.46302 -0.12628,-0.25466 -0.25734,-1.37899 -0.29124,-2.49851 -0.0874,-2.88574 0.71947,-4.20653 1.28553,-2.10434 0.34389,1.27711 0.35508,1.85212 0.0787,4.04223 -0.21762,1.72415 -0.21093,1.75388 0.38704,1.71979 0.33467,-0.0191 0.55705,-0.16901 0.49417,-0.33318 -0.13422,-0.35048 0.34462,-0.89213 0.78868,-0.89213 0.17013,0 0.38155,0.445 0.46981,0.98889 0.12734,0.78469 0.0244,1.19446 -0.4983,1.98438 -0.77702,1.17415 -0.86696,1.213 -0.77033,0.33271 0.04,-0.36452 -0.0378,-0.59441 -0.17299,-0.51088 -0.13516,0.0835 -0.16142,0.29248 -0.0584,0.46432 0.10676,0.178 -0.005,0.15619 -0.26027,-0.0507 -0.48049,-0.38976 -0.62804,-0.0554 -0.17533,0.39732 0.18671,0.18672 0.1457,0.51527 -0.13046,1.04511 -0.37102,0.71183 -0.50687,3.02173 -0.17772,3.02173 0.0786,0 0.52214,-0.36752 0.98559,-0.81672 0.8228,-0.79749 0.8558,-0.80545 1.40166,-0.33807 1.05972,0.90737 0.71271,1.69231 -1.64135,3.71276 -0.91262,0.78328 -0.9727,0.92726 -0.91738,2.1985 0.0434,0.99739 0.13189,1.26467 0.33169,1.00177 0.82527,-1.08588 2.83871,-1.68685 3.11445,-0.92959 0.2874,0.78925 -0.88718,2.54828 -2.51761,3.77031 -0.66488,0.49834 -0.71313,0.68329 -0.82828,3.175 -0.0673,1.45521 -0.13857,2.88396 -0.15849,3.175 l -0.0362,0.52917 -0.2409,-0.52917 c -0.18813,-0.41323 -0.21723,-0.3353 -0.13285,0.35568 0.13834,1.13279 0.31318,1.29813 0.55429,0.52415 0.10541,-0.33838 0.75098,-1.32962 1.4346,-2.20275 1.46837,-1.87542 3.01614,-4.12507 3.09458,-4.49791 0.0306,-0.14552 0.29569,-1.07727 0.58904,-2.07056 0.29336,-0.99328 0.61427,-3.08433 0.71313,-4.64678 l 0.17976,-2.84081 -1.10082,-0.87186 c -1.89115,-1.49782 -2.4834,-3.46062 -1.0442,-3.46062 0.39701,0 0.79542,0.11907 0.88536,0.26459 0.0899,0.14552 0.39462,0.26458 0.67707,0.26458 0.41777,0 0.51279,-0.18505 0.5095,-0.99219 -0.005,-1.17597 -0.0776,-1.29156 -1.45116,-2.30584 -1.76187,-1.30098 -2.12237,-2.08243 -1.3274,-2.87739 0.51819,-0.5182 2.35656,-0.0312 2.12824,0.56382 -0.102,0.26581 -0.0165,0.32941 0.28638,0.21317 0.33122,-0.1271 0.39989,-0.0438 0.2949,0.35769 -0.14201,0.54306 0.4755,1.28694 0.79943,0.96302 0.10141,-0.10141 0.0525,-0.26721 -0.10869,-0.36844 -0.16119,-0.10123 -0.26393,-0.69006 -0.22831,-1.30853 0.0356,-0.61846 -0.0374,-1.12448 -0.16229,-1.12448 -0.12488,0 -0.23645,0.26789 -0.24794,0.59532 -0.0115,0.32742 -0.0786,0.45358 -0.14908,0.28035 -0.0705,-0.17323 -0.0108,-0.74009 0.13266,-1.2597 0.14347,-0.51962 0.16302,-0.88429 0.0435,-0.81039 -0.22251,0.13752 -1.51833,-1.21587 -2.28613,-2.38768 -0.34508,-0.52666 -0.36457,-0.73084 -0.10016,-1.04943 0.43748,-0.52713 1.0456,-0.49997 1.51071,0.0675 0.20873,0.25466 0.30497,0.31556 0.21386,0.13532 -0.10904,-0.2157 -0.0253,-0.27385 0.24496,-0.17013 0.35344,0.13563 0.41062,-0.19425 0.41062,-2.36866 0,-2.63803 0.24007,-3.224543 1.00624,-2.458372 0.3573,0.357301 0.3683,0.480122 0.068,0.75891 -0.29413,0.273024 -0.32762,0.245699 -0.18692,-0.15251 0.10945,-0.309762 0.0602,-0.448042 -0.13638,-0.382532 -0.16928,0.05643 -0.33751,0.305069 -0.37383,0.552535 -0.0363,0.247466 0.0436,0.382191 0.17756,0.299389 0.13398,-0.0828 0.3541,0.124989 0.48917,0.46176 l 0.24558,0.612311 0.0376,-0.661459 c 0.0207,-0.363802 0.0919,-0.530128 0.15815,-0.369614 0.0663,0.160514 0.0182,1.148622 -0.1069,2.195802 -0.24872,2.08247 -0.0479,2.51418 0.7292,1.56743 0.41073,-0.5004 0.59488,-0.56071 0.9848,-0.32255 0.81441,0.49745 0.67662,0.984 -0.7235,2.55491 -1.26218,1.41613 -1.34638,1.59763 -1.28668,2.77331 0.0351,0.6919 0.10268,1.3343 0.15011,1.42755 0.0474,0.0933 0.54948,-0.2937 1.11567,-0.85989 0.5662,-0.5662 1.16626,-1.02945 1.33346,-1.02945 0.43569,0 0.63707,0.68335 0.43667,1.48179 -0.17694,0.70499 -2.41799,2.93632 -2.82996,2.81769 -0.12635,-0.0364 -0.22972,0.73193 -0.22972,1.70734 v 1.77349 l 1.00335,-0.97974 c 0.55184,-0.53885 1.26621,-0.97973 1.5875,-0.97973 0.49417,0 0.58415,0.14653 0.58415,0.95134 0,1.07794 -0.69058,2.19034 -1.88996,3.04438 -0.55506,0.39524 -0.86843,0.48359 -0.99409,0.28027 -0.10092,-0.1633 -0.21586,1.09457 -0.25542,2.79526 -0.0396,1.7007 -0.16537,3.59238 -0.27958,4.20374 l -0.20767,1.11156 0.97971,-0.51065 c 1.22904,-0.64061 4.76478,-1.3973 5.0758,-1.08628 0.25185,0.25185 -0.12365,1.22434 -1.05726,2.73811 -0.55444,0.89897 -3.51657,3.7254 -5.05186,4.82042 -0.56818,0.40524 -0.59353,0.4686 -0.14831,0.37075 0.54378,-0.11952 1.28568,0.40461 0.99052,0.69978 -0.0883,0.0883 0.0564,0.16048 0.32149,0.16048 0.45018,0 0.45309,-0.0319 0.0441,-0.48385 -0.24084,-0.26612 -0.43788,-0.54933 -0.43788,-0.62936 0,-0.39128 1.68793,-0.75521 3.71405,-0.80078 2.40299,-0.054 3.95886,0.36005 3.95886,1.05362 0,0.21909 -0.80367,1.22393 -1.78593,2.23298 -1.84298,1.89322 -4.93251,3.7394 -6.75757,4.03806 -1.29828,0.21245 -12.89463,0.29804 -16.32733,0.12051 z m 10.95701,-0.57024 c -0.14938,-0.26458 -0.11546,-0.26458 0.16959,0 0.3785,0.35132 3.27727,0.45298 4.71533,0.16536 0.9494,-0.18988 1.12162,-0.87745 0.23151,-0.9243 -0.32742,-0.0172 -0.71438,-0.003 -0.8599,0.031 -0.3055,0.072 -2.96087,0.0471 -6.25894,-0.0586 -1.25961,-0.0404 -2.23994,0.008 -2.1785,0.10676 0.0614,0.0991 -0.0123,0.25676 -0.16376,0.35039 -0.1515,0.0936 -0.24273,0.025 -0.20275,-0.15257 0.0505,-0.22436 -0.37114,-0.32063 -1.38251,-0.31565 -0.80036,0.004 -1.57427,0.0354 -1.71979,0.0699 -0.56071,0.13294 -0.94948,-0.0125 -0.77743,-0.29092 0.1268,-0.20517 0.0149,-0.2027 -0.37957,0.008 -0.67308,0.36022 -2.41323,0.28668 -2.41892,-0.10223 -0.003,-0.18596 -0.0678,-0.18352 -0.19844,0.007 -0.10727,0.15678 -1.0577,0.28889 -2.12077,0.29478 -1.05951,0.006 -1.99174,0.0761 -2.07164,0.15594 -0.0799,0.0799 0.60839,0.32369 1.52951,0.54176 2.23924,0.53014 14.3775,0.62706 14.08698,0.11248 z m 6.8323,-0.67245 c -0.37019,-0.0574 -0.53096,-0.21218 -0.42061,-0.4048 0.0983,-0.1715 0.0767,-0.21907 -0.0478,-0.10572 -0.52878,0.48122 -0.3234,0.89879 0.3697,0.75166 0.65835,-0.13975 0.66396,-0.15344 0.0987,-0.24114 z m -23.7501,-0.79715 c -0.1413,-0.10122 -0.26882,-0.33287 -0.28338,-0.51478 -0.0604,-0.75523 -0.12554,-0.85989 -0.5351,-0.85989 -0.35158,0 -0.36966,-0.0718 -0.0999,-0.39688 0.18986,-0.22875 0.21557,-0.39687 0.0607,-0.39687 -0.14777,0 -0.34195,0.19095 -0.4315,0.42432 -0.093,0.24227 -0.33215,0.35936 -0.55748,0.27289 -0.21705,-0.0833 -0.39464,-0.044 -0.39464,0.0873 0,0.28164 2.19151,1.82616 2.37359,1.67285 0.0685,-0.0577 0.009,-0.18776 -0.1323,-0.28899 z m 27.32507,-1.04391 c 0.4725,-0.42536 0.78007,-0.85238 0.68351,-0.94894 -0.0966,-0.0966 -0.0264,-0.17557 0.1559,-0.17557 0.50582,0 2.13798,-1.64429 2.13798,-2.15387 0,-0.57403 -1.15746,-0.84072 -3.47195,-0.79998 -1.95761,0.0345 -3.27176,0.41421 -2.99319,0.86493 0.12693,0.20539 0.2569,0.1857 0.43351,-0.0657 0.17981,-0.25591 0.22081,-0.16047 0.14282,0.33246 -0.0933,0.58947 -0.0291,0.67042 0.43548,0.54894 0.29969,-0.0784 0.39913,-0.19108 0.22098,-0.25046 -0.34645,-0.11549 -0.45785,-0.61419 -0.12547,-0.56171 0.10914,0.0172 0.37704,0.0154 0.59532,-0.004 0.35277,-0.0314 0.35277,-0.0639 0,-0.29186 -0.31929,-0.20634 -0.27745,-0.25727 0.21405,-0.26053 0.37885,-0.003 0.54236,0.10688 0.43044,0.28797 -0.0993,0.16062 0.15587,0.0716 0.56697,-0.19772 0.72987,-0.47823 0.74294,-0.47799 0.55569,0.01 -0.17001,0.44302 -0.14113,0.45795 0.25448,0.13158 0.40819,-0.33676 0.41816,-0.31545 0.11691,0.24982 -0.18113,0.33988 -0.26461,0.68269 -0.18551,0.76179 0.0791,0.0791 0.28645,-0.16922 0.46078,-0.55183 0.38718,-0.84976 0.88026,-0.92328 0.67291,-0.10033 -0.14486,0.57496 -0.13687,0.57775 0.23373,0.0817 0.37682,-0.50437 0.38371,-0.5037 0.38371,0.0372 0,0.43428 -0.19928,0.57405 -0.9421,0.66077 -0.51816,0.0605 -1.00929,0.001 -1.09141,-0.13159 -0.0821,-0.13287 -0.24667,-0.084 -0.36567,0.10853 -0.11994,0.19405 -0.0954,0.49581 0.0549,0.67701 0.41251,0.49705 0.004,1.48305 -0.55409,1.33712 -0.25634,-0.067 -0.66159,-0.0125 -0.90054,0.12125 -0.28137,0.15747 -0.43445,0.14528 -0.43445,-0.0346 0,-0.15276 0.19317,-0.27774 0.42927,-0.27774 0.36991,0 0.37906,-0.0619 0.0661,-0.44766 -0.19972,-0.24621 -0.22779,-0.36659 -0.0624,-0.2675 0.34081,0.20417 1.06085,-0.52497 0.78794,-0.79788 -0.0975,-0.0975 -0.42903,0.0743 -0.73664,0.38195 -0.49461,0.49461 -0.69337,1.68215 -0.51151,3.05612 0.0402,0.30384 1.35854,-0.44482 2.34145,-1.32968 z m -1.72308,0.64986 c 0.2524,-0.20432 0.37509,-0.4553 0.27265,-0.55775 -0.10245,-0.10244 0.0236,-0.10572 0.2801,-0.007 0.5329,0.20449 0.53563,0.19963 -0.3502,0.62151 -0.5832,0.27775 -0.60716,0.27106 -0.20255,-0.0565 z m 3.83028,-3.43305 c 0.076,-0.39741 0.24331,-0.72257 0.37186,-0.72257 0.33941,0 0.28703,0.35515 -0.13812,0.93658 -0.34784,0.47569 -0.36294,0.46186 -0.23374,-0.21401 z m -5.19697,2.60672 c -0.22622,-0.27258 -0.19188,-0.39717 0.14515,-0.5265 0.24282,-0.0932 0.3678,-0.24311 0.27773,-0.33318 -0.0901,-0.0901 -0.34524,-0.0132 -0.56704,0.17092 -0.32583,0.27041 -0.40327,0.26919 -0.40327,-0.006 0,-0.18759 -0.06,-0.28103 -0.13344,-0.20764 -0.0734,0.0734 0.067,0.53525 0.312,1.02634 0.24499,0.49109 0.49489,0.74454 0.55533,0.56322 0.0604,-0.18132 -0.0235,-0.49036 -0.18646,-0.68676 z m -26.37086,-0.98872 c 0.40735,-0.47575 0.41706,-0.54266 0.0588,-0.40518 -0.30507,0.11707 -0.42912,0.016 -0.42912,-0.34965 0,-0.45167 -0.0886,-0.48064 -0.72716,-0.23784 -0.72448,0.27544 -0.72522,0.27456 -0.19844,-0.24039 0.56636,-0.55364 0.92426,-0.60433 1.28129,-0.18147 0.13129,0.15549 0.16545,0.0827 0.0829,-0.17654 -0.20551,-0.64503 0.56014,-0.82618 0.88964,-0.21048 0.19566,0.36558 0.52973,0.50865 1.12852,0.48328 0.64841,-0.0275 0.70542,-0.0638 0.23983,-0.15272 -0.52529,-0.10035 -0.56232,-0.17647 -0.26458,-0.54392 0.29299,-0.36161 0.2852,-0.39315 -0.0507,-0.20534 -0.30525,0.17067 -0.32754,0.14666 -0.0965,-0.10402 0.23684,-0.25702 0.47454,-0.23583 1.12448,0.10027 0.84735,0.43818 1.13437,0.77961 0.42727,0.50828 -0.21828,-0.0838 -0.39687,-0.0205 -0.39687,0.14059 0,0.16109 0.36421,0.29289 0.80936,0.29289 0.57708,0 0.75234,0.0949 0.61067,0.33073 -0.13665,0.22746 -0.0598,0.2181 0.24606,-0.03 0.50271,-0.40772 0.32769,-0.94091 -0.23765,-0.72396 -0.20356,0.0781 -0.37011,0.0206 -0.37011,-0.12776 0,-0.45242 -1.75953,-1.03653 -3.12237,-1.03653 -1.65611,0 -4.28596,0.52683 -4.28596,0.85859 0,0.141 0.17253,0.19015 0.3834,0.10924 0.25625,-0.0983 0.33461,-0.02 0.23627,0.23627 -0.0909,0.23679 0.0155,0.3834 0.27806,0.3834 0.23385,0 0.42519,0.14116 0.42519,0.31368 0,0.32691 1.03181,1.5384 1.31023,1.5384 0.0878,0 0.37923,-0.25643 0.64758,-0.56984 z m -1.64927,-1.77864 c -0.28152,-0.17845 -0.26376,-0.25792 0.0878,-0.39282 0.63047,-0.24194 1.19116,-0.20866 1.19116,0.0707 0,0.1319 -0.25674,0.17267 -0.57054,0.0906 -0.3909,-0.10223 -0.51094,-0.0528 -0.38126,0.15706 0.22339,0.36144 0.15143,0.37781 -0.32715,0.0744 z m 17.15395,0.4964 c 0,-0.14552 -0.20836,-0.2664 -0.46302,-0.26863 -0.39134,-0.003 -0.40221,-0.0425 -0.0702,-0.25241 0.27901,-0.17642 0.5664,-0.0853 0.99219,0.31476 0.32967,0.30971 0.5994,0.43321 0.5994,0.27445 0,-0.15876 -0.0962,-0.32834 -0.21384,-0.37685 -0.11761,-0.0485 -0.59036,-0.62397 -1.05055,-1.27882 -0.46019,-0.65484 -1.29095,-1.70785 -1.84613,-2.34001 -0.81006,-0.92238 -1.00942,-1.04379 -1.00942,-0.61474 0,0.29406 0.0769,0.48711 0.17095,0.42899 0.094,-0.0581 0.57625,0.34581 1.0716,0.8976 0.74646,0.83151 0.89248,1.19003 0.85301,2.09436 -0.0358,0.82136 0.0613,1.11996 0.39307,1.2078 0.24238,0.0642 0.47045,0.13051 0.50683,0.14739 0.0364,0.0169 0.0661,-0.0884 0.0661,-0.23389 z m -7.44208,-0.44766 c -0.19972,-0.24622 -0.2254,-0.36512 -0.0571,-0.26422 0.20377,0.12214 0.26107,0.0114 0.17145,-0.3313 -0.10018,-0.38307 -0.21473,-0.43991 -0.4478,-0.22219 -0.50021,0.46726 -0.37931,1.26537 0.19168,1.26537 0.44092,0 0.45887,-0.0567 0.14174,-0.44766 z m 12.87824,0.0189 c 0.20225,0.0776 0.44947,0.009 0.54938,-0.1528 0.10999,-0.17797 0.0611,-0.21944 -0.12382,-0.10512 -0.16801,0.10383 -0.30547,0.0664 -0.30547,-0.0831 0,-0.14954 -0.20836,-0.19381 -0.46302,-0.0984 -0.42092,0.15775 -0.42693,0.12692 -0.0661,-0.33903 0.36846,-0.47586 0.36326,-0.48618 -0.0725,-0.14413 -0.25818,0.20264 -0.40886,0.42899 -0.33484,0.50301 0.074,0.074 -0.0719,0.30174 -0.32434,0.50606 -0.40898,0.33106 -0.39189,0.33889 0.15708,0.0719 0.33879,-0.16475 0.78146,-0.23605 0.98371,-0.15844 z m -3.39735,-2.01859 c -0.0631,-0.32743 -0.11466,-0.0595 -0.11466,0.59531 0,0.65484 0.0516,0.92273 0.11466,0.59531 0.0631,-0.32742 0.0631,-0.8632 0,-1.19062 z m -8.82856,0.79375 c -0.11352,-0.18191 -0.2423,-0.56163 -0.28618,-0.84383 -0.11347,-0.72976 -0.3324,-0.86929 -0.3324,-0.21186 0,0.30501 -0.20804,0.60823 -0.46302,0.67486 -0.35753,0.0934 -0.33094,0.128 0.11668,0.1517 0.31883,0.0169 0.65328,0.14975 0.74322,0.29527 0.0899,0.14552 0.22305,0.26459 0.29581,0.26459 0.0728,0 0.0394,-0.14883 -0.0741,-0.33073 z m 12.77595,-0.14493 c -0.0717,-0.11609 -0.0211,-0.38398 0.11263,-0.59531 0.18743,-0.29629 0.25102,-0.23284 0.27781,0.27722 0.0224,0.4264 0.0767,0.50213 0.15292,0.2131 0.0686,-0.26046 0.27755,-0.3872 0.49848,-0.30242 0.26295,0.1009 0.3803,-0.0424 0.3803,-0.46446 0,-0.47475 -0.0706,-0.53984 -0.3175,-0.29289 -0.62955,0.62955 -0.76428,0.29982 -0.20082,-0.49148 0.31682,-0.44495 0.52357,-0.86147 0.45943,-0.92561 -0.20966,-0.20965 -1.82967,2.25527 -1.66129,2.52772 0.0901,0.14586 0.22344,0.2652 0.2962,0.2652 0.0728,0 0.0736,-0.095 0.002,-0.21107 z m -8.52206,-0.64882 c -0.27566,-0.32743 -0.53224,-0.64493 -0.57017,-0.70556 -0.0379,-0.0606 -0.069,0.15475 -0.069,0.47864 0,0.32388 0.11084,0.52037 0.24631,0.43665 0.13546,-0.0837 0.32108,-0.0312 0.41249,0.11668 0.0914,0.14789 0.23714,0.2689 0.32387,0.2689 0.0867,0 -0.0679,-0.26789 -0.34353,-0.59531 z m -7.37043,-0.33915 c -0.37589,-0.2843 -0.41136,-0.39406 -0.1323,-0.40935 0.31645,-0.0173 0.3138,-0.0456 -0.0156,-0.16596 -0.21828,-0.0798 -0.67138,-0.39502 -1.00688,-0.7005 -0.58451,-0.5322 -0.60171,-0.53355 -0.41168,-0.0325 0.23425,0.61768 0.56473,0.97531 1.28627,1.39192 0.73909,0.42676 0.89388,0.38055 0.28016,-0.0836 z m 21.01879,-1.23197 c 0,-0.11815 -0.0893,-0.213 -0.19843,-0.21077 -0.29487,0.006 -1.03209,0.51634 -0.75275,0.52106 0.1317,0.002 0.0126,0.26239 -0.26458,0.57812 -0.47081,0.53624 -0.44736,0.53296 0.35587,-0.0498 0.47294,-0.34311 0.85989,-0.7205 0.85989,-0.83866 z m -23.13214,-0.46681 c 0,-0.28411 -0.0528,-0.46373 -0.1174,-0.39917 -0.2202,0.22021 -0.82231,-0.46616 -0.65145,-0.74262 0.0945,-0.15288 0.0435,-0.19712 -0.11462,-0.0994 -0.16861,0.10421 -0.56643,-0.41907 -0.97468,-1.28203 -0.37938,-0.80196 -0.80242,-1.4581 -0.94007,-1.4581 -0.51894,0 0.53168,2.12937 1.62723,3.29803 0.41402,0.44165 0.75332,0.8923 0.75399,1.00144 6.8e-4,0.10915 0.0948,0.19844 0.20912,0.19844 0.11433,0 0.20788,-0.23245 0.20788,-0.51657 z m 2.89661,-2.18042 c -0.0571,-1.31161 -0.18208,-2.46175 -0.2777,-2.55586 -0.0956,-0.0941 -0.12403,0.93022 -0.0631,2.27629 0.0609,1.34607 0.0125,2.4474 -0.10749,2.4474 -0.12003,0 -0.21823,0.11532 -0.21823,0.25627 0,0.14096 0.17334,0.18977 0.3852,0.10847 0.30888,-0.11853 0.36462,-0.62027 0.28135,-2.53257 z m 22.00214,1.57251 c 0.82608,-0.91763 0.88656,-1.14361 0.31753,-1.18647 -0.28878,-0.0217 -0.59066,0.13144 -0.67086,0.34043 -0.0802,0.20899 -0.24417,0.31919 -0.36439,0.24489 -0.12021,-0.0743 -0.2869,-0.0245 -0.37041,0.11059 -0.21926,0.35478 0.51579,0.1991 1.01462,-0.21489 0.23297,-0.19334 0.42357,-0.23634 0.42357,-0.0956 0,0.37783 -0.93996,1.16192 -1.14595,0.95593 -0.0973,-0.0973 -0.17697,-0.0381 -0.17697,0.13171 0,0.47959 0.38525,0.36609 0.97286,-0.28663 z m -19.43819,-1.45481 c 0.16394,-0.3272 0.22185,-0.67113 0.12869,-0.7643 -0.24491,-0.2449 -0.71966,1.13714 -0.67732,1.97175 0.0358,0.7064 0.0366,0.70667 0.14329,0.0489 0.059,-0.36381 0.2414,-0.92917 0.40534,-1.25638 z m 2.62715,-0.17963 c -0.29525,-0.62811 -0.75174,-1.2171 -1.01442,-1.30887 -0.452,-0.15789 -0.45278,-0.14751 -0.0146,0.19371 0.60975,0.4748 0.58652,0.69248 -0.0606,0.56786 -0.28798,-0.0555 -0.60403,0.0293 -0.70233,0.18837 -0.10716,0.17337 -0.0564,0.21359 0.12672,0.10041 0.16801,-0.10383 0.30547,-0.0828 0.30547,0.0467 0,0.12952 -0.29766,0.39479 -0.66146,0.58949 -0.3638,0.1947 -0.65767,0.54224 -0.65304,0.77232 0.007,0.36402 0.0531,0.35941 0.35316,-0.0355 0.27419,-0.36093 0.41878,-0.388 0.70643,-0.13229 0.30439,0.27059 0.30618,0.24818 0.0113,-0.1415 -0.29865,-0.39468 -0.287,-0.46302 0.0789,-0.46302 0.2361,0 0.43867,-0.14883 0.45016,-0.33073 0.0167,-0.26458 0.0476,-0.26458 0.15434,0 0.0734,0.1819 0.3051,0.33073 0.51489,0.33073 0.21701,0 0.45908,0.37068 0.56154,0.8599 0.11788,0.56279 0.21469,0.69484 0.2802,0.38218 0.0551,-0.26275 -0.14147,-0.99163 -0.43671,-1.61975 z m -7.04558,0.44294 c 0.81731,0.15624 0.83442,-0.0726 0.0598,-0.80027 -0.58389,-0.54854 -2.57608,-1.52022 -2.57608,-1.25647 0,0.0728 0.41672,0.3064 0.92605,0.51921 0.97412,0.40702 1.28888,1.34964 0.54587,1.63475 -0.21839,0.0838 -0.312,0.32353 -0.21998,0.56332 0.12892,0.33598 0.20363,0.29998 0.38286,-0.18451 0.17132,-0.46314 0.37459,-0.57292 0.88144,-0.47603 z m 23.1821,-0.24835 c 0.24673,-0.30418 0.25712,-0.38398 0.0324,-0.24897 -0.19699,0.11835 -0.33236,0.0587 -0.33478,-0.14765 -0.003,-0.25166 -0.0742,-0.23785 -0.26053,0.0505 -0.2074,0.32092 -0.25726,0.28295 -0.26053,-0.19844 -0.002,-0.32742 0.13485,-0.59531 0.30463,-0.59531 0.16977,0 0.23312,-0.0756 0.14077,-0.16791 -0.27543,-0.27543 -1.77237,0.46534 -1.77237,0.87708 0,0.20921 -0.11906,0.3068 -0.26458,0.21687 -0.14552,-0.0899 -0.26459,-0.0374 -0.26459,0.11667 0,0.41882 0.47059,0.3379 0.72993,-0.12552 0.19778,-0.35341 0.30702,-0.33636 0.84738,0.1323 0.74486,0.64601 0.65736,0.63884 1.10228,0.0903 z m -11.67542,-0.43789 c -0.3638,-0.19172 -0.71754,-0.30256 -0.78609,-0.2463 -0.18607,0.15272 0.59449,0.59456 1.05067,0.59474 0.21875,8e-5 0.1,-0.15631 -0.26458,-0.34844 z m 0.52512,-1.0505 c 0.002,-0.11895 -0.25209,-0.13498 -0.56514,-0.0356 -0.42992,0.13645 -0.53349,0.0876 -0.42328,-0.19959 0.0822,-0.21429 -0.0905,-0.52788 -0.39571,-0.71851 -0.39281,-0.24531 -0.45216,-0.39354 -0.216,-0.5395 0.24055,-0.14867 0.21122,-0.24515 -0.11222,-0.36927 -0.33792,-0.12967 -0.42033,-0.0324 -0.36108,0.4262 0.0422,0.32682 -0.0238,0.7558 -0.14663,0.9533 -0.17282,0.27776 -0.0909,0.31703 0.3616,0.1734 0.52061,-0.16524 0.55389,-0.12753 0.30231,0.34255 -0.24141,0.45107 -0.21043,0.50934 0.21201,0.39887 0.27209,-0.0712 0.58257,0.0128 0.68994,0.18651 0.14729,0.23832 0.25107,0.22774 0.42269,-0.0431 0.1251,-0.19744 0.22928,-0.4563 0.23151,-0.57524 z m 4.00655,0.15012 c 0.32445,-0.41371 0.31655,-0.42663 -0.0742,-0.12125 -0.35737,0.27931 -0.45955,0.27931 -0.55909,0 -0.067,-0.18798 -0.20955,-0.2604 -0.31681,-0.16094 -0.22282,0.20663 0.0449,0.74521 0.37037,0.74521 0.11911,0 0.37998,-0.20836 0.5797,-0.46302 z m 3.66381,-0.44317 c -0.35067,-0.35067 -0.56879,-0.0513 -0.35968,0.49363 0.13778,0.35905 0.22177,0.3818 0.39209,0.10623 0.11921,-0.19289 0.10462,-0.46283 -0.0324,-0.59986 z m 4.7691,0.10035 c 0.28984,-0.19614 0.18281,-0.22068 -0.39687,-0.091 -0.97286,0.21761 -1.18404,0.36905 -0.50712,0.36364 0.27892,-0.002 0.68571,-0.12491 0.90399,-0.27262 z m -12.43541,-0.51708 c 0,-0.11438 -0.15308,-0.26671 -0.34018,-0.3385 -0.19835,-0.0761 -0.34018,0.065 -0.34018,0.3385 0,0.27349 0.14183,0.41462 0.34018,0.33851 0.1871,-0.0718 0.34018,-0.22413 0.34018,-0.33851 z m 3.54471,-0.13223 c 0.2761,-0.20899 0.60352,-0.31724 0.7276,-0.24055 0.12408,0.0767 0.2256,0.004 0.2256,-0.16179 0,-0.39581 -1.58107,-0.074 -2.10721,0.42886 -0.33807,0.32312 -0.32122,0.36922 0.13229,0.36188 0.28584,-0.005 0.74562,-0.17941 1.02172,-0.3884 z m 4.53933,-0.1554 c 0.0978,-0.15821 0.0175,-0.4261 -0.17842,-0.59532 -0.1959,-0.16922 -0.2699,-0.19957 -0.16445,-0.0674 0.10546,0.13213 0.0591,0.40002 -0.10295,0.59531 -0.20124,0.24248 -0.20547,0.35507 -0.0133,0.35507 0.15475,0 0.36136,-0.12943 0.45914,-0.28763 z m -18.82108,-3.39093 c -0.41631,-0.39034 -0.43545,-0.38223 -0.2515,0.10669 0.10949,0.29104 0.27522,1.06495 0.36829,1.71979 l 0.16921,1.19062 0.0823,-1.29731 c 0.0608,-0.95824 -0.0355,-1.40774 -0.36829,-1.71979 z m 18.93912,1.29731 c 0,-0.43656 -0.046,-0.79375 -0.10226,-0.79375 -0.0563,0 -0.15469,0.35719 -0.21876,0.79375 -0.0641,0.43656 -0.0181,0.79375 0.10226,0.79375 0.12032,0 0.21876,-0.35719 0.21876,-0.79375 z m -5.84038,-1.16707 c 0.1704,-0.20532 0.21343,-0.43289 0.0956,-0.5057 -0.28383,-0.17542 -1.17547,0.48518 -0.9539,0.70675 0.26612,0.26612 0.5199,0.20667 0.85828,-0.20105 z m -14.06558,-1.14803 c 0.005,-0.86092 -0.40495,-1.4563 -0.82766,-1.20307 -0.16542,0.0991 -0.13735,-0.0213 0.0624,-0.2675 0.39313,-0.48464 0.69679,-0.61375 0.43063,-0.18308 -0.0899,0.14552 0.0221,0.26459 0.24896,0.26459 0.53498,0 0.52003,-0.16417 -0.0934,-1.02558 -0.60393,-0.84815 -2.2552,-1.17002 -1.95225,-0.38054 0.10829,0.2822 0.21389,0.33353 0.27974,0.13597 0.0582,-0.17455 0.23874,-0.31735 0.40124,-0.31735 0.20529,0 0.19857,0.0969 -0.0221,0.3175 -0.46451,0.4645 -0.39974,1.09359 0.0931,0.90446 0.22584,-0.0867 0.34256,-0.0474 0.25938,0.0871 -0.28517,0.4614 -1.13009,0.20371 -0.99728,-0.30417 0.13135,-0.50229 -0.32037,-0.66162 -0.59875,-0.21119 -0.0899,0.14552 -0.0304,0.26458 0.13229,0.26458 0.1627,0 0.23422,0.0997 0.15894,0.22146 -0.22321,0.36116 0.65816,1.41369 1.05596,1.26104 0.20144,-0.0773 0.33791,-0.0342 0.30328,0.0959 -0.0466,0.17494 0.74091,0.98591 1.02843,1.05907 0.0182,0.005 0.0349,-0.31901 0.037,-0.71919 z m 11.4446,0.32433 c 0.18408,-0.22179 0.25819,-0.47976 0.16469,-0.57326 -0.0935,-0.0935 -0.17,-0.0311 -0.17,0.13869 0,0.61808 -0.99911,0.31605 -1.16698,-0.35278 -0.0913,-0.3638 -0.27907,-0.66146 -0.41725,-0.66146 -0.31579,0 -0.0497,0.77827 0.47483,1.38906 0.48749,0.56761 0.68447,0.57817 1.11471,0.0598 z m 8.24,-0.6328 c 0.0543,-0.56985 0.007,-0.97954 -0.1045,-0.91043 -0.20346,0.12574 -0.29588,1.9465 -0.0988,1.9465 0.0575,0 0.14897,-0.46623 0.20331,-1.03607 z m -15.24012,-0.35299 0.77711,-0.8599 -0.80823,0.72761 c -0.81794,0.73635 -1.44073,0.94009 -1.44073,0.47132 0,-0.14095 -0.17791,-0.18801 -0.39536,-0.10456 -0.5518,0.21174 -0.22521,0.62543 0.49376,0.62543 0.337,0 0.9343,-0.37396 1.37345,-0.8599 z m 10.4344,0.4013 c 0,-0.0728 -0.25271,-0.0662 -0.56157,0.0146 l -0.56156,0.14686 0.5505,-0.51287 c 0.68238,-0.63573 1.03431,-0.65086 1.15924,-0.0499 0.079,0.38001 0.12504,0.35791 0.25685,-0.12325 0.0883,-0.32244 0.0835,-0.57623 -0.0107,-0.56398 -0.60179,0.0783 -1.10386,-0.0804 -0.96505,-0.30496 0.36082,-0.58383 -0.0696,-0.21483 -0.62382,0.53484 -0.32507,0.43968 -0.52593,0.90475 -0.44637,1.03349 0.14366,0.23243 1.20248,0.0785 1.20248,-0.17484 z m 3.49733,-2.35363 c -0.76876,-0.64451 -1.05367,-1.04678 -0.88643,-1.25159 0.34604,-0.42378 -0.30266,-0.98232 -0.78569,-0.67648 -0.28694,0.18168 -0.25121,0.2361 0.15916,0.24238 0.3779,0.006 0.4315,0.0701 0.18751,0.22486 -0.24957,0.15833 -0.0194,0.51384 0.85398,1.31886 0.65761,0.60616 1.2876,1.09978 1.4,1.09693 0.11239,-0.003 -0.30545,-0.43258 -0.92853,-0.95496 z m 3.57555,-0.54704 c 0.052,-0.15591 -0.0837,-0.46172 -0.3016,-0.67957 -0.43774,-0.43774 -0.29824,-0.76137 0.23928,-0.5551 0.18933,0.0726 0.422,0.006 0.51704,-0.1475 0.10992,-0.17785 -6.8e-4,-0.21453 -0.30397,-0.10079 -0.42133,0.15802 -0.43393,0.12616 -0.10833,-0.274 0.77914,-0.95757 0.054,-0.66473 -0.86049,0.3475 -1.01038,1.11836 -1.23461,1.68129 -0.56779,1.42541 0.21744,-0.0834 0.33456,-0.25008 0.26027,-0.37029 -0.26045,-0.42142 0.34631,-0.50961 0.68644,-0.0998 0.28368,0.34181 0.27737,0.46032 -0.0362,0.67868 -0.32994,0.22979 -0.32988,0.25105 4.7e-4,0.16174 0.20919,-0.0566 0.42286,-0.23039 0.47484,-0.38631 z m -16.7198,-0.24524 c 0.23811,0.0914 0.34531,0.0477 0.25234,-0.10269 -0.24987,-0.40429 -0.82129,-0.31012 -1.2225,0.20147 -0.32853,0.4189 -0.31933,0.42868 0.0965,0.10269 0.25281,-0.19818 0.64595,-0.28884 0.87364,-0.20147 z m -4.43096,-3.93916 c 0.0689,-0.43455 0.0356,-0.45705 -0.19135,-0.12925 -0.18556,0.26804 -0.27607,0.28951 -0.2788,0.0661 -0.002,-0.19275 -0.34702,-0.33073 -0.82611,-0.33073 -0.61405,0 -0.78435,-0.0983 -0.67302,-0.38841 0.082,-0.21362 0.0352,-0.45877 -0.10398,-0.54478 -0.13917,-0.086 -0.25485,-5.2e-4 -0.25708,0.18997 -0.003,0.25871 -0.0656,0.24913 -0.24713,-0.0379 -0.13369,-0.21133 -0.1927,-0.46573 -0.13115,-0.56533 0.0616,-0.0996 -0.0882,-0.34341 -0.33283,-0.5418 -0.30588,-0.24809 -0.38271,-0.25745 -0.24605,-0.03 0.11794,0.19632 0.0579,0.33561 -0.14765,0.34274 -0.19049,0.007 0.30542,0.60551 1.10201,1.33089 1.49475,1.36113 2.18848,1.55095 2.33314,0.63843 z m 4.50459,-1.6506 c 0.19287,-0.18191 0.27413,-0.33073 0.18058,-0.33073 -0.0935,0 0.0227,-0.19277 0.25828,-0.42838 0.23561,-0.2356 0.34688,-0.50349 0.24726,-0.59531 -0.0996,-0.0918 -0.23426,-0.0181 -0.29923,0.16379 -0.065,0.1819 -0.34357,0.33073 -0.61913,0.33073 -0.57981,0 -1.43801,1.16142 -1.17393,1.58871 0.17741,0.28706 0.51406,0.11258 1.40617,-0.72881 z m 16.74686,-0.4961 c 0.49053,-0.0691 0.52585,-0.10686 0.3564,-0.38104 -0.11453,-0.18531 -0.34068,-0.13113 -0.6604,0.15821 -0.26743,0.24202 -0.60015,0.36963 -0.73939,0.28357 -0.13923,-0.0861 -0.23603,0.14614 -0.21511,0.51598 l 0.038,0.67244 0.49285,-0.60804 c 0.27107,-0.33443 0.59849,-0.62293 0.7276,-0.64112 z m -9.27449,-0.7417 c -0.15921,-0.19183 -0.22419,-0.57223 -0.14442,-0.84534 0.0798,-0.2731 -0.005,-0.20803 -0.18862,0.14461 -0.26274,0.50489 -0.26448,0.66422 -0.008,0.74965 0.17901,0.0597 0.34168,0.42599 0.3615,0.81405 0.0329,0.64426 0.0462,0.65258 0.1526,0.0957 0.0641,-0.33543 -0.0137,-0.76683 -0.17288,-0.95865 z m 5.38096,1.12755 c -0.075,-0.12126 -0.30081,-0.22048 -0.50192,-0.22048 -0.2011,0 -0.44711,-0.13182 -0.54668,-0.29293 -0.12072,-0.19532 -0.001,-0.23582 0.35899,-0.12153 0.30954,0.0982 0.62345,0.0364 0.73547,-0.14483 0.11862,-0.19193 0.0832,-0.24684 -0.0902,-0.13969 -0.1571,0.0971 -0.60253,0.0321 -0.98986,-0.14433 -0.65503,-0.29846 -0.67136,-0.3449 -0.23384,-0.66482 0.5478,-0.40056 0.16404,-0.46411 -0.4245,-0.0703 -0.34729,0.23237 -0.33953,0.30952 0.062,0.61742 0.2524,0.19352 0.38015,0.43061 0.2839,0.52687 -0.21268,0.21268 0.64468,0.8751 1.13264,0.8751 0.19263,0 0.28891,-0.0992 0.21397,-0.22049 z m 3.86371,-1.5434 c 0.15576,-0.29104 0.18859,-0.52917 0.0729,-0.52917 -0.11564,0 -0.35896,0.23813 -0.54072,0.52917 -0.18306,0.29313 -0.2156,0.52917 -0.0729,0.52917 0.14163,0 0.38496,-0.23813 0.54072,-0.52917 z m -8.73125,-1.32375 c 0,-0.12788 -0.12101,-0.30731 -0.2689,-0.39871 -0.1479,-0.0914 -0.21528,-0.25294 -0.14975,-0.35898 0.0655,-0.10603 0.01,-0.36569 -0.12393,-0.57703 -0.21072,-0.3331 -0.2481,-0.33142 -0.28089,0.0126 -0.0208,0.21828 -0.0647,0.64074 -0.0977,0.93879 -0.04,0.36252 0.10255,0.55416 0.43065,0.57887 0.26976,0.0203 0.49048,-0.0677 0.49048,-0.19558 z m -12.57901,-1.34037 c -0.0837,-0.13546 -0.006,-0.2463 0.17207,-0.2463 0.17837,0 0.2478,-0.0765 0.1543,-0.16999 -0.0935,-0.0935 -0.32205,-0.0438 -0.50789,0.11044 -0.2417,0.20059 -0.526,0.17367 -0.99858,-0.0946 l -0.66068,-0.375 0.7233,0.11397 c 0.39781,0.0627 0.7859,0.0127 0.86241,-0.11113 0.18214,-0.2947 -1.1791,-1.36305 -1.49108,-1.17024 -0.13202,0.0816 -0.22299,0.0502 -0.20215,-0.0697 0.0976,-0.56181 -0.06,-0.87956 -0.43635,-0.87956 -0.5296,0 -0.40102,1.51086 0.15872,1.86493 0.21183,0.134 0.26608,0.24917 0.12056,0.25594 -0.14552,0.007 0.20354,0.29991 0.77569,0.65141 0.98098,0.60266 1.66625,0.66443 1.32968,0.11985 z m 3.11735,-0.34797 c 0.25311,-0.19219 0.64007,-0.77989 0.85989,-1.30601 0.46906,-1.12262 0.49412,-1.32775 0.1351,-1.10586 -0.14552,0.0899 -0.26458,0.38612 -0.26458,0.65818 0,0.62253 -0.70132,1.34506 -1.14159,1.17611 -0.1995,-0.0766 -0.33252,0.0867 -0.33252,0.40812 0,0.62167 0.11392,0.64763 0.7437,0.16946 z m 17.1546,-0.60468 0.64143,-0.70636 -0.71929,0.50792 c -0.39561,0.27935 -0.72303,0.59722 -0.7276,0.70636 -0.0136,0.32582 0.13142,0.23434 0.80546,-0.50792 z m 1.30289,-1.65928 c 0,-0.35729 -0.48232,-0.60497 -0.79807,-0.40982 -0.14789,0.0914 -0.20039,0.27702 -0.11667,0.41249 0.19861,0.32136 0.91474,0.31927 0.91474,-0.003 z m -22.225,-3.811589 c -0.3638,-0.191723 -0.71754,-0.302556 -0.78609,-0.246296 -0.18607,0.152721 0.59449,0.59456 1.05067,0.594733 0.21875,8.3e-5 0.1,-0.156303 -0.26458,-0.348437 z m 3.68615,-0.412059 c 0.76556,-1.075129 0.71097,-1.446035 -0.18042,-1.225887 -1.06308,0.262551 -1.31201,0.608249 -0.73945,1.026915 0.33861,0.247596 0.39524,0.415359 0.18422,0.545773 -0.16757,0.103562 -0.30467,0.05518 -0.30467,-0.10752 0,-0.162697 -0.13177,-0.214372 -0.29283,-0.114833 -0.20413,0.126162 -0.1841,0.249875 0.0661,0.408438 0.55012,0.348576 0.67749,0.295008 1.267,-0.532886 z"
       id="path11418" />
    <path
       style="fill:#635831"
       d="m 178.75509,96.689822 c 0.0712,-0.855977 0.24736,-1.748945 0.39134,-1.984375 0.20267,-0.331374 0.22817,-0.27784 0.11289,0.237019 -0.0819,0.365791 -0.25801,1.258759 -0.39135,1.984375 l -0.24243,1.319301 z"
       id="path11287" />
    <path
       style="fill:#635831"
       d="m 181.25304,97.999961 c 0,-0.208161 -0.26789,-0.430071 -0.59531,-0.493136 -0.51042,-0.09831 -0.49155,-0.1198 0.13229,-0.150693 0.56323,-0.02789 0.72761,0.08352 0.72761,0.493135 0,0.291042 -0.0595,0.529167 -0.13229,0.529167 -0.0728,0 -0.1323,-0.170313 -0.1323,-0.378473 z"
       id="path11286" />
    <path
       style="fill:#635831"
       d="m 180.32921,99.479832 c 0.91807,-0.972694 1.04813,-1.034282 0.6625,-0.313712 -0.15398,0.287706 -0.54374,0.664273 -0.86614,0.83682 -0.47202,0.25261 -0.43236,0.15074 0.20364,-0.523108 z"
       id="path11285" />
    <path
       style="fill:#635831"
       d="m 176.30515,99.635204 c -1.04752,-1.150076 -1.4387,-2.315104 -0.77734,-2.315104 0.23428,0 0.31909,0.214995 0.24261,0.615046 -0.0773,0.404363 0.1246,0.902842 0.58938,1.455208 0.80624,0.958156 0.76467,1.144386 -0.0547,0.24485 z"
       id="path11284" />
    <path
       style="fill:#635831"
       d="m 196.11419,99.253944 c -0.045,-1.658374 0.25991,-2.269448 0.83847,-1.680225 0.23475,0.23908 0.21361,0.293189 -0.0892,0.228301 -0.30567,-0.0655 -0.43226,0.279783 -0.55083,1.502455 l -0.15396,1.587505 z"
       id="path11283" />
    <path
       style="fill:#635831"
       d="m 196.78937,102.00658 c -0.0719,-0.18733 0.0275,-0.69335 0.22078,-1.12448 l 0.35147,-0.78387 -0.0506,1.12409 c -0.0501,1.11299 -0.26912,1.44223 -0.52161,0.78426 z"
       id="path11282" />
    <path
       style="fill:#635831"
       d="m 198.3353,102.43459 c 0.59678,-0.43637 0.77215,-0.43971 1.11785,-0.0213 0.20924,0.25327 0.054,0.33571 -0.663,0.35199 -0.84202,0.0191 -0.88779,-0.0142 -0.45485,-0.33073 z"
       id="path11281" />
    <path
       style="fill:#635831"
       d="m 196.33429,103.00864 c -0.50932,-0.19614 -0.77721,-0.36567 -0.59531,-0.37674 0.1819,-0.0111 0.33073,-0.26529 0.33073,-0.56491 0,-0.32492 0.11608,-0.47304 0.28763,-0.36702 0.1582,0.0978 0.22642,0.41186 0.1516,0.69797 -0.0944,0.36101 -0.0272,0.47844 0.21964,0.38372 0.19562,-0.0751 0.42132,0.0346 0.50155,0.24369 0.0802,0.20909 0.11986,0.37111 0.0881,0.36004 -0.0318,-0.0111 -0.47456,-0.18061 -0.98389,-0.37675 z"
       id="path11280" />
    <path
       style="fill:#635831"
       d="m 176.22596,103.10594 c -0.3638,-0.14633 -0.98259,-0.21986 -1.37509,-0.16339 -0.39249,0.0565 -0.65336,0.005 -0.5797,-0.11404 0.23269,-0.37649 2.13659,-0.2384 2.48396,0.18016 0.37692,0.45416 0.364,0.45654 -0.52917,0.0973 z"
       id="path11279" />
    <path
       style="fill:#635831"
       d="m 178.5623,103.20711 c -0.0587,-0.25466 -0.0287,-0.87974 0.0666,-1.38906 0.15583,-0.83303 0.17673,-0.78653 0.20806,0.46302 0.0351,1.40005 -0.0778,1.78079 -0.27466,0.92604 z"
       id="path11278" />
    <path
       style="fill:#635831"
       d="m 178.4858,104.18169 c 0.0959,-0.1552 0.24352,-0.21306 0.328,-0.12858 0.0845,0.0845 0.51449,-0.17549 0.95559,-0.57771 0.45229,-0.41243 0.63334,-0.50057 0.41522,-0.20215 -0.21273,0.29105 -0.56537,0.67421 -0.78365,0.85149 -0.49174,0.39935 -1.15218,0.44046 -0.91516,0.057 z"
       id="path11277" />
    <path
       style="fill:#635831"
       d="m 194.12312,103.88255 c -0.50285,-0.64253 -0.60065,-0.9606 -0.40674,-1.32292 0.27424,-0.51242 0.90132,-0.63534 1.15416,-0.22625 0.0852,0.13792 -0.0863,0.20428 -0.38126,0.14749 -0.71708,-0.1381 -0.71106,0.63106 0.0121,1.55045 0.30161,0.38343 0.48883,0.69714 0.41606,0.69714 -0.0728,0 -0.43024,-0.38066 -0.79435,-0.84591 z"
       id="path11276" />
    <path
       style="fill:#635831"
       d="m 197.86403,105.10358 c 0.1614,-0.30301 0.49804,-0.71973 0.74809,-0.92604 0.41369,-0.34133 0.42821,-0.3255 0.16119,0.17581 -0.1614,0.30301 -0.49805,0.71973 -0.7481,0.92604 -0.41369,0.34133 -0.4282,0.3255 -0.16118,-0.17581 z"
       id="path11274" />
    <path
       style="fill:#635831"
       d="m 176.15982,106.03337 c -0.54571,-0.28809 -0.99219,-0.64171 -0.99219,-0.78582 0,-0.1441 0.47625,0.0532 1.05833,0.43836 0.58208,0.3852 1.05833,0.74408 1.05833,0.7975 0,0.13965 -0.0308,0.12731 -1.12447,-0.45004 z"
       id="path11273" />
    <path
       style="fill:#635831"
       d="m 190.09913,106.44825 c -0.21733,-1.15846 -0.55442,-1.18388 -0.87716,-0.0661 -0.21702,0.75163 -0.25023,0.77661 -0.26373,0.19844 -0.0211,-0.9048 0.59531,-1.71312 0.96067,-1.25971 0.30631,0.38013 0.70989,2.05346 0.49527,2.05346 -0.0777,0 -0.2195,-0.41672 -0.31505,-0.92605 z"
       id="path11272" />
    <path
       style="fill:#635831"
       d="m 196.60293,108.23419 c 0.002,-0.5457 0.13077,-1.17078 0.28566,-1.38906 0.21133,-0.29783 0.25043,-0.12236 0.1567,0.70314 -0.0699,0.61551 0.002,1.22734 0.16413,1.38907 0.209,0.209 0.16448,0.28904 -0.16075,0.28904 -0.34409,0 -0.44884,-0.23316 -0.44574,-0.99219 z"
       id="path11271" />
    <path
       style="fill:#635831"
       d="m 199.65565,109.02794 c 0.20875,-0.40018 0.38028,-0.87568 0.38118,-1.05667 0.003,-0.57827 -1.11839,-0.18553 -1.76017,0.61653 -0.33925,0.42398 -0.61741,0.64432 -0.61814,0.48964 -0.002,-0.34954 1.29929,-1.57147 1.89502,-1.77994 0.26696,-0.0934 0.50485,0.0117 0.60251,0.26618 0.18851,0.49124 -0.31704,2.19187 -0.65158,2.19187 -0.12561,0 -0.0576,-0.32743 0.15118,-0.72761 z"
       id="path11270" />
    <path
       style="fill:#635831"
       d="m 178.42335,108.49878 c 0.0469,-1.38458 0.12762,-1.57488 0.89743,-2.11667 0.46522,-0.32742 0.96955,-0.59531 1.12072,-0.59531 0.43382,0 1.66199,-2.02781 1.55126,-2.56125 -0.068,-0.32746 -0.30805,-0.46465 -0.75056,-0.4289 l -0.65061,0.0526 0.62557,-0.30493 c 0.52475,-0.25579 0.68391,-0.22514 0.98758,0.19015 0.3142,0.42969 0.28399,0.63642 -0.22869,1.56505 -0.5216,0.94477 -0.95286,1.33497 -2.66735,2.41336 -0.29292,0.18424 -0.43686,0.72653 -0.47405,1.78594 -0.0294,0.83674 -0.14554,1.52135 -0.25814,1.52135 -0.1126,0 -0.18153,-0.68461 -0.15316,-1.52135 z"
       id="path11269" />
    <path
       style="fill:#635831"
       d="m 177.88552,108.9618 c 0,-0.65485 0.0516,-0.92274 0.11467,-0.59532 0.0631,0.32743 0.0631,0.86321 0,1.19063 -0.0631,0.32742 -0.11467,0.0595 -0.11467,-0.59531 z"
       id="path11268" />
    <path
       style="fill:#635831"
       d="m 175.96138,109.22638 c -1.05189,-0.90021 -1.70385,-1.00311 -2.09548,-0.33073 -0.25128,0.43143 -0.27023,0.43207 -0.27773,0.009 -0.0219,-1.23504 1.76794,-0.96562 3.11152,0.46837 0.84412,0.90092 0.37763,0.80808 -0.73831,-0.14695 z"
       id="path11267" />
    <path
       style="fill:#635831"
       d="m 189.91482,111.14465 c -0.0554,-0.10914 -0.017,-0.55563 0.0854,-0.99219 0.18295,-0.7804 0.18661,-0.77707 0.21738,0.19844 0.0297,0.94209 -0.0806,1.23142 -0.30275,0.79375 z"
       id="path11265" />
    <path
       style="fill:#635831"
       d="m 195.54054,111.21075 c -0.18115,-0.21828 -0.47003,-0.39687 -0.64195,-0.39687 -0.17192,0 -0.70817,-0.40816 -1.19169,-0.90701 -0.69945,-0.72166 -0.8442,-1.04608 -0.70832,-1.5875 0.11386,-0.45364 0.35132,-0.68049 0.71232,-0.68049 0.68459,0 1.56506,0.46242 1.56506,0.82196 0,0.15079 -0.19343,0.0807 -0.42985,-0.15568 -0.57003,-0.57003 -1.53575,-0.41542 -1.62256,0.25976 -0.065,0.50558 0.11166,0.69815 2.1847,2.38146 0.43656,0.35449 0.71903,0.64829 0.62771,0.65289 -0.0913,0.005 -0.31426,-0.17023 -0.49542,-0.38852 z"
       id="path11264" />
    <path
       style="fill:#635831"
       d="m 192.11088,112.70376 c 0.38041,-0.78128 -0.10992,-1.48837 -0.57506,-0.82928 -0.23599,0.33439 -0.25678,0.32656 -0.13614,-0.0513 0.0783,-0.24526 5.6e-4,-0.4932 -0.17277,-0.55098 -0.17756,-0.0592 -0.0457,-0.24929 0.3021,-0.4354 0.72459,-0.38779 0.715,-0.39481 0.91769,0.6721 0.10312,0.54286 0.0202,0.99769 -0.24118,1.32291 -0.37131,0.462 -0.37773,0.45331 -0.0946,-0.12809 z"
       id="path11261" />
    <path
       style="fill:#635831"
       d="m 196.76158,112.99671 c 0.16806,-1.52799 0.48877,-2.01354 1.82167,-2.758 0.52056,-0.29075 0.52107,-0.28644 0.0312,0.26535 -0.27385,0.3085 -0.72033,0.63151 -0.99218,0.71779 -0.40947,0.12996 -0.49428,0.42619 -0.49428,1.72655 0,0.87912 -0.11741,1.56967 -0.26689,1.56967 -0.16793,0 -0.20485,-0.56414 -0.0996,-1.52136 z"
       id="path11258" />
    <path
       style="fill:#635831"
       d="m 194.0602,116.0646 -0.50403,-0.57013 0.7276,0.46827 c 0.75025,0.48283 0.89212,0.67198 0.50403,0.67198 -0.12297,0 -0.45039,-0.25655 -0.7276,-0.57012 z"
       id="path11255" />
    <path
       style="fill:#635831"
       d="m 188.89574,115.90712 c -0.11757,-0.70841 -0.0576,-0.8599 0.34063,-0.8599 0.26584,0 0.48334,0.11907 0.48334,0.26459 0,0.14552 -0.11078,0.26458 -0.24618,0.26458 -0.1354,0 -0.28868,0.26789 -0.34063,0.59531 -0.0756,0.4767 -0.12288,0.42398 -0.23716,-0.26458 z"
       id="path11254" />
    <path
       style="fill:#635831"
       d="m 173.66053,115.97552 c 0.0349,-0.53155 0.21083,-0.82165 0.53584,-0.88333 0.70115,-0.13306 1.76501,0.18135 1.76501,0.52163 0,0.20116 -0.11887,0.19328 -0.38231,-0.0254 -0.60726,-0.50398 -1.5558,-0.22773 -1.77541,0.51708 -0.18175,0.61643 -0.1915,0.60758 -0.14313,-0.13003 z"
       id="path11253" />
    <path
       style="fill:#635831"
       d="m 182.62093,116.63471 c 0.004,-0.21828 0.1031,-0.69453 0.21961,-1.05833 0.1703,-0.53174 0.21337,-0.55769 0.21962,-0.13229 0.004,0.29104 -0.0945,0.76729 -0.21962,1.05833 -0.13931,0.3242 -0.22437,0.37544 -0.21961,0.13229 z"
       id="path11252" />
    <path
       style="fill:#635831"
       d="m 177.85433,115.57638 c -0.0716,-2.16546 -0.20167,-2.41447 -1.89456,-3.62605 -0.85495,-0.61188 -1.69908,-1.38274 -1.87585,-1.71303 -0.18064,-0.33752 0.41159,0.0628 1.35229,0.91407 0.92052,0.83303 1.75876,1.51459 1.86274,1.51459 0.55585,0 0.90327,1.2743 0.75743,2.77813 l -0.15396,1.5875 z"
       id="path11251" />
    <path
       style="fill:#635831"
       d="m 179.54725,116.82595 c 0.23136,-0.60294 1.84039,-1.78078 2.41575,-1.76838 0.31725,0.007 0.21081,0.12929 -0.31308,0.36019 -0.43656,0.1924 -1.12522,0.68427 -1.53035,1.09304 -0.40512,0.40877 -0.66267,0.55059 -0.57232,0.31515 z"
       id="path11250" />
    <path
       style="fill:#635831"
       d="m 198.51711,116.31362 c 1.20958,-1.17185 1.52135,-1.64241 1.52135,-2.29619 0,-1.10862 -0.41377,-1.03985 -1.81815,0.30218 -1.05495,1.00812 -1.11608,1.03599 -0.59069,0.26934 0.69427,-1.01311 1.55152,-1.6584 2.20313,-1.6584 0.35056,0 0.47029,0.21096 0.47029,0.82866 0,1.13412 -0.83766,2.39462 -2.18255,3.28428 -1.07463,0.71087 -1.05695,0.67836 0.39662,-0.72987 z"
       id="path11249" />
    <path
       style="fill:#635831"
       d="m 178.47492,115.45658 v -2.18688 l 0.90988,-0.6326 c 1.23639,-0.8596 3.72033,-3.26599 3.72033,-3.60418 0,-0.80791 -2.38141,-0.35606 -2.73333,0.51862 -0.10837,0.26934 -0.13947,0.26967 -0.1562,0.002 -0.0213,-0.34044 1.46848,-1.38238 1.97906,-1.38418 0.15409,-5.5e-4 0.4955,0.15646 0.75869,0.34891 0.44689,0.32678 0.4505,0.40411 0.0546,1.16971 -0.23316,0.45089 -1.25918,1.4409 -2.28004,2.20002 l -1.85611,1.38021 -0.004,1.88185 c -0.002,1.03502 -0.0915,2.01952 -0.19843,2.18778 -0.10692,0.16826 -0.19439,-0.67816 -0.19439,-1.88094 z"
       id="path11248" />
    <path
       style="fill:#635831"
       d="m 189.48165,117.90806 c 0.14439,-0.26979 0.19555,-0.59891 0.11369,-0.73137 -0.0819,-0.13245 -0.0313,-0.31349 0.11241,-0.40229 0.15435,-0.0954 0.24752,0.20385 0.22768,0.73137 -0.0201,0.53538 -0.17023,0.89283 -0.37493,0.89283 -0.25042,0 -0.27143,-0.13069 -0.0788,-0.49054 z"
       id="path11247" />
    <path
       style="fill:#635831"
       d="m 196.06971,118.30919 c 0,-0.2432 -0.20836,-0.67724 -0.46302,-0.96454 -0.4493,-0.50687 -0.44538,-0.51309 0.13229,-0.20996 0.37185,0.19513 0.59531,0.55719 0.59531,0.96454 0,0.35868 -0.0595,0.65215 -0.13229,0.65215 -0.0728,0 -0.13229,-0.19899 -0.13229,-0.44219 z"
       id="path11246" />
    <path
       style="fill:#635831"
       d="m 190.25963,118.67641 c -0.0122,-0.23518 1.74009,-2.0417 1.98042,-2.0417 0.0862,0 0.0915,0.10553 0.0118,0.23451 -0.0797,0.12897 0.11642,0.30284 0.43585,0.38638 0.31943,0.0835 0.50689,0.22577 0.41656,0.3161 -0.0903,0.0903 -0.4247,0.0248 -0.74307,-0.14558 -0.51047,-0.27319 -0.66818,-0.20539 -1.33483,0.57388 -0.41578,0.48602 -0.76081,0.79041 -0.76672,0.67641 z"
       id="path11245" />
    <path
       style="fill:#635831"
       d="m 186.28008,118.28836 c -0.0436,-0.32742 -0.0912,-0.73228 -0.10579,-0.89968 -0.0452,-0.51993 1.01587,-0.49443 1.90415,0.0458 0.46613,0.28348 0.84373,0.66599 0.83911,0.85003 -0.005,0.19309 -0.17271,0.1174 -0.39688,-0.17897 -0.21365,-0.28248 -0.38846,-0.4228 -0.38846,-0.31183 0,0.11096 -0.18204,0.0197 -0.40453,-0.20277 -0.54532,-0.54533 -1.12826,-0.27354 -1.2602,0.58756 -0.097,0.63282 -0.11621,0.6441 -0.1874,0.1099 z"
       id="path11244" />
    <path
       style="fill:#635831"
       d="m 180.0376,119.50496 c -0.10562,-0.17089 -0.0743,-0.23515 0.0709,-0.14543 0.14305,0.0884 0.64504,-0.19084 1.11554,-0.62057 1.05555,-0.9641 1.40934,-1.02693 0.53818,-0.0956 -0.87712,0.93773 -1.4887,1.24326 -1.72459,0.86158 z"
       id="path11242" />
    <path
       style="fill:#635831"
       d="m 175.02289,118.70817 -1.04589,-1.10154 1.25677,1.02528 c 0.69123,0.5639 1.25677,1.05959 1.25677,1.10154 0,0.31394 -0.58239,-0.0929 -1.46765,-1.02528 z"
       id="path11241" />
    <path
       style="fill:#635831"
       d="m 187.33846,119.942 c -0.18373,-0.22138 -0.21238,-0.39687 -0.0648,-0.39687 0.14552,0 0.4128,0.17859 0.59396,0.39687 0.18373,0.22139 0.21238,0.39688 0.0648,0.39688 -0.14552,0 -0.4128,-0.17859 -0.59396,-0.39688 z"
       id="path11240" />
    <path
       style="fill:#635831"
       d="m 189.98429,121.0355 c 0,-0.0534 0.4809,-0.41538 1.06867,-0.80434 0.58776,-0.38897 1.30169,-1.0894 1.58651,-1.55652 0.32283,-0.52947 0.51822,-0.68266 0.51883,-0.4068 5.5e-4,0.24338 -0.62204,0.98752 -1.38352,1.65365 -1.22528,1.07183 -1.79049,1.4235 -1.79049,1.11401 z"
       id="path11239" />
    <path
       style="fill:#635831"
       d="m 196.93913,121.5294 c 0.002,-0.7276 0.0534,-0.99385 0.11419,-0.59167 0.0608,0.40218 0.0592,0.9975 -0.004,1.32292 -0.0628,0.32542 -0.11256,-0.004 -0.11058,-0.73125 z"
       id="path11235" />
    <path
       style="fill:#635831"
       d="m 191.42393,123.1315 c 0.54368,-0.43558 1.99995,-0.56925 1.99995,-0.18358 0,0.12534 -0.28432,0.17354 -0.63181,0.10712 -0.3475,-0.0664 -0.91304,0.0162 -1.25677,0.18357 -0.59444,0.28949 -0.59988,0.28426 -0.11137,-0.10711 z"
       id="path11234" />
    <path
       style="fill:#635831"
       d="m 189.78643,122.85232 c 0.003,-0.58208 0.0571,-0.78905 0.12041,-0.45994 0.0633,0.32912 0.0609,0.80537 -0.005,1.05834 -0.0662,0.25296 -0.118,-0.0163 -0.11507,-0.5984 z"
       id="path11233" />
    <path
       style="fill:#635831"
       d="m 176.24692,125.06111 c -0.78884,-0.55996 -1.31272,-1.01811 -1.16418,-1.01811 0.14854,0 0.76316,0.35718 1.36582,0.79375 0.60265,0.43656 1.17361,0.79375 1.26879,0.79375 0.0952,0 0.11519,-1.2204 0.0444,-2.71198 -0.0707,-1.49159 -0.0426,-2.3548 0.0625,-1.91823 0.25986,1.07919 0.30166,4.83755 0.0553,4.97125 -0.10914,0.0592 -0.84385,-0.35047 -1.63269,-0.91043 z"
       id="path11228" />
    <path
       style="fill:#635831"
       d="m 172.66088,125.37905 c -0.69871,-1.35116 -0.55866,-1.60634 0.8531,-1.55441 l 1.25677,0.0462 -1.12448,0.10128 c -0.61846,0.0557 -1.12448,0.15779 -1.12448,0.22686 0,0.0691 0.17252,0.53847 0.38338,1.04312 0.46811,1.12035 0.31007,1.20894 -0.24429,0.13693 z"
       id="path11227" />
    <path
       style="fill:#635831"
       d="m 195.1445,125.99707 c 0.0641,-0.27435 0.23243,-0.97507 0.37409,-1.55715 0.14166,-0.58208 0.32992,-1.47143 0.41835,-1.97634 0.0884,-0.5049 0.21402,-0.97123 0.27907,-1.03628 0.25879,-0.25879 0.0893,1.24167 -0.2955,2.61575 -0.22412,0.80036 -0.43754,1.60059 -0.47427,1.77827 -0.0367,0.17769 -0.14586,0.40216 -0.24252,0.49883 -0.0967,0.0967 -0.12331,-0.0487 -0.0592,-0.32308 z"
       id="path11225" />
    <path
       style="fill:#635831"
       d="m 187.6794,126.1194 c -1.66263,-1.02855 -2.56039,-3.64668 -1.33044,-3.87995 0.46578,-0.0883 2.44354,0.96691 2.22388,1.18658 -0.064,0.064 -0.51675,-0.12773 -1.0061,-0.42607 -0.99691,-0.60778 -1.41119,-0.69545 -1.12906,-0.23895 0.11697,0.18926 0.0726,0.23364 -0.11667,0.11668 -0.20125,-0.12438 -0.30547,0.0481 -0.30547,0.50546 0,0.48612 0.40189,1.0857 1.34056,1.99999 0.7373,0.71816 1.30285,1.29587 1.25677,1.28382 -0.0461,-0.0121 -0.46614,-0.25846 -0.93347,-0.54756 z"
       id="path11224" />
    <path
       style="fill:#635831"
       d="m 190.0022,127.59934 c -0.0253,-0.39653 0.52055,-1.00353 1.38379,-1.53866 0.40713,-0.25239 0.97223,-0.83937 1.25578,-1.30441 0.28355,-0.46503 0.51599,-0.70083 0.51653,-0.52399 0.001,0.4508 -1.52102,2.13557 -2.09413,2.31747 -0.26127,0.0829 -0.60307,0.41604 -0.75955,0.74026 -0.15648,0.32422 -0.29257,0.46342 -0.30242,0.30933 z"
       id="path11222" />
    <path
       style="fill:#635831"
       d="m 178.60721,125.93394 c 0,-1.14282 -0.0765,-2.80969 -0.16998,-3.70417 -0.10837,-1.03677 -0.0725,-1.62631 0.0989,-1.62631 0.16731,0 0.28512,1.39948 0.31181,3.70417 0.0236,2.03729 -0.0209,3.70417 -0.0989,3.70417 -0.078,0 -0.14183,-0.93504 -0.14183,-2.07786 z"
       id="path11221" />
    <path
       style="fill:#635831"
       d="m 174.09807,127.42868 -0.86877,-1.13668 1.02208,0.98337 c 0.56215,0.54085 0.95309,1.05236 0.86877,1.13668 -0.0843,0.0843 -0.54426,-0.35819 -1.02208,-0.98337 z"
       id="path11219" />
    <path
       style="fill:#635831"
       d="m 199.33282,128.53117 c 1.75867,-1.65417 3.37046,-4.02817 2.9919,-4.40673 -0.28416,-0.28416 -3.20558,0.29216 -4.30663,0.84958 -0.93845,0.47511 -1.09887,0.50428 -0.76907,0.13986 0.69943,-0.77286 5.26385,-1.82684 5.5945,-1.29183 0.29508,0.47745 -1.43927,3.0725 -3.19345,4.77828 -1.01397,0.98599 -1.94555,1.79272 -2.07016,1.79272 -0.12462,0 0.66419,-0.83785 1.75291,-1.86188 z"
       id="path11216" />
    <path
       style="fill:#635831"
       d="m 197.83062,131.17555 c 0.40476,-0.40928 3.70731,-0.75982 5.01167,-0.53195 0.76322,0.13333 0.40842,0.18948 -1.35992,0.2152 -1.3159,0.0191 -2.74465,0.16779 -3.175,0.33034 -0.59665,0.22535 -0.70986,0.22213 -0.47675,-0.0136 z"
       id="path11211" />
    <path
       style="fill:#635831"
       d="m 187.44059,130.86938 c -0.41997,-0.61114 -1.28459,-1.67971 -1.92136,-2.37461 -0.63678,-0.69489 -1.42821,-1.84716 -1.75874,-2.56058 -1.12118,-2.41994 -2.28733,-2.36796 -3.18245,0.14186 -0.20797,0.58315 -0.36317,0.78616 -0.36736,0.48054 -0.004,-0.29104 0.26161,-1.00542 0.59024,-1.5875 0.45905,-0.81311 0.7799,-1.07629 1.38471,-1.13582 0.71974,-0.0708 0.86483,0.0652 1.69293,1.5875 0.49814,0.91574 1.51017,2.40033 2.24895,3.29909 1.28414,1.56221 2.42383,3.26069 2.18793,3.26069 -0.0612,0 -0.45488,-0.50003 -0.87485,-1.11117 z"
       id="path11208" />
    <path
       style="fill:#635831"
       d="m 189.09382,131.49861 c -0.12002,-0.48334 -0.14735,-0.94967 -0.0607,-1.03628 0.29904,-0.29903 0.45908,0.14739 0.36918,1.02977 l -0.0902,0.88533 z"
       id="path11205" />
    <path
       style="fill:#635831"
       d="m 178.61545,131.59701 c -0.31024,-0.50199 -0.96141,-1.15827 -1.44704,-1.45841 -0.48563,-0.30013 -1.04517,-0.74235 -1.24343,-0.98269 -0.328,-0.39763 -0.30341,-0.40658 0.27301,-0.0994 0.9859,0.52547 2.86529,2.35133 3.01686,2.93092 0.19575,0.74855 0.0431,0.6491 -0.5994,-0.39046 z"
       id="path11204" />
    <path
       style="fill:#635831"
       d="m 191.05214,132.70247 c -0.005,-0.11227 0.5623,-0.9457 1.26118,-1.85208 1.51866,-1.96955 2.26028,-3.10888 2.33713,-3.59044 0.0311,-0.19524 0.13234,-0.43068 0.22487,-0.52321 0.0925,-0.0925 0.10847,0.16133 0.0354,0.56413 -0.16555,0.91296 -3.8288,6.04108 -3.85861,5.4016 z"
       id="path11201" />
    <path
       style="fill:#635831"
       d="m 189.67928,131.57137 c 0.0515,-0.64808 0.20618,-1.17832 0.34364,-1.17832 0.14378,0 0.17502,0.42142 0.0736,0.99218 -0.2561,1.44072 -0.52658,1.56139 -0.4172,0.18614 z"
       id="path11200" />
    <path
       style="fill:#635831"
       d="m 194.6145,137.80443 c 1.30969,-0.12188 2.84384,-0.41888 3.40922,-0.65999 1.6464,-0.70215 4.22926,-2.42705 5.0448,-3.36904 0.4137,-0.47785 1.00251,-1.14631 1.30846,-1.48546 0.5552,-0.61545 0.55525,-0.61742 0.0271,-1.02778 -0.46231,-0.35921 -0.46794,-0.38994 -0.0445,-0.24326 0.26656,0.0923 0.53445,0.16789 0.59531,0.16789 0.0609,0 0.11065,0.17818 0.11065,0.39595 0,0.21778 -0.77768,1.21673 -1.72818,2.21989 -1.31056,1.38317 -2.27073,2.09902 -3.97341,2.96236 -2.11151,1.07063 -2.39072,1.14209 -4.68796,1.19973 l -2.44274,0.0613 z"
       id="path11186" />
    <path
       style="fill:#635831"
       d="m 185.9494,137.86953 c 1.05502,-0.0502 2.78143,-0.0502 3.83646,0 1.05502,0.0502 0.19182,0.0913 -1.91823,0.0913 -2.11005,0 -2.97326,-0.0411 -1.91823,-0.0913 z"
       id="path11185" />
    <path
       style="fill:#635831"
       d="m 179.74135,137.87017 c 0.84206,-0.0527 2.15175,-0.0522 2.91042,0.001 0.75867,0.0533 0.0697,0.0964 -1.53102,0.0958 -1.60073,-6e-4 -2.22146,-0.0442 -1.3794,-0.0968 z"
       id="path11184" />
    <path
       style="fill:#635831"
       d="m 176.45947,137.56207 c -2.20276,-0.70465 -4.11268,-1.90216 -6.17159,-3.86955 -2.17842,-2.08158 -2.14338,-2.45805 0.27598,-2.96529 3.02698,-0.63464 6.4839,0.42146 7.78666,2.37883 l 0.57163,0.85888 -0.75278,-0.83519 c -1.28611,-1.42691 -3.12405,-2.20752 -5.19758,-2.20752 -1.85884,0 -4.15416,0.43822 -4.15416,0.79311 0,0.42503 3.69322,3.6591 5.05352,4.42525 0.78582,0.44259 2.05385,0.96031 2.81783,1.15049 0.76399,0.19018 1.38906,0.44233 1.38906,0.56034 0,0.11801 -0.0298,0.20816 -0.0661,0.20033 -0.0364,-0.008 -0.73497,-0.22818 -1.55243,-0.48968 z"
       id="path11183" />
    <path
       style="fill:#336c31"
       d="m 178.63852,97.298052 c 0.0172,-0.497197 0.12826,-1.261181 0.24678,-1.697743 0.14169,-0.521948 0.16493,-0.250145 0.0679,0.79375 -0.16269,1.749635 -0.36395,2.327868 -0.31464,0.903993 z"
       id="path10973" />
    <path
       style="fill:#336c31"
       d="m 181.25304,97.999961 c 0,-0.208161 -0.26789,-0.430071 -0.59531,-0.493136 -0.51042,-0.09831 -0.49155,-0.1198 0.13229,-0.150693 0.56323,-0.02789 0.72761,0.08352 0.72761,0.493135 0,0.291042 -0.0595,0.529167 -0.13229,0.529167 -0.0728,0 -0.1323,-0.170313 -0.1323,-0.378473 z"
       id="path10972" />
    <path
       style="fill:#336c31"
       d="m 180.32921,99.479832 c 0.91807,-0.972694 1.04813,-1.034282 0.6625,-0.313712 -0.15398,0.287706 -0.54374,0.664273 -0.86614,0.83682 -0.47202,0.25261 -0.43236,0.15074 0.20364,-0.523108 z"
       id="path10971" />
    <path
       style="fill:#336c31"
       d="m 176.30515,99.635204 c -1.04752,-1.150076 -1.4387,-2.315104 -0.77734,-2.315104 0.23428,0 0.31909,0.214995 0.24261,0.615046 -0.0773,0.404363 0.1246,0.902842 0.58938,1.455208 0.80624,0.958156 0.76467,1.144386 -0.0547,0.24485 z"
       id="path10970" />
    <path
       style="fill:#336c31"
       d="m 196.11419,99.253944 c -0.045,-1.658374 0.25991,-2.269448 0.83847,-1.680225 0.23475,0.23908 0.21361,0.293189 -0.0892,0.228301 -0.30567,-0.0655 -0.43226,0.279783 -0.55083,1.502455 l -0.15396,1.587505 z"
       id="path10969" />
    <path
       style="fill:#336c31"
       d="m 196.78937,102.00658 c -0.0719,-0.18733 0.0275,-0.69335 0.22078,-1.12448 l 0.35147,-0.78387 -0.0506,1.12409 c -0.0501,1.11299 -0.26912,1.44223 -0.52161,0.78426 z"
       id="path10968" />
    <path
       style="fill:#336c31"
       d="m 198.3353,102.43459 c 0.59678,-0.43637 0.77215,-0.43971 1.11785,-0.0213 0.20924,0.25327 0.054,0.33571 -0.663,0.35199 -0.84202,0.0191 -0.88779,-0.0142 -0.45485,-0.33073 z"
       id="path10967" />
    <path
       style="fill:#336c31"
       d="m 196.33429,103.00864 c -0.50932,-0.19614 -0.77721,-0.36567 -0.59531,-0.37674 0.1819,-0.0111 0.33073,-0.26529 0.33073,-0.56491 0,-0.32492 0.11608,-0.47304 0.28763,-0.36702 0.1582,0.0978 0.22642,0.41186 0.1516,0.69797 -0.0944,0.36101 -0.0272,0.47844 0.21964,0.38372 0.19562,-0.0751 0.42132,0.0346 0.50155,0.24369 0.0802,0.20909 0.11986,0.37111 0.0881,0.36004 -0.0318,-0.0111 -0.47456,-0.18061 -0.98389,-0.37675 z"
       id="path10966" />
    <path
       style="fill:#336c31"
       d="m 176.22596,103.10594 c -0.3638,-0.14633 -0.98259,-0.21986 -1.37509,-0.16339 -0.39249,0.0565 -0.65336,0.005 -0.5797,-0.11404 0.23269,-0.37649 2.13659,-0.2384 2.48396,0.18016 0.37692,0.45416 0.364,0.45654 -0.52917,0.0973 z"
       id="path10965" />
    <path
       style="fill:#336c31"
       d="m 178.5623,103.20711 c -0.0587,-0.25466 -0.0287,-0.87974 0.0666,-1.38906 0.15583,-0.83303 0.17673,-0.78653 0.20806,0.46302 0.0351,1.40005 -0.0778,1.78079 -0.27466,0.92604 z"
       id="path10964" />
    <path
       style="fill:#336c31"
       d="m 178.4858,104.18169 c 0.0959,-0.1552 0.24352,-0.21306 0.328,-0.12858 0.0845,0.0845 0.51449,-0.17549 0.95559,-0.57771 0.45229,-0.41243 0.63334,-0.50057 0.41522,-0.20215 -0.21273,0.29105 -0.56537,0.67421 -0.78365,0.85149 -0.49174,0.39935 -1.15218,0.44046 -0.91516,0.057 z"
       id="path10963" />
    <path
       style="fill:#336c31"
       d="m 194.12312,103.88255 c -0.50285,-0.64253 -0.60065,-0.9606 -0.40674,-1.32292 0.27424,-0.51242 0.90132,-0.63534 1.15416,-0.22625 0.0852,0.13792 -0.0863,0.20428 -0.38126,0.14749 -0.71708,-0.1381 -0.71106,0.63106 0.0121,1.55045 0.30161,0.38343 0.48883,0.69714 0.41606,0.69714 -0.0728,0 -0.43024,-0.38066 -0.79435,-0.84591 z"
       id="path10962" />
    <path
       style="fill:#336c31"
       d="m 197.86403,105.10358 c 0.1614,-0.30301 0.49804,-0.71973 0.74809,-0.92604 0.41369,-0.34133 0.42821,-0.3255 0.16119,0.17581 -0.1614,0.30301 -0.49805,0.71973 -0.7481,0.92604 -0.41369,0.34133 -0.4282,0.3255 -0.16118,-0.17581 z"
       id="path10961" />
    <path
       style="fill:#336c31"
       d="m 176.15982,106.03337 c -0.54571,-0.28809 -0.99219,-0.64171 -0.99219,-0.78582 0,-0.1441 0.47625,0.0532 1.05833,0.43836 0.58208,0.3852 1.05833,0.74408 1.05833,0.7975 0,0.13965 -0.0308,0.12731 -1.12447,-0.45004 z"
       id="path10960" />
    <path
       style="fill:#336c31"
       d="m 190.09913,106.44825 c -0.21733,-1.15846 -0.55442,-1.18388 -0.87716,-0.0661 -0.21702,0.75163 -0.25023,0.77661 -0.26373,0.19844 -0.0211,-0.9048 0.59531,-1.71312 0.96067,-1.25971 0.30631,0.38013 0.70989,2.05346 0.49527,2.05346 -0.0777,0 -0.2195,-0.41672 -0.31505,-0.92605 z"
       id="path10959" />
    <path
       style="fill:#336c31"
       d="m 196.60293,108.23419 c 0.002,-0.5457 0.13077,-1.17078 0.28566,-1.38906 0.21133,-0.29783 0.25043,-0.12236 0.1567,0.70314 -0.0699,0.61551 0.002,1.22734 0.16413,1.38907 0.209,0.209 0.16448,0.28904 -0.16075,0.28904 -0.34409,0 -0.44884,-0.23316 -0.44574,-0.99219 z"
       id="path10958" />
    <path
       style="fill:#336c31"
       d="m 199.65565,109.02794 c 0.20875,-0.40018 0.38028,-0.87568 0.38118,-1.05667 0.003,-0.57827 -1.11839,-0.18553 -1.76017,0.61653 -0.33925,0.42398 -0.61741,0.64432 -0.61814,0.48964 -0.002,-0.34954 1.29929,-1.57147 1.89502,-1.77994 0.26696,-0.0934 0.50485,0.0117 0.60251,0.26618 0.18851,0.49124 -0.31704,2.19187 -0.65158,2.19187 -0.12561,0 -0.0576,-0.32743 0.15118,-0.72761 z"
       id="path10957" />
    <path
       style="fill:#336c31"
       d="m 178.42335,108.49878 c 0.0469,-1.38458 0.12762,-1.57488 0.89743,-2.11667 0.46522,-0.32742 0.96955,-0.59531 1.12072,-0.59531 0.43382,0 1.66199,-2.02781 1.55126,-2.56125 -0.068,-0.32746 -0.30805,-0.46465 -0.75056,-0.4289 l -0.65061,0.0526 0.62557,-0.30493 c 0.52475,-0.25579 0.68391,-0.22514 0.98758,0.19015 0.3142,0.42969 0.28399,0.63642 -0.22869,1.56505 -0.5216,0.94477 -0.95286,1.33497 -2.66735,2.41336 -0.29292,0.18424 -0.43686,0.72653 -0.47405,1.78594 -0.0294,0.83674 -0.14554,1.52135 -0.25814,1.52135 -0.1126,0 -0.18153,-0.68461 -0.15316,-1.52135 z"
       id="path10956" />
    <path
       style="fill:#336c31"
       d="m 177.88552,108.9618 c 0,-0.65485 0.0516,-0.92274 0.11467,-0.59532 0.0631,0.32743 0.0631,0.86321 0,1.19063 -0.0631,0.32742 -0.11467,0.0595 -0.11467,-0.59531 z"
       id="path10955" />
    <path
       style="fill:#336c31"
       d="m 175.96138,109.22638 c -1.05189,-0.90021 -1.70385,-1.00311 -2.09548,-0.33073 -0.25128,0.43143 -0.27023,0.43207 -0.27773,0.009 -0.0219,-1.23504 1.76794,-0.96562 3.11152,0.46837 0.84412,0.90092 0.37763,0.80808 -0.73831,-0.14695 z"
       id="path10954" />
    <path
       style="fill:#336c31"
       d="m 189.91482,111.14465 c -0.0554,-0.10914 -0.017,-0.55563 0.0854,-0.99219 0.18295,-0.7804 0.18661,-0.77707 0.21738,0.19844 0.0297,0.94209 -0.0806,1.23142 -0.30275,0.79375 z"
       id="path10952" />
    <path
       style="fill:#336c31"
       d="m 195.54054,111.21075 c -0.18115,-0.21828 -0.47003,-0.39687 -0.64195,-0.39687 -0.17192,0 -0.70817,-0.40816 -1.19169,-0.90701 -0.69945,-0.72166 -0.8442,-1.04608 -0.70832,-1.5875 0.11386,-0.45364 0.35132,-0.68049 0.71232,-0.68049 0.68459,0 1.56506,0.46242 1.56506,0.82196 0,0.15079 -0.19343,0.0807 -0.42985,-0.15568 -0.57003,-0.57003 -1.53575,-0.41542 -1.62256,0.25976 -0.065,0.50558 0.11166,0.69815 2.1847,2.38146 0.43656,0.35449 0.71903,0.64829 0.62771,0.65289 -0.0913,0.005 -0.31426,-0.17023 -0.49542,-0.38852 z"
       id="path10951" />
    <path
       style="fill:#336c31"
       d="m 192.11088,112.70376 c 0.38041,-0.78128 -0.10992,-1.48837 -0.57506,-0.82928 -0.23599,0.33439 -0.25678,0.32656 -0.13614,-0.0513 0.0783,-0.24526 5.6e-4,-0.4932 -0.17277,-0.55098 -0.17756,-0.0592 -0.0457,-0.24929 0.3021,-0.4354 0.72459,-0.38779 0.715,-0.39481 0.91769,0.6721 0.10312,0.54286 0.0202,0.99769 -0.24118,1.32291 -0.37131,0.462 -0.37773,0.45331 -0.0946,-0.12809 z"
       id="path10948" />
    <path
       style="fill:#336c31"
       d="m 196.76158,112.99671 c 0.16806,-1.52799 0.48877,-2.01354 1.82167,-2.758 0.52056,-0.29075 0.52107,-0.28644 0.0312,0.26535 -0.27385,0.3085 -0.72033,0.63151 -0.99218,0.71779 -0.40947,0.12996 -0.49428,0.42619 -0.49428,1.72655 0,0.87912 -0.11741,1.56967 -0.26689,1.56967 -0.16793,0 -0.20485,-0.56414 -0.0996,-1.52136 z"
       id="path10945" />
    <path
       style="fill:#336c31"
       d="m 194.0602,116.0646 -0.50403,-0.57013 0.7276,0.46827 c 0.75025,0.48283 0.89212,0.67198 0.50403,0.67198 -0.12297,0 -0.45039,-0.25655 -0.7276,-0.57012 z"
       id="path10942" />
    <path
       style="fill:#336c31"
       d="m 188.89574,115.90712 c -0.11757,-0.70841 -0.0576,-0.8599 0.34063,-0.8599 0.26584,0 0.48334,0.11907 0.48334,0.26459 0,0.14552 -0.11078,0.26458 -0.24618,0.26458 -0.1354,0 -0.28868,0.26789 -0.34063,0.59531 -0.0756,0.4767 -0.12288,0.42398 -0.23716,-0.26458 z"
       id="path10941" />
    <path
       style="fill:#336c31"
       d="m 173.66053,115.97552 c 0.0349,-0.53155 0.21083,-0.82165 0.53584,-0.88333 0.70115,-0.13306 1.76501,0.18135 1.76501,0.52163 0,0.20116 -0.11887,0.19328 -0.38231,-0.0254 -0.60726,-0.50398 -1.5558,-0.22773 -1.77541,0.51708 -0.18175,0.61643 -0.1915,0.60758 -0.14313,-0.13003 z"
       id="path10940" />
    <path
       style="fill:#336c31"
       d="m 182.62093,116.63471 c 0.004,-0.21828 0.1031,-0.69453 0.21961,-1.05833 0.1703,-0.53174 0.21337,-0.55769 0.21962,-0.13229 0.004,0.29104 -0.0945,0.76729 -0.21962,1.05833 -0.13931,0.3242 -0.22437,0.37544 -0.21961,0.13229 z"
       id="path10939" />
    <path
       style="fill:#336c31"
       d="m 177.85433,115.57638 c -0.0716,-2.16546 -0.20167,-2.41447 -1.89456,-3.62605 -0.85495,-0.61188 -1.69908,-1.38274 -1.87585,-1.71303 -0.18064,-0.33752 0.41159,0.0628 1.35229,0.91407 0.92052,0.83303 1.75876,1.51459 1.86274,1.51459 0.55585,0 0.90327,1.2743 0.75743,2.77813 l -0.15396,1.5875 z"
       id="path10938" />
    <path
       style="fill:#336c31"
       d="m 179.54725,116.82595 c 0.23136,-0.60294 1.84039,-1.78078 2.41575,-1.76838 0.31725,0.007 0.21081,0.12929 -0.31308,0.36019 -0.43656,0.1924 -1.12522,0.68427 -1.53035,1.09304 -0.40512,0.40877 -0.66267,0.55059 -0.57232,0.31515 z"
       id="path10937" />
    <path
       style="fill:#336c31"
       d="m 198.51711,116.31362 c 1.20958,-1.17185 1.52135,-1.64241 1.52135,-2.29619 0,-1.10862 -0.41377,-1.03985 -1.81815,0.30218 -1.05495,1.00812 -1.11608,1.03599 -0.59069,0.26934 0.69427,-1.01311 1.55152,-1.6584 2.20313,-1.6584 0.35056,0 0.47029,0.21096 0.47029,0.82866 0,1.13412 -0.83766,2.39462 -2.18255,3.28428 -1.07463,0.71087 -1.05695,0.67836 0.39662,-0.72987 z"
       id="path10936" />
    <path
       style="fill:#336c31"
       d="m 178.47492,115.45658 v -2.18688 l 0.90988,-0.6326 c 1.23639,-0.8596 3.72033,-3.26599 3.72033,-3.60418 0,-0.80791 -2.38141,-0.35606 -2.73333,0.51862 -0.10837,0.26934 -0.13947,0.26967 -0.1562,0.002 -0.0213,-0.34044 1.46848,-1.38238 1.97906,-1.38418 0.15409,-5.5e-4 0.4955,0.15646 0.75869,0.34891 0.44689,0.32678 0.4505,0.40411 0.0546,1.16971 -0.23316,0.45089 -1.25918,1.4409 -2.28004,2.20002 l -1.85611,1.38021 -0.004,1.88185 c -0.002,1.03502 -0.0915,2.01952 -0.19843,2.18778 -0.10692,0.16826 -0.19439,-0.67816 -0.19439,-1.88094 z"
       id="path10935" />
    <path
       style="fill:#336c31"
       d="m 189.48165,117.90806 c 0.14439,-0.26979 0.19555,-0.59891 0.11369,-0.73137 -0.0819,-0.13245 -0.0313,-0.31349 0.11241,-0.40229 0.15435,-0.0954 0.24752,0.20385 0.22768,0.73137 -0.0201,0.53538 -0.17023,0.89283 -0.37493,0.89283 -0.25042,0 -0.27143,-0.13069 -0.0788,-0.49054 z"
       id="path10934" />
    <path
       style="fill:#336c31"
       d="m 196.06971,118.30919 c 0,-0.2432 -0.20836,-0.67724 -0.46302,-0.96454 -0.4493,-0.50687 -0.44538,-0.51309 0.13229,-0.20996 0.37185,0.19513 0.59531,0.55719 0.59531,0.96454 0,0.35868 -0.0595,0.65215 -0.13229,0.65215 -0.0728,0 -0.13229,-0.19899 -0.13229,-0.44219 z"
       id="path10933" />
    <path
       style="fill:#336c31"
       d="m 190.25963,118.67641 c -0.0122,-0.23518 1.74009,-2.0417 1.98042,-2.0417 0.0862,0 0.0915,0.10553 0.0118,0.23451 -0.0797,0.12897 0.11642,0.30284 0.43585,0.38638 0.31943,0.0835 0.50689,0.22577 0.41656,0.3161 -0.0903,0.0903 -0.4247,0.0248 -0.74307,-0.14558 -0.51047,-0.27319 -0.66818,-0.20539 -1.33483,0.57388 -0.41578,0.48602 -0.76081,0.79041 -0.76672,0.67641 z"
       id="path10932" />
    <path
       style="fill:#336c31"
       d="m 186.28008,118.28836 c -0.0436,-0.32742 -0.0912,-0.73228 -0.10579,-0.89968 -0.0452,-0.51993 1.01587,-0.49443 1.90415,0.0458 0.46613,0.28348 0.84373,0.66599 0.83911,0.85003 -0.005,0.19309 -0.17271,0.1174 -0.39688,-0.17897 -0.21365,-0.28248 -0.38846,-0.4228 -0.38846,-0.31183 0,0.11096 -0.18204,0.0197 -0.40453,-0.20277 -0.54532,-0.54533 -1.12826,-0.27354 -1.2602,0.58756 -0.097,0.63282 -0.11621,0.6441 -0.1874,0.1099 z"
       id="path10931" />
    <path
       style="fill:#336c31"
       d="m 180.0376,119.50496 c -0.10562,-0.17089 -0.0743,-0.23515 0.0709,-0.14543 0.14305,0.0884 0.64504,-0.19084 1.11554,-0.62057 1.05555,-0.9641 1.40934,-1.02693 0.53818,-0.0956 -0.87712,0.93773 -1.4887,1.24326 -1.72459,0.86158 z"
       id="path10930" />
    <path
       style="fill:#336c31"
       d="m 175.02289,118.70817 -1.04589,-1.10154 1.25677,1.02528 c 0.69123,0.5639 1.25677,1.05959 1.25677,1.10154 0,0.31394 -0.58239,-0.0929 -1.46765,-1.02528 z"
       id="path10929" />
    <path
       style="fill:#336c31"
       d="m 187.33846,119.942 c -0.18373,-0.22138 -0.21238,-0.39687 -0.0648,-0.39687 0.14552,0 0.4128,0.17859 0.59396,0.39687 0.18373,0.22139 0.21238,0.39688 0.0648,0.39688 -0.14552,0 -0.4128,-0.17859 -0.59396,-0.39688 z"
       id="path10928" />
    <path
       style="fill:#336c31"
       d="m 189.98429,121.0355 c 0,-0.0534 0.4809,-0.41538 1.06867,-0.80434 0.58776,-0.38897 1.30169,-1.0894 1.58651,-1.55652 0.32283,-0.52947 0.51822,-0.68266 0.51883,-0.4068 5.5e-4,0.24338 -0.62204,0.98752 -1.38352,1.65365 -1.22528,1.07183 -1.79049,1.4235 -1.79049,1.11401 z"
       id="path10927" />
    <path
       style="fill:#336c31"
       d="m 196.93913,121.5294 c 0.002,-0.7276 0.0534,-0.99385 0.11419,-0.59167 0.0608,0.40218 0.0592,0.9975 -0.004,1.32292 -0.0628,0.32542 -0.11256,-0.004 -0.11058,-0.73125 z"
       id="path10923" />
    <path
       style="fill:#336c31"
       d="m 191.42393,123.1315 c 0.54368,-0.43558 1.99995,-0.56925 1.99995,-0.18358 0,0.12534 -0.28432,0.17354 -0.63181,0.10712 -0.3475,-0.0664 -0.91304,0.0162 -1.25677,0.18357 -0.59444,0.28949 -0.59988,0.28426 -0.11137,-0.10711 z"
       id="path10922" />
    <path
       style="fill:#336c31"
       d="m 189.78643,122.85232 c 0.003,-0.58208 0.0571,-0.78905 0.12041,-0.45994 0.0633,0.32912 0.0609,0.80537 -0.005,1.05834 -0.0662,0.25296 -0.118,-0.0163 -0.11507,-0.5984 z"
       id="path10921" />
    <path
       style="fill:#336c31"
       d="m 176.24692,125.06111 c -0.78884,-0.55996 -1.31272,-1.01811 -1.16418,-1.01811 0.14854,0 0.76316,0.35718 1.36582,0.79375 0.60265,0.43656 1.17361,0.79375 1.26879,0.79375 0.0952,0 0.11519,-1.2204 0.0444,-2.71198 -0.0707,-1.49159 -0.0426,-2.3548 0.0625,-1.91823 0.25986,1.07919 0.30166,4.83755 0.0553,4.97125 -0.10914,0.0592 -0.84385,-0.35047 -1.63269,-0.91043 z"
       id="path10916" />
    <path
       style="fill:#336c31"
       d="m 172.66088,125.37905 c -0.69871,-1.35116 -0.55866,-1.60634 0.8531,-1.55441 l 1.25677,0.0462 -1.12448,0.10128 c -0.61846,0.0557 -1.12448,0.15779 -1.12448,0.22686 0,0.0691 0.17252,0.53847 0.38338,1.04312 0.46811,1.12035 0.31007,1.20894 -0.24429,0.13693 z"
       id="path10915" />
    <path
       style="fill:#336c31"
       d="m 195.1445,125.99707 c 0.0641,-0.27435 0.23243,-0.97507 0.37409,-1.55715 0.14166,-0.58208 0.32992,-1.47143 0.41835,-1.97634 0.0884,-0.5049 0.21402,-0.97123 0.27907,-1.03628 0.25879,-0.25879 0.0893,1.24167 -0.2955,2.61575 -0.22412,0.80036 -0.43754,1.60059 -0.47427,1.77827 -0.0367,0.17769 -0.14586,0.40216 -0.24252,0.49883 -0.0967,0.0967 -0.12331,-0.0487 -0.0592,-0.32308 z"
       id="path10913" />
    <path
       style="fill:#336c31"
       d="m 187.6794,126.1194 c -1.66263,-1.02855 -2.56039,-3.64668 -1.33044,-3.87995 0.46578,-0.0883 2.44354,0.96691 2.22388,1.18658 -0.064,0.064 -0.51675,-0.12773 -1.0061,-0.42607 -0.99691,-0.60778 -1.41119,-0.69545 -1.12906,-0.23895 0.11697,0.18926 0.0726,0.23364 -0.11667,0.11668 -0.20125,-0.12438 -0.30547,0.0481 -0.30547,0.50546 0,0.48612 0.40189,1.0857 1.34056,1.99999 0.7373,0.71816 1.30285,1.29587 1.25677,1.28382 -0.0461,-0.0121 -0.46614,-0.25846 -0.93347,-0.54756 z"
       id="path10912" />
    <path
       style="fill:#336c31"
       d="m 190.0022,127.59934 c -0.0253,-0.39653 0.52055,-1.00353 1.38379,-1.53866 0.40713,-0.25239 0.97223,-0.83937 1.25578,-1.30441 0.28355,-0.46503 0.51599,-0.70083 0.51653,-0.52399 0.001,0.4508 -1.52102,2.13557 -2.09413,2.31747 -0.26127,0.0829 -0.60307,0.41604 -0.75955,0.74026 -0.15648,0.32422 -0.29257,0.46342 -0.30242,0.30933 z"
       id="path10910" />
    <path
       style="fill:#336c31"
       d="m 178.60721,125.93394 c 0,-1.14282 -0.0765,-2.80969 -0.16998,-3.70417 -0.10837,-1.03677 -0.0725,-1.62631 0.0989,-1.62631 0.16731,0 0.28512,1.39948 0.31181,3.70417 0.0236,2.03729 -0.0209,3.70417 -0.0989,3.70417 -0.078,0 -0.14183,-0.93504 -0.14183,-2.07786 z"
       id="path10909" />
    <path
       style="fill:#336c31"
       d="m 174.09807,127.42868 -0.86877,-1.13668 1.02208,0.98337 c 0.56215,0.54085 0.95309,1.05236 0.86877,1.13668 -0.0843,0.0843 -0.54426,-0.35819 -1.02208,-0.98337 z"
       id="path10908" />
    <path
       style="fill:#336c31"
       d="m 199.33282,128.53117 c 1.75867,-1.65417 3.37046,-4.02817 2.9919,-4.40673 -0.28416,-0.28416 -3.20558,0.29216 -4.30663,0.84958 -0.93845,0.47511 -1.09887,0.50428 -0.76907,0.13986 0.69943,-0.77286 5.26385,-1.82684 5.5945,-1.29183 0.29508,0.47745 -1.43927,3.0725 -3.19345,4.77828 -1.01397,0.98599 -1.94555,1.79272 -2.07016,1.79272 -0.12462,0 0.66419,-0.83785 1.75291,-1.86188 z"
       id="path10905" />
    <path
       style="fill:#336c31"
       d="m 197.83062,131.17558 c 0.40476,-0.40928 3.70731,-0.75982 5.01167,-0.53195 0.76322,0.13333 0.40842,0.18948 -1.35992,0.2152 -1.3159,0.0191 -2.74465,0.16779 -3.175,0.33034 -0.59665,0.22535 -0.70986,0.22213 -0.47675,-0.0136 z"
       id="path10900" />
    <path
       style="fill:#336c31"
       d="m 187.44059,130.86941 c -0.41997,-0.61114 -1.28459,-1.67971 -1.92136,-2.37461 -0.63678,-0.69489 -1.42821,-1.84716 -1.75874,-2.56058 -1.12118,-2.41994 -2.28733,-2.36796 -3.18245,0.14186 -0.20797,0.58315 -0.36317,0.78616 -0.36736,0.48054 -0.004,-0.29104 0.26161,-1.00542 0.59024,-1.5875 0.45905,-0.81311 0.7799,-1.07629 1.38471,-1.13582 0.71974,-0.0708 0.86483,0.0652 1.69293,1.5875 0.49814,0.91574 1.51017,2.40033 2.24895,3.29909 1.28414,1.56221 2.42383,3.26069 2.18793,3.26069 -0.0612,0 -0.45488,-0.50003 -0.87485,-1.11117 z"
       id="path10897" />
    <path
       style="fill:#336c31"
       d="m 189.09382,131.49861 c -0.12002,-0.48334 -0.14735,-0.94967 -0.0607,-1.03628 0.29904,-0.29903 0.45908,0.14739 0.36918,1.02977 l -0.0902,0.88533 z"
       id="path10895" />
    <path
       style="fill:#336c31"
       d="m 178.61545,131.59701 c -0.31024,-0.50199 -0.96141,-1.15827 -1.44704,-1.45841 -0.48563,-0.30013 -1.04517,-0.74235 -1.24343,-0.98269 -0.328,-0.39763 -0.30341,-0.40658 0.27301,-0.0994 0.9859,0.52547 2.86529,2.35133 3.01686,2.93092 0.19575,0.74855 0.0431,0.6491 -0.5994,-0.39046 z"
       id="path10894" />
    <path
       style="fill:#336c31"
       d="m 191.05214,132.70247 c -0.005,-0.11227 0.5623,-0.9457 1.26118,-1.85208 1.51866,-1.96955 2.26028,-3.10888 2.33713,-3.59044 0.0311,-0.19524 0.13234,-0.43068 0.22487,-0.52321 0.0925,-0.0925 0.10847,0.16133 0.0354,0.56413 -0.16555,0.91296 -3.8288,6.04108 -3.85861,5.4016 z"
       id="path10891" />
    <path
       style="fill:#336c31"
       d="m 189.67928,131.57137 c 0.0515,-0.64808 0.20618,-1.17832 0.34364,-1.17832 0.14378,0 0.17502,0.42142 0.0736,0.99218 -0.2561,1.44072 -0.52658,1.56139 -0.4172,0.18614 z"
       id="path10890" />
    <path
       style="fill:#336c31"
       d="m 194.6145,137.80443 c 1.30969,-0.12188 2.84384,-0.41888 3.40922,-0.65999 1.6464,-0.70215 4.22926,-2.42705 5.0448,-3.36904 0.4137,-0.47785 1.00251,-1.14631 1.30846,-1.48546 0.5552,-0.61545 0.55525,-0.61742 0.0271,-1.02778 -0.46231,-0.35921 -0.46794,-0.38994 -0.0445,-0.24326 0.26656,0.0923 0.53445,0.16789 0.59531,0.16789 0.0609,0 0.11065,0.17818 0.11065,0.39595 0,0.21778 -0.77768,1.21673 -1.72818,2.21989 -1.31056,1.38317 -2.27073,2.09902 -3.97341,2.96236 -2.11151,1.07063 -2.39072,1.14209 -4.68796,1.19973 l -2.44274,0.0613 z"
       id="path10876" />
    <path
       style="fill:#336c31"
       d="m 185.9494,137.86953 c 1.05502,-0.0502 2.78143,-0.0502 3.83646,0 1.05502,0.0502 0.19182,0.0913 -1.91823,0.0913 -2.11005,0 -2.97326,-0.0411 -1.91823,-0.0913 z"
       id="path10875" />
    <path
       style="fill:#336c31"
       d="m 179.74135,137.87017 c 0.84206,-0.0527 2.15175,-0.0522 2.91042,0.001 0.75867,0.0533 0.0697,0.0964 -1.53102,0.0958 -1.60073,-6e-4 -2.22146,-0.0442 -1.3794,-0.0968 z"
       id="path10874" />
    <path
       style="fill:#336c31"
       d="m 176.45947,137.56207 c -2.20276,-0.70465 -4.11268,-1.90216 -6.17159,-3.86955 -2.17842,-2.08158 -2.14338,-2.45805 0.27598,-2.96529 3.02698,-0.63464 6.4839,0.42146 7.78666,2.37883 l 0.57163,0.85888 -0.75278,-0.83519 c -1.28611,-1.42691 -3.12405,-2.20752 -5.19758,-2.20752 -1.85884,0 -4.15416,0.43822 -4.15416,0.79311 0,0.42503 3.69322,3.6591 5.05352,4.42525 0.78582,0.44259 2.05385,0.96031 2.81783,1.15049 0.76399,0.19018 1.38906,0.44233 1.38906,0.56034 0,0.11801 -0.0298,0.20816 -0.0661,0.20033 -0.0364,-0.008 -0.73497,-0.22818 -1.55243,-0.48968 z"
       id="path10873" />
  </g>
</svg>
