<?xml version="1.0" encoding="UTF-8" standalone="no"?>
<!-- Created with Inkscape (http://www.inkscape.org/) -->

<svg
   width="185"
   height="185"
   viewBox="0 0 48.947914 48.947918"
   version="1.1"
   id="svg1"
   sodipodi:docname="salvia-nemorosa-1.svg"
   inkscape:version="1.4 (e7c3feb100, 2024-10-09)"
   xmlns:inkscape="http://www.inkscape.org/namespaces/inkscape"
   xmlns:sodipodi="http://sodipodi.sourceforge.net/DTD/sodipodi-0.dtd"
   xmlns="http://www.w3.org/2000/svg"
   xmlns:svg="http://www.w3.org/2000/svg">
  <sodipodi:namedview
     id="namedview1"
     pagecolor="#ffffff"
     bordercolor="#666666"
     borderopacity="1.0"
     inkscape:showpageshadow="2"
     inkscape:pageopacity="0.0"
     inkscape:pagecheckerboard="true"
     inkscape:deskcolor="#d1d1d1"
     showgrid="false"
     inkscape:zoom="1.211637"
     inkscape:cx="79.644314"
     inkscape:cy="150.21"
     inkscape:current-layer="svg1" />
  <defs
     id="defs1" />
  <g
     id="g11598"
     transform="matrix(0.91209417,0,0,0.91209417,1.2014188,-23.407114)"
     style="stroke-width:1.09638">
    <path
       style="fill:#6c638a;stroke-width:1.09638"
       d="m 9.4153628,78.971023 c -0.303551,-0.221962 -0.4800917,-0.664784 -0.4657752,-1.168317 0.045712,-1.607739 1.3423184,-3.223366 3.4243064,-4.26683 0.613598,-0.307527 1.23156,-0.775751 1.373249,-1.040499 0.581841,-1.08718 2.197101,-1.872769 4.073828,-1.981325 0.990115,-0.05727 1.905892,-0.210818 2.035061,-0.341213 0.25786,-0.260309 -0.06994,-2.575535 -1.993269,-14.078455 -1.296427,-7.753567 -1.314999,-8.534938 -0.185937,-7.822744 0.563641,0.355535 0.731936,1.235282 2.701822,14.123492 0.474848,3.10675 1.079919,6.35 1.184677,6.35 0.01875,0 0.501158,-0.238125 1.072019,-0.529167 0.570862,-0.291042 1.25088,-0.529167 1.511153,-0.529167 0.448006,0 0.473222,-0.677177 0.473222,-12.708303 0,-11.29444 0.04613,-12.726006 0.41466,-12.867423 0.228063,-0.08752 0.532245,-0.04153 0.67596,0.102181 0.165288,0.165288 0.253513,4.882236 0.240107,12.83728 l -0.02119,12.575979 1.660338,0.254989 c 0.913186,0.140244 1.830486,0.302636 2.038446,0.360872 0.286454,0.08022 0.495283,-0.503406 0.861497,-2.407658 0.58833,-3.059226 1.400301,-7.511751 1.954121,-10.715624 0.679098,-3.928615 0.848713,-4.411097 1.517264,-4.315963 0.842897,0.119944 0.778241,0.775452 -0.991949,10.056803 -1.49396,7.833039 -1.53301,8.146628 -1.097295,8.811615 0.248487,0.379239 0.593686,0.731374 0.767107,0.782523 3.053168,0.900499 5.102065,1.948813 7.241712,3.705209 0.915691,0.751674 2.201725,3.081101 2.201725,3.988041 0,1.145739 -0.502493,1.181146 -16.76292,1.181146 -12.528867,0 -15.5066309,-0.06693 -15.9039352,-0.357442 z"
       id="path11595" />
    <path
       style="fill:#4c8452;stroke-width:1.09638"
       d="M 9.9353452,79.101926 C 9.230142,78.948336 9.1344055,78.811131 9.0771455,77.871987 c -0.085322,-1.399392 0.9804135,-2.94155 2.6660085,-3.85781 0.692156,-0.376244 1.759178,-1.166011 2.371161,-1.755037 1.479977,-1.424459 2.007308,-1.661925 3.690566,-1.661925 0.782118,0 1.641079,-0.160171 1.908802,-0.355934 0.540782,-0.39543 0.564199,-0.213199 -1.989757,-15.484379 -0.568727,-3.400662 -0.969214,-6.287928 -0.889971,-6.416146 0.268996,-0.435244 0.916872,-0.2356 1.175358,0.362189 0.141578,0.327422 0.498558,2.143125 0.793289,4.034896 0.294731,1.891771 0.96315,6.118489 1.485375,9.392708 0.522226,3.274218 0.944694,6.152256 0.938818,6.395639 -0.0094,0.387533 0.159673,0.363198 1.360392,-0.195853 0.754091,-0.351102 1.518759,-0.63953 1.699262,-0.640952 0.255668,-0.002 0.343366,-2.823524 0.396875,-12.76873 0.06761,-12.56686 0.07695,-12.766145 0.597854,-12.766145 0.520896,0 0.53024,0.199281 0.597844,12.750313 l 0.06868,12.750313 1.254239,0.164109 c 0.689832,0.09026 1.527732,0.275978 1.862001,0.412707 0.920209,0.376401 1.030517,0.319787 1.191067,-0.611297 0.08155,-0.472943 0.579957,-3.181615 1.107568,-6.019271 0.527611,-2.837656 1.144412,-6.230937 1.370669,-7.540624 0.226257,-1.309688 0.521525,-2.58961 0.656152,-2.844271 0.289174,-0.547007 0.979391,-0.611884 1.171922,-0.110155 0.07447,0.194076 -0.280079,2.486029 -0.787895,5.093229 -1.658948,8.517259 -2.274536,11.923886 -2.274536,12.587133 0,0.822318 0.854146,1.756416 1.79326,1.961116 1.366551,0.297869 2.315205,0.73036 4.516522,2.059081 2.434617,1.469542 3.273758,2.383024 3.913306,4.259994 0.770804,2.262184 1.775891,2.123552 -15.722469,2.168602 -8.398725,0.02162 -15.627597,-0.03848 -16.0641598,-0.133561 z"
       id="path11550" />
    <path
       style="fill:#4a764e;stroke-width:1.09638"
       d="M 20.518678,70.130143 C 20.373157,70.02323 20.221785,69.697632 20.182296,69.40659 20.142807,69.115548 19.344985,64.293621 18.409358,58.691196 17.473731,53.088771 16.801521,48.411665 16.915559,48.297627 c 0.114038,-0.114038 0.396131,-0.134896 0.626873,-0.04635 0.449333,0.172425 0.79141,1.430741 1.255651,4.618858 0.158926,1.091406 0.460213,2.996406 0.669526,4.233333 0.209313,1.236927 0.564278,3.499114 0.788811,5.027083 0.224533,1.527968 0.536369,3.4925 0.692969,4.365625 0.493746,2.752882 0.501927,3.042708 0.08589,3.042708 -0.211368,0 -0.384305,0.126089 -0.384305,0.280198 0,0.154109 0.119062,0.206614 0.264583,0.116677 0.145521,-0.08994 0.264583,-0.03743 0.264583,0.116676 0,0.324034 -0.281212,0.357072 -0.661458,0.07771 z"
       id="path11454" />
    <path
       style="fill:#4a764e;stroke-width:1.09638"
       d="m 9.3268035,78.746381 c -0.4269642,-0.426964 -0.4005693,-1.400223 0.062246,-2.29521 0.463894,-0.897072 2.3938055,-2.678956 2.9015065,-2.678956 0.20312,0 0.982585,-0.600504 1.732144,-1.334452 0.749559,-0.733949 1.662339,-1.448324 2.028401,-1.5875 0.895992,-0.340656 3.276951,-0.323847 3.276951,0.02313 0,0.1519 0.196007,0.241197 0.435572,0.198437 0.239565,-0.04276 0.486754,0.10085 0.54931,0.319131 0.09035,0.315257 0.06273,0.32426 -0.134281,0.04378 -0.191077,-0.272029 -0.290907,-0.211284 -0.434825,0.264584 -0.112303,0.371331 -0.241479,0.485117 -0.323889,0.285301 -0.0754,-0.182808 -0.245977,-0.265078 -0.379068,-0.182823 -0.133092,0.08226 -0.241986,-0.02333 -0.241986,-0.234627 0,-0.330963 -0.752078,-0.851129 -0.933238,-0.645463 -0.03506,0.03981 0.407586,0.545525 0.983664,1.123821 0.576078,0.578296 1.024426,0.935483 0.996329,0.79375 -0.115463,-0.582442 0.03417,-0.919155 0.408454,-0.919155 0.218281,0 0.396875,-0.229814 0.396875,-0.510698 0,-0.442365 0.106887,-0.480042 0.798855,-0.281588 0.48988,0.140496 0.739674,0.133352 0.645843,-0.01847 -0.08416,-0.136168 -0.354344,-0.251198 -0.600418,-0.255623 -0.39247,-0.0071 -0.386655,-0.04334 0.04736,-0.295496 0.382779,-0.222387 0.416573,-0.335775 0.149305,-0.500955 -0.267111,-0.165084 -0.274831,-0.298608 -0.03404,-0.588745 0.171281,-0.206381 0.241857,-0.444801 0.156836,-0.529822 -0.187003,-0.187004 1.071854,-0.846455 2.074866,-1.086917 l 0.725066,-0.173827 0.06868,-12.761741 c 0.06761,-12.562458 0.07695,-12.761742 0.597851,-12.761742 0.521305,0 0.529802,0.190645 0.571934,12.832291 l 0.04277,12.832291 0.883274,0.06876 c 1.651421,0.128553 2.603065,0.351462 2.603065,0.609731 0,0.1417 -0.26789,0.213195 -0.595312,0.158879 -0.327422,-0.05432 -0.446485,-0.04785 -0.264584,0.01436 0.181901,0.06221 0.330729,0.203604 0.330729,0.314201 0,0.110597 0.178594,0.201086 0.396875,0.201086 0.218282,0 0.396875,-0.165777 0.396875,-0.368393 0,-0.202616 0.09763,-0.308056 0.216946,-0.234313 0.183817,0.113606 1.491028,-6.519806 2.861898,-14.52264 0.19942,-1.164167 0.478677,-2.384558 0.620571,-2.711979 0.268953,-0.620609 0.909818,-0.792774 1.200464,-0.322499 0.09273,0.150048 -0.432058,3.394501 -1.166206,7.209896 -0.734148,3.815394 -1.499585,7.841378 -1.700971,8.946631 l -0.366156,2.009549 0.688081,0.837107 c 0.493708,0.600635 0.912305,0.837175 1.481832,0.837352 0.464276,1.45e-4 1.617435,0.487654 2.778124,1.17448 1.091407,0.645829 2.418862,1.414849 2.9499,1.708935 1.045628,0.579062 1.853237,1.701973 2.459097,3.419162 0.706722,2.003064 1.636465,1.894489 -16.222895,1.894489 -11.938587,0 -15.8808262,-0.07764 -16.120683,-0.3175 z M 41.257204,78.559636 c 0.438045,-0.277435 0.221978,-1.735148 -0.373951,-2.522887 -0.365187,-0.482728 -0.388534,-0.457258 -0.388534,0.423864 v 0.937455 l -2.770081,0.03983 c -2.536742,0.03648 -2.755836,7.74e-4 -2.600969,-0.423864 0.147308,-0.403915 0.09168,-0.39562 -0.431448,0.06434 -0.600131,0.527659 -0.600493,0.527659 -0.507885,0 0.05097,-0.29042 0.249502,-0.651351 0.441181,-0.802069 0.270024,-0.212322 0.221727,-0.274033 -0.21447,-0.274033 -0.434992,0 -0.531659,0.122446 -0.42522,0.538616 0.118024,0.461467 0.06499,0.443872 -0.370275,-0.122842 l -0.50803,-0.661458 0.164661,0.661458 c 0.09056,0.363802 0.294168,0.748932 0.452453,0.855844 0.175667,0.118653 0.107397,0.195965 -0.17523,0.198438 -0.254661,0.0022 -0.464844,-0.144777 -0.467072,-0.326678 -0.0028,-0.227666 -0.07957,-0.211354 -0.246404,0.05235 -0.19005,0.300402 -0.281017,0.229027 -0.421507,-0.330729 -0.09853,-0.392593 -0.285308,-0.713805 -0.415054,-0.713805 -0.129745,0 -0.2359,-0.115326 -0.2359,-0.25628 0,-0.140953 0.148828,-0.219998 0.330729,-0.175655 0.181901,0.04434 0.241432,0.03068 0.132292,-0.03035 -0.109141,-0.06104 -0.202224,-0.249882 -0.206852,-0.419657 -0.0046,-0.169774 -0.183222,-0.539796 -0.396875,-0.822271 -0.378632,-0.500595 -0.388461,-0.498527 -0.388461,0.08176 0,0.383539 0.108961,0.52801 0.306262,0.406071 0.308293,-0.190535 0.246992,0.263898 -0.173411,1.28553 -0.152517,0.370637 -0.0951,0.428928 0.280499,0.284795 0.426031,-0.163483 0.422439,-0.129958 -0.03669,0.342428 -0.521092,0.536142 -1.170413,0.712488 -1.170413,0.317867 0,-0.121268 -0.126089,-0.220486 -0.280198,-0.220486 -0.154109,0 -0.195244,0.137458 -0.09141,0.305463 0.117905,0.190775 0.07248,0.233581 -0.120993,0.11401 -0.170378,-0.1053 -0.247564,-0.292121 -0.171523,-0.415157 0.07604,-0.123037 0.04822,-0.27389 -0.06183,-0.335229 -0.110048,-0.06134 -0.02149,-0.06415 0.196789,-0.0063 0.221083,0.05864 0.106639,-0.165656 -0.258374,-0.506384 -0.360386,-0.336411 -0.717574,-0.593259 -0.79375,-0.570775 -0.07618,0.02248 -0.225975,-0.09658 -0.332887,-0.264584 -0.1165,-0.183071 -0.196009,-0.07026 -0.198438,0.281545 -0.0027,0.395123 0.116934,0.540583 0.366061,0.444984 0.203562,-0.07811 0.461218,0.0054 0.57257,0.185558 0.140466,0.227278 0.07024,0.276847 -0.229347,0.161885 -0.237493,-0.09113 -0.502176,-0.05184 -0.588185,0.08733 -0.08601,0.139166 0.02924,0.253028 0.25611,0.253028 0.648666,0 0.481493,0.675943 -0.179487,0.725734 -0.413198,0.03113 -0.484572,-0.02179 -0.236335,-0.175206 0.252346,-0.155959 0.269335,-0.273138 0.05849,-0.403445 -0.163431,-0.101006 -0.228647,-0.294483 -0.144925,-0.429948 0.2406,-0.389298 -0.08917,-0.287719 -0.664123,0.204572 -0.391392,0.33512 -0.443113,0.505474 -0.201462,0.663551 0.17995,0.117715 -0.130213,0.160055 -0.694633,0.09483 -0.560864,-0.06482 -1.096645,-0.203794 -1.190625,-0.308833 -0.09398,-0.105038 0.03749,-0.116214 0.292148,-0.02483 0.254662,0.09138 0.463021,0.0647 0.463021,-0.05929 0,-0.123989 -0.300619,-0.282902 -0.668042,-0.353139 -0.557034,-0.106484 -0.642003,-0.04566 -0.511337,0.36603 0.08619,0.271555 0.04236,0.493735 -0.0974,0.493735 -0.342514,0 -0.619691,-0.772461 -0.40299,-1.12309 0.104671,-0.169362 0.048,-0.203696 -0.142196,-0.08615 -0.176003,0.108775 -0.247898,0.449542 -0.162135,0.768484 0.136449,0.507437 0.10549,0.497314 -0.270402,-0.08841 -0.405425,-0.631744 -0.418915,-0.634699 -0.300296,-0.06578 0.07205,0.345576 0.01625,0.528964 -0.132898,0.436783 -0.322413,-0.199262 -0.195037,-1.749201 0.168439,-2.049607 0.159922,-0.132172 0.08673,-0.164685 -0.179247,-0.07962 -0.315132,0.100787 -0.405556,0.02914 -0.302422,-0.239625 0.08092,-0.21087 0.01532,-0.3834 -0.145766,-0.3834 -0.365449,0 -0.386436,0.704706 -0.02759,0.926484 0.170182,0.105178 0.175768,0.331254 0.01558,0.630566 -0.182131,0.340314 -0.540379,0.455748 -1.323633,0.426495 -1.019844,-0.03809 -1.282523,0.1009 -0.904718,0.478706 0.09306,0.09306 0.297646,0.08981 0.454641,-0.0072 0.486602,-0.300736 1.669219,-0.257362 1.669219,0.06122 0,0.395805 -2.622638,0.418572 -2.884316,0.02504 -0.133583,-0.200892 -0.195654,-0.185619 -0.198438,0.04883 -0.0033,0.278492 -0.07158,0.278492 -0.371646,0 -0.266628,-0.247454 -0.284796,-0.395474 -0.06615,-0.5389 0.165797,-0.108756 -0.213123,-0.136047 -0.842044,-0.06065 -0.879859,0.105487 -1.0969,0.05957 -0.941399,-0.199136 0.150323,-0.250094 0.09038,-0.245668 -0.233979,0.01728 -0.239841,0.194429 -0.560352,0.276699 -0.712247,0.182823 -0.151896,-0.09388 -0.276174,0.005 -0.276174,0.219756 0,0.214743 0.148829,0.446747 0.33073,0.515564 0.181901,0.06882 -0.05213,0.120268 -0.520057,0.114335 -0.467933,-0.0059 -0.793412,-0.10362 -0.723289,-0.217083 0.07012,-0.113463 0.01724,-0.27444 -0.117524,-0.357728 -0.32895,-0.203302 -1.117988,0.114492 -0.95182,0.383357 0.210603,0.340763 -2.214427,0.138873 -2.56701,-0.21371 -0.248393,-0.248393 -0.248807,-0.389918 -0.0019,-0.636863 0.246945,-0.246944 0.324463,-0.232245 0.348833,0.06615 0.01723,0.211005 0.01351,0.484105 -0.0083,0.606888 -0.02178,0.122783 0.112949,0.172448 0.299397,0.110367 0.186449,-0.06208 0.375164,-0.341134 0.419367,-0.620117 0.06187,-0.39046 0.02284,-0.42305 -0.169513,-0.141554 -0.197473,0.288992 -0.290302,0.238334 -0.442607,-0.241536 -0.169016,-0.532524 -0.223015,-0.553099 -0.438947,-0.167251 -0.135422,0.241986 -0.441655,0.439974 -0.680519,0.439974 -0.365777,0 -0.353267,0.05981 0.07929,0.379063 0.437391,0.322823 0.458744,0.430775 0.14392,0.727604 -0.309162,0.291492 -0.344377,0.276338 -0.215144,-0.09258 0.08499,-0.242618 0.0025,-0.499449 -0.183236,-0.570736 -0.185769,-0.07129 -0.317121,-0.408561 -0.291894,-0.7495 0.03796,-0.513081 0.201614,-0.625456 0.949781,-0.652198 1.831025,-0.06545 2.006344,-0.107579 2.006344,-0.482159 0,-0.210197 -0.06945,-0.374691 -0.15434,-0.365543 -0.480935,0.05183 -0.580015,-0.0894 -0.299685,-0.427179 0.421866,-0.508317 1.063814,-0.231285 1.102078,0.475601 0.02522,0.465869 0.05271,0.48215 0.15414,0.09127 0.0679,-0.261652 -0.01112,-0.637878 -0.175597,-0.836058 -0.231771,-0.279267 -0.165231,-0.454054 0.295786,-0.776963 0.459636,-0.321942 0.641987,-0.342393 0.802311,-0.08998 0.160001,0.251899 0.208409,0.253097 0.211533,0.0052 0.0022,-0.176781 -0.216695,-0.43956 -0.486497,-0.583954 -0.39247,-0.210043 -0.643578,-0.102804 -1.255948,0.536372 -0.42097,0.439398 -1.254934,1.01545 -1.853254,1.280116 -1.844503,0.815911 -3.0888501,3.058235 -2.3555558,4.244731 0.2081647,0.336817 31.0578698,0.364603 31.5886238,0.02845 z M 10.978327,78.29497 c 0.08149,-0.131859 0.386177,-0.177504 0.677073,-0.101433 0.728014,0.19038 0.662525,0.341178 -0.14817,0.341178 -0.37239,0 -0.610397,-0.107885 -0.528903,-0.239745 z m 6.762226,-1.098787 c 0,-0.154109 0.108893,-0.212898 0.241985,-0.130643 0.133092,0.08226 0.297411,-1.5e-5 0.365152,-0.182823 0.09068,-0.244699 0.251183,-0.210237 0.608461,0.130643 0.467028,0.445592 0.453283,0.463021 -0.365152,0.463021 -0.467745,0 -0.850446,-0.126089 -0.850446,-0.280198 z m 19.314582,-0.251932 c 0,-0.143891 -0.0893,-0.271542 -0.198437,-0.283668 -0.109141,-0.01213 -0.466328,-0.05176 -0.79375,-0.08808 -0.548838,-0.06087 -0.762269,0.119556 -0.477859,0.403965 0.244666,0.244667 1.470046,0.217807 1.470046,-0.03222 z m 1.779855,-0.254719 c -0.02164,-0.287246 -0.178033,-0.575487 -0.347546,-0.640535 -0.371634,-0.14261 -0.351901,0.684951 0.0229,0.960312 0.366213,0.269052 0.368809,0.266495 0.324646,-0.319777 z m -7.944156,0.0906 c -0.09189,-0.09189 -0.04945,-0.386871 0.09432,-0.655504 0.20376,-0.380728 0.178292,-0.456533 -0.115504,-0.343793 -0.207296,0.07955 -0.338223,0.344757 -0.290949,0.589358 0.116005,0.600227 0.103825,0.577019 0.302828,0.577019 0.09701,0 0.101203,-0.07519 0.0093,-0.16708 z M 15.945738,75.921073 c -0.102512,-0.267143 -0.04082,-0.317839 0.203233,-0.167006 0.238208,0.14722 0.287427,0.114641 0.153699,-0.101736 -0.138105,-0.223458 -0.295516,-0.236324 -0.528245,-0.04318 -0.182335,0.151324 -0.40986,0.196793 -0.505612,0.101042 -0.09575,-0.09575 -0.174093,-0.0012 -0.174093,0.210182 0,0.211352 0.224598,0.384276 0.499106,0.384276 0.327261,0 0.448426,-0.13207 0.351912,-0.383582 z m 23.850911,0.1001 c -0.06515,-0.169774 -0.280571,-0.30868 -0.478716,-0.30868 -0.198145,0 -0.30696,0.138906 -0.241811,0.30868 0.06515,0.169774 0.28057,0.308681 0.478715,0.308681 0.198145,0 0.30696,-0.138907 0.241812,-0.308681 z m -22.311957,-0.51381 c 0.213484,-0.282595 0.246642,-0.428919 0.07369,-0.325164 -0.177657,0.106574 -0.430425,-0.01521 -0.581003,-0.27994 -0.215054,-0.378081 -0.247268,-0.315277 -0.166782,0.325164 0.133311,1.060793 0.125964,1.029325 0.21108,0.903993 0.04118,-0.06063 0.249537,-0.341457 0.46302,-0.624053 z m 3.331457,0.328305 c 0.121201,-0.196108 -0.0089,-0.244771 -0.388754,-0.145431 -0.313998,0.08211 -0.509268,0.04956 -0.433933,-0.07233 0.07533,-0.121895 -0.0024,-0.307781 -0.172807,-0.413081 -0.182435,-0.112751 -0.239216,-0.07728 -0.138127,0.08629 0.09441,0.152757 -0.016,0.349747 -0.245343,0.437755 -0.662299,0.254149 -0.950475,0.187254 -0.735416,-0.170713 0.13501,-0.224725 0.05521,-0.214342 -0.248969,0.0324 -0.246215,0.199719 -0.447664,0.382993 -0.447664,0.407275 0,0.216429 2.672307,0.06227 2.811013,-0.162156 z m 13.239628,-0.784634 c -0.166612,-0.266788 -0.407932,-0.485069 -0.536266,-0.485069 -0.128335,0 -0.100728,0.159783 0.06135,0.355073 0.162076,0.19529 0.236186,0.413572 0.164688,0.485069 -0.0715,0.0715 0.03721,0.129997 0.241582,0.129997 0.294086,0 0.308402,-0.101161 0.06865,-0.48507 z m -4.268471,-0.207199 c -0.09739,-0.157576 -0.279677,-0.223086 -0.405087,-0.145579 -0.12541,0.07751 -0.304004,0.01798 -0.396875,-0.132291 -0.09287,-0.150268 -0.299925,-0.19221 -0.46012,-0.0932 -0.184742,0.114176 -0.23219,0.02606 -0.129737,-0.240923 0.08884,-0.231514 -0.02153,-0.57286 -0.245271,-0.758548 -0.361902,-0.300351 -0.352866,-0.358837 0.08187,-0.529914 0.463253,-0.182299 0.463775,-0.193269 0.01004,-0.210898 -0.26325,-0.01023 -0.405894,-0.136295 -0.316987,-0.280149 0.09665,-0.156388 -0.02467,-0.190056 -0.301737,-0.08374 -0.287396,0.110284 -0.342232,0.218202 -0.144385,0.28415 0.17545,0.05848 0.246805,0.223149 0.158565,0.365923 -0.08824,0.142774 0.05985,0.439981 0.329081,0.660459 0.419986,0.343932 0.425663,0.380926 0.03997,0.260454 -0.314302,-0.09817 -0.405284,-0.02507 -0.302421,0.242984 0.08092,0.210871 0.253448,0.398284 0.3834,0.416474 0.263373,0.03687 0.663154,0.132165 0.96388,0.229769 0.109141,0.03542 0.287734,0.05031 0.396875,0.03307 0.109141,-0.01723 0.198437,0.107574 0.198437,0.277349 0,0.169774 0.07145,0.237227 0.158786,0.149894 0.08733,-0.08733 0.0791,-0.287711 -0.01828,-0.445288 z m 9.963136,-0.120708 c 0.279359,0.168064 0.278206,0.12364 -0.0059,-0.226816 -0.287544,-0.354709 -0.447572,-0.376936 -0.859896,-0.119436 -0.278631,0.174009 -0.506603,0.484786 -0.506603,0.690617 0,0.291768 0.112936,0.272031 0.512494,-0.08956 0.307662,-0.27843 0.651343,-0.380269 0.859896,-0.254801 z m -13.893705,0.197911 c -0.09575,-0.09575 -0.0263,-0.356731 0.15434,-0.579956 0.220682,-0.272708 0.227343,-0.345256 0.0203,-0.221133 -0.169472,0.101601 -0.360599,0.03516 -0.424726,-0.147648 -0.06413,-0.182808 -0.118945,-0.005 -0.121817,0.395226 -0.0029,0.400183 0.118802,0.727604 0.270386,0.727604 0.151584,0 0.197265,-0.07834 0.101514,-0.174093 z m 4.234346,-1.057321 c -0.077,-0.077 -0.357298,-10e-4 -0.622874,0.168806 -0.429714,0.274821 -0.431898,0.292966 -0.01984,0.164848 0.262154,-0.08151 0.472082,-0.0041 0.483909,0.17846 0.01478,0.228133 0.06153,0.220868 0.159852,-0.02484 0.07643,-0.190996 0.07596,-0.410269 -0.001,-0.487274 z m 7.890094,-0.233349 c -0.436562,-0.199899 -0.674687,-0.373042 -0.529167,-0.384762 0.145521,-0.01172 -0.03227,-0.185609 -0.395096,-0.38642 -0.49346,-0.273114 -0.709108,-0.287418 -0.855845,-0.05677 -0.30087,0.472923 -0.241284,0.702812 0.143859,0.555019 0.191469,-0.07347 0.697485,0.04859 1.124479,0.271257 0.426994,0.222666 0.895416,0.395909 1.040937,0.384987 0.14552,-0.01092 -0.09261,-0.183413 -0.529167,-0.383311 z M 23.916945,72.348146 c -0.110993,-0.953275 -0.375449,-1.299701 -0.31048,-0.406714 0.02562,0.352087 -0.0471,0.925375 -0.161593,1.273973 -0.179794,0.547422 -0.155613,0.58472 0.177402,0.273637 0.221572,-0.206979 0.346908,-0.69225 0.294671,-1.140896 z m 8.022913,0.498027 c 0,-0.218281 -0.15875,-0.396875 -0.352778,-0.396875 -0.445882,0 -0.461608,0.441156 -0.02205,0.618522 0.181901,0.0734 0.340651,0.142852 0.352777,0.15434 0.01213,0.01149 0.02205,-0.157706 0.02205,-0.375987 z m 2.89856,0.04898 c 0.200549,0.07696 0.364634,-0.01172 0.364634,-0.197065 0,-0.185344 -0.07519,-0.261802 -0.16708,-0.169908 -0.09189,0.09189 -0.38955,0.04802 -0.661458,-0.0975 -0.342774,-0.183447 -0.494378,-0.175804 -0.494378,0.02492 0,0.159229 -0.119063,0.215923 -0.264584,0.125986 -0.145521,-0.08994 -0.264583,-0.04735 -0.264583,0.09463 0,0.352016 0.607994,0.549549 0.892137,0.28985 0.126873,-0.115959 0.394763,-0.147869 0.595312,-0.07091 z m 0.987932,-0.309531 c 0.08861,-0.230914 -0.06331,-0.507399 -0.368567,-0.670767 -0.355377,-0.190192 -0.519314,-0.191466 -0.519314,-0.004 0,0.15064 0.174857,0.273892 0.388571,0.273892 0.236694,0 0.329045,0.155122 0.236276,0.396875 -0.08376,0.218281 -0.09276,0.396875 -0.02,0.396875 0.07276,0 0.200128,-0.176778 0.283038,-0.392839 z M 16.284768,72.228235 c -0.07308,-0.07308 0.06444,-0.350891 0.30559,-0.617361 0.383642,-0.42392 0.387379,-0.484492 0.02989,-0.484492 -0.224714,0 -0.632639,0.208359 -0.9065,0.46302 -0.273862,0.254662 -0.382302,0.373724 -0.240979,0.264584 0.432038,-0.333653 0.763443,-0.220566 0.452299,0.15434 -0.221615,0.26703 -0.197334,0.352778 0.09989,0.352778 0.215971,0 0.332883,-0.05979 0.259806,-0.132869 z m 1.327228,-0.777352 c -0.18247,-0.21905 -0.929776,0.324398 -0.929776,0.676141 0,0.343103 0.08562,0.326765 0.495032,-0.09445 0.272268,-0.280122 0.467903,-0.541882 0.434744,-0.581687 z m 14.68064,0.453494 c 0,-0.09225 0.416718,-0.139806 0.926041,-0.105679 1.228715,0.08233 1.187777,-0.29974 -0.05714,-0.533288 -0.54075,-0.101445 -1.151307,-0.424478 -1.356793,-0.71785 -0.297234,-0.424361 -0.419946,-0.460285 -0.600266,-0.175729 -0.35119,0.5542 -0.275177,0.852889 0.131218,0.515611 0.284855,-0.236409 0.40534,-0.201152 0.543567,0.159061 0.111222,0.28984 0.01219,0.583737 -0.264991,0.786417 -0.398517,0.291403 -0.386779,0.319421 0.117891,0.281405 0.308261,-0.02322 0.560474,-0.117697 0.560474,-0.209948 z m -8.73125,-3.357542 c 0,-0.2675 -0.12414,-0.28305 -0.529167,-0.06629 -0.291041,0.155761 -0.529166,0.313031 -0.529166,0.349488 0,0.03646 0.238125,0.06629 0.529166,0.06629 0.291042,0 0.529167,-0.157269 0.529167,-0.349488 z"
       id="path11449" />
    <path
       style="fill:#635831;stroke-width:1.09638"
       d="m 24.683324,54.920653 c 0.06761,-12.56686 0.07695,-12.766145 0.597854,-12.766145 0.521706,0 0.529166,0.176389 0.529166,12.511301 0,10.833304 -0.05323,12.544937 -0.396875,12.762094 -0.218281,0.137936 -0.487315,0.252616 -0.597853,0.254844 -0.110538,0.0022 -0.17007,-5.740714 -0.132292,-12.762094 z"
       id="path11343" />
    <path
       style="fill:#635831;stroke-width:1.09638"
       d="m 26.67024,68.02924 c 0.327422,-0.06306 0.863203,-0.06306 1.190625,0 0.327422,0.06306 0.05953,0.114662 -0.595312,0.114662 -0.654844,0 -0.922735,-0.0516 -0.595313,-0.114662 z"
       id="path11342" />
    <path
       style="fill:#635831;stroke-width:1.09638"
       d="m 22.113452,68.656812 c 0.585671,-0.396039 1.447934,-0.74394 1.447934,-0.584205 0,0.118748 -1.588777,0.937116 -1.819313,0.937116 -0.08278,0 0.08434,-0.15881 0.371379,-0.352911 z"
       id="path11339" />
    <path
       style="fill:#635831;stroke-width:1.09638"
       d="m 30.969719,68.914733 c 0,-0.255973 -0.110835,-0.396906 -0.246301,-0.313184 -0.593284,0.36667 -0.504251,-0.716766 0.514758,-6.264079 0.595629,-3.2425 1.268244,-6.967017 1.494702,-8.276704 0.226458,-1.309688 0.52189,-2.58961 0.656517,-2.844271 0.287317,-0.543493 0.978964,-0.612997 1.169109,-0.117486 0.07293,0.190044 -0.454151,3.374966 -1.171284,7.077604 -0.717133,3.702638 -1.453494,7.625037 -1.636358,8.716444 -0.311973,1.86198 -0.781143,3.07624 -0.781143,2.021676 z"
       id="path11338" />
    <path
       style="fill:#635831;stroke-width:1.09638"
       d="m 20.117915,69.199857 c -0.0021,-0.03181 -0.770195,-4.701176 -1.706793,-10.376361 -0.936597,-5.675186 -1.609601,-10.411823 -1.495563,-10.525861 0.448722,-0.448722 1.059773,0.173553 1.327008,1.351384 0.154332,0.680211 0.459784,2.427372 0.678782,3.88258 0.218998,1.455208 0.641994,4.193646 0.939992,6.085416 0.297998,1.891771 0.66158,4.289416 0.807961,5.3281 0.146381,1.038685 0.367849,2.24313 0.492151,2.676546 0.124302,0.433415 0.149591,0.901955 0.0562,1.041198 -0.150848,0.224906 -1.089891,0.683438 -1.099735,0.536998 z"
       id="path11337" />
    <path
       style="fill:#635831;stroke-width:1.09638"
       d="m 17.942075,70.674669 c 0.329119,-0.06329 0.805369,-0.06088 1.058334,0.0053 0.252964,0.06622 -0.01631,0.118004 -0.598398,0.115067 -0.582083,-0.0029 -0.789054,-0.05712 -0.459936,-0.120406 z"
       id="path11333" />
    <path
       style="fill:#635831;stroke-width:1.09638"
       d="m 33.350969,71.126379 -0.661458,-0.211836 0.727604,-0.02637 c 0.400182,-0.01451 0.727604,0.09269 0.727604,0.23821 0,0.14552 -0.02977,0.252715 -0.06615,0.238209 -0.03638,-0.0145 -0.363802,-0.1217 -0.727604,-0.238209 z"
       id="path11328" />
    <path
       style="fill:#635831;stroke-width:1.09638"
       d="m 13.50722,72.880523 c 0,-0.297581 2.476911,-2.017956 2.882318,-2.001957 0.265775,0.01049 0.1898,0.11091 -0.202813,0.26807 -0.345282,0.138215 -1.089422,0.616923 -1.653645,1.063795 -0.564223,0.446873 -1.02586,0.748414 -1.02586,0.670092 z"
       id="path11323" />
    <path
       style="fill:#635831;stroke-width:1.09638"
       d="m 37.663785,73.11019 c -0.312085,-0.218592 -1.181053,-0.705648 -1.93104,-1.082345 -0.749988,-0.376697 -1.29898,-0.749537 -1.219984,-0.828534 0.144204,-0.144203 3.865291,1.962018 3.865291,2.187845 0,0.18963 -0.107773,0.147839 -0.714267,-0.276966 z"
       id="path11317" />
    <path
       style="fill:#635831;stroke-width:1.09638"
       d="m 10.333182,75.26782 c 0.600583,-0.685016 2.644871,-1.952667 2.644871,-1.640069 0,0.07198 -0.386953,0.326118 -0.859895,0.56475 -0.472943,0.238631 -1.216651,0.747704 -1.652685,1.131273 l -0.7927883,0.697399 z"
       id="path11304" />
    <path
       style="fill:#635831;stroke-width:1.09638"
       d="m 40.906383,76.079179 c -0.267609,-0.468466 -0.797131,-1.19407 -1.176717,-1.612453 -0.554093,-0.610728 -0.581665,-0.695006 -0.139855,-0.427486 0.570974,0.345728 2.11218,2.582647 1.915155,2.779672 -0.06161,0.06161 -0.330975,-0.271268 -0.598583,-0.739733 z"
       id="path11300" />
    <path
       style="fill:#635831;stroke-width:1.09638"
       d="m 9.3268035,78.746381 c -0.174625,-0.174625 -0.3175,-0.435506 -0.3175,-0.579736 0,-0.14423 0.1488282,-0.05962 0.3307292,0.188026 0.3060287,0.416635 1.5161593,0.445112 16.2031553,0.381299 l 15.872426,-0.06896 0.145018,-0.79375 c 0.134209,-0.734589 0.157296,-0.749032 0.309749,-0.193783 0.387208,1.41025 0.69376,1.384408 -16.422894,1.384408 -11.938587,0 -15.8808267,-0.07764 -16.1206835,-0.3175 z"
       id="path11289" />
    <path
       style="fill:#336c31;stroke-width:1.09638"
       d="m 26.67024,68.02924 c 0.327422,-0.06306 0.863203,-0.06306 1.190625,0 0.327422,0.06306 0.05953,0.114662 -0.595312,0.114662 -0.654844,0 -0.922735,-0.0516 -0.595313,-0.114662 z"
       id="path11025" />
    <path
       style="fill:#336c31;stroke-width:1.09638"
       d="m 22.113452,68.656804 c 0.585671,-0.396039 1.447934,-0.74394 1.447934,-0.584205 0,0.118748 -1.588777,0.937116 -1.819313,0.937116 -0.08278,0 0.08434,-0.15881 0.371379,-0.352911 z"
       id="path11022" />
    <path
       style="fill:#336c31;stroke-width:1.09638"
       d="m 17.942075,70.674669 c 0.329119,-0.06329 0.805369,-0.06088 1.058334,0.0053 0.252964,0.06622 -0.01631,0.118004 -0.598398,0.115067 -0.582083,-0.0029 -0.789054,-0.05712 -0.459936,-0.120406 z"
       id="path11018" />
    <path
       style="fill:#336c31;stroke-width:1.09638"
       d="m 33.350969,71.126379 -0.661458,-0.211836 0.727604,-0.02637 c 0.400182,-0.01451 0.727604,0.09269 0.727604,0.23821 0,0.14552 -0.02977,0.252715 -0.06615,0.238209 -0.03638,-0.0145 -0.363802,-0.1217 -0.727604,-0.238209 z"
       id="path11013" />
    <path
       style="fill:#336c31;stroke-width:1.09638"
       d="m 13.50722,72.880523 c 0,-0.297581 2.476911,-2.017956 2.882318,-2.001957 0.265775,0.01049 0.1898,0.11091 -0.202813,0.26807 -0.345282,0.138215 -1.089422,0.616923 -1.653645,1.063795 -0.564223,0.446873 -1.02586,0.748414 -1.02586,0.670092 z"
       id="path11008" />
    <path
       style="fill:#336c31;stroke-width:1.09638"
       d="m 37.663785,73.11019 c -0.312085,-0.218592 -1.181053,-0.705648 -1.93104,-1.082345 -0.749988,-0.376697 -1.29898,-0.749537 -1.219984,-0.828534 0.144204,-0.144203 3.865291,1.962018 3.865291,2.187845 0,0.18963 -0.107773,0.147839 -0.714267,-0.276966 z"
       id="path11002" />
    <path
       style="fill:#336c31;stroke-width:1.09638"
       d="m 10.333182,75.26782 c 0.600583,-0.685016 2.644871,-1.952667 2.644871,-1.640069 0,0.07198 -0.386953,0.326118 -0.859895,0.56475 -0.472943,0.238631 -1.216651,0.747704 -1.652685,1.131273 l -0.7927883,0.697399 z"
       id="path10989" />
    <path
       style="fill:#336c31;stroke-width:1.09638"
       d="m 40.906383,76.079179 c -0.267609,-0.468466 -0.797131,-1.19407 -1.176717,-1.612453 -0.554093,-0.610728 -0.581665,-0.695006 -0.139855,-0.427486 0.570974,0.345728 2.11218,2.582647 1.915155,2.779672 -0.06161,0.06161 -0.330975,-0.271268 -0.598583,-0.739733 z"
       id="path10985" />
    <path
       style="fill:#336c31;stroke-width:1.09638"
       d="m 9.3268035,78.746381 c -0.174625,-0.174625 -0.3175,-0.435506 -0.3175,-0.579736 0,-0.14423 0.1488282,-0.05962 0.3307292,0.188026 0.3060287,0.416635 1.5161593,0.445112 16.2031553,0.381299 l 15.872426,-0.06896 0.145018,-0.79375 c 0.134209,-0.734589 0.157296,-0.749032 0.309749,-0.193783 0.387208,1.41025 0.69376,1.384408 -16.422894,1.384408 -11.938587,0 -15.8808267,-0.07764 -16.1206835,-0.3175 z"
       id="path10974" />
  </g>
</svg>
