<?xml version="1.0" encoding="UTF-8" standalone="no"?>
<!-- Created with Inkscape (http://www.inkscape.org/) -->

<svg
   width="185"
   height="185"
   viewBox="0 0 48.947914 48.947918"
   version="1.1"
   id="svg1"
   sodipodi:docname="salvia-nemorosa-4.svg"
   inkscape:version="1.4 (e7c3feb100, 2024-10-09)"
   xmlns:inkscape="http://www.inkscape.org/namespaces/inkscape"
   xmlns:sodipodi="http://sodipodi.sourceforge.net/DTD/sodipodi-0.dtd"
   xmlns="http://www.w3.org/2000/svg"
   xmlns:svg="http://www.w3.org/2000/svg">
  <sodipodi:namedview
     id="namedview1"
     pagecolor="#ffffff"
     bordercolor="#666666"
     borderopacity="1.0"
     inkscape:showpageshadow="2"
     inkscape:pageopacity="0.0"
     inkscape:pagecheckerboard="true"
     inkscape:deskcolor="#d1d1d1"
     showgrid="false"
     inkscape:zoom="1.211637"
     inkscape:cx="79.644314"
     inkscape:cy="150.21"
     inkscape:current-layer="svg1" />
  <defs
     id="defs1" />
  <g
     id="g11599"
     transform="translate(-59.467869,-30.11017)">
    <path
       style="fill:#6c638a"
       d="m 81.902008,78.283318 c -1.078083,-0.773056 -2.242129,-1.17166 -6.189737,-2.119551 -2.644052,-0.634885 -4.301559,-1.62845 -5.636175,-3.378514 -1.317851,-1.728081 -2.168885,-3.728089 -1.783798,-4.192091 0.532593,-0.641734 2.12412,-0.980663 3.848727,-0.819616 2.910453,0.271782 5.449923,1.944358 7.407222,4.878633 1.616758,2.423753 3.006373,3.776606 2.577281,2.509098 -0.689887,-2.037875 -1.980818,-4.0768 -3.812193,-6.021061 -1.131089,-1.200809 -2.305784,-2.671876 -2.610433,-3.269038 -0.70447,-1.380874 -1.075295,-4.026751 -0.760634,-5.427202 0.447041,-1.989635 1.111233,-2.22167 2.673443,-0.933964 2.086371,1.719763 3.907569,5.147553 4.274071,8.044495 0.09205,0.727604 0.305148,2.096823 0.473548,3.042708 0.270305,1.51828 0.327302,1.626786 0.486438,0.926042 0.09914,-0.436563 0.194344,-1.933756 0.211561,-3.327095 0.02579,-2.086997 -0.0883,-2.879481 -0.647555,-4.497917 -1.085997,-3.142801 -0.86766,-5.851131 0.675629,-8.380717 0.595501,-0.976078 1.523614,-1.145154 2.178578,-0.396875 0.762465,0.871097 1.580743,3.10801 1.717958,4.696354 0.117803,1.36365 0.01695,1.885967 -0.715211,3.704167 -0.802299,1.99237 -0.858333,2.349723 -0.954208,6.085416 -0.05602,2.182812 -0.04914,3.849687 0.01529,3.704167 0.06443,-0.145521 0.307878,-1.68095 0.540988,-3.412063 0.523961,-3.891006 1.189569,-5.966868 2.605878,-8.127069 1.039284,-1.58515 2.492584,-2.880659 3.231519,-2.880659 0.521571,0 0.954125,1.67926 0.954125,3.704103 0,2.257756 -0.717924,3.942263 -2.62771,6.165553 -1.563616,1.820296 -2.588595,3.621906 -2.933227,5.155751 -0.334033,1.486671 0.05517,1.428661 0.956697,-0.142596 1.059163,-1.845989 3.421413,-4.095519 5.227731,-4.978279 1.404879,-0.686574 1.855633,-0.771825 4.092317,-0.773983 l 2.513542,-0.0024 -0.07297,0.902769 c -0.175381,2.169858 -2.800779,5.318031 -5.425587,6.505943 -0.759337,0.343654 -2.314732,0.814965 -3.456434,1.047357 -1.991985,0.405468 -2.735946,0.719128 -5.067928,2.136682 -1.42021,0.863311 -2.640683,0.823787 -3.96875,-0.128523 z"
       id="path11596" />
    <path
       style="fill:#4c8452"
       d="m 82.166591,78.386614 c -1.471571,-1.006916 -2.356056,-1.342719 -5.133044,-1.948805 -1.32735,-0.289698 -2.938995,-0.759235 -3.581431,-1.043416 -1.785043,-0.789609 -3.464455,-2.505429 -4.522711,-4.620759 l -0.939421,-1.877792 0.606012,-0.462457 c 0.768091,-0.586141 2.480273,-0.853267 3.958173,-0.617534 2.721331,0.434066 5.301778,2.313717 7.269021,5.294906 1.015635,1.539108 1.372122,1.977156 2.02931,2.4936 0.445362,0.349983 0.466583,0.321606 0.296784,-0.396875 -0.389356,-1.647511 -2.044951,-4.283594 -3.930596,-6.258397 -2.434371,-2.549477 -3.152175,-3.956372 -3.282465,-6.433639 -0.102013,-1.939595 0.407629,-3.82448 1.034076,-3.82448 1.185545,0 3.672841,2.720436 4.847531,5.301901 0.521517,1.146072 1.745636,6.91602 1.745636,8.228145 0,0.142734 0.107489,0.193084 0.238864,0.11189 0.131376,-0.08119 0.254159,-1.622443 0.272852,-3.424997 0.03003,-2.896203 -0.04736,-3.519366 -0.665435,-5.358093 -0.938421,-2.791724 -0.827743,-5.153777 0.347289,-7.411739 1.288673,-2.476338 2.387446,-2.201803 3.59667,0.898649 0.870141,2.231046 0.847101,3.669533 -0.09854,6.15216 -0.804613,2.112386 -0.861885,2.489967 -0.943097,6.217708 -0.09326,4.280625 0.129847,4.195635 0.694548,-0.264583 0.425177,-3.358208 1.207836,-5.69292 2.591417,-7.730333 0.934348,-1.375888 2.452877,-2.720708 3.07214,-2.720708 0.420657,0 0.947456,1.959336 0.947456,3.523894 0,2.552498 -0.733832,4.167067 -3.16597,6.965729 -1.271183,1.462751 -2.28544,3.412092 -2.492306,4.790063 -0.223123,1.486271 0.165244,1.437906 1.062294,-0.132291 2.392873,-4.188486 5.740101,-6.274002 9.787658,-6.098277 l 1.819782,0.07901 0.07916,0.942551 c 0.06244,0.743434 -0.155124,1.293392 -1.029852,2.603307 -1.919736,2.874828 -4.014741,4.119099 -8.479573,5.036212 -0.831896,0.170878 -2.282314,0.782825 -3.27619,1.382259 -2.352254,1.418711 -3.374685,1.548383 -4.756043,0.603195 z"
       id="path11551" />
    <path
       style="fill:#4a764e"
       d="m 76.542547,61.672274 c -0.182807,-0.06385 -0.26592,-0.223618 -0.184695,-0.355043 0.08123,-0.131425 -0.0371,-0.168048 -0.262935,-0.08139 -0.225839,0.08666 -0.410617,0.04574 -0.410617,-0.09093 0,-0.136674 0.416719,-0.376393 0.926042,-0.532709 0.509323,-0.156316 0.921822,-0.206058 0.916666,-0.110538 -0.02587,0.479143 -0.692989,1.272408 -0.984461,1.170606 z"
       id="path11456" />
    <path
       style="fill:#4a764e"
       d="m 82.538935,78.402421 c -2.071428,-1.175008 -2.917591,-1.48518 -5.504128,-2.017615 -3.399132,-0.699707 -5.140333,-1.615496 -6.678475,-3.512563 -1.499412,-1.8493 -2.283106,-3.696311 -1.810157,-4.26618 0.563976,-0.679549 2.309546,-0.987944 3.937553,-0.695659 2.203787,0.395659 3.375964,0.985038 4.985188,2.506589 1.460559,1.380987 3.867559,4.735554 3.92624,5.471888 0.119044,1.493765 0.110171,1.467713 0.363477,1.067207 0.155565,-0.245966 0.142223,-0.512319 -0.03645,-0.727604 -0.200934,-0.24211 -0.196589,-0.339603 0.01514,-0.339603 0.163339,0 0.29698,0.12609 0.29698,0.280199 0,0.154109 0.09922,0.218877 0.220486,0.14393 0.411683,-0.254435 0.22518,0.764625 -0.197351,1.078329 -0.379013,0.281395 -0.373701,0.32978 0.05442,0.495707 0.639691,0.247923 0.79001,0.04124 0.824535,-1.133698 0.01968,-0.669608 -0.123557,-1.110232 -0.436401,-1.34249 -0.25613,-0.190153 -0.46569,-0.530674 -0.46569,-0.756715 0,-0.921814 -1.808452,-3.705116 -3.618001,-5.568291 -3.014061,-3.103383 -4.079653,-6.016329 -3.265101,-8.925622 0.292333,-1.04411 0.407646,-1.165333 1.090071,-1.14593 1.336968,0.03801 4.156616,3.464615 4.959162,6.026665 0.288903,0.922293 1.105719,5.358153 1.090406,5.921637 -0.02158,0.794283 -0.56767,-0.81349 -0.773392,-2.277004 -0.335943,-2.389904 -0.660889,-3.497303 -1.565271,-5.334364 -0.835217,-1.696565 -3.230785,-4.464243 -3.406851,-3.936045 -0.0558,0.167411 -0.256715,0.244806 -0.44647,0.171991 -0.201497,-0.07732 -0.412999,0.121461 -0.50846,0.477884 -0.260672,0.973272 -0.196023,3.123818 0.09391,3.123818 0.145521,0 0.264583,-0.126089 0.264583,-0.280198 0,-0.154109 0.110836,-0.211698 0.246301,-0.127976 0.135466,0.08372 0.321086,0.03122 0.41249,-0.116677 0.0914,-0.147894 0.0401,-0.268899 -0.114009,-0.268899 -0.154109,0 -0.280198,-0.10269 -0.280198,-0.2282 0,-0.125509 0.30054,-0.195208 0.667868,-0.154886 0.481801,0.05289 0.647654,-0.04102 0.595312,-0.337058 -0.03991,-0.225705 0.135331,-0.443058 0.389415,-0.483007 0.626998,-0.09858 0.840687,0.32041 0.313794,0.615274 -0.376077,0.210464 -0.380114,0.284272 -0.03445,0.629935 0.288106,0.288105 0.320436,0.518593 0.122384,0.872492 -0.201699,0.360416 -0.188676,0.431214 0.05196,0.282492 0.226704,-0.140111 0.306089,0.02425 0.270005,0.55902 -0.02811,0.416614 -0.02826,0.817011 -3.39e-4,0.889771 0.208472,0.543202 0.129097,1.84738 -0.107087,1.7595 -0.156468,-0.05822 -0.254722,-0.239799 -0.218342,-0.40351 0.03638,-0.163711 -0.06094,-0.297656 -0.216267,-0.297656 -0.16171,0 -0.210857,0.225452 -0.11499,0.527501 0.129934,0.409387 0.07226,0.490985 -0.257574,0.364416 -0.276886,-0.106251 -0.398173,-0.03652 -0.34803,0.200102 0.134149,0.633028 1.003007,1.048713 1.003007,0.479866 0,-0.154109 -0.137458,-0.195245 -0.305463,-0.09141 -0.189257,0.116967 -0.233644,0.07258 -0.116677,-0.116676 0.376495,-0.609182 0.866811,-0.315145 0.818851,0.491054 -0.05724,0.962195 0.525413,1.605008 0.73351,0.809244 0.07509,-0.287131 0.02892,-0.557924 -0.102597,-0.601762 -0.342942,-0.114315 -0.513138,-1.228281 -0.215742,-1.412081 0.137604,-0.08504 0.321618,0.03151 0.408919,0.259019 0.0873,0.227505 0.285809,0.413645 0.441127,0.413645 0.155318,0 0.03867,-0.26789 -0.259214,-0.595312 -0.297886,-0.327422 -0.490949,-0.73323 -0.429029,-0.901795 0.06192,-0.168566 -0.01277,-0.383952 -0.165968,-0.478636 -0.477352,-0.29502 -0.305849,-0.669132 0.316762,-0.690978 0.327422,-0.01149 0.446485,-0.08094 0.264584,-0.15434 -0.181901,-0.0734 -0.329945,-0.33189 -0.328986,-0.574425 0.0012,-0.296951 0.169079,-0.187125 0.514102,0.336272 0.281797,0.427485 0.45258,0.873969 0.379517,0.992188 -0.07306,0.118219 -0.0068,0.214943 0.147356,0.214943 0.154109,0 0.280198,0.131801 0.280198,0.292891 0,0.16109 -0.178594,0.224358 -0.396875,0.140595 -0.239328,-0.09184 -0.396875,-0.0013 -0.396875,0.227972 0,0.245975 0.155486,0.320602 0.440279,0.211317 0.283317,-0.108719 0.376103,-0.06511 0.260267,0.122313 -0.09901,0.160195 -0.05322,0.369622 0.101736,0.465393 0.194226,0.120039 0.19696,0.276292 0.0088,0.503011 -0.190942,0.230071 -0.164753,0.476846 0.08717,0.821369 0.305307,0.417533 0.302036,0.550567 -0.02149,0.874096 -0.30957,0.30957 -0.440831,0.317555 -0.695328,0.0423 -0.243336,-0.263182 -0.23952,-0.297415 0.01701,-0.152585 0.223779,0.126341 0.327882,-0.01084 0.321926,-0.424205 l -0.0088,-0.610928 -0.518845,0.622748 c -0.51647,0.619897 -0.516267,0.626369 0.04423,1.413508 0.386032,0.542132 0.625052,0.690471 0.760203,0.471793 0.149378,-0.241699 0.237648,-0.231597 0.364386,0.0417 0.09199,0.198367 0.117548,0.09278 0.0568,-0.234645 -0.06075,-0.327422 0.01134,-0.595313 0.160202,-0.595313 0.148862,0 0.214898,0.291691 0.146746,0.648203 -0.07569,0.395973 0.01526,0.701607 0.233739,0.785446 0.196708,0.07548 0.341437,0.408871 0.321619,0.74086 -0.03517,0.589142 -0.03871,0.589878 -0.147762,0.03067 -0.06145,-0.315118 -0.300404,-0.645342 -0.531004,-0.733832 -0.582088,-0.223368 -0.705626,-0.01916 -0.25875,0.42772 0.206012,0.206012 0.462823,0.652636 0.570691,0.992499 0.152006,0.478928 0.248223,0.53567 0.42773,0.252243 0.127384,-0.201129 0.246181,-0.663344 0.263993,-1.027146 0.02202,-0.449744 0.124796,-0.280372 0.3211,0.529166 0.284569,1.173536 0.291859,1.15075 0.507886,-1.5875 0.272972,-3.460062 0.130188,-4.912702 -0.74359,-7.565061 -0.882018,-2.677371 -0.786802,-4.713073 0.323377,-6.913736 0.986614,-1.955725 1.450651,-2.236464 2.330473,-1.409914 1.790565,1.682148 2.297191,5.586911 1.100292,8.480378 -0.391271,0.945886 -0.815786,2.612761 -0.943367,3.704167 -0.331877,2.839077 -0.535797,7.700911 -0.282984,6.746874 0.188249,-0.710391 0.213626,-0.7266 0.241642,-0.15434 0.06207,1.267757 0.268028,0.347265 0.706405,-3.157107 0.245466,-1.962246 0.717566,-4.432321 1.049112,-5.489057 0.993692,-3.167197 3.27062,-6.148453 4.695869,-6.148453 0.528459,0 0.98468,1.476294 0.986776,3.193123 0.0024,1.966814 -0.67043,3.676688 -2.231294,5.670418 -1.987361,2.538506 -3.136397,4.523011 -3.484031,6.017284 -0.394289,1.694813 0.168938,1.713988 1.159252,0.03946 1.845281,-3.120186 3.803325,-4.794768 6.625701,-5.666511 1.718985,-0.53094 4.143502,-0.686262 4.745536,-0.304013 0.864299,0.548767 -0.349592,3.302114 -2.310775,5.241315 -1.557859,1.540399 -3.222823,2.365548 -5.82583,2.887259 -1.236927,0.247912 -2.695443,0.676312 -3.241146,0.951998 -0.545703,0.275687 -0.995808,0.409532 -1.000233,0.297434 -0.0044,-0.112098 -0.135728,0.01585 -0.291785,0.284321 -0.26979,0.464137 -2.152446,1.478069 -2.767409,1.490428 -0.159013,0.0032 -0.813856,-0.291846 -1.455208,-0.655649 z m 2.162086,-0.330727 c 0.01248,-0.276606 0.07462,-0.329867 0.15434,-0.132292 0.170785,0.423248 0.362831,0.40715 1.014108,-0.08501 0.452827,-0.342194 0.471636,-0.434463 0.132292,-0.648993 -0.498449,-0.315112 -0.868271,-0.330319 -0.68144,-0.02802 0.07824,0.126592 -0.261016,0.222024 -0.753897,0.212071 -0.930864,-0.0188 -1.839767,0.502569 -1.587555,0.910657 0.07975,0.129033 0.495155,0.234605 0.923129,0.234605 0.556735,0 0.784078,-0.131742 0.799023,-0.463021 z M 81.11647,76.695919 c -0.09739,-0.157577 -0.275428,-0.225713 -0.395645,-0.151415 -0.120217,0.0743 -0.284261,-0.03608 -0.364543,-0.245294 -0.09561,-0.24916 -0.401818,-0.339918 -0.88762,-0.263087 l -0.741654,0.117294 0.661459,-0.407888 c 0.613965,-0.378602 0.618715,-0.396317 0.06614,-0.24673 -0.327422,0.08864 -0.595312,0.04238 -0.595312,-0.102785 0,-0.158895 -0.289586,-0.186216 -0.727604,-0.06865 -0.943103,0.253139 -2.335743,-0.03358 -2.243458,-0.461884 0.04486,-0.208211 -0.167486,-0.153256 -0.568018,0.147001 l -0.639663,0.479521 1.068327,0.191007 c 0.587581,0.105053 1.17061,0.127792 1.295622,0.05053 0.125012,-0.07726 0.227294,-0.01439 0.227294,0.139722 0,0.15411 0.267891,0.289426 0.595312,0.300705 0.327422,0.01128 1.190625,0.233333 1.918229,0.493455 1.387258,0.495952 1.623155,0.501001 1.331129,0.02849 z m 4.465835,-0.316492 c -0.09378,-0.151736 -0.306165,-0.126644 -0.534909,0.0632 -0.311381,0.258423 -0.346522,0.229235 -0.196065,-0.162848 0.126137,-0.328709 0.08676,-0.418033 -0.126235,-0.286392 -0.170251,0.105221 -0.309546,0.385634 -0.309546,0.62314 0,0.364335 -0.06431,0.351556 -0.411471,-0.08176 -0.397057,-0.495599 -0.401634,-0.493238 -0.130655,0.06739 0.247481,0.512009 0.374814,0.548211 1.072616,0.304956 0.435489,-0.151812 0.721808,-0.389268 0.636265,-0.52768 z m 2.59458,0.177718 c 0.47788,-0.214539 1.404654,-0.532695 2.059498,-0.707014 0.668601,-0.177982 0.993695,-0.362308 0.74147,-0.42041 -0.247035,-0.05691 -0.681618,0.02094 -0.96574,0.173002 -0.631057,0.337731 -0.847052,-0.05578 -0.636159,-1.158997 0.109913,-0.574972 0.06215,-0.699945 -0.204506,-0.53514 -0.253701,0.156796 -0.300732,0.09208 -0.173684,-0.239001 0.09582,-0.249711 0.06825,-0.388524 -0.06128,-0.308473 -0.393193,0.243006 -0.811491,1.706054 -0.536386,1.876077 0.309738,0.191429 0.329222,0.916276 0.02463,0.916276 -0.123283,0 -0.353349,-0.267891 -0.511259,-0.595313 -0.15791,-0.327422 -0.295167,-0.439457 -0.305016,-0.248968 -0.0098,0.190489 -0.128742,0.277844 -0.264208,0.194121 -0.135465,-0.08372 -0.316001,-0.03944 -0.40119,0.09839 -0.08519,0.137839 -0.03909,0.322188 0.102454,0.409664 0.141539,0.08748 0.190274,0.333828 0.1083,0.547449 -0.186114,0.485005 -0.06052,0.4848 1.023073,-0.0017 z M 75.007592,74.855223 c 0.08155,-0.13195 -0.09179,-0.177132 -0.385192,-0.100405 -0.394723,0.103222 -0.494081,0.03687 -0.382035,-0.255115 0.169497,-0.441701 -0.565637,-0.85024 -0.812165,-0.451349 -0.230211,0.372489 -0.716807,0.308207 -0.588171,-0.0777 0.06063,-0.181901 0.239228,-0.330729 0.396875,-0.330729 0.157648,0 0.37174,-0.08511 0.475761,-0.189128 0.10402,-0.104021 0.441364,-0.06753 0.749652,0.08109 0.549588,0.26494 0.549223,0.260314 -0.01866,-0.237101 -0.456969,-0.400261 -0.512801,-0.582174 -0.264583,-0.862074 0.262253,-0.295728 0.238041,-0.296862 -0.145504,-0.0068 -0.253059,0.191371 -0.39486,0.45352 -0.315114,0.582552 0.07975,0.129032 -0.100158,0.234604 -0.399788,0.234604 -0.368393,0 -0.544781,-0.171333 -0.544781,-0.529166 0,-0.291042 -0.119063,-0.529167 -0.264584,-0.529167 -0.145521,0 -0.264583,0.154781 -0.264583,0.343958 0,0.189177 -0.137683,0.481641 -0.305961,0.64992 -0.23156,0.231559 -0.487891,0.09966 -1.054107,-0.542396 -0.781067,-0.885687 -0.993184,-1.7715 -0.42587,-1.77845 0.238827,-0.0029 0.22913,-0.0684 -0.0349,-0.235619 -0.287274,-0.181945 -0.216401,-0.329344 0.330729,-0.687837 0.382995,-0.250948 0.686954,-0.591403 0.675466,-0.756568 -0.0144,-0.207032 -0.0608,-0.202198 -0.149386,0.01557 -0.07067,0.173726 -0.318931,0.24279 -0.551682,0.153475 -0.268888,-0.103182 -0.357551,-0.05619 -0.243173,0.128873 0.09901,0.160195 0.06723,0.360964 -0.07061,0.446153 -0.13784,0.08519 -0.333258,0.02117 -0.434264,-0.142257 -0.130118,-0.210535 -0.249946,-0.192513 -0.411106,0.06183 -0.167368,0.264142 -0.228529,0.271605 -0.23151,0.02825 -0.0022,-0.181901 -0.12512,-0.330729 -0.273092,-0.330729 -0.388398,0 0.915573,2.459749 1.895824,3.576193 1.307961,1.489685 3.593783,2.472673 4.046508,1.740148 z m 7.555874,-0.871342 c 0,-0.66314 -0.09525,-1.009891 -0.236205,-0.859895 -0.217409,0.231353 -0.09919,1.971145 0.133944,1.971145 0.05624,0 0.102261,-0.500062 0.102261,-1.11125 z m 11.488629,0.807978 c 0.366086,-0.1668 0.599213,-0.410707 0.518061,-0.542015 -0.08248,-0.133453 -0.31219,-0.102103 -0.520871,0.07109 -0.605664,0.502656 -0.426049,0.108715 0.201328,-0.441563 0.316056,-0.277216 0.495333,-0.367676 0.398394,-0.201023 -0.09694,0.166652 0.0017,0.371275 0.219103,0.454717 0.217446,0.08344 0.395356,0.02936 0.395356,-0.120183 0,-0.149542 0.103968,-0.207638 0.231041,-0.129103 0.296454,0.183219 2.744118,-2.397223 3.307771,-3.487208 0.236465,-0.457274 0.416126,-1.164742 0.399245,-1.572151 -0.01688,-0.407409 -0.08268,-0.54517 -0.14622,-0.306135 -0.07535,0.283472 -0.296642,0.387245 -0.636342,0.298412 -0.413338,-0.10809 -0.457217,-0.212826 -0.212631,-0.507534 0.261113,-0.314622 0.07001,-0.344142 -1.251195,-0.193276 -0.857658,0.09793 -1.76082,0.315709 -2.007027,0.483945 -0.384816,0.262948 -0.32911,0.312144 0.396875,0.350491 1.350307,0.07132 1.907661,0.240516 1.836712,0.557562 -0.03638,0.162571 0.02315,0.265817 0.132291,0.229437 0.242462,-0.08082 0.33073,0.156689 0.33073,0.889926 0,0.468602 -0.12633,0.540655 -0.779777,0.44475 -0.428877,-0.06295 -0.719507,-0.01693 -0.645843,0.102261 0.07366,0.11919 -0.08145,0.226109 -0.344703,0.237597 -0.280493,0.01224 -0.34104,0.07636 -0.146258,0.15489 0.182808,0.0737 0.279961,0.218814 0.215895,0.322474 -0.06406,0.103659 -0.01346,0.355171 0.112465,0.558915 0.177592,0.287351 0.301899,0.210332 0.554178,-0.343362 0.178878,-0.392593 0.425183,-0.713805 0.547346,-0.713805 0.399789,0 0.234522,0.3889 -0.503504,1.184828 -0.638545,0.688642 -0.737009,0.723396 -0.820547,0.289622 -0.0719,-0.373348 -0.147184,-0.408372 -0.310341,-0.144378 -0.118477,0.1917 -0.612434,0.476872 -1.097683,0.633716 -0.611949,0.197796 -0.908795,0.472302 -0.968842,0.895927 -0.07019,0.495153 -0.157826,0.551622 -0.463021,0.298333 -0.299235,-0.248344 -0.376449,-0.224377 -0.376449,0.116847 0,0.504257 0.506611,0.548756 1.434463,0.125999 z m -7.563991,-1.047331 c 0.191269,-0.306269 0.219909,-0.477836 0.06364,-0.38126 -0.184346,0.113932 -0.284116,-0.196053 -0.284116,-0.88274 0,-0.582083 0.119062,-1.131918 0.264583,-1.221855 0.145521,-0.08994 0.26276,-0.483916 0.260532,-0.87551 -0.003,-0.535877 -0.06418,-0.616946 -0.247125,-0.327747 -0.133691,0.211333 -0.176145,0.492535 -0.09434,0.624893 0.0818,0.132359 0.03035,0.316637 -0.114328,0.409508 -0.281914,0.18096 -0.615184,3.211564 -0.353169,3.211564 0.08611,0 0.313053,-0.250584 0.504321,-0.556853 z m -7.353239,-1.010127 c -0.149721,-0.279757 -0.600395,-0.76679 -1.001497,-1.082297 -0.401102,-0.315507 -0.669745,-0.605037 -0.596985,-0.643401 0.17472,-0.09212 -1.28789,-1.30312 -2.073181,-1.716533 -0.339885,-0.17893 -0.6853,-0.258001 -0.767589,-0.175712 -0.08229,0.08229 -0.280451,-0.02675 -0.44036,-0.242299 -0.325691,-0.43902 -3.167659,-0.823578 -4.190057,-0.566972 -0.353486,0.08872 -0.642701,0.342614 -0.642701,0.56421 0,0.531635 0.677521,0.519237 0.882971,-0.01616 0.129666,-0.337904 0.204917,-0.350714 0.388571,-0.06615 0.189847,0.294163 0.26568,0.294163 0.455526,0 0.184879,-0.286465 0.256959,-0.27683 0.382826,0.05117 0.145665,0.379598 1.209259,0.384123 1.818267,0.0077 0.119338,-0.07375 0.216977,-9.83e-4 0.216977,0.161714 0,0.162697 0.110836,0.227313 0.246302,0.143591 0.135465,-0.08372 0.322286,-0.02928 0.415157,0.120992 0.09287,0.150269 0.276195,0.206876 0.407387,0.125795 0.131192,-0.08108 0.610743,0.04506 1.065668,0.28031 0.59379,0.30706 0.790659,0.567227 0.697831,0.9222 -0.09268,0.354396 0.03123,0.519139 0.437403,0.581552 0.311691,0.04789 0.541614,0.219075 0.510941,0.380401 -0.03067,0.161327 0.14792,0.277562 0.396875,0.258302 0.248954,-0.01926 0.452645,0.143576 0.452645,0.361857 0,0.313061 0.581419,0.842483 1.133788,1.032391 0.0415,0.01427 -0.04704,-0.202949 -0.196765,-0.482705 z m 10.836934,0.211667 c 0,-0.209548 0.113104,-0.203113 0.384178,0.02186 0.533514,0.442777 1.488819,0.108317 1.275846,-0.446683 -0.143981,-0.375209 -0.190559,-0.365033 -0.364777,0.07969 -0.193659,0.494347 -0.200408,0.49376 -0.222369,-0.01935 -0.01884,-0.440185 -0.06578,-0.46243 -0.279128,-0.132292 -0.141064,0.218281 -0.267413,0.337344 -0.280775,0.264584 -0.01336,-0.07276 -0.06098,-0.318864 -0.105826,-0.546896 -0.05432,-0.276226 0.106976,-0.408687 0.483264,-0.396875 0.317446,0.01 0.535827,-0.127112 0.49865,-0.313 -0.03638,-0.181901 0.04918,-0.330729 0.190133,-0.330729 0.140954,0 0.180296,-0.20836 0.08743,-0.463021 -0.146977,-0.403036 -0.08948,-0.394467 0.443834,0.06615 0.475999,0.411112 0.640721,0.448703 0.738351,0.168499 0.106094,-0.304501 0.164579,-0.304501 0.375551,0 0.168697,0.243484 0.187762,0.145755 0.05868,-0.300791 -0.105166,-0.363802 -0.19234,-0.798935 -0.193721,-0.966962 -0.0014,-0.168027 -0.16126,-0.244585 -0.355288,-0.17013 -0.41941,0.160943 -0.472774,0.607925 -0.07258,0.607925 0.154109,0 0.195467,0.1371 0.0919,0.304666 -0.133163,0.215462 -0.279871,0.179424 -0.501072,-0.123085 -0.238082,-0.325598 -0.386403,-0.354126 -0.621071,-0.119457 -0.169561,0.169561 -0.308293,0.463074 -0.308293,0.652251 0,0.189177 -0.126089,0.343959 -0.280198,0.343959 -0.154109,0 -0.206614,-0.119063 -0.116677,-0.264584 0.41486,-0.671258 -0.175079,-0.154349 -0.969955,0.84988 -0.48517,0.612955 -0.713067,1.010142 -0.506436,0.882639 0.282976,-0.174614 0.333997,-0.123171 0.206741,0.208453 -0.09292,0.242153 -0.05362,0.440278 0.08733,0.440278 0.140954,0 0.256279,-0.133641 0.256279,-0.29698 z m 3.895786,-0.600195 c 0.112891,-0.11289 0.02666,-0.165568 -0.191619,-0.117061 -0.254556,0.05657 -0.368996,-0.07785 -0.319131,-0.374826 0.04276,-0.254662 -0.05356,-0.463021 -0.214052,-0.463021 -0.160489,0 -0.205707,0.139296 -0.100487,0.309546 0.127882,0.206917 0.04815,0.254609 -0.240495,0.143847 -0.237493,-0.09113 -0.503999,-0.04889 -0.592237,0.09388 -0.08824,0.142771 -0.0028,0.226868 0.189965,0.186883 0.192717,-0.03999 0.320892,0.07534 0.284832,0.256278 -0.06958,0.349121 0.825449,0.322245 1.183224,-0.03553 z m -9.496558,-2.449246 c -0.05037,-0.633322 0.0116,-1.151495 0.137709,-1.151495 0.12611,0 0.180641,-0.416719 0.121181,-0.926042 -0.05946,-0.509323 -0.004,-0.926041 0.123285,-0.926041 0.127268,0 0.209806,-0.327422 0.183419,-0.727605 -0.08493,-1.288042 0.0023,-1.95301 0.237281,-1.807814 0.126052,0.07791 0.202473,-0.331787 0.169824,-0.910427 -0.05716,-1.013026 0.207356,-1.407174 0.484095,-0.721342 0.0734,0.181901 0.141029,0.211667 0.150289,0.06615 0.0093,-0.145521 -0.08709,-0.428665 -0.214114,-0.62921 -0.317833,-0.501797 -0.895492,-0.08768 -0.734808,0.526779 0.07181,0.274618 0.01563,0.499306 -0.124857,0.499306 -0.140485,0 -0.169338,0.139296 -0.06412,0.309546 0.130433,0.211045 0.04432,0.253142 -0.270608,0.132292 -0.254055,-0.09749 -0.571243,-0.177255 -0.704862,-0.177255 -0.133619,0 -0.242943,-0.126089 -0.242943,-0.280198 0,-0.154109 0.110835,-0.211698 0.246301,-0.127976 0.135465,0.08372 0.332455,0.01282 0.437755,-0.157557 0.119571,-0.19347 0.07677,-0.238898 -0.114009,-0.120992 -0.171118,0.105756 -0.307246,0.03646 -0.309516,-0.157558 -0.0031,-0.266541 -0.0515,-0.271649 -0.210001,-0.02217 -0.179116,0.281936 -0.209611,1.602282 -0.08607,3.726335 0.02264,0.38919 0.146403,0.542407 0.340998,0.42214 0.188801,-0.116685 0.233662,-0.07261 0.117463,0.115406 -0.103401,0.167306 -0.227035,0.929843 -0.274742,1.694526 -0.05589,0.895921 -0.01019,1.202158 0.128525,0.861167 0.148072,-0.363994 0.232316,0.0076 0.269892,1.190625 0.03005,0.945885 0.108534,1.434293 0.174418,1.085349 0.06588,-0.348943 0.07858,-1.152615 0.02821,-1.785937 z m -0.461418,-5.489134 c -0.230158,-0.277324 -0.211168,-0.397656 0.08042,-0.509547 0.209952,-0.08057 0.445916,0.02078 0.524364,0.225211 0.198865,0.518233 -0.239585,0.724369 -0.60478,0.284336 z m -8.378796,6.42001 c -0.08121,-0.131406 -0.258496,-0.17042 -0.393962,-0.0867 -0.135465,0.08372 -0.248124,-0.0036 -0.250352,-0.194122 -0.0029,-0.252184 -0.07488,-0.238446 -0.264584,0.05053 -0.228677,0.348351 -0.291122,0.349287 -0.510729,0.0077 -0.137608,-0.214066 -0.345967,-0.287063 -0.463021,-0.162214 -0.117053,0.124848 -0.08088,0.274522 0.08038,0.332608 0.161265,0.05809 0.518115,0.270066 0.793,0.471067 0.523615,0.382877 1.304474,0.05883 1.009263,-0.418835 z m 13.375536,-2.03184 c 0.0039,-0.19049 0.113704,-0.28047 0.243976,-0.199957 0.130272,0.08051 0.305129,-0.03152 0.388571,-0.248969 0.169665,-0.442138 -0.236655,-0.545771 -0.495806,-0.126456 -0.0914,0.147895 -0.29542,0.18903 -0.45337,0.09141 -0.15795,-0.09762 -0.213371,-0.05806 -0.123159,0.08791 0.09021,0.145966 -0.06282,0.508876 -0.340062,0.806465 -0.277246,0.29759 -0.434756,0.6104 -0.350022,0.695134 0.08473,0.08473 0.0478,0.310412 -0.08208,0.501505 -0.129878,0.191093 0.08808,-0.01439 0.484345,-0.456627 0.396268,-0.442238 0.72369,-0.959924 0.727605,-1.150413 z m -1.682023,0.187579 c 0.183673,-0.06583 0.215695,-0.305776 0.08474,-0.634985 l -0.210493,-0.529167 -0.03719,0.529167 -0.03719,0.529166 -0.227391,-0.529166 c -0.1858,-0.43238 -0.230051,-0.35979 -0.241935,0.396875 -0.008,0.509323 0.07293,0.795066 0.179841,0.634985 0.106912,-0.160081 0.327242,-0.338675 0.489621,-0.396875 z m 3.689295,-2.379775 c 0.376133,-0.595832 0.621421,-1.145787 0.545085,-1.222122 -0.07634,-0.07634 0.01775,-0.295332 0.209075,-0.486659 0.792577,-0.792577 0.789796,-4.509675 -0.0039,-5.168357 -0.300264,-0.249197 -0.369198,-0.17394 -0.369198,0.403063 0,0.405605 0.11332,0.639434 0.264583,0.545949 0.150061,-0.09274 0.264584,0.129544 0.264584,0.513551 0,0.372391 -0.12609,0.677073 -0.280199,0.677073 -0.154109,0 -0.211698,0.110836 -0.127976,0.246302 0.08372,0.135465 0.04037,0.315432 -0.09635,0.399925 -0.136713,0.08449 -0.204089,0.598736 -0.149723,1.142762 0.06487,0.649134 0.02831,0.813892 -0.106355,0.479315 -0.180891,-0.449425 -0.224985,-0.458265 -0.372203,-0.07462 -0.09185,0.239362 -0.05025,0.507362 0.09245,0.595556 0.507281,0.313517 -0.188239,2.595239 -0.727956,2.38813 -0.243879,-0.09359 -0.310941,-0.02917 -0.190996,0.183473 0.144189,0.255617 0.106473,0.254951 -0.171466,-0.003 -0.485049,-0.450218 -0.795971,-0.416544 -0.610746,0.06615 0.284252,0.740749 1.130565,0.423504 1.831252,-0.686457 z m -3.491975,-0.107293 c 0.09277,-0.241753 4.19e-4,-0.396875 -0.236275,-0.396875 -0.213715,0 -0.388572,0.178593 -0.388572,0.396875 0,0.218281 0.106325,0.396875 0.236276,0.396875 0.129952,0 0.304809,-0.178594 0.388571,-0.396875 z M 77.070714,64.776382 c 0.159104,0 0.210938,-0.07834 0.115187,-0.174093 -0.09575,-0.09575 -0.0263,-0.363642 0.15434,-0.595313 0.28692,-0.367977 0.272703,-0.377639 -0.112481,-0.07644 -0.362314,0.283318 -0.461669,0.283318 -0.557338,0 -0.06403,-0.189628 -0.08513,-0.13642 -0.04688,0.118242 0.03825,0.254661 -0.03837,0.463021 -0.170265,0.463021 -0.131897,0 -0.239813,-0.238125 -0.239813,-0.529167 0,-0.293981 -0.176389,-0.529167 -0.396875,-0.529167 -0.474071,0 -0.471189,-0.02756 -0.106519,1.018538 0.159697,0.458105 0.397822,0.766501 0.529167,0.685325 0.131346,-0.08118 0.252621,0.0083 0.269502,0.198752 0.01688,0.190489 0.08514,0.137984 0.151692,-0.116677 0.06655,-0.254662 0.251176,-0.463021 0.41028,-0.463021 z m 10.919882,-0.254589 c -0.09063,-0.285545 -0.03493,-0.761795 0.123771,-1.058334 0.158703,-0.296538 0.227888,-0.53916 0.153744,-0.53916 -0.145375,0 -0.942145,1.456517 -0.942145,1.722267 0,0.08857 0.119063,0.08746 0.264583,-0.0025 0.145521,-0.08994 0.264584,-0.03743 0.264584,0.116677 0,0.154109 0.06755,0.280198 0.150121,0.280198 0.08257,0 0.07597,-0.233627 -0.01466,-0.519172 z M 83.1434,61.733674 c -0.127066,-0.72035 -0.09863,-0.759706 0.307542,-0.425597 0.390774,0.321446 0.426411,0.313054 0.280899,-0.06615 -0.304712,-0.794066 -0.84491,-0.468908 -0.943804,0.568098 -0.05258,0.551318 -0.0457,1.235927 0.01529,1.521354 0.184961,0.865661 0.507393,-0.649162 0.340074,-1.597709 z m 6.345625,0.796045 c 0.0715,0.0715 0.129997,-0.04347 0.129997,-0.255493 0,-0.594317 -0.666138,-0.711709 -0.956794,-0.168613 -0.306672,0.573022 -0.06316,0.924826 0.38353,0.554102 0.172299,-0.142995 0.371769,-0.201494 0.443267,-0.129996 z m -6.462538,-2.152035 c 0.683412,-0.06834 0.714849,-0.12272 0.232839,-0.402759 -0.85704,-0.497926 0.04048,-0.713361 1.044619,-0.250745 0.813825,0.374934 0.90049,0.511491 0.777142,1.224535 -0.127702,0.738215 -0.08041,0.799998 0.590004,0.770821 0.686057,-0.02986 0.733561,-0.111899 0.809379,-1.397853 0.05161,-0.875385 -0.02528,-1.366134 -0.214052,-1.366134 -0.162029,0 -0.208509,0.139296 -0.103288,0.309546 0.128635,0.208136 0.04707,0.254196 -0.248969,0.140596 -0.258943,-0.09937 -0.448881,-0.03616 -0.461166,0.153474 -0.01601,0.247145 -0.05186,0.245757 -0.153553,-0.0059 -0.150021,-0.371328 0.552202,-1.190052 0.804401,-0.937854 0.09008,0.09009 0.16379,-0.03854 0.16379,-0.285841 0,-0.689841 -1.41231,-3.327659 -1.785938,-3.335653 -0.367832,-0.0079 -1.389062,0.927019 -1.389062,1.271623 0,0.33666 1.146057,0.17792 1.263709,-0.175036 0.05682,-0.170453 0.232289,-0.309914 0.389937,-0.309914 0.157647,0 0.206997,0.07963 0.109666,0.176966 -0.09733,0.09733 0.03165,0.415454 0.286631,0.706939 0.254979,0.291485 0.31477,0.442948 0.132869,0.336585 -0.19426,-0.113589 -0.332401,-0.05047 -0.33478,0.152958 -0.0032,0.275897 -0.05032,0.273327 -0.231511,-0.01263 -0.168703,-0.266249 -0.277018,-0.278788 -0.419318,-0.04854 -0.105523,0.170739 -0.01798,0.451341 0.194538,0.62356 0.659613,0.53453 0.750736,1.206735 0.2033,1.499714 -0.672613,0.359972 -0.884656,0.338329 -0.726377,-0.07414 0.07716,-0.201075 -0.07756,-0.35851 -0.374285,-0.380862 -0.278199,-0.02096 -0.437528,0.07239 -0.354064,0.207438 0.08346,0.135047 -0.04301,0.170803 -0.281049,0.07946 -0.309579,-0.118797 -0.343114,-0.221511 -0.117786,-0.360772 0.240224,-0.148466 0.241312,-0.240241 0.0046,-0.386549 -0.170738,-0.105522 -0.36347,-0.138822 -0.428293,-0.074 -0.166285,0.166285 -0.234435,1.726263 -0.130091,2.977837 l 0.08823,1.058333 0.163608,-0.926041 c 0.08998,-0.509323 0.312435,-0.940925 0.494336,-0.959115 z m 7.586792,-0.131544 c -0.06359,-0.102884 0.03396,-0.240462 0.216768,-0.305729 0.182807,-0.06527 0.271067,-0.186355 0.196133,-0.269085 -0.07493,-0.08273 -0.432122,0.07376 -0.79375,0.347764 -0.637105,0.482726 -0.639603,0.496879 -0.08052,0.456147 0.31734,-0.02312 0.524958,-0.126213 0.461372,-0.229097 z"
       id="path11450" />
    <path
       style="fill:#635831"
       d="m 82.47804,63.38732 c -0.522751,-1.258744 -0.770459,-2.384736 -0.485937,-2.208892 0.133978,0.0828 0.305894,0.420201 0.382035,0.749773 0.07614,0.329573 0.26064,0.986176 0.409998,1.459119 0.149357,0.472942 0.221936,0.859895 0.161287,0.859895 -0.06065,0 -0.270972,-0.386953 -0.467383,-0.859895 z"
       id="path11351" />
    <path
       style="fill:#635831"
       d="m 75.055915,63.684976 c -0.39972,-1.998599 0.131773,-4.729427 0.920475,-4.729427 0.193142,0 0.125223,0.214222 -0.172072,0.542729 -0.39981,0.441785 -0.488536,0.958499 -0.477036,2.778125 0.0078,1.229468 -0.0129,2.235396 -0.04594,2.235396 -0.03303,0 -0.134479,-0.372071 -0.225429,-0.826823 z"
       id="path11350" />
    <path
       style="fill:#635831"
       d="m 83.243823,65.948108 c -0.09732,-0.38775 -0.125917,-0.756027 -0.06355,-0.818393 0.06237,-0.06237 0.193018,0.203857 0.290337,0.591607 0.09732,0.387751 0.125917,0.756028 0.06355,0.818394 -0.06237,0.06237 -0.193017,-0.203858 -0.290337,-0.591608 z"
       id="path11346" />
    <path
       style="fill:#635831"
       d="m 84.719368,69.263741 c -0.04105,-2.087334 0.40438,-4.294937 1.289019,-6.388491 0.805263,-1.905704 0.710597,-4.185486 -0.258895,-6.234805 -0.89042,-1.882178 -1.495569,-2.119205 -2.349338,-0.920196 -0.4865,0.683225 -1.191254,2.763835 -1.454361,4.293633 -0.06257,0.363802 -0.07684,0.03626 -0.03172,-0.727867 0.08504,-1.440106 1.095096,-3.94557 1.839763,-4.563589 1.100611,-0.913426 3.033786,2.362374 3.100801,5.254363 0.02588,1.116814 -0.185172,2.058176 -0.838783,3.74126 -0.675866,1.740391 -0.916769,2.847272 -1.065308,4.894791 l -0.191945,2.645833 z"
       id="path11331" />
    <path
       style="fill:#635831"
       d="m 81.810522,69.758302 c -0.148503,-0.775525 -0.348884,-2.005358 -0.445291,-2.732962 -0.254175,-1.918315 -1.815616,-4.920611 -3.436443,-6.607497 -0.766409,-0.797645 -1.190537,-1.341657 -0.942508,-1.208916 0.889199,0.475885 2.651921,2.642713 3.472904,4.269071 0.562346,1.114002 1.003737,2.605398 1.347876,4.554274 0.281439,1.59381 0.458104,2.951439 0.392588,3.016955 -0.06552,0.06552 -0.240622,-0.5154 -0.389126,-1.290925 z"
       id="path11330" />
    <path
       style="fill:#635831"
       d="M 78.594717,69.21987 C 76.129812,66.59739 74.93708,64.776382 75.6843,64.776382 c 0.145521,0 0.264583,0.186907 0.264583,0.415349 0,0.529502 1.39755,2.5703 2.193163,3.202608 0.816218,0.648683 2.669707,2.721865 2.540296,2.841395 -0.05679,0.05245 -0.996219,-0.854687 -2.087625,-2.015864 z"
       id="path11329" />
    <path
       style="fill:#635831"
       d="m 85.930172,70.398778 c 0.673409,-5.377888 1.90777,-8.545169 4.108535,-10.542201 1.327763,-1.204847 1.94733,-1.180295 2.30043,0.09116 0.686183,2.470827 0.09235,5.266176 -1.559738,7.342188 -0.579027,0.727604 -1.678856,2.255748 -2.444063,3.395876 -0.765207,1.140128 -1.439811,1.927383 -1.499121,1.749454 -0.05931,-0.177928 0.08615,-0.432067 0.32325,-0.564753 0.237096,-0.132686 0.431084,-0.377759 0.431084,-0.544608 0,-0.436398 1.34939,-2.362774 2.055807,-2.934852 0.33033,-0.26751 0.793427,-0.862823 1.029106,-1.322917 0.235678,-0.460093 0.5257,-0.899844 0.644492,-0.977222 0.298781,-0.194619 1.033418,-3.101558 1.03162,-4.082088 -0.0018,-0.977626 -0.481711,-2.789058 -0.738565,-2.787693 -0.471394,0.0025 -1.922173,1.105729 -2.330664,1.772317 -0.249493,0.40713 -0.742375,1.178019 -1.095293,1.713087 -0.352918,0.535067 -0.706715,1.457802 -0.786215,2.05052 -0.0795,0.592719 -0.226643,1.07767 -0.326984,1.07767 -0.100341,0 -0.407833,1.666875 -0.683315,3.704167 -0.275482,2.037291 -0.571896,3.704166 -0.658698,3.704166 -0.0868,0 0.0024,-1.279922 0.198332,-2.84427 z"
       id="path11320" />
    <path
       style="fill:#635831"
       d="m 88.464119,73.345933 c 1.564332,-2.744469 3.80877,-4.506654 6.698714,-5.259389 2.262165,-0.589219 4.598549,-0.504352 4.598549,0.167038 0,0.135071 -0.257341,0.10786 -0.571869,-0.06047 -0.773762,-0.414105 -3.712066,-0.09656 -5.201024,0.562074 -2.049607,0.906639 -3.755681,2.37136 -4.971553,4.268243 -1.400636,2.185135 -1.721053,2.37206 -0.552817,0.322504 z"
       id="path11313" />
    <path
       style="fill:#635831"
       d="m 81.966877,74.499819 c -0.07101,-0.327422 -0.209078,-0.783828 -0.306814,-1.014236 -0.109367,-0.257828 -0.04614,-0.418865 0.164413,-0.418772 0.207606,9.2e-5 0.370635,0.398858 0.414653,1.014236 0.07998,1.118089 -0.07041,1.349416 -0.272252,0.418772 z"
       id="path11310" />
    <path
       style="fill:#635831"
       d="m 93.675966,75.062477 c 0.654843,-0.288444 1.632748,-0.828985 2.173121,-1.201204 1.149892,-0.792065 3.019422,-3.17387 3.267701,-4.163093 0.154297,-0.61477 0.64839,-0.991837 0.642111,-0.490027 -0.0066,0.52808 -1.664127,2.966948 -2.685411,3.951304 -1.135385,1.094331 -3.535441,2.48235 -4.229697,2.446152 -0.197148,-0.01028 0.177331,-0.254689 0.832175,-0.543132 z"
       id="path11307" />
    <path
       style="fill:#635831"
       d="m 89.574924,76.153461 c 0.291042,-0.125065 0.767292,-0.223891 1.058334,-0.219614 0.425393,0.0063 0.399449,0.04932 -0.132292,0.219614 -0.904655,0.289721 -1.600259,0.289721 -0.926042,0 z"
       id="path11302" />
    <path
       style="fill:#635831"
       d="m 87.738417,76.823338 c 0.282475,-0.213654 0.692184,-0.391514 0.910466,-0.395245 0.218281,-0.0037 0.05584,0.171075 -0.360973,0.38846 -0.964948,0.503255 -1.209884,0.506279 -0.549493,0.0068 z"
       id="path11299" />
    <path
       style="fill:#635831"
       d="M 79.435949,76.932066 C 79.098262,76.796661 77.712701,76.459266 76.356924,76.182299 72.477923,75.38987 70.17425,73.569171 68.671691,70.108303 L 68.17225,68.957934 68.819421,68.46794 c 2.044068,-1.54763 6.392302,-0.435244 9.013603,2.3059 1.281608,1.340203 3.530507,4.585875 3.177514,4.585875 -0.217753,0 -1.622071,-2.03481 -1.622071,-2.350325 0,-0.428371 -3.170455,-3.387288 -4.251519,-3.967851 -1.433443,-0.769801 -4.567731,-1.07251 -5.803767,-0.560527 -0.922792,0.382233 -0.90268,0.644053 0.208761,2.717681 1.394575,2.601873 3.794468,4.18612 7.310822,4.82611 1.837483,0.334429 4.376265,1.147891 3.594036,1.151581 -0.218281,0.001 -0.673164,-0.108914 -1.010851,-0.244318 z"
       id="path11298" />
    <path
       style="fill:#635831"
       d="m 81.963935,78.094818 c -0.544565,-0.387465 -0.929634,-0.764965 -0.855709,-0.838891 0.07393,-0.07393 0.401892,0.116876 0.728815,0.424004 0.326923,0.307128 0.892,0.677082 1.255728,0.82212 0.363727,0.145038 0.481314,0.271252 0.261304,0.280476 -0.22001,0.0092 -0.845572,-0.300245 -1.390138,-0.687709 z"
       id="path11291" />
    <path
       style="fill:#635831"
       d="m 84.167689,78.964722 c 0.08196,-0.08512 0.736802,-0.464089 1.455209,-0.842141 0.718406,-0.378053 1.127599,-0.505093 0.909318,-0.282312 -0.218281,0.222782 -0.873125,0.601745 -1.455208,0.842141 -0.582083,0.240397 -0.991277,0.367437 -0.909319,0.282312 z"
       id="path11290" />
    <path
       style="fill:#336c31"
       d="m 82.47804,63.38732 c -0.522751,-1.258744 -0.770459,-2.384736 -0.485937,-2.208892 0.133978,0.0828 0.305894,0.420201 0.382035,0.749773 0.07614,0.329573 0.26064,0.986176 0.409998,1.459119 0.149357,0.472942 0.221936,0.859895 0.161287,0.859895 -0.06065,0 -0.270972,-0.386953 -0.467383,-0.859895 z"
       id="path11033" />
    <path
       style="fill:#336c31"
       d="m 75.055915,63.684976 c -0.39972,-1.998599 0.131773,-4.729427 0.920475,-4.729427 0.193142,0 0.125223,0.214222 -0.172072,0.542729 -0.39981,0.441785 -0.488536,0.958499 -0.477036,2.778125 0.0078,1.229468 -0.0129,2.235396 -0.04594,2.235396 -0.03303,0 -0.134479,-0.372071 -0.225429,-0.826823 z"
       id="path11032" />
    <path
       style="fill:#336c31"
       d="m 83.243823,65.948108 c -0.09732,-0.38775 -0.125917,-0.756027 -0.06355,-0.818393 0.06237,-0.06237 0.193018,0.203857 0.290337,0.591607 0.09732,0.387751 0.125917,0.756028 0.06355,0.818394 -0.06237,0.06237 -0.193017,-0.203858 -0.290337,-0.591608 z"
       id="path11028" />
    <path
       style="fill:#336c31"
       d="m 84.719368,69.263741 c -0.04105,-2.087334 0.40438,-4.294937 1.289019,-6.388491 0.805263,-1.905704 0.710597,-4.185486 -0.258895,-6.234805 -0.89042,-1.882178 -1.495569,-2.119205 -2.349338,-0.920196 -0.4865,0.683225 -1.191254,2.763835 -1.454361,4.293633 -0.06257,0.363802 -0.07684,0.03626 -0.03172,-0.727867 0.08504,-1.440106 1.095096,-3.94557 1.839763,-4.563589 1.100611,-0.913426 3.033786,2.362374 3.100801,5.254363 0.02588,1.116814 -0.185172,2.058176 -0.838783,3.74126 -0.675866,1.740391 -0.916769,2.847272 -1.065308,4.894791 l -0.191945,2.645833 z"
       id="path11016" />
    <path
       style="fill:#336c31"
       d="m 81.810522,69.758302 c -0.148503,-0.775525 -0.348884,-2.005358 -0.445291,-2.732962 -0.254175,-1.918315 -1.815616,-4.920611 -3.436443,-6.607497 -0.766409,-0.797645 -1.190537,-1.341657 -0.942508,-1.208916 0.889199,0.475885 2.651921,2.642713 3.472904,4.269071 0.562346,1.114002 1.003737,2.605398 1.347876,4.554274 0.281439,1.59381 0.458104,2.951439 0.392588,3.016955 -0.06552,0.06552 -0.240622,-0.5154 -0.389126,-1.290925 z"
       id="path11015" />
    <path
       style="fill:#336c31"
       d="M 78.594717,69.21987 C 76.129812,66.59739 74.93708,64.776382 75.6843,64.776382 c 0.145521,0 0.264583,0.186907 0.264583,0.415349 0,0.529502 1.39755,2.5703 2.193163,3.202608 0.816218,0.648683 2.669707,2.721865 2.540296,2.841395 -0.05679,0.05245 -0.996219,-0.854687 -2.087625,-2.015864 z"
       id="path11014" />
    <path
       style="fill:#336c31"
       d="m 85.930172,70.398778 c 0.673409,-5.377888 1.90777,-8.545169 4.108535,-10.542201 1.327763,-1.204847 1.94733,-1.180295 2.30043,0.09116 0.686183,2.470827 0.09235,5.266176 -1.559738,7.342188 -0.579027,0.727604 -1.678856,2.255748 -2.444063,3.395876 -0.765207,1.140128 -1.439811,1.927383 -1.499121,1.749454 -0.05931,-0.177928 0.08615,-0.432067 0.32325,-0.564753 0.237096,-0.132686 0.431084,-0.377759 0.431084,-0.544608 0,-0.436398 1.34939,-2.362774 2.055807,-2.934852 0.33033,-0.26751 0.793427,-0.862823 1.029106,-1.322917 0.235678,-0.460093 0.5257,-0.899844 0.644492,-0.977222 0.298781,-0.194619 1.033418,-3.101558 1.03162,-4.082088 -0.0018,-0.977626 -0.481711,-2.789058 -0.738565,-2.787693 -0.471394,0.0025 -1.922173,1.105729 -2.330664,1.772317 -0.249493,0.40713 -0.742375,1.178019 -1.095293,1.713087 -0.352918,0.535067 -0.706715,1.457802 -0.786215,2.05052 -0.0795,0.592719 -0.226643,1.07767 -0.326984,1.07767 -0.100341,0 -0.407833,1.666875 -0.683315,3.704167 -0.275482,2.037291 -0.571896,3.704166 -0.658698,3.704166 -0.0868,0 0.0024,-1.279922 0.198332,-2.84427 z"
       id="path11005" />
    <path
       style="fill:#336c31"
       d="m 88.464119,73.345933 c 1.564332,-2.744469 3.80877,-4.506654 6.698714,-5.259389 2.262165,-0.589219 4.598549,-0.504352 4.598549,0.167038 0,0.135071 -0.257341,0.10786 -0.571869,-0.06047 -0.773762,-0.414105 -3.712066,-0.09656 -5.201024,0.562074 -2.049607,0.906639 -3.755681,2.37136 -4.971553,4.268243 -1.400636,2.185135 -1.721053,2.37206 -0.552817,0.322504 z"
       id="path10998" />
    <path
       style="fill:#336c31"
       d="m 81.966877,74.499819 c -0.07101,-0.327422 -0.209078,-0.783828 -0.306814,-1.014236 -0.109367,-0.257828 -0.04614,-0.418865 0.164413,-0.418772 0.207606,9.2e-5 0.370635,0.398858 0.414653,1.014236 0.07998,1.118089 -0.07041,1.349416 -0.272252,0.418772 z"
       id="path10995" />
    <path
       style="fill:#336c31"
       d="m 93.675966,75.062477 c 0.654843,-0.288444 1.632748,-0.828985 2.173121,-1.201204 1.149892,-0.792065 3.019422,-3.17387 3.267701,-4.163093 0.154297,-0.61477 0.64839,-0.991837 0.642111,-0.490027 -0.0066,0.52808 -1.664127,2.966948 -2.685411,3.951304 -1.135385,1.094331 -3.535441,2.48235 -4.229697,2.446152 -0.197148,-0.01028 0.177331,-0.254689 0.832175,-0.543132 z"
       id="path10992" />
    <path
       style="fill:#336c31"
       d="m 89.574924,76.153461 c 0.291042,-0.125065 0.767292,-0.223891 1.058334,-0.219614 0.425393,0.0063 0.399449,0.04932 -0.132292,0.219614 -0.904655,0.289721 -1.600259,0.289721 -0.926042,0 z"
       id="path10987" />
    <path
       style="fill:#336c31"
       d="m 87.738417,76.823338 c 0.282475,-0.213654 0.692184,-0.391514 0.910466,-0.395245 0.218281,-0.0037 0.05584,0.171075 -0.360973,0.38846 -0.964948,0.503255 -1.209884,0.506279 -0.549493,0.0068 z"
       id="path10984" />
    <path
       style="fill:#336c31"
       d="M 79.435949,76.932066 C 79.098262,76.796661 77.712701,76.459266 76.356924,76.182299 72.477923,75.38987 70.17425,73.569171 68.671691,70.108303 L 68.17225,68.957934 68.819421,68.46794 c 2.044068,-1.54763 6.392302,-0.435244 9.013603,2.3059 1.281608,1.340203 3.530507,4.585875 3.177514,4.585875 -0.217753,0 -1.622071,-2.03481 -1.622071,-2.350325 0,-0.428371 -3.170455,-3.387288 -4.251519,-3.967851 -1.433443,-0.769801 -4.567731,-1.07251 -5.803767,-0.560527 -0.922792,0.382233 -0.90268,0.644053 0.208761,2.717681 1.394575,2.601873 3.794468,4.18612 7.310822,4.82611 1.837483,0.334429 4.376265,1.147891 3.594036,1.151581 -0.218281,0.001 -0.673164,-0.108914 -1.010851,-0.244318 z"
       id="path10983" />
    <path
       style="fill:#336c31"
       d="m 81.963935,78.094818 c -0.544565,-0.387465 -0.929634,-0.764965 -0.855709,-0.838891 0.07393,-0.07393 0.401892,0.116876 0.728815,0.424004 0.326923,0.307128 0.892,0.677082 1.255728,0.82212 0.363727,0.145038 0.481314,0.271252 0.261304,0.280476 -0.22001,0.0092 -0.845572,-0.300245 -1.390138,-0.687709 z"
       id="path10976" />
    <path
       style="fill:#336c31"
       d="m 84.167689,78.964722 c 0.08196,-0.08512 0.736802,-0.464089 1.455209,-0.842141 0.718406,-0.378053 1.127599,-0.505093 0.909318,-0.282312 -0.218281,0.222782 -0.873125,0.601745 -1.455208,0.842141 -0.582083,0.240397 -0.991277,0.367437 -0.909319,0.282312 z"
       id="path10975" />
  </g>
</svg>
