<?xml version="1.0" encoding="UTF-8" standalone="no"?>
<!-- Created with Inkscape (http://www.inkscape.org/) -->

<svg
   width="185"
   height="185"
   viewBox="0 0 48.947914 48.947918"
   version="1.1"
   id="svg1"
   xmlns="http://www.w3.org/2000/svg"
   xmlns:svg="http://www.w3.org/2000/svg">
  <defs
     id="defs1" />
  <g
     id="layer1">
    <g
       id="g25109"
       style="display:inline;stroke-width:1.32879"
       transform="matrix(0.75256473,0,0,0.75256473,-50.885586,-143.33622)">
      <path
         style="fill:#d6c5ac;stroke-width:1.32879"
         d="m 89.405543,255.34236 c -3.851663,-0.23868 -6.922305,-0.69631 -7.150598,-1.0657 -0.305606,-0.49448 5.124814,-1.13696 12.243827,-1.44858 l 3.770312,-0.16504 0.03069,0.61391 c 0.02258,0.45173 0.06277,0.49103 0.152104,0.14875 0.175223,-0.67132 -0.35871,-2.11116 -1.227753,-3.31084 l -0.753123,-1.03965 -3.299191,0.12709 c -4.952077,0.19077 -8.457432,-0.72694 -12.597052,-3.29794 -2.252605,-1.39903 -7.15541,-6.04239 -6.762509,-6.40466 0.389019,-0.35869 2.718199,-1.03665 4.733651,-1.37785 2.192002,-0.37108 7.062248,-0.16483 9.05024,0.38328 1.700667,0.46888 4.121662,1.56601 5.064432,2.29505 1.723744,1.33297 3.933681,3.71518 5.118829,5.51786 l 1.28343,1.95218 v -3.72568 -3.72568 l -0.992187,-0.28833 c -0.545704,-0.15859 -2.730277,-0.75104 -4.854607,-1.31657 -6.920811,-1.84241 -10.382178,-3.57295 -13.940387,-6.96961 -1.865659,-1.78095 -5.150167,-5.94535 -4.947633,-6.27305 0.256311,-0.41472 4.780639,-0.84819 7.636145,-0.7316 6.936694,0.28321 11.877491,3.53897 16.152784,10.64393 l 0.945885,1.57194 v -4.25752 -4.25753 l -1.377506,-0.33046 c -5.06476,-1.21501 -10.648816,-3.67684 -13.492941,-5.9486 -1.894872,-1.51353 -3.892582,-4.13166 -5.241494,-6.86931 -1.225759,-2.48771 -1.241138,-2.46737 1.88718,-2.49623 8.036227,-0.0741 13.695456,3.35616 17.339375,10.51011 l 0.903817,1.77442 -0.05535,-3.8519 -0.05535,-3.85191 -2.081329,-0.71779 c -4.019801,-1.38632 -6.007826,-2.52425 -8.155752,-4.66829 -1.393701,-1.39117 -2.257451,-2.53269 -2.865851,-3.78745 -0.808081,-1.66659 -1.88605,-4.91158 -1.88605,-5.67755 0,-0.85436 4.71162,0.002 7.626779,1.38672 2.608478,1.23876 4.653778,3.33017 6.118321,6.25623 0.604197,1.20715 1.135601,2.23188 1.180896,2.27717 0.0453,0.0453 0.05879,-0.52745 0.02998,-1.27278 -0.04441,-1.14906 -0.221682,-1.57192 -1.16563,-2.78055 -0.612288,-0.78397 -1.490663,-2.23142 -1.951944,-3.21656 -1.495774,-3.19448 -1.290747,-7.44139 0.56866,-11.77919 0.296295,-0.69123 0.657552,-1.25677 0.802793,-1.25677 0.48853,0 3.053184,2.26826 4.056094,3.58734 2.76835,3.64107 3.02695,8.32712 0.6903,12.5093 -0.43398,0.77675 -0.75237,1.65953 -0.70754,1.96174 0.0546,0.36776 0.55184,-0.39877 1.50381,-2.31801 1.64583,-3.31811 3.11806,-4.96797 5.51103,-6.17594 1.74233,-0.87952 4.32756,-1.62693 5.62744,-1.62693 0.80967,0 0.83598,0.0337 0.67067,0.85989 -1.43389,7.16638 -3.58304,9.8382 -11.31322,14.06457 l -1.78594,0.97643 v 3.33844 c 0,1.83615 0.0476,3.28883 0.10585,3.2282 0.0582,-0.0606 0.40124,-0.84007 0.76228,-1.73208 2.70386,-6.68022 9.18178,-10.94587 16.62269,-10.94587 h 1.83385 l -0.17526,0.7276 c -0.56783,2.35736 -2.2894,5.6738 -4.18476,8.06153 -2.37219,2.98843 -7.38538,6.09518 -12.2985,7.62157 l -2.66615,0.82831 v 4.51461 4.51462 l 0.82498,-1.5586 c 2.6009,-4.91382 5.91537,-8.57476 9.37645,-10.3566 3.38335,-1.74182 5.70066,-2.2798 9.83325,-2.28285 1.92402,-10e-4 3.57976,0.079 3.67942,0.17863 0.59739,0.59739 -3.15135,6.3234 -5.73634,8.76195 -3.36836,3.17754 -6.67183,4.92577 -13.36278,7.07171 l -4.35039,1.39528 -0.004,3.18664 c -0.002,1.75265 -0.0701,3.4843 -0.15129,3.8481 -0.0812,0.3638 0.241,-0.0334 0.71606,-0.88276 1.11515,-1.9937 3.86082,-4.9517 5.85029,-6.30272 2.90949,-1.97579 7.36409,-3.40464 10.57688,-3.39261 3.02946,0.0113 7.58522,1.04314 7.81747,1.77052 0.16316,0.51099 -4.27144,4.92468 -6.34748,6.31755 -3.77214,2.53083 -8.09057,3.94977 -13.0292,4.28109 l -2.88128,0.1933 -0.90375,1.25948 c -0.93668,1.30537 -1.81272,3.63531 -1.36684,3.63531 0.13856,0 0.25192,-0.2516 0.25192,-0.55912 0,-0.55241 0.0485,-0.557 4.0349,-0.38198 4.29055,0.18837 10.40177,0.85317 11.02331,1.19916 0.52021,0.28958 -0.0357,0.44193 -3.4187,0.93686 -3.34982,0.49008 -18.860925,0.73655 -24.471798,0.38887 z m 11.575517,-1.24602 c -0.47294,-0.0587 -1.246846,-0.0587 -1.719788,0 -0.472943,0.0587 -0.08599,0.10671 0.859898,0.10671 0.94588,0 1.33284,-0.048 0.85989,-0.10671 z"
         id="path25099" />
      <path
         style="fill:#da9d94;stroke-width:1.32879"
         d="m 98.651813,253.29554 c -0.244956,-1.13871 -0.894171,-2.54877 -1.55517,-3.37774 l -0.604622,-0.75827 -4.204697,-0.0304 c -3.618522,-0.0262 -4.462896,-0.11514 -6.056781,-0.63794 -4.189636,-1.37422 -7.851925,-3.72644 -10.859406,-6.9748 -1.730453,-1.86904 -1.737508,-1.8829 -1.122652,-2.20506 2.52274,-1.3218 9.637674,-1.76475 13.172683,-0.82009 4.074329,1.08878 7.648399,3.78502 10.327957,7.79129 l 1.313709,1.96416 v -3.71513 -3.71513 l -1.785937,-0.51641 c -0.982266,-0.28403 -3.393281,-0.94315 -5.357813,-1.46471 -7.456134,-1.97953 -12.540573,-5.4159 -16.621697,-11.23394 -1.281905,-1.82748 -1.351312,-1.72574 1.458838,-2.13837 4.763294,-0.69942 9.170108,-0.11374 12.764702,1.69647 3.027652,1.5247 5.813731,4.2988 8.234944,8.19953 l 1.306963,2.10561 v -4.27822 -4.27822 L 97.938355,228.6278 C 87.336159,225.98472 81.667128,222.00286 78.585406,215.03454 l -0.648482,-1.46633 1.209888,-0.18143 c 0.665438,-0.0998 2.233846,-0.10325 3.485351,-0.008 4.46513,0.34094 7.671918,1.51487 10.477546,3.83561 1.940363,1.60501 3.161536,3.1822 4.73897,6.12055 l 1.205313,2.24519 0.0037,-3.83646 0.0037,-3.83646 -2.182125,-0.76467 c -5.610988,-1.96623 -8.845233,-4.39099 -10.721518,-8.03809 -1.028463,-1.99911 -1.700812,-3.82293 -2.046332,-5.55088 -0.170147,-0.85091 -0.161351,-0.85985 0.841266,-0.8553 1.797894,0.008 4.667709,0.75785 6.666686,1.74158 2.6466,1.30243 4.62823,3.34856 6.142045,6.34195 l 1.169061,2.31168 0.08257,-1.27835 c 0.06374,-0.98675 -0.04359,-1.43355 -0.470507,-1.95876 -4.102854,-5.04743 -4.768789,-9.74254 -2.216542,-15.62753 0.3791,-0.87413 0.782081,-1.58933 0.895513,-1.58933 0.397787,0 2.815171,2.06623 3.648781,3.11874 0.46313,0.58474 1.22816,1.87841 1.70007,2.87482 0.77045,1.62673 0.85789,2.0547 0.85666,4.1929 -0.001,2.59768 -0.48717,4.44083 -1.60376,6.08622 -0.35411,0.5218 -0.64383,1.32726 -0.64383,1.78991 0,0.68699 0.27105,0.29023 1.47866,-2.16446 1.79773,-3.65422 3.14889,-5.11809 5.95239,-6.44893 1.89788,-0.90095 4.08269,-1.5117 5.40765,-1.5117 0.57931,0 0.62682,0.0838 0.48781,0.85989 -1.21133,6.76328 -4.07415,10.39161 -10.89099,13.80319 -1.06156,0.53127 -1.98827,1.11752 -2.05936,1.30277 -0.0711,0.18526 -0.0955,1.74911 -0.0543,3.47522 l 0.075,3.1384 0.64117,-1.5663 c 2.12412,-5.18896 6.51968,-9.17503 11.66195,-10.57556 1.39939,-0.38113 6.87917,-0.86063 6.87917,-0.60195 0,0.33007 -1.31136,3.92721 -1.72504,4.7319 -0.83348,1.62127 -2.46331,3.87181 -3.79134,5.23524 -2.48511,2.55137 -7.34467,5.30128 -11.47432,6.49305 l -2.19159,0.63248 -0.0628,4.59364 -0.0628,4.59365 0.99007,-1.85208 c 2.77552,-5.19206 5.7528,-8.36076 9.67679,-10.29895 3.29561,-1.62781 5.35376,-2.07612 9.51282,-2.07207 1.86188,0.002 3.46191,0.08 3.55563,0.17369 0.44461,0.44461 -2.52421,5.28843 -4.68874,7.65 -3.24349,3.53872 -6.93809,5.63811 -14.09223,8.00762 l -4.69635,1.55547 -0.003,2.78378 c -0.002,1.53109 -0.0734,3.26004 -0.1596,3.84212 l -0.15668,1.05834 1.01608,-1.7198 c 1.53592,-2.59966 4.81347,-5.73691 7.3729,-7.05729 4.30889,-2.22291 8.1276,-2.86307 12.51596,-2.09814 2.66042,0.46374 4.28508,1.02306 4.28508,1.47522 0,0.15636 -0.98227,1.30894 -2.18281,2.56129 -4.74574,4.95052 -10.20701,7.44801 -17.41836,7.96561 l -2.73104,0.19602 -0.87016,1.14206 c -0.47858,0.62813 -1.05822,1.78899 -1.28808,2.57969 l -0.41793,1.43763 h -1.43139 c -1.347188,0 -1.440602,-0.0428 -1.587914,-0.72761 z"
         id="path25086" />
      <path
         style="fill:#df7a83;stroke-width:1.32879"
         d="m 98.654382,253.16325 c -0.244227,-1.12961 -1.284033,-3.17619 -1.854102,-3.6493 -0.342605,-0.28434 -1.41833,-0.38095 -4.45241,-0.39986 -4.652533,-0.029 -5.951084,-0.31419 -9.615481,-2.11171 -2.79343,-1.37028 -5.677005,-3.55915 -7.681255,-5.83069 l -1.383789,-1.56833 1.01816,-0.4565 c 2.844361,-1.27529 9.139218,-1.56193 12.883489,-0.58667 4.343002,1.1312 8.636008,4.65598 10.933237,8.97675 l 0.560603,1.05441 v -3.89018 -3.89018 l -2.182812,-0.65028 c -1.200547,-0.35766 -3.191899,-0.90504 -4.425227,-1.2164 -4.820948,-1.21708 -8.314366,-2.80004 -11.372396,-5.15315 -1.749893,-1.34651 -4.256958,-4.04269 -5.858992,-6.30096 -1.198315,-1.68918 -1.276625,-1.59812 1.74672,-2.03098 4.711325,-0.67454 8.736727,-0.1151 12.567708,1.74661 3.004451,1.46006 6.859047,5.478 8.85307,9.22824 l 0.671929,1.26373 v -4.39484 -4.39483 l -1.124479,-0.28895 c -7.64041,-1.96326 -12.164214,-4.23006 -15.448518,-7.74099 -2.27089,-2.42759 -4.758424,-6.73346 -4.206357,-7.28112 0.103933,-0.1031 1.577353,-0.16898 3.274266,-0.14639 7.873863,0.1048 13.182201,3.4716 16.60991,10.5348 l 0.895178,1.84462 v -3.96217 -3.96216 l -1.785937,-0.6124 c -0.982266,-0.33681 -2.91642,-1.15692 -4.29812,-1.82247 -4.297456,-2.07002 -7.097644,-5.51466 -8.449965,-10.39467 -0.300975,-1.0861 -0.547227,-2.06643 -0.547227,-2.17849 0,-0.69157 5.064147,0.33029 7.569589,1.52741 2.91642,1.3935 5.7833,4.60514 6.830878,7.65234 0.507644,1.47664 0.680782,1.39969 0.680782,-0.30257 0,-1.29576 -0.105581,-1.68401 -0.569606,-2.09462 -1.012953,-0.89633 -2.599524,-3.59657 -3.138465,-5.34146 -0.891193,-2.88534 -0.653919,-5.8041 0.779298,-9.58626 0.890505,-2.34998 0.845466,-2.32756 2.393365,-1.1913 1.630644,1.197 3.152814,3.14206 4.151354,5.30468 1.30748,2.83171 0.94175,7.09441 -0.85254,9.93676 -0.35571,0.56347 -0.6443,1.41382 -0.64132,1.88965 0.005,0.72619 0.23702,0.39034 1.44722,-2.09082 1.5974,-3.27498 3.07979,-5.01102 5.3106,-6.21928 1.43584,-0.77767 4.84556,-1.80495 5.99097,-1.80495 0.67463,0 0.71535,0.0612 0.5723,0.85989 -1.20887,6.74957 -3.94223,10.22611 -10.78985,13.72356 l -2.26968,1.15925 -10e-4,3.38906 c -7.7e-4,2.19228 0.0922,3.3313 0.26339,3.22553 0.14552,-0.0899 0.26458,-0.34668 0.26458,-0.57053 0,-0.22385 0.50209,-1.37768 1.11576,-2.56407 1.52009,-2.93874 4.57435,-6.00731 7.35091,-7.38534 2.54053,-1.26089 4.51554,-1.76072 7.77018,-1.96646 l 2.6108,-0.16504 -0.19332,0.63718 c -1.54299,5.08562 -4.48227,9.25512 -8.40961,11.9294 -2.14229,1.45878 -6.12287,3.33605 -8.57174,4.04252 l -2.06985,0.59712 -0.0639,4.60178 -0.0639,4.60177 1.12223,-2.07591 c 0.61723,-1.14174 1.89614,-3.10383 2.84202,-4.36018 2.78588,-3.7003 5.77312,-5.77131 10.15703,-7.04171 2.00868,-0.58209 2.85462,-0.67741 6.01215,-0.67741 2.02102,0 3.67399,0.0893 3.67328,0.19844 -0.003,0.49889 -2.02933,4.07635 -3.21525,5.67719 -3.48422,4.70324 -7.68768,7.3246 -16.02079,9.9909 l -4.23298,1.3544 -0.17109,2.41039 c -0.0941,1.32571 -0.1711,3.074 -0.1711,3.88508 v 1.47469 l 0.99219,-1.71373 c 0.5457,-0.94255 1.95272,-2.68279 3.12671,-3.8672 1.77348,-1.78921 2.55666,-2.35714 4.63021,-3.35764 3.58158,-1.72812 5.33177,-2.13851 8.97798,-2.10515 2.35592,0.0216 3.51589,0.16759 5.13907,0.647 1.15299,0.34055 2.14015,0.75292 2.19368,0.91639 0.14638,0.44699 -3.75283,4.47069 -5.63146,5.81126 -3.87636,2.76611 -8.73857,4.44672 -13.81429,4.77487 -2.60249,0.16826 -2.75274,0.21108 -3.38758,0.96554 -0.83492,0.99225 -1.57756,2.44746 -1.81836,3.56309 -0.18124,0.83964 -0.21889,0.8599 -1.59877,0.8599 -1.379814,0 -1.417552,-0.0203 -1.599078,-0.8599 z"
         id="path25073" />
      <path
         style="fill:#b06034;stroke-width:1.32879"
         d="m 98.654693,253.16325 c -0.238413,-1.10456 -1.089748,-2.81349 -1.773615,-3.56028 -0.508496,-0.55528 -0.677929,-0.57604 -3.477575,-0.426 -6.63081,0.35535 -12.411467,-2.0318 -17.581529,-7.26039 -2.213281,-2.23834 -2.228094,-2.26224 -1.60123,-2.58396 2.567906,-1.31788 9.680523,-1.7548 13.200424,-0.8109 4.531656,1.21522 8.76529,4.65957 11.081063,9.01522 l 0.560603,1.05441 v -3.87711 -3.87712 l -1.653646,-0.53453 c -0.909505,-0.294 -3.317856,-0.96552 -5.35189,-1.49228 -3.994081,-1.03435 -7.026873,-2.31972 -9.694654,-4.10883 -2.019296,-1.35421 -5.488274,-4.83962 -7.043338,-7.07671 -1.290823,-1.85695 -1.425459,-1.7105 2.021466,-2.19885 4.741389,-0.67174 9.5986,0.1844 13.222293,2.33056 2.615153,1.54885 6.079116,5.44702 7.937564,8.93254 l 0.562205,1.05442 v -4.41766 -4.41765 l -1.124479,-0.29086 c -10.221719,-2.64399 -15.481263,-6.11309 -18.630739,-12.28851 -0.697972,-1.36856 -1.171658,-2.58524 -1.052637,-2.70372 0.119021,-0.11849 1.605026,-0.19334 3.302233,-0.16635 5.309263,0.0845 9.069519,1.44869 12.16931,4.41509 1.918987,1.83641 3.417574,3.91629 4.556746,6.32427 l 0.779149,1.64697 2.08e-4,-3.97111 2.09e-4,-3.97112 -1.785937,-0.62064 c -6.157031,-2.13968 -9.406929,-4.64244 -11.384622,-8.76733 -0.981058,-2.04621 -1.235086,-2.78389 -1.764996,-5.12546 l -0.171954,-0.75984 1.799067,0.19126 c 3.706574,0.39405 7.063312,1.8478 9.199795,3.98428 1.242224,1.24222 2.920423,3.81152 3.332594,5.10214 0.513106,1.60668 0.776053,1.58945 0.776053,-0.0508 0,-1.38311 -0.09638,-1.64333 -1.024056,-2.7649 -3.631426,-4.39043 -4.131704,-8.71955 -1.707441,-14.77525 0.369106,-0.92201 0.731786,-1.67638 0.805956,-1.67638 0.457731,0 2.918677,2.14134 3.766777,3.27758 3.02258,4.04951 3.39691,7.81055 1.21646,12.22239 -0.51757,1.04722 -0.93567,2.24462 -0.92912,2.66089 0.009,0.58539 0.32389,0.1268 1.38907,-2.0244 0.75743,-1.52968 1.7153,-3.22187 2.12861,-3.76042 1.51362,-1.97229 5.32311,-3.89751 8.55023,-4.32107 l 1.36419,-0.17905 -0.34701,1.81673 c -1.16479,6.09808 -3.85521,9.32133 -10.79191,12.92922 l -2.0348,1.05833 0.0151,3.57188 c 0.0112,2.66159 0.0826,3.4033 0.28014,2.91042 2.30544,-5.75264 5.73765,-9.39606 10.56015,-11.20998 1.99138,-0.74903 5.3679,-1.3023 7.19073,-1.17826 l 1.25075,0.0851 -0.7424,2.13974 c -2.29824,6.62399 -7.7192,11.43591 -15.782,14.0089 l -2.64583,0.84433 -0.0724,4.70002 -0.0724,4.70002 1.13072,-2.17541 c 4.33566,-8.34144 10.31888,-12.17906 18.98832,-12.17906 1.84424,0 3.42483,0.0717 3.51242,0.15925 0.51352,0.51353 -3.04648,6.06192 -5.33173,8.3097 -3.42939,3.37315 -6.95602,5.25209 -14.08382,7.50365 l -3.86637,1.22133 -0.16853,1.22955 c -0.0927,0.67625 -0.16418,2.49285 -0.15886,4.03689 l 0.01,2.80734 0.64562,-1.32292 c 2.11452,-4.3328 6.99469,-8.12507 12.29964,-9.55775 3.13718,-0.84724 8.27652,-0.53492 11.52576,0.70044 0.85503,0.32508 0.66118,0.71443 -1.51277,3.03838 -2.87504,3.07343 -6.25258,5.23494 -10.40987,6.66196 -2.05586,0.70569 -6.14357,1.40197 -8.24471,1.40437 -1.20446,0.001 -1.44783,0.0994 -2.06316,0.83064 -0.86563,1.02874 -1.6078,2.47271 -1.85169,3.60269 -0.18124,0.83964 -0.21889,0.8599 -1.59877,0.8599 -1.379878,0 -1.417536,-0.0203 -1.598767,-0.8599 z"
         id="path25031" />
      <path
         style="fill:#982c44;stroke-width:1.32879"
         d="m 98.464101,252.44559 c -0.239928,-0.80583 -0.809848,-1.91467 -1.266489,-2.46408 l -0.830257,-0.99894 -2.688743,0.17384 c -5.76351,0.37262 -10.760764,-1.28822 -15.607358,-5.1871 -1.066426,-0.8579 -2.498636,-2.21493 -3.182688,-3.01562 l -1.243733,-1.4558 1.742209,-0.53812 c 5.534015,-1.70928 11.974734,-1.14765 16.431387,1.43282 1.780731,1.03107 5.057009,4.43048 6.252218,6.4872 l 0.992187,1.70736 v -3.88888 -3.88889 l -2.579687,-0.76784 c -1.418828,-0.42231 -3.768034,-1.08861 -5.220456,-1.48068 -5.302019,-1.43121 -8.963442,-3.42902 -12.249877,-6.68401 -2.384504,-2.36169 -4.89967,-5.70208 -4.473141,-5.94077 0.652933,-0.3654 5.914427,-0.81556 7.841735,-0.67092 2.568563,0.19276 4.678489,0.76823 7.156427,1.95188 2.988666,1.42761 6.550196,5.16187 8.785244,9.21132 l 0.730169,1.32291 0.0048,-4.42438 0.0048,-4.42438 -1.521354,-0.42806 c -9.053341,-2.54732 -13.286942,-4.93484 -16.52649,-9.32005 -1.163131,-1.57448 -3.012249,-5.2781 -2.760768,-5.52958 0.08894,-0.0889 1.467076,-0.14997 3.062534,-0.13563 3.423352,0.0308 6.652922,0.71251 9.008532,1.90161 3.015299,1.52212 6.283867,5.19594 8.107915,9.11316 l 0.624462,1.34106 0.0026,-4.00058 0.0026,-4.00059 -2.050521,-0.71706 c -6.121855,-2.14079 -9.153425,-4.49818 -11.135997,-8.65953 -0.976836,-2.05034 -2.031109,-5.46051 -1.769139,-5.72248 0.288156,-0.28816 4.711997,0.60472 6.60113,1.33233 1.807135,0.69602 2.37466,1.08541 4.111632,2.82103 1.847524,1.84609 2.740012,3.22136 3.882229,5.9823 0.159356,0.38519 0.241819,0.11444 0.303084,-0.9951 0.07961,-1.44176 0.02741,-1.59214 -0.964324,-2.77813 -3.544667,-4.23896 -4.089323,-8.84654 -1.739571,-14.71612 l 0.695938,-1.73842 0.770428,0.3984 c 1.303188,0.67391 3.625452,3.25688 4.469362,4.9711 1.70354,3.46037 1.66573,6.49917 -0.12607,10.13267 -0.51234,1.03895 -0.93152,2.22362 -0.93152,2.63261 0,0.99504 0.29177,0.61312 1.19994,-1.57074 0.92575,-2.22612 2.61713,-4.70051 3.83835,-5.61528 2.0575,-1.54118 5.85436,-3.00646 7.82599,-3.0202 0.52559,-0.004 0.54658,0.0757 0.33125,1.25286 -0.64321,3.51611 -2.14457,6.78796 -4.01835,8.757 -1.20743,1.26881 -3.64149,2.93863 -6.46259,4.43348 l -2.44479,1.29545 -0.003,3.50573 c -0.001,1.92815 0.041,3.50573 0.0942,3.50573 0.0533,0 0.35699,-0.71347 0.67494,-1.58548 0.77109,-2.1148 2.87404,-5.21003 4.63035,-6.81519 1.69945,-1.55321 4.94044,-3.29524 7.23092,-3.88664 0.90907,-0.23472 2.77958,-0.50077 4.15669,-0.59123 l 2.50385,-0.16447 -0.26956,1.0314 c -0.14826,0.56727 -0.86689,2.24935 -1.59697,3.73796 -2.69354,5.49208 -7.39574,9.21459 -14.6254,11.57827 l -2.66936,0.87273 -0.1323,4.72435 c -0.0728,2.59839 -0.1095,4.76698 -0.0816,4.81909 0.0278,0.0521 0.23574,-0.34827 0.46197,-0.88972 1.22469,-2.93108 4.62981,-7.60266 6.85246,-9.4011 3.58417,-2.90009 7.61856,-4.22372 12.87376,-4.22372 1.84424,0 3.42702,0.0739 3.51729,0.16413 0.21452,0.21451 -1.20373,3.01506 -2.46268,4.86296 -1.54849,2.2729 -3.02766,3.82241 -5.24094,5.49017 -2.78367,2.09756 -5.70238,3.47593 -11.06062,5.2234 -5.29652,1.72735 -4.86373,1.16381 -4.8528,6.31898 l 0.007,3.20807 0.67632,-1.32292 c 3.40227,-6.65485 11.24537,-10.78778 18.83952,-9.9275 1.99929,0.22648 4.79081,0.86661 5.40823,1.24016 0.6139,0.37144 -3.00986,4.26034 -5.69177,6.10823 -4.37978,3.01775 -8.13479,4.30369 -13.76326,4.71336 -2.46914,0.17972 -2.61883,0.22584 -3.28221,1.0114 -0.76143,0.90169 -1.92909,3.23635 -1.93345,3.86581 -0.002,0.30131 -0.34081,0.39927 -1.40675,0.40682 l -1.404001,0.01 z"
         id="path24446" />
      <path
         style="fill:#8d2635;stroke-width:1.32879"
         d="m 98.465504,252.43565 c -0.239979,-0.81409 -0.840285,-1.93565 -1.362562,-2.54571 -0.908812,-1.06156 -0.963659,-1.08469 -2.066537,-0.87142 -3.841925,0.74293 -9.33087,-0.3044 -13.337082,-2.5448 -2.206018,-1.23367 -5.202842,-3.66718 -6.784509,-5.5092 l -1.261562,-1.46923 1.730904,-0.53462 c 5.200501,-1.60628 11.543667,-1.15975 15.86418,1.11674 2.040741,1.07528 5.53149,4.55146 6.756165,6.72797 0.509323,0.90518 0.985573,1.64955 1.058333,1.65415 0.07276,0.005 0.07276,-1.74803 0,-3.89474 l -0.132292,-3.9031 -3.174999,-0.86807 c -6.882353,-1.8817 -8.014038,-2.24567 -10.10284,-3.2492 -3.956852,-1.90102 -7.554808,-5.06358 -10.597282,-9.31488 -1.006109,-1.40586 -1.184732,-1.28712 2.708456,-1.80035 4.251259,-0.56042 8.023467,0.0144 11.773958,1.79409 1.5389,0.73025 2.473024,1.43461 4.161075,3.13759 2.009171,2.02693 4.58224,5.51652 4.971148,6.74186 0.39007,1.229 0.525068,0.2434 0.525068,-3.83346 v -4.34926 l -1.5875,-0.42948 c -6.183976,-1.67302 -11.22664,-4.00191 -13.896318,-6.41783 -2.246016,-2.03253 -4.681791,-5.61077 -5.401829,-7.93549 -0.184057,-0.59425 -0.178791,-0.59531 2.942297,-0.59346 3.721954,0.002 6.766452,0.63968 9.178018,1.92172 3.043608,1.61806 6.27734,5.26036 7.960761,8.96658 l 0.641796,1.41297 0.01524,-3.98856 0.01524,-3.98855 -2.711979,-0.99612 c -3.759239,-1.38078 -5.883202,-2.61656 -7.739062,-4.50279 -2.136347,-2.17131 -3.647373,-5.19398 -4.48647,-8.97477 l -0.167554,-0.75497 1.665554,0.19236 c 4.249456,0.49078 6.802131,1.64119 9.33847,4.20856 1.664752,1.68512 2.663799,3.21797 3.633991,5.57568 0.319394,0.77617 0.328467,0.76025 0.409785,-0.71901 0.07848,-1.42763 0.02168,-1.59053 -1.009246,-2.89476 -3.538797,-4.47691 -4.036026,-8.76314 -1.694966,-14.611 l 0.695938,-1.73842 0.7227,0.37372 c 1.301249,0.6729 3.691968,3.31944 4.512378,4.99523 1.69388,3.45995 1.641,6.62281 -0.17129,10.24536 -0.59923,1.19778 -0.88679,2.11438 -0.8324,2.65319 0.0764,0.75627 0.14559,0.6758 0.85137,-0.98951 1.76365,-4.1614 3.35786,-6.10559 6.23085,-7.59871 1.65729,-0.86131 4.5887,-1.75463 5.75776,-1.75463 h 0.55223 l -0.50321,2.30273 c -1.24233,5.685 -3.75295,8.69521 -10.04357,12.04215 l -2.62721,1.39782 -0.001,3.54983 c -7.7e-4,1.9524 0.0437,3.50022 0.0989,3.43958 0.0552,-0.0606 0.45872,-0.96967 0.89683,-2.02008 1.70046,-4.07701 4.48928,-7.04431 8.39561,-8.93288 2.65429,-1.28326 4.1496,-1.65908 7.56593,-1.90158 l 2.3274,-0.1652 -0.38927,1.29537 c -2.16587,7.20744 -7.61946,12.30367 -16.09143,15.03701 l -2.67304,0.86241 -0.1323,4.73652 c -0.0728,2.60509 -0.12357,4.76509 -0.11291,4.8 0.0107,0.0349 0.46961,-0.79853 1.01989,-1.85209 3.65706,-7.00175 8.03142,-10.77014 14.18582,-12.22073 1.68663,-0.39753 7.45713,-0.57374 8.29241,-0.25322 0.89274,0.34258 -2.31462,5.53294 -5.14328,8.32319 -3.30313,3.25828 -6.19332,4.83159 -13.11797,7.14091 -5.60095,1.86788 -5.13038,1.27539 -5.11341,6.43831 l 0.0105,3.20807 0.49617,-0.99326 c 3.45934,-6.92517 11.24571,-11.08427 19.12806,-10.21729 2.14532,0.23596 4.49434,0.80104 5.17359,1.24454 0.70545,0.46062 -2.84972,4.23649 -6.00124,6.37377 -3.69383,2.50507 -7.54438,3.81786 -12.59996,4.29578 -2.57861,0.24376 -3.29336,0.40467 -3.8051,0.85663 -0.65894,0.58197 -2.14745,3.44307 -2.14781,4.12837 -1.6e-4,0.303 -0.33304,0.39688 -1.40731,0.39688 h -1.407098 z"
         id="path24445" />
      <path
         style="fill:#166e63;stroke-width:1.32879"
         d="m 100.20544,253.81151 c -1.304911,-0.0755 -1.379722,-0.12012 -1.553223,-0.92604 -0.245403,-1.1399 -0.767341,-2.11839 -1.691273,-3.17069 l -0.769077,-0.87594 -2.044951,0.25928 c -6.655022,0.84377 -14.315959,-2.45128 -19.428592,-8.35647 l -1.076133,-1.24295 1.736435,-0.53633 c 5.199968,-1.6061 11.515343,-1.15848 15.879,1.12549 2.029547,1.06228 5.520571,4.53812 6.746875,6.71752 0.509323,0.90518 0.985573,1.64949 1.058333,1.65402 0.148581,0.009 0.03543,-7.10358 -0.120309,-7.56299 -0.0549,-0.16194 -1.508804,-0.67025 -3.230899,-1.12958 -8.240822,-2.19804 -9.88839,-2.82217 -13.118468,-4.96952 -3.412957,-2.26893 -8.755232,-8.27412 -7.855448,-8.83022 0.566232,-0.34995 3.557519,-0.65123 6.46575,-0.65123 4.614504,0 8.905377,1.59784 11.957162,4.45264 0.917883,0.85863 1.668879,1.67359 1.668879,1.81102 0,0.13742 -0.137459,0.1649 -0.305464,0.0611 -0.190775,-0.1179 -0.233581,-0.0725 -0.114009,0.12099 0.1053,0.17038 0.297404,0.2443 0.426897,0.16427 0.308618,-0.19073 2.442362,2.53641 3.367049,4.30344 0.399613,0.76364 0.7861,1.38862 0.85886,1.38884 0.07276,2.2e-4 0.132292,-1.96752 0.132292,-4.37277 v -4.37318 l -1.058334,-0.26236 c -6.280742,-1.55694 -11.789544,-4.10797 -14.710185,-6.81204 -1.00445,-0.92996 -1.826272,-1.80579 -1.826272,-1.94627 0,-0.14048 0.137459,-0.17047 0.305464,-0.0666 0.190775,0.11791 0.23358,0.0725 0.114009,-0.12099 -0.1053,-0.17038 -0.294884,-0.24586 -0.421299,-0.16773 -0.397056,0.2454 -2.731066,-3.55749 -3.28903,-5.35894 -0.183913,-0.59378 -0.176499,-0.59531 2.890067,-0.59531 5.424497,0 9.146139,1.27422 12.382129,4.23942 1.865347,1.70925 4.113658,4.85522 4.852539,6.78995 0.23976,0.6278 0.509049,1.14164 0.59842,1.14186 0.08937,2.2e-4 0.126901,-1.77235 0.0834,-3.93904 l -0.07909,-3.93943 -2.037576,-0.72126 c -3.043792,-1.07745 -5.66789,-2.38778 -7.187798,-3.5892 -2.556196,-2.02056 -4.507191,-5.36108 -5.422432,-9.28436 l -0.368363,-1.57904 1.501759,0.17357 c 4.336426,0.50117 6.930887,1.65841 9.439259,4.2103 1.658343,1.68712 2.50069,2.98426 3.61784,5.57119 0.338609,0.7841 0.343788,0.77536 0.425936,-0.71901 0.07848,-1.42763 0.02168,-1.59053 -1.009246,-2.89476 -3.48932,-4.41432 -4.005946,-8.50054 -1.803831,-14.26729 0.753113,-1.97221 0.830305,-2.07325 1.37117,-1.79477 0.823379,0.42392 1.76822,1.33059 1.626157,1.56046 -0.06671,0.10794 0.03776,0.17993 0.232156,0.15998 0.497049,-0.051 2.121685,1.95496 2.943145,3.63398 1.08233,2.2122 1.35436,4.4572 0.82574,6.81459 -0.24057,1.07281 -0.79154,2.59467 -1.22438,3.3819 -0.46596,0.84747 -0.78543,1.81882 -0.78318,2.38125 0.003,0.85414 0.13594,0.67515 1.31435,-1.77533 1.5218,-3.16454 2.31162,-4.36342 2.71171,-4.11615 0.15977,0.0987 0.20944,0.0537 0.11292,-0.10252 -0.2423,-0.39205 1.42139,-1.78276 3.21086,-2.68403 1.53855,-0.7749 5.50658,-1.8094 5.80306,-1.51292 0.0899,0.0899 0.0197,0.94347 -0.15597,1.89686 -1.02227,5.54804 -3.67533,8.83822 -9.80082,12.15442 l -2.93233,1.5875 -0.001,3.50573 c -8.2e-4,1.92815 0.0435,3.50573 0.0985,3.50573 0.055,0 0.37074,-0.72387 0.7016,-1.6086 0.73883,-1.9756 2.24814,-4.34733 3.86981,-6.08103 1.20242,-1.28548 2.24005,-1.87252 1.25654,-0.71089 l -0.50403,0.59531 0.58908,-0.49838 c 0.32399,-0.27411 0.53094,-0.59242 0.45991,-0.70737 -0.33709,-0.54541 4.30515,-2.89101 6.72965,-3.40032 0.78575,-0.16506 2.47597,-0.37445 3.75604,-0.46531 l 2.3274,-0.1652 -0.38927,1.29537 c -2.13373,7.10047 -7.54436,12.20291 -15.85406,14.951 l -2.91041,0.9625 -0.1323,4.72948 c -0.0728,2.60122 -0.10585,4.77576 -0.0735,4.83232 0.0323,0.0566 0.18248,-0.22263 0.33373,-0.62044 0.98011,-2.57789 4.89701,-8.03711 6.92504,-9.65185 1.36267,-1.08498 2.50905,-1.53926 1.28144,-0.50781 l -0.66146,0.55577 0.66146,-0.40808 c 0.3638,-0.22444 0.63212,-0.53544 0.59626,-0.69109 -0.10697,-0.46435 3.48109,-2.1114 5.82244,-2.67272 2.13118,-0.51093 7.5202,-0.7451 8.49946,-0.36932 0.34466,0.13225 0.26899,0.43542 -0.47876,1.91823 -1.10607,2.19334 -3.25631,5.14329 -3.59598,4.93336 -0.13971,-0.0864 -0.18922,0.0119 -0.11001,0.2183 0.15441,0.40239 -2.25627,2.63618 -4.43394,4.10859 -2.11188,1.42793 -5.36284,2.86036 -9.99772,4.40517 -3.71369,1.23777 -4.47462,1.57904 -4.605,2.0653 -0.0859,0.32037 -0.15464,2.13032 -0.15275,4.02209 l 0.003,3.43958 0.81745,-1.50651 c 2.526,-4.65522 6.77863,-7.88565 12.3039,-9.34639 2.97655,-0.78693 9.20973,-0.35867 11.43073,0.78536 l 0.6214,0.32008 -1.36432,1.6394 c -4.45033,5.34762 -11.01248,8.49056 -18.5316,8.87569 l -2.24896,0.11519 -0.99348,1.11544 c -0.58507,0.65688 -1.1833,1.72627 -1.45521,2.60129 l -0.46172,1.48587 z M 83.121689,213.87833 c -0.545703,-0.0571 -1.438672,-0.0571 -1.984375,0 -0.545703,0.0571 -0.09922,0.10378 0.992188,0.10378 1.091406,0 1.53789,-0.0467 0.992187,-0.10378 z"
         id="path24444" />
      <path
         style="fill:#0f645b;stroke-width:1.32879"
         d="m 100.20544,253.81151 c -1.304911,-0.0755 -1.379722,-0.12012 -1.553223,-0.92604 -0.245403,-1.1399 -0.767341,-2.11839 -1.691273,-3.17069 l -0.769077,-0.87594 -2.044951,0.25928 c -6.655022,0.84377 -14.315959,-2.45128 -19.428592,-8.35647 l -1.076133,-1.24295 1.736435,-0.53633 c 5.199968,-1.6061 11.515343,-1.15848 15.879,1.12549 2.029547,1.06228 5.520571,4.53812 6.746875,6.71752 0.509323,0.90518 0.985573,1.64949 1.058333,1.65402 0.148581,0.009 0.03543,-7.10358 -0.120309,-7.56299 -0.0549,-0.16194 -1.508804,-0.67025 -3.230899,-1.12958 -8.240822,-2.19804 -9.88839,-2.82217 -13.118468,-4.96952 -3.412957,-2.26893 -8.755232,-8.27412 -7.855448,-8.83022 0.566232,-0.34995 3.557519,-0.65123 6.46575,-0.65123 4.614504,0 8.905377,1.59784 11.957162,4.45264 0.917883,0.85863 1.668879,1.67359 1.668879,1.81102 0,0.13742 -0.137459,0.1649 -0.305464,0.0611 -0.190775,-0.1179 -0.233581,-0.0725 -0.114009,0.12099 0.1053,0.17038 0.297404,0.2443 0.426897,0.16427 0.308618,-0.19073 2.442362,2.53641 3.367049,4.30344 0.399613,0.76364 0.7861,1.38862 0.85886,1.38884 0.07276,2.2e-4 0.132292,-1.96752 0.132292,-4.37277 v -4.37318 l -1.058334,-0.26236 c -6.280742,-1.55694 -11.789544,-4.10797 -14.710185,-6.81204 -1.00445,-0.92996 -1.826272,-1.80579 -1.826272,-1.94627 0,-0.14048 0.137459,-0.17047 0.305464,-0.0666 0.190775,0.11791 0.23358,0.0725 0.114009,-0.12099 -0.1053,-0.17038 -0.294884,-0.24586 -0.421299,-0.16773 -0.397056,0.2454 -2.731066,-3.55749 -3.28903,-5.35894 -0.183913,-0.59378 -0.176499,-0.59531 2.890067,-0.59531 5.424497,0 9.146139,1.27422 12.382129,4.23942 1.865347,1.70925 4.113658,4.85522 4.852539,6.78995 0.23976,0.6278 0.509049,1.14164 0.59842,1.14186 0.08937,2.2e-4 0.126901,-1.77235 0.0834,-3.93904 l -0.07909,-3.93943 -2.037576,-0.72126 c -3.043792,-1.07745 -5.66789,-2.38778 -7.187798,-3.5892 -2.556196,-2.02056 -4.507191,-5.36108 -5.422432,-9.28436 l -0.368363,-1.57904 1.501759,0.17357 c 4.336426,0.50117 6.930887,1.65841 9.439259,4.2103 1.658343,1.68712 2.50069,2.98426 3.61784,5.57119 0.338609,0.7841 0.343788,0.77536 0.425936,-0.71901 0.07848,-1.42763 0.02168,-1.59053 -1.009246,-2.89476 -3.48932,-4.41432 -4.005946,-8.50054 -1.803831,-14.26729 0.753113,-1.97221 0.830305,-2.07325 1.37117,-1.79477 0.823379,0.42392 1.76822,1.33059 1.626157,1.56046 -0.06671,0.10794 0.03776,0.17993 0.232156,0.15998 0.497049,-0.051 2.121685,1.95496 2.943145,3.63398 1.08233,2.2122 1.35436,4.4572 0.82574,6.81459 -0.24057,1.07281 -0.79154,2.59467 -1.22438,3.3819 -0.46596,0.84747 -0.78543,1.81882 -0.78318,2.38125 0.003,0.85414 0.13594,0.67515 1.31435,-1.77533 1.5218,-3.16454 2.31162,-4.36342 2.71171,-4.11615 0.15977,0.0987 0.20944,0.0537 0.11292,-0.10252 -0.2423,-0.39205 1.42139,-1.78276 3.21086,-2.68403 1.53855,-0.7749 5.50658,-1.8094 5.80306,-1.51292 0.0899,0.0899 0.0197,0.94347 -0.15597,1.89686 -1.02227,5.54804 -3.67533,8.83822 -9.80082,12.15442 l -2.93233,1.5875 -0.001,3.50573 c -8.2e-4,1.92815 0.0435,3.50573 0.0985,3.50573 0.055,0 0.37074,-0.72387 0.7016,-1.6086 0.73883,-1.9756 2.24814,-4.34733 3.86981,-6.08103 1.20242,-1.28548 2.24005,-1.87252 1.25654,-0.71089 l -0.50403,0.59531 0.58908,-0.49838 c 0.32399,-0.27411 0.53094,-0.59242 0.45991,-0.70737 -0.33709,-0.54541 4.30515,-2.89101 6.72965,-3.40032 0.78575,-0.16506 2.47597,-0.37445 3.75604,-0.46531 l 2.3274,-0.1652 -0.38927,1.29537 c -2.13373,7.10047 -7.54436,12.20291 -15.85406,14.951 l -2.91041,0.9625 -0.1323,4.72948 c -0.0728,2.60122 -0.10585,4.77576 -0.0735,4.83232 0.0323,0.0566 0.18248,-0.22263 0.33373,-0.62044 0.98011,-2.57789 4.89701,-8.03711 6.92504,-9.65185 1.36267,-1.08498 2.50905,-1.53926 1.28144,-0.50781 l -0.66146,0.55577 0.66146,-0.40808 c 0.3638,-0.22444 0.63212,-0.53544 0.59626,-0.69109 -0.10697,-0.46435 3.48109,-2.1114 5.82244,-2.67272 2.13118,-0.51093 7.5202,-0.7451 8.49946,-0.36932 0.34466,0.13225 0.26899,0.43542 -0.47876,1.91823 -1.10607,2.19334 -3.25631,5.14329 -3.59598,4.93336 -0.13971,-0.0864 -0.18922,0.0119 -0.11001,0.2183 0.15441,0.40239 -2.25627,2.63618 -4.43394,4.10859 -2.11188,1.42793 -5.36284,2.86036 -9.99772,4.40517 -3.71369,1.23777 -4.47462,1.57904 -4.605,2.0653 -0.0859,0.32037 -0.15464,2.13032 -0.15275,4.02209 l 0.003,3.43958 0.81745,-1.50651 c 2.526,-4.65522 6.77863,-7.88565 12.3039,-9.34639 2.97655,-0.78693 9.20973,-0.35867 11.43073,0.78536 l 0.6214,0.32008 -1.36432,1.6394 c -4.45033,5.34762 -11.01248,8.49056 -18.5316,8.87569 l -2.24896,0.11519 -0.99348,1.11544 c -0.58507,0.65688 -1.1833,1.72627 -1.45521,2.60129 l -0.46172,1.48587 z M 83.121689,213.87833 c -0.545703,-0.0571 -1.438672,-0.0571 -1.984375,0 -0.545703,0.0571 -0.09922,0.10378 0.992188,0.10378 1.091406,0 1.53789,-0.0467 0.992187,-0.10378 z"
         id="path24443" />
      <path
         style="fill:#61202c;stroke-width:1.32879"
         d="m 100.20544,253.81151 c -1.304911,-0.0755 -1.379722,-0.12012 -1.553223,-0.92604 -0.245403,-1.1399 -0.767341,-2.11839 -1.691273,-3.17069 l -0.769077,-0.87594 -2.044951,0.25928 c -6.655022,0.84377 -14.315959,-2.45128 -19.428592,-8.35647 l -1.076133,-1.24295 1.736435,-0.53633 c 5.199968,-1.6061 11.515343,-1.15848 15.879,1.12549 2.029547,1.06228 5.520571,4.53812 6.746875,6.71752 0.509323,0.90518 0.985573,1.64949 1.058333,1.65402 0.148581,0.009 0.03543,-7.10358 -0.120309,-7.56299 -0.0549,-0.16194 -1.508804,-0.67025 -3.230899,-1.12958 -8.240822,-2.19804 -9.88839,-2.82217 -13.118468,-4.96952 -3.412957,-2.26893 -8.755232,-8.27412 -7.855448,-8.83022 0.566232,-0.34995 3.557519,-0.65123 6.46575,-0.65123 4.614504,0 8.905377,1.59784 11.957162,4.45264 0.917883,0.85863 1.668879,1.67359 1.668879,1.81102 0,0.13742 -0.137459,0.1649 -0.305464,0.0611 -0.190775,-0.1179 -0.233581,-0.0725 -0.114009,0.12099 0.1053,0.17038 0.297404,0.2443 0.426897,0.16427 0.308618,-0.19073 2.442362,2.53641 3.367049,4.30344 0.399613,0.76364 0.7861,1.38862 0.85886,1.38884 0.07276,2.2e-4 0.132292,-1.96752 0.132292,-4.37277 v -4.37318 l -1.058334,-0.26236 c -6.280742,-1.55694 -11.789544,-4.10797 -14.710185,-6.81204 -1.00445,-0.92996 -1.826272,-1.80579 -1.826272,-1.94627 0,-0.14048 0.137459,-0.17047 0.305464,-0.0666 0.190775,0.11791 0.23358,0.0725 0.114009,-0.12099 -0.1053,-0.17038 -0.294884,-0.24586 -0.421299,-0.16773 -0.397056,0.2454 -2.731066,-3.55749 -3.28903,-5.35894 -0.183913,-0.59378 -0.176499,-0.59531 2.890067,-0.59531 5.424497,0 9.146139,1.27422 12.382129,4.23942 1.865347,1.70925 4.113658,4.85522 4.852539,6.78995 0.23976,0.6278 0.509049,1.14164 0.59842,1.14186 0.08937,2.2e-4 0.126901,-1.77235 0.0834,-3.93904 l -0.07909,-3.93943 -2.037576,-0.72126 c -3.043792,-1.07745 -5.66789,-2.38778 -7.187798,-3.5892 -2.556196,-2.02056 -4.507191,-5.36108 -5.422432,-9.28436 l -0.368363,-1.57904 1.501759,0.17357 c 4.336426,0.50117 6.930887,1.65841 9.439259,4.2103 1.658343,1.68712 2.50069,2.98426 3.61784,5.57119 0.338609,0.7841 0.343788,0.77536 0.425936,-0.71901 0.07848,-1.42763 0.02168,-1.59053 -1.009246,-2.89476 -3.48932,-4.41432 -4.005946,-8.50054 -1.803831,-14.26729 0.753113,-1.97221 0.830305,-2.07325 1.37117,-1.79477 0.823379,0.42392 1.76822,1.33059 1.626157,1.56046 -0.06671,0.10794 0.03776,0.17993 0.232156,0.15998 0.497049,-0.051 2.121685,1.95496 2.943145,3.63398 1.08233,2.2122 1.35436,4.4572 0.82574,6.81459 -0.24057,1.07281 -0.79154,2.59467 -1.22438,3.3819 -0.46596,0.84747 -0.78543,1.81882 -0.78318,2.38125 0.003,0.85414 0.13594,0.67515 1.31435,-1.77533 1.5218,-3.16454 2.31162,-4.36342 2.71171,-4.11615 0.15977,0.0987 0.20944,0.0537 0.11292,-0.10252 -0.2423,-0.39205 1.42139,-1.78276 3.21086,-2.68403 1.53855,-0.7749 5.50658,-1.8094 5.80306,-1.51292 0.0899,0.0899 0.0197,0.94347 -0.15597,1.89686 -1.02227,5.54804 -3.67533,8.83822 -9.80082,12.15442 l -2.93233,1.5875 -0.001,3.50573 c -8.2e-4,1.92815 0.0435,3.50573 0.0985,3.50573 0.055,0 0.37074,-0.72387 0.7016,-1.6086 0.73883,-1.9756 2.24814,-4.34733 3.86981,-6.08103 1.20242,-1.28548 2.24005,-1.87252 1.25654,-0.71089 l -0.50403,0.59531 0.58908,-0.49838 c 0.32399,-0.27411 0.53094,-0.59242 0.45991,-0.70737 -0.33709,-0.54541 4.30515,-2.89101 6.72965,-3.40032 0.78575,-0.16506 2.47597,-0.37445 3.75604,-0.46531 l 2.3274,-0.1652 -0.38927,1.29537 c -2.13373,7.10047 -7.54436,12.20291 -15.85406,14.951 l -2.91041,0.9625 -0.1323,4.72948 c -0.0728,2.60122 -0.10585,4.77576 -0.0735,4.83232 0.0323,0.0566 0.18248,-0.22263 0.33373,-0.62044 0.98011,-2.57789 4.89701,-8.03711 6.92504,-9.65185 1.36267,-1.08498 2.50905,-1.53926 1.28144,-0.50781 l -0.66146,0.55577 0.66146,-0.40808 c 0.3638,-0.22444 0.63212,-0.53544 0.59626,-0.69109 -0.10697,-0.46435 3.48109,-2.1114 5.82244,-2.67272 2.13118,-0.51093 7.5202,-0.7451 8.49946,-0.36932 0.34466,0.13225 0.26899,0.43542 -0.47876,1.91823 -1.10607,2.19334 -3.25631,5.14329 -3.59598,4.93336 -0.13971,-0.0864 -0.18922,0.0119 -0.11001,0.2183 0.15441,0.40239 -2.25627,2.63618 -4.43394,4.10859 -2.11188,1.42793 -5.36284,2.86036 -9.99772,4.40517 -3.71369,1.23777 -4.47462,1.57904 -4.605,2.0653 -0.0859,0.32037 -0.15464,2.13032 -0.15275,4.02209 l 0.003,3.43958 0.81745,-1.50651 c 2.526,-4.65522 6.77863,-7.88565 12.3039,-9.34639 2.97655,-0.78693 9.20973,-0.35867 11.43073,0.78536 l 0.6214,0.32008 -1.36432,1.6394 c -4.45033,5.34762 -11.01248,8.49056 -18.5316,8.87569 l -2.24896,0.11519 -0.99348,1.11544 c -0.58507,0.65688 -1.1833,1.72627 -1.45521,2.60129 l -0.46172,1.48587 z M 83.121689,213.87833 c -0.545703,-0.0571 -1.438672,-0.0571 -1.984375,0 -0.545703,0.0571 -0.09922,0.10378 0.992188,0.10378 1.091406,0 1.53789,-0.0467 0.992187,-0.10378 z"
         id="path24442" />
      <path
         style="fill:#10201b;stroke-width:1.32879"
         d="m 95.490709,197.06086 c 0.188932,-0.94238 1.213821,-3.69249 1.332034,-3.57428 0.04921,0.0492 -0.263671,1.03969 -0.695295,2.20107 -0.431624,1.16138 -0.718157,1.77932 -0.636739,1.37321 z"
         id="path24520" />
      <path
         style="fill:#10201b;stroke-width:1.32879"
         d="m 101.34642,197.04066 c -0.754,-1.28661 -3.441243,-3.87168 -4.0247,-3.87168 -0.206554,0 -0.375553,-0.12579 -0.375553,-0.27954 0,-0.88811 3.992233,2.76753 4.864563,4.45442 0.64676,1.2507 0.32209,1.03869 -0.46431,-0.3032 z"
         id="path24519" />
      <path
         style="fill:#10201b;stroke-width:1.32879"
         d="m 94.697209,206.9828 c -0.582083,-0.54429 -1.415521,-1.26226 -1.852083,-1.59549 -0.461029,-0.3519 -0.552564,-0.48941 -0.21837,-0.32804 0.570337,0.27539 3.515285,2.90301 3.261078,2.90968 -0.07276,0.002 -0.608541,-0.44186 -1.190625,-0.98615 z"
         id="path24514" />
      <path
         style="fill:#10201b;stroke-width:1.32879"
         d="m 102.23783,209.74199 c 0,-0.28719 1.57905,-3.34384 1.72741,-3.34384 0.0728,0 -0.24072,0.74414 -0.69662,1.65365 -0.86414,1.7239 -1.03079,1.99716 -1.03079,1.69019 z"
         id="path24512" />
      <path
         style="fill:#10201b;stroke-width:1.32879"
         d="m 100.94803,210.73479 c -0.0182,-0.4525 0.32333,-1.52406 0.75898,-2.38125 0.43565,-0.85718 0.96359,-2.21336 1.17321,-3.01372 0.20962,-0.80037 0.38896,-1.20596 0.39853,-0.90132 0.0228,0.72359 -0.92441,3.46412 -1.49537,4.32675 -0.24595,0.37158 -0.52707,1.15186 -0.6247,1.73394 -0.15955,0.95113 -0.18088,0.975 -0.21065,0.2356 z"
         id="path24511" />
      <path
         style="fill:#10201b;stroke-width:1.32879"
         d="m 97.892612,211.7541 c -0.08811,-0.27762 -0.575552,-1.20933 -1.083199,-2.07046 -0.507646,-0.86113 -0.672048,-1.26918 -0.365338,-0.90677 0.67928,0.80265 1.908978,3.18175 1.734664,3.35607 -0.06926,0.0693 -0.198014,-0.10122 -0.286127,-0.37884 z"
         id="path24510" />
      <path
         style="fill:#10201b;stroke-width:1.32879"
         d="m 107.91391,212.40215 c 0.2979,-0.26306 1.24987,-1.15603 2.11549,-1.98438 0.91541,-0.87598 1.26058,-1.11865 0.82506,-0.58004 -0.41184,0.50933 -1.1796,1.28511 -1.70615,1.72396 -1.0894,0.90798 -2.05662,1.56652 -1.2344,0.84046 z"
         id="path24509" />
      <path
         style="fill:#10201b;stroke-width:1.32879"
         d="m 99.062834,211.79976 c 0,-1.34183 -0.106734,-1.61525 -1.161955,-2.97656 -1.12229,-1.44784 -2.018167,-2.9664 -2.008252,-3.4041 0.0026,-0.11637 0.347431,0.40986 0.766212,1.1694 0.41878,0.75954 1.190529,1.8823 1.714998,2.49502 0.85821,1.00263 0.95358,1.26805 0.95358,2.65392 0,0.84693 -0.05953,1.53988 -0.132291,1.53988 -0.07276,0 -0.132292,-0.6649 -0.132292,-1.47756 z"
         id="path24508" />
      <path
         style="fill:#10201b;stroke-width:1.32879"
         d="m 81.401897,213.61374 c 0.545704,-0.0571 1.438672,-0.0571 1.984375,0 0.545703,0.0571 0.09922,0.10379 -0.992187,0.10379 -1.091406,0 -1.537891,-0.0467 -0.992188,-0.10379 z"
         id="path24507" />
      <path
         style="fill:#10201b;stroke-width:1.32879"
         d="m 90.578864,214.00492 c -0.901303,-0.61846 -2.063854,-1.66026 -2.583446,-2.3151 -0.862748,-1.08733 -0.819333,-1.06281 0.500404,0.28263 0.794814,0.8103 2.009262,1.80388 2.698773,2.20796 1.12711,0.66053 1.473124,0.94899 1.138329,0.94899 -0.06343,0 -0.852757,-0.50602 -1.75406,-1.12448 z"
         id="path24505" />
      <path
         style="fill:#10201b;stroke-width:1.32879"
         d="m 102.50242,215.53389 c 0,-0.0728 0.71437,-0.49291 1.5875,-0.93366 0.87312,-0.44075 1.5875,-0.74183 1.5875,-0.66907 0,0.0728 -0.71438,0.4929 -1.5875,0.93366 -0.87313,0.44075 -1.5875,0.74183 -1.5875,0.66907 z"
         id="path24504" />
      <path
         style="fill:#10201b;stroke-width:1.32879"
         d="m 94.61791,216.14834 c -1.06226,-0.44893 -1.888044,-0.85958 -1.835075,-0.91255 0.08953,-0.0895 3.897024,1.42326 4.141284,1.64542 0.307341,0.27954 -0.571505,2.6e-4 -2.306209,-0.73287 z"
         id="path24502" />
      <path
         style="fill:#10201b;stroke-width:1.32879"
         d="m 105.43211,216.4779 c 0.91789,-1.21082 3.36559,-3.15518 5.06341,-4.02221 1.56414,-0.79875 1.54261,-0.57053 -0.0278,0.29513 -2.03354,1.12091 -3.15165,1.97388 -4.62691,3.52971 -1.2649,1.33399 -1.27342,1.33811 -0.40866,0.19737 z"
         id="path24501" />
      <path
         style="fill:#10201b;stroke-width:1.32879"
         d="m 82.902141,221.28096 c -1.231511,-1.32489 -1.938399,-2.18281 -1.798547,-2.18281 0.06294,0 0.743259,0.71437 1.511815,1.5875 1.543859,1.75391 1.73764,2.15624 0.286732,0.59531 z"
         id="path24499" />
      <path
         style="fill:#10201b;stroke-width:1.32879"
         d="m 119.90764,222.60695 c 0.76886,-0.0536 1.95949,-0.0531 2.64583,10e-4 0.68635,0.0543 0.0573,0.0982 -1.39793,0.0975 -1.45521,-6.9e-4 -2.01676,-0.0451 -1.2479,-0.0987 z"
         id="path24498" />
      <path
         style="fill:#10201b;stroke-width:1.32879"
         d="m 101.27956,220.15648 c 0,-1.67349 0.043,-2.3581 0.0955,-1.52135 0.0525,0.83674 0.0525,2.20596 0,3.04271 -0.0525,0.83674 -0.0955,0.15213 -0.0955,-1.52136 z"
         id="path24496" />
      <path
         style="fill:#10201b;stroke-width:1.32879"
         d="m 109.91075,224.06126 c 0.0728,-0.0807 0.96573,-0.6937 1.98438,-1.36219 1.01864,-0.6685 1.46817,-0.88285 0.99894,-0.47633 -0.7331,0.63512 -3.35522,2.25105 -2.98332,1.83852 z"
         id="path24494" />
      <path
         style="fill:#10201b;stroke-width:1.32879"
         d="m 99.166477,221.4794 c 0,-1.96453 0.04165,-2.7682 0.09256,-1.78594 0.05091,0.98227 0.05091,2.58961 0,3.57188 -0.05091,0.98226 -0.09256,0.17859 -0.09256,-1.78594 z"
         id="path24493" />
      <path
         style="fill:#10201b;stroke-width:1.32879"
         d="m 87.382368,224.6233 c -0.821704,-0.44591 -1.893266,-1.16214 -2.381249,-1.59163 -0.801045,-0.70502 -0.758719,-0.69291 0.435674,0.12467 0.727604,0.49806 1.828932,1.16035 2.447396,1.47177 0.618463,0.31141 1.124479,0.62332 1.124479,0.69312 0,0.18482 0.0019,0.18564 -1.6263,-0.69793 z"
         id="path24490" />
      <path
         style="fill:#10201b;stroke-width:1.32879"
         d="m 108.12007,227.41588 c 0.54309,-0.57986 1.37653,-1.265 1.85208,-1.52253 0.83523,-0.45233 0.84214,-0.45211 0.20318,0.006 -0.3638,0.261 -1.19724,0.94615 -1.85208,1.52254 l -1.19062,1.04799 z"
         id="path24484" />
      <path
         style="fill:#10201b;stroke-width:1.32879"
         d="m 121.14506,229.02002 c 1.64832,-2.07216 2.03193,-2.42712 0.94254,-0.87214 -0.47953,0.68449 -1.17191,1.51793 -1.5386,1.85208 -0.3667,0.33416 -0.0985,-0.10681 0.59606,-0.97994 z"
         id="path24483" />
      <path
         style="fill:#10201b;stroke-width:1.32879"
         d="m 101.27739,230.21065 c 0,-1.52797 0.0437,-2.15305 0.0972,-1.38906 0.0534,0.76398 0.0534,2.01414 0,2.77812 -0.0534,0.76399 -0.0972,0.13891 -0.0972,-1.38906 z"
         id="path24482" />
      <path
         style="fill:#10201b;stroke-width:1.32879"
         d="m 79.576275,232.26117 c -2.01805,-1.93523 -4.084486,-4.34141 -4.714922,-5.4901 -0.350204,-0.6381 0.185458,-0.0239 1.512134,1.73379 0.664826,0.88082 2.239816,2.57746 3.499976,3.77031 1.260161,1.19285 2.220965,2.16881 2.135121,2.16881 -0.08584,0 -1.180383,-0.98226 -2.432309,-2.18281 z"
         id="path24481" />
      <path
         style="fill:#10201b;stroke-width:1.32879"
         d="m 115.467,236.8013 c 0.3638,-0.10335 1.97115,-0.18596 3.57187,-0.18359 3.65812,0.005 3.11149,0.14724 -1.05833,0.27456 -1.74625,0.0533 -2.87734,0.0124 -2.51354,-0.091 z"
         id="path24479" />
      <path
         style="fill:#10201b;stroke-width:1.32879"
         d="m 98.287967,236.8925 c -0.734456,-1.61376 -2.807996,-4.40099 -4.750926,-6.38615 -1.130181,-1.15475 -1.76015,-1.90643 -1.399932,-1.6704 1.659409,1.08728 7.077948,8.18984 6.607179,8.66061 -0.06856,0.0686 -0.273909,-0.20327 -0.456321,-0.60406 z"
         id="path24478" />
      <path
         style="fill:#10201b;stroke-width:1.32879"
         d="m 118.37742,245.19154 c 0,-0.0627 0.50601,-0.41389 1.12448,-0.78049 2.18375,-1.29444 6.54843,-5.46542 6.54843,-6.25782 0,-0.11104 -0.62508,-0.39654 -1.38906,-0.63444 -0.76398,-0.2379 -1.01478,-0.37772 -0.55731,-0.31071 0.45746,0.067 1.20433,0.27617 1.65971,0.4648 l 0.82796,0.34298 -1.31361,1.61981 c -1.32172,1.62979 -4.68965,4.52649 -6.12715,5.26985 -0.4254,0.21998 -0.77345,0.34869 -0.77345,0.28602 z"
         id="path24468" />
      <path
         style="fill:#10201b;stroke-width:1.32879"
         d="m 102.8959,245.2919 c 1.03107,-1.91456 4.29393,-5.10323 6.2211,-6.07964 0.83906,-0.42512 0.41811,-0.005 -0.81922,0.81705 -1.47624,0.98111 -2.70405,2.13638 -4.07662,3.83576 -1.43944,1.78219 -1.62317,1.98 -1.32526,1.42683 z"
         id="path24467" />
      <path
         style="fill:#10201b;stroke-width:1.32879"
         d="m 80.815963,245.88721 c -1.480095,-0.86467 -6.88469,-5.66306 -6.890759,-6.11786 -0.0012,-0.0913 1.166429,0.9651 2.594772,2.34755 1.431815,1.38581 3.391505,2.97434 4.36784,3.5406 1.531106,0.88801 1.995274,1.2219 1.698687,1.2219 -0.03969,0 -0.836434,-0.44649 -1.77054,-0.99219 z"
         id="path24466" />
      <path
         style="fill:#10201b;stroke-width:1.32879"
         d="m 101.28389,243.83669 c 4.2e-4,-2.03729 0.0419,-2.83575 0.0923,-1.77436 0.0504,1.06139 0.05,2.72827 -7.5e-4,3.70416 -0.0508,0.9759 -0.092,0.10749 -0.0915,-1.9298 z"
         id="path24465" />
      <path
         style="fill:#10201b;stroke-width:1.32879"
         d="m 97.709079,246.81325 c -1.172772,-2.22318 -4.547171,-5.49364 -6.98062,-6.76561 -0.582083,-0.30425 -0.964293,-0.55845 -0.849355,-0.56488 0.976231,-0.0546 4.757441,2.86225 6.418609,4.95141 1.186359,1.49202 2.110945,2.97439 1.855183,2.97439 -0.07138,0 -0.271095,-0.26789 -0.443817,-0.59531 z"
         id="path24464" />
      <path
         style="fill:#10201b;stroke-width:1.32879"
         d="m 106.93893,248.27515 c 0.47555,-0.0589 1.18992,-0.0577 1.5875,0.003 0.39757,0.0604 0.008,0.10855 -0.86464,0.10706 -0.87312,-0.001 -1.19841,-0.0509 -0.72286,-0.10976 z"
         id="path24460" />
      <path
         style="fill:#10201b;stroke-width:1.32879"
         d="m 87.069347,248.57849 c -0.848346,-0.20542 -1.741315,-0.50215 -1.984375,-0.65939 -0.379551,-0.24555 -0.367237,-0.26061 0.08724,-0.10671 0.291041,0.0986 1.541198,0.39682 2.778125,0.66281 1.236927,0.266 1.89177,0.48209 1.455208,0.4802 -0.436563,-0.002 -1.487851,-0.17149 -2.336196,-0.37691 z"
         id="path24459" />
      <path
         style="fill:#10201b;stroke-width:1.32879"
         d="m 91.323772,249.06928 c 0.472943,-0.0587 1.246849,-0.0587 1.719792,0 0.472942,0.0587 0.08599,0.10671 -0.859896,0.10671 -0.945886,0 -1.332839,-0.048 -0.859896,-0.10671 z"
         id="path24457" />
      <path
         style="fill:#10201b;stroke-width:1.32879"
         d="m 101.97424,251.75115 c -0.002,-0.45055 2.10952,-3.28422 2.44672,-3.28422 0.16606,0 -0.0668,0.38695 -0.51737,0.85989 -0.45062,0.47295 -1.06884,1.27662 -1.37383,1.78594 -0.30499,0.50932 -0.55498,0.7966 -0.55552,0.63839 z"
         id="path24453" />
      <path
         style="fill:#10201b;stroke-width:1.32879"
         d="m 98.60203,252.61457 c -0.168284,-0.6292 -0.739928,-1.78885 -1.270318,-2.57701 -0.549656,-0.81678 -0.726246,-1.21753 -0.410653,-0.93193 0.596047,0.53942 2.141775,3.45058 2.141775,4.03374 0,0.24259 0.367036,0.35461 1.161946,0.35461 1.03271,0 1.18127,-0.077 1.33579,-0.69268 0.22602,-0.90055 0.40783,-0.71595 0.22618,0.22966 -0.13102,0.68203 -0.22555,0.7276 -1.50926,0.7276 h -1.369488 z"
         id="path24441" />
    </g>
  </g>
</svg>
