<?xml version="1.0" encoding="UTF-8" standalone="no"?>
<!-- Created with Inkscape (http://www.inkscape.org/) -->

<svg
   width="185"
   height="185"
   viewBox="0 0 48.947914 48.947918"
   version="1.1"
   id="svg1"
   xmlns="http://www.w3.org/2000/svg"
   xmlns:svg="http://www.w3.org/2000/svg">
  <defs
     id="defs1" />
  <g
     id="layer1">
    <g
       id="g25107"
       transform="matrix(0.75740814,0,0,0.75740814,-51.21166,-28.154736)"
       style="display:inline;stroke-width:1.32029">
      <path
         style="fill:#d6c5ac;stroke-width:1.32029"
         d="m 87.379812,101.63253 c -3.162411,-0.32231 -4.431256,-0.54815 -4.5983,-0.81843 -0.08474,-0.13711 -0.05775,-0.25162 0.05998,-0.25446 0.117729,-0.003 1.52374,-0.18712 3.124469,-0.40951 1.600729,-0.222381 4.845182,-0.475797 7.209895,-0.563143 3.08799,-0.114061 4.299479,-0.248584 4.299479,-0.477411 0,-0.175231 -0.267891,-0.714948 -0.595312,-1.19937 l -0.595313,-0.880767 -3.071043,0.06679 c -3.750076,0.08156 -6.744051,-0.547452 -9.893539,-2.078561 -2.028341,-0.986068 -5.688542,-3.715176 -5.688542,-4.241474 0,-0.728466 4.35682,-2.075836 7.414092,-2.292847 1.488207,-0.105636 2.791783,-0.0444 3.721998,0.174834 3.041763,0.716895 6.071823,2.721585 8.009239,5.298918 l 1.227587,1.633051 v -2.636086 -2.636086 l -1.180903,-0.161861 c -2.344723,-0.32138 -9.3132,-2.327237 -11.23342,-3.23351 -4.169859,-1.968019 -8.075234,-5.610118 -10.585225,-9.871635 -0.460365,-0.781617 -0.773712,-1.484436 -0.696328,-1.56182 0.32586,-0.32586 6.826717,-0.38066 8.410675,-0.0709 2.301432,0.450071 5.412435,1.689772 7.253626,2.890491 2.663914,1.737253 6.203645,5.7962 7.526072,8.630016 l 0.493881,1.058333 0.0058,-4.655007 0.0058,-4.655007 -2.243476,-0.440804 c -6.103479,-1.19923 -9.8366,-2.976549 -13.126508,-6.249461 -1.951103,-1.941024 -2.473039,-2.663571 -3.684452,-5.100606 -0.776237,-1.561581 -1.324945,-2.925634 -1.219351,-3.031229 0.105595,-0.105594 1.704067,-0.18892 3.55216,-0.185167 2.973372,0.006 3.603824,0.09107 5.476836,0.738697 1.164166,0.402531 2.498809,0.967794 2.965872,1.25614 2.808903,1.734104 5.413719,4.759832 7.12844,8.280325 l 1.150479,2.362046 -0.0015,-5.140171 -0.0015,-5.140171 -2.049009,-0.479814 c -1.126955,-0.263897 -3.239635,-1.055547 -4.694843,-1.759221 -4.081684,-1.973722 -6.49147,-4.724496 -7.889395,-9.005756 -1.187306,-3.636224 -1.215158,-3.439583 0.487176,-3.439583 1.827753,0 5.030466,0.646505 6.657329,1.34386 2.897123,1.241852 5.85285,4.444544 6.837375,7.40867 0.237784,0.7159 0.461206,1.301636 0.496493,1.301636 0.03529,0 0.0108,-1.627376 -0.05442,-3.616391 L 97.673607,54.173709 95.64568,52.167704 c -2.739097,-2.709486 -3.521317,-4.329781 -3.674675,-7.611741 -0.09141,-1.956237 -0.0036,-2.79291 0.449952,-4.28605 0.309944,-1.020422 0.680142,-1.927381 0.822664,-2.015464 0.465409,-0.287638 3.642043,1.439887 5.103022,2.775139 2.750337,2.513651 3.738487,6.553749 2.355067,9.628766 -0.36953,0.821378 -0.57352,1.783065 -0.56121,2.645833 l 0.0193,1.355429 0.4788,-1.345154 c 1.60887,-4.520036 5.41143,-6.98922 10.76344,-6.98922 1.33146,0 1.4191,0.04023 1.4191,0.651378 0,1.209459 -1.2345,4.549688 -2.24306,6.069158 -1.66363,2.506354 -5.02168,4.804144 -8.73715,5.978499 -1.77654,0.561516 -1.72211,0.375773 -1.69613,5.788048 0.0215,4.469172 0.0549,4.815088 0.35937,3.711322 0.86963,-3.153095 3.14372,-6.633125 5.48851,-8.399059 3.87063,-2.91509 8.6189,-4.252612 12.70101,-3.577699 l 0.97777,0.161658 -0.6583,1.75366 c -2.62102,6.982293 -8.23939,11.572484 -16.86222,13.776381 l -1.80666,0.461761 -0.0875,5.652447 -0.0875,5.652448 0.73613,-1.892005 c 1.4288,-3.672348 3.63348,-6.961507 6.16001,-9.190132 1.84753,-1.629691 5.62494,-3.459651 8.19192,-3.968558 2.07826,-0.41202 5.583,-0.53348 7.03191,-0.243698 l 0.80305,0.16061 -0.76288,1.700316 c -1.67611,3.735734 -4.57733,7.400644 -7.499,9.472979 -2.22476,1.57801 -4.59994,2.720172 -9.54995,4.592315 -2.32833,0.8806 -4.41192,1.67051 -4.63021,1.755355 -0.33091,0.128628 -0.38329,0.735917 -0.31516,3.654181 l 0.0817,3.499915 0.865,-1.61897 c 1.21797,-2.279598 2.57234,-4.052693 4.34821,-5.692539 1.81772,-1.678479 3.40186,-2.57509 6.26504,-3.545952 2.87757,-0.975745 7.60601,-1.200735 10.86436,-0.51695 3.23088,0.678021 3.27426,0.748469 1.63163,2.650004 -5.50959,6.37801 -11.55761,9.240919 -21.08865,9.982594 -0.83794,0.06521 -0.99607,0.219317 -1.77781,1.73263 -0.47194,0.913583 -0.93578,2.2469 -1.03077,2.962927 -0.16753,1.262964 -0.20138,1.304924 -1.132604,1.404274 -0.93171,0.0994 -0.928819,0.10174 0.09842,0.0798 0.951244,-0.0203 1.066804,-0.0962 1.142054,-0.75023 l 0.0837,-0.727601 h 2.45755 c 4.85273,0 13.17235,0.866221 12.67952,1.320171 -0.12279,0.1131 -0.99716,0.35539 -1.94305,0.53841 -2.0024,0.38746 -23.221165,0.60163 -26.499691,0.26748 z"
         id="path25105" />
      <path
         style="fill:#da9d94;stroke-width:1.32029"
         d="m 97.645545,99.816359 c -0.0891,-0.557214 -0.436995,-1.420417 -0.773097,-1.918229 l -0.611093,-0.905113 -2.542448,0.09436 c -4.422885,0.164156 -8.448441,-0.842939 -11.888606,-2.974235 -2.366113,-1.465886 -4.370527,-3.271858 -4.020196,-3.622189 0.519232,-0.519232 3.943337,-1.537321 6.244778,-1.85676 1.845584,-0.256166 2.704938,-0.253939 4.186606,0.01085 3.545596,0.633633 7.064152,3.005287 9.009496,6.072777 l 0.753516,1.18817 v -2.829925 c 0,-2.569779 -0.04468,-2.829925 -0.486013,-2.829925 -1.035067,0 -10.020922,-2.461309 -11.60028,-3.177424 -2.418911,-1.096787 -5.406149,-3.251186 -7.268516,-5.242062 -1.666419,-1.781408 -4.193107,-5.403932 -4.193107,-6.011679 0,-0.463442 3.421345,-0.767408 6.334825,-0.56281 6.728494,0.472505 13.060425,4.850198 16.517975,11.419995 l 0.695116,1.320811 v -4.694249 c 0,-2.581837 -0.06155,-4.694248 -0.136786,-4.694248 -0.07523,0 -1.500569,-0.294859 -3.167416,-0.655243 -6.740474,-1.457334 -11.00086,-3.955124 -14.061236,-8.243857 -1.357627,-1.902545 -3.061942,-5.427862 -2.769086,-5.727762 0.373461,-0.382443 6.422459,-0.226338 8.074431,0.208375 4.546458,1.196392 8.671054,4.985872 11.128579,10.224402 l 0.912507,1.945126 0.0095,-5.22552 c 0.0093,-5.137059 8.7e-5,-5.225521 -0.546781,-5.225521 -0.870239,0 -5.20068,-1.523809 -6.971093,-2.45301 -3.535358,-1.855532 -6.386551,-5.708843 -7.538836,-10.188536 l -0.491436,-1.910536 1.230388,0.0092 c 0.676713,0.0051 2.157532,0.174512 3.290708,0.376523 4.993415,0.890171 8.405439,3.699046 10.408298,8.568405 l 0.615696,1.496883 0.0011,-3.836458 0.0011,-3.836458 -1.516129,-1.192571 c -0.833871,-0.655913 -2.021814,-1.946137 -2.639873,-2.867163 -1.523315,-2.270034 -2.014307,-4.061723 -1.853598,-6.764009 0.114242,-1.920953 0.740674,-4.46167 1.228655,-4.983243 0.298676,-0.319237 3.765454,1.492549 5.064895,2.646983 1.866202,1.657944 2.715462,3.456341 2.850912,6.037091 0.093,1.772731 0.0155,2.363367 -0.4476,3.410348 -0.377,0.852268 -0.55732,1.795961 -0.55151,2.886301 l 0.009,1.620012 0.45865,-1.326371 c 1.0425,-3.014813 2.70965,-4.972693 5.20055,-6.107468 1.41351,-0.643953 4.02974,-1.159797 5.89905,-1.16312 1.30741,-0.0023 1.32643,0.06437 0.70533,2.473352 -1.26013,4.887424 -4.69719,8.115286 -11.02408,10.353069 l -1.25677,0.444513 0.0142,5.071346 0.0142,5.071345 0.46676,-1.455208 c 1.1106,-3.462587 2.99112,-6.261721 5.45615,-8.121451 3.72292,-2.808733 7.84696,-4.077644 11.85693,-3.648213 l 1.69951,0.182002 -0.50072,1.317788 c -2.66963,7.025912 -6.9979,10.944938 -14.86451,13.459051 -1.91461,0.611896 -3.62994,1.152947 -3.81184,1.202335 -0.25206,0.06844 -0.32864,1.460633 -0.32196,5.852788 l 0.009,5.762991 0.86715,-2.278641 c 1.16121,-3.051334 3.09081,-6.081225 5.20464,-8.1724 2.90475,-2.873626 6.16353,-4.458 10.38359,-5.048357 2.41213,-0.33744 6.28123,-0.126998 6.28123,0.34164 0,0.715216 -2.83796,5.577545 -4.26159,7.301443 -2.81801,3.412397 -6.30996,5.538415 -13.46549,8.198242 -1.96453,0.730248 -3.90619,1.480318 -4.31479,1.666823 l -0.74291,0.339099 0.0547,3.522429 c 0.0515,3.31341 0.25294,4.298509 0.59801,2.923676 0.29163,-1.161947 3.35542,-5.452136 4.83593,-6.771692 1.79389,-1.59887 4.27404,-2.941844 6.9774,-3.778182 1.6549,-0.511974 2.57744,-0.614853 5.55625,-0.619617 3.94329,-0.0063 7.40834,0.629704 7.40834,1.359803 0,0.730201 -5.85313,6.248872 -7.89526,7.444109 -3.87973,2.270768 -9.01698,3.758083 -12.98058,3.758083 h -1.87501 l -0.79802,1.101631 c -0.84739,1.169791 -1.58655,3.267529 -1.58655,4.502646 0,0.71587 -0.0516,0.74573 -1.289103,0.74573 h -1.289101 z"
         id="path25097" />
      <path
         style="fill:#da9d94;stroke-width:1.32029"
         d="m 97.276897,101.69056 c 1.418828,-0.0476 3.740543,-0.0476 5.159373,0 1.41883,0.0476 0.25797,0.0865 -2.579686,0.0865 -2.837656,0 -3.998515,-0.0389 -2.579687,-0.0865 z"
         id="path25095" />
      <path
         style="fill:#df7a83;stroke-width:1.32029"
         d="m 97.886004,100.49868 c -0.05604,-0.1819 -0.167938,-0.635462 -0.248664,-1.007908 -0.08073,-0.372447 -0.418092,-1.078066 -0.749702,-1.568043 l -0.602929,-0.890867 -3.704166,-0.04414 c -2.965557,-0.03534 -4.098407,-0.161361 -5.681301,-0.632021 -2.843486,-0.845486 -5.821725,-2.485534 -7.736932,-4.26055 l -1.663017,-1.541287 1.058334,-0.455012 c 4.44821,-1.912427 9.575356,-2.049645 13.057113,-0.349447 1.875883,0.916024 4.957374,3.660987 5.738864,5.112126 0.278656,0.517434 0.56887,0.941041 0.644918,0.941348 0.07605,3.07e-4 0.101026,-1.240648 0.05551,-2.757677 l -0.08277,-2.758234 -1.10786,-0.178993 c -1.873202,-0.302644 -8.15388,-1.976606 -9.992893,-2.663362 -2.417557,-0.902805 -5.586559,-3.036974 -7.797861,-5.251481 -1.831506,-1.83416 -4.616063,-5.673892 -4.616063,-6.365265 0,-0.249874 0.660674,-0.405991 2.293824,-0.542032 4.496238,-0.374534 7.888797,0.293995 11.82063,2.329344 3.269848,1.692667 6.350532,4.842434 8.47216,8.662144 l 0.955245,1.719791 0.003,-4.691313 0.003,-4.691313 -0.727604,-0.142196 C 89.129066,76.87996 84.785498,74.762568 81.502762,70.782755 79.847853,68.776432 77.740508,64.8396 77.983079,64.207469 c 0.226488,-0.590219 5.656214,-0.590614 7.94469,-5.77e-4 4.619838,1.19113 8.763246,5.039683 11.278544,10.475934 l 0.773905,1.672622 0.01214,-5.161576 0.01214,-5.161575 -2.252839,-0.582382 C 89.16986,63.748452 85.129873,60.174852 83.313356,54.44752 c -1.018774,-3.212113 -1.024426,-3.198778 1.263541,-2.980902 2.874964,0.273774 5.124309,0.859063 6.863021,1.785787 2.5764,1.373207 4.967475,4.318864 6.183173,7.617287 0.310519,0.842498 0.345733,0.559033 0.360601,-2.902784 l 0.01648,-3.836458 -1.548887,-1.234975 C 94.651744,51.46065 92.88849,48.964373 92.318294,47.044316 91.618173,44.686753 91.960337,40.850013 93.057443,38.75611 l 0.341275,-0.651346 1.920197,0.960635 c 2.570577,1.286008 4.545453,3.235519 5.287955,5.220043 0.74832,2.00005 0.76422,4.634661 0.0376,6.23588 -0.34446,0.759133 -0.5204,1.708738 -0.51472,2.778125 l 0.009,1.624752 0.45865,-1.326371 c 1.08401,-3.134845 2.96445,-5.25139 5.51267,-6.204799 1.53952,-0.576009 4.16169,-1.062677 5.74248,-1.065789 l 1.01544,-0.002 -0.18749,1.109763 c -0.94347,5.584334 -4.0921,8.969935 -10.64079,11.441655 l -1.91823,0.72401 0.0237,5.202389 c 0.0218,4.788746 0.0513,5.101754 0.37173,3.936694 1.11966,-4.071305 3.93908,-7.770284 7.52965,-9.878618 2.96314,-1.739919 4.87165,-2.264772 8.28774,-2.279192 1.56823,-0.0066 2.92679,0.06342 3.01901,0.155649 0.2519,0.251896 -1.13147,3.599522 -2.25596,5.459231 -2.88331,4.768481 -7.83071,8.08595 -14.71136,9.864667 l -2.26447,0.58539 0.0193,5.823034 0.0193,5.823034 0.49548,-1.394224 c 3.39733,-9.559769 10.89104,-14.876648 19.98249,-14.177824 1.23064,0.09459 2.23753,0.27646 2.23753,0.404145 0,0.38551 -1.86622,3.973355 -2.72873,5.246028 -1.41852,2.093112 -3.11962,3.944309 -4.78202,5.203992 -2.02302,1.53293 -6.32558,3.61388 -11.14237,5.389039 -2.03729,0.750815 -3.79696,1.452183 -3.91037,1.558596 -0.1134,0.106412 -0.17294,1.850907 -0.13229,3.876654 l 0.0739,3.683177 0.8966,-1.719792 c 2.17385,-4.169738 4.67699,-6.807377 8.01121,-8.44166 3.27951,-1.607465 5.05143,-1.998437 9.08385,-2.004343 3.38606,-0.005 7.27605,0.636783 7.27605,1.200352 0,0.12229 -0.57922,0.91835 -1.28716,1.769022 -4.87551,5.85852 -11.32324,9.085465 -19.03423,9.526206 -2.4081,0.137641 -2.4766,0.15985 -3.12833,1.014315 -0.86692,1.136585 -1.6857,3.312413 -1.6857,4.479571 0,0.91873 -0.006,0.92321 -1.198928,0.92321 -0.728414,0 -1.238915,-0.1298 -1.300818,-0.33073 z"
         id="path25084" />
      <path
         style="fill:#b06034;stroke-width:1.32029"
         d="m 97.886004,100.49868 c -0.05604,-0.1819 -0.167938,-0.635462 -0.248664,-1.007908 -0.08073,-0.372447 -0.418092,-1.078066 -0.749702,-1.568043 l -0.602929,-0.890867 -3.704166,-0.04414 c -2.965557,-0.03534 -4.098407,-0.161361 -5.681301,-0.632021 -2.843486,-0.845486 -5.821725,-2.485534 -7.736932,-4.26055 l -1.663017,-1.541287 1.058334,-0.455012 c 4.44821,-1.912427 9.575356,-2.049645 13.057113,-0.349447 1.875883,0.916024 4.957374,3.660987 5.738864,5.112126 0.278656,0.517434 0.56887,0.941041 0.644918,0.941348 0.07605,3.07e-4 0.101026,-1.240648 0.05551,-2.757677 l -0.08277,-2.758234 -1.10786,-0.178993 c -1.873202,-0.302644 -8.15388,-1.976606 -9.992893,-2.663362 -2.417557,-0.902805 -5.586559,-3.036974 -7.797861,-5.251481 -1.831506,-1.83416 -4.616063,-5.673892 -4.616063,-6.365265 0,-0.249874 0.660674,-0.405991 2.293824,-0.542032 4.496238,-0.374534 7.888797,0.293995 11.82063,2.329344 3.269848,1.692667 6.350532,4.842434 8.47216,8.662144 l 0.955245,1.719791 0.003,-4.691313 0.003,-4.691313 -0.727604,-0.142196 C 89.129066,76.87996 84.785498,74.762568 81.502762,70.782755 79.847853,68.776432 77.740508,64.8396 77.983079,64.207469 c 0.226488,-0.590219 5.656214,-0.590614 7.94469,-5.77e-4 4.619838,1.19113 8.763246,5.039683 11.278544,10.475934 l 0.773905,1.672622 0.01214,-5.161576 0.01214,-5.161575 -2.252839,-0.582382 C 89.16986,63.748452 85.129873,60.174852 83.313356,54.44752 c -1.018774,-3.212113 -1.024426,-3.198778 1.263541,-2.980902 2.874964,0.273774 5.124309,0.859063 6.863021,1.785787 2.5764,1.373207 4.967475,4.318864 6.183173,7.617287 0.310519,0.842498 0.345733,0.559033 0.360601,-2.902784 l 0.01648,-3.836458 -1.548887,-1.234975 C 94.651744,51.46065 92.88849,48.964373 92.318294,47.044316 91.618173,44.686753 91.960337,40.850013 93.057443,38.75611 l 0.341275,-0.651346 1.920197,0.960635 c 2.570577,1.286008 4.545453,3.235519 5.287955,5.220043 0.74832,2.00005 0.76422,4.634661 0.0376,6.23588 -0.34446,0.759133 -0.5204,1.708738 -0.51472,2.778125 l 0.009,1.624752 0.45865,-1.326371 c 1.08401,-3.134845 2.96445,-5.25139 5.51267,-6.204799 1.53952,-0.576009 4.16169,-1.062677 5.74248,-1.065789 l 1.01544,-0.002 -0.18749,1.109763 c -0.94347,5.584334 -4.0921,8.969935 -10.64079,11.441655 l -1.91823,0.72401 0.0237,5.202389 c 0.0218,4.788746 0.0513,5.101754 0.37173,3.936694 1.11966,-4.071305 3.93908,-7.770284 7.52965,-9.878618 2.96314,-1.739919 4.87165,-2.264772 8.28774,-2.279192 1.56823,-0.0066 2.92679,0.06342 3.01901,0.155649 0.2519,0.251896 -1.13147,3.599522 -2.25596,5.459231 -2.88331,4.768481 -7.83071,8.08595 -14.71136,9.864667 l -2.26447,0.58539 0.0193,5.823034 0.0193,5.823034 0.49548,-1.394224 c 3.39733,-9.559769 10.89104,-14.876648 19.98249,-14.177824 1.23064,0.09459 2.23753,0.27646 2.23753,0.404145 0,0.38551 -1.86622,3.973355 -2.72873,5.246028 -1.41852,2.093112 -3.11962,3.944309 -4.78202,5.203992 -2.02302,1.53293 -6.32558,3.61388 -11.14237,5.389039 -2.03729,0.750815 -3.79696,1.452183 -3.91037,1.558596 -0.1134,0.106412 -0.17294,1.850907 -0.13229,3.876654 l 0.0739,3.683177 0.8966,-1.719792 c 2.17385,-4.169738 4.67699,-6.807377 8.01121,-8.44166 3.27951,-1.607465 5.05143,-1.998437 9.08385,-2.004343 3.38606,-0.005 7.27605,0.636783 7.27605,1.200352 0,0.12229 -0.57922,0.91835 -1.28716,1.769022 -4.87551,5.85852 -11.32324,9.085465 -19.03423,9.526206 -2.4081,0.137641 -2.4766,0.15985 -3.12833,1.014315 -0.86692,1.136585 -1.6857,3.312413 -1.6857,4.479571 0,0.91873 -0.006,0.92321 -1.198928,0.92321 -0.728414,0 -1.238915,-0.1298 -1.300818,-0.33073 z"
         id="path25071" />
      <path
         style="fill:#982c44;stroke-width:1.32029"
         d="m 97.886004,100.49868 c -0.05604,-0.1819 -0.167938,-0.635462 -0.248664,-1.007908 -0.08073,-0.372447 -0.418092,-1.078066 -0.749702,-1.568043 l -0.602929,-0.890867 -3.704166,-0.04414 c -2.965557,-0.03534 -4.098407,-0.161361 -5.681301,-0.632021 -2.843486,-0.845486 -5.821725,-2.485534 -7.736932,-4.26055 l -1.663017,-1.541287 1.058334,-0.455012 c 4.44821,-1.912427 9.575356,-2.049645 13.057113,-0.349447 1.875883,0.916024 4.957374,3.660987 5.738864,5.112126 0.278656,0.517434 0.56887,0.941041 0.644918,0.941348 0.07605,3.07e-4 0.101026,-1.240648 0.05551,-2.757677 l -0.08277,-2.758234 -1.10786,-0.178993 c -1.873202,-0.302644 -8.15388,-1.976606 -9.992893,-2.663362 -2.417557,-0.902805 -5.586559,-3.036974 -7.797861,-5.251481 -1.831506,-1.83416 -4.616063,-5.673892 -4.616063,-6.365265 0,-0.249874 0.660674,-0.405991 2.293824,-0.542032 4.496238,-0.374534 7.888797,0.293995 11.82063,2.329344 3.269848,1.692667 6.350532,4.842434 8.47216,8.662144 l 0.955245,1.719791 0.003,-4.691313 0.003,-4.691313 -0.727604,-0.142196 C 89.129066,76.87996 84.785498,74.762568 81.502762,70.782755 79.847853,68.776432 77.740508,64.8396 77.983079,64.207469 c 0.226488,-0.590219 5.656214,-0.590614 7.94469,-5.77e-4 4.619838,1.19113 8.763246,5.039683 11.278544,10.475934 l 0.773905,1.672622 0.01214,-5.161576 0.01214,-5.161575 -2.252839,-0.582382 C 89.16986,63.748452 85.129873,60.174852 83.313356,54.44752 c -1.018774,-3.212113 -1.024426,-3.198778 1.263541,-2.980902 2.874964,0.273774 5.124309,0.859063 6.863021,1.785787 2.5764,1.373207 4.967475,4.318864 6.183173,7.617287 0.310519,0.842498 0.345733,0.559033 0.360601,-2.902784 l 0.01648,-3.836458 -1.548887,-1.234975 C 94.651744,51.46065 92.88849,48.964373 92.318294,47.044316 91.618173,44.686753 91.960337,40.850013 93.057443,38.75611 l 0.341275,-0.651346 1.920197,0.960635 c 2.570577,1.286008 4.545453,3.235519 5.287955,5.220043 0.74832,2.00005 0.76422,4.634661 0.0376,6.23588 -0.34446,0.759133 -0.5204,1.708738 -0.51472,2.778125 l 0.009,1.624752 0.45865,-1.326371 c 1.08401,-3.134845 2.96445,-5.25139 5.51267,-6.204799 1.53952,-0.576009 4.16169,-1.062677 5.74248,-1.065789 l 1.01544,-0.002 -0.18749,1.109763 c -0.94347,5.584334 -4.0921,8.969935 -10.64079,11.441655 l -1.91823,0.72401 0.0237,5.202389 c 0.0218,4.788746 0.0513,5.101754 0.37173,3.936694 1.11966,-4.071305 3.93908,-7.770284 7.52965,-9.878618 2.96314,-1.739919 4.87165,-2.264772 8.28774,-2.279192 1.56823,-0.0066 2.92679,0.06342 3.01901,0.155649 0.0922,0.09223 -0.14879,0.974335 -0.5356,1.960244 -2.69369,6.865764 -8.01742,11.188471 -16.47071,13.373735 l -2.22548,0.575309 0.0193,5.823034 0.0193,5.823034 0.49548,-1.394224 c 3.39733,-9.559769 10.89104,-14.876648 19.98249,-14.177824 1.23064,0.09459 2.23753,0.27646 2.23753,0.404145 0,0.38551 -1.86622,3.973355 -2.72873,5.246028 -1.41852,2.093112 -3.11962,3.944309 -4.78202,5.203992 -2.02302,1.53293 -6.32558,3.61388 -11.14237,5.389039 -2.03729,0.750815 -3.79696,1.452183 -3.91037,1.558596 -0.1134,0.106412 -0.17294,1.850907 -0.13229,3.876654 l 0.0739,3.683177 0.8966,-1.719792 c 2.17385,-4.169738 4.67699,-6.807377 8.01121,-8.44166 3.27951,-1.607465 5.05143,-1.998437 9.08385,-2.004343 3.38606,-0.005 7.27605,0.636783 7.27605,1.200352 0,0.12229 -0.57922,0.91835 -1.28716,1.769022 -4.87551,5.85852 -11.32324,9.085465 -19.03423,9.526206 -2.4081,0.137641 -2.4766,0.15985 -3.12833,1.014315 -0.86692,1.136585 -1.6857,3.312413 -1.6857,4.479571 0,0.91873 -0.006,0.92321 -1.198928,0.92321 -0.728414,0 -1.238915,-0.1298 -1.300818,-0.33073 z"
         id="path25029" />
      <path
         style="fill:#8d2635;stroke-width:1.32029"
         d="m 97.886004,100.49868 c -0.05604,-0.1819 -0.167938,-0.635462 -0.248664,-1.007908 -0.08073,-0.372447 -0.418092,-1.078066 -0.749702,-1.568043 l -0.602929,-0.890867 -3.704166,-0.04414 c -2.965557,-0.03534 -4.098407,-0.161361 -5.681301,-0.632021 -2.843486,-0.845486 -5.821725,-2.485534 -7.736932,-4.26055 l -1.663017,-1.541287 1.058334,-0.455012 c 4.44821,-1.912427 9.575356,-2.049645 13.057113,-0.349447 1.875883,0.916024 4.957374,3.660987 5.738864,5.112126 0.278656,0.517434 0.56887,0.941041 0.644918,0.941348 0.07605,3.07e-4 0.101026,-1.240648 0.05551,-2.757677 l -0.08277,-2.758234 -1.10786,-0.178993 c -1.873202,-0.302644 -8.15388,-1.976606 -9.992893,-2.663362 -2.417557,-0.902805 -5.586559,-3.036974 -7.797861,-5.251481 -1.831506,-1.83416 -4.616063,-5.673892 -4.616063,-6.365265 0,-0.249874 0.660674,-0.405991 2.293824,-0.542032 4.496238,-0.374534 7.888797,0.293995 11.82063,2.329344 3.269848,1.692667 6.350532,4.842434 8.47216,8.662144 l 0.955245,1.719791 0.003,-4.691313 0.003,-4.691313 -0.727604,-0.142196 C 89.129066,76.87996 84.785498,74.762568 81.502762,70.782755 79.847853,68.776432 77.740508,64.8396 77.983079,64.207469 c 0.226488,-0.590219 5.656214,-0.590614 7.94469,-5.77e-4 4.619838,1.19113 8.763246,5.039683 11.278544,10.475934 l 0.773905,1.672622 0.01214,-5.161576 0.01214,-5.161575 -2.252839,-0.582382 C 89.16986,63.748452 85.129873,60.174852 83.313356,54.44752 c -1.018774,-3.212113 -1.024426,-3.198778 1.263541,-2.980902 2.874964,0.273774 5.124309,0.859063 6.863021,1.785787 2.5764,1.373207 4.967475,4.318864 6.183173,7.617287 0.310519,0.842498 0.345733,0.559033 0.360601,-2.902784 l 0.01648,-3.836458 -1.548887,-1.234975 C 94.651744,51.46065 92.88849,48.964373 92.318294,47.044316 91.618173,44.686753 91.960337,40.850013 93.057443,38.75611 l 0.341275,-0.651346 1.920197,0.960635 c 2.570577,1.286008 4.545453,3.235519 5.287955,5.220043 0.74832,2.00005 0.76422,4.634661 0.0376,6.23588 -0.34446,0.759133 -0.5204,1.708738 -0.51472,2.778125 l 0.009,1.624752 0.45865,-1.326371 c 1.08401,-3.134845 2.96445,-5.25139 5.51267,-6.204799 1.53952,-0.576009 4.16169,-1.062677 5.74248,-1.065789 l 1.01544,-0.002 -0.18749,1.109763 c -0.94347,5.584334 -4.0921,8.969935 -10.64079,11.441655 l -1.91823,0.72401 0.0237,5.202389 c 0.0218,4.788746 0.0513,5.101754 0.37173,3.936694 1.11966,-4.071305 3.93908,-7.770284 7.52965,-9.878618 2.96314,-1.739919 4.87165,-2.264772 8.28774,-2.279192 1.56823,-0.0066 2.92679,0.06342 3.01901,0.155649 0.0922,0.09223 -0.14879,0.974335 -0.5356,1.960244 -2.69369,6.865764 -8.01742,11.188471 -16.47071,13.373735 l -2.22548,0.575309 0.0193,5.823034 0.0193,5.823034 0.49548,-1.394224 c 3.39733,-9.559769 10.89104,-14.876648 19.98249,-14.177824 1.23064,0.09459 2.23753,0.27646 2.23753,0.404145 0,0.38551 -1.86622,3.973355 -2.72873,5.246028 -1.41852,2.093112 -3.11962,3.944309 -4.78202,5.203992 -2.02302,1.53293 -6.32558,3.61388 -11.14237,5.389039 -2.03729,0.750815 -3.79696,1.452183 -3.91037,1.558596 -0.1134,0.106412 -0.17294,1.850907 -0.13229,3.876654 l 0.0739,3.683177 0.8966,-1.719792 c 2.17385,-4.169738 4.67699,-6.807377 8.01121,-8.44166 3.27951,-1.607465 5.05143,-1.998437 9.08385,-2.004343 3.38606,-0.005 7.27605,0.636783 7.27605,1.200352 0,0.12229 -0.57922,0.91835 -1.28716,1.769022 -4.87551,5.85852 -11.32324,9.085465 -19.03423,9.526206 -2.4081,0.137641 -2.4766,0.15985 -3.12833,1.014315 -0.86692,1.136585 -1.6857,3.312413 -1.6857,4.479571 0,0.91873 -0.006,0.92321 -1.198928,0.92321 -0.728414,0 -1.238915,-0.1298 -1.300818,-0.33073 z"
         id="path24948" />
      <path
         style="fill:#166e63;stroke-width:1.32029"
         d="m 97.886004,100.49868 c -0.05604,-0.1819 -0.167938,-0.635462 -0.248664,-1.007908 -0.08073,-0.372447 -0.418092,-1.078066 -0.749702,-1.568043 l -0.602929,-0.890867 -3.704166,-0.04414 c -2.965557,-0.03534 -4.098407,-0.161361 -5.681301,-0.632021 -2.843486,-0.845486 -5.821725,-2.485534 -7.736932,-4.26055 l -1.663017,-1.541287 1.058334,-0.455012 c 4.44821,-1.912427 9.575356,-2.049645 13.057113,-0.349447 1.875883,0.916024 4.957374,3.660987 5.738864,5.112126 0.278656,0.517434 0.56887,0.941041 0.644918,0.941348 0.07605,3.07e-4 0.101026,-1.240648 0.05551,-2.757677 l -0.08277,-2.758234 -1.10786,-0.178993 c -1.873202,-0.302644 -8.15388,-1.976606 -9.992893,-2.663362 -2.417557,-0.902805 -5.586559,-3.036974 -7.797861,-5.251481 -1.831506,-1.83416 -4.616063,-5.673892 -4.616063,-6.365265 0,-0.249874 0.660674,-0.405991 2.293824,-0.542032 4.496238,-0.374534 7.888797,0.293995 11.82063,2.329344 3.269848,1.692667 6.350532,4.842434 8.47216,8.662144 l 0.955245,1.719791 0.003,-4.691313 0.003,-4.691313 -0.727604,-0.142196 C 89.129066,76.87996 84.785498,74.762568 81.502762,70.782755 79.847853,68.776432 77.740508,64.8396 77.983079,64.207469 c 0.226488,-0.590219 5.656214,-0.590614 7.94469,-5.77e-4 4.619838,1.19113 8.763246,5.039683 11.278544,10.475934 l 0.773905,1.672622 0.01214,-5.161576 0.01214,-5.161575 -2.252839,-0.582382 C 89.16986,63.748452 85.129873,60.174852 83.313356,54.44752 c -1.018774,-3.212113 -1.024426,-3.198778 1.263541,-2.980902 2.874964,0.273774 5.124309,0.859063 6.863021,1.785787 2.5764,1.373207 4.967475,4.318864 6.183173,7.617287 0.310519,0.842498 0.345733,0.559033 0.360601,-2.902784 l 0.01648,-3.836458 -1.548887,-1.234975 C 94.651744,51.46065 92.88849,48.964373 92.318294,47.044316 91.618173,44.686753 91.960337,40.850013 93.057443,38.75611 l 0.341275,-0.651346 1.920197,0.960635 c 2.570577,1.286008 4.545453,3.235519 5.287955,5.220043 0.74832,2.00005 0.76422,4.634661 0.0376,6.23588 -0.34446,0.759133 -0.5204,1.708738 -0.51472,2.778125 l 0.009,1.624752 0.45865,-1.326371 c 1.08401,-3.134845 2.96445,-5.25139 5.51267,-6.204799 1.53952,-0.576009 4.16169,-1.062677 5.74248,-1.065789 l 1.01544,-0.002 -0.18749,1.109763 c -0.94347,5.584334 -4.0921,8.969935 -10.64079,11.441655 l -1.91823,0.72401 0.0237,5.202389 c 0.0218,4.788746 0.0513,5.101754 0.37173,3.936694 1.11966,-4.071305 3.93908,-7.770284 7.52965,-9.878618 2.96314,-1.739919 4.87165,-2.264772 8.28774,-2.279192 1.56823,-0.0066 2.92679,0.06342 3.01901,0.155649 0.0922,0.09223 -0.14879,0.974335 -0.5356,1.960244 -2.69369,6.865764 -8.01742,11.188471 -16.47071,13.373735 l -2.22548,0.575309 0.0193,5.823034 0.0193,5.823034 0.49548,-1.394224 c 3.39733,-9.559769 10.89104,-14.876648 19.98249,-14.177824 1.23064,0.09459 2.23753,0.27646 2.23753,0.404145 0,0.38551 -1.86622,3.973355 -2.72873,5.246028 -1.41852,2.093112 -3.11962,3.944309 -4.78202,5.203992 -2.02302,1.53293 -6.32558,3.61388 -11.14237,5.389039 -2.03729,0.750815 -3.79696,1.452183 -3.91037,1.558596 -0.1134,0.106412 -0.17294,1.850907 -0.13229,3.876654 l 0.0739,3.683177 0.8966,-1.719792 c 2.17385,-4.169738 4.67699,-6.807377 8.01121,-8.44166 3.27951,-1.607465 5.05143,-1.998437 9.08385,-2.004343 3.38606,-0.005 7.27605,0.636783 7.27605,1.200352 0,0.12229 -0.57922,0.91835 -1.28716,1.769022 -4.87551,5.85852 -11.32324,9.085465 -19.03423,9.526206 -2.4081,0.137641 -2.4766,0.15985 -3.12833,1.014315 -0.86692,1.136585 -1.6857,3.312413 -1.6857,4.479571 0,0.91873 -0.006,0.92321 -1.198928,0.92321 -0.728414,0 -1.238915,-0.1298 -1.300818,-0.33073 z"
         id="path24881" />
      <path
         style="fill:#0f645b;stroke-width:1.32029"
         d="m 97.870271,100.1018 c -0.07937,-0.400181 -0.42216,-1.263384 -0.761753,-1.918228 l -0.617442,-1.190625 -3.675058,-0.03427 c -3.158157,-0.02945 -4.009984,-0.134259 -6.056308,-0.745196 -3.038299,-0.907095 -5.581352,-2.278907 -7.592689,-4.095763 l -1.589316,-1.435641 0.948049,-0.486378 c 1.877531,-0.963231 5.379055,-1.598079 8.233956,-1.492867 2.382702,0.08781 2.843181,0.19172 4.630208,1.044828 1.091406,0.521026 2.614359,1.516603 3.38434,2.212394 1.431045,1.293158 3.127,3.504534 2.878381,3.753153 -0.07606,0.07606 -0.329219,-0.230938 -0.562582,-0.682211 -0.633025,-1.224137 -3.063659,-3.542338 -4.676011,-4.459716 -0.781552,-0.444679 -2.130925,-1.013229 -2.998607,-1.263445 -2.272409,-0.6553 -6.155916,-0.420779 -9.071875,0.547841 -1.200547,0.398797 -2.182812,0.807584 -2.182812,0.908415 0,0.407645 3.427833,2.916658 5.196685,3.80373 3.009112,1.509057 5.439232,2.028246 9.493423,2.028246 1.91287,0 3.565525,0.08758 3.672566,0.19462 0.107041,0.107041 0.534341,0.211705 0.949557,0.232587 0.540848,0.0272 0.715396,-0.06508 0.615503,-0.325391 -0.07669,-0.199848 -0.275786,-0.295683 -0.442439,-0.212967 -0.166652,0.08272 -0.0985,-0.01757 0.151439,-0.222853 0.382572,-0.314217 0.445339,-0.795134 0.396875,-3.040836 -0.03166,-1.467174 -0.119787,-2.729559 -0.195833,-2.805298 -0.07604,-0.07574 -0.969014,-0.320473 -1.984375,-0.54385 -8.638605,-1.900478 -11.833042,-3.248218 -15.947781,-6.728405 -1.480716,-1.252368 -4.2159,-4.696364 -5.089018,-6.407817 l -0.51942,-1.018147 0.991513,-0.209169 c 1.791915,-0.378021 6.682004,-0.192656 8.532138,0.323422 2.457379,0.685464 5.705234,2.290454 7.480807,3.696786 1.852088,1.466934 4.612183,4.894947 5.649184,7.016235 0.418348,0.855773 0.841729,1.562356 0.940846,1.570184 0.09912,0.0078 0.13868,-0.491783 0.08792,-1.110246 -0.05076,-0.618464 -0.102091,-2.756999 -0.114067,-4.752302 l -0.02177,-3.627822 -0.992188,-0.229842 C 88.16517,76.345508 84.951909,74.771853 81.650395,70.871652 c -1.466646,-1.732603 -3.9902,-6.406504 -3.64565,-6.752147 0.109364,-0.10971 1.409595,-0.238987 2.889404,-0.287283 7.093701,-0.231513 12.08581,2.888619 15.659088,9.78713 0.652674,1.260042 1.186268,2.450667 1.185764,2.645833 -5.04e-4,0.195166 -0.539311,-0.745473 -1.197349,-2.090308 -0.658037,-1.344835 -1.336673,-2.416397 -1.50808,-2.38125 -0.171406,0.03515 -0.317208,-0.17422 -0.324005,-0.465262 -0.0069,-0.29515 -0.167315,-0.497015 -0.362753,-0.456465 -0.192718,0.03999 -0.272796,-0.05286 -0.177951,-0.206321 0.369149,-0.597295 -3.023124,-3.781198 -5.251711,-4.929127 -2.662251,-1.371305 -7.848888,-2.114685 -10.178632,-1.458861 l -0.612857,0.172519 1.066664,2.116211 c 1.250876,2.481681 3.354475,5.259286 3.782663,4.994652 0.168602,-0.104202 0.220907,-0.06283 0.122292,0.09673 -0.472925,0.765209 4.168995,3.660541 7.729072,4.820898 2.670345,0.870362 6.825924,1.772471 7.064751,1.533644 0.181936,-0.181937 0.187908,-0.46028 0.146798,-6.842245 l -0.0334,-5.185445 -2.247372,-0.593694 C 93.022529,64.668455 89.866788,63.17167 88.06854,61.744121 85.685992,59.852722 83.417377,55.836672 82.791809,52.40291 l -0.170119,-0.933788 2.465886,0.186348 c 4.351354,0.328835 7.301903,1.64174 9.604154,4.273559 1.226436,1.402001 2.636292,3.998477 2.902364,5.345168 0.172754,0.874373 -0.0531,0.487163 -0.653932,-1.121116 -0.175994,-0.471093 -0.42387,-0.792331 -0.550835,-0.713863 -0.126965,0.07847 -0.152445,-0.06164 -0.05662,-0.311349 0.11317,-0.294916 0.07216,-0.390939 -0.11704,-0.274009 -0.160195,0.09901 -0.377419,0.04061 -0.482719,-0.129769 -0.119571,-0.19347 -0.07677,-0.238898 0.11401,-0.120993 0.581046,0.359107 0.301116,-0.291536 -0.767431,-1.783745 -0.590093,-0.824054 -1.192432,-1.498281 -1.338532,-1.498281 -0.1461,0 -0.180682,0.137459 -0.07685,0.305464 0.117906,0.190775 0.07248,0.233581 -0.120992,0.11401 -0.170379,-0.1053 -0.251114,-0.286378 -0.179411,-0.402395 0.207923,-0.336427 -0.846636,-1.149194 -1.204278,-0.928159 -0.201133,0.124307 -0.253839,0.08858 -0.140313,-0.0951 0.105796,-0.171183 -0.161635,-0.471805 -0.639585,-0.718962 -0.684677,-0.35406 -0.895317,-0.366946 -1.265421,-0.07741 -0.390142,0.305208 -0.403547,0.295499 -0.110478,-0.08002 0.293649,-0.37626 0.136967,-0.482522 -1.310203,-0.888578 -0.904057,-0.253665 -2.558761,-0.523926 -3.67712,-0.60058 l -2.03338,-0.139371 0.137932,0.721547 c 0.103357,0.540674 0.199704,0.632544 0.384353,0.36649 0.167569,-0.241443 0.190718,-0.157886 0.07234,0.261126 -0.19874,0.70348 0.836313,3.749441 1.274103,3.749441 0.152032,0 0.201795,0.07463 0.110585,0.165837 -0.275308,0.275308 0.60182,1.72056 0.92354,1.521725 0.167774,-0.103689 0.220433,-0.06247 0.122544,0.09592 -0.09441,0.152757 0.0138,0.348906 0.240473,0.435887 0.226668,0.08698 0.349978,0.258702 0.274021,0.381603 -0.207127,0.335139 1.862594,2.250889 2.203903,2.039948 0.162522,-0.100444 0.26237,-0.03861 0.222321,0.137685 -0.193253,0.850659 6.780689,3.840141 8.480267,3.63519 L 98.08792,65.24295 98.0367,59.6867 C 97.98707,54.302872 97.9673,54.115569 97.399679,53.650901 92.251323,49.436363 90.791482,44.794117 92.878584,39.273969 l 0.415197,-1.098149 1.230881,0.539076 c 1.632888,0.715139 4.052797,2.419227 4.72329,3.326117 1.931038,2.611864 2.427778,5.62955 1.380318,8.385271 -0.723887,1.904442 -0.948609,6.342215 -0.30872,6.096668 0.19705,-0.07561 0.28705,-0.02224 0.2,0.118603 -0.28354,0.458783 0.40452,1.384677 0.92739,1.247943 0.33607,-0.08788 0.44314,-0.01371 0.34592,0.239649 -0.0774,0.201811 -0.009,0.366928 0.15208,0.366928 0.16109,0 0.29289,-0.126089 0.29289,-0.280198 0,-0.154109 0.12293,-0.204226 0.27317,-0.111371 0.30461,0.188256 3.30028,-1.143 4.5093,-2.003901 0.429,-0.305475 0.70068,-0.683764 0.60372,-0.840642 -0.10802,-0.174777 -0.0515,-0.208128 0.14588,-0.08612 0.47725,0.294957 2.30485,-1.813853 3.19265,-3.683908 0.4159,-0.876047 0.9334,-2.277423 1.14999,-3.114168 l 0.39381,-1.521354 h -1.41707 c -1.70034,0 -3.80058,0.424364 -5.31678,1.074283 -1.38209,0.592434 -3.34074,2.328713 -3.15956,2.800854 0.0743,0.193516 0.008,0.323511 -0.14827,0.288877 -0.38882,-0.08643 -1.35764,1.805002 -1.39059,2.714836 -0.0148,0.408126 -0.106,0.693478 -0.20271,0.634117 -0.0967,-0.05936 -0.24625,0.04164 -0.33231,0.224447 -0.0861,0.182808 -0.0907,-0.02481 -0.0103,-0.461372 0.24014,-1.30439 1.4365,-3.541151 2.48171,-4.639891 0.53871,-0.566311 1.77595,-1.402369 2.74942,-1.857909 1.45806,-0.682311 2.23619,-0.859579 4.41602,-1.006032 l 2.64609,-0.177778 -0.16376,0.930388 c -0.96663,5.491869 -4.16769,9.083863 -9.93313,11.146213 -1.31493,0.470362 -2.43428,0.983598 -2.48745,1.140523 -0.19485,0.575084 -0.242463,10.736891 -0.0503,10.736629 0.10914,-1.48e-4 0.19844,-0.295208 0.19844,-0.655687 0,-0.84652 1.14929,-3.896137 2.04532,-5.42722 1.7396,-2.972529 5.33707,-5.734344 9.11383,-6.996791 1.69228,-0.565671 2.5197,-0.678904 4.96094,-0.678904 1.61145,0 2.92991,0.05681 2.92991,0.126252 0,0.397833 -1.45263,3.886885 -2.03925,4.898052 -2.98171,5.139608 -8.26289,8.731764 -15.38092,10.461804 l -1.89441,0.460437 0.009,5.983498 0.009,5.983497 0.87009,-2.286458 c 2.64503,-6.950697 7.2053,-11.376617 13.33806,-12.945112 1.4449,-0.369544 2.90298,-0.511137 5.26349,-0.511137 1.79574,0 3.26497,0.06215 3.26497,0.138101 0,0.384013 -1.62568,3.628351 -2.51606,5.021273 -1.2989,2.031988 -4.08468,4.940052 -5.9506,6.2118 -2.14177,1.459754 -4.09968,2.380903 -9.26042,4.356799 -2.54661,0.975024 -4.7229,1.862809 -4.83619,1.972856 -0.11328,0.110047 -0.17282,1.911676 -0.13229,4.00362 l 0.0737,3.803534 0.98493,-1.972221 c 3.16637,-6.340344 7.81553,-9.577317 14.89122,-10.368006 2.28133,-0.254932 3.12458,-0.234885 5.32703,0.126644 1.43916,0.236236 2.95045,0.556432 3.35844,0.711547 l 0.74178,0.282026 -0.60445,0.859659 c -0.33245,0.472812 -1.56087,1.818785 -2.72983,2.991051 -4.50265,4.515401 -10.32862,7.041116 -17.20662,7.459541 -1.95995,0.119234 -2.44576,0.236308 -2.74586,0.661724 -0.29118,0.412781 -0.41024,0.444836 -0.59126,0.159184 -0.18117,-0.285903 -0.22747,-0.288177 -0.2307,-0.01133 -0.002,0.194019 -0.1384,0.263314 -0.30952,0.157557 -0.19077,-0.117906 -0.23358,-0.07248 -0.11401,0.120992 0.1053,0.170379 0.31774,0.231734 0.47208,0.136344 0.15435,-0.09539 0.22914,-0.06757 0.1662,0.06183 -0.77878,1.601263 -1.08436,2.544871 -1.20609,3.724326 l -0.14508,1.40574 h -1.148569 c -1.04161,0 -1.162007,-0.0678 -1.29288,-0.72761 z m 4.513079,-5.590548 c 0.13825,-0.128006 1.26339,-0.299549 2.50032,-0.381207 6.73525,-0.444639 12.50616,-2.865813 16.93768,-7.106171 1.43147,-1.369719 3.2923,-3.623514 3.12766,-3.78815 -0.0648,-0.06476 -0.88525,-0.322737 -1.82331,-0.573282 -2.43147,-0.649413 -7.3815,-0.585259 -10.07584,0.130586 -5.20867,1.383864 -8.93979,4.475781 -11.46285,9.499083 -0.39138,0.779215 -0.58885,1.522412 -0.49742,1.87205 0.15387,0.588398 0.83562,0.771299 1.29376,0.347091 z m -2.579541,-3.802159 -0.05278,-3.505729 -0.145662,3.042709 c -0.136058,2.842093 -0.09354,3.968749 0.14978,3.968749 0.05579,0 0.07768,-1.577578 0.04866,-3.505729 z m -1.54579,-1.012862 C 98.096173,89.393818 98.028716,88.9771 98.108115,88.77019 c 0.0794,-0.206911 0.03075,-0.376201 -0.108109,-0.376201 -0.138859,0 -0.615382,-0.718923 -1.058941,-1.597607 -0.499186,-0.988883 -0.919463,-1.527774 -1.103022,-1.414328 -0.178666,0.110421 -0.222822,0.06398 -0.111077,-0.116827 0.263434,-0.426245 -1.563013,-2.795778 -3.681267,-4.775873 -2.013999,-1.88264 -5.390843,-3.68049 -8.328698,-4.434243 -2.011418,-0.516062 -7.989043,-0.603363 -8.150486,-0.119036 -0.05324,0.159708 -0.205686,0.223079 -0.338778,0.140824 -0.390868,-0.24157 -0.280722,0.153412 0.308761,1.107215 0.30291,0.490119 0.660098,0.891126 0.79375,0.891126 0.133652,0 0.213238,0.148828 0.176858,0.330729 -0.03638,0.181901 0.0784,0.302392 0.255062,0.267757 0.176664,-0.03463 0.266006,0.08443 0.198538,0.264584 -0.165538,0.442023 1.963789,2.890871 2.321463,2.669817 0.155793,-0.09629 0.209566,-0.05583 0.119496,0.08991 -0.239413,0.387379 1.292041,1.769861 1.688884,1.524599 0.206464,-0.127602 0.259574,-0.09304 0.144108,0.09379 -0.226989,0.367276 2.211025,2.206237 2.694524,2.032443 0.189459,-0.0681 0.269662,-0.0028 0.17823,0.145163 -0.398358,0.644557 3.706066,2.014669 13.235631,4.418234 0.582084,0.146814 1.092288,0.28198 1.133789,0.30037 0.0415,0.01839 -0.05697,-0.213994 -0.218812,-0.516407 z m 3.295201,-4.108091 c 0.22934,-0.08801 0.35196,-0.265239 0.27248,-0.393844 -0.0795,-0.128606 0.0163,-0.172123 0.21282,-0.09671 0.40757,0.156401 4.2056,-1.177376 7.78154,-2.732689 3.91123,-1.701144 6.8284,-3.874574 9.02313,-6.722662 1.13828,-1.47714 3.49102,-5.668149 3.49856,-6.232103 0.006,-0.486532 -5.49085,-0.429904 -7.6685,0.07899 -2.53033,0.591318 -5.89785,2.354964 -7.72296,4.044696 -1.95299,1.808126 -4.35389,5.409375 -5.33511,8.002443 -0.40852,1.079611 -0.90127,2.281654 -1.09499,2.671206 -0.3005,0.60426 -0.29491,0.730267 0.038,0.858027 0.21464,0.08236 0.31614,0.269655 0.22557,0.416203 -0.18536,0.299919 0.14584,0.345733 0.76944,0.106436 z m 0.46481,-13.759598 c 3.27074,-0.831569 8.68647,-3.229241 8.68647,-3.845704 0,-0.141667 0.10507,-0.192642 0.23348,-0.113276 0.7744,0.478603 5.91282,-4.928653 5.42842,-5.712425 -0.1135,-0.183642 -0.0707,-0.231078 0.10863,-0.120275 0.3189,0.197087 1.252,-1.46144 2.14612,-3.814551 l 0.52641,-1.385402 -3.09705,0.142702 c -2.18702,0.100771 -3.56277,0.307904 -4.68201,0.704922 -1.98909,0.705577 -5.2265,2.609662 -5.01604,2.950191 0.0869,0.140641 0.0445,0.222996 -0.0943,0.18301 -0.46858,-0.134977 -1.94966,1.145477 -1.79404,1.551014 0.0819,0.213479 0.0472,0.325236 -0.0772,0.248349 -0.95601,-0.590846 -4.588879,7.766098 -3.64137,8.376488 0.20118,0.1296 0.1662,0.195736 -0.10497,0.198437 -0.22369,0.0022 -0.42465,0.242177 -0.44657,0.533218 -0.0219,0.291042 0.003,0.529167 0.0546,0.529167 0.052,0 0.84824,-0.191639 1.7695,-0.425865 z M 98.996688,53.21934 c 0.327422,-0.273145 0.595313,-0.671515 0.595313,-0.885266 0,-0.21375 0.313642,-1.073722 0.696979,-1.911049 0.61628,-1.346114 0.67999,-1.747165 0.5502,-3.463255 -0.1751,-2.315289 -1.03318,-4.094741 -2.727765,-5.656755 -1.011507,-0.932375 -3.969105,-2.65069 -4.56242,-2.65069 -0.479782,0 -1.203702,3.30923 -1.215473,5.55625 -0.01048,2.00133 0.08304,2.449846 0.84935,4.073419 0.614688,1.302327 1.389493,2.343474 2.707356,3.638021 1.015424,0.997458 1.995833,1.809598 2.178687,1.804757 0.182853,-0.0048 0.600351,-0.232286 0.927773,-0.505432 z"
         id="path24849" />
      <path
         style="fill:#61202c;stroke-width:1.32029"
         d="m 98.109645,57.702324 c 0,-2.110052 0.04109,-2.973255 0.09131,-1.918229 0.05022,1.055026 0.05022,2.781432 0,3.836458 -0.05022,1.055026 -0.09131,0.191823 -0.09131,-1.918229 z"
         id="path24817" />
      <path
         style="fill:#61202c;stroke-width:1.32029"
         d="m 99.916378,64.568261 c -0.05904,-4.846412 0.0462,-5.54302 0.837442,-5.54302 0.14423,0 0.0624,0.148828 -0.18185,0.330729 -0.38265,0.284977 -0.45457,1.007867 -0.51994,5.225521 l -0.07586,4.894791 z"
         id="path24810" />
      <path
         style="fill:#61202c;stroke-width:1.32029"
         d="m 98.114788,71.063782 c 2.54e-4,-2.764896 0.03946,-3.86004 0.08713,-2.433653 0.04766,1.426387 0.04746,3.688574 -4.63e-4,5.027083 -0.04792,1.338509 -0.08692,0.171466 -0.08666,-2.59343 z"
         id="path24799" />
      <path
         style="fill:#61202c;stroke-width:1.32029"
         d="m 99.968969,78.339823 c 0,-3.128698 0.03827,-4.408619 0.08505,-2.84427 0.0468,1.564348 0.0468,4.124192 0,5.688541 -0.0468,1.564349 -0.08505,0.284427 -0.08505,-2.844271 z"
         id="path24788" />
      <path
         style="fill:#61202c;stroke-width:1.32029"
         d="m 99.914619,90.208234 c -0.04979,-3.323823 0.0014,-3.897115 0.360481,-4.034895 0.66264,-0.25428 0.77814,-0.188368 0.29811,0.17013 -0.36997,0.276305 -0.45581,0.940271 -0.5217,4.034895 l -0.07886,3.704167 z"
         id="path24771" />
      <path
         style="fill:#61202c;stroke-width:1.32029"
         d="m 99.658146,100.56142 c 0.260489,-0.16173 0.463024,-0.608306 0.463024,-1.020946 0,-1.181058 0.75025,-3.049091 1.61628,-4.024344 l 0.80315,-0.904433 -0.6624,0.927215 c -0.865,1.210819 -1.24617,2.214902 -1.45463,3.83176 -0.13487,1.046028 -0.27975,1.335848 -0.699278,1.398808 -0.483676,0.0726 -0.489362,0.0547 -0.06615,-0.20806 z"
         id="path24765" />
      <path
         style="fill:#10201b;stroke-width:1.32029"
         d="m 98.109645,57.702324 c 0,-2.110052 0.04109,-2.973255 0.09131,-1.918229 0.05022,1.055026 0.05022,2.781432 0,3.836458 -0.05022,1.055026 -0.09131,0.191823 -0.09131,-1.918229 z"
         id="path24658" />
      <path
         style="fill:#10201b;stroke-width:1.32029"
         d="m 99.916378,64.568261 c -0.05904,-4.846412 0.0462,-5.54302 0.837442,-5.54302 0.14423,0 0.0624,0.148828 -0.18185,0.330729 -0.38265,0.284977 -0.45457,1.007867 -0.51994,5.225521 l -0.07586,4.894791 z"
         id="path24652" />
      <path
         style="fill:#10201b;stroke-width:1.32029"
         d="m 98.114788,71.063782 c 2.54e-4,-2.764896 0.03946,-3.86004 0.08713,-2.433653 0.04766,1.426387 0.04746,3.688574 -4.63e-4,5.027083 -0.04792,1.338509 -0.08692,0.171466 -0.08666,-2.59343 z"
         id="path24640" />
      <path
         style="fill:#10201b;stroke-width:1.32029"
         d="m 99.968969,78.339823 c 0,-3.128698 0.03827,-4.408619 0.08505,-2.84427 0.0468,1.564348 0.0468,4.124192 0,5.688541 -0.0468,1.564349 -0.08505,0.284427 -0.08505,-2.844271 z"
         id="path24631" />
      <path
         style="fill:#10201b;stroke-width:1.32029"
         d="m 99.914619,90.208234 c -0.04979,-3.323823 0.0014,-3.897115 0.360481,-4.034895 0.66264,-0.25428 0.77814,-0.188368 0.29811,0.17013 -0.36997,0.276305 -0.45581,0.940271 -0.5217,4.034895 l -0.07886,3.704167 z"
         id="path24617" />
      <path
         style="fill:#10201b;stroke-width:1.32029"
         d="m 99.658146,100.56142 c 0.260489,-0.16173 0.463024,-0.608306 0.463024,-1.020946 0,-1.181058 0.75025,-3.049091 1.61628,-4.024344 l 0.80315,-0.904433 -0.6624,0.927215 c -0.865,1.210819 -1.24617,2.214902 -1.45463,3.83176 -0.13487,1.046028 -0.27975,1.335848 -0.699278,1.398808 -0.483676,0.0726 -0.489362,0.0547 -0.06615,-0.20806 z"
         id="path24611" />
    </g>
  </g>
</svg>
