<?xml version="1.0" encoding="UTF-8" standalone="no"?>
<!-- Created with Inkscape (http://www.inkscape.org/) -->

<svg
   width="185"
   height="185"
   viewBox="0 0 48.947914 48.947918"
   version="1.1"
   id="svg1"
   xmlns="http://www.w3.org/2000/svg"
   xmlns:svg="http://www.w3.org/2000/svg">
  <defs
     id="defs1" />
  <g
     id="g13954"
     style="display:inline;stroke-width:1.02279"
     transform="matrix(0.97772251,0,0,0.97772251,4.3445685,-107.23717)">
    <path
       style="fill:#dfd4ae;stroke-width:1.02279"
       d="m -4.2051433,159.61155 c -0.00633,-0.0728 -0.01668,-1.21316 -0.023007,-2.53422 l -0.011504,-2.40193 9.0433161,0.028 c 6.1817922,0.0191 9.0141582,-0.0595 8.9511672,-0.24848 -0.05068,-0.15205 -0.686774,-0.72468 -1.413538,-1.27253 -1.259366,-0.94932 -2.546892,-2.75224 -2.207696,-3.09144 0.222851,-0.22285 2.824335,0.79773 3.429537,1.34543 0.619172,0.56034 0.618604,0.53451 -0.02969,-1.34979 -0.547358,-1.59092 -0.685017,-3.44562 -0.30072,-4.05163 0.171106,-0.26982 0.398565,-0.1975 1.017913,0.32365 0.903433,0.76019 1.51795,2.54759 1.35519,3.94175 l -0.105379,0.90264 0.720389,-0.72039 c 0.752311,-0.75231 2.274042,-1.22896 2.667475,-0.83553 0.128366,0.12837 0.03398,0.71488 -0.215295,1.33789 -0.324896,0.81199 -0.721422,1.25091 -1.479461,1.63764 -0.821047,0.41886 -1.543446,1.32754 -1.543446,1.94143 0,0.0426 2.500313,0.10166 5.55625,0.13135 3.055937,0.0297 5.55625,-0.0282 5.55625,-0.12867 0,-0.10046 -0.416719,-0.64392 -0.926042,-1.20768 -1.610146,-1.78224 -0.880882,-2.90019 0.909261,-1.39388 l 0.81757,0.68793 -0.268103,-0.70516 c -0.36228,-0.95287 -0.318413,-2.48347 0.09884,-3.44884 l 0.34308,-0.79375 0.570039,0.92604 c 0.368574,0.59876 0.570389,1.36098 0.571028,2.15668 l 9.89e-4,1.23063 0.784864,-0.73317 c 0.6761,-0.63158 2.859029,-1.47969 3.124702,-1.21402 0.253562,0.25357 -0.770786,1.97216 -1.556055,2.61066 -0.494066,0.40173 -1.25549,1.0201 -1.692052,1.37416 l -0.79375,0.64376 8.268228,0.008 8.268229,0.008 v 2.51354 2.51354 h -24.73854 c -13.6061976,0 -24.7437174,-0.0595 -24.7500444,-0.13229 z"
       id="path11401" />
    <path
       style="fill:#fddd51;stroke-width:1.02279"
       d="m -4.1936397,157.2303 v -2.51354 h 9.0178815 c 5.9966552,0 8.9878222,-0.0902 8.9281602,-0.26917 -0.04935,-0.14804 -0.67044,-0.71358 -1.380207,-1.25677 -1.257755,-0.96255 -2.5670407,-2.77147 -2.241562,-3.09695 0.228913,-0.22891 2.827758,0.79518 3.452339,1.36042 0.507087,0.45891 0.514784,0.45145 0.326862,-0.31659 -0.10585,-0.43261 -0.352902,-1.24802 -0.549006,-1.81202 -0.398399,-1.1458 -0.462468,-2.76354 -0.130194,-3.28738 0.165995,-0.2617 0.412921,-0.16224 1.031252,0.41537 0.925151,0.86422 1.509875,2.64843 1.297282,3.95849 l -0.141813,0.87389 0.766493,-0.76649 c 0.754966,-0.75497 2.302425,-1.22981 2.725506,-0.83632 0.343519,0.31948 -0.490062,2.00859 -1.260026,2.55322 -1.362156,0.96351 -1.690467,1.29591 -1.861765,1.88499 l -0.173113,0.59531 h 5.574079 c 3.065744,0 5.57408,-0.0836 5.57408,-0.18584 0,-0.10222 -0.348952,-0.5487 -0.775448,-0.99219 -0.426496,-0.44349 -0.860447,-1.151 -0.964336,-1.57224 -0.182108,-0.73841 -0.161395,-0.75908 0.57701,-0.5757 0.421244,0.10461 1.019106,0.42645 1.32858,0.71521 l 0.562682,0.52502 -0.27708,-1.03808 c -0.311697,-1.16777 0.0079,-3.24896 0.525258,-3.42019 0.497571,-0.16468 1.14,1.3714 1.14,2.72581 v 1.23516 l 0.81713,-0.7989 c 1.005959,-0.98351 2.88758,-1.56338 2.886048,-0.88941 -0.0015,0.6473 -0.918644,2.03059 -1.716902,2.58946 -0.385926,0.2702 -1.020482,0.75539 -1.410125,1.07822 l -0.708442,0.58695 8.268228,0.008 8.268229,0.008 v 2.51354 2.51354 H 20.544901 -4.1936397 Z"
       id="path13936" />
    <path
       style="fill:#b7c5a6;stroke-width:1.02279"
       d="m -4.1936397,157.2303 v -2.51354 h 9.0178815 c 5.9966552,0 8.9878222,-0.0902 8.9281602,-0.26917 -0.04935,-0.14804 -0.67044,-0.71358 -1.380207,-1.25677 -1.257755,-0.96255 -2.5670407,-2.77147 -2.241562,-3.09695 0.228913,-0.22891 2.827758,0.79518 3.452339,1.36042 0.507087,0.45891 0.514784,0.45145 0.326862,-0.31659 -0.10585,-0.43261 -0.352902,-1.24802 -0.549006,-1.81202 -0.398399,-1.1458 -0.462468,-2.76354 -0.130194,-3.28738 0.165995,-0.2617 0.412921,-0.16224 1.031252,0.41537 0.925151,0.86422 1.509875,2.64843 1.297282,3.95849 l -0.141813,0.87389 0.766493,-0.76649 c 0.754966,-0.75497 2.302425,-1.22981 2.725506,-0.83632 0.343519,0.31948 -0.490062,2.00859 -1.260026,2.55322 -1.362156,0.96351 -1.690467,1.29591 -1.861765,1.88499 l -0.173113,0.59531 h 5.574079 c 3.065744,0 5.57408,-0.0836 5.57408,-0.18584 0,-0.10222 -0.348952,-0.5487 -0.775448,-0.99219 -0.426496,-0.44349 -0.860447,-1.151 -0.964336,-1.57224 -0.182108,-0.73841 -0.161395,-0.75908 0.57701,-0.5757 0.421244,0.10461 1.019106,0.42645 1.32858,0.71521 l 0.562682,0.52502 -0.27708,-1.03808 c -0.311697,-1.16777 0.0079,-3.24896 0.525258,-3.42019 0.497571,-0.16468 1.14,1.3714 1.14,2.72581 v 1.23516 l 0.81713,-0.7989 c 1.005959,-0.98351 2.88758,-1.56338 2.886048,-0.88941 -0.0015,0.6473 -0.918644,2.03059 -1.716902,2.58946 -0.385926,0.2702 -1.020482,0.75539 -1.410125,1.07822 l -0.708442,0.58695 8.268228,0.008 8.268229,0.008 v 2.51354 2.51354 H 20.544901 -4.1936397 Z"
       id="path13918" />
    <path
       style="fill:#9dae91;stroke-width:1.02279"
       d="m -4.1936397,157.2303 v -2.51354 h 8.9958329 c 5.5271418,0 8.9958328,-0.0973 8.9958328,-0.25223 0,-0.13873 -0.305092,-0.46615 -0.677982,-0.72761 -1.55172,-1.088 -2.152978,-1.67318 -2.630825,-2.56049 -0.277444,-0.51518 -0.436026,-1.00512 -0.352403,-1.08874 0.312421,-0.31242 3.124052,0.97394 3.644242,1.66729 l 0.534798,0.71282 -0.414663,-1.43353 c -0.228065,-0.78845 -0.523171,-1.71893 -0.65579,-2.06775 -0.30216,-0.79474 -0.305394,-2.20534 -0.0061,-2.6776 0.176544,-0.2786 0.351149,-0.29154 0.78696,-0.0583 0.923019,0.49398 1.450552,1.83599 1.454725,3.70071 0.0027,1.19184 0.07274,1.54235 0.235452,1.17771 0.127411,-0.28554 0.491172,-0.68123 0.808359,-0.87932 0.763885,-0.47705 2.268486,-0.80565 2.437412,-0.53233 0.330999,0.53557 -1.205203,2.9027 -1.883771,2.9027 -0.182353,0 -0.578317,0.31372 -0.879921,0.69714 -1.103826,1.40329 -1.044669,1.41953 5.170959,1.41953 h 5.719329 l -0.929716,-1.02909 c -0.925129,-1.024 -1.43101,-2.05162 -1.148876,-2.33376 0.249385,-0.24938 1.748474,0.49196 2.192401,1.08421 0.380512,0.50764 0.402645,0.51146 0.241558,0.0416 -0.553473,-1.61422 -0.376234,-4.08247 0.309566,-4.31107 0.576532,-0.19218 1.191053,1.52158 1.06982,2.98349 l -0.114104,1.37594 0.645612,-0.76727 c 1.06598,-1.26684 3.23002,-2.07903 3.227425,-1.21128 -0.0017,0.55663 -0.975401,1.96617 -1.716902,2.4853 -0.385926,0.2702 -1.020482,0.75539 -1.410125,1.07822 l -0.708442,0.58695 8.268228,0.008 8.268229,0.008 v 2.51354 2.51354 H 20.544901 -4.1936397 Z"
       id="path13901" />
    <path
       style="fill:#9f946c;stroke-width:1.02279"
       d="m -4.1936397,157.2303 v -2.51354 h 8.9958329 c 5.8307898,0 8.9958328,-0.0932 8.9958328,-0.26502 0,-0.14577 -0.600487,-0.69643 -1.334416,-1.22371 -1.075337,-0.77255 -2.36975,-2.47266 -2.36975,-3.11247 0,-0.0684 0.342671,-0.0261 0.761492,0.094 1.495521,0.42891 2.703548,1.14802 3.074149,1.82998 0.529768,0.97484 0.489232,0.69503 -0.263767,-1.82073 -0.968819,-3.2368 -0.833901,-4.62744 0.385626,-3.97477 0.817024,0.43726 1.409678,1.99128 1.414954,3.71019 l 0.0045,1.45521 0.856956,-0.8599 c 0.645328,-0.64754 1.088779,-0.85989 1.795692,-0.85989 h 0.938736 l -0.28747,0.85989 c -0.359255,1.07462 -1.144266,1.96097 -1.906115,2.15218 -0.32546,0.0817 -0.780429,0.55954 -1.028962,1.08072 l -0.445531,0.93429 h 5.84734 5.84734 l -0.929716,-1.02909 c -0.925129,-1.024 -1.43101,-2.05162 -1.148876,-2.33376 0.249761,-0.24976 1.748985,0.49246 2.190024,1.08421 0.413291,0.55452 0.415209,0.55373 0.247677,-0.10261 -0.40253,-1.57699 -0.437811,-2.0424 -0.229178,-3.02326 0.121536,-0.57139 0.350512,-1.08207 0.508837,-1.13484 0.535902,-0.17864 1.220412,1.76284 1.092151,3.09767 l -0.119758,1.24635 0.775671,-0.88344 c 0.748972,-0.85304 2.659883,-1.69072 3.024677,-1.32592 0.398007,0.398 -0.778501,2.05746 -2.219185,3.13015 l -1.534107,1.14225 8.268228,0.0699 8.268229,0.0699 v 2.50977 2.50977 H 20.544901 -4.1936397 Z"
       id="path13884" />
    <path
       style="fill:#fc9601;stroke-width:1.02279"
       d="m -4.1936596,157.16413 1.99e-5,-2.44739 h 8.9958329 c 5.8307898,0 8.9958328,-0.0932 8.9958328,-0.26502 0,-0.14577 -0.600487,-0.69643 -1.334416,-1.22371 -1.075337,-0.77255 -2.36975,-2.47266 -2.36975,-3.11247 0,-0.0684 0.342671,-0.0261 0.761492,0.094 1.495521,0.42891 2.703548,1.14802 3.074149,1.82998 0.529768,0.97484 0.489232,0.69503 -0.263767,-1.82073 -0.968819,-3.2368 -0.833901,-4.62744 0.385626,-3.97477 0.817024,0.43726 1.409678,1.99128 1.414954,3.71019 l 0.0045,1.45521 0.856956,-0.8599 c 0.645328,-0.64754 1.088779,-0.85989 1.795692,-0.85989 h 0.938736 l -0.28747,0.85989 c -0.359255,1.07462 -1.144266,1.96097 -1.906115,2.15218 -0.32546,0.0817 -0.780429,0.55954 -1.028962,1.08072 l -0.445531,0.93429 h 5.84734 5.84734 l -0.929716,-1.02909 c -0.925129,-1.024 -1.43101,-2.05162 -1.148876,-2.33376 0.249761,-0.24976 1.748985,0.49246 2.190024,1.08421 0.413291,0.55452 0.415209,0.55373 0.247677,-0.10261 -0.40253,-1.57699 -0.437811,-2.0424 -0.229178,-3.02326 0.121536,-0.57139 0.350512,-1.08207 0.508837,-1.13484 0.548686,-0.1829 1.220252,1.76451 1.08694,3.15191 l -0.124969,1.30058 0.770297,-0.93451 c 0.745193,-0.90405 2.652144,-1.77165 3.040473,-1.38332 0.398007,0.398 -0.778501,2.05746 -2.219185,3.13015 l -1.534107,1.14225 8.268228,0.0699 8.268229,0.0699 v 2.37479 2.37478 l -24.73856,0.0688 -24.7385606,0.0688 z"
       id="path13868" />
    <path
       style="fill:#f98903;stroke-width:1.02279"
       d="m -4.1936596,157.16415 1.99e-5,-2.44739 h 8.9958329 c 5.8307898,0 8.9958328,-0.0932 8.9958328,-0.26502 0,-0.14577 -0.600487,-0.69643 -1.334416,-1.22371 -1.075337,-0.77255 -2.36975,-2.47266 -2.36975,-3.11247 0,-0.0684 0.342671,-0.0261 0.761492,0.094 1.495521,0.42891 2.703548,1.14802 3.074149,1.82998 0.529768,0.97484 0.489232,0.69503 -0.263767,-1.82073 -0.968819,-3.2368 -0.833901,-4.62744 0.385626,-3.97477 0.817024,0.43726 1.409678,1.99128 1.414954,3.71019 l 0.0045,1.45521 0.856956,-0.8599 c 0.645328,-0.64754 1.088779,-0.85989 1.795692,-0.85989 h 0.938736 l -0.28747,0.85989 c -0.359255,1.07462 -1.144266,1.96097 -1.906115,2.15218 -0.32546,0.0817 -0.780429,0.55954 -1.028962,1.08072 l -0.445531,0.93429 h 5.84734 5.84734 l -0.929716,-1.02909 c -0.925129,-1.024 -1.43101,-2.05162 -1.148876,-2.33376 0.249761,-0.24976 1.748985,0.49246 2.190024,1.08421 0.413291,0.55452 0.415209,0.55373 0.247677,-0.10261 -0.40253,-1.57699 -0.437811,-2.0424 -0.229178,-3.02326 0.121536,-0.57139 0.350512,-1.08207 0.508837,-1.13484 0.548686,-0.1829 1.220252,1.76451 1.08694,3.15191 l -0.124969,1.30058 0.770297,-0.93451 c 0.745193,-0.90405 2.652144,-1.77165 3.040473,-1.38332 0.398007,0.398 -0.778501,2.05746 -2.219185,3.13015 l -1.534107,1.14225 8.268228,0.0699 8.268229,0.0699 v 2.37479 2.37478 l -24.73856,0.0688 -24.7385606,0.0688 z"
       id="path13839" />
    <path
       style="fill:#f77900;stroke-width:1.02279"
       d="m -4.1936596,157.16415 1.99e-5,-2.44739 h 8.9958329 c 5.8307898,0 8.9958328,-0.0932 8.9958328,-0.26502 0,-0.14577 -0.600487,-0.69643 -1.334416,-1.22371 -1.075337,-0.77255 -2.36975,-2.47266 -2.36975,-3.11247 0,-0.0684 0.342671,-0.0261 0.761492,0.094 1.495521,0.42891 2.703548,1.14802 3.074149,1.82998 0.529768,0.97484 0.489232,0.69503 -0.263767,-1.82073 -0.968819,-3.2368 -0.833901,-4.62744 0.385626,-3.97477 0.817024,0.43726 1.409678,1.99128 1.414954,3.71019 l 0.0045,1.45521 0.856956,-0.8599 c 0.645328,-0.64754 1.088779,-0.85989 1.795692,-0.85989 h 0.938736 l -0.28747,0.85989 c -0.359255,1.07462 -1.144266,1.96097 -1.906115,2.15218 -0.32546,0.0817 -0.780429,0.55954 -1.028962,1.08072 l -0.445531,0.93429 h 5.84734 5.84734 l -0.929716,-1.02909 c -0.925129,-1.024 -1.43101,-2.05162 -1.148876,-2.33376 0.249761,-0.24976 1.748985,0.49246 2.190024,1.08421 0.413291,0.55452 0.415209,0.55373 0.247677,-0.10261 -0.40253,-1.57699 -0.437811,-2.0424 -0.229178,-3.02326 0.121536,-0.57139 0.350512,-1.08207 0.508837,-1.13484 0.548686,-0.1829 1.220252,1.76451 1.08694,3.15191 l -0.124969,1.30058 0.770297,-0.93451 c 0.745193,-0.90405 2.652144,-1.77165 3.040473,-1.38332 0.398007,0.398 -0.778501,2.05746 -2.219185,3.13015 l -1.534107,1.14225 8.268228,0.0699 8.268229,0.0699 v 2.37479 2.37478 l -24.73856,0.0688 -24.7385606,0.0688 z"
       id="path13793" />
    <path
       style="fill:#6b8c6e;stroke-width:1.02279"
       d="m -4.1936596,157.16413 1.99e-5,-2.44739 h 8.9958329 c 5.8307898,0 8.9958328,-0.0932 8.9958328,-0.26502 0,-0.14577 -0.600487,-0.69643 -1.334416,-1.22371 -1.075337,-0.77255 -2.36975,-2.47266 -2.36975,-3.11247 0,-0.0684 0.342671,-0.0261 0.761492,0.094 1.495521,0.42891 2.703548,1.14802 3.074149,1.82998 0.529768,0.97484 0.489232,0.69503 -0.263767,-1.82073 -0.968819,-3.2368 -0.833901,-4.62744 0.385626,-3.97477 0.817024,0.43726 1.409678,1.99128 1.414954,3.71019 l 0.0045,1.45521 0.856956,-0.8599 c 0.645328,-0.64754 1.088779,-0.85989 1.795692,-0.85989 h 0.938736 l -0.28747,0.85989 c -0.359255,1.07462 -1.144266,1.96097 -1.906115,2.15218 -0.32546,0.0817 -0.780429,0.55954 -1.028962,1.08072 l -0.445531,0.93429 h 5.84734 5.84734 l -0.929716,-1.02909 c -0.925129,-1.024 -1.43101,-2.05162 -1.148876,-2.33376 0.249761,-0.24976 1.748985,0.49246 2.190024,1.08421 0.413291,0.55452 0.415209,0.55373 0.247677,-0.10261 -0.40253,-1.57699 -0.437811,-2.0424 -0.229178,-3.02326 0.121536,-0.57139 0.350512,-1.08207 0.508837,-1.13484 0.548686,-0.1829 1.220252,1.76451 1.08694,3.15191 l -0.124969,1.30058 0.770297,-0.93451 c 0.745193,-0.90405 2.652144,-1.77165 3.040473,-1.38332 0.398007,0.398 -0.778501,2.05746 -2.219185,3.13015 l -1.534107,1.14225 8.268228,0.0699 8.268229,0.0699 v 2.37479 2.37478 l -24.73856,0.0688 -24.7385606,0.0688 z"
       id="path13757" />
    <path
       style="fill:#846b44;stroke-width:1.02279"
       d="m -4.1936596,157.16415 1.99e-5,-2.44739 H 4.926181 c 9.942876,0 9.919851,0.004 7.673138,-1.41713 -0.997564,-0.6311 -2.505459,-2.53841 -2.505459,-3.1691 0,-0.4145 2.844558,0.94401 3.505729,1.67427 0.896588,0.99028 0.900083,0.83944 0.04338,-1.8725 -0.468152,-1.48196 -0.631471,-2.44713 -0.517178,-3.05637 0.185677,-0.98974 0.218683,-1.01017 0.97661,-0.60454 0.777394,0.41605 1.283123,1.85383 1.283123,3.64791 v 1.56954 l 0.899583,-0.89958 c 1.023719,-1.02372 2.540822,-1.28457 2.539011,-0.43656 -0.0017,0.78215 -0.952837,2.07532 -1.777811,2.41704 -0.452348,0.18737 -0.966587,0.70923 -1.217636,1.23568 l -0.434586,0.91134 h 5.868455 5.868455 l -0.829425,-0.8599 c -0.78659,-0.81549 -1.534664,-2.25968 -1.294755,-2.49959 0.216285,-0.21628 2.030139,0.69582 2.184694,1.09858 0.342939,0.89369 0.543789,0.34358 0.212991,-0.58336 -0.437801,-1.22678 -0.447168,-1.52371 -0.08878,-2.81446 l 0.285575,-1.02851 0.572845,0.5735 c 0.469653,0.47018 0.571969,0.87932 0.56798,2.27122 l -0.0049,1.69773 0.746424,-0.90554 c 0.736643,-0.89368 2.637717,-1.73325 3.031961,-1.339 0.370428,0.37043 -0.921288,2.14589 -2.134687,2.93412 -2.245754,1.45886 -2.262596,1.45521 6.708711,1.45521 h 8.193779 v 2.37856 2.37855 l -24.73856,0.0688 -24.7385606,0.0688 z"
       id="path13731" />
    <path
       style="fill:#896439;stroke-width:1.02279"
       d="m -4.1936397,157.09801 v -2.38125 H 4.926181 c 9.942876,0 9.919851,0.004 7.673138,-1.41713 -0.997564,-0.6311 -2.505459,-2.53841 -2.505459,-3.1691 0,-0.4145 2.844558,0.94401 3.505729,1.67427 0.896588,0.99028 0.900083,0.83944 0.04338,-1.8725 -0.468152,-1.48196 -0.631471,-2.44713 -0.517178,-3.05637 0.185677,-0.98974 0.218683,-1.01017 0.97661,-0.60454 0.777394,0.41605 1.283123,1.85383 1.283123,3.64791 v 1.56954 l 0.899583,-0.89958 c 1.023719,-1.02372 2.540822,-1.28457 2.539011,-0.43656 -0.0017,0.78215 -0.952837,2.07532 -1.777811,2.41704 -0.452348,0.18737 -0.966587,0.70923 -1.217636,1.23568 l -0.434586,0.91134 h 5.868455 5.868455 l -0.829425,-0.8599 c -0.78659,-0.81549 -1.534664,-2.25968 -1.294755,-2.49959 0.216285,-0.21628 2.030139,0.69582 2.184694,1.09858 0.342939,0.89369 0.543789,0.34358 0.212991,-0.58336 -0.437801,-1.22678 -0.447168,-1.52371 -0.08878,-2.81446 l 0.285575,-1.02851 0.572845,0.5735 c 0.469653,0.47018 0.571969,0.87932 0.56798,2.27122 l -0.0049,1.69773 0.746424,-0.90554 c 0.736643,-0.89368 2.637717,-1.73325 3.031961,-1.339 0.370428,0.37043 -0.921288,2.14589 -2.134687,2.93412 -2.245754,1.45886 -2.262596,1.45521 6.708711,1.45521 h 8.193779 v 2.38125 2.38125 H 20.544901 -4.1936397 Z"
       id="path13710" />
    <path
       style="fill:#5d6f4f;stroke-width:1.02279"
       d="m 13.877319,154.36007 c -0.116372,-0.19617 -0.724548,-0.69284 -1.351503,-1.10371 -0.959174,-0.62857 -2.431956,-2.52157 -2.431956,-3.12583 0,-0.4145 2.844558,0.94401 3.505729,1.67427 0.896588,0.99028 0.900083,0.83944 0.04338,-1.8725 -0.468152,-1.48196 -0.631471,-2.44713 -0.517178,-3.05637 0.185677,-0.98974 0.218683,-1.01017 0.97661,-0.60454 0.777394,0.41605 1.283123,1.85383 1.283123,3.64791 v 1.56954 l 0.899583,-0.89958 c 1.023719,-1.02372 2.540822,-1.28457 2.539011,-0.43656 -0.0017,0.78215 -0.952837,2.07532 -1.777811,2.41704 -0.452348,0.18737 -0.966587,0.70923 -1.217636,1.23568 -0.321855,0.67494 -0.603867,0.91134 -1.087178,0.91134 -0.358925,0 -0.747804,-0.16051 -0.864176,-0.35669 z"
       id="path13688" />
    <path
       style="fill:#5d6f4f;stroke-width:1.02279"
       d="m 27.820942,154.77094 c -0.363802,-0.0545 -1.003544,-0.41647 -1.421649,-0.80428 -0.738632,-0.68511 -1.640923,-2.36094 -1.400573,-2.60129 0.222285,-0.22228 2.034952,0.67916 2.192791,1.09048 0.342939,0.89369 0.543789,0.34358 0.212991,-0.58336 -0.437801,-1.22678 -0.447168,-1.52371 -0.08878,-2.81446 l 0.285575,-1.02851 0.572845,0.5735 c 0.469653,0.47018 0.571969,0.87932 0.56798,2.27122 l -0.0049,1.69773 0.746424,-0.90554 c 0.736643,-0.89368 2.637717,-1.73325 3.031961,-1.339 0.320236,0.32023 -0.860149,2.09898 -1.816247,2.73694 -0.491741,0.32812 -1.19173,0.86864 -1.555532,1.20116 -0.423698,0.38727 -0.89922,0.56894 -1.322917,0.50541 z"
       id="path13687" />
    <path
       style="fill:#5d6f4f;stroke-width:1.02279"
       d="m -4.1936397,157.10028 v -2.37897 l 15.4119787,0.01 c 8.476588,0.005 15.859097,0.11094 16.405575,0.23477 0.572864,0.12981 1.05563,0.12477 1.140094,-0.0119 0.08121,-0.1314 3.794945,-0.23704 8.332965,-0.23704 h 8.186468 v 2.38125 2.38125 H 20.544901 -4.1936397 Z"
       id="path13681" />
    <path
       style="fill:#7a613a;stroke-width:1.02279"
       d="m 13.894205,154.32118 c -0.08349,-0.21756 -0.620793,-0.65916 -1.19401,-0.98133 -0.917376,-0.51559 -2.606335,-2.56677 -2.606335,-3.16529 0,-0.44774 2.805561,0.8569 3.505729,1.63024 0.88999,0.983 0.892501,0.9103 0.06415,-1.8572 -0.438708,-1.46571 -0.607988,-2.51222 -0.499721,-3.08933 0.191883,-1.02283 0.331059,-1.06204 1.12949,-0.31819 0.831826,0.77497 1.092015,1.60593 1.092015,3.48755 v 1.62643 l 0.727604,-0.86047 c 0.895642,-1.0592 2.712652,-1.51195 2.71099,-0.67551 -0.0017,0.83195 -0.945672,2.10697 -1.831727,2.47399 -0.529523,0.21934 -0.973412,0.67324 -1.208416,1.23569 -0.285608,0.68355 -0.529352,0.889 -1.054712,0.889 -0.375795,0 -0.751572,-0.17801 -0.83506,-0.39558 z"
       id="path13667" />
    <path
       style="fill:#7a613a;stroke-width:1.02279"
       d="m 27.820942,154.77862 c -0.862289,-0.13929 -2.082851,-1.28549 -2.561627,-2.40556 -0.208884,-0.48867 -0.33259,-0.9357 -0.274902,-0.99338 0.260332,-0.26033 1.786103,0.53161 2.178753,1.13087 0.609058,0.92954 0.703523,0.66656 0.24188,-0.67337 -0.379933,-1.10276 -0.312674,-2.57239 0.158134,-3.45524 0.155393,-0.29139 0.339111,-0.1662 0.776537,0.52916 0.481657,0.76568 0.549132,1.1639 0.423332,2.49837 l -0.149654,1.5875 0.517184,-0.84552 c 0.622636,-1.01792 1.458768,-1.59993 2.637044,-1.83559 0.830976,-0.16619 0.866107,-0.14244 0.679061,0.45917 -0.321008,1.03249 -1.169861,2.06828 -2.066914,2.52209 -0.46147,0.23346 -1.077161,0.68634 -1.368203,1.00641 -0.353375,0.38861 -0.748906,0.54644 -1.190625,0.47509 z"
       id="path13666" />
    <path
       style="fill:#7a613a;stroke-width:1.02279"
       d="m -4.1936397,157.10028 v -2.37897 l 15.4119787,0.01 c 8.476588,0.005 15.859097,0.11094 16.405575,0.23477 0.572864,0.12981 1.05563,0.12477 1.140094,-0.0119 0.08121,-0.1314 3.794945,-0.23704 8.332965,-0.23704 h 8.186468 v 2.38125 2.38125 H 20.544901 -4.1936397 Z"
       id="path13662" />
    <path
       style="fill:#745b33;stroke-width:1.02279"
       d="m -4.1936397,157.09801 v -2.38125 H 4.926181 c 7.984485,0 9.100923,-0.0493 8.968024,-0.39558 -0.08349,-0.21756 -0.620793,-0.65916 -1.19401,-0.98133 -0.917376,-0.51559 -2.606335,-2.56677 -2.606335,-3.16529 0,-0.44774 2.805561,0.8569 3.505729,1.63024 0.88999,0.983 0.892501,0.9103 0.06415,-1.8572 -0.438708,-1.46571 -0.607988,-2.51222 -0.499721,-3.08933 0.191883,-1.02283 0.331059,-1.06204 1.12949,-0.31819 0.831826,0.77497 1.092015,1.60593 1.092015,3.48755 v 1.62643 l 0.727604,-0.86047 c 0.85871,-1.01552 2.711979,-1.51336 2.711979,-0.72852 0,0.86455 -0.816977,2.00696 -1.791389,2.50498 -0.619557,0.31666 -1.101253,0.8099 -1.294482,1.32552 l -0.307746,0.82119 h 5.849752 5.849753 l -0.829425,-0.8599 c -0.764949,-0.79305 -1.536495,-2.25785 -1.309062,-2.48528 0.253756,-0.25376 1.784323,0.54935 2.170656,1.13897 0.609058,0.92954 0.703523,0.66656 0.24188,-0.67337 -0.379933,-1.10276 -0.312674,-2.57239 0.158134,-3.45524 0.155393,-0.29139 0.339111,-0.1662 0.776537,0.52916 0.481657,0.76568 0.549132,1.1639 0.423332,2.49837 l -0.149654,1.5875 0.517184,-0.84552 c 0.622636,-1.01792 1.458768,-1.59993 2.637044,-1.83559 0.830976,-0.16619 0.866107,-0.14244 0.679061,0.45917 -0.337012,1.08397 -1.188556,2.08011 -2.234142,2.61353 -0.55188,0.28155 -1.073898,0.69557 -1.160039,0.92005 -0.139062,0.36239 0.761942,0.40815 8.037159,0.40815 h 8.193779 v 2.38125 2.38125 H 20.544901 -4.1936397 Z m 49.0893237,0.15189 c 0.0082,-1.77079 -0.04386,-1.97361 -0.529166,-2.06082 -0.296057,-0.0532 -3.901645,-0.0919 -8.012418,-0.0861 -4.135049,0.006 -7.474288,-0.0934 -7.474479,-0.2222 -5.41e-4,-0.36415 -2.419752,-1.5e-4 -2.674851,0.40247 -0.172013,0.27148 -0.228801,0.27729 -0.23186,0.0237 -0.0031,-0.26086 -1.141033,-0.32787 -5.09728,-0.30016 -2.801276,0.0196 -5.301855,-0.0505 -5.556841,-0.15573 -0.254987,-0.10527 -0.76332,-0.11618 -1.129628,-0.0242 -0.366308,0.0919 -4.5927605,0.17904 -9.3921162,0.19356 l -8.7261011,0.0264 v 2.08393 2.08393 l 24.4078113,-3.5e-4 24.407811,-3.4e-4 z"
       id="path13626" />
    <path
       style="fill:#2b6345;stroke-width:1.02279"
       d="m 26.301572,153.85686 c -0.764949,-0.79305 -1.536495,-2.25785 -1.309062,-2.48528 0.253756,-0.25376 1.784323,0.54935 2.170656,1.13897 0.609058,0.92954 0.703523,0.66656 0.24188,-0.67337 -0.379933,-1.10276 -0.312674,-2.57239 0.158134,-3.45524 0.155393,-0.29139 0.339111,-0.1662 0.776537,0.52916 0.481657,0.76568 0.549132,1.1639 0.423332,2.49837 l -0.149654,1.5875 0.517184,-0.84552 c 0.622636,-1.01792 1.458768,-1.59993 2.637044,-1.83559 0.830976,-0.16619 0.866107,-0.14244 0.679061,0.45917 -0.337012,1.08397 -1.188556,2.08011 -2.234142,2.61353 -0.55188,0.28155 -1.073898,0.69557 -1.160039,0.92005 -0.290896,0.75807 -1.827361,0.50575 -2.750931,-0.45175 z"
       id="path13592" />
    <path
       style="fill:#2b6345;stroke-width:1.02279"
       d="m 13.894205,154.32118 c -0.08349,-0.21756 -0.620793,-0.65916 -1.19401,-0.98133 -0.917376,-0.51559 -2.606335,-2.56677 -2.606335,-3.16529 0,-0.44774 2.805561,0.8569 3.505729,1.63024 0.88999,0.983 0.892501,0.9103 0.06415,-1.8572 -0.438708,-1.46571 -0.607988,-2.51222 -0.499721,-3.08933 0.191883,-1.02283 0.331059,-1.06204 1.12949,-0.31819 0.831826,0.77497 1.092015,1.60593 1.092015,3.48755 v 1.62643 l 0.727604,-0.86047 c 0.895642,-1.0592 2.712652,-1.51195 2.71099,-0.67551 -0.0017,0.83195 -0.945672,2.10697 -1.831727,2.47399 -0.529523,0.21934 -0.973412,0.67324 -1.208416,1.23569 -0.285608,0.68355 -0.529352,0.889 -1.054712,0.889 -0.375795,0 -0.751572,-0.17801 -0.83506,-0.39558 z"
       id="path13591" />
    <path
       style="fill:#2b6345;stroke-width:1.02279"
       d="m 18.362088,154.78391 c 1.564349,-0.0468 4.124193,-0.0468 5.688542,0 1.564349,0.0468 0.284427,0.085 -2.844271,0.085 -3.128698,0 -4.40862,-0.0383 -2.844271,-0.085 z"
       id="path13588" />
    <path
       style="fill:#2b6345;stroke-width:1.02279"
       d="m 45.018858,156.9696 v -1.9805 l -8.003646,-0.074 -8.003645,-0.074 8.135937,-0.0621 8.135937,-0.0621 v 2.11667 c 0,1.16416 -0.05953,2.11666 -0.132292,2.11666 -0.07276,0 -0.132291,-0.89122 -0.132291,-1.98049 z"
       id="path13583" />
    <path
       style="fill:#2b6345;stroke-width:1.02279"
       d="m -4.1936397,157.09801 v -2.38125 l 9.0619787,0.0625 9.061979,0.0625 -8.9296873,0.0733 -8.929687,0.0733 v 2.11178 2.11179 l 24.6723943,0.0689 24.672395,0.0689 -24.804686,0.0648 -24.8046867,0.0648 z"
       id="path13578" />
    <path
       style="fill:#245c41;stroke-width:1.02279"
       d="m 26.415235,153.97468 c -0.796179,-0.83103 -0.961116,-1.37098 -0.247939,-0.81167 0.419003,0.3286 0.428729,0.31938 0.102313,-0.097 -0.19839,-0.25306 -0.466503,-0.39473 -0.595808,-0.31481 -0.239472,0.148 -0.873021,-1.18791 -0.662974,-1.39796 0.188997,-0.18899 1.814132,0.74033 2.353394,1.34578 0.476332,0.5348 0.491903,0.53644 0.316082,0.0333 -0.516625,-1.47827 -0.608493,-2.45602 -0.333422,-3.54861 l 0.293897,-1.16737 0.47851,0.59093 c 0.646176,0.798 0.889667,2.27201 0.555285,3.36153 -0.151214,0.4927 -0.175039,0.89582 -0.05295,0.89582 0.122094,0 0.297592,-0.23821 0.389996,-0.52935 0.2259,-0.71175 1.653108,-1.75179 2.711923,-1.97625 1.012463,-0.21463 1.023125,-0.17453 0.320057,1.2036 -0.581051,1.13895 -1.995156,2.18859 -2.627096,1.94999 -0.213846,-0.0807 -0.307332,-0.0653 -0.207747,0.0343 0.09958,0.0996 0.062,0.40353 -0.08352,0.67544 -0.417952,0.78095 -1.849889,0.65007 -2.710006,-0.2477 z"
       id="path13272" />
    <path
       style="fill:#245c41;stroke-width:1.02279"
       d="m 13.665734,154.17807 c -0.291041,-0.29328 -1.04289,-0.96771 -1.670774,-1.49874 -0.627884,-0.53103 -1.315551,-1.30188 -1.528149,-1.713 -0.354193,-0.68493 -0.347224,-0.747 0.08328,-0.74168 0.963457,0.0119 2.718303,1.03892 3.241485,1.89704 0.692102,1.13518 0.686478,0.49339 -0.01559,-1.77965 -0.504896,-1.63467 -0.734616,-3.95264 -0.422639,-4.26462 0.279459,-0.27946 1.230019,0.59681 1.644506,1.51598 0.299809,0.66485 0.40922,1.48323 0.346714,2.59337 l -0.09132,1.62198 0.79375,-0.93716 c 0.557551,-0.65828 1.088999,-0.98387 1.785938,-1.09415 1.125528,-0.1781 1.193284,-0.0229 0.604834,1.38546 -0.268865,0.64349 -0.693765,1.06059 -1.389062,1.36358 -0.55094,0.24007 -1.109861,0.4081 -1.242046,0.37338 -0.258262,-0.0678 -0.675016,0.46731 -0.681654,0.87528 -0.0022,0.13695 0.170756,0.0179 0.384409,-0.26458 0.470861,-0.62254 0.515127,-0.38268 0.09824,0.53229 -0.37364,0.82005 -1.204844,0.87793 -1.941906,0.13522 z"
       id="path13271" />
    <path
       style="fill:#245c41;stroke-width:1.02279"
       d="m 18.362088,154.78391 c 1.564349,-0.0468 4.124193,-0.0468 5.688542,0 1.564349,0.0468 0.284427,0.085 -2.844271,0.085 -3.128698,0 -4.40862,-0.0383 -2.844271,-0.085 z"
       id="path13267" />
    <path
       style="fill:#245c41;stroke-width:1.02279"
       d="m 45.018858,156.9696 v -1.9805 l -8.003646,-0.074 -8.003645,-0.074 8.135937,-0.0621 8.135937,-0.0621 v 2.11667 c 0,1.16416 -0.05953,2.11666 -0.132292,2.11666 -0.07276,0 -0.132291,-0.89122 -0.132291,-1.98049 z"
       id="path13264" />
    <path
       style="fill:#245c41;stroke-width:1.02279"
       d="m -4.1936397,157.09801 v -2.38125 l 9.0619787,0.0625 9.061979,0.0625 -8.9296873,0.0733 -8.929687,0.0733 v 2.11178 2.11179 l 24.6723943,0.0689 24.672395,0.0689 -24.804686,0.0648 -24.8046867,0.0648 z"
       id="path13260" />
    <path
       style="fill:#225a3c;stroke-width:1.02279"
       d="m 26.195064,153.70658 c -0.782805,-0.89156 -1.406528,-2.13103 -1.184237,-2.35332 0.176713,-0.17671 1.842912,0.74521 2.207353,1.22135 0.177803,0.23229 0.278116,0.55222 0.222916,0.71093 -0.0552,0.15872 0.0077,0.45638 0.139742,0.66146 0.200948,0.31207 0.277859,0.31434 0.471614,0.0139 0.169091,-0.26219 0.282447,-0.27656 0.420431,-0.0533 0.14275,0.23097 0.279442,0.23055 0.559326,-0.002 0.501369,-0.4161 0.246686,-0.74485 -0.512479,-0.66151 -0.499397,0.0548 -0.689585,-0.11905 -0.965815,-0.88295 -0.392118,-1.08439 -0.418774,-2.76325 -0.05901,-3.71681 l 0.244549,-0.64819 0.503766,0.76885 c 0.635141,0.96934 0.704537,3.46262 0.106892,3.84042 -0.341796,0.21606 -0.335091,0.25144 0.04832,0.25493 0.244855,0.002 0.520794,-0.23415 0.613198,-0.52529 0.2259,-0.71175 1.653108,-1.75179 2.711923,-1.97625 0.472943,-0.10025 0.859896,-0.10855 0.859896,-0.0184 0,0.61317 -1.234481,2.37939 -1.918043,2.74423 -0.454711,0.24269 -1.077787,0.67938 -1.384612,0.97042 -0.901871,0.85548 -2.152521,0.71414 -3.085723,-0.34872 z m 0.87719,0.018 c -0.130977,-0.25466 -0.190732,-0.59398 -0.132789,-0.75404 0.174684,-0.48254 -0.672492,-1.03897 -1.032992,-0.67847 -0.229667,0.22967 -0.117164,0.50012 0.45759,1.10004 0.871136,0.90927 1.04741,0.99202 0.708191,0.33247 z m 3.129938,-0.85989 c 0,-0.14553 0.16014,-0.26459 0.355868,-0.26459 0.40577,0 1.072464,-0.70403 1.315403,-1.38906 0.122233,-0.34467 0.02431,-0.46302 -0.383117,-0.46302 -0.650652,0 -2.459218,1.72021 -2.218338,2.10996 0.215457,0.34862 0.930184,0.35377 0.930184,0.007 z m -1.880747,-1.91823 c -0.0925,-1.89253 -0.244031,-2.46286 -0.533159,-2.00674 -0.260236,0.41053 -0.295821,1.9398 -0.06516,2.80049 0.295047,1.10096 0.666827,0.60775 0.598323,-0.79375 z"
       id="path13207" />
    <path
       style="fill:#225a3c;stroke-width:1.02279"
       d="m 13.665734,154.17807 c -0.291041,-0.29328 -1.04289,-0.96771 -1.670774,-1.49874 -0.627884,-0.53103 -1.315551,-1.30188 -1.528149,-1.713 -0.354193,-0.68493 -0.347224,-0.747 0.08328,-0.74168 1.020071,0.0126 2.731419,1.04371 3.282494,1.97771 0.308117,0.52222 0.602619,0.90709 0.654448,0.85526 0.05183,-0.0518 -0.199269,-1.03918 -0.557996,-2.19411 -0.644938,-2.07639 -0.885647,-4.878 -0.419109,-4.878 0.373531,0 1.592797,1.55506 1.768663,2.25577 0.08662,0.34512 0.11635,1.28885 0.06607,2.09718 l -0.09142,1.4697 0.79375,-0.93686 c 0.557421,-0.65793 1.089162,-0.98361 1.785938,-1.09386 1.125528,-0.1781 1.193284,-0.0229 0.604834,1.38546 -0.265423,0.63525 -0.684194,1.0511 -1.330377,1.32109 -0.611691,0.25558 -1.097063,0.71704 -1.381442,1.31339 -0.507475,1.06419 -1.246399,1.20073 -2.060203,0.38069 z m 1.941906,-0.66439 c 0.392512,-0.86147 0.387387,-0.91359 -0.08982,-0.91359 -0.218282,0 -0.398668,-0.0298 -0.400859,-0.0661 -0.02571,-0.42699 -0.769641,-2.05451 -0.778153,-1.7024 -0.0064,0.26423 0.12575,0.73708 0.293638,1.05078 0.167888,0.3137 0.290576,0.96072 0.27264,1.43781 -0.03898,1.03681 0.27849,1.12427 0.702556,0.19354 z m -2.062796,-1.15065 c -0.21903,-0.52878 -0.671057,-0.92189 -1.391556,-1.21018 -0.58693,-0.23484 -1.124804,-0.36933 -1.195276,-0.29885 -0.257077,0.25707 0.994225,1.68305 1.833624,2.08958 1.055209,0.51105 1.169025,0.42333 0.753208,-0.58055 z m -0.540568,0.26554 c 0,-0.17836 -0.109464,-0.25664 -0.243253,-0.17395 -0.29027,0.17939 -1.081372,-0.55455 -1.075612,-0.99791 0.0026,-0.20038 0.08659,-0.18151 0.235002,0.0528 0.127023,0.20054 0.357351,0.28651 0.51184,0.19103 0.301901,-0.18659 0.981778,0.84258 0.725751,1.0986 -0.08455,0.0846 -0.153728,0.008 -0.153728,-0.17057 z m 5.031475,-1.3596 c 0.568506,-1.06226 -0.594174,-1.47725 -1.4596,-0.52096 -0.263389,0.29104 -0.377092,0.52917 -0.252674,0.52917 0.124419,0 0.09265,0.13357 -0.07061,0.29682 -0.163253,0.16325 -0.234988,0.45796 -0.159412,0.65491 0.113927,0.29689 0.26732,0.29091 0.897522,-0.035 0.418061,-0.21618 0.888209,-0.63242 1.044773,-0.92496 z m -2.98178,-1.54089 c -0.07726,-0.852 -0.339497,-1.8938 -0.582756,-2.3151 -0.403139,-0.69821 -0.395662,-0.46207 0.01773,0.5599 0.118068,0.29189 0.04251,0.35412 -0.279789,0.23045 -0.242847,-0.0932 -0.391642,-0.3029 -0.330657,-0.46603 0.06099,-0.16312 0.01667,-0.53471 -0.09849,-0.82575 -0.154513,-0.39051 -0.214245,-0.23044 -0.227969,0.61093 -0.01301,0.79786 0.0731,1.08342 0.286867,0.95131 0.194372,-0.12013 0.233425,-0.0722 0.107383,0.13171 -0.108944,0.17628 -0.117637,0.64101 -0.01932,1.03275 0.172221,0.68618 0.192497,0.69346 0.554076,0.19897 0.348945,-0.47721 0.375312,-0.44466 0.375312,0.46334 0,0.53714 0.07607,0.97662 0.16904,0.97662 0.09297,0 0.105829,-0.6971 0.02857,-1.5491 z"
       id="path13206" />
    <path
       style="fill:#225a3c;stroke-width:1.02279"
       d="m 18.362088,154.78391 c 1.564349,-0.0468 4.124193,-0.0468 5.688542,0 1.564349,0.0468 0.284427,0.085 -2.844271,0.085 -3.128698,0 -4.40862,-0.0383 -2.844271,-0.085 z"
       id="path13199" />
    <path
       style="fill:#225a3c;stroke-width:1.02279"
       d="m 45.018858,156.9696 v -1.9805 l -8.003646,-0.074 -8.003645,-0.074 8.135937,-0.0621 8.135937,-0.0621 v 2.11667 c 0,1.16416 -0.05953,2.11666 -0.132292,2.11666 -0.07276,0 -0.132291,-0.89122 -0.132291,-1.98049 z"
       id="path13196" />
    <path
       style="fill:#225a3c;stroke-width:1.02279"
       d="m -4.1936397,157.09801 v -2.38125 l 9.0619787,0.0625 9.061979,0.0625 -8.9296873,0.0733 -8.929687,0.0733 v 2.11178 2.11179 l 24.6723943,0.0689 24.672395,0.0689 -24.804686,0.0648 -24.8046867,0.0648 z"
       id="path13192" />
    <path
       style="fill:#185538;stroke-width:1.02279"
       d="m 14.384792,152.14556 c -0.789094,-2.08779 -1.115933,-3.47956 -1.115933,-4.75198 0,-1.55647 0.168741,-1.69436 0.994589,-0.81276 0.794031,0.84764 1.122078,1.87303 1.122078,3.50734 0,1.41082 -0.329035,2.09218 -0.630703,1.30605 -0.0899,-0.23427 -0.04521,-0.34002 0.104567,-0.24745 0.420751,0.26004 0.307507,-2.12528 -0.155881,-3.28339 -0.229588,-0.5738 -0.586776,-1.10826 -0.79375,-1.18768 -0.580104,-0.22261 -0.475813,1.24372 0.27121,3.81321 0.637225,2.19182 0.748775,3.09848 0.203823,1.65666 z"
       id="path13133" />
    <path
       style="fill:#185538;stroke-width:1.02279"
       d="m 27.586315,152.40783 c -0.373328,-0.90129 -0.439121,-2.27761 -0.167317,-3.50008 l 0.203267,-0.91421 0.487766,0.60236 c 0.650663,0.80354 0.870269,2.11428 0.540762,3.22761 l -0.268995,0.90887 0.02506,-1.19062 c 0.03442,-1.63549 -0.306444,-3.09519 -0.610619,-2.61492 -0.317653,0.50156 -0.298912,2.42519 0.03211,3.29585 0.364027,0.95746 0.146729,1.12369 -0.24203,0.18514 z"
       id="path13131" />
    <path
       style="fill:#185538;stroke-width:1.02279"
       d="m 26.310512,153.85686 c -0.647957,-0.70863 -1.491847,-2.31144 -1.311792,-2.49149 0.165985,-0.16599 1.8389,0.69281 2.090566,1.0732 0.373914,0.56517 0.198859,0.80325 -0.186292,0.25337 -0.40612,-0.57982 -1.463302,-1.01113 -1.463302,-0.59701 0,0.13148 0.430573,0.71565 0.956829,1.29815 0.526256,0.5825 0.844667,1.0591 0.707579,1.0591 -0.137088,0 -0.494202,-0.2679 -0.793588,-0.59532 z"
       id="path13129" />
    <path
       style="fill:#185538;stroke-width:1.02279"
       d="m 28.614692,154.46026 c 0,-0.12784 0.369944,-0.50938 0.822098,-0.84787 1.334043,-0.99868 2.617485,-2.26049 2.617485,-2.57335 0,-0.66075 -1.200629,-0.22759 -2.157634,0.77843 -0.559551,0.58821 -1.017366,0.92969 -1.017366,0.75885 0,-0.86231 3.100346,-2.78492 3.632593,-2.25267 0.282829,0.28283 -1.112572,2.36952 -1.846469,2.76122 -0.454711,0.24269 -1.102139,0.70373 -1.438727,1.02454 -0.336589,0.32081 -0.61198,0.47869 -0.61198,0.35085 z"
       id="path13126" />
    <path
       style="fill:#185538;stroke-width:1.02279"
       d="m 14.591776,154.43656 c 0,-0.15411 0.117962,-0.20729 0.262138,-0.11819 0.144176,0.0891 0.460729,-0.25443 0.70345,-0.76343 0.25467,-0.53405 0.767915,-1.06072 1.213565,-1.24531 0.843399,-0.34935 1.663264,-1.38846 1.413879,-1.79197 -0.08621,-0.13949 -0.0072,-0.32403 0.175632,-0.41009 0.182808,-0.0861 -0.02481,-0.0924 -0.461372,-0.0141 -0.436777,0.0783 -1.120976,0.52077 -1.521355,0.98378 -0.744882,0.8614 -0.940392,0.82734 -0.455177,-0.0793 0.496115,-0.927 2.902573,-1.78525 2.902573,-1.03518 0,0.90851 -0.852433,2.15969 -1.71773,2.52123 -0.611691,0.25558 -1.097063,0.71704 -1.381442,1.31339 -0.409614,0.85897 -1.134161,1.2673 -1.134161,0.63918 z"
       id="path13125" />
    <path
       style="fill:#185538;stroke-width:1.02279"
       d="m 13.659738,154.16475 c -0.287744,-0.28595 -1.036894,-0.95439 -1.664778,-1.48542 -0.627884,-0.53103 -1.315551,-1.30188 -1.528149,-1.713 -0.354193,-0.68493 -0.347224,-0.747 0.08328,-0.74168 1.363691,0.0169 3.982543,1.99362 3.405578,2.57058 -0.09825,0.0983 -0.248729,-0.0894 -0.33441,-0.41709 -0.223925,-0.85629 -2.733644,-2.09564 -2.733644,-1.34993 0,0.15411 0.09922,0.21887 0.220486,0.14393 0.121267,-0.075 0.220486,0.0614 0.220486,0.30302 0,0.24161 0.338801,0.68286 0.75289,0.98055 1.295869,0.93161 2.383427,1.94695 2.239542,2.09084 -0.07596,0.076 -0.373532,-0.0958 -0.661276,-0.3818 z"
       id="path13124" />
    <path
       style="fill:#185538;stroke-width:1.02279"
       d="m 18.362088,154.78391 c 1.564349,-0.0468 4.124193,-0.0468 5.688542,0 1.564349,0.0468 0.284427,0.085 -2.844271,0.085 -3.128698,0 -4.40862,-0.0383 -2.844271,-0.085 z"
       id="path13118" />
    <path
       style="fill:#185538;stroke-width:1.02279"
       d="m 45.018858,156.9696 v -1.9805 l -8.003646,-0.074 -8.003645,-0.074 8.135937,-0.0621 8.135937,-0.0621 v 2.11667 c 0,1.16416 -0.05953,2.11666 -0.132292,2.11666 -0.07276,0 -0.132291,-0.89122 -0.132291,-1.98049 z"
       id="path13114" />
    <path
       style="fill:#185538;stroke-width:1.02279"
       d="m -4.1936397,157.09801 v -2.38125 l 9.0619787,0.0625 9.061979,0.0625 -8.9296873,0.0733 -8.929687,0.0733 v 2.11178 2.11179 l 24.6723943,0.0689 24.672395,0.0689 -24.804686,0.0648 -24.8046867,0.0648 z"
       id="path13108" />
    <path
       style="fill:#54380f;stroke-width:1.02279"
       d="m 15.169475,149.95426 c -0.04983,-1.4692 -0.708608,-3.19243 -1.290113,-3.37467 -0.205785,-0.0645 -0.350248,0.34416 -0.41533,1.17487 -0.09819,1.25338 -0.100554,1.2489 -0.147482,-0.27987 -0.04765,-1.55232 -0.04719,-1.5533 0.547622,-1.16994 0.983912,0.63414 1.563029,2.10956 1.452372,3.70021 l -0.09772,1.40461 z"
       id="path12772" />
    <path
       style="fill:#54380f;stroke-width:1.02279"
       d="m 29.143859,152.14093 c 0,-0.58452 2.300899,-1.94401 3.232647,-1.91002 0.186575,0.007 -0.256085,0.24292 -0.983689,0.52469 -0.727604,0.28178 -1.531276,0.76565 -1.785938,1.07527 -0.254661,0.30962 -0.46302,0.44915 -0.46302,0.31006 z"
       id="path12766" />
    <path
       style="fill:#54380f;stroke-width:1.02279"
       d="m 15.396119,154.04769 c -0.02053,-0.52675 0.812208,-1.4369 1.700226,-1.85829 0.811431,-0.38505 1.699945,-1.82333 1.345404,-2.17787 -0.276441,-0.27644 -1.560527,0.27792 -2.189583,0.94528 -0.573659,0.60858 -0.62903,0.62737 -0.366481,0.12433 0.517588,-0.9917 2.939424,-1.91343 2.939424,-1.11872 0,0.85934 -0.818404,2.05957 -1.684651,2.47063 -0.525801,0.24951 -1.130995,0.77604 -1.344874,1.17007 -0.213879,0.39403 -0.393638,0.59409 -0.399465,0.44457 z"
       id="path12741" />
    <path
       style="fill:#54380f;stroke-width:1.02279"
       d="m 28.87005,154.06608 c 0.188419,-0.22704 0.787339,-0.66276 1.330933,-0.96827 0.543594,-0.30552 1.23976,-0.98905 1.547036,-1.51896 0.307276,-0.52991 0.560635,-0.84441 0.563018,-0.69889 0.0099,0.60182 -1.061953,1.8065 -2.378907,2.67382 -0.772563,0.50879 -1.250499,0.73933 -1.06208,0.5123 z"
       id="path12735" />
    <path
       style="fill:#54380f;stroke-width:1.02279"
       d="m 26.445492,153.84701 c -0.392695,-0.32219 -0.901455,-1.03503 -1.130578,-1.58409 l -0.416587,-0.99828 0.964453,0.40297 c 0.530449,0.22164 0.996705,0.40298 1.036125,0.40298 0.03942,0 0.143339,0.18676 0.230932,0.41502 0.119154,0.31051 -0.01596,0.27719 -0.53654,-0.13229 -1.439283,-1.13214 -1.563909,-0.47383 -0.196776,1.03942 1.077634,1.19281 1.090102,1.30847 0.04897,0.45427 z"
       id="path12734" />
    <path
       style="fill:#54380f;stroke-width:1.02279"
       d="m 13.533443,154.01875 c -0.363802,-0.35755 -1.137709,-1.076 -1.719792,-1.59656 l -1.058333,-0.94647 0.996341,0.76047 c 1.893576,1.44529 2.706961,2.17244 2.575351,2.30229 -0.07266,0.0717 -0.429765,-0.16218 -0.793567,-0.51973 z"
       id="path12726" />
    <path
       style="fill:#54380f;stroke-width:1.02279"
       d="m 18.362088,154.78355 c 1.564349,-0.0468 4.124193,-0.0468 5.688542,0 1.564349,0.0468 0.284427,0.085 -2.844271,0.085 -3.128698,0 -4.40862,-0.0383 -2.844271,-0.085 z"
       id="path12722" />
    <path
       style="fill:#54380f;stroke-width:1.02279"
       d="m 45.018858,156.9696 v -1.9805 l -8.003646,-0.074 -8.003645,-0.074 8.135937,-0.0621 8.135937,-0.0621 v 2.11667 c 0,1.16416 -0.05953,2.11666 -0.132292,2.11666 -0.07276,0 -0.132291,-0.89122 -0.132291,-1.98049 z"
       id="path12716" />
    <path
       style="fill:#54380f;stroke-width:1.02279"
       d="m -4.1936397,157.09801 v -2.38125 l 9.0619787,0.0625 9.061979,0.0625 -8.9296873,0.0733 -8.929687,0.0733 v 2.11178 2.11179 l 24.6723943,0.0689 24.672395,0.0689 -24.804686,0.0648 -24.8046867,0.0648 z"
       id="path12712" />
    <path
       style="fill:#013214;stroke-width:1.02279"
       d="m 15.169475,149.95426 c -0.04983,-1.4692 -0.708608,-3.19243 -1.290113,-3.37467 -0.205785,-0.0645 -0.350248,0.34416 -0.41533,1.17487 -0.09819,1.25338 -0.100554,1.2489 -0.147482,-0.27987 -0.04765,-1.55232 -0.04719,-1.5533 0.547622,-1.16994 0.983912,0.63414 1.563029,2.10956 1.452372,3.70021 l -0.09772,1.40461 z"
       id="path11863" />
    <path
       style="fill:#013214;stroke-width:1.02279"
       d="m 29.143859,152.14123 c 0,-0.58452 2.300899,-1.94401 3.232647,-1.91002 0.186575,0.007 -0.256085,0.24292 -0.983689,0.52469 -0.727604,0.28178 -1.531276,0.76565 -1.785938,1.07527 -0.254661,0.30962 -0.46302,0.44915 -0.46302,0.31006 z"
       id="path11853" />
    <path
       style="fill:#013214;stroke-width:1.02279"
       d="m 15.396119,154.04799 c -0.02053,-0.52675 0.812208,-1.4369 1.700226,-1.85829 0.811431,-0.38505 1.699945,-1.82333 1.345404,-2.17787 -0.276441,-0.27644 -1.560527,0.27792 -2.189583,0.94528 -0.573659,0.60858 -0.62903,0.62737 -0.366481,0.12433 0.517588,-0.9917 2.939424,-1.91343 2.939424,-1.11872 0,0.85934 -0.818404,2.05957 -1.684651,2.47063 -0.525801,0.24951 -1.130995,0.77604 -1.344874,1.17007 -0.213879,0.39403 -0.393638,0.59409 -0.399465,0.44457 z"
       id="path11834" />
    <path
       style="fill:#013214;stroke-width:1.02279"
       d="m 28.87005,154.06638 c 0.188419,-0.22704 0.787339,-0.66276 1.330933,-0.96827 0.543594,-0.30552 1.23976,-0.98905 1.547036,-1.51896 0.307276,-0.52991 0.560635,-0.84441 0.563018,-0.69889 0.0099,0.60182 -1.061953,1.8065 -2.378907,2.67382 -0.772563,0.50879 -1.250499,0.73933 -1.06208,0.5123 z"
       id="path11831" />
    <path
       style="fill:#013214;stroke-width:1.02279"
       d="m 26.445492,153.84731 c -0.392695,-0.32219 -0.901455,-1.03503 -1.130578,-1.58409 l -0.416587,-0.99828 0.964453,0.40297 c 0.530449,0.22164 0.996705,0.40298 1.036125,0.40298 0.03942,0 0.143339,0.18676 0.230932,0.41502 0.119154,0.31051 -0.01596,0.27719 -0.53654,-0.13229 -1.439283,-1.13214 -1.563909,-0.47383 -0.196776,1.03942 1.077634,1.19281 1.090102,1.30847 0.04897,0.45427 z"
       id="path11830" />
    <path
       style="fill:#013214;stroke-width:1.02279"
       d="m 13.533443,154.01906 c -0.363802,-0.35755 -1.137709,-1.076 -1.719792,-1.59656 l -1.058333,-0.94647 0.996341,0.76047 c 1.893576,1.44529 2.706961,2.17244 2.575351,2.30229 -0.07266,0.0717 -0.429765,-0.16218 -0.793567,-0.51973 z"
       id="path11819" />
  </g>
</svg>
