<?xml version="1.0" encoding="UTF-8" standalone="no"?>
<!-- Created with Inkscape (http://www.inkscape.org/) -->

<svg
   width="185"
   height="185"
   viewBox="0 0 48.947914 48.947918"
   version="1.1"
   id="svg1"
   xmlns="http://www.w3.org/2000/svg"
   xmlns:svg="http://www.w3.org/2000/svg">
  <defs
     id="defs1" />
  <g
     id="g33616"
     style="display:inline;stroke-width:1"
     transform="translate(-168.86209,-51.659446)">
    <path
       style="fill:#decfac;stroke-width:1"
       d="m 173.51049,100.2603 c -2.47548,-0.761419 -2.99198,-2.510426 -1.23496,-4.181845 1.54243,-1.46728 3.3091,-1.926935 7.45378,-1.939339 l 3.3576,-0.01005 -0.66683,-0.698082 c -0.39717,-0.415773 -0.72544,-1.13503 -0.81176,-1.778549 -0.1306,-0.973686 -0.0527,-1.172718 0.78851,-2.013898 0.79302,-0.793023 1.11344,-0.933429 2.13016,-0.933429 2.02318,0 3.10791,1.513746 3.1948,4.458349 0.0194,0.656487 0.15784,0.934664 0.4894,0.983202 0.39203,0.05739 0.43855,-0.08141 0.30571,-0.912109 -0.39553,-2.473563 1.07567,-4.529442 3.2413,-4.529442 2.5048,0 3.65131,2.645432 1.97404,4.554855 l -0.76343,0.869103 8.10562,-0.08464 c 8.46109,-0.08835 10.36606,0.07168 12.24129,1.028349 2.86564,1.461943 2.75296,4.431037 -0.19927,5.250755 -1.49856,0.4161 -38.2383,0.35743 -39.60596,-0.0632 z"
       id="path33613" />
    <path
       style="fill:#b2a58a;stroke-width:1"
       d="m 174.51964,100.43807 c -0.29105,-0.0615 -0.78789,-0.16676 -1.10409,-0.23381 -0.31621,-0.0671 -0.94129,-0.430188 -1.38906,-0.806968 -1.67437,-1.408885 -0.59338,-3.433628 2.43693,-4.564486 1.29384,-0.48284 2.09126,-0.571447 5.14273,-0.571447 h 3.61145 l -0.73218,-0.764227 c -0.45956,-0.47968 -0.78614,-1.166523 -0.8771,-1.844695 -0.1306,-0.973686 -0.0527,-1.172718 0.78851,-2.013898 0.71789,-0.717891 1.1505,-0.933429 1.87348,-0.933429 2.12169,0 3.3462,1.489718 3.3462,4.07092 0,1.335039 0.0565,1.485329 0.55861,1.485329 0.49294,0 0.5386,-0.106691 0.38838,-0.907426 -0.25701,-1.37 0.31083,-3.22409 1.22232,-3.991057 1.84583,-1.553168 4.70986,-0.344047 4.70986,1.988387 0,0.913079 -0.16203,1.272961 -0.9098,2.020729 l -0.9098,0.909799 9.17803,-0.03395 c 8.78514,-0.0325 9.24268,-0.0096 10.6884,0.533852 2.48488,0.934159 3.55065,2.867023 2.4485,4.440564 -0.94326,1.346683 -1.65479,1.391563 -21.53554,1.358413 -10.12367,-0.0169 -18.64479,-0.0811 -18.93583,-0.1426 z"
       id="path33604" />
    <path
       style="fill:#9b956c;stroke-width:1"
       d="m 174.32485,100.36581 c -2.28092,-0.31825 -3.64462,-1.957421 -2.83238,-3.404528 1.06624,-1.899643 3.56317,-2.699454 8.433,-2.701237 l 3.59,-0.0013 -0.70268,-0.593998 c -0.38647,-0.326699 -0.84386,-0.874426 -1.01641,-1.217171 -0.8031,-1.595251 0.70569,-3.742452 2.62975,-3.742452 1.91393,0 3.19038,1.635536 3.19038,4.087902 0,1.291959 0.0636,1.468347 0.52917,1.468347 0.47085,0 0.52916,-0.176388 0.52916,-1.600639 0,-2.517232 1.0364,-3.95561 2.85014,-3.95561 1.806,0 2.9707,1.159633 2.9707,2.95777 0,0.593161 -0.25821,1.059727 -0.94488,1.707342 l -0.94488,0.891137 h 9.23212 c 10.26904,0 10.9222,0.08852 12.64547,1.713777 1.77697,1.6759 0.92634,3.776899 -1.76263,4.35358 -1.44977,0.31092 -36.19293,0.34448 -38.39603,0.0371 z"
       id="path33589" />
    <path
       style="fill:#f38b03;stroke-width:1"
       d="m 174.45062,100.34736 c -3.89604,-0.582377 -4.28869,-3.377979 -0.72473,-5.159959 1.50842,-0.754215 1.79176,-0.800339 5.68854,-0.926042 3.5865,-0.115693 4.02354,-0.176459 3.48333,-0.484317 -0.80715,-0.459982 -1.44402,-2.000752 -1.22993,-2.975522 0.24418,-1.111732 1.53975,-2.09641 2.7583,-2.09641 1.91555,0 3.19038,1.688182 3.19038,4.224835 0,1.155026 0.0701,1.331414 0.52917,1.331414 0.47085,0 0.52916,-0.176388 0.52916,-1.600639 0,-2.591264 1.03328,-3.95561 2.99575,-3.95561 0.81395,0 1.21178,0.185862 1.9255,0.899583 1.31085,1.31085 1.17608,2.742852 -0.38211,4.06004 l -0.70268,0.593998 9.27943,0.0013 c 10.32063,0.0015 10.96865,0.08902 12.69278,1.715091 1.53927,1.451714 1.19614,2.966487 -0.93783,4.140148 -0.54154,0.29783 -4.01923,0.37071 -19.1823,0.40196 -10.18645,0.021 -19.1472,-0.0555 -19.91276,-0.16988 z"
       id="path33571" />
    <path
       style="fill:#f26705;stroke-width:1"
       d="m 174.45062,100.34736 c -3.89604,-0.582377 -4.28869,-3.377979 -0.72473,-5.159959 1.50842,-0.754215 1.79176,-0.800339 5.68854,-0.926042 3.5865,-0.115693 4.02354,-0.176459 3.48333,-0.484317 -0.80715,-0.459982 -1.44402,-2.000752 -1.22993,-2.975522 0.24418,-1.111732 1.53975,-2.09641 2.7583,-2.09641 1.91555,0 3.19038,1.688182 3.19038,4.224835 0,1.155026 0.0701,1.331414 0.52917,1.331414 0.47085,0 0.52916,-0.176388 0.52916,-1.600639 0,-2.591264 1.03328,-3.95561 2.99575,-3.95561 0.81395,0 1.21178,0.185862 1.9255,0.899583 1.31085,1.31085 1.17608,2.742852 -0.38211,4.06004 l -0.70268,0.593998 9.27943,0.0013 c 10.32063,0.0015 10.96865,0.08902 12.69278,1.715091 1.53927,1.451714 1.19614,2.966487 -0.93783,4.140148 -0.54154,0.29783 -4.01923,0.37071 -19.1823,0.40196 -10.18645,0.021 -19.1472,-0.0555 -19.91276,-0.16988 z"
       id="path33561" />
    <path
       style="fill:#f25407;stroke-width:1"
       d="m 174.45062,100.34738 c -3.89604,-0.582377 -4.28869,-3.377979 -0.72473,-5.159959 1.50842,-0.754215 1.79176,-0.800339 5.68854,-0.926042 3.5865,-0.115693 4.02354,-0.176459 3.48333,-0.484317 -0.80715,-0.459982 -1.44402,-2.000752 -1.22993,-2.975522 0.24418,-1.111732 1.53975,-2.09641 2.7583,-2.09641 1.91555,0 3.19038,1.688182 3.19038,4.224835 0,1.155026 0.0701,1.331414 0.52917,1.331414 0.47085,0 0.52916,-0.176388 0.52916,-1.600639 0,-2.591264 1.03328,-3.95561 2.99575,-3.95561 0.81395,0 1.21178,0.185862 1.9255,0.899583 1.31085,1.31085 1.17608,2.742852 -0.38211,4.06004 l -0.70268,0.593998 9.27943,0.0013 c 10.32063,0.0015 10.96865,0.08902 12.69278,1.715091 1.53927,1.451714 1.19614,2.966487 -0.93783,4.140148 -0.54154,0.29783 -4.01923,0.37071 -19.1823,0.40196 -10.18645,0.021 -19.1472,-0.0555 -19.91276,-0.16988 z"
       id="path33502" />
    <path
       style="fill:#877252;stroke-width:1"
       d="m 174.45062,100.34736 c -3.89604,-0.582377 -4.28869,-3.377979 -0.72473,-5.159959 1.50842,-0.754215 1.79176,-0.800339 5.68854,-0.926042 3.5865,-0.115693 4.02354,-0.176459 3.48333,-0.484317 -0.80715,-0.459982 -1.44402,-2.000752 -1.22993,-2.975522 0.24418,-1.111732 1.53975,-2.09641 2.7583,-2.09641 1.91555,0 3.19038,1.688182 3.19038,4.224835 0,1.155026 0.0701,1.331414 0.52917,1.331414 0.47085,0 0.52916,-0.176388 0.52916,-1.600639 0,-2.591264 1.03328,-3.95561 2.99575,-3.95561 0.81395,0 1.21178,0.185862 1.9255,0.899583 1.31085,1.31085 1.17608,2.742852 -0.38211,4.06004 l -0.70268,0.593998 9.27943,0.0013 c 10.32063,0.0015 10.96865,0.08902 12.69278,1.715091 1.53927,1.451714 1.19614,2.966487 -0.93783,4.140148 -0.54154,0.29783 -4.01923,0.37071 -19.1823,0.40196 -10.18645,0.021 -19.1472,-0.0555 -19.91276,-0.16988 z"
       id="path33486" />
    <path
       style="fill:#718a44;stroke-width:1"
       d="m 174.73552,100.35752 c -4.12917,-0.483552 -4.69341,-3.292758 -1.03625,-5.159187 1.48778,-0.759285 1.75379,-0.802984 5.67918,-0.932932 4.00575,-0.132608 4.09931,-0.14873 3.42366,-0.589982 -2.19082,-1.430786 -1.02335,-4.970309 1.6394,-4.970309 1.89931,0 3.175,1.697503 3.175,4.224835 0,1.155026 0.0701,1.331414 0.52917,1.331414 0.47261,0 0.52927,-0.176718 0.53015,-1.653645 0.002,-2.611037 1.06646,-3.902604 3.2177,-3.902604 0.56042,0 1.07472,0.271745 1.70256,0.899583 1.31085,1.31085 1.17608,2.742852 -0.38211,4.06004 l -0.70268,0.593998 9.16389,0.0013 c 10.28214,0.0015 11.18471,0.126926 12.84287,1.785083 1.39149,1.391498 1.08181,2.948695 -0.79001,3.972436 -0.7777,0.42534 -2.27461,0.46425 -19.10008,0.49654 -10.04094,0.0193 -18.99254,-0.0512 -19.89245,-0.15658 z"
       id="path33446" />
    <path
       style="fill:#69813d;stroke-width:1"
       d="m 174.73552,100.35745 c -4.12917,-0.483552 -4.69341,-3.292758 -1.03625,-5.159187 1.48778,-0.759285 1.75379,-0.802984 5.67918,-0.932932 4.00575,-0.132608 4.09931,-0.14873 3.42366,-0.589982 -2.19082,-1.430786 -1.02335,-4.970309 1.6394,-4.970309 1.89931,0 3.175,1.697503 3.175,4.224835 0,1.155026 0.0701,1.331414 0.52917,1.331414 0.47261,0 0.52927,-0.176718 0.53015,-1.653645 0.002,-2.611037 1.06646,-3.902604 3.2177,-3.902604 0.56042,0 1.07472,0.271745 1.70256,0.899583 1.31085,1.31085 1.17608,2.742852 -0.38211,4.06004 l -0.70268,0.593998 9.16389,0.0013 c 10.28214,0.0015 11.18471,0.126926 12.84287,1.785083 1.39149,1.391498 1.08181,2.948695 -0.79001,3.972436 -0.7777,0.42534 -2.27461,0.46425 -19.10008,0.49654 -10.04094,0.0193 -18.99254,-0.0512 -19.89245,-0.15658 z"
       id="path33424" />
    <path
       style="fill:#706b44;stroke-width:1"
       d="m 174.73552,100.35708 c -4.12917,-0.483552 -4.69341,-3.292758 -1.03625,-5.159187 1.48778,-0.759285 1.75379,-0.802984 5.67918,-0.932932 4.00575,-0.132608 4.09931,-0.14873 3.42366,-0.589982 -2.19082,-1.430786 -1.02335,-4.970309 1.6394,-4.970309 1.89931,0 3.175,1.697503 3.175,4.224835 0,1.155026 0.0701,1.331414 0.52917,1.331414 0.47261,0 0.52927,-0.176718 0.53015,-1.653645 0.002,-2.611037 1.06646,-3.902604 3.2177,-3.902604 0.56042,0 1.07472,0.271745 1.70256,0.899583 1.31085,1.31085 1.17608,2.742852 -0.38211,4.06004 l -0.70268,0.593998 9.16389,0.0013 c 10.28214,0.0015 11.18471,0.126926 12.84287,1.785083 1.39149,1.391498 1.08181,2.948695 -0.79001,3.972436 -0.7777,0.42534 -2.27461,0.46425 -19.10008,0.49654 -10.04094,0.0193 -18.99254,-0.0512 -19.89245,-0.15658 z"
       id="path33402" />
    <path
       style="fill:#ea2f02;stroke-width:1"
       d="m 175.15311,100.35427 c -3.05619,-0.2455 -4.40622,-1.42047 -3.67114,-3.195104 0.81032,-1.956284 3.57117,-2.890504 8.55575,-2.895106 l 3.40142,-0.0031 -0.78806,-0.736157 c -1.51652,-1.41664 -1.27356,-3.522876 0.51295,-4.446712 2.28946,-1.183928 4.45248,0.687109 4.45248,3.851455 0,1.155026 0.0701,1.331414 0.52917,1.331414 0.47085,0 0.52916,-0.176388 0.52916,-1.600639 0,-2.568413 1.11812,-3.95561 3.18832,-3.95561 1.07497,0 2.63252,1.479274 2.63252,2.500222 0,0.937969 -0.66247,2.168452 -1.3918,2.585163 -0.49241,0.281342 1.03984,0.360935 9.06471,0.470864 l 9.65729,0.132292 1.38298,0.728978 c 1.37355,0.724006 2.1889,1.764783 2.1889,2.794076 0,0.776399 -0.96379,1.828665 -1.983,2.165034 -1.00152,0.33053 -34.56418,0.56997 -38.26165,0.27297 z"
       id="path33380" />
    <path
       style="fill:#647a39;stroke-width:1"
       d="m 175.15311,100.35427 c -3.05619,-0.2455 -4.40622,-1.42047 -3.67114,-3.195104 0.81032,-1.956284 3.57117,-2.890504 8.55575,-2.895106 l 3.40142,-0.0031 -0.78806,-0.736157 c -1.51652,-1.41664 -1.27356,-3.522876 0.51295,-4.446712 2.28946,-1.183928 4.45248,0.687109 4.45248,3.851455 0,1.155026 0.0701,1.331414 0.52917,1.331414 0.47085,0 0.52916,-0.176388 0.52916,-1.600639 0,-2.568413 1.11812,-3.95561 3.18832,-3.95561 1.07497,0 2.63252,1.479274 2.63252,2.500222 0,0.937969 -0.66247,2.168452 -1.3918,2.585163 -0.49241,0.281342 1.03984,0.360935 9.06471,0.470864 l 9.65729,0.132292 1.38298,0.728978 c 1.37355,0.724006 2.1889,1.764783 2.1889,2.794076 0,0.776399 -0.96379,1.828665 -1.983,2.165034 -1.00152,0.33053 -34.56418,0.56997 -38.26165,0.27297 z"
       id="path33321" />
    <path
       style="fill:#566a2e;stroke-width:1"
       d="m 175.15311,100.35475 c -3.05619,-0.2455 -4.40622,-1.42047 -3.67114,-3.195104 0.81053,-1.956807 3.56269,-2.886634 8.59392,-2.903488 l 3.43958,-0.01152 -0.71018,-0.530159 c -2.31065,-1.724937 -0.7447,-5.379061 2.10687,-4.916317 1.72237,0.279503 2.70435,1.779816 2.70435,4.131826 0,1.155026 0.0701,1.331414 0.52917,1.331414 0.47085,0 0.52916,-0.176388 0.52916,-1.600639 0,-2.568413 1.11812,-3.95561 3.18832,-3.95561 1.07497,0 2.63252,1.479274 2.63252,2.500222 0,0.937969 -0.66247,2.168452 -1.3918,2.585163 -0.49241,0.281342 1.03984,0.360935 9.06471,0.470864 l 9.65729,0.132292 1.38298,0.728978 c 1.37355,0.724006 2.1889,1.764783 2.1889,2.794076 0,0.776399 -0.96379,1.828665 -1.983,2.165032 -1.00152,0.33053 -34.56418,0.56997 -38.26165,0.27297 z"
       id="path33251" />
    <path
       style="fill:#ab260d;stroke-width:1"
       d="m 175.15311,100.35471 c -3.05619,-0.2455 -4.40622,-1.42047 -3.67114,-3.195104 0.81235,-1.961183 3.56796,-2.889912 8.59392,-2.896421 l 3.43958,-0.0045 -0.73159,-0.593998 c -2.22783,-1.808846 -0.69056,-5.324048 2.12828,-4.866614 1.72237,0.279503 2.70435,1.779816 2.70435,4.131826 0,1.155026 0.0701,1.331414 0.52917,1.331414 0.46539,0 0.52916,-0.176388 0.52916,-1.463706 0,-2.648143 1.12527,-4.092543 3.18832,-4.092543 1.07497,0 2.63252,1.479274 2.63252,2.500222 0,0.937969 -0.66247,2.168452 -1.3918,2.585163 -0.49241,0.281342 1.03984,0.360935 9.06471,0.470864 l 9.65729,0.132292 1.38298,0.728978 c 1.37355,0.724006 2.1889,1.764783 2.1889,2.794076 0,0.776399 -0.96379,1.828665 -1.983,2.165031 -1.00152,0.33053 -34.56418,0.56997 -38.26165,0.27297 z"
       id="path33234" />
    <path
       style="fill:#6a4818;stroke-width:1"
       d="m 175.15311,100.35471 c -3.05619,-0.2455 -4.40622,-1.42047 -3.67114,-3.195104 0.81235,-1.961183 3.56796,-2.889912 8.59392,-2.896421 l 3.43958,-0.0045 -0.73159,-0.593998 c -2.22783,-1.808846 -0.69056,-5.324048 2.12828,-4.866614 1.72237,0.279503 2.70435,1.779816 2.70435,4.131826 0,1.155026 0.0701,1.331414 0.52917,1.331414 0.46539,0 0.52916,-0.176388 0.52916,-1.463706 0,-2.648143 1.12527,-4.092543 3.18832,-4.092543 1.07497,0 2.63252,1.479274 2.63252,2.500222 0,0.937969 -0.66247,2.168452 -1.3918,2.585163 -0.49241,0.281342 1.03984,0.360935 9.06471,0.470864 l 9.65729,0.132292 1.38298,0.728978 c 1.37355,0.724006 2.1889,1.764783 2.1889,2.794076 0,0.776399 -0.96379,1.828665 -1.983,2.165031 -1.00152,0.33053 -34.56418,0.56997 -38.26165,0.27297 z"
       id="path33211" />
    <path
       style="fill:#4b5424;stroke-width:1"
       d="m 173.24595,100.08033 c -1.65405,-0.502101 -2.26923,-1.670572 -1.61045,-3.05886 0.90018,-1.896992 3.57433,-2.759449 8.56212,-2.761425 l 3.31785,-0.0013 -0.73159,-0.593998 c -2.22783,-1.808846 -0.69056,-5.324048 2.12828,-4.866614 1.72237,0.279503 2.70435,1.779816 2.70435,4.131826 0,1.204288 0.0568,1.33143 0.59531,1.331579 0.54948,1.52e-4 0.58832,-0.100738 0.50448,-1.310295 -0.12478,-1.800375 0.35988,-3.117532 1.37488,-3.736441 1.30323,-0.79466 2.44766,-0.667348 3.50491,0.389905 1.00001,1.000008 1.13702,1.842541 0.49997,3.074462 -0.5526,1.068625 -1.14584,1.317621 -3.13925,1.317621 -0.97624,0 -1.80017,0.127171 -1.90311,0.293744 -0.11348,0.183614 -0.54092,0.227981 -1.1401,0.118337 -1.75868,-0.321822 -4.0756,-0.415107 -4.37088,-0.175981 -0.16051,0.129984 -1.95871,0.294743 -3.996,0.366131 -3.94775,0.138331 -5.09227,0.371595 -6.50956,1.326706 -1.67812,1.130884 -1.82165,2.417294 -0.38903,3.486835 0.70859,0.529007 1.03075,0.537353 20.74251,0.537353 18.94058,0 20.06116,-0.02608 20.7336,-0.482476 0.39097,-0.265362 0.79052,-0.845177 0.88788,-1.288479 0.23738,-1.080791 -0.45729,-2.008225 -2.14165,-2.859253 -1.30506,-0.659384 -1.33904,-0.661927 -10.83417,-0.810905 l -9.525,-0.149447 9.525,0.01716 9.525,0.01716 1.53904,0.755717 c 2.50376,1.229423 2.99249,3.139577 1.15366,4.508923 -0.74203,0.552565 -0.87564,0.556485 -20.50521,0.602115 -10.86708,0.0253 -20.09335,-0.0558 -20.50284,-0.18008 z"
       id="path33205" />
    <path
       style="fill:#374b17;stroke-width:1"
       d="m 173.24595,100.08033 c -1.65405,-0.502101 -2.26923,-1.670572 -1.61045,-3.05886 0.89745,-1.891242 3.57835,-2.760111 8.51633,-2.760111 h 3.27205 l -0.8141,-0.814102 c -1.4229,-1.4229 -1.03158,-3.72992 0.75845,-4.471373 2.28814,-0.947779 4.24828,0.888476 4.24828,3.979783 0,1.177556 0.0584,1.305728 0.59531,1.306053 0.55511,3.36e-4 0.58928,-0.09641 0.506,-1.432535 -0.15448,-2.478131 1.08219,-4.124075 3.09858,-4.124075 1.06233,0 2.35372,1.125698 2.5614,2.232765 0.19012,1.013419 -0.38994,2.35809 -1.20552,2.794573 -0.5766,0.30859 -3.92678,0.301145 -3.42719,-0.0076 0.17062,-0.105449 0.8885,-0.137439 1.59529,-0.07109 1.11091,0.104284 1.37596,0.02975 1.95561,-0.549889 0.72005,-0.720058 0.90533,-2.142702 0.40162,-3.083893 -0.42295,-0.790288 -2.13364,-1.198941 -3.0693,-0.7332 -0.41956,0.208844 -0.73013,0.529446 -0.69014,0.712449 0.04,0.183004 -0.0397,0.263257 -0.17711,0.17834 -0.39446,-0.243784 -0.87682,1.594448 -0.77864,2.967319 0.0833,1.165206 0.045,1.253271 -0.57216,1.315824 -0.3638,0.03687 -0.95911,-0.173055 -1.32292,-0.466503 -0.40357,-0.325525 -0.48093,-0.46957 -0.19843,-0.369461 0.38661,0.137003 0.46302,0.004 0.46302,-0.805883 0,-0.665809 -0.0958,-0.910766 -0.30547,-0.781177 -0.19437,0.120128 -0.23342,0.07223 -0.10738,-0.131715 0.26826,-0.434053 -0.0652,-1.676173 -0.39522,-1.472205 -0.14486,0.08953 -0.24633,0.06463 -0.22549,-0.05532 0.10976,-0.631833 -0.11783,-0.886201 -1.04015,-1.162534 -0.84449,-0.253017 -1.15764,-0.230644 -1.86074,0.132939 -0.49337,0.255134 -0.76965,0.559647 -0.66353,0.731348 0.10369,0.167773 0.0625,0.220432 -0.0959,0.122543 -0.64686,-0.399785 -0.81707,1.775716 -0.20707,2.646621 0.21489,0.306793 0.70826,0.637507 1.09638,0.734919 0.66974,0.168094 0.68016,0.194968 0.20461,0.527763 -0.33176,0.23217 -1.75267,0.395613 -4.20523,0.483716 -3.94924,0.141869 -5.09342,0.375638 -6.50956,1.329976 -1.67812,1.130884 -1.82165,2.417294 -0.38903,3.486835 0.70859,0.529007 1.03075,0.537353 20.74251,0.537353 18.94058,0 20.06116,-0.02608 20.7336,-0.482476 0.39097,-0.265362 0.79052,-0.845177 0.88788,-1.288479 0.23738,-1.080791 -0.45729,-2.008225 -2.14165,-2.859253 -1.30506,-0.659384 -1.33904,-0.661927 -10.83417,-0.810905 l -9.525,-0.149447 9.525,0.01716 9.525,0.01716 1.53904,0.755717 c 2.50376,1.229423 2.99249,3.139577 1.15366,4.508923 -0.74203,0.552567 -0.87564,0.556487 -20.50521,0.602117 -10.86708,0.0253 -20.09335,-0.0558 -20.50284,-0.18008 z"
       id="path33191" />
    <path
       style="fill:#4c3110;stroke-width:1"
       d="m 173.24595,100.08033 c -1.65405,-0.502101 -2.26923,-1.670572 -1.61045,-3.05886 0.89745,-1.891242 3.57835,-2.760111 8.51633,-2.760111 h 3.27205 l -0.8141,-0.814102 c -1.4229,-1.4229 -1.03158,-3.72992 0.75845,-4.471373 2.32199,-0.961801 4.24828,0.924117 4.24828,4.15925 0,0.991442 0.0712,1.126269 0.59531,1.126586 0.55511,3.36e-4 0.58928,-0.09641 0.506,-1.432535 -0.15448,-2.478131 1.08219,-4.124075 3.09858,-4.124075 1.00769,0 2.32292,1.096499 2.5488,2.12492 0.22609,1.029373 -0.57103,2.648811 -1.45702,2.96012 -0.5684,0.199715 -0.53202,0.12371 0.25857,-0.54021 0.77665,-0.652224 0.92002,-0.94264 0.92002,-1.863641 0,-1.372097 -0.71043,-2.139582 -2.16057,-2.334087 -0.91222,-0.122354 -1.18448,-0.03062 -1.95706,0.659371 -0.85405,0.762757 -0.89969,0.89528 -0.94442,2.741783 l -0.047,1.940285 h -0.74675 c -0.71914,0 -0.75246,-0.05869 -0.90122,-1.5875 -0.085,-0.873125 -0.34724,-1.957682 -0.58284,-2.410128 -1.17216,-2.251014 -4.68665,-1.507244 -4.68665,0.991834 0,0.744224 0.21149,1.243879 0.81971,1.936598 0.58326,0.664306 0.71682,0.967603 0.46302,1.051503 -0.19618,0.06485 -1.96403,0.171218 -3.92856,0.236371 -3.81787,0.126619 -4.96759,0.363402 -6.37727,1.313384 -1.67812,1.130884 -1.82165,2.417294 -0.38903,3.486835 0.70859,0.529007 1.03075,0.537353 20.74251,0.537353 18.94058,0 20.06116,-0.02608 20.7336,-0.482476 0.39097,-0.265362 0.79052,-0.845177 0.88788,-1.288479 0.23738,-1.080791 -0.45729,-2.008225 -2.14165,-2.859253 -1.30506,-0.659384 -1.33904,-0.661927 -10.83417,-0.810905 l -9.525,-0.149447 9.525,0.01716 9.525,0.01716 1.53904,0.755717 c 2.50376,1.229423 2.99249,3.139577 1.15366,4.508923 -0.74203,0.552569 -0.87564,0.556489 -20.50521,0.602119 -10.86708,0.0253 -20.09335,-0.0558 -20.50284,-0.18008 z"
       id="path33118" />
    <path
       style="fill:#31310b;stroke-width:1"
       d="m 188.71241,92.713846 c -0.0653,-2.461034 1.13307,-4.008736 3.10399,-4.008736 1.00769,0 2.32292,1.096499 2.5488,2.12492 0.22609,1.029373 -0.57103,2.648811 -1.45702,2.96012 -0.5684,0.199715 -0.53202,0.12371 0.25857,-0.54021 0.77665,-0.652224 0.92002,-0.94264 0.92002,-1.863641 0,-1.372097 -0.71043,-2.139582 -2.16057,-2.334087 -0.90737,-0.121704 -1.18503,-0.03008 -1.93235,0.637645 -0.7748,0.692285 -0.89353,0.985057 -1.05829,2.609491 -0.18446,1.818591 -0.18582,1.821112 -0.22315,0.414498 z"
       id="path33053" />
    <path
       style="fill:#31310b;stroke-width:1"
       d="m 197.33995,94.32793 c 2.51023,-0.04349 6.61789,-0.04349 9.12812,0 2.51024,0.04349 0.45641,0.07907 -4.56406,0.07907 -5.02047,0 -7.0743,-0.03558 -4.56406,-0.07907 z"
       id="path33026" />
    <path
       style="fill:#31310b;stroke-width:1"
       d="m 187.52832,94.34955 c -0.097,-0.09701 -0.17639,-0.689917 -0.17639,-1.317563 0,-2.555025 -1.45337,-4.31402 -3.26507,-3.95168 -2.00425,0.400849 -2.69006,2.499887 -1.34073,4.10348 0.40627,0.482821 0.5206,0.751694 0.28046,0.659543 -1.12071,-0.430058 -1.63495,-2.856139 -0.84458,-3.984555 0.54585,-0.779299 1.82303,-1.244807 2.87423,-1.0476 1.60821,0.301702 2.56027,1.902759 2.56027,4.305553 0,0.938491 0.091,1.12535 0.59531,1.222486 0.55213,0.106344 0.55533,0.117276 0.0441,0.150693 -0.30317,0.01982 -0.63059,-0.04334 -0.7276,-0.140357 z"
       id="path33025" />
    <path
       style="fill:#31310b;stroke-width:1"
       d="m 178.43324,94.32949 c 0.98832,-0.05105 2.53613,-0.05067 3.43959,8.42e-4 0.90345,0.05151 0.0948,0.09327 -1.79694,0.09281 -1.89178,-4.63e-4 -2.63096,-0.04261 -1.64265,-0.09365 z"
       id="path33024" />
    <path
       style="fill:#31310b;stroke-width:1"
       d="m 213.86975,99.670104 c 0.80379,-0.436197 1.26343,-1.138748 1.26343,-1.931122 0,-0.716337 -1.13517,-2.012393 -2.1198,-2.420239 -0.44417,-0.183984 -0.75207,-0.390038 -0.68421,-0.457898 0.0679,-0.06786 0.58842,0.137981 1.1568,0.457427 1.11754,0.628094 1.91179,1.725967 1.91179,2.642629 0,0.634034 -1.34292,2.127779 -1.89788,2.111039 -0.19309,-0.006 -0.0266,-0.18665 0.36987,-0.401836 z"
       id="path33019" />
    <path
       style="fill:#31310b;stroke-width:1"
       d="m 197.07536,100.15342 c 0.61847,-0.0557 1.6305,-0.0557 2.24896,0 0.61847,0.0557 0.11245,0.10128 -1.12448,0.10128 -1.23692,0 -1.74294,-0.0456 -1.12448,-0.10128 z"
       id="path33015" />
    <path
       style="fill:#2c1302;stroke-width:1"
       d="m 189.35202,89.952096 c 0.23861,-0.624324 1.49204,-1.254682 2.41854,-1.216293 0.52085,0.02158 0.58365,0.06391 0.21157,0.142593 -0.29104,0.06155 -0.79376,0.168238 -1.11715,0.237094 -0.3234,0.06886 -0.83677,0.391642 -1.14082,0.717303 -0.42672,0.457032 -0.51161,0.484249 -0.37214,0.119303 z"
       id="path32803" />
    <path
       style="fill:#2c1302;stroke-width:1"
       d="m 188.69978,92.541568 c -0.009,-0.727604 0.0839,-1.481825 0.20701,-1.676047 0.13098,-0.206619 0.17548,0.232473 0.10727,1.058333 -0.16012,1.938653 -0.29411,2.202024 -0.31428,0.617714 z"
       id="path32767" />
    <path
       style="fill:#2c1302;stroke-width:1"
       d="m 197.33995,94.32789 c 2.51023,-0.04349 6.61789,-0.04349 9.12812,0 2.51024,0.04349 0.45641,0.07907 -4.56406,0.07907 -5.02047,0 -7.0743,-0.03558 -4.56406,-0.07907 z"
       id="path32759" />
    <path
       style="fill:#2c1302;stroke-width:1"
       d="m 178.43324,94.32949 c 0.98832,-0.05105 2.53613,-0.05067 3.43959,8.42e-4 0.90345,0.05151 0.0948,0.09327 -1.79694,0.09281 -1.89178,-4.63e-4 -2.63096,-0.04261 -1.64265,-0.09365 z"
       id="path32758" />
    <path
       style="fill:#2c1302;stroke-width:1"
       d="m 213.86975,99.670104 c 0.80379,-0.436197 1.26343,-1.138748 1.26343,-1.931122 0,-0.716337 -1.13517,-2.012393 -2.1198,-2.420239 -0.44417,-0.183984 -0.75207,-0.390038 -0.68421,-0.457898 0.0679,-0.06786 0.58842,0.137981 1.1568,0.457427 1.11754,0.628094 1.91179,1.725967 1.91179,2.642629 0,0.634034 -1.34292,2.127779 -1.89788,2.111039 -0.19309,-0.006 -0.0266,-0.18665 0.36987,-0.401836 z"
       id="path32743" />
    <path
       style="fill:#2c1302;stroke-width:1"
       d="m 197.07536,100.15342 c 0.61847,-0.0557 1.6305,-0.0557 2.24896,0 0.61847,0.0557 0.11245,0.10128 -1.12448,0.10128 -1.23692,0 -1.74294,-0.0456 -1.12448,-0.10128 z"
       id="path32727" />
    <path
       style="fill:#0f0d00;stroke-width:1"
       d="m 188.69978,92.541568 c -0.009,-0.727604 0.0839,-1.481825 0.20701,-1.676047 0.13098,-0.206619 0.17548,0.232473 0.10727,1.058333 -0.16012,1.938653 -0.29411,2.202024 -0.31428,0.617714 z"
       id="path32284" />
  </g>
</svg>
