<?xml version="1.0" encoding="UTF-8"?>
<!-- Created with Inkscape (http://www.inkscape.org/) -->
<svg width="46.524mm" height="48.948mm" version="1.1" viewBox="0 0 46.524 48.948" xmlns="http://www.w3.org/2000/svg">
 <g transform="translate(-23.283 -16.14)">
  <path transform="translate(-185.47 -75.67)" d="m231.03 139.32c-0.34351-1.7104-1.2851-3.2992-2.4446-4.1248-0.77786-0.55389-0.88867-0.56798-1.536-0.19533-1.5674 0.90234-3.5143 1.3381-5.3069 1.1878-1.6551-0.13876-4.2465-0.95532-4.99-1.5724-0.83311-0.69141 2.31-2.6646 4.9119-3.0836 2.057-0.33127 3.5022 0.0509 5.7464 1.5195 0.87278 0.57115 1.6294 0.99906 1.6815 0.95089 0.052-0.0482-0.1861-0.59257-0.52917-1.2098-0.54612-0.98253-0.78844-1.1595-1.9467-1.4217-1.5055-0.34081-2.2643-0.70476-2.7899-1.338-0.55819-0.67258 0.33145-1.1764 2.0772-1.1764 1.3128 0 1.5103 0.0821 2.3175 0.9634 1.0866 1.1863 2.6057 4.0357 3.4091 6.3945l0.60292 1.7702 0.20315-3.6959c0.19398-3.529 0.17628-3.7465-0.3922-4.8181-0.73719-1.3896-3.4869-4.0537-4.184-4.0537-0.2834 0-1.8956 0.41845-3.5827 0.9299-1.6871 0.51144-3.5913 1.0017-4.2315 1.0894-1.4609 0.20025-5.0013-0.49667-6.9892-1.3758l-1.4817-0.65529 0.86098-0.88831c0.47354-0.48857 1.8338-1.3491 3.0228-1.9124 2.1052-0.99723 2.238-1.0239 5.0722-1.0201 2.7357 4e-3 2.995 0.0514 4.3198 0.79375 0.77514 0.43438 1.9863 1.0874 2.6914 1.4512 0.70516 0.3638 1.5295 0.88827 1.8318 1.1655 0.78344 0.71834 0.68357 0.37697-0.37287-1.2745-0.50741-0.79322-1.6117-1.9725-2.4541-2.6207l-1.5315-1.1785-3.0811-0.0196c-3.3753-0.0215-5.6675-0.44545-8.0099-1.4814-1.703-0.75313-5.1675-2.9796-5.1675-3.3208 0-0.38242 1.6508-1.2568 3.3073-1.7517 1.0792-0.32243 2.4771-0.47626 4.3656-0.48042 2.4887-5e-3 2.9435 0.0706 4.3656 0.72981 1.9025 0.88194 3.0507 1.9194 4.3344 3.9163 0.90994 1.4156 3.6229 4.1354 3.8743 3.8841 0.065-0.065-0.42968-1.003-1.0993-2.0843-1.4409-2.3268-1.9034-3.5238-1.9872-5.1429-0.0968-1.8696 0.35339-2.0373 1.7608-0.6561 1.583 1.5536 2.2453 3.3383 2.2453 6.0504 0 2.2706 0.46039 3.9253 1.8136 6.518l0.82634 1.5833-0.12908-1.3229c-0.071-0.7276-0.24956-2.6424-0.39684-4.2552-0.46773-5.1219-1.1556-6.783-4.2364-10.231l-1.3595-1.5214-1.8971-3e-3c-3.3969-6e-3 -6.1876-1.1225-8.8306-3.5343-1.6069-1.4663-4.0815-5.0598-3.8678-5.6168 0.19434-0.50645 3.849-0.48922 6.2988 0.0297 3.8791 0.82169 6.4267 2.783 8.3272 6.4108 0.59128 1.1287 1.7883 2.8627 2.6601 3.8534l1.585 1.8012v-1.1862c0-0.92332-0.35-1.8796-1.5792-4.3147-1.4308-2.8345-1.7194-3.2279-3.0711-4.1868-1.8715-1.3276-3.2074-2.7939-3.8275-4.201-0.46329-1.0512-1.5764-6.0451-1.5764-7.0724 0-1.3648 3.9812 0.27243 5.9281 2.4379 1.7493 1.9456 2.3452 3.7228 2.3863 7.1157 0.0299 2.4705 0.11204 2.9246 0.74209 4.101 0.6804 1.2705 0.70898 1.291 0.72081 0.51861 7e-3 -0.44237-0.16628-1.49-0.38456-2.328-0.74991-2.8791-0.31571-6.9954 0.9092-8.6193 0.65662-0.8705 1.1728-0.59462 2.0389 1.0897 0.58674 1.141 0.74053 1.844 0.82753 3.7827 0.10093 2.2489 0.052 2.521-0.88024 4.8948-1.204 3.0659-1.4967 6.2475-0.81533 8.8635 0.22742 0.87312 0.496 2.29 0.59686 3.1486l0.18338 1.5611 1.0226-3.1486c0.9088-2.7982 1.0048-3.3421 0.86283-4.8874-0.31059-3.38 0.94696-7.0665 3.4566-10.133 1.3474-1.6463 4.3159-3.7697 6.363-4.5515 1.6555-0.63223 1.876-0.3608 1.4536 1.7896-1.1604 5.9079-3.6564 9.9117-7.9484 12.75-1.3663 0.90344-1.508 1.1018-2.3388 3.275-2.1056 5.5073-2.2657 6.2429-2.1451 9.8539 0.0607 1.819 0.10991 5.2164 0.10925 7.5499l-1e-3 4.2426 0.99046-3.4488c1.3927-4.8494 1.4473-5.3907 0.7357-7.2935-1.0203-2.7283-0.46478-6.8472 0.98892-7.3318 0.51538-0.17179 0.71597 1.0474 0.68524 4.1651l-0.03 3.0427 0.61986-1.2176c0.47933-0.94161 0.65832-1.8413 0.78953-3.9688 0.24923-4.0408 0.97244-6.0794 3.0742-8.6658 2.0572-2.5315 6.7492-5.5947 8.5696-5.5947 0.96106 0-0.0929 5.2506-1.726 8.599-1.0015 2.0534-3.2378 4.4569-6.2214 6.6869-2.0715 1.5482-2.4931 2.0035-3.2408 3.4995-1.0245 2.05-2.7218 6.1642-2.5951 6.2908 0.25163 0.25163 2.6636-2.6885 3.5171-4.2873 1.0955-2.052 3.3677-4.6508 4.927-5.6352 1.9859-1.2536 4.3735-1.9677 7.0491-2.1083 1.9559-0.10275 2.6269-0.046 3.0245 0.25575 0.50354 0.38216 0.50295 0.40041-0.0404 1.2586-0.30325 0.47896-1.7062 2.0419-3.1177 3.4732-3.1131 3.1568-5.0835 4.2538-8.6409 4.8108-2.6714 0.41828-3.6216 1.031-5.7256 3.692-1.4663 1.8545-1.7802 2.3938-2.3108 3.9707l-0.37391 1.1112 0.72107-0.92149c2.825-3.6102 4.4833-4.5785 7.8648-4.5924 1.275-5e-3 2.3745 0.13113 2.7652 0.34298l0.64849 0.35168-1.7599 1.6674c-1.4473 1.3712-2.0727 1.764-3.5206 2.2112-0.9684 0.2991-2.452 0.54383-3.2968 0.54383-1.3578 0-1.6079 0.0858-2.1549 0.73957-0.34036 0.40676-0.90707 1.3593-1.2594 2.1167l-0.64054 1.3771h-2.7469z" fill="#558856"/>
  <path transform="translate(-185.47 -75.67)" d="m231.43 140.56c-0.0622-0.10914-0.19827-0.66914-0.30229-1.2445-0.26938-1.4898-1.0234-2.8423-2.123-3.8077-1.1168-0.9806-1.1805-0.989-2.4786-0.32676-0.54775 0.27944-1.7084 0.65524-2.5792 0.83511-1.3357 0.27588-1.8714 0.26137-3.4253-0.0928-2.3849-0.54355-3.8264-1.1607-3.8264-1.6381 0-0.5273 2.2002-1.9908 3.648-2.4266 2.5379-0.76379 4.7493-0.35146 7.2162 1.3454 0.7607 0.52327 1.4324 0.90209 1.4926 0.84183 0.18343-0.18344-0.60586-1.8639-1.0475-2.2301-0.22784-0.18894-0.87136-0.41271-1.43-0.49727-1.7125-0.25918-3.4776-1.611-2.7172-2.081 0.14291-0.0883 0.89093-0.22572 1.6623-0.30533 1.294-0.13356 1.4758-0.0803 2.3513 0.6884 0.9709 0.85245 3.0515 4.5841 3.6283 6.5074 0.17457 0.58209 0.38743 1.2369 0.47303 1.4552 0.25901 0.66049 0.55741-1.8007 0.57831-4.7698 0.0225-3.1899 0.0176-3.2013-2.4582-5.7474-1.8441-1.8964-2.2697-1.9949-4.823-1.1153-5.1977 1.7906-8.2591 1.7816-12.464-0.037l-1.2695-0.54902 1.1906-1.0354c3.5068-3.0498 9.5843-3.7232 12.932-1.4329 0.67304 0.46052 1.637 0.97988 2.1422 1.1541 0.50519 0.17425 1.2493 0.63375 1.6536 1.0211 0.40432 0.38736 0.73512 0.62479 0.73512 0.52763 0-0.59936-2.109-3.2919-3.4575-4.4141l-1.597-1.3291-2.9628-5e-3c-1.6296-3e-3 -3.7963-0.18087-4.8149-0.39632-3.0031-0.63516-8.3344-3.49-8.3344-4.463 0-0.42427 2.0056-1.3386 3.8615-1.7605 0.71384-0.16226 2.3695-0.29617 3.6791-0.29757 4.0057-4e-3 6.5051 1.3279 8.4731 4.5164 0.92479 1.4983 3.7094 4.2018 4.014 3.8972 0.0842-0.0842-0.3474-0.9211-0.95903-1.8599-1.9037-2.922-2.7062-5.9725-1.7745-6.7457 0.54261-0.45033 2.3452 1.6441 3.067 3.5635 0.45663 1.2143 0.56357 1.9523 0.47613 3.2858-0.0789 1.2031 0.0307 2.157 0.36466 3.175 0.59195 1.8043 2.139 5.0008 2.4277 5.0159 0.11772 6e-3 0.14634-0.0984 0.0636-0.23225-0.0828-0.13389-0.27241-1.8305-0.42147-3.7703-0.49793-6.48-1.2968-8.5962-4.5389-12.024l-1.3472-1.4244h-1.7094c-3.4859 0-6.6039-1.2962-9.189-3.8202-1.4287-1.3948-3.5769-4.4413-3.5769-5.0724 0-0.5118 1.6033-0.71786 3.9084-0.50231 5.2049 0.4867 8.3979 2.5145 10.626 6.7483 0.56376 1.0714 1.7212 2.7511 2.572 3.7328l1.547 1.7849 0.0824-1.2141c0.0702-1.0342-0.13931-1.6598-1.4137-4.2214-1.4284-2.8714-1.5831-3.0717-3.4206-4.4306-2.9491-2.1809-3.7034-3.5079-4.6333-8.1511-0.58803-2.9361-0.56022-3.3746 0.21399-3.3746 0.93168 0 4.1667 1.7896 5.0466 2.7917 1.651 1.8803 2.2219 3.5688 2.411 7.1302 0.14814 2.7898 0.2539 3.3194 0.87179 4.3656l0.70319 1.1906-9.4e-4 -0.92604c-5.2e-4 -0.50932-0.17344-1.6404-0.38426-2.5135-0.21083-0.87313-0.3857-2.1828-0.38861-2.9104-0.0106-2.6391 1.1335-5.8208 2.093-5.8208 0.18131 0 0.70424 0.71438 1.1621 1.5875 0.76775 1.4642 0.83145 1.7828 0.82006 4.101-0.0112 2.289-0.10329 2.738-1.0305 5.0271-0.90646 2.2378-1.0177 2.7602-1.0141 4.7625 2e-3 1.2369 0.18696 2.9633 0.4105 3.8365 0.22353 0.87313 0.49565 2.3019 0.60471 3.175l0.19829 1.5875 0.25766-0.92604c0.14171-0.50932 0.59937-1.9522 1.017-3.2064 0.63825-1.9166 0.76026-2.7185 0.76495-5.0271 9e-3 -4.4363 1.3331-7.4335 4.6582-10.544 1.7892-1.6738 4.8996-3.4476 6.0452-3.4476 0.79186 0 0.78196-0.16712 0.15679 2.6458-0.69574 3.1305-1.4301 4.9557-2.8962 7.1986-1.3603 2.081-2.3218 3.0285-4.7398 4.6705l-1.5506 1.053-1.2127 3.2624c-2.123 5.7113-2.1532 5.916-1.7734 12.03 0.26379 4.2472 0.26431 5.741 3e-3 7.3636-0.36353 2.2535-0.2178 2.9554 0.24075 1.1595 0.16167-0.63316 0.66848-2.4014 1.1262-3.9293 0.96524-3.2219 1.0592-5.2321 0.34795-7.4415-0.58231-1.8088-0.39484-4.4445 0.41028-5.7684 0.43021-0.70743 0.59189-0.80336 0.90958-0.5397 0.3016 0.25031 0.38906 1.0826 0.39868 3.794l0.0123 3.4733 0.66809-1.2841c0.52465-1.0084 0.69611-1.8037 0.79859-3.7042 0.17682-3.279 0.52274-4.7435 1.62-6.8585 1.6733-3.2254 6.4092-7.0105 9.6549-7.7166 0.67815-0.14752 0.72734-0.0995 0.72369 0.70666-0.01 2.1017-1.531 6.8554-2.8698 8.9666-0.89779 1.4157-3.5274 3.9817-5.849 5.7075-0.94118 0.69967-1.9686 1.6553-2.283 2.1236-0.67097 0.99911-2.8536 5.937-3.1323 7.0861-0.17513 0.72233-0.0598 0.65092 1.2823-0.79375 0.81113-0.87313 1.9182-2.4123 2.4602-3.4204 1.4346-2.6684 3.4456-4.7201 5.727-5.843 2.4009-1.1817 5.3395-1.8172 7.4318-1.6074 2.6509 0.26592 2.5529 0.65528-1.1164 4.4367-3.655 3.7667-5.7255 4.9068-9.7461 5.3666-1.418 0.16216-1.7866 0.33335-2.9963 1.3916-1.866 1.6324-3.8619 4.3257-4.3951 5.931-0.4686 1.4108-0.37281 1.9985 0.15931 0.97745 0.17713-0.33988 0.86431-1.2588 1.5271-2.0421 1.6404-1.9386 3.741-2.941 6.1643-2.9413 2.2168-2.6e-4 3.4065 0.23483 3.4065 0.67316 0 0.60529-2.975 3.0171-4.3538 3.5295-0.73414 0.27283-2.2873 0.5737-3.4515 0.66858-2.3948 0.19519-2.5108 0.2816-3.85 2.8677-0.77901 1.5043-0.80096 1.5214-1.959 1.5214-0.64416 0-1.2221-0.0893-1.2844-0.19844zm1.8446-2.5135c-0.0734-0.1819-0.13345-0.0331-0.13345 0.33073 0 0.3638 0.06 0.51263 0.13345 0.33073 0.0734-0.1819 0.0734-0.47956 0-0.66146zm8.8913-3.5836c2.1012-1.1204 2.0533-1.4632-0.0973-0.6965-1.0768 0.38385-2.0708 0.80442-2.2091 0.93461-0.13825 0.13018-0.53223 0.23669-0.87552 0.23669-0.34962 0-0.55207 0.11663-0.46028 0.26516 0.25496 0.41253 2.2355 0.0101 3.6422-0.73996zm-16.872 0.0853 1.0583-0.3488-1.4552-0.0494c-3.7162-0.12618-5.9469 0.14752-4.4952 0.55157 1.0877 0.30273 3.7627 0.21888 4.8921-0.15336zm16.206-1.4524c2.078-0.63201 2.5114-0.93542 0.92604-0.64818-1.6423 0.29754-3.6669 1.1422-4.1973 1.751l-0.49901 0.57278 0.92604-0.54609c0.50932-0.30034 1.7892-0.80862 2.8443-1.1295zm-18.19-0.03c1.4932-0.0223 1.6152-0.0591 0.92604-0.2797-0.8841-0.28295-3.1884-0.11287-4.1426 0.30578-0.51793 0.22724-0.44579 0.24958 0.43839 0.13578 0.58209-0.0749 1.8322-0.14775 2.7781-0.16186zm3.9688-3.0229c-0.36658-0.4417-1.9856-0.56236-1.7171-0.12798 0.0914 0.1479 0.24726 0.22233 0.34635 0.1654 0.0991-0.0569 0.41828-8e-3 0.70932 0.10938 0.82078 0.3302 1.0205 0.28586 0.66146-0.1468zm17.438-3.544c0.88582-0.2757 2.1764-0.86584 2.8678-1.3114 1.2311-0.79328 5.4118-4.8019 5.0081-4.8019-0.11258 0-1.3979 0.59085-2.8563 1.313-2.5631 1.2692-5.253 3.0057-7.0553 4.5546-0.85148 0.7318-0.85598 0.74694-0.22201 0.74694 0.3559 0 1.3718-0.22557 2.2577-0.50127zm-22.256-0.83948c0.97631-0.30085 2.0122-0.63986 2.302-0.75336 0.67754-0.26536-4.6163-0.63275-6.0832-0.42218-1.6358 0.23482-3.6133 0.71098-3.4851 0.83916 0.29328 0.29328 2.8317 0.821 4.0912 0.85054 0.76993 0.0181 2.1987-0.21331 3.175-0.51416zm24.796-3.9521c1.1351-0.62661 2.6111-1.3534 3.2798-1.615 1.0022-0.39208 1.0929-0.4779 0.51622-0.4881-1.097-0.0194-3.9413 0.94989-5.28 1.7994-1.236 0.78427-3.2487 2.7078-3.7042 3.5401-0.13756 0.25137 0.50913-0.11764 1.4371-0.82001 0.92797-0.70237 2.616-1.7897 3.7511-2.4163zm-26.196 1.6742c1.6007 0.0739 3.1383 0.22416 3.4168 0.33397 0.32433 0.12786 0.4457 0.10139 0.33755-0.0736-0.77839-1.2595-7.7942-1.0398-9.5874 0.3001-0.36774 0.27478-0.0205 0.23025 1.2028-0.15426 1.4462-0.45454 2.1828-0.51915 4.6302-0.4062zm15.141-3.3219c-0.0589-0.47555-0.10828-0.15026-0.10977 0.72286-1e-3 0.87313 0.0467 1.2622 0.10707 0.86464 0.0604-0.39758 0.0616-1.112 3e-3 -1.5875zm9.3748-4.1496c1.1577-1.3152 2.6409-4.2029 3.239-6.3061 0.21727-0.76399 0.35036-1.3891 0.29575-1.3891-0.15701 0-2.8896 2.9169-4.0123 4.2829-0.56061 0.6821-1.5976 2.349-2.3044 3.7042s-1.5378 2.8807-1.8467 3.39c-0.51092 0.8424-0.37399 0.77104 1.516-0.7901 1.1427-0.94388 2.5434-2.2452 3.1125-2.8918zm-3.1618-1.4151c0.83704-1.4503 2.2102-3.2714 3.4719-4.6043 1.148-1.2128 2.0211-2.205 1.9403-2.205-0.59895 0-3.543 2.1218-4.7441 3.4192-1.688 1.8233-2.6667 3.7162-3.0794 5.956-0.45105 2.448-0.33394 2.8289 0.38391 1.2484 0.35348-0.77825 1.2658-2.4947 2.0274-3.8143zm-19.009 4.0631c-0.4136-0.35087-3.9074-1.5925-5.2551-1.8675-1.6968-0.3463-5.9553-0.74088-5.946-0.55095 0.0172 0.35174 3.7461 1.77 5.677 2.1593 2.1553 0.43448 5.94 0.61207 5.5241 0.25919zm-0.33579-1.9835c-1.563-1.6126-3.2469-2.3286-5.8134-2.4719-1.581-0.0883-2.6867-7e-3 -3.6037 0.26634l-1.3229 0.39367 2.1167 0.18383c2.8633 0.24867 5.8279 0.99981 7.7054 1.9523 0.85523 0.43386 1.6064 0.73929 1.6692 0.67873 0.0628-0.0606-0.27522-0.51191-0.75119-1.003zm4.7624-0.56636c-0.37283-0.80693-0.71748-1.3483-0.76589-1.2031-0.12184 0.36553 0.92257 2.6702 1.2101 2.6702 0.12854 0-0.0713-0.66022-0.44417-1.4672zm10.464-10.307c1.5027-2.9004 2.6785-4.6113 4.4042-6.4083 0.87747-0.91379 1.532-1.6614 1.4545-1.6614-0.4795 0-2.809 1.5734-3.8637 2.6096-2.3814 2.3397-3.8643 5.2456-4.1731 8.1776l-0.15965 1.5159 0.68909-1.1906c0.379-0.65484 1.1209-2.0241 1.6487-3.0427zm1.5965 2.0505c2.1118-2.0442 3.343-4.0512 4.2108-6.8637l0.6061-1.9645-0.98575 1.0076c-1.4341 1.4659-2.4372 2.851-3.7951 5.2409-1.7532 3.0855-2.3724 4.3656-2.1116 4.3656 0.12681 0 1.0608-0.80367 2.0755-1.7859zm-17.899-0.59444c-1.6048-1.5061-2.6583-2.2641-3.7042-2.6653-0.80385-0.30834-2.0458-0.78866-2.7598-1.0674-0.71406-0.27871-1.3389-0.46611-1.3886-0.41644-0.2233 0.2233 3.077 3.526 4.3145 4.3176 1.224 0.78301 4.3161 1.8874 5.3838 1.9229 0.21828 7e-3 -0.61231-0.93388-1.8458-2.0914zm3.4164 0.7494c-0.48679-0.9276-1.8262-2.6542-2.6029-3.3553-1.1963-1.0799-3.7215-2.0784-5.7146-2.2598l-1.8521-0.16848 1.0583 0.41484c0.58208 0.22817 1.3594 0.51134 1.7273 0.62928 1.4536 0.4659 2.9542 1.4088 4.1439 2.6038 1.4226 1.429 3.3255 2.9925 3.4683 2.8497 0.0529-0.0529-0.0498-0.37421-0.22818-0.71409zm5.8041-7.2987c-0.0324-3.0024-0.0417-3.05-0.27127-1.3891-0.21491 1.5548-0.0896 4.4979 0.19157 4.4979 0.0623 0 0.0982-1.399 0.0797-3.1089zm-3.266 0.66146c-0.0971-0.9095-0.30096-2.0704-0.45311-2.5797-0.46504-1.5568-1.8092-3.4188-3.0952-4.2877-1.0376-0.70109-1.1347-0.72934-0.64364-0.18722 1.321 1.4583 2.2429 3.1785 3.1427 5.864 0.52411 1.5644 1.0143 2.8443 1.0893 2.8443 0.075 0 0.057-0.74414-0.0401-1.6536zm-1.8233 0.0215c-0.73755-1.6029-1.442-3.885-1.267-4.1047 0.0947-0.11894 0.0662-0.13013-0.0633-0.02487-0.12952 0.10526-0.42717-0.14689-0.66146-0.56033-0.23429-0.41344-0.76427-1.1544-1.1777-1.6466l-0.75175-0.89488 0.15368 1.0877c0.0845 0.59822 0.40252 1.8933 0.70663 2.8779 0.43941 1.4227 0.82346 2.0607 1.8706 3.1078 0.72471 0.72471 1.3803 1.255 1.4568 1.1785 0.0765-0.0765-0.0434-0.53577-0.2664-1.0205zm6.6447-1.146c-0.0727-0.9061-0.2715-1.8721-0.4417-2.1466-0.25818-0.41645-0.27955-0.34572-0.12896 0.42689 0.0993 0.50932 0.181 1.5476 0.1816 2.3074 6.7e-4 0.83739 0.10352 1.318 0.2612 1.2206 0.14931-0.0923 0.20378-0.86248 0.12786-1.8082z" fill="#1b5033"/>
 </g>
</svg>
