<?xml version="1.0" encoding="UTF-8"?>
<svg id="gardensvg" version="1.1" xml:space="preserve" xmlns="http://www.w3.org/2000/svg">
  <g id="viewport" transform="translate(0) scale(1)">
    <g fill="none" stroke="#000" stroke-width=".75591"><g stroke-width=".75591">
      <path d="m401.34 534.23-1.1845 17.233 1.9354 4.2837 4.9713 2.8395 5.9058 1.9415 6.9898 1.3269 23.872 2.3089 34.922 2.922 43.354 1.3543 36.149-0.2587 32.66-1.1266 43.182-1.3558 38.624-3.4294 39.779-6.1589 15.084-2.7835 5.4444-3.314 0.47247-13.446z"/>
      <path d="m501.24 389.92-91.523-39.486 9.2722-21.552 92.056 39.605-0.56049 55.855-9.4319 0.11542z" stroke-linecap="round"/>
      <path d="m544.89 49.713 26.631 11.481 8.6402-20.831 75.632 1.657-1.5387 144.04 1.1836 89.243-0.71019 39.532-0.62732 55.984h16.324v76.223l-9.4575-0.35507 0.0694-41.959h-33.596l-192.98-86.774 1.5879-3.3237 20.714 9.3318 20.432-47.12-21.541-8.9953 1.3976-3.2888 24.027 10.297 4.047-9.6124-95.989-40.834 6.7465-14.085 66.518 29.235z"/></g><g stroke-linecap="round" stroke-width=".75591">
      <path d="m294.23 361.32 39.349-90.329 18.647 8.2016-46.45 106.66-7.6664-10.019z"/>
      <path d="m247.66 464.23 36.889-83.182 5.247 13.428 7.2556 9.7457-30.194 68.452z"/>
      <rect transform="rotate(-66.259)" x="-49.416" y="414.8" width="64.556" height="19.347"/>
      <rect transform="rotate(-66.259)" x="21.075" y="414.15" width="79.998" height="20.01"/>
      <rect transform="rotate(-66.259)" x="119.94" y="414.03" width="46.682" height="20.308"/>
      <rect transform="rotate(203.28)" x="-514.65" y="-65.837" width="68.33" height="3.2491" ry="0" opacity=".792"/>
      <rect transform="rotate(203.28)" x="-515.4" y="-120.74" width="68.33" height="3.4996" ry="0"/>
      <rect transform="rotate(203.28)" x="-475.04" y="-159.64" width="28.785" height="22.753" ry="0"/>
      </g><g stroke-width=".75591"><path d="m526.22 418.33 0.25102-43.018 99.51 43.688 0.0836 22.095-93.498-0.66953 0.0114-16.069z"/>
      <path d="m260 515.11 3.314-3.3141 7.1016-1.8937h10.889l9.6585 4.5239 11.362 5.6813 10.46 4.0837 8.5219 2.3672 17.991 4.2609 32.419 5.1265 5.6812 2.8406 5.2078 7.575 0.94685 7.1016-3.7875 5.6812-65.948-14.084-23.672-7.1016-25.309-8.9077-4.2609-6.6281z"/>
      <ellipse transform="rotate(15.761)" cx="679.84" cy="140.8" rx="27.353" ry="38.75"/><ellipse transform="rotate(15.761)" cx="679.65" cy="142.02" rx="20.312" ry="28.776"/></g><ellipse transform="rotate(15.761)" cx="679.08" cy="143.26" rx="13.619" ry="19.293" stroke-width=".70674"/><g stroke-linecap="round" stroke-width=".75591">
      <rect transform="rotate(203.28)" x="-439.68" y="-114.66" width="4.6996" height="2.4976" ry="0" opacity=".792"/>
      <rect transform="rotate(203.28)" x="-444.6" y="-70.18" width="4.6996" height="2.4976" ry="0" opacity=".792"/>
      <rect transform="rotate(203.28)" x="-439.05" y="-70.172" width="4.6996" height="2.4976" ry="0" opacity=".792"/>
      <rect transform="rotate(203.28)" x="-445.22" y="-114.66" width="4.6996" height="2.4976" ry="0"/>
    </g></g>
  </g>
</svg>
